<!--Created with Inkscape (http://www.inkscape.org/)--><svg xmlns:dc="http://purl.org/dc/elements/1.1/" xmlns:cc="http://creativecommons.org/ns#" xmlns:rdf="http://www.w3.org/1999/02/22-rdf-syntax-ns#" xmlns="http://www.w3.org/2000/svg" xmlns:sodipodi="http://sodipodi.sourceforge.net/DTD/sodipodi-0.dtd" xmlns:inkscape="http://www.inkscape.org/namespaces/inkscape" width="32" height="32" id="svg3049" version="1.1" inkscape:version="0.92.4 (5da689c313, 2019-01-14)" sodipodi:docname="category-experiment.svg" inkscape:export-filename="clock.png" inkscape:export-xdpi="90" inkscape:export-ydpi="90"><defs id="defs3051"><style type="text/css" id="current-color-scheme"></style></defs><sodipodi:namedview id="base" pagecolor="#ffffff" bordercolor="#666666" borderopacity="1.0" inkscape:pageopacity="0.0" inkscape:pageshadow="2" inkscape:zoom="5.6568545" inkscape:cx="16.682978" inkscape:cy="11.660015" inkscape:document-units="px" inkscape:current-layer="layer1" showgrid="true" fit-margin-top="0" fit-margin-left="0" fit-margin-right="0" fit-margin-bottom="0" inkscape:window-width="1884" inkscape:window-height="1051" inkscape:window-x="0" inkscape:window-y="0" inkscape:window-maximized="1" inkscape:showpageshadow="false" borderlayer="true" inkscape:snap-bbox="true" inkscape:snap-global="true"><inkscape:grid type="xygrid" id="grid4085"/><sodipodi:guide position="2.0000044,14.00003" orientation="12,0" id="guide4075" inkscape:locked="false"/><sodipodi:guide position="2.0000044,2.0000296" orientation="0,12" id="guide4077" inkscape:locked="false"/><sodipodi:guide position="30,17" orientation="-12,0" id="guide4079" inkscape:locked="false"/><sodipodi:guide position="18,30" orientation="0,-12" id="guide4081" inkscape:locked="false"/></sodipodi:namedview><metadata id="metadata3054"><rdf:RDF><cc:Work><dc:format>image/svg+xml</dc:format><dc:type rdf:resource="http://purl.org/dc/dcmitype/StillImage"/><dc:title/><dc:date>2019</dc:date><dc:creator><cc:Agent><dc:title>Timothée Giet</dc:title></cc:Agent></dc:creator><cc:license rdf:resource="http://creativecommons.org/licenses/by-sa/4.0/"/></cc:Work><cc:License rdf:about="http://creativecommons.org/licenses/by-sa/4.0/"><cc:permits rdf:resource="http://creativecommons.org/ns#Reproduction"/><cc:permits rdf:resource="http://creativecommons.org/ns#Distribution"/><cc:requires rdf:resource="http://creativecommons.org/ns#Notice"/><cc:requires rdf:resource="http://creativecommons.org/ns#Attribution"/><cc:permits rdf:resource="http://creativecommons.org/ns#DerivativeWorks"/><cc:requires rdf:resource="http://creativecommons.org/ns#ShareAlike"/></cc:License></rdf:RDF></metadata><g inkscape:label="Capa 1" inkscape:groupmode="layer" id="layer1" transform="translate(-421.714 -515.79)"><path style="opacity:1;vector-effect:none;fill:#4d4d4d;fill-opacity:1;stroke:none;stroke-width:1;stroke-linecap:butt;stroke-linejoin:miter;stroke-miterlimit:4;stroke-dasharray:none;stroke-dashoffset:0;stroke-opacity:1" d="M16 2a4 2 0 0 0-4 2 4 2 0 0 0 4 2 4 2 0 0 0 4-2 4 2 0 0 0-4-2zm0 .559a3 1 0 0 1 3 1 3 1 0 0 1-3 1 3 1 0 0 1-3-1 3 1 0 0 1 3-1z" transform="translate(421.714 515.79)" id="path849" inkscape:connector-curvature="0"/><rect style="opacity:1;vector-effect:none;fill:#4d4d4d;fill-opacity:1;stroke:none;stroke-width:.95742583;stroke-linecap:butt;stroke-linejoin:miter;stroke-miterlimit:4;stroke-dasharray:none;stroke-dashoffset:0;stroke-opacity:1" id="rect851" width="6" height="10.99997" x="434.71429" y="520.79071"/><path style="fill:#4d4d4d;fill-opacity:1;stroke:none;stroke-width:1px;stroke-linecap:butt;stroke-linejoin:miter;stroke-opacity:1" d="m437.714 523.79-11 19c0 5 22 5 22 0zm-5.295 12c1.295 2 9.295 2 10.59 0l3.705 7c0 3-18 3-18 0z" id="path853" inkscape:connector-curvature="0" sodipodi:nodetypes="ccccccccc"/></g></svg>