<?xml version="1.0" encoding="UTF-8" standalone="no"?>
<!-- Created with Inkscape (http://www.inkscape.org/) -->

<svg
   xmlns:dc="http://purl.org/dc/elements/1.1/"
   xmlns:cc="http://creativecommons.org/ns#"
   xmlns:rdf="http://www.w3.org/1999/02/22-rdf-syntax-ns#"
   xmlns:svg="http://www.w3.org/2000/svg"
   xmlns="http://www.w3.org/2000/svg"
   xmlns:sodipodi="http://sodipodi.sourceforge.net/DTD/sodipodi-0.dtd"
   xmlns:inkscape="http://www.inkscape.org/namespaces/inkscape"
   width="32"
   height="32"
   id="svg3049"
   version="1.1"
   inkscape:version="0.92.4 (5da689c313, 2019-01-14)"
   sodipodi:docname="category-arithmetic.svg"
   inkscape:export-filename="clock.png"
   inkscape:export-xdpi="90"
   inkscape:export-ydpi="90">
  <defs
     id="defs3051">
    <style
       type="text/css"
       id="current-color-scheme">
      .ColorScheme-Text {
        color:#4d4d4d;
      }
      .ColorScheme-Background {
        color:#eff0f1;
      }
      .ColorScheme-Highlight {
        color:#3daee9;
      }
      .ColorScheme-ViewText {
        color:#31363b;
      }
      .ColorScheme-ViewBackground {
        color:#fcfcfc;
      }
      .ColorScheme-ViewHover {
        color:#93cee9;
      }
      .ColorScheme-ViewFocus{
        color:#3daee9;
      }
      .ColorScheme-ButtonText {
        color:#31363b;
      }
      .ColorScheme-ButtonBackground {
        color:#eff0f1;
      }
      .ColorScheme-ButtonHover {
        color:#93cee9;
      }
      .ColorScheme-ButtonFocus{
        color:#3daee9;
      }
      </style>
  </defs>
  <sodipodi:namedview
     id="base"
     pagecolor="#ffffff"
     bordercolor="#666666"
     borderopacity="1.0"
     inkscape:pageopacity="0.0"
     inkscape:pageshadow="2"
     inkscape:zoom="16.000001"
     inkscape:cx="8.2454787"
     inkscape:cy="18.410014"
     inkscape:document-units="px"
     inkscape:current-layer="text843"
     showgrid="true"
     fit-margin-top="0"
     fit-margin-left="0"
     fit-margin-right="0"
     fit-margin-bottom="0"
     inkscape:window-width="1884"
     inkscape:window-height="1051"
     inkscape:window-x="0"
     inkscape:window-y="0"
     inkscape:window-maximized="1"
     inkscape:showpageshadow="false"
     borderlayer="true"
     inkscape:snap-bbox="true"
     inkscape:snap-global="true">
    <inkscape:grid
       type="xygrid"
       id="grid4085" />
    <sodipodi:guide
       position="2.0000044,14.00003"
       orientation="12,0"
       id="guide4075"
       inkscape:locked="false" />
    <sodipodi:guide
       position="2.0000044,2.0000296"
       orientation="0,12"
       id="guide4077"
       inkscape:locked="false" />
    <sodipodi:guide
       position="30,17"
       orientation="-12,0"
       id="guide4079"
       inkscape:locked="false" />
    <sodipodi:guide
       position="18,30"
       orientation="0,-12"
       id="guide4081"
       inkscape:locked="false" />
  </sodipodi:namedview>
  <metadata
     id="metadata3054">
    <rdf:RDF>
      <cc:Work
         rdf:about="">
        <dc:format>image/svg+xml</dc:format>
        <dc:type
           rdf:resource="http://purl.org/dc/dcmitype/StillImage" />
        <dc:title />
        <dc:date>2019</dc:date>
        <dc:creator>
          <cc:Agent>
            <dc:title>Timothée Giet</dc:title>
          </cc:Agent>
        </dc:creator>
        <cc:license
           rdf:resource="http://creativecommons.org/licenses/by-sa/4.0/" />
      </cc:Work>
      <cc:License
         rdf:about="http://creativecommons.org/licenses/by-sa/4.0/">
        <cc:permits
           rdf:resource="http://creativecommons.org/ns#Reproduction" />
        <cc:permits
           rdf:resource="http://creativecommons.org/ns#Distribution" />
        <cc:requires
           rdf:resource="http://creativecommons.org/ns#Notice" />
        <cc:requires
           rdf:resource="http://creativecommons.org/ns#Attribution" />
        <cc:permits
           rdf:resource="http://creativecommons.org/ns#DerivativeWorks" />
        <cc:requires
           rdf:resource="http://creativecommons.org/ns#ShareAlike" />
      </cc:License>
    </rdf:RDF>
  </metadata>
  <g
     inkscape:label="Capa 1"
     inkscape:groupmode="layer"
     id="layer1"
     transform="translate(-421.71429,-515.79074)">
    <g
       aria-label="123"
       style="font-style:normal;font-variant:normal;font-weight:normal;font-stretch:normal;font-size:10.66666698px;line-height:1.25;font-family:Quicksand;-inkscape-font-specification:Quicksand;letter-spacing:0px;word-spacing:0px;fill:#4d4d4d;fill-opacity:1;stroke:none"
       id="text843">
      <path
         style="opacity:1;vector-effect:none;fill:#4d4d4d;fill-opacity:1;stroke:none;stroke-width:1;stroke-linecap:butt;stroke-linejoin:miter;stroke-miterlimit:4;stroke-dasharray:none;stroke-dashoffset:0;stroke-opacity:1"
         d="M 16,0 A 16,16 0 0 0 0,16 16,16 0 0 0 16,32 16,16 0 0 0 32,16 16,16 0 0 0 16,0 Z M 7.4648438,10.138672 V 21.621094 L 4.6796875,21.861328 V 14.326172 L 2.9863281,15.195312 2,13.498047 Z m 18.1464842,0.300781 h 0.05664 c 0.692273,0 1.335067,0.133464 1.929687,0.400391 0.596787,0.266926 1.081812,0.654516 1.455078,1.160156 0.36458,0.507813 0.56467,1.116532 0.601563,1.826172 v 0.158203 c 0,0.551213 -0.159296,1.169702 -0.480469,1.855469 -0.3559,0.763886 -0.787315,1.421436 -1.292969,1.972656 l -1.11914,1.240234 H 30 l -0.654297,2.507813 h -7.837891 l 4.039063,-4.841797 c 0.878907,-1.137153 1.318359,-1.944228 1.318359,-2.423828 v -0.08203 c -0.05207,-0.47092 -0.203538,-0.820742 -0.453125,-1.050782 -0.230033,-0.21484 -0.509983,-0.322265 -0.839843,-0.322265 h -0.07813 c -0.3559,0.0087 -0.648653,0.137138 -0.88086,0.386718 -0.230033,0.249567 -0.353734,0.552304 -0.371093,0.908204 v 0.05273 c 0,0.488287 0.309027,0.888672 0.929687,1.201172 l -1.558594,2.050781 c -0.0087,-0.0087 -0.114352,-0.0805 -0.318359,-0.212891 -0.203993,-0.134546 -0.399311,-0.276041 -0.585938,-0.425781 -0.729166,-0.685766 -1.09375,-1.561413 -1.09375,-2.626953 v -0.214844 c 0.02607,-0.674913 0.216393,-1.28863 0.572266,-1.839843 0.347227,-0.54254 0.830519,-0.958987 1.451172,-1.251953 0.596787,-0.284287 1.254343,-0.427735 1.972656,-0.427735 z M 14,12 h 2 v 3 h 3 v 2 h -3 v 3 h -2 v -3 h -3 v -2 h 3 z"
         transform="translate(421.71429,515.79074)"
         id="path823"
         inkscape:connector-curvature="0" />
    </g>
  </g>
</svg>
