<!--Created with Inkscape (http://www.inkscape.org/)--><svg xmlns:dc="http://purl.org/dc/elements/1.1/" xmlns:cc="http://creativecommons.org/ns#" xmlns:rdf="http://www.w3.org/1999/02/22-rdf-syntax-ns#" xmlns="http://www.w3.org/2000/svg" xmlns:sodipodi="http://sodipodi.sourceforge.net/DTD/sodipodi-0.dtd" xmlns:inkscape="http://www.inkscape.org/namespaces/inkscape" width="32" height="32" id="svg3049" version="1.1" inkscape:version="0.92.4 (5da689c313, 2019-01-14)" sodipodi:docname="category-arithmetic.svg" inkscape:export-filename="clock.png" inkscape:export-xdpi="90" inkscape:export-ydpi="90"><defs id="defs3051"><style type="text/css" id="current-color-scheme"></style></defs><sodipodi:namedview id="base" pagecolor="#ffffff" bordercolor="#666666" borderopacity="1.0" inkscape:pageopacity="0.0" inkscape:pageshadow="2" inkscape:zoom="16.000001" inkscape:cx="8.2454787" inkscape:cy="18.410014" inkscape:document-units="px" inkscape:current-layer="text843" showgrid="true" fit-margin-top="0" fit-margin-left="0" fit-margin-right="0" fit-margin-bottom="0" inkscape:window-width="1884" inkscape:window-height="1051" inkscape:window-x="0" inkscape:window-y="0" inkscape:window-maximized="1" inkscape:showpageshadow="false" borderlayer="true" inkscape:snap-bbox="true" inkscape:snap-global="true"><inkscape:grid type="xygrid" id="grid4085"/><sodipodi:guide position="2.0000044,14.00003" orientation="12,0" id="guide4075" inkscape:locked="false"/><sodipodi:guide position="2.0000044,2.0000296" orientation="0,12" id="guide4077" inkscape:locked="false"/><sodipodi:guide position="30,17" orientation="-12,0" id="guide4079" inkscape:locked="false"/><sodipodi:guide position="18,30" orientation="0,-12" id="guide4081" inkscape:locked="false"/></sodipodi:namedview><metadata id="metadata3054"><rdf:RDF><cc:Work><dc:format>image/svg+xml</dc:format><dc:type rdf:resource="http://purl.org/dc/dcmitype/StillImage"/><dc:title/><dc:date>2019</dc:date><dc:creator><cc:Agent><dc:title>Timothée Giet</dc:title></cc:Agent></dc:creator><cc:license rdf:resource="http://creativecommons.org/licenses/by-sa/4.0/"/></cc:Work><cc:License rdf:about="http://creativecommons.org/licenses/by-sa/4.0/"><cc:permits rdf:resource="http://creativecommons.org/ns#Reproduction"/><cc:permits rdf:resource="http://creativecommons.org/ns#Distribution"/><cc:requires rdf:resource="http://creativecommons.org/ns#Notice"/><cc:requires rdf:resource="http://creativecommons.org/ns#Attribution"/><cc:permits rdf:resource="http://creativecommons.org/ns#DerivativeWorks"/><cc:requires rdf:resource="http://creativecommons.org/ns#ShareAlike"/></cc:License></rdf:RDF></metadata><g inkscape:label="Capa 1" inkscape:groupmode="layer" id="layer1" transform="translate(-421.714 -515.79)"><g aria-label="123" style="font-style:normal;font-variant:normal;font-weight:400;font-stretch:normal;font-size:10.66666698px;line-height:1.25;font-family:Quicksand;-inkscape-font-specification:Quicksand;letter-spacing:0;word-spacing:0;fill:#4d4d4d;fill-opacity:1;stroke:none" id="text843"><path style="opacity:1;vector-effect:none;fill:#4d4d4d;fill-opacity:1;stroke:none;stroke-width:1;stroke-linecap:butt;stroke-linejoin:miter;stroke-miterlimit:4;stroke-dasharray:none;stroke-dashoffset:0;stroke-opacity:1" d="M16 0A16 16 0 0 0 0 16a16 16 0 0 0 16 16 16 16 0 0 0 16-16A16 16 0 0 0 16 0zM7.465 10.139V21.62l-2.785.24v-7.535l-1.694.87L2 13.497zm18.146.3h.057c.692 0 1.335.134 1.93.4A3.602 3.602 0 0 1 29.053 12c.364.508.564 1.117.601 1.826v.158c0 .552-.159 1.17-.48 1.856a7.706 7.706 0 0 1-1.293 1.973l-1.12 1.24H30l-.654 2.508h-7.838l4.039-4.842c.879-1.137 1.318-1.944 1.318-2.424v-.082c-.052-.471-.203-.82-.453-1.05a1.185 1.185 0 0 0-.84-.323h-.078a1.192 1.192 0 0 0-.88.387c-.23.25-.354.552-.372.908v.052c0 .489.31.89.93 1.202l-1.559 2.05a6.767 6.767 0 0 0-.318-.212 7.776 7.776 0 0 1-.586-.426c-.73-.686-1.094-1.562-1.094-2.627v-.215a3.585 3.585 0 0 1 .572-1.84 3.4 3.4 0 0 1 1.452-1.252 4.528 4.528 0 0 1 1.972-.428zM14 12h2v3h3v2h-3v3h-2v-3h-3v-2h3z" transform="translate(421.714 515.79)" id="path823" inkscape:connector-curvature="0"/></g></g></svg>