<!--Created with Inkscape (http://www.inkscape.org/)--><svg xmlns:dc="http://purl.org/dc/elements/1.1/" xmlns:cc="http://creativecommons.org/ns#" xmlns:rdf="http://www.w3.org/1999/02/22-rdf-syntax-ns#" xmlns="http://www.w3.org/2000/svg" xmlns:sodipodi="http://sodipodi.sourceforge.net/DTD/sodipodi-0.dtd" xmlns:inkscape="http://www.inkscape.org/namespaces/inkscape" width="32" height="32" id="svg3049" version="1.1" inkscape:version="0.92.4 (5da689c313, 2019-01-14)" sodipodi:docname="category-logic.svg" inkscape:export-filename="clock.png" inkscape:export-xdpi="90" inkscape:export-ydpi="90"><defs id="defs3051"><style type="text/css" id="current-color-scheme"></style></defs><sodipodi:namedview id="base" pagecolor="#ffffff" bordercolor="#666666" borderopacity="1.0" inkscape:pageopacity="0.0" inkscape:pageshadow="2" inkscape:zoom="8" inkscape:cx="5.9292984" inkscape:cy="16.792537" inkscape:document-units="px" inkscape:current-layer="layer1" showgrid="true" fit-margin-top="0" fit-margin-left="0" fit-margin-right="0" fit-margin-bottom="0" inkscape:window-width="1884" inkscape:window-height="1051" inkscape:window-x="0" inkscape:window-y="0" inkscape:window-maximized="1" inkscape:showpageshadow="false" borderlayer="true" inkscape:snap-bbox="true" inkscape:snap-global="true"><inkscape:grid type="xygrid" id="grid4085"/><sodipodi:guide position="2.0000044,14.00003" orientation="12,0" id="guide4075" inkscape:locked="false"/><sodipodi:guide position="2.0000044,2.0000296" orientation="0,12" id="guide4077" inkscape:locked="false"/><sodipodi:guide position="30,17" orientation="-12,0" id="guide4079" inkscape:locked="false"/><sodipodi:guide position="18,30" orientation="0,-12" id="guide4081" inkscape:locked="false"/></sodipodi:namedview><metadata id="metadata3054"><rdf:RDF><cc:Work><dc:format>image/svg+xml</dc:format><dc:type rdf:resource="http://purl.org/dc/dcmitype/StillImage"/><dc:title/><dc:date>2019</dc:date><dc:creator><cc:Agent><dc:title>Timothée Giet</dc:title></cc:Agent></dc:creator><cc:license rdf:resource="http://creativecommons.org/licenses/by-sa/4.0/"/></cc:Work><cc:License rdf:about="http://creativecommons.org/licenses/by-sa/4.0/"><cc:permits rdf:resource="http://creativecommons.org/ns#Reproduction"/><cc:permits rdf:resource="http://creativecommons.org/ns#Distribution"/><cc:requires rdf:resource="http://creativecommons.org/ns#Notice"/><cc:requires rdf:resource="http://creativecommons.org/ns#Attribution"/><cc:permits rdf:resource="http://creativecommons.org/ns#DerivativeWorks"/><cc:requires rdf:resource="http://creativecommons.org/ns#ShareAlike"/></cc:License></rdf:RDF></metadata><g inkscape:label="Capa 1" inkscape:groupmode="layer" id="layer1" transform="translate(-421.714 -515.79)"><path inkscape:connector-curvature="0" style="fill:#4d4d4d;fill-opacity:1;stroke:none;stroke-width:.70959216;stroke-miterlimit:4;stroke-dasharray:none;stroke-opacity:1" d="m446.508 518.313-.99 1.279-.02.085-.155 1.338-1.659.131-.364-1.297-.033-.08-1.178-1.108-1.02.52.204 1.604.046.075.836 1.056-1.08 1.265-1.174-.66-.082-.034-1.615.05-.354 1.09 1.279.99.085.02 1.338.155.131 1.659-1.297.363-.08.034-1.108 1.178.52 1.02 1.604-.204.075-.046 1.056-.836 1.265 1.08-.66 1.174-.033.081.05 1.616 1.089.354.99-1.279.02-.085.156-1.338 1.658-.132.364 1.298.033.08 1.179 1.108 1.02-.52-.205-1.604-.046-.075-.836-1.056 1.08-1.266 1.174.66.081.034 1.617-.05.353-1.09-1.279-.989-.085-.02-1.338-.156-.131-1.658 1.297-.364.08-.034 1.108-1.178-.52-1.02-1.604.205-.075.045-1.056.837-1.265-1.08.66-1.175.033-.08-.05-1.617-1.09-.353zm-1.598 4.724a2.253 2.253 0 0 1 1.943 1.228 2.253 2.253 0 0 1-.984 3.03 2.253 2.253 0 0 1-3.03-.983 2.253 2.253 0 0 1 .983-3.03 2.253 2.253 0 0 1 1.088-.245z" id="path4776-3"/><path inkscape:connector-curvature="0" style="fill:#4d4d4d;fill-opacity:1;stroke:none;stroke-width:.70959216;stroke-miterlimit:4;stroke-dasharray:none;stroke-opacity:1" d="m444.124 530.814-.989 1.28-.02.085-.154 1.338-1.658.133-.366-1.297-.033-.081-1.18-1.106-1.019.52.206 1.605.046.074.837 1.056-1.078 1.266-1.175-.659-.082-.034-1.615.052-.353 1.09 1.28.988.085.02 1.338.155.133 1.658-1.297.365-.081.033-1.106 1.18.52 1.02 1.604-.207.075-.046 1.055-.837 1.267 1.08-.659 1.174-.034.081.052 1.616 1.09.353.988-1.28.02-.085.154-1.338 1.659-.133.365 1.296.034.082 1.179 1.106 1.02-.521-.207-1.604-.045-.075-.838-1.055 1.08-1.266 1.174.659.08.033 1.617-.051.353-1.09-1.28-.989-.085-.02-1.338-.154-.133-1.658 1.297-.365.08-.034 1.107-1.18-.521-1.019-1.604.206-.075.046-1.055.837-1.267-1.079.66-1.175.033-.08-.052-1.616-1.089-.353zm-1.561 4.726a2.253 2.253 0 0 1 .599.108 2.253 2.253 0 0 1 1.45 2.837 2.253 2.253 0 0 1-2.837 1.45 2.253 2.253 0 0 1-1.45-2.837 2.253 2.253 0 0 1 2.238-1.558z" id="path4776"/><path inkscape:connector-curvature="0" style="fill:#4d4d4d;fill-opacity:1;stroke:none;stroke-width:.70959216;stroke-miterlimit:4;stroke-dasharray:none;stroke-opacity:1" d="m432.386 525.535-.934 1.32-.017.086-.098 1.343-1.652.201-.418-1.28-.037-.08-1.224-1.056-.997.563.271 1.594.05.072.88 1.02-1.025 1.31-1.202-.61-.082-.03-1.613.12-.306 1.102 1.319.935.086.016 1.343.1.202 1.65-1.28.42-.08.036-1.057 1.224.563.997 1.594-.272.073-.049 1.02-.88 1.31 1.025-.61 1.202-.03.082.118 1.612 1.103.307.935-1.319.017-.086.098-1.344 1.652-.201.418 1.28.037.08 1.224 1.056.997-.563-.272-1.593-.049-.073-.88-1.02 1.025-1.31 1.201.61.083.03 1.612-.119.308-1.103-1.32-.935-.086-.016-1.344-.099-.2-1.651 1.28-.419.08-.037 1.055-1.224-.562-.997-1.594.272-.073.05-1.02.88-1.31-1.026.61-1.201.03-.082-.119-1.613-1.103-.307zm-1.363 4.787a2.253 2.253 0 0 1 .603.083 2.253 2.253 0 0 1 1.566 2.774 2.253 2.253 0 0 1-2.775 1.566 2.253 2.253 0 0 1-1.566-2.774 2.253 2.253 0 0 1 2.172-1.649z" id="path4776-6"/></g></svg>