<?xml version="1.0" encoding="UTF-8" standalone="no"?>
<!-- Created with Inkscape (http://www.inkscape.org/) -->

<svg
   xmlns:dc="http://purl.org/dc/elements/1.1/"
   xmlns:cc="http://creativecommons.org/ns#"
   xmlns:rdf="http://www.w3.org/1999/02/22-rdf-syntax-ns#"
   xmlns:svg="http://www.w3.org/2000/svg"
   xmlns="http://www.w3.org/2000/svg"
   xmlns:sodipodi="http://sodipodi.sourceforge.net/DTD/sodipodi-0.dtd"
   xmlns:inkscape="http://www.inkscape.org/namespaces/inkscape"
   width="200"
   height="1052.3622"
   id="svg2"
   version="1.1"
   inkscape:version="0.48.4 r9939"
   sodipodi:docname="divider_img.svg">
  <defs
     id="defs4" />
  <sodipodi:namedview
     id="base"
     pagecolor="#ffffff"
     bordercolor="#666666"
     borderopacity="1.0"
     inkscape:pageopacity="0.0"
     inkscape:pageshadow="2"
     inkscape:zoom="0.35"
     inkscape:cx="375"
     inkscape:cy="819.25728"
     inkscape:document-units="px"
     inkscape:current-layer="layer1"
     showgrid="false"
     inkscape:window-width="1301"
     inkscape:window-height="744"
     inkscape:window-x="65"
     inkscape:window-y="24"
     inkscape:window-maximized="1" />
  <metadata
     id="metadata7">
    <rdf:RDF>
      <cc:Work
         rdf:about="">
        <dc:format>image/svg+xml</dc:format>
        <dc:type
           rdf:resource="http://purl.org/dc/dcmitype/StillImage" />
        <dc:title />
      </cc:Work>
    </rdf:RDF>
  </metadata>
  <g
     inkscape:label="Layer 1"
     inkscape:groupmode="layer"
     id="layer1">
    <path
       style="fill:none;stroke:#000000;stroke-width:23.56863785px;stroke-linecap:butt;stroke-linejoin:miter;stroke-opacity:1"
       d="m 328.57143,66.647897 c 0,908.571433 0,905.714283 0,905.714283"
       id="path2989"
       inkscape:connector-curvature="0" />
    <path
       style="fill:#008000"
       d="m 319,518.24776 0,-451.428576 10,0 10,0 0,451.428576 0,451.42857 -10,0 -10,0 0,-451.42857 z"
       id="path3010"
       inkscape:connector-curvature="0" />
    <path
       style="fill:#008000"
       d="m 319,518.24776 0,-451.428576 10,0 10,0 0,451.428576 0,451.42857 -10,0 -10,0 0,-451.42857 z"
       id="path3012"
       inkscape:connector-curvature="0" />
    <path
       style="fill:#008000"
       d="m 319,518.24776 0,-451.428576 10,0 10,0 0,451.428576 0,451.42857 -10,0 -10,0 0,-451.42857 z"
       id="path3014"
       inkscape:connector-curvature="0" />
    <path
       style="fill:#008000"
       d="m 319,518.24776 0,-451.428576 10,0 10,0 0,451.428576 0,451.42857 -10,0 -10,0 0,-451.42857 z"
       id="path3016"
       inkscape:connector-curvature="0" />
    <path
       style="fill:#008080"
       d="m 84.714286,543.96205 0,-451.42858 10,0 10.000004,0 0,451.42858 0,451.42857 -10.000004,0 -10,0 0,-451.42857 z"
       id="path3018"
       inkscape:connector-curvature="0" />
  </g>
</svg>
