<?xml version="1.0" encoding="UTF-8" standalone="no"?>
<!-- Created with Inkscape (http://www.inkscape.org/) -->

<svg
   xmlns:dc="http://purl.org/dc/elements/1.1/"
   xmlns:cc="http://creativecommons.org/ns#"
   xmlns:rdf="http://www.w3.org/1999/02/22-rdf-syntax-ns#"
   xmlns:svg="http://www.w3.org/2000/svg"
   xmlns="http://www.w3.org/2000/svg"
   xmlns:xlink="http://www.w3.org/1999/xlink"
   xmlns:sodipodi="http://sodipodi.sourceforge.net/DTD/sodipodi-0.dtd"
   xmlns:inkscape="http://www.inkscape.org/namespaces/inkscape"
   width="32.768822mm"
   height="33.505508mm"
   viewBox="0 0 116.11 118.7203"
   id="svg6083"
   version="1.1"
   inkscape:version="0.91 r13725"
   sodipodi:docname="brown_cross.svg">
  <defs
     id="defs6085">
    <radialGradient
       id="radialGradient1442"
       gradientUnits="userSpaceOnUse"
       cy="60"
       cx="-215"
       gradientTransform="matrix(1.0702,-0.035088,0.032769,0.99946,13.122,-7.5116)"
       r="57"
       inkscape:collect="always">
      <stop
         id="stop2244"
         style="stop-color:#a79342"
         offset="0" />
      <stop
         id="stop2246"
         style="stop-color:#7e6f32"
         offset="1" />
    </radialGradient>
    <linearGradient
       id="linearGradient1444"
       y2="96.547997"
       xlink:href="#linearGradient4094"
       gradientUnits="userSpaceOnUse"
       x2="-160.75999"
       y1="-37.467999"
       x1="-285.29001"
       inkscape:collect="always" />
    <linearGradient
       id="linearGradient4094"
       inkscape:collect="always">
      <stop
         id="stop4096"
         style="stop-color:#ffffff"
         offset="0" />
      <stop
         id="stop4098"
         style="stop-color:#ffffff;stop-opacity:0"
         offset="1" />
    </linearGradient>
  </defs>
  <sodipodi:namedview
     id="base"
     pagecolor="#ffffff"
     bordercolor="#666666"
     borderopacity="1.0"
     inkscape:pageopacity="0.0"
     inkscape:pageshadow="2"
     inkscape:zoom="0.35"
     inkscape:cx="-278.37357"
     inkscape:cy="-146.35413"
     inkscape:document-units="px"
     inkscape:current-layer="layer1"
     showgrid="false"
     fit-margin-top="0"
     fit-margin-left="0"
     fit-margin-right="0"
     fit-margin-bottom="0"
     inkscape:window-width="1600"
     inkscape:window-height="1141"
     inkscape:window-x="1436"
     inkscape:window-y="0"
     inkscape:window-maximized="1" />
  <metadata
     id="metadata6088">
    <rdf:RDF>
      <cc:Work
         rdf:about="">
        <dc:format>image/svg+xml</dc:format>
        <dc:type
           rdf:resource="http://purl.org/dc/dcmitype/StillImage" />
        <dc:title />
      </cc:Work>
    </rdf:RDF>
  </metadata>
  <g
     inkscape:label="Layer 1"
     inkscape:groupmode="layer"
     id="layer1"
     transform="translate(-321.945,-267.28777)">
    <g
       id="g1418"
       transform="translate(577.945,272.28777)">
      <path
         inkscape:connector-curvature="0"
         id="path3159"
         style="fill:#000000;fill-opacity:0.36799999"
         d="m -217.89,0.7233 0,35 -35,0 0,43 35,0 0,34.997 43,0 0,-34.997 35,0 0,-43 -35,0 0,-35 -43,3e-4 z" />
      <path
         inkscape:connector-curvature="0"
         id="path2268"
         style="fill:#000000;fill-opacity:0.36799999"
         d="m -219.63,-1.0178 0,35 -35,0 0,43 35,0 0,34.998 43,0 0,-34.998 35,0 0,-43 -35,0 0,-35 -43,2e-4 z" />
      <path
         inkscape:connector-curvature="0"
         id="rect2209"
         style="fill:url(#radialGradient1442);stroke:#423a19"
         d="m -220.5,-4.5 0,35 -35,0 0,43 35,0 0,35 43,0 0,-35 35,0 0,-43 -35,0 0,-35 -43,0 z" />
      <path
         inkscape:connector-curvature="0"
         id="path3177"
         style="fill:url(#linearGradient1444)"
         d="m -218.5,30.5 c -3.57,3.826 -10.68,1.473 -15.59,1.875 -5.98,0.992 -12.28,-0.812 -18.16,0.313 -3.48,2.031 -0.04,7.843 -1.25,11.062 l 0,27.75 35,0 0,35 39,0 0,-35 35,0 0,-39 -35,0 0,-35 -39,0 0,33 z" />
    </g>
  </g>
</svg>
