<?xml version="1.0" encoding="UTF-8" standalone="no"?>
<!-- Created with Inkscape (http://www.inkscape.org/) -->

<svg
   xmlns:dc="http://purl.org/dc/elements/1.1/"
   xmlns:cc="http://creativecommons.org/ns#"
   xmlns:rdf="http://www.w3.org/1999/02/22-rdf-syntax-ns#"
   xmlns:svg="http://www.w3.org/2000/svg"
   xmlns="http://www.w3.org/2000/svg"
   xmlns:xlink="http://www.w3.org/1999/xlink"
   xmlns:sodipodi="http://sodipodi.sourceforge.net/DTD/sodipodi-0.dtd"
   xmlns:inkscape="http://www.inkscape.org/namespaces/inkscape"
   width="34.265453mm"
   height="35.04026mm"
   viewBox="0 0 121.41302 124.1584"
   id="svg9177"
   version="1.1"
   inkscape:version="0.91 r13725"
   sodipodi:docname="darkblue_star.svg">
  <defs
     id="defs9179">
    <radialGradient
       id="radialGradient1470"
       gradientUnits="userSpaceOnUse"
       cy="59.976002"
       cx="296"
       gradientTransform="matrix(1.0577,-0.016789,0.015913,1.0025,-18.037,4.8434)"
       r="59.562"
       inkscape:collect="always">
      <stop
         id="stop2228"
         style="stop-color:#1f1ee2"
         offset="0" />
      <stop
         id="stop2230"
         style="stop-color:#1615aa"
         offset="1" />
    </radialGradient>
    <linearGradient
       id="linearGradient1472"
       y2="79.283997"
       xlink:href="#linearGradient4094"
       gradientUnits="userSpaceOnUse"
       x2="348.69"
       y1="-25.296"
       x1="209.25999"
       inkscape:collect="always" />
    <linearGradient
       id="linearGradient4094"
       inkscape:collect="always">
      <stop
         id="stop4096"
         style="stop-color:#ffffff"
         offset="0" />
      <stop
         id="stop4098"
         style="stop-color:#ffffff;stop-opacity:0"
         offset="1" />
    </linearGradient>
  </defs>
  <sodipodi:namedview
     id="base"
     pagecolor="#ffffff"
     bordercolor="#666666"
     borderopacity="1.0"
     inkscape:pageopacity="0.0"
     inkscape:pageshadow="2"
     inkscape:zoom="0.35"
     inkscape:cx="-170.00777"
     inkscape:cy="-12.206515"
     inkscape:document-units="px"
     inkscape:current-layer="layer1"
     showgrid="false"
     fit-margin-top="0"
     fit-margin-left="0"
     fit-margin-right="0"
     fit-margin-bottom="0"
     inkscape:window-width="1600"
     inkscape:window-height="1141"
     inkscape:window-x="1436"
     inkscape:window-y="0"
     inkscape:window-maximized="1" />
  <metadata
     id="metadata9182">
    <rdf:RDF>
      <cc:Work
         rdf:about="">
        <dc:format>image/svg+xml</dc:format>
        <dc:type
           rdf:resource="http://purl.org/dc/dcmitype/StillImage" />
        <dc:title />
      </cc:Work>
    </rdf:RDF>
  </metadata>
  <g
     inkscape:label="Layer 1"
     inkscape:groupmode="layer"
     id="layer1"
     transform="translate(-213.5792,-395.99729)">
    <g
       id="g1436"
       transform="translate(-41.677772,404.71609)">
      <path
         inkscape:connector-curvature="0"
         id="path3161"
         style="fill:#000000;fill-opacity:0.36799999"
         d="m 302.08,-2.9954 0,32.312 -28,-16.156 -15.53,26.906 28,16.156 -28,16.157 15.53,26.906 28,-16.156 0,32.31 31.06,0 0,-32.31 28,16.156 15.53,-26.906 -28,-16.157 28,-16.156 -15.53,-26.906 -28,16.156 0,-32.312 -31.06,-4e-4 z" />
      <path
         inkscape:connector-curvature="0"
         id="path2270"
         style="fill:#000000;fill-opacity:0.36799999"
         d="m 300.34,-4.7365 0,32.312 -28,-16.156 -15.53,26.906 28,16.156 -28,16.156 15.53,26.907 28,-16.157 0,32.312 31.06,0 0,-32.312 28,16.157 15.53,-26.907 -28,-16.156 28,-16.156 -15.53,-26.906 -28,16.156 0,-32.312 -31.06,-5e-4 z" />
      <path
         inkscape:connector-curvature="0"
         id="rect2219"
         style="fill:url(#radialGradient1470);stroke:#090952"
         d="m 299.47,-8.2188 0,32.313 -28,-16.156 -15.53,26.906 28,16.156 -28,16.156 15.53,26.906 28,-16.156 0,32.314 31.06,0 0,-32.314 28,16.156 15.53,-26.906 -28,-16.156 28,-16.156 -15.53,-26.906 -28,16.156 0,-32.313 -31.06,2e-4 z" />
      <path
         inkscape:connector-curvature="0"
         id="path3179"
         style="fill:url(#linearGradient1472)"
         d="m 301.47,24.094 c -1.79,3.772 -6.75,-0.178 -8.97,-1.594 -5.45,-3.803 -11.79,-6.112 -17.06,-10.312 -4.11,-3.203 -5.67,2.911 -7.32,5.591 -3.14,5.438 -6.29,10.876 -9.43,16.315 9.75,5.625 19.51,11.251 29.25,16.906 -9.74,5.655 -19.5,11.281 -29.25,16.906 4.51,7.802 9.02,15.604 13.53,23.406 9.75,-5.611 19.48,-11.262 29.25,-16.843 l 0,33.751 27.06,0 0,-33.751 c 9.77,5.582 19.5,11.232 29.25,16.843 4.51,-7.802 9.02,-15.604 13.53,-23.406 C 361.56,62.281 351.8,56.655 342.06,51 351.8,45.345 361.56,39.719 371.31,34.094 366.8,26.292 362.29,18.49 357.78,10.688 348.03,16.299 338.3,21.95 328.53,27.531 l 0,-33.75 c -9.02,2e-4 -18.04,2e-4 -27.06,2e-4 l 0,30.313 z" />
    </g>
  </g>
</svg>
