<?xml version="1.0" encoding="UTF-8" standalone="no"?>
<!-- Created with Inkscape (http://www.inkscape.org/) -->

<svg
   width="263.07138"
   height="261.73898"
   viewBox="0 0 263.07138 261.73898"
   version="1.1"
   id="svg5"
   xmlns="http://www.w3.org/2000/svg"
   xmlns:svg="http://www.w3.org/2000/svg"
   xmlns:rdf="http://www.w3.org/1999/02/22-rdf-syntax-ns#"
   xmlns:cc="http://creativecommons.org/ns#"
   xmlns:dc="http://purl.org/dc/elements/1.1/">
  <metadata
     id="metadata53">
    <rdf:RDF>
      <cc:Work
         rdf:about="">
        <dc:format>image/svg+xml</dc:format>
        <dc:type
           rdf:resource="http://purl.org/dc/dcmitype/StillImage" />
      </cc:Work>
    </rdf:RDF>
  </metadata>
  <defs
     id="defs2" />
  <g
     id="layer4"
     style="display:inline"
     transform="translate(-127.57318,-68.143634)">
    <path
       class="polygon"
       d="m 298.76522,289.60894 -0.46019,0.30277 0.0831,-1.59028 0.24785,-0.53118 0.27061,-0.39655 0.33425,-0.24583 0.24785,0.34765 -0.21167,0.76931 -0.58411,0.94261 z m -0.6598,-9.14624 -0.12526,0.0817 -0.41999,-0.83141 0.8442,-0.79939 0.282,0.32421 -0.22439,0.63233 -0.24784,0.44545 z m 22.26672,-16.82913 -0.004,0.34899 -0.27933,-0.17818 -0.7389,0.13531 -0.25856,-0.26325 0.99853,-1.12581 0.20163,0.16345 0.1554,0.20564 0.10718,0.28669 -0.11522,0.18488 z m 7.57565,-5.00554 0.20899,0.18421 -0.3865,-0.0201 -0.43405,0.1621 -0.66717,0.14401 -0.2686,-0.26927 0.57606,-0.37445 0.20899,-0.282 0.15072,0.0603 0.19291,0.20363 z m 35.00419,-64.76344 -0.22976,0.39447 -0.26593,-0.059 -0.10449,-0.26425 -0.19426,-0.25776 0.1045,-0.20149 0.17751,-0.11447 0.48898,0.0174 z m 1.06987,-2.52107 -0.26258,0.14455 -0.0268,-0.42582 0.68391,-0.53708 0.11253,-0.63454 0.35904,0.29372 0.0958,0.32448 -0.006,0.13477 z m -38.55261,-68.03878 -0.65912,0.65612 0.21702,-0.76143 -0.11119,-0.52462 0.0857,-0.40619 0.44946,-0.39313 0.13732,-0.0583 -0.0402,0.48343 0.0335,0.1485 z m -2.57079,-10.86335 -0.4287,0.32253 -0.13866,0.16612 -0.35501,-0.12366 0.067,-0.18514 0.1045,0.0187 0.1132,-0.53768 0.60554,0.0643 z m -46.5502,0.77646 -0.70903,0.12627 0.91313,-1.67526 0.81741,-0.77974 0.0134,-1.54771 0.88567,-1.37632 0.81439,-0.56059 1.14181,-0.16418 0.62497,0.83927 -0.77414,2.37846 -0.22641,0.0141 -1.03845,1.25465 -1.15588,0.8759 z m 14.7624,-8.06886 0.62631,0.0295 0.8864,-0.12694 0.59348,-0.31335 0.66448,-0.0616 0.65712,0.0328 2.21329,0.34798 1.32984,0.10791 0.48631,0.11119 0.47559,0.15829 0.34698,0.17074 0.0871,0.37156 -0.32354,0.59395 -0.24047,0.6247 -0.2244,0.87197 -0.17349,0.1773 -0.29004,-0.0462 0.18019,0.7804 -0.067,0.31201 -0.14334,0.30351 -0.35569,0.62992 -0.53922,0.80198 -0.1601,0.16813 -0.41061,0.27866 -0.33358,0.35649 0.0717,0.33492 0.16746,0.33753 -0.1976,0.42261 -0.63836,0.61819 -0.38181,0.14978 -0.35167,0.063 -0.3242,-0.0603 -0.57473,-0.61947 -0.0603,0.4847 -0.15474,0.49581 -0.19559,0.27149 -0.74246,-0.0288 -0.41396,-0.26559 -0.67018,-0.29433 -0.12727,0.79609 -0.41664,0.5488 -0.41999,0.17202 -0.65779,0.11582 -0.37712,0.2335 -0.71137,-0.18253 -0.66047,-0.365 -0.37377,-0.0315 -0.29205,0.295 -1.53495,0.0543 -0.70353,0.29962 -0.43004,-0.0851 -0.63233,-0.6044 -0.10115,-0.40231 -0.37645,-0.81506 -0.3376,-0.96813 -0.24047,-0.87917 0.20296,-0.76011 0.40994,0.0255 0.48497,0.1132 0.10315,-0.0536 0.0268,-0.24336 -0.10718,-0.20216 -0.7817,0.0322 -0.49368,-0.45134 -0.0857,-0.69732 0.10115,-1.44958 0.067,-0.29762 0.34497,-0.41537 0.1132,-0.36761 -0.0851,-0.39051 0.14804,-0.70844 0.32286,-0.61358 1.23211,-0.7732 1.42898,-0.27477 z m -6.86066,-0.6535 -1.83189,1.31091 -0.62027,-0.43044 -0.12794,-0.24925 0.10516,-0.25119 -0.0201,-0.10731 0.20564,-0.4494 1.02405,-0.36895 0.51511,-0.0623 0.65846,0.11481 0.10985,0.32052 z m 8.09833,-0.12887 -1.77468,0.20999 -0.81212,-0.33391 0.18354,-0.28161 0.60554,-0.44872 0.73749,-0.31858 0.66114,-0.14067 0.6898,0.17724 0.1889,0.37612 -0.0536,0.37873 z m -1.97161,-2.5492 0.27463,0.34966 -0.94917,1.40052 -0.52314,0.20149 -0.57205,0.0409 -0.74111,-0.41731 -1.15522,0.0295 -0.36104,-0.0991 -0.0402,-0.61029 0.48564,-0.65156 0.96906,0.0348 1.66777,-0.52267 z m -4.60779,0.86347 -0.11923,0.98416 -1.20558,-0.4157 0.0904,-1.00738 0.564,-0.28227 0.50038,-0.53574 0.17081,-0.65678 0.007,-0.89291 0.18554,-0.155 0.16143,-0.0636 0.14603,0.061 0.0536,1.34066 0.0683,0.82095 z m 1.82995,-1.69979 -0.72605,0.22667 -0.1353,-0.21194 -0.001,-0.84188 0.2043,-0.46179 0.92693,-0.12921 0.0951,-0.13571 0.2666,-0.0873 0.14736,0.28944 -0.0201,0.48242 z m -0.97824,-10.35247 -0.66851,0.30578 -0.38382,-0.11809 -0.35434,-0.7974 0.12057,-0.66362 0.4843,-0.22011 0.37578,0.0469 0.13799,0.085 0.33425,1.08621 z m -66.60034,-22.234998 0.40124,0.12821 h 0.26592 l 0.24182,0.29862 0.18688,0.33653 0.58545,0.40947 -0.0603,0.62309 -0.10785,0.55141 -0.0757,0.63522 -0.0335,0.48342 -0.24918,0.49488 -0.37243,0.46213 -0.10986,0.18775 -0.0536,0.24369 0.2512,0.14784 0.44276,0.0442 0.55396,0.0194 0.37712,0.14328 0.48698,0.0295 0.58678,0.39709 0.28468,0.23813 0.0268,0.18481 -0.18622,0.44122 -0.0743,0.40787 0.14536,0.25836 0.17214,0.18608 0.47559,0.91939 0.22641,0.31985 0.19225,0.10302 0.0469,0.17731 -0.16277,0.33559 -0.19425,0.427158 -0.44076,0.44839 -0.0603,0.35455 -0.35234,0.22273 -0.8223,0.52951 0.14268,0.83959 0.0268,0.42582 -0.0134,0.33063 -0.28066,0.44284 -0.48631,1.30795 -0.17885,0.65216 -0.15808,1.50748 0.0134,0.50533 0.2244,0.68063 0.47625,1.51009 0.27129,0.24041 0.62898,0.35455 0.0784,1.02144 -0.0536,1.06659 -0.0268,0.41376 0.10383,0.17724 0.28267,0.0851 0.20096,0.12821 0.0335,0.31563 -0.0201,0.32775 0.46889,0.18937 0.40794,0.1207 0.37712,0.45268 0.68163,0.70386 0.27062,0.12821 0.13597,0.29205 0.57473,0.59335 0.87622,0.21682 0.88339,0.26164 0.34765,0.37317 0.36238,0.30317 0.27263,0.0161 0.23177,-0.0489 0.38114,-0.2613 0.30611,-0.22467 0.53253,0.0127 0.62429,-0.0368 0.10852,-0.18481 0.0603,-0.2378 -0.12861,-0.60902 0.22172,-0.18481 0.51712,-0.10369 0.10316,-0.32481 0.11856,-0.17724 0.14736,-0.20671 0.17751,-0.0295 0.22172,0.11809 0.33961,0.0739 0.38382,0.10336 0.20698,0.20671 0.34095,0.0174 0.37913,-0.0395 0.1534,-0.13183 0.11119,-0.23022 0.0824,-0.49649 0.24449,-0.0141 0.48832,-0.11186 0.52114,-0.21911 0.69603,-0.0322 0.65176,0.005 0.32621,-0.14717 0.30344,-0.31985 0.58745,-0.90501 0.30746,-0.20899 0.33023,-0.15634 0.28067,0.0281 0.57606,-0.14977 0.47358,-0.21683 0.1755,0.0549 0.36908,0.46447 0.18421,0.10209 0.27129,0.0322 0.88962,0.23552 0.47224,-0.0733 0.51176,-0.14817 0.49166,-0.0556 0.35435,0.10336 0.25521,-0.13411 0.28602,-0.0997 0.20095,0.0657 0.4488,0.0563 1.06297,0.25809 1.38812,0.28883 0.37913,-0.0994 0.22574,-0.20377 0.0536,-0.59723 0.0402,-0.42126 -0.31214,-0.37224 -0.38918,-0.42226 -0.35904,-0.52657 -0.42937,-0.14917 0.0536,-0.27115 0.27865,-0.28 0.28603,-0.15467 0.16612,-0.19003 0.18019,-0.70157 0.1199,-0.12366 0.12124,-0.0301 0.14402,0.0261 0.28267,0.18153 1.09305,0.55832 0.47961,-0.0844 1.83262,-0.1465 0.27732,-0.32253 0.3885,-0.0729 0.65846,-0.32052 0.26057,-0.0221 0.23243,0.0775 0.2934,-0.0609 0.43204,-0.29895 0.1822,-0.0315 0.0683,0.33037 0.27999,0.34148 0.33827,0.31463 0.16344,0.0726 0.56803,-0.10175 0.29875,0.0877 0.12928,0.29273 0.0335,0.25541 0.23846,0.21616 0.30545,0.005 0.16277,0.087 0.27732,0.13866 0.23712,0.31891 0.54928,0.25414 0.93804,0.35682 0.43607,0.006 0.40593,0.10892 0.24985,0.1073 0.26994,-0.1972 0.95996,-0.5498 0.46755,-0.30612 0.31549,-0.23224 0.23646,-0.22145 0.17751,-0.0589 0.11789,0.13276 0.10315,0.17731 0.34162,0.10469 0.80194,0.20772 0.36841,0.059 0.51712,-0.17631 0.44076,-0.29995 0.21167,-0.10403 0.32755,0.29828 0.22306,0.4216 0.15004,0.18347 0.33292,-0.0429 0.6551,0.0643 0.48631,0.13377 0.30076,-0.0121 0.41128,-0.18742 0.22172,-0.36929 0.58276,-0.33854 0.55463,-0.31134 0.31818,-0.4157 0.47023,-0.69111 0.15741,-0.29634 0.0335,-0.4991 0.66181,-1.45023 0.25052,-0.26593 0.14736,-0.45791 0.2666,-0.53152 v -0.44316 l 0.19292,-0.42877 0.37913,-0.37089 0.27999,-0.23157 0.44746,-0.62309 0.31147,-0.58678 0.78104,-1.30338 0.0603,-0.36928 0.31013,-0.22179 0.10316,-0.28033 0.3309,-0.345698 0.34832,-0.27477 0.14871,-0.40425 0.25588,-0.42026 0.55998,-0.31496 0.20699,-0.14455 0.63434,-1.15555 0.0717,-0.51645 0.57272,-0.0194 0.90047,0.59622 0.71787,0.87852 0.96229,2.826218 0.1601,2.61135 0.39051,1.36846 1.11824,2.85142 0.0717,0.5279 0.17952,0.63809 0.35301,0.67671 0.38985,1.11466 0.0134,0.20705 -0.2532,0.30418 0.37177,0.0208 0.33626,0.17985 0.21971,0.70681 0.27731,0.47787 0.50573,0.65416 1.03551,0.21388 0.78171,0.0782 0.89029,0.37022 0.65376,0.47458 0.50574,1.60723 -0.16546,1.01065 0.0469,0.7104 -0.26191,0.27832 -0.732,0.46541 -0.15942,0.2469 -1.4967,1.20134 -0.32688,0.56749 -0.80194,0.76175 -0.79416,1.4522 -1.16238,1.32594 -0.41062,0.33492 -0.62831,0.0775 -0.38114,0.2057 -0.90342,1.08195 -1.21208,0.36145 -0.11119,0.62698 -0.70059,1.43257 -0.61693,0.78235 -0.39319,0.2656 -0.98876,1.428 -0.1266,0.62402 0.006,1.09176 -0.6598,0.66529 -0.68652,0.42261 -0.0857,0.93411 -0.31013,0.31925 -0.26593,0.20799 -1.39857,-0.24463 -2.17143,1.01523 -0.74178,0.25253 2.37024,0.0522 0.76114,0.5397 1.66871,-0.35783 2.01804,-1.28867 0.77092,-0.26947 1.5663,-0.8746 0.63635,-0.58283 1.16144,-0.69927 0.24717,-0.30679 0.65042,-0.32642 0.35233,0.41537 0.0268,0.26298 -0.53387,0.51156 0.13866,0.3297 0.35234,0.4141 0.12727,0.57043 0.0469,0.43433 0.2177,0.76142 0.71793,1.03093 0.0268,0.34082 -0.0985,0.44873 0.34363,0.37089 0.35636,0.21977 1.22159,1.10943 0.9564,-0.62014 0.58745,-0.17925 0.37578,-0.25903 0.78627,-0.17201 0.64438,0.25969 1.22883,0.37351 0.8988,-0.39641 1.81983,-0.9073 -0.56937,1.60658 -0.41195,1.47313 -0.31349,0.59462 -0.31081,1.60527 -0.30813,0.4285 -0.24918,0.48932 0.40593,-0.17074 0.34832,-0.23163 0.44477,-0.61813 0.33425,-1.07346 1.31712,-2.8658 0.37645,-0.25447 1.09506,-0.32642 1.8842,-2.29146 0.73689,0.007 0.47157,0.52723 0.44679,0.31134 0.11454,-0.62663 0.64305,-0.25642 -0.68096,-0.31007 -0.1112,-0.28127 -0.067,-0.46902 0.46286,-0.63387 -0.27598,-0.5606 0.96002,-0.70778 -0.0744,-0.53118 0.34229,-0.43828 0.43339,-0.45007 0.49099,-0.21911 0.0898,-0.38663 0.30947,-0.15962 0.24315,-0.0576 0.47961,0.43239 0.51913,-0.51089 0.50707,-0.20015 0.22708,0.089 0.28267,0.22567 0.29741,0.0962 0.24114,-0.0409 0.62765,-0.32708 0.58008,0.52656 0.34899,0.11642 -0.0958,-0.29507 -0.18353,-0.27403 0.14267,-0.22306 0.27464,-0.14066 0.86738,0.12559 0.45616,0.23485 0.493,0.43499 0.68519,0.0322 0.53788,-0.0455 0.33961,0.24462 0.55195,-10e-4 0.27665,0.38074 0.84058,0.53507 0.1822,0.36305 0.67607,0.17597 0.63367,0.22239 0.67574,0.0609 0.6813,-0.0529 0.0268,0.45924 0.4997,0.12426 0.64171,-0.10269 0.48497,0.56521 1.29581,0.42455 0.89786,0.65022 0.58812,-0.11515 0.65846,0.17141 0.70708,1.41426 0.1601,1.00411 0.31482,-0.13866 0.29138,-0.4494 0.37846,-0.82029 0.70816,-0.27209 0.33894,0.31529 0.71004,0.505 0.61223,0.55469 0.25789,0.35589 0.46018,0.0583 -0.38448,0.43761 0.38582,-0.0435 0.46689,-0.31135 0.39922,0.64305 0.30076,0.69994 0.0603,0.71301 -0.28268,0.40947 -0.24985,0.25642 -0.27731,0.505 -0.32756,0.0909 -0.32688,0.16351 0.3731,0.36761 0.25588,0.35388 0.55865,-0.95636 0.39253,-0.26887 0.5687,-0.14917 0.2954,0.68031 0.067,0.64238 -0.92626,0.26753 -0.004,0.50761 -0.27732,0.28783 -0.18086,0.3297 -0.14602,0.69274 -0.1889,0.57365 -0.55195,2.54396 -0.0134,0.41865 0.67253,-0.44805 1.23988,-1.29586 0.37779,-1.38025 0.48898,-1.36127 0.53253,-0.42783 0.32956,-6.6e-4 0.49434,0.14918 0.0268,0.44611 -0.0757,0.25776 -0.52918,0.67704 -0.22507,0.37089 0.2177,0.36566 1.20203,-1.1212 0.53789,-0.39313 0.45884,0.0798 0.90992,-0.51745 1.83188,-0.10792 0.13732,-0.592 0.36506,-0.25186 1.00738,0.067 1.96244,0.52918 0.69965,0.43238 1.04757,0.40231 0.55128,0.4782 2.30392,0.8772 1.67294,0.0942 0.82846,-0.39835 1.03363,0.41731 0.54726,0.46708 1.07309,0.25381 1.08327,0.13216 0.82846,-0.3356 2.13647,-0.11052 2.6862,-0.49582 1.60233,0.11776 1.813,0.3238 1.29193,0.83273 1.08782,0.47164 0.65779,0.46447 1.0617,0.48081 2.26628,1.29193 0.79282,0.74704 1.40507,1.01785 1.40968,0.42715 0.76275,1.06495 0.60286,0.47948 1.49402,1.79758 1.69591,1.25858 1.13424,1.25791 2.17605,0.81049 0.84936,1.3351 1.47218,0.16291 0.62765,0.20015 0.76208,0.5632 1.04924,0.31396 1.36648,-0.089 1.50681,0.0636 1.21838,-0.26365 2.88347,0.50238 0.45348,0.24529 0.59683,0.56843 1.05253,2.1155 0.62764,2.34772 0.31014,1.79628 0.71854,1.39594 0.39253,2.62116 0.33291,0.82487 0.0268,0.63454 0.28201,0.14388 0.19023,1.76816 -0.0743,0.71301 -0.27598,0.92758 -0.0201,0.41343 0.0402,0.26298 -0.12191,0.38723 -0.0402,0.37089 0.27932,0.83273 0.0134,0.6679 -0.37444,0.80852 -0.50975,2.11288 -1.28014,3.50294 -1.22655,2.01018 -1.71614,2.07622 -1.1179,1.08461 -0.44343,0.11052 -0.4066,-0.21455 0.2887,0.57238 -0.25253,0.50365 -1.13558,1.52808 -1.12909,1.00019 -1.17089,1.73479 -0.0891,0.0395 -1.50126,0.66984 -0.88801,0.54753 -1.13531,0.99626 -1.04201,1.56994 -0.21502,0.20216 -0.38382,-0.11052 0.0134,0.7974 -0.89719,1.2625 -0.27397,0.18709 0.007,-0.35783 0.1554,-0.27209 0.0723,-0.28978 -0.006,-0.34477 -0.25119,0.25053 -0.53119,0.94589 0.17885,0.69339 -0.38516,1.04728 -1.46957,2.99009 -1.79919,2.51518 -0.41464,0.77582 -1.47707,1.69423 -1.08521,0.81703 -0.30545,0.006 -0.34564,-0.07 -0.17416,-1.30175 -0.86476,-0.78824 -0.24785,-0.13866 -0.35434,0.83468 -0.2954,0.22895 -0.42736,0.0496 0.45683,0.36373 0.1333,0.42059 -0.46487,0.84188 -0.0134,0.76535 -0.8298,0.84319 -0.48028,0.61686 -0.24449,0.77254 -0.14737,0.72152 0.3644,-0.19686 0.17282,0.15178 0.13732,0.225 -0.0844,0.33164 -0.26726,0.62664 0.0402,1.56014 -0.0884,0.35455 0.26526,0.38335 0.28133,-0.65477 0.1621,0.18253 -0.78532,4.18063 0.30947,1.88132 0.11521,2.13118 0.35502,2.0802 0.3885,1.85968 0.0335,0.14938 -0.53722,2.15863 -0.68618,2.12923 -0.41397,1.7361 -0.26057,1.87543 -0.26056,0.9014 -0.0824,0.92238 0.29875,2.18549 0.1112,0.41397 -0.83302,0.97462 -0.89913,0.47291 -0.49702,0.46956 -1.09861,1.75633 -0.59616,2.59564 -0.0134,1.38095 0.28201,2.89258 -0.21167,1.17946 -0.34765,0.78954 -0.41129,0.51779 -1.04924,0.62228 -0.94006,1.51566 -0.4086,1.59282 -0.64372,0.58008 -0.13196,0.89156 -0.51846,0.96223 -1.3439,1.43588 -0.87395,0.41798 -0.41664,0.40124 -0.26459,0.83931 -0.84253,1.38349 -0.62094,1.79364 0.16143,0.6109 0.0134,0.0938 0.22574,2.07296 -0.0837,0.52716 -0.81869,0.57205 -3.08395,1.06693 -0.8213,0.44209 -1.8414,1.81521 -0.11454,0.4287 0.0764,0.6109 0.30277,0.35099 -0.31214,0.38047 -0.36775,0.68291 -0.53654,-0.0402 -3.07184,10e-4 -1.66281,0.21636 -0.86417,-0.0402 -0.38784,-0.16411 -0.43472,-0.26794 -0.13062,-0.351 0.23578,-0.53185 -0.13933,-0.31751 -0.45549,0.0134 -0.50037,0.15071 -0.0864,0.31818 0.0335,0.22573 0.18622,0.33024 0.10181,0.40525 -0.20497,0.35234 -0.97335,0.0469 -1.09405,0.32353 -1.36454,0.13531 -1.08722,0.23378 -0.50238,-0.29541 0.50238,-0.14803 0.71961,0.0723 0.77313,-0.24449 -0.18018,-0.28937 -1.09339,-0.37377 -1.21442,0.22908 -0.6734,0.44411 -1.47318,-0.0402 -1.80409,0.33827 -0.29406,0.34497 0.0469,0.66783 0.353,0.1467 0.3443,0.30477 -0.3309,0.28402 -0.32219,0.12526 -1.90551,0.31014 -1.76684,1.30043 -0.73656,0.16143 -0.65578,0.57339 -0.0677,0.48965 -0.20698,0.29473 -0.42066,0.0134 -0.92137,-0.26727 -1.19581,-0.007 -0.86342,0.21301 -4.41226,2.10894 -1.58431,0.84387 -1.80804,1.72035 -3.04765,1.92841 -1.60073,1.15133 -0.3041,0.29808 -0.25321,0.0134 -0.50104,0.2398 0.19962,0.19894 0.34162,0.0201 -0.14134,0.67051 -0.63635,0.45884 -1.1948,1.20425 -0.26593,-0.0884 0.37846,-0.6263 -0.58611,-0.0268 -0.8641,-0.22975 -0.37511,0.25922 0.20698,0.62028 -0.32487,0.26593 -0.58946,0.0268 -0.53454,-0.073 -0.58745,-0.45416 0.26526,0.82224 1.24028,0.19961 0.51645,0.19358 0.19224,0.31617 -0.96457,1.46401 -0.80783,0.19023 -0.0884,0.20699 0.44343,-10e-4 0.2445,0.40525 -0.28871,1.63402 -0.39922,0.3108 -0.23311,0.007 -0.23109,0.27933 0.31884,0.53386 0.3289,0.38918 -0.0469,0.75485 -0.12325,0.62496 -0.007,0.60621 0.41597,1.17349 0.14937,1.20498 0.16747,0.43808 0.0951,0.48631 -0.27731,0.45482 0.15741,0.72933 -0.47291,1.24028 0.24717,1.79042 -0.10114,1.67722 -0.18488,0.88178 -0.30009,0.68947 -0.69697,0.88768 -0.0134,0.88828 -1.49998,0.82618 -1.65926,1.15588 -1.53133,1.36782 -1.64842,1.92774 -1.92486,2.93257 -1.78285,4.18518 -2.14658,3.16086 -0.85854,1.14148 -1.16044,1.27491 -1.54311,1.48685 -2.06747,1.48752 -2.26233,1.32528 -0.81768,0.59817 -0.79711,0.83925 -0.19894,-0.34631 0.17282,-0.57272 -0.10986,-0.42936 -0.0268,-0.55664 0.45616,-0.10249 0.68297,0.35301 0.34832,-0.23914 0.2532,-0.23712 0.82223,-0.14804 1.57058,-1.4555 1.16573,-0.53855 0.65511,-0.91903 0.11253,-0.48831 -0.0268,-0.99103 0.37176,-0.2512 0.8432,0.0864 0.17215,-0.282 -0.073,-0.31282 0.16411,-0.68163 1.14308,-0.60487 0.54191,-0.73133 -0.18086,-1.86364 0.20899,-0.0837 0.47023,0.29071 0.22038,-0.12057 0.23712,-0.81707 -0.11387,-0.42401 -0.55396,-0.11254 -1.91367,0.92104 -0.62363,-0.0402 -0.10315,-0.7235 -0.93055,-0.33224 -0.36372,-0.60018 -0.10919,-0.41129 -0.32286,-0.16813 0.0201,0.71111 0.0884,0.69074 0.83402,0.80462 -0.20296,0.31951 -0.39521,0.3731 -0.2753,0.82813 0.0335,1.07409 -0.22306,-0.32688 -0.28602,-0.1889 -0.11655,1.15455 -0.55396,0.44142 -0.17483,0.43406 0.14468,0.50305 -0.28535,0.34765 -1.41062,0.93282 -1.40614,0.63702 -0.30544,0.30076 -0.15005,0.71104 -0.21502,0.73067 -0.62228,0.64238 -0.49368,1.27692 0.0134,0.54927 0.16411,0.80984 0.26593,0.53118 -0.42066,0.35502 -0.56535,0.68947 -0.44879,0.77715 -1.11757,2.91744 -0.9629,1.75833 -0.74118,0.86156 -1.05809,0.9079 -3.01261,2.27907 -0.18019,-0.0335 -0.4421,-0.18353 -0.37042,-0.21837 -0.0837,-0.14603 -0.0402,-0.21837 0.0469,-0.82096 -0.007,-2.20639 0.13062,-0.41664 0.19426,-0.26861 0.58678,-0.38985 0.57004,-0.55798 0.64371,-0.70977 0.59282,-0.56534 -0.21234,-0.37913 -0.49569,-0.36641 -0.88078,-0.29607 -0.84842,-0.52181 -0.7523,-0.67111 -0.34765,-0.69865 -0.31817,-0.7529 -0.30478,-0.59549 -0.10115,-0.27196 -0.29741,-0.1132 -0.47157,-0.30411 -0.2954,-0.28267 -0.43205,-0.16211 -0.77219,-0.17817 -0.80462,-0.31081 -1.00047,-0.7379 -0.72189,-0.81902 -0.35636,-0.54123 -0.3798,-0.38047 -2.06546,-0.62898 -0.93805,-0.75163 -0.36908,0.23444 -0.55195,-0.23043 -0.54325,-0.36171 -0.16277,-0.27732 -0.22975,-0.28468 -0.21569,-0.32621 -0.13799,-0.31349 -0.55932,-0.54726 -0.72182,-0.59281 -0.30612,-0.1688 -0.16143,0.0469 -0.15608,0.22774 -0.0985,0.21971 -0.27263,0.14536 -0.3376,0.27128 -0.3443,0.33225 -0.44143,0.22038 -0.52448,0.075 -0.35301,-0.0134 -0.0723,-0.13062 -0.0201,-0.45415 0.13062,-1.03612 -0.30746,-0.39922 -0.4086,-0.42803 -0.4709,-0.57138 -1.54767,-1.21214 -2.10639,-1.74528 -0.74373,-0.53387 -0.70025,-0.0402 -0.6397,0.0603 -0.58812,0.2311 -0.44478,0.80655 -0.18421,0.12459 -1.13464,-0.0201 -1.12835,-0.12995 -0.37914,-0.49167 0.30143,-0.32085 1.06264,-0.71037 0.58746,-0.63233 0.11253,-0.5553 0.50908,-0.49836 0.9063,-0.44143 1.00965,-0.81312 1.11301,-1.18529 0.67607,-0.87461 0.23914,-0.56468 0.43607,-0.43473 0.63434,-0.30545 0.55396,-0.63769 0.47492,-0.97013 0.6484,-0.77186 0.82163,-0.57272 0.46019,-0.47492 0.0978,-0.37712 0.23244,-0.24114 0.3664,-0.10517 0.17751,-0.19827 -0.0134,-0.29205 0.0998,-0.19827 0.21167,-0.10584 0.35368,0.0402 0.49635,0.17952 0.29942,-0.0335 0.10249,-0.24584 -0.13062,-0.282 -0.36507,-0.3175 0.13732,-0.3443 0.95861,-0.55664 0.70816,-0.21167 0.44813,-0.34564 0.42401,-0.54793 0.68813,-0.38248 0.95278,-0.21435 0.25186,-0.20699 -0.0335,-0.26525 0.19425,-0.19091 0.56267,-0.13799 0.30612,-0.25856 0.0469,-0.37913 0.18153,-0.353 0.31214,-0.32555 0.34832,-0.12124 0.38449,0.0831 0.36105,-0.12325 0.3376,-0.3309 0.40525,-0.15407 0.47291,0.0201 0.24249,-0.0723 0.81144,-0.1534 0.44813,-0.27798 0.36774,-0.61894 0.32689,-0.2398 0.28535,0.14 0.49367,-0.20766 0.70186,-0.55329 0.13196,-0.0134 0.51846,-0.25789 0.53387,-0.95634 0.27597,-0.6397 -0.067,-0.52314 -0.1755,-0.37579 0.0603,-0.54994 0.17684,-1.49602 0.0469,-0.61157 0.28402,-0.42669 -0.0201,-0.42267 -0.5064,-0.94723 -0.51109,-0.83141 -0.27464,-1.41162 -0.18018,-0.53588 -0.42602,-0.142 -0.38516,-0.46688 -0.48698,-0.0402 -0.22909,-0.17884 -0.23645,-0.14871 -0.34564,0.0469 -0.29473,0.2733 -0.54793,0.007 -0.34497,0.11253 -0.40593,0.24315 -0.38583,-0.11186 -0.24315,-0.21301 -0.52248,-0.003 0.0335,-0.96029 0.92043,-1.42342 0.24717,-0.66247 -0.1199,-0.37578 0.2753,-1.32462 0.67018,-2.27311 0.21368,-1.48759 -0.24315,-0.70186 -0.007,-0.48965 0.3443,-0.41732 0.16813,-0.12459 -0.86416,-0.50975 -0.46487,-0.46487 -0.59884,-0.33224 -0.64238,-0.26526 -0.31014,0.11053 -0.33224,0.1554 -0.64238,0.24315 -0.7314,0.42133 -0.37645,0.15474 -0.66449,0.1554 -0.7533,0.13263 -0.62028,-0.0884 -0.53185,-0.0891 -0.33225,-0.26593 -0.1775,-0.57606 v -0.48698 l -0.11053,-0.70909 -0.39922,-0.39856 -0.13263,-0.31014 -0.0201,-0.37712 0.0469,-0.42066 0.11053,-0.31014 -0.067,-0.37712 -0.17751,-0.26593 0.0469,-0.46487 -0.0884,-0.64238 -0.26593,-0.39922 -0.13329,-0.46487 v -0.46487 l -0.19895,-0.46488 -0.0201,-0.50975 0.17751,-0.46487 0.067,-0.46487 -0.19894,-0.33224 -0.37713,-0.19961 -0.28803,-0.53186 -0.0469,-0.68686 -0.31013,-0.37712 -0.33225,-0.31013 h -0.37645 l -0.57606,-0.17751 -0.50975,0.0201 -0.81962,-0.0201 -0.37645,-0.11053 -0.19895,-0.24382 -0.50975,-0.33224 -0.28803,-0.5754 -0.35435,-0.11052 -0.50908,0.17684 -0.17751,0.22172 -0.19961,0.31013 -0.35435,0.35435 -0.46487,-0.0201 -0.48697,0.19962 -0.46554,0.0201 -0.62028,0.0469 -0.62027,-0.17751 -0.75324,-0.19961 -0.64238,-0.13263 -0.62028,0.13263 -0.42066,-0.11119 -0.55396,-0.067 -0.62027,-0.0469 -0.48698,-0.35434 -0.53185,-0.19962 -0.28804,0.067 -0.37712,0.22172 -0.39855,-0.0469 -0.50975,-0.17751 -0.19962,-0.42066 0.0469,-0.26593 0.11053,-0.26593 0.19894,-0.37645 -0.11119,-0.39923 0.0469,-0.35367 0.0884,-0.31081 0.0884,-0.35368 -0.067,-0.33224 -0.0201,-0.35435 -0.0469,-0.33224 -0.067,-0.35435 0.26593,-0.50975 0.22172,-0.42133 -0.13263,-0.35368 0.0469,-0.24382 0.1775,-0.39922 0.22172,-0.48698 -0.0201,-0.90857 -0.19962,-0.53186 -0.21569,-0.14402 -0.0536,-0.16076 0.10516,-0.21033 -0.11454,-0.21636 -0.0469,-0.22105 0.11454,-0.19358 -0.15875,-0.38248 -0.31751,-0.11053 -0.11052,-0.11052 -0.11119,-0.42133 -0.0884,-0.48698 0.0469,-0.37712 -0.15474,-0.33224 -0.22172,-0.19894 -0.22171,-0.35435 -0.22172,-0.26593 -0.0884,-0.37645 -0.14737,-0.48698 0.4421,-0.0911 0.17483,-0.27263 0.31148,-0.36975 0.4086,-0.0971 0.48631,-0.13598 0.18018,-0.2733 -1.1333,-0.98386 -0.6803,-0.5908 0.39856,-0.79872 0.67212,-1.34686 0.65109,-1.30438 0.49635,-0.99492 0.12727,-0.18354 0.43339,-0.0603 -0.079,-0.51377 -0.0134,-0.33626 -0.35033,-0.0201 0.38918,-1.21282 0.57473,-1.72953 0.43607,-1.31088 0.13999,-0.21971 0.31483,-0.0603 0.0703,-0.15138 -0.37779,-0.211 -0.23042,-0.40727 -0.50373,-1.17162 -0.79383,-1.84595 -0.0603,-0.66114 -0.29205,-0.40793 -0.48631,0.13531 -0.5754,-0.12995 -1.43781,-1.00343 -0.95239,-0.54257 -0.32286,-0.32018 -0.14335,-1.02962 -0.28401,-1.13759 -0.12258,-1.40708 0.0469,-0.33827 0.80522,-1.06759 -0.003,-0.5399 0.0683,-0.4709 -0.0335,-0.37243 -0.19962,-0.005 -0.32353,0.16277 -0.48832,0.12526 -0.27731,0.0134 -2.80892,-0.10048 -3.19515,-0.11521 -2.65841,-0.0958 -2.30721,-0.0831 -0.0777,-0.91909 -0.12995,-1.54185 -0.0924,-1.09372 -0.1467,-1.73543 -0.92525,-1.08065 -1.00477,-1.1729 -0.35301,-0.30009 1.21376,-0.0402 0.86182,-0.0268 -0.17081,-3.14968 -0.26258,-0.32186 -0.23243,-1.01654 -0.15742,-0.57566 -0.42803,-0.46708 -0.0971,-0.52462 0.0784,-0.3506 0.23377,-0.21716 0.15474,-0.54097 -0.11656,-0.54424 -0.2532,-0.50634 -0.3108,-0.48604 -0.59416,-0.29828 -0.85103,-0.5423 -1.28704,-0.68946 -1.08849,-0.48015 -0.34899,0.0589 -1.92185,0.18775 -0.6397,0.0981 -0.42937,-0.10992 -1.4352,0.005 -0.56401,-0.36962 -0.47291,-0.42977 -1.0051,-1.10027 -0.1554,-0.55082 -0.38918,-0.17469 -0.58812,0.067 -0.59549,-0.0752 -1.15682,-0.45656 -1.082,-0.46836 -0.52515,0.0194 -0.46688,-0.29172 -0.82224,-0.71433 -0.38382,-0.27798 -0.1755,-0.36962 -0.17483,-0.54425 -0.33023,-0.11709 -0.42803,0.0975 -0.46286,0.27933 -0.64908,-0.18642 -0.79416,-0.50171 -0.51377,-0.39186 -0.29339,-0.18575 -0.68941,-0.2741 -0.66649,-0.0576 -1.00805,0.40358 -0.82424,-0.16485 -1.29554,-0.14589 -1.10846,-0.29172 -0.40391,-0.76077 -0.21904,-0.50365 -0.65779,-0.3153 -0.52515,-0.38462 -0.62564,-0.5835 -0.3108,-0.19492 -0.56602,-0.16291 -0.52382,-0.20604 -0.0603,-0.36962 -0.19426,-0.48671 -0.0469,-0.12037 -0.35635,-0.59067 -0.16679,-0.0415 -0.18421,0.11575 -0.13866,0.0857 -0.15004,-0.10469 -0.0268,-0.26426 0.0965,-0.4232 -0.20631,-0.44418 -0.50975,-0.46574 -0.26593,-0.48148 -0.0268,-0.49843 -0.11321,-0.33298 -0.2043,-0.16813 -0.11387,-0.29239 -0.0268,-0.41537 0.14737,-0.49515 0.32018,-0.57305 -0.0683,-0.8844 -0.4575,-1.1925 -0.25253,-0.86086 -0.0469,-0.5279 0.0683,-0.39119 0.27732,-0.38007 0.55195,-0.93281 0.0971,-0.71171 -0.17415,-0.80263 -0.0268,-0.6123 0.12593,-0.42127 -0.19157,-0.55208 -0.39052,-0.52134 -0.27196,-0.0134 -0.36975,0.14261 -0.44679,0.44022 -0.52515,0.0778 -0.46688,-0.27216 -1.45973,0.11381 -2.26983,0.27215 -0.90864,0.28194 -0.53386,0.12037 -0.64573,0.0922 -1.03585,0.50633 -2.55571,1.9657 -0.52918,0.28455 -0.60286,0.0395 -0.35033,0.27216 -0.564,0.21388 -1.10846,0.77778 -0.56401,0.62275 -0.36908,0.56387 -0.42803,0.0194 -0.33023,-0.15567 -1.04958,0.0778 -0.53588,0.19232 -0.58276,0.5488 -0.72316,0.99167 -0.29808,0.28194 -0.58209,0.29172 -0.67212,0.24134 -0.83269,0.36433 -0.3731,0.0241 -0.32889,0.065 -0.28402,-0.16619 -0.0951,-0.35522 -0.43071,-0.2244 -1.02701,-0.11253 -1.5196,-0.25903 -1.56763,-0.0502 -0.77749,0.0241 -0.63903,0.0154 -1.1104,-0.13866 -0.80756,-0.0235 -0.7097,0.35194 -1.02995,0.43694 -0.4709,0.11119 -0.34564,0.0161 -0.33693,-0.0543 -0.39253,-0.22634 -0.55195,-0.52201 -0.42401,0.20082 -0.30679,0.22373 0.005,-1.13494 0.007,-1.70666 0.007,-1.50519 0.006,-1.20427 0.006,-1.40511 0.005,-0.99168 0.28871,-0.37679 0.17817,-0.42126 -0.21368,-0.5632 0.0469,-0.51612 0.14804,-0.3591 0.19425,-0.3506 -0.44745,0.1753 -0.19426,0.0975 -0.23846,0.26627 -0.57607,0.35977 -0.38716,0.3591 -0.45751,0.29306 -0.5774,0.6476 -0.47559,0.35522 -0.49234,0.22567 -0.82162,0.76077 -0.67963,0.15112 -1.79926,0.11709 -1.87181,-0.003 -1.71158,-0.003 -0.25856,-0.0101 0.0134,-0.62663 0.0402,-0.44284 -0.58343,-0.46708 -0.0402,-0.57499 -0.1554,-0.39708 -0.19426,-0.48604 -0.4086,-0.31141 -0.57406,-0.12037 -0.9426,-0.26888 -1.39857,-0.27932 -1.3364,-0.0194 -1.31061,0.0268 0.80099,-0.97599 0.8004,-0.97533 -0.0268,-0.85038 -0.6464,-0.73919 -0.34832,-0.46052 -0.53989,-0.63454 -0.66516,-0.43761 -0.36372,-0.58283 0.0335,-0.35387 -0.0603,-0.23351 -0.2532,-0.13605 -0.25253,-0.21388 -0.35033,-0.2335 -0.4086,-0.31074 V 159.202 l -0.1554,-0.33097 -0.25253,-0.38857 v -0.31141 l -0.23311,-0.48604 -0.25253,-0.34999 -0.25253,-0.23351 -0.36975,-0.33037 0.0201,-0.27276 0.27263,-0.13604 0.11655,-0.31074 -0.0402,-0.31135 -0.31148,-0.19425 -0.36975,-0.0975 -0.48631,-0.56388 -0.34966,-0.29171 -0.23377,-0.1753 -0.13598,-0.19426 0.13598,-0.13604 0.1554,-0.19492 0.0402,-0.31074 -0.0777,-0.29179 v -0.25313 l 0.23378,-0.0778 0.25253,0.0395 0.25253,-0.15567 0.3309,-0.0583 0.36975,-0.0395 0.19426,-0.17469 -0.0201,-0.31134 -0.23377,-0.60313 -0.23311,-0.25246 -0.0777,-0.36962 0.19024,-0.71237 0.12191,-0.45395 0.42602,-0.48209 1.30365,-1.03354 1.16834,-0.7019 0.5707,-0.0713 0.42133,-0.26037 0.26861,-0.39775 0.0737,-0.435 -0.0603,-0.37873 -0.21703,-0.56059 -0.2599,-0.69797 -0.19425,-0.38858 0.17549,-0.46708 0.31148,-0.63843 0.63501,-0.96355 0.5908,-1.03616 0.067,-0.30284 0.0757,-0.63253 0.27263,-1.29063 0.15071,-0.69863 -0.0784,-0.27148 0.13665,-0.23418 0.36908,-0.19425 0.89223,-0.17791 0.60554,-0.38597 0.93349,-0.72544 0.77809,-0.77189 0.64305,-0.24858 1.16734,-0.71433 0.67051,-0.45335 0.26325,-0.14261 0.65912,-0.32768 1.18134,-0.11448 0.9848,-0.11776 0.55664,-0.21522 0.81379,-0.0889 0.54793,-0.24202 0.60822,-0.007 1.14242,-0.24597 0.38918,-0.36962 0.33224,-0.44022 0.44545,-0.37679 0.5218,-0.0968 0.58277,0.0656 0.69603,-0.007 0.8442,-0.11709 0.40861,0.29172 0.17952,0.35716 0.52046,0.36305 0.36976,-0.0201 0.36975,-0.0772 0.50573,0.31134 0.3309,-0.0395 0.21368,-0.17463 0.0402,-0.43693 0.11857,-0.23679 0.24918,-1.36651 0.41061,-2.25549 0.37243,-2.04485 0.41196,-2.26334 0.42602,-2.3379 0.43138,-2.36735 0.35367,-1.9428 0.30411,-1.67004 0.18622,-1.02438 0.29272,-1.34165 0.11387,-1.17877 0.1179,-0.34014 -0.075,-0.28589 -0.25253,-0.4062 0.003,-0.17858 0.0268,-0.23679 -0.0268,-0.20671 -0.26592,-0.22111 -0.20698,-0.13344 -0.16278,-0.19164 -0.0737,-0.26626 -0.13263,-0.26559 -0.0603,-0.28067 -0.19225,-0.22172 -0.0603,-0.28059 0.13262,-0.2656 0.0603,-0.28066 -0.0603,-0.26626 -0.0737,-0.31007 -0.14803,-0.295 -0.2244,-0.17986 -0.53588,-0.20014 -0.53922,-0.47687 -0.63501,-0.42782 -0.81245,-0.81245 -0.17751,-0.38395 -0.003,-1.05448 0.0335,-1.1441 0.0536,-1.72824 0.0268,-0.87917 0.45884,-0.0482 0.40391,-0.0241 0.422,-0.0609 0.36775,-0.0603 0.3376,-0.1266 0.2532,-0.15701 0.3021,-0.10235 0.23511,0.0362 0.23512,-0.13866 0.2599,-0.13276 0.2532,-0.10858 0.36774,-0.0906 0.34363,0.21127 0.19292,0.21093 0.22305,0.10269 0.211,-0.0241 0.14469,0.0181 0.15071,0.16873 0.19292,0.0121 0.27731,-0.0301 0.25923,-0.0362 0.12058,-0.0482 0.0201,-0.10892 -0.067,-0.18675 -0.0904,-0.1753 0.0723,-0.27115 0.006,-0.32575 0.0134,-0.41604 -0.20497,-0.22928 -0.20498,-0.43433 -0.22908,-0.34999 -0.35569,-0.23518 -0.33224,-0.0906 -0.27732,0.14488 -0.25923,0.0241 -0.19291,-0.1325 -0.31349,-0.006 -0.3376,-0.0422 -0.35702,-0.0502 -0.64372,0.0949 -0.22976,-0.11743 -0.31349,-0.0121 -0.36171,0.12661 0.007,-1.66971 0.007,-1.57485 0.006,-1.10419 0.32554,0.0241 0.40392,-0.19887 0.60018,-0.0308 0.46085,-0.20966 0.25655,-0.0167 0.48698,0.10268 0.50774,0.21522 0.4997,0.0301 1.30921,-3.3e-4 1.41397,-6.6e-4 1.57225,-6.5e-4 1.5742,-6.5e-4 1.36581,-6.6e-4 0.422,0.0127 -0.24583,-0.36668 -0.28602,-0.47525 0.11052,-0.37417 0.14134,-0.37679 0.16478,-0.19687 0.42535,0.20933 0.35636,0.6407 0.29607,0.48276 0.2887,0.23779 0.35837,0.0275 0.40659,-0.0811 0.40459,-0.19754 0.69141,-0.8844 0.68752,-0.75652 0.35636,-0.25414 0.37779,-0.23384 0.28067,-0.0886 0.38382,0.0295 0.32487,0.20672 0.21033,0.3601 0.76891,1.25433 0.58009,0.94589 0.19492,0.58973 0.0134,1.44009 -0.0335,1.27656 0.0764,0.16485 0.11387,0.0469 1.26741,-0.29929 1.72143,1.54672 1.2713,1.14181 0.54994,0.365 0.30478,0.10208 0.73984,-0.0759 0.8785,-0.14783 0.42669,-0.16351 0.47224,-0.3575 0.7673,-0.49649 0.62429,-0.27309 0.24584,-0.0362 0.2465,0.0877 0.52716,0.29667 0.28804,0.55376 -0.26593,0.64238 0.0469,0.39869 0.55396,-0.0221 0.44343,-0.66462 0.31081,-0.52362 0.64908,-0.42354 0.63166,-0.60507 0.44143,-0.57532 0.51712,-0.3372 0.7801,-0.41048 0.61692,-0.25052 0.57875,0.0255 0.42936,-0.27149 0.55664,-0.50928 0.38918,-0.40947 0.26928,-0.1459 0.5419,0.0395 0.67608,-0.0563 0.66448,-0.49716 0.6042,-0.60145 0.32018,-1.01294 0.21167,-0.89716 0.18019,-0.18186 0.21904,-0.14362 0.25856,-0.0935 0.62094,-0.065 1.08749,-0.47854 0.74929,-0.48469 0.71238,-0.10403 0.21033,-0.13082 0.25856,-0.44839 0.12794,-0.78988 -0.0965,-0.47881 -1.30861,-0.1475 -0.85693,-6.5e-4 -1.41752,-0.12331 -0.67473,-0.19721 -0.14536,-0.13738 -0.0134,-0.15212 0.13464,-0.34149 0.13196,-0.64171 -0.19292,-0.86841 -0.70843,-1.36225 -0.50439,-1.33838 -0.067,-0.93313 0.0134,-0.98613 0.0402,-0.64432 -0.36306,-0.50432 -1.96016,-1.588268 -0.67701,-0.75029 -0.22507,-0.51907 -0.77219,-0.95766 0.19559,-0.29305 0.44478,0.0107 0.3798,0.24986 0.34765,0.53178 0.24985,0.11937 0.34028,-6.5e-4 1.80777,-0.002 0.42334,0.0903 0.25588,0.17892 0.21837,0.22205 0.32353,0.62014 0.34765,0.30351 0.7156,-0.0107 1.12319,-0.0127 0.62965,-0.0556 0.37712,0.17268 0.46755,0.14295 0.98481,-0.32936 0.2753,-0.007 0.29406,0.14488 1.0617,1.110738 0.60889,0.46869 0.51377,0.61981 0.74801,0.003 0.61894,-0.53246 0.16545,-1.791048 0.18622,-0.51973 0.31348,-0.14555 0.37244,-0.0174 0.44075,-0.2816 0.47827,-0.36306 0.41463,-0.12198 1.72498,0.39086 0.47894,-0.18709 1.74655,-0.47358 1.7858,-0.60801 0.50104,-0.76666 0.74936,-0.20604 0.58611,-0.56193 0.47358,0.0589 0.71659,0.0228 0.44344,-0.0981 0.22373,-0.10663 0.24382,-0.26426 0.40325,-0.75095 0.48831,-0.28388 0.61425,-0.30089 0.41932,-0.35489 0.34564,-0.43828 0.15875,-0.38073 -0.004,-0.30284 -0.2043,-0.58544 -0.24784,-0.55175 -0.26794,-0.1822 -0.20229,-0.0703 0.60822,-0.12788 0.50238,0.19198 0.78305,0.0295 0.33961,-0.14783 0.493,0.0726 z"
       id="path2248-7"
       style="display:inline;fill:#82e736;fill-opacity:1;fill-rule:nonzero;stroke:#505050;stroke-width:0.5;stroke-linecap:round;stroke-linejoin:round;stroke-miterlimit:4;stroke-dasharray:none;stroke-opacity:1" />
  </g>
</svg>
