<?xml version="1.0" encoding="UTF-8" standalone="no"?>
<!-- Created with Inkscape (http://www.inkscape.org/) -->

<svg
   width="110.38462"
   height="43.677708"
   viewBox="0 0 110.38462 43.677708"
   version="1.1"
   id="svg5"
   xmlns="http://www.w3.org/2000/svg"
   xmlns:svg="http://www.w3.org/2000/svg"
   xmlns:rdf="http://www.w3.org/1999/02/22-rdf-syntax-ns#"
   xmlns:cc="http://creativecommons.org/ns#"
   xmlns:dc="http://purl.org/dc/elements/1.1/">
  <metadata
     id="metadata53">
    <rdf:RDF>
      <cc:Work
         rdf:about="">
        <dc:format>image/svg+xml</dc:format>
        <dc:type
           rdf:resource="http://purl.org/dc/dcmitype/StillImage" />
      </cc:Work>
    </rdf:RDF>
  </metadata>
  <defs
     id="defs2" />
  <g
     id="layer7"
     style="display:inline"
     transform="translate(-9.3554403,-93.61564)">
    <path
       class="polygon"
       d="m 86.78873,123.52912 -0.12794,0.25836 -0.63635,-0.0228 -0.18253,-0.0831 0.005,-0.29566 0.14978,-0.93674 0.17483,-0.3938 0.52247,-0.38074 0.43473,-0.1838 0.55932,0.0335 0.5908,0.34671 -0.69797,0.62925 -0.38851,0.0955 -0.14871,0.0811 z m -68.94248,-10.9399 -0.27116,0.0141 -0.36928,-0.28716 0.28354,-0.52335 0.30284,0.12626 0.22272,0.15045 0.13116,0.20082 z m 6.73212,-2.873 -0.78857,0.27672 -0.27243,-0.12426 -0.16974,-0.13605 -0.0402,-0.16679 0.43634,-0.41342 0.42548,-0.2244 0.38041,-0.47619 0.70157,-0.28261 0.20477,0.0657 0.13672,0.0988 0.0542,0.15962 -0.23779,0.3853 -0.42522,0.26887 z m -6.13554,-0.93411 -0.34999,0.0121 -1.03846,-0.64894 0.07,-0.63648 0.41503,-0.42911 1.34198,-0.2191 0.5632,0.40298 -0.0496,0.76338 -0.4579,0.55731 -0.36406,0.10209 z m -7.30875,-2.08149 -0.67246,0.11642 -0.56521,-0.22962 -0.24007,-0.35582 -0.0509,-0.53507 0.0502,-0.17724 1.24942,-0.19298 0.40719,0.44745 -0.004,0.6594 z m 5.7074,-0.84973 -0.31168,0.20276 -1.26314,-0.23351 -0.39347,-0.38857 0.31757,-0.53052 0.26787,-0.21261 0.75587,0.19687 0.76502,0.59328 z m -4.67712,-2.40561 0.41604,0.43172 0.22667,1.23076 1.34427,1.29848 0.16679,0.72544 -0.11937,0.33754 0.0636,0.13216 0.64566,0.51216 0.42127,0.53768 -0.7091,1.26249 -1.51074,0.52985 -1.61083,-0.0174 -0.31824,-0.13604 -0.43205,-0.48276 -0.0795,-0.42649 0.24858,-0.41148 0.83207,-0.6247 1.26871,-0.55865 0.15895,-0.42715 -0.50955,-0.41604 -0.3516,-0.82619 -0.80164,-0.57894 -0.3997,-1.76717 -0.26686,-0.0877 -0.54459,0.24369 -0.26854,-0.21355 -0.0449,-0.1132 0.58712,-0.40298 0.12164,-0.2875 0.86838,-0.13832 0.37257,0.23056 z m 82.81226,-8.22324 -0.37779,0.0496 -0.17483,-0.32052 0.45885,-0.37317 0.15674,-0.0726 z m 3.99977,1.38449 0.88051,0.5194 0.96223,0.46768 1.38972,0.49127 0.84842,-0.0834 0.19895,0.3725 0.16478,0.39246 0.31683,0.22862 0.50373,0.19526 0.29942,0.0616 0.0918,0.0981 0.30076,1.41785 0.17684,0.20738 0.69436,0.2244 0.85037,0.0847 0.34564,-0.0489 0.74801,0.39414 0.55128,0.18575 0.60822,0.13899 0.41262,0.0409 0.19024,-0.0616 0.069,-0.14261 0.33827,0.0268 0.50573,0.1822 0.72611,0.0368 0.45081,-0.17269 0.0603,-0.28589 0.0335,-0.50205 0.16881,-0.17496 0.51711,-0.29145 0.27062,0.061 1.3577,0.62865 0.28,0.21749 0.34363,0.43761 0.63702,0.64828 0.69074,0.41342 1.06726,0.17664 1.02734,0.67868 1.2023,0.4563 -0.37511,0.2388 -0.38784,0.0255 -0.5198,0.0745 -0.72182,-0.22962 h -0.28468 l -0.0402,0.23291 0.47826,0.28454 0.46554,0.32314 0.16813,0.49193 0.27665,0.5835 0.66649,0.65417 0.41531,0.32708 0.0268,0.23291 -0.12928,0.42716 -0.0335,0.35649 0.22774,1.63928 -0.15272,0.10007 -0.2465,0.009 -0.26124,-0.009 -0.21368,-0.17791 -0.18689,-0.10664 -0.0824,0.2538 -0.19291,0.73003 -0.43339,1.6419 -0.3798,1.43977 -0.47626,0.50955 -0.6892,0.80914 -0.94388,1.1075 -1.36882,1.60527 -1.01227,0.74245 -0.79872,0.58544 -0.93249,0.67638 -1.20397,0.87263 -1.35081,0.49127 -1.88031,0.68161 -1.33018,0.48208 -0.98092,0.33687 -1.02144,0.35126 -1.35047,0.4638 -0.52181,0.43761 -0.86704,1.07083 -0.40392,0.51612 -0.36908,0.44417 -0.0757,0.20276 0.0469,0.12955 0.1775,0.21649 0.0134,0.22112 -0.24382,0.13865 -0.211,0.0221 -0.0944,-0.11119 -0.0697,-0.24403 -0.2244,-0.24858 -0.26057,-0.0719 -0.14937,0.061 -0.0134,0.22701 -0.34028,1.09569 -0.0134,0.53245 -0.14401,0.21067 0.0134,0.47619 -0.34363,0.4435 -0.15004,0.39514 -0.1045,0.3356 -0.27731,0.2329 -0.0985,0.36634 -0.25588,0.77515 -0.29875,0.60835 -0.21033,0.52067 -0.0402,0.38918 0.16009,0.27537 0.0536,0.22172 -0.14402,0.39836 -0.0777,0.29962 -0.38181,0.20276 -0.7935,0.4847 -0.30879,0.33097 -0.12191,0.37678 0.0777,0.32119 -0.0335,0.26627 -0.37646,0.0994 -0.13329,0.23291 -0.25455,0.40947 -0.28803,0.14388 -0.7395,-0.21716 -0.54526,-0.004 -0.42066,-0.19954 -0.45884,-0.58806 -0.37712,-0.49454 -0.3088,-0.64044 -0.0958,-0.88047 -0.41195,-0.25836 -0.40726,-0.30612 -0.48564,0.0851 -0.57808,0.0589 -0.32085,-0.2041 -0.78887,-0.37224 -0.67413,-0.42059 -0.50908,-0.21067 -0.38784,0.10008 -0.23244,0.25447 -0.40981,0.45395 -0.6038,0.31396 -0.27242,-0.0147 -0.36433,-0.20999 -0.0663,-0.24403 0.29895,-0.38723 0.60935,-0.85301 -0.67573,-0.0221 -0.23257,-0.2656 -0.0335,-0.31074 -0.11086,-0.3323 0.1331,-0.39836 0.35455,-0.21067 0.53152,0.16619 0.36567,0.0114 0.24369,-0.37679 0.24368,-0.16619 0.24383,-0.12164 0.0998,-0.18843 -0.25655,-0.60312 -0.0757,-0.32709 0.0777,-0.18842 -0.0134,-0.37679 -0.0134,-0.27671 -0.15473,-0.24403 -0.0134,-0.36566 -0.13276,-0.19888 -0.0442,-0.21066 -0.0114,-0.24403 -0.16619,-0.12164 -0.1763,-0.12426 0.14428,-0.0877 0.95961,-0.3382 0.39856,-0.33687 0.49367,-0.30746 0.42401,-0.47163 0.28,-0.45268 0.66247,-2.09784 0.62162,-1.32529 -0.1045,-0.63254 -0.51511,-0.85823 -0.11588,-1.26381 0.0469,-0.38395 -0.067,-0.28911 -0.34363,0.52462 0.0878,1.8617 -0.30343,0.83665 -0.42468,0.20215 -0.27598,-0.14716 0.15741,-1.35931 -0.3108,0.24724 -0.49636,0.92234 -0.8138,0.68423 -0.0442,0.22829 -0.1972,0.28193 -0.62865,-0.25969 -0.47914,-0.28127 -1.57256,-1.53462 -1.03289,-0.32052 -0.62376,-0.53508 -0.13015,-0.22567 -0.0749,-0.3094 0.63749,-0.32186 0.65156,-0.43238 0.0656,-0.95178 -0.0167,-0.74768 -0.48142,-1.27624 0.225,-1.66807 -0.12459,-0.65349 -0.55175,-1.38614 0.40854,-0.69797 1.45841,-0.50894 0.46741,-0.34015 0.32709,-1.09961 0.33231,-0.65873 0.65021,0.2656 0.50922,-0.0308 -0.68587,-0.24462 -0.55966,-0.99103 -0.0935,-0.45395 1.07836,-1.35605 0.56454,-0.3532 0.69402,-0.71694 0.58411,-1.0813 0.14133,-1.70666 -0.24114,-1.21998 -0.18287,-1.28932 0.35033,-0.33358 0.88701,-0.17168 0.72122,-0.41571 0.36573,-0.38529 0.8576,0.0576 0.99003,-0.59562 1.58304,-0.29828 2.20639,-0.68096 0.48631,-0.60085 -0.21837,-1.06789 0.20631,0.13865 0.61492,0.50895 0.37176,0.50399 0.62965,0.31335 0.50976,0.25347 z"
       id="path2310-5"
       style="display:inline;fill:#5736e7;fill-opacity:1;fill-rule:nonzero;stroke:#505050;stroke-width:0.5;stroke-linecap:round;stroke-linejoin:round;stroke-miterlimit:4;stroke-dasharray:none;stroke-opacity:1" />
  </g>
</svg>
