<?xml version="1.0" encoding="UTF-8" standalone="no"?>
<!-- Created with Inkscape (http://www.inkscape.org/) -->

<svg
   width="20.352667"
   height="25.023933"
   viewBox="0 0 20.352667 25.023933"
   version="1.1"
   id="svg5"
   xmlns="http://www.w3.org/2000/svg"
   xmlns:svg="http://www.w3.org/2000/svg"
   xmlns:rdf="http://www.w3.org/1999/02/22-rdf-syntax-ns#"
   xmlns:cc="http://creativecommons.org/ns#"
   xmlns:dc="http://purl.org/dc/elements/1.1/">
  <metadata
     id="metadata53">
    <rdf:RDF>
      <cc:Work
         rdf:about="">
        <dc:format>image/svg+xml</dc:format>
        <dc:type
           rdf:resource="http://purl.org/dc/dcmitype/StillImage" />
      </cc:Work>
    </rdf:RDF>
  </metadata>
  <defs
     id="defs2" />
  <g
     id="layer8"
     style="display:inline"
     transform="translate(-257.45289,-64.631503)">
    <path
       class="polygon"
       d="m 273.29089,70.951362 -0.23914,0.70484 0.70093,-0.61552 1.08427,0.97402 0.30679,0.4782 0.3376,0.88146 -0.11655,0.56615 -0.15005,0.29239 -0.007,0.22727 0.32219,-0.31335 0.18153,-0.24824 0.0536,-0.59067 0.26325,-0.73297 0.35301,-0.0134 0.28066,0.43661 0.58277,1.90029 0.21971,0.38857 0.0844,0.60313 -0.0335,0.26981 0.0402,0.24925 -0.20698,0.14455 -0.55999,0.31496 -0.25588,0.42026 -0.1487,0.40425 -0.34832,0.27477 -0.3309,0.345708 -0.10316,0.28033 -0.31013,0.22178 -0.0603,0.36929 -0.78104,1.30338 -0.31147,0.58678 -0.44746,0.62309 -0.27999,0.23156 -0.37913,0.3709 -0.19292,0.42876 v 0.44317 l -0.26593,0.53152 -0.14736,0.4579 -0.25052,0.26593 -0.66181,1.45024 -0.0335,0.4991 -0.15741,0.29634 -0.47023,0.6911 -0.31818,0.41571 -0.55463,0.31134 -0.58276,0.33854 -0.22172,0.36928 -0.41128,0.18742 -0.30076,0.0121 -0.48631,-0.13377 -0.65511,-0.0643 -0.33291,0.0429 -0.15004,-0.18347 -0.22306,-0.4216 -0.32755,-0.29828 -0.21167,0.10403 -0.44076,0.29995 -0.51645,0.1763 -0.36841,-0.0589 -0.80201,-0.20772 -0.34162,-0.1047 -0.10315,-0.17731 -0.11789,-0.13276 -0.17751,0.059 -0.23646,0.22145 -0.31549,0.23223 -0.46755,0.30612 -0.95995,0.54981 -0.26995,0.1972 -0.24985,-0.10731 -0.40593,-0.10892 -0.43607,-0.006 -0.93804,-0.35683 -0.54927,-0.25414 -0.23713,-0.31891 -0.27731,-0.13865 -0.16278,-0.087 0.077,-0.0603 0.24315,-0.0455 0.2177,-0.005 0.3376,-0.48765 0.55932,-0.30417 0.97308,-1.68933 0.40994,-0.69765 0.0469,-0.38167 0.11655,-0.79544 -0.21703,-0.96846 0.10115,-0.27182 0.8363,-1.16928 0.35904,-0.63782 0.0268,-0.54914 0.10383,-0.39541 -0.10316,-0.20671 -0.18957,-0.0603 -0.31951,-0.51283 -0.20631,-0.42522 -0.56736,-0.435328 -0.38918,-0.44645 -0.63769,-1.02505 0.0603,-0.57566 -0.18086,-0.20705 -0.19559,-0.21127 0.0134,-0.2607 -0.13263,-0.64466 -0.16545,-0.6054 -0.0603,-0.38168 0.15741,-0.65644 -0.0951,-0.73002 -0.20698,-0.38396 -0.0536,-0.58417 0.0402,-0.52361 0.17751,-0.29534 -0.0335,-0.36633 0.80749,-1.16503 0.61291,-0.6754 0.56401,-0.47392 0.47358,-0.35387 0.64104,-1.76979 0.46688,-0.62275 0.48764,-0.0886 2.63061,1.46528 1.23305,0.13544 2.48545,0.79184 0.89973,1.01524 2.08348,1.68899 1.09473,0.53018 z"
       id="path2328-6"
       style="display:inline;fill:#e736e1;fill-opacity:1;fill-rule:nonzero;stroke:#505050;stroke-width:0.5;stroke-linecap:round;stroke-linejoin:round;stroke-miterlimit:4;stroke-dasharray:none;stroke-opacity:1" />
  </g>
</svg>
