<?xml version="1.0" encoding="UTF-8" standalone="no"?>
<!-- Created with Inkscape (http://www.inkscape.org/) -->

<svg
   width="33.385101"
   height="49.721508"
   viewBox="0 0 33.385101 49.721508"
   version="1.1"
   id="svg5"
   xmlns="http://www.w3.org/2000/svg"
   xmlns:svg="http://www.w3.org/2000/svg"
   xmlns:rdf="http://www.w3.org/1999/02/22-rdf-syntax-ns#"
   xmlns:cc="http://creativecommons.org/ns#"
   xmlns:dc="http://purl.org/dc/elements/1.1/">
  <metadata
     id="metadata53">
    <rdf:RDF>
      <cc:Work
         rdf:about="">
        <dc:format>image/svg+xml</dc:format>
        <dc:type
           rdf:resource="http://purl.org/dc/dcmitype/StillImage" />
      </cc:Work>
    </rdf:RDF>
  </metadata>
  <defs
     id="defs2" />
  <g
     id="layer9"
     style="display:inline"
     transform="translate(-212.0595,-46.09449)">
    <path
       class="polygon"
       d="m 240.4294,66.447902 -0.35569,0.42321 -0.067,0.26854 -0.23043,0.47686 -0.17818,0.25869 0.26057,0.59335 0.29674,0.0261 0.11254,0.0759 0.0743,0.11608 -0.0134,0.12593 -0.11387,0.11314 -0.28401,0.14388 -0.26995,0.34276 0.0268,0.37712 -0.1688,0.19687 -0.54324,0.10436 -1.06331,6.5e-4 -0.52181,0.0255 -0.41731,0.0643 -0.27396,0.24496 -0.34899,0.17041 -0.2733,0.0402 -0.24248,0.28422 -0.24048,0.40331 0.0817,0.27537 0.24784,0.36828 0.14669,0.37612 -0.19224,0.60996 -0.211,0.47096 -0.12392,0.35944 -0.16813,0.69111 -0.40861,0.76011 -0.29272,0.43238 10e-4,0.47063 0.14804,0.6679 0.83402,0.97304 0.27597,0.465068 0.22708,0.7454 0.7523,0.58745 0.47492,0.47492 -0.0469,0.62731 0.0603,0.19559 0.29473,0.15795 0.35569,0.12131 0.3952,-0.0101 0.35301,-0.0536 0.0824,-0.0883 0.81667,-0.0114 0.0918,0.15735 0.0469,0.90271 0.0335,0.36533 0.19426,0.1475 0.11588,0.22373 0.007,0.2031 0.0402,0.50566 0.12124,0.26593 -0.0201,0.53969 0.0837,0.19787 0.22573,0.13411 0.28469,0.38663 0.10717,0.0489 0.0536,0.13671 0.24382,0.55048 0.12392,0.16451 0.0871,0.0241 0.0335,0.19104 0.17684,0.5145 0.11923,0.12694 0.22842,0.37779 0.0918,0.41182 0.3021,0.46474 0.30746,0.32708 0.13865,0.3382 0.3932,0.74867 0.38047,0.52529 0.51712,0.13705 0.43205,0.0733 0.26995,0.20276 0.26525,0.21884 -0.28602,0.0997 -0.25521,0.1341 -0.35435,-0.10336 -0.49166,0.0556 -0.51176,0.14817 -0.47224,0.0733 -0.88962,-0.23552 -0.27128,-0.0321 -0.18421,-0.10208 -0.36908,-0.46447 -0.1755,-0.0549 -0.47358,0.21683 -0.57607,0.14978 -0.28066,-0.0281 -0.33023,0.15634 -0.30746,0.209 -0.58745,0.90501 -0.30344,0.31985 -0.32622,0.14716 -0.65175,-0.005 -0.69604,0.0322 -0.52114,0.2191 -0.48831,0.11187 -0.24449,0.0141 -0.0824,0.49649 -0.1112,0.23023 -0.15339,0.13182 -0.37913,0.0395 -0.34095,-0.0174 -0.20699,-0.20672 -0.38382,-0.10335 -0.33961,-0.0739 -0.22171,-0.11809 -0.17751,0.0295 -0.14737,0.20672 -0.11856,0.17724 -0.10316,0.3248 -0.51711,0.1037 -0.22172,0.18481 0.12861,0.60902 -0.0603,0.23779 -0.10851,0.18481 -0.6243,0.0368 -0.53252,-0.0127 -0.30612,0.22467 -0.38114,0.26131 -0.23177,0.0489 -0.27262,-0.0161 -0.36239,-0.30317 -0.34765,-0.37317 -0.88338,-0.26164 -0.87623,-0.21683 -0.57472,-0.59335 -0.13598,-0.29205 -0.27062,-0.12821 -0.68163,-0.70386 -0.37712,-0.45267 -0.40793,-0.12071 -0.46889,-0.18937 0.0201,-0.32775 -0.0335,-0.31563 -0.20095,-0.12821 -0.28268,-0.0851 -0.10382,-0.17724 0.0268,-0.41376 0.0536,-1.06658 -0.0784,-1.02145 -0.62899,-0.35455 -0.27128,-0.2404 -0.47626,-1.5101 -0.2244,-0.68063 -0.0134,-0.50533 0.15808,-1.50747 0.17885,-0.65216 0.4863,-1.30796 0.28067,-0.44283 0.0134,-0.33064 -0.0268,-0.42582 -0.14268,-0.83959 0.8223,-0.52951 0.35234,-0.22272 0.0603,-0.35455 0.44075,-0.44839 0.19426,-0.427158 0.16277,-0.33559 -0.0469,-0.17731 -0.19225,-0.10302 -0.2264,-0.31985 -0.47559,-0.9194 -0.17215,-0.18608 -0.14536,-0.25836 0.0744,-0.40786 0.18621,-0.44123 -0.0268,-0.18481 -0.28468,-0.23813 -0.58612,-0.39708 -0.48697,-0.0295 -0.37712,-0.14327 -0.55396,-0.0194 -0.44277,-0.0442 -0.25119,-0.14783 0.0536,-0.24369 0.10985,-0.18776 0.37243,-0.46212 0.24918,-0.49488 0.0335,-0.48343 0.0757,-0.63521 0.10784,-0.55142 0.0603,-0.62308 -0.58544,-0.40948 -0.18689,-0.33653 -0.24181,-0.29861 h -0.26593 l -0.40124,-0.12821 -0.62697,0.39279 -0.493,-0.0726 -0.33961,0.14784 -0.78305,-0.0295 -0.50238,-0.19197 -0.60822,0.12787 -1.41913,-1.57648 -1.42804,-1.5863 -1.40412,-1.55915 -0.0938,-0.21294 0.58745,-0.7418 0.52382,-0.5338 0.43875,-0.30284 0.20631,-0.2672 -0.15809,-1.14409 0.007,-0.41148 -0.20497,-0.44779 -0.14736,-0.50238 0.17683,-0.41899 0.21167,-0.29205 0.2733,-0.11287 0.65444,-0.10202 0.46286,-0.0415 0.16344,-0.16779 0.26928,-0.19493 0.35166,-0.0107 0.68947,0.13511 0.31416,-0.25219 0.56937,-0.34243 1.27987,-0.59134 0.28736,-0.38529 0.20095,-0.59723 -0.0201,-0.28093 -0.13129,-0.10731 -0.31684,-0.0975 -0.48631,-0.0134 -0.39051,0.15306 -0.40191,-0.0837 -0.33559,-0.36761 -0.0201,-0.30485 0.19828,-0.43044 -0.11522,-0.28455 -0.6397,-0.90664 0.004,-0.24959 0.46353,-0.40652 0.26392,-0.34638 0.36037,-0.82847 0.28603,-0.27571 0.89096,-0.0968 0.2264,-0.17664 0.45483,-0.43827 0.67473,-0.49977 0.97629,-0.39869 0.27933,-0.72644 0.17349,-0.1982 0.77554,-0.38235 0.13531,-0.2041 -0.0201,-0.17958 -1.2291,-1.63013 0.24717,0.11187 0.96518,1.06363 0.53453,0.22996 0.11254,0.005 0.004,-0.27638 0.49032,0.11642 1.26741,0.72741 1.85319,1.20167 2.60355,2.27085 0.74011,0.8638 0.49903,0.40686 0.77387,0.99037 0.2264,0.4841 -0.0201,1.92677 -0.68552,1.30273 -0.16746,0.98024 -0.0402,1.30468 -0.39856,0.74867 0.52918,-0.40686 0.16411,-1.17713 0.45014,-0.71497 0.58477,-0.78498 0.7807,-0.18836 0.84119,0.33425 0.67708,0.0589 0.5975,0.23257 1.27069,1.25497 1.24122,0.99234 0.45147,0.79609 1.31611,0.39802 0.77782,0.62765 0.24985,0.54324 0.15407,1.4221 -0.25454,2.14625 z"
       id="path2362-2"
       style="display:inline;fill:#e73685;fill-opacity:1;fill-rule:evenodd;stroke:#505050;stroke-width:0.5;stroke-linecap:round;stroke-linejoin:round;stroke-miterlimit:4;stroke-dasharray:none;stroke-opacity:1" />
  </g>
</svg>
