<?xml version="1.0" encoding="UTF-8" standalone="no"?>
<!-- Created with Inkscape (http://www.inkscape.org/) -->

<svg
   width="91.194466"
   height="77.463867"
   viewBox="0 0 91.194466 77.463867"
   version="1.1"
   id="svg5"
   xmlns="http://www.w3.org/2000/svg"
   xmlns:svg="http://www.w3.org/2000/svg"
   xmlns:rdf="http://www.w3.org/1999/02/22-rdf-syntax-ns#"
   xmlns:cc="http://creativecommons.org/ns#"
   xmlns:dc="http://purl.org/dc/elements/1.1/">
  <metadata
     id="metadata53">
    <rdf:RDF>
      <cc:Work
         rdf:about="">
        <dc:format>image/svg+xml</dc:format>
        <dc:type
           rdf:resource="http://purl.org/dc/dcmitype/StillImage" />
      </cc:Work>
    </rdf:RDF>
  </metadata>
  <defs
     id="defs2" />
  <g
     id="layer15"
     style="display:inline"
     transform="translate(-131.8417,-21.793405)">
    <path
       class="polygon"
       d="m 214.9544,44.216512 -0.41597,0.13605 -0.0603,-0.67181 0.12526,-0.18119 0.70809,-0.5403 0.19426,-0.10235 0.14201,0.11347 -0.0335,0.14388 0.33961,0.24235 -0.0824,0.30873 -0.36841,0.3372 z m 1.18368,-1.81558 -0.80528,0.21978 0.0134,-0.17925 0.21569,-0.31074 0.41798,-0.0877 0.15742,-0.10631 0.26659,-0.0716 0.15206,0.0127 0.15473,0.088 -0.36506,0.17497 z m -29.41488,-11.84326 -0.36104,0.15045 -0.66181,-0.15045 -0.3309,-0.21067 0.21033,-0.24074 h 0.5419 l 0.50774,0.29205 z m 9.13083,-1.50421 0.21502,0.87525 -0.067,0.16418 -0.60621,0.59133 -0.50841,0.0422 -0.40928,-0.0208 -0.31147,-0.11448 -0.3999,-0.38429 -0.38918,0.11515 -0.96156,-0.13343 -0.2666,-0.13444 0.35971,-0.47097 0.66248,-0.19037 0.24181,-0.0388 0.19358,0.28911 0.48229,0.24991 0.56602,0.0255 0.14066,-0.44612 0.76503,-0.66167 z m -39.60801,-3.65077 0.33827,0.74899 0.53788,0.56455 0.41397,-0.0368 0.2954,-0.0942 1.96371,-0.12694 1.19218,0.38462 1.51794,0.19627 1.41852,0.81964 1.45745,0.99397 0.37176,0.72446 0.12325,0.6934 0.35301,0.46413 -0.35234,0.47753 0.19023,0.7997 0.41665,0.80524 0.63032,0.51189 1.79725,0.13833 1.94442,-0.34604 3.00124,-0.31269 0.96611,-0.26954 4.96923,-0.14455 0.94689,0.38596 0.0918,0.38529 0.0134,0.29567 1.59904,1.4414 1.31223,0.19627 1.11529,0.46246 1.15192,0.24824 1.26125,0.35033 0.70876,-0.0442 0.53119,-0.12298 0.62697,-0.0208 4.43537,-2.40953 2.37553,0.0623 0.36573,-0.15667 0.31617,-0.21094 -0.87622,-0.36667 -1.97745,-0.14127 -0.60018,0.24563 -0.33961,-0.62014 0.64439,0.0168 2.2005,-0.20832 2.52303,0.13738 2.05568,-0.44156 1.03417,-0.0733 0.59482,0.0874 1.63703,-0.28616 3.08168,0.33653 2.43013,-0.27765 -0.28067,0.39903 -0.79738,0.24168 -1.28931,0.0762 -0.98514,0.58351 -2.10049,-0.10792 -1.47379,0.21094 0.47291,0.16257 -3.4e-4,0.59823 0.20162,0.12071 0.21234,0.005 0.50239,0.44316 0.13731,0.28978 0.16211,0.61096 -0.22172,0.65973 -0.30746,0.2944 0.59884,-0.0971 0.33961,-0.31007 -0.0469,-0.31135 0.0469,-0.36077 0.33626,0.11287 0.23579,0.1629 0.76502,1.72629 0.53923,0.90664 0.13799,-0.0342 0.12794,-0.0322 0.16009,-0.17369 0.23846,-0.42649 0.20564,0.27049 0.12392,0.10369 0.1246,0.0328 -0.11321,-0.38663 0.1534,-0.49522 -0.0536,-0.17302 0.23913,-0.0375 0.28469,0.0656 0.40592,0.13638 0.72283,0.56783 0.4776,0.58839 0.0402,0.32836 0.17282,0.18447 0.31214,0.19426 0.15273,0.3035 0.0268,-0.47753 -0.18354,-0.34798 -0.0469,-0.39776 0.94134,-0.0174 0.24449,-0.52301 0.5131,0.31496 1.35938,1.43649 0.50238,0.23746 1.48062,0.27571 0.93316,0.69078 0.54659,0.62014 -0.32487,0.65021 -0.87134,0.32481 -0.34898,0.40593 -0.20029,0.39835 -0.003,0.40097 -0.26392,0.46541 -0.0402,0.16384 -0.15741,0.65611 -0.35837,0.7902 -0.47826,0.83763 -2.488,0.0194 0.61491,0.34376 0.56468,0.25086 0.9282,0.65839 0.7385,-0.51712 1.05682,-0.0368 1.14375,-0.57399 0.43071,-0.0893 2.14002,0.30056 0.51577,-0.42194 0.43071,-0.12399 1.15722,0.0788 1.00443,0.45335 1.24517,1.63013 0.0201,0.17958 -0.13531,0.2041 -0.77554,0.38235 -0.17349,0.19821 -0.27933,0.72643 -0.97629,0.39869 -0.67474,0.49977 -0.45482,0.43828 -0.22641,0.17663 -0.89095,0.0968 -0.28603,0.2757 -0.36037,0.82847 -0.26392,0.34638 -0.46353,0.40653 -0.004,0.24958 0.6397,0.90664 0.11522,0.28455 -0.19828,0.43044 0.0201,0.30485 0.33559,0.36761 0.40191,0.0837 0.39051,-0.15306 0.48631,0.0134 0.31684,0.0975 0.13128,0.10731 0.0201,0.28093 -0.20095,0.59723 -0.28737,0.3853 -1.27986,0.59133 -0.56937,0.34243 -0.31416,0.25219 -0.68947,-0.1351 -0.35166,0.0107 -0.26928,0.19493 -0.16344,0.16779 -0.46286,0.0415 -0.65444,0.10202 -0.2733,0.11287 -0.21167,0.29205 -0.17684,0.41899 0.14737,0.50238 0.20497,0.44779 -0.007,0.41148 0.15809,1.1441 -0.20632,0.2672 -0.43874,0.30283 -0.52382,0.5338 -0.58745,0.7418 0.0938,0.21294 1.40412,1.55915 1.42804,1.5863 1.41913,1.57648 0.20229,0.0703 0.26794,0.18219 0.24784,0.55175 0.2043,0.58544 0.004,0.30284 -0.15875,0.38074 -0.34564,0.43828 -0.41932,0.35488 -0.61425,0.30089 -0.48765,0.28388 -0.40324,0.75096 -0.24382,0.26425 -0.2244,0.10664 -0.44344,0.0981 -0.71666,-0.0228 -0.47358,-0.059 -0.58611,0.56193 -0.74929,0.20605 -0.50171,0.76665 -1.78587,0.60802 -1.74655,0.47358 -0.47894,0.18708 -1.72498,-0.39085 -0.41463,0.12198 -0.47827,0.36305 -0.44075,0.28161 -0.37244,0.0174 -0.31348,0.14556 -0.18622,0.51973 -0.16545,1.791048 -0.61894,0.53245 -0.74801,-0.003 -0.51377,-0.6198 -0.60889,-0.46869 -1.06163,-1.110738 -0.29473,-0.14489 -0.27531,0.007 -0.98487,0.32936 -0.46755,-0.14294 -0.37712,-0.17269 -0.62965,0.0556 -1.12313,0.0127 -0.71566,0.0107 -0.34764,-0.3035 -0.32354,-0.62014 -0.21837,-0.22206 -0.25588,-0.17891 -0.42334,-0.0903 -1.8077,0.002 -0.34028,6.5e-4 -0.24986,-0.11937 -0.34764,-0.53179 -0.3798,-0.24985 -0.44478,-0.0107 -0.19559,0.29306 0.77219,0.95766 0.22507,0.51906 0.67707,0.7503 1.9601,1.588258 0.36305,0.50433 -0.0402,0.64432 -0.0134,0.98612 0.067,0.93313 0.50439,1.33838 0.7085,1.36226 0.19291,0.86841 -0.13196,0.64171 -0.13464,0.34148 0.0134,0.15212 0.14536,0.13739 0.67473,0.1972 1.41752,0.12332 0.85693,6.5e-4 1.30861,0.1475 0.0965,0.4788 -0.12794,0.78988 -0.25856,0.44839 -0.21033,0.13082 -0.71238,0.10403 -0.74928,0.4847 -1.08756,0.47853 -0.62094,0.065 -0.25856,0.0935 -0.21904,0.14361 -0.18019,0.18187 -0.21167,0.89715 -0.32018,1.01294 -0.6042,0.60146 -0.66449,0.49715 -0.676,0.0563 -0.54191,-0.0395 -0.26927,0.14589 -0.38918,0.40948 -0.55664,0.50928 -0.42937,0.27148 -0.57874,-0.0255 -0.61693,0.25052 -0.7801,0.41048 -0.51712,0.3372 -0.44142,0.57533 -0.63167,0.60507 -0.64907,0.42354 -0.31081,0.52362 -0.44344,0.66461 -0.55396,0.0221 -0.0469,-0.39869 0.26593,-0.64238 -0.28803,-0.55376 -0.52717,-0.29667 -0.2465,-0.0877 -0.24583,0.0362 -0.62429,0.27309 -0.76731,0.49649 -0.47224,0.35749 -0.42669,0.16351 -0.8785,0.14784 -0.73984,0.0759 -0.30478,-0.10208 -0.54994,-0.365 -1.27136,-1.14181 -1.72136,-1.54672 -0.13062,-0.44779 0.0737,-0.45791 -0.31215,-0.66823 -0.18219,-0.71138 -0.15541,-0.24496 -0.0469,-0.53186 -0.37377,-0.95799 -0.30612,-0.78464 -0.28066,-0.39869 0.11789,-0.33982 -0.11789,-0.33947 -0.22775,-0.27671 -0.33358,-0.89029 0.11789,-0.38369 -0.0884,-0.38429 -0.28066,-0.26331 -0.39856,-0.28294 -0.53185,-0.59101 -0.63501,-0.56092 -0.32488,-0.22179 -0.22172,-0.0883 -0.19224,-0.53179 -0.14737,-0.16257 -0.32487,-0.0442 -0.66448,-0.22179 -0.62028,0.26593 -0.0134,-0.41343 0.17751,-0.25119 2.14296,-1.97224 1.07999,-0.90697 0.11589,-0.13377 0.0944,-0.20999 0.0737,-0.2806 -0.24517,-0.32086 -1.01126,-1.52284 -0.351,-0.28622 -0.3443,-0.23418 -0.39587,-0.639428 -0.47358,-1.48883 -0.34095,-0.74834 -0.10316,-0.57365 0.0201,-0.64861 -0.1266,-0.49816 -0.27464,-0.34705 v -1.06233 l 0.27464,-1.77731 0.0677,-1.35113 -0.13866,-0.92397 0.2445,-0.70353 0.62831,-0.48242 0.35033,-0.7454 0.073,-1.00869 0.37645,-0.8288 0.67869,-0.64887 0.23109,-0.6401 -0.21569,-0.63126 -0.0697,-0.40526 -0.57674,-0.41209 -1.06565,-0.2891 -0.88439,-0.0328 -0.53387,0.32119 -1.36782,0.29761 -2.20184,0.27443 -1.77307,-0.002 -1.34458,-0.27738 -1.02305,0.0926 -0.70059,0.46246 -0.493,0.10469 -0.28602,-0.2538 -0.30947,-0.0697 -0.46956,0.16089 -0.0811,-0.0733 -1.04208,-1.24974 -0.96551,-1.15816 -1.10678,-1.37893 -1.27819,-1.59219 -0.22909,-0.10496 -0.39454,0.0107 -0.52248,0.0275 -0.81312,-0.16518 -0.55731,-0.23123 -0.43473,-0.22373 -0.80066,-0.28294 -0.54994,-0.0489 -0.49233,0.0834 -1.35704,0.55698 -0.77253,0.0516 -0.5975,0.01 -1.603,-0.2757 -1.097,-0.0435 -1.27525,0.18152 -0.54525,0.1037 -0.76335,-0.28328 -0.5198,-0.43037 -0.48497,-1.02377 -0.34162,-0.80754 -0.59348,-0.16258 -0.65845,-0.13772 -0.32354,-0.26653 -0.19425,-0.4648 -0.0469,-0.59589 0.0677,-0.96945 0.0603,-0.34764 0.0904,-1.04663 0.36372,-0.54653 0.22842,-0.26526 -0.0469,-0.43861 -0.1755,-0.89945 -0.1755,-0.63582 -0.73133,-0.72152 -0.93577,-0.92365 -0.40258,-1.47836 -0.47425,-1.74624 -0.3731,-0.1753 -0.35033,0.0877 -0.3731,-0.0877 -0.32889,-0.70189 -0.3289,-0.13149 -0.52448,0.2463 -0.3778,0.19198 -0.96162,0.17563 -0.19761,-0.17563 0.067,-0.21911 0.40659,-0.63749 0.47827,-0.81441 0.55597,-0.74376 0.51712,-0.76077 0.38516,-0.81016 0.26258,-1.61148 0.18086,-1.11204 0.47558,-1.97944 0.87201,-1.58041 0.32889,-0.72774 0.78921,-0.94654 0.36372,-0.51417 0.48162,-0.40425 1.32368,-0.55048 1.58203,-2.71632 0.36306,-0.43172 1.59837,-0.40492 1.2285,-0.3163 0.91025,-0.3313 0.29875,-0.17564 0.2398,-0.0815 -0.19894,0.31463 -0.43607,0.4003 -0.49435,0.24402 -2.54721,0.6123 -0.26057,0.12982 -0.3309,0.25481 -0.002,0.5835 0.0683,0.4579 0.74935,1.50126 0.29205,0.37022 1.00376,0.81409 -0.22842,0.11253 -0.36975,0.0141 0.27129,1.06626 0.61625,0.73198 0.0268,0.46119 -0.47224,1.43093 -0.86182,0.85595 -0.61157,0.99626 -0.47559,0.39642 -1.05252,1.95916 0.801,1.16601 0.11387,0.59134 0.69148,0.84123 0.45147,0.27604 0.30076,0.33947 -0.13799,0.57433 0.27598,0.77777 0.3577,0.41115 0.45013,0.16452 0.5553,-0.002 1.59871,-0.51805 0.37847,-0.23317 0.24114,-0.41537 0.80066,-0.84254 0.0469,-1.08882 0.17215,-1.30633 -0.19425,-0.85333 -0.84059,-1.21507 -0.36841,-0.86412 -0.83335,-0.80493 -0.51043,-1.37631 -0.21033,-0.42843 -0.15808,-0.59362 -0.17952,-1.05088 0.55932,-0.38134 -0.0536,-0.86085 1.37432,-0.23679 2.9731,-1.39954 1.8414,-0.35454 2.09721,-0.74769 0.4863,-0.36895 0.42067,-0.61425 0.32554,-0.0707 1.09305,0.57599 0.53989,-0.20014 0.21368,-0.4494 -0.29741,-0.8759 -0.62697,-3.2e-4 -1.88655,0.31824 -0.1842,-0.37679 6.7e-4,-0.32969 -0.44545,-1.04467 0.27732,-0.78694 0.28334,-0.63548 0.54123,-0.25608 0.79082,-0.27638 0.60018,0.42388 0.36372,0.40458 0.19761,0.39246 0.13464,1.06331 z"
       id="path2644-9"
       style="display:inline;fill:#dae736;fill-opacity:1;fill-rule:nonzero;stroke:#505050;stroke-width:0.5;stroke-linecap:round;stroke-linejoin:round;stroke-miterlimit:4;stroke-dasharray:none;stroke-opacity:1" />
  </g>
</svg>
