<!--Created with Inkscape (http://www.inkscape.org/)--><svg width="1920" height="1080" viewBox="0 0 507.99999 285.75001" version="1.1" id="svg1147" xmlns:xlink="http://www.w3.org/1999/xlink" xmlns="http://www.w3.org/2000/svg" xmlns:rdf="http://www.w3.org/1999/02/22-rdf-syntax-ns#" xmlns:cc="http://creativecommons.org/ns#" xmlns:dc="http://purl.org/dc/elements/1.1/"><defs id="defs1013"><linearGradient id="b"><stop style="stop-color:#cfb47d;stop-opacity:1" offset="0" id="stop1001"/><stop style="stop-color:#cbb790;stop-opacity:1" offset="1" id="stop1003"/></linearGradient><linearGradient id="a"><stop style="stop-color:#7dc7e6;stop-opacity:1" offset="0" id="stop1006"/><stop style="stop-color:#9ad8e3;stop-opacity:1" offset="1" id="stop1008"/></linearGradient><linearGradient xlink:href="#a" id="c" x1="102.57126" y1="28.336292" x2="125.88172" y2="163.60284" gradientUnits="userSpaceOnUse" gradientTransform="matrix(.92435 0 0 1.14894 15.373 13.897)"/><linearGradient xlink:href="#b" id="d" x1="147.37592" y1="284.95654" x2="138.28564" y2="230.41499" gradientUnits="userSpaceOnUse" gradientTransform="matrix(.9314 0 0 1.34905 15.134 -123.217)"/></defs><metadata id="metadata1019"><rdf:RDF><cc:Work><dc:format>image/svg+xml</dc:format><dc:type rdf:resource="http://purl.org/dc/dcmitype/StillImage"/><dc:creator><cc:Agent><dc:title>Timothée Giet</dc:title></cc:Agent></dc:creator><dc:date>2020</dc:date><cc:license rdf:resource="http://creativecommons.org/licenses/by-sa/4.0/"/></cc:Work><cc:License rdf:about="http://creativecommons.org/licenses/by-sa/4.0/"><cc:permits rdf:resource="http://creativecommons.org/ns#Reproduction"/><cc:permits rdf:resource="http://creativecommons.org/ns#Distribution"/><cc:requires rdf:resource="http://creativecommons.org/ns#Notice"/><cc:requires rdf:resource="http://creativecommons.org/ns#Attribution"/><cc:permits rdf:resource="http://creativecommons.org/ns#DerivativeWorks"/><cc:requires rdf:resource="http://creativecommons.org/ns#ShareAlike"/></cc:License></rdf:RDF></metadata><g id="g1145"><rect style="fill:url(#c);fill-opacity:1;stroke:none;stroke-width:1.36332023;stroke-linejoin:round;stroke-miterlimit:4;stroke-dasharray:none;stroke-opacity:1" width="508" height="285.75" x="-1.110223e-16" y="1.6271974e-06" id="rect1021"/><rect style="opacity:1;vector-effect:none;fill:#35677b;fill-opacity:1;stroke:none;stroke-width:.214342px;stroke-linecap:butt;stroke-linejoin:miter;stroke-miterlimit:4;stroke-dasharray:none;stroke-dashoffset:0;stroke-opacity:1" width="2.0116987" height="15.399389" x="252.99379" y="52.215405" id="rect1023"/><path style="fill:#7f7669;fill-opacity:1;stroke:none;stroke-width:.264584px;stroke-linecap:butt;stroke-linejoin:miter;stroke-opacity:1" d="M234.028 109.46v-9.218l-3.073-3.072-3.072 6.145v9.218z" id="path1025"/><path style="fill:#7f7669;fill-opacity:1;stroke:none;stroke-width:.264584px;stroke-linecap:butt;stroke-linejoin:miter;stroke-opacity:1" d="M273.972 109.845v-9.218l3.072-3.073 3.072 6.145v9.218z" id="path1027"/><path style="fill:#a48a56;fill-opacity:1;stroke:none;stroke-width:1.33981;stroke-linejoin:round;stroke-miterlimit:4;stroke-dasharray:none;stroke-opacity:1" d="M.348 151.168C101.6 134.046 381 173.314 508 153.68v121.486H.348z" id="path1029"/><path style="fill:#cec4b2;fill-opacity:1;stroke:none;stroke-width:.156976px;stroke-linecap:butt;stroke-linejoin:miter;stroke-opacity:1" d="M154.308 174.404c-.288-.023-1.92 1.62-3.254 3.61l.017-.278c.482-1.234.879-2.292 1.017-2.77.243-.85-1.583.606-3.229 2.79.547-1.147 1.014-2.149 1.184-2.58.356-.901-2.069 1.423-3.689 4.08.083-1.03.145-1.949.136-2.323-.025-1.088-3.334 4.02-1.561 6.542l.679.089.373.094.49-.99c-.11.7-.083 1.375.136 1.985l1.505.401s.496-1.203 1.091-2.659c.015.046.032.09.049.134.003.104.01.206.024.305l.125.033c.048.088.101.176.16.26l1.031.135.103-1.07c.91-1.844 3.182-6.475 3.622-7.591.052-.13.045-.193-.009-.197zm2.637.165c-.556-.072-3.75 3.066-5.058 6.249-.796 1.547-1.213 3.458.014 4.75l1.002.098.556.105.723-1.086c-.163.768-.122 1.506.202 2.175l2.228.44s.733-1.318 1.613-2.913c.022.052.046.104.073.155.005.111.016.22.036.325l.184.035c.071.098.15.193.237.285l1.527.148s.065-.488.152-1.172c1.347-2.023 4.71-7.096 5.36-8.32.481-.903-2.485 1.153-4.829 3.74l.026-.303c.712-1.353 1.3-2.512 1.502-3.037.334-.864-1.969.448-4.248 2.554-.022-.035-.097-.029-.21.011.668-1.045 1.216-1.923 1.434-2.333.446-.837-2.061.862-4.295 3.17.825-2.056 1.621-4.098 1.832-4.83.045-.156.02-.235-.061-.246zm12.736 1.24c-1.156-.11-10.033 6.731-8.019 10.885l2.229.44.109-.194.836.269s5.772-5.507 6.713-6.614c.615-.724-3.059.855-5.635 2.88 1.545-2.812 3.443-6.325 3.858-7.397.066-.17.029-.257-.09-.269zm-45.46.537c-.236-.018-1.566 1.277-2.654 2.838l.014-.225c.392-.969.717-1.798.828-2.173.11-.366-.293-.186-.9.337-.068.058-.138.12-.21.186a14.094 14.094 0 0 0-1.438 1.556c-.029.038-.058.077-.089.114.445-.894.833-1.69.97-2.027.28-.681-1.547.985-2.862 2.972l-.148.23c.066-.8.12-1.534.113-1.826-.02-.852-2.718 3.153-1.273 5.13l.553.07.305.074.402-.783c-.09.552-.07 1.083.109 1.563l1.228.315s.404-.944.889-2.085c.011.036.026.071.04.107.003.081.008.16.02.237l.1.025c.04.07.083.138.131.204l.842.106.083-.838c.742-1.447 2.595-5.078 2.954-5.952.042-.103.036-.152-.008-.156zm2.15.13c-.11-.014-.346.12-.657.367a6.61 6.61 0 0 0-.195.16c-1.553 1.336-4.448 4.903-3.568 7.26l1.228.315.06-.14.46.193s3.182-3.94 3.7-4.732c.34-.517-1.685.612-3.104 2.06.127-.3.225-.529.358-.847.763-1.815 1.573-3.792 1.767-4.444.036-.122.016-.184-.05-.193zm13.628.074c-.288-.023-1.92 1.62-3.254 3.61l.018-.277c.481-1.234.878-2.293 1.015-2.771.243-.85-1.583.606-3.228 2.79.548-1.147 1.014-2.148 1.184-2.579.356-.901-2.069 1.422-3.688 4.08.082-1.03.144-1.95.135-2.323-.026-1.09-3.335 4.02-1.56 6.541l.678.089.374.094.488-.99c-.11.7-.082 1.375.137 1.985l1.506.402s.495-1.204 1.09-2.66c.014.046.032.09.049.135.003.104.01.206.024.304l.126.033c.048.089.1.176.16.26l1.03.135.103-1.07c.91-1.844 3.183-6.475 3.622-7.591.051-.13.045-.192-.01-.197zm2.636.166c-.781-.101-6.78 6.14-5.418 9.932l1.505.401.073-.177.566.245s3.9-5.025 4.537-6.035c.415-.66-2.068.78-3.808 2.628 1.044-2.565 2.326-5.77 2.606-6.749.045-.156.02-.234-.06-.245z" id="path1031"/><path style="fill:#bfa875;fill-opacity:1;stroke:none;stroke-width:1.29199;stroke-linejoin:round;stroke-miterlimit:4;stroke-dasharray:none;stroke-opacity:1" d="M.348 164.98c139.564-27.936 338.435 0 507.652 0v110.186H.348z" id="path1033"/><path style="fill:url(#d);fill-opacity:1;stroke:none;stroke-width:1.23217;stroke-linejoin:round;stroke-miterlimit:4;stroke-dasharray:none;stroke-opacity:1" d="M52.575 153.444c-.397-.045-2.646 3.236-4.483 7.203.01-.203.015-.362.024-.552.663-2.464 1.21-4.574 1.398-5.529.336-1.697-2.18 1.21-4.447 5.567.755-2.289 1.397-4.286 1.632-5.147.436-1.602-2.164 1.902-4.314 6.433l-.687.087c.065-1.32.114-2.484.105-3.016-.016-1.008-1.007.666-1.82 3.239-1.45.19-2.893.385-4.332.585.442-1.68.78-3.034.926-3.766.061-.313.027-.468-.085-.49-.427-.08-1.985 1.836-3.592 4.644-.517.074-1.033.148-1.549.225.69-2.1 1.298-3.984 1.522-4.806.07-.26.061-.385-.013-.394-.339-.038-2.026 2.353-3.655 5.518l-.527.08c.523-1.963.963-3.672 1.122-4.476.32-1.613-1.94.939-4.111 4.94l-.14.02c.66-2.006 1.224-3.763 1.435-4.54.384-1.412-1.59 1.148-3.537 4.874l-1.396.23c.027-.69.043-1.265.038-1.598-.013-.809-.652.098-1.324 1.81a475.58 475.58 0 0 0-5.863 1.017c.263-.504.486-.942.598-1.19.307-.679-.79.063-2.131 1.467-.487.088-.97.18-1.455.27.988-3.422 1.986-6.966 2.237-8.186.05-.245.023-.368-.068-.384-.151-.027-.477.24-.905.733a9.123 13.214 0 0 0-.268.322c-1.288 1.603-3.242 4.817-4.333 8.148l-.595.116c1.183-3.364 2.769-7.926 3.149-9.27.058-.202.05-.302-.01-.308-.325-.036-2.158 2.55-3.657 5.663.009-.166.013-.294.02-.449.541-1.932.987-3.588 1.141-4.335.151-.733-.404-.372-1.241.67-.093.117-.19.241-.29.373a19.418 28.125 0 0 0-1.979 3.105c-.041.074-.082.152-.123.23.613-1.788 1.147-3.376 1.337-4.05.385-1.358-2.132 1.968-3.944 5.932-.07.154-.137.307-.205.462.092-1.599.167-3.062.157-3.644-.027-1.624-3.409 5.575-1.989 9.667V285.73H508V168.45c-1.94 0-3.889-.007-5.837-.015.984-2.704 1.775-4.977 2.06-6.04.091-.342.04-.514-.125-.536-.727-.101-3.675 2.696-6.398 6.553l-1.74-.015c1.276-2.852 2.39-5.404 2.782-6.47.62-1.684-2.899 1.777-5.995 6.446l-.472-.004c.91-2.513 1.655-4.654 1.92-5.645.46-1.724-2.713.894-5.854 5.096-.03-.068-.133-.057-.29.023.922-2.086 1.676-3.837 1.977-4.657.557-1.515-2.236 1.143-5.058 5.09a89.043 128.97 0 0 0-.517-.006c1.005-3.653 1.921-7.084 2.18-8.397.063-.311.028-.468-.083-.488-.617-.116-3.592 3.928-5.668 8.825l-.781-.014c1.221-3.643 2.468-7.422 2.83-8.749.07-.26.06-.385-.014-.393-.397-.045-2.646 3.235-4.483 7.202.01-.202.016-.362.024-.55.663-2.465 1.21-4.577 1.399-5.53.336-1.696-2.18 1.21-4.447 5.568.754-2.29 1.397-4.288 1.631-5.148.468-1.72-2.563 2.445-4.78 7.45l-.267-.007c.092-1.74.162-3.285.152-3.94-.018-1.093-1.184.957-2.025 3.9a3057.82 4428.983 0 0 1-4.123-.097c.44-1.669.777-3.017.921-3.746.062-.311.027-.466-.084-.488-.403-.075-1.811 1.622-3.32 4.171l-1.579-.042c.58-1.775 1.082-3.341 1.28-4.067.07-.26.061-.385-.014-.394-.298-.033-1.643 1.812-3.072 4.416l-.792-.021c.368-1.41.68-2.64.804-3.274.27-1.363-1.306.254-3.112 3.206l-.562-.018c.387-1.198.714-2.235.859-2.766.304-1.118-.873.253-2.343 2.723-3.806-.112-7.618-.232-11.443-.362.457-1.646.816-3.004.953-3.668.05-.244.022-.368-.069-.384-.15-.027-.476.24-.904.733a9.116 13.204 0 0 0-.269.322c-.564.702-1.257 1.72-1.949 2.916l-1.11-.04c.58-1.696 1.094-3.222 1.28-3.881.058-.203.05-.302-.01-.309-.269-.029-1.574 1.751-2.867 4.133l-.468-.018c.388-1.41.718-2.645.84-3.236.15-.733-.404-.37-1.241.671-.093.116-.19.24-.29.372a18.4 26.65 0 0 0-1.41 2.118 25.671 37.182 0 0 1-.277-.01c.417-1.23.78-2.318.922-2.822.274-.968-.925.446-2.293 2.77l-1.704-.067c-.018-.25-.136-.235-.312-.012-121.45-4.675-250.834-17.308-358.931-8.595.191-.582.355-1.1.448-1.448.092-.342.04-.513-.124-.536-.403-.057-1.489.778-2.839 2.187a669.98 669.98 0 0 0-3.516.301c.444-1.034.814-1.916.999-2.419.429-1.167-1.135.147-3.165 2.615-.674.06-1.347.123-2.02.187a37.05 37.05 0 0 0 .637-2.005c.346-1.295-1.355-.143-3.552 2.289-.473.046-.947.09-1.419.139.361-.846.648-1.54.804-1.966.403-1.095-.949-.004-2.793 2.171l-2.046.215c.685-2.54 1.252-4.722 1.445-5.698.062-.312.027-.468-.084-.49-.518-.097-2.695 2.738-4.609 6.542l-1.124.13c.955-2.877 1.825-5.55 2.113-6.608.071-.261.062-.386-.013-.394z" id="path1035"/><rect style="opacity:1;vector-effect:none;fill:#82786a;fill-opacity:1;stroke:none;stroke-width:.264584px;stroke-linecap:butt;stroke-linejoin:miter;stroke-miterlimit:4;stroke-dasharray:none;stroke-dashoffset:0;stroke-opacity:1" width="508" height="55.306526" y="170.52814" ry="2.3781422e-07" id="rect1037" x="1.9444442e-06"/><path style="fill:#f9f9f9;fill-opacity:.75316455;stroke:none;stroke-width:.96799684;stroke-linejoin:round;stroke-miterlimit:4;stroke-dasharray:none;stroke-opacity:1" d="M460.37 50.636a23.52 9.622 0 0 0-23.124 7.91 15.502 5.205 0 0 0-1.464-.024 15.502 5.205 0 0 0-15.502 5.205 15.502 5.205 0 0 0 .124.604 10.424 1.577 0 0 0-4.133-.13 10.424 1.577 0 0 0-10.423 1.577 10.424 1.577 0 0 0 10.423 1.577 10.424 1.577 0 0 0 7.256-.445 15.502 5.205 0 0 0 12.255 2.023 15.502 5.205 0 0 0 9.845-1.19 23.52 9.622 0 0 0 14.744 2.136 23.52 9.622 0 0 0 16.506-2.772 9.889 5.205 0 0 0 3.004.248 9.889 5.205 0 0 0 6.331-1.212 8.553 2.84 0 0 0 6.231.897 8.553 2.84 0 0 0 8.553-2.84 8.553 2.84 0 0 0-8.553-2.839 8.553 2.84 0 0 0-2.759.156 9.889 5.205 0 0 0-7.084-4.367 23.52 9.622 0 0 0-22.23-6.514zm-60.829 11.356a6.414.946 0 0 0-6.415.947 6.414.946 0 0 0 6.415.946 6.414.946 0 0 0 6.414-.946 6.414.946 0 0 0-6.414-.947z" id="path1039"/><rect style="opacity:1;vector-effect:none;fill:#c9c5bd;fill-opacity:1;stroke:none;stroke-width:.257052px;stroke-linecap:butt;stroke-linejoin:miter;stroke-miterlimit:4;stroke-dasharray:none;stroke-dashoffset:0;stroke-opacity:1" width="508" height="52.202755" y="172.468" ry="2.2446827e-07" id="rect1041" x="1.9444442e-06"/><rect style="fill:#89837c;fill-opacity:1;stroke:none;stroke-width:1.5875;stroke-linejoin:round;stroke-miterlimit:4;stroke-dasharray:none;stroke-opacity:1" width="147.48407" height="73.742027" x="180.2576" y="164.38297" ry="2.3781418e-07" id="rect1043"/><rect style="fill:#d2cec8;fill-opacity:1;stroke:none;stroke-width:1.5343;stroke-linejoin:round;stroke-miterlimit:4;stroke-dasharray:none;stroke-opacity:1" width="143.64334" height="70.724312" x="182.17796" y="165.75465" ry="2.2808217e-07" id="rect1045"/><path style="fill:#48443b;fill-opacity:1;stroke:none;stroke-width:.264584px;stroke-linecap:butt;stroke-linejoin:miter;stroke-opacity:1" d="M274.74 109.845v-9.218l2.304-1.92 2.304 4.992v9.218z" id="path1047"/><path style="fill:#48443b;fill-opacity:1;stroke:none;stroke-width:.264584px;stroke-linecap:butt;stroke-linejoin:miter;stroke-opacity:1" d="M233.26 109.46v-9.218l-2.305-1.92-2.304 4.993v9.218z" id="path1049"/><rect style="opacity:1;vector-effect:none;fill:#43839d;fill-opacity:1;stroke:none;stroke-width:.15px;stroke-linecap:butt;stroke-linejoin:miter;stroke-miterlimit:4;stroke-dasharray:none;stroke-dashoffset:0;stroke-opacity:1" width="0.98521334" height="15.399389" x="253.50703" y="52.215408" id="rect1051"/><path style="fill:#82786a;fill-opacity:1;stroke:none;stroke-width:.264584px;stroke-linecap:butt;stroke-linejoin:miter;stroke-opacity:1" d="M223.274 115.222c0-36.871 18.436-49.161 30.726-49.161s30.725 12.29 30.725 49.16c-21.646-.113-39.356-.059-61.451 0z" id="path1053"/><path style="fill:#d2cec8;fill-opacity:1;stroke:none;stroke-width:.256436px;stroke-linecap:butt;stroke-linejoin:miter;stroke-opacity:1" d="M224.646 115.222c0-36.254 17.612-48.34 29.354-48.34 11.741 0 29.353 12.086 29.353 48.34-20.68-.111-37.599-.058-58.707 0z" id="path1055"/><path style="fill:#82786a;fill-opacity:1;stroke:none;stroke-width:.264584px;stroke-linecap:butt;stroke-linejoin:miter;stroke-opacity:1" d="m229.419 109.076-12.29 6.146v12.29h73.742v-12.29l-12.29-6.146z" id="path1057"/><path style="fill:#82786a;fill-opacity:1;stroke:none;stroke-width:.264584px;stroke-linecap:butt;stroke-linejoin:miter;stroke-opacity:1" d="m210.983 127.512-12.29 6.145v12.29h110.613v-12.29l-12.29-6.145z" id="path1059"/><path style="fill:#89837c;fill-opacity:1;stroke:none;stroke-width:.264584px;stroke-linecap:butt;stroke-linejoin:miter;stroke-opacity:1" d="M247.854 109.076h12.291v-9.218L254 93.714l-6.146 6.144z" id="path1061"/><path style="fill:#716a5c;fill-opacity:1;stroke:none;stroke-width:.264584px;stroke-linecap:butt;stroke-linejoin:miter;stroke-opacity:1" d="M248.623 109.076h10.753v-9.218L254 94.482l-5.377 5.376z" id="path1063"/><path style="fill:#bdb7ae;fill-opacity:1;stroke:none;stroke-width:.264584px;stroke-linecap:butt;stroke-linejoin:miter;stroke-opacity:1" d="m229.419 110.228-11.138 5.378v11.906h71.438v-11.906l-11.138-5.376z" id="path1065"/><path style="fill:#7f7669;fill-opacity:1;stroke:none;stroke-width:.264584px;stroke-linecap:butt;stroke-linejoin:miter;stroke-opacity:1" d="M281.653 127.512v-9.218l3.072-3.072 3.073 6.145v9.218z" id="path1067"/><path style="fill:#82786a;fill-opacity:1;stroke:none;stroke-width:.264584px;stroke-linecap:butt;stroke-linejoin:miter;stroke-opacity:1" d="M226.346 127.512v-9.218l-3.072-3.072-3.073 6.145v9.218z" id="path1069"/><path style="fill:#bdb7ae;fill-opacity:1;stroke:none;stroke-width:.264584px;stroke-linecap:butt;stroke-linejoin:miter;stroke-opacity:1" d="m210.983 128.664-11.138 5.378v11.905h108.31v-11.905l-11.139-5.377z" id="path1071"/><path style="fill:#716a5c;fill-opacity:1;stroke:none;stroke-width:.264584px;stroke-linecap:butt;stroke-linejoin:miter;stroke-opacity:1" d="M282.42 127.512v-9.218l2.305-1.92 2.305 4.993v9.218z" id="path1079"/><path style="fill:#716a5c;fill-opacity:1;stroke:none;stroke-width:.264584px;stroke-linecap:butt;stroke-linejoin:miter;stroke-opacity:1" d="M225.578 127.512v-9.218l-2.304-1.92-2.304 4.993v9.218z" id="path1077"/><path style="fill:#89837c;fill-opacity:1;stroke:none;stroke-width:.264584px;stroke-linecap:butt;stroke-linejoin:miter;stroke-opacity:1" d="M192.548 164.383v-18.436h18.435v-18.435h18.436v-18.436h49.162v18.436h18.435v18.435h18.436v18.436z" id="path1073"/><path style="fill:#89837c;fill-opacity:1;stroke:none;stroke-width:.264584px;stroke-linecap:butt;stroke-linejoin:miter;stroke-opacity:1" d="M235.564 238.125h36.871c0-30.726 0-49.161-18.435-55.307-18.436 6.146-18.436 24.581-18.436 55.307z" id="path1075"/><path style="fill:#d2cec8;fill-opacity:1;stroke:none;stroke-width:.264584px;stroke-linecap:butt;stroke-linejoin:miter;stroke-opacity:1" d="M194.084 164.383v-17.667h18.436V128.28h18.435v-18.435h46.089v18.435h18.436v18.436h18.435v17.667z" id="path1081"/><path style="opacity:1;vector-effect:none;fill:#89837c;fill-opacity:1;stroke:none;stroke-width:.264584px;stroke-linecap:butt;stroke-linejoin:miter;stroke-miterlimit:4;stroke-dasharray:none;stroke-dashoffset:0;stroke-opacity:1" d="M250.927 161.31h-12.29v-24.58l6.145-6.145 6.145 6.144z" id="path1083"/><path style="opacity:1;vector-effect:none;fill:#89837c;fill-opacity:1;stroke:none;stroke-width:.264584px;stroke-linecap:butt;stroke-linejoin:miter;stroke-miterlimit:4;stroke-dasharray:none;stroke-dashoffset:0;stroke-opacity:1" d="M269.363 161.31h-12.291v-24.58l6.145-6.145 6.146 6.144z" id="path1085"/><path style="fill:#716a5c;fill-opacity:1;stroke:none;stroke-width:.246795px;stroke-linecap:butt;stroke-linejoin:miter;stroke-opacity:1" d="M237.21 238.125h33.579c0-29.354 0-46.967-16.79-52.838-16.789 5.871-16.789 23.484-16.789 52.838z" id="path1087"/><path style="fill:#89837c;fill-opacity:1;stroke:none;stroke-width:.264584px;stroke-linecap:butt;stroke-linejoin:miter;stroke-opacity:1" d="m254 133.657-6.146-6.145v-9.218l6.146-6.145 6.145 6.145v9.218z" id="path1089"/><path style="opacity:1;vector-effect:none;fill:#716a5c;fill-opacity:1;stroke:none;stroke-width:.264584px;stroke-linecap:butt;stroke-linejoin:miter;stroke-miterlimit:4;stroke-dasharray:none;stroke-dashoffset:0;stroke-opacity:1" d="M250.159 160.542h-10.754V136.73l5.377-5.376 5.377 5.376z" id="path1091"/><path style="opacity:1;vector-effect:none;fill:#716a5c;fill-opacity:1;stroke:none;stroke-width:.264584px;stroke-linecap:butt;stroke-linejoin:miter;stroke-miterlimit:4;stroke-dasharray:none;stroke-dashoffset:0;stroke-opacity:1" d="M268.594 160.542h-10.753V136.73l5.376-5.376 5.377 5.376z" id="path1093"/><path style="fill:#716a5c;fill-opacity:1;stroke:none;stroke-width:.264584px;stroke-linecap:butt;stroke-linejoin:miter;stroke-opacity:1" d="m254 132.89-5.377-5.378v-9.218l5.377-5.377 5.376 5.377v9.218z" id="path1095"/><circle style="opacity:1;vector-effect:none;fill:#35677b;fill-opacity:1;stroke:none;stroke-width:.264584px;stroke-linecap:butt;stroke-linejoin:miter;stroke-miterlimit:4;stroke-dasharray:none;stroke-dashoffset:0;stroke-opacity:1" cx="253.99963" cy="59.9151" r="3.0725849" id="circle1097"/><path style="opacity:1;vector-effect:none;fill:#35677b;fill-opacity:1;stroke:none;stroke-width:.264584px;stroke-linecap:butt;stroke-linejoin:miter;stroke-miterlimit:4;stroke-dasharray:none;stroke-dashoffset:0;stroke-opacity:1" d="M257.072 51.85c0 1.697-1.375 1.92-3.072 1.92s-3.073-.223-3.073-1.92c0-1.698 1.376-4.225 3.073-4.225s3.072 2.527 3.072 4.224z" id="path1099"/><ellipse style="opacity:1;vector-effect:none;fill:#43839d;fill-opacity:1;stroke:none;stroke-width:.210253px;stroke-linecap:butt;stroke-linejoin:miter;stroke-miterlimit:4;stroke-dasharray:none;stroke-dashoffset:0;stroke-opacity:1" cx="253.99963" cy="59.721115" rx="2.3936331" ry="2.4906261" id="ellipse1101"/><path style="opacity:1;vector-effect:none;fill:#43839d;fill-opacity:1;stroke:none;stroke-width:.206118px;stroke-linecap:butt;stroke-linejoin:miter;stroke-miterlimit:4;stroke-dasharray:none;stroke-dashoffset:0;stroke-opacity:1" d="M256.393 51.401c0 1.321-1.072 1.496-2.393 1.496-1.322 0-2.394-.175-2.394-1.496 0-1.322 1.072-3.291 2.394-3.291 1.321 0 2.393 1.969 2.393 3.29z" id="path1103"/><path style="opacity:1;vector-effect:none;fill:#82786a;fill-opacity:1;stroke:none;stroke-width:.244538px;stroke-linecap:butt;stroke-linejoin:miter;stroke-miterlimit:4;stroke-dasharray:none;stroke-dashoffset:0;stroke-opacity:1" d="M115.733 183.982s-14.199 6.358-14.199 14.2c0 2.59.697 5.016 1.91 7.107v20.546h24.58v-20.546a14.128 14.128 0 0 0 1.908-7.108c0-7.841-14.199-14.199-14.199-14.199z" id="path1105"/><path style="opacity:1;vector-effect:none;fill:#716a5c;fill-opacity:1;stroke:none;stroke-width:.226469px;stroke-linecap:butt;stroke-linejoin:miter;stroke-miterlimit:4;stroke-dasharray:none;stroke-dashoffset:0;stroke-opacity:1" d="M115.733 185.534s-12.647 6.122-12.647 13.673c0 2.494.62 4.83 1.7 6.844v19.784h21.895V206.05a14.459 14.459 0 0 0 1.7-6.845c0-7.55-12.648-13.672-12.648-13.672z" id="path1107"/><path style="opacity:1;vector-effect:none;fill:#82786a;fill-opacity:1;stroke:none;stroke-width:.244538px;stroke-linecap:butt;stroke-linejoin:miter;stroke-miterlimit:4;stroke-dasharray:none;stroke-dashoffset:0;stroke-opacity:1" d="M73.486 183.982s-14.2 6.358-14.2 14.2c0 2.59.697 5.016 1.91 7.107v20.546h24.58v-20.546a14.128 14.128 0 0 0 1.909-7.108c0-7.841-14.2-14.199-14.2-14.199z" id="path1109"/><path style="opacity:1;vector-effect:none;fill:#716a5c;fill-opacity:1;stroke:none;stroke-width:.226469px;stroke-linecap:butt;stroke-linejoin:miter;stroke-miterlimit:4;stroke-dasharray:none;stroke-dashoffset:0;stroke-opacity:1" d="M73.486 185.534s-12.648 6.122-12.648 13.673c0 2.494.62 4.83 1.7 6.844v19.784h21.894V206.05a14.459 14.459 0 0 0 1.7-6.845c0-7.55-12.646-13.672-12.646-13.672z" id="path1111"/><path style="opacity:1;vector-effect:none;fill:#82786a;fill-opacity:1;stroke:none;stroke-width:.244538px;stroke-linecap:butt;stroke-linejoin:miter;stroke-miterlimit:4;stroke-dasharray:none;stroke-dashoffset:0;stroke-opacity:1" d="M157.981 183.982s-14.199 6.358-14.199 14.2c0 2.59.697 5.016 1.909 7.107v20.546h24.581v-20.546a14.128 14.128 0 0 0 1.909-7.108c0-7.841-14.2-14.199-14.2-14.199z" id="path1113"/><path style="opacity:1;vector-effect:none;fill:#716a5c;fill-opacity:1;stroke:none;stroke-width:.226469px;stroke-linecap:butt;stroke-linejoin:miter;stroke-miterlimit:4;stroke-dasharray:none;stroke-dashoffset:0;stroke-opacity:1" d="M157.981 185.534s-12.647 6.122-12.647 13.673c0 2.494.621 4.83 1.7 6.844v19.784h21.894V206.05a14.459 14.459 0 0 0 1.7-6.845c0-7.55-12.647-13.672-12.647-13.672z" id="path1115"/><path style="opacity:1;vector-effect:none;fill:#82786a;fill-opacity:1;stroke:none;stroke-width:.264581px;stroke-linecap:butt;stroke-linejoin:miter;stroke-miterlimit:4;stroke-dasharray:none;stroke-dashoffset:0;stroke-opacity:1" d="M91.152 185.89v12.29h6.145v-12.29c0-6.146-6.145-6.146-6.145 0z" id="path1117"/><path style="opacity:1;vector-effect:none;fill:#716a5c;fill-opacity:1;stroke:none;stroke-width:.210991px;stroke-linecap:butt;stroke-linejoin:miter;stroke-miterlimit:4;stroke-dasharray:none;stroke-dashoffset:0;stroke-opacity:1" d="M91.928 186.561v10.456h4.594v-10.456c0-5.228-4.594-5.228-4.594 0z" id="path1119"/><path style="opacity:1;vector-effect:none;fill:#82786a;fill-opacity:1;stroke:none;stroke-width:.264584px;stroke-linecap:butt;stroke-linejoin:miter;stroke-miterlimit:4;stroke-dasharray:none;stroke-dashoffset:0;stroke-opacity:1" d="M133.4 185.891v12.29h6.146v-12.29c0-6.145-6.145-6.145-6.145 0z" id="path1121"/><path style="opacity:1;vector-effect:none;fill:#716a5c;fill-opacity:1;stroke:none;stroke-width:.210991px;stroke-linecap:butt;stroke-linejoin:miter;stroke-miterlimit:4;stroke-dasharray:none;stroke-dashoffset:0;stroke-opacity:1" d="M134.176 186.561v10.456h4.594v-10.456c0-5.228-4.594-5.228-4.594 0z" id="path1123"/><path style="vector-effect:none;fill:#82786a;fill-opacity:1;stroke:none;stroke-width:.244538px;stroke-linecap:butt;stroke-linejoin:miter;stroke-miterlimit:4;stroke-dasharray:none;stroke-dashoffset:0;stroke-opacity:1" d="M31.067 183.982s-14.2 6.358-14.2 14.2c0 2.59.697 5.016 1.91 7.107v20.546h24.58v-20.546a14.128 14.128 0 0 0 1.909-7.108c0-7.841-14.2-14.199-14.2-14.199z" id="path1105-7"/><path style="vector-effect:none;fill:#716a5c;fill-opacity:1;stroke:none;stroke-width:.226469px;stroke-linecap:butt;stroke-linejoin:miter;stroke-miterlimit:4;stroke-dasharray:none;stroke-dashoffset:0;stroke-opacity:1" d="M31.067 185.534s-12.648 6.122-12.648 13.673c0 2.494.621 4.83 1.7 6.844v19.784h21.895V206.05a14.459 14.459 0 0 0 1.7-6.845c0-7.55-12.647-13.672-12.647-13.672z" id="path1107-5"/><path style="vector-effect:none;fill:#82786a;fill-opacity:1;stroke:none;stroke-width:.264581px;stroke-linecap:butt;stroke-linejoin:miter;stroke-miterlimit:4;stroke-dasharray:none;stroke-dashoffset:0;stroke-opacity:1" d="M6.486 185.89v12.29h6.145v-12.29c0-6.146-6.145-6.146-6.145 0z" id="path1117-6"/><path style="vector-effect:none;fill:#716a5c;fill-opacity:1;stroke:none;stroke-width:.210991px;stroke-linecap:butt;stroke-linejoin:miter;stroke-miterlimit:4;stroke-dasharray:none;stroke-dashoffset:0;stroke-opacity:1" d="M7.262 186.561v10.456h4.593v-10.456c0-5.228-4.593-5.228-4.593 0z" id="path1119-2"/><path style="vector-effect:none;fill:#82786a;fill-opacity:1;stroke:none;stroke-width:.264584px;stroke-linecap:butt;stroke-linejoin:miter;stroke-miterlimit:4;stroke-dasharray:none;stroke-dashoffset:0;stroke-opacity:1" d="M48.734 185.891v12.29h6.145v-12.29c0-6.145-6.145-6.145-6.145 0z" id="path1121-9"/><path style="vector-effect:none;fill:#716a5c;fill-opacity:1;stroke:none;stroke-width:.210991px;stroke-linecap:butt;stroke-linejoin:miter;stroke-miterlimit:4;stroke-dasharray:none;stroke-dashoffset:0;stroke-opacity:1" d="M49.51 186.561v10.456h4.594v-10.456c0-5.228-4.595-5.228-4.595 0z" id="path1123-1"/><path style="opacity:1;vector-effect:none;fill:#82786a;fill-opacity:1;stroke:none;stroke-width:.244538px;stroke-linecap:butt;stroke-linejoin:miter;stroke-miterlimit:4;stroke-dasharray:none;stroke-dashoffset:0;stroke-opacity:1" d="M392.266 183.982s-14.199 6.358-14.199 14.2c0 2.59.697 5.016 1.909 7.107v20.546h24.58v-20.546a14.128 14.128 0 0 0 1.91-7.108c0-7.841-14.2-14.199-14.2-14.199z" id="path1125"/><path style="opacity:1;vector-effect:none;fill:#716a5c;fill-opacity:1;stroke:none;stroke-width:.226469px;stroke-linecap:butt;stroke-linejoin:miter;stroke-miterlimit:4;stroke-dasharray:none;stroke-dashoffset:0;stroke-opacity:1" d="M392.266 185.534s-12.647 6.122-12.647 13.673c0 2.494.621 4.83 1.7 6.844v19.784h21.894V206.05a14.459 14.459 0 0 0 1.7-6.845c0-7.55-12.647-13.672-12.647-13.672z" id="path1127"/><path style="opacity:1;vector-effect:none;fill:#82786a;fill-opacity:1;stroke:none;stroke-width:.244538px;stroke-linecap:butt;stroke-linejoin:miter;stroke-miterlimit:4;stroke-dasharray:none;stroke-dashoffset:0;stroke-opacity:1" d="M350.018 183.982s-14.199 6.358-14.199 14.2c0 2.59.697 5.016 1.91 7.107v20.546h24.58v-20.546a14.128 14.128 0 0 0 1.908-7.108c0-7.841-14.199-14.199-14.199-14.199z" id="path1129"/><path style="opacity:1;vector-effect:none;fill:#716a5c;fill-opacity:1;stroke:none;stroke-width:.226469px;stroke-linecap:butt;stroke-linejoin:miter;stroke-miterlimit:4;stroke-dasharray:none;stroke-dashoffset:0;stroke-opacity:1" d="M350.018 185.534s-12.647 6.122-12.647 13.673c0 2.494.62 4.83 1.7 6.844v19.784h21.894V206.05a14.459 14.459 0 0 0 1.7-6.845c0-7.55-12.647-13.672-12.647-13.672z" id="path1131"/><path style="opacity:1;vector-effect:none;fill:#82786a;fill-opacity:1;stroke:none;stroke-width:.244538px;stroke-linecap:butt;stroke-linejoin:miter;stroke-miterlimit:4;stroke-dasharray:none;stroke-dashoffset:0;stroke-opacity:1" d="M434.514 183.982s-14.2 6.358-14.2 14.2c0 2.59.698 5.016 1.91 7.107v20.546h24.58v-20.546a14.128 14.128 0 0 0 1.91-7.108c0-7.841-14.2-14.199-14.2-14.199z" id="path1133"/><path style="opacity:1;vector-effect:none;fill:#716a5c;fill-opacity:1;stroke:none;stroke-width:.226469px;stroke-linecap:butt;stroke-linejoin:miter;stroke-miterlimit:4;stroke-dasharray:none;stroke-dashoffset:0;stroke-opacity:1" d="M434.514 185.534s-12.647 6.122-12.647 13.673c0 2.494.62 4.83 1.7 6.844v19.784h21.894V206.05a14.459 14.459 0 0 0 1.7-6.845c0-7.55-12.647-13.672-12.647-13.672z" id="path1135"/><path style="opacity:1;vector-effect:none;fill:#82786a;fill-opacity:1;stroke:none;stroke-width:.264584px;stroke-linecap:butt;stroke-linejoin:miter;stroke-miterlimit:4;stroke-dasharray:none;stroke-dashoffset:0;stroke-opacity:1" d="M367.686 185.891v12.29h6.144v-12.29c0-6.145-6.144-6.145-6.144 0z" id="path1137"/><path style="opacity:1;vector-effect:none;fill:#716a5c;fill-opacity:1;stroke:none;stroke-width:.210991px;stroke-linecap:butt;stroke-linejoin:miter;stroke-miterlimit:4;stroke-dasharray:none;stroke-dashoffset:0;stroke-opacity:1" d="M368.462 186.561v10.456h4.593v-10.456c0-5.228-4.593-5.228-4.593 0z" id="path1139"/><path style="opacity:1;vector-effect:none;fill:#82786a;fill-opacity:1;stroke:none;stroke-width:.264584px;stroke-linecap:butt;stroke-linejoin:miter;stroke-miterlimit:4;stroke-dasharray:none;stroke-dashoffset:0;stroke-opacity:1" d="M409.934 185.891v12.29h6.145v-12.29c0-6.145-6.145-6.145-6.145 0z" id="path1141"/><path style="opacity:1;vector-effect:none;fill:#716a5c;fill-opacity:1;stroke:none;stroke-width:.210991px;stroke-linecap:butt;stroke-linejoin:miter;stroke-miterlimit:4;stroke-dasharray:none;stroke-dashoffset:0;stroke-opacity:1" d="M410.71 186.561v10.456h4.592v-10.456c0-5.228-4.593-5.228-4.593 0z" id="path1143"/><path style="vector-effect:none;fill:#82786a;fill-opacity:1;stroke:none;stroke-width:.244538px;stroke-linecap:butt;stroke-linejoin:miter;stroke-miterlimit:4;stroke-dasharray:none;stroke-dashoffset:0;stroke-opacity:1" d="M476.933 183.982s-14.2 6.358-14.2 14.2c0 2.59.697 5.016 1.91 7.107v20.546h24.58v-20.546a14.128 14.128 0 0 0 1.91-7.108c0-7.841-14.2-14.199-14.2-14.199z" id="path1125-2"/><path style="vector-effect:none;fill:#716a5c;fill-opacity:1;stroke:none;stroke-width:.226469px;stroke-linecap:butt;stroke-linejoin:miter;stroke-miterlimit:4;stroke-dasharray:none;stroke-dashoffset:0;stroke-opacity:1" d="M476.933 185.534s-12.648 6.122-12.648 13.673c0 2.494.622 4.83 1.701 6.844v19.784h21.894V206.05a14.459 14.459 0 0 0 1.7-6.845c0-7.55-12.647-13.672-12.647-13.672z" id="path1127-7"/><path style="vector-effect:none;fill:#82786a;fill-opacity:1;stroke:none;stroke-width:.264584px;stroke-linecap:butt;stroke-linejoin:miter;stroke-miterlimit:4;stroke-dasharray:none;stroke-dashoffset:0;stroke-opacity:1" d="M452.352 185.891v12.29h6.145v-12.29c0-6.145-6.145-6.145-6.145 0z" id="path1137-3"/><path style="vector-effect:none;fill:#716a5c;fill-opacity:1;stroke:none;stroke-width:.210991px;stroke-linecap:butt;stroke-linejoin:miter;stroke-miterlimit:4;stroke-dasharray:none;stroke-dashoffset:0;stroke-opacity:1" d="M453.128 186.561v10.456h4.593v-10.456c0-5.228-4.593-5.228-4.593 0z" id="path1139-6"/><path style="vector-effect:none;fill:#7f7669;fill-opacity:1;stroke:none;stroke-width:.264584px;stroke-linecap:butt;stroke-linejoin:miter;stroke-miterlimit:4;stroke-dasharray:none;stroke-dashoffset:0;stroke-opacity:1" d="M494.6 185.891v12.29h6.146v-12.29c0-6.145-6.146-6.145-6.146 0z" id="path1141-0"/><path style="vector-effect:none;fill:#716a5c;fill-opacity:1;stroke:none;stroke-width:.210991px;stroke-linecap:butt;stroke-linejoin:miter;stroke-miterlimit:4;stroke-dasharray:none;stroke-dashoffset:0;stroke-opacity:1" d="M495.376 186.561v10.456h4.593v-10.456c0-5.228-4.593-5.228-4.593 0z" id="path1143-6"/></g></svg>