<!--Created with Sodipodi ("http://www.sodipodi.com/")--><svg xmlns:dc="http://purl.org/dc/elements/1.1/" xmlns:cc="http://creativecommons.org/ns#" xmlns:rdf="http://www.w3.org/1999/02/22-rdf-syntax-ns#" xmlns="http://www.w3.org/2000/svg" xmlns:xlink="http://www.w3.org/1999/xlink" xmlns:sodipodi="http://sodipodi.sourceforge.net/DTD/sodipodi-0.dtd" xmlns:inkscape="http://www.inkscape.org/namespaces/inkscape" sodipodi:version="0.34" width="300" height="87.124428" xml:space="preserve" sodipodi:docname="bleriot.svg" inkscape:version="0.91 r13725"><metadata><rdf:RDF><cc:Work><dc:format>image/svg+xml</dc:format><dc:type rdf:resource="http://purl.org/dc/dcmitype/StillImage"/><dc:title/></cc:Work></rdf:RDF></metadata><defs><linearGradient inkscape:collect="always" xlink:href="#b" id="G" x1="124.32903" y1="628.59515" x2="133.7877" y2="671.46051" gradientTransform="scale(1.87513 .5333)" gradientUnits="userSpaceOnUse"/><linearGradient id="d"><stop style="stop-color:#ffcd4f;stop-opacity:.702" offset="0"/><stop style="stop-color:#ffffca;stop-opacity:.698" offset="1"/></linearGradient><linearGradient id="a"><stop style="stop-color:#47120d;stop-opacity:1" offset="0"/><stop style="stop-color:#c59537;stop-opacity:1" offset="1"/></linearGradient><linearGradient id="c"><stop style="stop-color:#000;stop-opacity:1" offset="0"/><stop style="stop-color:#fff;stop-opacity:1" offset="1"/></linearGradient><linearGradient xlink:href="#a" id="q" x1="59.012981" y1="863.48108" x2="160.05473" y2="1428.0518" gradientTransform="scale(3.1864 .31383)" gradientUnits="userSpaceOnUse"/><linearGradient xlink:href="#b" id="E" x1="101.10838" y1="609.55048" x2="176.87367" y2="609.55048" gradientTransform="scale(1.9623 .5096)" gradientUnits="userSpaceOnUse"/><linearGradient xlink:href="#c" id="Z" x1="196.99127" y1="390.45602" x2="239.23373" y2="364.93414" gradientTransform="scale(.94383 1.05951)" gradientUnits="userSpaceOnUse"/><linearGradient xlink:href="#b" id="I" gradientTransform="scale(1.03283 .96821)" x1="554.79755" y1="292.38562" x2="621.26453" y2="292.38562" gradientUnits="userSpaceOnUse"/><linearGradient xlink:href="#c" id="p" x1="142.16502" y1="404.92328" x2="183.66057" y2="322.06787" gradientTransform="scale(1.3291 .7524)" gradientUnits="userSpaceOnUse"/><linearGradient xlink:href="#d" id="N" x1="149.09357" y1="478.10779" x2="25.550341" y2="476.57516" gradientTransform="scale(1.86686 .53566)" gradientUnits="userSpaceOnUse"/><linearGradient xlink:href="#c" id="P" x1="189.79941" y1="432.90607" x2="227.17516" y2="484.39368" gradientTransform="scale(1.22386 .81709)" gradientUnits="userSpaceOnUse"/><linearGradient xlink:href="#d" id="T" gradientTransform="scale(2.04433 .48916)" x1="240.37968" y1="653.04889" x2="275.45734" y2="653.04889" gradientUnits="userSpaceOnUse"/><linearGradient xlink:href="#d" id="Q" x1="316.31326" y1="569.40753" x2="314.89484" y2="620.69995" gradientTransform="scale(1.67308 .5977)" gradientUnits="userSpaceOnUse"/><linearGradient xlink:href="#c" id="V" x1="283.75824" y1="478.31442" x2="366.07388" y2="517.16431" gradientTransform="scale(1.41685 .70579)" gradientUnits="userSpaceOnUse"/><linearGradient xlink:href="#c" id="aa" x1="251.60213" y1="179.09863" x2="336.73209" y2="219.27676" gradientTransform="scale(.576 1.73612)" gradientUnits="userSpaceOnUse"/><linearGradient xlink:href="#c" id="i" x1="297.2728" y1="473.39481" x2="352.67743" y2="473.39481" gradientTransform="scale(1.40747 .7105)" gradientUnits="userSpaceOnUse"/><linearGradient xlink:href="#c" id="Y" x1="39.105854" y1="1786.1106" x2="41.556194" y2="1832.4762" gradientTransform="scale(4.3779 .22842)" gradientUnits="userSpaceOnUse"/><linearGradient xlink:href="#c" id="x" x1="76.317383" y1="112.23749" x2="92.418877" y2="109.79779" spreadMethod="reflect" gradientTransform="scale(1.12815 .8864)" gradientUnits="userSpaceOnUse"/><linearGradient xlink:href="#c" id="t" x1="129.32906" y1="20.708206" x2="170.72743" y2="20.708206" gradientTransform="scale(.81101 1.23303)" gradientUnits="userSpaceOnUse"/><linearGradient xlink:href="#c" id="w" x1="76.965958" y1="98.869827" x2="89.61834" y2="111.02449" spreadMethod="reflect" gradientTransform="scale(1.12815 .8864)" gradientUnits="userSpaceOnUse"/><linearGradient xlink:href="#c" id="v" x1="74.323883" y1="95.19503" x2="135.9212" y2="124.77838" gradientTransform="scale(1.14311 .8748)" gradientUnits="userSpaceOnUse"/><linearGradient xlink:href="#c" id="u" x1="127.14356" y1="56.627773" x2="52.729771" y2="105.37617" gradientTransform="scale(.87072 1.14848)" gradientUnits="userSpaceOnUse"/><linearGradient xlink:href="#a" id="f" x1="1218.0861" y1="42.507118" x2="1229.129" y2="63.478054" spreadMethod="reflect" gradientTransform="scale(.49092 2.03699)" gradientUnits="userSpaceOnUse"/><linearGradient xlink:href="#c" id="z" x1="154.66219" y1="33.685169" x2="161.51064" y2="46.690662" gradientTransform="scale(.67827 1.47435)" gradientUnits="userSpaceOnUse"/><linearGradient xlink:href="#a" id="e" x1="1216.192" y1="55.945866" x2="1171.8134" y2="67.111359" gradientTransform="scale(.47402 2.10961)" gradientUnits="userSpaceOnUse"/><linearGradient xlink:href="#a" id="g" x1="411.71927" y1="140.00639" x2="430.42026" y2="148.83257" gradientTransform="scale(.90602 1.10373)" gradientUnits="userSpaceOnUse"/><linearGradient inkscape:collect="always" xlink:href="#d" id="U" gradientTransform="scale(2.04433 .48916)" x1="240.37968" y1="653.04889" x2="275.45734" y2="653.04889" gradientUnits="userSpaceOnUse"/><linearGradient id="b"><stop style="stop-color:#ffcd4f;stop-opacity:.8627" offset="0"/><stop style="stop-color:#ffffca;stop-opacity:.8627" offset="1"/></linearGradient><linearGradient inkscape:collect="always" xlink:href="#d" id="O" x1="148.24266" y1="479.57343" x2="25.461124" y2="478.05026" gradientTransform="scale(1.87305 .53389)" gradientUnits="userSpaceOnUse"/><linearGradient inkscape:collect="always" xlink:href="#d" id="o" x1="148.9612" y1="689.61389" x2="92.995911" y2="688.91962" gradientTransform="scale(2.32335 .43041)" gradientUnits="userSpaceOnUse"/><linearGradient inkscape:collect="always" xlink:href="#a" id="F" x1="52.761883" y1="867.91315" x2="156.91216" y2="1449.8528" gradientTransform="scale(3.21471 .31107)" gradientUnits="userSpaceOnUse"/><linearGradient inkscape:collect="always" xlink:href="#b" id="J" gradientTransform="scale(1.03283 .96821)" x1="554.79755" y1="292.38562" x2="621.26453" y2="292.38562" gradientUnits="userSpaceOnUse"/><linearGradient inkscape:collect="always" xlink:href="#c" id="K" x1="502.28223" y1="353.17783" x2="534.52844" y2="333.69547" gradientTransform="scale(.93147 1.07357)" gradientUnits="userSpaceOnUse"/><linearGradient inkscape:collect="always" xlink:href="#c" id="j" x1="248.42072" y1="215.1767" x2="347.81042" y2="262.08487" gradientTransform="scale(.69179 1.44552)" gradientUnits="userSpaceOnUse"/><linearGradient inkscape:collect="always" xlink:href="#c" id="ab" x1="177.57941" y1="260.65771" x2="186.97003" y2="265.49753" gradientTransform="scale(.74012 1.35112)" gradientUnits="userSpaceOnUse"/><linearGradient inkscape:collect="always" xlink:href="#c" id="X" x1="832.42688" y1="57.214546" x2="869.03357" y2="67.405197" gradientTransform="scale(.18098 5.52534)" gradientUnits="userSpaceOnUse"/><linearGradient inkscape:collect="always" xlink:href="#c" id="C" x1="49.706417" y1="164.99556" x2="55.470364" y2="180.34789" gradientTransform="scale(1.61722 .61834)" gradientUnits="userSpaceOnUse"/><linearGradient inkscape:collect="always" xlink:href="#c" id="D" x1="50.532616" y1="156.83363" x2="55.470364" y2="167.09566" gradientTransform="scale(1.61722 .61834)" gradientUnits="userSpaceOnUse"/><linearGradient inkscape:collect="always" xlink:href="#c" id="W" x1="38.211067" y1="1720.7537" x2="42.989223" y2="1747.9143" gradientTransform="scale(4.3779 .22842)" gradientUnits="userSpaceOnUse"/><linearGradient inkscape:collect="always" xlink:href="#c" id="h" x1="249.24403" y1="373.77661" x2="288.02713" y2="350.34482" gradientTransform="scale(.91004 1.09886)" gradientUnits="userSpaceOnUse"/><linearGradient inkscape:collect="always" xlink:href="#c" id="k" x1="957.34833" y1="57.266933" x2="978.64935" y2="67.32019" gradientTransform="scale(.18098 5.52534)" gradientUnits="userSpaceOnUse"/><linearGradient inkscape:collect="always" xlink:href="#d" id="l" x1="148.9612" y1="689.61389" x2="92.995911" y2="688.91962" gradientTransform="scale(2.32335 .43041)" gradientUnits="userSpaceOnUse"/><linearGradient inkscape:collect="always" xlink:href="#d" id="m" x1="148.9612" y1="689.61389" x2="92.995911" y2="688.91962" gradientTransform="scale(2.32335 .43041)" gradientUnits="userSpaceOnUse"/><linearGradient inkscape:collect="always" xlink:href="#d" id="n" x1="148.9612" y1="689.61389" x2="92.995911" y2="688.91962" gradientTransform="scale(2.32335 .43041)" gradientUnits="userSpaceOnUse"/><linearGradient inkscape:collect="always" xlink:href="#c" id="r" x1="444.29568" y1="14.640389" x2="446.72574" y2="19.255121" gradientTransform="scale(.22568 4.43096)" gradientUnits="userSpaceOnUse"/><linearGradient inkscape:collect="always" xlink:href="#c" id="s" x1="111.24061" y1="54.82217" x2="162.74413" y2="54.82217" gradientTransform="scale(.89308 1.11972)" gradientUnits="userSpaceOnUse"/><linearGradient inkscape:collect="always" xlink:href="#c" id="y" x1="64.865593" y1="58.412823" x2="67.737846" y2="63.867348" gradientTransform="scale(1.61722 .61834)" gradientUnits="userSpaceOnUse"/><linearGradient inkscape:collect="always" xlink:href="#c" id="A" x1="401.767" y1="15.936207" x2="404.03668" y2="20.24646" gradientTransform="scale(.24077 4.15332)" gradientUnits="userSpaceOnUse"/><linearGradient inkscape:collect="always" xlink:href="#c" id="B" x1="64.865593" y1="58.412823" x2="67.737846" y2="63.867348" gradientTransform="scale(1.61722 .61834)" gradientUnits="userSpaceOnUse"/><linearGradient inkscape:collect="always" xlink:href="#b" id="H" gradientTransform="scale(1.03283 .96821)" x1="554.79755" y1="292.38562" x2="621.26453" y2="292.38562" gradientUnits="userSpaceOnUse"/><linearGradient inkscape:collect="always" xlink:href="#d" id="L" x1="148.20839" y1="478.75812" x2="25.501312" y2="477.23587" gradientTransform="scale(1.86981 .53481)" gradientUnits="userSpaceOnUse"/><linearGradient inkscape:collect="always" xlink:href="#d" id="M" x1="148.47105" y1="480.00787" x2="25.443651" y2="478.48166" gradientTransform="scale(1.8747 .53342)" gradientUnits="userSpaceOnUse"/><linearGradient inkscape:collect="always" xlink:href="#d" id="R" gradientTransform="scale(2.04433 .48916)" x1="240.37968" y1="653.04889" x2="275.45734" y2="653.04889" gradientUnits="userSpaceOnUse"/><linearGradient inkscape:collect="always" xlink:href="#d" id="S" gradientTransform="scale(2.04433 .48916)" x1="240.37968" y1="653.04889" x2="275.45734" y2="653.04889" gradientUnits="userSpaceOnUse"/></defs><sodipodi:namedview showgrid="false" inkscape:zoom="2.5371827" inkscape:cx="232.17947" inkscape:cy="60.353491" inkscape:window-width="3200" inkscape:window-height="1679" inkscape:window-x="0" inkscape:window-y="0" inkscape:window-maximized="1" inkscape:current-layer="g4302" fit-margin-top="0" fit-margin-left="0" fit-margin-right="0" fit-margin-bottom="0" units="px"/><g transform="translate(-22.383 -128.23) scale(.50242)"><path style="font-size:12px;fill:url(#e);fill-rule:evenodd" d="M559.737 117.96c-.032 2.291 1.078 4.607 2.797 5.65 0 10.926-.053 50.257-.053 61.183.013 7.468 14.023 7.012 13.839 2.795 0-10.925-2.984-51.648-2.984-62.574 1.445-.965 2.927-3.327 2.928-5.815-.037-2.37-16.536-3.338-16.527-1.239z" sodipodi:nodetypes="cccccss" transform="matrix(.665 .03655 -.24237 .88252 -186.628 205.564)" inkscape:connector-curvature="0"/><path style="font-size:12px;fill:url(#f);fill-rule:evenodd" d="M611.256 119.762c.055-2.291-1.034-4.617-2.742-5.677.105-10.925 3.343-47.168 3.448-58.093.06-8.4-14.12-6.985-14.051-1.99-.106 10.925.026 48-.079 58.925-1.454.951-2.959 3.299-2.984 5.787.014 2.37 16.397 3.147 16.408 1.048z" sodipodi:nodetypes="cccccss" transform="matrix(.665 .03655 -.24237 .88252 -209.827 204.01)" inkscape:connector-curvature="0"/><path style="font-size:12px;fill:url(#g);fill-rule:evenodd" d="M385.676 159.52c.806 1.8.129 4.843-1.218 5.746l-4.168 2.793c2.042-1.25 2.445-4.003 1.692-7.132-.947-3.567-4.587-5.528-7.332-5.762.573-.113.926-.177 1.857.113 4.781 1.465 3.71-.174 3.246-1.055.703-.1 1.604.22 2.052.44 1.513.706 2.74 1.998 3.871 4.857z" sodipodi:nodetypes="cscscscss" transform="matrix(-.8349 0 0 .92916 477.842 181.249)" inkscape:connector-curvature="0"/><ellipse style="fill:gray;fill-opacity:1;fill-rule:evenodd;stroke:none;stroke-width:1pt;stroke-linecap:butt;stroke-linejoin:miter;stroke-opacity:1" transform="translate(4.313)" cx="184.3757" cy="331.89532" rx="3.6659546" ry="10.997849"/><path style="font-size:12px;fill:url(#h);fill-rule:evenodd;stroke-width:1" d="M238.873 403.017c.49 11.974-7.14 21.796-17.045 21.938-9.905.142-18.332-9.45-18.824-21.424-.49-11.974 7.14-21.796 17.045-21.938 9.905-.142 18.332 9.45 18.824 21.424zm-3.89.056c.396 9.631-5.766 17.532-13.76 17.646-7.997.115-14.798-7.6-15.193-17.231-.395-9.632 5.766-17.532 13.761-17.647 7.995-.114 14.797 7.6 15.193 17.232z" inkscape:connector-curvature="0"/><path style="fill:none;fill-opacity:1;fill-rule:evenodd;stroke:#000;stroke-width:.5;stroke-linecap:round;stroke-linejoin:round;stroke-dasharray:none;stroke-opacity:1" d="m538.248 309.684 17.251 17.252" inkscape:connector-curvature="0"/><path style="font-size:12px;fill:url(#i);fill-rule:evenodd" d="m418.402 341.146 23.669 21.965 19.048 12.416c1.037.675 2.538-.673 3.344-1.612l31.92-37.24-1.717-.33-31.728 35.906-10.033-33.062-2.3-.037 10.575 34.08-18.117-11.98-22.387-20.368-2.274.262z" sodipodi:nodetypes="ccssccccccccc" inkscape:connector-curvature="0"/><path style="font-size:12px;fill:url(#j);fill-opacity:1;fill-rule:evenodd" d="m195.908 347.397 1.832 41.963 23.077 12.458-24.909-54.421zm-4.869-35.6 3.77 79.53 26.557 13.77c1.469.761 3.789-2.212 3.114-3.606l-28.572-59.012-1.358-32.824-15.224-.872-.878 3.19 12.591-.177z" sodipodi:nodetypes="ccccccssccccc" inkscape:connector-curvature="0"/><rect style="font-size:12px;fill:url(#k);fill-rule:evenodd" width="2.5877011" height="79.000961" x="173.63467" y="314.56793" transform="rotate(-1.286) skewX(.04)"/><path style="font-size:12px;fill:url(#l);fill-rule:evenodd;stroke-width:1" d="M214.287 309.682c65.195-10.461 119.76-13.076 124.264-13.163 24.936 1.17-13.417 16.838-48.156 24.5-46.939-4.924-55.517-11.853-76.108-11.337z" sodipodi:nodetypes="cscc" inkscape:connector-curvature="0"/><path style="font-size:12px;fill:url(#m);fill-rule:evenodd;stroke-width:1" d="M214.287 309.682c65.195-10.461 119.76-13.076 124.264-13.163 24.936 1.17-13.417 16.838-48.156 24.5-46.939-4.924-55.517-11.853-76.108-11.337z" sodipodi:nodetypes="cscc" inkscape:connector-curvature="0"/><path style="fill:none;fill-opacity:1;fill-rule:evenodd;stroke:#000;stroke-width:.5;stroke-linecap:round;stroke-linejoin:round;stroke-dasharray:none;stroke-opacity:1" d="m509.783 327.798 27.602-17.251" inkscape:connector-curvature="0"/><path style="font-size:12px;fill:url(#n);fill-rule:evenodd;stroke-width:1" d="M214.287 309.682c65.195-10.461 119.76-13.076 124.264-13.163 24.936 1.17-13.417 16.838-48.156 24.5-46.939-4.924-55.517-11.853-76.108-11.337z" sodipodi:nodetypes="cscc" inkscape:connector-curvature="0"/><path style="font-size:12px;fill:url(#o);fill-opacity:1;fill-rule:evenodd;stroke-width:1" d="M214.287 309.682c65.195-10.461 119.76-13.076 124.264-13.163 24.936 1.17-13.417 16.838-48.156 24.5-46.939-4.924-55.517-11.853-76.108-11.337z" sodipodi:nodetypes="cscc" inkscape:connector-curvature="0"/><path style="fill:none;fill-opacity:1;fill-rule:evenodd;stroke:#000;stroke-width:.5;stroke-linecap:round;stroke-linejoin:round;stroke-dasharray:none;stroke-opacity:1" d="m195.374 267.848 60.38 38.385" inkscape:connector-curvature="0"/><path style="fill:none;fill-opacity:1;fill-rule:evenodd;stroke:#000;stroke-width:.5;stroke-linecap:round;stroke-linejoin:round;stroke-dasharray:none;stroke-opacity:1" d="m194.942 267.417 107.391 32.778" inkscape:connector-curvature="0"/><path style="fill:none;fill-opacity:1;fill-rule:evenodd;stroke:#000;stroke-width:.5;stroke-linecap:round;stroke-linejoin:round;stroke-dasharray:none;stroke-opacity:1" d="m252.304 268.71 53.91 43.13" inkscape:connector-curvature="0"/><path style="fill:none;fill-opacity:1;fill-rule:evenodd;stroke:#000;stroke-width:.5;stroke-linecap:round;stroke-linejoin:round;stroke-dasharray:none;stroke-opacity:1" d="m252.304 268.28 79.788 32.778" inkscape:connector-curvature="0"/><path style="font-size:12px;fill:url(#p);fill-opacity:1;fill-rule:evenodd" d="m194.538 267.032-7.467 40.04 2.325.367 5.836-32.636 4.674 32.636h2.691l-6.293-37.728 54.227.43-6.563 38.72 2.692.065 6.204-36.598 6.441 36.404 2.346.216-8.032-42.219-59.081.303z" sodipodi:nodetypes="ccccccccccccccc" inkscape:connector-curvature="0"/><path style="fill:none;fill-opacity:1;fill-rule:evenodd;stroke:#000;stroke-width:.5;stroke-linecap:round;stroke-linejoin:round;stroke-dasharray:none;stroke-opacity:1" d="m90.57 278.631 104.372-11.213" inkscape:connector-curvature="0"/><path style="fill:none;fill-opacity:1;fill-rule:evenodd;stroke:#000;stroke-width:.5;stroke-linecap:round;stroke-linejoin:round;stroke-dasharray:none;stroke-opacity:1" d="m123.348 277.769 126.368-9.273" sodipodi:nodetypes="cc" inkscape:connector-curvature="0"/><path style="fill:none;fill-opacity:1;fill-rule:evenodd;stroke:#000;stroke-width:.5;stroke-linecap:round;stroke-linejoin:round;stroke-dasharray:none;stroke-opacity:1" d="m134.562 291.57 60.596-22.858" sodipodi:nodetypes="cc" inkscape:connector-curvature="0"/><path style="fill:none;fill-opacity:1;fill-rule:evenodd;stroke:#000;stroke-width:.5;stroke-linecap:round;stroke-linejoin:round;stroke-dasharray:none;stroke-opacity:1" d="m181.141 296.745 69.869-27.602" inkscape:connector-curvature="0"/><path style="font-size:12px;fill:url(#q);fill-rule:evenodd" d="m171.82 311.466 1.057 25.455c2.583 2.868 4.814 4.66 7.749 5.737l-.352-30.834-8.454-.358zm11.31 0v31.909c6.928 3.226 14.56 3.585 22.896 3.585v-35.494h-22.895zm25.401 0v35.494a345.766 345.766 0 0 0 47.2.717v-36.211h-47.2zm49.705 0v36.21l43.677-3.226v-32.984h-43.677zm46.182 0 .353 33.343 42.268-2.51.352-30.833h-42.973zm45.478 0v30.833l45.439-2.151.352-28.682h-45.79zm48.296 0v27.965l47.904-2.51v-25.455h-47.904zm50.41 0v25.096l46.847-2.868v-22.228h-46.848zm49.352 0v22.228l43.677-2.51.353-19.718h-44.03zm46.534 0v19.719l50.018-2.51.353-17.21h-50.37zm-375.134-2.51 1.41 28.324c2.582 7.529 17.177 11.336 35.223 12.906 14.15.965 36.179 1.39 53.54.359l338.15-20.077v-21.512H169.354z" inkscape:connector-curvature="0"/><g transform="matrix(.41717 0 0 .39845 131.722 295.456)"><ellipse style="fill:gray;fill-opacity:1;fill-rule:evenodd;stroke:none;stroke-width:1pt;stroke-linecap:butt;stroke-linejoin:miter;stroke-opacity:1" transform="matrix(.99973 .0209 -.02305 .9064 -.093 4.801)" cx="74.397202" cy="88.648766" rx="7.5475426" ry="16.173286"/><rect style="font-size:12px;fill:url(#r);fill-rule:evenodd" width="1.7312845" height="33.990944" x="99.953636" y="47.344337" transform="matrix(.985 -.1725 .13233 .9912 0 0)"/><path style="font-size:12px;fill:url(#s);fill-rule:evenodd" d="M111.095 61.385c-16.518.24-14.785 52.255 0 52.494l31.661 5.176c-11.713-1.845-15.6-12.788-14.868-27.11.342-15.168 5.75-28.715 17.456-27.11l-34.249-3.45z" sodipodi:nodetypes="cccscc" inkscape:connector-curvature="0"/><path style="font-size:12px;fill:url(#t);fill-rule:evenodd" d="M118.947 76.56c-7.82-.498-11.87-17.49-13.725-30.523-2-12.716 5.121-21.227 17.247-20.455 12.126.773 17.922 9.781 15.42 23.454-2.621 13.647-9.399 28.133-18.942 27.525z" sodipodi:nodetypes="cscsc" transform="matrix(.97452 0 0 .83366 3.78 5.28)" inkscape:connector-curvature="0"/><path style="font-size:12px;fill:url(#u);fill-rule:evenodd;stroke-width:1" d="M100.49 90.158c0 18.341 1.276 21.133 6.038 25.015-5.597 0-6.796-8.284-14.098-11.43l-17.804-7.67c-3.703-1.596-6.174-2.295-6.051-9.796.092-5.308 4.093-7.714 8.096-8.504l15.29-3.014c9.388-1.851 11.557-13.066 17.155-13.066-7.35 4.313-8.626 10.124-8.626 28.465z" sodipodi:nodetypes="ccssssscs" inkscape:connector-curvature="0"/><path style="font-size:12px;fill:url(#v);fill-rule:evenodd" d="M123.348 94.471c0 7.835-9.847 13.37-21.995 15.958-11.84 2.715-21.996-3.81-21.996-15.958s9.848-18.545 22.858-16.82c12.994 1.845 21.133 7.26 21.133 16.82z" sodipodi:nodetypes="cscsc" transform="rotate(-47.823 107.55 90.417)" inkscape:connector-curvature="0"/><ellipse style="font-size:12px;fill:url(#w);fill-rule:evenodd;stroke-width:1" transform="matrix(.74336 -.82048 1.11162 1.00713 -74.909 85.825)" cx="95.745956" cy="94.90258" rx="12.076069" ry="9.4883347"/><ellipse style="font-size:12px;fill:url(#x);fill-rule:evenodd;stroke-width:1" transform="matrix(-.06636 .67747 -1.4973 -.05511 269.993 -23.992)" cx="95.745956" cy="94.90258" rx="12.076069" ry="9.4883347"/><rect style="font-size:12px;fill:url(#y);fill-rule:evenodd" width="14.663788" height="5.6066895" x="102.2153" y="33.228271" ry="2.8033447" transform="translate(1.725 -6.038)"/><g style="fill:url(#z)"><rect style="font-size:12px;fill:url(#A);fill-rule:evenodd;stroke-width:1" width="1.7251513" height="29.758915" x="96.417938" y="50.843666" transform="rotate(-8.694)"/><rect style="font-size:12px;fill:url(#B);fill-rule:evenodd" width="14.663788" height="5.6066895" x="102.2153" y="33.228271" ry="2.8033447"/></g><rect style="font-size:12px;fill:url(#C);fill-opacity:1;fill-rule:evenodd" width="14.663788" height="5.6066895" x="82.376053" y="105.25331" ry="2.8033447"/><rect style="font-size:12px;fill:url(#D);fill-rule:evenodd" width="14.663788" height="5.6066895" x="82.376053" y="97.058884" ry="2.8033447"/></g><path style="font-size:12px;fill:url(#E);fill-opacity:1;fill-rule:evenodd" d="m198.922 310.632-.518 36.905c41.27 3.998 98.598.154 148.674-3.23v-33.676H198.922z" sodipodi:nodetypes="ccccc" inkscape:connector-curvature="0"/><path style="font-size:12px;fill:url(#F);fill-opacity:1;fill-rule:evenodd" d="m152.747 311.336 1.1 26.008c2.685 2.93 5.005 4.762 8.058 5.86l-.367-31.501-8.79-.367zm11.763 0v32.601c7.204 3.297 15.14 3.663 23.81 3.663v-36.264h-23.81zm26.414 0V347.6a365.957 365.957 0 0 0 49.084.733v-36.997h-49.084zm51.689 0v36.997l45.421-3.297v-33.7h-45.421zm48.026 0 .366 34.066 43.956-2.564.367-31.502h-44.69zm47.293 0v31.502l47.253-2.198.366-29.304h-47.619zm50.224 0v28.572l49.817-2.564v-26.008h-49.817zm52.422 0v25.641l48.718-2.93v-22.71h-48.718zm51.323 0v22.711l45.42-2.564.367-20.147h-45.787zm48.392 0v20.147l52.015-2.564.366-17.583h-52.381zm-390.11-2.564 1.465 28.938c2.687 7.692 17.863 11.582 36.63 13.187 14.716.986 37.623 1.42 55.678.366l351.648-20.513v-21.978h-445.42z" inkscape:connector-curvature="0"/><path style="font-size:12px;fill:url(#G);fill-opacity:1;fill-rule:evenodd" d="m189.08 309.035-.734 41.059c41.054 3.947 98.814-2.204 148.89-4.83v-36.229H189.08z" sodipodi:nodetypes="ccccc" inkscape:connector-curvature="0"/><path style="font-size:12px;fill:url(#H);fill-rule:evenodd;stroke-width:1" d="m641.317 295.784.343 37.676c.066 7.37-8.316 10.926-13.293 11.795-15.793 2.758-31.754 3.857-41.784-2.47-5.016-3.165-17.42-10.747-12.397-11.116l23.1-1.696.045-22.29-21.105-.456c-6.132-.132 5.645-15.658 9.32-19.074 4.759-3.581 24.925-5.061 40.23-5.061 8.338 0 15.465 4.259 15.542 12.692z" sodipodi:nodetypes="cssssccsscs" inkscape:connector-curvature="0"/><path style="font-size:12px;fill:url(#I);fill-rule:evenodd;stroke-width:1" d="m641.317 295.784.343 37.676c.066 7.37-8.316 10.926-13.293 11.795-15.793 2.758-31.754 3.857-41.784-2.47-5.016-3.165-17.42-10.747-12.397-11.116l23.1-1.696.045-22.29-21.105-.456c-6.132-.132 5.645-15.658 9.32-19.074 4.759-3.581 24.925-5.061 40.23-5.061 8.338 0 15.465 4.259 15.542 12.692z" sodipodi:nodetypes="cssssccsscs" inkscape:connector-curvature="0"/><path style="font-size:12px;fill:url(#J);fill-opacity:1;fill-rule:evenodd;stroke-width:1" d="m641.317 295.784.343 37.676c.066 7.37-8.316 10.926-13.293 11.795-15.793 2.758-31.754 3.857-41.784-2.47-5.016-3.165-17.42-10.747-12.397-11.116l23.1-1.696.045-22.29-21.105-.456c-6.132-.132 5.645-15.658 9.32-19.074 4.759-3.581 24.925-5.061 40.23-5.061 8.338 0 15.465 4.259 15.542 12.692z" sodipodi:nodetypes="cssssccsscs" inkscape:connector-curvature="0"/><path style="font-size:12px;fill:url(#K);fill-opacity:1;fill-rule:evenodd;stroke-width:1" d="M478.139 373.105c0 9.727-6.842 17.613-15.282 17.613-8.44 0-15.282-7.886-15.282-17.613s6.842-17.613 15.282-17.613c8.44 0 15.282 7.886 15.282 17.613zm-3.314 0c0 7.824-5.523 14.167-12.336 14.167-6.813 0-12.336-6.343-12.336-14.167s5.523-14.167 12.336-14.167c6.813 0 12.336 6.343 12.336 14.167z" inkscape:connector-curvature="0"/><path style="font-size:12px;fill:url(#L);fill-rule:evenodd;stroke-width:1" d="M173.02 309.511c-58.433-17.095-128.47-42.26-128.47-46.622 0-30.782 177.511 39.921 233.355 59.088-49.11-6.494-84.266-12.466-104.884-12.466z" sodipodi:nodetypes="cscc" inkscape:connector-curvature="0"/><path style="font-size:12px;fill:url(#M);fill-rule:evenodd;stroke-width:1" d="M173.02 309.511c-58.433-17.095-128.47-42.26-128.47-46.622 0-30.782 178.731 39.921 234.575 59.088-49.11-6.494-85.487-12.466-106.104-12.466z" sodipodi:nodetypes="cscc" inkscape:connector-curvature="0"/><path style="font-size:12px;fill:url(#N);fill-rule:evenodd;stroke-width:1" d="M173.02 309.511c-58.433-17.095-128.47-42.26-128.47-46.622 0-30.782 178.731 40.531 234.575 59.698-49.11-6.494-85.486-13.076-106.104-13.076z" sodipodi:nodetypes="cscc" inkscape:connector-curvature="0"/><path style="font-size:12px;fill:url(#O);fill-opacity:1;fill-rule:evenodd;stroke-width:1" d="M173.02 309.511c-58.433-17.095-128.47-42.26-128.47-46.622 0-30.782 178.058 39.84 233.9 59.007-49.11-6.495-84.811-12.385-105.43-12.385z" sodipodi:nodetypes="cscc" inkscape:connector-curvature="0"/><path style="font-size:12px;fill:url(#P);fill-opacity:1;fill-rule:evenodd" d="m222.019 351.806 29.502 37.754 4.018-.032 26.226-39.857-3.025.335-23.097 35.13 12.804-34.549-2.172-.183-13.025 35.477-14.003-34.655-1.926.183L250.9 384.96l-25.824-33.154h-3.056z" sodipodi:nodetypes="cccccccccccccc" inkscape:connector-curvature="0"/><path style="font-size:12px;fill:url(#Q);fill-opacity:1;fill-rule:evenodd;stroke-width:1" d="M569.806 334.72c-6.038 4.54-17.735 6.301-38.816 12.507-1.339.395-3.398-.248-4.992-.71l-34.734-10.067c0-18.341 43.956-18.14 65.96-16.415 1.404 1.078 5.634 4.619 5.75 6.342.152 2.442-18.732 7.551-16.964 7.417l21.83-1.663c1.89-.144.887.807 1.966 2.589z" sodipodi:nodetypes="cssccsssc" inkscape:connector-curvature="0"/><path style="font-size:12px;fill:url(#R);fill-opacity:.6464;fill-rule:evenodd;stroke-width:1" d="M491.416 336.602c0-18.34 43.957-18.14 65.961-16.415 1.404 1.078 5.634 4.62 5.749 6.343.152 2.441-18.732 7.55-16.963 7.416l-54.747 2.656z" sodipodi:nodetypes="ccssc" inkscape:connector-curvature="0"/><path style="font-size:12px;fill:url(#S);fill-opacity:.6464;fill-rule:evenodd;stroke-width:1" d="M491.416 336.602c0-18.34 43.957-18.14 65.961-16.415 1.404 1.078 5.634 4.62 5.749 6.343.152 2.441-18.732 7.55-16.963 7.416l-54.747 2.656z" sodipodi:nodetypes="ccssc" inkscape:connector-curvature="0"/><path style="font-size:12px;fill:url(#T);fill-opacity:.6464;fill-rule:evenodd;stroke-width:1" d="M491.416 336.602c0-18.34 43.957-18.14 65.961-16.415 1.404 1.078 5.634 4.62 5.749 6.343.152 2.441-18.732 7.55-16.963 7.416l-54.747 2.656z" sodipodi:nodetypes="ccssc" inkscape:connector-curvature="0"/><path style="font-size:12px;fill:url(#U);fill-opacity:1;fill-rule:evenodd;stroke-width:1" d="M491.416 336.602c0-18.34 43.957-18.14 65.961-16.415 1.404 1.078 5.634 4.62 5.749 6.343.152 2.441-18.732 7.55-16.963 7.416l-54.747 2.656z" sodipodi:nodetypes="ccssc" inkscape:connector-curvature="0"/><path style="fill:none;fill-opacity:1;fill-rule:evenodd;stroke:#000;stroke-width:.5;stroke-linecap:round;stroke-linejoin:round;stroke-dasharray:none;stroke-opacity:1" d="m91.433 279.494 61.243 111.272" inkscape:connector-curvature="0"/><path style="fill:none;fill-opacity:1;fill-rule:evenodd;stroke:#000;stroke-width:.5;stroke-linecap:round;stroke-linejoin:round;stroke-dasharray:none;stroke-opacity:1" d="m122.486 277.769 131.111 110.41" inkscape:connector-curvature="0"/><path style="fill:none;fill-opacity:1;fill-rule:evenodd;stroke:#000;stroke-width:.5;stroke-linecap:round;stroke-linejoin:round;stroke-dasharray:none;stroke-opacity:1" d="m134.562 291.57 18.977 97.471" inkscape:connector-curvature="0"/><path style="fill:none;fill-opacity:1;fill-rule:evenodd;stroke:#000;stroke-width:.5;stroke-linecap:round;stroke-linejoin:round;stroke-dasharray:none;stroke-opacity:1" d="m181.141 297.608 71.594 88.845" inkscape:connector-curvature="0"/><path style="font-size:12px;fill:url(#V);fill-rule:evenodd" d="m413.227 341.146 23.668 21.965 24.386 12.416c1.102.561 2.619-.61 3.343-1.612l26.888-37.24-2.326.127-26.087 35.449-15.064-32.91-2.3-.036 15.607 33.927-23.455-11.98-22.386-20.368-2.274.262z" sodipodi:nodetypes="ccssccccccccc" inkscape:connector-curvature="0"/><rect style="font-size:12px;fill:url(#W);fill-rule:evenodd" width="42.124619" height="2.197876" x="143.88118" y="394.48517" transform="rotate(-1.719)"/><rect style="font-size:12px;fill:url(#X);fill-rule:evenodd" width="2.5877011" height="79.000961" x="153.79594" y="315.0376" transform="rotate(-1.286) skewX(.04)"/><rect style="font-size:12px;fill:url(#Y);fill-opacity:1;fill-rule:evenodd" width="42.124638" height="2.1978769" x="154.6403" y="415.03806" transform="rotate(-3.659)"/><path style="font-size:12px;fill:url(#Z);fill-rule:evenodd;stroke-width:1" d="M199.165 402.137c2.207 12.404-4.906 24.129-15.887 26.187-10.981 2.059-21.672-6.328-23.88-18.732-2.206-12.404 4.906-24.129 15.888-26.188 10.98-2.058 21.672 6.328 23.879 18.733zm-4.312.808c1.775 9.978-3.972 19.413-12.836 21.075-8.864 1.662-17.49-5.08-19.264-15.057-1.776-9.977 3.971-19.413 12.836-21.075 8.864-1.661 17.489 5.08 19.264 15.057z" inkscape:connector-curvature="0"/><path style="font-size:12px;fill:url(#aa);fill-rule:evenodd" d="m153.846 349.307 1.832 42.458 23.077 12.604-24.909-55.062zm-4.221-38.12 2.993 79.05c-.862.484-.947 2.142-.255 2.626l26.941 14.823c1.45.798 3.789-2.238 3.114-3.648l-28.572-59.706-.58-32.089 10.1-.52.257-3.11-10.365.253c-1.436.035-3.688.885-3.633 2.321z" sodipodi:nodetypes="cccccccssccccss" inkscape:connector-curvature="0"/><rect style="font-size:12px;fill:url(#ab);fill-opacity:1;fill-rule:evenodd" width="5.1324058" height="9.3694048" x="132.16397" y="351.96155" ry="1.7349938" transform="matrix(.99755 -.06988 .0503 .99873 0 0)"/><path style="font-size:12px;fill:#d2e7e6;fill-opacity:1;fill-rule:evenodd" d="M256.891 303.672c0 .431-.546.628-.546 1.06 0 .431.195.276.195.708 0 .431-.39.042-.39.473s-.04.16-.04.591c6.541 0 4.333-1.68 10.874-1.68s6.832.742 13.373.742c6.542 0-2.247 1.352 4.294 1.352 6.541 0 .708-1.878 7.25-1.878 7.07-.1-1.879-3.75 0-5.176-6.542 0-1.261 2.32-7.802 2.32-6.542 0 1.315-1.168-5.226-1.168s-5.23 1.016-11.772 1.016c-6.541 0-3.668 1.64-10.21 1.64z" sodipodi:nodetypes="cssscsssccsssc" inkscape:connector-curvature="0"/></g></svg>