<?xml version="1.0" encoding="UTF-8" standalone="no"?>
<!-- Created with Sodipodi ("http://www.sodipodi.com/") -->

<svg
   xmlns:dc="http://purl.org/dc/elements/1.1/"
   xmlns:cc="http://creativecommons.org/ns#"
   xmlns:rdf="http://www.w3.org/1999/02/22-rdf-syntax-ns#"
   xmlns:svg="http://www.w3.org/2000/svg"
   xmlns="http://www.w3.org/2000/svg"
   xmlns:xlink="http://www.w3.org/1999/xlink"
   xmlns:sodipodi="http://sodipodi.sourceforge.net/DTD/sodipodi-0.dtd"
   xmlns:inkscape="http://www.inkscape.org/namespaces/inkscape"
   id="svg809"
   sodipodi:version="0.34"
   width="300"
   height="87.124428"
   xml:space="preserve"
   sodipodi:docname="bleriot.svg"
   version="1.1"
   inkscape:version="0.91 r13725"><metadata
     id="metadata128"><rdf:RDF><cc:Work
         rdf:about=""><dc:format>image/svg+xml</dc:format><dc:type
           rdf:resource="http://purl.org/dc/dcmitype/StillImage" /><dc:title /></cc:Work></rdf:RDF></metadata><defs
     id="defs811"><linearGradient
       id="linearGradient874"><stop
         style="stop-color:#ffcd4f;stop-opacity:0.702;"
         offset="0"
         id="stop875" /><stop
         style="stop-color:#ffffca;stop-opacity:0.698;"
         offset="1"
         id="stop876" /></linearGradient><linearGradient
       id="linearGradient851"><stop
         style="stop-color:#ffcd4f;stop-opacity:0.8627;"
         offset="0"
         id="stop852" /><stop
         style="stop-color:#ffffca;stop-opacity:0.8627;"
         offset="1"
         id="stop853" /></linearGradient><linearGradient
       id="linearGradient844"><stop
         style="stop-color:#47120d;stop-opacity:1;"
         offset="0"
         id="stop845" /><stop
         style="stop-color:#c59537;stop-opacity:1;"
         offset="1"
         id="stop846" /></linearGradient><linearGradient
       id="linearGradient840"><stop
         style="stop-color:#000;stop-opacity:1;"
         offset="0"
         id="stop841" /><stop
         style="stop-color:#fff;stop-opacity:1;"
         offset="1"
         id="stop842" /></linearGradient><linearGradient
       xlink:href="#linearGradient844"
       id="linearGradient843"
       x1="59.012981"
       y1="863.48108"
       x2="160.05473"
       y2="1428.0518"
       gradientTransform="scale(3.1864088,0.31383292)"
       gradientUnits="userSpaceOnUse" /><linearGradient
       xlink:href="#linearGradient851"
       id="linearGradient850"
       x1="101.10838"
       y1="609.55048"
       x2="176.87367"
       y2="609.55048"
       gradientTransform="scale(1.9622943,0.50960755)"
       gradientUnits="userSpaceOnUse" /><linearGradient
       xlink:href="#linearGradient840"
       id="linearGradient859"
       x1="196.99127"
       y1="390.45602"
       x2="239.23373"
       y2="364.93414"
       gradientTransform="scale(0.94383254,1.05951)"
       gradientUnits="userSpaceOnUse" /><linearGradient
       xlink:href="#linearGradient851"
       id="linearGradient865"
       gradientTransform="scale(1.032829,0.9682145)"
       x1="554.79755"
       y1="292.38562"
       x2="621.26453"
       y2="292.38562"
       gradientUnits="userSpaceOnUse" /><linearGradient
       xlink:href="#linearGradient840"
       id="linearGradient870"
       x1="142.16502"
       y1="404.92328"
       x2="183.66057"
       y2="322.06787"
       gradientTransform="scale(1.3290953,0.7523915)"
       gradientUnits="userSpaceOnUse" /><linearGradient
       xlink:href="#linearGradient874"
       id="linearGradient873"
       x1="149.09357"
       y1="478.10779"
       x2="25.550341"
       y2="476.57516"
       gradientTransform="scale(1.8668637,0.53565776)"
       gradientUnits="userSpaceOnUse" /><linearGradient
       xlink:href="#linearGradient840"
       id="linearGradient884"
       x1="189.79941"
       y1="432.90607"
       x2="227.17516"
       y2="484.39368"
       gradientTransform="scale(1.2238592,0.81708743)"
       gradientUnits="userSpaceOnUse" /><linearGradient
       xlink:href="#linearGradient874"
       id="linearGradient903"
       gradientTransform="scale(2.0443329,0.48915713)"
       x1="240.37968"
       y1="653.04889"
       x2="275.45734"
       y2="653.04889"
       gradientUnits="userSpaceOnUse" /><linearGradient
       xlink:href="#linearGradient874"
       id="linearGradient912"
       x1="316.31326"
       y1="569.40753"
       x2="314.89484"
       y2="620.69995"
       gradientTransform="scale(1.6730818,0.59769941)"
       gradientUnits="userSpaceOnUse" /><linearGradient
       xlink:href="#linearGradient840"
       id="linearGradient940"
       x1="283.75824"
       y1="478.31442"
       x2="366.07388"
       y2="517.16431"
       gradientTransform="scale(1.4168512,0.7057904)"
       gradientUnits="userSpaceOnUse" /><linearGradient
       xlink:href="#linearGradient840"
       id="linearGradient941"
       x1="251.60213"
       y1="179.09863"
       x2="336.73209"
       y2="219.27676"
       gradientTransform="scale(0.57599644,1.7361218)"
       gradientUnits="userSpaceOnUse" /><linearGradient
       xlink:href="#linearGradient840"
       id="linearGradient949"
       x1="297.2728"
       y1="473.39481"
       x2="352.67743"
       y2="473.39481"
       gradientTransform="scale(1.4074689,0.71049528)"
       gradientUnits="userSpaceOnUse" /><linearGradient
       xlink:href="#linearGradient840"
       id="linearGradient950"
       x1="39.105854"
       y1="1786.1106"
       x2="41.556194"
       y2="1832.4762"
       gradientTransform="scale(4.3779057,0.22841972)"
       gradientUnits="userSpaceOnUse" /><linearGradient
       xlink:href="#linearGradient840"
       id="linearGradient956"
       x1="76.317383"
       y1="112.23749"
       x2="92.418877"
       y2="109.79779"
       spreadMethod="reflect"
       gradientTransform="scale(1.1281525,0.88640502)"
       gradientUnits="userSpaceOnUse" /><linearGradient
       xlink:href="#linearGradient840"
       id="linearGradient971"
       x1="129.32906"
       y1="20.708206"
       x2="170.72743"
       y2="20.708206"
       gradientTransform="scale(0.81100973,1.2330308)"
       gradientUnits="userSpaceOnUse" /><linearGradient
       xlink:href="#linearGradient840"
       id="linearGradient972"
       x1="76.965958"
       y1="98.869827"
       x2="89.61834"
       y2="111.02449"
       spreadMethod="reflect"
       gradientTransform="scale(1.1281525,0.88640502)"
       gradientUnits="userSpaceOnUse" /><linearGradient
       xlink:href="#linearGradient840"
       id="linearGradient975"
       x1="74.323883"
       y1="95.19503"
       x2="135.9212"
       y2="124.77838"
       gradientTransform="scale(1.1431133,0.87480391)"
       gradientUnits="userSpaceOnUse" /><linearGradient
       xlink:href="#linearGradient840"
       id="linearGradient980"
       x1="127.14356"
       y1="56.627773"
       x2="52.729771"
       y2="105.37617"
       gradientTransform="scale(0.87071592,1.1484802)"
       gradientUnits="userSpaceOnUse" /><linearGradient
       xlink:href="#linearGradient844"
       id="linearGradient986"
       x1="1218.0861"
       y1="42.507118"
       x2="1229.129"
       y2="63.478054"
       spreadMethod="reflect"
       gradientTransform="scale(0.49092102,2.0369876)"
       gradientUnits="userSpaceOnUse" /><linearGradient
       xlink:href="#linearGradient840"
       id="linearGradient987"
       x1="154.66219"
       y1="33.685169"
       x2="161.51064"
       y2="46.690662"
       gradientTransform="scale(0.67826603,1.4743478)"
       gradientUnits="userSpaceOnUse" /><linearGradient
       xlink:href="#linearGradient844"
       id="linearGradient1229"
       x1="1216.192"
       y1="55.945866"
       x2="1171.8134"
       y2="67.111359"
       gradientTransform="scale(0.47402121,2.1096102)"
       gradientUnits="userSpaceOnUse" /><linearGradient
       xlink:href="#linearGradient844"
       id="linearGradient1230"
       x1="411.71927"
       y1="140.00639"
       x2="430.42026"
       y2="148.83257"
       gradientTransform="scale(0.90601856,1.1037302)"
       gradientUnits="userSpaceOnUse" /><linearGradient
       inkscape:collect="always"
       xlink:href="#linearGradient874"
       id="linearGradient4256"
       gradientTransform="scale(2.0443329,0.48915713)"
       x1="240.37968"
       y1="653.04889"
       x2="275.45734"
       y2="653.04889"
       gradientUnits="userSpaceOnUse" /><linearGradient
       inkscape:collect="always"
       xlink:href="#linearGradient851"
       id="linearGradient4258"
       x1="124.32903"
       y1="628.59515"
       x2="133.7877"
       y2="671.46051"
       gradientTransform="scale(1.8751261,0.53329747)"
       gradientUnits="userSpaceOnUse" /><linearGradient
       inkscape:collect="always"
       xlink:href="#linearGradient874"
       id="linearGradient4260"
       x1="148.24266"
       y1="479.57343"
       x2="25.461124"
       y2="478.05026"
       gradientTransform="scale(1.8730499,0.5338886)"
       gradientUnits="userSpaceOnUse" /><linearGradient
       inkscape:collect="always"
       xlink:href="#linearGradient874"
       id="linearGradient4262"
       x1="148.9612"
       y1="689.61389"
       x2="92.995911"
       y2="688.91962"
       gradientTransform="scale(2.323354,0.43041225)"
       gradientUnits="userSpaceOnUse" /><linearGradient
       inkscape:collect="always"
       xlink:href="#linearGradient844"
       id="linearGradient4264"
       x1="52.761883"
       y1="867.91315"
       x2="156.91216"
       y2="1449.8528"
       gradientTransform="scale(3.2147132,0.31106974)"
       gradientUnits="userSpaceOnUse" /><linearGradient
       inkscape:collect="always"
       xlink:href="#linearGradient851"
       id="linearGradient4266"
       gradientTransform="scale(1.032829,0.9682145)"
       x1="554.79755"
       y1="292.38562"
       x2="621.26453"
       y2="292.38562"
       gradientUnits="userSpaceOnUse" /><linearGradient
       inkscape:collect="always"
       xlink:href="#linearGradient840"
       id="linearGradient4268"
       x1="502.28223"
       y1="353.17783"
       x2="534.52844"
       y2="333.69547"
       gradientTransform="scale(0.9314748,1.0735663)"
       gradientUnits="userSpaceOnUse" /><linearGradient
       inkscape:collect="always"
       xlink:href="#linearGradient840"
       id="linearGradient4270"
       x1="248.42072"
       y1="215.1767"
       x2="347.81042"
       y2="262.08487"
       gradientTransform="scale(0.69179028,1.4455248)"
       gradientUnits="userSpaceOnUse" /><linearGradient
       inkscape:collect="always"
       xlink:href="#linearGradient840"
       id="linearGradient4417"
       x1="177.57941"
       y1="260.65771"
       x2="186.97003"
       y2="265.49753"
       gradientTransform="scale(0.74012401,1.3511249)"
       gradientUnits="userSpaceOnUse" /><linearGradient
       inkscape:collect="always"
       xlink:href="#linearGradient840"
       id="linearGradient4419"
       x1="832.42688"
       y1="57.214546"
       x2="869.03357"
       y2="67.405197"
       gradientTransform="scale(0.18098428,5.5253416)"
       gradientUnits="userSpaceOnUse" /><linearGradient
       inkscape:collect="always"
       xlink:href="#linearGradient840"
       id="linearGradient4449"
       x1="49.706417"
       y1="164.99556"
       x2="55.470364"
       y2="180.34789"
       gradientTransform="scale(1.6172227,0.61834402)"
       gradientUnits="userSpaceOnUse" /><linearGradient
       inkscape:collect="always"
       xlink:href="#linearGradient840"
       id="linearGradient4451"
       x1="50.532616"
       y1="156.83363"
       x2="55.470364"
       y2="167.09566"
       gradientTransform="scale(1.6172227,0.61834402)"
       gradientUnits="userSpaceOnUse" /><linearGradient
       inkscape:collect="always"
       xlink:href="#linearGradient840"
       id="linearGradient4453"
       x1="38.211067"
       y1="1720.7537"
       x2="42.989223"
       y2="1747.9143"
       gradientTransform="scale(4.3779057,0.22841972)"
       gradientUnits="userSpaceOnUse" /><linearGradient
       inkscape:collect="always"
       xlink:href="#linearGradient840"
       id="linearGradient4532"
       x1="249.24403"
       y1="373.77661"
       x2="288.02713"
       y2="350.34482"
       gradientTransform="scale(0.9100354,1.0988583)"
       gradientUnits="userSpaceOnUse" /><linearGradient
       inkscape:collect="always"
       xlink:href="#linearGradient840"
       id="linearGradient4534"
       x1="957.34833"
       y1="57.266933"
       x2="978.64935"
       y2="67.32019"
       gradientTransform="scale(0.18098428,5.5253416)"
       gradientUnits="userSpaceOnUse" /><linearGradient
       inkscape:collect="always"
       xlink:href="#linearGradient874"
       id="linearGradient4536"
       x1="148.9612"
       y1="689.61389"
       x2="92.995911"
       y2="688.91962"
       gradientTransform="scale(2.323354,0.43041225)"
       gradientUnits="userSpaceOnUse" /><linearGradient
       inkscape:collect="always"
       xlink:href="#linearGradient874"
       id="linearGradient4538"
       x1="148.9612"
       y1="689.61389"
       x2="92.995911"
       y2="688.91962"
       gradientTransform="scale(2.323354,0.43041225)"
       gradientUnits="userSpaceOnUse" /><linearGradient
       inkscape:collect="always"
       xlink:href="#linearGradient874"
       id="linearGradient4540"
       x1="148.9612"
       y1="689.61389"
       x2="92.995911"
       y2="688.91962"
       gradientTransform="scale(2.323354,0.43041225)"
       gradientUnits="userSpaceOnUse" /><linearGradient
       inkscape:collect="always"
       xlink:href="#linearGradient840"
       id="linearGradient4542"
       x1="444.29568"
       y1="14.640389"
       x2="446.72574"
       y2="19.255121"
       gradientTransform="scale(0.22568495,4.4309555)"
       gradientUnits="userSpaceOnUse" /><linearGradient
       inkscape:collect="always"
       xlink:href="#linearGradient840"
       id="linearGradient4544"
       x1="111.24061"
       y1="54.82217"
       x2="162.74413"
       y2="54.82217"
       gradientTransform="scale(0.89308349,1.1197161)"
       gradientUnits="userSpaceOnUse" /><linearGradient
       inkscape:collect="always"
       xlink:href="#linearGradient840"
       id="linearGradient4546"
       x1="64.865593"
       y1="58.412823"
       x2="67.737846"
       y2="63.867348"
       gradientTransform="scale(1.6172227,0.61834402)"
       gradientUnits="userSpaceOnUse" /><linearGradient
       inkscape:collect="always"
       xlink:href="#linearGradient840"
       id="linearGradient4548"
       x1="401.767"
       y1="15.936207"
       x2="404.03668"
       y2="20.24646"
       gradientTransform="scale(0.24077148,4.1533158)"
       gradientUnits="userSpaceOnUse" /><linearGradient
       inkscape:collect="always"
       xlink:href="#linearGradient840"
       id="linearGradient4550"
       x1="64.865593"
       y1="58.412823"
       x2="67.737846"
       y2="63.867348"
       gradientTransform="scale(1.6172227,0.61834402)"
       gradientUnits="userSpaceOnUse" /><linearGradient
       inkscape:collect="always"
       xlink:href="#linearGradient851"
       id="linearGradient4552"
       gradientTransform="scale(1.032829,0.9682145)"
       x1="554.79755"
       y1="292.38562"
       x2="621.26453"
       y2="292.38562"
       gradientUnits="userSpaceOnUse" /><linearGradient
       inkscape:collect="always"
       xlink:href="#linearGradient874"
       id="linearGradient4554"
       x1="148.20839"
       y1="478.75812"
       x2="25.501312"
       y2="477.23587"
       gradientTransform="scale(1.8698107,0.53481349)"
       gradientUnits="userSpaceOnUse" /><linearGradient
       inkscape:collect="always"
       xlink:href="#linearGradient874"
       id="linearGradient4556"
       x1="148.47105"
       y1="480.00787"
       x2="25.443651"
       y2="478.48166"
       gradientTransform="scale(1.8746917,0.53342103)"
       gradientUnits="userSpaceOnUse" /><linearGradient
       inkscape:collect="always"
       xlink:href="#linearGradient874"
       id="linearGradient4558"
       gradientTransform="scale(2.0443329,0.48915713)"
       x1="240.37968"
       y1="653.04889"
       x2="275.45734"
       y2="653.04889"
       gradientUnits="userSpaceOnUse" /><linearGradient
       inkscape:collect="always"
       xlink:href="#linearGradient874"
       id="linearGradient4560"
       gradientTransform="scale(2.0443329,0.48915713)"
       x1="240.37968"
       y1="653.04889"
       x2="275.45734"
       y2="653.04889"
       gradientUnits="userSpaceOnUse" /></defs><sodipodi:namedview
     id="base"
     showgrid="false"
     inkscape:zoom="2.5371827"
     inkscape:cx="232.17947"
     inkscape:cy="60.353491"
     inkscape:window-width="3200"
     inkscape:window-height="1679"
     inkscape:window-x="0"
     inkscape:window-y="0"
     inkscape:window-maximized="1"
     inkscape:current-layer="g4302"
     fit-margin-top="0"
     fit-margin-left="0"
     fit-margin-right="0"
     fit-margin-bottom="0"
     units="px" /><g
     id="g4302"
     transform="translate(-44.55034,-341.51053)"><g
       id="g4461"
       transform="matrix(0.50242028,0,0,0.50242028,22.167346,213.28006)"><g
         id="g1231"
         transform="matrix(0.834903,0,0,0.929157,81.87179,173.2341)"><path
           style="font-size:12px;fill:url(#linearGradient1229);fill-rule:evenodd"
           d="m 559.7371,117.9601 c -0.0326,2.2912 1.0779,4.6066 2.7968,5.6496 0,10.9259 -0.0534,50.2574 -0.0534,61.1832 0.0139,7.4679 14.0232,7.012 13.8395,2.7956 0,-10.9259 -2.9839,-51.6485 -2.9839,-62.5744 1.4451,-0.9649 2.9271,-3.3269 2.9278,-5.8152 -0.0365,-2.3705 -16.5359,-3.3379 -16.5268,-1.2388 z"
           id="path932"
           sodipodi:nodetypes="cccccss"
           transform="matrix(0.796491,0.03933732,-0.290299,0.949807,-321.5943,34.79509)"
           inkscape:connector-curvature="0" /><path
           style="font-size:12px;fill:url(#linearGradient986);fill-rule:evenodd"
           d="m 611.2559,119.7619 c 0.0547,-2.2909 -1.0335,-4.6168 -2.7422,-5.6764 0.1053,-10.9254 3.3429,-47.16803 3.4483,-58.09332 0.06,-8.40005 -14.1203,-6.98549 -14.0514,-1.99055 -0.1053,10.92529 0.0268,47.99997 -0.0786,58.92547 -1.4544,0.9509 -2.959,3.2985 -2.9837,5.7867 0.0136,2.3706 16.3966,3.147 16.4076,1.0481 z"
           id="path933"
           sodipodi:nodetypes="cccccss"
           transform="matrix(0.796491,0.03933732,-0.290299,0.949807,-349.3808,33.12151)"
           inkscape:connector-curvature="0" /><path
           style="font-size:12px;fill:url(#linearGradient1230);fill-rule:evenodd"
           d="m 385.6765,159.5203 c 0.8051,1.8004 0.1284,4.8429 -1.2181,5.7454 l -4.168,2.7937 c 2.0415,-1.2501 2.4447,-4.0035 1.692,-7.1328 -0.9471,-3.5669 -4.5878,-5.5274 -7.3324,-5.7619 0.5728,-0.1125 0.9263,-0.1768 1.8573,0.1132 4.7809,1.465 3.709,-0.1734 3.2455,-1.0546 0.7036,-0.0995 1.604,0.2196 2.0519,0.4402 1.5135,0.7057 2.7403,1.9973 3.8718,4.8568 z"
           id="path939"
           sodipodi:nodetypes="cscscscss"
           transform="matrix(-1,0,0,1,474.2704,8.625763)"
           inkscape:connector-curvature="0" /></g><ellipse
         style="fill:#808080;fill-opacity:1;fill-rule:evenodd;stroke:none;stroke-width:1pt;stroke-linecap:butt;stroke-linejoin:miter;stroke-opacity:1"
         id="path1011"
         transform="translate(4.312878,-3.051758e-5)"
         cx="184.3757"
         cy="331.89532"
         rx="3.6659546"
         ry="10.997849" /><path
         style="font-size:12px;fill:url(#linearGradient4532);fill-rule:evenodd;stroke-width:1"
         d="m 238.8727,403.0169 c 0.4912,11.974 -7.1399,21.7959 -17.0447,21.9378 -9.9048,0.1421 -18.3323,-9.4497 -18.8236,-21.4238 -0.4913,-11.9739 7.1398,-21.7959 17.0446,-21.9379 9.9047,-0.1419 18.3324,9.4499 18.8237,21.4239 z m -3.8892,0.0558 c 0.3951,9.6314 -5.7661,17.5318 -13.7614,17.6465 -7.9956,0.1145 -14.7974,-7.6003 -15.1924,-17.2315 -0.3952,-9.6313 5.7659,-17.5318 13.7613,-17.6464 7.9954,-0.1145 14.7974,7.6003 15.1925,17.2314 z"
         id="path863"
         inkscape:connector-curvature="0" /><path
         style="fill:none;fill-opacity:1;fill-rule:evenodd;stroke:#000000;stroke-width:0.5;stroke-linecap:round;stroke-linejoin:round;stroke-dasharray:none;stroke-opacity:1"
         d="m 538.2476,309.684 17.2515,17.2515"
         id="path952"
         inkscape:connector-curvature="0" /><path
         style="font-size:12px;fill:url(#linearGradient949);fill-rule:evenodd"
         d="m 418.4022,341.1457 23.6684,21.9651 19.0489,12.4162 c 1.0364,0.6755 2.5379,-0.6731 3.3431,-1.6124 l 31.9199,-37.2388 -1.7163,-0.331 -31.7285,35.906 -10.0324,-33.0613 -2.3,-0.037 10.5748,34.0794 -18.1173,-11.9806 -22.3868,-20.3673 -2.2738,0.2617 z"
         id="path931"
         sodipodi:nodetypes="ccssccccccccc"
         inkscape:connector-curvature="0" /><path
         style="font-size:12px;fill:url(#linearGradient4270);fill-opacity:1;fill-rule:evenodd"
         d="m 195.9082,347.3968 1.8315,41.9635 23.077,12.4579 -24.9085,-54.4214 z m -4.8692,-35.6004 3.7703,79.531 26.5568,13.7693 c 1.4687,0.7615 3.7885,-2.2122 3.1136,-3.6062 l -28.5715,-59.0112 -1.3579,-32.824 -15.2244,-0.8721 -0.8778,3.1902 12.5909,-0.177 z"
         id="path895"
         sodipodi:nodetypes="ccccccssccccc"
         inkscape:connector-curvature="0" /><rect
         style="font-size:12px;fill:url(#linearGradient4534);fill-rule:evenodd"
         id="rect900"
         width="2.5877011"
         height="79.000961"
         x="173.63467"
         y="314.56793"
         transform="matrix(0.999748,-0.02245086,0.02314884,0.999732,0,0)" /><path
         style="font-size:12px;fill:url(#linearGradient4536);fill-rule:evenodd;stroke-width:1"
         d="m 214.2873,309.6822 c 65.1945,-10.4616 119.7596,-13.0759 124.2636,-13.1628 24.9365,1.1693 -13.417,16.8372 -48.156,24.4992 -46.9384,-4.9234 -55.517,-11.8523 -76.1076,-11.3364 z"
         id="path921"
         sodipodi:nodetypes="cscc"
         inkscape:connector-curvature="0" /><path
         style="font-size:12px;fill:url(#linearGradient4538);fill-rule:evenodd;stroke-width:1"
         d="m 214.2873,309.6822 c 65.1945,-10.4616 119.7596,-13.0759 124.2636,-13.1628 24.9365,1.1693 -13.417,16.8372 -48.156,24.4992 -46.9384,-4.9234 -55.517,-11.8523 -76.1076,-11.3364 z"
         id="path922"
         sodipodi:nodetypes="cscc"
         inkscape:connector-curvature="0" /><path
         style="fill:none;fill-opacity:1;fill-rule:evenodd;stroke:#000000;stroke-width:0.5;stroke-linecap:round;stroke-linejoin:round;stroke-dasharray:none;stroke-opacity:1"
         d="M 509.7826,327.7981 537.385,310.5466"
         id="path951"
         inkscape:connector-curvature="0" /><path
         style="font-size:12px;fill:url(#linearGradient4540);fill-rule:evenodd;stroke-width:1"
         d="m 214.2873,309.6822 c 65.1945,-10.4616 119.7596,-13.0759 124.2636,-13.1628 24.9365,1.1693 -13.417,16.8372 -48.156,24.4992 -46.9384,-4.9234 -55.517,-11.8523 -76.1076,-11.3364 z"
         id="path923"
         sodipodi:nodetypes="cscc"
         inkscape:connector-curvature="0" /><path
         style="font-size:12px;fill:url(#linearGradient4262);fill-opacity:1;fill-rule:evenodd;stroke-width:1"
         d="m 214.2873,309.6822 c 65.1945,-10.4616 119.7596,-13.0759 124.2636,-13.1628 24.9365,1.1693 -13.417,16.8372 -48.156,24.4992 -46.9384,-4.9234 -55.517,-11.8523 -76.1076,-11.3364 z"
         id="path924"
         sodipodi:nodetypes="cscc"
         inkscape:connector-curvature="0" /><path
         style="fill:none;fill-opacity:1;fill-rule:evenodd;stroke:#000000;stroke-width:0.5;stroke-linecap:round;stroke-linejoin:round;stroke-dasharray:none;stroke-opacity:1"
         d="m 195.3737,267.8483 60.3804,38.3847"
         id="path928"
         inkscape:connector-curvature="0" /><path
         style="fill:none;fill-opacity:1;fill-rule:evenodd;stroke:#000000;stroke-width:0.5;stroke-linecap:round;stroke-linejoin:round;stroke-dasharray:none;stroke-opacity:1"
         d="m 194.9424,267.417 107.3909,32.778"
         id="path925"
         inkscape:connector-curvature="0" /><path
         style="fill:none;fill-opacity:1;fill-rule:evenodd;stroke:#000000;stroke-width:0.5;stroke-linecap:round;stroke-linejoin:round;stroke-dasharray:none;stroke-opacity:1"
         d="m 252.3038,268.7109 53.9111,43.1289"
         id="path927"
         inkscape:connector-curvature="0" /><path
         style="fill:none;fill-opacity:1;fill-rule:evenodd;stroke:#000000;stroke-width:0.5;stroke-linecap:round;stroke-linejoin:round;stroke-dasharray:none;stroke-opacity:1"
         d="m 252.3038,268.2796 79.7884,32.778"
         id="path926"
         inkscape:connector-curvature="0" /><path
         style="font-size:12px;fill:url(#linearGradient870);fill-opacity:1;fill-rule:evenodd"
         d="m 194.5378,267.0324 -7.467,40.0399 2.3248,0.3663 5.8361,-32.6357 4.6743,32.6357 2.691,0 -6.2931,-37.7271 54.2272,0.429 -6.5626,38.7207 2.6911,0.0651 6.2045,-36.5987 6.441,36.4049 2.3455,0.2156 -8.0317,-42.2191 -59.0811,0.3034 z"
         id="path883"
         sodipodi:nodetypes="ccccccccccccccc"
         inkscape:connector-curvature="0" /><path
         style="fill:none;fill-opacity:1;fill-rule:evenodd;stroke:#000000;stroke-width:0.5;stroke-linecap:round;stroke-linejoin:round;stroke-dasharray:none;stroke-opacity:1"
         d="M 90.57051,278.6313 194.9422,267.4178"
         id="path920"
         inkscape:connector-curvature="0" /><path
         style="fill:none;fill-opacity:1;fill-rule:evenodd;stroke:#000000;stroke-width:0.5;stroke-linecap:round;stroke-linejoin:round;stroke-dasharray:none;stroke-opacity:1"
         d="m 123.3484,277.7687 126.3674,-9.2726"
         id="path919"
         sodipodi:nodetypes="cc"
         inkscape:connector-curvature="0" /><path
         style="fill:none;fill-opacity:1;fill-rule:evenodd;stroke:#000000;stroke-width:0.5;stroke-linecap:round;stroke-linejoin:round;stroke-dasharray:none;stroke-opacity:1"
         d="m 134.5619,291.5699 60.5959,-22.8582"
         id="path918"
         sodipodi:nodetypes="cc"
         inkscape:connector-curvature="0" /><path
         style="fill:none;fill-opacity:1;fill-rule:evenodd;stroke:#000000;stroke-width:0.5;stroke-linecap:round;stroke-linejoin:round;stroke-dasharray:none;stroke-opacity:1"
         d="M 181.141,296.7454 251.0097,269.143"
         id="path917"
         inkscape:connector-curvature="0" /><path
         style="font-size:12px;fill:url(#linearGradient843);fill-rule:evenodd"
         d="m 171.82,311.4657 1.0567,25.4554 c 2.5831,2.8682 4.8139,4.6608 7.7493,5.7365 l -0.3523,-30.8333 -8.4537,-0.3586 z m 11.3108,0 0,31.9088 c 6.9273,3.2266 14.5592,3.5851 22.8956,3.5852 l 0,-35.494 -22.8956,0 z m 25.4002,0 0,35.494 c 15.7334,1.3145 31.4669,1.5535 47.2001,0.717 l 0,-36.211 -47.2001,0 z m 49.7049,0 0,36.211 43.6775,-3.2267 0,-32.9843 -43.6775,0 z m 46.1823,-1e-4 0.3523,33.3431 42.2686,-2.5099 0.3523,-30.8332 -42.9732,0 z m 45.4779,1e-4 0,30.833 45.4388,-2.1511 0.3522,-28.6819 -45.791,0 z m 48.296,0 0,27.9648 47.9043,-2.5095 0,-25.4553 -47.9043,0 z m 50.4092,0 0,25.0967 46.8478,-2.8682 0,-22.2285 -46.8478,0 z m 49.3525,0 0,22.2285 43.6776,-2.5097 0.3522,-19.7188 -44.0298,0 z m 46.5347,0 0,19.7188 50.0179,-2.5095 0.3522,-17.2093 -50.3701,0 z m -375.1342,-2.5096 1.4091,28.3234 c 2.583,7.5291 17.1772,11.3365 35.2238,12.9069 14.1506,0.9647 36.1783,1.3894 53.5403,0.3586 l 338.149,-20.0775 0,-21.5114 -428.3222,0 z"
         id="path847"
         inkscape:connector-curvature="0" /><g
         id="g996"
         transform="matrix(0.417166,0,0,0.398449,131.722,295.4557)"><ellipse
           style="fill:#808080;fill-opacity:1;fill-rule:evenodd;stroke:none;stroke-width:1pt;stroke-linecap:butt;stroke-linejoin:miter;stroke-opacity:1"
           id="path995"
           transform="matrix(0.999734,0.02090068,-0.02305266,0.906408,-0.09308809,4.801071)"
           cx="74.397202"
           cy="88.648766"
           rx="7.5475426"
           ry="16.173286" /><rect
           style="font-size:12px;fill:url(#linearGradient4542);fill-rule:evenodd"
           id="rect989"
           width="1.7312845"
           height="33.990944"
           x="99.953636"
           y="47.344337"
           transform="matrix(0.985009,-0.172502,0.132331,0.991206,0,0)" /><path
           style="font-size:12px;fill:url(#linearGradient4544);fill-rule:evenodd"
           d="m 111.095,61.38527 c -16.51849,0.23964 -14.78515,52.25423 0,52.49383 l 31.6613,5.1755 c -11.7135,-1.845 -15.5996,-12.7872 -14.8688,-27.10949 0.3427,-15.16777 5.7512,-28.71482 17.4566,-27.10952 L 111.095,61.38527 Z"
           id="path967"
           sodipodi:nodetypes="cccscc"
           inkscape:connector-curvature="0" /><path
           style="font-size:12px;fill:url(#linearGradient971);fill-rule:evenodd"
           d="m 118.9471,76.56081 c -7.8209,-0.4984 -11.8704,-17.49054 -13.7253,-30.52366 -2.0005,-12.71573 5.1212,-21.22745 17.2472,-20.45468 12.126,0.77259 17.9218,9.78078 15.4199,23.45333 -2.6209,13.64747 -9.3987,28.13314 -18.9418,27.52501 z"
           id="path961"
           sodipodi:nodetypes="cscsc"
           transform="matrix(0.974525,0,0,0.833659,3.779556,5.279968)"
           inkscape:connector-curvature="0" /><path
           style="font-size:12px;fill:url(#linearGradient980);fill-rule:evenodd;stroke-width:1"
           d="m 100.4902,90.15839 c 0,18.34081 1.2754,21.13301 6.0379,25.01471 -5.5975,0 -6.79576,-8.2846 -14.09766,-11.4303 L 74.62556,96.07239 c -3.70263,-1.59516 -6.17382,-2.29424 -6.05074,-9.79561 0.0924,-5.30815 4.09277,-7.71393 8.09664,-8.50342 l 15.28916,-3.0146 c 9.38868,-1.8512 11.55778,-13.06542 17.15528,-13.06542 -7.3503,4.3129 -8.6257,10.12406 -8.6257,28.46505 z"
           id="path979"
           sodipodi:nodetypes="ccssssscs"
           inkscape:connector-curvature="0" /><path
           style="font-size:12px;fill:url(#linearGradient975);fill-rule:evenodd"
           d="m 123.3484,94.47128 c 0,7.83502 -9.8478,13.36982 -21.9957,15.95752 -11.84059,2.7151 -21.99569,-3.8097 -21.99569,-15.95752 0,-12.1479 9.84781,-18.54538 22.85829,-16.82022 12.994,1.84532 21.1331,7.25998 21.1331,16.82022 z"
           id="path954"
           sodipodi:nodetypes="cscsc"
           transform="matrix(0.671419,-0.741078,0.741078,0.671419,-31.66728,109.4127)"
           inkscape:connector-curvature="0" /><ellipse
           style="font-size:12px;fill:url(#linearGradient972);fill-rule:evenodd;stroke-width:1"
           id="path955"
           transform="matrix(0.743357,-0.820479,1.111619,1.00713,-74.90868,85.8245)"
           cx="95.745956"
           cy="94.90258"
           rx="12.076069"
           ry="9.4883347" /><ellipse
           style="font-size:12px;fill:url(#linearGradient956);fill-rule:evenodd;stroke-width:1"
           id="path962"
           transform="matrix(-0.06635963,0.67747,-1.497303,-0.05511381,269.9933,-23.99242)"
           cx="95.745956"
           cy="94.90258"
           rx="12.076069"
           ry="9.4883347" /><rect
           style="font-size:12px;fill:url(#linearGradient4546);fill-rule:evenodd"
           id="rect990"
           width="14.663788"
           height="5.6066895"
           x="102.2153"
           y="33.228271"
           ry="2.8033447"
           transform="translate(1.725158,-6.038086)" /><g
           id="g983"
           style="fill:url(#linearGradient987)"><rect
             style="font-size:12px;fill:url(#linearGradient4548);fill-rule:evenodd;stroke-width:1"
             id="rect981"
             width="1.7251513"
             height="29.758915"
             x="96.417938"
             y="50.843666"
             transform="matrix(0.988511,-0.15115,0.15115,0.988511,0,0)" /><rect
             style="font-size:12px;fill:url(#linearGradient4550);fill-rule:evenodd"
             id="rect982"
             width="14.663788"
             height="5.6066895"
             x="102.2153"
             y="33.228271"
             ry="2.8033447" /></g><rect
           style="font-size:12px;fill:url(#linearGradient4449);fill-opacity:1;fill-rule:evenodd"
           id="rect993"
           width="14.663788"
           height="5.6066895"
           x="82.376053"
           y="105.25331"
           ry="2.8033447" /><rect
           style="font-size:12px;fill:url(#linearGradient4451);fill-rule:evenodd"
           id="rect994"
           width="14.663788"
           height="5.6066895"
           x="82.376053"
           y="97.058884"
           ry="2.8033447" /></g><path
         style="font-size:12px;fill:url(#linearGradient850);fill-opacity:1;fill-rule:evenodd"
         d="m 198.9224,310.6315 -0.518,36.9053 c 41.2695,3.9981 98.5978,0.1538 148.6738,-3.2293 l 0,-33.676 -148.1558,0 z"
         id="path849"
         sodipodi:nodetypes="ccccc"
         inkscape:connector-curvature="0" /><path
         style="font-size:12px;fill:url(#linearGradient4264);fill-opacity:1;fill-rule:evenodd"
         d="m 152.7473,311.3364 1.0989,26.0074 c 2.6862,2.9304 5.0061,4.7619 8.0586,5.8609 l -0.3663,-31.502 -8.7912,-0.3663 z m 11.7623,0 0,32.6007 c 7.2039,3.2967 15.1404,3.6629 23.8095,3.663 l 0,-36.2637 -23.8095,0 z m 26.4143,0 0,36.2637 c 16.3614,1.3431 32.7229,1.5872 49.0843,0.7326 l 0,-36.9963 -49.0843,0 z m 51.6891,0 0,36.9963 45.4212,-3.2967 0,-33.6996 -45.4212,0 z m 48.0259,-1e-4 0.3663,34.0661 43.9561,-2.5642 0.3663,-31.5019 -44.6887,0 z m 47.2935,1e-4 0,31.5017 47.2527,-2.1978 0.3663,-29.3039 -47.619,0 z m 50.2239,0 0,28.5713 49.8168,-2.564 0,-26.0073 -49.8168,0 z m 52.4216,0 0,25.641 48.718,-2.9304 0,-22.7106 -48.718,0 z m 51.3228,0 0,22.7106 45.4212,-2.5642 0.3663,-20.1464 -45.7875,0 z m 48.3923,0 0,20.1464 52.0147,-2.564 0.3663,-17.5824 -52.381,0 z m -390.1098,-2.5641 1.4652,28.9377 c 2.6862,7.6923 17.8629,11.5824 36.63,13.1868 14.7156,0.9857 37.6227,1.4196 55.6777,0.3664 l 351.6483,-20.5129 0,-21.978 -445.4212,0 z"
         id="path839"
         inkscape:connector-curvature="0" /><path
         style="font-size:12px;fill:url(#linearGradient4258);fill-opacity:1;fill-rule:evenodd"
         d="m 189.0799,309.0353 -0.7336,41.0584 c 41.0538,3.9468 98.8134,-2.2035 148.8894,-4.8297 l 0,-36.2287 -148.1558,0 z"
         id="path854"
         sodipodi:nodetypes="ccccc"
         inkscape:connector-curvature="0" /><path
         style="font-size:12px;fill:url(#linearGradient4552);fill-rule:evenodd;stroke-width:1"
         d="m 641.3175,295.7835 0.3421,37.676 c 0.0669,7.3709 -8.3159,10.9268 -13.2928,11.7957 -15.7931,2.7573 -31.7536,3.8566 -41.7842,-2.4711 -5.0154,-3.1639 -17.4201,-10.7458 -12.3969,-11.1146 l 23.0995,-1.6961 0.046,-22.2904 -21.1048,-0.456 c -6.1326,-0.1325 5.6444,-15.6582 9.3201,-19.0737 4.7582,-3.5813 24.924,-5.0613 40.2302,-5.0613 8.3374,0 15.4642,4.2588 15.5408,12.6915 z"
         id="path866"
         sodipodi:nodetypes="cssssccsscs"
         inkscape:connector-curvature="0" /><path
         style="font-size:12px;fill:url(#linearGradient865);fill-rule:evenodd;stroke-width:1"
         d="m 641.3175,295.7835 0.3421,37.676 c 0.0669,7.3709 -8.3159,10.9268 -13.2928,11.7957 -15.7931,2.7573 -31.7536,3.8566 -41.7842,-2.4711 -5.0154,-3.1639 -17.4201,-10.7458 -12.3969,-11.1146 l 23.0995,-1.6961 0.046,-22.2904 -21.1048,-0.456 c -6.1326,-0.1325 5.6444,-15.6582 9.3201,-19.0737 4.7582,-3.5813 24.924,-5.0613 40.2302,-5.0613 8.3374,0 15.4642,4.2588 15.5408,12.6915 z"
         id="path867"
         sodipodi:nodetypes="cssssccsscs"
         inkscape:connector-curvature="0" /><path
         style="font-size:12px;fill:url(#linearGradient4266);fill-opacity:1;fill-rule:evenodd;stroke-width:1"
         d="m 641.3175,295.7835 0.3421,37.676 c 0.0669,7.3709 -8.3159,10.9268 -13.2928,11.7957 -15.7931,2.7573 -31.7536,3.8566 -41.7842,-2.4711 -5.0154,-3.1639 -17.4201,-10.7458 -12.3969,-11.1146 l 23.0995,-1.6961 0.046,-22.2904 -21.1048,-0.456 c -6.1326,-0.1325 5.6444,-15.6582 9.3201,-19.0737 4.7582,-3.5813 24.924,-5.0613 40.2302,-5.0613 8.3374,0 15.4642,4.2588 15.5408,12.6915 z"
         id="path868"
         sodipodi:nodetypes="cssssccsscs"
         inkscape:connector-curvature="0" /><path
         style="font-size:12px;fill:url(#linearGradient4268);fill-opacity:1;fill-rule:evenodd;stroke-width:1"
         d="m 478.1389,373.1051 c 0,9.7274 -6.8418,17.6129 -15.2817,17.6129 -8.4399,0 -15.2818,-7.8855 -15.2818,-17.6129 0,-9.7273 6.8419,-17.6129 15.2818,-17.6129 8.4399,0 15.2817,7.8856 15.2817,17.6129 z m -3.3139,1e-4 c 0,7.8242 -5.523,14.1669 -12.3359,14.1669 -6.813,0 -12.3359,-6.3427 -12.3359,-14.1669 0,-7.8241 5.5229,-14.1669 12.3359,-14.1669 6.8129,0 12.3359,6.3428 12.3359,14.1669 z"
         id="path869"
         inkscape:connector-curvature="0" /><path
         style="font-size:12px;fill:url(#linearGradient4554);fill-rule:evenodd;stroke-width:1"
         d="M 173.0209,309.5112 C 114.5874,292.4164 44.55034,267.2513 44.55034,262.8888 c 0,-30.782 177.51106,39.9216 233.35436,59.0886 -49.1101,-6.4945 -84.2662,-12.4662 -104.8838,-12.4662 z"
         id="path872"
         sodipodi:nodetypes="cscc"
         inkscape:connector-curvature="0" /><path
         style="font-size:12px;fill:url(#linearGradient4556);fill-rule:evenodd;stroke-width:1"
         d="M 173.0209,309.5112 C 114.5874,292.4164 44.55034,267.2513 44.55034,262.8888 c 0,-30.782 178.73096,39.9216 234.57426,59.0886 -49.1101,-6.4945 -85.4861,-12.4662 -106.1037,-12.4662 z"
         id="path877"
         sodipodi:nodetypes="cscc"
         inkscape:connector-curvature="0" /><path
         style="font-size:12px;fill:url(#linearGradient873);fill-rule:evenodd;stroke-width:1"
         d="M 173.0209,309.5112 C 114.5874,292.4164 44.55034,267.2513 44.55034,262.8888 c 0,-30.782 178.73086,40.5315 234.57416,59.6985 -49.11,-6.4945 -85.486,-13.0761 -106.1036,-13.0761 z"
         id="path878"
         sodipodi:nodetypes="cscc"
         inkscape:connector-curvature="0" /><path
         style="font-size:12px;fill:url(#linearGradient4260);fill-opacity:1;fill-rule:evenodd;stroke-width:1"
         d="M 173.0209,309.5112 C 114.5874,292.4164 44.55034,267.2513 44.55034,262.8888 c 0,-30.782 178.05716,39.84 233.90046,59.007 -49.1101,-6.4944 -84.8123,-12.3846 -105.4299,-12.3846 z"
         id="path879"
         sodipodi:nodetypes="cscc"
         inkscape:connector-curvature="0" /><path
         style="font-size:12px;fill:url(#linearGradient884);fill-opacity:1;fill-rule:evenodd"
         d="m 222.019,351.8064 29.5015,37.7531 4.0186,-0.0314 26.2254,-39.8566 -3.0244,0.3349 -23.097,35.1293 12.8041,-34.5484 -2.1721,-0.1832 -13.0246,35.4772 -14.0033,-34.6557 -1.9261,0.1831 13.5779,33.5514 -25.8235,-33.1537 -3.0565,0 z"
         id="path881"
         sodipodi:nodetypes="cccccccccccccc"
         inkscape:connector-curvature="0" /><path
         style="font-size:12px;fill:url(#linearGradient912);fill-opacity:1;fill-rule:evenodd;stroke-width:1"
         d="m 569.8058,334.72 c -6.038,4.5397 -17.7349,6.3013 -38.8159,12.5073 -1.3388,0.3942 -3.3978,-0.2485 -4.9922,-0.7107 l -34.7341,-10.067 c 0,-18.3409 43.9568,-18.1402 65.9609,-16.415 1.4038,1.0783 5.6337,4.6193 5.7486,6.3426 0.1527,2.4419 -18.7312,7.5509 -16.9627,7.4163 l 21.829,-1.6624 c 1.8908,-0.1439 0.8881,0.8071 1.9664,2.5889 z"
         id="path902"
         sodipodi:nodetypes="cssccsssc"
         inkscape:connector-curvature="0" /><path
         style="font-size:12px;fill:url(#linearGradient4558);fill-opacity:0.6464;fill-rule:evenodd;stroke-width:1"
         d="m 491.4161,336.602 c 0,-18.3409 43.9568,-18.1402 65.9609,-16.415 1.4038,1.0783 5.6337,4.6193 5.7486,6.3426 0.1527,2.4419 -18.7312,7.5509 -16.9627,7.4163 l -54.7468,2.6561 z"
         id="path908"
         sodipodi:nodetypes="ccssc"
         inkscape:connector-curvature="0" /><path
         style="font-size:12px;fill:url(#linearGradient4560);fill-opacity:0.6464;fill-rule:evenodd;stroke-width:1"
         d="m 491.4161,336.602 c 0,-18.3409 43.9568,-18.1402 65.9609,-16.415 1.4038,1.0783 5.6337,4.6193 5.7486,6.3426 0.1527,2.4419 -18.7312,7.5509 -16.9627,7.4163 l -54.7468,2.6561 z"
         id="path909"
         sodipodi:nodetypes="ccssc"
         inkscape:connector-curvature="0" /><path
         style="font-size:12px;fill:url(#linearGradient903);fill-opacity:0.6464;fill-rule:evenodd;stroke-width:1"
         d="m 491.4161,336.602 c 0,-18.3409 43.9568,-18.1402 65.9609,-16.415 1.4038,1.0783 5.6337,4.6193 5.7486,6.3426 0.1527,2.4419 -18.7312,7.5509 -16.9627,7.4163 l -54.7468,2.6561 z"
         id="path910"
         sodipodi:nodetypes="ccssc"
         inkscape:connector-curvature="0" /><path
         style="font-size:12px;fill:url(#linearGradient4256);fill-opacity:1;fill-rule:evenodd;stroke-width:1"
         d="m 491.4161,336.602 c 0,-18.3409 43.9568,-18.1402 65.9609,-16.415 1.4038,1.0783 5.6337,4.6193 5.7486,6.3426 0.1527,2.4419 -18.7312,7.5509 -16.9627,7.4163 l -54.7468,2.6561 z"
         id="path911"
         sodipodi:nodetypes="ccssc"
         inkscape:connector-curvature="0" /><path
         style="fill:none;fill-opacity:1;fill-rule:evenodd;stroke:#000000;stroke-width:0.5;stroke-linecap:round;stroke-linejoin:round;stroke-dasharray:none;stroke-opacity:1"
         d="M 91.43309,279.4938 152.676,390.7662"
         id="path913"
         inkscape:connector-curvature="0" /><path
         style="fill:none;fill-opacity:1;fill-rule:evenodd;stroke:#000000;stroke-width:0.5;stroke-linecap:round;stroke-linejoin:round;stroke-dasharray:none;stroke-opacity:1"
         d="M 122.4858,277.7687 253.5974,388.1785"
         id="path914"
         inkscape:connector-curvature="0" /><path
         style="fill:none;fill-opacity:1;fill-rule:evenodd;stroke:#000000;stroke-width:0.5;stroke-linecap:round;stroke-linejoin:round;stroke-dasharray:none;stroke-opacity:1"
         d="m 134.5619,291.5699 18.9767,97.4711"
         id="path915"
         inkscape:connector-curvature="0" /><path
         style="fill:none;fill-opacity:1;fill-rule:evenodd;stroke:#000000;stroke-width:0.5;stroke-linecap:round;stroke-linejoin:round;stroke-dasharray:none;stroke-opacity:1"
         d="m 181.141,297.608 71.5938,88.8453"
         id="path916"
         inkscape:connector-curvature="0" /><path
         style="font-size:12px;fill:url(#linearGradient940);fill-rule:evenodd"
         d="m 413.2267,341.1457 23.6684,21.9651 24.3859,12.4162 c 1.1024,0.5613 2.6187,-0.6092 3.343,-1.6124 l 26.888,-37.2388 -2.3262,0.1263 -26.0866,35.4487 -15.0644,-32.9089 -2.3,-0.0369 15.6068,33.9269 -23.4543,-11.9806 -22.3868,-20.3673 -2.2738,0.2617 z"
         id="path930"
         sodipodi:nodetypes="ccssccccccccc"
         inkscape:connector-curvature="0" /><rect
         style="font-size:12px;fill:url(#linearGradient4453);fill-rule:evenodd"
         id="rect897"
         width="42.124619"
         height="2.197876"
         x="143.88118"
         y="394.48517"
         transform="matrix(0.99955,-0.03000884,0.03000884,0.99955,0,0)" /><rect
         style="font-size:12px;fill:url(#linearGradient4419);fill-rule:evenodd"
         id="rect899"
         width="2.5877011"
         height="79.000961"
         x="153.79594"
         y="315.0376"
         transform="matrix(0.999748,-0.02245086,0.02314884,0.999732,0,0)" /><rect
         style="font-size:12px;fill:url(#linearGradient950);fill-opacity:1;fill-rule:evenodd"
         id="rect896"
         width="42.124638"
         height="2.1978769"
         x="154.6403"
         y="415.03806"
         transform="matrix(0.997961,-0.06383354,0.06383354,0.997961,0,0)" /><path
         style="font-size:12px;fill:url(#linearGradient859);fill-rule:evenodd;stroke-width:1"
         d="m 199.1649,402.1367 c 2.207,12.4043 -4.9058,24.1288 -15.887,26.1875 -10.9811,2.0587 -21.6722,-6.3281 -23.8792,-18.7324 -2.2071,-12.4043 4.9058,-24.1288 15.8869,-26.1876 10.9812,-2.0587 21.6723,6.3282 23.8793,18.7325 z m -4.3118,0.8084 c 1.7753,9.9774 -3.9718,19.4128 -12.8358,21.0746 -8.8644,1.6619 -17.4894,-5.0792 -19.2647,-15.0566 -1.7752,-9.9773 3.9716,-19.4128 12.836,-21.0746 8.8642,-1.6619 17.4892,5.0793 19.2645,15.0566 z"
         id="path862"
         inkscape:connector-curvature="0" /><path
         style="font-size:12px;fill:url(#linearGradient941);fill-rule:evenodd"
         d="m 153.8464,349.3074 1.8315,42.4572 23.077,12.6045 -24.9085,-55.0617 z m -4.2216,-38.12 2.9932,79.0493 c -0.8621,0.4846 -0.9471,2.142 -0.2551,2.6265 l 26.9414,14.823 c 1.4506,0.798 3.7885,-2.2383 3.1136,-3.6487 l -28.5715,-59.7054 -0.5808,-32.0887 10.0997,-0.5205 0.2572,-3.1108 -10.3642,0.2541 c -1.4368,0.0352 -3.6879,0.885 -3.6335,2.3212 z"
         id="path894"
         sodipodi:nodetypes="cccccccssccccss"
         inkscape:connector-curvature="0" /><rect
         style="font-size:12px;fill:url(#linearGradient4417);fill-opacity:1;fill-rule:evenodd"
         id="rect898"
         width="5.1324058"
         height="9.3694048"
         x="132.16397"
         y="351.96155"
         ry="1.7349938"
         transform="matrix(0.997555,-0.06988408,0.05029593,0.998734,0,0)" /><path
         style="font-size:12px;fill:#d2e7e6;fill-opacity:1;fill-rule:evenodd"
         d="m 256.8914,303.6722 c 0,0.4313 -0.5468,0.6282 -0.5468,1.0596 0,0.4312 0.1953,0.2766 0.1953,0.7079 0,0.4313 -0.3906,0.0422 -0.3906,0.4735 0,0.4313 -0.0391,0.1595 -0.0391,0.5908 6.5412,0 4.3324,-1.6797 10.8736,-1.6797 6.5413,0 6.8325,0.7422 13.3737,0.7422 6.5412,0 -2.2475,1.3515 4.2937,1.3515 6.5412,0 0.708,-1.8783 7.2492,-1.8783 7.0711,-0.0999 -1.8782,-3.7498 0,-5.1755 -6.5412,0 -1.2604,2.3202 -7.8016,2.3202 -6.5413,0 1.3155,-1.1684 -5.2257,-1.1684 -6.5412,0 -5.2309,1.0156 -11.7721,1.0156 -6.5412,0 -3.6684,1.6406 -10.2096,1.6406 z"
         id="path1374"
         sodipodi:nodetypes="cssscsssccsssc"
         inkscape:connector-curvature="0" /></g></g></svg>