<!--Created with Inkscape (http://www.inkscape.org/)--><svg xmlns:dc="http://purl.org/dc/elements/1.1/" xmlns:cc="http://creativecommons.org/ns#" xmlns:rdf="http://www.w3.org/1999/02/22-rdf-syntax-ns#" xmlns="http://www.w3.org/2000/svg" xmlns:xlink="http://www.w3.org/1999/xlink" xmlns:sodipodi="http://sodipodi.sourceforge.net/DTD/sodipodi-0.dtd" xmlns:inkscape="http://www.inkscape.org/namespaces/inkscape" sodipodi:version="0.32" inkscape:version="0.91 r13725" width="298.92682" height="242.0787" sodipodi:docname="bolle1878.svg" inkscape:export-filename="/home/franck/Gcompris/Originaux/bolle.png" inkscape:export-xdpi="72.000000" inkscape:export-ydpi="72.000000" inkscape:output_extension="org.inkscape.output.svg.inkscape" version="1.0" sodipodi:modified="true"><defs><linearGradient id="d"><stop style="stop-color:#000;stop-opacity:1" offset="0"/><stop style="stop-color:#fff;stop-opacity:1" offset="1"/></linearGradient><linearGradient inkscape:collect="always" xlink:href="#c" id="bP" x1="562.50146" y1="536.8902" x2="577.14465" y2="521.62964" gradientTransform="scale(.6275 1.59364)" gradientUnits="userSpaceOnUse"/><linearGradient id="c"><stop style="stop-color:#000;stop-opacity:1" offset="0.0000000"/><stop style="stop-color:#b4b4b4;stop-opacity:1" offset="1.0000000"/></linearGradient><linearGradient id="g"><stop style="stop-color:#8f776a;stop-opacity:1" offset="0.0000000"/><stop style="stop-color:#f5ddca;stop-opacity:1" offset="1.0000000"/></linearGradient><linearGradient id="a"><stop style="stop-color:#c5773f;stop-opacity:1" offset="0.0000000"/><stop style="stop-color:#fd5;stop-opacity:1" offset="1.0000000"/></linearGradient><linearGradient id="h"><stop style="stop-color:#155200;stop-opacity:1" offset="0.0000000"/><stop style="stop-color:#009f00;stop-opacity:1" offset="1.0000000"/></linearGradient><linearGradient id="f"><stop style="stop-color:#654d27;stop-opacity:1" offset="0.0000000"/><stop style="stop-color:#9f7a62;stop-opacity:1" offset="1.0000000"/></linearGradient><linearGradient id="e"><stop style="stop-color:#000;stop-opacity:1" offset="0"/><stop style="stop-color:#fff;stop-opacity:1" offset="1"/></linearGradient><linearGradient inkscape:collect="always" xlink:href="#a" id="i" x1="664.26282" y1="420.89069" x2="678.26849" y2="406.29456" gradientTransform="scale(.73265 1.3649)" gradientUnits="userSpaceOnUse"/><linearGradient inkscape:collect="always" xlink:href="#b" id="j" gradientTransform="scale(.53944 1.85378)" spreadMethod="reflect" x1="190.0224" y1="369.85568" x2="216.32643" y2="369.41687" gradientUnits="userSpaceOnUse"/><linearGradient inkscape:collect="always" xlink:href="#b" id="k" gradientTransform="scale(1.58114 .63246)" spreadMethod="reflect" x1="73.260735" y1="995.11285" x2="73.260735" y2="997.46527" gradientUnits="userSpaceOnUse"/><linearGradient inkscape:collect="always" xlink:href="#b" id="l" gradientTransform="scale(.80207 1.24677)" spreadMethod="reflect" x1="103.06534" y1="478.51331" x2="158.21536" y2="478.51331" gradientUnits="userSpaceOnUse"/><linearGradient inkscape:collect="always" xlink:href="#b" id="m" gradientTransform="scale(.58546 1.70807)" spreadMethod="reflect" x1="142.64392" y1="357.81387" x2="123.85698" y2="358.14713" gradientUnits="userSpaceOnUse"/><linearGradient inkscape:collect="always" xlink:href="#b" id="n" gradientTransform="scale(1.55091 .64478)" spreadMethod="reflect" x1="85.624756" y1="931.16986" x2="85.624756" y2="941.50574" gradientUnits="userSpaceOnUse"/><linearGradient inkscape:collect="always" xlink:href="#a" id="bO" x1="674.88721" y1="424.96313" x2="688.89294" y2="410.367" gradientTransform="scale(.73265 1.3649)" gradientUnits="userSpaceOnUse"/><linearGradient inkscape:collect="always" xlink:href="#b" id="p" gradientTransform="scale(.8165 1.22475)" spreadMethod="reflect" x1="120.24048" y1="449.73453" x2="140.89604" y2="449.99918" gradientUnits="userSpaceOnUse"/><linearGradient inkscape:collect="always" xlink:href="#b" id="q" gradientTransform="scale(.54233 1.8439)" spreadMethod="reflect" x1="187.12021" y1="292.36914" x2="191.98967" y2="292.45245" gradientUnits="userSpaceOnUse"/><linearGradient inkscape:collect="always" xlink:href="#b" id="r" spreadMethod="reflect" x1="159.68382" y1="371.86456" x2="222.52448" y2="371.86456" gradientTransform="scale(.63782 1.56784)" gradientUnits="userSpaceOnUse"/><linearGradient inkscape:collect="always" xlink:href="#b" id="s" gradientTransform="scale(1.33333 .75)" spreadMethod="reflect" x1="81.269882" y1="722.17139" x2="81.269882" y2="725.92047" gradientUnits="userSpaceOnUse"/><linearGradient inkscape:collect="always" xlink:href="#b" id="t" gradientTransform="scale(1.95532 .51142)" spreadMethod="reflect" x1="61.655094" y1="1122.2972" x2="88.097076" y2="1121.9052" gradientUnits="userSpaceOnUse"/><linearGradient inkscape:collect="always" xlink:href="#b" id="u" gradientTransform="scale(.89443 1.11803)" spreadMethod="reflect" x1="117.63835" y1="593.02197" x2="128.31371" y2="593.51202" gradientUnits="userSpaceOnUse"/><linearGradient inkscape:collect="always" xlink:href="#b" id="v" gradientTransform="scale(1.5305 .65338)" spreadMethod="reflect" x1="76.940369" y1="966.24774" x2="139.78102" y2="966.24774" gradientUnits="userSpaceOnUse"/><linearGradient inkscape:collect="always" xlink:href="#b" id="w" gradientTransform="scale(.52705 1.89737)" spreadMethod="reflect" x1="169.36865" y1="354.92496" x2="175.57945" y2="355.01315" gradientUnits="userSpaceOnUse"/><linearGradient inkscape:collect="always" xlink:href="#b" id="x" gradientTransform="scale(.52016 1.9225)" spreadMethod="reflect" x1="224.25725" y1="337.74698" x2="235.45247" y2="337.54114" gradientUnits="userSpaceOnUse"/><linearGradient inkscape:collect="always" xlink:href="#c" id="y" gradientTransform="scale(.63782 1.56784)" x1="259.68591" y1="475.06625" x2="299.00092" y2="475.06625" gradientUnits="userSpaceOnUse"/><linearGradient inkscape:collect="always" xlink:href="#d" id="z" x1="391.6846" y1="921.71918" x2="344.95953" y2="1031.5995" gradientTransform="scale(1.16378 .85927)" gradientUnits="userSpaceOnUse"/><linearGradient inkscape:collect="always" xlink:href="#e" id="A" gradientUnits="userSpaceOnUse" x1="612.46759" y1="935.95026" x2="704.76996" y2="935.95026"/><linearGradient inkscape:collect="always" xlink:href="#e" id="B" x1="682.59436" y1="904.93085" x2="772.31195" y2="853.11285" gradientTransform="scale(.96324 1.03816)" gradientUnits="userSpaceOnUse"/><linearGradient inkscape:collect="always" xlink:href="#e" id="C" x1="640.49927" y1="944.93182" x2="747.9574" y2="860.05023" gradientTransform="scale(.9801 1.0203)" gradientUnits="userSpaceOnUse"/><linearGradient inkscape:collect="always" xlink:href="#a" id="bN" x1="95.867134" y1="752.15259" x2="99.861595" y2="752.15259" gradientTransform="scale(1.04462 .95728)" gradientUnits="userSpaceOnUse"/><linearGradient inkscape:collect="always" xlink:href="#e" id="E" x1="682.59436" y1="904.93085" x2="772.31195" y2="853.11285" gradientTransform="scale(.96324 1.03816)" gradientUnits="userSpaceOnUse"/><linearGradient inkscape:collect="always" xlink:href="#e" id="F" x1="640.49927" y1="944.93182" x2="747.9574" y2="860.05023" gradientTransform="scale(.9801 1.0203)" gradientUnits="userSpaceOnUse"/><linearGradient inkscape:collect="always" xlink:href="#d" id="G" x1="173.98358" y1="1484.7023" x2="172.74899" y2="1642.4911" gradientTransform="scale(1.79497 .55711)" gradientUnits="userSpaceOnUse"/><linearGradient inkscape:collect="always" xlink:href="#d" id="H" gradientTransform="scale(3.054 .32744)" x1="289.34106" y1="1549.2728" x2="288.10648" y2="1707.0616" gradientUnits="userSpaceOnUse"/><linearGradient inkscape:collect="always" xlink:href="#d" id="I" gradientTransform="scale(.8532 1.17206)" x1="297.36438" y1="720.08972" x2="296.12979" y2="877.87854" gradientUnits="userSpaceOnUse"/><linearGradient inkscape:collect="always" xlink:href="#d" id="J" gradientTransform="scale(6.67832 .14974)" x1="68.029861" y1="5685.9307" x2="66.79528" y2="5843.7197" gradientUnits="userSpaceOnUse"/><linearGradient inkscape:collect="always" xlink:href="#c" id="K" spreadMethod="reflect" x1="202.91924" y1="906.52026" x2="224.29681" y2="909.99677" gradientTransform="scale(1.26874 .78818)" gradientUnits="userSpaceOnUse"/><linearGradient inkscape:collect="always" xlink:href="#c" id="L" gradientTransform="scale(1.42248 .703)" x1="328.54196" y1="1111.1476" x2="391.85471" y2="1111.1476" gradientUnits="userSpaceOnUse"/><linearGradient inkscape:collect="always" xlink:href="#c" id="M" spreadMethod="reflect" x1="1320.0823" y1="299.14618" x2="1328.51" y2="304.01147" gradientTransform="scale(.38642 2.58786)" gradientUnits="userSpaceOnUse"/><linearGradient inkscape:collect="always" xlink:href="#c" id="N" spreadMethod="reflect" x1="1177.6938" y1="319.23624" x2="1209.8824" y2="325.77457" gradientTransform="scale(.44123 2.26637)" gradientUnits="userSpaceOnUse"/><linearGradient inkscape:collect="always" xlink:href="#f" id="O" x1="132.99516" y1="2116.3333" x2="176.38734" y2="2116.3333" gradientTransform="scale(3.0491 .32797)" gradientUnits="userSpaceOnUse"/><linearGradient inkscape:collect="always" xlink:href="#e" id="P" gradientUnits="userSpaceOnUse" gradientTransform="scale(.40557 2.46564)" spreadMethod="reflect" x1="1356.1283" y1="247.75916" x2="1302.8967" y2="302.02283"/><linearGradient inkscape:collect="always" xlink:href="#c" id="Q" spreadMethod="reflect" x1="1109.7084" y1="367.88312" x2="1132.547" y2="381.0679" gradientTransform="scale(.49461 2.02179)" gradientUnits="userSpaceOnUse"/><linearGradient inkscape:collect="always" xlink:href="#c" id="R" gradientUnits="userSpaceOnUse" gradientTransform="matrix(.1796 0 0 5.56776 -.225 -4.505)" spreadMethod="reflect" x1="2288.9619" y1="116.58549" x2="2310.866" y2="116.58549"/><linearGradient inkscape:collect="always" xlink:href="#g" id="S" x1="319.69629" y1="826.88757" x2="346.42221" y2="837.93976" gradientTransform="scale(1.4594 .68521)" gradientUnits="userSpaceOnUse"/><linearGradient inkscape:collect="always" xlink:href="#c" id="T" spreadMethod="reflect" x1="611.74841" y1="511.19705" x2="637.61047" y2="511.19705" gradientTransform="scale(.7 1.42857)" gradientUnits="userSpaceOnUse"/><linearGradient inkscape:collect="always" xlink:href="#f" id="bM" x1="215.42056" y1="329.18784" x2="225.61211" y2="329.18784" gradientTransform="scale(.46318 2.15899)" gradientUnits="userSpaceOnUse"/><linearGradient inkscape:collect="always" xlink:href="#b" id="V" gradientTransform="scale(.53944 1.85378)" spreadMethod="reflect" x1="190.0224" y1="369.85568" x2="216.32643" y2="369.41687" gradientUnits="userSpaceOnUse"/><linearGradient inkscape:collect="always" xlink:href="#b" id="W" gradientTransform="scale(1.58114 .63246)" spreadMethod="reflect" x1="73.260735" y1="995.11285" x2="73.260735" y2="997.46527" gradientUnits="userSpaceOnUse"/><linearGradient inkscape:collect="always" xlink:href="#b" id="X" gradientTransform="scale(.76283 1.31092)" spreadMethod="reflect" x1="108.66324" y1="455.09875" x2="161.11469" y2="455.09875" gradientUnits="userSpaceOnUse"/><linearGradient inkscape:collect="always" xlink:href="#b" id="Y" gradientTransform="scale(.58546 1.70807)" spreadMethod="reflect" x1="142.64392" y1="357.81387" x2="123.85698" y2="358.14713" gradientUnits="userSpaceOnUse"/><linearGradient inkscape:collect="always" xlink:href="#b" id="Z" gradientTransform="scale(1.41881 .70482)" spreadMethod="reflect" x1="87.84539" y1="851.85699" x2="87.84539" y2="861.3125" gradientUnits="userSpaceOnUse"/><linearGradient inkscape:collect="always" xlink:href="#a" id="bL" x1="95.867134" y1="752.15259" x2="99.861595" y2="752.15259" gradientTransform="scale(1.04462 .95728)" gradientUnits="userSpaceOnUse"/><linearGradient inkscape:collect="always" xlink:href="#b" id="ab" gradientTransform="scale(.8165 1.22475)" spreadMethod="reflect" x1="120.24048" y1="449.73453" x2="140.89604" y2="449.99918" gradientUnits="userSpaceOnUse"/><linearGradient inkscape:collect="always" xlink:href="#b" id="ac" gradientTransform="scale(.54233 1.8439)" spreadMethod="reflect" x1="187.12021" y1="292.36914" x2="191.98967" y2="292.45245" gradientUnits="userSpaceOnUse"/><linearGradient inkscape:collect="always" xlink:href="#b" id="ad" spreadMethod="reflect" x1="100.64614" y1="570.24365" x2="137.54773" y2="570.24365" gradientTransform="scale(1.01602 .98423)" gradientUnits="userSpaceOnUse"/><linearGradient inkscape:collect="always" xlink:href="#b" id="ae" gradientTransform="scale(1.33333 .75)" spreadMethod="reflect" x1="81.269882" y1="722.17139" x2="81.269882" y2="725.92047" gradientUnits="userSpaceOnUse"/><linearGradient inkscape:collect="always" xlink:href="#b" id="af" gradientTransform="scale(1.83248 .5457)" spreadMethod="reflect" x1="64.193153" y1="1051.7878" x2="88.973892" y2="1051.4203" gradientUnits="userSpaceOnUse"/><linearGradient inkscape:collect="always" xlink:href="#b" id="ag" gradientTransform="scale(.89443 1.11803)" spreadMethod="reflect" x1="117.63835" y1="593.02197" x2="128.31371" y2="593.51202" gradientUnits="userSpaceOnUse"/><linearGradient inkscape:collect="always" xlink:href="#b" id="ah" gradientTransform="scale(1.5305 .65338)" spreadMethod="reflect" x1="76.940369" y1="966.24774" x2="139.78102" y2="966.24774" gradientUnits="userSpaceOnUse"/><linearGradient inkscape:collect="always" xlink:href="#b" id="ai" gradientTransform="scale(.52705 1.89737)" spreadMethod="reflect" x1="169.36865" y1="354.92496" x2="175.57945" y2="355.01315" gradientUnits="userSpaceOnUse"/><linearGradient inkscape:collect="always" xlink:href="#b" id="aj" gradientTransform="scale(.52016 1.9225)" spreadMethod="reflect" x1="224.25725" y1="337.74698" x2="235.45247" y2="337.54114" gradientUnits="userSpaceOnUse"/><linearGradient inkscape:collect="always" xlink:href="#f" id="bK" x1="215.42056" y1="329.18784" x2="225.61211" y2="329.18784" gradientTransform="scale(.46318 2.15899)" gradientUnits="userSpaceOnUse"/><linearGradient inkscape:collect="always" xlink:href="#g" id="al" gradientTransform="scale(.65361 1.52996)" x1="471.82669" y1="431.98761" x2="534.18207" y2="431.98761" gradientUnits="userSpaceOnUse"/><linearGradient inkscape:collect="always" xlink:href="#g" id="am" x1="396.0914" y1="689.13483" x2="488.09039" y2="601.61652" gradientTransform="scale(.9616 1.03993)" gradientUnits="userSpaceOnUse"/><linearGradient inkscape:collect="always" xlink:href="#g" id="an" gradientTransform="scale(.74265 1.34653)" x1="467.67026" y1="493.28802" x2="538.8233" y2="493.28802" gradientUnits="userSpaceOnUse"/><linearGradient inkscape:collect="always" xlink:href="#g" id="ao" gradientTransform="scale(.62458 1.60107)" x1="534.05713" y1="413.04749" x2="595.0675" y2="413.04749" gradientUnits="userSpaceOnUse"/><linearGradient inkscape:collect="always" xlink:href="#h" id="ap" x1="341.74237" y1="854.64429" x2="356.24942" y2="850.60535" gradientTransform="scale(1.14573 .8728)" gradientUnits="userSpaceOnUse"/><linearGradient inkscape:collect="always" xlink:href="#f" id="aq" x1="298.88589" y1="1080.1997" x2="246.24075" y2="1090.1379" gradientTransform="scale(1.43553 .6966)" gradientUnits="userSpaceOnUse"/><linearGradient inkscape:collect="always" xlink:href="#h" id="ar" gradientTransform="scale(.86393 1.1575)" x1="137.74956" y1="685.06946" x2="229.96208" y2="685.06946" gradientUnits="userSpaceOnUse"/><linearGradient inkscape:collect="always" xlink:href="#h" id="as" x1="102.49279" y1="1018.6412" x2="103.6475" y2="1080.0212" gradientTransform="scale(1.4368 .69599)" gradientUnits="userSpaceOnUse"/><linearGradient inkscape:collect="always" xlink:href="#e" id="at" x1="414.61084" y1="921.61389" x2="475.67975" y2="849.60291" gradientTransform="scale(1.1836 .84488)" gradientUnits="userSpaceOnUse"/><linearGradient inkscape:collect="always" xlink:href="#h" id="au" x1="276.85547" y1="335.92209" x2="326.1066" y2="336.27728" gradientTransform="scale(.42185 2.37049)" gradientUnits="userSpaceOnUse"/><linearGradient id="b"><stop style="stop-color:#f09e1d;stop-opacity:1" offset="0.0000000"/><stop style="stop-color:#ffffa8;stop-opacity:1" offset="1.0000000"/></linearGradient><linearGradient inkscape:collect="always" xlink:href="#e" id="aw" x1="682.59436" y1="904.93085" x2="772.31195" y2="853.11285" gradientTransform="scale(.96324 1.03816)" gradientUnits="userSpaceOnUse"/><linearGradient inkscape:collect="always" xlink:href="#e" id="ax" x1="640.49927" y1="944.93182" x2="747.9574" y2="860.05023" gradientTransform="scale(.9801 1.0203)" gradientUnits="userSpaceOnUse"/><linearGradient inkscape:collect="always" xlink:href="#h" id="ay" gradientTransform="scale(2.18675 .4573)" x1="57.271217" y1="1744.1057" x2="157.36433" y2="1744.1057" gradientUnits="userSpaceOnUse"/><linearGradient inkscape:collect="always" xlink:href="#f" id="az" x1="253.91885" y1="885.54523" x2="290.33228" y2="875.18488" gradientTransform="scale(1.17168 .85347)" gradientUnits="userSpaceOnUse"/><linearGradient inkscape:collect="always" xlink:href="#h" id="aA" gradientTransform="scale(1.03346 .96762)" x1="218.8551" y1="774.26398" x2="301.69397" y2="774.26398" gradientUnits="userSpaceOnUse"/><linearGradient inkscape:collect="always" xlink:href="#h" id="aB" x1="132.17183" y1="1179.7611" x2="121.79564" y2="1276.1591" gradientTransform="scale(1.57866 .63345)" gradientUnits="userSpaceOnUse"/><linearGradient inkscape:collect="always" xlink:href="#f" id="aC" x1="190.33276" y1="900.82446" x2="231.14575" y2="860.33643" gradientTransform="scale(1.20674 .82868)" gradientUnits="userSpaceOnUse"/><linearGradient inkscape:collect="always" xlink:href="#e" id="aD" x1="213.82941" y1="1317.4493" x2="157.235" y2="1167.4325" gradientTransform="scale(1.55282 .644)" gradientUnits="userSpaceOnUse"/><linearGradient inkscape:collect="always" xlink:href="#h" id="aE" x1="235.1711" y1="1118.3295" x2="302.00491" y2="1023.3163" gradientTransform="scale(1.35874 .73597)" gradientUnits="userSpaceOnUse"/><linearGradient inkscape:collect="always" xlink:href="#a" id="aF" x1="494.63336" y1="812.01447" x2="477.04413" y2="811.05719" gradientTransform="scale(.96741 1.03368)" gradientUnits="userSpaceOnUse"/><linearGradient inkscape:collect="always" xlink:href="#f" id="aG" x1="202.73322" y1="1586.3145" x2="261.44623" y2="1586.3145" gradientTransform="scale(2.19702 .45516)" gradientUnits="userSpaceOnUse"/><linearGradient inkscape:collect="always" xlink:href="#a" id="aH" x1="371.30081" y1="961.23828" x2="394.63171" y2="961.23828" gradientTransform="scale(1.27571 .78388)" gradientUnits="userSpaceOnUse"/><linearGradient inkscape:collect="always" xlink:href="#a" id="bJ" x1="95.867134" y1="752.15259" x2="99.861595" y2="752.15259" gradientTransform="scale(1.04462 .95728)" gradientUnits="userSpaceOnUse"/><linearGradient inkscape:collect="always" xlink:href="#e" id="aJ" x1="682.59436" y1="904.93085" x2="772.31195" y2="853.11285" gradientTransform="scale(.96324 1.03816)" gradientUnits="userSpaceOnUse"/><linearGradient inkscape:collect="always" xlink:href="#e" id="aK" x1="640.49927" y1="944.93182" x2="747.9574" y2="860.05023" gradientTransform="scale(.9801 1.0203)" gradientUnits="userSpaceOnUse"/><linearGradient inkscape:collect="always" xlink:href="#a" id="aL" x1="494.63336" y1="812.01447" x2="477.04413" y2="811.05719" gradientTransform="scale(.96741 1.03368)" gradientUnits="userSpaceOnUse"/><linearGradient inkscape:collect="always" xlink:href="#g" id="aM" x1="382.03329" y1="550.00354" x2="496.15509" y2="550.00354" gradientTransform="scale(.8058 1.24101)" gradientUnits="userSpaceOnUse"/><linearGradient inkscape:collect="always" xlink:href="#g" id="aN" gradientTransform="scale(.80605 1.24061)" x1="415.26151" y1="550.08942" x2="530.21259" y2="550.08942" gradientUnits="userSpaceOnUse"/><linearGradient inkscape:collect="always" xlink:href="#g" id="aO" gradientTransform="scale(.76818 1.30179)" x1="487.50143" y1="524.0509" x2="590.25116" y2="524.0509" gradientUnits="userSpaceOnUse"/><linearGradient inkscape:collect="always" xlink:href="#c" id="aP" spreadMethod="reflect" x1="534.05444" y1="571.71753" x2="492.77298" y2="572.47186" gradientTransform="scale(.92422 1.082)" gradientUnits="userSpaceOnUse"/><linearGradient inkscape:collect="always" xlink:href="#c" id="aQ" gradientUnits="userSpaceOnUse" gradientTransform="matrix(.1796 0 0 5.56776 .225 -4.505)" spreadMethod="reflect" x1="2527.114" y1="120.33681" x2="2549.0181" y2="120.33681"/><linearGradient inkscape:collect="always" xlink:href="#g" id="aR" x1="595.43152" y1="538.23718" x2="519.47552" y2="533.90784" gradientTransform="scale(.77026 1.29826)" gradientUnits="userSpaceOnUse"/><linearGradient inkscape:collect="always" xlink:href="#f" id="bI" x1="215.42056" y1="329.18784" x2="225.61211" y2="329.18784" gradientTransform="scale(.46318 2.15899)" gradientUnits="userSpaceOnUse"/><linearGradient inkscape:collect="always" xlink:href="#g" id="aT" x1="283.83633" y1="816.85175" x2="328.08362" y2="816.85175" gradientTransform="scale(1.38313 .723)" gradientUnits="userSpaceOnUse"/><linearGradient inkscape:collect="always" xlink:href="#g" id="aU" x1="135.38503" y1="1672.2668" x2="207.45351" y2="1672.2668" gradientTransform="scale(2.88285 .34688)" gradientUnits="userSpaceOnUse"/><linearGradient inkscape:collect="always" xlink:href="#c" id="aV" spreadMethod="reflect" x1="448.46277" y1="618.53369" x2="413.79025" y2="619.1673" gradientTransform="scale(1.10038 .90877)" gradientUnits="userSpaceOnUse"/><linearGradient inkscape:collect="always" xlink:href="#c" id="aW" gradientTransform="scale(1.58355 .6315)" x1="288.40921" y1="873.72681" x2="307.52054" y2="873.72681" gradientUnits="userSpaceOnUse"/><linearGradient inkscape:collect="always" xlink:href="#g" id="aX" x1="370.63416" y1="694.79303" x2="403.83789" y2="694.79303" gradientTransform="scale(1.21965 .81991)" gradientUnits="userSpaceOnUse"/><linearGradient inkscape:collect="always" xlink:href="#c" id="aY" spreadMethod="reflect" x1="1390.0594" y1="257.1066" x2="1416.8698" y2="272.08276" gradientTransform="scale(.40557 2.46564)" gradientUnits="userSpaceOnUse"/><linearGradient inkscape:collect="always" xlink:href="#g" id="aZ" x1="175.7399" y1="1538.6414" x2="231.47165" y2="1538.6414" gradientTransform="scale(2.58115 .38742)" gradientUnits="userSpaceOnUse"/><linearGradient inkscape:collect="always" xlink:href="#c" id="bH" gradientTransform="scale(.61774 1.61882)" x1="319.0325" y1="461.44919" x2="356.38" y2="461.44919" gradientUnits="userSpaceOnUse"/><linearGradient inkscape:collect="always" xlink:href="#c" id="bb" gradientTransform="scale(1.13456 .8814)" x1="197.99516" y1="817.7229" x2="277.42731" y2="817.7229" gradientUnits="userSpaceOnUse"/><linearGradient inkscape:collect="always" xlink:href="#c" id="bc" spreadMethod="reflect" x1="416.39032" y1="520.26978" x2="427.87292" y2="526.89874" gradientTransform="scale(.72246 1.38417)" gradientUnits="userSpaceOnUse"/><linearGradient inkscape:collect="always" xlink:href="#c" id="bd" spreadMethod="reflect" x1="408.47177" y1="464.92062" x2="418.56519" y2="470.74759" gradientTransform="scale(.67058 1.49125)" gradientUnits="userSpaceOnUse"/><linearGradient inkscape:collect="always" xlink:href="#c" id="be" spreadMethod="reflect" x1="245.00496" y1="973.6214" x2="266.38254" y2="977.0979" gradientTransform="scale(1.26874 .78818)" gradientUnits="userSpaceOnUse"/><linearGradient inkscape:collect="always" xlink:href="#f" id="bf" x1="107.76342" y1="1140.8141" x2="138.97359" y2="1140.8141" gradientTransform="scale(1.67017 .59874)" gradientUnits="userSpaceOnUse"/><linearGradient inkscape:collect="always" xlink:href="#f" id="bg" x1="92.598869" y1="1672.543" x2="74.573189" y2="1671.9902" gradientTransform="scale(2.46112 .40632)" gradientUnits="userSpaceOnUse"/><linearGradient inkscape:collect="always" xlink:href="#a" id="bh" gradientTransform="scale(1.37146 .72915)" spreadMethod="reflect" x1="145.56554" y1="948.99103" x2="154.54744" y2="973.14124" gradientUnits="userSpaceOnUse"/><linearGradient inkscape:collect="always" xlink:href="#a" id="bi" gradientTransform="scale(1.73065 .57782)" spreadMethod="reflect" x1="116.43907" y1="1172.6246" x2="124.6854" y2="1194.7971" gradientUnits="userSpaceOnUse"/><linearGradient inkscape:collect="always" xlink:href="#a" id="bj" spreadMethod="reflect" x1="90.404732" y1="1535.1566" x2="99.63253" y2="1559.968" gradientTransform="scale(2.2249 .44946)" gradientUnits="userSpaceOnUse"/><linearGradient inkscape:collect="always" xlink:href="#a" id="bk" spreadMethod="reflect" x1="93.014267" y1="1482.9335" x2="102.68174" y2="1508.9271" gradientTransform="scale(2.15066 .46497)" gradientUnits="userSpaceOnUse"/><linearGradient inkscape:collect="always" xlink:href="#a" id="bl" gradientTransform="scale(1.75357 .57027)" spreadMethod="reflect" x1="114.08853" y1="1205.4902" x2="124.21156" y2="1232.7087" gradientUnits="userSpaceOnUse"/><linearGradient inkscape:collect="always" xlink:href="#d" id="bG" x1="107.6885" y1="1266.886" x2="123.76102" y2="1285.8925" gradientTransform="scale(1.74515 .57302)" gradientUnits="userSpaceOnUse"/><linearGradient inkscape:collect="always" xlink:href="#c" id="bn" gradientTransform="scale(1.22959 .81328)" x1="165.02408" y1="853.18256" x2="169.12373" y2="853.18256" gradientUnits="userSpaceOnUse"/><linearGradient inkscape:collect="always" xlink:href="#f" id="bo" x1="92.670471" y1="1670.4285" x2="74.667587" y2="1669.8763" gradientTransform="scale(2.458 .40683)" gradientUnits="userSpaceOnUse"/><linearGradient inkscape:collect="always" xlink:href="#f" id="bp" x1="107.76342" y1="1140.8141" x2="138.97359" y2="1140.8141" gradientTransform="scale(1.67017 .59874)" gradientUnits="userSpaceOnUse"/><linearGradient inkscape:collect="always" xlink:href="#a" id="bq" spreadMethod="reflect" x1="94.091454" y1="1458.9885" x2="101.64833" y2="1479.3071" gradientTransform="scale(2.14707 .46575)" gradientUnits="userSpaceOnUse"/><linearGradient inkscape:collect="always" xlink:href="#a" id="br" spreadMethod="reflect" x1="96.56234" y1="1419.8619" x2="104.44252" y2="1441.0499" gradientTransform="scale(2.09066 .47832)" gradientUnits="userSpaceOnUse"/><linearGradient inkscape:collect="always" xlink:href="#a" id="bs" gradientTransform="scale(1.40111 .71372)" spreadMethod="reflect" x1="143.5784" y1="953.95386" x2="150.65051" y2="972.96918" gradientUnits="userSpaceOnUse"/><linearGradient inkscape:collect="always" xlink:href="#d" id="bF" x1="793.03833" y1="231.26962" x2="802.47534" y2="243.66594" gradientTransform="scale(.58804 1.70056)" gradientUnits="userSpaceOnUse"/><linearGradient inkscape:collect="always" xlink:href="#c" id="bu" gradientTransform="scale(.28137 3.554)" x1="721.8045" y1="207.59416" x2="740.15546" y2="207.59416" gradientUnits="userSpaceOnUse"/><linearGradient inkscape:collect="always" xlink:href="#a" id="bv" x1="331.52335" y1="771.57294" x2="415.2283" y2="771.57294" gradientTransform="scale(1.09743 .91122)" gradientUnits="userSpaceOnUse"/><linearGradient inkscape:collect="always" xlink:href="#b" id="bC" gradientTransform="scale(.8634 1.15822)" spreadMethod="reflect" x1="523.47876" y1="346.11121" x2="529.57452" y2="346.11121" gradientUnits="userSpaceOnUse"/><linearGradient inkscape:collect="always" xlink:href="#b" id="bB" gradientTransform="scale(.99613 1.00388)" spreadMethod="reflect" x1="461.67386" y1="403.80072" x2="461.67386" y2="397.58243" gradientUnits="userSpaceOnUse"/><linearGradient inkscape:collect="always" xlink:href="#b" id="bA" spreadMethod="reflect" x1="751.45557" y1="246.5088" x2="757.48608" y2="246.5088" gradientTransform="scale(.60124 1.66323)" gradientUnits="userSpaceOnUse"/><radialGradient inkscape:collect="always" xlink:href="#g" id="ba" cx="299.69183" cy="697.8111" fx="299.69183" fy="697.8111" r="83.072227" gradientTransform="scale(1.00335 .99666)" gradientUnits="userSpaceOnUse"/><radialGradient inkscape:collect="always" xlink:href="#a" id="bz" cx="144.62985" cy="960.47559" fx="144.62985" fy="960.47559" r="6.2389431" gradientTransform="scale(1.40712 .71067)" gradientUnits="userSpaceOnUse"/><radialGradient inkscape:collect="always" xlink:href="#a" id="bx" cx="144.62985" cy="960.47559" fx="144.62985" fy="960.47559" r="6.2389431" gradientTransform="scale(1.40712 .71067)" gradientUnits="userSpaceOnUse"/><radialGradient inkscape:collect="always" xlink:href="#a" id="bw" cx="144.62985" cy="960.47559" fx="144.62985" fy="960.47559" r="6.2389431" gradientTransform="scale(1.40712 .71067)" gradientUnits="userSpaceOnUse"/><radialGradient inkscape:collect="always" xlink:href="#d" id="bD" spreadMethod="reflect" cx="697.80713" cy="267.72885" fx="697.80713" fy="267.72885" r="14.150933" gradientTransform="scale(.66436 1.5052)" gradientUnits="userSpaceOnUse"/><radialGradient inkscape:collect="always" xlink:href="#b" id="bE" spreadMethod="reflect" cx="300.15964" cy="579.30078" fx="300.15964" fy="579.30078" r="4.6827564" gradientTransform="scale(1.5082 .66304)" gradientUnits="userSpaceOnUse"/><radialGradient inkscape:collect="always" xlink:href="#a" id="bt" cx="144.62985" cy="960.47559" fx="144.62985" fy="960.47559" r="6.2389431" gradientTransform="scale(1.40712 .71067)" gradientUnits="userSpaceOnUse"/><radialGradient inkscape:collect="always" xlink:href="#a" id="bm" cx="144.62985" cy="960.47559" fx="144.62985" fy="960.47559" r="6.2389431" gradientTransform="scale(1.40712 .71067)" gradientUnits="userSpaceOnUse"/><radialGradient inkscape:collect="always" xlink:href="#a" id="by" cx="144.62985" cy="960.47559" fx="144.62985" fy="960.47559" r="6.2389431" gradientTransform="scale(1.40712 .71067)" gradientUnits="userSpaceOnUse"/><radialGradient inkscape:collect="always" xlink:href="#g" id="aS" cx="462.40753" cy="667.11102" fx="462.40753" fy="667.11102" r="17.044947" gradientTransform="scale(.88388 1.13137)" gradientUnits="userSpaceOnUse"/><radialGradient inkscape:collect="always" xlink:href="#e" id="aI" cx="683.35645" cy="896.52075" fx="683.35645" fy="896.52075" r="81.378555" gradientTransform="scale(.96267 1.03877)" gradientUnits="userSpaceOnUse"/><radialGradient inkscape:collect="always" xlink:href="#g" id="ak" cx="452.38" cy="668.63245" fx="452.38" fy="668.63245" r="28.801558" gradientTransform="scale(.88388 1.13137)" gradientUnits="userSpaceOnUse"/><radialGradient inkscape:collect="always" xlink:href="#b" id="aa" gradientTransform="scale(1.37199 .72887)" spreadMethod="reflect" cx="78.886612" cy="770.10883" fx="78.886612" fy="770.10883" r="26.41235" gradientUnits="userSpaceOnUse"/><radialGradient inkscape:collect="always" xlink:href="#c" id="U" cx="285.20639" cy="1068.5791" fx="285.20639" fy="1068.5791" r="36.087563" gradientTransform="scale(1.6903 .5916)" gradientUnits="userSpaceOnUse"/><radialGradient inkscape:collect="always" xlink:href="#e" id="D" cx="683.35645" cy="896.52075" fx="683.35645" fy="896.52075" r="81.378555" gradientTransform="scale(.96267 1.03877)" gradientUnits="userSpaceOnUse"/><radialGradient inkscape:collect="always" xlink:href="#b" id="o" gradientTransform="scale(1.4566 .68653)" spreadMethod="reflect" cx="74.948906" cy="817.26697" fx="74.948906" fy="817.26697" r="27.290543" gradientUnits="userSpaceOnUse"/><radialGradient inkscape:collect="always" xlink:href="#e" id="av" cx="683.35645" cy="896.52075" fx="683.35645" fy="896.52075" r="81.378555" gradientTransform="scale(.96267 1.03877)" gradientUnits="userSpaceOnUse"/></defs><sodipodi:namedview pagecolor="#ffffff" bordercolor="#666666" borderopacity="1.0" inkscape:pageopacity="0.0" inkscape:pageshadow="2" inkscape:zoom="0.69041635" inkscape:cx="-175.44959" inkscape:cy="55.878268" inkscape:window-width="1016" inkscape:window-height="575" inkscape:window-x="0" inkscape:window-y="1" showguides="true" inkscape:guide-bbox="true" inkscape:current-layer="svg1" showgrid="false" inkscape:window-maximized="0" units="px" fit-margin-top="9" fit-margin-left="9" fit-margin-right="9" fit-margin-bottom="9"/><metadata><rdf:RDF><cc:Work><dc:format>image/svg+xml</dc:format><dc:type rdf:resource="http://purl.org/dc/dcmitype/StillImage"/><dc:title/></cc:Work></rdf:RDF></metadata><g transform="matrix(-.57222 0 0 .57222 351.218 -301.345)"><path sodipodi:nodetypes="cssss" d="M499.219 553.816c-.675 7.275-12.78 15.81-12.54 23.113.062 1.904 1.166 2.15 1.23-.246.19-7.304 12.968-15.838 12.293-23.113-.063-.675-.92-.429-.983.246z" style="fill:url(#i);fill-opacity:1;fill-rule:evenodd;stroke:none" inkscape:connector-curvature="0"/><g transform="matrix(-.3234 0 0 .39099 527.581 379.346)"><path sodipodi:nodetypes="cccssccc" d="M105.38 630.314c-1.907 0-3.442 2.632-3.442 5.902v48.247c0 10.983 4.88 23.884 18.43 23.907 5.584.01 5.978-5.918-.417-5.911-6.162.006-11.128-7.013-11.128-17.996v-48.247c0-3.27-1.536-5.902-3.443-5.902z" style="fill:url(#j);fill-opacity:.75;fill-rule:evenodd;stroke:none" inkscape:connector-curvature="0"/><rect ry="15.092755" rx="10.644388" y="628.69513" x="98.003883" height="5.9010963" width="14.752741" style="fill:url(#k);fill-opacity:.75;fill-rule:evenodd;stroke:none"/><path sodipodi:nodetypes="ccccccc" d="M104.253 569.456c-10.898 0-19.228-2.565-19.228 11.972v28.88c0 14.537 8.33 20.126 19.228 20.126 10.897 0 20.113-5.589 20.113-20.126v-28.88c0-14.537-9.216-11.972-20.113-11.972z" style="fill:url(#l);fill-opacity:1;fill-rule:evenodd;stroke:none" inkscape:connector-curvature="0"/><rect ry="13.529857" rx="34.974403" y="590.10962" x="74.425705" height="33.439545" width="11.461707" style="fill:url(#m);fill-opacity:1;fill-rule:evenodd;stroke:none"/><rect ry="28.622612" rx="13.685639" y="598.9613" x="82.762321" height="18.686806" width="44.947784" style="fill:url(#n);fill-opacity:.75;fill-rule:evenodd;stroke:none"/><path sodipodi:nodetypes="ccccc" d="M126.874 566.997c0 5.158-7.931.492-17.704.492-9.772 0-17.703 4.666-17.703-.492s7.931-14.261 17.703-14.261c9.773 0 17.704 9.103 17.704 14.261z" style="fill:url(#o);fill-opacity:.75;fill-rule:evenodd;stroke:none" transform="translate(-4.918 5.901)" inkscape:connector-curvature="0"/><path d="M104.253 544.868c-3.27 0-5.901 3.948-5.901 8.852 0 4.903 2.631 8.851 5.9 8.851 3.27 0 5.902-3.948 5.902-8.851 0-4.904-2.632-8.852-5.901-8.852z" style="fill:url(#p);fill-opacity:.75;fill-rule:evenodd;stroke:none" inkscape:connector-curvature="0"/><rect ry="16.350485" rx="10.644388" y="528.96289" x="101.59022" height="16.719772" width="4.9175801" style="fill:url(#q);fill-opacity:.75;fill-rule:evenodd;stroke:none"/><path sodipodi:nodetypes="ccsccs" d="M147.612 539.662c-9.526 9.483-39.425 4.01-39.425 6.19 0 2.179 32.968 4.994 40.777-4.015 17.392-20.067-10.664-90.557-15.474-107.844 2.451 0 1.06.477-1.391.477 4.591 18.837 31.213 89.564 15.513 105.192z" style="fill:url(#r);fill-opacity:.75;fill-rule:evenodd;stroke:none" inkscape:connector-curvature="0"/><rect ry="16.350485" rx="10.644388" y="540.93384" x="96.384575" height="8.8516445" width="15.736257" style="fill:url(#s);fill-opacity:.75;fill-rule:evenodd;stroke:none"/><rect ry="27.670052" rx="13.685639" y="572.40637" x="83.571259" height="10.818677" width="41.3629" style="fill:url(#t);fill-opacity:.75;fill-rule:evenodd;stroke:none"/><rect ry="27.670052" rx="13.685639" y="656.00519" x="97.368088" height="19.670321" width="15.736257" style="fill:url(#u);fill-opacity:.75;fill-rule:evenodd;stroke:none"/><path sodipodi:nodetypes="cccccc" d="M94.91 665.84c-2.453 0-4.427.878-4.427 1.967 0 1.09 1.974 1.967 4.426 1.967h2.95c2.453 0 2.453-3.934 0-3.934h-2.95z" style="fill:url(#v);fill-opacity:.75;fill-rule:evenodd;stroke:none" inkscape:connector-curvature="0"/><rect ry="10.061836" rx="13.685639" y="659.36316" x="89.152237" height="17.703289" width="4.9175801" style="fill:url(#w);fill-opacity:.75;fill-rule:evenodd;stroke:none"/><path sodipodi:nodetypes="cccssccc" d="M116.547 615.681c-1.907 0-3.443 1.755-3.443 3.934v18.687c0 6.229 0 18.37 9.737 18.687 2.178.07 1.761-6.286-.418-6.26-2.434.03-2.434-6.198-2.434-12.427v-18.687c0-2.18-1.535-3.934-3.442-3.934z" style="fill:url(#x);fill-opacity:.75;fill-rule:evenodd;stroke:none" inkscape:connector-curvature="0"/></g><path sodipodi:nodetypes="csscc" d="m188.176 714.009-22.45 59.857c-.605 1.611 1.927 2.561 2.532.95l22.45-59.857-2.532-.95z" style="fill:url(#y);fill-opacity:1;fill-rule:evenodd;stroke:none" inkscape:connector-curvature="0"/><path d="M428.237 783.805c-2.599-.3-5.509.612-8.344 2.094-20.206-7.38-32.734 14.952-21.062 23.781l4.312 2.688c-.17 3.945.863 7.676 4.469 10.125l35.844 24.344c4.063 1.482 8.146.488 11.875-2.094l2.5 1.562c19.15 13.278 31.945-15.139 23.094-22.843l-11.532-7.25c.093-6.949-2.843-11.942-9-14.188l-29.156-17.25c-.92-.544-1.939-.846-3-.969z" style="fill:url(#z);fill-opacity:1;fill-rule:evenodd;stroke:none" inkscape:connector-curvature="0"/><path sodipodi:nodetypes="csccscssccssccssccssccssccssccssccssccscccssccssccssc" d="M704.705 925.958c-1.772 37.258-32.348 55.838-50.54 59.503-9.88 1.991-40.1-5.924-41.667-36.307-1.051-32.513 25.124-58.416 51.643-62.59 15.694-2.628 42.108 6.932 40.564 39.394zm-43.292 4.52.072-30.18c.014-5.718 18.654-3.37 16.62.276l-16.692 29.904zm-3.178 10.506-.454 31.19c-.083 5.719-19.41 3.185-17.321-.43l17.775-30.76zm3.746-.258-.72 29.132c-.142 5.717 17.817-2.296 14.878-6.91l-14.158-22.222zm-3.78-10.16.127-29.523c.025-5.719-17.064 3.663-14.776 7.157l14.649 22.366zm5.59 1.72 16.461-29.3c2.801-4.987 14.71 7.613 11.282 9.998l-27.743 19.303zm-7.939 7.63-18.797 29.468c-3.075 4.821-14.25-9.078-10.695-11.271l29.492-18.197zm9.083-3.235 27.9-3.414c4.465-.546-.521 15.137-4.155 13.58l-23.745-10.166zm-10.767-2.138-27.654 2.184c-5.701.45.56-15.69 4.298-13.826l23.356 11.642zm1.622-2.354-22.383-11.859c-3.884-2.058 5.584-13.515 8.448-9.34l13.935 21.199zm8.162 6.922 23.061 10.63c5.194 2.394-6.477 14.504-8.777 11.019l-14.284-21.649zm-9.447-1.57-28.694 16.59c-4.951 2.862-4.97-13.28-.814-13.69l29.508-2.9zm10.247-3.154 27.04-17.412c4.807-3.096 5.671 12.027 1.55 12.705l-28.59 4.707z" style="fill:url(#A);fill-opacity:1;fill-rule:evenodd;stroke:none" inkscape:connector-curvature="0" transform="translate(-246.821 -153.171)"/><path sodipodi:nodetypes="cccccccccc" d="M690.93 964.176c-18.464 22.148-47.387 27.307-64.561 11.515-17.174-15.792-16.128-46.584 2.335-68.732 18.464-22.148 47.387-27.307 64.56-11.515 17.175 15.792 16.128 46.584-2.335 68.732zm-2.645-1.87c-17.447 20.93-44.78 25.805-61.01 10.881-16.229-14.923-15.24-44.022 2.208-64.951 17.447-20.93 44.78-25.805 61.01-10.882 16.229 14.924 15.24 44.022-2.208 64.952z" style="fill:url(#B);fill-opacity:.75;fill-rule:evenodd;stroke:url(#linearGradient7555);stroke-width:.99533491pt;stroke-linecap:butt;stroke-linejoin:miter;stroke-opacity:1" inkscape:connector-curvature="0" transform="translate(-246.821 -153.171)"/><path d="M702.036 951.663c-13.054 27.298-43.498 41.857-67.957 32.499-24.459-9.36-33.715-39.11-20.662-66.408 13.054-27.299 43.499-41.858 67.957-32.5 24.46 9.36 33.715 39.11 20.662 66.409zm-11.315 12.702c-18.463 22.148-47.386 27.307-64.56 11.515-17.174-15.792-16.128-46.584 2.335-68.732 18.463-22.148 47.386-27.307 64.56-11.515 17.174 15.793 16.128 46.584-2.335 68.732z" style="fill:url(#C);fill-opacity:1;fill-rule:evenodd;stroke:none" inkscape:connector-curvature="0" transform="translate(-246.821 -153.171)"/><path sodipodi:nodetypes="csccscssccssccssccssccssccssccssccssccscccssccssccssc" d="M704.705 925.958c-1.772 37.258-32.348 55.838-50.54 59.503-9.88 1.991-40.1-5.924-41.667-36.307-1.051-32.513 25.124-58.416 51.643-62.59 15.694-2.628 42.108 6.932 40.564 39.394zm-43.292 4.52.072-30.18c.014-5.718 18.654-3.37 16.62.276l-16.692 29.904zm-3.178 10.506-.454 31.19c-.083 5.719-19.41 3.185-17.321-.43l17.775-30.76zm3.746-.258-.72 29.132c-.142 5.717 17.817-2.296 14.878-6.91l-14.158-22.222zm-3.78-10.16.127-29.523c.025-5.719-17.064 3.663-14.776 7.157l14.649 22.366zm5.59 1.72 16.461-29.3c2.801-4.987 14.71 7.613 11.282 9.998l-27.743 19.303zm-7.939 7.63-18.797 29.468c-3.075 4.821-14.25-9.078-10.695-11.271l29.492-18.197zm9.083-3.235 27.9-3.414c4.465-.546-.521 15.137-4.155 13.58l-23.745-10.166zm-10.767-2.138-27.654 2.184c-5.701.45.56-15.69 4.298-13.826l23.356 11.642zm1.622-2.354-22.383-11.859c-3.884-2.058 5.584-13.515 8.448-9.34l13.935 21.199zm8.162 6.922 23.061 10.63c5.194 2.394-6.477 14.504-8.777 11.019l-14.284-21.649zm-9.447-1.57-28.694 16.59c-4.951 2.862-4.97-13.28-.814-13.69l29.508-2.9zm10.247-3.154 27.04-17.412c4.807-3.096 5.671 12.027 1.55 12.705l-28.59 4.707z" style="fill:url(#D);fill-opacity:1;fill-rule:evenodd;stroke:none" inkscape:connector-curvature="0" transform="translate(-463.802 -101.708)"/><path sodipodi:nodetypes="cccccccccc" d="M690.93 964.176c-18.464 22.148-47.387 27.307-64.561 11.515-17.174-15.792-16.128-46.584 2.335-68.732 18.464-22.148 47.387-27.307 64.56-11.515 17.175 15.792 16.128 46.584-2.335 68.732zm-2.645-1.87c-17.447 20.93-44.78 25.805-61.01 10.881-16.229-14.923-15.24-44.022 2.208-64.951 17.447-20.93 44.78-25.805 61.01-10.882 16.229 14.924 15.24 44.022-2.208 64.952z" style="fill:url(#E);fill-opacity:.75;fill-rule:evenodd;stroke:url(#linearGradient7563);stroke-width:.99533491pt;stroke-linecap:butt;stroke-linejoin:miter;stroke-opacity:1" inkscape:connector-curvature="0" transform="translate(-463.802 -101.708)"/><path d="M702.036 951.663c-13.054 27.298-43.498 41.857-67.957 32.499-24.459-9.36-33.715-39.11-20.662-66.408 13.054-27.299 43.499-41.858 67.957-32.5 24.46 9.36 33.715 39.11 20.662 66.409zm-11.315 12.702c-18.463 22.148-47.386 27.307-64.56 11.515-17.174-15.792-16.128-46.584 2.335-68.732 18.463-22.148 47.386-27.307 64.56-11.515 17.174 15.793 16.128 46.584-2.335 68.732z" style="fill:url(#F);fill-opacity:1;fill-rule:evenodd;stroke:none" inkscape:connector-curvature="0" transform="translate(-463.802 -101.708)"/><g transform="translate(-2.459 -2.459)"><path sodipodi:nodetypes="ccsssssss" d="M201.129 847.3c-3.771.57-6.885 3.07-6.885 6.884l.492 2.459c.748 3.74 3.114 7.455 6.885 6.884l74.747-11.31c3.771-.57 7.633-3.145 6.885-6.885l-.492-2.459c-.748-3.74-3.114-7.455-6.885-6.884l-74.747 11.31z" style="fill:url(#G);fill-opacity:1;fill-rule:evenodd;stroke:none" inkscape:connector-curvature="0"/><path sodipodi:nodetypes="ccccccc" d="M686.189 508.8a2.453 2.453 0 0 0-2.459 2.459 2.453 2.453 0 0 0 2.459 2.459l70.575 3.176a2.453 2.453 0 0 0 2.458-2.459 2.453 2.453 0 0 0-2.458-2.458l-70.575-3.177z" style="fill:url(#H);fill-opacity:.75;fill-rule:evenodd;stroke:none" transform="rotate(40.133)" inkscape:connector-curvature="0"/><path sodipodi:nodetypes="cssssss" d="M200.637 813.368v31.964c0 1.362 4.542 5.992 5.901 5.901l22.13-1.475c1.359-.09.021-9.949 0-11.31 0 0-1.1-26.634-2.46-26.556l-25.57 1.476z" style="fill:url(#I);fill-opacity:.75;fill-rule:evenodd;stroke:none" inkscape:connector-curvature="0"/><rect transform="rotate(-6.897)" ry="2.4587917" rx="2.4587917" y="852.69556" x="121.25385" height="4.9175825" width="219.32419" style="fill:url(#J);fill-opacity:.75;fill-rule:evenodd;stroke:none"/></g><path sodipodi:nodetypes="ccssssc" d="m258.688 704.777-.522 3.13 26.08-1.565c14.535-.872 11.912 7.285 6.085 17.908-4.282 7.805 2.327 2.664 5.563-3.478 6.134-11.639 1.077-18.339-11.649-17.56l-25.557 1.565z" style="fill:url(#K);fill-opacity:1;fill-rule:evenodd;stroke:none" inkscape:connector-curvature="0"/><path sodipodi:nodetypes="ccccccc" d="M467.343 761.664v4.52l44.161 37.207-.695-7.65 46.595-6.955-39.293-29.904-50.768 2.782z" style="fill:url(#L);fill-opacity:1;fill-rule:evenodd;stroke:none" inkscape:connector-curvature="0"/><path sodipodi:nodetypes="csscc" d="m510.277 765.692.521 26.68c.055 2.793 3.997 3.317 3.934 0l-.521-27.55c-1.312.696-2.623.87-3.934.87z" style="fill:url(#M);fill-opacity:.75;fill-rule:evenodd;stroke:none" inkscape:connector-curvature="0"/><path sodipodi:nodetypes="csscc" d="m529.908 696.387-9.737 68.406c-.185 1.298 3.752 1.299 3.934 0l9.737-69.276c-1.312.696-2.623.87-3.934.87z" style="fill:url(#N);fill-opacity:1;fill-rule:evenodd;stroke:none" inkscape:connector-curvature="0"/><path sodipodi:nodetypes="cssssss" d="M530.584 698.213c2.836 2.567 9.24.816 6.625-1.869-3.96-4.064-9.84-10.893-25.304-9.074-18.444 2.17-83.716 4.625-95.332 5.638-10.09.88-14.278 8.712-8.302 8.273l104.359-7.669c9.335-.686 12.817.052 17.954 4.7z" style="fill:url(#O);fill-opacity:1;fill-rule:evenodd;stroke:none" inkscape:connector-curvature="0"/><path sodipodi:nodetypes="csscc" d="M546.077 574.248 530.08 694.465c-.173 1.3 3.761 1.3 3.934 0l15.996-120.217h-3.934z" style="fill:url(#P);fill-opacity:1;fill-rule:evenodd;stroke:none" inkscape:connector-curvature="0"/><path sodipodi:nodetypes="csscc" d="m560.994 724.905-11.475 60.06c-.525 2.745 3.32 3.262 3.934 0l11.475-60.93c-1.312.696-2.623.87-3.934.87z" style="fill:url(#Q);fill-opacity:1;fill-rule:evenodd;stroke:none" inkscape:connector-curvature="0"/><rect y="583.6377" x="410.88446" height="121.95599" width="3.9340641" style="fill:url(#R);fill-opacity:1;fill-rule:evenodd;stroke:none"/><ellipse transform="matrix(.96271 0 0 .60158 17.914 217.337)" style="fill:url(#S);fill-opacity:.75;fill-rule:evenodd;stroke:none" cx="472.08771" cy="565.64465" rx="20.162079" ry="9.466342"/><g transform="rotate(1.056 471.116 691.937)"><path sodipodi:nodetypes="cccss" d="M436.743 628.137v139.09h68.154v-139.09c0 17.201-68.154 15.233-68.154 0z" style="fill:url(#T);fill-opacity:1;fill-rule:evenodd;stroke:none" inkscape:connector-curvature="0"/><ellipse transform="translate(.492 -10.819)" style="fill:url(#U);fill-opacity:1;fill-rule:evenodd;stroke:none" cx="470.61243" cy="639.53131" rx="34.423061" ry="12.048072"/></g><g transform="matrix(-.3928 0 0 .39099 553.137 393.104)"><path sodipodi:nodetypes="cccssccc" d="M105.38 630.314c-1.907 0-3.442 2.632-3.442 5.902v48.247c0 10.983 4.88 23.884 18.43 23.907 5.584.01 5.978-5.918-.417-5.911-6.162.006-11.128-7.013-11.128-17.996v-48.247c0-3.27-1.536-5.902-3.443-5.902z" style="fill:url(#V);fill-opacity:1;fill-rule:evenodd;stroke:none" inkscape:connector-curvature="0"/><rect ry="15.092755" rx="8.7635946" y="628.69513" x="98.003883" height="5.9010963" width="14.752741" style="fill:url(#W);fill-opacity:.75;fill-rule:evenodd;stroke:none"/><path sodipodi:nodetypes="ccccccc" d="M104.253 569.456c-10.898 0-19.228-2.565-19.228 11.972v28.88c0 14.537 8.33 20.126 19.228 20.126 10.897 0 16.357-5.589 16.357-20.126v-28.88c0-14.537-5.46-11.972-16.357-11.972z" style="fill:url(#X);fill-opacity:1;fill-rule:evenodd;stroke:none" inkscape:connector-curvature="0"/><rect ry="13.529857" rx="28.794655" y="590.10962" x="74.425705" height="33.439545" width="11.461707" style="fill:url(#Y);fill-opacity:1;fill-rule:evenodd;stroke:none"/><path sodipodi:nodetypes="cccccc" d="M94.03 598.961c-6.242 0-11.268 4.167-11.268 9.344 0 5.176 5.026 9.343 11.268 9.343l24.917-.629c2.486-7.546 1.234-12.398 0-18.058H94.03z" style="fill:url(#Z);fill-opacity:1;fill-rule:evenodd;stroke:none" inkscape:connector-curvature="0"/><path sodipodi:nodetypes="ccccc" d="M124.37 566.997c0 5.158-5.428.492-15.2.492-9.772 0-17.077 5.294-17.077.137 0-5.158 7.305-14.89 17.077-14.89 9.773 0 15.2 9.103 15.2 14.261z" style="fill:url(#aa);fill-opacity:1;fill-rule:evenodd;stroke:none" transform="translate(-4.918 5.901)" inkscape:connector-curvature="0"/><path d="M104.253 544.868c-3.27 0-5.901 3.948-5.901 8.852 0 4.903 2.631 8.851 5.9 8.851 3.27 0 5.902-3.948 5.902-8.851 0-4.904-2.632-8.852-5.901-8.852z" style="fill:url(#ab);fill-opacity:1;fill-rule:evenodd;stroke:none" inkscape:connector-curvature="0"/><rect ry="16.350485" rx="8.7635946" y="528.96289" x="101.59022" height="16.719772" width="4.9175801" style="fill:url(#ac);fill-opacity:.75;fill-rule:evenodd;stroke:none"/><path sodipodi:nodetypes="ccsccs" d="M147.612 539.662c-8.982 10.005-39.425 4.01-39.425 6.19 0 2.179 34.06 5.842 40.777-4.015 4.247-6.232 3.107-18.238-1.703-35.525 2.452 0 1.06.478-1.391.478 4.592 18.836 6.174 27.935 1.742 32.872z" style="fill:url(#ad);fill-opacity:1;fill-rule:evenodd;stroke:none" inkscape:connector-curvature="0"/><rect ry="16.350485" rx="8.7635946" y="540.93384" x="96.384575" height="8.8516445" width="15.736257" style="fill:url(#ae);fill-opacity:1;fill-rule:evenodd;stroke:none"/><path sodipodi:nodetypes="ccccc" d="M89.831 572.406c-6.242 0-6.242 10.82 0 10.82h26.966c6.242 0 6.242-10.82 0-10.82H89.83z" style="fill:url(#af);fill-opacity:1;fill-rule:evenodd;stroke:none" inkscape:connector-curvature="0"/><rect ry="27.670052" rx="11.267476" y="656.00519" x="97.368088" height="19.670321" width="15.736257" style="fill:url(#ag);fill-opacity:1;fill-rule:evenodd;stroke:none"/><path sodipodi:nodetypes="cccccc" d="M94.91 665.84c-2.453 0-4.427.878-4.427 1.967 0 1.09 1.974 1.967 4.426 1.967h2.95c2.453 0 2.453-3.934 0-3.934h-2.95z" style="fill:url(#ah);fill-opacity:.75;fill-rule:evenodd;stroke:none" inkscape:connector-curvature="0"/><rect ry="10.061836" rx="11.267476" y="659.36316" x="89.152237" height="17.703289" width="4.9175801" style="fill:url(#ai);fill-opacity:1;fill-rule:evenodd;stroke:none"/><path sodipodi:nodetypes="cccssccc" d="M116.547 615.681c-1.907 0-3.443 1.755-3.443 3.934v18.687c0 6.229 0 18.37 9.737 18.687 2.178.07 1.761-6.286-.418-6.26-2.434.03-2.434-6.198-2.434-12.427v-18.687c0-2.18-1.535-3.934-3.442-3.934z" style="fill:url(#aj);fill-opacity:1;fill-rule:evenodd;stroke:none" inkscape:connector-curvature="0"/></g><ellipse transform="matrix(1.10012 .277 -.30738 .99136 138.489 -148.235)" style="fill:url(#ak);fill-opacity:1;fill-rule:evenodd;stroke:none" cx="400.53693" cy="752.88153" rx="6.1469755" ry="7.8681283"/><path sodipodi:nodetypes="cccc" d="M349.148 708.623c-17.214-43.995-39.773-82.903-40.756-91.586 6.393-7.699 17.616 4.053 26.987-3.815-5.382 24.588 2.953 41.656 13.77 95.401z" style="fill:url(#al);fill-opacity:1;fill-rule:evenodd;stroke:none" inkscape:connector-curvature="0"/><path sodipodi:nodetypes="ccccssc" d="M347.943 709.248c23.27-26.42 48.755-75.288 53.064-89.238 6.555 3.115 45.568 27.02 54.998 34.863 6.592 4.9 1.194 61.561-5.626 85.237-7.978-10.612-33.996-26.581-37.922-29.373-3.709-2.638-9.332-3.731-15.556-3.366-19.68 1.156-36.488 3.64-48.958 1.877z" style="fill:url(#am);fill-opacity:1;fill-rule:evenodd;stroke:none" inkscape:connector-curvature="0"/><path sodipodi:nodetypes="cccc" d="M347.315 712.132c5.076-31.83 21.073-90.712 24.89-95.81 6.556 3.115 21.472 6.858 27.952 3.39-7.074 23.535-27.35 66.558-52.842 92.42z" style="fill:url(#an);fill-opacity:1;fill-rule:evenodd;stroke:none" inkscape:connector-curvature="0"/><path sodipodi:nodetypes="cccc" d="M348.247 710.16c-4.267-36.747-20.642-61.603-12.399-97.681 8.522 1.639 25.406 4.89 35.82 3.39-7.074 23.534-13.234 41.755-23.421 94.292z" style="fill:url(#ao);fill-opacity:1;fill-rule:evenodd;stroke:none" inkscape:connector-curvature="0"/><path sodipodi:nodetypes="ccccssc" d="M384.063 780.42c-11.31 19.548-11.373 32.948-35.407 41.308-43.703 0-44.75-37.988-44.75-65.404 23.605 1.105 29.569-39.833 41.308-46.717 26.77-.738 56.136-1.578 61.692 1.582 6.75 3.84 46.973 23.14 45.01 29.012-4.105 12.287-65.517 29.185-67.853 40.219z" style="fill:url(#ap);fill-opacity:1;fill-rule:evenodd;stroke:none" inkscape:connector-curvature="0"/><path sodipodi:nodetypes="ccscccscc" d="M334.395 727.31c-4.63 0-8.36 7.17-2.95 12.786l37.374 29.997c3.611 2.899 6.187 8.852 10.818 8.852l51.635-8.852c4.631 0 4.917-7.663 4.917-12.294l-41.8-26.555c-4.796-3.047-12.58-4.426-17.21-4.426l-42.784.492z" style="fill:url(#aq);fill-opacity:1;fill-rule:evenodd;stroke:none" inkscape:connector-curvature="0"/><path sodipodi:nodetypes="cccccscc" d="M120.235 840.046c7.622 4.794 21.637 7.13 28.768 6.024l48.438-8.237-.615-25.018 1.844-65.835-45.733 4.426c-11.92 1.154-28.148-9.109-33.932-11.802l1.23 100.442z" style="fill:url(#ar);fill-opacity:1;fill-rule:evenodd;stroke:none" inkscape:connector-curvature="0"/><path sodipodi:nodetypes="cssscssccs" d="M133.266 711.574c-4.692.323-9.814 1.978-13.031 5.41l-11.065 11.801c-1.401 1.495-3.105 5.2-1.23 6.024l8.115 3.566 18.318 8.913c7.818 3.804 17.046 5.387 25.694 4.487l36.636-3.811-20.654-39.34-42.783 2.95z" style="fill:url(#as);fill-opacity:1;fill-rule:evenodd;stroke:none" inkscape:connector-curvature="0"/><path sodipodi:nodetypes="cccccccccccccsscc" d="m510.69 795.664 45.057-8.268c2.984-.279 3.368 4.862 2.767 6.424-.628 1.635-3.925 3.011-6.27 3.32l-40.2 7.13-1.353-8.606zm-63.19-20.162 5.163-34.914c.785-5.308.817-10.7 6.147-11.31 0 0 74.143-9.351 73.566-6.41l-3.164 28.288c-.577 2.94.31 5.41 3.294 5.13l22.804-2.702c.746-.07 3.45-.369 4.384-.845 2.255-1.149 2.709 2.521 2.638 3.134-.14 1.226-1.92 2.127-6.984 2.95L447.5 775.504z" style="fill:url(#at);fill-opacity:1;fill-rule:evenodd;stroke:none" inkscape:connector-curvature="0"/><path sodipodi:nodetypes="cccccccc" d="M111.63 735.67c-2.998 0-4.427-5.456-4.427-2.459l1.967 76.714c0 6.931 1.921 24.588 9.344 29.998 6.393 2.458 7.868-24.542 7.868-27.539l-.984-62.945c0-2.997-2.412-9.343-5.409-9.343l-8.36-4.426z" style="fill:url(#au);fill-opacity:1;fill-rule:evenodd;stroke:none" inkscape:connector-curvature="0"/><path sodipodi:nodetypes="csssscccsss" d="M403.242 790.255c.792-.692 40.414-15.78 42.972-14.378 2.557 1.403-1.952 15.855.077 18.186 2.03 2.332-33.597 10.706-39.996 13.855-21.349 10.503-33.21 20.022-57.393 22.17-24.658 2.19-47.863-8.724-65.752-6.926l-40.221 3.975-20.46-15.962s48.38-5.498 53.653-3.708c38.353 13.018 58.682 19.438 72.145 17.744 21.927-2.76 41.205-22.935 54.975-34.956z" style="fill:#1e1e1e;fill-opacity:1;fill-rule:evenodd;stroke:#000;stroke-width:1pt;stroke-linecap:butt;stroke-linejoin:miter;stroke-opacity:1" inkscape:connector-curvature="0"/><path sodipodi:nodetypes="csccscssccssccssccssccssccssccssccssccscccssccssccssc" d="M704.705 925.958c-1.772 37.258-32.348 55.838-50.54 59.503-9.88 1.991-40.1-5.924-41.667-36.307-1.051-32.513 25.124-58.416 51.643-62.59 15.694-2.628 42.108 6.932 40.564 39.394zm-43.292 4.52.072-30.18c.014-5.718 18.654-3.37 16.62.276l-16.692 29.904zm-3.178 10.506-.454 31.19c-.083 5.719-19.41 3.185-17.321-.43l17.775-30.76zm3.746-.258-.72 29.132c-.142 5.717 17.817-2.296 14.878-6.91l-14.158-22.222zm-3.78-10.16.127-29.523c.025-5.719-17.064 3.663-14.776 7.157l14.649 22.366zm5.59 1.72 16.461-29.3c2.801-4.987 14.71 7.613 11.282 9.998l-27.743 19.303zm-7.939 7.63-18.797 29.468c-3.075 4.821-14.25-9.078-10.695-11.271l29.492-18.197zm9.083-3.235 27.9-3.414c4.465-.546-.521 15.137-4.155 13.58l-23.745-10.166zm-10.767-2.138-27.654 2.184c-5.701.45.56-15.69 4.298-13.826l23.356 11.642zm1.622-2.354-22.383-11.859c-3.884-2.058 5.584-13.515 8.448-9.34l13.935 21.199zm8.162 6.922 23.061 10.63c5.194 2.394-6.477 14.504-8.777 11.019l-14.284-21.649zm-9.447-1.57-28.694 16.59c-4.951 2.862-4.97-13.28-.814-13.69l29.508-2.9zm10.247-3.154 27.04-17.412c4.807-3.096 5.671 12.027 1.55 12.705l-28.59 4.707z" style="fill:url(#av);fill-opacity:1;fill-rule:evenodd;stroke:none" inkscape:connector-curvature="0" transform="translate(-188.835 -98.352)"/><path sodipodi:nodetypes="cccccccccc" d="M690.93 964.176c-18.464 22.148-47.387 27.307-64.561 11.515-17.174-15.792-16.128-46.584 2.335-68.732 18.464-22.148 47.387-27.307 64.56-11.515 17.175 15.792 16.128 46.584-2.335 68.732zm-2.645-1.87c-17.447 20.93-44.78 25.805-61.01 10.881-16.229-14.923-15.24-44.022 2.208-64.951 17.447-20.93 44.78-25.805 61.01-10.882 16.229 14.924 15.24 44.022-2.208 64.952z" style="fill:url(#aw);fill-opacity:1;fill-rule:evenodd;stroke:url(#linearGradient7653);stroke-width:.99533491pt;stroke-linecap:butt;stroke-linejoin:miter;stroke-opacity:1" inkscape:connector-curvature="0" transform="translate(-188.835 -98.352)"/><path d="M702.036 951.663c-13.054 27.298-43.498 41.857-67.957 32.499-24.459-9.36-33.715-39.11-20.662-66.408 13.054-27.299 43.499-41.858 67.957-32.5 24.46 9.36 33.715 39.11 20.662 66.409zm-11.315 12.702c-18.463 22.148-47.386 27.307-64.56 11.515-17.174-15.792-16.128-46.584 2.335-68.732 18.463-22.148 47.386-27.307 64.56-11.515 17.174 15.793 16.128 46.584-2.335 68.732z" style="fill:url(#ax);fill-opacity:1;fill-rule:evenodd;stroke:none" inkscape:connector-curvature="0" transform="translate(-188.835 -98.352)"/><path sodipodi:nodetypes="cscssccsccc" d="M344.116 774.693c-.04 4.63-2.328 7.283-4.244 11.192-3.68 7.509-14.658 27.096 1.013 34.58-40.486-.309-48.456-15.353-79.27-12.507L152.84 818.007c-7.481.69-23.508-5.503-26.95-8.573 0-2.58-1.703-18.192.395-21.359 3.875 5.155 18.356 10.248 26.652 9.557l150.082-12.507 1.667-10 39.43-.432z" style="fill:url(#ay);fill-opacity:1;fill-rule:evenodd;stroke:none" inkscape:connector-curvature="0"/><path sodipodi:nodetypes="cssssssss" d="M347.31 766.83c3.337 4.408 2.764 6.299-.001 9.555-1.185 1.396-19.633 2.002-28.528 2.002s-12.026-.822-14.164-3.969c-4.888-7.191-38.23-41.56-40.708-50.37-1.231-4.38-.906-6.408 3.285-7.588 7.537-2.12 12.009-.034 20.904-.034 3.147 0 7.098.33 9.647 2.985 5.843 6.085 43.387 39.264 49.564 47.42z" style="fill:url(#az);fill-opacity:1;fill-rule:evenodd;stroke:none" inkscape:connector-curvature="0"/><path sodipodi:nodetypes="ccccccc" d="M226.209 709.115c-.082 5.327-.164 31.309 2.213 35.653l33.685 44.504 41.8-3.443c3.114-9.343 8.195-22.129 7.868-31.964l-45.242 2.95-40.324-47.7z" style="fill:url(#aA);fill-opacity:1;fill-rule:evenodd;stroke:none" inkscape:connector-curvature="0"/><path sodipodi:nodetypes="csccccsc" d="M125.89 789.272c5.91 4.167 16.969 9.09 26.063 8.36l110.154-8.852-33.44-45.734-32.394 1.967 1.045 45.242-45.119 3.442c-8.867.677-17.54-2.95-26.309-4.425z" style="fill:url(#aB);fill-opacity:1;fill-rule:evenodd;stroke:none" inkscape:connector-curvature="0"/><path sodipodi:nodetypes="cssssssss" d="M309.808 744.768c3.998 4.407 3.312 8.265 0 11.521-1.42 1.396-20.573 2.494-31.227 2.494-10.655 0-14.404-.823-16.965-3.97-5.855-7.19-33.423-38.117-36.39-46.927-1.476-4.38-1.087-6.408 3.933-7.588 9.028-2.12 19.097-2.002 29.752-2.002 3.77 0 8.503.33 11.556 2.986 6.997 6.084 31.941 35.33 39.34 43.486z" style="fill:url(#aC);fill-opacity:1;fill-rule:evenodd;stroke:none" inkscape:connector-curvature="0"/><path sodipodi:nodetypes="cssssssssssss" d="M426.846 819.76c-8.714 16.17-16.547 41.757-21.087 46.176-4.214 4.101-69.217 19.636-76.773 17.261-5.773-1.814-12.6-21.676-18.745-31.522-14.953-23.96-37.371-44.747-67.804-41.75-13.842 1.364-20.396-7.94-6.452-9.293 33.244-3.223 66.474 17.785 80.75 47.487 2.396 4.985 6.702 15.653 9.792 18.359.855.748 66.02-10.661 70.094-14.473 4.361-4.079 12.09-28.592 18.742-41.646 22.604-44.356 46.626-41.019 83.386-45.415 18.44-2.206 21.194 8.073 14.213 9.133-24.402 3.705-58.662-5.33-86.116 45.684z" style="fill:url(#aD);fill-opacity:1;fill-rule:evenodd;stroke:#000;stroke-width:1pt;stroke-linecap:butt;stroke-linejoin:miter;stroke-opacity:1" inkscape:connector-curvature="0"/><path sodipodi:nodetypes="csssscsscssz" d="M288.662 809.925c9.371 3.317 47.286 20.771 62.392 19.67 21.453-1.562 32.444-22.586 45.18-31.963 19.2-14.137 29.337-17.371 47.147-21.146 1.912-.405 4.375-1.73 4.641-3.688l4.641-34.177c-1.004 5.081-20.203 10.163-49.729 14.26-4.25.59-8.938 4.533-10.88 8.36l-21.207 41.8c-5.665 7.786-11.635 17.586-22.713 17.888-19.123.52-43.26-11.973-59.242-16.812-3.951-1.197-9.601 2.492-.23 5.808z" style="fill:url(#aE);fill-opacity:1;fill-rule:evenodd;stroke:url(#linearGradient7671);stroke-width:1pt;stroke-linecap:butt;stroke-linejoin:miter;stroke-opacity:1" inkscape:connector-curvature="0"/><ellipse transform="matrix(.90153 .96704 -.92821 .93924 825.512 -409.213)" style="fill:url(#aF);fill-opacity:1;fill-rule:evenodd;stroke:url(#linearGradient7675);stroke-width:1pt;stroke-linecap:butt;stroke-linejoin:miter;stroke-opacity:1" cx="471.60263" cy="839.90192" rx="8.2584791" ry="8.8669987"/><path sodipodi:nodetypes="cssssss" d="M561.577 709.157c5.384-1.806 11.503 1.713 12.624 5.29 1.33 4.243-3.964 10.01-14.19 11.053-18.474 1.885-90.898 8.758-102.51 9.81-10.086.913-15.59-6.059-9.63-6.68l104.075-10.853c15.276-1.593 3.062-6.416 9.63-8.62z" style="fill:url(#aG);fill-opacity:1;fill-rule:evenodd;stroke:none" inkscape:connector-curvature="0"/><ellipse transform="rotate(-6.896 452.434 728.147)" style="fill:url(#aH);fill-opacity:1;fill-rule:evenodd;stroke:url(#linearGradient7681);stroke-width:1pt;stroke-linecap:butt;stroke-linejoin:miter;stroke-opacity:1" cx="488.55426" cy="753.49219" rx="14.256743" ry="8.5192738"/><path sodipodi:nodetypes="csccscssccssccssccssccssccssccssccssccscccssccssccssc" d="M704.705 925.958c-1.772 37.258-32.348 55.838-50.54 59.503-9.88 1.991-40.1-5.924-41.667-36.307-1.051-32.513 25.124-58.416 51.643-62.59 15.694-2.628 42.108 6.932 40.564 39.394zm-43.292 4.52.072-30.18c.014-5.718 18.654-3.37 16.62.276l-16.692 29.904zm-3.178 10.506-.454 31.19c-.083 5.719-19.41 3.185-17.321-.43l17.775-30.76zm3.746-.258-.72 29.132c-.142 5.717 17.817-2.296 14.878-6.91l-14.158-22.222zm-3.78-10.16.127-29.523c.025-5.719-17.064 3.663-14.776 7.157l14.649 22.366zm5.59 1.72 16.461-29.3c2.801-4.987 14.71 7.613 11.282 9.998l-27.743 19.303zm-7.939 7.63-18.797 29.468c-3.075 4.821-14.25-9.078-10.695-11.271l29.492-18.197zm9.083-3.235 27.9-3.414c4.465-.546-.521 15.137-4.155 13.58l-23.745-10.166zm-10.767-2.138-27.654 2.184c-5.701.45.56-15.69 4.298-13.826l23.356 11.642zm1.622-2.354-22.383-11.859c-3.884-2.058 5.584-13.515 8.448-9.34l13.935 21.199zm8.162 6.922 23.061 10.63c5.194 2.394-6.477 14.504-8.777 11.019l-14.284-21.649zm-9.447-1.57-28.694 16.59c-4.951 2.862-4.97-13.28-.814-13.69l29.508-2.9zm10.247-3.154 27.04-17.412c4.807-3.096 5.671 12.027 1.55 12.705l-28.59 4.707z" style="fill:url(#aI);fill-opacity:1;fill-rule:evenodd;stroke:none" inkscape:connector-curvature="0" transform="translate(-412.67 -53.045)"/><path sodipodi:nodetypes="cccccccccc" d="M690.93 964.176c-18.464 22.148-47.387 27.307-64.561 11.515-17.174-15.792-16.128-46.584 2.335-68.732 18.464-22.148 47.387-27.307 64.56-11.515 17.175 15.792 16.128 46.584-2.335 68.732zm-2.645-1.87c-17.447 20.93-44.78 25.805-61.01 10.881-16.229-14.923-15.24-44.022 2.208-64.951 17.447-20.93 44.78-25.805 61.01-10.882 16.229 14.924 15.24 44.022-2.208 64.952z" style="fill:url(#aJ);fill-opacity:1;fill-rule:evenodd;stroke:url(#linearGradient7687);stroke-width:.99533491pt;stroke-linecap:butt;stroke-linejoin:miter;stroke-opacity:1" inkscape:connector-curvature="0" transform="translate(-412.67 -53.045)"/><path d="M702.036 951.663c-13.054 27.298-43.498 41.857-67.957 32.499-24.459-9.36-33.715-39.11-20.662-66.408 13.054-27.299 43.499-41.858 67.957-32.5 24.46 9.36 33.715 39.11 20.662 66.409zm-11.315 12.702c-18.463 22.148-47.386 27.307-64.56 11.515-17.174-15.792-16.128-46.584 2.335-68.732 18.463-22.148 47.386-27.307 64.56-11.515 17.174 15.793 16.128 46.584-2.335 68.732z" style="fill:url(#aK);fill-opacity:1;fill-rule:evenodd;stroke:none" inkscape:connector-curvature="0" transform="translate(-412.67 -53.045)"/><ellipse transform="matrix(.90153 .96704 -.92821 .93924 601.466 -362.277)" style="fill:url(#aL);fill-opacity:1;fill-rule:evenodd;stroke:url(#linearGradient7693);stroke-width:1pt;stroke-linecap:butt;stroke-linejoin:miter;stroke-opacity:1" cx="471.60263" cy="839.90192" rx="8.2584791" ry="8.8669987"/><path sodipodi:nodetypes="ccsccs" d="M389.964 652.071c8.589 14.927-1.353 67.371 9.835 101.302-34.484-36.39-38.123-85.425-43.812-90.049-7.248-5.891-47.163-37.393-48.146-47.151 7.868-5.748 12.663 2.459 27.538-4.426 9.957.984 50.466 33.165 54.585 40.324z" style="fill:url(#aM);fill-opacity:1;fill-rule:evenodd;stroke:none" inkscape:connector-curvature="0"/><path sodipodi:nodetypes="ccsccs" d="M426.19 646.058c6.622 9.517-16.106 64.42-26.063 107.695-14.814-49.176-5.963-94.672-9.881-100.868-5.28-8.35-47.655-34.934-55.523-41.742 15.736 3.104 26.433 4.426 37.374 3.442 9.957.984 49.376 24.693 54.093 31.473z" style="fill:url(#aN);fill-opacity:1;fill-rule:evenodd;stroke:none" inkscape:connector-curvature="0"/><path sodipodi:nodetypes="ccsccs" d="M452.676 652.205c6.622 9.517-32.826 59.502-52.618 96.876 10.758-49.176 28.756-94.276 26.018-100.868-3.584-8.625-43.721-26.082-51.59-32.89 15.737 3.104 12.664 4.917 23.605 3.934 9.957.984 49.868 26.168 54.585 32.948z" style="fill:url(#aO);fill-opacity:1;fill-rule:evenodd;stroke:none" inkscape:connector-curvature="0"/><path sodipodi:nodetypes="csscc" d="m457.239 595.199-.516 31.925c-.063 3.865 29.168 3.865 29.23 0l.516-31.925h-29.23z" style="fill:url(#aP);fill-opacity:1;fill-rule:evenodd;stroke:none" inkscape:connector-curvature="0"/><rect y="604.52411" x="454.10834" height="121.95599" width="3.9340641" style="fill:url(#aQ);fill-opacity:1;fill-rule:evenodd;stroke:none"/><path sodipodi:nodetypes="ccccc" d="M460.286 662.89c0 24.973-2.868 51.634-8.852 77.206-12.868 7.868-37.866 9.729-52.126 13.277 6.884-26.94 58.436-84.582 53.11-102.777 5.983 3.934 6.884 5.024 7.868 12.294z" style="fill:url(#aR);fill-opacity:1;fill-rule:evenodd;stroke:none" inkscape:connector-curvature="0"/><ellipse transform="matrix(1.10012 .277 -.30738 .99136 190.336 -104.688)" style="fill:url(#aS);fill-opacity:1;fill-rule:evenodd;stroke:none" cx="400.53693" cy="752.88153" rx="6.1469755" ry="7.8681283"/><path sodipodi:nodetypes="cccccccccccccccccccc" d="m392.582 574.587.348 12.519c5.194 2.495 4.488-3.615 5.748-3.21 1.26.406 1.415.443 2.675.849 1.26.406-.306 4.868 2.921 6.012 4.457 1.88 3.874-4.598 5.134-4.193 1.26.406 1.169.32 2.43.726 1.26.405.184 5.729 3.78 7.118 3.72 1.512 3.751-5.213 5.012-4.807 1.26.405 1.045.442 2.306.848 1.26.406-.184 5.483 4.027 7.61 4.088 1.758 3.628-5.09 4.888-4.684 1.26.406 1.538.565 2.798.971s-.798 5.36 3.659 7.364c3.596 1.266 4.365-5.09 5.626-4.684 1.26.406 1.291.565 2.552.971 1.26.406.185 5.852 3.166 7.364l3.782 1.217.348-14.952c-23.53-11.939-43.234-16.923-61.2-17.039z" style="fill:url(#aT);fill-opacity:1;fill-rule:evenodd;stroke:none" inkscape:connector-curvature="0"/><path sodipodi:nodetypes="csssscss" d="M390.948 574.865c18.352.312 39.735 7.172 61.47 16.228 1.87.78 3.874 1.553 5.9 1.475l136.734-5.235c2.17-.083 4.545-3.255 1.696-5.091-12.62-8.135-40.383-15.563-54.89-14.58l-147.468 3.515c-3.932.094-4.923 3.663-3.442 3.688z" style="fill:url(#aU);fill-opacity:1;fill-rule:evenodd;stroke:none" inkscape:connector-curvature="0"/><path sodipodi:nodetypes="csscc" d="m457.137 545.602-.516 22.521c-.062 2.727 29.168 2.727 29.23 0l.517-22.521h-29.23z" style="fill:url(#aV);fill-opacity:1;fill-rule:evenodd;stroke:none" inkscape:connector-curvature="0"/><ellipse transform="matrix(.96652 0 0 .59818 15.781 215.916)" style="fill:url(#aW);fill-opacity:1;fill-rule:evenodd;stroke:#000;stroke-width:1pt;stroke-linecap:butt;stroke-linejoin:miter;stroke-opacity:1" cx="471.84183" cy="551.7525" rx="14.506862" ry="5.4093385"/><path sodipodi:nodetypes="ccssccc" d="M453.764 556.215c-.834.68-1.756 2.49-1.72 3.257v13.725c0 13.445 40.18 13.444 40.335 0l.16-13.74c.029-1.192-.897-2.47-1.39-3.4-.403 8.055-36.95 9.322-37.385.158z" style="fill:url(#aX);fill-opacity:1;fill-rule:evenodd;stroke:none" inkscape:connector-curvature="0"/><path sodipodi:nodetypes="csscc" d="m579.773 591.326-15.995 120.217c-.173 1.3 3.76 1.3 3.934 0l15.995-120.217h-3.934z" style="fill:url(#aY);fill-opacity:1;fill-rule:evenodd;stroke:none" inkscape:connector-curvature="0"/><path sodipodi:nodetypes="ccccccccccccccccccccccsccccccccccccc" d="m454.098 591.367-.487 15.536 4.466-.145c5.054-.048 5.559-5.383 7.048-5.431 1.488-.048 1.01.026 2.499-.022 1.488-.048 1.87 5.067 5.695 5.018 5.423.075 4.944-5.752 6.433-5.8 1.489-.048 1.38-.097 2.868-.145 1.489-.048 1.01 5.313 5.327 5.141 4.193-.048 3.838-5.383 5.326-5.43 1.49-.05 1.134.025 2.622-.023 1.49-.048 1.748 4.82 5.45 5.018 4.193-.048 3.715-5.506 5.204-5.554 1.488-.048 1.256-.097 2.745-.145 1.488-.048 2.116 4.944 5.572 5.019 3.948-.295 3.715-5.26 5.204-5.309 1.489-.048 1.133.026 2.622-.022 1.489-.048 1.01 4.82 5.08 4.773 4.809.074 3.593-4.769 5.081-4.817 1.49-.048 1.503-.097 2.991-.145 1.489-.048 1.134 4.698 5.573 4.404 4.44-.172 4.207-4.769 5.695-4.817 1.489-.048 1.38-.097 2.868-.145 1.489-.048 1.625 4.329 5.942 4.527 4.316-.049 3.96-5.015 5.45-5.063 1.488-.048 1.501-.097 2.99-.145 1.489-.048 1.502 4.944 4.712 4.895 4.07-.17 3.223-4.4 4.712-4.447 1.489-.049 1.502-.22 2.99-.268 1.49-.049 1.626 4.206 5.204 4.158 4.07-.172 4.084-4.4 5.573-4.448 1.489-.049 1.502.026 2.99-.022 1.49-.049.642 4.698 3.483 4.772 1.49-.048 1.01.026 2.5-.022l.936-16.952-143.364 6.056z" style="fill:url(#aZ);fill-opacity:1;fill-rule:evenodd;stroke:none" inkscape:connector-curvature="0"/><path sodipodi:nodetypes="cssssssss" d="M284.44 671.95c-1.455-1.212-5.765-.986-6.26.696l-1.738 5.911c-.69 2.347.49 4.801 2.086 6.26l36.164 33.033c2.844 2.599 6.174 2.409 6.954.348l3.168-8.366c.861-2.275.14-4.12-2.82-6.586l-37.555-31.295z" style="fill:url(#ba);fill-opacity:1;fill-rule:evenodd;stroke:none" inkscape:connector-curvature="0"/><path sodipodi:nodetypes="cssssssssssssssss" d="M224.818 704.928c.648 4.853 3.932 2.737 2.975-2.375-1.132-6.04 3.496-12.05 11.476-12.472l20.207-1.068c3.741-.198 9.763.406 12.456 3.01l32.642 31.571c4.077 3.943 11.12 10.571-3.267 11.54l-25.992 1.748c-6.89.464-16.085 3.613-15.3 13.969.376 4.959 3.997 6.916 3.65 2.205-.736-10.016 6.247-12.051 11.997-12.458l25.87-1.83c19.53-1.383 12.834-11.297 8.606-15.283l-36.815-34.7c-2.954-2.785-10.106-3.209-13.846-3.01l-20.208 1.067c-10.436.551-15.695 8.769-14.451 18.086z" style="fill:url(#bb);fill-opacity:1;fill-rule:evenodd;stroke:none" inkscape:connector-curvature="0"/><path sodipodi:nodetypes="ccccc" d="m309.908 713.344-8.648 21.458 3.032.291 8.32-19.176-2.704-2.573z" style="fill:url(#bc);fill-opacity:1;fill-rule:evenodd;stroke:none" inkscape:connector-curvature="0"/><path sodipodi:nodetypes="ccccc" d="m281.071 686.878-6.803 18.262 2.213 2.335 7.049-18.27-2.459-2.327z" style="fill:url(#bd);fill-opacity:1;fill-rule:evenodd;stroke:none" inkscape:connector-curvature="0"/><path sodipodi:nodetypes="ccssssc" d="m312.084 757.665-.522 3.13 26.08-1.565c14.535-.872 11.912 7.285 6.085 17.908-4.282 7.805 2.327 2.664 5.563-3.478 6.134-11.639 1.077-18.339-11.649-17.56l-25.557 1.565z" style="fill:url(#be);fill-opacity:1;fill-rule:evenodd;stroke:none" inkscape:connector-curvature="0"/><path d="M232.11 683.052c0 5.157-11.677 9.343-26.063 9.343-14.387 0-26.064-4.186-26.064-9.343 0-5.158 11.677-9.344 26.064-9.344 14.386 0 26.063 4.186 26.063 9.344zm-3.824-1.336c0 3.185-9.998 5.769-22.317 5.769-12.32 0-22.318-2.584-22.318-5.769 0-3.184 9.998-5.768 22.318-5.768 12.319 0 22.317 2.584 22.317 5.768z" style="fill:url(#bf);fill-opacity:1;fill-rule:evenodd;stroke:none" inkscape:connector-curvature="0" transform="matrix(1.2382 0 0 1.16447 -49.435 -101.157)"/><path sodipodi:nodetypes="ccccccc" d="M206.156 675.656c-12.41 0-22.623 2.433-22.623 5.881 0 .535.326 1.036.782 1.532 2.302-2.77 11.331-4.475 21.998-4.475 10.452 0 19.172 1.755 21.687 4.441.37-.449.431-1.017.431-1.498 0-3.448-9.864-5.88-22.275-5.88z" style="fill:url(#bg);fill-opacity:1;fill-rule:evenodd;stroke:none" inkscape:connector-curvature="0" transform="matrix(1.2382 0 0 1.16447 -49.435 -101.157)"/><path sodipodi:nodetypes="cssss" d="M207.946 693.66c.392-.807-6.08-.976-5.168.111l-4.878-5.82c-1.09-1.299 13.575-1.554 12.997-.366l-2.951 6.075z" style="fill:url(#bh);fill-opacity:.75;fill-rule:evenodd;stroke:none" inkscape:connector-curvature="0"/><path sodipodi:nodetypes="csccs" d="M208.498 684.187c.773 1.314-6.254 1.19-5.286.061l-2.582 3.012c3.32.186 6.76.237 9.712.062l-1.844-3.135z" style="fill:url(#bi);fill-opacity:.75;fill-rule:evenodd;stroke:none" inkscape:connector-curvature="0"/><path sodipodi:nodetypes="cccccc" d="M203.59 693.315c-1.07-.409-1.987 2.237-.625 2.677l-21.06.218c-1.147-.525-3.228-1.49-3.594-2.566.153-1.351 1.53-2.1 3.074-2.54l22.205 2.21z" style="fill:url(#bj);fill-opacity:1;fill-rule:evenodd;stroke:none" inkscape:connector-curvature="0"/><path sodipodi:nodetypes="cccccc" d="M207.21 693.357c1.07-.408 1.971 1.956.608 2.396l21.092.561c1.453-.452 2.982-1.417 3.9-2.162-.153-1.35-1.822-2.932-3.364-3.372l-22.236 2.577z" style="fill:url(#bk);fill-opacity:1;fill-rule:evenodd;stroke:none" inkscape:connector-curvature="0"/><path sodipodi:nodetypes="csccs" d="M208.01 695.475c.746.935-6.418 1.174-5.346.135l-3.703 3.592c4.129.221 8.41.281 12.08.073l-3.031-3.8z" style="fill:url(#bl);fill-opacity:1;fill-rule:evenodd;stroke:none" inkscape:connector-curvature="0"/><ellipse transform="matrix(1.26263 0 0 1.3 -54.234 -193.757)" style="fill:url(#bm);fill-opacity:1;fill-rule:evenodd;stroke:none" cx="205.64706" cy="683.42072" rx="3.0427527" ry="1.5367439"/><path sodipodi:nodetypes="csscc" d="m202.973 692.21-.061 2.09c-.05 1.66 4.93 1.66 4.979 0l.061-2.09c-1.106.185-3.872.124-4.979 0z" style="fill:url(#bn);fill-opacity:1;fill-rule:evenodd;stroke:none" inkscape:connector-curvature="0"/><path sodipodi:nodetypes="ccccccc" d="M206.156 675.656c-12.41 0-22.623 2.433-22.623 5.881 0 .535.326 1.036.782 1.532 2.302-2.77 11.331-4.475 21.998-4.475 10.452 0 18.987 1.57 21.503 4.257.124-.203.502-.526.502-1.006 0-3.449-9.75-6.189-22.162-6.189z" style="fill:url(#bo);fill-opacity:1;fill-rule:evenodd;stroke:none" inkscape:connector-curvature="0"/><path d="M232.11 683.052c0 5.157-11.677 9.343-26.063 9.343-14.387 0-26.064-4.186-26.064-9.343 0-5.158 11.677-9.344 26.064-9.344 14.386 0 26.063 4.186 26.063 9.344zm-3.824-1.336c0 3.185-9.998 5.769-22.317 5.769-12.32 0-22.318-2.584-22.318-5.769 0-3.184 9.998-5.768 22.318-5.768 12.319 0 22.317 2.584 22.317 5.768z" style="fill:url(#bp);fill-opacity:1;fill-rule:evenodd;stroke:none" inkscape:connector-curvature="0"/><path sodipodi:nodetypes="cccccc" d="M203.957 682.376c-.86-.343-1.895 1.72-.8 2.09l-16.289.338c-.922-.44-2.397-1.25-2.889-1.998.123-1.133 1.28-1.967 2.52-2.336l17.458 1.906z" style="fill:url(#bq);fill-opacity:1;fill-rule:evenodd;stroke:none" inkscape:connector-curvature="0"/><path sodipodi:nodetypes="cccccc" d="M207.558 682.411c.86-.342 2.08 1.537.984 1.906l16.166.522c1.168-.379 2.398-1.188 3.135-1.813-.123-1.132-1.464-2.459-2.704-2.828l-17.58 2.213z" style="fill:url(#br);fill-opacity:1;fill-rule:evenodd;stroke:none" inkscape:connector-curvature="0"/><path sodipodi:nodetypes="cssss" d="M207.952 682.253c.372-.773-4.761-.578-4.303-.062l-3.872-4.364c-.926-1.043 10.925-1.298 10.45-.307l-2.275 4.733z" style="fill:url(#bs);fill-opacity:1;fill-rule:evenodd;stroke:none" inkscape:connector-curvature="0"/><ellipse transform="matrix(1.26263 0 0 1.3 -53.885 -205.057)" style="fill:url(#bt);fill-opacity:1;fill-rule:evenodd;stroke:none" cx="205.64706" cy="683.42072" rx="3.0427527" ry="1.5367439"/><path sodipodi:nodetypes="csscc" d="M203.096 705.181v63.929c0 1.72 5.164 1.72 5.164 0V705.18h-5.164z" style="fill:url(#bu);fill-opacity:1;fill-rule:evenodd;stroke:none" inkscape:connector-curvature="0"/><path sodipodi:nodetypes="csccccccccs" d="M366.102 674.28c-3.322.087-2.888 4.537.491 4.327 20.23-1.257 13.373 7.869 34.075 16.228 12.342-9.835 18.782-17.703 19.814-24.587 5.949 5.9 3.046 12.294-3.791 42.29 13.817 2.46 17.307 30.982 36.042 28.523l2.95-3.344c-20.21 1.967-21.241-23.604-35.058-28.03 6.345-17.211 12.198-39.832-.635-44.75-3.982 8.852-9.44 16.228-21.289 24.588-14.309-6.885-11.413-15.798-32.6-15.245z" style="fill:url(#bv);fill-opacity:1;fill-rule:evenodd;stroke:none" inkscape:connector-curvature="0"/><ellipse transform="matrix(1.26263 0 0 2.26 106.974 -867.535)" style="fill:url(#bw);fill-opacity:1;fill-rule:evenodd;stroke:none" cx="205.64706" cy="683.42072" rx="3.0427527" ry="1.5367439"/><ellipse transform="matrix(1.26263 0 0 2.26 162.051 -876.879)" style="fill:url(#bx);fill-opacity:.75;fill-rule:evenodd;stroke:none" cx="205.64706" cy="683.42072" rx="3.0427527" ry="1.5367439"/><ellipse transform="matrix(.70593 0 0 1.33716 255.115 -221.772)" style="fill:url(#by);fill-opacity:.75;fill-rule:evenodd;stroke:none" cx="205.64706" cy="683.42072" rx="3.0427527" ry="1.5367439"/><ellipse transform="matrix(.70593 0 0 1.33716 274.04 -202.594)" style="fill:url(#bz);fill-opacity:.75;fill-rule:evenodd;stroke:none" cx="205.64706" cy="683.42072" rx="3.0427527" ry="1.5367439"/><g transform="matrix(-1 0 0 1 633.382 399.853)"><rect rx="4.8770542" ry="4.8770542" y="411.29898" x="450.81378" height="26.982996" width="9.7541084" style="fill:url(#bA);fill-opacity:1;fill-rule:evenodd;stroke:none"/><path sodipodi:nodetypes="csccs" d="M449.193 393.53c-7.222 0-7.222 21.665 0 21.665h16.082c-5.948-.085-4.996-21.819 0-21.665h-16.082z" style="fill:url(#bB);fill-opacity:1;fill-rule:evenodd;stroke:none" inkscape:connector-curvature="0"/><rect rx="4.8770542" ry="4.8770542" y="383.84891" x="450.59225" height="13.08478" width="9.7541084" style="fill:url(#bC);fill-opacity:1;fill-rule:evenodd;stroke:none"/><path d="M476.286 405.141c0 9.521-3.41 17.249-7.613 17.249-4.202 0-7.613-7.728-7.613-17.249 0-9.52 3.41-17.248 7.613-17.248 4.202 0 7.613 7.727 7.613 17.248zm-5.076.617c0 7.098-1.837 12.858-4.1 12.858s-4.1-5.76-4.1-12.858c0-7.098 1.837-12.858 4.1-12.858s4.1 5.76 4.1 12.858z" style="fill:url(#bD);fill-opacity:1;fill-rule:evenodd;stroke:none" inkscape:connector-curvature="0"/><path sodipodi:nodetypes="cccc" d="M464.19 386.674c0 2.953-17.204 2.953-17.204 0s3.854-5.35 8.602-5.35c4.749 0 8.603 2.397 8.603 5.35z" style="fill:url(#bE);fill-opacity:1;fill-rule:evenodd;stroke:none" inkscape:connector-curvature="0"/><ellipse transform="matrix(1 0 0 1.04673 -4.044 -19.073)" style="fill:url(#bF);fill-opacity:.75;fill-rule:evenodd;stroke:none" cx="470.93311" cy="405.61722" rx="4.4012442" ry="12.727922"/></g><path sodipodi:nodetypes="ccssssc" d="m184.667 725.805 4.282 7.232 19.065-.81c.57-.024 1.447-.684 1.463-1.253l.122-4.626c.017-.618-.476-1.521-1.094-1.497l-23.838.954z" style="fill:url(#bG);fill-opacity:1;fill-rule:evenodd;stroke:none" inkscape:connector-curvature="0"/><path sodipodi:nodetypes="ccccc" d="m217.616 716.772-20.538 55.51.098 4.949 22.973-59.51-2.533-.95z" style="fill:url(#bH);fill-opacity:1;fill-rule:evenodd;stroke:none" inkscape:connector-curvature="0"/><g transform="rotate(21.669 134.512 1017.756)"><path sodipodi:nodetypes="cssss" d="M103.97 718.198c-.17 4.545-3.002 4.828-3.303 0l-.87-13.909c-.371-5.939 4.93-6.269 4.694 0l-.521 13.909z" style="fill:url(#bI);fill-opacity:1;fill-rule:evenodd;stroke:none" inkscape:connector-curvature="0"/><rect ry="0.37244028" rx="2.4587929" y="718.11169" x="100.14493" height="3.8238361" width="4.1727052" style="fill:url(#bJ);fill-opacity:1;fill-rule:evenodd;stroke:none"/></g><g transform="matrix(.75351 .2201 -.25809 .67122 295.309 216.53)"><path sodipodi:nodetypes="cssss" d="M103.97 718.198c-.17 4.545-3.002 4.828-3.303 0l-.87-13.909c-.371-5.939 4.93-6.269 4.694 0l-.521 13.909z" style="fill:url(#bK);fill-opacity:1;fill-rule:evenodd;stroke:none" inkscape:connector-curvature="0"/><rect ry="0.52745879" rx="3.086077" y="718.11169" x="100.14493" height="3.8238361" width="4.1727052" style="fill:url(#bL);fill-opacity:1;fill-rule:evenodd;stroke:none"/></g><g transform="matrix(.99997 .0043 -.00698 .61667 123.34 231.132)"><path sodipodi:nodetypes="cssss" d="M103.97 718.198c-.17 4.545-3.002 4.828-3.303 0l-.87-13.909c-.371-5.939 4.93-6.269 4.694 0l-.521 13.909z" style="fill:url(#bM);fill-opacity:1;fill-rule:evenodd;stroke:none" inkscape:connector-curvature="0"/><rect ry="0.60393471" rx="2.4587929" y="718.11169" x="100.14493" height="3.8238361" width="4.1727052" style="fill:url(#bN);fill-opacity:1;fill-rule:evenodd;stroke:none"/></g><path sodipodi:nodetypes="cssss" d="M507.003 559.375c-.675 7.275-12.78 15.81-12.54 23.112.062 1.905 1.166 2.15 1.23-.246.19-7.303 12.968-15.837 12.293-23.112-.063-.675-.92-.43-.983.246z" style="fill:url(#bO);fill-opacity:1;fill-rule:evenodd;stroke:none" inkscape:connector-curvature="0"/><path sodipodi:nodetypes="cssss" d="M353.043 830.184c5.35 2.358-.272 25.827 8.36 30.12.819.408 4.435-.315 3.566-.737-9.71-4.713-3.997-27.64-8.606-29.875-.61-.295-3.94.219-3.32.492z" style="fill:url(#bP);fill-opacity:1;fill-rule:evenodd;stroke:none" inkscape:connector-curvature="0"/></g></svg>