<svg xmlns:dc="http://purl.org/dc/elements/1.1/" xmlns:cc="http://creativecommons.org/ns#" xmlns:rdf="http://www.w3.org/1999/02/22-rdf-syntax-ns#" xmlns="http://www.w3.org/2000/svg" width="800" height="640" viewBox="0 0 800 640.00003" version="1.1" id="svg1038"><metadata id="metadata1035"><rdf:RDF><cc:Work><dc:format>image/svg+xml</dc:format><dc:type rdf:resource="http://purl.org/dc/dcmitype/StillImage"/><dc:title/><dc:date>2023</dc:date><dc:creator><cc:Agent><dc:title>Timothée Giet</dc:title></cc:Agent></dc:creator><cc:license rdf:resource="http://creativecommons.org/licenses/by-sa/4.0/"/></cc:Work><cc:License rdf:about="http://creativecommons.org/licenses/by-sa/4.0/"><cc:permits rdf:resource="http://creativecommons.org/ns#Reproduction"/><cc:permits rdf:resource="http://creativecommons.org/ns#Distribution"/><cc:requires rdf:resource="http://creativecommons.org/ns#Notice"/><cc:requires rdf:resource="http://creativecommons.org/ns#Attribution"/><cc:permits rdf:resource="http://creativecommons.org/ns#DerivativeWorks"/><cc:requires rdf:resource="http://creativecommons.org/ns#ShareAlike"/></cc:License></rdf:RDF></metadata><path style="fill:#287cc7;fill-opacity:1;stroke:#112942;stroke-width:3;stroke-linecap:round;stroke-linejoin:round;stroke-miterlimit:4;stroke-dasharray:none;stroke-opacity:1" d="M222.285 271.66c-6.891-24.183-25.22-88.846-26.402-95.051 4.973-24.275 54.937 4.316 66.116 9.978l85.655 86.99z" id="path889"/><path style="fill:#287cc7;fill-opacity:1;stroke:#112942;stroke-width:3;stroke-linecap:round;stroke-linejoin:round;stroke-miterlimit:4;stroke-dasharray:none;stroke-opacity:1" d="M657.307 280.754c-3.757-15.493-8.253-32.458-9.136-35.715 5.022-10.709 39.8 3.258 48.051 6.692l38.3 36.86z" id="path893"/><path style="fill:#9da3a7;fill-opacity:1;stroke:#363c40;stroke-width:2;stroke-linecap:round;stroke-linejoin:round;stroke-opacity:1" d="M154.677 366.754c-.53 3.233 1.612 8.722 6.038 10.044 3.051.43 3.896-2.514 3.51-4.183-3.155-1.381-5.224-4.05-5.186-5.792.039-1.743-4.541-1.907-4.362-.069z" id="path953"/><path style="fill:#9da3a7;fill-opacity:1;stroke:#363c40;stroke-width:2;stroke-linecap:round;stroke-linejoin:round;stroke-opacity:1" d="M170.831 367.3c-.53 3.232 1.612 8.72 6.039 10.043 3.05.43 3.895-2.514 3.51-4.183-3.156-1.381-5.225-4.05-5.186-5.792.038-1.743-4.542-1.906-4.363-.068z" id="path953-7"/><path style="fill:#9da3a7;fill-opacity:1;stroke:#363c40;stroke-width:2;stroke-linecap:round;stroke-linejoin:round;stroke-opacity:1" d="M138.886 366.717c-.53 3.232 1.612 8.72 6.038 10.043 3.051.43 3.896-2.514 3.51-4.183-3.155-1.381-5.224-4.05-5.186-5.792.039-1.743-4.541-1.906-4.362-.068z" id="path953-5"/><path style="fill:#9da3a7;fill-opacity:1;stroke:#363c40;stroke-width:2;stroke-linecap:round;stroke-linejoin:round;stroke-opacity:1" d="M90.426 361.82c-.53 3.233 1.612 8.722 6.039 10.044 3.05.43 3.895-2.514 3.51-4.183-3.156-1.38-5.225-4.05-5.186-5.792.038-1.743-4.542-1.906-4.363-.068z" id="path953-3"/><path style="fill:#9da3a7;fill-opacity:1;stroke:#363c40;stroke-width:2;stroke-linecap:round;stroke-linejoin:round;stroke-opacity:1" d="M106.295 363.545c-.53 3.233 1.612 8.722 6.039 10.044 3.05.43 3.895-2.514 3.51-4.183-3.155-1.381-5.224-4.05-5.186-5.792.038-1.743-4.542-1.906-4.363-.069z" id="path953-5-5"/><path style="fill:#9da3a7;fill-opacity:1;stroke:#363c40;stroke-width:2;stroke-linecap:round;stroke-linejoin:round;stroke-opacity:1" d="M122.78 365.208c-.53 3.232 1.613 8.72 6.04 10.043 3.05.43 3.895-2.514 3.51-4.183-3.156-1.381-5.225-4.05-5.187-5.792.039-1.743-4.541-1.906-4.362-.068z" id="path953-5-6"/><path style="fill:#9da3a7;fill-opacity:1;stroke:#363c40;stroke-width:3;stroke-linecap:round;stroke-linejoin:round;stroke-miterlimit:4;stroke-dasharray:none;stroke-opacity:1" d="M49.15 300.936c-.441-4.363-1.803-9.483-3.627-7.757C43.7 294.905 5.908 425.177 3.5 440.816c15.915-20.932 46.08-109.329 45.578-117.003-.502-7.673-1.083-15.369.073-22.877z" id="path901-3"/><path style="fill:#287cc7;fill-opacity:1;stroke:#112942;stroke-width:3;stroke-linecap:round;stroke-linejoin:round;stroke-miterlimit:4;stroke-dasharray:none;stroke-opacity:1" d="M61.985 275.635c8.737-3.81 17.641-6.965 23.615-6.935 5.974.03 138.528-6.534 160.697-7.147 22.17-.612 174.354 2.852 184.429 2.675 9.502-5.774 17.492-11.78 21.661-13.446 4.17-1.665 68.213.896 79.053 2.272 10.839 1.377 171.164 29.044 175.058 27.636 3.895-1.408 26.231-62.067 28.557-66.62 2.326-4.555 11.709-12.932 20.077-13.284 8.367-.352 30.595 17.348 30.595 17.348-17.298 1.038-28.544 1.495-28.544 1.495l-8.652 74.425s44.475-1.554 46.957-1.244c2.481.31 2.75 30.488-27.936 36.29-30.688 5.803-185.093 26.023-199.938 27.705-14.846 1.681-66.365 6.983-81.766 8.518-15.401 1.534-225.659 2.975-230.043 2.724-.098 3.885-1.888 5.572-1.888 5.572s-169.739-9.774-177.89-11.495c-8.152-1.722-14.998-40.248-13.227-47.302-3.703-3.191-5.727-4.608-5.727-4.608s.43-31.452 4.912-34.579z" id="path887"/><path style="fill:#287cc7;fill-opacity:1;stroke:#112942;stroke-width:3;stroke-linecap:round;stroke-linejoin:round;stroke-miterlimit:4;stroke-dasharray:none;stroke-opacity:1" d="M251.514 351.706c22.208 26.91 123.919 149.778 129.85 154.693 21.595 17.898 39.662 6.787 60.969-12.223 0 0-24.775-129.547-25.13-132.158-.354-2.612 6.985-6.184 6.985-6.184-26.976-6.717-188.299-37.451-172.674-4.128z" id="path891"/><path style="fill:#287cc7;fill-opacity:1;stroke:#112942;stroke-width:3;stroke-linecap:round;stroke-linejoin:round;stroke-miterlimit:4;stroke-dasharray:none;stroke-opacity:1" d="m757.183 219.63 27.402 1.95 11.67 75.897-47.724-3.423z" id="path895"/><path style="fill:#287cc7;fill-opacity:1;stroke:#112942;stroke-width:3;stroke-linecap:round;stroke-linejoin:round;stroke-miterlimit:4;stroke-dasharray:none;stroke-opacity:1" d="M669.319 302.282c22.2 18.415 55.367 46.92 58.66 49.323 14.04 6.48 26.783 1.525 39.17-5.498l-17.776-42.222s-75.217-10.792-80.054-1.603z" id="path897"/><path style="fill:#287cc7;fill-opacity:1;stroke:#112942;stroke-width:3;stroke-linecap:round;stroke-linejoin:round;stroke-miterlimit:4;stroke-dasharray:none;stroke-opacity:1" d="M61.11 275.327c-13.567-.428-18.912-.8-28.25 4.369-9.336 5.169-15.278 9.331-15.123 12.133.155 2.803 8.883 10.375 14.085 13.38 5.202 3.006 21.683 6.376 28.044 5.888 2.438-5.224 6.555-22.58 1.244-35.77z" id="path899"/><path style="fill:#9da3a7;fill-opacity:1;stroke:#363c40;stroke-width:3;stroke-linecap:round;stroke-linejoin:round;stroke-miterlimit:4;stroke-dasharray:none;stroke-opacity:1" d="M48.271 283.657c.515 4.961 2.103 10.785 4.229 8.821 2.125-1.963 46.179-150.105 48.986-167.89-18.552 23.804-53.715 124.327-53.13 133.053.585 8.727 1.263 17.478-.085 26.016z" id="path901"/><path id="path923" style="fill:#659bd4;fill-opacity:1;stroke:#2b3b4c;stroke-width:2;stroke-linecap:round;stroke-linejoin:round;stroke-opacity:1" d="M448.447 253.408c-5.07 2.85-17.534 11.726-17.534 11.726.25 3.165 8.555 11.526 11.17 12.102.858.188 9.38.568 20.572 1.008l2.474-16.628c-5.62-.365-9.456-.704-9.896-.976-2.018-1.25-5.886-4.25-6.786-7.232zm20.807 8.8-2.624 16.551c9.254.359 18.35.328 28.775.694l2.407-16.167c-10.63-.47-20.344-.582-28.558-1.077zm32.437 1.18-2.56 16.14c13.61.474 28.649 1.047 28.649 1.047l2.467-15.947s-13.03-.564-28.556-1.24z"/><path style="fill:#659bd4;fill-opacity:1;stroke:#2b3b4c;stroke-width:2;stroke-linecap:round;stroke-linejoin:round;stroke-opacity:1" d="m495.79 250.997 4.894 8.644 28.574 1.353-6.042-8.667z" id="path949"/><path style="fill:#9da3a7;fill-opacity:1;stroke:#363c40;stroke-width:2;stroke-linecap:round;stroke-linejoin:round;stroke-opacity:1" d="M130.424 318.397c13.993.496 59.716 1.675 70.866 2.405 11.15.729 6.952 37.051-2.898 36.523-9.85-.527-63.223-3.138-73.403-3.791-10.18-.653-5.731-35.568 5.435-35.137z" id="path951"/><path style="fill:#20609a;fill-opacity:1;stroke:#112942;stroke-width:2;stroke-linecap:round;stroke-linejoin:round;stroke-opacity:1" d="M66.402 319.084c4.693 3.651 9.658 5.867 12.4 5.514 2.741-.354 5.963 7.312 4.173 12.958s-4.89 10.32-9.353 7.921c-4.463-2.398-7.563-14.329-7.22-26.393z" id="path1055"/><path style="fill:#9da3a7;fill-opacity:1;stroke:#363c40;stroke-width:1;stroke-linecap:round;stroke-linejoin:round;stroke-miterlimit:4;stroke-dasharray:none;stroke-opacity:1" d="M73.918 324.598c-.123 6.64 1.275 13.285 5.477 18.014 3.775-4.297 3.36-11.177 2.274-13.886-2.132-5.317-4.301-2.02-7.75-4.128z" id="path1057"/><path id="path1059-2" style="color:#000;font-style:normal;font-variant:normal;font-weight:400;font-stretch:normal;font-size:medium;line-height:normal;font-family:sans-serif;font-variant-ligatures:normal;font-variant-position:normal;font-variant-caps:normal;font-variant-numeric:normal;font-variant-alternates:normal;font-variant-east-asian:normal;font-feature-settings:normal;font-variation-settings:normal;text-indent:0;text-align:start;text-decoration:none;text-decoration-line:none;text-decoration-style:solid;text-decoration-color:#000;letter-spacing:normal;word-spacing:normal;text-transform:none;writing-mode:lr-tb;direction:ltr;text-orientation:mixed;dominant-baseline:auto;baseline-shift:baseline;text-anchor:start;white-space:normal;shape-padding:0;shape-margin:0;inline-size:0;clip-rule:nonzero;display:inline;overflow:visible;visibility:visible;isolation:auto;mix-blend-mode:normal;color-interpolation:sRGB;color-interpolation-filters:linearRGB;solid-color:#000;solid-opacity:1;vector-effect:none;fill:#0a284d;fill-opacity:1;fill-rule:nonzero;stroke:none;stroke-width:1;stroke-linecap:square;stroke-linejoin:miter;stroke-miterlimit:4;stroke-dasharray:none;stroke-dashoffset:0;stroke-opacity:1;color-rendering:auto;image-rendering:auto;shape-rendering:auto;text-rendering:auto;enable-background:accumulate;stop-color:#000" d="M315.367 263.826c-2.84 1.113-2.46.815-3.796 1.358l-2.794 1.135 2.869.927c3.694 1.196 58.077 19.117 75.211 24.722 8.4 2.749 54.596 20.104 98.53 36.719 35.771 13.528 60.467 23.275 71.999 27.663 1.502-.164 3.642-.39 4.814-.522-7.721-2.939-36.905-14.399-76.036-29.197-43.938-16.617-89.895-33.895-98.624-36.751-16.464-5.386-65.034-21.39-72.311-23.77 3.42-1.353 2.786-.952 5.935-2.184-1.934-.033-3.88-.068-5.797-.1z"/><path id="path1059" style="color:#000;font-style:normal;font-variant:normal;font-weight:400;font-stretch:normal;font-size:medium;line-height:normal;font-family:sans-serif;font-variant-ligatures:normal;font-variant-position:normal;font-variant-caps:normal;font-variant-numeric:normal;font-variant-alternates:normal;font-variant-east-asian:normal;font-feature-settings:normal;font-variation-settings:normal;text-indent:0;text-align:start;text-decoration:none;text-decoration-line:none;text-decoration-style:solid;text-decoration-color:#000;letter-spacing:normal;word-spacing:normal;text-transform:none;writing-mode:lr-tb;direction:ltr;text-orientation:mixed;dominant-baseline:auto;baseline-shift:baseline;text-anchor:start;white-space:normal;shape-padding:0;shape-margin:0;inline-size:0;clip-rule:nonzero;display:inline;overflow:visible;visibility:visible;isolation:auto;mix-blend-mode:normal;color-interpolation:sRGB;color-interpolation-filters:linearRGB;solid-color:#000;solid-opacity:1;vector-effect:none;fill:#c7ced1;fill-opacity:1;fill-rule:nonzero;stroke:none;stroke-width:1;stroke-linecap:square;stroke-linejoin:miter;stroke-miterlimit:4;stroke-dasharray:none;stroke-dashoffset:0;stroke-opacity:1;color-rendering:auto;image-rendering:auto;shape-rendering:auto;text-rendering:auto;enable-background:accumulate;stop-color:#000" d="M319.806 263.903c-2.431.954-1.717.524-2.886 1l-2.794 1.135 2.869.927c3.694 1.196 58.075 19.117 75.21 24.722 8.4 2.749 54.597 20.101 98.531 36.717 35.264 13.335 59.387 22.866 71.39 27.433.382-.043 1.22-.13 1.563-.17.505-.057 2.334-.292 3.15-.39-8.483-3.229-36.786-14.353-75.326-28.928-43.938-16.616-89.895-33.894-98.624-36.75-16.464-5.387-65.04-21.392-72.315-23.77 3.086-1.221 1.86-.587 5.019-1.823-1.94-.035-3.86-.07-5.787-.103z"/><path id="path1059-9" style="color:#000;font-style:normal;font-variant:normal;font-weight:400;font-stretch:normal;font-size:medium;line-height:normal;font-family:sans-serif;font-variant-ligatures:normal;font-variant-position:normal;font-variant-caps:normal;font-variant-numeric:normal;font-variant-alternates:normal;font-variant-east-asian:normal;font-feature-settings:normal;font-variation-settings:normal;text-indent:0;text-align:start;text-decoration:none;text-decoration-line:none;text-decoration-style:solid;text-decoration-color:#000;letter-spacing:normal;word-spacing:normal;text-transform:none;writing-mode:lr-tb;direction:ltr;text-orientation:mixed;dominant-baseline:auto;baseline-shift:baseline;text-anchor:start;white-space:normal;shape-padding:0;shape-margin:0;inline-size:0;clip-rule:nonzero;display:inline;overflow:visible;visibility:visible;isolation:auto;mix-blend-mode:normal;color-interpolation:sRGB;color-interpolation-filters:linearRGB;solid-color:#000;solid-opacity:1;vector-effect:none;fill:#b53a3a;fill-opacity:1;fill-rule:nonzero;stroke:none;stroke-width:1;stroke-linecap:square;stroke-linejoin:miter;stroke-miterlimit:4;stroke-dasharray:none;stroke-dashoffset:0;stroke-opacity:1;color-rendering:auto;image-rendering:auto;shape-rendering:auto;text-rendering:auto;enable-background:accumulate;stop-color:#000" d="M324.387 263.984c-2.337.918-1.549.458-2.68.918l-2.794 1.136 2.868.927c3.695 1.196 58.076 19.117 75.21 24.722 8.4 2.749 54.597 20.101 98.532 36.717 34.326 12.98 57.46 22.133 70.26 27.003 1.058-.125 2.967-.365 4.667-.577-9.657-3.675-36.589-14.276-74.15-28.48-43.938-16.617-89.898-33.895-98.627-36.751-16.464-5.387-65.042-21.395-72.315-23.772 3.011-1.191 1.668-.512 4.811-1.742-1.944-.035-3.845-.066-5.782-.1z"/></svg>