<svg xmlns:dc="http://purl.org/dc/elements/1.1/" xmlns:cc="http://creativecommons.org/ns#" xmlns:rdf="http://www.w3.org/1999/02/22-rdf-syntax-ns#" xmlns="http://www.w3.org/2000/svg" width="800" height="640" viewBox="0 0 800 640.00003" version="1.1" id="svg1038"><metadata id="metadata1035"><rdf:RDF><cc:Work><dc:format>image/svg+xml</dc:format><dc:type rdf:resource="http://purl.org/dc/dcmitype/StillImage"/><dc:title/><dc:date>2023</dc:date><dc:creator><cc:Agent><dc:title>Timothée Giet</dc:title></cc:Agent></dc:creator><cc:license rdf:resource="http://creativecommons.org/licenses/by-sa/4.0/"/></cc:Work><cc:License rdf:about="http://creativecommons.org/licenses/by-sa/4.0/"><cc:permits rdf:resource="http://creativecommons.org/ns#Reproduction"/><cc:permits rdf:resource="http://creativecommons.org/ns#Distribution"/><cc:requires rdf:resource="http://creativecommons.org/ns#Notice"/><cc:requires rdf:resource="http://creativecommons.org/ns#Attribution"/><cc:permits rdf:resource="http://creativecommons.org/ns#DerivativeWorks"/><cc:requires rdf:resource="http://creativecommons.org/ns#ShareAlike"/></cc:License></rdf:RDF></metadata><g id="layer2"><path id="path972-3" style="fill:#191919;fill-opacity:1;stroke:#191919;stroke-width:3;stroke-linecap:round;stroke-linejoin:round;stroke-opacity:1" d="M122.457 352.554c0 26.828-17.035 44.672-36.753 47.37-19.616 2.683-29.351 4.655-29.351-22.173 0-26.829 10.456-73.774 30.255-73.774s35.849 21.748 35.849 48.577z"/><ellipse style="fill:#21262a;fill-opacity:1;stroke:#121212;stroke-width:3;stroke-linecap:round;stroke-linejoin:round;stroke-opacity:1" id="path972" cx="68.327393" cy="352.09073" rx="35.849155" ry="48.577072"/><ellipse style="fill:#9b9999;fill-opacity:1;stroke:#212121;stroke-width:3;stroke-linecap:round;stroke-linejoin:round;stroke-opacity:1" id="path972-7" cx="66.700539" cy="352.00577" rx="25.813543" ry="35.128609"/><path id="path1041-5" style="fill:#191919;fill-opacity:1;stroke:#191919;stroke-width:3;stroke-linecap:round;stroke-linejoin:round;stroke-opacity:1" d="M554.883 391.216c11.056 37.147 1.023 76.868-52.501 90.105-33.331 8.243-52.542-18.523-66.665-54.615-2.712-6.932-17.61-62.48 14.43-78.164 57.635-28.212 93.68 5.528 104.736 42.674z"/><path style="fill:#191919;fill-opacity:1;stroke:none;stroke-width:3;stroke-linecap:round;stroke-linejoin:round;stroke-opacity:1" d="m576.19 405.999-152.215 22.414-307.806-57.203 399.157-76.74z" id="path1124"/><ellipse style="fill:#21262a;fill-opacity:1;stroke:#121212;stroke-width:3;stroke-linecap:round;stroke-linejoin:round;stroke-opacity:1" id="path1041" cx="340.98441" cy="533.3194" rx="62.169048" ry="70.175858" transform="rotate(-16.585) skewX(-.009)"/><path style="fill:#b2b3b0;fill-opacity:1;stroke:#323232;stroke-width:3;stroke-linecap:round;stroke-linejoin:round;stroke-opacity:1;opacity:.99955999" d="M624.252 257.271c19.681-.85 91.878 3.078 105.786 12.493 13.908 9.415-10.046 45.832-10.046 45.832z" id="path914"/><path style="fill:#c3c1c1;fill-opacity:1;stroke:#212121;stroke-width:3;stroke-linecap:round;stroke-linejoin:round;stroke-opacity:1" d="M726.467 268.256c6.49-.219 11.223 1.495 14.635 7.744 3.412 6.248 4.01 28.87-4.773 37.233-8.783 8.362-18.11-12.1-18.657-17.813-.547-5.712.149-26.873 8.795-27.164z" id="path918"/><ellipse style="fill:#191919;fill-opacity:1;stroke:#1a1a1a;stroke-width:3;stroke-linecap:round;stroke-linejoin:round;stroke-opacity:1" id="path1041-9" cx="517.86169" cy="534.37903" rx="54.761932" ry="61.83144" transform="rotate(-16.59) skewX(-.019)"/><path style="fill:#397e9e;fill-opacity:1;stroke:#263339;stroke-width:3;stroke-linecap:round;stroke-linejoin:round;stroke-opacity:1" d="m82.509 250.621 20.772-26.938-2.152 33.415-24.55 4.962z" id="path1035"/><path style="fill:#5a99b6;fill-opacity:1;stroke:#263339;stroke-width:3;stroke-linecap:round;stroke-linejoin:round;stroke-opacity:1" d="M451.547 169.967c11.82 13.919 54.929 61.855 55.247 64.277.317 2.422-173.736 41.969-173.736 41.969l-230.005-9.138 28.387-73.17c48.35-18.035 228.254-32.729 320.107-23.938z" id="path1126"/><path style="fill:#3c3131;fill-opacity:1;stroke:#1a1919;stroke-width:3;stroke-linecap:round;stroke-linejoin:round;stroke-opacity:1" d="M109.373 209.936c4.185-9.054 19.634-17.97 30.002-22.543 10.368-4.573 57.983-22.494 118.812-26.763 60.828-4.268 160.88-8.094 185.582 4.82-23.552-.614-98.72 6.191-181.001 11.853-84.162 5.792-148.999 31.739-153.395 32.633z" id="path912"/><path style="fill:#cacaca;fill-opacity:1;stroke:#212121;stroke-width:3;stroke-linecap:round;stroke-linejoin:round;stroke-opacity:1" d="m747.157 321.772 17.586 5.543 23.151 20.556-24.864 23.104-47.81 24.398-26.65 5.416s-72.392 25.62-83.716 27.276c-11.324 1.656-36.887 3.366-36.887 3.366l-16.398-30.495-4.88.376-13.104-12.456 10.95-7.138-1.267-4.38 110.005-41.856z" id="path968"/><ellipse style="fill:#827f7f;fill-opacity:1;stroke:#212121;stroke-width:3;stroke-linecap:round;stroke-linejoin:round;stroke-opacity:1" id="path972-7-5" cx="65.771187" cy="351.67679" rx="18.255735" ry="25.000589"/><path style="fill:#b2b3b0;fill-opacity:1;stroke:#323232;stroke-width:3;stroke-linecap:round;stroke-linejoin:round;stroke-opacity:1" d="M8.51 328.108c-.452-16.215 8.567-28.9 15.487-36.202 6.92-7.303 49.808-26.098 64.802-28.12 14.995-2.022 25.024-3.178 30.353-3.174 5.329.004 90.361-1.31 97.032-1.672 6.672-.361 119.706-1.012 125.868-1.24 6.163-.23 44.914-5.892 51.885-7.352 6.97-1.46 59.31-10.773 68.789-12.227 9.478-1.453 40.46-5.014 45.461-4.49 5 .522 40.83 7.348 46.348 8.18 5.518.831 48.951 7.635 71.838 15.022 22.887 7.388 89.69 36.4 120.784 64.939 1.293 4.466-8.819 12.955-8.819 12.955l-77.513 12.714s-2.244 11.686-2.478 13.627c-.233 1.94-3.6 7.577-13.94 8.871-10.34 1.294-97.182 6.326-101.726 6.49-4.543.163-15.526-8.165-16.656-10.249-1.129-2.084-11.117-25.017-29.695-35.652-18.578-10.634-55.559-17.015-75.11 6.442-19.552 23.458-17.323 41.084-17.354 47.864-.032 6.781 4.358 30.127-17.583 28.005-21.941-2.12-287.216-41.64-287.216-41.64s-66.643-13.586-74.173-20.178c-7.53-6.591-15.77-19.764-16.384-22.913z" id="path896"/><path style="fill:#878484;fill-opacity:1;stroke:none;stroke-width:3;stroke-linecap:round;stroke-linejoin:round;stroke-opacity:1" d="m550.91 396.226 18.036 33.788s34.24-3.154 36.653-3.431c6.723-.771 56.766-17.453 68.97-22.362 5.014-2.017 34.35-8.884 40.331-10.234 8.767-3.588 41.946-21.356 41.946-21.356l2.953-6.255-64.888 18.1z" id="path1158"/><path style="fill:#cacaca;fill-opacity:1;stroke:#212121;stroke-width:3;stroke-linecap:round;stroke-linejoin:round;stroke-opacity:1" d="M19.88 333.52c-8.347-3.789-12.91-2.921-15.694-.967-2.783 1.954 3.674 9.616 6.03 10.33 2.357.716 9.66 2.463 11.175 1.824 1.515-.638-.027-8.206-1.51-11.188z" id="path898"/><path style="fill:#b2b3b0;fill-opacity:1;stroke:#323232;stroke-width:3;stroke-linecap:round;stroke-linejoin:round;stroke-opacity:1" d="M49.144 277.199c10.613-9.499 29.888-26.348 33.365-26.578-1.197 2.9-2.459 6.347-.14 6.594 2.317.248 9.657-.19 9.657-.19l-2.367 6.374s-26.792 6.68-40.515 13.8z" id="path900"/><path style="fill:#b2b3b0;fill-opacity:1;stroke:#323232;stroke-width:3;stroke-linecap:round;stroke-linejoin:round;stroke-opacity:1" d="m89.659 263.4 15.245-42.323 28.787-16.932-14.605 56.43s-16.506.242-29.427 2.824z" id="path902"/><path style="fill:#b2b3b0;fill-opacity:1;stroke:#323232;stroke-width:3;stroke-linecap:round;stroke-linejoin:round;stroke-opacity:1" d="m212.647 257.828 2.445-73.487 6.098-.585-.537 74.011z" id="path904"/><path style="fill:#b2b3b0;fill-opacity:1;stroke:#323232;stroke-width:3;stroke-linecap:round;stroke-linejoin:round;stroke-opacity:1" d="M335.065 256.397c-5.624-12.958-23.986-71.774-31.824-74.744-7.838-2.97-13.493-2.75-13.493-2.75l45.952-3.932s-6.42 2.59-10.879 5.177c-4.458 2.586-10.74 5.066-6.592 17.458 4.148 12.391 21.733 59.485 21.733 59.485z" id="path906"/><ellipse style="fill:#e6e5e5;fill-opacity:1;stroke:#212121;stroke-width:3;stroke-linecap:round;stroke-linejoin:round;stroke-opacity:1" id="path916" cx="733.10425" cy="290.45599" rx="5.8256402" ry="17.233356"/><path style="fill:none;stroke:#323232;stroke-width:2;stroke-linecap:round;stroke-linejoin:round;stroke-opacity:1;stroke-miterlimit:4;stroke-dasharray:none" d="M339.962 257.091c-2.459 12.87 10.469 19.07 21.151 19.976 10.683.908 64.592 1.458 64.592 1.458s142.459 6.018 153.02 16.266c10.563 10.247 7.728 44.347 1.86 48.025-5.87 3.678-37.302 17.51-37.302 17.51" id="path954"/><path style="fill:none;stroke:#323232;stroke-width:2;stroke-linecap:round;stroke-linejoin:round;stroke-opacity:1;stroke-miterlimit:4;stroke-dasharray:none" d="M602.636 314.786c8.601 4.114 55.218 27.547 58.189 32.655" id="path956"/><path style="fill:#c3c1c1;fill-opacity:1;stroke:#212121;stroke-width:3;stroke-linecap:round;stroke-linejoin:round;stroke-opacity:1" d="M583.72 295.277c11.16-.393 20.788 8.702 20.83 29.428.27 16.435-9.591 26.865-25.438 25.887-13.877-.857-18.047-54.518 4.608-55.315z" id="path946"/><ellipse style="fill:#e6e5e5;fill-opacity:1;stroke:#212121;stroke-width:3;stroke-linecap:round;stroke-linejoin:round;stroke-opacity:1" id="path944" cx="589.42822" cy="322.75763" rx="10.506716" ry="21.226725"/><path style="fill:none;stroke:#323232;stroke-width:2;stroke-linecap:round;stroke-linejoin:round;stroke-opacity:1;stroke-miterlimit:4;stroke-dasharray:none" d="M98.754 370.132c-2.412-6.316-4.992-22.635-5.523-23.95.647-18.76 5.289-68.887 10.12-75.598 4.48-6.376 7.004-8.801 7.004-8.801" id="path948"/><path style="fill:none;stroke:#323232;stroke-width:2;stroke-linecap:round;stroke-linejoin:round;stroke-opacity:1;stroke-miterlimit:4;stroke-dasharray:none" d="M204.069 385.912c-3.094-9.097-5.041-23.912-5.198-28.43 1.03-8.297 9.408-91.017 11.113-93.499 1.706-2.481 2.663-6.155 2.663-6.155" id="path950"/><path style="fill:none;stroke:#323232;stroke-width:2;stroke-linecap:round;stroke-linejoin:round;stroke-opacity:1;stroke-miterlimit:4;stroke-dasharray:none" d="M354.122 407.473c1.475-11.489 2.788-32.41 2.788-32.41s6.259-58.615 7.865-65.283c1.607-6.668 4.047-24.24 8.393-27.202 4.346-2.963 5.866-4.436 5.866-4.436" id="path952"/><path style="fill:#d9ca94;fill-opacity:1;stroke:#49432d;stroke-width:2;stroke-linecap:round;stroke-linejoin:round;stroke-opacity:1;stroke-miterlimit:4;stroke-dasharray:none" d="m557.298 359.406-.376 7.965c8.879.401 21.851.194 28.657-1.635l-1.272-9.417c-4.084 1.416-19.68 2.5-27.01 3.087z" id="path970"/><ellipse style="fill:#9b9999;fill-opacity:1;stroke:#212121;stroke-width:3;stroke-linecap:round;stroke-linejoin:round;stroke-opacity:1" id="path1041-6" cx="341.15283" cy="533.42737" rx="41.851952" ry="47.287815" transform="rotate(-16.603) skewX(-.045)"/><ellipse style="fill:#827f7f;fill-opacity:1;stroke:#212121;stroke-width:3;stroke-linecap:round;stroke-linejoin:round;stroke-opacity:1" id="path1041-6-2" cx="341.36325" cy="533.56262" rx="29.681318" ry="33.576977" transform="rotate(-16.625) skewX(-.09)"/><path style="fill:#b2b3b0;fill-opacity:1;stroke:#323232;stroke-width:3;stroke-linecap:round;stroke-linejoin:round;stroke-opacity:1" d="M127.4 207.15c-4.887-3.337-2.307-6.016 1.79-7.976 9.899-4.736 48.242-15.499 60.836-18.219 21.068-4.55 64.335-5.814 96.425-7.99 41.912-2.844 83.505-5.817 125.48-7.909 10.328-.994 40.31 1.423 42.118 2.103 1.809.68 3.181 3.098 2.189 4.422-.993 1.324-24.141-2.703-43.709-1.126-19.567 1.577-71.781 3.988-76.83 4.516-5.047.528-45.951 3.933-45.951 3.933s-79.823 3.434-100.551 8.372c-20.729 4.938-49.208 12.444-61.797 19.875z" id="path908"/><path style="fill:#3c3131;fill-opacity:1;stroke:#1a1919;stroke-width:3;stroke-linecap:round;stroke-linejoin:round;stroke-opacity:1" d="M133.69 204.145c-17.133 1.175-37.12 5.501-37.736 8.11-.617 2.607-1.384 8.785 7.327 11.428l1.623-2.606z" id="path910"/><rect style="fill:#c7c7c7;fill-opacity:1;stroke:#212121;stroke-width:2.00000004;stroke-linecap:round;stroke-linejoin:round;stroke-opacity:1;stroke-miterlimit:4;stroke-dasharray:none" id="rect1128" width="6.8894701" height="9.2887001" x="-125.16289" y="265.3717" ry="2.8538101" rx="2.8538101" transform="rotate(-45.008)"/><path style="fill:#c7c7c7;fill-opacity:1;stroke:#212121;stroke-width:2;stroke-linecap:round;stroke-linejoin:round;stroke-opacity:1;stroke-miterlimit:4;stroke-dasharray:none" d="M104.387 273.786c5.781.088 12.526.75 13.855.759 1.329.008 4.56 1.661 3.909 2.865-.652 1.204-2.303 1.637-3.55 1.167-1.247-.47-12.8-.812-14.43-.778-1.63.034-1.748-4.167.216-4.013z" id="path1130"/><rect style="fill:#c7c7c7;fill-opacity:1;stroke:#212121;stroke-width:2.00015932;stroke-linecap:round;stroke-linejoin:round;stroke-opacity:1;stroke-miterlimit:4;stroke-dasharray:none" id="rect1128-1" width="7.7094526" height="10.394238" x="-45.590034" y="342.18887" ry="2.8533697" rx="2.8533697" transform="scale(.99104 1.00888) rotate(-45)"/><path style="fill:#c7c7c7;fill-opacity:1;stroke:#212121;stroke-width:2;stroke-linecap:round;stroke-linejoin:round;stroke-opacity:1;stroke-miterlimit:4;stroke-dasharray:none" d="M213.68 273.925c6.411.1 13.893.847 15.367.856 1.473.01 5.058 1.875 4.335 3.235-.723 1.359-2.554 1.847-3.937 1.317s-14.198-.917-16.005-.879c-1.808.039-1.939-4.703.24-4.529z" id="path1130-2"/><path style="fill:#676464;fill-opacity:1;stroke:none;stroke-width:3;stroke-linecap:round;stroke-linejoin:round;stroke-opacity:1" d="M536.327 389.12c40.885.786 128.993-5.187 150.458-8.498 21.464-3.31 78.343-17.425 86.535-23.65-9.925 10.35-16.89 15.376-16.89 15.376s-60.243 17.511-68.671 18.85c-10.23 1.625-116.502 9.267-140.693 8.637-8.967-5.519-10.74-10.715-10.74-10.715z" id="path1156"/><path style="fill:#373636;fill-opacity:1;stroke:#191919;stroke-width:3;stroke-linecap:round;stroke-linejoin:round;stroke-opacity:1" d="M757.56 326.027s23.508 16.67 23.144 21.928c-.364 5.257-25.264 25.902-25.264 25.902 15.584-2.336 41.008-16.991 41.06-24.704.052-7.713-27.724-23.592-29.174-24.117-1.45-.525-8.679-1.293-9.767.991z" id="path960"/><path style="fill:#373636;fill-opacity:1;stroke:#191919;stroke-width:3;stroke-linecap:round;stroke-linejoin:round;stroke-opacity:1" d="M694.23 349.634c18.356-2.734 43.32-8.172 45.677-9.96 2.357-1.788 17.652-13.647 17.652-13.647L773.995 346s-14.192 12.38-21.232 15.366c-7.04 2.986-43.29 6.651-43.29 6.651z" id="path962"/><path style="fill:#373636;fill-opacity:1;stroke:#191919;stroke-width:3;stroke-linecap:round;stroke-linejoin:round;stroke-opacity:1" d="M675.049 348.752s23.963 18.114 23.867 21.761c-.097 3.647-23.274 31.13-23.274 31.13 5.915 2.507 40.274-14.896 41.018-25.43.744-10.535-26.853-29.118-28.71-29.095-1.858.023-10.713-1.257-12.901 1.634z" id="path958"/><path style="fill:#bfbfbf;fill-opacity:1;stroke:#212121;stroke-width:2;stroke-linecap:round;stroke-linejoin:round;stroke-opacity:1;stroke-miterlimit:4;stroke-dasharray:none" d="m714.293 348.508 13.746 22.691c12.489-5.986 39.065-15.757 42.477-15.18-2.463-5.388-10.923-20.45-10.923-20.45-12.352.67-40.482 9.893-45.3 12.939z" id="path964"/></g></svg>
