<!--Created with Sodipodi ("http://www.sodipodi.com/")--><svg xmlns:dc="http://purl.org/dc/elements/1.1/" xmlns:cc="http://creativecommons.org/ns#" xmlns:rdf="http://www.w3.org/1999/02/22-rdf-syntax-ns#" xmlns="http://www.w3.org/2000/svg" xmlns:xlink="http://www.w3.org/1999/xlink" xmlns:sodipodi="http://sodipodi.sourceforge.net/DTD/sodipodi-0.dtd" xmlns:inkscape="http://www.inkscape.org/namespaces/inkscape" sodipodi:version="0.34" width="318" height="146.15657" xml:space="preserve" sodipodi:docname="Eole.svg" inkscape:version="0.91 r13725"><metadata><rdf:RDF><cc:Work><dc:format>image/svg+xml</dc:format><dc:type rdf:resource="http://purl.org/dc/dcmitype/StillImage"/><dc:title/></cc:Work></rdf:RDF></metadata><defs><linearGradient xlink:href="#a" id="R" x1="219.32526" y1="715.98834" x2="213.37251" y2="677.7865" gradientTransform="matrix(.58515 0 0 .24604 17.05 -110.803)" gradientUnits="userSpaceOnUse"/><linearGradient id="f"><stop style="stop-color:#ccc;stop-opacity:1" offset="0"/><stop style="stop-color:#fff;stop-opacity:1" offset="1"/></linearGradient><linearGradient id="a"><stop style="stop-color:#0097ff;stop-opacity:1" offset="0"/><stop style="stop-color:#bfffff;stop-opacity:1" offset="1"/></linearGradient><linearGradient id="b"><stop style="stop-color:#4f2700;stop-opacity:1" offset="0"/><stop style="stop-color:#bf8d00;stop-opacity:1" offset="1"/></linearGradient><linearGradient id="e"><stop style="stop-color:#000;stop-opacity:1" offset="0"/><stop style="stop-color:#fff;stop-opacity:1" offset="1"/></linearGradient><linearGradient xlink:href="#a" id="K" x1="141.7805" y1="723.90515" x2="158.16017" y2="672.18793" gradientTransform="matrix(.5628 0 0 .25581 17.05 -110.803)" gradientUnits="userSpaceOnUse"/><linearGradient xlink:href="#b" id="F" x1="-591.27002" y1="-423.79285" x2="-658.90405" y2="-377.5155" spreadMethod="pad" gradientTransform="scale(.65059 1.53707)" gradientUnits="userSpaceOnUse"/><linearGradient xlink:href="#b" id="E" x1="-639.91406" y1="-390.55759" x2="-637.18719" y2="-390.43036" spreadMethod="reflect" gradientTransform="scale(.65059 1.53707)" gradientUnits="userSpaceOnUse"/><linearGradient xlink:href="#a" id="I" x1="206.73689" y1="565.59637" x2="209.72357" y2="554.63043" spreadMethod="pad" gradientTransform="matrix(.4568 0 0 .31518 17.05 -110.803)" gradientUnits="userSpaceOnUse"/><linearGradient xlink:href="#a" id="G" x1="222.67285" y1="479.2561" x2="314.33582" y2="504.90768" gradientTransform="matrix(.32653 0 0 .44092 17.05 -110.803)" gradientUnits="userSpaceOnUse"/><linearGradient xlink:href="#a" id="X" x1="400.31772" y1="448.90692" x2="241.72192" y2="521.53717" gradientTransform="matrix(.33956 0 0 .424 17.05 -110.803)" gradientUnits="userSpaceOnUse"/><linearGradient xlink:href="#a" id="L" x1="358.03973" y1="599.15717" x2="399.04977" y2="615.47723" gradientTransform="matrix(.3856 0 0 .37337 17.05 -110.803)" gradientUnits="userSpaceOnUse"/><linearGradient xlink:href="#a" id="M" x1="351.95029" y1="584.82648" x2="304.49384" y2="678.44531" gradientTransform="matrix(.50706 0 0 .28393 17.05 -110.803)" gradientUnits="userSpaceOnUse"/><linearGradient xlink:href="#a" id="N" x1="365.33197" y1="584.63263" x2="419.74722" y2="760.18427" gradientTransform="matrix(.61864 0 0 .23273 17.05 -110.803)" gradientUnits="userSpaceOnUse"/><linearGradient xlink:href="#a" id="O" x1="318.80801" y1="713.25568" x2="267.11484" y2="631.836" gradientTransform="matrix(.70129 0 0 .2053 17.05 -110.803)" gradientUnits="userSpaceOnUse"/><linearGradient xlink:href="#a" id="Z" x1="167.91939" y1="856.28741" x2="251.08772" y2="797.2384" gradientTransform="matrix(.64593 0 0 .2229 17.05 -110.803)" gradientUnits="userSpaceOnUse"/><linearGradient xlink:href="#a" id="P" x1="278.4563" y1="752.8382" x2="386.64825" y2="771.35724" gradientTransform="matrix(.5309 0 0 .27119 17.05 -110.803)" gradientUnits="userSpaceOnUse"/><linearGradient xlink:href="#a" id="Q" x1="271.90204" y1="848.62531" x2="277.22809" y2="712.9436" gradientTransform="matrix(.5463 0 0 .26354 17.05 -110.803)" gradientUnits="userSpaceOnUse"/><linearGradient xlink:href="#a" id="H" gradientTransform="matrix(.60765 0 0 .23693 17.05 -110.803)" x1="-13.24852" y1="657.81647" x2="127.7283" y2="657.81647" gradientUnits="userSpaceOnUse"/><linearGradient xlink:href="#a" id="J" x1="92.341835" y1="812.79419" x2="93.7939" y2="790.80414" gradientTransform="matrix(.6443 0 0 .22346 17.05 -110.803)" gradientUnits="userSpaceOnUse"/><linearGradient id="d"><stop style="stop-color:#f0da00;stop-opacity:1" offset="0"/><stop style="stop-color:#ca6f00;stop-opacity:1" offset="1"/></linearGradient><linearGradient xlink:href="#a" id="Y" x1="136.31586" y1="828.94849" x2="411.29611" y2="516.86884" gradientTransform="matrix(.64969 0 0 .2216 17.05 -110.803)" gradientUnits="userSpaceOnUse"/><linearGradient xlink:href="#c" id="r" x1="1027.507" y1="104.62423" x2="986.32605" y2="159.09984" gradientTransform="scale(.68196 1.46635)" gradientUnits="userSpaceOnUse"/><linearGradient id="c"><stop style="stop-color:#f3f2f3;stop-opacity:1" offset="0"/><stop style="stop-color:#191919;stop-opacity:1" offset="1"/></linearGradient><linearGradient xlink:href="#b" id="g" x1="369.62036" y1="876.63013" x2="448.3703" y2="876.63013" gradientUnits="userSpaceOnUse"/><linearGradient xlink:href="#b" id="V" x1="183.2933" y1="254.74509" x2="235.35805" y2="254.74509" gradientTransform="scale(.68407 1.46185)" gradientUnits="userSpaceOnUse"/><linearGradient xlink:href="#b" id="W" x1="166.80354" y1="383.11731" x2="233.14105" y2="383.11731" gradientTransform="scale(.99962 1.00038)" gradientUnits="userSpaceOnUse"/><linearGradient xlink:href="#b" id="U" x1="117.83271" y1="401.71802" x2="179.23495" y2="401.71802" gradientTransform="scale(.88443 1.13068)" gradientUnits="userSpaceOnUse"/><linearGradient xlink:href="#b" id="T" x1="245.76761" y1="295.11841" x2="294.21429" y2="295.11841" gradientTransform="scale(.64487 1.5507)" gradientUnits="userSpaceOnUse"/><linearGradient xlink:href="#f" id="ad" x1="186.25455" y1="694.21063" x2="192.09557" y2="640.75616" gradientTransform="matrix(.45282 0 0 .31795 17.05 -110.803)" gradientUnits="userSpaceOnUse"/><linearGradient inkscape:collect="always" xlink:href="#b" id="aa" x1="369.62036" y1="876.63013" x2="448.3703" y2="876.63013" gradientUnits="userSpaceOnUse"/><linearGradient inkscape:collect="always" xlink:href="#b" id="x" spreadMethod="reflect" x1="-644.89185" y1="-389.5238" x2="-642.16498" y2="-389.39658" gradientTransform="scale(.65059 1.53707)" gradientUnits="userSpaceOnUse"/><linearGradient inkscape:collect="always" xlink:href="#b" id="y" spreadMethod="reflect" x1="-613.62274" y1="-396.35974" x2="-610.89587" y2="-396.23251" gradientTransform="scale(.65059 1.53707)" gradientUnits="userSpaceOnUse"/><linearGradient inkscape:collect="always" xlink:href="#b" id="z" spreadMethod="reflect" x1="-617.51355" y1="-395.58118" x2="-614.78668" y2="-395.45395" gradientTransform="scale(.65059 1.53707)" gradientUnits="userSpaceOnUse"/><linearGradient inkscape:collect="always" xlink:href="#b" id="A" spreadMethod="reflect" x1="-621.79633" y1="-394.57852" x2="-619.06946" y2="-394.45129" gradientTransform="scale(.65059 1.53707)" gradientUnits="userSpaceOnUse"/><linearGradient inkscape:collect="always" xlink:href="#b" id="B" spreadMethod="reflect" x1="-626.39313" y1="-393.65158" x2="-623.66626" y2="-393.52435" gradientTransform="scale(.65059 1.53707)" gradientUnits="userSpaceOnUse"/><linearGradient inkscape:collect="always" xlink:href="#b" id="C" spreadMethod="reflect" x1="-630.8103" y1="-392.63174" x2="-628.08344" y2="-392.50452" gradientTransform="scale(.65059 1.53707)" gradientUnits="userSpaceOnUse"/><linearGradient inkscape:collect="always" xlink:href="#b" id="D" spreadMethod="reflect" x1="-635.22772" y1="-391.61188" x2="-632.50085" y2="-391.48465" gradientTransform="scale(.65059 1.53707)" gradientUnits="userSpaceOnUse"/><linearGradient inkscape:collect="always" xlink:href="#b" id="m" x1="369.62036" y1="876.63013" x2="448.3703" y2="876.63013" gradientUnits="userSpaceOnUse"/><linearGradient inkscape:collect="always" xlink:href="#b" id="j" x1="369.62036" y1="876.63013" x2="448.3703" y2="876.63013" gradientUnits="userSpaceOnUse"/><radialGradient inkscape:collect="always" xlink:href="#c" id="ab" gradientTransform="scale(1.01418 .98601)" cx="328.12747" cy="812.30835" fx="328.12747" fy="812.30835" r="2.0254464" gradientUnits="userSpaceOnUse"/><radialGradient inkscape:collect="always" xlink:href="#e" id="ac" cx="545.84412" cy="718.66193" fx="545.84412" fy="718.66193" r="179.61993" gradientUnits="userSpaceOnUse"/><radialGradient xlink:href="#d" id="s" cx="634.22205" cy="245.02542" r="27.5991" fx="634.22205" fy="245.02542" gradientTransform="scale(1.02956 .97129)" gradientUnits="userSpaceOnUse"/><radialGradient xlink:href="#c" id="v" cx="399.73233" cy="448.7034" r="4.2430081" fx="399.73233" fy="448.7034" gradientUnits="userSpaceOnUse"/><radialGradient xlink:href="#c" id="u" cx="400.14761" cy="449.28473" r="4.1524897" fx="400.14761" fy="449.28473" gradientUnits="userSpaceOnUse"/><radialGradient inkscape:collect="always" xlink:href="#e" id="l" cx="545.84412" cy="718.66193" fx="545.84412" fy="718.66193" r="179.61993" gradientUnits="userSpaceOnUse"/><radialGradient xlink:href="#c" id="S" cx="173.53561" cy="418.32071" r="6.8111048" fx="173.53561" fy="418.32071" gradientTransform="scale(.92673 1.07907)" gradientUnits="userSpaceOnUse"/><radialGradient xlink:href="#c" id="h" cx="328.12747" cy="812.30835" r="2.0254464" fx="328.12747" fy="812.30835" gradientTransform="scale(1.01418 .98601)" gradientUnits="userSpaceOnUse"/><radialGradient xlink:href="#e" id="i" cx="545.84412" cy="718.66193" r="179.61993" fx="545.84412" fy="718.66193" gradientUnits="userSpaceOnUse"/><radialGradient inkscape:collect="always" xlink:href="#d" id="w" gradientTransform="scale(1.32424 .75515)" cx="313.15128" cy="610.22949" fx="313.15128" fy="610.22949" r="15.496073" gradientUnits="userSpaceOnUse"/><radialGradient xlink:href="#d" id="t" gradientTransform="scale(1.0716 .93318)" cx="518.95105" cy="250.77138" fx="518.95105" fy="250.77138" r="29.485888" gradientUnits="userSpaceOnUse"/><radialGradient inkscape:collect="always" xlink:href="#c" id="n" gradientTransform="scale(1.01418 .98601)" cx="328.12747" cy="812.30835" fx="328.12747" fy="812.30835" r="2.0254464" gradientUnits="userSpaceOnUse"/><radialGradient inkscape:collect="always" xlink:href="#e" id="o" cx="545.84412" cy="718.66193" fx="545.84412" fy="718.66193" r="179.61993" gradientUnits="userSpaceOnUse"/><radialGradient xlink:href="#c" id="q" cx="648.43866" cy="174.16226" r="97.208031" fx="648.43866" fy="174.16226" gradientTransform="scale(.9355 1.06895)" gradientUnits="userSpaceOnUse"/><radialGradient inkscape:collect="always" xlink:href="#c" id="k" gradientTransform="scale(1.01418 .98601)" cx="328.12747" cy="812.30835" fx="328.12747" fy="812.30835" r="2.0254464" gradientUnits="userSpaceOnUse"/><radialGradient xlink:href="#c" id="p" gradientTransform="scale(1.21335 .82416)" cx="507.42322" cy="130.35054" fx="507.42322" fy="130.35054" r="12.898515" gradientUnits="userSpaceOnUse"/></defs><sodipodi:namedview showgrid="false" inkscape:zoom="0.44851479" inkscape:cx="-151.1614" inkscape:cy="272.27247" inkscape:window-width="818" inkscape:window-height="493" inkscape:window-x="4" inkscape:window-y="21" inkscape:window-maximized="0" inkscape:current-layer="svg1277" units="px" fit-margin-top="9" fit-margin-left="9" fit-margin-right="9" fit-margin-bottom="9"/><path style="fill:none;stroke:#000;stroke-width:.37943716pt;stroke-linecap:butt;stroke-linejoin:miter;stroke-opacity:1" d="m102.511 59.741 13.347-7.26" sodipodi:nodetypes="cc" inkscape:connector-curvature="0"/><g transform="matrix(.12427 .06017 -.0522 .1612 118.089 -19.538)"><path style="font-size:12px;fill:url(#g);fill-rule:evenodd" d="M408.995 906.437c5.285 0-5.284 0 0 0zm5.644 8.16c.648 4.362 27.682-1.364 27.699.204-.102 11.04-3.46 20.06-13.175 27.196-1.188.836-13.4-22.944-17.217-21.33-3.816 1.614 10.75 25.751 9.182 26.3-11.948 4.099-19.339 3.438-30.641-3.344-1.252-.8 16.904-20.771 14.096-23.696-2.806-2.963-20.06 19.31-21.022 18.156-7.107-8.773-9.898-19.358-6.656-32.076.39-1.432 24.687 11.556 26.3 7.74 1.614-3.816-23.385-14.426-22.313-15.948 6.773-9.84 13.73-14.818 27.17-15.58 1.518-.06-2.462 27.262 1.67 27.562 3.933.325 6.127-26.588 7.927-26.24 11.74 2.097 21.449 11.243 23.634 22.028.266 1.4-27.337 4.704-26.655 9.029zm33.731 1.409c0 21.746-17.629 39.375-39.375 39.375s-39.375-17.63-39.375-39.375c0-21.747 17.629-39.375 39.375-39.375s39.375 17.628 39.375 39.375z" sodipodi:nodetypes="cccssssssssssssccccccss" transform="translate(136.916 -195.354)" inkscape:connector-curvature="0"/><ellipse style="font-size:12px;fill:url(#h);fill-rule:evenodd" transform="matrix(2.11311 0 0 2.14492 -157.643 -998.125)" cx="332.7821" cy="801.00787" rx="3.977478" ry="3.8670044"/><path style="font-size:12px;fill:url(#i);fill-rule:evenodd;stroke-width:1" d="M584.596 720.75c0 21.401-17.35 38.75-38.75 38.75-21.401 0-38.75-17.349-38.75-38.75 0-21.4 17.349-38.75 38.75-38.75 21.4 0 38.75 17.35 38.75 38.75zm5.812 0c0 24.611-19.951 44.562-44.562 44.562-24.612 0-44.563-19.95-44.563-44.562 0-24.611 19.951-44.563 44.563-44.563 24.61 0 44.562 19.952 44.562 44.563z" inkscape:connector-curvature="0"/></g><g transform="matrix(.07559 .05082 -.0501 .09169 79.622 21.23)"><path style="font-size:12px;fill:url(#j);fill-rule:evenodd" d="M408.995 906.437c5.285 0-5.284 0 0 0zm5.644 8.16c.648 4.362 27.682-1.364 27.699.204-.102 11.04-3.46 20.06-13.175 27.196-1.188.836-13.4-22.944-17.217-21.33-3.816 1.614 10.75 25.751 9.182 26.3-11.948 4.099-19.339 3.438-30.641-3.344-1.252-.8 16.904-20.771 14.096-23.696-2.806-2.963-20.06 19.31-21.022 18.156-7.107-8.773-9.898-19.358-6.656-32.076.39-1.432 24.687 11.556 26.3 7.74 1.614-3.816-23.385-14.426-22.313-15.948 6.773-9.84 13.73-14.818 27.17-15.58 1.518-.06-2.462 27.262 1.67 27.562 3.933.325 6.127-26.588 7.927-26.24 11.74 2.097 21.449 11.243 23.634 22.028.266 1.4-27.337 4.704-26.655 9.029zm33.731 1.409c0 21.746-17.629 39.375-39.375 39.375s-39.375-17.63-39.375-39.375c0-21.747 17.629-39.375 39.375-39.375s39.375 17.628 39.375 39.375z" sodipodi:nodetypes="cccssssssssssssccccccss" transform="translate(136.916 -195.354)" inkscape:connector-curvature="0"/><ellipse style="font-size:12px;fill:url(#k);fill-rule:evenodd" transform="matrix(2.11311 0 0 2.14492 -157.643 -998.125)" cx="332.7821" cy="801.00787" rx="3.977478" ry="3.8670044"/><path style="font-size:12px;fill:url(#l);fill-rule:evenodd;stroke-width:1" d="M584.596 720.75c0 21.401-17.35 38.75-38.75 38.75-21.401 0-38.75-17.349-38.75-38.75 0-21.4 17.349-38.75 38.75-38.75 21.4 0 38.75 17.35 38.75 38.75zm5.812 0c0 24.611-19.951 44.562-44.562 44.562-24.612 0-44.563-19.95-44.563-44.562 0-24.611 19.951-44.563 44.563-44.563 24.61 0 44.562 19.952 44.562 44.563z" inkscape:connector-curvature="0"/></g><g transform="matrix(.14584 .07325 -.06878 .17984 72.48 -47.42)"><path style="font-size:12px;fill:url(#m);fill-rule:evenodd" d="M408.995 906.437c5.285 0-5.284 0 0 0zm5.644 8.16c.648 4.362 27.682-1.364 27.699.204-.102 11.04-3.46 20.06-13.175 27.196-1.188.836-13.4-22.944-17.217-21.33-3.816 1.614 10.75 25.751 9.182 26.3-11.948 4.099-19.339 3.438-30.641-3.344-1.252-.8 16.904-20.771 14.096-23.696-2.806-2.963-20.06 19.31-21.022 18.156-7.107-8.773-9.898-19.358-6.656-32.076.39-1.432 24.687 11.556 26.3 7.74 1.614-3.816-23.385-14.426-22.313-15.948 6.773-9.84 13.73-14.818 27.17-15.58 1.518-.06-2.462 27.262 1.67 27.562 3.933.325 6.127-26.588 7.927-26.24 11.74 2.097 21.449 11.243 23.634 22.028.266 1.4-27.337 4.704-26.655 9.029zm33.731 1.409c0 21.746-17.629 39.375-39.375 39.375s-39.375-17.63-39.375-39.375c0-21.747 17.629-39.375 39.375-39.375s39.375 17.628 39.375 39.375z" sodipodi:nodetypes="cccssssssssssssccccccss" transform="translate(136.916 -195.354)" inkscape:connector-curvature="0"/><ellipse style="font-size:12px;fill:url(#n);fill-rule:evenodd" transform="matrix(2.11311 0 0 2.14492 -157.643 -998.125)" cx="332.7821" cy="801.00787" rx="3.977478" ry="3.8670044"/><path style="font-size:12px;fill:url(#o);fill-rule:evenodd;stroke-width:1" d="M584.596 720.75c0 21.401-17.35 38.75-38.75 38.75-21.401 0-38.75-17.349-38.75-38.75 0-21.4 17.349-38.75 38.75-38.75 21.4 0 38.75 17.35 38.75 38.75zm5.812 0c0 24.611-19.951 44.562-44.562 44.562-24.612 0-44.563-19.95-44.563-44.562 0-24.611 19.951-44.563 44.563-44.563 24.61 0 44.562 19.952 44.562 44.563z" inkscape:connector-curvature="0"/></g><g transform="matrix(.06428 0 0 .06488 120.306 102.82)"><path style="font-size:12px;fill-rule:evenodd" d="M356.065 411.991c-21.722-.238-34.465 14.715-31.025 53.788 1.247 14.387-72.975 96.598 14.193 107.523l31.927.59c58.82-3.543 47.87-55.822 45.84-61.785-5.984-20.584-25.845-39.978-25.985-51.027-.136-33.735-12.405-49.441-34.95-49.089z" sodipodi:nodetypes="csccsss" transform="matrix(3 0 0 3 -795.888 -1413.188)" inkscape:connector-curvature="0"/><ellipse style="font-size:12px;fill:url(#p);fill-rule:evenodd" transform="matrix(2.0387 .9474 -.94564 1.89165 -834.236 -927.191)" cx="615.68225" cy="107.43024" rx="15.650421" ry="10.630493"/><path style="font-size:12px;fill:#f8f7f7;fill-rule:evenodd" d="M643.652 226.244c-10.346 12.627-24.77 22.072-47.986 21.677-23.664-.82-31.12-12.222-29.893-42.205.731-12.755 4.797-23.38 9.398-31.337 2.386-5.968 8.785-8.046 12.724-26.372 6.245 6.209 12.63 8.327 15.172 8.358 4.838.098 16.78-5.678 20.684-10.003 4.548 15.78 9.558 21.12 12.834 24.94 19.952 23.691 9.366 51.627 7.067 54.942z" sodipodi:nodetypes="cssccscss" transform="matrix(3 0 0 3 -1551.604 -463.849)" inkscape:connector-curvature="0"/><path style="font-size:12px;fill:url(#q);fill-rule:evenodd" d="M594.852 209.012c0 11.09 2.522 16.536 1.217 16.536-1.304 0-4.48-5.655-4.48-16.745s4.22-23.206 5.524-23.206c1.305 0-2.26 12.325-2.26 23.415zm37.418-39.432c4.176 3.717 7.69 8.095 8.734 13.482-7.159-6.222-19.12-9.103-26.07-10.732 6.115-.209 15.189.173 17.336-2.75zm-36.642 2.58c2.284 2.12 1.644 3.613 2.467 6.359.36-2.608 4.478-4.59 6.717-6.57-2.853.487-6.332.557-9.185.21zm-16.644-3.858c-2.311 2.656-5.194 6.937-7.995 14.49 5.906-6.64 11.7-7.163 18.232-9.835-5.906-.21-8.09-1.732-10.237-4.655zm45.552-22.757c-2.952 8.709-16.53 16.514-23.618 16.514-4.135 0-12.515-6.318-13.992-15.027 5.504 5.424 11.52 9.143 16.157 9.328 5.128.128 16.694-5.79 21.453-10.815z" sodipodi:nodetypes="cccccccccccccccccccccc" transform="matrix(3 0 0 3 -1551.604 -463.849)" inkscape:connector-curvature="0"/></g><path style="font-size:12px;fill-rule:evenodd" d="M566.178 204.005c0 20.593 27.306 21 21.63 28.517-5.168 7.388-37.088-5.987-37.088-26.58 2.088-15.583 4.846-20.437 23.925-49.576 12.895 2.832-8.467 27.045-8.467 47.639z" sodipodi:nodetypes="csccc" transform="matrix(.19285 0 0 .19465 20.563 72.724)" inkscape:connector-curvature="0"/><path style="font-size:12px;fill:url(#r);fill-rule:evenodd" d="M649.884 196.25c-.452 24.565-17.893 24.665-13.278 33.111 6.27 11.893 32.913-10.58 32.913-31.174 0-20.176-28.2-47.802-31.27-45.94-19.146 14.241 12.43 23.54 11.635 44.003z" sodipodi:nodetypes="cscss" transform="matrix(.19285 0 0 .19465 20.563 72.724)" inkscape:connector-curvature="0"/><path style="font-size:12px;fill:url(#s);fill-opacity:1;fill-rule:evenodd" d="M662.602 249.841c-9.646 4.88-19.578 19.563-32.31 13.52-8.94-4.146-4.629-14.197-5.136-19.83-.488-12.98-1.649-32.4 6.79-32.347 10.209.062 6.08 4.07 13.474 6.16 8.085 1.962 13.319-8.297 19.427-3.735 4.632 6.335-.225 9.713 5.358 15.882 2.963 3.57 7.546 3.493 10.149 6.406 5.42 5.45-12.034 10.757-17.752 13.944z" sodipodi:nodetypes="csssscsss" transform="matrix(.19285 0 0 .19465 20.563 72.724)" inkscape:connector-curvature="0"/><path style="font-size:12px;fill:url(#t);fill-rule:evenodd" d="M550.89 255.401c11.705 1.252 23.477 12.403 33.713 1.139 7.229-7.815.14-17.149-4.087-21.75-9.782-9.963-15.275-28.363-24.293-28.291-7.635.31-6.16 4.484-11.522 8.735-7.206 5.415-11.712 1.005-16.062 7.917-2.652 3.744-1.88 8.628-.753 13.8.793 4.92-.788 5.998-2.47 7.599-5.483 6.183 15.437 9.482 25.475 10.851z" sodipodi:nodetypes="cssssssss" transform="matrix(.19285 0 0 .19465 20.563 72.724)" inkscape:connector-curvature="0"/><g transform="matrix(.06428 0 0 .06488 120.306 102.82)"><path style="font-size:12px;fill:#f3f3f3;fill-opacity:1;fill-rule:evenodd" d="M409.638 449.186c-4.76.433-9.09 2.449-11.988 4.82-1.772 1.253-4.1-4.202-4.1-8.283 0-5.508 2.317-9.587 8.258-9.587 5.45 0 8.718 6.254 7.83 13.05z" sodipodi:nodetypes="ccccc" transform="matrix(3 0 0 3 -979.264 -1412.302)" inkscape:connector-curvature="0"/><path style="font-size:12px;fill:#f3f3f3;fill-opacity:1;fill-rule:evenodd" d="M416.233 449.481c4.613.517 10.489 2.843 14.018 4.708 1.964 1.252 3.522-4.09 3.522-8.17 0-4.327-2.729-10.179-9.315-10.179-6.927 0-9.21 5.073-8.225 13.641z" sodipodi:nodetypes="ccccc" transform="matrix(3 0 0 3 -979.264 -1412.302)" inkscape:connector-curvature="0"/><circle style="font-size:12px;fill:url(#u);fill-rule:evenodd" transform="matrix(3 0 0 3 -981.036 -1414.96)" cx="401.89166" cy="448.78644" r="5.3152466"/><circle style="font-size:12px;fill:url(#v);fill-rule:evenodd" transform="matrix(3 0 0 3 -911.938 -1416.732)" cx="401.89166" cy="448.78644" r="5.3152466"/><path style="font-size:12px;fill:url(#w);fill-rule:evenodd" d="M435.204 458.11c.258 5.931-16.632 14.408-23.073 14.408-5.267 0-17.585-8.165-17.962-13.665-.2-2.64 8.773-9.943 18.36-9.734 7.653 0 22.465 5.133 22.675 8.991z" sodipodi:nodetypes="ccscs" transform="matrix(3 0 0 3 -979.264 -1412.302)" inkscape:connector-curvature="0"/><path style="font-size:12px;fill:none;stroke:#000;stroke-linecap:round" d="M395.74 458.898c2.286-.47 4.862 7.763 13.993 8.071 7.809.284 17.701-6.333 23.96-8.633" sodipodi:nodetypes="csc" transform="matrix(3 0 0 3 -979.264 -1412.302)" inkscape:connector-curvature="0"/></g><g transform="matrix(.37944 0 0 .37944 12.623 -214.172)"><rect style="font-size:12px;fill:url(#x);fill-rule:evenodd" width="31.628338" height="74.724937" x="-419.13989" y="-646.90558" ry="5.8038669" transform="matrix(-.95436 -.29865 .16448 -.98638 0 0)" rx="5.8038669"/><rect style="font-size:12px;fill:url(#y);fill-rule:evenodd" width="31.628338" height="74.724922" x="-398.79666" y="-657.41284" ry="5.8038659" transform="matrix(-.95436 -.29865 .16448 -.98638 23.127 -4.668)" rx="5.8038659"/><rect style="font-size:12px;fill:url(#z);fill-rule:evenodd" width="31.628338" height="74.724937" x="-401.32794" y="-656.21619" ry="5.8038669" transform="matrix(-.95436 -.29865 .16448 -.98638 23.127 -4.668)" rx="5.8038669"/><rect style="font-size:12px;fill:url(#A);fill-rule:evenodd" width="31.628338" height="74.724945" x="-404.11423" y="-654.67505" ry="5.8038673" transform="matrix(-.95436 -.29865 .16448 -.98638 23.127 -4.668)" rx="5.8038673"/><rect style="font-size:12px;fill:url(#B);fill-rule:evenodd" width="31.628338" height="74.724945" x="-407.10483" y="-653.25031" ry="5.8038673" transform="matrix(-.95436 -.29865 .16448 -.98638 23.127 -4.668)" rx="5.8038673"/><rect style="font-size:12px;fill:url(#C);fill-rule:evenodd" width="31.628338" height="74.724945" x="-409.97861" y="-651.68274" ry="5.8038673" transform="matrix(-.95436 -.29865 .16448 -.98638 23.127 -4.668)" rx="5.8038673"/><rect style="font-size:12px;fill:url(#D);fill-rule:evenodd" width="31.628338" height="74.724945" x="-412.85251" y="-650.11511" ry="5.8038673" transform="matrix(-.95436 -.29865 .16448 -.98638 23.127 -4.668)" rx="5.8038673"/><rect style="font-size:12px;fill:url(#E);fill-rule:evenodd" width="31.628338" height="74.724937" x="-415.9014" y="-648.49457" ry="5.8038669" transform="matrix(-.95436 -.29865 .16448 -.98638 23.127 -4.668)" rx="5.8038669"/><rect style="font-size:12px;fill:url(#F);fill-rule:evenodd" width="31.628338" height="74.724937" x="-419.13989" y="-646.90558" ry="5.8038669" transform="matrix(-.95436 -.29865 .16448 -.98638 23.127 -4.668)" rx="5.8038669"/></g><path style="font-size:12px;fill:url(#G);fill-rule:evenodd;stroke:none" d="M98.267 80.804c3.672 19.898-16.098 23.027-18.781 32.257 7.936.545 27.735 14.304 33.626 15.044l9.26-57.68c-3.953-1.528-12.581 4.889-24.105 10.379z" sodipodi:nodetypes="ccccc" inkscape:connector-curvature="0"/><path style="fill:#78631d;fill-opacity:1;fill-rule:evenodd;stroke:none" d="M104.507 76.684c8.732-4.367 55.3-21.859 69.542-30.634 13.494-5.377 34.645-12.306 52.73-16.582 12.794-3.024 22.422-2.991 35.144-6.32 13.52-3.537 48.13-15.982 47.05-13.919-6.918 2.995-10.625 5.192-9.352 13.657-29.292 7.618-44.852 10.98-45.44 45.376-9.345-1.979-68.401-15.56-37.004 36.871-5.107 1.86-15.39 7.709-17.279 14.655-.136 3.628-11.494-12.656-32.01-6.989-2.465-1.224-3.623-2.808-5.934-4.548 2.312-2.047 5.117-3.697 6.482-5.935-2.697-1.634-10.035-6.233-10.26-11.2-3.714-4.24-25.68-14.267-36.606-16.198-4.572-.809-6.973 1.494-14.562 4.08-1.966 1.307-4.126.73-2.501-2.314z" sodipodi:nodetypes="cccccccccccccscc" inkscape:connector-curvature="0"/><path style="fill:url(#H);fill-opacity:1;fill-rule:evenodd;stroke:none" d="M9 45.376c2.526 2.526 12.037 8.208 15.976 16.085 10.455.152 19.858 2.848 31.782 7.755 8.546-.139 20.26 2.201 37.907 9.24-3.134-2.653-9.33-6.536-11.267-9.431-.087-.267-3.265-.469-3.576-.523-5.076-.886-12.852-2.447-17.823-3.748-5.523-1.445-6.754-2.567-11.621-5.669-4-2.55-21.944-4.9-31.677-11.433-2.146-1.199-8.659-2.597-9.187-2.598-.02 0 .04 0-.514.322z" sodipodi:nodetypes="ccccccccccc" inkscape:connector-curvature="0"/><path style="font-size:12px;fill:url(#I);fill-rule:evenodd;stroke-width:1" d="m82.75 61.7 39.835 8.97c.613-4.414-.204-5.34-3.604-7.282-5.536-2.63-23.683-5.799-37.166-4.681 1.229 1.526.915 2.156.935 2.993zm62.768 40.01c-1.435 3.488 1.435-3.49 0 0z" sodipodi:nodetypes="ccccccc" inkscape:connector-curvature="0"/><path style="fill:url(#J);fill-opacity:1;fill-rule:evenodd;stroke:none" d="M56.9 69.287c8.311.08 20.108 7.534 25.713 12.332 5.244 4.488 2.46-2.935 4.88-4.516 2.337.032 4.016.466 9.232 3-1.892-2.208-10.428-5.383-11.807-5.18-11.53-3.937-22.085-6.08-28.017-5.636z" sodipodi:nodetypes="cccccc" inkscape:connector-curvature="0"/><path style="font-size:12px;fill:url(#K);fill-opacity:1;fill-rule:evenodd;stroke:none" d="M78.563 64.598c2.309 3.78 15.294 13.192 19.71 16.86 14.298-7.795 15.886-9.513 23.615-11.354-5.65-1.018-34.469-7.459-39.268-8.338-.059 1.848-1.822 3.444-4.057 2.832z" sodipodi:nodetypes="cccccc" inkscape:connector-curvature="0"/><path style="font-size:12px;fill:url(#L);fill-opacity:1;fill-rule:evenodd;stroke-width:1" d="M128.61 94.308c1.435-3.49-1.436 3.489 0 0zm17.86 37.726c5.436-.227 8.268-.059 13.54.752-2.222-5.1-3.476-8.457-1.735-17.52 1.892-7.832 12.535-11.827 12.311-14.406-4.362-2.8-7.56-6-12.045-9.123l-12.071 40.297z" sodipodi:nodetypes="cccccccc" inkscape:connector-curvature="0"/><path style="fill:url(#M);fill-opacity:1;fill-rule:evenodd;stroke:none" d="M175.226 50.556c-7.733 2.436-24.054 12.914-17.622 18.78 2.752 2.864 21.405 14.594 26.378 20.188 3.084 2.101 27.29 14.094 33.065 15.887-21.315-39.222-.977-42.448 37.092-37.328-24.574-6.375-75.522-18.148-78.913-17.527z" sodipodi:nodetypes="cccccc" inkscape:connector-curvature="0"/><path style="fill:url(#N);fill-opacity:1;fill-rule:evenodd;stroke:none" d="M183.662 47.259c29.277-5.477 107.989-23.88 113.022-23.51-8.892 4.209-42.13 6.839-42.195 43.875-4.928-2.021-64.141-15.322-72.414-16.99-1.968-.672-3.989-1.424 1.587-3.375z" sodipodi:nodetypes="ccccc" inkscape:connector-curvature="0"/><path style="fill:url(#O);fill-opacity:1;fill-rule:evenodd;stroke:none" d="M180.77 46.909c12.475-5.19 26.475-10.124 42.041-13.796 15.566-3.671 24.73-4.259 37.778-6.902 26.965-5.932 39.732-13.787 45.797-16.076-1.027 2.377-6.601 8.423-6.526 12.08-19.366 2.606-88.348 18.594-119.09 24.694z" sodipodi:nodetypes="cssccc" inkscape:connector-curvature="0"/><path style="fill:url(#P);fill-opacity:1;fill-rule:evenodd;stroke:none" d="M158.737 92.21c8.641.767 22.832-.42 25.438-1.365 4.489 2.961 29.353 14.197 31.765 15.105-.628.492-14.902 5.97-15.872 14.114-9.872-5.866-26.794-17.431-29.132-19.514-.941 1.123-5.288-3.073-12.199-8.34z" sodipodi:nodetypes="cccccc" inkscape:connector-curvature="0"/><path style="fill:url(#Q);fill-opacity:1;fill-rule:evenodd;stroke:none" d="M161.87 108.616c2.358-1.406 8.048-6.466 8.464-7.37.16-.348 15.89 11.274 22.953 15.148-15.287-7.172-24.42-2.708-26.361-3.004-.923-1.402-3.728-3.312-5.056-4.774z" sodipodi:nodetypes="ccccc" inkscape:connector-curvature="0"/><path style="fill:url(#R);fill-opacity:1;fill-rule:evenodd;stroke:none" d="M133.622 67.435c4.435-1.61 26.056-10.555 28.054-11.659-4.55 3.799-8.263 7.644-6.59 11.796-4.915-3.149-9.19-2.514-21.464-.137z" sodipodi:nodetypes="cccc" inkscape:connector-curvature="0"/><path style="font-size:12px;fill:gray;fill-rule:evenodd" d="M129.775 43.097c-.815-.152.6.013.397 1.1l-4.578 24.533c-.203 1.087.29 2.085 1.106 2.237.815.153 1.635-.6 1.838-1.688l4.578-24.533c.203-1.087-2.525-1.497-3.34-1.649z" sodipodi:nodetypes="ccccccc" inkscape:connector-curvature="0"/><g transform="matrix(.37944 0 0 .37944 18.794 -109.377)"><ellipse style="fill:url(#S);fill-opacity:1;fill-rule:evenodd;stroke:none" transform="matrix(1.0685 0 0 1.04706 -10.652 -21.727)" cx="163.26472" cy="452.664" rx="7.7442017" ry="9.0172119"/><path style="font-size:12px;fill:url(#T);fill-rule:evenodd" d="M168.62 458.077c-6.317 10.44-8.794 13.757-2.928 18.456 16.128 11.768 24.452 46.822 24.022 56.08-3.42 3.03-24.418-39.815-28.101-47.173-4.644-10.22-4.643-18.199 3.647-27.8l3.36.437z" sodipodi:nodetypes="cccccc" inkscape:connector-curvature="0"/><path style="font-size:12px;fill:url(#U);fill-rule:evenodd" d="M156.926 454.284c-5.948.92-18.168 5.948-27.345 15.672-9.122 9.347-20.427 42.064-25.367 53.683 24.127-17.122 26.358-51.854 37.391-58.803 4.8-3.085 8.565-5.517 16.686-8.081.844-1.492-.88-2.873-1.365-2.471z" sodipodi:nodetypes="cscccc" inkscape:connector-curvature="0"/><path style="font-size:12px;fill:url(#V);fill-rule:evenodd" d="M159.067 448.509c-3.562-3.229-12.11-6.002-15.714-9.268-12.154-11.01-21.146-37.441-16.901-55.763 4.476-15.693 4.256-15.013 8.27 3.94 7.467 24.812 16.371 24.271 11.317 39.731-3.805 11.787 3.545 9.991 14.962 18.107l-1.934 3.253z" sodipodi:nodetypes="ccccccc" inkscape:connector-curvature="0"/><path style="font-size:12px;fill:url(#W);fill-rule:evenodd" d="M166.74 447.655c.65-14.156 7.328-21.193 9.875-24.571 10.93-13.186 36.69-37.92 56.394-39.82 1.239.146-24.432 25.947-30.767 34.515-6.516 7.437-12.25 13.628-26.827 13.982-2.867 3.11-7.358 10.962-5.207 17.395-2.066 1.067-3.465.21-3.468-1.5z" sodipodi:nodetypes="ccccccc" inkscape:connector-curvature="0"/></g><path style="font-size:12px;fill:url(#X);fill-opacity:1;fill-rule:evenodd;stroke-width:1" d="M145.196 101.226c-1.435 3.49-6.276 4.805-10.812 2.939-4.535-1.866-7.049-6.207-5.613-9.696 1.435-3.49 6.276-4.805 10.811-2.939 4.536 1.866 7.05 6.207 5.614 9.696zm-32.245 26.879c5.982-.055 26.367 2.064 33.68 4.09l12.071-40.524c-2.772-4.15-27.369-17.14-36.99-16.587l-8.761 53.02z" sodipodi:nodetypes="cccccccccc" inkscape:connector-curvature="0"/><path style="fill:url(#Y);fill-opacity:1;fill-rule:evenodd;stroke:none" d="M104.507 76.911c8.732-4.366 55.46-22.18 69.703-30.955 13.494-5.377 34.484-12.306 52.57-16.582 12.793-3.025 24.337-3.447 37.06-6.775 13.52-3.537 46.214-15.205 45.134-13.142-3.46 1.497-19.302 8.783-47.096 17.023-38.737 5.319-56.509 11.319-86.176 22.532-8.923 5.599-60.107 26.464-67.696 29.05-1.965.807-4.624 2.226-3.5-1.15z" sodipodi:nodetypes="ccccccccc" inkscape:connector-curvature="0"/><path style="fill:url(#Z);fill-opacity:1;fill-rule:evenodd;stroke:none" d="M112.44 76.904c7.978-4.118 35.357-14.453 42.489-7.338 2.097 1.3 26.437 17.316 28.347 20.59-5.656.978-17.783 1.792-24.746 1.239-2.935-1.964-31.252-22.854-46.09-14.49z" sodipodi:nodetypes="ccccc" inkscape:connector-curvature="0"/><path style="font-size:12px;fill:#78641c;fill-opacity:1;fill-rule:evenodd" d="m144.268 66.791-23.298 18.39c-.193.152-.25.654.456.683l1.553.064c.32.013.932-.022 1.285-.3l23.861-18.791-3.857-.046z" sodipodi:nodetypes="csssscc" inkscape:connector-curvature="0"/><g transform="matrix(.14836 .068 -.06232 .18217 79.54 -39.934)"><path style="font-size:12px;fill:url(#aa);fill-rule:evenodd" d="M408.995 906.437c5.285 0-5.284 0 0 0zm5.644 8.16c.648 4.362 27.682-1.364 27.699.204-.102 11.04-3.46 20.06-13.175 27.196-1.188.836-13.4-22.944-17.217-21.33-3.816 1.614 10.75 25.751 9.182 26.3-11.948 4.099-19.339 3.438-30.641-3.344-1.252-.8 16.904-20.771 14.096-23.696-2.806-2.963-20.06 19.31-21.022 18.156-7.107-8.773-9.898-19.358-6.656-32.076.39-1.432 24.687 11.556 26.3 7.74 1.614-3.816-23.385-14.426-22.313-15.948 6.773-9.84 13.73-14.818 27.17-15.58 1.518-.06-2.462 27.262 1.67 27.562 3.933.325 6.127-26.588 7.927-26.24 11.74 2.097 21.449 11.243 23.634 22.028.266 1.4-27.337 4.704-26.655 9.029zm33.731 1.409c0 21.746-17.629 39.375-39.375 39.375s-39.375-17.63-39.375-39.375c0-21.747 17.629-39.375 39.375-39.375s39.375 17.628 39.375 39.375z" sodipodi:nodetypes="cccssssssssssssccccccss" transform="translate(136.916 -195.354)" inkscape:connector-curvature="0"/><ellipse style="font-size:12px;fill:url(#ab);fill-rule:evenodd" transform="matrix(2.11311 0 0 2.14492 -157.643 -998.125)" cx="332.7821" cy="801.00787" rx="3.977478" ry="3.8670044"/><path style="font-size:12px;fill:url(#ac);fill-rule:evenodd;stroke-width:1" d="M584.596 720.75c0 21.401-17.35 38.75-38.75 38.75-21.401 0-38.75-17.349-38.75-38.75 0-21.4 17.349-38.75 38.75-38.75 21.4 0 38.75 17.35 38.75 38.75zm5.812 0c0 24.611-19.951 44.562-44.562 44.562-24.612 0-44.563-19.95-44.563-44.562 0-24.611 19.951-44.563 44.563-44.563 24.61 0 44.562 19.952 44.562 44.563z" inkscape:connector-curvature="0"/></g><path style="fill:none;stroke:#000;stroke-width:.37943716pt;stroke-linecap:butt;stroke-linejoin:miter;stroke-opacity:1" d="m128.148 88.688-3.611 32.595 12.363 1.43c1.008.117 2.224-.495 2.726-1.76 3.132-6.884 18.62-36.48-11.478-32.265z" sodipodi:nodetypes="ccssc" inkscape:connector-curvature="0"/><ellipse style="fill:none;stroke:#000;stroke-width:.37085092pt;stroke-linecap:butt;stroke-linejoin:miter;stroke-opacity:1" transform="matrix(.94975 .313 -.31837 .94797 0 0)" cx="160.89682" cy="50.014721" rx="8.9356766" ry="6.9839101"/><path style="fill:none;stroke:#000;stroke-width:.37943716pt;stroke-linecap:butt;stroke-linejoin:miter;stroke-opacity:1" d="m101.57 65.224 29.283-16.305" inkscape:connector-curvature="0"/><path style="fill:none;stroke:#000;stroke-width:.37943716pt;stroke-linecap:butt;stroke-linejoin:miter;stroke-opacity:1" d="m130.853 48.586 9.982 12.312" inkscape:connector-curvature="0"/><path style="font-style:italic;font-weight:400;font-size:36px;font-family:'URW Chancery L';fill:url(#ad);stroke-width:1" d="M96.468 105.042c-.467-.85.34-2.586 2.5-2.397.458.04 1.204.546.768 1.696l.646-.79c.574-.76-.059-1.321-.495-1.454-.602-.183-2.705-.51-3.95 1.642-.353.637-.434 1.411.149 1.966.52.516.935.64 1.556.44-.788.483-1.9 2.884.235 3.694 1.15.323 1.667.12 2.207-.106.93-.357 1.134-.592 1.659-1.368.39-.576.651-1.557.522-1.392-.881 1.124-1.576 1.75-2.95 2.204-1.576.558-2.657-1.746-.85-2.838.524-.251 1.06-.143 1.187-.127.29.056.243-1.224-.515-.794-1.026.416-2.007.601-2.669-.376zm7.436-2.235c-.421.173-.97.755-1.402 1.473-.466.782-.491 2.072-.064 3.114.264.643.79.907 1.349.678.294-.121.546-.347.927-.799.406-.51.645-.916.731-1.247.188-.741.102-1.912-.196-2.638-.233-.57-.787-.81-1.345-.58zm-.345.72c.422-.173.853.13 1.112.762.182.442.259 1.05.207 1.674-.049.722-.294 1.204-.694 1.368-.432.177-.866-.1-1.112-.701-.5-1.222-.25-2.8.487-3.103zm4.895 1.028c-.113.145-.182.247-.216.286-.564.784-.63.861-.778.922-.095.038-.241-.049-.302-.197l-.039-.094-.039-.095c-.077-.19-.441-2.427-.66-4.072-.224-1.717-.222-2.285.256-2.135.231.096.912 3.008.084 4.47l.072.05c1.338-2.232.567-4.789.084-5.036-.359-.139-.873.11-1.193.77-.108.282-.155.963-.136 1.398.02.288.165 1.224.25 1.731l.593 3.608c.015.067.03.135.056.198.13.316.415.58.584.51l.09-.036.032-.013c.106-.043.423-.53 1.357-2.033l-.095-.231zm3.303-1.452c-.51 1.008-.894 1.51-1.294 1.674-.264.108-.558.02-.744-.224-.111-.15-.17-.262-.295-.568.353-.489.579-.84 1.01-1.558.392-.665.47-1.103.276-1.577-.151-.369-.474-.495-.842-.344-.232.095-.379.217-.565.453-.305.396-.547.827-.664 1.17-.202.65-.085 1.955.265 2.808.255.621.741.877 1.278.657.622-.255 1.21-1.013 1.7-2.186l-.125-.305zm-2.457.49c-.283-1.2-.157-2.273.296-2.459.18-.073.369.058.472.311.216.527.061.96-.768 2.148z" sodipodi:nodetypes="ccccccsccsccccccccccccccccsccccccccccccccccccccccccccccccsccscccccscc" inkscape:connector-curvature="0"/></svg>