<?xml version="1.0" encoding="UTF-8" standalone="no"?>
<!-- Created with Sodipodi ("http://www.sodipodi.com/") -->

<svg
   xmlns:dc="http://purl.org/dc/elements/1.1/"
   xmlns:cc="http://creativecommons.org/ns#"
   xmlns:rdf="http://www.w3.org/1999/02/22-rdf-syntax-ns#"
   xmlns:svg="http://www.w3.org/2000/svg"
   xmlns="http://www.w3.org/2000/svg"
   xmlns:xlink="http://www.w3.org/1999/xlink"
   xmlns:sodipodi="http://sodipodi.sourceforge.net/DTD/sodipodi-0.dtd"
   xmlns:inkscape="http://www.inkscape.org/namespaces/inkscape"
   id="svg1256"
   sodipodi:version="0.34"
   width="300"
   height="107.54219"
   xml:space="preserve"
   sodipodi:docname="fardier.svg"
   version="1.1"
   inkscape:version="0.91 r13725"><metadata
     id="metadata130"><rdf:RDF><cc:Work
         rdf:about=""><dc:format>image/svg+xml</dc:format><dc:type
           rdf:resource="http://purl.org/dc/dcmitype/StillImage" /><dc:title /></cc:Work></rdf:RDF></metadata><defs
     id="defs1258"><linearGradient
       id="linearGradient1294"><stop
         style="stop-color:#5a4226;stop-opacity:1;"
         offset="0"
         id="stop1295" /><stop
         style="stop-color:#ca8232;stop-opacity:1;"
         offset="1"
         id="stop1296" /></linearGradient><linearGradient
       id="linearGradient1285"><stop
         style="stop-color:#5a4700;stop-opacity:1;"
         offset="0"
         id="stop1286" /><stop
         style="stop-color:#ffda00;stop-opacity:1;"
         offset="1"
         id="stop1287" /></linearGradient><linearGradient
       id="linearGradient1281"><stop
         style="stop-color:#000;stop-opacity:1;"
         offset="0"
         id="stop1282" /><stop
         style="stop-color:#fff;stop-opacity:1;"
         offset="1"
         id="stop1283" /></linearGradient><linearGradient
       xlink:href="#linearGradient1285"
       id="linearGradient1284"
       x1="17.990906"
       y1="641.55322"
       x2="40.682167"
       y2="642.26227"
       spreadMethod="reflect"
       gradientTransform="scale(1.3130655,0.76157665)"
       gradientUnits="userSpaceOnUse" /><radialGradient
       xlink:href="#linearGradient1285"
       id="radialGradient1288"
       cx="24.063734"
       cy="693.0274"
       r="44.834641"
       fx="24.063734"
       fy="693.0274"
       spreadMethod="reflect"
       gradientTransform="scale(1.5911148,0.62849018)"
       gradientUnits="userSpaceOnUse" /><linearGradient
       xlink:href="#linearGradient1285"
       id="linearGradient1289"
       x1="6.6757898"
       y1="1288.4788"
       x2="17.269239"
       y2="1288.4988"
       gradientTransform="scale(2.8956212,0.34534904)"
       spreadMethod="reflect"
       gradientUnits="userSpaceOnUse" /><linearGradient
       xlink:href="#linearGradient1285"
       id="linearGradient1290"
       x1="25.663357"
       y1="1633.8"
       x2="25.292381"
       y2="1573.3403"
       gradientTransform="scale(3.1198338,0.3205299)"
       gradientUnits="userSpaceOnUse" /><linearGradient
       xlink:href="#linearGradient1285"
       id="linearGradient1291"
       x1="209.70474"
       y1="334.28619"
       x2="228.16812"
       y2="332.07263"
       spreadMethod="reflect"
       gradientTransform="matrix(0.44806112,0.0094917,-8.1253357e-4,0.68607477,7.4178218,259.94716)"
       gradientUnits="userSpaceOnUse" /><linearGradient
       xlink:href="#linearGradient1294"
       id="linearGradient1292"
       x1="104.7332"
       y1="1987.2175"
       x2="106.15005"
       y2="1834.7479"
       gradientTransform="matrix(2.2524408,0,0,0.13650641,7.4178218,259.94716)"
       gradientUnits="userSpaceOnUse" /><radialGradient
       xlink:href="#linearGradient1285"
       id="radialGradient1293"
       cx="87.776772"
       cy="566.93945"
       r="65.558586"
       fx="87.776772"
       fy="566.93945"
       gradientTransform="matrix(0.8132992,0,0,0.37805597,7.4178218,259.94716)"
       gradientUnits="userSpaceOnUse" /><linearGradient
       xlink:href="#linearGradient1294"
       id="linearGradient1297"
       x1="465.52631"
       y1="339.16684"
       x2="535.9126"
       y2="266.31802"
       gradientTransform="matrix(0.41195701,0,0,0.74637063,7.4178218,259.94716)"
       gradientUnits="userSpaceOnUse" /><linearGradient
       xlink:href="#linearGradient1294"
       id="linearGradient1304"
       gradientTransform="scale(2.6967994,0.37080993)"
       x1="26.575659"
       y1="1071.7665"
       x2="35.3354"
       y2="1071.7665"
       gradientUnits="userSpaceOnUse" /><linearGradient
       xlink:href="#linearGradient1285"
       id="linearGradient1305"
       x1="62.692345"
       y1="484.69934"
       x2="75.804008"
       y2="477.64163"
       gradientTransform="scale(1.230565,0.81263484)"
       gradientUnits="userSpaceOnUse" /><linearGradient
       xlink:href="#linearGradient1285"
       id="linearGradient1306"
       x1="194.48755"
       y1="369.41248"
       x2="202.64444"
       y2="362.25189"
       gradientTransform="matrix(0.52396915,0,0,0.58681436,7.4178218,259.94716)"
       gradientUnits="userSpaceOnUse" /><linearGradient
       xlink:href="#linearGradient1281"
       id="linearGradient1308"
       x1="113.22684"
       y1="262.55823"
       x2="204.31226"
       y2="265.73071"
       gradientTransform="scale(0.66929417,1.4941113)"
       gradientUnits="userSpaceOnUse" /><linearGradient
       xlink:href="#linearGradient1281"
       id="linearGradient1331"
       x1="22.096306"
       y1="1253.9362"
       x2="54.330818"
       y2="1253.9597"
       spreadMethod="reflect"
       gradientTransform="matrix(1.4511891,0,0,0.21187632,7.4178218,259.94716)"
       gradientUnits="userSpaceOnUse" /><linearGradient
       xlink:href="#linearGradient1281"
       id="linearGradient1332"
       x1="90.740433"
       y1="1180.5396"
       x2="90.086983"
       y2="1316.6019"
       gradientTransform="matrix(1.4038334,0,0,0.21902357,7.4178218,259.94716)"
       gradientUnits="userSpaceOnUse" /><linearGradient
       xlink:href="#linearGradient1294"
       id="linearGradient1333"
       x1="219.48903"
       y1="439.03363"
       x2="244.64809"
       y2="411.68845"
       gradientTransform="matrix(0.56474351,0,0,0.54444647,7.4178218,259.94716)"
       gradientUnits="userSpaceOnUse" /><linearGradient
       xlink:href="#linearGradient1294"
       id="linearGradient1334"
       gradientTransform="matrix(0.73482401,0,0,0.41843028,7.4178218,259.94716)"
       x1="165.75104"
       y1="576.01923"
       x2="202.24866"
       y2="576.01923"
       gradientUnits="userSpaceOnUse" /><linearGradient
       xlink:href="#linearGradient1294"
       id="linearGradient1355"
       gradientTransform="scale(0.32270635,3.0987925)"
       x1="712.26031"
       y1="-32.263268"
       x2="728.16791"
       y2="-32.263268"
       gradientUnits="userSpaceOnUse" /><linearGradient
       xlink:href="#linearGradient1294"
       id="linearGradient1356"
       gradientTransform="scale(0.32270634,3.0987925)"
       x1="355.33951"
       y1="-71.508743"
       x2="371.2471"
       y2="-71.508743"
       gradientUnits="userSpaceOnUse" /><linearGradient
       xlink:href="#linearGradient1294"
       id="linearGradient1357"
       gradientTransform="scale(0.32270634,3.0987926)"
       x1="77.509064"
       y1="64.398758"
       x2="93.416672"
       y2="64.398758"
       gradientUnits="userSpaceOnUse" /><linearGradient
       xlink:href="#linearGradient1294"
       id="linearGradient1358"
       gradientTransform="scale(0.32270633,3.0987926)"
       x1="563.75232"
       y1="39.474972"
       x2="579.65991"
       y2="39.474972"
       gradientUnits="userSpaceOnUse" /><linearGradient
       xlink:href="#linearGradient1294"
       id="linearGradient1359"
       gradientTransform="scale(0.32270634,3.0987926)"
       x1="771.37689"
       y1="-1.3620355"
       x2="787.28448"
       y2="-1.3620355"
       gradientUnits="userSpaceOnUse" /><linearGradient
       xlink:href="#linearGradient1294"
       id="linearGradient1360"
       gradientTransform="scale(0.32270634,3.0987925)"
       x1="700.14404"
       y1="-54.286751"
       x2="716.05164"
       y2="-54.286751"
       gradientUnits="userSpaceOnUse" /><linearGradient
       xlink:href="#linearGradient1294"
       id="linearGradient1361"
       gradientTransform="scale(0.32270632,3.0987927)"
       x1="-357.20303"
       y1="75.515152"
       x2="-341.29541"
       y2="75.515152"
       gradientUnits="userSpaceOnUse" /><linearGradient
       xlink:href="#linearGradient1294"
       id="linearGradient1362"
       gradientTransform="scale(0.32270634,3.0987926)"
       x1="98.497978"
       y1="83.155312"
       x2="114.40557"
       y2="83.155312"
       gradientUnits="userSpaceOnUse" /><linearGradient
       xlink:href="#linearGradient1294"
       id="linearGradient1363"
       gradientTransform="scale(0.32270635,3.0987925)"
       x1="553.46356"
       y1="59.676384"
       x2="569.37115"
       y2="59.676384"
       gradientUnits="userSpaceOnUse" /><linearGradient
       xlink:href="#linearGradient1294"
       id="linearGradient1364"
       gradientTransform="scale(0.32270635,3.0987925)"
       x1="775.16833"
       y1="14.092829"
       x2="791.07599"
       y2="14.092829"
       gradientUnits="userSpaceOnUse" /><radialGradient
       xlink:href="#linearGradient1294"
       id="radialGradient1376"
       cx="383.03949"
       cy="285.76727"
       r="235.38652"
       fx="383.03949"
       fy="285.76727"
       gradientUnits="userSpaceOnUse" /><linearGradient
       xlink:href="#linearGradient1294"
       id="linearGradient1377"
       x1="401.92807"
       y1="264.573"
       x2="417.29459"
       y2="264.48694"
       gradientTransform="matrix(0.38642345,0,0,0.79568833,7.4178218,259.94716)"
       gradientUnits="userSpaceOnUse" /><radialGradient
       xlink:href="#linearGradient1294"
       id="radialGradient1379"
       cx="448.77161"
       cy="247.82849"
       r="46.26738"
       fx="448.77161"
       fy="247.82849"
       gradientTransform="scale(1.0059353,0.99409974)"
       gradientUnits="userSpaceOnUse" /><radialGradient
       xlink:href="#linearGradient1281"
       id="radialGradient1405"
       cx="488.5307"
       cy="550.22504"
       r="277.2114"
       fx="488.5307"
       fy="550.22504"
       gradientTransform="scale(1.0000013,0.99999871)"
       gradientUnits="userSpaceOnUse" /><radialGradient
       xlink:href="#linearGradient1281"
       id="radialGradient1411"
       cx="539.41809"
       cy="515.14996"
       r="38.118061"
       fx="539.41809"
       fy="515.14996"
       gradientUnits="userSpaceOnUse" /><radialGradient
       xlink:href="#linearGradient1281"
       id="radialGradient1413"
       cx="535.98938"
       cy="520.23065"
       r="19.133528"
       fx="535.98938"
       fy="520.23065"
       gradientTransform="scale(1.0259781,0.97467969)"
       gradientUnits="userSpaceOnUse" /><radialGradient
       xlink:href="#linearGradient1294"
       id="radialGradient1544"
       cx="253.59499"
       cy="468.51639"
       r="212.12767"
       fx="253.59499"
       fy="468.51639"
       gradientUnits="userSpaceOnUse" /><radialGradient
       xlink:href="#linearGradient1281"
       id="radialGradient1545"
       cx="190.62993"
       cy="577.22943"
       r="190.77725"
       fx="190.62993"
       fy="577.22943"
       gradientUnits="userSpaceOnUse" /><linearGradient
       xlink:href="#linearGradient1281"
       id="linearGradient1566"
       x1="364.72379"
       y1="343.04288"
       x2="424.65518"
       y2="343.52869"
       spreadMethod="pad"
       gradientTransform="matrix(0.43623449,0,0,0.70483337,7.4178218,259.94716)"
       gradientUnits="userSpaceOnUse" /><linearGradient
       xlink:href="#linearGradient1281"
       id="linearGradient1595"
       x1="184.38744"
       y1="537.07831"
       x2="268.14215"
       y2="461.26135"
       gradientTransform="matrix(0.54485767,0,0,0.56431732,7.4178218,259.94716)"
       gradientUnits="userSpaceOnUse" /><linearGradient
       xlink:href="#linearGradient1281"
       id="linearGradient1614"
       x1="232.63512"
       y1="348.77597"
       x2="230.743"
       y2="390.30121"
       gradientTransform="matrix(0.4396775,0,0,0.69931397,7.4178218,259.94716)"
       gradientUnits="userSpaceOnUse" /><linearGradient
       xlink:href="#linearGradient1294"
       id="linearGradient1620"
       gradientTransform="matrix(0.28589037,0,0,1.0754913,7.4178218,259.94716)"
       x1="506.10669"
       y1="238.38354"
       x2="518.83514"
       y2="238.38354"
       gradientUnits="userSpaceOnUse" /><linearGradient
       xlink:href="#linearGradient1294"
       id="linearGradient1622"
       gradientTransform="matrix(0.28721483,0,0,1.0705318,7.4178218,259.94716)"
       x1="647.96649"
       y1="239.32603"
       x2="661.2395"
       y2="239.32603"
       gradientUnits="userSpaceOnUse" /><linearGradient
       xlink:href="#linearGradient1294"
       id="linearGradient1624"
       gradientTransform="matrix(0.20065985,0,0,1.5323076,7.4178218,259.94716)"
       x1="607.08557"
       y1="157.25124"
       x2="626.08405"
       y2="157.25124"
       gradientUnits="userSpaceOnUse" /><linearGradient
       xlink:href="#linearGradient1294"
       id="linearGradient1626"
       x1="126.40124"
       y1="1023.7053"
       x2="127.13698"
       y2="1047.5686"
       gradientTransform="matrix(1.4113458,0,0,0.21785775,7.4178218,259.94716)"
       gradientUnits="userSpaceOnUse" /><linearGradient
       xlink:href="#linearGradient1281"
       id="linearGradient1655"
       x1="572.30542"
       y1="151.1497"
       x2="603.13367"
       y2="151.1497"
       gradientTransform="matrix(0.19176845,0,0,1.6033535,7.4178218,259.94716)"
       gradientUnits="userSpaceOnUse" /><linearGradient
       xlink:href="#linearGradient1281"
       id="linearGradient1656"
       x1="178.3338"
       y1="639.03802"
       x2="147.96432"
       y2="676.71631"
       gradientTransform="matrix(0.6876844,0,0,0.44711296,7.4178218,259.94716)"
       gradientUnits="userSpaceOnUse" /><linearGradient
       xlink:href="#linearGradient1281"
       id="linearGradient1657"
       x1="302.39825"
       y1="266.4567"
       x2="312.53302"
       y2="266.4567"
       gradientTransform="matrix(0.33867241,0,0,0.9078762,7.4178218,259.94716)"
       gradientUnits="userSpaceOnUse" /><linearGradient
       xlink:href="#linearGradient1281"
       id="linearGradient1659"
       x1="115.48084"
       y1="844.30365"
       x2="117.44507"
       y2="837.9953"
       gradientTransform="matrix(0.909033,0,0,0.33824142,7.4178218,259.94716)"
       gradientUnits="userSpaceOnUse" /><linearGradient
       inkscape:collect="always"
       xlink:href="#linearGradient1281"
       id="linearGradient4258"
       x1="651.81952"
       y1="126.58014"
       x2="673.66376"
       y2="126.58014"
       gradientTransform="matrix(0.15705799,0,0,1.9577012,7.4178218,259.94716)"
       gradientUnits="userSpaceOnUse" /><radialGradient
       inkscape:collect="always"
       xlink:href="#linearGradient1281"
       id="radialGradient4260"
       gradientTransform="matrix(0.57540692,0,0,0.53435684,7.4178218,259.94716)"
       cx="206.73642"
       cy="546.97705"
       fx="206.73642"
       fy="546.97705"
       r="23.74614"
       gradientUnits="userSpaceOnUse" /><linearGradient
       inkscape:collect="always"
       xlink:href="#linearGradient1294"
       id="linearGradient4262"
       gradientTransform="matrix(0.38642345,0,0,0.79568833,7.4178218,259.94716)"
       x1="466.82098"
       y1="264.04602"
       x2="482.1875"
       y2="263.95993"
       gradientUnits="userSpaceOnUse" /><linearGradient
       inkscape:collect="always"
       xlink:href="#linearGradient1294"
       id="linearGradient4264"
       gradientTransform="scale(0.32270633,3.0987926)"
       x1="563.75232"
       y1="39.474972"
       x2="579.65991"
       y2="39.474972"
       gradientUnits="userSpaceOnUse" /><linearGradient
       inkscape:collect="always"
       xlink:href="#linearGradient1294"
       id="linearGradient4266"
       gradientTransform="scale(0.32270635,3.0987925)"
       x1="553.46356"
       y1="59.676384"
       x2="569.37115"
       y2="59.676384"
       gradientUnits="userSpaceOnUse" /><linearGradient
       inkscape:collect="always"
       xlink:href="#linearGradient1294"
       id="linearGradient4268"
       gradientTransform="scale(0.32270632,3.0987927)"
       x1="-357.20303"
       y1="75.515152"
       x2="-341.29541"
       y2="75.515152"
       gradientUnits="userSpaceOnUse" /><linearGradient
       inkscape:collect="always"
       xlink:href="#linearGradient1294"
       id="linearGradient4270"
       gradientTransform="scale(0.32270634,3.0987926)"
       x1="98.497978"
       y1="83.155312"
       x2="114.40557"
       y2="83.155312"
       gradientUnits="userSpaceOnUse" /><linearGradient
       inkscape:collect="always"
       xlink:href="#linearGradient1294"
       id="linearGradient4272"
       gradientTransform="scale(0.32270635,3.0987925)"
       x1="775.16833"
       y1="14.092829"
       x2="791.07599"
       y2="14.092829"
       gradientUnits="userSpaceOnUse" /><linearGradient
       inkscape:collect="always"
       xlink:href="#linearGradient1294"
       id="linearGradient4274"
       gradientTransform="scale(0.32270635,3.0987925)"
       x1="712.26031"
       y1="-32.263268"
       x2="728.16791"
       y2="-32.263268"
       gradientUnits="userSpaceOnUse" /><linearGradient
       inkscape:collect="always"
       xlink:href="#linearGradient1294"
       id="linearGradient4276"
       gradientTransform="scale(0.32270634,3.0987925)"
       x1="355.33951"
       y1="-71.508743"
       x2="371.2471"
       y2="-71.508743"
       gradientUnits="userSpaceOnUse" /><linearGradient
       inkscape:collect="always"
       xlink:href="#linearGradient1294"
       id="linearGradient4278"
       gradientTransform="scale(0.32270634,3.0987926)"
       x1="77.509064"
       y1="64.398758"
       x2="93.416672"
       y2="64.398758"
       gradientUnits="userSpaceOnUse" /><linearGradient
       inkscape:collect="always"
       xlink:href="#linearGradient1294"
       id="linearGradient4280"
       gradientTransform="scale(0.32270634,3.0987926)"
       x1="771.37689"
       y1="-1.3620355"
       x2="787.28448"
       y2="-1.3620355"
       gradientUnits="userSpaceOnUse" /><linearGradient
       inkscape:collect="always"
       xlink:href="#linearGradient1294"
       id="linearGradient4282"
       gradientTransform="scale(0.32270634,3.0987925)"
       x1="700.14404"
       y1="-54.286751"
       x2="716.05164"
       y2="-54.286751"
       gradientUnits="userSpaceOnUse" /></defs><sodipodi:namedview
     id="base"
     showgrid="false"
     fit-margin-top="0"
     fit-margin-left="0"
     fit-margin-right="0"
     fit-margin-bottom="0"
     inkscape:zoom="1.2685914"
     inkscape:cx="-52.68922"
     inkscape:cy="265.77731"
     inkscape:window-width="3200"
     inkscape:window-height="1679"
     inkscape:window-x="0"
     inkscape:window-y="0"
     inkscape:window-maximized="1"
     inkscape:current-layer="svg1256"
     units="px" /><g
     id="g4284"
     transform="matrix(0.85631404,0,0,0.85631404,-14.258171,-392.11544)"><path
       inkscape:connector-curvature="0"
       sodipodi:nodetypes="ccccccccccccc"
       id="path1658"
       d="m 112.36212,507.79831 c 0.49711,0.31784 0.92203,0.73122 0.90129,1.64454 -0.0208,0.91337 -0.83919,1.6355 -1.75256,1.61471 -0.91332,-0.0207 -1.69744,-0.80996 -1.67876,-1.6314 0.0207,-0.91332 0.46756,-1.46006 1.07047,-1.69245 l -0.0539,-5.87684 1.71497,0.0407 -0.20151,5.90074 z m -1.70143,1.57057 c 0.011,-0.48203 0.42436,-0.86358 0.9233,-0.85222 0.49894,0.0113 0.89452,0.41128 0.8836,0.89331 -0.011,0.48203 -0.42431,0.86358 -0.92331,0.85221 -0.49894,-0.0113 -0.89452,-0.41127 -0.88359,-0.8933 z"
       style="font-size:12px;fill:url(#linearGradient1657);fill-rule:evenodd;stroke-width:1" /><path
       inkscape:connector-curvature="0"
       sodipodi:nodetypes="ccsssccccc"
       id="path1616"
       d="m 131.89607,484.71932 c -0.74054,0 -1.33669,0.59614 -1.33669,1.33662 l 6e-5,11.35626 c 0,0.46723 -0.36775,0.65576 -0.8861,0.66696 l -7.26974,0.15659 c -1.3816,0.0297 -1.04779,2.59612 0.11894,2.59607 l 25.49728,0.19507 0.0612,-14.90967 c 0,-0.74043 -0.59615,-1.33657 -1.33668,-1.33657 l -14.84829,-0.0613 z"
       style="font-size:12px;fill:#808080;fill-rule:evenodd" /><g
       transform="matrix(0.55450213,0,0,0.55450213,7.4178218,259.94716)"
       id="g1546"><g
         style="font-size:12px"
         transform="matrix(0.981419,0.191875,-0.191875,0.981419,99.95474,297.7804)"
         id="g1453"><rect
           transform="matrix(0.991666,0.128834,-0.128834,0.991666,0,0)"
           y="122.32475"
           x="181.92644"
           height="49.29435"
           width="5.1334829"
           id="rect1454"
           style="font-size:12px;fill:url(#linearGradient1358);fill-opacity:1;fill-rule:evenodd;stroke-width:1" /><rect
           transform="matrix(0.993952,0.109813,-0.109813,0.993952,0,0)"
           y="184.92473"
           x="178.6062"
           height="49.294373"
           width="5.1334858"
           id="rect1455"
           style="font-size:12px;fill:url(#linearGradient1363);fill-opacity:1;fill-rule:evenodd;stroke-width:1" /><rect
           transform="matrix(0.421665,-0.906752,0.906752,0.421665,0,0)"
           y="234.0058"
           x="-115.27168"
           height="49.294395"
           width="5.1334872"
           id="rect1456"
           style="font-size:12px;fill:url(#linearGradient1361);fill-opacity:1;fill-rule:evenodd;stroke-width:1" /><rect
           transform="matrix(0.857042,-0.515247,0.515247,0.857042,0,0)"
           y="257.68106"
           x="31.785921"
           height="49.294331"
           width="5.133481"
           id="rect1457"
           style="font-size:12px;fill:url(#linearGradient1362);fill-opacity:1;fill-rule:evenodd;stroke-width:1" /><rect
           transform="matrix(0.738064,0.674731,-0.674731,0.738064,0,0)"
           y="43.670753"
           x="250.15175"
           height="49.294373"
           width="5.1334858"
           id="rect1458"
           style="font-size:12px;fill:url(#linearGradient1364);fill-opacity:1;fill-rule:evenodd;stroke-width:1" /><rect
           transform="matrix(0.252873,0.967499,-0.967499,0.252873,0,0)"
           y="-99.977165"
           x="229.85092"
           height="49.294323"
           width="5.1334805"
           id="rect1459"
           style="font-size:12px;fill:url(#linearGradient1355);fill-opacity:1;fill-rule:evenodd;stroke-width:1" /><rect
           transform="matrix(-0.403649,0.914914,-0.914914,-0.403649,0,0)"
           y="-221.59076"
           x="114.67031"
           height="49.294334"
           width="5.1334815"
           id="rect1460"
           style="font-size:12px;fill:url(#linearGradient1356);fill-opacity:1;fill-rule:evenodd;stroke-width:1" /><rect
           transform="matrix(0.841432,-0.540364,0.540364,0.841432,0,0)"
           y="199.5584"
           x="25.012667"
           height="49.294376"
           width="5.1334858"
           id="rect1461"
           style="font-size:12px;fill:url(#linearGradient1357);fill-opacity:1;fill-rule:evenodd;stroke-width:1" /><rect
           transform="matrix(0.766856,0.641819,-0.641819,0.766856,0,0)"
           y="-4.2206655"
           x="248.92821"
           height="49.294353"
           width="5.1334834"
           id="rect1462"
           style="font-size:12px;fill:url(#linearGradient1359);fill-opacity:1;fill-rule:evenodd;stroke-width:1" /><rect
           transform="matrix(0.212349,0.977194,-0.977194,0.212349,0,0)"
           y="-168.22337"
           x="225.94092"
           height="49.294361"
           width="5.1334844"
           id="rect1463"
           style="font-size:12px;fill:url(#linearGradient1360);fill-opacity:1;fill-rule:evenodd;stroke-width:1" /></g><path
         inkscape:connector-curvature="0"
         id="path1532"
         d="m 251.2564,523.3292 c 0,18.0827 -14.659,32.7418 -32.7418,32.7418 -18.0829,0 -32.7419,-14.6591 -32.7419,-32.7418 0,-18.0829 14.659,-32.7418 32.7419,-32.7418 18.0828,0 32.7418,14.6589 32.7418,32.7418 z m 25.7258,0 c 0,32.2906 -26.1769,58.4675 -58.4676,58.4675 -32.2908,0 -58.4676,-26.1769 -58.4676,-58.4675 0,-32.2908 26.1768,-58.4675 58.4676,-58.4675 32.2907,0 58.4676,26.1767 58.4676,58.4675 z"
         style="font-size:12px;fill:url(#radialGradient1544);fill-rule:evenodd;stroke-width:1" /><path
         inkscape:connector-curvature="0"
         id="path1543"
         d="m 273.0682,523.3293 c 0,30.129 -24.4244,54.5534 -54.5535,54.5534 -30.1291,0 -54.5535,-24.4244 -54.5535,-54.5534 0,-30.1291 24.4244,-54.5534 54.5535,-54.5534 30.1291,0 54.5535,24.4243 54.5535,54.5534 z m 3.9139,-10e-5 c 0,32.2906 -26.1768,58.4674 -58.4675,58.4674 -32.2908,0 -58.4676,-26.1768 -58.4676,-58.4674 0,-32.2908 26.1768,-58.4675 58.4676,-58.4675 32.2907,0 58.4675,26.1767 58.4675,58.4675 z"
         style="font-size:12px;fill:url(#radialGradient1545);fill-rule:evenodd;stroke-width:1" /></g><path
       inkscape:connector-curvature="0"
       sodipodi:nodetypes="cssccssss"
       id="path1277"
       d="m 58.219644,484.15201 c 5.44632,-4.27716 26.729332,-15.38245 33.877474,-18.69199 8.982602,-4.10703 14.465912,-3.45156 16.759552,-1.0504 0.84717,0.88211 0.70233,3.28798 0.34911,8.50823 l 4.49879,0.38277 c 0.33281,-4.89392 0.45913,-10.25701 -0.9787,-11.66728 -5.62914,-5.20017 -11.05366,-4.49701 -20.663575,-0.68886 -8.1117,3.31399 -28.736463,14.11901 -34.11871,18.46016 -0.929601,0.77464 -0.687827,5.32937 0.276059,4.74737 z"
       style="font-size:12px;fill:url(#radialGradient1293);fill-rule:evenodd" /><path
       inkscape:connector-curvature="0"
       sodipodi:nodetypes="ccccccc"
       id="path1275"
       d="m 110.76233,472.14116 c -1.66578,-0.0525 -3.0267,1.36452 -3.05143,3.17696 l -0.0623,4.58047 7.21429,0.39092 0.0623,-4.58035 c 0.0247,-1.8125 -1.29654,-3.31393 -2.96232,-3.36644 l -1.2006,-0.20156 z"
       style="font-size:12px;fill:url(#linearGradient1306);fill-rule:evenodd" /><path
       inkscape:connector-curvature="0"
       sodipodi:nodetypes="ccccc"
       id="path1612"
       d="m 101.86002,477.66538 -0.0311,26.22316 17.44588,0.36957 0.031,-26.71329 -17.44586,0.12056 z"
       style="font-size:12px;fill:url(#linearGradient1291);fill-rule:evenodd" /><rect
       y="516.00555"
       x="129.23106"
       height="14.409051"
       width="237.75833"
       id="rect1260"
       style="font-size:12px;fill:url(#linearGradient1292);fill-opacity:1;fill-rule:evenodd;stroke-width:1" /><path
       inkscape:connector-curvature="0"
       sodipodi:nodetypes="ccccc"
       id="path1298"
       d="m 129.21566,500.97105 0,15.27171 26.81932,0 c -1.0444,-5.25878 -3.6555,-11.52688 -7.83311,-15.27171 l -18.98621,0 z"
       style="font-size:12px;fill:url(#linearGradient1334);fill-rule:evenodd" /><path
       inkscape:connector-curvature="0"
       sodipodi:nodetypes="ccccccc"
       id="path1617"
       d="m 132.05421,485.54192 c -0.37335,0 -0.67389,0.3006 -0.67389,0.67394 l -0.12254,14.81874 15.9477,0 0.12255,-14.81874 c 0,-0.37334 -0.3006,-0.67394 -0.67395,-0.67394 l -14.59987,0 z"
       style="font-size:12px;fill:url(#linearGradient1333);fill-rule:evenodd" /><g
       transform="matrix(0.63788207,0,0,0.58336841,4.5955523,251.5203)"
       id="g1311"><rect
         y="387.98672"
         x="76.098587"
         height="10.335144"
         width="15.650408"
         id="rect1278"
         style="font-size:12px;fill:url(#linearGradient1305);fill-rule:evenodd;stroke-width:1" /><path
         inkscape:connector-curvature="0"
         sodipodi:nodetypes="cccc"
         id="path1269"
         d="m 141.7395,445.8351 -118.11623,0 c 0,-25.7674 26.44123,-46.6559 59.05813,-46.6559 32.6169,0 59.0581,20.8885 59.0581,46.6559 z"
         style="font-size:12px;fill:url(#radialGradient1288);fill-rule:evenodd;stroke-width:1" /><path
         inkscape:connector-curvature="0"
         sodipodi:nodetypes="ccccc"
         id="path1268"
         d="m 23.62326,445.2445 16.53629,68.5073 85.04375,0 16.5362,-68.5073 -118.11624,0 z"
         style="font-size:12px;fill:url(#linearGradient1284);fill-rule:evenodd" /><path
         inkscape:connector-curvature="0"
         sodipodi:nodetypes="cccc"
         id="path1271"
         d="m 125.2033,513.1613 c 0,4.8925 -19.3021,8.8587 -43.11252,8.8587 -23.81029,0 -43.11242,-3.9662 -43.11242,-8.8587 l 86.22494,0 z"
         style="font-size:12px;fill:url(#linearGradient1290);fill-rule:evenodd;stroke-width:1" /><rect
         ry="4.7246399"
         y="438.15738"
         x="18.898605"
         height="15.355103"
         width="128.74673"
         id="rect1272"
         style="font-size:12px;fill:url(#linearGradient1289);fill-rule:evenodd" /><rect
         ry="1.1811829"
         y="397.42166"
         x="71.66922"
         height="3.2481995"
         width="23.623268"
         id="rect1279"
         style="font-size:12px;fill:url(#linearGradient1304);fill-rule:evenodd" /><path
         inkscape:connector-curvature="0"
         sodipodi:nodetypes="ccccccc"
         id="path1307"
         d="m 99.83434,372.7932 -0.60499,41.3929 4.78535,0.1253 14.0374,-3.1502 0.605,-40.2197 -13.6463,1.8149 -5.17646,0.0368 z"
         style="font-size:12px;fill:url(#linearGradient1308);fill-rule:evenodd" /><path
         inkscape:connector-curvature="0"
         sodipodi:nodetypes="ccccc"
         id="path1310"
         d="m 99.67499,373.0322 5.34741,1e-4 13.4753,-1.9251 -5.7751,0 -13.04761,1.925 z"
         style="font-size:12px;fill:#191919;fill-opacity:1;fill-rule:evenodd" /></g><g
       transform="matrix(0.55450213,0,0,0.55450213,8.0887605,258.94075)"
       id="g1430"><g
         id="g1414"><g
           transform="translate(95.82489,278.9189)"
           id="g1380"><path
             inkscape:connector-curvature="0"
             id="path1342"
             d="m 505.1956,229.5173 c 0,29.9269 -24.2606,54.1875 -54.1875,54.1875 -29.9269,0 -54.1875,-24.2606 -54.1875,-54.1875 0,-29.9269 24.2606,-54.1875 54.1875,-54.1875 29.9269,0 54.1875,24.2606 54.1875,54.1875 z m 20.8125,1e-4 c 0,41.4213 -33.5787,75 -75,75 -41.4214,0 -75,-33.5787 -75,-75 0,-41.4214 33.5786,-75.0001 75,-75.0001 41.4213,0 75,33.5787 75,75.0001 z"
             style="font-size:12px;fill:url(#radialGradient1376);fill-rule:evenodd;stroke-width:1" /><g
             transform="translate(290.8969,30.80083)"
             id="g1365"><rect
               transform="matrix(0.991666,0.128834,-0.128834,0.991666,0,0)"
               y="122.32475"
               x="181.92644"
               height="49.29435"
               width="5.1334829"
               id="rect1337"
               style="font-size:12px;fill:url(#linearGradient4264);fill-opacity:1;fill-rule:evenodd;stroke-width:1" /><rect
               transform="matrix(0.993952,0.109813,-0.109813,0.993952,0,0)"
               y="184.92473"
               x="178.6062"
               height="49.294373"
               width="5.1334858"
               id="rect1346"
               style="font-size:12px;fill:url(#linearGradient4266);fill-opacity:1;fill-rule:evenodd;stroke-width:1" /><rect
               transform="matrix(0.421665,-0.906752,0.906752,0.421665,0,0)"
               y="234.0058"
               x="-115.27168"
               height="49.294395"
               width="5.1334872"
               id="rect1347"
               style="font-size:12px;fill:url(#linearGradient4268);fill-opacity:1;fill-rule:evenodd;stroke-width:1" /><rect
               transform="matrix(0.857042,-0.515247,0.515247,0.857042,0,0)"
               y="257.68106"
               x="31.785921"
               height="49.294331"
               width="5.133481"
               id="rect1348"
               style="font-size:12px;fill:url(#linearGradient4270);fill-opacity:1;fill-rule:evenodd;stroke-width:1" /><rect
               transform="matrix(0.738064,0.674731,-0.674731,0.738064,0,0)"
               y="43.670753"
               x="250.15175"
               height="49.294373"
               width="5.1334858"
               id="rect1349"
               style="font-size:12px;fill:url(#linearGradient4272);fill-opacity:1;fill-rule:evenodd;stroke-width:1" /><rect
               transform="matrix(0.252873,0.967499,-0.967499,0.252873,0,0)"
               y="-99.977165"
               x="229.85092"
               height="49.294323"
               width="5.1334805"
               id="rect1350"
               style="font-size:12px;fill:url(#linearGradient4274);fill-opacity:1;fill-rule:evenodd;stroke-width:1" /><rect
               transform="matrix(-0.403649,0.914914,-0.914914,-0.403649,0,0)"
               y="-221.59076"
               x="114.67031"
               height="49.294334"
               width="5.1334815"
               id="rect1351"
               style="font-size:12px;fill:url(#linearGradient4276);fill-opacity:1;fill-rule:evenodd;stroke-width:1" /><rect
               transform="matrix(0.841432,-0.540364,0.540364,0.841432,0,0)"
               y="199.5584"
               x="25.012667"
               height="49.294376"
               width="5.1334858"
               id="rect1352"
               style="font-size:12px;fill:url(#linearGradient4278);fill-opacity:1;fill-rule:evenodd;stroke-width:1" /><rect
               transform="matrix(0.766856,0.641819,-0.641819,0.766856,0,0)"
               y="-4.2206655"
               x="248.92821"
               height="49.294353"
               width="5.1334834"
               id="rect1353"
               style="font-size:12px;fill:url(#linearGradient4280);fill-opacity:1;fill-rule:evenodd;stroke-width:1" /><rect
               transform="matrix(0.212349,0.977194,-0.977194,0.212349,0,0)"
               y="-168.22337"
               x="225.94092"
               height="49.294361"
               width="5.1334844"
               id="rect1354"
               style="font-size:12px;fill:url(#linearGradient4282);fill-opacity:1;fill-rule:evenodd;stroke-width:1" /></g><ellipse
             ry="17.967148"
             rx="18.181061"
             cy="234.85616"
             cx="463.08231"
             transform="matrix(0.996916,0,0,1.008786,-10.12204,-7.625)"
             id="path1378"
             style="fill:url(#radialGradient1379);fill-opacity:1;fill-rule:evenodd;stroke:none;stroke-width:1pt;stroke-linecap:butt;stroke-linejoin:miter;stroke-opacity:1" /></g><path
           inkscape:connector-curvature="0"
           id="path1403"
           d="m 620.6571,507.8757 c 0,40.7311 -33.0188,73.7498 -73.75,73.7498 -40.7308,0 -73.7499,-33.0187 -73.7499,-73.7498 0,-40.731 33.0191,-73.7498 73.7499,-73.7498 40.7312,0 73.75,33.0188 73.75,73.7498 z m 3.6876,1e-4 c 0,42.7676 -34.6697,77.4373 -77.4375,77.4373 -42.7673,0 -77.4374,-34.6697 -77.4374,-77.4373 0,-42.7676 34.6701,-77.4372 77.4374,-77.4372 42.7678,0 77.4375,34.6696 77.4375,77.4372 z"
           style="font-size:12px;fill:url(#radialGradient1405);fill-rule:evenodd;stroke-width:1" /></g><path
         inkscape:connector-curvature="0"
         id="path1410"
         d="m 560.0124,508.4786 c 0,6.9037 -5.5964,12.5001 -12.5,12.5001 -6.9035,0 -12.5,-5.5964 -12.5,-12.5001 0,-6.9035 5.5965,-12.4999 12.5,-12.4999 6.9036,0 12.5,5.5964 12.5,12.4999 z m 1.8754,-0.3019 c 0,7.9392 -6.4359,14.3751 -14.375,14.3751 -7.9391,0 -14.375,-6.4359 -14.375,-14.3751 0,-7.939 6.4359,-14.3749 14.375,-14.3749 7.9391,0 14.375,6.4359 14.375,14.3749 z"
         style="font-size:12px;fill:url(#radialGradient1411);fill-rule:evenodd;stroke-width:1" /><ellipse
         ry="5.7473755"
         rx="6.0498657"
         cy="509.38696"
         cx="548.11761"
         transform="matrix(0.929773,0,0,0.978708,37.88753,9.63559)"
         id="path1412"
         style="fill:url(#radialGradient1413);fill-opacity:1;fill-rule:evenodd;stroke:none;stroke-width:1pt;stroke-linecap:butt;stroke-linejoin:miter;stroke-opacity:1" /></g><path
       inkscape:connector-curvature="0"
       sodipodi:nodetypes="ccccccccccccc"
       id="path1562"
       d="m 162.79048,472.4875 0,3.79534 12.09774,0 0.35583,39.61414 2.72793,0.23721 -0.11861,-39.85135 11.97907,0 0.11861,-4.03256 -1.957,0.35577 -0.0296,1.60118 -23.03907,0.17794 0,-1.66045 -2.13489,-0.23722 z"
       style="font-size:12px;fill:url(#linearGradient1566);fill-rule:evenodd" /><path
       inkscape:connector-curvature="0"
       sodipodi:nodetypes="csssss"
       id="path1564"
       d="m 166.06831,473.98787 c 0,0.45802 -4.29112,0.5845 -4.26977,0 0.0206,-0.56382 0.91792,-0.20084 0.73011,-0.77586 -1.09021,-3.98437 0.10264,-7.604 1.48861,-7.62379 1.55433,-0.0222 2.37061,4.75119 1.27902,7.66577 -0.19846,0.5102 0.77203,0.1694 0.77203,0.73388 z"
       style="font-size:12px;fill:url(#linearGradient1377);fill-rule:evenodd;stroke-width:1" /><path
       inkscape:connector-curvature="0"
       sodipodi:nodetypes="csssss"
       id="path1565"
       d="m 191.14445,473.56856 c 0,0.45802 -4.29112,0.5845 -4.26978,0 0.0206,-0.56382 0.91793,-0.20084 0.73012,-0.77586 -1.09021,-3.98438 0.10264,-7.604 1.48861,-7.6238 1.55433,-0.0222 2.37061,4.7512 1.27902,7.66577 -0.19846,0.5102 0.77203,0.1694 0.77203,0.73389 z"
       style="font-size:12px;fill:url(#linearGradient4262);fill-rule:evenodd;stroke-width:1" /><path
       inkscape:connector-curvature="0"
       id="path1594"
       d="m 142.16162,550.126 c 0,7.59846 -5.94742,13.75826 -13.28382,13.75826 -7.33645,0 -13.28376,-6.1598 -13.28376,-13.75826 0,-7.59839 5.94731,-13.75819 13.28376,-13.75819 7.3364,0 13.28382,6.1598 13.28382,13.75819 z m -22.92861,-3.14269 c 1.01696,-3.18745 3.74245,-5.9894 6.66822,-6.81966 0.65825,-0.19662 0.82277,0.15205 0.82593,0.6109 l 0.0366,5.42558 c 0.003,0.49046 0.0818,0.79 -0.16269,0.93079 -0.22513,0.14245 -0.36287,0.32061 -0.51275,0.52101 -0.1201,0.18808 -0.35155,0.30503 -0.71647,0.30431 l -5.57059,-0.0104 c -0.554,-9.9e-4 -0.8262,-0.21736 -0.56825,-0.9625 z m 19.31714,-0.0432 c -1.01702,-3.18744 -3.74251,-5.9894 -6.66822,-6.81965 -0.65825,-0.19663 -0.82277,0.1521 -0.82594,0.61089 l -0.0366,5.42558 c -0.003,0.49052 -0.0818,0.79006 0.16269,0.93079 0.22513,0.14245 0.36286,0.32067 0.51275,0.52107 0.12005,0.18808 0.35155,0.30497 0.71647,0.30431 l 5.57053,-0.0104 c 0.55406,-10e-4 0.82626,-0.21736 0.56831,-0.96256 z m -6.76166,12.90199 c 3.18745,-1.01701 5.9894,-3.7425 6.81966,-6.66822 0.19662,-0.65819 -0.1521,-0.82277 -0.6109,-0.82587 l -5.42558,-0.0366 c -0.49051,-0.003 -0.79005,-0.0819 -0.93079,0.16263 -0.14245,0.22513 -0.32067,0.36293 -0.52106,0.51275 -0.18809,0.12005 -0.30498,0.35161 -0.30431,0.71647 l 0.0104,5.57053 c 0.001,0.55406 0.21737,0.82632 0.96256,0.56831 z m -5.6639,0.0433 c -3.18745,-1.01695 -5.9894,-3.74244 -6.81966,-6.66822 -0.19663,-0.65825 0.15204,-0.82277 0.61089,-0.82593 l 5.42559,-0.0366 c 0.49045,-0.003 0.79,-0.0818 0.93078,0.1627 0.14246,0.22512 0.32062,0.36286 0.52101,0.51274 0.18809,0.12011 0.30504,0.35156 0.30431,0.71648 l -0.0104,5.57058 c -10e-4,0.554 -0.21736,0.82621 -0.9625,0.56825 z"
       style="font-size:12px;fill:url(#linearGradient1595);fill-rule:evenodd;stroke-width:1" /><path
       inkscape:connector-curvature="0"
       sodipodi:nodetypes="ccccccccc"
       id="path1597"
       d="m 102.14525,503.64187 -0.34723,27.12896 2.7683,-0.53909 0.28551,-24.5834 11.13124,0.19124 -0.24387,24.04931 2.76824,-0.29405 0.34729,-25.65859 -16.70948,-0.29438 z"
       style="font-size:12px;fill:url(#linearGradient1614);fill-rule:evenodd" /><ellipse
       ry="4.2885242"
       rx="4.4110403"
       cy="549.78229"
       cx="129.21161"
       id="path1599"
       style="fill:#808080;fill-opacity:1;fill-rule:evenodd;stroke:none;stroke-width:1pt;stroke-linecap:butt;stroke-linejoin:miter;stroke-opacity:1" /><path
       inkscape:connector-curvature="0"
       id="path1466"
       d="m 133.75753,550.00734 c 0,2.29814 -2.00602,4.16104 -4.48071,4.16104 -2.47458,0 -4.48071,-1.8629 -4.48071,-4.16104 0,-2.29808 2.00613,-4.16104 4.48071,-4.16104 2.47469,0 4.48071,1.86296 4.48071,4.16104 z m 0.67228,-0.10053 c 0,2.64287 -2.30701,4.78524 -5.15282,4.78524 -2.84582,0 -5.15283,-2.14237 -5.15283,-4.78524 0,-2.64276 2.30701,-4.78519 5.15283,-4.78519 2.84581,0 5.15282,2.14243 5.15282,4.78519 z"
       style="font-size:12px;fill:url(#radialGradient4260);fill-rule:evenodd" /><rect
       transform="matrix(0.99998461,-0.00554773,0.00554773,0.99998461,0,0)"
       y="498.14679"
       x="119.9856"
       height="33.573032"
       width="4.1660023"
       id="rect1615"
       style="font-size:12px;fill:#808080;fill-rule:evenodd;stroke-width:1" /><rect
       ry="1.7657019"
       y="492.76517"
       x="120.05156"
       height="13.684229"
       width="2.5992372"
       id="rect1618"
       style="font-size:12px;fill:#191919;fill-opacity:1;fill-rule:evenodd" /><rect
       ry="0.69312769"
       y="516.3266"
       x="152.10886"
       height="13.689322"
       width="3.6389372"
       id="rect1619"
       style="font-size:12px;fill:url(#linearGradient1620);fill-rule:evenodd" /><rect
       ry="0.69312769"
       y="516.15332"
       x="193.52341"
       height="14.209167"
       width="3.8122022"
       id="rect1621"
       style="font-size:12px;fill:url(#linearGradient1622);fill-rule:evenodd" /><rect
       ry="0.51984572"
       y="500.90445"
       x="129.23552"
       height="29.111481"
       width="3.8122275"
       id="rect1623"
       style="font-size:12px;fill:url(#linearGradient1624);fill-rule:evenodd" /><rect
       ry="0.8664096"
       y="483.0563"
       x="173.07605"
       height="3.9854841"
       width="25.819124"
       id="rect1625"
       style="font-size:12px;fill:url(#linearGradient1626);fill-rule:evenodd" /><path
       inkscape:connector-curvature="0"
       sodipodi:nodetypes="cccccccc"
       id="path1263"
       d="m 198.20881,483.01323 -0.17328,33.22953 24.88833,0 0,-33.40282 2.94729,-17.02887 -4.91212,0 -4.25724,17.02887 -18.49298,0.17329 z"
       style="font-size:12px;fill:url(#linearGradient1297);fill-rule:evenodd" /><path
       inkscape:connector-curvature="0"
       sodipodi:nodetypes="ccccccc"
       id="path1301"
       d="m 91.105779,524.12063 -0.335474,11.07036 73.967645,-1.31572 17.15408,-4.05175 -86.005888,0.33542 -0.04192,-6.03836 c 0.09787,-4.36105 -5.171731,-4.02558 -4.738443,5e-5 z"
       style="font-size:12px;fill:url(#linearGradient1332);fill-rule:evenodd" /><path
       inkscape:connector-curvature="0"
       sodipodi:nodetypes="ccccccccccccccccccccccccccc"
       id="path1640"
       d="m 131.61005,549.71556 c 0,1.33979 -1.08616,2.42595 -2.426,2.42595 -1.33979,0 -2.42589,-1.08616 -2.42589,-2.42595 0,-1.33984 1.0861,-2.426 2.42589,-2.426 1.33984,0 2.426,1.08616 2.426,2.426 z m -11.0891,0.0614 c 0,0.83225 -0.70211,1.50697 -1.56824,1.50697 -0.86613,0 -1.56819,-0.67472 -1.56819,-1.50697 0,-0.83231 0.70206,-1.50703 1.56819,-1.50703 0.86613,0 1.56824,0.67472 1.56824,1.50703 z m 5.33049,-1.81256 c -0.87722,-0.0257 -4.03661,0.0671 -5.49002,-0.002 -0.28939,-0.25302 -0.71076,-0.48436 -1.25811,-0.48436 -0.58001,0 -0.84129,0.0557 -1.37317,0.40506 -0.25956,0.16874 -1.34805,0.3311 -1.62879,0.24426 -0.95469,-1.92479 0.0317,-4.72658 -0.2136,-4.98775 -0.23993,-0.20439 -4.17285,0.54807 -4.17285,6.70316 0,6.33885 3.99425,7.09147 4.23418,6.88708 0.30659,-0.3225 -0.55738,-2.69554 0.15227,-5.17167 0.28074,-0.0255 0.74153,-0.0105 1.38376,0.0604 0.44343,0.38316 0.9157,0.58888 1.43444,0.58888 0.48608,0 1.13191,-0.18797 1.5271,-0.6054 1.49804,-0.05 4.2771,0.0994 5.41499,0.10047 0.86674,0.83542 1.94497,1.57679 3.156,1.57069 2.98178,-0.0152 3.68783,-2.17099 3.68789,-3.68783 0,-1.63806 -1.1308,-3.38147 -3.68789,-3.38147 -1.20925,0.0613 -2.49232,0.91898 -3.1662,1.76066 z"
       style="font-size:12px;fill:url(#linearGradient1656);fill-rule:evenodd;stroke-width:1" /><path
       inkscape:connector-curvature="0"
       id="path1649"
       d="m 112.395,509.42222 c 0,0.48214 -0.40462,0.87301 -0.90367,0.87301 -0.49911,0 -0.90367,-0.39087 -0.90367,-0.87301 0,-0.48214 0.40456,-0.87301 0.90367,-0.87301 0.49905,0 0.90367,0.39087 0.90367,0.87301 z m -1.66528,1.60883 c -0.50421,-0.30647 -0.93844,-0.71009 -0.93844,-1.62363 0,-0.9136 0.80181,-1.65414 1.71541,-1.65414 0.91354,0 1.71541,0.7712 1.71541,1.59286 0,0.91355 -0.43429,1.47032 -1.03177,1.71635 l 0.21554,39.45533 -1.71541,-0.002 0.0393,-39.48505 z"
       style="font-size:12px;fill:url(#linearGradient4258);fill-rule:evenodd;stroke-width:1" /><path
       inkscape:connector-curvature="0"
       sodipodi:nodetypes="cccccccccccccccc"
       id="path1654"
       d="m 122.23237,505.77803 c -0.0603,1.80313 -0.6359,2.84898 -1.1344,2.82608 -0.49861,-0.0229 -0.73134,-1.22839 -0.67106,-2.90897 0.0603,-1.31301 0.5133,-2.35897 1.01191,-2.33607 0.4985,0.0229 0.85382,1.10596 0.79355,2.41896 z m -4.17208,42.45574 2.3074,-38.1508 c -0.46534,-0.85771 -0.84867,-1.97686 -0.73444,-4.46469 0.11423,-2.48794 1.1303,-3.36522 2.04295,-3.3233 0.9126,0.0419 1.49461,1.07613 1.39191,3.31376 -0.11422,2.48783 -0.61766,3.98421 -1.24524,4.62677 l -1.91342,38.03613 c 0.52777,0.37368 0.88426,0.95247 0.81933,1.80379 0,0.98125 -0.89802,1.64671 -1.84538,1.64671 -0.94743,0 -1.71547,-0.79543 -1.71547,-1.77668 0,-0.98125 0.57308,-1.56009 0.89236,-1.71169 z"
       style="font-size:12px;fill:url(#linearGradient1655);fill-rule:evenodd;stroke:none;stroke-opacity:1" /><rect
       y="543.89954"
       x="110.34261"
       height="1.9604547"
       width="5.2687755"
       id="rect1641"
       style="font-size:12px;fill:url(#linearGradient1659);fill-rule:evenodd;stroke-width:1" /><path
       inkscape:connector-curvature="0"
       sodipodi:nodetypes="ccssssccssssc"
       id="path1303"
       d="m 35.342915,515.97816 c -4.625601,0.0168 -4.744204,5.01519 0,5.03199 9.253255,0 33.602519,0 42.855773,0 9.253255,0 9.367316,5.28762 20.465898,5.12327 6.753064,0.0678 9.494684,0.88731 18.378694,6.4925 2.30124,1.5358 5.16785,2.02875 8.24367,1.80235 l 32.04374,-2.35885 c 0.49012,-0.83857 0.73516,-1.23953 1.22528,-2.07816 L 125.1801,529.833 c -2.1793,-0.0103 -4.36338,-0.10214 -6.04612,-1.22434 -8.84215,-6.34373 -10.83547,-6.75822 -19.798502,-7.00403 -10.851052,-0.30325 -11.883535,-5.62647 -21.13679,-5.62647 -9.253254,0 -33.602518,0 -42.855773,0 z"
       style="font-size:12px;fill:url(#linearGradient1331);fill-opacity:1;fill-rule:evenodd" /><ellipse
       ry="1.2253011"
       rx="1.3478296"
       cy="509.43771"
       cx="111.54729"
       id="path1660"
       style="fill:#808080;fill-opacity:1;fill-rule:evenodd;stroke:none;stroke-width:1pt;stroke-linecap:butt;stroke-linejoin:miter;stroke-opacity:1" /></g></svg>