<!--Created with Sodipodi ("http://www.sodipodi.com/")--><svg xmlns:dc="http://purl.org/dc/elements/1.1/" xmlns:cc="http://creativecommons.org/ns#" xmlns:rdf="http://www.w3.org/1999/02/22-rdf-syntax-ns#" xmlns="http://www.w3.org/2000/svg" xmlns:xlink="http://www.w3.org/1999/xlink" xmlns:sodipodi="http://sodipodi.sourceforge.net/DTD/sodipodi-0.dtd" xmlns:inkscape="http://www.inkscape.org/namespaces/inkscape" id="svg602" sodipodi:version="0.34" width="738.28229" height="571.86237" xml:space="preserve" sodipodi:docname="garden2.svg" version="1.1" inkscape:version="0.91 r13725"><metadata id="metadata4432"><rdf:RDF><cc:Work><dc:format>image/svg+xml</dc:format><dc:type rdf:resource="http://purl.org/dc/dcmitype/StillImage"/><dc:title/></cc:Work></rdf:RDF></metadata><defs id="defs604"><radialGradient xlink:href="#linearGradient1869" id="radialGradient2015" cx="426.48657" cy="316.5907" r="4.9298949" fx="426.48657" fy="316.5907" gradientTransform="scale(.46489 2.15105)" gradientUnits="userSpaceOnUse"/><radialGradient inkscape:collect="always" xlink:href="#linearGradient1869" id="radialGradient6684" spreadMethod="pad" cx="295.02893" cy="449.6582" fx="295.02893" fy="449.6582" r="23.825684" gradientTransform="scale(.67206 1.48797)" gradientUnits="userSpaceOnUse"/><radialGradient inkscape:collect="always" xlink:href="#linearGradient1869" id="radialGradient6680" gradientTransform="scale(2.17272 .46025)" spreadMethod="reflect" cx="124.73125" cy="780.74304" fx="124.73125" fy="780.74304" r="6.3089318" gradientUnits="userSpaceOnUse"/><radialGradient inkscape:collect="always" xlink:href="#linearGradient1869" id="radialGradient6676" gradientTransform="scale(2.68513 .37242)" spreadMethod="reflect" cx="101.94411" cy="976.72687" fx="101.94411" fy="976.72687" r="4.7712379" gradientUnits="userSpaceOnUse"/><radialGradient inkscape:collect="always" xlink:href="#linearGradient1869" id="radialGradient6672" gradientTransform="scale(2.35312 .42497)" spreadMethod="reflect" cx="115.2545" cy="852.92169" fx="115.2545" fy="852.92169" r="6.2408519" gradientUnits="userSpaceOnUse"/><radialGradient inkscape:collect="always" xlink:href="#linearGradient1869" id="radialGradient6668" gradientTransform="scale(2.02456 .49393)" spreadMethod="reflect" cx="134.07718" cy="735.90454" fx="134.07718" fy="735.90454" r="7.0287633" gradientUnits="userSpaceOnUse"/><radialGradient inkscape:collect="always" xlink:href="#linearGradient1869" id="radialGradient6664" gradientTransform="scale(2.0562 .48633)" spreadMethod="reflect" cx="131.9351" cy="736.72266" fx="131.9351" fy="736.72266" r="6.9456954" gradientUnits="userSpaceOnUse"/><radialGradient inkscape:collect="always" xlink:href="#linearGradient1869" id="radialGradient6660" gradientTransform="scale(1.5733 .6356)" spreadMethod="reflect" cx="173.30307" cy="574.86804" fx="173.30307" fy="574.86804" r="8.9305391" gradientUnits="userSpaceOnUse"/><radialGradient inkscape:collect="always" xlink:href="#linearGradient1869" id="radialGradient6656" gradientTransform="scale(2.01704 .49578)" spreadMethod="reflect" cx="134.81863" cy="719.46484" fx="134.81863" fy="719.46484" r="7.0756555" gradientUnits="userSpaceOnUse"/><radialGradient inkscape:collect="always" xlink:href="#linearGradient1869" id="radialGradient6652" gradientTransform="scale(2.33443 .42837)" spreadMethod="reflect" cx="116.18181" cy="826.28571" fx="116.18181" fy="826.28571" r="5.8717489" gradientUnits="userSpaceOnUse"/><radialGradient inkscape:collect="always" xlink:href="#linearGradient1869" id="radialGradient6648" gradientTransform="scale(2.16005 .46295)" spreadMethod="reflect" cx="125.2176" cy="764.33087" fx="125.2176" fy="764.33087" r="6.5790958" gradientUnits="userSpaceOnUse"/><radialGradient xlink:href="#linearGradient615" id="radialGradient618" cx="207.9505" cy="1283.4614" r="299.9075" fx="207.9505" fy="1283.4614" gradientTransform="matrix(1.76978 0 0 .56504 -2.172 -334.996)" gradientUnits="userSpaceOnUse"/><radialGradient xlink:href="#linearGradient874" id="radialGradient621" cx="209.23233" cy="592.48669" r="3.0750368" fx="209.23233" fy="592.48669" gradientUnits="userSpaceOnUse"/><radialGradient inkscape:collect="always" xlink:href="#linearGradient1869" id="radialGradient6644" gradientTransform="scale(2.3223 .4306)" spreadMethod="reflect" cx="116.65237" cy="822.50458" fx="116.65237" fy="822.50458" r="5.7935057" gradientUnits="userSpaceOnUse"/><radialGradient inkscape:collect="always" xlink:href="#linearGradient1869" id="radialGradient6640" gradientTransform="scale(1.76158 .56767)" spreadMethod="reflect" cx="154.65848" cy="644.48175" fx="154.65848" fy="644.48175" r="7.9803953" gradientUnits="userSpaceOnUse"/><radialGradient inkscape:collect="always" xlink:href="#linearGradient1869" id="radialGradient6636" gradientTransform="scale(3.53193 .28313)" spreadMethod="reflect" cx="76.716866" cy="1281.8726" fx="76.716866" fy="1281.8726" r="4.4489985" gradientUnits="userSpaceOnUse"/><radialGradient xlink:href="#linearGradient874" id="radialGradient880" cx="208.64221" cy="592.15375" r="2.4918995" fx="208.64221" fy="592.15375" gradientUnits="userSpaceOnUse"/><radialGradient xlink:href="#linearGradient874" id="radialGradient1006" cx="244.62334" cy="770.69452" r="13.829931" fx="244.62334" fy="770.69452" gradientTransform="scale(1.14231 .87542)" gradientUnits="userSpaceOnUse"/><radialGradient inkscape:collect="always" xlink:href="#linearGradient741" id="radialGradient6634" gradientTransform="scale(.94226 1.06128)" cx="338.64481" cy="809.86591" fx="338.64481" fy="809.86591" r="4.3187079" gradientUnits="userSpaceOnUse"/><radialGradient xlink:href="#linearGradient607" id="radialGradient1008" cx="313.82477" cy="539.38629" r="379.80884" fx="313.82477" fy="539.38629" gradientTransform="scale(.96012 1.04154)" gradientUnits="userSpaceOnUse"/><radialGradient xlink:href="#linearGradient615" id="radialGradient1011" cx="291.75925" cy="924.6814" r="15.59545" fx="291.75925" fy="924.6814" gradientTransform="scale(1.08314 .92324)" gradientUnits="userSpaceOnUse"/><radialGradient xlink:href="#linearGradient615" id="radialGradient707" cx="233.73521" cy="1060.9792" r="22.172573" fx="233.73521" fy="1060.9792" gradientTransform="scale(1.23741 .80814)" gradientUnits="userSpaceOnUse"/><radialGradient xlink:href="#linearGradient615" id="radialGradient725" cx="225.3437" cy="1013.0832" r="1.6626306" fx="225.3437" fy="1013.0832" gradientTransform="scale(1.19066 .83987)" spreadMethod="reflect" gradientUnits="userSpaceOnUse"/><radialGradient xlink:href="#linearGradient615" id="radialGradient726" cx="209.39073" cy="1139.3365" r="9.9304304" fx="209.39073" fy="1139.3365" gradientTransform="scale(1.351 .7402)" spreadMethod="pad" gradientUnits="userSpaceOnUse"/><radialGradient inkscape:collect="always" xlink:href="#linearGradient615" id="radialGradient6630" gradientTransform="scale(.97836 1.02211)" spreadMethod="reflect" cx="293.52878" cy="824.43237" fx="293.52878" fy="824.43237" r="8.7258511" gradientUnits="userSpaceOnUse"/><radialGradient xlink:href="#linearGradient741" id="radialGradient736" cx="338.64481" cy="809.86591" r="4.3187079" fx="338.64481" fy="809.86591" gradientTransform="scale(.94226 1.06128)" gradientUnits="userSpaceOnUse"/><radialGradient xlink:href="#linearGradient615" id="radialGradient750" cx="347.15112" cy="685.49866" r="4.5858846" fx="347.15112" fy="685.49866" gradientTransform="scale(.8086 1.2367)" spreadMethod="reflect" gradientUnits="userSpaceOnUse"/><radialGradient inkscape:collect="always" xlink:href="#linearGradient615" id="radialGradient6628" gradientTransform="scale(.98178 1.01856)" spreadMethod="reflect" cx="305.68793" cy="829.88074" fx="305.68793" fy="829.88074" r="7.7066426" gradientUnits="userSpaceOnUse"/><radialGradient xlink:href="#linearGradient2019" id="radialGradient2018" cx="113.27934" cy="1209.0844" r="8.6580029" fx="113.27934" fy="1209.0844" gradientTransform="scale(1.72516 .57966)" gradientUnits="userSpaceOnUse"/><radialGradient xlink:href="#linearGradient1869" id="radialGradient1867" cx="297.11755" cy="467.69482" r="24.412312" fx="297.11755" fy="467.69482" spreadMethod="pad" gradientTransform="scale(.6987 1.43121)" gradientUnits="userSpaceOnUse"/><radialGradient xlink:href="#linearGradient1869" id="radialGradient1868" cx="194.36792" cy="507.68274" r="11.349926" fx="194.36792" fy="507.68274" gradientTransform="scale(1.39503 .71683)" spreadMethod="reflect" gradientUnits="userSpaceOnUse"/><linearGradient inkscape:collect="always" xlink:href="#linearGradient860" id="linearGradient6654" gradientTransform="scale(2.33443 .42837)" x1="113.74517" y1="814.14734" x2="128.47292" y2="814.14734" gradientUnits="userSpaceOnUse"/><linearGradient id="linearGradient1869"><stop style="stop-color:#faad00;stop-opacity:1" offset="0" id="stop1870"/><stop style="stop-color:#574a42;stop-opacity:1" offset="1" id="stop1871"/></linearGradient><linearGradient xlink:href="#linearGradient1869" id="linearGradient1865" x1="433.01944" y1="1224.4323" x2="451.51965" y2="891.26117" gradientTransform="matrix(1.40502 0 0 .71173 -2.172 -334.996)" gradientUnits="userSpaceOnUse"/><linearGradient xlink:href="#linearGradient860" id="linearGradient727" x1="588.14325" y1="485.37512" x2="764.90808" y2="587.56799" gradientTransform="matrix(.94925 0 0 1.05347 -2.172 -334.996)" gradientUnits="userSpaceOnUse"/><linearGradient inkscape:collect="always" xlink:href="#linearGradient615" id="linearGradient6632" x1="329.91391" y1="812.75153" x2="340.58121" y2="812.75153" gradientTransform="scale(.95174 1.0507)" gradientUnits="userSpaceOnUse"/><linearGradient xlink:href="#linearGradient615" id="linearGradient1007" x1="329.91391" y1="812.75153" x2="340.58121" y2="812.75153" gradientTransform="scale(.95174 1.0507)" gradientUnits="userSpaceOnUse"/><linearGradient xlink:href="#linearGradient607" id="linearGradient872" x1="184.44986" y1="721.84192" x2="237.07861" y2="814.18567" gradientTransform="scale(1.19071 .83984)" gradientUnits="userSpaceOnUse"/><linearGradient inkscape:collect="always" xlink:href="#linearGradient860" id="linearGradient6638" gradientTransform="scale(3.53193 .28313)" x1="74.870628" y1="1272.6753" x2="86.029778" y2="1272.6753" gradientUnits="userSpaceOnUse"/><linearGradient xlink:href="#linearGradient607" id="linearGradient864" x1="286.70532" y1="530.0047" x2="109.20132" y2="633.03857" gradientTransform="scale(.83116 1.20314)" gradientUnits="userSpaceOnUse"/><linearGradient inkscape:collect="always" xlink:href="#linearGradient860" id="linearGradient6642" gradientTransform="scale(1.76158 .56767)" x1="151.34679" y1="627.98431" x2="171.36353" y2="627.98431" gradientUnits="userSpaceOnUse"/><linearGradient xlink:href="#linearGradient874" id="linearGradient863" x1="308.91718" y1="485.45975" x2="350.17331" y2="462.98026" gradientTransform="scale(.7271 1.37531)" gradientUnits="userSpaceOnUse"/><linearGradient inkscape:collect="always" xlink:href="#linearGradient860" id="linearGradient6646" gradientTransform="scale(2.3223 .4306)" x1="114.2482" y1="810.52795" x2="128.77969" y2="810.52795" gradientUnits="userSpaceOnUse"/><linearGradient xlink:href="#linearGradient622" id="linearGradient614" x1="392.66794" y1="1632.7137" x2="65.239662" y2="1177.3206" gradientTransform="matrix(1.77171 0 0 .56443 -2.172 -334.996)" gradientUnits="userSpaceOnUse"/><linearGradient inkscape:collect="always" xlink:href="#linearGradient860" id="linearGradient6650" gradientTransform="scale(2.16005 .46295)" x1="122.48742" y1="750.73029" x2="138.98936" y2="750.73029" gradientUnits="userSpaceOnUse"/><linearGradient xlink:href="#linearGradient611" id="linearGradient610" x1="325.78271" y1="385.54782" x2="321.89355" y2="781.33466" gradientTransform="matrix(1.13576 0 0 .88047 -2.172 -334.996)" gradientUnits="userSpaceOnUse"/><linearGradient xlink:href="#linearGradient860" id="linearGradient1866" x1="189.65794" y1="484.21964" x2="218.12627" y2="484.21964" gradientTransform="scale(1.39503 .71683)" gradientUnits="userSpaceOnUse"/><linearGradient id="linearGradient607"><stop style="stop-color:#000;stop-opacity:1" offset="0" id="stop608"/><stop style="stop-color:#fff;stop-opacity:1" offset="1" id="stop609"/></linearGradient><linearGradient inkscape:collect="always" xlink:href="#linearGradient860" id="linearGradient6658" gradientTransform="scale(2.01704 .49578)" x1="131.88239" y1="704.83771" x2="149.62982" y2="704.83771" gradientUnits="userSpaceOnUse"/><linearGradient id="linearGradient611"><stop style="stop-color:#00b7ff;stop-opacity:1" offset="0" id="stop612"/><stop style="stop-color:#d5ffff;stop-opacity:1" offset="1" id="stop613"/></linearGradient><linearGradient inkscape:collect="always" xlink:href="#linearGradient860" id="linearGradient6662" gradientTransform="scale(1.5733 .6356)" x1="169.59711" y1="556.40637" x2="191.99702" y2="556.40637" gradientUnits="userSpaceOnUse"/><linearGradient id="linearGradient615"><stop style="stop-color:#85622d;stop-opacity:1" offset="0" id="stop616"/><stop style="stop-color:#574a42;stop-opacity:1" offset="1" id="stop617"/></linearGradient><linearGradient inkscape:collect="always" xlink:href="#linearGradient860" id="linearGradient6666" gradientTransform="scale(2.0562 .48633)" x1="129.0528" y1="722.36414" x2="146.47426" y2="722.36414" gradientUnits="userSpaceOnUse"/><linearGradient id="linearGradient622"><stop style="stop-color:#6e471d;stop-opacity:1" offset="0" id="stop623"/><stop style="stop-color:#ba8557;stop-opacity:1" offset="1" id="stop624"/></linearGradient><linearGradient inkscape:collect="always" xlink:href="#linearGradient860" id="linearGradient6670" gradientTransform="scale(2.02456 .49393)" x1="131.1604" y1="721.37433" x2="148.79022" y2="721.37433" gradientUnits="userSpaceOnUse"/><linearGradient id="linearGradient860"><stop style="stop-color:#6e471d;stop-opacity:1" offset="0" id="stop861"/><stop style="stop-color:#ba8557;stop-opacity:1" offset="1" id="stop862"/></linearGradient><linearGradient inkscape:collect="always" xlink:href="#linearGradient860" id="linearGradient6674" gradientTransform="scale(2.35312 .42497)" x1="112.66468" y1="840.02032" x2="128.31824" y2="840.02032" gradientUnits="userSpaceOnUse"/><linearGradient id="linearGradient874"><stop style="stop-color:#fff;stop-opacity:1" offset="0" id="stop875"/><stop style="stop-color:#000;stop-opacity:1" offset="1" id="stop876"/></linearGradient><linearGradient inkscape:collect="always" xlink:href="#linearGradient860" id="linearGradient6678" gradientTransform="scale(2.68513 .37242)" x1="99.964149" y1="966.86353" x2="111.93155" y2="966.86353" gradientUnits="userSpaceOnUse"/><linearGradient id="linearGradient741"><stop style="stop-color:#ffa77d;stop-opacity:1" offset="0" id="stop742"/><stop style="stop-color:#a7552a;stop-opacity:.6667" offset="1" id="stop743"/></linearGradient><linearGradient inkscape:collect="always" xlink:href="#linearGradient860" id="linearGradient6682" gradientTransform="scale(2.17272 .46025)" x1="122.11318" y1="767.70093" x2="137.93748" y2="767.70093" gradientUnits="userSpaceOnUse"/><linearGradient id="linearGradient2019"><stop style="stop-color:#47220d;stop-opacity:1" offset="0" id="stop2020"/><stop style="stop-color:#ffffb7;stop-opacity:1" offset="1" id="stop2021"/></linearGradient></defs><sodipodi:namedview id="base" showgrid="false" units="px" fit-margin-top="0" fit-margin-left="0" fit-margin-right="0" fit-margin-bottom="0" inkscape:zoom="1.7940591" inkscape:cx="797.89362" inkscape:cy="325.08299" inkscape:window-width="3200" inkscape:window-height="1679" inkscape:window-x="0" inkscape:window-y="0" inkscape:window-maximized="1" inkscape:current-layer="svg602"/><rect style="font-size:12px;fill:url(#linearGradient610);fill-rule:evenodd;stroke-width:1" id="rect606" width="737.6687" height="571.86237" x="1.2115762" y="0"/><path style="font-size:12px;fill:url(#linearGradient614);fill-rule:evenodd" d="M38.77 360.145 1.212 571.862H738.88V355.3l-23.052-3.59h-23.052l-23.052 3.59-23.052 3.589-23.053-3.589h-46.104l-23.052 4.785-23.052-4.785c-18.771 2.877-44.31-6.936-49.546-18.44-7.104 3.733-13.424 3.6-18.812 2.392-3.007 2.96-23.585 20-62.545 13.655l-98.422-3.589h-23.052l-26.787 7.25c-7.364-5.516-19.454-5.635-26.563-3.36-25.659 8.08-20.108 8.003-29.624 4.027l-44.452 6.577-20.629-3.666-24.248-2.392H83.678l-21.855 2.392H38.77z" id="path620" sodipodi:nodetypes="ccccccccccccccccccsccccccc" inkscape:connector-curvature="0"/><path style="font-size:12px;fill:url(#radialGradient618);fill-rule:evenodd" d="M84.28 357.779c-21.491-5.566-40.182-9.473-50.735-4.734-12.012 5.395-30.365.498-32.56 4.96C-1.213 362.464 2.195 567.4 0 571.861h738.88V355.3l-23.052-3.59h-23.052l-23.052 3.59-23.052 3.589-23.053-3.589h-46.104l-23.052 4.785-23.052-4.785-17.16-2.393c-17.254 1.197-26.135-25.123-37.408-14.356-1.522 39.081-47.31 61.413-76.348 87.334-29.038 25.92-9.3 103.693-93.883 104.833-72.739 1.013-68.343-122.707 57.234-74.924 10.84-48.652 110.21-85.34 100.712-117.243-10.874 0-35.682 9.643-39.801 14.356-3.007 2.961-16.589-.423-24.249 0l6.985-1.166h-23.052l-24.249 5.982c-10.076-6.38-26.135-16.35-37.408-4.785 1.887 20.338-2.208 50.247-12.285 55.032-9.117 3.247-19.92 3.217-29.034 0-11.7-5.326-11.38-33.498-9.892-57.425-6.488-9.97-17.761-6.78-26.641-1.196l-23.053 5.981h-41.242l-29.158 3.605c-26.654-9.693-57.643 1.319-67.199-1.155z" id="path619" sodipodi:nodetypes="csccccccccccccccssccccccccsscccccs" inkscape:connector-curvature="0"/><g id="g755" transform="rotate(-1.855 -10170.746 570.945)"><path style="font-size:12px;fill:url(#radialGradient707);fill-rule:evenodd;stroke-width:1" d="M321.431 855.467c0 8.994-16.192 9.094-28.772 9.094-12.58 0-17.892-2.313-17.892-11.307s5.312-19.168 17.892-19.168c12.58 0 28.772 12.388 28.772 21.381z" id="path703" sodipodi:nodetypes="ccccc" inkscape:connector-curvature="0"/><path style="font-size:12px;fill:url(#radialGradient1011);fill-rule:evenodd;stroke-width:1" d="M321.687 852.23c1.022 6.105-3.539 11.957-10.188 13.07-6.648 1.113-15.318.907-16.34-5.198-1.022-6.106 5.99-15.799 12.638-16.912 6.65-1.113 12.867 2.934 13.89 9.04z" id="path705" sodipodi:nodetypes="ccccc" inkscape:connector-curvature="0"/><path style="font-size:12px;fill:none;fill-rule:evenodd;stroke:#000;stroke-width:1;stroke-linecap:round" d="M306.312 849.872c.651 2.178 3.178 2.756 5.078 2.152" id="path708" sodipodi:nodetypes="cc" inkscape:connector-curvature="0"/><path style="font-size:12px;fill:none;fill-rule:evenodd;stroke:#000;stroke-width:1;stroke-linecap:round" d="M308.903 862.78c-.095-2.27 2.106-3.64 4.1-3.688" id="path709" sodipodi:nodetypes="cc" inkscape:connector-curvature="0"/><path transform="rotate(-90 300.285 844.57)" style="font-size:12px;fill:url(#radialGradient6628);fill-rule:evenodd" d="M307.613 850.402c-.979 1.676-2.357 5.311-4.785 1.57-2.666-4.486-11.06-10.095-10.319-11.888 2.692-6.876 5.859 2.018 10.468 1.27 4.46 0 5.833 7.257 4.636 9.048z" id="path716" sodipodi:nodetypes="csscs" inkscape:connector-curvature="0"/><path style="font-size:12px;fill:url(#radialGradient6630);fill-rule:evenodd" d="M296.098 841.056c0 3.799-2.441 11.066-7.85 11.066-5.41 0-9.198-3.38-9.198-7.178 0-1.9-1.165-2.124.025-4.483.463-.768 1.714-5.257 7.527-6.434 6.624-1.376 9.496 3.23 9.496 7.029z" id="path714" sodipodi:nodetypes="cccssc" inkscape:connector-curvature="0"/><path style="font-size:12px;fill:url(#radialGradient726);fill-rule:evenodd" d="M293.45 845.602c1.332 4.022-2.715 6.77-7.118 4.923-5.377-2.131-7.88-1.255-9.212-5.277-1.333-4.022 2.787-3.78 7.396-2.627 4.791 1.331 7.601-1.041 8.934 2.981z" id="path719" sodipodi:nodetypes="cscsc" inkscape:connector-curvature="0"/><ellipse style="font-size:12px;fill:url(#radialGradient750);fill-rule:evenodd" id="path720" transform="translate(-.722 -.568)" cx="280.76999" cy="847.93469" rx="3.813385" ry="5.8322449"/><path style="font-size:12px;fill:url(#radialGradient725);fill-rule:evenodd;stroke-width:1" d="M306.38 858.565c0 5.19-5.622 6.64-13.38 6.64-15.026 0-37.84-11.28-15.686-26.473 7.799-3.64-3.948 12.503 15.863 12.158 8.999.173 13.204 2.484 13.204 7.675z" id="path712" sodipodi:nodetypes="ccccc" inkscape:connector-curvature="0"/><g id="g744"><path style="font-size:12px;fill:url(#linearGradient6632);fill-rule:evenodd;stroke-width:1" d="M314.95 864.129c-2.74-1.846 1.087-2.417 2.887-5.088 1.8-2.672.89-6.433 3.63-4.587 2.74 1.846 3.503 5.508 1.703 8.18-1.8 2.67-5.48 3.34-8.22 1.494z" id="path739" sodipodi:nodetypes="ccccc" inkscape:connector-curvature="0"/><path style="font-size:12px;fill:url(#radialGradient6634);fill-opacity:1;fill-rule:evenodd;stroke-width:1" d="M315.679 863.398c-2.256-1.55.894-2.03 2.376-4.273 1.481-2.244.733-5.402 2.988-3.852 2.256 1.55 2.884 4.625 1.402 6.87-1.481 2.243-4.51 2.805-6.766 1.255z" id="path740" sodipodi:nodetypes="ccccc" inkscape:connector-curvature="0"/></g><g id="g747" transform="rotate(-100.397 309.4 854.196)"><path style="font-size:12px;fill:url(#linearGradient1007);fill-rule:evenodd;stroke-width:1" d="M314.95 864.129c-2.74-1.846 1.087-2.417 2.887-5.088 1.8-2.672.89-6.433 3.63-4.587 2.74 1.846 3.503 5.508 1.703 8.18-1.8 2.67-5.48 3.34-8.22 1.494z" id="path748" sodipodi:nodetypes="ccccc" inkscape:connector-curvature="0"/><path style="font-size:12px;fill:url(#radialGradient736);fill-opacity:1;fill-rule:evenodd;stroke-width:1" d="M315.679 863.398c-2.256-1.55.894-2.03 2.376-4.273 1.481-2.244.733-5.402 2.988-3.852 2.256 1.55 2.884 4.625 1.402 6.87-1.481 2.243-4.51 2.805-6.766 1.255z" id="path749" sodipodi:nodetypes="ccccc" inkscape:connector-curvature="0"/></g></g><g id="g2829" transform="matrix(1.81216 .10027 -.05997 .90743 -191.764 169.938)" style="fill:url(#radialGradient1868);stroke:url(#linearGradient1866)"><path style="font-size:12px;fill:url(#radialGradient6636);fill-rule:evenodd;stroke:url(#linearGradient6638);stroke-linecap:round" d="M264.944 362.193c1.878-.94 3.89 1.313 6.104.688 7.021-1.982 3.154-3.07 10.202-.709 4.15 1.39 18.27-2.767 22.095-.669" id="path1554" transform="translate(.442)" inkscape:connector-curvature="0"/><ellipse style="font-size:12px;fill:url(#radialGradient6640);fill-rule:evenodd;stroke:url(#linearGradient6642);stroke-width:1" id="path992" transform="matrix(1 0 0 1.79592 -1.375 -293.123)" cx="284.23999" cy="362.17078" rx="17.130539" ry="5.1814728"/><path style="font-size:12px;fill:url(#radialGradient6644);fill-rule:evenodd;stroke:url(#linearGradient6646);stroke-linecap:round" d="M265.825 354.772c4.308-2.596 3.031-2.508 5.908-4.977 6.801-.229 10.409-.956 14.142 1.545 3.488 1.703 8.86 3.329 12.684 1.23" id="path997" sodipodi:nodetypes="cccc" inkscape:connector-curvature="0"/><path style="font-size:12px;fill:url(#radialGradient6648);fill-rule:evenodd;stroke:url(#linearGradient6650);stroke-linecap:round" d="M265.085 354.138c4.308-2.596 8.741-2.932 11.618-6.035 6.59 1.463 11.466.102 15.2 2.602 3.487 1.704 6.533-3.227 7.82 3.98" id="path995" sodipodi:nodetypes="cccc" inkscape:connector-curvature="0"/><path style="font-size:12px;fill:url(#radialGradient6652);fill-rule:evenodd;stroke:url(#linearGradient6654);stroke-linecap:round" d="M266.037 354.561c4.308-2.596 8.106.24 6.754-3.709 6.8-.228 13.158-3.07 16.891-.57 3.487 1.704 5.899 4.175 9.723 2.077" id="path998" sodipodi:nodetypes="cccc" inkscape:connector-curvature="0"/><path style="font-size:12px;fill:url(#radialGradient6656);fill-rule:evenodd;stroke:url(#linearGradient6658);stroke-linecap:round" d="M301.309 357.733c-.925-9.787-11.914-5.046-14.791-7.515-6.8-.229-9.351-.956-13.085 1.545-3.487 1.703-7.802-.055-6.762 5.46" id="path994" sodipodi:nodetypes="cccc" inkscape:connector-curvature="0"/><path transform="matrix(.9784 0 0 .84694 5.56 54.85)" style="font-size:12px;fill:url(#radialGradient6660);fill-rule:evenodd;stroke:url(#linearGradient6662);stroke-opacity:1" d="M300.938 354.68c3.35 9.478-7.237 12.672-16.698 12.672-9.46 0-19.076 1.301-16.482-12.298.432 2.632 6.805 3.434 16.266 3.434 9.46 0 13.672.322 16.914-3.808z" id="path1024" sodipodi:nodetypes="ccccc" inkscape:connector-curvature="0"/><path style="font-size:12px;fill:url(#radialGradient6664);fill-rule:evenodd;stroke:url(#linearGradient6666);stroke-linecap:round" d="M271.747 351.812c-11.554 2.056-3.103 8.911-.225 6.442 6.8-.228 9.562-2.013 13.296.488 3.487 1.703 12.032-1.112 15.856-3.21" id="path999" sodipodi:nodetypes="cccc" inkscape:connector-curvature="0"/><path style="font-size:12px;fill:url(#radialGradient6668);fill-rule:evenodd;stroke:url(#linearGradient6670);stroke-linecap:round" d="M266.049 361.386c7.18.939 7.204 4.432 9.64 2.626 6.8-.228 8.457-.245 13.295.488 3.266-1.832 9.27-11.08 11.747-6.365" id="path1610" sodipodi:nodetypes="cccc" transform="translate(.442)" inkscape:connector-curvature="0"/><path style="font-size:12px;fill:url(#radialGradient6672);fill-rule:evenodd;stroke:url(#linearGradient6674);stroke-linecap:round" d="M265.79 359.232c-1.083 3.925 3.043 4.274 5.258 3.649 7.022-1.982 3.154-3.07 10.202-.709 4.15 1.39 16.579-2.979 20.191-4.687" id="path1611" transform="translate(.442)" sodipodi:nodetypes="cccc" inkscape:connector-curvature="0"/><path style="font-size:12px;fill:url(#radialGradient6676);fill-rule:evenodd;stroke:url(#linearGradient6678);stroke-linecap:round" d="M268.922 362.27c4.529-4.807 10.739 2.222 15.163 1.742 5.917-.007 7.132-3.56 9.54-3.048 3.708 1.925 5.56 4.305 6.424.303" id="path1612" sodipodi:nodetypes="cccc" transform="translate(.442)" inkscape:connector-curvature="0"/><path style="font-size:12px;fill:url(#radialGradient6680);fill-rule:evenodd;stroke:url(#linearGradient6682);stroke-linecap:round" d="M265.825 356.041c5.154-1.327 11.914 5.74 14.79 3.27 6.802-.227 9.986-2.012 13.72.489 3.487 1.703 1.035-3.862 4.859-5.96" id="path1613" sodipodi:nodetypes="cccc" inkscape:connector-curvature="0"/></g><path style="font-size:12px;fill:url(#linearGradient727);fill-rule:evenodd" d="M522.51 48.541c-1.239-.306 5.064 46.05 4.033 57.252-.499 4.517-19.346-9.296-41.062-15.886-16.458-4.48 41.01 23.622 44.995 26.348 11.449 21.524 45.492 63.818 68.214 76.235 11.294 7.35 21.526 20.132 20.544 33.894l-3.953 127.254c-.117 16.185 55.23 8.69 55.3 1.754l.993-132.663c-.186-8.62 10.061-20.39 20.403-35.197 6.422-7.983 52.797 1.758 71.126-20.855-20.33 15.225-59.612 9.261-60.459 7.294-.484-1.5 17.233-13.904 40.333-34.933 5.775-5.257 36.972 6.645 66.305-28.133-25.4 26.685-73.9 30.822-54.345 11.645 19.6-12.064 36.085-34.493 39.13-49.594-5.465 10.069-21.942 37.09-37.516 44.171-4.988 2.082-3.397-55.015-4.38-65.854-3.703 16.901-.28 60.95-.507 64.8-.62 10.836-15.183 18.777-17.2 21.275-1.952 2.105-7.69-27.606 1.344-54.393-6.627 6.86-8.15 43.978-7.854 57.511.084 3.937-8.747 10.29-11.018 10.665-13.354 2.85-5.66-47.279-8.896-40.809-3.236 6.47-2.446 39.317 4.251 45.16-2.846 2.985-14.236 10.385-20.542 15.906-4.478 3.599 3.705-44.554-.941-39.498-2.224 2.741 2.115 38.416-16.18 56.961-2.926 2.868-7.274 4.964-12.32 1.526-7.666-4.554 4.069-49.925 6.958-59.226 3.589-7.92 42.905-19.6 69.716-64.704-23.365 25.797-34.173 37.281-45.778 42.14-5.287 2.063 40.108-93.872 28.004-92.364.051 3.545-2.549 19.3-13.667 45.193-.76 1.821-15.291-26.75-14.844-47.273-6.433 16.804 14.204 47.636 12.081 52.98-8.488 21.373-17.422 41.686-19.101 44.53-4.762 6.445-15.387 8.748-15.09 7.623.831-11.055 10.305-52.498 8.828-76.156-3.185 29.705-10.004 77.602-14.242 74.406-10.756-7.793-16.715-46.83-18.351-53.19-1.07-5.611 15.648-16.542 19.848-62.372-5.048 30.038-19.464 63.463-22.634 49.394-4.015-13.613-6.775-31.447-7.91-50.105-5.177-8.733 6.004 84.77 24.818 124.589.14 4.553-2.87 10.147-4.406 15.372-1.167 3.514-5.73-7.368-10.332-17.937-4.602-10.57-9.241-20.827-10.56-16.063-.67 2.183 3.935 11.733 8.354 21.854 4.42 10.121 8.653 20.813 7.242 25.28-2.823 8.935-7.677 30.22-8.859 30.22-2.176-.232-11.587-33.83-14.16-58.977-2.648-26.817 13.885-32.382 9.45-75.273-1.574 8.609-.143 20.124-2.633 27.58-.613 1.756-9.152 2.983-19.055-47.153 1.596 36.403 17.232 52.101 16.531 54.562-2.803 9.845-7.408 18.067-8.793 15.284-14.962-29.934-16.956-64.484-17.845-93.117-1.076.282-2.091 35.34.544 45.945.722 2.452-34.107-19.343-32.19-45.77-8.659 27.273 29.617 43.348 32.008 54.512 2.39 11.163 16.268 47.451 13.375 67.823-1.375 8.45-24.869-17.057-25.215-13.429.218 6.586 20.634 19.108 24.742 24.048 4.447 4.438 9.024 51.29 1.083 49.08-1.926-3.41-29.013-19.328-37.001-25.105-7.988-5.778 18.656-59.152 14.31-85.853-4.225 30.317-10.478 50.253-12.272 50.276-1.614.31-15.868-8.155-17.999-31.295-4.545 18.58 14.889 32.58 15.954 35.286.5 2.031-3.795 23.823-8.693 24.488-2.93-.513-19.629-17.548-20.501-22.593-.528-2.595 5.827-26.82 3.698-38.053-.411-2.601 31.84-34.71 32.598-47.924-5.469 10.316-30.812 43.554-34.718 43.463-4.086-.078-8.221-35.197-5.795-51.052-7.01 7.299-1.428 46.857.78 51.33 6.396 16.026.487 34.875-2.657 35.32-5.772.878-14.923-15.592-15.734-18.616-4.586-19.662-7.241-59.954-9.684-60.814z" id="path2007" sodipodi:nodetypes="csscsccccscsscccscsscssscssscscscscssscsscsccssssscscscsccscsssscscscsssscscsssc" inkscape:connector-curvature="0"/><path style="font-size:12px;fill:url(#linearGradient1865);fill-rule:evenodd" d="M775.187 427.979c-45.718-11.438-36.926-43.038-76.782-64.86-11.682-6.145-21.526-4.147-26.54-8.8l-56.625-.03c.187 6.298-11.774.533-22.116 14.296-6.422 7.419-126.054 18.754-144.383 39.772 20.33-14.15 132.869-28.997 133.716-27.168.484 1.393-12.95 16.35-36.05 35.894-5.774 4.887-107.243 13.21-136.576 45.534 25.4-24.802 144.171-48.033 124.617-30.209-19.6 11.214-116.05 82.946-119.094 96.982 5.464-9.359 101.906-85.36 117.48-91.942 4.987-1.935-40.22 53.558-39.237 63.632 3.703-15.709 43.896-59.072 44.124-62.651.62-10.072 15.183-17.452 17.2-19.775 1.952-1.956-11.696 28.082-20.73 52.98 12.624-24.367 17.256-39.016 26.383-58.448 1.488-3.343 7.89-9.563 10.161-9.912 13.354-2.649 7.374 46.513 10.61 40.5 3.236-6.014.732-40.827-5.965-46.257 2.846-2.775 11.666-8.797 17.972-13.928 4.478-3.345.578 44.838 5.225 40.139 2.224-2.548-6.4-42.56 12.752-52.086 3.48-1.887 10.701-5.47 15.748-2.275 7.666 4.233-4.07 46.403-6.958 55.047-3.589 7.362-76.144 29.183-86.679 77.101 15.655-38.54 40.023-49.337 66.167-61.269 5.179-2.193-27.795 48.845-60.24 92.848 30.863-38.44 40-46.227 39.906-52.432-.065-5.136 17.862 33.43 17.415 52.505 6.433-15.619-14.728-53.957-12.082-58.665 10.202-17.296 15.71-31.035 20.815-36.25 5.76-5.036 13.673-3.846 13.377-2.8-.832 10.274-10.305 48.793-8.829 70.782 3.186-27.608 10.005-72.127 14.242-69.156 10.757 7.243 16.716 43.526 18.352 49.438 1.07 5.215-23.359-.046-27.559 42.55 5.048-27.919 27.175-43.564 30.344-30.488 4.016 12.653 7.632 25.801 21.617 38.86-21.38-24.439-19.71-71.08-38.524-108.089-.14-4.232 2.869-9.431 4.405-14.287 1.167-3.266 5.73 6.847 10.333 16.671 4.601 9.824 6.625 4.024 2.205-5.383-4.419-9.407-8.653-19.345-7.241-23.497 2.823-8.304 7.677-28.087 8.858-28.087 2.176.215 23.581 28.016 26.154 51.39 2.648 24.924-25.878 33.523-21.444 73.389 1.574-8.002.144-18.705 2.634-25.635.612-1.632 9.152-2.772 19.054 43.827-1.596-33.835-14.66-47.57-13.96-49.857 2.803-9.15 12.548-25.36 13.933-22.772 6.395 17.542 9.246 67.644 10.135 94.258 1.075-.262 2.091-32.847-.544-42.704-.723-2.279 41.817 17.122 39.9 41.684 8.66-25.349-37.328-39.433-39.718-49.809-2.39-10.376-4.274-47.53-1.382-66.465 1.375-7.855 17.924-8.142 25.215 12.481-2.788-23.255-20.633-17.76-24.741-22.35-4.447-4.126-21.018-44.246-13.077-42.192 13.063-1.114 25.586-4.31 45.568 14.768 6.814 6.798-18.657 54.978-14.31 79.795 4.224-28.178 10.477-46.707 12.272-46.729 1.613-.288 15.868 7.58 17.998 29.088 4.545-17.27-14.888-30.282-15.953-32.797-.5-1.888 3.795-22.143 8.693-22.76 2.93.476 15.345 19.736 16.218 24.426.527 2.411-10.111 30.068-7.983 40.508.412 2.418-31.839 32.26-32.597 44.543 5.469-9.588 30.811-40.481 34.718-40.396 4.085.072 8.22 32.713 5.795 47.45 7.01-6.784 1.427-43.552-.781-47.71-6.396-14.894 1.227-36.697 4.37-37.111 5.773-.816 18.87 2.286 32.019 4.893z" id="path2008" sodipodi:nodetypes="csccscsscccscsscssscssscscscscssscsscsccsssscscscsccscsscscscscsssscscssc" inkscape:connector-curvature="0"/><g id="g2027" transform="translate(102.63 -332.573)"><path style="font-size:12px;fill:url(#linearGradient864);fill-rule:evenodd;stroke-width:1" d="M222.738 638.372c-2.412 8.79-16.05 46.119-42.982 40.37 9.223-10.51 15.589-27.295 18-36.086 2.411-8.79 13.25-15.818 15.755-29.987 17.988 4.934 11.638 16.912 9.227 25.703z" id="path859" sodipodi:nodetypes="ccccc" inkscape:connector-curvature="0"/><path style="font-size:12px;fill:url(#radialGradient1008);fill-rule:evenodd;stroke-width:1" d="M322.906 631.838c-10.767 32.055-23.308 54.471-59.635 55.418-46.51 1.196-43.349-33.957-49.824-71.987-3.136-20.29-17.527-25.019-11.431-44.737 2.577-8.637 14.739-16.645 24.01-15.962 27.015 1.905 23.512 23.276 42.576 34.245 30.114 17.083 42.22 41.57 54.304 43.023z" id="path855" sodipodi:nodetypes="csssssc" inkscape:connector-curvature="0"/><path style="font-size:12px;fill:#ff8d46;fill-opacity:1;fill-rule:evenodd;stroke-width:1" d="M274.983 671.97c-3.56 4.143-6.2 9.076 4.264 9.212 5.922-1.866 9.868-2.954 14.29-2.625 3.255.429 6.401 3.506 1.012 6.214 6.102-1.094 11.625 5.399 3.373 5.542 6.92.879 10.292 4.303 7.055 5.218-6.632-.562-65.574-3.283-39.742-21.683.767-3.634 1.818-8.758 8.718-9.449 3.847-.153 4.398 3.43 1.03 7.572z" id="path857" sodipodi:nodetypes="ccsccccsc" inkscape:connector-curvature="0"/><path transform="matrix(.95112 -.33426 .36613 1.2938 -207.12 -104.424)" style="font-size:12px;fill:#faf9f9;fill-rule:evenodd;stroke-width:1" d="M215.777 591.916c-1.985 1.264-7.223 1.525-8.673.519-2.66-4.506-.908-8.905 3.193-9.238 2.846-.13 8.322.894 5.48 8.72z" id="path878" sodipodi:nodetypes="ccsc" inkscape:connector-curvature="0"/><path transform="matrix(1.02561 -.3431 .3948 1.32804 -226.045 -122.904)" style="font-size:12px;fill:#fafafa;fill-rule:evenodd;stroke-width:1" d="M215.925 592.645c-2.611 1.54-8.316-.919-8.878-4.393 0-3.33 3.703-6.115 7.32-5.157 2.9.52 6.18 4.39 1.558 9.55z" id="path879" sodipodi:nodetypes="ccsc" inkscape:connector-curvature="0"/><ellipse style="fill:url(#radialGradient880);fill-opacity:1;fill-rule:evenodd;stroke:none;stroke-width:1pt;stroke-linecap:butt;stroke-linejoin:miter;stroke-opacity:1" id="path873" transform="translate(-.846 -2.115)" cx="210.64209" cy="590.89526" rx="4.2297592" ry="4.2297668"/><ellipse style="fill:url(#radialGradient621);fill-opacity:1;fill-rule:evenodd;stroke:none;stroke-width:1pt;stroke-linecap:butt;stroke-linejoin:miter;stroke-opacity:1" id="path877" transform="translate(13.535 -3.384)" cx="210.64209" cy="590.89526" rx="4.2297592" ry="4.2297668"/><path style="font-size:12px;fill:#ff8000;fill-opacity:1;fill-rule:evenodd;stroke-width:1" d="M240.25 593.01c.98 3.657-.302 7.185-5 8.302-8.682 8.2-21.018 9.569-24.608 8.406-4.853-1.48-5.067-2.98-5.71-4.23-1.993-3.67-.473-9.553-.313-12.743 2.357 1.454 7.945-1.463 10.122-4.09.602-.58 3.207-1.603 3.981-.808 3.583 3.466 6.197 4.37 10.108 2.626 3.796-4.442 9.93-2.236 11.42 2.537z" id="path866" sodipodi:nodetypes="cccsccscs" inkscape:connector-curvature="0"/><path style="fill:none;fill-opacity:1;fill-rule:evenodd;stroke:#000;stroke-width:1pt;stroke-linecap:butt;stroke-linejoin:miter;stroke-opacity:1" d="M206.412 607.18c7.603 2.96 16.695.722 24.748-5.943 1.073-1.442 2.676-4.705 5.104-4.637" id="path869" sodipodi:nodetypes="ccc" inkscape:connector-curvature="0"/><path style="font-size:12px;fill:#fafafa;fill-opacity:1;fill-rule:evenodd;stroke-width:1" d="M263.498 666.537c.15 5.114-2.152 8.993-6.999 12.023-3.852 3.006-9.71 4.576-16.18 2.632-21.316-5.682-21.546-45.064-27.28-71.059 2.529.025 10.046-.354 17.69-5.227-2.503 8.333 6.77 12.805 14.234 12.376 3.684-.26 23.005 25.058 23.405 35.359-.01 4.779-.683 8.782-4.87 13.896z" id="path1010" sodipodi:nodetypes="cscccssc" inkscape:connector-curvature="0"/><path style="font-size:12px;fill:url(#linearGradient863);fill-rule:evenodd;stroke-width:1" d="M225.024 656.668c4.661 16.562 10.233 20.091 17.976 23.475-5.37.423-15.9-6.553-20.514-21.36-3.384-10.435-.929-17.554-.212-20.515.412-1.943-.014 10.083 2.75 18.4z" id="path1013" sodipodi:nodetypes="ccsss" inkscape:connector-curvature="0"/><path style="font-size:12px;fill:url(#linearGradient872);fill-rule:evenodd;stroke-width:1" d="M260.86 614.611c-11.848 5.39 1.698 18.947-9.095 18.565-24.936.09-48.679 26.18-63.878 21.266.548-6.63 20.282-18.95 28.735-29.04 8.477-10.541 13.652-13.834 26.096-20.656 13.578-7.865 23.537 7.612 18.142 9.866z" id="path871" sodipodi:nodetypes="cscsss" inkscape:connector-curvature="0"/><path style="font-size:12px;fill:url(#radialGradient1006);fill-rule:evenodd" d="M273.956 673.792c-1.585-2.188-1.419-2.409-2.058-2.314-1.08.057.518 1.6-.923 3.342-.617.01-.638-2.166-1.219-2.237-.58-.07.909 1.067-1.142 2.819-.916-.868-1.023-2.186-.578-2.953-.459-.219-1.532 1.856-1.907 1.57-.665-.88.551-2.12.275-2.47-.276-.35-2.265.928-2.426.52 2.582-3.602-2.297-5.246 5.49-9.445 5.757-1.56 4.451 1.947 11.696 3.203-1.82.98-3.16-.32-4.331.262 1.167.425 2.155.862 3.925 3.066-1.545.587-3.001-1.258-3.213-.847-.212.411 2.124 2.482 1.897 3.527-.558-.141-2.739-3.127-3.152-2.772-.413.356 1.83 2.638 1.606 4.598-.787-.494-2.855-3.665-3.432-3.412-.577.253 1.263 1.373-.508 3.543z" id="path805" sodipodi:nodetypes="ccccccccccccccccccc" inkscape:connector-curvature="0"/></g><g id="g2022" transform="translate(102.023 -342.266)"><path transform="matrix(1.6 0 0 1 -120.431 .303)" style="font-size:12px;fill:url(#radialGradient2015);fill-rule:evenodd;stroke-width:1" d="M201.538 690.253c0 6.36-1.506 10.753-3.597 10.753s-3.408-2.879-3.408-10.753c0-8.782 2.642-10.753 3.597-21.657.955 8.784 3.408 12.875 3.408 21.657z" id="path2014" sodipodi:nodetypes="ccccc" inkscape:connector-curvature="0"/><path style="font-size:12px;fill:url(#radialGradient6684);fill-rule:evenodd;stroke-width:1" d="M194.458 686.619c-1.635 5.024-1.74 9.54 4.846 14.69-11.89 2.12-15.145-2.44-15.145-11.056 0-7.1 6.284-9.844 7.27-21.96 2.5 3.938 5.149 13.042 3.029 18.325z" id="path2010" sodipodi:nodetypes="ccccs" inkscape:connector-curvature="0"/><path style="font-size:12px;fill:url(#radialGradient1867);fill-rule:evenodd;stroke-width:1" d="M193.852 686.619c-1.395 3.206-1.895 8.33-.303 14.69 11.587 1.514 15.145-2.138 15.145-10.753s-6.284-9.844-7.27-21.96c-4.318 10.602-5.738 12.633-7.572 18.023z" id="path2012" sodipodi:nodetypes="ccccs" inkscape:connector-curvature="0"/><path style="font-size:12px;fill:url(#radialGradient2018);fill-rule:evenodd;stroke-width:1" d="M202.03 701.309c1.363.439 2 2.114 1.912 1.987-.996-1.31-2.26-1.49-2.424-1.372-.165.118 1.224 1.517.46 3.59-.007-2.242-1.56-3.053-1.856-2.964-.294.089.461 1.201-.282 3.647.032-1.443.192-3.502-1.788-3.225-.388.056-.57 3.42-.995 3.446-.045-1.64.803-3.519-1.54-3.292-.449 0-1.063 1.358-1.312 3.292-.272-1.238.487-2.808-.995-3.446-1.507-.604-1.214 3.372-1.56 3.301-.347-.07.39-3.104-.737-3.723-.278-.134-1.622-.036-1.78 3.116-.764-1.695.549-3.624.384-3.742-.165-.118-2.022.086-2.197 2.432-1.09-1.905 1.685-3.063 1.685-3.199-.378-1.087.569.303 6.437.455 6.777.075 7.118-1.163 6.588-.303z" id="path2017" sodipodi:nodetypes="csscscscccssscscccc" inkscape:connector-curvature="0"/></g></svg>