<?xml version="1.0" encoding="UTF-8" standalone="no"?>
<!-- Created with Sodipodi ("http://www.sodipodi.com/") -->

<svg
   xmlns:dc="http://purl.org/dc/elements/1.1/"
   xmlns:cc="http://creativecommons.org/ns#"
   xmlns:rdf="http://www.w3.org/1999/02/22-rdf-syntax-ns#"
   xmlns:svg="http://www.w3.org/2000/svg"
   xmlns="http://www.w3.org/2000/svg"
   xmlns:xlink="http://www.w3.org/1999/xlink"
   xmlns:sodipodi="http://sodipodi.sourceforge.net/DTD/sodipodi-0.dtd"
   xmlns:inkscape="http://www.inkscape.org/namespaces/inkscape"
   id="svg602"
   sodipodi:version="0.34"
   width="738.28229"
   height="571.86237"
   xml:space="preserve"
   sodipodi:docname="garden2.svg"
   version="1.1"
   inkscape:version="0.91 r13725"><metadata
     id="metadata4432"><rdf:RDF><cc:Work
         rdf:about=""><dc:format>image/svg+xml</dc:format><dc:type
           rdf:resource="http://purl.org/dc/dcmitype/StillImage" /><dc:title /></cc:Work></rdf:RDF></metadata><defs
     id="defs604"><linearGradient
       id="linearGradient2019"><stop
         style="stop-color:#47220d;stop-opacity:1;"
         offset="0"
         id="stop2020" /><stop
         style="stop-color:#ffffb7;stop-opacity:1;"
         offset="1"
         id="stop2021" /></linearGradient><linearGradient
       id="linearGradient1869"><stop
         style="stop-color:#faad00;stop-opacity:1;"
         offset="0"
         id="stop1870" /><stop
         style="stop-color:#574a42;stop-opacity:1;"
         offset="1"
         id="stop1871" /></linearGradient><linearGradient
       id="linearGradient741"><stop
         style="stop-color:#ffa77d;stop-opacity:1;"
         offset="0"
         id="stop742" /><stop
         style="stop-color:#a7552a;stop-opacity:0.6667;"
         offset="1"
         id="stop743" /></linearGradient><linearGradient
       id="linearGradient874"><stop
         style="stop-color:#ffffff;stop-opacity:1;"
         offset="0"
         id="stop875" /><stop
         style="stop-color:#000000;stop-opacity:1;"
         offset="1"
         id="stop876" /></linearGradient><linearGradient
       id="linearGradient860"><stop
         style="stop-color:#6e471d;stop-opacity:1;"
         offset="0"
         id="stop861" /><stop
         style="stop-color:#ba8557;stop-opacity:1;"
         offset="1"
         id="stop862" /></linearGradient><linearGradient
       id="linearGradient622"><stop
         style="stop-color:#6e471d;stop-opacity:1;"
         offset="0"
         id="stop623" /><stop
         style="stop-color:#ba8557;stop-opacity:1;"
         offset="1"
         id="stop624" /></linearGradient><linearGradient
       id="linearGradient615"><stop
         style="stop-color:#85622d;stop-opacity:1;"
         offset="0"
         id="stop616" /><stop
         style="stop-color:#574a42;stop-opacity:1;"
         offset="1"
         id="stop617" /></linearGradient><linearGradient
       id="linearGradient611"><stop
         style="stop-color:#00b7ff;stop-opacity:1;"
         offset="0"
         id="stop612" /><stop
         style="stop-color:#d5ffff;stop-opacity:1;"
         offset="1"
         id="stop613" /></linearGradient><linearGradient
       id="linearGradient607"><stop
         style="stop-color:#000;stop-opacity:1;"
         offset="0"
         id="stop608" /><stop
         style="stop-color:#fff;stop-opacity:1;"
         offset="1"
         id="stop609" /></linearGradient><linearGradient
       xlink:href="#linearGradient611"
       id="linearGradient610"
       x1="325.78271"
       y1="385.54782"
       x2="321.89355"
       y2="781.33466"
       gradientTransform="matrix(1.1357557,0,0,0.88047105,-2.172231,-334.99625)"
       gradientUnits="userSpaceOnUse" /><linearGradient
       xlink:href="#linearGradient622"
       id="linearGradient614"
       x1="392.66794"
       y1="1632.7137"
       x2="65.239662"
       y2="1177.3206"
       gradientTransform="matrix(1.7717109,0,0,0.56442616,-2.172231,-334.99625)"
       gradientUnits="userSpaceOnUse" /><radialGradient
       xlink:href="#linearGradient615"
       id="radialGradient618"
       cx="207.9505"
       cy="1283.4614"
       r="299.9075"
       fx="207.9505"
       fy="1283.4614"
       gradientTransform="matrix(1.769775,0,0,0.56504359,-2.172231,-334.99625)"
       gradientUnits="userSpaceOnUse" /><radialGradient
       xlink:href="#linearGradient874"
       id="radialGradient621"
       cx="209.23233"
       cy="592.48669"
       r="3.0750368"
       fx="209.23233"
       fy="592.48669"
       gradientUnits="userSpaceOnUse" /><linearGradient
       xlink:href="#linearGradient874"
       id="linearGradient863"
       x1="308.91718"
       y1="485.45975"
       x2="350.17331"
       y2="462.98026"
       gradientTransform="scale(0.72710649,1.3753144)"
       gradientUnits="userSpaceOnUse" /><linearGradient
       xlink:href="#linearGradient607"
       id="linearGradient864"
       x1="286.70532"
       y1="530.0047"
       x2="109.20132"
       y2="633.03857"
       gradientTransform="scale(0.83115515,1.2031448)"
       gradientUnits="userSpaceOnUse" /><linearGradient
       xlink:href="#linearGradient607"
       id="linearGradient872"
       x1="184.44986"
       y1="721.84192"
       x2="237.07861"
       y2="814.18567"
       gradientTransform="scale(1.1907099,0.8398351)"
       gradientUnits="userSpaceOnUse" /><radialGradient
       xlink:href="#linearGradient874"
       id="radialGradient880"
       cx="208.64221"
       cy="592.15375"
       r="2.4918995"
       fx="208.64221"
       fy="592.15375"
       gradientUnits="userSpaceOnUse" /><radialGradient
       xlink:href="#linearGradient874"
       id="radialGradient1006"
       cx="244.62334"
       cy="770.69452"
       r="13.829931"
       fx="244.62334"
       fy="770.69452"
       gradientTransform="scale(1.1423104,0.87541879)"
       gradientUnits="userSpaceOnUse" /><linearGradient
       xlink:href="#linearGradient615"
       id="linearGradient1007"
       x1="329.91391"
       y1="812.75153"
       x2="340.58121"
       y2="812.75153"
       gradientTransform="scale(0.95174097,1.0507061)"
       gradientUnits="userSpaceOnUse" /><radialGradient
       xlink:href="#linearGradient607"
       id="radialGradient1008"
       cx="313.82477"
       cy="539.38629"
       r="379.80884"
       fx="313.82477"
       fy="539.38629"
       gradientTransform="scale(0.96012139,1.041535)"
       gradientUnits="userSpaceOnUse" /><radialGradient
       xlink:href="#linearGradient615"
       id="radialGradient1011"
       cx="291.75925"
       cy="924.6814"
       r="15.59545"
       fx="291.75925"
       fy="924.6814"
       gradientTransform="scale(1.0831432,0.92323895)"
       gradientUnits="userSpaceOnUse" /><radialGradient
       xlink:href="#linearGradient615"
       id="radialGradient707"
       cx="233.73521"
       cy="1060.9792"
       r="22.172573"
       fx="233.73521"
       fy="1060.9792"
       gradientTransform="scale(1.2374116,0.80813857)"
       gradientUnits="userSpaceOnUse" /><radialGradient
       xlink:href="#linearGradient615"
       id="radialGradient725"
       cx="225.3437"
       cy="1013.0832"
       r="1.6626306"
       fx="225.3437"
       fy="1013.0832"
       gradientTransform="scale(1.1906631,0.83986816)"
       spreadMethod="reflect"
       gradientUnits="userSpaceOnUse" /><radialGradient
       xlink:href="#linearGradient615"
       id="radialGradient726"
       cx="209.39073"
       cy="1139.3365"
       r="9.9304304"
       fx="209.39073"
       fy="1139.3365"
       gradientTransform="scale(1.3509992,0.74019291)"
       spreadMethod="pad"
       gradientUnits="userSpaceOnUse" /><linearGradient
       xlink:href="#linearGradient860"
       id="linearGradient727"
       x1="588.14325"
       y1="485.37512"
       x2="764.90808"
       y2="587.56799"
       gradientTransform="matrix(0.94924566,0,0,1.0534681,-2.172231,-334.99625)"
       gradientUnits="userSpaceOnUse" /><radialGradient
       xlink:href="#linearGradient741"
       id="radialGradient736"
       cx="338.64481"
       cy="809.86591"
       r="4.3187079"
       fx="338.64481"
       fy="809.86591"
       gradientTransform="scale(0.94225925,1.061279)"
       gradientUnits="userSpaceOnUse" /><radialGradient
       xlink:href="#linearGradient615"
       id="radialGradient750"
       cx="347.15112"
       cy="685.49866"
       r="4.5858846"
       fx="347.15112"
       fy="685.49866"
       gradientTransform="scale(0.80860692,1.2366948)"
       spreadMethod="reflect"
       gradientUnits="userSpaceOnUse" /><linearGradient
       xlink:href="#linearGradient1869"
       id="linearGradient1865"
       x1="433.01944"
       y1="1224.4323"
       x2="451.51965"
       y2="891.26117"
       gradientTransform="matrix(1.405019,0,0,0.71173417,-2.172231,-334.99625)"
       gradientUnits="userSpaceOnUse" /><linearGradient
       xlink:href="#linearGradient860"
       id="linearGradient1866"
       x1="189.65794"
       y1="484.21964"
       x2="218.12627"
       y2="484.21964"
       gradientTransform="scale(1.3950314,0.71682973)"
       gradientUnits="userSpaceOnUse" /><radialGradient
       xlink:href="#linearGradient1869"
       id="radialGradient1867"
       cx="297.11755"
       cy="467.69482"
       r="24.412312"
       fx="297.11755"
       fy="467.69482"
       spreadMethod="pad"
       gradientTransform="scale(0.69870872,1.4312116)"
       gradientUnits="userSpaceOnUse" /><radialGradient
       xlink:href="#linearGradient1869"
       id="radialGradient1868"
       cx="194.36792"
       cy="507.68274"
       r="11.349926"
       fx="194.36792"
       fy="507.68274"
       gradientTransform="scale(1.3950314,0.71682973)"
       spreadMethod="reflect"
       gradientUnits="userSpaceOnUse" /><radialGradient
       xlink:href="#linearGradient1869"
       id="radialGradient2015"
       cx="426.48657"
       cy="316.5907"
       r="4.9298949"
       fx="426.48657"
       fy="316.5907"
       gradientTransform="scale(0.46488832,2.1510543)"
       gradientUnits="userSpaceOnUse" /><radialGradient
       xlink:href="#linearGradient2019"
       id="radialGradient2018"
       cx="113.27934"
       cy="1209.0844"
       r="8.6580029"
       fx="113.27934"
       fy="1209.0844"
       gradientTransform="scale(1.7251583,0.57965694)"
       gradientUnits="userSpaceOnUse" /><radialGradient
       inkscape:collect="always"
       xlink:href="#linearGradient615"
       id="radialGradient6628"
       gradientTransform="scale(0.98178262,1.0185554)"
       spreadMethod="reflect"
       cx="305.68793"
       cy="829.88074"
       fx="305.68793"
       fy="829.88074"
       r="7.7066426"
       gradientUnits="userSpaceOnUse" /><radialGradient
       inkscape:collect="always"
       xlink:href="#linearGradient615"
       id="radialGradient6630"
       gradientTransform="scale(0.9783645,1.0221139)"
       spreadMethod="reflect"
       cx="293.52878"
       cy="824.43237"
       fx="293.52878"
       fy="824.43237"
       r="8.7258511"
       gradientUnits="userSpaceOnUse" /><linearGradient
       inkscape:collect="always"
       xlink:href="#linearGradient615"
       id="linearGradient6632"
       x1="329.91391"
       y1="812.75153"
       x2="340.58121"
       y2="812.75153"
       gradientTransform="scale(0.95174097,1.0507061)"
       gradientUnits="userSpaceOnUse" /><radialGradient
       inkscape:collect="always"
       xlink:href="#linearGradient741"
       id="radialGradient6634"
       gradientTransform="scale(0.94225925,1.061279)"
       cx="338.64481"
       cy="809.86591"
       fx="338.64481"
       fy="809.86591"
       r="4.3187079"
       gradientUnits="userSpaceOnUse" /><radialGradient
       inkscape:collect="always"
       xlink:href="#linearGradient1869"
       id="radialGradient6636"
       gradientTransform="scale(3.5319288,0.28313141)"
       spreadMethod="reflect"
       cx="76.716866"
       cy="1281.8726"
       fx="76.716866"
       fy="1281.8726"
       r="4.4489985"
       gradientUnits="userSpaceOnUse" /><linearGradient
       inkscape:collect="always"
       xlink:href="#linearGradient860"
       id="linearGradient6638"
       gradientTransform="scale(3.5319288,0.28313141)"
       x1="74.870628"
       y1="1272.6753"
       x2="86.029778"
       y2="1272.6753"
       gradientUnits="userSpaceOnUse" /><radialGradient
       inkscape:collect="always"
       xlink:href="#linearGradient1869"
       id="radialGradient6640"
       gradientTransform="scale(1.7615798,0.56767226)"
       spreadMethod="reflect"
       cx="154.65848"
       cy="644.48175"
       fx="154.65848"
       fy="644.48175"
       r="7.9803953"
       gradientUnits="userSpaceOnUse" /><linearGradient
       inkscape:collect="always"
       xlink:href="#linearGradient860"
       id="linearGradient6642"
       gradientTransform="scale(1.7615798,0.56767226)"
       x1="151.34679"
       y1="627.98431"
       x2="171.36353"
       y2="627.98431"
       gradientUnits="userSpaceOnUse" /><radialGradient
       inkscape:collect="always"
       xlink:href="#linearGradient1869"
       id="radialGradient6644"
       gradientTransform="scale(2.3223044,0.43060677)"
       spreadMethod="reflect"
       cx="116.65237"
       cy="822.50458"
       fx="116.65237"
       fy="822.50458"
       r="5.7935057"
       gradientUnits="userSpaceOnUse" /><linearGradient
       inkscape:collect="always"
       xlink:href="#linearGradient860"
       id="linearGradient6646"
       gradientTransform="scale(2.3223044,0.43060677)"
       x1="114.2482"
       y1="810.52795"
       x2="128.77969"
       y2="810.52795"
       gradientUnits="userSpaceOnUse" /><radialGradient
       inkscape:collect="always"
       xlink:href="#linearGradient1869"
       id="radialGradient6648"
       gradientTransform="scale(2.1600487,0.46295253)"
       spreadMethod="reflect"
       cx="125.2176"
       cy="764.33087"
       fx="125.2176"
       fy="764.33087"
       r="6.5790958"
       gradientUnits="userSpaceOnUse" /><linearGradient
       inkscape:collect="always"
       xlink:href="#linearGradient860"
       id="linearGradient6650"
       gradientTransform="scale(2.1600487,0.46295253)"
       x1="122.48742"
       y1="750.73029"
       x2="138.98936"
       y2="750.73029"
       gradientUnits="userSpaceOnUse" /><radialGradient
       inkscape:collect="always"
       xlink:href="#linearGradient1869"
       id="radialGradient6652"
       gradientTransform="scale(2.3344341,0.42836934)"
       spreadMethod="reflect"
       cx="116.18181"
       cy="826.28571"
       fx="116.18181"
       fy="826.28571"
       r="5.8717489"
       gradientUnits="userSpaceOnUse" /><linearGradient
       inkscape:collect="always"
       xlink:href="#linearGradient860"
       id="linearGradient6654"
       gradientTransform="scale(2.3344341,0.42836934)"
       x1="113.74517"
       y1="814.14734"
       x2="128.47292"
       y2="814.14734"
       gradientUnits="userSpaceOnUse" /><radialGradient
       inkscape:collect="always"
       xlink:href="#linearGradient1869"
       id="radialGradient6656"
       gradientTransform="scale(2.0170405,0.49577587)"
       spreadMethod="reflect"
       cx="134.81863"
       cy="719.46484"
       fx="134.81863"
       fy="719.46484"
       r="7.0756555"
       gradientUnits="userSpaceOnUse" /><linearGradient
       inkscape:collect="always"
       xlink:href="#linearGradient860"
       id="linearGradient6658"
       gradientTransform="scale(2.0170405,0.49577587)"
       x1="131.88239"
       y1="704.83771"
       x2="149.62982"
       y2="704.83771"
       gradientUnits="userSpaceOnUse" /><radialGradient
       inkscape:collect="always"
       xlink:href="#linearGradient1869"
       id="radialGradient6660"
       gradientTransform="scale(1.5733012,0.6356062)"
       spreadMethod="reflect"
       cx="173.30307"
       cy="574.86804"
       fx="173.30307"
       fy="574.86804"
       r="8.9305391"
       gradientUnits="userSpaceOnUse" /><linearGradient
       inkscape:collect="always"
       xlink:href="#linearGradient860"
       id="linearGradient6662"
       gradientTransform="scale(1.5733012,0.6356062)"
       x1="169.59711"
       y1="556.40637"
       x2="191.99702"
       y2="556.40637"
       gradientUnits="userSpaceOnUse" /><radialGradient
       inkscape:collect="always"
       xlink:href="#linearGradient1869"
       id="radialGradient6664"
       gradientTransform="scale(2.0561998,0.48633405)"
       spreadMethod="reflect"
       cx="131.9351"
       cy="736.72266"
       fx="131.9351"
       fy="736.72266"
       r="6.9456954"
       gradientUnits="userSpaceOnUse" /><linearGradient
       inkscape:collect="always"
       xlink:href="#linearGradient860"
       id="linearGradient6666"
       gradientTransform="scale(2.0561998,0.48633405)"
       x1="129.0528"
       y1="722.36414"
       x2="146.47426"
       y2="722.36414"
       gradientUnits="userSpaceOnUse" /><radialGradient
       inkscape:collect="always"
       xlink:href="#linearGradient1869"
       id="radialGradient6668"
       gradientTransform="scale(2.0245588,0.49393478)"
       spreadMethod="reflect"
       cx="134.07718"
       cy="735.90454"
       fx="134.07718"
       fy="735.90454"
       r="7.0287633"
       gradientUnits="userSpaceOnUse" /><linearGradient
       inkscape:collect="always"
       xlink:href="#linearGradient860"
       id="linearGradient6670"
       gradientTransform="scale(2.0245588,0.49393478)"
       x1="131.1604"
       y1="721.37433"
       x2="148.79022"
       y2="721.37433"
       gradientUnits="userSpaceOnUse" /><radialGradient
       inkscape:collect="always"
       xlink:href="#linearGradient1869"
       id="radialGradient6672"
       gradientTransform="scale(2.3531173,0.42496819)"
       spreadMethod="reflect"
       cx="115.2545"
       cy="852.92169"
       fx="115.2545"
       fy="852.92169"
       r="6.2408519"
       gradientUnits="userSpaceOnUse" /><linearGradient
       inkscape:collect="always"
       xlink:href="#linearGradient860"
       id="linearGradient6674"
       gradientTransform="scale(2.3531173,0.42496819)"
       x1="112.66468"
       y1="840.02032"
       x2="128.31824"
       y2="840.02032"
       gradientUnits="userSpaceOnUse" /><radialGradient
       inkscape:collect="always"
       xlink:href="#linearGradient1869"
       id="radialGradient6676"
       gradientTransform="scale(2.6851307,0.37242135)"
       spreadMethod="reflect"
       cx="101.94411"
       cy="976.72687"
       fx="101.94411"
       fy="976.72687"
       r="4.7712379"
       gradientUnits="userSpaceOnUse" /><linearGradient
       inkscape:collect="always"
       xlink:href="#linearGradient860"
       id="linearGradient6678"
       gradientTransform="scale(2.6851307,0.37242135)"
       x1="99.964149"
       y1="966.86353"
       x2="111.93155"
       y2="966.86353"
       gradientUnits="userSpaceOnUse" /><radialGradient
       inkscape:collect="always"
       xlink:href="#linearGradient1869"
       id="radialGradient6680"
       gradientTransform="scale(2.1727237,0.4602518)"
       spreadMethod="reflect"
       cx="124.73125"
       cy="780.74304"
       fx="124.73125"
       fy="780.74304"
       r="6.3089318"
       gradientUnits="userSpaceOnUse" /><linearGradient
       inkscape:collect="always"
       xlink:href="#linearGradient860"
       id="linearGradient6682"
       gradientTransform="scale(2.1727237,0.4602518)"
       x1="122.11318"
       y1="767.70093"
       x2="137.93748"
       y2="767.70093"
       gradientUnits="userSpaceOnUse" /><radialGradient
       inkscape:collect="always"
       xlink:href="#linearGradient1869"
       id="radialGradient6684"
       spreadMethod="pad"
       cx="295.02893"
       cy="449.6582"
       fx="295.02893"
       fy="449.6582"
       r="23.825684"
       gradientTransform="scale(0.67205581,1.4879717)"
       gradientUnits="userSpaceOnUse" /></defs><sodipodi:namedview
     id="base"
     showgrid="false"
     units="px"
     fit-margin-top="0"
     fit-margin-left="0"
     fit-margin-right="0"
     fit-margin-bottom="0"
     inkscape:zoom="1.7940591"
     inkscape:cx="797.89362"
     inkscape:cy="325.08299"
     inkscape:window-width="3200"
     inkscape:window-height="1679"
     inkscape:window-x="0"
     inkscape:window-y="0"
     inkscape:window-maximized="1"
     inkscape:current-layer="svg602" /><rect
     style="font-size:12px;fill:url(#linearGradient610);fill-rule:evenodd;stroke-width:1"
     id="rect606"
     width="737.6687"
     height="571.86237"
     x="1.2115762"
     y="0" /><path
     style="font-size:12px;fill:url(#linearGradient614);fill-rule:evenodd"
     d="m 38.770459,360.14535 -37.558883,211.717 737.668694,0 0,-216.5633 -23.0522,-3.5891 -23.0522,0 -23.0521,3.5891 -23.0522,3.589 -23.0521,-3.589 -46.1043,0 -23.0521,4.7854 -23.0522,-4.7854 c -18.7713,2.8765 -44.3101,-6.9362 -49.5461,-18.4409 -7.1034,3.7342 -13.4239,3.6015 -18.812,2.3927 -3.0071,2.9608 -23.5843,20.0001 -62.5444,13.6555 l -98.4225,-3.5891 -23.0522,0 -26.7864,7.2507 c -7.3647,-5.5166 -19.454,-5.6363 -26.5628,-3.3603 -25.6595,8.0798 -20.1087,8.0021 -29.6246,4.026 l -44.4519,6.5769 -20.6289,-3.6652 -24.2485,-2.3928 -23.052181,0 -21.85579,2.3928 -23.05214,0 z"
     id="path620"
     sodipodi:nodetypes="ccccccccccccccccccsccccccc"
     inkscape:connector-curvature="0" /><path
     style="font-size:12px;fill:url(#radialGradient618);fill-rule:evenodd"
     d="m 84.280229,357.77855 c -21.49126,-5.5653 -40.18202,-9.4727 -50.73476,-4.7335 -12.01286,5.3949 -30.365122,0.4978 -32.561105,4.9591 C -1.211619,362.46545 2.195981,567.40105 0,571.86235 l 738.88027,0 0,-216.5633 -23.0522,-3.5891 -23.0522,0 -23.0521,3.5891 -23.0522,3.589 -23.0521,-3.589 -46.1043,0 -23.0521,4.7854 -23.0522,-4.7854 -17.1595,-2.3927 c -17.2548,1.1963 -26.1353,-25.1234 -37.4084,-14.3562 -1.5222,39.0809 -47.3096,61.4128 -76.3479,87.3338 -29.0385,25.921 -9.3002,103.6935 -93.8829,104.8334 -72.7388,1.0125 -68.3434,-122.7072 57.2334,-74.9245 10.84,-48.6517 110.2104,-85.3399 100.7124,-117.2427 -10.8743,0 -35.6819,9.6433 -39.8011,14.3562 -3.0071,2.9608 -16.5886,-0.423 -24.2485,0 l 6.9846,-1.1659 -23.0522,0 -24.2485,5.9817 c -10.0767,-6.3805 -26.1353,-16.3501 -37.4084,-4.7854 1.8868,20.3382 -2.2081,50.247 -12.285,55.0324 -9.1169,3.2472 -19.9195,3.2172 -29.0338,0 -11.6995,-5.3262 -11.3803,-33.4979 -9.8923,-57.425 -6.4877,-9.9697 -17.7608,-6.7794 -26.6412,-1.1964 l -23.0522,5.9817 -41.2427,0 -29.1574,3.6042 c -26.6547,-9.6925 -57.643661,1.3192 -67.199041,-1.1551 z"
     id="path619"
     sodipodi:nodetypes="csccccccccccccccssccccccccsscccccs"
     inkscape:connector-curvature="0" /><ellipse
     style="fill:#808080;fill-opacity:1;fill-rule:evenodd;stroke:none;stroke-width:1pt;stroke-linecap:butt;stroke-linejoin:miter;stroke-opacity:1"
     id="path718"
     cx="278.52298"
     cy="509.79807"
     rx="0"
     ry="0.89724731" /><g
     id="g755"
     transform="matrix(0.999476,-0.03235519,0.03235519,0.999476,-23.802521,-328.77725)"><path
       style="font-size:12px;fill:url(#radialGradient707);fill-rule:evenodd;stroke-width:1"
       d="m 321.4312,855.4672 c 0,8.9937 -16.1921,9.094 -28.7719,9.094 -12.5798,0 -17.8918,-2.3134 -17.8918,-11.3072 0,-8.9937 5.312,-19.1683 17.8918,-19.1683 12.5798,0 28.7719,12.3878 28.7719,21.3815 z"
       id="path703"
       sodipodi:nodetypes="ccccc"
       inkscape:connector-curvature="0" /><path
       style="font-size:12px;fill:url(#radialGradient1011);fill-rule:evenodd;stroke-width:1"
       d="m 321.6868,852.2297 c 1.0222,6.1055 -3.5388,11.9573 -10.1874,13.0704 -6.6486,1.1132 -15.3179,0.9074 -16.3401,-5.1981 -1.0223,-6.1055 5.9897,-15.7985 12.6382,-16.9117 6.6487,-1.1132 12.867,2.9338 13.8893,9.0394 z"
       id="path705"
       sodipodi:nodetypes="ccccc"
       inkscape:connector-curvature="0" /><path
       style="font-size:12px;fill:none;fill-rule:evenodd;stroke:#000000;stroke-width:1;stroke-linecap:round"
       d="m 306.3124,849.872 c 0.6506,2.1783 3.1775,2.7559 5.0777,2.1518"
       id="path708"
       sodipodi:nodetypes="cc"
       inkscape:connector-curvature="0" /><path
       style="font-size:12px;fill:none;fill-rule:evenodd;stroke:#000000;stroke-width:1;stroke-linecap:round"
       d="m 308.9026,862.7806 c -0.0943,-2.2715 2.1066,-3.6407 4.1,-3.6885"
       id="path709"
       sodipodi:nodetypes="cc"
       inkscape:connector-curvature="0" /><path
       transform="matrix(0,-1,1,0,-544.2845,1144.855)"
       style="font-size:12px;fill:url(#radialGradient6628);fill-rule:evenodd"
       d="m 307.6133,850.4022 c -0.9793,1.6757 -2.3573,5.3112 -4.7854,1.5703 -2.6655,-4.4864 -11.0599,-10.0951 -10.3187,-11.8889 2.6918,-6.876 5.8587,2.0188 10.4682,1.2711 4.4599,0 5.8323,7.2561 4.6359,9.0475 z"
       id="path716"
       sodipodi:nodetypes="csscs"
       inkscape:connector-curvature="0" /><path
       style="font-size:12px;fill:url(#radialGradient6630);fill-rule:evenodd"
       d="m 296.0983,841.0556 c 0,3.7992 -2.4414,11.0663 -7.8511,11.0663 -5.4097,0 -9.1971,-3.3791 -9.1971,-7.1781 0,-1.8996 -1.1647,-2.1242 0.0249,-4.4826 0.4632,-0.7686 1.7142,-5.2576 7.5272,-6.4341 6.6234,-1.376 9.4961,3.2293 9.4961,7.0285 z"
       id="path714"
       sodipodi:nodetypes="cccssc"
       inkscape:connector-curvature="0" /><path
       style="font-size:12px;fill:url(#radialGradient726);fill-rule:evenodd"
       d="m 293.4497,845.6021 c 1.3325,4.0224 -2.7147,6.7708 -7.1173,4.9231 -5.3773,-2.1315 -7.8799,-1.2547 -9.2125,-5.277 -1.3325,-4.0221 2.7874,-3.7796 7.3964,-2.6274 4.7911,1.3313 7.6008,-1.0408 8.9334,2.9813 z"
       id="path719"
       sodipodi:nodetypes="cscsc"
       inkscape:connector-curvature="0" /><ellipse
       style="font-size:12px;fill:url(#radialGradient750);fill-rule:evenodd"
       id="path720"
       transform="translate(-0.722065,-0.568115)"
       cx="280.76999"
       cy="847.93469"
       rx="3.813385"
       ry="5.8322449" /><path
       style="font-size:12px;fill:url(#radialGradient725);fill-rule:evenodd;stroke-width:1"
       d="m 306.3806,858.565 c 0,5.1909 -5.6226,6.6398 -13.3812,6.6398 -15.0251,0 -37.8394,-11.2792 -15.6853,-26.4732 7.7985,-3.6388 -3.9479,12.5035 15.8626,12.1587 8.9991,0.1725 13.2039,2.4836 13.2039,7.6747 z"
       id="path712"
       sodipodi:nodetypes="ccccc"
       inkscape:connector-curvature="0" /><g
       id="g744"><path
         style="font-size:12px;fill:url(#linearGradient6632);fill-rule:evenodd;stroke-width:1"
         d="m 314.9506,864.1285 c -2.74,-1.8456 1.0868,-2.4163 2.8862,-5.0878 1.7995,-2.6716 0.8904,-6.4322 3.6303,-4.5867 2.7401,1.8457 3.5026,5.5075 1.703,8.1791 -1.7993,2.6715 -5.4794,3.3411 -8.2195,1.4954 z"
         id="path739"
         sodipodi:nodetypes="ccccc"
         inkscape:connector-curvature="0" /><path
         style="font-size:12px;fill:url(#radialGradient6634);fill-opacity:1;fill-rule:evenodd;stroke-width:1"
         d="m 315.6786,863.3981 c -2.2557,-1.55 0.8946,-2.0293 2.376,-4.2732 1.4814,-2.2438 0.733,-5.4022 2.9886,-3.8523 2.2558,1.5503 2.8835,4.6257 1.402,6.8696 -1.4813,2.2438 -4.5109,2.8062 -6.7666,1.2559 z"
         id="path740"
         sodipodi:nodetypes="ccccc"
         inkscape:connector-curvature="0" /></g><g
       id="g747"
       transform="matrix(-0.180463,-0.983582,0.983582,-0.180463,-474.9367,1312.666)"><path
         style="font-size:12px;fill:url(#linearGradient1007);fill-rule:evenodd;stroke-width:1"
         d="m 314.9506,864.1285 c -2.74,-1.8456 1.0868,-2.4163 2.8862,-5.0878 1.7995,-2.6716 0.8904,-6.4322 3.6303,-4.5867 2.7401,1.8457 3.5026,5.5075 1.703,8.1791 -1.7993,2.6715 -5.4794,3.3411 -8.2195,1.4954 z"
         id="path748"
         sodipodi:nodetypes="ccccc"
         inkscape:connector-curvature="0" /><path
         style="font-size:12px;fill:url(#radialGradient736);fill-opacity:1;fill-rule:evenodd;stroke-width:1"
         d="m 315.6786,863.3981 c -2.2557,-1.55 0.8946,-2.0293 2.376,-4.2732 1.4814,-2.2438 0.733,-5.4022 2.9886,-3.8523 2.2558,1.5503 2.8835,4.6257 1.402,6.8696 -1.4813,2.2438 -4.5109,2.8062 -6.7666,1.2559 z"
         id="path749"
         sodipodi:nodetypes="ccccc"
         inkscape:connector-curvature="0" /></g></g><g
     id="g2829"
     transform="matrix(1.812157,0.100268,-0.05996693,0.907435,-191.76433,169.93785)"
     style="fill:url(#radialGradient1868);stroke:url(#linearGradient1866)"><path
       style="font-size:12px;fill:url(#radialGradient6636);fill-rule:evenodd;stroke:url(#linearGradient6638);stroke-linecap:round"
       d="m 264.9441,362.1927 c 1.8775,-0.939 3.8892,1.3129 6.1035,0.6882 7.0219,-1.9815 3.1545,-3.0694 10.2025,-0.7088 4.1503,1.3901 18.2704,-2.7675 22.0947,-0.6688"
       id="path1554"
       transform="translate(0.441952,-3.051758e-5)"
       inkscape:connector-curvature="0" /><ellipse
       style="font-size:12px;fill:url(#radialGradient6640);fill-rule:evenodd;stroke:url(#linearGradient6642);stroke-width:1"
       id="path992"
       transform="matrix(1,0,0,1.79592,-1.374703,-293.1232)"
       cx="284.23999"
       cy="362.17078"
       rx="17.130539"
       ry="5.1814728" /><path
       style="font-size:12px;fill:url(#radialGradient6644);fill-rule:evenodd;stroke:url(#linearGradient6646);stroke-linecap:round"
       d="m 265.8252,354.7725 c 4.3082,-2.5964 3.0308,-2.5088 5.9082,-4.9777 6.8007,-0.2283 10.4085,-0.9555 14.1419,1.5452 3.4874,1.7034 8.8598,3.3289 12.6841,1.2303"
       id="path997"
       sodipodi:nodetypes="cccc"
       inkscape:connector-curvature="0" /><path
       style="font-size:12px;fill:url(#radialGradient6648);fill-rule:evenodd;stroke:url(#linearGradient6650);stroke-linecap:round"
       d="m 265.0849,354.138 c 4.3082,-2.5965 8.7411,-2.9319 11.6184,-6.0352 6.5893,1.4636 11.466,0.102 15.1994,2.6027 3.4874,1.7034 6.5334,-3.2272 7.8198,3.9796"
       id="path995"
       sodipodi:nodetypes="cccc"
       inkscape:connector-curvature="0" /><path
       style="font-size:12px;fill:url(#radialGradient6652);fill-rule:evenodd;stroke:url(#linearGradient6654);stroke-linecap:round"
       d="m 266.0367,354.561 c 4.3081,-2.5964 8.1066,0.2406 6.7541,-3.7087 6.8008,-0.2284 13.1579,-3.0704 16.8913,-0.5697 3.4874,1.7034 5.8989,4.1749 9.7232,2.0762"
       id="path998"
       sodipodi:nodetypes="cccc"
       inkscape:connector-curvature="0" /><path
       style="font-size:12px;fill:url(#radialGradient6656);fill-rule:evenodd;stroke:url(#linearGradient6658);stroke-linecap:round"
       d="m 301.3087,357.7332 c -0.9244,-9.7871 -11.9134,-5.0467 -14.7907,-7.5157 -6.8008,-0.2282 -9.3511,-0.9553 -13.0845,1.5454 -3.4874,1.7034 -7.8023,-0.0549 -6.7624,5.46"
       id="path994"
       sodipodi:nodetypes="cccc"
       inkscape:connector-curvature="0" /><path
       transform="matrix(0.978395,0,0,0.846944,5.55949,54.85081)"
       style="font-size:12px;fill:url(#radialGradient6660);fill-rule:evenodd;stroke:url(#linearGradient6662);stroke-opacity:1"
       d="m 300.9382,354.6795 c 3.3505,9.4789 -7.2373,12.6727 -16.6982,12.6727 -9.4609,0 -19.0759,1.3009 -16.482,-12.2982 0.4323,2.6319 6.805,3.4335 16.2659,3.4335 9.4608,0 13.6719,0.3221 16.9143,-3.808 z"
       id="path1024"
       sodipodi:nodetypes="ccccc"
       inkscape:connector-curvature="0" /><path
       style="font-size:12px;fill:url(#radialGradient6664);fill-rule:evenodd;stroke:url(#linearGradient6666);stroke-linecap:round"
       d="m 271.7468,351.8116 c -11.5534,2.0564 -3.1023,8.9116 -0.225,6.4427 6.8008,-0.2283 9.5626,-2.0129 13.296,0.4878 3.4874,1.7034 12.0321,-1.1123 15.8563,-3.211"
       id="path999"
       sodipodi:nodetypes="cccc"
       inkscape:connector-curvature="0" /><path
       style="font-size:12px;fill:url(#radialGradient6668);fill-rule:evenodd;stroke:url(#linearGradient6670);stroke-linecap:round"
       d="m 266.049,361.3857 c 7.1808,0.939 7.2037,4.4323 9.6391,2.6263 6.8008,-0.2283 8.4577,-0.2451 13.296,0.4878 3.2664,-1.8321 9.2704,-11.0807 11.7471,-6.3644"
       id="path1610"
       sodipodi:nodetypes="cccc"
       transform="translate(0.441952,-3.051758e-5)"
       inkscape:connector-curvature="0" /><path
       style="font-size:12px;fill:url(#radialGradient6672);fill-rule:evenodd;stroke:url(#linearGradient6674);stroke-linecap:round"
       d="m 265.79,359.2318 c -1.0833,3.9253 3.0433,4.2738 5.2576,3.6491 7.0219,-1.9815 3.1545,-3.0694 10.2025,-0.7088 4.1503,1.3901 16.5785,-2.979 20.1913,-4.6871"
       id="path1611"
       transform="translate(0.441952,-3.051758e-5)"
       sodipodi:nodetypes="cccc"
       inkscape:connector-curvature="0" /><path
       style="font-size:12px;fill:url(#radialGradient6676);fill-rule:evenodd;stroke:url(#linearGradient6678);stroke-linecap:round"
       d="m 268.9217,362.2695 c 4.5291,-4.8061 10.7392,2.2225 15.1634,1.7425 5.9169,-0.007 7.1319,-3.5598 9.5395,-3.0478 3.7083,1.9244 5.5613,4.3049 6.4247,0.3027"
       id="path1612"
       sodipodi:nodetypes="cccc"
       transform="translate(0.441952,-3.051758e-5)"
       inkscape:connector-curvature="0" /><path
       style="font-size:12px;fill:url(#radialGradient6680);fill-rule:evenodd;stroke:url(#linearGradient6682);stroke-linecap:round"
       d="m 265.8251,356.0414 c 5.1542,-1.3275 11.9134,5.7393 14.7907,3.2704 6.8008,-0.2283 9.9856,-2.0129 13.719,0.4878 3.4874,1.7034 1.0347,-3.8617 4.859,-5.9604"
       id="path1613"
       sodipodi:nodetypes="cccc"
       inkscape:connector-curvature="0" /></g><path
     style="font-size:12px;fill:url(#linearGradient727);fill-rule:evenodd"
     d="m 522.51057,48.541354 c -1.2396,-0.306 5.0633,46.0492 4.0329,57.251496 -0.4993,4.5174 -19.3469,-9.296096 -41.0629,-15.886196 -16.4573,-4.479 41.0101,23.622196 44.995,26.348296 11.4493,21.5237 45.4929,63.8184 68.214,76.2349 11.2948,7.3509 21.5265,20.1321 20.5443,33.8937 l -3.9532,127.2542 c -0.1165,16.1848 55.2312,8.6911 55.3009,1.7546 l 0.9924,-132.663 c -0.1862,-8.6195 10.061,-20.3907 20.4034,-35.1977 6.4213,-7.9822 52.7962,1.7586 71.1258,-20.8551 -20.3309,15.2252 -59.612,9.2615 -60.4588,7.294 -0.4845,-1.4986 17.233,-13.9034 40.3324,-34.9322 5.775,-5.2572 36.9723,6.6451 66.3055,-28.1331 -25.4001,26.6843 -73.8996,30.8222 -54.3457,11.6452 19.6009,-12.0648 36.0856,-34.492996 39.1302,-49.594496 -5.4645,10.0687 -21.9418,37.089896 -37.5162,44.171496 -4.9871,2.0819 -3.3968,-55.015496 -4.3794,-65.854296 -3.7029,16.9009 -0.28,60.948996 -0.5075,64.799696 -0.6206,10.8358 -15.1831,18.7768 -17.2006,21.2753 -1.9514,2.1045 -7.6889,-27.6066 1.3452,-54.392996 -6.6271,6.8591 -8.1508,43.977696 -7.8542,57.510896 0.0843,3.9365 -8.7467,10.2893 -11.0182,10.6647 -13.354,2.8497 -5.6599,-47.2783 -8.8959,-40.8087 -3.2359,6.4698 -2.4455,39.3174 4.2514,45.1595 -2.8467,2.9851 -14.2367,10.3859 -20.5423,15.9065 -4.4783,3.5989 3.7053,-44.5538 -0.9413,-39.4984 -2.2241,2.7417 2.1155,38.4159 -16.1793,56.9616 -2.9264,2.8682 -7.2742,4.9635 -12.3212,1.5259 -7.6656,-4.5544 4.0695,-49.9255 6.9584,-59.2261 3.5889,-7.9203 42.9049,-19.6004 69.7168,-64.703796 -23.3655,25.797 -34.1731,37.280996 -45.7782,42.139396 -5.2868,2.0629 40.1081,-93.871996 28.0036,-92.363396 0.0511,3.545 -2.5488,19.3004 -13.6668,45.193 -0.7609,1.821 -15.2911,-26.7495 -14.8445,-47.2732 -6.4325,16.8044 14.204,47.6358 12.0819,52.9793 -8.4885,21.3738 -17.4224,41.686296 -19.1015,44.530896 -4.7622,6.4446 -15.3865,8.7481 -15.0903,7.6226 0.8317,-11.0546 10.3054,-52.497596 8.8287,-76.155396 -3.1854,29.7042 -10.0043,77.601996 -14.2421,74.405996 -10.7566,-7.7934 -16.7152,-46.830796 -18.3515,-53.191296 -1.0702,-5.6106 15.6483,-16.5415 19.8485,-62.3711003 -5.0482,30.0384003 -19.4646,63.4625003 -22.6341,49.3941003 -4.0155,-13.6134 -6.7753,-31.4467 -7.9093,-50.1052003 -5.1775,-8.7328 6.0033,84.7704003 24.8169,124.5887963 0.1399,4.5529 -2.869,10.1471 -4.4053,15.372 -1.1671,3.5139 -5.7307,-7.3677 -10.3324,-17.9371 -4.6017,-10.5693 -9.2413,-20.8263 -10.5603,-16.0625 -0.6695,2.1833 3.9353,11.7332 8.3545,21.8542 4.4193,10.121 8.653,20.8131 7.2415,25.2803 -2.8231,8.9344 -7.6772,30.219 -8.8584,30.219 -2.1762,-0.2314 -11.5869,-33.8296 -14.1601,-58.9766 -2.6481,-26.816596 13.8848,-32.381696 9.45,-75.273496 -1.574,8.6094 -0.1437,20.1249 -2.6332,27.5811 -0.6126,1.7555 -9.1522,2.9823 -19.0546,-47.1539 1.5959,36.4034 17.2313,52.1015 16.5305,54.5626 -2.803,9.8444 -7.4083,18.066996 -8.7928,15.283396 -14.9626,-29.934196 -16.9566,-64.483296 -17.8453,-93.1168963 -1.0755,0.282 -2.0913,35.3403003 0.5441,45.9454003 0.7225,2.4519 -34.1066,-19.3431 -32.1906,-45.7699003 -8.6584,27.2729003 29.618,43.3476003 32.0083,54.5112003 2.3903,11.1639 16.2679,47.451896 13.3758,67.823196 -1.3753,8.4511 -24.869,-17.0571 -25.2152,-13.4284 0.2177,6.5859 20.6336,19.1079 24.7413,24.0477 4.4474,4.4381 9.0242,51.2907 1.0833,49.0805 -1.9261,-3.4103 -29.0131,-19.3282 -37.001,-25.106 -7.988,-5.7778 18.6565,-59.1514 14.3096,-85.852296 -4.2241,30.316996 -10.4772,50.252896 -12.2714,50.275896 -1.6136,0.3102 -15.8679,-8.1549 -17.9987,-31.295596 -4.5451,18.580496 14.8882,32.580796 15.9532,35.286396 0.5003,2.0311 -3.7945,23.8234 -8.6924,24.4879 -2.9302,-0.5126 -19.629,-17.5475 -20.5016,-22.5928 -0.5275,-2.595 5.8272,-26.8199 3.6986,-38.053296 -0.4115,-2.6008 31.8393,-34.7091 32.5978,-47.9234 -5.469,10.3158 -30.8118,43.5537 -34.7181,43.4626 -4.0856,-0.0784 -8.2209,-35.1969 -5.795,-51.0524 -7.0106,7.2991 -1.4274,46.8575 0.7808,51.3309 6.3955,16.025796 0.4861,34.874996 -2.6576,35.320196 -5.7717,0.8774 -14.9231,-15.5922 -15.7345,-18.6162 -4.586,-19.662796 -7.241,-59.954396 -9.684,-60.814096 z"
     id="path2007"
     sodipodi:nodetypes="csscsccccscsscccscsscssscssscscscscssscsscsccssssscscscsccscsssscscscsssscscsssc"
     inkscape:connector-curvature="0" /><path
     style="font-size:12px;fill:url(#linearGradient1865);fill-rule:evenodd"
     d="m 775.18657,427.97895 c -45.7179,-11.4381 -36.9258,-43.0384 -76.7812,-64.8595 -11.6826,-6.1452 -21.5264,-4.1477 -26.5411,-8.7996 l -56.6238,-0.0305 c 0.1862,6.298 -11.7743,0.5329 -22.1167,14.2953 -6.4214,7.419 -126.0534,18.7542 -144.3831,39.7725 20.331,-14.1509 132.8693,-28.9969 133.716,-27.1682 0.4846,1.3929 -12.9494,16.3493 -36.0489,35.8945 -5.775,4.8863 -107.2435,13.2089 -136.5767,45.5334 25.4001,-24.8016 144.1709,-48.0328 124.6169,-30.2088 -19.6009,11.2136 -116.0494,82.9456 -119.0939,96.9816 5.4644,-9.3583 101.9055,-85.3592 117.4799,-91.9412 4.9871,-1.935 -40.2199,53.5573 -39.2372,63.6313 3.7029,-15.7084 43.8967,-59.072 44.1241,-62.6511 0.6206,-10.0713 15.1832,-17.452 17.2007,-19.7743 1.9514,-1.956 -11.6962,28.0821 -20.7303,52.9787 12.6239,-24.3662 17.2554,-39.0147 26.3826,-58.4467 1.4885,-3.3434 7.8899,-9.5635 10.1614,-9.9123 13.354,-2.6487 7.3734,46.5129 10.6094,40.4997 3.236,-6.0133 0.7322,-40.8271 -5.9648,-46.2569 2.8466,-2.7746 11.6665,-8.7965 17.9721,-13.9276 4.4784,-3.345 0.5783,44.8373 5.2249,40.1385 2.2241,-2.5482 -6.399,-42.5592 12.7524,-52.0861 3.4801,-1.8868 10.7011,-5.47 15.7481,-2.275 7.6656,4.2331 -4.0695,46.4032 -6.9584,55.0476 -3.5889,7.3615 -76.1444,29.1826 -86.6788,77.1009 15.6551,-38.5411 40.023,-49.3367 66.167,-61.2687 5.1784,-2.1937 -27.7948,48.8442 -60.2394,92.8478 30.862,-38.4411 40,-46.2275 39.9056,-52.4322 -0.065,-5.1359 17.8613,33.4294 17.4147,52.5051 6.4325,-15.6188 -14.728,-53.9571 -12.0819,-58.6654 10.202,-17.2957 15.709,-31.0348 20.8149,-36.2489 5.7605,-5.0373 13.6731,-3.8473 13.3769,-2.8012 -0.8317,10.2747 -10.3054,48.7938 -8.8288,70.7825 3.1855,-27.6085 10.0044,-72.127 14.2422,-69.1565 10.7566,7.2435 16.7152,43.5268 18.3515,49.4385 1.0702,5.2148 -23.3587,-0.0463 -27.5589,42.55 5.0482,-27.9192 27.175,-43.5644 30.3445,-30.4885 4.0155,12.6529 7.632,25.8013 21.6166,38.8598 -21.3805,-24.4383 -19.7106,-71.0793 -38.5242,-108.0885 -0.1398,-4.2316 2.869,-9.4312 4.4053,-14.2874 1.1671,-3.266 5.7307,6.8479 10.3324,16.6716 4.6017,9.8236 6.625,4.0238 2.2058,-5.3831 -4.4193,-9.407 -8.653,-19.3447 -7.2415,-23.4967 2.823,-8.3041 7.6772,-28.087 8.8584,-28.087 2.1762,0.215 23.5808,28.016 26.154,51.3888 2.6481,24.9246 -25.8787,33.524 -21.4439,73.3897 1.574,-8.002 0.1437,-18.7051 2.6332,-25.6352 0.6127,-1.6317 9.1522,-2.7719 19.0546,43.8271 -1.5959,-33.8351 -14.6611,-47.569 -13.9603,-49.8564 2.803,-9.1499 12.5484,-25.3595 13.933,-22.7723 6.3954,17.5418 9.2462,67.6443 10.1349,94.2578 1.0755,-0.2621 2.0913,-32.847 -0.5441,-42.7039 -0.7225,-2.2789 41.817,17.1217 39.901,41.6841 8.6584,-25.3488 -37.3284,-39.4327 -39.7187,-49.8087 -2.3903,-10.3762 -4.274,-47.5309 -1.382,-66.4649 1.3755,-7.855 17.9237,-8.1425 25.2153,12.481 -2.7878,-23.2556 -20.6337,-17.7598 -24.7413,-22.3512 -4.4473,-4.125 -21.0181,-44.2452 -13.0772,-42.1909 13.0634,-1.1139 25.5863,-4.3099 45.568,14.7676 6.8144,6.7981 -18.6563,54.9782 -14.3094,79.7953 4.224,-28.1781 10.477,-46.7075 12.2713,-46.7289 1.6136,-0.2883 15.8679,7.5795 17.9988,29.0877 4.545,-17.2696 -14.8883,-30.2822 -15.9533,-32.7969 -0.5002,-1.8878 3.7945,-22.1427 8.6924,-22.7602 2.9302,0.4764 15.3455,19.7363 16.2181,24.4256 0.5275,2.4119 -10.1108,30.068 -7.9822,40.5089 0.4115,2.4173 -31.8393,32.2603 -32.5978,44.5423 5.469,-9.588 30.8118,-40.4809 34.7182,-40.3962 4.0855,0.0728 8.2208,32.7137 5.7949,47.4505 7.0105,-6.7841 1.4274,-43.5516 -0.7808,-47.7094 -6.3955,-14.8951 1.2273,-36.6981 4.3709,-37.1119 5.7718,-0.8155 18.8684,2.2866 32.0177,4.8932 z"
     id="path2008"
     sodipodi:nodetypes="csccscsscccscsscssscssscscscscssscsscsccsssscscscsccscsscscscscsssscscssc"
     inkscape:connector-curvature="0" /><g
     id="g2027"
     transform="translate(102.62917,-332.57318)"><path
       style="font-size:12px;fill:url(#linearGradient864);fill-rule:evenodd;stroke-width:1"
       d="m 222.7375,638.3721 c -2.4114,8.7908 -16.0502,46.1189 -42.9816,40.3691 9.2234,-10.5098 15.5887,-27.2944 18.0001,-36.0851 2.4114,-8.7907 13.2501,-15.8177 15.7551,-29.987 17.9881,4.9342 11.6378,16.9122 9.2264,25.703 z"
       id="path859"
       sodipodi:nodetypes="ccccc"
       inkscape:connector-curvature="0" /><path
       style="font-size:12px;fill:url(#radialGradient1008);fill-rule:evenodd;stroke-width:1"
       d="m 322.906,631.8379 c -10.7672,32.0552 -23.3075,54.4712 -59.6351,55.4179 -46.5091,1.1963 -43.3485,-33.9568 -49.824,-71.9865 -3.1358,-20.2901 -17.5265,-25.0191 -11.4313,-44.7371 2.5773,-8.6372 14.7394,-16.6455 24.0106,-15.9619 27.0153,1.9051 23.5118,23.2759 42.5755,34.2444 30.114,17.0831 42.2205,41.5698 54.3043,43.0232 z"
       id="path855"
       sodipodi:nodetypes="csssssc"
       inkscape:connector-curvature="0" /><path
       style="font-size:12px;fill:#ff8d46;fill-opacity:1;fill-rule:evenodd;stroke-width:1"
       d="m 274.9829,671.9708 c -3.5591,4.1418 -6.1997,9.075 4.2639,9.2112 5.9223,-1.8659 9.8679,-2.9543 14.2905,-2.6249 3.2547,0.4287 6.4009,3.5056 1.012,6.2143 6.1019,-1.0941 11.625,5.3983 3.3728,5.5415 6.9206,0.8786 10.292,4.3034 7.0548,5.2176 -6.6319,-0.5617 -65.5737,-3.2829 -39.7423,-21.6821 0.7678,-3.6349 1.8184,-8.7586 8.7188,-9.4494 3.847,-0.1533 4.3974,3.4291 1.0295,7.5718 z"
       id="path857"
       sodipodi:nodetypes="ccsccccsc"
       inkscape:connector-curvature="0" /><path
       transform="matrix(0.951125,-0.334255,0.366131,1.293793,-207.1194,-104.4236)"
       style="font-size:12px;fill:#faf9f9;fill-rule:evenodd;stroke-width:1"
       d="m 215.7766,591.9164 c -1.9843,1.2633 -7.2225,1.5248 -8.6724,0.5185 -2.6597,-4.5064 -0.9085,-8.9047 3.1932,-9.2382 2.8457,-0.13 8.3219,0.8945 5.4792,8.7197 z"
       id="path878"
       sodipodi:nodetypes="ccsc"
       inkscape:connector-curvature="0" /><path
       transform="matrix(1.025611,-0.343099,0.394798,1.32804,-226.0448,-122.9039)"
       style="font-size:12px;fill:#fafafa;fill-rule:evenodd;stroke-width:1"
       d="m 215.9246,592.6455 c -2.6106,1.5397 -8.3151,-0.9195 -8.8778,-4.3938 0,-3.3288 3.7036,-6.1144 7.3206,-5.1562 2.8989,0.5197 6.1801,4.3897 1.5572,9.55 z"
       id="path879"
       sodipodi:nodetypes="ccsc"
       inkscape:connector-curvature="0" /><ellipse
       style="fill:url(#radialGradient880);fill-opacity:1;fill-rule:evenodd;stroke:none;stroke-width:1pt;stroke-linecap:butt;stroke-linejoin:miter;stroke-opacity:1"
       id="path873"
       transform="translate(-0.845948,-2.114899)"
       cx="210.64209"
       cy="590.89526"
       rx="4.2297592"
       ry="4.2297668" /><ellipse
       style="fill:url(#radialGradient621);fill-opacity:1;fill-rule:evenodd;stroke:none;stroke-width:1pt;stroke-linecap:butt;stroke-linejoin:miter;stroke-opacity:1"
       id="path877"
       transform="translate(13.53523,-3.38382)"
       cx="210.64209"
       cy="590.89526"
       rx="4.2297592"
       ry="4.2297668" /><path
       style="font-size:12px;fill:#ff8000;fill-opacity:1;fill-rule:evenodd;stroke-width:1"
       d="m 240.2503,593.0104 c 0.9789,3.6565 -0.3028,7.1844 -5.0006,8.3019 -8.6818,8.1997 -21.018,9.5687 -24.6077,8.4056 -4.853,-1.4805 -5.067,-2.9805 -5.7103,-4.2296 -1.9924,-3.6697 -0.4729,-9.5536 -0.3129,-12.7433 2.3575,1.4537 7.945,-1.4627 10.1218,-4.0906 0.6026,-0.5788 3.2077,-1.6029 3.9817,-0.8072 3.5831,3.466 6.1966,4.3701 10.1077,2.6253 3.7956,-4.4412 9.9309,-2.2359 11.4203,2.5379 z"
       id="path866"
       sodipodi:nodetypes="cccsccscs"
       inkscape:connector-curvature="0" /><path
       style="fill:none;fill-opacity:1;fill-rule:evenodd;stroke:#000000;stroke-width:1pt;stroke-linecap:butt;stroke-linejoin:miter;stroke-opacity:1"
       d="m 206.4123,607.1799 c 7.6026,2.9608 16.6948,0.7221 24.7479,-5.9428 1.0724,-1.4416 2.6755,-4.7055 5.1039,-4.637"
       id="path869"
       sodipodi:nodetypes="ccc"
       inkscape:connector-curvature="0" /><path
       style="font-size:12px;fill:#fafafa;fill-opacity:1;fill-rule:evenodd;stroke-width:1"
       d="m 263.4977,666.5369 c 0.1496,5.1143 -2.1519,8.993 -6.9987,12.0233 -3.8515,3.0063 -9.7105,4.5763 -16.1807,2.6321 -21.3149,-5.6827 -21.5452,-45.0642 -27.2791,-71.0593 2.5285,0.0248 10.0457,-0.3535 17.6901,-5.2266 -2.5029,8.3321 6.7691,12.8046 14.2339,12.3754 3.6837,-0.2604 23.0044,25.058 23.4048,35.3589 -0.0105,4.7792 -0.683,8.7819 -4.8703,13.8962 z"
       id="path1010"
       sodipodi:nodetypes="cscccssc"
       inkscape:connector-curvature="0" /><path
       style="font-size:12px;fill:url(#linearGradient863);fill-rule:evenodd;stroke-width:1"
       d="m 225.0236,656.6677 c 4.6618,16.562 10.2336,20.0913 17.9765,23.4751 -5.3695,0.423 -15.8995,-6.5531 -20.5144,-21.3603 -3.3838,-10.434 -0.9282,-17.5536 -0.2115,-20.5144 0.4114,-1.9426 -0.0145,10.0833 2.7494,18.3996 z"
       id="path1013"
       sodipodi:nodetypes="ccsss"
       inkscape:connector-curvature="0" /><path
       style="font-size:12px;fill:url(#linearGradient872);fill-rule:evenodd;stroke-width:1"
       d="m 260.8604,614.6115 c -11.8486,5.3901 1.6971,18.9462 -9.0952,18.5641 -24.9359,0.0908 -48.6788,26.1797 -63.8785,21.2669 0.5483,-6.6303 20.282,-18.9509 28.7352,-29.0403 8.4776,-10.5415 13.6522,-13.8346 26.0966,-20.6559 13.5771,-7.8652 23.5361,7.6117 18.1419,9.8652 z"
       id="path871"
       sodipodi:nodetypes="cscsss"
       inkscape:connector-curvature="0" /><path
       style="font-size:12px;fill:url(#radialGradient1006);fill-rule:evenodd"
       d="m 273.9562,673.792 c -1.585,-2.1875 -1.4188,-2.4088 -2.058,-2.3136 -1.0807,0.0568 0.5177,1.599 -0.9229,3.3411 -0.6173,0.0102 -0.6387,-2.1654 -1.219,-2.2361 -0.5803,-0.0707 0.9082,1.0661 -1.1426,2.8186 -0.9154,-0.8676 -1.0232,-2.1864 -0.5776,-2.9529 -0.4591,-0.219 -1.5317,1.8561 -1.9069,1.5692 -0.6654,-0.88 0.5508,-2.1198 0.275,-2.47 -0.2759,-0.35 -2.2652,0.9291 -2.4258,0.5201 2.5817,-3.6012 -2.2976,-5.2458 5.4904,-9.4443 5.7562,-1.5603 4.4507,1.9472 11.6957,3.2026 -1.8213,0.9801 -3.1601,-0.3192 -4.3316,0.2627 1.1669,0.4245 2.1548,0.8612 3.9249,3.0655 -1.5447,0.5875 -3.0011,-1.2582 -3.2131,-0.8468 -0.2117,0.4112 2.1246,2.4817 1.8974,3.5265 -0.5584,-0.1407 -2.7387,-3.1264 -3.1519,-2.7712 -0.4131,0.3554 1.8307,2.6372 1.6054,4.5978 -0.7868,-0.4947 -2.8546,-3.6655 -3.4314,-3.4122 -0.5769,0.2528 1.2625,1.3729 -0.508,3.543 z"
       id="path805"
       sodipodi:nodetypes="ccccccccccccccccccc"
       inkscape:connector-curvature="0" /></g><g
     id="g2022"
     transform="translate(102.02337,-342.26572)"><path
       transform="matrix(1.600003,0,0,1,-120.431,0.302856)"
       style="font-size:12px;fill:url(#radialGradient2015);fill-rule:evenodd;stroke-width:1"
       d="m 201.5376,690.2533 c 0,6.3592 -1.5058,10.7527 -3.5968,10.7527 -2.0911,0 -3.4076,-2.879 -3.4076,-10.7527 0,-8.7824 2.6417,-10.7528 3.5969,-21.6569 0.9552,8.7839 3.4075,12.8745 3.4075,21.6569 z"
       id="path2014"
       sodipodi:nodetypes="ccccc"
       inkscape:connector-curvature="0" /><path
       style="font-size:12px;fill:url(#radialGradient6684);fill-rule:evenodd;stroke-width:1"
       d="m 194.4575,686.6185 c -1.6345,5.0241 -1.7402,9.5412 4.8462,14.6904 -11.89,2.1202 -15.1446,-2.4406 -15.1446,-11.0557 0,-7.1005 6.2835,-9.844 7.2694,-21.9597 2.5003,3.9376 5.1492,13.0418 3.029,18.325 z"
       id="path2010"
       sodipodi:nodetypes="ccccs"
       inkscape:connector-curvature="0" /><path
       style="font-size:12px;fill:url(#radialGradient1867);fill-rule:evenodd;stroke-width:1"
       d="m 193.8517,686.6185 c -1.3945,3.2067 -1.8945,8.3297 -0.3027,14.6904 11.587,1.5144 15.1445,-2.1376 15.1445,-10.7527 0,-8.615 -6.2835,-9.8441 -7.2694,-21.9598 -4.3177,10.6012 -5.738,12.633 -7.5724,18.0221 z"
       id="path2012"
       sodipodi:nodetypes="ccccs"
       inkscape:connector-curvature="0" /><path
       style="font-size:12px;fill:url(#radialGradient2018);fill-rule:evenodd;stroke-width:1"
       d="m 202.0298,701.3089 c 1.363,0.4388 2.0011,2.1136 1.9122,1.987 -0.9955,-1.3107 -2.2592,-1.4899 -2.424,-1.3721 -0.1647,0.1178 1.2239,1.517 0.4597,3.5905 -0.007,-2.2426 -1.5606,-3.0537 -1.8553,-2.9647 -0.2946,0.0891 0.4608,1.2018 -0.2823,3.6479 0.0322,-1.4437 0.1921,-3.5029 -1.7877,-3.2259 -0.3886,0.0565 -0.5712,3.4203 -0.9952,3.4466 -0.0453,-1.6398 0.8031,-3.5191 -1.5396,-3.2919 -0.4496,0 -1.064,1.358 -1.3124,3.2919 -0.2725,-1.2379 0.4873,-2.8077 -0.9953,-3.4466 -1.5073,-0.6034 -1.2141,3.3725 -1.5605,3.3017 -0.3465,-0.0708 0.391,-3.1045 -0.7366,-3.7237 -0.2773,-0.1336 -1.6213,-0.0351 -1.7796,3.1161 -0.7642,-1.6949 0.5487,-3.6241 0.384,-3.7419 -0.1648,-0.1178 -2.0225,0.0865 -2.1969,2.4323 -1.0908,-1.9051 1.6851,-3.0627 1.6851,-3.1986 -0.3786,-1.0874 0.5681,0.3028 6.4364,0.4543 6.777,0.0757 7.118,-1.1631 6.588,-0.3029 z"
       id="path2017"
       sodipodi:nodetypes="csscscscccssscscccc"
       inkscape:connector-curvature="0" /></g></svg>