<?xml version="1.0" encoding="UTF-8" standalone="no"?>
<!-- Created with Sodipodi ("http://www.sodipodi.com/") -->

<svg
   xmlns:dc="http://purl.org/dc/elements/1.1/"
   xmlns:cc="http://creativecommons.org/ns#"
   xmlns:rdf="http://www.w3.org/1999/02/22-rdf-syntax-ns#"
   xmlns:svg="http://www.w3.org/2000/svg"
   xmlns="http://www.w3.org/2000/svg"
   xmlns:xlink="http://www.w3.org/1999/xlink"
   xmlns:sodipodi="http://sodipodi.sourceforge.net/DTD/sodipodi-0.dtd"
   xmlns:inkscape="http://www.inkscape.org/namespaces/inkscape"
   id="svg602"
   sodipodi:version="0.34"
   width="83.260277mm"
   height="33.923557mm"
   xml:space="preserve"
   sodipodi:docname="helico_cornu.svg"
   version="1.1"
   inkscape:version="0.91 r13725"><metadata
     id="metadata186"><rdf:RDF><cc:Work
         rdf:about=""><dc:format>image/svg+xml</dc:format><dc:type
           rdf:resource="http://purl.org/dc/dcmitype/StillImage" /><dc:title /></cc:Work></rdf:RDF></metadata><defs
     id="defs604"><linearGradient
       id="linearGradient1140"><stop
         style="stop-color:#eeff00;stop-opacity:1;"
         offset="0"
         id="stop1141" /><stop
         style="stop-color:#eaaf00;stop-opacity:1;"
         offset="1"
         id="stop1142" /></linearGradient><linearGradient
       id="linearGradient953"><stop
         style="stop-color:#6e420f;stop-opacity:1;"
         offset="0"
         id="stop954" /><stop
         style="stop-color:#eaa76f;stop-opacity:1;"
         offset="1"
         id="stop955" /></linearGradient><linearGradient
       id="linearGradient932"><stop
         style="stop-color:#5c2745;stop-opacity:1;"
         offset="0"
         id="stop933" /><stop
         style="stop-color:#ffff45;stop-opacity:1;"
         offset="1"
         id="stop934" /></linearGradient><linearGradient
       id="linearGradient856"><stop
         style="stop-color:#d9dada;stop-opacity:1;"
         offset="0"
         id="stop857" /><stop
         style="stop-color:#000000;stop-opacity:1;"
         offset="1"
         id="stop858" /></linearGradient><linearGradient
       id="linearGradient850"><stop
         style="stop-color:#000;stop-opacity:1;"
         offset="0"
         id="stop851" /><stop
         style="stop-color:#fff;stop-opacity:1;"
         offset="1"
         id="stop852" /></linearGradient><linearGradient
       xlink:href="#linearGradient856"
       id="linearGradient853"
       x1="391.32819"
       y1="486.36914"
       x2="402.50778"
       y2="493.04434"
       gradientTransform="matrix(0.51162736,0.04394381,-0.03051675,0.62403094,-9.5222103,-238.46248)"
       gradientUnits="userSpaceOnUse" /><linearGradient
       xlink:href="#linearGradient850"
       id="linearGradient854"
       x1="384.89059"
       y1="488.24628"
       x2="393.42786"
       y2="481.40924"
       gradientTransform="scale(1.0256589,0.974983)"
       gradientUnits="userSpaceOnUse" /><radialGradient
       xlink:href="#linearGradient856"
       id="radialGradient855"
       cx="497.06888"
       cy="308.60843"
       r="7.0056214"
       fx="497.06888"
       fy="308.60843"
       gradientTransform="matrix(0.42874444,0,0,0.76997066,-42.879661,-61.44664)"
       gradientUnits="userSpaceOnUse" /><radialGradient
       xlink:href="#linearGradient856"
       id="radialGradient862"
       cx="494.85422"
       cy="308.87332"
       r="1.8333794"
       fx="494.85422"
       fy="308.87332"
       gradientTransform="scale(0.84515744,1.1832115)"
       gradientUnits="userSpaceOnUse" /><linearGradient
       xlink:href="#linearGradient856"
       id="linearGradient866"
       x1="278.5824"
       y1="646.49445"
       x2="296.47583"
       y2="656.92841"
       gradientTransform="matrix(0.67882149,0.05830417,-0.02300046,0.47033178,-0.42458202,-238.01757)"
       gradientUnits="userSpaceOnUse" /><linearGradient
       xlink:href="#linearGradient850"
       id="linearGradient867"
       x1="410.16144"
       y1="431.47479"
       x2="452.58923"
       y2="455.95392"
       gradientTransform="matrix(0.45123498,0.0387567,-0.03460104,0.70755007,-0.42458202,-238.01757)"
       gradientUnits="userSpaceOnUse" /><linearGradient
       xlink:href="#linearGradient856"
       id="linearGradient888"
       x1="396.71152"
       y1="484.20218"
       x2="397.53922"
       y2="489.14325"
       gradientTransform="matrix(0.51162736,0.04394381,-0.03051675,0.62403094,-0.02591988,-238.46413)"
       gradientUnits="userSpaceOnUse" /><linearGradient
       xlink:href="#linearGradient856"
       id="linearGradient898"
       x1="390.00162"
       y1="486.80273"
       x2="405.15759"
       y2="495.29834"
       gradientTransform="matrix(0.51162736,0.04394381,-0.03051675,0.62403094,-3.1897873,-238.49551)"
       gradientUnits="userSpaceOnUse" /><linearGradient
       xlink:href="#linearGradient856"
       id="linearGradient901"
       x1="390.24521"
       y1="486.10995"
       x2="403.83261"
       y2="493.99792"
       gradientTransform="matrix(0.51162736,0.04394381,-0.03051675,0.62403094,-6.3278509,-238.28418)"
       gradientUnits="userSpaceOnUse" /><radialGradient
       xlink:href="#linearGradient856"
       id="radialGradient904"
       cx="496.85883"
       cy="308.34808"
       r="3.188329"
       fx="496.85883"
       fy="308.34808"
       gradientTransform="matrix(0.42874444,0,0,0.76997066,-52.363281,-66.515569)"
       gradientUnits="userSpaceOnUse" /><radialGradient
       xlink:href="#linearGradient856"
       id="radialGradient905"
       cx="496.82321"
       cy="308.95782"
       r="4.2712302"
       fx="496.82321"
       fy="308.95782"
       gradientTransform="matrix(0.42874444,0,0,0.76997066,-49.223175,-64.651512)"
       gradientUnits="userSpaceOnUse" /><radialGradient
       xlink:href="#linearGradient856"
       id="radialGradient906"
       cx="496.94226"
       cy="309.50052"
       r="5.4416051"
       fx="496.94226"
       fy="309.50052"
       gradientTransform="matrix(0.42874444,0,0,0.76997066,-46.030384,-63.163858)"
       gradientUnits="userSpaceOnUse" /><linearGradient
       xlink:href="#linearGradient856"
       id="linearGradient930"
       gradientTransform="matrix(0.10838339,0,0,2.2948353,-23.998768,-99.677519)"
       x1="1959.1134"
       y1="68.501892"
       x2="1970.829"
       y2="68.501892"
       gradientUnits="userSpaceOnUse" /><linearGradient
       xlink:href="#linearGradient932"
       id="linearGradient931"
       x1="190.84837"
       y1="669.28235"
       x2="190.83824"
       y2="679.3645"
       gradientTransform="scale(1.9212158,0.52050375)"
       spreadMethod="reflect"
       gradientUnits="userSpaceOnUse" /><radialGradient
       xlink:href="#linearGradient932"
       id="radialGradient935"
       cx="516.19061"
       cy="264.88382"
       r="7.6307917"
       fx="516.19061"
       fy="264.88382"
       gradientTransform="scale(0.75521703,1.3241227)"
       gradientUnits="userSpaceOnUse" /><linearGradient
       xlink:href="#linearGradient932"
       id="linearGradient936"
       x1="546.82776"
       y1="232.99892"
       x2="549.11212"
       y2="233.10231"
       gradientTransform="scale(0.67282298,1.486275)"
       gradientUnits="userSpaceOnUse" /><linearGradient
       xlink:href="#linearGradient953"
       id="linearGradient937"
       x1="29.571627"
       y1="426.2052"
       x2="133.76048"
       y2="426.2052"
       gradientTransform="matrix(0.81154709,0,0,0.30647889,-23.998768,-99.677519)"
       gradientUnits="userSpaceOnUse" /><radialGradient
       xlink:href="#linearGradient932"
       id="radialGradient938"
       cx="269.897"
       cy="465.91968"
       r="3.0578742"
       fx="269.897"
       fy="465.91968"
       gradientTransform="scale(1.3627805,0.73379388)"
       gradientUnits="userSpaceOnUse" /><linearGradient
       xlink:href="#linearGradient953"
       id="linearGradient956"
       gradientTransform="matrix(0.74710702,0,0,0.33291356,-23.998768,-99.677519)"
       x1="46.424301"
       y1="299.40961"
       x2="159.30417"
       y2="299.40961"
       gradientUnits="userSpaceOnUse" /><linearGradient
       xlink:href="#linearGradient953"
       id="linearGradient957"
       gradientTransform="matrix(0.89735294,0,0,0.27717305,-23.998768,-99.677519)"
       x1="166.60033"
       y1="483.25208"
       x2="215.53709"
       y2="483.25208"
       gradientUnits="userSpaceOnUse" /><linearGradient
       xlink:href="#linearGradient953"
       id="linearGradient958"
       gradientTransform="matrix(0.83618438,0,0,0.29744882,-23.998768,-99.677519)"
       x1="232.9823"
       y1="452.52237"
       x2="295.62341"
       y2="452.52237"
       gradientUnits="userSpaceOnUse" /><linearGradient
       xlink:href="#linearGradient953"
       id="linearGradient959"
       gradientTransform="matrix(1.1028307,0,0,0.22553057,-23.998768,-99.677519)"
       x1="248.58943"
       y1="655.70349"
       x2="285.84543"
       y2="655.70349"
       gradientUnits="userSpaceOnUse" /><linearGradient
       xlink:href="#linearGradient953"
       id="linearGradient960"
       gradientTransform="matrix(1.0628081,0,0,0.23402346,-23.998768,-99.677519)"
       x1="244.81503"
       y1="673.80627"
       x2="300.16281"
       y2="673.80627"
       gradientUnits="userSpaceOnUse" /><linearGradient
       xlink:href="#linearGradient850"
       id="linearGradient961"
       x1="65.511543"
       y1="906.92017"
       x2="94.947662"
       y2="906.6593"
       gradientTransform="matrix(1.0814321,0.03392926,-0.00381096,0.12146734,141.72419,-52.601703)"
       spreadMethod="reflect"
       gradientUnits="userSpaceOnUse" /><linearGradient
       xlink:href="#linearGradient850"
       id="linearGradient962"
       x1="66.483055"
       y1="899.07532"
       x2="83.799553"
       y2="899.0741"
       gradientTransform="matrix(1.5034308,0,0,0.16543632,-23.998768,-99.677519)"
       gradientUnits="userSpaceOnUse" /><linearGradient
       xlink:href="#linearGradient953"
       id="linearGradient963"
       x1="89.138245"
       y1="1027.8339"
       x2="105.4343"
       y2="1024.0753"
       gradientTransform="matrix(1.4912853,0,0,0.1667837,-23.998768,-99.677519)"
       gradientUnits="userSpaceOnUse" /><linearGradient
       xlink:href="#linearGradient953"
       id="linearGradient964"
       x1="66.967949"
       y1="909.90906"
       x2="71.219528"
       y2="865.19354"
       gradientTransform="matrix(1.5054652,0,0,0.16521277,-23.998768,-99.677519)"
       gradientUnits="userSpaceOnUse" /><linearGradient
       xlink:href="#linearGradient850"
       id="linearGradient987"
       x1="456.31824"
       y1="230.54532"
       x2="585.86255"
       y2="219.02454"
       gradientTransform="matrix(0.33754217,0,0,0.73686217,-23.998768,-99.677519)"
       gradientUnits="userSpaceOnUse" /><linearGradient
       xlink:href="#linearGradient850"
       id="linearGradient988"
       x1="458.24393"
       y1="268.11499"
       x2="589.54114"
       y2="249.41318"
       gradientTransform="matrix(0.33107034,0,0,0.7512665,-23.998768,-99.677519)"
       gradientUnits="userSpaceOnUse" /><linearGradient
       xlink:href="#linearGradient850"
       id="linearGradient989"
       x1="458.42236"
       y1="216.51112"
       x2="478.35635"
       y2="216.51112"
       gradientTransform="matrix(0.34743813,0,0,0.71587437,-23.998768,-99.677519)"
       gradientUnits="userSpaceOnUse" /><linearGradient
       xlink:href="#linearGradient850"
       id="linearGradient990"
       x1="482.70218"
       y1="220.17336"
       x2="504.8858"
       y2="220.17336"
       gradientTransform="matrix(0.32289447,0,0,0.770289,-23.998768,-99.677519)"
       gradientUnits="userSpaceOnUse" /><linearGradient
       xlink:href="#linearGradient856"
       id="linearGradient991"
       x1="312.42209"
       y1="535.1944"
       x2="269.00375"
       y2="555.79425"
       gradientTransform="matrix(0.68648566,0,0,0.36231208,-23.998768,-99.677519)"
       gradientUnits="userSpaceOnUse" /><linearGradient
       xlink:href="#linearGradient856"
       id="linearGradient992"
       x1="328.2128"
       y1="559.67133"
       x2="292.37912"
       y2="574.31818"
       gradientTransform="matrix(0.72392654,0,0,0.34357361,-23.998768,-99.677519)"
       gradientUnits="userSpaceOnUse" /><linearGradient
       xlink:href="#linearGradient856"
       id="linearGradient993"
       x1="312.80457"
       y1="428.01111"
       x2="307.30399"
       y2="538.84686"
       gradientTransform="matrix(0.66804786,0,0,0.37231173,-23.998768,-99.677519)"
       gradientUnits="userSpaceOnUse" /><linearGradient
       xlink:href="#linearGradient856"
       id="linearGradient994"
       x1="732.21454"
       y1="232.47554"
       x2="626.90881"
       y2="234.45461"
       gradientTransform="matrix(0.34451905,0,0,0.72193989,-23.998768,-99.677519)"
       gradientUnits="userSpaceOnUse" /><linearGradient
       xlink:href="#linearGradient856"
       id="linearGradient995"
       x1="724.0285"
       y1="264.4426"
       x2="646.6554"
       y2="266.64511"
       gradientTransform="matrix(0.3454579,0,0,0.71997789,-23.998768,-99.677519)"
       gradientUnits="userSpaceOnUse" /><linearGradient
       xlink:href="#linearGradient856"
       id="linearGradient996"
       x1="684.76874"
       y1="243.03371"
       x2="657.565"
       y2="245.16191"
       gradientTransform="matrix(0.36874663,0,0,0.67450664,-23.998768,-99.677519)"
       gradientUnits="userSpaceOnUse" /><linearGradient
       xlink:href="#linearGradient856"
       id="linearGradient997"
       x1="793.56494"
       y1="230.18526"
       x2="751.16937"
       y2="233.98215"
       gradientTransform="matrix(0.32509258,0,0,0.76508071,-23.998768,-99.677519)"
       gradientUnits="userSpaceOnUse" /><linearGradient
       xlink:href="#linearGradient856"
       id="linearGradient998"
       x1="522.79187"
       y1="323.98199"
       x2="547.71521"
       y2="323.98199"
       gradientTransform="matrix(0.49942027,0,0,0.49802155,-23.998768,-99.677519)"
       gradientUnits="userSpaceOnUse" /><linearGradient
       xlink:href="#linearGradient856"
       id="linearGradient999"
       x1="304.57816"
       y1="640.1427"
       x2="312.64127"
       y2="588.68951"
       gradientTransform="matrix(0.91247709,0,0,0.27257895,-23.998768,-99.677519)"
       gradientUnits="userSpaceOnUse" /><linearGradient
       xlink:href="#linearGradient850"
       id="linearGradient1000"
       x1="802.70593"
       y1="100.51129"
       x2="817.25446"
       y2="100.51129"
       gradientTransform="matrix(0.16779926,0,0,1.4822596,-23.998768,-99.677519)"
       gradientUnits="userSpaceOnUse" /><linearGradient
       xlink:href="#linearGradient850"
       id="linearGradient1001"
       x1="1736.4082"
       y1="94.88253"
       x2="1746.3063"
       y2="94.88253"
       gradientTransform="matrix(0.14966453,0,0,1.6618637,-23.998768,-99.677519)"
       gradientUnits="userSpaceOnUse" /><linearGradient
       xlink:href="#linearGradient856"
       id="linearGradient1002"
       x1="231.20084"
       y1="526.21735"
       x2="205.46844"
       y2="540.41699"
       spreadMethod="reflect"
       gradientTransform="matrix(0.86029825,0,0,0.28911143,-23.998768,-99.677519)"
       gradientUnits="userSpaceOnUse" /><linearGradient
       xlink:href="#linearGradient850"
       id="linearGradient1003"
       x1="42.613541"
       y1="2940.2456"
       x2="42.84483"
       y2="2770.4846"
       gradientTransform="matrix(4.9018642,0.30656894,-0.00303004,0.05055061,-23.998768,-99.677519)"
       gradientUnits="userSpaceOnUse" /><linearGradient
       xlink:href="#linearGradient856"
       id="linearGradient1004"
       x1="174.35117"
       y1="490.63876"
       x2="126.40622"
       y2="475.60965"
       gradientTransform="matrix(0.77514977,0,0,0.32086967,-23.998768,-99.677519)"
       gradientUnits="userSpaceOnUse" /><linearGradient
       xlink:href="#linearGradient856"
       id="linearGradient1005"
       x1="121.37678"
       y1="651.4527"
       x2="63.275703"
       y2="598.82599"
       gradientTransform="matrix(1.0342784,0,0,0.2404788,-23.998768,-99.677519)"
       gradientUnits="userSpaceOnUse" /><linearGradient
       xlink:href="#linearGradient850"
       id="linearGradient1010"
       x1="349.16144"
       y1="228.35364"
       x2="357.70789"
       y2="228.57503"
       gradientTransform="matrix(0.38156862,0,0,0.65184095,-23.998768,-99.677519)"
       spreadMethod="reflect"
       gradientUnits="userSpaceOnUse" /><linearGradient
       xlink:href="#linearGradient850"
       id="linearGradient1026"
       x1="444.39307"
       y1="324.20493"
       x2="512.44983"
       y2="323.33148"
       gradientTransform="matrix(0.38630628,0,0,0.64384676,-23.998768,-99.677519)"
       gradientUnits="userSpaceOnUse" /><linearGradient
       xlink:href="#linearGradient850"
       id="linearGradient1027"
       x1="532.11914"
       y1="326.79443"
       x2="621.84253"
       y2="320.95258"
       gradientTransform="matrix(0.38208486,0,0,0.65096026,-23.998768,-99.677519)"
       gradientUnits="userSpaceOnUse" /><linearGradient
       xlink:href="#linearGradient850"
       id="linearGradient1028"
       x1="650.50909"
       y1="304.88708"
       x2="734.49127"
       y2="287.39767"
       gradientTransform="matrix(0.35654546,0,0,0.69758862,-23.998768,-99.677519)"
       gradientUnits="userSpaceOnUse" /><linearGradient
       xlink:href="#linearGradient850"
       id="linearGradient1029"
       x1="505.31006"
       y1="345.10245"
       x2="559.39813"
       y2="325.54944"
       gradientTransform="matrix(0.40672409,0,0,0.61152524,-23.998768,-99.677519)"
       gradientUnits="userSpaceOnUse" /><radialGradient
       xlink:href="#linearGradient1140"
       id="radialGradient1139"
       cx="469.89047"
       cy="350.91492"
       r="8.7978048"
       fx="469.89047"
       fy="350.91492"
       gradientTransform="matrix(0.46461595,0,0,0.5353283,-23.998768,-99.677519)"
       gradientUnits="userSpaceOnUse" /><radialGradient
       xlink:href="#linearGradient1140"
       id="radialGradient1160"
       gradientTransform="scale(1.3242365,0.75515215)"
       cx="313.15128"
       cy="610.22949"
       fx="313.15128"
       fy="610.22949"
       r="15.496073"
       gradientUnits="userSpaceOnUse" /><linearGradient
       inkscape:collect="always"
       xlink:href="#linearGradient850"
       id="linearGradient4314"
       gradientTransform="matrix(0.98318263,0.03084674,-0.00419178,0.13360557,141.72419,-52.601703)"
       spreadMethod="reflect"
       x1="72.678291"
       y1="815.56146"
       x2="104.47825"
       y2="815.27972"
       gradientUnits="userSpaceOnUse" /><linearGradient
       inkscape:collect="always"
       xlink:href="#linearGradient850"
       id="linearGradient4316"
       x1="73.247559"
       y1="815.32886"
       x2="91.828728"
       y2="815.32758"
       gradientTransform="matrix(1.3763252,0.01947999,-0.00255725,0.18067846,-21.910058,-101.62471)"
       gradientUnits="userSpaceOnUse" /><linearGradient
       inkscape:collect="always"
       xlink:href="#linearGradient850"
       id="linearGradient4318"
       x1="61.970894"
       y1="934.20349"
       x2="78.073296"
       y2="934.20239"
       gradientTransform="matrix(1.6160262,0,0,0.15390966,-23.998768,-99.677519)"
       gradientUnits="userSpaceOnUse" /><linearGradient
       inkscape:collect="always"
       xlink:href="#linearGradient850"
       id="linearGradient4320"
       gradientTransform="matrix(1.2233271,0.03838112,-0.00336891,0.10737821,141.72419,-52.601703)"
       spreadMethod="reflect"
       x1="58.144909"
       y1="989.42877"
       x2="84.070862"
       y2="989.19904"
       gradientUnits="userSpaceOnUse" /><radialGradient
       inkscape:collect="always"
       xlink:href="#linearGradient856"
       id="radialGradient4322"
       gradientTransform="scale(0.84515744,1.1832115)"
       cx="494.85422"
       cy="308.87332"
       fx="494.85422"
       fy="308.87332"
       r="1.8333794"
       gradientUnits="userSpaceOnUse" /><linearGradient
       inkscape:collect="always"
       xlink:href="#linearGradient850"
       id="linearGradient4324"
       gradientTransform="scale(1.0256589,0.974983)"
       x1="384.89059"
       y1="488.24628"
       x2="393.42786"
       y2="481.40924"
       gradientUnits="userSpaceOnUse" /><radialGradient
       inkscape:collect="always"
       xlink:href="#linearGradient856"
       id="radialGradient4326"
       gradientTransform="scale(0.84515744,1.1832115)"
       cx="494.85422"
       cy="308.87332"
       fx="494.85422"
       fy="308.87332"
       r="1.8333794"
       gradientUnits="userSpaceOnUse" /><linearGradient
       inkscape:collect="always"
       xlink:href="#linearGradient850"
       id="linearGradient4328"
       gradientTransform="scale(1.0256589,0.974983)"
       x1="384.89059"
       y1="488.24628"
       x2="393.42786"
       y2="481.40924"
       gradientUnits="userSpaceOnUse" /><radialGradient
       inkscape:collect="always"
       xlink:href="#linearGradient856"
       id="radialGradient4330"
       gradientTransform="scale(0.84515744,1.1832115)"
       cx="494.85422"
       cy="308.87332"
       fx="494.85422"
       fy="308.87332"
       r="1.8333794"
       gradientUnits="userSpaceOnUse" /><linearGradient
       inkscape:collect="always"
       xlink:href="#linearGradient850"
       id="linearGradient4332"
       gradientTransform="scale(1.0256589,0.974983)"
       x1="384.89059"
       y1="488.24628"
       x2="393.42786"
       y2="481.40924"
       gradientUnits="userSpaceOnUse" /></defs><sodipodi:namedview
     id="base"
     showgrid="false"
     fit-margin-top="0"
     fit-margin-left="0"
     fit-margin-right="0"
     fit-margin-bottom="0"
     inkscape:zoom="5.0743654"
     inkscape:cx="222.2081"
     inkscape:cy="52.903576"
     inkscape:window-width="3200"
     inkscape:window-height="1679"
     inkscape:window-x="0"
     inkscape:window-y="0"
     inkscape:window-maximized="1"
     inkscape:current-layer="svg602" /><path
     style="font-size:12px;fill-rule:evenodd"
     d="m 193.40444,66.455617 c -3.27609,-0.037 -5.19806,2.28176 -4.67922,8.3408 0.18814,2.23106 -11.00609,14.97953 2.14067,16.67377 l 4.81527,0.0916 c 8.87126,-0.54949 7.21967,-8.65654 6.91366,-9.5812 -0.90254,-3.19193 -3.89804,-6.1994 -3.91913,-7.91276 -0.0205,-5.23129 -1.87095,-7.66686 -5.27125,-7.6122 z"
     id="path1125"
     sodipodi:nodetypes="csccsss"
     inkscape:connector-curvature="0" /><ellipse
     style="font-size:12px;fill-rule:evenodd"
     id="path1126"
     transform="matrix(0.90229473,0.43111973,-0.4372573,0.89933645,0,0)"
     cx="205.95215"
     cy="-22.734194"
     rx="1.7777466"
     ry="1.1557916" /><path
     style="font-size:12px;fill:#f8f7f7;fill-rule:evenodd"
     d="m 198.78609,86.723157 c -1.56044,1.95812 -3.73574,3.42277 -7.23735,3.36151 -3.56898,-0.12717 -4.69346,-1.89541 -4.5084,-6.54483 0.11022,-1.97796 0.72348,-3.62553 1.41742,-4.85946 0.3598,-0.92545 1.32495,-1.24768 1.919,-4.08957 0.94185,0.96286 1.9048,1.29137 2.28815,1.29609 0.7297,0.0153 2.53074,-0.88039 3.11962,-1.55116 0.68588,2.44706 1.44162,3.27505 1.93563,3.86753 3.00927,3.67382 1.41266,8.00578 1.06593,8.51989 z"
     id="path1127"
     sodipodi:nodetypes="cssccscss"
     inkscape:connector-curvature="0" /><path
     style="font-size:12px;fill:#d5d5c8;fill-opacity:1;fill-rule:evenodd"
     d="m 191.42605,84.050927 c 0,1.7197 0.38034,2.5643 0.18356,2.5643 -0.19677,0 -0.67569,-0.87697 -0.67569,-2.59669 0,-1.71966 0.63637,-3.5985 0.83314,-3.5985 0.19677,0 -0.34101,1.91121 -0.34101,3.63089 z m 5.64334,-6.11467 c 0.62987,0.57631 1.15977,1.25528 1.31723,2.09063 -1.07965,-0.96489 -2.8836,-1.41167 -3.93181,-1.66422 0.92219,-0.0323 2.29072,0.0269 2.61458,-0.42641 z m -5.52643,0.39993 c 0.34448,0.32872 0.2481,0.56032 0.37216,0.98618 0.0543,-0.4044 0.67534,-0.71167 1.01302,-1.01893 -0.43024,0.0757 -0.95495,0.0866 -1.38518,0.0327 z m -2.51011,-0.59815 c -0.34867,0.41181 -0.78348,1.07573 -1.20591,2.24699 0.89073,-1.02962 1.76456,-1.11079 2.74977,-1.52522 -0.89072,-0.0323 -1.22,-0.26848 -1.54386,-0.72177 z m 6.87016,-3.52899 c -0.44535,1.35056 -2.49318,2.56091 -3.56218,2.56091 -0.62363,0 -1.88749,-0.97972 -2.11019,-2.33024 0.83015,0.84102 1.73741,1.41785 2.43678,1.44641 0.77342,0.0199 2.51775,-0.8978 3.23559,-1.67708 z"
     id="path1128"
     sodipodi:nodetypes="cccccccccccccccccccccc"
     inkscape:connector-curvature="0" /><path
     style="font-size:12px;fill:url(#linearGradient852);fill-rule:evenodd"
     d="m 193.06765,79.423897 c -2.18199,-0.40764 -1.71435,1.38948 -0.69317,2.37769 1.38738,1.3916 8.47925,3.40095 8.47925,0.99143 0,-2.3607 -0.10408,-4.9946 -0.78325,-4.77665 -4.23628,1.66627 -0.17629,2.65493 -7.00283,1.40753 z"
     id="path857"
     sodipodi:nodetypes="cscss"
     inkscape:connector-curvature="0" /><path
     style="fill:none;fill-opacity:1;fill-rule:evenodd;stroke:#000000;stroke-width:1.00000019pt;stroke-linecap:butt;stroke-linejoin:miter;stroke-opacity:1"
     d="m 215.7296,101.32915 -8.37999,5.08786"
     id="path1051"
     sodipodi:nodetypes="cc"
     inkscape:connector-curvature="0" /><path
     style="fill:none;fill-opacity:1;fill-rule:evenodd;stroke:#000000;stroke-width:1.00000019pt;stroke-linecap:butt;stroke-linejoin:miter;stroke-opacity:1"
     d="m 215.13104,101.02987 -22.14718,5.08786"
     id="path1052"
     inkscape:connector-curvature="0" /><path
     style="fill:none;fill-opacity:1;fill-rule:evenodd;stroke:#000000;stroke-width:1.00000019pt;stroke-linecap:butt;stroke-linejoin:miter;stroke-opacity:1"
     d="m 235.48242,65.714177 -42.0497,40.553303"
     id="path1047"
     inkscape:connector-curvature="0" /><path
     style="font-size:12px;fill:url(#linearGradient997);fill-rule:evenodd"
     d="m 225.4783,72.383657 -2.0132,4.63043 3.6688,6.63686 1.11882,-6.99888 -2.77442,-4.26841 z m 0.19734,0.83701 -1.79191,3.71861 3.11805,5.91992 0.79317,-6.11412 -2.11931,-3.52441 z"
     id="path717"
     sodipodi:nodetypes="cccccccccc"
     inkscape:connector-curvature="0" /><path
     style="fill:none;fill-opacity:1;fill-rule:evenodd;stroke:#000000;stroke-width:1.00000019pt;stroke-linecap:butt;stroke-linejoin:miter;stroke-opacity:1"
     d="m 235.48242,61.973137 -38.60794,13.76712"
     id="path1044"
     inkscape:connector-curvature="0" /><path
     style="fill:none;fill-opacity:1;fill-rule:evenodd;stroke:#000000;stroke-width:1.00000019pt;stroke-linecap:butt;stroke-linejoin:miter;stroke-opacity:1"
     d="m 112.47562,65.714687 38.30862,42.348893"
     id="path1041"
     sodipodi:nodetypes="cc"
     inkscape:connector-curvature="0" /><path
     style="fill:none;fill-opacity:1;fill-rule:evenodd;stroke:#000000;stroke-width:1.00000019pt;stroke-linecap:butt;stroke-linejoin:miter;stroke-opacity:1"
     d="m 112.62524,56.436787 54.32038,52.225393"
     id="path1040"
     inkscape:connector-curvature="0" /><path
     style="fill:none;fill-opacity:1;fill-rule:evenodd;stroke:#000000;stroke-width:1.00000019pt;stroke-linecap:butt;stroke-linejoin:miter;stroke-opacity:1"
     d="m 112.92453,53.593587 57.61253,22.14712"
     id="path1042"
     inkscape:connector-curvature="0" /><path
     style="font-size:12px;fill:#f3e9a9;fill-opacity:0.6298;fill-rule:evenodd;stroke-width:1"
     d="m 237.6758,61.007397 c -0.26114,1.11026 -1.74852,5.41477 0.27799,6.77742 11.0259,3.08733 54.14144,4.81894 55.91668,1.01659 0.17863,-1.17633 0.78703,-8.28583 -2.12874,-8.81777 -11.36894,-1.47457 -36.17339,-3.13068 -54.06593,1.02376 z"
     id="path1037"
     sodipodi:nodetypes="ccccc"
     inkscape:connector-curvature="0" /><path
     style="font-size:12px;fill:url(#linearGradient960);fill-rule:evenodd"
     d="m 293.30323,59.711327 c 1.60702,2.81229 2.26672,7.04393 1.17742,10.01929 -19.0179,2.19248 -47.141,1.38716 -57.04838,-1.86516 -1.39153,-2.38942 -1.48264,-4.39602 -0.90523,-7.38012 16.53638,-3.19245 43.2077,-3.1303 56.77619,-0.77401 z m -45.2364,-0.16796 c 0.40532,3.5473 0.67931,5.26543 1.37607,9.78314 -4.79543,-0.50046 -7.49147,-0.82029 -11.40557,-1.81006 -1.18817,-2.44038 -1.05366,-6.24492 -0.37485,-6.65257 4.5615,-0.64116 7.34002,-1.09828 10.40435,-1.32051 z m 13.28183,-0.85267 c 1.26091,3.67762 1.77006,7.84114 1.62673,11.58358 -5.60083,-0.2147 -8.29986,-0.41662 -12.40632,-0.92876 -0.35429,-3.70201 -1.05709,-8.51277 -1.17588,-9.95935 5.58397,-0.44416 8.99043,-0.58959 11.95547,-0.69547 z m 15.14754,0.077 c 0.74124,4.1926 1.41641,7.77771 1.41885,11.46046 -5.79633,0.14123 -9.20438,0.22661 -13.40405,0.0721 -0.2134,-3.76215 -0.71602,-9.71957 -1.42346,-11.64004 5.58856,-0.26457 10.84553,-0.0792 13.40866,0.10747 z m 1.30366,0.082 c 0.74782,3.81267 1.39929,7.96686 1.41585,11.34055 4.57383,-0.16203 10.32412,-0.45848 14.39733,-1.25284 0.63935,-3.00822 -0.33959,-8.20883 -1.55482,-8.76835 -4.69765,-0.67841 -10.97823,-1.10939 -14.25836,-1.31936 z"
     id="path632"
     sodipodi:nodetypes="ccccccccccccccccccccccccc"
     inkscape:connector-curvature="0" /><path
     style="font-size:12px;fill:url(#linearGradient998);fill-rule:evenodd"
     d="m 249.369,62.146927 0.0247,0.90638 -5.77903,4.86576 -0.0602,-2.49639 5.81453,-3.27575 z m 0.17231,-0.47443 0,1.67735 -12.44274,10.73501 -0.004,-5.52508 12.44697,-6.88728 z m -9.85448,6.04126 0.0145,3.62833 -2.40577,2.09039 5.1e-4,-4.4576 2.39085,-1.26112 z m 3.62291,-2.09952 0.0349,2.51605 -3.34209,2.85142 -0.0696,-3.43857 3.37688,-1.9289 z"
     id="path774"
     sodipodi:nodetypes="cccccccccccccccccccc"
     inkscape:connector-curvature="0" /><path
     style="font-size:12px;fill:url(#linearGradient964);fill-opacity:1;fill-rule:evenodd"
     d="m 74.899289,46.044537 0.133107,-4.01229 c -0.06823,2.67343 18.526815,6.3668 47.093974,7.03679 13.59831,0.4686 60.19555,5.42647 68.68172,6.46186 18.02356,2.49915 9.94878,0.54541 32.16598,3.04126 10.35538,1.16326 42.11684,3.57777 42.65635,0.66983 l -0.32705,2.62442 c -0.48022,2.5514 -33.2108,-0.0142 -42.25126,-1.00463 -9.0598,-1.00895 -14.15264,-1.67675 -34.35814,-4.33238 -6.36302,-1.09335 -51.195,-3.30148 -66.6259,-3.88354 -22.196903,-0.68759 -47.107339,-3.63277 -47.168781,-6.60132 z"
     id="path773"
     sodipodi:nodetypes="ccscsccscsc"
     inkscape:connector-curvature="0" /><path
     style="font-size:12px;fill:url(#linearGradient4314);fill-rule:evenodd"
     d="m 265.13726,62.026747 c -0.0533,1.36035 -12.70442,2.26571 -28.13029,0.96344 -15.42587,-1.30226 -27.81459,-3.38013 -27.76125,-4.74043 0.0267,-0.68026 0.005,-1.99705 0.0688,-3.50849 -0.0318,1.5398 14.37587,3.8835 27.78842,4.87008 21.84359,1.721 28.14486,0.88635 28.23784,-0.0726 -0.14709,2.31565 -0.0768,1.02775 -0.20364,2.48791 z"
     id="path672"
     sodipodi:nodetypes="ccccccc"
     inkscape:connector-curvature="0" /><path
     style="font-size:12px;fill:#808080;fill-rule:evenodd"
     d="m 220.66569,53.413197 15.40912,6.36531 -0.14194,-1.51586 -12.86514,-5.31786 -2.40204,0.46841 z"
     id="path1017"
     sodipodi:nodetypes="ccccc"
     inkscape:connector-curvature="0" /><path
     style="font-size:12px;fill:url(#linearGradient1005);fill-rule:evenodd"
     d="m 51.67313,52.096027 0.182433,3.74114 35.751674,7.33254 -0.06565,-6.28508 -35.868419,-4.7886 z m 36.703529,4.9432 0.03936,6.17482 22.450991,4.62772 -0.003,-7.95363 -22.486994,-2.84891 z m -71.223505,-10.18066 0,2.99286 95.220976,19.15435 0.0323,-9.85835 -95.253315,-12.28886 z m 1.3187,0.84651 -0.188322,1.61727 32.702561,6.43727 -0.138394,-3.85575 -32.375845,-4.19879 z"
     id="path771"
     sodipodi:nodetypes="cccccccccccccccccccc"
     inkscape:connector-curvature="0" /><rect
     style="font-size:12px;fill:#808080;fill-rule:evenodd;stroke-width:1"
     id="rect952"
     width="1.1271919"
     height="16.957748"
     x="157.04662"
     y="114.24335"
     transform="matrix(0.97241438,-0.23326009,0.15783297,0.98746582,0,0)" /><path
     style="font-size:12px;fill:url(#linearGradient995);fill-rule:evenodd"
     d="m 215.37097,100.78151 3.12977,-10.946613 -4.79958,-6.80574 -3.47428,7.91719 5.14409,9.835163 z m 0.27584,1.51926 3.55788,-12.543873 -5.59863,-7.77302 -4.14976,9.0679 6.19051,11.248993 z"
     id="path710"
     inkscape:connector-curvature="0" /><path
     style="fill:none;fill-opacity:1;fill-rule:evenodd;stroke:#000000;stroke-width:1.00000019pt;stroke-linecap:butt;stroke-linejoin:miter;stroke-opacity:1"
     d="m 235.63204,66.013517 -28.8811,40.553243"
     id="path1046"
     inkscape:connector-curvature="0" /><ellipse
     style="fill:#808080;fill-opacity:1;fill-rule:evenodd;stroke:none;stroke-width:1pt;stroke-linecap:butt;stroke-linejoin:miter;stroke-opacity:1"
     id="path1009"
     cx="184.26743"
     cy="105.87784"
     rx="1.1072977"
     ry="1.9538065" /><path
     style="font-size:12px;fill:url(#linearGradient1029);fill-rule:evenodd;stroke-width:1"
     d="m 189.53352,105.68468 c 0,4.26894 -2.30175,7.72966 -5.14105,7.72966 -2.83928,0 -5.14103,-3.46072 -5.14103,-7.72966 0,-4.26915 2.30175,-7.729813 5.14103,-7.729813 2.8393,0 5.14105,3.460663 5.14105,7.729813 z m -0.95205,-0.0841 c 0,3.7585 -1.83285,6.80553 -4.09385,6.80553 -2.26086,0 -4.09376,-3.04703 -4.09376,-6.80553 0,-3.75865 1.8329,-6.805493 4.09376,-6.805493 2.261,0 4.09385,3.046843 4.09385,6.805493 z"
     id="path728"
     inkscape:connector-curvature="0" /><path
     style="font-size:12px;fill:url(#linearGradient992);fill-rule:evenodd"
     d="m 199.50802,94.105337 6.60241,12.308373 -12.6445,-0.3316 6.04209,-11.976773 z m 14.33008,0.24947 0.53424,12.328753 -7.41347,-0.24352 -6.46941,-12.466613 13.34864,0.38138 z m -28.91465,-0.9211 -0.079,12.570853 7.86796,0.13291 5.99223,-12.148533 -13.78114,-0.55523 z m 29.73061,-0.021 0.69821,14.055443 -31.31291,-0.66355 -0.23276,-14.307943 30.84746,0.91605 z"
     id="path756"
     inkscape:connector-curvature="0" /><path
     style="font-size:12px;fill:url(#linearGradient1004);fill-rule:evenodd"
     d="m 59.644379,47.705077 -0.105779,1.61727 24.840765,8.68191 0.258488,-4.45432 -24.993474,-5.84486 z m -0.740701,-0.84651 0,2.99286 53.484632,19.15435 0.0181,-9.85835 -53.502787,-12.28886 z m 42.358972,10.77928 -0.062,6.47405 10.34107,3.72987 -0.002,-7.95363 -10.27723,-2.25029 z m -15.572797,-3.7461 -0.149666,4.48934 14.36574,5.08785 0.299283,-6.13541 -14.515357,-3.44178 z"
     id="path770"
     sodipodi:nodetypes="cccccccccccccccccccc"
     inkscape:connector-curvature="0" /><path
     style="font-size:12px;fill:url(#linearGradient956);fill-rule:evenodd"
     d="m 90.14068,35.755847 c -5.269675,-0.74076 -10.460459,-2.42448 -15.433698,-4.40036 2.539535,-0.38871 7.043179,0 9.94648,0.42327 3.038855,0.63486 5.669303,1.26978 8.367581,2.14269 0.370303,1.29623 -0.540513,1.72851 -2.880363,1.8344 z m 1.602242,-3.23646 c -4.867413,-1.17777 -6.21396,-1.79882 -9.205731,-2.01048 -5.954572,-3.59767 -7.406946,-4.56379 -14.17902,-8.04176 4.867412,0.54295 6.954656,1.05802 11.216223,2.11621 5.002264,2.85697 8.465082,4.66962 12.168528,7.93603 z m -11.322001,-2.11626 c -4.655804,-0.75451 -5.89657,-0.52909 -8.147644,-0.10578 -6.589444,-2.75114 -15.131328,-6.04519 -21.691746,-9.52316 4.761583,-0.30358 8.85932,-10e-5 13.332443,0.63476 5.742965,2.96286 7.301116,3.61154 16.506947,8.99418 z m -3.703497,-7.51273 c -4.549927,-1.17778 -6.214007,-1.48136 -11.322051,-2.11626 -6.377786,-3.59767 -10.581351,-5.41027 -17.353378,-8.8883 3.174408,-0.0919 7.483701,0.84643 11.956874,2.11627 5.742966,2.96275 7.406946,3.92886 16.718555,8.88829 z m -15.554541,-2.96279 c -4.655804,-0.54286 -6.319786,-0.63482 -13.332494,-0.21156 -6.589494,-3.06863 -10.369745,-5.30455 -16.506948,-8.88835 4.444148,-0.30351 9.282634,0.10573 13.755806,0.74071 5.742967,2.96274 6.772026,3.39982 16.083636,8.3592 z m -4.020934,-7.40695 C 52.06288,11.237107 50.3989,10.721867 46.24316,10.404447 40.288589,7.0184269 36.296631,5.3116069 29.736263,1.8335769 c 1.904563,0.11969 6.63717,0.84638 8.782466,1.26964 5.742966,3.06868 9.20583,4.66972 18.62322,9.4174401 z M 42.962928,10.192737 C 38.307122,9.6498769 35.796663,9.5579069 28.783957,9.5579069 c -6.377826,-3.28023 -8.465072,-4.66962 -14.390618,-8.35925 4.655754,-0.30357003 7.37792,-0.31748003 11.851084,0.31743 5.742965,2.96281 7.406945,3.71732 16.718505,8.6766501 z m 50.767442,27.22245 c -3.693218,1.72542 -45.020088,-10.1321 -83.045216,-36.86502013 5.142006,-1.43526 21.537081,0.20663 27.99586,1.84801003 C 79.382485,23.064407 100.64109,34.313497 93.73037,37.415187 Z"
     id="path652"
     inkscape:connector-curvature="0" /><path
     style="font-size:12px;fill:url(#linearGradient957);fill-rule:evenodd"
     d="m 125.90701,47.656507 c 1.95369,1.18691 37.771,-3.76948 43.50709,-12.29979 -2.77569,-1.20825 -7.74943,-1.16825 -9.31696,-1.00851 -15.97575,2.86739 -37.85332,11.15268 -34.19013,13.3083 z m 29.7764,-9.86239 c 2.61874,0.0994 4.01919,0.25615 7.91679,0.82622 2.8863,-1.16725 3.7028,-2.34637 4.35059,-3.12587 -0.66563,-0.32287 -2.28359,-0.55123 -3.37749,-0.64166 -3.36185,1.05589 -3.43044,1.14966 -8.88989,2.94131 z m -8.11996,-0.0622 c 2.89656,-0.24668 3.95669,-0.27036 6.28463,-0.0958 3.5036,-1.25598 5.18513,-1.70277 9.24239,-2.95681 -1.17125,0.0125 -2.09728,0.0543 -2.78476,0.0974 -3.63232,0.68663 -7.23605,1.49268 -12.74226,2.95518 z m -2.55344,3.58524 c 2.61873,0.0996 3.54884,0.18747 7.4222,0.97504 3.83825,-1.04137 6.06743,-1.88312 9.68386,-3.22576 -2.45267,-0.51728 -5.16531,-0.70016 -7.68779,-0.73747 -3.36176,1.05561 -3.95878,1.19658 -9.41827,2.98819 z m -8.81488,0.25823 c 2.59634,-0.23548 3.53861,-0.25614 6.41398,-0.16727 3.75084,-1.33029 6.19107,-1.92012 10.15424,-3.15689 -1.75898,-0.30522 -4.20785,-0.1734 -6.76673,0.11564 -3.36173,1.05571 -4.34196,1.41682 -9.80149,3.20852 z m -2.48898,3.55957 c 2.6309,-0.009 3.30763,0.20732 4.53447,0.60789 3.82005,-0.87814 8.75634,-1.87648 12.60193,-3.13051 -2.62912,-0.54301 -4.92388,-0.72025 -7.44651,-0.75755 -3.36167,1.05573 -4.2649,1.26245 -9.68989,3.28017 z m -6.41388,0.16717 c 2.77263,-0.20956 3.55676,-0.41928 5.23161,-0.28471 3.51569,-1.3648 4.37833,-1.74328 8.34152,-2.98006 -2.73639,-0.1166 -3.92598,-0.0216 -6.35516,0.17575 -2.94394,1.06154 -4.97254,1.7115 -7.21797,3.08902 z m 0.70498,1.79345 c 2.97129,0.0477 5.95282,-0.39568 8.83005,-1.00677 -1.38908,-0.40615 -3.91451,-0.57248 -5.55241,-0.59097 -1.72537,0.0792 -3.22368,0.19165 -4.77339,0.42092 -0.28014,0.63611 0.20132,0.9321 1.49575,1.17682 z"
     id="path654"
     sodipodi:nodetypes="ccccccccccccccccccccccccccccccccccccccc"
     inkscape:connector-curvature="0" /><path
     style="font-size:12px;fill:url(#linearGradient958);fill-rule:evenodd"
     d="m 220.88563,52.362427 c -3.05462,0.65218 -6.24793,0.38242 -9.37744,-0.22297 1.32789,-1.23877 3.89122,-1.81833 5.57704,-2.163 1.80162,-0.1776 2.33007,-0.1 3.98962,0.0381 0.45512,1.14377 0.4845,1.94182 -0.18922,2.34787 z m -0.91945,-3.29643 c -2.91676,0.13051 -4.03623,0.16542 -5.73004,0.52375 -3.98528,-1.90263 -6.49204,-2.61918 -10.90587,-4.19628 2.79413,-0.41997 5.99532,-0.95913 8.66012,-0.83586 3.31596,1.44017 5.29836,2.3414 7.97579,4.50839 z m -6.98926,1.22446 c -1.22162,0.0315 -2.4546,0.7791 -3.01786,1.46559 -4.38396,-0.2945 -10.05739,-1.13304 -14.35412,-2.7647 2.57195,-1.51951 4.05864,-2.49137 6.65262,-3.03911 3.7457,1.35032 6.38857,2.16678 10.71936,4.33822 z m -2.51275,-6.48995 c -2.74142,0.0485 -5.43821,0.36316 -8.27718,1.07473 -4.21907,-1.58178 -6.92811,-2.39744 -11.34189,-3.97459 1.73601,-0.90733 4.81979,-1.31612 7.53657,-1.25677 3.74559,1.35018 5.97936,1.81857 12.0825,4.15663 z m -9.49136,1.67535 c -2.67712,0.68294 -3.93474,1.6338 -6.98671,3.10818 -4.33952,-1.44446 -6.75443,-2.50059 -11.15534,-4.23699 2.39666,-1.43746 4.2693,-2.28773 6.86339,-2.83542 3.74551,1.35023 5.8105,2.04965 11.27866,3.96423 z m -4.21852,-6.29919 c -3.05432,0.084 -5.06934,0.46969 -7.42665,1.23907 -3.94437,-1.70024 -5.6076,-2.5131 -9.90438,-3.93341 1.07544,-0.37717 3.23949,-0.51722 4.50659,-0.66629 3.34282,0.39325 6.70364,1.25254 12.82444,3.36063 z m -8.53918,1.77758 c -2.46548,0.89453 -3.26424,1.12981 -6.29207,2.83439 -4.15778,-1.48983 -5.17442,-2.55306 -9.16139,-4.55107 2.5136,-1.49222 2.60611,-1.60958 5.2002,-2.15743 3.85143,1.56195 5.84311,1.85385 10.25326,3.87411 z m 34.9745,12.06804 c -3.08253,1.0159 -26.19648,2.25213 -52.37223,-13.49122 2.56348,-2.69978 9.38428,-4.50835 13.26991,-4.60634 22.09196,5.15722 39.51825,12.78251 39.10232,18.09756 z"
     id="path655"
     sodipodi:nodetypes="ccccccccccccccccccccccccccccccccccccccc"
     inkscape:connector-curvature="0" /><path
     style="font-size:12px;fill:url(#linearGradient959);fill-rule:evenodd"
     d="m 252.40625,55.664617 c 2.6728,0.42261 5.41725,0.40132 8.0891,0.21451 -1.20067,-0.54561 -3.45639,-1.01895 -4.93065,-1.24482 -1.56569,-0.14841 -2.93079,-0.23785 -4.35712,-0.22781 -0.33354,0.54111 0.0629,0.87095 1.19867,1.25812 z m -0.40729,-1.71635 c 2.52645,0.16399 3.26002,0.074 4.7529,0.4098 3.34332,-0.78867 4.1692,-1.02177 7.89973,-1.63726 -2.45217,-0.45517 -3.53677,-0.5209 -5.75194,-0.65211 -2.7893,0.58674 -4.70095,0.91718 -6.90069,1.87957 z m 5.80385,0.66734 c 2.37306,0.32751 2.95566,0.61033 4.01071,1.13024 3.55582,-0.30855 8.13328,-0.58359 11.75997,-1.22974 -2.30124,-0.82817 -4.34759,-1.28186 -6.61711,-1.63774 -3.16513,0.52814 -4.00583,0.60025 -9.15357,1.73724 z m 2.69702,-2.91009 c 2.37072,0.118 3.22288,0.21959 5.80396,0.66729 3.5509,-0.72738 5.82605,-0.95071 9.55649,-1.56618 -1.54698,-0.50137 -3.77163,-0.69456 -6.11537,-0.75916 -3.16522,0.52811 -4.09494,0.73043 -9.24508,1.65805 z m 7.98004,0.89142 c 2.34831,0.42457 3.17569,0.6231 6.5675,1.83179 3.59302,-0.45417 5.70984,-0.93285 9.14123,-1.68871 -2.14538,-0.7822 -4.56772,-1.29438 -6.83715,-1.65031 -3.16527,0.52799 -3.7214,0.57956 -8.87158,1.50723 z m 2.75841,-2.92514 c 2.64288,0.14612 3.60166,0.25998 5.67818,0.71551 3.31865,-0.69163 4.89151,-0.88204 8.70897,-1.50115 -1.05755,-0.13819 -1.8977,-0.21865 -2.52304,-0.26723 -3.36213,0.15885 -6.71372,0.42961 -11.86411,1.05287 z m 7.31278,1.09314 c 2.34833,0.42445 3.591,0.74544 7.03237,1.76013 2.75074,-0.69002 3.63697,-1.65499 4.32016,-2.27916 -0.55906,-0.37781 -1.9886,-0.79147 -2.96334,-1.01319 -3.16538,0.52828 -3.23909,0.60459 -8.38919,1.53222 z m -28.10069,5.14147 c 1.61032,1.32573 34.53286,1.40449 40.79,-5.59855 -2.34863,-1.45013 -6.83785,-2.0489 -8.27143,-2.1042 -14.76812,0.48561 -35.5468,5.28025 -32.51857,7.70275 z"
     id="path656"
     sodipodi:nodetypes="ccccccccccccccccccccccccccccccccccccccc"
     inkscape:connector-curvature="0" /><path
     style="font-size:12px;fill:url(#linearGradient4316);fill-rule:evenodd"
     d="m 153.59366,50.520967 c -0.041,1.83987 -17.71854,3.34938 -39.33297,1.93774 -21.614439,-1.41164 -38.998801,-3.94023 -38.957852,-5.78006 0.02054,-0.92004 -0.04244,-2.69934 0.0096,-4.74367 -0.0063,2.08193 20.20926,4.9242 38.999062,5.95466 30.60376,1.83261 39.39915,0.56214 39.50551,-0.736 -0.1485,3.13321 -0.082,1.39085 -0.22333,3.36733 z"
     id="path658"
     sodipodi:nodetypes="ccccccc"
     inkscape:connector-curvature="0" /><path
     style="font-size:12px;fill:#808080;fill-rule:evenodd"
     d="m 92.421732,37.401457 17.953018,11.75251 0.15734,-1.81512 -16.007611,-10.2561 -2.102747,0.31871 z"
     id="path1015"
     sodipodi:nodetypes="ccccc"
     inkscape:connector-curvature="0" /><path
     style="font-size:12px;fill:url(#linearGradient4318);fill-rule:evenodd"
     d="m 74.538264,42.168837 c 0.0415,-1.83987 15.686352,-2.53239 37.820306,-1.11459 22.13402,1.41786 42.16458,4.30023 42.12307,6.14014 -1.86041,2.76677 -2.32716,-3.20542 -41.55193,-5.39331 -41.039152,-1.57854 -36.745768,3.078 -38.391446,0.36776 z"
     id="path660"
     sodipodi:nodetypes="ccccc"
     inkscape:connector-curvature="0" /><path
     style="font-size:12px;fill:url(#linearGradient962);fill-rule:evenodd"
     d="m 153.4894,50.735657 c -0.12668,2.00252 -25.64809,2.68786 -39.74489,1.61232 -10.99607,-0.82818 -38.520754,-3.49055 -38.43672,-5.70577 0.07176,-1.84671 21.792438,-1.87912 37.32563,-0.82309 13.9341,1.02213 40.8879,3.67328 40.85598,4.91654 z m 0.8353,0.0679 c -0.0416,1.83989 -16.62903,3.56496 -40.53509,2.1228 -22.180844,-1.33482 -39.487489,-4.4603 -39.445946,-6.30023 0.05032,-2.8849 32.848816,-1.87987 37.652756,-1.38893 5.90813,0.60375 40.67952,2.85607 42.32828,5.56636 z"
     id="path665"
     sodipodi:nodetypes="csssscscsc"
     inkscape:connector-curvature="0" /><path
     style="font-size:12px;fill:url(#linearGradient4320);fill-rule:evenodd"
     d="m 208.97229,54.908557 c 0.0536,-1.36034 11.19968,-1.68637 26.93749,-0.37432 15.73782,1.31204 29.95912,3.6823 29.90553,5.04269 -1.36058,2.02423 -1.61472,-2.39855 -29.50872,-4.48352 -29.19366,-1.65589 -26.19828,1.83935 -27.3343,-0.18485 z"
     id="path671"
     sodipodi:nodetypes="ccccc"
     inkscape:connector-curvature="0" /><path
     style="font-size:12px;fill:url(#linearGradient961);fill-rule:evenodd"
     d="m 265.65592,62.244447 c -0.0536,1.3603 -11.71241,2.73854 -28.67944,1.388 -15.74264,-1.25078 -28.44756,-4.06733 -28.39398,-5.42772 0.0736,-2.13315 23.66394,-1.00024 27.07083,-0.5801 4.19001,0.51674 28.86658,2.59563 30.00259,4.61982 z m -0.59264,-0.0601 c -0.11619,1.47962 -18.25884,1.68341 -28.26091,0.72048 -7.80222,-0.74317 -27.3244,-3.03926 -27.23573,-4.67671 0.0752,-1.36501 15.50874,-1.13102 26.53168,-0.16547 9.88719,0.92149 29.00394,3.20249 28.96496,4.1217 z"
     id="path673"
     sodipodi:nodetypes="cscsccssss"
     inkscape:connector-curvature="0" /><path
     style="font-size:12px;fill:#808080;fill-rule:evenodd;stroke-width:1"
     d="m 265.40884,59.320427 0.0223,2.20285 c -0.0383,-1.30555 -28.5861,-4.224 -42.68597,-4.29982 -3.64745,-0.022 -13.43239,0.0654 -13.37459,0.93106 l -0.0398,-2.449 c -0.0638,-1.11685 9.98593,-1.45013 13.63651,-1.35233 24.39312,0.65097 42.42526,3.49234 42.44142,4.96724 z"
     id="path674"
     sodipodi:nodetypes="ccsccsc"
     inkscape:connector-curvature="0" /><rect
     style="font-size:12px;fill:url(#linearGradient1000);fill-rule:evenodd;stroke-width:1"
     id="rect677"
     width="2.4412382"
     height="21.564745"
     x="110.69469"
     y="49.306301" /><rect
     style="font-size:12px;fill:url(#linearGradient1001);fill-rule:evenodd;stroke-width:1"
     id="rect678"
     width="1.4813982"
     height="16.449331"
     x="235.87996"
     y="58.004314" /><path
     style="font-size:12px;fill:url(#linearGradient989);fill-rule:evenodd"
     d="m 140.73258,56.409807 -4.96191,6.81447 1.47451,5.63109 4.40709,-4.6782 -0.91969,-7.76736 z m 0.20861,-1.09255 -5.66656,7.81465 1.76293,6.45559 5.1629,-5.32294 -1.25927,-8.9473 z"
     id="path707"
     inkscape:connector-curvature="0" /><path
     style="font-size:12px;fill:url(#linearGradient988);fill-rule:evenodd"
     d="m 150.98487,106.3785 8.40099,-13.585103 -2.68959,-9.14657 -7.4066,8.00097 1.6952,14.730703 z m -0.42541,1.59255 9.50137,-14.687613 -3.01576,-11.00466 -8.30638,8.99407 1.82077,16.698203 z"
     id="path708"
     sodipodi:nodetypes="cccccccccc"
     inkscape:connector-curvature="0" /><rect
     style="font-size:12px;fill:url(#linearGradient930);fill-rule:evenodd;stroke-width:1"
     id="rect775"
     width="1.2697828"
     height="26.885508"
     x="188.33659"
     y="57.523037" /><g
     id="g863"
     transform="matrix(0.50025199,0.04296677,-0.03121068,0.63822099,-0.33074278,-237.62493)"
     style="font-size:12px"><ellipse
       style="font-size:12px;fill:url(#radialGradient4322);fill-rule:evenodd"
       id="path806"
       transform="matrix(-0.512142,-0.688398,-0.715874,0.492485,874.129,577.6707)"
       cx="416.27924"
       cy="367.26245"
       rx="3.1825714"
       ry="4.4555664" /><path
       style="font-size:12px;fill:url(#linearGradient4324);fill-rule:evenodd"
       d="m 399.7375,469.3661 c 2.435,0.0284 2.7462,3.0927 3.785,5.4147 -0.6321,2.1883 -2.798,3.8999 -5.0623,2.5599 -1.5155,-1.6168 -4.7241,-3.0062 -3.5849,-4.7468 0.9252,-1.5958 2.9384,-3.127 4.8622,-3.2278 z"
       id="path803"
       sodipodi:nodetypes="ccccc"
       inkscape:connector-curvature="0" /></g><g
     id="g868"
     transform="matrix(0.50025199,0.04296677,-0.03121068,0.63822099,-2.9528602,-237.94635)"
     style="font-size:12px"><ellipse
       style="font-size:12px;fill:url(#radialGradient4326);fill-rule:evenodd"
       id="path869"
       transform="matrix(-0.512142,-0.688398,-0.715874,0.492485,874.129,577.6707)"
       cx="416.27924"
       cy="367.26245"
       rx="3.1825714"
       ry="4.4555664" /><path
       style="font-size:12px;fill:url(#linearGradient4328);fill-rule:evenodd"
       d="m 399.7375,469.3661 c 2.435,0.0284 2.7462,3.0927 3.785,5.4147 -0.6321,2.1883 -2.798,3.8999 -5.0623,2.5599 -1.5155,-1.6168 -4.7241,-3.0062 -3.5849,-4.7468 0.9252,-1.5958 2.9384,-3.127 4.8622,-3.2278 z"
       id="path870"
       sodipodi:nodetypes="ccccc"
       inkscape:connector-curvature="0" /></g><g
     id="g871"
     transform="matrix(0.50025199,0.04296677,-0.03121068,0.63822099,-5.9947805,-238.1595)"
     style="font-size:12px"><ellipse
       style="font-size:12px;fill:url(#radialGradient4330);fill-rule:evenodd"
       id="path872"
       transform="matrix(-0.512142,-0.688398,-0.715874,0.492485,874.129,577.6707)"
       cx="416.27924"
       cy="367.26245"
       rx="3.1825714"
       ry="4.4555664" /><path
       style="font-size:12px;fill:url(#linearGradient4332);fill-rule:evenodd"
       d="m 399.7375,469.3661 c 2.435,0.0284 2.7462,3.0927 3.785,5.4147 -0.6321,2.1883 -2.798,3.8999 -5.0623,2.5599 -1.5155,-1.6168 -4.7241,-3.0062 -3.5849,-4.7468 0.9252,-1.5958 2.9384,-3.127 4.8622,-3.2278 z"
       id="path873"
       sodipodi:nodetypes="ccccc"
       inkscape:connector-curvature="0" /></g><g
     id="g874"
     transform="matrix(0.50025199,0.04296677,-0.03121068,0.63822099,-9.2008698,-238.09832)"
     style="font-size:12px"><ellipse
       style="font-size:12px;fill:url(#radialGradient862);fill-rule:evenodd"
       id="path875"
       transform="matrix(-0.512142,-0.688398,-0.715874,0.492485,874.129,577.6707)"
       cx="416.27924"
       cy="367.26245"
       rx="3.1825714"
       ry="4.4555664" /><path
       style="font-size:12px;fill:url(#linearGradient854);fill-rule:evenodd"
       d="m 399.7375,469.3661 c 2.435,0.0284 2.7462,3.0927 3.785,5.4147 -0.6321,2.1883 -2.798,3.8999 -5.0623,2.5599 -1.5155,-1.6168 -4.7241,-3.0062 -3.5849,-4.7468 0.9252,-1.5958 2.9384,-3.127 4.8622,-3.2278 z"
       id="path876"
       sodipodi:nodetypes="ccccc"
       inkscape:connector-curvature="0" /></g><path
     style="font-size:12px;fill:url(#linearGradient866);fill-rule:evenodd"
     d="m 174.80391,82.699747 2.79909,1.26355 1.17511,4.76331 -1.03042,3.63443 c -0.30986,0.61236 -0.95041,1.05205 -1.26736,1.03874 l 12.82572,-0.32953 c 0.35524,0.002 0.91674,-0.36355 1.10775,-0.85677 l 1.27177,-3.46323 -1.40176,-5.04188 -2.80294,-1.26548 -12.67696,0.25686 z"
     id="path802"
     sodipodi:nodetypes="ccccccccccc"
     inkscape:connector-curvature="0" /><path
     style="font-size:12px;fill:url(#linearGradient867);fill-rule:evenodd"
     d="m 174.3816,82.662327 -2.0633,2.23687 0.37007,3.61615 c 0.1449,1.41597 0.47406,2.93901 1.2349,3.41223 l 1.94966,1.21269 c 1.04373,0.64922 1.68497,0.0621 2.0895,-1.31626 l 0.89528,-3.05057 -1.24688,-5.13671 -3.22923,-0.9744 z"
     id="path780"
     sodipodi:nodetypes="ccssssccc"
     inkscape:connector-curvature="0" /><path
     style="font-size:12px;fill:url(#linearGradient888);fill-rule:evenodd"
     d="m 191.61846,81.468017 c -0.79068,-0.44612 -2.00687,1.50762 -3.3015,2.65003 -1.33737,0.97313 -0.38736,4.74183 1.50027,3.94594 1.47388,-0.44715 3.60193,-0.13996 3.54319,-1.94243 -1.92113,0.048 -3.91501,-2.6169 -1.74196,-4.65354 z"
     id="path782"
     sodipodi:nodetypes="ccccc"
     inkscape:connector-curvature="0" /><ellipse
     style="font-size:12px;fill:url(#radialGradient855);fill-rule:evenodd"
     id="path783"
     transform="matrix(0.85726332,-0.51487824,0.26954885,0.96298672,0,0)"
     cx="168.29686"
     cy="177.54808"
     rx="1.6145036"
     ry="2.8994439" /><path
     style="font-size:12px;fill:url(#linearGradient898);fill-rule:evenodd"
     d="m 188.45461,81.436647 c -0.7907,-0.44612 -2.00689,1.50763 -3.30152,2.65002 -1.33737,0.97314 -0.38736,4.74184 1.50028,3.94595 1.47386,-0.44714 3.60193,-0.13997 3.54319,-1.94242 -1.92114,0.048 -3.91503,-2.61691 -1.74195,-4.65355 z"
     id="path878"
     sodipodi:nodetypes="ccccc"
     inkscape:connector-curvature="0" /><ellipse
     style="font-size:12px;fill:url(#radialGradient906);fill-rule:evenodd"
     id="path879"
     transform="matrix(0.85726332,-0.51487824,0.26954885,0.96298672,0,0)"
     cx="165.14613"
     cy="175.83086"
     rx="1.6145036"
     ry="2.8994439" /><path
     style="font-size:12px;fill:url(#linearGradient901);fill-rule:evenodd"
     d="m 185.31653,81.647947 c -0.79069,-0.4461 -2.00687,1.50763 -3.30148,2.65004 -1.33738,0.97313 -0.38737,4.74183 1.50025,3.94593 1.47387,-0.44714 3.60194,-0.13995 3.54319,-1.94242 -1.92113,0.048 -3.915,-2.6169 -1.74196,-4.65355 z"
     id="path881"
     sodipodi:nodetypes="ccccc"
     inkscape:connector-curvature="0" /><ellipse
     style="font-size:12px;fill:url(#radialGradient905);fill-rule:evenodd"
     id="path882"
     transform="matrix(0.85726332,-0.51487824,0.26954885,0.96298672,0,0)"
     cx="161.95337"
     cy="174.34322"
     rx="1.6145036"
     ry="2.8994439" /><path
     style="font-size:12px;fill:url(#linearGradient853);fill-rule:evenodd"
     d="m 182.12219,81.469667 c -0.79069,-0.44612 -2.00689,1.5076 -3.30151,2.65003 -1.33738,0.97312 -0.38736,4.74183 1.50027,3.94594 1.47386,-0.44715 3.60194,-0.13996 3.54319,-1.94241 -1.92114,0.048 -3.91502,-2.61693 -1.74195,-4.65356 z"
     id="path884"
     sodipodi:nodetypes="ccccc"
     inkscape:connector-curvature="0" /><ellipse
     style="font-size:12px;fill:url(#radialGradient904);fill-rule:evenodd"
     id="path885"
     transform="matrix(0.85726332,-0.51487824,0.26954885,0.96298672,0,0)"
     cx="158.81326"
     cy="172.47917"
     rx="1.6145036"
     ry="2.8994439" /><path
     style="font-size:12px;fill:url(#linearGradient994);fill-rule:evenodd"
     d="m 210.91915,60.061077 -3.61079,12.01478 5.65156,8.3021 4.04391,-9.64983 -6.08468,-10.66705 z m 0.27585,1.51926 -3.1827,10.41752 4.85251,7.33483 3.36845,-8.49914 -5.03826,-9.25321 z"
     id="path718"
     sodipodi:nodetypes="cccccccccc"
     inkscape:connector-curvature="0" /><path
     style="font-size:12px;fill:url(#linearGradient990);fill-rule:evenodd"
     d="m 131.86309,87.007387 7.16296,-10.44071 -1.76293,-6.64709 -5.16289,5.48084 -0.23714,11.60696 z m 0.20856,-1.12495 6.45838,-9.41086 -1.47452,-5.79811 -4.40709,4.81693 -0.57677,10.39204 z"
     id="path719"
     sodipodi:nodetypes="cccccccccc"
     inkscape:connector-curvature="0" /><path
     style="font-size:12px;fill:url(#linearGradient996);fill-rule:evenodd"
     d="m 223.57378,61.378797 -1.8545,5.65006 3.51009,4.55914 2.0712,-5.28877 -3.72679,-4.92043 z m 0.19735,0.75842 -1.63322,4.82391 3.01227,4.10119 1.69261,-4.6788 -3.07166,-4.2463 z"
     id="path720"
     sodipodi:nodetypes="cccccccccc"
     inkscape:connector-curvature="0" /><path
     style="font-size:12px;fill:url(#linearGradient1026);fill-rule:evenodd;stroke-width:1"
     d="m 162.89412,108.35792 c 0,4.96731 -2.4161,8.99412 -5.39651,8.99412 -2.98034,0 -5.39645,-4.02681 -5.39645,-8.99412 0,-4.96746 2.41611,-8.994223 5.39645,-8.994223 2.98041,0 5.39651,4.026763 5.39651,8.994223 z m -0.99938,-0.0977 c 0,4.37337 -1.92393,7.91878 -4.29723,7.91878 -2.37322,0 -4.29717,-3.54541 -4.29717,-7.91878 0,-4.37348 1.92395,-7.91879 4.29717,-7.91879 2.3733,0 4.29723,3.54531 4.29723,7.91879 z"
     id="path727"
     inkscape:connector-curvature="0" /><ellipse
     style="fill:#808080;fill-opacity:1;fill-rule:evenodd;stroke:none;stroke-width:1pt;stroke-linecap:butt;stroke-linejoin:miter;stroke-opacity:1"
     id="path1008"
     cx="157.85553"
     cy="108.34694"
     rx="1.4813982"
     ry="2.3278971" /><path
     style="font-size:12px;fill:url(#linearGradient1003);fill-rule:evenodd"
     d="m 113.32661,53.524877 0.52262,1.26738 122.29955,7.64877 0.0759,-1.26737 -122.89814,-7.64878 z"
     id="path1013"
     sodipodi:nodetypes="ccccc"
     inkscape:connector-curvature="0" /><path
     style="font-size:12px;fill:url(#linearGradient991);fill-rule:evenodd"
     d="m 175.09721,95.639647 -7.46555,12.962993 12.52332,0.62551 -5.05777,-13.588503 z m -14.18307,-0.84718 -1.46923,13.459683 7.34617,0.31299 7.34615,-13.146683 -13.22309,-0.62599 z m 28.6499,1.252 -0.88149,13.772753 -7.78697,-0.46959 -4.99533,-13.772663 13.66379,0.4695 z m -29.38451,-2.34759 -1.76307,15.337863 31.00071,1.72153 1.3223,-15.650753 -30.55994,-1.40864 z"
     id="path755"
     inkscape:connector-curvature="0" /><path
     style="font-size:12px;fill:url(#linearGradient999);fill-rule:evenodd"
     d="m 256.94835,65.203137 -0.0137,2.74073 -10.75286,2.67383 -0.0514,-3.74848 10.81789,-1.66608 z m -11.60748,1.82003 -0.13335,3.94782 -7.59257,1.96586 0.072,-4.84776 7.65406,-1.06592 z m 31.5893,-5.31012 -0.0827,1.82417 -39.74029,10.08388 -0.0399,-6.00914 39.86303,-5.89891 z m -0.57058,0.49393 0.0333,0.98886 -18.59029,4.55283 -0.0678,-2.72262 18.62461,-2.81907 z"
     id="path772"
     sodipodi:nodetypes="cccccccccccccccccccc"
     inkscape:connector-curvature="0" /><path
     style="font-size:12px;fill:url(#linearGradient993);fill-rule:evenodd"
     d="m 184.11667,78.113317 -6.66417,14.30301 12.0628,-1.04746 7.84843,-13.59867 -13.24706,0.34312 z m -22.72968,3.043 20.52792,-3.80933 -10.62518,-1.13828 -9.90274,4.94761 z m 21.3745,-21.48029 -12.48605,15.76629 -13.91455,7.5657 26.62279,-5.02616 -7.23166,15.33735 14.41637,-1.40385 8.35925,-14.29064 5.39649,-0.43652 8.51262,3.58001 0.57154,-0.65103 -8.1696,-3.78913 -1.77788,-1.86791 -9.29475,-14.36085 -6.34882,0.21165 -4.65575,-0.63491 z m 0.31739,1.16395 -11.26541,13.77402 11.89493,0.34621 3.60301,-13.69695 -4.23253,-0.42328 z m 5.29067,0.52915 -3.95888,15.67328 13.58792,-0.22447 5.18491,-0.63486 -10.05231,-15.02556 -4.76164,0.21161 z m 28.3581,13.86158 0,0 z m -42.82369,0.0613 9.35266,1.49647 0.37404,-1.12237 -9.7267,-0.3741 z"
     id="path948"
     sodipodi:nodetypes="ccccccccccccccccccccccccccccccccccccccccc"
     inkscape:connector-curvature="0" /><g
     id="g939"
     transform="matrix(0.49872041,0,0,0.49872041,-23.998768,-99.677519)"><path
       style="font-size:12px;fill:url(#linearGradient931);fill-rule:evenodd"
       d="m 350.9302,349.2288 c -3.3947,0.1414 -2.546,10.0427 0,10.6085 l 36.9177,0 c -3.3947,-0.1414 -4.2434,-10.467 0,-10.6085 l -36.9177,0 z"
       id="path731"
       sodipodi:nodetypes="ccccc"
       transform="matrix(0.998912,0.04663101,-0.04663101,0.998912,16.09075,-17.06844)"
       inkscape:connector-curvature="0" /><path
       style="font-size:12px;fill:url(#radialGradient935);fill-rule:evenodd"
       d="m 390.2467,354.809 c -0.1394,2.9848 -1.6282,5.3402 -3.3254,5.261 -1.6973,-0.0792 -2.9602,-2.5631 -2.8208,-5.5479 0.1393,-2.9849 1.6281,-5.3405 3.3254,-5.2612 1.6972,0.0792 2.9601,2.5632 2.8208,5.5481 z"
       id="path733"
       inkscape:connector-curvature="0" /><path
       style="font-size:12px;fill:url(#linearGradient936);fill-rule:evenodd"
       d="m 366.843,341.8027 0.2122,7.6381 c 0.0589,2.1221 4.303,2.5358 4.2434,0.2122 l -0.2121,-8.2746 c 0.0757,2.9516 -4.1772,2.8102 -4.2435,0.4243 z"
       id="path740"
       sodipodi:nodetypes="cssss"
       inkscape:connector-curvature="0" /><ellipse
       style="fill:url(#radialGradient938);fill-opacity:1;fill-rule:evenodd;stroke:none;stroke-width:1pt;stroke-linecap:butt;stroke-linejoin:miter;stroke-opacity:1"
       id="path741"
       cx="368.96475"
       cy="342.86353"
       rx="2.7582397"
       ry="1.4851837" /></g><path
     style="font-size:12px;fill:url(#linearGradient987);fill-rule:evenodd"
     d="m 163.45039,56.660357 -9.31161,12.87901 2.8041,12.99241 9.04709,-10.60903 -2.53958,-15.26239 z m -0.29769,1.8342 -8.28608,11.26608 2.42507,11.43567 7.98855,-9.53878 -2.12754,-13.16297 z"
     id="path706"
     sodipodi:nodetypes="cccccccccc"
     inkscape:connector-curvature="0" /><path
     style="font-size:12px;fill:url(#linearGradient1002);fill-rule:evenodd"
     d="m 113.3476,53.538867 c -1.55193,-1.1287 -2.25742,1.76357 -0.42328,2.9627 l 59.14994,37.03493 c 1.35547,0.84868 3.36692,1.69964 4.96002,1.56079 l 21.2027,-1.84861 c 1.27349,-0.11101 2.76775,-0.23195 3.7779,-1.01519 l 34.07673,-26.42027 0.21161,-3.59767 -34.88694,26.92368 c -1.24984,0.96462 -2.13477,1.11598 -3.27684,1.24486 l -21.13163,2.38517 c -1.57352,0.17759 -3.3942,-1.29323 -4.82772,-2.19566 L 113.3476,53.538867 Z"
     id="path676"
     sodipodi:nodetypes="ccssssccssssc"
     inkscape:connector-curvature="0" /><path
     style="font-size:12px;fill:url(#linearGradient1027);fill-rule:evenodd;stroke-width:1"
     d="m 196.30559,110.46671 c 0,5.37641 -2.55823,9.73487 -5.71393,9.73487 -3.15571,0 -5.71395,-4.35846 -5.71395,-9.73487 0,-5.37646 2.55824,-9.73487 5.71395,-9.73487 3.1557,0 5.71393,4.35841 5.71393,9.73487 z m -1.05818,-0.10582 c 0,4.73355 -2.03708,8.5709 -4.54999,8.5709 -2.51283,0 -4.54996,-3.83735 -4.54996,-8.5709 0,-4.73361 2.03713,-8.57092 4.54996,-8.57092 2.51291,0 4.54999,3.83731 4.54999,8.57092 z"
     id="path725"
     inkscape:connector-curvature="0" /><path
     style="font-size:12px;fill:#808080;fill-rule:evenodd"
     d="m 252.53552,56.106727 -15.25946,3.97106 -0.15738,-1.21658 13.9127,-3.37245 1.50414,0.61797 z"
     id="path1025"
     sodipodi:nodetypes="ccccc"
     inkscape:connector-curvature="0" /><ellipse
     style="fill:#808080;fill-opacity:1;fill-rule:evenodd;stroke:none;stroke-width:1pt;stroke-linecap:butt;stroke-linejoin:miter;stroke-opacity:1"
     id="path1006"
     cx="190.62733"
     cy="110.14264"
     rx="1.4813982"
     ry="2.3278971" /><ellipse
     style="fill:#808080;fill-opacity:1;fill-rule:evenodd;stroke:none;stroke-width:1pt;stroke-linecap:butt;stroke-linejoin:miter;stroke-opacity:1"
     id="path1007"
     cx="216.36591"
     cy="107.00014"
     rx="1.4813982"
     ry="2.3278971" /><path
     style="font-size:12px;fill:url(#linearGradient963);fill-opacity:1;fill-rule:evenodd"
     d="m 75.037533,43.133567 0.04384,3.155 c -0.05701,-2.72241 45.591767,-2.29101 78.887647,3.69432 2.7265,0.50236 27.64292,6.20937 36.18187,6.62595 16.98931,0.58903 23.93463,-0.0411 33.23473,0.21406 10.41672,0.28118 42.04078,2.56501 42.08003,5.52228 l 0.14967,-2.21622 c -0.0413,-2.59589 -33.35722,-6.00877 -42.45178,-5.97112 -4.21275,0.0179 -12.46039,1.5579 -34.32857,1.5579 -6.45623,0 -29.63891,-7.50211 -34.76012,-8.74537 -29.81556,-7.20192 -79.186182,-7.02621 -79.037315,-3.8368 z"
     id="path615"
     sodipodi:nodetypes="ccscsccscsc"
     inkscape:connector-curvature="0" /><rect
     style="font-size:12px;fill:#808080;fill-rule:evenodd;stroke-width:1"
     id="rect776"
     width="1.4813828"
     height="4.5499868"
     x="189.49747"
     y="55.290279" /><path
     style="font-size:12px;fill:#808080;fill-rule:evenodd"
     d="m 182.95745,59.728937 4.78855,1.0475 5.9857,-0.44888 -3.59145,-0.74829 -7.1828,0.14967 z"
     id="path1012"
     sodipodi:nodetypes="ccccc"
     inkscape:connector-curvature="0" /><rect
     style="font-size:12px;fill:#3e3939;fill-opacity:1;fill-rule:evenodd"
     id="rect777"
     width="7.9692459"
     height="6.4409251"
     x="184.61256"
     y="53.927807"
     ry="2.0128725" /><path
     style="font-size:12px;fill:#808080;fill-rule:evenodd"
     d="m 113.26825,49.928997 13.09928,-2.09091 -1.06696,-1.05524 -12.20139,1.79155 0.16907,1.3546 z"
     id="path1016"
     sodipodi:nodetypes="ccccc"
     inkscape:connector-curvature="0" /><rect
     style="font-size:12px;fill:url(#linearGradient1010);fill-rule:evenodd"
     id="rect1018"
     width="3.5914454"
     height="6.1353345"
     x="110.0813"
     y="45.961788"
     ry="1.0474985" /><path
     style="font-size:12px;fill:url(#linearGradient937);fill-rule:evenodd"
     d="m 60.049588,32.688967 c -1.178126,9.04533 -0.844583,21.05926 1.619944,27.83359 6.588048,-0.5891 14.874038,-1.55801 20.764773,-3.68167 1.030855,-7.42544 -0.186272,-20.17573 -1.914487,-21.50117 -6.73527,-1.47272 -15.75762,-2.27093 -20.47023,-2.65075 z m -1.873093,-0.14733 c -1.619994,9.63014 -1.225855,19.88124 1.619894,28.12813 -8.346536,0.5891 -13.254046,0.94135 -19.292004,0.73632 -2.945344,-7.71562 -3.633977,-24.15179 -1.619894,-28.56985 8.05204,-0.88363 15.610349,-0.64689 19.292004,-0.2946 z m -21.79553,0.44182 c -1.472721,7.27389 -0.931311,20.02841 1.914437,28.42267 -8.05204,-0.29454 -11.928693,-0.67865 -17.819364,-1.76726 -2.503523,-8.30469 -2.897656,-21.20644 -1.325365,-24.44638 8.052041,-1.32544 12.959549,-1.82497 17.230292,-2.20903 z m -19.14482,2.65085 c -1.030865,8.75085 -0.922608,13.69592 1.619943,24.00466 -6.88255,-1.0309 -10.7505262,-1.70517 -16.3466928,-3.97624 -1.6199387,-5.95269 -1.2863896,-15.3158 -0.2945344,-16.34671 6.5880172,-1.76722 10.6032592,-3.00736 15.0212842,-3.68171 z m 65.092282,-1.47267 c 2.208983,6.84982 3.002448,17.23034 1.3254,24.59374 -27.448924,6.18524 -67.890353,5.37711 -82.0280397,-2.20909 C -0.28869068,50.727427 -0.34582909,45.795827 0.59492717,38.432377 24.509404,29.890897 62.889104,28.931857 82.328427,34.161637 Z"
     id="path631"
     inkscape:connector-curvature="0" /><path
     style="font-size:12px;fill:#f3e9a9;fill-opacity:0.6298;fill-rule:evenodd;stroke-width:1"
     d="M 92.423473,32.867907 C 87.63491,32.016227 79.605614,29.949887 72.745464,30.997397 63.790241,29.800317 15.357336,5.3798269 13.71126,0.99397687 c 2.843219,-0.94407 12.51855,-0.52374 24.466645,1.72089003 17.634506,8.9785701 50.20524,25.0189601 54.245568,30.1530401 z"
     id="path1031"
     sodipodi:nodetypes="ccccc"
     inkscape:connector-curvature="0" /><path
     style="font-size:12px;fill:#f3e7a8;fill-opacity:0.79560002;fill-rule:evenodd;stroke-width:1"
     d="m 82.846348,57.110057 c -29.629328,7.51752 -68.467442,5.01308 -80.5827673,-1.12227 -1.49068016,-6.73397 -1.72090447,-13.5073 -0.523761,-16.38596 13.0189423,-5.72181 48.8642043,-11.1484 78.9366963,-4.56409 2.538187,4.93823 3.067678,12.75902 2.169832,22.07232 z"
     id="path1033"
     sodipodi:nodetypes="ccccc"
     inkscape:connector-curvature="0" /><path
     style="font-size:12px;fill:#f3e9a9;fill-opacity:0.6298;fill-rule:evenodd;stroke-width:1"
     d="m 220.76987,49.400437 c -3.89072,0.12098 -8.29486,0.0531 -10.59088,2.97122 -12.02289,-0.9726 -28.24523,-7.0156 -38.19644,-13.19724 2.61874,-1.69226 7.09145,-3.28332 12.30557,-3.73222 7.68329,1.19713 31.61838,8.97383 36.48175,13.95824 z"
     id="path1035"
     sodipodi:nodetypes="ccccc"
     inkscape:connector-curvature="0" /><path
     style="font-size:12px;fill:#f3e9a9;fill-opacity:0.6298;fill-rule:evenodd;stroke-width:1"
     d="m 251.51778,54.123877 c 3.1807,0.0628 7.90342,0.47652 9.92997,1.83918 9.82874,-0.50406 26.98123,-2.13946 28.75647,-5.94182 -2.1408,-0.87704 -3.17849,-1.17782 -7.21658,-1.70976 -6.58037,0.0967 -27.49406,3.22916 -31.46986,5.8124 z"
     id="path1036"
     sodipodi:nodetypes="ccccc"
     inkscape:connector-curvature="0" /><path
     style="fill:none;fill-opacity:1;fill-rule:evenodd;stroke:#000000;stroke-width:1.00000019pt;stroke-linecap:butt;stroke-linejoin:miter;stroke-opacity:1"
     d="M 112.92453,53.743197 183.556,77.985407"
     id="path1038"
     inkscape:connector-curvature="0" /><path
     style="fill:none;fill-opacity:1;fill-rule:evenodd;stroke:#000000;stroke-width:1.00000019pt;stroke-linecap:butt;stroke-linejoin:miter;stroke-opacity:1"
     d="M 180.56313,109.53434 112.32596,56.287117"
     id="path1039"
     sodipodi:nodetypes="cc"
     inkscape:connector-curvature="0" /><path
     style="fill:none;fill-opacity:1;fill-rule:evenodd;stroke:#000000;stroke-width:1.00000019pt;stroke-linecap:butt;stroke-linejoin:miter;stroke-opacity:1"
     d="m 235.93132,62.272417 -31.7243,14.06645"
     id="path1043"
     inkscape:connector-curvature="0" /><path
     style="fill:none;fill-opacity:1;fill-rule:evenodd;stroke:#000000;stroke-width:1.00000019pt;stroke-linecap:butt;stroke-linejoin:miter;stroke-opacity:1"
     d="M 215.43032,101.62844 236.08109,69.904077"
     id="path1049"
     inkscape:connector-curvature="0" /><path
     style="font-size:12px;fill:url(#linearGradient1028);fill-rule:evenodd;stroke-width:1"
     d="m 221.06602,107.50392 c 0,5.25949 -2.17927,9.52321 -4.86742,9.52321 -2.6882,0 -4.86746,-4.26372 -4.86746,-9.52321 0,-5.25961 2.17926,-9.523283 4.86746,-9.523283 2.68815,0 4.86742,4.263673 4.86742,9.523283 z m -0.90145,-0.10354 c 0,4.63062 -1.73524,8.38459 -3.8759,8.38459 -2.14056,0 -3.87591,-3.75397 -3.87591,-8.38459 0,-4.63072 1.73535,-8.384593 3.87591,-8.384593 2.14066,0 3.8759,3.753873 3.8759,8.384593 z"
     id="path726"
     inkscape:connector-curvature="0" /><path
     style="fill:none;fill-opacity:1;fill-rule:evenodd;stroke:#000000;stroke-width:1.00000019pt;stroke-linecap:butt;stroke-linejoin:miter;stroke-opacity:1"
     d="m 150.26073,107.68894 30.22789,1.87061"
     id="path1050"
     sodipodi:nodetypes="cc"
     inkscape:connector-curvature="0" /><path
     style="font-size:12px;fill:#f3e9a9;fill-opacity:0.6298;fill-rule:evenodd;stroke-width:1"
     d="m 132.45916,42.772987 c 3.40516,0.43687 9.69912,1.07509 12.47389,1.61471 11.25033,-2.225 23.31499,-6.17984 23.59381,-9.1591 -2.21566,-0.72743 -6.39582,-0.9534 -8.18928,-0.73705 -5.83214,0.91969 -23.60329,6.14712 -27.87842,8.28144 z"
     id="path1053"
     sodipodi:nodetypes="ccccc"
     inkscape:connector-curvature="0" /><path
     style="font-size:12px;fill:url(#radialGradient1139);fill-rule:evenodd"
     d="m 197.34881,91.774417 c -1.40445,0.86757 -2.85063,3.47877 -4.70428,2.40422 -1.30165,-0.73744 -0.67402,-2.52476 -0.74782,-3.52634 -0.0711,-2.30828 -0.24015,-5.76148 0.9887,-5.75209 1.48624,0.011 0.88509,0.72384 1.96163,1.09539 1.17723,0.34885 1.93927,-1.47542 2.82859,-0.6641 0.67442,1.12646 -0.0328,1.72712 0.78015,2.82405 0.43149,0.63477 1.09869,0.62121 1.47765,1.13929 0.78913,0.9692 -1.75211,1.91283 -2.58462,2.47958 z"
     id="path842"
     sodipodi:nodetypes="csssscsss"
     inkscape:connector-curvature="0" /><g
     id="g1161"
     transform="matrix(0.22439876,0,0,0.18723759,94.836137,7.9658969)"><path
       style="font-size:12px;fill:#ffffff;fill-rule:evenodd"
       d="m 409.6376,449.1857 c -4.76,0.4334 -9.0891,2.4489 -11.9877,4.8207 -1.772,1.2526 -4.099,-4.2023 -4.099,-8.2836 0,-5.5074 2.3164,-9.5871 8.2571,-9.5871 5.4491,0 8.7184,6.2541 7.8296,13.05 z"
       id="path699"
       sodipodi:nodetypes="ccccc"
       transform="matrix(0.745416,0,0,0.815714,128.7769,-22.83593)"
       inkscape:connector-curvature="0" /><path
       style="font-size:12px;fill:#ffffff;fill-rule:evenodd"
       d="m 416.2332,449.481 c 4.6129,0.5166 10.4887,2.8432 14.0173,4.7077 1.9645,1.2524 3.5223,-4.0893 3.5223,-8.1706 0,-4.3262 -2.7286,-10.1777 -9.3149,-10.1777 -6.9271,0 -9.2101,5.0729 -8.2247,13.6406 z"
       id="path703"
       sodipodi:nodetypes="ccccc"
       transform="matrix(0.745416,0,0,0.815714,128.7769,-22.83593)"
       inkscape:connector-curvature="0" /><circle
       style="font-size:12px;fill-rule:evenodd"
       id="path714"
       transform="matrix(0.745416,0,0,0.815714,128.3366,-23.55856)"
       cx="401.89166"
       cy="448.78644"
       r="5.3152466" /><circle
       style="font-size:12px;fill-rule:evenodd"
       id="path1147"
       transform="matrix(0.745416,0,0,0.815714,145.5056,-24.0403)"
       cx="401.89166"
       cy="448.78644"
       r="5.3152466" /><path
       style="font-size:12px;fill:url(#radialGradient1160);fill-rule:evenodd"
       d="m 435.2039,458.1105 c 0.2577,5.9309 -16.6315,14.4075 -23.0726,14.4075 -5.2671,0 -17.5856,-8.1647 -17.9621,-13.6649 -0.201,-2.6403 8.7727,-9.9433 18.3595,-9.7345 7.6535,0 22.465,5.133 22.6752,8.9919 z"
       id="path691"
       sodipodi:nodetypes="ccscs"
       transform="matrix(0.745416,0,0,0.815714,128.7769,-22.83593)"
       inkscape:connector-curvature="0" /><path
       style="font-size:12px;fill:none;fill-rule:evenodd;stroke:#000000;stroke-width:2.00513148;stroke-linecap:round"
       d="m 395.3456,459.685 c 2.2871,-0.4699 5.2559,6.9765 14.387,7.2843 7.8092,0.2834 17.7014,-6.3336 23.9606,-8.6333"
       id="path692"
       sodipodi:nodetypes="csc"
       transform="matrix(0.745416,0,0,0.815714,128.7769,-22.83593)"
       inkscape:connector-curvature="0" /><path
       style="font-size:12px;fill-rule:evenodd"
       d="m 608.7809,134.0805 c -0.5354,0.3285 -2.2593,0.9037 -2.4347,0.8516 -0.3688,-0.0799 0.483,-0.6897 0.6268,-1.0651 0.1285,-0.3529 2.3435,-0.1151 1.8079,0.2135 z"
       id="path1150"
       sodipodi:nodetypes="ccss"
       transform="matrix(0.745416,0,0,0.815714,-13.43346,235.053)"
       inkscape:connector-curvature="0" /><path
       style="font-size:12px;fill-rule:evenodd"
       d="m 598.3636,133.8313 c -0.005,0.3237 0.3737,0.9305 0.6874,0.9361 0.2875,-0.3909 0.5731,-0.7056 0.8952,-1.0227 0.3311,-0.2917 -1.5779,-0.1674 -1.5826,0.0866 z"
       id="path874"
       sodipodi:nodetypes="cccc"
       transform="matrix(0.745416,0,0,0.815714,-13.43346,235.053)"
       inkscape:connector-curvature="0" /></g></svg>