<!--Created with Sodipodi ("http://www.sodipodi.com/")--><svg xmlns:dc="http://purl.org/dc/elements/1.1/" xmlns:cc="http://creativecommons.org/ns#" xmlns:rdf="http://www.w3.org/1999/02/22-rdf-syntax-ns#" xmlns="http://www.w3.org/2000/svg" xmlns:xlink="http://www.w3.org/1999/xlink" xmlns:sodipodi="http://sodipodi.sourceforge.net/DTD/sodipodi-0.dtd" xmlns:inkscape="http://www.inkscape.org/namespaces/inkscape" sodipodi:version="0.34" width="300" height="392.20895" xml:space="preserve" sodipodi:docname="mongolfiere.svg" inkscape:version="0.91 r13725"><metadata><rdf:RDF><cc:Work><dc:format>image/svg+xml</dc:format><dc:type rdf:resource="http://purl.org/dc/dcmitype/StillImage"/><dc:title/></cc:Work></rdf:RDF></metadata><defs><linearGradient id="f"><stop style="stop-color:#e6e6e5;stop-opacity:1" offset="0"/><stop style="stop-color:#191919;stop-opacity:1" offset="1"/></linearGradient><linearGradient inkscape:collect="always" xlink:href="#a" id="aX" x1="251.39035" y1="22.352314" x2="282.28058" y2="22.352314" gradientTransform="scale(1.272 .78616)" gradientUnits="userSpaceOnUse"/><linearGradient id="d"><stop style="stop-color:#3f3252;stop-opacity:1" offset="0"/><stop style="stop-color:#ff9d00;stop-opacity:1" offset="1"/></linearGradient><linearGradient id="c"><stop style="stop-color:#3f62ff;stop-opacity:1" offset="0"/><stop style="stop-color:#7ff2ff;stop-opacity:1" offset="1"/></linearGradient><linearGradient id="b"><stop style="stop-color:#e63522;stop-opacity:1" offset="0"/><stop style="stop-color:#ffe500;stop-opacity:1" offset="1"/></linearGradient><linearGradient id="a"><stop style="stop-color:#663522;stop-opacity:1" offset="0"/><stop style="stop-color:#fffd00;stop-opacity:1" offset="1"/></linearGradient><linearGradient xlink:href="#a" id="ac" x1="96.710854" y1="290.46561" x2="96.261734" y2="366.30923" gradientTransform="scale(3.84412 .26014)" gradientUnits="userSpaceOnUse"/><linearGradient xlink:href="#a" id="m" x1="101.30337" y1="1450.7104" x2="100.78361" y2="1169.0916" gradientTransform="scale(3.72933 .26814)" gradientUnits="userSpaceOnUse"/><linearGradient xlink:href="#a" id="n" x1="85.747643" y1="1300.6719" x2="86.195198" y2="1523.0084" gradientTransform="scale(4.27613 .23386)" gradientUnits="userSpaceOnUse"/><linearGradient inkscape:collect="always" xlink:href="#a" id="aW" x1="299.0332" y1="-26.251301" x2="350.82336" y2="-26.251301" gradientTransform="scale(.99057 1.00952)" gradientUnits="userSpaceOnUse"/><linearGradient xlink:href="#a" id="l" x1="87.577332" y1="287.14276" x2="89.218307" y2="284.7919" spreadMethod="reflect" gradientTransform="scale(2.49947 .40008)" gradientUnits="userSpaceOnUse"/><linearGradient xlink:href="#a" id="F" x1="277.52185" y1="443.13086" x2="299.2533" y2="449.2428" spreadMethod="reflect" gradientTransform="scale(1.07788 .92774)" gradientUnits="userSpaceOnUse"/><linearGradient inkscape:collect="always" xlink:href="#a" id="aV" x1="260.20001" y1="-54.831009" x2="281.8295" y2="-54.831009" gradientTransform="scale(1.1246 .8892)" gradientUnits="userSpaceOnUse"/><linearGradient inkscape:collect="always" xlink:href="#a" id="aU" x1="444.71545" y1="-46.913013" x2="448.95807" y2="-46.913013" gradientTransform="scale(.7071 1.41421)" gradientUnits="userSpaceOnUse"/><linearGradient inkscape:collect="always" xlink:href="#a" id="aT" x1="331.67795" y1="-54.814476" x2="338.15869" y2="-54.814476" gradientTransform="scale(.92582 1.08012)" gradientUnits="userSpaceOnUse"/><linearGradient inkscape:collect="always" xlink:href="#a" id="aS" x1="579.6264" y1="-41.616619" x2="588.02307" y2="-41.616619" gradientTransform="scale(.55978 1.78643)" gradientUnits="userSpaceOnUse"/><linearGradient xlink:href="#a" id="L" x1="279.41711" y1="744.93091" x2="337.4953" y2="729.89362" gradientTransform="scale(1.07224 .93262)" gradientUnits="userSpaceOnUse"/><linearGradient xlink:href="#a" id="E" x1="376.64117" y1="458.00647" x2="359.25543" y2="465.13416" spreadMethod="reflect" gradientTransform="scale(1.07788 .92774)" gradientUnits="userSpaceOnUse"/><linearGradient inkscape:collect="always" xlink:href="#a" id="aR" x1="107.85769" y1="-93.884262" x2="233.95879" y2="-93.884262" gradientTransform="scale(1.30001 .76922)" gradientUnits="userSpaceOnUse"/><linearGradient inkscape:collect="always" xlink:href="#a" id="aQ" x1="305.56006" y1="-69.407463" x2="346.07941" y2="-69.407463" gradientTransform="scale(.90755 1.10186)" gradientUnits="userSpaceOnUse"/><linearGradient xlink:href="#a" id="N" x1="421.17062" y1="730.15936" x2="364.40225" y2="757.67358" gradientTransform="scale(1.12445 .88932)" gradientUnits="userSpaceOnUse"/><linearGradient xlink:href="#a" id="Q" x1="164.77031" y1="1211.274" x2="162.91483" y2="1211.743" gradientTransform="scale(1.85446 .53924)" gradientUnits="userSpaceOnUse"/><linearGradient xlink:href="#a" id="R" x1="329.3959" y1="606.3421" x2="314.94266" y2="585.30249" gradientTransform="scale(.91104 1.09765)" gradientUnits="userSpaceOnUse"/><linearGradient xlink:href="#a" id="I" x1="783.27814" y1="723.34967" x2="810.84259" y2="737.77728" spreadMethod="reflect" gradientTransform="scale(1.07247 .93243)" gradientUnits="userSpaceOnUse"/><linearGradient xlink:href="#d" id="j" x1="156.09128" y1="1631.1434" x2="157.47394" y2="1625.2563" spreadMethod="repeat" gradientTransform="scale(2.08833 .47885)" gradientUnits="userSpaceOnUse"/><linearGradient inkscape:collect="always" xlink:href="#a" id="aP" x1="143.77914" y1="-114.9834" x2="153.41388" y2="-114.9834" gradientTransform="scale(1.34928 .74113)" gradientUnits="userSpaceOnUse"/><linearGradient xlink:href="#a" id="O" x1="738.28491" y1="816.6864" x2="728.37543" y2="851.40759" gradientTransform="scale(1.24377 .804)" gradientUnits="userSpaceOnUse"/><linearGradient xlink:href="#a" id="J" x1="1020.1698" y1="576.8197" x2="1010.7358" y2="609.875" gradientTransform="scale(.89287 1.11999)" gradientUnits="userSpaceOnUse"/><linearGradient inkscape:collect="always" xlink:href="#a" id="aO" x1="89.021973" y1="-187.76125" x2="95.605354" y2="-187.76125" gradientTransform="scale(2.12657 .47024)" gradientUnits="userSpaceOnUse"/><linearGradient inkscape:collect="always" xlink:href="#a" id="aN" x1="142.91048" y1="-92.934479" x2="180.63947" y2="-92.934479" gradientTransform="scale(.98068 1.0197)" gradientUnits="userSpaceOnUse"/><linearGradient inkscape:collect="always" xlink:href="#a" id="aM" x1="304.7887" y1="-84.903313" x2="383.82095" y2="-84.903313" gradientTransform="scale(.84776 1.17959)" gradientUnits="userSpaceOnUse"/><linearGradient inkscape:collect="always" xlink:href="#a" id="aL" x1="109.75246" y1="-128.41917" x2="296.79083" y2="-128.41917" gradientTransform="scale(1.2268 .81513)" gradientUnits="userSpaceOnUse"/><linearGradient xlink:href="#a" id="ad" x1="139.37518" y1="653.54059" x2="139.37518" y2="489.82022" gradientTransform="scale(2.71936 .36773)" gradientUnits="userSpaceOnUse"/><linearGradient xlink:href="#a" id="au" x1="16.542953" y1="84.721291" x2="34.769981" y2="84.721291" gradientTransform="scale(1.70978 .58487)" gradientUnits="userSpaceOnUse"/><linearGradient xlink:href="#a" id="ao" x1="275.87027" y1="315.5578" x2="231.87596" y2="346.65475" gradientTransform="scale(1.22694 .81504)" gradientUnits="userSpaceOnUse"/><linearGradient xlink:href="#a" id="av" x1="197.68335" y1="89.077522" x2="227.91725" y2="89.077522" gradientTransform="scale(1.75047 .57128)" gradientUnits="userSpaceOnUse"/><linearGradient xlink:href="#a" id="an" x1="451.6543" y1="189.96893" x2="477.14963" y2="189.96893" gradientTransform="scale(.74664 1.33934)" gradientUnits="userSpaceOnUse"/><linearGradient xlink:href="#a" id="aK" x1="109.75246" y1="-128.41917" x2="296.79083" y2="-128.41917" gradientTransform="scale(1.2268 .81513)" gradientUnits="userSpaceOnUse"/><linearGradient xlink:href="#a" id="aw" x1="109.75246" y1="-128.41917" x2="296.79083" y2="-128.41917" gradientTransform="scale(1.2268 .81513)" gradientUnits="userSpaceOnUse"/><linearGradient inkscape:collect="always" xlink:href="#a" id="aJ" x1="251.39035" y1="22.352314" x2="282.28058" y2="22.352314" gradientTransform="scale(1.272 .78616)" gradientUnits="userSpaceOnUse"/><linearGradient inkscape:collect="always" xlink:href="#a" id="k" gradientTransform="scale(5.49045 .18213)" x1="68.965126" y1="1663.5757" x2="67.913528" y2="1841.1613" gradientUnits="userSpaceOnUse"/><linearGradient inkscape:collect="always" xlink:href="#a" id="o" gradientTransform="scale(5.26963 .18977)" x1="72.161415" y1="2797.6018" x2="71.175156" y2="2964.1533" gradientUnits="userSpaceOnUse"/><linearGradient inkscape:collect="always" xlink:href="#a" id="aI" x1="299.0332" y1="-26.251301" x2="350.82336" y2="-26.251301" gradientTransform="scale(.99057 1.00952)" gradientUnits="userSpaceOnUse"/><linearGradient inkscape:collect="always" xlink:href="#a" id="aH" x1="260.20001" y1="-54.831009" x2="281.8295" y2="-54.831009" gradientTransform="scale(1.1246 .8892)" gradientUnits="userSpaceOnUse"/><linearGradient inkscape:collect="always" xlink:href="#a" id="aG" x1="444.71545" y1="-46.913013" x2="448.95807" y2="-46.913013" gradientTransform="scale(.7071 1.41421)" gradientUnits="userSpaceOnUse"/><linearGradient inkscape:collect="always" xlink:href="#a" id="aF" x1="331.67795" y1="-54.814476" x2="338.15869" y2="-54.814476" gradientTransform="scale(.92582 1.08012)" gradientUnits="userSpaceOnUse"/><linearGradient inkscape:collect="always" xlink:href="#a" id="aE" x1="579.6264" y1="-41.616619" x2="588.02307" y2="-41.616619" gradientTransform="scale(.55978 1.78643)" gradientUnits="userSpaceOnUse"/><linearGradient inkscape:collect="always" xlink:href="#a" id="aD" x1="107.85769" y1="-93.884262" x2="233.95879" y2="-93.884262" gradientTransform="scale(1.30001 .76922)" gradientUnits="userSpaceOnUse"/><linearGradient inkscape:collect="always" xlink:href="#a" id="aC" x1="305.56006" y1="-69.407463" x2="346.07941" y2="-69.407463" gradientTransform="scale(.90755 1.10186)" gradientUnits="userSpaceOnUse"/><linearGradient inkscape:collect="always" xlink:href="#a" id="aB" x1="143.77914" y1="-114.9834" x2="153.41388" y2="-114.9834" gradientTransform="scale(1.34928 .74113)" gradientUnits="userSpaceOnUse"/><linearGradient inkscape:collect="always" xlink:href="#a" id="aA" x1="89.021973" y1="-187.76125" x2="95.605354" y2="-187.76125" gradientTransform="scale(2.12657 .47024)" gradientUnits="userSpaceOnUse"/><linearGradient id="e"><stop style="stop-color:#ef0;stop-opacity:1" offset="0"/><stop style="stop-color:#f70;stop-opacity:1" offset="1"/></linearGradient><linearGradient inkscape:collect="always" xlink:href="#a" id="az" x1="142.91048" y1="-92.934479" x2="180.63947" y2="-92.934479" gradientTransform="scale(.98068 1.0197)" gradientUnits="userSpaceOnUse"/><linearGradient inkscape:collect="always" xlink:href="#a" id="ay" x1="304.7887" y1="-84.903313" x2="383.82095" y2="-84.903313" gradientTransform="scale(.84776 1.17959)" gradientUnits="userSpaceOnUse"/><linearGradient inkscape:collect="always" xlink:href="#a" id="S" gradientTransform="scale(5.06383 .19748)" x1="73.799866" y1="3463.8413" x2="73.349503" y2="3539.8945" gradientUnits="userSpaceOnUse"/><linearGradient inkscape:collect="always" xlink:href="#a" id="ax" x1="109.75246" y1="-128.41917" x2="296.79083" y2="-128.41917" gradientTransform="scale(1.2268 .81513)" gradientUnits="userSpaceOnUse"/><linearGradient inkscape:collect="always" xlink:href="#a" id="at" x1="135.1088" y1="21.060457" x2="146.2972" y2="21.060457" gradientTransform="scale(.65814 1.51943)" gradientUnits="userSpaceOnUse"/><linearGradient inkscape:collect="always" xlink:href="#a" id="as" x1="38.363293" y1="42.332176" x2="59.529266" y2="42.332176" gradientTransform="scale(1.51186 .66144)" gradientUnits="userSpaceOnUse"/><linearGradient inkscape:collect="always" xlink:href="#a" id="ar" x1="108.77142" y1="17.473774" x2="112.03278" y2="17.473774" gradientTransform="scale(.79085 1.26447)" gradientUnits="userSpaceOnUse"/><linearGradient inkscape:collect="always" xlink:href="#a" id="aq" x1="15.003881" y1="38.123562" x2="29.666756" y2="38.123562" gradientTransform="scale(2.93257 .341)" gradientUnits="userSpaceOnUse"/><linearGradient inkscape:collect="always" xlink:href="#a" id="ap" x1="2.5061038" y1="2.3464296" x2="72.449272" y2="2.3464296" gradientTransform="scale(1.17324 .85234)" gradientUnits="userSpaceOnUse"/><linearGradient inkscape:collect="always" xlink:href="#a" id="ab" gradientTransform="scale(4.4282 .22583)" x1="83.80825" y1="488.4563" x2="83.107941" y2="606.71942" gradientUnits="userSpaceOnUse"/><linearGradient inkscape:collect="always" xlink:href="#a" id="ae" x1="13.426344" y1="85.205635" x2="21.17231" y2="85.205635" gradientTransform="scale(3.87298 .2582)" gradientUnits="userSpaceOnUse"/><linearGradient inkscape:collect="always" xlink:href="#a" id="af" x1="451.6543" y1="189.96893" x2="477.14963" y2="189.96893" gradientTransform="scale(.74664 1.33934)" gradientUnits="userSpaceOnUse"/><linearGradient inkscape:collect="always" xlink:href="#a" id="ag" x1="275.87027" y1="315.5578" x2="231.87596" y2="346.65475" gradientTransform="scale(1.22694 .81504)" gradientUnits="userSpaceOnUse"/><linearGradient inkscape:collect="always" xlink:href="#a" id="ah" x1="2.5061038" y1="2.3464296" x2="72.449272" y2="2.3464296" gradientTransform="scale(1.17324 .85234)" gradientUnits="userSpaceOnUse"/><linearGradient inkscape:collect="always" xlink:href="#a" id="ai" x1="15.003881" y1="38.123562" x2="29.666756" y2="38.123562" gradientTransform="scale(2.93257 .341)" gradientUnits="userSpaceOnUse"/><linearGradient inkscape:collect="always" xlink:href="#a" id="aj" x1="108.77142" y1="17.473774" x2="112.03278" y2="17.473774" gradientTransform="scale(.79085 1.26447)" gradientUnits="userSpaceOnUse"/><linearGradient inkscape:collect="always" xlink:href="#a" id="ak" x1="38.363293" y1="42.332176" x2="59.529266" y2="42.332176" gradientTransform="scale(1.51186 .66144)" gradientUnits="userSpaceOnUse"/><linearGradient inkscape:collect="always" xlink:href="#a" id="al" x1="135.1088" y1="21.060457" x2="146.2972" y2="21.060457" gradientTransform="scale(.65814 1.51943)" gradientUnits="userSpaceOnUse"/><linearGradient inkscape:collect="always" xlink:href="#a" id="am" x1="16.542953" y1="84.721291" x2="34.769981" y2="84.721291" gradientTransform="scale(1.70978 .58487)" gradientUnits="userSpaceOnUse"/><radialGradient inkscape:collect="always" xlink:href="#b" id="q" gradientTransform="scale(1.71783 .58213)" spreadMethod="reflect" cx="190.39478" cy="1041.5658" fx="190.39478" fy="1041.5658" r="16.346052" gradientUnits="userSpaceOnUse"/><radialGradient inkscape:collect="always" xlink:href="#b" id="Y" gradientTransform="scale(1.74462 .5732)" spreadMethod="reflect" cx="188.82927" cy="1059.1093" fx="188.82927" fy="1059.1093" r="12.824268" gradientUnits="userSpaceOnUse"/><radialGradient inkscape:collect="always" xlink:href="#b" id="W" gradientTransform="scale(1.74462 .5732)" spreadMethod="reflect" cx="188.82927" cy="1059.1093" fx="188.82927" fy="1059.1093" r="12.824268" gradientUnits="userSpaceOnUse"/><radialGradient inkscape:collect="always" xlink:href="#b" id="V" gradientTransform="scale(1.6734 .59759)" spreadMethod="reflect" cx="196.21225" cy="1014.1102" fx="196.21225" fy="1014.1102" r="16.038145" gradientUnits="userSpaceOnUse"/><radialGradient inkscape:collect="always" xlink:href="#b" id="U" gradientTransform="scale(1.81878 .54982)" spreadMethod="reflect" cx="179.40833" cy="1107.8499" fx="179.40833" fy="1107.8499" r="12.667311" gradientUnits="userSpaceOnUse"/><radialGradient inkscape:collect="always" xlink:href="#b" id="T" gradientTransform="scale(1.79987 .5556)" spreadMethod="reflect" cx="182.10149" cy="1096.2396" fx="182.10149" fy="1096.2396" r="15.432914" gradientUnits="userSpaceOnUse"/><radialGradient inkscape:collect="always" xlink:href="#a" id="A" cx="147.94958" cy="576.89398" fx="147.94958" fy="576.89398" r="1.0396222" gradientTransform="scale(1.0131 .98707)" gradientUnits="userSpaceOnUse"/><radialGradient inkscape:collect="always" xlink:href="#a" id="z" cx="571.70471" cy="604.66473" fx="571.70471" fy="604.66473" r="1.0909059" gradientTransform="scale(1.06307 .94067)" gradientUnits="userSpaceOnUse"/><radialGradient inkscape:collect="always" xlink:href="#b" id="x" gradientTransform="scale(1.74462 .5732)" spreadMethod="reflect" cx="188.82927" cy="1059.1093" fx="188.82927" fy="1059.1093" r="12.824268" gradientUnits="userSpaceOnUse"/><radialGradient inkscape:collect="always" xlink:href="#b" id="w" gradientTransform="scale(1.71783 .58213)" spreadMethod="reflect" cx="190.39478" cy="1041.5658" fx="190.39478" fy="1041.5658" r="16.346052" gradientUnits="userSpaceOnUse"/><radialGradient inkscape:collect="always" xlink:href="#b" id="v" gradientTransform="scale(1.74462 .5732)" spreadMethod="reflect" cx="188.82927" cy="1059.1093" fx="188.82927" fy="1059.1093" r="12.824268" gradientUnits="userSpaceOnUse"/><radialGradient inkscape:collect="always" xlink:href="#b" id="u" gradientTransform="scale(1.71783 .58213)" spreadMethod="reflect" cx="190.39478" cy="1041.5658" fx="190.39478" fy="1041.5658" r="16.346052" gradientUnits="userSpaceOnUse"/><radialGradient inkscape:collect="always" xlink:href="#b" id="t" gradientTransform="scale(1.74462 .5732)" spreadMethod="reflect" cx="188.82927" cy="1059.1093" fx="188.82927" fy="1059.1093" r="12.824268" gradientUnits="userSpaceOnUse"/><radialGradient inkscape:collect="always" xlink:href="#b" id="s" gradientTransform="scale(1.71783 .58213)" spreadMethod="reflect" cx="190.39478" cy="1041.5658" fx="190.39478" fy="1041.5658" r="16.346052" gradientUnits="userSpaceOnUse"/><radialGradient inkscape:collect="always" xlink:href="#b" id="r" gradientTransform="scale(1.74462 .5732)" spreadMethod="reflect" cx="188.82927" cy="1059.1093" fx="188.82927" fy="1059.1093" r="12.824268" gradientUnits="userSpaceOnUse"/><radialGradient inkscape:collect="always" xlink:href="#b" id="X" gradientTransform="scale(1.6734 .59759)" spreadMethod="reflect" cx="196.21225" cy="1014.1102" fx="196.21225" fy="1014.1102" r="16.038145" gradientUnits="userSpaceOnUse"/><radialGradient inkscape:collect="always" xlink:href="#a" id="p" cx="226.3252" cy="683.04272" fx="226.3252" fy="683.04272" r="1.297374" gradientTransform="scale(1.17063 .85424)" gradientUnits="userSpaceOnUse"/><radialGradient xlink:href="#f" id="h" cx="507.42316" cy="130.35059" r="12.898515" fx="507.42316" fy="130.35059" gradientTransform="scale(1.21335 .82416)" gradientUnits="userSpaceOnUse"/><radialGradient xlink:href="#e" id="i" cx="313.02008" cy="610.47534" r="17.769707" fx="313.02008" fy="610.47534" gradientTransform="scale(1.32424 .75515)" spreadMethod="pad" gradientUnits="userSpaceOnUse"/><radialGradient xlink:href="#a" id="G" cx="-126.52389" cy="160.11139" r="14.793888" fx="-126.52389" fy="160.11139" spreadMethod="reflect" gradientTransform="scale(.9986 1.0014)" gradientUnits="userSpaceOnUse"/><radialGradient xlink:href="#a" id="D" cx="-200.10947" cy="108.33185" r="93.322182" fx="-200.10947" fy="108.33185" spreadMethod="reflect" gradientTransform="scale(.91552 1.09227)" gradientUnits="userSpaceOnUse"/><radialGradient xlink:href="#a" id="K" cx="998.3158" cy="525.6568" r="39.515423" fx="998.3158" fy="525.6568" gradientTransform="scale(.8303 1.2044)" gradientUnits="userSpaceOnUse"/><radialGradient xlink:href="#a" id="M" cx="856.8999" cy="607.27722" r="45.977341" fx="856.8999" fy="607.27722" gradientTransform="scale(.9592 1.04254)" gradientUnits="userSpaceOnUse"/><radialGradient xlink:href="#a" id="P" cx="307.23108" cy="852.06329" r="36.859566" fx="307.23108" fy="852.06329" gradientTransform="scale(1.28746 .77672)" gradientUnits="userSpaceOnUse"/><radialGradient xlink:href="#c" id="g" cx="105.86031" cy="412.1532" r="511.35254" fx="105.86031" fy="412.1532" gradientTransform="scale(.91053 1.09826)" gradientUnits="userSpaceOnUse"/><radialGradient xlink:href="#a" id="C" cx="-109.48075" cy="164.59648" r="57.408669" fx="-109.48075" fy="164.59648" gradientTransform="scale(.9986 1.0014)" gradientUnits="userSpaceOnUse"/><radialGradient xlink:href="#a" id="H" cx="-76.510635" cy="111.52476" r="102.60024" fx="-76.510635" fy="111.52476" spreadMethod="reflect" gradientTransform="scale(.91552 1.09227)" gradientUnits="userSpaceOnUse"/><radialGradient xlink:href="#b" id="aa" cx="188.82927" cy="1059.1093" r="12.824268" fx="188.82927" fy="1059.1093" gradientTransform="scale(1.74462 .5732)" spreadMethod="reflect" gradientUnits="userSpaceOnUse"/><radialGradient xlink:href="#b" id="Z" cx="196.21225" cy="1014.1102" r="16.038145" fx="196.21225" fy="1014.1102" gradientTransform="scale(1.6734 .59759)" spreadMethod="reflect" gradientUnits="userSpaceOnUse"/><radialGradient xlink:href="#a" id="B" cx="226.3252" cy="683.04272" r="1.297374" fx="226.3252" fy="683.04272" gradientTransform="scale(1.17063 .85424)" gradientUnits="userSpaceOnUse"/><radialGradient inkscape:collect="always" xlink:href="#a" id="y" cx="226.3252" cy="683.04272" fx="226.3252" fy="683.04272" r="1.297374" gradientTransform="scale(1.17063 .85424)" gradientUnits="userSpaceOnUse"/></defs><sodipodi:namedview showgrid="false" units="px" fit-margin-top="0" fit-margin-left="0" fit-margin-right="0" fit-margin-bottom="0" inkscape:zoom="0.89702955" inkscape:cx="194.90644" inkscape:cy="262.41197" inkscape:window-width="3200" inkscape:window-height="1679" inkscape:window-x="0" inkscape:window-y="0" inkscape:window-maximized="1" inkscape:current-layer="svg602"/><path style="font-size:12px;fill:none;fill-rule:evenodd;stroke:#000;stroke-width:.91632593;stroke-linecap:round;stroke-linejoin:round;stroke-dashoffset:0" d="M-210.274-207.34c.364-.679.535-1.703.636-2.667" sodipodi:nodetypes="cc" inkscape:connector-curvature="0"/><path style="font-size:12px;fill:none;fill-rule:evenodd;stroke:#000;stroke-width:.91632593;stroke-linecap:round;stroke-linejoin:round;stroke-dashoffset:0" d="M-202.498-207.058c.142-.728.156-1.228.21-1.847" sodipodi:nodetypes="cc" inkscape:connector-curvature="0"/><g transform="matrix(.51462 0 0 .51462 -44.049 -26.188)"><path sodipodi:nodetypes="csccssssscs" d="M668.48 406.72c1.12 95.6-25.309 174.853-136.508 242.987-35.015 21.228-76.126 76.453-75.363 103.164l-162.436 1.891c-1.325-29.735-54.256-86.178-88.447-108.709C136.55 601.67 83.447 502.3 85.661 406.72c3.654-159.552 74.286-234.272 165.74-290.49 40.955-24.357 86.652-42.01 96.937-54.747 10.286-12.736 31.414-13.429 41.22-.039 10.655 16.378 64.89 33.508 104.046 58.44 89.904 57.435 173.05 129.111 174.876 286.836z" style="font-size:12px;fill:url(#g);fill-opacity:1;fill-rule:evenodd;stroke-width:1" inkscape:connector-curvature="0"/><path transform="matrix(.6791 0 0 .6477 223.607 434.566)" sodipodi:nodetypes="csccsss" d="M356.065 411.991c-21.722-.238-34.465 14.715-31.025 53.788 1.247 14.387-72.975 96.598 14.193 107.523l31.927.59c58.82-3.543 47.87-55.822 45.84-61.785-5.984-20.584-25.845-39.978-25.985-51.027-.136-33.735-12.405-49.441-34.95-49.089z" style="font-size:12px;fill-rule:evenodd" inkscape:connector-curvature="0"/><ellipse transform="matrix(.4615 .20454 -.21406 .4084 214.926 539.492)" style="font-size:12px;fill:url(#h);fill-rule:evenodd" cx="615.68225" cy="107.43024" rx="15.650421" ry="10.630493"/><path transform="matrix(.6791 0 0 .6477 52.538 639.528)" sodipodi:nodetypes="cssccscss" d="M643.652 226.244c-10.346 12.627-24.77 22.072-47.986 21.677-23.664-.82-31.12-12.222-29.893-42.205.731-12.755 4.797-23.38 9.398-31.337 2.386-5.968 8.785-8.046 12.724-26.372 6.245 6.209 12.63 8.327 15.172 8.358 4.838.098 16.78-5.678 20.684-10.003 4.548 15.78 9.558 21.12 12.834 24.94 19.952 23.691 9.366 51.627 7.067 54.942z" style="font-size:12px;fill:#f8f7f7;fill-rule:evenodd" inkscape:connector-curvature="0"/><path transform="matrix(.6791 0 0 .6477 52.538 639.528)" sodipodi:nodetypes="cccccccccccccccccccccc" d="M594.852 209.012c0 11.09 2.522 16.536 1.217 16.536-1.304 0-4.48-5.655-4.48-16.745s4.22-23.206 5.524-23.206c1.305 0-2.26 12.325-2.26 23.415zm37.418-39.432c4.176 3.717 7.69 8.095 8.734 13.482-7.159-6.222-19.12-9.103-26.07-10.732 6.115-.209 15.189.173 17.336-2.75zm-36.642 2.58c2.284 2.12 1.644 3.613 2.467 6.359.36-2.608 4.478-4.59 6.717-6.57-2.853.487-6.332.557-9.185.21zm-16.644-3.858c-2.311 2.656-5.194 6.937-7.995 14.49 5.906-6.64 11.7-7.163 18.232-9.835-5.906-.21-8.09-1.732-10.237-4.655zm45.552-22.757c-2.952 8.709-16.53 16.514-23.618 16.514-4.135 0-12.515-6.318-13.992-15.027 5.504 5.424 11.52 9.143 16.157 9.328 5.128.128 16.694-5.79 21.453-10.815z" style="font-size:12px;fill:#c8cace;fill-opacity:1;fill-rule:evenodd" inkscape:connector-curvature="0"/><path sodipodi:nodetypes="csccc" d="M437.03 771.66c0 13.34 18.544 13.603 14.69 18.472-3.51 4.785-25.187-3.878-25.187-17.216 1.418-10.093 3.291-13.238 16.248-32.11 8.757 1.833-5.75 17.516-5.75 30.855z" style="font-size:12px;fill-rule:evenodd" inkscape:connector-curvature="0"/><path transform="matrix(.6791 0 0 .6477 182.097 434.757)" sodipodi:nodetypes="ccccc" d="M409.638 449.186c-4.76.433-9.09 2.449-11.988 4.82-1.772 1.253-4.1-4.202-4.1-8.283 0-5.508 2.317-9.587 8.258-9.587 5.45 0 8.718 6.254 7.83 13.05z" style="font-size:12px;fill:#fff;fill-rule:evenodd" inkscape:connector-curvature="0"/><path transform="matrix(.6791 0 0 .6477 182.097 434.757)" sodipodi:nodetypes="ccccc" d="M416.233 449.481c4.613.517 10.489 2.843 14.018 4.708 1.964 1.252 3.522-4.09 3.522-8.17 0-4.327-2.729-10.179-9.315-10.179-6.927 0-9.21 5.073-8.225 13.641z" style="font-size:12px;fill:#fff;fill-rule:evenodd" inkscape:connector-curvature="0"/><circle transform="matrix(.6791 0 0 .6477 181.696 434.183)" style="font-size:12px;fill-rule:evenodd" cx="401.89166" cy="448.78644" r="5.3152466"/><circle transform="matrix(.6791 0 0 .6477 197.337 433.8)" style="font-size:12px;fill-rule:evenodd" cx="401.89166" cy="448.78644" r="5.3152466"/><path transform="matrix(.6791 0 0 .6477 182.097 434.757)" sodipodi:nodetypes="ccscs" d="M435.204 458.11c.258 5.931-16.632 14.408-23.073 14.408-5.267 0-17.585-8.165-17.962-13.665-.2-2.64 8.773-9.943 18.36-9.734 7.653 0 22.465 5.133 22.675 8.991z" style="font-size:12px;fill:url(#i);fill-rule:evenodd" inkscape:connector-curvature="0"/><path transform="matrix(.6791 0 0 .6477 182.097 434.757)" sodipodi:nodetypes="csc" d="M395.346 459.685c2.287-.47 5.255 6.976 14.387 7.284 7.809.284 17.701-6.333 23.96-8.633" style="font-size:12px;fill:none;fill-rule:evenodd;stroke:#000;stroke-linecap:round" inkscape:connector-curvature="0"/><path transform="matrix(.6791 0 0 .6477 52.538 639.528)" sodipodi:nodetypes="ccss" d="M608.78 134.08c-.534.329-2.258.904-2.434.852-.369-.08.483-.69.627-1.065.129-.353 2.344-.115 1.808.213z" style="font-size:12px;fill-rule:evenodd" inkscape:connector-curvature="0"/><path transform="matrix(.6791 0 0 .6477 52.538 639.528)" sodipodi:nodetypes="cccc" d="M598.364 133.831c-.005.324.373.93.687.936a8.26 8.26 0 0 1 .895-1.022c.331-.292-1.578-.168-1.582.086z" style="font-size:12px;fill-rule:evenodd" inkscape:connector-curvature="0"/><path sodipodi:nodetypes="cscss" d="M493.876 766.638c-.307 15.91-12.151 15.975-9.017 21.446 4.258 7.703 22.35-6.853 22.35-20.191 0-13.068-19.15-30.961-21.235-29.755-13.002 9.224 8.441 15.247 7.902 28.5z" style="font-size:12px;fill-rule:evenodd" inkscape:connector-curvature="0"/><rect y="747.25024" x="239.33931" height="65.772644" width="286.8418" style="font-size:12px;fill:url(#j);fill-opacity:1;fill-rule:evenodd;stroke-width:1"/><ellipse transform="matrix(1.05072 -.32555 .29596 .9552 -818.241 297.756)" style="fill:gray;fill-opacity:1;fill-rule:evenodd;stroke:none;stroke-width:1pt;stroke-linecap:butt;stroke-linejoin:miter;stroke-opacity:1" cx="825.81201" cy="451.27338" rx="54.810516" ry="74.90773"/><path sodipodi:nodetypes="ccccc" d="M95.557 325.901c-1.836 5.482-3.671 7.56-3.671 11.34-.306-9.638 572.915-10.772 573.527-1.7 0-3.78-2.753-6.994-4.588-11.907-.612-9.072-564.657-5.67-565.268 2.267z" style="font-size:12px;fill:url(#k);fill-rule:evenodd" inkscape:connector-curvature="0"/><path sodipodi:nodetypes="ccccc" d="M284.101 97.03c-16.443 9.373-52.983 28.795-66.23 41.366.345-18.288 305.226-18.526 305.57-1.604-14.845-12.8-53.44-34.05-70.34-42.738-13.134-6.419-151.3-6.638-169 2.975z" style="font-size:12px;fill:url(#l);fill-rule:evenodd" inkscape:connector-curvature="0"/><path sodipodi:nodetypes="csssssssssssssssssssssssssssssssssccc" d="M92.086 338.69c-2.584 10.335-1.348 29.544 8.307 29.544 5.779 0 16.09-30.234 21.87-30.234h10.203c5.778 0-.088 27.59 17.35 27.65 16.791-.671 14.8-30.233 20.577-30.233h10.204c5.779 0-.089 29.644 17.35 28.94 18.746 0 14.799-30.232 20.578-30.232h10.203c5.779 0 .548 29.4 21.226 30.233 18.746 0 14.799-30.233 20.578-30.233h10.203c5.778 0 1.182 27.407 18.642 27.65 19.39.259 17.383-30.234 23.161-30.234h8.912c5.779 0 1.813 27.65 22.518 27.65 20.043 0 14.799-30.234 20.577-30.234h10.204c5.778 0-1.362 29.176 21.226 30.233 21.954.973 12.215-30.233 17.994-30.233h10.203c5.779 0 5.06 30.435 23.81 30.233 21.31-.265 19.966-28.941 25.744-28.941h10.204c5.779 0 .552 26.84 19.934 27.65 18.098 0 14.8-27.65 20.578-27.65h10.203c5.779 0 4.425 30.233 21.226 30.233 19.395 0 17.383-30.233 23.162-30.233h7.62c5.778 0 1.162 29.306 18.641 30.233 19.377.994 13.508-28.941 19.286-28.941h6.328c5.778 0 11.247 25.658 26.393 26.357 2.821-13.293.474-3.331-3.164-21.792-4.65-13.35-567.4-12.488-572.051 2.584z" style="font-size:12px;fill:url(#m);fill-rule:evenodd" inkscape:connector-curvature="0"/><path sodipodi:nodetypes="csssssssssssssssssssssssssssssssssccc" d="M95.943 335.706c-2.543 7.764-6.494 22.192 3.01 22.192 5.688 0 13.27-21.006 18.943-21.418l17.795-1.291c5.673-.412-3.962 20.724 13.203 20.768 16.528-.503 9.413-21.033 15.087-21.417l19.088-1.292c5.675-.384-.088 22.267 17.078 21.739 18.453 0 8.108-22.71 13.796-22.71h16.503c5.688 0-2.044 23.376 18.31 24.002 18.453 0 13.275-22.71 18.964-22.71h19.086c5.688 0-4.004 19.295 13.183 19.477 19.087.195 13.235-22.71 18.923-22.71h19.108c5.688 0-4.676 20.77 15.705 20.77 19.73 0 10.692-22.71 16.38-22.71h19.087c5.688 0-6.509 21.915 15.726 22.71 21.61.73 9.44-22.71 15.128-22.71h20.38c5.687 0-.188 22.86 18.269 22.71 20.976-.2 13.194-21.74 18.882-21.74h20.379c5.688 0-3.332 20.16 15.746 20.769 17.814 0 8.108-20.769 13.796-20.769h25.547c5.688 0-2.104 22.71 14.433 22.71 19.092 0 9.377-22.267 15.048-22.71l16.544-1.292c5.67-.443-.147 23.305 17.058 24.002 19.074.746 4.253-21.74 9.94-21.74h19.148c5.688 0 2.028 19.273 16.937 19.799 2.777-9.985.467-2.503-3.115-16.37-4.577-10.027-558.517-9.38-563.095 1.941z" style="font-size:12px;fill:url(#n);fill-rule:evenodd" inkscape:connector-curvature="0"/><path sodipodi:nodetypes="ccccc" d="M626.049 564.356c4.825-6.443 8.469-8.752 12.345-17.16-3.388-1.95-512.498 1.439-516.26-1.43 1.514 5.29 7.026 11.782 9.914 18.45 5.053-1.653 491.53-1.709 494 .14z" style="font-size:12px;fill:url(#o);fill-rule:evenodd" inkscape:connector-curvature="0"/><ellipse transform="translate(124.022 -13.565)" style="font-size:12px;fill:url(#p);fill-rule:evenodd" cx="265.48486" cy="594.38464" rx="23.900093" ry="17.440613"/><g style="font-size:12px"><path sodipodi:nodetypes="ccccc" d="M391.445 609.241c0 9.99-22.036 40.05-58.781 40.05s-69.117-31.353-69.117-41.341c0-9.99 32.371 20.67 69.117 20.67 36.745 0 58.78-29.368 58.78-19.378z" style="font-size:12px;fill:url(#q);fill-rule:evenodd;stroke-width:1" inkscape:connector-curvature="0" transform="translate(0 -10.981)"/><path sodipodi:nodetypes="csccc" d="M388.861 610.337c-9.043 10.685-27.97 34.381-55.323 35.078-23.404.595-50.613-24.316-63.532-37.585 0-9.393 29.756 29.773 63.532 29.773 33.776 0 55.323-36.66 55.323-27.266z" style="font-size:12px;fill:url(#r);fill-rule:evenodd;stroke-width:1" inkscape:connector-curvature="0" transform="translate(0 -10.981)"/></g><g style="font-size:12px"><path sodipodi:nodetypes="ccccc" d="M391.445 609.241c0 9.99-22.036 40.05-58.781 40.05s-69.117-31.353-69.117-41.341c0-9.99 32.371 20.67 69.117 20.67 36.745 0 58.78-29.368 58.78-19.378z" style="font-size:12px;fill:url(#s);fill-rule:evenodd;stroke-width:1" inkscape:connector-curvature="0" transform="rotate(-2.244 78.127 -2643.659)"/><path sodipodi:nodetypes="csccc" d="M388.861 610.337c-9.043 10.685-27.97 34.381-55.323 35.078-23.404.595-50.613-24.316-63.532-37.585 0-9.393 29.756 29.773 63.532 29.773 33.776 0 55.323-36.66 55.323-27.266z" style="font-size:12px;fill:url(#t);fill-rule:evenodd;stroke-width:1" inkscape:connector-curvature="0" transform="rotate(-2.244 78.127 -2643.659)"/></g><g style="font-size:12px"><path sodipodi:nodetypes="ccccc" d="M391.445 609.241c0 9.99-22.036 40.05-58.781 40.05s-69.117-31.353-69.117-41.341c0-9.99 32.371 20.67 69.117 20.67 36.745 0 58.78-29.368 58.78-19.378z" style="font-size:12px;fill:url(#u);fill-rule:evenodd;stroke-width:1" inkscape:connector-curvature="0" transform="matrix(.84313 -.00682 -.00885 .9626 -59.002 13.061)"/><path sodipodi:nodetypes="csccc" d="M388.861 610.337c-9.043 10.685-27.97 34.381-55.323 35.078-23.404.595-50.613-24.316-63.532-37.585 0-9.393 29.756 29.773 63.532 29.773 33.776 0 55.323-36.66 55.323-27.266z" style="font-size:12px;fill:url(#v);fill-rule:evenodd;stroke-width:1" inkscape:connector-curvature="0" transform="matrix(.84313 -.00682 -.00885 .9626 -59.002 13.061)"/></g><g style="font-size:12px"><path sodipodi:nodetypes="ccccc" d="M391.445 609.241c0 9.99-22.036 40.05-58.781 40.05s-69.117-31.353-69.117-41.341c0-9.99 32.371 20.67 69.117 20.67 36.745 0 58.78-29.368 58.78-19.378z" style="font-size:12px;fill:url(#w);fill-rule:evenodd;stroke-width:1" inkscape:connector-curvature="0" transform="matrix(-.68148 -.01783 -.03284 .9613 801.726 14.27)"/><path sodipodi:nodetypes="csccc" d="M388.861 610.337c-9.043 10.685-27.97 34.381-55.323 35.078-23.404.595-50.613-24.316-63.532-37.585 0-9.393 29.756 29.773 63.532 29.773 33.776 0 55.323-36.66 55.323-27.266z" style="font-size:12px;fill:url(#x);fill-rule:evenodd;stroke-width:1" inkscape:connector-curvature="0" transform="matrix(-.68148 -.01783 -.03284 .9613 801.726 14.27)"/></g><ellipse transform="translate(250.628 -16.149)" style="font-size:12px;fill:url(#y);fill-rule:evenodd" cx="265.48486" cy="594.38464" rx="23.900093" ry="17.440613"/><path sodipodi:nodetypes="cccc" d="M598.794 595.03c-13.2 0-7.751-5.87-7.751-15.502 0-9.633 21.682-16.795 34.881-16.795 4.156 6.46-18.452 23.9-27.13 32.297z" style="font-size:12px;fill:url(#z);fill-rule:evenodd" inkscape:connector-curvature="0"/><path sodipodi:nodetypes="cccc" d="M157.59 595.677c13.199 0 8.396-5.871 8.396-15.503s-19.097-16.795-32.297-16.795c1.011 7.752 10.7 25.838 23.9 32.298z" style="font-size:12px;fill:url(#A);fill-rule:evenodd" inkscape:connector-curvature="0"/><ellipse transform="translate(-1.292 -13.565)" style="font-size:12px;fill:url(#B);fill-rule:evenodd" cx="265.48486" cy="594.38464" rx="23.900093" ry="17.440613"/><ellipse transform="translate(292.323 292.323)" style="font-size:12px;fill:url(#C);fill-rule:evenodd;stroke-width:1" cx="-109.32689" cy="164.82816" rx="57.327988" ry="57.489471"/><path transform="translate(292.323 292.323)" sodipodi:nodetypes="cccccccccccccccccccccccccccccccccccccccccccccccccccccccccccccccccccccccccccccccccccccccccccccccccccccccccc" d="M-51.717 151.625c12.244 39.518-3.615 79.541-35.42 89.396-31.807 9.855-67.517-14.19-79.761-53.708-12.244-39.517 3.615-79.54 35.42-89.396 31.807-9.855 67.517 14.191 79.761 53.708zm-82.25-.334c5.91-4.062 9.178-5.76 12.264-5.65 2.373.072 3.245 2.284 5.145 2.592 1.603.994 5.302-1.204 6.906-.64 1.606.136 4.282 2.76 5.751 3.189 4.357-1.408 9.407 1.195 10.99 6.478 1.978 4.94 3.2 12.078 3.2 12.078s10.569 4.454 17.035-11.095c3.183-9.611 3.131-15.205 2.372-20.523-.88-4.701-4.308-9.744-8.817-10.084-4.509-.34-8.13 2.305-10.207 2.066-2.078-.24-3.682-1.233-3.682-1.233s-.406 2.917 1.471 4.185c1.877 1.269 8.853 2.362 10.216 4.592 1.362 2.23 2.543 9.573.831 14.996-1.712 5.423-4.717 5.713-5.518 5.666-3.238-.19-5.454-6.264-6.851-10.943-1.519-5.082-3.025-8.409-6.977-9.467-3.11-.828-7.37 2.599-8.54 2.341-2.331-.191-5.029-6.263-8.266-6.654-7.778-.94-17.145 15.42-23.39 14.204-2.885-.562-3.126-5.608-2.72-8.525.406-2.917 5.527-15.755 12.15-14.524 6.622 1.232 9.596 2.74 11.951 2.395 2.355-.345 3.607-2.13 4.172-2.954-.736.219-1.935.65-4.103-.555-2.346-1.37-5.162-7.34-13.158-7.292-9.375.314-18.964 12.606-20.054 19.024-1.089 6.418-1.89 18.052 3.263 23.47 5.152 5.42 7.273 4.594 7.273 4.594 1.292-5.167 2.947-8.679 7.294-11.731zm29.74 55.508c-1.355.76-3.552.608-5.144.378-1.538-.221-6.63-.85-8.867-2.248 2.349 1.423.697.078 3.014 1.292.53 1.507 5.483 3.162 8 3.498.774-.7 2.157-2.041 2.997-2.92zm-8.724-27.71c.98-.581 2.551.116 3.186 2.02.501 1.453.85 3.993.322 4.366-.474.384-.92-1.007-1.713-1.707-1.048-.973-1.685-.579-2.306-2.062-.42-.936-.113-2.248.51-2.618zm9.275-15.645s2.337-.67 2.904-.44c.568.232 2.294 2.273 2.294 2.273s-.527 1.442-.693 1.244c-.165-.197-.57-1.68-1.363-2.015-.792-.334-3.142-1.062-3.142-1.062zm-12.3-2.27c-.96-.013-1.72.845-1.745 1.86-.028.862.344 1.709 1.165 1.844.984.112 1.684-.655 1.775-1.748.047-.969-.485-1.942-1.194-1.957zm9.813 21.673c.115-3.843-2.653-7.475-5.736-7.833-5.06-.03-4.815 6.25-4.505 7.176m26.679-12.953c.134 1.238.084 8.627 3.702 7.991-1.808 2.896-2.788 3.13-6.472 2.184-3.644-.938-6.203-5.114-6.777-7.975-.474 1.19-.47 4.084-.788 4.874-.202.745-.305.979-.554 2.251m.024-22.978c-1.11.455-2.63 2.592-3.59 6.677.082 3.346 2.613 9.212 3.081 13.93-.285 2.3 1.55 4.204 2.176 4.34.627.137 1.892-1.102 2.887.276 1.378 2.003-.37 6.111-1.02 7.324-.898 1.74-1.745 2.082-2.29 4.458-.404 1.775.004 2.243-.614 4.14-.866 2.699-3.115 3.4-4.055 3.194-.94-.205-4.564-1.92-6.48-2.381-3.088-.74-11.92 1.36-13.428-9.054m3.787 23.043c-.594 2.396-2.2 4.75-3.731 5.789.112-1.813-.364-3.237-.832-3.795-.641 1.098-1.061 1.878-2.353 3.175-.04.206-6.121-7.402-6.274-13.73-.092-7.705-1.512-8.395-2.212-17.772m-5.76-22.072s-2.78 6.162-4.435 8.581c-1.492 2.157-3.004 4.37-4.85 5.597 1.387.038 13.56-1.863 18.265-5.674 3.898-3.228 6.446-9.632 9.344-18.571 1.93-1.511 4.674-1.342 4.674-1.342m19.093 1.807s1.438 2.676 1.434 3.534c-.004.858-.575 5.456-1.398 5.491m-20.567-3.257c1.02-2.298 2.456-2.951 3.593-2.917 2.39.521 2.862 2.289 2.947 2.897m1.794-6.05c.525.866 1.621 5.505 1.394 8.138m8.518 37.842c.275 1.179-.58 4.479-1.93 6.634-1.66 2.084-4.965 5.532-6.288 6.613-1.318 1.163-3.479 5.079-6.752 6.638.272-2.815-.697-2.392-.432-5.355-.955 3.029-2.594 4.035-3.893 4.973.738-3.164-.438-3.112-.156-5.02" style="font-size:12px;fill:url(#D);stroke:#b26300;stroke-width:1.25;stroke-linecap:round;stroke-linejoin:round;stroke-dashoffset:0" inkscape:connector-curvature="0"/><path transform="matrix(1.12662 0 0 1.2054 -8.55 -86.77)" sodipodi:nodetypes="ccccccccccccccccccccccc" d="M295.622 404.283c1.319-15.74 20.097-17.666 23.47-17.087 4.58.784 8.618 1.825 12.6 3.204 6.303 2.3 16.886 10.038 25.366 18.461 10.36 10.488 13.124 18.977 17.133 52.072 2.797 22.783 7.99 30.12 23.173 32.722 4.434-8.064 11.153-5.486 13.871.554 3.166 6.993.103 11.475-4.487 11.147-7.933-3.714-12.114-5.897-18.139-6.93-6.265-1.073-18.614-2.84-37.016-5.472-17.134-1.585-26.133 2.62-47.966 14.475-7.426 2.391-23.244-2.132-26.51-9.138-2.225-4.39-10.371-17.762.075-26.763 3.904-5.46 11.779-6.38 13.413-1.06-13.994 13.827 2.844 37.618 40.094 15.974 13.27-5.628 31.542-3.313 46.596 2.728l-5.754-5.517c-11.352-10.483-12.662-12.973-15.674-31.61-3.395-22.188-5.175-32.076-7.178-39.215-2.398-7.729-6.458-11.29-16.42-14.735-3.543-2.3-10.266-3.044-20.076-1.435-2.762 1.27 2.42 10.484-2.045 14.591-10.704 8.646-15.168-2.564-14.526-6.966z" style="font-style:italic;font-weight:400;font-size:36px;font-family:'URW Chancery L';fill:url(#E)" inkscape:connector-curvature="0"/><path transform="matrix(1.12662 0 0 1.2054 -8.55 -86.77)" sodipodi:nodetypes="ccccccccccccccccccccccc" d="M386.065 403.715c-1.319-15.74-20.097-17.665-23.47-17.087-4.58.785-8.618 1.826-12.6 3.205-6.303 2.3-16.885 10.038-25.366 18.46-10.36 10.488-13.124 18.977-17.133 52.073-2.797 22.782-7.99 30.12-23.173 32.721-4.434-8.063-11.153-5.485-13.871.555-3.166 6.993-.103 11.475 4.487 11.146 7.933-3.713 12.114-5.896 18.139-6.929 6.266-1.073 18.614-2.841 37.017-5.472 17.133-1.585 26.132 2.62 47.965 14.475 7.426 2.39 23.244-2.132 26.51-9.139 2.225-4.389 10.371-17.761-.075-26.763-3.904-5.459-11.779-6.38-13.413-1.06 13.994 13.828-2.843 37.618-40.094 15.975-13.27-5.629-31.542-3.314-46.596 2.727l5.754-5.516c11.352-10.484 12.663-12.973 15.674-31.61 3.395-22.188 5.175-32.076 7.178-39.215 2.398-7.729 6.458-11.29 16.42-14.735 3.543-2.3 10.266-3.044 20.076-1.436 2.762 1.271-2.419 10.484 2.045 14.592 10.704 8.646 15.168-2.564 14.526-6.967z" style="font-style:italic;font-weight:400;font-size:36px;font-family:'URW Chancery L';fill:url(#F)" inkscape:connector-curvature="0"/><ellipse transform="matrix(-1 0 0 1 450.983 283.813)" style="font-size:12px;fill:url(#G);fill-rule:evenodd;stroke-width:1" cx="-109.32689" cy="164.82816" rx="57.327988" ry="57.489471"/><path transform="matrix(-1 0 0 1 450.983 283.813)" sodipodi:nodetypes="cccccccccccccccccccccccccccccccccccccccccccccccccccccccccccccccccccccccccccccccccccccccccccccccccccccccccc" d="M-51.717 151.625c12.244 39.518-3.615 79.541-35.42 89.396-31.807 9.855-67.517-14.19-79.761-53.708-12.244-39.517 3.615-79.54 35.42-89.396 31.807-9.855 67.517 14.191 79.761 53.708zm-82.25-.334c5.91-4.062 9.178-5.76 12.264-5.65 2.373.072 3.245 2.284 5.145 2.592 1.603.994 5.302-1.204 6.906-.64 1.606.136 4.282 2.76 5.751 3.189 4.357-1.408 9.407 1.195 10.99 6.478 1.978 4.94 3.2 12.078 3.2 12.078s10.569 4.454 17.035-11.095c3.183-9.611 3.131-15.205 2.372-20.523-.88-4.701-4.308-9.744-8.817-10.084-4.509-.34-8.13 2.305-10.207 2.066-2.078-.24-3.682-1.233-3.682-1.233s-.406 2.917 1.471 4.185c1.877 1.269 8.853 2.362 10.216 4.592 1.362 2.23 2.543 9.573.831 14.996-1.712 5.423-4.717 5.713-5.518 5.666-3.238-.19-5.454-6.264-6.851-10.943-1.519-5.082-3.025-8.409-6.977-9.467-3.11-.828-7.37 2.599-8.54 2.341-2.331-.191-5.029-6.263-8.266-6.654-7.778-.94-17.145 15.42-23.39 14.204-2.885-.562-3.126-5.608-2.72-8.525.406-2.917 5.527-15.755 12.15-14.524 6.622 1.232 9.596 2.74 11.951 2.395 2.355-.345 3.607-2.13 4.172-2.954-.736.219-1.935.65-4.103-.555-2.346-1.37-5.162-7.34-13.158-7.292-9.375.314-18.964 12.606-20.054 19.024-1.089 6.418-1.89 18.052 3.263 23.47 5.152 5.42 7.273 4.594 7.273 4.594 1.292-5.167 2.947-8.679 7.294-11.731zm29.74 55.508c-1.355.76-3.552.608-5.144.378-1.538-.221-6.63-.85-8.867-2.248 2.349 1.423.697.078 3.014 1.292.53 1.507 5.483 3.162 8 3.498.774-.7 2.157-2.041 2.997-2.92zm-8.724-27.71c.98-.581 2.551.116 3.186 2.02.501 1.453.85 3.993.322 4.366-.474.384-.92-1.007-1.713-1.707-1.048-.973-1.685-.579-2.306-2.062-.42-.936-.113-2.248.51-2.618zm9.275-15.645s2.337-.67 2.904-.44c.568.232 2.294 2.273 2.294 2.273s-.527 1.442-.693 1.244c-.165-.197-.57-1.68-1.363-2.015-.792-.334-3.142-1.062-3.142-1.062zm-12.3-2.27c-.96-.013-1.72.845-1.745 1.86-.028.862.344 1.709 1.165 1.844.984.112 1.684-.655 1.775-1.748.047-.969-.485-1.942-1.194-1.957zm9.813 21.673c.115-3.843-2.653-7.475-5.736-7.833-5.06-.03-4.815 6.25-4.505 7.176m26.679-12.953c.134 1.238.084 8.627 3.702 7.991-1.808 2.896-2.788 3.13-6.472 2.184-3.644-.938-6.203-5.114-6.777-7.975-.474 1.19-.47 4.084-.788 4.874-.202.745-.305.979-.554 2.251m.024-22.978c-1.11.455-2.63 2.592-3.59 6.677.082 3.346 2.613 9.212 3.081 13.93-.285 2.3 1.55 4.204 2.176 4.34.627.137 1.892-1.102 2.887.276 1.378 2.003-.37 6.111-1.02 7.324-.898 1.74-1.745 2.082-2.29 4.458-.404 1.775.004 2.243-.614 4.14-.866 2.699-3.115 3.4-4.055 3.194-.94-.205-4.564-1.92-6.48-2.381-3.088-.74-11.92 1.36-13.428-9.054m3.787 23.043c-.594 2.396-2.2 4.75-3.731 5.789.112-1.813-.364-3.237-.832-3.795-.641 1.098-1.061 1.878-2.353 3.175-.04.206-6.121-7.402-6.274-13.73-.092-7.705-1.512-8.395-2.212-17.772m-5.76-22.072s-2.78 6.162-4.435 8.581c-1.492 2.157-3.004 4.37-4.85 5.597 1.387.038 13.56-1.863 18.265-5.674 3.898-3.228 6.446-9.632 9.344-18.571 1.93-1.511 4.674-1.342 4.674-1.342m19.093 1.807s1.438 2.676 1.434 3.534c-.004.858-.575 5.456-1.398 5.491m-20.567-3.257c1.02-2.298 2.456-2.951 3.593-2.917 2.39.521 2.862 2.289 2.947 2.897m1.794-6.05c.525.866 1.621 5.505 1.394 8.138m8.518 37.842c.275 1.179-.58 4.479-1.93 6.634-1.66 2.084-4.965 5.532-6.288 6.613-1.318 1.163-3.479 5.079-6.752 6.638.272-2.815-.697-2.392-.432-5.355-.955 3.029-2.594 4.035-3.893 4.973.738-3.164-.438-3.112-.156-5.02" style="font-size:12px;fill:url(#H);stroke:#b26300;stroke-width:1.25;stroke-linecap:round;stroke-linejoin:round;stroke-dashoffset:0" inkscape:connector-curvature="0"/><path transform="matrix(1.09513 0 0 .87316 -661.353 79.158)" sodipodi:nodetypes="ccscccccsccccc" d="M837.449 679.792c0-8.632 11.298-13.213 12.436-21.686.753-5.61 13.84-21.512 22.177-19.502 3.543.453 10.757 4.798 9.571 8.316-.765 2.27 2.167 1.75 4.787 2.581 1.901 1.046 3.738 2.713 4.899 6.911-7.514.692-7.588-3.14-13.2 3.277-6.613 12.305 43.809-5.838 35.138 13.072-8.345-8.36 5.144 7.652 1.418 20.795-.718 2.635-19.123 7.94-21.624 9.636-1.567 1.166-14.139 3.968-31.004 4.099-8.871.027-18.76-3.194-22.981-10.435-4.01-4.847-2.731-10.77-2.746-16.13 0-.06-.005.122 1.129-.934z" style="font-size:12px;fill:url(#I);fill-rule:evenodd" inkscape:connector-curvature="0"/><path transform="matrix(1.09513 0 0 .87316 -661.353 79.158)" sodipodi:nodetypes="ccsccc" d="M939.832 686.572c0 14.726-.963 28.933-17.587 17.587-1.057-14.769-27.49 1.572-26.732-7.536 1.01-10.82-5.169-23.38-10.432-30.9 5.823-.159 13.731-2.412 28.086-23.97 7.548-10.213 26.665 17.61 26.665 44.818z" style="font-size:12px;fill:url(#J);fill-rule:evenodd" inkscape:connector-curvature="0"/><path transform="matrix(1.09513 0 0 .87316 -661.353 79.158)" sodipodi:nodetypes="ccccccccccc" d="M849.664 660.827c-.936-.468-3.257-2.748-4.402-3.457-8.525-5.276-9.27-7.736-12.239-16.747-1.055-3.204-2.484-6.074-4.49-8.774-.096-.129-.304.103-.46.14-5.686 1.365-6.8 4.059-10.533 8.253-6.019 6.76-6.437 15.368-5.314 24.176 8.388 9.514 23.977 21.034 25.586 22.413-.579-2.434.564-7.407 1.57-9.296 2.073-5.132 5.198-9.268 8.334-13.74.53-.755 1.434-1.97 1.948-2.968z" style="font-size:12px;fill:url(#K);fill-rule:evenodd" inkscape:connector-curvature="0"/><path transform="matrix(1.09513 0 0 .87316 -35.093 74.372)" sodipodi:nodetypes="ccccc" d="M360.668 690.226c0 14.726 4.519 7.01-12.106-4.337-2.114-29.537-27.394 3.253-35.337-9.204 5.823-.159 13.731 4.896 28.087-16.662 7.547-10.212 19.356 2.995 19.356 30.203z" style="font-size:12px;fill:url(#L);fill-rule:evenodd" inkscape:connector-curvature="0"/><path transform="matrix(-1.09513 0 0 .87316 1413.681 79.158)" sodipodi:nodetypes="ccccccccccc" d="M849.856 659.457c-.936-.469-3.45-1.378-4.594-2.087-8.525-5.276-9.27-7.736-12.239-16.747-1.055-3.204-2.484-6.075-4.49-8.774-.096-.129-.304.103-.46.14-5.686 1.365-10.517 2.893-15.18 5.339-5.09 4.429-8.173 6.628-14.02 11.357 9.033 6.284 31.992 27.684 34.894 34.231.551.473 3.494 2.383 4.714 4.31-.344-9.218 5.071-18.274 9.235-23.43.38-.87 2.197-3.112 2.14-4.34z" style="font-size:12px;fill:url(#M);fill-rule:evenodd" inkscape:connector-curvature="0"/><path sodipodi:nodetypes="ccccccccccccccccccc" transform="matrix(1.09513 0 0 .87316 -35.093 74.372)" d="M450.524 652.786c.08.543-1.563.521-3.672 1.009-2.108.487-3.883-.129-3.963-.672-.08-.542 1.564-.806 3.672-1.294 2.109-.487 3.883.414 3.963.957zm34.947 32.487c0-8.632-11.298-13.213-12.435-21.686-.754-5.61-13.842-21.512-22.178-19.502-3.543.453-10.757 4.799-9.571 8.316.765 2.27-3.994 1.75-6.386 1.896-6.469-.324-10.818 9.793-6.04 7.824 7.742-3.19 13.754-1.54 15.94 3.05 6.613 12.304-45.1-.672-36.43 18.239 1.885.682-12.895 12.82-9.17 25.962.718 2.635 28.167-2.395 30.668-.699 1.567 1.166 3.522 4.708 20.387 4.839 21.258-.712 25.389-4.02 29.47-11.305 4.426-6.544 6.86-10.64 6.874-16 0-.06.005.122-1.129-.934z" style="font-size:12px;fill:url(#N);fill-rule:evenodd" inkscape:connector-curvature="0"/><path transform="matrix(-1.09513 0 0 .87316 1413.681 79.158)" sodipodi:nodetypes="ccccs" d="M959.929 686.572c6.264 13.327-31.635-9.694-36.947 16.738-45.304 2.136-18.768-9.829-42.469-38.73 18.612 2.583 31.088-6.75 41.79-11.865 14.855-4.731 24.837 8.476 37.626 33.857z" style="font-size:12px;fill:url(#O);fill-rule:evenodd" inkscape:connector-curvature="0"/><path transform="matrix(1.09513 0 0 .87316 -35.093 74.372)" sodipodi:nodetypes="cccccccccccccc" d="M409.353 684.578c-1.85.674-.516 2.733-.062 4.536 3.578-7.103 6.995-9.295 16.3-9.909-.827-7.772-28.055-12.912-30.06-18.124-.096-.129-.304.103-.46.14-5.686 1.365-6.8 4.059-10.534 8.253-6.018 6.76-14.834 13.43-13.71 22.238.636 4.993 14.282-13.073 15.878-11.775 1.651 1.343-4.746 10.265-3.137 11.644.551.472 11.83-17.788 12.022-18.488 1.027-3.736-3.572 21.202 1.304 21.047 1.658-.09 5.968-18.142 6.973-20.03 2.073-5.133-1.425 16.081 1.255 16.634 1.443-.527 4.403-4.939 4.231-6.166z" style="font-size:12px;fill:url(#P);fill-rule:evenodd" inkscape:connector-curvature="0"/><path transform="matrix(1.09513 0 0 .87316 -35.093 74.372)" sodipodi:nodetypes="ccccc" d="M308.995 653.985c0 .442-1.534.315-3.426.315-1.892 0-3.264-1.327-3.264-1.768 0-.442 1.372.17 3.264.17 1.892 0 3.426.842 3.426 1.283z" style="font-size:12px;fill:url(#Q);fill-rule:evenodd" inkscape:connector-curvature="0"/><path transform="matrix(1.09513 0 0 .87316 -35.093 74.372)" sodipodi:nodetypes="ccccccccccccccc" d="M296.1 643.97c-12.68 5.482-13.232 21.161-9.208 21.067 1.23 1.32 2.476 7.06 4.955 7.761 4.036 4.144 4.595-2.64 10.462 2.477 2.051 1.789 4.194-9.966 4.381-5.19-.45-1.375.869 2.467 3.674 11.705-2.266-1.284-9.386-8.398-9.59-6.885-.728 1.924-2.379 5.478-4.739 1.7-2.63-4.137-14.151 11.046-15.792 15.111-4.868 3.201 5.503-13.275 5.497-18.388-.003-2.039-5.264 2.877-5.905 5.167 2.165.467-10.908 17.208-9.602 13.365.833-2.45 8.22-22.107 3.795-20.592-1.148.393 2.33-1.79 2.918-2.828-.58 1.025 1.646-17.181 19.153-24.47z" style="font-size:12px;fill:url(#R);fill-rule:evenodd;stroke-width:1" inkscape:connector-curvature="0"/><path sodipodi:nodetypes="ccccc" d="M481.863 698.714c2.102-3.086 2.97-4.27 5.115-7.04-1.477-.933-224.896.804-226.536-.57 1.573 2.304 5.72 6.326 7.55 8.834 2.201-.791 212.795-2.11 213.871-1.224z" style="font-size:12px;fill:url(#S);fill-rule:evenodd" inkscape:connector-curvature="0"/><path transform="matrix(.47168 -.01196 -.00495 1.68716 116.909 -276.633)" sodipodi:nodetypes="cccc" d="M391.445 609.241c0 9.99-46.018 38.54-82.763 38.54-41.538-.035-43.757-29.067-43.757-39.056 32.313 2.492 90.365 3.48 126.52.516z" style="font-size:12px;fill:url(#T);fill-rule:evenodd" inkscape:connector-curvature="0"/><path transform="matrix(.47168 -.01196 -.00495 1.68716 116.909 -276.633)" sodipodi:nodetypes="csccc" d="M387.5 611.093c-9.044 10.685-51.26 33.642-78.612 34.338-23.404.596-45.676-10.688-43.65-35.337 0-9.394 10.528 24.66 44.304 24.66 59.798.184 77.958-33.054 77.958-23.66z" style="font-size:12px;fill:url(#U);fill-rule:evenodd" inkscape:connector-curvature="0"/><path transform="matrix(.62883 -.01075 -.0066 1.51667 133.133 -168.168)" sodipodi:nodetypes="cccc" d="M389.875 606.462c0 9.989-20.466 42.828-57.211 42.828s-65.032-33.665-65.032-43.654c30.957 3.433 96.18 3.43 122.243.826z" style="font-size:12px;fill:url(#V);fill-rule:evenodd" inkscape:connector-curvature="0"/><path transform="matrix(.62883 -.01075 -.0066 1.51667 133.133 -168.168)" sodipodi:nodetypes="csccc" d="M388.861 610.337c-9.043 10.685-27.97 34.381-55.323 35.078-23.404.595-50.613-24.316-63.532-37.585 0-9.393 29.756 29.773 63.532 29.773 33.776 0 55.323-36.66 55.323-27.266z" style="font-size:12px;fill:url(#W);fill-rule:evenodd" inkscape:connector-curvature="0"/><path transform="matrix(.62883 -.01075 -.0066 1.51667 210.324 -168.168)" sodipodi:nodetypes="cccc" d="M389.875 606.462c0 9.989-20.466 42.828-57.211 42.828s-65.032-33.665-65.032-43.654c30.957 3.433 96.18 3.43 122.243.826z" style="font-size:12px;fill:url(#X);fill-rule:evenodd" inkscape:connector-curvature="0"/><path transform="matrix(.62883 -.01075 -.0066 1.51667 210.324 -168.168)" sodipodi:nodetypes="csccc" d="M388.861 610.337c-9.043 10.685-27.97 34.381-55.323 35.078-23.404.595-50.613-24.316-63.532-37.585 0-9.393 29.756 29.773 63.532 29.773 33.776 0 55.323-36.66 55.323-27.266z" style="font-size:12px;fill:url(#Y);fill-rule:evenodd" inkscape:connector-curvature="0"/><path transform="matrix(.61033 -.01075 -.00641 1.51667 292.024 -168.168)" sodipodi:nodetypes="cccc" d="M389.875 606.462c0 9.989-20.466 42.828-57.211 42.828s-65.032-33.665-65.032-43.654c30.957 3.433 96.18 3.43 122.243.826z" style="font-size:12px;fill:url(#Z);fill-rule:evenodd" inkscape:connector-curvature="0"/><path transform="matrix(.61033 -.01075 -.00641 1.51667 292.024 -168.168)" sodipodi:nodetypes="csccc" d="M388.861 610.337c-9.043 10.685-27.97 34.381-55.323 35.078-23.404.595-50.613-24.316-63.532-37.585 0-9.393 29.756 29.773 63.532 29.773 33.776 0 55.323-36.66 55.323-27.266z" style="font-size:12px;fill:url(#aa);fill-rule:evenodd" inkscape:connector-curvature="0"/><path sodipodi:nodetypes="ccccc" d="M228.757 129.607c-3.432 2.4-8.858 6.207-11.66 8.977.101-5.69 307.959-7.994 308.045-1.368-3.197-2.304-9.332-6.137-14.306-9.937.06-8.109-282.043-3.638-282.079 2.327z" style="font-size:12px;fill:url(#ab);fill-rule:evenodd" inkscape:connector-curvature="0"/><path sodipodi:nodetypes="ccccc" d="M298.638 90.058c-3.632 1.487-8.725 4.08-12.618 6.393-.035-6.374 171.409-6.74 171.496-.114-3.463-2.076-11.702-5.035-14.9-6.4.071-6.857-143.856-6.758-143.978.12z" style="font-size:12px;fill:url(#ac);fill-rule:evenodd" inkscape:connector-curvature="0"/><path sodipodi:nodetypes="cccccccccccccscccccccccccccccccccccccccccccccccccccccc" d="m597.273 199.927-21.238-.655c-2.575-.041-14.401-19.387 7.467-9.608-9.55-22.714-15.566 1.131-15.722-18.249-1.401-4.408-14.883-12.127-17.877-12.685-3.653 3.455 6.069 13.152 7.154 16.349 7.63 11.34-28.949-7.962-11.366 12.434 22.788-5.731 6.227 11.404 3.647 11.329l-12.757-.415c-5.16-.15-8.902-10.248-17.073-17.257-2.87 7.254-4.102 16.708-9.778 16.292l-17.138-.113c-3.084.213-18.218-24.476 7.467-15.715-8.786-19.151-13.209-1.11-16.485-13.923-.98-3.68-5.469-9.074-10.5-11.413-1.616 3.964-2.072 9.335.285 13.805 4.068 6.506-17.498-2.11-11.875 13.197 29.658-7.003 10.807 14.203.086 13.11l-14.284-.415c-5.16-.15-4.831-8.722-11.73-15.985-6.687 5.728-7.919 15.436-13.594 15.02l-21.464-.622c-2.575-.041-14.402-19.387 7.467-9.608 9.534-15.335-19.383-4.466-11.905-14.687 2.16-3.136-2.67-9.328-5.92-12.94-3.652 3.456-8.179 9.081-7.094 12.279 7.63 11.34-18.516-2.11-12.893 13.197 22.788-5.73 6.228 11.404 3.648 11.33l-14.284-.416c-5.16-.15-4.83-8.722-11.73-15.985-6.686 5.728-7.918 15.436-13.522 15.184l-21.392-.457c-21.659-.042-7.532-26.257 7.466-9.608 7.499-20.424-15.82-8.792-11.905-14.687 2.16-3.136 3.945-11.873.696-15.484-3.397 1.42-8.179 6.79-8.875 10.751-3.31 14.649-13.173-4.653-17.473 16.506 21.516-11.584 10.808 12.421 3.393 12.092l-14.283-.415c-5.16-.15-2.033-9.23-8.931-16.494-6.687 5.728-10.718 15.945-16.172 15.623l-21.243-.526c-2.575-.042-11.858-30.328 9.248-10.626 10.297-18.388-13.022-9.046-5.544-19.267 2.16-3.136 4.708-5.766 1.46-9.377-5.18 1.42-9.707 3.228-14.728 9.224-6.364 9.306-15.463-4.908-14.42 14.98 22.28-12.347-.133 14.71-2.713 14.636l-14.284-.415c-5.16-.15-10.429-4.651-7.913-15.476-6.687 5.727-10.264 10.395-16.871 16.622-3.082 4.022-6.993 6.537-9.085 12.071 151.192 2.691 305.438 7.417 456.63 10.107-3.055-4.157-6.244-8.381-10.054-12.615z" style="font-size:12px;fill:url(#ad);fill-rule:evenodd;stroke:none;stroke-width:1" inkscape:connector-curvature="0"/><path transform="translate(257.913 239.505)" style="font-size:12px;fill:url(#ae);stroke:none" d="m69 22 1 1-1-1m2 0 2 2-2-2m10 0 1 1-1-1m-29 1 1 1z" inkscape:connector-curvature="0"/><path sodipodi:nodetypes="cccccccccccccccccc" d="M342.203 276.185c1.469 0 4.277 3.027 5.807 3.027 4.91-2.417 1.336-4.581 1.336-6.347 0-1.044 3.248-2.261 4.523-2.79 4.448-.628 1.586 7.623.143 10.616-.72 1.495-.79 2.96-1.754 4.41-1.33 2.002-2.526 5.005-7.096 2.568-1.062-.989-7.163-5.96-7.647-6.825-1.823-3.267 5.415-.247 5.723-3.22.02-.187-1.794-1.283-1.035-1.44zm3.58-17.166c2.157 0 3.71-3.426 5.795-3.79 1.764-.307 2.841-2.042 3.432.85.361 1.77-.055 5-2.37 4.977-.033 0-3.938 1.933-4.285 2.184-.416.3-2.576 1.241-3.086 1.245-.3.002 1.213-2.407 1.285-3.603.05-.81-.836-.661-.77-1.863z" style="font-size:12px;fill:url(#af);fill-rule:evenodd;stroke:none;stroke-width:1" inkscape:connector-curvature="0" transform="translate(16.284 -4.071)"/><path sodipodi:nodetypes="ccccccccccccccccccccccccccccccc" d="M267.223 274.432c4.747-2.795 7.9.293 12.743.768 5.099 2.461 6.9 1.617 11.112-.857 6.762-3.749 14.202.834 17.403-1.164 3.508-2.19-4.678-11.38-6.092-13.71-5.773-6.956.82-5.028 2.475-8.646-8.027-12.608 5.384-4.416 6.82-3.66 3.382 1.784 6.68 4.048 10.1 5.77 1.39.98 2.988 1.46 4.461.388.418-.305 2.694-2.893 3.333-3.53 2.696-2.693 10.288-2.622 13.069-.396 6.193 4.906-2.102 6.467 2.764 8.067.898.736-.252 2.31.917 2.758.945 1.71-1.321 3.009-1.172 5.075-1.876 2.266-1.66 3.616-4.078 4.559-3.259 1.272-1 5.27 1.034 6.13 2.47 1.047 6.782 6.73 3.032 8.886-2.021 1.163-4.728-3.19-7.493-3.442-1.902-.174-3.908 3.063-5.469 4.06-1.648 1.052-2.105 2.543-3.958 3.16-3.373 1.125-4.538 2.267-8.124 2.77-1.945.272-5.656 1.974-7.613 1.953-1.923-.021-4.767-.533-6.855-.518.531.025-.884-.467-2.317 1.445-1.715 1.402-1.097 5.927-9.222 6.47-4.81-.165-5.932-3.488-7.032-4.181-2.894-1.825-1.162-6.968-3.614-9.089-.117-.1-3.654-.509-4.714-.919-3.846-1.485-7.163-3.155-10.986-4.637-1.956-.264-5.58 1.472-6.81 1.507-.105-4.817 4.4-8.131 6.286-9.017z" style="fill:url(#ag);fill-opacity:1;fill-rule:evenodd;stroke:none;stroke-width:1pt;stroke-linecap:butt;stroke-linejoin:miter;stroke-opacity:1" inkscape:connector-curvature="0" transform="translate(16.284 -4.071)"/><path transform="translate(274.197 235.434)" sodipodi:nodetypes="cccccccccccccccccccccccccccccccccccccccccccccccccccccccccccccccccccccccccccccccccccccccccccccccccccc" style="font-size:12px;fill:url(#ah);stroke:none" d="m42 2 3 9-7 1 14 22c-4.277-.184-8.73-1.5-13-.772-3.92.669-6.931 3.594-11 3.74-5.09.184-10.37-3.982-15-3.406C8.13 34.168 2.285 39.169 3 44c9.99-2.934 13.667 4.039 23 5 .115 12.652 14.975 18.268 20 5 8.709 1.592 16.556-2.158 24.661-5.46L73 45l-4 1-15 7 1-3h-3l1 3-2-3-9-1h-1c-5.339 2.849-10.653 2.338-15-2-5.42-.08-8.85-2.734-12-7L4 42l1-3 2 1 8-6 1 4c4.34-.641 6.721.197 9 4h1l1-3 3 2 1-3h1l1 4 3-1c-2.254-9.099 9.313-6.191 13-2h1c0-7.199 9.887-.16 14-2l-2-4h-1l1 4-4-6-2 2-3-7v-4l-3 3h-1l3-5v-1l-3-1 4-1 4 5-3-5 4 2-2-3 3 1h1l-2-5 7 5-2-1 1 4-5-2v1c3.58 2.12 3.376 4.286 2 8l3-2v6l4-1-2-9h1l1 7 8 2v-1l-2-1 2-3h1v3l3-5 4 1-2-3 3-1v-5l-8 4 2-4-1-1-1 2h-7l2 1v-1l-1-4 6 1v-3l6 1v-1l-9-2-1 3-1-2h-1l-3 2-3 4C63.98 10.58 46.731 3.227 42 2z" inkscape:connector-curvature="0"/><path transform="translate(274.197 235.434)" sodipodi:nodetypes="cccccccccccccc" style="font-size:12px;fill:url(#ai);stroke:none" d="M86.636 14.544 87 18l-.908-.509-.346-1.038M44 13l1 1-1-1m28.333.667.334.666-.334-.666M62 14l1 1-1-1z" inkscape:connector-curvature="0"/><path transform="translate(274.197 235.434)" sodipodi:nodetypes="ccc" style="font-size:12px;fill:url(#aj);stroke:none" d="m86.89 26.219 1.71-3.965c-3.831-.863-2.469 1.972-1.71 3.965z" inkscape:connector-curvature="0"/><path transform="translate(274.197 235.434)" sodipodi:nodetypes="ccccccccccccccccccccc" style="font-size:12px;fill:url(#ak);stroke:none" d="m59 31 1 1-1-1zm19-2-4 2v1l13 10-1-3 4-4-4 4h-3l-3-7 4.583-2.364-.11-1.145L78 29m-20 0 1 1-1-1m3 2 2-3-2 3" inkscape:connector-curvature="0"/><path transform="translate(274.197 235.434)" sodipodi:nodetypes="ccccc" style="font-size:12px;fill:url(#al);stroke:none" d="M94 32c1.085 3.424-.449 7.78-3.62 9.699.773 2.014 2.086 6.546-1.46 6.581L91 49c2.21-4.718 8.697-13.288 3-17z" inkscape:connector-curvature="0"/><path transform="translate(274.197 235.434)" style="font-size:12px;fill:url(#am);stroke:none" d="m58.449 49.551 1 1-1-1m-13 2 5 1v-1l-10-1-8 4-2-4c-4.319 3.15-1.609 8.121 3.174 9.407 5.467 1.47 10.482-3.72 11.826-8.407m-3-1 1 1-1-1z" inkscape:connector-curvature="0"/><g><path sodipodi:nodetypes="cccccccccccccccccc" d="M342.203 276.185c1.469 0 4.277 3.027 5.807 3.027 4.91-2.417 1.336-4.581 1.336-6.347 0-1.044 3.248-2.261 4.523-2.79 4.448-.628 1.586 7.623.143 10.616-.72 1.495-.79 2.96-1.754 4.41-1.33 2.002-2.526 5.005-7.096 2.568-1.062-.989-7.163-5.96-7.647-6.825-1.823-3.267 5.415-.247 5.723-3.22.02-.187-1.794-1.283-1.035-1.44zm3.58-17.166c2.157 0 3.71-3.426 5.795-3.79 1.764-.307 2.841-2.042 3.432.85.361 1.77-.055 5-2.37 4.977-.033 0-3.938 1.933-4.285 2.184-.416.3-2.576 1.241-3.086 1.245-.3.002 1.213-2.407 1.285-3.603.05-.81-.836-.661-.77-1.863z" style="font-size:12px;fill:url(#an);fill-rule:evenodd;stroke:none;stroke-width:1" inkscape:connector-curvature="0" transform="matrix(-1 0 0 1 717.595 -4.071)"/><path sodipodi:nodetypes="ccccccccccccccccccccccccccccccc" d="M267.223 274.432c4.747-2.795 7.9.293 12.743.768 5.099 2.461 6.9 1.617 11.112-.857 6.762-3.749 14.202.834 17.403-1.164 3.508-2.19-4.678-11.38-6.092-13.71-5.773-6.956.82-5.028 2.475-8.646-8.027-12.608 5.384-4.416 6.82-3.66 3.382 1.784 6.68 4.048 10.1 5.77 1.39.98 2.988 1.46 4.461.388.418-.305 2.694-2.893 3.333-3.53 2.696-2.693 10.288-2.622 13.069-.396 6.193 4.906-2.102 6.467 2.764 8.067.898.736-.252 2.31.917 2.758.945 1.71-1.321 3.009-1.172 5.075-1.876 2.266-1.66 3.616-4.078 4.559-3.259 1.272-1 5.27 1.034 6.13 2.47 1.047 6.782 6.73 3.032 8.886-2.021 1.163-4.728-3.19-7.493-3.442-1.902-.174-3.908 3.063-5.469 4.06-1.648 1.052-2.105 2.543-3.958 3.16-3.373 1.125-4.538 2.267-8.124 2.77-1.945.272-5.656 1.974-7.613 1.953-1.923-.021-4.767-.533-6.855-.518.531.025-.884-.467-2.317 1.445-1.715 1.402-1.097 5.927-9.222 6.47-4.81-.165-5.932-3.488-7.032-4.181-2.894-1.825-1.162-6.968-3.614-9.089-.117-.1-3.654-.509-4.714-.919-3.846-1.485-7.163-3.155-10.986-4.637-1.956-.264-5.58 1.472-6.81 1.507-.105-4.817 4.4-8.131 6.286-9.017z" style="fill:url(#ao);fill-opacity:1;fill-rule:evenodd;stroke:none;stroke-width:1pt;stroke-linecap:butt;stroke-linejoin:miter;stroke-opacity:1" inkscape:connector-curvature="0" transform="matrix(-1 0 0 1 717.595 -4.071)"/><path transform="matrix(-1 0 0 1 459.682 235.433)" sodipodi:nodetypes="cccccccccccccccccccccccccccccccccccccccccccccccccccccccccccccccccccccccccccccccccccccccccccccccccccc" style="font-size:12px;fill:url(#ap);stroke:none" d="m42 2 3 9-7 1 14 22c-4.277-.184-8.73-1.5-13-.772-3.92.669-6.931 3.594-11 3.74-5.09.184-10.37-3.982-15-3.406C8.13 34.168 2.285 39.169 3 44c9.99-2.934 13.667 4.039 23 5 .115 12.652 14.975 18.268 20 5 8.709 1.592 16.556-2.158 24.661-5.46L73 45l-4 1-15 7 1-3h-3l1 3-2-3-9-1h-1c-5.339 2.849-10.653 2.338-15-2-5.42-.08-8.85-2.734-12-7L4 42l1-3 2 1 8-6 1 4c4.34-.641 6.721.197 9 4h1l1-3 3 2 1-3h1l1 4 3-1c-2.254-9.099 9.313-6.191 13-2h1c0-7.199 9.887-.16 14-2l-2-4h-1l1 4-4-6-2 2-3-7v-4l-3 3h-1l3-5v-1l-3-1 4-1 4 5-3-5 4 2-2-3 3 1h1l-2-5 7 5-2-1 1 4-5-2v1c3.58 2.12 3.376 4.286 2 8l3-2v6l4-1-2-9h1l1 7 8 2v-1l-2-1 2-3h1v3l3-5 4 1-2-3 3-1v-5l-8 4 2-4-1-1-1 2h-7l2 1v-1l-1-4 6 1v-3l6 1v-1l-9-2-1 3-1-2h-1l-3 2-3 4C63.98 10.58 46.731 3.227 42 2z" inkscape:connector-curvature="0"/><path transform="matrix(-1 0 0 1 459.682 235.433)" sodipodi:nodetypes="cccccccccccccc" style="font-size:12px;fill:url(#aq);stroke:none" d="M86.636 14.544 87 18l-.908-.509-.346-1.038M44 13l1 1-1-1m28.333.667.334.666-.334-.666M62 14l1 1-1-1z" inkscape:connector-curvature="0"/><path transform="matrix(-1 0 0 1 459.682 235.433)" sodipodi:nodetypes="ccc" style="font-size:12px;fill:url(#ar);stroke:none" d="m86.89 26.219 1.71-3.965c-3.831-.863-2.469 1.972-1.71 3.965z" inkscape:connector-curvature="0"/><path transform="matrix(-1 0 0 1 459.682 235.433)" sodipodi:nodetypes="ccccccccccccccccccccc" style="font-size:12px;fill:url(#as);stroke:none" d="m59 31 1 1-1-1zm19-2-4 2v1l13 10-1-3 4-4-4 4h-3l-3-7 4.583-2.364-.11-1.145L78 29m-20 0 1 1-1-1m3 2 2-3-2 3" inkscape:connector-curvature="0"/><path transform="matrix(-1 0 0 1 459.682 235.433)" sodipodi:nodetypes="ccccc" style="font-size:12px;fill:url(#at);stroke:none" d="M94 32c1.085 3.424-.449 7.78-3.62 9.699.773 2.014 2.086 6.546-1.46 6.581L91 49c2.21-4.718 8.697-13.288 3-17z" inkscape:connector-curvature="0"/><path transform="matrix(-1 0 0 1 459.682 235.433)" style="font-size:12px;fill:url(#au);stroke:none" d="m58.449 49.551 1 1-1-1m-13 2 5 1v-1l-10-1-8 4-2-4c-4.319 3.15-1.609 8.121 3.174 9.407 5.467 1.47 10.482-3.72 11.826-8.407m-3-1 1 1-1-1z" inkscape:connector-curvature="0"/></g><path sodipodi:nodetypes="cccc" d="M398.961 63.101c0 6.745-52.923 6.745-52.923 0s11.847-12.213 26.462-12.213c14.614 0 26.461 5.468 26.461 12.213z" style="font-size:12px;fill:url(#av);fill-rule:evenodd;stroke-width:1" inkscape:connector-curvature="0"/><g style="fill:url(#aw)" transform="matrix(.43218 0 0 .56174 76.454 281.526)"><path style="fill:url(#ax);stroke:none" d="M282.074-97.218c-17.619.015-26.875 23.588-27 40-23.395 4.628-42.336-.15-67 3.264-8.516 1.18-15.89 11.626-24.025 11.003-13.659-1.046-22.683-22.803-15.66-33.772 15.099-23.585 33.7-6.42 49.893.75 5.152 2.281 11.052-.2 11.334-6.298.427-9.255-11.537-7.646-17.542-9.195-14.764-3.81-38.384-12.751-48.355 3.83-6.65 11.057-14.055 35.38-4.548 46.448 7.616 8.868 21.122 6.021 21.903 19.97-6.79 2.274-21.832 14.131-14.246 22.062 16.786 17.549 54.518 27.85 74.246 19.938-3.989-15.647-29.939-15.613-42-23v-1h1c24.091 12.526 56.88 6.389 81.863 17.444 12.316 5.45 29.214 19.618 44.137 12.556 3.884 6.229 20.541 16.602 28 20l1-6 16 7 1-6 12 6c.627-19.019-8.528-31.23-29-32 4.474-2.229 10.497-2.693 14.517-5.494 16.835-11.73-17.969-34.712-17.559-44.636.675-16.32 12.6-41.921-1.068-57.212-7.329-8.2-44.698-21.639-48.89-5.658z" inkscape:connector-curvature="0"/><path style="fill:url(#ay);stroke:none" d="M285.386-91.83c-9.82-1.13-24.546-1.579-16 12-14.78 9.325-12.222 24.21-5 37-5.995.87-5.939 4.62-6 10 7.098 1.736 8.837 4.872 9 12 10.457.53 10.805 11.292 18.214 13.583 5.626 1.74 10.231-4.028 3.786-6.584 4.208-11.918 14.656-14.777 24-6h1l-1-8-31 2 2-6-6 2c-5.562-12.642-6.267-17.425-8-31l6-1c-.37-4.558-1.355-6.329-6-7 4.792-5.58 13.132-2.71 15-11l8 1v-8c4.45 3.255 7.921 6.333 11 0h3l1 5 9-4-1 6 9-1c-.304-13.33-13.454-7.304-15-19-9.438 1.48-24.428-4.942-25 8z" inkscape:connector-curvature="0"/><path style="fill:url(#az);stroke:none" d="M140.15-69.293v1h1v-1l1-4h1v17h1v-1c0-22.243 8.423-34.857 32-35h1v-1c-19.23-4.726-35.17 1.573-37 24z" inkscape:connector-curvature="0"/><path style="fill:url(#aA);stroke:none" d="M189.311-88.293c3.975 4.41 8.574 2.725 14 3v-2l-14-1z" inkscape:connector-curvature="0"/><path style="fill:url(#aB);stroke:none" d="M205.999-85.218c-2.452 4.982-7.082 4.245-12 5v1c6.248 1.685 11.42 2.518 13-5l-1-1z" inkscape:connector-curvature="0"/><path style="fill:url(#aC);stroke:none" d="m293.086-31.83-11-19c7.228 3.15 21.102 12.91 23-1-5.263-1.311-9.994-10.352-14-2l-8-6c4.737-.637 3.013-5.107 3-9 7.186.925 14.363 11.33 20 2l8-1c-6.58-3.836-12.76-10.04-20.928-8.368-24.25 4.965-17.736 36.476-.072 44.367z" inkscape:connector-curvature="0"/><path style="fill:url(#aD);stroke:none" d="M142.15-72.218v1c-6.878 18.84 5.018 45.043 29 35v1c-2.506 3.978-20.269 27.629-20.228 28.922.557 17.547 42.932 14.336 50.227 31.078l9-2c-5.355-20.142-37.24-24.192-54-24v-1c12.917-7.563 51.155-.462 52-20 7.88 7.151-2.615 13.356-8 18v1c19.542.647 46.53 5.701 64.985 11.908 12.37 4.16 14.605 11.26 29.015 12.092.671-7.07 4.173-9.539 10-13v-1c-5.825-1.148-17.9-.995-22.454-4.218-11.672-8.262-12.67-22.757-28.546-27.782l5-20-5-9h-1c-18.004 16.942-41.166-1.317-61.953 2.383-9.482 1.688-17.012 12.95-26.968 11.145-8.63-1.565-11.894-11.829-20.079-14.528l-1-17z" inkscape:connector-curvature="0"/><path style="fill:url(#aE);stroke:none" d="m324.461-74.345 3 15h1c1.28-6.076 1.26-11.057-4-15z" inkscape:connector-curvature="0"/><path style="fill:url(#aF);stroke:none" d="M307.074-59.206v2l5 4v1h1v-1c-.905-3.728-2.45-4.735-6-6z" inkscape:connector-curvature="0"/><path style="fill:url(#aG);stroke:none" d="M314.461-66.345v6h3l-1-6h-2z" inkscape:connector-curvature="0"/><path style="fill:url(#aH);stroke:none" d="m315.623-48.756-5 16c-8.575-5.669-9.26-2.815-18 0v1c11.762 6.547 26.723-2.057 24-16l-1-1z" inkscape:connector-curvature="0"/><path style="fill:url(#aI);stroke:none" d="m319.924-10.218 12 10c-10.545-1.722-47.402 12.055-32 26l5-8c.365 4.65 1.278 6.916 6 8 6.333-15.296 31.967-10.769 36.329-23.426 2.45-7.108-12.84-32.334-21.43-28.454-4.002 1.807-4.908 12.039-5.9 15.88z" inkscape:connector-curvature="0"/><path style="fill:url(#aJ);stroke:none" d="M324.461 39.857c3.432-1.164 4.096-2.407 4-6l20 8-6-11c5.895 1.96 9.933 4.507 13 10C372.591 32.85 323.234 4.3 319.854 24.9c-.813 4.951 4.531 9.595 4.607 14.958z" inkscape:connector-curvature="0"/></g><g style="fill:url(#aK)" transform="matrix(-.43218 0 0 .56174 676.197 281.526)"><path style="fill:url(#aL);stroke:none" d="M282.074-97.218c-17.619.015-26.875 23.588-27 40-23.395 4.628-42.336-.15-67 3.264-8.516 1.18-15.89 11.626-24.025 11.003-13.659-1.046-22.683-22.803-15.66-33.772 15.099-23.585 33.7-6.42 49.893.75 5.152 2.281 11.052-.2 11.334-6.298.427-9.255-11.537-7.646-17.542-9.195-14.764-3.81-38.384-12.751-48.355 3.83-6.65 11.057-14.055 35.38-4.548 46.448 7.616 8.868 21.122 6.021 21.903 19.97-6.79 2.274-21.832 14.131-14.246 22.062 16.786 17.549 54.518 27.85 74.246 19.938-3.989-15.647-29.939-15.613-42-23v-1h1c24.091 12.526 56.88 6.389 81.863 17.444 12.316 5.45 29.214 19.618 44.137 12.556 3.884 6.229 20.541 16.602 28 20l1-6 16 7 1-6 12 6c.627-19.019-8.528-31.23-29-32 4.474-2.229 10.497-2.693 14.517-5.494 16.835-11.73-17.969-34.712-17.559-44.636.675-16.32 12.6-41.921-1.068-57.212-7.329-8.2-44.698-21.639-48.89-5.658z" inkscape:connector-curvature="0"/><path style="fill:url(#aM);stroke:none" d="M285.386-91.83c-9.82-1.13-24.546-1.579-16 12-14.78 9.325-12.222 24.21-5 37-5.995.87-5.939 4.62-6 10 7.098 1.736 8.837 4.872 9 12 10.457.53 10.805 11.292 18.214 13.583 5.626 1.74 10.231-4.028 3.786-6.584 4.208-11.918 14.656-14.777 24-6h1l-1-8-31 2 2-6-6 2c-5.562-12.642-6.267-17.425-8-31l6-1c-.37-4.558-1.355-6.329-6-7 4.792-5.58 13.132-2.71 15-11l8 1v-8c4.45 3.255 7.921 6.333 11 0h3l1 5 9-4-1 6 9-1c-.304-13.33-13.454-7.304-15-19-9.438 1.48-24.428-4.942-25 8z" inkscape:connector-curvature="0"/><path style="fill:url(#aN);stroke:none" d="M140.15-69.293v1h1v-1l1-4h1v17h1v-1c0-22.243 8.423-34.857 32-35h1v-1c-19.23-4.726-35.17 1.573-37 24z" inkscape:connector-curvature="0"/><path style="fill:url(#aO);stroke:none" d="M189.311-88.293c3.975 4.41 8.574 2.725 14 3v-2l-14-1z" inkscape:connector-curvature="0"/><path style="fill:url(#aP);stroke:none" d="M205.999-85.218c-2.452 4.982-7.082 4.245-12 5v1c6.248 1.685 11.42 2.518 13-5l-1-1z" inkscape:connector-curvature="0"/><path style="fill:url(#aQ);stroke:none" d="m293.086-31.83-11-19c7.228 3.15 21.102 12.91 23-1-5.263-1.311-9.994-10.352-14-2l-8-6c4.737-.637 3.013-5.107 3-9 7.186.925 14.363 11.33 20 2l8-1c-6.58-3.836-12.76-10.04-20.928-8.368-24.25 4.965-17.736 36.476-.072 44.367z" inkscape:connector-curvature="0"/><path style="fill:url(#aR);stroke:none" d="M142.15-72.218v1c-6.878 18.84 5.018 45.043 29 35v1c-2.506 3.978-20.269 27.629-20.228 28.922.557 17.547 42.932 14.336 50.227 31.078l9-2c-5.355-20.142-37.24-24.192-54-24v-1c12.917-7.563 51.155-.462 52-20 7.88 7.151-2.615 13.356-8 18v1c19.542.647 46.53 5.701 64.985 11.908 12.37 4.16 14.605 11.26 29.015 12.092.671-7.07 4.173-9.539 10-13v-1c-5.825-1.148-17.9-.995-22.454-4.218-11.672-8.262-12.67-22.757-28.546-27.782l5-20-5-9h-1c-18.004 16.942-41.166-1.317-61.953 2.383-9.482 1.688-17.012 12.95-26.968 11.145-8.63-1.565-11.894-11.829-20.079-14.528l-1-17z" inkscape:connector-curvature="0"/><path style="fill:url(#aS);stroke:none" d="m324.461-74.345 3 15h1c1.28-6.076 1.26-11.057-4-15z" inkscape:connector-curvature="0"/><path style="fill:url(#aT);stroke:none" d="M307.074-59.206v2l5 4v1h1v-1c-.905-3.728-2.45-4.735-6-6z" inkscape:connector-curvature="0"/><path style="fill:url(#aU);stroke:none" d="M314.461-66.345v6h3l-1-6h-2z" inkscape:connector-curvature="0"/><path style="fill:url(#aV);stroke:none" d="m315.623-48.756-5 16c-8.575-5.669-9.26-2.815-18 0v1c11.762 6.547 26.723-2.057 24-16l-1-1z" inkscape:connector-curvature="0"/><path style="fill:url(#aW);stroke:none" d="m319.924-10.218 12 10c-10.545-1.722-47.402 12.055-32 26l5-8c.365 4.65 1.278 6.916 6 8 6.333-15.296 31.967-10.769 36.329-23.426 2.45-7.108-12.84-32.334-21.43-28.454-4.002 1.807-4.908 12.039-5.9 15.88z" inkscape:connector-curvature="0"/><path style="fill:url(#aX);stroke:none" d="M324.461 39.857c3.432-1.164 4.096-2.407 4-6l20 8-6-11c5.895 1.96 9.933 4.507 13 10C372.591 32.85 323.234 4.3 319.854 24.9c-.813 4.951 4.531 9.595 4.607 14.958z" inkscape:connector-curvature="0"/></g></g></svg>