<svg xmlns:dc="http://purl.org/dc/elements/1.1/" xmlns:cc="http://creativecommons.org/ns#" xmlns:rdf="http://www.w3.org/1999/02/22-rdf-syntax-ns#" xmlns="http://www.w3.org/2000/svg" xmlns:xlink="http://www.w3.org/1999/xlink" width="800" height="640" viewBox="0 0 800.00001 640.00003" version="1.1" id="svg8"><defs id="defs2"><linearGradient id="linearGradient3011"><stop style="stop-color:#a4a291;stop-opacity:.81789064" offset="0" id="stop3007"/><stop style="stop-color:#a4a291;stop-opacity:.29747096" offset="1" id="stop3009"/></linearGradient><linearGradient id="linearGradient2346"><stop style="stop-color:#76735d;stop-opacity:.39350566" offset="0" id="stop2342"/><stop style="stop-color:#76735d;stop-opacity:1" offset="1" id="stop2344"/></linearGradient><linearGradient id="linearGradient2337"><stop style="stop-color:#92907d;stop-opacity:1" offset="0" id="stop2333"/><stop style="stop-color:#92907d;stop-opacity:.33469212" offset="1" id="stop2335"/></linearGradient><linearGradient id="linearGradient1815"><stop style="stop-color:#fff;stop-opacity:.39905885" offset="0" id="stop1811"/><stop style="stop-color:#5c5c5c;stop-opacity:0" offset="1" id="stop1813"/></linearGradient><linearGradient id="linearGradient1796"><stop style="stop-color:#fff;stop-opacity:.35289121" offset="0" id="stop1792"/><stop style="stop-color:#fff;stop-opacity:.00153308" offset="1" id="stop1794"/></linearGradient><linearGradient id="linearGradient1390"><stop style="stop-color:#595849;stop-opacity:1" offset="0" id="stop1386"/><stop style="stop-color:#969586;stop-opacity:1" offset="1" id="stop1388"/></linearGradient><linearGradient id="linearGradient1346"><stop style="stop-color:#c9c8bc;stop-opacity:1" offset="0" id="stop1342"/><stop style="stop-color:#76735d;stop-opacity:1" offset="1" id="stop1344"/></linearGradient><linearGradient id="linearGradient1165"><stop style="stop-color:#568ed4;stop-opacity:1" offset="0" id="stop1161"/><stop style="stop-color:#76a4dc;stop-opacity:1" offset="1" id="stop1163"/></linearGradient><linearGradient id="linearGradient1034"><stop style="stop-color:#f9f0e6;stop-opacity:1" offset="0" id="stop1030"/><stop style="stop-color:#eba238;stop-opacity:1" offset="1" id="stop1032"/></linearGradient><linearGradient id="linearGradient1022"><stop style="stop-color:#f9f0e6;stop-opacity:1" offset="0" id="stop1018"/><stop style="stop-color:#796c6c;stop-opacity:1" offset="1" id="stop1020"/></linearGradient><linearGradient xlink:href="#linearGradient1034" id="linearGradient1036" x1="378.44461" y1="427.76233" x2="378.44461" y2="634.34723" gradientUnits="userSpaceOnUse"/><linearGradient xlink:href="#linearGradient1165" id="linearGradient1167" x1="548.60144" y1="7.9327188" x2="548.60144" y2="559.84326" gradientUnits="userSpaceOnUse"/><linearGradient xlink:href="#linearGradient1390" id="linearGradient1392" x1="745.03033" y1="241.39246" x2="621.02771" y2="239.01906" gradientUnits="userSpaceOnUse"/><linearGradient xlink:href="#linearGradient1796" id="linearGradient1798" x1="260.57001" y1="443.02676" x2="260.57001" y2="547.40613" gradientUnits="userSpaceOnUse" gradientTransform="matrix(1.25639 0 0 1.16685 136.779 -510.627)"/><linearGradient xlink:href="#linearGradient1815" id="linearGradient1817" x1="320.42624" y1="333.21313" x2="320.42624" y2="499.02499" gradientUnits="userSpaceOnUse" gradientTransform="rotate(46.174 294.414 312)"/><linearGradient xlink:href="#linearGradient2337" id="linearGradient2339" x1="477.71803" y1="194.50279" x2="630.12313" y2="194.50279" gradientUnits="userSpaceOnUse"/><linearGradient xlink:href="#linearGradient2346" id="linearGradient2348" x1="648.00292" y1="165.22116" x2="739.33082" y2="165.22116" gradientUnits="userSpaceOnUse"/><linearGradient xlink:href="#linearGradient3011" id="linearGradient3013" x1="320.30109" y1="297.57776" x2="320.30109" y2="331.65237" gradientUnits="userSpaceOnUse" gradientTransform="translate(-60)"/><radialGradient xlink:href="#linearGradient1022" id="radialGradient1280" cx="383.12891" cy="441.14139" fx="383.12891" fy="441.14139" r="433.44477" gradientTransform="matrix(2.01224 0 0 2.0346 -387.817 -456.406)" gradientUnits="userSpaceOnUse"/><radialGradient xlink:href="#linearGradient1346" id="radialGradient1348" cx="555.84351" cy="399.02985" fx="555.84351" fy="399.02985" r="149.46567" gradientUnits="userSpaceOnUse" gradientTransform="matrix(.97538 .00296 -.00366 1.20567 45.288 -276.993)"/></defs><metadata id="metadata5"><rdf:RDF><cc:Work><dc:format>image/svg+xml</dc:format><dc:type rdf:resource="http://purl.org/dc/dcmitype/StillImage"/><dc:title/><dc:date>2023</dc:date><dc:creator><cc:Agent><dc:title>Timothée Giet</dc:title></cc:Agent></dc:creator><cc:license rdf:resource="http://creativecommons.org/licenses/by-sa/4.0/"/></cc:Work><cc:License rdf:about="http://creativecommons.org/licenses/by-sa/4.0/"><cc:permits rdf:resource="http://creativecommons.org/ns#Reproduction"/><cc:permits rdf:resource="http://creativecommons.org/ns#Distribution"/><cc:requires rdf:resource="http://creativecommons.org/ns#Notice"/><cc:requires rdf:resource="http://creativecommons.org/ns#Attribution"/><cc:permits rdf:resource="http://creativecommons.org/ns#DerivativeWorks"/><cc:requires rdf:resource="http://creativecommons.org/ns#ShareAlike"/></cc:License></rdf:RDF></metadata><g id="layer1" style="display:inline"><rect style="fill:#000;fill-opacity:1;stroke:none;stroke-width:6.39733;stroke-linecap:round;stroke-linejoin:round" id="rect833" width="800" height="640" x="0" y="0"/></g><g id="layer6" style="display:inline"><path id="path1854" style="fill:#dedcd6;fill-opacity:1;stroke:none;stroke-width:.504871;stroke-linecap:round;stroke-linejoin:round;stroke-miterlimit:4;stroke-dasharray:none;stroke-opacity:.00153306" d="M788.061 158.32a1.95 1.95 0 1 0-3.387-1.931 1.95 1.95 0 0 0 3.387 1.93zm3.956-27.664a2.36 2.36 0 1 0-4.087-2.362 2.36 2.36 0 0 0 4.087 2.362zm-113.15 163.017a2.413 2.413 0 1 0-.002.003zm30.307-87.639a2.06 2.06 0 1 0-3.567-2.058 2.06 2.06 0 0 0 3.567 2.058zm65.475-125.026a1.66 1.66 0 1 0-.004.006l.004-.007zm-2.886-26.8a2.527 2.527 0 1 0-4.377-2.527 2.527 2.527 0 0 0 4.377 2.528zM624.276 305.31a.92.92 0 1 0-1.594-.92.92.92 0 0 0 1.594.92zM776.857 32.964a1.826 1.826 0 1 0-.014.024l.014-.024zm-4.69 4.943a1.697 1.697 0 1 0-2.94-1.695 1.697 1.697 0 0 0 2.94 1.695zm7.945-15.226a.934.934 0 1 0-.002.005c0-.002.002-.003.003-.005zM608.85 299.815a2.374 2.374 0 1 0-4.113-2.373 2.374 2.374 0 0 0 4.113 2.373zm95.295-166.267a2.374 2.374 0 1 0-4.112-2.373 2.374 2.374 0 0 0 4.112 2.373zm12.499-81.966a1.208 1.208 0 1 0-.024.042l.024-.042zM593.2 246.809a2.06 2.06 0 1 0-3.568-2.058 2.06 2.06 0 0 0 3.568 2.058zM570.57 270a.878.878 0 1 0-1.558-.81.878.878 0 0 0 1.557.81zM719.58 10.311a2.396 2.396 0 1 0-4.148-2.398 2.396 2.396 0 0 0 4.149 2.398zM617.737 171.335a.916.916 0 1 0-1.587-.913.916.916 0 0 0 1.587.913zm65.497-113.51a2.408 2.408 0 1 0-4.172-2.408 2.408 2.408 0 0 0 4.172 2.408zm-12.448 6.78a2.059 2.059 0 1 0-3.565-2.062 2.059 2.059 0 0 0 3.565 2.062zm-63.183 102.333a2.193 2.193 0 1 0-3.797-2.193 2.193 2.193 0 0 0 3.797 2.193zm73.505-134.56a1.326 1.326 0 1 0-2.297-1.326 1.326 1.326 0 0 0 2.297 1.326zM549.72 178.885a2.117 2.117 0 1 0-.01.018l.01-.018zm40.082-138.553a1.806 1.806 0 1 0-.006.01l.006-.01zm-84.7 87.958a1.447 1.447 0 1 0-2.506-1.448 1.447 1.447 0 0 0 2.506 1.448zm-1.649 42.653a1.679 1.679 0 1 0-.01.019l.01-.019zm21.5-144.955a1.746 1.746 0 1 0-3.096-1.613 1.746 1.746 0 0 0 3.097 1.613zM402.866 39.283a1.514 1.514 0 1 0-2.623-1.514 1.514 1.514 0 0 0 2.623 1.514zm-182.995 259.7a1.427 1.427 0 1 0-.016.028l.016-.027zm53.107-102a1.624 1.624 0 1 0-2.812-1.623 1.624 1.624 0 0 0 2.812 1.623zM316.924 77.39a1.582 1.582 0 1 0-2.74-1.581 1.582 1.582 0 0 0 2.74 1.581zM221.01 182.426a.995.995 0 1 0-1.725-.993.995.995 0 0 0 1.725.993zM311.358 2.524c1.103-5.57-6.363-1.502-2.748.737a2.01 2.01 0 0 0 2.748-.737zM76.365 401.88a1.282 1.282 0 1 0-.006.012l.006-.012zM53.173 32.993a2.266 2.266 0 1 0-.008.014c.003-.005.014-.013.008-.014zm-13.486-5.801a1.02 1.02 0 1 0-1.766-1.02 1.02 1.02 0 0 0 1.766 1.02zm82.789 255.373a1.202 1.202 0 1 0-2.125-1.125 1.202 1.202 0 0 0 2.125 1.125zM271.482 1.211c-180.988-.807-90.494-.403 0 0zM104.418 306.893a1.083 1.083 0 1 0-.02.034l.02-.034zm27.707-62.009a.952.952 0 1 0-1.667-.92.952.952 0 0 0 1.667.92zM90.289 303.26a2.233 2.233 0 1 0-3.868-2.232 2.233 2.233 0 0 0 3.868 2.232zM230.196 30.834a1.317 1.317 0 1 0-.021.037l.021-.037zM25.261 398.877a2.075 2.075 0 1 0-3.594-2.074 2.075 2.075 0 0 0 3.594 2.074zM90.502 280.21a2.139 2.139 0 1 0-3.704-2.14 2.139 2.139 0 0 0 3.704 2.14zm-15.376 14.288a1.552 1.552 0 1 0-.014.026l.014-.026zm98.51-195.367a2.521 2.521 0 1 0-4.367-2.522 2.521 2.521 0 0 0 4.367 2.522zM49.974 256.502a2.14 2.14 0 1 0-3.747-2.07 2.14 2.14 0 0 0 3.747 2.07zM121.82 77.731a1.61 1.61 0 1 0-2.79-1.612 1.61 1.61 0 0 0 2.79 1.612zm-28.943 9.517a1.763 1.763 0 1 0-3.055-1.761 1.763 1.763 0 0 0 3.055 1.76z"/><path style="opacity:1;fill:#a4a291;fill-opacity:1;stroke:none;stroke-width:3;stroke-linecap:round;stroke-linejoin:round;stroke-miterlimit:4;stroke-dasharray:none;stroke-opacity:.00153306" d="M-78.905 483.04c172.851-25.133 744.678-40.58 958.04 7.502 198.2 44.665 19.52 181.376 19.52 181.376l-1014.817 3.232z" id="path2718"/></g><g id="layer7" style="display:inline"><path style="opacity:1;fill:#8f8e79;fill-opacity:1;stroke:none;stroke-width:2.05419;stroke-linecap:round;stroke-linejoin:round;stroke-miterlimit:4;stroke-dasharray:none;stroke-opacity:1" d="M506.326 477.562c-21.387 5.707-35.927 13.066-35.927 13.066l-10.045 2.833 7.277 8.928 16.989 3.797s-18.205 2.454-32.135 6.937c-13.93 4.482-61.609 13.4-29.745 10.718 31.864-2.682 33.44-.282 60.22.703 26.78.985 20.566-4.733 47.538-4.328 26.972.405 39.923 1.857 39.923 1.857s2.612.966 13.78-2.38c11.17-3.346 38.153-6.96 38.153-6.96s24.488-2.843 33.916-2.872c9.427-.03 28.258-6.516 49.108-10.252 20.85-3.736 59.694-17.6 71.2-18.24 11.506-.639-4.307-2.724-4.307-2.724s-12.04 1.562-25.937 5.405c-13.898 3.843-23.896 6.56-39.359 9.6-15.463 3.04-43.17 5.745-43.17 5.745s-18.995-1.625-30.932-1.215c-11.937.41-18.762-.548-18.762-.548l32.265-7.78-8.737-1.764-38.93 8.408s-22.109-.032-32.788-1.406c-10.68-1.374-23.595-3.67-32.12-3.417-8.525.251-35.152 1.45-35.152 1.45l-5.678-4.093 25.644-11.29z" id="path3325"/><path style="opacity:1;fill:#8f8e79;fill-opacity:1;stroke:none;stroke-width:3;stroke-linecap:round;stroke-linejoin:round;stroke-miterlimit:4;stroke-dasharray:none;stroke-opacity:1" d="M322.405 540.919c-13.923 3.996-22.854 10.525-26.842 11.098-3.988.573-14.111 4.346-14.111 4.346s-11.883 2.849-16.51 8.617c-4.627 5.769-52.46 31.862-54.555 32.406-2.095.544-28.225 21.73-28.225 21.73s16.698 6.077 17.028 8.341c.33 2.264 8.764 7.64 3.687 11.8-5.076 4.16-36.78 15.889-45.786 17.701-9.007 1.813-47.49-.34-47.49-.34l-39.872 23.407-96.302-1.802s38.495-25.415 58.246-34.11c19.75-8.694-4.64-17.935-.495-25.65 4.144-7.716 60.397-35.874 60.397-35.874s25.105-11.022 34.895-10.135c9.79.888-11.818 13.107-20.907 18.028-9.088 4.921-8.486 12.577-4.87 9.812 3.615-2.766 31.176-17.44 41.732-23.97 10.556-6.532 35.565-19.398 45.36-20.67 9.794-1.272 36.862-15.796 36.862-15.796s29.148 1.427 16.292 6.048c-12.855 4.621-27.194 11.08-35.93 18.293-8.737 7.213-35.928 21.2-41.392 23.316-5.463 2.117 17.758 2.843 23.71-1.779 5.954-4.622 29.426-5.699 35.59-11.82 6.166-6.121 6.988-6.139 15.63-10.873 8.641-4.735 79.585-27.749 79.585-27.749s5.906 2.432 4.273 5.625z" id="path3323"/><path style="opacity:1;fill:#282828;fill-opacity:1;stroke:none;stroke-width:3.45123;stroke-linecap:round;stroke-linejoin:round;stroke-miterlimit:4;stroke-dasharray:none;stroke-opacity:1" d="M234.551 522.55c-3.876 4.711-13.109 11.156-13.465 13.68-.356 2.526-.198 8.923 1.386 9.67 1.583.746 13.474 4.293 19.371 2.258 5.898-2.034 12.2-11.241 12.752-13.996.552-2.755-3.065-13.502-3.065-13.502z" id="path3279"/><path style="opacity:1;fill:#282828;fill-opacity:1;stroke:none;stroke-width:3.38004;stroke-linecap:round;stroke-linejoin:round;stroke-miterlimit:4;stroke-dasharray:none;stroke-opacity:1" d="M311.81 522.22c.156 4.953.676 12.047 2.169 13.867 1.492 1.82 7.539 6.149 11.022 5.982 3.484-.167 16.789-2.656 18.688-5.335 1.9-2.68 1.294-12.763-1.171-13.796-4.909-3.925-9.66-5.82-11.922-8.485 0 0-18.028 3.992-18.787 7.768z" id="path3281"/><path style="display:inline;fill:#282828;fill-opacity:1;stroke:none;stroke-width:3.40822;stroke-linecap:round;stroke-linejoin:round;stroke-miterlimit:4;stroke-dasharray:none;stroke-opacity:1" d="M213.884 303.233c-12.634 6.056-8.876 32.542-5.043 48.318 3.834 15.776 12.131 14.685 12.131 14.685s-.456-67.67-7.088-63.003z" id="path3233-1"/><path style="opacity:1;fill:#9b9b9b;fill-opacity:1;stroke:none;stroke-width:3;stroke-linecap:round;stroke-linejoin:round;stroke-miterlimit:4;stroke-dasharray:none;stroke-opacity:1" d="M215.135 306.96c-10.404 5.698-7.31 30.617-4.153 45.46s9.99 13.817 9.99 13.817-.375-63.668-5.837-59.277z" id="path3233"/><rect style="display:inline;fill:#282828;fill-opacity:1;stroke:none;stroke-width:3.14296;stroke-linecap:round;stroke-linejoin:round;stroke-miterlimit:4;stroke-dasharray:none;stroke-opacity:1" id="rect3211-6" width="92.819473" height="116.49212" x="194.77483" y="264.11221" ry="20.275808" transform="rotate(-3.27) skewX(.174)"/><rect style="opacity:1;fill:#9b9b9b;fill-opacity:1;stroke:none;stroke-width:3;stroke-linecap:round;stroke-linejoin:round;stroke-miterlimit:4;stroke-dasharray:none;stroke-opacity:1" id="rect3211" width="87.463287" height="112.63552" x="197.8325" y="268.36691" ry="19.604555" transform="rotate(-3.356)"/><path style="display:inline;fill:#5c5c5c;fill-opacity:1;stroke:none;stroke-width:3.45123;stroke-linecap:round;stroke-linejoin:round;stroke-miterlimit:4;stroke-dasharray:none;stroke-opacity:1" d="M237.993 521.449c-3.876 4.71-12.947 11.83-13.303 14.355-.356 2.525-1.06 4.61.523 5.356 1.583.747 9.474 3.13 15.371 1.097 5.898-2.035 10.674-7.568 11.226-10.323.552-2.755-3.088-10.902-3.088-10.902z" id="path3279-9"/><path style="display:inline;fill:#5c5c5c;fill-opacity:1;stroke:none;stroke-width:3.38004;stroke-linecap:round;stroke-linejoin:round;stroke-miterlimit:4;stroke-dasharray:none;stroke-opacity:1" d="M313.697 522.718c.157 4.952.561 7.927 2.053 9.748 1.492 1.82 7.319 3.894 10.802 3.728 3.484-.167 12.709-2.039 14.608-4.718 1.9-2.68.885-4.844-.325-7.122-2.686-3.058-7.3-5.506-11.612-8.286 0 0-14.767 2.874-15.526 6.65z" id="path3281-3"/><path style="opacity:1;fill:#282828;fill-opacity:1;stroke:none;stroke-width:3;stroke-linecap:round;stroke-linejoin:round;stroke-miterlimit:4;stroke-dasharray:none;stroke-opacity:1" d="M230.742 380.451c1.96 6.09 3.53 16.681 3.447 18.33-.081 1.648-2.856 14.863-3.117 17.794-.26 2.931-2.496 52.72-2.085 62.337.411 9.617 2.42 30.993 2.418 32.27 0 1.276-.608 9.29.707 11.408 1.314 2.119 19.102 4.056 20.718 1.31 1.616-2.744 1.16-10.064 2.478-13.352 1.318-3.288 5.529-15.881 6.491-24.7 0 0 8.073-41.235 7.686-42.719 3.613-.83 6.616-1.525 6.616-1.525s14.54 39.616 17.187 43.583c2.647 3.966 11.628 27.716 14.353 31.009 2.725 3.293 1.355 5.74 3.857 6.59 2.503.85 18.482-3.676 19.598-8.505 1.116-4.828-2.38-7.695-2.423-11.667-.044-3.972-3.494-18.234-3.883-22.956-.39-4.723-7.206-45.204-8.976-50.6-1.77-5.398-6.816-14.262-7.326-18.137-.51-3.874 2.594-20.548 2.594-26.385 0-5.837-6.954-61.485-14.392-64.788-7.438-3.303-57.68 1.507-62.258 6.183-4.579 4.676-3.69 54.52-3.69 54.52z" id="path3167"/><path style="display:inline;fill:#9b9b9b;fill-opacity:1;stroke:none;stroke-width:3;stroke-linecap:round;stroke-linejoin:round;stroke-miterlimit:4;stroke-dasharray:none;stroke-opacity:1" d="M232.388 379.099c1.96 6.09 4.184 19.718 4.103 21.367-.082 1.648-2.62 16.382-2.881 19.314-.261 2.93-1.935 51.867-1.523 61.484.41 9.617.84 29.46.838 30.737-.001 1.276-.407 6.65.908 8.768 1.314 2.118 16.202 3.09 17.818.345 1.616-2.745.444-8.44 1.762-11.728 1.317-3.288 5.317-18.382 6.279-27.202 0 0 8.73-40.628 8.342-42.112 3.614-.83 9.676-1.418 9.676-1.418s15.035 40.707 17.682 44.674c2.648 3.966 11.124 27.795 13.849 31.087 2.725 3.293.908 6.119 3.41 6.969 2.503.85 15.19-2.628 16.305-7.457 1.117-4.829-2.468-6.834-2.511-10.806-.044-3.972-4.318-22.168-4.708-26.89-.39-4.723-7.346-43.697-9.116-49.095-1.77-5.397-6.001-13.726-6.511-17.6-.51-3.875 2.417-19.296 2.417-25.133s-4.4-61.352-11.837-64.655c-7.438-3.303-57.68 1.507-62.258 6.183-4.579 4.676-2.044 53.168-2.044 53.168z" id="path3167-7"/><rect style="opacity:1;fill:#282828;fill-opacity:1;stroke:none;stroke-width:3;stroke-linecap:round;stroke-linejoin:round;stroke-miterlimit:4;stroke-dasharray:none;stroke-opacity:1" id="rect3189" width="51.764416" height="46.995747" x="198.37279" y="374.74969" ry="14.04348" transform="rotate(-6.284)"/><path style="display:inline;fill:#282828;fill-opacity:1;stroke:none;stroke-width:3.45772;stroke-linecap:round;stroke-linejoin:round;stroke-miterlimit:4;stroke-dasharray:none;stroke-opacity:1" d="M199.296 427.873c-2.883 8.563-4.426 19.781-3.608 21.915.817 2.134 7.532 10.556 7.532 10.556l4.699.037 3.03-.956 2.23.154 6.05-1.483s-1.653-2.999 1.007-2.777c2.037.025 5.058-11.19 5.058-11.19l-3.658-6.335-2.789-8.948s-17.634-.096-19.551-.973z" id="path3037-5"/><path style="opacity:1;fill:#5c5c5c;fill-opacity:1;stroke:none;stroke-width:3;stroke-linecap:round;stroke-linejoin:round;stroke-miterlimit:4;stroke-dasharray:none;stroke-opacity:1" d="M200.772 427.873c-2.367 7.85-3.634 18.134-2.963 20.09.672 1.956 4.87 9.322 6.185 9.676 1.316.354-1.083-8.527-1.083-8.527s2.826 8.632 4.942 8.561c2.116-.07 2.488-.876 2.488-.876s-3.185-6.696-2.404-7.87c1.593 3.447 2.41 6.894 4.236 8.01 1.826 1.117 4.839-.34 4.968-1.358.129-1.018-2.253-2.548-2.313-3.86-.06-1.313.394-6.19 1.635-6.585-.389 4.437-.168 7.876 1.504 7.899 1.673.023 4.154-10.257 4.154-10.257l-3.004-5.809-2.666-6.95s-14.104-1.34-15.679-2.144z" id="path3037"/><path style="opacity:1;fill:#282828;fill-opacity:1;stroke:none;stroke-width:3;stroke-linecap:round;stroke-linejoin:round;stroke-miterlimit:4;stroke-dasharray:none;stroke-opacity:1" d="M234.529 320.785c-9.61 2.276-23.03 11.428-25.825 17.663-2.795 6.234-7.77 41.81-7.512 44.524.259 2.714-3.368 37.112-1.686 45.31 6.144 2.573 18.488 5.313 19.533 1.719 1.044-3.594 7.663-35.583 8.993-39.349 1.33-3.766 8.363-19.931 8.684-20.757.321-.826 6.998-51.768-2.187-49.11z" id="path3015"/><g id="g1788" transform="translate(-658.073 172.231)" style="display:inline"><path style="opacity:1;fill:#8e8e8e;fill-opacity:1;stroke:#494949;stroke-width:3;stroke-linecap:round;stroke-linejoin:round;stroke-miterlimit:4;stroke-dasharray:none;stroke-opacity:1" d="m1241.656 212.782 20.254-86.103 19.867-10.396 48.18.22 20.103 12.033 18.283 88.565z" id="path1735"/><path style="fill:#5c5c5c;fill-opacity:1;stroke:none;stroke-width:3;stroke-linecap:round;stroke-linejoin:round;stroke-miterlimit:4;stroke-dasharray:none;stroke-opacity:1" d="m1339.038 126.35 8.846 5.448 6.055 34.517-43.3.066.042-29.918 30.239 7.71-5.995-7.49z" id="path1747-2"/><path style="opacity:1;fill:#5c5c5c;fill-opacity:1;stroke:none;stroke-width:3;stroke-linecap:round;stroke-linejoin:round;stroke-miterlimit:4;stroke-dasharray:none;stroke-opacity:1" d="m1273.048 126.113-8.846 5.449-7.17 34.743 44.414-.16-.04-29.919-30.24 7.711 5.995-7.49z" id="path1747"/><path id="path1605-0" style="fill:#cc8b5d;fill-opacity:1;stroke:#82522f;stroke-width:6;stroke-linecap:round;stroke-linejoin:round;stroke-miterlimit:4;stroke-dasharray:none;stroke-opacity:1" d="m1394.776 223.52 43.176 76.172s14.337 2.382 14.338 4.912c0 2.727-7.16 4.939-15.994 4.94-8.835 0-15.997-2.212-15.996-4.94 0-2.253 4.94-4.22 12.005-4.782l-12.84-22.867c-.01 0-53.705-10.773-53.705-10.773l-4.047-48.139c-.098-1.454 1.064-2.684 2.09-2.637zm-27.842-2.366 2.518 37.383 19.975-31.623zm26.315 9.07-20.236 32.036 43.22 8.922z"/><path id="path1605-0-2" style="fill:#cc8b5d;fill-opacity:1;stroke:none;stroke-width:6;stroke-linecap:round;stroke-linejoin:round;stroke-miterlimit:4;stroke-dasharray:none;stroke-opacity:1" d="M1364.235 215.375c.2.002.4.029.594.078l29.947 8.067c.01.003 40.578 71.587 43.176 76.172a15.995 4.94 0 0 1 14.338 4.912 15.995 4.94 0 0 1-15.994 4.94 15.995 4.94 0 0 1-15.996-4.94 15.995 4.94 0 0 1 12.005-4.782l-12.832-22.865c-.01 0-.012-.003-.018-.004l-53.695-10.771c-.35-.073-4.047-48.139-4.047-48.139a2.5 2.5 0 0 1 2.522-2.668zm2.7 5.78 2.517 37.382 19.975-31.623zm26.314 9.07-20.236 32.035 43.22 8.922z"/><path style="opacity:1;fill:#cc8b5d;fill-opacity:1;stroke:#82522f;stroke-width:4;stroke-linecap:round;stroke-linejoin:round;stroke-miterlimit:4;stroke-dasharray:none;stroke-opacity:1" d="m1248.933 211.011-4.505 52.648 120.667 3.01-4.775-51.988z" id="path1641"/><g id="path1669-6" transform="translate(240 -60)" style="stroke:#82522f;stroke-width:6;stroke-miterlimit:4;stroke-dasharray:none;stroke-opacity:1"><path style="color:#000;font-style:normal;font-variant:normal;font-weight:400;font-stretch:normal;font-size:medium;line-height:normal;font-family:sans-serif;font-variant-ligatures:normal;font-variant-position:normal;font-variant-caps:normal;font-variant-numeric:normal;font-variant-alternates:normal;font-variant-east-asian:normal;font-feature-settings:normal;font-variation-settings:normal;text-indent:0;text-align:start;text-decoration:none;text-decoration-line:none;text-decoration-style:solid;text-decoration-color:#000;letter-spacing:normal;word-spacing:normal;text-transform:none;writing-mode:lr-tb;direction:ltr;text-orientation:mixed;dominant-baseline:auto;baseline-shift:baseline;text-anchor:start;white-space:normal;shape-padding:0;shape-margin:0;inline-size:0;clip-rule:nonzero;display:inline;overflow:visible;visibility:visible;isolation:auto;mix-blend-mode:normal;color-interpolation:sRGB;color-interpolation-filters:linearRGB;solid-color:#000;solid-opacity:1;vector-effect:none;fill:#cc8b5d;fill-opacity:1;fill-rule:nonzero;stroke:#82522f;stroke-width:6;stroke-linecap:round;stroke-linejoin:round;stroke-miterlimit:4;stroke-dasharray:none;stroke-dashoffset:0;stroke-opacity:1;color-rendering:auto;image-rendering:auto;shape-rendering:auto;text-rendering:auto;enable-background:accumulate;stop-color:#000;stop-opacity:1" d="m1065.653 275.012-2.468 95.801" id="path1679-1"/><path style="color:#000;font-style:normal;font-variant:normal;font-weight:400;font-stretch:normal;font-size:medium;line-height:normal;font-family:sans-serif;font-variant-ligatures:normal;font-variant-position:normal;font-variant-caps:normal;font-variant-numeric:normal;font-variant-alternates:normal;font-variant-east-asian:normal;font-feature-settings:normal;font-variation-settings:normal;text-indent:0;text-align:start;text-decoration:none;text-decoration-line:none;text-decoration-style:solid;text-decoration-color:#000;letter-spacing:normal;word-spacing:normal;text-transform:none;writing-mode:lr-tb;direction:ltr;text-orientation:mixed;dominant-baseline:auto;baseline-shift:baseline;text-anchor:start;white-space:normal;shape-padding:0;shape-margin:0;inline-size:0;clip-rule:nonzero;display:inline;overflow:visible;visibility:visible;isolation:auto;mix-blend-mode:normal;color-interpolation:sRGB;color-interpolation-filters:linearRGB;solid-color:#000;solid-opacity:1;vector-effect:none;fill:#cc8b5d;fill-opacity:1;fill-rule:nonzero;stroke:#82522f;stroke-width:6;stroke-linecap:round;stroke-linejoin:round;stroke-miterlimit:4;stroke-dasharray:none;stroke-dashoffset:0;stroke-opacity:1;color-rendering:auto;image-rendering:auto;shape-rendering:auto;text-rendering:auto;enable-background:accumulate;stop-color:#000;stop-opacity:1" d="M1065.584 272.012a3 3 0 0 0-2.93 2.922l-2.468 95.802a3 3 0 0 0 2.921 3.077 3 3 0 0 0 3.077-2.922l2.468-95.801a3 3 0 0 0-2.922-3.078 3 3 0 0 0-.146 0z" id="path1681-8"/></g><ellipse style="opacity:1;fill:#cc8b5d;fill-opacity:1;stroke:#82522f;stroke-width:4;stroke-linecap:round;stroke-linejoin:round;stroke-miterlimit:4;stroke-dasharray:none;stroke-opacity:1" id="path1667" cx="1303.2598" cy="313.92538" rx="19.035276" ry="7.8543744"/><g id="path1669" style="opacity:1" transform="translate(240 -60)"><path style="color:#000;font-style:normal;font-variant:normal;font-weight:400;font-stretch:normal;font-size:medium;line-height:normal;font-family:sans-serif;font-variant-ligatures:normal;font-variant-position:normal;font-variant-caps:normal;font-variant-numeric:normal;font-variant-alternates:normal;font-variant-east-asian:normal;font-feature-settings:normal;font-variation-settings:normal;text-indent:0;text-align:start;text-decoration:none;text-decoration-line:none;text-decoration-style:solid;text-decoration-color:#000;letter-spacing:normal;word-spacing:normal;text-transform:none;writing-mode:lr-tb;direction:ltr;text-orientation:mixed;dominant-baseline:auto;baseline-shift:baseline;text-anchor:start;white-space:normal;shape-padding:0;shape-margin:0;inline-size:0;clip-rule:nonzero;display:inline;overflow:visible;visibility:visible;isolation:auto;mix-blend-mode:normal;color-interpolation:sRGB;color-interpolation-filters:linearRGB;solid-color:#000;solid-opacity:1;vector-effect:none;fill:#cc8b5d;fill-opacity:1;fill-rule:nonzero;stroke:none;stroke-width:6;stroke-linecap:round;stroke-linejoin:round;stroke-miterlimit:4;stroke-dasharray:none;stroke-dashoffset:0;stroke-opacity:1;color-rendering:auto;image-rendering:auto;shape-rendering:auto;text-rendering:auto;enable-background:accumulate;stop-color:#000;stop-opacity:1" d="m1065.653 275.012-2.468 95.801" id="path1679"/><path style="color:#000;font-style:normal;font-variant:normal;font-weight:400;font-stretch:normal;font-size:medium;line-height:normal;font-family:sans-serif;font-variant-ligatures:normal;font-variant-position:normal;font-variant-caps:normal;font-variant-numeric:normal;font-variant-alternates:normal;font-variant-east-asian:normal;font-feature-settings:normal;font-variation-settings:normal;text-indent:0;text-align:start;text-decoration:none;text-decoration-line:none;text-decoration-style:solid;text-decoration-color:#000;letter-spacing:normal;word-spacing:normal;text-transform:none;writing-mode:lr-tb;direction:ltr;text-orientation:mixed;dominant-baseline:auto;baseline-shift:baseline;text-anchor:start;white-space:normal;shape-padding:0;shape-margin:0;inline-size:0;clip-rule:nonzero;display:inline;overflow:visible;visibility:visible;isolation:auto;mix-blend-mode:normal;color-interpolation:sRGB;color-interpolation-filters:linearRGB;solid-color:#000;solid-opacity:1;vector-effect:none;fill:#cc8b5d;fill-opacity:1;fill-rule:nonzero;stroke:#82522f;stroke-width:0;stroke-linecap:round;stroke-linejoin:round;stroke-miterlimit:4;stroke-dasharray:none;stroke-dashoffset:0;stroke-opacity:1;color-rendering:auto;image-rendering:auto;shape-rendering:auto;text-rendering:auto;enable-background:accumulate;stop-color:#000;stop-opacity:1" d="M1065.584 272.012a3 3 0 0 0-2.93 2.922l-2.468 95.802a3 3 0 0 0 2.921 3.077 3 3 0 0 0 3.077-2.922l2.468-95.801a3 3 0 0 0-2.922-3.078 3 3 0 0 0-.146 0z" id="path1681"/></g><path id="path1605-0-7" style="fill:#cc8b5d;fill-opacity:1;stroke:#82522f;stroke-width:6;stroke-linecap:round;stroke-linejoin:round;stroke-miterlimit:4;stroke-dasharray:none;stroke-opacity:1" d="m1214.559 220.03-43.176 76.171s-14.337 2.383-14.338 4.912c0 2.728 7.16 4.94 15.994 4.94 8.835 0 15.997-2.212 15.996-4.94 0-2.252-4.941-4.22-12.006-4.781l12.841-22.867 53.705-10.774 4.047-48.138c.098-1.455-1.064-2.684-2.09-2.637zm27.841-2.366-2.517 37.383-19.975-31.623zm-26.314 9.07 20.236 32.036-43.22 8.921z"/><path id="path1605-0-2-9" style="fill:#cc8b5d;fill-opacity:1;stroke:none;stroke-width:6;stroke-linecap:round;stroke-linejoin:round;stroke-miterlimit:4;stroke-dasharray:none;stroke-opacity:1" d="M1245.1 211.885c-.2.002-.4.028-.594.078l-29.947 8.066c-.01.003-40.578 71.587-43.176 76.172a15.995 4.94 0 0 0-14.338 4.912 15.995 4.94 0 0 0 15.994 4.94 15.995 4.94 0 0 0 15.996-4.94 15.995 4.94 0 0 0-12.006-4.781l12.832-22.865c.01-.001.012-.003.018-.004l53.696-10.772c.349-.072 4.047-48.138 4.047-48.138a2.5 2.5 0 0 0-2.522-2.668zm-2.7 5.78-2.517 37.382-19.975-31.623zm-26.314 9.07 20.236 32.035-43.22 8.921z"/><path style="opacity:1;fill:#a5a5a5;fill-opacity:1;stroke:#757575;stroke-width:3;stroke-linecap:round;stroke-linejoin:round;stroke-miterlimit:4;stroke-dasharray:none;stroke-opacity:1" d="m1284.266 201.453 10.663-72.359 23.252.236 6.177 73.15z" id="path1737"/><path style="opacity:1;fill:#828282;fill-opacity:1;stroke:none;stroke-width:3;stroke-linecap:round;stroke-linejoin:round;stroke-miterlimit:4;stroke-dasharray:none;stroke-opacity:1" d="m1295.503 161.88-4.667 35.562 28.274.663-3.336-35.904z" id="path1739"/><ellipse style="opacity:1;fill:#5c5c5c;fill-opacity:1;stroke:none;stroke-width:3;stroke-linecap:round;stroke-linejoin:round;stroke-miterlimit:4;stroke-dasharray:none;stroke-opacity:1" id="path1743" cx="1306.0269" cy="150.41481" rx="3.8719149" ry="3.7062945"/><ellipse style="opacity:1;fill:#5c5c5c;fill-opacity:1;stroke:none;stroke-width:3;stroke-linecap:round;stroke-linejoin:round;stroke-miterlimit:4;stroke-dasharray:none;stroke-opacity:1" id="path1745" cx="1311.453" cy="135.66937" rx="2.0778754" ry="2.0570476"/></g><rect style="display:inline;fill:#9b9b9b;fill-opacity:1;stroke:none;stroke-width:2.69916;stroke-linecap:round;stroke-linejoin:round;stroke-miterlimit:4;stroke-dasharray:none;stroke-opacity:1" id="rect3189-3" width="47.952351" height="41.067104" x="197.71565" y="375.54572" ry="12.271855" transform="matrix(.99466 -.10317 .11611 .99324 0 0)"/><path style="display:inline;fill:#9b9b9b;fill-opacity:1;stroke:none;stroke-width:2.83739;stroke-linecap:round;stroke-linejoin:round;stroke-miterlimit:4;stroke-dasharray:none;stroke-opacity:1" d="M234.82 323.685c-9.032 2.166-21.643 10.878-24.27 16.813-2.627 5.934-7.303 39.796-7.06 42.38.243 2.583-3.165 35.324-1.584 43.128 5.773 2.449 15.277 3.752 16.259.33.981-3.42 7.057-32.879 7.923-36.575 1.192-5.084 3.451-17.23 10.788-19.331 1.165-.334 13.484-46.103-2.057-46.745z" id="path3015-2"/><path style="opacity:1;fill:#282828;fill-opacity:1;stroke:none;stroke-width:3;stroke-linecap:round;stroke-linejoin:round;stroke-miterlimit:4;stroke-dasharray:none;stroke-opacity:1" d="M288.816 313.233c6.504-1.151 21.33 5.247 24.267 8.187 2.937 2.94 10.323 18.91 10.804 20.488.48 1.577 10.775 19.366 11 21.65.227 2.284-2.153 20.616-12.36 22.824-10.209 2.207-17.962-.96-20.747.01s-7.098-17.486-14.486-17.506c5.038-6.533 12.594-10.28 12.594-10.28s-6.574-4.987-7.427-8.04c-.853-3.053-13.084-29.071-3.645-37.332z" id="path3059"/><path style="display:inline;fill:#9b9b9b;fill-opacity:1;stroke:none;stroke-width:2.8055;stroke-linecap:round;stroke-linejoin:round;stroke-miterlimit:4;stroke-dasharray:none;stroke-opacity:1" d="M288.592 315.527c6.095-1.075 19.987 4.896 22.74 7.64 2.752 2.745 9.672 17.65 10.123 19.122.45 1.472 10.096 18.075 10.308 20.206.212 2.132-2.018 19.242-11.583 21.302-9.566 2.06-14.576-1.886-17.186-.98-2.61.906-4.739-14.666-11.66-14.685 4.72-6.097 12.982-8.983 12.982-8.983s-9.596-7.595-12.308-8.779c-3.935-1.717-16.383-25.644-3.416-34.842z" id="path3059-9"/><path style="opacity:1;fill:#282828;fill-opacity:1;stroke:none;stroke-width:3;stroke-linecap:round;stroke-linejoin:round;stroke-miterlimit:4;stroke-dasharray:none;stroke-opacity:1" d="M289.676 369.055c-5.451.856-8.162 5.02-9.703 5.966-1.54.946-6.612 3.715-6.612 3.715s-3.248 8.675-1.871 10.004c1.377 1.329-.755 2.77-.043 4.005.713 1.234 6.647 1.105 6.647 1.105s1.582 2.846 2.86 3.29c1.279.443 4.706-.543 4.706-.543l3.922.735s11.38-9.453 11.775-12.049c.395-2.595-7.986-17.39-11.681-16.228z" id="path3101"/><path style="display:inline;fill:#5c5c5c;fill-opacity:1;stroke:none;stroke-width:3;stroke-linecap:round;stroke-linejoin:round;stroke-miterlimit:4;stroke-dasharray:none;stroke-opacity:1" d="M290.114 370.83c-5.45.856-7.45 4.422-8.99 5.368-1.542.947-6.293 4.165-6.293 4.165s-2.188 4.65-.811 5.979c1.377 1.328-1.42 3.75-.709 4.984.713 1.234 6.38.311 6.38.311s.722 3.219 2.513 3.916c1.26.49 4.507-.61 4.507-.61l3.098-.054s8.85-8.154 9.245-10.75c.394-2.596-5.244-14.47-8.94-13.309z" id="path3101-2"/><path style="opacity:1;fill:#282828;fill-opacity:1;stroke:none;stroke-width:3;stroke-linecap:round;stroke-linejoin:round;stroke-miterlimit:4;stroke-dasharray:none;stroke-opacity:1" d="M274.043 388.057c2.019-1.201 5.874-5.7 6.29-8.26-2.526 2.603-7.62 6.732-7.62 6.732z" id="path3123"/><path style="display:inline;fill:#282828;fill-opacity:1;stroke:none;stroke-width:3;stroke-linecap:round;stroke-linejoin:round;stroke-miterlimit:4;stroke-dasharray:none;stroke-opacity:1" d="M279.706 392.547c2.224-.757 3.972-3.716 5.076-6.39-2.567 3.199-7.517 6.012-7.517 6.012z" id="path3123-8"/><path style="display:inline;fill:#282828;fill-opacity:1;stroke:none;stroke-width:3;stroke-linecap:round;stroke-linejoin:round;stroke-miterlimit:4;stroke-dasharray:none;stroke-opacity:1" d="M284.276 396.645c2.224-.757 3.971-3.716 5.075-6.39-2.566 3.199-7.517 6.012-7.517 6.012z" id="path3123-8-9"/><ellipse style="fill:#9b9b9b;fill-opacity:1;stroke:#282828;stroke-width:3.08544;stroke-linecap:round;stroke-linejoin:round;stroke-miterlimit:4;stroke-dasharray:none;stroke-opacity:1" id="path2947" cx="258.08765" cy="295.79596" rx="33.858486" ry="38.077415"/><path style="fill:#000;fill-opacity:1;stroke:#494949;stroke-width:3;stroke-linecap:round;stroke-linejoin:round;stroke-miterlimit:4;stroke-dasharray:none;stroke-opacity:1" d="M232.306 290.743c6.929-16.119 39.098-18.822 50.503-6.584 2.84 11.093 1.483 17.772 2.184 22.258-10.817 24.47-36.582 25.912-50.87 7.612-3.367-13.593-1.817-23.286-1.817-23.286z" id="path2949"/><path id="path2951" style="display:inline;fill:url(#linearGradient3013);fill-opacity:1;stroke:none;stroke-width:3;stroke-linecap:round;stroke-linejoin:round;stroke-miterlimit:4;stroke-dasharray:none;stroke-opacity:1" d="M232.97 302.99c.323 3.81.382 6.267 1.593 11.157 13.62 17.136 40.226 15.971 49.79-8.133-.404-2.58-.394-5.918-.887-10.294-10.097-2.147-39.213.476-50.496 7.27z"/><ellipse style="opacity:1;fill:#282828;fill-opacity:1;stroke:none;stroke-width:3;stroke-linecap:round;stroke-linejoin:round;stroke-miterlimit:4;stroke-dasharray:none;stroke-opacity:1" id="path3255" cx="255.4791" cy="376.99362" rx="5.9539518" ry="5.6627483"/><path style="display:inline;fill:#282828;fill-opacity:1;stroke:none;stroke-width:3;stroke-linecap:round;stroke-linejoin:round;stroke-miterlimit:4;stroke-dasharray:none;stroke-opacity:1" d="M251.554 375.32c-5.427 15.87-14.421 19.158-17.339 18.59-2.917-.569-6.318-7.262-6.318-7.262l-3.563 14.196s2.236 7.282 7.766 7.143c5.53-.138 27.244-8.212 28.403-28.432.456-7.965-6.69-6.53-8.949-4.235z" id="path3257-2"/><path style="opacity:1;fill:#9b9b9b;fill-opacity:1;stroke:none;stroke-width:3;stroke-linecap:round;stroke-linejoin:round;stroke-miterlimit:4;stroke-dasharray:none;stroke-opacity:1" d="M252.33 376.624c-5.427 15.87-15.677 20.249-18.594 19.68-2.917-.568-6.814-7.396-6.814-7.396l-1.587 9.29s1.751 6.878 7.281 6.739c5.53-.139 24.103-8.82 26.158-25.282.837-6.705-5.71-7.944-6.443-3.03z" id="path3257"/></g></svg>