<?xml version="1.0" encoding="UTF-8" standalone="no"?>
<!-- Created with Sodipodi ("http://www.sodipodi.com/") -->

<svg
   xmlns:dc="http://purl.org/dc/elements/1.1/"
   xmlns:cc="http://creativecommons.org/ns#"
   xmlns:rdf="http://www.w3.org/1999/02/22-rdf-syntax-ns#"
   xmlns:svg="http://www.w3.org/2000/svg"
   xmlns="http://www.w3.org/2000/svg"
   xmlns:xlink="http://www.w3.org/1999/xlink"
   xmlns:sodipodi="http://sodipodi.sourceforge.net/DTD/sodipodi-0.dtd"
   xmlns:inkscape="http://www.inkscape.org/namespaces/inkscape"
   id="svg602"
   sodipodi:version="0.34"
   width="300"
   height="219.67119"
   xml:space="preserve"
   sodipodi:docname="rafale.svg"
   version="1.1"
   inkscape:version="0.91 r13725"><metadata
     id="metadata109"><rdf:RDF><cc:Work
         rdf:about=""><dc:format>image/svg+xml</dc:format><dc:type
           rdf:resource="http://purl.org/dc/dcmitype/StillImage" /><dc:title /></cc:Work></rdf:RDF></metadata><defs
     id="defs604"><linearGradient
       id="linearGradient859"><stop
         style="stop-color:#f3f2f2;stop-opacity:1;"
         offset="0"
         id="stop860" /><stop
         style="stop-color:#333333;stop-opacity:1;"
         offset="1"
         id="stop861" /></linearGradient><linearGradient
       id="linearGradient853"><stop
         style="stop-color:#f3f2f2;stop-opacity:1;"
         offset="0"
         id="stop854" /><stop
         style="stop-color:#333333;stop-opacity:0.4039;"
         offset="1"
         id="stop855" /></linearGradient><linearGradient
       id="linearGradient844"><stop
         style="stop-color:#ff9f00;stop-opacity:1;"
         offset="0"
         id="stop845" /><stop
         style="stop-color:#fff200;stop-opacity:1;"
         offset="1"
         id="stop846" /></linearGradient><linearGradient
       id="linearGradient673"><stop
         style="stop-color:#265aa7;stop-opacity:1;"
         offset="0"
         id="stop674" /><stop
         style="stop-color:#00e5ff;stop-opacity:1;"
         offset="1"
         id="stop675" /></linearGradient><linearGradient
       id="linearGradient668"><stop
         style="stop-color:#000;stop-opacity:1;"
         offset="0"
         id="stop669" /><stop
         style="stop-color:#fff;stop-opacity:1;"
         offset="1"
         id="stop670" /></linearGradient><linearGradient
       xlink:href="#linearGradient673"
       id="linearGradient671"
       x1="23.729633"
       y1="670.92578"
       x2="410.52448"
       y2="670.92578"
       gradientTransform="scale(1.7168943,0.58244703)"
       gradientUnits="userSpaceOnUse" /><linearGradient
       xlink:href="#linearGradient668"
       id="linearGradient672"
       x1="181.65619"
       y1="554.552"
       x2="123.76408"
       y2="573.34479"
       gradientTransform="scale(0.80371623,1.2442202)"
       gradientUnits="userSpaceOnUse" /><linearGradient
       xlink:href="#linearGradient673"
       id="linearGradient682"
       gradientTransform="scale(1.1365592,0.87984862)"
       x1="256.20657"
       y1="398.68625"
       x2="634.93109"
       y2="398.68625"
       gradientUnits="userSpaceOnUse" /><linearGradient
       xlink:href="#linearGradient673"
       id="linearGradient683"
       gradientTransform="scale(1.4232928,0.70259614)"
       x1="20.016054"
       y1="487.13721"
       x2="413.22015"
       y2="487.13721"
       gradientUnits="userSpaceOnUse" /><radialGradient
       xlink:href="#linearGradient673"
       id="radialGradient687"
       cx="101.60466"
       cy="699.99768"
       r="134.6862"
       fx="101.60466"
       fy="699.99768"
       gradientTransform="scale(1.0385577,0.9628738)"
       gradientUnits="userSpaceOnUse" /><linearGradient
       xlink:href="#linearGradient673"
       id="linearGradient691"
       x1="159.14842"
       y1="434.35471"
       x2="444.2482"
       y2="560.21051"
       gradientTransform="scale(0.68515758,1.4595183)"
       gradientUnits="userSpaceOnUse" /><linearGradient
       xlink:href="#linearGradient673"
       id="linearGradient692"
       x1="218.35593"
       y1="548.80151"
       x2="930.16656"
       y2="471.06677"
       gradientTransform="scale(0.80894887,1.2361721)"
       gradientUnits="userSpaceOnUse" /><linearGradient
       xlink:href="#linearGradient673"
       id="linearGradient693"
       x1="261.42834"
       y1="684.82428"
       x2="375.66058"
       y2="381.79822"
       gradientTransform="scale(1.235088,0.80965889)"
       gradientUnits="userSpaceOnUse" /><linearGradient
       xlink:href="#linearGradient673"
       id="linearGradient694"
       gradientTransform="scale(1.0177918,0.98251922)"
       x1="370.46402"
       y1="428.1723"
       x2="447.48111"
       y2="428.1723"
       gradientUnits="userSpaceOnUse" /><linearGradient
       xlink:href="#linearGradient673"
       id="linearGradient695"
       x1="314.33447"
       y1="467.72153"
       x2="318.75299"
       y2="584.26044"
       gradientTransform="scale(1.1941549,0.83741231)"
       gradientUnits="userSpaceOnUse" /><linearGradient
       xlink:href="#linearGradient673"
       id="linearGradient698"
       x1="413.00916"
       y1="445.81265"
       x2="218.06972"
       y2="467.94299"
       gradientTransform="scale(1.1185719,0.89399708)"
       gradientUnits="userSpaceOnUse" /><radialGradient
       xlink:href="#linearGradient673"
       id="radialGradient702"
       cx="600.68884"
       cy="557.93353"
       r="73.134232"
       fx="600.68884"
       fy="557.93353"
       gradientTransform="scale(0.83403252,1.198994)"
       gradientUnits="userSpaceOnUse" /><linearGradient
       xlink:href="#linearGradient668"
       id="linearGradient705"
       x1="556.39331"
       y1="600.2276"
       x2="603.427"
       y2="557.27374"
       gradientTransform="scale(0.83462337,1.1981452)"
       gradientUnits="userSpaceOnUse" /><linearGradient
       xlink:href="#linearGradient673"
       id="linearGradient711"
       x1="263.16321"
       y1="577.42291"
       x2="332.59174"
       y2="637.24811"
       gradientTransform="scale(1.6958452,0.58967646)"
       gradientUnits="userSpaceOnUse" /><linearGradient
       xlink:href="#linearGradient844"
       id="linearGradient843"
       x1="297.65527"
       y1="594.73346"
       x2="328.6474"
       y2="594.73346"
       gradientTransform="scale(1.3242365,0.75515215)"
       gradientUnits="userSpaceOnUse" /><radialGradient
       xlink:href="#linearGradient844"
       id="radialGradient847"
       cx="363.51596"
       cy="379.36963"
       r="66.126518"
       fx="363.51596"
       fy="379.36963"
       gradientTransform="scale(1.6403562,0.60962369)"
       gradientUnits="userSpaceOnUse" /><radialGradient
       xlink:href="#linearGradient853"
       id="radialGradient848"
       cx="507.42142"
       cy="129.85117"
       r="13.927131"
       fx="507.42142"
       fy="129.85117"
       gradientTransform="scale(1.2133506,0.8241641)"
       gradientUnits="userSpaceOnUse" /><radialGradient
       xlink:href="#linearGradient859"
       id="radialGradient856"
       cx="401.62964"
       cy="446.96863"
       r="2.8242588"
       fx="401.62964"
       fy="446.96863"
       gradientUnits="userSpaceOnUse" /><radialGradient
       xlink:href="#linearGradient853"
       id="radialGradient857"
       cx="401.5329"
       cy="448.74988"
       r="1.6645237"
       fx="401.5329"
       fy="448.74988"
       gradientUnits="userSpaceOnUse" /><radialGradient
       xlink:href="#linearGradient859"
       id="radialGradient858"
       cx="401.3288"
       cy="446.70966"
       r="2.0997167"
       fx="401.3288"
       fy="446.70966"
       gradientUnits="userSpaceOnUse" /><linearGradient
       xlink:href="#linearGradient673"
       id="linearGradient767"
       x1="542.13452"
       y1="310.43387"
       x2="583.47229"
       y2="309.21393"
       gradientTransform="scale(0.51202034,1.9530474)"
       gradientUnits="userSpaceOnUse" /><linearGradient
       inkscape:collect="always"
       xlink:href="#linearGradient673"
       id="linearGradient4306"
       gradientTransform="scale(1.7859898,0.55991362)"
       x1="244.81474"
       y1="611.27417"
       x2="329.30383"
       y2="611.27417"
       gradientUnits="userSpaceOnUse" /><linearGradient
       inkscape:collect="always"
       xlink:href="#linearGradient673"
       id="linearGradient4308"
       gradientTransform="scale(1.5951246,0.62691026)"
       x1="17.859863"
       y1="769.6792"
       x2="234.80415"
       y2="769.6792"
       gradientUnits="userSpaceOnUse" /><radialGradient
       inkscape:collect="always"
       xlink:href="#linearGradient844"
       id="radialGradient4310"
       cx="634.40979"
       cy="245.02533"
       fx="634.40979"
       fy="245.02533"
       r="38.168217"
       gradientTransform="scale(1.0295592,0.97128944)"
       gradientUnits="userSpaceOnUse" /><radialGradient
       inkscape:collect="always"
       xlink:href="#linearGradient844"
       id="radialGradient4312"
       cx="519.15161"
       cy="250.77127"
       fx="519.15161"
       fy="250.77127"
       r="40.777546"
       gradientTransform="scale(1.0716088,0.93317637)"
       gradientUnits="userSpaceOnUse" /><linearGradient
       inkscape:collect="always"
       xlink:href="#linearGradient673"
       id="linearGradient4314"
       gradientTransform="scale(1.6300469,0.61347929)"
       x1="178.64143"
       y1="850.8905"
       x2="442.7092"
       y2="850.8905"
       gradientUnits="userSpaceOnUse" /><linearGradient
       inkscape:collect="always"
       xlink:href="#linearGradient673"
       id="linearGradient4316"
       gradientTransform="scale(1.6809025,0.59491852)"
       x1="316.64078"
       y1="589.63293"
       x2="407.55402"
       y2="589.63293"
       gradientUnits="userSpaceOnUse" /><linearGradient
       inkscape:collect="always"
       xlink:href="#linearGradient673"
       id="linearGradient4318"
       gradientTransform="scale(0.38763996,2.5797134)"
       x1="712.00952"
       y1="229.38745"
       x2="720.7345"
       y2="229.12996"
       gradientUnits="userSpaceOnUse" /><linearGradient
       inkscape:collect="always"
       xlink:href="#linearGradient673"
       id="linearGradient4320"
       gradientTransform="scale(0.38763996,2.5797134)"
       x1="715.36395"
       y1="243.41656"
       x2="724.08893"
       y2="243.15907"
       gradientUnits="userSpaceOnUse" /><linearGradient
       inkscape:collect="always"
       xlink:href="#linearGradient673"
       id="linearGradient4322"
       gradientTransform="scale(0.38763996,2.5797134)"
       x1="742.75769"
       y1="226.3632"
       x2="751.4826"
       y2="226.10571"
       gradientUnits="userSpaceOnUse" /><linearGradient
       inkscape:collect="always"
       xlink:href="#linearGradient673"
       id="linearGradient4324"
       gradientTransform="scale(0.38763996,2.5797134)"
       x1="735.49036"
       y1="227.03525"
       x2="744.21533"
       y2="226.77776"
       gradientUnits="userSpaceOnUse" /><linearGradient
       inkscape:collect="always"
       xlink:href="#linearGradient673"
       id="linearGradient4326"
       gradientTransform="scale(0.38763996,2.5797134)"
       x1="727.66327"
       y1="227.79128"
       x2="736.38818"
       y2="227.53378"
       gradientUnits="userSpaceOnUse" /><linearGradient
       inkscape:collect="always"
       xlink:href="#linearGradient673"
       id="linearGradient4328"
       gradientTransform="scale(0.38763996,2.5797134)"
       x1="719.83667"
       y1="228.54736"
       x2="728.56158"
       y2="228.28987"
       gradientUnits="userSpaceOnUse" /><linearGradient
       inkscape:collect="always"
       xlink:href="#linearGradient673"
       id="linearGradient4330"
       gradientTransform="scale(0.38763996,2.5797134)"
       x1="746.67139"
       y1="240.72836"
       x2="755.3963"
       y2="240.47087"
       gradientUnits="userSpaceOnUse" /><linearGradient
       inkscape:collect="always"
       xlink:href="#linearGradient673"
       id="linearGradient4332"
       gradientTransform="scale(0.38763996,2.5797134)"
       x1="738.84448"
       y1="241.31641"
       x2="747.56946"
       y2="241.05891"
       gradientUnits="userSpaceOnUse" /><linearGradient
       inkscape:collect="always"
       xlink:href="#linearGradient673"
       id="linearGradient4334"
       gradientTransform="scale(0.38763996,2.5797134)"
       x1="731.01764"
       y1="242.15646"
       x2="739.74261"
       y2="241.89899"
       gradientUnits="userSpaceOnUse" /><linearGradient
       inkscape:collect="always"
       xlink:href="#linearGradient673"
       id="linearGradient4336"
       gradientTransform="scale(0.38763996,2.5797134)"
       x1="723.74982"
       y1="242.82852"
       x2="732.47479"
       y2="242.57103"
       gradientUnits="userSpaceOnUse" /></defs><sodipodi:namedview
     id="base"
     showgrid="false"
     units="px"
     fit-margin-top="0"
     fit-margin-left="0"
     fit-margin-right="0"
     fit-margin-bottom="0"
     inkscape:zoom="2.5371827"
     inkscape:cx="264.91249"
     inkscape:cy="144.71964"
     inkscape:window-width="3200"
     inkscape:window-height="1679"
     inkscape:window-x="0"
     inkscape:window-y="0"
     inkscape:window-maximized="1"
     inkscape:current-layer="svg602" /><g
     id="g4237"
     transform="matrix(0.42052414,0,0,0.42052414,-3.465677,-104.24223)"><path
       transform="matrix(0.993319,0.115401,-0.115401,0.993319,44.95758,-54.25647)"
       id="path704"
       d="m 492.5203,702.1648 c -1.8613,16.071 -12.3333,28.3477 -23.3898,27.4208 -11.0565,-0.9268 -18.5108,-14.7062 -16.6495,-30.7772 1.8612,-16.0709 12.3332,-28.3477 23.3898,-27.4208 11.0565,0.9268 18.5107,14.7063 16.6495,30.7772 z"
       style="font-size:12px;fill:url(#linearGradient705);fill-rule:evenodd"
       inkscape:connector-curvature="0" /><path
       transform="matrix(0.993319,0.115401,-0.115401,0.993319,44.95758,-54.25647)"
       sodipodi:nodetypes="ccsscssssc"
       id="path701"
       d="m 508.9641,678.0203 c -11.4463,26.2973 -25.011,28.2161 -26.1071,36.947 -10.2313,9.1412 -21.3525,10.9716 -27.939,4.5168 -6.4825,-5.8023 -7.2306,-19.3705 -3.3053,-27.0885 2.1787,-5.2108 5.2486,-8.9817 8.9539,-13.6991 l 6.4679,-31.0087 c 0.8984,-4.3071 11.535,-12.3644 11.5626,-9.7629 l 0.271,25.5478 c 0.0432,4.0752 -0.6997,3.8846 2.9837,3.739 9.1866,-1.0129 23.8804,-12.0268 27.1123,10.8086 z"
       style="font-size:12px;fill:url(#radialGradient702);fill-rule:evenodd"
       inkscape:connector-curvature="0" /><path
       sodipodi:nodetypes="ccssccc"
       id="path697"
       d="m 411.7138,388.4424 0.4175,21.5042 -79.5451,44.6789 c -4.697,2.6383 17.9262,15.2136 39.4594,3.9669 l 65.5569,-34.2399 -5.0107,-30.0643 c -2.227,-11.6916 -17.8158,-25.0536 -20.878,-5.8458 z"
       style="font-size:12px;fill:url(#linearGradient698);fill-rule:evenodd"
       inkscape:connector-curvature="0" /><g
       style="fill:url(#linearGradient683)"
       id="g676"><path
         sodipodi:nodetypes="ccscss"
         id="path635"
         d="m 470.5845,342.3955 113.8939,8.8406 c 15.831,3.9487 -24.1851,14.1706 -35.871,18.3184 -14.2168,4.4983 -30.2233,12.1639 -30.9755,20.0128 L 447.703,362.3126 c -26.6619,-10.3915 3.788,-21.3992 22.8815,-19.9171 z"
         style="font-size:12px;fill:url(#linearGradient4306);fill-rule:evenodd;stroke-width:1"
         inkscape:connector-curvature="0" /><path
         sodipodi:nodetypes="cscscsss"
         id="path614"
         d="m 33.91021,494.9419 c -11.6255,11.9206 -2.87643,27.0438 10.43801,33.6058 l 182.56498,89.9767 c -16.1028,-21.5807 21.58,-45.7447 58.6559,-69.0737 26.6535,-17.72 76.4851,-39.6278 88.9728,-47.4829 -10.5923,-2.1162 -33.0927,9.1611 -55.1804,6.664 L 101.1881,483.9667 c -38.93489,-4.4017 -55.417,1.8066 -67.27789,10.9752 z"
         style="font-size:12px;fill:url(#linearGradient4308);fill-rule:evenodd;stroke-width:1"
         inkscape:connector-curvature="0" /></g><g
       transform="translate(-155.3978,-243.0025)"
       id="g876"><g
         id="g871"><path
           transform="matrix(0.539655,0,0,0.53016,377.7074,419.95)"
           sodipodi:nodetypes="csccsss"
           id="path756"
           d="m 356.0647,411.9914 c -21.7217,-0.2386 -34.4652,14.7144 -31.0251,53.7871 1.2475,14.3874 -72.9747,96.5981 14.1935,107.5238 l 31.9272,0.5906 c 58.82,-3.5435 47.8693,-55.8232 45.8403,-61.786 -5.9842,-20.5838 -25.8455,-39.9779 -25.9855,-51.0269 -0.1359,-33.7348 -12.405,-49.441 -34.9504,-49.0886 z"
           style="font-size:12px;fill-rule:evenodd"
           inkscape:connector-curvature="0" /><ellipse
           transform="matrix(0.366731,0.167425,-0.170106,0.334292,370.8091,505.8352)"
           id="path860"
           style="font-size:12px;fill:url(#radialGradient848);fill-rule:evenodd"
           cx="615.68225"
           cy="107.43024"
           rx="15.650421"
           ry="10.630493" /><path
           transform="matrix(0.539655,0,0,0.53016,241.7655,587.7172)"
           sodipodi:nodetypes="cssccscss"
           id="path793"
           d="m 643.6524,226.2441 c -10.3464,12.6273 -24.7695,22.0723 -47.9866,21.6773 -23.6637,-0.8201 -31.1195,-12.2229 -29.8924,-42.2055 0.7308,-12.7552 4.7969,-23.3799 9.398,-31.3371 2.3856,-5.9679 8.7849,-8.0458 12.7238,-26.3723 6.2448,6.2093 12.6296,8.3276 15.1713,8.358 4.8382,0.0984 16.7798,-5.6772 20.6843,-10.0028 4.5477,15.7803 9.5585,21.1197 12.834,24.9404 19.9527,23.6912 9.3665,51.6267 7.0676,54.942 z"
           style="font-size:12px;fill:#f8f7f7;fill-rule:evenodd"
           inkscape:connector-curvature="0" /><path
           transform="matrix(0.539655,0,0,0.53016,241.7655,587.7172)"
           sodipodi:nodetypes="cccccccccccccccccccccc"
           id="path871"
           d="m 594.8524,209.0117 c 0,11.0899 2.5217,16.5364 1.217,16.5364 -1.3047,0 -4.4801,-5.6553 -4.4801,-16.7452 0,-11.0896 4.2194,-23.2055 5.5241,-23.2055 1.3047,0 -2.261,12.3247 -2.261,23.4143 z M 632.27,169.5802 c 4.1762,3.7165 7.6897,8.0949 8.7337,13.4818 -7.1585,-6.2222 -19.1194,-9.1034 -26.0694,-10.7319 6.1145,-0.2088 15.1883,0.1733 17.3357,-2.7499 z m -36.6425,2.5791 c 2.2841,2.1198 1.645,3.6133 2.4676,6.3595 0.3598,-2.6078 4.4778,-4.5893 6.7167,-6.5707 -2.8526,0.488 -6.3317,0.5584 -9.1843,0.2112 z m -16.643,-3.8573 c -2.3118,2.6556 -5.1948,6.937 -7.9957,14.4901 5.9059,-6.6397 11.6998,-7.1631 18.2321,-9.8356 -5.9058,-0.2087 -8.0891,-1.7314 -10.2364,-4.6545 z m 45.5519,-22.7573 c -2.9528,8.7093 -16.5308,16.5145 -23.6186,16.5145 -4.135,0 -12.5149,-6.3179 -13.9914,-15.027 5.5041,5.4235 11.5196,9.1433 16.1568,9.3275 5.128,0.1284 16.6937,-5.7897 21.4532,-10.815 z"
           style="font-size:12px;fill:#cdcdcd;fill-opacity:1;fill-rule:evenodd"
           inkscape:connector-curvature="0" /></g><path
         transform="matrix(0.539655,0,0,0.53016,241.7655,587.7172)"
         sodipodi:nodetypes="csccc"
         id="path758"
         d="m 566.1781,204.0047 c 0,20.5935 27.3055,21.0005 21.6298,28.5173 -5.168,7.388 -37.0883,-5.9867 -37.0883,-26.5801 2.088,-15.5825 4.8465,-20.4373 23.9256,-49.5759 12.8951,2.8315 -8.4671,27.0452 -8.4671,47.6387 z"
         style="font-size:12px;fill-rule:evenodd"
         inkscape:connector-curvature="0" /><g
         style="font-size:12px;fill:url(#radialGradient847)"
         transform="matrix(0.539655,0,0,0.53016,245.6443,590.0366)"
         id="g1065"><path
           transform="translate(-7.1875,-4.375031)"
           sodipodi:nodetypes="csssscsss"
           id="path842"
           d="m 662.6023,249.8415 c -9.646,4.8787 -19.5787,19.563 -32.3096,13.5204 -8.9401,-4.1473 -4.6293,-14.1981 -5.1364,-19.8308 -0.4883,-12.9806 -1.6492,-32.3999 6.7905,-32.3471 10.2079,0.062 6.079,4.0705 13.4728,6.1601 8.0854,1.9619 13.3193,-8.2974 19.4274,-3.7346 4.6317,6.3345 -0.2253,9.7125 5.358,15.8811 2.9635,3.5696 7.5456,3.4933 10.1489,6.4067 5.4197,5.4505 -12.0338,10.7571 -17.7516,13.9442 z"
           style="font-size:12px;fill:url(#radialGradient4310);fill-rule:evenodd"
           inkscape:connector-curvature="0" /><path
           transform="translate(-7.1875,-4.375031)"
           sodipodi:nodetypes="cssssssss"
           id="path843"
           d="m 550.8908,255.4014 c 11.7039,1.2518 23.4762,12.4023 33.7124,1.1382 7.2285,-7.815 0.1398,-17.1482 -4.0877,-21.7494 -9.7814,-9.9628 -15.2747,-28.3632 -24.2926,-28.2916 -7.6347,0.3106 -6.1597,4.4839 -11.522,8.7354 -7.2056,5.4148 -11.7118,1.005 -16.0617,7.9166 -2.6521,3.7449 -1.8807,8.6282 -0.7528,13.8005 0.7921,4.9203 -0.7888,5.9983 -2.4701,7.5989 -5.4831,6.1829 15.4367,9.4825 25.4745,10.8514 z"
           style="font-size:12px;fill:url(#radialGradient4312);fill-rule:evenodd"
           inkscape:connector-curvature="0" /></g><path
         transform="matrix(0.539655,0,0,0.53016,241.7655,587.7172)"
         sodipodi:nodetypes="cscss"
         id="path857"
         d="m 649.8842,196.2501 c -0.4524,24.5645 -17.8932,24.6646 -13.2778,33.1111 6.2704,11.8931 32.9122,-10.5805 32.9122,-31.1738 0,-20.1761 -28.1999,-47.8022 -31.2695,-45.9399 -19.1464,14.2409 12.4296,23.5404 11.6351,44.0026 z"
         style="font-size:12px;fill-rule:evenodd"
         inkscape:connector-curvature="0" /><g
         id="g862"><path
           transform="matrix(0.539655,0,0,0.53016,344.7208,420.1064)"
           sodipodi:nodetypes="ccccc"
           id="path699"
           d="m 409.6376,449.1857 c -4.76,0.4334 -9.0891,2.4489 -11.9877,4.8207 -1.772,1.2526 -4.099,-4.2023 -4.099,-8.2836 0,-5.5074 2.3164,-9.5871 8.2571,-9.5871 5.4491,0 8.7184,6.2541 7.8296,13.05 z"
           style="font-size:12px;fill:#ffffff;fill-rule:evenodd"
           inkscape:connector-curvature="0" /><path
           transform="matrix(0.539655,0,0,0.53016,344.7208,420.1064)"
           sodipodi:nodetypes="ccccc"
           id="path703"
           d="m 416.2332,449.481 c 4.6129,0.5166 10.4887,2.8432 14.0173,4.7077 1.9645,1.2524 3.5223,-4.0893 3.5223,-8.1706 0,-4.3262 -2.7286,-10.1777 -9.3149,-10.1777 -6.9271,0 -9.2101,5.0729 -8.2247,13.6406 z"
           style="font-size:12px;fill:#ffffff;fill-rule:evenodd"
           inkscape:connector-curvature="0" /><circle
           transform="matrix(0.539655,0,0,0.53016,344.4021,419.6368)"
           id="path806"
           style="font-size:12px;fill:url(#radialGradient858);fill-rule:evenodd"
           cx="401.89166"
           cy="448.78644"
           r="5.3152466" /><circle
           transform="matrix(0.539655,0,0,0.53016,356.8318,419.3237)"
           id="path807"
           style="font-size:12px;fill:url(#radialGradient856);fill-rule:evenodd;stroke:url(#radialGradient857)"
           cx="401.89166"
           cy="448.78644"
           r="5.3152466" /><path
           transform="matrix(0.539655,0,0,0.53016,344.7208,420.1064)"
           sodipodi:nodetypes="ccscs"
           id="path691"
           d="m 435.2039,458.1105 c 0.2577,5.9309 -16.6315,14.4075 -23.0726,14.4075 -5.2671,0 -17.5856,-8.1647 -17.9621,-13.6649 -0.201,-2.6403 8.7727,-9.9433 18.3595,-9.7345 7.6535,0 22.465,5.133 22.6752,8.9919 z"
           style="font-size:12px;fill:url(#linearGradient843);fill-rule:evenodd"
           inkscape:connector-curvature="0" /><path
           transform="matrix(0.539655,0,0,0.53016,344.7208,420.1064)"
           sodipodi:nodetypes="csc"
           id="path692"
           d="m 395.3456,459.685 c 2.2871,-0.4699 5.2559,6.9765 14.387,7.2843 7.8092,0.2834 17.7014,-6.3336 23.9606,-8.6333"
           style="font-size:12px;fill:none;fill-rule:evenodd;stroke:#000000;stroke-linecap:round"
           inkscape:connector-curvature="0" /><path
           transform="matrix(0.539655,0,0,0.53016,241.7655,587.7172)"
           sodipodi:nodetypes="ccss"
           id="path873"
           d="m 608.7809,134.0805 c -0.5354,0.3285 -2.2593,0.9037 -2.4347,0.8516 -0.3688,-0.0799 0.483,-0.6897 0.6268,-1.0651 0.1285,-0.3529 2.3435,-0.1151 1.8079,0.2135 z"
           style="font-size:12px;fill-rule:evenodd"
           inkscape:connector-curvature="0" /><path
           transform="matrix(0.539655,0,0,0.53016,241.7655,587.7172)"
           sodipodi:nodetypes="cccc"
           id="path874"
           d="m 598.3636,133.8313 c -0.005,0.3237 0.3737,0.9305 0.6874,0.9361 0.2875,-0.3909 0.5731,-0.7056 0.8952,-1.0227 0.3311,-0.2917 -1.5779,-0.1674 -1.5826,0.0866 z"
           style="font-size:12px;fill-rule:evenodd"
           inkscape:connector-curvature="0" /></g></g><path
       sodipodi:nodetypes="cscssscscssss"
       id="path608"
       d="m 648.5782,532.2086 c -14.3121,4.3368 -41.9578,8.2092 -206.5287,37.2755 -84.3916,13.2196 -331.7893,59.163 -368.41946,43.2871 -37.52328,-16.9854 -0.17002,-55.7572 -20.28286,-64.3573 -17.51329,-7.4885 -13.24751,-29.923 -8.0727,-38.7232 9.49806,-14.7411 28.52471,-24.7718 61.58202,-29.4289 59.8941,-12.1532 173.4375,-23.4695 257.8503,-23.4695 8.0112,8.2784 12.4143,19.853 33.0789,19.8702 88.0512,-1.5779 125.4347,-8.7389 189.3539,-3.557 L 660.01,396.375 c 15.1409,-15.9429 46.1173,6.4597 44.7749,14.1743 l -16.035,92.153 c -2.3819,13.689 -25.6005,26.3331 -40.1717,29.5063 z"
       style="font-size:12px;fill:url(#linearGradient671);fill-rule:evenodd"
       transform="matrix(0.878791,-0.477206,0.477206,0.878791,-206.3895,229.7712)"
       inkscape:connector-curvature="0" /><path
       sodipodi:nodetypes="ccccc"
       id="path719"
       d="m 348.993,413.4235 20.3723,12.4012 69.6851,-38.3857 -27.1642,-7.3816 -62.8932,33.3661 z"
       style="font-size:12px;fill:#e5e9ed;fill-opacity:0.77350003;fill-rule:evenodd"
       inkscape:connector-curvature="0" /><path
       sodipodi:nodetypes="ccccc"
       id="path717"
       d="m 371.4359,425.232 4.1336,33.0689 63.776,-38.9741 -5.3147,-27.1639 -62.5949,33.0691 z"
       style="font-size:12px;fill:#cfdcf1;fill-opacity:0.82869999;fill-rule:evenodd"
       inkscape:connector-curvature="0" /><path
       sodipodi:nodetypes="ccccccccccccccccccccccc"
       id="path649"
       d="m 438.0818,421.6658 -65.8232,39.5203 c -10.0387,6.264 -40.4361,7.3999 -40.8536,-3.6405 l 0.3804,-2.1359 c 3.2877,7.7266 27.7511,8.9802 40.8525,1.8817 l -3.3163,-29.5295 c -6.7431,3.7241 -29.1465,12.0777 -32.1311,0.5592 l 0.6757,-2.9206 c 0.2754,-0.841 0.7653,3.2909 3.7342,4.3133 8.965,3.3681 23.2674,-1.7298 28.0731,-4.3245 l 59.3753,-32.6242 c 2.5372,-1.3699 3.9273,-2.766 4.3034,-0.4334 l 4.7296,29.3341 z m -30.7437,13.9085 -32.2928,20.971 -2.8874,-30.5758 30.8459,-16.6473 4.3343,26.2521 z m 29.3337,-17.4531 -26.3241,15.599 -4.6041,-26.1298 26.6551,-14.6517 4.2731,25.1825 z"
       style="font-size:12px;fill:url(#linearGradient695);fill-rule:evenodd"
       inkscape:connector-curvature="0" /><path
       sodipodi:nodetypes="csssssss"
       id="path617"
       d="m 119.3309,690.1257 c -3.2288,-0.2414 -4.1947,2.2715 -3.3262,5.8528 2.1577,10.1138 7.7164,22.5035 11.9406,27.1326 2.0652,2.4075 6.2578,6.4596 8.3727,6.1983 2.2826,0.6047 5.5555,-1.3097 6.0196,-4.7012 2.3733,-14.2906 2.9033,-29.9358 1.2948,-35.7852 -0.5951,-2.9228 -2.9036,-4.9667 -5.9898,-3.6783 -3.7593,1.9869 -8.385,4.9192 -18.3117,4.981 z"
       style="font-size:12px;fill:url(#linearGradient672);fill-rule:evenodd"
       inkscape:connector-curvature="0" /><ellipse
       transform="matrix(0.677692,-0.208088,0.18628,0.615603,-114.6955,255.1635)"
       id="path720"
       style="fill:#bababa;fill-opacity:0.6464;fill-rule:evenodd;stroke:none;stroke-width:1pt;stroke-linecap:butt;stroke-linejoin:miter;stroke-opacity:1"
       cx="125.26772"
       cy="702.44763"
       rx="128.6082"
       ry="171.19925" /><g
       style="fill:url(#linearGradient682)"
       id="g679"><path
         sodipodi:nodetypes="cscscsss"
         id="path613"
         d="m 711.0956,675.3134 c -10.8301,6.6996 -32.4296,9.9711 -47.1704,8.2267 l -360.4947,-42.659 c -33.1709,-6.4756 9.3297,-42.1554 30.3689,-58.0177 26.8646,-19.0409 22.3808,-15.9218 102.6108,-60.8597 10.4267,2.8195 -16.0106,14.9538 11.6521,24.0326 l 247.1526,81.115 c 37.2293,12.2186 27.7241,38.9709 15.8807,48.1621 z"
         style="font-size:12px;fill:url(#linearGradient4314);fill-rule:evenodd;stroke-width:1"
         inkscape:connector-curvature="0" /><path
         sodipodi:nodetypes="ccsssss"
         id="path634"
         d="m 659.0773,404.8187 -120.3854,-6.7141 c -15.9801,-3.2936 1.5037,-12.9155 11.8652,-19.7275 13.2166,-8.1574 15.6807,-10.4127 54.3147,-27.538 1.3001,-0.5763 0.4193,3.5096 1.7945,4.0311 l 65.6885,24.9113 c 26.7559,10.1467 5.8438,26.1035 -13.2775,25.0372 z"
         style="font-size:12px;fill:url(#linearGradient4316);fill-rule:evenodd;stroke-width:1"
         inkscape:connector-curvature="0" /></g><path
       sodipodi:nodetypes="cssss"
       id="path619"
       d="m 111.5902,681.5782 c -9.7782,4.819 -48.90957,17.2577 -55.86058,7.5763 -6.75439,-9.8251 15.28346,-41.1248 28.10331,-52.0848 6.78154,-5.4407 19.01517,5.399 26.43737,16.5925 6.1133,9.6372 8.6793,23.6656 1.3199,27.916 z"
       style="font-size:12px;fill:url(#radialGradient687);fill-rule:evenodd;stroke-width:1"
       inkscape:connector-curvature="0" /><path
       sodipodi:nodetypes="ccccc"
       id="path630"
       d="m 372.3964,457.4626 c -12.1254,5.7204 -32.7526,7.4155 -40.8329,-0.8647 l 5.9837,-29.8947 c -2.2883,10.7694 19.0179,7.9918 31.6157,0.7637 l 3.2335,29.9957 z"
       style="font-size:12px;fill:#bad1e7;fill-opacity:0.71269998;fill-rule:evenodd"
       inkscape:connector-curvature="0" /><path
       sodipodi:nodetypes="cccc"
       id="path652"
       d="m 606.2159,354.7065 -24.4586,14.0372 82.8673,16.393 7.4627,-4.8618"
       style="fill:none;fill-opacity:1;fill-rule:evenodd;stroke:#000000;stroke-width:0.5;stroke-linecap:round;stroke-linejoin:round;stroke-dasharray:none;stroke-opacity:1"
       inkscape:connector-curvature="0" /><path
       sodipodi:nodetypes="cccc"
       id="path653"
       d="m 377.3087,458.3149 c 6.9601,1.6704 18.305,14.4073 21.0891,37.7934 l 56.7948,-39.6727 c -0.2784,-18.9315 -5.7769,-31.1814 -16.0779,-35.4967"
       style="fill:none;fill-opacity:1;fill-rule:evenodd;stroke:url(#linearGradient694);stroke-width:0.5;stroke-linecap:round;stroke-linejoin:round;stroke-dasharray:none;stroke-opacity:1"
       inkscape:connector-curvature="0" /><path
       sodipodi:nodetypes="cssc"
       id="path688"
       d="m 96.96684,617.9484 c 12.11616,-14.7052 46.92756,-5.1917 53.63316,37.0861 2.5312,16.8426 4.066,42.5605 1.2378,57.6535 -1.4035,10.8942 -1.0071,21.7157 -13.0979,19.0836"
       style="fill:none;fill-opacity:1;fill-rule:evenodd;stroke:url(#linearGradient691);stroke-width:0.5;stroke-linecap:round;stroke-linejoin:round;stroke-dasharray:none;stroke-opacity:1"
       inkscape:connector-curvature="0" /><path
       sodipodi:nodetypes="cccsc"
       id="path689"
       d="m 212.6474,531.0098 c 15.172,-12.5988 60.6944,-0.1715 61.9466,47.2635 l 0.8603,59.4193 -52.8389,36.7695 c -23.6099,16.4297 -52.0018,33.5876 -70.4897,40.6587"
       style="fill:none;fill-opacity:1;fill-rule:evenodd;stroke:url(#linearGradient692);stroke-width:0.5;stroke-linecap:round;stroke-linejoin:round;stroke-dasharray:none;stroke-opacity:1"
       inkscape:connector-curvature="0" /><path
       sodipodi:nodetypes="cc"
       id="path690"
       d="M 150.2603,651.9627 C 224.92,617.482 443.6253,472.7173 539.2321,397.1452"
       style="fill:none;fill-opacity:1;fill-rule:evenodd;stroke:url(#linearGradient693);stroke-width:0.5;stroke-linecap:round;stroke-linejoin:round;stroke-dasharray:none;stroke-opacity:1"
       inkscape:connector-curvature="0" /><path
       sodipodi:nodetypes="cccc"
       id="path709"
       d="m 573.3827,587.3312 -26.6996,15.1333 143.5557,38.2659 11.6736,-10.3477"
       style="fill:none;fill-opacity:1;fill-rule:evenodd;stroke:#000000;stroke-width:0.5;stroke-linecap:round;stroke-linejoin:round;stroke-dasharray:none;stroke-opacity:1"
       inkscape:connector-curvature="0" /><path
       sodipodi:nodetypes="cccc"
       id="path710"
       d="m 196.892,495.6979 -29.8811,12.6106 -98.41602,-17.5089 17.10656,-6.9687"
       style="font-size:12px;fill:none;fill-rule:evenodd;stroke:#000000;stroke-width:0.5;stroke-linecap:round;stroke-linejoin:round"
       inkscape:connector-curvature="0" /><path
       sodipodi:nodetypes="ccssccssc"
       id="path713"
       d="m 309.6632,469.7678 -5.3489,3.1207 c 6.4912,17.2635 37.8003,15.6975 96.6664,13.125 22.636,-0.9999 57.1269,-7.3199 74.9571,-13.75 20.166,-6.6476 50.7596,-16.0184 64.9571,-22.5 l 8.3839,-6.9638 c -21.7095,7.4962 -53.8096,17.4675 -73.966,24.375 -15.7443,4.9073 -50.2404,12.8386 -76.9079,14.1919 -52.2946,4.3241 -84.4878,-0.3093 -88.7417,-11.5988 z"
       style="font-size:12px;fill:#ce0400;fill-opacity:1;fill-rule:evenodd"
       inkscape:connector-curvature="0" /><path
       sodipodi:nodetypes="ccssccssc"
       id="path714"
       d="m 305.0897,472.5771 -5.3694,3.1586 c 12.943,16.6369 40.4885,17.7923 92.5104,14.6528 21.7818,-3.0351 50.3365,-7.5083 69.8369,-10.5492 20.826,-4.1395 56.5048,-17.3442 70.7023,-23.8258 l 8.3838,-6.5219 c -21.7094,8.3801 -62.2064,21.8869 -83.6886,27.0268 -15.9614,4.1472 -45.7276,8.9588 -67.0747,9.8482 -63.4105,4.3121 -77.7609,-3.3783 -85.3007,-13.7895 z"
       style="font-size:12px;fill:#f7f4f1;fill-opacity:1;fill-rule:evenodd"
       inkscape:connector-curvature="0" /><path
       sodipodi:nodetypes="ccssccssc"
       id="path715"
       d="m 299.4554,475.7473 -5.145,3.3418 c 13.8708,15.9396 31.3712,19.0864 90.2373,16.5138 22.636,-0.9998 64.7216,-8.9611 85.5637,-14.1919 21.2189,-5.2145 39.711,-12.0409 53.9085,-18.5225 l 8.3839,-6.0799 c -21.7095,7.4962 -49.3902,17.0257 -69.9886,22.1653 -15.9799,4.0747 -52.2275,11.4339 -79.0071,11.6508 -52.358,0.6399 -68.2464,1.7592 -83.9527,-14.8774 z"
       style="font-size:12px;fill:#0019ff;fill-opacity:1;fill-rule:evenodd"
       inkscape:connector-curvature="0" /><path
       sodipodi:nodetypes="ccccccccccccccccccccc"
       id="path696"
       d="m 436.9157,422.328 -3.4905,-23.5473 c -0.4454,-2.9038 -0.9465,-5.8725 -2.6157,-4.8644 -11.2741,6.2634 -59.7512,32.996 -61.1743,33.6991 -28.6926,12.4705 -32.2486,3.8144 -32.0292,-1.6195 0.1919,-4.7524 6.8588,-10.6147 9.9133,-12.2498 l 60.6494,-32.4668 c 47.4105,-18.7036 121.1529,-27.3661 125.1,-28.0809 4.2338,-0.6624 6.0091,-2.4121 6.3808,-4.5001 -6.802,14.2142 2.1783,12.2635 43.3121,2.1453 -61.5093,25.4032 -111.5485,52.8673 -146.0459,71.4844 z m -54.1914,-27.1957 c 5.1,-1.6238 19.2154,5.9049 21.8306,10.9392 l 25.7545,-14.667 c -3.7944,-8.3371 -14.9496,-12.9535 -22.4367,-8.5326 l -25.1484,12.2604 z m -2.0946,1.3892 -31.3008,16.5364 c 6.9885,-1.8702 18.7017,4.823 21.8514,11.221 l 31.0056,-16.8315 c -5.6105,-6.5948 -15.3551,-11.1228 -21.5562,-10.9259 z"
       style="font-size:12px;fill:url(#linearGradient711);fill-rule:evenodd"
       inkscape:connector-curvature="0" /><path
       sodipodi:nodetypes="csccccscc"
       id="path700"
       d="m 204.5937,396.9261 c 2.3875,-7.9635 3.0082,-10.9606 4.3612,-18.4927 1.5849,-8.9471 -4.2301,-18.2028 -5.9444,-21.9298 0.0438,-1.2988 1.6987,-8.8865 -0.3961,-13.4645 l -6.1877,0.8983 c 2.5346,4.6516 0.679,12.3975 0.679,13.4775 1.9915,2.5297 8.954,11.5497 6.8913,22.6301 -1.2499,7.4407 -2.1231,9.9916 -4.4201,18.3088 l 5.0168,-1.4277 z"
       style="font-weight:normal;font-size:72px;font-family:mdk_teams;fill:#f7f8f8;fill-opacity:1;stroke-width:1"
       transform="matrix(1.466095,-0.489673,0.508371,1.401821,0,0)"
       inkscape:connector-curvature="0" /><text
       transform="matrix(0.102886,-0.06219219,0.02825571,0.215328,0,0)"
       xml:space="preserve"
       sodipodi:linespacing="100%"
       id="text706"
       y="3197.5366"
       x="974.54529"
       style="font-style:normal;font-weight:bold;font-size:72px;line-height:100%;font-family:'Luxi Sans';writing-mode:lr-tb;text-anchor:start;fill:#f3f3f3;fill-opacity:1;stroke:none;stroke-width:1pt;stroke-linecap:butt;stroke-linejoin:miter;stroke-opacity:1"><tspan
         style="fill:#f3f3f3;fill-opacity:1"
         id="tspan715"
         sodipodi:role="line"
         y="3197.5366"
         x="974.54529"> CAUDRON RENAULT</tspan></text>
<path
       sodipodi:nodetypes="cccccccsccsccccc"
       id="path712"
       d="m 475.6518,380.4362 4.8024,7.9345 16.0777,-7.7257 -2.3229,11.3275 c 1.0353,0.783 1.2354,9.5005 -0.0261,14.4596 2.1489,2.0358 3.4626,3.0276 4.5675,5.481 l 4.8482,-3.0667 c 5.7497,-3.9563 12.1128,-2.0555 15.4742,5.1223 5.1754,11.2602 3.8781,19.2576 -11.2525,28.9778 l 0.0456,8.2086 c 16.7119,-11.1601 26.2914,-22.2202 18.5018,-41.0233 -1.2712,-3.0344 -8.4412,-15.9257 -23.885,-10.2769 0.4785,-5.2548 0.3306,-10.5097 -0.6524,-11.1709 l 3.5235,-12.4239 -9.2395,-4.5935 -20.4625,8.7696 z"
       style="font-size:12px;fill:#f3f3f3;fill-opacity:1;fill-rule:evenodd"
       inkscape:connector-curvature="0" /><path
       id="path734"
       d="m 572.083,306.5387 c -0.164,-0.2101 -1.2139,-1.2098 -1.8609,-0.7433 -0.9352,0.596 -1.2255,3.6096 0.7286,3.868 l 0.165,-0.7468 c -1.1298,0.5864 -1.4693,-0.961 -0.9315,-2.2936 0.3851,-0.8755 1.251,-0.5796 1.806,0.7809 l 0.0928,-0.8652 z m 16.7307,-4.3413 c 0.02,0.1753 0.0368,0.3319 0.0564,0.4452 0.1405,0.8118 0.517,1.2156 0.9258,0.9772 0.2879,-0.168 0.6448,-0.6464 0.8833,-1.1596 0.4371,-0.9616 0.6049,-2.1195 0.4418,-3.0636 -0.1209,-0.6985 -0.212,-0.8116 -0.8464,-1.169 -0.3876,-0.2311 -0.5797,-0.5139 -0.6645,-1.0048 -0.1111,-0.6419 0.0603,-1.3654 0.3762,-1.5496 0.2136,-0.1247 0.4074,-0.009 0.7032,0.4003 0.208,-0.8073 0.208,-0.8073 0.2668,-1.2364 -0.2641,-0.3447 -0.4733,-0.4306 -0.7333,-0.2789 -0.6781,0.3956 -1.2672,2.5474 -1.0517,3.7935 0.1012,0.5852 0.3282,0.9516 0.7692,1.2556 0.5787,0.3898 0.6731,0.5217 0.7547,0.9938 0.1175,0.6796 -0.1726,1.7218 -0.5349,1.9331 -0.2043,0.1192 -0.4014,-0.0152 -0.5662,-0.3764 -0.1139,-0.2452 -0.1814,-0.5175 -0.3018,-1.1541 -0.076,0.2107 -0.134,0.3484 -0.1613,0.4267 -0.058,0.1377 -0.1253,0.2809 -0.1893,0.4429 l -0.128,0.3241 z m -2.9399,3.0452 -0.2192,-4.7564 c 0.9032,-2.1688 0.9278,-2.2039 1.0579,-2.2798 0.065,-0.0379 0.1185,0.0348 0.1446,0.1859 0.0489,0.2832 0.0986,1.0439 0.2015,3.3533 0.0862,1.7995 0.1045,2.1421 0.1666,2.5008 0.0457,0.2643 0.1252,0.4881 0.2862,0.7683 0.3587,-0.6457 0.8592,-1.8313 1.3397,-3.1924 l -0.0264,-0.5665 c -0.7428,1.6179 -0.7734,1.6774 -0.8663,1.7316 -0.0929,0.0542 -0.1845,-0.121 -0.2368,-0.4231 -0.0685,-0.3965 -0.1112,-1.0574 -0.16,-2.463 -0.1118,-3.4264 -0.1118,-3.4264 -0.1347,-3.5587 -0.036,-0.2076 -0.1205,-0.283 -0.2413,-0.2126 -0.1393,0.0813 -0.3143,0.3705 -0.5736,0.9997 l -0.9951,2.3471 c -0.0241,-0.6718 -0.0904,-1.9425 -0.1165,-2.0935 -0.0229,-0.1321 -0.0982,-0.2129 -0.1632,-0.175 -0.1021,0.0596 -0.6501,1.1483 -1.1939,2.38 l 0.0291,0.5233 c 0.4999,-0.8943 0.5337,-0.9348 0.6174,-0.9836 0.065,-0.0379 0.131,0.0482 0.1571,0.1993 0.0685,0.3965 0.163,2.0664 0.2279,3.92 l 0.0508,1.6538 c 0.004,0.143 0.0198,0.5288 0.0462,1.0953 l 0.602,-0.9538 z m -3.5135,-5.1209 c 0.3716,-0.2168 0.7311,0.3841 0.927,1.5168 0.1371,0.793 0.1769,1.8506 0.1046,2.9111 -0.074,1.2278 -0.3072,2.0083 -0.6601,2.2141 -0.3809,0.2221 -0.7432,-0.3355 -0.9293,-1.4117 -0.3786,-2.19 -0.0923,-4.8511 0.5578,-5.2303 z m 0.3296,-1.1691 c -0.3715,0.2167 -0.8713,1.111 -1.2756,2.2613 -0.4378,1.253 -0.5163,3.4603 -0.1931,5.3295 0.1991,1.1515 0.6423,1.7037 1.1346,1.4165 0.26,-0.1517 0.4875,-0.4922 0.8364,-1.1946 0.373,-0.7996 0.5979,-1.4504 0.6867,-2.001 0.1953,-1.2362 0.1726,-3.2598 -0.0527,-4.5625 -0.1762,-1.0195 -0.644,-1.5364 -1.1363,-1.2492 z m -1.712,7.13 c -0.7159,1.4775 -0.7313,1.5072 -0.852,1.5777 -0.1021,0.0596 -0.2031,-0.1102 -0.2586,-0.4311 -0.0326,-0.1889 -0.0668,-0.5638 -0.0828,-1.0117 -0.2119,-4.241 -0.2497,-5.0503 -0.2758,-5.2014 -0.0196,-0.1132 -0.079,-0.1617 -0.144,-0.1238 -0.1579,0.0922 -0.5982,1.0348 -1.1803,2.5175 l 0.0728,0.5395 c 0.4435,-0.9238 0.4835,-0.9887 0.5671,-1.0374 0.0743,-0.0434 0.131,0.0482 0.1701,0.2747 0.0425,0.2455 0.0603,0.526 0.1071,1.6834 0.1347,3.5587 0.1347,3.5587 0.2163,4.0306 0.0784,0.4532 0.2235,0.7011 0.3535,0.6253 0.1579,-0.0922 0.3663,-0.484 0.7476,-1.413 0.1373,-0.3296 0.2746,-0.6591 0.4087,-1.0074 0.0672,-0.1432 0.1312,-0.3052 0.2045,-0.4726 l -0.0542,-0.5503 z m -1.8749,-6.7627 c 0.1845,-0.648 0.1966,-0.6966 0.4275,-1.3717 -0.0949,-0.1941 -0.1675,-0.318 -0.1958,-0.3638 -0.095,-0.1941 -0.1075,-0.2075 -0.2439,-0.5229 -0.0316,-0.0646 -0.0632,-0.1293 -0.0981,-0.2128 -0.0334,0.1025 -0.0761,0.2105 -0.0942,0.2834 -0.0241,0.0972 -0.0787,0.2539 -0.1456,0.4591 -0.0333,0.1026 -0.0821,0.2349 -0.146,0.397 -0.0274,0.0783 -0.0548,0.1566 -0.0854,0.216 0.1369,0.3775 0.2727,0.6308 0.5815,1.1157 z m -4.458,8.3992 c -0.002,-0.3103 -0.002,-0.6017 -0.009,-0.7015 -10e-4,-1.3086 0.0441,-1.4598 0.549,-1.7335 0.3683,-0.2356 0.4671,-0.3141 0.6738,-0.5386 -0.3266,1.5415 -0.416,2.0301 -0.4709,2.5401 -0.1127,1.0635 -0.0845,2.2316 0.0754,3.1568 0.1503,0.8684 0.4367,1.2833 0.7432,1.1044 0.7338,-0.4279 1.4289,-2.5586 1.6846,-5.1602 0.1468,-1.4573 0.1364,-3.114 -0.0236,-4.0391 -0.0751,-0.4342 -0.189,-0.6795 -0.4177,-0.8786 -0.2001,0.2622 -0.2953,0.4216 -0.5343,0.8727 0.1996,0.4448 0.2891,0.7251 0.3739,1.216 0.1992,1.1518 0.2409,2.4574 0.1145,3.7368 -0.1469,1.4573 -0.501,2.6615 -0.8447,2.862 -0.2043,0.1192 -0.4565,-0.2742 -0.5675,-0.916 -0.1501,-0.8684 -0.1811,-1.9935 -0.0874,-3.1081 0.0714,-0.7692 0.163,-1.3629 0.4233,-2.6371 -5e-4,-0.0621 -0.0102,-0.1187 -0.0135,-0.1376 -0.01,-0.0566 -0.0131,-0.0755 -0.0545,-0.1968 l -0.0928,0.0541 c -0.0598,0.305 -0.1522,0.4213 -0.4495,0.5947 l -0.2228,0.13 c -0.5857,0.2794 -0.6786,0.3335 -0.7529,0.3769 -0.1765,0.103 -0.2596,0.2138 -0.2892,0.3973 -0.0685,0.3726 -0.0801,1.2522 -0.0341,2.701 l 0.2265,0.3043 z m -3.4354,1.2484 0.917,-5.287 0.445,4.9987 -1.362,0.2883 z m 0.708,-5.9291 -0.9155,5.4341 c -0.2138,1.247 -0.5755,3.0584 -0.7355,3.6712 -0.2441,0.953 -0.409,1.7741 -0.8362,2.0234 -0.7874,0.5678 -1.5296,-1.4431 -0.6374,-1.9074 l -0.2962,-0.2891 c -1.15,-0.0877 -0.5841,3.7104 0.8311,3.3187 0.5792,-0.157 1.118,-1.9221 1.8512,-5.4881 0.7119,-0.4516 1.0767,-0.3903 1.4837,-0.24 0.0206,0.2375 0.0412,0.4748 0.0711,0.7068 0.0239,0.2563 0.0581,0.6313 0.0987,1.044 0.0434,0.3695 0.0776,0.7445 0.0781,0.8066 0.0276,0.3371 0.2017,1.6736 0.9777,1.023 0.7504,-0.6251 1.0044,-1.4596 0.9853,-2.7351 -0.215,-0.0345 -0.4807,0.3581 -0.3814,0.6979 -0.1309,0.3559 -0.2337,0.7774 -0.3731,0.8587 -0.3622,0.2113 -0.5832,-0.0485 -0.6974,-0.7092 -0.2057,-1.1894 -0.6053,-6.895 -0.8267,-10.0083 l -0.1551,0.1359 c -0.1592,0.1397 -0.2515,-0.1572 -0.2662,-0.0655 -0.0964,0.3887 -0.2036,1.3301 -0.2562,1.7224 z m 37.0735,10.8389 c -1.3521,2.3936 -47.0204,28.6322 -48.241,29.3442 -1.3776,0.8036 -2.4895,-0.0761 -2.8696,-2.2745 -0.8323,-4.813 0.6801,-12.3867 3.2607,-13.8921 1.0462,-0.6103 3.892,-0.6186 -0.4027,4.7855 l 0.1946,2.1824 c 5.8044,-6.3848 2.1998,-9.3269 0.9442,-8.5945 -1.517,0.8849 -3.0741,3.0923 -4.2564,6.0238 -1.3034,3.2312 -1.5424,8.177 -1.0222,11.1852 0.4121,2.3834 1.6541,3.2383 3.328,2.2617 1.4997,-0.8747 47.8229,-27.8775 49.0624,-30.2564 l 0.002,-0.7653 z m -36.6552,17.1935 c -1.1078,1.9199 -1.3333,2.2806 -1.5077,2.3825 -0.1221,0.0711 -0.2413,-0.0632 -0.2892,-0.3409 -0.1041,-0.6016 -0.1258,-3.391 -0.0302,-6.8348 0.1319,-0.459 0.1547,-0.5488 0.3617,-1.128 -0.881,0.2336 -1.5073,0.4971 -2.2571,0.9345 -0.7149,0.417 -1.0302,0.7028 -1.4196,1.3376 -0.5437,0.8521 -1.1521,1.9966 -1.3227,2.4528 -0.4771,1.3482 -0.6693,4.8993 -0.3453,6.7737 0.1921,1.1107 0.5992,1.6884 1.035,1.4342 0.3837,-0.2238 0.8791,-1.0223 2.6986,-4.3764 0.01,1.1662 0.0466,1.9343 0.0946,2.212 0.0519,0.3009 0.1886,0.425 0.363,0.3232 0.2093,-0.1221 0.2093,-0.1221 1.4002,-2.116 0.4296,-0.7345 0.7667,-1.3387 1.3172,-2.3731 l -0.0985,-0.6813 z m -3.3763,2.1223 c -0.8567,1.5952 -1.3119,2.2937 -1.6257,2.4768 -0.2791,0.1628 -0.5254,-0.152 -0.6535,-0.8925 -0.2,-1.157 -0.193,-2.8933 0.0148,-4.4665 0.1984,-1.5169 0.498,-2.2266 1.0909,-2.5724 0.3139,-0.1831 0.8744,-0.3827 1.5341,-0.5638 -0.0446,1.962 -0.0746,2.5655 -0.0721,2.6913 -0.005,0.6395 0.008,1.269 0.008,1.9316 0.003,0.1259 -0.002,0.4341 -0.0168,0.9014 l -0.2794,0.4941 z m 2.8704,-6.1578 c 0.6484,-0.9132 0.9477,-1.2915 1.157,-1.4136 0.1394,-0.0814 0.276,0.0427 0.32,0.2973 0.0521,0.3008 0.0498,1.3975 0.008,3.1541 -0.0638,2.4063 -0.0564,3.1152 0.0595,3.7863 0.1121,0.6479 0.4054,1.0118 0.6843,0.849 0.2616,-0.1525 0.5395,-0.5439 1.2794,-1.8161 l 1.5279,-2.5981 c -0.0115,0.8218 0.028,1.716 0.0999,2.1324 0.0521,0.3009 0.2316,0.4509 0.406,0.3491 0.3487,-0.2033 1.7812,-2.4655 2.7629,-4.3373 l 0.002,-0.7654 c -1.1759,1.8578 -1.5733,2.4462 -1.7652,2.5581 -0.122,0.0712 -0.2237,-0.0732 -0.2877,-0.4434 -0.2042,-1.1802 -0.1551,-5.0044 0.0866,-8.3806 -0.1987,0.2943 -0.3356,0.5015 -0.3974,0.5885 -0.1852,0.2609 -0.3705,0.5218 -0.5732,0.7929 -0.0483,0.0537 -0.1409,0.1841 -0.3087,0.4349 -0.0126,0.5932 -0.0413,2.6478 -0.0645,6.1768 -1.1307,2.0095 -1.6609,2.8284 -1.8702,2.9505 -0.1918,0.1119 -0.3873,-0.1307 -0.4633,-0.5704 -0.092,-0.5322 -0.1126,-1.5392 -0.0722,-3.193 0.0317,-1.0375 0.0417,-1.7566 0.0381,-2.111 0.009,-0.9479 0.0269,-1.6207 0.0337,-1.803 0.008,-0.285 0.007,-0.5137 -0.0208,-0.6756 -0.032,-0.1851 -0.1392,-0.25 -0.2612,-0.1788 -0.1744,0.1017 -1.2913,1.7467 -2.3668,3.5205 l -0.014,0.6959 z m 15.9338,-4.9898 c -0.1947,0.3174 -0.341,0.5811 -0.4161,0.7014 -0.8071,1.4388 -1.2314,2.0939 -1.3883,2.1853 -0.1394,0.0814 -0.2881,-0.112 -0.3481,-0.4592 -0.1321,-0.7636 -0.1157,-9.9947 0.002,-11.6429 0.1435,-1.6122 0.4351,-2.3682 1.0629,-2.7344 0.2267,-0.1322 0.409,-0.1876 0.8341,-0.2828 l 0.3862,-1.6518 c -0.2735,0.0832 -0.417,0.1414 -0.574,0.2329 -0.4185,0.2441 -0.6291,0.4689 -0.9782,1.0037 -0.3799,0.5783 -0.8688,1.5258 -1.253,2.4122 -0.6663,1.586 -0.6906,1.7785 -0.7318,4.4264 -0.002,0.1027 -0.002,0.434 -0.0115,0.8218 -0.3299,0.0905 -0.5995,0.1968 -0.739,0.2782 -0.5406,0.3154 -1.8241,2.4396 -2.3455,3.8647 -0.4368,1.2483 -0.6573,4.9687 -0.3813,6.5654 0.1521,0.8793 0.6569,1.5783 0.9707,1.3953 0.3314,-0.1933 0.9905,-1.2657 2.5173,-4.0923 0.013,0.6293 0.0766,1.3308 0.1487,1.7473 0.08,0.4629 0.2635,0.636 0.5076,0.4936 0.279,-0.1627 1.584,-2.2741 2.7912,-4.5067 l -0.0543,-0.7581 z m -3.4017,2.0863 c -1.2421,2.2529 -1.5737,2.7776 -1.8178,2.92 -0.2441,0.1424 -0.4262,-0.1335 -0.5422,-0.8045 -0.1321,-0.7637 -0.1795,-1.704 -0.1463,-2.8442 0.1016,-2.6321 0.5816,-4.1858 1.4709,-4.7045 0.3138,-0.1831 0.5685,-0.1534 1.0148,0.0958 l 0.0206,5.3374 z m 4.5413,0.8408 1.2267,-1.4543 0.1674,-7.3577 c 0.4929,-0.9244 0.854,-1.3898 1.3247,-1.6643 0.3836,-0.2238 0.6423,-0.1709 1.0482,0.1782 l 0.143,-2.5035 c -0.3552,0.0545 -0.5028,0.0895 -0.6771,0.1913 -0.3139,0.183 -0.6441,0.6049 -1.0389,1.3193 l -0.8567,1.5951 c -0.0146,-0.1953 3e-4,-0.3314 -0.0117,-0.4007 0.007,-0.8451 8e-4,-0.9941 -0.0192,-1.1097 -0.024,-0.1389 -0.1486,-0.1935 -0.2706,-0.1224 -0.2267,0.1323 -1.5892,2.0224 -2.5048,3.4991 l 0.0558,0.6552 c 0.8295,-1.1972 0.9261,-1.3045 1.1354,-1.4266 0.2267,-0.1321 0.3593,-0.0311 0.4153,0.2927 0.0561,0.324 0.0697,1.5133 0.0325,2.6304 l -0.17,5.6779 z m 8.2373,-15.5296 c -0.6974,0.4068 -1.6974,1.7288 -2.5501,3.3472 -0.924,1.7617 -1.2925,4.6259 -0.8965,6.9168 0.2442,1.4115 0.993,1.9682 1.9172,1.4291 0.4883,-0.2848 0.9365,-0.801 1.6426,-1.8244 0.7599,-1.1564 1.2352,-2.0707 1.453,-2.8091 0.4815,-1.6564 0.6474,-4.2496 0.3713,-5.8463 -0.2161,-1.2495 -1.0133,-1.7524 -1.9375,-1.2133 z m -0.7186,1.6164 c 0.6974,-0.4068 1.2894,0.2414 1.5295,1.6297 0.168,0.9719 0.132,2.3176 -0.1079,3.7057 -0.2602,1.6038 -0.7639,2.6874 -1.4265,3.0739 -0.7149,0.417 -1.3163,-0.1747 -1.5445,-1.4937 -0.4641,-2.6842 0.3287,-6.2035 1.5494,-6.9156 z m 5.8617,5.3692 0.0885,-6.038 c 1.8637,-3.0996 1.912,-3.1532 2.1561,-3.2957 0.122,-0.0712 0.2117,0.004 0.2438,0.1889 0.06,0.3472 0.0725,1.3079 0.023,4.2408 -0.0275,2.2832 -0.0292,2.7173 0.0468,3.1569 0.0559,0.324 0.1777,0.5841 0.4416,0.8887 0.7181,-0.9538 1.7492,-2.6506 2.7617,-4.566 l 0.0101,-0.7191 c -1.5157,2.3362 -1.5775,2.4231 -1.7519,2.5249 -0.1743,0.1017 -0.323,-0.0918 -0.387,-0.4621 -0.084,-0.4859 -0.0939,-1.3207 -0.0388,-3.1106 0.1475,-4.3656 0.1475,-4.3656 0.1195,-4.5276 -0.0441,-0.2545 -0.1901,-0.3221 -0.4169,-0.19 -0.2615,0.1527 -0.6091,0.5847 -1.1448,1.4831 l -2.0488,3.3604 c 0.0249,-0.8552 0.0344,-2.4655 0.002,-2.6507 -0.0279,-0.1619 -0.1566,-0.2397 -0.2787,-0.1685 -0.1917,0.1118 -1.2992,1.7005 -2.4135,3.4713 l -5e-4,0.6626 c 0.9999,-1.322 1.0656,-1.3858 1.2226,-1.4774 0.122,-0.0711 0.2332,0.0168 0.2652,0.2019 0.084,0.486 0.0849,2.5999 0.013,4.9598 l -0.077,2.1083 c -0.007,0.1823 -0.018,0.6729 -0.028,1.392 l 1.1917,-1.4339 z"
       style="font-style:italic;font-weight:normal;font-size:72px;font-family:'URW Chancery L';fill:#f3f3f3;fill-opacity:1"
       inkscape:connector-curvature="0" /><text
       transform="matrix(0.103829,-0.04979283,-0.03092083,0.176837,0,0)"
       xml:space="preserve"
       sodipodi:linespacing="100%"
       id="text735"
       y="3449.6204"
       x="6558.4023"
       style="font-style:normal;font-weight:bold;font-size:72px;line-height:100%;font-family:'URW Palladio L';writing-mode:lr-tb;text-anchor:start;fill:#f3f3f3;fill-opacity:1;stroke:none;stroke-width:1pt;stroke-linecap:butt;stroke-linejoin:miter;stroke-opacity:1"><tspan
         style="fill:#f3f3f3;fill-opacity:1"
         id="tspan742"
         sodipodi:role="line"
         y="3449.6204"
         x="6558.4023">C.450</tspan></text>
<path
       sodipodi:nodetypes="cccc"
       id="path651"
       d="m 608.0422,253.366 -19.8181,8.3017 12.6469,87.7296 33.553,-17.4107"
       style="fill:none;fill-opacity:1;fill-rule:evenodd;stroke:#000000;stroke-width:0.5;stroke-linecap:round;stroke-linejoin:round;stroke-dasharray:none;stroke-opacity:1"
       inkscape:connector-curvature="0" /><g
       style="fill:url(#linearGradient767)"
       id="g755"><path
         sodipodi:nodetypes="cscsc"
         id="path745"
         d="m 278.2297,590.7211 c 0.1653,4.6649 -0.3975,8.6881 -1.5108,9.3781 -1.0699,0.3849 -0.2424,-3.7778 -0.4077,-8.4426 -0.1653,-4.6649 -1.1575,-7.8514 -0.1911,-8.4505 1.3299,-0.6977 1.9442,2.8502 2.1096,7.515 z"
         style="font-size:12px;fill:url(#linearGradient4318);fill-rule:evenodd;stroke-width:1"
         inkscape:connector-curvature="0" /><path
         sodipodi:nodetypes="cscsc"
         id="path746"
         d="m 279.53,626.9122 c 0.1653,4.6649 -0.3975,8.6881 -1.5108,9.3781 -1.0699,0.3849 -0.2424,-3.7778 -0.4077,-8.4426 -0.1653,-4.6649 -1.1575,-7.8514 -0.1911,-8.4505 1.3299,-0.6977 1.9442,2.8502 2.1096,7.515 z"
         style="font-size:12px;fill:url(#linearGradient4320);fill-rule:evenodd;stroke-width:1"
         inkscape:connector-curvature="0" /><path
         sodipodi:nodetypes="cscsc"
         id="path747"
         d="m 290.1489,582.9194 c 0.1653,4.6649 -0.3975,8.6881 -1.5108,9.3781 -1.0699,0.3849 -0.2424,-3.7778 -0.4077,-8.4426 -0.1653,-4.6649 -1.1575,-7.8514 -0.1911,-8.4505 1.3299,-0.6977 1.9442,2.8502 2.1096,7.515 z"
         style="font-size:12px;fill:url(#linearGradient4322);fill-rule:evenodd;stroke-width:1"
         inkscape:connector-curvature="0" /><path
         sodipodi:nodetypes="cscsc"
         id="path748"
         d="m 287.3318,584.6531 c 0.1653,4.6649 -0.3975,8.6881 -1.5108,9.3781 -1.0699,0.3849 -0.2424,-3.7778 -0.4077,-8.4426 -0.1653,-4.6649 -1.1575,-7.8514 -0.1911,-8.4505 1.3299,-0.6977 1.9442,2.8502 2.1096,7.515 z"
         style="font-size:12px;fill:url(#linearGradient4324);fill-rule:evenodd;stroke-width:1"
         inkscape:connector-curvature="0" /><path
         sodipodi:nodetypes="cscsc"
         id="path749"
         d="m 284.2977,586.6034 c 0.1653,4.6649 -0.3975,8.6881 -1.5108,9.3781 -1.0699,0.3849 -0.2424,-3.7778 -0.4077,-8.4426 -0.1653,-4.6649 -1.1575,-7.8514 -0.1911,-8.4505 1.3299,-0.6977 1.9442,2.8502 2.1096,7.515 z"
         style="font-size:12px;fill:url(#linearGradient4326);fill-rule:evenodd;stroke-width:1"
         inkscape:connector-curvature="0" /><path
         sodipodi:nodetypes="cscsc"
         id="path750"
         d="m 281.2638,588.5539 c 0.1653,4.6649 -0.3975,8.6881 -1.5108,9.3781 -1.0699,0.3849 -0.2424,-3.7778 -0.4077,-8.4426 -0.1653,-4.6649 -1.1575,-7.8514 -0.1911,-8.4505 1.3299,-0.6977 1.9442,2.8502 2.1096,7.515 z"
         style="font-size:12px;fill:url(#linearGradient4328);fill-rule:evenodd;stroke-width:1"
         inkscape:connector-curvature="0" /><path
         sodipodi:nodetypes="cscsc"
         id="path751"
         d="m 291.666,619.9774 c 0.1653,4.6649 -0.3975,8.6881 -1.5108,9.3781 -1.0699,0.3849 -0.2424,-3.7778 -0.4077,-8.4426 -0.1653,-4.6649 -1.1575,-7.8514 -0.1911,-8.4505 1.3299,-0.6977 1.9442,2.8502 2.1096,7.515 z"
         style="font-size:12px;fill:url(#linearGradient4330);fill-rule:evenodd;stroke-width:1"
         inkscape:connector-curvature="0" /><path
         sodipodi:nodetypes="cscsc"
         id="path752"
         d="m 288.632,621.4944 c 0.1653,4.6649 -0.3975,8.6881 -1.5108,9.3781 -1.0699,0.3849 -0.2424,-3.7778 -0.4077,-8.4426 -0.1653,-4.6649 -1.1575,-7.8514 -0.1911,-8.4505 1.3299,-0.6977 1.9442,2.8502 2.1096,7.515 z"
         style="font-size:12px;fill:url(#linearGradient4332);fill-rule:evenodd;stroke-width:1"
         inkscape:connector-curvature="0" /><path
         sodipodi:nodetypes="cscsc"
         id="path753"
         d="m 285.598,623.6615 c 0.1653,4.6649 -0.3975,8.6881 -1.5108,9.3781 -1.0699,0.3849 -0.2424,-3.7778 -0.4077,-8.4426 -0.1653,-4.6649 -1.1575,-7.8514 -0.1911,-8.4505 1.3299,-0.6977 1.9442,2.8502 2.1096,7.515 z"
         style="font-size:12px;fill:url(#linearGradient4334);fill-rule:evenodd;stroke-width:1"
         inkscape:connector-curvature="0" /><path
         sodipodi:nodetypes="cscsc"
         id="path754"
         d="m 282.7807,625.3952 c 0.1653,4.6649 -0.3975,8.6881 -1.5108,9.3781 -1.0699,0.3849 -0.2424,-3.7778 -0.4077,-8.4426 -0.1653,-4.6649 -1.1575,-7.8514 -0.1911,-8.4505 1.3299,-0.6977 1.9442,2.8502 2.1096,7.515 z"
         style="font-size:12px;fill:url(#linearGradient4336);fill-rule:evenodd;stroke-width:1"
         inkscape:connector-curvature="0" /></g></g></svg>