<!--Created with Sodipodi ("http://www.sodipodi.com/")--><svg xmlns:dc="http://purl.org/dc/elements/1.1/" xmlns:cc="http://creativecommons.org/ns#" xmlns:rdf="http://www.w3.org/1999/02/22-rdf-syntax-ns#" xmlns="http://www.w3.org/2000/svg" xmlns:xlink="http://www.w3.org/1999/xlink" xmlns:sodipodi="http://sodipodi.sourceforge.net/DTD/sodipodi-0.dtd" xmlns:inkscape="http://www.inkscape.org/namespaces/inkscape" sodipodi:version="0.34" width="300" height="219.67119" xml:space="preserve" sodipodi:docname="rafale.svg" inkscape:version="0.91 r13725"><metadata><rdf:RDF><cc:Work><dc:format>image/svg+xml</dc:format><dc:type rdf:resource="http://purl.org/dc/dcmitype/StillImage"/><dc:title/></cc:Work></rdf:RDF></metadata><defs><linearGradient id="e"><stop style="stop-color:#f3f2f2;stop-opacity:1" offset="0"/><stop style="stop-color:#333;stop-opacity:1" offset="1"/></linearGradient><linearGradient inkscape:collect="always" xlink:href="#a" id="O" gradientTransform="scale(.38764 2.57971)" x1="723.74982" y1="242.82852" x2="732.47479" y2="242.57103" gradientUnits="userSpaceOnUse"/><linearGradient id="c"><stop style="stop-color:#ff9f00;stop-opacity:1" offset="0"/><stop style="stop-color:#fff200;stop-opacity:1" offset="1"/></linearGradient><linearGradient id="a"><stop style="stop-color:#265aa7;stop-opacity:1" offset="0"/><stop style="stop-color:#00e5ff;stop-opacity:1" offset="1"/></linearGradient><linearGradient id="b"><stop style="stop-color:#000;stop-opacity:1" offset="0"/><stop style="stop-color:#fff;stop-opacity:1" offset="1"/></linearGradient><linearGradient xlink:href="#a" id="s" x1="23.729633" y1="670.92578" x2="410.52448" y2="670.92578" gradientTransform="scale(1.7169 .58245)" gradientUnits="userSpaceOnUse"/><linearGradient xlink:href="#b" id="u" x1="181.65619" y1="554.552" x2="123.76408" y2="573.34479" gradientTransform="scale(.80372 1.24422)" gradientUnits="userSpaceOnUse"/><linearGradient xlink:href="#a" id="v" gradientTransform="scale(1.13656 .87985)" x1="256.20657" y1="398.68625" x2="634.93109" y2="398.68625" gradientUnits="userSpaceOnUse"/><linearGradient xlink:href="#a" id="i" gradientTransform="scale(1.4233 .7026)" x1="20.016054" y1="487.13721" x2="413.22015" y2="487.13721" gradientUnits="userSpaceOnUse"/><linearGradient inkscape:collect="always" xlink:href="#a" id="N" gradientTransform="scale(.38764 2.57971)" x1="731.01764" y1="242.15646" x2="739.74261" y2="241.89899" gradientUnits="userSpaceOnUse"/><linearGradient xlink:href="#a" id="A" x1="159.14842" y1="434.35471" x2="444.2482" y2="560.21051" gradientTransform="scale(.68516 1.45952)" gradientUnits="userSpaceOnUse"/><linearGradient xlink:href="#a" id="B" x1="218.35593" y1="548.80151" x2="930.16656" y2="471.06677" gradientTransform="scale(.80895 1.23617)" gradientUnits="userSpaceOnUse"/><linearGradient xlink:href="#a" id="C" x1="261.42834" y1="684.82428" x2="375.66058" y2="381.79822" gradientTransform="scale(1.23509 .80966)" gradientUnits="userSpaceOnUse"/><linearGradient xlink:href="#a" id="z" gradientTransform="scale(1.0178 .98252)" x1="370.46402" y1="428.1723" x2="447.48111" y2="428.1723" gradientUnits="userSpaceOnUse"/><linearGradient xlink:href="#a" id="t" x1="314.33447" y1="467.72153" x2="318.75299" y2="584.26044" gradientTransform="scale(1.19415 .83741)" gradientUnits="userSpaceOnUse"/><linearGradient xlink:href="#a" id="h" x1="413.00916" y1="445.81265" x2="218.06972" y2="467.94299" gradientTransform="scale(1.11857 .894)" gradientUnits="userSpaceOnUse"/><linearGradient inkscape:collect="always" xlink:href="#a" id="M" gradientTransform="scale(.38764 2.57971)" x1="738.84448" y1="241.31641" x2="747.56946" y2="241.05891" gradientUnits="userSpaceOnUse"/><linearGradient xlink:href="#b" id="f" x1="556.39331" y1="600.2276" x2="603.427" y2="557.27374" gradientTransform="scale(.83462 1.19815)" gradientUnits="userSpaceOnUse"/><linearGradient xlink:href="#a" id="D" x1="263.16321" y1="577.42291" x2="332.59174" y2="637.24811" gradientTransform="scale(1.69585 .58968)" gradientUnits="userSpaceOnUse"/><linearGradient xlink:href="#c" id="r" x1="297.65527" y1="594.73346" x2="328.6474" y2="594.73346" gradientTransform="scale(1.32424 .75515)" gradientUnits="userSpaceOnUse"/><linearGradient id="d"><stop style="stop-color:#f3f2f2;stop-opacity:1" offset="0"/><stop style="stop-color:#333;stop-opacity:.4039" offset="1"/></linearGradient><linearGradient inkscape:collect="always" xlink:href="#a" id="L" gradientTransform="scale(.38764 2.57971)" x1="746.67139" y1="240.72836" x2="755.3963" y2="240.47087" gradientUnits="userSpaceOnUse"/><linearGradient inkscape:collect="always" xlink:href="#a" id="K" gradientTransform="scale(.38764 2.57971)" x1="719.83667" y1="228.54736" x2="728.56158" y2="228.28987" gradientUnits="userSpaceOnUse"/><linearGradient inkscape:collect="always" xlink:href="#a" id="J" gradientTransform="scale(.38764 2.57971)" x1="727.66327" y1="227.79128" x2="736.38818" y2="227.53378" gradientUnits="userSpaceOnUse"/><linearGradient xlink:href="#a" id="E" x1="542.13452" y1="310.43387" x2="583.47229" y2="309.21393" gradientTransform="scale(.51202 1.95305)" gradientUnits="userSpaceOnUse"/><linearGradient inkscape:collect="always" xlink:href="#a" id="j" gradientTransform="scale(1.78599 .55991)" x1="244.81474" y1="611.27417" x2="329.30383" y2="611.27417" gradientUnits="userSpaceOnUse"/><linearGradient inkscape:collect="always" xlink:href="#a" id="k" gradientTransform="scale(1.59512 .62691)" x1="17.859863" y1="769.6792" x2="234.80415" y2="769.6792" gradientUnits="userSpaceOnUse"/><linearGradient inkscape:collect="always" xlink:href="#a" id="I" gradientTransform="scale(.38764 2.57971)" x1="735.49036" y1="227.03525" x2="744.21533" y2="226.77776" gradientUnits="userSpaceOnUse"/><linearGradient inkscape:collect="always" xlink:href="#a" id="H" gradientTransform="scale(.38764 2.57971)" x1="742.75769" y1="226.3632" x2="751.4826" y2="226.10571" gradientUnits="userSpaceOnUse"/><linearGradient inkscape:collect="always" xlink:href="#a" id="w" gradientTransform="scale(1.63005 .61348)" x1="178.64143" y1="850.8905" x2="442.7092" y2="850.8905" gradientUnits="userSpaceOnUse"/><linearGradient inkscape:collect="always" xlink:href="#a" id="x" gradientTransform="scale(1.6809 .59492)" x1="316.64078" y1="589.63293" x2="407.55402" y2="589.63293" gradientUnits="userSpaceOnUse"/><linearGradient inkscape:collect="always" xlink:href="#a" id="F" gradientTransform="scale(.38764 2.57971)" x1="712.00952" y1="229.38745" x2="720.7345" y2="229.12996" gradientUnits="userSpaceOnUse"/><linearGradient inkscape:collect="always" xlink:href="#a" id="G" gradientTransform="scale(.38764 2.57971)" x1="715.36395" y1="243.41656" x2="724.08893" y2="243.15907" gradientUnits="userSpaceOnUse"/><radialGradient inkscape:collect="always" xlink:href="#c" id="o" cx="519.15161" cy="250.77127" fx="519.15161" fy="250.77127" r="40.777546" gradientTransform="scale(1.0716 .93318)" gradientUnits="userSpaceOnUse"/><radialGradient inkscape:collect="always" xlink:href="#c" id="n" cx="634.40979" cy="245.02533" fx="634.40979" fy="245.02533" r="38.168217" gradientTransform="scale(1.02956 .97129)" gradientUnits="userSpaceOnUse"/><radialGradient xlink:href="#e" id="p" cx="401.3288" cy="446.70966" r="2.0997167" fx="401.3288" fy="446.70966" gradientUnits="userSpaceOnUse"/><radialGradient xlink:href="#e" id="q" cx="401.62964" cy="446.96863" r="2.8242588" fx="401.62964" fy="446.96863" gradientUnits="userSpaceOnUse"/><radialGradient xlink:href="#d" id="l" cx="507.42142" cy="129.85117" r="13.927131" fx="507.42142" fy="129.85117" gradientTransform="scale(1.21335 .82416)" gradientUnits="userSpaceOnUse"/><radialGradient xlink:href="#a" id="g" cx="600.68884" cy="557.93353" r="73.134232" fx="600.68884" fy="557.93353" gradientTransform="scale(.83403 1.199)" gradientUnits="userSpaceOnUse"/><radialGradient xlink:href="#a" id="y" cx="101.60466" cy="699.99768" r="134.6862" fx="101.60466" fy="699.99768" gradientTransform="scale(1.03856 .96287)" gradientUnits="userSpaceOnUse"/><radialGradient xlink:href="#c" id="m" cx="363.51596" cy="379.36963" r="66.126518" fx="363.51596" fy="379.36963" gradientTransform="scale(1.64036 .60962)" gradientUnits="userSpaceOnUse"/></defs><sodipodi:namedview showgrid="false" units="px" fit-margin-top="0" fit-margin-left="0" fit-margin-right="0" fit-margin-bottom="0" inkscape:zoom="2.5371827" inkscape:cx="264.91249" inkscape:cy="144.71964" inkscape:window-width="3200" inkscape:window-height="1679" inkscape:window-x="0" inkscape:window-y="0" inkscape:window-maximized="1" inkscape:current-layer="svg602"/><g transform="matrix(.42052 0 0 .42052 -3.466 -104.242)"><path transform="rotate(6.627 491.064 361.147)" d="M492.52 702.165c-1.861 16.07-12.333 28.348-23.39 27.42-11.056-.926-18.51-14.706-16.649-30.777 1.861-16.07 12.333-28.347 23.39-27.42 11.056.926 18.51 14.706 16.65 30.777z" style="font-size:12px;fill:url(#f);fill-rule:evenodd" inkscape:connector-curvature="0"/><path transform="rotate(6.627 491.064 361.147)" sodipodi:nodetypes="ccsscssssc" d="M508.964 678.02c-11.446 26.298-25.01 28.216-26.107 36.947-10.231 9.142-21.353 10.972-27.939 4.517-6.483-5.802-7.23-19.37-3.305-27.088 2.178-5.211 5.248-8.982 8.954-13.7l6.467-31.008c.899-4.307 11.535-12.365 11.563-9.763l.271 25.548c.043 4.075-.7 3.884 2.984 3.739 9.186-1.013 23.88-12.027 27.112 10.808z" style="font-size:12px;fill:url(#g);fill-rule:evenodd" inkscape:connector-curvature="0"/><path sodipodi:nodetypes="ccssccc" d="m411.714 388.442.417 21.505-79.545 44.679c-4.697 2.638 17.926 15.213 39.46 3.966l65.557-34.24-5.011-30.064c-2.227-11.691-17.816-25.053-20.878-5.846z" style="font-size:12px;fill:url(#h);fill-rule:evenodd" inkscape:connector-curvature="0"/><g style="fill:url(#i)"><path sodipodi:nodetypes="ccscss" d="m470.584 342.396 113.894 8.84c15.831 3.949-24.185 14.17-35.87 18.319-14.217 4.498-30.224 12.163-30.976 20.012l-69.929-27.254c-26.662-10.392 3.788-21.4 22.881-19.918z" style="font-size:12px;fill:url(#j);fill-rule:evenodd;stroke-width:1" inkscape:connector-curvature="0"/><path sodipodi:nodetypes="cscscsss" d="M33.91 494.942c-11.625 11.92-2.876 27.044 10.438 33.606l182.565 89.976c-16.103-21.58 21.58-45.744 58.656-69.073 26.654-17.72 76.485-39.628 88.973-47.483-10.592-2.116-33.093 9.16-55.18 6.664l-218.174-24.665c-38.935-4.402-55.417 1.806-67.278 10.975z" style="font-size:12px;fill:url(#k);fill-rule:evenodd;stroke-width:1" inkscape:connector-curvature="0"/></g><g transform="translate(-155.398 -243.002)"><path transform="matrix(.53965 0 0 .53016 377.707 419.95)" sodipodi:nodetypes="csccsss" d="M356.065 411.991c-21.722-.238-34.465 14.715-31.025 53.788 1.247 14.387-72.975 96.598 14.193 107.523l31.927.59c58.82-3.543 47.87-55.822 45.84-61.785-5.984-20.584-25.845-39.978-25.985-51.027-.136-33.735-12.405-49.441-34.95-49.089z" style="font-size:12px;fill-rule:evenodd" inkscape:connector-curvature="0"/><ellipse transform="matrix(.36673 .16742 -.1701 .3343 370.81 505.835)" style="font-size:12px;fill:url(#l);fill-rule:evenodd" cx="615.68225" cy="107.43024" rx="15.650421" ry="10.630493"/><path transform="matrix(.53965 0 0 .53016 241.766 587.717)" sodipodi:nodetypes="cssccscss" d="M643.652 226.244c-10.346 12.627-24.77 22.072-47.986 21.677-23.664-.82-31.12-12.222-29.893-42.205.731-12.755 4.797-23.38 9.398-31.337 2.386-5.968 8.785-8.046 12.724-26.372 6.245 6.209 12.63 8.327 15.172 8.358 4.838.098 16.78-5.678 20.684-10.003 4.548 15.78 9.558 21.12 12.834 24.94 19.952 23.691 9.366 51.627 7.067 54.942z" style="font-size:12px;fill:#f8f7f7;fill-rule:evenodd" inkscape:connector-curvature="0"/><path transform="matrix(.53965 0 0 .53016 241.766 587.717)" sodipodi:nodetypes="cccccccccccccccccccccc" d="M594.852 209.012c0 11.09 2.522 16.536 1.217 16.536-1.304 0-4.48-5.655-4.48-16.745s4.22-23.206 5.524-23.206c1.305 0-2.26 12.325-2.26 23.415zm37.418-39.432c4.176 3.717 7.69 8.095 8.734 13.482-7.159-6.222-19.12-9.103-26.07-10.732 6.115-.209 15.189.173 17.336-2.75zm-36.642 2.58c2.284 2.12 1.644 3.613 2.467 6.359.36-2.608 4.478-4.59 6.717-6.57-2.853.487-6.332.557-9.185.21zm-16.644-3.858c-2.311 2.656-5.194 6.937-7.995 14.49 5.906-6.64 11.7-7.163 18.232-9.835-5.906-.21-8.09-1.732-10.237-4.655zm45.552-22.757c-2.952 8.709-16.53 16.514-23.618 16.514-4.135 0-12.515-6.318-13.992-15.027 5.504 5.424 11.52 9.143 16.157 9.328 5.128.128 16.694-5.79 21.453-10.815z" style="font-size:12px;fill:#cdcdcd;fill-opacity:1;fill-rule:evenodd" inkscape:connector-curvature="0"/></g><path transform="matrix(.53965 0 0 .53016 86.368 344.715)" sodipodi:nodetypes="csccc" d="M566.178 204.005c0 20.593 27.306 21 21.63 28.517-5.168 7.388-37.088-5.987-37.088-26.58 2.088-15.583 4.846-20.437 23.925-49.576 12.895 2.832-8.467 27.045-8.467 47.639z" style="font-size:12px;fill-rule:evenodd" inkscape:connector-curvature="0"/><g style="font-size:12px;fill:url(#m)" transform="matrix(.53965 0 0 .53016 90.246 347.034)"><path transform="translate(-7.188 -4.375)" sodipodi:nodetypes="csssscsss" d="M662.602 249.841c-9.646 4.88-19.578 19.563-32.31 13.52-8.94-4.146-4.629-14.197-5.136-19.83-.488-12.98-1.649-32.4 6.79-32.347 10.209.062 6.08 4.07 13.474 6.16 8.085 1.962 13.319-8.297 19.427-3.735 4.632 6.335-.225 9.713 5.358 15.882 2.963 3.57 7.546 3.493 10.149 6.406 5.42 5.45-12.034 10.757-17.752 13.944z" style="font-size:12px;fill:url(#n);fill-rule:evenodd" inkscape:connector-curvature="0"/><path transform="translate(-7.188 -4.375)" sodipodi:nodetypes="cssssssss" d="M550.89 255.401c11.705 1.252 23.477 12.403 33.713 1.139 7.229-7.815.14-17.149-4.087-21.75-9.782-9.963-15.275-28.363-24.293-28.291-7.635.31-6.16 4.484-11.522 8.735-7.206 5.415-11.712 1.005-16.062 7.917-2.652 3.744-1.88 8.628-.753 13.8.793 4.92-.788 5.998-2.47 7.599-5.483 6.183 15.437 9.482 25.475 10.851z" style="font-size:12px;fill:url(#o);fill-rule:evenodd" inkscape:connector-curvature="0"/></g><path transform="matrix(.53965 0 0 .53016 86.368 344.715)" sodipodi:nodetypes="cscss" d="M649.884 196.25c-.452 24.565-17.893 24.665-13.278 33.111 6.27 11.893 32.913-10.58 32.913-31.174 0-20.176-28.2-47.802-31.27-45.94-19.146 14.241 12.43 23.54 11.635 44.003z" style="font-size:12px;fill-rule:evenodd" inkscape:connector-curvature="0"/><g transform="translate(-155.398 -243.002)"><path transform="matrix(.53965 0 0 .53016 344.72 420.106)" sodipodi:nodetypes="ccccc" d="M409.638 449.186c-4.76.433-9.09 2.449-11.988 4.82-1.772 1.253-4.1-4.202-4.1-8.283 0-5.508 2.317-9.587 8.258-9.587 5.45 0 8.718 6.254 7.83 13.05z" style="font-size:12px;fill:#fff;fill-rule:evenodd" inkscape:connector-curvature="0"/><path transform="matrix(.53965 0 0 .53016 344.72 420.106)" sodipodi:nodetypes="ccccc" d="M416.233 449.481c4.613.517 10.489 2.843 14.018 4.708 1.964 1.252 3.522-4.09 3.522-8.17 0-4.327-2.729-10.179-9.315-10.179-6.927 0-9.21 5.073-8.225 13.641z" style="font-size:12px;fill:#fff;fill-rule:evenodd" inkscape:connector-curvature="0"/><circle transform="matrix(.53965 0 0 .53016 344.402 419.637)" style="font-size:12px;fill:url(#p);fill-rule:evenodd" cx="401.89166" cy="448.78644" r="5.3152466"/><circle transform="matrix(.53965 0 0 .53016 356.832 419.324)" style="font-size:12px;fill:url(#q);fill-rule:evenodd;stroke:url(#radialGradient857)" cx="401.89166" cy="448.78644" r="5.3152466"/><path transform="matrix(.53965 0 0 .53016 344.72 420.106)" sodipodi:nodetypes="ccscs" d="M435.204 458.11c.258 5.931-16.632 14.408-23.073 14.408-5.267 0-17.585-8.165-17.962-13.665-.2-2.64 8.773-9.943 18.36-9.734 7.653 0 22.465 5.133 22.675 8.991z" style="font-size:12px;fill:url(#r);fill-rule:evenodd" inkscape:connector-curvature="0"/><path transform="matrix(.53965 0 0 .53016 344.72 420.106)" sodipodi:nodetypes="csc" d="M395.346 459.685c2.287-.47 5.255 6.976 14.387 7.284 7.809.284 17.701-6.333 23.96-8.633" style="font-size:12px;fill:none;fill-rule:evenodd;stroke:#000;stroke-linecap:round" inkscape:connector-curvature="0"/><path transform="matrix(.53965 0 0 .53016 241.766 587.717)" sodipodi:nodetypes="ccss" d="M608.78 134.08c-.534.329-2.258.904-2.434.852-.369-.08.483-.69.627-1.065.129-.353 2.344-.115 1.808.213z" style="font-size:12px;fill-rule:evenodd" inkscape:connector-curvature="0"/><path transform="matrix(.53965 0 0 .53016 241.766 587.717)" sodipodi:nodetypes="cccc" d="M598.364 133.831c-.005.324.373.93.687.936a8.26 8.26 0 0 1 .895-1.022c.331-.292-1.578-.168-1.582.086z" style="font-size:12px;fill-rule:evenodd" inkscape:connector-curvature="0"/></g><path sodipodi:nodetypes="cscssscscssss" d="M648.578 532.209c-14.312 4.336-41.958 8.209-206.528 37.275-84.392 13.22-331.79 59.163-368.42 43.287-37.523-16.985-.17-55.757-20.283-64.357-17.513-7.489-13.247-29.923-8.073-38.723 9.499-14.741 28.525-24.772 61.583-29.43 59.894-12.152 173.437-23.469 257.85-23.469 8.011 8.279 12.414 19.853 33.079 19.87 88.05-1.577 125.434-8.738 189.354-3.556l72.87-76.731c15.14-15.943 46.117 6.46 44.775 14.174l-16.035 92.153c-2.382 13.69-25.6 26.333-40.172 29.507z" style="font-size:12px;fill:url(#s);fill-rule:evenodd" transform="rotate(-28.503 349.117 521.17)" inkscape:connector-curvature="0"/><path sodipodi:nodetypes="ccccc" d="m348.993 413.423 20.372 12.402 69.685-38.386-27.164-7.382-62.893 33.367z" style="font-size:12px;fill:#e5e9ed;fill-opacity:.77350003;fill-rule:evenodd" inkscape:connector-curvature="0"/><path sodipodi:nodetypes="ccccc" d="m371.436 425.232 4.134 33.069 63.776-38.974-5.315-27.164-62.595 33.069z" style="font-size:12px;fill:#cfdcf1;fill-opacity:.82869999;fill-rule:evenodd" inkscape:connector-curvature="0"/><path sodipodi:nodetypes="ccccccccccccccccccccccc" d="m438.082 421.666-65.823 39.52c-10.04 6.264-40.437 7.4-40.854-3.64l.38-2.136c3.288 7.726 27.751 8.98 40.853 1.881l-3.316-29.53c-6.744 3.725-29.147 12.079-32.132.56l.676-2.92c.276-.841.766 3.29 3.734 4.313 8.965 3.368 23.268-1.73 28.073-4.325l59.376-32.624c2.537-1.37 3.927-2.766 4.303-.433l4.73 29.334zm-30.744 13.908-32.293 20.971-2.887-30.576 30.846-16.647 4.334 26.252zm29.334-17.453-26.324 15.6-4.604-26.13 26.655-14.652 4.273 25.182z" style="font-size:12px;fill:url(#t);fill-rule:evenodd" inkscape:connector-curvature="0"/><path sodipodi:nodetypes="csssssss" d="M119.33 690.126c-3.228-.242-4.194 2.271-3.325 5.853 2.157 10.113 7.716 22.503 11.94 27.132 2.066 2.408 6.258 6.46 8.373 6.198 2.283.605 5.556-1.31 6.02-4.7 2.373-14.291 2.903-29.937 1.294-35.786-.595-2.923-2.903-4.967-5.99-3.678-3.759 1.987-8.384 4.919-18.311 4.98z" style="font-size:12px;fill:url(#u);fill-rule:evenodd" inkscape:connector-curvature="0"/><ellipse transform="matrix(.6777 -.20809 .18628 .6156 -114.695 255.163)" style="fill:#bababa;fill-opacity:.6464;fill-rule:evenodd;stroke:none;stroke-width:1pt;stroke-linecap:butt;stroke-linejoin:miter;stroke-opacity:1" cx="125.26772" cy="702.44763" rx="128.6082" ry="171.19925"/><g style="fill:url(#v)"><path sodipodi:nodetypes="cscscsss" d="M711.096 675.313c-10.83 6.7-32.43 9.972-47.17 8.227L303.43 640.881c-33.17-6.475 9.33-42.155 30.37-58.018 26.864-19.04 22.38-15.921 102.61-60.86 10.427 2.82-16.01 14.955 11.652 24.033l247.153 81.115c37.23 12.219 27.724 38.971 15.88 48.162z" style="font-size:12px;fill:url(#w);fill-rule:evenodd;stroke-width:1" inkscape:connector-curvature="0"/><path sodipodi:nodetypes="ccsssss" d="m659.077 404.819-120.385-6.714c-15.98-3.294 1.504-12.916 11.865-19.728 13.217-8.157 15.68-10.413 54.315-27.538 1.3-.576.42 3.51 1.794 4.031l65.689 24.911c26.756 10.147 5.844 26.104-13.278 25.038z" style="font-size:12px;fill:url(#x);fill-rule:evenodd;stroke-width:1" inkscape:connector-curvature="0"/></g><path sodipodi:nodetypes="cssss" d="M111.59 681.578c-9.778 4.82-48.91 17.258-55.86 7.577-6.755-9.826 15.283-41.125 28.103-52.085 6.781-5.441 19.015 5.399 26.437 16.592 6.114 9.637 8.68 23.666 1.32 27.916z" style="font-size:12px;fill:url(#y);fill-rule:evenodd;stroke-width:1" inkscape:connector-curvature="0"/><path sodipodi:nodetypes="ccccc" d="M372.396 457.463c-12.125 5.72-32.752 7.415-40.832-.865l5.983-29.895c-2.288 10.77 19.018 7.992 31.616.764l3.233 29.996z" style="font-size:12px;fill:#bad1e7;fill-opacity:.71269998;fill-rule:evenodd" inkscape:connector-curvature="0"/><path sodipodi:nodetypes="cccc" d="m606.216 354.707-24.459 14.037 82.868 16.393 7.462-4.862" style="fill:none;fill-opacity:1;fill-rule:evenodd;stroke:#000;stroke-width:.5;stroke-linecap:round;stroke-linejoin:round;stroke-dasharray:none;stroke-opacity:1" inkscape:connector-curvature="0"/><path sodipodi:nodetypes="cccc" d="M377.309 458.315c6.96 1.67 18.305 14.407 21.089 37.793l56.795-39.672c-.279-18.932-5.777-31.182-16.078-35.497" style="fill:none;fill-opacity:1;fill-rule:evenodd;stroke:url(#z);stroke-width:.5;stroke-linecap:round;stroke-linejoin:round;stroke-dasharray:none;stroke-opacity:1" inkscape:connector-curvature="0"/><path sodipodi:nodetypes="cssc" d="M96.967 617.948c12.116-14.705 46.927-5.191 53.633 37.087 2.531 16.842 4.066 42.56 1.238 57.653-1.404 10.894-1.007 21.716-13.098 19.084" style="fill:none;fill-opacity:1;fill-rule:evenodd;stroke:url(#A);stroke-width:.5;stroke-linecap:round;stroke-linejoin:round;stroke-dasharray:none;stroke-opacity:1" inkscape:connector-curvature="0"/><path sodipodi:nodetypes="cccsc" d="M212.647 531.01c15.172-12.599 60.695-.172 61.947 47.263l.86 59.42-52.839 36.77c-23.61 16.429-52.001 33.587-70.49 40.658" style="fill:none;fill-opacity:1;fill-rule:evenodd;stroke:url(#B);stroke-width:.5;stroke-linecap:round;stroke-linejoin:round;stroke-dasharray:none;stroke-opacity:1" inkscape:connector-curvature="0"/><path sodipodi:nodetypes="cc" d="M150.26 651.963c74.66-34.481 293.365-179.246 388.972-254.818" style="fill:none;fill-opacity:1;fill-rule:evenodd;stroke:url(#C);stroke-width:.5;stroke-linecap:round;stroke-linejoin:round;stroke-dasharray:none;stroke-opacity:1" inkscape:connector-curvature="0"/><path sodipodi:nodetypes="cccc" d="m573.383 587.331-26.7 15.133L690.24 640.73l11.673-10.347" style="fill:none;fill-opacity:1;fill-rule:evenodd;stroke:#000;stroke-width:.5;stroke-linecap:round;stroke-linejoin:round;stroke-dasharray:none;stroke-opacity:1" inkscape:connector-curvature="0"/><path sodipodi:nodetypes="cccc" d="m196.892 495.698-29.881 12.61L68.595 490.8l17.106-6.97" style="font-size:12px;fill:none;fill-rule:evenodd;stroke:#000;stroke-width:.5;stroke-linecap:round;stroke-linejoin:round" inkscape:connector-curvature="0"/><path sodipodi:nodetypes="ccssccssc" d="m309.663 469.768-5.349 3.12c6.491 17.264 37.8 15.698 96.667 13.126 22.636-1 57.127-7.32 74.957-13.75 20.166-6.648 50.76-16.019 64.957-22.5l8.384-6.964c-21.71 7.496-53.81 17.467-73.966 24.375-15.744 4.907-50.24 12.838-76.908 14.192-52.295 4.324-84.488-.31-88.742-11.6z" style="font-size:12px;fill:#ce0400;fill-opacity:1;fill-rule:evenodd" inkscape:connector-curvature="0"/><path sodipodi:nodetypes="ccssccssc" d="m305.09 472.577-5.37 3.159c12.943 16.637 40.489 17.792 92.51 14.652 21.782-3.035 50.337-7.508 69.838-10.549 20.826-4.14 56.504-17.344 70.702-23.826l8.384-6.521c-21.71 8.38-62.207 21.886-83.689 27.026-15.961 4.148-45.728 8.96-67.075 9.849-63.41 4.312-77.76-3.379-85.3-13.79z" style="font-size:12px;fill:#f7f4f1;fill-opacity:1;fill-rule:evenodd" inkscape:connector-curvature="0"/><path sodipodi:nodetypes="ccssccssc" d="m299.455 475.747-5.145 3.342c13.871 15.94 31.372 19.086 90.238 16.514 22.636-1 64.721-8.961 85.563-14.192 21.22-5.215 39.711-12.04 53.909-18.523l8.384-6.08c-21.71 7.497-49.39 17.026-69.989 22.166-15.98 4.075-52.227 11.434-79.007 11.65-52.358.64-68.246 1.76-83.953-14.877z" style="font-size:12px;fill:#0019ff;fill-opacity:1;fill-rule:evenodd" inkscape:connector-curvature="0"/><path sodipodi:nodetypes="ccccccccccccccccccccc" d="m436.916 422.328-3.49-23.547c-.446-2.904-.947-5.873-2.616-4.865-11.275 6.264-59.752 32.996-61.175 33.7-28.692 12.47-32.248 3.814-32.029-1.62.192-4.753 6.859-10.615 9.913-12.25l60.65-32.467c47.41-18.703 121.153-27.366 125.1-28.08 4.233-.663 6.009-2.413 6.38-4.5-6.802 14.214 2.179 12.263 43.313 2.145-61.51 25.403-111.549 52.867-146.046 71.484zm-54.192-27.196c5.1-1.624 19.216 5.905 21.83 10.94l25.755-14.667c-3.794-8.338-14.95-12.954-22.436-8.533l-25.149 12.26zm-2.094 1.39-31.301 16.536c6.988-1.87 18.702 4.823 21.851 11.22l31.006-16.83c-5.61-6.595-15.355-11.123-21.556-10.926z" style="font-size:12px;fill:url(#D);fill-rule:evenodd" inkscape:connector-curvature="0"/><path sodipodi:nodetypes="csccccscc" d="M204.594 396.926c2.387-7.963 3.008-10.96 4.36-18.493 1.586-8.947-4.23-18.202-5.943-21.93.043-1.298 1.698-8.886-.397-13.464l-6.187.898c2.534 4.652.679 12.398.679 13.478 1.991 2.53 8.954 11.55 6.891 22.63-1.25 7.44-2.123 9.992-4.42 18.309l5.017-1.428z" style="font-weight:400;font-size:72px;font-family:mdk_teams;fill:#f7f8f8;fill-opacity:1;stroke-width:1" transform="matrix(1.4661 -.48967 .50837 1.40182 0 0)" inkscape:connector-curvature="0"/><text transform="matrix(.10289 -.0622 .02826 .21533 0 0)" xml:space="preserve" sodipodi:linespacing="100%" y="3197.5366" x="974.54529" style="font-style:normal;font-weight:700;font-size:72px;line-height:100%;font-family:'Luxi Sans';writing-mode:lr-tb;text-anchor:start;fill:#f3f3f3;fill-opacity:1;stroke:none;stroke-width:1pt;stroke-linecap:butt;stroke-linejoin:miter;stroke-opacity:1"><tspan style="fill:#f3f3f3;fill-opacity:1" sodipodi:role="line" y="3197.5366" x="974.54529"> CAUDRON RENAULT</tspan></text><path sodipodi:nodetypes="cccccccsccsccccc" d="m475.652 380.436 4.802 7.935 16.078-7.726-2.323 11.328c1.035.782 1.235 9.5-.026 14.46 2.149 2.035 3.462 3.027 4.567 5.48l4.849-3.067c5.75-3.956 12.112-2.055 15.474 5.123 5.175 11.26 3.878 19.257-11.253 28.977l.046 8.21c16.712-11.161 26.291-22.221 18.502-41.024-1.272-3.035-8.442-15.926-23.885-10.277.478-5.255.33-10.51-.653-11.171l3.524-12.424-9.24-4.593-20.462 8.77z" style="font-size:12px;fill:#f3f3f3;fill-opacity:1;fill-rule:evenodd" inkscape:connector-curvature="0"/><path d="M572.083 306.539c-.164-.21-1.214-1.21-1.86-.744-.936.596-1.226 3.61.728 3.868l.165-.746c-1.13.586-1.47-.961-.932-2.294.385-.875 1.251-.58 1.806.78l.093-.864zm16.73-4.342c.02.176.037.332.057.446.14.811.517 1.215.926.977.288-.168.645-.647.883-1.16.437-.961.605-2.12.442-3.063-.12-.699-.212-.812-.846-1.17-.388-.23-.58-.513-.665-1.004-.111-.642.06-1.366.376-1.55.214-.124.408-.009.703.4.208-.807.208-.807.267-1.236-.264-.345-.473-.43-.733-.279-.678.396-1.267 2.548-1.052 3.794.101.585.328.951.77 1.255.578.39.673.522.754.994.118.68-.172 1.722-.535 1.933-.204.12-.401-.015-.566-.376-.114-.245-.181-.518-.302-1.154-.076.21-.134.348-.161.426-.058.138-.125.281-.19.443l-.127.324zm-2.94 3.046-.218-4.757c.903-2.169.927-2.204 1.057-2.28.065-.037.119.035.145.186.049.284.099 1.044.202 3.354.086 1.8.104 2.142.166 2.5a2.2 2.2 0 0 0 .286.769c.36-.646.86-1.832 1.34-3.193l-.026-.566c-.743 1.618-.774 1.677-.867 1.731-.092.055-.184-.12-.236-.423-.069-.396-.112-1.057-.16-2.463-.112-3.426-.112-3.426-.135-3.558-.036-.208-.12-.283-.241-.213-.14.081-.315.37-.574 1l-.995 2.347c-.024-.672-.09-1.943-.117-2.094-.022-.132-.098-.213-.163-.175-.102.06-.65 1.149-1.194 2.38l.03.524c.5-.895.533-.935.617-.984.065-.038.13.048.157.2.068.396.163 2.066.228 3.92l.05 1.653c.005.143.02.529.047 1.095l.602-.953zm-3.513-5.121c.372-.217.731.384.927 1.517.137.793.177 1.85.105 2.91-.074 1.228-.307 2.009-.66 2.215-.381.222-.743-.336-.93-1.412-.378-2.19-.092-4.851.558-5.23zm.33-1.17c-.372.217-.871 1.112-1.276 2.262-.438 1.253-.516 3.46-.193 5.33.2 1.15.642 1.703 1.135 1.416.26-.152.487-.492.836-1.195.373-.8.598-1.45.687-2 .195-1.237.172-3.26-.053-4.563-.176-1.02-.644-1.537-1.136-1.25zm-1.712 7.13c-.716 1.478-.731 1.508-.852 1.578-.102.06-.203-.11-.259-.43a8.797 8.797 0 0 1-.082-1.013c-.212-4.24-.25-5.05-.276-5.2-.02-.114-.08-.163-.144-.125-.158.092-.599 1.035-1.18 2.518l.072.54c.444-.925.484-.99.567-1.038.075-.044.131.048.17.275.043.245.06.526.108 1.683.134 3.559.134 3.559.216 4.03.078.454.223.702.353.626.158-.092.367-.484.748-1.413.137-.33.275-.66.409-1.008.067-.143.13-.305.204-.472l-.054-.55zm-1.875-6.762c.184-.648.197-.697.427-1.372a4.468 4.468 0 0 0-.195-.364c-.095-.194-.108-.207-.244-.522a3.711 3.711 0 0 1-.098-.213c-.034.102-.076.21-.095.283-.024.097-.078.254-.145.46a7.19 7.19 0 0 1-.146.396c-.027.078-.055.157-.085.216.136.378.272.631.581 1.116zm-4.458 8.4c-.002-.311-.002-.603-.009-.702-.001-1.309.044-1.46.549-1.734.368-.235.467-.314.674-.538-.327 1.541-.416 2.03-.471 2.54-.113 1.063-.085 2.231.075 3.156.15.869.437 1.284.743 1.105.734-.428 1.43-2.559 1.685-5.16.147-1.458.136-3.114-.024-4.04-.075-.434-.189-.679-.417-.878-.2.262-.296.422-.535.873.2.444.29.725.374 1.216a14.2 14.2 0 0 1 .115 3.736c-.147 1.458-.501 2.662-.845 2.862-.204.12-.456-.274-.567-.916-.15-.868-.181-1.993-.088-3.108.072-.769.163-1.363.424-2.637a.862.862 0 0 0-.014-.137c-.01-.057-.013-.076-.054-.197l-.093.054c-.06.305-.152.421-.45.595l-.222.13c-.586.279-.68.333-.753.377-.177.103-.26.213-.29.397-.068.372-.08 1.252-.034 2.7l.227.305zm-3.435 1.247.917-5.286.445 4.998-1.362.289zm.708-5.929-.916 5.435c-.214 1.247-.575 3.058-.735 3.67-.245.954-.41 1.775-.837 2.024-.787.568-1.53-1.443-.637-1.907l-.296-.29c-1.15-.087-.584 3.711.83 3.32.58-.158 1.119-1.923 1.852-5.489.712-.451 1.077-.39 1.484-.24.02.238.041.475.07.707.025.256.059.631.1 1.044.043.37.077.744.078.807.027.337.201 1.673.977 1.023.75-.626 1.005-1.46.986-2.736-.215-.034-.481.359-.382.698-.13.356-.233.778-.373.86-.362.21-.583-.05-.697-.71-.206-1.19-.605-6.895-.827-10.008l-.155.135c-.16.14-.251-.157-.266-.065-.097.389-.204 1.33-.256 1.722zm37.073 10.84c-1.352 2.393-47.02 28.632-48.24 29.344-1.379.803-2.49-.077-2.87-2.275-.833-4.813.68-12.387 3.26-13.892 1.046-.61 3.892-.619-.402 4.785l.194 2.183c5.805-6.385 2.2-9.327.944-8.595-1.517.885-3.074 3.093-4.256 6.024-1.303 3.231-1.542 8.177-1.022 11.185.412 2.384 1.654 3.239 3.328 2.262 1.5-.875 47.823-27.877 49.062-30.256l.002-.766zm-36.655 17.193c-1.108 1.92-1.333 2.28-1.508 2.382-.122.071-.241-.063-.289-.34-.104-.602-.126-3.392-.03-6.835.132-.46.154-.55.361-1.128a8.384 8.384 0 0 0-2.257.934c-.715.417-1.03.703-1.42 1.338-.543.852-1.151 1.996-1.322 2.453-.477 1.348-.67 4.899-.345 6.773.192 1.11.599 1.689 1.035 1.434.383-.223.879-1.022 2.698-4.376.01 1.166.047 1.934.095 2.212.052.3.189.425.363.323.21-.122.21-.122 1.4-2.116.43-.734.767-1.338 1.317-2.373l-.098-.681zm-3.376 2.122c-.857 1.595-1.312 2.294-1.626 2.477-.28.163-.526-.152-.654-.893-.2-1.157-.193-2.893.015-4.466.199-1.517.498-2.227 1.091-2.572.314-.184.874-.383 1.534-.564-.044 1.962-.074 2.565-.072 2.691-.005.64.008 1.269.008 1.932.003.126-.002.434-.017.901l-.28.494zm2.87-6.158c.648-.913.948-1.291 1.157-1.413.14-.082.276.042.32.297.052.3.05 1.398.008 3.154-.064 2.406-.056 3.115.06 3.786.112.648.405 1.012.684.85.261-.153.54-.544 1.28-1.817l1.527-2.598c-.011.822.028 1.716.1 2.133.052.3.232.45.406.349.349-.204 1.781-2.466 2.763-4.338l.002-.765c-1.176 1.858-1.573 2.446-1.765 2.558-.122.071-.224-.073-.288-.443-.204-1.18-.155-5.005.087-8.38-.2.293-.336.5-.398.588-.185.26-.37.521-.573.793-.048.053-.14.184-.309.434-.012.594-.041 2.648-.064 6.177-1.13 2.01-1.661 2.829-1.87 2.95-.192.113-.388-.13-.464-.57-.092-.532-.112-1.539-.072-3.193.032-1.037.042-1.756.038-2.11.01-.949.027-1.621.034-1.804a3.786 3.786 0 0 0-.02-.675c-.033-.185-.14-.25-.262-.18-.175.103-1.291 1.748-2.367 3.521l-.014.696zm15.934-4.99c-.195.318-.341.582-.416.702-.807 1.439-1.232 2.094-1.389 2.185-.139.082-.288-.112-.348-.459-.132-.764-.115-9.995.002-11.643.144-1.612.435-2.368 1.063-2.734.227-.132.41-.188.834-.283l.386-1.652a2.454 2.454 0 0 0-.574.233c-.418.244-.629.469-.978 1.004-.38.578-.869 1.525-1.253 2.412-.666 1.586-.69 1.778-.732 4.426-.002.103-.002.434-.011.822-.33.09-.6.197-.739.278-.54.316-1.824 2.44-2.346 3.865-.436 1.248-.657 4.969-.38 6.565.151.88.656 1.579.97 1.396.331-.194.99-1.266 2.517-4.093.013.63.077 1.331.149 1.748.08.463.263.636.507.493.28-.162 1.584-2.274 2.792-4.506l-.055-.758zm-3.402 2.087c-1.242 2.253-1.574 2.777-1.818 2.92-.244.142-.426-.134-.542-.805-.132-.763-.18-1.704-.146-2.844.101-2.632.581-4.186 1.47-4.704.314-.183.57-.154 1.015.095l.021 5.338zm4.541.84 1.227-1.454.167-7.357c.493-.925.854-1.39 1.325-1.665.384-.223.643-.17 1.048.179l.143-2.504c-.355.055-.502.09-.677.191-.314.183-.644.605-1.039 1.32l-.856 1.595c-.015-.196 0-.332-.012-.401.007-.845 0-.994-.02-1.11-.023-.139-.148-.193-.27-.122-.226.132-1.589 2.022-2.505 3.499l.056.655c.83-1.197.926-1.304 1.136-1.426.226-.132.359-.031.415.292.056.324.07 1.514.032 2.63l-.17 5.679zm8.238-15.529c-.698.407-1.698 1.729-2.55 3.347-.924 1.762-1.293 4.626-.897 6.917.244 1.412.993 1.968 1.917 1.43.489-.286.937-.802 1.643-1.825.76-1.157 1.235-2.071 1.453-2.81.481-1.656.647-4.249.371-5.846-.216-1.25-1.013-1.752-1.937-1.213zm-.719 1.616c.697-.406 1.29.242 1.53 1.63.168.972.132 2.318-.108 3.706-.26 1.604-.764 2.687-1.427 3.074-.715.417-1.316-.175-1.544-1.494-.464-2.684.328-6.204 1.55-6.916zm5.862 5.37.088-6.038c1.864-3.1 1.912-3.154 2.156-3.296.122-.071.212.004.244.189.06.347.073 1.308.023 4.24-.027 2.284-.029 2.718.047 3.157.056.324.178.585.442.89.718-.955 1.749-2.651 2.761-4.567l.01-.719c-1.515 2.336-1.577 2.423-1.752 2.525-.174.102-.323-.092-.387-.462-.084-.486-.093-1.32-.038-3.11.147-4.366.147-4.366.12-4.528-.045-.255-.19-.322-.418-.19-.261.152-.609.584-1.145 1.483l-2.048 3.36c.025-.855.034-2.465.002-2.65-.028-.162-.157-.24-.279-.169-.192.112-1.3 1.7-2.414 3.471v.663c1-1.322 1.066-1.386 1.223-1.477.122-.072.233.016.265.201.084.486.085 2.6.013 4.96l-.077 2.109c-.007.182-.018.672-.028 1.392l1.191-1.434z" style="font-style:italic;font-weight:400;font-size:72px;font-family:'URW Chancery L';fill:#f3f3f3;fill-opacity:1" inkscape:connector-curvature="0"/><text transform="matrix(.10383 -.0498 -.03092 .17684 0 0)" xml:space="preserve" sodipodi:linespacing="100%" y="3449.6204" x="6558.4023" style="font-style:normal;font-weight:700;font-size:72px;line-height:100%;font-family:'URW Palladio L';writing-mode:lr-tb;text-anchor:start;fill:#f3f3f3;fill-opacity:1;stroke:none;stroke-width:1pt;stroke-linecap:butt;stroke-linejoin:miter;stroke-opacity:1"><tspan style="fill:#f3f3f3;fill-opacity:1" sodipodi:role="line" y="3449.6204" x="6558.4023">C.450</tspan></text><path sodipodi:nodetypes="cccc" d="m608.042 253.366-19.818 8.302 12.647 87.73 33.553-17.411" style="fill:none;fill-opacity:1;fill-rule:evenodd;stroke:#000;stroke-width:.5;stroke-linecap:round;stroke-linejoin:round;stroke-dasharray:none;stroke-opacity:1" inkscape:connector-curvature="0"/><g style="fill:url(#E)"><path sodipodi:nodetypes="cscsc" d="M278.23 590.721c.165 4.665-.398 8.688-1.511 9.378-1.07.385-.243-3.778-.408-8.442-.165-4.665-1.157-7.852-.19-8.45 1.329-.699 1.943 2.85 2.109 7.514z" style="font-size:12px;fill:url(#F);fill-rule:evenodd;stroke-width:1" inkscape:connector-curvature="0"/><path sodipodi:nodetypes="cscsc" d="M279.53 626.912c.165 4.665-.398 8.688-1.51 9.378-1.07.385-.243-3.777-.409-8.442-.165-4.665-1.157-7.852-.19-8.45 1.33-.699 1.944 2.85 2.109 7.514z" style="font-size:12px;fill:url(#G);fill-rule:evenodd;stroke-width:1" inkscape:connector-curvature="0"/><path sodipodi:nodetypes="cscsc" d="M290.149 582.92c.165 4.664-.398 8.688-1.51 9.378-1.07.384-.243-3.778-.409-8.443-.165-4.665-1.157-7.851-.19-8.45 1.33-.698 1.944 2.85 2.109 7.514z" style="font-size:12px;fill:url(#H);fill-rule:evenodd;stroke-width:1" inkscape:connector-curvature="0"/><path sodipodi:nodetypes="cscsc" d="M287.332 584.653c.165 4.665-.398 8.688-1.511 9.378-1.07.385-.242-3.778-.408-8.442-.165-4.665-1.157-7.852-.19-8.45 1.33-.699 1.943 2.85 2.109 7.514z" style="font-size:12px;fill:url(#I);fill-rule:evenodd;stroke-width:1" inkscape:connector-curvature="0"/><path sodipodi:nodetypes="cscsc" d="M284.298 586.603c.165 4.665-.398 8.689-1.511 9.379-1.07.384-.242-3.778-.408-8.443-.165-4.665-1.157-7.851-.19-8.45 1.329-.698 1.943 2.85 2.109 7.514z" style="font-size:12px;fill:url(#J);fill-rule:evenodd;stroke-width:1" inkscape:connector-curvature="0"/><path sodipodi:nodetypes="cscsc" d="M281.264 588.554c.165 4.665-.398 8.688-1.511 9.378-1.07.385-.242-3.778-.408-8.443-.165-4.664-1.157-7.851-.19-8.45 1.33-.698 1.943 2.85 2.109 7.515z" style="font-size:12px;fill:url(#K);fill-rule:evenodd;stroke-width:1" inkscape:connector-curvature="0"/><path sodipodi:nodetypes="cscsc" d="M291.666 619.977c.165 4.665-.398 8.689-1.51 9.379-1.07.384-.243-3.778-.409-8.443-.165-4.665-1.157-7.851-.19-8.45 1.33-.698 1.944 2.85 2.109 7.514z" style="font-size:12px;fill:url(#L);fill-rule:evenodd;stroke-width:1" inkscape:connector-curvature="0"/><path sodipodi:nodetypes="cscsc" d="M288.632 621.494c.165 4.665-.398 8.689-1.51 9.379-1.07.384-.243-3.778-.409-8.443-.165-4.665-1.157-7.851-.19-8.45 1.33-.698 1.944 2.85 2.109 7.514z" style="font-size:12px;fill:url(#M);fill-rule:evenodd;stroke-width:1" inkscape:connector-curvature="0"/><path sodipodi:nodetypes="cscsc" d="M285.598 623.662c.165 4.664-.398 8.688-1.51 9.378-1.07.385-.243-3.778-.409-8.443-.165-4.665-1.157-7.851-.19-8.45 1.33-.698 1.944 2.85 2.109 7.515z" style="font-size:12px;fill:url(#N);fill-rule:evenodd;stroke-width:1" inkscape:connector-curvature="0"/><path sodipodi:nodetypes="cscsc" d="M282.78 625.395c.166 4.665-.397 8.688-1.51 9.378-1.07.385-.242-3.777-.408-8.442-.165-4.665-1.157-7.852-.19-8.45 1.329-.698 1.943 2.85 2.109 7.514z" style="font-size:12px;fill:url(#O);fill-rule:evenodd;stroke-width:1" inkscape:connector-curvature="0"/></g></g></svg>