<svg xmlns:dc="http://purl.org/dc/elements/1.1/" xmlns:cc="http://creativecommons.org/ns#" xmlns:rdf="http://www.w3.org/1999/02/22-rdf-syntax-ns#" xmlns="http://www.w3.org/2000/svg" width="800" height="640" viewBox="0 0 800 640.00003" version="1.1" id="svg1038"><metadata id="metadata1035"><rdf:RDF><cc:Work><dc:format>image/svg+xml</dc:format><dc:type rdf:resource="http://purl.org/dc/dcmitype/StillImage"/><dc:title/><dc:date>2023</dc:date><dc:creator><cc:Agent><dc:title>Timothée Giet</dc:title></cc:Agent></dc:creator><cc:license rdf:resource="http://creativecommons.org/licenses/by-sa/4.0/"/></cc:Work><cc:License rdf:about="http://creativecommons.org/licenses/by-sa/4.0/"><cc:permits rdf:resource="http://creativecommons.org/ns#Reproduction"/><cc:permits rdf:resource="http://creativecommons.org/ns#Distribution"/><cc:requires rdf:resource="http://creativecommons.org/ns#Notice"/><cc:requires rdf:resource="http://creativecommons.org/ns#Attribution"/><cc:permits rdf:resource="http://creativecommons.org/ns#DerivativeWorks"/><cc:requires rdf:resource="http://creativecommons.org/ns#ShareAlike"/></cc:License></rdf:RDF></metadata><g id="layer2"><path id="path2211" style="color:#000;font-style:normal;font-variant:normal;font-weight:400;font-stretch:normal;font-size:medium;line-height:normal;font-family:sans-serif;font-variant-ligatures:normal;font-variant-position:normal;font-variant-caps:normal;font-variant-numeric:normal;font-variant-alternates:normal;font-variant-east-asian:normal;font-feature-settings:normal;font-variation-settings:normal;text-indent:0;text-align:start;text-decoration:none;text-decoration-line:none;text-decoration-style:solid;text-decoration-color:#000;letter-spacing:normal;word-spacing:normal;text-transform:none;writing-mode:lr-tb;direction:ltr;text-orientation:mixed;dominant-baseline:auto;baseline-shift:baseline;text-anchor:start;white-space:normal;shape-padding:0;shape-margin:0;inline-size:0;clip-rule:nonzero;display:inline;overflow:visible;visibility:visible;opacity:1;isolation:auto;mix-blend-mode:normal;color-interpolation:sRGB;color-interpolation-filters:linearRGB;solid-color:#000;solid-opacity:1;vector-effect:none;fill:#ac8c2d;fill-opacity:1;fill-rule:nonzero;stroke:#4d3f16;stroke-width:2;stroke-linecap:round;stroke-linejoin:round;stroke-miterlimit:4;stroke-dasharray:none;stroke-dashoffset:0;stroke-opacity:1;color-rendering:auto;image-rendering:auto;shape-rendering:auto;text-rendering:auto;enable-background:accumulate;stop-color:#000;stop-opacity:1" d="M661.698 298.724a2.479 2.48 0 0 0-2.44 2.21l-8.068 74.072a2.479 2.48 0 0 0-.935 3.16l3.06 6.522 10.491 68.47a2.479 2.48 0 0 0 2.825 2.074 2.479 2.48 0 0 0 2.074-2.825l-7.942-51.851 22.333 47.583a2.479 2.48 0 0 0 3.297 1.19 2.479 2.48 0 0 0 1.191-3.297l-24.887-53.025 36.422 44.958a2.479 2.48 0 0 0 3.485.364 2.479 2.48 0 0 0 .366-3.487l-32.1-39.62 40.112 32.57a2.479 2.48 0 0 0 3.486-.36 2.479 2.48 0 0 0-.36-3.49l-44.122-35.826 51.18 28.067a2.479 2.48 0 0 0 3.365-.98 2.479 2.48 0 0 0-.98-3.365l-50.987-27.963 55.617 13.654a2.479 2.48 0 0 0 2.997-1.815 2.479 2.48 0 0 0-1.816-3l-58.047-14.25 59.81-7.542a2.479 2.48 0 0 0 2.147-2.77 2.479 2.48 0 0 0-2.561-2.166 2.479 2.48 0 0 0-.209.019l-56.459 7.115 56.106-18.351a2.479 2.48 0 0 0 1.586-3.128 2.479 2.48 0 0 0-2.341-1.707 2.479 2.48 0 0 0-.787.121l-59.594 19.494 53.245-33.589a2.479 2.48 0 0 0 .774-3.419 2.479 2.48 0 0 0-3.42-.774l-51.032 32.195 41.511-42.293a2.479 2.48 0 0 0-.031-3.506 2.479 2.48 0 0 0-3.505.034l-42.383 43.179 23.141-54.166a2.479 2.48 0 0 0-1.307-3.254 2.479 2.48 0 0 0-1.005-.2 2.479 2.48 0 0 0-2.248 1.505L657.28 364.89l6.906-63.417a2.479 2.48 0 0 0-2.195-2.733 2.479 2.48 0 0 0-.293-.015z"/><path id="path2147" style="fill:#34353c;fill-opacity:1;stroke:#171717;stroke-width:3.00002;stroke-linecap:round;stroke-linejoin:round;stroke-miterlimit:4;stroke-dasharray:none;stroke-opacity:1" d="M656.532 266.067a110.944 107.637 3.865 0 0-109.658 92.641 110.944 107.637 3.865 0 0 94.885 121.611 110.944 107.637 3.865 0 0 124.93-91.588 110.944 107.637 3.865 0 0-94.887-121.613 110.944 107.637 3.865 0 0-15.27-1.05zm2.246 26.663a82.584 80.469 85.489 0 1 11.237.806 82.584 80.469 85.489 0 1 68.841 93.28 82.584 80.469 85.489 0 1-90.639 70.249 82.584 80.469 85.489 0 1-68.841-93.278 82.584 80.469 85.489 0 1 79.402-71.057z"/><path id="path2147-0-6" style="fill:#ac8c2d;fill-opacity:1;stroke:#4d3f16;stroke-width:3;stroke-linecap:round;stroke-linejoin:round;stroke-miterlimit:4;stroke-dasharray:none;stroke-opacity:1" d="M658.778 292.73a82.584 80.469 85.489 0 0-79.402 71.057 82.584 80.469 85.489 0 0 68.841 93.278 82.584 80.469 85.489 0 0 90.64-70.249 82.584 80.469 85.489 0 0-68.842-93.28 82.584 80.469 85.489 0 0-11.237-.806zm.228 12.885a69.696 67.904 85.507 0 1 9.307.683 69.696 67.904 85.507 0 1 58.091 78.72 69.696 67.904 85.507 0 1-76.485 59.288 69.696 67.904 85.507 0 1-58.094-78.722 69.696 67.904 85.507 0 1 67.18-59.97z"/><path style="fill:#272727;fill-opacity:1;stroke:#191919;stroke-width:3;stroke-linecap:round;stroke-linejoin:round;stroke-miterlimit:4;stroke-dasharray:none;stroke-opacity:1" d="m488.128 385.337-9.843 31.393 78.291 36.363.93 31.625 15.68 10.652 30.06-40.508-12.74-21.038-2.184-37.283z" id="path2141"/><ellipse style="fill:#27282d;fill-opacity:1;stroke:#171717;stroke-width:3.00002;stroke-linecap:round;stroke-linejoin:round;stroke-miterlimit:4;stroke-dasharray:none;stroke-opacity:1" id="path1902" cx="360.73093" cy="300.0903" rx="89.573647" ry="96.524826"/><ellipse style="fill:#4d3f16;fill-opacity:1;stroke:none;stroke-width:3.00002;stroke-linecap:round;stroke-linejoin:round;stroke-miterlimit:4;stroke-dasharray:none;stroke-opacity:1" id="path1902-3" cx="360.73093" cy="300.0903" rx="69.537743" ry="74.96563"/><path style="fill:#272727;fill-opacity:1;stroke:#191919;stroke-width:3;stroke-linecap:round;stroke-linejoin:round;stroke-miterlimit:4;stroke-dasharray:none;stroke-opacity:1" d="m368.728 182.68 37.765 12.736 37.473 58.848-68.514-12.624z" id="path2145"/><path style="fill:#debc55;fill-opacity:1;stroke:#4d3f16;stroke-width:3;stroke-linecap:round;stroke-linejoin:round;stroke-miterlimit:4;stroke-dasharray:none;stroke-opacity:1" d="M378.97 190.132c17.89 15.387 37.777 34.905 47.54 60.231 17.652 4.43 23.205 3.787 25.094 3.338-6.938-18.742-29.856-66.568-60.663-79.234-30.244-12.54-17.72-3.152-17.72-3.152z" id="path2143"/><path style="fill:#757575;fill-opacity:1;stroke:#191919;stroke-width:3;stroke-linecap:round;stroke-linejoin:round;stroke-miterlimit:4;stroke-dasharray:none;stroke-opacity:1" d="m236.156 306.921 192.565 47.57 84.634-95.294-140.73-25.273z" id="path1900"/><path style="fill:#272727;fill-opacity:1;stroke:#191919;stroke-width:3;stroke-linecap:round;stroke-linejoin:round;stroke-miterlimit:4;stroke-dasharray:none;stroke-opacity:1" d="m272.477 335.862 182.597 42.34 117.253-111.01s1.174-92.085 1.48-104.438c.082-3.288-4.437-11.265-19.653-2.559-15.215 8.707-69.778 31.576-76.87 35.118-7.09 3.541-13.786 10.356-15.634 40.284-2.128 34.467-2.17 74.827-13.548 84.758-11.377 9.93-29.624 14.176-42.025 12.584-12.402-1.592-125.97-29.684-125.97-29.684z" id="path1898"/><path style="fill:#272727;fill-opacity:1;stroke:#191919;stroke-width:3;stroke-linecap:round;stroke-linejoin:round;stroke-miterlimit:4;stroke-dasharray:none;stroke-opacity:1" d="m629.716 209.216-.933 15.794 15.405 1.284 4.993 104.52s6.826 28.158 11.098 36.19c4.272 8.032 17.27 43.108 9.036 56.069-8.233 12.96-76.364-36.453-76.364-36.453l-107.567 2.626-42.024-14.056 28.215-28.466 5.904-129.336 87.198-36.46-.05 20.476z" id="path1828"/><ellipse style="fill:#272727;fill-opacity:1;stroke:#191919;stroke-width:3;stroke-linecap:round;stroke-linejoin:round;stroke-miterlimit:4;stroke-dasharray:none;stroke-opacity:1" id="path1685-5" cx="623.95587" cy="125.48141" rx="12.991238" ry="4.2247024" transform="rotate(6.408) skewX(.019)"/><path style="fill:#272727;fill-opacity:1;stroke:#191919;stroke-width:3;stroke-linecap:round;stroke-linejoin:round;stroke-miterlimit:4;stroke-dasharray:none;stroke-opacity:1" d="M629.659 152.988c-9.265-1.265-46.066-12.06-47.943 11.925-1.876 23.984 8.784 25.445 42.91 30.119 34.126 4.673 11.077-41.426 5.033-42.044z" id="path1683-9"/><path style="fill:#272727;fill-opacity:1;stroke:#191919;stroke-width:3;stroke-linecap:round;stroke-linejoin:round;stroke-miterlimit:4;stroke-dasharray:none;stroke-opacity:1" d="m599.107 140.216-5.494 12.805c-.022 5.831 29.584 7.705 30.217 2.104-2.799-6.912-4.94-14.894-4.94-14.894z" id="path1675-2"/><path style="fill:#a7a7a7;fill-opacity:1;stroke:#191919;stroke-width:3;stroke-linecap:round;stroke-linejoin:round;stroke-miterlimit:4;stroke-dasharray:none;stroke-opacity:1" d="M588.03 138.533c.303-5.254 13.934-14.064 22.813-14.284 6.761-.168 18.15 9.373 21.373 16.366 0 0-9.755 5.742-23.608 4.605-13.854-1.137-20.578-6.687-20.578-6.687z" id="path1673-2"/><path style="fill:#b4b4b4;fill-opacity:1;stroke:#212121;stroke-width:3;stroke-linecap:round;stroke-linejoin:round;stroke-miterlimit:4;stroke-dasharray:none;stroke-opacity:1" d="M633.054 204.109c-4.288-6.487-5.752-7.98-8.156-8.762-6.539-2.127 1.271-41.7 6.003-41.255 4.731.446 10.298-3.056 11.718-4.352 1.42-1.296-6.441 47.805-9.565 54.369z" id="path1681-8"/><ellipse style="fill:#9a9a9a;fill-opacity:1;stroke:#212121;stroke-width:3;stroke-linecap:round;stroke-linejoin:round;stroke-miterlimit:4;stroke-dasharray:none;stroke-opacity:1" id="path1677-9" cx="661.92981" cy="56.119785" rx="6.9496632" ry="28.512411" transform="rotate(10.543) skewX(.03)"/><path style="fill:none;fill-opacity:1;stroke:#191919;stroke-width:12;stroke-linecap:round;stroke-linejoin:round;stroke-miterlimit:4;stroke-dasharray:none;stroke-opacity:1" d="m189.273 377.415 44.317-27.32s-29.792 2.375-39.013-.946c-9.222-3.32-74.346-33.706-80.75-41.743-6.404-8.038 69.032-8.345 69.032-8.345" id="path1473"/><path style="fill:#a7882b;fill-opacity:1;stroke:#4d3f16;stroke-width:3;stroke-linecap:round;stroke-linejoin:round;stroke-miterlimit:4;stroke-dasharray:none;stroke-opacity:1" d="M32.415 242.785c1.753 3.797 43.411-7.664 47.922-9.59 4.512-1.927 36.089-10.317 28.676-10.382-7.413-.065-54.942 8.423-76.598 19.972z" id="path1433"/><path style="fill:#272727;fill-opacity:1;stroke:#191919;stroke-width:3;stroke-linecap:round;stroke-linejoin:round;stroke-miterlimit:4;stroke-dasharray:none;stroke-opacity:1" d="m103.202 188.92 23.917 105.328 138.522 13.094-55.18-112.147z" id="path1327"/><path id="rect993-6-7-5-3-5-6-2-9-1-2-7-0-9-3-6-0" style="fill:#8d5520;fill-opacity:1;stroke:#452910;stroke-width:3;stroke-linecap:round;stroke-linejoin:round;stroke-miterlimit:4;stroke-dasharray:none;stroke-opacity:1" d="M294.126 86.4a3.834 3.834 0 0 0-3.55 4.115l4.448 60.277a3.836 3.836 0 0 0 4.117 3.55 3.834 3.834 0 0 0 3.549-4.117l-4.447-60.276a3.836 3.836 0 0 0-4.117-3.55zm-24.268.024a3.87 3.87 0 0 0-.779.041 3.837 3.837 0 0 0-3.212 4.387l9.225 59.73a3.837 3.837 0 0 0 4.386 3.212 3.833 3.833 0 0 0 3.21-4.384l-9.225-59.732a3.833 3.833 0 0 0-3.605-3.254zm-22.633 2.264a3.836 3.836 0 0 0-3.72 4.658l12.778 59.07a3.835 3.835 0 0 0 4.568 2.947 3.836 3.836 0 0 0 2.944-4.571l-12.777-59.073a3.833 3.833 0 0 0-3.793-3.031zm68.621 1.97a3.836 3.836 0 0 0-3.551 4.116l4.45 60.277a3.833 3.833 0 0 0 4.114 3.549 3.836 3.836 0 0 0 3.551-4.116l-4.449-60.276a3.833 3.833 0 0 0-4.115-3.55zm-87.24 1.884a3.89 3.89 0 0 0-.768.143 3.835 3.835 0 0 0-2.616 4.764l16.905 58.028a3.833 3.833 0 0 0 4.764 2.614 3.834 3.834 0 0 0 2.615-4.764l-16.904-58.028a3.833 3.833 0 0 0-3.996-2.757zm107.673.721a3.834 3.834 0 0 0-3.626 4.048l3.306 60.35a3.836 3.836 0 0 0 4.048 3.629 3.836 3.836 0 0 0 3.626-4.05l-3.307-60.348a3.836 3.836 0 0 0-4.047-3.629zm-126.407.177a3.837 3.837 0 0 0-3.382 4.907l16.904 58.028a3.836 3.836 0 0 0 4.766 2.615 3.837 3.837 0 0 0 2.615-4.767L213.87 96.198a3.836 3.836 0 0 0-3.999-2.758zm147.687.564a3.834 3.834 0 0 0-3.563 4.104l4.248 60.29a3.836 3.836 0 0 0 4.105 3.565 3.836 3.836 0 0 0 3.564-4.106l-4.251-60.29a3.834 3.834 0 0 0-4.103-3.563zm-166.321.705a3.89 3.89 0 0 0-.767.143 3.837 3.837 0 0 0-2.615 4.767l16.904 58.025a3.837 3.837 0 0 0 4.766 2.617 3.837 3.837 0 0 0 2.614-4.767l-16.903-58.028a3.836 3.836 0 0 0-4-2.757zm-20.263 4.178a3.89 3.89 0 0 0-.768.143 3.834 3.834 0 0 0-2.614 4.765l16.903 58.027a3.836 3.836 0 0 0 4.767 2.615 3.837 3.837 0 0 0 2.614-4.767l-16.903-58.025a3.836 3.836 0 0 0-4-2.758zm-20.25 4.007a3.89 3.89 0 0 0-.767.143 3.834 3.834 0 0 0-2.614 4.765l16.904 58.027a3.833 3.833 0 0 0 4.763 2.615 3.835 3.835 0 0 0 2.617-4.765l-16.906-58.027a3.833 3.833 0 0 0-3.996-2.758zm-21.662 1.177a3.891 3.891 0 0 0-.767.143 3.837 3.837 0 0 0-2.614 4.767l16.906 58.025a3.835 3.835 0 0 0 4.763 2.617 3.837 3.837 0 0 0 2.615-4.767l-16.904-58.028a3.836 3.836 0 0 0-3.999-2.757z"/><path style="fill:none;stroke:#1f1f1f;stroke-width:4;stroke-linecap:round;stroke-linejoin:round;stroke-miterlimit:4;stroke-dasharray:none;stroke-opacity:1" d="m217.37 35.089 15.786 87.488" id="path955"/><path style="fill:none;stroke:#1f1f1f;stroke-width:4;stroke-linecap:round;stroke-linejoin:round;stroke-miterlimit:4;stroke-dasharray:none;stroke-opacity:1" d="m102.796 40.175 17.499 90.011" id="path957"/><path style="fill:#e7b183;fill-opacity:1;stroke:#543418;stroke-width:3;stroke-linecap:round;stroke-linejoin:round;stroke-miterlimit:4;stroke-dasharray:none;stroke-opacity:1" d="M206.643 117.948c16.478-6.299 63.768-14.74 67.433-14.848 3.664-.107 88.209 3.966 102.566 15.39 1.146 15.739-69.795 27.389-69.795 27.389z" id="path1181"/><path style="fill:#bc5a2e;fill-opacity:1;stroke:#4e2817;stroke-width:3;stroke-linecap:round;stroke-linejoin:round;stroke-miterlimit:4;stroke-dasharray:none;stroke-opacity:1" d="m223.416 193.214 159.252-48.588c-4.097 24.947-2.471 47.55-.802 59.491 1.67 11.942 8.345 32.338 7.466 34.876-.878 2.539-124.138 59.48-124.138 59.48s-41.226-87.853-41.778-105.259z" id="path1671"/><path style="fill:#e7b183;fill-opacity:1;stroke:#543418;stroke-width:3;stroke-linecap:round;stroke-linejoin:round;stroke-miterlimit:4;stroke-dasharray:none;stroke-opacity:1" d="M95.7 143.52c13.196-9.509 87.388-25.446 99.102-25.859 11.713-.412 104.867 10.125 112.888 18.945 1.3 12.331-7.347 15.925-7.347 15.925l-85.85 20.71S107.008 154.708 95.7 143.519z" id="path1175"/><path style="fill:#b36423;fill-opacity:1;stroke:#543418;stroke-width:3;stroke-linecap:round;stroke-linejoin:round;stroke-miterlimit:4;stroke-dasharray:none;stroke-opacity:1" d="M309.766 136.808c8.317-2.564 66.996-17.525 69.088-16.57 2.093.956 6.268 23.326 4.608 24.993-1.66 1.666-61.397 22.33-68.417 21.743-7.021-.586-5.28-30.166-5.28-30.166z" id="path1179"/><path style="fill:#debc55;fill-opacity:1;stroke:#4d3f16;stroke-width:3;stroke-linecap:round;stroke-linejoin:round;stroke-miterlimit:4;stroke-dasharray:none;stroke-opacity:1" d="M221.268 221.906 120.923 205.68l16.882 63.097 105.82 15.907z" id="path1329"/><path style="fill:#272727;fill-opacity:1;stroke:#191919;stroke-width:3;stroke-linecap:round;stroke-linejoin:round;stroke-miterlimit:4;stroke-dasharray:none;stroke-opacity:1" d="M104.37 173.633c-7.98-1.248-14.544 3.69-13.298 9.334 1.246 5.644 5.245 7.156 15.024 9.028 9.779 1.872 98.087 15.318 100.135 16.89 2.049 1.572 19.689 39.345 24.033 46.298 4.345 6.952 28.838 54.235 56.344 60.986 27.506 6.751 44.11 3.958 21.078-5.332-23.031-9.29-46.184-26.798-57.355-52.716-11.172-25.918-17.336-59.882-21.258-62.628-3.921-2.746-124.703-21.86-124.703-21.86z" id="path1325"/><path style="fill:#b36423;fill-opacity:1;stroke:#543418;stroke-width:3;stroke-linecap:round;stroke-linejoin:round;stroke-miterlimit:4;stroke-dasharray:none;stroke-opacity:1" d="M96.139 144.053c1.145 10.42 8.94 30.42 11.42 30.74 2.482.32 107.055 18.69 113.707 18.152 6.653-.537 90.37-23.295 91.146-25.86.777-2.565-.304-25.604-3.13-29.251-2.827-3.647-91.128 22.432-95.006 25.466-3.879 3.035-45.585-13.736-68.107-15.13-22.522-1.395-50.03-4.117-50.03-4.117z" id="path1177"/><path id="rect993" style="fill:#8d5520;fill-opacity:1;stroke:#452910;stroke-width:3;stroke-linecap:round;stroke-linejoin:round;stroke-miterlimit:4;stroke-dasharray:none;stroke-opacity:1" d="M76.506 112.632a3.837 3.837 0 0 0-3.382 4.907l16.904 58.027a3.836 3.836 0 0 0 4.766 2.615 3.837 3.837 0 0 0 2.614-4.767L80.505 115.39a3.836 3.836 0 0 0-3.999-2.757zm16.584 4.505a3.891 3.891 0 0 0-.767.143 3.837 3.837 0 0 0-2.615 4.767l16.904 58.025a3.836 3.836 0 0 0 4.766 2.615 3.834 3.834 0 0 0 2.614-4.765L97.09 119.895a3.836 3.836 0 0 0-4-2.758zm22.534 4.147a3.89 3.89 0 0 0-.768.143 3.834 3.834 0 0 0-2.614 4.765l16.904 58.027a3.836 3.836 0 0 0 4.766 2.615 3.834 3.834 0 0 0 2.614-4.765l-16.903-58.027a3.836 3.836 0 0 0-4-2.758zm24.935 3.116a3.89 3.89 0 0 0-.767.143 3.834 3.834 0 0 0-2.615 4.765l16.904 58.027a3.833 3.833 0 0 0 4.764 2.615 3.835 3.835 0 0 0 2.616-4.765l-16.905-58.027a3.833 3.833 0 0 0-3.997-2.758zm24.243 3.339a3.89 3.89 0 0 0-.767.143 3.834 3.834 0 0 0-2.615 4.764l16.904 58.028a3.836 3.836 0 0 0 4.766 2.614 3.834 3.834 0 0 0 2.614-4.764l-16.903-58.028a3.836 3.836 0 0 0-4-2.757z"/><path style="color:#000;font-style:normal;font-variant:normal;font-weight:400;font-stretch:normal;font-size:medium;line-height:normal;font-family:sans-serif;font-variant-ligatures:normal;font-variant-position:normal;font-variant-caps:normal;font-variant-numeric:normal;font-variant-alternates:normal;font-variant-east-asian:normal;font-feature-settings:normal;font-variation-settings:normal;text-indent:0;text-align:start;text-decoration:none;text-decoration-line:none;text-decoration-style:solid;text-decoration-color:#000;letter-spacing:normal;word-spacing:normal;text-transform:none;writing-mode:lr-tb;direction:ltr;text-orientation:mixed;dominant-baseline:auto;baseline-shift:baseline;text-anchor:start;white-space:normal;shape-padding:0;shape-margin:0;inline-size:0;clip-rule:nonzero;display:inline;overflow:visible;visibility:visible;opacity:1;isolation:auto;mix-blend-mode:normal;color-interpolation:sRGB;color-interpolation-filters:linearRGB;solid-color:#000;solid-opacity:1;vector-effect:none;fill:#272727;fill-opacity:1;fill-rule:nonzero;stroke:#191919;stroke-width:3;stroke-linecap:round;stroke-linejoin:round;stroke-miterlimit:4;stroke-dasharray:none;stroke-dashoffset:0;stroke-opacity:1;color-rendering:auto;image-rendering:auto;shape-rendering:auto;text-rendering:auto;enable-background:accumulate;stop-color:#000;stop-opacity:1" d="M259.392 79.841c-7.867.28-26.518 2.561-45.194 4.927-18.677 2.366-37.062 4.836-42.008 5.411-10.3 1.196-36.864 4.706-60.187 8.517-11.662 1.906-22.46 3.87-30.174 5.716-3.857.923-6.844 1.737-9.346 2.838-1.251.55-2.452.755-4.156 3.036-.853 1.14-1.757 3.56-1.143 5.82.614 2.259 2.055 3.41 3.009 4.026 2.188 1.414 4.032 1.855 6.458 2.472s5.288 1.18 8.564 1.743c6.554 1.126 14.747 2.234 23.633 3.404 17.774 2.34 38.36 4.946 52.955 8.132 12.904 2.818 21.382 11.801 28.03 23.753 6.65 11.952 10.928 26.476 14.895 38.4a6.197 6.198 0 0 0 7.838 3.925 6.197 6.198 0 0 0 3.922-7.84c-3.841-11.542-8.224-26.85-15.824-40.51-7.6-13.662-18.957-26.071-36.218-29.84-15.571-3.4-36.263-5.98-53.98-8.312-4.438-.584-7.685-1.113-11.598-1.668 5.124-.966 9.182-1.889 15.134-2.861 23.04-3.765 49.66-7.283 59.618-8.44 5.468-.635 23.52-3.068 42.134-5.426 18.615-2.358 38.11-4.622 44.078-4.834 17.141-.612 69.157 4.134 87.974 5.856 7.97.73 14.638 1.293 19.719 5.709 5.08 4.416 9.989 13.867 11.147 35.524a6.197 6.198 0 0 0 6.519 5.859 6.197 6.198 0 0 0 5.858-6.52c-1.248-23.338-6.75-36.706-15.396-44.22-8.645-7.515-19.02-7.992-26.719-8.697-18.762-1.716-69.454-6.616-89.542-5.9z" id="path987"/><path style="fill:#bc5a2e;fill-opacity:1;stroke:#4b2819;stroke-width:3;stroke-linecap:round;stroke-linejoin:round;stroke-miterlimit:4;stroke-dasharray:none;stroke-opacity:1" d="M55.717 9.702C84.875 7.852 241.12 3.993 252.906 3.52c11.787-.473 13.825 6.838 14.373 16.228.548 9.389 1.074 19.082-10.257 19.556-11.33.474-178.271 12.47-190.866 12.946-11.415.432-19.493-42.234-10.439-42.548z" id="path953"/><path style="color:#000;font-style:normal;font-variant:normal;font-weight:400;font-stretch:normal;font-size:medium;line-height:normal;font-family:sans-serif;font-variant-ligatures:normal;font-variant-position:normal;font-variant-caps:normal;font-variant-numeric:normal;font-variant-alternates:normal;font-variant-east-asian:normal;font-feature-settings:normal;font-variation-settings:normal;text-indent:0;text-align:start;text-decoration:none;text-decoration-line:none;text-decoration-style:solid;text-decoration-color:#000;letter-spacing:normal;word-spacing:normal;text-transform:none;writing-mode:lr-tb;direction:ltr;text-orientation:mixed;dominant-baseline:auto;baseline-shift:baseline;text-anchor:start;white-space:normal;shape-padding:0;shape-margin:0;inline-size:0;clip-rule:nonzero;display:inline;overflow:visible;visibility:visible;opacity:1;isolation:auto;mix-blend-mode:normal;color-interpolation:sRGB;color-interpolation-filters:linearRGB;solid-color:#000;solid-opacity:1;vector-effect:none;fill:#8b8b8b;fill-opacity:1;fill-rule:nonzero;stroke:#191919;stroke-width:2;stroke-linecap:round;stroke-linejoin:round;stroke-miterlimit:4;stroke-dasharray:none;stroke-dashoffset:0;stroke-opacity:1;color-rendering:auto;image-rendering:auto;shape-rendering:auto;text-rendering:auto;enable-background:accumulate;stop-color:#000;stop-opacity:1" d="M243.113 60.972c-2.392-.027-7.245.274-13.849.743s-14.761 1.115-23.003 1.806c-16.485 1.381-33.146 2.92-38.663 3.627-4.7.602-32.339 2.968-57.188 5.718-12.425 1.375-24.231 2.855-32.522 4.322-4.145.733-7.335 1.413-9.675 2.273-1.17.43-2.198.477-3.508 2.348-.655.936-.972 3.018-.314 4.303.658 1.284 1.478 1.717 2.115 2.053 1.896 1 4.024 1.488 6.858 2.05 2.834.563 6.273 1.082 10.172 1.586 7.798 1.009 17.428 1.96 27.334 2.97 19.81 2.024 41.137 4.525 49.219 7.472 8.362 3.049 17.324 10.173 23.749 18.811 6.425 8.639 10.239 18.691 9.433 27.261a3.719 3.72 0 0 0 .436 2.126l6.013 11.052a3.718 3.719 0 0 0 5.042 1.491 3.718 3.719 0 0 0 1.489-5.045l-5.616-10.326c.554-10.744-3.923-21.712-10.83-30.999-7.207-9.689-16.98-17.643-27.17-21.358-10.47-3.818-31.168-5.857-51.01-7.883-9.921-1.013-19.522-1.964-27.136-2.949-.842-.109-1.35-.222-2.142-.332 7.805-1.277 17.745-2.6 28.88-3.832 24.713-2.735 51.528-4.994 57.315-5.735 4.969-.637 21.899-2.216 38.338-3.593 8.22-.69 16.358-1.334 22.912-1.8 6.554-.465 11.72-.742 13.238-.725 3.915.042 29.326.315 55.027.704 12.85.195 25.772.418 36.104.659 10.332.24 18.347.531 20.372.738 7.7.787 24.059 11.137 26.177 36.558a3.719 3.72 0 0 0 .107.617c2.114 8.222 4.831 12.78 4.831 12.78a3.718 3.719 0 0 0 5.108 1.252 3.718 3.719 0 0 0 1.251-5.108s-2.07-3.348-3.977-10.737c-2.568-27.942-20.203-41.479-32.742-42.76-3.057-.313-10.587-.534-20.955-.775-10.369-.242-23.304-.466-36.165-.661-25.722-.39-51.15-.66-55.055-.702z" id="path959"/><path style="fill:#bc5a2e;fill-opacity:1;stroke:#4b2819;stroke-width:3;stroke-linecap:round;stroke-linejoin:round;stroke-miterlimit:4;stroke-dasharray:none;stroke-opacity:1" d="M146.18 92.209c1.491-7.014-4.446-15.908-28.603-14.888-24.158 1.02-36.93 2.365-32.175 9 8.1.956 60.778 5.888 60.778 5.888z" id="path961"/><path style="fill:#bc5a2e;fill-opacity:1;stroke:#4b2819;stroke-width:3;stroke-linecap:round;stroke-linejoin:round;stroke-miterlimit:4;stroke-dasharray:none;stroke-opacity:1" d="M351.414 64.806c.81-5.726-4.688-12.5-24.77-10.175-20.083 2.326-30.65 4.202-26.277 9.235 6.813.263 51.047.94 51.047.94z" id="path961-3"/><path id="path1335" style="fill:#34353c;fill-opacity:1;stroke:#171717;stroke-width:2.99997;stroke-linecap:round;stroke-linejoin:round;stroke-miterlimit:4;stroke-dasharray:none;stroke-opacity:1" d="M144.29 246.49a142.742 102.704 61.49 0 0-50.672 18.577 142.742 102.704 61.49 0 0 3.222 184.348 142.742 102.704 61.49 0 0 159.886 47.842 142.742 102.704 61.49 0 0-3.221-184.348 142.742 102.704 61.49 0 0-109.216-66.418zm-3.068 32.932a113.014 79.429 64.326 0 1 83.636 53.025 113.014 79.429 64.326 0 1 2.472 147.17 113.014 79.429 64.326 0 1-122.628-38.194 113.014 79.429 64.326 0 1-2.472-147.17 113.014 79.429 64.326 0 1 38.992-14.831z"/><path style="fill:#debc55;fill-opacity:1;stroke:#4d3f16;stroke-width:3;stroke-linecap:round;stroke-linejoin:round;stroke-miterlimit:4;stroke-dasharray:none;stroke-opacity:1" d="M32.272 241.851c20.611-8.937 77.364-25.398 94.306-26.567 16.94-1.17 77.676 2.763 110.948 42.714 23.364 28.053 53.545 73.066 70.602 108.865 10.477 21.99 37.297 39.746 40.844 41.07 3.548 1.323 49.01 15.97 53.695 14.686-1.273 7.78-16.26 27.284-30.385 25.192-14.126-2.093-49.625-7.711-66.083-21.698-13.42-11.405-30.831-39.312-37.762-52.524-6.931-13.212-46.73-95.404-74.326-115.237-27.596-19.834-57.205-38.374-98.39-33.026-41.184 5.35-63.449 16.525-63.449 16.525z" id="path1331"/><ellipse style="fill:#686868;fill-opacity:1;stroke:#313131;stroke-width:3.00005;stroke-linecap:round;stroke-linejoin:round;stroke-miterlimit:4;stroke-dasharray:none;stroke-opacity:1" id="path1449-8" cx="1.5110872" cy="421.77197" rx="20.221331" ry="24.96752" transform="matrix(.89879 -.43838 .44523 .89542 0 0)"/><path id="path1439-7" style="color:#000;font-style:normal;font-variant:normal;font-weight:400;font-stretch:normal;font-size:medium;line-height:normal;font-family:sans-serif;font-variant-ligatures:normal;font-variant-position:normal;font-variant-caps:normal;font-variant-numeric:normal;font-variant-alternates:normal;font-variant-east-asian:normal;font-feature-settings:normal;font-variation-settings:normal;text-indent:0;text-align:start;text-decoration:none;text-decoration-line:none;text-decoration-style:solid;text-decoration-color:#000;letter-spacing:normal;word-spacing:normal;text-transform:none;writing-mode:lr-tb;direction:ltr;text-orientation:mixed;dominant-baseline:auto;baseline-shift:baseline;text-anchor:start;white-space:normal;shape-padding:0;shape-margin:0;inline-size:0;clip-rule:nonzero;display:inline;overflow:visible;visibility:visible;opacity:1;isolation:auto;mix-blend-mode:normal;color-interpolation:sRGB;color-interpolation-filters:linearRGB;solid-color:#000;solid-opacity:1;vector-effect:none;fill:#ac8c2d;fill-opacity:1;fill-rule:nonzero;stroke:#4d3f16;stroke-width:2;stroke-linecap:round;stroke-linejoin:round;stroke-miterlimit:4;stroke-dasharray:none;stroke-dashoffset:0;stroke-opacity:1;color-rendering:auto;image-rendering:auto;shape-rendering:auto;text-rendering:auto;enable-background:accumulate;stop-color:#000;stop-opacity:1" d="M127.705 286.614a3.098 3.099 0 0 0-1.646.48 3.098 3.099 0 0 0-.958 4.278l52.129 82.317L91.3 328.23a3.098 3.099 0 0 0-4.188 1.291 3.098 3.099 0 0 0 1.29 4.188l87.66 46.373-81.375 2.73a3.098 3.099 0 0 0-2.992 3.202 3.098 3.099 0 0 0 3.2 2.994l80.133-2.69-63.394 42.681a3.098 3.099 0 0 0-.84 4.302 3.098 3.099 0 0 0 4.301.84l62.918-42.363-39.217 70.346a3.098 3.099 0 0 0 1.198 4.215 3.098 3.099 0 0 0 4.214-1.199l39.198-70.304-2.97 88.54a3.098 3.099 0 0 0 2.992 3.2 3.098 3.099 0 0 0 3.202-2.995l2.917-87.002 30.147 77.613a3.098 3.099 0 0 0 4.011 1.768 3.098 3.099 0 0 0 1.765-4.012l-30.774-79.233 47.082 39.688a3.098 3.099 0 0 0 4.367-.373 3.098 3.099 0 0 0-.373-4.365l-54.184-45.673 41.54-6.98a3.098 3.099 0 0 0 2.543-3.568 3.098 3.099 0 0 0-3.569-2.542l-43.153 7.248 14.164-61.34a3.098 3.099 0 0 0-2.322-3.715 3.098 3.099 0 0 0-.653-.08 3.098 3.099 0 0 0-3.065 2.401l-13.539 58.647-53.2-84.007a3.098 3.099 0 0 0-2.63-1.44z"/><path id="path1335-6-1" style="fill:#debc55;fill-opacity:1;stroke:#4d3f16;stroke-width:2.99997;stroke-linecap:round;stroke-linejoin:round;stroke-miterlimit:4;stroke-dasharray:none;stroke-opacity:1" d="M141.222 279.422a113.014 79.429 64.326 0 0-38.992 14.83 113.014 79.429 64.326 0 0 2.472 147.17 113.014 79.429 64.326 0 0 122.628 38.195 113.014 79.429 64.326 0 0-2.472-147.17 113.014 79.429 64.326 0 0-83.636-53.025zm1.48 11.78a100.987 65.584 62.76 0 1 66.986 39.117 100.987 65.584 62.76 0 1 19.808 132.215 100.987 65.584 62.76 0 1-103.35-21.104 100.987 65.584 62.76 0 1-19.808-132.213 100.987 65.584 62.76 0 1 36.363-18.015z"/><path style="fill:#ac8c2d;fill-opacity:1;stroke:#4d3f16;stroke-width:3;stroke-linecap:round;stroke-linejoin:round;stroke-miterlimit:4;stroke-dasharray:none;stroke-opacity:1" d="M144.724 389.047s32.036-16.35 36.212-19.47c8.422-6.292 22.401 13.455 9.732 21.231-6.487 3.982-30.118 16.112-34.347 18.632-4.23 2.52-11.597-20.393-11.597-20.393z" id="path1471"/><path id="path1439" style="color:#000;font-style:normal;font-variant:normal;font-weight:400;font-stretch:normal;font-size:medium;line-height:normal;font-family:sans-serif;font-variant-ligatures:normal;font-variant-position:normal;font-variant-caps:normal;font-variant-numeric:normal;font-variant-alternates:normal;font-variant-east-asian:normal;font-feature-settings:normal;font-variation-settings:normal;text-indent:0;text-align:start;text-decoration:none;text-decoration-line:none;text-decoration-style:solid;text-decoration-color:#000;letter-spacing:normal;word-spacing:normal;text-transform:none;writing-mode:lr-tb;direction:ltr;text-orientation:mixed;dominant-baseline:auto;baseline-shift:baseline;text-anchor:start;white-space:normal;shape-padding:0;shape-margin:0;inline-size:0;clip-rule:nonzero;display:inline;overflow:visible;visibility:visible;isolation:auto;mix-blend-mode:normal;color-interpolation:sRGB;color-interpolation-filters:linearRGB;solid-color:#000;solid-opacity:1;vector-effect:none;fill:#debc55;fill-opacity:1;fill-rule:nonzero;stroke:#4d3f16;stroke-width:2;stroke-linecap:round;stroke-linejoin:round;stroke-miterlimit:4;stroke-dasharray:none;stroke-dashoffset:0;stroke-opacity:1;color-rendering:auto;image-rendering:auto;shape-rendering:auto;text-rendering:auto;enable-background:accumulate;stop-color:#000" d="m168.147 299.356-16.775 95.392-44.506-90.465a3.098 3.098 0 0 0-4.15-1.411 3.1 3.1 0 0 0-1.41 4.15l40.074 81.45-51.633-33.44a3.098 3.098 0 1 0-3.367 5.201l59.224 38.357-47.68 3.711a3.099 3.099 0 0 0 .48 6.179l45.88-3.569-21.824 42.308a3.1 3.1 0 0 0 5.507 2.842l21.495-41.668 4.382 67.387a3.099 3.099 0 1 0 6.184-.402L155.974 413l44.886 71.33a3.098 3.098 0 1 0 5.246-3.302l-48.295-76.746 73.5 52.309 3.593-5.05-66.643-47.429 71.959 1.927.167-6.195-82.12-2.198h-.165a3.099 3.099 0 0 0-2.942 2.423l-.45-.714a3.099 3.099 0 0 0-1.23-1.116c.983.314 2.057.119 2.867-.52l64.234-50.843-3.846-4.859-57.85 45.787 15.365-87.373zm-15.95 98.086c.24.248.519.454.826.61a3.098 3.098 0 0 0-.9-.145c.036-.153.061-.308.075-.465z"/><ellipse style="fill:#8b8b8b;fill-opacity:1;stroke:#414141;stroke-width:3;stroke-linecap:round;stroke-linejoin:round;stroke-miterlimit:4;stroke-dasharray:none;stroke-opacity:1" id="path1449" cx="-40.844357" cy="424.7019" rx="9.8365211" ry="12.21794" transform="rotate(-26.222) skewX(-.007)"/><path style="fill:#272727;fill-opacity:1;stroke:#191919;stroke-width:3;stroke-linecap:round;stroke-linejoin:round;stroke-miterlimit:4;stroke-dasharray:none;stroke-opacity:1" d="M245.536 20.284c-.325 11.062.938 28.334 2.682 39.4 5.538 1.924 10.338.072 10.338.072s-.224-31.749-2.294-39.573c-6.007.043-10.726.101-10.726.101z" id="path1629"/><path style="fill:#272727;fill-opacity:1;stroke:#191919;stroke-width:3;stroke-linecap:round;stroke-linejoin:round;stroke-miterlimit:4;stroke-dasharray:none;stroke-opacity:1" d="M325.113 18.455c-.28 9.766.809 25.016 2.313 34.786 4.774 1.699 8.914.064 8.914.064s-.193-28.031-1.978-34.939c-5.18.038-9.25.089-9.25.089z" id="path1629-3"/><rect style="fill:#9b9b9b;fill-opacity:1;stroke:#323232;stroke-width:3.00002;stroke-linecap:round;stroke-linejoin:round;stroke-miterlimit:4;stroke-dasharray:none;stroke-opacity:1" id="rect1657" width="10.008432" height="229.68419" x="342.92303" y="96.233452" ry="3.1010385" rx="3.1010299" transform="matrix(.99907 -.04308 .03828 .99927 0 0)"/><path style="fill:#c6c6c6;fill-opacity:1;stroke:#323232;stroke-width:3;stroke-linecap:round;stroke-linejoin:round;stroke-miterlimit:4;stroke-dasharray:none;stroke-opacity:1" d="M247.868 63.192c33.464-.152 90.476-3.603 95.381-4.163-17.755 1.392-18.254 1.142-18.254 1.142s.542-5.886 4.644-5.97c4.102-.084 28.732 1.183 33.181 2.598 4.448 1.414 4.167 9.15-3.87 10.347-2.482.08-2.156 16.72-2.156 16.72l-10.684.518s-1.461-12.37-1.703-15.09c-9.62.662-93.062 4.796-95.9 4.615-2.836-.18-3.051-10.532-.639-10.717z" id="path1653"/><path style="fill:#dc7a5a;fill-opacity:1;stroke:#313131;stroke-width:3;stroke-linecap:round;stroke-linejoin:round;stroke-miterlimit:4;stroke-dasharray:none;stroke-opacity:1" d="m343.142 108.31 6.333 202.318" id="path1663"/><path style="fill:#dc7a5a;fill-opacity:1;stroke:#48261b;stroke-width:3;stroke-linecap:round;stroke-linejoin:round;stroke-miterlimit:4;stroke-dasharray:none;stroke-opacity:1" d="M341.193 106.718c-7.264-1.114-14.85-5.656-14.092 2.324.759 7.98 15.074 1.791 15.074 1.791z" id="path1659"/><path style="fill:#dc7a5a;fill-opacity:1;stroke:#313131;stroke-width:3;stroke-linecap:round;stroke-linejoin:round;stroke-miterlimit:4;stroke-dasharray:none;stroke-opacity:1" d="m362.464 108.805 7.41 201.75" id="path1665"/><path style="fill:#dc7a5a;fill-opacity:1;stroke:#48261b;stroke-width:3;stroke-linecap:round;stroke-linejoin:round;stroke-miterlimit:4;stroke-dasharray:none;stroke-opacity:1" d="M361.728 107.448c-9.99-1.377-13.67-.395-11.767 4.785 1.903 5.18 11.695.649 11.767-4.785z" id="path1661"/><path style="fill:#a7882b;fill-opacity:1;stroke:#4d3f16;stroke-width:3;stroke-linecap:round;stroke-linejoin:round;stroke-miterlimit:4;stroke-dasharray:none;stroke-opacity:1" d="M388.62 442.88c12.673-14.364 17.043-26.674 19.733-47.17 2.69-20.494 21.145-65.965 35.696-78.025 14.552-12.061 36.63-22.516 36.63-22.516s-19.28 5.534-32.213 38.564c-12.932 33.03-15.348 63.666-21.781 75.895-6.433 12.229-28.223 25.477-38.065 33.253z" id="path1667"/><rect style="fill:#debc55;fill-opacity:1;stroke:#4d3f16;stroke-width:3;stroke-linecap:round;stroke-linejoin:round;stroke-miterlimit:4;stroke-dasharray:none;stroke-opacity:1" id="rect1687-7" width="10.781732" height="63.113201" x="531.90839" y="251.68721" ry="6.49826" rx="6.49826" transform="rotate(1.828) skewX(.001)"/><rect style="fill:#272727;fill-opacity:1;stroke:#191919;stroke-width:3;stroke-linecap:round;stroke-linejoin:round;stroke-miterlimit:4;stroke-dasharray:none;stroke-opacity:1" id="rect1687" width="16.107594" height="42.555645" x="529.24536" y="232.30702" ry="6.49826" rx="6.49826" transform="rotate(1.828) skewX(.001)"/><ellipse style="fill:#272727;fill-opacity:1;stroke:#191919;stroke-width:3;stroke-linecap:round;stroke-linejoin:round;stroke-miterlimit:4;stroke-dasharray:none;stroke-opacity:1" id="path1685" cx="554.49841" cy="191.73882" rx="15.480243" ry="5.0276818" transform="rotate(6.4) skewX(.002)"/><path style="fill:#debc55;fill-opacity:1;stroke:#4d3f16;stroke-width:3;stroke-linecap:round;stroke-linejoin:round;stroke-miterlimit:4;stroke-dasharray:none;stroke-opacity:1" d="M442.683 318.611c24.405-21.085 50.15-39.713 64.077-44.743 13.927-5.03 40.208-19.271 39.861-15.15-.347 4.12-19.398 18.605-24.07 21.135-4.672 2.53-52.186 14.181-79.868 38.758z" id="path1669"/><path style="fill:#272727;fill-opacity:1;stroke:#191919;stroke-width:3;stroke-linecap:round;stroke-linejoin:round;stroke-miterlimit:4;stroke-dasharray:none;stroke-opacity:1" d="M620.556 224.871c5.297-9.937 13.041-23.465 23.716-20.076-6.28-4.576-7.626-5.806-7.626-5.806l-69.613-7.408s-15.961 3.405-22.143 24.432c18.372 3.303 75.666 8.858 75.666 8.858z" id="path1826"/><path style="fill:#272727;fill-opacity:1;stroke:#191919;stroke-width:3;stroke-linecap:round;stroke-linejoin:round;stroke-miterlimit:4;stroke-dasharray:none;stroke-opacity:1" d="M557.758 203.14c-11.04-1.507-54.892-14.353-57.128 14.19-2.236 28.543 10.466 30.28 51.131 35.843 40.665 5.561 13.2-49.298 5.997-50.034z" id="path1683"/><path style="fill:#272727;fill-opacity:1;stroke:#191919;stroke-width:3;stroke-linecap:round;stroke-linejoin:round;stroke-miterlimit:4;stroke-dasharray:none;stroke-opacity:1" d="m521.352 187.94-6.546 15.238c-.026 6.94 35.253 9.17 36.006 2.504-3.334-8.226-5.885-17.725-5.885-17.725z" id="path1675"/><path style="fill:#a7a7a7;fill-opacity:1;stroke:#191919;stroke-width:3;stroke-linecap:round;stroke-linejoin:round;stroke-miterlimit:4;stroke-dasharray:none;stroke-opacity:1" d="M508.153 185.937c.36-6.252 16.604-16.737 27.184-17 8.057-.199 21.628 11.155 25.47 19.477 0 0-11.625 6.833-28.133 5.48-16.509-1.353-24.521-7.957-24.521-7.957z" id="path1673"/><path style="fill:#b4b4b4;fill-opacity:1;stroke:#212121;stroke-width:3;stroke-linecap:round;stroke-linejoin:round;stroke-miterlimit:4;stroke-dasharray:none;stroke-opacity:1" d="M561.804 263.975c-5.11-7.72-6.853-9.497-9.719-10.427-7.791-2.532 1.515-49.626 7.153-49.095 5.638.53 12.272-3.638 13.964-5.18 1.692-1.542-7.676 56.89-11.398 64.702z" id="path1681"/><ellipse style="fill:#9a9a9a;fill-opacity:1;stroke:#212121;stroke-width:3;stroke-linecap:round;stroke-linejoin:round;stroke-miterlimit:4;stroke-dasharray:none;stroke-opacity:1" id="path1677" cx="603.26923" cy="122.69656" rx="8.2809286" ry="33.932632" transform="rotate(10.53) skewX(.003)"/><path style="fill:#7b7b7b;fill-opacity:1;stroke:#313131;stroke-width:3;stroke-linecap:round;stroke-linejoin:round;stroke-miterlimit:4;stroke-dasharray:none;stroke-opacity:1" d="m313.22 430.171 47.536 13.547 25.186-23.37-19.574-7.15s5.615-3.674 5.968-6.55c.354-2.877-.218-59.755-.218-59.755l-9.473-3.15s3.818 58.106 2.38 60.97c-1.436 2.864-6.02 7.477-6.02 7.477l-16.957-5.278z" id="path1749"/><rect style="fill:#999;fill-opacity:1;stroke:#313131;stroke-width:3.00003;stroke-linecap:round;stroke-linejoin:round;stroke-miterlimit:4;stroke-dasharray:none;stroke-opacity:1" id="rect1755-3" width="10.784097" height="23.657482" x="285.89487" y="293.38287" ry="5.3788767" rx="5.3788686" transform="matrix(.92268 -.38556 .37933 .92526 0 0)"/><rect style="fill:#999;fill-opacity:1;stroke:#313131;stroke-width:3.00001;stroke-linecap:round;stroke-linejoin:round;stroke-miterlimit:4;stroke-dasharray:none;stroke-opacity:1" id="rect1755" width="15.689957" height="33.998566" x="282.01254" y="309.45386" ry="5.3795528" rx="5.3795648" transform="matrix(.92504 -.37988 .385 .92291 0 0)"/><rect style="fill:#999;fill-opacity:1;stroke:#313131;stroke-width:3;stroke-linecap:round;stroke-linejoin:round;stroke-miterlimit:4;stroke-dasharray:none;stroke-opacity:1" id="rect1818" width="8.6344242" height="90.304016" x="288.21689" y="340.00439" rx="5.3798699" ry="5.3798695" transform="rotate(-22.311) skewX(-.006)"/><path style="fill:#dc7a5a;fill-opacity:1;stroke:#48261b;stroke-width:3;stroke-linecap:round;stroke-linejoin:round;stroke-miterlimit:4;stroke-dasharray:none;stroke-opacity:1" d="M421.914 220.412s12.258-3.003 13.74-4.25c1.483-1.245 21.11-13.85 24.134-6.872 3.025 6.978-17.907 9.725-22.409 11.538-4.502 1.812-19.04 7.167-15.465-.416z" id="path1822"/><rect style="fill:#999;fill-opacity:1;stroke:#313131;stroke-width:3;stroke-linecap:round;stroke-linejoin:round;stroke-miterlimit:4;stroke-dasharray:none;stroke-opacity:1" id="rect1820" width="6.649467" height="78.011795" x="304.18881" y="363.11978" ry="2.6825249" rx="2.6825249" transform="rotate(-22.135) skewX(-.006)"/><path style="fill:#6a6a6a;fill-opacity:1;stroke:#313131;stroke-width:3;stroke-linecap:round;stroke-linejoin:round;stroke-miterlimit:4;stroke-dasharray:none;stroke-opacity:1" d="m399.52 315.148 2.803-23.83-5.347-1.24-13.676 10.05.306 4.355 4.28.298L395 300.03l-1.805 15.99 4.13 1.26z" id="path1824"/><path style="fill:#debc55;fill-opacity:1;stroke:#4d3f16;stroke-width:3;stroke-linecap:round;stroke-linejoin:round;stroke-miterlimit:4;stroke-dasharray:none;stroke-opacity:1" d="M654.333 323.21c2.76-29.922 10.686-101.558-9.904-98.127-20.59 3.43-50.82 100.349-44.54 157.896 16.33-15.84 51.06-58.152 54.444-59.769z" id="path1830"/><path id="path1834-1" style="fill:#34353c;fill-opacity:1;stroke:#171717;stroke-width:3;stroke-linecap:round;stroke-linejoin:round;stroke-miterlimit:4;stroke-dasharray:none;stroke-opacity:1" d="M529.162 357.611a160.853 122.976 39.346 0 0-92.414 45.177 160.853 122.976 39.346 0 0 62.037 197.019 160.853 122.976 39.346 0 0 198.133-8.483 160.853 122.976 39.346 0 0-62.039-197.02 160.853 122.976 39.346 0 0-105.717-36.693zm.603 43.18a122.414 93.142 37.183 0 1 81.47 27.573 122.414 93.142 37.183 0 1 47.585 148.053 122.414 93.142 37.183 0 1-151.977 6.372 122.414 93.142 37.183 0 1-47.585-148.05 122.414 93.142 37.183 0 1 70.507-33.948z"/><path id="path1948-4" style="color:#000;font-style:normal;font-variant:normal;font-weight:400;font-stretch:normal;font-size:medium;line-height:normal;font-family:sans-serif;font-variant-ligatures:normal;font-variant-position:normal;font-variant-caps:normal;font-variant-numeric:normal;font-variant-alternates:normal;font-variant-east-asian:normal;font-feature-settings:normal;font-variation-settings:normal;text-indent:0;text-align:start;text-decoration:none;text-decoration-line:none;text-decoration-style:solid;text-decoration-color:#000;letter-spacing:normal;word-spacing:normal;text-transform:none;writing-mode:lr-tb;direction:ltr;text-orientation:mixed;dominant-baseline:auto;baseline-shift:baseline;text-anchor:start;white-space:normal;shape-padding:0;shape-margin:0;inline-size:0;clip-rule:nonzero;display:inline;overflow:visible;visibility:visible;opacity:1;isolation:auto;mix-blend-mode:normal;color-interpolation:sRGB;color-interpolation-filters:linearRGB;solid-color:#000;solid-opacity:1;vector-effect:none;fill:#ac8c2d;fill-opacity:1;fill-rule:nonzero;stroke:#4d3f16;stroke-width:2;stroke-linecap:round;stroke-linejoin:round;stroke-miterlimit:4;stroke-dasharray:none;stroke-dashoffset:0;stroke-opacity:1;color-rendering:auto;image-rendering:auto;shape-rendering:auto;text-rendering:auto;enable-background:accumulate;stop-color:#000;stop-opacity:1" d="M534.282 404.652a3.098 3.099 0 0 0-.894.162 3.098 3.099 0 0 0-1.95 3.925l27.355 81.468-1.765-.097-89.646-54.086a3.098 3.099 0 0 0-4.253 1.053 3.098 3.099 0 0 0 1.053 4.254l79.644 48.052-86.115-4.735a3.098 3.099 0 0 0-.164-.005 3.098 3.099 0 0 0-3.099 2.93 3.098 3.099 0 0 0 2.924 3.263l96.018 5.28-76.236 38.645a3.098 3.099 0 0 0-1.363 4.166 3.098 3.099 0 0 0 4.166 1.363l74.893-37.966-48.007 69.278a3.098 3.099 0 0 0 .782 4.312 3.098 3.099 0 0 0 4.311-.782l48.205-69.559.405 92.179a3.098 3.099 0 0 0 3.113 3.086 3.098 3.099 0 0 0 3.084-3.113l-.424-96.58a3.099 3.1 0 0 0 .2-.121l51.222 94.428a3.098 3.099 0 0 0 4.2 1.246 3.098 3.099 0 0 0 1.246-4.202l-48.386-89.204 78.584 53.612a3.098 3.099 0 0 0 4.307-.814 3.098 3.099 0 0 0-.814-4.307l-82.677-56.405 77.209-2.75a3.098 3.099 0 0 0 2.985-3.208 3.098 3.099 0 0 0-3.205-2.988l-79.127 2.82 35.6-54.838a3.098 3.099 0 0 0-.912-4.285 3.098 3.099 0 0 0-1.716-.501 3.098 3.099 0 0 0-2.568 1.411l-37.571 57.875-27.586-82.148a3.098 3.099 0 0 0-2.864-2.114 3.098 3.099 0 0 0-.164 0z"/><path id="path1834-9" style="fill:#debc55;fill-opacity:1;stroke:#4d3f16;stroke-width:3;stroke-linecap:round;stroke-linejoin:round;stroke-miterlimit:4;stroke-dasharray:none;stroke-opacity:1" d="M529.765 400.79a122.414 93.142 37.183 0 0-70.507 33.948 122.414 93.142 37.183 0 0 47.585 148.051 122.414 93.142 37.183 0 0 151.977-6.372 122.414 93.142 37.183 0 0-47.586-148.053 122.414 93.142 37.183 0 0-81.47-27.573zm4.909 7.997a108.698 82.702 37.167 0 1 72.063 24.482 108.698 82.702 37.167 0 1 42.255 131.45 108.698 82.702 37.167 0 1-134.954 5.66 108.698 82.702 37.167 0 1-42.258-131.45 108.698 82.702 37.167 0 1 62.894-30.142z"/><path style="fill:#ac8c2d;fill-opacity:1;stroke:#4d3f16;stroke-width:3;stroke-linecap:round;stroke-linejoin:round;stroke-miterlimit:4;stroke-dasharray:none;stroke-opacity:1" d="M533.65 509.656s15.03-20.67 22.963-29.97c6.582-7.715 27.103 5.819 20.194 16.222-6.874 10.35-22.614 32.357-22.614 32.357z" id="path1926"/><path id="path1948" style="color:#000;font-style:normal;font-variant:normal;font-weight:400;font-stretch:normal;font-size:medium;line-height:normal;font-family:sans-serif;font-variant-ligatures:normal;font-variant-position:normal;font-variant-caps:normal;font-variant-numeric:normal;font-variant-alternates:normal;font-variant-east-asian:normal;font-feature-settings:normal;font-variation-settings:normal;text-indent:0;text-align:start;text-decoration:none;text-decoration-line:none;text-decoration-style:solid;text-decoration-color:#000;letter-spacing:normal;word-spacing:normal;text-transform:none;writing-mode:lr-tb;direction:ltr;text-orientation:mixed;dominant-baseline:auto;baseline-shift:baseline;text-anchor:start;white-space:normal;shape-padding:0;shape-margin:0;inline-size:0;clip-rule:nonzero;display:inline;overflow:visible;visibility:visible;opacity:1;isolation:auto;mix-blend-mode:normal;color-interpolation:sRGB;color-interpolation-filters:linearRGB;solid-color:#000;solid-opacity:1;vector-effect:none;fill:#debc55;fill-opacity:1;fill-rule:nonzero;stroke:#4d3f16;stroke-width:2;stroke-linecap:round;stroke-linejoin:round;stroke-miterlimit:4;stroke-dasharray:none;stroke-dashoffset:0;stroke-opacity:1;color-rendering:auto;image-rendering:auto;shape-rendering:auto;text-rendering:auto;enable-background:accumulate;stop-color:#000;stop-opacity:1" d="m498.529 415.953 38.284 92.927-77.116-47.745a3.098 3.098 0 1 0-3.208 5.302l82.35 50.912-76.629-10.299a3.099 3.099 0 0 0-.804 6.145l71.01 9.562-45.64 27.956a3.1 3.1 0 0 0 3.19 5.315l53.257-32.535a3.1 3.1 0 0 0 1.126-4.13 3.1 3.1 0 0 0 1.837-4.113l-41.94-101.684zm69.54-1.101-21.372 98.037c-.582 2.667 2.317 4.73 4.645 3.305l85.83-52.141-3.233-5.288-79.644 48.355 19.828-90.946zm-16.177 102.376c-3.033-.001-4.262 3.905-1.775 5.64l88.652 61.667a3.1 3.1 0 0 0 3.539-5.089L561.8 523.447l98.048.378.015-6.197zm-6.51 6.137a3.099 3.099 0 0 0-2.996 2.426L529 585.995a3.099 3.099 0 0 0 6.05 1.346l11.766-52.924 43.567 68.155a3.098 3.098 0 1 0 5.221-3.339l-47.583-74.437a3.099 3.099 0 0 0-2.638-1.43z"/><ellipse style="fill:#8b8b8b;fill-opacity:1;stroke:#414141;stroke-width:3;stroke-linecap:round;stroke-linejoin:round;stroke-miterlimit:4;stroke-dasharray:none;stroke-opacity:1" id="path1924" cx="750.44366" cy="-12.551231" rx="15.302468" ry="13.282465" transform="rotate(44.329) skewX(.009)"/></g></svg>