<!--Created with Sodipodi ("http://www.sodipodi.com/")--><svg xmlns:dc="http://purl.org/dc/elements/1.1/" xmlns:cc="http://creativecommons.org/ns#" xmlns:rdf="http://www.w3.org/1999/02/22-rdf-syntax-ns#" xmlns="http://www.w3.org/2000/svg" xmlns:xlink="http://www.w3.org/1999/xlink" xmlns:sodipodi="http://sodipodi.sourceforge.net/DTD/sodipodi-0.dtd" xmlns:inkscape="http://www.inkscape.org/namespaces/inkscape" sodipodi:version="0.34" width="724" height="582.01379" xml:space="preserve" sodipodi:docname="winter.svg" inkscape:version="0.91 r13725"><metadata><rdf:RDF><cc:Work><dc:format>image/svg+xml</dc:format><dc:type rdf:resource="http://purl.org/dc/dcmitype/StillImage"/><dc:title/></cc:Work></rdf:RDF></metadata><defs><linearGradient xlink:href="#i" id="G" x1="916.36792" y1="234.64049" x2="940.02631" y2="234.64049" gradientTransform="scale(.50223 1.9911)" gradientUnits="userSpaceOnUse"/><linearGradient id="k"><stop style="stop-color:#573700;stop-opacity:1" offset="0"/><stop style="stop-color:#ffcf00;stop-opacity:1" offset="1"/></linearGradient><linearGradient id="h"><stop style="stop-color:#a50092;stop-opacity:1" offset="0"/><stop style="stop-color:#5d008f;stop-opacity:1" offset="1"/></linearGradient><linearGradient id="i"><stop style="stop-color:#557f00;stop-opacity:1" offset="0"/><stop style="stop-color:#5d3f3d;stop-opacity:1" offset="1"/></linearGradient><linearGradient id="f"><stop style="stop-color:#5e0000;stop-opacity:1" offset="0"/><stop style="stop-color:#ef0000;stop-opacity:1" offset="1"/></linearGradient><linearGradient id="d"><stop style="stop-color:#fff;stop-opacity:1" offset="0"/><stop style="stop-color:#000;stop-opacity:1" offset="1"/></linearGradient><linearGradient id="g"><stop style="stop-color:#ffa700;stop-opacity:1" offset="0"/><stop style="stop-color:#e26a00;stop-opacity:1" offset="1"/></linearGradient><linearGradient id="e"><stop style="stop-color:#fff;stop-opacity:1" offset="0"/><stop style="stop-color:#e2edf2;stop-opacity:1" offset="1"/></linearGradient><linearGradient id="c"><stop style="stop-color:#514f2d;stop-opacity:1" offset="0"/><stop style="stop-color:#b2855f;stop-opacity:1" offset="1"/></linearGradient><linearGradient id="b"><stop style="stop-color:#d7ffff;stop-opacity:1" offset="0"/><stop style="stop-color:#fff;stop-opacity:1" offset="1"/></linearGradient><linearGradient id="a"><stop style="stop-color:#00bfff;stop-opacity:1" offset="0"/><stop style="stop-color:#fff;stop-opacity:1" offset="1"/></linearGradient><linearGradient xlink:href="#a" id="l" x1="315.03827" y1="24.694466" x2="315.03827" y2="390.61035" gradientTransform="matrix(1.175 0 0 .85106 -10.151 -16.919)" gradientUnits="userSpaceOnUse"/><linearGradient xlink:href="#b" id="n" x1="211.30162" y1="1069.0364" x2="242.28967" y2="455.24768" gradientTransform="matrix(1.79552 0 0 .55694 -10.151 -16.919)" gradientUnits="userSpaceOnUse"/><linearGradient xlink:href="#b" id="m" x1="274.84897" y1="583.7049" x2="284.96527" y2="408.59402" gradientTransform="matrix(1.5 0 0 .66667 -10.151 -16.919)" gradientUnits="userSpaceOnUse"/><linearGradient xlink:href="#c" id="o" x1="37.75032" y1="195.24794" x2="376.48303" y2="195.24794" gradientTransform="matrix(.96465 0 0 1.03665 -10.151 -16.919)" gradientUnits="userSpaceOnUse"/><linearGradient inkscape:collect="always" xlink:href="#i" id="F" gradientTransform="matrix(1.0617 0 0 .94189 -10.997 -17.342)" x1="435.63007" y1="536.91901" x2="446.7435" y2="536.91901" gradientUnits="userSpaceOnUse"/><linearGradient xlink:href="#k" id="R" x1="88.883789" y1="1279.5562" x2="79.717422" y2="1240.1417" gradientTransform="matrix(3.53193 0 0 .28313 -9.71 -16.919)" gradientUnits="userSpaceOnUse"/><linearGradient xlink:href="#k" id="T" x1="122.24356" y1="805.96674" x2="121.02133" y2="824.2157" gradientTransform="matrix(2.3223 0 0 .4306 -10.151 -16.919)" gradientUnits="userSpaceOnUse"/><linearGradient xlink:href="#k" id="U" x1="130.19351" y1="747.69019" x2="129.07745" y2="763.71985" gradientTransform="matrix(2.16005 0 0 .46295 -10.151 -16.919)" gradientUnits="userSpaceOnUse"/><linearGradient xlink:href="#g" id="s" x1="430.90237" y1="416.81302" x2="442.92224" y2="416.81302" gradientTransform="scale(.94168 1.06194)" gradientUnits="userSpaceOnUse"/><linearGradient xlink:href="#c" id="B" x1="573.70831" y1="326.94339" x2="575.58051" y2="328.35202" spreadMethod="repeat" gradientTransform="scale(.7751 1.29017)" gradientUnits="userSpaceOnUse"/><linearGradient xlink:href="#c" id="A" x1="734.68134" y1="272.78662" x2="795.81189" y2="325.9205" gradientTransform="scale(.57066 1.75235)" gradientUnits="userSpaceOnUse"/><linearGradient xlink:href="#b" id="O" x1="228.35036" y1="1394.238" x2="197.25101" y2="1272.5151" gradientTransform="matrix(2.52642 0 0 .39582 -10.151 -16.919)" gradientUnits="userSpaceOnUse"/><linearGradient xlink:href="#k" id="V" x1="126.37883" y1="853.45081" x2="118.09285" y2="817.82196" gradientTransform="matrix(2.33443 0 0 .42837 -10.151 -16.919)" gradientUnits="userSpaceOnUse"/><linearGradient xlink:href="#f" id="y" gradientTransform="scale(.55906 1.78871)" x1="695.04602" y1="253.29968" x2="721.11389" y2="253.29968" gradientUnits="userSpaceOnUse"/><linearGradient xlink:href="#k" id="W" x1="143.68578" y1="737.94836" x2="135.62006" y2="703.26654" gradientTransform="matrix(2.01704 0 0 .49578 -10.151 -16.919)" gradientUnits="userSpaceOnUse"/><linearGradient xlink:href="#b" id="P" x1="391.83737" y1="650.96039" x2="397.40942" y2="650.96039" gradientTransform="matrix(1.22067 0 0 .81922 -10.151 -16.919)" gradientUnits="userSpaceOnUse"/><linearGradient xlink:href="#k" id="Y" x1="141.20792" y1="750.91388" x2="133.11823" y2="716.12909" gradientTransform="matrix(2.0562 0 0 .48633 -10.151 -16.919)" gradientUnits="userSpaceOnUse"/><linearGradient id="j"><stop style="stop-color:#ffffd5;stop-opacity:1" offset="0"/><stop style="stop-color:#ffff8d;stop-opacity:1" offset="1"/></linearGradient><linearGradient xlink:href="#i" id="N" gradientTransform="matrix(.8545 0 0 1.17028 -10.151 -16.919)" x1="550.43518" y1="433.43768" x2="560.83447" y2="433.43768" gradientUnits="userSpaceOnUse"/><linearGradient xlink:href="#k" id="Z" x1="142.97517" y1="737.42065" x2="134.90884" y2="702.73627" gradientTransform="matrix(2.02456 0 0 .49393 -9.71 -16.919)" gradientUnits="userSpaceOnUse"/><linearGradient xlink:href="#k" id="ac" x1="134.41022" y1="791.46008" x2="126.23021" y2="756.28693" gradientTransform="matrix(2.17272 0 0 .46025 -10.151 -16.919)" gradientUnits="userSpaceOnUse"/><linearGradient xlink:href="#k" id="ab" x1="111.17403" y1="974.0119" x2="102.53883" y2="936.88147" gradientTransform="matrix(2.68513 0 0 .37242 -9.71 -16.919)" gradientUnits="userSpaceOnUse"/><linearGradient xlink:href="#k" id="aa" x1="124.94076" y1="854.69733" x2="116.70197" y2="819.27136" gradientTransform="matrix(2.35312 0 0 .42497 -9.71 -16.919)" gradientUnits="userSpaceOnUse"/><linearGradient inkscape:collect="always" xlink:href="#b" id="M" gradientTransform="matrix(1.24225 0 0 .805 -10.151 -16.919)" x1="386.09946" y1="663.09985" x2="390.41129" y2="663.09985" gradientUnits="userSpaceOnUse"/><radialGradient xlink:href="#j" id="Q" cx="394.54233" cy="151.21764" r="42.482658" fx="394.54233" fy="151.21764" gradientTransform="matrix(1.00976 0 0 .99034 153.188 16.079)" gradientUnits="userSpaceOnUse"/><radialGradient xlink:href="#e" id="E" cx="259.50259" cy="1080.5531" r="50.945374" fx="259.50259" fy="1080.5531" gradientTransform="matrix(1.98146 0 0 .50468 -10.151 -16.919)" gradientUnits="userSpaceOnUse"/><radialGradient xlink:href="#f" id="v" cx="363.24026" cy="466.29388" r="50.029087" fx="363.24026" fy="466.29388" gradientTransform="scale(1.09922 .90974)" gradientUnits="userSpaceOnUse"/><radialGradient xlink:href="#f" id="z" cx="289.06229" cy="658.6972" r="36.376572" fx="289.06229" fy="658.6972" gradientTransform="scale(1.45043 .68945)" gradientUnits="userSpaceOnUse"/><radialGradient xlink:href="#c" id="C" cx="596.73059" cy="332.55432" r="35.421989" fx="596.73059" fy="332.55432" gradientTransform="scale(.77368 1.29253)" gradientUnits="userSpaceOnUse"/><radialGradient xlink:href="#e" id="D" cx="524.77179" cy="429.51782" r="45.812622" fx="524.77179" fy="429.51782" gradientTransform="scale(.83347 1.1998)" gradientUnits="userSpaceOnUse"/><radialGradient xlink:href="#k" id="S" cx="161.39497" cy="645.02985" r="23.636274" fx="161.39497" fy="645.02985" gradientTransform="matrix(1.76158 0 0 .96004 -11.526 -272.653)" gradientUnits="userSpaceOnUse"/><radialGradient xlink:href="#k" id="X" cx="180.68829" cy="577.23944" r="27.566528" fx="180.68829" fy="577.23944" gradientTransform="matrix(1.53931 0 0 .53832 -4.592 37.932)" gradientUnits="userSpaceOnUse"/><radialGradient xlink:href="#a" id="ad" cx="186.69135" cy="549.95062" r="20.236454" fx="186.69135" fy="549.95062" gradientTransform="matrix(1.52142 0 0 .65728 -10.151 -16.919)" gradientUnits="userSpaceOnUse"/><radialGradient inkscape:collect="always" xlink:href="#e" id="p" cx="379.6228" cy="548.3703" fx="379.6228" fy="548.3703" r="94.69342" gradientTransform="scale(1.03078 .97014)" gradientUnits="userSpaceOnUse"/><radialGradient xlink:href="#h" id="L" cx="454.78879" cy="497.63647" r="6.8773999" fx="454.78879" fy="497.63647" gradientTransform="scale(1.02198 .9785)" gradientUnits="userSpaceOnUse"/><radialGradient inkscape:collect="always" xlink:href="#e" id="r" cx="603.76135" cy="318.28052" fx="603.76135" fy="318.28052" r="37.294933" gradientTransform="scale(.61444 1.6275)" gradientUnits="userSpaceOnUse"/><radialGradient inkscape:collect="always" xlink:href="#d" id="t" gradientTransform="scale(.92582 1.08012)" cx="433.93112" cy="409.061" fx="433.93112" fy="409.061" r="2.819298" gradientUnits="userSpaceOnUse"/><radialGradient inkscape:collect="always" xlink:href="#f" id="w" cx="313.7944" cy="556.91199" fx="313.7944" fy="556.91199" r="43.036549" gradientTransform="scale(1.27782 .78258)" gradientUnits="userSpaceOnUse"/><radialGradient inkscape:collect="always" xlink:href="#f" id="x" cx="408.6937" cy="413.11313" fx="408.6937" fy="413.11313" r="14.101759" gradientTransform="scale(1.0328 .96825)" gradientUnits="userSpaceOnUse"/><radialGradient xlink:href="#d" id="u" cx="433.93112" cy="409.061" r="2.819298" fx="433.93112" fy="409.061" gradientTransform="scale(.92582 1.08012)" gradientUnits="userSpaceOnUse"/><radialGradient inkscape:collect="always" xlink:href="#h" id="H" cx="449.9599" cy="487.70245" fx="449.9599" fy="487.70245" r="6.8773999" gradientTransform="scale(1.02198 .9785)" gradientUnits="userSpaceOnUse"/><radialGradient inkscape:collect="always" xlink:href="#h" id="I" cx="462.10519" cy="485.40994" fx="462.10519" fy="485.40994" r="6.8773999" gradientTransform="scale(1.02198 .9785)" gradientUnits="userSpaceOnUse"/><radialGradient inkscape:collect="always" xlink:href="#h" id="J" cx="454.6424" cy="476.69861" fx="454.6424" fy="476.69861" r="6.8773999" gradientTransform="scale(1.02198 .9785)" gradientUnits="userSpaceOnUse"/><radialGradient inkscape:collect="always" xlink:href="#h" id="K" cx="461.0809" cy="495.95532" fx="461.0809" fy="495.95532" r="6.8773999" gradientTransform="scale(1.02198 .9785)" gradientUnits="userSpaceOnUse"/><radialGradient inkscape:collect="always" xlink:href="#e" id="q" cx="418.29303" cy="467.83701" fx="418.29303" fy="467.83701" r="55.775826" gradientUnits="userSpaceOnUse"/></defs><sodipodi:namedview showgrid="false" borderlayer="true" units="px" fit-margin-top="0" fit-margin-left="0" fit-margin-right="0" fit-margin-bottom="0" inkscape:zoom="1.2685914" inkscape:cx="772.34055" inkscape:cy="175.39748" inkscape:window-width="3200" inkscape:window-height="1679" inkscape:window-x="0" inkscape:window-y="0" inkscape:window-maximized="1" inkscape:current-layer="svg602"/><rect style="font-size:12px;fill:url(#l);fill-opacity:1;fill-rule:evenodd;stroke-width:1" width="724.13348" height="524.48926" x="6.8222653e-05"/><path style="font-size:12px;fill:url(#m);fill-rule:evenodd" d="M0 277.472v297.774h730.901V250.401c-61.19 0-64.856 20.303-126.046 20.303-61.191 0-142.233-25.272-197.107-13.535-59.759 12.04-162.986 30.454-224.177 30.454-61.19 0-122.38-10.151-183.571-10.151z" sodipodi:nodetypes="cccccscc" inkscape:connector-curvature="0"/><path style="font-size:12px;fill:url(#n);fill-rule:evenodd" d="M730.901 374.192v207.822H0V355.299c61.19 0 64.856 14.17 126.047 14.17 61.19 0 142.232-17.638 197.106-9.447 59.759 8.403 162.987 21.255 224.177 21.255s122.38-7.085 183.571-7.085z" sodipodi:nodetypes="cccccscc" inkscape:connector-curvature="0"/><path style="font-size:12px;fill:none;fill-rule:evenodd;stroke:#000;stroke-width:.99999398" d="M431.636 516.957c2.63.86 4.479 8.06 9.938 9.828 4.167 1.35 8.469 2.028 12.818 2.513m4.073-3.895c2.707-2.737 9.99-1.079 13.298-6.19.657-1.014 1.143-2.129 1.637-3.227m-60.431 2.756c6.012-6.081 23.565-.817 30.497 1.005 12.006 3.157 19.041 9.436 32.266 9.727 2.982.066 5.802-.387 8.74-.873" inkscape:connector-curvature="0"/><path style="font-size:12px;fill:url(#o);fill-rule:evenodd" d="M66.25 229.969c-1.24-.284 5.063 42.8 4.032 53.212-.499 4.199-19.347-8.64-41.063-14.765-16.457-4.163 41.01 21.956 44.995 24.49 11.45 20.005 45.493 59.315 68.214 70.856 11.295 6.832 21.527 18.712 20.545 31.502l-3.097 112.703c-.116 15.043-13.64 19.126-12.08 21.92 2.49 4.942 20.063-4.943 24.788-13.54 3.422-4.297 7.96 17.193 13.058 18.052 5.097-.86 6.843-11.39 8.588-15.473 7.704 1.505 17.085 3.009 16.968 17.407 3.049 1.72 2.746-4.298 3.56-9.67 2.305-1.29 14.665 9.67 20.88 3.223-7.193-4.512-20.53-12.249-20.46-18.696l.135-119.322c-.186-8.012 10.06-18.952 20.403-32.715 6.422-7.419 52.796 1.635 71.126-19.383-20.33 14.15-59.612 8.608-60.459 6.779-.484-1.393 17.233-12.922 40.333-32.468 5.775-4.886 36.972 6.177 66.305-26.148-25.4 24.802-73.9 28.648-54.346 10.824 19.601-11.214 36.086-32.06 39.13-46.096-5.464 9.359-21.941 34.473-37.516 41.055-4.987 1.935-3.396-51.134-4.379-61.208-3.703 15.709-.28 56.649-.507 60.228-.621 10.071-15.184 17.452-17.201 19.774-1.951 1.956-7.689-25.658 1.345-50.555-6.627 6.375-8.15 40.875-7.854 53.453.084 3.66-8.747 9.564-11.018 9.913-13.354 2.648-5.66-43.943-8.896-37.93-3.236 6.013-2.446 36.544 4.251 41.973-2.846 2.775-14.236 9.654-20.542 14.785-4.478 3.345 3.705-41.41-.941-36.712-2.224 2.548 2.115 35.706-16.18 52.943-2.926 2.666-7.274 4.613-12.32 1.418-7.666-4.233 4.069-46.403 6.958-55.047 3.588-7.362 42.904-18.218 69.716-60.14-23.365 23.978-34.173 34.651-45.778 39.167-5.287 1.917 40.108-87.25 28.004-85.847.05 3.295-2.55 17.939-13.667 42.005-.761 1.692-15.291-24.863-14.845-43.938-6.432 15.618 14.204 44.275 12.082 49.241-8.488 19.866-17.422 38.745-19.101 41.39-4.762 5.99-15.387 8.13-15.09 7.084.831-10.275 10.305-48.794 8.828-70.782-3.185 27.608-10.004 72.127-14.242 69.156-10.756-7.243-16.715-43.527-18.351-49.438-1.07-5.215 15.648-15.375 19.848-57.971-5.048 27.919-19.464 58.985-22.634 45.91-4.015-12.654-6.775-29.229-7.91-46.571-5.177-8.117 6.004 78.79 24.818 115.799.14 4.231-2.87 9.431-4.406 14.287-1.167 3.266-5.73-6.848-10.332-16.671-4.602-9.824-9.241-19.357-10.56-14.93-.67 2.03 3.935 10.906 8.354 20.313 4.42 9.407 8.653 19.344 7.242 23.496-2.823 8.305-7.678 28.087-8.859 28.087-2.176-.215-11.587-31.442-14.16-54.815-2.648-24.925 13.885-30.097 9.45-69.963-1.574 8.002-.144 18.705-2.633 25.635-.613 1.632-9.152 2.772-19.055-43.827 1.596 33.835 17.232 48.426 16.53 50.713-2.802 9.15-7.407 16.793-8.792 14.205-14.963-27.822-16.957-59.934-17.845-86.547-1.076.262-2.092 32.847.544 42.704.722 2.279-34.107-17.979-32.19-42.541-8.66 25.349 29.617 40.29 32.008 50.665 2.39 10.377 16.267 44.105 13.375 63.039-1.375 7.854-24.869-15.854-25.215-12.481.218 6.12 20.634 17.76 24.741 22.35 4.448 4.126 9.025 47.673 1.084 45.618-1.926-3.17-29.013-17.964-37.001-23.334-7.988-5.37 18.656-54.978 14.31-79.796-4.225 28.179-10.478 46.708-12.272 46.73-1.614.288-15.868-7.58-17.999-29.088-4.545 17.27 14.888 30.282 15.953 32.797.5 1.887-3.794 22.142-8.692 22.76-2.93-.477-19.629-16.31-20.502-21-.527-2.411 5.828-24.927 3.699-35.368-.411-2.417 31.84-32.26 32.598-44.542-5.47 9.588-30.812 40.48-34.718 40.396-4.086-.073-8.221-32.713-5.795-47.45-7.01 6.784-1.428 43.551.78 47.71 6.396 14.894.487 32.414-2.657 32.827-5.772.816-14.923-14.492-15.735-17.302-4.586-18.276-7.24-55.725-9.684-56.524z" sodipodi:nodetypes="csscscccccccccccscsscccscsscssscssscscscscssscsscsccssssscscscsccscsssscscscsssscscsssc" inkscape:connector-curvature="0"/><g transform="translate(-105.554 -4.09)"><path style="font-size:12px;fill:url(#p);fill-rule:evenodd" d="M472.04 502.917c0 30.135-22.535 40.183-50.334 40.183-27.798 0-50.334-10.048-50.334-40.183 0-30.134 22.536-54.563 50.334-54.563 27.799 0 50.334 24.429 50.334 54.563z" sodipodi:nodetypes="ccccc" transform="translate(-4.23 1.692)" inkscape:connector-curvature="0"/><ellipse style="font-size:12px;fill:url(#q);fill-rule:evenodd;stroke-width:1" transform="translate(-16.92 -7.614)" cx="435.66443" cy="445.81577" rx="28.762314" ry="28.762299"/><path style="font-size:12px;fill:url(#r);fill-rule:evenodd" d="M386.6 494.458c0 17.053 4.647 30.877-4.23 30.877s-16.073-13.824-16.073-30.877c0-17.053 10.58-31.723 19.456-31.723 8.877 0 .846 14.67.846 31.723z" sodipodi:nodetypes="ccccc" transform="translate(-4.23 1.692)" inkscape:connector-curvature="0"/><path style="font-size:12px;fill:url(#s);fill-rule:evenodd" d="M415.505 443.792c2.2 1.738 1.985 3.705.117 4.863-4.8 3.274-7.524 7.417-9.343 6.644-1.666-.835 1.09-4.901 3.472-10.247 1.449-2.95 3.555-2.999 5.754-1.26z" sodipodi:nodetypes="csssc" inkscape:connector-curvature="0"/><ellipse style="fill:url(#t);fill-opacity:1;fill-rule:evenodd;stroke:none;stroke-width:1pt;stroke-linecap:butt;stroke-linejoin:miter;stroke-opacity:1" cx="403.17151" cy="442.96906" rx="2.6917877" ry="3.1404266"/><path style="fill:none;fill-opacity:1;fill-rule:evenodd;stroke:#000;stroke-width:1pt;stroke-linecap:butt;stroke-linejoin:miter;stroke-opacity:1" d="M401.078 455.98c1.875.167 3.641 1.57 5.448 2.135 1.353.424 2.695.547 4.064.973 1.91.595 3.07-2.09 6.548-1.423 3.815.731 3.452-.962 7.027.446 1.591.626 3.598-.98 4.13-1.68.44-.579 1.539-.498 1.86-1.37" sodipodi:nodetypes="ccccccc" inkscape:connector-curvature="0"/><ellipse style="fill:url(#u);fill-opacity:1;fill-rule:evenodd;stroke:none;stroke-width:1pt;stroke-linecap:butt;stroke-linejoin:miter;stroke-opacity:1" transform="translate(21.995)" cx="403.17151" cy="442.96906" rx="2.6917877" ry="3.1404266"/><g style="fill:url(#v)"><path transform="translate(-1.692 -9.305)" style="font-size:12px;fill:url(#w);fill-rule:evenodd;stroke-width:1" d="M445.816 432.178c0 7.475-14.557 10.254-28.34 10.254-13.782 0-22.768.058-22.768-7.417.3-10.765 16.899-20.892 30.382-23.883 12.586 4.187 18.632 12.973 20.726 21.046z" sodipodi:nodetypes="ccccc" inkscape:connector-curvature="0"/><ellipse style="fill:url(#x);fill-opacity:1;fill-rule:evenodd;stroke:none;stroke-width:1pt;stroke-linecap:butt;stroke-linejoin:miter;stroke-opacity:1" transform="translate(-3.384 .846)" cx="427.20496" cy="396.32767" rx="6.7675934" ry="6.344635"/></g><path style="font-size:12px;fill:url(#y);fill-rule:evenodd" d="M389.116 460.164c-2.393 15.453 4.174 24.743-.313 39.298l.514-.112.63-1.949.201.005-.619 2.036.591-.073.631-1.949.201.005-.62 2.036.592-.073.631-1.948.201.005-.62 2.035.592-.073.63-1.948.202.005-.62 2.035.592-.073.63-1.948.202.005-.62 2.035.592-.073.63-1.948.201.005-.619 2.036.592-.074.63-1.948.201.005-.62 2.036.592-.074.631-1.948.201.005-.62 2.036.592-.074.63-1.948.202.005-.62 2.036.592-.074.63-1.948.202.005-.62 2.036.592-.074.63-1.948.201.005-.619 2.035.592-.073.63-1.948.201.005-.62 2.035.592-.073.631-1.948.201.005-.62 2.035.592-.073.63-1.948.202.005-.62 2.035.592-.073.63-1.948.202.005-.62 2.035.514-.112.552-1.91.24.006-.466 1.916.355.041c3.888-15.353-2.862-28.523-6.45-46.568-1.968 5.345-5.913 4.297-6.411 7.089z" sodipodi:nodetypes="ccccccccccccccccccccccccccccccccccccccccccccccccccccccccccccccccccccc" inkscape:connector-curvature="0"/><path style="font-size:12px;fill:url(#z);fill-rule:evenodd" d="M441.729 455.8c0 2.752 3.9.644.474 5.817-3.615 5.295-10.427 13.72-25.98 14.502-20.636-.469-21.125-16.883-21.125-22.086 0-5.203 5.877 12.113 21.983 12.113 16.105 0 23.085-10.236 24.648-10.345z" sodipodi:nodetypes="cscccc" inkscape:connector-curvature="0"/><path style="font-size:12px;fill:url(#A);fill-rule:evenodd" d="m453.24 447.193-29.415 98.28c-.314 1.05 2.838 1.994 3.152.944l29.415-98.28c.315-1.05-2.837-1.994-3.151-.944z" sodipodi:nodetypes="cssss" inkscape:connector-curvature="0"/><path style="font-size:12px;fill:url(#B);fill-rule:evenodd" d="M475.199 425.489c-1.24 3.262-3.475 6.702-5.43 10.469-1.954 3.766-4.579 4.581-6.81 7.88-2.232 3.297-5.656 5.166-6.67 8.079-1.149 2.533.593 9.62-4.899 7.262-5.562-1.961-.984-5.471-.246-8.228.84-3.244-.265-8.93.142-12.942.813-8.023.48-9.241 3.383-20.523.12-.421 1.6-4.233 3.04-3.89.13.046 1.521-.727 1.546-.465.024.263-2.494 2.554-2.558 2.987-.064.434 4.84-3.395 4.707-2.837-.134.558-6.135 7.267-6.32 7.904-.185.636 1.444-1.842 2.695.465.32.584 1.726-3.87 1.583-3.341-.143.53-3.621 4.813-3.649 5.124-.028.312.018.487.168.472.184-.03.42-.187.682-.441.263-.255.134-.768.43-1.193.295-.425 1.133-3.597 1.415-4.139.283-.542-1.586 2.38-1.363 1.774 3.761-4.86 2.786-4.964 2.946-5.554.16-.59-3.647 3.754-3.517 3.283.13-.47 3.834-2.695 3.97-2.943.136-.247.283-.356.46-.276.338.156.977-.696 1.096-.349.12.347.895.901.85 1.382-.044.48-.915 2.166-1.487 2.563-.4.417-.347 1.138-.554 1.714-.206.576 1.808-1.363 1.603-.825-.205.538-2.63 3.553-2.779 3.996-.149.442-.255.823-.292 1.113-.038.29-.005.489.124.569.072.033.227-.078.432-.3a8.27 8.27 0 0 0 .741-.967c.278-.414 2.33-5.52 2.617-6.06.288-.542-1.103.314-.867-.292.237-.606.349 1.94.525 1.352.176-.587.333-1.14.491-1.605.16-.465.32-.844.505-1.084.184-.24.392-.342.646-.254.254.089.385.308.426.627.041.319-.009.737-.115 1.222-.106.485-.27 1.037-.457 1.625-.188.588-.399 1.21-.601 1.837-.202.627 4.758-4.304 4.59-3.709-.168.595-5.464 6.716-5.567 7.202-.102.487-.165.9-.17 1.2-.007.302.044.491.166.53.122.038.296-.073.504-.3.208-.227.45-.57.71-.994.26-.424-.407-.97-.128-1.525.278-.554.523-1.49.786-2.106.263-.617 1.239-4.01 1.475-4.602.236-.593.71 1.988.932 1.525.221-.463.438-.835.657-1.063.219-.229-1.272-1.283-1.044-1.172.283.098 2.093 1.284 2.07 1.592-.022.309-.165.71-.365 1.18-.2.469-.875.847-1.124 1.427-.248.58-.07 1.363-.238 2.004-.17.641-.74 1.28-.782 1.912-.043.631 6.335-9.625 3.757-5.134-.259.463-3.137 7.9-3.034 8.234.102.334.224.548.346.596.122.047.876-4.46 1.109-4.645.232-.186 2.134-4.338 2.423-4.71.29-.372-1.597 7.46-1.307 6.95.29-.513.567-1.082.804-1.686.237-.604.434-1.243.609-1.855.174-.612.327-1.198.476-1.696.15-.498.295-.91.456-1.172.16-.263.336-.378.545-.283.245.11.384.345.442.676.058.33.034.755-.045 1.24-.08.486-.216 1.032-.385 1.607a38.144 38.144 0 0 1-.576 1.775c-.207.598 3.685-5.407 3.487-4.852-.198.555-4.487 7.67-4.626 8.115-.14.446-.237.821-.269 1.092-.032.27.003.437.128.467.145.037 2.46-5.175 2.633-5.16.173.013-1.795 5.253-1.581 5.157.213-.095.45-.268.716-.56.266-.292 1.235-6.687 1.566-7.262.33-.575.02 1.308.384.527.365-.781.732 1.755 1.059 1.009.327-.747.616-1.415.833-1.885.216-.47.36-.743.392-.696.267.375-1.25 5.298-1.423 5.859z" sodipodi:nodetypes="cssscssccssscssscssscssscssscssscssscssscssscssscssscssscssscssscssscssscssscssscssscssscc" inkscape:connector-curvature="0"/><path style="font-size:12px;fill:none;fill-rule:evenodd;stroke:url(#C);stroke-width:1;stroke-linecap:round" d="M464.11 418.85c-1.236 2.48-2.086 5.247-3.1 7.823-2.041 5.184-4.075 10.349-6.225 15.488-.775 1.851-1.215 5.613-1.989 7.464m8.46-12.799c-2.161-3.78-.836-8.196-.658-12.272.099-2.26.167-4.513.65-6.73.006-.02.029-.031.043-.047m-.458-2.311c-.866 1.296-1.844 4.493-2.311 6.003-1.473 4.766-1.19 9.912-2.318 14.767-.665 2.868-1.892 5.48-2.719 8.287-.066.223-.12.45-.18.674m10.7-16.196c-1.912-3.826.586-7.828 2.665-10.924m-2.137 20.864c-2.301-3.442-.899-9.081.69-12.445.847-1.796 1.829-3.386 2.471-5.286m-8.765 10.752c0-1.811-.094-5.587.068-7.42.066-.745.21-1.467.375-2.195m10.766-1.171c-2.467 3.697-5.285 7.168-8 10.692-2.945 3.824-6.814 6.413-9.245 10.62-.434.75-.56 6.042-.999 6.79m20.465-26.093c-1.584 3.186-4.747 6.164-7.019 8.94-3.906 4.77-6.933 9.19-9.764 14.68-.198.384-1.03 2.99-1.228 3.374m19.174-27.84c-1.88 7.517-7.232 15.217-12.53 20.687-1.046 1.081-4.31 4.69-4.628 5.897-.147.555-.718 1.39-.713 1.97M453.96 434.5c-1.87-1.87-1.472-4.808-1.478-7.267m2.324-.241c2.959-1.47 7.956-5.408 9.55-8.282l.692-1.248m-7.387-3.37c-.938.468-1.722 4.734-1.955 5.684-.994 4.048-1.053 8.188-1.09 12.331l-.022 3.06c0 .148-.294.037-.439.073-.275.067-.444 2.882-.436 3.288.045 2.243.288 4.308-.058 6.552-.23 1.482-.725 2.897-.981 4.361-.012.07-.166.169-.099.187" inkscape:connector-curvature="0"/><path style="font-size:12px;fill:none;fill-rule:evenodd;stroke:#000;stroke-width:1.12977695;stroke-linecap:round" d="M451.05 449.545c1.071.371 5.49 1.738 5.635 2.181" inkscape:connector-curvature="0"/><path style="fill:none;fill-opacity:1;fill-rule:evenodd;stroke:#000;stroke-width:1pt;stroke-linecap:round;stroke-linejoin:miter;stroke-opacity:1" d="M450.892 450.89c.976 0 4.287 1.14 4.26 2.214" inkscape:connector-curvature="0"/><path style="font-size:12px;fill:none;fill-rule:evenodd;stroke:#000;stroke-width:1.1875;stroke-linecap:round;stroke-dasharray:none" d="M450.363 452.16c1.732 0 6.68 1.279 5.034.901" inkscape:connector-curvature="0"/><path style="fill:none;fill-opacity:1;fill-rule:evenodd;stroke:#000;stroke-width:1.25;stroke-linecap:round;stroke-linejoin:miter;stroke-dasharray:none;stroke-opacity:1" d="M449.94 452.794c1.937 0 .59-.1 3.76.973-.718-.243 1.442.477 2.162.719" inkscape:connector-curvature="0"/><path style="font-size:12px;fill:url(#D);fill-rule:evenodd" d="M445.202 492.32c-9.26 14.32-20.669 23.406-13.214 28.226 7.454 4.82 21.003-2.882 30.263-17.202 9.26-14.32 8.34-32.383.887-37.204-7.455-4.82-8.677 11.86-17.936 26.18z" sodipodi:nodetypes="ccccc" transform="translate(-4.23 1.692)" inkscape:connector-curvature="0"/></g><path style="font-size:12px;opacity:.6768;fill:url(#E);fill-rule:evenodd;stroke-width:1" d="M604.85 523.88c-2.5 8.63-18.55 13.63-34.151 23.972-15.603 10.343-47.01 4.778-72.725 4.778-51.431 0-66.875 9.76-93.125-23.75-8.75-12.259 15.444-26.25 68.125-18.75 25.716 0 63.685.06 82.724-6.472 19.658-5.117 51.651 11.593 49.151 20.222z" sodipodi:nodetypes="cscccsc" inkscape:connector-curvature="0"/><path style="font-size:12px;fill:url(#F);fill-rule:evenodd" d="m460.962 498.844 2.347-1.807c-1.72-2.637-1.89-8.084-6-8.587-3.017-.544-6.683 1.977-5.608 5.243 1.768.528 1.783-1.07 3.796-1.957 3.728-1.752 1.724 2.249 5.465 7.108z" sodipodi:nodetypes="ccscsc" inkscape:connector-curvature="0"/><g transform="matrix(.36723 0 0 .39178 288.493 296.786)"><path style="font-size:12px;fill:url(#G);fill-rule:evenodd" d="M463.737 467.195c0 3.626 2.094 7.851 2.094 11.478 0 .906-5.739-1.88-5.599-.902.14.976 5.711 1.827 5.898 2.827.374 2 1.047 6.692 1.047 8.505 0 .907-3.402-2.823-3.122-1.916.28.907 3.346 3.608 3.72 4.514.748 1.814 2.393 6.468 2.393 8.281 0 3.627-.748 10.693-.748 14.32.548 0 1.246-.15 1.794-.15 0-3.627.898-10.693.898-14.32 0-1.812-2.355-8.635-3.215-10.523-.43-.944 3.177-2.935 2.855-3.87-.322-.934-3.528 2.776-3.528 1.87 0-3.627-1.197-5.31-1.197-8.936 0-.906 4.664-2.299 4.482-3.262-.182-.962-4.613 2.094-4.856 1.113-.486-1.963-1.57-7.216-1.57-9.03h-1.346z" sodipodi:nodetypes="csssssssccssssssscc" inkscape:connector-curvature="0"/><path style="font-size:12px;fill:url(#H);fill-rule:evenodd" d="M466.878 478.41c-1.795.554-3.563-1.016-4.97.229-1.407 1.245.088 4.407-1.311 5.305-1.998-1.047-3.265-3.536-2.807-5.156-1.706.4-3.624-.422-4.97-1.723 1.047-1.302 3.862-2.872 5.867-1.724-.387-1.544.211-4.109 2.807-4.856 2.297 1.346-.694 3.461.713 4.706 2.155-.55 2.876.273 4.67 3.22z" sodipodi:nodetypes="csccccccc" inkscape:connector-curvature="0"/><path style="font-size:12px;fill:url(#I);fill-rule:evenodd" d="M465.233 476.167c1.794.554 3.562-1.016 4.97.229 1.406 1.245-.09 4.407 1.31 5.305 1.998-1.047 3.266-3.536 2.807-5.156 1.707.4 3.624-.422 4.97-1.724-1.047-1.3-3.861-2.871-5.867-1.723.388-1.544-.21-4.109-2.807-4.856-2.297 1.345.694 3.461-.713 4.706-2.155-.55-2.876.273-4.67 3.22z" sodipodi:nodetypes="csccccccc" inkscape:connector-curvature="0"/><path style="font-size:12px;fill:url(#J);fill-rule:evenodd" d="M471.663 467.643c-1.794.554-3.562-1.016-4.97.229-1.407 1.245.089 4.407-1.31 5.305-1.999-1.047-3.266-3.536-2.808-5.156-1.706.4-3.623-.422-4.97-1.724 1.048-1.3 3.862-2.871 5.868-1.723-.388-1.544.21-4.109 2.806-4.856 2.297 1.345-.694 3.461.714 4.706 2.155-.55 2.875.273 4.67 3.22z" sodipodi:nodetypes="csccccccc" inkscape:connector-curvature="0"/><path style="font-size:12px;fill:url(#K);fill-rule:evenodd" d="M464.186 486.486c1.794.554 3.562-1.016 4.97.228 1.407 1.245-.089 4.408 1.31 5.305 1.999-1.047 3.266-3.535 2.808-5.155 1.706.4 3.623-.422 4.969-1.724-1.047-1.301-3.861-2.871-5.867-1.724.388-1.544-.21-4.108-2.806-4.856-2.297 1.346.694 3.462-.714 4.707-2.155-.55-2.876.273-4.67 3.219z" sodipodi:nodetypes="csccccccc" inkscape:connector-curvature="0"/><ellipse style="fill:#f3b500;fill-opacity:1;fill-rule:evenodd;stroke:none;stroke-width:1pt;stroke-linecap:butt;stroke-linejoin:miter;stroke-opacity:1" transform="matrix(1 0 0 .8 11.664 103.61)" cx="459.32565" cy="476.91528" rx="0.9720459" ry="1.4954376"/><path style="font-size:12px;fill:url(#L);fill-rule:evenodd" d="M471.813 488.131c-1.795.554-3.563-1.016-4.97.228-1.407 1.245.088 4.408-1.311 5.305-1.998-1.047-3.265-3.535-2.807-5.155-1.706.4-3.624-.423-4.97-1.724 1.047-1.301 3.862-2.872 5.867-1.724-.387-1.544.211-4.108 2.807-4.856 2.297 1.346-.694 3.462.713 4.707 2.155-.55 2.876.273 4.67 3.219z" sodipodi:nodetypes="csccccccc" inkscape:connector-curvature="0"/><ellipse style="fill:#f3b500;fill-opacity:1;fill-rule:evenodd;stroke:none;stroke-width:1pt;stroke-linecap:butt;stroke-linejoin:miter;stroke-opacity:1" transform="translate(5.384 10.02)" cx="459.32565" cy="476.91528" rx="0.9720459" ry="1.4954376"/><ellipse style="fill:#f3b500;fill-opacity:1;fill-rule:evenodd;stroke:none;stroke-width:1pt;stroke-linecap:butt;stroke-linejoin:miter;stroke-opacity:1" transform="translate(.449 .449)" cx="459.32565" cy="476.91528" rx="0.9720459" ry="1.4954376"/><ellipse style="fill:#f3b500;fill-opacity:1;fill-rule:evenodd;stroke:none;stroke-width:1pt;stroke-linecap:butt;stroke-linejoin:miter;stroke-opacity:1" transform="rotate(16.876 498.309 489.678)" cx="459.32565" cy="476.91528" rx="0.9720459" ry="1.4954376"/><ellipse style="fill:#f3b500;fill-opacity:1;fill-rule:evenodd;stroke:none;stroke-width:1pt;stroke-linecap:butt;stroke-linejoin:miter;stroke-opacity:1" transform="matrix(.68416 -.10587 .15292 .98824 85.153 52.142)" cx="459.32565" cy="476.91528" rx="0.9720459" ry="1.4954376"/></g><path style="font-size:12px;fill:url(#M);fill-rule:evenodd;stroke-width:1" d="M474.81 518.606c-.19.93-1.197 1.874-2.656 1.719-1.467-.195-2.847-.79-2.656-1.719.235-.95 1.197-1.87 2.656-1.719 1.506.196 2.891.809 2.657 1.72zm-.399-.045c-.273.823-.885 1.422-2.232 1.217-1.284-.235-2.536-.426-2.31-1.217.273-.824.953-1.413 2.31-1.296 1.362.156 2.457.504 2.232 1.296z" sodipodi:nodetypes="csssscssss" inkscape:connector-curvature="0"/><path style="font-size:12px;fill:url(#N);fill-rule:evenodd" d="M464.884 502.495h-2.96c-.248-3.139-3.435-7.559-.487-10.464 2.059-2.272 6.5-2.512 7.643.732-1.08 1.497-2.066.24-4.203.765-4.022.887.007 2.834.007 8.967z" sodipodi:nodetypes="ccscsc" inkscape:connector-curvature="0"/><path style="font-size:12px;fill:url(#O);fill-rule:evenodd;stroke-width:1" d="M608.661 524.066c0 4.789-8.496-15.197-38.863-20.306-15.183-2.555-23.885 4.636-44.59 6.545-20.706 1.908-53.416-1.466-67.549-1.466-56.532 0-51.18 16.345-51.18 6.768 0-2.395 3.05-6.262 8.507-10.716s16.706 1.503 26.338-3.239c9.632-4.741 21.876-3.262 34.4-6.519 12.524-3.256 19.828 8.207 33.961 8.207s32.33-11.78 44.06-7.73c11.73 4.049 19.11-6.524 27.685-.725 8.575 5.798 15.382 11.897 20.047 17.144 4.664 5.247 7.184 9.643 7.184 12.037z" sodipodi:nodetypes="cssccssscsssc" inkscape:connector-curvature="0"/><path style="font-size:12px;fill:url(#P);fill-rule:evenodd;stroke-width:1" d="M474.92 518.645c-.242 1.223-1.52 2.465-3.372 2.26-1.863-.256-3.616-1.037-3.373-2.26.297-1.248 1.52-2.46 3.373-2.26 1.912.256 3.67 1.063 3.373 2.26zm-.507-.06c-.347 1.083-1.124 1.87-2.834 1.6-1.63-.307-3.22-.559-2.934-1.6.347-1.083 1.21-1.857 2.934-1.703 1.73.205 3.12.662 2.834 1.703z" sodipodi:nodetypes="csssscssss" inkscape:connector-curvature="0"/><path style="fill:none;fill-opacity:1;fill-rule:evenodd;stroke:#000;stroke-width:1pt;stroke-linecap:round;stroke-linejoin:miter;stroke-opacity:1" d="M472.193 518.567c.938-1.41 1.615-2.984 1.9-4.583.352-1.98 1.23-3.593 1.42-5.687.109-1.186.274-2.346.437-3.526" sodipodi:nodetypes="cccc" inkscape:connector-curvature="0"/><path style="fill:none;fill-opacity:1;fill-rule:evenodd;stroke:#000;stroke-width:1pt;stroke-linecap:butt;stroke-linejoin:miter;stroke-opacity:1" d="M474.225 514.661c3.454-1.727 7.141-1.896 7.98-6.31" inkscape:connector-curvature="0"/><ellipse style="fill:url(#Q);fill-opacity:1;fill-rule:evenodd;stroke:none;stroke-width:1pt;stroke-linecap:butt;stroke-linejoin:miter;stroke-opacity:1" cx="565.66016" cy="178.32561" rx="42.897141" ry="42.072182"/><path style="font-size:12px;fill:none;fill-rule:evenodd;stroke:url(#R);stroke-linecap:round" d="M255.235 345.274c1.877-.94 3.889 1.313 6.103.688 7.022-1.982 3.155-3.07 10.203-.709 4.15 1.39 18.27-2.767 22.094-.669" inkscape:connector-curvature="0"/><ellipse style="font-size:12px;fill:url(#S);fill-rule:evenodd;stroke:url(#linearGradient2864);stroke-width:1.30045605" cx="272.71393" cy="339.84497" rx="17.130539" ry="8.7628345"/><path style="font-size:12px;fill:none;fill-rule:evenodd;stroke:url(#T);stroke-linecap:round" d="M255.674 337.854c4.308-2.597 3.03-2.51 5.908-4.978 6.8-.228 10.409-.956 14.142 1.545 3.487 1.704 8.86 3.329 12.684 1.23" sodipodi:nodetypes="cccc" inkscape:connector-curvature="0"/><path style="font-size:12px;fill:none;fill-rule:evenodd;stroke:url(#U);stroke-linecap:round" d="M254.934 337.22c4.308-2.597 8.74-2.933 11.618-6.036 6.59 1.464 11.466.102 15.2 2.603 3.487 1.703 6.533-3.228 7.82 3.98" sodipodi:nodetypes="cccc" inkscape:connector-curvature="0"/><path style="font-size:12px;fill:none;fill-rule:evenodd;stroke:url(#V);stroke-linecap:round" d="M256.537 339.162c4.308-2.597 8.106.24 6.754-3.71 6.8-.228 13.158-3.07 16.89-.569 3.488 1.704 5.9 4.175 9.724 2.076" sodipodi:nodetypes="cccc" inkscape:connector-curvature="0"/><path style="font-size:12px;fill:none;fill-rule:evenodd;stroke:url(#W);stroke-linecap:round" d="M291.157 340.814c-.924-9.787-11.913-5.046-14.79-7.515-6.801-.229-9.351-.956-13.085 1.545-3.487 1.703-7.802-.055-6.762 5.46" sodipodi:nodetypes="cccc" inkscape:connector-curvature="0"/><path style="font-size:12px;fill:url(#X);fill-rule:evenodd;stroke:url(#linearGradient2859);stroke-width:.91029984;stroke-opacity:1" d="M289.845 338.326c3.278 8.028-7.081 10.733-16.338 10.733-9.256 0-18.664 1.101-16.126-10.416.423 2.229 6.658 2.908 15.915 2.908 9.256 0 13.376.273 16.549-3.225z" sodipodi:nodetypes="ccccc" inkscape:connector-curvature="0"/><path style="font-size:12px;fill:none;fill-rule:evenodd;stroke:url(#Y);stroke-linecap:round" d="M261.595 334.893c-11.553 2.056-3.102 8.911-.225 6.442 6.801-.228 9.563-2.012 13.296.488 3.488 1.704 12.033-1.112 15.857-3.21" sodipodi:nodetypes="cccc" inkscape:connector-curvature="0"/><path style="font-size:12px;fill:none;fill-rule:evenodd;stroke:url(#Z);stroke-linecap:round" d="M256.34 344.467c7.18.939 7.203 4.432 9.639 2.626 6.8-.228 8.457-.245 13.296.488 3.266-1.832 9.27-11.08 11.747-6.365" sodipodi:nodetypes="cccc" inkscape:connector-curvature="0"/><path style="font-size:12px;fill:none;fill-rule:evenodd;stroke:url(#aa);stroke-linecap:round" d="M256.08 342.313c-1.083 3.925 3.044 4.274 5.258 3.649 7.022-1.982 3.155-3.07 10.203-.709 4.15 1.39 16.578-2.979 20.191-4.687" sodipodi:nodetypes="cccc" inkscape:connector-curvature="0"/><path style="font-size:12px;fill:none;fill-rule:evenodd;stroke:url(#ab);stroke-linecap:round" d="M259.212 345.35c4.53-4.806 10.74 2.223 15.164 1.743 5.917-.007 7.132-3.56 9.54-3.048 3.707 1.925 5.56 4.305 6.424.303" sodipodi:nodetypes="cccc" inkscape:connector-curvature="0"/><path style="font-size:12px;fill:none;fill-rule:evenodd;stroke:url(#ac);stroke-linecap:round" d="M255.674 339.123c5.154-1.328 11.913 5.739 14.79 3.27 6.801-.228 9.986-2.013 13.72.488 3.487 1.703 1.034-3.862 4.858-5.96" sodipodi:nodetypes="cccc" inkscape:connector-curvature="0"/><path style="font-size:12px;fill:url(#ad);fill-rule:evenodd;stroke-width:1" d="M292.214 338.137c0 1.709-.645 3.907-4.494 5.026-3.85 1.12 1.034-5.134-3.32-6.436-4.138.65-7.937 1.695-11.352-1.812-1.444-1.391-18.849-.249-9.85 6.987.895.741-2.235 4.028-4.581 3.171-2.346-.856-4.877-1.842-4.823-6.284-2.605-3.662 5.86-7.195 7.75-7.305 4.756-.822 9.384-4.091 11.785-2.789 5.874 2.171 7.995 4.029 14.825 3.874 4.66-.322 4.06 3.86 4.06 5.568z" sodipodi:nodetypes="cscssscscsc" inkscape:connector-curvature="0"/></svg>