<svg xmlns:dc="http://purl.org/dc/elements/1.1/" xmlns:cc="http://creativecommons.org/ns#" xmlns:rdf="http://www.w3.org/1999/02/22-rdf-syntax-ns#" xmlns="http://www.w3.org/2000/svg" width="800" height="640" viewBox="0 0 800 640.00003" version="1.1" id="svg1038"><metadata id="metadata1035"><rdf:RDF><cc:Work><dc:format>image/svg+xml</dc:format><dc:type rdf:resource="http://purl.org/dc/dcmitype/StillImage"/><dc:title/><dc:date>2023</dc:date><dc:creator><cc:Agent><dc:title>Timothée Giet</dc:title></cc:Agent></dc:creator><cc:license rdf:resource="http://creativecommons.org/licenses/by-sa/4.0/"/></cc:Work><cc:License rdf:about="http://creativecommons.org/licenses/by-sa/4.0/"><cc:permits rdf:resource="http://creativecommons.org/ns#Reproduction"/><cc:permits rdf:resource="http://creativecommons.org/ns#Distribution"/><cc:requires rdf:resource="http://creativecommons.org/ns#Notice"/><cc:requires rdf:resource="http://creativecommons.org/ns#Attribution"/><cc:permits rdf:resource="http://creativecommons.org/ns#DerivativeWorks"/><cc:requires rdf:resource="http://creativecommons.org/ns#ShareAlike"/></cc:License></rdf:RDF></metadata><path style="fill:#ee8339;fill-opacity:1;stroke:#633110;stroke-width:3;stroke-linecap:square;stroke-miterlimit:4;stroke-dasharray:none;stroke-opacity:1" d="M132.401 312.82s12.634-40.476 11.367-45.757c-1.267-5.28-26.964 3.11-30.563 5.729-3.598 2.618-9.379 17.775-14.846 26.723-5.468 8.948 25.289 16.181 34.042 13.304z" id="path874"/><path style="fill:#ee8339;fill-opacity:1;stroke:#633110;stroke-width:2;stroke-linecap:square;stroke-opacity:1" d="M354.657 274.75c12.537-18.57 69.137-102.259 71.054-103.302 1.917-1.044 50.037-26.363 61.23-19.49 10.083-2.739 40.63-12.08 43.65-12.313 3.022-.232 3.527 5.106-1.02 6.599-4.548 1.493-41.815 15.25-41.815 15.25-3.285 12.155-24.907 84.183-28.525 90.205-3.618 6.023-104.574 23.052-104.574 23.052z" id="path880"/><path style="fill:#ee8339;fill-opacity:1;stroke:#633110;stroke-width:3;stroke-linecap:square;stroke-miterlimit:4;stroke-dasharray:none;stroke-opacity:1" d="M200.31 306.92c43.563-7 124.849-29.826 173.666-44.82 48.818-14.995 143.718-44.045 208.52-49.483 64.802-5.438 140.015 9.159 144.109 9.066 4.093-.093 41.169-10.164 45.941-11.166 3.003-.63 7.3 9.002 2.31 10.677-4.6 1.544-45.713 13.264-47.32 14.479-3.212 2.428-88.514 68.266-127.53 89.813-26.062 14.394-245.906 73.57-304.404 82.046-58.498 8.476-214.613 12.923-214.613 12.923l-3.555-5.94s-7.137-2.026-8.758-7.751c-1.62-5.725-7.475-31.968-23.94-68.377-16.464-36.409-37.064-78.589-39.93-83.134-7.366-11.681 17.972-13.5 37.37-20.272 10.36-3.617 13.944.645 23.741 12.747 14.509 17.92 61.12 75.044 134.394 59.192z" id="path870"/><path style="fill:#ee8339;fill-opacity:1;stroke:#633110;stroke-width:3;stroke-linecap:square;stroke-miterlimit:4;stroke-dasharray:none;stroke-opacity:1" d="M66.31 337.574c-20.278 26.038-57.302 65.319-54.475 67.711 2.827 2.393 16.4 4.8 27.665-.61 11.267-5.41 40.648-38.916 48.588-45.055 7.94-6.139 30.534-21.317 33.714-30.378-5.97-9.025-37.235 1.292-55.491 8.332z" id="path872"/><path style="fill:#367ac3;fill-opacity:1;stroke:#2b3b4c;stroke-width:2;stroke-linecap:square;stroke-opacity:1" d="M596.708 210.954c5.937 3.05 10.764 5.973 8.93 8.769-1.834 2.795-31.178 9.926-35.081 14.32-3.903 4.393-1.121 34.426 1.396 36.3 5.485-1.603 44.9-9.357 48.839-11.829 3.94-2.471 27.288-16.25 30.032-19.906 2.743-3.655 9.894-25.804 11.446-26.016-15.473-1.212-52.308-3.565-65.562-1.638z" id="path876"/><path style="fill:#ee8339;fill-opacity:1;stroke:#633110;stroke-width:3;stroke-linecap:square;stroke-miterlimit:4;stroke-dasharray:none;stroke-opacity:1" d="M416.58 339.87 307.163 470.924s39.6-7.813 48.495-9.332c1.45-.248 4.121 9.026.249 9.73-7.453 1.354-50.621 9.625-56.383 10.852-6.687 6.993-68.065 23.557-74.867 18.646-4.001-2.89 66.321-120.97 73.606-132.852 64.919-19.01 97.03-34.975 118.317-28.098z" id="path878"/><path style="fill:#7f98b3;fill-opacity:1;stroke:#35393e;stroke-width:2;stroke-linecap:square;stroke-opacity:1" d="M530.19 139.875c2.584-.825 12.62-3.241 13.192-1.437.572 1.805-9.326 5.959-11.493 6.632-2.166.674-4.093-4.254-1.7-5.195z" id="path882-3"/><path style="fill:#7f98b3;fill-opacity:1;stroke:#35393e;stroke-width:2;stroke-linecap:square;stroke-opacity:1" d="M355.018 462.124c4.02-.84 19.5-2.854 20.048.116.548 2.97-15.02 7.766-18.388 8.442-3.367.677-5.413-7.498-1.66-8.558z" id="path882-3-6"/><path style="fill:#7f98b3;fill-opacity:1;stroke:#35393e;stroke-width:2;stroke-linecap:square;stroke-opacity:1" d="M771.692 210.75c5.018-1.362 24.408-5.064 25.278-1.348.87 3.715-18.467 10.944-22.67 12.05-4.204 1.108-7.275-9.08-2.608-10.701z" id="path882-3-7"/><path id="path1087-1" style="fill:#26397a;fill-opacity:1;stroke:none;stroke-width:3;stroke-linecap:square;stroke-miterlimit:4;stroke-dasharray:none;stroke-opacity:1" d="M226.84 354.413a23.595 23.595 0 0 0-6.82.892c-11.733 3.35-17.018 11.982-15.978 23.274l-23.44 5.216c.041 2.989 4.68 14.509 8.4 16.821 0 0 12.398-2.437 21.643-4.304 7.722 9.748 21.648 13.182 34.646 10.066 10.65-2.554 14.707-9.916 13.625-19.79 10.33-2.08 25.665-5.173 27.353-5.5-2.369-2.46-7.062-12.033-9.1-18.802l-25.48 5.676c-5.993-7.935-15.414-13.42-24.849-13.549z"/><path id="path1015" style="fill:#26397a;fill-opacity:1;stroke:none;stroke-width:1;stroke-linecap:square;stroke-miterlimit:4;stroke-dasharray:none;stroke-opacity:1" d="m448.521 183.494-14.667 6.252-6.453 12.75a8.8 24.112 59.535 0 0-2.982 1.65 8.8 24.112 59.535 0 0-16.322 19.812 8.8 24.112 59.535 0 0 7.403 2.053l-6.088 12.031 14.403-3.194 6.72-13.968a8.8 24.112 59.535 0 0 2.805-1.56 8.8 24.112 59.535 0 0 16.322-19.812 8.8 24.112 59.535 0 0-7.885-1.995z"/><path id="path1017-6" style="fill:#c1c1c1;fill-opacity:1;stroke:none;stroke-width:1;stroke-linecap:square;stroke-miterlimit:4;stroke-dasharray:none;stroke-opacity:1" d="m443.774 187.771-8.219 3.814-4.61 9.207a8.8 24.112 59.535 0 1 7.727-2.692zm-17.315 35.06a8.8 24.112 59.535 0 1-7.875 2.656l-4.362 8.712 7.437-1.651z"/><path style="fill:#c1c1c1;fill-opacity:1;stroke:none;stroke-width:1;stroke-linecap:square;stroke-miterlimit:4;stroke-dasharray:none;stroke-opacity:1" d="m418.365 210.177 2.983 2.875-9.05 8.765 12.201-5.609 3.543 4.374 5.956-9.558 12.618-5.75-11 .69 3.014-6.179-10.821 8.536z" id="path1062"/><path id="path1064" style="fill:#9c3939;fill-opacity:1;stroke:none;stroke-width:1;stroke-linecap:square;stroke-miterlimit:4;stroke-dasharray:none;stroke-opacity:1" d="m440.613 189.238-2.454 1.14-4.637 9.35a8.8 24.112 59.535 0 1 2.348-.828zm-17.058 34.754a8.8 24.112 59.535 0 1-2.469.829l-4.375 8.826 2.365-.526z"/><path style="fill:#c1c1c1;fill-opacity:1;stroke:none;stroke-width:1;stroke-linecap:square;stroke-miterlimit:4;stroke-dasharray:none;stroke-opacity:1" d="M221.184 377.01c-.378-5.723-.174-16.204.167-18.751 3.597 7.032 10.85 17.234 10.85 17.234 5.234-.898 17.906-4.31 17.906-4.31l-7.395 14.952 13.356 12.26-20.026-5.117-7.3 10.47s-4.086-10.303-5.083-14.614c-5.263-2.48-13.04-5.356-17.015-7.545 6.372-1.507 14.54-4.58 14.54-4.58z" id="path935"/><path id="path1112" style="fill:#c1c1c1;fill-opacity:1;stroke:none;stroke-width:3;stroke-linecap:square;stroke-miterlimit:4;stroke-dasharray:none;stroke-opacity:1" d="m274.006 367.064-20.02 4.355a31.924 31.924 0 0 1 2.191 4.547c.993 2.58 1.722 5.06 2.211 7.43 10.78-2.193 19.45-3.964 21.35-4.383-1.064-1.272-4.164-8.197-5.732-11.95zm-69.435 15.107-20.11 4.353c.678 2.215 2.847 8.179 5.83 10.59 0 0 10.681-2.095 18.388-3.651a27.154 27.154 0 0 1-2.145-4.46 44.4 44.4 0 0 1-1.963-6.832z"/><path id="path1135" style="fill:#9c3939;fill-opacity:1;stroke:none;stroke-width:3;stroke-linecap:square;stroke-miterlimit:4;stroke-dasharray:none;stroke-opacity:1" d="m275.786 371.157-19.793 4.361a48.914 48.914 0 0 1 1.35 3.843l20.233-4.342c-.592-1.23-1.19-2.517-1.79-3.862zm-70.403 14.634-19.597 4.425c.505 1.124 1.44 2.957 2.112 4.02l19.103-4.07c-.59-1.42-1.106-2.871-1.618-4.375z"/></svg>