<svg xmlns:dc="http://purl.org/dc/elements/1.1/" xmlns:cc="http://creativecommons.org/ns#" xmlns:rdf="http://www.w3.org/1999/02/22-rdf-syntax-ns#" xmlns="http://www.w3.org/2000/svg" version="1.0" xml:space="preserve" height="100" width="100"><metadata><rdf:RDF><cc:Work><dc:format>image/svg+xml</dc:format><dc:type rdf:resource="http://purl.org/dc/dcmitype/StillImage"/><dc:title/><dc:date>2021</dc:date><dc:creator><cc:Agent><dc:title>Timothée Giet</dc:title></cc:Agent></dc:creator><cc:license rdf:resource="http://creativecommons.org/licenses/by-sa/4.0/"/></cc:Work><cc:License rdf:about="http://creativecommons.org/licenses/by-sa/4.0/"><cc:permits rdf:resource="http://creativecommons.org/ns#Reproduction"/><cc:permits rdf:resource="http://creativecommons.org/ns#Distribution"/><cc:requires rdf:resource="http://creativecommons.org/ns#Notice"/><cc:requires rdf:resource="http://creativecommons.org/ns#Attribution"/><cc:permits rdf:resource="http://creativecommons.org/ns#DerivativeWorks"/><cc:requires rdf:resource="http://creativecommons.org/ns#ShareAlike"/></cc:License></rdf:RDF></metadata><g transform="translate(-6.893 -50.83) scale(.16441)"><rect y="640.46875" x="122.81217" height="104.00809" width="448.9924" style="opacity:1;vector-effect:none;fill:#5e1414;fill-opacity:1;stroke:none;stroke-width:2.98440313;stroke-linecap:round;stroke-linejoin:miter;stroke-miterlimit:4;stroke-dasharray:none;stroke-dashoffset:3.20000005;stroke-opacity:1"/><path style="fill:#c5efff;fill-opacity:1;fill-rule:evenodd;stroke:none;stroke-width:.98133337pt;stroke-linecap:butt;stroke-linejoin:miter;stroke-opacity:1" d="M189.739 448.148c-35.191-5.187-80.72 88.122-75.797 101.258 17.23 9.236 49.123 22.579 61.773 11.059 10.625-12.864 13.864-95.813 14.024-112.317z"/><path style="fill:#c5efff;fill-opacity:1;fill-rule:evenodd;stroke:none;stroke-width:.98133337pt;stroke-linecap:butt;stroke-linejoin:miter;stroke-opacity:1" d="M218.833 446.778c8.106-6.955 123.064-7.972 138.263 6.547 5.625 2.689 55.814 79.646 59.213 85.01 8.815 12.929 7.453 26.875-30.489 28.047-24.699.34-121.222-2.817-144.532-3.707-49.491-9.654-30.682-109.782-22.455-115.897z"/><path style="fill:#c5efff;fill-opacity:1;fill-rule:evenodd;stroke:none;stroke-width:.98133337pt;stroke-linecap:butt;stroke-linejoin:miter;stroke-opacity:1" d="M408.518 443.019c-9.692-1.481-20.648 5.34-26.805 12.191 15.753 21.98 62.23 80.74 80.377 98.261 21.751 20.936 41.629 17.774 57.803 20.128 10.046 1.29 60.436 2.43 30.157-19.491-10.515-8.553-128.18-108.46-141.532-111.089z"/><path style="font-size:12px;fill:#a80000;fill-opacity:1;fill-rule:evenodd;stroke:none;stroke-width:.98133326" d="M189.246 449.295c-42.802 4.238-74.653 73.638-73.206 90.251 5.638 5.759 48.815 11.995 57.987 6.27 1.949-36.443 10.212-79.338 15.22-96.521zm30.137-1.16c8.107-6.954 121.823-7.971 137.022 6.548 5.626 2.689 49 69.115 52.399 74.478 13.931 20.025 20.844 38.59-25.43 38.274-23.542-.77-111.773-9.166-137.52-10.533-50.415-.407-34.698-102.65-26.47-108.766zm187.227-7.33c-36.743-23.067-133.645-26.092-207.446-13.68-69.24 11.645-106.823 84.61-130.005 185.958-3.668 5.39 3.401 15.04-2.176 18.544-6.81 1.983 5.899 90.624 39.771 108.204-1.972-26.795 7.097-81.955 73.488-81.827 59.436.129 76.8 42.397 76.36 95.231l140.966.686c.165-39.901 15.9-91.367 75.207-91.196 83.84 1.5 74.598 75.757 77.387 92.274l54.08-.801c5.374-9.175 15.058-25.452 16.895-42.72 1.48-16.644 8.31-33.028 7.26-41.167-7.75-57.842-44.538-93.138-59.819-105.002-3.694-3.093-10.99-6.722-13.376-4.844-9.936 12.955-56.666 1.378-66.688-.08-15.039-2.187-27.267-9.29-36.856-19.536-17.196-18.375-53.782-62.161-69.536-84.14 6.158-6.852 15.346-13.532 25.038-12.05 6.787.22.236-3.135-.55-3.855z"/><path style="font-size:12px;fill:#da2525;fill-opacity:1;fill-rule:evenodd;stroke:none;stroke-width:.94834608" d="M194.4 444.348c-53.52 3.321-84.625 82.138-83.212 98.025 5.506 5.507 57.927 12.203 66.884 6.729 1.904-34.85 11.438-88.322 16.328-104.754zm22.84-.594c7.916-6.65 124.098-7.624 138.942 6.26 5.493 2.572 55.91 78.032 59.229 83.16 13.605 19.15 12.3 38.368-32.892 38.066-22.99-.736-117.946-9.864-143.09-11.171-49.236-.389-30.224-110.467-22.19-116.315zm183.577-4.595c-75.802-20.594-126.123-17.626-198.196-5.756C135 444.538 98.298 514.313 75.658 611.23c-3.581 5.154 3.322 14.382-2.125 17.734-6.65 1.896 5.761 86.661 38.841 103.473-1.927-25.624 6.931-78.372 71.768-78.25 58.044.123 77.2 40.544 76.77 91.068l133.272.656c.16-38.156 21.388-87.372 79.306-87.21 81.878 1.435 77.614 72.447 80.337 88.242l44.391-.767c5.248-8.774 14.706-24.34 16.5-40.853 1.445-15.915 8.114-31.583 7.09-39.366-7.569-55.314-43.496-89.067-58.419-100.412-3.608-2.958-8.17-1.302-10.5.495-9.703 12.389-57.903-.513-67.69-1.907-14.687-2.092-26.63-12.18-35.994-21.979-16.793-17.571-55.453-65.303-70.838-86.321 6.014-6.552 13.522-14.405 22.987-12.989 6.628.211.23-2.997-.537-3.685z"/><path style="fill:#575757;fill-opacity:1;fill-rule:evenodd;stroke:none;stroke-width:.98133337pt;stroke-linecap:butt;stroke-linejoin:miter;stroke-opacity:1" d="M118.887 751.011c-25.266 2.028-58.824-44.638-61.282-118.227 3.173-7.138 22.734-13.56 44.641-10.574 35.526 4.15 121.108 10.177 139.304 64.446-82.256-60.707-123.116 8.875-122.663 64.355z"/><path style="fill:#7f7f7f;fill-opacity:1;fill-rule:evenodd;stroke:none;stroke-width:.98133337pt;stroke-linecap:butt;stroke-linejoin:miter;stroke-opacity:1" d="M106.95 739.073c-6.955 2.761-39.344-32.7-41.802-106.289 3.173-7.138 15.19-8.947 37.098-5.96 35.526 4.15 109.17 10.472 133.226 51.557-69.804-54.115-128.976 5.212-128.523 60.692z"/><path style="font-size:12px;fill:#575757;fill-opacity:1;fill-rule:evenodd;stroke:none;stroke-width:1.12015021;stroke-opacity:1" d="M522.37 665.905c21.66 17.206 32.608 43.31 35.253 75.901l59.517.408c9.034-17.09 23.575-49.077 15.413-76.64z"/><path style="font-size:12px;fill:gray;fill-rule:evenodd;stroke:none;stroke-width:.98133332;stroke-opacity:1" d="M530.427 669.526c18.982 15.069 28.577 37.93 30.895 66.471l52.16.357c7.917-14.967 20.661-42.98 13.509-67.117z"/><path style="font-size:12px;fill:#232322;fill-opacity:1;fill-rule:evenodd;stroke-width:.98133332" d="M220.318 734.267c0 21.002-17.025 38.027-38.026 38.027-21.002 0-38.027-17.025-38.027-38.027 0-21.001 17.025-38.026 38.027-38.026 21.001 0 38.026 17.025 38.026 38.026zm31.894-.41c0 38.616-31.305 69.92-69.92 69.92-38.616 0-69.92-31.304-69.92-69.92 0-38.615 31.304-69.92 69.92-69.92 38.615 0 69.92 31.305 69.92 69.92z"/><path style="font-size:12px;fill:#232322;fill-opacity:1;fill-rule:evenodd;stroke-width:.98133332" d="M512.103 737.136c0 21.001-17.025 38.027-38.027 38.027-21.002 0-38.027-17.026-38.027-38.027 0-21.002 17.025-38.027 38.027-38.027 21.002 0 38.027 17.025 38.027 38.027zm31.893-.41c0 38.616-31.304 69.92-69.92 69.92s-69.92-31.304-69.92-69.92 31.304-69.92 69.92-69.92 69.92 31.304 69.92 69.92z"/><ellipse ry="38.026688" rx="38.026638" cy="734.26721" cx="182.29182" style="fill:#7f7f7f;fill-opacity:1;fill-rule:evenodd;stroke:#343434;stroke-width:5.96880627;stroke-linecap:butt;stroke-linejoin:miter;stroke-miterlimit:4;stroke-dasharray:none;stroke-opacity:1"/><ellipse ry="28.977844" rx="17.966265" cy="855.13098" cx="26.087666" style="fill:#a80000;fill-opacity:1;fill-rule:evenodd;stroke:none;stroke-width:.98133337pt;stroke-linecap:butt;stroke-linejoin:miter;stroke-opacity:1" transform="rotate(-41.614)"/><path style="fill:none;fill-opacity:1;fill-rule:evenodd;stroke:#a80000;stroke-width:2.98440313;stroke-linecap:butt;stroke-linejoin:miter;stroke-miterlimit:4;stroke-dasharray:none;stroke-opacity:1" d="M207.592 438.223c-10.655 27.4-20.083 94.769-12.38 130.526.354 12.104 22.172 33.984 51.162 70.024 12.834 16.343 22.633 61.686 24.145 90.013l113.347-.387c.183-53.018 41.735-85 59.915-83.209 19.46-36.157 24.448-48.536 10.382-69.537-22.148-40.505-81.58-126.14-94.827-133.292-13.543-11.8-128.853-12.336-151.744-4.138z"/><ellipse ry="9.8878174" rx="27.344055" cy="598.69421" cx="254.77333" style="fill:#a80000;fill-opacity:1;fill-rule:evenodd;stroke:none;stroke-width:1.24018398pt;stroke-linecap:butt;stroke-linejoin:miter;stroke-opacity:1"/><ellipse ry="7.3765612" rx="22.94935" cy="599.79285" cx="254.77333" style="fill:#da2525;fill-opacity:1;fill-rule:evenodd;stroke:none;stroke-width:.98133337pt;stroke-linecap:butt;stroke-linejoin:miter;stroke-opacity:1"/><path d="M88.743 591.796c-5.18 20.546-14.734 33.677-21.155 32.265-6.422-1.412-14.754-31.607-7.873-51.648 6.88-20.04 19.777-22.337 26.198-20.925 6.421 1.411 7.514 21.732 2.83 40.308z" style="fill:#8d2e2e;fill-opacity:1;fill-rule:evenodd;stroke:none;stroke-width:1.29145226pt;stroke-linecap:butt;stroke-linejoin:miter;stroke-opacity:1"/><path d="M85.35 589.564c-4.677 17.023-12.007 29.85-16.372 28.652-4.365-1.2-7.042-26.226-2.364-43.25 4.677-17.022 14.937-19.596 19.302-18.396 4.365 1.2 4.111 15.971-.566 32.994z" style="fill:#de3333;fill-opacity:1;fill-rule:evenodd;stroke:none;stroke-width:.98133337pt;stroke-linecap:butt;stroke-linejoin:miter;stroke-opacity:1"/><ellipse ry="38.026688" rx="38.026638" cy="737.13593" cx="474.07599" style="fill:#7f7f7f;fill-opacity:1;fill-rule:evenodd;stroke:#343434;stroke-width:5.96880627;stroke-linecap:butt;stroke-linejoin:miter;stroke-miterlimit:4;stroke-dasharray:none;stroke-opacity:1"/><ellipse ry="23.828928" rx="14.773936" cy="855.13098" cx="26.087696" style="fill:#f6eeaf;fill-opacity:1;fill-rule:evenodd;stroke:none;stroke-width:.80696556pt;stroke-linecap:butt;stroke-linejoin:miter;stroke-opacity:1" transform="rotate(-41.614)"/></g></svg>