<?xml version="1.0" encoding="UTF-8" standalone="no"?>
<svg
   xmlns:dc="http://purl.org/dc/elements/1.1/"
   xmlns:cc="http://creativecommons.org/ns#"
   xmlns:rdf="http://www.w3.org/1999/02/22-rdf-syntax-ns#"
   xmlns:svg="http://www.w3.org/2000/svg"
   xmlns="http://www.w3.org/2000/svg"
   version="1.0"
   xml:space="preserve"
   height="100"
   width="100"
   id="svg602"><metadata
     id="metadata24"><rdf:RDF><cc:Work
         rdf:about=""><dc:format>image/svg+xml</dc:format><dc:type
           rdf:resource="http://purl.org/dc/dcmitype/StillImage" /><dc:title></dc:title><dc:date>2021</dc:date><dc:creator><cc:Agent><dc:title>Timothée Giet</dc:title></cc:Agent></dc:creator><cc:license
           rdf:resource="http://creativecommons.org/licenses/by-sa/4.0/" /></cc:Work><cc:License
         rdf:about="http://creativecommons.org/licenses/by-sa/4.0/"><cc:permits
           rdf:resource="http://creativecommons.org/ns#Reproduction" /><cc:permits
           rdf:resource="http://creativecommons.org/ns#Distribution" /><cc:requires
           rdf:resource="http://creativecommons.org/ns#Notice" /><cc:requires
           rdf:resource="http://creativecommons.org/ns#Attribution" /><cc:permits
           rdf:resource="http://creativecommons.org/ns#DerivativeWorks" /><cc:requires
           rdf:resource="http://creativecommons.org/ns#ShareAlike" /></cc:License></rdf:RDF></metadata><defs
     id="defs604" /><g
     transform="matrix(0.175279,0,0,0.175279,-70.88448,-29.046482)"
     id="g627"><path
       id="path606-3"
       d="m 769.45064,340.42416 c 7.72245,30.45056 4.18168,82.55742 -2.2651,101.32264 5.90915,36.7805 -2.67138,78.32863 -11.97864,92.51197 2.27641,21.80519 -9.30206,70.98438 -18.65576,90.46091 1.45773,23.63393 -18.79938,97.24819 -36.19693,97.24819 -16.62532,0.69291 -49.38269,-92.171 -48.14144,-110.72742 -11.11466,-4.00562 -25.29852,-65.354 -21.76622,-95.86391 -11.14038,-12.4946 -15.37605,-71.06218 -8.91113,-90.29308 -12.84119,-17.84512 -18.843,-73.26499 -12.66505,-89.85763 -16.84142,-83.51406 32.30758,-80.57999 80.27501,-76.73286 47.9673,-3.52657 88.02552,6.17615 80.30526,81.93119 z"
       style="font-size:12px;fill:#9e5627;fill-opacity:1;fill-rule:evenodd;stroke-width:1.0944649" /><path
       id="path606"
       d="m 757.60835,345.38233 c 6.57619,28.90023 3.56098,78.35417 -1.92887,96.16399 5.03203,34.90789 -2.27486,74.34067 -10.20061,87.80189 1.93852,20.69503 -7.92132,67.37035 -15.88663,85.85528 1.24136,22.43064 -16.00892,92.29698 -30.82408,92.29698 -14.15757,0.65761 -42.05265,-87.47829 -40.99563,-105.08995 -9.46489,-3.80168 -21.54338,-62.02663 -18.5354,-90.98318 -9.48676,-11.85846 -13.09372,-67.44418 -7.58841,-85.69598 -10.93513,-16.93656 -16.04607,-69.53483 -10.78513,-85.2827 -14.34159,-79.26209 27.51205,-76.47741 68.3595,-72.82614 40.84735,-3.34704 74.95959,5.86171 68.38526,77.75981 z"
       style="font-size:12px;fill:#ea8644;fill-opacity:1;fill-rule:evenodd;stroke-width:0.98392969" /><path
       id="path852-5"
       d="m 696.62251,215.11171 c 1.43651,-23.91125 1.8356,-24.93432 0.36373,-28.02864 -2.43532,-5.11978 -30.72094,-4.35561 -30.72094,-4.35561 0,0 4.867,17.33227 11.78685,51.35772 -4.46395,-17.38437 -9.31875,-33.31334 -12.34586,-35.94615 -3.72005,-3.23551 -31.14662,7.40164 -31.14662,7.40164 0,0 32.1866,45.24152 39.16171,71.57104 4.48944,5.34745 20.7774,3.61379 24.63321,-0.98641 9.76514,-45.81679 38.50409,-85.98347 38.50409,-85.98347 0,0 -20.28687,-15.23953 -29.91241,-8.39588 -5.44047,4.98361 -6.95561,12.67962 -10.32376,33.36576 z"
       style="fill:#24731b;fill-opacity:1;stroke:none;stroke-width:6.04505587px;stroke-linecap:butt;stroke-linejoin:miter;stroke-opacity:1" /><path
       id="path852"
       d="m 710.05449,184.58417 c -0.86463,0.0472 -1.56332,0.25894 -2.02832,0.69072 -2.37337,2.20378 -9.14028,28.54978 -14.65871,50.89434 1.43651,-20.61912 2.76561,-43.55543 1.29374,-46.22372 -2.43531,-4.41489 -22.81583,-3.35495 -22.81583,-3.35495 0,0 7.19203,37.40103 9.46183,67.14279 -4.46395,-14.99086 -14.89884,-49.57785 -17.92595,-51.84818 -3.72005,-2.79004 -22.31149,5.58061 -22.31149,5.58061 0,0 26.03837,39.06124 36.26851,64.17158 4.48945,4.61122 13.816,3.96686 17.67182,2e-5 9.76513,-35.27308 35.3385,-79.45523 35.3385,-79.45523 0,0 -14.24178,-7.92855 -20.29414,-7.59797 z"
       style="fill:#2fa023;fill-opacity:1;stroke:none;stroke-width:5.61350632px;stroke-linecap:butt;stroke-linejoin:miter;stroke-opacity:1" /></g><path
     id="path817"
     d="m 44.409231,76.543432 c 0,0 5.272972,2.058263 5.908566,2.37606 -2.648305,-0.211865 -7.097458,-1.90678 -7.097458,-1.90678 z"
     style="fill:#9e5627;stroke:none;stroke-width:1px;stroke-linecap:butt;stroke-linejoin:miter;stroke-opacity:1;fill-opacity:1" /><path
     id="path817-3"
     d="m 41.160365,60.595991 c 0,0 5.272972,2.058263 5.908566,2.37606 -2.648305,-0.211865 -7.097458,-1.90678 -7.097458,-1.90678 z"
     style="fill:#9e5627;fill-opacity:1;stroke:none;stroke-width:1px;stroke-linecap:butt;stroke-linejoin:miter;stroke-opacity:1" /><path
     id="path817-6"
     d="m 39.830276,45.575285 c 0,0 5.272972,2.058263 5.908566,2.37606 -2.648305,-0.211865 -7.097458,-1.90678 -7.097458,-1.90678 z"
     style="fill:#9e5627;fill-opacity:1;stroke:none;stroke-width:1px;stroke-linecap:butt;stroke-linejoin:miter;stroke-opacity:1" /><path
     id="path817-6-7"
     d="m 37.939869,30.627019 c 0,0 5.272972,2.058263 5.908566,2.37606 -2.648305,-0.211865 -7.097458,-1.90678 -7.097458,-1.90678 z"
     style="fill:#9e5627;fill-opacity:1;stroke:none;stroke-width:1px;stroke-linecap:butt;stroke-linejoin:miter;stroke-opacity:1" /></svg>