<?xml version="1.0" encoding="UTF-8" standalone="no"?>
<svg
   xmlns:dc="http://purl.org/dc/elements/1.1/"
   xmlns:cc="http://creativecommons.org/ns#"
   xmlns:rdf="http://www.w3.org/1999/02/22-rdf-syntax-ns#"
   xmlns:svg="http://www.w3.org/2000/svg"
   xmlns="http://www.w3.org/2000/svg"
   version="1.0"
   xml:space="preserve"
   height="100"
   width="100"
   id="svg668"><metadata
     id="metadata22"><rdf:RDF><cc:Work
         rdf:about=""><dc:format>image/svg+xml</dc:format><dc:type
           rdf:resource="http://purl.org/dc/dcmitype/StillImage" /><dc:title></dc:title><dc:date>2021</dc:date><dc:creator><cc:Agent><dc:title>Timothée Giet</dc:title></cc:Agent></dc:creator><cc:license
           rdf:resource="http://creativecommons.org/licenses/by-sa/4.0/" /></cc:Work><cc:License
         rdf:about="http://creativecommons.org/licenses/by-sa/4.0/"><cc:permits
           rdf:resource="http://creativecommons.org/ns#Reproduction" /><cc:permits
           rdf:resource="http://creativecommons.org/ns#Distribution" /><cc:requires
           rdf:resource="http://creativecommons.org/ns#Notice" /><cc:requires
           rdf:resource="http://creativecommons.org/ns#Attribution" /><cc:permits
           rdf:resource="http://creativecommons.org/ns#DerivativeWorks" /><cc:requires
           rdf:resource="http://creativecommons.org/ns#ShareAlike" /></cc:License></rdf:RDF></metadata><defs
     id="defs670" /><g
     id="layer2"
     style="stroke-width:1;stroke-miterlimit:4;stroke-dasharray:none"><path
       id="path912-2"
       d="M 36.744013,3.2718423 C 44.854385,33.116702 17.460779,38.832256 22.539301,58.279671 l 8.232983,31.526941 c 2.410001,9.228727 36.045431,9.228727 38.455432,0 L 77.4607,58.279671 C 82.539221,38.832256 55.145615,33.116702 63.255988,3.2718423 Z"
       style="opacity:1;vector-effect:none;fill:#dba688;fill-opacity:1;stroke:#754b33;stroke-width:1.54368448;stroke-linecap:round;stroke-linejoin:miter;stroke-miterlimit:4;stroke-dasharray:none;stroke-dashoffset:3.20000005;stroke-opacity:1" /><path
       id="rect921"
       d="m 38.096139,18.713202 c -0.03088,0.343968 -0.0552,0.692804 -0.09648,1.029123 h 24.000684 c -0.04128,-0.336319 -0.06561,-0.685155 -0.09648,-1.029123 z m -0.575423,3.083147 c -0.09221,0.350123 -0.200879,0.687461 -0.30351,1.029123 h 25.56559 c -0.102639,-0.341662 -0.211306,-0.679 -0.303512,-1.029123 z m -1.373676,3.083147 c -0.15616,0.347655 -0.317627,0.689932 -0.482401,1.029124 H 64.335362 C 64.170587,25.569428 64.009121,25.227151 63.852961,24.879496 Z M 22.99939,48.601515 c -0.128584,0.340401 -0.24668,0.683774 -0.35577,1.029123 h 54.712761 c -0.10909,-0.345349 -0.227186,-0.688722 -0.355771,-1.029123 z m -0.693553,3.035179 c 0.0035,0.340827 3.95e-4,0.679006 0.02613,1.029123 h 55.336068 c 0.02574,-0.350117 0.02258,-0.688296 0.02613,-1.029123 z m -0.418822,3.083147 0.267332,1.029123 h 55.250984 l 0.267331,-1.029123 z"
       style="opacity:1;vector-effect:none;fill:#754b33;fill-opacity:1;stroke:none;stroke-width:0.85936862;stroke-linecap:round;stroke-linejoin:miter;stroke-miterlimit:4;stroke-dasharray:none;stroke-dashoffset:3.20000005;stroke-opacity:1" /></g></svg>