<svg xmlns:dc="http://purl.org/dc/elements/1.1/" xmlns:cc="http://creativecommons.org/ns#" xmlns:rdf="http://www.w3.org/1999/02/22-rdf-syntax-ns#" xmlns="http://www.w3.org/2000/svg" version="1.0" xml:space="preserve" height="100" width="100"><metadata><rdf:RDF><cc:Work><dc:format>image/svg+xml</dc:format><dc:type rdf:resource="http://purl.org/dc/dcmitype/StillImage"/><dc:title/><dc:date>2021</dc:date><dc:creator><cc:Agent><dc:title>Timothée Giet</dc:title></cc:Agent></dc:creator><cc:license rdf:resource="http://creativecommons.org/licenses/by-sa/4.0/"/></cc:Work><cc:License rdf:about="http://creativecommons.org/licenses/by-sa/4.0/"><cc:permits rdf:resource="http://creativecommons.org/ns#Reproduction"/><cc:permits rdf:resource="http://creativecommons.org/ns#Distribution"/><cc:requires rdf:resource="http://creativecommons.org/ns#Notice"/><cc:requires rdf:resource="http://creativecommons.org/ns#Attribution"/><cc:permits rdf:resource="http://creativecommons.org/ns#DerivativeWorks"/><cc:requires rdf:resource="http://creativecommons.org/ns#ShareAlike"/></cc:License></rdf:RDF></metadata><path d="M51.753 38.207c8.656 16.391 5.103 44.202 2.893 47.885s-1.842 9.49-1.842 9.49 4.402 2.762 4.77 1.657c.368-1.105.552-7.648 1.473-9.305.921-1.658 5.665-30.856-2.807-48.353-8.472-17.496-4.487-1.374-4.487-1.374z" style="fill:#2d6e3d;fill-opacity:1;stroke:none;stroke-width:1.06126583px;stroke-linecap:butt;stroke-linejoin:miter;stroke-opacity:1"/><path d="M52.795 38.207c8.656 16.391 4.972 44.202 2.762 47.885-2.21 3.683-1.842 7.367-1.842 7.367s2.579 2.763 2.947 1.658c.369-1.105.553-5.526 1.474-7.183.92-1.658 5.404-31.116-3.068-48.613s-2.273-1.114-2.273-1.114z" style="fill:#399e51;fill-opacity:1;stroke:none;stroke-width:1.06126583px;stroke-linecap:butt;stroke-linejoin:miter;stroke-opacity:1"/><path d="M55.424 35.055c3.198-2.866 14.448-7.165 17.656-7.87-4.777-2.126-15.144-1.542-16.559-.932-1.414.61-6.09 10.345-1.097 8.802z" style="fill:#356540;fill-opacity:1;stroke:none;stroke-width:.79673338px;stroke-linecap:butt;stroke-linejoin:miter;stroke-opacity:1"/><path d="M56.417 33.904c3.198-2.867 12.183-6.11 15.391-6.816-3.976-1.636-13.729-1.017-15.143-.407-1.415.61-5.242 8.766-.248 7.223z" style="fill:#45b360;fill-opacity:1;stroke:none;stroke-width:.79673338px;stroke-linecap:butt;stroke-linejoin:miter;stroke-opacity:1"/><path d="M51.15 38.638c-3.61 2.329-10.726 12.044-12.253 14.953-.789-5.169 2.511-15.014 3.473-16.218.962-1.203 11.586-3.144 8.78 1.265z" style="fill:#356540;fill-opacity:1;stroke:none;stroke-width:.79673338px;stroke-linecap:butt;stroke-linejoin:miter;stroke-opacity:1"/><path d="M49.777 39.292c-3.61 2.329-9.11 10.138-10.637 13.047-.529-4.268 2.643-13.511 3.605-14.714.962-1.204 9.838-2.742 7.032 1.667z" style="fill:#45b360;fill-opacity:1;stroke:none;stroke-width:.79673338px;stroke-linecap:butt;stroke-linejoin:miter;stroke-opacity:1"/><path d="M49.668 37.359c5.535 1.628 18.363 11.33 21.423 14.456-.911-6.837-8.856-18.102-10.549-19.275-1.693-1.172-16.148.26-10.874 4.819z" style="fill:#356540;fill-opacity:1;stroke:none;stroke-width:1.06126583px;stroke-linecap:butt;stroke-linejoin:miter;stroke-opacity:1"/><path d="M51.687 37.685c5.535 1.627 15.562 9.506 18.623 12.632-.912-5.6-8.465-16.149-10.158-17.32-1.693-1.173-13.74.13-8.465 4.688z" style="fill:#45b360;fill-opacity:1;stroke:none;stroke-width:1.06126583px;stroke-linecap:butt;stroke-linejoin:miter;stroke-opacity:1"/><path d="M39.445 25.964c-3.451-2.865-6.707-4.168-7.228-4.363-.52-.195-2.214-5.6-1.172-7.098 1.042-1.497 5.665-5.86 9.247-2.474 3.58 3.386 9.376 13.284 9.376 13.284z" style="fill:#9f1641;fill-opacity:1;stroke:none;stroke-width:1.06126583px;stroke-linecap:butt;stroke-linejoin:miter;stroke-opacity:1"/><path d="M39.482 25.378c-3.131-2.657-6.085-3.864-6.558-4.045-.472-.181-2.008-5.192-1.063-6.58.945-1.39 5.14-5.434 8.389-2.295 3.249 3.14 8.507 12.316 8.507 12.316z" style="fill:#e33b70;fill-opacity:1;stroke:none;stroke-width:.97332728px;stroke-linecap:butt;stroke-linejoin:miter;stroke-opacity:1"/><path d="M44.868 26.67c-4.716-14.42-2.83-20.338-2.515-20.746.314-.408 10.502-6.53 15.973-1.36 5.472 5.17 4.557 9.975 2.33 16.595-1.583 4.7-15.788 5.512-15.788 5.512z" style="fill:#9f1641;fill-opacity:1;stroke:none;stroke-width:1.06597054px;stroke-linecap:butt;stroke-linejoin:miter;stroke-opacity:1"/><path d="M42.245 26.68c-4.233-4.167-5.405-6.381-7.033-6.837-1.627-.456-2.279-4.428.066-5.6 2.344-1.172 5.534-.977 5.99-.586.456.39 7.489 6.12 7.489 6.12z" style="fill:#9f1641;fill-opacity:1;stroke:none;stroke-width:1.06126583px;stroke-linecap:butt;stroke-linejoin:miter;stroke-opacity:1"/><path d="M45.142 26.29c-4.498-13.805-2.699-19.47-2.399-19.86.3-.392 10.017-6.252 15.235-1.303 5.219 4.949 3.495 9.75 2.158 15.752-1.03 4.627-14.994 5.41-14.994 5.41z" style="fill:#e33b70;fill-opacity:1;stroke:none;stroke-width:1.01856732px;stroke-linecap:butt;stroke-linejoin:miter;stroke-opacity:1"/><path d="M42.17 25.508C38.396 21.911 37.35 20 35.9 19.606c-1.451-.393-2.032-3.822.058-4.833 2.09-1.012 4.935-.844 5.341-.506.406.337 6.676 5.283 6.676 5.283z" style="fill:#e33b70;fill-opacity:1;stroke:none;stroke-width:.93098903px;stroke-linecap:butt;stroke-linejoin:miter;stroke-opacity:1"/><path d="M56.961 24.466C53.575 19.192 46.087 10.531 45.696 9.23c-.39-1.302-5.535-1.823-5.795 3.842-.26 5.665 2.279 16.409 6.12 16.93 3.843.52 12.112 2.279 10.94-5.535z" style="fill:#9f1641;fill-opacity:1;stroke:none;stroke-width:1.06126583px;stroke-linecap:butt;stroke-linejoin:miter;stroke-opacity:1"/><path d="M56.124 24.142C53.02 19.21 45.309 11.24 44.951 10.021c-.358-1.219-4.227-1.836-4.466 3.463-.238 5.299 2.09 15.348 5.611 15.836 3.522.487 11.102 2.131 10.028-5.178z" style="fill:#e33b70;fill-opacity:1;stroke:none;stroke-width:.98269874px;stroke-linecap:butt;stroke-linejoin:miter;stroke-opacity:1"/><path d="M43.938 13.266c-2.28.26-5.405 1.758-4.884 6.056 2.28.651 5.535 2.8 5.535 2.8l.716-5.535z" style="fill:#9f1641;fill-opacity:1;stroke:none;stroke-width:1.06126583px;stroke-linecap:butt;stroke-linejoin:miter;stroke-opacity:1"/><path d="M43.83 14.113c-1.809.212-4.29 1.435-3.876 4.942 1.809.532 4.392 2.286 4.392 2.286l.569-4.518z" style="fill:#e33b70;fill-opacity:1;stroke:none;stroke-width:.85409904px;stroke-linecap:butt;stroke-linejoin:miter;stroke-opacity:1"/><path d="M46.087 14.308c-2.67-3.125-2.019-2.735-2.605-2.67-.586.065.196 3.712-1.563 5.275-1.758 1.562-4.818 1.302-4.818 2.279 0 .976 7.749 6.642 8.595 6.967.847.326 1.758-8.986.39-11.85z" style="fill:#9f1641;fill-opacity:1;stroke:none;stroke-width:1.06126583px;stroke-linecap:butt;stroke-linejoin:miter;stroke-opacity:1"/><path d="M45.916 14.987c-2.463-2.79-1.54-2.365-2.081-2.307-.54.058.18 3.313-1.442 4.707-1.622 1.395-4.446 1.163-4.446 2.034 0 .872 5.652 4.69 6.433 4.981.78.29 2.798-6.858 1.536-9.415z" style="fill:#e33b70;fill-opacity:1;stroke:none;stroke-width:.96301967px;stroke-linecap:butt;stroke-linejoin:miter;stroke-opacity:1"/><path d="M34.3 23.88c9.508.651 17.061-3.125 19.015-2.344 1.953.781 8.855 13.283.781 15.042C46.022 38.336 39.25 27.2 34.301 23.88z" style="fill:#9f1641;fill-opacity:1;stroke:none;stroke-width:1.06126583px;stroke-linecap:butt;stroke-linejoin:miter;stroke-opacity:1"/><path d="M45.11 9.75c.912 3.777.912 14.39.716 15.432.651-2.279.651-13.87.26-14.65-.39-.782-.976-.782-.976-.782z" style="fill:#9f1641;fill-opacity:1;stroke:none;stroke-width:1.06126583px;stroke-linecap:butt;stroke-linejoin:miter;stroke-opacity:1"/><path d="M36.19 24.524c9.296.562 14.795-2.766 16.705-2.091 1.91.675 8.66 11.479.765 12.998-7.897 1.52-12.631-8.038-17.47-10.907z" style="fill:#e33b70;fill-opacity:1;stroke:none;stroke-width:.97559863px;stroke-linecap:butt;stroke-linejoin:miter;stroke-opacity:1"/><path d="M53.836 20.168c-1.368-8.334.13-11.2.586-11.59.455-.39 4.297 11.656 6.772 12.828 2.474 1.172 4.167 16.018-2.735 16.474-6.902.456-1.72-20.739-4.037-26.697-.912-2.345-.586 8.985-.586 8.985z" style="fill:#9f1641;fill-opacity:1;stroke:none;stroke-width:1.06126583px;stroke-linecap:butt;stroke-linejoin:miter;stroke-opacity:1"/><path d="M58.85 36.708c-4.63 1.135-2.671-21.243-3.126-23.637 1.758 5.144 3.842 8.66 5.079 9.897 1.237 1.238 3.516 12.242-1.954 13.74z" style="fill:#e33b70;fill-opacity:1;stroke:none;stroke-width:1.06126583px;stroke-linecap:butt;stroke-linejoin:miter;stroke-opacity:1"/><path d="M51.726 36.605c-1.327-5.648-16.26-12.594-24.806-14.246 2.496 2.36 11.307 14.464 14.333 16.086 3.026 1.622 11.69 3.343 10.473-1.84z" style="fill:#9f1641;fill-opacity:1;stroke:none;stroke-width:1.21713948px;stroke-linecap:butt;stroke-linejoin:miter;stroke-opacity:1"/><path d="M50.521 36.384c-1.491-4.271-11.811-9.71-21.583-12.722 2.15 2.083 10.188 12.397 12.793 13.83 2.604 1.432 10.336 3.319 8.79-1.108z" style="fill:#e33b70;fill-opacity:1;stroke:none;stroke-width:1.06126583px;stroke-linecap:butt;stroke-linejoin:miter;stroke-opacity:1"/></svg>