<?xml version="1.0" encoding="UTF-8" standalone="no"?>
<!-- Created with Sodipodi ("http://www.sodipodi.com/") -->

<svg
   xmlns:dc="http://purl.org/dc/elements/1.1/"
   xmlns:cc="http://creativecommons.org/ns#"
   xmlns:rdf="http://www.w3.org/1999/02/22-rdf-syntax-ns#"
   xmlns:svg="http://www.w3.org/2000/svg"
   xmlns="http://www.w3.org/2000/svg"
   xmlns:xlink="http://www.w3.org/1999/xlink"
   xmlns:sodipodi="http://sodipodi.sourceforge.net/DTD/sodipodi-0.dtd"
   xmlns:inkscape="http://www.inkscape.org/namespaces/inkscape"
   id="svg602"
   sodipodi:version="0.32"
   width="100.09355"
   height="100.09445"
   xml:space="preserve"
   sodipodi:docname="football.svg"
   inkscape:version="0.91 r13725"
   inkscape:output_extension="org.inkscape.output.svg.inkscape"
   sodipodi:modified="true"
   version="1.0"><metadata
     id="metadata48"><rdf:RDF><cc:Work
         rdf:about=""><dc:format>image/svg+xml</dc:format><dc:type
           rdf:resource="http://purl.org/dc/dcmitype/StillImage" /><dc:title /></cc:Work></rdf:RDF></metadata><defs
     id="defs604"><linearGradient
       id="linearGradient643"><stop
         style="stop-color:#ffffff;stop-opacity:1;"
         offset="0"
         id="stop644" /><stop
         style="stop-color:#cccccc;stop-opacity:1;"
         offset="1"
         id="stop645" /></linearGradient><linearGradient
       id="linearGradient624"><stop
         style="stop-color:#999999;stop-opacity:1;"
         offset="0"
         id="stop625" /><stop
         style="stop-color:#ffffff;stop-opacity:1;"
         offset="1"
         id="stop626" /></linearGradient><linearGradient
       id="linearGradient615"><stop
         style="stop-color:#000;stop-opacity:1;"
         offset="0"
         id="stop616" /><stop
         style="stop-color:#fff;stop-opacity:1;"
         offset="1"
         id="stop617" /></linearGradient><radialGradient
       inkscape:collect="always"
       xlink:href="#linearGradient615"
       id="radialGradient2285"
       cx="365.44556"
       cy="723.3114"
       fx="365.44556"
       fy="723.3114"
       r="290.84387"
       gradientTransform="scale(0.8851297,1.1297779)"
       gradientUnits="userSpaceOnUse" /><radialGradient
       inkscape:collect="always"
       xlink:href="#linearGradient615"
       id="radialGradient2287"
       cx="232.01202"
       cy="752.41235"
       fx="232.01202"
       fy="752.41235"
       r="169.07326"
       gradientTransform="scale(1.1839438,0.8446347)"
       gradientUnits="userSpaceOnUse" /><radialGradient
       inkscape:collect="always"
       xlink:href="#linearGradient615"
       id="radialGradient2289"
       cx="197.39041"
       cy="764.97711"
       fx="197.39041"
       fy="764.97711"
       r="257.6077"
       gradientTransform="scale(0.8852055,1.1296811)"
       gradientUnits="userSpaceOnUse" /><radialGradient
       inkscape:collect="always"
       xlink:href="#linearGradient615"
       id="radialGradient2291"
       cx="575.48682"
       cy="616.43207"
       fx="575.48682"
       fy="616.43207"
       r="177.34097"
       gradientTransform="scale(0.8846209,1.1304277)"
       gradientUnits="userSpaceOnUse" /><radialGradient
       inkscape:collect="always"
       xlink:href="#linearGradient615"
       id="radialGradient2293"
       gradientTransform="scale(1.9016874,0.5258488)"
       cx="163.22858"
       cy="1848.6138"
       fx="163.22858"
       fy="1848.6138"
       r="190.80444"
       gradientUnits="userSpaceOnUse" /><radialGradient
       inkscape:collect="always"
       xlink:href="#linearGradient643"
       id="radialGradient2295"
       cx="298.17502"
       cy="765.47479"
       fx="298.17502"
       fy="765.47479"
       r="185.30392"
       gradientTransform="scale(1.0376692,0.9636982)"
       gradientUnits="userSpaceOnUse" /><linearGradient
       inkscape:collect="always"
       xlink:href="#linearGradient624"
       id="linearGradient2297"
       x1="167.82645"
       y1="1049.6201"
       x2="293.61508"
       y2="906.22906"
       gradientTransform="scale(1.1313792,0.883877)"
       gradientUnits="userSpaceOnUse" /><radialGradient
       inkscape:collect="always"
       xlink:href="#linearGradient643"
       id="radialGradient2299"
       cx="399.47678"
       cy="731.69843"
       fx="399.47678"
       fy="731.69843"
       r="184.62732"
       gradientTransform="scale(1.0995233,0.9094851)"
       gradientUnits="userSpaceOnUse" /><linearGradient
       inkscape:collect="always"
       xlink:href="#linearGradient624"
       id="linearGradient2301"
       x1="73.088142"
       y1="550.47742"
       x2="259.40405"
       y2="660.66473"
       gradientTransform="scale(0.8942283,1.1182826)"
       gradientUnits="userSpaceOnUse" /><radialGradient
       inkscape:collect="always"
       xlink:href="#linearGradient643"
       id="radialGradient2303"
       gradientTransform="scale(1.5316946,0.6528717)"
       cx="261.33438"
       cy="917.1272"
       fx="261.33438"
       fy="917.1272"
       r="181.98131"
       gradientUnits="userSpaceOnUse" /><linearGradient
       inkscape:collect="always"
       xlink:href="#linearGradient643"
       id="linearGradient2305"
       x1="638.16626"
       y1="574.62958"
       x2="758.58575"
       y2="578.55627"
       gradientTransform="scale(0.7560881,1.3225972)"
       gradientUnits="userSpaceOnUse" /><radialGradient
       inkscape:collect="always"
       xlink:href="#linearGradient624"
       id="radialGradient2307"
       cx="178.15175"
       cy="978.70947"
       fx="178.15175"
       fy="978.70947"
       r="185.60272"
       gradientTransform="scale(1.0296075,0.9712439)"
       gradientUnits="userSpaceOnUse" /><linearGradient
       inkscape:collect="always"
       xlink:href="#linearGradient624"
       id="linearGradient2309"
       x1="129.06107"
       y1="400.2565"
       x2="421.76035"
       y2="348.63089"
       gradientTransform="scale(0.5001964,1.9992146)"
       gradientUnits="userSpaceOnUse" /><radialGradient
       inkscape:collect="always"
       xlink:href="#linearGradient643"
       id="radialGradient2311"
       cx="215.60753"
       cy="888.70618"
       fx="215.60753"
       fy="888.70618"
       r="107.80806"
       gradientTransform="scale(1.4969799,0.6680117)"
       gradientUnits="userSpaceOnUse" /><radialGradient
       inkscape:collect="always"
       xlink:href="#linearGradient615"
       id="radialGradient2313"
       gradientTransform="scale(0.6898851,1.4495168)"
       cx="760.14093"
       cy="625.22815"
       fx="760.14093"
       fy="625.22815"
       r="204.99881"
       gradientUnits="userSpaceOnUse" /><radialGradient
       inkscape:collect="always"
       xlink:href="#linearGradient643"
       id="radialGradient2315"
       gradientTransform="scale(1.0690184,0.9354376)"
       cx="392.50595"
       cy="911.27155"
       fx="392.50595"
       fy="911.27155"
       r="170.13229"
       gradientUnits="userSpaceOnUse" /></defs><sodipodi:namedview
     id="base"
     inkscape:zoom="0.36014217"
     inkscape:cx="-92.384543"
     inkscape:cy="51.199048"
     inkscape:window-width="822"
     inkscape:window-height="719"
     inkscape:window-x="9"
     inkscape:window-y="75"
     inkscape:current-layer="svg602"
     showgrid="false"
     units="px"
     fit-margin-top="9"
     fit-margin-left="9"
     fit-margin-right="9"
     fit-margin-bottom="9"
     inkscape:window-maximized="0" /><g
     id="g2234"
     transform="matrix(0.1888673,0,0,0.1888673,-30.616516,-97.632502)"><circle
       style="font-size:12px;fill:#808080;fill-rule:evenodd;stroke-width:1"
       id="path2200"
       transform="matrix(0.974923,-0.222485,0.222488,0.974935,-5.698632,260.4414)"
       cx="305.92114"
       cy="604.70154"
       r="217.33392" /><path
       transform="matrix(0.925651,-0.211241,0.176284,0.772471,10.00874,326.665)"
       style="font-size:12px;fill:url(#radialGradient2285);fill-rule:evenodd"
       d="m 379.8107,822.6711 c -6.3004,-1.8572 -57.7597,-73.7722 -58.4916,-77.3299 -2.5072,-9.116 37.5631,-93.6178 42.1945,-97.3405 4.105,-3.8076 82.8981,1.4132 84.7973,6.5243 9.0426,26.0358 12.5532,85.8542 9.9228,115.926 -3.7917,6.7963 -73.95,53.0008 -78.423,52.2201 z"
       id="path2202"
       sodipodi:nodetypes="cssscs"
       inkscape:connector-curvature="0" /><path
       style="font-size:12px;fill:url(#radialGradient2287);fill-rule:evenodd"
       d="m 271.6191,664.3764 c -4.17,-3.2425 -19.0257,-58.0509 -16.1149,-62.4953 6.5028,-10.5289 60.8141,-36.4614 71.9154,-36.2203 16.7637,0.3849 66.881,27.6891 66.9628,38.2805 0.4245,6.5933 -33.3557,53.0478 -40.2489,56.7272 -5.5312,2.4625 -79.3384,5.7262 -82.5144,3.7079 z"
       id="path2204"
       sodipodi:nodetypes="csssss"
       transform="matrix(0.974935,-0.222488,0.222488,0.974935,-91.88882,126.9032)"
       inkscape:connector-curvature="0" /><path
       style="font-size:12px;fill:url(#radialGradient2289);fill-rule:evenodd"
       d="m 184.9662,841.971 c -12.8462,-24.3157 -11.4738,-80.2585 -7.3054,-88.4141 3.0262,-5.4854 50.8992,-15.5419 54.5772,-13.4414 3.317,2.4944 45.4884,67.1487 47.1639,70.6038 2.3382,7.5121 -26.2158,59.4426 -32.0917,62.762 -4.6871,2.0791 -60.6232,-28.0935 -62.344,-31.5103 z"
       id="path2206"
       sodipodi:nodetypes="csssss"
       transform="matrix(0.974935,-0.222488,0.222488,0.974935,-91.88882,126.9032)"
       inkscape:connector-curvature="0" /><path
       style="font-size:12px;fill:url(#radialGradient2291);fill-rule:evenodd"
       d="m 569.0298,699.2877 c 0.68,6.7226 -44.8666,-13.088 -47.3301,-18.5764 -2.4816,-22.7418 -42.8798,-68.7095 -47.4888,-72.7884 -3.8806,-3.0386 9.3529,-31.0383 13.4105,-29.2533 29.0262,13.0325 77.4248,84.7467 81.4084,120.6181 z"
       id="path2208"
       sodipodi:nodetypes="ccsss"
       transform="matrix(0.974935,-0.222488,0.222488,0.974935,-91.88882,126.9032)"
       inkscape:connector-curvature="0" /><path
       style="font-size:12px;fill:url(#radialGradient2293);fill-rule:evenodd"
       d="m 431.5217,956.8364 c 5.8873,-3.3161 -37.9165,-25.9201 -43.822,-24.7728 -9.9188,2.4845 -80.0168,4.9454 -86.0058,3.5269 -4.7191,-1.4222 -10.5779,20.6064 -6.7816,22.8953 27.3718,16.222 104.9911,15.7549 136.6094,-1.6494 z"
       id="path2210"
       sodipodi:nodetypes="cssss"
       transform="matrix(0.974935,-0.222488,0.222488,0.974935,-91.88882,126.9032)"
       inkscape:connector-curvature="0" /><path
       style="font-size:12px;fill:url(#radialGradient2295);fill-rule:evenodd"
       d="m 280.4856,811.6434 c -14.3834,-25.4758 -46.2528,-72.1836 -46.5331,-73.273 -1.1859,-7.1485 34.464,-66.975 38.8613,-69.9247 3.8975,-3.0169 79.9154,-10.5626 83.5113,-3.2321 1.675,3.9737 39.7999,56.8356 40.3593,64.0504 -0.4165,2.3684 -24.8886,45.5934 -38.7395,77.0103 -2.6555,5.9082 -75.4171,9.1438 -77.4593,5.3691 z"
       id="path2212"
       sodipodi:nodetypes="cssssss"
       transform="matrix(0.974935,-0.222488,0.222488,0.974935,-91.88882,126.9032)"
       inkscape:connector-curvature="0" /><path
       style="font-size:12px;fill:url(#linearGradient2297);fill-rule:evenodd"
       d="m 299.689,932.865 c -8.6534,-5.7044 -48.0531,-48.7794 -48.9335,-55.2698 -0.8941,-7.1908 19.5626,-38.5032 31.0599,-62.7234 4.5014,1.609 78.0011,-5.1901 78.1103,-5.0324 17.6606,26.3563 52.121,52.6221 51.7614,59.8496 -2.817,8.3695 -20.0878,45.5933 -25.5371,61.4076 -1.6808,6.2556 -82.5787,5.1189 -86.461,1.7684 z"
       id="path2214"
       sodipodi:nodetypes="cscssss"
       transform="matrix(0.974935,-0.222488,0.222488,0.974935,-91.88882,126.9032)"
       inkscape:connector-curvature="0" /><path
       style="font-size:12px;fill:url(#radialGradient2299);fill-rule:evenodd"
       d="m 399.3069,728.8285 c -1.1811,-3.8719 -40.8519,-59.5813 -41.7323,-66.0717 -0.8941,-7.1908 35.6642,-58.5735 40.0615,-61.5232 3.8975,-3.0169 68.8283,-0.0468 75.1098,5.1694 8.8763,6.3742 48.6395,58.03 48.1607,72.4519 -0.3033,8.3744 -34.4903,45.5933 -39.9397,54.2063 -3.9585,5.1271 -79.8362,-0.3478 -81.66,-4.2327 z"
       id="path2216"
       sodipodi:nodetypes="cssssss"
       transform="matrix(0.974935,-0.222488,0.222488,0.974935,-91.88882,126.9032)"
       inkscape:connector-curvature="0" /><path
       style="font-size:12px;fill:url(#linearGradient2301);fill-rule:evenodd"
       d="m 176.1821,752.5773 c -2.3706,1.8866 -25.4876,-48.24 -24.6647,-53.1111 4.8695,-25.2699 27.4997,-69.0701 47.0348,-86.5372 4.9763,0.7047 49.3148,-5.9358 54.7753,-7.7057 3.2477,28.0613 17.1709,60.7412 15.9672,62.5565 -4.0168,8.0606 -33.2611,58.1016 -36.3109,65.7585 -5.8649,4.0433 -52.3538,14.899 -56.8017,19.039 z"
       id="path2218"
       sodipodi:nodetypes="csccscs"
       transform="matrix(0.974935,-0.222488,0.222488,0.974935,-91.88882,126.9032)"
       inkscape:connector-curvature="0" /><path
       style="font-size:12px;fill:url(#radialGradient2303);fill-rule:evenodd"
       d="m 332.769,562.9156 c 6.4808,-10.5967 30.8059,-25.2474 32.7911,-25.2469 52.3309,-0.5616 105.6317,25.6218 119.409,40.4702 3.3292,3.4745 -11.2803,24.5195 -15.5221,24.6033 -8.3444,-0.4354 -59.5704,-5.268 -72.6974,-3.7327 -10.6273,-10.2426 -58.9414,-34.0071 -63.9806,-36.0939 z"
       id="path2220"
       sodipodi:nodetypes="cssscc"
       transform="matrix(0.974935,-0.222488,0.222488,0.974935,-91.88882,126.9032)"
       inkscape:connector-curvature="0" /><path
       style="font-size:12px;fill:url(#linearGradient2305);fill-rule:evenodd"
       d="m 492.7159,824.9238 c -1.0855,-4.4864 -0.1892,-57.5639 -11.5256,-91.612 8.4591,-10.8689 39.0483,-48.5757 41.717,-52.0493 2.3655,-3.5529 42.1803,14.4712 46.1854,20.4902 5.094,7.0539 11.5559,61.9754 2.7634,84.276 -1.2585,3.6965 -23.8355,44.5643 -36.2911,60.1377 -4.107,5.0361 -41.7422,-14.2672 -42.8491,-21.2426 z"
       id="path2222"
       sodipodi:nodetypes="ccsssss"
       transform="matrix(0.974935,-0.222488,0.222488,0.974935,-91.88882,126.9032)"
       inkscape:connector-curvature="0" /><path
       style="font-size:12px;fill:url(#radialGradient2307);fill-rule:evenodd"
       d="m 186.1806,843.5027 c 3.9748,0.7645 60.7864,26.8994 62.693,33.1657 2.9462,7.6708 38.0425,50.707 47.7074,57.0941 4.2232,2.5413 -0.7817,17.3818 -4.3046,22.806 -2.5636,3.4678 -96.7912,-40.1472 -113.8272,-91.7691 -1.986,-6.1651 5.8448,-5.8964 7.7314,-21.2967 z"
       id="path2224"
       sodipodi:nodetypes="cssssc"
       transform="matrix(0.974935,-0.222488,0.222488,0.974935,-91.88882,126.9032)"
       inkscape:connector-curvature="0" /><path
       style="font-size:12px;fill:url(#linearGradient2309);fill-rule:evenodd"
       d="m 151.2957,703.2054 c 3.609,6.939 17.2498,49.9342 24.0701,55.0903 -1.4103,8.0953 3.2159,72.8053 8.2302,83.2486 2.3193,4.3491 -5.3864,25.4538 -8.7077,19.9037 -20.7229,-33.6261 -42.165,-96.9664 -23.5926,-158.2426 z"
       id="path2226"
       sodipodi:nodetypes="ccssc"
       transform="matrix(0.974935,-0.222488,0.222488,0.974935,-91.88882,126.9032)"
       inkscape:connector-curvature="0" /><path
       style="font-size:12px;fill:url(#radialGradient2311);fill-rule:evenodd"
       d="m 364.874,536.9222 c -23.374,11.1913 -29.0382,23.2231 -36.2943,24.8085 -20.8885,5.1111 -69.6648,31.8887 -76.2059,41.4591 -2.5995,4.1876 -58.0334,10.8003 -53.3021,6.3902 33.3796,-31.7818 70.7373,-69.6836 165.8023,-72.6578 z"
       id="path2228"
       sodipodi:nodetypes="csssc"
       transform="matrix(0.974935,-0.222488,0.222488,0.974935,-91.88882,126.9032)"
       inkscape:connector-curvature="0" /><path
       style="font-size:12px;fill:url(#radialGradient2313);fill-rule:evenodd"
       d="m 571.8157,788.1091 c 0.7202,-6.7185 -34.9858,56.2465 -36.8846,61.9548 -2.7036,9.8614 -18.4412,46.9703 -16.9354,50.8607 19.131,-16.7907 49.8647,-64.7231 53.82,-112.8155 z"
       id="path2230"
       sodipodi:nodetypes="cscs"
       transform="matrix(0.974935,-0.222488,0.222488,0.974935,-91.88882,126.9032)"
       inkscape:connector-curvature="0" /><path
       style="font-size:12px;fill:url(#radialGradient2315);fill-rule:evenodd"
       d="m 432.7135,955.404 c -18.5738,-16.6285 -44.283,-23.8128 -44.514,-24.7758 -1.4914,-7.1395 21.3303,-54.6341 25.0937,-59.4088 3.1756,-1.0427 20.5443,-8.6838 78.7732,-42.5976 1.549,-0.9056 11.9042,9.3119 41.5967,20.7378 0.086,9.4884 -12.5748,32.777 -16.9192,51.6849 -6.5422,17.3041 -77.8134,60.0061 -84.0304,54.3595 z"
       id="path2232"
       sodipodi:nodetypes="cscsccs"
       transform="matrix(0.974935,-0.222488,0.222488,0.974935,-91.88882,126.9032)"
       inkscape:connector-curvature="0" /></g></svg>