<?xml version="1.0" encoding="UTF-8" standalone="no"?>
<svg
   xmlns:dc="http://purl.org/dc/elements/1.1/"
   xmlns:cc="http://creativecommons.org/ns#"
   xmlns:rdf="http://www.w3.org/1999/02/22-rdf-syntax-ns#"
   xmlns:svg="http://www.w3.org/2000/svg"
   xmlns="http://www.w3.org/2000/svg"
   version="1.0"
   xml:space="preserve"
   height="100"
   width="100"
   id="svg602"><metadata
     id="metadata62"><rdf:RDF><cc:Work
         rdf:about=""><dc:format>image/svg+xml</dc:format><dc:type
           rdf:resource="http://purl.org/dc/dcmitype/StillImage" /><dc:title></dc:title><dc:date>2021</dc:date><dc:creator><cc:Agent><dc:title>Timothée Giet</dc:title></cc:Agent></dc:creator><cc:license
           rdf:resource="http://creativecommons.org/licenses/by-sa/4.0/" /></cc:Work><cc:License
         rdf:about="http://creativecommons.org/licenses/by-sa/4.0/"><cc:permits
           rdf:resource="http://creativecommons.org/ns#Reproduction" /><cc:permits
           rdf:resource="http://creativecommons.org/ns#Distribution" /><cc:requires
           rdf:resource="http://creativecommons.org/ns#Notice" /><cc:requires
           rdf:resource="http://creativecommons.org/ns#Attribution" /><cc:permits
           rdf:resource="http://creativecommons.org/ns#DerivativeWorks" /><cc:requires
           rdf:resource="http://creativecommons.org/ns#ShareAlike" /></cc:License></rdf:RDF></metadata><defs
     id="defs604" /><path
     id="rect1050"
     d="M 54.225135,27.742277 71.58131,28.106393 79.591852,45.58394 54.225135,45.948055 Z"
     style="opacity:1;vector-effect:none;fill:#c7e5e5;fill-opacity:1;stroke:none;stroke-width:0.69234884;stroke-linecap:round;stroke-linejoin:miter;stroke-miterlimit:4;stroke-dasharray:none;stroke-dashoffset:3.20000005;stroke-opacity:1" /><ellipse
     transform="matrix(0.89855175,-0.43886759,0.46162454,0.88707541,0,0)"
     id="path732"
     style="fill:#f6eeaf;fill-opacity:1;fill-rule:evenodd;stroke:none;stroke-width:0.22216366pt;stroke-linecap:butt;stroke-linejoin:miter;stroke-opacity:1"
     cx="56.890968"
     cy="85.239456"
     rx="1.7211667"
     ry="4.1887941" /><path
     id="rect773"
     d="m 23.112403,56.563575 h 51.515685 c 7.230252,0 13.050995,2.770089 13.050995,6.210959 0,3.440875 -5.820743,6.210963 -13.050995,6.210963 H 23.112403 c -7.230251,0 -13.050994,-2.770088 -13.050994,-6.210963 0,-3.44087 5.820743,-6.210959 13.050994,-6.210959 z"
     style="font-size:12px;fill:#4b4b4b;fill-opacity:1;fill-rule:evenodd;stroke-width:0.15152313" /><g
     style="fill:#c7e5e5;fill-opacity:1;stroke:none"
     transform="matrix(0.15687711,0,0,0.15430521,-9.5229897,34.790931)"
     id="g741"><path
       id="path612"
       d="M 636.52375,72.114953 C 601.25026,52.716821 526.03397,-34.696152 532.98001,-41.644071 550.4538,-44.020311 645.44255,66.986814 636.52375,72.114953 Z"
       style="font-size:12px;fill:#c7e5e5;fill-opacity:1;fill-rule:evenodd;stroke:none;stroke-width:0.98906982" /><path
       id="path740"
       d="m 535.09553,-41.923285 c -39.02479,14.493759 67.08557,98.040914 94.5714,108.961372"
       style="fill:#c7e5e5;fill-opacity:1;fill-rule:evenodd;stroke:none;stroke-width:1.8545059;stroke-linecap:round;stroke-linejoin:miter;stroke-dasharray:none;stroke-opacity:1" /></g><path
     id="path735"
     d="M 38.848598,23.1801 C 24.407539,23.2762 11.329652,24.807318 11.08703,26.609004 L 8.5776525,50.389178 c -0.025607,1.252339 0.2064806,1.733201 1.7212125,1.701897 l 7.535862,0.569873 c 0.529801,-0.002 1.059651,0.457464 1.076,0.917595 0.01807,1.308129 -0.188056,3.297242 -0.169996,4.605356 2.180752,0.413688 9.988334,2.805898 9.993082,11.175328 l 36.402406,0.104317 c 0.01344,-9.591003 9.009273,-12.958995 15.415579,-8.88231 l 1.964618,-5.797263 c 0.316537,-0.93415 0.975035,-1.078514 1.78303,-0.894412 L 95.571365,56.45689 C 95.252454,54.021111 91.904614,46.691955 90.398066,45.3569 87.191412,44.104895 70.883996,28.522142 74.785444,28.359194 69.093512,24.422282 53.289655,23.083998 38.848598,23.1801 Z m 24.323004,5.213866 c 2.596262,0.06376 5.331775,0.409015 6.614404,1.116567 3.165464,2.447248 9.447959,15.034159 2.839711,15.025362 C 67.667591,44.325232 58.506459,44.993237 57.507631,43.660799 56.068293,41.8464 53.421092,30.754359 57.391725,28.96384 c 0.726587,-0.417417 3.183613,-0.63363 5.779877,-0.569874 z m 26.50398,19.594014 a 2.9179774,1.4937265 65.599167 0 1 2.269838,2.1095 2.9179774,1.4937265 65.599167 0 1 -0.154542,3.274362 2.9179774,1.4937265 65.599167 0 1 -2.5654,-2.039957 2.9179774,1.4937265 65.599167 0 1 0.154542,-3.274362 2.9179774,1.4937265 65.599167 0 1 0.295562,-0.06954 z"
     style="font-size:12px;fill:#715d34;fill-opacity:1;fill-rule:evenodd;stroke-width:0.15152313" /><path
     id="path615"
     d="m 83.99516,53.548399 11.932504,2.941458 c 1.933523,1.022818 2.794122,13.082603 -1.68489,13.356229 L 83.854346,69.769829 C 84.247521,64.466011 82.224933,62.186116 80.04257,60.26418 l 2.046089,-5.991542 c 0.307719,-0.901063 0.659511,-1.031616 1.906501,-0.72422 z"
     style="fill:#575757;fill-opacity:1;fill-rule:evenodd;stroke:none;stroke-width:0.15152314pt;stroke-linecap:butt;stroke-linejoin:miter;stroke-opacity:1" /><path
     id="path617"
     d="M 2.9931496,57.168438 C 5.0962648,58.28446 8.3853548,55.203431 8.6750592,52.840241 L 11.301742,27.922703 c 0.06979,-0.66199 0.244786,-1.72444 -1.8837347,-1.34001 -1.8523277,0.48854 -6.2802213,27.85695 -6.4248577,30.585745 z"
     style="fill:#4b4b4b;fill-opacity:1;fill-rule:evenodd;stroke:none;stroke-width:0.15152314pt;stroke-linecap:butt;stroke-linejoin:miter;stroke-opacity:1" /><path
     id="path620"
     d="m 7.8351013,39.045265 c -1.154732,7.353001 -2.529033,8.68798 -3.384031,8.705526 -1.4376507,-0.883819 1.048956,-17.724155 3.564142,-17.557469 1.2350892,-0.02032 0.974621,1.498942 -0.180111,8.851943 z"
     style="font-size:12px;fill:#8d2e2e;fill-opacity:1;fill-rule:evenodd;stroke:none;stroke-width:0.15152313;stroke-opacity:1" /><path
     id="path750"
     d="m 9.0219259,67.509419 c 0.3736102,0.29864 0.9762178,0.425735 1.0814961,9.89e-4 1.544581,-7.743375 7.173149,-8.849812 10.598057,-8.625043 l 0.122385,-3.688118 c 0.0767,-5.637747 -8.418441,-4.702334 -16.8605041,-4.805094 -0.7631375,0.01657 -1.1182364,3.937116 -1.4278656,7.70499 -0.3096293,3.767872 1.3697746,6.191499 6.4864316,9.412078 z"
     style="fill:#575757;fill-opacity:1;fill-rule:evenodd;stroke:none;stroke-width:0.15152314pt;stroke-linecap:butt;stroke-linejoin:miter;stroke-opacity:1" /><path
     style="font-size:12px;fill:#232322;fill-opacity:1;fill-rule:evenodd;stroke-width:0.15152313"
     d="m 83.183947,68.396229 c 0,4.654908 -3.773562,8.428457 -8.428488,8.428457 -4.654928,0 -8.428474,-3.773549 -8.428474,-8.428457 0,-4.654939 3.773546,-8.42849 8.428474,-8.42849 4.654926,0 8.428488,3.773551 8.428488,8.42849 z"
     id="path768" /><ellipse
     ry="4.9245014"
     rx="4.9245024"
     cy="68.414009"
     cx="74.761826"
     style="fill:#7f7f7f;fill-opacity:1;fill-rule:evenodd;stroke:#343434;stroke-width:0.98906982;stroke-linecap:butt;stroke-linejoin:miter;stroke-miterlimit:4;stroke-dasharray:none;stroke-opacity:1"
     id="path769" /><path
     id="path615-3"
     d="m 84.616978,54.557178 10.700608,2.527046 c 1.733909,0.878717 2.50566,11.239447 -1.510942,11.474519 l -9.31595,-0.06558 c 0.352583,-4.556585 -1.461193,-6.51527 -3.418245,-8.166432 l 1.834853,-5.147415 c 0.27595,-0.774115 0.591424,-0.886274 1.709676,-0.622187 z"
     style="fill:#808080;fill-opacity:1;fill-rule:evenodd;stroke:none;stroke-width:0.13299729pt;stroke-linecap:butt;stroke-linejoin:miter;stroke-opacity:1" /><path
     id="path750-6"
     d="m 8.5768442,65.409802 c 0.3333645,0.248533 0.8710586,0.354304 0.9649965,9.39e-4 1.3781953,-6.444295 7.1728543,-7.365108 10.2288263,-7.178048 l 0.109201,-3.069377 c 0.06843,-4.691924 -7.511595,-3.913442 -15.0442687,-3.998962 -0.6809314,0.01379 -0.9977786,3.276602 -1.2740542,6.412353 -0.2762756,3.135752 0.449815,5.152775 5.0152991,7.833055 z"
     style="fill:#808080;fill-opacity:1;fill-rule:evenodd;stroke:none;stroke-width:0.13057253pt;stroke-linecap:butt;stroke-linejoin:miter;stroke-opacity:1" /><path
     style="font-size:12px;fill:#232322;fill-opacity:1;fill-rule:evenodd;stroke-width:0.15152313"
     d="m 27.796037,68.396229 c 0,4.654908 -3.773561,8.428457 -8.428488,8.428457 -4.654927,0 -8.428474,-3.773549 -8.428474,-8.428457 0,-4.654939 3.773547,-8.428487 8.428474,-8.428487 4.654927,0 8.428488,3.773548 8.428488,8.428487 z"
     id="path768-7" /><ellipse
     ry="4.9245014"
     rx="4.9245024"
     cy="68.414009"
     cx="19.373917"
     style="fill:#7f7f7f;fill-opacity:1;fill-rule:evenodd;stroke:#343434;stroke-width:0.98906982;stroke-linecap:butt;stroke-linejoin:miter;stroke-miterlimit:4;stroke-dasharray:none;stroke-opacity:1"
     id="path769-5" /><path
     id="path620-3"
     d="m 7.2225882,39.382062 c -0.9689462,6.706084 -1.7788434,6.979561 -2.4962801,6.995563 -1.082243,0.310864 1.1562364,-14.281117 3.16235,-15.068714 1.0363746,-0.01853 0.3028762,1.367065 -0.6660699,8.073151 z"
     style="font-size:12px;fill:#de3333;fill-opacity:1;fill-rule:evenodd;stroke:none;stroke-width:0.13255323;stroke-opacity:1" /><path
     id="path735-6"
     d="M 37.357265,24.091899 C 23.80662,24.13436 12.102363,25.4081 11.859741,27.209787 L 9.7792178,48.414903 c -0.025607,1.252338 0.6353342,1.134348 2.1500672,1.103044 7.520748,0.567156 10.23493,0.874214 9.558432,8.580953 2.180752,0.413689 7.669661,3.406351 7.931877,10.402615 l 35.030843,0.01739 c 0.01344,-9.591006 9.350353,-12.358798 15.241721,-9.226164 l 2.136545,-5.625334 c 0.350115,-0.922095 0.981872,-1.098853 1.784962,-0.894413 l 11.099991,2.826189 C 94.394745,53.163402 91.560758,47.377736 90.05421,46.04268 86.847556,44.790675 70.026288,28.522142 73.927736,28.359194 66.304789,25.237599 50.90791,24.049436 37.357265,24.091899 Z m 25.771837,3.701284 c 2.875188,0.06376 5.89006,0.409015 7.172688,1.116568 3.165464,2.447248 9.789884,16.320722 3.181637,16.311924 C 68.5253,45.011012 57.905676,45.679017 56.906848,44.34658 55.46751,42.532181 52.820309,30.153576 56.790942,28.363057 c 0.726588,-0.417416 3.462973,-0.63363 6.33816,-0.569874 z m 26.25285,19.588219 a 3.6045603,1.8451915 65.599167 0 1 2.806871,2.605967 3.6045603,1.8451915 65.599167 0 1 -0.191246,4.045141 3.6045603,1.8451915 65.599167 0 1 -3.170045,-2.520969 3.6045603,1.8451915 65.599167 0 1 0.191245,-4.045141 3.6045603,1.8451915 65.599167 0 1 0.363175,-0.085 z"
     style="font-size:12px;fill:#d3a343;fill-opacity:1;fill-rule:evenodd;stroke-width:0.15152313" /><path
     id="path746"
     d="m 75.682538,37.942548 c -0.96546,0 -0.715795,0.777237 -0.715795,1.742697 v 3.194961 c 0,0.96546 -0.249665,1.742691 0.715795,1.742691 0.965459,0 1.742713,-0.777231 1.742713,-1.742691 v -3.194961 c 0,-0.96546 -0.777254,-1.742697 -1.742713,-1.742697 z"
     style="font-size:12px;fill:#575757;fill-opacity:1;fill-rule:evenodd;stroke:none;stroke-width:0.15152313;stroke-opacity:1" /><path
     id="path746-9"
     d="m 75.751895,38.457485 c -0.499124,0 -0.370051,0.617473 -0.370051,1.38448 v 2.538227 c 0,0.767008 -0.129073,1.384476 0.370051,1.384476 0.499124,0 0.90095,-0.617468 0.90095,-1.384476 v -2.538227 c 0,-0.767007 -0.401826,-1.38448 -0.90095,-1.38448 z"
     style="font-size:12px;fill:#808080;fill-opacity:1;fill-rule:evenodd;stroke:none;stroke-width:0.09710657;stroke-opacity:1" /><rect
     ry="2.6701808"
     y="26.285816"
     x="29.586649"
     height="38.717636"
     width="20.269102"
     id="rect1032"
     style="opacity:1;vector-effect:none;fill:none;fill-opacity:1;stroke:#715d34;stroke-width:0.69234884;stroke-linecap:round;stroke-linejoin:miter;stroke-miterlimit:4;stroke-dasharray:none;stroke-dashoffset:3.20000005;stroke-opacity:1" /><path
     id="rect1032-1"
     d="m 55.994504,26.285816 c 0,0 12.123489,0.240608 14.807369,1.820578 2.68388,1.579969 6.597242,10.702052 8.374658,14.079148 1.777415,3.377097 1.698428,15.549798 -4.751311,13.817502 -8.750862,-2.350339 -12.893589,9.000408 -13.392674,9.000408 h -5.038042 c -1.479281,0 -2.670181,-1.190899 -2.670181,-2.670182 V 28.955997 c 0,-1.47928 1.196761,-2.801736 2.670181,-2.670181 z"
     style="opacity:1;vector-effect:none;fill:none;fill-opacity:1;stroke:#715d34;stroke-width:0.69234884;stroke-linecap:round;stroke-linejoin:miter;stroke-miterlimit:4;stroke-dasharray:none;stroke-dashoffset:3.20000005;stroke-opacity:1" /></svg>