<?xml version="1.0" encoding="UTF-8" standalone="no"?>
<!-- Created with Sodipodi ("http://www.sodipodi.com/") -->

<svg
   xmlns:dc="http://purl.org/dc/elements/1.1/"
   xmlns:cc="http://creativecommons.org/ns#"
   xmlns:rdf="http://www.w3.org/1999/02/22-rdf-syntax-ns#"
   xmlns:svg="http://www.w3.org/2000/svg"
   xmlns="http://www.w3.org/2000/svg"
   xmlns:xlink="http://www.w3.org/1999/xlink"
   xmlns:sodipodi="http://sodipodi.sourceforge.net/DTD/sodipodi-0.dtd"
   xmlns:inkscape="http://www.inkscape.org/namespaces/inkscape"
   id="svg602"
   sodipodi:version="0.32"
   width="51.540562"
   height="156.66743"
   xml:space="preserve"
   sodipodi:docname="pencil.svg"
   inkscape:version="0.91 r13725"
   inkscape:output_extension="org.inkscape.output.svg.inkscape"
   version="1.0"><metadata
     id="metadata31"><rdf:RDF><cc:Work
         rdf:about=""><dc:format>image/svg+xml</dc:format><dc:type
           rdf:resource="http://purl.org/dc/dcmitype/StillImage" /><dc:title /></cc:Work></rdf:RDF></metadata><defs
     id="defs604"><linearGradient
       id="linearGradient636"><stop
         style="stop-color:#7f7f7f;stop-opacity:1;"
         offset="0"
         id="stop637" /><stop
         style="stop-color:#ffffff;stop-opacity:1;"
         offset="1"
         id="stop638" /></linearGradient><linearGradient
       id="linearGradient629"><stop
         style="stop-color:#bf8755;stop-opacity:1;"
         offset="0"
         id="stop630" /><stop
         style="stop-color:#ffeac7;stop-opacity:1;"
         offset="1"
         id="stop631" /></linearGradient><linearGradient
       id="linearGradient622"><stop
         style="stop-color:#baffbd;stop-opacity:1;"
         offset="0"
         id="stop623" /><stop
         style="stop-color:#007f00;stop-opacity:1;"
         offset="1"
         id="stop624" /></linearGradient><linearGradient
       id="linearGradient607"><stop
         style="stop-color:#000;stop-opacity:1;"
         offset="0"
         id="stop608" /><stop
         style="stop-color:#fff;stop-opacity:1;"
         offset="1"
         id="stop609" /></linearGradient><linearGradient
       xlink:href="#linearGradient622"
       id="linearGradient610"
       x1="809.62982"
       y1="149.24303"
       x2="1006.8723"
       y2="148.31845"
       gradientTransform="scale(0.2033122,4.9185446)"
       gradientUnits="userSpaceOnUse" /><linearGradient
       xlink:href="#linearGradient622"
       id="linearGradient611"
       x1="1450.7942"
       y1="102.02859"
       x2="1490.9377"
       y2="100.77411"
       gradientTransform="scale(0.1382264,7.2345096)"
       gradientUnits="userSpaceOnUse" /><linearGradient
       xlink:href="#linearGradient622"
       id="linearGradient613"
       x1="1175.7216"
       y1="99.299934"
       x2="1391.6927"
       y2="99.299934"
       gradientTransform="scale(0.1354094,7.3850113)"
       gradientUnits="userSpaceOnUse" /><linearGradient
       xlink:href="#linearGradient629"
       id="linearGradient628"
       x1="216.08617"
       y1="719.02222"
       x2="254.50533"
       y2="736.51617"
       gradientTransform="scale(0.803236,1.2449641)"
       gradientUnits="userSpaceOnUse" /><radialGradient
       xlink:href="#linearGradient636"
       id="radialGradient635"
       cx="105.80718"
       cy="458.13394"
       r="30.264204"
       fx="105.80718"
       fy="458.13394"
       gradientTransform="scale(1.6101954,0.6210426)"
       gradientUnits="userSpaceOnUse" /><linearGradient
       xlink:href="#linearGradient607"
       id="linearGradient641"
       x1="272.14709"
       y1="629.03864"
       x2="291.58942"
       y2="633.56952"
       gradientTransform="scale(0.683054,1.4640131)"
       gradientUnits="userSpaceOnUse" /></defs><sodipodi:namedview
     id="base"
     showgrid="false"
     inkscape:zoom="1.8776805"
     inkscape:cx="130.37797"
     inkscape:cy="50.74549"
     inkscape:window-width="732"
     inkscape:window-height="719"
     inkscape:window-x="636"
     inkscape:window-y="50"
     inkscape:current-layer="svg602"
     units="px"
     fit-margin-top="9"
     fit-margin-left="9"
     fit-margin-right="9"
     fit-margin-bottom="9"
     inkscape:window-maximized="0" /><g
     id="g642"
     transform="matrix(0.2114007,0.04282894,-0.04282894,0.2114007,9.9995256,-59.50341)"><rect
       style="font-size:12px;fill:#ffffff;fill-opacity:1;fill-rule:evenodd;stroke-width:1"
       id="rect632"
       width="37.384079"
       height="571.97662"
       x="173.83604"
       y="299.07269" /><path
       style="font-size:12px;fill:url(#linearGradient628);fill-rule:evenodd"
       d="m 171.2218,868.3784 14.8306,53.6206 c 4.9845,-1.8692 5.6166,-1.8692 9.6665,0 l 17.1437,-52.9598 c 0.3837,-1.1854 -3.4413,4.43 -5.3002,4.5502 -1.1844,0.2871 -2.6888,-16.4755 -4.807,-16.3932 -2.2781,0.0975 -3.2321,16.6568 -10.6808,16.6568 -7.9507,0.3528 -9.9335,-15.9751 -11.0052,-15.9751 -2.0106,-0.3305 -0.7695,15.2686 -3.9006,15.2859 -3.0723,0.2462 -6.8765,-8.1463 -5.947,-4.7854 z"
       id="path617"
       sodipodi:nodetypes="cccsssssss"
       inkscape:connector-curvature="0" /><path
       style="font-size:12px;fill:url(#linearGradient611);fill-rule:evenodd"
       d="m 205.4719,301.2891 -2.1594,556.0083 c 0,13.567 2.7629,16.9609 4.6944,16.9621 1.9036,-0.1617 4.1303,0.7601 6.1129,-12.4764 l 0.2904,-560.5709 c 0,-11.2307 -8.9383,-9.5181 -8.9383,0.0769 z"
       id="path626"
       sodipodi:nodetypes="ccsccc"
       inkscape:connector-curvature="0" /><path
       style="font-size:12px;fill:url(#linearGradient613);fill-rule:evenodd"
       d="m 179.715,301.5225 0.7575,556.9429 c 0,13.5671 -1.3183,15.2983 -3.2357,15.2983 -1.9176,0 -5.1217,1.2557 -7.1043,-11.9808 L 169.8421,301.212 c -0.2336,-9.1279 9.8729,-10.6864 9.8729,0.3105 z"
       id="path627"
       sodipodi:nodetypes="ccsccc"
       inkscape:connector-curvature="0" /><path
       style="font-size:12px;fill:url(#linearGradient610);fill-rule:evenodd"
       d="m 180.6483,306.0118 0.4106,552.22 c 3.6749,14.3399 6.9486,16.8955 10.4918,16.7985 3.6165,0 7.2774,-2.2063 11.2328,-16.9597 l 1.9259,-551.7849 c 0,-17.6042 -24.0611,-17.878 -24.0611,-0.2739 z"
       id="path619"
       sodipodi:nodetypes="cccccc"
       inkscape:connector-curvature="0" /><path
       transform="matrix(1.068182,0,0,1,-11.59763,-3.051758e-5)"
       style="font-size:12px;fill:url(#radialGradient635);fill-rule:evenodd;stroke-width:1"
       d="m 211.2201,297.2035 c 0,6.194 -41.1225,6.194 -41.1225,0 0,-6.194 9.2056,-11.2152 20.5613,-11.2152 11.3556,0 20.5612,5.0212 20.5612,11.2152 z"
       id="path634"
       sodipodi:nodetypes="cccc"
       inkscape:connector-curvature="0" /><path
       style="font-size:12px;fill:url(#linearGradient641);fill-rule:evenodd"
       d="m 186.0632,921.7529 2.2592,18.4569 c 0.1557,1.2462 3.8163,1.5577 3.9721,0.2337 l 3.4273,-18.6906 c -0.0286,-1.5951 -9.6682,-1.4793 -9.6586,0 z"
       id="path640"
       sodipodi:nodetypes="ccccc"
       inkscape:connector-curvature="0" /></g></svg>