<?xml version="1.0" encoding="UTF-8" standalone="no"?>
<svg
   xmlns:dc="http://purl.org/dc/elements/1.1/"
   xmlns:cc="http://creativecommons.org/ns#"
   xmlns:rdf="http://www.w3.org/1999/02/22-rdf-syntax-ns#"
   xmlns:svg="http://www.w3.org/2000/svg"
   xmlns="http://www.w3.org/2000/svg"
   version="1.0"
   xml:space="preserve"
   height="100"
   width="100"
   id="svg745"><metadata
     id="metadata78"><rdf:RDF><cc:Work
         rdf:about=""><dc:format>image/svg+xml</dc:format><dc:type
           rdf:resource="http://purl.org/dc/dcmitype/StillImage" /><dc:title></dc:title><dc:date>2021</dc:date><dc:creator><cc:Agent><dc:title>Timothée Giet</dc:title></cc:Agent></dc:creator><cc:license
           rdf:resource="http://creativecommons.org/licenses/by-sa/4.0/" /></cc:Work><cc:License
         rdf:about="http://creativecommons.org/licenses/by-sa/4.0/"><cc:permits
           rdf:resource="http://creativecommons.org/ns#Reproduction" /><cc:permits
           rdf:resource="http://creativecommons.org/ns#Distribution" /><cc:requires
           rdf:resource="http://creativecommons.org/ns#Notice" /><cc:requires
           rdf:resource="http://creativecommons.org/ns#Attribution" /><cc:permits
           rdf:resource="http://creativecommons.org/ns#DerivativeWorks" /><cc:requires
           rdf:resource="http://creativecommons.org/ns#ShareAlike" /></cc:License></rdf:RDF></metadata><defs
     id="defs747"><linearGradient
       id="linearGradient1027"><stop
         id="stop1028"
         offset="0"
         style="stop-color:#b20000;stop-opacity:1;" /><stop
         id="stop1029"
         offset="1"
         style="stop-color:#ffffff;stop-opacity:1;" /></linearGradient><linearGradient
       id="linearGradient763"><stop
         id="stop764"
         offset="0"
         style="stop-color:#000;stop-opacity:1;" /><stop
         id="stop765"
         offset="1"
         style="stop-color:#fff;stop-opacity:1;" /></linearGradient></defs><path
     id="rect935"
     d="M 40.458201,3.3715715 C 37.927065,2.6933568 35.343368,4.1850553 34.665154,6.7161867 L 15.077728,79.817456 c -0.678215,2.531132 0.813483,5.114829 3.344615,5.793044 l 41.119458,11.017927 c 2.53114,0.678218 5.11484,-0.813484 5.79305,-3.344615 l 19.58742,-73.10127 c 0.67822,-2.531132 -0.81348,-5.114829 -3.34461,-5.793044 z m 19.8252,8.2502605 a 1.8920001,1.8920001 0 0 1 1.33784,2.317218 1.8920001,1.8920001 0 0 1 -2.31721,1.337846 1.8920001,1.8920001 0 0 1 -1.33785,-2.317217 1.8920001,1.8920001 0 0 1 2.31722,-1.337847 z m -20.4461,1.377084 37.4644,10.038556 c 1.01245,0.271285 1.60913,1.304764 1.33785,2.317217 l -1.46906,5.482595 c -0.27129,1.012453 -1.30477,1.609132 -2.31721,1.337846 L 37.388873,22.136574 C 36.37642,21.865288 35.779741,20.831809 36.051026,19.819357 l 1.469057,-5.482596 c 0.271286,-1.012452 1.304764,-1.609132 2.317218,-1.337845 z M 35.674972,28.532936 73.139371,38.571492 59.428181,89.742381 21.963774,79.703824 Z"
     style="opacity:1;vector-effect:none;fill:#dc4f3d;fill-opacity:1;stroke:#81362c;stroke-width:1.41900003;stroke-linecap:round;stroke-linejoin:round;stroke-miterlimit:4;stroke-dasharray:none;stroke-dashoffset:3.20000005;stroke-opacity:1" /><path
     id="rect941"
     d="m 38.905957,27.439932 c -2.531133,-0.678215 -5.11483,0.813484 -5.793044,3.344615 L 20.870771,76.472841 c -0.678214,2.531132 0.813484,5.114829 3.344615,5.793044 l 31.981805,8.569498 c 2.53113,0.678215 5.11483,-0.813483 5.79304,-3.344615 l 12.24215,-45.688294 c 0.67821,-2.53113 -0.81349,-5.114828 -3.34462,-5.793043 z m -2.227599,2.830916 2.251608,2.562061 3.230985,-1.093004 -3.965506,3.834301 z m 7.310123,1.958743 2.25162,2.56206 3.23098,-1.093003 -3.96552,3.834301 z m 7.31013,1.958743 2.25162,2.56206 3.23097,-1.093003 -3.96551,3.834301 z m 7.31012,1.958742 2.25162,2.562061 3.23098,-1.093004 -3.96551,3.834301 z m 7.31013,1.958742 2.25162,2.562061 3.23097,-1.093003 -3.9655,3.834301 z m -27.0545,-1.373003 2.25161,2.56206 3.23099,-1.093003 -3.96552,3.8343 z m 7.31013,1.958743 2.25161,2.56206 3.23098,-1.093003 -3.96551,3.834301 z m 7.31013,1.958742 2.25161,2.562061 3.23098,-1.093004 -3.96551,3.834301 z m 7.31012,1.958743 2.25161,2.56206 3.23099,-1.093003 -3.96552,3.8343 z m -27.054498,-1.373004 2.251612,2.56206 3.230984,-1.093003 -3.965512,3.834301 z m 7.310128,1.958742 2.25161,2.562061 3.23099,-1.093003 -3.96552,3.834301 z m 7.31013,1.958744 2.25161,2.562059 3.23098,-1.093003 -3.96551,3.834301 z m 7.31012,1.958742 2.25161,2.56206 3.23099,-1.093003 -3.96551,3.8343 z m 7.31013,1.958742 2.25161,2.562061 3.23099,-1.093003 -3.96552,3.834301 z m -27.054501,-1.373004 2.251609,2.562061 3.230992,-1.093004 -3.965518,3.834301 z m 7.310131,1.958743 2.25161,2.56206 3.23099,-1.093003 -3.96552,3.834301 z m 7.31013,1.958743 2.25161,2.56206 3.23098,-1.093003 -3.96551,3.834301 z m 7.31012,1.958742 2.25161,2.562061 3.23099,-1.093004 -3.96551,3.834301 z m -27.054502,-1.373003 2.251613,2.56206 3.230982,-1.093004 -3.965511,3.834301 z m 7.310127,1.958742 2.251615,2.56206 3.23098,-1.093003 -3.96551,3.8343 z m 7.310125,1.958743 2.25162,2.56206 3.23097,-1.093003 -3.96551,3.834301 z m 7.31013,1.958742 2.25162,2.562061 3.23097,-1.093004 -3.96551,3.834301 z m 7.31012,1.958743 2.25162,2.56206 3.23098,-1.093003 -3.96551,3.834301 z m -27.054496,-1.373004 2.251613,2.56206 3.230983,-1.093003 -3.965511,3.834301 z m 7.310126,1.958742 2.25161,2.562061 3.23099,-1.093003 -3.96552,3.834301 z m 7.31013,1.958744 2.25161,2.562059 3.23098,-1.093003 -3.96551,3.834301 z m 7.31013,1.958742 2.2516,2.56206 3.23099,-1.093003 -3.96551,3.8343 z m -27.054505,-1.373004 2.251611,2.562061 3.230984,-1.093004 -3.965512,3.834301 z m 7.310127,1.958742 2.251612,2.562061 3.230986,-1.093004 -3.965515,3.834301 z m 7.310128,1.958743 2.25161,2.56206 3.23099,-1.093003 -3.96552,3.834301 z m 7.31013,1.958743 2.25161,2.56206 3.23098,-1.093003 -3.96551,3.834301 z m 7.31012,1.958742 2.25161,2.562061 3.23099,-1.093004 -3.96551,3.834301 z m -27.054499,-1.373003 2.251612,2.56206 3.230983,-1.093004 -3.965512,3.834301 z m 7.310127,1.958742 2.251612,2.56206 3.23098,-1.093002 -3.965505,3.8343 z m 7.310122,1.958743 2.25162,2.56206 3.23098,-1.093003 -3.96551,3.834301 z m 7.31014,1.958742 2.25161,2.562061 3.23098,-1.093004 -3.96551,3.834301 z m -27.05451,-1.373003 2.251613,2.562059 3.230982,-1.093003 -3.965511,3.834301 z m 7.310128,1.958742 2.251611,2.56206 3.230984,-1.093003 -3.965512,3.834301 z m 7.310122,1.958742 2.25161,2.562061 3.23099,-1.093003 -3.96552,3.834301 z m 7.31013,1.958744 2.25161,2.56206 3.23098,-1.093004 -3.96551,3.834301 z m 7.31013,1.958742 2.25162,2.56206 3.23097,-1.093003 -3.96551,3.8343 z"
     style="opacity:1;vector-effect:none;fill:#a7a7a7;fill-opacity:1;stroke:#4d4d4d;stroke-width:0.47300002;stroke-linecap:round;stroke-linejoin:round;stroke-miterlimit:4;stroke-dasharray:none;stroke-dashoffset:3.20000005;stroke-opacity:1" /></svg>