<svg xmlns:dc="http://purl.org/dc/elements/1.1/" xmlns:cc="http://creativecommons.org/ns#" xmlns:rdf="http://www.w3.org/1999/02/22-rdf-syntax-ns#" xmlns="http://www.w3.org/2000/svg" width="100" height="100" xml:space="preserve" version="1.0"><metadata><rdf:RDF><cc:Work><dc:format>image/svg+xml</dc:format><dc:type rdf:resource="http://purl.org/dc/dcmitype/StillImage"/><dc:title/><dc:date>2021</dc:date><dc:creator><cc:Agent><dc:title>Timothée Giet</dc:title></cc:Agent></dc:creator><cc:license rdf:resource="http://creativecommons.org/licenses/by-sa/4.0/"/></cc:Work><cc:License rdf:about="http://creativecommons.org/licenses/by-sa/4.0/"><cc:permits rdf:resource="http://creativecommons.org/ns#Reproduction"/><cc:permits rdf:resource="http://creativecommons.org/ns#Distribution"/><cc:requires rdf:resource="http://creativecommons.org/ns#Notice"/><cc:requires rdf:resource="http://creativecommons.org/ns#Attribution"/><cc:permits rdf:resource="http://creativecommons.org/ns#DerivativeWorks"/><cc:requires rdf:resource="http://creativecommons.org/ns#ShareAlike"/></cc:License></rdf:RDF></metadata><path style="font-size:12px;fill:#f5f5f5;fill-opacity:1;fill-rule:evenodd;stroke:#606060;stroke-width:.5006907;stroke-opacity:1" d="M58.1 7.324c-4.317 17.857-6.714 40.663.323 64.958 2.146.052 28.142.45 29.339.31C67.222 54.531 64.007 30.46 58.1 7.323z"/><rect style="font-size:12px;fill:#868686;fill-opacity:1;fill-rule:evenodd;stroke:#3d3d3d;stroke-width:.45884159;stroke-miterlimit:4;stroke-dasharray:none;stroke-opacity:1" width="30.038342" height="1.3485696" x="58.502506" y="72.212524" ry="0.67428482"/><rect style="font-size:12px;fill:#b3803b;fill-opacity:1;fill-rule:evenodd;stroke:#544125;stroke-width:.5;stroke-miterlimit:4;stroke-dasharray:none;stroke-opacity:1" width="2.0555875" height="74.237137" x="56.687527" y="4.2116632" ry="0.79349488"/><path style="font-size:12px;fill:#f5f5f5;fill-opacity:1;fill-rule:evenodd;stroke:#606060;stroke-width:.5;stroke-miterlimit:4;stroke-dasharray:none;stroke-opacity:1" d="M21.184 72.1h35.84c-8.32-20.087-6.298-42.162 0-65.368-12.095 4.741-27.435 18.894-35.84 65.369z"/><rect style="font-size:12px;fill:#868686;fill-opacity:1;fill-rule:evenodd;stroke:#3d3d3d;stroke-width:.5;stroke-miterlimit:4;stroke-dasharray:none;stroke-opacity:1" width="36.791843" height="1.3074112" x="20.523083" y="72.233101" ry="0.6537056"/><path style="font-size:12px;fill:#b6b6b6;fill-opacity:1;fill-rule:evenodd;stroke:#5f5f5f;stroke-width:.5006907;stroke-opacity:1" d="m72.1 78.846-32.434-.397c-24.69-.232-1.174.673.86-3.009 5.322-.79 30.826.588 31.574 3.406z"/><path style="font-size:12px;fill:#edc912;fill-opacity:1;fill-rule:evenodd;stroke:#7f5719;stroke-width:1;stroke-miterlimit:4;stroke-dasharray:none;stroke-opacity:1" d="M91.805 79.375c-.264 3.64 1.01 5.425-4.816 8.02-5.826 2.594-18.754 5.998-29.965 5.998-22.423 0-24.863-2.903-46.287-9.522 0-6.487 11.3-5.554 40.336-5.554l20.366.529z"/><path style="font-size:12px;fill:#c6ab1f;fill-opacity:1;fill-rule:evenodd;stroke:none;stroke-width:.69999999;stroke-miterlimit:4;stroke-dasharray:none;stroke-opacity:1" d="M10.748 83.668c0 .018-.003.036-.004.055l.002.152c21.414 6.616 23.858 9.518 46.277 9.518 11.212 0 24.139-3.404 29.965-5.999 2.829-1.259 3.978-2.328 4.448-3.511v-.02z"/><path style="font-size:12px;fill:#7f5719;fill-opacity:1;fill-rule:evenodd;stroke-width:.5006907" d="M10.744 83.669v.525l80.633.044.117-.5z"/><path style="font-size:12px;fill:#edc912;fill-opacity:1;fill-rule:evenodd;stroke:none;stroke-width:.69999999;stroke-miterlimit:4;stroke-dasharray:none;stroke-opacity:1" d="M32.521 78.271c-15.204.042-21.591.72-21.773 5.397l80.688.195v.02c.498-1.254.233-2.635.369-4.508l-20.366-.53-20.367-.529c-7.259 0-13.408-.059-18.55-.045zm-21.777 5.452c-.001.05-.008.097-.008.148l.01.004z"/><path d="M701.613 733.553c.295 14.021-107.188 39.33-301.542 43.418-249.857 5.256-367.958-25.94-368.253-39.962-.148-7.012 39.471-10.946 98.55-13.535 59.079-2.591 63.618 16.622 217.895 5.106 131.006 5.515 227.36-1.349 286.39-24.282 36.736-13.515 66.813 22.243 66.96 29.255z" style="font-size:12px;fill:#15a1ea;fill-opacity:1;fill-rule:evenodd;stroke-width:4.63682747" transform="matrix(.14006 0 0 .14006 -1.076 -12.864)"/><path d="M702.731 730.578c-6.838 6.39-11.345-3.068-25.156-16.066-14.082-12.07-26.928 2.019-44.143 6.021-32.313 5.288-19.111 21.39-62.244 23.673-43.132 2.282-121.646-13.027-171.457-11.98-49.812 1.049-155.655 34.413-201.829 4.474-36.657-22.844-66.697-1.382-99.42-2.55-44.503-1.523-26.84 16.444-45.164 13.578-18.324-2.865-25.206-7.337-27.393-10-2.695-7.207 8.76-7.51 26.948-11.144 18.187-3.634-4.956-1.349 27.635-4.493s34.786-17.619 76.762-7.438c74.258 17.147 96.748 8.825 148.797 1.823 49.514-5.535 117.48 4.196 160.67 4.662 43.191.467 50.902-21.334 108.57-11.819 32.284 5.453 42.043-23.852 82.904-16.735 18.253 3.285 52.153 29.783 44.52 37.994z" style="font-size:12px;fill:#e8e8e8;fill-opacity:1;fill-rule:evenodd" transform="matrix(.14006 0 0 .14006 -1.076 -12.864)"/></svg>