<?xml version="1.0" encoding="UTF-8" standalone="no"?>
<svg
   xmlns:dc="http://purl.org/dc/elements/1.1/"
   xmlns:cc="http://creativecommons.org/ns#"
   xmlns:rdf="http://www.w3.org/1999/02/22-rdf-syntax-ns#"
   xmlns:svg="http://www.w3.org/2000/svg"
   xmlns="http://www.w3.org/2000/svg"
   version="1.0"
   id="svg2"
   height="100"
   width="100">
  <defs
     id="defs4" />
  <metadata
     id="metadata7">
    <rdf:RDF>
      <cc:Work
         rdf:about="">
        <dc:format>image/svg+xml</dc:format>
        <dc:type
           rdf:resource="http://purl.org/dc/dcmitype/StillImage" />
        <dc:title></dc:title>
        <dc:date>2015</dc:date>
        <dc:creator>
          <cc:Agent>
            <dc:title>Timothée Giet</dc:title>
          </cc:Agent>
        </dc:creator>
        <cc:license
           rdf:resource="http://creativecommons.org/licenses/by-sa/4.0/" />
      </cc:Work>
      <cc:License
         rdf:about="http://creativecommons.org/licenses/by-sa/4.0/">
        <cc:permits
           rdf:resource="http://creativecommons.org/ns#Reproduction" />
        <cc:permits
           rdf:resource="http://creativecommons.org/ns#Distribution" />
        <cc:requires
           rdf:resource="http://creativecommons.org/ns#Notice" />
        <cc:requires
           rdf:resource="http://creativecommons.org/ns#Attribution" />
        <cc:permits
           rdf:resource="http://creativecommons.org/ns#DerivativeWorks" />
        <cc:requires
           rdf:resource="http://creativecommons.org/ns#ShareAlike" />
      </cc:License>
    </rdf:RDF>
  </metadata>
  <g
     transform="translate(0,50)"
     id="layer1">
    <path
       d="M 76.917242,3.7611351 A 27.197746,27.197746 0 0 1 46.130645,26.794277 27.197746,27.197746 0 0 1 23.07473,-3.9752684 27.197746,27.197746 0 0 1 53.827207,-27.053945 27.197746,27.197746 0 0 1 76.928631,3.681447"
       id="path4136-3"
       style="color:#000000;display:inline;overflow:visible;visibility:visible;opacity:1;fill:#f7a209;fill-opacity:1;fill-rule:nonzero;stroke:none;stroke-width:1.97022557;stroke-linecap:round;stroke-linejoin:round;stroke-miterlimit:4;stroke-dasharray:none;stroke-dashoffset:0;stroke-opacity:1;marker:none;enable-background:accumulate" />
    <path
       d="M 72.859104,3.1749733 A 23.097494,23.097494 0 0 1 46.713804,22.735706 23.097494,23.097494 0 0 1 27.133731,-3.3951127 23.097494,23.097494 0 0 1 53.250055,-22.994516 23.097494,23.097494 0 0 1 72.868777,3.1072987"
       id="path4136"
       style="color:#000000;display:inline;overflow:visible;visibility:visible;opacity:1;fill:#fce8a5;fill-opacity:1;fill-rule:nonzero;stroke:none;stroke-width:1.97022557;stroke-linecap:round;stroke-linejoin:round;stroke-miterlimit:4;stroke-dasharray:none;stroke-dashoffset:0;stroke-opacity:1;marker:none;enable-background:accumulate" />
    <path
       id="path4136-3-3-29"
       d="m 51.838237,-47.420098 -0.577215,15.769501 a 31.581444,31.581444 0 0 1 3.182375,0.257823 31.581444,31.581444 0 0 1 4.806273,1.1121 l 4.579236,-15.142261 a 47.396074,47.396074 0 0 0 -11.990669,-1.997163 z m -3.744199,0.01154 a 47.396074,47.396074 0 0 0 -7.546118,0.931239 l 3.178528,15.430869 a 31.581444,31.581444 0 0 1 5.037159,-0.623391 z m -15.342361,3.1362 a 47.396074,47.396074 0 0 0 -1.847087,0.765771 l 6.380144,14.491933 a 31.581444,31.581444 0 0 1 1.235239,-0.492556 z m 37.89221,1.496909 -6.853462,14.253352 a 31.581444,31.581444 0 0 1 3.894273,2.278073 l 8.839081,-13.168188 a 47.396074,47.396074 0 0 0 -5.879892,-3.363237 z m -44.722583,1.823999 a 47.396074,47.396074 0 0 0 -5.572044,3.848097 l 9.916545,12.367784 a 31.581444,31.581444 0 0 1 3.690326,-2.589771 z m 55.058569,4.929412 -10.335986,12.040695 a 31.581444,31.581444 0 0 1 0.996656,0.881215 l 10.828545,-11.58662 a 47.396074,47.396074 0 0 0 -1.489215,-1.33529 z m -65.967924,3.921211 a 47.396074,47.396074 0 0 0 -6.9804473,9.947328 l 14.0378583,7.369107 a 31.581444,31.581444 0 0 1 4.617716,-6.645662 z m 70.223921,0.354025 -11.686671,10.582267 a 31.581444,31.581444 0 0 1 3.036149,4.059741 l 13.287478,-8.61204 a 47.396074,47.396074 0 0 0 -4.636956,-6.029968 z m 6.545612,9.250824 -13.937808,7.546117 a 31.581444,31.581444 0 0 1 2.886073,7.5538157 L 96.15292,-11.155632 A 47.396074,47.396074 0 0 0 91.781482,-22.495975 Z M 6.4229971,-18.77102 a 47.396074,47.396074 0 0 0 -2.4204529,7.207485 l 15.3500588,3.8173117 a 31.581444,31.581444 0 0 1 1.646985,-4.7870307 z m -2.820655,8.531232 A 47.396074,47.396074 0 0 0 3.2136842,-8.2772602 L 18.91392,-5.518174 a 31.581444,31.581444 0 0 1 0.253974,-1.3045061 z m 93.7280969,6.2993372 -15.888794,1.3468344 a 31.581444,31.581444 0 0 1 0.06541,4.498425 l 15.911878,0.931239 a 47.396074,47.396074 0 0 0 -0.0885,-6.7764984 z M 2.5749002,-2.7167555 A 47.396074,47.396074 0 0 0 2.6787988,4.0597429 L 18.579135,2.6667323 a 31.581444,31.581444 0 0 1 -0.09235,-4.4945772 z M 81.022204,5.5874381 A 31.581444,31.581444 0 0 1 80.76438,6.8880943 L 96.368413,10.359078 A 47.396074,47.396074 0 0 0 96.760919,8.3965485 Z M 19.360299,7.4537638 3.875557,11.271075 A 47.396074,47.396074 0 0 0 8.2739316,22.60372 L 22.296397,14.965248 A 31.581444,31.581444 0 0 1 19.360299,7.4537638 Z m 61.192435,0.3501781 a 31.581444,31.581444 0 0 1 -1.673921,4.7677901 l 14.645857,6.310881 a 47.396074,47.396074 0 0 0 2.439693,-7.203638 z m -2.76678,6.9958391 a 31.581444,31.581444 0 0 1 -4.660046,6.572548 l 11.775177,10.817002 a 47.396074,47.396074 0 0 0 7.007384,-9.931939 z m -54.211988,2.293465 -13.379834,8.723637 a 47.396074,47.396074 0 0 0 4.652349,6.014574 L 26.633202,21.099116 a 31.581444,31.581444 0 0 1 -3.059236,-4.00587 z m 4.960196,5.933766 -10.913203,11.740544 a 47.396074,47.396074 0 0 0 1.493062,1.331441 l 10.428343,-12.21386 a 31.581444,31.581444 0 0 1 -1.008202,-0.858125 z m 41.013016,1.604656 a 31.581444,31.581444 0 0 1 -3.686477,2.54744 l 8.107941,13.83006 a 47.396074,47.396074 0 0 0 5.583588,-3.832703 z m -37.053325,1.481517 -8.916039,13.36444 a 47.396074,47.396074 0 0 0 5.891435,3.347845 l 6.907335,-14.464997 a 31.581444,31.581444 0 0 1 -3.882731,-2.247288 z m 30.04979,2.716758 A 31.581444,31.581444 0 0 1 61.3161,29.314801 l 5.814473,14.999884 a 47.396074,47.396074 0 0 0 1.847086,-0.761924 z m -21.645547,1.242934 -4.60617,15.384692 a 47.396074,47.396074 0 0 0 11.994516,1.962528 l 0.542583,-16.023474 a 31.581444,31.581444 0 0 1 -3.320908,-0.26167 31.581444,31.581444 0 0 1 -4.610021,-1.062076 z m 15.403933,0.715746 a 31.581444,31.581444 0 0 1 -4.994831,0.619543 l 0.723443,15.992692 a 47.396074,47.396074 0 0 0 7.54227,-0.954327 z"
       style="color:#000000;display:inline;overflow:visible;visibility:visible;opacity:1;fill:#f7a209;fill-opacity:1;fill-rule:nonzero;stroke:none;stroke-width:1.97022557;stroke-linecap:round;stroke-linejoin:round;stroke-miterlimit:4;stroke-dasharray:none;stroke-dashoffset:0;stroke-opacity:1;marker:none;enable-background:accumulate" />
  </g>
</svg>
