<?xml version="1.0" encoding="UTF-8" standalone="no"?>
<!-- Created with Sodipodi ("http://www.sodipodi.com/") -->

<svg
   xmlns:dc="http://purl.org/dc/elements/1.1/"
   xmlns:cc="http://creativecommons.org/ns#"
   xmlns:rdf="http://www.w3.org/1999/02/22-rdf-syntax-ns#"
   xmlns:svg="http://www.w3.org/2000/svg"
   xmlns="http://www.w3.org/2000/svg"
   xmlns:xlink="http://www.w3.org/1999/xlink"
   xmlns:sodipodi="http://sodipodi.sourceforge.net/DTD/sodipodi-0.dtd"
   xmlns:inkscape="http://www.inkscape.org/namespaces/inkscape"
   id="svg602"
   sodipodi:version="0.32"
   width="178.21698"
   height="107.4867"
   xml:space="preserve"
   sodipodi:docname="tuxplane.svg"
   inkscape:version="0.91 r13725"
   inkscape:output_extension="org.inkscape.output.svg.inkscape"
   version="1.0"
   sodipodi:modified="true"><metadata
     id="metadata90"><rdf:RDF><cc:Work
         rdf:about=""><dc:format>image/svg+xml</dc:format><dc:type
           rdf:resource="http://purl.org/dc/dcmitype/StillImage" /><dc:title /></cc:Work></rdf:RDF></metadata><defs
     id="defs604"><linearGradient
       id="linearGradient716"><stop
         style="stop-color:#ffffff;stop-opacity:1;"
         offset="0"
         id="stop717" /><stop
         style="stop-color:#000000;stop-opacity:1;"
         offset="1"
         id="stop718" /></linearGradient><linearGradient
       id="linearGradient738"><stop
         style="stop-color:#ffffff;stop-opacity:1;"
         offset="0"
         id="stop739" /><stop
         style="stop-color:#aadae5;stop-opacity:1;"
         offset="1"
         id="stop740" /></linearGradient><linearGradient
       id="linearGradient688"><stop
         style="stop-color:#ab7200;stop-opacity:1;"
         offset="0"
         id="stop689" /><stop
         style="stop-color:#000000;stop-opacity:1;"
         offset="1"
         id="stop690" /></linearGradient><linearGradient
       id="linearGradient635"><stop
         style="stop-color:#ff8200;stop-opacity:1;"
         offset="0"
         id="stop636" /><stop
         style="stop-color:#ffe700;stop-opacity:1;"
         offset="1"
         id="stop637" /></linearGradient><linearGradient
       id="linearGradient621"><stop
         style="stop-color:#000;stop-opacity:1;"
         offset="0"
         id="stop622" /><stop
         style="stop-color:#fff;stop-opacity:1;"
         offset="1"
         id="stop623" /></linearGradient><linearGradient
       inkscape:collect="always"
       xlink:href="#linearGradient716"
       id="linearGradient2542"
       gradientUnits="userSpaceOnUse"
       gradientTransform="scale(1.178509,0.84853)"
       x1="615.13562"
       y1="664.00165"
       x2="614.88507"
       y2="682.34222" /><linearGradient
       inkscape:collect="always"
       xlink:href="#linearGradient688"
       id="linearGradient2544"
       gradientUnits="userSpaceOnUse"
       gradientTransform="scale(0.250499,3.992035)"
       x1="2850.8486"
       y1="96.558968"
       x2="2787.21"
       y2="184.66667" /><linearGradient
       inkscape:collect="always"
       xlink:href="#linearGradient688"
       id="linearGradient2546"
       gradientUnits="userSpaceOnUse"
       gradientTransform="scale(0.703794,1.420871)"
       x1="1032.8894"
       y1="383.70267"
       x2="986.69733"
       y2="402.37399" /><radialGradient
       inkscape:collect="always"
       xlink:href="#linearGradient716"
       id="radialGradient2548"
       gradientUnits="userSpaceOnUse"
       cx="398.81259"
       cy="448.45496"
       fx="398.81259"
       fy="448.45496"
       r="3.2000804" /><radialGradient
       inkscape:collect="always"
       xlink:href="#linearGradient716"
       id="radialGradient2550"
       gradientUnits="userSpaceOnUse"
       cx="398.81259"
       cy="448.45496"
       fx="398.81259"
       fy="448.45496"
       r="3.2000804" /><linearGradient
       inkscape:collect="always"
       xlink:href="#linearGradient635"
       id="linearGradient2552"
       gradientUnits="userSpaceOnUse"
       gradientTransform="scale(1.343635,0.74425)"
       x1="293.72403"
       y1="633.70721"
       x2="315.1499"
       y2="603.40045" /><linearGradient
       inkscape:collect="always"
       xlink:href="#linearGradient738"
       id="linearGradient2554"
       gradientUnits="userSpaceOnUse"
       gradientTransform="matrix(2.377497,0,0,0.42061,105.03199,-326.74533)"
       spreadMethod="reflect"
       x1="102.07376"
       y1="1017.7301"
       x2="112.09986"
       y2="1015.9534" /><linearGradient
       inkscape:collect="always"
       xlink:href="#linearGradient635"
       id="linearGradient2556"
       gradientUnits="userSpaceOnUse"
       gradientTransform="matrix(1.883065,0,0,0.531049,4.0422945,-373.40131)"
       x1="226.07008"
       y1="1261.5146"
       x2="83.391838"
       y2="723.6217" /><linearGradient
       inkscape:collect="always"
       xlink:href="#linearGradient635"
       id="linearGradient2558"
       gradientUnits="userSpaceOnUse"
       gradientTransform="matrix(5.2470429,0,0,0.5666635,-32.362656,-1046.9388)"
       x1="59.78265"
       y1="2316.7874"
       x2="60.472851"
       y2="1983.8533" /><linearGradient
       inkscape:collect="always"
       xlink:href="#linearGradient635"
       id="linearGradient2560"
       gradientUnits="userSpaceOnUse"
       gradientTransform="matrix(1.014815,0,0,0.985402,4.0422945,-373.40131)"
       x1="0.6725772"
       y1="550.3244"
       x2="208.63736"
       y2="370.63968" /><linearGradient
       inkscape:collect="always"
       xlink:href="#linearGradient635"
       id="linearGradient2562"
       gradientUnits="userSpaceOnUse"
       gradientTransform="matrix(2.619922,0,0,0.381691,4.0422945,-373.40131)"
       x1="37.263836"
       y1="1332.7932"
       x2="37.83556"
       y2="1281.9246" /><linearGradient
       inkscape:collect="always"
       xlink:href="#linearGradient635"
       id="linearGradient2564"
       gradientUnits="userSpaceOnUse"
       gradientTransform="scale(0.807041,1.239094)"
       spreadMethod="reflect"
       x1="771.12793"
       y1="525.97125"
       x2="771.1452"
       y2="436.54367" /><radialGradient
       inkscape:collect="always"
       xlink:href="#linearGradient635"
       id="radialGradient2566"
       gradientUnits="userSpaceOnUse"
       gradientTransform="scale(1.549194,0.645497)"
       cx="406.75861"
       cy="980.67487"
       fx="406.75861"
       fy="980.67487"
       r="38.999035" /><radialGradient
       inkscape:collect="always"
       xlink:href="#linearGradient635"
       id="radialGradient2568"
       gradientUnits="userSpaceOnUse"
       gradientTransform="scale(1.549194,0.645497)"
       cx="396.90256"
       cy="910.4856"
       fx="396.90256"
       fy="910.4856"
       r="30.770054" /><radialGradient
       inkscape:collect="always"
       xlink:href="#linearGradient635"
       id="radialGradient2570"
       gradientUnits="userSpaceOnUse"
       gradientTransform="scale(1.549194,0.645497)"
       cx="396.46725"
       cy="842.56415"
       fx="396.46725"
       fy="842.56415"
       r="24.040691" /><radialGradient
       inkscape:collect="always"
       xlink:href="#linearGradient635"
       id="radialGradient2572"
       gradientUnits="userSpaceOnUse"
       gradientTransform="scale(1.549194,0.645497)"
       cx="396.14011"
       cy="765.92731"
       fx="396.14011"
       fy="765.92731"
       r="30.770054" /><radialGradient
       inkscape:collect="always"
       xlink:href="#linearGradient716"
       id="radialGradient2574"
       gradientUnits="userSpaceOnUse"
       gradientTransform="matrix(0.9226676,-0.765535,0.4895639,0.5636379,-193.77591,191.76319)"
       spreadMethod="reflect"
       cx="450.07962"
       cy="719.85559"
       fx="450.07962"
       fy="719.85559"
       r="31.347063" /><linearGradient
       inkscape:collect="always"
       xlink:href="#linearGradient621"
       id="linearGradient2576"
       gradientUnits="userSpaceOnUse"
       gradientTransform="scale(0.816497,1.224745)"
       x1="688.35193"
       y1="461.9389"
       x2="724.20062"
       y2="460.94635" /><linearGradient
       inkscape:collect="always"
       xlink:href="#linearGradient635"
       id="linearGradient2578"
       gradientUnits="userSpaceOnUse"
       gradientTransform="scale(1.795583,0.556922)"
       x1="237.41417"
       y1="805.50189"
       x2="304.56967"
       y2="661.30823" /><linearGradient
       inkscape:collect="always"
       xlink:href="#linearGradient635"
       id="linearGradient2580"
       gradientUnits="userSpaceOnUse"
       gradientTransform="scale(1.568043,0.637738)"
       x1="259.79141"
       y1="963.77496"
       x2="370.57349"
       y2="962.06879" /><linearGradient
       inkscape:collect="always"
       xlink:href="#linearGradient716"
       id="linearGradient2582"
       gradientUnits="userSpaceOnUse"
       gradientTransform="matrix(2.228698,0,0,0.448692,4.0422945,-373.40131)"
       x1="104.81612"
       y1="1109.5081"
       x2="103.78347"
       y2="1149.5356" /></defs><sodipodi:namedview
     id="base"
     inkscape:zoom="0.37724655"
     inkscape:cx="-259.33876"
     inkscape:cy="1.7262071"
     inkscape:window-width="822"
     inkscape:window-height="719"
     inkscape:window-x="6"
     inkscape:window-y="50"
     inkscape:current-layer="svg602"
     showgrid="false"
     units="px"
     fit-margin-top="9"
     fit-margin-left="9"
     fit-margin-right="9"
     fit-margin-bottom="9"
     inkscape:window-maximized="0" /><g
     id="g2491"
     transform="matrix(0.2195556,0,0,0.2195556,9,9.0000007)"><g
       transform="translate(4.0422945,-373.40131)"
       id="g823"><path
         transform="translate(-18.89862,-5.14235)"
         sodipodi:nodetypes="cccccc"
         id="path685"
         d="m 692.3889,545.8076 0,37.5845 25.0563,0 c 15.0377,0 27.1442,-8.3816 27.1442,-18.7925 0,-10.4109 -12.1065,-18.792 -27.1442,-18.792 l -25.0563,0 z"
         style="font-size:12px;fill:url(#linearGradient2542);fill-rule:evenodd"
         inkscape:connector-curvature="0" /><path
         transform="translate(-18.89862,-4.724686)"
         sodipodi:nodetypes="ccccccccc"
         id="path687"
         d="m 707.4223,379.793 c -14.1869,0 -10.8577,106.7672 -10.8577,120.4449 l 6.6817,61.0921 -6.2641,57.6014 c -1.6704,9.189 -3.3292,124.4346 11.2753,123.9358 5.8347,0 10.4401,-4.029 10.4401,-17.7068 L 718.28,561.33 717.8624,396.0036 c 0,-13.6776 -4.6053,-16.2106 -10.4401,-16.2106 z"
         style="font-size:12px;fill:url(#linearGradient2544);fill-rule:evenodd"
         inkscape:connector-curvature="0" /><rect
         transform="translate(-18.89862,-5.14235)"
         ry="26.628502"
         y="542.04865"
         x="698.23547"
         height="44.683723"
         width="22.132996"
         id="rect691"
         style="font-size:12px;fill:url(#linearGradient2546);fill-rule:evenodd"
         rx="26.628502" /></g><path
       sodipodi:nodetypes="ccccccccc"
       id="path756"
       d="m 430.68172,35.93242 c -16.8888,0 -34.8954,10.447 -33.1428,40.2297 l -2.3623,17.3639 c -4.7247,16.8887 -6.1883,29.3039 10.7006,29.3039 l 31.9273,0.5906 c 16.8888,0 40.5252,10.3222 40.5252,-6.5665 l -17.4223,-39.806 c 10e-5,-27.8144 -12.7105,-41.1156 -29.5993,-41.1156 l -0.6264,0 z"
       style="font-size:12px;fill:#000037;fill-rule:evenodd"
       inkscape:connector-curvature="0" /><g
       style="font-size:12px"
       transform="translate(10.53877,-374.28735)"
       id="g720"><g
         transform="translate(17.12181,33.19958)"
         id="g685"><rect
           transform="matrix(0.999947,0.01026074,-0.01026074,0.999947,0,0)"
           y="388.58585"
           x="398.63693"
           height="4.1340609"
           width="7.0869694"
           id="rect748"
           style="font-size:12px;fill:#bc7900;fill-rule:evenodd" /><path
           sodipodi:nodetypes="ccccccccccccccc"
           id="path683"
           d="m 396.6563,394.1438 c -0.0502,4.8923 -2.0295,8.8384 -8.0633,8.7765 -6.0339,-0.0619 -13.8373,-4.1084 -13.7871,-9.0007 0.0502,-4.8924 4.9459,-5.2648 10.9798,-5.2029 6.0338,0.0619 10.9208,0.5347 10.8706,5.4271 z m -2.1525,0.3909 c -0.0384,3.7425 -1.5525,6.7614 -6.1685,6.714 -4.6159,-0.0474 -10.5854,-3.1429 -10.5471,-6.8856 0.0385,-3.7426 3.7836,-4.0276 8.3996,-3.9802 4.6158,0.0473 8.3544,0.4091 8.316,4.1518 z m -11.8999,-4.1383 -0.0481,9.5203 1.8708,0.7583 0.0481,-10.3324 -1.8708,0.0538 z"
           style="font-size:12px;fill:#bc7900;fill-rule:evenodd"
           inkscape:connector-curvature="0" /><path
           sodipodi:nodetypes="ccccccccccccccc"
           id="path684"
           d="m 399.5092,394.1438 c 0.0502,4.8923 2.0295,8.8384 8.0633,8.7765 6.0339,-0.0619 13.8373,-4.1084 13.7871,-9.0007 -0.0502,-4.8924 -4.9459,-5.2648 -10.9798,-5.2029 -6.0338,0.0619 -10.9208,0.5347 -10.8706,5.4271 z m 2.1525,0.3909 c 0.0384,3.7425 1.5525,6.7614 6.1685,6.714 4.6159,-0.0474 10.5854,-3.1429 10.5471,-6.8856 -0.0385,-3.7426 -3.7836,-4.0276 -8.3996,-3.9802 -4.6158,0.0473 -8.3544,0.4091 -8.316,4.1518 z m 11.8999,-4.1383 0.0481,9.5203 -1.8708,0.7583 -0.0481,-10.3324 1.8708,0.0538 z"
           style="font-size:12px;fill:#bc7900;fill-rule:evenodd"
           inkscape:connector-curvature="0" /></g><path
         sodipodi:nodetypes="ccccc"
         id="path699"
         d="m 409.6376,449.1857 c -3.2748,0.0622 -7.9752,2.6611 -11.9877,4.8207 -1.772,1.2526 -4.099,-4.2023 -4.099,-8.2836 0,-5.5074 2.3164,-9.5871 8.2571,-9.5871 5.4491,0 8.7184,6.2541 7.8296,13.05 z"
         style="font-size:12px;fill:#ffffff;fill-rule:evenodd"
         inkscape:connector-curvature="0" /><path
         sodipodi:nodetypes="ccccc"
         id="path703"
         d="m 416.2332,449.481 c 4.6129,0.3575 10.3826,2.3658 14.1764,4.2302 1.9645,1.2525 3.3632,-3.6118 3.3632,-7.6931 0,-4.3262 -2.7286,-10.1777 -9.3149,-10.1777 -6.9271,0 -9.2101,5.0729 -8.2247,13.6406 z"
         style="font-size:12px;fill:#ffffff;fill-rule:evenodd"
         inkscape:connector-curvature="0" /><circle
         transform="translate(-0.590592,-0.88588)"
         id="path714"
         style="fill:url(#radialGradient2548);fill-opacity:1;fill-rule:evenodd;stroke:none;stroke-width:1pt;stroke-linecap:butt;stroke-linejoin:miter;stroke-opacity:1"
         cx="401.89166"
         cy="448.78644"
         r="5.3152466" /><circle
         transform="translate(22.44213,-1.476471)"
         id="path719"
         style="fill:url(#radialGradient2550);fill-opacity:1;fill-rule:evenodd;stroke:none;stroke-width:1pt;stroke-linecap:butt;stroke-linejoin:miter;stroke-opacity:1"
         cx="401.89166"
         cy="448.78644"
         r="5.3152466" /><path
         sodipodi:nodetypes="ccscs"
         id="path691"
         d="m 435.2039,458.1105 c 0.2577,4.7306 -16.6315,14.4075 -23.0726,14.4075 -7.0675,0 -17.2673,-8.9073 -17.6438,-14.4075 -0.201,-2.6403 10.5761,-8.352 19.3142,-8.1432 10.1995,0 21.2572,5.4815 21.4022,8.1432 z"
         style="font-size:12px;fill:url(#linearGradient2552);fill-rule:evenodd"
         inkscape:connector-curvature="0" /><path
         sodipodi:nodetypes="csc"
         id="path692"
         d="m 395.0273,458.1467 c 2.2872,2.5006 8.0463,8.4926 17.1785,8.2225 11.0584,-0.3167 17.0785,-7.3746 19.737,-7.874"
         style="font-size:12px;fill:none;fill-rule:evenodd;stroke:#000000"
         inkscape:connector-curvature="0" /></g><path
       sodipodi:nodetypes="cccccccccccccccccccc"
       id="path736"
       d="m 248.24829,75.60647 c -21.8516,-9.966 0,11.2949 0,11.9593 12.9928,21.3348 25.838,0.8121 34.6229,0.8121 8.7849,0 11.664,4.7246 20.449,4.7246 8.7849,0 19.9321,-2.3623 28.7171,-2.3623 8.1943,4.134 14.0263,-6.4964 22.8112,-6.4964 8.785,0 17.5698,12.4021 25.1736,7.087 8.1944,-2.953 12.2546,5.9058 19.8584,9.4492 6.1272,6.2012 15.5028,9.1541 35.8041,7.6777 8.7849,0 19.3416,-12.4022 28.1265,-12.4022 8.8587,2.879 -10e-5,-16.3887 -2.6577,-16.4625 -0.8859,5.8321 -28.6432,21.261 -34.549,18.8249 -9.3756,1.7717 -18.1605,-4.1342 -25.7643,-7.6777 -10.8519,-1.1812 1.6242,-11.221 -8.0466,-11.8116 -8.7849,0 -6.3488,0 -15.1337,0 -8.7849,0 -12.2546,-10.6305 -21.0395,-10.6305 -8.7849,0 -2.2147,17.7175 -29.3077,5.3152 -8.7849,0 -11.664,7.087 -20.449,7.087 -8.7849,0 -21.7039,-12.9928 -32.2605,-7.087 -5.832,2.3623 -9.2279,6.0535 -26.3548,1.9932 z"
       style="font-size:12px;fill:url(#linearGradient2554);fill-rule:evenodd"
       inkscape:connector-curvature="0" /><path
       sodipodi:nodetypes="cccsc"
       id="path758"
       d="m 390.94129,79.83737 c 0,13.5499 13.9949,24.8086 9.1514,24.8086 -4.8433,0 -24.1852,-8.3355 -24.1852,-21.8853 0,-13.5501 11.2592,-26.7025 15.4513,-29.1281 4.8434,-3.1321 -0.4175,12.6548 -0.4175,26.2048 z"
       style="font-size:12px;fill-rule:evenodd"
       inkscape:connector-curvature="0" /><path
       sodipodi:nodetypes="ccccc"
       id="path697"
       d="m 77.682164,174.89549 c 0.509321,10.857 -23.13646,18.3706 -35.22081,21.8723 -2.7368,0.4645 0.92648,5.6096 3.351061,4.9597 12.910199,-3.9475 33.252729,-11.4611 39.556349,-23.6552 0.25931,-0.9104 -7.12007,-4.0495 -7.6866,-3.1768 z"
       style="font-size:12px;fill:#808080;fill-rule:evenodd"
       inkscape:connector-curvature="0" /><path
       sodipodi:nodetypes="cccccc"
       id="path606"
       d="m 674.77609,180.51009 c 1e-4,86.0008 -67.8759,99.2176 -173.8104,99.2176 -237.0433,-1.1811 -466.280535,-115.8418 -466.702386,-125.8457 -0.59059,-28.4037 121.205886,-49.1494 347.442786,-54.788 57.3293,38.0243 100.2931,22.3579 101.2888,2.2782 97.6653,0 191.7812,7.3113 191.7812,79.1379 z"
       style="font-size:12px;fill:url(#linearGradient2556);fill-rule:evenodd"
       inkscape:connector-curvature="0" /><path
       sodipodi:nodetypes="ccscs"
       id="path644"
       d="m 483.29909,101.37229 c 3.2481,0.1061 7.4207,21.2608 -35.1396,21.2608 -37.8356,0 -69.285,-19.2719 -67.3262,-23.0325 2.6576,-4.2402 27.4236,18.8986 65.2592,18.8986 38.4262,-0.2954 32.9735,-16.8804 37.2066,-17.1269 z"
       style="font-size:12px;fill:#383738;fill-rule:evenodd"
       inkscape:connector-curvature="0" /><path
       sodipodi:nodetypes="ccccc"
       id="path833"
       d="m 461.15238,129.02814 c 0,6.89589 -23.11232,9.24667 -38.4107,9.24667 -85.4564,0 -321.25365,-1.16963 -321.25365,-8.06552 0,-6.89589 92.03651,-26.74422 277.85748,-30.776986 38.31387,36.598846 81.80687,15.612836 81.80687,29.595836 z"
       style="font-size:12px;fill:url(#linearGradient2558);fill-rule:evenodd"
       inkscape:connector-curvature="0" /><path
       sodipodi:nodetypes="ccscc"
       id="path608"
       d="m 179.54629,110.61009 c -21.636,1.6559 -120.305105,24.4226 -111.204365,63.7323 -34.78977,-19.5212 -69.0390045,-29.6933 -68.3311385,-64.0276 -0.162128,-57.0941 23.3052775,-94.7621 66.9613875,-107.7549 70.440616,-18.8985 112.574116,71.8455 112.574116,108.0502 z"
       style="font-size:12px;fill:url(#linearGradient2560);fill-rule:evenodd"
       inkscape:connector-curvature="0" /><path
       sodipodi:nodetypes="ccc"
       id="path658"
       d="m 149.12269,39.14929 -87.987955,0.2957 -0.590571,130.08"
       style="font-size:12px;fill:none;fill-rule:evenodd;stroke:#6e2b00;stroke-width:1"
       inkscape:connector-curvature="0" /><path
       sodipodi:nodetypes="ccccc"
       id="path642"
       d="m 176.49209,133.26369 c 0,5.2187 -14.7164,8.2681 -52.321,8.2681 -37.604436,0 -95.324425,-3.0494 -95.324425,-8.2681 0,-5.2187 57.719969,-12.3009 95.324425,-12.3009 37.6046,0 52.321,7.0822 52.321,12.3009 z"
       style="font-size:12px;fill:url(#linearGradient2562);fill-rule:evenodd;stroke:#ffa100;stroke-width:1.101632"
       inkscape:connector-curvature="0" /><g
       transform="translate(-14.856365,-373.40134)"
       id="g704"><path
         sodipodi:nodetypes="ccccccc"
         id="path620"
         d="m 576.4074,473.5924 0,179.5368 57.5091,0 c 32.9221,0 59.426,-16.3308 59.426,-36.6161 l 0,-106.3047 c 0,-20.2852 -26.5039,-36.616 -59.426,-36.616 l -57.5091,0 z"
         style="font-size:12px;fill:url(#linearGradient2564);fill-rule:evenodd"
         inkscape:connector-curvature="0" /><path
         sodipodi:nodetypes="ccccc"
         id="path618"
         d="m 655.5453,632.4588 c 0,4.8925 -1.2507,8.8587 -12.9928,8.8587 -11.7421,0 -29.529,-3.9662 -29.529,-8.8587 0,-4.8925 17.7869,-8.8587 29.529,-8.8587 11.7421,0 12.9928,3.9662 12.9928,8.8587 z"
         style="font-size:12px;fill:url(#radialGradient2566);fill-rule:evenodd;stroke-width:1"
         inkscape:connector-curvature="0" /><path
         sodipodi:nodetypes="ccccc"
         id="path630"
         d="m 655.5453,587.5746 c 0,4.8925 -1.2507,8.8587 -12.9928,8.8587 -11.7421,0 -29.529,-3.9662 -29.529,-8.8587 0,-4.8925 17.7869,-8.8587 29.529,-8.8587 11.7421,0 12.9928,3.9662 12.9928,8.8587 z"
         style="font-size:12px;fill:url(#radialGradient2568);fill-rule:evenodd;stroke-width:1"
         inkscape:connector-curvature="0" /><path
         sodipodi:nodetypes="ccccc"
         id="path631"
         d="m 656.7264,543.8714 c 0,4.8925 -1.2507,8.8587 -12.9928,8.8587 -11.7421,0 -29.529,-3.9662 -29.529,-8.8587 0,-4.8925 17.7869,-8.8587 29.529,-8.8587 11.7421,0 12.9928,3.9662 12.9928,8.8587 z"
         style="font-size:12px;fill:url(#radialGradient2570);fill-rule:evenodd;stroke-width:1"
         inkscape:connector-curvature="0" /><path
         sodipodi:nodetypes="ccccc"
         id="path632"
         d="m 654.3641,494.2627 c 0,4.8925 -1.2507,8.8587 -12.9928,8.8587 -11.7421,0 -29.529,-3.9662 -29.529,-8.8587 0,-4.8925 17.7869,-8.8587 29.529,-8.8587 11.7421,0 12.9928,3.9662 12.9928,8.8587 z"
         style="font-size:12px;fill:url(#radialGradient2572);fill-rule:evenodd;stroke-width:1"
         inkscape:connector-curvature="0" /></g><g
       transform="translate(4.0422945,-373.40131)"
       id="g719"><path
         sodipodi:nodetypes="ccccccc"
         id="path656"
         d="m 435.8492,646.042 126.3845,98.0365 -3.5435,-96.8553 -15.6505,0.2953 4.4295,64.078 -87.7014,-64.6686 -23.9186,-0.8859 z"
         style="font-size:12px;fill:#ff8000;fill-opacity:1;fill-rule:evenodd"
         inkscape:connector-curvature="0" /><g
         id="g679"><ellipse
           transform="matrix(0.844687,0,0,0.923525,115.6024,51.68169)"
           id="path648"
           style="font-size:12px;fill:#ffb000;fill-rule:evenodd;stroke-width:1"
           cx="516.16833"
           cy="737.58215"
           rx="48.427689"
           ry="44.29361" /><path
           transform="translate(28.34793,11.81165)"
           id="path651"
           d="m 564.1613,721.0456 c 0,22.5918 -18.3143,40.9063 -40.9062,40.9063 -22.5919,0 -40.9063,-18.3145 -40.9063,-40.9063 0,-22.5919 18.3144,-40.9063 40.9063,-40.9063 22.5919,0 40.9062,18.3144 40.9062,40.9063 z m 7.219,10e-5 c 0,26.5786 -21.5462,48.125 -48.125,48.125 -26.5786,0 -48.125,-21.5464 -48.125,-48.125 0,-26.5787 21.5464,-48.1251 48.125,-48.1251 26.5788,0 48.125,21.5464 48.125,48.1251 z"
           style="font-size:12px;fill:#383838;fill-rule:evenodd"
           inkscape:connector-curvature="0" /><ellipse
           transform="matrix(0.997757,0,0,1.122474,-0.845918,-92.10437)"
           id="path667"
           style="font-size:12px;fill:#383838;fill-rule:evenodd;stroke-width:1"
           cx="553.74377"
           cy="734.98267"
           rx="7.5168762"
           ry="6.6816711" /></g></g><path
       sodipodi:nodetypes="csscsss"
       id="path819"
       d="m 558.42111,246.65319 c -4.77101,0.53424 -9.93582,9.9999 -6.13979,18.77564 3.0416,6.34913 5.58915,11.29348 23.83552,4.85281 6.83531,-2.51698 10.73339,-4.97628 15.95228,-11.15579 4.30368,-6.22182 9.25129,-15.71053 4.31442,-21.29323 -6.49513,-7.04957 -15.16166,-5.54973 -20.27583,1.62879 -5.04464,6.419 -11.34723,6.52339 -17.6866,7.19178 z"
       style="font-size:12px;fill:url(#radialGradient2574);fill-rule:evenodd"
       inkscape:connector-curvature="0" /><ellipse
       transform="matrix(0.90366,0.00109972,0.01863711,0.81967,37.616464,-202.51911)"
       id="path818"
       style="font-size:12px;fill:url(#linearGradient2576);fill-rule:evenodd;stroke-width:1"
       cx="567.9433"
       cy="562.92871"
       rx="10.022522"
       ry="15.033783" /><text
       transform="scale(0.8275815,1.2083402)"
       id="text843"
       y="164.06995"
       x="269.31488"
       style="font-style:normal;font-weight:normal;font-size:59.01511765px;font-family:'Captain Podd';writing-mode:lr-tb;text-anchor:start;fill:#000000;fill-opacity:1;stroke:none;stroke-width:1pt;stroke-linecap:butt;stroke-linejoin:miter;stroke-opacity:1"><tspan
         style="fill:#000000;fill-opacity:1"
         id="tspan844">GC</tspan></text>
<text
       transform="scale(0.9818819,1.0184525)"
       id="text846"
       y="192.65344"
       x="296.73129"
       style="font-style:normal;font-weight:normal;font-size:51.05785751px;font-family:'Captain Podd';writing-mode:lr-tb;text-anchor:start;fill:#000000;fill-opacity:1;stroke:none;stroke-width:1pt;stroke-linecap:butt;stroke-linejoin:miter;stroke-opacity:1"><tspan
         id="tspan847">ompris</tspan></text>
<g
       transform="translate(4.0422945,-373.40131)"
       id="g714"><path
         sodipodi:nodetypes="cccccc"
         id="path610"
         d="m 628.3786,430.6275 c 0,14.3839 -16.9094,14.6168 -58.2936,14.6168 -28.2137,0 -64.7255,0.5323 -94.1841,-1.0286 -10.5598,-16.916 -46.5483,-9.3492 -51.8635,-15.9505 0,-6.1157 25.6853,-45.6225 146.0476,-45.6225 56.4274,0 58.2936,41.8691 58.2936,47.9848 z"
         style="font-size:12px;fill:url(#linearGradient2578);fill-opacity:1;fill-rule:evenodd;stroke:#ff7500;stroke-width:1;stroke-opacity:1"
         inkscape:connector-curvature="0" /><path
         sodipodi:nodetypes="ccc"
         id="path657"
         d="m 500.8132,388.5484 -33.0725,31.8914 -39.5691,0.5907"
         style="fill:none;fill-opacity:1;fill-rule:evenodd;stroke:#9f4f00;stroke-width:1pt;stroke-linecap:butt;stroke-linejoin:miter;stroke-opacity:1"
         inkscape:connector-curvature="0" /><path
         sodipodi:nodetypes="ccccccccccc"
         id="path614"
         d="m 481.9144,425.1647 -63.7828,171.3151 14.174,1.1656 135.5385,-155.0275 -74.7086,155.0276 17.4222,2.3312 85.9295,-173.6774 -23.6232,0.8742 -132.8809,148.1795 59.6489,-149.9279 -17.7176,-0.2604 z"
         style="font-size:12px;fill:#ff9100;fill-opacity:1;fill-rule:evenodd;stroke:none;stroke-opacity:1"
         inkscape:connector-curvature="0" /><path
         sodipodi:nodetypes="ccccc"
         id="path611"
         d="m 543.3348,628.9153 c 0,8.1542 -14.0749,19.4891 -48.5218,19.4891 -46.9684,0 -121.5656,-11.3349 -121.5656,-19.4891 0,-8.1543 27.2855,-49.137 127.4714,-49.137 46.9685,0 42.616,40.9827 42.616,49.137 z"
         style="font-size:12px;fill:url(#linearGradient2580);fill-opacity:1;fill-rule:evenodd;stroke:#ff7f00;stroke-width:1;stroke-opacity:1"
         inkscape:connector-curvature="0" /></g><path
       sodipodi:nodetypes="csccccc"
       id="path850"
       d="m 207.64609,128.09349 c -7.749,0.4428 -13.7971,4.1891 -15.9458,17.57 -0.55,3.5733 1.4051,2.3621 15.2076,-3.5436 l 75.5948,0 c 3.7626,0 7.0869,-1.7003 7.0869,-6.6441 1e-4,-5.682 -2.7338,-7.5299 -5.4629,-7.5299 l -76.4806,0.1476 z"
       style="font-size:12px;fill:url(#linearGradient2582);fill-rule:evenodd"
       inkscape:connector-curvature="0" /></g></svg>