<!--Created with Inkscape (http://www.inkscape.org/)--><svg width="3000" height="3000" viewBox="0 0 793.74998 793.75002" version="1.1" id="svg307" xmlns="http://www.w3.org/2000/svg" xmlns:rdf="http://www.w3.org/1999/02/22-rdf-syntax-ns#" xmlns:cc="http://creativecommons.org/ns#" xmlns:dc="http://purl.org/dc/elements/1.1/"><metadata id="metadata299"><rdf:RDF><cc:Work><dc:format>image/svg+xml</dc:format><dc:type rdf:resource="http://purl.org/dc/dcmitype/StillImage"/><dc:date>2024</dc:date><dc:creator><cc:Agent><dc:title>Timothée Giet</dc:title></cc:Agent></dc:creator><cc:license rdf:resource="http://creativecommons.org/licenses/by-sa/4.0/"/></cc:Work><cc:License rdf:about="http://creativecommons.org/licenses/by-sa/4.0/"><cc:permits rdf:resource="http://creativecommons.org/ns#Reproduction"/><cc:permits rdf:resource="http://creativecommons.org/ns#Distribution"/><cc:requires rdf:resource="http://creativecommons.org/ns#Notice"/><cc:requires rdf:resource="http://creativecommons.org/ns#Attribution"/><cc:permits rdf:resource="http://creativecommons.org/ns#DerivativeWorks"/><cc:requires rdf:resource="http://creativecommons.org/ns#ShareAlike"/></cc:License></rdf:RDF></metadata><rect style="vector-effect:none;fill:#75c5f0;fill-opacity:1;stroke:none;stroke-width:.129459;stroke-linecap:butt;stroke-linejoin:miter;stroke-miterlimit:4;stroke-dasharray:none;stroke-dashoffset:0;stroke-opacity:1" width="793.75" height="793.75" x="-8.8817842e-16" y="-3.0517578e-05" id="rect301"/><path style="display:inline;fill:#cc5c18;fill-opacity:1;fill-rule:nonzero;stroke:none;stroke-width:.132292;stroke-linecap:round;stroke-linejoin:round;stroke-miterlimit:4;stroke-dasharray:none" class="polygon" d="m267.144 523.512-.754.168-.905-.203h-.825l-.01-.36.867-.369.013-.512.213-.276 1.949.623-.084.451zm4.829-2.815-.704 1.885-.58.274-.595-.155-.608-1.05.425-.406.593.213.48-.119 1.092-1.533.265.251zm13.74-2.713-1.013.309-1.08-.178.175-1.664.374.225.235.573.804.334zm199.88-22.366h-.216l-.75-1.263h.216l.436.203.48.73zm-166.28-.43-1.15.55-.425.657-1.063.226-1.035.919-1.005.167.02.74.427.622-.67.12-.7.764-.061.548.248.453-.033.228-.886.656h-.912l-.033-.717.06-.537.862-1.298.02-1.504.8-.18.292-.202 1.263-1.076.23-.454-.652-.44.047-.527.148-.226 1.04.168.422.393h.204l.606-.285.284-.526 1.135-1.013.459-1.016.915.836-.247 1.085zm8.826-12.75-.501.214-.673-.297-.204-1.37.295-.668.526-.144.455 1.18.319.491zm3.89-4.588.083.276-1.173-.228-.476-1.086.775.19.238.372zm1.534-1.24-1.029.967-1.092-.872-1.315-.586.625-.154.369-.24.033-.37.854-.549 1.696-.429h.539l.608-.407.197-.358.249-.178 1.093-.503.3.573-.046.455-.822.248-.8.598-.74.741-.668.31-.214.202zm13.97-24.524-1.37.264-.746-.276-.686-1.474 1.301-.92 1.748.92.356.264zm4.022-1.6-1.046.132-.02-.692.83-1.561.084-1.147.775-1.446.33-.322.244-.119.267.454-.302 1.771-.774 1.344zm-14.823-15.043-.374.213.24-.943.96-.825.073.537zm7.915-9.154-1.056.047-.437-.139-.171-.379 1.478-.768 1.146.137-.512.692zm-3.565 2.316-.942.43-.123-.405-.394-.192.68-.574-.026-.26-.429-.388.501-1.465-.137-.63 1.885-.234.345.592.033 1.803zm-16.917-6.614.462.32.681-.185.537-.047.388.156.487.832.18.491-.873.071-.37.12-.474.604-.688-.222-.427-.283-.094-.4zm133.412-3.25-.207.123-.574-.39-.084-.344.094-.215.375-.047.774.426zm-128.498 2.576-.299.127-.385-1.075-.267-.384.45-.207.892-1.952.165.775.35.77.348.121-.338.559-.501.208zm4.952-4.57-.84.564h-.609l.556-.658.072-.315.462-.882.91-.316.38-.034-.737.916zm3.627-6.277-.823.494-.619-.385.3-1.067.207-.35.706.348zm16.462 1.744 1.606.356.679.02.63-.16.954-.47 1.007-.343.716.174.635.419.334.584-.163.615-1.134 1.32-.934 1.404 2.146.264 2.143-.034-.5.871-.083.76.655.36.556.486-.144.44-.32.436 1.172.653-.071.437-.306.46-2.92 2.997-.856 1.519-.596 1.671-.545 1.226-.4 1.27-.304 1.368-.542 1.414.178 1.255-.182 1.286-1.465 3.176h-1.045l-1.312-.382h-.824l-.426.704.757 1.45-2.343 1.722-2.583 1.156-.027-.523.244-.418.373-.334.268-.407.375-1.352-.185-1.364-.778-1.703-.06-.61.538-.248.363-.121.198-.239.007-.562-.246-.418-.736-.132h-.711l-.498.634-.684 1.223-.333 1.234.148.681.304.608.938 1.014-.275.6-.391.464-3.32-1.05-.718-.118-.595-.228-.637-1.393 1.351-.334.402-.167.15-.44.18-1.36-.632-1.134-.534-.405-.432-.466.274-.955-.18-1.204-.013-1.682.233-.286 1.255-.347.905-.907.8-1.026 1.174-1.804.958-1.948-.924-.083-.779-.366.853-.921-.264-1.165-1.275-1.43-.7-1.685-1.128-.744-.594-.272-.724.395-.597.475.551 1.097-.06.969.083.96.564.06.691-.24.555.17.322.504.083.65-.242.646-.512.32-.622-.02-.628-.35-.487-.497-1.17-.274-1.232.586-1.174 1.194-1.003.604.474-.885.223-.957-.487-.672-1.145-1.117-.267-.647-.06-.782.199-.775 1.177.889.605 1.107.865.488H340l-.832-1.63-.3-.41-1.172-.729-1.595-1.232-1.015-.592.359-1.282.594-.254.504.06 1.695.454.16-.64-.249-.34-.13-.396 1.115-.556 1.826-.457.375-.213.325-.46.444-.24h1.28l1.074-.438.89-1.192.211-.654.317-.546 2.217-.966.55-.147 1.482.119 1.353.545.668 1.149.587 1.229zm13.03-4.09.577.438 1.385-.178.17.122-.403.399-.61.39-1.107-.29-.699-.021-.094-.656.083-.239zm3.728-2.029-.347.479-1.056-.146.421-.414.327-.503.237-.107.199.546zM331.496 406l-.776.484-.333-.741.339-2.099 1.458.43-.02.642zm60.62-1.588 1.65.498 1.692-.142-.02 2.18.24.73.476.657-.245.953.764.327-2.268 1.088-2.05 1.444-.841.975-.765 1.044-.44 1.102-.287 1.191-.686-.47-1.974-1.928-1.251-.53-2.01-.28-.64.06-4.132 1.803-.548 1.316-1.127 1.988-.533.656-.592.188-.422.341-.462 1.695-1.28 1.042-.784.034-1.34-.285-.6.16.8-1.671-1.276-.201-1.275.033-.034-1.088-.773-.617.57-.8.014-.655.336-.359.119-.526-.047-.45-.788-.136-.48-.32.096-1.185-.453-.047-1.12.209-2.33.915h-.636l.978-.652 2.07-.896.93-.512 2.032-1.437 1.276-.681.669-1.206.206-.732.43-.644.38-1.03.658-.343 1.144-.886.658.083.729 1.087.983.834.71-.071 1.263-.427.608-.098 1.458.047 1.314-.528.534-.625.199-.78-.487-1.304.63.132.605-.06 1.426-.83 1.465-.492 1.522-.124 1.712.471zm-.072-2.713-.224.238-.213-.06-.76.548-.163-.527-.595-.348-.071-.275 1.717-.181.551.144zm6.934 2.335-1.294 1.017-1.118-.071-.564-.455-.187-.564 1.067-.884.92-1.247.835-.554.675-.308.525.02-1.184 1.74zm-66.22-.783-.242.575-.81-.41-.369-.368.749-1.806-.084-.687.047-.334 1.494-.946.256.182.096.261-.132.406.071.896-1.12 1.48zm120.22-4.452-.128.562-.636-.125-.304-.364.034-.658h.67zm-72.65-17.638-.546.448-1.02-.148-.59-.644.194-.725 1.069-.558 1.02 1.12zm59.371-19.32-1.133.027-.284-.121.686-.295.06-.498.412-.879-.007-.254-.902-.047.047-1 .674-.99 1.849-1.555.505-.292.07.68-.563 1.607-.107.579 1.451.123-.933 1.93zm34.443-42.39.473.226 2.228-.609-.425 1.832-.237 1.85.164 3.068.199 1.386.385 1.339.95.96 1.24.68 1.802 2.18.965 2.674.681 1.298.512 1.362.155.622.013.626-.153.853.169.69-.194 2.17-.805 2.507-.107 1.282-.702.256-.425.592-.363.274-.402.213-.585.047-.416.244-.167.679-.267.63-.51.58-.399.642-.329 1.56-.119 1.603-.493 1.12-1.185.29-1.359-.02-1.742.52-.372.302-1.374 1.956-.397 1.145-.013 1.232.382 1.517.52 1.483.393 2.76-.414 4.208-.397 1.345-.874.912-.663.421-.571.52-.74 1.373-1.223 2.736-.096.687.005.711-.329.93-.217.912.203 1.062.375.994 1.643 2.55.644.754.722.688-2.802.759-.507.35-1.664 1.455-.532 1.378.047 1.526-.28.545-.458.475-.476.314-1.86.7-1.191.694-1.186 1.087-.471.57-.912-.182-.534-.502.525-.63-.162-.744.26-1.913-.299-.769.951-.58.455-.928.99-.743.707-.658.124-.534-.633-.576-.672-.416-.927-.002-.896.123-.578.548-.193.747.047.347-.071.305-1.405 1.023.183 1.07.413.545.524.258-.156.368-.669.864-.466.084-.858-1.21-1.07-.658h-1.325l-1.362.238-1.035.804-.34.669-.22.69.071 1.678-.426 1.401-.841 1.231-.395.45-1.024.835-.708.107-.506-.379-.408-.576.52-2.107-.027-1.182 1.205-.603-.988-.841-1.209-.338-1.7.448-.48.505-.325.68-.914.86-1.008.806-1.138 1.372-.768 1.63-2.507-.534-1.369-.12-1.383.048-2.448-.201-2.69.332-3.06.64.183-.462 2.515-.978.095-.288-.24-.537-.628-.02-1.504.189-.768-.083-.315-.576-.508-.25-.342.237.107 1.117-.371.15-.496-.289.16-.868-.34-1.273-.033-.79.526-.679-.54-.284-.57.107-.725.324-.639.466-1.35 2.322-.524 1.328.989 1.067 2.695 1.488.463.367.013.633-.327.674-.734.297-2.959.496-2.56.965-.74.978-2.333 3.783-1.866 2.583-2.637.895-2.895-.793-.698-.902-.57-1.111-1.073-1.007-.971-1.097-.567-1.3.083-2.098-.42-1.262.38-.336 1.596-.767.521-.43.901-.998.324-.556.047-.841-.723-.44-1.874.021-1.869.262-1.333-.369-1.732-1.017-.535-.217-1.867-.06-1.33.188-1.308.372-1.384.119-.46.194-1.597 1.246-1.267.786-1.097.391-2.37.107-1.186.253-1.245.412-.347-.033-1.308.57-1.503.495-.805.498-1.472-.325-2.916.889-1.412.107-1.458-.49-1.35-.792-1.297.338-.889 1.17-.43 2.33-.509 1.047-.154 1.259-.672-.2-3.905-2.266-.27-.084-3.156.391-.814.189-1.017.459-1.076.204-.981-.329-.937-.537-.902.16-.924.375-.354-3.414.178-.451.569-.6.624-.512 1.53-.176 1.546.165 1.106-.234.932-.676.985-.959 1.11-.78 1.505-.615 1.456-.706 1.279-.992 1.212-1.083 1.115-.793 1.209-.667 1.845-1.6 2.447-1.796.939-1.332.583-.366 2.107-.744 2.791-.569 1.316.02 1.307 1.167.702-.16.711-.3 1.44-.168 1.478.194h1.444l1.443-.148 2.781-.383 1.461-.462 1.426-.595 5.089-.422 3.485-1 .553.07.537.231.033.742-.44.809.428.49.705.302 3.283.096.937.174 1.369-.553 1.29-.687 1.352-.901.942-1.017-.871-1.272-.19-1.39.729-1.506 1.061-1.274 1.26-.766 1.16-.885 2.35-2.51 1.698-2.03.612-2.495-.36-2.952 1.484-2.196 1.419-.375 2.821-1 1.481-.295.22.438-.046.573-2.214 1.842-1.27.757-.759.235-.693.336-.288.647 1.127 1.085.288.802-.071.77.047.691 1.277.754 1.463.249.613-.007.537-.199 1.672-1.842.373-.32 4.765-1.35 2.347-1.031 1.294-.267 1.217-.539 2.725-2.073 1.01-.955.914-1.056.729-1.227.576-1.33.791-.825 4.322-1.974 1.394-1.073.443-.519.534-1.506.371-1.565.525-1.227.71-1.149.949-1.171 1.067-1.087.63-1.117.915-2.667.404-1.476.313-.533.462-.447.402-.565.306-.635.138-.628.2-1.918-.122-1.49-.716-1.263-.59-.359-.646-.02-.965.107-.822-.516.168-.453.837-.084.572-.236.41-.429.771-1.376.463-1.473.033-.65-.603-1.188-.478-1.428-.013-.77.522-.889.747-.72.67-.169.724-.047.658-.277.612-.406.345-.444.536-1.213.207-.693-.338-1.853.349-.507.495-.314.662.238.675.047.79-.07.759.195.142.474.476 3.133.273.424.551.328.622-.047.54-.487.362-.65.715-.132 2.18.697.771-.498.504-.77.438-1.362-.213-1.23-.522-.454-.543.083-.476.338-.534.184-3.22.649.014-1.371.688-2.052.38-.647.542-.31 1.352.356.666.238zm-20.866-8.457-.273.06-.284-.096-.275-.901.236-.477.768-.335.747-.094-.635 1.658zm21.655-36.275-.828.085-.964-.498-.119-.625.697-.498.693.184.696.644.229.335zm-2.658-2.548-.462.757-.62-1.125-.125-1.215.358.007.658.182.158.592zm32.848 14.517 1.493.06.67-.06 1.144.178 4.543 1.815 1.369.232 1.417.02.994-.144.875-.498 2.741-2.2 2.88-2.002.32.083v.55l-.21.615-1.274 1.833-1.419 2.47-.302 1.25.462 1.22.887 1.007.702 1.376.811 1.915 1.138.242.619.034 1.138-.573 1.08-.729.924-.085.978.124-1.284.509-1.21.622-1.036 1.175-.385.223-1.199-.071-.682.047-1.402.492-1.23.557-1.173.683-1.28.366-1.366.083-2.105.559-1.37.033-2.56-.487-1.244.13-2.722 1.1-2.473 1.592-2.164 1.783-1.808 2.147-.726 1.12-.435 1.25-.06.827-.162.796-.418.556-.504.45-1.49-.264-2.453-1.147-4.751-1.668-5.017-2.552-2.826-1.28-5.307.382-5.02 2.445-.45-.208-1.92-1.677-.929-.663-1.11-.187-.826.02-.8.121-1.136.863-.416.622-.323.704-.096.498.137.49 1.072 1.105 1.324.824.6.156 1.273-.06.59.083 2.132 1.654 2.332 1.55.516.512-.863.54-.946.268-1.097-.072-1.088-.203-1.868-.658-.8.56-1.238 1.15-.686 1.25-.559.575-1.37.756-1.451.391-.758-.127-.579-.474-.327-.569-.165-.658.31-1.424.751-1.284.288-1.309-.615-1.844-.39-.383-1.54-1.082-.712-1.049-.176-1.308.096-.724.377-1.595.37-.806.711-.266.768-.158 1.188-.575 1.307-.747 1.248-.852 1.237-1.042.648-1.143-1.064-1.401-.217-.834.157-.788 1.127-.42 1.166.317 2.342 1.156.459.119 1.607.06 2.201.251 1.277-.06.611-.174.929-.957.456-1.215-.167-1.564-.007-1.555.587-1.264 1.836-2.034.525-1.2.192-2.917.664-1.282.533-1.33.253-2.791-.754-2.684-.756-1.316-.867-1.248.127-1.195.703-1.106.013-.334.168-.294 1.315-.211.612-.237.586-.531.706-.314.516.312.424.544 1.853 1.34 2.916 2.396 3.44 3.65 2.157 1.78 2.272 1.615 2.548 1.65 2.667 1.423 1.703.67 1.247 1.07z" id="path2-3"/></svg>