<!--Created with Inkscape (http://www.inkscape.org/)--><svg xmlns:dc="http://purl.org/dc/elements/1.1/" xmlns:cc="http://creativecommons.org/ns#" xmlns:rdf="http://www.w3.org/1999/02/22-rdf-syntax-ns#" xmlns="http://www.w3.org/2000/svg" xmlns:sodipodi="http://sodipodi.sourceforge.net/DTD/sodipodi-0.dtd" xmlns:inkscape="http://www.inkscape.org/namespaces/inkscape" width="52.03125" height="53.677139" inkscape:version="0.91 r13725" sodipodi:docname="dam.svg"><sodipodi:namedview pagecolor="#ffffff" bordercolor="#666666" borderopacity="1.0" inkscape:pageopacity="0.0" inkscape:pageshadow="2" inkscape:zoom="22.4" inkscape:cx="5.8378916" inkscape:cy="26.358163" inkscape:document-units="px" inkscape:current-layer="TURBINE" showgrid="false" fit-margin-top="0" fit-margin-left="0" fit-margin-right="0" fit-margin-bottom="0" inkscape:window-width="3200" inkscape:window-height="1764" inkscape:window-x="0" inkscape:window-y="36" inkscape:window-maximized="1"/><metadata><rdf:RDF><cc:Work><dc:format>image/svg+xml</dc:format><dc:type rdf:resource="http://purl.org/dc/dcmitype/StillImage"/><dc:title/></cc:Work></rdf:RDF></metadata><g inkscape:label="Layer 1" inkscape:groupmode="layer"><g style="display:inline;enable-background:new"><path sodipodi:nodetypes="ccccc" inkscape:connector-curvature="0" d="M261.394 213.662c14.42-4.471 29.783-4.188 43.217-1.759l-5.9 28.241-22.728 1.514z" style="fill:#ac9393;fill-opacity:1;stroke:#000;stroke-width:1;stroke-opacity:1" transform="translate(-257.344 -208.48)"/><path sodipodi:nodetypes="ccccc" inkscape:connector-curvature="0" d="M258.606 212.094c18.965-4.82 33.63-3.416 50.623-.103l-3.136.866c-11.796-1.578-29.7-4.113-44.699.963z" style="fill:#ac9393;fill-opacity:1;stroke:#000;stroke-width:1;stroke-opacity:1;display:inline;enable-background:new" transform="translate(-257.344 -208.48)"/><path sodipodi:nodetypes="ccccc" inkscape:connector-curvature="0" d="M258.213 214.085c-.075-.864-.222.144-.316-1.5l3.671 1.511c.49.732 1.189 2.422 1.525 3.273z" style="fill:#ac9393;fill-opacity:1;stroke:#000;stroke-width:1;stroke-opacity:1;display:inline;enable-background:new" transform="translate(-257.344 -208.48)"/></g><g style="display:inline;enable-background:new" inkscape:label="#TURBINE" transform="translate(185.83 -131.057)"><g style="fill:#d38d5f;fill-opacity:1;display:inline;enable-background:new"><g style="fill:#cdde87" transform="matrix(.75867 0 0 .52696 -778.694 504.778)"><rect style="fill:#ac9393;fill-opacity:1;stroke:#000;stroke-width:1.6016351;stroke-linecap:round;stroke-linejoin:round;stroke-miterlimit:4;stroke-opacity:1;stroke-dasharray:none;stroke-dashoffset:0" width="28.035553" height="30.1007" x="-611.53009" y="-1009.9232" transform="matrix(.2813 .95962 -.99811 .06145 0 0)" ry="0"/><path sodipodi:nodetypes="ccccc" d="m813.852-620.371-7.893-26.457.529 16.38 7.204 21.32z" inkscape:transform-center-y="14.849242" inkscape:transform-center-x="13.435029" style="fill:#ac9393;fill-opacity:1;stroke:#000;stroke-width:1.58156073;stroke-linecap:round;stroke-linejoin:round;stroke-miterlimit:4;stroke-opacity:1;stroke-dasharray:none;stroke-dashoffset:0" inkscape:connector-curvature="0"/><path style="fill:#00b3ff;fill-opacity:1;stroke:#000;stroke-width:1.58156085;stroke-linecap:round;stroke-linejoin:round;stroke-miterlimit:4;stroke-opacity:1;stroke-dasharray:none;stroke-dashoffset:0;display:inline;enable-background:new" d="M821.342-687.537c-2.512-1.95-2.951-4.652-8.663-.69 0 0-1.747 2.12-1.366 5.24.358 2.927.988 3.903 2.387 4.765 2.236 1.377 2.309.58 4.427 3.576 0 0 .473 22.74.707 31.437 2.86 3.65 4.648 3.748 7.956-.253-.247-12.448-.202-26.749-.607-38.298 0 0-2.17-3.46-4.84-5.777z" sodipodi:nodetypes="csssccccc" inkscape:connector-curvature="0" inkscape:transform-center-y="-4.8793566"/><path style="fill:#6c5353;fill-opacity:1;stroke:#000;stroke-width:1.58156073;stroke-linecap:round;stroke-linejoin:round;stroke-miterlimit:4;stroke-opacity:1;stroke-dasharray:none;stroke-dashoffset:0" inkscape:transform-center-x="-14.116117" inkscape:transform-center-y="-12.109202" d="m843.678-621.86-29.892 2.314.045 11.42 30.122-2.49z" sodipodi:nodetypes="ccccc" inkscape:connector-curvature="0"/></g></g><rect transform="matrix(.99751 -.07046 -.51392 .85784 0 0)" style="fill:#5ee736;fill-opacity:1;stroke:#000;stroke-width:1.10465705;stroke-linecap:round;stroke-linejoin:round;stroke-miterlimit:4;stroke-opacity:1;stroke-dasharray:none;stroke-dashoffset:0;display:inline;enable-background:new" width="12.55916" height="3.2826462" x="-49.442833" y="205.23012" rx="2.2189388" ry="2.474874"/></g></g></svg>