<?xml version="1.0" encoding="UTF-8" standalone="no"?>
<!-- Created with Inkscape (http://www.inkscape.org/) -->

<svg
   xmlns:dc="http://purl.org/dc/elements/1.1/"
   xmlns:cc="http://creativecommons.org/ns#"
   xmlns:rdf="http://www.w3.org/1999/02/22-rdf-syntax-ns#"
   xmlns:svg="http://www.w3.org/2000/svg"
   xmlns="http://www.w3.org/2000/svg"
   xmlns:sodipodi="http://sodipodi.sourceforge.net/DTD/sodipodi-0.dtd"
   xmlns:inkscape="http://www.inkscape.org/namespaces/inkscape"
   width="98.373276"
   height="87.38266"
   id="svg5022"
   version="1.1"
   inkscape:version="0.91 r13725"
   sodipodi:docname="reservoir2.svg">
  <defs
     id="defs5024" />
  <sodipodi:namedview
     id="base"
     pagecolor="#ffffff"
     bordercolor="#666666"
     borderopacity="1.0"
     inkscape:pageopacity="0.0"
     inkscape:pageshadow="2"
     inkscape:zoom="0.35"
     inkscape:cx="49.192156"
     inkscape:cy="43.686704"
     inkscape:document-units="px"
     inkscape:current-layer="layer1"
     showgrid="false"
     fit-margin-top="0"
     fit-margin-left="0"
     fit-margin-right="0"
     fit-margin-bottom="0"
     inkscape:window-width="470"
     inkscape:window-height="411"
     inkscape:window-x="-2"
     inkscape:window-y="0"
     inkscape:window-maximized="0" />
  <metadata
     id="metadata5027">
    <rdf:RDF>
      <cc:Work
         rdf:about="">
        <dc:format>image/svg+xml</dc:format>
        <dc:type
           rdf:resource="http://purl.org/dc/dcmitype/StillImage" />
        <dc:title />
      </cc:Work>
    </rdf:RDF>
  </metadata>
  <g
     inkscape:label="Layer 1"
     inkscape:groupmode="layer"
     id="layer1"
     transform="translate(-325.80784,-488.66622)">
    <g
       style="display:inline;enable-background:new"
       id="RESERVOIR3"
       transform="translate(-110.49611,583.82639)">
      <path
         sodipodi:nodetypes="ccsccccccsccccccc"
         inkscape:connector-curvature="0"
         id="path7439-9-0-0-1"
         d="m 509.91923,-94.650917 -15.09376,9.8125 c -10e-6,1e-5 -2.50018,2.50004 -2,7 0.48749,4.38576 -0.89667,18.99933 -0.96875,19.75 -9.05032,1.0152 -21.82739,2.14679 -26.46876,2.65625 -4.3457,-0.9043 -9.03504,-1.77035 -13.46875,-0.0312 -8.81297,2.88132 -25.84284,12.46033 -5.625,14.625 8.99997,1 37,18 44.00001,30.9999998 9.30949,-4.2917998 12.77002,4.65288 12,-7.9999998 -2.99999,-6 8.66757,-12.51475 18.66757,-15.51475 10.00001,-3 -1.80969,1.26831 11.19031,-8.73169 3.90183,-5.67795 1.41487,-4.26381 -0.94069,-10.77536 -21.01733,2.09662 -18.85263,2.540793 -33.97969,-0.4157 -2.3173,-1.8094 1.35339,-5.49276 1.5625,-7.78125 3.6764,-6.5537 0.0818,-14.41704 2.125,-21.21875 3.19219,-3.94429 6.10603,-8.14291 9.00001,-12.375 z"
         style="fill:#0099ff;fill-opacity:1;fill-rule:evenodd;stroke:#000000;stroke-width:1;stroke-linecap:round;stroke-linejoin:round;stroke-miterlimit:4;stroke-opacity:1;stroke-dasharray:none;display:inline;enable-background:new" />
      <path
         inkscape:connector-curvature="0"
         sodipodi:nodetypes="cccccc"
         id="path6945-0-7"
         d="m 469.01516,-45.630114 c 2.06565,15.8599 4.01072,0.344028 26.57873,37.8453984 1.4472,0.3991 2.95038,-15.8865884 3.00578,-18.6739884 20.94131,-19.154152 15.22236,-15.560516 -2.05248,-20.496012 -4.777,-11.78424 4.73387,-21.23465 -1.6536,-29.6146 -0.8736,31.8424 -19.34709,28.239152 -25.87843,30.939202 z"
         style="opacity:0.25;fill:#00ffff;fill-opacity:1;fill-rule:evenodd;stroke:none;display:inline;enable-background:new" />
    </g>
  </g>
</svg>
