<!--Created with Inkscape (http://www.inkscape.org/)--><svg xmlns:dc="http://purl.org/dc/elements/1.1/" xmlns:cc="http://creativecommons.org/ns#" xmlns:rdf="http://www.w3.org/1999/02/22-rdf-syntax-ns#" xmlns="http://www.w3.org/2000/svg" xmlns:sodipodi="http://sodipodi.sourceforge.net/DTD/sodipodi-0.dtd" xmlns:inkscape="http://www.inkscape.org/namespaces/inkscape" width="800" height="520" sodipodi:version="0.32" inkscape:version="0.91 r13725" sodipodi:docname="stepupwire.svg" inkscape:output_extension="org.inkscape.output.svgz.inkscape" version="1.0" style="display:inline;enable-background:new" inkscape:export-filename="/home/tef/Desktop/watercycle_preview_04.png" inkscape:export-xdpi="90" inkscape:export-ydpi="90"><sodipodi:namedview pagecolor="#ffffff" bordercolor="#666666" borderopacity="1.0" inkscape:pageopacity="0.0" inkscape:pageshadow="2" inkscape:zoom="2.0134866" inkscape:cx="616.40519" inkscape:cy="306.8832" inkscape:document-units="px" inkscape:current-layer="layer5" showgrid="true" inkscape:window-width="679" inkscape:window-height="701" inkscape:window-x="683" inkscape:window-y="0" showguides="true" inkscape:guide-bbox="true" borderlayer="true" inkscape:showpageshadow="false" inkscape:window-maximized="0" inkscape:snap-grids="true"/><metadata><rdf:RDF><cc:Work><dc:format>image/svg+xml</dc:format><dc:type rdf:resource="http://purl.org/dc/dcmitype/StillImage"/><dc:title/><dc:date>28/10/2008</dc:date><dc:creator><cc:Agent><dc:title>Cabaraux Stéphane</dc:title></cc:Agent></dc:creator><dc:rights><cc:Agent><dc:title>Cabaraux Stéphane</dc:title></cc:Agent></dc:rights><dc:publisher><cc:Agent><dc:title>Gnurps</dc:title></cc:Agent></dc:publisher><dc:identifier/><dc:relation/><dc:subject><rdf:Bag><rdf:li>gcompris</rdf:li><rdf:li>watercycle</rdf:li></rdf:Bag></dc:subject><cc:license rdf:resource="http://artlibre.org/licence.php/lalgb.html"/></cc:Work><cc:License rdf:about="http://artlibre.org/licence.php/lalgb.html"><cc:permits rdf:resource="http://creativecommons.org/ns#Reproduction"/><cc:permits rdf:resource="http://creativecommons.org/ns#Distribution"/><cc:permits rdf:resource="http://creativecommons.org/ns#DerivativeWorks"/><cc:requires rdf:resource="http://creativecommons.org/ns#ShareAlike"/><cc:requires rdf:resource="http://creativecommons.org/ns#Notice"/><cc:requires rdf:resource="http://creativecommons.org/ns#Attribution"/></cc:License></rdf:RDF></metadata><g inkscape:groupmode="layer" style="display:inline" inkscape:label="BACKGROUND"><path style="opacity:.15;fill:#000;fill-opacity:1;stroke:none;display:inline;enable-background:new" d="M398.156 242.763a2.66 2.66 0 0 0-.473.08c-1.178.315-1.052 1.369.288 2.353.069.048.124.088.185.132 3.312 2.29 6.89 4.044 9.785 7.167-5.479 11.768 14.619-7.242 2.52-1.993-2.595-2.354-12.201-7.727-12.3-7.738z" inkscape:connector-curvature="0" sodipodi:nodetypes="cccccccc"/><rect ry="0.84434807" rx="0.52573061" y="216.87628" x="396.43359" height="28.25057" width="2.8027132" style="fill:#c87137;fill-opacity:1;stroke:#000;stroke-width:.99999994;stroke-linecap:butt;stroke-linejoin:miter;stroke-miterlimit:4;stroke-opacity:1;stroke-dasharray:none;stroke-dashoffset:0"/><rect transform="matrix(.88538 .46486 -.53598 .84423 0 0)" ry="0.50833505" rx="0.67637074" y="10.662876" x="444.77075" height="1.214864" width="21.935215" style="fill:#c87137;fill-opacity:1;stroke:#000;stroke-width:1.0016917;stroke-linecap:butt;stroke-linejoin:miter;stroke-miterlimit:4;stroke-opacity:1;stroke-dasharray:none;stroke-dashoffset:0"/><path transform="matrix(.16584 .1334 -.08335 .20114 261.773 118.66)" d="M846.784-25.136a6.408 7.886 0 1 1-12.815 0 6.408 7.886 0 1 1 12.815 0z" sodipodi:ry="7.8862309" sodipodi:rx="6.4075627" sodipodi:cy="-25.135727" sodipodi:cx="840.37653" style="fill:#ac9393;fill-opacity:1;stroke:#000;stroke-width:4.74163485;stroke-linecap:butt;stroke-linejoin:miter;stroke-miterlimit:4;stroke-opacity:1;stroke-dasharray:none;stroke-dashoffset:0;display:inline;enable-background:new" sodipodi:type="arc"/><path transform="matrix(.16584 .1334 -.08335 .20114 248.902 112.04)" d="M846.784-25.136a6.408 7.886 0 1 1-12.815 0 6.408 7.886 0 1 1 12.815 0z" sodipodi:ry="7.8862309" sodipodi:rx="6.4075627" sodipodi:cy="-25.135727" sodipodi:cx="840.37653" style="fill:#ac9393;fill-opacity:1;stroke:#000;stroke-width:4.74163485;stroke-linecap:butt;stroke-linejoin:miter;stroke-miterlimit:4;stroke-opacity:1;stroke-dasharray:none;stroke-dashoffset:0;display:inline;enable-background:new" sodipodi:type="arc"/><g transform="translate(170.347 -20.33)" style="display:inline;enable-background:new"><path style="opacity:.15;fill:#000;fill-opacity:1;stroke:none;display:inline;enable-background:new" d="M398.455 243.533a2.66 2.66 0 0 0-.474.08c-1.178.315-1.052 1.369.289 2.353l.185.132c3.311 2.289 6.89 4.044 9.785 7.167-5.48 11.768 14.618-7.242 2.519-1.993-2.595-2.354-12.2-7.727-12.3-7.738z" inkscape:connector-curvature="0" sodipodi:nodetypes="cccccccc"/><rect ry="0.84434807" rx="0.52573061" y="216.87628" x="396.43359" height="28.25057" width="2.8027132" style="fill:#c87137;fill-opacity:1;stroke:#000;stroke-width:.99999994;stroke-linecap:butt;stroke-linejoin:miter;stroke-miterlimit:4;stroke-opacity:1;stroke-dasharray:none;stroke-dashoffset:0"/><rect transform="matrix(.88839 .4591 -.54205 .84035 0 0)" ry="0.61773789" rx="0.82844144" y="13.540264" x="445.33002" height="1.4763246" width="26.866983" style="fill:#c87137;fill-opacity:1;stroke:#000;stroke-width:1.22208011;stroke-linecap:butt;stroke-linejoin:miter;stroke-miterlimit:4;stroke-opacity:1;stroke-dasharray:none;stroke-dashoffset:0"/><path transform="matrix(.16584 .1334 -.08335 .20114 261.773 118.66)" d="M846.784-25.136a6.408 7.886 0 0 1-6.407 7.887 6.408 7.886 0 0 1-6.408-7.887 6.408 7.886 0 0 1 6.408-7.886 6.408 7.886 0 0 1 6.407 7.886z" sodipodi:ry="7.8862309" sodipodi:rx="6.4075627" sodipodi:cy="-25.135727" sodipodi:cx="840.37653" style="fill:#ac9393;fill-opacity:1;stroke:#000;stroke-width:4.74163485;stroke-linecap:butt;stroke-linejoin:miter;stroke-miterlimit:4;stroke-opacity:1;stroke-dasharray:none;stroke-dashoffset:0;display:inline;enable-background:new" sodipodi:type="arc"/><path transform="matrix(.16584 .1334 -.08335 .20114 248.902 112.04)" d="M846.784-25.136a6.408 7.886 0 0 1-6.407 7.887 6.408 7.886 0 0 1-6.408-7.887 6.408 7.886 0 0 1 6.408-7.886 6.408 7.886 0 0 1 6.407 7.886z" sodipodi:ry="7.8862309" sodipodi:rx="6.4075627" sodipodi:cy="-25.135727" sodipodi:cx="840.37653" style="fill:#ac9393;fill-opacity:1;stroke:#000;stroke-width:4.74163485;stroke-linecap:butt;stroke-linejoin:miter;stroke-miterlimit:4;stroke-opacity:1;stroke-dasharray:none;stroke-dashoffset:0;display:inline;enable-background:new" sodipodi:type="arc"/></g><path transform="matrix(.16584 .1334 -.08335 .20114 437.38 100.742)" d="M846.784-25.136a6.408 7.886 0 1 1-12.815 0 6.408 7.886 0 1 1 12.815 0z" sodipodi:ry="7.8862309" sodipodi:rx="6.4075627" sodipodi:cy="-25.135727" sodipodi:cx="840.37653" style="fill:#ac9393;fill-opacity:1;stroke:#000;stroke-width:4.74163485;stroke-linecap:butt;stroke-linejoin:miter;stroke-miterlimit:4;stroke-opacity:1;stroke-dasharray:none;stroke-dashoffset:0;display:inline;enable-background:new" sodipodi:type="arc"/></g><g inkscape:groupmode="layer" inkscape:label="MISC" style="display:inline"><path sodipodi:nodetypes="cccc" inkscape:connector-curvature="0" d="M384.127 237.296c9.716-3.443 11.892-4.273 18.65-11.29 58.088 6.971 136.726-10.16 171.092-20.088 2.992 11.458 11.166 16.5 17.24 24.143" style="fill:none;stroke:#dae045;stroke-width:1px;stroke-linecap:butt;stroke-linejoin:miter;stroke-opacity:1;display:inline;enable-background:new" transform="translate(.351 -.702)"/><path sodipodi:nodetypes="cccc" inkscape:connector-curvature="0" d="M379.414 228.593c9.313-3.19 5.086-.492 10.832-9.031 58.087 6.97 139.313-12.133 170.475-20.459 4.163 14.817 13.255 21.993 19.882 32.99" style="fill:none;stroke:#dae045;stroke-width:1px;stroke-linecap:butt;stroke-linejoin:miter;stroke-opacity:1;display:inline;enable-background:new" transform="translate(.351 -.702)"/></g></svg>