<?xml version="1.0" encoding="UTF-8" standalone="no"?>
<!-- Created with Inkscape (http://www.inkscape.org/) -->

<svg
   xmlns:dc="http://purl.org/dc/elements/1.1/"
   xmlns:cc="http://creativecommons.org/ns#"
   xmlns:rdf="http://www.w3.org/1999/02/22-rdf-syntax-ns#"
   xmlns:svg="http://www.w3.org/2000/svg"
   xmlns="http://www.w3.org/2000/svg"
   xmlns:sodipodi="http://sodipodi.sourceforge.net/DTD/sodipodi-0.dtd"
   xmlns:inkscape="http://www.inkscape.org/namespaces/inkscape"
   width="100"
   height="100"
   id="svg1902"
   sodipodi:version="0.32"
   inkscape:version="0.91 r13725"
   version="1.0"
   sodipodi:docname="superbrain.svg">
  <defs
     id="defs1904" />
  <sodipodi:namedview
     id="base"
     pagecolor="#ffffff"
     bordercolor="#666666"
     borderopacity="1.0"
     inkscape:pageopacity="0.0"
     inkscape:pageshadow="2"
     inkscape:zoom="3.0517854"
     inkscape:cx="11.009146"
     inkscape:cy="44.202518"
     inkscape:document-units="px"
     inkscape:current-layer="layer1"
     height="100px"
     width="100px"
     inkscape:window-width="1366"
     inkscape:window-height="748"
     inkscape:window-x="-2"
     inkscape:window-y="-3"
     showguides="true"
     inkscape:guide-bbox="true"
     showgrid="false"
     inkscape:window-maximized="1" />
  <metadata
     id="metadata1907">
    <rdf:RDF>
      <cc:Work
         rdf:about="">
        <dc:format>image/svg+xml</dc:format>
        <dc:type
           rdf:resource="http://purl.org/dc/dcmitype/StillImage" />
        <dc:title></dc:title>
        <dc:date>2015</dc:date>
        <dc:creator>
          <cc:Agent>
            <dc:title>Bruno Coudoin</dc:title>
          </cc:Agent>
        </dc:creator>
        <cc:license
           rdf:resource="http://creativecommons.org/licenses/by-sa/4.0/" />
      </cc:Work>
      <cc:License
         rdf:about="http://creativecommons.org/licenses/by-sa/4.0/">
        <cc:permits
           rdf:resource="http://creativecommons.org/ns#Reproduction" />
        <cc:permits
           rdf:resource="http://creativecommons.org/ns#Distribution" />
        <cc:requires
           rdf:resource="http://creativecommons.org/ns#Notice" />
        <cc:requires
           rdf:resource="http://creativecommons.org/ns#Attribution" />
        <cc:permits
           rdf:resource="http://creativecommons.org/ns#DerivativeWorks" />
        <cc:requires
           rdf:resource="http://creativecommons.org/ns#ShareAlike" />
      </cc:License>
    </rdf:RDF>
  </metadata>
  <g
     inkscape:label="Calque 1"
     inkscape:groupmode="layer"
     id="layer1">
    <path
       style="fill:#4b851f;fill-opacity:1;fill-rule:evenodd;stroke:none"
       d="m 46.974828,95.180156 -1.683946,-10.864326 4.81769,-0.05945 -0.493252,-4.450264 -1.532754,-4.826417 -4.189518,-2.201848 -5.1534,-0.904631 -4.583668,2.005682 -3.614346,4.061233 -0.413055,3.789189 0.423934,2.916342 2.636997,0.170407 2.180694,-0.229853 -0.167429,10.338233 11.772053,0.255698 z"
       id="path20777"
       sodipodi:nodetypes="ccccccccccccccc"
       inkscape:connector-curvature="0" />
    <path
       style="fill:#83e137;fill-opacity:1;fill-rule:evenodd;stroke:none"
       d="m 36.642286,92.985522 8.308168,-0.122675 -0.382944,-3.30235 -0.589879,-7.328129 3.515703,-0.03814 -0.35995,-2.855043 -1.118525,-3.09636 -3.057295,-1.412584 -3.760685,-0.580361 -3.344925,1.286735 -2.637563,2.605461 -0.301427,2.430933 0.309365,1.870963 1.924346,0.109324 1.591357,-0.147461 -0.01568,5.916074 -0.08006,4.66361 z"
       id="path21664"
       sodipodi:nodetypes="ccccccccccccccccc"
       inkscape:connector-curvature="0" />
    <path
       style="fill:#12459a;fill-opacity:1;fill-rule:evenodd;stroke:none"
       d="m 55.131202,94.970745 -0.06728,-10.724749 -4.088011,0.08013 0.493252,-4.450264 1.532754,-4.826416 4.189517,-2.201849 5.153401,-0.904631 4.583668,2.005682 2.884666,3.6425 0.413055,3.928767 0.305745,3.195497 -2.636997,0.170407 -2.180693,-0.229853 0.167428,10.338233 -10.750502,-0.02346 z"
       id="path21666"
       sodipodi:nodetypes="ccccccccccccccc"
       inkscape:connector-curvature="0" />
    <path
       style="fill:#327cf4;fill-opacity:1;fill-rule:evenodd;stroke:none"
       d="m 64.442194,93.055266 -7.578489,0.15648 -0.05486,-4.279394 0.298008,-6.63024 -3.515703,-0.03814 0.35995,-2.855043 1.118525,-3.09636 3.057294,-1.412584 3.760686,-0.580361 3.344925,1.286735 2.637563,2.605461 0.301426,2.430933 -0.309364,1.870963 -1.924346,0.109324 -1.591357,-0.147461 0.01568,5.916074 0.08006,4.66361 z"
       id="path21668"
       sodipodi:nodetypes="ccccccccccccccccc"
       inkscape:connector-curvature="0" />
    <path
       style="fill:#9f6710;fill-opacity:1;fill-rule:evenodd;stroke:none"
       d="m 76.089378,95.402011 -0.06728,-10.724749 -4.088011,0.08013 0.493252,-4.450265 1.532753,-4.826416 4.189518,-2.201848 5.153401,-0.904631 4.583668,2.005682 2.884666,3.642499 0.413054,3.928768 0.305746,3.195497 -2.636997,0.170407 -2.180694,-0.229853 0.167429,10.338232 -10.750502,-0.02346 z"
       id="path21670"
       sodipodi:nodetypes="ccccccccccccccc"
       inkscape:connector-curvature="0" />
    <path
       style="fill:#f4a932;fill-opacity:1;fill-rule:evenodd;stroke:none"
       d="m 85.40037,93.486532 -7.578489,0.15648 -0.05486,-4.279394 0.298007,-6.63024 -3.515702,-0.03814 0.35995,-2.855042 1.118524,-3.09636 3.057295,-1.412584 3.760686,-0.580361 3.344924,1.286735 2.637564,2.605461 0.301425,2.430933 -0.309363,1.870963 -1.924346,0.109324 -1.591357,-0.147461 0.01568,5.916074 0.08006,4.66361 z"
       id="path21672"
       sodipodi:nodetypes="ccccccccccccccccc"
       inkscape:connector-curvature="0" />
    <path
       style="fill:#a11a17;fill-opacity:1;fill-rule:evenodd;stroke:none"
       d="m 13.725431,95.213911 -0.06728,-10.724749 -4.0880111,0.08013 0.4932521,-4.450264 1.532754,-4.826417 4.189518,-2.201848 5.1534,-0.904631 4.583666,2.005682 2.884672,3.6425 0.413049,3.928767 0.305751,3.195497 -2.637004,0.170407 -2.180692,-0.229853 0.167431,10.338233 -10.750503,-0.02346 z"
       id="path21674"
       sodipodi:nodetypes="ccccccccccccccc"
       inkscape:connector-curvature="0" />
    <path
       style="fill:#f43732;fill-opacity:1;fill-rule:evenodd;stroke:none"
       d="m 23.036426,93.298432 -7.578491,0.15648 -0.05487,-4.279394 0.298008,-6.63024 -3.515703,-0.03814 0.35995,-2.855043 1.118525,-3.09636 3.057295,-1.412584 3.760687,-0.580361 3.34492,1.286735 2.637565,2.605461 0.301423,2.430933 -0.309359,1.870963 -1.924349,0.109324 -1.591351,-0.147461 0.01568,5.916074 0.08007,4.66361 z"
       id="path21676"
       sodipodi:nodetypes="ccccccccccccccccc"
       inkscape:connector-curvature="0" />
    <path
       style="fill:#4b851f;fill-opacity:1;fill-rule:evenodd;stroke:none"
       d="m 46.974824,41.043987 -1.683946,-10.864326 4.81769,-0.05945 -0.493252,-4.450264 -1.532754,-4.826417 -4.189518,-2.201848 -5.1534,-0.904631 -4.583668,2.005682 -3.614346,4.061233 -0.413055,3.789189 0.423934,2.916342 2.636997,0.170407 2.180694,-0.229853 -0.167429,10.338233 11.772053,0.255698 z"
       id="path24541"
       sodipodi:nodetypes="ccccccccccccccc"
       inkscape:connector-curvature="0" />
    <path
       style="fill:#83e137;fill-opacity:1;fill-rule:evenodd;stroke:none"
       d="m 36.642282,38.849353 8.308168,-0.122675 -0.382944,-3.30235 -0.589879,-7.328129 3.515703,-0.03814 -0.35995,-2.855043 -1.118525,-3.09636 -3.057295,-1.412584 -3.760685,-0.580361 -3.344925,1.286735 -2.637563,2.605461 -0.301427,2.430933 0.309365,1.870963 1.924346,0.109324 1.591357,-0.147461 -0.01568,5.916074 -0.08006,4.66361 z"
       id="path24543"
       sodipodi:nodetypes="ccccccccccccccccc"
       inkscape:connector-curvature="0" />
    <path
       style="fill:#9f6710;fill-opacity:1;fill-rule:evenodd;stroke:none"
       d="m 76.089374,41.265842 -0.06728,-10.724749 -4.088011,0.08013 0.493252,-4.450265 1.532753,-4.826417 4.189518,-2.201848 5.153401,-0.904631 4.583668,2.005682 2.884666,3.6425 0.413054,3.928768 0.305746,3.195497 -2.636997,0.170407 -2.180694,-0.229853 0.167429,10.338232 -10.750502,-0.02346 z"
       id="path24549"
       sodipodi:nodetypes="ccccccccccccccc"
       inkscape:connector-curvature="0" />
    <path
       style="fill:#f4a932;fill-opacity:1;fill-rule:evenodd;stroke:none"
       d="m 85.400366,39.350363 -7.578489,0.15648 -0.05486,-4.279394 0.298007,-6.63024 -3.515702,-0.03814 0.35995,-2.855042 1.118524,-3.096361 3.057295,-1.412584 3.760686,-0.580361 3.344924,1.286735 2.637564,2.605462 0.301425,2.430933 -0.309363,1.870963 -1.924346,0.109324 -1.591357,-0.147461 0.01568,5.916074 0.08006,4.66361 z"
       id="path24551"
       sodipodi:nodetypes="ccccccccccccccccc"
       inkscape:connector-curvature="0" />
    <path
       style="fill:#a11a17;fill-opacity:1;fill-rule:evenodd;stroke:none"
       d="m 13.725427,41.077742 -0.06728,-10.724749 -4.0880108,0.08013 0.4932518,-4.450264 1.532754,-4.826418 4.189518,-2.201848 5.1534,-0.904631 4.583666,2.005682 2.884672,3.6425 0.413049,3.928768 0.305751,3.195497 -2.637004,0.170407 -2.180692,-0.229853 0.167431,10.338233 -10.750503,-0.02346 z"
       id="path24553"
       sodipodi:nodetypes="ccccccccccccccc"
       inkscape:connector-curvature="0" />
    <path
       style="fill:#f43732;fill-opacity:1;fill-rule:evenodd;stroke:none"
       d="m 23.036422,39.162263 -7.578491,0.15648 -0.05486,-4.279394 0.298008,-6.63024 -3.515703,-0.03814 0.35995,-2.855043 1.118525,-3.096361 3.057295,-1.412584 3.760687,-0.580361 3.34492,1.286735 2.637565,2.605462 0.301423,2.430933 -0.309359,1.870963 -1.924349,0.109324 -1.591351,-0.147461 0.01568,5.916074 0.08007,4.66361 z"
       id="path24555"
       sodipodi:nodetypes="ccccccccccccccccc"
       inkscape:connector-curvature="0" />
    <path
       style="fill:#4b851f;fill-opacity:1;fill-rule:evenodd;stroke:none"
       d="m 46.810989,67.913493 -1.683946,-10.864326 4.81769,-0.05944 -0.493252,-4.450264 -1.532754,-4.826417 -4.189518,-2.201848 -5.1534,-0.904631 -4.583668,2.005682 -3.614346,4.061233 -0.413055,3.789189 0.423934,2.916342 2.636997,0.170407 2.180694,-0.229853 -0.167429,10.338233 11.772053,0.255698 z"
       id="path24583"
       sodipodi:nodetypes="ccccccccccccccc"
       inkscape:connector-curvature="0" />
    <path
       style="fill:#83e137;fill-opacity:1;fill-rule:evenodd;stroke:none"
       d="m 36.478447,65.718859 8.308168,-0.122675 -0.382944,-3.30235 -0.589879,-7.328129 3.515703,-0.03814 -0.35995,-2.855043 -1.118525,-3.09636 -3.057295,-1.412584 -3.760685,-0.580361 -3.344925,1.286735 -2.637563,2.605461 -0.301427,2.430933 0.309365,1.870963 1.924346,0.109324 1.591357,-0.147461 -0.01568,5.916074 -0.08006,4.66361 z"
       id="path24585"
       sodipodi:nodetypes="ccccccccccccccccc"
       inkscape:connector-curvature="0" />
    <path
       style="fill:#9f6710;fill-opacity:1;fill-rule:evenodd;stroke:none"
       d="m 75.925539,68.135348 -0.06728,-10.724749 -4.088011,0.08013 0.493252,-4.450265 1.532753,-4.826416 4.189518,-2.201848 5.153401,-0.904631 4.583668,2.005682 2.884666,3.642499 0.413054,3.928768 0.305746,3.195497 -2.636997,0.170407 -2.180694,-0.229853 0.167429,10.338232 -10.750502,-0.02346 z"
       id="path24591"
       sodipodi:nodetypes="ccccccccccccccc"
       inkscape:connector-curvature="0" />
    <path
       style="fill:#f4a932;fill-opacity:1;fill-rule:evenodd;stroke:none"
       d="m 85.236531,66.219869 -7.578489,0.15648 -0.05486,-4.279394 0.298007,-6.63024 -3.515702,-0.03814 0.35995,-2.855042 1.118524,-3.09636 3.057295,-1.412584 3.760686,-0.580361 3.344924,1.286735 2.637564,2.605461 0.301425,2.430933 -0.309363,1.870963 -1.924346,0.109324 -1.591357,-0.147461 0.01568,5.916074 0.08006,4.66361 z"
       id="path24593"
       sodipodi:nodetypes="ccccccccccccccccc"
       inkscape:connector-curvature="0" />
    <path
       style="fill:#a11a17;fill-opacity:1;fill-rule:evenodd;stroke:none"
       d="m 13.561592,67.947248 -0.06728,-10.724749 -4.088011,0.08013 0.493252,-4.450264 1.532754,-4.826417 4.189518,-2.201848 5.1534,-0.904631 4.583666,2.005682 2.884672,3.6425 0.413049,3.928767 0.305751,3.195497 -2.637004,0.170407 -2.180692,-0.229853 0.167431,10.338233 -10.750503,-0.02346 z"
       id="path24595"
       sodipodi:nodetypes="ccccccccccccccc"
       inkscape:connector-curvature="0" />
    <path
       style="fill:#f43732;fill-opacity:1;fill-rule:evenodd;stroke:none"
       d="m 22.872587,66.031769 -7.578491,0.15648 -0.05486,-4.279394 0.298008,-6.63024 -3.515703,-0.03814 0.35995,-2.855043 1.118525,-3.09636 3.057295,-1.412584 3.760687,-0.580361 3.34492,1.286735 2.637565,2.605461 0.301423,2.430933 -0.309359,1.870963 -1.924349,0.109324 -1.591351,-0.147461 0.01568,5.916074 0.08007,4.66361 z"
       id="path24597"
       sodipodi:nodetypes="ccccccccccccccccc"
       inkscape:connector-curvature="0" />
    <path
       style="fill:#f43732;fill-opacity:1;fill-rule:evenodd;stroke:#000000;stroke-width:0.77515936px;stroke-linecap:butt;stroke-linejoin:miter;stroke-opacity:1"
       d="m 51.606842,22.186736 6.927272,-4.285461 7.557022,0.793604 3.306198,4.6029 -1.259504,6.824992 -4.880577,3.333135 -1.259504,3.015694 1.102066,3.015694 -3.306198,3.333135 -5.038015,-0.793603 0,-3.333135 0.629752,-1.269766 -0.78719,-2.698253 1.416942,-7.301154 -3.14876,1.428487 -1.259504,-6.666269 z"
       id="path30140"
       inkscape:connector-curvature="0" />
    <path
       style="font-size:36px;font-style:normal;font-variant:normal;font-weight:normal;font-stretch:normal;text-align:start;line-height:100%;writing-mode:lr-tb;text-anchor:start;fill:#a11a17;fill-opacity:1;stroke:none;font-family:Indigo Joker"
       d="m 70.466029,24.406854 c -2e-5,1.288895 -0.268682,2.540418 -0.805989,3.754571 -0.03708,0.205484 -0.11119,0.485676 -0.222342,0.840576 -0.481759,1.550403 -1.454505,2.829945 -2.918238,3.838629 -0.463228,0.336236 -1.10246,0.663125 -1.917699,0.980671 -0.555868,0.224159 -0.907909,0.476331 -1.056124,0.756519 -1.3e-5,0.205478 -0.01854,0.476329 -0.05559,0.812556 -1.3e-5,0.11208 -0.04633,0.298875 -0.138963,0.560384 -0.09266,0.261515 -0.138976,0.42963 -0.138964,0.504345 -1.2e-5,0.03736 0.120422,0.233495 0.361306,0.588403 0.259385,0.354911 0.426142,0.616423 0.500269,0.784538 0.01852,0.05604 0.02778,0.252173 0.02779,0.588403 -1.4e-5,0.392268 -0.213091,1.027369 -0.639233,1.905305 -0.01854,0.149433 -0.06486,0.345567 -0.138964,0.588403 -0.296468,0.635098 -0.694831,1.176802 -1.195088,1.625113 -0.203825,0.20547 -0.694829,0.448302 -1.473015,0.728499 -1.167305,0.410942 -2.204899,0.616416 -3.112787,0.616422 -0.94496,-6e-6 -1.788006,-0.233499 -2.52914,-0.70048 -0.944957,-0.579067 -1.417433,-1.382283 -1.41743,-2.40965 -3e-6,-0.42963 0.101904,-0.896616 0.30572,-1.40096 0.166753,-0.392269 0.333509,-0.793877 0.50027,-1.204825 -0.148232,-0.07472 -0.352045,-0.224153 -0.611441,-0.448307 -0.129702,-0.168114 -0.194552,-0.681799 -0.194549,-1.541056 -3e-6,-1.513032 0.407624,-3.857302 1.222881,-7.032816 -0.09265,-0.07471 -0.157496,-0.112068 -0.194549,-0.112077 -0.03706,9e-6 -0.342781,0.177464 -0.917161,0.532365 -0.685556,0.410956 -1.176561,0.691148 -1.473015,0.840575 -0.185287,-0.149427 -0.296458,-0.289523 -0.333513,-0.420288 -0.296457,-1.400949 -0.778198,-3.483707 -1.445223,-6.248279 -0.03706,-0.14942 -0.129699,-0.420272 -0.277927,-0.812555 -0.166756,-0.392252 -0.250134,-0.616405 -0.250135,-0.67246 1e-6,-0.280176 0.50027,-0.896597 1.500808,-1.849267 0.889367,-0.803199 1.426692,-1.260844 1.611979,-1.372941 0.629966,-0.35489 1.269198,-0.70046 1.9177,-1.03671 0.852305,-0.466966 1.463744,-0.737818 1.834321,-0.812557 0.407619,-0.168093 1.037588,-0.373567 1.889906,-0.616422 1.259928,-0.186773 2.223409,-0.280169 2.890445,-0.280192 1.167283,2.3e-5 2.130764,0.03738 2.890445,0.112077 0.296442,0.112099 0.741125,0.261534 1.334052,0.448307 1.389621,0.37361 2.473536,1.148807 3.251751,2.325593 0.426136,0.672479 0.778177,1.503715 1.056124,2.493709 0.24085,0.859271 0.361285,1.774562 0.361305,2.745879 m -2.529139,1.120767 c -1.7e-5,-0.784523 -0.0093,-1.22349 -0.02779,-1.316902 -0.722627,-3.100771 -3.251764,-4.651165 -7.587418,-4.651184 -1.000547,1.9e-5 -2.149313,0.242851 -3.4463,0.7285 -0.129706,1.7e-5 -0.296462,0.0187 -0.50027,0.05604 -1.426698,0.653798 -2.455028,1.363619 -3.084994,2.129459 -0.240873,0.280208 -0.361308,0.541719 -0.361306,0.784537 -2e-6,0.504359 0.176019,1.699843 0.528063,3.586455 0.01853,0.130768 0.129696,0.280204 0.333512,0.448307 2.204886,-1.251511 3.696428,-1.877272 4.474632,-1.877286 0.833774,1.4e-5 1.510063,0.214827 2.02887,0.644442 0.537316,0.429639 0.805979,1.055401 0.805989,1.877285 -1e-5,0.09341 -0.09265,0.289542 -0.277927,0.588403 -0.166766,0.298881 -0.287202,0.457657 -0.361306,0.476327 -0.148238,0.07473 -0.361314,0.158784 -0.639233,0.252172 -0.09265,10e-6 -0.453956,10e-6 -1.083917,0 -0.07412,10e-6 -0.407634,-0.0093 -1.000538,-0.02802 -0.574391,-0.03735 -0.898638,-0.05603 -0.972746,-0.05604 -0.222348,9e-6 -0.389104,0.429636 -0.50027,1.288883 -0.09265,0.579071 -0.203818,1.363607 -0.333512,2.353612 -0.09265,0.149441 -0.13897,0.242838 -0.138964,0.280191 l 0,2.269555 c -6e-6,0.130759 0.03705,0.280195 0.111171,0.448307 0.111165,0.242835 0.240865,0.364252 0.389098,0.364249 0.05558,3e-6 0.66702,-0.130753 1.834321,-0.392268 0.03705,2e-6 0.611432,-0.07471 1.72315,-0.224154 0.74113,-0.09339 1.22287,-0.23349 1.445223,-0.420288 0.0741,-0.5417 0.17601,-1.326237 0.30572,-2.353612 0.0741,-0.07471 0.490993,-0.158769 1.250673,-0.252172 0.926412,-0.13075 1.8621,-0.644435 2.807067,-1.541056 0.944937,-0.896605 1.584169,-1.839917 1.917699,-2.829938 0.240854,-0.709809 0.361289,-1.587742 0.361306,-2.633804 m -5.947647,12.972885 c -1.1e-5,-0.373589 -0.176032,-0.700479 -0.528062,-0.980671 -0.333524,-0.29887 -0.704093,-0.448306 -1.11171,-0.448307 -0.759677,10e-7 -1.676836,0.261513 -2.751481,0.784537 -1.315528,0.653781 -1.97329,1.419638 -1.973285,2.297573 -5e-6,0.317549 0.06484,0.513683 0.19455,0.588403 0.370564,0.242831 0.77819,0.410946 1.22288,0.504346 0.352035,0.05604 0.667019,0.08405 0.944953,0.08406 0.555848,-3e-6 1.222873,-0.08406 2.001078,-0.252172 0.500259,-0.112079 0.963472,-0.485669 1.389637,-1.120768 0.407615,-0.560384 0.611429,-1.04605 0.61144,-1.456998"
       id="text29945"
       inkscape:connector-curvature="0" />
    <path
       style="fill:#83e137;fill-opacity:1;fill-rule:evenodd;stroke:#000000;stroke-width:0.77515936px;stroke-linecap:butt;stroke-linejoin:miter;stroke-opacity:1"
       d="m 52.753711,50.039283 6.927272,-4.285461 7.557022,0.793604 3.306198,4.6029 -1.259504,6.824993 -4.880577,3.333135 -1.259504,3.015694 1.102066,3.015694 -3.306198,3.333135 -5.038015,-0.793603 0,-3.333135 0.629752,-1.269766 -0.78719,-2.698253 1.416942,-7.301154 -3.14876,1.428487 -1.259504,-6.66627 z"
       id="path24894"
       inkscape:connector-curvature="0" />
    <path
       style="font-size:36px;font-style:normal;font-variant:normal;font-weight:normal;font-stretch:normal;text-align:start;line-height:100%;writing-mode:lr-tb;text-anchor:start;fill:#4b851f;fill-opacity:1;stroke:none;font-family:Indigo Joker"
       d="m 71.612898,52.259402 c -2e-5,1.288895 -0.268682,2.540418 -0.805989,3.754571 -0.03708,0.205484 -0.11119,0.485676 -0.222342,0.840576 -0.481759,1.550403 -1.454505,2.829945 -2.918238,3.838629 -0.463228,0.336236 -1.10246,0.663125 -1.917699,0.980671 -0.555868,0.224159 -0.907909,0.476331 -1.056124,0.756519 -1.3e-5,0.205478 -0.01854,0.476329 -0.05559,0.812556 -1.3e-5,0.11208 -0.04633,0.298875 -0.138963,0.560384 -0.09266,0.261515 -0.138976,0.42963 -0.138964,0.504345 -1.2e-5,0.03736 0.120422,0.233495 0.361306,0.588403 0.259385,0.354911 0.426142,0.616423 0.500269,0.784538 0.01852,0.05604 0.02778,0.252173 0.02779,0.588403 -1.4e-5,0.392268 -0.213091,1.027369 -0.639233,1.905305 -0.01854,0.149433 -0.06486,0.345567 -0.138964,0.588403 -0.296468,0.635098 -0.694831,1.176802 -1.195088,1.625113 -0.203825,0.20547 -0.694829,0.448302 -1.473015,0.728499 -1.167305,0.410942 -2.204899,0.616416 -3.112787,0.616422 -0.94496,-6e-6 -1.788006,-0.233499 -2.52914,-0.70048 -0.944957,-0.579067 -1.417433,-1.382283 -1.41743,-2.40965 -3e-6,-0.42963 0.101904,-0.896616 0.30572,-1.40096 0.166753,-0.392269 0.333509,-0.793877 0.50027,-1.204825 -0.148232,-0.07472 -0.352045,-0.224153 -0.611441,-0.448307 -0.129702,-0.168114 -0.194552,-0.681799 -0.194549,-1.541056 -3e-6,-1.513032 0.407624,-3.857302 1.222881,-7.032816 -0.09265,-0.07471 -0.157496,-0.112068 -0.194549,-0.112077 -0.03706,9e-6 -0.342781,0.177464 -0.917161,0.532365 -0.685556,0.410956 -1.176561,0.691148 -1.473015,0.840575 -0.185287,-0.149427 -0.296458,-0.289523 -0.333513,-0.420288 -0.296457,-1.400949 -0.778198,-3.483707 -1.445223,-6.248279 -0.03706,-0.149421 -0.129699,-0.420273 -0.277927,-0.812556 -0.166756,-0.392252 -0.250134,-0.616405 -0.250135,-0.67246 10e-7,-0.280176 0.50027,-0.896597 1.500808,-1.849267 0.889367,-0.803198 1.426692,-1.260844 1.611979,-1.37294 0.629966,-0.35489 1.269198,-0.70046 1.9177,-1.03671 0.852305,-0.466966 1.463744,-0.737818 1.834321,-0.812557 0.407619,-0.168093 1.037588,-0.373567 1.889906,-0.616422 1.259928,-0.186773 2.223409,-0.280169 2.890445,-0.280192 1.167283,2.3e-5 2.130764,0.03738 2.890445,0.112077 0.296442,0.112099 0.741125,0.261534 1.334052,0.448307 1.389621,0.37361 2.473536,1.148807 3.251751,2.325593 0.426136,0.672479 0.778177,1.503714 1.056124,2.493708 0.24085,0.859271 0.361285,1.774562 0.361305,2.74588 m -2.529139,1.120767 c -1.7e-5,-0.784523 -0.0093,-1.22349 -0.02779,-1.316902 -0.722627,-3.100772 -3.251764,-4.651166 -7.587418,-4.651184 -1.000547,1.8e-5 -2.149313,0.242851 -3.4463,0.728499 -0.129706,1.7e-5 -0.296462,0.0187 -0.50027,0.05604 -1.426698,0.653798 -2.455028,1.363618 -3.084994,2.129458 -0.240873,0.280208 -0.361308,0.541719 -0.361306,0.784537 -2e-6,0.50436 0.176019,1.699844 0.528063,3.586456 0.01853,0.130768 0.129696,0.280204 0.333512,0.448307 2.204886,-1.251511 3.696428,-1.877272 4.474632,-1.877286 0.833774,1.4e-5 1.510063,0.214827 2.02887,0.644442 0.537316,0.429639 0.805979,1.055401 0.805989,1.877285 -1e-5,0.09341 -0.09265,0.289542 -0.277927,0.588403 -0.166766,0.298881 -0.287202,0.457657 -0.361306,0.476327 -0.148238,0.07473 -0.361314,0.158784 -0.639233,0.252172 -0.09265,10e-6 -0.453956,10e-6 -1.083917,0 -0.07412,10e-6 -0.407634,-0.0093 -1.000538,-0.02802 -0.574391,-0.03735 -0.898638,-0.05603 -0.972746,-0.05604 -0.222348,9e-6 -0.389104,0.429636 -0.50027,1.288883 -0.09265,0.579071 -0.203818,1.363607 -0.333512,2.353612 -0.09265,0.149441 -0.13897,0.242838 -0.138964,0.280191 l 0,2.269555 c -6e-6,0.130759 0.03705,0.280195 0.111171,0.448307 0.111165,0.242835 0.240865,0.364252 0.389098,0.364249 0.05558,3e-6 0.66702,-0.130753 1.834321,-0.392268 0.03705,2e-6 0.611432,-0.07471 1.72315,-0.224154 0.74113,-0.09339 1.22287,-0.23349 1.445223,-0.420288 0.0741,-0.5417 0.17601,-1.326237 0.30572,-2.353612 0.0741,-0.07471 0.490993,-0.158769 1.250673,-0.252172 0.926412,-0.13075 1.8621,-0.644435 2.807067,-1.541056 0.944937,-0.896605 1.584169,-1.839917 1.917699,-2.829938 0.240854,-0.709809 0.361289,-1.587742 0.361306,-2.633804 m -5.947647,12.972885 c -1.1e-5,-0.373589 -0.176032,-0.700479 -0.528062,-0.980671 -0.333524,-0.29887 -0.704093,-0.448306 -1.11171,-0.448307 -0.759677,10e-7 -1.676836,0.261513 -2.751481,0.784537 -1.315528,0.653781 -1.97329,1.419638 -1.973285,2.297573 -5e-6,0.317549 0.06484,0.513683 0.19455,0.588403 0.370564,0.242831 0.77819,0.410946 1.22288,0.504346 0.352035,0.05604 0.667019,0.08405 0.944953,0.08406 0.555848,-3e-6 1.222873,-0.08406 2.001078,-0.252172 0.500259,-0.112079 0.963472,-0.485669 1.389637,-1.120768 0.407615,-0.560384 0.611429,-1.04605 0.61144,-1.456998"
       id="path24896"
       inkscape:connector-curvature="0" />
  </g>
</svg>
