<?xml version="1.0" encoding="UTF-8" standalone="no"?>
<!-- Created with Inkscape (http://www.inkscape.org/) -->

<svg
   xmlns:dc="http://purl.org/dc/elements/1.1/"
   xmlns:cc="http://creativecommons.org/ns#"
   xmlns:rdf="http://www.w3.org/1999/02/22-rdf-syntax-ns#"
   xmlns:svg="http://www.w3.org/2000/svg"
   xmlns="http://www.w3.org/2000/svg"
   xmlns:sodipodi="http://sodipodi.sourceforge.net/DTD/sodipodi-0.dtd"
   xmlns:inkscape="http://www.inkscape.org/namespaces/inkscape"
   width="100"
   height="100"
   id="svg2"
   sodipodi:version="0.32"
   inkscape:version="0.91 r13725"
   version="1.0"
   sodipodi:docname="fifteen.svg">
  <defs
     id="defs4" />
  <sodipodi:namedview
     id="base"
     pagecolor="#ffffff"
     bordercolor="#666666"
     borderopacity="1.0"
     inkscape:pageopacity="0.0"
     inkscape:pageshadow="2"
     inkscape:zoom="3.1442516"
     inkscape:cx="40.37961"
     inkscape:cy="46.265539"
     inkscape:document-units="px"
     inkscape:current-layer="layer1"
     width="100px"
     height="100px"
     inkscape:window-width="1880"
     inkscape:window-height="1060"
     inkscape:window-x="-2"
     inkscape:window-y="-3"
     showgrid="false"
     inkscape:window-maximized="1" />
  <metadata
     id="metadata7">
    <rdf:RDF>
      <cc:Work
         rdf:about="">
        <dc:format>image/svg+xml</dc:format>
        <dc:type
           rdf:resource="http://purl.org/dc/dcmitype/StillImage" />
        <dc:title></dc:title>
        <dc:date>2015</dc:date>
        <dc:creator>
          <cc:Agent>
            <dc:title>Timothée Giet</dc:title>
          </cc:Agent>
        </dc:creator>
        <cc:license
           rdf:resource="http://creativecommons.org/licenses/by-sa/4.0/" />
      </cc:Work>
      <cc:License
         rdf:about="http://creativecommons.org/licenses/by-sa/4.0/">
        <cc:permits
           rdf:resource="http://creativecommons.org/ns#Reproduction" />
        <cc:permits
           rdf:resource="http://creativecommons.org/ns#Distribution" />
        <cc:requires
           rdf:resource="http://creativecommons.org/ns#Notice" />
        <cc:requires
           rdf:resource="http://creativecommons.org/ns#Attribution" />
        <cc:permits
           rdf:resource="http://creativecommons.org/ns#DerivativeWorks" />
        <cc:requires
           rdf:resource="http://creativecommons.org/ns#ShareAlike" />
      </cc:License>
    </rdf:RDF>
  </metadata>
  <g
     inkscape:label="Calque 1"
     inkscape:groupmode="layer"
     id="layer1">
    <path
       style="fill:#1c4788;fill-opacity:1;fill-rule:evenodd;stroke:none;stroke-width:1px;stroke-linecap:butt;stroke-linejoin:miter;stroke-opacity:1"
       d="m 7.1759734,91.01882 5.6064086,6.432525 c 24.72972,-0.372843 50.121862,1.041588 74.748115,-0.259051 L 92.39715,88.790277 C 90.986433,66.285817 92.298763,43.791185 91.944839,21.251409 L 84.172,15.05903 C 61.629282,13.272506 39.014671,16.486805 16.497864,15.168134 L 6.1041168,22.517639 C 5.9943516,45.372313 7.8493741,68.183038 7.1759734,91.01882 Z"
       id="path2101"
       sodipodi:nodetypes="ccccccccc"
       inkscape:connector-curvature="0" />
    <path
       style="fill:#4381e0;fill-opacity:1;fill-rule:evenodd;stroke:none;stroke-width:1px;stroke-linecap:butt;stroke-linejoin:miter;stroke-opacity:1"
       d="m 89.113183,86.573526 -4.62786,7.80518 C 61.087821,92.959794 37.697829,94.622442 14.286849,93.554838 L 9.9590199,89.198135 C 10.660416,67.595081 8.8173796,46.242893 9.7596355,24.656983 l 7.5761315,-6.030004 c 21.745828,-0.370826 43.524275,-2.088962 65.22497,-0.291942 l 7.531789,5.938675 c -0.962257,20.729963 -1.302491,41.540485 -0.979343,62.299814 z"
       id="path2988"
       sodipodi:nodetypes="ccccccccc"
       inkscape:connector-curvature="0" />
    <path
       style="fill:#1c4788;fill-opacity:1;fill-rule:evenodd;stroke:none;stroke-width:1px;stroke-linecap:butt;stroke-linejoin:miter;stroke-opacity:1"
       d="m 15.052308,30.911786 0.126807,6.267174 0.414972,4.72934 -0.305977,3.897284 2.647006,1.935339 4.920955,0.04007 5.609896,-0.331445 5.063031,0.320383 4.315825,-0.228339 1.366142,-2.36269 -0.264608,-5.45171 0.23629,-7.246894 -0.09865,-6.293685 -2.181953,-1.741329 -6.369016,-0.155079 -10.856376,0.289701 -1.771746,-0.103941 -2.91768,2.06672 0.06508,4.369097 z"
       id="path13715"
       sodipodi:nodetypes="ccccccccccccccccccc"
       inkscape:connector-curvature="0" />
    <path
       style="fill:#b7cff4;fill-opacity:1;fill-rule:evenodd;stroke:none;stroke-width:1px;stroke-linecap:butt;stroke-linejoin:miter;stroke-opacity:1"
       d="m 36.427791,32.129551 0.248924,4.725039 -0.32137,3.550852 0.04543,2.942901 -1.513637,1.794355 -4.388944,-0.141787 -4.417549,-0.09591 -4.701384,0.21297 -2.545972,-0.11706 -1.069463,-1.8298 0.138938,-4.64222 -0.49127,-5.033627 0.358911,-4.803372 1.778699,-1.42738 4.887138,-0.310376 7.793276,0.02144 2.632894,0.219826 1.661509,1.671932 -0.09614,3.262214 z"
       id="path13717"
       sodipodi:nodetypes="ccccccccccccccccccc"
       inkscape:connector-curvature="0" />
    <path
       style="fill:#1c4788;fill-opacity:1;fill-rule:evenodd;stroke:none;stroke-width:1px;stroke-linecap:butt;stroke-linejoin:miter;stroke-opacity:1"
       d="m 37.203848,30.686898 0.126807,6.267174 0.414972,4.72934 -0.305977,3.897284 2.647006,1.935339 4.920955,0.04007 5.609896,-0.331445 5.063031,0.320383 4.315825,-0.228339 1.366142,-2.36269 -0.264608,-5.45171 0.23629,-7.246894 -0.09865,-6.293685 -2.181953,-1.741329 -6.369016,-0.155079 -10.856376,0.289701 -1.771746,-0.103941 -2.91768,2.06672 0.06508,4.369097 z"
       id="path13719"
       sodipodi:nodetypes="ccccccccccccccccccc"
       inkscape:connector-curvature="0" />
    <path
       style="fill:#b7cff4;fill-opacity:1;fill-rule:evenodd;stroke:none;stroke-width:1px;stroke-linecap:butt;stroke-linejoin:miter;stroke-opacity:1"
       d="m 58.579331,31.904663 0.248924,4.725039 -0.32137,3.550852 0.04544,2.942901 -1.513637,1.794355 -4.388944,-0.141787 -4.417549,-0.09591 -4.701384,0.21297 -2.545972,-0.11706 -1.069463,-1.8298 0.138938,-4.64222 -0.49127,-5.033627 0.358911,-4.803372 1.778699,-1.42738 4.887138,-0.310376 7.793276,0.02144 2.632894,0.219826 1.661509,1.671932 -0.09613,3.262214 z"
       id="path13721"
       sodipodi:nodetypes="ccccccccccccccccccc"
       inkscape:connector-curvature="0" />
    <path
       style="fill:#1c4788;fill-opacity:1;fill-rule:evenodd;stroke:none;stroke-width:1px;stroke-linecap:butt;stroke-linejoin:miter;stroke-opacity:1"
       d="m 59.242945,30.686898 0.126807,6.267174 0.414972,4.72934 -0.305977,3.897284 2.647006,1.935339 4.920955,0.04007 5.609896,-0.331445 5.063031,0.320383 4.315825,-0.228339 1.366142,-2.36269 -0.264608,-5.45171 0.23629,-7.246894 -0.09865,-6.293685 -2.181953,-1.741329 -6.369016,-0.155079 -10.856376,0.289701 -1.771746,-0.103941 -2.91768,2.06672 0.06508,4.369097 z"
       id="path13723"
       sodipodi:nodetypes="ccccccccccccccccccc"
       inkscape:connector-curvature="0" />
    <path
       style="fill:#b7cff4;fill-opacity:1;fill-rule:evenodd;stroke:none;stroke-width:1px;stroke-linecap:butt;stroke-linejoin:miter;stroke-opacity:1"
       d="m 80.618428,31.904663 0.248924,4.725039 -0.32137,3.550852 0.04544,2.942901 -1.513637,1.794355 -4.388944,-0.141787 -4.417549,-0.09591 -4.701384,0.21297 -2.545972,-0.11706 -1.069463,-1.8298 0.138938,-4.64222 -0.49127,-5.033627 0.358911,-4.803372 1.778699,-1.42738 4.887138,-0.310376 7.793276,0.02144 2.632894,0.219826 1.661509,1.671932 -0.09614,3.262214 z"
       id="path13725"
       sodipodi:nodetypes="ccccccccccccccccccc"
       inkscape:connector-curvature="0" />
    <path
       style="fill:#1c4788;fill-opacity:1;fill-rule:evenodd;stroke:none;stroke-width:1px;stroke-linecap:butt;stroke-linejoin:miter;stroke-opacity:1"
       d="m 15.10853,52.388661 0.126807,6.267174 0.414971,4.72934 -0.305976,3.897284 2.647005,1.935339 4.920955,0.04007 5.609896,-0.331445 5.063031,0.320383 4.315826,-0.228339 1.366142,-2.36269 -0.264608,-5.45171 0.23629,-7.246894 -0.09865,-6.293685 -2.181953,-1.741329 -6.369017,-0.155079 -10.856376,0.289701 -1.771746,-0.103941 -2.917679,2.06672 0.06508,4.369097 z"
       id="path13727"
       sodipodi:nodetypes="ccccccccccccccccccc"
       inkscape:connector-curvature="0" />
    <path
       style="fill:#b7cff4;fill-opacity:1;fill-rule:evenodd;stroke:none;stroke-width:1px;stroke-linecap:butt;stroke-linejoin:miter;stroke-opacity:1"
       d="m 36.484013,53.606426 0.248924,4.725039 -0.32137,3.550852 0.04544,2.942901 -1.513638,1.794355 -4.388944,-0.141787 -4.417549,-0.09591 -4.701384,0.21297 -2.545972,-0.11706 -1.069463,-1.8298 0.138938,-4.64222 -0.49127,-5.033627 0.358911,-4.803372 1.778699,-1.42738 4.887138,-0.310376 7.793276,0.02144 2.632894,0.219826 1.66151,1.671932 -0.09614,3.262214 z"
       id="path13729"
       sodipodi:nodetypes="ccccccccccccccccccc"
       inkscape:connector-curvature="0" />
    <path
       style="fill:#1c4788;fill-opacity:1;fill-rule:evenodd;stroke:none;stroke-width:1px;stroke-linecap:butt;stroke-linejoin:miter;stroke-opacity:1"
       d="m 37.26007,52.163773 0.126807,6.267174 0.414972,4.72934 -0.305977,3.897284 2.647006,1.935339 4.920955,0.04007 5.609896,-0.331445 5.063031,0.320383 4.315825,-0.228339 1.366142,-2.36269 -0.264608,-5.45171 0.23629,-7.246894 -0.09865,-6.293685 -2.181953,-1.741329 -6.369016,-0.155079 -10.856376,0.289701 -1.771746,-0.103941 -2.91768,2.06672 0.06508,4.369097 z"
       id="path13731"
       sodipodi:nodetypes="ccccccccccccccccccc"
       inkscape:connector-curvature="0" />
    <path
       style="fill:#b7cff4;fill-opacity:1;fill-rule:evenodd;stroke:none;stroke-width:1px;stroke-linecap:butt;stroke-linejoin:miter;stroke-opacity:1"
       d="m 58.635553,53.381538 0.248924,4.725039 -0.32137,3.550852 0.04543,2.942901 -1.513637,1.794355 -4.388944,-0.141787 -4.417549,-0.09591 -4.701384,0.21297 -2.545972,-0.11706 -1.069463,-1.8298 0.138938,-4.64222 -0.49127,-5.033627 0.358911,-4.803372 1.778699,-1.42738 4.887138,-0.310376 7.793276,0.02144 2.632894,0.219826 1.661509,1.671932 -0.09613,3.262214 z"
       id="path13733"
       sodipodi:nodetypes="ccccccccccccccccccc"
       inkscape:connector-curvature="0" />
    <path
       style="fill:#1c4788;fill-opacity:1;fill-rule:evenodd;stroke:none;stroke-width:1px;stroke-linecap:butt;stroke-linejoin:miter;stroke-opacity:1"
       d="m 60.198722,65.881986 0.126807,6.267174 0.414972,4.72934 -0.305977,3.897284 2.647006,1.935339 4.920955,0.04007 5.609896,-0.331445 5.063031,0.320383 4.315825,-0.228339 1.366142,-2.36269 -0.264608,-5.45171 0.23629,-7.246894 -0.09865,-6.293685 -2.181953,-1.741329 -6.369016,-0.155079 -10.856376,0.289701 -1.771746,-0.103941 -2.91768,2.06672 0.06508,4.369097 z"
       id="path13735"
       sodipodi:nodetypes="ccccccccccccccccccc"
       inkscape:connector-curvature="0" />
    <path
       style="fill:#b7cff4;fill-opacity:1;fill-rule:evenodd;stroke:none;stroke-width:1px;stroke-linecap:butt;stroke-linejoin:miter;stroke-opacity:1"
       d="m 81.574205,67.099751 0.248924,4.725039 -0.32137,3.550852 0.04543,2.942901 -1.513637,1.794355 -4.388944,-0.141787 -4.417549,-0.09591 -4.701384,0.21297 -2.545972,-0.11706 -1.069463,-1.8298 0.138938,-4.64222 -0.49127,-5.033627 0.358911,-4.803372 1.778699,-1.42738 4.887138,-0.310376 7.793276,0.02144 2.632894,0.219826 1.661509,1.671932 -0.09613,3.262214 z"
       id="path13737"
       sodipodi:nodetypes="ccccccccccccccccccc"
       inkscape:connector-curvature="0" />
    <path
       style="fill:#1c4788;fill-opacity:1;fill-rule:evenodd;stroke:none;stroke-width:1px;stroke-linecap:butt;stroke-linejoin:miter;stroke-opacity:1"
       d="m 15.333417,73.97798 0.126807,6.267174 0.414972,4.72934 -0.305977,3.897284 2.647006,1.935339 4.920955,0.04007 5.609896,-0.331445 5.063031,0.320383 4.315825,-0.228339 1.366142,-2.36269 -0.264608,-5.45171 0.23629,-7.246894 -0.09865,-6.293685 -2.181953,-1.741329 -6.369016,-0.155079 -10.856376,0.289701 -1.771746,-0.103941 -2.91768,2.06672 0.06508,4.369097 z"
       id="path13739"
       sodipodi:nodetypes="ccccccccccccccccccc"
       inkscape:connector-curvature="0" />
    <path
       style="fill:#b7cff4;fill-opacity:1;fill-rule:evenodd;stroke:none;stroke-width:1px;stroke-linecap:butt;stroke-linejoin:miter;stroke-opacity:1"
       d="m 36.7089,75.195745 0.248924,4.725039 -0.32137,3.550852 0.04543,2.942901 -1.513637,1.794355 -4.388944,-0.141787 -4.417549,-0.09591 -4.701384,0.21297 -2.545972,-0.11706 -1.069463,-1.8298 0.138938,-4.64222 -0.49127,-5.033627 0.358911,-4.803372 1.778699,-1.42738 4.887138,-0.310376 7.793276,0.02144 2.632894,0.219826 1.661509,1.671932 -0.09613,3.262214 z"
       id="path13741"
       sodipodi:nodetypes="ccccccccccccccccccc"
       inkscape:connector-curvature="0" />
    <path
       style="fill:#1c4788;fill-opacity:1;fill-rule:evenodd;stroke:none;stroke-width:1px;stroke-linecap:butt;stroke-linejoin:miter;stroke-opacity:1"
       d="m 37.484957,73.753092 0.126807,6.267174 0.414972,4.72934 -0.305977,3.897284 2.647006,1.935339 4.920955,0.04007 5.609896,-0.331445 5.063031,0.320383 4.315825,-0.228339 1.366142,-2.36269 -0.264608,-5.45171 0.23629,-7.246894 -0.09865,-6.293685 -2.181953,-1.741329 -6.369016,-0.155079 -10.856376,0.289701 -1.771746,-0.103941 -2.91768,2.06672 0.06508,4.369097 z"
       id="path13743"
       sodipodi:nodetypes="ccccccccccccccccccc"
       inkscape:connector-curvature="0" />
    <path
       style="fill:#b7cff4;fill-opacity:1;fill-rule:evenodd;stroke:none;stroke-width:1px;stroke-linecap:butt;stroke-linejoin:miter;stroke-opacity:1"
       d="m 58.86044,74.970857 0.248924,4.725039 -0.32137,3.550852 0.04544,2.942901 -1.513637,1.794355 -4.388944,-0.141787 -4.417549,-0.09591 -4.701384,0.21297 -2.545972,-0.11706 -1.069463,-1.8298 0.138938,-4.64222 -0.49127,-5.033627 0.358911,-4.803372 1.778699,-1.42738 4.887138,-0.310376 7.793276,0.02144 2.632894,0.219826 1.661509,1.671932 -0.09614,3.262214 z"
       id="path13745"
       sodipodi:nodetypes="ccccccccccccccccccc"
       inkscape:connector-curvature="0" />
    <path
       style="font-style:normal;font-variant:normal;font-weight:normal;font-stretch:normal;font-size:17.99353981px;line-height:125%;font-family:'Indigo Joker';text-align:start;writing-mode:lr-tb;text-anchor:start;fill:#1c4788;fill-opacity:1;stroke:none;stroke-width:1px;stroke-linecap:butt;stroke-linejoin:miter;stroke-opacity:1"
       d="m 32.867559,39.227989 c -1.3e-5,0.36778 -0.166299,1.060065 -0.498858,2.076861 -0.399096,1.243952 -0.798182,1.865928 -1.197256,1.86593 -0.03992,-2e-6 -0.13304,-0.01082 -0.27936,-0.03245 -0.146342,-0.01082 -0.239462,-0.01623 -0.279359,-0.01622 -0.05322,-2e-6 -0.325931,0.02163 -0.818127,0.0649 -0.492215,0.05408 -0.764922,0.08113 -0.818125,0.08113 -0.03992,-3e-6 -0.133038,-0.01082 -0.279359,-0.03245 -0.146341,-0.01082 -0.252763,-0.01623 -0.319269,-0.01623 -0.372487,-10e-7 -0.891299,0.03245 -1.556434,0.09735 -0.877994,0.09735 -1.42341,0.156844 -1.63625,0.17848 -0.891296,0.08653 -2.121808,0.205521 -3.691542,0.356961 -0.305967,0.03245 -0.565372,0.09194 -0.778217,0.17848 -0.172938,-0.05409 -0.259406,-0.151441 -0.259405,-0.292059 -1e-6,0.04327 0.05321,-0.519216 0.159634,-1.687449 0.106422,-1.265587 0.179587,-2.28779 0.219497,-3.066615 0.0133,-0.03245 0.08647,-0.08113 0.219497,-0.14603 0.305964,-0.0649 0.605279,-0.146026 0.897942,-0.243382 0.199541,-0.02163 0.498855,-0.0649 0.897943,-0.129803 0.212843,-0.05408 0.525459,-0.129801 0.937851,-0.227157 0.06651,-0.04327 0.113071,-0.08653 0.13968,-0.129804 0.372475,-1.687445 0.558715,-2.617704 0.55872,-2.790782 -5e-6,-0.03244 -0.04656,-0.08653 -0.13968,-0.162254 -0.372484,0.237979 -0.924552,0.573306 -1.656206,1.005979 -0.03991,5e-6 -0.106425,-0.05408 -0.199542,-0.162255 0.0133,-0.270418 -0.119728,-0.703098 -0.399086,-1.298037 -0.07982,-0.183883 -0.598629,-0.989747 -1.556433,-2.417597 -0.0133,-0.01081 -0.01995,-0.09734 -0.01995,-0.259607 0.359176,-0.173063 1.250467,-0.659827 2.673874,-1.460293 0.319264,-0.227147 0.798167,-0.540838 1.436708,-0.941078 0.319263,-0.194694 0.811468,-0.465118 1.476617,-0.811274 0.119718,-0.07571 0.299307,-0.178467 0.538765,-0.308284 0.0399,-0.0108 0.152976,-0.01621 0.339222,-0.01623 0.0399,1.2e-5 0.392428,0.04328 1.057577,0.129803 0.665134,0.07573 1.024311,0.113591 1.077531,0.113579 0.0399,1.2e-5 0.113065,-0.0054 0.219497,-0.01623 0.106414,-0.02162 0.18623,-0.03244 0.239451,-0.03245 0.372471,1.3e-5 0.751602,0.03246 1.137394,0.09735 0.678434,0.108181 1.017657,0.29207 1.017669,0.551665 -1.2e-5,0.03246 -0.02662,0.102773 -0.07982,0.210932 -0.05322,0.09736 -0.07983,0.173083 -0.07982,0.227157 -0.05322,0.68148 -0.126388,1.195286 -0.219497,1.54142 -0.146342,0.789648 -0.399096,2.028192 -0.758262,3.715633 -0.252764,0.746378 -0.565382,1.81185 -0.937851,3.19642 0.0665,0.09736 0.212836,0.162257 0.438993,0.194705 0.159625,0.02164 0.325911,0.03786 0.498858,0.04868 0.385771,0.04327 0.778205,0.08654 1.177302,0.129803 0.731645,0.129807 1.097473,0.340738 1.097486,0.632794 m -1.975474,0.859951 c -0.03992,-0.03245 -0.09978,-0.08113 -0.179589,-0.14603 -0.372489,-0.0649 -1.323643,-0.183887 -2.853461,-0.35696 -0.06652,-0.08653 -0.09978,-0.17307 -0.09977,-0.259608 -8e-6,0.118989 0.286004,-1.087104 0.858035,-3.618281 0.159625,-0.832901 0.37247,-1.925416 0.638536,-3.277547 0.0399,-0.194697 0.13967,-0.551656 0.299314,-1.070881 0.146322,-0.46512 0.219487,-0.713911 0.219497,-0.746372 -1e-5,-0.08653 -0.02661,-0.151427 -0.07982,-0.194706 l -1.017669,0 c -0.931207,1.1e-5 -1.842451,0.0541 -2.733736,0.162256 -0.15964,0.02164 -0.365834,0.124405 -0.618583,0.308283 -0.239457,0.173082 -0.558724,0.432689 -0.957805,0.778823 -0.505512,0.432688 -0.758266,0.703112 -0.758263,0.811274 -3e-6,0.07573 0.09977,0.319109 0.299314,0.730146 0.226145,0.454321 0.412385,0.681478 0.55872,0.681471 0.0399,7e-6 0.226144,-0.0703 0.55872,-0.210931 0.332566,-0.140614 0.518805,-0.210924 0.558719,-0.210932 0.119721,8e-6 0.21284,0.03787 0.279361,0.113578 -0.02661,0.530039 -0.11308,1.222326 -0.259406,2.076862 -0.252759,1.568466 -0.39244,2.466275 -0.419039,2.693428 -0.03991,0.292062 -0.119731,0.665247 -0.239452,1.119558 -0.02661,0.108172 -0.09978,0.162256 -0.219497,0.162255 -0.05322,1e-6 -0.07982,-0.0054 -0.07982,-0.01623 l 0,0 c -5e-6,-0.02163 -0.01996,-0.03245 -0.05986,-0.03245 -0.05321,10e-7 -0.831432,0.118988 -2.334651,0.35696 -0.199544,0.03245 -0.299315,0.08654 -0.299314,0.162255 l 0,1.460293 4.549575,0 3.452091,0.340735 c 0.212836,-10e-7 0.432332,-0.292059 0.658492,-0.876176 0.14632,-0.400228 0.239439,-0.71392 0.279359,-0.941077"
       id="text13751"
       inkscape:connector-curvature="0" />
    <path
       style="font-style:normal;font-variant:normal;font-weight:normal;font-stretch:normal;font-size:17.99356842px;line-height:125%;font-family:'Indigo Joker';text-align:start;writing-mode:lr-tb;text-anchor:start;fill:#1c4788;fill-opacity:1;stroke:none;stroke-width:1px;stroke-linecap:butt;stroke-linejoin:miter;stroke-opacity:1"
       d="m 56.90238,39.489407 c -1.4e-5,-0.03245 -0.0067,0.07031 -0.01995,0.308284 -0.01332,0.356963 -0.02662,0.968123 -0.03991,1.833482 -0.02662,0.32451 -0.06653,0.768007 -0.119726,1.330492 -1.5e-5,0.216338 -0.05323,0.53003 -0.159634,0.941079 -0.03992,0.07572 -0.392449,0.140618 -1.057578,0.194706 -0.532128,0.04326 -0.997729,0.0649 -1.396802,0.0649 L 47.324314,44.065 c -0.03991,-4e-6 -0.146337,-0.01623 -0.319269,-0.04868 -0.172942,-0.02164 -0.286015,-0.03245 -0.339223,-0.03245 -0.385788,-0.02164 -0.778222,-0.04327 -1.177304,-0.0649 -0.505512,-0.04327 -0.891296,-0.11899 -1.15735,-0.227157 -0.26606,-0.108173 -0.399088,-0.438091 -0.399086,-0.989756 -2e-6,-0.02164 0.01995,-0.221751 0.05986,-0.600344 0.05321,-0.378596 0.08647,-0.654429 0.09977,-0.827501 0.0266,-0.367777 0.04656,-0.735555 0.05986,-1.103334 0.03991,-0.508398 0.152981,-0.908627 0.339224,-1.200687 -3e-6,-0.118985 0.05321,-0.275831 0.159633,-0.470539 0.09312,-0.08653 0.259404,-0.183887 0.498859,-0.29206 0.239449,-0.118984 0.399082,-0.20552 0.478903,-0.259608 -0.212849,-0.151434 -0.63189,-0.367774 -1.257122,-0.649019 -0.572025,-0.259605 -0.977762,-0.481353 -1.217212,-0.665247 -0.359179,-0.281237 -0.538767,-0.594929 -0.538767,-0.941079 0,0.04327 0.03326,-0.09194 0.09977,-0.405637 0.09312,-0.41104 0.345875,-1.081693 0.758265,-2.011962 0.42569,-0.941071 1.124089,-1.887557 2.095201,-2.839463 1.037621,-1.038421 2.008729,-1.665806 2.91333,-1.882159 0.159628,-0.06489 0.392428,-0.140608 0.698401,-0.227157 0.345867,-0.05407 0.771559,-0.08111 1.277076,-0.08113 1.077523,1.4e-5 2.061935,0.243396 2.953238,0.730148 0.89128,0.486777 1.456652,1.070895 1.696116,1.752354 0.226135,0.61658 0.33921,1.243965 0.339223,1.882159 -1.3e-5,0.843733 -0.246116,1.844306 -0.738309,3.001718 -0.439008,1.038437 -0.904607,1.822668 -1.396802,2.352698 -1.1e-5,0.07572 0.07315,0.113581 0.219497,0.113578 0.0532,3e-6 0.432332,-0.03245 1.137397,-0.09735 0.718341,-0.07572 1.104125,-0.113576 1.157349,-0.113579 0.266043,3e-6 0.452284,0.02705 0.558721,0.08113 0.15962,0.07572 0.292648,0.319105 0.399086,0.730148 0.0798,0.324512 0.119711,0.594937 0.119725,0.811275 m -1.376847,1.11956 c -1.3e-5,-0.04327 -0.01997,-0.146029 -0.05986,-0.308285 -0.02662,-0.173071 -0.04657,-0.292058 -0.05986,-0.356961 -0.02662,-0.194705 -0.106437,-0.329917 -0.239452,-0.405638 -0.119739,-0.08653 -0.339236,-0.129802 -0.658492,-0.129803 l -4.529629,0.567892 c -0.252761,-0.08653 -0.379138,-0.189296 -0.379132,-0.308284 -6e-6,-0.04327 0.232793,-0.254199 0.698401,-0.632795 0.54541,-0.443495 0.917889,-0.768004 1.117442,-0.97353 0.199533,-0.216337 0.445637,-0.524621 0.738309,-0.924854 0.492196,-0.649016 0.831419,-1.24395 1.01767,-1.784805 0.07981,-0.248785 0.166274,-0.659831 0.259405,-1.233138 0.09311,-0.508392 0.13967,-0.811268 0.139681,-0.908629 -1.1e-5,-0.594926 -0.152994,-1.162818 -0.458949,-1.703677 -0.385794,-0.692278 -0.931211,-1.119549 -1.636253,-1.281815 -0.359187,-0.08652 -0.844742,-0.129793 -1.456665,-0.129804 -0.07982,1.1e-5 -0.305974,0.03246 -0.678446,0.09735 -0.372488,0.06491 -0.572031,0.09736 -0.59863,0.09735 -0.838086,0.06491 -1.73603,0.50841 -2.693832,1.330492 -0.944506,0.8221 -1.443364,1.584698 -1.496573,2.287795 -0.01331,0.08654 -0.06652,0.265023 -0.159634,0.535442 -0.09312,0.270432 -0.139683,0.421869 -0.13968,0.454314 -3e-6,0.34615 0.0266,0.551672 0.07982,0.616569 0.266054,0.302881 0.638535,0.546263 1.117441,0.730148 0.412386,0.151442 0.824775,0.30288 1.237167,0.454314 0.0399,-0.03245 0.07981,-0.07031 0.119726,-0.113579 0.146327,-0.897805 0.266053,-1.444063 0.359178,-1.638776 0.292658,-0.670647 0.558715,-1.130369 0.798172,-1.379167 0.345869,-0.335319 0.81812,-0.502983 1.416756,-0.502991 0.598622,8e-6 1.037616,0.308293 1.316985,0.924854 0.186231,0.411052 0.279352,0.859958 0.27936,1.346717 -8e-6,0.649024 -0.126387,1.141198 -0.379132,1.476521 -0.106431,0.129808 -0.498866,0.389415 -1.177304,0.778823 -0.305973,0.205527 -0.764922,0.465134 -1.376848,0.778824 -0.465606,0.11899 -1.117446,0.302879 -1.955522,0.551667 -0.11973,0.04327 -0.246107,0.302879 -0.379132,0.778825 -0.133032,0.475948 -0.199546,0.86536 -0.199543,1.168236 l 0,1.541423 c 0.146329,0.118985 0.305963,0.178478 0.478903,0.17848 0.0266,-2e-6 0.259402,-0.01623 0.698401,-0.04868 0.43899,-0.02163 0.731653,-0.03786 0.87799,-0.04868 0.332566,-10e-7 0.811469,0.0054 1.43671,0.01623 0.691743,0.01082 0.997708,0.01622 0.917898,0.01623 1.064221,-2e-6 2.813548,-0.102763 5.247984,-0.308284 0.10641,-0.01082 0.192879,-0.237976 0.259406,-0.681472 0.0665,-0.356961 0.09976,-0.665245 0.09977,-0.924853"
       id="text13755"
       inkscape:connector-curvature="0" />
    <path
       style="font-style:normal;font-variant:normal;font-weight:normal;font-stretch:normal;font-size:17.99357986px;line-height:125%;font-family:'Indigo Joker';text-align:start;writing-mode:lr-tb;text-anchor:start;fill:#1c4788;fill-opacity:1;stroke:none;stroke-width:1px;stroke-linecap:butt;stroke-linejoin:miter;stroke-opacity:1"
       d="m 75.828572,32.701277 c -1.2e-5,0.03246 -0.01997,0.108178 -0.05986,0.227157 -0.02662,0.108178 -0.04657,0.189306 -0.05986,0.243383 -0.02662,0.573308 -0.17295,1.103342 -0.438996,1.5901 -0.199554,0.356967 -0.585338,0.865366 -1.15735,1.525198 0.212835,0.183894 0.47224,0.44891 0.778218,0.795051 0.465589,0.822095 0.698389,1.487341 0.698401,1.995738 -1.2e-5,0.789642 -0.345886,1.568466 -1.037624,2.336473 -0.172948,0.248791 -0.345886,0.497582 -0.518813,0.746374 -0.252765,0.356959 -0.552079,0.638202 -0.897944,0.843726 -0.718365,0.411044 -1.556446,0.708512 -2.514245,0.892404 -0.585333,0.108167 -1.037631,0.162252 -1.356893,0.162255 -1.290384,-3e-6 -2.407826,-0.313696 -3.352327,-0.94108 -1.077535,-0.713924 -1.682815,-1.682045 -1.815843,-2.904366 -0.0133,-0.04327 -0.04656,-0.124395 -0.09977,-0.243383 -0.03991,-0.129804 -0.05986,-0.216339 -0.05986,-0.259608 l 0,-1.622551 c -10e-7,-0.183887 0.126376,-0.421861 0.379132,-0.713923 0.05321,-0.0649 0.199542,-0.146026 0.438995,-0.243383 0.252753,-0.108166 0.452295,-0.162251 0.598629,-0.162255 0.05321,4e-6 0.09312,0.01082 0.119726,0.03245 0.03991,0.01082 0.09312,0.01623 0.159635,0.01622 0.199541,5e-6 0.445643,-0.03245 0.73831,-0.09735 0.345871,-0.07572 0.565368,-0.156842 0.658493,-0.243383 0.09312,-0.08653 0.139676,-0.248786 0.13968,-0.486765 -4e-6,-0.237969 -0.159638,-0.438083 -0.478904,-0.600344 -0.598632,-0.324504 -1.450016,-0.497576 -2.554153,-0.519216 -0.06652,-0.01081 -0.17959,-0.05949 -0.339223,-0.146029 -0.159635,-0.09735 -0.239452,-0.178475 -0.239452,-0.243383 0,-0.443491 0.06651,-1.081694 0.199543,-1.914611 0.03991,-0.07571 0.08647,-0.173064 0.13968,-0.292059 0.186239,-0.930253 0.858034,-1.898374 2.015386,-2.904367 0.186238,-0.08652 0.465599,-0.237963 0.838082,-0.454314 0.705049,-0.486754 1.54313,-0.800446 2.514245,-0.94108 0.0399,-0.0108 0.139674,-0.03785 0.299314,-0.08113 0.159628,-0.04325 0.266052,-0.06489 0.31927,-0.0649 0.851377,1.3e-5 1.689458,0.178494 2.514245,0.535442 0.305956,0.108183 0.751602,0.302889 1.336938,0.584119 1.396791,0.930273 2.095192,2.114734 2.095204,3.553387 m -1.775934,0.584118 c -1.1e-5,-0.919437 -0.4124,-1.709077 -1.237168,-2.368925 -0.824788,-0.670643 -1.835805,-1.00597 -3.033057,-1.005982 -0.345882,1.2e-5 -0.558727,0.0054 -0.638539,0.01623 -0.06652,0.01083 -0.152988,0.03787 -0.259405,0.08113 -0.106429,0.03246 -0.179594,0.04869 -0.219498,0.04868 -0.651846,-0.01081 -1.31699,0.335338 -1.995433,1.038433 -0.505512,0.508408 -0.944506,1.130385 -1.316985,1.865933 -0.07982,0.140629 -0.166287,0.530041 -0.259406,1.168237 0.545416,0.140628 1.290376,0.340743 2.234884,0.600344 0.07981,-0.259601 0.166282,-0.513801 0.259407,-0.762599 0.106418,-0.292052 0.232795,-0.519209 0.379132,-0.681472 0.412384,-0.454306 0.90459,-0.681463 1.47662,-0.681471 0.505502,8e-6 0.931194,0.17308 1.277076,0.519216 0.305959,0.324518 0.458941,0.676071 0.458949,1.054659 -8e-6,1.21151 -0.458957,1.920024 -1.376848,2.125542 -0.279366,0.02164 -0.552075,0.04327 -0.818128,0.0649 -0.319274,0.05409 -0.458954,0.23257 -0.41904,0.535442 0.119721,0.08654 0.266053,0.151442 0.438995,0.194706 0.226143,0.04327 0.532109,0.118991 0.917899,0.227157 0.305959,0.118991 0.572017,0.340739 0.798173,0.665246 0.186233,0.281245 0.279353,0.508402 0.279361,0.681471 -8e-6,0.389415 -0.199552,0.740967 -0.59863,1.054659 -0.38579,0.302877 -0.824785,0.454315 -1.316986,0.454314 -0.518817,1e-6 -0.95116,-0.194704 -1.29703,-0.584118 -0.212851,-0.237973 -0.319273,-0.519215 -0.31927,-0.843727 -3e-6,-0.140618 0.01995,-0.28124 0.05986,-0.421863 0.0399,-0.129801 0.0133,-0.221746 -0.07982,-0.275834 -0.09312,3e-6 -0.246106,-0.0054 -0.45895,-0.01622 -0.212849,-0.02163 -0.339226,-0.03245 -0.379132,-0.03245 -0.332574,3e-6 -0.611934,0.03786 -0.838081,0.113578 -0.133031,0.05409 -0.259408,0.243385 -0.379132,0.567893 -0.119728,0.313695 -0.179591,0.557078 -0.179589,0.730148 -2e-6,0.389413 0.19289,0.838319 0.578676,1.346718 0.133026,0.173072 0.325917,0.389412 0.578675,0.64902 0.598626,0.400229 1.443358,0.600343 2.534199,0.600344 0.0133,-10e-7 0.299309,-0.02704 0.858035,-0.08113 0.478898,-0.04327 0.744955,-0.0649 0.798173,-0.0649 0.305959,-0.05409 0.611925,-0.129805 0.917899,-0.227157 0.744953,-0.248792 1.210553,-0.492175 1.396803,-0.730148 0.545408,-0.703105 0.818117,-1.373759 0.818127,-2.011964 -10e-6,-0.82209 -0.212856,-1.43325 -0.638538,-1.833483 -0.119735,-0.108166 -0.312627,-0.248787 -0.578676,-0.421863 -0.212855,-0.1298 -0.319277,-0.216336 -0.319268,-0.259608 -9e-6,-0.04326 0.0532,-0.118983 0.159633,-0.227157 0.106415,-0.108166 0.166278,-0.173068 0.17959,-0.194707 0.319259,-0.37859 0.631876,-0.751776 0.937853,-1.11956 0.412379,-0.51921 0.618573,-1.038426 0.618584,-1.55765"
       id="text13759"
       inkscape:connector-curvature="0" />
    <path
       style="font-style:normal;font-variant:normal;font-weight:normal;font-stretch:normal;font-size:17.99359703px;line-height:125%;font-family:'Indigo Joker';text-align:start;writing-mode:lr-tb;text-anchor:start;fill:#1c4788;fill-opacity:1;stroke:none;stroke-width:1px;stroke-linecap:butt;stroke-linejoin:miter;stroke-opacity:1"
       d="m 34.733547,50.824201 c -1.5e-5,0.118999 -0.02662,0.254212 -0.07982,0.405638 -0.133043,0.335339 -0.452313,0.995177 -0.957809,1.979515 -0.26607,0.400239 -0.651854,1.016808 -1.157352,1.84971 -0.119738,0.378603 -0.325933,0.941087 -0.618584,1.687455 -0.212858,0.432687 -0.478916,1.092523 -0.798174,1.979514 -0.07983,0.638208 -0.252765,1.590104 -0.518813,2.855693 -0.133039,0.465133 -0.352536,0.870771 -0.658493,1.216915 -0.266067,0.302876 -0.758274,0.670654 -1.476621,1.103336 -0.279369,0.237973 -0.711713,0.562484 -1.297032,0.973531 -0.19955,0.118986 -0.532122,0.281241 -0.997718,0.486766 -0.598635,0.270423 -0.99107,0.405636 -1.177305,0.405639 -0.319275,-3e-6 -0.465607,-0.275837 -0.438997,-0.827502 l 0.77822,-5.192169 c -5e-6,-0.183886 -0.113079,-0.275831 -0.339223,-0.275835 -0.133035,4e-6 -0.432349,0.09736 -0.897946,0.29206 -0.252758,0.108174 -0.505513,0.216343 -0.758265,0.324511 -1.064233,0.335329 -1.709424,0.502993 -1.935571,0.502991 -0.558722,2e-6 -0.838083,-0.243381 -0.838083,-0.730148 0,-0.01082 0.02661,-0.189295 0.07982,-0.535443 0.05321,-0.346141 0.07982,-0.594932 0.07982,-0.746374 0,-0.649017 0.05321,-1.270995 0.159635,-1.865936 0.146331,-0.876172 0.226148,-1.319669 0.239452,-1.330493 0.06651,-0.616563 0.199542,-1.281809 0.399087,-1.99574 0.03991,-0.07571 0.09312,-0.189288 0.159635,-0.340736 0.119724,-0.432671 0.266056,-0.757182 0.438995,-0.973532 0.186238,-0.216329 0.804822,-0.546249 1.855754,-0.989757 0.931197,-0.389401 1.802537,-0.681461 2.614018,-0.876178 0.05321,-0.03244 0.152978,-0.08652 0.299315,-0.162256 0.465595,-0.17306 0.917893,-0.259596 1.356896,-0.259609 0.07981,1.3e-5 0.219489,0.07032 0.41904,0.210932 -0.279368,0.551681 -0.671803,1.379181 -1.177305,2.482506 -0.01331,0.151449 -0.04657,0.378606 -0.09977,0.681472 -0.133035,0.367788 -0.325927,0.930273 -0.578676,1.687455 l 0.09977,0.08113 c 0.146325,-0.129797 0.279354,-0.340728 0.399087,-0.632796 0.106415,-0.237965 0.206187,-0.475939 0.299315,-0.713923 0.159627,-0.313684 0.292656,-0.557067 0.399087,-0.730149 0.226141,-0.378585 0.432336,-0.654419 0.618584,-0.827502 0.345867,-0.324499 0.91124,-0.616559 1.696119,-0.876178 0.638529,-0.183878 1.283718,-0.373175 1.935571,-0.567894 0.359167,-0.108157 0.877979,-0.162243 1.55644,-0.162255 0.611918,1.2e-5 0.917884,0.135225 0.917899,0.405638 m -2.25484,1.022209 c -1.3e-5,-0.07571 -0.02662,-0.113568 -0.07982,-0.113579 l -0.359179,0 c -0.199554,1.1e-5 -0.645201,0.129815 -1.336941,0.389412 -0.678457,0.248802 -1.097497,0.443508 -1.257122,0.584119 -0.425702,0.356971 -0.838092,0.973541 -1.23717,1.849711 -0.09313,0.292067 -0.232808,0.708522 -0.419041,1.249366 -0.146339,0.432687 -0.325929,0.697703 -0.538767,0.79505 -0.492214,0.23798 -1.07089,0.356967 -1.736028,0.356962 -0.266063,5e-6 -0.432348,-0.03245 -0.498859,-0.09735 -0.06652,-0.06489 -0.09978,-0.200108 -0.09977,-0.405638 -5e-6,-0.508392 0.07981,-1.027609 0.239451,-1.55765 0.106419,-0.302868 0.365825,-1.027609 0.778221,-2.174221 0.0399,-0.08653 0.119719,-0.243372 0.239451,-0.47054 0.106417,-0.183879 0.159629,-0.292049 0.159635,-0.324511 -6e-6,-0.02162 -0.03992,-0.0703 -0.119726,-0.14603 l -0.379132,0 c -0.305972,1.2e-5 -1.004373,0.265028 -2.095206,0.795052 -0.07982,0.03246 -0.159639,0.09195 -0.239452,0.17848 -0.106427,0.194716 -0.226152,0.438099 -0.359179,0.730149 -0.598632,3.007137 -0.897946,4.575604 -0.897945,4.705403 -1e-6,0.227161 0.06651,0.394825 0.199543,0.502992 1.130743,-0.411043 2.261489,-0.621975 3.392239,-0.632796 0.0399,5e-6 0.09311,-0.01081 0.159634,-0.03245 0.07981,-0.03245 0.146326,-0.04867 0.199543,-0.04867 0.172933,4e-6 0.305961,0.102765 0.399087,0.308284 0.06651,0.16226 0.09977,0.324515 0.09977,0.486766 l -0.698402,5.013688 c -6e-6,0.173072 0.01995,0.313692 0.05986,0.421864 0.279355,-0.08654 0.591973,-0.25961 0.937854,-0.519217 0.39908,-0.281243 0.791515,-0.567894 1.177307,-0.859953 0.226141,-0.151438 0.445638,-0.302876 0.658492,-0.454315 0.305958,-0.227156 0.485547,-0.411046 0.538767,-0.551668 0.0532,-0.151437 0.106415,-0.346143 0.159635,-0.584118 -0.01331,-0.519215 -8e-6,-1.292631 0.03991,-2.320251 0.06651,-0.475945 0.212838,-1.07088 0.438995,-1.784809 0.199535,-0.670648 0.492197,-1.557643 0.877992,-2.660986 0.146321,-0.356953 0.458939,-0.897803 0.937854,-1.622553 0.438983,-0.64901 0.658481,-0.984338 0.658494,-1.005982"
       id="text13763"
       inkscape:connector-curvature="0" />
    <path
       style="font-style:normal;font-variant:normal;font-weight:normal;font-stretch:normal;font-size:17.9936142px;line-height:125%;font-family:'Indigo Joker';text-align:start;writing-mode:lr-tb;text-anchor:start;fill:#1c4788;fill-opacity:1;stroke:none;stroke-width:1px;stroke-linecap:butt;stroke-linejoin:miter;stroke-opacity:1"
       d="m 57.227043,59.53148 c -1.5e-5,0.04327 -0.03327,0.189301 -0.09977,0.43809 -0.06653,0.237977 -0.106438,0.384007 -0.119726,0.438089 -0.07983,0.81128 -0.631903,1.736135 -1.656212,2.774569 -1.024337,1.04925 -2.075266,1.746947 -3.152789,2.093095 -0.199554,0.0649 -0.658504,0.146027 -1.376851,0.243383 -0.638548,0.08653 -1.01768,0.129802 -1.137399,0.129805 -1.21057,-3e-6 -2.321362,-0.173076 -3.332377,-0.519218 -1.383507,-0.475951 -2.361269,-1.227734 -2.933292,-2.25535 -0.06652,-0.129805 -0.166288,-0.470541 -0.299315,-1.02221 -0.06652,-0.313692 -0.09977,-0.470539 -0.09977,-0.470541 -1e-6,-0.897811 0.525463,-1.617142 1.576395,-2.157996 -0.02661,-0.108168 -0.146335,-0.183887 -0.359179,-0.227158 -0.212848,-0.05408 -0.339226,-0.124393 -0.379133,-0.210933 -0.239454,-0.45431 -0.591981,-1.427842 -1.057581,-2.920597 -0.119727,-0.497577 -0.305967,-1.233133 -0.558722,-2.206674 -0.0133,-0.03244 -0.05321,-0.08653 -0.119727,-0.162256 -0.06651,-0.08653 -0.09977,-0.178472 -0.09977,-0.275834 0,-0.205514 0.286012,-0.43808 0.858038,-0.697698 0.345874,-0.162246 0.671794,-0.29205 0.977763,-0.389414 0.07982,-0.02162 0.691749,-0.227146 1.835801,-0.61657 0.19954,-0.118976 0.472249,-0.259597 0.81813,-0.421864 0.877985,-0.270415 2.155064,-0.605741 3.831236,-1.005984 0.252747,-0.08652 0.631879,-0.178468 1.137398,-0.275834 0.971102,-0.08652 1.762625,-0.129791 2.37457,-0.129804 1.037614,1.3e-5 1.775924,0.84374 2.214934,2.531184 0.02659,0.118998 0.106409,0.362381 0.239452,0.73015 0.119712,0.313703 0.179574,0.497592 0.17959,0.551668 -1.6e-5,0.237984 -0.09314,0.448916 -0.279362,0.632797 -0.239466,0.227166 -0.591993,0.384012 -1.057581,0.470541 -0.3991,0.06491 -0.798186,0.129811 -1.197261,0.194706 l -0.03991,0.04868 0,0.129804 c 0.119715,0.04328 0.305955,0.113586 0.558723,0.210932 0.305954,0.183896 0.572012,0.384011 0.798174,0.600345 0.252742,0.248798 0.585314,0.611168 0.997719,1.087112 0.199529,0.281248 0.405724,0.621983 0.618585,1.022208 0.212831,0.400235 0.319254,0.632801 0.31927,0.697699 l 0.01995,0.941081 m -2.115162,0.29206 c -1.3e-5,-0.605749 -0.133042,-1.227728 -0.399087,-1.865937 -0.35919,-0.832906 -0.844747,-1.36294 -1.456668,-1.590103 -0.611945,-0.237969 -1.070895,-0.373181 -1.376851,-0.405639 -0.119736,-0.02163 -0.478915,-0.03244 -1.077535,-0.03245 -1.330299,6e-6 -2.30141,0.09736 -2.913337,0.29206 -0.01331,6e-6 -0.02661,0.01082 -0.03991,0.03245 -0.01331,0.02164 -0.04657,0.03246 -0.09977,0.03245 -0.159642,7e-6 -0.29267,-0.113572 -0.399088,-0.340735 -0.07982,-0.173066 -0.119731,-0.324505 -0.119725,-0.454316 -6e-6,-0.400223 0.339218,-0.692281 1.017672,-0.876179 0.412383,-0.07571 0.824772,-0.15143 1.23717,-0.227157 1.197253,-0.346137 2.707131,-0.638196 4.529639,-0.876181 0.0399,-0.02162 0.08646,-0.05407 0.139681,-0.09735 -0.01331,-0.281234 -0.113087,-0.654421 -0.299315,-1.119563 -0.26607,-0.681462 -0.58534,-1.022198 -0.95781,-1.022209 -0.02662,1.1e-5 -0.698413,0.162266 -2.01539,0.486766 -1.47663,0.356972 -2.554165,0.600355 -3.232606,0.73015 -0.505517,0.09736 -1.110797,0.270435 -1.815847,0.519217 -0.997721,0.346154 -1.49658,0.654439 -1.496577,0.924856 -3e-6,9e-6 0.512159,1.427856 1.536486,4.283544 0.0133,0.01082 0.07981,0.06491 0.199543,0.162255 0.957805,-0.876175 1.968824,-1.335897 3.033063,-1.379171 0.0399,-0.01081 0.09977,-0.02704 0.179589,-0.04868 0.09311,-0.03245 0.166279,-0.04867 0.219499,-0.04868 0.0532,5e-6 0.139672,0.02164 0.259406,0.0649 0.133021,0.04327 0.21949,0.07032 0.259407,0.08113 0.45229,0.07572 0.81812,0.389419 1.097489,0.941082 0.22614,0.432685 0.339215,0.84914 0.339225,1.249367 -10e-6,0.389416 -0.05322,0.740969 -0.159635,1.05466 -0.03992,0.162258 -0.179599,0.351555 -0.419042,0.567894 -0.239461,0.205526 -0.458959,0.329921 -0.658494,0.373188 -0.585336,0.15144 -1.004377,0.227159 -1.257125,0.227157 -0.146338,2e-6 -0.325928,-0.04327 -0.538768,-0.129805 -0.19955,-0.09735 -0.33923,-0.205521 -0.41904,-0.32451 -0.06652,-0.183887 -0.179596,-0.416454 -0.339225,-0.697698 -0.07982,-0.01082 -0.206201,-0.02704 -0.379133,-0.04868 -0.172943,-0.02163 -0.286018,-0.03245 -0.339224,-0.03245 -0.771573,2e-6 -1.303688,0.04327 -1.596349,0.129805 -0.505513,0.162257 -0.758268,0.492176 -0.758265,0.989757 -3e-6,0.15144 0.0266,0.416457 0.07982,0.795052 0.0133,0.118988 0.07316,0.29206 0.17959,0.519218 0.212842,0.443497 0.871336,0.843727 1.975481,1.200689 0.944501,0.302876 1.742674,0.454315 2.394523,0.454316 1.011013,-10e-7 1.935564,-0.232568 2.773656,-0.697699 0.399077,-0.205524 0.798164,-0.411047 1.197262,-0.61657 0.585316,-0.335328 0.957797,-0.61657 1.117444,-0.843728 0.532104,-0.713923 0.798161,-1.492749 0.798174,-2.336479"
       id="text13767"
       inkscape:connector-curvature="0" />
    <path
       style="font-style:normal;font-variant:normal;font-weight:normal;font-stretch:normal;font-size:17.99363708px;line-height:125%;font-family:'Indigo Joker';text-align:start;writing-mode:lr-tb;text-anchor:start;fill:#1c4788;fill-opacity:1;stroke:none;stroke-width:1px;stroke-linecap:butt;stroke-linejoin:miter;stroke-opacity:1"
       d="m 77.682233,72.080174 c -1.4e-5,0.248795 -0.09978,0.805872 -0.299317,1.671233 -0.146344,0.649023 -0.246115,1.054663 -0.299315,1.216917 -0.119738,0.335329 -0.31263,0.676065 -0.578678,1.02221 -0.266069,0.346146 -0.738322,0.800461 -1.416761,1.362948 -0.02662,0.02163 -0.259416,0.140619 -0.698403,0.356963 -0.705065,0.356959 -1.297043,0.584117 -1.77594,0.681473 -0.718365,0.140619 -1.689478,0.210929 -2.913341,0.210933 -5e-6,-4e-6 -0.379137,-0.0595 -1.137399,-0.178481 -0.904603,-0.151442 -1.682823,-0.681476 -2.334664,-1.590106 -0.492209,-0.670657 -0.838085,-1.422441 -1.037628,-2.255353 -0.07982,-0.335327 -0.166287,-0.90863 -0.259407,-1.71991 -0.07982,-0.703104 -0.119726,-1.108744 -0.119726,-1.216918 0,-0.03245 0.0133,-0.146026 0.03991,-0.340737 0.02661,-0.194702 0.04656,-0.335323 0.05986,-0.421865 0.06651,-0.941076 0.498858,-2.34729 1.297035,-4.218646 0.172936,-0.411039 0.552069,-1.027609 1.1374,-1.849714 0.159632,-0.21633 0.552068,-0.611151 1.177309,-1.184466 0.0399,-0.09734 0.113071,-0.216329 0.219498,-0.356963 0.38578,-0.3894 0.685096,-0.584107 0.897947,-0.58412 0.0399,1.3e-5 0.09977,0.02165 0.17959,0.0649 0.09311,0.04328 0.159629,0.07032 0.199543,0.08113 0.771564,0.129817 1.297029,0.22717 1.576397,0.29206 0.611927,0.151451 1.163998,0.340749 1.656215,0.567895 0.266049,0.118999 0.399078,0.340748 0.399086,0.665248 -8e-6,0.205535 -0.05987,0.373199 -0.179588,0.502992 -0.292674,0.324522 -0.478914,0.540863 -0.558723,0.649023 -0.146341,0.118998 -0.352536,0.32993 -0.618586,0.632797 -0.266066,0.292069 -0.525473,0.589538 -0.778222,0.892407 -0.266065,0.346153 -0.439003,0.632804 -0.518813,0.859954 l 0.159635,0.129804 c 0.09311,-0.03244 0.2594,-0.07571 0.49886,-0.129804 0.611925,-0.04326 0.977757,-0.06489 1.097491,-0.0649 0.372473,7e-6 0.811469,0.05409 1.316989,0.162255 0.438987,0.108178 0.931194,0.329928 1.476625,0.665248 0.55871,0.335335 0.977752,0.697706 1.257126,1.087113 0.199531,0.227164 0.419029,0.551674 0.658494,0.973534 0.14632,0.475954 0.219485,0.93027 0.219499,1.362948 M 75.66684,72.42091 c -1.1e-5,-0.703103 -0.05322,-1.15201 -0.159635,-1.346721 -0.558734,-1.103333 -1.676178,-1.655002 -3.352337,-1.655008 -0.492216,6e-6 -0.878,0.04327 -1.157354,0.129804 -0.266065,0.07573 -0.658501,0.254207 -1.177309,0.535444 -0.505516,0.270431 -0.764923,0.405645 -0.778221,0.405639 -0.07982,6e-6 -0.166291,-0.04867 -0.259407,-0.14603 -0.07982,-0.09735 -0.119731,-0.173067 -0.119727,-0.227157 -4e-6,-0.248787 0.212843,-0.865358 0.63854,-1.849715 0.319266,-0.724734 0.591976,-1.270994 0.818131,-1.638782 0.0532,-0.07571 0.272703,-0.335319 0.658495,-0.778827 0.319263,-0.36777 0.518806,-0.665238 0.598631,-0.892406 -0.05322,-0.03244 -0.33258,-0.10816 -0.838084,-0.227158 -0.492214,-0.129794 -0.811484,-0.194695 -0.957811,-0.194707 -0.186246,1.2e-5 -0.365835,0.146041 -0.538768,0.438091 -0.119731,0.194717 -0.226155,0.356972 -0.31927,0.486767 -0.02661,0.04328 -0.152988,0.308295 -0.379134,0.795052 -0.212851,0.475959 -0.432348,0.957317 -0.658494,1.444076 -0.279365,0.605761 -0.452302,1.065484 -0.518815,1.379172 -0.359181,1.600927 -0.53877,2.509558 -0.538768,2.725895 -2e-6,0.237978 0.07982,0.805873 0.239453,1.703685 0.119723,0.670657 0.23945,1.168241 0.359178,1.492751 0.14633,0.378597 0.458948,0.735559 0.937857,1.070887 0.492203,0.346145 0.957806,0.530034 1.396807,0.55167 0.07981,-1e-6 0.226144,0.02163 0.438996,0.0649 0.212842,0.04327 0.34587,0.0649 0.399087,0.0649 0.917896,-10e-7 1.875705,-0.248792 2.873432,-0.746376 1.197253,-0.605754 1.895656,-1.373763 2.095211,-2.30403 0.0532,-0.281241 0.126367,-0.546258 0.219498,-0.795053 0.0532,-0.140619 0.07981,-0.302874 0.07982,-0.486767 m -1.576397,0.665248 c -9e-6,0.443502 -0.305976,0.935676 -0.917902,1.476527 -0.611942,0.540853 -1.203922,0.811278 -1.77594,0.811278 -0.944513,0 -1.642917,-0.135213 -2.095211,-0.405639 -0.518818,-0.313693 -0.778224,-0.83832 -0.77822,-1.57388 -4e-6,-0.443496 0.159631,-0.886994 0.478905,-1.330496 0.385779,-0.540848 0.911244,-0.903219 1.576396,-1.087113 0.172932,-0.04326 0.512156,-0.0649 1.017674,-0.0649 0.758259,5e-6 1.363541,0.216345 1.81585,0.649022 0.452289,0.432686 0.678439,0.941087 0.678448,1.525203"
       id="text13771"
       inkscape:connector-curvature="0" />
    <path
       style="font-style:normal;font-variant:normal;font-weight:normal;font-stretch:normal;font-size:17.99364281px;line-height:125%;font-family:'Indigo Joker';text-align:start;writing-mode:lr-tb;text-anchor:start;fill:#1c4788;fill-opacity:1;stroke:none;stroke-width:1px;stroke-linecap:butt;stroke-linejoin:miter;stroke-opacity:1"
       d="m 35.587829,75.25171 c -1.5e-5,0.183898 -0.05988,0.632805 -0.17959,1.346722 -0.119741,0.789651 -0.219513,1.222332 -0.299315,1.298046 -0.372496,0.270432 -0.917916,0.708522 -1.636261,1.314271 -1.144063,1.114159 -1.955541,2.401386 -2.434436,3.861686 -0.212857,0.443498 -0.498869,1.108746 -0.858038,1.995745 -0.03992,0.17307 -0.07318,0.346143 -0.09977,0.519217 -0.06653,0.227156 -0.172948,0.39482 -0.319271,0.502993 -0.558731,-0.0649 -1.410117,-0.09735 -2.554162,-0.09735 -0.05322,-10e-7 -0.312625,0.03245 -0.778221,0.09735 -0.465607,0.0649 -0.725014,0.09735 -0.778221,0.09735 -0.05322,-3e-6 -0.106428,-0.01082 -0.159635,-0.03245 -0.03991,-0.01082 -0.08647,-0.01623 -0.139682,-0.01623 -0.505514,-2e-6 -1.403461,0.113577 -2.693842,0.340737 -0.06652,0.01081 -0.206197,0.05408 -0.419042,0.129805 -0.199546,0.07572 -0.332575,0.113575 -0.399088,0.113578 -0.146333,-3e-6 -0.319272,-0.07572 -0.518815,-0.227158 -0.0133,-0.638207 0.03326,-1.119566 0.139681,-1.444075 0.146332,-0.194708 0.332572,-0.492177 0.558723,-0.892406 0.438996,-0.9519 1.183959,-2.039012 2.234892,-3.26134 0.133026,-0.162252 0.665142,-0.654428 1.596351,-1.476527 0.877988,-0.789639 1.456664,-1.357534 1.736032,-1.703684 -0.02661,-0.02163 -0.07982,-0.03245 -0.159635,-0.03245 -0.19955,6e-6 -0.605289,0.124402 -1.217217,0.373188 -0.478911,0.194713 -0.824786,0.346151 -1.037628,0.454316 -0.691756,0.356968 -1.430069,0.60576 -2.214938,0.746377 -0.06652,-0.05408 -0.152986,-0.1298 -0.259407,-0.227158 -0.02661,-0.216336 -0.07982,-0.60575 -0.159635,-1.168242 -0.07982,-0.48676 -0.119729,-0.746369 -0.119727,-0.778826 l 0,-1.200693 -0.518814,-4.494483 c -1e-6,-0.05407 0.0067,-0.17306 0.01995,-0.356962 0.226147,-0.140609 0.771567,-0.210919 1.636259,-0.210933 0.07981,1.4e-5 0.631886,0.01624 1.656215,0.04868 0.824776,0.02165 1.469967,0.02165 1.935576,0 0.06651,-0.0108 0.34587,0.03246 0.838084,0.129805 0.585322,0.119 0.977757,0.194719 1.17731,0.227158 0.598622,0.03246 1.463312,0.113591 2.594071,0.243383 0.625226,0.08655 1.270417,0.248804 1.935576,0.486767 0.226136,0.03246 0.552058,0.09736 0.977764,0.194707 0.146319,0.04328 0.33256,0.146042 0.558723,0.308286 0.239439,0.151449 0.359165,0.254212 0.35918,0.308286 l 0,2.482512 m -1.875713,0.389413 c -1.3e-5,-0.02163 -0.0067,-0.124387 -0.01995,-0.308285 -0.01332,-0.270417 -0.02662,-0.594929 -0.03991,-0.973534 -1.3e-5,-0.292051 -0.05323,-0.69769 -0.159635,-1.216918 -0.05322,-0.140611 -0.179603,-0.227148 -0.379134,-0.259609 -0.545432,-0.08653 -1.011034,-0.129794 -1.396808,-0.129805 l -5.587229,-0.09735 c -0.292669,1.1e-5 -0.685106,0.03787 -1.17731,0.113579 -0.478908,0.06491 -0.798178,0.140633 -0.957809,0.227158 -0.03991,0.03246 -0.08647,0.248803 -0.139682,0.649022 -0.05321,0.356973 -0.07982,0.649032 -0.07982,0.876181 -3e-6,0.324521 0.07316,1.114164 0.219499,2.368934 0.0266,0.03246 0.06651,0.07032 0.119725,0.113578 0.23945,-0.09735 0.552068,-0.210925 0.937857,-0.340736 0.505506,-0.108164 1.223864,-0.23256 2.155074,-0.373189 0.824775,-0.11898 1.297028,-0.178474 1.416762,-0.178481 0.0399,7e-6 0.259399,0.02164 0.658495,0.0649 0.412381,0.03246 0.711698,0.05409 0.897948,0.0649 0.159625,0.17308 0.239443,0.297477 0.239453,0.373189 -10e-6,0.08654 -0.618596,0.768016 -1.855759,2.044422 -1.489934,1.51439 -2.347972,2.401386 -2.574117,2.660993 -0.01331,0.02164 -0.498864,0.686884 -1.45667,1.995745 -0.199548,0.259609 -0.399092,0.51381 -0.598632,0.762602 -0.279365,0.389412 -0.419045,0.649021 -0.419043,0.778827 -2e-6,0.07572 0.0266,0.135212 0.07982,0.178482 0.864686,-0.08654 2.161721,-0.216343 3.891106,-0.389414 0.292657,-0.01082 0.62523,-0.05949 0.997719,-0.146031 0.146324,-0.140622 0.292657,-0.384005 0.438997,-0.730151 0.106415,-0.270425 0.212838,-0.535442 0.319271,-0.795052 0.359169,-0.757192 0.957801,-1.665823 1.795894,-2.725896 0.385775,-0.627385 0.917891,-1.41162 1.596352,-2.352707 0.478893,-0.540846 0.764906,-0.903217 0.858039,-1.087113 0.146319,-0.270419 0.219485,-0.659832 0.219498,-1.168242"
       id="text13775"
       inkscape:connector-curvature="0" />
    <path
       style="font-style:normal;font-variant:normal;font-weight:normal;font-stretch:normal;font-size:17.99365997px;line-height:125%;font-family:'Indigo Joker';text-align:start;writing-mode:lr-tb;text-anchor:start;fill:#1c4788;fill-opacity:1;stroke:none;stroke-width:1px;stroke-linecap:butt;stroke-linejoin:miter;stroke-opacity:1"
       d="m 57.063666,81.407073 c -1.6e-5,0.540855 -0.05323,1.00058 -0.159637,1.379175 -0.09313,0.173074 -0.226164,0.432683 -0.399088,0.778828 -0.239467,0.486768 -0.685115,1.081706 -1.336945,1.784815 -0.06653,0.03245 -0.152997,0.07572 -0.259408,0.129804 -0.71837,0.540851 -1.503243,0.914039 -2.35462,1.119565 -0.439007,0.108168 -1.22388,0.210931 -2.35462,0.308287 -0.611943,0.05408 -1.024333,0.08113 -1.237173,0.08113 -0.798183,-2e-6 -1.902327,-0.194709 -3.312433,-0.58412 -1.303691,-0.367782 -2.25485,-0.989762 -2.853481,-1.865942 -0.119727,-0.140623 -0.252756,-0.346146 -0.399089,-0.616572 -0.05321,-0.18389 -0.07982,-0.535445 -0.07982,-1.054664 0,-0.465132 0.0067,-0.713923 0.01996,-0.746377 0.106422,-0.237973 0.252755,-0.57871 0.438997,-1.022211 0.27936,-0.843727 1.044279,-1.644189 2.294757,-2.401387 -0.399091,-0.302872 -0.764921,-0.740963 -1.097492,-1.314272 -0.319272,-0.573297 -0.478908,-1.049247 -0.478906,-1.427852 -2e-6,-0.04326 0.0133,-0.124388 0.03991,-0.243383 0.03991,-0.129797 0.06651,-0.221742 0.07982,-0.275836 0.03991,-0.811269 0.611933,-1.665816 1.71608,-2.563642 0.904595,-0.735548 1.742679,-1.227724 2.514256,-1.476528 0.545414,-0.162243 0.991062,-0.259597 1.336945,-0.292061 0.119719,-0.02162 0.62523,-0.03244 1.516535,-0.03245 0.0399,1.3e-5 0.226141,0.04869 0.558724,0.14603 0.412381,0.129817 0.705046,0.216354 0.877994,0.259609 0.99771,0.237988 1.855748,0.686895 2.574119,1.346724 0.385771,0.356974 0.678436,0.751796 0.877994,1.184467 0.226135,0.475961 0.33921,0.859965 0.339225,1.152017 -1.5e-5,0.497593 -0.239467,1.097939 -0.718359,1.80104 -0.478919,0.692298 -0.718372,1.01681 -0.718359,0.973535 -1.3e-5,0.08654 0.08646,0.178488 0.259407,0.275835 0.305955,0.151444 0.46559,0.232572 0.478906,0.243384 0.399075,0.270431 0.724997,0.567901 0.977766,0.892407 0.0665,0.07572 0.219484,0.389418 0.458951,0.941084 0.266044,0.594942 0.399074,0.968129 0.39909,1.119565 m -1.636263,0.210933 c -1.3e-5,-0.822093 -0.591993,-1.67664 -1.775942,-2.563642 -0.133041,-0.09735 -0.385797,-0.200111 -0.758267,-0.308286 -0.159646,5e-6 -0.325933,5e-6 -0.498861,0 -0.239463,-0.02163 -0.35919,-0.129799 -0.35918,-0.324512 -1e-5,-0.0649 0.146323,-0.205519 0.438998,-0.421865 0.372471,-0.270421 0.645181,-0.502987 0.818131,-0.697701 0.292652,-0.346139 0.438985,-0.713918 0.438996,-1.10334 -1.1e-5,-0.778819 -0.319281,-1.481927 -0.957811,-2.109325 -0.744975,-0.724732 -1.709437,-1.087103 -2.89339,-1.087115 -0.09313,-0.05407 -0.192901,-0.08112 -0.299316,-0.08113 -0.518821,1.1e-5 -1.170666,0.216353 -1.955533,0.649024 -0.877998,0.486777 -1.38351,0.98977 -1.516535,1.508979 -0.06652,0.08655 -0.133033,0.205533 -0.199543,0.356963 -0.05322,0.346154 -0.07982,0.584129 -0.07982,0.713926 -4e-6,0.259617 0.10642,0.589537 0.319271,0.989761 0.212842,0.400237 0.465597,0.703115 0.758267,0.908633 0.0399,0.03246 0.199539,0.108176 0.478905,0.227158 0.133024,0.05409 0.199539,0.146035 0.199545,0.275834 -6e-6,0.12981 -0.09313,0.221755 -0.279362,0.275835 -0.305972,0.08654 -0.47891,0.146036 -0.518814,0.178482 -0.598637,0.356967 -0.937862,0.562492 -1.017676,0.616572 -0.372486,0.248797 -0.678452,0.535449 -0.917902,0.859956 -0.09312,0.108174 -0.232805,0.481362 -0.419043,1.119565 -0.239455,0.778831 -0.359182,1.173652 -0.359179,1.184468 -3e-6,0.681476 0.65184,1.292638 1.955532,1.833491 1.090835,0.465133 2.022041,0.697699 2.793617,0.6977 l 0.957812,0 c 0.119719,-10e-7 0.844729,-0.09195 2.175031,-0.275835 0.492198,-0.0649 0.99771,-0.22175 1.516535,-0.470541 0.532106,-0.237976 0.944496,-0.502994 1.237174,-0.795054 0.345863,-0.356962 0.55871,-0.686882 0.638541,-0.989761 0.0532,-0.227156 0.0798,-0.61657 0.07982,-1.168242 M 52.15488,75.46851 c -10e-6,0.573311 -0.239463,1.076304 -0.718359,1.508979 -0.478914,0.421872 -1.044289,0.632804 -1.696125,0.632798 -0.598639,6e-6 -1.117454,-0.156842 -1.556444,-0.470542 -0.439003,-0.324505 -0.658501,-0.713919 -0.658496,-1.168243 -5e-6,-0.205515 0.07981,-0.438082 0.239453,-0.697699 0.15963,-0.22715 0.312613,-0.4489 0.458952,-0.665249 0.07981,-0.118979 0.232795,-0.243375 0.458951,-0.373189 0.239446,-0.129795 0.425688,-0.205514 0.558724,-0.227159 0.62523,-0.118977 1.064227,-0.178471 1.316991,-0.178481 0.252747,1e-5 0.565366,0.135223 0.937857,0.40564 0.372473,0.270435 0.585319,0.551679 0.638542,0.84373 0.01329,0.07573 0.01994,0.205533 0.01995,0.389415 m 0.638541,5.98724 c -10e-6,0.800464 -0.319281,1.476529 -0.957811,2.028199 -0.625248,0.540852 -1.423424,0.811278 -2.39453,0.811279 -0.319278,-10e-7 -0.59864,-0.03786 -0.838085,-0.11358 -0.385791,-0.129804 -0.778228,-0.367779 -1.17731,-0.713925 -0.359185,-0.302877 -0.538774,-0.795053 -0.53877,-1.476528 -4e-6,-0.443497 0.179585,-0.876179 0.53877,-1.298047 0.359173,-0.421862 0.838079,-0.740965 1.436717,-0.95731 0.07981,-0.02163 0.226143,-0.09194 0.438997,-0.210932 0.106416,-0.05408 0.246097,-0.08112 0.419043,-0.08113 0.705047,5e-6 1.370193,0.16767 1.995441,0.502994 0.718348,0.400234 1.077528,0.903227 1.077538,1.508979 M 50.47871,75.695668 c -9e-6,-0.129797 -0.106433,-0.259601 -0.319271,-0.389415 -0.199553,-0.129795 -0.392445,-0.194698 -0.578678,-0.194707 -0.133037,9e-6 -0.272718,0.05409 -0.419043,0.162257 -0.133036,0.108178 -0.199551,0.216349 -0.199543,0.324511 -8e-6,0.108179 0.05985,0.248801 0.179589,0.421865 0.159628,0.205532 0.352521,0.308294 0.578678,0.308287 0.146324,7e-6 0.305959,-0.0703 0.478906,-0.210933 0.186233,-0.151431 0.279353,-0.292053 0.279362,-0.421865 m 0.618586,6.052143 c -9e-6,-0.227156 -0.119735,-0.421863 -0.35918,-0.584122 -0.23946,-0.162252 -0.485565,-0.24338 -0.738312,-0.243383 -0.239461,3e-6 -0.545428,0.102765 -0.917903,0.308286 -0.372489,0.205526 -0.558731,0.416459 -0.558724,0.632798 -7e-6,0.292063 0.139675,0.535445 0.419043,0.730151 0.279355,0.183891 0.591973,0.275836 0.937857,0.275835 0.319262,1e-6 0.598624,-0.118987 0.838086,-0.356963 0.252746,-0.248791 0.379124,-0.502991 0.379133,-0.762602"
       id="text13779"
       inkscape:connector-curvature="0" />
    <path
       style="color:#000000;clip-rule:nonzero;display:inline;overflow:visible;visibility:visible;opacity:1;isolation:auto;mix-blend-mode:normal;color-interpolation:sRGB;color-interpolation-filters:linearRGB;solid-color:#000000;solid-opacity:1;fill:#e9f0fb;fill-opacity:1;fill-rule:nonzero;stroke:none;stroke-width:1.18700004;stroke-linecap:butt;stroke-linejoin:miter;stroke-miterlimit:4;stroke-dasharray:none;stroke-dashoffset:0;stroke-opacity:1;marker:none;color-rendering:auto;image-rendering:auto;shape-rendering:auto;text-rendering:auto;enable-background:accumulate"
       d="m 28.258107,41.683245 c -0.711211,-0.07895 -2.41896,-0.148662 -3.794998,-0.154914 l -2.501887,-0.01137 0,-0.67071 c 0,-0.526066 0.04244,-0.692075 0.196778,-0.769781 0.233705,-0.117664 2.109994,-0.404495 2.476939,-0.378654 0.184247,0.01297 0.289245,-0.06849 0.374007,-0.290184 0.140486,-0.367441 0.887317,-5.097067 0.887619,-5.621221 2.47e-4,-0.428552 -0.141722,-0.458668 -0.863235,-0.18312 -0.262574,0.100278 -0.557152,0.151723 -0.654617,0.114322 -0.09746,-0.0374 -0.303154,-0.334497 -0.457086,-0.660213 l -0.279878,-0.59221 0.705847,-0.65829 c 1.254674,-1.170138 1.392453,-1.22027 3.532116,-1.285171 l 1.852456,-0.05619 -0.0795,0.325159 c -0.04373,0.178837 -0.14652,0.517954 -0.228431,0.753594 -0.08191,0.235639 -0.305623,1.247638 -0.497136,2.248887 -0.191514,1.001249 -0.54803,2.680492 -0.792259,3.731652 -0.386119,1.661858 -0.422263,1.927132 -0.27704,2.033321 0.09186,0.06717 0.725251,0.182669 1.407545,0.25667 0.682293,0.074 1.318192,0.164348 1.413108,0.200771 0.206544,0.07926 0.157022,0.29733 -0.264345,1.164034 -0.352228,0.724494 -0.292317,0.710499 -2.156002,0.503615 z"
       id="path4159"
       inkscape:connector-curvature="0" />
    <path
       style="color:#000000;clip-rule:nonzero;display:inline;overflow:visible;visibility:visible;opacity:1;isolation:auto;mix-blend-mode:normal;color-interpolation:sRGB;color-interpolation-filters:linearRGB;solid-color:#000000;solid-opacity:1;fill:#e9f0fb;fill-opacity:1;fill-rule:nonzero;stroke:none;stroke-width:1.18700004;stroke-linecap:butt;stroke-linejoin:miter;stroke-miterlimit:4;stroke-dasharray:none;stroke-dashoffset:0;stroke-opacity:1;marker:none;color-rendering:auto;image-rendering:auto;shape-rendering:auto;text-rendering:auto;enable-background:accumulate"
       d="m 26.054271,63.730349 c 0.137193,-0.674238 0.6538,-4.607645 0.656939,-5.001889 0.0057,-0.715376 -0.147858,-0.798056 -1.312893,-0.706917 -0.556719,0.04355 -1.456338,0.19115 -1.999154,0.327997 -0.940857,0.237196 -0.989947,0.239333 -1.05138,0.04577 -0.100147,-0.315535 0.838833,-4.959558 1.084435,-5.363419 0.216096,-0.355341 0.910321,-0.728507 2.050084,-1.101979 0.752697,-0.24664 0.825899,-0.117059 0.429652,0.76056 -0.605931,1.342034 -1.040492,2.89113 -1.004164,3.579578 l 0.03321,0.6293 0.899555,0 c 1.500851,0 1.745224,-0.199702 2.296556,-1.876746 0.310635,-0.944893 1.015219,-2.046619 1.496161,-2.33948 0.542917,-0.330599 2.22544,-0.916059 2.521316,-0.87733 0.24353,0.03188 0.224865,0.08149 -0.372163,0.989337 -0.804123,1.222753 -1.046104,1.769781 -1.679664,3.797087 -0.482471,1.543841 -0.522649,1.767667 -0.590945,3.292033 -0.05643,1.259467 -0.117314,1.702777 -0.264779,1.927837 -0.244816,0.373637 -2.777503,2.221021 -3.049972,2.224701 -0.165077,0.0022 -0.193283,-0.0583 -0.142792,-0.306443 z"
       id="path4161"
       inkscape:connector-curvature="0" />
    <path
       style="color:#000000;clip-rule:nonzero;display:inline;overflow:visible;visibility:visible;opacity:1;isolation:auto;mix-blend-mode:normal;color-interpolation:sRGB;color-interpolation-filters:linearRGB;solid-color:#000000;solid-opacity:1;fill:#e9f0fb;fill-opacity:1;fill-rule:nonzero;stroke:none;stroke-width:1.18700004;stroke-linecap:butt;stroke-linejoin:miter;stroke-miterlimit:4;stroke-dasharray:none;stroke-dashoffset:0;stroke-opacity:1;marker:none;color-rendering:auto;image-rendering:auto;shape-rendering:auto;text-rendering:auto;enable-background:accumulate"
       d="m 23.689667,84.645001 c 0.47453,-0.917097 2.697695,-3.655256 4.409268,-5.430669 2.593916,-2.690667 2.450162,-2.517107 2.306762,-2.785052 -0.204748,-0.382576 -1.669292,-0.438315 -3.571773,-0.135938 -0.855576,0.135984 -1.822171,0.336473 -2.147989,0.445532 l -0.592396,0.198288 -0.07844,-0.292467 c -0.04314,-0.160856 -0.08016,-1.015297 -0.08227,-1.898757 -0.003,-1.276759 0.02925,-1.626767 0.157439,-1.706103 0.465625,-0.288184 2.089937,-0.363933 5.490539,-0.256046 1.900903,0.06031 3.542308,0.14601 3.647568,0.19045 0.250023,0.105559 0.360579,0.807985 0.366316,2.327427 0.0044,1.157525 -0.007,1.213991 -0.332809,1.658478 -0.403883,0.550935 -1.472506,2.048899 -2.68415,3.762564 -0.486772,0.688457 -1.160634,1.820989 -1.49747,2.516739 -0.336836,0.695749 -0.649163,1.264999 -0.694061,1.264999 -0.0449,0 -1.063939,0.1012 -2.264536,0.224888 -2.821345,0.290664 -2.629472,0.297317 -2.431997,-0.08433 z"
       id="path4163"
       inkscape:connector-curvature="0" />
    <path
       style="color:#000000;clip-rule:nonzero;display:inline;overflow:visible;visibility:visible;opacity:1;isolation:auto;mix-blend-mode:normal;color-interpolation:sRGB;color-interpolation-filters:linearRGB;solid-color:#000000;solid-opacity:1;fill:#e9f0fb;fill-opacity:1;fill-rule:nonzero;stroke:none;stroke-width:1.18700004;stroke-linecap:butt;stroke-linejoin:miter;stroke-miterlimit:4;stroke-dasharray:none;stroke-dashoffset:0;stroke-opacity:1;marker:none;color-rendering:auto;image-rendering:auto;shape-rendering:auto;text-rendering:auto;enable-background:accumulate"
       d="m 48.16076,85.215315 c -0.456651,-0.0741 -2.043921,-0.607086 -2.529998,-0.849541 -0.677774,-0.338073 -1.161003,-0.734028 -1.355989,-1.111089 -0.165218,-0.319495 -0.155524,-0.401547 0.171969,-1.455678 0.230634,-0.74236 0.461255,-1.247164 0.687486,-1.504827 0.374615,-0.426663 1.541276,-1.201402 2.070755,-1.375116 0.486567,-0.159635 0.509668,-0.533239 0.04774,-0.77211 -0.746615,-0.38609 -1.333763,-1.311054 -1.338384,-2.108427 -0.0028,-0.485563 0.332655,-1.223475 0.768901,-1.69131 0.404659,-0.433959 1.5251,-1.046441 2.256909,-1.233725 0.494791,-0.126626 0.758239,-0.129512 1.466746,-0.01607 1.430459,0.229042 2.500144,0.948776 2.999072,2.017917 0.495833,1.062511 0.339319,1.63395 -0.711374,2.597244 -0.796946,0.730654 -0.891349,1.057198 -0.305636,1.057198 0.928864,0 2.154746,0.885463 2.677098,1.933685 0.345927,0.694185 0.394332,1.694201 0.110917,2.291454 -0.345558,0.72821 -1.49196,1.540176 -2.593233,1.836719 -1.156778,0.311488 -3.575075,0.521264 -4.422982,0.383674 z m 2.710954,-1.112316 c 1.382349,-0.448981 2.334949,-2.093043 1.864768,-3.218344 -0.329208,-0.787905 -1.588794,-1.440206 -2.781025,-1.440206 -1.126768,0 -2.457073,0.788384 -2.91038,1.724791 -0.644758,1.331893 0.183758,2.777012 1.790349,3.122776 0.500949,0.107811 1.37107,0.02704 2.036288,-0.189017 z m 0.08563,-6.752591 c 0.728494,-0.363024 1.151632,-0.955049 1.224482,-1.713211 0.06558,-0.682556 -0.143167,-1.106267 -0.75337,-1.529138 -0.432916,-0.300011 -0.507919,-0.314445 -1.338255,-0.257532 -0.571744,0.03919 -1.041618,0.142929 -1.342414,0.296383 -0.556012,0.283656 -1.150754,1.101237 -1.229802,1.690584 -0.189028,1.409302 1.848605,2.30562 3.439359,1.512914 z"
       id="path4165"
       inkscape:connector-curvature="0" />
    <path
       style="color:#000000;clip-rule:nonzero;display:inline;overflow:visible;visibility:visible;opacity:1;isolation:auto;mix-blend-mode:normal;color-interpolation:sRGB;color-interpolation-filters:linearRGB;solid-color:#000000;solid-opacity:1;fill:#e9f0fb;fill-opacity:1;fill-rule:nonzero;stroke:none;stroke-width:1.18700004;stroke-linecap:butt;stroke-linejoin:miter;stroke-miterlimit:4;stroke-dasharray:none;stroke-dashoffset:0;stroke-opacity:1;marker:none;color-rendering:auto;image-rendering:auto;shape-rendering:auto;text-rendering:auto;enable-background:accumulate"
       d="m 47.896944,64.081001 c -1.4747,-0.316322 -2.461582,-0.794144 -2.920871,-1.414211 -0.273103,-0.368704 -0.385906,-1.407075 -0.19218,-1.769055 0.20859,-0.389753 0.790001,-0.568829 1.846832,-0.568829 l 0.950964,0 0.26354,0.477889 c 0.354867,0.643496 0.791496,0.790729 1.784485,0.601737 0.398042,-0.07576 0.832104,-0.196725 0.964583,-0.268816 1.47023,-0.80005 1.059927,-3.727899 -0.584473,-4.17069 -0.90241,-0.242993 -2.599854,0.238375 -3.566478,1.011397 l -0.424305,0.339322 -0.152667,-0.372863 c -0.524326,-1.280573 -1.422709,-3.960803 -1.371952,-4.093073 0.178947,-0.466328 1.704667,-0.977335 5.52167,-1.849363 1.422422,-0.324965 2.689326,-0.612745 2.815343,-0.639511 0.351581,-0.07468 0.812445,0.471556 1.054358,1.249661 0.117394,0.377596 0.180236,0.718542 0.139648,0.757659 -0.04059,0.03912 -0.605095,0.156567 -1.254462,0.260999 -1.025586,0.164936 -3.285869,0.641676 -4.651256,0.981045 -0.637192,0.158375 -1.014115,0.57618 -0.926966,1.027509 0.03802,0.196895 0.167486,0.439825 0.287704,0.539845 0.196387,0.163392 0.279119,0.165396 0.814883,0.01974 0.372505,-0.101271 1.208228,-0.168325 2.226748,-0.17866 1.469376,-0.01491 1.695768,0.0095 2.291709,0.246842 0.879558,0.350335 1.430368,0.870993 1.82467,1.724783 0.286372,0.620086 0.325174,0.831571 0.325174,1.772326 0,1.847836 -0.503542,2.525977 -2.670542,3.596532 -1.866398,0.92205 -2.762077,1.068292 -4.396159,0.717784 z"
       id="path4167"
       inkscape:connector-curvature="0" />
    <path
       style="color:#000000;clip-rule:nonzero;display:inline;overflow:visible;visibility:visible;opacity:1;isolation:auto;mix-blend-mode:normal;color-interpolation:sRGB;color-interpolation-filters:linearRGB;solid-color:#000000;solid-opacity:1;fill:#e9f0fb;fill-opacity:1;fill-rule:nonzero;stroke:none;stroke-width:1.18700004;stroke-linecap:butt;stroke-linejoin:miter;stroke-miterlimit:4;stroke-dasharray:none;stroke-dashoffset:0;stroke-opacity:1;marker:none;color-rendering:auto;image-rendering:auto;shape-rendering:auto;text-rendering:auto;enable-background:accumulate"
       d="m 45.715095,42.482593 c -0.355111,-0.129058 -0.06442,-2.967773 0.345923,-3.37812 0.08774,-0.08774 0.608726,-0.285619 1.157746,-0.439732 1.074969,-0.30175 3.199311,-1.462799 3.492223,-1.908658 0.229855,-0.349878 0.353215,-1.304588 0.251615,-1.947307 -0.237359,-1.501525 -1.025228,-2.061808 -2.372948,-1.68749 -0.720974,0.200245 -1.424174,1.288834 -1.670521,2.586051 -0.07595,0.399928 -0.172851,0.766211 -0.21534,0.813963 -0.108462,0.121895 -1.560338,-0.441374 -2.000697,-0.776189 -0.437561,-0.332687 -0.451026,-0.513846 -0.126273,-1.698821 0.278272,-1.015375 0.651392,-1.605057 1.474105,-2.329688 1.154531,-1.016892 2.598211,-1.520774 4.35872,-1.52131 1.010626,-3.07e-4 1.517522,0.166518 2.079257,0.684306 0.92774,0.855162 1.166138,1.95412 0.796982,3.673902 -0.355154,1.654549 -1.164064,2.791652 -3.364028,4.72889 -0.342815,0.301875 -0.399233,0.405034 -0.292109,0.534111 0.176541,0.212719 0.579381,0.197993 2.972164,-0.108647 1.11298,-0.142631 2.150279,-0.225728 2.30511,-0.184661 0.396655,0.105208 0.599981,0.76017 0.508357,1.637546 -0.03896,0.373045 -0.11632,0.751868 -0.171919,0.841829 -0.135928,0.219936 -1.119928,0.303041 -4.552703,0.384507 -1.546111,0.03669 -3.266509,0.08469 -3.823109,0.106657 -0.5566,0.02197 -1.075249,0.01696 -1.152555,-0.01114 l 0,5e-6 z"
       id="path4169"
       inkscape:connector-curvature="0" />
    <path
       style="color:#000000;clip-rule:nonzero;display:inline;overflow:visible;visibility:visible;opacity:1;isolation:auto;mix-blend-mode:normal;color-interpolation:sRGB;color-interpolation-filters:linearRGB;solid-color:#000000;solid-opacity:1;fill:#e9f0fb;fill-opacity:1;fill-rule:nonzero;stroke:none;stroke-width:1.18700004;stroke-linecap:butt;stroke-linejoin:miter;stroke-miterlimit:4;stroke-dasharray:none;stroke-dashoffset:0;stroke-opacity:1;marker:none;color-rendering:auto;image-rendering:auto;shape-rendering:auto;text-rendering:auto;enable-background:accumulate"
       d="m 68.119636,41.922038 c -0.979681,-0.129937 -1.497659,-0.371897 -2.005622,-0.936874 -0.279504,-0.310876 -0.593104,-0.787576 -0.696889,-1.059332 -0.177007,-0.463487 -0.176802,-0.529919 0.0033,-1.072179 0.226542,-0.682057 0.468074,-0.815028 1.390684,-0.765621 l 0.618312,0.03311 0.01066,0.562222 c 0.01267,0.668347 0.260197,1.089443 0.787458,1.339645 1.156088,0.5486 2.804398,-0.237158 2.804398,-1.336869 0,-0.676115 -0.523914,-1.190475 -1.542461,-1.514336 -0.480165,-0.152674 -0.863849,-0.338203 -0.863849,-0.41771 0,-0.211913 0.37763,-0.375839 0.865806,-0.375839 1.010614,0 1.720415,-0.835489 1.720415,-2.025056 0,-1.429327 -1.2936,-2.20142 -2.653567,-1.583797 -0.487773,0.221519 -0.808967,0.601151 -1.055487,1.247521 -0.08255,0.216455 -0.189886,0.438922 -0.238514,0.494371 -0.0511,0.05827 -0.515222,-0.0092 -1.099739,-0.159916 l -1.011323,-0.26073 0.05915,-0.346085 c 0.17271,-1.010463 1.389369,-2.716887 2.326907,-3.263603 0.593038,-0.345824 1.817276,-0.560301 2.718062,-0.476184 2.05108,0.191533 3.705661,1.633698 3.700052,3.225036 -0.0027,0.757874 -0.16642,1.080581 -1.114237,2.195868 -0.402464,0.473576 -0.731753,0.90451 -0.731753,0.957631 0,0.05312 0.228026,0.25347 0.506725,0.44522 1.054138,0.725267 1.297241,2.080896 0.605801,3.378171 -0.412955,0.774782 -0.705993,1.002058 -1.73097,1.34252 -0.56765,0.188553 -2.550598,0.481872 -2.923554,0.432455 -0.06184,-0.0082 -0.264244,-0.03503 -0.449777,-0.05964 z"
       id="path4171"
       inkscape:connector-curvature="0" />
    <path
       style="color:#000000;clip-rule:nonzero;display:inline;overflow:visible;visibility:visible;opacity:1;isolation:auto;mix-blend-mode:normal;color-interpolation:sRGB;color-interpolation-filters:linearRGB;solid-color:#000000;solid-opacity:1;fill:#e9f0fb;fill-opacity:1;fill-rule:nonzero;stroke:none;stroke-width:1.18700004;stroke-linecap:butt;stroke-linejoin:miter;stroke-miterlimit:4;stroke-dasharray:none;stroke-dashoffset:0;stroke-opacity:1;marker:none;color-rendering:auto;image-rendering:auto;shape-rendering:auto;text-rendering:auto;enable-background:accumulate"
       d="m 69.750079,76.57705 c -0.980626,-0.177698 -1.258879,-0.305478 -1.8483,-0.848789 -0.330947,-0.305056 -0.558223,-0.639671 -0.670385,-0.986999 -0.225041,-0.696879 -0.517313,-2.298041 -0.517313,-2.834011 0,-0.581651 0.505552,-2.880474 0.794911,-3.614583 0.454309,-1.152591 1.54274,-3.299741 1.781698,-3.51476 0.238893,-0.21496 0.252055,-0.214954 1.154419,5.7e-4 l 0.91277,0.218009 -0.67665,0.842764 c -0.716203,0.892025 -1.16576,1.700812 -1.717739,3.090338 -0.380854,0.958742 -0.417964,1.312845 -0.160023,1.526918 0.150907,0.125241 0.333923,0.06952 1.208777,-0.367997 1.189968,-0.595112 1.839591,-0.7154 2.926066,-0.541809 1.716694,0.274284 2.658876,1.17096 2.658876,2.530454 0,0.721903 -0.393127,2.05851 -0.75933,2.581675 -0.428349,0.611947 -1.602302,1.367874 -2.612159,1.682008 -1.121432,0.348843 -1.601359,0.394636 -2.475618,0.236212 z m 2.505499,-1.334892 c 0.969482,-0.413409 1.879831,-1.492579 1.879831,-2.228438 0,-0.80235 -0.567719,-1.603553 -1.375366,-1.94101 -0.527663,-0.220472 -2.090969,-0.232156 -2.600087,-0.01943 -0.523702,0.218817 -1.172549,0.818455 -1.428501,1.320162 -0.408066,0.799876 -0.256125,1.973946 0.32332,2.498336 0.52908,0.478811 2.430542,0.69884 3.200803,0.370383 z"
       id="path4173"
       inkscape:connector-curvature="0" />
  </g>
</svg>
