<?xml version="1.0" encoding="UTF-8" standalone="no"?>
<!-- Created with Inkscape (http://www.inkscape.org/) -->

<svg
   width="110.86214"
   height="99.799675"
   viewBox="0 0 110.86214 99.799678"
   version="1.1"
   id="svg1059"
   xmlns="http://www.w3.org/2000/svg"
   xmlns:svg="http://www.w3.org/2000/svg"
   xmlns:rdf="http://www.w3.org/1999/02/22-rdf-syntax-ns#"
   xmlns:cc="http://creativecommons.org/ns#"
   xmlns:dc="http://purl.org/dc/elements/1.1/">
  <defs
     id="defs1053" />
  <metadata
     id="metadata1056">
    <rdf:RDF>
      <cc:Work
         rdf:about="">
        <dc:format>image/svg+xml</dc:format>
        <dc:type
           rdf:resource="http://purl.org/dc/dcmitype/StillImage" />
      </cc:Work>
    </rdf:RDF>
  </metadata>
  <g
     id="layer10"
     transform="translate(-72.821418,-63.869263)"
     style="display:inline">
    <path
       style="display:inline;fill:#4136e7;fill-opacity:1;fill-rule:evenodd;stroke:#505050;stroke-width:0.525892;stroke-linecap:round;stroke-linejoin:round;stroke-miterlimit:4;stroke-dasharray:none;stroke-opacity:1"
       class="polygon"
       d="m 183.37762,103.3557 0.004,1.16693 0.005,1.7614 0.006,1.96181 0.005,1.81152 0.006,2.06331 0.005,1.65922 0.006,1.96181 0.006,1.95044 -0.21174,0.2271 -0.0783,1.0988 -0.0602,1.44615 -0.40612,1.49623 -0.71097,1.10214 -0.25852,1.05003 -0.19435,0.60115 -0.26586,0.32732 -0.0602,0.39408 -0.14027,0.55442 -0.22712,0.3607 -0.177,0.18701 -0.71433,0.21376 -1.26283,1.05939 -0.10821,0.8463 -1.43773,-0.23379 -1.52895,-0.24046 h -0.20573 l -0.12626,0.11354 -0.0668,0.44755 -2.08022,0.0734 -1.79576,0.0668 -2.22177,0.0734 -1.52836,0.0669 -1.9387,0.10023 -1.79641,0.0935 -1.19504,0.97655 -1.07697,0.92979 h -0.0841 l -1.52836,0.18035 -1.90795,-0.16031 -0.98046,-0.006 -0.38405,0.10691 -0.0748,0.34735 -1.40372,-0.48762 -1.62461,-0.50097 -1.1324,0.31394 -0.17967,-0.10691 -0.14829,-0.20707 -0.54773,-0.12023 -0.86789,0.0668 -0.62787,0.14696 -0.98531,0.73676 -0.74298,0.64124 -0.20307,0.14694 -1.03813,0.38742 -1.92821,0.90509 -1.09324,0.66129 -0.25183,0.12024 -0.48561,0.15362 h -0.74825 l -0.62321,0.16699 -0.56175,1.74939 -0.37473,0.17366 -2.29772,-0.70603 -0.46557,0.10682 -0.39942,0.20707 -1.28343,1.02799 -0.63524,0.8216 -0.34666,1.09545 0.0468,0.33399 0.006,0.38073 -0.22511,0.20707 -0.30992,0.0734 h -0.27655 l -1.06714,-0.2271 -0.33531,0.0935 -0.14361,0.54104 0.0201,1.17964 -0.23379,0.80156 -0.63456,0.24717 -0.48894,0.31386 -0.38542,0.0936 -0.32129,-0.0799 -1.85486,-1.19756 -0.62721,-0.19374 -0.69376,0.13358 -0.66728,0.50769 -0.30191,0.33394 -0.41748,0.39411 -0.46758,0.52094 0.12358,0.44754 0.33131,0.51443 0.23645,0.64116 -0.0134,0.57449 -1.69336,0.81155 0.13827,0.28051 0.25316,0.32732 0.002,0.58784 -0.0468,1.03864 -0.34201,0.37412 -0.44218,0.36739 -0.2732,0.47424 -0.26918,0.23371 -0.4816,0.29397 -0.65861,0.29387 -1.14255,0.26053 -0.91452,0.17365 -0.34464,0.16702 -0.48562,0.3473 -0.38743,0.41409 -0.0929,0.44753 0.0768,0.51443 0.13492,0.42082 0.17034,0.28714 0.10286,0.36076 -0.13893,0.97921 -0.33131,1.13487 -0.31795,0.50759 -0.51299,0.28062 -0.44286,0.30723 0.14629,0.7435 0.0768,1.06672 -0.12424,0.851 -0.0201,0.52768 -0.18704,0.54766 -0.1102,0.38075 -0.22111,-0.0936 -0.91977,0.0673 -0.99901,0.29387 -0.34934,0.23381 -0.0761,0.32069 -0.2211,0.21372 -0.32062,0.24044 -0.30659,0.29387 -0.55175,-0.0663 -0.53236,-0.20037 -0.2772,-0.19373 -0.0201,-0.12022 0.17567,-0.28725 0.14962,-0.31385 0.0134,-0.20709 -0.18102,-0.5077 -0.14696,-0.54766 0.0602,-0.26053 -0.13091,-0.80419 -0.0728,-0.0663 -0.69795,0.20699 -0.25716,0.0673 -0.14495,0.0862 -0.0468,0.15367 0.16765,0.50759 -0.10954,0.0873 h -0.39209 l -0.54772,-0.16692 -0.5985,-0.46762 -0.14829,0.15366 -0.0668,0.37402 -0.0402,0.44091 0.15162,0.80019 -0.15963,0.28724 -0.40079,-0.0673 -0.53703,9.5e-4 -0.46892,0.0799 h -0.3106 l -0.19503,0.28724 -0.0822,0.32059 0.18638,0.35403 -0.0266,0.15366 -0.14228,0.14031 -0.18435,0.0799 -0.15163,-0.0105 -0.43484,-0.3941 -0.517,-0.14694 -1.20808,-0.22718 -0.14628,-0.54104 -0.1984,-0.0105 -0.2792,-0.28713 -0.27653,-0.37412 H 104.808 l -0.19571,0.10686 -0.66128,-0.0663 -0.58714,0.56776 -0.43485,0.70606 -0.46692,0.34057 -0.51366,0.14704 -0.19838,0.0105 0.10823,-0.44753 -0.0748,-0.32731 -0.14426,-0.28725 -1.4977,-0.77548 -0.23513,-0.32069 -0.23312,-0.87897 -0.15096,-0.88108 0.0134,-0.51432 0.10213,-0.46089 -0.04,-0.36066 -0.165,-0.27389 -0.4482,-0.26052 -0.4689,-0.12695 -0.59316,0.3474 -0.28522,0.0673 H 97.3702 l -0.13694,-0.12695 0.0201,-0.17365 0.64526,-0.94314 0.31394,-0.3941 0.3794,-0.3006 0.25516,-0.16029 0.16432,-0.23382 0.0134,-0.18038 -0.0602,-0.13357 -0.42216,-0.17365 -0.65527,-0.4408 -0.35001,-0.0673 -0.29257,-0.20047 -0.31061,-0.68597 -0.14495,-0.13358 -0.31127,-0.0736 -0.28254,-0.16703 0.0134,-0.89433 0.0134,-0.77085 -0.63855,-1.24247 -0.24715,-0.78211 -0.32129,-0.80356 -0.29457,-0.38075 -0.517,-0.32069 -0.63523,-0.22035 -0.56444,-0.0673 -0.4355,0.0736 -0.20174,0.0999 0.0134,0.14694 0.35269,0.50759 0.0602,0.28062 -0.0602,0.27378 -0.11957,0.18038 h -0.31326 l -0.5464,0.16029 -0.67417,0.30733 -0.47159,0.26042 -0.37672,0.67199 -0.26252,0.0873 -0.44552,-0.0873 -1.26874,-0.49424 -1.04495,-0.40746 -0.71986,-0.23381 -0.43418,0.14693 -0.21976,0.0736 -0.62186,0.27388 -0.82615,0.9912 -0.19704,0.32732 -0.16499,0.10697 -0.22442,0.17365 h -0.21309 l -0.17167,-0.12022 -0.0535,-0.0736 -0.42414,-0.71479 -0.46557,-0.78547 -0.38075,-0.35403 h -0.47611 l -0.40945,0.24717 -0.42349,0.50769 -0.53704,0.46752 -0.34066,0.14031 -0.29723,-0.0736 -0.73124,-0.59457 -0.51966,-0.42071 -0.0668,-0.21383 0.18435,-0.32059 0.18036,-0.48098 0.19704,-0.38737 0.1917,-0.18038 0.0468,-0.50096 -0.44354,-0.35403 -0.0133,-0.17365 0.04,-0.46752 0.19839,-0.98794 -0.0201,-0.37412 0.18101,-0.73541 -0.29056,-0.33394 -0.0682,-0.24717 -0.32527,-0.3941 -0.37407,-0.5544 -0.08618,-0.44753 -0.131584,-0.35403 -0.358029,-0.53431 -0.263844,-0.0799 -0.559745,-0.0799 -0.09352,0.18028 -0.208414,0.26715 -0.189025,0.0736 -0.307929,-0.32721 -0.116219,-0.28061 0.004,-0.2538 -0.417471,-0.44752 -0.648592,-0.81626 0.06747,-0.67329 0.400778,-0.36071 0.118894,-0.27387 0.03338,-0.30725 -0.181694,-0.36737 -0.213734,-0.2939 0.06014,-0.64793 -0.05349,-0.89974 -0.328635,-0.45422 -0.29725,-0.32731 -0.416134,-0.35401 -0.355355,-0.54774 0.144276,-0.75144 0.135597,-0.51434 -0.62855,-1.07474 1.175153,0.4275 0.154292,-0.14029 0.400778,-0.2605 0.539049,-0.54773 0.45488,-0.7234 0.2044,-0.89639 0.0902,-0.77151 0.202391,-0.6546 0.255838,-0.55441 0.563093,-0.58112 0.528351,-0.40746 0.627884,-0.4275 0.31728,0.0734 0.5985,0.59448 1.31114,1.19032 1.08148,0.90641 0.39544,0.48093 0.35135,0.004 0.5377,-0.87638 0.55508,-0.75613 0.23647,-0.18702 0.73481,-0.0802 h 0.62388 0.54306 l 1.00001,0.14695 0.45688,0.13359 0.42882,0.0802 1.25665,0.0669 1.2446,-0.18703 1.18397,-0.24047 0.87442,-0.14027 0.0468,-0.36071 -0.0468,-0.42081 0.14094,-0.32062 0.27521,-0.30059 0.23244,-0.0669 0.10087,1.01331 0.27854,0.15362 0.78085,0.0668 h 1.26737 1.36239 1.3623 1.3623 1.36237 1.3623 1.36205 1.36271 l 1.36197,-6.7e-4 h 1.36231 1.36238 1.3623 1.36237 1.36204 1.36231 l 1.36237,-6.7e-4 h 1.3623 1.41195 l 0.38006,-1.9578 0.34734,-1.79347 0.29191,-1.50292 -1.00001,-1.06272 -0.79514,-0.84565 -0.18437,-1.60978 -0.19037,-1.66054 -0.18969,-1.66122 -0.19037,-1.66123 -0.19038,-1.66053 -0.19037,-1.66124 -0.19035,-1.66121 -0.19037,-1.66055 -0.19038,-1.66122 -0.18971,-1.66054 -0.19035,-1.66124 -0.19037,-1.66121 -0.19037,-1.66055 -0.19037,-1.66122 -0.19037,-1.66121 -0.19037,-1.66057 -0.1897,-1.66122 -0.19036,-1.6612 -0.19038,-1.66056 -0.19037,-1.66121 -0.19036,-1.66123 -0.19038,-1.66055 -0.19037,-1.66121 -0.1897,-1.66056 -0.19036,-1.661206 -0.19037,-1.660567 -0.19038,-1.661219 -0.19036,-1.661208 -0.19036,-1.661219 -0.19036,-1.660556 -0.18971,-1.661219 -0.19037,-1.661229 -0.1897,-1.660535 -0.17835,-1.521615 2.04986,-0.001 2.18682,-0.001 2.13114,-9.99e-4 3.12518,-0.001 2.33979,-9.99e-4 2.04144,1.276466 1.84797,1.209004 2.18785,1.429437 2.18717,1.430111 2.1875,1.430762 2.1875,1.43011 2.18719,1.430111 2.18783,1.4301 2.1875,1.430099 2.18751,1.430773 2.18718,1.430111 2.1875,1.429427 2.1875,1.43078 2.18717,1.4301 2.18785,1.4301 2.18717,1.43011 2.18717,1.4301 2.18784,1.43078 0.97589,0.64125 0.0915,0.26718 0.0908,0.54105 -0.0602,0.60784 0.0134,0.49429 0.28856,0.33397 0.54373,0.36071 2.14022,1.05537 0.16965,0.20708 0.0755,0.43417 0.25449,0.54104 0.45288,0.31396 0.52902,0.23377 0.64391,0.16031 1.94056,0.16701 0.4108,0.25381 0.83696,0.9779 0.45487,0.19371 1.29285,0.28054 0.93608,0.1603 0.38607,0.0935 0.84671,0.26051 0.92039,0.44085 0.49028,0.40747 -0.002,0.1269 -0.004,0.34734 -0.006,1.05471 0.16966,0.58112 0.19236,0.42082 -0.006,0.25383 -0.23245,0.18035 -0.18169,0.22042 -0.10086,0.29391 -0.26319,0.37406 -0.21241,0.41413 0.0915,0.31394 0.36403,0.20039 0.54573,0.40078 0.45087,0.16699 h 0.22043 0.29656 l 0.25316,-0.0668 1.63471,-0.30725 1.514,-0.28055 z"
       id="path2468-2" />
  </g>
</svg>
