<?xml version="1.0" encoding="UTF-8" standalone="no"?>
<!-- Created with Inkscape (http://www.inkscape.org/) -->

<svg
   width="82.287224"
   height="84.37719"
   viewBox="0 0 82.287224 84.377193"
   version="1.1"
   id="svg1059"
   xmlns="http://www.w3.org/2000/svg"
   xmlns:svg="http://www.w3.org/2000/svg"
   xmlns:rdf="http://www.w3.org/1999/02/22-rdf-syntax-ns#"
   xmlns:cc="http://creativecommons.org/ns#"
   xmlns:dc="http://purl.org/dc/elements/1.1/">
  <defs
     id="defs1053" />
  <metadata
     id="metadata1056">
    <rdf:RDF>
      <cc:Work
         rdf:about="">
        <dc:format>image/svg+xml</dc:format>
        <dc:type
           rdf:resource="http://purl.org/dc/dcmitype/StillImage" />
      </cc:Work>
    </rdf:RDF>
  </metadata>
  <g
     id="layer9"
     transform="translate(-40.884603,-48.584423)"
     style="display:inline">
    <path
       style="display:inline;fill:#3661e7;fill-opacity:1;fill-rule:nonzero;stroke:#505050;stroke-width:0.525892;stroke-linecap:round;stroke-linejoin:round;stroke-miterlimit:4;stroke-dasharray:none;stroke-opacity:1"
       class="polygon"
       d="m 45.771166,99.59041 -0.428826,0.64791 -0.189703,-0.24715 -0.07344,-0.42749 0.379394,-0.61453 0.179691,-0.31393 0.331303,-0.11355 z m 68.162354,-10.54779 0.19037,1.66122 0.19037,1.66056 0.18969,1.66121 0.19038,1.66122 0.19037,1.66056 0.19036,1.66121 0.19038,1.66122 0.19037,1.66055 0.19037,1.66121 0.18969,1.66124 0.19037,1.66054 0.19038,1.66122 0.19036,1.66055 0.19037,1.66121 0.19036,1.66124 0.19038,1.66054 0.1897,1.66122 0.19037,1.66123 0.18436,1.60911 0.79513,0.84563 1.00002,1.06341 -0.2919,1.50223 -0.34735,1.79348 -0.38007,1.9578 h -1.41194 -1.36229 l -1.36238,6.6e-4 h -1.36231 -1.36204 -1.36237 -1.36231 -1.36236 -1.36231 l -1.36198,6.8e-4 h -1.3631 -1.36198 -1.36237 -1.36232 -1.36236 -1.3623 -1.36239 -1.26745 l -0.78079,-0.0668 -0.2792,-0.15362 -0.10086,-1.01331 -0.23245,0.0669 -0.27521,0.30059 -0.14094,0.32061 0.0468,0.42082 -0.0468,0.35402 -0.87443,0.14028 -1.18396,0.24046 -1.24462,0.18703 -1.25664,-0.0668 -0.42881,-0.0802 -0.45688,-0.1336 -1.00001,-0.14694 h -0.54306 -0.62387 l -0.73482,0.0801 -0.23646,0.18704 -0.55508,0.75613 -0.53771,0.87703 -0.35134,-0.004 -0.39545,-0.48091 -1.08149,-0.90644 -1.31114,-1.18963 -0.59849,-0.59449 -0.31728,-0.0734 -0.627889,0.42749 -0.529024,0.40747 -0.563094,0.58111 -0.255829,0.55442 -0.2024,0.6546 -0.0902,0.77083 -0.204401,0.89707 -0.45488,0.72273 -0.53904,0.54774 -0.400777,0.26049 -0.154302,0.14028 -1.175071,-0.4275 -0.146287,-0.0669 -0.709108,-0.48093 -0.342,-0.57445 -0.559081,-0.42749 -0.77524,-0.28722 -0.504979,-0.32732 -0.234459,-0.36736 -0.286549,-0.24715 -0.30259,-0.12691 -0.02665,-0.1336 0.0715,-0.18034 -0.0721,-0.34067 -0.455553,-0.75212 -0.424148,-0.34733 -0.362042,0.0669 -0.205728,-0.0935 -0.124244,-0.16699 -0.04676,-0.24715 -0.247824,-0.20708 -0.428161,-0.0935 -0.344664,-0.55442 -0.260504,-1.02465 -0.337323,-0.79954 -0.414806,-0.57446 -0.29657,-0.21374 -0.219758,-0.0668 -0.07484,-0.0868 -0.06015,-0.167 -0.323957,-0.0668 -0.454218,0.17368 -0.408122,-0.0668 -0.202393,-0.28054 h -0.278532 l -0.355365,0.2271 -0.391426,-0.0669 -0.428825,-0.36737 -0.237795,-0.3607 -0.04676,-0.3607 -0.738764,-0.7194 -1.432452,-1.07808 -1.56061,-0.50765 -1.689816,0.0668 -0.947767,-0.0668 -0.2064,-0.16699 H 55.00228 l -0.209067,0.1937 -0.222427,0.0669 -0.235796,-0.10693 -0.147616,0.0802 -0.06015,0.27387 -0.595146,0.14028 -1.131799,0.004 -0.91323,0.167 -0.69535,0.33398 -0.984637,0.14694 -1.274275,-0.0668 -0.768422,-0.12024 -0.262505,-0.20038 -0.368045,-0.0668 -0.472253,0.10681 -0.42282,0.53437 -0.37272,0.96321 -0.3086,0.54772 -0.24514,0.1336 -0.261176,0.71671 -0.146946,1.20168 -0.221768,0.52769 -0.0033,-2.99581 0.363367,-1.11817 0.118238,-0.98391 0.781113,-2.1702 0.929861,-1.77744 0.858797,-2.35991 0.324638,-2.28509 -0.109544,-2.23901 -0.255162,-1.99052 -0.434852,-1.31589 -0.420814,-1.90502 -0.619866,-1.00528 -1.137341,-0.87637 -0.25582,-0.51433 0.264503,-0.19371 0.691483,-0.13359 0.440846,-0.68399 -0.932474,0.26051 1.078631,-2.0974 0.335309,-1.4281 -0.05346,-0.93716 0.20506,-0.58112 -0.823599,-1.25509 -0.641242,-1.57974 -0.329973,-0.24714 -0.341994,-0.13359 -0.03337,0.37406 -0.185696,0.33398 -0.399439,-0.2004 -0.707046,-1.14889 -0.986637,-1.87029 -0.346669,-0.1937 -0.288566,0.25382 -0.18102,0.24714 -0.33264,1.56036 -0.106165,-0.62121 0.144278,-0.72941 0.24381,-0.89774 0.276535,-1.24775 0.856464,-0.001 1.531628,-0.001 1.531639,-0.002 1.531562,-0.002 1.531639,-0.002 1.531964,-0.002 1.531239,-0.002 1.531962,-0.001 1.531639,-0.002 1.531574,-0.002 1.531962,-10e-4 1.531639,-0.002 1.531558,-0.002 1.531639,-0.002 1.531963,-0.002 1.531573,-10e-4 1.531631,-0.002 1.01009,-6.7e-4 -0.06014,-0.88772 -0.04676,-0.70337 -0.06687,-0.94649 -0.06678,-0.94182 -0.06014,-0.94183 -0.06014,-0.88439 -0.06014,-0.88371 -0.0535,-0.82025 -0.05349,-0.7528 -0.08689,-0.43416 -0.324632,-0.859002 -0.0709,-0.427498 0.0881,-0.447534 0.216409,-0.427497 0.597164,-0.775491 0.905083,-0.594489 1.044623,-0.689339 0.796144,-0.527691 0.407456,-0.126908 1.245615,-0.180349 0.980101,-0.394104 0.953977,-0.387403 0.400105,-0.213754 0.04676,-0.727414 V 72.81446 71.904689 70.994927 70.085829 69.176751 68.266979 67.35788 66.448108 65.539031 64.629269 63.72017 62.810409 61.9013 60.991549 60.08245 59.172689 58.262917 57.468052 h 0.999661 1.244278 1.244619 1.24453 l 1.24461,-6.73e-4 h 1.24428 1.24461 1.24462 1.24461 1.24455 1.24427 1.24462 1.24462 1.24461 1.24455 1.24428 1.24427 1.35878 l 6.6e-4,-0.76147 v -1.093455 l -10e-4,-1.499571 -0.002,-1.506249 -10e-4,-1.323901 -0.002,-1.321892 -10e-4,-1.113492 1.256,0.738762 1.25598,0.738763 1.25604,0.738773 1.25636,0.738762 1.25598,0.738752 1.25602,0.738762 1.25638,0.738773 1.2563,0.738763 1.25603,0.738762 1.25603,0.738762 1.25631,0.738111 1.25602,0.739435 1.25605,0.738762 1.2563,0.738763 1.25602,0.738773 1.25604,0.738762 1.05244,0.621205 1.61613,0.996596 1.50619,0.929135 1.51561,0.933795 -2.33981,0.001 -3.12519,0.0021 -2.13113,0.001 -2.18684,6.83e-4 -2.04983,9.99e-4 0.17833,1.521616 0.18971,1.661219 0.19037,1.661218 0.1897,1.660546 0.19036,1.661219 0.19038,1.660556 0.19037,1.661219 0.19037,1.661229 0.19037,1.660535 0.19036,1.661221 0.18971,1.66123 0.19037,1.66054 0.19036,1.66123 0.19037,1.66121 z"
       id="path2482-1" />
  </g>
</svg>
