<?xml version="1.0" encoding="UTF-8" standalone="no"?>
<!-- Created with Inkscape (http://www.inkscape.org/) -->

<svg
   width="41.627434"
   height="29.483341"
   viewBox="0 0 41.627434 29.483342"
   version="1.1"
   id="svg1059"
   xmlns="http://www.w3.org/2000/svg"
   xmlns:svg="http://www.w3.org/2000/svg"
   xmlns:rdf="http://www.w3.org/1999/02/22-rdf-syntax-ns#"
   xmlns:cc="http://creativecommons.org/ns#"
   xmlns:dc="http://purl.org/dc/elements/1.1/">
  <defs
     id="defs1053" />
  <metadata
     id="metadata1056">
    <rdf:RDF>
      <cc:Work
         rdf:about="">
        <dc:format>image/svg+xml</dc:format>
        <dc:type
           rdf:resource="http://purl.org/dc/dcmitype/StillImage" />
      </cc:Work>
    </rdf:RDF>
  </metadata>
  <g
     id="layer14"
     transform="translate(-37.738,-119.61491)"
     style="display:inline">
    <path
       style="display:inline;fill:#e75436;fill-opacity:1;fill-rule:evenodd;stroke:#505050;stroke-width:0.525892;stroke-linecap:round;stroke-linejoin:round;stroke-miterlimit:4;stroke-dasharray:none;stroke-opacity:1"
       class="polygon"
       d="m 73.108956,132.30312 0.628546,1.07475 -0.135596,0.51433 -0.144284,0.75144 0.355356,0.54775 0.416811,0.35401 0.297245,0.32731 0.328629,0.45422 0.05354,0.89973 -0.06016,0.64792 0.213744,0.29391 0.181695,0.36737 -0.04018,0.30726 -0.118894,0.27388 -0.400782,0.36068 -0.06742,0.67331 0.648603,0.81625 0.417474,0.44088 -0.0042,0.25379 0.116233,0.28051 0.307931,0.32732 0.189026,-0.0736 0.207738,-0.26715 0.0935,-0.18038 0.559748,0.0799 0.26384,0.0799 0.358038,0.53441 0.131589,0.35403 0.08614,0.44754 0.374064,0.55439 0.3253,0.3941 0.0682,0.24717 0.29123,0.33395 -0.18103,0.7354 0.0201,0.37412 -0.19837,0.98784 -0.0468,0.46762 0.0134,0.17365 0.44353,0.35403 -0.0468,0.50096 -0.44952,-0.0873 -0.781186,-0.0663 -1.565832,0.26053 -0.537714,-0.10686 h -1.027382 l -0.731895,0.14031 -0.930197,0.32731 -0.720462,-0.0799 -0.389422,-0.2538 h -0.51366 l -0.57845,-0.13368 -0.615861,-0.24706 -0.563093,-0.12695 -0.607185,-0.45427 -0.283876,-0.0799 -0.199061,0.12032 -0.167654,0.15356 -0.175669,0.0936 -0.329976,-0.0799 -0.124237,-0.30722 0.102865,-0.3006 0.03334,-0.22708 -0.154286,-0.12022 -0.371395,-0.0673 -0.598497,9.5e-4 -0.965064,-0.0936 -0.221758,-0.0663 -2.160795,-0.0799 -2.241614,-0.0105 -1.899542,-0.0105 h -2.397525 l -1.686198,-0.0105 -1.573047,-0.0105 -1.214624,0.60783 -1.315013,0.66136 -1.76843,0.35403 -2.034876,-0.12695 -0.649924,0.0936 -0.673167,0.29387 -0.494295,0.21382 -0.70156,0.12685 -0.90569,-0.10686 -0.366704,0.0673 -0.227102,-0.3006 -0.260508,-0.4876 0.164312,-0.35403 0.552409,-0.22708 0.831009,-0.3006 0.434842,0.15356 h 0.254492 l 0.04676,-0.19364 -0.08143,-0.0999 -0.626542,-0.26052 -0.325966,-0.34068 -0.268521,0.20037 -0.23179,0.42082 -0.19304,0.12695 -0.28388,0.12022 -0.160974,-0.28725 -0.06945,-0.28051 0.12959,-0.21372 -0.06675,-1.20902 0.07743,-0.64128 -0.04006,-0.56112 0.392754,-0.37402 0.37272,-0.22708 h 1.455627 1.352889 1.304255 1.327777 l 0.132926,-1.12688 0.419474,-0.0863 0.629221,-0.11359 1.172202,-0.1402 1.306599,-0.13358 0.278543,-0.22045 0.216422,-0.37409 0.136934,-0.33397 0.27052,-0.14027 0.365375,0.11355 0.479596,0.17367 0.496294,0.27387 0.569767,0.25379 0.379404,0.1604 0.910563,0.394 1.558692,0.5545 1.281153,0.22035 1.548941,-0.40073 1.118025,-0.26053 0.13894,-0.48088 -0.174343,-0.47435 -0.832014,-0.43412 -1.132729,0.0668 -0.347341,0.11354 -0.52769,0.14697 -0.317271,0.0668 -0.533709,-0.10024 -0.678112,-0.37405 -0.426829,-0.37406 -0.596485,-0.17367 -0.70711,-0.18035 -1.133992,-0.77551 -0.592479,-0.14028 -0.560425,-0.0669 -1.076623,0.15364 -1.050896,0.41413 -0.55307,0.9405 h -1.051736 -2.233867 -2.051509 l -1.693682,0.0668 -0.170328,-0.68266 -0.401448,-0.54772 -0.651921,-0.46089 -0.143619,-0.43419 0.221097,-0.37404 0.629891,-0.30727 0.143608,-0.22043 H 43.80128 l -0.498962,0.20038 h -0.331312 l -0.04006,-0.59448 -0.553069,-0.76882 -0.623206,-1.30186 -0.705167,-0.53437 -0.592488,-1.05271 -0.618529,-0.40745 -0.569108,-0.18702 -0.485602,0.0668 -0.177682,0.48094 -0.605169,-0.69133 0.827131,-0.24716 1.76776,-0.86701 2.029002,-2.48482 1.821199,-2.9417 0.237125,-0.69467 0.221757,-0.52769 0.146955,-1.20168 0.261178,-0.71671 0.245139,-0.13359 0.308601,-0.54773 0.372719,-0.96254 0.422821,-0.53435 0.472242,-0.10692 0.368055,0.0669 0.262505,0.20038 0.768422,0.12024 1.274264,0.0668 0.984714,-0.14028 0.695348,-0.33398 0.91323,-0.16698 1.131735,-0.004 0.595147,-0.14028 0.06015,-0.27386 0.147614,-0.0802 0.236456,0.10692 0.222438,-0.0669 0.209067,-0.1937 h 0.207738 l 0.2064,0.16699 0.947767,0.0669 1.689805,-0.0669 1.560633,0.50765 1.432508,1.07875 0.7387,0.7194 0.0468,0.36069 0.237787,0.3607 0.428833,0.36739 0.391422,0.0669 0.355355,-0.22711 h 0.278544 l 0.202395,0.28055 0.408124,0.0668 0.454213,-0.17367 0.323959,0.0669 0.06016,0.167 0.07489,0.0869 0.21976,0.0669 0.296572,0.21374 0.414792,0.57443 0.337328,0.7989 0.260505,1.02531 0.34468,0.5544 0.428161,0.0935 0.24781,0.21375 0.0468,0.24047 0.124236,0.16698 0.20574,0.0935 0.362024,-0.0669 0.424163,0.34734 0.455538,0.75213 0.07215,0.34065 -0.07152,0.18035 0.02661,0.1336 0.302599,0.12692 0.286558,0.24714 0.234443,0.36737 0.504982,0.3273 0.775301,0.28723 0.559087,0.4275 0.341997,0.57443 0.70905,0.48094 z"
       id="path2562-3" />
  </g>
</svg>
