<?xml version="1.0" encoding="UTF-8" standalone="no"?>
<!-- Created with Inkscape (http://www.inkscape.org/) -->

<svg
   width="20.626608"
   height="21.203432"
   viewBox="0 0 20.626608 21.203433"
   version="1.1"
   id="svg1059"
   xmlns="http://www.w3.org/2000/svg"
   xmlns:svg="http://www.w3.org/2000/svg"
   xmlns:rdf="http://www.w3.org/1999/02/22-rdf-syntax-ns#"
   xmlns:cc="http://creativecommons.org/ns#"
   xmlns:dc="http://purl.org/dc/elements/1.1/">
  <defs
     id="defs1053" />
  <metadata
     id="metadata1056">
    <rdf:RDF>
      <cc:Work
         rdf:about="">
        <dc:format>image/svg+xml</dc:format>
        <dc:type
           rdf:resource="http://purl.org/dc/dcmitype/StillImage" />
      </cc:Work>
    </rdf:RDF>
  </metadata>
  <g
     id="layer19"
     transform="translate(-66.086326,-164.1124)"
     style="display:inline">
    <path
       style="display:inline;fill:#36e79d;fill-opacity:1;fill-rule:nonzero;stroke:#505050;stroke-width:0.525892;stroke-linecap:round;stroke-linejoin:round;stroke-miterlimit:4;stroke-dasharray:none;stroke-opacity:1"
       class="polygon"
       d="m 71.469368,181.54986 -0.09684,0.17365 -0.444863,-0.42744 -2.300656,-0.64127 0.649234,-0.34068 1.5975,-0.0999 0.474259,0.20047 0.211741,0.16692 0.07944,0.31396 z m 8.985552,-16.62554 0.43551,0.54777 0.45554,0.38074 0.56376,0.83291 0.65661,0.96985 0.70938,0.87572 0.45486,0.47424 0.0535,0.16703 -0.0333,0.187 -0.22443,0.44754 -0.1917,0.48098 0.0201,0.18028 0.13493,0.0936 0.7407,0.15367 0.0682,0.53441 9.4e-4,0.74277 0.36003,0.69334 0.34198,0.50759 -0.0201,0.18038 -0.83723,0.87035 -0.32665,0.86436 -0.16566,0.24043 -0.0668,0.19374 0.16766,0.0936 0.22911,-0.0673 0.32464,0.0736 h 0.30925 l 0.40948,-0.30733 0.68132,-0.79347 0.22977,-0.0936 0.51367,0.0673 -0.0134,0.2071 -0.19304,0.95649 -0.30192,0.82092 -0.19838,0.20036 -0.84958,0.21372 -0.36136,0.36076 -0.31195,1.16685 -0.19972,0.91579 -0.29257,0.15367 -1.24754,1.32388 -0.81605,0.50096 -0.56911,0.42755 -0.53904,0.56102 -0.67838,0.54777 -0.72795,0.92105 -0.52034,0.95859 -0.35402,0.3006 -0.26718,-0.26725 -1.242011,-0.94577 -1.307531,-0.63454 -2.788337,-1.05746 -0.928535,-0.3005 0.03338,-0.37412 0.32062,-0.6846 -0.519008,-0.8063 0.201727,-0.58774 -0.201727,-7.3e-4 -0.39944,0.35403 -0.850921,-0.0999 -0.563094,-0.50097 -0.460894,-0.187 -0.201052,-0.2538 -0.295238,-1.32598 -0.212406,-0.6011 -0.426823,-0.37412 -0.8562,-0.0936 -0.35268,-0.81018 -0.474258,-0.62792 0.07683,-0.38737 h 0.386749 l 0.303254,0.28051 0.487622,0.11359 0.606507,-0.67934 0.543052,-0.36739 0.126244,-0.32059 -0.06678,-0.18038 -0.329973,0.27389 -0.900819,-0.0736 -0.223096,0.24717 -0.402115,0.0799 -0.311268,-0.79494 0.01338,-0.46752 0.128246,-0.51432 0.907688,-0.0862 0.07753,-0.16702 -0.629213,-0.11349 -0.787658,-0.6012 -0.140947,-0.41419 0.390089,-0.1402 0.373394,0.0673 0.323959,0.0873 0.351341,-0.14694 0.329319,-0.22718 0.196376,-0.28714 0.265836,-0.77758 0.852922,-0.26042 0.502977,-0.47425 0.476923,-0.73877 0.219094,-0.52106 0.19705,-0.26053 0.124233,-0.22708 0.09222,-0.24716 0.213754,-0.22708 0.223769,-0.54777 0.152953,-0.50097 0.490952,-0.24044 1.003553,-0.21372 0.90441,0.36066 1.466709,-0.31396 0.07823,-0.46752 h 1.342807 l 1.590615,-0.0105 1.3245,-0.0105 0.45421,0.12684 z"
       id="path2572-2" />
  </g>
</svg>
