<?xml version="1.0" encoding="UTF-8" standalone="no"?>
<!-- Created with Inkscape (http://www.inkscape.org/) -->

<svg
   width="74.806984"
   height="58.896393"
   viewBox="0 0 74.806984 58.896395"
   version="1.1"
   id="svg1059"
   xmlns="http://www.w3.org/2000/svg"
   xmlns:svg="http://www.w3.org/2000/svg"
   xmlns:rdf="http://www.w3.org/1999/02/22-rdf-syntax-ns#"
   xmlns:cc="http://creativecommons.org/ns#"
   xmlns:dc="http://purl.org/dc/elements/1.1/">
  <defs
     id="defs1053" />
  <metadata
     id="metadata1056">
    <rdf:RDF>
      <cc:Work
         rdf:about="">
        <dc:format>image/svg+xml</dc:format>
        <dc:type
           rdf:resource="http://purl.org/dc/dcmitype/StillImage" />
      </cc:Work>
    </rdf:RDF>
  </metadata>
  <g
     id="layer29"
     transform="translate(-316.16849,-149.32092)"
     style="display:inline">
    <path
       style="display:inline;fill:#c05fef;fill-opacity:1;fill-rule:evenodd;stroke:#505050;stroke-width:0.525892;stroke-linecap:round;stroke-linejoin:round;stroke-miterlimit:4;stroke-dasharray:none;stroke-opacity:1"
       class="polygon"
       d="m 381.97279,165.45936 -0.4295,0.85237 -0.13959,0.60782 -0.0401,0.50759 0.0266,0.29398 0.0468,0.187 0.0201,0.0673 h 0.0201 0.0201 l 0.0201,0.0105 h 1.24134 0.006 v 0 l -0.006,0.27388 0.0468,1.35259 0.0401,1.18358 0.07,1.93307 10e-4,0.5077 -0.0468,0.62791 -0.14561,0.24717 -0.35401,0.35392 -0.44353,0.32732 -1.12399,0.0799 h -0.93668 l -0.66462,-0.0736 h -0.90802 l -0.85713,0.0673 -0.31261,0.27389 -0.46089,0.97059 -0.66796,1.40676 -0.35134,0.59446 -0.0915,0.3473 0.10487,0.2071 0.44151,0.3006 0.97002,0.42082 1.11081,0.24706 0.82847,0.10697 0.56577,0.11359 0.43485,0.12685 1.57859,1.07881 0.50431,0.50096 0.28388,0.44754 0.0668,0.47425 0.22776,0.47425 0.9093,0.94313 0.52703,0.54777 1.36984,0.69733 0.52369,0.79221 0.50764,0.38737 0.48028,0.41419 0.25784,0.61445 0.59381,1.78814 0.39944,0.93725 0.40812,0.76675 0.16432,1.2471 0.32263,0.55439 0.33397,0.67998 0.55109,0.61456 0.5878,0.46751 0.10615,0.12695 -1.22831,1.20503 -1.377,1.35123 -1.59297,1.56369 -1.73448,1.70199 -1.3581,1.3466 -1.34113,1.32861 -1.56618,1.56906 -1.1565,1.15959 -0.19303,0.16692 -0.33532,0.21382 h -1.1024 l -1.137,-0.13368 -1.04757,-0.70469 -1.06326,0.54777 -0.67451,0.17364 -0.40212,0.0663 -0.94978,0.0862 -1.32937,0.29398 -0.6025,0.36728 -0.32595,0.29397 -0.26987,0.53431 -0.13558,0.0673 -0.24382,-0.0673 -0.34199,-0.21372 -0.71105,-0.30723 -0.35737,-0.67798 -0.3313,-0.40746 -0.27119,-0.21372 -1.12979,0.67587 -0.54573,0.1604 h -0.44887 l -0.81864,-0.38074 -0.9047,-0.32069 h -0.4649 l -0.69668,0.40746 -0.79253,0.60782 -0.40879,0.6012 -0.19772,0.35403 -0.14495,-0.28724 -0.13292,-0.26715 -0.26519,-0.34067 -0.38274,-0.13358 -0.34867,0.0673 -0.40679,0.0673 -0.18235,-0.19374 -0.04,-0.46762 -0.11089,-0.42745 -0.19102,-0.32058 -0.58514,-0.32069 -1.50814,-0.65453 -1.15917,-1.30726 -0.5838,-0.60782 -0.42616,-0.39411 -0.60317,-1.02728 -0.6882,-0.70743 -0.83361,-0.32731 -0.55039,0.16029 -0.56645,0.7575 -1.06846,0.71142 h -0.49028 l -0.62789,-0.38747 -0.78866,-0.27378 -1.41808,-0.12033 -0.58447,0.34068 -0.76649,0.54776 -0.64991,0.32732 -0.40279,0.0673 -0.3754,-0.12695 -0.42615,-0.0663 h -0.36872 l -0.75799,-0.50096 -0.39278,-0.36739 -0.26183,-0.35403 -0.42817,-0.24044 -0.50097,-0.20037 -0.35736,-0.31395 -0.17834,-0.38737 -0.28188,-0.50107 -0.36805,-0.45416 -1.1565,-0.81219 -0.346,-0.48098 -0.2398,-0.46763 -0.47359,-0.51432 -0.50564,-0.68997 -0.16165,-1.00929 -0.0201,-0.81355 -0.10486,-0.37402 -0.21442,-0.37412 -0.24915,-0.32058 -0.40478,-0.36076 -0.94256,-0.52095 -0.97389,-0.60793 -0.46824,-0.35393 -0.88652,-0.12695 -0.53035,-0.3473 -0.44621,-0.75949 -0.17968,-0.60783 -0.44888,-0.47425 -0.1917,-0.34067 -0.10691,-0.3941 0.35536,-1.2024 -0.51635,-0.42745 -0.76968,-0.55439 -0.55039,-0.6012 -0.33666,-0.5544 -0.98564,-0.73277 -2.15323,-1.09407 -1.24202,-0.69933 -0.67972,-0.62791 -0.59315,-0.61456 -0.0602,-0.2538 0.38274,-0.61455 0.0602,-0.5076 -0.31394,-0.55439 -1.29025,-1.0481 -1.02805,-1.1536 -0.77885,-0.36066 -1.87476,-0.32058 -0.53837,-0.12695 -0.56177,-0.22045 -0.5544,-0.52095 -0.18969,-0.61456 0.27318,-0.98321 -0.17433,-0.3006 -0.31729,-0.0799 v 0 l 0.0875,-0.2071 0.3547,-0.48087 0.57844,-0.30734 1.54795,-0.4876 0.0861,-0.18701 0.0333,-0.61456 0.12624,-0.3006 0.53305,-0.85026 0.0755,-0.34067 0.0266,-0.72342 0.0715,-0.34067 0.15428,-0.24044 0.4255,-0.42082 0.14896,-0.25379 0.0668,-0.5544 -0.0468,-1.09753 0.21642,-0.43408 0.97648,-0.9973 0.26118,-0.4409 0.0889,-0.40073 -0.006,-0.40747 0.0602,-0.40083 0.28988,-0.38737 0.24715,-0.12022 0.71952,-0.12022 0.49029,0.0736 3.4259,-0.68135 0.40212,0.0936 0.18035,0.40073 -0.0134,0.64127 0.0602,0.31396 0.18435,0.22045 0.54372,0.30723 0.37674,0.51432 0.20038,0.18701 0.55108,0.35403 2.55054,2.93973 0.71686,0.28051 0.69795,-0.0999 1.38487,-0.60782 0.69275,-0.15367 4.84659,0.17365 0.54172,-0.0936 h 0.0333 l 0.73775,1.47555 0.35135,0.33405 h 5.31436 l -0.10087,-0.42082 0.0675,-0.46762 0.62053,-0.6012 0.31594,-0.3005 v 9.5e-4 l 0.13359,-0.10686 0.81993,-0.42755 0.80169,-0.28724 1.54138,-0.33395 0.56308,-0.53441 0.31062,-0.4876 0.0134,-0.95986 0.20373,-0.16029 0.36805,-0.22046 1.78278,-0.85762 0.30126,-0.18038 3.14997,1.99386 1.76843,1.57841 0.10692,0.0736 h 0.0922 l 0.0935,-0.0673 0.0789,-0.0736 0.12826,-0.0663 h 0.0861 0.75668 l 1.43051,-0.0799 0.47025,-0.187 2.87208,-2.81815 0.73055,-0.89907 0.18503,-0.18038 0.41614,-0.64117 0.43818,-1.1009 0.0875,-0.12684 3.14676,-2.64051 0.11156,-0.20699 0.0333,-0.16702 -0.47558,-0.88771 -0.10213,-0.45426 -0.0201,-0.69534 0.0949,-1.0807 -0.0333,-0.68335 -0.0134,-0.0799 -0.0333,-0.10697 -0.0201,-0.0673 -1.75733,-1.9417 h 4.43827 l 0.0134,-0.1604 -0.004,-0.0873 -0.0134,-0.0799 -0.0841,-0.23371 -0.0468,-0.30733 -0.003,-0.0873 0.006,-0.0873 0.0266,-0.16029 0.002,-0.0873 -0.004,-0.0673 -0.006,-0.0663 h 0.002 0.0201 l 3.18912,0.0663 -0.0401,0.54777 -0.38742,1.2918 0.006,0.77485 -0.0915,0.88434 -0.0201,0.0736 -0.0875,0.19374 -0.0761,0.10676 -0.0875,0.10696 -0.0266,0.0673 -0.0266,0.0673 -0.002,0.0999 0.66195,4.95222 -0.0266,0.12695 -0.0266,0.0799 -0.17701,0.30722 -0.0468,0.0999 -0.006,0.0799 0.0715,0.0663 1.46899,0.53441 0.0709,0.0663 0.0535,0.0663 0.52903,0.63454 2.893,2.34989 0.0989,0.12022 0.29924,0.73814 0.0333,0.1136 0.0134,0.17364 -0.006,0.14021 -0.0741,0.44091 0.0266,0.20036 0.0468,0.13358 0.04,0.15366 v 0.0663 l -0.005,0.0663 z"
       id="path2560-7" />
  </g>
</svg>
