<?xml version="1.0" encoding="UTF-8" standalone="no"?>
<!-- Created with Sodipodi ("http://www.sodipodi.com/") -->

<svg
   xmlns:dc="http://purl.org/dc/elements/1.1/"
   xmlns:cc="http://creativecommons.org/ns#"
   xmlns:rdf="http://www.w3.org/1999/02/22-rdf-syntax-ns#"
   xmlns:svg="http://www.w3.org/2000/svg"
   xmlns="http://www.w3.org/2000/svg"
   xmlns:xlink="http://www.w3.org/1999/xlink"
   xmlns:sodipodi="http://sodipodi.sourceforge.net/DTD/sodipodi-0.dtd"
   xmlns:inkscape="http://www.inkscape.org/namespaces/inkscape"
   id="svg602"
   sodipodi:version="0.32"
   width="76.095146"
   height="86.581512"
   xml:space="preserve"
   sodipodi:docname="minitux.svg"
   inkscape:version="0.91 r"
   inkscape:output_extension="org.inkscape.output.svgz.inkscape"
   version="1.0"><metadata
     id="metadata70"><rdf:RDF><cc:Work
         rdf:about=""><dc:format>image/svg+xml</dc:format><dc:type
           rdf:resource="http://purl.org/dc/dcmitype/StillImage" /><dc:title></dc:title></cc:Work></rdf:RDF></metadata><defs
     id="defs604"><linearGradient
       id="linearGradient863"><stop
         style="stop-color:#ffffff;stop-opacity:1;"
         offset="0"
         id="stop864" /><stop
         style="stop-color:#000000;stop-opacity:0;"
         offset="1"
         id="stop865" /></linearGradient><linearGradient
       id="linearGradient716"><stop
         style="stop-color:#ffffff;stop-opacity:1;"
         offset="0"
         id="stop717" /><stop
         style="stop-color:#000000;stop-opacity:1;"
         offset="1"
         id="stop718" /></linearGradient><linearGradient
       id="linearGradient738"><stop
         style="stop-color:#ffffff;stop-opacity:1;"
         offset="0"
         id="stop739" /><stop
         style="stop-color:#aadae5;stop-opacity:1;"
         offset="1"
         id="stop740" /></linearGradient><linearGradient
       id="linearGradient688"><stop
         style="stop-color:#ab7200;stop-opacity:1;"
         offset="0"
         id="stop689" /><stop
         style="stop-color:#000000;stop-opacity:1;"
         offset="1"
         id="stop690" /></linearGradient><linearGradient
       id="linearGradient635"><stop
         style="stop-color:#ffed00;stop-opacity:1;"
         offset="0"
         id="stop636" /><stop
         style="stop-color:#ca6d00;stop-opacity:1;"
         offset="1"
         id="stop637" /></linearGradient><linearGradient
       id="linearGradient621"><stop
         style="stop-color:#000;stop-opacity:1;"
         offset="0"
         id="stop622" /><stop
         style="stop-color:#fff;stop-opacity:1;"
         offset="1"
         id="stop623" /></linearGradient><linearGradient
       xlink:href="#linearGradient621"
       id="linearGradient624"
       x1="2.6166902"
       y1="0.93748194"
       x2="-5.6666632"
       y2="-1.2031258"
       spreadMethod="pad" /><linearGradient
       xlink:href="#linearGradient635"
       id="linearGradient628"
       x1="0.61744964"
       y1="1.0929911"
       x2="0.19798657"
       y2="-0.48837268" /><radialGradient
       xlink:href="#linearGradient635"
       id="radialGradient629"
       cx="0.043638851"
       cy="0.50796098"
       r="1.1210434"
       fx="0.043638851"
       fy="0.50796098"
       gradientTransform="translate(6.098844e-7,1.225341e-6)" /><radialGradient
       xlink:href="#linearGradient635"
       id="radialGradient633"
       cx="2.7225094e-06"
       cy="0.50006461"
       r="0.87587297"
       fx="2.7225094e-06"
       fy="0.50006461"
       gradientTransform="translate(3.571768e-8,1.016935e-6)" /><radialGradient
       xlink:href="#linearGradient635"
       id="radialGradient634"
       cx="0.40272298"
       cy="0.53182161"
       r="1.4208493"
       fx="0.40272298"
       fy="0.53182161" /><linearGradient
       xlink:href="#linearGradient635"
       id="linearGradient638"
       x1="0.20220785"
       y1="0.5078156"
       x2="1.2169119"
       y2="0.49218762" /><linearGradient
       xlink:href="#linearGradient635"
       id="linearGradient639"
       x1="0.013438066"
       y1="1.0434941"
       x2="0.60067159"
       y2="-0.2173906" /><linearGradient
       xlink:href="#linearGradient635"
       id="linearGradient640"
       x1="0.026315417"
       y1="0.96872169"
       x2="1.2017543"
       y2="-0.046875328" /><linearGradient
       xlink:href="#linearGradient635"
       id="linearGradient645"
       x1="0.49328572"
       y1="0.68763548"
       x2="0.50335562"
       y2="-0.2083268"
       gradientTransform="translate(-1.736693e-8,1.12503e-6)" /><linearGradient
       xlink:href="#linearGradient635"
       id="linearGradient662"
       x1="0.49999797"
       y1="4.2856517"
       x2="0.51006711"
       y2="-0.57142854" /><linearGradient
       xlink:href="#linearGradient688"
       id="linearGradient663"
       x1="0.79970354"
       y1="0.015626904"
       x2="0.099991366"
       y2="0.984375"
       gradientTransform="translate(-1.354258e-6,2.60932e-8)" /><linearGradient
       xlink:href="#linearGradient688"
       id="linearGradient664"
       x1="1.2969635"
       y1="0.070344955"
       x2="-0.17187244"
       y2="0.6640628" /><radialGradient
       xlink:href="#linearGradient635"
       id="radialGradient703"
       cx="0.04363846"
       cy="0.50796008"
       r="1.1210434"
       fx="0.04363846"
       fy="0.50796008" /><linearGradient
       xlink:href="#linearGradient738"
       id="linearGradient737"
       x1="0.47649938"
       y1="0.81473005"
       x2="0.5805366"
       y2="0.79629445"
       spreadMethod="reflect" /><linearGradient
       xlink:href="#linearGradient635"
       id="linearGradient693"
       x1="0.0042525777"
       y1="0.96091604"
       x2="0.71120477"
       y2="-0.039063033" /><radialGradient
       xlink:href="#linearGradient716"
       id="radialGradient715"
       cx="0.21035564"
       cy="0.46881738"
       r="0.3010284"
       fx="0.21035564"
       fy="0.46881738"
       gradientTransform="translate(-1.993742e-6,5.513612e-7)" /><linearGradient
       xlink:href="#linearGradient716"
       id="linearGradient816"
       x1="0.62363487"
       y1="0.46874478"
       x2="0.61797768"
       y2="0.88281232" /><radialGradient
       xlink:href="#linearGradient716"
       id="radialGradient817"
       cx="0.48727369"
       cy="0.47593319"
       r="0.71674091"
       fx="0.48727369"
       fy="0.47593319"
       gradientTransform="translate(-7.996448e-8,-1.684752e-6)"
       spreadMethod="reflect" /><linearGradient
       xlink:href="#linearGradient621"
       id="linearGradient839"
       x1="0.2053477"
       y1="0.59407485"
       x2="1.6655757"
       y2="0.55364496" /><linearGradient
       xlink:href="#linearGradient716"
       id="linearGradient851"
       x1="0.46980006"
       y1="-0.17842805"
       x2="0.44630876"
       y2="0.73214781"
       gradientTransform="translate(2.988028e-8,1.287356e-6)" /><linearGradient
       xlink:href="#linearGradient716"
       id="linearGradient852"
       x1="0.91062617"
       y1="0.070315048"
       x2="0.66071373"
       y2="0.5" /><radialGradient
       xlink:href="#linearGradient635"
       id="radialGradient844"
       cx="0.49999678"
       cy="0.58592868"
       r="0.6061992"
       fx="0.49999678"
       fy="0.58592868" /><radialGradient
       xlink:href="#linearGradient635"
       id="radialGradient845"
       cx="0.38243547"
       cy="0.3906292"
       r="0.5836398"
       fx="0.38243547"
       fy="0.3906292" /><radialGradient
       xlink:href="#linearGradient635"
       id="radialGradient856"
       cx="0.60772103"
       cy="0.57813001"
       r="0.61929691"
       fx="0.60772103"
       fy="0.57813001" /><linearGradient
       xlink:href="#linearGradient716"
       id="linearGradient858"
       x1="-0.70322967"
       y1="0.1953125"
       x2="0.015624821"
       y2="1.015625" /><radialGradient
       xlink:href="#linearGradient621"
       id="radialGradient859"
       cx="0.67347187"
       cy="0.77343768"
       r="2.6704147"
       fx="0.67347187"
       fy="0.77343768" /><radialGradient
       xlink:href="#linearGradient863"
       id="radialGradient861"
       cx="0.51738662"
       cy="0.45822334"
       r="0.42619306"
       fx="0.51738662"
       fy="0.45822334" /><linearGradient
       xlink:href="#linearGradient688"
       id="linearGradient862"
       x1="-1.0380955"
       y1="1.0091755"
       x2="-0.95770723"
       y2="-1.2517148"
       gradientTransform="translate(2.444169e-6,-3.506816e-7)" /><radialGradient
       xlink:href="#linearGradient863"
       id="radialGradient866" /><linearGradient
       xlink:href="#linearGradient688"
       id="linearGradient875"
       x1="2.5731847"
       y1="1.4290531"
       x2="2.6773746"
       y2="-1.5012398"
       gradientTransform="matrix(1.242068,0,0,0.805109,4.09309e-6,-3.247232e-6)" /><radialGradient
       inkscape:collect="always"
       xlink:href="#linearGradient621"
       id="radialGradient2241"
       cx="436.16489"
       cy="467.00381"
       fx="436.16489"
       fy="467.00381"
       r="375.85541"
       gradientTransform="scale(0.869312,1.150335)"
       gradientUnits="userSpaceOnUse" /><radialGradient
       inkscape:collect="always"
       xlink:href="#linearGradient863"
       id="radialGradient2243"
       cx="507.87173"
       cy="129.27283"
       fx="507.87173"
       fy="129.27283"
       r="10.994515"
       gradientTransform="scale(1.2133506,0.8241641)"
       gradientUnits="userSpaceOnUse" /><radialGradient
       inkscape:collect="always"
       xlink:href="#linearGradient863"
       id="radialGradient2245"
       gradientTransform="scale(0.935494,1.0689539)"
       cx="647.78204"
       cy="173.57755"
       fx="647.78204"
       fy="173.57755"
       r="37.421352"
       gradientUnits="userSpaceOnUse" /><radialGradient
       inkscape:collect="always"
       xlink:href="#linearGradient716"
       id="radialGradient2247"
       cx="398.81259"
       cy="448.45496"
       fx="398.81259"
       fy="448.45496"
       r="3.2000804"
       gradientUnits="userSpaceOnUse" /><radialGradient
       inkscape:collect="always"
       xlink:href="#linearGradient716"
       id="radialGradient2249"
       cx="398.81259"
       cy="448.45496"
       fx="398.81259"
       fy="448.45496"
       r="3.2000804"
       gradientUnits="userSpaceOnUse" /><radialGradient
       inkscape:collect="always"
       xlink:href="#linearGradient635"
       id="radialGradient2251"
       cx="278.20016"
       cy="525.82623"
       fx="278.20016"
       fy="525.82623"
       r="57.338097"
       gradientTransform="scale(1.4200241,0.7042134)"
       gradientUnits="userSpaceOnUse" /><linearGradient
       inkscape:collect="always"
       xlink:href="#linearGradient688"
       id="linearGradient2253"
       gradientTransform="scale(1.4488458,0.6902046)"
       x1="416.56958"
       y1="195.51714"
       x2="416.71439"
       y2="191.44444"
       gradientUnits="userSpaceOnUse" /><linearGradient
       inkscape:collect="always"
       xlink:href="#linearGradient688"
       id="linearGradient2255"
       gradientTransform="scale(1.166501,0.8572646)"
       x1="516.53217"
       y1="157.80261"
       x2="516.67694"
       y2="153.73006"
       gradientUnits="userSpaceOnUse" /><radialGradient
       inkscape:collect="always"
       xlink:href="#linearGradient635"
       id="radialGradient2257"
       cx="627.73273"
       cy="238.98836"
       fx="627.73273"
       fy="238.98836"
       r="32.21587"
       gradientTransform="scale(1.0295592,0.9712894)"
       gradientUnits="userSpaceOnUse" /><radialGradient
       inkscape:collect="always"
       xlink:href="#linearGradient635"
       id="radialGradient2259"
       cx="518.95081"
       cy="255.83875"
       fx="518.95081"
       fy="255.83875"
       r="35.748646"
       gradientTransform="scale(1.0716088,0.9331764)"
       gradientUnits="userSpaceOnUse" /><linearGradient
       inkscape:collect="always"
       xlink:href="#linearGradient716"
       id="linearGradient2261"
       x1="912.65234"
       y1="137.29343"
       x2="868.91797"
       y2="212.48776"
       gradientTransform="scale(0.6375543,1.5684939)"
       gradientUnits="userSpaceOnUse" /><linearGradient
       inkscape:collect="always"
       xlink:href="#linearGradient621"
       id="linearGradient2263"
       spreadMethod="pad"
       x1="777.06293"
       y1="287.07431"
       x2="-679.2959"
       y2="-89.282082"
       gradientTransform="scale(0.6345852,1.5758325)"
       gradientUnits="userSpaceOnUse" /></defs><sodipodi:namedview
     id="base"
     inkscape:zoom="0.58505268"
     inkscape:cx="372.04724"
     inkscape:cy="211.56463"
     inkscape:window-width="910"
     inkscape:window-height="627"
     inkscape:window-x="6"
     inkscape:window-y="51"
     inkscape:current-layer="svg602"
     showgrid="false"
     inkscape:window-maximized="0" /><g
     id="g2222"
     transform="matrix(0.1616958,0,0,0.1616958,-22.454847,-31.149602)"><path
       transform="matrix(3,0,0,3,-678.9592,-1015.629)"
       sodipodi:nodetypes="csccsss"
       id="path756"
       d="M 356.0647,411.9914 C 334.343,411.7528 321.5995,426.7058 325.0396,465.7785 C 326.2871,480.1659 252.0649,562.3766 339.2331,573.3023 L 371.1603,573.8929 C 429.9803,570.3494 419.0296,518.0697 417.0006,512.1069 C 411.0164,491.5231 391.1551,472.129 391.0151,461.08 C 390.8792,427.3452 378.6101,411.639 356.0647,411.9914 z "
       style="font-size:12px;fill:url(#radialGradient2241);fill-rule:evenodd" /><path
       transform="matrix(2.038695,0.9474,-0.945636,1.891647,-717.3074,-529.6322)"
       sodipodi:ry="10.630493"
       sodipodi:rx="15.650421"
       sodipodi:cy="107.43024"
       sodipodi:cx="615.68225"
       d="m 631.33267,107.43024 a 15.650421,10.630493 0 0 1 -15.65042,10.63049 15.650421,10.630493 0 0 1 -15.65042,-10.63049 15.650421,10.630493 0 0 1 15.65042,-10.630496 15.650421,10.630493 0 0 1 15.65042,10.630496 z"
       id="path860"
       style="font-size:12px;fill:url(#radialGradient2243);fill-rule:evenodd"
       sodipodi:type="arc" /><path
       transform="matrix(3,0,0,3,-1434.675,-66.28949)"
       sodipodi:nodetypes="cssccscss"
       id="path793"
       d="M 643.6524,226.2441 C 633.306,238.8714 618.8829,248.3164 595.6658,247.9214 C 572.0021,247.1013 564.5463,235.6985 565.7734,205.7159 C 566.5042,192.9607 570.5703,182.336 575.1714,174.3788 C 577.557,168.4109 583.8171,166.9594 587.756,148.6329 C 595.1144,154.0766 597.8104,154.4549 600.3521,154.4853 C 605.1903,154.5837 618.8719,150.2001 623.7508,146.3617 C 628.2985,162.142 633.3093,167.4814 636.5848,171.3021 C 656.5375,194.9933 645.9513,222.9288 643.6524,226.2441 z "
       style="font-size:12px;fill:#f8f7f7;fill-rule:evenodd" /><path
       transform="matrix(3,0,0,3,-1434.675,-66.28949)"
       sodipodi:nodetypes="cccccccccccccccccccccc"
       id="path871"
       d="M 624.5364,145.5447 C 621.5836,154.254 608.0056,162.0592 600.9178,162.0592 C 596.7828,162.0592 588.4029,155.7413 586.9264,147.0322 C 592.4305,152.4557 594.8268,153.9483 599.464,154.1325 C 604.592,154.2609 618.9417,150.2916 624.5364,145.5447 z M 578.9845,168.302 C 576.6727,170.9576 573.7897,175.239 570.9888,182.7921 C 576.8947,176.1524 582.6886,175.629 589.2209,172.9565 C 583.3151,172.7478 581.1318,171.2251 578.9845,168.302 z M 595.6275,172.1593 C 597.9116,174.2791 597.2725,175.7726 598.0951,178.5188 C 598.4549,175.911 602.5729,173.9295 604.8118,171.9481 C 601.9592,172.4361 598.4801,172.5065 595.6275,172.1593 z M 632.27,169.5802 C 636.4462,173.2967 639.9597,177.6751 641.0037,183.062 C 633.8452,176.8398 621.8843,173.9586 614.9343,172.3301 C 621.0488,172.1213 630.1226,172.5034 632.27,169.5802 z M 594.8524,209.0117 C 594.8524,220.1016 597.3741,225.5481 596.0694,225.5481 C 594.7647,225.5481 591.5893,219.8928 591.5893,208.8029 C 591.5893,197.7133 595.8087,185.5974 597.1134,185.5974 C 598.4181,185.5974 594.8524,197.9221 594.8524,209.0117 z "
       style="font-size:12px;fill:url(#radialGradient2245);fill-rule:evenodd" /><path
       transform="matrix(3,0,0,3,-862.3351,-1014.743)"
       sodipodi:nodetypes="ccccc"
       id="path699"
       d="M 409.6376,449.1857 C 404.8776,449.6191 400.5485,451.6346 397.6499,454.0064 C 395.8779,455.259 391.6093,449.8041 391.6093,445.7228 C 391.6093,440.2154 395.2201,434.8413 401.1608,434.8413 C 406.6099,434.8413 410.5264,442.3898 409.6376,449.1857 z "
       style="font-size:12px;fill:#ffffff;fill-rule:evenodd" /><path
       transform="matrix(3,0,0,3,-862.3351,-1014.743)"
       sodipodi:nodetypes="ccccc"
       id="path703"
       d="M 416.2332,449.481 C 420.8461,449.9976 426.7219,452.3242 430.2505,454.1887 C 432.215,455.4411 435.7144,450.0994 435.7144,446.0181 C 435.7144,441.6919 431.6914,434.546 425.1051,434.546 C 418.178,434.546 415.2478,440.9133 416.2332,449.481 z "
       style="font-size:12px;fill:#ffffff;fill-rule:evenodd" /><path
       transform="matrix(3,0,0,3,-864.107,-1017.401)"
       sodipodi:ry="5.3152466"
       sodipodi:rx="5.3152466"
       sodipodi:cy="448.78644"
       sodipodi:cx="401.89166"
       d="m 407.20691,448.78644 a 5.3152466,5.3152466 0 0 1 -5.31525,5.31524 5.3152466,5.3152466 0 0 1 -5.31524,-5.31524 5.3152466,5.3152466 0 0 1 5.31524,-5.31525 5.3152466,5.3152466 0 0 1 5.31525,5.31525 z"
       id="path714"
       style="font-size:12px;fill:url(#radialGradient2247);fill-rule:evenodd"
       sodipodi:type="arc" /><path
       transform="matrix(3,0,0,3,-795.0089,-1019.172)"
       sodipodi:ry="5.3152466"
       sodipodi:rx="5.3152466"
       sodipodi:cy="448.78644"
       sodipodi:cx="401.89166"
       d="m 407.20691,448.78644 a 5.3152466,5.3152466 0 0 1 -5.31525,5.31524 5.3152466,5.3152466 0 0 1 -5.31524,-5.31524 5.3152466,5.3152466 0 0 1 5.31524,-5.31525 5.3152466,5.3152466 0 0 1 5.31525,5.31525 z"
       id="path719"
       style="font-size:12px;fill:url(#radialGradient2249);fill-rule:evenodd"
       sodipodi:type="arc" /><path
       sodipodi:nodetypes="ccscs"
       id="path691"
       d="M 446.617,359.5886 C 447.4425,377.3813 387.4915,397.7999 366.8574,397.7999 C 349.9842,397.7999 316.3682,378.317 315.162,361.8164 C 314.5182,353.8955 343.2654,331.9865 373.9768,332.6129 C 398.4949,332.6129 445.9437,348.0119 446.617,359.5886 z "
       style="font-size:12px;fill:url(#radialGradient2251);fill-rule:evenodd" /><path
       transform="matrix(3,0,0,3,-862.3351,-1014.743)"
       sodipodi:nodetypes="csc"
       id="path692"
       d="M 393.3968,458.8498 C 396.6344,456.3915 394.2853,468.139 411.3075,468.1505 C 426.5103,467.5135 429.2354,454.1679 433.6932,458.336"
       style="font-size:12px;fill:none;fill-rule:evenodd;stroke:#000000;stroke-linecap:round" /><path
       transform="matrix(3,0,0,3,-1434.675,-66.28949)"
       sodipodi:nodetypes="ccss"
       id="path873"
       d="M 608.7809,134.0805 C 608.2455,134.409 606.5216,134.9842 606.3462,134.9321 C 605.9774,134.8522 606.8292,134.2424 606.973,133.867 C 607.1015,133.5141 609.3165,133.7519 608.7809,134.0805 z "
       style="font-size:12px;fill:url(#linearGradient2253);fill-rule:evenodd" /><path
       transform="matrix(3,0,0,3,-1434.675,-66.28949)"
       sodipodi:nodetypes="cccc"
       id="path874"
       d="M 598.3636,133.8313 C 598.3589,134.155 598.7373,134.7618 599.051,134.7674 C 599.3385,134.3765 599.6241,134.0618 599.9462,133.7447 C 600.2773,133.453 598.3683,133.5773 598.3636,133.8313 z "
       style="font-size:12px;fill:url(#linearGradient2255);fill-rule:evenodd" /><g
       style="font-size:12px"
       transform="matrix(3,0,0,3,-1413.112,-53.1644)"
       id="g1065"><path
         transform="translate(-7.1875,-4.375031)"
         sodipodi:nodetypes="csssscsss"
         id="path842"
         d="M 662.6023,249.8415 C 652.9563,254.7202 643.0236,269.4045 630.2927,263.3619 C 621.3526,259.2146 625.6634,249.1638 625.1563,243.5311 C 624.668,230.5505 623.5071,211.1312 631.9468,211.184 C 642.1547,211.246 638.0258,215.2545 645.4196,217.3441 C 653.505,219.306 658.7389,209.0467 664.847,213.6095 C 669.4787,219.944 664.6217,223.322 670.205,229.4906 C 673.1685,233.0602 677.7506,232.9839 680.3539,235.8973 C 685.7736,241.3478 668.3201,246.6544 662.6023,249.8415 z "
         style="font-size:12px;fill:url(#radialGradient2257);fill-rule:evenodd" /><path
         transform="translate(-7.1875,-4.375031)"
         sodipodi:nodetypes="cssssssss"
         id="path843"
         d="M 550.8908,255.4014 C 562.5947,256.6532 574.367,267.8037 584.6032,256.5396 C 591.8317,248.7246 584.743,239.3914 580.5155,234.7902 C 570.7341,224.8274 565.2408,206.427 556.2229,206.4986 C 548.5882,206.8092 550.0632,210.9825 544.7009,215.234 C 537.4953,220.6488 532.9891,216.239 528.6392,223.1506 C 525.9871,226.8955 526.7585,231.7788 527.8864,236.9511 C 528.6785,241.8714 527.0976,242.9494 525.4163,244.55 C 519.9332,250.7329 540.853,254.0325 550.8908,255.4014 z "
         style="font-size:12px;fill:url(#radialGradient2259);fill-rule:evenodd" /></g><path
       sodipodi:nodetypes="cscss"
       id="path857"
       d="M 532.9737,328.5495 C 531.1081,402.2319 482.6349,400.4512 492.4561,427.6057 C 534.4066,542.7587 591.4093,396.5461 591.8354,334.7676 C 592.253,274.2406 508.2271,190.7808 498.9799,196.3041 C 441.2474,238.6294 535.7806,267.1808 532.9737,328.5495 z "
       style="font-size:12px;fill:url(#linearGradient2261);fill-rule:evenodd" /><path
       sodipodi:nodetypes="csscss"
       id="path735"
       d="M 260.0286,325.1493 C 261.8941,398.8317 316.0222,399.827 300.5462,424.2055 C 276.2301,463.825 266.5814,477.6837 255.5387,465.3292 C 211.1372,415.5535 201.3799,362.2566 201.1669,331.3674 C 200.7493,270.8404 284.7752,187.3806 294.0224,192.9038 C 351.7549,235.2292 257.2217,263.7806 260.0286,325.1493 z "
       style="font-size:12px;fill:url(#linearGradient2263);fill-rule:evenodd" /></g></svg>