<?xml version="1.0" encoding="UTF-8" standalone="no"?>
<!-- Created with Sodipodi ("http://www.sodipodi.com/") -->

<svg
   xmlns:dc="http://purl.org/dc/elements/1.1/"
   xmlns:cc="http://creativecommons.org/ns#"
   xmlns:rdf="http://www.w3.org/1999/02/22-rdf-syntax-ns#"
   xmlns:svg="http://www.w3.org/2000/svg"
   xmlns="http://www.w3.org/2000/svg"
   xmlns:xlink="http://www.w3.org/1999/xlink"
   xmlns:sodipodi="http://sodipodi.sourceforge.net/DTD/sodipodi-0.dtd"
   xmlns:inkscape="http://www.inkscape.org/namespaces/inkscape"
   id="svg602"
   sodipodi:version="0.32"
   width="236.00195"
   height="131.81519"
   xml:space="preserve"
   sodipodi:docname="tuxplane.svg"
   inkscape:version="0.91 r"
   inkscape:output_extension="org.inkscape.output.svgz.inkscape"
   version="1.0"><metadata
     id="metadata90"><rdf:RDF><cc:Work
         rdf:about=""><dc:format>image/svg+xml</dc:format><dc:type
           rdf:resource="http://purl.org/dc/dcmitype/StillImage" /><dc:title></dc:title></cc:Work></rdf:RDF></metadata><defs
     id="defs604"><linearGradient
       id="linearGradient716"><stop
         style="stop-color:#ffffff;stop-opacity:1;"
         offset="0"
         id="stop717" /><stop
         style="stop-color:#000000;stop-opacity:1;"
         offset="1"
         id="stop718" /></linearGradient><linearGradient
       id="linearGradient738"><stop
         style="stop-color:#ffffff;stop-opacity:1;"
         offset="0"
         id="stop739" /><stop
         style="stop-color:#aadae5;stop-opacity:1;"
         offset="1"
         id="stop740" /></linearGradient><linearGradient
       id="linearGradient688"><stop
         style="stop-color:#ab7200;stop-opacity:1;"
         offset="0"
         id="stop689" /><stop
         style="stop-color:#000000;stop-opacity:1;"
         offset="1"
         id="stop690" /></linearGradient><linearGradient
       id="linearGradient635"><stop
         style="stop-color:#ff8200;stop-opacity:1;"
         offset="0"
         id="stop636" /><stop
         style="stop-color:#ffe700;stop-opacity:1;"
         offset="1"
         id="stop637" /></linearGradient><linearGradient
       id="linearGradient621"><stop
         style="stop-color:#000;stop-opacity:1;"
         offset="0"
         id="stop622" /><stop
         style="stop-color:#fff;stop-opacity:1;"
         offset="1"
         id="stop623" /></linearGradient><linearGradient
       xlink:href="#linearGradient635"
       id="linearGradient624"
       x1="0.39273584"
       y1="0.99219495"
       x2="0.39285502"
       y2="0.37499994"
       spreadMethod="reflect" /><linearGradient
       xlink:href="#linearGradient635"
       id="linearGradient628"
       x1="0.61744964"
       y1="1.0929911"
       x2="0.19798657"
       y2="-0.48837268" /><radialGradient
       xlink:href="#linearGradient635"
       id="radialGradient629"
       cx="0.043638851"
       cy="0.50796098"
       r="1.1210434"
       fx="0.043638851"
       fy="0.50796098"
       gradientTransform="translate(6.098844e-7,1.225341e-6)" /><radialGradient
       xlink:href="#linearGradient635"
       id="radialGradient633"
       cx="2.7225094e-06"
       cy="0.50006461"
       r="0.87587297"
       fx="2.7225094e-06"
       fy="0.50006461"
       gradientTransform="translate(3.571768e-8,1.016935e-6)" /><radialGradient
       xlink:href="#linearGradient635"
       id="radialGradient634"
       cx="0.40272298"
       cy="0.53182161"
       r="1.4208493"
       fx="0.40272298"
       fy="0.53182161" /><linearGradient
       xlink:href="#linearGradient635"
       id="linearGradient638"
       x1="0.20220785"
       y1="0.5078156"
       x2="1.2169119"
       y2="0.49218762" /><linearGradient
       xlink:href="#linearGradient635"
       id="linearGradient639"
       x1="0.013438066"
       y1="1.0434941"
       x2="0.60067159"
       y2="-0.2173906" /><linearGradient
       xlink:href="#linearGradient635"
       id="linearGradient640"
       x1="0.026315417"
       y1="0.96872169"
       x2="1.2017543"
       y2="-0.046875328" /><linearGradient
       xlink:href="#linearGradient635"
       id="linearGradient645"
       x1="0.49328572"
       y1="0.68763548"
       x2="0.50335562"
       y2="-0.2083268"
       gradientTransform="translate(-1.736693e-8,1.12503e-6)" /><linearGradient
       xlink:href="#linearGradient635"
       id="linearGradient662"
       x1="0.49999797"
       y1="4.2856517"
       x2="0.51006711"
       y2="-0.57142854" /><linearGradient
       xlink:href="#linearGradient688"
       id="linearGradient663"
       x1="0.79970354"
       y1="0.015626904"
       x2="0.099991366"
       y2="0.984375"
       gradientTransform="translate(-1.354258e-6,2.60932e-8)" /><linearGradient
       xlink:href="#linearGradient688"
       id="linearGradient664"
       x1="1.2969635"
       y1="0.070344955"
       x2="-0.17187244"
       y2="0.6640628" /><radialGradient
       xlink:href="#linearGradient635"
       id="radialGradient703"
       cx="0.04363846"
       cy="0.50796008"
       r="1.1210434"
       fx="0.04363846"
       fy="0.50796008" /><linearGradient
       xlink:href="#linearGradient738"
       id="linearGradient737"
       x1="0.47649938"
       y1="0.81473005"
       x2="0.5805366"
       y2="0.79629445"
       spreadMethod="reflect" /><linearGradient
       xlink:href="#linearGradient635"
       id="linearGradient693"
       x1="0.0042525777"
       y1="0.96091604"
       x2="0.71120477"
       y2="-0.039063033" /><radialGradient
       xlink:href="#linearGradient716"
       id="radialGradient715"
       cx="0.21035564"
       cy="0.46881738"
       r="0.3010284"
       fx="0.21035564"
       fy="0.46881738"
       gradientTransform="translate(-1.993742e-6,5.513612e-7)" /><linearGradient
       xlink:href="#linearGradient716"
       id="linearGradient816"
       x1="0.62363487"
       y1="0.46874478"
       x2="0.61797768"
       y2="0.88281232" /><radialGradient
       xlink:href="#linearGradient716"
       id="radialGradient817"
       cx="0.48727369"
       cy="0.47593319"
       r="0.71674091"
       fx="0.48727369"
       fy="0.47593319"
       gradientTransform="translate(-7.996448e-8,-1.684752e-6)"
       spreadMethod="reflect" /><linearGradient
       xlink:href="#linearGradient621"
       id="linearGradient839"
       x1="0.2053477"
       y1="0.59407485"
       x2="1.6655757"
       y2="0.55364496" /><linearGradient
       xlink:href="#linearGradient716"
       id="linearGradient851"
       x1="0.46980006"
       y1="-0.17842805"
       x2="0.44630876"
       y2="0.73214781"
       gradientTransform="translate(2.988028e-8,1.287356e-6)" /><linearGradient
       xlink:href="#linearGradient716"
       id="linearGradient852" /><linearGradient
       inkscape:collect="always"
       xlink:href="#linearGradient716"
       id="linearGradient1439"
       x1="615.13562"
       y1="664.00165"
       x2="614.88507"
       y2="682.34222"
       gradientTransform="scale(1.178509,0.84853)"
       gradientUnits="userSpaceOnUse" /><linearGradient
       inkscape:collect="always"
       xlink:href="#linearGradient688"
       id="linearGradient1441"
       gradientTransform="scale(0.250499,3.992035)"
       x1="2850.8486"
       y1="96.558968"
       x2="2787.21"
       y2="184.66667"
       gradientUnits="userSpaceOnUse" /><linearGradient
       inkscape:collect="always"
       xlink:href="#linearGradient688"
       id="linearGradient1443"
       x1="1032.8894"
       y1="383.70267"
       x2="986.69733"
       y2="402.37399"
       gradientTransform="scale(0.703794,1.420871)"
       gradientUnits="userSpaceOnUse" /><radialGradient
       inkscape:collect="always"
       xlink:href="#linearGradient716"
       id="radialGradient1445"
       cx="398.81259"
       cy="448.45496"
       fx="398.81259"
       fy="448.45496"
       r="3.2000804"
       gradientUnits="userSpaceOnUse" /><radialGradient
       inkscape:collect="always"
       xlink:href="#linearGradient716"
       id="radialGradient1447"
       cx="398.81259"
       cy="448.45496"
       fx="398.81259"
       fy="448.45496"
       r="3.2000804"
       gradientUnits="userSpaceOnUse" /><linearGradient
       inkscape:collect="always"
       xlink:href="#linearGradient635"
       id="linearGradient1449"
       x1="293.72403"
       y1="633.70721"
       x2="315.1499"
       y2="603.40045"
       gradientTransform="scale(1.343635,0.74425)"
       gradientUnits="userSpaceOnUse" /><linearGradient
       inkscape:collect="always"
       xlink:href="#linearGradient635"
       id="linearGradient1461"
       spreadMethod="reflect"
       x1="771.12793"
       y1="525.97125"
       x2="771.1452"
       y2="436.54367"
       gradientTransform="scale(0.807041,1.239094)"
       gradientUnits="userSpaceOnUse" /><radialGradient
       inkscape:collect="always"
       xlink:href="#linearGradient635"
       id="radialGradient1463"
       cx="406.75861"
       cy="980.67487"
       fx="406.75861"
       fy="980.67487"
       r="38.999035"
       gradientTransform="scale(1.549194,0.645497)"
       gradientUnits="userSpaceOnUse" /><radialGradient
       inkscape:collect="always"
       xlink:href="#linearGradient635"
       id="radialGradient1465"
       gradientTransform="scale(1.549194,0.645497)"
       cx="396.90256"
       cy="910.4856"
       fx="396.90256"
       fy="910.4856"
       r="30.770054"
       gradientUnits="userSpaceOnUse" /><radialGradient
       inkscape:collect="always"
       xlink:href="#linearGradient635"
       id="radialGradient1467"
       gradientTransform="scale(1.549194,0.645497)"
       cx="396.46725"
       cy="842.56415"
       fx="396.46725"
       fy="842.56415"
       r="24.040691"
       gradientUnits="userSpaceOnUse" /><radialGradient
       inkscape:collect="always"
       xlink:href="#linearGradient635"
       id="radialGradient1469"
       cx="396.14011"
       cy="765.92731"
       fx="396.14011"
       fy="765.92731"
       r="30.770054"
       gradientTransform="scale(1.549194,0.645497)"
       gradientUnits="userSpaceOnUse" /><linearGradient
       inkscape:collect="always"
       xlink:href="#linearGradient621"
       id="linearGradient1473"
       x1="688.35193"
       y1="461.9389"
       x2="724.20062"
       y2="460.94635"
       gradientTransform="scale(0.816497,1.224745)"
       gradientUnits="userSpaceOnUse" /><linearGradient
       inkscape:collect="always"
       xlink:href="#linearGradient635"
       id="linearGradient1475"
       x1="237.41417"
       y1="805.50189"
       x2="304.56967"
       y2="661.30823"
       gradientTransform="scale(1.795583,0.556922)"
       gradientUnits="userSpaceOnUse" /><linearGradient
       inkscape:collect="always"
       xlink:href="#linearGradient635"
       id="linearGradient1477"
       x1="259.79141"
       y1="963.77496"
       x2="370.57349"
       y2="962.06879"
       gradientTransform="scale(1.568043,0.637738)"
       gradientUnits="userSpaceOnUse" /><linearGradient
       inkscape:collect="always"
       xlink:href="#linearGradient716"
       id="linearGradient2264"
       gradientUnits="userSpaceOnUse"
       gradientTransform="matrix(0.7207803,0,0,0.1451108,1.307313,-120.76122)"
       x1="104.81612"
       y1="1109.5081"
       x2="103.78347"
       y2="1149.5356" /><radialGradient
       inkscape:collect="always"
       xlink:href="#linearGradient716"
       id="radialGradient2277"
       gradientUnits="userSpaceOnUse"
       gradientTransform="matrix(0.2983987,-0.2475806,0.1583292,0.1822853,-62.668808,62.017879)"
       spreadMethod="reflect"
       cx="450.07962"
       cy="719.85559"
       fx="450.07962"
       fy="719.85559"
       r="31.347063" /><linearGradient
       inkscape:collect="always"
       xlink:href="#linearGradient635"
       id="linearGradient2292"
       gradientUnits="userSpaceOnUse"
       gradientTransform="matrix(0.8473052,0,0,0.1234421,1.3073127,-120.76119)"
       x1="37.263836"
       y1="1332.7932"
       x2="37.83556"
       y2="1281.9246" /><linearGradient
       inkscape:collect="always"
       xlink:href="#linearGradient635"
       id="linearGradient2296"
       gradientUnits="userSpaceOnUse"
       gradientTransform="matrix(0.3282,0,0,0.3186876,1.307313,-120.76122)"
       x1="0.6725772"
       y1="550.3244"
       x2="208.63736"
       y2="370.63968" /><linearGradient
       inkscape:collect="always"
       xlink:href="#linearGradient635"
       id="linearGradient2299"
       gradientUnits="userSpaceOnUse"
       gradientTransform="matrix(1.6969392,0,0,0.1832639,-10.466363,-338.58907)"
       x1="59.78265"
       y1="2316.7874"
       x2="60.472851"
       y2="1983.8533" /><linearGradient
       inkscape:collect="always"
       xlink:href="#linearGradient635"
       id="linearGradient2303"
       gradientUnits="userSpaceOnUse"
       gradientTransform="matrix(0.6089996,0,0,0.1717458,1.307313,-120.76122)"
       x1="226.07008"
       y1="1261.5146"
       x2="83.391838"
       y2="723.6217" /><linearGradient
       inkscape:collect="always"
       xlink:href="#linearGradient738"
       id="linearGradient2308"
       gradientUnits="userSpaceOnUse"
       gradientTransform="matrix(0.7689031,0,0,0.1360289,33.968255,-105.67227)"
       spreadMethod="reflect"
       x1="102.07376"
       y1="1017.7301"
       x2="112.09986"
       y2="1015.9534" /></defs><sodipodi:namedview
     id="base"
     inkscape:zoom="0.61283883"
     inkscape:cx="372.04724"
     inkscape:cy="193.59538"
     inkscape:window-width="910"
     inkscape:window-height="627"
     inkscape:window-x="6"
     inkscape:window-y="51"
     inkscape:current-layer="svg602"
     width="200px"
     height="407.58105px"
     showgrid="false"
     inkscape:window-maximized="0" /><g
     id="g823"
     transform="matrix(0.3234086,0,0,0.3234086,1.307313,-120.76122)"><path
       style="font-size:12px;fill:url(#linearGradient1439);fill-rule:evenodd"
       d="M 692.3889,545.8076 L 692.3889,583.3921 L 717.4452,583.3921 C 732.4829,583.3921 744.5894,575.0105 744.5894,564.5996 C 744.5894,554.1887 732.4829,545.8076 717.4452,545.8076 L 692.3889,545.8076 z "
       id="path685"
       sodipodi:nodetypes="cccccc"
       transform="translate(-18.89862,-5.14235)" /><path
       style="font-size:12px;fill:url(#linearGradient1441);fill-rule:evenodd"
       d="M 707.4223,379.793 C 693.2354,379.793 696.5646,486.5602 696.5646,500.2379 L 703.2463,561.33 L 696.9822,618.9314 C 695.3118,628.1204 693.653,743.366 708.2575,742.8672 C 714.0922,742.8672 718.6976,738.8382 718.6976,725.1604 L 718.28,561.33 L 717.8624,396.0036 C 717.8624,382.326 713.2571,379.793 707.4223,379.793 z "
       id="path687"
       sodipodi:nodetypes="ccccccccc"
       transform="translate(-18.89862,-4.724686)" /><rect
       rx="5.8464355"
       style="font-size:12px;fill:url(#linearGradient1443);fill-rule:evenodd"
       id="rect691"
       width="22.132996"
       height="44.683723"
       x="698.23547"
       y="542.04865"
       ry="5.8464355"
       transform="translate(-18.89862,-5.14235)" /></g><path
     style="font-size:12px;fill:#000037;fill-rule:evenodd"
     d="M 139.2862,11.620857 C 133.82422,11.620857 128.00073,14.999507 128.56753,24.631491 L 127.80354,30.247126 C 126.27553,35.709079 125.80219,39.724261 131.26421,39.724261 L 141.58978,39.915267 C 147.05176,39.915267 154.69597,43.253555 154.69597,37.791604 L 149.06145,24.917998 C 149.06149,15.922581 144.95077,11.620857 139.48878,11.620857 L 139.2862,11.620857 z "
     id="path756"
     sodipodi:nodetypes="ccccccccc" /><g
     id="g720"
     transform="matrix(0.3234086,0,0,0.3234086,3.4083295,-121.04777)"
     style="font-size:12px"><g
       id="g685"
       transform="translate(17.12181,33.19958)"><rect
         style="font-size:12px;fill:#bc7900;fill-rule:evenodd"
         id="rect748"
         width="7.0869694"
         height="4.1340609"
         x="398.63693"
         y="388.58585"
         transform="matrix(0.999947,1.026074e-2,-1.026074e-2,0.999947,0,0)" /><path
         style="font-size:12px;fill:#bc7900;fill-rule:evenodd"
         d="M 396.6563,394.1438 C 396.6061,399.0361 394.6268,402.9822 388.593,402.9203 C 382.5591,402.8584 374.7557,398.8119 374.8059,393.9196 C 374.8561,389.0272 379.7518,388.6548 385.7857,388.7167 C 391.8195,388.7786 396.7065,389.2514 396.6563,394.1438 z M 394.5038,394.5347 C 394.4654,398.2772 392.9513,401.2961 388.3353,401.2487 C 383.7194,401.2013 377.7499,398.1058 377.7882,394.3631 C 377.8267,390.6205 381.5718,390.3355 386.1878,390.3829 C 390.8036,390.4302 394.5422,390.792 394.5038,394.5347 z M 382.6039,390.3964 L 382.5558,399.9167 L 384.4266,400.675 L 384.4747,390.3426 L 382.6039,390.3964 z "
         id="path683"
         sodipodi:nodetypes="ccccccccccccccc" /><path
         style="font-size:12px;fill:#bc7900;fill-rule:evenodd"
         d="M 399.5092,394.1438 C 399.5594,399.0361 401.5387,402.9822 407.5725,402.9203 C 413.6064,402.8584 421.4098,398.8119 421.3596,393.9196 C 421.3094,389.0272 416.4137,388.6548 410.3798,388.7167 C 404.346,388.7786 399.459,389.2514 399.5092,394.1438 z M 401.6617,394.5347 C 401.7001,398.2772 403.2142,401.2961 407.8302,401.2487 C 412.4461,401.2013 418.4156,398.1058 418.3773,394.3631 C 418.3388,390.6205 414.5937,390.3355 409.9777,390.3829 C 405.3619,390.4302 401.6233,390.792 401.6617,394.5347 z M 413.5616,390.3964 L 413.6097,399.9167 L 411.7389,400.675 L 411.6908,390.3426 L 413.5616,390.3964 z "
         id="path684"
         sodipodi:nodetypes="ccccccccccccccc" /></g><path
       style="font-size:12px;fill:#ffffff;fill-rule:evenodd"
       d="M 409.6376,449.1857 C 406.3628,449.2479 401.6624,451.8468 397.6499,454.0064 C 395.8779,455.259 393.5509,449.8041 393.5509,445.7228 C 393.5509,440.2154 395.8673,436.1357 401.808,436.1357 C 407.2571,436.1357 410.5264,442.3898 409.6376,449.1857 z "
       id="path699"
       sodipodi:nodetypes="ccccc" /><path
       style="font-size:12px;fill:#ffffff;fill-rule:evenodd"
       d="M 416.2332,449.481 C 420.8461,449.8385 426.6158,451.8468 430.4096,453.7112 C 432.3741,454.9637 433.7728,450.0994 433.7728,446.0181 C 433.7728,441.6919 431.0442,435.8404 424.4579,435.8404 C 417.5308,435.8404 415.2478,440.9133 416.2332,449.481 z "
       id="path703"
       sodipodi:nodetypes="ccccc" /><path
       sodipodi:type="arc"
       style="fill:url(#radialGradient1445);fill-opacity:1;fill-rule:evenodd;stroke:none;stroke-width:1pt;stroke-linecap:butt;stroke-linejoin:miter;stroke-opacity:1"
       id="path714"
       d="m 407.20691,448.78644 a 5.3152466,5.3152466 0 0 1 -5.31525,5.31524 5.3152466,5.3152466 0 0 1 -5.31524,-5.31524 5.3152466,5.3152466 0 0 1 5.31524,-5.31525 5.3152466,5.3152466 0 0 1 5.31525,5.31525 z"
       sodipodi:cx="401.89166"
       sodipodi:cy="448.78644"
       sodipodi:rx="5.3152466"
       sodipodi:ry="5.3152466"
       transform="translate(-0.590592,-0.88588)" /><path
       sodipodi:type="arc"
       style="fill:url(#radialGradient1447);fill-opacity:1;fill-rule:evenodd;stroke:none;stroke-width:1pt;stroke-linecap:butt;stroke-linejoin:miter;stroke-opacity:1"
       id="path719"
       d="m 407.20691,448.78644 a 5.3152466,5.3152466 0 0 1 -5.31525,5.31524 5.3152466,5.3152466 0 0 1 -5.31524,-5.31524 5.3152466,5.3152466 0 0 1 5.31524,-5.31525 5.3152466,5.3152466 0 0 1 5.31525,5.31525 z"
       sodipodi:cx="401.89166"
       sodipodi:cy="448.78644"
       sodipodi:rx="5.3152466"
       sodipodi:ry="5.3152466"
       transform="translate(22.44213,-1.476471)" /><path
       style="font-size:12px;fill:url(#linearGradient1449);fill-rule:evenodd"
       d="M 435.2039,458.1105 C 435.4616,462.8411 418.5724,472.518 412.1313,472.518 C 405.0638,472.518 394.864,463.6107 394.4875,458.1105 C 394.2865,455.4702 405.0636,449.7585 413.8017,449.9673 C 424.0012,449.9673 435.0589,455.4488 435.2039,458.1105 z "
       id="path691"
       sodipodi:nodetypes="ccscs" /><path
       style="font-size:12px;fill:none;fill-rule:evenodd;stroke:#000000"
       d="M 395.0273,458.1467 C 397.3145,460.6473 403.0736,466.6393 412.2058,466.3692 C 423.2642,466.0525 429.2843,458.9946 431.9428,458.4952"
       id="path692"
       sodipodi:nodetypes="csc" /></g><path
     style="font-size:12px;fill:url(#linearGradient2308);fill-rule:evenodd"
     d="M 80.285648,24.451789 C 73.218651,21.228698 80.285648,28.104657 80.285648,28.31953 C 84.487632,35.219389 88.641881,28.582169 91.482994,28.582169 C 94.324106,28.582169 95.255233,30.110146 98.096378,30.110146 C 100.93749,30.110146 104.54259,29.346158 107.38374,29.346158 C 110.03384,30.683129 111.91996,27.245166 114.76108,27.245166 C 117.60222,27.245166 120.4433,31.256113 122.90244,29.537163 C 125.55258,28.582138 126.86568,31.44715 129.32482,32.593116 C 131.30641,34.598639 134.33856,35.553632 140.90417,35.076151 C 143.74529,35.076151 147.15941,31.065173 150.00053,31.065173 C 152.8655,31.996266 150.00049,25.764925 149.14101,25.741056 C 148.8545,27.627209 139.87755,32.617049 137.96755,31.829193 C 134.93541,32.402176 132.09429,30.492157 129.63516,29.346158 C 126.12556,28.964148 130.16044,25.71719 127.03282,25.526184 C 124.19171,25.526184 124.97956,25.526184 122.13845,25.526184 C 119.29734,25.526184 118.1752,22.088189 115.33409,22.088189 C 112.49298,22.088189 114.61784,27.818181 105.85573,23.807171 C 103.01461,23.807171 102.08349,26.099167 99.242344,26.099167 C 96.401231,26.099167 92.223115,21.897183 88.809019,23.807171 C 86.922899,24.571159 85.824636,25.764925 80.285648,24.451789 z "
     id="path736"
     sodipodi:nodetypes="cccccccccccccccccccc" /><path
     style="font-size:12px;fill-rule:evenodd"
     d="M 126.4338,25.820099 C 126.4338,30.202254 130.95987,33.843414 129.39344,33.843414 C 127.82708,33.843414 121.57174,31.147641 121.57174,26.765519 C 121.57174,22.383299 125.21306,18.129699 126.56882,17.345239 C 128.13522,16.33229 126.4338,21.437911 126.4338,25.820099 z "
     id="path758"
     sodipodi:nodetypes="cccsc" /><path
     style="font-size:12px;fill:#808080;fill-rule:evenodd"
     d="M 25.123085,56.562719 C 25.287804,60.073967 17.640553,62.50393 13.73237,63.636411 C 12.847265,63.786633 14.032001,65.450603 14.816132,65.24042 C 18.991403,63.963764 25.570353,61.5338 27.608998,57.590124 C 27.692861,57.295692 25.306306,56.28048 25.123085,56.562719 z "
     id="path697"
     sodipodi:nodetypes="ccccc" /><path
     style="font-size:12px;fill:url(#linearGradient2303);fill-rule:evenodd"
     d="M 218.22844,58.378529 C 218.22846,86.191933 196.27678,90.46636 162.01664,90.46636 C 85.354788,90.084382 11.217479,53.002118 11.081049,49.76677 C 10.890048,40.580767 50.280084,33.871429 123.44706,32.047856 C 141.98785,44.345244 155.88271,39.278594 156.20473,32.784645 C 187.79054,32.784645 218.22844,35.149183 218.22844,58.378529 z "
     id="path606"
     sodipodi:nodetypes="cccccc" /><path
     style="font-size:12px;fill:#383738;fill-rule:evenodd"
     d="M 156.30311,32.784678 C 157.35357,32.818991 158.70304,39.660605 144.93866,39.660605 C 132.7023,39.660605 122.53129,33.427906 123.16479,32.211695 C 124.02428,30.840377 132.03382,38.323665 144.27018,38.323665 C 156.69754,38.22813 154.93409,32.864398 156.30311,32.784678 z "
     id="path644"
     sodipodi:nodetypes="ccscs" /><path
     style="font-size:12px;fill:url(#linearGradient2299);fill-rule:evenodd"
     d="M 149.14068,41.728819 C 149.14068,43.959011 141.66595,44.719273 136.71832,44.719273 C 109.08098,44.719273 32.822108,44.341005 32.822108,42.110813 C 32.822108,39.880623 62.587513,33.461501 122.68362,32.15727 C 135.07466,43.993653 149.14068,37.206596 149.14068,41.728819 z "
     id="path833"
     sodipodi:nodetypes="ccccc" /><path
     style="font-size:12px;fill:url(#linearGradient2296);fill-rule:evenodd"
     d="M 58.066826,35.772262 C 51.069556,36.307795 19.159112,43.670743 22.102371,56.383841 C 10.851058,50.070515 -0.22544157,46.780769 0.0034884391,35.67676 C -0.04894516,17.212033 7.5406172,5.0298757 21.659381,0.82789158 C 44.440487,-5.2840471 58.066826,24.063349 58.066826,35.772262 z "
     id="path608"
     sodipodi:nodetypes="ccscc" /><path
     style="font-size:12px;fill:none;fill-rule:evenodd;stroke:#6e2b00;stroke-width:0.32340866"
     d="M 48.22757,12.661221 L 19.771503,12.756853 L 19.580507,54.825852"
     id="path658"
     sodipodi:nodetypes="ccc" /><path
     style="font-size:12px;fill:url(#linearGradient2292);fill-rule:evenodd;stroke:#ffa100;stroke-width:0.35627735"
     d="M 57.079071,43.098634 C 57.079071,44.786406 52.31966,45.77261 40.158006,45.77261 C 27.996406,45.77261 9.3292611,44.786406 9.3292611,43.098634 C 9.3292611,41.410861 27.9964,39.120416 40.158006,39.120416 C 52.31966,39.120416 57.079071,41.410861 57.079071,43.098634 z "
     id="path642"
     sodipodi:nodetypes="ccccc" /><g
     id="g704"
     transform="matrix(0.3234086,0,0,0.3234086,-4.8046771,-120.76123)"><path
       style="font-size:12px;fill:url(#linearGradient1461);fill-rule:evenodd"
       d="M 576.4074,473.5924 L 576.4074,653.1292 L 633.9165,653.1292 C 666.8386,653.1292 693.3425,636.7984 693.3425,616.5131 L 693.3425,510.2084 C 693.3425,489.9232 666.8386,473.5924 633.9165,473.5924 L 576.4074,473.5924 z "
       id="path620"
       sodipodi:nodetypes="ccccccc" /><path
       style="font-size:12px;fill:url(#radialGradient1463);fill-rule:evenodd;stroke-width:1"
       d="M 655.5453,632.4588 C 655.5453,637.3513 654.2946,641.3175 642.5525,641.3175 C 630.8104,641.3175 613.0235,637.3513 613.0235,632.4588 C 613.0235,627.5663 630.8104,623.6001 642.5525,623.6001 C 654.2946,623.6001 655.5453,627.5663 655.5453,632.4588 z "
       id="path618"
       sodipodi:nodetypes="ccccc" /><path
       style="font-size:12px;fill:url(#radialGradient1465);fill-rule:evenodd;stroke-width:1"
       d="M 655.5453,587.5746 C 655.5453,592.4671 654.2946,596.4333 642.5525,596.4333 C 630.8104,596.4333 613.0235,592.4671 613.0235,587.5746 C 613.0235,582.6821 630.8104,578.7159 642.5525,578.7159 C 654.2946,578.7159 655.5453,582.6821 655.5453,587.5746 z "
       id="path630"
       sodipodi:nodetypes="ccccc" /><path
       style="font-size:12px;fill:url(#radialGradient1467);fill-rule:evenodd;stroke-width:1"
       d="M 656.7264,543.8714 C 656.7264,548.7639 655.4757,552.7301 643.7336,552.7301 C 631.9915,552.7301 614.2046,548.7639 614.2046,543.8714 C 614.2046,538.9789 631.9915,535.0127 643.7336,535.0127 C 655.4757,535.0127 656.7264,538.9789 656.7264,543.8714 z "
       id="path631"
       sodipodi:nodetypes="ccccc" /><path
       style="font-size:12px;fill:url(#radialGradient1469);fill-rule:evenodd;stroke-width:1"
       d="M 654.3641,494.2627 C 654.3641,499.1552 653.1134,503.1214 641.3713,503.1214 C 629.6292,503.1214 611.8423,499.1552 611.8423,494.2627 C 611.8423,489.3702 629.6292,485.404 641.3713,485.404 C 653.1134,485.404 654.3641,489.3702 654.3641,494.2627 z "
       id="path632"
       sodipodi:nodetypes="ccccc" /></g><g
     id="g719"
     transform="matrix(0.3234086,0,0,0.3234086,1.307313,-120.76122)"><path
       style="font-size:12px;fill:#ff8000;fill-opacity:1;fill-rule:evenodd"
       d="M 435.8492,646.042 L 562.2337,744.0785 L 558.6902,647.2232 L 543.0397,647.5185 L 547.4692,711.5965 L 459.7678,646.9279 L 435.8492,646.042 z "
       id="path656"
       sodipodi:nodetypes="ccccccc" /><g
       id="g679"><path
         sodipodi:type="arc"
         style="font-size:12px;fill:#ffb000;fill-rule:evenodd;stroke-width:1"
         id="path648"
         d="m 564.59602,737.58215 a 48.427689,44.29361 0 0 1 -48.42769,44.29361 48.427689,44.29361 0 0 1 -48.42768,-44.29361 48.427689,44.29361 0 0 1 48.42768,-44.29361 48.427689,44.29361 0 0 1 48.42769,44.29361 z"
         sodipodi:cx="516.16833"
         sodipodi:cy="737.58215"
         sodipodi:rx="48.427689"
         sodipodi:ry="44.29361"
         transform="matrix(0.844687,0,0,0.923525,115.6024,51.68169)" /><path
         style="font-size:12px;fill:#383838;fill-rule:evenodd"
         d="M 564.1613,721.0456 C 564.1613,743.6374 545.847,761.9519 523.2551,761.9519 C 500.6632,761.9519 482.3488,743.6374 482.3488,721.0456 C 482.3488,698.4537 500.6632,680.1393 523.2551,680.1393 C 545.847,680.1393 564.1613,698.4537 564.1613,721.0456 z M 571.3803,721.0457 C 571.3803,747.6243 549.8341,769.1707 523.2553,769.1707 C 496.6767,769.1707 475.1303,747.6243 475.1303,721.0457 C 475.1303,694.467 496.6767,672.9206 523.2553,672.9206 C 549.8341,672.9206 571.3803,694.467 571.3803,721.0457 z "
         id="path651"
         transform="translate(28.34793,11.81165)" /><path
         sodipodi:type="arc"
         style="font-size:12px;fill:#383838;fill-rule:evenodd;stroke-width:1"
         id="path667"
         d="m 561.26065,734.98267 a 7.5168762,6.6816711 0 0 1 -7.51688,6.68167 7.5168762,6.6816711 0 0 1 -7.51687,-6.68167 7.5168762,6.6816711 0 0 1 7.51687,-6.68168 7.5168762,6.6816711 0 0 1 7.51688,6.68168 z"
         sodipodi:cx="553.74377"
         sodipodi:cy="734.98267"
         sodipodi:rx="7.5168762"
         sodipodi:ry="6.6816711"
         transform="matrix(0.997757,0,0,1.122474,-0.845918,-92.10437)" /></g></g><path
     style="font-size:12px;fill:url(#radialGradient2277);fill-rule:evenodd"
     d="M 180.59823,79.769781 C 179.05524,79.942559 177.3849,83.003835 178.61256,85.841985 C 179.59625,87.895348 180.42015,89.494395 186.32118,87.411426 C 188.53178,86.597413 189.79245,85.802054 191.48028,83.803548 C 192.87213,81.791356 194.47223,78.722626 192.8756,76.917132 C 190.77502,74.63724 187.97219,75.122302 186.31823,77.443897 C 184.68674,79.519856 182.64843,79.553618 180.59823,79.769781 z "
     id="path819"
     sodipodi:nodetypes="csscsss" /><path
     sodipodi:type="arc"
     style="font-size:12px;fill:url(#linearGradient1473);fill-rule:evenodd;stroke-width:1"
     id="path818"
     d="M 577.96582 562.92871 A 10.022522 15.033783 0 1 1  557.92078,562.92871 A 10.022522 15.033783 0 1 1  577.96582 562.92871 z"
     sodipodi:cx="567.9433"
     sodipodi:cy="562.92871"
     sodipodi:rx="10.022522"
     sodipodi:ry="15.033783"
     transform="matrix(0.2922515,3.5565865e-4,6.0274029e-3,0.2650884,12.16549,-65.496432)" /><text
     style="font-size:16.51255608px;font-style:normal;font-weight:normal;writing-mode:lr-tb;text-anchor:start;fill:#000000;fill-opacity:1;stroke:none;stroke-width:1pt;stroke-linecap:butt;stroke-linejoin:miter;stroke-opacity:1;font-family:Captain Podd"
     x="61.041233"
     y="62.305801"
     id="text846"
     transform="scale(0.9818819,1.0184525)"><tspan
       id="tspan847">GCompris</tspan></text>
<g
     id="g714"
     transform="matrix(0.3234086,0,0,0.3234086,1.307313,-120.76122)"><path
       style="font-size:12px;fill:url(#linearGradient1475);fill-opacity:1;fill-rule:evenodd;stroke:#ff7500;stroke-width:1;stroke-opacity:1"
       d="M 628.3786,430.6275 C 628.3786,445.0114 611.4692,445.2443 570.085,445.2443 C 541.8713,445.2443 505.3595,445.7766 475.9009,444.2157 C 465.3411,427.2997 429.3526,434.8665 424.0374,428.2652 C 424.0374,422.1495 449.7227,382.6427 570.085,382.6427 C 626.5124,382.6427 628.3786,424.5118 628.3786,430.6275 z "
       id="path610"
       sodipodi:nodetypes="cccccc" /><path
       style="fill:none;fill-opacity:1;fill-rule:evenodd;stroke:#9f4f00;stroke-width:1pt;stroke-linecap:butt;stroke-linejoin:miter;stroke-opacity:1"
       d="M 500.8132,388.5484 L 467.7407,420.4398 L 428.1716,421.0305"
       id="path657"
       sodipodi:nodetypes="ccc" /><path
       style="font-size:12px;fill:#ff9100;fill-opacity:1;fill-rule:evenodd;stroke:none;stroke-opacity:1"
       d="M 481.9144,425.1647 L 418.1316,596.4798 L 432.3056,597.6454 L 567.8441,442.6179 L 493.1355,597.6455 L 510.5577,599.9767 L 596.4872,426.2993 L 572.864,427.1735 L 439.9831,575.353 L 499.632,425.4251 L 481.9144,425.1647 z "
       id="path614"
       sodipodi:nodetypes="ccccccccccc" /><path
       style="font-size:12px;fill:url(#linearGradient1477);fill-opacity:1;fill-rule:evenodd;stroke:#ff7f00;stroke-width:1;stroke-opacity:1"
       d="M 543.3348,628.9153 C 543.3348,637.0695 529.2599,648.4044 494.813,648.4044 C 447.8446,648.4044 373.2474,637.0695 373.2474,628.9153 C 373.2474,620.761 400.5329,579.7783 500.7188,579.7783 C 547.6873,579.7783 543.3348,620.761 543.3348,628.9153 z "
       id="path611"
       sodipodi:nodetypes="ccccc" /></g><path
     style="font-size:12px;fill:url(#linearGradient2264);fill-rule:evenodd"
     d="M 67.154544,41.426546 C 64.648452,41.569751 62.692443,42.781337 61.997535,47.108836 C 61.81966,48.264473 62.451957,47.87276 66.915805,45.962805 L 91.363817,45.962805 C 92.580675,45.962805 93.655782,45.412914 93.655782,43.814046 C 93.655815,41.976438 92.771648,41.378811 91.889033,41.378811 L 67.154544,41.426546 z "
     id="path850"
     sodipodi:nodetypes="csccccc" /></svg>