<svg xmlns:dc="http://purl.org/dc/elements/1.1/" xmlns:cc="http://creativecommons.org/ns#" xmlns:rdf="http://www.w3.org/1999/02/22-rdf-syntax-ns#" xmlns="http://www.w3.org/2000/svg" width="47.016792" height="34.768898" viewBox="0 0 47.016791 34.7689" version="1.1" id="svg1900"><metadata id="metadata1897"><rdf:RDF><cc:Work><dc:format>image/svg+xml</dc:format><dc:type rdf:resource="http://purl.org/dc/dcmitype/StillImage"/><dc:title/><dc:date>2023</dc:date><dc:creator><cc:Agent><dc:title>Timothée Giet</dc:title></cc:Agent></dc:creator><cc:license rdf:resource="http://creativecommons.org/licenses/by-sa/4.0/"/></cc:Work><cc:License rdf:about="http://creativecommons.org/licenses/by-sa/4.0/"><cc:permits rdf:resource="http://creativecommons.org/ns#Reproduction"/><cc:permits rdf:resource="http://creativecommons.org/ns#Distribution"/><cc:requires rdf:resource="http://creativecommons.org/ns#Notice"/><cc:requires rdf:resource="http://creativecommons.org/ns#Attribution"/><cc:permits rdf:resource="http://creativecommons.org/ns#DerivativeWorks"/><cc:requires rdf:resource="http://creativecommons.org/ns#ShareAlike"/></cc:License></rdf:RDF></metadata><g id="g1043" transform="translate(-.546 -.128)" style="stroke-width:1.78914"><path style="fill:#2a4a4a;fill-opacity:1;stroke:none;stroke-width:1px;stroke-linecap:butt;stroke-linejoin:miter;stroke-opacity:1" d="M26.022 18.694c-2.442-3.238-18.674-9.847-23.65-7.877-4.248 1.682.006 4.665 1.813 7.502 1.807 2.838 3.182 5.164 4.208 5.44 1.026.277 2.207.168 1.959.613-.249.444-1.345 2.02-.372 4.663.973 2.642 8.536 6.12 10.449 5.847 1.912-.272 5.981-3.461 7.276-8.96 1.296-5.498-1.683-7.228-1.683-7.228z" id="path865"/><ellipse style="opacity:.999223;fill:#20dcae;fill-opacity:1;stroke:none;stroke-width:2.2;stroke-opacity:1" id="path867" cx="17.126539" cy="20.437342" rx="6.6029348" ry="1.0471512"/><ellipse style="opacity:.999223;fill:#20dcae;fill-opacity:1;stroke:none;stroke-width:2.2;stroke-opacity:1" id="path869" cx="22.850758" cy="9.0407791" rx="5.2817206" ry="0.92233014" transform="rotate(21.426)"/><ellipse style="opacity:.999223;fill:#20dcae;fill-opacity:1;stroke:none;stroke-width:2.2;stroke-opacity:1" id="path867-3" cx="13.721062" cy="15.194136" rx="6.6029348" ry="1.0471512" transform="rotate(9.763)"/><ellipse style="opacity:.999223;fill:#20dcae;fill-opacity:1;stroke:none;stroke-width:2.2;stroke-opacity:1" id="path891" cx="10.451987" cy="14.203361" rx="1.4618993" ry="0.8315925"/><ellipse style="opacity:.999223;fill:#176bd7;fill-opacity:1;stroke:none;stroke-width:2.24139;stroke-opacity:1" id="path867-6" cx="-24.062651" cy="35.13303" rx="3.9891281" ry="1.0261806" transform="matrix(.40128 -.91596 .99 .1411 0 0)"/><ellipse style="opacity:.999223;fill:#176bd7;fill-opacity:1;stroke:none;stroke-width:2.25778;stroke-opacity:1" id="path867-6-7" cx="-17.109739" cy="35.724876" rx="5.326098" ry="1.4774739" transform="matrix(.67935 -.73381 .90994 .41473 0 0)"/><ellipse style="opacity:.999223;fill:#176bd7;fill-opacity:1;stroke:none;stroke-width:2.2;stroke-opacity:1" id="path933" cx="15.359998" cy="27.210886" rx="1.5314498" ry="1.3300736"/><path style="fill:#2a4a4a;fill-opacity:1;stroke:none;stroke-width:1px;stroke-linecap:butt;stroke-linejoin:miter;stroke-opacity:1" d="M28.105 18.76C28.62 14.738 39.435.948 44.733.19c4.522-.648 2.308 4.053 2.147 7.413-.162 3.36-.201 6.062-.955 6.811-.753.749-1.833 1.24-1.397 1.503.436.263 2.17 1.088 2.636 3.865.466 2.777-4.376 9.548-6.171 10.26-1.796.713-6.911-.038-10.763-4.169-3.852-4.131-2.125-7.111-2.125-7.111z" id="path991"/><ellipse style="opacity:.999223;fill:#20dcae;fill-opacity:1;stroke:none;stroke-width:2.2;stroke-opacity:1" id="ellipse993" cx="-23.991463" cy="31.975533" rx="6.6029348" ry="1.0471512" transform="scale(-1 1) rotate(29.742)"/><ellipse style="opacity:.999223;fill:#20dcae;fill-opacity:1;stroke:none;stroke-width:2.2;stroke-opacity:1" id="ellipse995" cx="-11.210834" cy="34.801758" rx="5.2817206" ry="0.92233014" transform="scale(-1 1) rotate(51.168)"/><ellipse style="opacity:.999223;fill:#20dcae;fill-opacity:1;stroke:none;stroke-width:2.2;stroke-opacity:1" id="ellipse997" cx="-24.845016" cy="33.53746" rx="6.6029348" ry="1.0471512" transform="scale(-1 1) rotate(39.505)"/><ellipse style="opacity:.999223;fill:#20dcae;fill-opacity:1;stroke:none;stroke-width:2.2;stroke-opacity:1" id="ellipse999" cx="-30.666016" cy="25.741552" rx="1.4618993" ry="0.8315925" transform="scale(-1 1) rotate(29.742)"/><ellipse style="opacity:.999223;fill:#176bd7;fill-opacity:1;stroke:none;stroke-width:2.24139;stroke-opacity:1" id="ellipse1001" cx="-41.941452" cy="0.84636033" rx="3.9891281" ry="1.0261806" transform="matrix(-.80282 -.59622 -.78958 .61365 0 0)"/><ellipse style="opacity:.999223;fill:#176bd7;fill-opacity:1;stroke:none;stroke-width:2.25778;stroke-opacity:1" id="ellipse1003" cx="-46.127953" cy="12.202117" rx="5.326098" ry="1.4774739" transform="matrix(-.9539 -.30012 -.58433 .81152 0 0)"/><ellipse style="opacity:.999223;fill:#176bd7;fill-opacity:1;stroke:none;stroke-width:2.2;stroke-opacity:1" id="ellipse1005" cx="-25.758005" cy="38.749077" rx="1.5314498" ry="1.3300736" transform="scale(-1 1) rotate(29.742)"/><ellipse style="opacity:.999223;fill:#2a4a4a;fill-opacity:1;stroke:none;stroke-width:2.2;stroke-opacity:1" id="path961" cx="22.646086" cy="27.762234" rx="1.3460827" ry="6.7401009" transform="rotate(-12.054)"/><ellipse style="opacity:.999223;fill:#2a4a4a;fill-opacity:1;stroke:none;stroke-width:2.2;stroke-opacity:1" id="path963" cx="23.675646" cy="19.718191" rx="1.1135019" ry="1.4831659" transform="rotate(-8.926)"/></g></svg>