<!--Created with Inkscape (http://www.inkscape.org/)--><svg xmlns:dc="http://purl.org/dc/elements/1.1/" xmlns:cc="http://creativecommons.org/ns#" xmlns:rdf="http://www.w3.org/1999/02/22-rdf-syntax-ns#" xmlns="http://www.w3.org/2000/svg" xmlns:sodipodi="http://sodipodi.sourceforge.net/DTD/sodipodi-0.dtd" xmlns:inkscape="http://www.inkscape.org/namespaces/inkscape" width="18.474712" height="23.757446" viewBox="0 0 18.474713 23.757447" inkscape:version="0.91 r13725" sodipodi:docname="photo7_3.svg"><sodipodi:namedview pagecolor="#ffffff" bordercolor="#666666" borderopacity="1.0" inkscape:pageopacity="0.0" inkscape:pageshadow="2" inkscape:zoom="0.98994949" inkscape:cx="-240.89038" inkscape:cy="40.174294" inkscape:document-units="px" inkscape:current-layer="layer1-3" showgrid="false" units="px" inkscape:window-width="1920" inkscape:window-height="1176" inkscape:window-x="1680" inkscape:window-y="24" inkscape:window-maximized="1" showguides="false" fit-margin-top="0" fit-margin-left="0" fit-margin-right="0" fit-margin-bottom="0"/><metadata><rdf:RDF><cc:Work><dc:format>image/svg+xml</dc:format><dc:type rdf:resource="http://purl.org/dc/dcmitype/StillImage"/><dc:title/></cc:Work></rdf:RDF></metadata><path d="M102.598 801.327c.19 1.194.27 2.351.007 3.534-.384.898-1.142 1.51-1.91 2.073-.615.496-1.316.901-1.897 1.438-.528.645-.398.926.03 1.537.448.567 1.085.998 1.741 1.295.743.264 1.537.28 2.316.3-1.396 0 2.659.028 1.277.01-4.209-.065-2.94.265-1.901-.289.506-.458.802-1.113.992-1.76.222-.744-.176-1.349-.62-1.92-.499-.486-1.077-.88-1.57-1.37a5.734 5.734 0 0 1-1.41-1.693 4.326 4.326 0 0 1-.38-2.44c.273-1.353.493-.638 3.174-.299.164.021-.055.946-.083 1.053a9.838 9.838 0 0 0-.598 2.432 20.983 20.983 0 0 0-.44 2.576c-.079 1.011-.187 1.164.503 1.88.874.628 2.729.336-2.3.162-.105-.01.289.021.163-.157-.413-.574-.624-1.196-.77-1.882-.156-.758-.161-1.654.687-1.942 1.061.051 2.127.053 3.185.154.4.038.493.792 1.06.693-3.477.031-3.24.738-2.614-.36.185-.324.388-.533.679-.764 1.25-.659 3.896-1.284 4.14.424-.142.832-.095.733.487 1.173.603.564.43 1.161.102 1.82-.173.577-1.152.902-1.152 1.518.311.6.1 1.15-.234 1.688-1.334 1.93-1.471 1.311-4.439 1.262-.39-.606-.37-1.363-.393-2.059 0-.142-.006-.284-.006-.426 0-.11-.006-.219-.007-.328 0-.08-.09-.246-.01-.24 3.098.198 2.999-.756 2.998.542.048.767-.01 1.41-.63 1.915-1.526.659-3.614.567-5.12.247-.036-.011-.354-.082-.393-.18-.368-.92 2.011-.491 3.562-.479.459.293.993.56.743 1.163-1.036-.054-2.077-.047-3.108-.163-.093-.01-1.308-1.269-1.45-1.418-.665-.628-1.39-1.187-2.07-1.794-.137.165-1.082-1.308-.605-1.328 1.04-.045 2.082.044 3.123.066.833.834 1.908.46-2.656.287-.057 0-.024-.115-.052-.166-.03-.055-.078-.097-.117-.146-.363-.538-.558-1.156-.406-1.794.727-1.205 1.653-.464 3.496-.48.052 0 .204.024.153.024-2.85-.024-3.375.697-2.76-.107-.086-.54-.024-.908.432-1.244 1.54-.511 3.45-.733 4.932-.013.584.39 1.218.763 1.252 1.532-.201.623-.807.909-1.32 1.244-.607.471-1.253.9-1.934 1.258-.697.324-1.465.378-2.22.424.371-.322-.209.073-.2.01.018-.153.236-.427.085-.452-.91-.154-3.675-.151-2.766 0 5.061.833 2.05-.441 3.56.223.761.248 1.454.641 2.227.856.383.259 1.582.283 1.725.698-.035.102-.033.223-.102.305-.118.14-1.394.098-1.598.1-1.84.01-3.68 0-5.519-.01-1.063.056-3.088-.22 1.689.031.19.01-.403.089-.518.24.561.325 1.256.399 1.89.475.665.223 1.493.387 2.057.833.017.181.064.287-.106.44-.145.129-1.025.25-1.232.296-.087.028-.84.28-.415-.2.098-.11.295-.01.442-.01.108 0 .217.01.325.01.294.01.467.01.764.01h.415c-3.592 0-3.37-.017.812.07.343.06.706.136.888.472.104.191.065.386.192.567.092.09.967.152.892.152-2.964-.01-3.418.057-2.162-.082 1.093-.113 2.133-.497 3.118-.965.463-.276.968-.53 1.35-.921.074-.075.22-.337.128-.286-.06.033-.09.102-.136.153 4.803-.192 2.484-.01 1.11.597.243-1.11.289-.13-2.63-.363-.123-.01.231-.093.342-.15.217-.112.684-.414.871-.531a23.48 23.48 0 0 0 2.675-1.947c.664-.645.058-.528-.47-.57a22.02 22.02 0 0 0-1.36-.044c-.159 0-.635-.01-.476 0 2.573.044 3.279-.08 1.996.102-1.27.262-1.577.145-3.476-.31-.158-.038.822-.843.829-.848a39.86 39.86 0 0 0 2.781-2.402c.244-.263 1.526-1.378 1.002-1.79-1.011.034-2.436-.245 2.158.045.127.01-.25.06-.371.097-.373.114-.577.204-.943.35-1.316.662-2.508 1.535-3.74 2.335-.208.08-1.309 1.021-1.494 1.002-3.1-.312-3.333.483-2.802-.717.419-.802.867-1.588 1.271-2.398.327-.688.844-1.31 1.121-2.021-.306 1.162-.098.074 2.804.258.075.01-.12.091-.179.139-.336.276-.64.575-.943.885-.706.678-1.336 1.485-2.206 1.957-3.333.105-3.75.656-2.967-1.84.268-1.07.712-2.08 1.07-3.119.084-.33.248-.732.164-1.086-.05-.21-.184-.059-.178-.058.92.074 1.843.108 2.764.162-.686.713-1.16 1.58-1.613 2.45-.373.753-.588 1.588-1.11 2.26-3.266 2.691-3.388-.306-3.47-1.768.036-.208-.05-.416-.036-.624.08-1.24 2.616-.638 3.431-.13 1.041.322.523.145-2.638-.015-.05 0 .101-.032.137-.068.051-.053.082-.123.115-.19.152-.313.176-.45.282-.8.28-1.07.345-2.175.388-3.276.028-.964.023-1.93.02-2.895-.042-.725.08-1.453.817-1.738 1.062.016 2.13-.053 3.187.049.113.01.132.185.202.276.35.454.517.858.665 1.415.22 1.062.224 2.153.24 3.234.016.89-.009 1.781.016 2.672-3.484-.11-2.99.61-2.984-1.542 0-.144-.008-.288 0-.432.006-.056.11-.86.183-.861 3.14-.036 2.863-.858 3.144.408.134.977-.054 1.975-.237 2.935-.292 1.117-.754 2.26-1.74 2.927-3.21.731-3.554.413-4.547-1.582-.295-.775-.672-1.513-.892-2.315-.145-.63-.123-1.379-.598-1.87-.787.842.077-.144 2.749.133.098.01-.067.186-.087.282-.03.147-.048.297-.065.446-.045.386-.054.691-.076 1.083.047 1.038.153 2.13.754 3.004.458.615.29.95-.439 1.067-1.08-.014-2.16-.01-3.24-.042-.296-.01-.594-.197-.888-.226-.06-.01-.24.031-.18.03.997-.01 1.993-.035 2.989-.053.096.322.432.382.654.595.27.31.128.166.424.436.378.45.927.782.663 1.423-.517.465-1.313.404-1.969.425-.706.01-1.455-.114-1.94.488-.233.706.503 1.13.93 1.572.566.517 1.396.743 1.633 1.531-.044.687-.653 1.049-1.23 1.289-.103-.071-.525.315-.579.292-.036-.016.174-.111.41-.095.919.053 1.839.05 2.758.052H96.63c-.34 0 .68-.01 1.02 0 1.6.027 2.888-.517 3.984.458.601.467.75 1.172.85 1.885.13.802.037 1.575-.122 2.36l-2.975-.06c.154-.753.262-1.487.123-2.257-.1-.659-.26-1.255-.842-1.65-.084-.05-.163-.114-.254-.15-.108-.044-.455-.083-.338-.09 4.677-.266 2.572-.032 1.477-.031h-3.458c-.93-.01-1.869.017-2.793-.107-.71-.235-.411-.791.173-.97.441-.13 1.043-.352 1.201-.823-.291-.676-1.166-.843-1.612-1.4-.564-.564-1.202-1.1-.943-1.981.495-.838 1.08-.791 1.98-.768.64-.011 1.287-.015 1.917-.147.35-.155-.537-.844-.647-1.001-.4-.39-.95-.684-1.098-1.25.986-.144 1.97-.307 2.96-.43.419-.052 5.488 1.385-1.6.26.55-.019.889.21.424-.463-.558-.965-.707-2.082-.744-3.184.054-1.259.07-5.288 3.414-2.128.389.598.461 1.299.59 1.986.226.778.587 1.508.883 2.26.187.375.34.79.665 1.074.087.076.403.181.288.194-1.95.22-3.63-.1-2.326.13 1.05-.416 1.448-1.665 1.746-2.662.172-.915.356-1.871.203-2.8-.384-1.089-.16-.265 2.832-.331.039 0-.06.05-.076.086-.074.16-.119.46-.13.619-.008.143 0 .287 0 .431.009 2.147.512 1.427-2.975 1.54.035-.888.013-1.777.016-2.666-.015-1.055-.02-2.122-.249-3.157-.112-.38-.215-.717-.466-1.032a1.57 1.57 0 0 0-.207-.227c-.055-.046-.259-.101-.187-.105.908-.054 1.82-.03 2.73-.045-.763-.01-.844.687-.807 1.327 0 .969 0 1.939-.03 2.908-.048 1.123-.112 2.25-.384 3.346-.45 1.701-1.026 2.876-3.836 1.29-.94-.614.022.052 2.692-.12.06-.01-.053-.121-.108-.143-.1-.04-.05.211-.048.319.006.127.009.254.013.38.02.328.03.594.075.918.017.126.034.253.068.376.02.075.17.206.092.213-.624.062-3.93.061-2.706.061.61-.57.743-1.472 1.13-2.185.463-.89.935-1.778 1.596-2.542 2.786-.226 3.856-1.087 3.183 1.316-.355 1.037-.815 2.038-1.072 3.108-.089.299-.204.59-.271.895a1.203 1.203 0 0 0-.032.3c0 .052.012.111.046.151.019.021.112-.01.084 0l-2.777.062c.928-.287 1.513-1.208 2.208-1.836.768-.814 3.45-3.662 4.27-.946-.269.705-.833 1.363-1.16 2.047-.392.812-.836 1.595-1.25 2.396-.599 1.117-.062.282-3.145.227-.063 0 .125-.018.182-.044.221-.1.652-.397.82-.513.18-.125.356-.256.534-.384 1.248-.786 2.44-1.663 3.727-2.387 1.511-.662 3.67-1.402 5.082-.307.339.869-.484 1.622-1.041 2.191-.89.85-1.822 1.655-2.776 2.43-.04.03-.786.673-.788.673-5.742-.019-3.532.032-2.452-.201 1.873-.32 3.826-.178 5.72-.058.797.172 1.109.56.48 1.246-.836.74-1.753 1.378-2.687 1.988-1.623 1.056-1.64 1.045-4.41.89-.314-.017-.128-.372-.088-.47.187-.106 1.485-.646 1.617-.652 1.07-.05 2.142-.011 3.213-.017.054.074.132.136.163.223.249.71-1.158 1.253-1.536 1.558-.974.504-2.024.919-3.116 1.065-1.473.223-.609.113-3.726.085-.355-.01-.724-.146-.932-.436-.26-.613-.252-.658-1.034-.758 6.187-.077-.457.012-2.322-.052-.87-.065-.75-.575-.023-.65.263-.052 1.266-.475 1.305-.038a7.096 7.096 0 0 0-2.015-.703c-.697-.11-1.747-.19-1.947-1.002.363-1.366 3.392-.513 4.755-.632h1.739-2.088c.143 0 1.504-.047 1.556 0 .06.056.054.157.081.236-.039.073-1.48-.431-1.676-.5-.758-.254-1.467-.63-2.231-.87-.111-.032-.448-.09-.333-.096.893-.045 3.573.02 2.68-.023-1.049-.05-2.11.146-3.152 0-.213-.03-.184-.655.134-.472.744-.03 1.501-.05 2.21-.305.692-.307 1.336-.743 1.927-1.213.434-.315.94-.532 1.294-.946-.013-.608-.775-.923-1.222-1.186-1.017-.299-2.683-.158 1.971-.161.899 0-1.954.046-.976.136-.555.197-.452.516-.408 1.036-.02.074.014.212-.062.223-1.956.264-6.195.194-.493.12.131 0-.586.072-.344.193-.196.546.108 1.088.407 1.542.834 1.576-2.177 1.309-3.128.573 4.176-.043 1.77-.867 3.407.63.697.599 1.412 1.178 2.073 1.818.412.412.833.82 1.278 1.198.892.76.65.156-2.647.18.187.567-.133-.248-.73-.299.906-.01 1.81-.02 2.716-.032-.025 0-.527-.047-.344-.244.084-.091.312.344.36.09 1.182.172.615.071-2.225.083-.133 0 .267-.012.4-.023.35-.027.701-.07 1.033-.189.673-.339.659-.926.615-1.618-.022-1.295-.105-.332 2.987-.535.077-.01-.013.152-.014.228v.326c0 .14.006.28.007.42.019.503-.071 1.363.387 1.685-.926.018-1.851.042-2.777.055-.079 0 .16.01.233-.02.484-.18.75-.712 1.049-1.089.39-.525.441-.918.21-1.52.033-.73.797-1.083 1.172-1.648.29-.556.486-.966-.101-1.405-.495-.372-.662-.78-.504-1.397-.024-.107-.01-.193-.117-.248-.044-.023-.195-.038-.145-.039 5.167-.177 3.017-.267 2.074.097-.28.168-.498.32-.663.613-.778 1.376.882.677-3.328.642-.323-.165-.532-.44-.828-.64-.836-.565-2.374-.089 2.497-.177-.865-.186-.806.85-.674 1.43.16.686.446 1.27.798 1.873.243 1.62-2.906 1.27-3.828.29-.604-.679-.603-1.247-.499-2.13.085-.872.237-1.73.44-2.583.1-.848.274-1.681.593-2.477.084-.276.138-.355.117-.64-.006-.064-.114-.176-.052-.183 4.168-.47 3.096-.995 2.794.19-.11.779.006 1.536.37 2.243.374.614.857 1.15 1.412 1.608.527.471 1.097.895 1.568 1.425.463.668.865 1.353.627 2.19-.194.719-.524 1.404-1.006 1.975-1.483 1.1-3.523.345-5.271.44-.795-.037-1.605-.083-2.337-.427-.668-.367-1.315-.815-1.758-1.446-.438-.67-.532-1.267-.024-1.947.547-.595 1.301-.96 1.91-1.49.743-.498 1.46-1.062 1.902-1.856.279-1.146.206-2.267-.02-3.424l2.976-.042z" style="fill:#d45500" inkscape:connector-curvature="0" transform="translate(-91.845 -793.758)" inkscape:label="Layer 1" inkscape:groupmode="layer"/></svg>