<!--Created with Inkscape (http://www.inkscape.org/)--><svg xmlns:dc="http://purl.org/dc/elements/1.1/" xmlns:cc="http://creativecommons.org/ns#" xmlns:rdf="http://www.w3.org/1999/02/22-rdf-syntax-ns#" xmlns="http://www.w3.org/2000/svg" xmlns:sodipodi="http://sodipodi.sourceforge.net/DTD/sodipodi-0.dtd" xmlns:inkscape="http://www.inkscape.org/namespaces/inkscape" width="638" height="638" viewBox="0 0 638.00001 638.00001" inkscape:version="0.91 r13725" sodipodi:docname="photo9.svg"><sodipodi:namedview pagecolor="#ffffff" bordercolor="#666666" borderopacity="1.0" inkscape:pageopacity="0.0" inkscape:pageshadow="2" inkscape:zoom="0.98994949" inkscape:cx="536.48161" inkscape:cy="368.14806" inkscape:document-units="px" inkscape:current-layer="layer1-3" showgrid="false" units="px" inkscape:window-width="812" inkscape:window-height="1004" inkscape:window-x="57" inkscape:window-y="21" inkscape:window-maximized="0" showguides="false"/><metadata><rdf:RDF><cc:Work><dc:format>image/svg+xml</dc:format><dc:type rdf:resource="http://purl.org/dc/dcmitype/StillImage"/><dc:title/></cc:Work></rdf:RDF></metadata><g inkscape:label="Layer 1" inkscape:groupmode="layer"><path style="fill:#282973" inkscape:connector-curvature="0" d="M549.435 468.777c0 131.247 2.166 114.76 2.166 340.691l-819.358-1.104c-2.885-.004 173.202.16 171.567.173l2.143-339.139z" sodipodi:nodetypes="ccsccc" transform="translate(90.01 -469.382)"/><path style="fill:#8080ff;stroke:#fff6d5;stroke-width:1.14589369" inkscape:connector-curvature="0" d="M-261.066 951.259V712.053c17.904-8.657 40.693-8.79 52.973-20.493 8.012-7.668 30.168-6.406 41.295-11.731 8.926-4.26 22.334 2.666 33.485 2.666 9.254 0 15.183-14.717 23.438-18.664 2.665-1.271 42.411 3.04 42.411-4.266 0-10.817 19.654-7.467 28.648-7.467 10.152 0 30.507 6.617 30.507-5.866 0-2.395 6.148-6.54 3.74-7.475 7.859 3.05 34.186-24.55 45.37-13.856 5.371 5.13 16.461 11.59 27.012 11.198 3.233-.12 20.82 1.6 29.91 1.6 22.394 0 20.483 1.27 33.483 7.466 4.588 2.197 10.809 10.52 17.859 13.866 5.592 2.676 19.998 22.986 32.366 17.064 19.73-9.43 60.871-1.196 85.94 0 26.565 1.269 45.269-23.205 69.2-34.662 12.523-5.976 35.23-8.092 44.645-17.065 11.234-10.753 41.713-7.834 55.805-11.198 11.42-2.731 26.133-.691 35.715 1.6.469.112 15.627 16.687 15.627 15.997 17.226 8.224 37.45 6.416 55.146 1.612 0 0-608.763 316.743-804.575 318.88z" sodipodi:nodetypes="ccccscssscccsccccccccccc" transform="translate(90.01 -469.382)"/><path style="fill:#8080ff;stroke:#fff6d5;stroke-width:1.14703965" inkscape:connector-curvature="0" d="M-261.066 951.259V712.06c17.945-8.664 40.787-8.773 53.094-20.5 8.037-7.676 30.225-6.41 41.38-11.733 8.942-4.263 22.385 2.667 33.55 2.667 9.268 0 15.216-14.715 23.486-18.664 2.662-1.267 42.498 3.04 42.498-4.267 0-10.823 19.718-7.466 28.705-7.466 10.151 0 30.569 6.626 30.569-5.866 0-2.396 6.16-6.54 3.747-7.475 7.896 3.056 34.238-24.552 45.46-13.856 5.38 5.137 16.504 11.59 27.068 11.198 3.243-.12 20.863 1.6 29.97 1.6 22.407 0 20.535 1.263 33.55 7.466 4.587 2.186 10.845 10.52 17.895 13.865 5.62 2.691 20.028 22.979 32.433 17.065 19.782-9.436 60.988-1.196 86.114 0 26.632 1.27 45.334-23.22 69.34-34.662 12.54-5.974 35.308-8.08 44.734-17.065 11.282-10.747 41.792-7.826 55.918-11.199 11.446-2.727 26.183-.692 35.788 1.6.47.112 15.657 16.692 15.657 15.998 17.267 8.218 37.526 6.417 55.26 1.612 76.265-15.37 53.777 36.53 63.977 36.648L573.77 928.964s-660.195 8.949-834.837 22.295z" sodipodi:nodetypes="ccccscsssccssccccccccccccc" transform="translate(90.01 -469.382)"/><path style="fill:#8787de;stroke:#fff6d5;stroke-width:1.14589369" inkscape:connector-curvature="0" d="M567.083 839.266c-4.567-.653-26.602-11.616-30.733-11.479-5.675.19-12.963-12.948-12.963-17.75 0 .766-29.412-15.52-33.568-19.677-13.96-13.959-4.068-29.619-10.418-48.615-2.597-7.8 1.244-20.653-2.315-27.781-3.005-6.01-15.704-6.541-21.993-11.576-4.159-3.326-11.107-9.723-13.89-6.946-2.277 2.285-15.393 13.006-16.224 11.982 10.606 13.05-33.433 45.258-41.653 49.367-6.072 3.027-19.752 11.039-30.096 16.206-8.954 4.487-97.463-4.17-97.233-4.631-2.533 5.075-1.539 15.035-3.472 20.836-4.799 14.388-14.154 20.66-21.993 32.41-9.634 14.443-27.208 25.066-40.566 18.496-17.984-8.847-22.42-29.871-30.043-45.118-4.823-9.657-15.834-25.949-15.046-36.546 1.081-14.498-5.63-17.68-15.05-27.119-6.28-6.285-34.556-15.217-42.829-6.945-5.74 5.74-42.173 17.911-40.066 27.807.54-.075 1.08-.155 1.618-.237-11.22 11.704-16.758 50.282-37.72 49.598-4.83-.158-27.632 19.99-31.233 23.748.539-.081 1.077-.161 1.618-.237-1.66-7.792-17.035 30.243-13.442 26.65-6.31 6.323-19.868 17.9-27.781 27.78-8.652 10.818-29.205-11.576-43.987-11.576-20.13 0-25.858 10.23-46.3 0-16.443-8.222-25.678 5.372-35.884 13.89-6.77 5.644-52.598 37.506-52.395 46.08.236 9.95-12.9 11.85-22.493 14.608v-1.796c8.535-15.016 18.16-41.493 21.642-48.474 3.728-7.459 3.426-50.165 13.96-49.767-2.21-.084 11.057-13.45 12.663-15.055 7.153-7.168 2.606-16.774 6.945-25.466 3.511-7.007 17.373-31.811 16.612-32.43 1.568 1.273 14.738-11.709 19.944-11.636 16.118.227 28.546 2.604 38.629-7.852 13.346-13.842 21.822-32.355 31.31-41.842 8.836-8.837 30.827-10.524 46.3-12.733 9.214-1.313 29.302-7.672 33.568-16.205 5.472-10.96 15.17-7.265 27.78-10.417 23.744-5.936 16.535-28.609 28.94-45.144 11.276 18.803 22.32 36.625 43.986 47.458 4.497 2.252 34.726 17.377 34.726 17.363 0 10.691.016 18.06 13.89 20.836 30.05 6 32.41 22.884 32.41 50.545 0 14.517-2.094 32.055 3.473 43.214 2.642 5.276 5.788 11.362 5.788 18.52" sodipodi:nodetypes="cccsccccccccccccccscccccccsccccccccccscscccccccscc" transform="translate(90.01 -469.382)"/><path style="fill:#8787de;stroke:#fff6d5;stroke-width:1.14589369" inkscape:connector-curvature="0" d="M257.154 775.315c0-13.607 10.415-31.25 16.206-42.828 7.36-14.722-6.04-20.536 5.788-32.41 5.868-5.869 20.555-21.274 31.253-26.623 6.052-3.026 12.168-10.135 17.362-12.733 5.561-2.78 18.98.69 24.432-3.55-.792.06-1.453.334-1.98.828 3.947-.938 7.879-1.945 11.792-3.02-.582-.508-1.308-.436-2.178.219 3.289-.617 23.414-2.54 30.44-6.053 6.098-3.042 2.799-7.44 6.946-11.576 2.932-2.925 10.879-20.987 10.289-22.764-.74-2.226 9.326-5.83 5.456.561-3.128 5.166 5.155 16.546 7.405 21.046 4.988 9.945 2.667 13.18-2.314 23.15-8.662 17.351-9.26 26.038-9.26 52.09 0 2.93-5.477 23.15-6.947 23.15v-2.316c.978 0-8.101 16.094-8.101 13.89" transform="translate(90.01 -469.382)"/><path style="fill:#dbdbe3;stroke:#fff6d5;stroke-width:.90158921" sodipodi:nodetypes="cssscccscccc" inkscape:connector-curvature="0" d="M465.988 683.48c-16.236 0-32.859-13.097-49.095-13.097 18.455 0 36.62 30.928 42.3 42.062 3.008 5.882 20.73 26.766 26.683 26.766 7.758 0 4.45 14.02 15.618 14.02 16.83 0 23.59-.336 37.982 6.92a4.505 4.505 0 0 0-2.114-.967c2.136 4.454 12.39 11.89 16.196 11.89 7.459 0 13.855-.797 18.873 5.099 7.928 9.339 9.215 4.427 18.873 1.274 20.617-35.124-94.772-73.4-125.316-93.968 1.734 0 0 0 0 0z" transform="translate(90.01 -469.382)"/><path style="fill:#8787de;stroke:#fff6d5;stroke-width:1.14589369" inkscape:connector-curvature="0" d="M157.607 724.383c16.095 0 44.837 4.938 53.246-3.472 11.79-11.789 50.587-8.102 71.768-8.102" transform="translate(90.01 -469.382)"/><path style="fill:#8787de;stroke:#fff6d5;stroke-width:1.14589369" inkscape:connector-curvature="0" d="M-261.066 755.53v.106c31.077-.08 56.732-10.784 71.414-25.465 7.134-7.134 77.944-22.093 83.747-17.38 3.917 3.179 20.43-8.209 20.43-10.4" transform="translate(90.01 -469.382)"/><path style="fill:#48489c;stroke:#fff6d5;stroke-width:1.25933719" inkscape:connector-curvature="0" d="M-177.85 953.317c40.508-19.573 77.093-34.085 121.137-45.477 23.433-6.072 43.972-7.158 65.48-15.82 22.587-9.073 64.15 5.932 86.761 5.932 15.96 0 32.096 1.12 47.472-1.977 4.958-1 48.927-19.774 50.754-16.474-.835.287-1.635.65-2.403 1.088 8.665-8.648 41.04-3.931 53.144-6.364 13.197-5.325 25.665-8.358 39.287-13.841 14.943-6.016 135.718-.557 134.112 4.126 1.951-5.688 89.86 16.447 101.614 15.646 6.278-.426 13.78 1.978 21.281 1.978 8.56 0 3.106 5.626 6.548 11.863 1 1.81 16.147 28.147 18.631 23.607-.693-.035-1.382 0-2.066.103 8.332 4.663 25.568 4.834 35.82 7.927" sodipodi:nodetypes="cccscccccccscccc" transform="translate(90.01 -469.382)"/><path style="fill:#7272be;stroke:#fff6d5;stroke-width:1.09742236" inkscape:connector-curvature="0" d="M611.815 1116.757c-235.952 3.491-653.531 5.996-701.923-6.294-4.561-39.892 0 0-3.959-74.005-2.426-45.353-42.402-148.103-2.195-160.735 176.493-55.457 369.39-55.847 552.244-44.628 187.542-14.417 181.108 235.432 155.833 285.662z" sodipodi:nodetypes="ccsccc" transform="translate(90.01 -469.382)"/><path style="fill:#dbdbe3;stroke:#fff6d5;stroke-width:1.14589369" inkscape:connector-curvature="0" d="M-261.066 716.383c17.091-15.258 78.139-27.87 92.849-35.475 11.683-6.041 24.731 6.067 37.005 1.297 8.568-3.33 12.787-13.603 20.698-16.964 5.748-2.442 21.552.125 27.488-.398 11.206-.987 14.049-10.739 21.672-12.698 13.132-3.375 33.056 0 46.812 0 7.336 0 36.432-40.138 49.316-27.669.174.17-7.902 22.524-9.625 23.59-15.06 9.304 3.456 15.437-22.715 19.681-15.222 2.469-19.893 8.858-32.525 16.768-16.133 10.101-36.366 12.05-54.706 15.873-12.771 2.663-10.626 8.084-18.731 10.461-21.653 6.35-44.452 6.058-66.557 9.537-19.55 3.077-27.35 23.006-45.587 26.38-12.857 2.379-31.728 2.451-45.394 7.314v-37.697z" transform="translate(90.01 -469.382)"/><path style="fill:#fea" inkscape:connector-curvature="0" d="M228.735 519.126c-37.99.99-78.036 30.332-79.118 70.7-.096 3.608 17.005 61.124 23.71 51.456.552.008 9.89 11.84 10.883 13.926 1.48 3.111 5.47-4.063 7.925-1.795-1.774-1.64-.434 9.653 2.783 4.88-4.524-3.778-.954-.806.158-3.029-1.044 2.088-.227 1.343-.241 4.543-.008 1.922 3.017-.488 2.519-2.307 2.004 7.323 43.427 11.452 45.25 7.5 8.11 4.405 24.736-2.646 21.95-8.474 3.428-.401 2.306 3.507 5.555 3.095-.871.11 3.685-3.261 5.421-3.375 1.925-1.784-2.95.872-.745.04-2.297.117-1.6-1.436-1.667-2.198-.618 1.797 12.335-4.155 15.259-6.734-1.989.414-2.847-.254-2.574-2.004 1.43.252 7.167 1.63 6.636 2.203 1.06-1.662-.281-2.076.543-3.637a12.583 12.583 0 0 0-1.138-1.624c.935.035-1.962 2.771-2.123 1.368-.148-1.29 1.117-.664.145-2.063 3.445-3.5 3.23 1.596 4.552-3.83.72.845 1.55 1.122 2.489.833-.118-.121-1.767 4.49-1.192 4.255 3.362-1.38 6.114-6.824 3.872-6.32 40.192-49.292-3.09-120.167-70.852-117.409-35.059.913 0 0 0 0zm83.804 98.892c-.953.38.267.322 0 0zm-13.485 23.64c-.79.453.375.28 0 0zm-3.808 1.053c.045-.917-1.316-.903 0 0zm-4.785-1.708c-.295 1.335 1.56.4 0 0zm1.255 1.271c.011-.06-.066.01 0 0zm.127-.079c.247-.479.658-1.558 0 0 .058-.112.161-.382 0 0zm-1.36 3.771c-.244-.519-.359.915 0 0zm-2.277-.694c.063.094.063-.095 0 0zm-13.464 9.944c-.287-.109.495.108 0 0zm-.85 2.144c-.572-.897-.861.223 0 0zm-4.255 1.17c1.297.836 1.506-.243 0 0zm-3.424-.714c.064.12.049-.023 0 0zm-.085 3.772c-.167-.039.054.204 0 0zm-2.212.16c-.094.049.058.06 0 0zm-71.382-5.023c-.025.236.175-.016 0 0zm-8.55-2.224c.123-.8 0 .111 0 0zm134.043-56.453c-.366.672.932-1.17 0 0zm-.532.08c-.886 1.44.274-.13 0 0zm-1.937 1.191c-.722-.035-1.072-.463 0 0zm-.913.675c.745.424-.072.408 0 0zm.977 2.164c.528.868-.276-.296 0 0zm-.255 1.17c.997.635-.244.134 0 0zm1.192 1.568c.128.145-1.15-.322 0 0zm-3.36.279c-.291.021-.525-.317 0 0zm2.488.357c0 .45-.391-.315 0 0zm-.617.198c.324.753-.28-.02 0 0zm-3.02 1.013c2.16-.586.645 2.835-.192 2.323-.09-.86-1.515-2.115.192-2.323zm-1.531.516c1.034.497-1.208-.504 0 0zm4.36.398c-.11.382-.182-.31 0 0zm-.936.119c-.434.192-.102-.357 0 0zm3.063.535c-.938-.68-1.076-.781 0 0zm-3.021-.456c-.093.1-.009-.132 0 0zm.66.02c.313.262-.14.03 0 0zm1.445.397c-.42.737.625.05 0 0zm-3.233.317c.382-.176-.294-.297 0 0zm-1.891.358c-.298.622-.556-1.055 0 0zm5.87-.16c.359.232-.322-.406 0 0zm-.596.12c-.45.694.578-.64 0 0zm.68.417c.225.594.144-.282 0 0zm-2.105.197c.356.256.183-.417 0 0zm.106.06c.029.294.391-.09 0 0zm-1.703 1.251c.627.1-.26.714-.36-.238l.36.238zm1.766.734c.29.12.16-.232 0 0zm-1.084 1.608c-.798 1.192-.315-.678 0 0zm-.809.218c-.01.315-.329-.214 0 0zm0 .238c-.188-.148.235-.408 0 0zm.213.22c-.455.758-.42-.497 0 0zm-.999 2.48c-1.063.925.296-1.523 0 0zm.234.357c-.267-.008.19-.627 0 0zm-.596.04c-.073.175-.343-.248 0 0zm.468.159c-.429.87-.523-.412 0 0zm-.255-.06c-.122.006.04.138 0 0zm-8.125 12.883c-.892 1.561-.812.74 0 0zm-7.678 6.292c2.166-.482-2.88 2.115-.97.475 1.153-.187-.499-1.12.97-.475zm.893.279c2.135.925.02.24 0 0zm3.998.535c1.413.974-.424-1.252 0 0zm-1.255.615c.41-.466.295-.785 0 0zm-4.594-.079c-.384-.185.605-.381 0 0zm-.532.18c-.13-.185.48-.238 0 0zm-128.704-.1c-.989.804.266-.037 0 0zm133.874.338c-.098-.046.118-.108 0 0zm.616.436c.265-.014-.095-.307 0 0zm-4.147 1.687c1.325-.696-.307-1.844 0 0zm-128.748-.735c-.277.267.221-.039 0 0zm127.003.358c-.106.682.291-.175 0 0zm5.296.635c.828 2.419 1.046-.508 0 0zm-.085.1c.349.367.067-.3 0 0zm-1.404.019c.306.876-.486-.236 0 0zm.341.794c-.642-.47-.137-1.185 0 0zm-6.913-.615c-.414.267.183-.522 0 0zm2.297.457c.981-.134.126-1.313 0 0zm4.275.139c-.214.026.199-.688 0 0zm-6.615.119c.31.034-.158-.286 0 0zm8.296.1c-.367.412.933-.327 0 0zm-5.084.158c.243.05-.124-.25 0 0zm-2.212.317c.812.82-.043-.558 0 0zm1.638.02c-.088.751 1.058-.286 0 0zm1.66.476c.601-.13.393-.973 0 0zm-3.34-.277c.294.132-.089-.495 0 0zm-2.297.138c.545-.154-.378-.449 0 0zm7.657-.06c.4-.146-.069-.171 0 0zm-1.553.299c.308.699.329-1.155 0 0zm-3.87-.139c.444.277.089-.57 0 0zm5.465.456c1.906 1.3 1 1.423 0 0 1.302.89 0 0 0 0zm-6.636-.436c.248-.082-.266-.269 0 0zm3.063.119c.613 1.102-.115-.573 0 0zm1.127-.158c.106.575-.679-.416 0 0zm-4.721.058c-1.36.08-.07.786.467.06.185-.183-.427-.218-.467-.06zm4.786.437c-.21-.133.525-.375 0 0zm-2.575 0c.05-.116-.247-.05 0 0zm3.255.08c.404.082-.143-.352 0 0zm-4.02-.08c.283.283.137-.153 0 0zm1.446-.02c.028-.158-.57.094 0 0zm-2.83.1c.134-.044-.028-.065 0 0zm2.872.119c-.106.473.303-.244 0 0zm2.51.12c-.407 2.886.734-1.425 0 0zm.702.336c.748.157.265-1.103 0 0zm-2-.377c.068.025-.04-.106 0 0zm-4.508.298c.398-.147-.321-.51 0 0zm.106-.2c-.039.154.165-.035 0 0zm-1.935-.019c.098.363-.485-.24 0 0zm.467.06c-.227.379-.597-.413 0 0zm3.957.06c.039.01.128-.064 0 0zm2.255.04c-.786.349-.011.788 0 0zm-3.298.278c-.167.04-.069-.332 0 0zm-.914.02c-.148.248.065-.317 0 0zm2.978-.04c-.524 1.009 1.141 5.722 0 0-.574 1.106.23 1.149 0 0zm1.02.594c.163.016-.015-.15 0 0zm-2.21.874c.321-.338-.358.048 0 0zm2.741-1.37c-.166.51.154-.038 0 0zm-4.848.06c-.231.55-.097-.28 0 0zm.297.04c.132 1.064-.728.647 0 0zm7.85.019c-.064.095-.064-.094 0 0zm-8.338.556c-.322.383.016-.354 0 0zm-.808.357c-.265.244-.46-.78 0 0zm-2.043-.217c.592.365-.637.72 0 0zm8.976.932c.374-1.148.119-1.125 0 0zm-8.36-.754c-.08-.026.068-.125 0 0zm.256 0c.07.41-.627.147 0 0zm.808.158c-.08.18-.391.015 0 0zm.448.08c-.005.133-.142-.116 0 0zm-1.745.259c-.272-.118.353-.202 0 0zm2.722.039c-.198-.04.375-.157 0 0zm.298.317c-.617-.176.475-.367 0 0zm-.638-.099c.423.349 1.247.643.17.835.842-.877-.77-.425-.17-.835zm-2.68.08c.065.025.051-.171 0 0zm3.276.1c-.047.203-.266-.43 0 0zm-2.659.038c.082.093.026-.077 0 0zm2.765.04c-.12.116-.07-.1 0 0zm-3.806.298c.244.45.337-.819 0 0zm1.827 0c-.024.077-.081-.092 0 0zm-1.275.08c.139 1.1.297-.437 0 0zm-2.298.278c.536.143-.373-.767 0 0zm3.319 0c-.5-.264.828-.469 0 0zm-1.425-.2c.024.135.047-.085 0 0zm3.062.1c-.348.115 0-.228 0 0zm-.467.198c.217.245.14-.749 0 0zm-1.319-.098c-.223-.073.14-.23 0 0zm-115.9.198c-3.44 1.056 4.902 1.648 4.595 1.648a10.439 10.439 0 0 1-4.595-1.648c-2.221.682.916-.549 0 0zm115.028.06c.628-.062-.388-.23 0 0zm1.892-.04c.053-.01.008-.144 0 0zm-110.349.853c-.52 1.1-.132-.974 0 0zm112.646-.178c-.023.144-.084-.154 0 0zm-2.572.04c.122-.006-.041-.138 0 0zm-1.32.178c.091.281.185-.488 0 0zm-112.794-.12c.245.332.151-.133 0 0zm-.425.18c-.358.786-.963-.215 0 0zm.425.178c.127-.09-.233-.176 0 0zm116.474-.099c.027.062-.113-.038 0 0zm-3.956.456c-1.224.964 1.139-.475 0 0zm1.297-.119c.484.332.064-.345 0 0zm2.936-.06c-2.214 1.439 3.546 1.25 0 0zm-2.702.18c2.225 1.614 1.488-.068 0 0zm1.447 1.051c1.38 2.132.198-.69 0 0zm-1.766-.972c.328.063-.06-.254 0 0zm-.042.14c-.654 1.923 1.873-.11 0 0zm1.616.138c.115.11.05-.09 0 0zm-115.048.259c.66.13-.28.113 0 0zm112.199.079c.095-.036-.17-.116 0 0zm.212.118c-.092.725.686-.287 0 0zm.042.298c-.218-.287-.115.572 0 0zm0 .02c-.1.348.616.097 0 0zm-2.149.397c.79.041-.317-1.089 0 0zm2.532-.258c.377.133-.095-.369 0 0zm-1.51.198c.563.367.531-.876 0 0zm1.404.04c-.33 1.26 1.842-.262 0 0zm-1.701.139c-1.189 3.41 1.474 1.238 0 0zm-107.924.655c.357.302-.11-.536 0 0zm109.604.06c.642-.04-.274-.472 0 0zm-.49.118c.977.602-.06-.36 0 0zm2.128.319c-2.423 1.172 1.827-.307 0 0zm-109.456.377c.957.49-.455-.92 0 0zm1.298.079c-1.444 1.012 1.206-.041 0 0zm-1.425.557c-2.106 1.955 2.047.46 0 0zm9.06 1.011c-.205.765-.516-.953 0 0zm-7.104-.178c.153.285.92-.362 0 0zm6.062.377c-.755.376.025-.648 0 0zm87.463.178c.601-.002-.323-.25 0 0zm-2.234.735c-.216-.563-1.207-.956 0 0zm-6.061.08c2 1.704 2.242 3.319-.51 2.739-2.415-.06.51-2.982.51-2.74 1.399 1.192 0 0 0 0zm-82.912-.26c.436 1.32-1.038-.6 0 0zm.745-.078c-1.148.577.094-.365 0 0zm87.164.971c-1.378-.574-1.61-.712 0 0zm3.978-.436c.05.098.115-.211 0 0zm-1.83.298c-1.642.253 1.987 1.336.17.119-.15-.109.249-.921-.17-.12zm-89.334-.12c-.134.363-.238-.316 0 0zm92.42.1c-.402-.056.145-.382 0 0zm-1.68.258c.221-.07.484-.752 0 0zm-81.4-.218c-.787.506-2.041-.06 0 0zm72.423.258c.805.264-.07-.824 0 0zm-81.826-.14c.643.477-1.005-.435 0 0zm83.57.06c-.127-.102.358-.16 0 0zm-83.868.16c-.316.314.185-.526 0 0zm90.76.197c.946-.271-.857-.623 0 0zm-8.913.199c.786.754 1.889-1.206 0 0zm5.999-.218c.773.045-.232-.514 0 0zm3.127-.139c1.422.33 1.028-.009 0 0zm-4.574.18c-1.395.655.365-.326 0 0zm2.68 0c.276.17-.08-.35 0 0zm-83.633.038c-.153.118-.12-.298 0 0zm.34-.079c.12.16-.276.154 0 0zm86.356.04c.451.17-.028-.14 0 0zm-3.829.08c-1.164-.121.462 1.664.319.416-.04-.043-.367-.742-.319-.417zm1-.04c.082.092.026-.078 0 0zm-.617.118c.221-.104-.512-.205 0 0zm.107.358c.033-.153-.37-.374 0 0zm-1.83-.16c.216.332-.15.436 0 0zm2.042.337c-.01-.048-.153-.005 0 0zm0 0c.15.211.07-.103 0 0zm-6.487.239c1.031.02.075-.545 0 0zm6.53 0c.174-.11-.488-.457 0 0zm-84.378-.139c.123-.005-.06-.137 0 0zm78.677.198c.413-.023-.072-.215 0 0zm5.764.021c.09-.094-.165-.07 0 0zm2.149 1.588c2.294-.436-.777-2.824 0 0zm-4.042-1.37c-.411.035.02-.389 0 0zm-5.317-.06c-.106-.042.05-.11 0 0zm.276.1c-.298.476.007-.541 0 0zm-81.528-.08c.167-.04-.17-.116 0 0zm86.271.04c-.617.245.108-.29 0 0zm-79.655.1c.433 1.081.052-.334 0 0zm75.891.178c.65.148-.072-.34 0 0zm-1.277.258c-.113.039.027-.062 0 0zm-1.127.04c.245.012.033-.068 0 0zm-75.657.219c.917.226-.624-.5 0 0zm1.149-.06c1.292.77-.576.18 0 0zm4.53.257c-.159.033.311-.526 0 0zm74.19.438c-1.193.18.602-1.37 0 0zm-4.361-.596c.073.144.04-.087 0 0zm-.468.1c.272.191.033-.262 0 0zm4.212.257c-.925.754.25-.657 0 0zm-1.467 0c-.712.51-.585-.185 0 0zm-.085.159c-.136.036.102-.105 0 0zm6.253.715c.34-.86.126-.83 0 0zm-5.531-.616c-.277.126 0-.294 0 0zm9.146.1c-6.37-.429 2.382.143 0 0-1.965-.132 0 0 0 0zm-9.337-.08c-.202.11-.077-.09 0 0zm.213.1c.024.053-.059-.023 0 0zm-75.169.317c.243 1.032-1.01-.888 0 0zm73.936-.158c.046.12.231-.062 0 0zm-1.873.058c-.07.018.042-.1 0 0zm2.467.2c-.159-.098.419-.42 0 0zm-.127-.06c-.345.02.071-.234 0 0zm-1.83.139c.097 0-.117-.19 0 0zm.022 0c.064.12.05-.025 0 0zm2.616.079c.069.502-.318-.518 0 0zm-2.552.08c.035.077.035-.078 0 0zm-1.617.098c.464.235-.395.046 0 0zm1.106.08c-.025-.045.138-.164 0 0zm1.575.06c.117.11-.018-.243 0 0zm.17.02c-.012.495.874-.517 0 0zm0 .039c-.074-.078-.15.018 0 0zm-.746 0c.14.063.023-.165 0 0zm.555.02c.155.028.06-.08 0 0zm-.618.099c.067.111.105-.249 0 0zm0 0c-.034-.165-.083.02 0 0zm.703.06c.114.17.056-.154 0 0zm.425.08c.485.07-.612-.303 0 0zm-1.979-.1c-.162.228-.12-.102 0 0zm.426.12c.432.358-.007-.316 0 0zm-.957.138c-.308.055.033-.518 0 0zm.17-.06c.007.334-.191-.012 0 0zm1.042.08c1.292 1.534.206-.2 0 0 .48.571.18-.174 0 0zm.32.753c-.006.365.25-.017 0 0zm-69.894-.158c-.243.517.953-1.38 0 0zm68.447-.436c-.151.021.014-.208 0 0zm2.616-.04c.216-.007-.17-.091 0 0zm-4.02.715c-1.826 2.548-.73-1.604 0 0zm2.063-.537c.24.125.216-.377 0 0zm-1 .04c.557-.058-.08.443 0 0zm-67.17.04c.322.517.455-.135 0 0zm70.701.159c.147-.065-.006-.392 0 0zm-3.806-.12c-.148.14-.05-.114 0 0zm5.167 1.133c1.437.253-.247-2.2 0 0zm-76.273-.815c-3.478 1.967 1.38.172 0 0zm71.318-.08c.072.419.228.113-.15.576.011-.456-.4.07.15-.575zm-.063.199c-.124.009.028.05 0 0zm.467-.158c-.149.018-.003-.102 0 0zm-68.702.218c-.006.193.2-.352 0 0zm71.425.576c-.085.074.977.699 0 0-1.193 1.044 0 0 0 0zm-.405.853c-.241-.129-.08.275 0 0zm-.17-.754c-.005-.667-.228-.053 0 0zm-3.04.04c-.841.993.515-.813 0 0zm3.764 0c.015.326-.158-.248 0 0zm-67.533.337c-1.137-.26-1.356-.309 0 0zm-6.062-.04c.22.321.117-.52 0 0zm70.893.08c-.155.292-.266-.534 0 0zm-1.297.039c-.031.46-.625-.037.02-.06l-.02.06zm-.256.18c.108-.034-.01-.122 0 0zm2.191-.04c.106.02.177-.28 0 0zm-1.53.019c.046.327-.364-.093 0 0zm-65.96.079c.08.087.034-.074 0 0zm.427.238c.915 1.942.286-.838 0 0zm64.638.358c.06.088.065-.09 0 0zm.17.278c.618 1.29.297-1.183 0 0zm-63.001.416c.903.895-.917-1.003 0 0zm63.299.12c.434 2.248 3.223-1.275.194-.027l-.194.026zm-.319.06c-.078.648.432-.307 0 0zm-54.494 1.051c-2.435 1.057-.22.435 0 0zm4.106 1.092c.221.115.545-.426 0 0zm-.362.139c.104-.056-.104-.056 0 0z" transform="translate(90.01 -469.382)"/><path style="fill:#afafe9;stroke:#fff6d5;stroke-width:1.14589369" inkscape:connector-curvature="0" d="M-259.665 940.907c0-23.387 24.555-43.84 24.555-68.57 0-22.37 23.217-34.242 28.52-52.909 4.322-15.216 7.156-29.225 15.284-42.826 12.11-20.264 25.274-17.151 45.285-18.28 22.496-1.268 30.169-29.877 44.366-42.972 16.442-15.164 39.28-15.445 59.516-21.889 19.337-6.158 28.422-19.717 48.521-23.179 8.087-1.392 15.967-.976 18.2-9.954 1.057-4.247 8.64-31.37 12.159-32.49-3.268 1.04 42.288 42.519 46.507 47.181 4.782 5.284 15.809 8.333 22.313 10.67 13.666 4.91 1.897 9.395 12.72 19.015 14.788 13.143 38.206 9.488 41.932 34.206 2.575 17.075.3 35.914.01 53.196-26.473-54.322-6.895-13.776-30.69-64.38 0 0-86.285 47.924-110.273 67.124-15.082 12.07-30.351 20.616-44.395 34.57-12.27 12.194-27.921 68.394-53.76 44.674-14.647-13.447-27.95-6.39-44.864-1.685-14.419 4.01-24.475-8.359-38.937-6.914-20.399 2.038-36.289 27.78-50.91 39.832-4.63 3.817-46.06 32.595-46.06 35.58 0-.383 0 0 0 0z" transform="translate(90.01 -469.382)"/><path style="fill:#8787de;stroke:#fff6d5;stroke-width:1.14589369" inkscape:connector-curvature="0" d="M547.37 896.825c0-6.396-84.285-13.275-96.588-14.997-13.524-1.893-36.36-9.27-49.326-6.437-13.243 2.894-23.324 16.775-37.348 20.498-30.231 8.025-54.108-1.297-77.371-19.145-4.767-3.657-20.704 1.334-25.84 3.007-23.432 7.633-46.667 7.889-71.037 12.377-30.243 5.568-50.978 13.202-82.39 12.602-31.115-.595-68.954-9.349-99.518-2.692-55.192 12.024-124.069 13.833-173.411 43.954-20.403 12.455-68.285 5.233-95.608 4.202v-4.515c27.808-21.946 54.617-45.213 82.115-68.155 20.493-17.096 26.582 1.204 47.858-.5 22.575-1.806 32.058-13.865 52.231 2.18 17.67 14.053 29.964-9.713 42.305-20.25 7.305-6.236 4.462-10.497 6.507-18.569 2.183-8.618 15.028-16.054 21.064-21.958 8.44-8.256 20.731-13.564 29.944-21.273 16.77-14.032 100.152-91.903 119.511-56.92 7.625 13.779 6.63 33.748 15.157 48.927 7.289 12.971 8.91 25.304 19.12 38.125 11.559 14.513 18.31 20.708 31.757 6.38 6.208-6.613 14.82-6.605 22.65-9.993 11.126-4.817 19.511-21.068 23.703-31.7 4.89-12.399 6.25-26.935 13.093-38.372 5.048-8.436 8.043-16.509 8.043-26.481 0-16.66 6.087-3.854 9.458-14.104 1.127-3.429-10.188.741-10.991-1.687-5.52-16.677 61.586-49.806 75.802-52.243 14.086-2.416 28.548-5.035 42.205-9.319 12.767-4.004 8.176-26.73 19.757-31.607-.017.007 9.46 21.425 9.46 23.78 0 12.531-6.393 14.291-10.64 25.11-9.389 23.912 4.562 48.667-12.869 72.428-10.847 14.783-33.265 34.282-53.055 34.012-11.859-.161-68.501 5.982-74.05.437 9.104 9.098 63.164 2.712 77.732 3.007 22.671.458 56.928-32.4 72.826-47.088 10.937-10.104 5.012-20.271 20.356-30.54 6.743-4.513 22.72 9.649 31.03 12.368 12.836 4.199 4.573 60.716 14.97 75.28 21.137 20.055 46.575 40.093 72.652 52.773 41.078-16.652-11.264 57.098-11.264 57.098z" sodipodi:nodetypes="cscccscscsccccsccccccccccsscccscsccccscccccc" transform="translate(90.01 -469.382)"/><path style="fill:#e2d7ac;stroke:#fff6d5;stroke-width:.54120559" inkscape:connector-curvature="0" d="M230.557 971.02c-7.389.06-94.234 8.125-70.059 28.295 2.249 3.878 16.68 7.754 16.612 7.73 4.13.679 10.782 2.495 11.294 2.82 3.355-.404 4.557-1.088 7.63-.22-1.244-.353-3.993 4.396 2.623 1.403-7.505-1.92 3.838-.196-1.486-.662 12.837 7.503 55.014 6.434 68.996 1.466-.095 0-1.043-.669.12-.645.012-.047-1.78-.561-1.946-.668 3.756-.133 5.909.01 10.352-.08.26-.073-1.426.096-.702.013-1.757.026-1.45-.183-1.573-.632 1.23-1.091 11.358-1.122 14.393-1.937-1.347.59-2.156.397-2.427-.576 2.982.16 3.045.566 5.678.41-.614.147-.42.22.582.222-1.026.49-.832-1.302.02-1.279-.71.206-1.407.023-2.447-.433 2.69-.835 4.387-.28 6.64-.863-.269-.085-1.636.95-1.645 1.023-.006.066 5.821-.361 4.58-.201-1.662-.317 1.79-1.565-.406-1.414 51.91-19.447-49.333-33.99-66.829-33.77-33.07.263 0 0 0 0zm79.046 28.443c-.9.11.252.093 0 0zm-12.72 6.8c-.744.13.355.08 0 0zm-3.59.303c.042-.264-1.242-.26 0 0zm-4.514-.491c-.278.384 1.472.116 0 0zm1.182.364c.01-.016-.06 0 0 0zm.122-.022c.513-.303.855-.616 0 0 .055-.033 0 0 0 0zm-1.285 1.084c-.229-.149-.337.265 0 0zm-2.146-.2c.06.029.06-.027 0 0zm-12.7 2.861c-.27-.031.466.031 0 0zm-.802.617c-.539-.258-.811.064 0 0zm-4.012.336c1.222.24 1.42-.07 0 0zm-3.231-.205c.06.034.046-.01 0 0zm-.08 1.084c-.159-.012.05.06 0 0zm-2.086.046c-.088.015.055.018 0 0zm-67.33-1.445c-.026.07.165 0 0 0zm-8.065-.638c.114-.231 0 .031 0 0zm126.434-16.236c-.345.192.88-.337 0 0zm-.503.022c-.833.415.26-.037 0 0zm-1.825.342c-.68-.01-1.012-.133 0 0zm-.862.195c.703.122-.067.117 0 0zm.923.622c.497.25-.262-.084 0 0zm-.241.337c.94.182-.232.038 0 0zm1.124.45c.12.043-1.085-.092 0 0zm-3.17.08c-.275.007-.496-.09 0 0zm2.347.104c0 .128-.369-.092 0 0zm-.582.056c.306.218-.263-.005 0 0zm-2.849.291c2.038-.167.608.816-.18.668-.085-.247-1.43-.607.18-.668zm-1.444.15c.977.142-1.14-.145 0 0zm4.112.114c-.103.11-.172-.088 0 0zm-.883.034c-.407.055-.095-.103 0 0zm2.89.154c-.885-.195-1.017-.225 0 0zm-2.85-.13c-.087.028-.01-.04 0 0zm.623.004c.295.077-.132.009 0 0zm1.364.115c-.397.213.589.015 0 0zm-3.05.091c.36-.05-.277-.086 0 0zm-1.786.103c-.28.18-.522-.303 0 0zm5.538-.045c.34.066-.302-.118 0 0zm-.561.033c-.424.2.545-.183 0 0zm.641.121c.212.17.136-.081 0 0zm-1.985.058c.335.072.173-.122 0 0zm.1.016c.026.083.367-.027 0 0zm-1.605.36c.59.028-.245.206-.341-.07l.341.07zm1.665.21c.273.036.151-.066 0 0zm-1.024.463c-.753.343-.297-.195 0 0zm-.762.062c-.01.09-.311-.06 0 0zm0 .07c-.177-.042.222-.118 0 0zm.2.062c-.429.219-.395-.143 0 0zm-.942.714c-1.003.266.28-.438 0 0zm.22.102c-.252-.002.179-.18 0 0zm-.561.012c-.07.05-.323-.07 0 0zm.442.045c-.406.251-.494-.117 0 0zm-.242-.016c-.116.001.04.04 0 0zm-7.664 3.705c-.84.449-.765.213 0 0zm-7.242 1.81c2.042-.14-2.715.608-.915.136 1.087-.054-.469-.321.915-.137zm.841.08c2.015.266.022.07 0 0zm3.773.154c1.331.28-.399-.36 0 0zm-1.184.176c.386-.134.277-.225 0 0zm-4.333-.023c-.363-.053.571-.11 0 0zm-.503.052c-.122-.053.453-.069 0 0zm-121.398-.029c-.933.232.252-.01 0 0zm126.274.097c-.092-.013.112-.03 0 0zm.582.126c.25 0-.09-.088 0 0zm-3.912.485c1.25-.2-.289-.53 0 0zm-121.44-.21c-.26.075.21-.014 0 0zm119.795.102c-.1.196.275-.05 0 0zm4.996.183c.779.694.988-.147 0 0zm-.082.027c.33.106.063-.086 0 0zm-1.323.01c.289.253-.457-.066 0 0zm.32.23c-.604-.136-.128-.341 0 0zm-6.52-.179c-.39.078.174-.15 0 0zm2.167.133c.926-.04.12-.38 0 0zm4.033.04c-.202.01.188-.198 0 0zm-6.24.033c.293.01-.147-.08 0 0zm7.825.028c-.346.12.88-.093 0 0zm-4.795.046c.23.015-.118-.07 0 0zm-2.086.092c.765.236-.042-.16 0 0zm1.545.01c-.083.217.998-.08 0 0zm1.565.138c.568-.038.37-.281 0 0zm-3.15-.08c.277.038-.084-.142 0 0zm-2.167.04c.515-.045-.357-.13 0 0zm7.222-.016c.377-.042-.064-.05 0 0zm-1.464.085c.29.201.31-.333 0 0zm-3.652-.04c.42.08.085-.164 0 0zm5.156.131c-.244-.05 3.684.305 0 0 1.229.256 0 0 0 0zm-6.26-.126c.235-.023-.248-.077 0 0zm2.89.034c.579.318-.109-.165 0 0zm1.064-.046c.098.165-.641-.119 0 0zm-4.455.017c-1.282.024-.064.226.443.018.173-.054-.405-.064-.443-.018zm4.514.126c-.198-.038.496-.108 0 0zm-2.427 0c.046-.033-.234-.015 0 0zm3.07.022c.382.024-.133-.1 0 0zm-3.793-.022c.268.08.13-.045 0 0zm1.365-.01c.026-.046-.538.026 0 0zm-2.668.027c.124-.01-.027-.018 0 0zm2.708.036c-.1.137.285-.07 0 0zm2.367.033c-.383.831.694-.409 0 0zm.662.097c.708.045.25-.317 0 0zm-1.885-.108c.063.01-.04-.03 0 0zm-4.254.086c.376-.042-.303-.147 0 0zm.1-.056c-.036.043.156-.012 0 0zm-1.826-.01c.093.105-.456-.07 0 0zm.443.017c-.216.108-.563-.118 0 0zm3.732.017c.036 0 .121-.018 0 0zm2.125.012c-.74.1-.01.226 0 0zm-3.11.08c-.157.01-.064-.096 0 0zm-.862.01c-.14.07.063-.092 0 0zm2.81-.013c.328-.194 1.87 2.856 0 0-.543.32.216.33 0 0zm.962.171c.152.01-.015-.042 0 0zm-2.087.251c.306-.097-.336.015 0 0zm2.589-.393c-.158.147.144-.01 0 0zm-4.575.016c-.217.16-.09-.08 0 0zm.281.011c.124.307-.687.187 0 0zm7.404.01c-.06.026-.06-.029 0 0zm-7.866.16c-.301.11.016-.102 0 0zm-.763.102c-.246.07-.432-.224 0 0zm-1.924-.062c.557.105-.603.206 0 0zm8.465.268c.354-.33.113-.323 0 0zm-7.884-.217c-.078-.01.063-.037 0 0zm.24 0c.067.117-.59.042 0 0zm.764.046c-.078.052-.37 0 0 0zm.42.022c-.002.038-.132-.033 0 0zm-1.645.076c-.256-.034.333-.058 0 0zm2.568.01c-.187-.01.353-.046 0 0zm.282.092c-.582-.05.447-.105 0 0zm-.603-.029c.4.1 1.176.185.162.24.793-.252-.727-.122-.162-.24zm-2.528.023c.062.01.047-.049 0 0zm3.09.03c-.045.057-.251-.125 0 0zm-2.508.01c.077.026.023-.023 0 0zm2.608.011c-.112.033-.065-.029 0 0zm-3.59.086c.23.129.319-.236 0 0zm1.724 0c-.023.022-.076-.028 0 0zm-1.202.022c.13.318.28-.125 0 0zm-2.168.081c.505.041-.353-.221 0 0zm3.13 0c-.47-.077.782-.136 0 0zm-1.344-.057c.022.038.045-.025 0 0zm2.889.028c-.329.033-.001-.065 0 0zm-.442.057c.206.071.133-.215 0 0zm-1.244-.028c-.21-.022.133-.066 0 0zm-109.32.056c2.076-.194 6.474-1.19 0 0-2.096.196.864-.158 0 0zm108.499.017c.59-.018-.367-.066 0 0zm1.784-.01c.05 0 .007-.042 0 0zm-104.085.244c-.49.317-.125-.28 0 0zm106.253-.052c-.023.041-.083-.045 0 0zm-2.428.011c.114 0-.04-.039 0 0zm-1.244.052c.085.08.174-.14 0 0zm-106.392-.033c.231.095.143-.04 0 0zm-.403.051c-.335.226-.906-.063 0 0zm.403.05c.12-.026-.22-.05 0 0zm109.862-.029c.025.018-.107-.01 0 0zm-3.73.13c-1.156.28 1.073-.135 0 0zm1.223-.032c.456.095.06-.1 0 0zm2.769-.018c-2.088.415 3.343.36 0 0zm-2.548.052c2.097.465 1.403-.018 0 0zm1.364.304c1.302.612.185-.2 0 0zm-1.666-.28c.31.017-.057-.074 0 0zm-.04.039c-.617.553 1.766-.031 0 0zm1.525.04c.109.032.047-.025 0 0zm-108.519.074c.625.038-.264.033 0 0zm105.83.023c.09-.01-.158-.033 0 0zm.201.033c-.086.21.649-.081 0 0zm.04.087c-.205-.084-.108.164 0 0zm0 0c-.094.1.581.029 0 0zm-2.026.115c.744.01-.3-.313 0 0zm2.388-.073c.354.038-.09-.107 0 0zm-1.424.056c.53.105.5-.252 0 0zm1.323.01c-.311.364 1.738-.074 0 0zm-1.604.04c-1.12.982 1.39.357 0 0zm-101.798.189c.337.088-.103-.154 0 0zm103.382.017c.607-.011-.258-.136 0 0zm-.46.034c.92.174-.06-.102 0 0zm2.006.092c-2.287.337 1.723-.088 0 0zm-103.243.109c.903.14-.43-.265 0 0zm1.224.023c-1.363.29 1.139-.013 0 0zm-1.345.159c-1.985.564 1.931.133 0 0zm8.548.29c-.195.222-.488-.273 0 0zm-6.701-.051c.143.084.865-.103 0 0zm5.716.109c-.712.109.024-.186 0 0zm82.499.052c.567 0-.306-.072 0 0zm-2.106.212c-.204-.163-1.14-.276 0 0zm-5.72.022c4.98 1.297-5.688-1.135 0 0 1.32.344-1.884-.376 0 0zm-78.203-.073c.411.379-.979-.174 0 0zm.702-.024c-1.084.167.089-.104 0 0zm82.217.28c-1.3-.164-1.518-.205 0 0zm3.752-.126c.047.03.107-.06 0 0zm-1.726.086c-1.55.072 1.875.384.16.033-.142-.03.234-.263-.16-.033zm-84.263-.034c-.126.105-.225-.09 0 0zm87.172.03c-.379-.017.137-.11 0 0zm-1.584.073c.21-.02.457-.216 0 0zm-76.78-.063c-.741.146-1.924-.018 0 0zm68.313.073c.76.077-.066-.236 0 0zm-77.18-.04c.606.138-.949-.124 0 0zm78.825.018c-.12-.03.337-.046 0 0zm-79.107.045c-.299.092.175-.15 0 0zm85.608.058c.894-.079-.808-.18 0 0zm-8.408.056c.743.217 1.782-.347 0 0zm5.659-.063c.73.014-.22-.147 0 0zm2.95-.039c1.341.095.97 0 0 0zm-4.315.05c-1.314.19.345-.093 0 0zm2.528 0c.261.05-.075-.1 0 0zm-78.886.011c-.143.034-.112-.086 0 0zm.321-.023c.116.047-.26.045 0 0zm81.455.013c.425.05-.028-.04 0 0zm-3.61.022c-1.099-.034.435.48.3.12-.037-.012-.347-.214-.3-.12zm.941-.012c.077.026.024-.022 0 0zm-.582.034c.208-.03-.483-.058 0 0zm.1.104c.033-.045-.348-.108 0 0zm-1.725-.047c.204.096-.14.127 0 0zm1.926.097c-.01-.013-.144 0 0 0zm0 0c.144.06.066-.03 0 0zm-6.119.069c.972.01.07-.157 0 0zm6.16 0c.163-.031-.461-.131 0 0zm-79.589-.04c.115 0-.057-.04 0 0zm74.21.058c.39-.01-.066-.063 0 0zm5.44.01c.084-.028-.158-.021 0 0zm2.025.456c2.163-.125-.733-.813 0 0zm-3.812-.395c-.389.01.018-.11 0 0zm-5.016-.016c-.1-.013.047-.033 0 0zm.261.028c-.282.138.006-.155 0 0zm-76.9-.023c.156-.01-.161-.033 0 0zm81.374.012c-.583.071.1-.082 0 0zm-75.134.03c.408.31.05-.096 0 0zm71.583.05c.614.043-.068-.097 0 0zm-1.205.074c-.106.011.027-.018 0 0zm-1.062.011c.232 0 .03-.019 0 0zm-71.364.062c.865.067-.588-.143 0 0zm1.085-.016c1.218.222-.543.052 0 0zm4.272.073c-.15.01.295-.15 0 0zm69.98.126c-1.125.053.567-.393 0 0zm-4.113-.171c.068.042.037-.024 0 0zm-.442.03c.256.054.029-.076 0 0zm3.973.073c-.872.216.236-.19 0 0zm-1.384 0c-.672.146-.552-.053 0 0zm-.082.046c-.127.01.098-.03 0 0zm5.9.206c.319-.249.117-.238 0 0zm-5.217-.178c-.262.037 0-.085 0 0zm8.627.03c-6.018-.124 2.215.04 0 0-1.855-.039 2.594.047 0 0zm-8.808-.024c-.191.032-.073-.025 0 0zm.202.03c.022.014-.056-.01 0 0zm-70.902.091c.229.297-.951-.255 0 0zm69.738-.046c.043.034.217-.018 0 0zm-1.766.016c-.069.01.039-.029 0 0zm2.327.057c-.151-.028.394-.119 0 0zm-.12-.016c-.324 0 .065-.068 0 0zm-1.726.04c.09 0-.111-.055 0 0zm.02 0c.06.034.048-.01 0 0zm2.469.022c.063.145-.303-.149 0 0zm-2.409.024c.033.021.033-.023 0 0zm-1.524.028c.437.068-.373.014 0 0zm1.043.023c-.024-.013.13-.047 0 0zm1.484.017c.11.032-.015-.069 0 0zm.161.01c-.01.142.826-.149 0 0zm0 .011c-.07-.023-.143 0 0 0zm-.702 0c.13.018.02-.048 0 0zm.521.01c.148.01.057-.023 0 0zm-.58.03c.062.031.098-.072 0 0zm0 0c-.034-.049-.08.01 0 0zm.66.016c.108.048.055-.045 0 0zm.403.022c.456.022-.578-.086 0 0zm-1.866-.028c-.153.065-.114-.029 0 0zm.4.033c.408.105-.007-.089 0 0zm-.903.041c-.29.015.032-.149 0 0zm.162-.017c.007.096-.18 0 0 0zm.982.022c.741.27.645-.188 0 0 .454.165.17-.049 0 0zm.301.218c-.003.106.236-.01 0 0zm-65.925-.046c-.23.149.898-.396 0 0zm64.56-.126c-.143.01.014-.058 0 0zm2.469-.01c.204 0-.162-.028 0 0zm-3.792.205c-1.722.732-.69-.46 0 0zm1.946-.153c.225.036.204-.11 0 0zm-.943.01c.524-.016-.076.128 0 0zm-63.358.012c.304.149.429-.038 0 0zm66.688.046c.14-.017-.005-.113 0 0zm-3.59-.033c-.14.039-.047-.033 0 0zm4.875.324c1.354.073-.235-.633 0 0zm-71.946-.234c-3.28.566 1.303.05 0 0zm67.27-.023c.07.12.215.032-.14.166.01-.131-.38.021.14-.166zm-.06.057c-.115 0 .028.015 0 0zm.441-.046c-.14.01-.002-.029 0 0zm-64.8.063c-.007.056.187-.102 0 0zm67.37.165c.04-.01.8.175 0 0-1.127.3-.482-.104 0 0zm-.382.245c-.228-.037-.077.08 0 0zm-.16-.215c-.006-.193-.216-.016 0 0zm-2.87.01c-.792.286.488-.234 0 0zm3.551 0c.015.095-.149-.071 0 0zm-63.699.097c-1.073-.074-1.279-.09 0 0zm-5.717-.011c.207.093.11-.15 0 0zm66.868.023c-.146.085-.251-.154 0 0zm-1.223.012c-.03.132-.59-.01.02-.017l-.02.017zm-.24.052c.1-.01-.012-.034 0 0zm2.066-.013c.098.01.166-.08 0 0zm-1.445.01c.044.094-.343-.026 0 0zm-62.214.023c.075.024.03-.022 0 0zm.4.068c.866.56.272-.24 0 0zm60.97.103c.058.026.061-.025 0 0zm.162.079c.582.372.278-.34 0 0zm-59.425.121c.851.257-.865-.288 0 0zm59.706.033c.409.647 3.037-.365.182-.01l-.182.01zm-.302.018c-.073.186.407-.088 0 0zm-51.4.302c-2.297.303-.21.126 0 0zm3.872.314c.21.033.516-.123 0 0zm-.341.04c.1-.016-.099-.016 0 0z" transform="translate(90.01 -469.382)"/><path style="fill:#9ba3d3;stroke:#fff6d5;stroke-width:1.14589369" inkscape:connector-curvature="0" d="M193.736 840.88c-35.764-24.68-27.007-64.653-29.873-102.53-.846-11.18-9.195-12.894 8.361-12.484 17.11.401 30.047 4.595 43.05-7.113 6.911-6.222 21.843-2.766 30.974-2.766 20.455 0 30.484-2.553 23.674 22.895-5.882 21.976-48.15 121.351-76.186 101.998-6.066-4.187 0 0 0 0z" transform="translate(90.01 -469.382)"/><path style="fill:#5b5b92;stroke:#fff6d5;stroke-width:.71160001" inkscape:connector-curvature="0" d="M586.905 955.16c-21.109-61.886 14.819-75.915-10.849-78.603-20.983.47-96.017 10.142-200.433 12.487l-363.53 8.162c-41.933.94-83.866 1.884-125.8 2.824-13.566.305-35.585-3.54-48.584 1.091-14.535 5.179-30.57 23.11-42.775 32.336-16.246 12.282-47.766 16.501-48.74 36.844 1.907-39.859 0 0 0 0 63.314 17.908 136.632 13.71 195.561 25.695 17.018 3.494 40.584-1.69 53.142 3.456 2.98 1.21 5.69 2.883 10.628 3.886 14.048 2.823 27.567 4.116 39.325 1.728 24.308-4.991 60.79 1.694 85.027-8.205 47.773-19.413 125.595-14.98 175.367.216 19.06 5.764 43.338 8.338 60.581 11.875 31.78 6.384 69.114-.197 94.591-2.807 18.329-1.849 38.269-4.414 57.83-2.165a3.48 3.48 0 0 1-1.078-.062c6.412-.095 56.973.371 56.973.715 0 0 6.042-22.786 12.764-49.472z" sodipodi:nodetypes="ccscccccccccccccccccc" transform="translate(90.01 -469.382)"/><path style="fill:#6874b2;stroke:#fff6d5;stroke-width:1.03199184" inkscape:connector-curvature="0" d="M554.413 924.467c-11.543-9.643-4.307-12.718-21.372-13.653-27.46-1.504-54.885-4.588-82.258-7.176-53.16-5.026-105.483-9.582-159.01-5.808-49.124 3.465-98.266 17.796-147.372 21.156-53.794 3.68-106.864-4.43-160.354 2.538-32.465 4.23-64.994 6.404-97.156 12.814-18.135 3.615-42.658 15.74-60.825 15.74h-87.13v-2.996c25.282-13.57 50.155-27.528 75.044-42.328 15.424-9.172 25.038-12.672 42.815-7.184 15.99 4.938 28.65-2.506 44.69-2.816 19.816-.386 26.511 17.872 46.18 3.751 5.334-3.826 16.973-8.694 20.846-14.314 5.697-8.27-1.688-8.559 9.597-15.738 11.036-7.02 22.309-11.953 33.826-18 8.904-4.676 18.787-9.105 25.258-17.165 3.978-4.954 2.57-10.575 7.824-14.641 21.346-16.525 51.017-26.46 77.126-32.392 18.764-4.264.488 11.916 9.967 16.3 13.511 6.248 13.618 26.099 23.52 37.895 24.92 29.69 35.807 49.028 75.144 23.594 9.745-6.303 28.423-22.688 28.48-36.276.01-2.544 16.648-34.158 12.814-31.405-6.69 4.8-18.327 14.573-23.314 20.983 4.51-5.797 37.382-27.516 25.326-32.08 3.29 1.245 29.536-18.05 33.699-20.36 13.885-7.7 25.26-11.254 40.647-13.055 12.434-1.454 24.863-3.223 37.191-5.407 11.11-1.969 17.076-22.723 24.047-22.723 22.538 0-.783 39.29-1.02 47.397-.868 29.595-16.624 44.398-44.689 53.899-35.638 13.134-75.644 16.934-112.803 24.312 8.388-2.496 96.571-24.462 101.798-14.687a11.75 11.75 0 0 0-3.432-2.76c-2.961 6.623-26.63 66.103-29.094 65.69 13.818 2.314 55.391-41.025 65.76-49.196 11.71-9.23 23.318-18.608 35.203-27.612 8.96-6.787-11.499-15.375-15.328-14.13 21.719-7.054 19.61-28.385 44.063-25.976 15.783 7.4 19.709 3.453 25.893 17.06.823 8.315-1.313 30.045 3.425 37.176 8.797 13.241 55.68 32.18 71.376 37.354 30.2-1.566 3.598 52.219 3.598 52.219z" sodipodi:nodetypes="csccsccsccscccccccccccccccccccscccccccscccccc" transform="translate(90.01 -469.382)"/><path style="fill:#afafe9;stroke:#fff6d5;stroke-width:.95899844" inkscape:connector-curvature="0" d="M612.91 649.56c-19.319 8.215-41.225 28.984-50.43 44.667-2.541 4.304-5.58 16.213-13.133 16.213-2.33 0-4.719-5.474-5.779-7.281-3.35-5.7-25.999-1.786-31.519-1.786" transform="translate(90.01 -469.382)"/><path style="fill:#aaf;stroke:#fff6d5;stroke-width:1.64527416" inkscape:connector-curvature="0" d="M413.353 621.257c.404.91 17.808 8.254 20.515 9.693 8.874 4.717 18.354 11.353 27.355 14.54 9.482 3.363 23.706 12.224 27.674 17.43.157.206 9.719 7.785 11.077 9.229 5.656 6.009 2.309 12.17 6.839 21.81 4.935 10.479 15.055 10.208 18.236 16.965 2.524 5.37 8.85 12.116 11.396 12.116" transform="translate(90.01 -469.382)"/><path style="fill:#e2d7ac;stroke:#fff6d5;stroke-width:.70644349" sodipodi:nodetypes="sssss" inkscape:connector-curvature="0" d="M291.165 992.559c0 10.268-93.21 9.72-93.21 0 0-4.05 93.21-3.869 93.21 0 0 1.448 0-1.448 0 0z" transform="translate(90.01 -469.382)"/><path style="fill:#e2d7ac;stroke:#fff6d5;stroke-width:.34651825" sodipodi:nodetypes="sssss" inkscape:connector-curvature="0" d="M269.19 1065.284c0 4.562-50.68 4.315-50.68 0 0-1.795 50.68-1.715 50.68 0 0 .64 0-.641 0 0z" transform="translate(90.01 -469.382)"/><path style="fill:#e2d7ac;stroke:#fff6d5;stroke-width:.53765333" sodipodi:nodetypes="sssss" inkscape:connector-curvature="0" d="M295.833 1026.733c0 10.869-69.07 10.745-69.07 0-.001-3.167 69.07-3.025 69.07 0 0 1.132 0-1.132 0 0z" transform="translate(90.01 -469.382)"/><path style="fill:#e2d7ac;stroke:#fff6d5;stroke-width:.4913592" sodipodi:nodetypes="sssss" inkscape:connector-curvature="0" d="M295.856 1007.584c0 5.692-81.85 5.374-81.85 0 0-2.234 81.85-2.134 81.85 0 0 .799 0-.798 0 0z" transform="translate(90.01 -469.382)"/><path style="fill:#fea" inkscape:connector-curvature="0" inkscape:transform-center-y="-0.53650093" inkscape:transform-center-x="-0.016686902" d="M-69.783 513.292c-4.841-.444-4.604-5.397-10.698-1.535.33-2.122 1.32-7.217 1.783-9.21 2.318.213 8.366 1.076 10.698 1.536-6.566 3.896-.781 4.909-1.783 9.21z" transform="translate(90.01 -469.382)"/><path style="fill:#fea" inkscape:connector-curvature="0" inkscape:transform-center-y="-0.53650093" inkscape:transform-center-x="-0.016686902" d="M190.708 296.602c-4.225-.388-4.018-4.709-9.336-1.339.288-1.852 1.151-6.298 1.556-8.037 2.023.186 7.301.939 9.336 1.339-5.729 3.4-.682 4.284-1.556 8.037z" transform="matrix(1.1459 0 0 1.1459 -160.718 -221.421)"/><path style="fill:#fea" inkscape:connector-curvature="0" inkscape:transform-center-y="-0.53650093" inkscape:transform-center-x="-0.016686902" d="M307.078 284.353c-4.225-.388-4.017-4.71-9.335-1.339.288-1.852 1.151-6.299 1.556-8.038 2.023.186 7.301.939 9.336 1.339-5.729 3.4-.683 4.285-1.557 8.038z" transform="matrix(1.1459 0 0 1.1459 -27.37 -235.458)"/><path style="fill:#fea" inkscape:connector-curvature="0" inkscape:transform-center-y="-0.41964593" inkscape:transform-center-x="-0.4537769" d="M-10.761 536.832c-3.235-4.676.54-8.177-7.381-10.02 4.34-2.605 5.032-3.05 8.999-5.975 2.754 3.98 4.364 6.142 7.382 10.02-8.299-2.189-4.827 2.898-9 5.975z" transform="translate(90.01 -469.382)"/><path style="fill:#fea" inkscape:connector-curvature="0" inkscape:transform-center-y="-0.34088593" inkscape:transform-center-x="0.3860581" d="M9.47 549.136c-3.293 3.304-6.805.095-7.685 6.962-1.365-1.543-4.523-5.394-5.71-6.956 1.577-1.582 5.92-5.521 7.686-6.963-1.144 7.234 3.146 3.583 5.71 6.957z" transform="translate(90.01 -469.382)"/><path style="fill:#fea" inkscape:connector-curvature="0" inkscape:transform-center-y="-0.36253593" inkscape:transform-center-x="-0.2345169" d="M-32.764 593.4c-3.201-2.157-.883-5.631-6.73-5.505.65-.819 4.376-4.948 5.057-5.601.932.627 5.887 4.685 6.73 5.503-6.189-.044-2.517 3.174-5.057 5.603z" transform="translate(90.01 -469.382)"/><path style="fill:#fea" inkscape:connector-curvature="0" inkscape:transform-center-y="-0.31369593" inkscape:transform-center-x="0.3321281" d="M-36.746 582.866c-2.86 2.917-6.028-.162-7.02 5.944-.725-.833-4.308-5.504-4.856-6.338.833-.849 6.008-5.224 7.021-5.943-1.237 6.43 2.818 3.23 4.855 6.337z" transform="translate(90.01 -469.382)"/><path style="fill:#fea" inkscape:connector-curvature="0" inkscape:transform-center-y="-0.36988593" inkscape:transform-center-x="-0.1772819" d="M-58.043 589.55c-2.94-2.406-1.853-5.15-7.004-4.376 2.788-2.712 2.159-3.503 4.09-5.887 2.497 1.254 3.917 2.985 7.005 4.376-5.387.646-2.652 2.698-4.091 5.886z" transform="translate(90.01 -469.382)"/><path style="fill:#fea" inkscape:connector-curvature="0" inkscape:transform-center-y="-0.55431593" inkscape:transform-center-x="0.2293231" d="M-44.853 594.05c-5.345 1.372-7.261-3.242-11.605 3.349-.911-4.828-1.083-5.608-2.411-10.203 4.55-1.168 7.062-1.907 11.605-3.348-4.784 6.817 1.013 5.369 2.411 10.202z" transform="translate(90.01 -469.382)"/><path style="fill:#fea" inkscape:connector-curvature="0" inkscape:transform-center-y="-0.50827093" inkscape:transform-center-x="-0.044086902" d="M-81.583 615.23c-4.571-.676-4.085-5.364-10.073-2.02.426-1.996 1.632-6.78 2.178-8.646 2.188.324 7.882 1.462 10.07 2.02-6.433 3.352-.998 4.618-2.175 8.646z" transform="translate(90.01 -469.382)"/><path style="fill:#fea" inkscape:connector-curvature="0" inkscape:transform-center-y="-0.45270093" inkscape:transform-center-x="-0.3992419" d="M42.054 526.167c-3.606-4.223-.285-7.998-8.164-9.003 3.959-2.962 4.586-3.461 8.15-6.697 3.07 3.593 4.85 5.535 8.164 9.002-8.28-1.303-4.402 3.294-8.15 6.697z" transform="translate(90.01 -469.382)"/><path style="fill:#fea" inkscape:connector-curvature="0" inkscape:transform-center-y="-0.40175093" inkscape:transform-center-x="-0.1274419" d="M-15.61 627.737c-3.571-1.206-2.282-5.075-7.755-3.45.401-.937 2.844-5.787 3.319-6.576 1.039.352 6.749 2.895 7.753 3.449-5.84 1.551-1.553 3.637-3.318 6.577z" transform="translate(90.01 -469.382)"/><path style="fill:#fea" inkscape:connector-curvature="0" inkscape:transform-center-y="-0.63805593" inkscape:transform-center-x="0.085388098" d="M111.01 586.23c-5.92-.047-6.639-5.36-12.958.282.382-5.26.42-6.115.306-11.246 5.042.041 7.848-.036 12.959-.281-6.838 5.755-.426 5.848-.306 11.246z" transform="translate(90.01 -469.382)"/><path style="fill:#fea" inkscape:connector-curvature="0" inkscape:transform-center-y="-0.49739593" inkscape:transform-center-x="0.1700381" d="M146.517 519.462c-4.59 1.265-6.083-3.355-10.335 2.29-.43-2.059-1.284-7.07-1.548-9.057 2.198-.606 8.04-1.903 10.335-2.288-4.67 5.838.98 4.768 1.548 9.055z" transform="translate(90.01 -469.382)"/><path style="fill:#e1dcc9" inkscape:connector-curvature="0" inkscape:transform-center-y="-0.57044093" inkscape:transform-center-x="0.1164231" d="M127.28 1042.921c-5.346.322-6.323-4.428-11.674 1.053.02-4.768 0-5.544-.42-10.166 4.552-.274 7.08-.517 11.676-1.053-5.816 5.616-.023 5.303.418 10.166z" transform="translate(90.01 -469.382)"/><path style="fill:#fff6d5" inkscape:connector-curvature="0" inkscape:transform-center-y="0.32077407" inkscape:transform-center-x="-0.3490169" d="M25.259 580.646c2.926-3.067 6.257.085 7.2-6.266.765.854 4.547 5.648 5.127 6.506-.851.893-6.159 5.505-7.2 6.266 1.194-6.688-2.97-3.31-5.127-6.506z" transform="translate(90.01 -469.382)"/><path style="fill:#fff6d5" inkscape:connector-curvature="0" inkscape:transform-center-y="-0.46936093" inkscape:transform-center-x="0.1215731" d="M54.992 539.502c-4.31.843-5.359-3.51-9.664 1.382-.252-1.922-.686-6.59-.79-8.437 2.064-.403 7.527-1.188 9.665-1.382-4.704 5.043.566 4.455.79 8.437z" transform="translate(90.01 -469.382)"/><path style="fill:#fff6d5" inkscape:connector-curvature="0" inkscape:transform-center-y="-0.44169593" inkscape:transform-center-x="0.1109906" d="M497.12 541.688c-3.968.919-4.982-3.37-9.089 1.233-.163-1.09-.671-6.935-.684-7.93 1.155-.267 7.85-1.17 9.087-1.232-4.486 4.74.638 4.224.685 7.929z" transform="translate(90.01 -469.382)"/><path style="fill:#fff6d5" inkscape:connector-curvature="0" inkscape:transform-center-y="-0.16719093" inkscape:transform-center-x="-0.4552019" d="M485.193 560.268c-1.264-4.206 2.967-5.68-2.327-9.482 1.89-.44 6.493-1.333 8.32-1.617.604 2.015 1.924 7.375 2.326 9.484-5.483-4.186-4.378 1.001-8.319 1.615z" transform="translate(90.01 -469.382)"/><path style="fill:#fff6d5" inkscape:connector-curvature="0" inkscape:transform-center-y="-0.18683593" inkscape:transform-center-x="0.5003311" d="M404.69 521.65c-1.962 4.421-6.555 2.619-4.857 9.594-1.894-.988-6.381-3.545-8.112-4.618.94-2.118 3.682-7.542 4.858-9.593 1.578 7.43 4.377 2.303 8.112 4.618z" transform="translate(90.01 -469.382)"/><path style="fill:#fff6d5" inkscape:connector-curvature="0" inkscape:transform-center-y="-0.34153593" inkscape:transform-center-x="-0.3617114" d="M492.083 551.956c-2.89-3.457.504-6.556-6.025-8.002 1.603-1.178 5.586-3.879 7.193-4.885 1.384 1.656 4.793 6.177 6.025 8.002-6.86-1.733-3.723 2.715-7.193 4.885z" transform="translate(90.01 -469.382)"/><path style="fill:#fff6d5" inkscape:connector-curvature="0" inkscape:transform-center-y="-0.14539093" inkscape:transform-center-x="0.4725626" d="M533.654 594.438c-1.573 4.193-5.915 2.775-3.967 9.13-1.805-.809-6.09-2.928-7.749-3.825.753-2.007 2.992-7.17 3.967-9.13 1.865 6.78 4.172 1.89 7.749 3.825z" transform="translate(90.01 -469.382)"/><path style="fill:#fff6d5" inkscape:connector-curvature="0" inkscape:transform-center-y="0.02707407" inkscape:transform-center-x="0.5214896" d="M532.863 602.696c-.04 4.73-4.86 4.898-.626 10.495-2.084-.149-7.103-.696-9.073-.985.02-2.266.37-8.198.626-10.495 4.308 6.049 4.823.36 9.073.985z" transform="translate(90.01 -469.382)"/><path style="fill:#fff6d5" inkscape:connector-curvature="0" inkscape:transform-center-y="-0.11902593" inkscape:transform-center-x="-0.5039799" d="M555.043 561.15c-.8-4.622 3.873-5.643-1.253-10.351 2.059-.225 7.054-.582 9.027-.65.383 2.213 1.095 8.065 1.254 10.352-5.277-5.138-4.77.503-9.028.648z" transform="translate(90.01 -469.382)"/><path style="fill:#fff6d5" inkscape:connector-curvature="0" inkscape:transform-center-y="-0.10051593" inkscape:transform-center-x="0.4944196" d="M564.485 512.133c-1.179 4.415-5.73 3.41-3.118 9.669-1.913-.642-6.477-2.366-8.25-3.112.565-2.115 2.324-7.582 3.12-9.668 2.567 6.699 4.422 1.5 8.248 3.11z" transform="translate(90.01 -469.382)"/><path style="fill:#fff6d5" inkscape:connector-curvature="0" inkscape:transform-center-y="-0.52527093" inkscape:transform-center-x="0.0045716" d="M477.265 559.938c-4.751-.246-4.712-5.097-10.522-1.084.24-2.086 1.01-7.109 1.385-9.074 2.275.118 8.223.726 10.52 1.084-6.267 4.064-.572 4.83-1.383 9.074z" transform="translate(90.01 -469.382)"/><path style="fill:#fff6d5" inkscape:connector-curvature="0" inkscape:transform-center-y="0.01400407" inkscape:transform-center-x="0.5241216" d="M373.876 495.266c-.16 4.747-5.003 4.795-.892 10.52-2.088-.202-7.112-.88-9.082-1.218.077-2.273.578-8.22.893-10.52 4.17 6.181 4.831.485 9.081 1.218z" transform="translate(90.01 -469.382)"/><path style="fill:#e1dcc9" inkscape:connector-curvature="0" inkscape:transform-center-y="-0.54917593" inkscape:transform-center-x="0.0285931" d="M565.903 1001.417c-5.039-.452-5.283-5.026-11.053-.658.157-2.193.733-7.48 1.037-9.554 3.508.312 7.747.287 11.053.656-6.369 4.538-.38 5.08-1.037 9.556z" transform="translate(90.01 -469.382)"/><path style="fill:#e1dcc9" inkscape:connector-curvature="0" inkscape:transform-center-y="-0.64339593" inkscape:transform-center-x="0.0423381" d="M396.768 942.936c-5.914-.447-6.276-5.804-12.97-.594.737-5.23.831-6.08 1.063-11.218 5.036.38 7.846.494 12.97.594-7.222 5.292-.821 5.815-1.063 11.218z" transform="translate(90.01 -469.382)"/><path style="fill:#e1dcc9" inkscape:connector-curvature="0" inkscape:transform-center-y="-0.06269093" inkscape:transform-center-x="0.6414631" d="M18.952 967.05c-1.402 5.76-6.746 5.246-2.69 12.696-5.038-1.576-5.865-1.807-10.894-2.87 1.193-4.905 1.76-7.658 2.69-12.695 4.048 7.982 5.603 1.753 10.894 2.87z" transform="translate(90.01 -469.382)"/><path style="fill:#e1dcc9" inkscape:connector-curvature="0" inkscape:transform-center-y="-0.10206093" inkscape:transform-center-x="-0.4884519" d="M-90.83 1017.025c-.655-4.471 3.871-5.339-.948-10.002 1.989-.167 6.81-.384 8.712-.4.314 2.141.855 7.796.949 10.002-4.954-5.082-4.608.364-8.712.4z" transform="translate(90.01 -469.382)"/><path style="fill:#e1dcc9" inkscape:connector-curvature="0" inkscape:transform-center-y="-0.03684593" inkscape:transform-center-x="0.6654031" d="M-73.229 994.782c-2.297 5.72-6.412 6.258-2.226 13.233-5.273-1.408-6.137-1.611-11.378-2.491 3.019-7.51 2.64-5.022 2.227-13.232 4.527 8.07 5.865 1.566 11.377 2.49z" transform="translate(90.01 -469.382)"/><path style="fill:#e1dcc9" inkscape:connector-curvature="0" inkscape:transform-center-y="-0.53196593" inkscape:transform-center-x="0.0081331" d="M84.978 952.935c-4.814-.216-4.806-5.131-10.662-1.028.229-2.115.974-7.206 1.341-9.2 2.306.104 8.333.682 10.664 1.028-6.322 4.158-.549 4.896-1.343 9.2z" transform="translate(90.01 -469.382)"/><path style="fill:#e1dcc9" inkscape:connector-curvature="0" inkscape:transform-center-y="-0.37758593" inkscape:transform-center-x="-0.4972019" d="M487.691 1013.11c-2.795-5.017 1.343-8.168-6.442-10.795 4.619-2.197 5.357-2.574 9.63-5.129 2.38 4.27 3.79 6.603 6.442 10.794-8.127-3.007-5.135 2.444-9.63 5.13z" transform="translate(90.01 -469.382)"/><path style="fill:#e1dcc9" inkscape:connector-curvature="0" inkscape:transform-center-y="-0.24289093" inkscape:transform-center-x="-0.5503369" d="M400.807 1004.9c-1.5-5.326 3.081-7.356-3.628-11.556 4.819-1.027 5.598-1.218 10.172-2.657 1.277 4.534 2.078 7.034 3.628 11.556-6.947-4.636-5.36 1.141-10.172 2.657z" transform="translate(90.01 -469.382)"/><path style="fill:#e1dcc9" inkscape:connector-curvature="0" inkscape:transform-center-y="0.00193907" inkscape:transform-center-x="0.5125581" d="M-39.532 977.54c-.263 4.636-4.998 4.573-1.11 10.261-2.036-.244-6.931-1.02-8.848-1.395.126-2.221.748-8.02 1.11-10.26 3.935 6.132 4.71.582 8.848 1.395z" transform="translate(90.01 -469.382)"/><path style="fill:#e1dcc9" inkscape:connector-curvature="0" inkscape:transform-center-y="-0.26438593" inkscape:transform-center-x="-0.4627869" d="M524.077 949.848c-2.137-4.328 2.178-6.699-4.255-9.852 1.969-.823 6.794-2.63 8.721-3.272 1.025 2.074 3.432 7.642 4.255 9.854-6.705-3.535-4.562 1.886-8.721 3.27z" transform="translate(90.01 -469.382)"/><path style="fill:#e1dcc9" inkscape:connector-curvature="0" inkscape:transform-center-y="-0.51873093" inkscape:transform-center-x="0.1549731" d="M542.14 1075.182c-4.774 1.118-6.124-3.7-10.726 1.94-.36-2.135-1.037-7.329-1.229-9.383 2.288-.535 8.35-1.635 10.727-1.94-5.04 5.82.815 4.948 1.228 9.384z" transform="translate(90.01 -469.382)"/><path style="fill:#e1dcc9" inkscape:connector-curvature="0" inkscape:transform-center-y="-0.44569093" inkscape:transform-center-x="-0.3696919" d="M400.932 1033.063c-3.58-3.944-.505-7.662-8.091-8.396 3.71-2.955 4.297-3.451 7.62-6.659 3.048 3.358 4.812 5.167 8.091 8.395-7.975-1.01-4.124 3.286-7.62 6.66z" transform="translate(90.01 -469.382)"/><path style="fill:#e1dcc9" inkscape:connector-curvature="0" inkscape:transform-center-y="-0.44153593" inkscape:transform-center-x="0.2651381" d="M160.858 957.968c-4.137 2.155-6.518-1.963-9.43 4.318-.835-1.884-2.684-6.509-3.344-8.357 1.98-1.032 7.31-3.476 9.43-4.317-3.272 6.552 1.919 4.367 3.344 8.356z" transform="translate(90.01 -469.382)"/></g></svg>