<!--Created with Inkscape (http://www.inkscape.org/)--><svg xmlns:dc="http://purl.org/dc/elements/1.1/" xmlns:cc="http://creativecommons.org/ns#" xmlns:rdf="http://www.w3.org/1999/02/22-rdf-syntax-ns#" xmlns="http://www.w3.org/2000/svg" xmlns:sodipodi="http://sodipodi.sourceforge.net/DTD/sodipodi-0.dtd" xmlns:inkscape="http://www.inkscape.org/namespaces/inkscape" width="15.742402mm" height="17.197994mm" viewBox="0 0 55.780166 60.937774" inkscape:version="0.91 r13725" sodipodi:docname="photo2_1.svg"><sodipodi:namedview pagecolor="#ffffff" bordercolor="#666666" borderopacity="1.0" inkscape:pageopacity="0.0" inkscape:pageshadow="2" inkscape:zoom="0.98994949" inkscape:cx="359.15386" inkscape:cy="347.21945" inkscape:document-units="px" inkscape:current-layer="layer1" showgrid="false" fit-margin-top="0" fit-margin-left="0" fit-margin-right="0" fit-margin-bottom="0" inkscape:window-width="1623" inkscape:window-height="1029" inkscape:window-x="57" inkscape:window-y="21" inkscape:window-maximized="1" units="px"/><metadata><rdf:RDF><cc:Work><dc:format>image/svg+xml</dc:format><dc:type rdf:resource="http://purl.org/dc/dcmitype/StillImage"/><dc:title/></cc:Work></rdf:RDF></metadata><g inkscape:label="Layer 1" inkscape:groupmode="layer"><path style="fill:#9a6c59;stroke:#9a6c59;stroke-width:.16448943" inkscape:connector-curvature="0" d="M763.375 5.967c-.22-3.838-.768-7.677-1.81-11.35-3.015 0-4.44 3.07-6.689 4.55-1.974-.164-3.838-.822-5.702-1.315-4.551-1.316-9.376-.932-14.037-.932-3.838-.055-7.402 1.425-11.075 2.193-1.535.493-2.413-1.261-3.4-2.084-.712-.493-1.48-1.041-2.302-1.425.822.384 1.535.877 2.302 1.425-1.096-1.26-2.083-3.18-4.057-2.96-2.303 3.673-1.81 8.334-2.742 12.446-1.15 4.606.494 9.485-1.425 13.927-1.7 4.276-1.426 8.992-1.042 13.488 1.535 2.467 2.742 5.209 4.88 7.237 2.358 2.248 5.319 4.716 8.828 4.003-.165-.22-.384-.658-.549-.877l-.329-.33c-1.37.768-2.906.33-4.057-.548-3.51-2.467-6.634-5.866-7.621-10.143-1.92-5.319.329-10.802 1.864-15.9v-2.523c0-1.7.11-3.4.22-5.1-.11 1.7-.165 3.4-.22 5.1v2.522c2.083 2.522 4.057 5.1 5.812 7.896 1.919 3.015 2.96 6.415 4.276 9.705 1.536-2.523 3.07-5.374 5.922-6.635.603-.22 1.152-.055 1.535.603 1.536-.877-.658-1.26-1.37-1.645.438 0 1.425.055 1.864.055-.22-.987 1.042-1.48 1.59-.658.11-.164.384-.438.493-.548.11-.11.22-.274.33-.384 2.631-.164 5.373-.603 7.95.165.932.329 1.864.712 2.741 1.206.658.11 1.261.329 1.92.493-.44.055-1.372.22-1.81.275.329.383.713.767 1.042 1.206.274-.22.877-.713 1.151-.932 2.358 1.645 4.167 3.947 5.428 6.47.22 0 .713.054.932.054 1.535-6.524 5.538-12.117 9.705-17.216.22-3.783-.055-7.676-.548-11.514zm-46.99-9.596c.055-.219.11-.493.22-.658-.11.165-.164.44-.22.658 0 .11-.054.22-.054.33 0-.11 0-.22.055-.33zm-.109.549c0 .11-.055.219-.055.329 0-.165.055-.22.055-.33zm39.916 26.208c-2.577 1.865-5.976 2.03-8.937 1.371-2.851-.932-5.319-2.906-7.183-5.209l-.767.603c-.055.22-.055.604-.11.823-.548-.548-1.042-1.042-1.48-1.645-1.81 3.125-5.045 5.209-8.609 5.702-4.606.494-9.54-2.028-11.569-6.196-.932-2.028-1.59-4.331-1.206-6.58.767-3.673 2.851-7.237 6.196-9.046 2.248-.713 4.66-1.535 7.073-.932 4.057.713 7.347 3.838 9.047 7.512.164 0 .493.054.658.054 1.644-3.564 4.715-6.689 8.717-7.402 3.729-.987 7.567.603 10.473 2.961 1.7 2.522 3.4 5.373 3.29 8.499-.165 3.893-2.577 7.292-5.593 9.485z" transform="translate(-711.025 6.03)"/><path style="fill:#f57a09;stroke:#f57a09;stroke-width:.16448943" inkscape:connector-curvature="0" d="M722.527 2.951c2.248-.713 4.66-1.535 7.073-.932 4.057.713 7.347 3.838 9.047 7.512.164 0 .493.054.658.054 1.644-3.564 4.715-6.689 8.717-7.402 3.729-.987 7.567.603 10.473 2.961 1.7 2.522 3.4 5.373 3.29 8.499-.11 3.893-2.522 7.292-5.593 9.485-2.577 1.865-5.976 2.029-8.937 1.371-2.851-.932-5.319-2.906-7.183-5.209.713-.822 1.37-1.7 2.029-2.577-.987-.932-1.974-1.864-3.07-2.686-.11.11-.33.274-.44.329-.877.767-1.699 1.59-2.521 2.412.548.768 1.041 1.535 1.644 2.303-1.809 3.125-5.044 5.209-8.608 5.702-4.606.494-9.54-2.028-11.569-6.196-.932-2.028-1.59-4.331-1.206-6.58.767-3.618 2.796-7.237 6.196-9.046m2.302 2.029c-3.454.987-6.14 4.44-5.976 8.114-.22 3.839 2.796 7.512 6.58 8.17 4.934 1.316 10.362-3.07 10.088-8.17.33-5.373-5.592-9.814-10.692-8.114m23.632 0c-4.55 1.316-7.347 6.689-5.538 11.13 1.59 4.167 6.8 6.58 10.911 4.825 3.345-1.261 5.648-4.77 5.264-8.389 0-5.154-5.757-9.211-10.637-7.566z" transform="translate(-711.025 6.03)"/><path style="fill:#fdfcfa;stroke:#fdfcfa;stroke-width:.16448943" inkscape:connector-curvature="0" d="M724.83 4.98c5.099-1.755 11.075 2.741 10.746 8.114.274 5.1-5.154 9.486-10.089 8.17-3.783-.658-6.798-4.331-6.58-8.17-.218-3.673 2.468-7.073 5.922-8.114m.22 3.07a5.94 5.94 0 0 0-3.345 3.07c-1.59 3.126.165 7.348 3.564 8.335 3.893 1.535 8.499-2.248 7.896-6.36-.384-3.784-4.551-6.36-8.115-5.045z" transform="translate(-711.025 6.03)"/><path style="fill:#fffcf9;stroke:#fffcf9;stroke-width:.16448943" inkscape:connector-curvature="0" d="M748.461 4.98c4.88-1.645 10.637 2.357 10.692 7.566.384 3.564-1.974 7.128-5.264 8.39-4.167 1.809-9.376-.604-10.91-4.826-1.92-4.441.876-9.814 5.482-11.13m1.152 3.015c-1.48.494-2.852 1.536-3.564 2.961-1.92 3.235.164 7.786 3.783 8.608 3.673 1.261 7.786-2.083 7.566-5.921.11-3.893-4.057-6.909-7.785-5.648z" transform="translate(-711.025 6.03)"/><path style="fill:#201e20;stroke:#201e20;stroke-width:.16448943" inkscape:connector-curvature="0" d="M725.049 8.05c3.564-1.316 7.73 1.261 8.115 5.044.603 4.113-4.003 7.896-7.896 6.36-3.4-.986-5.154-5.208-3.564-8.333a5.94 5.94 0 0 1 3.345-3.07m-.274 3.453c.11 1.48 2.248 1.81 2.906.44.712-1.152-.658-1.865-1.316-2.523-.658.493-1.81.987-1.59 2.083z" transform="translate(-711.025 6.03)"/><path style="fill:#211e1e;stroke:#211e1e;stroke-width:.16448943" inkscape:connector-curvature="0" d="M749.613 7.995c3.673-1.26 7.84 1.755 7.785 5.648.22 3.838-3.893 7.182-7.566 5.921-3.619-.822-5.702-5.373-3.783-8.608.767-1.425 2.083-2.467 3.564-2.96m1.041 4.33c.932 1.207 2.303.056 2.906-.876-.438-.878-1.151-1.536-1.974-2.03-.932.659-2.193 1.92-.932 2.907z" transform="translate(-711.025 6.03)"/><path style="fill:#fffdfc;stroke:#fffdfc;stroke-width:.16448943" inkscape:connector-curvature="0" d="M750.654 12.327c-1.26-.987 0-2.248.932-2.906a5.398 5.398 0 0 1 1.974 2.029c-.603.877-1.919 2.083-2.906.877z" transform="translate(-711.025 6.03)"/><path style="fill:#fffcfa;stroke:#fffcfa;stroke-width:.16448943" inkscape:connector-curvature="0" d="M724.775 11.504c-.275-1.096.932-1.59 1.59-2.083.658.658 1.974 1.425 1.316 2.522-.658 1.37-2.742 1.042-2.906-.439z" transform="translate(-711.025 6.03)"/><path style="fill:#734d38;stroke:#734d38;stroke-width:.16448943" inkscape:connector-curvature="0" d="M763.868 17.536c.494-1.207.549-2.577.658-3.838v.219c-.055 1.754-.384 3.619.439 5.318 1.974 4.442 2.083 9.486 1.316 14.201-.987 4.825-5.045 8.006-8.554 11.021-1.206.165-2.357.274-3.564 0-.164-.932-.383-1.864-.603-2.796l-.055-.165a.416.416 0 0 0-.11.22 39.176 39.176 0 0 1-1.425-.768c.439-.11 1.316-.384 1.7-.493 0-.604 0-1.262.055-1.865.055-.493 0-1.041 0-1.535a15.5 15.5 0 0 1-.11-1.59c-.548.439-1.151.877-1.7 1.316-.383-.493-.822-.987-1.206-1.48.877 0 1.81-.055 2.687-.055l-.274-.439c.219 0 .712.055.932.055 1.7-6.634 5.702-12.172 9.814-17.326z" transform="translate(-711.025 6.03)"/><path style="fill:#f89b2f;stroke:#f89b2f;stroke-width:.16448943" inkscape:connector-curvature="0" d="M738.592 14.41c.11-.054.329-.274.438-.329a46.789 46.789 0 0 1 3.07 2.687c-.657.877-1.315 1.755-2.028 2.577l-.767.603c-.165-1.919-.494-3.728-.713-5.538z" transform="translate(-711.025 6.03)"/><path style="fill:#fcb831;stroke:#fcb831;stroke-width:.16448943" inkscape:connector-curvature="0" d="M736.07 16.768c.822-.822 1.644-1.645 2.522-2.412.22 1.809.548 3.673.658 5.483-.055.219-.055.603-.11.822-.548-.548-1.042-1.042-1.48-1.645a33.079 33.079 0 0 1-1.59-2.248z" transform="translate(-711.025 6.03)"/><path style="fill:#734d38;stroke:#734d38;stroke-width:.16448943" inkscape:connector-curvature="0" d="M714.357 17.426c2.084 2.522 4.057 5.1 5.812 7.896 1.919 3.015 2.96 6.415 4.277 9.704.548.11 1.645.275 2.248.384-.603.439-1.152.823-1.755 1.261-.11.713-.22 1.371-.274 2.084a5.287 5.287 0 0 0 0 1.316c-.055.713-.165 1.48-.274 2.193.713.055 1.37.11 2.083.11-.274.383-.548.767-.767 1.151H724.5s0-.055-.054-.11l-.22.165-.11.384c-1.37.767-2.905.329-4.057-.549-3.509-2.467-6.634-5.866-7.621-10.143-1.81-5.264.384-10.747 1.919-15.846z" transform="translate(-711.025 6.03)"/><path style="fill:#f9eae3;stroke:#f9eae3;stroke-width:.16448943" inkscape:connector-curvature="0" d="M734.863 25.815c2.632-.164 5.374-.603 7.95.165l.549.164c-.987.164-1.974.274-2.96.439.547.274.986.932 1.699.932l1.26-1.261c.275.274.878.877 1.207 1.151l1.042-.164c.658.11 1.261.329 1.919.493-.439.055-1.37.22-1.81.274l-.493.055c.274.493.548.932.823 1.426-.768.219-1.536.438-2.248.658.219.274.712.877.932 1.151.603-.329 1.096-.877 1.864-1.042.439.33.877.603 1.37.877.384-.274.768-.657 1.207-.986-.768-.22-1.48-.44-2.193-.768l-.165-.22c.274-.219.877-.712 1.152-.932 2.357 1.645 4.167 3.948 5.428 6.47l.274.439c-.932 0-1.81.055-2.687.055.384.493.768.987 1.207 1.48.548-.438 1.096-.877 1.7-1.316a15.5 15.5 0 0 1 .109 1.59c-1.426-.383-1.097 1.426 0 1.536 0 .603-.055 1.26-.055 1.864-.439.11-1.316.384-1.7.493a39.16 39.16 0 0 1 1.426.768c-.713.439-2.687.22-2.138 1.48l.219.439c-.603 0-1.151 0-1.755.055l.549-1.097c-.823-.055-1.7-.055-2.522-.11.328.44.657.878 1.041 1.262h-2.303c.275-.439.549-.823.823-1.261-.823 0-1.645 0-2.413.054.22.384.494.768.768 1.152-.603-.055-1.261-.055-1.864-.11l.493-1.042c-.987-.054-1.919-.054-2.85-.11.493-.602.986-1.15 1.48-1.754h-2.687c.329.274.987.877 1.37 1.152-.822.219-1.754 1.151-2.467.274-.164-.603.494-1.097.658-1.59l-2.303.164c.22.494.494.932.658 1.48-.658.11-1.316.165-1.919.165l-.493-.11c.274-.383.877-1.151 1.151-1.535h-2.577c.274.274.823.877 1.152 1.152-.768.603-2.797.383-2.139 1.809-.548.055-1.151.055-1.7.055.22-.384.494-.823.713-1.207h-2.412c.274.384.548.768.877 1.152-.548-.055-1.042-.11-1.59-.165 0-1.59-2.138-1.59-2.083 0l-1.48.165c.273-.384.493-.768.767-1.152-.713-.054-1.426-.11-2.084-.11.11-.712.165-1.48.274-2.192.658.164 1.755-.275 1.536-1.152-.384-.055-1.207-.164-1.59-.22.054-.712.164-1.37.274-2.083.603-.438 1.151-.822 1.754-1.26-.548-.11-1.645-.275-2.248-.385 1.535-2.522 3.07-5.373 5.922-6.634.329.768.822.987 1.535.603 1.535-.877-.658-1.26-1.37-1.645.438 0 1.425.055 1.864.055l.383.055c.274-.165.932-.548 1.207-.768.11-.164.383-.438.493-.548.494 1.426 1.92 1.535 2.742.274-.604-.055-1.755-.164-2.358-.164l-.165-.384m2.797.548c.219.274.603.823.822 1.042.768.713 1.206-.658 1.755-.987-.878-.055-1.755-.055-2.577-.055m-4.551 1.81c1.206.767 1.59 2.467 2.906 3.015.932-.987 1.754-2.029 2.577-3.07-.877 0-1.7.054-2.522.054.274.275.877.768 1.151 1.042-.822.549-1.81.494-2.577 0 .274-.274.822-.822 1.042-1.096-.877-.055-1.7 0-2.577.054m5.867.11c.329.22 1.041.713 1.37.987.439.713.713 1.864 1.755 1.92.22-.275.603-.769.768-.988-1.152-.274-2.084-.932-1.974-2.193-.603.055-1.261.164-1.92.274m3.126-.164c.329.438.658.822.987 1.26.767.11 1.042-.767 1.535-1.206-.877-.054-1.7-.054-2.522-.054m-10.308 1.7c.329.493.439 1.315 1.151 1.425.439-.384.878-.768 1.261-1.151-.822-.165-1.59-.22-2.412-.275m5.867.165c.438.493.877.987 1.37 1.48.33-.548.713-1.041 1.042-1.59-.822 0-1.645.055-2.412.11m-8.499.055c-.603.822.877 1.535 1.426.877.658-.877-.878-1.59-1.426-.877m-1.535 1.81c-.548 1.205 1.754 1.425 1.919.273-.22-.767-1.48-.713-1.92-.274m2.852.055c-.384 1.042 1.755 1.37 1.864.274-.22-.768-1.37-.658-1.864-.274m3.18 0c-.548 1.151 1.59 1.316 1.81.274-.165-.713-1.371-.658-1.81-.274m2.851 0c-.438 1.042 1.7 1.37 1.81.329-.165-.823-1.371-.713-1.81-.33m3.016-.054c-.603 1.151 1.754 1.426 1.974.329-.165-.822-1.426-.713-1.974-.329m2.851.329c.11 1.097 2.303.822 1.81-.274-.494-.384-1.645-.494-1.81.274m2.577-.329c.329.22.987.713 1.37.932-.164.165-.548.439-.712.603-.768.055-1.48.055-2.248.11.329.384.713.768 1.097 1.151.438-.11 1.26-.274 1.7-.383l1.754.438c.384-.384.767-.713 1.151-1.096-.932-.165-1.864-.22-2.741-.549.329-.329 1.042-1.041 1.37-1.425-.986.11-1.864.164-2.741.22m3.51 0c-.55 1.205 1.754 1.48 1.918.328-.164-.877-1.425-.768-1.919-.329m-22.864 1.59a3.304 3.304 0 0 0 1.37 1.37c.44-.383.823-.822 1.262-1.26-.932-.055-1.81-.11-2.632-.11m2.796.11c.384.438.823.822 1.262 1.26a4.281 4.281 0 0 0 1.48-1.315c-.932-.055-1.81 0-2.742.055m3.564 0c-.603.877 1.042 1.425 1.59.767.658-.932-1.096-1.316-1.59-.767m2.523-.11c.438.548.822 1.152 1.315 1.7-.986.055-1.973.11-2.96.22.329.273.987.876 1.316 1.205a3.78 3.78 0 0 0 1.315-1.316c.604.384 1.152.878 1.81 1.207.493-.22.767-.768 1.151-1.152-.932-.055-1.864-.219-2.632-.712.275-.275.878-.823 1.207-1.152h-2.522m2.796.11c.493.438 1.042.877 1.59 1.37.384-.493.768-.932 1.151-1.425-.877-.055-1.809 0-2.741.055m3.125-.055c.439.548.877 1.097 1.37 1.645-.986.055-1.973.164-2.96.22.274.218.823.712 1.042.986.767.494 1.042-.932 1.645-1.151.603.438 1.151.877 1.754 1.316.33-.275.932-.768 1.261-1.042-1.26.055-3.29-.713-1.7-2.084-.822 0-1.59.055-2.412.11m8.937-.055c.384.494.823.987 1.207 1.426.493-.439 1.041-.932 1.535-1.371-.932-.055-1.864-.055-2.742-.055m-22.041 2.139c-.055 1.206 2.029 1.206 1.974 0-.384-.658-1.645-.658-1.974 0m2.741-.33c.439.494.823.987 1.316 1.48.384-.493.768-1.04 1.152-1.534-.878.054-1.7.054-2.468.054m14.86 0c.438.44.712 1.316 1.534 1.207.384-.384.713-.768 1.042-1.207h-2.577m3.235.275c-.055 1.206 2.084 1.26 1.974 0-.329-.603-1.59-.658-1.974 0m-22.041 1.7c-.549.767.822 1.425 1.316.767.657-.768-.878-1.37-1.316-.768m3.07.768c.494.603 1.864 0 1.37-.768-.547-.603-2.028 0-1.37.768m2.906-.768c-.548.768.877 1.371 1.37.768.604-.768-.877-1.37-1.37-.768m2.796 0c-.438 1.042 1.59 1.426 1.755.33-.055-.768-1.316-.768-1.755-.33m3.18 0c-.603.823.878 1.536 1.426.823.713-.877-.932-1.535-1.426-.823m2.577-.164c.275.658.549 1.316.878 1.974-.658 0-1.974-.055-2.632-.11.384.384.768.768 1.206 1.097.877-.549 1.974-.987 2.851-.22.603.549 1.097-.548 1.59-.767-.932-.11-1.809-.165-2.686-.274.274-.604.658-1.152.987-1.7h-2.194m3.345.11c-.658.822.877 1.535 1.426.822.658-.822-.932-1.48-1.426-.822m2.906.054c-.493 1.097 1.59 1.426 1.755.33-.11-.768-1.316-.768-1.755-.33m3.07-.054c-.657.822.933 1.535 1.426.822.713-.822-.932-1.426-1.425-.822m-23.029 1.754c.494.439.987.877 1.535 1.261l1.152-1.316c-.932.055-1.81.055-2.687.055m3.51.11c-.604 1.26 2.247 1.26 1.754 0-.603-.33-1.207-.33-1.755 0m2.522-.11c.384.439.823.877 1.261 1.316.494-.439.987-.822 1.48-1.261-.986-.055-1.863-.055-2.74-.055m3.399.055c-.494 1.151 1.754 1.48 1.974.329-.165-.823-1.426-.713-1.974-.33m8.882 0c-.493 1.152 1.755 1.536 1.974.385-.164-.823-1.48-.768-1.974-.384m2.577.055c.494.384.987.822 1.48 1.206.384-.439.823-.877 1.207-1.37-.932 0-1.81.054-2.687.164m3.454 0c-.493 1.26 2.303 1.26 1.755 0-.603-.33-1.206-.384-1.755 0m-25.33 1.645c-.604 1.37 2.412 1.37 1.863 0-.658-.384-1.26-.33-1.864 0m2.522-.055c.384.438.768.822 1.152 1.206.877-.603 1.974-1.042 2.906-.274.712.658 1.096-.603 1.59-.932-1.92-.055-3.784 0-5.648 0m14.86 0c.383.384.767.767 1.15 1.096.878-.493 1.974-1.041 2.852-.164.713.822 1.206-.603 1.754-.877-1.919-.055-3.838-.11-5.757-.055m6.196.384c.164 1.206 2.467.877 1.974-.33-.549-.328-1.755-.493-1.974.33z" transform="translate(-711.025 6.03)"/><path style="fill:#2c2b2b;stroke:#2c2b2b;stroke-width:.16448943" inkscape:connector-curvature="0" d="M734.534 26.199c.11-.11.22-.274.33-.384l.054.493c.603.055 1.755.165 2.358.165-.823 1.261-2.248 1.151-2.742-.274z" transform="translate(-711.025 6.03)"/><path style="fill:#2c2b2b;stroke:#2c2b2b;stroke-width:.16448943" inkscape:connector-curvature="0" d="M742.814 25.98c.932.328 1.864.767 2.741 1.206l-1.042.164c-.274-.274-.877-.822-1.206-1.151l-1.261 1.26c-.713 0-1.151-.602-1.7-.931.987-.165 1.974-.274 2.961-.439l-.493-.11z" transform="translate(-711.025 6.03)"/><path style="fill:#2c2b2b;stroke:#2c2b2b;stroke-width:.16448943" inkscape:connector-curvature="0" d="M732.45 27.46c-.219-.987 1.043-1.48 1.59-.658a9.016 9.016 0 0 0-1.205.768l-.384-.11z" transform="translate(-711.025 6.03)"/><path style="fill:#2c2b2b;stroke:#2c2b2b;stroke-width:.16448943" inkscape:connector-curvature="0" d="M737.66 26.363c.877 0 1.7.055 2.577.11-.549.329-1.042 1.7-1.755.987-.22-.33-.658-.877-.822-1.097z" transform="translate(-711.025 6.03)"/><path style="fill:#2c2b2b;stroke:#2c2b2b;stroke-width:.16448943" inkscape:connector-curvature="0" d="M733.109 28.173c.877-.055 1.7-.11 2.632-.11-.275.274-.823.822-1.042 1.097.767.493 1.754.548 2.577 0-.274-.275-.877-.768-1.152-1.042.823-.055 1.7-.055 2.523-.055-.823 1.097-1.645 2.138-2.577 3.07-1.371-.493-1.755-2.193-2.961-2.96z" transform="translate(-711.025 6.03)"/><path style="fill:#2c2b2b;stroke:#2c2b2b;stroke-width:.16448943" inkscape:connector-curvature="0" d="M738.976 28.282c.658-.11 1.26-.219 1.919-.329-.11 1.261.822 1.974 1.973 2.194-.164.274-.603.767-.767.987-1.042-.055-1.261-1.152-1.755-1.92-.329-.164-.987-.657-1.37-.932z" transform="translate(-711.025 6.03)"/><path style="fill:#2c2b2b;stroke:#2c2b2b;stroke-width:.16448943" inkscape:connector-curvature="0" d="M742.1 28.118h2.523c-.493.439-.768 1.316-1.535 1.206-.384-.384-.713-.822-.987-1.206z" transform="translate(-711.025 6.03)"/><path style="fill:#2c2b2b;stroke:#2c2b2b;stroke-width:.16448943" inkscape:connector-curvature="0" d="m745.116 28.008.494-.055c.329.384.713.768 1.042 1.207l.164.219c.713.274 1.426.548 2.193.768-.383.329-.767.658-1.206.987-.493-.275-.932-.604-1.37-.878-.713.165-1.262.658-1.865 1.042-.22-.274-.713-.877-.932-1.151.768-.22 1.48-.439 2.248-.658-.22-.549-.493-.987-.768-1.48z" transform="translate(-711.025 6.03)"/><path style="fill:#2c2b2b;stroke:#2c2b2b;stroke-width:.16448943" inkscape:connector-curvature="0" d="M730.367 28.392c.603-.22 1.152-.055 1.536.603-.713.439-1.207.22-1.536-.603z" transform="translate(-711.025 6.03)"/><path style="fill:#2c2b2b;stroke:#2c2b2b;stroke-width:.16448943" inkscape:connector-curvature="0" d="M731.793 29.818c.767.054 1.59.11 2.412.219a8.262 8.262 0 0 1-1.26 1.151c-.714-.054-.823-.932-1.152-1.37z" transform="translate(-711.025 6.03)"/><path style="fill:#2c2b2b;stroke:#2c2b2b;stroke-width:.16448943" inkscape:connector-curvature="0" d="M737.66 29.982a33.97 33.97 0 0 1 2.412-.11c-.329.549-.713 1.042-1.042 1.59-.493-.493-.932-.986-1.37-1.48z" transform="translate(-711.025 6.03)"/><path style="fill:#2c2b2b;stroke:#2c2b2b;stroke-width:.16448943" inkscape:connector-curvature="0" d="M729.161 30.037c.548-.713 2.084 0 1.426.877-.549.658-2.03-.11-1.426-.877z" transform="translate(-711.025 6.03)"/><path style="fill:#2c2b2b;stroke:#2c2b2b;stroke-width:.16448943" inkscape:connector-curvature="0" d="M727.626 31.846c.493-.438 1.754-.548 1.919.274-.165 1.207-2.468.987-1.92-.274z" transform="translate(-711.025 6.03)"/><path style="fill:#433a38;stroke:#433a38;stroke-width:.16448943" inkscape:connector-curvature="0" d="M730.477 31.901c.493-.384 1.7-.493 1.864.274-.164 1.097-2.248.713-1.864-.274z" transform="translate(-711.025 6.03)"/><path style="fill:#2c2b2b;stroke:#2c2b2b;stroke-width:.16448943" inkscape:connector-curvature="0" d="M733.657 31.901c.439-.384 1.645-.439 1.81.274-.165.987-2.358.878-1.81-.274z" transform="translate(-711.025 6.03)"/><path style="fill:#3e3935;stroke:#3e3935;stroke-width:.16448943" inkscape:connector-curvature="0" d="M736.508 31.901c.494-.384 1.645-.439 1.81.33-.165 1.04-2.303.712-1.81-.33z" transform="translate(-711.025 6.03)"/><path style="fill:#2c2b2b;stroke:#2c2b2b;stroke-width:.16448943" inkscape:connector-curvature="0" d="M739.524 31.846c.493-.384 1.81-.493 1.974.33-.22 1.096-2.577.877-1.974-.33z" transform="translate(-711.025 6.03)"/><path style="fill:#403633;stroke:#403633;stroke-width:.16448943" inkscape:connector-curvature="0" d="M742.375 32.175c.164-.767 1.316-.658 1.81-.274.493 1.042-1.7 1.37-1.81.274z" transform="translate(-711.025 6.03)"/><path style="fill:#2c2b2b;stroke:#2c2b2b;stroke-width:.16448943" inkscape:connector-curvature="0" d="M744.952 31.846c.877-.11 1.755-.164 2.687-.219-.33.329-1.042 1.042-1.371 1.426.877.329 1.81.383 2.741.548-.383.384-.767.713-1.151 1.096l-1.755-.438c-.438.11-1.26.274-1.7.384-.383-.384-.712-.768-1.096-1.152.713 0 1.48-.055 2.248-.11.165-.164.548-.493.713-.603-.274-.219-.987-.658-1.316-.932z" transform="translate(-711.025 6.03)"/><path style="fill:#2c2b2b;stroke:#2c2b2b;stroke-width:.16448943" inkscape:connector-curvature="0" d="M748.461 31.846c.494-.438 1.755-.548 1.92.33-.165 1.15-2.468.877-1.92-.33z" transform="translate(-711.025 6.03)"/><path style="fill:#2c2b2b;stroke:#2c2b2b;stroke-width:.16448943" inkscape:connector-curvature="0" d="M725.597 33.436c.877 0 1.7.055 2.577.11-.384.439-.822.877-1.261 1.261-.603-.329-1.042-.768-1.316-1.37z" transform="translate(-711.025 6.03)"/><path style="fill:#2c2b2b;stroke:#2c2b2b;stroke-width:.16448943" inkscape:connector-curvature="0" d="M728.393 33.546c.933-.055 1.81-.055 2.742-.055a5.564 5.564 0 0 1-1.48 1.316c-.44-.439-.878-.822-1.262-1.261z" transform="translate(-711.025 6.03)"/><path style="fill:#3d3835;stroke:#3d3835;stroke-width:.16448943" inkscape:connector-curvature="0" d="M731.957 33.546c.494-.548 2.248-.164 1.59.768-.548.603-2.248.11-1.59-.768z" transform="translate(-711.025 6.03)"/><path style="fill:#2c2b2b;stroke:#2c2b2b;stroke-width:.16448943" inkscape:connector-curvature="0" d="M734.48 33.436c.877 0 1.754 0 2.631.055-.274.274-.877.823-1.206 1.152.768.548 1.645.658 2.632.712-.384.384-.658.932-1.152 1.152-.657-.33-1.26-.823-1.809-1.206a5.002 5.002 0 0 1-1.316 1.315 26.282 26.282 0 0 1-1.316-1.206 50.03 50.03 0 0 1 2.961-.22c-.603-.602-1.042-1.205-1.425-1.754z" transform="translate(-711.025 6.03)"/><path style="fill:#2c2b2b;stroke:#2c2b2b;stroke-width:.16448943" inkscape:connector-curvature="0" d="M737.276 33.546c.932-.055 1.81-.055 2.741-.055-.383.494-.767.932-1.151 1.426a35.377 35.377 0 0 0-1.59-1.371z" transform="translate(-711.025 6.03)"/><path style="fill:#2c2b2b;stroke:#2c2b2b;stroke-width:.16448943" inkscape:connector-curvature="0" d="M740.401 33.491a33.97 33.97 0 0 1 2.413-.11c-1.59 1.371.438 2.139 1.7 2.084-.33.274-.933.768-1.262 1.042-.603-.384-1.206-.877-1.754-1.316-.603.22-.878 1.645-1.645 1.151-.274-.274-.823-.712-1.042-.987.987-.11 1.974-.164 2.96-.219-.438-.548-.931-1.097-1.37-1.645z" transform="translate(-711.025 6.03)"/><path style="fill:#2c2b2b;stroke:#2c2b2b;stroke-width:.16448943" inkscape:connector-curvature="0" d="M749.338 33.436c.933 0 1.81 0 2.797.055-.494.494-1.042.932-1.536 1.37-.493-.438-.877-.931-1.26-1.425z" transform="translate(-711.025 6.03)"/><path style="fill:#2c2b2b;stroke:#2c2b2b;stroke-width:.16448943" inkscape:connector-curvature="0" d="M727.297 35.575c.329-.658 1.59-.658 1.974 0 .054 1.151-2.084 1.206-1.974 0z" transform="translate(-711.025 6.03)"/><path style="fill:#2c2b2b;stroke:#2c2b2b;stroke-width:.16448943" inkscape:connector-curvature="0" d="M730.038 35.246c.823 0 1.645-.055 2.468-.055-.384.493-.768 1.042-1.152 1.535a8.476 8.476 0 0 1-1.316-1.48z" transform="translate(-711.025 6.03)"/><path style="fill:#2c2b2b;stroke:#2c2b2b;stroke-width:.16448943" inkscape:connector-curvature="0" d="M744.897 35.246h2.577c-.329.438-.713.822-1.042 1.206-.822.11-1.096-.768-1.535-1.206z" transform="translate(-711.025 6.03)"/><path style="fill:#2c2b2b;stroke:#2c2b2b;stroke-width:.16448943" inkscape:connector-curvature="0" d="M748.132 35.52c.33-.658 1.59-.603 1.974 0 .11 1.316-1.974 1.206-1.974 0z" transform="translate(-711.025 6.03)"/><path style="fill:#433a37;stroke:#433a37;stroke-width:.16448943" inkscape:connector-curvature="0" d="M726.09 37.22c.494-.604 1.974 0 1.316.767-.548.603-1.919 0-1.315-.767z" transform="translate(-711.025 6.03)"/><path style="fill:#403934;stroke:#403934;stroke-width:.16448943" inkscape:connector-curvature="0" d="M729.161 37.987c-.658-.767.877-1.37 1.37-.767.44.767-.931 1.37-1.37.767z" transform="translate(-711.025 6.03)"/><path style="fill:#423b39;stroke:#423b39;stroke-width:.16448943" inkscape:connector-curvature="0" d="M732.067 37.22c.439-.604 1.974-.055 1.37.767-.493.603-1.918 0-1.37-.767z" transform="translate(-711.025 6.03)"/><path style="fill:#2c2b2b;stroke:#2c2b2b;stroke-width:.16448943" inkscape:connector-curvature="0" d="M734.863 37.22c.439-.439 1.7-.439 1.755.329-.165 1.096-2.138.767-1.755-.33z" transform="translate(-711.025 6.03)"/><path style="fill:#2c2b2b;stroke:#2c2b2b;stroke-width:.16448943" inkscape:connector-curvature="0" d="M738.043 37.22c.494-.713 2.139-.055 1.426.822-.548.658-2.084 0-1.426-.822z" transform="translate(-711.025 6.03)"/><path style="fill:#2c2b2b;stroke:#2c2b2b;stroke-width:.16448943" inkscape:connector-curvature="0" d="M740.62 37.055h2.194a10.546 10.546 0 0 0-.987 1.7c.877.11 1.81.164 2.686.274-.548.22-.987 1.316-1.59.768-.877-.768-1.974-.33-2.85.219-.44-.329-.823-.713-1.207-1.097.658 0 1.974.055 2.632.11a31.048 31.048 0 0 1-.878-1.974z" transform="translate(-711.025 6.03)"/><path style="fill:#2c2b2b;stroke:#2c2b2b;stroke-width:.16448943" inkscape:connector-curvature="0" d="M743.965 37.165c.548-.658 2.138 0 1.426.822-.549.713-2.084 0-1.426-.822z" transform="translate(-711.025 6.03)"/><path style="fill:#2c2b2b;stroke:#2c2b2b;stroke-width:.16448943" inkscape:connector-curvature="0" d="M746.871 37.22c.439-.439 1.645-.439 1.755.329-.165 1.096-2.248.767-1.755-.33z" transform="translate(-711.025 6.03)"/><path style="fill:#2c2b2b;stroke:#2c2b2b;stroke-width:.16448943" inkscape:connector-curvature="0" d="M749.942 37.165c.548-.658 2.138-.055 1.425.822-.493.713-2.083.055-1.425-.822z" transform="translate(-711.025 6.03)"/><path style="fill:#45362d;stroke:#45362d;stroke-width:.16448943" inkscape:connector-curvature="0" d="M753.834 38.536c-1.151-.11-1.48-1.865 0-1.536a7.189 7.189 0 0 1 0 1.536z" transform="translate(-711.025 6.03)"/><path style="fill:#3b3126;stroke:#3b3126;stroke-width:.16448943" inkscape:connector-curvature="0" d="M724.72 40.07c-.055-.438-.11-.877 0-1.315.384.055 1.206.164 1.59.22.11.822-.932 1.205-1.59 1.096z" transform="translate(-711.025 6.03)"/><path style="fill:#2c2b2b;stroke:#2c2b2b;stroke-width:.16448943" inkscape:connector-curvature="0" d="M726.913 38.92c.877-.055 1.755-.055 2.687-.055l-1.152 1.315c-.548-.383-1.042-.822-1.535-1.26z" transform="translate(-711.025 6.03)"/><path style="fill:#37302a;stroke:#37302a;stroke-width:.16448943" inkscape:connector-curvature="0" d="M730.422 39.029c.603-.329 1.206-.329 1.755 0 .438 1.261-2.358 1.261-1.755 0z" transform="translate(-711.025 6.03)"/><path style="fill:#2c2b2b;stroke:#2c2b2b;stroke-width:.16448943" inkscape:connector-curvature="0" d="M732.944 38.92c.878 0 1.81 0 2.742.054-.494.439-.987.823-1.48 1.261-.494-.438-.878-.877-1.262-1.316z" transform="translate(-711.025 6.03)"/><path style="fill:#2c2b2b;stroke:#2c2b2b;stroke-width:.16448943" inkscape:connector-curvature="0" d="M736.344 38.974c.493-.384 1.81-.493 1.974.33-.22 1.205-2.468.876-1.974-.33z" transform="translate(-711.025 6.03)"/><path style="fill:#2c2b2b;stroke:#2c2b2b;stroke-width:.16448943" inkscape:connector-curvature="0" d="M745.226 38.974c.494-.384 1.81-.493 1.974.384-.22 1.151-2.467.768-1.974-.384z" transform="translate(-711.025 6.03)"/><path style="fill:#2c2b2b;stroke:#2c2b2b;stroke-width:.16448943" inkscape:connector-curvature="0" d="M747.803 39.029c.877-.055 1.81-.11 2.687-.164-.439.438-.823.932-1.206 1.37-.549-.438-1.042-.822-1.48-1.206z" transform="translate(-711.025 6.03)"/><path style="fill:#35332d;stroke:#35332d;stroke-width:.16448943" inkscape:connector-curvature="0" d="M751.257 39.029c.604-.329 1.152-.329 1.755 0 .548 1.261-2.303 1.261-1.755 0z" transform="translate(-711.025 6.03)"/><path style="fill:#2c2b2b;stroke:#2c2b2b;stroke-width:.16448943" inkscape:connector-curvature="0" d="M725.926 40.674c.603-.384 1.261-.384 1.864 0 .549 1.37-2.467 1.37-1.864 0z" transform="translate(-711.025 6.03)"/><path style="fill:#2c2b2b;stroke:#2c2b2b;stroke-width:.16448943" inkscape:connector-curvature="0" d="M728.448 40.62h5.648c-.494.328-.878 1.59-1.59.931-.932-.767-2.084-.329-2.906.274a7.93 7.93 0 0 1-1.152-1.206z" transform="translate(-711.025 6.03)"/><path style="fill:#2c2b2b;stroke:#2c2b2b;stroke-width:.16448943" inkscape:connector-curvature="0" d="M734.425 40.564h2.577c-.274.384-.878 1.152-1.152 1.535l.494.11a5.7 5.7 0 0 0 1.919-.164c-.165-.549-.439-.987-.658-1.48.767-.056 1.535-.11 2.303-.165-.22.548-.823 1.042-.658 1.59.712.877 1.645-.055 2.467-.274-.329-.274-.987-.878-1.37-1.152h2.686c-.494.603-.987 1.152-1.48 1.755.932.055 1.864.055 2.85.11l-.493 1.041c-.274.055-.877.11-1.151.165-.165-.274-.439-.878-.603-1.152-.658.11-1.536.33-1.426 1.152-.329-.055-.987-.11-1.316-.11-.164-.274-.438-.877-.603-1.151-.164.274-.548.767-.768 1.041l-.054.22c-.275 0-.878.11-1.207.11a17.148 17.148 0 0 0-.712-1.042c-.275.11-.878.383-1.207.493-.493.22-.987.384-1.48.439-.658-1.426 1.426-1.261 2.138-1.81-.274-.383-.822-.932-1.096-1.26z" transform="translate(-711.025 6.03)"/><path style="fill:#2c2b2b;stroke:#2c2b2b;stroke-width:.16448943" inkscape:connector-curvature="0" d="M743.307 40.62c1.92-.056 3.838 0 5.757.054-.548.274-1.042 1.7-1.754.877-.878-.877-1.974-.329-2.851.165-.384-.33-.823-.713-1.152-1.097z" transform="translate(-711.025 6.03)"/><path style="fill:#2c2b2b;stroke:#2c2b2b;stroke-width:.16448943" inkscape:connector-curvature="0" d="M749.503 41.003c.164-.768 1.425-.658 1.974-.33.548 1.207-1.755 1.481-1.974.33z" transform="translate(-711.025 6.03)"/><path style="fill:#0d0000;stroke:#0d0000;stroke-width:.16448943" inkscape:connector-curvature="0" d="M753.505 41.606a.416.416 0 0 0 .11-.22l.055.165-.165.055z" transform="translate(-711.025 6.03)"/><path style="fill:#f0f9fd;stroke:#f0f9fd;stroke-width:.16448943" inkscape:connector-curvature="0" d="m753.505 41.606.165-.055c.22.932.384 1.864.603 2.797l-.658-.165-.439-.11c-.11.22-.274.603-.329.823-.274-.165-.932-.439-1.206-.603-.713-.33-1.425-.384-2.138-.165l-.658.11c-.768-.22-1.48-.22-2.138.055l-.878.438c-.384-.932-1.919-.932-2.248 0l-.877-.438a2.208 2.208 0 0 0-2.029 0l-.877.438c-.329-.932-1.919-.987-2.193 0l-.877-.438c-.713-.33-1.371-.33-2.03 0l-.876.438c-.33-.932-1.865-.877-2.194 0l-.877-.438c-.713-.274-1.37-.274-2.083-.055l-.713-.055c-.713-.11-1.426-.055-2.139.11h-1.206l-.329-.33.11-.383.22-.055h1.205l1.48-.164c.659.164 1.372.164 2.084 0 .494.054 1.042.11 1.59.164.22 0 .604.055.823.055.548 0 1.096 0 1.7-.055.493-.055.987-.22 1.48-.439.493.549 1.151.768 1.919.549.274-.055.877-.11 1.206-.11.33 0 1.042-.055 1.426-.11.329.055.987.11 1.316.11.658.11 1.316.11 2.028 0 .275-.055.878-.11 1.152-.164.603.054 1.206.054 1.864.11.22 0 .603.054.823.054h2.302c.22 0 .713-.055.933-.055.548 0 1.15-.054 1.754-.054.274 0 .877 0 1.151-.055.549.548 1.92-.22.933-.768-.22.055-.604.22-.823.33-.493-.769-.987-.769-1.48.054-.658-1.152 1.316-.932 2.028-1.37z" transform="translate(-711.025 6.03)"/><path style="fill:#2c2b2b;stroke:#2c2b2b;stroke-width:.16448943" inkscape:connector-curvature="0" d="M727.242 43.415c0-1.59 2.084-1.59 2.084 0a4.459 4.459 0 0 1-2.084 0z" transform="translate(-711.025 6.03)"/><path style="fill:#2c2b2b;stroke:#2c2b2b;stroke-width:.16448943" inkscape:connector-curvature="0" d="M730.038 42.428h2.413c-.274.384-.494.823-.713 1.207-.22 0-.603-.055-.822-.055-.33-.384-.604-.768-.878-1.152z" transform="translate(-711.025 6.03)"/><path style="fill:#2c2b2b;stroke:#2c2b2b;stroke-width:.16448943" inkscape:connector-curvature="0" d="M744.952 42.428c.822 0 1.59-.054 2.413-.054-.275.438-.549.822-.823 1.26-.22 0-.603-.054-.822-.054-.275-.384-.549-.768-.768-1.151z" transform="translate(-711.025 6.03)"/><path style="fill:#2c2b2b;stroke:#2c2b2b;stroke-width:.16448943" inkscape:connector-curvature="0" d="M747.858 42.319c.822.055 1.645.055 2.522.11l-.548 1.096c-.22 0-.713.055-.932.055-.384-.384-.713-.823-1.042-1.261z" transform="translate(-711.025 6.03)"/><path style="fill:#f6e8e5;stroke:#f6e8e5;stroke-width:.16448943" inkscape:connector-curvature="0" d="M734.863 43.141c.274-.11.878-.384 1.207-.493.164.274.548.767.712 1.042-.767.219-1.425.054-1.919-.549z" transform="translate(-711.025 6.03)"/><path style="fill:#f6e8e5;stroke:#f6e8e5;stroke-width:.16448943" inkscape:connector-curvature="0" d="M738.043 43.36c.165-.274.604-.767.768-1.041.165.274.439.877.603 1.151-.384 0-1.042.055-1.425.11l.054-.22z" transform="translate(-711.025 6.03)"/><path style="fill:#f6e8e5;stroke:#f6e8e5;stroke-width:.16448943" inkscape:connector-curvature="0" d="M740.675 43.635c-.11-.823.768-1.042 1.426-1.152.164.274.438.878.603 1.152-.658.11-1.37.11-2.029 0z" transform="translate(-711.025 6.03)"/><path style="fill:#3e2f2a;stroke:#3e2f2a;stroke-width:.16448943" inkscape:connector-curvature="0" d="M751.312 43.086c.439-.767.932-.822 1.48-.054l-.109.438c-.274 0-.877 0-1.151.055l-.22-.439z" transform="translate(-711.025 6.03)"/><path style="fill:#f9f3f0;stroke:#f9f3f0;stroke-width:.16448943" inkscape:connector-curvature="0" d="M753.615 42.703c.987.548-.384 1.316-.932.767l.11-.438c.219-.11.603-.275.822-.33z" transform="translate(-711.025 6.03)"/><path style="fill:#fffaea;stroke:#fffaea;stroke-width:.16448943" inkscape:connector-curvature="0" d="M724.5 43.47s0 .055.055.11l-.219.055.164-.165z" transform="translate(-711.025 6.03)"/><path style="fill:#ede1d9;stroke:#ede1d9;stroke-width:.16448943" inkscape:connector-curvature="0" d="M724.555 44.347h1.207c.274 1.371 1.973 1.316 2.138-.11l.713.056c.329 1.151 2.028 1.59 2.083.054l.878.44a14.28 14.28 0 0 0 1.37.547c.22-.164.603-.438.823-.603l.877-.438c.164 1.26 1.919 1.37 2.029 0l.877.438c.603.603 1.59.658 2.193 0l.877-.438c.11 1.316 1.865 1.316 2.03 0l.876.438c.604.603 1.59.603 2.248 0l.878-.438c.11 1.535 1.754 1.096 2.138-.055l.658-.11c0 1.37 2.138 1.755 2.138.165.275.164.933.438 1.207.603-.658.548-1.316 1.042-2.084 1.425-.932-.219-1.919-.383-2.851-.548.22.329.713.987.932 1.316l-.384.164c-.877.33-1.754.658-2.577.987h-.055c-.712.055-1.425.11-2.083.11-2.96-.603-5.976-.439-8.882.055-.384 0-.768-.055-1.152-.055l-.932-.11c-.11.878-.164 1.755-.274 2.632l-.33.33.165-2.962a100.624 100.624 0 0 1-3.783-1.206c.274-.329.823-.932 1.097-1.206-1.207 0-2.358.11-3.51.055-.274-.22-.767-.603-.986-.823-.11-.055-.384-.493-.549-.713m5.812 1.81c-.493 1.26 2.303 1.26 1.81 0-.603-.33-1.207-.33-1.81 0m2.468-.11c.383.384.822.713 1.26 1.042.878-.494 1.975-.877 2.852-.165.713.604 1.096-.603 1.645-.877h-5.757m5.976-.055c.384.384.823.768 1.261 1.097.877-.494 1.974-.932 2.906-.165.658.494 1.042-.657 1.59-.932-1.919.055-3.838.055-5.757 0m6.36.11c-.493 1.37 2.468 1.37 1.92 0-.659-.329-1.317-.329-1.92 0z" transform="translate(-711.025 6.03)"/><path style="fill:#2c2b2b;stroke:#2c2b2b;stroke-width:.16448943" inkscape:connector-curvature="0" d="M725.762 44.347c.712-.164 1.425-.219 2.138-.11-.11 1.426-1.864 1.481-2.138.11z" transform="translate(-711.025 6.03)"/><path style="fill:#2c2b2b;stroke:#2c2b2b;stroke-width:.16448943" inkscape:connector-curvature="0" d="M728.613 44.293c.713-.22 1.425-.165 2.083.054-.055 1.536-1.754 1.097-2.083-.054z" transform="translate(-711.025 6.03)"/><path style="fill:#2c2b2b;stroke:#2c2b2b;stroke-width:.16448943" inkscape:connector-curvature="0" d="M731.628 44.786c.33-.877 1.865-.932 2.194 0-.22.165-.604.439-.823.603-.329-.164-1.042-.438-1.37-.603z" transform="translate(-711.025 6.03)"/><path style="fill:#2c2b2b;stroke:#2c2b2b;stroke-width:.16448943" inkscape:connector-curvature="0" d="M734.699 44.347c.658-.328 1.316-.328 2.029 0-.11 1.371-1.865 1.262-2.03 0z" transform="translate(-711.025 6.03)"/><path style="fill:#2c2b2b;stroke:#2c2b2b;stroke-width:.16448943" inkscape:connector-curvature="0" d="M737.605 44.786c.329-.987 1.864-.932 2.193 0a1.465 1.465 0 0 1-2.193 0z" transform="translate(-711.025 6.03)"/><path style="fill:#2c2b2b;stroke:#2c2b2b;stroke-width:.16448943" inkscape:connector-curvature="0" d="M740.73 44.347c.658-.328 1.316-.328 2.029 0-.22 1.316-1.92 1.316-2.029 0z" transform="translate(-711.025 6.03)"/><path style="fill:#2c2b2b;stroke:#2c2b2b;stroke-width:.16448943" inkscape:connector-curvature="0" d="M743.581 44.786c.33-.932 1.864-.987 2.248 0-.658.658-1.645.658-2.248 0z" transform="translate(-711.025 6.03)"/><path style="fill:#2c2b2b;stroke:#2c2b2b;stroke-width:.16448943" inkscape:connector-curvature="0" d="M746.707 44.347c.658-.274 1.37-.274 2.138-.054-.384 1.151-2.029 1.59-2.138.054z" transform="translate(-711.025 6.03)"/><path style="fill:#2c2b2b;stroke:#2c2b2b;stroke-width:.16448943" inkscape:connector-curvature="0" d="M749.503 44.183c.713-.22 1.425-.164 2.138.164 0 1.645-2.138 1.207-2.138-.164z" transform="translate(-711.025 6.03)"/><path style="fill:#13364f;stroke:#13364f;stroke-width:.16448943" inkscape:connector-curvature="0" d="M752.793 44.95c.11-.219.274-.603.329-.822l.438.11v.438c-.164.055-.548.22-.767.275z" transform="translate(-711.025 6.03)"/><path style="fill:#2c2b2b;stroke:#2c2b2b;stroke-width:.16448943" inkscape:connector-curvature="0" d="M726.145 46.047c1.152.055 2.303-.055 3.51-.055-.275.275-.823.878-1.097 1.207 1.261.383 2.522.822 3.783 1.206-.055.987-.055 1.974-.164 2.96-.165.165-.494.549-.658.714.164-.713.329-1.48.438-2.249-.054-.219-.164-.712-.219-.986-1.645-1.262-3.838-1.645-5.593-2.797z" transform="translate(-711.025 6.03)"/><path style="fill:#2a2924;stroke:#2a2924;stroke-width:.16448943" inkscape:connector-curvature="0" d="M730.367 46.157c.603-.33 1.207-.33 1.81 0 .493 1.206-2.303 1.261-1.81 0z" transform="translate(-711.025 6.03)"/><path style="fill:#2c2b2b;stroke:#2c2b2b;stroke-width:.16448943" inkscape:connector-curvature="0" d="M732.835 46.047h5.757c-.549.274-.987 1.535-1.645.877-.932-.712-1.974-.328-2.851.165-.439-.329-.878-.658-1.261-1.042z" transform="translate(-711.025 6.03)"/><path style="fill:#2c2b2b;stroke:#2c2b2b;stroke-width:.16448943" inkscape:connector-curvature="0" d="M738.811 45.992c1.92.055 3.783 0 5.702 0-.548.275-.932 1.426-1.59.932-.932-.767-2.028-.328-2.906.165-.383-.329-.822-.658-1.206-1.097z" transform="translate(-711.025 6.03)"/><path style="fill:#2c2b2b;stroke:#2c2b2b;stroke-width:.16448943" inkscape:connector-curvature="0" d="M745.171 46.102c.603-.329 1.261-.329 1.92 0 .548 1.37-2.413 1.37-1.92 0z" transform="translate(-711.025 6.03)"/><path style="fill:#2c2b2b;stroke:#2c2b2b;stroke-width:.16448943" inkscape:connector-curvature="0" d="M747.858 45.883c.932.164 1.919.329 2.851.548-.767.329-1.535.603-2.303.932l.384-.164c-.22-.33-.713-.987-.932-1.316z" transform="translate(-711.025 6.03)"/><path style="fill:#d8f2fb;stroke:#d8f2fb;stroke-width:.16448943" inkscape:connector-curvature="0" d="M734.808 48.515c2.961-.494 5.922-.658 8.883-.055l-.713.11-.548.11c-2.522.164-5.1.054-7.622-.165z" transform="translate(-711.025 6.03)"/><path style="fill:#969882;stroke:#969882;stroke-width:.16448943" inkscape:connector-curvature="0" d="M743.69 48.46c.714-.055 1.372-.055 2.084-.11l-.658.439c-.164.11-.438.329-.548.384-.22.438-.438.822-.603 1.26h-.658c-.055-.493-.22-1.425-.274-1.864l.658-.11z" transform="translate(-711.025 6.03)"/><path style="fill:#f49f35;stroke:#f49f35;stroke-width:.16448943" inkscape:connector-curvature="0" d="M745.774 48.35c0 .274-.11.877-.164 1.206-.055 1.152.439 2.248 1.316 3.016l-.22 1.535c-.603.22-1.206.439-1.809.713-1.042-.274-2.083-.548-3.07-.877.548-1.261 1.425-2.358 2.083-3.51.22-.438.384-.822.603-1.26.165-.11.439-.275.549-.384.219-.11.548-.33.712-.439z" transform="translate(-711.025 6.03)"/><path style="fill:#f49d35;stroke:#f49d35;stroke-width:.16448943" inkscape:connector-curvature="0" d="m732.725 48.35.932.11c.274.987.548 2.028.877 3.015l.878.878.493 1.645c-.877.274-1.7.548-2.522.822-.548-.165-1.042-.274-1.535-.439-.439-.11-1.261-.383-1.7-.493l1.316-1.81c.164-.164.493-.548.658-.712l.329-.33c.11-.931.164-1.809.274-2.686z" transform="translate(-711.025 6.03)"/><path style="fill:#e3b370;stroke:#e3b370;stroke-width:.16448943" inkscape:connector-curvature="0" d="M746.98 52.572c.659.384.604 1.48-.219 1.535 0-.384.165-1.096.22-1.535z" transform="translate(-711.025 6.03)"/></g></svg>