<svg xmlns:dc="http://purl.org/dc/elements/1.1/" xmlns:cc="http://creativecommons.org/ns#" xmlns:rdf="http://www.w3.org/1999/02/22-rdf-syntax-ns#" xmlns="http://www.w3.org/2000/svg" width="29.906176" height="45.471558" viewBox="0 0 29.906175 45.47156" version="1.1" id="svg1900"><metadata id="metadata1897"><rdf:RDF><cc:Work><dc:format>image/svg+xml</dc:format><dc:type rdf:resource="http://purl.org/dc/dcmitype/StillImage"/><dc:title/><dc:date>2023</dc:date><dc:creator><cc:Agent><dc:title>Timothée Giet</dc:title></cc:Agent></dc:creator><cc:license rdf:resource="http://creativecommons.org/licenses/by-sa/4.0/"/></cc:Work><cc:License rdf:about="http://creativecommons.org/licenses/by-sa/4.0/"><cc:permits rdf:resource="http://creativecommons.org/ns#Reproduction"/><cc:permits rdf:resource="http://creativecommons.org/ns#Distribution"/><cc:requires rdf:resource="http://creativecommons.org/ns#Notice"/><cc:requires rdf:resource="http://creativecommons.org/ns#Attribution"/><cc:permits rdf:resource="http://creativecommons.org/ns#DerivativeWorks"/><cc:requires rdf:resource="http://creativecommons.org/ns#ShareAlike"/></cc:License></rdf:RDF></metadata><g id="g7404" transform="matrix(-.55893 0 0 .55893 125.287 -402.27)" style="stroke-width:1.78914"><path id="rect1018-0-5" style="fill:#905833;fill-opacity:1;stroke:none;stroke-width:1;stroke-miterlimit:4;stroke-dasharray:none;stroke-opacity:1" d="M99.818 338.781a1.374 1.374 0 0 0-1.285.817l-7.078 15.834c.939-.012 1.835.277 2.582.974l7.012-15.685a1.372 1.372 0 0 0-.695-1.819 1.383 1.383 0 0 0-.536-.12z" transform="matrix(-1.78914 0 0 1.78914 375.94 143.495)"/><path id="rect1018-0" style="fill:#c87a47;fill-opacity:1;stroke:none;stroke-width:1;stroke-miterlimit:4;stroke-dasharray:none;stroke-opacity:1" d="M99.557 339.686c-.413.031-.834.35-1.055.845l-6.666 14.906c.68.052 1.332.27 1.908.704l6.608-14.784c.294-.66.12-1.374-.393-1.603a.824.824 0 0 0-.402-.068z" transform="matrix(-1.78914 0 0 1.78914 375.94 143.495)"/><path id="path1020-9-7" style="fill:#ab485f;fill-opacity:1;stroke-width:.538996" d="m181.832 719.718.853 2.37 2.348.75 1.059 2.757c.102.263 1.756-.148 2.725.437.63.38 1.025 1.927 1.803 2.24.813.326 2.013-.59 2.83-.541.704.042 1.582 1.17 2.468 1.139.832-.029 1.664-1.213 2.47-1.272.847-.063 1.457.658 2.073.597.803-.078 1.488-.93 1.488-.93l16.84 37.67a2.46 2.46 0 0 1-1.244 3.257l-21.603 9.655a2.46 2.46 0 0 1-3.256-1.244l-9.243-20.673c-1.68 1.3-4.31 2.44-6.168-1.058-2.075-3.906-1.499-11.071-.989-14.95l-5.636-12.604a2.46 2.46 0 0 1 1.244-3.257l.004.004z"/><path id="path1020-9" style="fill:#ee889e;fill-opacity:1;stroke-width:.538997" d="m181.29 721.53 1.455 2.443 2.216.695.998 2.55c.097.244 1.657-.136 2.572.405.594.35.967 1.782 1.701 2.072.766.301 1.9-.546 2.67-.501.664.04 1.493 1.082 2.328 1.054.785-.027 1.57-1.122 2.331-1.177.798-.058 1.374.61 1.955.553.758-.073 1.404-.86 1.404-.86l16.17 35.21c.528 1.15.002 2.501-1.173 3.014l-19.903 8.473c-1.172.517-2.55.001-3.072-1.15l-10.193-23.5c-.925 4.86-2.593 6.632-4.346 3.395-1.958-3.612-1.414-10.241-.933-13.829l-5.489-12.398c-.527-1.15-.001-2.5 1.174-3.013l.004.003z"/><path style="fill:#ab485f;fill-opacity:1;stroke-width:3.20102" d="M202.149 787.528s-2.437 7.656-.966 11.436c1.47 3.783 4.498 1.578 5.068.28.573-1.301.11-3.649-.544-5.663-.653-2.015-3.56-6.053-3.56-6.053z" id="path1038-1-1"/><path style="fill:#ee889e;fill-opacity:1;stroke-width:3.20102" d="M202.417 788.776s-1.99 5.96-.797 9.025c1.193 3.067 3.379 1.182 3.841.129.465-1.055-.009-2.897-.539-4.53-.53-1.634-2.507-4.624-2.507-4.624z" id="path1038-1"/><path style="fill:#ab485f;fill-opacity:1;stroke-width:3.20102" d="M213.383 779.378s6.924-.114 9.683 2.036c2.757 2.15-.439 4.629-1.654 4.777-1.216.152-2.068-1.569-3.515-2.896-1.448-1.326-4.512-3.917-4.512-3.917z" id="path1040-7-1"/><path style="fill:#ee889e;fill-opacity:1;stroke-width:3.20102" d="M214.469 779.84s5.544-.09 7.754 1.631c2.207 1.723.029 3.334-.944 3.453-.974.122-1.634-1.143-2.793-2.207-1.16-1.061-4.016-2.876-4.016-2.876z" id="path1040-7"/></g></svg>