<!--Created with Inkscape (http://www.inkscape.org/)--><svg xmlns:dc="http://purl.org/dc/elements/1.1/" xmlns:cc="http://creativecommons.org/ns#" xmlns:rdf="http://www.w3.org/1999/02/22-rdf-syntax-ns#" xmlns="http://www.w3.org/2000/svg" xmlns:xlink="http://www.w3.org/1999/xlink" xmlns:sodipodi="http://sodipodi.sourceforge.net/DTD/sodipodi-0.dtd" xmlns:inkscape="http://www.inkscape.org/namespaces/inkscape" width="18.004442mm" height="12.935242mm" viewBox="0 0 63.795266 45.833533" inkscape:version="0.91 r13725" sodipodi:docname="photo1_3.svg"><defs><linearGradient inkscape:collect="always" id="a"><stop offset="0" style="stop-color:#666"/><stop offset="1" style="stop-color:#666;stop-opacity:0"/></linearGradient><linearGradient inkscape:collect="always" x1="363.64999" y1="661.42999" gradientTransform="matrix(.14174 0 0 .1225 119.669 1100.502)" x2="337.23001" gradientUnits="userSpaceOnUse" xlink:href="#a" y2="341.20999" id="b"/><linearGradient inkscape:collect="always" x1="186.88" y1="452.32999" gradientTransform="matrix(.14174 0 0 .1225 120.472 1100.234)" x2="182.84" gradientUnits="userSpaceOnUse" y2="310.82999" id="c"><stop offset="0" style="stop-color:#004280"/><stop offset="1" style="stop-color:#005480"/></linearGradient><linearGradient inkscape:collect="always" x1="344.45999" y1="314.95001" gradientTransform="matrix(.14174 0 0 .1225 120.472 1100.234)" x2="329.31" gradientUnits="userSpaceOnUse" y2="192.22" id="d"><stop offset="0" style="stop-color:#cac900"/><stop offset="1" style="stop-color:#f7f600"/></linearGradient><linearGradient inkscape:collect="always" x1="414.16" y1="101.81" gradientTransform="matrix(.14174 0 0 .1225 119.222 1100.86)" x2="531.03003" gradientUnits="userSpaceOnUse" y2="238.17999" id="e"><stop offset="0" style="stop-color:#fff"/><stop offset="1" style="stop-color:#8e312b"/></linearGradient><linearGradient inkscape:collect="always" x1="246.48" y1="548.29999" gradientTransform="matrix(.14174 0 0 .1225 117.883 1097.823)" x2="207.08" gradientUnits="userSpaceOnUse" y2="464.45001" id="f"><stop offset="0" style="stop-color:#006b00"/><stop offset="1" style="stop-color:#006b00;stop-opacity:0"/></linearGradient></defs><sodipodi:namedview pagecolor="#ffffff" bordercolor="#666666" borderopacity="1.0" inkscape:pageopacity="0.0" inkscape:pageshadow="2" inkscape:zoom="11.2" inkscape:cx="50.198391" inkscape:cy="28.82682" inkscape:document-units="px" inkscape:current-layer="layer1" showgrid="false" inkscape:window-width="1623" inkscape:window-height="1029" inkscape:window-x="57" inkscape:window-y="21" inkscape:window-maximized="1" fit-margin-top="0" fit-margin-left="0" fit-margin-right="0" fit-margin-bottom="0"/><metadata><rdf:RDF><cc:Work><dc:format>image/svg+xml</dc:format><dc:type rdf:resource="http://purl.org/dc/dcmitype/StillImage"/><dc:title/></cc:Work></rdf:RDF></metadata><g inkscape:label="Layer 1" inkscape:groupmode="layer"><path inkscape:connector-curvature="0" inkscape:transform-center-y="10.101525" inkscape:transform-center-x="-413.45746" d="M143.893 1132.325c1.88 0 3.552.795 4.627 2.033 2.647 1.23 4.162 3.61 3.426 5.542-.62 1.626-2.649 2.453-4.955 2.204h-.004a6.31 6.31 0 0 1-3.008.79c-.017.014-.032.027-.05.04-2.662 1.825-5.873 1.825-7.161 0-1.066-1.511-.483-3.799 1.257-5.577.149-2.8 2.72-5.032 5.868-5.032z" style="fill:#00f;stroke-width:0" transform="translate(-136.233 -1123.04)"/><path inkscape:connector-curvature="0" inkscape:transform-center-y="476.792" inkscape:transform-center-x="-8.927057" d="M144.762 1158.702c0 1.77.86 3.346 2.198 4.359 1.331 2.494 3.906 3.92 5.995 3.228 1.76-.583 2.654-2.497 2.386-4.67 0 0-.001 0 0 0 .529-.824.839-1.793.855-2.831.012-.017.028-.032.042-.05 1.974-2.507 1.974-5.53 0-6.745-1.634-1.004-4.109-.454-6.034 1.184-3.029.14-5.442 2.563-5.442 5.528z" style="fill:green;stroke-width:0" transform="translate(-136.233 -1123.04)"/><path inkscape:connector-curvature="0" inkscape:transform-center-y="-8.2559305" inkscape:transform-center-x="476.792" d="M165.94 1149.072c-2.169 0-4.096-.65-5.337-1.661-3.053-1.006-4.799-2.952-3.951-4.53.714-1.329 3.056-2.004 5.715-1.802h.004c1.01-.399 2.196-.633 3.468-.645.02-.01.038-.022.06-.032 3.07-1.492 6.77-1.492 8.256 0 1.23 1.233.557 3.104-1.45 4.558-.17 2.288-3.136 4.112-6.766 4.112z" style="fill:#fff;stroke-width:0" transform="translate(-136.233 -1123.04)"/><path inkscape:connector-curvature="0" inkscape:transform-center-y="-8.2559305" inkscape:transform-center-x="476.792" d="M165.94 1149.072c-2.169 0-4.096-.65-5.337-1.661-3.053-1.006-4.799-2.952-3.951-4.53.714-1.329 3.056-2.004 5.715-1.802h.004c1.01-.399 2.196-.633 3.468-.645.02-.01.038-.022.06-.032 3.07-1.492 6.77-1.492 8.256 0 1.23 1.233.557 3.104-1.45 4.558-.17 2.288-3.136 4.112-6.766 4.112z" style="fill:url(#b);stroke-width:0" transform="translate(-136.233 -1123.04)"/><path inkscape:connector-curvature="0" inkscape:transform-center-y="10.101525" inkscape:transform-center-x="-413.45746" d="M143.893 1132.325c1.88 0 3.552.795 4.627 2.033 2.647 1.23 4.162 3.61 3.426 5.542-.62 1.626-2.649 2.453-4.955 2.204h-.004a6.31 6.31 0 0 1-3.008.79c-.017.014-.032.027-.05.04-2.662 1.825-5.873 1.825-7.161 0-1.066-1.511-.483-3.799 1.257-5.577.149-2.8 2.72-5.032 5.868-5.032z" style="fill:url(#c);stroke-width:0" transform="translate(-136.233 -1123.04)"/><path inkscape:connector-curvature="0" inkscape:transform-center-y="10.101525" inkscape:transform-center-x="476.792" d="M166.743 1123.04c-2.168 0-4.096.796-5.336 2.033-3.053 1.23-4.8 3.61-3.952 5.542.715 1.626 3.056 2.453 5.715 2.204h.004a8.18 8.18 0 0 0 3.468.792c.02.012.039.026.06.038 3.07 1.825 6.77 1.825 8.257 0 1.229-1.51.557-3.798-1.45-5.577-.171-2.8-3.136-5.031-6.766-5.031z" style="fill:url(#d)" transform="translate(-136.233 -1123.04)"/><path inkscape:connector-curvature="0" inkscape:transform-center-y="8.4237112" inkscape:transform-center-x="-394.4571" d="M190.918 1127.604c1.794 0 3.389.663 4.415 1.696 2.526 1.025 3.97 3.01 3.268 4.62-.59 1.357-2.527 2.047-4.727 1.84h-.004a6.731 6.731 0 0 1-2.869.659l-.049.032c-2.54 1.522-5.602 1.522-6.831 0-1.017-1.26-.461-3.167 1.199-4.65.142-2.336 2.595-4.197 5.598-4.197z" style="fill:url(#e)" transform="translate(-136.233 -1123.04)"/><path inkscape:connector-curvature="0" inkscape:transform-center-y="476.792" inkscape:transform-center-x="-8.927057" d="M144.762 1158.702c0 1.77.86 3.346 2.198 4.359 1.331 2.494 3.906 3.92 5.995 3.228 1.76-.583 2.654-2.497 2.386-4.67 0 0-.001 0 0 0 .529-.824.839-1.793.855-2.831.012-.017.028-.032.042-.05 1.974-2.507 1.974-5.53 0-6.745-1.634-1.004-4.109-.454-6.034 1.184-3.029.14-5.442 2.563-5.442 5.528z" style="fill:url(#f);stroke-width:0" transform="translate(-136.233 -1123.04)"/></g></svg>