<svg xmlns:dc="http://purl.org/dc/elements/1.1/" xmlns:cc="http://creativecommons.org/ns#" xmlns:rdf="http://www.w3.org/1999/02/22-rdf-syntax-ns#" xmlns="http://www.w3.org/2000/svg" width="13.83552" height="9.5669813" viewBox="0 0 13.83552 9.5669821" version="1.1" id="svg1900"><metadata id="metadata1897"><rdf:RDF><cc:Work><dc:format>image/svg+xml</dc:format><dc:type rdf:resource="http://purl.org/dc/dcmitype/StillImage"/><dc:title/><dc:date>2023</dc:date><dc:creator><cc:Agent><dc:title>Timothée Giet</dc:title></cc:Agent></dc:creator><cc:license rdf:resource="http://creativecommons.org/licenses/by-sa/4.0/"/></cc:Work><cc:License rdf:about="http://creativecommons.org/licenses/by-sa/4.0/"><cc:permits rdf:resource="http://creativecommons.org/ns#Reproduction"/><cc:permits rdf:resource="http://creativecommons.org/ns#Distribution"/><cc:requires rdf:resource="http://creativecommons.org/ns#Notice"/><cc:requires rdf:resource="http://creativecommons.org/ns#Attribution"/><cc:permits rdf:resource="http://creativecommons.org/ns#DerivativeWorks"/><cc:requires rdf:resource="http://creativecommons.org/ns#ShareAlike"/></cc:License></rdf:RDF></metadata><g id="g4431-0-7" transform="rotate(52.081 279.146 -66.09)"><path d="M166.473 189.829s-.136-1.482-.475-1.82c-.339-.336 0-.606 0-.606s1.051.977.916 2.46c-.373.168-.441-.034-.441-.034z" style="fill:#93610f;fill-opacity:1;stroke-width:.0532" id="path1132-3-6"/><path d="M171.238 193.91c0 2.249-1.567 4.133-3.675 4.634-.359.086-.598-.341-.983-.341-.471 0-1.061.404-1.491.279-1.988-.581-3.44-2.408-3.44-4.572 0-2.04 1.29-3.78 3.104-4.46.526-.197 1.3.37 1.894.37.685 0 1.133-.532 1.723-.275a4.765 4.765 0 0 1 2.868 4.365z" style="fill:#d24848;fill-opacity:1;stroke-width:.0532" id="path1136-6-7"/><path d="M166.824 189.83s-.303-2.853 1.68-3.865c1.982-1.012 1.638-.566 1.638-.566s.688 3.156-3.318 4.43z" style="fill:#51c91e;fill-opacity:1;stroke-width:.0532" id="path1140-1-3"/></g></svg>