<!--Created with Inkscape (http://www.inkscape.org/)--><svg xmlns:dc="http://purl.org/dc/elements/1.1/" xmlns:cc="http://creativecommons.org/ns#" xmlns:rdf="http://www.w3.org/1999/02/22-rdf-syntax-ns#" xmlns="http://www.w3.org/2000/svg" xmlns:sodipodi="http://sodipodi.sourceforge.net/DTD/sodipodi-0.dtd" xmlns:inkscape="http://www.inkscape.org/namespaces/inkscape" width="53.066586" height="16.258736" viewBox="0 0 53.066586 16.258736" inkscape:version="0.91 r13725" sodipodi:docname="photo8_4.svg"><sodipodi:namedview pagecolor="#ffffff" bordercolor="#666666" borderopacity="1.0" inkscape:pageopacity="0.0" inkscape:pageshadow="2" inkscape:zoom="2.8" inkscape:cx="-162.80895" inkscape:cy="5.3163157" inkscape:document-units="px" inkscape:current-layer="layer1-3" showgrid="false" units="px" inkscape:window-width="1920" inkscape:window-height="1176" inkscape:window-x="1680" inkscape:window-y="24" inkscape:window-maximized="1" showguides="false" fit-margin-top="0" fit-margin-left="0" fit-margin-right="0" fit-margin-bottom="0"/><metadata><rdf:RDF><cc:Work><dc:format>image/svg+xml</dc:format><dc:type rdf:resource="http://purl.org/dc/dcmitype/StillImage"/><dc:title/></cc:Work></rdf:RDF></metadata><g inkscape:label="Layer 1" inkscape:groupmode="layer"><path d="M3903.1-259.3s1.215-30.248-9.2-33.537c-10.417-3.29-25.445-3.284-29.476.908-4.039 4.2 2.874 27.08 5.903 32.468-4.142.252-6.838.036-6.838.036s-5.474-19.126-5.477-26.9c0-6.251 5.128-12.249 10.061-13.894 4.934-1.644 20.344-1.938 26.922 1.351 13.362 3.774 18.64-4.385 25.217-2.74 12.684-.682 18.037 5.208 20.87 10.027 3.907 6.645 1.695 14.526 2.415 21.637.62 6.127.418 3.411.659 10.095l-5.964.119s.872-3.876.776-8.14c.775-8.335.484-13.277 0-16.668-1.745-4.264-2.035-7.172-7.656-10.466-5.621-3.295-14.38-1.989-18.122 1.162-3.683 3.101-3.973 4.846-4.167 13.373-.163 7.173 2.035 17.347 2.229 20.545.085 1.396-8.153.624-8.153.624z" sodipodi:nodetypes="cssccscccssccccssssc" style="fill:#35b2ec;stroke:#000;stroke-width:1px" inkscape:connector-curvature="0" transform="rotate(-.527 9946.048 117160.524) scale(.30126)"/><path d="M3862-264.98s29.905 6.24 43.163 6.034c13.258-.205 38.767-7.229 38.767-7.229l.162 6.768s-25.244 7.753-39.013 7.753c-13.77 0-40.85-6.298-40.85-6.298z" sodipodi:nodetypes="czcczcc" style="fill:#fff;stroke:#000;stroke-width:1.11600006px" inkscape:connector-curvature="0" transform="rotate(-.527 9946.048 117160.524) scale(.30126)"/><g><path d="M3903.1-259.3s1.215-30.248-9.2-33.537c-10.417-3.29-25.445-3.284-29.476.908-4.039 4.2 2.874 27.08 5.903 32.468-4.142.252-6.838.036-6.838.036s-5.474-19.126-5.477-26.9c0-6.251 5.128-12.249 10.061-13.894 4.934-1.644 20.344-1.938 26.922 1.351 13.362 3.774 18.64-4.385 25.217-2.74 12.684-.682 18.037 5.208 20.87 10.027 3.907 6.645 1.695 14.526 2.415 21.637.62 6.127.418 3.411.659 10.095l-5.964.119s.872-3.876.776-8.14c.775-8.335.484-13.277 0-16.668-1.745-4.264-2.035-7.172-7.656-10.466-5.621-3.295-14.38-1.989-18.122 1.162-3.683 3.101-3.973 4.846-4.167 13.373-.163 7.173 2.035 17.347 2.229 20.545.085 1.396-8.153.624-8.153.624z" sodipodi:nodetypes="cssccscccssccccssssc" style="fill:#35b2ec;stroke:#000;stroke-width:1px" inkscape:connector-curvature="0" transform="matrix(-.30125 .00299 .00299 .30125 1215.987 79.373)"/><path d="M3862-264.98s29.905 6.24 43.163 6.034c13.258-.205 38.767-7.229 38.767-7.229l.162 6.768s-25.244 7.753-39.013 7.753c-13.77 0-40.85-6.298-40.85-6.298z" sodipodi:nodetypes="czcczcc" style="fill:#fff;stroke:#000;stroke-width:1.11600006px" inkscape:connector-curvature="0" transform="matrix(-.30125 .00299 .00299 .30125 1215.987 79.373)"/></g></g></svg>