<svg xmlns:dc="http://purl.org/dc/elements/1.1/" xmlns:cc="http://creativecommons.org/ns#" xmlns:rdf="http://www.w3.org/1999/02/22-rdf-syntax-ns#" xmlns="http://www.w3.org/2000/svg" width="85.779404" height="35.357685" viewBox="0 0 85.779406 35.357687" version="1.1" id="svg1900"><metadata id="metadata1897"><rdf:RDF><cc:Work><dc:format>image/svg+xml</dc:format><dc:type rdf:resource="http://purl.org/dc/dcmitype/StillImage"/><dc:title/><dc:date>2023</dc:date><dc:creator><cc:Agent><dc:title>Timothée Giet</dc:title></cc:Agent></dc:creator><cc:license rdf:resource="http://creativecommons.org/licenses/by-sa/4.0/"/></cc:Work><cc:License rdf:about="http://creativecommons.org/licenses/by-sa/4.0/"><cc:permits rdf:resource="http://creativecommons.org/ns#Reproduction"/><cc:permits rdf:resource="http://creativecommons.org/ns#Distribution"/><cc:requires rdf:resource="http://creativecommons.org/ns#Notice"/><cc:requires rdf:resource="http://creativecommons.org/ns#Attribution"/><cc:permits rdf:resource="http://creativecommons.org/ns#DerivativeWorks"/><cc:requires rdf:resource="http://creativecommons.org/ns#ShareAlike"/></cc:License></rdf:RDF></metadata><g id="layer1" transform="translate(-305.57 -573.525)"><g id="use1638-8" style="display:inline;fill:#3c8239;fill-opacity:1;stroke-width:.951375" transform="matrix(-1.52398 0 0 1.50694 657.865 -891.197)"><path id="path2626" transform="matrix(.12861 0 0 .14725 182.088 740.71)" style="fill:#3c8239;fill-opacity:1;stroke:none" d="M54.72 1729.965c-12.955-57.3-65.418-104.149-110.755-139.778 58.285 5.964 98.62 69.926 124.038 117.934 2.573 8.976-2.445 22.198-13.282 21.844z"/><path id="path2628" transform="matrix(.12861 0 0 .14725 182.088 740.71)" style="fill:#3c8239;fill-opacity:1;stroke:none" d="M129.301 1721.289c16.923-30.074-35.48-114.77-26.255-150.66 29.29 54.484 47.24 92.356 42.014 140.913-3.417 5.675-10.499 6.568-15.759 9.747z"/><path id="path2630" transform="matrix(.12861 0 0 .14725 182.088 740.71)" style="fill:#3c8239;fill-opacity:1;stroke:none" d="M203.814 1718.924c25.249-47.25 55.258-94.921 108.538-113.319-29.528 20.46-63.096 41.024-76.158 76.46-6.845 14.83-14.696 32.877-32.38 36.859z"/><path id="path2632" transform="matrix(.12861 0 0 .14725 182.088 740.71)" style="fill:#3c8239;fill-opacity:1;stroke:none" d="M312.586 1727.882c20.265-9.16 40.634-61.067 69.031-84.929-31.307 78.414-42.604 86.368-69.03 84.93z"/><path id="path2634" transform="matrix(.12861 0 0 .14725 182.088 740.71)" style="fill:#3c8239;fill-opacity:1;stroke:none" d="M169.528 1710.352c12.68-15.09 17.682-39.51 39.27-44.824-11.711 15.824-17.507 39.78-39.27 44.824z"/><path id="path2636" transform="matrix(.12861 0 0 .14725 182.088 740.71)" style="fill:#3c8239;fill-opacity:1;stroke:none" d="M90.73 1685.048c-10.25-21.323-21.087-42.661-36.165-61.047 42.017 18.971 55.65 50.302 36.166 61.047z"/><path id="path2638" transform="matrix(.12861 0 0 .14725 182.088 740.71)" style="fill:#3c8239;fill-opacity:1;stroke:none" d="M284.119 1681.673c18.254-21.316 39.844-40.696 65.96-51.725-22.992 11.943-42.078 44.868-65.96 51.725z"/></g></g></svg>