<!--Created with Inkscape (http://www.inkscape.org/)--><svg xmlns:dc="http://purl.org/dc/elements/1.1/" xmlns:cc="http://creativecommons.org/ns#" xmlns:rdf="http://www.w3.org/1999/02/22-rdf-syntax-ns#" xmlns="http://www.w3.org/2000/svg" xmlns:sodipodi="http://sodipodi.sourceforge.net/DTD/sodipodi-0.dtd" xmlns:inkscape="http://www.inkscape.org/namespaces/inkscape" width="49.862457mm" height="21.815449mm" viewBox="0 0 176.678 77.298834" inkscape:version="0.91 r13725" sodipodi:docname="photo3_1.svg"><defs><clipPath id="a" clipPathUnits="userSpaceOnUse"><path style="opacity:.89332999;fill:#fdfdfd" d="M1101.1-136.21c-48.6 0-90.3 11.93-108.92 29.03-4.27-.3-8.61-.46-13.02-.46-57.89 0-104.89 26.518-104.89 59.187 0 28.591 36 52.464 83.79 57.98C972.91 40.446 1039.3 63.79 1119 63.79c90.5 0 164-30.168 164-67.344l-.1-1.082c29.3-9.232 48.5-24.502 48.5-41.775l-.4-4.386c-5.1-26.51-54-46.62-113.3-46.64-11.5-22.433-59.4-38.773-116.6-38.773z" inkscape:connector-curvature="0"/></clipPath><filter id="b" height="1.4381" width="1.1917" y="-0.21905001" x="-0.095831998" inkscape:collect="always"><feGaussianBlur stdDeviation="18.254341" inkscape:collect="always"/></filter></defs><sodipodi:namedview pagecolor="#ffffff" bordercolor="#666666" borderopacity="1.0" inkscape:pageopacity="0.0" inkscape:pageshadow="2" inkscape:zoom="5.6" inkscape:cx="108.29356" inkscape:cy="26.409877" inkscape:document-units="px" inkscape:current-layer="layer1" showgrid="false" fit-margin-top="0" fit-margin-left="0" fit-margin-right="0" fit-margin-bottom="0" inkscape:window-width="1623" inkscape:window-height="1029" inkscape:window-x="57" inkscape:window-y="21" inkscape:window-maximized="1"/><metadata><rdf:RDF><cc:Work><dc:format>image/svg+xml</dc:format><dc:type rdf:resource="http://purl.org/dc/dcmitype/StillImage"/><dc:title/></cc:Work></rdf:RDF></metadata><path d="M1101.1-136.21c-48.6 0-90.3 11.93-108.92 29.03-4.27-.3-8.61-.46-13.02-.46-57.89 0-104.89 26.518-104.89 59.187 0 28.591 36 52.464 83.79 57.98C972.91 40.446 1039.3 63.79 1119 63.79c90.5 0 164-30.168 164-67.344l-.1-1.082c29.3-9.232 48.5-24.502 48.5-41.775l-.4-4.386c-5.1-26.51-54-46.62-113.3-46.64-11.5-22.433-59.4-38.773-116.6-38.773z" clip-path="url(#a)" style="fill:#fdfdfd;filter:url(#b)" inkscape:connector-curvature="0" transform="matrix(.3865 0 0 .3865 -337.9 52.644)" inkscape:label="Layer 1" inkscape:groupmode="layer"/></svg>