<!--Created with Inkscape (http://www.inkscape.org/)--><svg xmlns:dc="http://purl.org/dc/elements/1.1/" xmlns:cc="http://creativecommons.org/ns#" xmlns:rdf="http://www.w3.org/1999/02/22-rdf-syntax-ns#" xmlns="http://www.w3.org/2000/svg" xmlns:xlink="http://www.w3.org/1999/xlink" xmlns:sodipodi="http://sodipodi.sourceforge.net/DTD/sodipodi-0.dtd" xmlns:inkscape="http://www.inkscape.org/namespaces/inkscape" width="11.721721mm" height="6.2551403mm" viewBox="0 0 41.533656 22.163883" inkscape:version="0.91 r13725" sodipodi:docname="photo5_4.svg"><defs><linearGradient id="a"><stop stop-color="#b9cb42" offset="0"/><stop stop-color="#5d9d2c" offset="1"/></linearGradient><linearGradient id="b" x1="1253.2" xlink:href="#a" gradientUnits="userSpaceOnUse" y1="625.29999" gradientTransform="matrix(.453 0 0 .66975 -144.414 -225.72)" x2="1253.2" y2="650.5"/></defs><sodipodi:namedview pagecolor="#ffffff" bordercolor="#666666" borderopacity="1.0" inkscape:pageopacity="0.0" inkscape:pageshadow="2" inkscape:zoom="22.4" inkscape:cx="29.304564" inkscape:cy="-0.56522111" inkscape:document-units="px" inkscape:current-layer="layer1" showgrid="false" inkscape:window-width="1920" inkscape:window-height="1176" inkscape:window-x="1680" inkscape:window-y="24" inkscape:window-maximized="1" fit-margin-top="0" fit-margin-left="0" fit-margin-right="0" fit-margin-bottom="0"/><metadata><rdf:RDF><cc:Work><dc:format>image/svg+xml</dc:format><dc:type rdf:resource="http://purl.org/dc/dcmitype/StillImage"/><dc:title/></cc:Work></rdf:RDF></metadata><path style="fill:url(#b)" inkscape:connector-curvature="0" d="M434.2 199.656c1.014.061 1.724-1.435.509-2.083-.484-.815-2.232-.272-.896-1.493.886-2.3-2.814.063-2.236-2.506.64-3.06-2.864-3.316-2.084-.296.469 1.895-.599-2.65-1.282-.92-.298 1.5-1.219 3.739-1.93 1.24-.993-1.438-3.004-.733-2.978-3.592-.686-2.709-2.443.893-3.01 2.15-.675.988-.432-3.23-1.41-1.376-.662.62-1.333 3.542-1.628 2.976-.432-2.639-2.761-1.192-2.14 1.236.461 1.721-.516 2.274-1.502 2.155-.316 1.045.41 2.527-.904 2.698.037 1.54-.666 4.772-2.015 2.538-.753-1.652-2.46-.153-2.853-2.439-1.25-.748-2.976-1.076-4.14.137-1.077.86-1.586 3.474-3.067 2.823-.694.862-1.156 2.345-2.215 1.61-.555.343-1.676 3.357-.875 5.58l39.387 1.09c1.805-2.378 3.035-4.87.13-8.191-.948-3.165-3.886-1.039-2.86-3.336z" transform="translate(-397.264 -189.02)" inkscape:label="Layer 1" inkscape:groupmode="layer"/></svg>