<!--Created with Inkscape (http://www.inkscape.org/)--><svg xmlns:dc="http://purl.org/dc/elements/1.1/" xmlns:cc="http://creativecommons.org/ns#" xmlns:rdf="http://www.w3.org/1999/02/22-rdf-syntax-ns#" xmlns="http://www.w3.org/2000/svg" xmlns:sodipodi="http://sodipodi.sourceforge.net/DTD/sodipodi-0.dtd" xmlns:inkscape="http://www.inkscape.org/namespaces/inkscape" width="44.319714" height="42.418827" viewBox="0 0 44.319714 42.418828" inkscape:version="0.91 r13725" sodipodi:docname="photo8_2.svg"><sodipodi:namedview pagecolor="#ffffff" bordercolor="#666666" borderopacity="1.0" inkscape:pageopacity="0.0" inkscape:pageshadow="2" inkscape:zoom="0.98994949" inkscape:cx="131.51777" inkscape:cy="430.70636" inkscape:document-units="px" inkscape:current-layer="layer1-3" showgrid="false" units="px" inkscape:window-width="1920" inkscape:window-height="1176" inkscape:window-x="1680" inkscape:window-y="24" inkscape:window-maximized="1" showguides="false" fit-margin-top="0" fit-margin-left="0" fit-margin-right="0" fit-margin-bottom="0"/><metadata><rdf:RDF><cc:Work><dc:format>image/svg+xml</dc:format><dc:type rdf:resource="http://purl.org/dc/dcmitype/StillImage"/><dc:title/></cc:Work></rdf:RDF></metadata><g transform="matrix(.27322 0 0 .27322 -20.38 -274.13)" inkscape:label="Layer 1" inkscape:groupmode="layer"><path d="M129.93 1004.1c-6.33.714-3.805 25.524 2.384 47.52-15.124-11.252-32.639-20.037-40.856-18.502-9.406 1.757 8.551 22.457 28.081 37.871-18.85-.214-38.186 2.97-43.932 9.041-6.574 6.948 20.102 13.098 44.954 14.092-15.376 10.907-29.148 24.868-30.227 33.157-1.235 9.49 24.015-1.206 44.71-15.018-6.03 17.863-8.991 37.244-4.992 44.585 4.578 8.402 18.683-15.07 27.308-38.403 5.622 18 14.64 35.38 22.19 38.968 8.642 4.107 6.277-23.162-.46-47.108 15.123 11.252 32.638 20.038 40.855 18.502 9.408-1.757-8.578-22.453-28.112-37.868 18.861.219 38.214-2.968 43.963-9.044 6.575-6.948-20.102-13.098-44.954-14.092 15.376-10.907 29.117-24.865 30.196-33.154 1.236-9.49-23.984 1.203-44.679 15.014 6.03-17.863 8.991-37.244 4.992-44.585-4.577-8.402-18.683 15.07-27.308 38.403-5.621-17.999-14.673-35.408-22.225-38.997-.704-.334-1.328-.447-1.889-.384z" inkscape:connector-curvature="0" style="fill:#eeeeec"/><ellipse transform="matrix(.55723 0 0 .8806 -6.31 201.13)" style="color:#000;fill:#fd0;fill-rule:evenodd" cx="290.20413" cy="1001.5945" rx="54.20414" ry="33.5"/></g></svg>