<!--Created with Inkscape (http://www.inkscape.org/)--><svg xmlns:dc="http://purl.org/dc/elements/1.1/" xmlns:cc="http://creativecommons.org/ns#" xmlns:rdf="http://www.w3.org/1999/02/22-rdf-syntax-ns#" xmlns="http://www.w3.org/2000/svg" xmlns:xlink="http://www.w3.org/1999/xlink" xmlns:sodipodi="http://sodipodi.sourceforge.net/DTD/sodipodi-0.dtd" xmlns:inkscape="http://www.inkscape.org/namespaces/inkscape" width="638" height="638" viewBox="0 0 638.00001 638.00001" inkscape:version="0.91 r13725" sodipodi:docname="photo10.svg"><defs><linearGradient id="c"><stop offset="0" style="stop-color:#4e9a06"/><stop offset="1" style="stop-color:#3f7d04"/></linearGradient><linearGradient x1="1373.3" y1="598.85" gradientTransform="matrix(.57326 0 0 .90107 -796.292 111.188)" x2="1365.2" gradientUnits="userSpaceOnUse" xlink:href="#c" y2="711.02" id="q"/><linearGradient id="a"><stop offset="0" style="stop-color:#00acf4"/><stop offset="1" style="stop-color:#a6e5ff"/></linearGradient><linearGradient x1="345.71" y1="-241.93" gradientTransform="matrix(.3892 0 0 .3892 -48.56 482.963)" x2="345.71" gradientUnits="userSpaceOnUse" xlink:href="#a" y2="978.18" id="d"/><linearGradient x1="-242.86" y1="405.22" x2="-248.57" gradientUnits="userSpaceOnUse" y2="994.64" id="i"><stop offset="0" style="stop-color:#007900"/><stop offset="1" style="stop-color:#008400;stop-opacity:0"/></linearGradient><linearGradient x1="-2329.5" y1="1589.9" gradientTransform="matrix(.12705 0 0 .31456 280.658 424.38)" x2="-2157.6" gradientUnits="userSpaceOnUse" xlink:href="#b" y2="1589.9" id="p"/><linearGradient x1="404.28" y1="543.41" gradientTransform="matrix(.28354 0 0 .3892 114.155 542.723)" x2="428.52" gradientUnits="userSpaceOnUse" y2="1831.1" id="g"><stop offset="0" style="stop-color:#55a800"/><stop offset="1" style="stop-color:#74e400"/></linearGradient><linearGradient x1="-2329.5" y1="1589.9" gradientTransform="translate(429.995 691.871) scale(.12236)" x2="-2157.6" gradientUnits="userSpaceOnUse" xlink:href="#b" y2="1589.9" id="j"/><linearGradient id="b"><stop offset="0" style="stop-color:#8f5902"/><stop offset="1" style="stop-color:#724701"/></linearGradient><linearGradient x1="1371.4" y1="611.67" gradientTransform="matrix(.3892 0 0 .3892 -373.454 528.413)" x2="1352.3" gradientUnits="userSpaceOnUse" xlink:href="#c" y2="741.67" id="m"/><linearGradient x1="-2329.5" y1="1589.9" gradientTransform="matrix(-.12236 0 0 .12236 190.937 709.518)" x2="-2157.6" gradientUnits="userSpaceOnUse" xlink:href="#b" y2="1589.9" id="l"/><filter width="1.1349" height="2.1352" x="-.067435" y="-.56758" id="k"><feGaussianBlur inkscape:collect="always" stdDeviation="16.216569"/></filter><filter width="1.1917" height="1.4381" x="-.095832" y="-.21905" id="f"><feGaussianBlur inkscape:collect="always" stdDeviation="18.254341"/></filter><filter width="1.3823" height="2.2602" x="-.19116" y="-.63012" id="n"><feGaussianBlur inkscape:collect="always" stdDeviation="40.507936"/></filter><filter width="1.2607" height="1.5958" x="-.13033" y="-.29791" id="o"><feGaussianBlur inkscape:collect="always" stdDeviation="24.825904"/></filter><clipPath id="e"><path d="M1101.1-136.21c-48.6 0-90.3 11.93-108.92 29.03-4.27-.3-8.61-.46-13.02-.46-57.89 0-104.89 26.518-104.89 59.187 0 28.591 36 52.464 83.79 57.98C972.91 40.446 1039.3 63.79 1119 63.79c90.5 0 164-30.168 164-67.344l-.1-1.082c29.3-9.232 48.5-24.502 48.5-41.775l-.4-4.386c-5.1-26.51-54-46.62-113.3-46.64-11.5-22.433-59.4-38.773-116.6-38.773z" style="opacity:.89333;fill:#fdfdfd"/></clipPath><clipPath id="h"><path d="M-1433.2-115.47c-11.7 0-21.1 5.75-21.1 12.87v830.03c73.7-9.9 153.9-15.06 237.2-15.06 343.78 0 484.27 44.12 822.81 235.72 342.85 194.01 775.26 461.41-891.41 464.31-60.1.1-116.5-9.4-168.6-26v151c0 7.1 9.4 12.8 21.1 12.8H796.1c11.67 0 21.04-5.7 21.04-12.8v-1640c0-7.12-9.37-12.87-21.03-12.87h-2229.3z" style="fill:#9cf000"/></clipPath></defs><sodipodi:namedview pagecolor="#ffffff" bordercolor="#666666" borderopacity="1.0" inkscape:pageopacity="0.0" inkscape:pageshadow="2" inkscape:zoom="0.7" inkscape:cx="268.65424" inkscape:cy="323.44994" inkscape:document-units="px" inkscape:current-layer="layer1-3" showgrid="false" units="px" inkscape:window-width="812" inkscape:window-height="1004" inkscape:window-x="66" inkscape:window-y="21" inkscape:window-maximized="0" showguides="true" inkscape:guide-bbox="true"><sodipodi:guide position="-0.17857143,644.28573" orientation="1,0"/></sodipodi:namedview><metadata><rdf:RDF><cc:Work><dc:format>image/svg+xml</dc:format><dc:type rdf:resource="http://purl.org/dc/dcmitype/StillImage"/><dc:title/></cc:Work></rdf:RDF></metadata><g transform="translate(90.01 -469.382)" inkscape:label="Layer 1" inkscape:groupmode="layer"><rect x="-87.867065" y="469.42609" width="638.64929" height="394.19843" style="fill:url(#d)"/><path transform="translate(-847.609 584.144) scale(.85701)" d="M1101.1-136.21c-48.6 0-90.3 11.93-108.92 29.03-4.27-.3-8.61-.46-13.02-.46-57.89 0-104.89 26.518-104.89 59.187 0 28.591 36 52.464 83.79 57.98C972.91 40.446 1039.3 63.79 1119 63.79c90.5 0 164-30.168 164-67.344l-.1-1.082c29.3-9.232 48.5-24.502 48.5-41.775l-.4-4.386c-5.1-26.51-54-46.62-113.3-46.64-11.5-22.433-59.4-38.773-116.6-38.773z" clip-path="url(#e)" style="fill:#fdfdfd;filter:url(#f)" inkscape:connector-curvature="0"/><path transform="matrix(.43295 0 0 .43295 -22.617 626.857)" d="M1101.1-136.21c-48.6 0-90.3 11.93-108.92 29.03-4.27-.3-8.61-.46-13.02-.46-57.89 0-104.89 26.518-104.89 59.187 0 28.591 36 52.464 83.79 57.98C972.91 40.446 1039.3 63.79 1119 63.79c90.5 0 164-30.168 164-67.344l-.1-1.082c29.3-9.232 48.5-24.502 48.5-41.775l-.4-4.386c-5.1-26.51-54-46.62-113.3-46.64-11.5-22.433-59.4-38.773-116.6-38.773z" clip-path="url(#e)" style="fill:#fdfdfd;filter:url(#f)" inkscape:connector-curvature="0"/><path d="M250.249 777.713c-61.007 0-107.521 13.325-143.524 33.626C67.117 792.3 30.11 786.61-25.996 786.61c-23.62 0-46.35 2.01-67.241 5.864v315.24c0 2.772 2.67 4.993 5.975 4.993h632.067c3.33 0 5.99-2.221 5.99-4.993V832.394a6480.225 6480.225 0 0 0-141.52 2.613c-47.645-24.859-86.201-57.294-159.026-57.294z" style="fill:url(#g)" inkscape:connector-curvature="0"/><path transform="matrix(.38908 0 0 .58057 232.732 377.542)" d="M594.63 842.18C868.29 893.56 4429.23 1318.7-240 1266.6c-4661.1-52.1-787.9-313.34-700-381.38 140-108.33 353.33-195.71 697.14-195.71 343.82 0 560 100.57 837.49 152.67z" clip-path="url(#h)" style="fill:url(#i)" inkscape:connector-curvature="0"/><path d="M134.344 831.016c20.511 34.12 18.414-9.145 29.17 5.443-7.541 42.764 6.176 58.833 1.48 103.824-15.081 5.436-13.47-5.69-41.036-2.968-.863-41.777 10.132-76.636 10.386-106.3z" style="fill:url(#j)" inkscape:connector-curvature="0"/><path d="m424.887 695.779 10.045-8.078 6.851-15.607-78.545-8.728-52.982 15.9-17.034 12.194 13.848 3.883 64.61-2.976 53.207 3.412z" style="fill:#888a85;fill-rule:evenodd" inkscape:connector-curvature="0"/><path d="m455.58 772.436 19.793-12.563-30.803-19.299-78.545-8.724-101.356 25.054-1.557 6.482 18.468 7.94 92.886-10.48 81.115 11.59z" style="fill:#888a85;fill-rule:evenodd" inkscape:connector-curvature="0"/><path d="m430.671 646.226 18.653-2.555 16.229 9.69-24.945.418-9.937-7.553z" style="fill:#2b2b25;fill-rule:evenodd" inkscape:connector-curvature="0"/><path d="m454.136 626.143-23.573 19.33 19.044-2.443 4.53-16.887z" style="fill:#c00;fill-rule:evenodd" inkscape:connector-curvature="0"/><path d="M454.492 626.953c-1.75 5.89-4.42 15.05-4.645 16.69l16.003 9.714-11.358-26.404z" style="fill:#c00;fill-rule:evenodd" inkscape:connector-curvature="0"/><path d="m253.236 692.251 3.01 17.71 13.184 5.675-16.194-23.385z" style="fill:#c00;fill-rule:evenodd" inkscape:connector-curvature="0"/><path d="m252.855 692.454-12.5 26.354 16.655-8.543-4.155-17.81z" style="fill:#c00;fill-rule:evenodd" inkscape:connector-curvature="0"/><path d="m240.854 717.661 15.114-7.628 13.398 5.98-7.986 5.698-20.526-4.05z" style="fill:#2b2b25;fill-rule:evenodd" inkscape:connector-curvature="0"/><path d="m371.854 676.307 53.33 15.618-2.903 43.982-51.502-12.171 1.075-47.429z" style="fill:#888a85;fill-rule:evenodd" inkscape:connector-curvature="0"/><path d="M401.85 690.16c5.371 1.322 9.537 7.1 9.298 12.884-.022.399-.037.79-.051 1.183l-1.256 28.64-19.371-4.755s.85-20.394 1.212-29.133c0-.036.007-.123.007-.123 0-.196.015-.385.022-.588.24-5.777 4.761-9.428 10.14-8.107z" style="fill:#2b2b25" inkscape:connector-curvature="0"/><path d="M307.113 691.634c20.228-6.626 42.147-11.86 64.494-15.524-.726 18.377-2.584 36.405-4.108 54.535l-59.733 6.366c-.05-6.649.16-29.83-.653-45.377z" style="fill:#eeeeec;fill-rule:evenodd" inkscape:connector-curvature="0"/><path d="M334.817 689.225c-5.008.784-9.015 4.507-8.95 8.288.008.269.008.523.015.784l.385 18.747 18.036-2.83s-.233-13.355-.327-19.074c0-.022-.007-.08-.007-.08.007-.13 0-.254 0-.385-.065-3.788-4.152-6.234-9.152-5.45z" style="fill:#2b2b25" inkscape:connector-curvature="0"/><path transform="matrix(.3892 0 0 .3892 -333.236 464.426)" d="M2071.4 1048.6a288.57 34.286 0 1 1-577.1 0 288.57 34.286 0 1 1 577.1 0z" style="opacity:.35349001;fill:#000;fill-rule:evenodd;filter:url(#k)" inkscape:connector-curvature="0"/><path d="m413.978 871.238 14.61-7.81 28.234-96.696-18.356-11.794-32.188 1.284-45.144-15.103c-.508-.015-40.492 6.59-79.917 24.546.036 3.055 12.549 104.484 12.549 104.484l69.755 3.368 23.995-1.553 26.462-.726zm24.488-116.155-24.43 115.85" style="fill:#eeeeec;fill-rule:evenodd" inkscape:connector-curvature="0"/><path d="m438.539 755.351 18 11.57c-10.372 35.817-17.245 58.643-28.03 96.304l-14.117 7.382c8.448-41.937 15.038-72.434 24.147-115.256z" style="fill:#888a85;fill-rule:evenodd" inkscape:connector-curvature="0"/><path d="m361.308 741.242 44.694 14.893c-4 38.873-10.727 77.442-18.82 115.647l-23.523 1.699c2.337-43.642.24-88.278-2.351-132.239z" style="fill:#888a85;fill-rule:evenodd" inkscape:connector-curvature="0"/><path d="m413.978 871.238 14.61-7.81 28.234-96.696-18.356-11.794-32.188 1.284-45.144-15.103c-.508-.015-40.492 6.59-79.917 24.546.036 3.055 12.549 104.484 12.549 104.484l69.755 3.368 23.995-1.553 26.462-.726z" style="fill:none" inkscape:connector-curvature="0"/><path d="m445.906 762.464 8.237-3.302 7.6 4.151-10.488 3.165-5.35-4.014z" style="fill:#888a85;fill-rule:evenodd" inkscape:connector-curvature="0"/><path d="m392.132 755.359 4.79-3.172 4.928 2.047-5.21 2.177-4.508-1.052z" style="fill:#888a85;fill-rule:evenodd" inkscape:connector-curvature="0"/><path d="m380.309 751.418 4.79-3.172 4.921 2.047-5.204 2.177-4.507-1.052z" style="fill:#888a85;fill-rule:evenodd" inkscape:connector-curvature="0"/><path d="M305.32 740.008s4-1.974 1.996-48.337c40.035-13.958 64.74-15.323 64.74-15.323l53.165 15.584s-2.01 32.32-2.555 52.518c-61.917-31.528-117.346-4.442-117.346-4.442z" style="fill:none" inkscape:connector-curvature="0"/><path d="m367.288 747.12 4.79-3.164 4.921 2.04-4.855 2.25-4.856-1.125z" style="fill:#888a85;fill-rule:evenodd" inkscape:connector-curvature="0"/><path d="M398.795 690.074c4.47 2.003 7.7 7.076 7.483 12.12-.015.392-.022.792-.044 1.176l-1.284 28.197 4.812 1.263c.37-5.29.362-10.379.675-14.9.522-7.643.9-12.636.61-16.933-.27-3.89-5.06-11.99-12.252-10.923z" style="fill:#eeeeec" inkscape:connector-curvature="0"/><path d="M337.64 689.21c-4.188 1.248-7.316 4.522-7.25 7.824.006.254 0 .515.006.77l.428 18.456-4.485.762c-.203-3.469-.058-6.793-.218-9.754-.283-5.008-.493-8.281-.101-11.083.355-2.548 4.993-7.773 11.62-6.975z" style="fill:#ccc" inkscape:connector-curvature="0"/><path d="M305.32 740.008s4-1.974 1.996-48.337c40.035-13.958 64.74-15.323 64.74-15.323l53.165 15.584s-2.01 32.32-2.555 52.518c-61.917-31.528-117.346-4.442-117.346-4.442z" style="fill:none" inkscape:connector-curvature="0"/><path d="M360.916 741.111c1.524 44.237 4.877 88.626 2.693 132.246" style="fill:none" inkscape:connector-curvature="0"/><path d="M406.125 756.324c-3.825 39.788-10.095 77.986-18.798 115.683" style="fill:none" inkscape:connector-curvature="0"/><path d="m371.57 676.663-2.184 52.56" style="fill:none" inkscape:connector-curvature="0"/><path d="M372.086 675.642 352.06 703.29l19.517-6.452.508-21.196z" style="fill:#c00;fill-rule:evenodd" inkscape:connector-curvature="0"/><path d="M371.723 676.084c-.203 6.106-.697 17.387-.9 19.027l16.925 8.238-16.025-27.265z" style="fill:#c00;fill-rule:evenodd" inkscape:connector-curvature="0"/><path d="m260.216 737.925 2.377 25.2c19.168-9.218 63.652-23.545 97.61-27.711l-.195-15.314-21.157 3.222-.544-12.665-16.795 3.825.523 11.881-14.828 4.878.16-10.423-14.436 3.883-.03 11.823-13.42 5.299-.442-12.324-18.823 8.426z" style="fill:#eeeeec;fill-rule:evenodd" inkscape:connector-curvature="0"/><path d="m360.205 719.896-.196 15.336 50.021 17.55 3.012-19.582-12.658-3.883.61-6.837-11.656-3.142-.603 7.395-28.53-6.836z" style="fill:#888a85;fill-rule:evenodd" inkscape:connector-curvature="0"/><path d="M413.405 726.29c-.327 8.42-1.836 17.623-3.1 26.369l38.018-5.858.058-28.218-12.643 3.005-.429 9.667-8.81 2.352.689-11.105-13.783 3.789z" style="fill:#eeeeec;fill-rule:evenodd" inkscape:connector-curvature="0"/><path d="m447.597 732.271 12.57 4.645.29-11.387 20.693 16.076-5.726 18.29-29.228-13.123 1.4-14.5z" style="fill:#888a85;fill-rule:evenodd" inkscape:connector-curvature="0"/><path d="M262.52 763.371c41.654-20.039 97.45-27.957 97.45-27.957l50.712 17.245 35.375-5.749 29.387 12.861 5.828-18.08-20.663-15.908-.37 12.113-12.774-5.792.965-13.565-12.781 3.36-.428 9.458-8.804 2.199.479-10.72-13.696 3.418-.305 6.852-12.476-3.854.29-6.314-11.46-3.68-.87 7.642-28.408-6.902-21.295 2.99-.24-12.403-17.012 4.006.269 11.772-14.523 5.03.167-10.343-14.8 3.499.298 12.2-13.296 5.124-.225-12.882-19.491 8.949s1.952 21.432 2.695 25.431z" style="fill:none" inkscape:connector-curvature="0"/><path d="m447.677 754.96 9.145-4.32-3.027 7.883-8.666 3.491 2.548-7.055z" style="fill:#eeeeec;fill-rule:evenodd" inkscape:connector-curvature="0"/><path d="m393.061 750.031 5.27-3.259-1.692 5.77-4.645 2.89 1.067-5.4z" style="fill:#eeeeec;fill-rule:evenodd" inkscape:connector-curvature="0"/><path d="m381.514 745.945 5.269-3.259-1.684 5.778-4.645 2.88 1.06-5.399z" style="fill:#eeeeec;fill-rule:evenodd" inkscape:connector-curvature="0"/><path d="m360.074 719.984-.065 15.357" style="fill:none" inkscape:connector-curvature="0"/><path d="M410.865 752.332c.682-6.394 1.749-12.955 2.04-19.19" style="fill:none" inkscape:connector-curvature="0"/><path d="m446.218 746.714 1.234-14.48" style="fill:none" inkscape:connector-curvature="0"/><path d="m252.985 692.15 16.736 23.617-13.425-5.618-16.572 7.708 13.26-25.707zm2.99 17.803-2.92-17.216m-13.145 25.178 6.463 1.132 20.194-.79 3.008-2.309" style="fill:none" inkscape:connector-curvature="0"/><path d="m454.281 625.638-24.568 20.352 19.756-2.438 16.548 9.837-11.736-27.75zm-4.427 17.763 4.253-17.187m11.439 27.06-7.78.09-24.46-4.51-3.462-2.666" style="fill:none" inkscape:connector-curvature="0"/><path d="m489.562 697.005-23.915 20.3 26.354.29-2.439-20.59z" style="fill:#c00;fill-rule:evenodd" inkscape:connector-curvature="0"/><path d="m489.997 697.702.683 19.342 14.915 12.099-15.598-31.441z" style="fill:#c00;fill-rule:evenodd" inkscape:connector-curvature="0"/><path d="m465.8 717.538 24.546-.516 14.32 11.707-21.912-.53-11.431-6.996-5.523-3.665z" style="fill:#2b2b25;fill-rule:evenodd" inkscape:connector-curvature="0"/><path d="m489.83 696.36-24.633 21.09L490.1 717l15.924 12.303-16.192-32.944zm.596 20.452-.886-19.865m16.301 32.414-6.532-1.292-29.46-7.911-4.507-2.533" style="fill:none" inkscape:connector-curvature="0"/><path d="m351.633 702.688 19.038-6.692 17.883 8.732-15.162 1.734-21.759-3.774z" style="fill:#2b2b25;fill-rule:evenodd" inkscape:connector-curvature="0"/><path d="m371.636 675.705 16.94 28.616-17.891-8.84-19.342 7.04 20.293-26.816zm-.893 19.406.965-18.816m-20.177 26.284 7.585 1.089 22.456 2.054 6.859-1.22" style="fill:none" inkscape:connector-curvature="0"/><path d="m359.377 701.81-.69 24.553 11.178-2.388.994-26.462-11.482 4.297z" style="fill:#eeeeec;fill-rule:evenodd" inkscape:connector-curvature="0"/><path d="m381.187 729.114.537-24.916-10.865-6.612-.994 25.968 11.322 5.56z" style="fill:#888a85;fill-rule:evenodd" inkscape:connector-curvature="0"/><path d="m359.61 726.363 10.255-2.388 10.713 4.783-10.793.704-10.176-3.099z" style="fill:#888a85;fill-rule:evenodd" inkscape:connector-curvature="0"/><path d="m358.847 726.117 10.67 3.367 11.685-.544.588-24.735-11.003-6.75-11.373 4.246-.567 24.416zm11.163-2.25.668-26.347m10.444 31.224-11.243-4.754-10.734 2.105" style="fill:none" inkscape:connector-curvature="0"/><path d="M438.408 754.829c-8.15 39.2-16.642 78.153-24.11 115.974" style="fill:none" inkscape:connector-curvature="0"/><path d="m470.249 720.31-6.039 25.396 18.863.566 6.155-26.18-18.98.218z" style="fill:#eeeeec;fill-rule:evenodd" inkscape:connector-curvature="0"/><path d="m491.601 754.502 7.948-26.477-9.994-7.679-7.882 26.223 9.928 7.933z" style="fill:#888a85;fill-rule:evenodd" inkscape:connector-curvature="0"/><path d="m464.929 746.032 18.282.196 7.665 8.064-11.003-.087-14.944-8.173z" style="fill:#888a85;fill-rule:evenodd" inkscape:connector-curvature="0"/><path d="m464.072 745.517 15.786 8.637 11.685.334 7.853-26.412-9.936-7.976-19.342-.015-6.046 25.432zm17.31.58 7.97-25.932m2.112 34.12-10.205-8.064-16.89-.726" style="fill:none" inkscape:connector-curvature="0"/><path d="m244.003 717.922 2.232 33.517 13.936-5.668-3.608-33.03-12.56 5.181z" style="fill:#eeeeec;fill-rule:evenodd" inkscape:connector-curvature="0"/><path d="m268.3 751.396-1.737-34.758-9.676-4.028 1.927 33.923 9.485 4.863z" style="fill:#888a85;fill-rule:evenodd" inkscape:connector-curvature="0"/><path d="m245.325 750.561 13.45-5.175 10.456 5.473-13.415 5.167-10.49-5.465z" style="fill:#888a85;fill-rule:evenodd" inkscape:connector-curvature="0"/><path d="m246.13 751.838 9.634 4.166 12.734-3.991-2.308-35.354-9.568-4.144-12.496 5.473 2.003 33.85zm12.658-5.334-2.274-33.923m11.907 39.228-9.76-5.182-12.233 5.182" style="fill:none" inkscape:connector-curvature="0"/><path d="m379.177 641.867-1.27 29.606c-29.975 1.896-58.499 7.886-84.874 19.9l-2.453-16.736 29.815-11.674 1.263 9.283 7.265-1.898-.675-11.815 10.56-3.797.588 12.869 12.498-3.235-.334-12.166 9.624-1.969.596 12.307 9.123-1.754.167-15.757 8.107-3.164z" style="fill:#eeeeec;fill-rule:evenodd" inkscape:connector-curvature="0"/><path d="m377.95 671.504 57.207 15.71 6.213-12.329-6.09-2.586 1.074-9.149-7.766-3.381-2.264 10.044-8.484-2.188 1.916-10.044-8.601-3.78-1.677 10.542-9.311-2.386 1.313-11.934-9.798-3.978-.24 13.525-5.85-1.69.72-13.327-6.809-2.785-1.553 29.736z" style="fill:#888a85;fill-rule:evenodd" inkscape:connector-curvature="0"/><path d="M293.193 691.373c31.448-16.546 83.828-19.945 83.828-19.945l58.041 16.026 5.96-12.532-5.785-2.314.892-9.306-7.954-3.488-2.185 10.357-7.969-2.72 1.495-10.144-8.615-3.45-1.85 10.573-9.24-2.744 1.59-11.539-9.646-3.806-.552 13.623-5.763-1.81.893-13.52-7.09-2.874-8.02 3.393-.35 15.647-9.188 1.658-.326-12.068-9.711 1.803.225 12.263-12.448 3.243-.326-12.823-10.822 4.01.66 11.629-7.214 1.845-1.11-9.503-8.97 3.986 1.197 7.993-21.085-5.92s-.225 8.189 1.438 22.457z" style="fill:none" inkscape:connector-curvature="0"/><path d="m434.046 647.535-4.006 28.29 15.96-1.061 2.671-29-14.625 1.77z" style="fill:#eeeeec;fill-rule:evenodd" inkscape:connector-curvature="0"/><path d="m454.593 678.91 4.667-26.748-9.82-5.769-4.979 28.011 10.132 4.506z" style="fill:#888a85;fill-rule:evenodd" inkscape:connector-curvature="0"/><path d="m430.229 676.457 15.401-2.067 9.21 4.579-13.463.788-11.148-3.3z" style="fill:#888a85;fill-rule:evenodd" inkscape:connector-curvature="0"/><path d="m454.26 678.967-12.905.825-11.569-3.509 4.05-28.68 14.966-1.868 10.212 6.339-4.754 26.893zm-10.307-4.16 4.958-28.997m-19.009 30.283 14.168-1.149 9.87 3.96" style="fill:none" inkscape:connector-curvature="0"/><path d="M379.264 642.067c-.232 9.875-.922 19.377-1.691 29.25" style="fill:none" inkscape:connector-curvature="0"/><path d="M301.336 770.876c-4.544.37-7.817 3.767-7.302 7.577.037.261.066.523.102.777l2.584 18.848 16.374-1.335-2.57-19.168a1.19 1.19 0 0 1-.014-.08c-.007-.13-.03-.254-.05-.385-.509-3.81-4.58-6.611-9.124-6.234z" style="fill:#2b2b25" inkscape:connector-curvature="0"/><path d="M303.956 771.094c-3.738.9-6.242 3.926-5.792 7.243.036.261.058.523.095.777l2.59 18.565-4.064.385c-.595-3.491-.863-6.822-1.364-9.805-.85-5.052-1.437-8.354-1.408-11.134.022-2.526 3.709-7.389 9.943-6.031z" style="fill:#ccc" inkscape:connector-curvature="0"/><path d="M333.474 764.62c-4.848.007-8.463 3.592-8.078 7.976.029.305.058.602.08.9l1.988 21.73 17.484-.043s-1.371-15.467-1.96-22.093c-.006-.03-.006-.095-.006-.095-.007-.145-.03-.29-.044-.442-.384-4.384-4.608-7.948-9.464-7.933z" style="fill:#2b2b25" inkscape:connector-curvature="0"/><path d="M336.254 765.113c-4.007.682-6.801 3.912-6.453 7.73.03.305.044.602.073.893l2.003 21.403-4.34.073c-.494-4.036-.639-7.853-1.06-11.308-.697-5.835-1.19-9.653-1.045-12.825.123-2.874 4.239-8.078 10.822-5.966z" style="fill:#ccc" inkscape:connector-curvature="0"/><path d="M419.98 768.372c-4.666-.116-8.956 2.83-9.58 6.561-.043.261-.087.515-.13.77l-3.042 18.493 16.81.413s2.206-13.158 3.15-18.798c0-.022.014-.08.014-.08.03-.123.036-.246.058-.377.632-3.73-2.62-6.866-7.28-6.982z" style="fill:#2b2b25" inkscape:connector-curvature="0"/><path d="M422.535 768.865c-4.006.48-7.424 3.143-7.962 6.395-.043.254-.094.508-.137.762l-2.947 18.217-4.195-.05c.45-3.441 1.183-6.685 1.568-9.632.653-4.964 1.052-8.216 1.916-10.909.776-2.431 5.915-6.75 11.757-4.783z" style="fill:#ccc" inkscape:connector-curvature="0"/><path d="M250.272 718.438c-2.165.718-3.805 2.91-3.66 4.899.008.138.018.268.028.406l.741 9.813 7.808-2.591-.727-9.987c0-.015-.003-.044-.003-.044 0-.065-.009-.13-.014-.196-.145-1.988-2.006-3.019-4.173-2.3z" style="fill:#2b2b25" inkscape:connector-curvature="0"/><path d="M251.51 718.256c-1.796.907-3.064 2.816-2.935 4.55.01.132.016.27.027.4l.75 9.66-1.94.675c-.192-1.807-.232-3.556-.394-5.102-.275-2.613-.468-4.318-.383-5.814.077-1.357 1.95-4.383 4.875-4.369z" style="fill:#ccc" inkscape:connector-curvature="0"/><path d="M376.194 703.254c1.988.828 3.592 3.107 3.585 5.095-.007.138-.007.269-.007.407l-.058 9.827-7.163-2.961s.029-7.004.043-10.002v-.043c-.007-.073 0-.138 0-.203.007-1.99 1.611-2.94 3.6-2.12z" style="fill:#2b2b25" inkscape:connector-curvature="0"/><path d="M375.069 703.015c1.67 1.001 2.925 2.975 2.91 4.71 0 .138.007.269.007.406l-.087 9.668 1.786.77c.058-1.808-.015-3.572.036-5.11.087-2.613.16-4.319-.007-5.821-.153-1.372-2.018-4.5-4.645-4.623z" style="fill:#eeeeec" inkscape:connector-curvature="0"/><path d="M493.735 727.401c1.699 1.183 2.642 3.55 2.112 5.27l-.109.355-2.641 8.514-6.112-4.268s1.866-6.068 2.664-8.673c.007-.007.015-.037.015-.037.014-.058.036-.116.05-.174.53-1.72 2.33-2.17 4.021-.987z" style="fill:#2b2b25" inkscape:connector-curvature="0"/><path d="M492.72 726.93c1.342 1.262 2.031 3.273 1.567 4.775l-.109.348-2.613 8.376 1.51 1.089c.537-1.553.929-3.1 1.379-4.428.77-2.25 1.284-3.708 1.517-5.058.217-1.22-.755-4.377-3.252-5.103z" style="fill:#eeeeec" inkscape:connector-curvature="0"/><path d="M453.759 652.297c1.662.638 2.772 2.472 2.475 4.09-.022.113-.044.222-.058.332l-1.481 8.004-5.988-2.302s1.038-5.702 1.48-8.146c0-.01.008-.033.008-.033.007-.056.022-.109.029-.164.297-1.617 1.872-2.42 3.534-1.781z" style="fill:#2b2b25" inkscape:connector-curvature="0"/><path d="M452.786 652.12c1.35.786 2.192 2.377 1.93 3.786-.02.11-.035.222-.057.33l-1.474 7.878 1.481.596c.32-1.471.508-2.905.784-4.163.45-2.128.762-3.515.827-4.74.066-1.11-1.154-3.63-3.49-3.687z" style="fill:#eeeeec" inkscape:connector-curvature="0"/><path d="m279.468 728.606 4.812 1.241-.218 10.248-4.543 1.895-.051-13.384z" style="fill:#2b2b25;fill-rule:evenodd" inkscape:connector-curvature="0"/><path d="m307.621 720.796 4.036 1.329-.973 7.904-3.005 1.4-.058-10.633z" style="fill:#2b2b25;fill-rule:evenodd" inkscape:connector-curvature="0"/><path d="m338.14 710.664 4.537 2.09-.174 9.392-3.876.828-.486-12.31z" style="fill:#2b2b25;fill-rule:evenodd" inkscape:connector-curvature="0"/><path d="m388.982 718.924-2.918 1.59-.79 5.515 3.004 1.125.704-8.23z" style="fill:#2b2b25;fill-rule:evenodd" inkscape:connector-curvature="0"/><path d="m426.984 722.408 2.483 1.887-.4 8.201-2.46.93.377-11.018z" style="fill:#2b2b25;fill-rule:evenodd" inkscape:connector-curvature="0"/><path d="m448.845 718.329 2.265 1.59-.508 13.376-2.679-1.365.922-13.601z" style="fill:#2b2b25;fill-rule:evenodd" inkscape:connector-curvature="0"/><path d="m457.67 726.392 2.802-1.096-.5 12.578-3.005-1.357.704-10.125z" style="fill:#2b2b25;fill-rule:evenodd" inkscape:connector-curvature="0"/><path d="m339.026 654.328 4.166 1.025-.544 11.664-2.969.476-.653-13.165z" style="fill:#2b2b25;fill-rule:evenodd" inkscape:connector-curvature="0"/><path d="m361.417 649.915 3.904 1.008-.544 10.89-2.722.547-.638-12.445z" style="fill:#2b2b25;fill-rule:evenodd" inkscape:connector-curvature="0"/><path d="m391.668 645.854-2.983.96-.64 12.186 3.144 1.076.479-14.222z" style="fill:#2b2b25;fill-rule:evenodd" inkscape:connector-curvature="0"/><path d="m410.894 653.367-2.62.478-2.156 10.148 2.722.546 2.054-11.172z" style="fill:#2b2b25;fill-rule:evenodd" inkscape:connector-curvature="0"/><path d="m428.27 659.284-3.15.578-1.8 9.85 2.72.546 2.23-10.974z" style="fill:#2b2b25;fill-rule:evenodd" inkscape:connector-curvature="0"/><path d="m457.337 750.14 8.76 4.282-2.917 8.739-9.363-4.565 3.52-8.456z" style="fill:#888a85;fill-rule:evenodd" inkscape:connector-curvature="0"/><path d="m454.042 758.552-8.956 3.781" style="fill:none" inkscape:connector-curvature="0"/><path d="m457.279 750.14-10.038 4.66" style="fill:none" inkscape:connector-curvature="0"/><path d="m463.1 763.226-12.273 3.556" style="fill:none" inkscape:connector-curvature="0"/><path d="m450.812 766.746-6.14-4.609 2.555-7.243" style="fill:none" inkscape:connector-curvature="0"/><path d="m387.059 742.505 4.906 1.996-1.64 5.835-5.204-2.083 1.938-5.748z" style="fill:#888a85;fill-rule:evenodd" inkscape:connector-curvature="0"/><path d="m385.244 748.202-4.979 3.208" style="fill:none" inkscape:connector-curvature="0"/><path d="m386.928 742.505-5.574 3.868" style="fill:none" inkscape:connector-curvature="0"/><path d="m390.42 750.43-5.372 1.996" style="fill:none" inkscape:connector-curvature="0"/><path d="m384.947 752.412-4.761-.936 1.154-5.03" style="fill:none" inkscape:connector-curvature="0"/><path d="m398.563 746.584 5.051 1.894-1.437 5.893-5.407-2.14 1.793-5.647z" style="fill:#888a85;fill-rule:evenodd" inkscape:connector-curvature="0"/><path d="m396.893 752.18-4.979 3.215" style="fill:none" inkscape:connector-curvature="0"/><path d="m398.628 746.584-5.618 3.774" style="fill:none" inkscape:connector-curvature="0"/><path d="m402.075 754.415-5.48 1.974" style="fill:none" inkscape:connector-curvature="0"/><path d="m396.509 756.346-4.573-.987 1.053-4.878" style="fill:none" inkscape:connector-curvature="0"/><path d="m368.283 741.656 5.269-3.26-1.691 5.77-4.645 2.89 1.067-5.4z" style="fill:#eeeeec;fill-rule:evenodd" inkscape:connector-curvature="0"/><path d="m373.748 738.266 5.059 1.895-1.64 5.835-5.205-2.083 1.786-5.647z" style="fill:#888a85;fill-rule:evenodd" inkscape:connector-curvature="0"/><path d="m372.086 743.862-4.98 3.208" style="fill:none" inkscape:connector-curvature="0"/><path d="m373.719 738.259-5.27 3.578" style="fill:none" inkscape:connector-curvature="0"/><path d="m377.26 746.09-4.92 1.989" style="fill:none" inkscape:connector-curvature="0"/><path d="m372.383 748.1-5.254-1.059 1.255-5.233" style="fill:none" inkscape:connector-curvature="0"/><path d="m333.786 748.609 9.355-2.983 9.334 4.485-10.626 2.083-8.063-3.585z" style="fill:#888a85;fill-rule:evenodd" inkscape:connector-curvature="0"/><path d="m341.646 736.365 8.165 6.372.995 7.468-7.665-4.58-1.495-9.26z" style="fill:#888a85;fill-rule:evenodd" inkscape:connector-curvature="0"/><path d="m341.537 736.307-9.232 2.634 1.198 9.37 9.544-2.932-1.51-9.072z" style="fill:#eeeeec;fill-rule:evenodd" inkscape:connector-curvature="0"/><path d="m342.844 745.292 7.686 5.45" style="fill:none" inkscape:connector-curvature="0"/><path d="m341.537 736.147 8.514 6.54" style="fill:none" inkscape:connector-curvature="0"/><path d="m333.314 748.449 8.877 3.607" style="fill:none" inkscape:connector-curvature="0"/><path d="m341.886 752.02 8.615-1.336-.697-8.375" style="fill:none" inkscape:connector-curvature="0"/><path d="m314.973 742.817 8.166 6.372.994 7.461-7.664-4.58-1.496-9.253z" style="fill:#888a85;fill-rule:evenodd" inkscape:connector-curvature="0"/><path d="m307.41 754.582 9.356-2.983 7.367 5.276-8.659 1.292-8.063-3.585z" style="fill:#888a85;fill-rule:evenodd" inkscape:connector-curvature="0"/><path d="m315.06 742.483-9.231 2.627 1.197 9.37 9.544-2.925-1.51-9.072z" style="fill:#eeeeec;fill-rule:evenodd" inkscape:connector-curvature="0"/><path d="m316.367 751.461 7.686 5.45" style="fill:none" inkscape:connector-curvature="0"/><path d="m315.06 742.323 8.514 6.532" style="fill:none" inkscape:connector-curvature="0"/><path d="m306.837 754.618 8.877 3.615" style="fill:none" inkscape:connector-curvature="0"/><path d="m315.409 758.19 8.615-1.336-.704-8.376" style="fill:none" inkscape:connector-curvature="0"/><path d="m289.39 750.184 8.165 6.372.994 7.461-7.664-4.58-1.496-9.253z" style="fill:#888a85;fill-rule:evenodd" inkscape:connector-curvature="0"/><path d="m281.428 762.246 9.355-2.983 9.725 4.094-11.017 2.475-8.063-3.586z" style="fill:#888a85;fill-rule:evenodd" inkscape:connector-curvature="0"/><path d="m289.382 750.242-9.24 2.634 1.206 9.37 9.544-2.932-1.51-9.072z" style="fill:#eeeeec;fill-rule:evenodd" inkscape:connector-curvature="0"/><path d="m290.689 759.227 7.686 5.45" style="fill:none" inkscape:connector-curvature="0"/><path d="m289.375 750.082 8.52 6.54" style="fill:none" inkscape:connector-curvature="0"/><path d="m281.152 762.384 8.876 3.607" style="fill:none" inkscape:connector-curvature="0"/><path d="m289.73 765.955 8.616-1.335-.704-8.376" style="fill:none" inkscape:connector-curvature="0"/><path d="M484.017 756.694c-1.531 2.344 4.885-14.284 5.059-7.664-1.88.921 6.445 8.295 4.463 9.21 2.642 1.11 1.154-.05 3.978.697-2.163 4.899-.617-.29-2.388-5.052 1.894-1.074 3.94 11.46 2.743 6.184 6.402 3.767 6.075 2.286 6.467 3.607 1.205-.123 6.191 7.403 4.391.566 1.212.704.08 1.713.32 4.616 4.05.639.805-3.65 1.915-3.012 2.628-3.142 5.023.719 4.718 3.593 7.563-8.724 2.75 1.77 2.678 2.961.588 1.568 1.96-4.166 2.744-3.535-5.124.784 7.105 4.769 6.64 2.73-.682-.893-2.278 3.991-.957 3.215-4.972.435 1.096 3.563 2.482 4.529 3.57-.175 12.113 5.56 5.85 3.766-1.205.806 5.015-4.05 1.807 1.314-1.894 1.989-.109 1.865.174 3.157-.958 2.301 2.707 3.252 2.976 5.132-.639 1.829 8.412-.697 7.998 2.91 4.297 7.795-11.25 8.209-10.611 8.622-1.364.675 2.308 2.41-.334 1.343-11.765 4.057 2.3 9.813 4.667 8.739 4.55.892 3.752-6.3.98-7.68-1.524 1.561 2.91 3.289.392 5.379-.675 1.8 2.555 1.691-.254 3.549 2.163-1.437-5.69 7.381.203 9.653-2.156 2.214-3.426.777-5.139-.276-3.658 3.89-1.981-1.473-1.988 1.452-.842.682 2.954 3.578-.116.355-2.381 3.557-1.169-.631-2.824-.16-1.14-1.603 2.57 3.172.218 4.595-.443.552 5.247.283 5.4 1.081-.349-.624-3.288 6.736-3.23 7.665-4.282-.051-4.964 4.086-5.683 5.138-.566.973 2.896 1.488.421 5.778-3.186-5.023.588-.748.073.362-2.28-1.778-.799.45.268.857-3.28-.044-3.375-1.546-5.516 1.742-3.513-2.018-2.14 8.136-1.814 9.9.58-2.396 1.176-5.524.24-5.045-1.888 1.938-4.24 3.941-4.929 6.583-1.19.893-5.16-4.601-3.781-.16 1.24-.776 4.013 3.274 3.048 3.434-.08 1.066-8.6-4.391-8.71-1.002-1.16 2.141-10.647 7.875-3.171 1.168-.37-.26.058-.79-1.706-.108-1.698-3.477.153-4.972-2.264-1.496.573-3.454 3.745 9.958 5.625 4.174-1.241.007-16.715-4.71-17.52-2.954-.407 1.096-4.123-2.112-.603-2.17-.719-.204-2.613 2.206-5.756 3.346.61.362.204-14.494 2.069-7.128-1.285-.479-7.715 4.166-9.414 4.638-2.097.124-2.126-7.49-2.482-3.73-1.343-.792-3.157-1.612-3.44-1.757-5.814-2.49-.58-3.825-2.446-1.778-3.324 3.397-4.166-4.776-3.426-3.208-1.967-3.15 3.491 1.125-2.424 5.668-1.459.429-2.214.342-3.89.48 2.003-.697-.37 3.556-3.085 2.96-1.48-2.017-3.092-3.019-3.955-2.903-1.866-1.51-2.722 1.242-5.037-1.066-2.867 1.894.624-7.76-.08-4.682-1.945-10.081-8.129 10.357-9.377 10.038-.276-3.353-.995.377-.472-1.285-4.26-.53 4.093-11.387-4.449-7.693-2.918.479 4.028 3.774-.856-.748-.668-1.437 3.062 3.339-.792 2.57-2.133-.102-7.003-.966-8.049-1.525-1.335.059 1.118-9.55.494-10.509-1.923-3.556 5.051-3.092-.994-3.077-.675 2.424-1.183 1.306-2.526-1.742 2.57-1.778-4.21-2.787-4.95-3.861-.617-1.321 5.596 1.379-.944-4.014-2.387.82-6.045-3.643-6.445-.116 5.052-.08 2.272-7.52 4.384-8.906 2.693-.776-.885.799 1.22 1.858-.167-1.995-2.417-8.92-2.49-10.153-1.118-2.439-.087-2.236 1.27-2.04.915-1.023 3.636 2.069-.196-3.846 3.419-3.397.421-9.595 1.764-9.726-1.865.958 1.016 4.108.885.914-3.541 3.245 4.718-3.912 1.031-2.75 3.65-5.233 1.125-.4 1.423-6.982-2.221-4.232 3.919-.458 4.543-3.818.189-.806-2.976 5.414-2.693 4.086 2.816-3.048 11.686-9.34 12.07-8.499.936-.798-1.981 6.242-1.372 3.07 2.875-.312-.123-6.169 3.042-6.024-4.493.552 1.357-2.721 1.32-1.023-.217-2.838-2.496.297 1.938-5.306 4.957-.413 1.72 1.699 5.06 1.423-6.65-2.598 5.943.21 8.273.522 3.709 1.938 5.052 3.303-.225-1.98 1.306.159 10.154 9.202 5.248 4.55.319.058 1.64.559 2.533.283-5.357 8.1-3.404-10.923-4.987-9.936.48-2.388 2.751-.922 3.412-1.895.036-.08 3.585-1.233 4.151-1.966-2.061-4 3.644 12.36 3.266-1.662-.297-6.438-2.664 4.855 3.114-1.184-1.677-1.074-.095-1.125 1.023-.79 1.35-.654 3.223-5.981 3.128-3.376.704.915.712-6.539.523-6.96 3.6.21 5.966 7.723 5.262 4.95 3.084-1.829 11.7.617 12.97.588 3.346 3.723-10.902-.24-11.46-.777.696.603 3.432-.834 7.932-2.163" style="fill:#4e9a06" inkscape:connector-curvature="0"/><path d="M486.586 848.666c-20.518 34.112-18.413-9.152-29.17 5.436 7.542 42.764-6.176 58.833-1.48 103.824 15.075 5.436 13.47-5.683 41.036-2.968.864-41.777-10.139-76.63-10.386-106.292z" style="fill:url(#l)" inkscape:connector-curvature="0"/><path d="M159.123 742.39c-1.524 2.337 4.884-14.291 5.059-7.672-1.873.922 6.449 8.296 4.463 9.21 2.644 1.11 1.153-.043 3.981.697-2.161 4.9-.618-.29-2.386-5.051 1.887-1.075 3.936 11.46 2.742 6.183 6.396 3.767 6.07 2.287 6.463 3.607 1.204-.116 6.196 7.404 4.392.567 1.211.71.082 1.712.318 4.616 4.052.638.806-3.651 1.916-3.012 2.632-3.136 5.028.718 4.72 3.592 7.564-8.724 2.75 1.771 2.681 2.961.583 1.568 1.96-4.158 2.742-3.534-5.124.784 7.104 4.768 6.64 2.729-.682-.886-2.28 3.992-.961 3.222-4.968.436 1.096 3.564 2.484 4.522 3.57-.174 12.112 5.56 5.85 3.774-1.202.798 5.015-4.05 1.81 1.307-1.894 1.988-.108 1.865.174 3.157-.961 2.308 2.703 3.251 2.971 5.138-.633 1.83 8.417-.696 8.004 2.91 4.292 7.788-11.255 8.202-10.617 8.616-1.363.675 2.314 2.41-.33 1.343-11.765 4.057 2.296 9.812 4.667 8.738 4.547.893 3.75-6.3.977-7.679-1.521 1.56 2.913 3.288.392 5.386-.677 1.792 2.559 1.683-.254 3.541 2.165-1.437-5.686 7.382.208 9.653-2.161 2.214-3.432.777-5.14-.275-3.658 3.897-1.986-1.467-1.993 1.451-.843.682 2.955 3.586-.111.356-2.381 3.563-1.173-.632-2.83-.153-1.134-1.61 2.57 3.165.221 4.587-.445.552 5.245.283 5.4 1.082-.349-.617-3.29 6.735-3.231 7.664-4.28-.043-4.96 4.086-5.683 5.139-.567.972 2.899 1.488.425 5.784-3.188-5.03.583-.755.07.363-2.279-1.785-.8.45.266.85-3.274-.044-3.372-1.547-5.516 1.741-3.512-2.01-2.141 8.136-1.814 9.907.583-2.402 1.18-5.53.245-5.044-1.889 1.938-4.238 3.934-4.928 6.576-1.195.9-5.163-4.602-3.783-.153 1.243-.784 4.012 3.266 3.047 3.426-.083 1.067-8.604-4.391-8.708-.994-1.16 2.14-10.65 7.867-3.174 1.168-.368-.261.06-.791-1.704-.109-1.7-3.476.154-4.979-2.267-1.502.574-3.455 3.747 9.958 5.624 4.173-1.24.015-16.707-4.703-17.52-2.947-.406 1.09-4.122-2.119-.595-2.177-.726-.196-2.613 2.207-5.763 3.346.61.363.204-14.494 2.069-7.127-1.285-.48-7.708 4.166-9.414 4.638-2.09.13-2.119-7.483-2.482-3.731-1.335-.791-3.157-1.611-3.44-1.75-5.814-2.489-.58-3.831-2.446-1.785-3.324 3.397-4.166-4.775-3.426-3.2-1.967-3.158 3.491 1.125-2.424 5.66-1.459.429-2.214.342-3.89.48 2.003-.69-.363 3.556-3.085 2.968-1.473-2.025-3.092-3.026-3.948-2.91-1.873-1.51-2.722 1.241-5.044-1.06-2.867 1.895.624-7.766-.08-4.688-1.945-10.082-8.129 10.357-9.377 10.045-.276-3.36-.995.37-.472-1.292-4.253-.53 4.093-11.388-4.45-7.694-2.917.48 4.029 3.774-.848-.747-.675-1.437 3.055 3.338-.799 2.569-2.133-.102-6.996-.958-8.049-1.517-1.335.05 1.118-9.551.494-10.51-1.923-3.563 5.059-3.098-.994-3.084-.675 2.424-1.176 1.314-2.526-1.742 2.576-1.77-4.21-2.78-4.95-3.861-.617-1.32 5.596 1.386-.944-4.014-2.387.82-6.045-3.636-6.437-.116 5.044-.08 2.271-7.519 4.376-8.905 2.693-.777-.885.798 1.22 1.858-.167-1.996-2.417-8.92-2.483-10.154-1.117-2.439-.094-2.235 1.263-2.04.915-1.015 3.636 2.07-.196-3.846 3.426-3.397.421-9.595 1.764-9.726-1.865.958 1.016 4.108.885.915-3.534 3.251 4.725-3.905 1.031-2.75 3.65-5.227 1.132-.393 1.423-6.976-2.221-4.238 3.919-.464 4.55-3.817.189-.813-2.983 5.414-2.7 4.079 2.816-3.041 11.685-9.341 12.077-8.5.93-.79-1.988 6.242-1.379 3.07 2.875-.311-.123-6.161 3.041-6.023-4.492.551 1.358-2.722 1.321-1.016-.21-2.846-2.49.29 1.938-5.306 4.957-.421 1.72 1.691 5.059 1.415-6.648-2.598 5.944.21 8.274.53 3.716 1.938 5.059 3.302-.225-1.981 1.306.152 10.154 9.203 5.247 4.55.32.051 1.64.56 2.54.276-5.356 8.1-3.41-10.923-4.993-9.936.487-2.388 2.751-.922 3.411-1.887.037-.087 3.586-1.234 4.152-1.967-2.061-4.006 3.65 12.36 3.266-1.662-.298-6.445-2.656 4.848 3.114-1.183-1.67-1.074-.095-1.132 1.023-.791 1.35-.66 3.223-5.988 3.128-3.375.704.907.711-6.547.523-6.967 3.6.21 5.966 7.722 5.262 4.95 3.092-1.822 11.707.624 12.97.595 3.345 3.716-10.902-.247-11.46-.777.696.595 3.432-.835 7.94-2.163" style="fill:url(#m)" inkscape:connector-curvature="0"/><path transform="matrix(.38204 0 0 .36078 561.626 535.64)" d="M-114.29 1192.4a254.29 77.143 0 1 1-508.57 0 254.29 77.143 0 1 1 508.57 0z" style="opacity:.36444002;fill:#323232;filter:url(#n)" inkscape:connector-curvature="0"/><path transform="matrix(-.51462 0 0 .36759 10.563 912.172)" d="M66.775-44.781c-48.512 0-90.277 11.93-108.88 29.029a188.982 188.982 0 0 0-13.024-.458c-57.891 0-104.88 26.516-104.88 59.185 0 28.592 35.99 52.465 83.783 57.985 14.848 30.91 81.28 54.26 160.92 54.26 90.557 0 164.05-30.17 164.05-67.345l-.12-1.083c29.34-9.232 48.52-24.501 48.52-41.774l-.42-4.386c-5.1-26.51-53.97-46.621-113.32-46.641-11.48-22.433-59.41-38.772-116.62-38.772z" style="opacity:.031111;fill:#000;filter:url(#o)" inkscape:connector-curvature="0"/><path d="M-26.331 782.1c21.302 87.697 19.124-23.516 30.287 13.978-7.824 109.943 6.416 151.248 1.539 266.91-12.266 10.951-20.2 11.525-34.098 7.794-3.84-1.023-7.563-14.835-13.76-13.318 23.26-98.998 15.778-199.106 16.032-275.364z" style="fill:url(#p)" inkscape:connector-curvature="0"/><path inkscape:connector-curvature="0" style="opacity:.69778;fill:#008c00" d="M210.973 1017.401c1.355-8.244 6.84-14.992 11.582-20.114-6.095.863-10.313 10.057-12.97 16.963-.27 1.295.255 3.194 1.388 3.151z"/><path inkscape:connector-curvature="0" style="opacity:.69778;fill:#008c00" d="M203.174 1016.15c-1.77-4.331 3.71-16.518 2.745-21.683-3.063 7.841-4.94 13.294-4.393 20.272.358.82 1.098.95 1.648 1.41z"/><path inkscape:connector-curvature="0" style="opacity:.69778;fill:#008c00" d="M195.382 1015.804c-2.64-6.791-5.778-13.654-11.35-16.302 3.088 2.95 6.598 5.9 7.964 11.007.716 2.13 1.536 4.72 3.386 5.295z"/><path inkscape:connector-curvature="0" style="opacity:.69778;fill:#008c00" d="M184.007 1017.099c-2.119-1.324-4.249-8.791-7.219-12.216 3.275 11.28 4.456 12.417 7.22 12.216z"/><path inkscape:connector-curvature="0" style="opacity:.69778;fill:#008c00" d="M198.967 1014.581c-1.326-2.173-1.849-5.698-4.106-6.46 1.224 2.288 1.83 5.726 4.106 6.46z"/><path inkscape:connector-curvature="0" style="opacity:.69778;fill:#008c00" d="M207.207 1010.927c1.072-3.065 2.205-6.13 3.782-8.777-4.394 2.734-5.819 7.237-3.782 8.777z"/><path inkscape:connector-curvature="0" style="opacity:.69778;fill:#008c00" d="M186.984 1010.452c-1.908-3.065-4.166-5.856-6.897-7.453 2.404 1.726 4.4 6.46 6.897 7.453z"/><path inkscape:connector-curvature="0" style="opacity:.69778;fill:#008c00" d="M442.687 1105.594c-1.552-10.114-7.84-18.392-13.273-24.675 6.985 1.059 11.819 12.338 14.865 20.81.308 1.588-.293 3.918-1.592 3.865z"/><path inkscape:connector-curvature="0" style="opacity:.69778;fill:#008c00" d="M451.625 1104.059c2.028-5.313-4.252-20.263-3.146-26.6 3.51 9.62 5.661 16.31 5.035 24.87-.41 1.006-1.259 1.165-1.889 1.73z"/><path inkscape:connector-curvature="0" style="opacity:.69778;fill:#008c00" d="M460.554 1103.635c3.026-8.331 6.623-16.75 13.008-19.998-3.539 3.618-7.56 7.237-9.127 13.503-.82 2.612-1.76 5.789-3.88 6.495z"/><path inkscape:connector-curvature="0" style="opacity:.69778;fill:#008c00" d="M473.59 1105.224c2.429-1.624 4.87-10.785 8.274-14.986-3.753 13.838-5.107 15.233-8.273 14.986z"/><path inkscape:connector-curvature="0" style="opacity:.69778;fill:#008c00" d="M456.446 1102.135c1.52-2.665 2.12-6.99 4.706-7.925-1.403 2.806-2.098 7.025-4.706 7.925z"/><path inkscape:connector-curvature="0" style="opacity:.69778;fill:#008c00" d="M447.003 1097.652c-1.229-3.76-2.527-7.52-4.334-10.767 5.035 3.353 6.668 8.878 4.334 10.767z"/><path inkscape:connector-curvature="0" style="opacity:.69778;fill:#008c00" d="M470.179 1097.07c2.187-3.76 4.775-7.185 7.905-9.144-2.755 2.118-5.043 7.925-7.905 9.143z"/><path inkscape:connector-curvature="0" style="opacity:.69778;fill:#008c00" d="M344.792 960.102c.915-4.505 4.621-8.193 7.824-10.992-4.118.471-6.967 5.496-8.762 9.27-.182.708.173 1.746.938 1.722z"/><path inkscape:connector-curvature="0" style="opacity:.69778;fill:#008c00" d="M339.524 959.418c-1.195-2.367 2.506-9.027 1.854-11.85-2.069 4.286-3.336 7.266-2.967 11.08.242.448.742.519 1.113.77z"/><path inkscape:connector-curvature="0" style="opacity:.69778;fill:#008c00" d="M334.261 959.23c-1.783-3.712-3.903-7.463-7.667-8.91 2.086 1.612 4.457 3.224 5.38 6.016.483 1.164 1.038 2.579 2.287 2.893z"/><path inkscape:connector-curvature="0" style="opacity:.69778;fill:#008c00" d="M326.577 959.937c-1.43-.723-2.87-4.804-4.875-6.676 2.211 6.165 3.01 6.786 4.875 6.676z"/><path inkscape:connector-curvature="0" style="opacity:.69778;fill:#008c00" d="M336.683 958.561c-.896-1.187-1.25-3.114-2.774-3.53.827 1.25 1.237 3.13 2.774 3.53z"/><path inkscape:connector-curvature="0" style="opacity:.69778;fill:#008c00" d="M342.249 956.564c.724-1.675 1.49-3.35 2.554-4.797-2.968 1.494-3.93 3.955-2.554 4.797z"/><path inkscape:connector-curvature="0" style="opacity:.69778;fill:#008c00" d="M328.588 956.304c-1.289-1.675-2.814-3.2-4.659-4.073 1.624.944 2.973 3.53 4.66 4.073z"/><path inkscape:connector-curvature="0" style="opacity:.69778;fill:#008c00" d="M396.941 893.938c-.805-3.437-4.066-6.25-6.884-8.386 3.623.36 6.13 4.193 7.71 7.072.16.54-.152 1.332-.826 1.314z"/><path inkscape:connector-curvature="0" style="opacity:.69778;fill:#008c00" d="M401.576 893.416c1.052-1.806-2.205-6.886-1.631-9.04 1.82 3.27 2.936 5.543 2.61 8.452-.212.342-.652.396-.979.588z"/><path inkscape:connector-curvature="0" style="opacity:.69778;fill:#008c00" d="M406.207 893.272c1.57-2.831 3.434-5.693 6.746-6.796-1.835 1.23-3.921 2.459-4.733 4.589-.426.887-.914 1.967-2.013 2.207z"/><path inkscape:connector-curvature="0" style="opacity:.69778;fill:#008c00" d="M412.968 893.812c1.259-.552 2.525-3.665 4.29-5.093-1.946 4.703-2.648 5.177-4.29 5.093z"/><path inkscape:connector-curvature="0" style="opacity:.69778;fill:#008c00" d="M404.077 892.762c.788-.906 1.098-2.375 2.44-2.693-.728.954-1.088 2.387-2.44 2.693z"/><path inkscape:connector-curvature="0" style="opacity:.69778;fill:#008c00" d="M399.18 891.239c-.638-1.278-1.312-2.556-2.249-3.66 2.612 1.14 3.459 3.018 2.248 3.66z"/><path inkscape:connector-curvature="0" style="opacity:.69778;fill:#008c00" d="M411.198 891.04c1.135-1.277 2.476-2.44 4.1-3.107-1.429.72-2.615 2.694-4.1 3.108z"/><path transform="matrix(.38204 0 0 .36078 143.597 597.796)" d="M-114.29 1192.4a254.29 77.143 0 1 1-508.57 0 254.29 77.143 0 1 1 508.57 0z" style="opacity:.36444002;fill:#323232;filter:url(#n)" inkscape:connector-curvature="0"/><path d="M480.577 863.93c.559.115.704.384 1.168.783.617.682 1.851 2.736 1.713 3.07-.181.603-1.742-2.816-2.881-3.854zm10.51 1.494c-1.33 2.468-1.452 2.657-2.49 2.62.225-.457.856-.827 1.299-1.262.472-.465.726-1.321 1.19-1.358zm-4.668.088c1.51 1.618 1.67 2.199 1.416 2.38-.465.174-.363-.283-1.416-2.38zm-2.83.348c.37-.065.646.493.79.95.378 1.17.386 1.002.131 1.104-.355.13-.348-1.06-.921-2.054zm-2.504-.109c.392.015.595.486.863.922.276.834 1.075 1.35.516 1.379-.566.036-.951-1.314-1.38-2.301zm4.173.32c1.234 1.342 1.495 1.749 1.002 1.807-.32.036-.341-.29-.704-.842-.24-.356-.53-.668-.298-.966z" style="opacity:.69800002;fill:#1e9e00" inkscape:connector-curvature="0"/><path inkscape:connector-curvature="0" style="opacity:.69778;fill:#008c00" d="M178.882 1030.001c1.915-11.65 9.667-21.185 16.367-28.422-8.613 1.22-14.574 14.21-18.33 23.97-.38 1.83.362 4.513 1.963 4.452z"/><path inkscape:connector-curvature="0" style="opacity:.69778;fill:#008c00" d="M167.862 1028.232c-2.5-6.12 5.242-23.34 3.879-30.638-4.329 11.08-6.981 18.785-6.208 28.646.505 1.159 1.551 1.342 2.329 1.992z"/><path inkscape:connector-curvature="0" style="opacity:.69778;fill:#008c00" d="M156.851 1027.744c-3.731-9.596-8.166-19.293-16.039-23.034 4.364 4.167 9.323 8.335 11.254 15.553 1.011 3.009 2.171 6.668 4.785 7.481z"/><path inkscape:connector-curvature="0" style="opacity:.69778;fill:#008c00" d="M140.777 1029.574c-2.994-1.87-6.004-12.422-10.201-17.26 4.627 15.939 6.297 17.545 10.2 17.26z"/><path inkscape:connector-curvature="0" style="opacity:.69778;fill:#008c00" d="M161.917 1026.016c-1.874-3.07-2.613-8.05-5.803-9.128 1.73 3.232 2.587 8.091 5.803 9.128z"/><path inkscape:connector-curvature="0" style="opacity:.69778;fill:#008c00" d="M173.56 1020.852c1.516-4.33 3.117-8.66 5.345-12.401-6.209 3.862-8.223 10.226-5.344 12.401z"/><path inkscape:connector-curvature="0" style="opacity:.69778;fill:#008c00" d="M144.984 1020.181c-2.697-4.33-5.888-8.274-9.747-10.531 3.397 2.44 6.218 9.129 9.747 10.531z"/><path inkscape:connector-curvature="0" style="opacity:.69778;fill:#008c00" d="M388.143 1103.497c-2.174-14.164-10.98-25.757-18.59-34.557 9.784 1.483 16.554 17.279 20.82 29.144.431 2.225-.41 5.487-2.23 5.413z"/><path inkscape:connector-curvature="0" style="opacity:.69778;fill:#008c00" d="M400.66 1101.347c2.84-7.44-5.954-28.378-4.405-37.252 4.916 13.472 7.928 22.84 7.05 34.83-.573 1.408-1.762 1.63-2.644 2.422z"/><path inkscape:connector-curvature="0" style="opacity:.69778;fill:#008c00" d="M413.166 1100.753c4.238-11.667 9.275-23.458 18.217-28.006-4.956 5.067-10.589 10.135-12.782 18.91-1.148 3.658-2.466 8.108-5.435 9.096z"/><path inkscape:connector-curvature="0" style="opacity:.69778;fill:#008c00" d="M431.424 1102.978c3.4-2.274 6.819-15.103 11.586-20.986-5.255 19.38-7.152 21.332-11.586 20.986z"/><path inkscape:connector-curvature="0" style="opacity:.69778;fill:#008c00" d="M407.413 1098.652c2.128-3.732 2.967-9.788 6.59-11.099-1.965 3.93-2.938 9.839-6.59 11.1z"/><path inkscape:connector-curvature="0" style="opacity:.69778;fill:#008c00" d="M394.187 1092.374c-1.72-5.265-3.54-10.53-6.07-15.079 7.052 4.697 9.34 12.434 6.07 15.079z"/><path inkscape:connector-curvature="0" style="opacity:.69778;fill:#008c00" d="M426.645 1091.558c3.063-5.265 6.687-10.06 11.071-12.804-3.859 2.966-7.063 11.098-11.07 12.804z"/><path d="M-11.844 606.59c-.617-6.287 7.41-29.979 8.339-12.289 1.85 5.537 8.702 18.272 9.573 19.464-1.85-5.307-1.089-20.965 1.64-6.702-1.125 11.169 10.64 13.093 16.033 21.743 3.026-9.031-.66 5.153 3.28 5.865-1.451-8.65 7.033-12.252 8.195-1.939-3.172 8.727 8.223-12.38 5.465 1.222-2.061 4.82-1.923 12.885.936 3.29-2.366-5.363 6.119 8.907 10.03 4.382-6.611 11.318 2.178 17.414 11.635 21.759 6.234 5.614-2.758 4.742 3.491 2.294-1.677 7.886-2.235 25.442 9.726 26.115 14.53 3.633 3.237 27.859-8.76 24.339-3.085 6.118-12.804 12.418-3.528 20.38 9.232 12.273 20.14-5.175 10.437-12.919 4.507 11.794-1.539 23.653-2.7 35.47 5.196 7.373-.022 9.87-6.227 7.308-3.81 1.945 2.968 6.176-1.96 3.854-1.648 2.954-4.064-5.494-2.555 3.513-2.344 8.528 12.28 4.979 5.16 15.423-2.569 11.641-15.422 19.894-9.014 33.016-2.388 3.542-3.643-7.164-1.183 1.785-3.244 1.56 2.686 4.137-4.151 2.969-9.733 1.684-7.621 26.898-5.56 23.95 1.894-7.293-1.684-10.85-3.709-1.632-.442 6.125-7.969 8.34-8.956 6.771 7.098 9.915 2.018 9.987-5.124 4.689-4.783 2.46-15.604 19.364-9.181 5.959-.944-4.355-5.487-12.556-3.956-2.78-.493 4.159 10.045 15.212 4.166 7.098-7.795-5.233-19.023-5.059-25.359-8.36 2.62-7.15-7.446 12.287-6.597.282-1.488-6.597 5.392-22.528-.791-8.956-4.682 4.304-14.066 11.54-12.985-.196-2.068-3.237-8.462-3.462-9.732-9.929-4.312 10.967-6.184-17.68-4.58-2.315.9 9.014-10.11 9.675-12.07 16.504-5.53-2.808-10.06-8.412-15.967-8.317-1.452-4.486 2.91-23.124-5.081-12.897-3.883 4.928-2.925 25.547-10.023 20.939-1.103-5.226 3.505-24.714-6.336-15.859 4.442 8.056-2.345-8.811 1.168 1.568-13.216 8.092-18.493-10.234-14.058-20.46-.537-6.677 4.275-13.82-3.165-11.308-.188-7.047-3.767-10.372-8.339-14.784 8.477-7.505-15.19-12.324-8.44-10.597 2.256-6.256 2.343-19.08 4.405-19.27-.283-9.849-6.975-21.766 1.313-27.079-3.614-6.104 1.844-25.38-.559-24.77 4.479.188 6.823-16.791 5.016-23.59-1.241-6.468 11.402-10.685 4.369-2.269-1.227 4.904 7.708-10.635 11.49-13.39 6.597-8.632 3.955 6.43 3.962 2.367 1.843-10.535 2.018-15.587 7.28-24.33 2.598-9.068 10.364 5.233 6.553-2.348 11.562 4.804 18.007 3.443 17.536 3.433 4.216 4.213 4.884 11.16 6.321 6.654.407 9.054-7.178-1.043-4.398-6.675-4.464-9.15 2.025-27.206 9.805-23.064 1.474 12.217 6.888 3.214 4.573-4.17-2.127-11.57 1.168 6.836 3.687-4.217 6.292-5.521 9.74-16.11 7.853-25.795 6.205 2.659 6.147 17.047 14.095 10.006 5.08-1.54 19.53 6.35 7.526 5.88-7.105-1.155-14.088-5.195-3.847-7.893 1.27-.705 2.555-1.392 3.89-1.964" style="fill:url(#q)" inkscape:connector-curvature="0"/><path inkscape:connector-curvature="0" style="opacity:.69778;fill:#008c00" d="M433.702 986.159c1.6-10.425 8.082-18.958 13.683-25.435-7.2 1.091-12.184 12.717-15.323 21.45-.318 1.638.302 4.04 1.64 3.985z"/><path inkscape:connector-curvature="0" style="opacity:.69778;fill:#008c00" d="M424.49 984.576c-2.091-5.476 4.382-20.887 3.242-27.418-3.618 9.915-5.836 16.81-5.19 25.635.423 1.037 1.297 1.2 1.947 1.783z"/><path inkscape:connector-curvature="0" style="opacity:.69778;fill:#008c00" d="M415.284 984.14c-3.119-8.588-6.826-17.267-13.408-20.614 3.648 3.73 7.794 7.46 9.408 13.918.845 2.693 1.815 5.968 4 6.695z"/><path inkscape:connector-curvature="0" style="opacity:.69778;fill:#008c00" d="M401.846 985.777c-2.503-1.674-5.02-11.117-8.528-15.447 3.868 14.264 5.264 15.702 8.528 15.447z"/><path inkscape:connector-curvature="0" style="opacity:.69778;fill:#008c00" d="M419.52 982.593c-1.567-2.747-2.185-7.205-4.852-8.17 1.447 2.894 2.163 7.242 4.851 8.17z"/><path inkscape:connector-curvature="0" style="opacity:.69778;fill:#008c00" d="M429.254 977.972c1.266-3.876 2.605-7.751 4.468-11.099-5.191 3.457-6.875 9.152-4.468 11.099z"/><path inkscape:connector-curvature="0" style="opacity:.69778;fill:#008c00" d="M405.363 977.371c-2.254-3.875-4.922-7.405-8.148-9.424 2.84 2.183 5.198 8.169 8.148 9.424z"/></g></svg>