<!--Created with Inkscape (http://www.inkscape.org/)--><svg xmlns:dc="http://purl.org/dc/elements/1.1/" xmlns:cc="http://creativecommons.org/ns#" xmlns:rdf="http://www.w3.org/1999/02/22-rdf-syntax-ns#" xmlns="http://www.w3.org/2000/svg" xmlns:sodipodi="http://sodipodi.sourceforge.net/DTD/sodipodi-0.dtd" xmlns:inkscape="http://www.inkscape.org/namespaces/inkscape" width="43.409439" height="55.736301" viewBox="0 0 43.40944 55.736302" inkscape:version="0.91 r13725" sodipodi:docname="photo10_3.svg"><sodipodi:namedview pagecolor="#ffffff" bordercolor="#666666" borderopacity="1.0" inkscape:pageopacity="0.0" inkscape:pageshadow="2" inkscape:zoom="0.7" inkscape:cx="-40.271563" inkscape:cy="420.75897" inkscape:document-units="px" inkscape:current-layer="layer1-3" showgrid="false" units="px" inkscape:window-width="812" inkscape:window-height="1004" inkscape:window-x="57" inkscape:window-y="21" inkscape:window-maximized="0" showguides="true" inkscape:guide-bbox="true" fit-margin-top="0" fit-margin-left="0" fit-margin-right="0" fit-margin-bottom="0"><sodipodi:guide position="-362.1498,29.929197" orientation="1,0"/></sodipodi:namedview><metadata><rdf:RDF><cc:Work><dc:format>image/svg+xml</dc:format><dc:type rdf:resource="http://purl.org/dc/dcmitype/StillImage"/><dc:title/></cc:Work></rdf:RDF></metadata><g inkscape:label="Layer 1" inkscape:groupmode="layer"><path d="m296.78 1160.793-24.386 19.388 24.14-6.496.246-12.892z" style="fill:#c00;fill-rule:evenodd" inkscape:connector-curvature="0" transform="translate(-272.14 -1160.147)"/><path d="M295.815 1160.676c-.225 6.102.254 11.249.03 12.889l18.31 7.633-18.34-20.522z" style="fill:#c00;fill-rule:evenodd" inkscape:connector-curvature="0" transform="translate(-272.14 -1160.147)"/><path d="m273.098 1180.37 23.465-7.711 18.42 7.745-15.532 7.732-26.353-7.765z" style="fill:#2b2b25;fill-rule:evenodd" inkscape:connector-curvature="0" transform="translate(-272.14 -1160.147)"/><path d="m295.278 1160.147 20.271 19.952-19.11-7.858-24.3 8.282 23.139-20.376zm.806 11.9-.726-11.31m-22.74 19.726 7.709 2.15 30.875.14 4.18-2.473" style="fill:none" inkscape:connector-curvature="0" transform="translate(-272.14 -1160.147)"/><path d="m280.385 1181.205-1.082 28.57 20.903-6.594-3.593-27.02-16.228 5.044z" style="fill:#eeeeec;fill-rule:evenodd" inkscape:connector-curvature="0" transform="translate(-272.14 -1160.147)"/><path d="m312.269 1208.749-1.074-27.286-14.059-5.01.95 26.733 14.183 5.563z" style="fill:#888a85;fill-rule:evenodd" inkscape:connector-curvature="0" transform="translate(-272.14 -1160.147)"/><path d="m280.443 1209.908 17.165-6.722 15.162 6.065-21.208 6.516-11.12-5.859z" style="fill:#888a85;fill-rule:evenodd" inkscape:connector-curvature="0" transform="translate(-272.14 -1160.147)"/><path d="m279.405 1209.924 11.947 5.96 21.17-6.339-1.436-28.132-14.073-5.429-16.715 5.095-.893 28.845zm18.225-7.173-.733-26.705m15.539 33.298-14.944-6.471-17.753 7.026" style="fill:none" inkscape:connector-curvature="0" transform="translate(-272.14 -1160.147)"/><path d="M288.376 1180.253c-2.497.645-4.55 2.757-4.587 4.709-.007.136-.007.267-.007.4l-.153 9.66 9.007-2.326s.124-6.88.182-9.83v-.04c.007-.068 0-.131.007-.198.036-1.952-1.953-3.021-4.45-2.376z" style="fill:#2b2b25" inkscape:connector-curvature="0" transform="translate(-272.14 -1160.147)"/><path d="M289.784 1180.11c-2.105.844-3.716 2.684-3.745 4.384 0 .134-.007.268-.007.4l-.13 9.507-2.236.607c-.037-1.779.094-3.503.065-5.025-.044-2.572-.094-4.25.152-5.717.225-1.33 2.62-4.252 5.901-4.156z" style="fill:#ccc" inkscape:connector-curvature="0" transform="translate(-272.14 -1160.147)"/></g></svg>