<?xml version="1.0" encoding="UTF-8" standalone="no"?>
<!-- Created with Inkscape (http://www.inkscape.org/) -->

<svg
   xmlns:dc="http://purl.org/dc/elements/1.1/"
   xmlns:cc="http://creativecommons.org/ns#"
   xmlns:rdf="http://www.w3.org/1999/02/22-rdf-syntax-ns#"
   xmlns:svg="http://www.w3.org/2000/svg"
   xmlns="http://www.w3.org/2000/svg"
   xmlns:xlink="http://www.w3.org/1999/xlink"
   xmlns:sodipodi="http://sodipodi.sourceforge.net/DTD/sodipodi-0.dtd"
   xmlns:inkscape="http://www.inkscape.org/namespaces/inkscape"
   width="14.871754mm"
   height="12.420395mm"
   viewBox="0 0 52.69519 44.009273"
   id="svg2"
   version="1.1"
   inkscape:version="0.91 r13725"
   sodipodi:docname="photo4_4.svg">
  <defs
     id="defs4">
    <linearGradient
       id="linearGradient3395">
      <stop
         id="stop3397"
         stop-color="#44b600"
         offset="0" />
      <stop
         id="stop3399"
         stop-color="#250"
         offset="1" />
    </linearGradient>
    <linearGradient
       id="linearGradient3541">
      <stop
         id="stop3543"
         stop-color="#338000"
         offset="0" />
      <stop
         id="stop3545"
         stop-color="#55d400"
         offset="1" />
    </linearGradient>
    <linearGradient
       id="linearGradient15985"
       y2="1236.3"
       gradientUnits="userSpaceOnUse"
       x2="545.92999"
       gradientTransform="matrix(-0.94988,0,0,0.96977,1603.5,-799.56)"
       y1="1193.7"
       x1="590.07001">
      <stop
         id="stop3551"
         stop-color="#55d400"
         offset="0" />
      <stop
         id="stop3553"
         stop-color="#0a0"
         offset="1" />
    </linearGradient>
    <linearGradient
       id="linearGradient15995"
       y2="1203.2"
       gradientUnits="userSpaceOnUse"
       x2="427.17999"
       gradientTransform="matrix(-0.94988,0,0,0.96977,1481.2,-632.94)"
       y1="1237.3"
       x1="482.35999">
      <stop
         id="stop3429"
         stop-color="#207b04"
         offset="0" />
      <stop
         id="stop3431"
         stop-color="#00d400"
         offset="1" />
    </linearGradient>
    <linearGradient
       id="linearGradient15997"
       y2="1124.3"
       gradientUnits="userSpaceOnUse"
       x2="343.64001"
       gradientTransform="matrix(-0.94988,0,0,0.96977,1492.2,-640.58)"
       y1="1162.7"
       x1="362.54999">
      <stop
         id="stop3527"
         stop-color="#207b04"
         offset="0" />
      <stop
         id="stop3529"
         stop-color="#55d400"
         offset="1" />
    </linearGradient>
    <linearGradient
       id="linearGradient15999"
       y2="1238.4"
       gradientUnits="userSpaceOnUse"
       x2="316.22"
       gradientTransform="matrix(-0.67516,0.68215,0.66816,0.6893,642.64,-584.21)"
       y1="1035"
       x1="385.14999">
      <stop
         id="stop3405"
         stop-color="#44b600"
         offset="0" />
      <stop
         id="stop3407"
         stop-color="#9f5"
         offset="1" />
    </linearGradient>
    <linearGradient
       y2="1236.3"
       x2="545.92999"
       y1="1193.7"
       x1="590.07001"
       gradientTransform="matrix(-0.94988,0,0,0.96977,1603.5,-799.56)"
       gradientUnits="userSpaceOnUse"
       id="linearGradient6662"
       xlink:href="#linearGradient15985"
       inkscape:collect="always" />
    <linearGradient
       y2="1156.7"
       x2="417.45001"
       y1="1060.2"
       x1="440.85001"
       gradientTransform="matrix(-0.3645,-0.89553,-0.87716,0.37213,2321.7,406.73)"
       gradientUnits="userSpaceOnUse"
       id="linearGradient6664"
       xlink:href="#linearGradient3395"
       inkscape:collect="always" />
    <linearGradient
       y2="1089.7"
       x2="183.38"
       y1="1131.7"
       x1="209.13"
       gradientTransform="matrix(-0.50214,0.32735,0.26414,0.6223,842.9,-274.17)"
       gradientUnits="userSpaceOnUse"
       id="linearGradient6666"
       xlink:href="#linearGradient3541"
       inkscape:collect="always" />
    <linearGradient
       y2="1156.7"
       x2="417.45001"
       y1="1060.2"
       x1="440.85001"
       gradientTransform="matrix(-0.9447,0.10116,0.099083,0.96448,1371.8,-676.31)"
       gradientUnits="userSpaceOnUse"
       id="linearGradient6668"
       xlink:href="#linearGradient3395"
       inkscape:collect="always" />
    <linearGradient
       y2="1089.7"
       x2="183.38"
       y1="1131.7"
       x1="209.13"
       gradientTransform="matrix(-0.94988,0,0,0.96977,1406.9,-609.5)"
       gradientUnits="userSpaceOnUse"
       id="linearGradient6670"
       xlink:href="#linearGradient3541"
       inkscape:collect="always" />
    <linearGradient
       y2="1203.2"
       x2="427.17999"
       y1="1237.3"
       x1="482.35999"
       gradientTransform="matrix(-0.94988,0,0,0.96977,1481.2,-632.94)"
       gradientUnits="userSpaceOnUse"
       id="linearGradient6672"
       xlink:href="#linearGradient15995"
       inkscape:collect="always" />
    <linearGradient
       y2="1124.3"
       x2="343.64001"
       y1="1162.7"
       x1="362.54999"
       gradientTransform="matrix(-0.94988,0,0,0.96977,1492.2,-640.58)"
       gradientUnits="userSpaceOnUse"
       id="linearGradient6674"
       xlink:href="#linearGradient15997"
       inkscape:collect="always" />
    <linearGradient
       y2="1238.4"
       x2="316.22"
       y1="1035"
       x1="385.14999"
       gradientTransform="matrix(-0.67516,0.68215,0.66816,0.6893,642.64,-584.21)"
       gradientUnits="userSpaceOnUse"
       id="linearGradient6676"
       xlink:href="#linearGradient15999"
       inkscape:collect="always" />
  </defs>
  <sodipodi:namedview
     id="base"
     pagecolor="#ffffff"
     bordercolor="#666666"
     borderopacity="1.0"
     inkscape:pageopacity="0.0"
     inkscape:pageshadow="2"
     inkscape:zoom="7.919596"
     inkscape:cx="-29.846876"
     inkscape:cy="26.902228"
     inkscape:document-units="px"
     inkscape:current-layer="layer1"
     showgrid="false"
     inkscape:window-width="1920"
     inkscape:window-height="1176"
     inkscape:window-x="1680"
     inkscape:window-y="24"
     inkscape:window-maximized="1"
     fit-margin-top="0"
     fit-margin-left="0"
     fit-margin-right="0"
     fit-margin-bottom="0" />
  <metadata
     id="metadata7">
    <rdf:RDF>
      <cc:Work
         rdf:about="">
        <dc:format>image/svg+xml</dc:format>
        <dc:type
           rdf:resource="http://purl.org/dc/dcmitype/StillImage" />
        <dc:title />
      </cc:Work>
    </rdf:RDF>
  </metadata>
  <g
     inkscape:label="Layer 1"
     inkscape:groupmode="layer"
     id="layer1"
     transform="translate(-168.2038,88.183173)">
    <g
       style="fill-rule:evenodd;stroke-opacity:0"
       id="g16001"
       transform="matrix(0.17284941,0,0,0.17284941,0.04876273,-151.59905)">
      <path
         style="fill:url(#linearGradient6662)"
         inkscape:connector-curvature="0"
         id="path16003"
         d="m 1073.4,407.12 c -1.503,3.0831 -2.2434,7.953 -5.9872,5.7862 l 0.5987,-8.9424 -5.9872,2.1041 -0.2994,-9.9945 c -7.0669,-6.7692 -0.7471,-7.2758 0.8981,-8.9423 l 2.3949,-3.1561 2.9936,2.104 c -0.8475,-5.4235 -1.7847,-10.985 3.5924,-6.8383 -2.7307,-10.386 1.0027,-4.5464 3.5923,-1.578 -2.0248,-6.4533 -3.4279,-10.564 2.3949,-7.3644 1.7423,-6.9579 2.6185,-1.7406 3.5924,2.1042 6.9796,-10.526 4.4715,0.62172 3.8917,7.3643 4.3084,-3.5408 7.4703,-4.8657 3.8917,6.8383 9.8308,-5.8229 4.306,2.7445 2.9936,7.3642 1.022,5.1363 15.961,6.197 0,16.307 0.9563,15.072 -2.8804,9.0891 -6.586,3.6821 2.3159,12.912 -0.4773,8.9918 -4.4904,1.0521 -2.9525,3.8366 -5.0817,5.5035 -3.293,-3.1562 -4.2748,6.8496 -4.6593,2.3064 -4.1911,-4.7342 z" />
      <path
         style="fill:url(#linearGradient6664)"
         inkscape:connector-curvature="0"
         id="path16005"
         d="m 1164,449.97 c -11.205,-18.508 4.8067,-7.7656 4.8067,-7.7656 -4.545,-2.7833 -8.4844,-5.5961 -1.8112,-8.9258 -11.935,-2.8842 -7.085,-10.806 -3.6442,-14.589 l 6.7617,2.9916 c -6.9577,-16.022 0.6233,-13.193 8.7035,-7.6589 -6.7003,-5.7506 -7.0162,-8.7183 1.611,-7.7878 -2.9757,-2.3086 -9.0534,-4.3637 1.6109,-7.7878 -7.2168,-5.9067 -5.3792,-9.0333 2.9521,-10.166 -4.5312,-5.6441 -5.7357,-9.5961 2.9302,-6.9033 l 6.3915,0.0446 c 2.2506,-5.2441 4.5211,-10.368 9.5047,0.78241 1.8322,-9.9198 2.3783,-6.717 6.165,-1.0712 10.699,-11.019 9.6116,-1.7665 11.442,2.4671 3.7037,1.0033 -3.5492,11.72 -2.0247,11.366 10.832,-2.5106 10.543,10.011 6.1609,11.264 1.4398,-0.58128 12.414,4.4635 4.7587,11.095 -11.031,9.5564 1.436,12.682 0.3875,12.019 l 5.8125,5.0542 0.5746,7.3256 -9.6701,0.64888 c 9.1468,3.2146 5.9881,9.9759 -2.9302,6.9032 -5.068,-1.7462 9.4644,0.4457 1.9157,4.9473 -12.236,7.297 -1.2945,10.665 -5.2595,5.5342 -2.4636,4.8926 -5.6047,4.389 -9.0519,1.449 0.5784,7.6466 0.1706,12.693 -5.7123,3.3027 -0.8768,4.6325 -0.5386,11.704 -7.2798,4.565 -1.8396,9.8625 -5.6623,3.9301 -9.4219,-1.498 3.484,11.772 -0.4625,10.477 -6.3523,5.7653 -4.3193,5.8566 -7.5339,7.7024 -6.9882,-4.1073 l -7.1752,0.58662 c -3.4853,1.661 -8.1744,6.563 -6.4307,-5.8541 -10.617,-0.86572 -10.25,-5.4368 -6.1607,-11.264 -2.1916,-11.495 3.1369,-5.9324 7.4235,-2.7337 z" />
      <path
         style="fill:#4bbe01"
         inkscape:connector-curvature="0"
         id="path16007"
         d="m 1192.8,525.2 c -2.5059,2.9867 -3.7403,7.7042 -9.9822,5.6051 l 0.9982,-8.6625 -9.9822,2.0383 -0.4991,-9.6816 c -11.782,-6.5574 -1.2455,-7.0481 1.4974,-8.6625 l 3.9928,-3.0574 4.9911,2.0383 c -1.4129,-5.2538 -2.9756,-10.641 5.9893,-6.6242 -4.5526,-10.061 1.6719,-4.4043 5.9893,-1.5288 -3.3758,-6.2512 -5.7151,-10.233 3.9929,-7.1338 2.9049,-6.7402 4.3657,-1.6862 5.9893,2.0382 11.637,-10.196 7.4551,0.60242 6.4884,7.1339 7.1832,-3.43 12.455,-4.7132 6.4884,6.6243 16.39,-5.6408 7.1792,2.6586 4.9911,7.1338 1.7039,4.9755 26.61,6.003 0,15.796 1.5944,14.601 -4.8023,8.8048 -10.98,3.5669 3.8611,12.508 -0.7958,8.7104 -7.4866,1.0191 -4.9225,3.7167 -8.4724,5.3312 -5.4902,-3.0573 -7.1271,6.6352 -7.7682,2.2342 -6.9875,-4.5861 z" />
      <path
         style="fill:#44b600"
         inkscape:connector-curvature="0"
         id="path16009"
         d="m 1263.6,480.87 c -2.431,21.616 -8.4849,3.0574 -8.4849,3.0574 1.8798,5.059 3.2664,9.7585 -3.9929,8.1529 7.6207,9.8114 -0.9928,12.964 -5.9893,13.758 l -3.4937,-6.6243 c -4.257,16.978 -8.4929,9.9637 -11.48,0.50961 1.7718,8.7516 0.2195,11.281 -5.9893,5.0956 0.9357,3.6942 4.4606,9.1507 -5.9893,5.0956 2.0827,9.2008 -1.2567,10.494 -8.4849,6.1147 0.1336,7.2964 -1.3183,11.161 -6.4884,3.5669 l -4.991,-4.0764 c -4.9483,2.694 -9.8393,5.2811 -6.9876,-6.6243 -7.4564,6.6296 -5.9421,3.7697 -5.4902,-3.0573 -15.084,1.8859 -8.6177,-4.6907 -7.4866,-9.1721 -2.2991,-3.1298 9.8963,-6.9568 8.4849,-7.6434 -10.027,-4.8779 -2.2047,-14.526 1.9964,-12.739 -1.483,-0.45415 -7.0382,-11.354 2.9947,-11.72 14.458,-0.52755 6.5661,-10.865 6.9875,-9.6816 l -1.4974,-7.6434 3.9929,-6.1147 7.9857,5.6051 c -5.231,-8.3076 1.3507,-11.618 6.4885,-3.5669 2.9196,4.5755 -7.1602,-6.3346 1.4973,-5.0956 14.033,2.0084 7.4866,-7.5548 7.4866,-1.0191 4.9023,-2.2834 7.0629,0.0981 7.9857,4.5861 4.1848,-6.3692 7.5662,-10.073 6.4884,1.0191 3.4988,-3.0826 7.5231,-8.8483 8.4849,1.0191 7.4273,-6.58 6.8297,0.49487 6.4884,7.1339 4.406,-11.445 6.7191,-7.9332 8.4848,-0.50962 6.944,-1.8669 10.588,-1.2834 2.9947,7.6434 l 5.9893,4.0765 c 3.744,0.89976 10.399,0.0165 1.4973,8.6625 7.8103,7.393 4.7493,10.75 -1.9964,12.739 -5.2528,10.411 -6.0618,2.674 -7.4866,-2.5478 z" />
      <path
         style="fill:#207b04"
         inkscape:connector-curvature="0"
         id="path16011"
         d="m 1081.5,441.12 c -2.5059,2.9866 -3.7403,7.7041 -9.9822,5.6051 l 0.9983,-8.6625 -9.9822,2.0383 -0.4991,-9.6816 c -11.782,-6.5574 -1.2456,-7.0481 1.4973,-8.6625 l 3.9929,-3.0574 4.9911,2.0383 c -1.413,-5.2538 -2.9756,-10.641 5.9892,-6.6242 -4.5525,-10.061 1.6719,-4.4043 5.9893,-1.5288 -3.3758,-6.2513 -5.715,-10.233 3.9929,-7.1339 2.9049,-6.7401 4.3657,-1.6862 5.9893,2.0383 11.637,-10.196 7.4551,0.60233 6.4884,7.1339 7.1832,-3.43 12.455,-4.7133 6.4884,6.6242 16.39,-5.6407 7.1792,2.6586 4.9911,7.1339 1.7039,4.9755 26.61,6.003 0,15.796 1.5945,14.601 -4.8022,8.8048 -10.98,3.5669 3.8611,12.508 -0.7957,8.7104 -7.4866,1.0191 -4.9225,3.7167 -8.4723,5.3312 -5.4902,-3.0573 -7.127,6.6352 -7.7681,2.2342 -6.9875,-4.5861 z" />
      <path
         style="fill:#207b04"
         inkscape:connector-curvature="0"
         id="path16013"
         d="m 1195.2,435.01 c -2.4309,21.616 -8.4848,3.0574 -8.4848,3.0574 1.8798,5.059 3.2663,9.7584 -3.9929,8.1529 7.6207,9.8114 -0.9928,12.964 -5.9893,13.758 l -3.4937,-6.6243 c -4.2571,16.978 -8.4929,9.9637 -11.48,0.50962 1.7718,8.7516 0.2194,11.281 -5.9893,5.0956 0.9356,3.6942 4.4605,9.1507 -5.9893,5.0956 2.0827,9.2008 -1.2567,10.494 -8.4849,6.1147 0.1335,7.2964 -1.3183,11.161 -6.4884,3.5669 l -4.9911,-4.0764 c -4.9482,2.694 -9.8393,5.2811 -6.9875,-6.6243 -7.4565,6.6296 -5.9421,3.7697 -5.4902,-3.0573 -15.084,1.8859 -8.6177,-4.6907 -7.4866,-9.1721 -2.2992,-3.1298 9.8962,-6.9568 8.4848,-7.6434 -10.027,-4.8779 -2.2047,-14.526 1.9965,-12.739 -1.483,-0.45414 -7.0382,-11.354 2.9946,-11.72 14.458,-0.52756 6.5661,-10.865 6.9875,-9.6816 l -1.4973,-7.6434 3.9929,-6.1147 7.9857,5.6051 c -5.2311,-8.3076 1.3507,-11.618 6.4884,-3.5669 2.9196,4.5755 -7.1601,-6.3346 1.4973,-5.0956 14.034,2.0084 7.4867,-7.5548 7.4867,-1.0191 4.9022,-2.2834 7.0629,0.0981 7.9857,4.5861 4.1847,-6.3692 7.5662,-10.073 6.4884,1.0191 3.4987,-3.0826 7.523,-8.8483 8.4848,1.0191 7.4274,-6.58 6.8298,0.49488 6.4885,7.1339 4.4059,-11.445 6.719,-7.9332 8.4848,-0.50962 6.944,-1.8669 10.588,-1.2834 2.9946,7.6434 l 5.9893,4.0765 c 3.744,0.89976 10.399,0.0165 1.4974,8.6625 7.8103,7.393 4.7493,10.75 -1.9965,12.739 -5.2527,10.411 -6.0618,2.6741 -7.4866,-2.5478 z" />
      <path
         style="fill:#4bbe01"
         inkscape:connector-curvature="0"
         id="path16015"
         d="m 1207.2,473.73 c -2.5059,2.9867 -3.7403,7.7042 -9.9822,5.6052 l 0.9983,-8.6625 -9.9822,2.0382 -0.4991,-9.6816 c -11.782,-6.5575 -1.2456,-7.0482 1.4973,-8.6626 l 3.9929,-3.0573 4.9911,2.0383 c -1.413,-5.2538 -2.9756,-10.641 5.9893,-6.6243 -4.5526,-10.061 1.6718,-4.4043 5.9893,-1.5287 -3.3759,-6.2513 -5.7151,-10.233 3.9928,-7.1338 2.9049,-6.7402 4.3657,-1.6862 5.9893,2.0383 11.637,-10.196 7.4551,0.60233 6.4884,7.1338 7.1832,-3.4299 12.455,-4.7132 6.4884,6.6243 16.39,-5.6407 7.1792,2.6585 4.9911,7.1338 1.7039,4.9755 26.61,6.0029 0,15.796 1.5945,14.6 -4.8022,8.8048 -10.98,3.5669 3.8611,12.508 -0.7957,8.7103 -7.4866,1.0191 -4.9225,3.7166 -8.4723,5.3312 -5.4902,-3.0574 -7.127,6.6353 -7.7681,2.2342 -6.9875,-4.5861 z" />
      <path
         style="fill:#4bbe01"
         inkscape:connector-curvature="0"
         id="path16017"
         d="m 1082.9,521.63 c -2.5058,2.9866 -3.7403,7.7041 -9.9821,5.6051 l 0.9982,-8.6625 -9.9822,2.0383 -0.4991,-9.6816 c -11.782,-6.5574 -1.2456,-7.0482 1.4973,-8.6625 l 3.9929,-3.0574 4.9911,2.0383 c -1.413,-5.2538 -2.9756,-10.641 5.9893,-6.6243 -4.5526,-10.061 1.6718,-4.4042 5.9893,-1.5286 -3.3759,-6.2513 -5.7151,-10.233 3.9928,-7.1339 2.9049,-6.7402 4.3657,-1.6862 5.9893,2.0383 11.637,-10.196 7.4551,0.60233 6.4885,7.1339 7.1831,-3.43 12.455,-4.7133 6.4884,6.6242 16.39,-5.6407 7.1791,2.6586 4.991,7.1339 1.7039,4.9755 26.61,6.003 0,15.796 1.5945,14.6 -4.8022,8.8048 -10.98,3.5669 3.8611,12.508 -0.7958,8.7104 -7.4867,1.0191 -4.9224,3.7167 -8.4723,5.3312 -5.4902,-3.0574 -7.127,6.6353 -7.7681,2.2343 -6.9875,-4.586 z" />
      <path
         style="fill:#44b600"
         inkscape:connector-curvature="0"
         id="path16019"
         d="m 1235.8,479.14 c -11.362,18.408 -8.9447,-0.99644 -8.9447,-0.99644 -0.4521,5.3912 -1.1962,10.24 -7.0579,5.5827 2.706,12.213 -6.3949,11.245 -11.235,9.752 l -0.3385,-7.5157 c -11.04,13.42 -11.882,5.2248 -10.563,-4.6172 -2.116,8.6716 -4.5884,10.265 -7.5601,1.9442 -0.724,3.7434 0.1381,10.22 -7.5602,1.9442 -2.0264,9.2139 -5.5848,8.9023 -10.242,1.7591 -2.9753,6.6355 -5.9234,9.4765 -7.3615,0.34573 l -2.7691,-5.8814 c -5.6029,0.24002 -11.109,0.40886 -3.4875,-9.0607 -9.5334,2.678 -6.9551,0.77 -3.6513,-5.1834 -14.396,-4.9709 -5.7772,-8.0388 -2.8565,-11.578 -0.7444,-3.8376 11.871,-1.894 10.89,-3.1369 -6.9679,-8.8307 4.1758,-14.068 7.2042,-10.599 -1.144,-1.0651 -1.5266,-13.346 7.6715,-9.239 13.255,5.9182 10.528,-6.889 10.406,-5.6362 l 1.8933,-7.5513 6.1932,-3.7457 4.8196,8.5836 c -1.1903,-9.8011 6.1467,-9.8747 7.3615,-0.34563 0.6902,5.4151 -3.7661,-8.8759 3.5114,-3.9306 11.797,8.0161 9.9532,-3.4988 7.1803,2.3921 5.3873,0.10978 6.3243,3.2118 5.252,7.665 6.474,-3.8902 11.093,-5.7331 5.4157,3.7878 4.4613,-1.2312 10.535,-4.6484 7.2152,4.6707 9.4861,-2.6461 5.9458,3.4663 2.8215,9.2992 8.827,-8.3672 9.4219,-4.179 7.8638,3.2929 7.0508,1.3881 10.087,3.5253 -0.5437,8.2135 l 3.6688,6.3228 c 2.9927,2.4666 9.3661,4.6134 -2.3257,8.4698 3.9031,10.117 -0.2801,11.789 -7.2041,10.599 -9.1512,7.0604 -6.5981,-0.27047 -5.6669,-5.6071 z" />
      <path
         style="fill:#a05a2c"
         inkscape:connector-curvature="0"
         id="path16021"
         d="m 1156.3,612.81 -7.9892,-37.673 2.4956,-38.727 c 8.3176,-11.635 20.244,-21.429 44.421,-24.968 7.6583,-1.375 13.53,2.7222 19.964,5.0956 l -7.9858,-8.1529 16.97,-11.21 1.4973,-11.21 c -9.6064,18.954 -25.829,15.954 -40.428,18.344 l 20.962,-30.574 -4.492,-4.586 c -3.2056,12.54 -9.1907,17.986 -14.973,23.949 -8.7933,-5.46 -17.106,-11.411 -21.961,-20.892 l -2.9946,7.6434 19.465,17.835 c -7.7084,11.024 -16.433,-1.3355 -22.959,8.153 -7.6176,-10.209 -9.4903,-23.351 -11.979,-36.179 l -7.4866,5.0956 13.476,33.631 -9.9822,13.758 c -16.127,-21.375 -29.242,-50.949 -48.913,-62.676 l -7.4866,8.6625 c 21.557,13.18 19.871,24.203 28.449,36.179 l -11.979,25.988 c -14.185,-8.7766 -34.349,-15.482 -42.424,-28.535 l -2.9947,-19.363 -4.9911,-8.1529 1.9965,23.949 c -10.481,5.5108 -20.963,-2.4434 -31.444,-7.1338 l -1.4973,5.0956 c 20.698,0.24749 87.231,56.795 82.852,49.427 -5.0308,-8.4633 -11.566,73.412 -13.975,72.358 39.989,-3.4136 46.656,8.3623 66.385,-5.1304 z" />
      <path
         style="fill:#44b600"
         inkscape:connector-curvature="0"
         id="path16023"
         d="m 1061.7,484.24 c -11.362,18.408 -8.9448,-0.99645 -8.9448,-0.99645 -0.452,5.3912 -1.1961,10.24 -7.0578,5.5827 2.706,12.213 -6.3949,11.245 -11.235,9.752 l -0.3385,-7.5157 c -11.04,13.42 -11.882,5.2248 -10.563,-4.6172 -2.116,8.6716 -4.5884,10.265 -7.5601,1.9442 -0.724,3.7434 0.1381,10.22 -7.5602,1.9442 -2.0264,9.2139 -5.5848,8.9023 -10.242,1.7591 -2.9753,6.6355 -5.9234,9.4765 -7.3615,0.34572 l -2.7691,-5.8814 c -5.603,0.24002 -11.109,0.40886 -3.4875,-9.0607 -9.5334,2.678 -6.9551,0.77 -3.6513,-5.1834 -14.396,-4.9709 -5.7772,-8.0388 -2.8564,-11.578 -0.74444,-3.8376 11.871,-1.894 10.89,-3.1369 -6.968,-8.8307 4.1758,-14.068 7.2042,-10.599 -1.144,-1.0651 -1.5266,-13.346 7.6715,-9.239 13.255,5.9182 10.528,-6.889 10.406,-5.6362 l 1.8933,-7.5514 6.1931,-3.7457 4.8197,8.5836 c -1.1903,-9.8011 6.1467,-9.8747 7.3614,-0.34563 0.6903,5.4151 -3.766,-8.8759 3.5115,-3.9306 11.797,8.0161 9.9532,-3.4988 7.1802,2.3922 5.3874,0.10978 6.3244,3.2118 5.2521,7.665 6.474,-3.8902 11.093,-5.7331 5.4157,3.7878 4.4613,-1.2312 10.535,-4.6484 7.2152,4.6707 9.4861,-2.6461 5.9458,3.4663 2.8215,9.2992 8.827,-8.3672 9.4219,-4.179 7.8638,3.2929 7.0508,1.3881 10.087,3.5253 -0.5437,8.2135 l 3.6688,6.3228 c 2.9927,2.4666 9.3661,4.6134 -2.3257,8.4698 3.9031,10.117 -0.2801,11.789 -7.2041,10.599 -9.1513,7.0604 -6.5982,-0.27047 -5.6669,-5.6071 z" />
      <g
         id="g16025"
         transform="matrix(-0.94988,0,0,0.96977,1465.3,-344.02)">
        <path
           style="fill:#c87137"
           inkscape:connector-curvature="0"
           id="path16027"
           d="m 328.92,991.37 c 3.8084,-3.6781 9.3636,-58.28 7.3668,-58.28 -2.9894,-13.661 -4.0691,-27.323 -13.661,-40.984 -11.644,-3.4296 -22.784,-9.3857 -35.73,-6.3053 l -19.967,-9.9834 15.238,2.1018 -16.289,-31.527 21.018,31.527 c 0,0 2.6272,-18.39 2.1018,-16.289 -0.52545,2.1018 1.5763,15.763 1.5763,15.763 23.183,3.8532 29.977,7.7065 43.086,11.56 l 8.4071,43.086 -5.7799,39.934 c 7.2809,8.1821 6.5799,15.224 4.184,22.025 l -11.551,-2.6272 z" />
        <path
           style="fill:#d38d5f"
           inkscape:connector-curvature="0"
           id="path16029"
           d="m 347.32,991.94 c 0,0 -6.7412,-80.153 -4.2035,-83.545 3.9891,-5.3322 -23.169,-44.782 -23.645,-44.663 -5.9977,-3.4175 -8.3306,-12.063 -16.814,-10.509 l -26.798,3.1526 15.763,-6.3053 c -0.92559,-8.0318 -11.399,-11.29 -17.34,-16.814 l 18.39,7.8816 c 5.4554,-6.8771 -0.92658,-15.445 -4.729,-23.645 11.752,8.9325 13.555,17.865 17.34,26.798 22.17,10.407 34.596,30.559 45.713,52.019 -7.6207,36.993 -2.5271,63.814 -3.6781,95.63 z" />
        <path
           style="fill:#c87137"
           inkscape:connector-curvature="0"
           id="path16031"
           d="m 347.85,991.89 c 0.52544,-2.6272 0.52011,-32.006 0.52011,-32.006 l 2.6272,-12.611 c 0,0 -5.2544,-4.2035 -3.6781,-6.3053 1.5763,-2.1018 3.1526,-19.441 3.1526,-19.441 -2.5114,-8.5436 -1.1654,-15.801 4.729,-21.543 -3.632,-3.5183 -1.8521,-8.8406 -1.5763,-13.661 -2.9272,3.9029 -2.6663,-22.717 -1.5763,-26.272 0.61609,-2.0094 -11.034,-33.628 -11.034,-33.628 l -30.476,-35.73 c 6.255,3.9298 11.413,13.342 18.916,11.034 l 3.1526,-29.95 1.0509,31.001 c 8.7743,-3.0972 13.465,-11.095 15.238,-22.594 0.81412,10.262 -1.4184,19.846 -13.136,27.323 4.0625,17.482 19.79,24.777 22.594,40.984 1.6528,-11.523 13.436,-11.33 15.238,-25.221 l -3.1526,-31.001 -5.2544,-32.052 8.4071,23.119 c 8.9272,1.567 12.88,-5.5716 16.289,-13.661 2.3648,3.0404 -5.1404,21.014 -13.136,15.763 -3.1974,-2.0998 1.0509,29.425 1.0509,29.425 0,0 13.136,-0.52544 15.238,-2.1018 2.1018,-1.5763 14.712,-28.899 14.712,-28.899 l -5.2544,19.967 c 16.255,3.049 20.196,-10.32 28.899,-17.34 -8.4184,29.001 -36.616,31.63 -56.222,45.713 l -5.2544,13.661 c 0,0 -7.8816,2.6272 -7.8816,5.2544 0,2.6272 2.6272,16.289 2.6272,16.289 l 2.1018,17.865 -3.1526,13.661 3.1526,21.543 -5.2544,25.747 c -0.97346,9.6718 -2.3528,19.141 2.1018,31.527 l -1.0473,17.322 -14.711,-3.1805 z" />
        <path
           style="fill:#d38d5f"
           inkscape:connector-curvature="0"
           id="path16033"
           d="m 401.44,995.61 c -3.4931,-1.2976 -20.057,-41.564 -17.34,-45.188 l 2.1018,-27.323 -3.6781,-16.814 8.4071,-12.611 c 0,0 14.187,-16.289 16.289,-16.814 2.1018,-0.5254 13.661,-4.2035 13.661,-4.2035 24.505,13.551 38.194,29.011 38.883,46.764 l -4.729,-26.798 c -9.2677,-4.249 -17.88,-10.464 -25.747,-18.916 l 2.1018,-4.2036 c 11.332,12.645 27.258,6.9167 44.137,-2.6272 -17.783,5.0095 -35.796,10.707 -46.764,-4.7289 1.9255,-3.2093 -19.365,4.7669 -24.17,6.8307 -1.9039,0.8176 -21.09,9.6752 -21.543,11.034 l -10.509,4.729 c 7.2561,-8.232 8.5983,-16.464 8.9325,-24.696 l 14.187,-16.814 c 4.3978,-5.8991 18.329,-10.208 32.052,-10.509 0,0 -18.027,1.9062 -16.814,-1.0509 3.1526,-7.6866 27.848,-4.521 27.848,-4.2035 -8.2343,-7.1667 -18.32,-3.2234 -27.848,-2.6272 -21.652,11.13 -26.157,22.827 -37.832,35.205 l -8.4071,131.89 36.781,3.6781 z" />
        <path
           style="fill:#502d16"
           inkscape:connector-curvature="0"
           id="path16035"
           d="m 344.16,980.9 c 3.1526,-1.5763 5.2544,-6.8308 4.729,-9.458 -0.52544,-2.6272 -3.6781,-3.1526 -2.6272,-5.2544 1.0509,-2.1018 2.6272,-16.289 2.6272,-16.289 l -0.52544,-12.085 c -1.9159,-8.1032 -3.5782,-16.27 0,-25.747 l 1.0509,-13.136 3.1527,-15.763 c 0,0 2.1018,15.238 2.1018,17.34 0,2.1018 -3.6781,13.661 -3.6781,13.661 l 1.0509,16.289 -1.5763,13.136 1.5763,10.509 -3.1526,10.509 2.6343,29.365 -7.3633,-13.076 z" />
        <path
           style="fill:#784421"
           inkscape:connector-curvature="0"
           id="path16037"
           d="m 360.98,979.85 0,-47.29 4.2035,-22.594 c 0,0 -4.729,-11.56 -4.2035,-14.187 0.52544,-2.6272 4.729,-25.221 4.729,-25.221 l -4.729,-6.8307 1.0509,-19.441 7.8816,-5.7799 6.3053,-11.034 14.187,-11.034 c 0,0 -22.069,27.323 -23.645,35.73 -1.5763,8.4071 4.2035,15.238 4.2035,15.238 l -3.1526,15.763 2.1018,16.289 -3.6781,22.594 3.1526,6.3053 -5.2544,13.661 6.3053,23.645 -8.9325,24.17 -0.52544,-9.9834 z" />
        <path
           style="fill:#502d16"
           inkscape:connector-curvature="0"
           id="path16039"
           d="m 380.42,885.27 c 5.1621,3.0667 5.7074,7.6723 6.8307,12.085 l 6.8308,-9.458 5.7799,-1.5763 -2.6272,-11.034 -3.1526,1.0509 c 2.0081,4.6353 3.4008,8.6552 2.6272,10.509 l -8.4071,-3.6781 2.6272,5.2544 c 10e-6,1.7515 -3.503,0.70057 -10.509,-3.1527 z" />
        <path
           style="fill:#502d16"
           inkscape:connector-curvature="0"
           id="path16041"
           d="m 374.64,785.96 -2.6272,12.085 5.2544,19.441 8.9325,0.52544 c 0,0 2.6272,-1.0509 5.7799,-4.2035 3.1526,-3.1526 5.2544,-7.8816 5.2544,-7.8816 l -13.136,7.3562 c 0,0 -3.6781,3.1526 -4.729,0.52544 -1.0509,-2.62716 -4.729,-19.441 -4.729,-19.441 l 1.5763,-11.56 -1.5763,3.1526 z" />
        <path
           style="fill:#784421"
           inkscape:connector-curvature="0"
           id="path16043"
           d="m 340.48,994.52 c 1.0509,-2.6272 1.0562,-27.803 1.0562,-27.803 l -4.2035,-2.6272 3.6781,-8.4071 1.0509,-9.9834 3.6781,-11.56 -3.1526,-20.492 -0.52544,-12.611 c 0,0 -5.2544,-15.238 -9.458,-15.238 -4.2035,0 -16.814,-8.4071 -16.814,-8.4071 l -14.712,2.1018 -12.085,0.52544 15.763,2.6272 8.9325,-1.0509 14.187,7.8816 9.9834,12.611 2.1018,28.374 -2.6272,24.17 2.1018,31.001 1.0456,8.8867 z" />
        <path
           style="fill:#784421"
           inkscape:connector-curvature="0"
           id="path16045"
           d="m 295.82,845.86 c 4.729,0 27.323,17.865 27.323,17.865 4.8189,3.8485 4.7813,17.41 14.712,11.034 l 5.7799,17.865 7.8816,11.56 -6.8308,-27.848 c -6.9886,-5.4468 -14.122,-10.749 -18.39,-18.916 l -18.916,-9.458 -11.56,-2.1018 z" />
        <path
           style="fill:#784421"
           inkscape:connector-curvature="0"
           id="path16047"
           d="m 369.39,990.36 3.1526,-20.492 c 0,0 -5.7799,-15.238 -5.2544,-17.34 0.52544,-2.1018 3.6781,-22.069 3.1526,-24.17 -0.52544,-2.1018 0.52544,-21.543 0.52544,-21.543 l 2.1018,-20.492 c 7.127,-8.3793 13.18,-9.2418 18.916,-7.8816 -7.0329,-1.9467 -17.284,11.262 -15.238,15.238 1.5365,2.9864 -1.3216,42.508 2.1018,43.612 -12.304,4.5067 2.1026,38.151 3.6781,57.799 l -13.136,-4.729 z" />
        <path
           style="fill:#502d16"
           inkscape:connector-curvature="0"
           id="path16049"
           d="m 380.95,991.41 c 0,0 -5.2544,-14.187 -5.2544,-18.39 0,-4.2035 3.1527,-4.729 -0.52544,-9.458 -3.67814,-4.729 -3.6781,-20.492 -3.6781,-20.492 0,0 6.8307,15.763 6.8307,17.865 0,2.1018 3.1526,15.238 3.1526,15.238 l 5.2544,7.3562 1.0509,10.509 -6.8308,-2.6272 z" />
        <path
           style="fill:#784421"
           inkscape:connector-curvature="0"
           id="path16051"
           d="m 383.57,904.71 24.17,-8.9325 14.712,-14.712 -38.883,23.645 z" />
        <path
           style="fill:#502d16"
           inkscape:connector-curvature="0"
           id="path16053"
           d="m 329.98,864.25 1.0509,9.9834 7.3562,-2.1018 -4.2035,-4.2035 -4.2035,-3.6781 z" />
      </g>
      <path
         style="fill:url(#linearGradient6666)"
         inkscape:connector-curvature="0"
         id="path16055"
         d="m 1050,471.41 c -0.9925,15.728 -5,2.4432 -5,2.4432 1.2295,3.6152 2.1568,6.983 -2.2104,6.0146 4.7571,6.9045 -0.3176,9.4199 -3.2833,10.13 l -2.226,-4.7061 c -2.1809,12.416 -4.8582,7.4475 -6.8416,0.67739 1.2433,6.2937 0.3704,8.1684 -3.467,3.853 0.6369,2.6516 2.8567,6.5107 -3.4671,3.8529 1.4384,6.6109 -0.5275,7.6372 -4.9351,4.6583 0.2345,5.2832 -0.5501,8.1224 -3.7974,2.7588 l -3.0658,-2.8198 c -2.8965,2.0849 -5.7612,4.0907 -4.3115,-4.6124 -4.3103,5.0038 -3.467,2.891 -3.3421,-2.0678 -8.9643,1.7715 -5.2436,-3.1674 -4.6636,-6.445 -1.4388,-2.206 5.7597,-5.3064 4.9027,-5.7659 -6.0888,-3.2653 -1.6243,-10.466 0.9214,-9.2841 -0.8948,-0.28928 -4.4421,-8.0378 1.5389,-8.5723 8.6193,-0.77039 3.689,-8.0487 3.9656,-7.2027 l -1.0559,-5.4981 2.2537,-4.5378 4.8858,3.847 c -3.2988,-5.8791 0.5597,-8.4548 3.7974,-2.7586 1.8399,3.2369 -4.4085,-4.3977 0.7857,-3.7324 8.4195,1.0785 4.3086,-5.6752 4.4473,-0.93942 2.8778,-1.7861 4.2181,-0.1185 4.8642,3.1086 2.3628,-4.7274 4.3027,-7.5018 3.8947,0.56421 2.023,-2.3276 4.3029,-6.6133 5.0864,0.51069 4.294,-4.9671 4.0873,0.17523 4.0244,4.9948 2.3873,-8.411 3.8425,-5.9286 5.054,-0.59699 4.1055,-1.539 6.2928,-1.2142 1.9498,5.4579 l 3.6616,2.793 c 2.254,0.55151 6.2079,-0.26727 1.0776,6.2365 4.819,5.1472 3.0631,7.6618 -0.9215,9.284 -2.9146,7.6842 -3.5617,2.1003 -4.5229,-1.6451 z" />
      <path
         style="fill:url(#linearGradient6668)"
         inkscape:connector-curvature="0"
         id="path16057"
         d="m 1082,468.79 c -20.572,5.6835 -5.9187,-6.919 -5.9187,-6.919 -3.9096,3.6532 -7.6742,6.7053 -8.8961,-0.77446 -6.1129,10.856 -12.166,3.8498 -14.735,-0.59651 l 4.7376,-5.7628 c -17.026,2.237 -12.207,-4.374 -4.7068,-10.702 -7.3102,4.9157 -10.186,4.378 -6.8513,-3.7983 -3.0163,2.2531 -6.6796,7.6138 -6.8514,-3.7982 -7.6041,5.3764 -10.015,2.6863 -8.7012,-5.7891 -6.5913,2.8235 -10.645,2.8745 -5.6446,-4.8368 l 1.8653,-6.2414 c -4.2808,-3.6984 -8.4431,-7.382 3.4464,-9.0772 -8.7898,-4.6231 -5.6272,-4.2436 0.7533,-6.3382 -7.2919,-13.613 1.0839,-9.909 5.5807,-10.492 1.9986,-3.3378 9.9893,6.8167 10.092,5.2241 0.7335,-11.315 12.406,-7.4606 12.332,-2.8146 -0.1349,-1.5747 7.732,-10.873 11.773,-1.4909 5.824,13.521 12.315,2.2131 11.394,3.0501 l 6.4031,-4.2455 7.0411,1.5278 -2.1499,9.6473 c 5.6275,-8.033 11.074,-3.0131 5.6446,4.8368 -3.0852,4.4609 3.1187,-9.1338 5.191,-0.46297 3.359,14.055 9.6431,4.3097 3.6947,6.7254 3.8902,3.8067 2.5212,6.7364 -1.2223,9.2708 7.3435,1.6156 11.964,3.4545 1.4707,6.5318 4.0987,2.1797 10.834,3.8663 2.2085,8.4258 8.7338,4.6139 2.074,6.6619 -4.0945,8.792 12.045,-0.0504 9.7037,3.4417 3.5999,7.8607 4.2657,5.8974 5.0814,9.5696 -5.8496,5.6661 l -1.4965,7.1884 c 0.565,3.8842 3.8289,9.8712 -7.3305,4.6221 -3.8418,10.142 -8.0285,8.4788 -12.332,2.8146 -11.416,-1.1351 -4.6742,-4.7621 -0.4483,-8.0439 z" />
      <path
         style="fill:#71c837"
         inkscape:connector-curvature="0"
         id="path16059"
         d="m 1214.2,521.12 c -2.5058,2.9866 -3.7402,7.7041 -9.9821,5.6051 l 0.9982,-8.6625 -9.9822,2.0383 -0.4991,-9.6816 c -11.782,-6.5574 -1.2456,-7.0481 1.4973,-8.6625 l 3.9929,-3.0574 4.9911,2.0383 c -1.4129,-5.2538 -2.9756,-10.641 5.9893,-6.6242 -4.5526,-10.061 1.6718,-4.4043 5.9893,-1.5288 -3.3759,-6.2513 -5.7151,-10.233 3.9928,-7.1339 2.9049,-6.7401 4.3657,-1.6862 5.9893,2.0383 11.637,-10.196 7.4551,0.60233 6.4885,7.1339 7.1831,-3.43 12.455,-4.7133 6.4884,6.6242 16.39,-5.6407 7.1791,2.6586 4.991,7.1339 1.7039,4.9755 26.61,6.003 0,15.796 1.5945,14.601 -4.8022,8.8048 -10.98,3.5669 3.8611,12.508 -0.7958,8.7104 -7.4867,1.0191 -4.9224,3.7167 -8.4723,5.3312 -5.4902,-3.0573 -7.127,6.6352 -7.7681,2.2342 -6.9875,-4.5861 z" />
      <path
         style="fill:url(#linearGradient6670)"
         inkscape:connector-curvature="0"
         id="path16061"
         d="m 1244.8,465.38 c -11.362,18.408 -8.9447,-0.99645 -8.9447,-0.99645 -0.452,5.3912 -1.1961,10.24 -7.0578,5.5827 2.706,12.213 -6.395,11.245 -11.236,9.752 l -0.3385,-7.5157 c -11.04,13.42 -11.882,5.2248 -10.563,-4.6172 -2.116,8.6716 -4.5885,10.265 -7.5602,1.9442 -0.7239,3.7434 0.1381,10.22 -7.5601,1.9442 -2.0264,9.2139 -5.5848,8.9023 -10.242,1.7591 -2.9753,6.6355 -5.9234,9.4765 -7.3615,0.34572 l -2.769,-5.8814 c -5.603,0.24002 -11.109,0.40886 -3.4876,-9.0607 -9.5333,2.678 -6.9551,0.77 -3.6513,-5.1834 -14.396,-4.9709 -5.7772,-8.0388 -2.8564,-11.578 -0.7445,-3.8376 11.871,-1.894 10.89,-3.1369 -6.968,-8.8307 4.1758,-14.068 7.2042,-10.599 -1.144,-1.0651 -1.5267,-13.346 7.6714,-9.239 13.255,5.9182 10.528,-6.889 10.406,-5.6362 l 1.8933,-7.5514 6.1931,-3.7457 4.8196,8.5836 c -1.1902,-9.8011 6.1468,-9.8747 7.3615,-0.34563 0.6903,5.4151 -3.766,-8.8759 3.5115,-3.9306 11.796,8.0161 9.9531,-3.4988 7.1802,2.3922 5.3873,0.10978 6.3243,3.2118 5.252,7.665 6.474,-3.8902 11.093,-5.7331 5.4158,3.7878 4.4613,-1.2312 10.535,-4.6484 7.2152,4.6707 9.4861,-2.6461 5.9458,3.4663 2.8215,9.2992 8.8269,-8.3672 9.4218,-4.179 7.8637,3.2929 7.0509,1.3881 10.087,3.5253 -0.5436,8.2135 l 3.6687,6.3228 c 2.9928,2.4666 9.3662,4.6134 -2.3256,8.4698 3.903,10.117 -0.2802,11.789 -7.2042,10.599 -9.1512,7.0604 -6.5981,-0.27047 -5.6669,-5.6071 z" />
      <path
         style="fill:url(#linearGradient6672)"
         inkscape:connector-curvature="0"
         id="path16063"
         d="m 1054,539.98 c -2.5058,2.9866 -3.7402,7.7041 -9.9821,5.6051 l 0.9982,-8.6625 -9.9822,2.0383 -0.4991,-9.6816 c -11.782,-6.5574 -1.2455,-7.0481 1.4973,-8.6625 l 3.9929,-3.0574 4.9911,2.0383 c -1.4129,-5.2538 -2.9756,-10.641 5.9893,-6.6242 -4.5526,-10.061 1.6718,-4.4043 5.9893,-1.5288 -3.3758,-6.2513 -5.7151,-10.233 3.9929,-7.1339 2.9048,-6.7401 4.3656,-1.6862 5.9893,2.0383 11.637,-10.196 7.4551,0.60233 6.4884,7.1339 7.1832,-3.43 12.455,-4.7133 6.4884,6.6242 16.39,-5.6407 7.1791,2.6586 4.9911,7.1339 1.7039,4.9755 26.61,6.003 0,15.796 1.5944,14.601 -4.8023,8.8048 -10.98,3.5669 3.8611,12.508 -0.7958,8.7104 -7.4866,1.0191 -4.9225,3.7167 -8.4724,5.3312 -5.4902,-3.0573 -7.1271,6.6352 -7.7682,2.2342 -6.9876,-4.5861 z" />
      <path
         style="fill:#44b600"
         inkscape:connector-curvature="0"
         id="path16065"
         d="m 1077.5,498.19 c -2.4309,21.616 -8.4848,3.0574 -8.4848,3.0574 1.8798,5.059 3.2663,9.7584 -3.9929,8.1529 7.6207,9.8114 -0.9928,12.964 -5.9893,13.758 l -3.4937,-6.6243 c -4.2571,16.978 -8.4929,9.9637 -11.48,0.50962 1.7718,8.7516 0.2195,11.281 -5.9893,5.0956 0.9357,3.6942 4.4606,9.1507 -5.9893,5.0956 2.0827,9.2008 -1.2567,10.494 -8.4849,6.1147 0.1335,7.2964 -1.3183,11.161 -6.4884,3.5669 l -4.9911,-4.0764 c -4.9482,2.694 -9.8392,5.2811 -6.9875,-6.6243 -7.4564,6.6296 -5.9421,3.7697 -5.4902,-3.0573 -15.085,1.8859 -8.6177,-4.6907 -7.4866,-9.1721 -2.2992,-3.1298 9.8963,-6.9568 8.4849,-7.6434 -10.027,-4.8779 -2.2048,-14.526 1.9964,-12.739 -1.483,-0.45414 -7.0382,-11.354 2.9946,-11.72 14.458,-0.52756 6.5662,-10.865 6.9876,-9.6816 l -1.4974,-7.6435 3.9929,-6.1147 7.9857,5.6052 c -5.231,-8.3077 1.3507,-11.619 6.4884,-3.5669 2.9197,4.5754 -7.1601,-6.3347 1.4974,-5.0956 14.033,2.0084 7.4866,-7.5549 7.4866,-1.0191 4.9023,-2.2835 7.0629,0.0981 7.9857,4.586 4.1848,-6.3691 7.5662,-10.073 6.4884,1.0191 3.4987,-3.0826 7.5231,-8.8483 8.4849,1.0191 7.4273,-6.58 6.8297,0.49498 6.4884,7.1339 4.406,-11.445 6.7191,-7.9332 8.4848,-0.50952 6.944,-1.867 10.588,-1.2834 2.9947,7.6434 l 5.9893,4.0765 c 3.7439,0.89976 10.399,0.0165 1.4973,8.6625 7.8103,7.393 4.7493,10.75 -1.9964,12.739 -5.2528,10.411 -6.0618,2.6741 -7.4867,-2.5478 z" />
      <path
         style="fill:#207b04"
         inkscape:connector-curvature="0"
         id="path16067"
         d="m 1136.5,518.89 c -11.362,18.408 -8.9447,-0.99644 -8.9447,-0.99644 -0.452,5.3912 -1.1961,10.24 -7.0579,5.5827 2.7061,12.213 -6.3949,11.245 -11.235,9.752 l -0.3385,-7.5157 c -11.04,13.42 -11.882,5.2248 -10.563,-4.6172 -2.1161,8.6716 -4.5885,10.265 -7.5602,1.9442 -0.7239,3.7434 0.1381,10.22 -7.5601,1.9442 -2.0265,9.2139 -5.5848,8.9023 -10.242,1.7591 -2.9753,6.6355 -5.9234,9.4765 -7.3615,0.34572 l -2.769,-5.8814 c -5.603,0.24002 -11.109,0.40886 -3.4876,-9.0607 -9.5333,2.678 -6.9551,0.77 -3.6513,-5.1834 -14.396,-4.9709 -5.7772,-8.0388 -2.8564,-11.578 -0.7445,-3.8376 11.871,-1.894 10.89,-3.1369 -6.968,-8.8307 4.1758,-14.068 7.2042,-10.599 -1.144,-1.0651 -1.5267,-13.346 7.6714,-9.239 13.255,5.9182 10.528,-6.889 10.406,-5.6362 l 1.8933,-7.5514 6.1931,-3.7457 4.8196,8.5836 c -1.1902,-9.8011 6.1468,-9.8747 7.3615,-0.34563 0.6903,5.4151 -3.766,-8.8759 3.5114,-3.9306 11.797,8.0161 9.9532,-3.4988 7.1803,2.3922 5.3873,0.10978 6.3243,3.2118 5.252,7.665 6.474,-3.8902 11.093,-5.7331 5.4158,3.7878 4.4613,-1.2312 10.535,-4.6484 7.2152,4.6707 9.486,-2.6461 5.9458,3.4663 2.8215,9.2992 8.8269,-8.3672 9.4218,-4.179 7.8637,3.2929 7.0509,1.3881 10.087,3.5253 -0.5436,8.2135 l 3.6687,6.3228 c 2.9928,2.4666 9.3662,4.6134 -2.3256,8.4698 3.903,10.117 -0.2802,11.789 -7.2042,10.599 -9.1512,7.0604 -6.5981,-0.27047 -5.6669,-5.6071 z" />
      <path
         style="fill:#207b04"
         inkscape:connector-curvature="0"
         id="path16069"
         d="m 1149.3,499.72 c -2.5058,2.9866 -3.7402,7.7041 -9.9821,5.6051 l 0.9982,-8.6625 -9.9822,2.0383 -0.4991,-9.6816 c -11.782,-6.5574 -1.2456,-7.0481 1.4973,-8.6625 l 3.9929,-3.0574 4.9911,2.0383 c -1.4129,-5.2538 -2.9756,-10.641 5.9893,-6.6242 -4.5526,-10.061 1.6718,-4.4043 5.9893,-1.5288 -3.3758,-6.2513 -5.7151,-10.233 3.9929,-7.1338 2.9048,-6.7401 4.3656,-1.6862 5.9892,2.0383 11.637,-10.196 7.4551,0.60233 6.4885,7.1339 7.1831,-3.43 12.455,-4.7133 6.4884,6.6242 16.39,-5.6407 7.1791,2.6586 4.9911,7.1338 1.7038,4.9755 26.61,6.003 0,15.796 1.5944,14.601 -4.8023,8.8048 -10.98,3.5669 3.8611,12.508 -0.7958,8.7104 -7.4867,1.0191 -4.9224,3.7167 -8.4723,5.3312 -5.4901,-3.0573 -7.1271,6.6352 -7.7682,2.2342 -6.9876,-4.5861 z" />
      <path
         style="fill:url(#linearGradient6674)"
         inkscape:connector-curvature="0"
         id="path16071"
         d="m 1150.8,475.07 c -1.909,2.1226 -2.8493,5.4754 -7.6042,3.9836 l 0.7604,-6.1566 -7.6042,1.4486 -0.3802,-6.8809 c -8.9754,-4.6604 -0.9489,-5.0093 1.1406,-6.1566 l 3.0417,-2.1729 3.8021,1.4486 c -1.0763,-3.7339 -2.2668,-7.5629 4.5625,-4.708 -3.4681,-7.1507 1.2736,-3.1301 4.5625,-1.0864 -2.5716,-4.4429 -4.3536,-7.2728 3.0417,-5.0702 2.2129,-4.7904 3.3257,-1.1984 4.5625,1.4486 8.8647,-7.2465 5.6792,0.42806 4.9428,5.0702 5.4719,-2.4378 9.4878,-3.3499 4.9427,4.708 12.486,-4.009 5.4689,1.8895 3.8021,5.0701 1.298,3.5362 20.271,4.2664 0,11.227 1.2146,10.377 -3.6583,6.2577 -8.3646,2.5351 2.9413,8.8896 -0.6062,6.1907 -5.7032,0.72433 -3.7498,2.6415 -6.454,3.789 -4.1823,-2.173 -5.4292,4.7158 -5.9176,1.5879 -5.3229,-3.2593 z" />
      <path
         style="fill:url(#linearGradient6676)"
         inkscape:connector-curvature="0"
         id="path16073"
         d="m 1156,418.06 c -1.652,21.693 -8.3692,3.3735 -8.3692,3.3735 2.0605,4.9851 3.615,9.6294 -3.697,8.2971 7.9683,9.5191 -0.526,12.992 -5.4905,13.973 l -3.7296,-6.4889 c -3.6436,17.126 -8.1288,10.275 -11.453,0.93951 2.0853,8.6794 0.625,11.266 -5.8021,5.3167 1.0679,3.6566 4.7867,8.9773 -5.802,5.3166 2.4122,9.1167 -0.8785,10.534 -8.2592,6.4286 0.3958,7.2865 -0.9161,11.203 -6.3558,3.8078 l -5.1343,-3.8868 c -4.848,2.8778 -9.6427,5.6464 -7.221,-6.3579 -7.2131,6.9046 -5.8026,3.99 -5.5964,-2.8494 -15.007,2.45 -8.7806,-4.3646 -7.8115,-8.8854 -2.4101,-3.0414 9.6394,-7.3231 8.2043,-7.9562 -10.196,-4.4988 -2.7256,-14.434 1.537,-12.805 -1.4983,-0.39829 -7.4417,-11.082 2.5711,-11.824 14.43,-1.0691 6.1711,-11.104 6.6347,-9.937 l -1.7712,-7.5821 3.7703,-6.2604 8.182,5.3022 c -5.5263,-8.106 0.9319,-11.661 6.3557,-3.8077 3.0822,4.463 -7.3831,-6.0619 1.3131,-5.1482 14.096,1.481 7.2099,-7.8305 7.4449,-1.2991 4.8169,-2.4656 7.0617,-0.16671 8.1453,4.2837 3.9528,-6.5217 7.1988,-10.35 6.5207,0.77524 3.3854,-3.2117 7.1997,-9.1245 8.5157,0.70037 7.1857,-6.854 6.8429,0.23856 6.7406,6.8858 3.9914,-11.602 6.4292,-8.1798 8.4608,-0.82722 6.8722,-2.1259 10.534,-1.6794 3.2675,7.526 l 6.1318,3.8492 c 3.7738,0.75885 10.393,-0.37355 1.8078,8.6006 8.071,7.0953 5.1328,10.565 -1.537,12.805 -4.8748,10.6 -5.9615,2.8994 -7.5731,-2.2655 z" />
      <path
         style="fill:#4bbe01"
         inkscape:connector-curvature="0"
         id="path16075"
         d="m 1136.9,447.75 c -2.5058,2.9867 -3.7402,7.7042 -9.9821,5.6052 l 0.9982,-8.6625 -9.9822,2.0382 -0.4991,-9.6816 c -11.782,-6.5575 -1.2456,-7.0482 1.4973,-8.6626 l 3.9929,-3.0573 4.9911,2.0383 c -1.4129,-5.2538 -2.9756,-10.641 5.9893,-6.6243 -4.5526,-10.061 1.6718,-4.4043 5.9893,-1.5287 -3.3759,-6.2513 -5.7151,-10.233 3.9928,-7.1338 2.9049,-6.7402 4.3657,-1.6862 5.9893,2.0383 11.637,-10.196 7.4551,0.60233 6.4885,7.1338 7.1831,-3.4299 12.455,-4.7132 6.4884,6.6243 16.39,-5.6407 7.1791,2.6585 4.991,7.1338 1.7039,4.9755 26.61,6.0029 0,15.796 1.5945,14.6 -4.8022,8.8048 -10.98,3.5669 3.8611,12.508 -0.7958,8.7103 -7.4867,1.0191 -4.9224,3.7166 -8.4723,5.3312 -5.4902,-3.0574 -7.127,6.6353 -7.7681,2.2342 -6.9875,-4.5861 z" />
    </g>
  </g>
</svg>
