<!--Created with Inkscape (http://www.inkscape.org/)--><svg xmlns:dc="http://purl.org/dc/elements/1.1/" xmlns:cc="http://creativecommons.org/ns#" xmlns:rdf="http://www.w3.org/1999/02/22-rdf-syntax-ns#" xmlns="http://www.w3.org/2000/svg" xmlns:xlink="http://www.w3.org/1999/xlink" xmlns:sodipodi="http://sodipodi.sourceforge.net/DTD/sodipodi-0.dtd" xmlns:inkscape="http://www.inkscape.org/namespaces/inkscape" width="14.871754mm" height="12.420395mm" viewBox="0 0 52.69519 44.009273" inkscape:version="0.91 r13725" sodipodi:docname="photo4_4.svg"><defs><linearGradient y2="1156.7" x2="417.45001" y1="1060.2" x1="440.85001" gradientTransform="matrix(-.3645 -.89553 -.87716 .37213 2321.7 406.73)" gradientUnits="userSpaceOnUse" id="h" xlink:href="#b" inkscape:collect="always"/><linearGradient id="b"><stop stop-color="#44b600" offset="0"/><stop stop-color="#250" offset="1"/></linearGradient><linearGradient id="a" y2="1236.3" gradientUnits="userSpaceOnUse" x2="545.92999" gradientTransform="matrix(-.94988 0 0 .96977 1603.5 -799.56)" y1="1193.7" x1="590.07001"><stop stop-color="#55d400" offset="0"/><stop stop-color="#0a0" offset="1"/></linearGradient><linearGradient id="d" y2="1203.2" gradientUnits="userSpaceOnUse" x2="427.17999" gradientTransform="matrix(-.94988 0 0 .96977 1481.2 -632.94)" y1="1237.3" x1="482.35999"><stop stop-color="#207b04" offset="0"/><stop stop-color="#00d400" offset="1"/></linearGradient><linearGradient id="e" y2="1124.3" gradientUnits="userSpaceOnUse" x2="343.64001" gradientTransform="matrix(-.94988 0 0 .96977 1492.2 -640.58)" y1="1162.7" x1="362.54999"><stop stop-color="#207b04" offset="0"/><stop stop-color="#55d400" offset="1"/></linearGradient><linearGradient id="f" y2="1238.4" gradientUnits="userSpaceOnUse" x2="316.22" gradientTransform="matrix(-.67516 .68215 .66816 .6893 642.64 -584.21)" y1="1035" x1="385.14999"><stop stop-color="#44b600" offset="0"/><stop stop-color="#9f5" offset="1"/></linearGradient><linearGradient y2="1236.3" x2="545.92999" y1="1193.7" x1="590.07001" gradientTransform="matrix(-.94988 0 0 .96977 1603.5 -799.56)" gradientUnits="userSpaceOnUse" id="g" xlink:href="#a" inkscape:collect="always"/><linearGradient id="c"><stop stop-color="#338000" offset="0"/><stop stop-color="#55d400" offset="1"/></linearGradient><linearGradient y2="1089.7" x2="183.38" y1="1131.7" x1="209.13" gradientTransform="matrix(-.50214 .32735 .26414 .6223 842.9 -274.17)" gradientUnits="userSpaceOnUse" id="i" xlink:href="#c" inkscape:collect="always"/><linearGradient y2="1156.7" x2="417.45001" y1="1060.2" x1="440.85001" gradientTransform="matrix(-.9447 .10116 .09908 .96448 1371.8 -676.31)" gradientUnits="userSpaceOnUse" id="j" xlink:href="#b" inkscape:collect="always"/><linearGradient y2="1089.7" x2="183.38" y1="1131.7" x1="209.13" gradientTransform="matrix(-.94988 0 0 .96977 1406.9 -609.5)" gradientUnits="userSpaceOnUse" id="k" xlink:href="#c" inkscape:collect="always"/><linearGradient y2="1203.2" x2="427.17999" y1="1237.3" x1="482.35999" gradientTransform="matrix(-.94988 0 0 .96977 1481.2 -632.94)" gradientUnits="userSpaceOnUse" id="l" xlink:href="#d" inkscape:collect="always"/><linearGradient y2="1124.3" x2="343.64001" y1="1162.7" x1="362.54999" gradientTransform="matrix(-.94988 0 0 .96977 1492.2 -640.58)" gradientUnits="userSpaceOnUse" id="m" xlink:href="#e" inkscape:collect="always"/><linearGradient y2="1238.4" x2="316.22" y1="1035" x1="385.14999" gradientTransform="matrix(-.67516 .68215 .66816 .6893 642.64 -584.21)" gradientUnits="userSpaceOnUse" id="n" xlink:href="#f" inkscape:collect="always"/></defs><sodipodi:namedview pagecolor="#ffffff" bordercolor="#666666" borderopacity="1.0" inkscape:pageopacity="0.0" inkscape:pageshadow="2" inkscape:zoom="7.919596" inkscape:cx="-29.846876" inkscape:cy="26.902228" inkscape:document-units="px" inkscape:current-layer="layer1" showgrid="false" inkscape:window-width="1920" inkscape:window-height="1176" inkscape:window-x="1680" inkscape:window-y="24" inkscape:window-maximized="1" fit-margin-top="0" fit-margin-left="0" fit-margin-right="0" fit-margin-bottom="0"/><metadata><rdf:RDF><cc:Work><dc:format>image/svg+xml</dc:format><dc:type rdf:resource="http://purl.org/dc/dcmitype/StillImage"/><dc:title/></cc:Work></rdf:RDF></metadata><g style="fill-rule:evenodd;stroke-opacity:0" inkscape:label="Layer 1" inkscape:groupmode="layer"><path style="fill:url(#g)" inkscape:connector-curvature="0" d="M1073.4 407.12c-1.503 3.083-2.243 7.953-5.987 5.786l.599-8.942-5.988 2.104-.3-9.995c-7.066-6.769-.746-7.275.899-8.942l2.395-3.156 2.994 2.104c-.848-5.423-1.785-10.985 3.592-6.838-2.73-10.386 1.003-4.547 3.592-1.578-2.025-6.454-3.428-10.564 2.395-7.365 1.742-6.958 2.619-1.74 3.593 2.105 6.98-10.526 4.471.621 3.891 7.364 4.309-3.541 7.47-4.866 3.892 6.838 9.83-5.823 4.306 2.745 2.993 7.364 1.022 5.137 15.961 6.197 0 16.307.957 15.072-2.88 9.09-6.586 3.682 2.316 12.912-.477 8.992-4.49 1.053-2.952 3.836-5.082 5.503-3.293-3.157-4.275 6.85-4.66 2.307-4.191-4.734z" transform="matrix(.17285 0 0 .17285 -168.155 -63.416)"/><path style="fill:url(#h)" inkscape:connector-curvature="0" d="M1164 449.97c-11.205-18.508 4.807-7.766 4.807-7.766-4.545-2.783-8.485-5.596-1.811-8.925-11.936-2.885-7.086-10.806-3.645-14.59l6.762 2.992c-6.958-16.022.623-13.193 8.704-7.659-6.7-5.75-7.017-8.718 1.61-7.787-2.975-2.31-9.053-4.364 1.611-7.788-7.216-5.907-5.379-9.034 2.953-10.166-4.532-5.644-5.736-9.596 2.93-6.904l6.391.045c2.25-5.244 4.521-10.368 9.505.782 1.832-9.92 2.378-6.717 6.165-1.07 10.699-11.02 9.612-1.767 11.442 2.466 3.704 1.004-3.55 11.72-2.025 11.366 10.832-2.51 10.543 10.011 6.161 11.264 1.44-.581 12.414 4.464 4.759 11.095-11.031 9.557 1.436 12.682.387 12.02l5.813 5.054.574 7.325-9.67.649c9.147 3.215 5.988 9.976-2.93 6.903-5.068-1.746 9.465.446 1.916 4.947-12.236 7.297-1.295 10.665-5.26 5.535-2.463 4.892-5.604 4.389-9.052 1.449.579 7.646.171 12.693-5.712 3.302-.877 4.633-.538 11.704-7.28 4.565-1.84 9.863-5.662 3.93-9.422-1.498 3.484 11.772-.462 10.477-6.352 5.766-4.32 5.856-7.534 7.702-6.988-4.108l-7.175.587c-3.486 1.661-8.175 6.563-6.431-5.854-10.617-.866-10.25-5.437-6.16-11.264-2.192-11.495 3.136-5.932 7.423-2.734z" transform="matrix(.17285 0 0 .17285 -168.155 -63.416)"/><path style="fill:#4bbe01" inkscape:connector-curvature="0" d="M1192.8 525.2c-2.506 2.987-3.74 7.704-9.982 5.605l.998-8.662-9.982 2.038-.5-9.682c-11.781-6.557-1.245-7.048 1.498-8.662l3.993-3.058 4.991 2.039c-1.413-5.254-2.976-10.641 5.99-6.624-4.553-10.061 1.671-4.405 5.989-1.53-3.376-6.25-5.716-10.232 3.992-7.133 2.905-6.74 4.366-1.686 5.99 2.038 11.637-10.196 7.455.603 6.488 7.134 7.183-3.43 12.455-4.713 6.489 6.624 16.39-5.64 7.179 2.659 4.99 7.134 1.705 4.976 26.61 6.003 0 15.796 1.595 14.601-4.802 8.805-10.98 3.567 3.862 12.508-.795 8.71-7.486 1.02-4.922 3.716-8.472 5.33-5.49-3.058-7.127 6.635-7.768 2.234-6.988-4.586z" transform="matrix(.17285 0 0 .17285 -168.155 -63.416)"/><path style="fill:#44b600" inkscape:connector-curvature="0" d="M1263.6 480.87c-2.431 21.616-8.485 3.057-8.485 3.057 1.88 5.06 3.266 9.759-3.993 8.153 7.62 9.812-.993 12.964-5.99 13.758l-3.493-6.624c-4.257 16.978-8.493 9.964-11.48.51 1.772 8.751.22 11.28-5.99 5.095.937 3.694 4.462 9.15-5.988 5.096 2.082 9.2-1.257 10.494-8.485 6.115.133 7.296-1.319 11.16-6.489 3.566l-4.99-4.076c-4.949 2.694-9.84 5.281-6.988-6.624-7.457 6.63-5.942 3.77-5.49-3.058-15.084 1.886-8.618-4.69-7.487-9.172-2.3-3.13 9.896-6.956 8.485-7.643-10.027-4.878-2.205-14.526 1.996-12.74-1.483-.453-7.038-11.353 2.995-11.72 14.458-.527 6.566-10.864 6.987-9.68l-1.497-7.644 3.993-6.115 7.986 5.605c-5.231-8.307 1.35-11.618 6.488-3.567 2.92 4.576-7.16-6.334 1.497-5.095 14.033 2.008 7.487-7.555 7.487-1.02 4.902-2.283 7.063.099 7.986 4.587 4.185-6.37 7.566-10.073 6.488 1.019 3.499-3.083 7.523-8.848 8.485 1.019 7.427-6.58 6.83.495 6.488 7.134 4.406-11.445 6.72-7.933 8.485-.51 6.944-1.867 10.588-1.283 2.995 7.644l5.99 4.076c3.743.9 10.398.017 1.496 8.663 7.81 7.393 4.75 10.75-1.996 12.739-5.253 10.41-6.062 2.674-7.487-2.548z" transform="matrix(.17285 0 0 .17285 -168.155 -63.416)"/><path style="fill:#207b04" inkscape:connector-curvature="0" d="M1081.5 441.12c-2.506 2.987-3.74 7.704-9.982 5.605l.998-8.662-9.982 2.038-.5-9.682c-11.781-6.557-1.245-7.048 1.498-8.662l3.993-3.058 4.991 2.039c-1.413-5.254-2.976-10.641 5.99-6.625-4.553-10.06 1.671-4.404 5.989-1.528-3.376-6.252-5.715-10.233 3.993-7.134 2.904-6.74 4.365-1.686 5.989 2.038 11.637-10.196 7.455.602 6.488 7.134 7.183-3.43 12.455-4.713 6.489 6.624 16.39-5.64 7.179 2.659 4.99 7.134 1.705 4.976 26.61 6.003 0 15.796 1.595 14.601-4.802 8.805-10.98 3.567 3.862 12.508-.795 8.71-7.486 1.02-4.922 3.716-8.472 5.33-5.49-3.058-7.127 6.635-7.768 2.234-6.988-4.586z" transform="matrix(.17285 0 0 .17285 -168.155 -63.416)"/><path style="fill:#207b04" inkscape:connector-curvature="0" d="M1195.2 435.01c-2.43 21.616-8.485 3.057-8.485 3.057 1.88 5.06 3.267 9.759-3.993 8.153 7.621 9.812-.992 12.964-5.989 13.758l-3.494-6.624c-4.257 16.978-8.493 9.964-11.48.51 1.772 8.751.22 11.28-5.989 5.095.936 3.694 4.46 9.15-5.99 5.096 2.083 9.2-1.256 10.494-8.484 6.115.133 7.296-1.318 11.16-6.489 3.566l-4.99-4.076c-4.949 2.694-9.84 5.281-6.988-6.624-7.457 6.63-5.942 3.77-5.49-3.058-15.084 1.886-8.618-4.69-7.487-9.172-2.3-3.13 9.896-6.956 8.485-7.643-10.027-4.878-2.205-14.526 1.996-12.74-1.483-.453-7.038-11.353 2.995-11.72 14.458-.527 6.566-10.864 6.987-9.68l-1.497-7.644 3.993-6.115 7.986 5.605c-5.231-8.307 1.35-11.618 6.488-3.567 2.92 4.576-7.16-6.334 1.497-5.095 14.034 2.008 7.487-7.555 7.487-1.02 4.902-2.283 7.063.099 7.986 4.587 4.185-6.37 7.566-10.073 6.488 1.019 3.499-3.083 7.523-8.848 8.485 1.019 7.427-6.58 6.83.495 6.489 7.134 4.405-11.445 6.718-7.933 8.484-.51 6.944-1.867 10.588-1.283 2.995 7.644l5.99 4.076c3.743.9 10.398.017 1.497 8.663 7.81 7.393 4.749 10.75-1.997 12.739-5.253 10.41-6.062 2.674-7.487-2.548z" transform="matrix(.17285 0 0 .17285 -168.155 -63.416)"/><path style="fill:#4bbe01" inkscape:connector-curvature="0" d="M1207.2 473.73c-2.506 2.987-3.74 7.704-9.982 5.605l.998-8.662-9.982 2.038-.5-9.682c-11.781-6.557-1.245-7.048 1.498-8.662l3.993-3.058 4.991 2.039c-1.413-5.254-2.975-10.641 5.99-6.625-4.553-10.06 1.671-4.404 5.989-1.528-3.376-6.252-5.715-10.233 3.993-7.134 2.904-6.74 4.365-1.686 5.989 2.038 11.637-10.196 7.455.603 6.488 7.134 7.183-3.43 12.455-4.713 6.489 6.624 16.39-5.64 7.179 2.659 4.99 7.134 1.705 4.976 26.61 6.003 0 15.796 1.595 14.6-4.802 8.805-10.98 3.567 3.862 12.508-.795 8.71-7.486 1.02-4.922 3.716-8.472 5.33-5.49-3.058-7.127 6.635-7.768 2.234-6.988-4.586z" transform="matrix(.17285 0 0 .17285 -168.155 -63.416)"/><path style="fill:#4bbe01" inkscape:connector-curvature="0" d="M1082.9 521.63c-2.506 2.987-3.74 7.704-9.982 5.605l.998-8.662-9.982 2.038-.5-9.682c-11.781-6.557-1.245-7.048 1.498-8.662l3.993-3.058 4.991 2.039c-1.413-5.254-2.975-10.641 5.99-6.625-4.553-10.06 1.671-4.404 5.989-1.528-3.376-6.252-5.715-10.233 3.993-7.134 2.904-6.74 4.365-1.686 5.989 2.038 11.637-10.196 7.455.603 6.488 7.134 7.183-3.43 12.455-4.713 6.489 6.624 16.39-5.64 7.179 2.659 4.99 7.134 1.705 4.976 26.61 6.003 0 15.796 1.595 14.6-4.802 8.805-10.98 3.567 3.862 12.508-.795 8.71-7.486 1.02-4.922 3.716-8.472 5.33-5.49-3.058-7.127 6.635-7.768 2.234-6.988-4.586z" transform="matrix(.17285 0 0 .17285 -168.155 -63.416)"/><path style="fill:#44b600" inkscape:connector-curvature="0" d="M1235.8 479.14c-11.362 18.408-8.945-.996-8.945-.996-.452 5.39-1.196 10.24-7.058 5.582 2.706 12.213-6.395 11.245-11.235 9.752l-.338-7.515c-11.04 13.42-11.882 5.224-10.563-4.618-2.116 8.672-4.589 10.265-7.56 1.945-.724 3.743.138 10.22-7.56 1.944-2.027 9.214-5.585 8.902-10.242 1.759-2.976 6.635-5.924 9.476-7.362.346l-2.769-5.882c-5.603.24-11.109.41-3.487-9.06-9.534 2.677-6.956.77-3.652-5.184-14.396-4.97-5.777-8.039-2.856-11.578-.745-3.838 11.87-1.894 10.89-3.137-6.968-8.83 4.176-14.068 7.204-10.599-1.144-1.065-1.527-13.346 7.671-9.239 13.255 5.918 10.528-6.889 10.406-5.636l1.894-7.551 6.193-3.746 4.82 8.584c-1.19-9.802 6.146-9.875 7.361-.346.69 5.415-3.766-8.876 3.511-3.93 11.797 8.015 9.954-3.5 7.18 2.391 5.388.11 6.325 3.212 5.253 7.665 6.474-3.89 11.093-5.733 5.415 3.788 4.462-1.23 10.535-4.648 7.216 4.671 9.486-2.646 5.945 3.466 2.821 9.3 8.827-8.368 9.422-4.18 7.864 3.292 7.05 1.388 10.087 3.525-.544 8.214l3.669 6.322c2.993 2.467 9.366 4.614-2.326 8.47 3.903 10.117-.28 11.79-7.204 10.6-9.151 7.06-6.598-.271-5.667-5.608z" transform="matrix(.17285 0 0 .17285 -168.155 -63.416)"/><path style="fill:#a05a2c" inkscape:connector-curvature="0" d="m1156.3 612.81-7.99-37.673 2.496-38.727c8.318-11.635 20.244-21.429 44.421-24.968 7.659-1.375 13.53 2.722 19.964 5.096l-7.985-8.153 16.97-11.21 1.497-11.21c-9.606 18.954-25.83 15.954-40.428 18.344l20.962-30.574-4.492-4.586c-3.206 12.54-9.19 17.986-14.973 23.949-8.793-5.46-17.106-11.411-21.961-20.892l-2.995 7.643 19.465 17.835c-7.708 11.024-16.433-1.335-22.959 8.153-7.617-10.209-9.49-23.35-11.979-36.179l-7.486 5.096 13.476 33.63-9.982 13.759c-16.127-21.375-29.242-50.95-48.913-62.676l-7.487 8.662c21.557 13.18 19.87 24.203 28.449 36.18l-11.98 25.987c-14.184-8.776-34.348-15.482-42.423-28.535l-2.995-19.363-4.99-8.153 1.996 23.95c-10.481 5.51-20.963-2.444-31.444-7.134l-1.498 5.095c20.698.248 87.231 56.795 82.852 49.427-5.03-8.463-11.566 73.412-13.975 72.358 39.99-3.414 46.656 8.362 66.385-5.13z" transform="matrix(.17285 0 0 .17285 -168.155 -63.416)"/><path style="fill:#44b600" inkscape:connector-curvature="0" d="M1061.7 484.24c-11.362 18.408-8.945-.996-8.945-.996-.452 5.39-1.196 10.24-7.058 5.582 2.706 12.213-6.394 11.245-11.235 9.752l-.338-7.515c-11.04 13.42-11.882 5.224-10.563-4.618-2.116 8.672-4.588 10.265-7.56 1.945-.724 3.743.138 10.22-7.56 1.944-2.027 9.214-5.585 8.902-10.242 1.759-2.976 6.635-5.924 9.476-7.362.346l-2.769-5.882c-5.603.24-11.109.409-3.487-9.06-9.534 2.677-6.956.77-3.652-5.184-14.396-4.97-5.777-8.039-2.856-11.578-.745-3.838 11.87-1.894 10.89-3.137-6.968-8.83 4.176-14.068 7.204-10.599-1.144-1.065-1.527-13.346 7.672-9.239 13.255 5.918 10.528-6.889 10.406-5.636l1.893-7.551 6.193-3.746 4.82 8.583c-1.19-9.8 6.146-9.874 7.361-.345.69 5.415-3.766-8.876 3.511-3.93 11.798 8.015 9.954-3.5 7.18 2.391 5.388.11 6.325 3.212 5.253 7.665 6.474-3.89 11.093-5.733 5.416 3.788 4.46-1.231 10.534-4.648 7.215 4.67 9.486-2.645 5.946 3.467 2.821 9.3 8.827-8.367 9.422-4.179 7.864 3.293 7.05 1.388 10.087 3.525-.544 8.214l3.67 6.322c2.992 2.467 9.365 4.614-2.327 8.47 3.904 10.117-.28 11.79-7.204 10.6-9.151 7.06-6.598-.271-5.667-5.608z" transform="matrix(.17285 0 0 .17285 -168.155 -63.416)"/><path style="fill:#c87137" inkscape:connector-curvature="0" d="M328.92 991.37c3.808-3.678 9.364-58.28 7.367-58.28-2.99-13.661-4.07-27.323-13.661-40.984-11.644-3.43-22.784-9.386-35.73-6.305l-19.967-9.984 15.238 2.102-16.29-31.527 21.019 31.527s2.627-18.39 2.102-16.289c-.526 2.102 1.576 15.763 1.576 15.763 23.183 3.853 29.977 7.707 43.086 11.56l8.407 43.086-5.78 39.934c7.281 8.182 6.58 15.224 4.184 22.025l-11.55-2.627z" transform="matrix(-.16419 0 0 .16762 85.121 -122.88)"/><path style="fill:#d38d5f" inkscape:connector-curvature="0" d="M347.32 991.94s-6.741-80.153-4.204-83.545c3.99-5.332-23.169-44.782-23.645-44.663-5.997-3.417-8.33-12.063-16.814-10.509l-26.798 3.153 15.763-6.306c-.925-8.031-11.399-11.29-17.34-16.814l18.39 7.882c5.456-6.877-.926-15.445-4.729-23.645 11.752 8.932 13.555 17.865 17.34 26.798 22.17 10.407 34.596 30.559 45.713 52.019-7.62 36.993-2.527 63.814-3.678 95.63z" transform="matrix(-.16419 0 0 .16762 85.121 -122.88)"/><path style="fill:#c87137" inkscape:connector-curvature="0" d="M347.85 991.89c.525-2.627.52-32.006.52-32.006l2.627-12.611s-5.254-4.204-3.678-6.305c1.577-2.102 3.153-19.441 3.153-19.441-2.512-8.544-1.166-15.801 4.729-21.543-3.632-3.519-1.852-8.84-1.576-13.661-2.928 3.903-2.667-22.717-1.577-26.272.616-2.01-11.034-33.628-11.034-33.628l-30.476-35.73c6.255 3.93 11.413 13.342 18.916 11.034l3.153-29.95 1.05 31c8.775-3.097 13.466-11.094 15.239-22.593.814 10.262-1.419 19.846-13.136 27.323 4.062 17.482 19.79 24.777 22.594 40.984 1.653-11.523 13.436-11.33 15.238-25.221l-3.153-31.001-5.254-32.052 8.407 23.119c8.927 1.567 12.88-5.572 16.289-13.661 2.365 3.04-5.14 21.014-13.136 15.763-3.198-2.1 1.05 29.425 1.05 29.425s13.137-.526 15.239-2.102c2.102-1.576 14.712-28.9 14.712-28.9l-5.255 19.968c16.255 3.049 20.196-10.32 28.9-17.34-8.42 29-36.617 31.63-56.223 45.713l-5.254 13.66s-7.882 2.628-7.882 5.255 2.628 16.29 2.628 16.29l2.101 17.864-3.152 13.661 3.152 21.543-5.254 25.747c-.974 9.672-2.353 19.141 2.102 31.527l-1.048 17.322-14.71-3.18z" transform="matrix(-.16419 0 0 .16762 85.121 -122.88)"/><path style="fill:#d38d5f" inkscape:connector-curvature="0" d="M401.44 995.61c-3.493-1.298-20.057-41.564-17.34-45.188l2.102-27.323-3.678-16.814 8.407-12.611s14.187-16.289 16.289-16.814c2.102-.525 13.66-4.203 13.66-4.203 24.506 13.55 38.195 29.01 38.884 46.764l-4.73-26.798c-9.267-4.25-17.88-10.464-25.746-18.916l2.102-4.204c11.332 12.645 27.258 6.917 44.137-2.627-17.783 5.01-35.796 10.707-46.764-4.73 1.925-3.208-19.365 4.768-24.17 6.832-1.904.817-21.09 9.675-21.543 11.034l-10.51 4.729c7.257-8.232 8.599-16.464 8.933-24.696l14.187-16.814c4.398-5.9 18.33-10.208 32.052-10.51 0 0-18.027 1.907-16.814-1.05 3.153-7.687 27.848-4.521 27.848-4.204-8.234-7.167-18.32-3.223-27.848-2.627-21.652 11.13-26.157 22.827-37.832 35.205l-8.407 131.89 36.781 3.678z" transform="matrix(-.16419 0 0 .16762 85.121 -122.88)"/><path style="fill:#502d16" inkscape:connector-curvature="0" d="M344.16 980.9c3.153-1.576 5.254-6.83 4.729-9.458-.525-2.627-3.678-3.153-2.627-5.254 1.05-2.102 2.627-16.29 2.627-16.29l-.525-12.084c-1.916-8.104-3.579-16.27 0-25.747l1.05-13.136 3.153-15.763s2.102 15.238 2.102 17.34c0 2.101-3.678 13.66-3.678 13.66l1.05 16.29-1.576 13.136 1.577 10.509-3.153 10.509 2.634 29.365-7.363-13.076z" transform="matrix(-.16419 0 0 .16762 85.121 -122.88)"/><path style="fill:#784421" inkscape:connector-curvature="0" d="M360.98 979.85v-47.29l4.204-22.594s-4.73-11.56-4.204-14.187c.525-2.627 4.729-25.221 4.729-25.221l-4.729-6.83 1.05-19.442 7.883-5.78 6.305-11.034 14.187-11.034s-22.07 27.323-23.645 35.73c-1.576 8.408 4.203 15.238 4.203 15.238l-3.152 15.763 2.102 16.29-3.679 22.593 3.153 6.306-5.254 13.66 6.305 23.646-8.933 24.17-.525-9.984z" transform="matrix(-.16419 0 0 .16762 85.121 -122.88)"/><path style="fill:#502d16" inkscape:connector-curvature="0" d="M380.42 885.27c5.162 3.067 5.707 7.672 6.83 12.085l6.831-9.458 5.78-1.576-2.627-11.034-3.152 1.05c2.008 4.636 3.4 8.656 2.627 10.51l-8.407-3.678 2.627 5.254c0 1.751-3.503.7-10.51-3.153z" transform="matrix(-.16419 0 0 .16762 85.121 -122.88)"/><path style="fill:#502d16" inkscape:connector-curvature="0" d="m374.64 785.96-2.627 12.085 5.254 19.441 8.933.525s2.627-1.05 5.78-4.203c3.152-3.153 5.254-7.882 5.254-7.882l-13.136 7.357s-3.678 3.152-4.729.525c-1.05-2.627-4.729-19.441-4.729-19.441l1.576-11.56-1.576 3.153z" transform="matrix(-.16419 0 0 .16762 85.121 -122.88)"/><path style="fill:#784421" inkscape:connector-curvature="0" d="M340.48 994.52c1.05-2.627 1.056-27.803 1.056-27.803l-4.203-2.627 3.678-8.407 1.05-9.984 3.679-11.56-3.153-20.492-.525-12.61s-5.255-15.239-9.458-15.239c-4.204 0-16.814-8.407-16.814-8.407l-14.712 2.102-12.085.525 15.763 2.628 8.932-1.051 14.187 7.881 9.984 12.611 2.101 28.374-2.627 24.17 2.102 31.001 1.046 8.887z" transform="matrix(-.16419 0 0 .16762 85.121 -122.88)"/><path style="fill:#784421" inkscape:connector-curvature="0" d="M295.82 845.86c4.729 0 27.323 17.865 27.323 17.865 4.819 3.849 4.781 17.41 14.712 11.034l5.78 17.865 7.881 11.56-6.83-27.848c-6.989-5.447-14.122-10.749-18.39-18.916l-18.916-9.458-11.56-2.102z" transform="matrix(-.16419 0 0 .16762 85.121 -122.88)"/><path style="fill:#784421" inkscape:connector-curvature="0" d="m369.39 990.36 3.153-20.492s-5.78-15.238-5.255-17.34c.526-2.102 3.678-22.069 3.153-24.17-.526-2.102.525-21.543.525-21.543l2.102-20.492c7.127-8.38 13.18-9.242 18.916-7.882-7.033-1.946-17.284 11.262-15.238 15.238 1.537 2.987-1.322 42.508 2.102 43.612-12.304 4.507 2.102 38.151 3.678 57.8l-13.136-4.73z" transform="matrix(-.16419 0 0 .16762 85.121 -122.88)"/><path style="fill:#502d16" inkscape:connector-curvature="0" d="M380.95 991.41s-5.254-14.187-5.254-18.39c0-4.204 3.152-4.729-.526-9.458s-3.678-20.492-3.678-20.492 6.83 15.763 6.83 17.865c0 2.102 3.153 15.238 3.153 15.238l5.255 7.356 1.05 10.51-6.83-2.628z" transform="matrix(-.16419 0 0 .16762 85.121 -122.88)"/><path style="fill:#784421" inkscape:connector-curvature="0" d="m383.57 904.71 24.17-8.932 14.712-14.712-38.883 23.645z" transform="matrix(-.16419 0 0 .16762 85.121 -122.88)"/><path style="fill:#502d16" inkscape:connector-curvature="0" d="m329.98 864.25 1.05 9.983 7.357-2.101-4.203-4.204-4.204-3.678z" transform="matrix(-.16419 0 0 .16762 85.121 -122.88)"/><path style="fill:url(#i)" inkscape:connector-curvature="0" d="M1050 471.41c-.993 15.728-5 2.443-5 2.443 1.23 3.615 2.157 6.983-2.21 6.015 4.757 6.904-.318 9.42-3.284 10.13l-2.226-4.706c-2.18 12.416-4.858 7.447-6.841.677 1.243 6.294.37 8.168-3.467 3.853.637 2.652 2.856 6.51-3.467 3.853 1.438 6.61-.528 7.637-4.936 4.658.235 5.283-.55 8.123-3.797 2.76l-3.066-2.82c-2.896 2.084-5.76 4.09-4.311-4.613-4.31 5.004-3.467 2.89-3.342-2.068-8.965 1.772-5.244-3.167-4.664-6.445-1.439-2.206 5.76-5.306 4.903-5.766-6.089-3.265-1.625-10.466.921-9.284-.895-.29-4.442-8.038 1.54-8.572 8.618-.77 3.688-8.049 3.965-7.203l-1.056-5.498 2.253-4.538 4.886 3.847c-3.299-5.879.56-8.455 3.798-2.758 1.84 3.236-4.409-4.398.785-3.733 8.42 1.079 4.309-5.675 4.448-.94 2.877-1.785 4.218-.118 4.864 3.11 2.363-4.728 4.303-7.502 3.895.564 2.023-2.328 4.303-6.614 5.086.51 4.294-4.967 4.087.176 4.024 4.995 2.388-8.41 3.843-5.929 5.054-.597 4.106-1.539 6.293-1.214 1.95 5.458l3.662 2.793c2.254.551 6.208-.267 1.077 6.236 4.82 5.148 3.064 7.662-.921 9.284-2.915 7.685-3.562 2.1-4.523-1.645z" transform="matrix(.17285 0 0 .17285 -168.155 -63.416)"/><path style="fill:url(#j)" inkscape:connector-curvature="0" d="M1082 468.79c-20.572 5.684-5.919-6.919-5.919-6.919-3.91 3.653-7.674 6.705-8.896-.774-6.113 10.856-12.166 3.85-14.735-.597l4.738-5.763c-17.026 2.237-12.207-4.374-4.707-10.702-7.31 4.916-10.186 4.378-6.851-3.798-3.017 2.253-6.68 7.614-6.852-3.798-7.604 5.376-10.015 2.686-8.7-5.79-6.592 2.824-10.646 2.875-5.645-4.836l1.865-6.242c-4.281-3.698-8.443-7.382 3.446-9.077-8.79-4.623-5.627-4.243.754-6.338-7.292-13.613 1.083-9.909 5.58-10.492 1.999-3.338 9.99 6.817 10.092 5.224.734-11.315 12.406-7.46 12.332-2.814-.135-1.575 7.732-10.873 11.773-1.491 5.824 13.52 12.315 2.213 11.394 3.05l6.403-4.246 7.041 1.528-2.15 9.647c5.628-8.033 11.075-3.013 5.645 4.837-3.085 4.461 3.119-9.134 5.191-.463 3.36 14.055 9.643 4.31 3.695 6.726 3.89 3.806 2.521 6.736-1.222 9.27 7.343 1.616 11.964 3.455 1.47 6.532 4.099 2.18 10.834 3.866 2.209 8.426 8.734 4.614 2.074 6.662-4.095 8.792 12.045-.05 9.704 3.442 3.6 7.86 4.266 5.898 5.082 9.57-5.85 5.667l-1.496 7.188c.565 3.884 3.829 9.871-7.33 4.622-3.842 10.142-8.029 8.48-12.332 2.815-11.416-1.135-4.675-4.762-.449-8.044z" transform="matrix(.17285 0 0 .17285 -168.155 -63.416)"/><path style="fill:#71c837" inkscape:connector-curvature="0" d="M1214.2 521.12c-2.506 2.987-3.74 7.704-9.982 5.605l.998-8.662-9.982 2.038-.5-9.682c-11.781-6.557-1.245-7.048 1.498-8.662l3.993-3.058 4.991 2.039c-1.413-5.254-2.975-10.641 5.99-6.624-4.553-10.061 1.671-4.405 5.989-1.53-3.376-6.25-5.715-10.232 3.993-7.133 2.904-6.74 4.365-1.686 5.989 2.038 11.637-10.196 7.455.602 6.488 7.134 7.183-3.43 12.455-4.713 6.489 6.624 16.39-5.64 7.179 2.659 4.99 7.134 1.705 4.976 26.61 6.003 0 15.796 1.595 14.601-4.802 8.805-10.98 3.567 3.862 12.508-.795 8.71-7.486 1.02-4.922 3.716-8.472 5.33-5.49-3.058-7.127 6.635-7.768 2.234-6.988-4.586z" transform="matrix(.17285 0 0 .17285 -168.155 -63.416)"/><path style="fill:url(#k)" inkscape:connector-curvature="0" d="M1244.8 465.38c-11.362 18.408-8.945-.996-8.945-.996-.452 5.39-1.196 10.24-7.058 5.582 2.706 12.213-6.395 11.245-11.236 9.752l-.338-7.515c-11.04 13.42-11.882 5.224-10.563-4.618-2.116 8.672-4.589 10.265-7.56 1.945-.724 3.743.138 10.22-7.56 1.944-2.027 9.214-5.585 8.902-10.242 1.759-2.976 6.635-5.924 9.476-7.362.346l-2.769-5.882c-5.603.24-11.109.409-3.487-9.06-9.534 2.677-6.956.77-3.652-5.184-14.396-4.97-5.777-8.039-2.856-11.578-.745-3.838 11.87-1.894 10.89-3.137-6.968-8.83 4.176-14.068 7.204-10.599-1.144-1.065-1.527-13.346 7.671-9.239 13.256 5.918 10.529-6.889 10.407-5.636l1.893-7.551 6.193-3.746 4.82 8.583c-1.19-9.8 6.146-9.874 7.361-.345.69 5.415-3.766-8.876 3.511-3.93 11.796 8.015 9.954-3.5 7.18 2.391 5.388.11 6.325 3.212 5.253 7.665 6.474-3.89 11.093-5.733 5.415 3.788 4.462-1.231 10.535-4.648 7.216 4.67 9.486-2.645 5.946 3.467 2.821 9.3 8.827-8.367 9.422-4.179 7.864 3.293 7.05 1.388 10.087 3.525-.544 8.214l3.669 6.322c2.993 2.467 9.366 4.614-2.326 8.47 3.903 10.117-.28 11.79-7.204 10.6-9.151 7.06-6.598-.271-5.667-5.608z" transform="matrix(.17285 0 0 .17285 -168.155 -63.416)"/><path style="fill:url(#l)" inkscape:connector-curvature="0" d="M1054 539.98c-2.506 2.987-3.74 7.704-9.982 5.605l.998-8.662-9.982 2.038-.5-9.682c-11.781-6.557-1.245-7.048 1.498-8.662l3.993-3.058 4.991 2.039c-1.413-5.254-2.976-10.641 5.99-6.624-4.553-10.061 1.671-4.405 5.989-1.53-3.376-6.25-5.715-10.232 3.993-7.133 2.904-6.74 4.365-1.686 5.989 2.038 11.637-10.196 7.455.602 6.488 7.134 7.183-3.43 12.455-4.713 6.489 6.624 16.39-5.64 7.179 2.659 4.99 7.134 1.705 4.976 26.61 6.003 0 15.796 1.595 14.601-4.802 8.805-10.98 3.567 3.862 12.508-.795 8.71-7.486 1.02-4.922 3.716-8.472 5.33-5.49-3.058-7.127 6.635-7.768 2.234-6.988-4.586z" transform="matrix(.17285 0 0 .17285 -168.155 -63.416)"/><path style="fill:#44b600" inkscape:connector-curvature="0" d="M1077.5 498.19c-2.43 21.616-8.485 3.057-8.485 3.057 1.88 5.06 3.266 9.759-3.993 8.153 7.621 9.812-.992 12.964-5.989 13.758l-3.494-6.624c-4.257 16.978-8.493 9.964-11.48.51 1.772 8.751.22 11.28-5.989 5.095.936 3.694 4.46 9.15-5.99 5.096 2.083 9.2-1.256 10.494-8.484 6.115.133 7.296-1.318 11.16-6.489 3.566l-4.99-4.076c-4.949 2.694-9.84 5.281-6.988-6.624-7.457 6.63-5.942 3.77-5.49-3.058-15.085 1.886-8.618-4.69-7.487-9.172-2.3-3.13 9.896-6.956 8.485-7.643-10.027-4.878-2.205-14.526 1.996-12.74-1.483-.453-7.038-11.353 2.995-11.72 14.458-.527 6.566-10.864 6.988-9.68l-1.498-7.644 3.993-6.115 7.986 5.605c-5.231-8.307 1.35-11.619 6.488-3.567 2.92 4.576-7.16-6.334 1.498-5.095 14.033 2.008 7.486-7.555 7.486-1.02 4.902-2.283 7.063.099 7.986 4.587 4.185-6.37 7.566-10.073 6.488 1.019 3.499-3.083 7.523-8.848 8.485 1.019 7.427-6.58 6.83.495 6.489 7.134 4.406-11.445 6.719-7.933 8.484-.51 6.944-1.867 10.588-1.283 2.995 7.644l5.99 4.076c3.743.9 10.398.017 1.497 8.663 7.81 7.393 4.749 10.75-1.997 12.739-5.253 10.41-6.062 2.674-7.487-2.548z" transform="matrix(.17285 0 0 .17285 -168.155 -63.416)"/><path style="fill:#207b04" inkscape:connector-curvature="0" d="M1136.5 518.89c-11.362 18.408-8.945-.996-8.945-.996-.452 5.39-1.196 10.24-7.058 5.582 2.706 12.213-6.395 11.245-11.235 9.752l-.338-7.515c-11.04 13.42-11.882 5.224-10.563-4.618-2.116 8.672-4.589 10.265-7.56 1.945-.724 3.743.138 10.22-7.56 1.944-2.027 9.214-5.585 8.902-10.242 1.759-2.976 6.635-5.924 9.476-7.362.346l-2.769-5.882c-5.603.24-11.109.409-3.487-9.06-9.534 2.677-6.956.77-3.652-5.184-14.396-4.97-5.777-8.039-2.856-11.578-.745-3.838 11.87-1.894 10.89-3.137-6.968-8.83 4.176-14.068 7.204-10.599-1.144-1.065-1.527-13.346 7.671-9.239 13.255 5.918 10.528-6.889 10.406-5.636l1.894-7.551 6.193-3.746 4.82 8.583c-1.19-9.8 6.146-9.874 7.36-.345.691 5.415-3.765-8.876 3.512-3.93 11.797 8.015 9.954-3.5 7.18 2.391 5.388.11 6.325 3.212 5.253 7.665 6.474-3.89 11.093-5.733 5.415 3.788 4.462-1.231 10.535-4.648 7.216 4.67 9.486-2.645 5.945 3.467 2.821 9.3 8.827-8.367 9.422-4.179 7.864 3.293 7.05 1.388 10.087 3.525-.544 8.214l3.669 6.322c2.993 2.467 9.366 4.614-2.326 8.47 3.903 10.117-.28 11.79-7.204 10.6-9.151 7.06-6.598-.271-5.667-5.608z" transform="matrix(.17285 0 0 .17285 -168.155 -63.416)"/><path style="fill:#207b04" inkscape:connector-curvature="0" d="M1149.3 499.72c-2.506 2.987-3.74 7.704-9.982 5.605l.998-8.662-9.982 2.038-.5-9.682c-11.781-6.557-1.245-7.048 1.498-8.662l3.993-3.058 4.991 2.039c-1.413-5.254-2.976-10.641 5.99-6.625-4.553-10.06 1.671-4.404 5.989-1.528-3.376-6.252-5.715-10.233 3.993-7.134 2.904-6.74 4.365-1.686 5.989 2.038 11.637-10.196 7.455.603 6.488 7.134 7.183-3.43 12.455-4.713 6.489 6.624 16.39-5.64 7.179 2.659 4.99 7.134 1.705 4.976 26.61 6.003 0 15.796 1.595 14.601-4.802 8.805-10.98 3.567 3.862 12.508-.795 8.71-7.486 1.02-4.922 3.716-8.472 5.33-5.49-3.058-7.127 6.635-7.768 2.234-6.988-4.586z" transform="matrix(.17285 0 0 .17285 -168.155 -63.416)"/><path style="fill:url(#m)" inkscape:connector-curvature="0" d="M1150.8 475.07c-1.909 2.123-2.85 5.475-7.604 3.984l.76-6.157-7.604 1.449-.38-6.881c-8.976-4.66-.95-5.01 1.14-6.157l3.042-2.173 3.802 1.449c-1.076-3.734-2.267-7.563 4.563-4.708-3.468-7.15 1.273-3.13 4.562-1.087-2.571-4.443-4.353-7.272 3.042-5.07 2.213-4.79 3.326-1.198 4.562 1.449 8.865-7.247 5.68.428 4.943 5.07 5.472-2.438 9.488-3.35 4.943 4.708 12.486-4.009 5.469 1.89 3.802 5.07 1.298 3.536 20.271 4.266 0 11.227 1.215 10.377-3.658 6.258-8.365 2.535 2.942 8.89-.606 6.19-5.703.725-3.75 2.641-6.454 3.789-4.182-2.173-5.43 4.715-5.918 1.587-5.323-3.26z" transform="matrix(.17285 0 0 .17285 -168.155 -63.416)"/><path style="fill:url(#n)" inkscape:connector-curvature="0" d="M1156 418.06c-1.652 21.693-8.37 3.373-8.37 3.373 2.061 4.986 3.616 9.63-3.696 8.298 7.968 9.519-.526 12.992-5.49 13.973l-3.73-6.49c-3.644 17.127-8.13 10.276-11.453.94 2.085 8.68.625 11.266-5.802 5.317 1.067 3.657 4.786 8.977-5.802 5.317 2.412 9.116-.879 10.534-8.26 6.428.396 7.287-.916 11.203-6.355 3.808l-5.135-3.887c-4.848 2.878-9.642 5.647-7.22-6.358-7.214 6.905-5.803 3.99-5.597-2.85-15.007 2.45-8.78-4.364-7.812-8.885-2.41-3.041 9.64-7.323 8.205-7.956-10.196-4.499-2.726-14.434 1.537-12.805-1.499-.398-7.442-11.082 2.57-11.824 14.43-1.069 6.172-11.104 6.636-9.937l-1.772-7.582 3.77-6.26 8.183 5.302c-5.527-8.106.932-11.661 6.355-3.808 3.083 4.463-7.383-6.062 1.313-5.148 14.096 1.481 7.21-7.83 7.445-1.3 4.817-2.465 7.062-.166 8.146 4.285 3.952-6.522 7.198-10.35 6.52.775 3.386-3.212 7.2-9.125 8.516.7 7.186-6.854 6.843.239 6.74 6.886 3.992-11.602 6.43-8.18 8.461-.827 6.873-2.126 10.534-1.68 3.268 7.526l6.132 3.849c3.774.759 10.393-.374 1.808 8.6 8.07 7.096 5.132 10.566-1.537 12.806-4.875 10.6-5.962 2.899-7.574-2.266z" transform="matrix(.17285 0 0 .17285 -168.155 -63.416)"/><path style="fill:#4bbe01" inkscape:connector-curvature="0" d="M1136.9 447.75c-2.506 2.987-3.74 7.704-9.982 5.605l.998-8.662-9.982 2.038-.5-9.682c-11.781-6.557-1.245-7.048 1.498-8.662l3.993-3.058 4.991 2.039c-1.413-5.254-2.975-10.641 5.99-6.625-4.553-10.06 1.671-4.404 5.989-1.528-3.376-6.252-5.715-10.233 3.993-7.134 2.904-6.74 4.365-1.686 5.989 2.038 11.637-10.196 7.455.603 6.488 7.134 7.183-3.43 12.455-4.713 6.489 6.624 16.39-5.64 7.179 2.659 4.99 7.134 1.705 4.976 26.61 6.003 0 15.796 1.595 14.6-4.802 8.805-10.98 3.567 3.862 12.508-.795 8.71-7.486 1.02-4.922 3.716-8.472 5.33-5.49-3.058-7.127 6.635-7.768 2.234-6.988-4.586z" transform="matrix(.17285 0 0 .17285 -168.155 -63.416)"/></g></svg>