<svg xmlns:dc="http://purl.org/dc/elements/1.1/" xmlns:cc="http://creativecommons.org/ns#" xmlns:rdf="http://www.w3.org/1999/02/22-rdf-syntax-ns#" xmlns="http://www.w3.org/2000/svg" xmlns:xlink="http://www.w3.org/1999/xlink" width="640" height="640" viewBox="0 0 640 640.00003" version="1.1" id="svg1296"><defs id="defs1290"><linearGradient x1="289.64136" y1="133.23027" x2="430.44952" y2="883.44464" id="b" xlink:href="#a" gradientUnits="userSpaceOnUse" gradientTransform="matrix(.28176 0 0 .31633 206.088 15.07)"/><linearGradient y2="440.09" x2="484.17999" gradientTransform="matrix(1 0 0 1.1495 0 -225.41)" y1="222.09" gradientUnits="userSpaceOnUse" x1="480" id="a"><stop offset="0" style="stop-color:#3cc1f1;stop-opacity:1" id="stop5"/><stop offset="1" style="stop-color:#85d8f6;stop-opacity:1" id="stop7"/></linearGradient></defs><metadata id="metadata1293"><rdf:RDF><cc:Work><dc:format>image/svg+xml</dc:format><dc:type rdf:resource="http://purl.org/dc/dcmitype/StillImage"/><dc:title/><dc:date>2023</dc:date><dc:creator><cc:Agent><dc:title>Timothée Giet</dc:title></cc:Agent></dc:creator><cc:license rdf:resource="http://creativecommons.org/licenses/by-sa/4.0/"/></cc:Work><cc:License rdf:about="http://creativecommons.org/licenses/by-sa/4.0/"><cc:permits rdf:resource="http://creativecommons.org/ns#Reproduction"/><cc:permits rdf:resource="http://creativecommons.org/ns#Distribution"/><cc:requires rdf:resource="http://creativecommons.org/ns#Notice"/><cc:requires rdf:resource="http://creativecommons.org/ns#Attribution"/><cc:permits rdf:resource="http://creativecommons.org/ns#DerivativeWorks"/><cc:requires rdf:resource="http://creativecommons.org/ns#ShareAlike"/></cc:License></rdf:RDF></metadata><g id="layer1"><rect width="640" height="324.46909" x="0" y="0" style="fill:url(#b);fill-opacity:1;stroke:none;stroke-width:1" id="rect14"/><path d="M297.466 314.133c-75.722 5.195-178.554 27.333-178.554 27.333C116.804 380.058 552.882 579.59 640 582.355V318.578s-86.508 41.004-144.69 42.126c-97.074-36.13-111.123-52.891-197.844-46.571z" style="fill:#64b560;fill-opacity:1;stroke:none" id="path34"/><path d="m524.897 229.717 11.112-8.012 7.58-15.481-86.894-8.659-58.605 15.774-18.848 12.095 15.323 3.852 71.475-2.954z" style="fill:#8c8c8c;fill-opacity:1;fill-rule:evenodd;stroke:none;stroke-width:1" id="path52"/><path d="m558.852 305.768 21.893-12.466-34.074-19.14-86.893-8.659-112.12 24.86-1.72 6.424 20.427 7.879 102.758-10.394z" style="fill:#8c8c8c;fill-opacity:1;fill-rule:evenodd;stroke:none;stroke-width:1" id="path54"/><path d="M0 311.317c219.387-28.691 638.023 90.276 638.023 90.276l3.954 242.363L0 640z" style="fill:#4da849;fill-opacity:1;fill-rule:evenodd;stroke:none;stroke-width:1px;stroke-linecap:butt;stroke-linejoin:miter;stroke-opacity:1" id="path50"/><path d="m531.296 180.56 20.636-2.533 17.95 9.612-27.597.415z" style="fill:#424242;fill-opacity:1;fill-rule:evenodd;stroke:none;stroke-width:1" id="path56"/><path d="m557.25 161.491-26.078 19.177 21.073-2.424 5.005-16.753z" style="fill:#b32222;fill-opacity:1;fill-rule:evenodd;stroke:none;stroke-width:1" id="path58"/><path d="M557.216 161.655c-1.929 5.844-4.886 14.93-5.134 16.556l17.701 9.638-12.567-26.193z" style="fill:#b32222;fill-opacity:1;fill-rule:evenodd;stroke:none;stroke-width:1" id="path60"/><path d="m335.012 226.647 3.33 17.566 14.584 5.632z" style="fill:#b32222;fill-opacity:1;fill-rule:evenodd;stroke:none;stroke-width:1" id="path68"/><path d="m335.017 226.636-14.254 25.93 18.423-8.47z" style="fill:#b32222;fill-opacity:1;fill-rule:evenodd;stroke:none;stroke-width:1" id="path70"/><path d="m321.314 252.332 16.719-8.47 14.823 5.934-8.836 5.651z" style="fill:#474747;fill-opacity:1;fill-rule:evenodd;stroke:none;stroke-width:1" id="path72"/><path d="m466.228 210.403 58.998 15.497-3.216 43.63-56.967-12.077z" style="fill:#8c8c8c;fill-opacity:1;fill-rule:evenodd;stroke:none;stroke-width:1" id="path74"/><path d="M499.412 224.146c5.944 1.309 10.548 7.04 10.282 12.778l-.055 1.18-1.39 28.406-21.426-4.716 1.343-28.901c0-.037.006-.12.006-.12-.002-.195.017-.384.027-.58.266-5.737 5.269-9.355 11.213-8.047z" style="fill:#3a3a3a;fill-opacity:1;fill-rule:nonzero;stroke:none;stroke-width:1" id="path76"/><path d="M394.612 225.609c22.375-6.573 46.623-11.766 71.347-15.401-.805 18.229-2.858 36.115-4.549 54.1l-66.08 6.318c-.049-6.598.18-29.597-.718-45.017z" style="fill:#f2f2f2;fill-opacity:1;fill-rule:evenodd;stroke:none;stroke-width:1" id="path78"/><path d="M425.255 223.218c-5.535.78-9.965 4.47-9.893 8.226l.014.772.424 18.597 19.95-2.807-.363-18.921v-.078c.007-.13-.006-.252-.009-.381-.072-3.756-4.587-6.187-10.122-5.407z" style="fill:#3a3a3a;fill-opacity:1;fill-rule:nonzero;stroke:none;stroke-width:1" id="path80"/><path d="m512.832 403.785 16.162-7.75 31.231-95.928-20.31-11.698-35.606 1.27-49.943-14.981c-.554-.016-44.786 6.538-88.4 24.35.042 3.035 13.881 103.66 13.881 103.66l77.167 3.337 26.547-1.54zm27.09-115.232L512.89 403.48" style="fill:#f2f2f2;fill-opacity:1;fill-rule:evenodd;stroke:none;stroke-width:1" id="path82"/><path d="m540.636 288.181 19.913 11.58c-11.47 35.87-19.077 58.72-31.008 96.432l-15.61 7.393c9.339-41.993 16.635-72.527 26.705-115.405z" style="fill:#8c8c8c;fill-opacity:1;fill-rule:evenodd;stroke:none;stroke-width:1" id="path84"/><path d="m454.564 274.217 49.438 14.778c-4.42 38.563-12.333 77.853-21.288 115.755l-25.548 1.261c2.585-43.297.265-88.178-2.602-131.794z" style="fill:#8c8c8c;fill-opacity:1;fill-rule:evenodd;stroke:none;stroke-width:1" id="path86"/><path d="m512.832 403.785 16.162-7.75 31.231-95.928-20.31-11.698-35.606 1.27-49.943-14.981c-.554-.016-44.786 6.538-88.4 24.35.042 3.035 13.881 103.66 13.881 103.66l77.167 3.337 26.547-1.54z" style="fill:none;stroke:none;stroke-width:1" id="path88"/><path d="m548.15 295.878 9.11-3.282 8.41 4.12-11.601 3.142-5.917-3.979z" style="fill:#8c8c8c;fill-opacity:1;fill-rule:evenodd;stroke:none;stroke-width:1" id="path90"/><path d="m488.665 288.826 5.295-3.142 5.45 2.025-5.762 2.164z" style="fill:#8c8c8c;fill-opacity:1;fill-rule:evenodd;stroke:none;stroke-width:1" id="path92"/><path d="m475.584 284.915 5.295-3.142 5.45 2.025-5.761 2.165z" style="fill:#8c8c8c;fill-opacity:1;fill-rule:evenodd;stroke:none;stroke-width:1" id="path94"/><path d="M392.633 273.6s4.424-1.961 2.2-47.952c44.293-13.85 71.622-15.203 71.622-15.203l58.813 15.463s-2.225 32.056-2.83 52.099c-68.491-31.28-129.804-4.407-129.804-4.407z" style="fill:none;stroke:none;stroke-width:1" id="path96"/><path d="m461.18 280.656 5.294-3.142 5.451 2.026-5.373 2.233z" style="fill:#8c8c8c;fill-opacity:1;fill-rule:evenodd;stroke:none;stroke-width:1" id="path98"/><path d="M496.03 224.06c4.948 1.986 8.523 7.023 8.281 12.022-.02.394-.025.787-.045 1.172l-1.428 27.967 5.326 1.255c.41-5.245.403-10.293.747-14.78.58-7.581.999-12.534.672-16.797-.297-3.863-5.59-11.9-13.552-10.838z" style="fill:#f2f2f2;fill-opacity:1;fill-rule:nonzero;stroke:none;stroke-width:1" id="path100"/><path d="M428.385 223.205c-4.636 1.236-8.092 4.484-8.022 7.757.006.259 0 .515.006.767l.471 18.311-5.388.752c-.22-3.436-.061-6.737-.243-9.676-.305-4.968-.542-8.212-.11-10.996.39-2.523 5.956-7.71 13.284-6.915z" style="fill:#d1d1d1;fill-opacity:1;fill-rule:nonzero;stroke:none;stroke-width:1" id="path102"/><path d="M392.633 273.6s4.424-1.961 2.2-47.952c44.293-13.85 71.622-15.203 71.622-15.203l58.813 15.463s-2.225 32.056-2.83 52.099c-68.491-31.28-129.804-4.407-129.804-4.407z" style="fill:none;stroke:none;stroke-width:1" id="path104"/><path d="M454.132 274.692c1.684 43.888 5.396 87.919 2.975 131.193" style="fill:none;stroke:none;stroke-width:1" id="path106"/><path d="M504.145 289.786c-4.239 39.472-11.168 77.365-20.8 114.764" style="fill:none;stroke:none;stroke-width:1" id="path108"/><path d="m465.919 210.757-2.42 52.14" style="fill:none;stroke:none;stroke-width:1" id="path110"/><path d="m466.484 209.743-22.147 27.425 21.584-6.398.562-21.027z" style="fill:#b32222;fill-opacity:1;fill-rule:evenodd;stroke:none;stroke-width:1" id="path112"/><path d="M466.081 210.182c-.224 6.058-.555 18.315-.778 19.943l18.726 8.172z" style="fill:#b32222;fill-opacity:1;fill-rule:evenodd;stroke:none;stroke-width:1" id="path114"/><path d="m342.733 271.53 2.63 25.002c21.206-9.147 70.416-23.361 107.983-27.491l-.222-15.191-23.402 3.191-.6-12.56-18.577 3.796.574 11.783-16.403 4.843.18-10.342-15.975 3.849-.027 11.729-14.851 5.263-.484-12.227-20.825 8.355z" style="fill:#f2f2f2;fill-opacity:1;fill-rule:evenodd;stroke:none;stroke-width:1" id="path116"/><path d="m453.346 253.645-.222 15.212 55.34 17.411 3.331-19.427-14-3.85.666-6.78-12.889-3.117-.668 7.332z" style="fill:#8c8c8c;fill-opacity:1;fill-rule:evenodd;stroke:none;stroke-width:1" id="path118"/><path d="M512.197 259.993c-.36 8.35-2.037 17.478-3.43 26.156l42.054-5.81.061-27.993-13.986 2.98-.471 9.592-9.744 2.33.76-11.015-15.245 3.76z" style="fill:#f2f2f2;fill-opacity:1;fill-rule:evenodd;stroke:none;stroke-width:1" id="path120"/><path d="m550.022 265.924 13.9 4.604.324-11.293 22.89 15.945-6.333 18.146-32.336-13.014z" style="fill:#8c8c8c;fill-opacity:1;fill-rule:evenodd;stroke:none;stroke-width:1" id="path122"/><path d="M345.282 296.776c46.08-19.879 107.804-27.734 107.804-27.734l56.095 17.107 39.138-5.703 32.51 12.756 6.441-17.93-22.858-15.785-.407 12.014-14.129-5.741 1.065-13.458-14.14 3.33-.475 9.383-9.735 2.185.527-10.636-15.15 3.39-.337 6.793-13.797-3.817.32-6.265-12.676-3.656-.965 7.588-31.427-6.847-23.556 2.96-.262-12.3-18.825 3.973.299 11.68-16.067 4.988.188-10.257-16.373 3.47.327 12.1-14.705 5.086-.252-12.784-21.56 8.88s2.16 21.263 2.982 25.23z" style="fill:none;stroke:none;stroke-width:1" id="path124"/><path d="m550.11 288.429 10.11-4.282-3.349 7.82-9.585 3.46z" style="fill:#f2f2f2;fill-opacity:1;fill-rule:evenodd;stroke:none;stroke-width:1" id="path126"/><path d="m489.689 283.542 5.828-3.235-1.869 5.725-5.138 2.863z" style="fill:#f2f2f2;fill-opacity:1;fill-rule:evenodd;stroke:none;stroke-width:1" id="path128"/><path d="m476.92 279.492 5.828-3.234-1.869 5.724-5.138 2.863 1.179-5.354z" style="fill:#f2f2f2;fill-opacity:1;fill-rule:evenodd;stroke:none;stroke-width:1" id="path130"/><path d="m453.197 253.734-.073 15.232" style="fill:none;stroke:none;stroke-width:1" id="path132"/><path d="M509.386 285.827c.752-6.347 1.932-12.854 2.252-19.04" style="fill:none;stroke:none;stroke-width:1" id="path134"/><path d="m548.491 280.255 1.37-14.366" style="fill:none;stroke:none;stroke-width:1" id="path136"/><path d="m334.734 226.118 18.513 23.43-14.85-5.573-18.332 7.648zm3.307 17.663-3.23-17.077m-14.54 24.974 7.15 1.127 22.338-.784 3.327-2.294" style="fill:none;stroke:none;stroke-width:1" id="path138"/><path d="m557.413 160.138-27.176 20.19 21.856-2.42 18.3 9.759zm-4.894 17.62 4.701-17.05m12.654 26.845-8.606.09-27.057-4.475-3.832-2.645" style="fill:none;stroke:none;stroke-width:1" id="path142"/><path d="m596.44 231.152-26.455 20.14 29.153.286z" style="fill:#b32222;fill-opacity:1;fill-rule:evenodd;stroke:none;stroke-width:1" id="path144"/><path d="m596.281 231.625.757 19.194 16.5 12z" style="fill:#b32222;fill-opacity:1;fill-rule:evenodd;stroke:none;stroke-width:1" id="path146"/><path d="m570.153 251.304 27.157-.508 15.84 11.61-24.237-.526-12.645-6.94-6.115-3.638z" style="fill:#424242;fill-opacity:1;fill-rule:evenodd;stroke:none;stroke-width:1" id="path148"/><path d="m596.737 230.297-27.251 20.92 27.552-.44 17.615 12.202-17.917-32.682zm.658 20.285-.976-19.7m18.028 32.152-7.22-1.28-32.588-7.846-4.992-2.512" style="fill:none;stroke:none;stroke-width:1" id="path150"/><path d="m444.465 236.574 20.458-6.637 19.78 8.658-16.773 1.725z" style="fill:#424242;fill-opacity:1;fill-rule:evenodd;stroke:none;stroke-width:1" id="path152"/><path d="m465.99 209.806 18.736 28.393-19.787-8.774-21.396 6.987zm-.985 19.252 1.063-18.666m-22.319 26.075 8.392 1.079 24.836 2.04 7.588-1.21" style="fill:none;stroke:none;stroke-width:1" id="path154"/><path d="m452.43 235.703-.76 24.362 12.357-2.373 1.101-26.248z" style="fill:#f2f2f2;fill-opacity:1;fill-rule:evenodd;stroke:none;stroke-width:1" id="path156"/><path d="m476.555 262.788.593-24.713-12.02-6.561-1.1 25.758z" style="fill:#8c8c8c;fill-opacity:1;fill-rule:evenodd;stroke:none;stroke-width:1" id="path158"/><path d="m452.685 260.065 11.342-2.373 11.852 4.747-11.937.698z" style="fill:#8c8c8c;fill-opacity:1;fill-rule:evenodd;stroke:none;stroke-width:1" id="path160"/><path d="m451.841 259.817 11.8 3.338 12.928-.533.648-24.545-12.17-6.691-12.58 4.21-.626 24.222zm12.346-2.234.74-26.136m11.558 30.973-12.437-4.716-11.876 2.09" style="fill:none;stroke:none;stroke-width:1" id="path162"/><path d="M539.85 288.303c-9.015 38.885-18.404 77.531-26.668 115.05" style="fill:none;stroke:none;stroke-width:1" id="path164"/><path d="m575.08 254.053-6.688 25.201 20.871.558 6.81-25.968-20.994.21z" style="fill:#f2f2f2;fill-opacity:1;fill-rule:evenodd;stroke:none;stroke-width:1" id="path166"/><path d="m598.056 287.98 8.788-25.942-11.053-7.518-8.719 25.687 10.985 7.773z" style="fill:#8c8c8c;fill-opacity:1;fill-rule:evenodd;stroke:none;stroke-width:1" id="path168"/><path d="m569.195 279.573 20.22.199 8.479 7.999-12.174-.092-16.526-8.106z" style="fill:#8c8c8c;fill-opacity:1;fill-rule:evenodd;stroke:none;stroke-width:1" id="path170"/><path d="m568.24 279.064 17.463 8.57 12.93.326 8.69-26.201-10.991-7.91-21.403-.012zm19.152.578 8.82-25.733m2.336 33.85-11.295-7.997-18.683-.723" style="fill:none;stroke:none;stroke-width:1" id="path172"/><path d="m324.797 251.692 2.47 33.247 15.416-5.622-3.991-32.772z" style="fill:#f2f2f2;fill-opacity:1;fill-rule:evenodd;stroke:none;stroke-width:1" id="path174"/><path d="m351.675 284.898-1.921-34.485-10.703-3.996 2.132 33.656z" style="fill:#8c8c8c;fill-opacity:1;fill-rule:evenodd;stroke:none;stroke-width:1" id="path176"/><path d="m326.26 284.07 14.88-5.138 11.566 5.434-14.84 5.126-11.605-5.422z" style="fill:#8c8c8c;fill-opacity:1;fill-rule:evenodd;stroke:none;stroke-width:1" id="path178"/><path d="m327.15 285.332 10.657 4.138 14.088-3.964-2.554-35.074-10.582-4.106-13.824 5.424zm14.004-5.287-2.516-33.658m13.172 38.918-10.797-5.14-13.533 5.142" style="fill:none;stroke:none;stroke-width:1" id="path180"/><path d="m474.328 176.237-1.4 29.37c-33.163 1.882-64.714 7.824-93.893 19.743l-2.71-16.603 32.979-11.58 1.401 9.207 8.035-1.883-.747-11.72 11.678-3.768.654 12.767 13.827-3.21-.374-12.068 10.65-1.953.655 12.209 10.094-1.74.183-15.632z" style="fill:#f2f2f2;fill-opacity:1;fill-rule:evenodd;stroke:none;stroke-width:1" id="path182"/><path d="m472.972 205.638 63.288 15.589 6.87-12.235-6.737-2.564 1.189-9.077-8.59-3.354-2.509 9.964-9.38-2.17 2.113-9.966-9.513-3.748-1.85 10.458-10.305-2.368 1.453-11.84-10.834-3.946-.265 13.418-6.474-1.677.794-13.221-7.531-2.762-1.719 29.5z" style="fill:#8c8c8c;fill-opacity:1;fill-rule:evenodd;stroke:none;stroke-width:1" id="path184"/><path d="M379.212 225.349c34.791-16.414 92.733-19.787 92.733-19.787l64.209 15.9 6.59-12.433-6.401-2.295.991-9.233-8.802-3.46-2.415 10.275-8.82-2.698 1.656-10.064-9.528-3.422-2.048 10.49-10.22-2.724 1.757-11.446-10.669-3.776-.614 13.515-6.37-1.796.985-13.414-7.84-2.85-8.878 3.366-.384 15.522-10.166 1.646-.354-11.974-10.748 1.79.249 12.165-13.77 3.217-.36-12.72-11.974 3.978.736 11.535-7.982 1.832-1.226-9.429-9.929 3.955 1.327 7.93-23.326-5.873s-.244 8.123 1.59 22.276z" style="fill:none;stroke:none;stroke-width:1" id="path186"/><path d="m535.93 182.161-5.333 27.765 17.657-1.053 3.857-28.769z" style="fill:#f2f2f2;fill-opacity:1;fill-rule:evenodd;stroke:none;stroke-width:1" id="path188"/><path d="m557.759 212.985 5.163-26.535-10.868-5.723-5.507 27.788z" style="fill:#8c8c8c;fill-opacity:1;fill-rule:evenodd;stroke:none;stroke-width:1" id="path190"/><path d="m530.807 210.552 17.035-2.05 10.185 4.541-14.89.784z" style="fill:#8c8c8c;fill-opacity:1;fill-rule:evenodd;stroke:none;stroke-width:1" id="path192"/><path d="m557.393 213.042-14.278.819-12.8-3.481 4.48-28.452 16.56-1.853 11.294 6.287-5.256 26.681zm-11.406-4.125 5.487-28.769m-21.03 30.043 15.672-1.14 10.921 3.93" style="fill:none;stroke:none;stroke-width:1" id="path194"/><path d="M474.426 176.435c-.259 9.798-1.02 19.224-1.872 29.018" style="fill:none;stroke:none;stroke-width:1" id="path196"/><path d="M388.22 304.218c-5.026.367-8.642 3.74-8.078 7.516l.116.776 2.856 18.699 18.112-1.327s-1.989-13.314-2.843-19.018a1.174 1.174 0 0 0-.013-.08c-.009-.128-.036-.252-.056-.382-.564-3.776-5.07-6.554-10.095-6.184z" style="fill:#3a3a3a;fill-opacity:1;fill-rule:nonzero;stroke:none;stroke-width:1" id="path206"/><path d="M391.115 304.439c-4.129.892-6.902 3.894-6.403 7.186.04.259.069.517.108.77l2.862 18.416-4.925.383c-.658-3.465-.948-6.766-1.506-9.731-.941-5.008-1.59-8.283-1.559-11.046.029-2.502 4.529-7.326 11.425-5.978z" style="fill:#d1d1d1;fill-opacity:1;fill-rule:nonzero;stroke:none;stroke-width:1" id="path208"/><path d="M423.776 298.013c-5.367.012-9.368 3.564-8.937 7.914l.088.894 2.2 21.554 19.34-.044-2.17-21.915-.009-.091c-.005-.147-.03-.292-.044-.44-.43-4.352-5.102-7.885-10.468-7.872z" style="fill:#3a3a3a;fill-opacity:1;fill-rule:nonzero;stroke:none;stroke-width:1" id="path210"/><path d="M426.85 298.5c-4.437.683-7.524 3.88-7.14 7.674.03.3.048.595.078.886l2.22 21.23-5.233.073c-.544-4.005-.706-7.794-1.166-11.217-.776-5.788-1.32-9.574-1.162-12.72.143-2.852 5.122-8.02 12.402-5.926z" style="fill:#d1d1d1;fill-opacity:1;fill-rule:nonzero;stroke:none;stroke-width:1" id="path212"/><path d="M519.468 301.738c-5.16-.115-9.906 2.807-10.598 6.509l-.143.761-3.366 18.345 18.594.415 3.485-18.653.015-.077c.033-.126.046-.248.07-.375.692-3.703-2.9-6.81-8.057-6.925z" style="fill:#3a3a3a;fill-opacity:1;fill-rule:nonzero;stroke:none;stroke-width:1" id="path218"/><path d="M522.297 302.223c-4.437.476-8.215 3.119-8.811 6.347-.046.255-.104.506-.149.755l-3.265 18.07-5.239-.05c.495-3.412 1.303-6.63 1.732-9.549.724-4.93 1.165-8.155 2.117-10.823.862-2.417 7.152-6.698 13.615-4.75z" style="fill:#d1d1d1;fill-opacity:1;fill-rule:nonzero;stroke:none;stroke-width:1" id="path220"/><path d="M331.734 252.197c-2.396.713-4.211 2.893-4.051 4.86l.033.404.82 9.738 8.636-2.57-.804-9.91-.004-.04c0-.068-.011-.132-.016-.2-.159-1.967-2.219-2.995-4.615-2.282z" style="fill:#3a3a3a;fill-opacity:1;fill-rule:nonzero;stroke:none;stroke-width:1" id="path222"/><path d="M333.103 252.019c-1.987.903-3.39 2.797-3.247 4.51.011.135.017.27.03.404l.83 9.583-2.146.668c-.214-1.792-.256-3.533-.437-5.065-.303-2.59-.518-4.28-.422-5.765.085-1.346 2.156-4.351 5.392-4.335z" style="fill:#d1d1d1;fill-opacity:1;fill-rule:nonzero;stroke:none;stroke-width:1" id="path224"/><path d="M471.03 237.138c2.196.816 3.972 3.082 3.964 5.053l-.001.403-.071 9.752-7.919-2.942.044-9.924v-.041c-.004-.069 0-.132 0-.2.01-1.97 1.787-2.916 3.983-2.101z" style="fill:#2d2d2d;fill-opacity:1;fill-rule:nonzero;stroke:none;stroke-width:1" id="path226"/><path d="M469.79 236.902c1.843.989 3.23 2.952 3.219 4.668 0 .135.002.27 0 .403l-.09 9.595 1.97.76c.07-1.79-.011-3.54.046-5.072.095-2.589.171-4.278-.015-5.774-.168-1.355-2.23-4.461-5.13-4.58z" style="fill:#f2f2f2;fill-opacity:1;fill-rule:nonzero;stroke:none;stroke-width:1" id="path228"/><path d="M601.06 261.092c1.876 1.175 2.92 3.517 2.336 5.224l-.12.352-2.923 8.447-6.762-4.23s2.063-6.022 2.95-8.604l.011-.036c.016-.06.04-.114.059-.171.586-1.71 2.573-2.155 4.449-.982z" style="fill:#3a3a3a;fill-opacity:1;fill-rule:nonzero;stroke:none;stroke-width:1" id="path230"/><path d="M599.936 260.625c1.484 1.25 2.244 3.247 1.732 4.733-.042.119-.077.236-.117.35l-2.897 8.31 1.674 1.076c.59-1.54 1.025-3.074 1.528-4.392.85-2.227 1.418-3.677 1.678-5.014.234-1.212-.842-4.345-3.598-5.063z" style="fill:#f2f2f2;fill-opacity:1;fill-rule:nonzero;stroke:none;stroke-width:1" id="path232"/><path d="M556.836 186.584c1.838.632 3.064 2.454 2.736 4.057l-.065.33-1.638 7.94-6.626-2.283 1.643-8.081.006-.034c.007-.055.022-.108.034-.163.326-1.603 2.072-2.4 3.91-1.767z" style="fill:#3a3a3a;fill-opacity:1;fill-rule:nonzero;stroke:none;stroke-width:1" id="path238"/><path d="M555.763 186.409c1.493.78 2.418 2.358 2.131 3.755-.023.11-.041.22-.063.328l-1.632 7.816 1.644.59c.35-1.46.561-2.881.86-4.13.503-2.11.845-3.487.92-4.703.068-1.1-1.28-3.6-3.86-3.657z" style="fill:#f2f2f2;fill-opacity:1;fill-rule:nonzero;stroke:none;stroke-width:1" id="path240"/><path d="m369.354 263.518-.239 10.168-5.454 2.729-.06-13.278s4.15.009 5.753.38z" style="fill:#8c8c8c;fill-opacity:1;fill-rule:evenodd;stroke:none;stroke-width:1" id="path242"/><path d="m395.177 254.536 4.464 1.323-1.077 7.84-3.966 1.818-.061-10.554z" style="fill:#8c8c8c;fill-opacity:1;fill-rule:evenodd;stroke:none;stroke-width:1" id="path244"/><path d="m428.935 244.487 5.022 2.071-.198 9.321-4.284.82z" style="fill:#8c8c8c;fill-opacity:1;fill-rule:evenodd;stroke:none;stroke-width:1" id="path246"/><path d="m485.177 252.682-3.226 1.578-.88 5.47 3.328 1.117z" style="fill:#8c8c8c;fill-opacity:1;fill-rule:evenodd;stroke:none;stroke-width:1" id="path248"/><path d="m527.215 256.136 2.747 1.874-.438 8.137-2.728.917z" style="fill:#8c8c8c;fill-opacity:1;fill-rule:evenodd;stroke:none;stroke-width:1" id="path250"/><path d="m550.97 252.514 2.507 1.579-.558 13.27-2.967-1.352 1.017-13.497z" style="fill:#8c8c8c;fill-opacity:1;fill-rule:evenodd;stroke:none;stroke-width:1" id="path252"/><path d="m561.586 260.091 3.107-1.086-.558 12.479-3.327-1.351z" style="fill:#8c8c8c;fill-opacity:1;fill-rule:evenodd;stroke:none;stroke-width:1" id="path254"/><path d="m409.028 197.048 3.676.528.706 8.712-3.1.682z" style="fill:#8c8c8c;fill-opacity:1;fill-rule:evenodd;stroke:none;stroke-width:1" id="path256"/><path d="m429.49 189.025 4.61 1.017-.604 11.57-3.288.474-.72-13.06z" style="fill:#8c8c8c;fill-opacity:1;fill-rule:evenodd;stroke:none;stroke-width:1" id="path258"/><path d="m454.26 184.435 4.316.998-.602 10.805-3.007.541z" style="fill:#8c8c8c;fill-opacity:1;fill-rule:evenodd;stroke:none;stroke-width:1" id="path260"/><path d="m488.572 180.406-3.298.952-.704 12.09 3.479 1.067z" style="fill:#8c8c8c;fill-opacity:1;fill-rule:evenodd;stroke:none;stroke-width:1" id="path262"/><path d="m510.055 187.86-2.893.473-2.385 10.067 3.008.542z" style="fill:#8c8c8c;fill-opacity:1;fill-rule:evenodd;stroke:none;stroke-width:1" id="path264"/><path d="m529.065 193.517-3.487.572-1.99 9.77 3.009.543 2.468-10.886z" style="fill:#8c8c8c;fill-opacity:1;fill-rule:evenodd;stroke:none;stroke-width:1" id="path266"/><path d="m560.795 283.65 9.692 4.247-3.228 8.67-10.358-4.528z" style="fill:#8c8c8c;fill-opacity:1;fill-rule:evenodd;stroke:none;stroke-width:1" id="path268"/><path d="m557.147 291.992-9.91 3.752" style="fill:none;stroke:none;stroke-width:1" id="path270"/><path d="m560.726 283.648-11.1 4.627" style="fill:none;stroke:none;stroke-width:1" id="path272"/><path d="m567.168 296.633-13.58 3.524" style="fill:none;stroke:none;stroke-width:1" id="path274"/><path d="m553.58 300.124-6.798-4.577 2.827-7.184" style="fill:none;stroke:none;stroke-width:1" id="path276"/><path d="m483.047 276.075 5.426 1.978-1.812 5.794-5.757-2.071z" style="fill:#8c8c8c;fill-opacity:1;fill-rule:evenodd;stroke:none;stroke-width:1" id="path278"/><path d="m481.041 281.726-5.508 3.185" style="fill:none;stroke:none;stroke-width:1" id="path280"/><path d="m482.9 276.073-6.16 3.843" style="fill:none;stroke:none;stroke-width:1" id="path282"/><path d="m486.767 283.938-5.944 1.978" style="fill:none;stroke:none;stroke-width:1" id="path284"/><path d="m480.713 285.902-5.267-.925 1.275-4.992" style="fill:none;stroke:none;stroke-width:1" id="path286"/><path d="m495.772 280.123 5.593 1.88-1.593 5.842-5.977-2.12z" style="fill:#8c8c8c;fill-opacity:1;fill-rule:evenodd;stroke:none;stroke-width:1" id="path288"/><path d="m493.933 285.675-5.508 3.186" style="fill:none;stroke:none;stroke-width:1" id="path290"/><path d="m495.848 280.122-6.218 3.743" style="fill:none;stroke:none;stroke-width:1" id="path292"/><path d="m499.658 287.888-6.06 1.962" style="fill:none;stroke:none;stroke-width:1" id="path294"/><path d="m493.506 289.802-5.058-.974 1.164-4.843" style="fill:none;stroke:none;stroke-width:1" id="path296"/><path d="m462.282 275.232 5.828-3.234-1.869 5.724-5.138 2.864z" style="fill:#f2f2f2;fill-opacity:1;fill-rule:evenodd;stroke:none;stroke-width:1" id="path298"/><path d="m468.327 271.867 5.593 1.88-1.813 5.793-5.757-2.07z" style="fill:#8c8c8c;fill-opacity:1;fill-rule:evenodd;stroke:none;stroke-width:1" id="path300"/><path d="m466.489 277.42-5.508 3.185" style="fill:none;stroke:none;stroke-width:1" id="path302"/><path d="m468.293 271.866-5.83 3.545" style="fill:none;stroke:none;stroke-width:1" id="path304"/><path d="m472.214 279.631-5.444 1.974" style="fill:none;stroke:none;stroke-width:1" id="path306"/><path d="m466.812 281.627-5.81-1.055 1.387-5.19" style="fill:none;stroke:none;stroke-width:1" id="path308"/><path d="m424.119 282.132 10.35-2.962 10.322 4.454-11.754 2.062-8.92-3.554z" style="fill:#8c8c8c;fill-opacity:1;fill-rule:evenodd;stroke:none;stroke-width:1" id="path310"/><path d="m432.817 269.986 9.03 6.32 1.1 7.407-8.478-4.543z" style="fill:#8c8c8c;fill-opacity:1;fill-rule:evenodd;stroke:none;stroke-width:1" id="path312"/><path d="m432.695 269.928-10.216 2.612 1.326 9.292 10.558-2.905z" style="fill:#f2f2f2;fill-opacity:1;fill-rule:evenodd;stroke:none;stroke-width:1" id="path314"/><path d="m434.14 278.84 8.5 5.404" style="fill:none;stroke:none;stroke-width:1" id="path316"/><path d="m432.69 269.77 9.422 6.484" style="fill:none;stroke:none;stroke-width:1" id="path318"/><path d="m423.594 281.97 9.818 3.583" style="fill:none;stroke:none;stroke-width:1" id="path320"/><path d="m433.08 285.512 9.533-1.323-.78-8.309" style="fill:none;stroke:none;stroke-width:1" id="path322"/><path d="m403.306 276.385 9.03 6.32 1.1 7.406-8.477-4.543z" style="fill:#8c8c8c;fill-opacity:1;fill-rule:evenodd;stroke:none;stroke-width:1" id="path324"/><path d="m394.938 288.058 10.35-2.964 8.149 5.234-9.58 1.284z" style="fill:#8c8c8c;fill-opacity:1;fill-rule:evenodd;stroke:none;stroke-width:1" id="path326"/><path d="m403.405 276.05-10.216 2.612 1.327 9.292 10.558-2.904-1.669-8.999z" style="fill:#f2f2f2;fill-opacity:1;fill-rule:evenodd;stroke:none;stroke-width:1" id="path328"/><path d="m404.851 284.962 8.5 5.404" style="fill:none;stroke:none;stroke-width:1" id="path330"/><path d="m403.4 275.891 9.423 6.485" style="fill:none;stroke:none;stroke-width:1" id="path332"/><path d="m394.304 288.092 9.819 3.583" style="fill:none;stroke:none;stroke-width:1" id="path334"/><path d="m403.79 291.634 9.532-1.323-.777-8.307" style="fill:none;stroke:none;stroke-width:1" id="path336"/><path d="m375.008 283.692 9.03 6.32 1.1 7.406-8.479-4.543z" style="fill:#8c8c8c;fill-opacity:1;fill-rule:evenodd;stroke:none;stroke-width:1" id="path338"/><path d="m366.2 295.66 10.35-2.962 10.757 4.065-12.19 2.453z" style="fill:#8c8c8c;fill-opacity:1;fill-rule:evenodd;stroke:none;stroke-width:1" id="path340"/><path d="m374.996 283.753-10.216 2.612 1.327 9.292 10.557-2.905z" style="fill:#f2f2f2;fill-opacity:1;fill-rule:evenodd;stroke:none;stroke-width:1" id="path342"/><path d="m376.442 292.665 8.5 5.404" style="fill:none;stroke:none;stroke-width:1" id="path344"/><path d="m374.992 283.593 9.42 6.486" style="fill:none;stroke:none;stroke-width:1" id="path346"/><path d="m365.894 295.794 9.82 3.584" style="fill:none;stroke:none;stroke-width:1" id="path348"/><path d="m375.38 299.337 9.533-1.323-.778-8.308" style="fill:none;stroke:none;stroke-width:1" id="path350"/><path d="M586.504 396.535c.62.115.775.38 1.293.776.678.68 2.049 2.715 1.895 3.048-.205.6-1.927-2.798-3.188-3.824zm11.627 1.482c-1.471 2.45-1.61 2.632-2.755 2.597.244-.452.942-.82 1.433-1.25.522-.458.805-1.313 1.322-1.347zm-5.167.089c1.672 1.6 1.852 2.177 1.57 2.357-.515.174-.403-.281-1.57-2.356zm-3.13.343c.412-.061.712.493.876.947.418 1.157.422.99.141 1.088-.39.135-.387-1.045-1.016-2.035zm-2.77-.107c.43.013.655.481.958.913.304.827 1.186 1.34.564 1.37-.62.032-1.048-1.302-1.522-2.283zm4.62.318c1.36 1.328 1.65 1.734 1.104 1.79-.351.036-.38-.29-.78-.835-.26-.351-.583-.659-.324-.955z" style="opacity:.698;fill:#308d1a;fill-opacity:1;stroke:none;stroke-width:1" id="path450"/><g id="g1379" transform="translate(-259.778 -428.636) scale(.98978)" style="stroke-width:1.01032"><path d="M839.015 845.948c1.996 10.237 1.597 24.48.4 31.157-1.199 6.676-5.59 20.474-3.993 22.7 1.597 2.225 18.363 6.676 23.553 2.225 5.19-4.45 2.675-4.868 1.597-9.792-2.533-11.573-1.198-32.492-1.996-37.833-.799-5.341-.178-14.48-4.391-19.14-6.493-7.18-7.873-23.192-10.803-19.076-3.12 4.384-4.367 29.759-4.367 29.759z" style="fill:#7d4b27;fill-opacity:1;fill-rule:evenodd;stroke:none;stroke-width:1.01032px;stroke-linecap:butt;stroke-linejoin:miter;stroke-opacity:1" id="path534"/><path d="M876.121 827.632c-3.56 7.722-17.01 22.43-17.31 25.806-.299 3.377-11.768-10.196-8.238-12.289 3.53-2.093 21.049-14.386 20.495-16.078-.554-1.692 4.873-16.583.09-16.89-4.784-.307 11.698-2.893 10.56-.647-1.138 2.246-6.282 16.575-6.282 16.575s19.642-14.393 17.841-19.892c-1.8-5.499 7.614-2.493 5.9 2.284-1.715 4.776-23.056 21.131-23.056 21.131z" style="fill:#7d4b27;fill-opacity:1;fill-rule:evenodd;stroke:none;stroke-width:1.01032px;stroke-linecap:butt;stroke-linejoin:miter;stroke-opacity:1" id="path536"/><path d="M844.659 801.18c.532 6.459 2.637 14.138 2.554 16.844-.084 2.706-4.493 12.85-4.264 10.044.46-5.633-3.003-29.626-6.415-31.678-4.609-2.772 8.125 4.79 8.125 4.79z" style="fill:#7d4b27;fill-opacity:1;fill-rule:evenodd;stroke:none;stroke-width:1.01032px;stroke-linecap:butt;stroke-linejoin:miter;stroke-opacity:1" id="path538"/><path d="M845.374 727.58c-1.39.18-2.37 1.075-3.716 1.36-1.361.29 5.136.822 3.829 1.214-1.319.395-10.26-.405-11.517.09-1.264.497-2.652 2.112-3.846 2.705-1.197.595-2.108.133-3.227.819-1.12.687 5.647 1.453 4.613 2.226-1.033.772-3.91 3.165-4.85 4.018-.935.849-6.798-.15-7.633.774-.83.919 3.872 3.687 3.15 4.674-.716.98-2.7 2.142-3.302 3.184-.596 1.03-.763-.056-1.24 1.03-1.388.414.05 2.24-1.264 2.737-1.34.507-8.531-.327-9.79.26-1.281.598 1.816 1.422.624 2.097-1.213.687-5.083 1.166-6.199 1.926-1.132.771-3.264 1.6-4.292 2.44-1.041.852-5.212 3.37-6.14 4.287-.94.928 4.864 2.295 4.047 3.281-.825.997.223 1.404-.47 2.452-.7 1.058-10.183 2.123-10.743 3.226-.564 1.109.99.974.574 2.121-.418 1.15-1.64 2.487-1.902 3.667-.262 1.176 3.01 4.292 2.908 5.49-.102 1.19 2.735.412 2.797 1.616.062 1.189-5.705 4.114-5.478 5.308.235 1.224.255 2.358.65 3.528.401 1.19-.165 1.983.393 3.112.563 1.14 9.94 1.596 10.653 2.669.715 1.077 1.262 1.91 2.118 2.913.855 1.004 1.205 1.712 2.19 2.637.98.92 1.801 1.732 2.9 2.568 1.09.83-.42 1.242.778 1.985 1.186.735-1.291 3.42-.01 4.064 1.267.636 7.79 1.32 9.141 1.86 1.334.536.246 1.18 1.652 1.618 1.388.431-1.09-.863.359-.53 1.429.327 2.768 1.641 4.249 1.867 1.457.222 3.58.637 5.08.756 1.474.118 1.891-.656 3.398-.642 1.48.013 11.12-.63 12.625-.721 1.475-.089 3.978.405 5.47.213 1.245-.163 2.111-.733 3.335-.967 1.227-.234-3.932-1.052-2.731-1.356 1.204-.305 3.48 1.454 4.65 1.08 1.175-.375-.352-1.23.784-1.673 1.138-.443 1.414-1.606 2.507-2.116 1.09.675 8.857.09 10.053.669 1.175.568-1.652 1.09-.388 1.565 1.24.465 8.732 1.663 10.046 2.036 1.29.365 2.893.885 4.242 1.159 1.325.269-.031-.284 1.34-.105 1.35.175-.566 2.419.818 2.505 1.363.085.158-.432 1.545-.434 1.368 0 11.391-.375 12.773-.466 1.364-.089.417-1.392 1.786-1.568 1.516-.195 5.08.148 6.536-.143 1.492-.297-2.035-1.36-.615-1.75 1.456-.4.56 1.127 1.932.636 1.409-.504 6.152-3.038 7.463-3.63 1.347-.607-1.755.419-.52-.273 1.27-.712 11.053-1.87 12.195-2.662 1.175-.815-6.096-2.447-5.069-3.337 1.059-.916 1.665-1.707 2.554-2.692.915-1.014 2.981-2.464 3.703-3.539.74-1.102 5.878-.301 6.4-1.455.532-1.175-.004-4.558.286-5.772.292-1.22-4.565-1.019-4.533-2.265.03-1.233 7.253-1.917 7.014-3.161-.24-1.234-7.789-2.893-8.287-4.064-.498-1.17 1.431-1.676.69-2.769-.73-1.075-3.882-2.611-4.833-3.599-.925-.96-1.37-1.675-2.492-2.541-1.084-.837 5.092-1.78 3.837-2.518-1.209-.71-9.807-2.726-11.164-3.334-1.304-.584-2.122.529-3.553.048.108-.97 4.177-1.741 3.999-2.699-.214-1.11 2.357-2.817 1.79-3.819-.569-1.004-9.852-2.007-10.733-2.862-.863-.836 5.221-2.879 4.1-3.533-1.082-.63-.44-.299-1.727-.724-.269-1.21-7.54-1.384-7.949-2.54a31.09 31.09 0 0 0-1.434-3.444 32.974 32.974 0 0 0-1.91-3.309c-.7-1.08-3.677-2.925-4.502-3.93-.833-1.012 2.426-1.03 1.477-1.96-.954-.936-6.115-2.78-7.177-3.627-1.065-.849 6.614-2.255 5.451-3.009-1.164-.754-9.787-.208-11.04-.861-1.251-.652 4.505-2.677 3.176-3.222-1.325-.543-2.323.001-3.714-.429-1.384-.428-11.596-1.4-13.036-1.71-1.428-.309 4.477.508 3.003.321-1.457-.185-7.549-2.244-9.04-2.304-1.47-.06-4.425 1.777-5.92 1.843-1.467.064-2.006.37-3.488.56l-1.279-.274" style="color:#000;clip-rule:nonzero;display:inline;overflow:visible;visibility:visible;opacity:1;isolation:auto;mix-blend-mode:normal;color-interpolation:sRGB;color-interpolation-filters:linearRGB;solid-color:#000;solid-opacity:1;fill:#448705;fill-opacity:1;fill-rule:nonzero;stroke:none;stroke-width:.505162;stroke-linecap:round;stroke-linejoin:round;stroke-miterlimit:4;stroke-dasharray:none;stroke-dashoffset:0;stroke-opacity:1;marker:none;color-rendering:auto;image-rendering:auto;shape-rendering:auto;text-rendering:auto;enable-background:accumulate" id="path540"/><path d="M831.383 829.641c1.037 8.562 9.364 26.931 8.62 30.286-.743 3.355 14.317-6.213 11.593-9.326-2.724-3.114-15.663-20.408-14.62-21.871 1.043-1.464-2.704-19.755 1.946-18.573 4.65 1.183-7.144-4.187-6.744-1.665.4 2.522.93 17.958.93 17.958s-12.99-14.548-13.991-20.303c0 0-8.717-7.434-8.54-2.288.177 5.145 20.806 25.782 20.806 25.782z" style="fill:#7d4b27;fill-opacity:1;fill-rule:evenodd;stroke:none;stroke-width:1.01032px;stroke-linecap:butt;stroke-linejoin:miter;stroke-opacity:1" id="path542"/><path d="M869.394 811.73c-3.358 5.544-16.234 18.154-17.366 20.613-1.132 2.46 1.851 9.054 2.897 6.44 2.1-5.247 15.902-25.176 19.87-25.49 5.362-.426-5.401-1.563-5.401-1.563z" style="fill:#7d4b27;fill-opacity:1;fill-rule:evenodd;stroke:none;stroke-width:1.01032px;stroke-linecap:butt;stroke-linejoin:miter;stroke-opacity:1" id="path544"/></g><use x="0" y="0" xlink:href="#g1379" id="use3056" transform="matrix(1.18973 0 0 1.18973 -485.254 -97.55)" width="100%" height="100%" style="stroke-width:.840524"/><use x="0" y="0" xlink:href="#g1379" id="use3054" transform="matrix(2.09452 0 0 2.09452 -1136.415 -434.023)" width="100%" height="100%" style="stroke-width:.477436"/><path style="color:#000;clip-rule:nonzero;display:inline;overflow:visible;visibility:visible;isolation:auto;mix-blend-mode:normal;color-interpolation:sRGB;color-interpolation-filters:linearRGB;solid-color:#000;solid-opacity:1;fill:#f6fbfc;fill-opacity:1;fill-rule:nonzero;stroke:none;stroke-width:.5;stroke-linecap:round;stroke-linejoin:round;stroke-miterlimit:4;stroke-dasharray:none;stroke-dashoffset:0;stroke-opacity:1;marker:none;color-rendering:auto;image-rendering:auto;shape-rendering:auto;text-rendering:auto;enable-background:accumulate" d="M121.936 44.042a42.05 20.656 0 0 0-41.911 19.301 34.672 18.443 0 0 0-10.536 8.743 25.82 8.852 0 0 0-.667-.01 25.82 8.852 0 0 0-25.82 8.852 25.82 8.852 0 0 0 25.82 8.852 25.82 8.852 0 0 0 7.844-.43 34.672 18.443 0 0 0 26.09 6.331 34.672 18.443 0 0 0 10.203-.836 27.295 13.279 0 0 0 25.206 8.213 27.295 13.279 0 0 0 19.138-3.816 38.36 17.705 0 0 0 27.338 5.292 38.36 17.705 0 0 0 38.36-17.705 38.36 17.705 0 0 0-23.672-16.35 36.147 16.967 0 0 0 .066-.617 36.147 16.967 0 0 0-36.148-16.968 36.147 16.967 0 0 0-6.456.28 42.05 20.656 0 0 0-34.855-9.132z" id="path16"/><g id="g1595" transform="translate(-204.77 -511.562)"><path style="color:#000;fill:#f6fbfc;fill-rule:evenodd" d="M263.877 100.711a59.562 42.023 0 1 1-119.121 0 59.562 42.023 0 1 1 119.121 0z" transform="translate(552.856 553.813) scale(.51511)" id="path520"/><path style="color:#000;fill:#f6fbfc;fill-rule:evenodd" d="M352.14 120.93a65.055 39.599 0 0 1-130.11 0 65.055 39.599 0 1 1 130.11 0z" transform="translate(552.856 553.813) scale(.51511)" id="path522"/><path style="color:#000;fill:#f6fbfc;fill-rule:evenodd" d="M438.41 97.756a91.363 48.933 0 1 1-182.717 0 91.363 48.933 0 1 1 182.718 0z" transform="translate(552.856 553.813) scale(.51511)" id="path524"/><path style="color:#000;fill:#f6fbfc;fill-rule:evenodd" d="M290.266 62.318a53.327 26.085 0 0 1-106.653 0 53.327 26.085 0 1 1 106.653 0z" transform="translate(552.856 553.813) scale(.51511)" id="path526"/><path style="color:#000;fill:#f6fbfc;fill-rule:evenodd" d="M382.841 53.019a74.919 40.127 0 0 1-149.837 0 74.919 40.127 0 1 1 149.837 0z" transform="translate(552.856 553.813) scale(.51511)" id="path528"/><path style="color:#000;fill:#f6fbfc;fill-rule:evenodd" d="M127.217 74.064a38.534 20.664 0 1 1-77.066 0 38.534 20.664 0 1 1 77.066 0z" transform="translate(552.856 553.813) scale(.51511)" id="path530"/><path style="color:#000;fill:#f6fbfc;fill-rule:evenodd" d="M218.643 66.292a62.304 37.933 0 1 1-124.607 0 62.304 37.933 0 1 1 124.607 0z" transform="translate(552.856 553.813) scale(.51511)" id="path532"/></g><g style="display:inline;opacity:1;fill:#306a2e;fill-opacity:1" id="g384" transform="translate(-380.943 -443.118)"><path d="M54.72 1729.965c-12.955-57.3-65.418-104.149-110.755-139.778 58.285 5.964 98.62 69.926 124.038 117.934 2.573 8.976-2.445 22.198-13.282 21.844z" style="fill:#306a2e;fill-opacity:1;stroke:none" transform="matrix(-.09478 0 0 .11694 498.576 778.73)" id="path370"/><path d="M129.301 1721.289c16.923-30.074-35.48-114.77-26.255-150.66 29.29 54.484 47.24 92.356 42.014 140.913-3.417 5.675-10.499 6.568-15.759 9.747z" style="fill:#306a2e;fill-opacity:1;stroke:none" transform="matrix(-.09478 0 0 .11694 498.576 778.73)" id="path372"/><path d="M203.814 1718.924c25.249-47.25 55.258-94.921 108.538-113.319-29.528 20.46-63.096 41.024-76.158 76.46-6.845 14.83-14.696 32.877-32.38 36.859z" style="fill:#306a2e;fill-opacity:1;stroke:none" transform="matrix(-.09478 0 0 .11694 498.576 778.73)" id="path374"/><path d="M312.586 1727.882c20.265-9.16 40.634-61.067 69.031-84.929-31.307 78.414-42.604 86.368-69.03 84.93z" style="fill:#306a2e;fill-opacity:1;stroke:none" transform="matrix(-.09478 0 0 .11694 498.576 778.73)" id="path376"/><path d="M169.528 1710.352c12.68-15.09 17.682-39.51 39.27-44.824-11.711 15.824-17.507 39.78-39.27 44.824z" style="fill:#306a2e;fill-opacity:1;stroke:none" transform="matrix(-.09478 0 0 .11694 498.576 778.73)" id="path378"/><path d="M90.73 1685.048c-10.25-21.323-21.087-42.661-36.165-61.047 42.017 18.971 55.65 50.302 36.166 61.047z" style="fill:#306a2e;fill-opacity:1;stroke:none" transform="matrix(-.09478 0 0 .11694 498.576 778.73)" id="path380"/><path d="M284.119 1681.673c18.254-21.316 39.844-40.696 65.96-51.725-22.992 11.943-42.078 44.868-65.96 51.725z" style="fill:#306a2e;fill-opacity:1;stroke:none" transform="matrix(-.09478 0 0 .11694 498.576 778.73)" id="path382"/></g><g style="display:inline;opacity:1;fill:#306a2e;fill-opacity:1" id="g466" transform="translate(-380.943 -443.118)"><path d="M54.72 1729.965c-12.955-57.3-65.418-104.149-110.755-139.778 58.285 5.964 98.62 69.926 124.038 117.934 2.573 8.976-2.445 22.198-13.282 21.844z" style="fill:#306a2e;fill-opacity:1;stroke:none" transform="matrix(-.13393 0 0 .16525 471.633 705.407)" id="path452"/><path d="M129.301 1721.289c16.923-30.074-35.48-114.77-26.255-150.66 29.29 54.484 47.24 92.356 42.014 140.913-3.417 5.675-10.499 6.568-15.759 9.747z" style="fill:#306a2e;fill-opacity:1;stroke:none" transform="matrix(-.13393 0 0 .16525 471.633 705.407)" id="path454"/><path d="M203.814 1718.924c25.249-47.25 55.258-94.921 108.538-113.319-29.528 20.46-63.096 41.024-76.158 76.46-6.845 14.83-14.696 32.877-32.38 36.859z" style="fill:#306a2e;fill-opacity:1;stroke:none" transform="matrix(-.13393 0 0 .16525 471.633 705.407)" id="path456"/><path d="M312.586 1727.882c20.265-9.16 40.634-61.067 69.031-84.929-31.307 78.414-42.604 86.368-69.03 84.93z" style="fill:#306a2e;fill-opacity:1;stroke:none" transform="matrix(-.13393 0 0 .16525 471.633 705.407)" id="path458"/><path d="M169.528 1710.352c12.68-15.09 17.682-39.51 39.27-44.824-11.711 15.824-17.507 39.78-39.27 44.824z" style="fill:#306a2e;fill-opacity:1;stroke:none" transform="matrix(-.13393 0 0 .16525 471.633 705.407)" id="path460"/><path d="M90.73 1685.048c-10.25-21.323-21.087-42.661-36.165-61.047 42.017 18.971 55.65 50.302 36.166 61.047z" style="fill:#306a2e;fill-opacity:1;stroke:none" transform="matrix(-.13393 0 0 .16525 471.633 705.407)" id="path462"/><path d="M284.119 1681.673c18.254-21.316 39.844-40.696 65.96-51.725-22.992 11.943-42.078 44.868-65.96 51.725z" style="fill:#306a2e;fill-opacity:1;stroke:none" transform="matrix(-.13393 0 0 .16525 471.633 705.407)" id="path464"/></g><use x="0" y="0" xlink:href="#g384" id="use3145" transform="matrix(-1.33305 0 0 1.33305 631.389 -109.531)" width="100%" height="100%" style="stroke-width:.750158"/><use x="0" y="0" xlink:href="#g466" id="use3147" transform="matrix(-1.33305 0 0 1.33305 631.389 -109.531)" width="100%" height="100%" style="stroke-width:.750158"/><use x="0" y="0" xlink:href="#g384" id="use3149" transform="matrix(-.67444 0 0 .67444 259.24 89.804)" width="100%" height="100%" style="stroke-width:1.4827"/><use x="0" y="0" xlink:href="#g466" id="use3151" transform="matrix(-.67444 0 0 .67444 259.24 89.804)" width="100%" height="100%" style="stroke-width:1.4827"/><use x="0" y="0" xlink:href="#g384" id="use3155" transform="matrix(.66854 0 0 .66854 530.016 104.099)" width="100%" height="100%" style="stroke-width:1.49579"/><use x="0" y="0" xlink:href="#g466" id="use3157" transform="matrix(.66854 0 0 .66854 530.016 104.099)" width="100%" height="100%" style="stroke-width:1.49579"/><use x="0" y="0" xlink:href="#g384" id="use3159" transform="matrix(1.15909 0 0 1.15909 142.062 -54.653)" width="100%" height="100%" style="stroke-width:.862749"/><g style="display:inline;fill:#367633;fill-opacity:1" id="g448" transform="translate(186.074 -495.711)"><path d="M54.72 1729.965c-12.955-57.3-65.418-104.149-110.755-139.778 58.285 5.964 98.62 69.926 124.038 117.934 2.573 8.976-2.445 22.198-13.282 21.844z" style="fill:#367633;fill-opacity:1;stroke:none" transform="matrix(.12861 0 0 .14725 182.088 740.71)" id="path434"/><path d="M129.301 1721.289c16.923-30.074-35.48-114.77-26.255-150.66 29.29 54.484 47.24 92.356 42.014 140.913-3.417 5.675-10.499 6.568-15.759 9.747z" style="fill:#367633;fill-opacity:1;stroke:none" transform="matrix(.12861 0 0 .14725 182.088 740.71)" id="path436"/><path d="M203.814 1718.924c25.249-47.25 55.258-94.921 108.538-113.319-29.528 20.46-63.096 41.024-76.158 76.46-6.845 14.83-14.696 32.877-32.38 36.859z" style="fill:#367633;fill-opacity:1;stroke:none" transform="matrix(.12861 0 0 .14725 182.088 740.71)" id="path438"/><path d="M312.586 1727.882c20.265-9.16 40.634-61.067 69.031-84.929-31.307 78.414-42.604 86.368-69.03 84.93z" style="fill:#367633;fill-opacity:1;stroke:none" transform="matrix(.12861 0 0 .14725 182.088 740.71)" id="path440"/><path d="M169.528 1710.352c12.68-15.09 17.682-39.51 39.27-44.824-11.711 15.824-17.507 39.78-39.27 44.824z" style="fill:#367633;fill-opacity:1;stroke:none" transform="matrix(.12861 0 0 .14725 182.088 740.71)" id="path442"/><path d="M90.73 1685.048c-10.25-21.323-21.087-42.661-36.165-61.047 42.017 18.971 55.65 50.302 36.166 61.047z" style="fill:#367633;fill-opacity:1;stroke:none" transform="matrix(.12861 0 0 .14725 182.088 740.71)" id="path444"/><path d="M284.119 1681.673c18.254-21.316 39.844-40.696 65.96-51.725-22.992 11.943-42.078 44.868-65.96 51.725z" style="fill:#367633;fill-opacity:1;stroke:none" transform="matrix(.12861 0 0 .14725 182.088 740.71)" id="path446"/></g></g></svg>