<!--Created with Inkscape (http://www.inkscape.org/)--><svg xmlns:dc="http://purl.org/dc/elements/1.1/" xmlns:cc="http://creativecommons.org/ns#" xmlns:rdf="http://www.w3.org/1999/02/22-rdf-syntax-ns#" xmlns="http://www.w3.org/2000/svg" xmlns:xlink="http://www.w3.org/1999/xlink" xmlns:sodipodi="http://sodipodi.sourceforge.net/DTD/sodipodi-0.dtd" xmlns:inkscape="http://www.inkscape.org/namespaces/inkscape" width="256" height="256" viewBox="0 0 67.733332 67.733335" inkscape:version="0.92.1 r15371" sodipodi:docname="boy1.svg"><defs><linearGradient inkscape:collect="always" xlink:href="#a" id="c" x1="90.72126" y1="127.98526" x2="90.72126" y2="150.12811" gradientUnits="userSpaceOnUse" gradientTransform="matrix(-.26458 0 0 .26458 67.87 229.22)"/><linearGradient inkscape:collect="always" id="a"><stop style="stop-color:#2e67a5;stop-opacity:1" offset="0"/><stop style="stop-color:#8eccd3;stop-opacity:1" offset="1"/></linearGradient><linearGradient inkscape:collect="always" xlink:href="#a" id="b" x1="90.72126" y1="127.98526" x2="90.72126" y2="150.12811" gradientUnits="userSpaceOnUse" gradientTransform="matrix(.26458 0 0 .26458 0 229.22)"/></defs><sodipodi:namedview pagecolor="#ffffff" bordercolor="#666666" borderopacity="1.0" inkscape:pageopacity="0.0" inkscape:pageshadow="2" inkscape:zoom="2.8" inkscape:cx="-10.032652" inkscape:cy="95.776747" inkscape:document-units="mm" inkscape:current-layer="layer1" showgrid="false" units="px" inkscape:window-width="1884" inkscape:window-height="1051" inkscape:window-x="0" inkscape:window-y="0" inkscape:window-maximized="1"/><metadata><rdf:RDF><cc:Work><dc:format>image/svg+xml</dc:format><dc:type rdf:resource="http://purl.org/dc/dcmitype/StillImage"/><dc:title/><dc:date>2017</dc:date><dc:creator><cc:Agent><dc:title>Timothée Giet</dc:title></cc:Agent></dc:creator><cc:license rdf:resource="http://creativecommons.org/licenses/by-sa/4.0/"/></cc:Work><cc:License rdf:about="http://creativecommons.org/licenses/by-sa/4.0/"><cc:permits rdf:resource="http://creativecommons.org/ns#Reproduction"/><cc:permits rdf:resource="http://creativecommons.org/ns#Distribution"/><cc:requires rdf:resource="http://creativecommons.org/ns#Notice"/><cc:requires rdf:resource="http://creativecommons.org/ns#Attribution"/><cc:permits rdf:resource="http://creativecommons.org/ns#DerivativeWorks"/><cc:requires rdf:resource="http://creativecommons.org/ns#ShareAlike"/></cc:License></rdf:RDF></metadata><g inkscape:label="Calque 1" inkscape:groupmode="layer" transform="translate(0 -229.267)"><path style="display:inline;fill:#8f7049;fill-opacity:1;stroke:none;stroke-width:.26458332px;stroke-linecap:butt;stroke-linejoin:miter;stroke-opacity:1" d="M17.172 265.529c-7.248-9.339-6.088 10.967 1.336 10.891 4.9-.05-1.336-10.891-1.336-10.891z" inkscape:connector-curvature="0" sodipodi:nodetypes="csc"/><path style="display:inline;fill:#d0b18b;fill-opacity:1;stroke:none;stroke-width:.23770896px;stroke-linecap:butt;stroke-linejoin:miter;stroke-opacity:1" d="M17.304 266.303c-6.65-8.217-5.452 9.382 1.36 9.315 4.495-.043-1.36-9.315-1.36-9.315z" inkscape:connector-curvature="0" sodipodi:nodetypes="csc"/><path style="display:inline;opacity:1;fill:#b9976b;fill-opacity:1;stroke:none;stroke-width:.07199875;stroke-linecap:butt;stroke-linejoin:round;stroke-miterlimit:4;stroke-dasharray:none;stroke-opacity:1" d="M17.783 273.906c-.288-.052-.382-.087-.55-.203-.785-.54-1.697-2.14-1.988-3.486-.09-.417-.09-1.224 0-1.52a2.04 2.04 0 0 1 .442-.791c.163-.17.566-.452.647-.452.065 0 .326.319.604.736.586.88 1.484 2.905 1.82 4.105.257.914.218 1.436-.12 1.598-.158.076-.476.08-.855.013z" inkscape:connector-curvature="0"/><path style="display:inline;fill:#8f7049;fill-opacity:1;stroke:none;stroke-width:.26458332px;stroke-linecap:butt;stroke-linejoin:miter;stroke-opacity:1" d="M13.898 269.27c-.468-2.739 1.804-3.941 3.809.468 2.004 4.41.868 4.11-.2 3.91-1.07-.201-3.776-4.945-1.037-6.014a.857.857 0 0 0-.367-.501c-.568.2-3.108 3.84 1.136 7.049 3.669 2.774 1.4-4.794-.3-6.715-1.738-1.938-4.043-1.871-3.041 1.804z" inkscape:connector-curvature="0" sodipodi:nodetypes="cscccsccc"/><path style="display:inline;fill:#8f7049;fill-opacity:1;stroke:none;stroke-width:.26458332px;stroke-linecap:butt;stroke-linejoin:miter;stroke-opacity:1" d="M50.698 265.529c7.249-9.339 6.089 10.967-1.336 10.891-4.9-.05 1.336-10.891 1.336-10.891z" inkscape:connector-curvature="0" sodipodi:nodetypes="csc"/><path style="display:inline;fill:#d0b18b;fill-opacity:1;stroke:none;stroke-width:.23770896px;stroke-linecap:butt;stroke-linejoin:miter;stroke-opacity:1" d="M50.566 266.303c6.65-8.217 5.452 9.382-1.36 9.315-4.494-.043 1.36-9.315 1.36-9.315z" inkscape:connector-curvature="0" sodipodi:nodetypes="csc"/><path style="display:inline;opacity:1;fill:#b9976b;fill-opacity:1;stroke:none;stroke-width:.07199875;stroke-linecap:butt;stroke-linejoin:round;stroke-miterlimit:4;stroke-dasharray:none;stroke-opacity:1" d="M50.087 273.906c.289-.052.382-.087.551-.203.784-.54 1.696-2.14 1.987-3.486.09-.417.09-1.224 0-1.52a2.04 2.04 0 0 0-.442-.791c-.163-.17-.566-.452-.646-.452-.065 0-.327.319-.605.736-.586.88-1.483 2.905-1.82 4.105-.257.914-.218 1.436.12 1.598.158.076.476.08.855.013z" inkscape:connector-curvature="0"/><path style="display:inline;fill:#8f7049;fill-opacity:1;stroke:none;stroke-width:.27664718px;stroke-linecap:butt;stroke-linejoin:miter;stroke-opacity:1" d="M33.878 290.265c-6.628 0-14.406-9.113-15.559-11.714-1.153-2.6-2.116-11.084-2.116-11.084-.416-2.178-6.193-27.232 17.675-27.232 23.868 0 18.508 22.877 17.676 27.232 0 0-1.153 8.767-2.211 11.084-1.058 2.318-8.836 11.714-15.465 11.714z" inkscape:connector-curvature="0" sodipodi:nodetypes="szszszs"/><path style="display:inline;fill:#8f7049;fill-opacity:1;stroke:none;stroke-width:.26458332px;stroke-linecap:butt;stroke-linejoin:miter;stroke-opacity:1" d="M53.972 269.27c.468-2.739-1.804-3.941-3.808.468-2.005 4.41-.869 4.11.2 3.91 1.07-.201 3.775-4.945 1.036-6.014a.857.857 0 0 1 .367-.501c.568.2 3.109 3.84-1.136 7.049-3.669 2.774-1.399-4.794.301-6.715 1.737-1.938 4.043-1.871 3.04 1.804z" inkscape:connector-curvature="0" sodipodi:nodetypes="cscccsccc"/><path style="display:inline;fill:#d0b18b;fill-opacity:1;stroke:none;stroke-width:.26458332px;stroke-linecap:butt;stroke-linejoin:miter;stroke-opacity:1" d="M33.878 289.063c-6.35 0-13.947-9.13-14.816-11.113-.87-1.983-2.117-10.583-2.117-10.583-.415-2.076-6.01-25.93 16.933-25.93 22.943 0 17.764 21.779 16.934 25.93 0 0-1.248 8.411-2.117 10.583-.869 2.172-8.467 11.113-14.817 11.113z" inkscape:connector-curvature="0" sodipodi:nodetypes="szszszs"/><path style="display:inline;opacity:1;fill:#7a603e;fill-opacity:1;stroke:none;stroke-width:.54652095;stroke-linecap:butt;stroke-linejoin:round;stroke-miterlimit:4;stroke-dasharray:none;stroke-opacity:1" d="M41.78 279.008c-3.26 3.79-12.292 3.691-15.804 0 1.693 1.059 4.919 1.521 7.902 1.521 2.984 0 6.21-.462 7.903-1.52z" inkscape:connector-curvature="0" sodipodi:nodetypes="cczc"/><path style="display:inline;opacity:1;fill:#50422f;fill-opacity:1;stroke:none;stroke-width:.52916664;stroke-linecap:butt;stroke-linejoin:round;stroke-miterlimit:4;stroke-dasharray:none;stroke-opacity:1" d="M29.833 265.622c-.15 2.03-1.052 4.6-4.66 4.6-3.61 0-4.494-3.006-4.494-4.962.373-1.21 1.941-2.67 4.493-2.706 2.568-.037 4.426 1.426 4.66 3.068" inkscape:connector-curvature="0" sodipodi:nodetypes="czcsc"/><path style="display:inline;opacity:1;fill:#fff;fill-opacity:1;stroke:none;stroke-width:.48607698;stroke-linecap:butt;stroke-linejoin:round;stroke-miterlimit:4;stroke-dasharray:none;stroke-opacity:1" d="M29.666 265.695c-.144 1.778-.976 4.165-4.49 4.16-3.516-.007-4.33-2.83-4.33-4.543.36-1.06 1.87-2.192 4.33-2.224 2.473-.032 4.263 1.168 4.49 2.607" inkscape:connector-curvature="0" sodipodi:nodetypes="czcsc"/><path style="display:inline;opacity:1;fill:url(#b);fill-opacity:1;stroke:none;stroke-width:.52916664;stroke-linecap:butt;stroke-linejoin:round;stroke-miterlimit:4;stroke-dasharray:none;stroke-opacity:1" d="M25.175 263.041c-1.317.017-2.358.351-3.1.82a3.78 3.78 0 0 0-.01.208 3.78 3.78 0 0 0 3.779 3.78 3.78 3.78 0 0 0 3.64-2.776c-.551-1.17-2.174-2.06-4.309-2.032z" inkscape:connector-curvature="0"/><ellipse style="display:inline;opacity:1;fill:#fdfcfa;fill-opacity:1;stroke:none;stroke-width:.52916664;stroke-linecap:butt;stroke-linejoin:round;stroke-miterlimit:4;stroke-dasharray:none;stroke-opacity:1" cx="26.444508" cy="266.68161" rx="0.2952939" ry="0.23623511"/><path style="display:inline;fill:#7b613f;fill-opacity:1;stroke:none;stroke-width:.22912194px;stroke-linecap:butt;stroke-linejoin:miter;stroke-opacity:1" d="M31.102 274.246c.568.239 1.587.794 2.778.794 1.19 0 2.182-.53 2.788-.747.386.747-1.598 2.07-2.788 2.07-1.19 0-3.175-1.323-2.778-2.117z" inkscape:connector-curvature="0" sodipodi:nodetypes="czczc"/><path style="display:inline;fill:#413527;fill-opacity:1;stroke:none;stroke-width:.23499501px;stroke-linecap:butt;stroke-linejoin:miter;stroke-opacity:1" d="M19.456 260.353c0-3.988 8.664-3.581 10.716-.664-4.067-.836-7.476-1.54-10.716.664z" inkscape:connector-curvature="0" sodipodi:nodetypes="ccc"/><path style="display:inline;fill:#51412e;fill-opacity:1;stroke:none;stroke-width:.23499501px;stroke-linecap:butt;stroke-linejoin:miter;stroke-opacity:1" d="M19.755 259.902c1.023-3.197 7.372-2.502 9.919-.546-4.067-.835-7.058-1.242-9.92.546z" inkscape:connector-curvature="0" sodipodi:nodetypes="ccc"/><path style="display:inline;opacity:1;fill:#3a3a3a;fill-opacity:1;stroke:none;stroke-width:.52916664;stroke-linecap:butt;stroke-linejoin:round;stroke-miterlimit:4;stroke-dasharray:none;stroke-opacity:1" d="M25.175 262.994c-.14.002-.274.008-.408.017a1.512 1.512 0 0 0-.482 1.105 1.512 1.512 0 0 0 1.512 1.512 1.512 1.512 0 0 0 1.512-1.512 1.512 1.512 0 0 0-.296-.895 6.597 6.597 0 0 0-1.838-.227z" inkscape:connector-curvature="0"/><ellipse style="display:inline;opacity:1;fill:#fdfcfa;fill-opacity:1;stroke:none;stroke-width:.52916664;stroke-linecap:butt;stroke-linejoin:round;stroke-miterlimit:4;stroke-dasharray:none;stroke-opacity:1" cx="27.016163" cy="265.64215" rx="0.62602305" ry="0.56696427"/><path style="display:inline;opacity:1;fill:#50422f;fill-opacity:1;stroke:none;stroke-width:.52916664;stroke-linecap:butt;stroke-linejoin:round;stroke-miterlimit:4;stroke-dasharray:none;stroke-opacity:1" d="M38.038 265.622c.148 2.03 1.051 4.6 4.66 4.6 3.61 0 4.494-3.006 4.494-4.962-.373-1.21-1.942-2.67-4.494-2.706-2.568-.037-4.425 1.426-4.66 3.068" inkscape:connector-curvature="0" sodipodi:nodetypes="czcsc"/><path style="display:inline;opacity:1;fill:#fff;fill-opacity:1;stroke:none;stroke-width:.48607698;stroke-linecap:butt;stroke-linejoin:round;stroke-miterlimit:4;stroke-dasharray:none;stroke-opacity:1" d="M38.205 265.695c.143 1.778.975 4.165 4.49 4.16 3.515-.007 4.33-2.83 4.33-4.543-.36-1.06-1.871-2.192-4.33-2.224-2.474-.032-4.264 1.168-4.49 2.607" inkscape:connector-curvature="0" sodipodi:nodetypes="czcsc"/><path style="display:inline;opacity:1;fill:url(#c);fill-opacity:1;stroke:none;stroke-width:.52916664;stroke-linecap:butt;stroke-linejoin:round;stroke-miterlimit:4;stroke-dasharray:none;stroke-opacity:1" d="M42.695 263.041c1.317.017 2.359.351 3.1.82a3.78 3.78 0 0 1 .011.208 3.78 3.78 0 0 1-3.78 3.78 3.78 3.78 0 0 1-3.64-2.776c.551-1.17 2.174-2.06 4.31-2.032z" inkscape:connector-curvature="0"/><ellipse style="display:inline;opacity:1;fill:#fdfcfa;fill-opacity:1;stroke:none;stroke-width:.52916664;stroke-linecap:butt;stroke-linejoin:round;stroke-miterlimit:4;stroke-dasharray:none;stroke-opacity:1" cx="-42.48418" cy="266.68161" rx="0.2952939" ry="0.23623511" transform="scale(-1 1)"/><path style="display:inline;fill:#413527;fill-opacity:1;stroke:none;stroke-width:.23499501px;stroke-linecap:butt;stroke-linejoin:miter;stroke-opacity:1" d="M48.414 260.353c0-3.988-8.664-3.581-10.716-.664 4.067-.836 7.476-1.54 10.716.664z" inkscape:connector-curvature="0" sodipodi:nodetypes="ccc"/><path style="display:inline;fill:#51412e;fill-opacity:1;stroke:none;stroke-width:.23499501px;stroke-linecap:butt;stroke-linejoin:miter;stroke-opacity:1" d="M48.116 259.902c-1.024-3.197-7.373-2.502-9.92-.546 4.068-.835 7.058-1.242 9.92.546z" inkscape:connector-curvature="0" sodipodi:nodetypes="ccc"/><path style="display:inline;opacity:1;fill:#3a3a3a;fill-opacity:1;stroke:none;stroke-width:.52916664;stroke-linecap:butt;stroke-linejoin:round;stroke-miterlimit:4;stroke-dasharray:none;stroke-opacity:1" d="M42.695 262.994c.14.002.275.008.408.017a1.512 1.512 0 0 1 .483 1.105 1.512 1.512 0 0 1-1.513 1.512 1.512 1.512 0 0 1-1.512-1.512 1.512 1.512 0 0 1 .296-.895 6.597 6.597 0 0 1 1.838-.227z" inkscape:connector-curvature="0"/><ellipse style="display:inline;opacity:1;fill:#fdfcfa;fill-opacity:1;stroke:none;stroke-width:.52916664;stroke-linecap:butt;stroke-linejoin:round;stroke-miterlimit:4;stroke-dasharray:none;stroke-opacity:1" cx="-42.97086" cy="265.64215" rx="0.62602305" ry="0.56696427" transform="scale(-1 1)"/><path style="display:inline;fill:#413527;fill-opacity:1;stroke:none;stroke-width:.26458332px;stroke-linecap:butt;stroke-linejoin:miter;stroke-opacity:1" d="M43.955 237.21c-3.246.794-5.31 1.524-10.08 1.522-4.77-.002-16.36 3.475-16.2 7.893.011.309-.868-1.944-1.123-2.12-.255-.176-.945 3.313-1.913 4.715-3.875 5.613-.946 14.7.792 15.034.868.468 3.603-5.941 2.868-10.017-.735-4.076 1.675-5.68 4.281-6.214 2.6-.534 7.046 2.924 11.294 2.924 4.25 0 8.695-3.458 11.294-2.924 2.606.534 5.017 2.138 4.282 6.214-.735 4.076 2 10.485 2.868 10.017 1.27.468 4.867-9.282.991-14.895-.269-.39-.555-.77-.854-1.144l1.718-2.058-2.079.493a21.382 21.382 0 0 0-.17-.185c.567-.577 1.814-1.868 1.447-1.71-.468.2-2.673-.13-2.673-.13s1.337-2.872 1.67-3.941c-1.47.534-5.206 1.27-5.206 1.27s1.07-1.404 2.005-4.277c-1.537.935-6.682 1.937-6.682 1.937s.534-.935 1.47-2.405z" inkscape:connector-curvature="0" sodipodi:nodetypes="czssscssssscccccccccccccc"/><path style="display:inline;fill:#51412e;fill-opacity:1;stroke:none;stroke-width:.26458332px;stroke-linecap:butt;stroke-linejoin:miter;stroke-opacity:1" d="M42.897 238.268c-2.926.814-4.56 1.591-9.023 1.523-4.462-.069-16.36 3.474-16.199 7.893.011.308-.868-1.945-1.123-2.12-.255-.177.114 1.725-.854 3.127-3.876 5.612-1.136 14.566-.267 15.034.868.468 3.073-5.412 2.338-9.488-.735-4.076 2.205-5.68 4.811-6.214 2.6-.534 7.046 2.395 11.294 2.395 4.25 0 8.695-2.929 11.294-2.395 2.606.534 5.546 2.138 4.811 6.214-.735 4.076 1.47 9.956 2.34 9.488.868-.468 3.807-8.753-.068-14.366-.27-.39-.555-.77-.855-1.144l1.19-1.529-2.079.493a21.5 21.5 0 0 0-.17-.185c.567-.577 1.813-1.868 1.446-1.71-.467.2-2.672.4-2.672.4s1.336-2.873 1.67-3.942c-1.47.534-4.677 1.27-4.677 1.27s1.07-1.404 2.005-4.277c-1.537.936-6.682 1.938-6.682 1.938s.534-.935 1.47-2.405z" inkscape:connector-curvature="0" sodipodi:nodetypes="czssscssssscccccccccccccc"/></g></svg>