<?xml version="1.0" encoding="UTF-8" standalone="no"?>
<!-- Created with Sodipodi ("http://www.sodipodi.com/") -->

<svg
   xmlns:dc="http://purl.org/dc/elements/1.1/"
   xmlns:cc="http://creativecommons.org/ns#"
   xmlns:rdf="http://www.w3.org/1999/02/22-rdf-syntax-ns#"
   xmlns:svg="http://www.w3.org/2000/svg"
   xmlns="http://www.w3.org/2000/svg"
   xmlns:xlink="http://www.w3.org/1999/xlink"
   xmlns:sodipodi="http://sodipodi.sourceforge.net/DTD/sodipodi-0.dtd"
   xmlns:inkscape="http://www.inkscape.org/namespaces/inkscape"
   id="svg690"
   sodipodi:version="0.32"
   width="437"
   height="422"
   xml:space="preserve"
   sodipodi:docname="boy1.svg"
   inkscape:version="0.91 r13725"
   inkscape:output_extension="org.inkscape.output.svg.inkscape"
   version="1.0"><metadata
     id="metadata23"><rdf:RDF><cc:Work
         rdf:about=""><dc:format>image/svg+xml</dc:format><dc:type
           rdf:resource="http://purl.org/dc/dcmitype/StillImage" /><dc:title></dc:title></cc:Work></rdf:RDF></metadata><defs
     id="defs692"><inkscape:perspective
       sodipodi:type="inkscape:persp3d"
       inkscape:vp_x="0 : 526.18109 : 1"
       inkscape:vp_y="0 : 1000 : 0"
       inkscape:vp_z="744.09448 : 526.18109 : 1"
       inkscape:persp3d-origin="372.04724 : 350.78739 : 1"
       id="perspective25" /><linearGradient
       id="linearGradient705"><stop
         style="stop-color:#ffffff;stop-opacity:1;"
         offset="0"
         id="stop706" /><stop
         style="stop-color:#4c4c7a;stop-opacity:1;"
         offset="1"
         id="stop707" /></linearGradient><linearGradient
       id="linearGradient694"><stop
         style="stop-color:#c7f0ff;stop-opacity:1;"
         offset="0"
         id="stop695" /><stop
         style="stop-color:#ffffff;stop-opacity:1;"
         offset="1"
         id="stop696" /></linearGradient><linearGradient
       xlink:href="#linearGradient694"
       id="linearGradient697"
       x1="74.833076"
       y1="224.92026"
       x2="579.74213"
       y2="987.05554"
       gradientTransform="matrix(1.2403472,0,0,0.8062259,99.100189,-166.10214)"
       gradientUnits="userSpaceOnUse" /><linearGradient
       xlink:href="#linearGradient694"
       id="linearGradient700"
       x1="0.495"
       y1="0.9609375"
       x2="0.49000001"
       y2="-0.1796875" /><linearGradient
       xlink:href="#linearGradient694"
       id="linearGradient703"
       y2="572.83191"
       x2="201.4899"
       y1="52.162842"
       x1="645.30786"
       gradientTransform="scale(1.1616636,0.8608344)"
       gradientUnits="userSpaceOnUse" /><linearGradient
       xlink:href="#linearGradient694"
       id="linearGradient708"
       x1="183.00497"
       y1="837.26624"
       x2="177.1879"
       y2="346.11108"
       gradientTransform="matrix(2.2504214,0,0,0.4443612,99.100189,-166.10214)"
       gradientUnits="userSpaceOnUse" /><radialGradient
       xlink:href="#linearGradient705"
       id="radialGradient709"
       cx="459.01657"
       cy="291.24692"
       r="358.83459"
       fx="459.01657"
       fy="291.24692"
       gradientTransform="scale(1.1544482,0.8662147)"
       gradientUnits="userSpaceOnUse" /><linearGradient
       inkscape:collect="always"
       xlink:href="#linearGradient694"
       id="linearGradient2409"
       gradientUnits="userSpaceOnUse"
       gradientTransform="scale(1.1616636,0.8608344)"
       x1="645.30786"
       y1="52.162842"
       x2="201.4899"
       y2="572.83191" /><radialGradient
       inkscape:collect="always"
       xlink:href="#linearGradient705"
       id="radialGradient2411"
       gradientUnits="userSpaceOnUse"
       gradientTransform="scale(1.1544482,0.8662147)"
       cx="459.01657"
       cy="291.24692"
       fx="459.01657"
       fy="291.24692"
       r="358.83459" /><linearGradient
       inkscape:collect="always"
       xlink:href="#linearGradient694"
       id="linearGradient2413"
       gradientUnits="userSpaceOnUse"
       gradientTransform="matrix(2.2504214,0,0,0.4443612,99.100189,-166.10214)"
       x1="183.00497"
       y1="837.26624"
       x2="177.1879"
       y2="346.11108" /><radialGradient
       id="radialGradient5589"
       gradientUnits="userSpaceOnUse"
       cy="-7.2304001"
       cx="94.922997"
       gradientTransform="matrix(3.2385471,2.7169206,-1.133477,1.2843634,-158.54144,-218.4914)"
       r="70.507004"
       inkscape:collect="always"><stop
         id="stop4642"
         style="stop-color:#ff9933"
         offset="0" /><stop
         id="stop4644"
         style="stop-color:#ffcc00"
         offset="1" /></radialGradient></defs><sodipodi:namedview
     id="base"
     showgrid="false"
     inkscape:zoom="0.33193016"
     inkscape:cx="100.57018"
     inkscape:cy="251.17823"
     inkscape:window-width="1303"
     inkscape:window-height="744"
     inkscape:window-x="63"
     inkscape:window-y="24"
     inkscape:current-layer="svg690"
     inkscape:window-maximized="1" /><path
     id="path4461"
     sodipodi:nodetypes="sssccs"
     style="fill:#ffdb9d;stroke:#262316;stroke-width:2.58513427"
     inkscape:connector-curvature="0"
     d="m 52.273944,216.84895 c 13.91646,81.91063 -0.40374,192.0901 149.418806,198.52553 168.81287,7.25 165.26975,-119.49935 172.40543,-209.53582 4.80241,-60.60765 -89.07532,-129.378 -89.07532,-129.378 L 104.00109,90.22495 c 0,0 -60.872926,72.75527 -51.721336,126.62683 z" /><path
     id="path4421"
     sodipodi:nodetypes="cccsccccccsccsssssc"
     style="fill:url(#radialGradient5589);stroke:#262316;stroke-width:2.58513427"
     inkscape:connector-curvature="0"
     d="m 17.794013,230.61323 34.479931,13.7637 8.62012,-52.30312 c 0,0 17.24054,66.06457 20.11402,52.30312 2.87335,-13.7637 22.987476,-63.31341 22.987476,-63.31341 l 28.73414,74.32371 25.86067,-68.81856 20.11373,63.31341 34.47991,-107.3574 51.72135,68.81855 c 0,0 2.87339,-99.09826 17.24055,-55.05428 14.36716,44.044 51.72133,82.58284 51.72133,82.58284 l 25.86067,-66.06456 c 0,0 5.74666,90.83913 17.24055,68.81855 11.49359,-22.02199 14.36678,-88.08798 14.36678,-71.57254 0,16.51656 26.20422,115.49458 20.11402,68.81855 C 405.7026,194.82781 447.97418,181.45209 391.33524,84.71924 368.52898,45.81168 330.27613,17.2876 193.03131,18.65183 -31.299086,20.88396 17.760553,230.61266 17.760553,230.61266 Z" /><ellipse
     id="path4423"
     style="fill:#000000;fill-opacity:0.99216003;stroke:#262316;stroke-width:2.58511329"
     cx="150.23395"
     cy="260.91028"
     rx="10.286507"
     ry="11.40749" /><path
     id="path4435"
     sodipodi:nodetypes="csc"
     style="fill:#0e232e;stroke:#262316;stroke-width:2.58513427"
     inkscape:connector-curvature="0"
     d="m 186.2578,301.36609 c 10.14733,4.27166 11.96659,14.41662 29.36015,6.94113 17.39501,-7.47548 3.97916,-6.94113 3.97916,-6.94113" /><path
     id="path4437"
     sodipodi:nodetypes="cacac"
     style="fill:#990000;stroke:#262316;stroke-width:2.58513427"
     inkscape:connector-curvature="0"
     d="m 167.01502,331.9124 c 0,0 30.38992,32.02969 47.60806,30.12656 18.61241,-2.05698 47.60807,-43.51644 47.60807,-43.51644 0,0 -35.55042,21.77778 -54.40922,23.4316 -13.76579,1.20711 -40.80691,-10.04199 -40.80691,-10.04199 z" /><ellipse
     id="path4439"
     style="fill:#000000;fill-opacity:0.99216003;stroke:#262316;stroke-width:2.58511329"
     cx="250.45927"
     cy="258.15628"
     rx="10.286507"
     ry="11.40749" /><path
     id="path4467"
     sodipodi:nodetypes="csc"
     style="fill:#ffdb9d;stroke:#262316;stroke-width:2.58513427"
     inkscape:connector-curvature="0"
     d="m 55.147984,247.13149 c 6.03116,-28.88711 -49.9265008,-18.5595 -57.4694501,2.75266 -9.3511399,26.43008 63.2146501,57.80826 63.2146501,57.80826" /><path
     id="path4469"
     sodipodi:nodetypes="cscc"
     style="fill:#ffdb9d;stroke:#262316;stroke-width:2.58513427"
     inkscape:connector-curvature="0"
     d="m 376.96933,236.11837 c 0,0 42.3923,-19.51504 51.72134,-5.50514 16.87518,25.33869 -66.0887,68.81854 -66.0887,68.81854 z" /></svg>