<!--Created with Inkscape (http://www.inkscape.org/)--><svg xmlns:dc="http://purl.org/dc/elements/1.1/" xmlns:cc="http://creativecommons.org/ns#" xmlns:rdf="http://www.w3.org/1999/02/22-rdf-syntax-ns#" xmlns="http://www.w3.org/2000/svg" xmlns:xlink="http://www.w3.org/1999/xlink" xmlns:sodipodi="http://sodipodi.sourceforge.net/DTD/sodipodi-0.dtd" xmlns:inkscape="http://www.inkscape.org/namespaces/inkscape" width="256" height="256" viewBox="0 0 67.733332 67.733335" inkscape:version="0.92.1 r15371" sodipodi:docname="boy2.svg"><defs><linearGradient inkscape:collect="always" xlink:href="#a" id="c" x1="90.72126" y1="127.98526" x2="90.72126" y2="150.12811" gradientUnits="userSpaceOnUse" gradientTransform="matrix(-.26458 0 0 .26458 67.342 229.749)"/><linearGradient id="a" inkscape:collect="always"><stop offset="0" style="stop-color:#ad7932;stop-opacity:1"/><stop offset="1" style="stop-color:#d3b48e;stop-opacity:1"/></linearGradient><linearGradient inkscape:collect="always" xlink:href="#a" id="b" x1="90.72126" y1="127.98526" x2="90.72126" y2="150.12811" gradientUnits="userSpaceOnUse" gradientTransform="matrix(.26458 0 0 .26458 .53 229.749)"/></defs><sodipodi:namedview pagecolor="#ffffff" bordercolor="#666666" borderopacity="1.0" inkscape:pageopacity="0.0" inkscape:pageshadow="2" inkscape:zoom="2.8" inkscape:cx="95.324491" inkscape:cy="98.63389" inkscape:document-units="mm" inkscape:current-layer="layer1" showgrid="false" units="px" inkscape:window-width="1884" inkscape:window-height="1051" inkscape:window-x="0" inkscape:window-y="0" inkscape:window-maximized="1"/><metadata><rdf:RDF><cc:Work><dc:format>image/svg+xml</dc:format><dc:type rdf:resource="http://purl.org/dc/dcmitype/StillImage"/><dc:title/><dc:date>2017</dc:date><dc:creator><cc:Agent><dc:title>Timothée Giet</dc:title></cc:Agent></dc:creator><cc:license rdf:resource="http://creativecommons.org/licenses/by-sa/4.0/"/></cc:Work><cc:License rdf:about="http://creativecommons.org/licenses/by-sa/4.0/"><cc:permits rdf:resource="http://creativecommons.org/ns#Reproduction"/><cc:permits rdf:resource="http://creativecommons.org/ns#Distribution"/><cc:requires rdf:resource="http://creativecommons.org/ns#Notice"/><cc:requires rdf:resource="http://creativecommons.org/ns#Attribution"/><cc:permits rdf:resource="http://creativecommons.org/ns#DerivativeWorks"/><cc:requires rdf:resource="http://creativecommons.org/ns#ShareAlike"/></cc:License></rdf:RDF></metadata><g inkscape:label="Calque 1" inkscape:groupmode="layer" transform="translate(0 -229.267)"><path style="display:inline;fill:#8f7049;fill-opacity:1;stroke:none;stroke-width:.26458332px;stroke-linecap:butt;stroke-linejoin:miter;stroke-opacity:1" d="M17.172 265c-7.248-9.339-6.088 10.966 1.336 10.891 4.9-.05-1.336-10.891-1.336-10.891z" inkscape:connector-curvature="0" sodipodi:nodetypes="csc"/><path style="display:inline;fill:#d0b18b;fill-opacity:1;stroke:none;stroke-width:.23770896px;stroke-linecap:butt;stroke-linejoin:miter;stroke-opacity:1" d="M17.304 265.774c-6.65-8.217-5.452 9.382 1.36 9.315 4.495-.043-1.36-9.315-1.36-9.315z" inkscape:connector-curvature="0" sodipodi:nodetypes="csc"/><path style="display:inline;opacity:1;fill:#b9976b;fill-opacity:1;stroke:none;stroke-width:.07199875;stroke-linecap:butt;stroke-linejoin:round;stroke-miterlimit:4;stroke-dasharray:none;stroke-opacity:1" d="M17.783 273.376c-.288-.052-.382-.086-.55-.203-.785-.54-1.697-2.14-1.988-3.485-.09-.417-.09-1.224 0-1.52a2.04 2.04 0 0 1 .442-.791c.163-.17.566-.452.647-.452.065 0 .326.319.604.736.586.88 1.484 2.904 1.82 4.105.257.914.218 1.436-.12 1.598-.158.076-.476.08-.855.012z" inkscape:connector-curvature="0"/><path style="display:inline;fill:#8f7049;fill-opacity:1;stroke:none;stroke-width:.26458332px;stroke-linecap:butt;stroke-linejoin:miter;stroke-opacity:1" d="M13.898 268.742c-.468-2.74 1.804-3.943 3.809.467 2.004 4.41.868 4.11-.2 3.91-1.07-.201-3.776-4.945-1.037-6.014a.857.857 0 0 0-.367-.502c-.568.2-3.108 3.84 1.136 7.05 3.669 2.774 1.4-4.794-.3-6.715-1.738-1.938-4.043-1.871-3.041 1.804z" inkscape:connector-curvature="0" sodipodi:nodetypes="cscccsccc"/><path style="display:inline;fill:#8f7049;fill-opacity:1;stroke:none;stroke-width:.26458332px;stroke-linecap:butt;stroke-linejoin:miter;stroke-opacity:1" d="M50.7 265c7.247-9.339 6.087 10.966-1.337 10.891-4.9-.05 1.336-10.891 1.336-10.891z" inkscape:connector-curvature="0" sodipodi:nodetypes="csc"/><path style="display:inline;fill:#d0b18b;fill-opacity:1;stroke:none;stroke-width:.23770896px;stroke-linecap:butt;stroke-linejoin:miter;stroke-opacity:1" d="M50.567 265.774c6.65-8.217 5.452 9.382-1.36 9.315-4.494-.043 1.36-9.315 1.36-9.315z" inkscape:connector-curvature="0" sodipodi:nodetypes="csc"/><path style="display:inline;opacity:1;fill:#b9976b;fill-opacity:1;stroke:none;stroke-width:.07199875;stroke-linecap:butt;stroke-linejoin:round;stroke-miterlimit:4;stroke-dasharray:none;stroke-opacity:1" d="M50.088 273.376c.289-.052.382-.086.551-.203.784-.54 1.696-2.14 1.987-3.485.09-.417.09-1.224 0-1.52a2.04 2.04 0 0 0-.442-.791c-.163-.17-.566-.452-.647-.452-.064 0-.326.319-.604.736-.586.88-1.484 2.904-1.82 4.105-.257.914-.218 1.436.12 1.598.158.076.476.08.855.012z" inkscape:connector-curvature="0"/><path style="display:inline;fill:#8f7049;fill-opacity:1;stroke:none;stroke-width:.27664718px;stroke-linecap:butt;stroke-linejoin:miter;stroke-opacity:1" d="M33.878 290.265c-6.628 0-13.348-8.055-14.5-10.655-1.153-2.601-3.175-12.143-3.175-12.143-.416-2.178-6.193-27.232 17.675-27.232 23.868 0 18.508 22.877 17.676 27.232 0 0-2.211 9.825-3.27 12.143-1.058 2.317-7.777 10.655-14.406 10.655z" inkscape:connector-curvature="0" sodipodi:nodetypes="szszszs"/><path style="display:inline;fill:#8f7049;fill-opacity:1;stroke:none;stroke-width:.26458332px;stroke-linecap:butt;stroke-linejoin:miter;stroke-opacity:1" d="M53.973 268.742c.468-2.74-1.804-3.943-3.808.467-2.005 4.41-.87 4.11.2 3.91 1.07-.201 3.775-4.945 1.036-6.014a.857.857 0 0 1 .367-.502c.568.2 3.108 3.84-1.136 7.05-3.669 2.774-1.399-4.794.301-6.715 1.737-1.938 4.042-1.871 3.04 1.804z" inkscape:connector-curvature="0" sodipodi:nodetypes="cscccsccc"/><path style="display:inline;fill:#d0b18b;fill-opacity:1;stroke:none;stroke-width:.26458332px;stroke-linecap:butt;stroke-linejoin:miter;stroke-opacity:1" d="M33.878 289.063c-6.35 0-12.889-8.072-13.758-10.055-.87-1.982-3.175-11.641-3.175-11.641-.415-2.076-6.01-25.93 16.933-25.93 22.943 0 17.764 21.779 16.934 25.93 0 0-2.306 9.47-3.175 11.641-.87 2.172-7.409 10.054-13.759 10.054z" inkscape:connector-curvature="0" sodipodi:nodetypes="szszszs"/><path style="display:inline;opacity:1;fill:#7a603e;fill-opacity:1;stroke:none;stroke-width:.5022487;stroke-linecap:butt;stroke-linejoin:round;stroke-miterlimit:4;stroke-dasharray:none;stroke-opacity:1" d="M40.552 279.008c-2.753 3.79-10.382 3.691-13.348 0 1.43 1.059 4.155 1.521 6.674 1.521 2.52 0 5.244-.462 6.674-1.52z" inkscape:connector-curvature="0" sodipodi:nodetypes="cczc"/><path style="display:inline;opacity:1;fill:#5c5035;fill-opacity:1;stroke:none;stroke-width:.52916664;stroke-linecap:butt;stroke-linejoin:round;stroke-miterlimit:4;stroke-dasharray:none;stroke-opacity:1" d="M30.362 266.151c-.149 2.03-1.052 4.6-4.66 4.6-3.61 0-4.494-3.006-4.494-4.962.373-1.21 1.941-2.67 4.493-2.706 2.568-.037 4.426 1.426 4.66 3.068" inkscape:connector-curvature="0" sodipodi:nodetypes="czcsc"/><path style="display:inline;opacity:1;fill:#fff;fill-opacity:1;stroke:none;stroke-width:.48607698;stroke-linecap:butt;stroke-linejoin:round;stroke-miterlimit:4;stroke-dasharray:none;stroke-opacity:1" d="M30.195 266.224c-.144 1.778-.976 4.165-4.49 4.16-3.516-.007-4.33-2.83-4.33-4.543.36-1.06 1.87-2.192 4.33-2.224 2.473-.032 4.263 1.169 4.49 2.607" inkscape:connector-curvature="0" sodipodi:nodetypes="czcsc"/><path style="display:inline;opacity:1;fill:url(#b);fill-opacity:1;stroke:none;stroke-width:.52916664;stroke-linecap:butt;stroke-linejoin:round;stroke-miterlimit:4;stroke-dasharray:none;stroke-opacity:1" d="M25.704 263.57c-1.316.017-2.358.351-3.1.82a3.78 3.78 0 0 0-.01.208 3.78 3.78 0 0 0 3.78 3.78 3.78 3.78 0 0 0 3.64-2.776c-.552-1.169-2.175-2.06-4.31-2.032z" inkscape:connector-curvature="0"/><ellipse style="display:inline;opacity:1;fill:#fdfcfa;fill-opacity:1;stroke:none;stroke-width:.52916664;stroke-linecap:butt;stroke-linejoin:round;stroke-miterlimit:4;stroke-dasharray:none;stroke-opacity:1" cx="26.973675" cy="267.21078" rx="0.2952939" ry="0.23623511"/><path style="display:inline;fill:#7b613f;fill-opacity:1;stroke:none;stroke-width:.25340664px;stroke-linecap:butt;stroke-linejoin:miter;stroke-opacity:1" d="M31.102 274.87c.568.292 1.587.97 2.778.97 1.19 0 2.182-.647 2.788-.913.386.913-1.598 2.532-2.788 2.532-1.19 0-3.175-1.619-2.778-2.59z" inkscape:connector-curvature="0" sodipodi:nodetypes="czczc"/><path style="display:inline;fill:#8c7439;fill-opacity:1;stroke:none;stroke-width:.22078453px;stroke-linecap:butt;stroke-linejoin:miter;stroke-opacity:1" d="M18.89 260.353c0-3.344 9.122-3.002 11.282-.557-4.282-.7-7.872-1.29-11.282.557z" inkscape:connector-curvature="0" sodipodi:nodetypes="ccc"/><path style="display:inline;fill:#9e813e;fill-opacity:1;stroke:none;stroke-width:.26458332px;stroke-linecap:butt;stroke-linejoin:miter;stroke-opacity:1" d="M20.889 249.47c-2.363 2.362-3.685 14.835-2.835 16.63-5.325-1.71-9.668-20.58-.095-20.505 1.256.792 2.966 3.445 2.93 3.874z" inkscape:connector-curvature="0" sodipodi:nodetypes="cccc"/><path style="display:inline;fill:#b08f42;fill-opacity:1;stroke:none;stroke-width:.22078453px;stroke-linecap:butt;stroke-linejoin:miter;stroke-opacity:1" d="M19.203 259.975c1.078-2.68 7.763-2.097 10.444-.458-4.282-.7-7.43-1.041-10.444.458z" inkscape:connector-curvature="0" sodipodi:nodetypes="ccc"/><path style="display:inline;fill:#b08f42;fill-opacity:1;stroke:none;stroke-width:.26458332px;stroke-linecap:butt;stroke-linejoin:miter;stroke-opacity:1" d="M20.322 248.525c-2.835 3.118-3.78 14.08-2.93 15.875-3.812-1.522-8.912-17.462.662-17.387 1.1-.134 2.984.59 2.268 1.512z" inkscape:connector-curvature="0" sodipodi:nodetypes="cccc"/><path style="display:inline;opacity:1;fill:#3a3a3a;fill-opacity:1;stroke:none;stroke-width:.52916664;stroke-linecap:butt;stroke-linejoin:round;stroke-miterlimit:4;stroke-dasharray:none;stroke-opacity:1" d="M25.704 263.523c-.139.002-.274.008-.407.017a1.512 1.512 0 0 0-.483 1.105 1.512 1.512 0 0 0 1.512 1.512 1.512 1.512 0 0 0 1.512-1.512 1.512 1.512 0 0 0-.295-.895 6.597 6.597 0 0 0-1.839-.227z" inkscape:connector-curvature="0"/><ellipse style="display:inline;opacity:1;fill:#fdfcfa;fill-opacity:1;stroke:none;stroke-width:.52916664;stroke-linecap:butt;stroke-linejoin:round;stroke-miterlimit:4;stroke-dasharray:none;stroke-opacity:1" cx="27.54533" cy="266.17133" rx="0.62602305" ry="0.56696427"/><path style="display:inline;opacity:1;fill:#5c5035;fill-opacity:1;stroke:none;stroke-width:.52916664;stroke-linecap:butt;stroke-linejoin:round;stroke-miterlimit:4;stroke-dasharray:none;stroke-opacity:1" d="M37.51 266.151c.148 2.03 1.05 4.6 4.66 4.6 3.609 0 4.493-3.006 4.493-4.962-.373-1.21-1.941-2.67-4.493-2.706-2.568-.037-4.426 1.426-4.66 3.068" inkscape:connector-curvature="0" sodipodi:nodetypes="czcsc"/><path style="display:inline;opacity:1;fill:#fff;fill-opacity:1;stroke:none;stroke-width:.48607698;stroke-linecap:butt;stroke-linejoin:round;stroke-miterlimit:4;stroke-dasharray:none;stroke-opacity:1" d="M37.676 266.224c.144 1.778.976 4.165 4.49 4.16 3.516-.007 4.33-2.83 4.33-4.543-.36-1.06-1.87-2.192-4.33-2.224-2.473-.032-4.263 1.169-4.49 2.607" inkscape:connector-curvature="0" sodipodi:nodetypes="czcsc"/><path style="display:inline;opacity:1;fill:url(#c);fill-opacity:1;stroke:none;stroke-width:.52916664;stroke-linecap:butt;stroke-linejoin:round;stroke-miterlimit:4;stroke-dasharray:none;stroke-opacity:1" d="M42.167 263.57c1.317.017 2.358.351 3.1.82a3.78 3.78 0 0 1 .01.208 3.78 3.78 0 0 1-3.779 3.78 3.78 3.78 0 0 1-3.64-2.776c.551-1.169 2.174-2.06 4.309-2.032z" inkscape:connector-curvature="0"/><ellipse style="display:inline;opacity:1;fill:#fdfcfa;fill-opacity:1;stroke:none;stroke-width:.52916664;stroke-linecap:butt;stroke-linejoin:round;stroke-miterlimit:4;stroke-dasharray:none;stroke-opacity:1" cx="-41.955811" cy="267.21078" rx="0.2952939" ry="0.23623511" transform="scale(-1 1)"/><path style="display:inline;fill:#8c7439;fill-opacity:1;stroke:none;stroke-width:.22078453px;stroke-linecap:butt;stroke-linejoin:miter;stroke-opacity:1" d="M48.982 260.353c0-3.344-9.123-3.002-11.283-.557 4.282-.7 7.872-1.29 11.283.557z" inkscape:connector-curvature="0" sodipodi:nodetypes="ccc"/><path style="display:inline;fill:#b08f42;fill-opacity:1;stroke:none;stroke-width:.22078453px;stroke-linecap:butt;stroke-linejoin:miter;stroke-opacity:1" d="M48.668 259.975c-1.078-2.68-7.763-2.097-10.444-.458 4.282-.7 7.431-1.041 10.444.458z" inkscape:connector-curvature="0" sodipodi:nodetypes="ccc"/><path style="display:inline;opacity:1;fill:#3a3a3a;fill-opacity:1;stroke:none;stroke-width:.52916664;stroke-linecap:butt;stroke-linejoin:round;stroke-miterlimit:4;stroke-dasharray:none;stroke-opacity:1" d="M42.167 263.523c.14.002.274.008.408.017a1.512 1.512 0 0 1 .482 1.105 1.512 1.512 0 0 1-1.512 1.512 1.512 1.512 0 0 1-1.512-1.512 1.512 1.512 0 0 1 .296-.895 6.597 6.597 0 0 1 1.838-.227z" inkscape:connector-curvature="0"/><ellipse style="display:inline;opacity:1;fill:#fdfcfa;fill-opacity:1;stroke:none;stroke-width:.52916664;stroke-linecap:butt;stroke-linejoin:round;stroke-miterlimit:4;stroke-dasharray:none;stroke-opacity:1" cx="-42.442493" cy="266.17133" rx="0.62602305" ry="0.56696427" transform="scale(-1 1)"/><path style="display:inline;fill:#9e813e;fill-opacity:1;stroke:none;stroke-width:.26458332px;stroke-linecap:butt;stroke-linejoin:miter;stroke-opacity:1" d="M46.586 249.47c2.834 3.118 3.685 14.835 2.834 16.63 5.325-1.71 9.669-20.58.095-20.505-.19-9.638-42.9-15.591-39.688 17.293 6.048-2.268 18.616-13.04 24.096-15.875-2.929 3.685-12.378 10.11-12.378 10.11s22.014-5.372 21.922-9.354c-.049-2.113 3.119 1.7 3.119 1.7z" inkscape:connector-curvature="0" sodipodi:nodetypes="ccccccsc"/><path style="display:inline;fill:#b08f42;fill-opacity:1;stroke:none;stroke-width:.26458332px;stroke-linecap:butt;stroke-linejoin:miter;stroke-opacity:1" d="M46.775 248.43c2.834 3.118 4.157 14.174 3.307 15.97 3.813-1.522 7.967-18.123-1.607-18.049.01-9.397-37.704-15.154-37.42 14.174 6.048-2.268 18.71-12.473 24.758-15.213-2.93 3.685-10.583 10.016-10.583 10.016s17.951-4.333 17.86-8.315c-.05-2.113 3.685 1.417 3.685 1.417z" inkscape:connector-curvature="0" sodipodi:nodetypes="ccccccsc"/></g></svg>