<?xml version="1.0" encoding="UTF-8" standalone="no"?>
<!-- Created with Sodipodi ("http://www.sodipodi.com/") -->

<svg
   xmlns:dc="http://purl.org/dc/elements/1.1/"
   xmlns:cc="http://creativecommons.org/ns#"
   xmlns:rdf="http://www.w3.org/1999/02/22-rdf-syntax-ns#"
   xmlns:svg="http://www.w3.org/2000/svg"
   xmlns="http://www.w3.org/2000/svg"
   xmlns:sodipodi="http://sodipodi.sourceforge.net/DTD/sodipodi-0.dtd"
   xmlns:inkscape="http://www.inkscape.org/namespaces/inkscape"
   id="svg690"
   sodipodi:version="0.32"
   width="443"
   height="342"
   xml:space="preserve"
   sodipodi:docname="girl1.svg"
   inkscape:version="0.91 r13725"
   inkscape:output_extension="org.inkscape.output.svg.inkscape"
   version="1.0"><metadata
     id="metadata23"><rdf:RDF><cc:Work
         rdf:about=""><dc:format>image/svg+xml</dc:format><dc:type
           rdf:resource="http://purl.org/dc/dcmitype/StillImage" /><dc:title></dc:title></cc:Work></rdf:RDF></metadata><defs
     id="defs692" /><sodipodi:namedview
     id="base"
     showgrid="false"
     inkscape:zoom="0.33193016"
     inkscape:cx="341.58474"
     inkscape:cy="251.17823"
     inkscape:window-width="1303"
     inkscape:window-height="744"
     inkscape:window-x="63"
     inkscape:window-y="24"
     inkscape:current-layer="g2398"
     inkscape:window-maximized="1" /><g
     id="g2398"
     transform="matrix(0.8066486,0,0,0.8066486,0,-178)"><path
       d="m 259.62084,235.13995 c 19.13315,-2.35588 38.60993,-1.4008 57.4964,2.45596 16.33933,3.36557 32.43198,8.61403 47.15869,16.76417 30.77512,16.7187 55.48702,43.78878 72.89282,74.61559 0.22033,-0.091 0.66979,-0.28198 0.89893,-0.37293 0.10575,0.5094 0.32609,1.53723 0.44065,2.04663 2.77612,6.32181 6.31897,12.27067 9.06864,18.62886 17.44097,38.51304 25.96328,81.43768 23.90101,123.93484 -0.80197,17.21898 -3.84257,34.25601 -8.52222,50.78372 -6.18677,0.92781 -12.43523,1.21888 -18.61318,2.12847 -0.24677,0.41843 -0.73148,1.25527 -0.97826,1.67371 -0.33489,-0.34565 -0.99587,-1.02787 -1.33076,-1.37353 -0.71395,0.0274 -2.15929,0.1 -2.88187,0.1272 0.22032,-0.46391 0.65216,-1.38261 0.86368,-1.8465 7.10341,-1.0279 14.28606,-1.4645 21.41573,-2.38319 11.22784,-38.42207 10.77837,-79.78221 2.22089,-118.72275 -8.09048,-37.09402 -23.90102,-72.62352 -47.23809,-102.14959 -21.10719,-26.76991 -49.50286,-47.96391 -81.88206,-57.42389 -34.40618,-10.65157 -72.01159,-11.39744 -106.31193,0.0454 -32.44978,10.20586 -61.79718,29.86261 -85.12544,55.15896 -11.80942,13.1712 -22.95793,27.56128 -29.25936,44.47099 -6.35421,16.42761 -9.61506,33.91036 -12.0122,51.36584 -2.987626,24.88702 -3.16388,50.15609 -0.19389,75.06131 3.27846,23.59538 8.68088,47.90025 22.61431,67.43873 2.53817,3.96593 6.80369,6.74024 8.13445,11.47931 -8.25783,-6.5947 -13.91581,-16.08195 -18.48098,-25.6238 -0.41429,-0.91869 -0.77554,-1.83741 -1.1457,-2.74703 -7.05925,-15.5271 -10.44347,-32.51865 -12.814186,-49.4011 -3.260828,-25.57832 -2.961185,-51.57506 0.167536,-77.14432 2.55579,-18.59248 6.18677,-37.22134 13.36932,-54.55858 1.53348,-3.86587 3.58701,-7.46793 5.14692,-11.32469 l 0.57276,-1.21889 c 0.74039,-0.99147 1.65685,-1.81922 2.33545,-2.88347 9.5798,-15.08139 21.45981,-28.53457 34.59127,-40.39593 28.9598,-26.03314 65.19022,-43.98892 103.50067,-48.60975 z"
       id="path53"
       inkscape:connector-curvature="0" /><path
       d="m 228.21991,244.07237 c 34.30034,-11.44295 71.90575,-10.69707 106.31193,-0.0454 32.3792,9.45998 60.77487,30.65398 81.88206,57.42391 23.33707,29.52604 39.14761,65.05556 47.23809,102.14957 8.55748,38.94055 9.00695,80.30065 -2.22089,118.72274 -7.12977,0.91869 -14.31241,1.35532 -21.41573,2.38317 -0.21152,0.46392 -0.64336,1.38261 -0.86368,1.84653 -12.35592,38.22195 -38.70697,71.05899 -71.8617,92.06198 -1.2867,1.11881 -4.08926,1.26435 -3.85131,3.41104 -0.29082,-0.1 -0.87249,-0.29109 -1.16324,-0.39116 -31.88573,18.6289 -69.94925,25.55106 -106.12686,19.76593 -20.83407,-3.15636 -40.9543,-10.73345 -59.14445,-21.62152 -1.53347,-0.99149 -2.98763,-2.04662 -4.49466,-3.02902 -18.05796,-11.94321 -34.0184,-27.35206 -46.50651,-45.3715 -5.33191,-6.91307 -9.23608,-14.79941 -13.625,-22.33102 -1.33077,-4.73909 -5.59629,-7.51339 -8.13444,-11.47932 -13.93354,-19.53848 -19.33595,-43.84337 -22.61432,-67.43872 -2.970006,-24.90523 -2.793735,-50.17429 0.19388,-75.06132 2.39715,-17.45547 5.65798,-34.93823 12.01221,-51.36585 6.30133,-16.9097 17.44985,-31.2998 29.25935,-44.47099 23.32809,-25.29635 52.67558,-44.95309 85.12527,-55.15896 m 37.47313,162.48423 c -18.45465,7.61347 -37.28814,14.21726 -56.17445,20.57548 -21.25719,6.92215 -42.61123,13.60779 -64.34415,18.73802 -8.16971,1.8647 -16.40119,3.66573 -24.7736,4.2206 -0.93409,-0.82775 -1.86836,-1.63731 -2.79365,-2.43776 -4.75024,35.53858 1.8948,72.58714 18.47216,104.10525 16.32179,30.94501 41.91501,56.65981 72.54039,72.28697 36.23931,18.63798 79.23814,22.47654 118.12137,10.89717 30.47565,-8.92331 58.13102,-27.44304 78.84172,-52.12085 25.66363,-30.08091 40.6898,-69.89471 40.72515,-110.01774 -22.32348,-6.48554 -44.1181,-14.73572 -65.70136,-23.46802 -15.49336,-6.72204 -31.02197,-13.44408 -45.77496,-21.80344 -16.02222,-8.98698 -31.83277,-19.09276 -44.21512,-33.11903 -7.79092,5.10295 -16.44535,8.51401 -24.9235,12.14335 z"
       id="path61"
       inkscape:connector-curvature="0"
       style="fill:#756a54" /><path
       d="m 74.732916,309.95567 c 8.716104,-3.68395 18.930451,-2.44687 26.906274,2.59239 5.81662,3.70212 11.04276,8.57764 14.83238,14.48104 l -0.57276,1.21888 c -4.07163,-4.12963 -7.51755,-8.9688 -12.33829,-12.23431 -7.887772,-6.08529 -18.736562,-8.32295 -27.999093,-4.4389 -11.35121,4.64814 -19.468041,14.91765 -25.425674,25.55104 -9.676826,17.76474 -14.717895,37.83991 -17.141495,57.95146 -2.679082,23.11328 -1.965298,46.68135 2.494198,69.51266 3.225482,15.88185 8.28418,31.56359 16.603799,45.417 5.279022,8.55036 12.029835,16.59133 21.010334,21.08484 6.230919,3.23822 13.651426,3.86583 20.349344,1.8556 5.649188,-1.72827 10.672717,-5.1939 14.973397,-9.29625 0.86378,-0.77316 1.47178,-1.78285 1.60407,-2.97443 0.37015,0.90961 0.73149,1.82833 1.1457,2.74701 -6.44244,6.74933 -14.894072,12.17064 -24.297705,12.46173 -9.112693,0.53666 -17.855253,-3.83859 -24.438608,-10.10581 -5.719672,-5.10293 -9.870623,-11.67944 -13.977519,-18.14681 -3.604538,6.37642 -8.769079,12.74371 -16.075008,14.39011 -7.297218,1.54634 -14.039298,-3.45654 -18.207793,-9.16891 C 6.2379051,501.82041 2.2984671,488.37632 -0.35426114,475.07777 -4.5228495,452.91959 -4.8489308,430.04281 -1.8612956,407.70269 0.38594927,392.55765 3.9817555,377.19427 12.00164,364.10493 c 3.613357,-5.82151 8.839505,-11.38834 15.748942,-12.52537 4.485851,-0.78226 8.733748,1.42809 12.373444,3.89316 2.388434,-7.08588 5.455371,-13.93529 9.139232,-20.39353 6.072122,-10.46967 14.19775,-20.53 25.469658,-25.12352 m -56.429931,48.89171 c -6.468874,6.8403 -10.1350186,15.85454 -13.0345124,24.78695 -5.09395035,16.59135 -7.1826502,34.03773 -7.3501,51.39316 0.00863,20.44812 2.1856452,41.19637 9.1919334,60.4438 2.7496738,7.46794 6.407094,14.84491 12.126773,20.37533 3.692759,3.5748 9.059823,5.73968 14.074457,4.07508 6.415905,-2.21034 10.910567,-8.07736 14.030393,-14.00803 -2.494097,-6.31271 -5.710868,-12.44351 -7.746678,-19.00184 -10.549235,-32.06387 -12.206089,-66.85659 -7.226714,-100.19389 1.383562,-10.09672 4.256708,-19.85688 6.90945,-29.63521 -2.679182,-1.74646 -5.490549,-3.62937 -8.742479,-3.78399 -4.64457,-0.22742 -9.077531,2.17398 -12.232523,5.54864 z"
       id="path63"
       inkscape:connector-curvature="0"
       style="fill:#120d07" /><path
       d="m 457.19337,311.76579 c 7.64084,-2.40138 16.15434,-1.1916 23.08131,2.84708 7.94057,4.42072 14.0304,11.57939 19.00105,19.22015 3.73674,-2.52872 8.38113,-4.22062 12.84943,-2.8198 7.13858,2.05571 11.92407,8.55035 15.45811,14.89947 6.50404,12.28887 9.87063,26.0695 11.88882,39.84105 3.12855,22.06723 2.91703,44.6984 -0.84614,66.67463 -2.44995,13.43502 -6.10736,27.01555 -13.46628,38.53125 -4.05409,6.48554 -10.67269,11.92504 -18.51623,11.52481 -5.12047,11.45201 -11.99457,22.57658 -21.94451,30.16277 -6.63623,5.10291 -15.08796,7.92273 -23.37224,6.63108 -7.94937,-1.12791 -15.06152,-5.74876 -20.68426,-11.47931 0.24678,-0.41844 0.73149,-1.25528 0.97826,-1.67371 6.26609,6.8039 14.95577,11.82498 24.25355,11.57939 8.07267,-0.0181 15.59022,-4.10235 21.45098,-9.60553 10.71666,-10.06032 17.30004,-23.83185 22.24416,-37.67619 6.46879,-19.22012 9.50929,-39.57726 9.91468,-59.88893 0.58168,-23.22243 -2.17681,-46.64498 -9.20964,-68.75766 -4.47711,-13.05294 -10.28484,-25.97857 -19.49447,-36.22991 -5.29665,-5.87611 -11.92408,-10.93356 -19.67966,-12.51627 -7.53507,-1.76466 -15.59911,0.2092 -21.97087,4.58443 -5.24386,3.39286 -9.43006,8.15924 -13.34297,13.03478 -0.11457,-0.5094 -0.3349,-1.53723 -0.44066,-2.04663 5.48165,-7.59529 12.94631,-14.06264 21.84758,-16.83695 m 43.14864,23.70453 c 13.08741,21.93986 18.47218,47.79107 20.45512,73.19658 1.59525,25.76934 -0.36135,52.02078 -7.826,76.76228 -1.2867,5.22116 -3.78953,10.03305 -5.10268,15.22693 4.90879,-0.17287 9.42107,-2.69246 12.57615,-6.52195 7.47356,-8.63223 11.19268,-19.89323 14.08336,-30.88136 5.24377,-21.31225 6.21312,-43.55228 4.5916,-65.41031 -1.63922,-16.95519 -4.6621,-34.15596 -12.23252,-49.46476 -2.99644,-5.67599 -6.74199,-11.40655 -12.40006,-14.52653 -4.49466,-2.49235 -10.28484,-1.75557 -14.14497,1.61912 z"
       id="path65"
       inkscape:connector-curvature="0"
       style="fill:#120d07" /><path
       d="m 75.56134,311.57477 c 9.262517,-3.88405 20.11133,-1.64639 27.9991,4.4389 4.82073,3.26551 8.26665,8.10468 12.33828,12.23431 -1.55991,3.85677 -3.61345,7.45882 -5.14692,11.32468 -7.18255,17.33724 -10.81353,35.96613 -13.369324,54.55861 -3.128635,25.56925 -3.428278,51.56597 -0.167528,77.1443 2.370796,16.88245 5.754922,33.87401 12.814182,49.40112 -0.13219,1.19158 -0.74029,2.20127 -1.60406,2.97443 -4.30068,4.10235 -9.324217,7.56798 -14.973388,9.29625 -6.697935,2.01023 -14.11844,1.38262 -20.349359,-1.8556 -8.98042,-4.49351 -15.731319,-12.53448 -21.010334,-21.08484 -8.319612,-13.85341 -13.37831,-29.53515 -16.603806,-45.417 -4.459497,-22.83131 -5.173259,-46.39938 -2.494176,-69.51266 2.423585,-20.11155 7.464654,-40.18672 17.141487,-57.95146 5.957892,-10.63339 14.074629,-20.9029 25.425846,-25.55104 z"
       id="path67"
       inkscape:connector-curvature="0"
       style="fill:#756950" /><path
       d="m 449.12933,317.61459 c 6.37185,-4.37523 14.4358,-6.34909 21.97087,-4.58443 7.7555,1.58271 14.38301,6.64016 19.67965,12.51627 9.20964,10.25134 15.01736,23.17697 19.49449,36.22991 7.03282,22.11268 9.7913,45.53523 9.20965,68.75766 -0.4054,20.31167 -3.44592,40.66881 -9.9147,59.88893 -4.94412,13.84434 -11.52748,27.61587 -22.24415,37.67619 -5.86068,5.50318 -13.37831,9.58732 -21.451,9.60553 -9.29778,0.24559 -17.98744,-4.77549 -24.25353,-11.57939 6.17795,-0.90959 12.42641,-1.20066 18.61318,-2.12847 4.67964,-16.52771 7.72024,-33.56474 8.52222,-50.78372 2.06227,-42.49716 -6.46005,-85.4218 -23.90101,-123.93484 -2.74968,-6.35819 -6.29252,-12.30705 -9.06865,-18.62886 3.91301,-4.87554 8.09921,-9.64192 13.34298,-13.03478 z"
       id="path69"
       inkscape:connector-curvature="0"
       style="fill:#756950" /><path
       d="m 500.34201,335.47032 c 3.86013,-3.37469 9.65031,-4.11147 14.14488,-1.61912 5.65798,3.11998 9.40354,8.85054 12.40007,14.52653 7.57041,15.3088 10.59329,32.50957 12.23252,49.46476 1.6216,21.85803 0.65217,44.09806 -4.59161,65.41031 -2.89067,10.98813 -6.60979,22.24913 -14.08335,30.88136 -3.15508,3.82949 -7.66737,6.34912 -12.57615,6.52195 1.31315,-5.19388 3.81606,-10.00577 5.10268,-15.22693 7.46465,-24.7415 9.42125,-50.99294 7.82599,-76.76228 -1.98285,-25.40551 -7.36762,-51.25672 -20.45503,-73.19658 z"
       id="path71"
       inkscape:connector-curvature="0"
       style="fill:#756950" /><path
       d="m 18.302985,358.84738 c 3.155078,-3.37466 7.588048,-5.77606 12.232523,-5.54864 3.25193,0.15455 6.063297,2.03753 8.742479,3.78399 -2.652742,9.77833 -5.525787,19.53849 -6.90945,29.63521 -4.979375,33.3373 -3.322521,68.13002 7.226714,100.19389 2.035904,6.55833 5.252667,12.68913 7.746678,19.00184 -3.119826,5.93067 -7.614488,11.79769 -14.030393,14.00803 -5.014541,1.6646 -10.381698,-0.50028 -14.074457,-4.07508 C 13.5174,510.3162 9.8599798,502.93923 7.110306,495.47129 c -7.00638171,-19.24743 -9.183115,-39.99568 -9.1919334,-60.4438 0.1673635,-17.35543 2.25606333,-34.80181 7.3501,-51.39316 2.8994938,-8.93241 6.5656384,-17.94665 13.0345124,-24.78695 z"
       id="path73"
       inkscape:connector-curvature="0"
       style="fill:#756950" /><path
       d="m 262.97106,406.5566 c 8.47816,-3.62937 17.13251,-7.04041 24.92325,-12.14335 12.38235,14.02624 28.19299,24.13203 44.21513,33.11904 14.75305,8.35933 30.28167,15.08139 45.77494,21.80342 21.58328,8.7323 43.37797,16.98249 65.70136,23.46804 -0.0352,40.12302 -15.06152,79.93679 -40.72515,110.01771 -20.71069,24.67782 -48.36607,43.19754 -78.84171,52.12085 -38.88323,11.57938 -81.88207,7.74083 -118.12137,-10.89716 C 175.27213,608.4179 149.679,582.70321 133.35712,551.7582 116.77985,520.24007 110.13471,483.19152 114.88495,447.65292 c 0.92529,0.80046 1.85956,1.61001 2.79366,2.43777 8.37241,-0.55486 16.60389,-2.3559 24.77359,-4.2206 21.73292,-5.13022 43.08696,-11.81589 64.34416,-18.73803 18.88665,-6.35822 37.72016,-12.962 56.1747,-20.57546 m 63.82419,65.03734 c -1.72735,1.9284 -3.33134,3.96592 -4.83838,6.05803 -0.93408,2.70156 -1.92115,5.45769 -2.27376,8.31387 0.64335,2.53783 1.31315,5.09382 2.29139,7.52252 1.45416,2.12848 3.04932,4.15692 4.67092,6.16717 5.09387,3.73849 11.22784,6.06711 17.51156,6.17628 2.98763,-0.5185 6.01931,-0.88233 8.99813,-1.57364 2.80264,-1.22799 5.52579,-2.69247 8.14327,-4.30247 2.97881,-3.44743 5.99287,-7.14957 6.20439,-11.99779 5.38478,-2.45598 10.90176,-4.59356 16.34814,-6.88579 0.85496,-0.46391 2.73214,-0.92781 2.06234,-2.3377 -0.32608,-1.62822 -2.1681,-0.59126 -3.07575,-0.28197 -5.02353,2.083 -9.99411,4.27517 -15.0528,6.23993 -0.28193,-2.42866 -1.43653,-4.90281 -1.13688,-7.27691 4.49474,-3.36557 9.20092,-6.45826 13.65152,-9.90569 1.40127,-0.98238 -0.14983,-3.14725 -1.44534,-2.15579 -4.856,3.22004 -9.4477,6.85849 -14.25962,10.1422 -3.74556,-5.73056 -10.38179,-8.9142 -16.89464,-9.66918 -7.38517,-1.78286 -14.92925,1.3917 -20.90449,5.76693 m -150.43894,-3.33827 c 4.82074,3.91135 10.16146,7.14956 14.95576,11.0791 -2.65274,2.42866 -2.59984,6.34909 -3.86894,9.52364 -4.48583,-1.78284 -8.89237,-3.79309 -13.39584,-5.52136 -1.63042,-0.48209 -2.34427,2.06483 -0.72276,2.56512 4.84718,2.3468 10.04689,3.94773 14.82365,6.45826 0.83725,4.34795 3.58683,7.68622 6.32769,10.96083 5.11159,3.72943 11.26309,6.07621 17.56453,6.13989 2.95237,-0.51848 5.9488,-0.88233 8.88355,-1.55543 2.82027,-1.21889 5.56114,-2.70154 8.18734,-4.32069 1.79787,-2.13757 3.53403,-4.37522 5.03226,-6.74931 0.63462,-2.41047 1.20738,-4.84825 1.57753,-7.31329 -0.31726,-2.71975 -0.91655,-5.394 -1.60388,-8.02279 -2.18573,-2.89258 -4.08926,-6.3673 -7.43831,-7.94093 -2.52936,-1.28255 -4.856,-3.22912 -7.75551,-3.49291 -3.44581,-0.40023 -6.90063,-1.8556 -10.35533,-0.85505 -2.72325,0.61854 -5.62274,0.80048 -8.01108,2.40138 -2.57331,1.64642 -5.70204,2.63789 -7.43813,5.35765 -5.30546,-3.35648 -10.12621,-7.48614 -15.4493,-10.78803 -1.11934,-0.86413 -2.49409,1.35533 -1.31323,2.07392 m 69.28827,92.46221 c -0.29963,7.58616 2.89951,15.14504 8.08159,20.4663 7.12977,7.94091 17.54672,12.07056 27.86689,12.92559 9.37701,0.84594 18.52497,-3.05631 26.06903,-8.53216 5.99288,-4.64813 12.02102,-9.70559 15.60792,-16.65503 0.93428,-1.95568 1.94778,-4.2206 1.36604,-6.44008 -0.93427,-2.46505 -3.88657,-2.61967 -5.99288,-3.22002 -13.38696,-2.38319 -27.03838,-2.36498 -40.58406,-2.28313 -10.83134,0.54579 -21.97986,0.27287 -32.41453,3.73853 z"
       id="path83"
       inkscape:connector-curvature="0"
       style="fill:#feddae" /><path
       d="m 326.79525,471.59394 c 5.97524,-4.37523 13.51932,-7.54979 20.90456,-5.76693 6.51286,0.75498 13.14911,3.93862 16.89466,9.66918 4.81192,-3.28371 9.40353,-6.92216 14.25961,-10.1422 1.29552,-0.99146 2.84662,1.17341 1.44535,2.15579 -4.4506,3.44743 -9.15678,6.54012 -13.65153,9.90569 -0.29964,2.3741 0.85496,4.84825 1.13688,7.27691 5.05871,-1.96476 10.02927,-4.15693 15.05281,-6.23993 0.90765,-0.30929 2.74968,-1.34625 3.07575,0.28197 0.66979,1.40989 -1.2074,1.87379 -2.06234,2.3377 -5.4464,2.29223 -10.96337,4.42981 -16.34814,6.88579 -0.21151,4.84822 -3.22557,8.55036 -6.2044,11.99779 -2.61747,1.61 -5.34062,3.07448 -8.14326,4.30247 -2.97882,0.69131 -6.01043,1.05514 -8.99814,1.57364 -6.28371,-0.10915 -12.41769,-2.43779 -17.51154,-6.17628 -1.6217,-2.01025 -3.21677,-4.03869 -4.67093,-6.16717 -0.97825,-2.4287 -1.64804,-4.98469 -2.2914,-7.52252 0.35253,-2.85618 1.3396,-5.61231 2.27378,-8.31387 1.50685,-2.09211 3.11093,-4.12963 4.83828,-6.05803 z"
       id="path111"
       inkscape:connector-curvature="0"
       style="fill:#0c0a00" /><path
       d="m 176.35631,468.25567 c -1.18094,-0.71859 0.19389,-2.93805 1.31316,-2.07392 5.32307,3.30189 10.14382,7.43155 15.44928,10.78803 1.73618,-2.71976 4.86481,-3.71123 7.43814,-5.35765 2.38834,-1.6009 5.28784,-1.78284 8.01107,-2.40138 3.45471,-1.00055 6.90953,0.45482 10.35534,0.85505 2.89949,0.26379 5.22623,2.21036 7.7555,3.49291 3.34896,1.57363 5.25257,5.04835 7.4383,7.94093 0.68734,2.62879 1.28672,5.30304 1.60389,8.02279 -0.37015,2.46504 -0.94291,4.90282 -1.57753,7.31329 -1.49822,2.37409 -3.2343,4.61174 -5.03227,6.74931 -2.62629,1.61915 -5.36714,3.1018 -8.18733,4.32069 -2.93474,0.6731 -5.93119,1.03695 -8.88357,1.55543 -6.30133,-0.0637 -12.45283,-2.41046 -17.5645,-6.13989 -2.74087,-3.27461 -5.49055,-6.61288 -6.3277,-10.96083 -4.77667,-2.51053 -9.97647,-4.11146 -14.82366,-6.45826 -1.62159,-0.50029 -0.90765,-3.04721 0.72276,-2.56512 4.50349,1.72827 8.91001,3.73852 13.39585,5.52136 1.26919,-3.17455 1.21622,-7.09498 3.86895,-9.52364 -4.79422,-3.92954 -10.13494,-7.16775 -14.95568,-11.0791 z"
       id="path113"
       inkscape:connector-curvature="0"
       style="fill:#0c0a00" /><path
       d="m 245.64458,560.71788 c 10.43467,-3.46566 21.58319,-3.19274 32.41444,-3.73853 13.54568,-0.0819 27.19711,-0.1 40.58406,2.28313 2.10632,0.60035 5.0587,0.75497 5.99288,3.22002 0.58166,2.21948 -0.43185,4.4844 -1.36603,6.44008 -3.58682,6.94944 -9.61496,12.0069 -15.60793,16.65503 -7.54407,5.47585 -16.69202,9.3781 -26.06903,8.53216 -10.32018,-0.85503 -20.73713,-4.98468 -27.86689,-12.92559 -5.1819,-5.32126 -8.38113,-12.88014 -8.0815,-20.4663 z"
       id="path119"
       inkscape:connector-curvature="0"
       style="fill:#404040" /><path
       d="m 177.95148,629.07531 c 4.73261,-4.25698 10.5933,-6.82211 16.33059,-9.29625 18.19016,10.88808 38.31037,18.46514 59.14446,21.62151 36.1776,5.78514 74.24121,-1.13701 106.12686,-19.7659 0.29084,0.1 0.87249,0.29108 1.16324,0.39115 5.52579,2.51961 11.28071,5.58502 14.73552,10.91534 1.87717,2.81071 1.67439,6.76753 -0.2733,9.48727 -3.55165,5.11204 -9.20963,8.00459 -14.57679,10.61518 -8.58393,3.89316 -17.69663,6.3764 -26.84458,8.36845 -20.0409,4.12964 -40.52245,5.67599 -60.9335,5.58502 -21.27473,-0.2274 -42.65522,-2.08301 -63.38345,-7.19503 -10.14383,-2.71066 -20.44637,-5.87611 -29.1713,-12.04336 -3.19033,-2.41049 -6.52158,-5.54864 -6.93588,-9.84194 -0.185,-3.58388 2.16809,-6.5947 4.61813,-8.84144 z"
       id="path139"
       inkscape:connector-curvature="0"
       style="fill:#ffffff" /><path
       enable-background="new    "
       d="m 189.58472,661.27563 c -1.22502,-1.2189 -0.98707,-4.62995 1.16324,-2.97444 -0.29076,1.02786 -0.67853,2.01934 -1.16324,2.97444 z"
       id="path151"
       inkscape:connector-curvature="0"
       style="opacity:0.62000002;fill:#434343" /></g></svg>