<!--Created with Inkscape (http://www.inkscape.org/)--><svg xmlns:dc="http://purl.org/dc/elements/1.1/" xmlns:cc="http://creativecommons.org/ns#" xmlns:rdf="http://www.w3.org/1999/02/22-rdf-syntax-ns#" xmlns="http://www.w3.org/2000/svg" xmlns:sodipodi="http://sodipodi.sourceforge.net/DTD/sodipodi-0.dtd" xmlns:inkscape="http://www.inkscape.org/namespaces/inkscape" width="100" height="100" sodipodi:version="0.32" inkscape:version="0.92.1 r15371" version="1.0" sodipodi:docname="find_the_day.svg"><sodipodi:namedview pagecolor="#ffffff" bordercolor="#666666" borderopacity="1.0" inkscape:pageopacity="0.0" inkscape:pageshadow="2" inkscape:zoom="5.6362496" inkscape:cx="12.14897" inkscape:cy="44.022393" inkscape:document-units="px" inkscape:current-layer="layer1" height="100px" width="100px" inkscape:window-width="1884" inkscape:window-height="1051" inkscape:window-x="0" inkscape:window-y="0" showgrid="true" inkscape:window-maximized="1"><inkscape:grid type="xygrid" empspacing="4"/></sodipodi:namedview><metadata><rdf:RDF><cc:Work><dc:format>image/svg+xml</dc:format><dc:type rdf:resource="http://purl.org/dc/dcmitype/StillImage"/><dc:title/><dc:date>2018</dc:date><dc:creator><cc:Agent><dc:title>Timothée Giet</dc:title></cc:Agent></dc:creator><cc:license rdf:resource="http://creativecommons.org/licenses/by-sa/4.0/"/></cc:Work><cc:License rdf:about="http://creativecommons.org/licenses/by-sa/4.0/"><cc:permits rdf:resource="http://creativecommons.org/ns#Reproduction"/><cc:permits rdf:resource="http://creativecommons.org/ns#Distribution"/><cc:requires rdf:resource="http://creativecommons.org/ns#Notice"/><cc:requires rdf:resource="http://creativecommons.org/ns#Attribution"/><cc:permits rdf:resource="http://creativecommons.org/ns#DerivativeWorks"/><cc:requires rdf:resource="http://creativecommons.org/ns#ShareAlike"/></cc:License></rdf:RDF></metadata><g inkscape:label="Calque 1" inkscape:groupmode="layer"><rect style="opacity:1;fill:#373737;fill-opacity:.50196081;stroke:none;stroke-width:1;stroke-linecap:butt;stroke-linejoin:round;stroke-miterlimit:4;stroke-dasharray:none;stroke-opacity:1" width="92" height="84" x="4" y="16"/><rect style="opacity:1;fill:#373737;fill-opacity:1;stroke:#8e8e8e;stroke-width:1;stroke-linecap:butt;stroke-linejoin:round;stroke-miterlimit:4;stroke-dasharray:none;stroke-opacity:1" width="12" height="12" x="8" y="36"/><rect style="opacity:1;fill:#373737;fill-opacity:1;stroke:#8e8e8e;stroke-width:1;stroke-linecap:butt;stroke-linejoin:round;stroke-miterlimit:4;stroke-dasharray:none;stroke-opacity:1" width="12" height="12" x="20" y="36"/><rect style="opacity:1;fill:#373737;fill-opacity:1;stroke:#8e8e8e;stroke-width:1;stroke-linecap:butt;stroke-linejoin:round;stroke-miterlimit:4;stroke-dasharray:none;stroke-opacity:1" width="12" height="12" x="32" y="36"/><rect style="opacity:1;fill:#373737;fill-opacity:1;stroke:#8e8e8e;stroke-width:1;stroke-linecap:butt;stroke-linejoin:round;stroke-miterlimit:4;stroke-dasharray:none;stroke-opacity:1" width="12" height="12" x="44" y="36"/><rect style="opacity:1;fill:#373737;fill-opacity:1;stroke:#8e8e8e;stroke-width:1;stroke-linecap:butt;stroke-linejoin:round;stroke-miterlimit:4;stroke-dasharray:none;stroke-opacity:1" width="12" height="12" x="56" y="36"/><rect style="opacity:1;fill:#373737;fill-opacity:1;stroke:#8e8e8e;stroke-width:1;stroke-linecap:butt;stroke-linejoin:round;stroke-miterlimit:4;stroke-dasharray:none;stroke-opacity:1" width="12" height="12" x="68" y="36"/><rect style="opacity:1;fill:#373737;fill-opacity:1;stroke:#8e8e8e;stroke-width:1;stroke-linecap:butt;stroke-linejoin:round;stroke-miterlimit:4;stroke-dasharray:none;stroke-opacity:1" width="12" height="12" x="80" y="36"/><rect style="opacity:1;fill:#373737;fill-opacity:1;stroke:#8e8e8e;stroke-width:1;stroke-linecap:butt;stroke-linejoin:round;stroke-miterlimit:4;stroke-dasharray:none;stroke-opacity:1" width="12" height="12" x="8" y="48"/><rect style="opacity:1;fill:#373737;fill-opacity:1;stroke:#8e8e8e;stroke-width:1;stroke-linecap:butt;stroke-linejoin:round;stroke-miterlimit:4;stroke-dasharray:none;stroke-opacity:1" width="12" height="12" x="20" y="48"/><rect style="opacity:1;fill:#373737;fill-opacity:1;stroke:#8e8e8e;stroke-width:1;stroke-linecap:butt;stroke-linejoin:round;stroke-miterlimit:4;stroke-dasharray:none;stroke-opacity:1" width="12" height="12" x="32" y="48"/><rect style="opacity:1;fill:#373737;fill-opacity:1;stroke:#8e8e8e;stroke-width:1;stroke-linecap:butt;stroke-linejoin:round;stroke-miterlimit:4;stroke-dasharray:none;stroke-opacity:1" width="12" height="12" x="44" y="48"/><rect style="opacity:1;fill:#373737;fill-opacity:1;stroke:#8e8e8e;stroke-width:1;stroke-linecap:butt;stroke-linejoin:round;stroke-miterlimit:4;stroke-dasharray:none;stroke-opacity:1" width="12" height="12" x="56" y="48"/><rect style="opacity:1;fill:#373737;fill-opacity:1;stroke:#8e8e8e;stroke-width:1;stroke-linecap:butt;stroke-linejoin:round;stroke-miterlimit:4;stroke-dasharray:none;stroke-opacity:1" width="12" height="12" x="68" y="48"/><rect style="opacity:1;fill:#373737;fill-opacity:1;stroke:#8e8e8e;stroke-width:1;stroke-linecap:butt;stroke-linejoin:round;stroke-miterlimit:4;stroke-dasharray:none;stroke-opacity:1" width="12" height="12" x="80" y="48"/><rect style="opacity:1;fill:#373737;fill-opacity:1;stroke:#8e8e8e;stroke-width:1;stroke-linecap:butt;stroke-linejoin:round;stroke-miterlimit:4;stroke-dasharray:none;stroke-opacity:1" width="12" height="12" x="8" y="48"/><rect style="opacity:1;fill:#373737;fill-opacity:1;stroke:#8e8e8e;stroke-width:1;stroke-linecap:butt;stroke-linejoin:round;stroke-miterlimit:4;stroke-dasharray:none;stroke-opacity:1" width="12" height="12" x="20" y="48"/><rect style="opacity:1;fill:#373737;fill-opacity:1;stroke:#8e8e8e;stroke-width:1;stroke-linecap:butt;stroke-linejoin:round;stroke-miterlimit:4;stroke-dasharray:none;stroke-opacity:1" width="12" height="12" x="32" y="48"/><rect style="opacity:1;fill:#373737;fill-opacity:1;stroke:#8e8e8e;stroke-width:1;stroke-linecap:butt;stroke-linejoin:round;stroke-miterlimit:4;stroke-dasharray:none;stroke-opacity:1" width="12" height="12" x="44" y="48"/><rect style="opacity:1;fill:#373737;fill-opacity:1;stroke:#8e8e8e;stroke-width:1;stroke-linecap:butt;stroke-linejoin:round;stroke-miterlimit:4;stroke-dasharray:none;stroke-opacity:1" width="12" height="12" x="56" y="48"/><rect style="opacity:1;fill:#373737;fill-opacity:1;stroke:#8e8e8e;stroke-width:1;stroke-linecap:butt;stroke-linejoin:round;stroke-miterlimit:4;stroke-dasharray:none;stroke-opacity:1" width="12" height="12" x="68" y="48"/><rect style="opacity:1;fill:#373737;fill-opacity:1;stroke:#8e8e8e;stroke-width:1;stroke-linecap:butt;stroke-linejoin:round;stroke-miterlimit:4;stroke-dasharray:none;stroke-opacity:1" width="12" height="12" x="80" y="48"/><rect style="opacity:1;fill:#373737;fill-opacity:1;stroke:#8e8e8e;stroke-width:1;stroke-linecap:butt;stroke-linejoin:round;stroke-miterlimit:4;stroke-dasharray:none;stroke-opacity:1" width="12" height="12" x="8" y="60"/><rect style="opacity:1;fill:#373737;fill-opacity:1;stroke:#8e8e8e;stroke-width:1;stroke-linecap:butt;stroke-linejoin:round;stroke-miterlimit:4;stroke-dasharray:none;stroke-opacity:1" width="12" height="12" x="20" y="60"/><rect style="opacity:1;fill:#373737;fill-opacity:1;stroke:#8e8e8e;stroke-width:1;stroke-linecap:butt;stroke-linejoin:round;stroke-miterlimit:4;stroke-dasharray:none;stroke-opacity:1" width="12" height="12" x="32" y="60"/><rect style="opacity:1;fill:#373737;fill-opacity:1;stroke:#8e8e8e;stroke-width:1;stroke-linecap:butt;stroke-linejoin:round;stroke-miterlimit:4;stroke-dasharray:none;stroke-opacity:1" width="12" height="12" x="44" y="60"/><rect style="opacity:1;fill:#373737;fill-opacity:1;stroke:#8e8e8e;stroke-width:1;stroke-linecap:butt;stroke-linejoin:round;stroke-miterlimit:4;stroke-dasharray:none;stroke-opacity:1" width="12" height="12" x="56" y="60"/><rect style="opacity:1;fill:#373737;fill-opacity:1;stroke:#8e8e8e;stroke-width:1;stroke-linecap:butt;stroke-linejoin:round;stroke-miterlimit:4;stroke-dasharray:none;stroke-opacity:1" width="12" height="12" x="68" y="60"/><rect style="opacity:1;fill:#373737;fill-opacity:1;stroke:#8e8e8e;stroke-width:1;stroke-linecap:butt;stroke-linejoin:round;stroke-miterlimit:4;stroke-dasharray:none;stroke-opacity:1" width="12" height="12" x="80" y="60"/><rect style="opacity:1;fill:#373737;fill-opacity:1;stroke:#8e8e8e;stroke-width:1;stroke-linecap:butt;stroke-linejoin:round;stroke-miterlimit:4;stroke-dasharray:none;stroke-opacity:1" width="12" height="12" x="8" y="60"/><rect style="opacity:1;fill:#373737;fill-opacity:1;stroke:#8e8e8e;stroke-width:1;stroke-linecap:butt;stroke-linejoin:round;stroke-miterlimit:4;stroke-dasharray:none;stroke-opacity:1" width="12" height="12" x="20" y="60"/><rect style="opacity:1;fill:#373737;fill-opacity:1;stroke:#8e8e8e;stroke-width:1;stroke-linecap:butt;stroke-linejoin:round;stroke-miterlimit:4;stroke-dasharray:none;stroke-opacity:1" width="12" height="12" x="32" y="60"/><rect style="opacity:1;fill:#373737;fill-opacity:1;stroke:#8e8e8e;stroke-width:1;stroke-linecap:butt;stroke-linejoin:round;stroke-miterlimit:4;stroke-dasharray:none;stroke-opacity:1" width="12" height="12" x="44" y="60"/><rect style="opacity:1;fill:#373737;fill-opacity:1;stroke:#8e8e8e;stroke-width:1;stroke-linecap:butt;stroke-linejoin:round;stroke-miterlimit:4;stroke-dasharray:none;stroke-opacity:1" width="12" height="12" x="56" y="60"/><rect style="opacity:1;fill:#373737;fill-opacity:1;stroke:#8e8e8e;stroke-width:1;stroke-linecap:butt;stroke-linejoin:round;stroke-miterlimit:4;stroke-dasharray:none;stroke-opacity:1" width="12" height="12" x="68" y="60"/><rect style="opacity:1;fill:#373737;fill-opacity:1;stroke:#8e8e8e;stroke-width:1;stroke-linecap:butt;stroke-linejoin:round;stroke-miterlimit:4;stroke-dasharray:none;stroke-opacity:1" width="12" height="12" x="80" y="60"/><rect style="opacity:1;fill:#373737;fill-opacity:1;stroke:#8e8e8e;stroke-width:1;stroke-linecap:butt;stroke-linejoin:round;stroke-miterlimit:4;stroke-dasharray:none;stroke-opacity:1" width="12" height="12" x="8" y="72"/><rect style="opacity:1;fill:#373737;fill-opacity:1;stroke:#8e8e8e;stroke-width:1;stroke-linecap:butt;stroke-linejoin:round;stroke-miterlimit:4;stroke-dasharray:none;stroke-opacity:1" width="12" height="12" x="20" y="72"/><rect style="opacity:1;fill:#373737;fill-opacity:1;stroke:#8e8e8e;stroke-width:1;stroke-linecap:butt;stroke-linejoin:round;stroke-miterlimit:4;stroke-dasharray:none;stroke-opacity:1" width="12" height="12" x="32" y="72"/><rect style="opacity:1;fill:#373737;fill-opacity:1;stroke:#8e8e8e;stroke-width:1;stroke-linecap:butt;stroke-linejoin:round;stroke-miterlimit:4;stroke-dasharray:none;stroke-opacity:1" width="12" height="12" x="44" y="72"/><rect style="opacity:1;fill:#373737;fill-opacity:1;stroke:#8e8e8e;stroke-width:1;stroke-linecap:butt;stroke-linejoin:round;stroke-miterlimit:4;stroke-dasharray:none;stroke-opacity:1" width="12" height="12" x="56" y="72"/><rect style="opacity:1;fill:#373737;fill-opacity:1;stroke:#8e8e8e;stroke-width:1;stroke-linecap:butt;stroke-linejoin:round;stroke-miterlimit:4;stroke-dasharray:none;stroke-opacity:1" width="12" height="12" x="68" y="72"/><rect style="opacity:1;fill:#373737;fill-opacity:1;stroke:#8e8e8e;stroke-width:1;stroke-linecap:butt;stroke-linejoin:round;stroke-miterlimit:4;stroke-dasharray:none;stroke-opacity:1" width="12" height="12" x="80" y="72"/><rect style="opacity:1;fill:#373737;fill-opacity:1;stroke:#8e8e8e;stroke-width:1;stroke-linecap:butt;stroke-linejoin:round;stroke-miterlimit:4;stroke-dasharray:none;stroke-opacity:1" width="12" height="12" x="8" y="72"/><rect style="opacity:1;fill:#373737;fill-opacity:1;stroke:#8e8e8e;stroke-width:1;stroke-linecap:butt;stroke-linejoin:round;stroke-miterlimit:4;stroke-dasharray:none;stroke-opacity:1" width="12" height="12" x="20" y="72"/><rect style="opacity:1;fill:#373737;fill-opacity:1;stroke:#8e8e8e;stroke-width:1;stroke-linecap:butt;stroke-linejoin:round;stroke-miterlimit:4;stroke-dasharray:none;stroke-opacity:1" width="12" height="12" x="32" y="72"/><rect style="opacity:1;fill:#373737;fill-opacity:1;stroke:#8e8e8e;stroke-width:1;stroke-linecap:butt;stroke-linejoin:round;stroke-miterlimit:4;stroke-dasharray:none;stroke-opacity:1" width="12" height="12" x="44" y="72"/><rect style="opacity:1;fill:#373737;fill-opacity:1;stroke:#8e8e8e;stroke-width:1;stroke-linecap:butt;stroke-linejoin:round;stroke-miterlimit:4;stroke-dasharray:none;stroke-opacity:1" width="12" height="12" x="56" y="72"/><rect style="opacity:1;fill:#373737;fill-opacity:1;stroke:#8e8e8e;stroke-width:1;stroke-linecap:butt;stroke-linejoin:round;stroke-miterlimit:4;stroke-dasharray:none;stroke-opacity:1" width="12" height="12" x="68" y="72"/><rect style="opacity:1;fill:#373737;fill-opacity:1;stroke:#8e8e8e;stroke-width:1;stroke-linecap:butt;stroke-linejoin:round;stroke-miterlimit:4;stroke-dasharray:none;stroke-opacity:1" width="12" height="12" x="80" y="72"/><rect style="opacity:1;fill:#373737;fill-opacity:1;stroke:#8e8e8e;stroke-width:1;stroke-linecap:butt;stroke-linejoin:round;stroke-miterlimit:4;stroke-dasharray:none;stroke-opacity:1" width="12" height="12" x="8" y="84"/><rect style="opacity:1;fill:#373737;fill-opacity:1;stroke:#8e8e8e;stroke-width:1;stroke-linecap:butt;stroke-linejoin:round;stroke-miterlimit:4;stroke-dasharray:none;stroke-opacity:1" width="12" height="12" x="20" y="84"/><rect style="opacity:1;fill:#373737;fill-opacity:1;stroke:#8e8e8e;stroke-width:1;stroke-linecap:butt;stroke-linejoin:round;stroke-miterlimit:4;stroke-dasharray:none;stroke-opacity:1" width="12" height="12" x="32" y="84"/><rect style="opacity:1;fill:#373737;fill-opacity:1;stroke:#8e8e8e;stroke-width:1;stroke-linecap:butt;stroke-linejoin:round;stroke-miterlimit:4;stroke-dasharray:none;stroke-opacity:1" width="12" height="12" x="44" y="84"/><rect style="opacity:1;fill:#373737;fill-opacity:1;stroke:#8e8e8e;stroke-width:1;stroke-linecap:butt;stroke-linejoin:round;stroke-miterlimit:4;stroke-dasharray:none;stroke-opacity:1" width="12" height="12" x="56" y="84"/><rect style="opacity:1;fill:#373737;fill-opacity:1;stroke:#8e8e8e;stroke-width:1;stroke-linecap:butt;stroke-linejoin:round;stroke-miterlimit:4;stroke-dasharray:none;stroke-opacity:1" width="12" height="12" x="68" y="84"/><rect style="opacity:1;fill:#373737;fill-opacity:1;stroke:#8e8e8e;stroke-width:1;stroke-linecap:butt;stroke-linejoin:round;stroke-miterlimit:4;stroke-dasharray:none;stroke-opacity:1" width="12" height="12" x="80" y="84"/><rect style="opacity:1;fill:#373737;fill-opacity:1;stroke:#8e8e8e;stroke-width:1;stroke-linecap:butt;stroke-linejoin:round;stroke-miterlimit:4;stroke-dasharray:none;stroke-opacity:1" width="12" height="12" x="8" y="84"/><rect style="opacity:1;fill:#373737;fill-opacity:1;stroke:#8e8e8e;stroke-width:1;stroke-linecap:butt;stroke-linejoin:round;stroke-miterlimit:4;stroke-dasharray:none;stroke-opacity:1" width="12" height="12" x="20" y="84"/><rect style="opacity:1;fill:#373737;fill-opacity:1;stroke:#8e8e8e;stroke-width:1;stroke-linecap:butt;stroke-linejoin:round;stroke-miterlimit:4;stroke-dasharray:none;stroke-opacity:1" width="12" height="12" x="32" y="84"/><rect style="opacity:1;fill:#373737;fill-opacity:1;stroke:#8e8e8e;stroke-width:1;stroke-linecap:butt;stroke-linejoin:round;stroke-miterlimit:4;stroke-dasharray:none;stroke-opacity:1" width="12" height="12" x="44" y="84"/><rect style="opacity:1;fill:#373737;fill-opacity:1;stroke:#8e8e8e;stroke-width:1;stroke-linecap:butt;stroke-linejoin:round;stroke-miterlimit:4;stroke-dasharray:none;stroke-opacity:1" width="12" height="12" x="56" y="84"/><rect style="opacity:1;fill:#373737;fill-opacity:1;stroke:#8e8e8e;stroke-width:1;stroke-linecap:butt;stroke-linejoin:round;stroke-miterlimit:4;stroke-dasharray:none;stroke-opacity:1" width="12" height="12" x="68" y="84"/><rect style="opacity:1;fill:#373737;fill-opacity:1;stroke:#8e8e8e;stroke-width:1;stroke-linecap:butt;stroke-linejoin:round;stroke-miterlimit:4;stroke-dasharray:none;stroke-opacity:1" width="12" height="12" x="80" y="84"/><rect style="opacity:1;fill:#f2f2f2;fill-opacity:1;stroke:#8e8e8e;stroke-width:1;stroke-linecap:butt;stroke-linejoin:round;stroke-miterlimit:4;stroke-dasharray:none;stroke-opacity:1" width="84" height="16" x="8" y="20"/><text xml:space="preserve" style="font-style:normal;font-variant:normal;font-weight:400;font-stretch:normal;font-size:5.33333349px;line-height:1.25;font-family:Kabel;-inkscape-font-specification:Kabel;letter-spacing:0;word-spacing:0;fill:#000;fill-opacity:1;stroke:none" x="52" y="36"/><path style="fill:#8bcff3;fill-opacity:.94117647;stroke:none;stroke-width:1px;stroke-linecap:butt;stroke-linejoin:miter;stroke-opacity:1" d="m16 24-4 4 4 4v-8" inkscape:connector-curvature="0"/><path style="fill:#8bcff3;fill-opacity:.94117647;stroke:none;stroke-width:1px;stroke-linecap:butt;stroke-linejoin:miter;stroke-opacity:1" d="m84 24 4 4-4 4z" inkscape:connector-curvature="0"/></g><g inkscape:groupmode="layer" inkscape:label="Calque 2"><g style="font-style:normal;font-variant:normal;font-weight:400;font-stretch:normal;font-size:5.33333349px;line-height:1.25;font-family:Kabel;-inkscape-font-specification:Kabel;letter-spacing:0;word-spacing:0;fill:#f2f2f2;fill-opacity:1;stroke:none"><path d="m48.667 41.42-.395-.68 2.186-1.343v4.593l-1.114.096v-3.014z" aria-label="1"/></g><g style="font-style:normal;font-variant:normal;font-weight:400;font-stretch:normal;font-size:5.33333349px;line-height:1.25;font-family:Kabel;-inkscape-font-specification:Kabel;letter-spacing:0;word-spacing:0;fill:#f2f2f2;fill-opacity:1;stroke:none"><path d="m60.272 44 1.616-1.936q.527-.682.527-.97v-.033q-.03-.282-.18-.42-.139-.13-.337-.13h-.03q-.214.006-.354.156-.138.15-.148.363v.02q0 .294.372.481l-.623.82-.128-.084q-.122-.08-.234-.17-.438-.412-.438-1.051v-.086q.016-.405.23-.736.208-.326.58-.501.358-.17.79-.17h.021q.416 0 .772.16.358.16.582.463.22.304.241.73v.064q0 .33-.192.742-.214.459-.517.79l-.448.495h1.295L63.408 44z" aria-label="2"/></g><g style="font-style:normal;font-variant:normal;font-weight:400;font-stretch:normal;font-size:5.33333349px;line-height:1.25;font-family:Kabel;-inkscape-font-specification:Kabel;letter-spacing:0;word-spacing:0;fill:#f2f2f2;fill-opacity:1;stroke:none"><path d="m73.115 40.918-.78-.523q.028-.075.161-.24.133-.165.283-.267.442-.315 1.045-.315.39 0 .757.17.363.178.582.491.17.257.17.565 0 .081-.01.16-.033.236-.122.4-.097.172-.193.262-.102.091-.112.096.262.128.432.438.17.309.17.618 0 .22-.068.405-.076.188-.188.338-.112.148-.224.244-.405.352-1.163.352-.468 0-.873-.176-.412-.176-.72-.528l.74-.698q.044.058.15.16.107.1.256.17.208.095.384.107.213-.017.384-.14.165-.122.165-.33 0-.155-.064-.272-.069-.117-.18-.154-.199-.053-.535-.053h-.16q-.043.005-.069.01v-.81h.086l.133.01q.288 0 .496-.085.203-.08.203-.33 0-.204-.144-.326-.145-.123-.358-.123-.197 0-.383.102-.193.107-.251.272z" aria-label="3"/></g><g style="font-style:normal;font-variant:normal;font-weight:400;font-stretch:normal;font-size:5.33333349px;line-height:1.25;font-family:Kabel;-inkscape-font-specification:Kabel;letter-spacing:0;word-spacing:0;fill:#f2f2f2;fill-opacity:1;stroke:none"><path d="M85.717 39.626h1.451v2.395h.624l-.155.95h-.459V44l-1.071.096V42.97h-1.835zm.459 2.438v-1.43l-.603 1.43z" aria-label="4"/></g><g style="font-style:normal;font-variant:normal;font-weight:400;font-stretch:normal;font-size:5.33333349px;line-height:1.25;font-family:Kabel;-inkscape-font-specification:Kabel;letter-spacing:0;word-spacing:0;fill:#f2f2f2;fill-opacity:1;stroke:none"><path d="m12.272 55.51.746-.78.07.07q.047.058.133.118.086.059.203.1.118.048.293.054.262 0 .459-.192.165-.16.165-.358 0-.036-.005-.074-.033-.208-.145-.33-.117-.118-.277-.171-.159-.054-.319-.054-.277 0-.534.081-.256.085-.32.133v-2.41h2.46l-.262.98H13.78v.395q.021-.006.048-.01.021-.006.053-.011l.054-.01H14q.422 0 .746.229.32.229.496.597.166.362.166.746v.021q-.016.427-.24.763-.23.341-.598.534-.367.191-.778.202h-.043q-.48 0-.933-.25-.47-.262-.544-.374z" aria-label="5"/></g><g style="font-style:normal;font-variant:normal;font-weight:400;font-stretch:normal;font-size:5.33333349px;line-height:1.25;font-family:Kabel;-inkscape-font-specification:Kabel;letter-spacing:0;word-spacing:0;fill:#f2f2f2;fill-opacity:1;stroke:none"><path d="m26.074 51.456 1.147.422q-.037.01-.325.267-.293.255-.416.377-.24.241-.513.582l.081-.01.117-.017q.038-.005.086-.005.586 0 .976.416.384.42.41 1.013v.064q0 .458-.224.8-.24.368-.634.556-.4.191-.8.191-.742 0-1.21-.48-.438-.443-.438-1.136 0-.053.005-.112.016-.277.091-.517.07-.235.176-.448.107-.213.255-.442l.236-.374q.18-.305.98-1.147zm-.107 2.47q-.244.005-.41.186-.15.17-.15.39v.042q.017.23.188.395.17.165.405.165.24 0 .415-.186.166-.172.166-.396v-.031q-.005-.246-.186-.417-.171-.148-.385-.148h-.043z" aria-label="6"/></g><g style="font-style:normal;font-variant:normal;font-weight:400;font-stretch:normal;font-size:5.33333349px;line-height:1.25;font-family:Kabel;-inkscape-font-specification:Kabel;letter-spacing:0;word-spacing:0;fill:#f2f2f2;fill-opacity:1;stroke:none"><path d="m36.272 52.7.283-1.041h2.842L38.033 56l-1.234.176 1.211-3.477z" aria-label="7"/></g><g style="font-style:normal;font-variant:normal;font-weight:400;font-stretch:normal;font-size:5.33333349px;line-height:1.25;font-family:Kabel;-inkscape-font-specification:Kabel;letter-spacing:0;word-spacing:0;fill:#f2f2f2;fill-opacity:1;stroke:none"><path d="M49.867 53.28q.07 0 .25-.128.176-.117.176-.32v-.01q-.005-.181-.117-.273-.112-.09-.288-.09-.165 0-.272.1-.112.108-.117.273v.01q0 .123.074.22.08.1.176.149l.118.069zm.021.906q-.128.043-.32.17-.192.135-.192.385 0 .24.16.358.154.122.39.122.133-.005.255-.069.117-.063.193-.165.063-.091.063-.193v-.031q-.027-.277-.246-.427-.224-.15-.303-.15zm-.96-.426q-.01-.005-.144-.134-.138-.122-.235-.34-.085-.177-.085-.411 0-.048.005-.102.032-.394.24-.666.209-.272.538-.4.3-.112.636-.112h.064q.592.01.987.309.389.3.42.885v.07q0 .245-.095.437-.117.218-.262.336-.144.117-.155.128.171.085.412.347.212.245.212.64v.075q-.015.634-.448.954-.43.32-1.082.336h-.064q-.666 0-1.088-.315-.448-.33-.469-.932v-.023q0-.303.128-.539.127-.24.293-.394.165-.149.192-.149z" aria-label="8"/></g><g style="font-style:normal;font-variant:normal;font-weight:400;font-stretch:normal;font-size:5.33333349px;line-height:1.25;font-family:Kabel;-inkscape-font-specification:Kabel;letter-spacing:0;word-spacing:0;fill:#f2f2f2;fill-opacity:1;stroke:none"><path d="m61.867 56.251-1.147-.396q.053-.036.288-.24.234-.202.437-.414.262-.257.522-.598-.127.043-.34.043-.587-.022-.945-.438-.362-.411-.379-.997v-.08q0-.449.22-.785.24-.367.624-.553.384-.188.81-.188.742 0 1.216.47.438.437.438 1.136 0 .053-.006.112-.015.255-.09.506-.075.257-.182.465-.106.207-.256.447-.149.24-.235.363-.15.24-.468.593-.32.356-.507.554zm.09-2.46q.24-.005.411-.19.166-.182.166-.423v-.01q-.012-.155-.091-.277-.08-.123-.214-.198-.133-.07-.282-.07-.25.011-.416.188-.165.17-.165.405v.01q.005.235.18.4.166.166.4.166h.011z" aria-label="9"/></g><g aria-label="10" style="font-style:normal;font-variant:normal;font-weight:400;font-stretch:normal;font-size:5.33333349px;line-height:1.25;font-family:Kabel;-inkscape-font-specification:Kabel;letter-spacing:0;word-spacing:0;fill:#f2f2f2;fill-opacity:1;stroke:none"><path d="m71.199 53.42-.395-.68 2.187-1.343v4.593l-1.115.096v-3.014z"/><path d="M75.24 51.616q.837.005 1.231.635.395.634.406 1.716v.066q0 .324-.09.671-.102.39-.31.698-.208.315-.528.508-.32.192-.73.197-.524 0-.896-.298-.374-.3-.556-.79-.181-.49-.192-1.072.01-.033.01-.07.018-.986.433-1.626.41-.635 1.21-.635h.011zm-.022.987q-.33 0-.454.384-.117.357-.117.827v.074q0 1.227.571 1.237h.01q.576 0 .576-1.28 0-.49-.132-.868-.135-.374-.454-.374z"/></g><g aria-label="11" style="font-style:normal;font-variant:normal;font-weight:400;font-stretch:normal;font-size:5.33333349px;line-height:1.25;font-family:Kabel;-inkscape-font-specification:Kabel;letter-spacing:0;word-spacing:0;fill:#f2f2f2;fill-opacity:1;stroke:none"><path d="m83.199 53.42-.395-.68 2.187-1.343v4.593l-1.115.096v-3.014z"/><path d="m85.96 53.42-.395-.68 2.186-1.343v4.593l-1.115.096v-3.014z"/></g><g aria-label="12" style="font-style:normal;font-variant:normal;font-weight:400;font-stretch:normal;font-size:5.33333349px;line-height:1.25;font-family:Kabel;-inkscape-font-specification:Kabel;letter-spacing:0;word-spacing:0;fill:#f2f2f2;fill-opacity:1;stroke:none"><path d="m11.199 65.42-.395-.68 2.187-1.343v4.593l-1.115.096v-3.014z"/><path d="m13.565 68 1.616-1.936q.527-.682.527-.97v-.033q-.031-.282-.18-.42-.139-.13-.337-.13h-.031q-.214.006-.353.156-.138.15-.148.363v.02q0 .294.372.481l-.624.82q-.005-.005-.127-.084-.123-.08-.235-.17-.437-.412-.437-1.051v-.086q.015-.405.229-.736.208-.326.58-.501.359-.17.79-.17h.022q.415 0 .772.16.358.16.582.463.219.304.24.73v.064q0 .33-.192.742-.213.459-.517.79l-.448.495h1.296L16.7 68z"/></g><g aria-label="13" style="font-style:normal;font-variant:normal;font-weight:400;font-stretch:normal;font-size:5.33333349px;line-height:1.25;font-family:Kabel;-inkscape-font-specification:Kabel;letter-spacing:0;word-spacing:0;fill:#f2f2f2;fill-opacity:1;stroke:none"><path d="m23.199 65.42-.395-.68 2.187-1.343v4.593l-1.115.096v-3.014z"/><path d="m26.407 64.918-.778-.523q.027-.075.16-.24.133-.165.282-.267.443-.315 1.046-.315.39 0 .756.17.364.178.582.491.171.257.171.565 0 .081-.01.16-.033.236-.123.4-.096.172-.193.262-.101.091-.111.096.261.128.432.438.17.309.17.618 0 .22-.069.405-.075.188-.187.338-.112.148-.224.244-.405.352-1.163.352-.469 0-.874-.176-.411-.176-.72-.528l.741-.698q.043.058.15.16.107.1.255.17.209.095.384.107.214-.017.384-.14.166-.122.166-.33 0-.155-.064-.272-.069-.117-.181-.154-.198-.053-.534-.053h-.16q-.043.005-.069.01v-.81h.086l.133.01q.288 0 .496-.085.203-.08.203-.33 0-.204-.145-.326-.144-.123-.358-.123-.196 0-.382.102-.193.107-.252.272z"/></g><g aria-label="14" style="font-style:normal;font-variant:normal;font-weight:400;font-stretch:normal;font-size:5.33333349px;line-height:1.25;font-family:Kabel;-inkscape-font-specification:Kabel;letter-spacing:0;word-spacing:0;fill:#f2f2f2;fill-opacity:1;stroke:none"><path d="m35.199 65.42-.395-.68 2.187-1.343v4.593l-1.115.096v-3.014z"/><path d="M39.01 63.626h1.45v2.395h.624l-.155.95h-.458V68l-1.072.096V66.97h-1.834zm.458 2.438v-1.43l-.602 1.43z"/></g><g aria-label="15" style="font-style:normal;font-variant:normal;font-weight:400;font-stretch:normal;font-size:5.33333349px;line-height:1.25;font-family:Kabel;-inkscape-font-specification:Kabel;letter-spacing:0;word-spacing:0;fill:#f2f2f2;fill-opacity:1;stroke:none"><path d="m47.199 65.42-.395-.68 2.187-1.343v4.593l-1.115.096v-3.014z"/><path d="m49.565 67.51.746-.78.07.07q.047.058.133.118.086.059.203.1.117.048.293.054.262 0 .458-.192.166-.16.166-.358 0-.036-.005-.074-.033-.208-.145-.33-.117-.118-.277-.171-.16-.054-.32-.054-.277 0-.533.081-.257.085-.32.133v-2.41h2.46l-.263.98h-1.157v.395q.02-.006.048-.01.02-.006.052-.011l.055-.01h.064q.422 0 .746.229.32.229.496.597.165.362.165.746v.021q-.015.427-.24.763-.229.341-.597.534-.367.191-.779.202h-.043q-.479 0-.932-.25-.47-.262-.544-.374z"/></g><g aria-label="16" style="font-style:normal;font-variant:normal;font-weight:400;font-stretch:normal;font-size:5.33333349px;line-height:1.25;font-family:Kabel;-inkscape-font-specification:Kabel;letter-spacing:0;word-spacing:0;fill:#f2f2f2;fill-opacity:1;stroke:none"><path d="m59.199 65.42-.395-.68 2.187-1.343v4.593l-1.115.096v-3.014z"/><path d="m63.367 63.456 1.147.422q-.038.01-.325.267-.293.255-.416.377-.24.241-.513.582l.08-.01.118-.017q.038-.005.086-.005.586 0 .975.416.384.42.41 1.013v.064q0 .458-.224.8-.24.368-.634.556-.4.191-.8.191-.741 0-1.21-.48-.438-.443-.438-1.136 0-.053.006-.112.015-.277.09-.517.07-.235.177-.448.106-.213.255-.442l.235-.374q.181-.305.98-1.147zm-.107 2.47q-.245.005-.41.186-.15.17-.15.39v.042q.017.23.188.395.17.165.405.165.24 0 .415-.186.165-.172.165-.396v-.031q-.005-.246-.186-.417-.17-.148-.384-.148h-.043z"/></g><g aria-label="17" style="font-style:normal;font-variant:normal;font-weight:400;font-stretch:normal;font-size:5.33333349px;line-height:1.25;font-family:Kabel;-inkscape-font-specification:Kabel;letter-spacing:0;word-spacing:0;fill:#f2f2f2;fill-opacity:1;stroke:none"><path d="m71.199 65.42-.395-.68 2.187-1.343v4.593l-1.115.096v-3.014z"/><path d="m73.565 64.7.282-1.041h2.843L75.325 68l-1.233.176 1.211-3.477z"/></g><g aria-label="18" style="font-style:normal;font-variant:normal;font-weight:400;font-stretch:normal;font-size:5.33333349px;line-height:1.25;font-family:Kabel;-inkscape-font-specification:Kabel;letter-spacing:0;word-spacing:0;fill:#f2f2f2;fill-opacity:1;stroke:none"><path d="m83.199 65.42-.395-.68 2.187-1.343v4.593l-1.115.096v-3.014z"/><path d="M87.16 65.28q.069 0 .25-.128.176-.117.176-.32v-.01q-.006-.181-.118-.273-.112-.09-.287-.09-.166 0-.272.1-.112.108-.118.273v.01q0 .123.075.22.08.1.175.149l.119.069zm.02.906q-.127.043-.32.17-.191.135-.191.385 0 .24.16.358.154.122.39.122.132-.005.255-.069.117-.063.192-.165.064-.091.064-.193v-.031q-.027-.277-.246-.427-.224-.15-.303-.15zm-.959-.426q-.01-.005-.144-.134-.138-.122-.235-.34-.086-.177-.086-.411 0-.048.005-.102.033-.394.241-.666.209-.272.538-.4.3-.112.635-.112h.064q.593.01.987.309.39.3.42.885v.07q0 .245-.094.437-.117.218-.262.336-.144.117-.155.128.17.085.412.347.212.245.212.64v.075q-.016.634-.448.954-.431.32-1.082.336h-.064q-.667 0-1.088-.315-.448-.33-.47-.932v-.023q0-.303.128-.539.128-.24.293-.394.166-.149.193-.149z"/></g><g aria-label="19" style="font-style:normal;font-variant:normal;font-weight:400;font-stretch:normal;font-size:5.33333349px;line-height:1.25;font-family:Kabel;-inkscape-font-specification:Kabel;letter-spacing:0;word-spacing:0;fill:#f2f2f2;fill-opacity:1;stroke:none"><path d="m11.199 77.42-.395-.68 2.187-1.343v4.593l-1.115.096v-3.014z"/><path d="m15.16 80.251-1.147-.396q.053-.036.287-.24.235-.202.438-.414.262-.257.522-.598-.127.043-.341.043-.586-.022-.944-.438-.362-.411-.379-.997v-.08q0-.449.219-.785.24-.367.625-.553.384-.188.81-.188.742 0 1.216.47.437.437.437 1.136 0 .053-.005.112-.015.255-.091.506-.074.257-.181.465-.107.207-.256.447-.149.24-.235.363-.15.24-.469.593-.32.356-.506.554zm.09-2.46q.24-.005.411-.19.166-.182.166-.423v-.01q-.012-.155-.092-.277-.079-.123-.213-.198-.133-.07-.283-.07-.25.011-.415.188-.165.17-.165.405v.01q.005.235.18.4.166.166.4.166h.01z"/></g><g aria-label="20" style="font-style:normal;font-variant:normal;font-weight:400;font-stretch:normal;font-size:5.33333349px;line-height:1.25;font-family:Kabel;-inkscape-font-specification:Kabel;letter-spacing:0;word-spacing:0;fill:#f2f2f2;fill-opacity:1;stroke:none"><path d="m22.804 80 1.616-1.936q.528-.682.528-.97v-.033q-.032-.282-.181-.42-.138-.13-.336-.13h-.032q-.213.006-.352.156-.138.15-.149.363v.02q0 .294.373.481l-.624.82q-.005-.005-.128-.084-.122-.08-.234-.17-.438-.412-.438-1.051v-.086q.016-.405.23-.736.208-.326.58-.501.358-.17.79-.17h.021q.416 0 .773.16.358.16.582.463.218.304.24.73v.064q0 .33-.192.742-.214.459-.517.79l-.448.495h1.296L25.94 80z"/><path d="M28.354 75.616q.837.005 1.232.635.394.634.406 1.716v.066q0 .324-.091.671-.102.39-.31.698-.207.315-.527.508-.32.192-.731.197-.523 0-.896-.298-.373-.3-.556-.79-.18-.49-.191-1.072.01-.033.01-.07.017-.986.433-1.626.41-.635 1.21-.635h.01zm-.02.987q-.332 0-.455.384-.118.357-.118.827v.074q0 1.227.572 1.237h.01q.576 0 .576-1.28 0-.49-.133-.868-.134-.374-.453-.374z"/></g><g aria-label="21" style="font-style:normal;font-variant:normal;font-weight:400;font-stretch:normal;font-size:5.33333349px;line-height:1.25;font-family:Kabel;-inkscape-font-specification:Kabel;letter-spacing:0;word-spacing:0;fill:#f2f2f2;fill-opacity:1;stroke:none"><path d="m34.804 80 1.616-1.936q.528-.682.528-.97v-.033q-.032-.282-.181-.42-.138-.13-.336-.13h-.032q-.213.006-.352.156-.138.15-.149.363v.02q0 .294.373.481l-.624.82q-.005-.005-.128-.084-.122-.08-.234-.17-.438-.412-.438-1.051v-.086q.016-.405.23-.736.208-.326.58-.501.358-.17.79-.17h.021q.416 0 .773.16.358.16.582.463.218.304.24.73v.064q0 .33-.192.742-.214.459-.517.79l-.448.495h1.296L37.94 80z"/><path d="m39.074 77.42-.395-.68 2.187-1.343v4.593l-1.115.096v-3.014z"/></g><g aria-label="22" style="font-style:normal;font-variant:normal;font-weight:400;font-stretch:normal;font-size:5.33333349px;line-height:1.25;font-family:Kabel;-inkscape-font-specification:Kabel;letter-spacing:0;word-spacing:0;fill:#f2f2f2;fill-opacity:1;stroke:none"><path d="m46.804 80 1.616-1.936q.528-.682.528-.97v-.033q-.032-.282-.181-.42-.138-.13-.336-.13h-.032q-.213.006-.352.156-.138.15-.149.363v.02q0 .294.373.481l-.624.82q-.005-.005-.128-.084-.122-.08-.234-.17-.438-.412-.438-1.051v-.086q.016-.405.23-.736.208-.326.58-.501.358-.17.79-.17h.021q.416 0 .773.16.358.16.582.463.218.304.24.73v.064q0 .33-.192.742-.214.459-.517.79l-.448.495h1.296L49.94 80z"/><path d="m50.68 80 1.615-1.936q.528-.682.528-.97v-.033q-.032-.282-.181-.42-.138-.13-.336-.13h-.032q-.213.006-.352.156-.138.15-.149.363v.02q0 .294.373.481l-.624.82q-.005-.005-.128-.084-.122-.08-.234-.17-.438-.412-.438-1.051v-.086q.016-.405.23-.736.208-.326.58-.501.358-.17.79-.17h.021q.416 0 .773.16.358.16.582.463.218.304.24.73v.064q0 .33-.192.742-.214.459-.517.79l-.448.495h1.296L53.815 80z"/></g><g aria-label="23" style="font-style:normal;font-variant:normal;font-weight:400;font-stretch:normal;font-size:5.33333349px;line-height:1.25;font-family:Kabel;-inkscape-font-specification:Kabel;letter-spacing:0;word-spacing:0;fill:#f2f2f2;fill-opacity:1;stroke:none"><path d="m58.804 80 1.616-1.936q.528-.682.528-.97v-.033q-.032-.282-.181-.42-.138-.13-.336-.13h-.032q-.213.006-.352.156-.138.15-.149.363v.02q0 .294.373.481l-.624.82q-.005-.005-.128-.084-.122-.08-.234-.17-.438-.412-.438-1.051v-.086q.016-.405.23-.736.208-.326.58-.501.358-.17.79-.17h.021q.416 0 .773.16.358.16.582.463.218.304.24.73v.064q0 .33-.192.742-.214.459-.517.79l-.448.495h1.296L61.94 80z"/><path d="m63.522 76.918-.779-.523q.028-.075.16-.24.133-.165.283-.267.443-.315 1.045-.315.39 0 .757.17.363.178.582.491.17.257.17.565 0 .081-.01.16-.032.236-.122.4-.097.172-.193.262-.101.091-.112.096.262.128.432.438.171.309.171.618 0 .22-.069.405-.076.188-.188.338-.112.148-.224.244-.404.352-1.162.352-.469 0-.874-.176-.411-.176-.72-.528l.74-.698q.044.058.15.16.107.1.256.17.208.095.384.107.213-.017.384-.14.165-.122.165-.33 0-.155-.063-.272-.07-.117-.181-.154-.198-.053-.534-.053h-.16q-.043.005-.07.01v-.81h.087l.132.01q.288 0 .496-.085.204-.08.204-.33 0-.204-.145-.326-.144-.123-.358-.123-.197 0-.383.102-.193.107-.251.272z"/></g><g aria-label="24" style="font-style:normal;font-variant:normal;font-weight:400;font-stretch:normal;font-size:5.33333349px;line-height:1.25;font-family:Kabel;-inkscape-font-specification:Kabel;letter-spacing:0;word-spacing:0;fill:#f2f2f2;fill-opacity:1;stroke:none"><path d="m70.804 80 1.616-1.936q.528-.682.528-.97v-.033q-.032-.282-.181-.42-.138-.13-.336-.13h-.032q-.213.006-.352.156-.138.15-.149.363v.02q0 .294.373.481l-.624.82q-.005-.005-.128-.084-.122-.08-.234-.17-.438-.412-.438-1.051v-.086q.016-.405.23-.736.208-.326.58-.501.358-.17.79-.17h.021q.416 0 .773.16.358.16.582.463.218.304.24.73v.064q0 .33-.192.742-.214.459-.517.79l-.448.495h1.296L73.94 80z"/><path d="M76.125 75.626h1.45v2.395h.624l-.155.95h-.458V80l-1.072.096V78.97h-1.835zm.458 2.438v-1.43l-.603 1.43z"/></g><g aria-label="25" style="font-style:normal;font-variant:normal;font-weight:400;font-stretch:normal;font-size:5.33333349px;line-height:1.25;font-family:Kabel;-inkscape-font-specification:Kabel;letter-spacing:0;word-spacing:0;fill:#f2f2f2;fill-opacity:1;stroke:none"><path d="m82.804 80 1.616-1.936q.528-.682.528-.97v-.033q-.032-.282-.181-.42-.138-.13-.336-.13h-.032q-.213.006-.352.156-.138.15-.149.363v.02q0 .294.373.481l-.624.82q-.005-.005-.128-.084-.122-.08-.234-.17-.438-.412-.438-1.051v-.086q.016-.405.23-.736.208-.326.58-.501.358-.17.79-.17h.021q.416 0 .773.16.358.16.582.463.218.304.24.73v.064q0 .33-.192.742-.214.459-.517.79l-.448.495h1.296L85.94 80z"/><path d="m86.68 79.51.745-.78.07.07q.048.058.134.118.086.059.203.1.117.048.293.054.261 0 .458-.192.165-.16.165-.358 0-.036-.005-.074-.032-.208-.144-.33-.118-.118-.278-.171-.159-.054-.319-.054-.277 0-.534.081-.256.085-.32.133v-2.41h2.46l-.262.98H88.19v.395q.02-.006.048-.01.02-.006.052-.011l.054-.01h.064q.422 0 .746.229.32.229.496.597.166.362.166.746v.021q-.016.427-.24.763-.229.341-.597.534-.368.191-.78.202h-.042q-.48 0-.932-.25-.47-.262-.545-.374z"/></g><g aria-label="26" style="font-style:normal;font-variant:normal;font-weight:400;font-stretch:normal;font-size:5.33333349px;line-height:1.25;font-family:Kabel;-inkscape-font-specification:Kabel;letter-spacing:0;word-spacing:0;fill:#f2f2f2;fill-opacity:1;stroke:none"><path d="m10.804 92 1.616-1.936q.528-.682.528-.97v-.033q-.032-.282-.181-.42-.138-.13-.336-.13h-.032q-.213.006-.352.156-.138.15-.149.363v.02q0 .294.373.481l-.624.82q-.005-.005-.128-.084-.122-.08-.234-.17-.438-.412-.438-1.051v-.086q.016-.405.23-.736.208-.326.58-.501.358-.17.79-.17h.021q.416 0 .773.16.358.16.582.463.218.304.24.73v.064q0 .33-.192.742-.214.459-.517.79l-.448.495h1.296L13.94 92z"/><path d="m16.481 87.456 1.148.422q-.038.01-.326.267-.293.255-.415.377-.241.241-.513.582l.08-.01.118-.017q.037-.005.086-.005.586 0 .975.416.384.42.41 1.013v.064q0 .458-.224.8-.24.368-.634.556-.4.191-.8.191-.742 0-1.21-.48-.438-.443-.438-1.136 0-.053.005-.112.016-.277.091-.517.07-.235.176-.448.107-.213.255-.442l.236-.374q.181-.305.98-1.147zm-.106 2.47q-.245.005-.41.186-.15.17-.15.39v.042q.017.23.187.395.17.165.405.165.24 0 .416-.186.165-.172.165-.396v-.031q-.005-.246-.186-.417-.17-.148-.384-.148h-.043z"/></g><g aria-label="27" style="font-style:normal;font-variant:normal;font-weight:400;font-stretch:normal;font-size:5.33333349px;line-height:1.25;font-family:Kabel;-inkscape-font-specification:Kabel;letter-spacing:0;word-spacing:0;fill:#f2f2f2;fill-opacity:1;stroke:none"><path d="m22.804 92 1.616-1.936q.528-.682.528-.97v-.033q-.032-.282-.181-.42-.138-.13-.336-.13h-.032q-.213.006-.352.156-.138.15-.149.363v.02q0 .294.373.481l-.624.82q-.005-.005-.128-.084-.122-.08-.234-.17-.438-.412-.438-1.051v-.086q.016-.405.23-.736.208-.326.58-.501.358-.17.79-.17h.021q.416 0 .773.16.358.16.582.463.218.304.24.73v.064q0 .33-.192.742-.214.459-.517.79l-.448.495h1.296L25.94 92z"/><path d="m26.68 88.7.282-1.041h2.842L28.44 92l-1.233.176 1.21-3.477z"/></g><g aria-label="28" style="font-style:normal;font-variant:normal;font-weight:400;font-stretch:normal;font-size:5.33333349px;line-height:1.25;font-family:Kabel;-inkscape-font-specification:Kabel;letter-spacing:0;word-spacing:0;fill:#f2f2f2;fill-opacity:1;stroke:none"><path d="m34.804 92 1.616-1.936q.528-.682.528-.97v-.033q-.032-.282-.181-.42-.138-.13-.336-.13h-.032q-.213.006-.352.156-.138.15-.149.363v.02q0 .294.373.481l-.624.82q-.005-.005-.128-.084-.122-.08-.234-.17-.438-.412-.438-1.051v-.086q.016-.405.23-.736.208-.326.58-.501.358-.17.79-.17h.021q.416 0 .773.16.358.16.582.463.218.304.24.73v.064q0 .33-.192.742-.214.459-.517.79l-.448.495h1.296L37.94 92z"/><path d="M40.274 89.28q.07 0 .25-.128.176-.117.176-.32v-.01q-.005-.181-.117-.273-.112-.09-.288-.09-.165 0-.272.1-.112.108-.117.273v.01q0 .123.074.22.08.1.176.149l.118.069zm.021.906q-.127.043-.32.17-.191.135-.191.385 0 .24.16.358.153.122.389.122.133-.005.255-.069.117-.063.193-.165.064-.091.064-.193v-.031q-.028-.277-.246-.427-.224-.15-.304-.15zm-.96-.426q-.01-.005-.144-.134-.138-.122-.234-.34-.086-.177-.086-.411 0-.048.005-.102.033-.394.24-.666.21-.272.539-.4.3-.112.635-.112h.064q.592.01.987.309.39.3.42.885v.07q0 .245-.095.437-.117.218-.261.336-.145.117-.155.128.17.085.411.347.212.245.212.64v.075q-.015.634-.448.954-.43.32-1.082.336h-.063q-.667 0-1.089-.315-.448-.33-.469-.932v-.023q0-.303.128-.539.128-.24.293-.394.165-.149.193-.149z"/></g><g aria-label="29" style="font-style:normal;font-variant:normal;font-weight:400;font-stretch:normal;font-size:5.33333349px;line-height:1.25;font-family:Kabel;-inkscape-font-specification:Kabel;letter-spacing:0;word-spacing:0;fill:#f2f2f2;fill-opacity:1;stroke:none"><path d="m46.804 92 1.616-1.936q.528-.682.528-.97v-.033q-.032-.282-.181-.42-.138-.13-.336-.13h-.032q-.213.006-.352.156-.138.15-.149.363v.02q0 .294.373.481l-.624.82q-.005-.005-.128-.084-.122-.08-.234-.17-.438-.412-.438-1.051v-.086q.016-.405.23-.736.208-.326.58-.501.358-.17.79-.17h.021q.416 0 .773.16.358.16.582.463.218.304.24.73v.064q0 .33-.192.742-.214.459-.517.79l-.448.495h1.296L49.94 92z"/><path d="m52.274 92.251-1.147-.396q.054-.036.288-.24.234-.202.438-.414.261-.257.522-.598-.128.043-.341.043-.586-.022-.944-.438-.362-.411-.38-.997v-.08q0-.449.22-.785.24-.367.624-.553.385-.188.81-.188.742 0 1.216.47.438.437.438 1.136 0 .053-.005.112-.016.255-.091.506-.075.257-.181.465-.107.207-.257.447-.148.24-.234.363-.15.24-.469.593-.32.356-.507.554zm.09-2.46q.241-.005.412-.19.165-.182.165-.423v-.01q-.012-.155-.091-.277-.08-.123-.214-.198-.132-.07-.282-.07-.25.011-.415.188-.166.17-.166.405v.01q.005.235.181.4.165.166.4.166h.01z"/></g><g aria-label="30" style="font-style:normal;font-variant:normal;font-weight:400;font-stretch:normal;font-size:5.33333349px;line-height:1.25;font-family:Kabel;-inkscape-font-specification:Kabel;letter-spacing:0;word-spacing:0;fill:#f2f2f2;fill-opacity:1;stroke:none"><path d="m59.647 88.918-.779-.523q.028-.075.16-.24.133-.165.283-.267.443-.315 1.045-.315.39 0 .757.17.363.178.582.491.17.257.17.565 0 .081-.01.16-.032.236-.122.4-.097.172-.193.262-.101.091-.112.096.262.128.432.438.171.309.171.618 0 .22-.07.405-.075.188-.187.338-.112.148-.224.244-.404.352-1.162.352-.469 0-.874-.176-.411-.176-.72-.528l.74-.698q.044.058.15.16.107.1.256.17.208.095.384.107.213-.017.384-.14.165-.122.165-.33 0-.155-.063-.272-.07-.117-.181-.154-.198-.053-.534-.053h-.16q-.043.005-.07.01v-.81h.087l.132.01q.288 0 .496-.085.204-.08.204-.33 0-.204-.145-.326-.144-.123-.358-.123-.197 0-.383.102-.193.107-.251.272z"/><path d="M64.229 87.616q.837.005 1.232.635.394.634.406 1.716v.066q0 .324-.091.671-.102.39-.31.698-.207.315-.527.508-.32.192-.731.197-.523 0-.896-.298-.373-.3-.556-.79-.18-.49-.191-1.072.01-.033.01-.07.017-.986.433-1.626.41-.635 1.21-.635h.01zm-.021.987q-.33 0-.454.384-.118.357-.118.827v.074q0 1.227.572 1.237h.01q.576 0 .576-1.28 0-.49-.133-.868-.134-.374-.453-.374z"/></g><g aria-label="31" style="font-style:normal;font-variant:normal;font-weight:400;font-stretch:normal;font-size:5.33333349px;line-height:1.25;font-family:Kabel;-inkscape-font-specification:Kabel;letter-spacing:0;word-spacing:0;fill:#f2f2f2;fill-opacity:1;stroke:none"><path d="m71.647 88.918-.779-.523q.028-.075.16-.24.133-.165.283-.267.443-.315 1.045-.315.39 0 .757.17.363.178.582.491.17.257.17.565 0 .081-.01.16-.032.236-.122.4-.097.172-.193.262-.101.091-.112.096.262.128.432.438.171.309.171.618 0 .22-.069.405-.076.188-.188.338-.112.148-.224.244-.404.352-1.162.352-.469 0-.874-.176-.411-.176-.72-.528l.74-.698q.044.058.15.16.107.1.256.17.208.095.384.107.213-.017.384-.14.165-.122.165-.33 0-.155-.063-.272-.07-.117-.181-.154-.198-.053-.534-.053h-.16q-.043.005-.07.01v-.81h.087l.132.01q.288 0 .496-.085.204-.08.204-.33 0-.204-.145-.326-.144-.123-.358-.123-.197 0-.383.102-.193.107-.251.272z"/><path d="m74.949 89.42-.395-.68 2.187-1.343v4.593l-1.115.096v-3.014z"/></g><g style="font-style:normal;font-variant:normal;font-weight:400;font-stretch:normal;font-size:5.33333349px;line-height:1.25;font-family:Kabel;-inkscape-font-specification:Kabel;letter-spacing:0;word-spacing:0;fill:#8e8e8e;fill-opacity:1;stroke:none"><path d="m84.667 89.42-.395-.68 2.186-1.343v4.593l-1.114.096v-3.014z" aria-label="1"/></g><g aria-label="30" style="font-style:normal;font-variant:normal;font-weight:400;font-stretch:normal;font-size:5.33333349px;line-height:1.25;font-family:Kabel;-inkscape-font-specification:Kabel;letter-spacing:0;word-spacing:0;fill:#8e8e8e;fill-opacity:1;stroke:none"><path d="m35.647 40.918-.779-.523q.028-.075.16-.24.133-.165.283-.267.443-.315 1.045-.315.39 0 .757.17.363.178.582.491.17.257.17.565 0 .081-.01.16-.032.236-.122.4-.097.172-.193.262-.101.091-.112.096.262.128.432.438.171.309.171.618 0 .22-.07.405-.075.188-.187.338-.112.148-.224.244-.404.352-1.162.352-.469 0-.874-.176-.411-.176-.72-.528l.74-.698q.044.058.15.16.107.1.256.17.208.095.384.107.213-.017.384-.14.165-.122.165-.33 0-.155-.063-.272-.07-.117-.181-.154-.198-.053-.534-.053h-.16q-.043.005-.07.01v-.81h.087l.132.01q.288 0 .496-.085.204-.08.204-.33 0-.204-.145-.326-.144-.123-.358-.123-.197 0-.383.102-.193.107-.251.272z"/><path d="M40.229 39.616q.837.005 1.232.635.394.634.406 1.716v.066q0 .324-.091.671-.102.39-.31.698-.207.315-.527.508-.32.192-.731.197-.523 0-.896-.298-.373-.3-.556-.79-.18-.49-.191-1.072.01-.033.01-.07.017-.986.433-1.626.41-.635 1.21-.635h.01zm-.021.987q-.33 0-.454.384-.118.357-.118.827v.074q0 1.227.572 1.237h.01q.576 0 .576-1.28 0-.49-.133-.868-.134-.374-.453-.374z"/></g><g aria-label="29" style="font-style:normal;font-variant:normal;font-weight:400;font-stretch:normal;font-size:5.33333349px;line-height:1.25;font-family:Kabel;-inkscape-font-specification:Kabel;letter-spacing:0;word-spacing:0;fill:#8e8e8e;fill-opacity:1;stroke:none"><path d="m22.804 44 1.616-1.936q.528-.682.528-.97v-.033q-.032-.282-.181-.42-.138-.13-.336-.13h-.032q-.213.006-.352.156-.138.15-.149.363v.02q0 .294.373.481l-.624.82q-.005-.005-.128-.084-.122-.08-.234-.17-.438-.412-.438-1.051v-.086q.016-.405.23-.736.208-.326.58-.501.358-.17.79-.17h.021q.416 0 .773.16.358.16.582.463.218.304.24.73v.064q0 .33-.192.742-.214.459-.517.79l-.448.495h1.296L25.94 44z"/><path d="m28.274 44.251-1.147-.396q.054-.036.288-.24.234-.202.438-.414.261-.257.522-.598-.128.043-.341.043-.586-.022-.944-.438-.362-.411-.38-.997v-.08q0-.449.22-.785.24-.367.624-.553.385-.188.81-.188.742 0 1.216.47.438.437.438 1.136 0 .053-.005.112-.016.255-.091.506-.075.257-.181.465-.107.207-.257.447-.148.24-.234.363-.15.24-.469.593-.32.356-.507.554zm.09-2.46q.241-.005.412-.19.165-.182.165-.423v-.01q-.012-.155-.091-.277-.08-.123-.214-.198-.132-.07-.282-.07-.25.011-.415.188-.166.17-.166.405v.01q.005.235.181.4.166.166.4.166h.01z"/></g><g aria-label="28" style="font-style:normal;font-variant:normal;font-weight:400;font-stretch:normal;font-size:5.33333349px;line-height:1.25;font-family:Kabel;-inkscape-font-specification:Kabel;letter-spacing:0;word-spacing:0;fill:#8e8e8e;fill-opacity:1;stroke:none"><path d="m10.804 44 1.616-1.936q.528-.682.528-.97v-.033q-.032-.282-.181-.42-.138-.13-.336-.13h-.032q-.213.006-.352.156-.138.15-.149.363v.02q0 .294.373.481l-.624.82q-.005-.005-.128-.084-.122-.08-.234-.17-.438-.412-.438-1.051v-.086q.016-.405.23-.736.208-.326.58-.501.358-.17.79-.17h.021q.416 0 .773.16.358.16.582.463.218.304.24.73v.064q0 .33-.192.742-.214.459-.517.79l-.448.495h1.296L13.94 44z"/><path d="M16.274 41.28q.07 0 .25-.128.176-.117.176-.32v-.01q-.005-.181-.117-.273-.112-.09-.288-.09-.165 0-.272.1-.112.108-.117.273v.01q0 .123.074.22.08.1.176.149l.118.069zm.021.906q-.127.043-.32.17-.191.135-.191.385 0 .24.16.358.153.122.389.122.133-.005.255-.069.117-.063.193-.165.064-.091.064-.193v-.031q-.028-.277-.246-.427-.224-.15-.304-.15zm-.96-.426q-.01-.005-.144-.134-.138-.122-.234-.34-.086-.177-.086-.411 0-.048.005-.102.033-.394.24-.666.21-.272.539-.4.3-.112.635-.112h.064q.592.01.987.309.39.3.42.885v.07q0 .245-.095.437-.117.218-.261.336-.145.117-.155.128.17.085.411.347.212.245.212.64v.075q-.015.634-.448.954-.43.32-1.082.336h-.063q-.667 0-1.089-.315-.448-.33-.469-.932v-.023q0-.303.128-.539.128-.24.293-.394.165-.149.193-.149z"/></g><g style="display:inline"><path inkscape:connector-curvature="0" d="m39.895 50.552 5.712-4.536 8.401.336 5.377 3.192 1.176 5.713-2.016 4.536-3.025 3.193-2.016 1.344-1.008 2.856 1.176 2.857-2.52 3.192-5.04 1.344-2.353-1.848.168-2.352.672-2.017-.84-1.512.672-5.208.168-4.873-3.528 1.176z" style="display:inline;fill:#f5ac56;fill-opacity:1;fill-rule:evenodd;stroke:#000;stroke-width:.81778818px;stroke-linecap:butt;stroke-linejoin:miter;stroke-opacity:1" transform="translate(2.045 -41.844)"/><path inkscape:connector-curvature="0" d="M62.042 53.22c0 1.505-.316 2.966-.949 4.383-.043.24-.13.567-.261.982-.567 1.81-1.712 3.303-3.435 4.481-.545.393-1.298.774-2.257 1.145-.654.262-1.069.556-1.243.883 0 .24-.022.556-.066.949 0 .13-.054.349-.163.654-.11.305-.164.502-.164.589 0 .044.142.272.425.687.306.414.502.72.59.916.021.065.032.294.032.687 0 .458-.25 1.2-.752 2.224a4.268 4.268 0 0 1-.164.687 5.824 5.824 0 0 1-1.407 1.897c-.24.24-.817.524-1.733.85-1.374.48-2.595.72-3.664.72-1.112 0-2.104-.272-2.977-.817-1.112-.676-1.668-1.614-1.668-2.814 0-.501.12-1.046.36-1.635.196-.458.392-.927.589-1.407-.175-.087-.415-.261-.72-.523-.153-.196-.229-.796-.229-1.8 0-1.766.48-4.503 1.44-8.21-.11-.087-.186-.13-.23-.13-.043 0-.403.207-1.08.62-.806.48-1.384.808-1.733.982-.218-.174-.349-.338-.392-.49-.35-1.636-.916-4.068-1.701-7.295-.044-.175-.153-.49-.328-.949-.196-.458-.294-.72-.294-.785 0-.327.589-1.047 1.767-2.159 1.046-.938 1.679-1.472 1.897-1.603a74.15 74.15 0 0 1 2.257-1.21c1.003-.545 1.723-.861 2.159-.949.48-.196 1.221-.436 2.224-.72 1.483-.217 2.617-.326 3.402-.326 1.374 0 2.508.043 3.402.13.35.131.872.306 1.57.524 1.636.436 2.912 1.341 3.828 2.715.501.785.916 1.755 1.243 2.911a11.74 11.74 0 0 1 .425 3.206m-2.977 1.308c0-.916-.01-1.428-.033-1.537-.85-3.62-3.827-5.43-8.93-5.43-1.177 0-2.53.283-4.056.85-.153 0-.349.022-.589.066-1.679.763-2.89 1.592-3.63 2.486-.284.327-.426.632-.426.916 0 .589.207 1.984.621 4.187.022.152.153.327.393.523 2.595-1.46 4.35-2.191 5.267-2.191.98 0 1.777.25 2.387.752.633.501.95 1.232.95 2.192 0 .109-.11.338-.328.687-.196.348-.338.534-.425.556a6.046 6.046 0 0 1-.753.294h-1.275c-.088 0-.48-.01-1.178-.033a37.573 37.573 0 0 0-1.145-.065c-.262 0-.458.501-.589 1.505-.109.676-.24 1.592-.392 2.747-.11.175-.164.284-.164.328v2.65c0 .152.044.326.131.523.13.283.284.425.458.425.065 0 .785-.153 2.159-.458.044 0 .72-.087 2.028-.262.872-.109 1.44-.272 1.701-.49.087-.633.207-1.549.36-2.748.087-.088.578-.186 1.472-.295 1.09-.152 2.192-.752 3.304-1.799 1.112-1.047 1.864-2.148 2.257-3.304.283-.828.425-1.853.425-3.075m-7 15.146c0-.436-.207-.818-.622-1.145-.392-.349-.828-.523-1.308-.523-.894 0-1.974.305-3.239.915-1.548.764-2.322 1.658-2.322 2.683 0 .37.076.6.229.687.436.283.916.48 1.44.589a7.21 7.21 0 0 0 1.111.098c.655 0 1.44-.098 2.356-.295.588-.13 1.134-.567 1.635-1.308.48-.654.72-1.221.72-1.701" style="font-style:normal;font-variant:normal;font-weight:400;font-stretch:normal;font-size:40px;line-height:100%;font-family:'Indigo Joker';text-align:start;writing-mode:lr-tb;text-anchor:start;display:inline;fill:#4b4136;fill-opacity:1;stroke:none;stroke-width:1px;stroke-linecap:butt;stroke-linejoin:miter;stroke-opacity:1" transform="translate(2.045 -41.844)"/></g></g></svg>