<!--Created with Inkscape (http://www.inkscape.org/)--><svg xmlns:dc="http://purl.org/dc/elements/1.1/" xmlns:cc="http://creativecommons.org/ns#" xmlns:rdf="http://www.w3.org/1999/02/22-rdf-syntax-ns#" xmlns="http://www.w3.org/2000/svg" xmlns:sodipodi="http://sodipodi.sourceforge.net/DTD/sodipodi-0.dtd" xmlns:inkscape="http://www.inkscape.org/namespaces/inkscape" width="100" height="100" sodipodi:version="0.32" inkscape:version="0.91 r13725" version="1.0" sodipodi:docname="erase.svg"><sodipodi:namedview pagecolor="#ffffff" bordercolor="#666666" borderopacity="1.0" inkscape:pageopacity="0.0" inkscape:pageshadow="2" inkscape:zoom="4.595" inkscape:cx="20.938948" inkscape:cy="112.00948" inkscape:document-units="px" inkscape:current-layer="layer1" width="100px" height="100px" inkscape:window-width="1880" inkscape:window-height="1060" inkscape:window-x="-3" inkscape:window-y="-3" showgrid="false" inkscape:window-maximized="1"/><metadata><rdf:RDF><cc:Work><dc:format>image/svg+xml</dc:format><dc:type rdf:resource="http://purl.org/dc/dcmitype/StillImage"/><dc:title/><dc:date>2015</dc:date><dc:creator><cc:Agent><dc:title>Timothée Giet</dc:title></cc:Agent></dc:creator><cc:license rdf:resource="http://creativecommons.org/licenses/by-sa/4.0/"/></cc:Work><cc:License rdf:about="http://creativecommons.org/licenses/by-sa/4.0/"><cc:permits rdf:resource="http://creativecommons.org/ns#Reproduction"/><cc:permits rdf:resource="http://creativecommons.org/ns#Distribution"/><cc:requires rdf:resource="http://creativecommons.org/ns#Notice"/><cc:requires rdf:resource="http://creativecommons.org/ns#Attribution"/><cc:permits rdf:resource="http://creativecommons.org/ns#DerivativeWorks"/><cc:requires rdf:resource="http://creativecommons.org/ns#ShareAlike"/></cc:License></rdf:RDF></metadata><g inkscape:label="Calque 1" inkscape:groupmode="layer"><path inkscape:connector-curvature="0" style="fill:#9a5a0e;fill-opacity:1;fill-rule:evenodd;stroke:none;stroke-width:1px;stroke-linecap:butt;stroke-linejoin:miter;stroke-opacity:1" d="M36.207 9.11 18.201 21.12l7.572 21.19 7.22 2.64 2.863-7.523 8.983.056c1.476.251 2.585.545 3.472.863l6.125-13.83c-4.689-.632-13.422-1.932-13.913-3.04-.671-1.514 2.1-10.59 2.1-10.59L36.207 9.11z"/><path inkscape:connector-curvature="0" style="fill:#f69111;fill-opacity:1;fill-rule:evenodd;stroke:none;stroke-width:1px;stroke-linecap:butt;stroke-linejoin:miter;stroke-opacity:1" d="m34.55 14.756-12.014 7.798 2.782 7.87 2.084 8.305 4.572 1.414 3.176-9.36 11.812 3.683 3.255-6.596-13.775-2.941L38.18 14.04l-3.63.715z" sodipodi:nodetypes="ccccccccccc"/><path inkscape:connector-curvature="0" style="fill:#9a5a0e;fill-opacity:1;fill-rule:evenodd;stroke:none;stroke-width:1px;stroke-linecap:butt;stroke-linejoin:miter;stroke-opacity:1" d="M86.512 28.84s-4.656 8.278-6.216 8.835c-1.436.512-9.194-5.373-11.156-6.547l-.733-.778-9.985 11.505 5.33 3.14 8.17 7.03-3.473 7.27 6.9 3.417 20.584-9.094-3.723-21.36-5.698-3.418z"/><path inkscape:connector-curvature="0" style="fill:#f69111;fill-opacity:1;fill-rule:evenodd;stroke:none;stroke-width:1px;stroke-linecap:butt;stroke-linejoin:miter;stroke-opacity:1" d="m76.903 57.905 13.567-4.59-.752-8.313.03-8.563-4.08-2.5-5.39 8.287-10.537-6.485-4.782 5.587L77.58 47.58 73.21 57.7l3.694.204z" sodipodi:nodetypes="ccccccccccc"/><path style="fill:#2a2a2a;fill-opacity:1;fill-rule:evenodd;stroke:none;stroke-width:2.12904119;stroke-linecap:butt;stroke-linejoin:miter;stroke-miterlimit:4;stroke-dasharray:none;stroke-opacity:1" d="M29.225 94.804c13.352 6.145 53.787-39.309 20.813-51.986-29.496-11.34-38.282 45.74-20.813 51.986z" sodipodi:nodetypes="csc" inkscape:connector-curvature="0"/><path style="fill:#83cbc6;fill-opacity:1;fill-rule:evenodd;stroke:none;stroke-width:2.12904119;stroke-linecap:butt;stroke-linejoin:miter;stroke-miterlimit:4;stroke-dasharray:none;stroke-opacity:1" d="M30.522 92.007c11.94 5.495 48.1-35.152 18.611-46.49-26.376-10.14-34.234 40.905-18.611 46.49z" sodipodi:nodetypes="csc" inkscape:connector-curvature="0"/><path style="fill:none;stroke:none;stroke-width:2.12904119;stroke-linecap:butt;stroke-linejoin:miter;stroke-miterlimit:4;stroke-dasharray:none;stroke-opacity:1" d="M30.087 90.588c11.94 5.495 48.1-35.153 18.611-46.49-26.376-10.14-34.234 40.905-18.611 46.49z" sodipodi:nodetypes="csc" inkscape:connector-curvature="0"/><path style="color:#000;font-style:normal;font-variant:normal;font-weight:400;font-stretch:normal;font-size:medium;line-height:normal;font-family:sans-serif;text-indent:0;text-align:start;text-decoration:none;text-decoration-line:none;text-decoration-style:solid;text-decoration-color:#000;letter-spacing:normal;word-spacing:normal;text-transform:none;direction:ltr;block-progression:tb;writing-mode:lr-tb;baseline-shift:baseline;text-anchor:start;white-space:normal;clip-rule:nonzero;display:inline;overflow:visible;visibility:visible;opacity:1;isolation:auto;mix-blend-mode:normal;color-interpolation:sRGB;color-interpolation-filters:linearRGB;solid-color:#000;solid-opacity:1;fill:#282828;fill-opacity:1;fill-rule:evenodd;stroke:none;stroke-width:2.12904119;stroke-linecap:butt;stroke-linejoin:miter;stroke-miterlimit:4;stroke-dasharray:none;stroke-dashoffset:0;stroke-opacity:1;color-rendering:auto;image-rendering:auto;shape-rendering:auto;text-rendering:auto;enable-background:accumulate" d="m26.468 54.195-1.005 1.29s2.92 3.41 8.672 6.42c5.752 3.01 14.046 6.041 25.637 6.18l.382-2.486c-11.233-.135-19.535-2.526-25.03-5.402-5.497-2.877-8.656-6.002-8.656-6.002z" inkscape:connector-curvature="0" sodipodi:nodetypes="ccsccsc"/><path style="color:#000;font-style:normal;font-variant:normal;font-weight:400;font-stretch:normal;font-size:medium;line-height:normal;font-family:sans-serif;text-indent:0;text-align:start;text-decoration:none;text-decoration-line:none;text-decoration-style:solid;text-decoration-color:#000;letter-spacing:normal;word-spacing:normal;text-transform:none;direction:ltr;block-progression:tb;writing-mode:lr-tb;baseline-shift:baseline;text-anchor:start;white-space:normal;clip-rule:nonzero;display:inline;overflow:visible;visibility:visible;opacity:1;isolation:auto;mix-blend-mode:normal;color-interpolation:sRGB;color-interpolation-filters:linearRGB;solid-color:#000;solid-opacity:1;fill:#2a2a2a;fill-opacity:1;fill-rule:evenodd;stroke:none;stroke-width:2.12904119;stroke-linecap:butt;stroke-linejoin:miter;stroke-miterlimit:4;stroke-dasharray:none;stroke-dashoffset:0;stroke-opacity:1;color-rendering:auto;image-rendering:auto;shape-rendering:auto;text-rendering:auto;enable-background:accumulate" d="M48.729 44.186c-3.961 6-7.779 11.805-9.843 18.352l2.389.82c1.984-6.296 4.627-12.465 8.517-18.357z" inkscape:connector-curvature="0" sodipodi:nodetypes="ccccc"/><path inkscape:connector-curvature="0" style="color:#000;font-style:normal;font-variant:normal;font-weight:400;font-stretch:normal;font-size:medium;line-height:normal;font-family:sans-serif;text-indent:0;text-align:start;text-decoration:none;text-decoration-line:none;text-decoration-style:solid;text-decoration-color:#000;letter-spacing:normal;word-spacing:normal;text-transform:none;direction:ltr;block-progression:tb;writing-mode:lr-tb;baseline-shift:baseline;text-anchor:start;white-space:normal;clip-rule:nonzero;display:inline;overflow:visible;visibility:visible;opacity:1;isolation:auto;mix-blend-mode:normal;color-interpolation:sRGB;color-interpolation-filters:linearRGB;solid-color:#000;solid-opacity:1;fill:#2a2a2a;fill-opacity:1;fill-rule:nonzero;stroke:none;stroke-width:1.00151086px;stroke-linecap:butt;stroke-linejoin:miter;stroke-miterlimit:4;stroke-dasharray:none;stroke-dashoffset:0;stroke-opacity:1;color-rendering:auto;image-rendering:auto;shape-rendering:auto;text-rendering:auto;enable-background:accumulate" d="M40.396 4.005c-3.735-.092-8.877-.608-13.105.418-1.416.122-.663.79.174.608 17.052-2.036 29.4 2.704 36.368 8.548.466.46.907.927 1.32 1.396 3.36 3.818 4.874 7.823 4.438 10.497-.219 1.338-.876 2.408-2.138 3.156-.516.305-1.162.529-1.886.694-1.187.174-2.575.188-4.22-.05l-.02-.002-.019-.005c-.889-.036-1.69.03-2.453.133-1.897.091-3.415.554-4.616 1.301-1.766 1.1-2.84 2.799-3.472 4.604-.422 1.207-.645 2.453-.784 3.634-.354 1.723-.506 3.385-.621 4.71l.28.038a3.646 3.646 0 0 1-.06.42l.916.367c.227-.905.187-2.18.284-3.738.03-.478.078-.98.135-1.489.292-1.42.72-2.855 1.4-4.132 1.19-2.232 3.133-4.022 6.506-4.499.861-.046 1.81-.016 2.877.121H61.713c1.657.149 3.074.056 4.265-.249.633-.111 1.23-.256 1.756-.467 1.64-.66 2.782-1.818 3.33-3.33.547-1.513.482-3.31-.103-5.161-.585-1.85-1.686-3.783-3.27-5.68-.984-1.18-2.165-2.343-3.52-3.464-5.427-5.248-12.939-8.113-23.775-8.38z" sodipodi:nodetypes="ccccsssccccccscccccccscccccsssccc"/></g></svg>