<?xml version="1.0" encoding="UTF-8" standalone="no"?>
<!-- Created with Inkscape (http://www.inkscape.org/) -->
<svg
   xmlns:dc="http://purl.org/dc/elements/1.1/"
   xmlns:cc="http://web.resource.org/cc/"
   xmlns:rdf="http://www.w3.org/1999/02/22-rdf-syntax-ns#"
   xmlns:svg="http://www.w3.org/2000/svg"
   xmlns="http://www.w3.org/2000/svg"
   xmlns:sodipodi="http://sodipodi.sourceforge.net/DTD/sodipodi-0.dtd"
   xmlns:inkscape="http://www.inkscape.org/namespaces/inkscape"
   width="100"
   height="100"
   id="svg14315"
   sodipodi:version="0.32"
   inkscape:version="0.44.1"
   version="1.0"
   sodipodi:docbase="/home/mat/Travaux/Inkscape/Gcompris/boardicons"
   sodipodi:docname="memory_sound_tux.svg">
  <defs
     id="defs14317" />
  <sodipodi:namedview
     id="base"
     pagecolor="#ffffff"
     bordercolor="#666666"
     borderopacity="1.0"
     inkscape:pageopacity="0.0"
     inkscape:pageshadow="2"
     inkscape:zoom="3.2057308"
     inkscape:cx="120.24206"
     inkscape:cy="50.201554"
     inkscape:document-units="px"
     inkscape:current-layer="layer1"
     width="100px"
     height="100px"
     inkscape:window-width="1091"
     inkscape:window-height="836"
     inkscape:window-x="49"
     inkscape:window-y="31" />
  <metadata
     id="metadata14320">
    <rdf:RDF>
      <cc:Work
         rdf:about="">
        <dc:format>image/svg+xml</dc:format>
        <dc:type
           rdf:resource="http://purl.org/dc/dcmitype/StillImage" />
      </cc:Work>
    </rdf:RDF>
  </metadata>
  <g
     inkscape:label="Calque 1"
     inkscape:groupmode="layer"
     id="layer1">
    <path
       style="fill:white;fill-opacity:1;fill-rule:evenodd;stroke:none;stroke-width:1px;stroke-linecap:butt;stroke-linejoin:miter;stroke-opacity:1"
       d="M 93.986661,34.888348 L 94.512674,49.908049 L 93.833549,61.195311 L 93.92958,70.550062 L 90.731041,76.253857 L 81.456528,75.803153 L 72.121573,75.49828 L 62.186833,76.175256 L 56.806818,75.803153 L 54.546879,69.986678 L 54.84048,55.23023 L 53.802351,39.229598 L 54.560784,23.960897 L 58.319444,19.423614 L 68.646711,18.437007 L 85.115073,18.505168 L 90.678791,19.203943 L 94.189789,24.518594 L 93.986661,34.888348 z "
       id="path12050"
       sodipodi:nodetypes="ccccccccccccccccccc" />
    <rect
       style="opacity:1;fill:#3acc2b;fill-opacity:1;fill-rule:evenodd;stroke:black;stroke-width:0.8382231;stroke-linecap:round;stroke-linejoin:round;stroke-miterlimit:4;stroke-dasharray:none;stroke-dashoffset:0;stroke-opacity:1"
       id="rect1878"
       width="39.796524"
       height="56.970261"
       x="7.4587278"
       y="19.26125"
       rx="4.0115757"
       ry="3.878212" />
    <path
       sodipodi:type="arc"
       style="opacity:1;fill:#aad400;fill-opacity:1;fill-rule:evenodd;stroke:none;stroke-width:3;stroke-linecap:round;stroke-linejoin:round;stroke-miterlimit:4;stroke-dasharray:none;stroke-dashoffset:0;stroke-opacity:1"
       id="path2910"
       sodipodi:cx="-31.541023"
       sodipodi:cy="49.618675"
       sodipodi:rx="18.542299"
       sodipodi:ry="18.542299"
       d="M -12.998724 49.618675 A 18.542299 18.542299 0 1 1  -50.083323,49.618675 A 18.542299 18.542299 0 1 1  -12.998724 49.618675 z"
       transform="matrix(0.232029,0,0,0.21884,24.00697,17.51625)" />
    <path
       sodipodi:type="arc"
       style="opacity:1;fill:#aad400;fill-opacity:1;fill-rule:evenodd;stroke:none;stroke-width:3;stroke-linecap:round;stroke-linejoin:round;stroke-miterlimit:4;stroke-dasharray:none;stroke-dashoffset:0;stroke-opacity:1"
       id="path2924"
       sodipodi:cx="-31.541023"
       sodipodi:cy="49.618675"
       sodipodi:rx="18.542299"
       sodipodi:ry="18.542299"
       d="M -12.998724 49.618675 A 18.542299 18.542299 0 1 1  -50.083323,49.618675 A 18.542299 18.542299 0 1 1  -12.998724 49.618675 z"
       transform="matrix(0.22161,0,0,0.21884,34.96029,17.51625)" />
    <path
       sodipodi:type="arc"
       style="opacity:1;fill:#aad400;fill-opacity:1;fill-rule:evenodd;stroke:none;stroke-width:3;stroke-linecap:round;stroke-linejoin:round;stroke-miterlimit:4;stroke-dasharray:none;stroke-dashoffset:0;stroke-opacity:1"
       id="path2926"
       sodipodi:cx="-31.541023"
       sodipodi:cy="49.618675"
       sodipodi:rx="18.542299"
       sodipodi:ry="18.542299"
       d="M -12.998724 49.618675 A 18.542299 18.542299 0 1 1  -50.083323,49.618675 A 18.542299 18.542299 0 1 1  -12.998724 49.618675 z"
       transform="matrix(0.220524,0,0,0.21884,46.19956,17.30706)" />
    <path
       sodipodi:type="arc"
       style="opacity:1;fill:#aad400;fill-opacity:1;fill-rule:evenodd;stroke:none;stroke-width:3;stroke-linecap:round;stroke-linejoin:round;stroke-miterlimit:4;stroke-dasharray:none;stroke-dashoffset:0;stroke-opacity:1"
       id="path2928"
       sodipodi:cx="-31.541023"
       sodipodi:cy="49.618675"
       sodipodi:rx="18.542299"
       sodipodi:ry="18.542299"
       d="M -12.998724 49.618675 A 18.542299 18.542299 0 1 1  -50.083323,49.618675 A 18.542299 18.542299 0 1 1  -12.998724 49.618675 z"
       transform="matrix(0.232029,0,0,0.21884,24.00697,29.78598)" />
    <path
       sodipodi:type="arc"
       style="opacity:1;fill:#aad400;fill-opacity:1;fill-rule:evenodd;stroke:none;stroke-width:3;stroke-linecap:round;stroke-linejoin:round;stroke-miterlimit:4;stroke-dasharray:none;stroke-dashoffset:0;stroke-opacity:1"
       id="path2930"
       sodipodi:cx="-31.541023"
       sodipodi:cy="49.618675"
       sodipodi:rx="18.542299"
       sodipodi:ry="18.542299"
       d="M -12.998724 49.618675 A 18.542299 18.542299 0 1 1  -50.083323,49.618675 A 18.542299 18.542299 0 1 1  -12.998724 49.618675 z"
       transform="matrix(0.232029,0,0,0.21884,35.267,29.79428)" />
    <path
       sodipodi:type="arc"
       style="opacity:1;fill:#aad400;fill-opacity:1;fill-rule:evenodd;stroke:none;stroke-width:3;stroke-linecap:round;stroke-linejoin:round;stroke-miterlimit:4;stroke-dasharray:none;stroke-dashoffset:0;stroke-opacity:1"
       id="path2932"
       sodipodi:cx="-31.541023"
       sodipodi:cy="49.618675"
       sodipodi:rx="18.542299"
       sodipodi:ry="18.542299"
       d="M -12.998724 49.618675 A 18.542299 18.542299 0 1 1  -50.083323,49.618675 A 18.542299 18.542299 0 1 1  -12.998724 49.618675 z"
       transform="matrix(0.232029,0,0,0.21884,46.51376,29.79633)" />
    <path
       sodipodi:type="arc"
       style="opacity:1;fill:#aad400;fill-opacity:1;fill-rule:evenodd;stroke:none;stroke-width:3;stroke-linecap:round;stroke-linejoin:round;stroke-miterlimit:4;stroke-dasharray:none;stroke-dashoffset:0;stroke-opacity:1"
       id="path2934"
       sodipodi:cx="-31.541023"
       sodipodi:cy="49.618675"
       sodipodi:rx="18.542299"
       sodipodi:ry="18.542299"
       d="M -12.998724 49.618675 A 18.542299 18.542299 0 1 1  -50.083323,49.618675 A 18.542299 18.542299 0 1 1  -12.998724 49.618675 z"
       transform="matrix(0.232029,0,0,0.21884,24.00697,42.28151)" />
    <path
       sodipodi:type="arc"
       style="opacity:1;fill:#aad400;fill-opacity:1;fill-rule:evenodd;stroke:none;stroke-width:3;stroke-linecap:round;stroke-linejoin:round;stroke-miterlimit:4;stroke-dasharray:none;stroke-dashoffset:0;stroke-opacity:1"
       id="path2936"
       sodipodi:cx="-31.541023"
       sodipodi:cy="49.618675"
       sodipodi:rx="18.542299"
       sodipodi:ry="18.542299"
       d="M -12.998724 49.618675 A 18.542299 18.542299 0 1 1  -50.083323,49.618675 A 18.542299 18.542299 0 1 1  -12.998724 49.618675 z"
       transform="matrix(0.232029,0,0,0.21884,35.37453,42.28151)" />
    <path
       sodipodi:type="arc"
       style="opacity:1;fill:#aad400;fill-opacity:1;fill-rule:evenodd;stroke:none;stroke-width:3;stroke-linecap:round;stroke-linejoin:round;stroke-miterlimit:4;stroke-dasharray:none;stroke-dashoffset:0;stroke-opacity:1"
       id="path2938"
       sodipodi:cx="-31.541023"
       sodipodi:cy="49.618675"
       sodipodi:rx="18.542299"
       sodipodi:ry="18.542299"
       d="M -12.998724 49.618675 A 18.542299 18.542299 0 1 1  -50.083323,49.618675 A 18.542299 18.542299 0 1 1  -12.998724 49.618675 z"
       transform="matrix(0.232029,0,0,0.21884,46.51376,42.26492)" />
    <path
       sodipodi:type="arc"
       style="opacity:1;fill:#aad400;fill-opacity:1;fill-rule:evenodd;stroke:none;stroke-width:3;stroke-linecap:round;stroke-linejoin:round;stroke-miterlimit:4;stroke-dasharray:none;stroke-dashoffset:0;stroke-opacity:1"
       id="path2940"
       sodipodi:cx="-31.541023"
       sodipodi:cy="49.618675"
       sodipodi:rx="18.542299"
       sodipodi:ry="18.542299"
       d="M -12.998724 49.618675 A 18.542299 18.542299 0 1 1  -50.083323,49.618675 A 18.542299 18.542299 0 1 1  -12.998724 49.618675 z"
       transform="matrix(0.232029,0,0,0.21884,24.00697,54.74383)" />
    <path
       sodipodi:type="arc"
       style="opacity:1;fill:#aad400;fill-opacity:1;fill-rule:evenodd;stroke:none;stroke-width:3;stroke-linecap:round;stroke-linejoin:round;stroke-miterlimit:4;stroke-dasharray:none;stroke-dashoffset:0;stroke-opacity:1"
       id="path2942"
       sodipodi:cx="-31.541023"
       sodipodi:cy="49.618675"
       sodipodi:rx="18.542299"
       sodipodi:ry="18.542299"
       d="M -12.998724 49.618675 A 18.542299 18.542299 0 1 1  -50.083323,49.618675 A 18.542299 18.542299 0 1 1  -12.998724 49.618675 z"
       transform="matrix(0.232029,0,0,0.21884,35.09573,54.76872)" />
    <path
       sodipodi:type="arc"
       style="opacity:1;fill:#aad400;fill-opacity:1;fill-rule:evenodd;stroke:none;stroke-width:3;stroke-linecap:round;stroke-linejoin:round;stroke-miterlimit:4;stroke-dasharray:none;stroke-dashoffset:0;stroke-opacity:1"
       id="path2944"
       sodipodi:cx="-31.541023"
       sodipodi:cy="49.618675"
       sodipodi:rx="18.542299"
       sodipodi:ry="18.542299"
       d="M -12.998724 49.618675 A 18.542299 18.542299 0 1 1  -50.083323,49.618675 A 18.542299 18.542299 0 1 1  -12.998724 49.618675 z"
       transform="matrix(0.232029,0,0,0.21884,46.62131,54.76872)" />
    <path
       style="fill:none;fill-opacity:0.75;fill-rule:evenodd;stroke:black;stroke-width:2.5;stroke-linecap:butt;stroke-linejoin:miter;stroke-miterlimit:4;stroke-dasharray:none;stroke-opacity:1"
       d="M 7.8978965,23.004677 L 7.8978965,32.576303 L 7.8978965,41.9829 L 7.8978965,52.87475 L 7.2377844,66.902132 L 7.7328685,72.018001 L 8.7230367,75.153534 L 13.50885,76.30873 L 32.81713,76.30873 L 43.874007,76.30873 L 46.679484,74.328394 L 47.504624,72.513085 L 47.83468,62.281348 L 47.339596,42.973068 L 47.83468,28.945686 L 47.174568,22.344565 L 45.689316,19.869144 L 44.039036,19.209032 L 34.137354,19.209032 L 23.57556,18.878976 L 15.324159,19.044004 L 10.373318,19.704116 L 8.2279526,20.859313 L 7.8978965,23.004677 z "
       id="path1970"
       sodipodi:nodetypes="cccccccccccccccccccccccc" />
    <path
       style="fill:none;fill-opacity:0.75;fill-rule:evenodd;stroke:black;stroke-width:2.5;stroke-linecap:butt;stroke-linejoin:miter;stroke-miterlimit:4;stroke-dasharray:none;stroke-opacity:1"
       d="M 54.518315,23.004677 L 54.518315,32.576303 L 54.188259,41.9829 L 54.188259,51.389498 L 53.858203,66.902132 L 54.353287,72.018001 L 55.343455,75.153534 L 60.129268,76.30873 L 79.437548,76.30873 L 90.494425,76.30873 L 93.299902,74.328394 L 94.125042,72.513085 L 94.455098,62.281348 L 94.125042,42.973068 L 94.455098,28.945686 L 93.794986,22.344565 L 92.309734,19.869144 L 90.659454,19.209032 L 80.757772,19.209032 L 70.195978,18.878976 L 61.944577,19.044004 L 56.993736,19.704116 L 54.848371,20.859313 L 54.518315,23.004677 z "
       id="path2857"
       sodipodi:nodetypes="cccccccccccccccccccccccc" />
    <g
       id="g19312"
       transform="matrix(7.638663e-2,0,0,0.226079,65.99331,73.02646)">
      <path
         style="fill:black;fill-opacity:1;fill-rule:evenodd;stroke:black;stroke-width:0.67233763pt;stroke-linecap:butt;stroke-linejoin:miter;stroke-opacity:1"
         id="path923"
         d="M 139.35084,-194.19481 L 299.01291,-226.18621 L 281.27268,-154.20557 L 281.27268,-218.18835 L 139.35084,-194.19481 z " />
      <path
         style="fill:black;fill-opacity:1;fill-rule:evenodd;stroke:black;stroke-width:0.67233763pt;stroke-linecap:butt;stroke-linejoin:miter;stroke-opacity:1"
         sodipodi:nodetypes="ccccccc"
         id="path925"
         d="M 263.53245,-202.19266 L 263.12165,-39.687838 L 246.54449,-39.562321 L 245.79222,-189.99908 L 15.169218,-154.20557 L 15.169218,-162.20342 L 263.53245,-202.19266 z " />
      <path
         style="fill:black;fill-opacity:1;fill-rule:evenodd;stroke:black;stroke-width:0.67233763pt;stroke-linecap:butt;stroke-linejoin:miter;stroke-opacity:1"
         id="path926"
         d="M 15.169218,-154.20557 L 15.169218,-90.222781 L 39.690351,-90.222781 L 40.411094,-158.48041 L 15.169218,-154.20557 z " />
      <path
         transform="matrix(1.208685,-0.258639,0.708745,0.551813,-509.8518,-243.2346)"
         style="fill:black;fill-opacity:1;fill-rule:evenodd;stroke:black;stroke-width:1pt;stroke-linecap:butt;stroke-linejoin:miter;stroke-opacity:1"
         sodipodi:type="arc"
         sodipodi:ry="30.590796"
         sodipodi:rx="56.143108"
         sodipodi:cy="376.12564"
         sodipodi:cx="174.90738"
         id="path928"
         d="M 231.05049 376.12564 A 56.143108 30.590796 0 1 1  118.76427,376.12564 A 56.143108 30.590796 0 1 1  231.05049 376.12564 z" />
      <path
         transform="matrix(1.81327,-0.692855,1.782482,0.155344,-1005.535,-24.98159)"
         style="fill:white;fill-opacity:1;fill-rule:evenodd;stroke:black;stroke-width:1pt;stroke-linecap:butt;stroke-linejoin:miter;stroke-opacity:1"
         sodipodi:type="arc"
         sodipodi:start="3.0700191"
         sodipodi:ry="20.153936"
         sodipodi:rx="21.953396"
         sodipodi:open="true"
         sodipodi:end="6.4104658"
         sodipodi:cy="375.76575"
         sodipodi:cx="165.19031"
         id="path930"
         d="M 143.29312,377.207 A 21.953396,20.153936 0 1 1 186.96612,378.32403" />
      <path
         transform="matrix(0.957127,-0.814485,2.39414,-0.273448,-1102.963,189.9041)"
         style="fill:black;fill-opacity:1;fill-rule:evenodd;stroke:black;stroke-width:1pt;stroke-linecap:butt;stroke-linejoin:miter;stroke-opacity:1"
         sodipodi:type="arc"
         sodipodi:start="4.4676779"
         sodipodi:ry="28.791338"
         sodipodi:rx="24.472637"
         sodipodi:open="true"
         sodipodi:end="6.2160926"
         sodipodi:cy="380.80423"
         sodipodi:cx="200.09979"
         id="path931"
         d="M 194.17066,352.87066 A 24.472637,28.791338 0 0 1 224.51737,378.87399" />
      <path
         style="fill:black;fill-opacity:1;fill-rule:evenodd;stroke:black;stroke-width:0.67233763pt;stroke-linecap:butt;stroke-linejoin:miter;stroke-opacity:1"
         id="path4658"
         d="M 41.131847,-130.21202 L 245.79222,-146.20772 L 245.79222,-141.90873 L 41.131847,-119.1633 L 41.131847,-130.21202 z " />
      <path
         style="fill:black;fill-opacity:1;fill-rule:evenodd;stroke:black;stroke-width:0.67233763pt;stroke-linecap:butt;stroke-linejoin:miter;stroke-opacity:1"
         id="path5281"
         d="M 39.690351,-154.20557 L 235.7333,-183.17546 L 235.01255,-150.03211 L 228.05199,-149.38223 L 228.05199,-154.20557 L 139.35084,-146.20772 L 157.09106,-162.20342 L 39.690351,-154.20557 z " />
      <path
         transform="matrix(1.264357,-0.298649,0.741389,0.637176,-311.9477,-219.5204)"
         style="fill:black;fill-opacity:1;fill-rule:evenodd;stroke:black;stroke-width:1pt;stroke-linecap:butt;stroke-linejoin:miter;stroke-opacity:1"
         sodipodi:type="arc"
         sodipodi:ry="30.590796"
         sodipodi:rx="56.143108"
         sodipodi:cy="376.12564"
         sodipodi:cx="174.90738"
         id="path6524"
         d="M 231.05049 376.12564 A 56.143108 30.590796 0 1 1  118.76427,376.12564 A 56.143108 30.590796 0 1 1  231.05049 376.12564 z" />
      <path
         transform="matrix(1.896791,-0.800034,1.864584,0.179374,-829.3275,33.0079)"
         style="fill:white;fill-opacity:1;fill-rule:evenodd;stroke:black;stroke-width:1pt;stroke-linecap:butt;stroke-linejoin:miter;stroke-opacity:1"
         sodipodi:type="arc"
         sodipodi:start="3.0700191"
         sodipodi:ry="20.153936"
         sodipodi:rx="21.953396"
         sodipodi:open="true"
         sodipodi:end="6.4104658"
         sodipodi:cy="375.76575"
         sodipodi:cx="165.19031"
         id="path6525"
         d="M 143.29312,377.207 A 21.953396,20.153936 0 1 1 186.96612,378.32403" />
      <path
         transform="matrix(1.001214,-0.94048,2.504414,-0.315749,-931.2437,281.1345)"
         style="fill:black;fill-opacity:1;fill-rule:evenodd;stroke:black;stroke-width:1pt;stroke-linecap:butt;stroke-linejoin:miter;stroke-opacity:1"
         sodipodi:type="arc"
         sodipodi:start="4.4676779"
         sodipodi:ry="28.791338"
         sodipodi:rx="24.472637"
         sodipodi:open="true"
         sodipodi:end="6.2160926"
         sodipodi:cy="380.80423"
         sodipodi:cx="200.09979"
         id="path6526"
         d="M 194.17066,352.87066 A 24.472637,28.791338 0 0 1 224.51737,378.87399" />
      <path
         transform="matrix(0.661259,0.342842,-0.772289,0.293688,338.3146,-333.0007)"
         style="fill:black;fill-opacity:1;fill-rule:evenodd;stroke:black;stroke-width:1pt;stroke-linecap:butt;stroke-linejoin:miter;stroke-opacity:1"
         sodipodi:type="arc"
         sodipodi:start="5.2106964"
         sodipodi:ry="66.939857"
         sodipodi:rx="55.423325"
         sodipodi:open="true"
         sodipodi:end="7.3963458"
         sodipodi:cy="536.99725"
         sodipodi:cx="444.10638"
         id="path6527"
         d="M 470.59538,478.19777 A 55.423325,66.939857 0 0 1 468.59399,597.04897" />
      <path
         transform="matrix(1.492101,0.2899,-1.267152,0.535786,187.5215,-444.9715)"
         style="fill:white;fill-opacity:1;fill-rule:evenodd;stroke:white;stroke-width:1pt;stroke-linecap:butt;stroke-linejoin:miter;stroke-opacity:1"
         sodipodi:type="arc"
         sodipodi:start="5.7273796"
         sodipodi:ry="66.939857"
         sodipodi:rx="55.423325"
         sodipodi:open="true"
         sodipodi:end="7.055892"
         sodipodi:cy="536.99725"
         sodipodi:cx="444.10638"
         id="path6528"
         d="M 491.18715,501.67792 A 55.423325,66.939857 0 0 1 483.7908,583.72635" />
      <path
         transform="matrix(-0.595957,-0.36637,0.823624,-0.263821,-237.2496,216.8936)"
         style="fill:black;fill-opacity:1;fill-rule:evenodd;stroke:black;stroke-width:1pt;stroke-linecap:butt;stroke-linejoin:miter;stroke-opacity:1"
         sodipodi:type="arc"
         sodipodi:start="5.2106964"
         sodipodi:ry="66.939857"
         sodipodi:rx="55.423325"
         sodipodi:open="true"
         sodipodi:end="7.3963458"
         sodipodi:cy="536.99725"
         sodipodi:cx="444.10638"
         id="path9014"
         d="M 470.59538,478.19777 A 55.423325,66.939857 0 0 1 468.59399,597.04897" />
      <path
         transform="matrix(-1.498492,-0.308584,1.350923,-0.482342,-71.88542,316.5152)"
         style="fill:white;fill-opacity:1;fill-rule:evenodd;stroke:white;stroke-width:1pt;stroke-linecap:butt;stroke-linejoin:miter;stroke-opacity:1"
         sodipodi:type="arc"
         sodipodi:start="5.7273796"
         sodipodi:ry="66.939857"
         sodipodi:rx="55.423325"
         sodipodi:open="true"
         sodipodi:end="7.055892"
         sodipodi:cy="536.99725"
         sodipodi:cx="444.10638"
         id="path9015"
         d="M 491.18715,501.67792 A 55.423325,66.939857 0 0 1 483.7908,583.72635" />
    </g>
    <g
       id="g4810"
       transform="translate(-0.404817,4.164076)">
      <path
         id="path22162"
         d="M 37.608686,70.358923 L 38.896946,63.917622 L 43.681912,59.316693 L 51.411473,56.372099 L 57.484699,59.868805 L 59.141034,64.837808 L 57.300662,73.11948 L 53.435882,78.824632 L 61.533517,77.720409 L 62.453703,81.033078 L 61.533517,88.210528 L 39.817132,87.290342 L 40.001169,78.824632 L 41.841541,77.168298 L 44.786135,75.511963 L 37.608686,70.358923 z "
         style="fill:#ff7bff;fill-opacity:1;fill-rule:evenodd;stroke:none;stroke-width:1px;stroke-linecap:butt;stroke-linejoin:miter;stroke-opacity:1" />
      <path
         style="font-size:37.95035934px;font-style:normal;font-variant:normal;font-weight:normal;font-stretch:normal;text-align:start;line-height:100%;writing-mode:lr-tb;text-anchor:start;fill:black;fill-opacity:1;stroke:none;stroke-width:1px;stroke-linecap:butt;stroke-linejoin:miter;stroke-opacity:1;font-family:Indigo Joker"
         d="M 64.209483,79.789999 C 64.209454,79.717413 64.196227,79.947279 64.169802,80.479597 C 64.143319,81.278084 64.116864,82.645183 64.090439,84.580899 C 64.037501,85.306791 63.958138,86.298845 63.85235,87.557065 C 63.852321,88.040988 63.746503,88.742686 63.534897,89.662156 C 63.455506,89.831525 62.754466,89.976705 61.431776,90.097693 C 60.373576,90.194473 59.447675,90.242865 58.654068,90.242872 L 45.162344,90.025104 C 45.082971,90.025097 44.871336,89.988803 44.527439,89.91622 C 44.183523,89.86782 43.958661,89.843623 43.852853,89.84363 C 43.085668,89.795231 42.305266,89.746838 41.511642,89.698452 C 40.506371,89.601659 39.739195,89.432284 39.210113,89.190326 C 38.681022,88.948356 38.416479,88.210364 38.416482,86.976349 C 38.416479,86.927953 38.45616,86.480319 38.535527,85.633445 C 38.64134,84.786568 38.707476,84.169558 38.733934,83.782415 C 38.786839,82.959737 38.826521,82.137057 38.852979,81.314376 C 38.932338,80.177145 39.1572,79.281877 39.527565,78.628568 C 39.527561,78.362412 39.633378,78.011564 39.845017,77.576022 C 40.030193,77.382456 40.360872,77.164688 40.837056,76.922717 C 41.313228,76.656563 41.63068,76.462991 41.789413,76.342002 C 41.366137,76.003259 40.532825,75.519331 39.289476,74.890214 C 38.151935,74.309508 37.345078,73.813482 36.868902,73.402131 C 36.154633,72.773034 35.797499,72.071337 35.7975,71.297039 C 35.797499,71.393837 35.863635,71.091381 35.995908,70.389672 C 36.181087,69.47022 36.68372,67.970041 37.503806,65.889129 C 38.350343,63.784056 39.739195,61.666867 41.670368,59.537556 C 43.733799,57.214722 45.664966,55.811328 47.463873,55.327371 C 47.781313,55.182221 48.244264,55.012846 48.852727,54.819245 C 49.540526,54.698292 50.387065,54.637801 51.392346,54.637772 C 53.535131,54.637801 55.492752,55.182221 57.265214,56.271034 C 59.037632,57.359901 60.161941,58.666508 60.638145,60.190861 C 61.087843,61.570081 61.312705,62.973476 61.312731,64.401046 C 61.312705,66.288388 60.8233,68.526559 59.844513,71.115566 C 58.971496,73.438436 58.045594,75.192678 57.066806,76.378297 C 57.066784,76.547679 57.212282,76.632366 57.503303,76.632359 C 57.609098,76.632366 58.363047,76.559777 59.765151,76.414591 C 61.193661,76.245223 61.960836,76.160536 62.066681,76.160529 C 62.59574,76.160536 62.966101,76.221027 63.177764,76.342002 C 63.495187,76.511384 63.75973,77.055804 63.971394,77.975264 C 64.130091,78.701162 64.209454,79.306073 64.209483,79.789999 M 61.471457,82.294332 C 61.471431,82.197548 61.43175,81.967682 61.352412,81.604734 C 61.299478,81.217592 61.259796,80.951432 61.233368,80.80625 C 61.180433,80.370717 61.021707,80.068261 60.75719,79.898883 C 60.519074,79.705315 60.082579,79.608529 59.447699,79.608525 L 50.439988,80.878839 C 49.937342,80.68527 49.686024,80.455404 49.686039,80.189241 C 49.686024,80.092458 50.148975,79.620627 51.074893,78.773747 C 52.159506,77.781698 52.900227,77.055804 53.29706,76.596065 C 53.693857,76.112143 54.183262,75.422545 54.765276,74.527267 C 55.744068,73.07549 56.418653,71.744685 56.789036,70.53485 C 56.947739,69.978345 57.119693,69.05888 57.304895,67.776453 C 57.490054,66.639236 57.582643,65.961736 57.582666,65.74395 C 57.582643,64.413163 57.278419,63.14285 56.669991,61.933007 C 55.902794,60.384456 54.818166,59.428696 53.416104,59.065725 C 52.701819,58.872178 51.736236,58.775392 50.519352,58.775368 C 50.36061,58.775392 49.910886,58.847982 49.17018,58.993136 C 48.429444,59.138339 48.032629,59.210928 47.979733,59.210904 C 46.313097,59.356107 44.52743,60.348161 42.622726,62.187069 C 40.74446,64.02602 39.752422,65.73187 39.64661,67.304622 C 39.620151,67.49821 39.514333,67.897451 39.329157,68.502347 C 39.143973,69.107273 39.051382,69.446023 39.051387,69.518599 C 39.051382,70.292898 39.104291,70.752631 39.210113,70.897798 C 39.739195,71.57531 40.479917,72.119731 41.432279,72.531059 C 42.252357,72.86982 43.072441,73.20857 43.892535,73.54731 C 43.971888,73.474731 44.051252,73.390044 44.130624,73.293247 C 44.421613,71.284953 44.659702,70.063032 44.844892,69.627483 C 45.426877,68.127317 45.955963,67.098968 46.432153,66.542433 C 47.119955,65.79236 48.059083,65.417316 49.249543,65.417297 C 50.439974,65.417316 51.312967,66.106914 51.868524,67.486096 C 52.238868,68.405577 52.424049,69.409729 52.424066,70.498556 C 52.424049,71.950355 52.172733,73.051293 51.670116,73.801373 C 51.458465,74.09174 50.678063,74.672455 49.328905,75.543519 C 48.720442,76.003259 47.807767,76.583974 46.590879,77.285664 C 45.664966,77.551832 44.368703,77.963171 42.702088,78.519684 C 42.463992,78.616475 42.212676,79.197189 41.948139,80.261829 C 41.683589,81.326476 41.551317,82.197548 41.551324,82.875048 L 41.551324,86.323044 C 41.842315,86.589203 42.159767,86.722283 42.50368,86.722286 C 42.556582,86.722283 43.019532,86.685988 43.892535,86.613402 C 44.765519,86.565005 45.347514,86.528711 45.638523,86.504518 C 46.29987,86.504515 47.252226,86.516613 48.495594,86.540812 C 49.871205,86.565005 50.479655,86.577105 50.320944,86.577107 C 52.437276,86.577105 55.916021,86.347237 60.75719,85.887508 C 60.968799,85.863309 61.140751,85.355184 61.273049,84.363131 C 61.405294,83.564647 61.471431,82.875049 61.471457,82.294332"
         id="text18346" />
    </g>
  </g>
</svg>
