<!--Created with Inkscape (http://www.inkscape.org/)--><svg xmlns:dc="http://purl.org/dc/elements/1.1/" xmlns:cc="http://creativecommons.org/ns#" xmlns:rdf="http://www.w3.org/1999/02/22-rdf-syntax-ns#" xmlns="http://www.w3.org/2000/svg" xmlns:xlink="http://www.w3.org/1999/xlink" xmlns:sodipodi="http://sodipodi.sourceforge.net/DTD/sodipodi-0.dtd" xmlns:inkscape="http://www.inkscape.org/namespaces/inkscape" sodipodi:docname="cross.svg" inkscape:export-filename="/datas/wiki/cross.png" viewBox="0 0 150 150" sodipodi:version="0.32" inkscape:export-xdpi="90.000000" version="1.0" inkscape:output_extension="org.inkscape.output.svg.inkscape" inkscape:export-ydpi="90.000000" inkscape:version="0.91 r13725" width="150" height="150"><defs><linearGradient id="a"><stop style="stop-color:#db4d0e;stop-opacity:1" offset="0.0000000"/><stop style="stop-color:#762907;stop-opacity:1" offset="1.0000000"/></linearGradient><linearGradient inkscape:collect="always" xlink:href="#a" id="b" x1="43.070263" y1="-43.535252" x2="43.070263" y2="18.303106" gradientUnits="userSpaceOnUse" gradientTransform="matrix(1.68874 0 0 1.68874 -1.43 -21.152)"/></defs><sodipodi:namedview bordercolor="#666666" inkscape:grid-points="true" inkscape:pageshadow="2" inkscape:window-y="0" pagecolor="#ffffff" inkscape:window-height="768" inkscape:grid-bbox="true" inkscape:zoom="1.4392362" inkscape:window-x="0" showgrid="false" borderopacity="1.0" inkscape:current-layer="layer1" inkscape:cx="58.092669" inkscape:cy="89.701501" showguides="false" inkscape:window-width="1366" inkscape:pageopacity="0.0" inkscape:document-units="px" inkscape:window-maximized="0"/><path inkscape:connector-curvature="0" d="M5.094-87.87a4.896 4.896 0 0 0 .34 6.62l39.967 39.966L5.435-1.318a4.897 4.897 0 0 0 0 6.956l21.719 21.723a4.897 4.897 0 0 0 6.96 0L74.08-12.605l39.966 39.966a4.895 4.895 0 0 0 6.956 0l21.724-21.723a4.895 4.895 0 0 0 0-6.956l-39.967-39.966 39.967-39.966a4.897 4.897 0 0 0 0-6.957l-21.724-21.723a4.897 4.897 0 0 0-6.956 0L74.08-69.964 34.114-109.93a4.897 4.897 0 0 0-6.96 0L5.434-88.207c-.12.108-.233.22-.34.337z" style="fill:#f07c49;fill-opacity:1;stroke:url(#b);stroke-width:4;stroke-miterlimit:4;stroke-dasharray:none;stroke-opacity:1" transform="translate(0 116)" inkscape:label="Calque 1" inkscape:groupmode="layer"/><metadata><rdf:RDF><cc:Work><dc:format>image/svg+xml</dc:format><dc:type rdf:resource="http://purl.org/dc/dcmitype/StillImage"/><dc:title/><dc:date>2015</dc:date><dc:creator><cc:Agent><dc:title>Timothée Giet</dc:title></cc:Agent></dc:creator><cc:license rdf:resource="http://creativecommons.org/licenses/by-sa/4.0/"/></cc:Work><cc:License rdf:about="http://creativecommons.org/licenses/by-sa/4.0/"><cc:permits rdf:resource="http://creativecommons.org/ns#Reproduction"/><cc:permits rdf:resource="http://creativecommons.org/ns#Distribution"/><cc:requires rdf:resource="http://creativecommons.org/ns#Notice"/><cc:requires rdf:resource="http://creativecommons.org/ns#Attribution"/><cc:permits rdf:resource="http://creativecommons.org/ns#DerivativeWorks"/><cc:requires rdf:resource="http://creativecommons.org/ns#ShareAlike"/></cc:License></rdf:RDF></metadata></svg>