<svg xmlns:dc="http://purl.org/dc/elements/1.1/" xmlns:cc="http://creativecommons.org/ns#" xmlns:rdf="http://www.w3.org/1999/02/22-rdf-syntax-ns#" xmlns="http://www.w3.org/2000/svg" xmlns:xlink="http://www.w3.org/1999/xlink" height="150" width="150" version="1.0" viewBox="0 0 150 150"><defs><linearGradient id="a"><stop offset="0.0000000" style="stop-color:#db4d0e;stop-opacity:1"/><stop offset="1.0000000" style="stop-color:#762907;stop-opacity:1"/></linearGradient><linearGradient gradientTransform="matrix(1.68621 0 0 1.6864 -.389 95.105)" gradientUnits="userSpaceOnUse" y2="18.303106" x2="43.070263" y1="-43.535252" x1="43.070263" id="b" xlink:href="#a"/></defs><path style="fill:#f07c49;fill-opacity:1;stroke:url(#b);stroke-width:5;stroke-miterlimit:4;stroke-dasharray:none;stroke-opacity:1" d="M6.125 28.48a4.889 4.89 0 0 0 .34 6.61L46.372 75 6.466 114.912a4.89 4.89 0 0 0 0 6.946l21.686 21.693a4.89 4.89 0 0 0 6.95 0l39.906-39.91 39.907 39.91a4.888 4.888 0 0 0 6.945 0l21.692-21.693a4.888 4.888 0 0 0 0-6.946l-39.908-39.91 39.908-39.911a4.89 4.89 0 0 0 0-6.947L121.86 6.45a4.89 4.89 0 0 0-6.945 0L75.008 46.36 35.102 6.45a4.89 4.89 0 0 0-6.95 0L6.465 28.143a4.91 4.91 0 0 0-.34.336z"/><metadata><rdf:RDF><cc:Work><dc:format>image/svg+xml</dc:format><dc:type rdf:resource="http://purl.org/dc/dcmitype/StillImage"/><dc:title/><dc:date>2015</dc:date><dc:creator><cc:Agent><dc:title>Timothée Giet</dc:title></cc:Agent></dc:creator><cc:license rdf:resource="http://creativecommons.org/licenses/by-sa/4.0/"/></cc:Work><cc:License rdf:about="http://creativecommons.org/licenses/by-sa/4.0/"><cc:permits rdf:resource="http://creativecommons.org/ns#Reproduction"/><cc:permits rdf:resource="http://creativecommons.org/ns#Distribution"/><cc:requires rdf:resource="http://creativecommons.org/ns#Notice"/><cc:requires rdf:resource="http://creativecommons.org/ns#Attribution"/><cc:permits rdf:resource="http://creativecommons.org/ns#DerivativeWorks"/><cc:requires rdf:resource="http://creativecommons.org/ns#ShareAlike"/></cc:License></rdf:RDF></metadata></svg>