<?xml version="1.0" encoding="UTF-8" standalone="no"?>
<!-- Created with Inkscape (http://www.inkscape.org/) -->

<svg
   xmlns:dc="http://purl.org/dc/elements/1.1/"
   xmlns:cc="http://creativecommons.org/ns#"
   xmlns:rdf="http://www.w3.org/1999/02/22-rdf-syntax-ns#"
   xmlns:svg="http://www.w3.org/2000/svg"
   xmlns="http://www.w3.org/2000/svg"
   xmlns:xlink="http://www.w3.org/1999/xlink"
   xmlns:sodipodi="http://sodipodi.sourceforge.net/DTD/sodipodi-0.dtd"
   xmlns:inkscape="http://www.inkscape.org/namespaces/inkscape"
   id="svg2"
   version="1.1"
   inkscape:version="0.91 r13725"
   width="109.99999"
   height="80"
   sodipodi:docname="score_1.svg">
  <metadata
     id="metadata8">
    <rdf:RDF>
      <cc:Work
         rdf:about="">
        <dc:format>image/svg+xml</dc:format>
        <dc:type
           rdf:resource="http://purl.org/dc/dcmitype/StillImage" />
        <dc:title />
      </cc:Work>
    </rdf:RDF>
  </metadata>
  <defs
     id="defs6">
    <linearGradient
       y2="463.47311"
       y1="183.48366"
       xlink:href="#linearGradient1702"
       x2="214.59154"
       x1="213.82799"
       inkscape:collect="always"
       id="linearGradient1078"
       gradientUnits="userSpaceOnUse"
       gradientTransform="matrix(1.5539,0,0,0.643542,-1.017928,0)" />
    <linearGradient
       y2="505.0845"
       y1="469.49918"
       xlink:href="#linearGradient1697"
       x2="522.94183"
       x1="522.94183"
       inkscape:collect="always"
       id="linearGradient1077"
       gradientUnits="userSpaceOnUse" />
    <linearGradient
       y2="466.2785"
       y1="506.28723"
       xlink:href="#linearGradient1697"
       x2="520.57166"
       x1="520.57166"
       inkscape:collect="always"
       id="linearGradient1076"
       gradientUnits="userSpaceOnUse" />
    <linearGradient
       y2="463.47311"
       y1="183.48366"
       xlink:href="#linearGradient1702"
       x2="214.59154"
       x1="213.82799"
       inkscape:collect="always"
       id="linearGradient1717"
       gradientUnits="userSpaceOnUse"
       gradientTransform="matrix(1.5539,0,0,0.643542,-1.017928,0)" />
    <linearGradient
       y2="505.0845"
       y1="469.49918"
       xlink:href="#linearGradient1697"
       x2="522.94183"
       x1="522.94183"
       inkscape:collect="always"
       id="linearGradient1710"
       gradientUnits="userSpaceOnUse" />
    <radialGradient
       xlink:href="#linearGradient1702"
       r="15.301119"
       inkscape:collect="always"
       id="radialGradient1706"
       gradientUnits="userSpaceOnUse"
       fy="473.03323"
       fx="522.89911"
       cy="481.86633"
       cx="522.89532" />
    <linearGradient
       y2="466.2785"
       y1="506.28723"
       xlink:href="#linearGradient1697"
       x2="520.57166"
       x1="520.57166"
       inkscape:collect="always"
       id="linearGradient1700"
       gradientUnits="userSpaceOnUse" />
    <linearGradient
       id="linearGradient1697">
      <stop
         style="stop-color:#69db0e;stop-opacity:1.0000000;"
         offset="0.0000000"
         id="stop1698" />
      <stop
         style="stop-color:#397607;stop-opacity:1.0000000;"
         offset="1.0000000"
         id="stop1699" />
    </linearGradient>
    <linearGradient
       id="linearGradient1702">
      <stop
         style="stop-color:#ffffff;stop-opacity:0.69072163;"
         offset="0.0000000"
         id="stop1703" />
      <stop
         style="stop-color:#ffffff;stop-opacity:0.0000000;"
         offset="1.0000000"
         id="stop1704" />
    </linearGradient>
    <linearGradient
       id="linearGradient1702-3">
      <stop
         style="stop-color:#ffffff;stop-opacity:0.69072163;"
         offset="0.0000000"
         id="stop1703-1" />
      <stop
         style="stop-color:#ffffff;stop-opacity:0.0000000;"
         offset="1.0000000"
         id="stop1704-8" />
    </linearGradient>
    <linearGradient
       inkscape:collect="always"
       xlink:href="#linearGradient1697-7"
       id="linearGradient4996"
       x1="57.142277"
       y1="74.461128"
       x2="57.739239"
       y2="-4.7337885"
       gradientUnits="userSpaceOnUse"
       gradientTransform="matrix(0.96292473,0,0,0.98546944,5.8295573,5.4967685)" />
    <linearGradient
       id="linearGradient1697-7">
      <stop
         style="stop-color:#db210e;stop-opacity:1.0000000;"
         offset="0.0000000"
         id="stop1698-7" />
      <stop
         style="stop-color:#761107;stop-opacity:1.0000000;"
         offset="1.0000000"
         id="stop1699-7" />
    </linearGradient>
    <linearGradient
       inkscape:collect="always"
       xlink:href="#linearGradient1697-7"
       id="linearGradient5004"
       x1="-5.4424672"
       y1="35.011974"
       x2="107.56975"
       y2="35.011974"
       gradientUnits="userSpaceOnUse"
       gradientTransform="matrix(0.96292473,0,0,0.98546944,5.8295573,5.4967685)" />
    <linearGradient
       id="linearGradient5112">
      <stop
         style="stop-color:#db210e;stop-opacity:1.0000000;"
         offset="0.0000000"
         id="stop5114" />
      <stop
         style="stop-color:#761107;stop-opacity:1.0000000;"
         offset="1.0000000"
         id="stop5116" />
    </linearGradient>
    <linearGradient
       inkscape:collect="always"
       xlink:href="#linearGradient1697"
       id="linearGradient5198"
       gradientUnits="userSpaceOnUse"
       gradientTransform="matrix(0.96292473,0,0,0.98546944,5.829549,5.4967685)"
       x1="57.142277"
       y1="74.461128"
       x2="57.739239"
       y2="-4.7337885" />
    <linearGradient
       inkscape:collect="always"
       xlink:href="#linearGradient1697"
       id="linearGradient5200"
       gradientUnits="userSpaceOnUse"
       gradientTransform="matrix(0.96292473,0,0,0.98546944,5.829549,5.4967685)"
       x1="-5.4424672"
       y1="35.011974"
       x2="107.56975"
       y2="35.011974" />
    <linearGradient
       inkscape:collect="always"
       xlink:href="#linearGradient1702-3"
       id="linearGradient5202"
       gradientUnits="userSpaceOnUse"
       gradientTransform="matrix(0.26630633,0,0,0.11287198,-0.79524104,-17.195664)"
       x1="213.82799"
       y1="232.68723"
       x2="214.59154"
       y2="463.47311" />
    <linearGradient
       id="linearGradient1483"
       y2="48.977001"
       gradientUnits="userSpaceOnUse"
       x2="40.305"
       gradientTransform="matrix(1.0159551,0,0,1.0046871,1.5809848,-0.26100899)"
       y1="13.746"
       x1="20.153"
       inkscape:collect="always">
      <stop
         id="stop1354"
         style="stop-color:#982007"
         offset="0" />
      <stop
         id="stop1356"
         style="stop-color:#510f02"
         offset="1" />
    </linearGradient>
    <linearGradient
       id="linearGradient1485"
       y2="46.762001"
       gradientUnits="userSpaceOnUse"
       x2="47.844002"
       gradientTransform="matrix(1.0159551,0,0,1.0046871,1.584869,-0.24620959)"
       y1="17.421"
       x1="18.504999"
       inkscape:collect="always">
      <stop
         id="stop1367"
         style="stop-color:#f1140c"
         offset="0" />
      <stop
         id="stop1370"
         style="stop-color:#8d1a02"
         offset="1" />
    </linearGradient>
    <linearGradient
       id="linearGradient1487"
       y2="46.762001"
       gradientUnits="userSpaceOnUse"
       x2="47.844002"
       gradientTransform="matrix(1.0159551,0,0,1.0046871,1.5809848,-0.26100899)"
       y1="17.421"
       x1="18.504999"
       inkscape:collect="always">
      <stop
         id="stop1380"
         style="stop-color:#ff8b8e"
         offset="0" />
      <stop
         id="stop1382"
         style="stop-color:#b42314;stop-opacity:.72241"
         offset="1" />
    </linearGradient>
  </defs>
  <sodipodi:namedview
     pagecolor="#ffffff"
     bordercolor="#666666"
     borderopacity="1"
     objecttolerance="10"
     gridtolerance="10"
     guidetolerance="10"
     inkscape:pageopacity="0"
     inkscape:pageshadow="2"
     inkscape:window-width="1366"
     inkscape:window-height="705"
     id="namedview4"
     showgrid="false"
     inkscape:zoom="3.3714286"
     inkscape:cx="96.188216"
     inkscape:cy="37.381642"
     inkscape:window-x="-8"
     inkscape:window-y="-8"
     inkscape:window-maximized="1"
     inkscape:current-layer="g1478"
     fit-margin-top="0"
     fit-margin-left="0"
     fit-margin-right="0"
     fit-margin-bottom="0" />
  <rect
     style="fill:url(#linearGradient5198);fill-opacity:1;stroke:url(#linearGradient5200);stroke-width:1.94826376;stroke-linecap:round;stroke-linejoin:round;stroke-miterlimit:4;stroke-opacity:1;stroke-dasharray:none;stroke-dashoffset:0"
     id="rect4922"
     width="108.05173"
     height="78.051735"
     x="0.97413188"
     y="0.97413188"
     ry="7.8686709" />
  <path
     style="opacity:0.9;fill:url(#linearGradient5202);fill-opacity:1;fill-rule:evenodd;stroke:none"
     sodipodi:nodetypes="cccccc"
     id="path1713-8"
     d="m 106.61628,28.298373 c 0.0889,-6.66154 1.13541,-21.0508673 -2.61074,-23.2698043 C 101.0512,2.1463502 17.132659,4.3440338 7.961459,4.2459808 2.074819,3.5633272 3.887469,22.684642 3.837989,27.426219 25.814379,21.636703 48.310051,21.116809 65.48302,26.2697 c 24.336165,6.045087 31.53911,4.599658 41.13326,2.028673 z"
     inkscape:connector-curvature="0"
     inkscape:transform-center-x="13.709435" />
  <g
     id="g1478"
     transform="matrix(1.3471061,0,0,1.3380121,-13.743072,-1.2274029)">
    <path
       inkscape:connector-curvature="0"
       id="path1349"
       style="fill:url(#linearGradient1483)"
       d="m 15.841965,19.700556 c -0.429541,0.512895 -0.3907,1.265292 0.09025,1.731869 L 26.506226,31.88916 15.932214,42.345896 c -0.245615,0.240632 -0.383845,0.568252 -0.383845,0.910559 0,0.341177 0.13823,0.668797 0.383845,0.909428 l 5.746249,5.683647 c 0.24333,0.242891 0.575767,0.379588 0.920771,0.379588 0.346146,0 0.67744,-0.136697 0.92077,-0.379588 L 34.094017,39.392795 44.668029,49.84953 c 0.24333,0.242891 0.574625,0.379588 0.919629,0.379588 0.346145,0 0.67744,-0.136697 0.92077,-0.379588 l 5.747392,-5.683647 c 0.245615,-0.240631 0.383845,-0.568251 0.383845,-0.909428 0,-0.342307 -0.13823,-0.669927 -0.383845,-0.910559 L 41.681807,31.88916 52.25582,21.432425 c 0.245615,-0.240632 0.383845,-0.568252 0.383845,-0.910559 0,-0.341177 -0.13823,-0.668797 -0.383845,-0.909428 l -5.747392,-5.683647 c -0.24333,-0.242891 -0.574625,-0.379588 -0.92077,-0.379588 -0.345004,0 -0.676299,0.136697 -0.919629,0.379588 L 34.094017,24.385526 23.520004,13.928791 c -0.24333,-0.242891 -0.574624,-0.379588 -0.92077,-0.379588 -0.345004,0 -0.677441,0.136697 -0.920771,0.379588 l -5.746249,5.683647 c -0.03199,0.02824 -0.06169,0.05762 -0.09025,0.08812 z" />
    <path
       inkscape:connector-curvature="0"
       id="path1468"
       style="fill:url(#linearGradient1485)"
       d="m 22.346764,14.883747 c -0.205631,0.0531 -0.390699,0.16381 -0.535783,0.317453 l -4.604996,4.553922 c -0.430683,0.430425 -0.430683,1.124076 0,1.553372 L 27.915942,31.899667 17.205985,42.49084 c -0.430683,0.430425 -0.430683,1.124076 0,1.553372 l 4.604996,4.555052 c 0.435253,0.425906 1.136683,0.425906 1.570794,0 L 34.091961,38.006961 44.801918,48.599264 c 0.435024,0.425906 1.135884,0.425906 1.570794,0 l 4.60591,-4.555052 c 0.430683,-0.429296 0.430683,-1.122947 0,-1.553372 L 40.268093,31.899667 50.978622,21.308494 c 0.430683,-0.429296 0.430683,-1.122947 0,-1.553372 L 46.372712,15.2012 c -0.43491,-0.425906 -1.13577,-0.425906 -1.570794,0 L 34.091961,25.792373 23.381775,15.2012 c -0.266179,-0.275653 -0.65802,-0.395404 -1.035011,-0.317453 z" />
    <path
       inkscape:connector-curvature="0"
       id="path1472"
       style="fill:url(#linearGradient1487)"
       d="m 22.489564,15.684383 c -0.04113,0.01582 -0.07768,0.03954 -0.107385,0.07117 l -4.604997,4.553922 c -0.03656,0.03954 -0.06169,0.08812 -0.07197,0.141216 -0.01828,0.05762 -0.01828,0.118621 0,0.176237 0.01599,0.04067 0.03998,0.07682 0.07197,0.106194 l 10.923586,10.803561 c 0.100531,0.09377 0.179356,0.223686 0.179356,0.352474 0,0.128789 -0.07882,0.258708 -0.179356,0.352475 L 17.777182,43.045196 c -0.03656,0.03954 -0.06169,0.08812 -0.07197,0.141216 -0.01828,0.05762 -0.01828,0.118621 0,0.176237 0.01599,0.04067 0.03998,0.07682 0.07197,0.106194 l 4.604997,4.553922 c 0.03998,0.03615 0.08911,0.06101 0.142799,0.07117 0.05826,0.01808 0.119952,0.01808 0.178214,0 0.04113,-0.01582 0.07768,-0.03954 0.107385,-0.07117 L 33.735305,37.220333 c 0.09482,-0.09942 0.226194,-0.177367 0.356427,-0.177367 0.130233,0 0.261609,0.07795 0.356427,0.177367 l 10.924728,10.802432 c 0.03998,0.03615 0.08911,0.06101 0.1428,0.07117 0.05826,0.01808 0.119951,0.01808 0.178213,0 0.04113,-0.01582 0.07768,-0.03954 0.107386,-0.07117 l 4.604996,-4.553922 c 0.03656,-0.03954 0.06169,-0.08812 0.07197,-0.141216 0.01828,-0.05762 0.01828,-0.118621 0,-0.176237 -0.01599,-0.04067 -0.03998,-0.07682 -0.07197,-0.106194 L 39.482696,32.241635 c -0.100531,-0.09377 -0.179356,-0.223686 -0.179356,-0.352475 0,-0.128788 0.07883,-0.258707 0.179356,-0.352474 L 50.406282,20.733125 c 0.03656,-0.03954 0.06169,-0.08812 0.07197,-0.141216 0.01828,-0.05762 0.01828,-0.118621 0,-0.176237 -0.01599,-0.04067 -0.03998,-0.07682 -0.07197,-0.106194 l -4.604996,-4.553922 c -0.03998,-0.03615 -0.08911,-0.061 -0.1428,-0.07117 -0.05826,-0.01808 -0.119951,-0.01808 -0.178214,0 -0.04113,0.01582 -0.07768,0.03954 -0.107385,0.07117 L 34.448159,26.557988 c -0.09482,0.09942 -0.226194,0.177367 -0.356427,0.177367 -0.130233,0 -0.261609,-0.07795 -0.356427,-0.177367 L 22.810577,15.755556 c -0.03998,-0.03615 -0.08911,-0.061 -0.1428,-0.07117 -0.05826,-0.01808 -0.119951,-0.01808 -0.178213,0 z" />
  </g>
</svg>
