<!--Created with Inkscape (http://www.inkscape.org/)--><svg xmlns:dc="http://purl.org/dc/elements/1.1/" xmlns:cc="http://creativecommons.org/ns#" xmlns:rdf="http://www.w3.org/1999/02/22-rdf-syntax-ns#" xmlns="http://www.w3.org/2000/svg" xmlns:xlink="http://www.w3.org/1999/xlink" xmlns:sodipodi="http://sodipodi.sourceforge.net/DTD/sodipodi-0.dtd" xmlns:inkscape="http://www.inkscape.org/namespaces/inkscape" width="1920" height="1248" inkscape:version="0.92.1 r15371" sodipodi:docname="background.svg" inkscape:export-filename="/home/timo/dessin/GCompriz/pics/GCompris-BallcatchB.png" inkscape:export-xdpi="90" inkscape:export-ydpi="90"><defs><linearGradient inkscape:collect="always" id="b"><stop style="stop-color:#daecf7;stop-opacity:1" offset="0"/><stop style="stop-color:#4ba2d6;stop-opacity:0" offset="1"/></linearGradient><linearGradient inkscape:collect="always" id="a"><stop style="stop-color:#3cc1f1;stop-opacity:1" offset="0"/><stop style="stop-color:#85d8f6;stop-opacity:1" offset="1"/></linearGradient><linearGradient inkscape:collect="always" xlink:href="#a" id="d" x1="924.36542" y1="0" x2="924.36542" y2="433.51501" gradientUnits="userSpaceOnUse"/><linearGradient id="c"><stop style="stop-color:#85d8f6;stop-opacity:1" offset="0"/><stop style="stop-color:#4ba2d6;stop-opacity:1" offset="1"/></linearGradient><linearGradient inkscape:collect="always" xlink:href="#b" id="f" x1="282.80676" y1="434.64371" x2="282.25974" y2="477.59787" gradientUnits="userSpaceOnUse" gradientTransform="translate(-962.918 -355.988)"/><linearGradient inkscape:collect="always" xlink:href="#c" id="e" gradientUnits="userSpaceOnUse" gradientTransform="translate(2)" x1="980.01361" y1="413.97043" x2="980.01361" y2="755.02301"/></defs><sodipodi:namedview pagecolor="#ffffff" bordercolor="#666666" borderopacity="1.0" inkscape:pageopacity="0.0" inkscape:pageshadow="2" inkscape:zoom="0.32862334" inkscape:cx="307.86209" inkscape:cy="445.33883" inkscape:document-units="px" inkscape:current-layer="g3041" showgrid="false" fit-margin-top="0" fit-margin-left="0" fit-margin-right="0" fit-margin-bottom="0" inkscape:window-width="1884" inkscape:window-height="1051" inkscape:window-x="0" inkscape:window-y="0" inkscape:window-maximized="1" showguides="true" inkscape:guide-bbox="true"><inkscape:grid type="xygrid" empspacing="5" visible="true" enabled="true" snapvisiblegridlinesonly="true"/><sodipodi:guide orientation="0,1" position="0,0" inkscape:locked="false"/><sodipodi:guide orientation="1,0" position="0,0" inkscape:locked="false"/><sodipodi:guide orientation="0,1" position="0,1248" inkscape:locked="false"/><sodipodi:guide orientation="1,0" position="1920,1248" inkscape:locked="false"/></sodipodi:namedview><metadata><rdf:RDF><cc:Work><dc:format>image/svg+xml</dc:format><dc:type rdf:resource="http://purl.org/dc/dcmitype/StillImage"/><dc:title/><dc:date>2015</dc:date><dc:creator><cc:Agent><dc:title>Timothée Giet</dc:title></cc:Agent></dc:creator><cc:license rdf:resource="http://creativecommons.org/licenses/by-sa/4.0/"/></cc:Work><cc:License rdf:about="http://creativecommons.org/licenses/by-sa/4.0/"><cc:permits rdf:resource="http://creativecommons.org/ns#Reproduction"/><cc:permits rdf:resource="http://creativecommons.org/ns#Distribution"/><cc:requires rdf:resource="http://creativecommons.org/ns#Notice"/><cc:requires rdf:resource="http://creativecommons.org/ns#Attribution"/><cc:permits rdf:resource="http://creativecommons.org/ns#DerivativeWorks"/><cc:requires rdf:resource="http://creativecommons.org/ns#ShareAlike"/></cc:License></rdf:RDF></metadata><g inkscape:groupmode="layer" inkscape:label="BG" style="display:inline"><rect style="color:#000;display:inline;overflow:visible;visibility:visible;opacity:1;fill:url(#d);fill-opacity:1;fill-rule:nonzero;stroke:none;stroke-width:.5;marker:none;enable-background:accumulate" width="1920" height="1248"/><path sodipodi:nodetypes="csssssssssssscc" inkscape:connector-curvature="0" d="M2085.43 181.284c39.881-71.593 81.213-107.902 88.475-119.994 9.418-15.683 37.98-53.15 44.3-65.16 4.545-8.64 39.88-21.398 51.968-29.764 8.57-5.931 36.384-65.16 49.575-71.455 8.978-4.284 28.643-50.935 36.998-47.158 6.964 3.147 28.144 49.136 39.268 53.343 14.602 5.522 20.691 28.268 31.66 34.07 11.038 5.841 37.33 10.196 46.553 12.55 9.672 2.468 15.14 15.365 21.214 22.046 6.074 6.682 5.614 5.826 18.806 22.447 13.191 16.622 29.635 81.174 46.998 97.023 17.364 15.848 36.2 62.178 32.826 87.966-3.375 25.788-510.114 10.215-510.114 10.215z" style="fill:#bbd9f0;fill-opacity:1;stroke:none" transform="translate(-857.872 757.976)"/><path sodipodi:nodetypes="cccsssccssccsccscscsccccsscsc" inkscape:connector-curvature="0" d="M2328.495-109.126c-1.499-.032-3.259.313-5.156.907-1.315 1.523-2.54 2.621-3.594 3.125-13.192 6.295-40.993 65.537-49.563 71.468-12.087 8.366-47.422 21.11-51.968 29.75-6.32 12.01-34.895 49.474-44.313 65.157-7.262 12.091-48.587 48.406-88.469 120l-1.468 6.125s506.719 15.569 510.093-10.22c3.375-25.787-15.449-72.12-32.812-87.968-17.364-15.848-33.809-80.379-47-97-10.046-8.974-12.17-21.653-21.87-25.205-9.906-7.013-16.537-10.32-25.756-10.496-9.22-.176-9.397 3.968-12.494 8.152-43.851-17.609-35.201 5.286-47.128-.014-7.057-6.245-21.153 22.701-20.3 19.805 1.567-5.329 4.438-11.913 8.648-20.425 9.093-5.52 21.045-13.717 30.914-16.692 4.912-1.481 5.812-6.025 9.318-7.014 2.785-2.584-1.972-2.306-6.832-6.423-2.42-2.05-5.828-3.624-8.156-6.844-5.174-4.142-8.842-5.064-9.47 1.263-3.94-5.873-1.798-8.706-7.185-11.526-2.863-1.328-19.468 2.46-22.158-.8-2.69-3.26-18.159-18.971-26.25-15.906-8.091 3.065-19.41 31.868-19.062 25.094.347-6.775-.375-27.71-4.063-32.688-.807-1.089-2.187-1.587-3.906-1.625z" style="fill:#83a5c0;fill-opacity:1;stroke:none" transform="translate(-857.872 757.976)"/><path sodipodi:nodetypes="ccscsssssc" inkscape:connector-curvature="0" d="M2713.575 41.26c-3.374-1.904-68.596-38.101-75.406-41.635-3.221-2.513-85.818 1.464-93.133 3.93-6.063 2.043-22.691-6.436-33.655-13.245-13.653 4.995-43.968 27.116-57.403 30.989-13.442 3.875-56.972-10.5-63.718-4.114-7.496 7.097-53.81 64-58.626 74.63-4.816 10.63-40.74 57.623-30.77 64.415 9.97 6.792 394.212 25.042 402.311 21.59 8.1-3.45 10.4-136.56 10.4-136.56z" style="fill:#6e95ad;fill-opacity:1;stroke:none" transform="translate(-857.872 757.976)"/><path sodipodi:nodetypes="ccsssssssc" inkscape:connector-curvature="0" d="M2713.575 41.26c-3.374-1.904-68.596-38.101-75.406-41.635-3.221-2.513-58.55-52.771-65.866-50.306-6.062 2.043-47.49 37.743-60.926 43.293-13.437 5.55-43.596 29.231-57.03 33.104-13.443 3.875-56.973-10.5-63.719-4.114-7.496 7.097-53.81 64-58.626 74.63-4.816 10.63-40.74 57.623-30.77 64.415 9.97 6.792 393.844 20.625 401.943 17.174 8.1-3.451 10.4-136.56 10.4-136.56z" style="fill:#bbd9f0;fill-opacity:1;stroke:none" transform="translate(-857.872 757.976)"/><path sodipodi:nodetypes="ccsccscccssssssccccc" inkscape:connector-curvature="0" d="M2590.618-24.52c-9.312-3.46-24.352 21.783-28.116 27.456 0 0 4.325-21.049-3.159-22.24-7.484-1.19-11.031 3.813-11.031 3.813l.062-4.688s-7.646.647-12.344 3.97c-4.252 3.006-6.719 3.124-6.719 3.124s3.29 3.223 2.183-2.322c1.471.102 4.184-6.796-1.406-3.937-7.666 5.62-14.55 10.246-18.719 11.968-13.437 5.55-43.596 29.221-57.031 33.094-13.442 3.875-56.973-10.511-63.719-4.125-7.496 7.097-53.808 63.995-58.625 74.625-4.816 10.63-40.72 57.645-30.75 64.438 9.97 6.792 393.135 17.28 401.938 17.156 135.905-1.93 98.653-103.09 98.653-103.09-3.375-1.905-156.843-71.564-163.653-75.098-.947-.738-9.968-6.566-17.372-13-19.337-14.83-29.498-17.334-30.192-11.145z" style="fill:#83a5c0;fill-opacity:1;stroke:none" transform="translate(-857.872 757.976)"/><path sodipodi:nodetypes="cccccccccccccccccccccccccsccccccccccccc" inkscape:connector-curvature="0" d="M2597.588 31.687c-.473.01-.96.047-1.437.094-15.342 2.089-25.199 13.635-35.5 22.343 18.776 15.034-11.114 6.382-18.25 19.907-15.528 13.161-30.195 10.733-48.5 14.375-2.927 8.962 25.122 10.815 4.781 11.562-8.55-3.032-38.443-23.374-44.469-2.812.92 5.474-11.786-30.424-28.937-24.75-23.774-7.156-36.646 25.179-57.25 8.062-15.287 9.646-29.492 7.479-48.063 4.406 35.89-16.602-20.977-16.397-19.812-20 3.381-30.846-40.746-28.39-53.281-12.5-11.952.932-46.371 7.572-25.688 20.5-21.265 3.486-15.847 35.01-41.031 25.5-4.5-.505-20.825-17.02-27.219-.218-10.587-7.668-14.617-6.201-24.75-20.344-21.699-12.046-37.737 10.322-38.25 27.906-17.942 2.79-6.51 30.047-20.844 9.531-24.4-17.424-50.702 13.609-36.937 23.594-18.471 8.535 16.492 22.878 28.125 18.75 64.483 6.972 744.981 11.871 756.916-4.625 54.688-87.619-29.955-69.844-69.01-59.594-26.435-.032-46.762-18.922-74.375-13.687-19.34-5.948-31.932 33.48-36.031 5.687-20.865-4.544-16.061-19.729-31.938-30.406 19.391-7.126 6.436-23.6-8.25-23.281zm-285.78 53.812c.201.003.498.105.937.375-.74 1.501-1.812-.386-.938-.375zm-161.095 4.22c-1.517 2.426 1.517 2.427 0 0zm402.844 5.468c2.028.017-.677.966 0 0zm-75.125 3.937c13.002 8.61-24.453 11.052-20.469 10.47 12.095-9.576-3.88-8.679 20.47-10.47zm-301.25 4.97c10.183 1.705-4.624 7.86 0 0z" style="color:#000;display:inline;overflow:visible;visibility:visible;fill:#67be5f;fill-opacity:1;fill-rule:nonzero;stroke:none;stroke-width:.5;marker:none;enable-background:accumulate" transform="translate(-857.872 757.976)"/></g><g inkscape:groupmode="layer" inkscape:label="boatB" style="display:inline"><path sodipodi:nodetypes="cssccc" inkscape:connector-curvature="0" d="M-167.634 45.694s29.27 1.086 29.27.352c0-.733 2.108-49.945-.916-51.298-3.023-1.354-26.263-2.22-27.375-.092-1.112 2.13-.979 51.038-.979 51.038z" style="fill:#8db4c7;fill-opacity:1;stroke:none" transform="translate(1050.456 812.432)"/><path sodipodi:nodetypes="csscc" inkscape:connector-curvature="0" d="M-199.068 51.832s27.07 1.396 27.07.663c0-.734 2.107-49.945-.916-51.299-3.024-1.353-24.062-2.53-25.174-.402-1.113 2.13-.98 51.038-.98 51.038z" style="fill:#8db4c8;fill-opacity:1;stroke:none" transform="translate(1050.456 812.432)"/><path inkscape:connector-curvature="0" d="M-246.11 40.072c1.284-.662 71.018 1.05 71.018 1.05s2.365-31.15 0-32.786c-2.365-1.636-64.51-3.779-67.134-2.242-2.624 1.537-3.885 33.978-3.885 33.978z" style="fill:#90b8cb;fill-opacity:1;stroke:none" transform="translate(1050.456 812.432)"/><path sodipodi:nodetypes="ccccc" inkscape:connector-curvature="0" d="M-203.992 43.445c2.24 1.403 50.905 5.202 53.81 3.567 2.907-1.635 3.651-25.42.878-26.59-2.773-1.17-49.855-4.963-52.604-2.094-1.42 2.897-5.028 26.3-2.084 25.117z" style="fill:#96b9cc;fill-opacity:1;stroke:none" transform="translate(1050.456 812.432)"/><path inkscape:connector-curvature="0" d="M-342.885 41.867c3.242 1.403 56.638 1.58 58.948.226 2.311-1.354 6.314-20.169 2.687-22.058-3.626-1.89-54.476-1.438-58.299.818-3.822 2.256-3.336 21.014-3.336 21.014z" style="fill:#96bcc9;fill-opacity:1;stroke:none" transform="translate(1050.456 812.432)"/><path sodipodi:nodetypes="csssc" inkscape:connector-curvature="0" d="M-118.535 72.845c3.43-.409 13.042-29.541 7.394-36.756-4.356-5.564-250.2-5.006-259.175-.493-2.51 1.262 1.613 7.444 5.506 11.935 5.087 5.868 246.275 25.314 246.275 25.314z" style="fill:#9bbccd;fill-opacity:1;stroke:none" transform="translate(1050.456 812.432)"/><path sodipodi:nodetypes="csssc" inkscape:connector-curvature="0" d="M-124.511 95.544c3.43-.409 18.634-42.3 12.986-49.515-4.356-5.564-242.455-6.864-253.355-.705-4.972 2.809 20.835 51.01 28.558 51.827 7.723.818 211.81-1.607 211.81-1.607z" style="fill:#8db4c6;fill-opacity:1;stroke:none" transform="translate(1050.456 812.432)"/></g><g inkscape:groupmode="layer" inkscape:label="seaFX" style="display:inline"><path sodipodi:nodetypes="cczzzc" inkscape:connector-curvature="0" d="M-173.432 572.772h2236.075c110.822 18.625 164.764 255.903-4.121 205.087-168.885-50.817-397.957-104.757-693.917-104.757-295.96 0-1382.605 228.698-1558.037 85.407-175.433-143.29 20-185.737 20-185.737z" style="opacity:.5;color:#000;fill:#e1f1fb;fill-opacity:1;fill-rule:nonzero;stroke:none;stroke-width:.5;marker:none;visibility:visible;display:inline;overflow:visible;enable-background:accumulate" transform="matrix(1 0 0 1.10086 -46.687 429.47)"/><path sodipodi:nodetypes="cczzzc" inkscape:connector-curvature="0" d="M-173.432 412.772h2236.075c110.822 18.007 72.929 465.69-95.956 416.56-168.885-49.132-312.208-19.839-608.168-19.839S-18 864.295-193.432 725.754c-175.433-138.54 20-312.982 20-312.982z" style="color:#000;display:inline;overflow:visible;visibility:visible;fill:#4ba2d6;fill-opacity:1;fill-rule:nonzero;stroke:none;stroke-width:.5;marker:none;enable-background:accumulate" transform="matrix(1 0 0 1.10086 -46.687 429.47)"/><path sodipodi:nodetypes="cczzzc" inkscape:connector-curvature="0" d="M-173.432 410.772h2236.075c110.822 18.007 139.756 475.984-29.129 426.852-168.885-49.132-372.95-17.074-668.909-17.074-295.96 0-1382.605 43.745-1558.037-94.796-175.433-138.54 20-314.982 20-314.982z" style="color:#000;display:inline;overflow:visible;visibility:visible;opacity:.51449274;fill:url(#e);fill-opacity:1;fill-rule:nonzero;stroke:none;stroke-width:.5;marker:none;filter:url(#filter4643-7);enable-background:accumulate" transform="matrix(1 0 0 1.10086 -46.687 429.47)"/></g><g inkscape:groupmode="layer" inkscape:label="boatA" style="display:inline;opacity:1"><path sodipodi:nodetypes="ccccc" inkscape:connector-curvature="0" d="m-648.608-165.865 6.485-.536c-8.595 27.134-29.041 140.161-34.558 217.01l-11.153-2.144c7.624-75.838 23.259-156.67 39.226-214.33z" style="fill:#ac8e6e;fill-opacity:1;stroke:none" transform="translate(960 811.185)"/><path sodipodi:nodetypes="ccccc" inkscape:connector-curvature="0" d="m-713.87-123.822 133.312-26.873c-7.704 67.224-2.424 129.377 30.767 180.634l-206.814 9.757c-14.458-49.98 22.735-133.187 42.735-163.518z" style="fill:#e0edf4;fill-opacity:1;stroke:none" transform="translate(960 811.185)"/><path sodipodi:nodetypes="cssssc" inkscape:connector-curvature="0" d="M-573.03 107.443c4.12-8.972 23.987-26.568 22.014-33.88-3.218-11.927-252.736-66.602-279.87-56.27-4.91 1.87-6.662 10.52-2.999 15.14 2.332 2.942 111.715 42.034 159.558 44.03 47.842 1.997 101.296 30.98 101.296 30.98z" style="fill:#c7ab8e;fill-opacity:1;stroke:none" transform="translate(960 811.185)"/><path sodipodi:nodetypes="cssscc" inkscape:connector-curvature="0" d="M-573.03 107.443c4.12-8.972 19.64-19.005 17.667-26.317-3.218-11.927-244.573-65.121-277.37-55.241-16.697 5.029 56.03 72.644 64.613 73.065 39.453 1.932 37.875-13.308 89.739-9.347 6.17 10.47 105.35 17.84 105.35 17.84z" style="fill:#ac8e6e;fill-opacity:1;stroke:none" transform="translate(960 811.185)"/><path sodipodi:nodetypes="csssscc" inkscape:connector-curvature="0" d="M-573.03 107.443c4.12-8.972 26.967 15.426 16.123 9.848-10.535-5.42-108.854 60.631-173.11 55.028-64.254-5.604-70.057-60.028-78.436-58.232-17.05 3.655 30.815-15.67 39.27-17.211 39.275-7.16 49.483-15.42 101.347-11.46 5.553 10.015 73.036 5.88 94.805 22.027z" style="fill:url(#f);fill-opacity:1;stroke:none;filter:url(#filter4643-7)" transform="translate(960 811.185)"/></g></svg>