<?xml version="1.0" encoding="UTF-8" standalone="no"?>
<!-- Created with Inkscape (http://www.inkscape.org/) -->

<svg
   xmlns:dc="http://purl.org/dc/elements/1.1/"
   xmlns:cc="http://creativecommons.org/ns#"
   xmlns:rdf="http://www.w3.org/1999/02/22-rdf-syntax-ns#"
   xmlns:svg="http://www.w3.org/2000/svg"
   xmlns="http://www.w3.org/2000/svg"
   xmlns:sodipodi="http://sodipodi.sourceforge.net/DTD/sodipodi-0.dtd"
   xmlns:inkscape="http://www.inkscape.org/namespaces/inkscape"
   width="100"
   height="100"
   id="svg2"
   sodipodi:version="0.32"
   inkscape:version="0.92.1 r15371"
   version="1.0"
   sodipodi:docname="explore_farm_animals.svg">
  <defs
     id="defs4" />
  <sodipodi:namedview
     id="base"
     pagecolor="#ffffff"
     bordercolor="#666666"
     borderopacity="1.0"
     inkscape:pageopacity="0.0"
     inkscape:pageshadow="2"
     inkscape:zoom="8"
     inkscape:cx="57.392544"
     inkscape:cy="44.856001"
     inkscape:document-units="px"
     inkscape:current-layer="layer1"
     width="100px"
     height="100px"
     showguides="true"
     inkscape:guide-bbox="true"
     inkscape:window-width="1884"
     inkscape:window-height="1051"
     inkscape:window-x="0"
     inkscape:window-y="0"
     showgrid="false"
     inkscape:window-maximized="1"
     inkscape:snap-global="false">
    <inkscape:grid
       type="xygrid"
       id="grid948" />
  </sodipodi:namedview>
  <metadata
     id="metadata7">
    <rdf:RDF>
      <cc:Work
         rdf:about="">
        <dc:format>image/svg+xml</dc:format>
        <dc:type
           rdf:resource="http://purl.org/dc/dcmitype/StillImage" />
        <dc:title></dc:title>
        <dc:date>2017</dc:date>
        <dc:creator>
          <cc:Agent>
            <dc:title>Timothée Giet</dc:title>
          </cc:Agent>
        </dc:creator>
        <cc:license
           rdf:resource="http://creativecommons.org/licenses/by-sa/4.0/" />
      </cc:Work>
      <cc:License
         rdf:about="http://creativecommons.org/licenses/by-sa/4.0/">
        <cc:permits
           rdf:resource="http://creativecommons.org/ns#Reproduction" />
        <cc:permits
           rdf:resource="http://creativecommons.org/ns#Distribution" />
        <cc:requires
           rdf:resource="http://creativecommons.org/ns#Notice" />
        <cc:requires
           rdf:resource="http://creativecommons.org/ns#Attribution" />
        <cc:permits
           rdf:resource="http://creativecommons.org/ns#DerivativeWorks" />
        <cc:requires
           rdf:resource="http://creativecommons.org/ns#ShareAlike" />
      </cc:License>
    </rdf:RDF>
  </metadata>
  <g
     inkscape:label="Calque 1"
     inkscape:groupmode="layer"
     id="layer1">
    <g
       id="g2231"
       transform="translate(-40)">
      <path
         id="path105-2-8"
         d="m 117.10582,87.72116 c -0.0136,-0.0054 -0.0275,-0.0065 -0.0409,-0.01208 0.008,-0.01119 0.0183,-0.0206 0.0271,-0.03065 0.003,0.01454 0.01,0.02864 0.0139,0.04273 z"
         inkscape:connector-curvature="0"
         style="opacity:0.38100011;fill:none;stroke-width:0.22374198" />
      <path
         id="path113-7-9"
         d="m 123.33972,88.248297 c 0.21344,0.381032 -0.10449,0.614843 -0.47232,0.672567 0.0479,-0.01096 0.0969,-0.02259 0.147,-0.03781 0.34702,-0.10874 0.40139,-0.363581 0.32532,-0.634756 z"
         inkscape:connector-curvature="0"
         style="opacity:0.38100011;fill:none;stroke-width:0.22374198" />
      <path
         style="overflow:visible;fill:#a65828;fill-opacity:1;stroke:none;stroke-width:1.27506578px;stroke-linecap:butt;stroke-linejoin:miter;stroke-opacity:1"
         d="m 120.17835,86.858298 c -1.01096,-0.300856 -3.00596,-0.249574 -3.17271,0.606768 -0.16675,0.856339 1.17227,0.971046 2.13023,0.632941 0.95796,-0.338104 1.04248,-1.239709 1.04248,-1.239709 z"
         id="path1028-5-3-0-7"
         inkscape:connector-curvature="0"
         sodipodi:nodetypes="czcc" />
      <path
         sodipodi:nodetypes="ccccc"
         id="path117-9-3"
         d="m 124.52798,85.63153 c -0.022,0.07913 -0.0406,0.152399 -0.0563,0.223473 -0.022,-0.08646 -0.0497,-0.168766 -0.0886,-0.245699 0.0485,0.0093 0.0969,0.01292 0.14496,0.02224 z"
         inkscape:connector-curvature="0"
         style="opacity:0.38100011;fill:none;stroke-width:0.22489262" />
      <path
         id="path119-3-6"
         d="m 129.26284,88.417669 c 0.005,7.03e-4 0.0123,7.03e-4 0.0168,0.0021 0.0161,0.0707 0.009,0.144091 -0.0271,0.219041 0.0163,-0.0631 0.0233,-0.134244 0.0103,-0.221057 z"
         inkscape:connector-curvature="0"
         style="opacity:0.38100011;fill:none;stroke-width:0.22374198" />
      <path
         id="path159-6-1"
         d="m 132.24705,68.28818 c 0.0829,-0.02018 0.0686,-0.01662 0,0 z"
         inkscape:connector-curvature="0"
         style="opacity:0.38100011;fill:#ffb442;stroke-width:0.23994653" />
      <path
         style="overflow:visible;fill:#d96920;fill-opacity:1;stroke:none;stroke-width:1px;stroke-linecap:butt;stroke-linejoin:miter;stroke-opacity:1"
         d="m 119.8346,86.993033 c -0.79287,-0.235953 -2.3575,-0.195733 -2.48827,0.475872 -0.13078,0.671605 0.91938,0.761567 1.67068,0.496399 0.7513,-0.265165 0.81759,-0.972271 0.81759,-0.972271 z"
         id="path1028-56-0-2"
         inkscape:connector-curvature="0"
         sodipodi:nodetypes="czcc" />
      <path
         style="overflow:visible;fill:#a65828;fill-opacity:1;stroke:none;stroke-width:1.15097761px;stroke-linecap:butt;stroke-linejoin:miter;stroke-opacity:1"
         d="m 120.04534,85.01134 0.46784,1.418613 c 0,0 -3.69484,0.964269 -3.40895,1.934896 0.2859,0.97063 1.69434,0.613496 1.69434,0.613496 0,0 -0.33788,0.771528 0.67575,0.871079 1.01363,0.09955 2.1832,-1.194619 2.4691,-1.319059 0.2859,-0.124439 1.29953,-0.39821 1.27354,-0.671977 -0.026,-0.273766 -0.5718,-0.871076 -0.5718,-1.119957 0,-0.248881 0.31189,-2.19014 0.31189,-2.19014 z"
         id="path1026-7-2-6-1"
         inkscape:connector-curvature="0"
         sodipodi:nodetypes="cccccccscc" />
      <path
         id="path227-6-9"
         d="m 129.25254,88.638726 c -0.032,0.06623 -0.083,0.134693 -0.16668,0.204053 -0.30049,0.250592 -1.11782,-0.03513 -1.41405,-0.229784 -0.36067,-0.237613 -0.4448,-0.635203 -0.74663,-0.894743 -0.12194,-0.105607 -0.27923,0.02149 -0.33158,-0.0089 -0.10494,-0.06175 -0.53027,-0.432494 -0.53027,-0.536085 0,-0.35329 0.32151,-0.598511 0.30048,-1.005496 -0.0696,-0.05616 -0.12059,-0.151475 -0.17698,-0.221729 0.44279,-0.07607 0.8849,-0.152593 1.32612,-0.230456 -0.11276,0.488207 -0.0707,0.900116 0.441,0.911079 0.58754,0.01276 1.18963,0.155276 1.73355,0.37365 0.30049,0.120148 1.28741,0.514606 1.09589,1.001692 -0.15595,0.397365 -0.93121,0.103591 -1.16682,0.133127 -0.16445,-0.524453 -0.77123,-0.86275 -1.27219,-0.992075 -0.44011,-0.113658 -1.08739,-0.155051 -0.46897,0.26536 0.27991,0.190405 1.3033,0.558235 1.40421,1.011761 -0.005,-0.0014 -0.0114,-0.0014 -0.0168,-0.0021 0.013,0.08637 0.006,0.157516 -0.0103,0.220609 z"
         inkscape:connector-curvature="0"
         style="opacity:0.38100011;fill:#ff6600;stroke-width:0.22374198" />
      <path
         id="path229-2-3"
         d="m 130.83641,86.760859 c 0.24433,0.15304 0.94106,0.621332 0.30944,0.823596 -0.19824,-0.520425 -0.65131,-0.789587 -1.16659,-0.965449 0.26558,0.0067 0.68398,-0.09084 0.85715,0.141853 z"
         inkscape:connector-curvature="0"
         style="opacity:0.38100011;fill:#ff6600;stroke-width:0.22374198" />
      <path
         style="overflow:visible;fill:#a65828;fill-opacity:1;stroke:none;stroke-width:1.27506578px;stroke-linecap:butt;stroke-linejoin:miter;stroke-opacity:1"
         d="m 128.35866,86.420811 c 1.01096,-0.300856 3.00597,-0.249574 3.17272,0.606768 0.16674,0.856339 -1.17228,0.971046 -2.13023,0.632941 -0.95796,-0.338105 -1.04249,-1.239709 -1.04249,-1.239709 z"
         id="path1028-5-1-9"
         inkscape:connector-curvature="0"
         sodipodi:nodetypes="czcc" />
      <path
         style="fill:#d96920;fill-opacity:1;stroke:none;stroke-width:1px;stroke-linecap:butt;stroke-linejoin:miter;stroke-opacity:1"
         d="m 128.70241,86.555546 c 0.79287,-0.235953 2.3575,-0.195733 2.48828,0.475872 0.13077,0.671605 -0.91939,0.761567 -1.67069,0.496399 -0.7513,-0.265165 -0.81759,-0.972271 -0.81759,-0.972271 z"
         id="path1028-8-4"
         inkscape:connector-curvature="0"
         sodipodi:nodetypes="czcc" />
      <path
         style="overflow:visible;fill:#a65828;fill-opacity:1;stroke:none;stroke-width:1.15097761px;stroke-linecap:butt;stroke-linejoin:miter;stroke-opacity:1"
         d="m 128.49167,84.573853 -0.46783,1.418612 c 0,0 3.69483,0.964269 3.40894,1.934897 -0.2859,0.97063 -1.69433,0.613496 -1.69433,0.613496 0,0 0.33787,0.771528 -0.67576,0.871079 -1.01363,0.09955 -2.1832,-1.19462 -2.4691,-1.319059 -0.28589,-0.124439 -1.29952,-0.39821 -1.27353,-0.671977 0.026,-0.273767 0.57179,-0.871077 0.57179,-1.119957 0,-0.248881 -0.31188,-2.190141 -0.31188,-2.190141 z"
         id="path1026-7-7-7"
         inkscape:connector-curvature="0"
         sodipodi:nodetypes="cccccccscc" />
      <path
         style="fill:#d96920;fill-opacity:1;stroke:none;stroke-width:1px;stroke-linecap:butt;stroke-linejoin:miter;stroke-opacity:1"
         d="m 128.10579,84.85407 -0.39775,1.259534 c 1.26643,0.4731 3.06479,0.613334 3.27416,1.698793 -0.72884,1.274524 -2.04309,-0.658324 -2.61455,-0.420029 0.84681,0.403487 1.13026,0.88675 1.13026,0.88675 0,0 0.28726,0.68501 -0.57453,0.773398 -0.86179,0.08839 -1.85615,-1.060659 -2.09922,-1.171145 -0.24307,-0.110484 -1.10486,-0.353554 -1.08276,-0.596622 0.0221,-0.243068 0.48614,-0.773396 0.48614,-0.994368 0,-0.22097 -0.26517,-1.944545 -0.26517,-1.944545 z"
         id="path1026-92-8"
         inkscape:connector-curvature="0"
         sodipodi:nodetypes="ccccccccscc" />
      <path
         style="overflow:visible;fill:#d96920;fill-opacity:1;stroke:none;stroke-width:1px;stroke-linecap:butt;stroke-linejoin:miter;stroke-opacity:1"
         d="m 120.43122,85.291557 0.39775,1.259534 c -1.26642,0.4731 -3.06478,0.613335 -3.27416,1.698793 0.72884,1.274525 2.04309,-0.658323 2.61455,-0.420029 -0.84681,0.403487 -1.13025,0.88675 -1.13025,0.88675 0,0 -0.28726,0.68501 0.57452,0.773399 0.86179,0.08839 1.85616,-1.06066 2.09923,-1.171146 0.24306,-0.110484 1.10485,-0.353554 1.08275,-0.596622 -0.0221,-0.243067 -0.48613,-0.773396 -0.48613,-0.994368 0,-0.22097 0.26516,-1.944544 0.26516,-1.944544 z"
         id="path1026-9-0-4"
         inkscape:connector-curvature="0"
         sodipodi:nodetypes="ccccccccscc" />
      <path
         style="overflow:visible;opacity:1;fill:#c18021;fill-opacity:1;stroke:none;stroke-width:1.08562744px;stroke-linecap:butt;stroke-linejoin:miter;stroke-opacity:1"
         d="m 135.31544,82.215245 c -3.52249,5.912815 -15.79048,4.927348 -18.88785,0.83386 -3.09736,-4.093488 -4.64566,-8.928641 0.0607,-16.601367 2.97589,-4.851538 4.40526,-3.395251 4.25421,-5.024972 0.84213,0.417618 1.414,-0.503214 1.66211,-1.086412 0.0597,9.37e-4 1.52907,1.137045 1.47797,-0.02179 4.71797,1.66226 6.91621,2.09783 8.12557,4.823491 1.20936,2.725659 6.82975,11.164384 3.30725,17.077197 z"
         id="path951-6-2-5"
         inkscape:connector-curvature="0"
         sodipodi:nodetypes="cscccccsc" />
      <path
         style="overflow:visible;opacity:1;fill:#f7bd69;fill-opacity:1;stroke:none;stroke-width:1.03014231px;stroke-linecap:butt;stroke-linejoin:miter;stroke-opacity:1"
         d="m 131.64412,65.700047 c 0.92555,1.79148 6.68562,10.103958 3.33048,15.69338 -3.35513,5.589425 -15.04026,4.657854 -17.99047,0.788253 -2.9502,-3.869601 -4.42494,-8.440302 0.0579,-15.693382 2.83451,-4.586193 4.21782,-3.094658 4.07395,-4.635249 0.96601,-0.108943 1.17466,-0.593163 1.38833,-1.074891 0.0405,-0.01255 1.66366,1.132946 1.60256,0.02729 3.83148,1.427646 6.15904,1.532902 7.5373,4.894599 z"
         id="path951-3-0"
         inkscape:connector-curvature="0"
         sodipodi:nodetypes="cssccccc" />
      <path
         style="overflow:visible;opacity:1;fill:#2d2525;fill-opacity:1;stroke-width:0.19366272"
         id="path249-6-7-3"
         d="m 130.66423,68.087308 c -0.22412,-1.166142 1.05119,-1.358335 1.09293,-0.204275 0.0328,0.915328 -0.86513,0.945533 -1.09293,0.204275 z"
         inkscape:connector-curvature="0" />
      <path
         id="path249-5-6"
         d="m 127.5131,68.785504 c -0.29915,-1.166143 1.40308,-1.358339 1.45879,-0.204276 0.0439,0.915328 -1.15473,0.945531 -1.45879,0.204276 z"
         inkscape:connector-curvature="0"
         style="overflow:visible;opacity:1;fill:#2d2525;fill-opacity:1;stroke-width:0.22374198" />
      <path
         style="overflow:visible;fill:#a65828;fill-opacity:1;stroke:none;stroke-width:1.22880411px;stroke-linecap:butt;stroke-linejoin:miter;stroke-opacity:1"
         d="m 135.58626,69.66786 c 0.25975,1.208947 -2.78775,4.169178 -4.22173,3.728256 -1.43398,-0.440919 -2.65646,-2.122749 -1.94927,-3.622577 0.70719,-1.49982 5.38933,-1.898763 6.171,-0.105679 z"
         id="path963-3-9-1"
         inkscape:connector-curvature="0" />
      <path
         style="overflow:visible;fill:#d96920;fill-opacity:1;stroke:none;stroke-width:1.07242501px;stroke-linecap:butt;stroke-linejoin:miter;stroke-opacity:1"
         d="m 135.24262,69.756171 c 0.23698,1.032678 -2.47044,3.547551 -3.75221,3.165923 -1.28176,-0.381631 -2.38003,-1.821451 -1.75522,-3.098752 0.62481,-1.277301 4.80213,-1.600289 5.50743,-0.06717 z"
         id="path963-2-0"
         inkscape:connector-curvature="0" />
      <ellipse
         ry="0.39774758"
         rx="0.37565044"
         cy="68.00341"
         cx="131.26097"
         id="path1809-5-3-0"
         style="overflow:visible;opacity:1;fill:#f5ebe1;fill-opacity:1;stroke:none;stroke-width:1;stroke-miterlimit:4;stroke-dasharray:none;stroke-opacity:1" />
      <ellipse
         ry="0.39774758"
         rx="0.37565044"
         cy="68.710526"
         cx="128.34415"
         id="path1809-5-3-7"
         style="overflow:visible;opacity:1;fill:#f5ebe1;fill-opacity:1;stroke:none;stroke-width:1;stroke-miterlimit:4;stroke-dasharray:none;stroke-opacity:1" />
    </g>
    <g
       id="g2302"
       transform="translate(20)">
      <path
         id="path105-2"
         d="m 5.7971818,86.658661 c 0.013649,-0.0054 0.027522,-0.0065 0.040946,-0.01208 -0.0085,-0.01119 -0.018354,-0.0206 -0.027073,-0.03065 -0.00246,0.01454 -0.00962,0.02864 -0.013859,0.04273 z"
         inkscape:connector-curvature="0"
         style="opacity:0.38100011;fill:none;stroke-width:0.22374198" />
      <path
         id="path113-7"
         d="m -0.43671658,87.185798 c -0.21344805,0.381032 0.10448826,0.614843 0.47232057,0.672567 -0.04788265,-0.01096 -0.09688201,-0.02259 -0.14700042,-0.03781 -0.34702455,-0.10874 -0.40139207,-0.363581 -0.32532015,-0.634756 z"
         inkscape:connector-curvature="0"
         style="opacity:0.38100011;fill:none;stroke-width:0.22374198" />
      <path
         style="overflow:visible;fill:#a65828;fill-opacity:1;stroke:none;stroke-width:1.27506578px;stroke-linecap:butt;stroke-linejoin:miter;stroke-opacity:1"
         d="m 2.7246481,85.795799 c 1.01096,-0.300856 3.0059643,-0.249574 3.1727143,0.606768 0.1667477,0.856339 -1.1722739,0.971046 -2.1302313,0.632941 -0.9579597,-0.338104 -1.042483,-1.239709 -1.042483,-1.239709 z"
         id="path1028-5-3-0"
         inkscape:connector-curvature="0"
         sodipodi:nodetypes="czcc" />
      <path
         sodipodi:nodetypes="ccccc"
         id="path117-9"
         d="m -1.6249756,84.569031 c 0.02196,0.07913 0.04059,0.152399 0.056327,0.223473 0.02196,-0.08646 0.049699,-0.168766 0.088632,-0.245699 -0.048456,0.0093 -0.096913,0.01292 -0.144959,0.02224 z"
         inkscape:connector-curvature="0"
         style="opacity:0.38100011;fill:none;stroke-width:0.22489262" />
      <path
         id="path119-3"
         d="m -6.3598378,87.35517 c -0.00536,7.03e-4 -0.012314,7.03e-4 -0.016786,0.0021 -0.016107,0.0707 -0.00871,0.144091 0.027073,0.219041 -0.016341,-0.0631 -0.023271,-0.134244 -0.010301,-0.221057 z"
         inkscape:connector-curvature="0"
         style="opacity:0.38100011;fill:none;stroke-width:0.22374198" />
      <path
         id="path159-6"
         d="m -9.6720212,67.223672 c -0.074815,-0.01725 -0.061883,-0.01421 0,0 z"
         inkscape:connector-curvature="0"
         style="opacity:0.38100011;fill:#ffb442;stroke-width:0.21072383" />
      <path
         style="overflow:visible;fill:#d96920;fill-opacity:1;stroke:none;stroke-width:1px;stroke-linecap:butt;stroke-linejoin:miter;stroke-opacity:1"
         d="M 3.0683974,85.930534 C 3.861267,85.694581 5.4258964,85.734801 5.5566729,86.406406 5.6874495,87.078011 4.63729,87.167973 3.8859891,86.902805 3.1346882,86.63764 3.0683974,85.930534 3.0683974,85.930534 Z"
         id="path1028-56-0"
         inkscape:connector-curvature="0"
         sodipodi:nodetypes="czcc" />
      <path
         id="path227-6"
         d="m -6.3495439,87.576227 c 0.031993,0.06623 0.083006,0.134693 0.1666868,0.204053 0.3004857,0.250592 1.1178128,-0.03513 1.4140494,-0.229784 0.3606708,-0.237613 0.4447961,-0.635203 0.7466256,-0.894743 0.1219389,-0.105607 0.2792308,0.02149 0.331585,-0.0089 0.1049354,-0.06175 0.53027,-0.432494 0.53027,-0.536085 0,-0.35329 -0.3215159,-0.598511 -0.3004857,-1.005496 0.069582,-0.05616 0.1205951,-0.151475 0.1769783,-0.221729 -0.4427852,-0.07607 -0.8848985,-0.152593 -1.3261175,-0.230456 0.1127665,0.488207 0.070702,0.900116 -0.4409965,0.911079 -0.5875452,0.01276 -1.1896333,0.155276 -1.7335519,0.37365 -0.3004857,0.120148 -1.2874096,0.514606 -1.095886,1.001692 0.1559457,0.397365 0.9312102,0.103591 1.1668121,0.133127 0.164451,-0.524453 0.7712378,-0.86275 1.2721971,-0.992075 0.4401023,-0.113658 1.0873878,-0.155051 0.4689634,0.26536 -0.2799027,0.190405 -1.3032963,0.558235 -1.404205,1.011761 0.00471,-0.0014 0.011401,-0.0014 0.016786,-0.0021 -0.01297,0.08637 -0.00604,0.157516 0.010301,0.220609 z"
         inkscape:connector-curvature="0"
         style="opacity:0.38100011;fill:#ff6600;stroke-width:0.22374198" />
      <path
         id="path229-2"
         d="m -7.9334148,85.69836 c -0.2443273,0.15304 -0.9410593,0.621332 -0.3094358,0.823596 0.1982355,-0.520425 0.6513146,-0.789587 1.1665898,-0.965449 -0.2655822,0.0067 -0.6839777,-0.09084 -0.857154,0.141853 z"
         inkscape:connector-curvature="0"
         style="opacity:0.38100011;fill:#ff6600;stroke-width:0.22374198" />
      <path
         style="overflow:visible;fill:#a65828;fill-opacity:1;stroke:none;stroke-width:1.15097761px;stroke-linecap:butt;stroke-linejoin:miter;stroke-opacity:1"
         d="M 2.8576557,83.948841 2.389823,85.367454 c 0,0 3.6948373,0.964269 3.4089414,1.934896 -0.2858983,0.97063 -1.6943337,0.613496 -1.6943337,0.613496 0,0 0.3378779,0.771528 -0.6757534,0.871079 -1.0136288,0.09955 -2.1832012,-1.194619 -2.46909944,-1.319059 -0.28589593,-0.124439 -1.29952481,-0.39821 -1.27353384,-0.671977 0.0259956,-0.273766 0.57179185,-0.871076 0.57179185,-1.119957 0,-0.248881 -0.31188455,-2.19014 -0.31188455,-2.19014 z"
         id="path1026-7-2-6"
         inkscape:connector-curvature="0"
         sodipodi:nodetypes="cccccccscc" />
      <path
         style="overflow:visible;fill:#a65828;fill-opacity:1;stroke:none;stroke-width:1.27506578px;stroke-linecap:butt;stroke-linejoin:miter;stroke-opacity:1"
         d="m -5.4556626,85.358312 c -1.0109601,-0.300856 -3.0059644,-0.249574 -3.1727144,0.606768 -0.1667476,0.856339 1.172274,0.971046 2.1302313,0.632941 0.9579598,-0.338105 1.0424831,-1.239709 1.0424831,-1.239709 z"
         id="path1028-5-1"
         inkscape:connector-curvature="0"
         sodipodi:nodetypes="czcc" />
      <path
         style="fill:#d96920;fill-opacity:1;stroke:none;stroke-width:1px;stroke-linecap:butt;stroke-linejoin:miter;stroke-opacity:1"
         d="m -5.799412,85.493047 c -0.7928695,-0.235953 -2.3574989,-0.195733 -2.4882755,0.475872 -0.1307765,0.671605 0.919383,0.761567 1.6706839,0.496399 0.7513008,-0.265165 0.8175916,-0.972271 0.8175916,-0.972271 z"
         id="path1028-8"
         inkscape:connector-curvature="0"
         sodipodi:nodetypes="czcc" />
      <path
         style="overflow:visible;fill:#a65828;fill-opacity:1;stroke:none;stroke-width:1.15097761px;stroke-linecap:butt;stroke-linejoin:miter;stroke-opacity:1"
         d="m -5.5886703,83.511354 0.4678327,1.418612 c 0,0 -3.6948373,0.964269 -3.4089413,1.934897 0.2858982,0.97063 1.6943336,0.613496 1.6943336,0.613496 0,0 -0.3378778,0.771528 0.6757534,0.871079 1.0136289,0.09955 2.1832012,-1.19462 2.4690995,-1.319059 0.2858959,-0.124439 1.2995248,-0.39821 1.2735338,-0.671977 -0.025996,-0.273767 -0.5717918,-0.871077 -0.5717918,-1.119957 0,-0.248881 0.3118845,-2.190141 0.3118845,-2.190141 z"
         id="path1026-7-7"
         inkscape:connector-curvature="0"
         sodipodi:nodetypes="cccccccscc" />
      <path
         style="fill:#d96920;fill-opacity:1;stroke:none;stroke-width:1px;stroke-linecap:butt;stroke-linejoin:miter;stroke-opacity:1"
         d="m -5.2027904,83.791571 0.3977494,1.259534 c -1.2664263,0.4731 -3.064787,0.613334 -3.2741616,1.698793 0.7288403,1.274524 2.043093,-0.658324 2.6145501,-0.420029 -0.8468086,0.403487 -1.1302534,0.88675 -1.1302534,0.88675 0,0 -0.2872632,0.68501 0.5745239,0.773398 0.861787,0.08839 1.8561556,-1.060659 2.0992234,-1.171145 0.2430677,-0.110484 1.1048547,-0.353554 1.082757,-0.596622 -0.0221,-0.243068 -0.4861354,-0.773396 -0.4861354,-0.994368 0,-0.22097 0.2651654,-1.944545 0.2651654,-1.944545 z"
         id="path1026-92"
         inkscape:connector-curvature="0"
         sodipodi:nodetypes="ccccccccscc" />
      <path
         style="overflow:visible;fill:#d96920;fill-opacity:1;stroke:none;stroke-width:1px;stroke-linecap:butt;stroke-linejoin:miter;stroke-opacity:1"
         d="m 2.4717758,84.229058 -0.3977493,1.259534 c 1.2664262,0.4731 3.064787,0.613335 3.2741615,1.698793 -0.7288403,1.274525 -2.043093,-0.658323 -2.6145501,-0.420029 0.8468087,0.403487 1.1302535,0.88675 1.1302535,0.88675 0,0 0.2872631,0.68501 -0.5745239,0.773399 -0.8617871,0.08839 -1.8561557,-1.06066 -2.0992234,-1.171146 -0.24306775,-0.110484 -1.1048548,-0.353554 -1.0827571,-0.596622 0.0221,-0.243067 0.48613545,-0.773396 0.48613545,-0.994368 0,-0.22097 -0.26516543,-1.944544 -0.26516543,-1.944544 z"
         id="path1026-9-0"
         inkscape:connector-curvature="0"
         sodipodi:nodetypes="ccccccccscc" />
      <path
         style="overflow:visible;opacity:1;fill:#c18021;fill-opacity:1;stroke:none;stroke-width:1.05928123px;stroke-linecap:butt;stroke-linejoin:miter;stroke-opacity:1"
         d="M -12.412443,81.352662 C -8.8899512,86.981974 3.3780415,86.043757 6.475405,82.146541 9.5727685,78.249326 11.121069,73.646006 6.4146721,66.341169 3.4387745,61.72225 2.0094143,63.108712 2.1604555,61.557132 1.318329,61.954727 0.74645523,61.078045 0.49835413,60.52281 c -0.0597123,9.36e-4 -1.52907503,1.082527 -1.47797331,-0.02074 -4.71796872,1.582557 -6.91620682,1.997244 -8.12556862,4.592216 -1.2093622,2.594971 -6.8297472,10.62908 -3.3072552,16.258387 z"
         id="path951-6-2"
         inkscape:connector-curvature="0"
         sodipodi:nodetypes="cscccccsc" />
      <path
         style="overflow:visible;opacity:1;fill:#f7bd69;fill-opacity:1;stroke:none;stroke-width:1.00514257px;stroke-linecap:butt;stroke-linejoin:miter;stroke-opacity:1"
         d="m -8.7411153,65.629327 c -0.9255565,1.705583 -6.6856217,9.619499 -3.3304867,14.940923 3.3551362,5.321427 15.040266,4.434522 17.9904698,0.750458 2.9502063,-3.684063 4.4249442,-8.035611 -0.057849,-14.940925 -2.8345087,-4.366295 -4.2178171,-2.946275 -4.0739514,-4.413 -0.96600609,-0.103718 -1.17465486,-0.564721 -1.38833,-1.023351 -0.0404894,-0.01194 -1.6636582,1.078622 -1.6025576,0.02598 -3.831483,1.359195 -6.1590439,1.459404 -7.5372954,4.659914 z"
         id="path951-3"
         inkscape:connector-curvature="0"
         sodipodi:nodetypes="cssccccc" />
      <path
         style="overflow:visible;opacity:1;fill:#2d2525;fill-opacity:1;stroke-width:0.19366272"
         id="path249-6-7"
         d="m -7.7612288,67.024809 c 0.2241188,-1.166142 -1.0511896,-1.358335 -1.0929292,-0.204275 -0.032855,0.915328 0.8651255,0.945533 1.0929292,0.204275 z"
         inkscape:connector-curvature="0" />
      <path
         id="path249-5"
         d="m -4.6100971,67.723005 c 0.2991442,-1.166143 -1.4030837,-1.358339 -1.4587973,-0.204276 -0.043851,0.915328 1.1547344,0.945531 1.4587973,0.204276 z"
         inkscape:connector-curvature="0"
         style="overflow:visible;opacity:1;fill:#2d2525;fill-opacity:1;stroke-width:0.22374198" />
      <path
         style="overflow:visible;fill:#a65828;fill-opacity:1;stroke:none;stroke-width:1.07914996px;stroke-linecap:butt;stroke-linejoin:miter;stroke-opacity:1"
         d="m -12.684786,68.403056 c -0.234359,1.033437 2.515216,3.563916 3.8090079,3.187005 1.2937938,-0.376909 2.3967593,-1.814578 1.7587071,-3.096666 -0.6380522,-1.282084 -4.862467,-1.62311 -5.567715,-0.09034 z"
         id="path963-3-9"
         inkscape:connector-curvature="0" />
      <path
         style="overflow:visible;fill:#d96920;fill-opacity:1;stroke:none;stroke-width:0.94181615px;stroke-linecap:butt;stroke-linejoin:miter;stroke-opacity:1"
         d="m -12.37474,68.478548 c -0.213818,0.882758 2.228928,3.032533 3.3853878,2.706307 1.1564551,-0.326226 2.1473565,-1.557021 1.5836298,-2.648889 -0.5637314,-1.091867 -4.3326646,-1.367965 -4.9690176,-0.05742 z"
         id="path963-2"
         inkscape:connector-curvature="0" />
      <ellipse
         style="overflow:visible;opacity:1;fill:#f5ebe1;fill-opacity:1;stroke:none;stroke-width:1;stroke-miterlimit:4;stroke-dasharray:none;stroke-opacity:1"
         id="path1809-4"
         cx="-5.1728554"
         cy="67.517281"
         rx="0.37565044"
         ry="0.39774758" />
      <ellipse
         style="overflow:visible;opacity:1;fill:#f5ebe1;fill-opacity:1;stroke:none;stroke-width:1;stroke-miterlimit:4;stroke-dasharray:none;stroke-opacity:1"
         id="path1809-5-7"
         cx="-8.2222519"
         cy="66.85437"
         rx="0.37565044"
         ry="0.39774758" />
    </g>
    <g
       id="g2331">
      <path
         style="overflow:visible;fill:#a0592e;fill-opacity:1;stroke:none;stroke-width:3.19547367px;stroke-linecap:butt;stroke-linejoin:miter;stroke-opacity:1"
         d="m 53.649349,85.757447 c 2.533593,-0.753981 7.533323,-0.625462 7.95122,1.520635 0.41789,2.146095 -2.937866,2.433564 -5.338627,1.586231 -2.400765,-0.847333 -2.612593,-3.106866 -2.612593,-3.106866 z"
         id="path1028-5-3-1"
         inkscape:connector-curvature="0"
         sodipodi:nodetypes="czcc" />
      <path
         style="overflow:visible;fill:#e27d3a;fill-opacity:1;stroke:none;stroke-width:2.5061245px;stroke-linecap:butt;stroke-linejoin:miter;stroke-opacity:1"
         d="m 54.51083,86.095112 c 1.98703,-0.591329 5.908185,-0.490532 6.235928,1.192595 0.327743,1.683124 -2.304089,1.90858 -4.186943,1.244035 -1.882853,-0.664537 -2.048985,-2.43663 -2.048985,-2.43663 z"
         id="path1028-56-4"
         inkscape:connector-curvature="0"
         sodipodi:nodetypes="czcc" />
      <path
         style="overflow:visible;fill:#a0592e;fill-opacity:1;stroke:none;stroke-width:2.88449311px;stroke-linecap:butt;stroke-linejoin:miter;stroke-opacity:1"
         d="m 53.894295,79.272587 -1.084057,5.411374 c 0,0 9.259723,2.416579 8.543232,4.849091 -0.716498,2.43252 -4.246213,1.537499 -4.246213,1.537499 0,0 0.846765,1.933545 -1.693521,2.183032 -2.540281,0.249492 -5.471374,-2.993865 -6.187872,-3.305726 -0.716491,-0.311861 -3.25677,-0.997965 -3.191633,-1.684059 0.06515,-0.686094 1.43298,-2.183026 1.43298,-2.806752 0,-0.623727 -0.870009,-7.34492 -0.870009,-7.34492 z"
         id="path1026-7-2-5"
         inkscape:connector-curvature="0"
         sodipodi:nodetypes="cccccccscc" />
      <path
         style="overflow:visible;fill:#e27d3a;fill-opacity:1;stroke:none;stroke-width:2.5061245px;stroke-linecap:butt;stroke-linejoin:miter;stroke-opacity:1"
         d="m 52.927233,79.974844 -0.908422,5.012704 c 3.173822,1.185649 7.68074,1.537094 8.205459,4.257389 -1.826567,3.194117 -5.120248,-1.649843 -6.55239,-1.052648 2.122209,1.011189 2.832557,2.222307 2.832557,2.222307 0,0 0.719916,1.716722 -1.43983,1.938235 -2.159746,0.221518 -4.651758,-2.658146 -5.260916,-2.935038 -0.609156,-0.276885 -2.768901,-0.886051 -2.713523,-1.495209 0.05539,-0.609158 1.218317,-1.938228 1.218317,-2.492012 0,-0.553777 -0.752928,-6.729424 -0.752928,-6.729424 z"
         id="path1026-9-5"
         inkscape:connector-curvature="0"
         sodipodi:nodetypes="ccccccccscc" />
      <path
         style="overflow:visible;fill:#a0592e;fill-opacity:1;stroke:none;stroke-width:3.19547367px;stroke-linecap:butt;stroke-linejoin:miter;stroke-opacity:1"
         d="m 36.153675,84.837828 c -2.533592,-0.753984 -7.53332,-0.625465 -7.951217,1.520635 -0.41789,2.146092 2.937864,2.433564 5.338624,1.586231 2.400768,-0.847333 2.612593,-3.106866 2.612593,-3.106866 z"
         id="path1028-5-6"
         inkscape:connector-curvature="0"
         sodipodi:nodetypes="czcc" />
      <path
         style="overflow:visible;fill:#e27d3a;fill-opacity:1;stroke:none;stroke-width:2.5061245px;stroke-linecap:butt;stroke-linejoin:miter;stroke-opacity:1"
         d="m 35.292197,85.17549 c -1.98703,-0.591328 -5.908187,-0.490532 -6.235928,1.192595 -0.327743,1.683127 2.304089,1.90858 4.186943,1.244038 1.882853,-0.664539 2.048985,-2.436633 2.048985,-2.436633 z"
         id="path1028-9"
         inkscape:connector-curvature="0"
         sodipodi:nodetypes="czcc" />
      <path
         style="overflow:visible;fill:#a0592e;fill-opacity:1;stroke:none;stroke-width:2.88449311px;stroke-linecap:butt;stroke-linejoin:miter;stroke-opacity:1"
         d="m 35.820342,78.20912 1.172447,5.555219 c 0,0 -9.259723,2.416579 -8.543232,4.849092 0.716496,2.432519 4.246213,1.537498 4.246213,1.537498 0,0 -0.846764,1.933546 1.693521,2.183033 2.540281,0.249494 5.471374,-2.993866 6.18787,-3.305727 0.716491,-0.311859 3.256772,-0.997965 3.191635,-1.684059 -0.06515,-0.686091 -1.432982,-2.183025 -1.432982,-2.806752 0,-0.623725 0.781623,-7.488764 0.781623,-7.488764 z"
         id="path1026-7-3"
         inkscape:connector-curvature="0"
         sodipodi:nodetypes="cccccccscc" />
      <path
         style="overflow:visible;fill:#e27d3a;fill-opacity:1;stroke:none;stroke-width:2.5061245px;stroke-linecap:butt;stroke-linejoin:miter;stroke-opacity:1"
         d="m 36.787406,78.911377 0.996808,5.15655 c -3.173822,1.185648 -7.680737,1.537093 -8.205457,4.257388 1.826564,3.194117 5.120246,-1.649841 6.55239,-1.052645 -2.122208,1.011189 -2.832556,2.222307 -2.832556,2.222307 0,0 -0.719919,1.716719 1.439827,1.938232 2.159746,0.221518 4.651757,-2.658144 5.260916,-2.935036 0.609158,-0.276887 2.768904,-0.88605 2.713525,-1.495208 -0.05539,-0.609158 -1.218317,-1.938228 -1.218317,-2.492012 0,-0.553779 0.664537,-6.873271 0.664537,-6.873271 z"
         id="path1026-74"
         inkscape:connector-curvature="0"
         sodipodi:nodetypes="ccccccccscc" />
      <path
         inkscape:connector-curvature="0"
         id="path1326-2"
         d="m 21.407141,53.050824 c -2.669554,6.859072 -3.550359,14.155224 -1.433127,18.759256 2.117232,4.604037 9.073577,10.806227 22.697506,10.24247 13.623933,-0.563762 20.25179,-1.879199 24.578307,-5.825516 4.326522,-3.946314 4.970895,-6.859067 5.79938,-8.174509 0.828483,-1.31544 2.393391,-3.570473 1.74902,-5.637591 -0.644376,-2.06712 -0.09206,-4.134237 -1.01259,-6.107394 -0.920537,-1.97316 0.460264,-5.073833 -0.184109,-7.046991 -0.644373,-1.973154 -0.184109,-4.791954 -1.012592,-6.013434 -0.828478,-1.221479 -0.795531,-2.883393 -1.716066,-3.447155 -0.920539,-0.563757 0.946694,-2.848993 -0.526166,-3.600675 -1.472858,-0.751676 -10.698576,2.130039 -13.644287,7.20387 -2.945711,5.073835 -6.884644,6.138433 -8.725716,6.514274 -1.841072,0.375841 -26.56956,3.133395 -26.56956,3.133395 z"
         style="overflow:visible;fill:#976733;fill-opacity:1;stroke:none;stroke-width:1.05219579px;stroke-linecap:butt;stroke-linejoin:miter;stroke-opacity:1"
         sodipodi:nodetypes="cssssccscccssc" />
      <path
         inkscape:connector-curvature="0"
         id="path1326"
         d="m 22.539029,53.507729 c -2.563263,6.452349 -3.889088,12.727921 -1.856156,17.05895 2.032931,4.331028 9.192388,10.518214 22.273864,9.987883 13.081475,-0.53033 19.445436,-1.767767 23.599687,-5.480078 4.154254,-3.712309 4.772971,-6.452347 5.568467,-7.689786 0.795494,-1.237436 2.298096,-3.358755 1.679379,-5.303299 -0.618719,-1.944544 -0.08839,-3.889088 -0.972273,-5.745244 -0.883883,-1.856155 0.441942,-4.77297 -0.176777,-6.629126 -0.618717,-1.856153 -0.176777,-4.507805 -0.972271,-5.656853 -0.795494,-1.14905 -0.883885,-3.535535 -1.767767,-4.065865 -0.883885,-0.530329 1.149048,-2.209708 -0.265166,-2.916815 -1.414213,-0.707106 -9.192387,2.121321 -12.020814,6.894291 -2.828426,4.772971 -6.010409,5.656853 -7.778174,6.010407 -1.767767,0.353554 -27.311999,3.535535 -27.311999,3.535535 z"
         style="fill:#c0803b;fill-opacity:1;stroke:none;stroke-width:1px;stroke-linecap:butt;stroke-linejoin:miter;stroke-opacity:1" />
      <path
         style="fill:#976733;fill-opacity:1;stroke:none;stroke-width:1px;stroke-linecap:butt;stroke-linejoin:miter;stroke-opacity:1"
         d="m 56.126598,50.767691 c 3.8007,1.325824 6.805904,0.530328 5.745244,1.325824 -1.060659,0.795494 -5.21491,0.530329 -6.452349,0.176777 -1.237436,-0.353554 0.707105,-1.502601 0.707105,-1.502601 z"
         id="path2000"
         inkscape:connector-curvature="0" />
      <path
         style="fill:#976733;fill-opacity:1;stroke:none;stroke-width:1px;stroke-linecap:butt;stroke-linejoin:miter;stroke-opacity:1"
         d="m 50.116191,72.864777 c 9.899496,0.618719 18.296389,-3.093592 19.003495,-5.214913 0.707107,-2.121321 2.386486,-3.093592 2.121321,-4.331029 -0.265166,-1.237436 1.767767,-3.18198 0.353554,-3.977476 -1.414214,-0.795494 -3.447146,-0.08839 -3.8007,-0.707106 -0.353554,-0.618719 -4.154249,-1.237436 -5.303299,-1.590992 1.339017,-0.773083 4.331028,2e-6 5.391687,0.795496 1.06066,0.795496 3.712312,0.353554 4.419417,1.060659 0.707108,0.707108 0,3.093595 0,4.331031 0,1.237436 -0.986823,2.910901 -1.59099,4.419417 -0.607686,1.517308 -4.227987,8.18073 -20.594485,5.214913 z"
         id="path1998"
         inkscape:connector-curvature="0"
         sodipodi:nodetypes="cssccccsssc" />
      <path
         id="path221"
         d="m 54.545593,85.305637 c -0.0045,9.36e-4 -0.0092,0.0012 -0.01409,0.0021 0.303619,-0.0021 0.608353,-0.0021 0.916448,-0.0021 -0.300708,0 -0.601419,0 -0.902352,0 z"
         inkscape:connector-curvature="0"
         style="opacity:0.38100011;fill:#ff6600;stroke-width:0.22374198" />
      <path
         style="overflow:visible;fill:#9e6a49;fill-opacity:1;stroke:none;stroke-width:1.03932452px;stroke-linecap:butt;stroke-linejoin:miter;stroke-opacity:1"
         d="m 19.777827,53.341086 c -0.58462,0.974369 1.753859,3.053019 2.468395,3.182931 -0.468291,4.161867 3.366099,7.377328 9.031589,4.467342 1.039327,2.33848 2.735601,5.788615 7.997182,0.981738 1.883776,3.182931 7.258067,0.90204 8.427307,-4.814247 2.343396,0.731739 10.558322,2.189017 10.210661,-4.390096 -0.2985,-5.648847 -1.686444,-1.794241 -4.089883,-5.691708 -2.403436,-3.897465 -6.503151,-19.589157 -15.207495,-19.264371 -8.704342,0.324792 -16.518215,5.897524 -17.863391,11.822321 -0.581175,2.559773 1.331635,6.170984 1.331635,6.170984 0.03248,3.053018 -1.72138,6.560738 -2.306,7.535106 z"
         id="path1950-4"
         inkscape:connector-curvature="0"
         sodipodi:nodetypes="sccccsssscs" />
      <path
         style="fill:#edd0bd;fill-opacity:1;stroke:none;stroke-width:1px;stroke-linecap:butt;stroke-linejoin:miter;stroke-opacity:1"
         d="M 20.5,53.062499 C 19.9375,54 22.1875,56 22.874999,56.124999 c -0.450572,4.004395 3.298874,6.737382 8.75,3.9375 1.000001,2.25 2.8125,5.750001 7.875,1.125 1.812501,3.0625 6.562501,0.687501 7.687501,-4.8125 2.374999,1.125 10.375,1.75 10.125,-3.562499 -0.25,-5.3125 -1.562501,-1.125 -3.875002,-4.875001 -2.312498,-3.749999 -6.4375,-19.749998 -14.812499,-19.4375 -8.375,0.3125 -15.893222,5.674381 -17.1875,11.375003 -0.559186,2.462919 1.28125,5.937496 1.28125,5.937496 C 22.75,48.749999 21.0625,52.124999 20.5,53.062499 Z"
         id="path1950"
         inkscape:connector-curvature="0"
         sodipodi:nodetypes="sccccsssscs" />
      <path
         style="overflow:visible;fill:#a64a27;fill-opacity:1;stroke:none;stroke-width:1.13938761px;stroke-linecap:butt;stroke-linejoin:miter;stroke-opacity:1"
         d="m 26.351338,50.246244 c -2.923772,1.212221 -4.274553,4.576465 -2.065762,6.495817 2.208795,1.919349 4.061574,-0.15809 4.463172,-2.582533 0.401599,-2.424443 -2.39741,-3.913284 -2.39741,-3.913284 z"
         id="path1879-8-6"
         inkscape:connector-curvature="0"
         sodipodi:nodetypes="cscc" />
      <path
         style="overflow:visible;fill:#db5422;fill-opacity:1;stroke:none;stroke-width:1px;stroke-linecap:butt;stroke-linejoin:miter;stroke-opacity:1"
         d="m 26.36162,50.652494 c -2.573988,1.060659 -3.763167,4.004283 -1.818625,5.683661 1.944544,1.679379 3.575668,-0.138324 3.92922,-2.259645 0.353554,-2.121321 -2.110595,-3.424016 -2.110595,-3.424016 z"
         id="path1879-88"
         inkscape:connector-curvature="0"
         sodipodi:nodetypes="cscc" />
      <path
         style="overflow:visible;fill:#a64a27;fill-opacity:1;stroke:none;stroke-width:1.13938761px;stroke-linecap:butt;stroke-linejoin:miter;stroke-opacity:1"
         d="m 29.625739,50.246244 c 2.923772,1.212221 4.274553,4.576465 2.065762,6.495817 -2.208795,1.919349 -4.061574,-0.15809 -4.463172,-2.582533 -0.401599,-2.424443 2.39741,-3.913284 2.39741,-3.913284 z"
         id="path1879-8"
         inkscape:connector-curvature="0"
         sodipodi:nodetypes="cscc" />
      <path
         style="overflow:visible;fill:#db5422;fill-opacity:1;stroke:none;stroke-width:1px;stroke-linecap:butt;stroke-linejoin:miter;stroke-opacity:1"
         d="m 29.615457,50.652494 c 2.573988,1.060659 3.763167,4.004283 1.818625,5.683661 -1.944544,1.679379 -3.575668,-0.138324 -3.92922,-2.259645 -0.353554,-2.121321 2.110595,-3.424016 2.110595,-3.424016 z"
         id="path1879"
         inkscape:connector-curvature="0"
         sodipodi:nodetypes="cscc" />
      <path
         style="overflow:visible;fill:#a0592e;fill-opacity:1;stroke:none;stroke-width:1.14061654px;stroke-linecap:butt;stroke-linejoin:miter;stroke-opacity:1"
         d="m 30.063856,48.014805 c -1.150734,-1.678199 -4.893004,-2.85708 -6.459872,0.15105 -1.519605,2.917386 -0.05858,5.661329 1.261693,6.24334 2.170114,0.956639 5.097242,-1.460139 5.500987,-2.970625 0.403738,-1.510487 0.201871,-2.920268 -0.302808,-3.423765 z"
         id="path1263-6"
         inkscape:connector-curvature="0"
         sodipodi:nodetypes="csscc" />
      <path
         style="fill:#e27d3a;fill-opacity:1;stroke:none;stroke-width:1px;stroke-linecap:butt;stroke-linejoin:miter;stroke-opacity:1"
         d="m 29.521707,48.160234 c -1.007687,-1.473036 -4.284761,-2.507793 -5.656853,0.132584 -1.330704,2.56073 -0.0513,4.969219 1.104855,5.480076 1.900348,0.839689 4.463609,-1.281632 4.817163,-2.607459 0.353552,-1.325825 0.176777,-2.563259 -0.265165,-3.005201 z"
         id="path1263"
         inkscape:connector-curvature="0"
         sodipodi:nodetypes="csscc" />
      <path
         style="overflow:visible;opacity:1;fill:#2d2525;fill-opacity:1;stroke-width:0.22374198"
         d="m 28.815617,44.18412 c -0.505948,-1.694055 1.634219,-2.072268 2.122162,-0.399002 0.487943,1.673266 -1.616211,2.093057 -2.122162,0.399002 z"
         id="path253"
         inkscape:connector-curvature="0"
         sodipodi:nodetypes="zzz" />
      <path
         style="overflow:visible;opacity:1;fill:#2d2525;fill-opacity:1;stroke-width:0.20920131"
         d="m 23.931643,43.757278 c 0.312072,-1.584632 2.302359,-0.998063 1.98406,0.5622 -0.318299,1.560263 -2.296132,1.022436 -1.98406,-0.5622 z"
         id="path253-3"
         inkscape:connector-curvature="0"
         sodipodi:nodetypes="zzz" />
      <ellipse
         style="opacity:1;fill:#f5ebe1;fill-opacity:1;stroke:none;stroke-width:1;stroke-miterlimit:4;stroke-dasharray:none;stroke-opacity:1"
         id="path1809"
         cx="30.162525"
         cy="43.829205"
         rx="0.37565044"
         ry="0.39774758" />
      <ellipse
         style="overflow:visible;opacity:1;fill:#f5ebe1;fill-opacity:1;stroke:none;stroke-width:1;stroke-miterlimit:4;stroke-dasharray:none;stroke-opacity:1"
         id="path1809-5"
         cx="25.256971"
         cy="43.917591"
         rx="0.37565044"
         ry="0.39774758" />
      <path
         sodipodi:nodetypes="ccccccc"
         inkscape:connector-curvature="0"
         id="path185-3"
         d="m 38.152423,31.576415 c -6.389517,-2.576361 -10.902807,9.949274 -13.551646,9.464523 -2.988997,-1.667398 -3.537673,-6.261036 -1.335938,-7.256132 -0.228782,-4.801698 2.89782,-11.606281 7.391479,-7.23806 2.333719,-4.90972 5.403888,-1.993912 7.213995,-0.880006 2.079544,-0.905808 3.071485,0.663442 2.749131,2.489532 -0.322352,1.826089 -1.326429,3.386903 -2.467021,3.420143 z"
         style="overflow:visible;opacity:1;fill:#a64a27;fill-opacity:1;stroke-width:0.24270447" />
      <path
         sodipodi:nodetypes="ccccccc"
         inkscape:connector-curvature="0"
         id="path185"
         d="M 37.744011,31.075903 C 31.662794,28.775396 27.114905,40.591296 24.593875,40.158448 21.7491,38.66958 22.656998,34.567787 23.911262,34.231708 23.693518,29.944132 26.332765,23.31565 30.6096,27.216162 c 3.230597,-4.384033 5.143146,-1.938272 6.865913,-0.943632 1.979204,-0.808823 2.923283,0.592406 2.616483,2.222975 -0.306799,1.630569 -1.262428,2.550717 -2.347985,2.580398 z"
         style="overflow:visible;opacity:1;fill:#db5422;fill-opacity:1;stroke-width:0.22374198" />
    </g>
    <g
       id="g2256"
       transform="translate(-20)">
      <path
         id="path105"
         d="m 96.97061,93.752253 c 0.01365,-0.0054 0.02752,-0.0065 0.04095,-0.01208 -0.0085,-0.01119 -0.01835,-0.0206 -0.02707,-0.03065 -0.0025,0.01454 -0.0096,0.02864 -0.01386,0.04273 z"
         inkscape:connector-curvature="0"
         style="opacity:0.38100011;fill:none;stroke-width:0.22374198" />
      <path
         id="path113"
         d="m 90.736712,94.27939 c -0.213449,0.381032 0.104488,0.614843 0.47232,0.672567 -0.04788,-0.01096 -0.09688,-0.02259 -0.147,-0.03781 -0.347025,-0.10874 -0.401392,-0.363581 -0.32532,-0.634756 z"
         inkscape:connector-curvature="0"
         style="opacity:0.38100011;fill:none;stroke-width:0.22374198" />
      <path
         style="overflow:visible;fill:#a65828;fill-opacity:1;stroke:none;stroke-width:1.27506578px;stroke-linecap:butt;stroke-linejoin:miter;stroke-opacity:1"
         d="m 93.898076,92.889391 c 1.01096,-0.300856 3.005965,-0.249574 3.172715,0.606768 0.166747,0.856339 -1.172274,0.971046 -2.130232,0.632941 -0.95796,-0.338104 -1.042483,-1.239709 -1.042483,-1.239709 z"
         id="path1028-5-3"
         inkscape:connector-curvature="0"
         sodipodi:nodetypes="czcc" />
      <path
         id="path117"
         d="m 91.849381,92.100813 c 0.02372,0.07249 0.04385,0.139614 0.06086,0.204725 0.02371,-0.07921 0.0537,-0.154607 0.09576,-0.225086 -0.05236,0.0085 -0.104709,0.01185 -0.156618,0.02037 z"
         inkscape:connector-curvature="0"
         style="opacity:0.38100011;fill:none;stroke-width:0.22374198" />
      <path
         id="path119"
         d="m 84.81359,94.448762 c -0.0054,7.03e-4 -0.01231,7.03e-4 -0.01678,0.0021 -0.01611,0.0707 -0.0087,0.144091 0.02707,0.219041 -0.01634,-0.0631 -0.02327,-0.134244 -0.0103,-0.221057 z"
         inkscape:connector-curvature="0"
         style="opacity:0.38100011;fill:none;stroke-width:0.22374198" />
      <path
         id="path159"
         d="m 87.049665,72.20708 c -0.07249,-0.02685 -0.05996,-0.02215 0,0 z"
         inkscape:connector-curvature="0"
         style="opacity:0.38100011;fill:#ffb442;stroke-width:0.22374198" />
      <path
         style="overflow:visible;fill:#d96920;fill-opacity:1;stroke:none;stroke-width:1px;stroke-linecap:butt;stroke-linejoin:miter;stroke-opacity:1"
         d="m 94.241826,93.024126 c 0.792869,-0.235953 2.357498,-0.195733 2.488275,0.475872 0.130777,0.671605 -0.919383,0.761567 -1.670684,0.496399 -0.751301,-0.265165 -0.817591,-0.972271 -0.817591,-0.972271 z"
         id="path1028-56"
         inkscape:connector-curvature="0"
         sodipodi:nodetypes="czcc" />
      <path
         id="path227"
         d="m 84.823884,94.669819 c 0.03199,0.06623 0.08301,0.134693 0.166687,0.204053 0.300486,0.250592 1.117813,-0.03513 1.414049,-0.229784 0.360671,-0.237613 0.444797,-0.635203 0.746626,-0.894743 0.121939,-0.105607 0.279231,0.02149 0.331585,-0.0089 0.104935,-0.06175 0.53027,-0.432494 0.53027,-0.536085 0,-0.35329 -0.321516,-0.598511 -0.300486,-1.005496 0.06958,-0.05616 0.120595,-0.151475 0.176979,-0.221729 -0.442786,-0.07607 -0.884899,-0.152593 -1.326118,-0.230456 0.112767,0.488207 0.0707,0.900116 -0.440996,0.911079 -0.587546,0.01276 -1.189634,0.155276 -1.733552,0.37365 -0.300486,0.120148 -1.28741,0.514606 -1.095886,1.001692 0.155945,0.397365 0.93121,0.103591 1.166812,0.133127 0.164451,-0.524453 0.771238,-0.86275 1.272197,-0.992075 0.440102,-0.113658 1.087388,-0.155051 0.468963,0.26536 -0.279902,0.190405 -1.303296,0.558235 -1.404205,1.011761 0.0047,-0.0014 0.0114,-0.0014 0.01679,-0.0021 -0.01297,0.08637 -0.006,0.157516 0.0103,0.220609 z"
         inkscape:connector-curvature="0"
         style="opacity:0.38100011;fill:#ff6600;stroke-width:0.22374198" />
      <path
         id="path229"
         d="m 83.240013,92.791952 c -0.244327,0.15304 -0.941059,0.621332 -0.309435,0.823596 0.198235,-0.520425 0.651314,-0.789587 1.166589,-0.965449 -0.265582,0.0067 -0.683977,-0.09084 -0.857154,0.141853 z"
         inkscape:connector-curvature="0"
         style="opacity:0.38100011;fill:#ff6600;stroke-width:0.22374198" />
      <path
         style="overflow:visible;fill:#a65828;fill-opacity:1;stroke:none;stroke-width:1.15097761px;stroke-linecap:butt;stroke-linejoin:miter;stroke-opacity:1"
         d="m 94.031084,91.042433 -0.467833,1.418613 c 0,0 3.694837,0.964269 3.408941,1.934896 -0.285898,0.97063 -1.694333,0.613496 -1.694333,0.613496 0,0 0.337878,0.771528 -0.675754,0.871079 -1.013628,0.09955 -2.183201,-1.194619 -2.469099,-1.319059 -0.285896,-0.124439 -1.299525,-0.39821 -1.273534,-0.671977 0.026,-0.273766 0.571792,-0.871076 0.571792,-1.119957 0,-0.248881 -0.311885,-2.19014 -0.311885,-2.19014 z"
         id="path1026-7-2"
         inkscape:connector-curvature="0"
         sodipodi:nodetypes="cccccccscc" />
      <path
         style="overflow:visible;fill:#a65828;fill-opacity:1;stroke:none;stroke-width:1.27506578px;stroke-linecap:butt;stroke-linejoin:miter;stroke-opacity:1"
         d="m 85.717765,92.451904 c -1.01096,-0.300856 -3.005964,-0.249574 -3.172714,0.606768 -0.166748,0.856339 1.172274,0.971046 2.130231,0.632941 0.95796,-0.338105 1.042483,-1.239709 1.042483,-1.239709 z"
         id="path1028-5"
         inkscape:connector-curvature="0"
         sodipodi:nodetypes="czcc" />
      <path
         style="fill:#d96920;fill-opacity:1;stroke:none;stroke-width:1px;stroke-linecap:butt;stroke-linejoin:miter;stroke-opacity:1"
         d="m 85.374016,92.586639 c -0.792869,-0.235953 -2.357499,-0.195733 -2.488275,0.475872 -0.130777,0.671605 0.919383,0.761567 1.670683,0.496399 0.751301,-0.265165 0.817592,-0.972271 0.817592,-0.972271 z"
         id="path1028"
         inkscape:connector-curvature="0"
         sodipodi:nodetypes="czcc" />
      <path
         style="overflow:visible;fill:#a65828;fill-opacity:1;stroke:none;stroke-width:1.15097761px;stroke-linecap:butt;stroke-linejoin:miter;stroke-opacity:1"
         d="m 85.584758,90.604946 0.467833,1.418612 c 0,0 -3.694838,0.964269 -3.408942,1.934897 0.285898,0.97063 1.694334,0.613496 1.694334,0.613496 0,0 -0.337878,0.771528 0.675753,0.871079 1.013629,0.09955 2.183201,-1.19462 2.4691,-1.319059 0.285896,-0.124439 1.299524,-0.39821 1.273534,-0.671977 -0.026,-0.273767 -0.571792,-0.871077 -0.571792,-1.119957 0,-0.248881 0.311884,-2.190141 0.311884,-2.190141 z"
         id="path1026-7"
         inkscape:connector-curvature="0"
         sodipodi:nodetypes="cccccccscc" />
      <path
         style="fill:#d96920;fill-opacity:1;stroke:none;stroke-width:1px;stroke-linecap:butt;stroke-linejoin:miter;stroke-opacity:1"
         d="m 85.970638,90.885163 0.397749,1.259534 c -1.266426,0.4731 -3.064787,0.613334 -3.274161,1.698793 0.72884,1.274524 2.043093,-0.658324 2.61455,-0.420029 -0.846809,0.403487 -1.130254,0.88675 -1.130254,0.88675 0,0 -0.287263,0.68501 0.574524,0.773398 0.861787,0.08839 1.856156,-1.060659 2.099223,-1.171145 0.243068,-0.110484 1.104855,-0.353554 1.082758,-0.596622 -0.0221,-0.243068 -0.486136,-0.773396 -0.486136,-0.994368 0,-0.22097 0.265166,-1.944545 0.265166,-1.944545 z"
         id="path1026"
         inkscape:connector-curvature="0"
         sodipodi:nodetypes="ccccccccscc" />
      <path
         style="overflow:visible;fill:#d96920;fill-opacity:1;stroke:none;stroke-width:1px;stroke-linecap:butt;stroke-linejoin:miter;stroke-opacity:1"
         d="m 93.645204,91.32265 -0.397749,1.259534 c 1.266426,0.4731 3.064787,0.613335 3.274161,1.698793 -0.72884,1.274525 -2.043093,-0.658323 -2.61455,-0.420029 0.846809,0.403487 1.130253,0.88675 1.130253,0.88675 0,0 0.287264,0.68501 -0.574523,0.773399 -0.861787,0.08839 -1.856156,-1.06066 -2.099224,-1.171146 -0.243068,-0.110484 -1.104855,-0.353554 -1.082757,-0.596622 0.0221,-0.243067 0.486136,-0.773396 0.486136,-0.994368 0,-0.22097 -0.265166,-1.944544 -0.265166,-1.944544 z"
         id="path1026-9"
         inkscape:connector-curvature="0"
         sodipodi:nodetypes="ccccccccscc" />
      <path
         style="overflow:visible;opacity:1;fill:#c18021;fill-opacity:1;stroke:none;stroke-width:1.05386162px;stroke-linecap:butt;stroke-linejoin:miter;stroke-opacity:1"
         d="m 80.194241,89.154273 c 3.805817,5.157057 17.060565,4.297548 20.407059,0.727278 3.3465,-3.570269 5.01933,-7.787407 -0.0656,-14.479427 -3.215255,-4.231429 -6.920452,-4.793498 -6.75726,-6.214912 -0.909862,0.364241 -1.527734,-0.438895 -1.79579,-0.947551 -0.06452,9.36e-4 -1.652063,0.991713 -1.596853,-0.01901 -5.09745,1.449793 -7.472498,3.661907 -8.779133,6.039181 -1.306634,2.377275 -5.218221,9.737386 -1.412403,14.894441 z"
         id="path951-6"
         inkscape:connector-curvature="0"
         sodipodi:nodetypes="sscccccs" />
      <path
         style="overflow:visible;opacity:1;fill:#f7bd69;fill-opacity:1;stroke:none;stroke-width:1px;stroke-linecap:butt;stroke-linejoin:miter;stroke-opacity:1"
         d="m 81.999999,74.749999 c -1.000001,1.562499 -5.0625,8.812501 -1.4375,13.687499 3.625,4.875001 16.250002,4.062501 19.4375,0.687501 3.187501,-3.375 4.780861,-7.361487 -0.0625,-13.687501 -3.062498,-3.999998 -6.717939,-4.531324 -6.562501,-5.875 -1.043705,-0.09502 -1.269135,-0.517347 -1.499998,-0.937501 -0.04375,-0.01093 -1.797471,0.988135 -1.731457,0.0238 -4.139659,1.245169 -6.654434,3.169187 -8.143544,6.1012 z"
         id="path951"
         inkscape:connector-curvature="0"
         sodipodi:nodetypes="cssccccc" />
      <path
         style="overflow:visible;opacity:1;fill:#2d2525;fill-opacity:1;stroke-width:0.22374198"
         id="path249-6"
         d="m 87.778365,72.3059 c 0.299145,-1.166142 -1.403086,-1.358335 -1.458797,-0.204275 -0.04385,0.915328 1.154734,0.945533 1.458797,0.204275 z"
         inkscape:connector-curvature="0" />
      <ellipse
         ry="0.39774758"
         rx="0.37565044"
         cy="72.11348"
         cx="87.153046"
         id="path1809-5-3"
         style="overflow:visible;opacity:1;fill:#f5ebe1;fill-opacity:1;stroke:none;stroke-width:1;stroke-miterlimit:4;stroke-dasharray:none;stroke-opacity:1" />
      <path
         id="path249"
         d="m 92.750836,74.254097 c 0.299144,-1.166143 -1.403084,-1.358339 -1.458798,-0.204276 -0.04385,0.915328 1.154735,0.945531 1.458798,0.204276 z"
         inkscape:connector-curvature="0"
         style="overflow:visible;opacity:1;fill:#2d2525;fill-opacity:1;stroke-width:0.22374198" />
      <path
         style="overflow:visible;fill:#a65828;fill-opacity:1;stroke:none;stroke-width:1.145818px;stroke-linecap:butt;stroke-linejoin:miter;stroke-opacity:1"
         d="m 83.918794,73.22799 c -0.349965,1.135705 2.099799,4.249749 3.429669,3.956662 1.32987,-0.293088 2.589749,-1.795152 2.099797,-3.29722 -0.489954,-1.502065 -4.65455,-2.30805 -5.529466,-0.659442 z"
         id="path963-3"
         inkscape:connector-curvature="0" />
      <path
         style="overflow:visible;fill:#d96920;fill-opacity:1;stroke:none;stroke-width:1px;stroke-linecap:butt;stroke-linejoin:miter;stroke-opacity:1"
         d="m 84.218748,73.343748 c -0.312498,0.96875 1.875002,3.625002 3.062502,3.375 1.187498,-0.25 2.312498,-1.53125 1.874999,-2.8125 -0.437501,-1.28125 -4.15625,-1.968749 -4.937501,-0.5625 z"
         id="path963"
         inkscape:connector-curvature="0" />
      <ellipse
         style="overflow:visible;opacity:1;fill:#f5ebe1;fill-opacity:1;stroke:none;stroke-width:1;stroke-miterlimit:4;stroke-dasharray:none;stroke-opacity:1"
         id="path1809-44"
         cx="92.191185"
         cy="74.102211"
         rx="0.37565044"
         ry="0.39774758" />
    </g>
  </g>
</svg>
