<!--Created with Inkscape (http://www.inkscape.org/)--><svg xmlns:dc="http://purl.org/dc/elements/1.1/" xmlns:cc="http://creativecommons.org/ns#" xmlns:rdf="http://www.w3.org/1999/02/22-rdf-syntax-ns#" xmlns="http://www.w3.org/2000/svg" xmlns:sodipodi="http://sodipodi.sourceforge.net/DTD/sodipodi-0.dtd" xmlns:inkscape="http://www.inkscape.org/namespaces/inkscape" width="100" height="100" sodipodi:version="0.32" inkscape:version="0.92.1 r15371" version="1.0" sodipodi:docname="explore_farm_animals.svg"><sodipodi:namedview pagecolor="#ffffff" bordercolor="#666666" borderopacity="1.0" inkscape:pageopacity="0.0" inkscape:pageshadow="2" inkscape:zoom="8" inkscape:cx="57.392544" inkscape:cy="44.856001" inkscape:document-units="px" inkscape:current-layer="layer1" width="100px" height="100px" showguides="true" inkscape:guide-bbox="true" inkscape:window-width="1884" inkscape:window-height="1051" inkscape:window-x="0" inkscape:window-y="0" showgrid="false" inkscape:window-maximized="1" inkscape:snap-global="false"><inkscape:grid type="xygrid"/></sodipodi:namedview><metadata><rdf:RDF><cc:Work><dc:format>image/svg+xml</dc:format><dc:type rdf:resource="http://purl.org/dc/dcmitype/StillImage"/><dc:title/><dc:date>2017</dc:date><dc:creator><cc:Agent><dc:title>Timothée Giet</dc:title></cc:Agent></dc:creator><cc:license rdf:resource="http://creativecommons.org/licenses/by-sa/4.0/"/></cc:Work><cc:License rdf:about="http://creativecommons.org/licenses/by-sa/4.0/"><cc:permits rdf:resource="http://creativecommons.org/ns#Reproduction"/><cc:permits rdf:resource="http://creativecommons.org/ns#Distribution"/><cc:requires rdf:resource="http://creativecommons.org/ns#Notice"/><cc:requires rdf:resource="http://creativecommons.org/ns#Attribution"/><cc:permits rdf:resource="http://creativecommons.org/ns#DerivativeWorks"/><cc:requires rdf:resource="http://creativecommons.org/ns#ShareAlike"/></cc:License></rdf:RDF></metadata><g inkscape:label="Calque 1" inkscape:groupmode="layer"><g transform="translate(-40)"><path d="M117.106 87.721c-.014-.005-.028-.006-.041-.012.008-.011.018-.02.027-.03.003.014.01.028.014.042z" inkscape:connector-curvature="0" style="opacity:.38100011;fill:none;stroke-width:.22374198"/><path d="M123.34 88.248c.213.381-.105.615-.473.673.048-.011.097-.023.147-.038.347-.109.402-.364.326-.635z" inkscape:connector-curvature="0" style="opacity:.38100011;fill:none;stroke-width:.22374198"/><path style="overflow:visible;fill:#a65828;fill-opacity:1;stroke:none;stroke-width:1.27506578px;stroke-linecap:butt;stroke-linejoin:miter;stroke-opacity:1" d="M120.178 86.858c-1.01-.3-3.006-.25-3.172.607-.167.856 1.172.971 2.13.633.958-.338 1.042-1.24 1.042-1.24z" inkscape:connector-curvature="0" sodipodi:nodetypes="czcc"/><path sodipodi:nodetypes="ccccc" d="M124.528 85.632c-.022.079-.04.152-.056.223a1.192 1.192 0 0 0-.089-.246c.049.01.097.013.145.023z" inkscape:connector-curvature="0" style="opacity:.38100011;fill:none;stroke-width:.22489262"/><path d="M129.263 88.418c.005 0 .012 0 .017.002a.326.326 0 0 1-.027.219.54.54 0 0 0 .01-.221z" inkscape:connector-curvature="0" style="opacity:.38100011;fill:none;stroke-width:.22374198"/><path d="M132.247 68.288c.083-.02.069-.016 0 0z" inkscape:connector-curvature="0" style="opacity:.38100011;fill:#ffb442;stroke-width:.23994653"/><path style="overflow:visible;fill:#d96920;fill-opacity:1;stroke:none;stroke-width:1px;stroke-linecap:butt;stroke-linejoin:miter;stroke-opacity:1" d="M119.835 86.993c-.793-.236-2.358-.196-2.489.476-.13.672.92.761 1.671.496s.818-.972.818-.972z" inkscape:connector-curvature="0" sodipodi:nodetypes="czcc"/><path style="overflow:visible;fill:#a65828;fill-opacity:1;stroke:none;stroke-width:1.15097761px;stroke-linecap:butt;stroke-linejoin:miter;stroke-opacity:1" d="m120.045 85.011.468 1.419s-3.695.964-3.409 1.935c.286.97 1.695.613 1.695.613s-.338.772.675.871c1.014.1 2.184-1.194 2.47-1.319.285-.124 1.299-.398 1.273-.672-.026-.273-.572-.87-.572-1.12 0-.248.312-2.19.312-2.19z" inkscape:connector-curvature="0" sodipodi:nodetypes="cccccccscc"/><path d="M129.253 88.639a.61.61 0 0 1-.167.204c-.3.25-1.118-.035-1.414-.23-.36-.238-.445-.635-.747-.895-.122-.105-.279.022-.331-.009-.105-.061-.53-.432-.53-.536 0-.353.32-.598.3-1.005-.07-.056-.12-.152-.177-.222l1.326-.23c-.113.488-.07.9.44.91.588.013 1.19.156 1.734.374.301.12 1.288.515 1.096 1.002-.156.397-.93.104-1.166.133-.165-.524-.772-.863-1.273-.992-.44-.114-1.087-.155-.469.265.28.19 1.304.559 1.405 1.012l-.017-.002a.538.538 0 0 1-.01.22z" inkscape:connector-curvature="0" style="opacity:.38100011;fill:#f60;stroke-width:.22374198"/><path d="M130.836 86.76c.245.154.941.622.31.824-.198-.52-.651-.79-1.167-.965.266.007.684-.09.857.142z" inkscape:connector-curvature="0" style="opacity:.38100011;fill:#f60;stroke-width:.22374198"/><path style="overflow:visible;fill:#a65828;fill-opacity:1;stroke:none;stroke-width:1.27506578px;stroke-linecap:butt;stroke-linejoin:miter;stroke-opacity:1" d="M128.359 86.42c1.01-.3 3.006-.249 3.172.608.167.856-1.172.97-2.13.633-.958-.339-1.042-1.24-1.042-1.24z" inkscape:connector-curvature="0" sodipodi:nodetypes="czcc"/><path style="fill:#d96920;fill-opacity:1;stroke:none;stroke-width:1px;stroke-linecap:butt;stroke-linejoin:miter;stroke-opacity:1" d="M128.702 86.556c.793-.236 2.358-.196 2.489.475.13.672-.92.762-1.671.497s-.818-.972-.818-.972z" inkscape:connector-curvature="0" sodipodi:nodetypes="czcc"/><path style="overflow:visible;fill:#a65828;fill-opacity:1;stroke:none;stroke-width:1.15097761px;stroke-linecap:butt;stroke-linejoin:miter;stroke-opacity:1" d="m128.492 84.574-.468 1.418s3.695.965 3.409 1.935c-.286.971-1.695.614-1.695.614s.338.771-.675.87c-1.014.1-2.184-1.194-2.47-1.318-.285-.125-1.299-.398-1.273-.672.026-.274.572-.871.572-1.12 0-.249-.312-2.19-.312-2.19z" inkscape:connector-curvature="0" sodipodi:nodetypes="cccccccscc"/><path style="fill:#d96920;fill-opacity:1;stroke:none;stroke-width:1px;stroke-linecap:butt;stroke-linejoin:miter;stroke-opacity:1" d="m128.106 84.854-.398 1.26c1.266.473 3.065.613 3.274 1.698-.729 1.275-2.043-.658-2.614-.42.846.404 1.13.887 1.13.887s.287.685-.575.774c-.861.088-1.856-1.061-2.099-1.172-.243-.11-1.105-.353-1.083-.596.022-.243.487-.774.487-.995 0-.22-.266-1.944-.266-1.944z" inkscape:connector-curvature="0" sodipodi:nodetypes="ccccccccscc"/><path style="overflow:visible;fill:#d96920;fill-opacity:1;stroke:none;stroke-width:1px;stroke-linecap:butt;stroke-linejoin:miter;stroke-opacity:1" d="m120.431 85.292.398 1.26c-1.266.472-3.065.612-3.274 1.698.729 1.274 2.043-.658 2.614-.42-.846.403-1.13.887-1.13.887s-.287.685.575.773c.861.088 1.856-1.06 2.099-1.171.243-.11 1.105-.354 1.083-.597-.022-.243-.487-.773-.487-.994 0-.221.266-1.945.266-1.945z" inkscape:connector-curvature="0" sodipodi:nodetypes="ccccccccscc"/><path style="overflow:visible;opacity:1;fill:#c18021;fill-opacity:1;stroke:none;stroke-width:1.08562744px;stroke-linecap:butt;stroke-linejoin:miter;stroke-opacity:1" d="M135.315 82.215c-3.522 5.913-15.79 4.928-18.887.834-3.098-4.093-4.646-8.929.06-16.601 2.976-4.852 4.406-3.396 4.254-5.025.843.417 1.414-.503 1.663-1.087.06.001 1.529 1.137 1.478-.021 4.718 1.662 6.916 2.097 8.125 4.823 1.21 2.726 6.83 11.164 3.307 17.077z" inkscape:connector-curvature="0" sodipodi:nodetypes="cscccccsc"/><path style="overflow:visible;opacity:1;fill:#f7bd69;fill-opacity:1;stroke:none;stroke-width:1.03014231px;stroke-linecap:butt;stroke-linejoin:miter;stroke-opacity:1" d="M131.644 65.7c.926 1.792 6.686 10.104 3.33 15.693-3.355 5.59-15.04 4.658-17.99.789-2.95-3.87-4.425-8.44.058-15.694 2.835-4.586 4.218-3.094 4.074-4.635.966-.109 1.175-.593 1.388-1.075.04-.012 1.664 1.133 1.603.027 3.831 1.428 6.159 1.533 7.537 4.895z" inkscape:connector-curvature="0" sodipodi:nodetypes="cssccccc"/><path style="overflow:visible;opacity:1;fill:#2d2525;fill-opacity:1;stroke-width:.19366272" d="M130.664 68.087c-.224-1.166 1.051-1.358 1.093-.204.033.915-.865.946-1.093.204z" inkscape:connector-curvature="0"/><path d="M127.513 68.786c-.3-1.167 1.403-1.359 1.459-.205.044.916-1.155.946-1.459.205z" inkscape:connector-curvature="0" style="overflow:visible;opacity:1;fill:#2d2525;fill-opacity:1;stroke-width:.22374198"/><path style="overflow:visible;fill:#a65828;fill-opacity:1;stroke:none;stroke-width:1.22880411px;stroke-linecap:butt;stroke-linejoin:miter;stroke-opacity:1" d="M135.586 69.668c.26 1.209-2.787 4.169-4.221 3.728-1.434-.44-2.657-2.123-1.95-3.622.707-1.5 5.39-1.9 6.171-.106z" inkscape:connector-curvature="0"/><path style="overflow:visible;fill:#d96920;fill-opacity:1;stroke:none;stroke-width:1.07242501px;stroke-linecap:butt;stroke-linejoin:miter;stroke-opacity:1" d="M135.243 69.756c.237 1.033-2.47 3.548-3.753 3.166-1.281-.382-2.38-1.821-1.755-3.099.625-1.277 4.802-1.6 5.508-.067z" inkscape:connector-curvature="0"/><ellipse ry="0.39774758" rx="0.37565044" cy="68.00341" cx="131.26097" style="overflow:visible;opacity:1;fill:#f5ebe1;fill-opacity:1;stroke:none;stroke-width:1;stroke-miterlimit:4;stroke-dasharray:none;stroke-opacity:1"/><ellipse ry="0.39774758" rx="0.37565044" cy="68.710526" cx="128.34415" style="overflow:visible;opacity:1;fill:#f5ebe1;fill-opacity:1;stroke:none;stroke-width:1;stroke-miterlimit:4;stroke-dasharray:none;stroke-opacity:1"/></g><g transform="translate(20)"><path d="M5.797 86.659c.014-.006.028-.007.041-.012-.008-.012-.018-.021-.027-.031-.002.014-.01.029-.014.043z" inkscape:connector-curvature="0" style="opacity:.38100011;fill:none;stroke-width:.22374198"/><path d="M-.437 87.186c-.213.38.105.615.473.672a2.152 2.152 0 0 1-.147-.037c-.347-.11-.402-.364-.326-.635z" inkscape:connector-curvature="0" style="opacity:.38100011;fill:none;stroke-width:.22374198"/><path style="overflow:visible;fill:#a65828;fill-opacity:1;stroke:none;stroke-width:1.27506578px;stroke-linecap:butt;stroke-linejoin:miter;stroke-opacity:1" d="M2.725 85.796c1.01-.301 3.006-.25 3.172.607.167.856-1.172.97-2.13.633a1.55 1.55 0 0 1-1.042-1.24z" inkscape:connector-curvature="0" sodipodi:nodetypes="czcc"/><path sodipodi:nodetypes="ccccc" d="M-1.625 84.569c.022.08.04.152.056.224.022-.087.05-.17.089-.246-.048.01-.097.013-.145.022z" inkscape:connector-curvature="0" style="opacity:.38100011;fill:none;stroke-width:.22489262"/><path d="M-6.36 87.355c-.005 0-.012 0-.017.002a.328.328 0 0 0 .027.22.54.54 0 0 1-.01-.222z" inkscape:connector-curvature="0" style="opacity:.38100011;fill:none;stroke-width:.22374198"/><path d="M-9.672 67.224c-.075-.018-.062-.015 0 0z" inkscape:connector-curvature="0" style="opacity:.38100011;fill:#ffb442;stroke-width:.21072383"/><path style="overflow:visible;fill:#d96920;fill-opacity:1;stroke:none;stroke-width:1px;stroke-linecap:butt;stroke-linejoin:miter;stroke-opacity:1" d="M3.068 85.93c.793-.235 2.358-.195 2.489.476.13.672-.92.762-1.671.497s-.818-.972-.818-.972z" inkscape:connector-curvature="0" sodipodi:nodetypes="czcc"/><path d="M-6.35 87.576a.61.61 0 0 0 .167.204c.3.25 1.118-.035 1.414-.23.36-.237.445-.635.747-.894.122-.106.279.021.331-.01.105-.06.53-.432.53-.535 0-.354-.32-.599-.3-1.006.07-.056.12-.151.177-.221l-1.326-.23c.113.487.07.9-.44.91a5.027 5.027 0 0 0-1.735.374c-.3.12-1.287.514-1.095 1.002.156.397.93.103 1.166.133.165-.525.772-.863 1.273-.992.44-.114 1.087-.155.469.265-.28.19-1.304.558-1.405 1.012.005-.002.012-.002.017-.002a.538.538 0 0 0 .01.22z" inkscape:connector-curvature="0" style="opacity:.38100011;fill:#f60;stroke-width:.22374198"/><path d="M-7.933 85.698c-.245.153-.941.622-.31.824.198-.52.651-.79 1.167-.965-.266.006-.684-.091-.857.141z" inkscape:connector-curvature="0" style="opacity:.38100011;fill:#f60;stroke-width:.22374198"/><path style="overflow:visible;fill:#a65828;fill-opacity:1;stroke:none;stroke-width:1.15097761px;stroke-linecap:butt;stroke-linejoin:miter;stroke-opacity:1" d="m2.858 83.949-.468 1.418s3.695.965 3.409 1.935c-.286.971-1.695.614-1.695.614s.338.771-.675.87c-1.014.1-2.184-1.194-2.47-1.318-.285-.125-1.299-.398-1.273-.672.026-.274.572-.871.572-1.12 0-.249-.312-2.19-.312-2.19z" inkscape:connector-curvature="0" sodipodi:nodetypes="cccccccscc"/><path style="overflow:visible;fill:#a65828;fill-opacity:1;stroke:none;stroke-width:1.27506578px;stroke-linecap:butt;stroke-linejoin:miter;stroke-opacity:1" d="M-5.456 85.358c-1.01-.3-3.006-.25-3.172.607-.167.856 1.172.971 2.13.633a1.55 1.55 0 0 0 1.042-1.24z" inkscape:connector-curvature="0" sodipodi:nodetypes="czcc"/><path style="fill:#d96920;fill-opacity:1;stroke:none;stroke-width:1px;stroke-linecap:butt;stroke-linejoin:miter;stroke-opacity:1" d="M-5.8 85.493c-.792-.236-2.357-.196-2.488.476-.13.672.92.761 1.671.496s.818-.972.818-.972z" inkscape:connector-curvature="0" sodipodi:nodetypes="czcc"/><path style="overflow:visible;fill:#a65828;fill-opacity:1;stroke:none;stroke-width:1.15097761px;stroke-linecap:butt;stroke-linejoin:miter;stroke-opacity:1" d="m-5.589 83.511.468 1.419s-3.695.964-3.409 1.935c.286.97 1.695.613 1.695.613s-.338.772.675.871c1.014.1 2.184-1.194 2.47-1.319.285-.124 1.299-.398 1.273-.672-.026-.273-.572-.87-.572-1.12 0-.248.312-2.19.312-2.19z" inkscape:connector-curvature="0" sodipodi:nodetypes="cccccccscc"/><path style="fill:#d96920;fill-opacity:1;stroke:none;stroke-width:1px;stroke-linecap:butt;stroke-linejoin:miter;stroke-opacity:1" d="m-5.203 83.792.398 1.26c-1.266.472-3.065.612-3.274 1.698.729 1.274 2.043-.658 2.614-.42-.846.403-1.13.887-1.13.887s-.287.685.575.773c.861.088 1.856-1.06 2.099-1.171.243-.11 1.105-.354 1.083-.597-.023-.243-.487-.773-.487-.994 0-.221.266-1.945.266-1.945z" inkscape:connector-curvature="0" sodipodi:nodetypes="ccccccccscc"/><path style="overflow:visible;fill:#d96920;fill-opacity:1;stroke:none;stroke-width:1px;stroke-linecap:butt;stroke-linejoin:miter;stroke-opacity:1" d="m2.472 84.23-.398 1.259c1.266.473 3.065.613 3.274 1.698-.729 1.275-2.043-.658-2.614-.42.846.404 1.13.887 1.13.887s.287.685-.575.774c-.861.088-1.856-1.061-2.099-1.172-.243-.11-1.105-.353-1.083-.596.022-.243.487-.774.487-.995 0-.22-.266-1.944-.266-1.944z" inkscape:connector-curvature="0" sodipodi:nodetypes="ccccccccscc"/><path style="overflow:visible;opacity:1;fill:#c18021;fill-opacity:1;stroke:none;stroke-width:1.05928123px;stroke-linecap:butt;stroke-linejoin:miter;stroke-opacity:1" d="M-12.412 81.353c3.522 5.629 15.79 4.69 18.887.794 3.098-3.898 4.646-8.501-.06-15.806-2.976-4.619-4.406-3.232-4.255-4.784-.842.398-1.414-.479-1.662-1.034-.06 0-1.529 1.082-1.478-.02-4.718 1.582-6.916 1.996-8.125 4.591-1.21 2.595-6.83 10.63-3.307 16.259z" inkscape:connector-curvature="0" sodipodi:nodetypes="cscccccsc"/><path style="overflow:visible;opacity:1;fill:#f7bd69;fill-opacity:1;stroke:none;stroke-width:1.00514257px;stroke-linecap:butt;stroke-linejoin:miter;stroke-opacity:1" d="M-8.741 65.63c-.926 1.705-6.686 9.619-3.33 14.94 3.355 5.322 15.04 4.435 17.99.75 2.95-3.683 4.425-8.035-.058-14.94-2.834-4.367-4.218-2.946-4.074-4.413C.821 61.863.612 61.402.4 60.943c-.04-.012-1.664 1.08-1.603.026-3.831 1.36-6.159 1.46-7.537 4.66z" inkscape:connector-curvature="0" sodipodi:nodetypes="cssccccc"/><path style="overflow:visible;opacity:1;fill:#2d2525;fill-opacity:1;stroke-width:.19366272" d="M-7.761 67.025c.224-1.166-1.051-1.359-1.093-.204-.033.915.865.945 1.093.204z" inkscape:connector-curvature="0"/><path d="M-4.61 67.723c.299-1.166-1.403-1.358-1.459-.204-.044.915 1.155.945 1.459.204z" inkscape:connector-curvature="0" style="overflow:visible;opacity:1;fill:#2d2525;fill-opacity:1;stroke-width:.22374198"/><path style="overflow:visible;fill:#a65828;fill-opacity:1;stroke:none;stroke-width:1.07914996px;stroke-linecap:butt;stroke-linejoin:miter;stroke-opacity:1" d="M-12.685 68.403c-.234 1.033 2.515 3.564 3.81 3.187 1.293-.377 2.396-1.815 1.758-3.097-.638-1.282-4.863-1.623-5.568-.09z" inkscape:connector-curvature="0"/><path style="overflow:visible;fill:#d96920;fill-opacity:1;stroke:none;stroke-width:.94181615px;stroke-linecap:butt;stroke-linejoin:miter;stroke-opacity:1" d="M-12.375 68.479c-.214.882 2.23 3.032 3.386 2.706 1.156-.326 2.147-1.557 1.583-2.649-.563-1.092-4.332-1.368-4.969-.057z" inkscape:connector-curvature="0"/><ellipse style="overflow:visible;opacity:1;fill:#f5ebe1;fill-opacity:1;stroke:none;stroke-width:1;stroke-miterlimit:4;stroke-dasharray:none;stroke-opacity:1" cx="-5.1728554" cy="67.517281" rx="0.37565044" ry="0.39774758"/><ellipse style="overflow:visible;opacity:1;fill:#f5ebe1;fill-opacity:1;stroke:none;stroke-width:1;stroke-miterlimit:4;stroke-dasharray:none;stroke-opacity:1" cx="-8.2222519" cy="66.85437" rx="0.37565044" ry="0.39774758"/></g><path style="overflow:visible;fill:#a0592e;fill-opacity:1;stroke:none;stroke-width:3.19547367px;stroke-linecap:butt;stroke-linejoin:miter;stroke-opacity:1" d="M53.65 85.757c2.533-.754 7.533-.625 7.95 1.521.418 2.146-2.937 2.434-5.338 1.586-2.4-.847-2.613-3.107-2.613-3.107z" inkscape:connector-curvature="0" sodipodi:nodetypes="czcc"/><path style="overflow:visible;fill:#e27d3a;fill-opacity:1;stroke:none;stroke-width:2.5061245px;stroke-linecap:butt;stroke-linejoin:miter;stroke-opacity:1" d="M54.51 86.095c1.988-.591 5.909-.49 6.237 1.193.328 1.683-2.304 1.908-4.187 1.244-1.883-.665-2.05-2.437-2.05-2.437z" inkscape:connector-curvature="0" sodipodi:nodetypes="czcc"/><path style="overflow:visible;fill:#a0592e;fill-opacity:1;stroke:none;stroke-width:2.88449311px;stroke-linecap:butt;stroke-linejoin:miter;stroke-opacity:1" d="m53.894 79.273-1.084 5.411s9.26 2.417 8.543 4.85c-.716 2.432-4.246 1.537-4.246 1.537s.847 1.933-1.693 2.183c-2.54.25-5.472-2.994-6.188-3.306-.717-.312-3.257-.998-3.192-1.684.065-.686 1.433-2.183 1.433-2.807 0-.624-.87-7.345-.87-7.345z" inkscape:connector-curvature="0" sodipodi:nodetypes="cccccccscc"/><path style="overflow:visible;fill:#e27d3a;fill-opacity:1;stroke:none;stroke-width:2.5061245px;stroke-linecap:butt;stroke-linejoin:miter;stroke-opacity:1" d="m52.927 79.975-.908 5.013c3.174 1.185 7.68 1.537 8.205 4.257-1.826 3.194-5.12-1.65-6.552-1.053 2.122 1.011 2.832 2.223 2.832 2.223s.72 1.716-1.44 1.938c-2.16.221-4.651-2.658-5.26-2.935-.61-.277-2.77-.886-2.714-1.495.056-.61 1.218-1.939 1.218-2.492 0-.554-.752-6.73-.752-6.73z" inkscape:connector-curvature="0" sodipodi:nodetypes="ccccccccscc"/><path style="overflow:visible;fill:#a0592e;fill-opacity:1;stroke:none;stroke-width:3.19547367px;stroke-linecap:butt;stroke-linejoin:miter;stroke-opacity:1" d="M36.154 84.838c-2.534-.754-7.534-.626-7.952 1.52-.417 2.147 2.938 2.434 5.34 1.587 2.4-.848 2.612-3.107 2.612-3.107z" inkscape:connector-curvature="0" sodipodi:nodetypes="czcc"/><path style="overflow:visible;fill:#e27d3a;fill-opacity:1;stroke:none;stroke-width:2.5061245px;stroke-linecap:butt;stroke-linejoin:miter;stroke-opacity:1" d="M35.292 85.175c-1.987-.59-5.908-.49-6.236 1.193-.327 1.683 2.304 1.909 4.187 1.244a3.045 3.045 0 0 0 2.05-2.437z" inkscape:connector-curvature="0" sodipodi:nodetypes="czcc"/><path style="overflow:visible;fill:#a0592e;fill-opacity:1;stroke:none;stroke-width:2.88449311px;stroke-linecap:butt;stroke-linejoin:miter;stroke-opacity:1" d="m35.82 78.21 1.173 5.554s-9.26 2.417-8.543 4.85c.716 2.432 4.246 1.537 4.246 1.537s-.847 1.933 1.693 2.183c2.54.25 5.472-2.994 6.188-3.306.717-.312 3.257-.998 3.192-1.684-.065-.686-1.433-2.183-1.433-2.807 0-.623.781-7.488.781-7.488z" inkscape:connector-curvature="0" sodipodi:nodetypes="cccccccscc"/><path style="overflow:visible;fill:#e27d3a;fill-opacity:1;stroke:none;stroke-width:2.5061245px;stroke-linecap:butt;stroke-linejoin:miter;stroke-opacity:1" d="m36.787 78.911.997 5.157c-3.174 1.186-7.68 1.537-8.205 4.257 1.826 3.194 5.12-1.65 6.552-1.052-2.122 1.01-2.832 2.222-2.832 2.222s-.72 1.717 1.44 1.938c2.16.222 4.651-2.658 5.26-2.935.61-.277 2.77-.886 2.714-1.495-.056-.61-1.218-1.938-1.218-2.492s.664-6.873.664-6.873z" inkscape:connector-curvature="0" sodipodi:nodetypes="ccccccccscc"/><path inkscape:connector-curvature="0" d="M21.407 53.05c-2.67 6.86-3.55 14.156-1.433 18.76 2.117 4.604 9.074 10.806 22.698 10.243 13.623-.564 20.251-1.88 24.578-5.826 4.326-3.946 4.97-6.859 5.8-8.174.828-1.316 2.393-3.57 1.748-5.638-.644-2.067-.092-4.134-1.012-6.107-.92-1.974.46-5.074-.184-7.047-.645-1.974-.185-4.792-1.013-6.014-.829-1.221-.796-2.883-1.716-3.447-.92-.564.947-2.849-.526-3.6-1.473-.752-10.699 2.13-13.645 7.203-2.945 5.074-6.884 6.139-8.725 6.514-1.841.376-26.57 3.134-26.57 3.134z" style="overflow:visible;fill:#976733;fill-opacity:1;stroke:none;stroke-width:1.05219579px;stroke-linecap:butt;stroke-linejoin:miter;stroke-opacity:1" sodipodi:nodetypes="cssssccscccssc"/><path inkscape:connector-curvature="0" d="M22.539 53.508c-2.563 6.452-3.89 12.728-1.856 17.059 2.033 4.33 9.192 10.518 22.274 9.988 13.081-.53 19.445-1.768 23.6-5.48 4.154-3.713 4.772-6.453 5.568-7.69.795-1.238 2.298-3.36 1.68-5.304-.62-1.944-.09-3.889-.973-5.745-.884-1.856.442-4.773-.177-6.629-.618-1.856-.177-4.508-.972-5.657-.796-1.149-.884-3.535-1.768-4.066-.884-.53 1.15-2.21-.265-2.917-1.414-.707-9.192 2.122-12.02 6.895-2.83 4.773-6.011 5.657-7.779 6.01-1.768.354-27.312 3.536-27.312 3.536z" style="fill:#c0803b;fill-opacity:1;stroke:none;stroke-width:1px;stroke-linecap:butt;stroke-linejoin:miter;stroke-opacity:1"/><path style="fill:#976733;fill-opacity:1;stroke:none;stroke-width:1px;stroke-linecap:butt;stroke-linejoin:miter;stroke-opacity:1" d="M56.127 50.768c3.8 1.326 6.806.53 5.745 1.326-1.06.795-5.215.53-6.453.176-1.237-.353.708-1.502.708-1.502z" inkscape:connector-curvature="0"/><path style="fill:#976733;fill-opacity:1;stroke:none;stroke-width:1px;stroke-linecap:butt;stroke-linejoin:miter;stroke-opacity:1" d="M50.116 72.865c9.9.618 18.297-3.094 19.004-5.215.707-2.121 2.386-3.094 2.121-4.331-.265-1.238 1.768-3.182.354-3.978-1.415-.795-3.448-.088-3.801-.707-.354-.618-4.154-1.237-5.303-1.59 1.339-.774 4.33 0 5.391.795 1.06.795 3.713.353 4.42 1.06.707.708 0 3.094 0 4.331 0 1.238-.987 2.911-1.591 4.42-.608 1.517-4.228 8.18-20.595 5.215z" inkscape:connector-curvature="0" sodipodi:nodetypes="cssccccsssc"/><path d="M54.546 85.306c-.005 0-.01 0-.014.002.303-.002.608-.002.916-.002h-.902z" inkscape:connector-curvature="0" style="opacity:.38100011;fill:#f60;stroke-width:.22374198"/><path style="overflow:visible;fill:#9e6a49;fill-opacity:1;stroke:none;stroke-width:1.03932452px;stroke-linecap:butt;stroke-linejoin:miter;stroke-opacity:1" d="M19.778 53.341c-.585.974 1.754 3.053 2.468 3.183-.468 4.162 3.366 7.377 9.032 4.467 1.04 2.339 2.735 5.789 7.997.982 1.884 3.183 7.258.902 8.427-4.814 2.344.732 10.559 2.189 10.211-4.39-.299-5.65-1.686-1.794-4.09-5.692-2.403-3.897-6.503-19.59-15.207-19.264-8.705.324-16.519 5.897-17.864 11.822-.581 2.56 1.332 6.171 1.332 6.171.032 3.053-1.722 6.56-2.306 7.535z" inkscape:connector-curvature="0" sodipodi:nodetypes="sccccsssscs"/><path style="fill:#edd0bd;fill-opacity:1;stroke:none;stroke-width:1px;stroke-linecap:butt;stroke-linejoin:miter;stroke-opacity:1" d="M20.5 53.062c-.563.938 1.688 2.938 2.375 3.063-.45 4.004 3.299 6.737 8.75 3.937 1 2.25 2.812 5.75 7.875 1.125 1.813 3.063 6.563.688 7.688-4.812 2.374 1.125 10.374 1.75 10.124-3.562-.25-5.313-1.562-1.126-3.875-4.876C51.125 44.187 47 28.187 38.625 28.5c-8.375.312-15.893 5.674-17.188 11.375-.559 2.463 1.282 5.937 1.282 5.937.031 2.938-1.657 6.313-2.219 7.25z" inkscape:connector-curvature="0" sodipodi:nodetypes="sccccsssscs"/><path style="overflow:visible;fill:#a64a27;fill-opacity:1;stroke:none;stroke-width:1.13938761px;stroke-linecap:butt;stroke-linejoin:miter;stroke-opacity:1" d="M26.351 50.246c-2.923 1.212-4.274 4.577-2.065 6.496 2.208 1.92 4.061-.158 4.463-2.582.401-2.425-2.398-3.914-2.398-3.914z" inkscape:connector-curvature="0" sodipodi:nodetypes="cscc"/><path style="overflow:visible;fill:#db5422;fill-opacity:1;stroke:none;stroke-width:1px;stroke-linecap:butt;stroke-linejoin:miter;stroke-opacity:1" d="M26.362 50.652c-2.574 1.061-3.764 4.005-1.819 5.684 1.945 1.68 3.576-.138 3.93-2.26.353-2.12-2.111-3.424-2.111-3.424z" inkscape:connector-curvature="0" sodipodi:nodetypes="cscc"/><path style="overflow:visible;fill:#a64a27;fill-opacity:1;stroke:none;stroke-width:1.13938761px;stroke-linecap:butt;stroke-linejoin:miter;stroke-opacity:1" d="M29.626 50.246c2.924 1.212 4.274 4.577 2.066 6.496-2.21 1.92-4.062-.158-4.464-2.582-.401-2.425 2.398-3.914 2.398-3.914z" inkscape:connector-curvature="0" sodipodi:nodetypes="cscc"/><path style="overflow:visible;fill:#db5422;fill-opacity:1;stroke:none;stroke-width:1px;stroke-linecap:butt;stroke-linejoin:miter;stroke-opacity:1" d="M29.615 50.652c2.574 1.061 3.764 4.005 1.82 5.684-1.945 1.68-3.577-.138-3.93-2.26-.354-2.12 2.11-3.424 2.11-3.424z" inkscape:connector-curvature="0" sodipodi:nodetypes="cscc"/><path style="overflow:visible;fill:#a0592e;fill-opacity:1;stroke:none;stroke-width:1.14061654px;stroke-linecap:butt;stroke-linejoin:miter;stroke-opacity:1" d="M30.064 48.015c-1.15-1.678-4.893-2.857-6.46.15-1.52 2.918-.059 5.662 1.262 6.244 2.17.957 5.097-1.46 5.5-2.97.404-1.51.203-2.92-.302-3.424z" inkscape:connector-curvature="0" sodipodi:nodetypes="csscc"/><path style="fill:#e27d3a;fill-opacity:1;stroke:none;stroke-width:1px;stroke-linecap:butt;stroke-linejoin:miter;stroke-opacity:1" d="M29.522 48.16c-1.008-1.473-4.285-2.508-5.657.133-1.33 2.56-.051 4.969 1.105 5.48 1.9.84 4.463-1.282 4.817-2.608.353-1.325.177-2.563-.265-3.005z" inkscape:connector-curvature="0" sodipodi:nodetypes="csscc"/><path style="overflow:visible;opacity:1;fill:#2d2525;fill-opacity:1;stroke-width:.22374198" d="M28.816 44.184c-.506-1.694 1.634-2.072 2.122-.399s-1.616 2.093-2.122.4z" inkscape:connector-curvature="0" sodipodi:nodetypes="zzz"/><path style="overflow:visible;opacity:1;fill:#2d2525;fill-opacity:1;stroke-width:.20920131" d="M23.932 43.757c.312-1.584 2.302-.998 1.984.562-.319 1.56-2.296 1.023-1.984-.562z" inkscape:connector-curvature="0" sodipodi:nodetypes="zzz"/><ellipse style="opacity:1;fill:#f5ebe1;fill-opacity:1;stroke:none;stroke-width:1;stroke-miterlimit:4;stroke-dasharray:none;stroke-opacity:1" cx="30.162525" cy="43.829205" rx="0.37565044" ry="0.39774758"/><ellipse style="overflow:visible;opacity:1;fill:#f5ebe1;fill-opacity:1;stroke:none;stroke-width:1;stroke-miterlimit:4;stroke-dasharray:none;stroke-opacity:1" cx="25.256971" cy="43.917591" rx="0.37565044" ry="0.39774758"/><path sodipodi:nodetypes="ccccccc" inkscape:connector-curvature="0" d="M38.152 31.576c-6.39-2.576-10.902 9.95-13.551 9.465-2.99-1.667-3.538-6.261-1.336-7.256-.229-4.802 2.898-11.606 7.391-7.238 2.334-4.91 5.404-1.994 7.214-.88 2.08-.906 3.072.663 2.75 2.49-.323 1.825-1.327 3.386-2.468 3.42z" style="overflow:visible;opacity:1;fill:#a64a27;fill-opacity:1;stroke-width:.24270447"/><path sodipodi:nodetypes="ccccccc" inkscape:connector-curvature="0" d="M37.744 31.076c-6.081-2.3-10.63 9.515-13.15 9.082-2.845-1.488-1.937-5.59-.683-5.926-.217-4.288 2.422-10.916 6.699-7.016 3.23-4.384 5.143-1.938 6.866-.943 1.979-.81 2.923.592 2.616 2.223-.307 1.63-1.262 2.55-2.348 2.58z" style="overflow:visible;opacity:1;fill:#db5422;fill-opacity:1;stroke-width:.22374198"/><g transform="translate(-20)"><path d="M96.97 93.752c.014-.005.028-.006.042-.012l-.028-.03c-.002.014-.01.028-.013.042z" inkscape:connector-curvature="0" style="opacity:.38100011;fill:none;stroke-width:.22374198"/><path d="M90.737 94.28c-.214.38.104.614.472.672a2.153 2.153 0 0 1-.147-.038c-.347-.109-.401-.363-.325-.635z" inkscape:connector-curvature="0" style="opacity:.38100011;fill:none;stroke-width:.22374198"/><path style="overflow:visible;fill:#a65828;fill-opacity:1;stroke:none;stroke-width:1.27506578px;stroke-linecap:butt;stroke-linejoin:miter;stroke-opacity:1" d="M93.898 92.89c1.011-.301 3.006-.25 3.173.606.167.856-1.172.971-2.13.633-.958-.338-1.043-1.24-1.043-1.24z" inkscape:connector-curvature="0" sodipodi:nodetypes="czcc"/><path d="M91.85 92.1c.023.073.043.14.06.206a.986.986 0 0 1 .096-.226c-.052.009-.105.012-.157.02z" inkscape:connector-curvature="0" style="opacity:.38100011;fill:none;stroke-width:.22374198"/><path d="M84.814 94.449c-.006 0-.013 0-.017.002a.328.328 0 0 0 .027.219.54.54 0 0 1-.01-.221z" inkscape:connector-curvature="0" style="opacity:.38100011;fill:none;stroke-width:.22374198"/><path d="M87.05 72.207c-.073-.027-.06-.022 0 0z" inkscape:connector-curvature="0" style="opacity:.38100011;fill:#ffb442;stroke-width:.22374198"/><path style="overflow:visible;fill:#d96920;fill-opacity:1;stroke:none;stroke-width:1px;stroke-linecap:butt;stroke-linejoin:miter;stroke-opacity:1" d="M94.242 93.024c.793-.236 2.357-.196 2.488.476.13.672-.92.762-1.67.496-.752-.265-.818-.972-.818-.972z" inkscape:connector-curvature="0" sodipodi:nodetypes="czcc"/><path d="M84.824 94.67a.61.61 0 0 0 .167.204c.3.25 1.117-.035 1.414-.23.36-.238.444-.635.746-.895.122-.105.28.022.332-.009.105-.061.53-.432.53-.536 0-.353-.321-.598-.3-1.005.07-.056.12-.152.177-.222-.443-.076-.885-.152-1.327-.23.113.488.071.9-.44.91a5.027 5.027 0 0 0-1.734.374c-.3.12-1.287.515-1.096 1.002.156.397.931.104 1.167.133.164-.524.771-.863 1.272-.992.44-.114 1.087-.155.469.266-.28.19-1.303.558-1.404 1.011l.017-.002a.539.539 0 0 0 .01.22z" inkscape:connector-curvature="0" style="opacity:.38100011;fill:#f60;stroke-width:.22374198"/><path d="M83.24 92.792c-.244.153-.941.621-.31.824.199-.52.652-.79 1.167-.966-.265.007-.684-.09-.857.142z" inkscape:connector-curvature="0" style="opacity:.38100011;fill:#f60;stroke-width:.22374198"/><path style="overflow:visible;fill:#a65828;fill-opacity:1;stroke:none;stroke-width:1.15097761px;stroke-linecap:butt;stroke-linejoin:miter;stroke-opacity:1" d="m94.031 91.042-.468 1.419s3.695.964 3.41 1.935c-.287.97-1.695.613-1.695.613s.338.772-.676.872c-1.014.1-2.183-1.195-2.469-1.32-.286-.124-1.3-.398-1.274-.672.026-.273.572-.87.572-1.12 0-.248-.312-2.19-.312-2.19z" inkscape:connector-curvature="0" sodipodi:nodetypes="cccccccscc"/><path style="overflow:visible;fill:#a65828;fill-opacity:1;stroke:none;stroke-width:1.27506578px;stroke-linecap:butt;stroke-linejoin:miter;stroke-opacity:1" d="M85.718 92.452c-1.011-.301-3.006-.25-3.173.607-.167.856 1.172.97 2.13.633.958-.338 1.043-1.24 1.043-1.24z" inkscape:connector-curvature="0" sodipodi:nodetypes="czcc"/><path style="fill:#d96920;fill-opacity:1;stroke:none;stroke-width:1px;stroke-linecap:butt;stroke-linejoin:miter;stroke-opacity:1" d="M85.374 92.587c-.793-.236-2.357-.196-2.488.476-.131.671.92.761 1.67.496.752-.265.818-.972.818-.972z" inkscape:connector-curvature="0" sodipodi:nodetypes="czcc"/><path style="overflow:visible;fill:#a65828;fill-opacity:1;stroke:none;stroke-width:1.15097761px;stroke-linecap:butt;stroke-linejoin:miter;stroke-opacity:1" d="m85.585 90.605.468 1.419s-3.695.964-3.41 1.934c.287.971 1.695.614 1.695.614s-.338.771.676.871c1.013.1 2.183-1.195 2.469-1.319.286-.124 1.3-.398 1.273-.672-.026-.274-.571-.871-.571-1.12 0-.249.311-2.19.311-2.19z" inkscape:connector-curvature="0" sodipodi:nodetypes="cccccccscc"/><path style="fill:#d96920;fill-opacity:1;stroke:none;stroke-width:1px;stroke-linecap:butt;stroke-linejoin:miter;stroke-opacity:1" d="m85.97 90.885.398 1.26c-1.266.473-3.064.613-3.274 1.698.73 1.275 2.043-.658 2.615-.42-.847.404-1.13.887-1.13.887s-.288.685.574.774c.862.088 1.856-1.061 2.1-1.172.242-.11 1.104-.353 1.082-.596-.022-.243-.486-.774-.486-.995 0-.22.265-1.944.265-1.944z" inkscape:connector-curvature="0" sodipodi:nodetypes="ccccccccscc"/><path style="overflow:visible;fill:#d96920;fill-opacity:1;stroke:none;stroke-width:1px;stroke-linecap:butt;stroke-linejoin:miter;stroke-opacity:1" d="m93.645 91.323-.398 1.26c1.267.472 3.065.613 3.275 1.698-.73 1.275-2.043-.658-2.615-.42.847.403 1.13.887 1.13.887s.288.685-.574.773c-.862.088-1.856-1.06-2.1-1.171-.242-.11-1.104-.354-1.082-.597.022-.243.486-.773.486-.994 0-.221-.265-1.945-.265-1.945z" inkscape:connector-curvature="0" sodipodi:nodetypes="ccccccccscc"/><path style="overflow:visible;opacity:1;fill:#c18021;fill-opacity:1;stroke:none;stroke-width:1.05386162px;stroke-linecap:butt;stroke-linejoin:miter;stroke-opacity:1" d="M80.194 89.154c3.806 5.157 17.06 4.298 20.407.728 3.347-3.57 5.02-7.788-.065-14.48-3.216-4.231-6.92-4.793-6.758-6.215-.91.364-1.527-.439-1.795-.947-.065 0-1.652.991-1.597-.02-5.098 1.45-7.473 3.663-8.78 6.04-1.306 2.377-5.218 9.737-1.412 14.894z" inkscape:connector-curvature="0" sodipodi:nodetypes="sscccccs"/><path style="overflow:visible;opacity:1;fill:#f7bd69;fill-opacity:1;stroke:none;stroke-width:1px;stroke-linecap:butt;stroke-linejoin:miter;stroke-opacity:1" d="M82 74.75c-1 1.562-5.063 8.813-1.438 13.687 3.625 4.875 16.25 4.063 19.438.688 3.188-3.375 4.78-7.361-.063-13.688-3.062-4-6.717-4.53-6.562-5.875-1.044-.095-1.27-.517-1.5-.937-.044-.01-1.797.988-1.731.024-4.14 1.245-6.655 3.169-8.144 6.101z" inkscape:connector-curvature="0" sodipodi:nodetypes="cssccccc"/><path style="overflow:visible;opacity:1;fill:#2d2525;fill-opacity:1;stroke-width:.22374198" d="M87.778 72.306c.3-1.166-1.403-1.358-1.458-.204-.044.915 1.154.945 1.458.204z" inkscape:connector-curvature="0"/><ellipse ry="0.39774758" rx="0.37565044" cy="72.11348" cx="87.153046" style="overflow:visible;opacity:1;fill:#f5ebe1;fill-opacity:1;stroke:none;stroke-width:1;stroke-miterlimit:4;stroke-dasharray:none;stroke-opacity:1"/><path d="M92.75 74.254c.3-1.166-1.402-1.358-1.458-.204-.044.915 1.155.945 1.459.204z" inkscape:connector-curvature="0" style="overflow:visible;opacity:1;fill:#2d2525;fill-opacity:1;stroke-width:.22374198"/><path style="overflow:visible;fill:#a65828;fill-opacity:1;stroke:none;stroke-width:1.145818px;stroke-linecap:butt;stroke-linejoin:miter;stroke-opacity:1" d="M83.919 73.228c-.35 1.136 2.1 4.25 3.43 3.957 1.33-.293 2.59-1.796 2.1-3.298-.49-1.502-4.655-2.308-5.53-.659z" inkscape:connector-curvature="0"/><path style="overflow:visible;fill:#d96920;fill-opacity:1;stroke:none;stroke-width:1px;stroke-linecap:butt;stroke-linejoin:miter;stroke-opacity:1" d="M84.219 73.344c-.313.968 1.875 3.625 3.062 3.375 1.188-.25 2.313-1.532 1.875-2.813-.437-1.281-4.156-1.969-4.937-.562z" inkscape:connector-curvature="0"/><ellipse style="overflow:visible;opacity:1;fill:#f5ebe1;fill-opacity:1;stroke:none;stroke-width:1;stroke-miterlimit:4;stroke-dasharray:none;stroke-opacity:1" cx="92.191185" cy="74.102211" rx="0.37565044" ry="0.39774758"/></g></g></svg>