<?xml version="1.0" encoding="UTF-8" standalone="no"?>
<!-- Created with Inkscape (http://www.inkscape.org/) -->
<svg
   xmlns:dc="http://purl.org/dc/elements/1.1/"
   xmlns:cc="http://web.resource.org/cc/"
   xmlns:rdf="http://www.w3.org/1999/02/22-rdf-syntax-ns#"
   xmlns:svg="http://www.w3.org/2000/svg"
   xmlns="http://www.w3.org/2000/svg"
   xmlns:sodipodi="http://sodipodi.sourceforge.net/DTD/sodipodi-0.dtd"
   xmlns:inkscape="http://www.inkscape.org/namespaces/inkscape"
   width="100"
   height="100"
   id="svg2"
   sodipodi:version="0.32"
   inkscape:version="0.44.1"
   version="1.0"
   sodipodi:docbase="/home/mat/Travaux/Inkscape/Gcompris/boardicons"
   sodipodi:docname="electric.svg">
  <defs
     id="defs4" />
  <sodipodi:namedview
     id="base"
     pagecolor="#ffffff"
     bordercolor="#666666"
     borderopacity="1.0"
     inkscape:pageopacity="0.0"
     inkscape:pageshadow="2"
     inkscape:zoom="4.4466433"
     inkscape:cx="73.579519"
     inkscape:cy="46.780231"
     inkscape:document-units="px"
     inkscape:current-layer="layer1"
     width="100px"
     height="100px"
     inkscape:window-width="1102"
     inkscape:window-height="837"
     inkscape:window-x="81"
     inkscape:window-y="18" />
  <metadata
     id="metadata7">
    <rdf:RDF>
      <cc:Work
         rdf:about="">
        <dc:format>image/svg+xml</dc:format>
        <dc:type
           rdf:resource="http://purl.org/dc/dcmitype/StillImage" />
      </cc:Work>
    </rdf:RDF>
  </metadata>
  <g
     inkscape:label="Calque 1"
     inkscape:groupmode="layer"
     id="layer1">
    <path
       style="fill:black;fill-opacity:0.31378299;fill-rule:evenodd;stroke:none;stroke-width:1px;stroke-linecap:butt;stroke-linejoin:miter;stroke-opacity:1"
       d="M 71.719248,11.624424 L 63.312998,15.093174 C 63.312998,15.093174 56.606194,20.479595 55.406748,21.218174 C 54.207299,21.956754 50.594248,30.343174 50.594248,30.343174 C 50.594248,30.343174 51.250494,42.178515 51.250498,43.655674 C 51.250498,45.132832 57.125496,52.218172 57.125498,52.218174 L 62.219248,57.249424 L 63.469248,57.999424 L 62.187998,57.374424 L 63.656748,63.311924 L 61.281748,66.968174 L 63.969248,70.561924 L 61.625498,73.249424 L 64.031748,77.155674 L 61.531748,80.968174 L 66.031748,84.374424 L 73.375498,84.905674 C 73.375498,84.905675 79.260758,84.883686 80.437998,84.624424 C 81.615238,84.365165 85.156748,82.811924 85.156748,82.811924 L 87.062998,80.624424 L 85.156748,77.124424 L 87.312998,73.468174 L 84.750498,70.561924 L 86.625498,66.218174 L 84.062998,63.374424 L 86.750498,58.311924 L 87.062998,58.218174 L 92.344248,53.499424 L 95.719248,48.311924 L 99.531748,39.436924 L 97.625498,26.405674 L 92.094248,16.811924 L 82.031748,12.124424 L 71.719248,11.624424 z M 22.906748,11.780674 L 14.406748,13.155674 L 5.5942482,18.155674 L 3.2504982,22.280674 L 3.0629982,22.155674 L 3.0629982,22.593174 L 3.0004982,22.718174 L 3.0629982,22.749424 L 3.2817482,41.718174 L 3.7817482,66.468174 L 3.3129982,82.968174 L 10.750498,88.124424 L 18.406748,91.343174 L 30.656748,92.561924 L 46.719248,86.155674 C 47.953512,84.522942 47.576203,69.290205 46.500498,55.405674 C 46.500499,54.174711 47.219248,37.905674 47.219248,37.905674 L 46.500498,22.655674 L 45.781748,20.436924 L 45.562998,20.561924 L 45.937998,20.218174 L 44.750498,17.749424 L 41.156748,14.874424 L 32.406748,12.030674 L 22.906748,11.780674 z "
       id="path12622" />
    <path
       style="fill:black;fill-opacity:1;fill-rule:evenodd;stroke:none;stroke-width:1px;stroke-linecap:butt;stroke-linejoin:miter;stroke-opacity:1"
       d="M 0.82740222,15.40985 L 1.0410758,34.965538 L 1.5470714,59.724617 L 1.0672921,76.219557 L 8.5038739,81.389614 L 16.180344,84.590125 L 28.414722,85.82109 L 44.487334,79.420069 C 45.721597,77.787337 45.323147,62.530456 44.247442,48.645925 C 44.247442,47.414959 44.967112,31.166211 44.967112,31.166211 L 44.247442,15.902235 L 43.527774,13.686496 L 33.348701,19.44894 L 20.49836,22.795643 L 10.947778,21.272295 L 3.9459688,17.625587 L 0.82740222,15.40985 z "
       id="path1872"
       sodipodi:nodetypes="ccccccccccccccccc" />
    <path
       style="fill:black;fill-opacity:1;fill-rule:evenodd;stroke:none;stroke-width:1px;stroke-linecap:butt;stroke-linejoin:miter;stroke-opacity:1"
       d="M 0.76633204,15.963517 L 3.3573811,11.423378 L 12.180868,6.4071337 L 20.654497,5.0299748 L 30.158909,5.2761682 L 38.931124,8.1240562 L 42.503255,11.011707 L 43.702703,13.473638 L 39.047358,17.732018 L 32.70652,21.464678 L 24.141714,23.733712 L 15.111675,23.577099 L 11.0777,21.844206 L 4.2320276,17.898687 L 0.76633204,15.963517 z "
       id="path1874"
       sodipodi:nodetypes="ccccccccccccccc" />
    <path
       style="fill:#ccc;fill-opacity:1;fill-rule:evenodd;stroke:none;stroke-width:1px;stroke-linecap:butt;stroke-linejoin:miter;stroke-opacity:1"
       d="M 3.7825861,14.725029 L 6.9524431,11.51953 L 14.16926,7.9702202 L 21.154971,7.3183144 L 29.014339,7.3845927 L 36.318541,9.5703121 L 40.624461,13.122611 L 36.678741,16.591654 L 31.304453,19.632426 L 24.045202,20.461815 L 17.011493,20.538042 L 12.972567,19.941604 L 7.170397,16.727429 L 3.7825861,14.725029 z "
       id="path4542"
       sodipodi:nodetypes="cccccccccccccc" />
    <path
       style="fill:none;fill-opacity:0.75;fill-rule:evenodd;stroke:black;stroke-width:1.40879405px;stroke-linecap:butt;stroke-linejoin:miter;stroke-opacity:1"
       d="M 17.191175,9.1485909 L 21.509191,8.6562042 L 27.026654,8.4100109 L 28.705882,9.887171 L 24.627757,12.102908 L 20.789521,12.595295 L 17.191175,9.1485909 z "
       id="path1876" />
    <path
       style="fill:none;fill-opacity:0.75;fill-rule:evenodd;stroke:black;stroke-width:1.40879405px;stroke-linecap:butt;stroke-linejoin:miter;stroke-opacity:1"
       d="M 16.951286,9.6409776 L 16.711396,13.82626 L 18.150734,16.288192 L 21.98897,16.780579 L 26.306985,16.041999 L 28.705882,14.811034 L 28.705882,9.6409776 L 26.067095,11.36433 L 22.468749,12.102908 L 16.951286,9.6409776 z "
       id="path1878" />
    <path
       style="fill:#f95;fill-opacity:1;fill-rule:evenodd;stroke:none;stroke-width:1.10059297px;stroke-linecap:butt;stroke-linejoin:miter;stroke-opacity:1"
       d="M 4.2117538,20.170841 L 6.8779978,22.384706 L 14.064663,25.223981 L 25.412029,25.223981 L 35.246412,21.911492 L 41.396027,18.739759 L 41.42057,40.188254 L 35.752903,43.536794 L 25.412029,45.572128 L 16.712382,45.572128 L 9.9039625,42.259638 L 4.2849009,38.7915 L 4.2117538,20.170841 z "
       id="path2770"
       sodipodi:nodetypes="ccccccccccccc" />
    <path
       style="fill:white;fill-opacity:0.61583581;fill-rule:evenodd;stroke:none;stroke-width:1px;stroke-linecap:butt;stroke-linejoin:miter;stroke-opacity:1"
       d="M 3.676256,19.770787 L 4.1638158,73.310484 L 7.5767342,76.062524 L 8.0642933,23.023199 L 3.676256,19.770787 z "
       id="path4544" />
    <path
       style="fill:white;fill-opacity:0.52492664;fill-rule:evenodd;stroke:none;stroke-width:1px;stroke-linecap:butt;stroke-linejoin:miter;stroke-opacity:1"
       d="M 20.148918,12.711842 L 20.009506,15.732247 L 18.73823,15.571387 L 17.345257,13.319717 L 17.641029,10.460172 L 20.148918,12.711842 z "
       id="path5431"
       sodipodi:nodetypes="cccccc" />
    <path
       style="fill:white;fill-opacity:0.52492664;fill-rule:evenodd;stroke:none;stroke-width:1px;stroke-linecap:butt;stroke-linejoin:miter;stroke-opacity:1"
       d="M 13.978646,8.1850797 L 12.463307,10.524794 L 8.8164304,12.642082 L 9.3473163,14.670047 L 12.57634,19.467047 L 7.7365579,16.98377 L 3.906557,14.553453 L 6.9448474,11.515849 L 13.978646,8.1850797 z "
       id="path6318"
       sodipodi:nodetypes="ccccccccc" />
    <g
       id="g7209"
       transform="matrix(1.389674,-5.323815e-2,5.187506e-2,1.42619,26.24785,-37.82636)">
      <path
         id="path6320"
         d="M -5.4917151,45.235989 L -3.3104762,45.375192 L -3.4782637,49.272879 L -3.2545469,53.309769 L -5.8832195,53.124165 L -5.3798566,49.133676 L -5.4917151,45.235989 z "
         style="fill:black;fill-opacity:1;fill-rule:evenodd;stroke:none;stroke-width:1px;stroke-linecap:butt;stroke-linejoin:miter;stroke-opacity:1" />
      <path
         id="path7207"
         d="M -0.46940575,48.068403 L -0.60860875,50.249642 L -4.5062958,50.081854 L -8.5431856,50.305571 L -8.3575816,47.676899 L -4.3670928,48.180262 L -0.46940575,48.068403 z "
         style="fill:black;fill-opacity:1;fill-rule:evenodd;stroke:none;stroke-width:1px;stroke-linecap:butt;stroke-linejoin:miter;stroke-opacity:1" />
    </g>
    <path
       transform="matrix(0,-0.858212,1.165213,0,0,0)"
       style="font-size:6.77343273px;font-style:normal;font-variant:normal;font-weight:bold;font-stretch:normal;text-align:start;line-height:125%;writing-mode:lr-tb;text-anchor:start;fill:white;fill-opacity:1;stroke:none;stroke-width:1px;stroke-linecap:butt;stroke-linejoin:miter;stroke-opacity:1;font-family:Bitstream Vera Sans"
       d="M -88.969532,21.656002 C -89.287041,21.810345 -89.616672,21.926102 -89.958426,22.003273 C -90.300189,22.080444 -90.652971,22.11903 -91.016775,22.11903 C -91.839203,22.11903 -92.490748,21.889721 -92.971413,21.431103 C -93.452081,20.970281 -93.692414,20.346297 -93.692414,19.559149 C -93.692414,18.763185 -93.447671,18.136996 -92.958184,17.680579 C -92.468699,17.224171 -91.798412,16.995965 -90.947321,16.99596 C -90.618795,16.995965 -90.304598,17.026833 -90.004729,17.088565 C -89.702663,17.150307 -89.418232,17.24181 -89.151435,17.363075 L -89.151435,18.385043 C -89.427052,18.228499 -89.701561,18.11164 -89.974963,18.034465 C -90.246169,17.957298 -90.518473,17.918712 -90.791876,17.918708 C -91.299004,17.918712 -91.690373,18.060927 -91.965982,18.345355 C -92.239391,18.627585 -92.376094,19.032182 -92.376092,19.559149 C -92.376094,20.08171 -92.2438,20.485205 -91.979211,20.769635 C -91.714626,21.054067 -91.338692,21.196283 -90.851408,21.196282 C -90.719118,21.196283 -90.596747,21.188566 -90.484294,21.173131 C -90.369643,21.155492 -90.267115,21.129034 -90.176711,21.093754 L -90.176711,20.134626 L -90.953936,20.134626 L -90.953936,19.281332 L -88.969532,19.281332 L -88.969532,21.656002 M -83.93576,21.751915 C -84.169483,21.873184 -84.413123,21.964687 -84.666682,22.026424 C -84.920248,22.088161 -85.184835,22.11903 -85.460444,22.11903 C -86.282871,22.11903 -86.934417,21.889721 -87.415082,21.431103 C -87.895749,20.970281 -88.136082,20.346297 -88.136082,19.559149 C -88.136082,18.7698 -87.895749,18.145816 -87.415082,17.687194 C -86.934417,17.226376 -86.282871,16.995965 -85.460444,16.99596 C -85.184835,16.995965 -84.920248,17.026833 -84.666682,17.088565 C -84.413123,17.150307 -84.169483,17.24181 -83.93576,17.363075 L -83.93576,18.385043 C -84.171688,18.224089 -84.404304,18.106128 -84.633609,18.031157 C -84.862921,17.956195 -85.104357,17.918712 -85.357916,17.918708 C -85.812127,17.918712 -86.169319,18.064235 -86.429494,18.355277 C -86.689674,18.646326 -86.819762,19.047616 -86.819761,19.559149 C -86.819762,20.068481 -86.689674,20.468669 -86.429494,20.759713 C -86.169319,21.05076 -85.812127,21.196283 -85.357916,21.196282 C -85.104357,21.196283 -84.862921,21.1588 -84.633609,21.083832 C -84.404304,21.008867 -84.171688,20.890905 -83.93576,20.729947 L -83.93576,21.751915 M -81.167516,19.076277 C -81.429901,19.07628 -81.630546,19.17109 -81.769452,19.360708 C -81.906157,19.548127 -81.974509,19.819328 -81.974507,20.174314 C -81.974509,20.529303 -81.906157,20.801607 -81.769452,20.991227 C -81.630546,21.178644 -81.429901,21.272352 -81.167516,21.272351 C -80.909546,21.272352 -80.712209,21.178644 -80.575503,20.991227 C -80.438802,20.801607 -80.370451,20.529303 -80.370447,20.174314 C -80.370451,19.819328 -80.438802,19.548127 -80.575503,19.360708 C -80.712209,19.17109 -80.909546,19.07628 -81.167516,19.076277 M -81.167516,18.229598 C -80.530305,18.229602 -80.033102,18.401583 -79.675906,18.745543 C -79.316513,19.089509 -79.136814,19.565766 -79.13681,20.174314 C -79.136814,20.782866 -79.316513,21.259122 -79.675906,21.603085 C -80.033102,21.947048 -80.530305,22.11903 -81.167516,22.11903 C -81.806937,22.11903 -82.307448,21.947048 -82.669049,21.603085 C -83.028447,21.259122 -83.208146,20.782866 -83.208145,20.174314 C -83.208146,19.565766 -83.028447,19.089509 -82.669049,18.745543 C -82.307448,18.401583 -81.806937,18.229602 -81.167516,18.229598 M -74.840574,18.934061 C -74.690646,18.704756 -74.513152,18.530569 -74.308092,18.411502 C -74.100837,18.290236 -73.873733,18.229602 -73.62678,18.229598 C -73.201242,18.229602 -72.877123,18.360793 -72.654422,18.623171 C -72.431735,18.885557 -72.320388,19.267003 -72.320381,19.767511 L -72.320381,22.023117 L -73.511023,22.023117 L -73.511023,20.09163 C -73.508824,20.062969 -73.507721,20.033203 -73.507716,20.002332 C -73.505517,19.971466 -73.504414,19.927368 -73.504409,19.870039 C -73.504414,19.607659 -73.543,19.418038 -73.620166,19.301176 C -73.697342,19.182115 -73.821918,19.122583 -73.993895,19.12258 C -74.218799,19.122583 -74.392985,19.215188 -74.516455,19.400396 C -74.637728,19.58561 -74.700568,19.853504 -74.704973,20.20408 L -74.704973,22.023117 L -75.895616,22.023117 L -75.895616,20.09163 C -75.895619,19.681523 -75.930897,19.418038 -76.001451,19.301176 C -76.07201,19.182115 -76.197689,19.122583 -76.378487,19.12258 C -76.605594,19.122583 -76.780883,19.21629 -76.904355,19.403704 C -77.02783,19.588917 -77.089567,19.854607 -77.089566,20.200773 L -77.089566,22.023117 L -78.280208,22.023117 L -78.280208,18.318896 L -77.089566,18.318896 L -77.089566,18.8613 C -76.944044,18.651838 -76.777575,18.494189 -76.590157,18.38835 C -76.400539,18.282519 -76.192177,18.229602 -75.96507,18.229598 C -75.709305,18.229602 -75.483304,18.291339 -75.287065,18.414809 C -75.090833,18.538286 -74.942003,18.71137 -74.840574,18.934061 M -70.025087,21.487328 L -70.025087,23.432044 L -71.209114,23.432044 L -71.209114,18.318896 L -70.025087,18.318896 L -70.025087,18.8613 C -69.861926,18.645224 -69.681125,18.486471 -69.482683,18.385043 C -69.284245,18.281417 -69.056039,18.229602 -68.798063,18.229598 C -68.341654,18.229602 -67.966822,18.411505 -67.673568,18.775309 C -67.380321,19.136914 -67.233696,19.603249 -67.233692,20.174314 C -67.233696,20.745383 -67.380321,21.21282 -67.673568,21.576626 C -67.966822,21.938229 -68.341654,22.11903 -68.798063,22.11903 C -69.056039,22.11903 -69.284245,22.068317 -69.482683,21.966892 C -69.681125,21.863262 -69.861926,21.703408 -70.025087,21.487328 M -69.23794,19.089506 C -69.491505,19.089509 -69.686638,19.183217 -69.823339,19.37063 C -69.957839,19.555844 -70.025088,19.823738 -70.025087,20.174314 C -70.025088,20.524893 -69.957839,20.79389 -69.823339,20.981305 C -69.686638,21.166517 -69.491505,21.259122 -69.23794,21.259121 C -68.98438,21.259122 -68.791452,21.166517 -68.659155,20.981305 C -68.52466,20.796095 -68.457411,20.527098 -68.457407,20.174314 C -68.457411,19.821533 -68.52466,19.552536 -68.659155,19.367323 C -68.791452,19.182115 -68.98438,19.089509 -69.23794,19.089506 M -63.602232,19.327635 C -63.705866,19.27913 -63.809496,19.243852 -63.913122,19.2218 C -64.01455,19.197549 -64.117078,19.185422 -64.220705,19.185419 C -64.524983,19.185422 -64.759804,19.28354 -64.925168,19.479772 C -65.088332,19.673805 -65.169913,19.952724 -65.169912,20.31653 L -65.169912,22.023117 L -66.353939,22.023117 L -66.353939,18.318896 L -65.169912,18.318896 L -65.169912,18.927447 C -65.017776,18.684912 -64.84359,18.50852 -64.647352,18.398272 C -64.448914,18.285826 -64.211888,18.229602 -63.936274,18.229598 C -63.896589,18.229602 -63.853593,18.231807 -63.807288,18.236213 C -63.760988,18.238421 -63.693739,18.245036 -63.60554,18.256057 L -63.602232,19.327635 M -63.006911,18.318896 L -61.822883,18.318896 L -61.822883,22.023117 L -63.006911,22.023117 L -63.006911,18.318896 M -63.006911,16.876896 L -61.822883,16.876896 L -61.822883,17.842639 L -63.006911,17.842639 L -63.006911,16.876896 M -57.784621,18.434653 L -57.784621,19.334249 C -58.038187,19.228417 -58.28293,19.149041 -58.51885,19.096121 C -58.754776,19.043207 -58.97747,19.016748 -59.186933,19.016745 C -59.411834,19.016748 -59.579406,19.045411 -59.689649,19.102736 C -59.79769,19.157861 -59.85171,19.243852 -59.851708,19.360708 C -59.85171,19.455521 -59.810919,19.528283 -59.729337,19.578993 C -59.645553,19.629708 -59.496722,19.667191 -59.282846,19.691442 L -59.074483,19.721208 C -58.468141,19.798382 -58.060236,19.925163 -57.850768,20.101552 C -57.641306,20.277946 -57.536574,20.554659 -57.53657,20.931695 C -57.536574,21.326371 -57.682097,21.622929 -57.973139,21.821369 C -58.264188,22.01981 -58.698552,22.11903 -59.276231,22.11903 C -59.520976,22.11903 -59.774539,22.099186 -60.036919,22.059498 C -60.297098,22.022015 -60.564992,21.964687 -60.840603,21.887516 L -60.840603,20.98792 C -60.60468,21.102575 -60.363245,21.188566 -60.116296,21.245892 C -59.867144,21.30322 -59.614684,21.331884 -59.358915,21.331883 C -59.127403,21.331884 -58.953217,21.299913 -58.836355,21.23597 C -58.719498,21.172029 -58.661069,21.077219 -58.661066,20.951539 C -58.661069,20.845705 -58.701859,20.767431 -58.783438,20.716718 C -58.862816,20.663802 -59.022671,20.623011 -59.263002,20.594346 L -59.471364,20.567887 C -59.998335,20.501742 -60.367654,20.379371 -60.579323,20.200773 C -60.790994,20.022178 -60.896828,19.750977 -60.896828,19.387167 C -60.896828,18.994699 -60.76233,18.703653 -60.493332,18.514029 C -60.224336,18.324412 -59.812022,18.229602 -59.256387,18.229598 C -59.038105,18.229602 -58.808796,18.246138 -58.56846,18.279208 C -58.32813,18.312285 -58.06685,18.3641 -57.784621,18.434653"
       id="text7213" />
    <path
       style="fill:black;fill-opacity:1;fill-rule:evenodd;stroke:none;stroke-width:1px;stroke-linecap:butt;stroke-linejoin:miter;stroke-opacity:1"
       d="M 59.964878,50.494022 L 54.882059,45.459616 C 54.882059,45.459616 49.002724,38.374662 49.002724,36.897504 C 49.002724,35.420344 48.364063,23.597939 48.364063,23.597939 C 48.364063,23.597939 51.96241,15.227373 53.161859,14.488793 C 54.361308,13.750214 61.078221,8.3339653 61.078221,8.3339653 L 69.474363,4.8872619 L 79.789625,5.3796491 L 89.864995,10.057317 L 95.382459,19.658849 L 97.301583,32.707085 L 93.46334,41.570037 L 90.104885,46.740092 L 84.835517,51.470371 L 79.840885,53.202146 C 79.840885,53.202146 73.552489,54.72349 72.113151,54.72349 C 70.673813,54.72349 66.115906,54.125886 66.115906,54.125886 L 59.964878,50.494022 z "
       id="path1880"
       sodipodi:nodetypes="ccscsccccccccccscc" />
    <path
       style="fill:black;fill-opacity:1;fill-rule:evenodd;stroke:none;stroke-width:1.09785068px;stroke-linecap:butt;stroke-linejoin:miter;stroke-opacity:1"
       d="M 59.949994,50.617274 L 61.406057,56.573566 L 59.026244,60.225052 L 61.735012,63.826444 L 59.38053,66.491547 L 61.782437,70.41978 L 59.298237,74.225139 L 63.804948,77.62625 L 71.130618,78.147229 C 71.130618,78.147229 77.016822,78.147229 78.194061,77.887967 C 79.371301,77.628707 82.903024,76.073142 82.903024,76.073142 L 84.811155,73.882327 L 82.915578,70.369403 L 85.058043,66.72009 L 82.498522,63.817843 L 84.374573,59.480444 L 81.815053,56.639634 L 84.668884,51.277156 L 75.168546,53.808298 L 66.077982,53.555069 L 59.949994,50.617274 z "
       id="path1882"
       sodipodi:nodetypes="cccccccccsccccccccccc" />
    <path
       style="fill:#ccc;fill-opacity:1;fill-rule:evenodd;stroke:none;stroke-width:1.09785068px;stroke-linecap:butt;stroke-linejoin:miter;stroke-opacity:1"
       d="M 62.609196,53.671597 L 64.120928,58.000013 L 61.638879,60.740222 L 63.802316,63.820986 L 61.92184,66.100813 L 63.840195,69.461169 L 61.856113,72.716414 L 65.455534,75.62585 L 71.306402,76.071517 C 71.306402,76.071517 76.007595,76.071517 76.947833,75.849734 C 77.888071,75.627952 80.708787,74.297264 80.708787,74.297264 L 82.232776,72.423159 L 80.718815,69.418074 L 82.429961,66.296317 L 80.38572,63.813628 L 81.884086,60.103256 L 79.839848,57.673121 L 82.119145,53.085858 L 74.531415,55.251091 L 68.084838,55.801287 L 62.609196,53.671597 z "
       id="path8102"
       sodipodi:nodetypes="cccccccccsccccccccccc" />
    <path
       style="fill:white;fill-opacity:0.75;fill-rule:evenodd;stroke:none;stroke-width:1px;stroke-linecap:butt;stroke-linejoin:miter;stroke-opacity:1"
       d="M 64.027766,58.005058 L 61.98971,60.54487 L 68.686183,62.038877 L 72.907872,60.39547 L 67.521579,59.797866 L 64.027766,58.005058 z "
       id="path8104"
       sodipodi:nodetypes="cccccc" />
    <path
       style="fill:white;fill-opacity:0.75;fill-rule:evenodd;stroke:none;stroke-width:1px;stroke-linecap:butt;stroke-linejoin:miter;stroke-opacity:1"
       d="M 63.882191,63.756984 L 61.844135,66.296795 L 68.540608,67.790801 L 72.907872,66.595596 L 66.939278,65.54979 L 63.882191,63.756984 z "
       id="path8991"
       sodipodi:nodetypes="cccccc" />
    <path
       style="fill:white;fill-opacity:0.75;fill-rule:evenodd;stroke:none;stroke-width:1px;stroke-linecap:butt;stroke-linejoin:miter;stroke-opacity:1"
       d="M 64.027767,69.882409 L 61.989711,72.422222 L 68.686184,73.916228 L 72.762297,72.422222 L 67.084854,71.376416 L 64.027767,69.882409 z "
       id="path8993"
       sodipodi:nodetypes="cccccc" />
    <path
       style="fill:black;fill-opacity:0.21994132;fill-rule:evenodd;stroke:none;stroke-width:1px;stroke-linecap:butt;stroke-linejoin:miter;stroke-opacity:1"
       d="M 81.860767,60.171369 L 80.405013,63.458184 L 72.543935,64.354588 L 75.455446,61.814776 L 78.658108,61.366573 L 81.860767,60.171369 z "
       id="path8995"
       sodipodi:nodetypes="cccccc" />
    <path
       style="fill:black;fill-opacity:0.21994132;fill-rule:evenodd;stroke:none;stroke-width:1px;stroke-linecap:butt;stroke-linejoin:miter;stroke-opacity:1"
       d="M 82.807006,65.997994 L 81.351252,69.284808 L 72.907872,70.330612 L 76.110533,67.6414 L 79.604347,67.193198 L 82.807006,65.997994 z "
       id="path9882"
       sodipodi:nodetypes="cccccc" />
    <path
       style="fill:black;fill-opacity:0.21994132;fill-rule:evenodd;stroke:none;stroke-width:1px;stroke-linecap:butt;stroke-linejoin:miter;stroke-opacity:1"
       d="M 82.370281,71.675218 L 80.914526,74.962033 L 72.179995,76.90424 L 76.983988,73.468025 L 79.16762,72.870422 L 82.370281,71.675218 z "
       id="path9884"
       sodipodi:nodetypes="cccccc" />
    <path
       style="fill:white;fill-opacity:1;fill-rule:evenodd;stroke:none;stroke-width:1px;stroke-linecap:butt;stroke-linejoin:miter;stroke-opacity:1"
       d="M 61.460006,48.523023 L 56.966866,44.03194 C 56.966866,44.03194 51.769617,37.711607 51.769617,36.393868 C 51.769617,35.076127 51.205049,24.529618 51.205049,24.529618 C 51.205049,24.529618 54.385936,17.062419 55.446233,16.403549 C 56.506529,15.74468 62.444185,10.912962 62.444185,10.912962 L 69.866256,7.8382334 L 78.9848,8.2774807 L 87.891285,12.450327 L 92.768645,21.015641 L 94.465119,32.655686 L 91.072172,40.562132 L 88.103344,45.174225 L 83.445297,49.394002 L 79.030114,50.938881 C 79.030114,50.938881 73.471262,52.296039 72.198906,52.296039 C 70.926552,52.296039 66.897428,51.76293 66.897428,51.76293 L 61.460006,48.523023 z "
       id="path10771"
       sodipodi:nodetypes="ccscsccccccccccscc" />
    <path
       style="fill:black;fill-opacity:1;fill-rule:evenodd;stroke:none;stroke-width:1px;stroke-linecap:butt;stroke-linejoin:miter;stroke-opacity:1"
       d="M 66.374738,52.411724 L 63.937915,51.482425 C 63.937915,51.482425 61.119221,50.174617 61.119221,49.901949 C 61.119221,49.629282 60.813033,47.446988 60.813033,47.446988 C 60.813033,47.446988 62.538165,45.901869 63.113209,45.765536 C 63.688253,45.629201 66.908501,44.629417 66.908501,44.629417 L 70.93381,43.993192 L 75.87919,44.084082 L 80.709561,44.94753 L 83.354764,46.719872 L 84.274835,49.128442 L 82.434692,50.764451 L 80.824569,51.718789 L 78.298311,52.591948 L 75.903765,52.911617 C 75.903765,52.911617 72.88896,53.192441 72.198907,53.192441 C 71.508855,53.192441 69.323687,53.082129 69.323687,53.082129 L 66.374738,52.411724 z "
       id="path10773"
       sodipodi:nodetypes="ccscsccccccccccscc" />
    <path
       style="fill:#ccc;fill-opacity:1;fill-rule:evenodd;stroke:none;stroke-width:1px;stroke-linecap:butt;stroke-linejoin:miter;stroke-opacity:1"
       d="M 67.978669,51.843608 L 66.146644,51.216156 C 66.146644,51.216156 64.027526,50.333135 64.027526,50.149033 C 64.027526,49.964931 63.797331,48.49147 63.797331,48.49147 C 63.797331,48.49147 65.0943,47.448221 65.526625,47.35617 C 65.958947,47.264121 68.379956,46.589077 68.379956,46.589077 L 71.406219,46.159504 L 75.124197,46.220871 L 78.75571,46.803862 L 80.744396,48.00053 L 81.436115,49.62677 L 80.052679,50.731386 L 78.842174,51.375746 L 76.942913,51.965292 L 75.142672,52.181129 C 75.142672,52.181129 72.876115,52.370739 72.357329,52.370739 C 71.838541,52.370739 70.195714,52.296257 70.195714,52.296257 L 67.978669,51.843608 z "
       id="path10775"
       sodipodi:nodetypes="ccscsccccccccccscc" />
    <path
       style="fill:#d38d5f;fill-opacity:0.25513198;fill-rule:evenodd;stroke:none;stroke-width:1px;stroke-linecap:butt;stroke-linejoin:miter;stroke-opacity:1"
       d="M 61.678369,48.523024 L 57.185229,44.031941 C 57.185229,44.031941 51.98798,37.711608 51.98798,36.393869 C 51.98798,35.076128 51.423413,24.529619 51.423413,24.529619 C 51.423413,24.529619 54.604301,17.06242 55.664597,16.40355 C 56.724894,15.744681 62.662549,10.912963 62.662549,10.912963 L 70.08462,7.8382346 L 79.203164,8.2774818 L 88.109649,12.450328 L 92.98701,21.015643 L 94.683484,32.655687 L 91.290537,40.562133 L 88.321708,45.174227 L 83.663662,49.394003 L 79.248478,50.938882 C 79.248478,50.938882 73.689626,52.29604 72.417271,52.29604 C 71.144916,52.29604 67.115792,51.762931 67.115792,51.762931 L 61.678369,48.523024 z "
       id="path10777"
       sodipodi:nodetypes="ccscsccccccccccscc" />
    <path
       style="fill:black;fill-opacity:1;fill-rule:evenodd;stroke:none;stroke-width:1px;stroke-linecap:butt;stroke-linejoin:miter;stroke-opacity:1"
       d="M 84.117833,32.754871 L 80.7716,32.888669 L 78.729094,36.635025 L 76.686589,32.888669 L 74.51371,35.43084 L 72.167001,32.888669 L 70.732901,36.947221 L 67.647414,33.067068 L 65.21379,36.322828 L 62.432505,33.513063 L 60.39,34.092855 L 60.694203,37.973009 L 66.778263,44.261533 L 66.517517,49.925665 L 69.168429,50.059463 L 68.864226,43.324944 L 62.215218,35.520038 L 65.344163,38.329805 L 67.690871,36.055232 L 71.254392,39.221794 L 72.645035,35.475439 L 74.557168,37.482415 L 76.382386,35.475439 L 78.685637,39.132594 L 80.945431,35.921434 L 82.596818,35.386239 L 81.597294,38.374404 L 77.773028,42.878949 L 76.382386,50.460858 L 77.990316,50.550057 L 80.641228,42.923549 L 83.98746,37.393216 L 84.117833,32.754871 z "
       id="path11664" />
    <path
       style="fill:white;fill-opacity:0.75;fill-rule:evenodd;stroke:none;stroke-width:1px;stroke-linecap:butt;stroke-linejoin:miter;stroke-opacity:1"
       d="M 55.26389,16.649257 L 51.325316,24.347269 L 51.664885,29.301841 L 57.635439,18.901056 L 61.967617,14.899053 L 66.824075,12.007041 L 69.84555,8.0050359 L 62.755345,10.867997 L 55.26389,16.649257 z "
       id="path12600"
       sodipodi:nodetypes="ccccccccc" />
  </g>
</svg>
