<?xml version="1.0" encoding="UTF-8" standalone="no"?>
<!-- Created with Inkscape (http://www.inkscape.org/) -->

<svg
   xmlns:dc="http://purl.org/dc/elements/1.1/"
   xmlns:cc="http://creativecommons.org/ns#"
   xmlns:rdf="http://www.w3.org/1999/02/22-rdf-syntax-ns#"
   xmlns:svg="http://www.w3.org/2000/svg"
   xmlns="http://www.w3.org/2000/svg"
   xmlns:sodipodi="http://sodipodi.sourceforge.net/DTD/sodipodi-0.dtd"
   xmlns:inkscape="http://www.inkscape.org/namespaces/inkscape"
   width="100"
   height="100"
   id="svg5889"
   sodipodi:version="0.32"
   inkscape:version="0.47 r22583"
   version="1.0"
   sodipodi:docname="hangman.svg">
  <defs
     id="defs5891">
    <inkscape:perspective
       sodipodi:type="inkscape:persp3d"
       inkscape:vp_x="0 : 50 : 1"
       inkscape:vp_y="0 : 1000 : 0"
       inkscape:vp_z="100 : 50 : 1"
       inkscape:persp3d-origin="50 : 33.333333 : 1"
       id="perspective22" />
    <inkscape:perspective
       id="perspective2836"
       inkscape:persp3d-origin="0.5 : 0.33333333 : 1"
       inkscape:vp_z="1 : 0.5 : 1"
       inkscape:vp_y="0 : 1000 : 0"
       inkscape:vp_x="0 : 0.5 : 1"
       sodipodi:type="inkscape:persp3d" />
    <inkscape:perspective
       id="perspective2836-4"
       inkscape:persp3d-origin="0.5 : 0.33333333 : 1"
       inkscape:vp_z="1 : 0.5 : 1"
       inkscape:vp_y="0 : 1000 : 0"
       inkscape:vp_x="0 : 0.5 : 1"
       sodipodi:type="inkscape:persp3d" />
    <inkscape:perspective
       id="perspective3010"
       inkscape:persp3d-origin="0.5 : 0.33333333 : 1"
       inkscape:vp_z="1 : 0.5 : 1"
       inkscape:vp_y="0 : 1000 : 0"
       inkscape:vp_x="0 : 0.5 : 1"
       sodipodi:type="inkscape:persp3d" />
  </defs>
  <sodipodi:namedview
     id="base"
     pagecolor="#ffffff"
     bordercolor="#666666"
     borderopacity="1.0"
     inkscape:pageopacity="0.0"
     inkscape:pageshadow="2"
     inkscape:zoom="3.29"
     inkscape:cx="50"
     inkscape:cy="50"
     inkscape:document-units="px"
     inkscape:current-layer="g38758"
     height="100px"
     width="100px"
     inkscape:window-width="1024"
     inkscape:window-height="578"
     inkscape:window-x="0"
     inkscape:window-y="1"
     showgrid="false"
     inkscape:window-maximized="1" />
  <metadata
     id="metadata5894">
    <rdf:RDF>
      <cc:Work
         rdf:about="">
        <dc:format>image/svg+xml</dc:format>
        <dc:type
           rdf:resource="http://purl.org/dc/dcmitype/StillImage" />
        <dc:title />
      </cc:Work>
    </rdf:RDF>
  </metadata>
  <g
     inkscape:label="Calque 1"
     inkscape:groupmode="layer"
     id="layer1">
    <path
       style="fill:#b8b8b8;fill-opacity:1;fill-rule:evenodd;stroke:none;stroke-width:1px;stroke-linecap:butt;stroke-linejoin:miter;stroke-opacity:1"
       d="M 47.101114,14.380044 L 36.862552,16.281911 L 29.937069,19.900738 L 25.601644,25.429789 L 19.897139,29.721746 L 16.068603,35.254796 L 13.288304,46.809833 C 13.288304,46.809833 13.634679,54.240573 13.981236,55.275869 C 14.327791,56.311166 14.85182,62.340618 14.85182,62.340618 L 17.467412,69.76807 L 22.495411,77.017368 L 28.711537,83.064245 L 38.421516,88.740599 L 48.821483,90.996099 L 63.036683,88.395321 L 69.784515,85.47087 L 76.017244,82.706434 L 81.235841,76.848819 L 86.086725,69.430792 L 88.664195,61.305322 L 89.897765,52.671092 L 87.818785,44.238659 L 86.931415,37.321034 L 81.733985,29.721746 L 78.263458,27.611179 L 73.265958,21.289313 L 66.484203,16.441748 L 57.825763,14.022233 L 47.101114,14.380044 z M 56.482035,16.618654 L 63.986629,19.547284 L 72.403944,24.116955 L 78.843697,30.403409 L 82.393165,36.336409 L 85.841225,44.087178 L 86.322935,50.348386 L 86.500415,55.221019 L 85.410215,63.75444 L 81.708625,69.132009 L 77.905622,76.352596 L 69.843255,81.351463 L 63.251381,84.179105 L 53.819932,87.562177 L 47.963307,87.158228 L 41.701028,85.744407 L 33.689366,82.184607 L 25.145284,75.342723 L 22.356415,70.949779 L 17.589983,59.866431 L 17.361803,54.059666 L 16.550495,48.17716 L 19.339364,41.360523 L 19.567545,37.245294 C 19.567547,37.245295 23.982356,32.504898 24.384684,31.564763 C 24.787014,30.624626 29.125762,24.722879 29.125762,24.722879 L 37.238836,20.430921 L 43.348995,17.376058 L 50.016928,17.855747 L 56.482035,16.618654 z "
       id="path8763"
       sodipodi:nodetypes="cccccccscccccccccccccccccccccccccccccccccccccccccccccsccccc" />
    <path
       sodipodi:type="arc"
       style="opacity:1;fill:white;fill-opacity:1;fill-rule:evenodd;stroke:none;stroke-width:3;stroke-linecap:butt;stroke-linejoin:miter;stroke-miterlimit:4;stroke-dasharray:none;stroke-dashoffset:0;stroke-opacity:1"
       id="path40749"
       sodipodi:cx="52.219921"
       sodipodi:cy="50.022652"
       sodipodi:rx="46.026146"
       sodipodi:ry="45.919357"
       d="M 97.773325,56.587165 A 46.026146,45.919357 0 1 1 97.7926,56.452625"
       sodipodi:start="0.1434489"
       sodipodi:end="6.4236745"
       sodipodi:open="true"
       transform="matrix(0.78781,0,0,0.783088,9.112499,10.65478)" />
    <path
       style="fill:black;fill-opacity:1;fill-rule:evenodd;stroke:none;stroke-width:1px;stroke-linecap:butt;stroke-linejoin:miter;stroke-opacity:1"
       d="M 46.548895,11.382284 L 35.521449,14.073035 L 28.595966,17.691862 L 23.78721,22.432029 L 18.556036,27.51287 L 14.7275,33.04592 L 11.947201,44.600957 C 11.947201,44.600957 12.293576,52.031697 12.640133,53.066993 C 12.986688,54.10229 13.510717,60.131742 13.510717,60.131742 L 16.126309,67.559194 L 21.154308,74.808492 L 27.370434,80.855369 L 37.080413,86.531723 L 47.48038,88.787223 L 61.69558,86.186445 L 68.443412,83.261994 L 74.676141,80.497558 L 79.894738,74.639943 L 84.745621,67.221916 L 87.323093,59.096446 L 88.556658,50.462216 L 86.477683,42.029783 L 85.590315,35.112158 L 80.866208,28.932862 L 77.553463,23.351204 L 71.924855,19.080437 L 65.1431,14.232872 L 56.48466,11.813357 L 46.548895,11.382284 z M 55.929816,16.460877 L 62.645526,18.442846 L 70.431734,23.801401 L 75.451495,29.930079 L 81.052064,34.127533 L 84.500121,41.878302 L 84.981835,48.13951 L 85.159308,53.012143 L 84.069114,61.545564 L 79.420863,65.503141 L 75.617858,71.934844 L 68.975483,76.933711 L 62.383609,80.39246 L 55.003259,82.828871 L 47.411088,83.687137 L 40.202148,81.484432 L 32.50604,78.555739 L 25.224173,72.344963 L 22.435304,67.478688 L 16.24888,57.657555 L 16.0207,51.85079 L 15.209392,45.968284 L 17.998261,39.151647 L 19.173103,36.771963 C 20.43532,35.50975 23.114584,31.873791 23.516912,30.933656 C 23.919242,29.993519 28.73132,23.933995 28.73132,23.933995 L 36.371064,19.642037 L 43.270107,17.060504 L 48.675825,15.646871 L 55.929816,16.460877 z "
       id="path47274"
       sodipodi:nodetypes="cccccccscccccccccccccccccccccccccccccccccccccccccccccsccccc" />
    <g
       id="g3063"
       transform="translate(0,-0.6762854)">
      <text
         transform="scale(0.99803693,1.0019669)"
         sodipodi:linespacing="100%"
         id="text6831"
         y="38.094776"
         x="7.9296126"
         style="font-size:41.20490646px;font-style:normal;font-variant:normal;font-weight:normal;font-stretch:normal;text-align:start;line-height:100%;writing-mode:lr-tb;text-anchor:start;fill:#8d8d8d;fill-opacity:0.62463343;stroke:none;font-family:Indigo Joker"
         xml:space="preserve"><tspan
           y="38.094776"
           x="7.9296126"
           id="tspan6833"
           sodipodi:role="line">?</tspan></text>
      <path
         id="path5944"
         d="m 7.6824415,11.679842 2.5244305,9.782165 3.944421,-1.262214 -2.208876,12.148818 1.577769,2.99776 -1.577769,4.102198 4.259975,3.155537 6.626628,-1.893322 2.682207,-5.364413 -2.366653,-3.471091 0.946661,-2.839983 7.099959,-4.575529 2.839983,-10.097719 -2.524429,-5.3644131 -7.888843,-2.839984 -8.993281,0.788884 -4.417752,2.997761 -2.5244305,1.7355451 z"
         style="fill:#ff0000;fill-opacity:1;fill-rule:evenodd;stroke:none" />
      <path
         id="text5921"
         d="m 35.71709,15.264211 c -2.8e-5,1.899173 -0.397561,3.743276 -1.192596,5.532316 -0.05486,0.302778 -0.164523,0.715638 -0.328992,1.238578 -0.712843,2.284501 -2.152182,4.169891 -4.318021,5.656174 -0.685423,0.49544 -1.631273,0.977109 -2.837556,1.445008 -0.8225,0.330294 -1.343403,0.701868 -1.562712,1.11472 -1.9e-5,0.30277 -0.02744,0.701867 -0.08225,1.197293 -1.9e-5,0.165148 -0.06856,0.440387 -0.20562,0.825719 -0.137099,0.385338 -0.205638,0.633054 -0.205621,0.743147 -1.7e-5,0.05505 0.178186,0.344052 0.534613,0.867005 0.383804,0.522956 0.630548,0.908292 0.740232,1.156006 0.0274,0.08257 0.0411,0.371574 0.04112,0.867004 -2e-5,0.578003 -0.315304,1.513817 -0.945852,2.807445 -0.02744,0.220189 -0.09597,0.509189 -0.20562,0.867005 -0.438674,0.93581 -1.028118,1.734004 -1.768332,2.394584 -0.301593,0.302757 -1.028117,0.660568 -2.179573,1.073435 -1.727221,0.605519 -3.262516,0.908282 -4.605888,0.90829 -1.398226,-8e-6 -2.645652,-0.344056 -3.742285,-1.032148 -1.398221,-0.853249 -2.097328,-2.036779 -2.097324,-3.550592 -4e-6,-0.633053 0.150783,-1.321151 0.452364,-2.064296 0.246739,-0.578004 0.493482,-1.169768 0.740232,-1.775296 -0.219334,-0.110095 -0.520909,-0.330287 -0.904728,-0.660575 -0.191917,-0.247714 -0.287872,-1.004622 -0.287868,-2.270727 -4e-6,-2.229434 0.603146,-5.683689 1.809456,-10.362771 -0.137086,-0.110081 -0.233042,-0.165129 -0.287868,-0.165143 -0.05484,1.4e-5 -0.507201,0.261491 -1.357092,0.784432 -1.0143956,0.60554 -1.7409196,1.018399 -2.1795729,1.238578 C 8.4655804,23.879223 8.3010849,23.672793 8.2462548,23.480113 7.8075965,21.415831 7.0947815,18.346912 6.1078058,14.273348 6.0529746,14.053179 5.9158943,13.654081 5.6965656,13.076057 5.449823,12.498077 5.3264506,12.16779 5.3264496,12.085193 5.3264506,11.672359 6.0666827,10.764069 7.5471458,9.3603211 8.8631125,8.1768187 9.6581757,7.5024829 9.9323385,7.3373106 10.864478,6.8143841 11.81033,6.3051915 12.769895,5.8097308 14.031024,5.121662 14.93575,4.7225655 15.484079,4.6124383 16.087222,4.3647541 17.019365,4.0619907 18.280512,3.7041472 20.144786,3.428941 21.570417,3.2913208 22.557409,3.2912877 c 1.72719,3.31e-5 3.152821,0.055081 4.276896,0.1651442 0.438635,0.1651763 1.096619,0.3853676 1.973952,0.6605748 2.056176,0.5505108 3.66001,1.6927542 4.81151,3.4267332 0.630539,0.9908903 1.151443,2.2157057 1.562711,3.6744481 0.356379,1.266127 0.534584,2.6148 0.534612,4.046023 m -3.742284,1.651437 c -2.6e-5,-1.155985 -0.01373,-1.802798 -0.04112,-1.940438 -1.069249,-4.568953 -4.81153,-6.8534393 -11.226853,-6.8534664 -1.480478,2.71e-5 -3.180268,0.3578385 -5.099378,1.0734343 -0.19192,2.71e-5 -0.438664,0.02755 -0.740232,0.082572 -2.111039,0.9633641 -3.632625,2.0092731 -4.564765,3.1377311 -0.3564105,0.412882 -0.534615,0.798218 -0.534611,1.156006 -4e-6,0.743169 0.260448,2.504701 0.781356,5.284601 0.02741,0.192685 0.191908,0.412876 0.493488,0.660575 3.262497,-1.844087 5.469483,-2.766139 6.620965,-2.766158 1.233708,1.9e-5 2.23439,0.316544 3.002052,0.949576 0.79505,0.633069 1.192581,1.555121 1.192597,2.766159 -1.6e-5,0.137635 -0.137096,0.426636 -0.41124,0.867005 -0.246759,0.440397 -0.424964,0.67435 -0.534613,0.70186 -0.219342,0.110111 -0.534625,0.233968 -0.945852,0.371574 -0.137093,1.4e-5 -0.671705,1.4e-5 -1.603836,0 -0.109676,1.4e-5 -0.603164,-0.01375 -1.480464,-0.04129 -0.849906,-0.05503 -1.329686,-0.08256 -1.43934,-0.08257 -0.329001,1.4e-5 -0.575745,0.633065 -0.740232,1.899153 -0.137089,0.853254 -0.301585,2.00926 -0.493489,3.468019 -0.137087,0.220201 -0.205627,0.35782 -0.20562,0.41286 l 0,3.344161 c -7e-6,0.192672 0.05482,0.412863 0.164496,0.660575 0.164489,0.357815 0.3564,0.536721 0.575736,0.536717 0.08224,4e-6 0.986967,-0.192664 2.714184,-0.578002 0.05482,4e-6 0.904717,-0.110093 2.54969,-0.330289 1.096625,-0.137615 1.80944,-0.344044 2.138448,-0.619289 0.109648,-0.798189 0.260435,-1.954194 0.452364,-3.468019 0.109647,-0.110087 0.726507,-0.233944 1.85058,-0.371573 1.370781,-0.192658 2.755288,-0.949567 4.153525,-2.270727 1.398192,-1.321138 2.344043,-2.711096 2.837556,-4.16988 0.356383,-1.045894 0.534586,-2.339519 0.534612,-3.880879 m -8.800538,19.115391 c -1.7e-5,-0.550478 -0.260468,-1.032147 -0.781356,-1.445007 -0.493503,-0.440382 -1.041823,-0.660573 -1.644959,-0.660575 -1.12407,2e-6 -2.481161,0.385336 -4.071278,1.156006 -1.946544,0.963338 -2.919811,2.09182 -2.919804,3.385447 -7e-6,0.467905 0.09595,0.756905 0.287868,0.867004 0.548312,0.357809 1.151463,0.605524 1.809457,0.743147 0.520893,0.08257 0.986965,0.123854 1.398216,0.123858 0.822468,-4e-6 1.809443,-0.123862 2.960928,-0.371573 0.740217,-0.165147 1.425617,-0.715626 2.056201,-1.651438 0.603135,-0.82572 0.90471,-1.541342 0.904727,-2.146869"
         style="font-size:41.2048912px;font-style:normal;font-variant:normal;font-weight:normal;font-stretch:normal;text-align:start;line-height:100%;writing-mode:lr-tb;text-anchor:start;fill:#000000;fill-opacity:1;stroke:none;font-family:Indigo Joker" />
    </g>
    <g
       id="g3081"
       transform="translate(0,-1.0527336)">
      <text
         transform="scale(1.1880227,0.84173476)"
         sodipodi:linespacing="125%"
         id="text8818"
         y="106.20507"
         x="1.2559849"
         style="font-size:50.89268112px;font-style:normal;font-variant:normal;font-weight:normal;font-stretch:normal;text-align:start;line-height:125%;writing-mode:lr-tb;text-anchor:start;fill:#a9a9aa;fill-opacity:0.67155427;stroke:none;font-family:Indigo Joker"
         xml:space="preserve"><tspan
           y="106.20507"
           x="1.2559849"
           id="tspan8820"
           sodipodi:role="line">A</tspan></text>
      <path
         id="path8822"
         d="m 12.160421,55.028864 -8.6777274,28.242058 9.9399424,6.468851 3.47109,-3.471091 3.155538,2.208876 10.886603,-4.417752 -17.039901,-29.346496 -1.735545,0.315554 z"
         style="fill:#2165cd;fill-opacity:1;fill-rule:evenodd;stroke:none" />
      <path
         id="text8765"
         d="m 32.538689,85.132452 c -3.2e-5,0.08568 -0.342648,0.428382 -1.027847,1.028115 -0.524031,0.514056 -1.048031,1.013834 -1.572003,1.499334 -0.68526,0.628289 -1.390645,1.099508 -2.116157,1.413658 -0.161257,0.08567 -1.410797,0.771081 -3.74862,2.056229 -1.491409,0.771079 -2.519255,1.156622 -3.083543,1.156629 -0.120943,-7e-6 -0.665097,-0.299874 -1.632464,-0.899601 -0.927096,-0.57118 -1.47125,-0.856766 -1.632463,-0.856762 -0.120941,-4e-6 -0.665095,0.442656 -1.632464,1.327982 -0.927093,0.885314 -1.59217,1.327974 -1.995233,1.327981 -0.120938,-7e-6 -0.544168,-0.142801 -1.269694,-0.42838 -0.685243,-0.285595 -1.148783,-0.456947 -1.390618,-0.514058 -1.41078,-0.37127 -3.3858584,-1.299428 -5.9252394,-2.784477 -2.781236,-1.599292 -4.171852,-2.784479 -4.171851,-3.555564 -10e-7,-0.114235 0.04031,-0.328425 0.120923,-0.642572 0.120922,-0.314145 0.181383,-0.528336 0.181385,-0.642571 0.120922,-2.056226 0.463537,-4.126733 1.027847,-6.211526 0.48369,-1.742075 0.967383,-3.484156 1.451079,-5.22625 0.28215,-1.142337 0.927074,-3.084329 1.934772,-5.825983 1.007687,-2.741619 2.619995,-6.996867 4.8369304,-12.765758 0.241835,-0.371232 0.544143,-0.928127 0.906924,-1.670686 0.403066,-0.05709 0.967374,-0.142762 1.692926,-0.257029 2.297526,2.627435 4.77645,6.28295 7.436779,10.966556 -2.1e-5,0.02858 1.874288,3.541303 5.622931,10.538177 0.120897,0.399833 0.342589,0.985287 0.665078,1.756362 0.362742,0.771095 1.209204,2.170472 2.539388,4.198135 1.209202,1.827763 1.975048,3.170023 2.297542,4.026783 0.322429,0.828204 0.48366,1.156629 0.483692,0.985276 M 27.157605,82.90487 c -2.7e-5,-0.59973 -0.201565,-1.27086 -0.604616,-2.01339 -0.322488,-0.428377 -0.705411,-1.056668 -1.148771,-1.884877 -1.128641,-3.19857 -2.539411,-6.254352 -4.232314,-9.167357 -1.088329,-1.713507 -2.237098,-3.612661 -3.446312,-5.697469 -1.048018,-2.513145 -2.519249,-4.797842 -4.413698,-6.854098 -0.120936,-0.02853 -0.342628,-0.04281 -0.665078,-0.04284 0.0806,0.599762 -0.100782,1.442243 -0.544155,2.527448 -0.604627,1.399403 -0.947243,2.313282 -1.027847,2.74164 -0.524011,2.170485 -1.2495504,4.612255 -2.1766194,7.325317 -0.403085,1.199482 -0.745701,2.855887 -1.027847,4.969221 -0.32247,2.427501 -0.544162,3.912554 -0.665078,4.455164 -0.685238,2.713084 -1.027854,3.941109 -1.027848,3.684077 -6e-6,1.199469 1.007687,2.170466 3.023081,2.912992 0.8464534,0.342704 2.5796854,0.799644 5.1997004,1.37082 0.362755,-0.514058 0.624755,-1.213747 0.786,-2.099068 0.120909,-0.542615 0.261987,-1.070951 0.423232,-1.58501 0.161216,-0.514055 0.523985,-0.771083 1.088309,-0.771086 0.644908,3e-6 1.511523,0.51406 2.599851,1.542172 1.088288,0.999556 1.793673,1.499334 2.116156,1.499334 0.362749,0 1.37044,-0.356984 3.023081,-1.070953 1.813823,-0.799643 2.720746,-1.413656 2.720773,-1.842039 m -8.22278,-2.827315 c -0.16125,0.11424 -0.846481,0.199917 -2.055696,0.257028 -0.685247,0.02857 -1.229402,0.199917 -1.632464,0.514058 -0.524015,-0.142789 -0.786015,-0.385538 -0.786,-0.728248 -1.5e-5,-0.485493 0.544139,-1.413651 1.632463,-2.784477 l 0.604616,0 c 0.483676,0.456948 0.947215,0.913887 1.390618,1.370819 0.564289,0.59974 0.846444,1.05668 0.846463,1.37082"
         style="font-size:50.89263535px;font-style:normal;font-variant:normal;font-weight:normal;font-stretch:normal;text-align:start;line-height:125%;writing-mode:lr-tb;text-anchor:start;fill:#000000;fill-opacity:1;stroke:none;font-family:Indigo Joker" />
    </g>
    <g
       id="g3087"
       transform="translate(0,-1.0774707)">
      <g
         style="fill:#a5a5a5;fill-opacity:1"
         transform="matrix(1.9183982,0,0,1.8306139,66.970251,52.105558)"
         id="g38758">
        <text
           xml:space="preserve"
           style="font-size:25.6757679px;font-style:normal;font-variant:normal;font-weight:normal;font-stretch:normal;text-align:start;line-height:100%;writing-mode:lr-tb;text-anchor:start;fill:#a5a5a5;fill-opacity:1;stroke:none;font-family:Indigo Joker"
           x="-13.0278"
           y="21.71307"
           id="text38762"
           sodipodi:linespacing="100%"
           transform="matrix(1.142716,0.0172263,-0.0920138,0.87372099,0,0)"><tspan
             sodipodi:role="line"
             id="tspan38764"
             x="-13.0278"
             y="21.71307">B</tspan></text>
      </g>
      <g
         transform="matrix(1.9183982,0,0,1.8306139,-18.497979,72.310728)"
         id="g37855">
        <path
           style="fill:#ffc219;fill-opacity:1;fill-rule:evenodd;stroke:none"
           d="m 29.717475,-8.9042317 0.331695,18.275649 6.915158,-1.387236 3.506743,-3.30297 1.293167,-3.70920898 -2.350482,-3.39126702 1.586902,-2.2133 -1.713855,-3.008799 -5.308653,-1.012203 -4.260675,-0.250665 z"
           id="path3873" />
        <path
           id="text37842"
           d="m 37.307425,1.4036964 c -1.3e-5,1.5405502 -0.265329,2.8243373 -0.795949,3.8513652 -0.564879,1.1126173 -1.686053,2.4135216 -3.363526,3.9027167 -0.119829,0.1198181 -0.795957,0.4792784 -2.028386,1.0783827 -0.08559,0.06847 -0.188295,0.154051 -0.308109,0.256757 -0.667576,0.273871 -1.335145,0.547746 -2.00271,0.821625 -0.872979,0.342339 -1.600459,0.547745 -2.18244,0.616218 -0.03424,-0.03424 -0.08559,-0.09415 -0.154055,-0.17973 C 26.181257,9.2690378 25.933058,6.7185807 25.727653,4.099652 25.573597,3.3636171 25.37675,2.2681187 25.137111,0.81315372 24.760532,-2.1138746 24.572243,-3.9882038 24.572244,-4.8098395 l 0,-2.4905494 c -1e-6,-0.051337 -0.05135,-0.2738602 -0.154055,-0.66757 -0.102703,-0.4621483 -0.171172,-0.7873744 -0.205406,-0.9756792 -0.102703,-0.7702562 -0.290992,-1.8657549 -0.564867,-3.2864979 0.599101,-0.393676 1.395049,-0.590523 2.387846,-0.590543 1.369372,2e-5 2.850006,0.248219 4.441908,0.744597 1.797296,0.547769 3.337841,1.300924 4.621638,2.2594678 0.59909,0.4450631 1.009902,1.121191 1.232437,2.0283857 0.119808,0.4964125 0.179719,0.9072244 0.179731,1.2324368 -1.2e-5,0.4450599 -0.145508,0.9072232 -0.436488,1.3864915 -0.291004,0.4621756 -0.581996,0.9157804 -0.872976,1.3608157 1.403596,1.1982122 2.1054,2.9356041 2.105413,5.2121809 M 35.047957,0.83882948 C 35.047946,0.68478129 35.005153,0.43658245 34.919578,0.09423221 34.799747,-0.48774427 34.48308,-1.0782863 33.969575,-1.6773958 33.45605,-2.2764876 32.925418,-2.6530652 32.377677,-2.8071296 c -0.102711,-0.102693 -0.154062,-0.1882788 -0.154055,-0.2567576 -7e-6,0.085596 0.03423,1.01e-5 0.102704,-0.2567577 0.136929,-0.1026926 0.299542,-0.256747 0.487839,-0.4621638 0.342335,-0.4792697 0.556299,-0.8472886 0.641894,-1.1040581 0.273866,-0.8729632 0.410803,-1.5405325 0.410813,-2.0027099 -1e-5,-0.6846724 -0.41938,-1.386476 -1.258113,-2.1054129 -0.804515,-0.6675532 -1.566229,-1.0184554 -2.285143,-1.0527064 -0.119826,1.7e-5 -0.350908,-0.0171 -0.693246,-0.05135 -0.342349,-0.03422 -0.539196,-0.05133 -0.590543,-0.05135 -0.06847,1.7e-5 -0.470726,0.04281 -1.206761,0.128379 -0.838744,0.1027198 -1.429286,0.1711884 -1.771628,0.2054058 0.136936,0.3081258 0.213963,0.7018205 0.231082,1.1810853 -2e-6,0.3594762 0.0086,0.7274951 0.02568,1.104058 0.08558,0.4279437 0.196845,1.0270444 0.333785,1.7973038 0.01712,0.4964105 0.05991,1.1211869 0.128379,1.8743311 0.154052,0.4964086 0.308106,1.4378525 0.462164,2.8243344 0.119817,1.16397515 0.239637,2.3279421 0.35946,3.4919045 -3e-6,0.3936993 0.01711,0.9671242 0.05135,1.7202764 0.119817,0.8729782 0.273871,2.0711795 0.462164,3.5946075 0.205402,0.2225224 0.419366,0.333784 0.641894,0.333785 0.06846,-1e-6 0.21396,-0.051353 0.436488,-0.1540546 0.239635,-0.085587 0.385131,-0.1283796 0.436488,-0.1283788 0.427924,-0.068469 1.009907,-0.3252268 1.745952,-0.7702731 0.821617,-0.4963976 1.480628,-1.0099125 1.977034,-1.5405461 0.753146,-0.804505 1.249544,-1.7716246 1.489195,-2.9013617 0.136927,-0.581979 0.205395,-1.1725211 0.205406,-1.77162802 M 30.914158,-4.861191 c -6e-6,0.427941 -0.231088,0.7788428 -0.693245,1.0527065 -0.376584,0.222534 -0.76172,0.3423541 -1.15541,0.3594607 -0.154059,-0.068458 -0.239645,-0.2567468 -0.256758,-0.5648668 -0.01712,-0.2396292 -0.03424,-0.4792695 -0.05135,-0.7189216 -0.08559,-0.3936828 -0.128383,-0.5391787 -0.128379,-0.436488 -4e-6,-0.239628 0.145492,-0.4364754 0.436488,-0.5905427 0.239636,-0.1198072 0.487834,-0.1797173 0.744597,-0.1797303 0.308104,1.3e-5 0.564861,0.1198331 0.770273,0.3594607 0.222517,0.2225358 0.333779,0.4621761 0.333785,0.7189215 m 0.847301,8.9094915 c -8e-6,0.3423463 -0.265324,0.6418966 -0.795949,0.8986518 -0.359467,0.188291 -0.710369,0.2995525 -1.052707,0.333785 -0.06847,-0.1198183 -0.128384,-0.3594585 -0.17973,-0.7189215 -0.06847,-0.479278 -0.111267,-0.7360354 -0.128379,-0.770273 -0.01712,-0.051348 -0.0428,-0.1026997 -0.07703,-0.1540546 -0.01712,-0.068465 -0.02568,-0.1369338 -0.02568,-0.2054062 -5e-6,-0.085582 0.03423,-0.2225194 0.102703,-0.4108122 0.06846,-0.2054019 0.154049,-0.3081049 0.256758,-0.3081093 0.119814,4.4e-6 0.504951,0.094149 1.155409,0.2824335 0.256751,0.051356 0.44504,0.1797343 0.564867,0.3851365 0.119813,0.2054097 0.179723,0.4279328 0.179731,0.66757"
           style="font-size:25.6757679px;font-style:normal;font-variant:normal;font-weight:normal;font-stretch:normal;text-align:start;line-height:100%;writing-mode:lr-tb;text-anchor:start;fill:#000000;fill-opacity:1;stroke:none;font-family:Indigo Joker"
           transform="matrix(1.142716,0.0172263,-0.0920138,0.873721,0,0)" />
      </g>
    </g>
    <g
       id="g3096"
       transform="translate(0,1.116694)">
      <text
         transform="matrix(1.0851166,0.30512586,-0.2401469,0.85403263,0,0)"
         sodipodi:linespacing="125%"
         id="text10731"
         y="67.686646"
         x="76.283463"
         style="font-size:46.01049042px;font-style:normal;font-variant:normal;font-weight:normal;font-stretch:normal;text-align:start;line-height:125%;writing-mode:lr-tb;text-anchor:start;fill:#b8b8b8;fill-opacity:0.72140766;stroke:none;font-family:Indigo Joker"
         xml:space="preserve"><tspan
           y="67.686646"
           x="76.283463"
           id="tspan10733"
           sodipodi:role="line">C</tspan></text>
      <path
         id="path9844"
         d="m 82.955816,67.866801 2.20888,1.735546 11.04438,-2.366653 -2.99776,-9.624389 -8.51995,-4.733305 -8.04662,2.524429 -5.67997,9.782166 0.78889,10.728826 4.7333,9.939942 7.88885,3.313314 7.41551,-1.893322 4.41775,-6.153298 0.15778,-7.731066 -3.15554,-1.262215 -11.83327,1.104438 -0.47333,-2.682206 2.0511,-2.682207 z"
         style="fill:#0fb819;fill-opacity:1;fill-rule:evenodd;stroke:none" />
      <path
         id="text8769"
         d="m 97.622876,81.459464 c -0.25785,0.916866 -0.83896,2.025503 -1.74333,3.325914 -0.54268,0.780236 -1.09828,1.542701 -1.66681,2.287397 -1.11833,1.805602 -2.98226,3.005803 -5.59178,3.600607 -2.33976,0.529313 -4.60801,0.485118 -6.80477,-0.132585 -4.02743,-1.132488 -6.95428,-3.368873 -8.78056,-6.70916 -1.43724,-2.55248 -2.3437,-4.885036 -2.71938,-6.997672 -0.33503,-2.129472 -0.59695,-5.029877 -0.78574,-8.701225 -0.0756,-1.519421 0.0687,-3.118359 0.43296,-4.796816 0.37157,-1.704624 0.67154,-2.962985 0.8999,-3.775088 -0.0221,0.07861 0.41332,-0.703517 1.30627,-2.346376 3.15463,-5.981938 8.24346,-7.98551 15.2665,-6.010723 1.33136,0.3744 2.14873,0.660775 2.45214,0.859127 2.81933,1.980044 4.73469,3.917872 5.74608,5.813488 1.0187,1.869462 1.69025,4.079429 2.01468,6.629911 0.19395,1.609275 0.27989,2.4532 0.25782,2.531778 -0.0737,0.261974 -0.14913,0.594107 -0.2263,0.9964 -0.0699,0.376117 -0.12322,0.629661 -0.16001,0.760633 -0.22102,0.785897 -1.12447,1.252676 -2.71036,1.400339 -0.8466,0.0729 -4.93186,0.167936 -12.25577,0.285101 l -0.0327,0.499611 c 0.39939,0.112319 2.53082,0.132174 6.39429,0.05957 3.86343,-0.07259 5.82844,-0.09953 5.89503,-0.08082 0.53253,0.149756 1.24651,0.548394 2.14194,1.195915 0.27007,0.189025 0.46855,0.824321 0.59544,1.90589 0.1413,0.7747 0.2904,1.904927 0.44731,3.390685 -0.005,1.807592 -0.12976,3.143625 -0.37281,4.008105 m -3.55625,-1.339202 c 0.0294,-0.104786 0.0661,-2.087332 0.11007,-5.947644 -4.04463,0.0782 -7.1409,0.168652 -9.28882,0.271356 -0.1146,0.02432 -0.24024,0.08793 -0.3769,0.190827 0.0674,0.782177 -0.0613,1.495097 -0.38591,2.138761 -0.43899,0.922466 -0.80252,1.512798 -1.09061,1.770998 -0.38415,0.344265 -0.90906,0.422804 -1.57473,0.235619 -1.9638,-0.5522 -2.93274,-2.534844 -2.90681,-5.947939 -0.0355,-2.045233 0.22301,-4.050213 0.77549,-6.014944 0.81026,-2.881576 1.94766,-4.116466 3.41219,-3.704672 0.66567,0.187202 1.13943,0.673763 1.42128,1.459686 0.0188,0.316251 0.0378,0.75973 0.0569,1.33044 0.12658,0.8271 0.40459,1.498893 0.83403,2.015379 1.56025,0.07127 2.68047,0.04705 3.36064,-0.07265 0.97968,-0.03545 1.97603,-0.06622 2.98905,-0.09233 1.28279,-0.09155 2.03469,-0.53028 2.2557,-1.316179 0.56717,-2.017101 0.31917,-4.009031 -0.744,-5.975797 -1.16335,-2.249293 -3.10967,-3.757681 -5.83897,-4.525166 -0.79885,-0.224601 -2.32407,-0.356671 -4.57566,-0.396209 -1.07221,-0.01879 -2.20702,0.185058 -3.40443,0.611556 -1.16415,0.435901 -2.10798,1.174002 -2.83149,2.214306 -0.11814,0.164675 -0.45781,0.606248 -1.01899,1.324721 -0.49109,0.596886 -0.75137,0.947714 -0.78082,1.052482 l -1.08283,3.850853 c -0.22099,0.785902 -0.30707,1.539056 -0.25822,2.259467 0.10776,0.510863 0.17869,1.152696 0.2128,1.9255 -0.0846,0.428509 -0.0951,0.976773 -0.0315,1.644795 0.1083,1.01983 0.15141,1.569034 0.12932,1.647617 -0.0584,0.718546 -0.0555,1.666316 0.009,2.843312 1.94796,6.483945 4.93565,10.292154 8.96309,11.424639 1.46449,0.411801 3.2077,0.407293 5.22961,-0.01353 2.31761,-0.450744 4.06913,-1.315073 5.25457,-2.59299 0.21414,-0.250727 0.42258,-0.672665 0.62531,-1.265816 0.15112,-0.409785 0.27075,-0.899096 0.3589,-1.467933 0.15084,-0.664268 0.21522,-0.957106 0.19316,-0.878517"
         style="font-size:46.0104332px;font-style:normal;font-variant:normal;font-weight:normal;font-stretch:normal;text-align:start;line-height:125%;writing-mode:lr-tb;text-anchor:start;fill:#000000;fill-opacity:1;stroke:none;font-family:Indigo Joker" />
    </g>
    <g
       id="g3069"
       transform="translate(0,-0.7598784)">
      <text
         transform="scale(0.99803696,1.0019669)"
         sodipodi:linespacing="100%"
         id="text6831-5"
         y="38.178204"
         x="40.359043"
         style="font-size:41.20490646px;font-style:normal;font-variant:normal;font-weight:normal;font-stretch:normal;text-align:start;line-height:100%;writing-mode:lr-tb;text-anchor:start;fill:#8d8d8d;fill-opacity:0.62463343;stroke:none;font-family:Indigo Joker"
         xml:space="preserve"><tspan
           y="38.178204"
           x="40.359043"
           id="tspan6833-6"
           sodipodi:role="line">?</tspan></text>
      <path
         id="path5944-3"
         d="m 40.04821,11.763435 2.52443,9.782165 3.944421,-1.262214 -2.208876,12.148818 1.577769,2.99776 -1.577769,4.102198 4.259975,3.155537 6.626628,-1.893322 2.682207,-5.364413 -2.366653,-3.471091 0.946661,-2.839983 7.099959,-4.575529 2.839983,-10.097719 -2.524429,-5.3644132 -7.888843,-2.839984 -8.993281,0.788884 -4.417752,2.9977612 -2.52443,1.735545 z"
         style="fill:#ff0000;fill-opacity:1;fill-rule:evenodd;stroke:none" />
      <path
         id="text5921-9"
         d="m 68.082858,15.347804 c -2.8e-5,1.899173 -0.397561,3.743276 -1.192596,5.532316 -0.05486,0.302778 -0.164523,0.715638 -0.328992,1.238578 -0.712843,2.284501 -2.152182,4.169891 -4.318021,5.656174 -0.685423,0.49544 -1.631273,0.977109 -2.837556,1.445008 -0.8225,0.330294 -1.343403,0.701868 -1.562712,1.11472 -1.9e-5,0.30277 -0.02744,0.701867 -0.08225,1.197293 -1.9e-5,0.165148 -0.06856,0.440387 -0.20562,0.825719 -0.137099,0.385338 -0.205638,0.633054 -0.205621,0.743147 -1.7e-5,0.05505 0.178186,0.344052 0.534613,0.867005 0.383804,0.522956 0.630548,0.908292 0.740232,1.156006 0.0274,0.08257 0.0411,0.371574 0.04112,0.867004 -2e-5,0.578003 -0.315304,1.513817 -0.945852,2.807445 -0.02744,0.220189 -0.09597,0.509189 -0.20562,0.867005 -0.438674,0.93581 -1.028118,1.734004 -1.768332,2.394584 -0.301593,0.302757 -1.028117,0.660568 -2.179573,1.073435 -1.727221,0.605519 -3.262516,0.908282 -4.605888,0.90829 -1.398226,-8e-6 -2.645652,-0.344056 -3.742285,-1.032148 -1.398221,-0.853249 -2.097328,-2.036779 -2.097324,-3.550592 -4e-6,-0.633053 0.150783,-1.321151 0.452364,-2.064296 0.246739,-0.578004 0.493482,-1.169768 0.740232,-1.775296 -0.219334,-0.110095 -0.520909,-0.330287 -0.904728,-0.660575 -0.191917,-0.247714 -0.287872,-1.004622 -0.287868,-2.270727 -4e-6,-2.229434 0.603146,-5.683689 1.809456,-10.362771 -0.137086,-0.110081 -0.233042,-0.165129 -0.287868,-0.165143 -0.05484,1.4e-5 -0.507201,0.261491 -1.357092,0.784432 -1.014395,0.60554 -1.740919,1.018399 -2.179573,1.238578 -0.274155,-0.220179 -0.438651,-0.426609 -0.493481,-0.619289 -0.438658,-2.064282 -1.151473,-5.133201 -2.138449,-9.206765 -0.05483,-0.220169 -0.191911,-0.619267 -0.41124,-1.197291 -0.246743,-0.57798 -0.370115,-0.908267 -0.370116,-0.990864 1e-6,-0.412834 0.740233,-1.321124 2.220696,-2.724872 1.315967,-1.1835024 2.11103,-1.8578382 2.385193,-2.0230105 0.932139,-0.5229265 1.877991,-1.0321191 2.837556,-1.5275798 1.261129,-0.6880688 2.165855,-1.0871653 2.714184,-1.1972925 0.603143,-0.2476842 1.535286,-0.5504476 2.796433,-0.9082911 1.864274,-0.2752062 3.289905,-0.4128263 4.276897,-0.4128594 1.72719,3.31e-5 3.152821,0.055081 4.276896,0.1651441 0.438635,0.1651763 1.096619,0.3853676 1.973952,0.6605748 2.056176,0.5505108 3.66001,1.6927542 4.81151,3.4267332 0.630539,0.9908903 1.151443,2.2157057 1.562711,3.6744482 0.356379,1.266127 0.534584,2.6148 0.534612,4.046023 m -3.742284,1.651437 c -2.6e-5,-1.155985 -0.01373,-1.802798 -0.04112,-1.940438 -1.069249,-4.568953 -4.81153,-6.8534394 -11.226853,-6.8534665 -1.480478,2.71e-5 -3.180268,0.3578385 -5.099378,1.0734343 -0.19192,2.71e-5 -0.438664,0.02755 -0.740232,0.082572 -2.111039,0.9633642 -3.632625,2.0092732 -4.564765,3.1377312 -0.35641,0.412882 -0.534615,0.798218 -0.534611,1.156006 -4e-6,0.743169 0.260448,2.504701 0.781356,5.284601 0.02741,0.192685 0.191908,0.412876 0.493488,0.660575 3.262497,-1.844087 5.469483,-2.766139 6.620965,-2.766158 1.233708,1.9e-5 2.23439,0.316544 3.002052,0.949576 0.79505,0.633069 1.192581,1.555121 1.192597,2.766159 -1.6e-5,0.137635 -0.137096,0.426636 -0.41124,0.867005 -0.246759,0.440397 -0.424964,0.67435 -0.534613,0.70186 -0.219342,0.110111 -0.534625,0.233968 -0.945852,0.371574 -0.137093,1.4e-5 -0.671705,1.4e-5 -1.603836,0 -0.109676,1.4e-5 -0.603164,-0.01375 -1.480464,-0.04129 -0.849906,-0.05503 -1.329686,-0.08256 -1.43934,-0.08257 -0.329001,1.4e-5 -0.575745,0.633065 -0.740232,1.899153 -0.137089,0.853254 -0.301585,2.00926 -0.493489,3.468019 -0.137087,0.220201 -0.205627,0.35782 -0.20562,0.41286 l 0,3.344161 c -7e-6,0.192672 0.05482,0.412863 0.164496,0.660575 0.164489,0.357815 0.3564,0.536721 0.575736,0.536717 0.08224,4e-6 0.986967,-0.192664 2.714184,-0.578002 0.05482,4e-6 0.904717,-0.110093 2.54969,-0.330289 1.096625,-0.137615 1.80944,-0.344044 2.138448,-0.619289 0.109648,-0.798189 0.260435,-1.954194 0.452364,-3.468019 0.109647,-0.110087 0.726507,-0.233944 1.85058,-0.371573 1.370781,-0.192658 2.755288,-0.949567 4.153525,-2.270727 1.398192,-1.321138 2.344043,-2.711096 2.837556,-4.16988 0.356383,-1.045894 0.534586,-2.339519 0.534612,-3.880879 M 55.54004,36.11463 c -1.7e-5,-0.550478 -0.260468,-1.032147 -0.781356,-1.445007 -0.493503,-0.440382 -1.041823,-0.660573 -1.644959,-0.660575 -1.12407,2e-6 -2.481161,0.385336 -4.071278,1.156006 -1.946544,0.963338 -2.919811,2.09182 -2.919804,3.385447 -7e-6,0.467905 0.09595,0.756905 0.287868,0.867004 0.548312,0.357809 1.151463,0.605524 1.809457,0.743147 0.520893,0.08257 0.986965,0.123854 1.398216,0.123858 0.822468,-4e-6 1.809443,-0.123862 2.960928,-0.371573 0.740217,-0.165147 1.425617,-0.715626 2.056201,-1.651438 0.603135,-0.82572 0.90471,-1.541342 0.904727,-2.146869"
         style="font-size:41.2048912px;font-style:normal;font-variant:normal;font-weight:normal;font-stretch:normal;text-align:start;line-height:100%;writing-mode:lr-tb;text-anchor:start;fill:#000000;fill-opacity:1;stroke:none;font-family:Indigo Joker" />
    </g>
    <g
       id="g3075"
       transform="translate(0,0.7598785)">
      <text
         transform="scale(0.99803696,1.0019669)"
         sodipodi:linespacing="100%"
         id="text6831-8"
         y="36.66143"
         x="71.727608"
         style="font-size:41.20490646px;font-style:normal;font-variant:normal;font-weight:normal;font-stretch:normal;text-align:start;line-height:100%;writing-mode:lr-tb;text-anchor:start;fill:#8d8d8d;fill-opacity:0.62463343;stroke:none;font-family:Indigo Joker"
         xml:space="preserve"><tspan
           y="36.66143"
           x="71.727608"
           id="tspan6833-1"
           sodipodi:role="line">?</tspan></text>
      <path
         id="path5944-2"
         d="m 71.3552,10.243678 2.524431,9.782165 3.944421,-1.262214 -2.208876,12.148818 1.577769,2.99776 -1.577769,4.102198 4.259975,3.155537 6.626628,-1.893322 2.682207,-5.364413 -2.366653,-3.471091 0.946661,-2.839983 7.099959,-4.575529 L 97.703936,12.925885 95.179507,7.561472 87.290664,4.7214881 78.297383,5.5103721 73.879631,8.508133 71.3552,10.243678 z"
         style="fill:#ff0000;fill-opacity:1;fill-rule:evenodd;stroke:none" />
      <path
         id="text5921-93"
         d="m 99.389849,13.828047 c -2.8e-5,1.899173 -0.397561,3.743276 -1.192596,5.532316 -0.05486,0.302778 -0.164523,0.715638 -0.328992,1.238578 -0.712843,2.284501 -2.152182,4.169891 -4.318021,5.656174 -0.685423,0.49544 -1.631273,0.977109 -2.837556,1.445008 -0.8225,0.330294 -1.343403,0.701868 -1.562712,1.11472 -1.9e-5,0.30277 -0.02744,0.701867 -0.08225,1.197293 -1.9e-5,0.165148 -0.06856,0.440387 -0.20562,0.825719 -0.137099,0.385338 -0.205638,0.633054 -0.205621,0.743147 -1.7e-5,0.05505 0.178186,0.344052 0.534613,0.867005 0.383804,0.522956 0.630548,0.908292 0.740232,1.156006 0.0274,0.08257 0.0411,0.371574 0.04112,0.867004 -2e-5,0.578003 -0.315304,1.513817 -0.945852,2.807445 -0.02744,0.220189 -0.09597,0.509189 -0.20562,0.867005 -0.438674,0.93581 -1.028118,1.734004 -1.768332,2.394584 -0.301593,0.302757 -1.028117,0.660568 -2.179573,1.073435 -1.727221,0.605519 -3.262516,0.908282 -4.605888,0.90829 -1.398226,-8e-6 -2.645652,-0.344056 -3.742285,-1.032148 -1.398221,-0.853249 -2.097328,-2.036779 -2.097324,-3.550592 -4e-6,-0.633053 0.150783,-1.321151 0.452364,-2.064296 0.246739,-0.578004 0.493482,-1.169768 0.740232,-1.775296 -0.219334,-0.110095 -0.520909,-0.330287 -0.904728,-0.660575 -0.191917,-0.247714 -0.287872,-1.004622 -0.287868,-2.270727 -4e-6,-2.229434 0.603146,-5.683689 1.809456,-10.362771 -0.137086,-0.110081 -0.233042,-0.165129 -0.287868,-0.165143 -0.05484,1.4e-5 -0.507201,0.261491 -1.357092,0.784432 -1.014396,0.60554 -1.74092,1.018399 -2.179573,1.238578 -0.274156,-0.220179 -0.438651,-0.426609 -0.493481,-0.619289 -0.438659,-2.064282 -1.151474,-5.133201 -2.138449,-9.206765 -0.05483,-0.220169 -0.191912,-0.619267 -0.41124,-1.197291 -0.246743,-0.57798 -0.370115,-0.908267 -0.370116,-0.990864 1e-6,-0.412834 0.740233,-1.321124 2.220696,-2.724872 1.315966,-1.183502 2.11103,-1.8578379 2.385192,-2.0230102 0.93214,-0.5229265 1.877992,-1.0321191 2.837557,-1.5275798 1.261129,-0.6880688 2.165855,-1.0871653 2.714184,-1.1972925 0.603143,-0.2476842 1.535286,-0.5504476 2.796433,-0.9082911 1.864274,-0.2752062 3.289905,-0.4128264 4.276897,-0.4128595 1.72719,3.31e-5 3.152821,0.055081 4.276896,0.1651442 0.438635,0.1651763 1.096619,0.3853676 1.973952,0.6605748 2.056176,0.5505108 3.66001,1.6927542 4.81151,3.4267332 0.630539,0.9908899 1.151443,2.2157059 1.562711,3.6744479 0.356379,1.266127 0.534584,2.6148 0.534612,4.046023 m -3.742284,1.651437 c -2.6e-5,-1.155985 -0.01373,-1.802798 -0.04112,-1.940438 -1.069249,-4.568953 -4.81153,-6.853439 -11.226853,-6.853466 -1.480478,2.7e-5 -3.180268,0.357838 -5.099378,1.073434 -0.19192,2.7e-5 -0.438664,0.02755 -0.740232,0.08257 -2.111039,0.963364 -3.632625,2.009273 -4.564765,3.137731 -0.356411,0.412882 -0.534615,0.798218 -0.534611,1.156006 -4e-6,0.743169 0.260448,2.504701 0.781356,5.284601 0.02741,0.192685 0.191908,0.412876 0.493488,0.660575 3.262497,-1.844087 5.469483,-2.766139 6.620965,-2.766158 1.233708,1.9e-5 2.23439,0.316544 3.002052,0.949576 0.79505,0.633069 1.192581,1.555121 1.192597,2.766159 -1.6e-5,0.137635 -0.137096,0.426636 -0.41124,0.867005 -0.246759,0.440397 -0.424964,0.67435 -0.534613,0.70186 -0.219342,0.110111 -0.534625,0.233968 -0.945852,0.371574 -0.137093,1.4e-5 -0.671705,1.4e-5 -1.603836,0 -0.109676,1.4e-5 -0.603164,-0.01375 -1.480464,-0.04129 -0.849906,-0.05503 -1.329686,-0.08256 -1.43934,-0.08257 -0.329001,1.4e-5 -0.575745,0.633065 -0.740232,1.899153 -0.137089,0.853254 -0.301585,2.00926 -0.493489,3.468019 -0.137087,0.220201 -0.205627,0.35782 -0.20562,0.41286 l 0,3.344161 c -7e-6,0.192672 0.05482,0.412863 0.164496,0.660575 0.164489,0.357815 0.3564,0.536721 0.575736,0.536717 0.08224,4e-6 0.986967,-0.192664 2.714184,-0.578002 0.05482,4e-6 0.904717,-0.110093 2.54969,-0.330289 1.096625,-0.137615 1.80944,-0.344044 2.138448,-0.619289 0.109648,-0.798189 0.260435,-1.954194 0.452364,-3.468019 0.109647,-0.110087 0.726507,-0.233944 1.85058,-0.371573 1.370781,-0.192658 2.755288,-0.949567 4.153525,-2.270727 1.398192,-1.321138 2.344043,-2.711096 2.837556,-4.16988 0.356383,-1.045894 0.534586,-2.339519 0.534612,-3.880879 m -8.800538,19.115391 c -1.7e-5,-0.550478 -0.260468,-1.032147 -0.781356,-1.445007 -0.493503,-0.440382 -1.041823,-0.660573 -1.644959,-0.660575 -1.12407,2e-6 -2.481161,0.385336 -4.071278,1.156006 -1.946544,0.963338 -2.919811,2.09182 -2.919804,3.385447 -7e-6,0.467905 0.09595,0.756905 0.287868,0.867004 0.548312,0.357809 1.151463,0.605524 1.809457,0.743147 0.520893,0.08257 0.986965,0.123854 1.398216,0.123858 0.822468,-4e-6 1.809443,-0.123862 2.960928,-0.371573 0.740217,-0.165147 1.425617,-0.715626 2.056201,-1.651438 0.603135,-0.82572 0.90471,-1.541342 0.904727,-2.146869"
         style="font-size:41.2048912px;font-style:normal;font-variant:normal;font-weight:normal;font-stretch:normal;text-align:start;line-height:100%;writing-mode:lr-tb;text-anchor:start;fill:#000000;fill-opacity:1;stroke:none;font-family:Indigo Joker" />
    </g>
  </g>
</svg>
