<?xml version="1.0" encoding="UTF-8" standalone="no"?>
<!-- Created with Inkscape (http://www.inkscape.org/) -->
<svg
   xmlns:dc="http://purl.org/dc/elements/1.1/"
   xmlns:cc="http://web.resource.org/cc/"
   xmlns:rdf="http://www.w3.org/1999/02/22-rdf-syntax-ns#"
   xmlns:svg="http://www.w3.org/2000/svg"
   xmlns="http://www.w3.org/2000/svg"
   xmlns:sodipodi="http://sodipodi.sourceforge.net/DTD/sodipodi-0.dtd"
   xmlns:inkscape="http://www.inkscape.org/namespaces/inkscape"
   width="50"
   height="50"
   id="svg2"
   sodipodi:version="0.32"
   inkscape:version="0.44.1"
   version="1.0"
   sodipodi:docbase="/home/mat/Travaux/Inkscape/Gcompris/boardicons"
   sodipodi:docname="strategy.svg">
  <defs
     id="defs4" />
  <sodipodi:namedview
     id="base"
     pagecolor="#ffffff"
     bordercolor="#666666"
     borderopacity="1.0"
     inkscape:pageopacity="0.0"
     inkscape:pageshadow="2"
     inkscape:zoom="6.9663759"
     inkscape:cx="43.510065"
     inkscape:cy="28.643087"
     inkscape:document-units="px"
     inkscape:current-layer="layer1"
     width="50px"
     height="50px"
     inkscape:window-width="932"
     inkscape:window-height="927"
     inkscape:window-x="23"
     inkscape:window-y="-17"
     showgrid="true" />
  <metadata
     id="metadata7">
    <rdf:RDF>
      <cc:Work
         rdf:about="">
        <dc:format>image/svg+xml</dc:format>
        <dc:type
           rdf:resource="http://purl.org/dc/dcmitype/StillImage" />
      </cc:Work>
    </rdf:RDF>
  </metadata>
  <g
     inkscape:label="Calque 1"
     inkscape:groupmode="layer"
     id="layer1">
    <g
       transform="matrix(0.252004,0,0,-0.209996,10.37266,72.12765)"
       style="fill:none;fill-opacity:1;fill-rule:nonzero"
       inkscape:export-xdpi="90"
       inkscape:export-filename="/home/mat/Travaux/Inkscape/Gcompris/path3176.png"
       inkscape:export-ydpi="90"
       id="g4290">
      <path
         style="fill:none;fill-opacity:1;fill-rule:nonzero;stroke:black;stroke-width:3;stroke-linecap:round;stroke-linejoin:round;stroke-miterlimit:4;stroke-opacity:1"
         id="path4292"
         sodipodi:nodetypes="ccsssscc"
         d="M 38.141146,172.99745 C 5.1485804,190.30879 27.458659,228.80284 33.600245,266.20869 C 36.029446,270.58507 24.173534,281.55863 24.551287,299.06505 C 24.899713,314.84884 43.452068,326.42237 64.601053,325.40048 C 83.600656,324.48245 99.89589,311.13312 97.867149,294.11962 C 95.772163,276.55057 81.83598,267.403 84.10846,262.56381 C 94.731531,239.94227 109.61364,193.53926 90.930856,175.02484 C 65.307522,155.02555 52.931408,165.94012 38.141146,172.99745 z " />
    </g>
    <path
       style="opacity:1;fill:black;fill-opacity:0.23478262;fill-rule:evenodd;stroke:none;stroke-width:5;stroke-linecap:round;stroke-linejoin:round;stroke-miterlimit:4;stroke-opacity:1"
       id="path8930"
       sodipodi:nodetypes="czzz"
       d="M 14.908279,46.813555 C 8.2116307,44.453288 3.9647675,33.891593 19.320462,29.837322 C 34.66653,25.785588 44.837592,40.979056 39.210348,45.070828 C 33.87419,48.950945 21.185889,49.026125 14.908279,46.813555 z " />
    <g
       transform="matrix(0.252004,0,0,-0.209996,9.916427,72.36177)"
       style="fill:none;fill-opacity:1;fill-rule:nonzero"
       inkscape:export-xdpi="90"
       inkscape:export-filename="/home/mat/Travaux/Inkscape/Gcompris/path3176.png"
       inkscape:export-ydpi="90"
       id="g4286">
      <path
         style="fill:none;fill-opacity:1;fill-rule:nonzero;stroke:black;stroke-width:3;stroke-linecap:round;stroke-linejoin:round;stroke-miterlimit:4;stroke-opacity:1"
         id="path4288"
         sodipodi:nodetypes="ccsssscc"
         d="M 38.141146,172.99745 C 5.1485804,190.30879 27.458659,228.80284 33.600245,266.20869 C 36.029446,270.58507 24.173534,281.55863 24.551287,299.06505 C 24.899713,314.84884 43.452068,326.42237 64.601053,325.40048 C 83.600656,324.48245 99.89589,311.13312 97.867149,294.11962 C 95.772163,276.55057 81.83598,267.403 84.10846,262.56381 C 94.731531,239.94227 109.61364,193.53926 90.930856,175.02484 C 65.307522,155.02555 52.931408,165.94012 38.141146,172.99745 z " />
    </g>
    <g
       transform="matrix(0.252004,0,0,-0.209996,10.1842,72.114)"
       style="fill:#2ca02c;fill-opacity:1;fill-rule:nonzero"
       inkscape:export-xdpi="90"
       inkscape:export-filename="/home/mat/Travaux/Inkscape/Gcompris/path3176.png"
       inkscape:export-ydpi="90"
       id="g5522">
      <path
         style="fill:#2ca02c;fill-opacity:1;fill-rule:nonzero;stroke:black;stroke-width:3;stroke-linecap:round;stroke-linejoin:round;stroke-miterlimit:4;stroke-opacity:1"
         id="path5526"
         sodipodi:nodetypes="ccsssscc"
         d="M 38.141146,172.99745 C 5.1485804,190.30879 27.458659,228.80284 33.600245,266.20869 C 36.029446,270.58507 24.173534,281.55863 24.551287,299.06505 C 24.899713,314.84884 43.452068,326.42237 64.601053,325.40048 C 83.600656,324.48245 99.89589,311.13312 97.867149,294.11962 C 95.772163,276.55057 81.83598,267.403 84.10846,262.56381 C 94.731531,239.94227 109.61364,193.53926 90.930856,175.02484 C 65.307522,155.02555 52.931408,165.94012 38.141146,172.99745 z " />
    </g>
    <path
       style="fill:#2ca02c;fill-opacity:1;fill-rule:evenodd;stroke:black;stroke-width:0.62355059;stroke-linecap:butt;stroke-linejoin:miter;stroke-miterlimit:4;stroke-dasharray:none;stroke-opacity:1"
       id="path3885"
       sodipodi:nodetypes="cc"
       d="M 27.934222,4.8552327 C 29.613166,1.5263437 33.209932,1.1611927 32.511302,7.0767396" />
    <path
       style="fill:#2ca02c;fill-opacity:1;fill-rule:evenodd;stroke:black;stroke-width:0.62355059;stroke-linecap:butt;stroke-linejoin:miter;stroke-miterlimit:4;stroke-dasharray:none;stroke-opacity:1"
       id="path3887"
       sodipodi:nodetypes="cc"
       d="M 18.588412,6.7222077 C 17.327751,3.7679877 20.322199,-1.1078833 23.122354,4.5618277" />
    <path
       style="fill:none;fill-opacity:0.75;fill-rule:evenodd;stroke:black;stroke-width:0.50757486;stroke-linecap:round;stroke-linejoin:round;stroke-miterlimit:4;stroke-dasharray:none;stroke-opacity:1"
       id="path3893"
       sodipodi:nodetypes="cc"
       d="M 19.958793,13.476485 C 24.894313,18.920597 28.026872,16.089831 31.526585,13.56272" />
    <path
       style="fill:#010000;fill-opacity:1;fill-rule:evenodd;stroke:black;stroke-width:0.49334583;stroke-linecap:butt;stroke-linejoin:miter;stroke-miterlimit:4;stroke-dasharray:none;stroke-opacity:1"
       id="path3895"
       sodipodi:nodetypes="czzz"
       d="M 24.239896,13.600231 C 24.213169,13.254669 24.305463,12.758959 24.496419,12.949834 C 24.679652,13.132985 24.715641,13.705137 24.55106,13.956905 C 24.390588,14.202389 24.265051,13.925435 24.239896,13.600231 z " />
    <path
       style="fill:#010000;fill-opacity:1;fill-rule:evenodd;stroke:black;stroke-width:0.49334607;stroke-linecap:butt;stroke-linejoin:miter;stroke-miterlimit:4;stroke-dasharray:none;stroke-opacity:1"
       id="path3897"
       sodipodi:nodetypes="czzz"
       d="M 26.183314,13.663726 C 26.156586,13.318165 26.248879,12.822455 26.439836,13.01333 C 26.623068,13.196482 26.659057,13.768633 26.494477,14.020401 C 26.334004,14.265885 26.208465,13.988931 26.183314,13.663726 z " />
    <path
       style="fill:#010000;fill-opacity:1;fill-rule:evenodd;stroke:black;stroke-width:0.61845428;stroke-linecap:butt;stroke-linejoin:miter;stroke-miterlimit:4;stroke-dasharray:none;stroke-opacity:1"
       id="path2160"
       sodipodi:nodetypes="czzz"
       d="M 29.784222,5.1279237 C 29.674381,4.4728957 30.053681,3.5332397 30.838448,3.8950547 C 31.591467,4.2422277 31.739384,5.3267747 31.06301,5.8040189 C 30.403513,6.2693542 29.887595,5.7443617 29.784222,5.1279237 z " />
    <path
       style="fill:#2ca02c;fill-opacity:1;fill-rule:nonzero;stroke:black;stroke-width:0.62355059;stroke-linecap:round;stroke-linejoin:round;stroke-miterlimit:4;stroke-opacity:1"
       id="path9715"
       sodipodi:nodetypes="cccsccssssccccsccssssc"
       d="M 18.939656,16.621611 C 18.774237,17.171339 13.346797,21.136637 12.067223,18.108542 C 12.067223,18.108542 13.856491,13.890485 11.090209,13.106825 C 10.244419,13.343118 11.287661,15.932836 10.651398,16.481023 C 10.015137,17.029205 8.7663937,12.242698 7.5142635,15.032789 C 6.2739006,16.067193 11.014152,17.468172 10.119266,18.15476 C 9.5523668,20.106172 6.2312631,15.436087 5.8662149,18.547473 C 5.6536307,20.359379 9.0684315,18.351639 9.3151998,20.131005 C 9.5033619,21.48779 6.7852999,21.359727 7.4673463,22.483509 C 9.1193087,25.205377 10.758145,19.679883 13.109124,20.430796 C 14.616017,20.912107 16.893101,21.758875 16.812208,23.882597 M 18.959797,16.958351 C 17.907869,18.934405 13.655348,20.377035 12.104009,18.124648 C 12.104009,18.124648 13.740178,13.464153 11.112069,13.437737 C 10.266278,13.674031 11.309518,16.263748 10.673257,16.811933 C 10.036997,17.360119 9.1221939,12.643845 7.6765863,14.695823 C 6.0129147,15.938627 10.642558,17.377882 10.009267,18.283587 C 9.5529825,20.196723 5.9915195,15.547879 5.8880746,18.878385 C 5.8314372,20.701841 9.0744527,18.245528 9.3370595,20.461915 C 9.4758697,21.633491 6.6934437,21.768077 7.489206,22.814418 C 9.3602846,25.274684 10.367412,19.534288 13.130983,20.76171 C 14.576698,21.403815 17.080486,22.338079 16.958212,23.716929" />
    <path
       style="fill:#2ca02c;fill-opacity:1;fill-rule:nonzero;stroke:black;stroke-width:0.62355059;stroke-linecap:round;stroke-linejoin:round;stroke-miterlimit:4;stroke-opacity:1"
       id="path3375"
       sodipodi:nodetypes="cccsccssssccccsccssssc"
       d="M 31.274204,17.26807 C 31.439625,17.817799 37.198119,21.783097 38.477695,18.755001 C 38.477695,18.755001 36.688426,14.536945 39.454708,13.753285 C 40.300499,13.989577 39.257258,16.579297 39.893522,17.127482 C 40.529782,17.675665 41.778524,12.889158 43.030656,15.679249 C 44.271017,16.713653 39.530766,18.114631 40.425651,18.801219 C 40.992552,20.752632 44.313657,16.082547 44.678702,19.193933 C 44.891288,21.00584 41.476486,18.998099 41.229718,20.777466 C 41.041555,22.134249 43.75962,22.006187 43.077576,23.129969 C 41.425609,25.851837 39.786771,20.326343 37.435791,21.077256 C 35.9289,21.558568 34.024251,22.488098 34.105145,24.611824 M 31.254064,17.190991 C 33.671594,18.670464 36.434369,21.023497 37.985709,18.771108 C 37.985709,18.771108 36.804739,14.110612 39.432849,14.084197 C 40.27864,14.320492 39.235399,16.910209 39.871663,17.458393 C 40.50792,18.006579 41.422723,13.290305 42.868334,15.342282 C 44.532004,16.585087 39.902359,18.024342 40.535653,18.930047 C 40.991938,20.843184 44.5534,16.194339 44.656847,19.524845 C 44.713482,21.348303 41.470465,18.891987 41.207859,21.108374 C 41.069045,22.279951 43.851474,22.414537 43.055714,23.460877 C 41.184634,25.921144 40.177507,20.180748 37.413933,21.408172 C 35.96822,22.050274 34.085157,22.446574 34.166049,24.570297" />
    <path
       style="fill:#2ca02c;fill-opacity:1;fill-rule:nonzero;stroke:black;stroke-width:0.62355059;stroke-linecap:round;stroke-linejoin:round;stroke-miterlimit:4;stroke-opacity:1"
       id="path3377"
       sodipodi:nodetypes="cccsccssssccccsccssssc"
       d="M 15.397693,29.739791 C 15.128322,31.239207 17.318122,39.011136 15.421314,40.344218 C 15.421314,40.344218 12.629703,38.271626 12.005026,41.078086 C 12.289153,41.909033 14.054387,41.129501 14.637956,41.733482 C 15.22152,42.337452 12.503769,43.798528 14.131724,44.538418 C 15.235161,45.71779 15.778388,42.42697 16.514874,43.281258 C 18.495433,43.735984 14.607514,45.796337 17.734649,45.983408 C 19.555728,46.09235 17.47362,43.441316 19.236022,43.093506 C 20.579873,42.828298 20.489934,44.905486 21.573002,44.160484 C 24.196263,42.356035 18.778679,41.941151 19.670169,39.639799 C 20.284682,38.053451 21.088941,36.745006 22.577172,36.48602 M 15.43403,29.814816 C 15.218841,31.533265 17.43421,39.107569 15.683587,40.082521 C 15.683587,40.082521 12.210696,38.412058 12.334155,41.037394 C 12.618284,41.868341 14.0909,41.264389 14.674467,41.868355 C 15.258035,42.472333 12.474319,43.478957 13.786052,44.395568 C 15.121683,45.98568 15.650907,42.744583 16.591242,43.325212 C 18.52728,43.671688 14.732791,46.029315 18.063778,45.94272 C 19.887495,45.895304 17.300479,43.449349 19.506624,43.111342 C 20.083155,43.023009 20.902855,44.973915 21.902126,44.119792 C 24.251721,42.1115 18.814381,42.369637 19.882252,39.540583 C 20.440892,38.060613 20.818643,36.52753 22.596543,36.421088" />
    <path
       style="fill:#2ca02c;fill-opacity:1;fill-rule:nonzero;stroke:black;stroke-width:0.62355059;stroke-linecap:round;stroke-linejoin:round;stroke-miterlimit:4;stroke-opacity:1"
       id="path3381"
       sodipodi:nodetypes="cccsccssssccccsccssssc"
       d="M 35.160575,31.385698 C 35.181653,32.098856 33.488439,39.291438 35.385247,40.624523 C 35.385247,40.624523 38.176858,38.551931 38.801535,41.358394 C 38.517407,42.189334 36.752175,41.409809 36.168604,42.013783 C 35.585041,42.617756 38.302794,44.07883 36.674836,44.818724 C 35.571398,45.998095 35.028172,42.707276 34.291686,43.561563 C 32.311127,44.016289 36.199045,46.076638 33.071912,46.263713 C 31.250832,46.372655 33.33294,43.721621 31.570539,43.373811 C 30.226688,43.108603 30.316626,45.185794 29.233558,44.440789 C 26.610298,42.636337 32.027882,42.221453 31.136391,39.920108 C 30.521878,38.33376 30.007293,37.687422 28.643207,36.476649 M 35.207002,31.377957 C 34.884227,32.972261 33.620642,39.553398 35.371266,40.528354 C 35.371266,40.528354 38.595864,38.692359 38.472406,41.317703 C 38.188279,42.148646 36.715661,41.54469 36.132094,42.14866 C 35.548524,42.752637 38.332242,43.759262 37.020509,44.675873 C 35.684876,46.265981 35.155653,43.024891 34.215318,43.605517 C 32.279281,43.951989 36.07377,46.309619 32.742782,46.223025 C 30.919065,46.175609 33.506081,43.729654 31.299936,43.391643 C 30.723406,43.303314 29.903705,45.25422 28.904434,44.4001 C 26.554839,42.391805 31.992179,42.649942 30.924307,39.820891 C 30.365668,38.340921 30.0293,38.173438 28.665219,36.494481" />
    <g
       transform="matrix(0.200652,0,0,-0.175267,50.90207,68.3322)"
       style="fill:#2ca02c;fill-opacity:1;fill-rule:nonzero"
       inkscape:export-xdpi="90"
       inkscape:export-filename="/home/mat/Travaux/Inkscape/Gcompris/path3176.png"
       inkscape:export-ydpi="90"
       id="g3385">
      <path
         style="fill:#5fd35f;fill-opacity:1;fill-rule:nonzero;stroke:none;stroke-width:3;stroke-linecap:round;stroke-linejoin:round;stroke-miterlimit:4;stroke-opacity:1"
         id="path3387"
         sodipodi:nodetypes="ccccccc"
         d="M -155.34154,309.7501 C -135.13067,291.19449 -128.34684,282.97261 -96.608854,310.1472 C -110.95371,287.23562 -109.72338,292.11218 -112.70085,280.59483 C -117.53763,258.37011 -93.028944,234.27601 -98.87853,207.7478 C -124.50186,187.74851 -133.37802,193.32056 -148.16828,200.37789 C -176.49422,214.35015 -139.01764,263.52925 -143.95927,280.23282 C -141.53007,284.6092 -155.71929,301.5931 -155.34154,309.7501 z " />
    </g>
    <path
       style="fill:none;fill-opacity:0.75;fill-rule:evenodd;stroke:black;stroke-width:0.50757486;stroke-linecap:round;stroke-linejoin:round;stroke-miterlimit:4;stroke-dasharray:none;stroke-opacity:1"
       id="path3383"
       sodipodi:nodetypes="cc"
       d="M 19.636781,13.815844 C 24.5723,19.259957 27.70486,16.429192 31.204573,13.902078" />
    <path
       style="fill:white;fill-opacity:0.11739131;fill-rule:evenodd;stroke:none;stroke-width:3;stroke-linecap:round;stroke-linejoin:round;stroke-miterlimit:4;stroke-opacity:1"
       d="M 25.552546,33.83995 C 31.608419,33.881994 31.508668,27.958166 29.247224,25.678866 C 27.596613,21.140854 22.394461,21.174703 20.635337,25.316555 C 17.638733,26.222806 18.552974,34.272961 25.552546,33.83995 z "
       sodipodi:nodetypes="cccc"
       id="path4274" />
    <g
       style="fill:#4c4c4d;fill-opacity:0.13478262;stroke:none;stroke-opacity:1"
       id="g4276"
       transform="matrix(-0.148491,-1.673215e-3,9.109385e-3,-3.706489e-2,34.055,42.82156)">
      <path
         style="fill:#4c4c4d;fill-opacity:0.13478262;fill-rule:evenodd;stroke-width:3;stroke-linecap:round;stroke-linejoin:round;stroke-miterlimit:4"
         id="path4278"
         sodipodi:nodetypes="cccc"
         d="M 64.36126,146.46856 C 16.004758,156.37472 17.675238,282.82922 19.606266,318.25653 C 52.084536,223.0743 76.831031,166.33142 137.29465,323.70615 C 146.43399,302.88232 102.9362,137.28405 64.36126,146.46856 z " />
    </g>
    <path
       style="fill:white;fill-opacity:0.11739131;fill-rule:evenodd;stroke:none;stroke-width:3;stroke-linecap:round;stroke-linejoin:round;stroke-miterlimit:4;stroke-opacity:1"
       d="M 17.916428,10.805292 C 18.945871,13.215992 20.800125,12.331291 21.218748,10.994515 C 21.817932,9.8017722 21.032211,7.7921412 20.089937,7.4415505 C 19.251653,6.4274639 16.555712,8.1118092 17.916428,10.805292 z "
       sodipodi:nodetypes="cccc"
       id="path4280" />
    <path
       style="fill:white;fill-opacity:0.11739131;fill-rule:evenodd;stroke:none;stroke-width:3;stroke-linecap:round;stroke-linejoin:round;stroke-miterlimit:4;stroke-opacity:1"
       d="M 33.735619,10.659924 C 32.706176,13.070624 30.851922,12.185922 30.433298,10.849146 C 29.834114,9.6564035 30.619836,7.6467732 31.562111,7.2961817 C 32.400393,6.2820952 35.096334,7.9664405 33.735619,10.659924 z "
       sodipodi:nodetypes="cccc"
       id="path4282" />
    <path
       style="fill:white;fill-opacity:0.11739131;fill-rule:evenodd;stroke:none;stroke-width:3;stroke-linecap:round;stroke-linejoin:round;stroke-miterlimit:4;stroke-opacity:1"
       d="M 23.959151,4.8462497 C 25.167807,3.8142237 26.927972,4.5473967 27.234665,5.2767927 C 27.731115,5.9634322 26.795077,6.835264 25.836796,6.8594989 C 24.928268,7.2292835 22.400871,5.9659054 23.959151,4.8462497 z "
       sodipodi:nodetypes="cccc"
       id="path4284" />
    <path
       style="fill:none;fill-opacity:1;fill-rule:evenodd;stroke:black;stroke-width:0.62355059;stroke-linecap:butt;stroke-linejoin:miter;stroke-miterlimit:4;stroke-dasharray:none;stroke-opacity:1"
       id="path4294"
       sodipodi:nodetypes="cc"
       d="M 28.003609,4.7087737 C 29.682552,1.3798847 33.279319,1.0147327 32.580688,6.9302804" />
    <path
       style="fill:none;fill-opacity:1;fill-rule:evenodd;stroke:black;stroke-width:0.62355059;stroke-linecap:butt;stroke-linejoin:miter;stroke-miterlimit:4;stroke-dasharray:none;stroke-opacity:1"
       id="path4296"
       sodipodi:nodetypes="cc"
       d="M 18.737216,6.6611034 C 17.476555,3.7068837 20.471003,-1.1689863 23.271158,4.5007237" />
    <g
       style="fill:#4c4c4d;fill-opacity:0.13478262;stroke:none;stroke-opacity:1"
       id="g4300"
       transform="matrix(-8.507758e-2,-1.673215e-3,5.21924e-3,-3.706489e-2,30.2312,25.08916)">
      <path
         style="fill:#4c4c4d;fill-opacity:0.13478262;fill-rule:evenodd;stroke-width:3;stroke-linecap:round;stroke-linejoin:round;stroke-miterlimit:4"
         id="path4302"
         sodipodi:nodetypes="cccc"
         d="M 64.36126,146.46856 C 16.004758,156.37472 17.675238,282.82922 19.606266,318.25653 C 52.084536,223.0743 76.831031,166.33142 137.29465,323.70615 C 146.43399,302.88232 102.9362,137.28405 64.36126,146.46856 z " />
    </g>
    <path
       style="fill:#010000;fill-opacity:1;fill-rule:evenodd;stroke:black;stroke-width:0.61845428;stroke-linecap:butt;stroke-linejoin:miter;stroke-miterlimit:4;stroke-dasharray:none;stroke-opacity:1"
       id="path6625"
       sodipodi:nodetypes="czzz"
       d="M 19.773235,4.8284307 C 19.663395,4.1734007 20.042694,3.2337457 20.827462,3.5955607 C 21.58048,3.9427327 21.728397,5.0272807 21.052023,5.5045257 C 20.392527,5.9698607 19.876607,5.4448687 19.773235,4.8284307 z " />
    <g
       id="g2176"
       transform="translate(-42.926,30.68551)">
      <path
         sodipodi:nodetypes="cc"
         id="path4903"
         d="M 44.545944,9.3144879 C 46.387917,10.127502 76.700396,7.4966469 90.337329,9.3144879"
         style="fill:none;fill-opacity:0.75;fill-rule:evenodd;stroke:black;stroke-width:2;stroke-linecap:butt;stroke-linejoin:miter;stroke-miterlimit:4;stroke-dasharray:none;stroke-opacity:1" />
      <path
         sodipodi:nodetypes="cc"
         id="path4905"
         d="M 52.555721,-29.981948 C 51.766318,-28.039685 54.320769,3.9232209 52.555721,18.302646"
         style="fill:none;fill-opacity:0.75;fill-rule:evenodd;stroke:black;stroke-width:2.02368402;stroke-linecap:butt;stroke-linejoin:miter;stroke-miterlimit:4;stroke-dasharray:none;stroke-opacity:1" />
      <g
         transform="translate(66.91616,7.354368)"
         style="fill:white;fill-opacity:1"
         id="g4857">
        <path
           sodipodi:type="arc"
           style="opacity:1;fill:white;fill-opacity:1;fill-rule:evenodd;stroke:black;stroke-width:1;stroke-linecap:round;stroke-linejoin:round;stroke-miterlimit:4;stroke-dasharray:none;stroke-dashoffset:0;stroke-opacity:1"
           id="path4851"
           sodipodi:cx="-13.995799"
           sodipodi:cy="2.7731483"
           sodipodi:rx="5.0959063"
           sodipodi:ry="5.8854132"
           d="M -8.8998928 2.7731483 A 5.0959063 5.8854132 0 1 1  -19.091705,2.7731483 A 5.0959063 5.8854132 0 1 1  -8.8998928 2.7731483 z" />
        <path
           sodipodi:type="arc"
           style="opacity:1;fill:white;fill-opacity:1;fill-rule:evenodd;stroke:black;stroke-width:1;stroke-linecap:round;stroke-linejoin:round;stroke-miterlimit:4;stroke-dasharray:none;stroke-dashoffset:0;stroke-opacity:1"
           id="path4853"
           sodipodi:cx="-13.995799"
           sodipodi:cy="2.7731483"
           sodipodi:rx="5.0959063"
           sodipodi:ry="5.8854132"
           d="M -8.8998928 2.7731483 A 5.0959063 5.8854132 0 1 1  -19.091705,2.7731483 A 5.0959063 5.8854132 0 1 1  -8.8998928 2.7731483 z"
           transform="translate(0.165892,-0.430637)" />
      </g>
      <g
         transform="translate(82.20219,-21.06788)"
         id="g4869">
        <path
           sodipodi:type="arc"
           style="fill:#2b2b2b;fill-opacity:1;fill-rule:evenodd;stroke:black;stroke-width:1;stroke-linecap:round;stroke-linejoin:round;stroke-miterlimit:4;stroke-dasharray:none;stroke-dashoffset:0;stroke-opacity:1"
           id="path4863"
           sodipodi:cx="-13.995799"
           sodipodi:cy="2.7731483"
           sodipodi:rx="5.0959063"
           sodipodi:ry="5.8854132"
           d="M -8.8998928 2.7731483 A 5.0959063 5.8854132 0 1 1  -19.091705,2.7731483 A 5.0959063 5.8854132 0 1 1  -8.8998928 2.7731483 z"
           transform="translate(-0.408295,28.63756)" />
        <path
           sodipodi:type="arc"
           style="fill:none;fill-opacity:1;fill-rule:evenodd;stroke:black;stroke-width:1;stroke-linecap:round;stroke-linejoin:round;stroke-miterlimit:4;stroke-dasharray:none;stroke-dashoffset:0;stroke-opacity:1"
           id="path4865"
           sodipodi:cx="-13.995799"
           sodipodi:cy="2.7731483"
           sodipodi:rx="5.0959063"
           sodipodi:ry="5.8854132"
           d="M -8.8998928 2.7731483 A 5.0959063 5.8854132 0 1 1  -19.091705,2.7731483 A 5.0959063 5.8854132 0 1 1  -8.8998928 2.7731483 z"
           transform="translate(-0.242403,28.20692)" />
      </g>
      <path
         sodipodi:nodetypes="cc"
         id="path4907"
         d="M 83.063584,-29.981948 C 82.274181,-28.039685 84.828632,3.9232209 83.063584,18.302646"
         style="fill:none;fill-opacity:0.75;fill-rule:evenodd;stroke:black;stroke-width:2.02368402;stroke-linecap:butt;stroke-linejoin:miter;stroke-miterlimit:4;stroke-dasharray:none;stroke-opacity:1" />
      <g
         transform="translate(97.10691,-52.36106)"
         id="g4873">
        <path
           sodipodi:type="arc"
           style="fill:#2b2b2b;fill-opacity:1;fill-rule:evenodd;stroke:black;stroke-width:1;stroke-linecap:round;stroke-linejoin:round;stroke-miterlimit:4;stroke-dasharray:none;stroke-dashoffset:0;stroke-opacity:1"
           id="path4875"
           sodipodi:cx="-13.995799"
           sodipodi:cy="2.7731483"
           sodipodi:rx="5.0959063"
           sodipodi:ry="5.8854132"
           d="M -8.8998928 2.7731483 A 5.0959063 5.8854132 0 1 1  -19.091705,2.7731483 A 5.0959063 5.8854132 0 1 1  -8.8998928 2.7731483 z"
           transform="translate(-0.408295,28.63756)" />
        <path
           sodipodi:type="arc"
           style="fill:none;fill-opacity:1;fill-rule:evenodd;stroke:black;stroke-width:1;stroke-linecap:round;stroke-linejoin:round;stroke-miterlimit:4;stroke-dasharray:none;stroke-dashoffset:0;stroke-opacity:1"
           id="path4877"
           sodipodi:cx="-13.995799"
           sodipodi:cy="2.7731483"
           sodipodi:rx="5.0959063"
           sodipodi:ry="5.8854132"
           d="M -8.8998928 2.7731483 A 5.0959063 5.8854132 0 1 1  -19.091705,2.7731483 A 5.0959063 5.8854132 0 1 1  -8.8998928 2.7731483 z"
           transform="translate(-0.242403,28.20692)" />
      </g>
      <g
         transform="translate(97.12853,-21.49852)"
         id="g4879">
        <path
           sodipodi:type="arc"
           style="fill:#2b2b2b;fill-opacity:1;fill-rule:evenodd;stroke:black;stroke-width:1;stroke-linecap:round;stroke-linejoin:round;stroke-miterlimit:4;stroke-dasharray:none;stroke-dashoffset:0;stroke-opacity:1"
           id="path4881"
           sodipodi:cx="-13.995799"
           sodipodi:cy="2.7731483"
           sodipodi:rx="5.0959063"
           sodipodi:ry="5.8854132"
           d="M -8.8998928 2.7731483 A 5.0959063 5.8854132 0 1 1  -19.091705,2.7731483 A 5.0959063 5.8854132 0 1 1  -8.8998928 2.7731483 z"
           transform="translate(-0.408295,28.63756)" />
        <path
           sodipodi:type="arc"
           style="fill:none;fill-opacity:1;fill-rule:evenodd;stroke:black;stroke-width:1;stroke-linecap:round;stroke-linejoin:round;stroke-miterlimit:4;stroke-dasharray:none;stroke-dashoffset:0;stroke-opacity:1"
           id="path4883"
           sodipodi:cx="-13.995799"
           sodipodi:cy="2.7731483"
           sodipodi:rx="5.0959063"
           sodipodi:ry="5.8854132"
           d="M -8.8998928 2.7731483 A 5.0959063 5.8854132 0 1 1  -19.091705,2.7731483 A 5.0959063 5.8854132 0 1 1  -8.8998928 2.7731483 z"
           transform="translate(-0.242403,28.20692)" />
      </g>
      <path
         sodipodi:nodetypes="cc"
         id="path4909"
         d="M 44.596532,-5.8461361 C 46.438505,-5.0331221 76.750984,-7.6639771 90.387917,-5.8461361"
         style="fill:none;fill-opacity:0.75;fill-rule:evenodd;stroke:black;stroke-width:2;stroke-linecap:butt;stroke-linejoin:miter;stroke-miterlimit:4;stroke-dasharray:none;stroke-opacity:1" />
      <g
         transform="translate(96.56043,-8.220462)"
         style="fill:white;fill-opacity:1"
         id="g4885">
        <path
           sodipodi:type="arc"
           style="opacity:1;fill:white;fill-opacity:1;fill-rule:evenodd;stroke:black;stroke-width:1;stroke-linecap:round;stroke-linejoin:round;stroke-miterlimit:4;stroke-dasharray:none;stroke-dashoffset:0;stroke-opacity:1"
           id="path4887"
           sodipodi:cx="-13.995799"
           sodipodi:cy="2.7731483"
           sodipodi:rx="5.0959063"
           sodipodi:ry="5.8854132"
           d="M -8.8998928 2.7731483 A 5.0959063 5.8854132 0 1 1  -19.091705,2.7731483 A 5.0959063 5.8854132 0 1 1  -8.8998928 2.7731483 z" />
        <path
           sodipodi:type="arc"
           style="opacity:1;fill:white;fill-opacity:1;fill-rule:evenodd;stroke:black;stroke-width:1;stroke-linecap:round;stroke-linejoin:round;stroke-miterlimit:4;stroke-dasharray:none;stroke-dashoffset:0;stroke-opacity:1"
           id="path4889"
           sodipodi:cx="-13.995799"
           sodipodi:cy="2.7731483"
           sodipodi:rx="5.0959063"
           sodipodi:ry="5.8854132"
           d="M -8.8998928 2.7731483 A 5.0959063 5.8854132 0 1 1  -19.091705,2.7731483 A 5.0959063 5.8854132 0 1 1  -8.8998928 2.7731483 z"
           transform="translate(0.165892,-0.430637)" />
      </g>
      <g
         transform="translate(66.57545,-24.84407)"
         style="fill:white;fill-opacity:1"
         id="g4891">
        <path
           sodipodi:type="arc"
           style="opacity:1;fill:white;fill-opacity:1;fill-rule:evenodd;stroke:black;stroke-width:1;stroke-linecap:round;stroke-linejoin:round;stroke-miterlimit:4;stroke-dasharray:none;stroke-dashoffset:0;stroke-opacity:1"
           id="path4893"
           sodipodi:cx="-13.995799"
           sodipodi:cy="2.7731483"
           sodipodi:rx="5.0959063"
           sodipodi:ry="5.8854132"
           d="M -8.8998928 2.7731483 A 5.0959063 5.8854132 0 1 1  -19.091705,2.7731483 A 5.0959063 5.8854132 0 1 1  -8.8998928 2.7731483 z" />
        <path
           sodipodi:type="arc"
           style="opacity:1;fill:white;fill-opacity:1;fill-rule:evenodd;stroke:black;stroke-width:1;stroke-linecap:round;stroke-linejoin:round;stroke-miterlimit:4;stroke-dasharray:none;stroke-dashoffset:0;stroke-opacity:1"
           id="path4895"
           sodipodi:cx="-13.995799"
           sodipodi:cy="2.7731483"
           sodipodi:rx="5.0959063"
           sodipodi:ry="5.8854132"
           d="M -8.8998928 2.7731483 A 5.0959063 5.8854132 0 1 1  -19.091705,2.7731483 A 5.0959063 5.8854132 0 1 1  -8.8998928 2.7731483 z"
           transform="translate(0.165892,-0.430637)" />
      </g>
      <g
         transform="translate(67.00609,-8.409862)"
         style="fill:white;fill-opacity:1"
         id="g4897">
        <path
           sodipodi:type="arc"
           style="opacity:1;fill:white;fill-opacity:1;fill-rule:evenodd;stroke:black;stroke-width:1;stroke-linecap:round;stroke-linejoin:round;stroke-miterlimit:4;stroke-dasharray:none;stroke-dashoffset:0;stroke-opacity:1"
           id="path4899"
           sodipodi:cx="-13.995799"
           sodipodi:cy="2.7731483"
           sodipodi:rx="5.0959063"
           sodipodi:ry="5.8854132"
           d="M -8.8998928 2.7731483 A 5.0959063 5.8854132 0 1 1  -19.091705,2.7731483 A 5.0959063 5.8854132 0 1 1  -8.8998928 2.7731483 z" />
        <path
           sodipodi:type="arc"
           style="opacity:1;fill:white;fill-opacity:1;fill-rule:evenodd;stroke:black;stroke-width:1;stroke-linecap:round;stroke-linejoin:round;stroke-miterlimit:4;stroke-dasharray:none;stroke-dashoffset:0;stroke-opacity:1"
           id="path4901"
           sodipodi:cx="-13.995799"
           sodipodi:cy="2.7731483"
           sodipodi:rx="5.0959063"
           sodipodi:ry="5.8854132"
           d="M -8.8998928 2.7731483 A 5.0959063 5.8854132 0 1 1  -19.091705,2.7731483 A 5.0959063 5.8854132 0 1 1  -8.8998928 2.7731483 z"
           transform="translate(0.165892,-0.430637)" />
      </g>
    </g>
  </g>
</svg>
