<?xml version="1.0" encoding="UTF-8" standalone="no"?>
<!-- Created with Inkscape (http://www.inkscape.org/) -->
<svg
   xmlns:dc="http://purl.org/dc/elements/1.1/"
   xmlns:cc="http://web.resource.org/cc/"
   xmlns:rdf="http://www.w3.org/1999/02/22-rdf-syntax-ns#"
   xmlns:svg="http://www.w3.org/2000/svg"
   xmlns="http://www.w3.org/2000/svg"
   xmlns:sodipodi="http://sodipodi.sourceforge.net/DTD/sodipodi-0.dtd"
   xmlns:inkscape="http://www.inkscape.org/namespaces/inkscape"
   width="100"
   height="100"
   id="svg10790"
   sodipodi:version="0.32"
   inkscape:version="0.44.1"
   version="1.0"
   sodipodi:docbase="/home/mat/Travaux/Inkscape/Gcompris/boardicons"
   sodipodi:docname="sudoku.svg">
  <defs
     id="defs10792" />
  <sodipodi:namedview
     id="base"
     pagecolor="#ffffff"
     bordercolor="#666666"
     borderopacity="1.0"
     inkscape:pageopacity="0.0"
     inkscape:pageshadow="2"
     inkscape:zoom="4.9036492"
     inkscape:cx="63.536534"
     inkscape:cy="66.290212"
     inkscape:document-units="px"
     inkscape:current-layer="layer1"
     height="100px"
     width="100px"
     inkscape:window-width="1022"
     inkscape:window-height="927"
     inkscape:window-x="216"
     inkscape:window-y="47" />
  <metadata
     id="metadata10795">
    <rdf:RDF>
      <cc:Work
         rdf:about="">
        <dc:format>image/svg+xml</dc:format>
        <dc:type
           rdf:resource="http://purl.org/dc/dcmitype/StillImage" />
      </cc:Work>
    </rdf:RDF>
  </metadata>
  <g
     inkscape:label="Calque 1"
     id="layer1"
     inkscape:groupmode="layer">
    <path
       style="fill:white;fill-opacity:0.75;fill-rule:evenodd;stroke:black;stroke-width:1.02651012px;stroke-linecap:butt;stroke-linejoin:miter;stroke-opacity:1"
       d="M 10.150522,7.9223185 L 5.3622464,12.553151 L 7.8604771,23.498758 L 5.5704322,36.970272 L 5.986804,57.177544 L 3.0722015,88.9619 L 10.775079,95.908149 L 81.141912,94.855687 L 89.677533,85.594021 L 91.551207,18.867924 L 85.930187,7.0803488 L 53.86956,7.2908412 L 44.501194,5.185917 L 10.150522,7.9223185 z "
       id="path29949" />
    <path
       style="fill:none;fill-opacity:0.75000000;fill-rule:evenodd;stroke:#000000;stroke-linecap:butt;stroke-linejoin:miter;stroke-opacity:1.0000000;stroke-width:1,000000pt"
       d="M 8,013077 25,081298 L 8,013077 90,548682 M 18,013077 25,081298 L 18,013077 90,548682 M 28,013077 25,081298 L 28,013077 90,548682 M 38,013077 25,081298 L 38,013077 90,548682 M 48,013077 25,081298 L 48,013077 90,548682 M 58,013077 25,081298 L 58,013077 90,548682 M 68,013077 25,081298 L 68,013077 90,548682 M 78,013077 25,081298 L 78,013077 90,548682 M 88,013077 25,081298 L 88,013077 90,548682 M 98,013077 25,081298 L 98,013077 90,548682 M 3,013077 30,081298 L 102,497492 30,081298 M 3,013077 40,081298 L 102,497492 40,081298 M 3,013077 50,081298 L 102,497492 50,081298 M 3,013077 60,081298 L 102,497492 60,081298 M 3,013077 70,081298 L 102,497492 70,081298 M 3,013077 80,081298 L 102,497492 80,081298 M 3,013077 90,081298 L 102,497492 90,081298 "
       id="path25447" />
    <path
       style="fill:none;fill-opacity:0.75000000;fill-rule:evenodd;stroke:#000000;stroke-linecap:butt;stroke-linejoin:miter;stroke-opacity:1.0000000;stroke-width:1,000000pt"
       d="M 8,013077 25,081298 L 8,013077 90,548682 M 13,213077 25,081298 L 13,213077 90,548682 M 18,413077 25,081298 L 18,413077 90,548682 M 23,613077 25,081298 L 23,613077 90,548682 M 28,813077 25,081298 L 28,813077 90,548682 M 34,013076 25,081298 L 34,013076 90,548682 M 39,213076 25,081298 L 39,213076 90,548682 M 44,413076 25,081298 L 44,413076 90,548682 M 49,613076 25,081298 L 49,613076 90,548682 M 54,813076 25,081298 L 54,813076 90,548682 M 60,013075 25,081298 L 60,013075 90,548682 M 65,213075 25,081298 L 65,213075 90,548682 M 70,413075 25,081298 L 70,413075 90,548682 M 75,613075 25,081298 L 75,613075 90,548682 M 80,813075 25,081298 L 80,813075 90,548682 M 86,013074 25,081298 L 86,013074 90,548682 M 91,213074 25,081298 L 91,213074 90,548682 M 96,413074 25,081298 L 96,413074 90,548682 M 101,613074 25,081298 L 101,613074 90,548682 M 3,013077 30,081298 L 102,497492 30,081298 M 3,013077 40,081298 L 102,497492 40,081298 M 3,013077 50,081298 L 102,497492 50,081298 M 3,013077 60,081298 L 102,497492 60,081298 M 3,013077 70,081298 L 102,497492 70,081298 M 3,013077 80,081298 L 102,497492 80,081298 M 3,013077 90,081298 L 102,497492 90,081298 "
       id="path25449" />
    <path
       style="fill:black;fill-opacity:1;fill-rule:evenodd;stroke:none;stroke-width:1px;stroke-linecap:butt;stroke-linejoin:miter;stroke-opacity:1"
       d="M 45.866563,3.65625 L 22.264446,4.043754 L 8.8781711,5.4646021 L 4.2986559,10.308402 C 4.2986559,10.308402 5.1004362,16.750519 5.8998849,22.191859 C 6.6993336,27.633199 4.1065086,34.173367 4.1065084,34.979492 C 4.1065084,35.785617 4.4985178,48.390805 4.2986559,49.801521 C 4.0987937,51.212239 4.1053426,70.753601 3.3058938,72.567383 C 2.5064452,74.381163 2.7525954,87.536485 2.1530089,88.745676 C 1.5534224,89.954863 5.2593932,94.396776 5.2593933,94.396776 C 5.2593933,94.396776 10.385659,98.473345 11.984556,98.271816 C 13.583453,98.070285 23.950985,97.416669 27.548502,97.819728 C 31.146021,98.22279 43.286116,97.303057 47.083497,97.303056 C 50.880878,97.303056 75.523654,98.634804 77.122555,98.433276 C 78.721452,98.231745 86.827167,95.155048 87.626618,94.751988 C 88.426067,94.348926 91.437546,88.487336 91.437543,88.48734 L 92.622453,79.025783 L 93.23092,64.332922 L 94.832149,48.800469 L 94.640002,27.229412 L 94.415829,16.766803 C 94.415829,16.766803 91.420948,9.9029886 91.021224,8.6938023 C 90.6215,7.4846158 87.626615,5.2708501 87.626618,5.2708501 C 87.626618,5.2708501 76.447705,5.2708501 74.84881,5.2708501 C 73.249913,5.2708501 54.449151,5.4646023 54.449151,5.4646021 L 45.866563,3.65625 z M 46.186809,7.3375382 L 53.968783,9.0167224 C 53.968782,9.0167219 71.027808,8.8229703 72.478991,8.8229703 C 73.930177,8.8229699 84.103914,8.8229703 84.103914,8.8229703 C 84.10391,8.8229699 86.815478,10.872488 87.178274,11.987587 C 87.541067,13.102684 90.252634,19.447039 90.252634,19.447039 L 90.444781,29.102348 L 90.636929,48.994221 L 89.163798,63.299578 L 88.61938,76.862219 L 87.530544,85.581059 C 87.530543,85.581056 84.829507,90.98963 84.103914,91.361328 C 83.378319,91.733027 76.011772,94.566139 74.560589,94.751988 C 73.109401,94.93784 50.75423,93.718644 47.30767,93.718644 C 43.861108,93.718647 32.831215,94.542431 29.566051,94.170732 C 26.300888,93.799036 16.894396,94.404679 15.443211,94.590528 C 13.992027,94.776374 9.3585398,91.038408 9.3585398,91.038408 C 9.3585398,91.038407 5.9641583,86.922202 6.508352,85.807103 C 7.0525458,84.692007 6.8075471,72.593137 7.5331386,70.920491 C 8.2587305,69.247844 8.2804536,51.199344 8.4618515,49.898397 C 8.6432491,48.597451 8.3017286,36.982278 8.3017286,36.23888 C 8.301729,35.495481 10.628549,29.470237 9.9029577,24.452299 C 9.1773657,19.434362 8.4618515,13.473019 8.4618515,13.473019 L 12.625047,9.0167224 L 24.794388,7.7250423 L 46.186809,7.3375382 z "
       id="path28146" />
    <path
       style="fill:black;fill-opacity:1;fill-rule:evenodd;stroke:none;stroke-width:1px;stroke-linecap:butt;stroke-linejoin:miter;stroke-opacity:1"
       d="M 34.056269,2.3176452 L 37.115216,2.3176452 L 35.483777,27.604936 L 36.095567,50.445069 L 36.299497,88.376004 L 36.707356,98.164633 L 33.852339,98.164633 L 32.832691,84.909198 L 33.64841,68.798747 L 33.03662,47.997912 L 32.628761,14.553431 L 34.056269,2.3176452 z "
       id="path29036" />
    <path
       style="fill:black;fill-opacity:1;fill-rule:evenodd;stroke:none;stroke-width:1px;stroke-linecap:butt;stroke-linejoin:miter;stroke-opacity:1"
       d="M 96.458777,35.150335 L 96.458777,38.209282 L 71.171487,36.577843 L 48.331353,37.189633 L 10.400418,37.393563 L 0.61178869,37.801422 L 0.61178869,34.946405 L 13.867224,33.926757 L 29.977676,34.742476 L 50.77851,34.130686 L 84.222992,33.722827 L 96.458777,35.150335 z "
       id="path29923" />
    <g
       id="g3523"
       transform="matrix(0.770563,0,0,0.64776,24.53387,31.99793)">
      <path
         id="path30136"
         d="M 74.230432,12.106274 L 78.920817,17.408447 L 77.697238,26.177427 L 73.414713,32.907109 L 81.571904,32.49925 L 81.571904,41.676089 L 61.382858,42.287878 L 61.790717,32.703179 L 66.277172,29.644233 L 62.198577,28.012795 L 58.119981,25.769568 L 60.363209,18.428096 L 66.481102,12.106274 L 74.230432,12.106274 z "
         style="fill:#ff140e;fill-opacity:1;fill-rule:evenodd;stroke:black;stroke-width:1px;stroke-linecap:butt;stroke-linejoin:miter;stroke-opacity:1" />
      <path
         id="text29937"
         d="M 82.932469,34.157144 C 82.932443,34.085148 82.920443,34.313148 82.896469,34.841144 C 82.872443,35.633146 82.848443,36.989145 82.824469,38.909144 C 82.776443,39.629142 82.704443,40.613141 82.608469,41.861144 C 82.608443,42.34114 82.512443,43.037139 82.320469,43.949144 C 82.248444,44.117138 81.612444,44.261138 80.412469,44.381144 C 79.452446,44.477138 78.612447,44.525137 77.892469,44.525144 L 65.652469,44.309144 C 65.58046,44.309138 65.38846,44.273138 65.076469,44.201144 C 64.764461,44.153138 64.560461,44.129138 64.464469,44.129144 C 63.768462,44.081138 63.060463,44.033138 62.340469,43.985144 C 61.428464,43.889138 60.732465,43.721138 60.252469,43.481144 C 59.772466,43.241139 59.532466,42.50914 59.532469,41.285144 C 59.532466,41.237141 59.568466,40.793141 59.640469,39.953144 C 59.736466,39.113143 59.796466,38.501144 59.820469,38.117144 C 59.868466,37.301145 59.904466,36.485146 59.928469,35.669144 C 60.000466,34.541147 60.204466,33.653148 60.540469,33.005144 C 60.540465,32.741149 60.636465,32.39315 60.828469,31.961144 C 60.996465,31.76915 61.296465,31.55315 61.728469,31.313144 C 62.160464,31.049151 62.448463,30.857151 62.592469,30.737144 C 62.208464,30.401152 61.452464,29.921152 60.324469,29.297144 C 59.292467,28.721153 58.560467,28.229154 58.128469,27.821144 C 57.480468,27.197155 57.156469,26.501156 57.156469,25.733144 C 57.156469,25.829156 57.216469,25.529156 57.336469,24.833144 C 57.504468,23.921158 57.960468,22.43316 58.704469,20.369144 C 59.472466,18.281164 60.732465,16.181166 62.484469,14.069144 C 64.356461,11.76517 66.10846,10.373172 67.740469,9.8931442 C 68.028458,9.7491723 68.448457,9.5811724 69.000469,9.3891442 C 69.624456,9.2691728 70.392455,9.2091728 71.304469,9.2091442 C 73.248453,9.2091728 75.024451,9.7491723 76.632469,10.829144 C 78.240448,11.90917 79.260447,13.205169 79.692469,14.717144 C 80.100446,16.085166 80.304445,17.477165 80.304469,18.893144 C 80.304445,20.765161 79.860446,22.985159 78.972469,25.553144 C 78.180448,27.857154 77.340448,29.597152 76.452469,30.773144 C 76.452449,30.941151 76.584449,31.025151 76.848469,31.025144 C 76.944449,31.025151 77.628448,30.953151 78.900469,30.809144 C 80.196446,30.641151 80.892445,30.557151 80.988469,30.557144 C 81.468444,30.557151 81.804444,30.617151 81.996469,30.737144 C 82.284444,30.905151 82.524443,31.445151 82.716469,32.357144 C 82.860443,33.077149 82.932443,33.677148 82.932469,34.157144 M 80.448469,36.641144 C 80.448445,36.545145 80.412445,36.317146 80.340469,35.957144 C 80.292446,35.573146 80.256446,35.309147 80.232469,35.165144 C 80.184446,34.733147 80.040446,34.433148 79.800469,34.265144 C 79.584446,34.073148 79.188447,33.977148 78.612469,33.977144 L 70.440469,35.237144 C 69.984456,35.045147 69.756456,34.817147 69.756469,34.553144 C 69.756456,34.457148 70.176456,33.989148 71.016469,33.149144 C 72.000454,32.16515 72.672453,31.445151 73.032469,30.989144 C 73.392452,30.509152 73.836452,29.825152 74.364469,28.937144 C 75.252451,27.497155 75.86445,26.177156 76.200469,24.977144 C 76.344449,24.425158 76.500449,23.513159 76.668469,22.241144 C 76.836449,21.113161 76.920449,20.441162 76.920469,20.225144 C 76.920449,18.905163 76.644449,17.645164 76.092469,16.445144 C 75.39645,14.909167 74.412451,13.961168 73.140469,13.601144 C 72.492453,13.409169 71.616454,13.313169 70.512469,13.313144 C 70.368455,13.313169 69.960456,13.385169 69.288469,13.529144 C 68.616457,13.673168 68.256458,13.745168 68.208469,13.745144 C 66.696459,13.889168 65.076461,14.873167 63.348469,16.697144 C 61.644464,18.521163 60.744465,20.213162 60.648469,21.773144 C 60.624465,21.96516 60.528465,22.36116 60.360469,22.961144 C 60.192466,23.561158 60.108466,23.897158 60.108469,23.969144 C 60.108466,24.737157 60.156466,25.193157 60.252469,25.337144 C 60.732465,26.009156 61.404464,26.549155 62.268469,26.957144 C 63.012463,27.293155 63.756462,27.629154 64.500469,27.965144 C 64.572461,27.893154 64.644461,27.809154 64.716469,27.713144 C 64.980461,25.721156 65.196461,24.509158 65.364469,24.077144 C 65.89246,22.589159 66.372459,21.56916 66.804469,21.017144 C 67.428458,20.273162 68.280458,19.901162 69.360469,19.901144 C 70.440455,19.901162 71.232455,20.585161 71.736469,21.953144 C 72.072454,22.865159 72.240454,23.861158 72.240469,24.941144 C 72.240454,26.381156 72.012454,27.473155 71.556469,28.217144 C 71.364454,28.505154 70.656455,29.081153 69.432469,29.945144 C 68.880457,30.401152 68.052458,30.977151 66.948469,31.673144 C 66.10846,31.93715 64.932461,32.34515 63.420469,32.897144 C 63.204463,32.993149 62.976463,33.569148 62.736469,34.625144 C 62.496463,35.681146 62.376463,36.545145 62.376469,37.217144 L 62.376469,40.637144 C 62.640463,40.901141 62.928463,41.033141 63.240469,41.033144 C 63.288463,41.033141 63.708462,40.997141 64.500469,40.925144 C 65.292461,40.877141 65.82046,40.841141 66.084469,40.817144 C 66.684459,40.817141 67.548458,40.829141 68.676469,40.853144 C 69.924456,40.877141 70.476455,40.889141 70.332469,40.889144 C 72.252454,40.889141 75.40845,40.661141 79.800469,40.205144 C 79.992446,40.181142 80.148446,39.677142 80.268469,38.693144 C 80.388445,37.901144 80.448445,37.217145 80.448469,36.641144"
         style="font-size:36px;font-style:normal;font-variant:normal;font-weight:normal;font-stretch:normal;text-align:start;line-height:100%;writing-mode:lr-tb;text-anchor:start;fill:black;fill-opacity:1;stroke:none;stroke-width:1px;stroke-linecap:butt;stroke-linejoin:miter;stroke-opacity:1;font-family:Indigo Joker" />
    </g>
    <g
       id="g3527"
       transform="matrix(0.788149,0,0,0.707591,29.81506,31.17495)">
      <path
         id="path30138"
         d="M 15.090802,64.924081 L 16.72224,57.58261 L 24.879431,53.096155 L 32.220902,56.766891 L 34.668059,63.496573 L 30.385534,69.614466 L 33.64841,73.081272 L 32.016972,80.626673 L 26.103009,84.705268 L 19.169397,84.093479 L 15.702591,80.218813 L 15.498662,73.285202 L 20.800835,71.653763 L 21.616554,67.575168 L 15.090802,64.924081 z "
         style="fill:#ffba0e;fill-opacity:1;fill-rule:evenodd;stroke:black;stroke-width:1px;stroke-linecap:butt;stroke-linejoin:miter;stroke-opacity:1" />
      <path
         id="text29941"
         d="M 35.811361,61.886533 C 35.811338,61.958551 35.775338,62.126551 35.703361,62.390533 C 35.655338,62.630551 35.619338,62.810551 35.595361,62.930533 C 35.547339,64.202549 35.283339,65.378548 34.803361,66.458533 C 34.44334,67.250546 33.74734,68.378545 32.715361,69.842533 C 33.099341,70.250543 33.56734,70.838543 34.119361,71.606533 C 34.959339,73.43054 35.379339,74.906538 35.379361,76.034533 C 35.379339,77.786536 34.755339,79.514534 33.507361,81.218533 C 33.195341,81.770532 32.883341,82.322531 32.571361,82.874533 C 32.115342,83.66653 31.575342,84.290529 30.951361,84.746533 C 29.655344,85.658528 28.143346,86.318527 26.415361,86.726533 C 25.359349,86.966526 24.54335,87.086526 23.967361,87.086533 C 21.639352,87.086526 19.623354,86.390527 17.919361,84.998533 C 15.975358,83.41453 14.883359,81.266532 14.643361,78.554533 C 14.619359,78.458535 14.559359,78.278535 14.463361,78.014533 C 14.39136,77.726536 14.35536,77.534536 14.355361,77.438533 L 14.355361,73.838533 C 14.35536,73.43054 14.583359,72.90254 15.039361,72.254533 C 15.135359,72.110541 15.399359,71.930541 15.831361,71.714533 C 16.287358,71.474542 16.647357,71.354542 16.911361,71.354533 C 17.007357,71.354542 17.079357,71.378542 17.127361,71.426533 C 17.199357,71.450542 17.295357,71.462542 17.415361,71.462533 C 17.775356,71.462542 18.219356,71.390542 18.747361,71.246533 C 19.371355,71.078542 19.767354,70.898542 19.935361,70.706533 C 20.103354,70.514543 20.187354,70.154543 20.187361,69.626533 C 20.187354,69.098544 19.899354,68.654545 19.323361,68.294533 C 18.243356,67.574546 16.707357,67.190546 14.715361,67.142533 C 14.595359,67.118546 14.39136,67.010546 14.103361,66.818533 C 13.81536,66.602547 13.67136,66.422547 13.671361,66.278533 C 13.67136,65.294548 13.79136,63.878549 14.031361,62.030533 C 14.10336,61.862551 14.18736,61.646552 14.283361,61.382533 C 14.619359,59.318554 15.831358,57.170556 17.919361,54.938533 C 18.255356,54.746559 18.759355,54.410559 19.431361,53.930533 C 20.703353,52.850561 22.215352,52.154561 23.967361,51.842533 C 24.03935,51.818562 24.21935,51.758562 24.507361,51.662533 C 24.795349,51.566562 24.987349,51.518562 25.083361,51.518533 C 26.619347,51.518562 28.131346,51.914561 29.619361,52.706533 C 30.171344,52.94656 30.975343,53.37856 32.031361,54.002533 C 34.551339,56.066557 35.811338,58.694555 35.811361,61.886533 M 32.607361,63.182533 C 32.607341,61.142552 31.863342,59.390554 30.375361,57.926533 C 28.887345,56.438557 27.063347,55.694558 24.903361,55.694533 C 24.27935,55.694558 23.89535,55.706558 23.751361,55.730533 C 23.63135,55.754558 23.475351,55.814558 23.283361,55.910533 C 23.091351,55.982557 22.959351,56.018557 22.887361,56.018533 C 21.711352,55.994557 20.511354,56.762557 19.287361,58.322533 C 18.375356,59.450554 17.583356,60.830553 16.911361,62.462533 C 16.767357,62.774551 16.611357,63.63855 16.443361,65.054533 C 17.427357,65.366548 18.771355,65.810548 20.475361,66.386533 C 20.619353,65.810548 20.775353,65.246548 20.943361,64.694533 C 21.135353,64.046549 21.363353,63.54255 21.627361,63.182533 C 22.371352,62.174551 23.259351,61.670552 24.291361,61.670533 C 25.203349,61.670552 25.971348,62.054551 26.595361,62.822533 C 27.147347,63.54255 27.423347,64.322549 27.423361,65.162533 C 27.423347,67.850546 26.595347,69.422544 24.939361,69.878533 C 24.43535,69.926543 23.94335,69.974543 23.463361,70.022533 C 22.887351,70.142543 22.635351,70.538543 22.707361,71.210533 C 22.923351,71.402542 23.187351,71.546542 23.499361,71.642533 C 23.90735,71.738542 24.45935,71.906541 25.155361,72.146533 C 25.707348,72.410541 26.187348,72.90254 26.595361,73.622533 C 26.931347,74.246539 27.099347,74.750539 27.099361,75.134533 C 27.099347,75.998537 26.739347,76.778537 26.019361,77.474533 C 25.323349,78.146535 24.53135,78.482535 23.643361,78.482533 C 22.707351,78.482535 21.927352,78.050535 21.303361,77.186533 C 20.919353,76.658537 20.727353,76.034537 20.727361,75.314533 C 20.727353,75.002538 20.763353,74.690539 20.835361,74.378533 C 20.907353,74.090539 20.859353,73.886539 20.691361,73.766533 C 20.523354,73.76654 20.247354,73.75454 19.863361,73.730533 C 19.479355,73.68254 19.251355,73.65854 19.179361,73.658533 C 18.579355,73.65854 18.075356,73.74254 17.667361,73.910533 C 17.427357,74.030539 17.199357,74.450539 16.983361,75.170533 C 16.767357,75.866537 16.659357,76.406537 16.659361,76.790533 C 16.659357,77.654536 17.007357,78.650535 17.703361,79.778533 C 17.943356,80.162533 18.291356,80.642533 18.747361,81.218533 C 19.827354,82.106531 21.351353,82.550531 23.319361,82.550533 C 23.343351,82.550531 23.85935,82.490531 24.867361,82.370533 C 25.731348,82.274531 26.211348,82.226531 26.307361,82.226533 C 26.859347,82.106531 27.411347,81.938531 27.963361,81.722533 C 29.307345,81.170532 30.147344,80.630533 30.483361,80.102533 C 31.467343,78.542535 31.959342,77.054536 31.959361,75.638533 C 31.959342,73.81454 31.575342,72.458541 30.807361,71.570533 C 30.591343,71.330542 30.243344,71.018542 29.763361,70.634533 C 29.379345,70.346543 29.187345,70.154543 29.187361,70.058533 C 29.187345,69.962543 29.283345,69.794544 29.475361,69.554533 C 29.667344,69.314544 29.775344,69.170544 29.799361,69.122533 C 30.375344,68.282545 30.939343,67.454546 31.491361,66.638533 C 32.235342,65.486548 32.607341,64.334549 32.607361,63.182533"
         style="font-size:36px;font-style:normal;font-variant:normal;font-weight:normal;font-stretch:normal;text-align:start;line-height:100%;writing-mode:lr-tb;text-anchor:start;fill:black;fill-opacity:1;stroke:none;stroke-width:1px;stroke-linecap:butt;stroke-linejoin:miter;stroke-opacity:1;font-family:Indigo Joker" />
    </g>
    <path
       style="fill:black;fill-opacity:1;fill-rule:evenodd;stroke:none;stroke-width:1px;stroke-linecap:butt;stroke-linejoin:miter;stroke-opacity:1"
       d="M 63.014295,1.5019259 L 66.073242,1.5019259 L 64.441803,26.789216 L 65.053593,49.629349 L 65.257523,87.560284 L 65.665382,97.348913 L 62.810365,97.348913 L 61.790717,84.093478 L 62.606436,67.983027 L 61.994646,47.182192 L 61.586787,13.737711 L 63.014295,1.5019259 z "
       id="path3535" />
    <path
       style="fill:black;fill-opacity:1;fill-rule:evenodd;stroke:none;stroke-width:1px;stroke-linecap:butt;stroke-linejoin:miter;stroke-opacity:1"
       d="M 96.866635,64.924081 L 96.866635,67.983028 L 71.579345,66.351589 L 48.739211,66.963379 L 10.808277,67.167309 L 1.0196477,67.575168 L 1.0196477,64.720151 L 14.275082,63.700503 L 30.385535,64.516222 L 51.186368,63.904432 L 84.63085,63.496573 L 96.866635,64.924081 z "
       id="path3537" />
    <g
       id="g3539"
       transform="matrix(0.690353,0,0,0.627477,1.628688,3.678581)">
      <path
         id="path3541"
         d="M 29.773745,11.086625 L 22.636203,15.36915 L 20.392976,19.039886 L 22.432274,22.302762 L 25.49122,22.710621 L 24.267641,32.49925 L 19.577257,33.722828 L 18.965468,41.880019 L 35.891638,40.24858 L 37.930935,33.518898 L 32.220902,31.88746 L 35.891638,11.494484 L 29.773745,11.086625 z "
         style="fill:#85c751;fill-opacity:1;fill-rule:evenodd;stroke:black;stroke-width:1px;stroke-linecap:butt;stroke-linejoin:miter;stroke-opacity:1" />
      <path
         id="path3543"
         d="M 39.558311,33.181566 C 39.558288,33.99757 39.258288,35.533568 38.658311,37.789566 C 37.938289,40.549563 37.21829,41.929562 36.498311,41.929566 C 36.426291,41.929562 36.258291,41.905562 35.994311,41.857566 C 35.730291,41.833562 35.562292,41.821562 35.490311,41.821566 C 35.394292,41.821562 34.902292,41.869562 34.014311,41.965566 C 33.126294,42.085561 32.634294,42.145561 32.538311,42.145566 C 32.466295,42.145561 32.298295,42.121561 32.034311,42.073566 C 31.770295,42.049561 31.578295,42.037561 31.458311,42.037566 C 30.786296,42.037561 29.850297,42.109561 28.650311,42.253566 C 27.0663,42.469561 26.082301,42.601561 25.698311,42.649566 C 24.090303,42.841561 21.870305,43.10556 19.038311,43.441566 C 18.486309,43.51356 18.018309,43.64556 17.634311,43.837566 C 17.32231,43.71756 17.16631,43.50156 17.166311,43.189566 C 17.16631,43.28556 17.26231,42.037561 17.454311,39.445566 C 17.646309,36.637567 17.778309,34.369569 17.850311,32.641566 C 17.874309,32.569571 18.006309,32.461571 18.246311,32.317566 C 18.798308,32.173571 19.338308,31.993572 19.866311,31.777566 C 20.226307,31.729572 20.766306,31.633572 21.486311,31.489566 C 21.870305,31.369572 22.434305,31.201572 23.178311,30.985566 C 23.298304,30.889573 23.382304,30.793573 23.430311,30.697566 C 24.102303,26.953577 24.438303,24.889579 24.438311,24.505566 C 24.438303,24.433579 24.354303,24.313579 24.186311,24.145566 C 23.514304,24.673579 22.518305,25.417578 21.198311,26.377566 C 21.126306,26.377577 21.006306,26.257577 20.838311,26.017566 C 20.862306,25.417578 20.622306,24.457579 20.118311,23.137566 C 19.974307,22.729581 19.038308,20.941583 17.310311,17.773566 C 17.28631,17.749586 17.27431,17.557586 17.274311,17.197566 C 17.922309,16.813587 19.530308,15.733588 22.098311,13.957566 C 22.674304,13.45359 23.538304,12.757591 24.690311,11.869566 C 25.266302,11.437592 26.154301,10.837593 27.354311,10.069566 C 27.570299,9.9015936 27.894299,9.6735939 28.326311,9.3855661 C 28.398299,9.3615942 28.602298,9.3495942 28.938311,9.3495661 C 29.010298,9.3495942 29.646297,9.4455941 30.846311,9.6375661 C 32.046295,9.8055937 32.694294,9.8895936 32.790311,9.8895661 C 32.862294,9.8895936 32.994294,9.8775936 33.186311,9.8535661 C 33.378294,9.8055937 33.522294,9.7815937 33.618311,9.7815661 C 34.290293,9.7815937 34.974292,9.8535937 35.670311,9.9975661 C 36.89429,10.237593 37.50629,10.645593 37.506311,11.221566 C 37.50629,11.293592 37.45829,11.449592 37.362311,11.689566 C 37.26629,11.905592 37.21829,12.073591 37.218311,12.193566 C 37.12229,13.70559 36.99029,14.845589 36.822311,15.613566 C 36.558291,17.365586 36.102291,20.113583 35.454311,23.857566 C 34.998292,25.513578 34.434293,27.877576 33.762311,30.949566 C 33.882293,31.165572 34.146293,31.309572 34.554311,31.381566 C 34.842292,31.429572 35.142292,31.465572 35.454311,31.489566 C 36.150291,31.585572 36.85829,31.681572 37.578311,31.777566 C 38.898288,32.065571 39.558288,32.533571 39.558311,33.181566 M 35.994311,35.089566 C 35.922291,35.017569 35.814291,34.909569 35.670311,34.765566 C 34.998292,34.621569 33.282294,34.357569 30.522311,33.973566 C 30.402297,33.78157 30.342297,33.58957 30.342311,33.397566 C 30.342297,33.66157 30.858296,30.985573 31.890311,25.369566 C 32.178295,23.52158 32.562295,21.097582 33.042311,18.097566 C 33.114294,17.665586 33.294294,16.873587 33.582311,15.721566 C 33.846293,14.689589 33.978293,14.137589 33.978311,14.065566 C 33.978293,13.87359 33.930293,13.72959 33.834311,13.633566 L 31.998311,13.633566 C 30.318297,13.63359 28.674298,13.75359 27.066311,13.993566 C 26.7783,14.041589 26.406301,14.269589 25.950311,14.677566 C 25.518302,15.061588 24.942302,15.637588 24.222311,16.405566 C 23.310304,17.365586 22.854304,17.965586 22.854311,18.205566 C 22.854304,18.373585 23.034304,18.913585 23.394311,19.825566 C 23.802303,20.833583 24.138303,21.337582 24.402311,21.337566 C 24.474303,21.337582 24.810302,21.181582 25.410311,20.869566 C 26.010301,20.557583 26.346301,20.401583 26.418311,20.401566 C 26.6343,20.401583 26.8023,20.485583 26.922311,20.653566 C 26.8743,21.829582 26.7183,23.36558 26.454311,25.261566 C 25.998301,28.741575 25.746301,30.733573 25.698311,31.237566 C 25.626301,31.885572 25.482302,32.713571 25.266311,33.721566 C 25.218302,33.96157 25.086302,34.081569 24.870311,34.081566 C 24.774302,34.081569 24.726302,34.069569 24.726311,34.045566 L 24.726311,34.045566 C 24.726302,33.99757 24.690302,33.97357 24.618311,33.973566 C 24.522303,33.97357 23.118304,34.237569 20.406311,34.765566 C 20.046307,34.837569 19.866307,34.957569 19.866311,35.125566 L 19.866311,38.365566 L 28.074311,38.365566 L 34.302311,39.121566 C 34.686292,39.121564 35.082292,38.473565 35.490311,37.177566 C 35.754291,36.289567 35.922291,35.593568 35.994311,35.089566"
         style="font-size:36px;font-style:normal;font-variant:normal;font-weight:normal;font-stretch:normal;text-align:start;line-height:100%;writing-mode:lr-tb;text-anchor:start;fill:black;fill-opacity:1;stroke:none;stroke-width:1px;stroke-linecap:butt;stroke-linejoin:miter;stroke-opacity:1;font-family:Indigo Joker" />
    </g>
  </g>
</svg>
