<svg width="128" height="128" version="1.1" id="svg6061" xmlns="http://www.w3.org/2000/svg" xmlns:rdf="http://www.w3.org/1999/02/22-rdf-syntax-ns#" xmlns:cc="http://creativecommons.org/ns#" xmlns:dc="http://purl.org/dc/elements/1.1/"><path id="path6059" style="stroke:none;fill:#fff;fill-opacity:1" d="m64.002 1-4.963 12.613-4.916.73-8.412-10.63-5.818 2.082.24 13.555-4.262 2.554-11.838-6.603-4.582 4.15 5.41 12.43-2.957 3.99L8.44 34.303l-2.644 5.59 9.754 9.41-1.205 4.82-13.041 3.703L1 64.002l12.613 4.96.73 4.917-10.63 8.41 2.082 5.822 13.555-.244 2.554 4.262-6.603 11.838 4.15 4.582 12.43-5.41 3.99 2.959-1.568 13.463 5.59 2.644 9.41-9.754 4.82 1.207 3.703 13.04 6.176.302 4.96-12.613 4.917-.729 8.41 10.631 5.822-2.084-.244-13.553 4.262-2.554 11.838 6.601 4.582-4.15-5.41-12.43 2.959-3.99 13.463 1.57 2.644-5.588-9.754-9.414 1.207-4.818 13.04-3.703.302-6.174-12.613-4.963-.729-4.916 10.631-8.412-2.084-5.818-13.553.24-2.554-4.262 6.601-11.838-4.15-4.582-12.43 5.41-3.99-2.957 1.57-13.465-5.588-2.644-9.414 9.754-4.818-1.205-3.703-13.041L64.002 1zM64 24a40 40 0 0 1 40 40 40 40 0 0 1-40 40 40 40 0 0 1-40-40 40 40 0 0 1 40-40z"/><metadata id="metadata6184"><rdf:RDF><cc:Work><dc:date>2025</dc:date><dc:creator><cc:Agent><dc:title>Bruno Anselme and Timothée Giet</dc:title></cc:Agent></dc:creator><cc:license rdf:resource="http://creativecommons.org/licenses/by-sa/4.0/"/></cc:Work><cc:License rdf:about="http://creativecommons.org/licenses/by-sa/4.0/"><cc:permits rdf:resource="http://creativecommons.org/ns#Reproduction"/><cc:permits rdf:resource="http://creativecommons.org/ns#Distribution"/><cc:requires rdf:resource="http://creativecommons.org/ns#Notice"/><cc:requires rdf:resource="http://creativecommons.org/ns#Attribution"/><cc:permits rdf:resource="http://creativecommons.org/ns#DerivativeWorks"/><cc:requires rdf:resource="http://creativecommons.org/ns#ShareAlike"/></cc:License></rdf:RDF></metadata></svg>