<!--Created with Inkscape (http://www.inkscape.org/)--><svg xmlns:dc="http://purl.org/dc/elements/1.1/" xmlns:cc="http://creativecommons.org/ns#" xmlns:rdf="http://www.w3.org/1999/02/22-rdf-syntax-ns#" xmlns="http://www.w3.org/2000/svg" xmlns:sodipodi="http://sodipodi.sourceforge.net/DTD/sodipodi-0.dtd" xmlns:inkscape="http://www.inkscape.org/namespaces/inkscape" width="520" height="520" inkscape:version="0.92.1 r15371" sodipodi:docname="G1.svg"><sodipodi:namedview pagecolor="#ffffff" bordercolor="#666666" borderopacity="1.0" inkscape:pageopacity="0.0" inkscape:pageshadow="2" inkscape:zoom="0.35" inkscape:cx="-243.57143" inkscape:cy="520" inkscape:document-units="px" inkscape:current-layer="layer1" showgrid="false" inkscape:window-width="1884" inkscape:window-height="1051" inkscape:window-x="0" inkscape:window-y="0" inkscape:window-maximized="1"/><metadata><rdf:RDF><cc:Work><dc:format>image/svg+xml</dc:format><dc:type rdf:resource="http://purl.org/dc/dcmitype/StillImage"/><dc:title/><dc:date>2018</dc:date><dc:creator><cc:Agent><dc:title>Timothée Giet</dc:title></cc:Agent></dc:creator><cc:license rdf:resource="http://creativecommons.org/licenses/by-sa/4.0/"/></cc:Work><cc:License rdf:about="http://creativecommons.org/licenses/by-sa/4.0/"><cc:permits rdf:resource="http://creativecommons.org/ns#Reproduction"/><cc:permits rdf:resource="http://creativecommons.org/ns#Distribution"/><cc:requires rdf:resource="http://creativecommons.org/ns#Notice"/><cc:requires rdf:resource="http://creativecommons.org/ns#Attribution"/><cc:permits rdf:resource="http://creativecommons.org/ns#DerivativeWorks"/><cc:requires rdf:resource="http://creativecommons.org/ns#ShareAlike"/></cc:License></rdf:RDF></metadata><path style="fill:#373737;fill-opacity:1;fill-rule:evenodd" inkscape:connector-curvature="0" d="M311.74 582.022c-38.058 0-71.684 6.719-100.88 20.157-29.195 13.438-51.583 34.019-67.166 61.741-15.524 27.673-23.286 57.486-23.286 89.439 0 32.251 7.82 61.442 23.46 87.572 15.64 26.13 38.782 46.113 69.426 59.949 30.7 13.786 64.82 20.68 102.357 20.68 27.804 0 54.914-4.28 81.329-12.841 26.415-8.61 52.047-21.427 76.898-38.448V748.43l-161.877.224v38.523h112.35v61.144c-10.775 8.212-26.589 15.951-47.443 23.218-20.853 7.217-42.228 10.825-64.125 10.825-25.198 0-49.006-4.778-71.424-14.334-22.418-9.556-39.506-24.189-51.265-43.898-11.701-19.71-17.552-44.197-17.552-73.462 0-23.74 4.866-45.765 14.598-66.071 5.734-11.796 13.757-22.621 24.068-32.476 10.37-9.854 23.982-17.793 40.839-23.815 16.856-6.072 36.841-9.108 59.954-9.108 19.29 0 36.842 2.886 52.656 8.66 15.814 5.724 27.979 13.363 36.494 22.92 8.515 9.556 15.64 22.695 21.375 39.418l45.617-10.75c-6.603-22.099-16.248-40.016-28.934-53.753-12.686-13.737-30.21-24.438-52.569-32.102-22.302-7.715-47.268-11.572-74.9-11.572z" transform="translate(0 -532.362)" inkscape:label="Layer 1" inkscape:groupmode="layer"/></svg>