<?xml version="1.0" encoding="UTF-8" standalone="no"?>
<!-- Created with Inkscape (http://www.inkscape.org/) -->

<svg
   xmlns:dc="http://purl.org/dc/elements/1.1/"
   xmlns:cc="http://creativecommons.org/ns#"
   xmlns:rdf="http://www.w3.org/1999/02/22-rdf-syntax-ns#"
   xmlns:svg="http://www.w3.org/2000/svg"
   xmlns="http://www.w3.org/2000/svg"
   xmlns:sodipodi="http://sodipodi.sourceforge.net/DTD/sodipodi-0.dtd"
   xmlns:inkscape="http://www.inkscape.org/namespaces/inkscape"
   width="800"
   height="520"
   id="svg3079"
   version="1.1"
   inkscape:version="0.91 r13725"
   sodipodi:docname="G1.svg">
  <defs
     id="defs3081" />
  <sodipodi:namedview
     id="base"
     pagecolor="#ffffff"
     bordercolor="#666666"
     borderopacity="1.0"
     inkscape:pageopacity="0.0"
     inkscape:pageshadow="2"
     inkscape:zoom="0.35"
     inkscape:cx="375"
     inkscape:cy="520"
     inkscape:document-units="px"
     inkscape:current-layer="layer1"
     showgrid="false"
     inkscape:window-width="1301"
     inkscape:window-height="744"
     inkscape:window-x="65"
     inkscape:window-y="24"
     inkscape:window-maximized="1" />
  <metadata
     id="metadata3084">
    <rdf:RDF>
      <cc:Work
         rdf:about="">
        <dc:format>image/svg+xml</dc:format>
        <dc:type
           rdf:resource="http://purl.org/dc/dcmitype/StillImage" />
        <dc:title />
      </cc:Work>
    </rdf:RDF>
  </metadata>
  <g
     inkscape:label="Layer 1"
     inkscape:groupmode="layer"
     id="layer1"
     transform="translate(0,-532.36218)">
    <path
       style="fill:#ff0000;fill-rule:evenodd"
       inkscape:connector-curvature="0"
       d="m 311.74046,582.02179 c -38.05804,0 -71.68466,6.71909 -100.87985,20.15727 -29.19521,13.43817 -51.58398,34.01849 -67.16635,61.74094 -15.52443,27.6727 -23.28665,57.48554 -23.28665,89.43854 0,32.25164 7.82014,61.44232 23.46043,87.57212 15.64029,26.12979 38.78212,46.11285 69.42551,59.94922 30.70131,13.78656 64.8203,20.67984 102.35698,20.67984 27.80496,0 54.9148,-4.28031 81.3295,-12.84092 26.4147,-8.61041 52.0474,-21.42642 76.89807,-38.44812 l 0,-121.83946 -161.87695,0.22397 0,38.52277 112.3494,0 0,61.14372 c -10.77445,8.21222 -26.5885,15.9516 -47.44223,23.21817 -20.8537,7.2168 -42.22876,10.8252 -64.12515,10.8252 -25.19824,0 -49.00626,-4.77802 -71.42398,-14.33405 -22.41776,-9.55603 -39.50621,-24.18872 -51.2654,-43.89804 -11.70125,-19.70935 -17.55188,-44.19669 -17.55188,-73.46205 0,-23.74077 4.86588,-45.76445 14.59761,-66.07103 5.73477,-11.79573 13.75766,-22.62094 24.06867,-32.4756 10.36892,-9.85466 23.98178,-17.79313 40.83853,-23.81543 16.85675,-6.07207 36.84155,-9.1081 59.95443,-9.1081 19.28968,0 36.84156,2.88672 52.65561,8.66016 15.81409,5.72367 27.97876,13.36352 36.49402,22.91956 8.51526,9.55603 15.64029,22.69559 21.37506,39.41865 l 45.6175,-10.75055 c -6.60367,-22.09833 -16.24851,-40.0159 -28.93454,-53.7527 -12.68601,-13.73681 -30.20893,-24.43758 -52.56873,-32.10231 -22.30191,-7.71452 -47.26843,-11.57177 -74.8996,-11.57177 z"
       id="path3049" />
  </g>
</svg>
