<svg xmlns:dc="http://purl.org/dc/elements/1.1/" xmlns:cc="http://creativecommons.org/ns#" xmlns:rdf="http://www.w3.org/1999/02/22-rdf-syntax-ns#" xmlns="http://www.w3.org/2000/svg" xmlns:sodipodi="http://sodipodi.sourceforge.net/DTD/sodipodi-0.dtd" xmlns:inkscape="http://www.inkscape.org/namespaces/inkscape" viewBox="0 0 18.137782 18.435295" inkscape:version="0.91 r13725" sodipodi:docname="greenpoint.svg"><sodipodi:namedview pagecolor="#ffffff" bordercolor="#666666" borderopacity="1" objecttolerance="10" gridtolerance="10" guidetolerance="10" inkscape:pageopacity="0" inkscape:pageshadow="2" inkscape:window-width="1366" inkscape:window-height="748" showgrid="false" fit-margin-top="0" fit-margin-left="0" fit-margin-right="0" fit-margin-bottom="0" inkscape:zoom="14.419258" inkscape:cx="2.9689359" inkscape:cy="8.8107562" inkscape:window-x="-2" inkscape:window-y="-3" inkscape:window-maximized="1" inkscape:current-layer="layer1-6" borderlayer="true"/><g style="opacity:1;display:inline"><path style="font-size:medium;font-style:normal;font-variant:normal;font-weight:400;font-stretch:normal;text-indent:0;text-align:start;text-decoration:none;line-height:normal;letter-spacing:normal;word-spacing:normal;text-transform:none;direction:ltr;block-progression:tb;writing-mode:lr-tb;text-anchor:start;baseline-shift:baseline;color:#000;fill:#63933e;fill-opacity:1;stroke:none;stroke-width:.99997946000000004;marker:none;visibility:visible;display:inline;overflow:visible;enable-background:accumulate;font-family:Sans;-inkscape-font-specification:Sans;opacity:1;stroke-miterlimit:4;stroke-dasharray:none" d="M12.429 1016.547c-2.79.276-5.718 1.333-7.453 3.805-3.413 4.865-3.103 11.451 1.569 15.282 4.671 3.831 12.008 3.827 15.406-1.531 3.236-5.102 3.14-11.575-1.531-15.406-2.336-1.916-5.202-2.426-7.991-2.15zm-.48 1.1c2.533-.25 5.486.547 7.613 2.29 4.254 3.489 3.17 11.2 1.302 13.304-3.651 4.115-9.245 4.765-13.499 1.277-3.526-3.923-4.796-8.926-1.308-13.18 1.744-2.126 3.36-3.44 5.892-3.691z" inkscape:connector-curvature="0" sodipodi:nodetypes="ssssssscsccs" transform="matrix(-.84261 .0262 .0262 .84261 -6.525 -856.85)"/><path sodipodi:type="arc" style="fill:#85c751;fill-opacity:1;fill-rule:nonzero;stroke:#63933e;stroke-width:.86922668999999986;stroke-miterlimit:4;stroke-opacity:1;stroke-dasharray:none" sodipodi:cx="8.7036381" sodipodi:cy="8.7607336" sodipodi:rx="8.6342859" sodipodi:ry="8.6342859" d="M17.338 8.76a8.634 8.634 0 0 1-8.634 8.635A8.634 8.634 0 0 1 .069 8.761 8.634 8.634 0 0 1 8.704.126a8.634 8.634 0 0 1 8.634 8.635z" transform="matrix(.97992 0 0 .95984 .348 .699)"/></g><metadata><rdf:RDF><cc:Work><dc:format>image/svg+xml</dc:format><dc:type rdf:resource="http://purl.org/dc/dcmitype/StillImage"/><cc:license rdf:resource="http://creativecommons.org/licenses/publicdomain/"/><dc:publisher><cc:Agent rdf:about="http://openclipart.org/"><dc:title>Openclipart</dc:title></cc:Agent></dc:publisher><dc:title/><dc:date>2012-03-23T13:52:34</dc:date><dc:description>Map, Marker, Pin, Pushpin, clip art, clipart, green,</dc:description><dc:source>http://openclipart.org/detail/169048/green-map-marker-by-mightyman</dc:source><dc:creator><cc:Agent><dc:title>mightyman</dc:title></cc:Agent></dc:creator><dc:subject><rdf:Bag><rdf:li>Map</rdf:li><rdf:li>Marker</rdf:li><rdf:li>Pin</rdf:li><rdf:li>Pushpin</rdf:li><rdf:li>clip art</rdf:li><rdf:li>clipart</rdf:li><rdf:li>green</rdf:li></rdf:Bag></dc:subject></cc:Work><cc:License rdf:about="http://creativecommons.org/licenses/publicdomain/"><cc:permits rdf:resource="http://creativecommons.org/ns#Reproduction"/><cc:permits rdf:resource="http://creativecommons.org/ns#Distribution"/><cc:permits rdf:resource="http://creativecommons.org/ns#DerivativeWorks"/></cc:License></rdf:RDF></metadata></svg>