<!--Created with Inkscape (http://www.inkscape.org/)--><svg xmlns:dc="http://purl.org/dc/elements/1.1/" xmlns:cc="http://creativecommons.org/ns#" xmlns:rdf="http://www.w3.org/1999/02/22-rdf-syntax-ns#" xmlns="http://www.w3.org/2000/svg" xmlns:sodipodi="http://sodipodi.sourceforge.net/DTD/sodipodi-0.dtd" xmlns:inkscape="http://www.inkscape.org/namespaces/inkscape" width="520" height="520" inkscape:version="0.92.1 r15371" sodipodi:docname="J1.svg"><sodipodi:namedview pagecolor="#ffffff" bordercolor="#666666" borderopacity="1.0" inkscape:pageopacity="0.0" inkscape:pageshadow="2" inkscape:zoom="0.35" inkscape:cx="-243.57143" inkscape:cy="520" inkscape:document-units="px" inkscape:current-layer="layer1" showgrid="false" inkscape:window-width="1884" inkscape:window-height="1051" inkscape:window-x="0" inkscape:window-y="0" inkscape:window-maximized="1"/><metadata><rdf:RDF><cc:Work><dc:format>image/svg+xml</dc:format><dc:type rdf:resource="http://purl.org/dc/dcmitype/StillImage"/><dc:title/><dc:date>2018</dc:date><dc:creator><cc:Agent><dc:title>Timothée Giet</dc:title></cc:Agent></dc:creator><cc:license rdf:resource="http://creativecommons.org/licenses/by-sa/4.0/"/></cc:Work><cc:License rdf:about="http://creativecommons.org/licenses/by-sa/4.0/"><cc:permits rdf:resource="http://creativecommons.org/ns#Reproduction"/><cc:permits rdf:resource="http://creativecommons.org/ns#Distribution"/><cc:requires rdf:resource="http://creativecommons.org/ns#Notice"/><cc:requires rdf:resource="http://creativecommons.org/ns#Attribution"/><cc:permits rdf:resource="http://creativecommons.org/ns#DerivativeWorks"/><cc:requires rdf:resource="http://creativecommons.org/ns#ShareAlike"/></cc:License></rdf:RDF></metadata><path style="fill:#373737;fill-rule:evenodd;fill-opacity:1" inkscape:connector-curvature="0" d="M344.214 600.536v226.209c0 18.813-1.738 32.525-5.213 41.136-3.476 8.56-9.819 15.354-19.03 20.381-9.21 4.977-20.158 7.466-32.844 7.466-17.204 0-30.672-4.63-40.404-13.886-9.732-9.258-15.206-26.429-16.422-51.513l-45.618 5.375c-.695 32.7 7.85 57.336 25.633 73.91 17.842 16.573 43.532 24.86 77.072 24.86 22.591 0 42.258-3.956 58.998-11.87 16.8-7.914 29.05-19.41 36.755-34.491 7.762-15.081 11.643-36.358 11.643-63.832V600.536z" transform="translate(0 -532.362)" inkscape:label="Layer 1" inkscape:groupmode="layer"/></svg>