<!--Created with Inkscape (http://www.inkscape.org/)--><svg xmlns:dc="http://purl.org/dc/elements/1.1/" xmlns:cc="http://creativecommons.org/ns#" xmlns:rdf="http://www.w3.org/1999/02/22-rdf-syntax-ns#" xmlns="http://www.w3.org/2000/svg" xmlns:sodipodi="http://sodipodi.sourceforge.net/DTD/sodipodi-0.dtd" xmlns:inkscape="http://www.inkscape.org/namespaces/inkscape" width="520" height="520" inkscape:version="0.92.1 r15371" sodipodi:docname="P1.svg"><sodipodi:namedview pagecolor="#ffffff" bordercolor="#666666" borderopacity="1.0" inkscape:pageopacity="0.0" inkscape:pageshadow="2" inkscape:zoom="0.35" inkscape:cx="-243.57143" inkscape:cy="520" inkscape:document-units="px" inkscape:current-layer="layer1" showgrid="false" inkscape:window-width="1884" inkscape:window-height="1051" inkscape:window-x="0" inkscape:window-y="0" inkscape:window-maximized="1"/><metadata><rdf:RDF><cc:Work><dc:format>image/svg+xml</dc:format><dc:type rdf:resource="http://purl.org/dc/dcmitype/StillImage"/><dc:title/><dc:date>2018</dc:date><dc:creator><cc:Agent><dc:title>Timothée Giet</dc:title></cc:Agent></dc:creator><cc:license rdf:resource="http://creativecommons.org/licenses/by-sa/4.0/"/></cc:Work><cc:License rdf:about="http://creativecommons.org/licenses/by-sa/4.0/"><cc:permits rdf:resource="http://creativecommons.org/ns#Reproduction"/><cc:permits rdf:resource="http://creativecommons.org/ns#Distribution"/><cc:requires rdf:resource="http://creativecommons.org/ns#Notice"/><cc:requires rdf:resource="http://creativecommons.org/ns#Attribution"/><cc:permits rdf:resource="http://creativecommons.org/ns#DerivativeWorks"/><cc:requires rdf:resource="http://creativecommons.org/ns#ShareAlike"/></cc:License></rdf:RDF></metadata><path style="fill:#373737;fill-opacity:1;fill-rule:evenodd" inkscape:connector-curvature="0" d="M323.78 629.876c29.726 0 50.106 1.16 61.14 3.48 17.114 3.748 30.889 11.482 41.323 23.201 10.508 11.66 15.763 25.7 15.763 42.12 0 22.665-8.895 40.244-26.685 52.737-17.79 12.493-47.853 18.74-90.19 18.74h-128.02V629.875zm-192.2-46.313v392.455h65.53V816.466h127.008c70.035 0 118.451-11.54 145.249-34.623 26.798-23.141 40.196-51.4 40.196-84.773 0-19.453-5.029-37.3-15.087-53.541-9.984-16.24-23.195-28.853-39.634-37.836-16.44-9.042-36.819-15.17-61.14-18.382-17.34-2.499-42.448-3.748-75.326-3.748z" transform="translate(0 -532.362)" inkscape:label="Layer 1" inkscape:groupmode="layer"/></svg>