<!--Created with Inkscape (http://www.inkscape.org/)--><svg xmlns:dc="http://purl.org/dc/elements/1.1/" xmlns:cc="http://creativecommons.org/ns#" xmlns:rdf="http://www.w3.org/1999/02/22-rdf-syntax-ns#" xmlns="http://www.w3.org/2000/svg" xmlns:sodipodi="http://sodipodi.sourceforge.net/DTD/sodipodi-0.dtd" xmlns:inkscape="http://www.inkscape.org/namespaces/inkscape" width="520" height="520" inkscape:version="0.92.1 r15371" sodipodi:docname="Q1.svg"><sodipodi:namedview pagecolor="#ffffff" bordercolor="#666666" borderopacity="1.0" inkscape:pageopacity="0.0" inkscape:pageshadow="2" inkscape:zoom="0.35" inkscape:cx="-243.57143" inkscape:cy="520" inkscape:document-units="px" inkscape:current-layer="layer1" showgrid="false" inkscape:window-width="1884" inkscape:window-height="1051" inkscape:window-x="0" inkscape:window-y="0" inkscape:window-maximized="1"/><metadata><rdf:RDF><cc:Work><dc:format>image/svg+xml</dc:format><dc:type rdf:resource="http://purl.org/dc/dcmitype/StillImage"/><dc:title/><dc:date>2018</dc:date><dc:creator><cc:Agent><dc:title>Timothée Giet</dc:title></cc:Agent></dc:creator><cc:license rdf:resource="http://creativecommons.org/licenses/by-sa/4.0/"/></cc:Work><cc:License rdf:about="http://creativecommons.org/licenses/by-sa/4.0/"><cc:permits rdf:resource="http://creativecommons.org/ns#Reproduction"/><cc:permits rdf:resource="http://creativecommons.org/ns#Distribution"/><cc:requires rdf:resource="http://creativecommons.org/ns#Notice"/><cc:requires rdf:resource="http://creativecommons.org/ns#Attribution"/><cc:permits rdf:resource="http://creativecommons.org/ns#DerivativeWorks"/><cc:requires rdf:resource="http://creativecommons.org/ns#ShareAlike"/></cc:License></rdf:RDF></metadata><path style="fill:#373737;fill-opacity:1;fill-rule:evenodd" inkscape:connector-curvature="0" d="M314.712 651.282c24.188 0 45.986 5.05 65.393 15.15 19.463 10.053 34.226 24.198 44.291 42.432 10.12 18.235 15.18 39.554 15.18 63.958 0 42.913-14.262 75.063-42.789 96.451-18.183-12.75-41.288-22.347-69.314-28.791l-11.76 28.997a176.427 176.427 0 0 1 48.044 17.275c-15.348 5.347-31.696 8.02-49.045 8.02-36.701 0-66.868-10.488-90.5-31.465-23.578-20.976-35.367-51.07-35.367-90.281 0-40.445 11.928-70.836 35.783-91.173 23.856-20.382 53.883-30.573 90.084-30.573zm-.25-34.344c-33.532 0-63.865 6.375-91.001 19.125-27.08 12.75-47.961 31.328-62.641 55.732s-22.02 51.482-22.02 81.233c0 29.888 7.284 56.76 21.853 80.616 14.624 23.855 35.45 42.364 62.474 55.526 27.025 13.161 57.136 19.742 90.333 19.742 32.864 0 62.892-6.238 90.083-18.714 26.191 16.863 52.466 29.203 78.823 37.017l14.263-27.763c-19.017-5.895-39.786-15.218-62.307-27.968 18.517-14.67 32.363-31.9 41.538-51.688 9.175-19.834 13.763-42.159 13.763-66.974 0-29.888-7.146-56.714-21.437-80.479-14.235-23.81-34.948-42.318-62.14-55.526-27.192-13.253-57.72-19.88-91.585-19.88z" transform="translate(0 -532.362)" inkscape:label="Layer 1" inkscape:groupmode="layer"/></svg>