<?xml version="1.0" encoding="UTF-8" standalone="no"?>
<!-- Created with Inkscape (http://www.inkscape.org/) -->

<svg
   xmlns:dc="http://purl.org/dc/elements/1.1/"
   xmlns:cc="http://creativecommons.org/ns#"
   xmlns:rdf="http://www.w3.org/1999/02/22-rdf-syntax-ns#"
   xmlns:svg="http://www.w3.org/2000/svg"
   xmlns="http://www.w3.org/2000/svg"
   xmlns:sodipodi="http://sodipodi.sourceforge.net/DTD/sodipodi-0.dtd"
   xmlns:inkscape="http://www.inkscape.org/namespaces/inkscape"
   width="520"
   height="520"
   id="svg5938"
   version="1.1"
   inkscape:version="0.92.1 r15371"
   sodipodi:docname="S1.svg">
  <defs
     id="defs5940" />
  <sodipodi:namedview
     id="base"
     pagecolor="#ffffff"
     bordercolor="#666666"
     borderopacity="1.0"
     inkscape:pageopacity="0.0"
     inkscape:pageshadow="2"
     inkscape:zoom="0.35"
     inkscape:cx="-243.57143"
     inkscape:cy="520"
     inkscape:document-units="px"
     inkscape:current-layer="layer1"
     showgrid="false"
     inkscape:window-width="1884"
     inkscape:window-height="1051"
     inkscape:window-x="0"
     inkscape:window-y="0"
     inkscape:window-maximized="1" />
  <metadata
     id="metadata5943">
    <rdf:RDF>
      <cc:Work
         rdf:about="">
        <dc:format>image/svg+xml</dc:format>
        <dc:type
           rdf:resource="http://purl.org/dc/dcmitype/StillImage" />
        <dc:title></dc:title>
        <dc:date>2018</dc:date>
        <dc:creator>
          <cc:Agent>
            <dc:title>Timothée Giet</dc:title>
          </cc:Agent>
        </dc:creator>
        <cc:license
           rdf:resource="http://creativecommons.org/licenses/by-sa/4.0/" />
      </cc:Work>
      <cc:License
         rdf:about="http://creativecommons.org/licenses/by-sa/4.0/">
        <cc:permits
           rdf:resource="http://creativecommons.org/ns#Reproduction" />
        <cc:permits
           rdf:resource="http://creativecommons.org/ns#Distribution" />
        <cc:requires
           rdf:resource="http://creativecommons.org/ns#Notice" />
        <cc:requires
           rdf:resource="http://creativecommons.org/ns#Attribution" />
        <cc:permits
           rdf:resource="http://creativecommons.org/ns#DerivativeWorks" />
        <cc:requires
           rdf:resource="http://creativecommons.org/ns#ShareAlike" />
      </cc:License>
    </rdf:RDF>
  </metadata>
  <g
     inkscape:label="Layer 1"
     inkscape:groupmode="layer"
     id="layer1"
     transform="translate(0,-532.36218)">
    <path
       style="fill:#373737;fill-opacity:1;fill-rule:evenodd"
       inkscape:connector-curvature="0"
       d="m 302.09645,614.12808 c -31.03992,0 -59.24847,3.53574 -84.62569,10.60722 -25.37723,7.07149 -44.67232,17.44299 -57.88525,31.11453 -13.21294,13.6244 -19.8194,28.28593 -19.8194,43.98462 0,14.2844 5.38304,27.20165 16.14914,38.75173 10.836,11.50296 27.26479,21.14373 49.28635,28.92238 16.98805,6.08146 46.66472,12.56367 89.03001,19.44657 42.3653,6.83577 69.73496,11.88009 82.10895,15.13297 19.29511,4.95004 33.13721,11.07864 41.5264,18.38586 8.38916,7.26004 12.58374,15.76941 12.58374,25.52805 0,9.61722 -4.36938,18.50372 -13.10806,26.65948 -8.66882,8.10865 -21.91672,14.49656 -39.74368,19.16373 -17.827,4.66718 -38.38043,7.00076 -61.66037,7.00076 -26.21616,0 -49.81067,-3.0643 -70.7836,-9.19293 C 224.18207,883.4573 208.6971,875.39581 198.7,865.4486 c -9.92719,-9.99438 -16.25402,-22.77017 -18.98049,-38.32745 l -57.57065,3.39432 c 0.83892,20.79016 9.26304,39.4353 25.27236,55.93542 16.07924,16.45298 38.20566,28.78095 66.37927,36.98386 28.24352,8.20294 63.23334,12.30438 104.96943,12.30438 32.92749,0 62.53424,-4.05432 88.82031,-12.16293 26.35596,-8.15579 46.55987,-19.5409 60.61172,-34.15527 14.05185,-14.66156 21.07776,-30.26596 21.07776,-46.81324 0,-16.68869 -6.39673,-31.42096 -19.19021,-44.19676 -12.79346,-12.82295 -32.61289,-23.4066 -59.45819,-31.75096 -18.45618,-5.65718 -52.50223,-12.25723 -102.13812,-19.80016 -49.56597,-7.59004 -80.22139,-14.99153 -91.96621,-22.20445 -11.95456,-7.2129 -17.93184,-16.40584 -17.93184,-27.57878 0,-12.8701 8.42412,-23.85447 25.27234,-32.95311 16.91817,-9.14579 43.83341,-13.71868 80.74573,-13.71868 35.44422,0 62.21964,5.02075 80.32626,15.06226 18.17652,10.04151 28.83777,24.89162 31.98371,44.55034 l 58.51443,-2.97001 C 474.38897,688.80295 466.8387,672.46782 452.78685,658.04199 438.735,643.61617 418.63594,632.70251 392.48973,625.30103 366.41338,617.8524 336.28231,614.12808 302.09645,614.12808 Z"
       id="path5908" />
  </g>
</svg>
