<!--Created with Inkscape (http://www.inkscape.org/)--><svg xmlns:dc="http://purl.org/dc/elements/1.1/" xmlns:cc="http://creativecommons.org/ns#" xmlns:rdf="http://www.w3.org/1999/02/22-rdf-syntax-ns#" xmlns="http://www.w3.org/2000/svg" xmlns:sodipodi="http://sodipodi.sourceforge.net/DTD/sodipodi-0.dtd" xmlns:inkscape="http://www.inkscape.org/namespaces/inkscape" width="520" height="520" inkscape:version="0.92.1 r15371" sodipodi:docname="S1.svg"><sodipodi:namedview pagecolor="#ffffff" bordercolor="#666666" borderopacity="1.0" inkscape:pageopacity="0.0" inkscape:pageshadow="2" inkscape:zoom="0.35" inkscape:cx="-243.57143" inkscape:cy="520" inkscape:document-units="px" inkscape:current-layer="layer1" showgrid="false" inkscape:window-width="1884" inkscape:window-height="1051" inkscape:window-x="0" inkscape:window-y="0" inkscape:window-maximized="1"/><metadata><rdf:RDF><cc:Work><dc:format>image/svg+xml</dc:format><dc:type rdf:resource="http://purl.org/dc/dcmitype/StillImage"/><dc:title/><dc:date>2018</dc:date><dc:creator><cc:Agent><dc:title>Timothée Giet</dc:title></cc:Agent></dc:creator><cc:license rdf:resource="http://creativecommons.org/licenses/by-sa/4.0/"/></cc:Work><cc:License rdf:about="http://creativecommons.org/licenses/by-sa/4.0/"><cc:permits rdf:resource="http://creativecommons.org/ns#Reproduction"/><cc:permits rdf:resource="http://creativecommons.org/ns#Distribution"/><cc:requires rdf:resource="http://creativecommons.org/ns#Notice"/><cc:requires rdf:resource="http://creativecommons.org/ns#Attribution"/><cc:permits rdf:resource="http://creativecommons.org/ns#DerivativeWorks"/><cc:requires rdf:resource="http://creativecommons.org/ns#ShareAlike"/></cc:License></rdf:RDF></metadata><path style="fill:#373737;fill-opacity:1;fill-rule:evenodd" inkscape:connector-curvature="0" d="M302.096 614.128c-31.04 0-59.248 3.536-84.625 10.607-25.377 7.072-44.673 17.443-57.885 31.115-13.213 13.624-19.82 28.286-19.82 43.984 0 14.285 5.383 27.202 16.15 38.752 10.835 11.503 27.264 21.144 49.286 28.923 16.988 6.081 46.664 12.563 89.03 19.446 42.365 6.836 69.735 11.88 82.109 15.133 19.295 4.95 33.137 11.079 41.526 18.386 8.39 7.26 12.584 15.77 12.584 25.528 0 9.617-4.37 18.504-13.108 26.66-8.67 8.108-21.917 14.496-39.744 19.163-17.827 4.667-38.38 7.001-61.66 7.001-26.217 0-49.811-3.064-70.784-9.193-20.973-6.176-36.458-14.237-46.455-24.184-9.927-9.995-16.254-22.77-18.98-38.328l-57.571 3.394c.839 20.79 9.263 39.436 25.272 55.936 16.08 16.453 38.206 28.78 66.38 36.984 28.243 8.203 63.233 12.304 104.969 12.304 32.927 0 62.534-4.054 88.82-12.163 26.356-8.156 46.56-19.54 60.612-34.155 14.052-14.662 21.078-30.266 21.078-46.813 0-16.689-6.397-31.421-19.19-44.197-12.794-12.823-32.613-23.407-59.459-31.751-18.456-5.657-52.502-12.257-102.138-19.8-49.566-7.59-80.221-14.992-91.966-22.205-11.955-7.213-17.932-16.405-17.932-27.578 0-12.87 8.424-23.855 25.272-32.954 16.919-9.145 43.834-13.718 80.746-13.718 35.444 0 62.22 5.02 80.326 15.062 18.177 10.042 28.838 24.892 31.984 44.55l58.515-2.97c-1.049-18.244-8.6-34.58-22.651-49.005-14.052-14.426-34.151-25.34-60.297-32.741-26.077-7.449-56.208-11.173-90.394-11.173z" transform="translate(0 -532.362)" inkscape:label="Layer 1" inkscape:groupmode="layer"/></svg>