<?xml version="1.0" encoding="UTF-8" standalone="no"?>
<!-- Created with Inkscape (http://www.inkscape.org/) -->

<svg
   xmlns:dc="http://purl.org/dc/elements/1.1/"
   xmlns:cc="http://creativecommons.org/ns#"
   xmlns:rdf="http://www.w3.org/1999/02/22-rdf-syntax-ns#"
   xmlns:svg="http://www.w3.org/2000/svg"
   xmlns="http://www.w3.org/2000/svg"
   xmlns:sodipodi="http://sodipodi.sourceforge.net/DTD/sodipodi-0.dtd"
   xmlns:inkscape="http://www.inkscape.org/namespaces/inkscape"
   width="100"
   height="100"
   id="svg12024"
   sodipodi:version="0.32"
   inkscape:version="0.91 r13725"
   version="1.0"
   sodipodi:docname="imagename.svg">
  <defs
     id="defs12026" />
  <sodipodi:namedview
     id="base"
     pagecolor="#ffffff"
     bordercolor="#666666"
     borderopacity="1.0"
     inkscape:pageopacity="0.0"
     inkscape:pageshadow="2"
     inkscape:zoom="24.08147"
     inkscape:cx="45.06066"
     inkscape:cy="3.6077772"
     inkscape:document-units="px"
     inkscape:current-layer="layer1"
     height="100px"
     width="100px"
     inkscape:window-width="3200"
     inkscape:window-height="1741"
     inkscape:window-x="-4"
     inkscape:window-y="0"
     showgrid="false"
     inkscape:window-maximized="1" />
  <metadata
     id="metadata12029">
    <rdf:RDF>
      <cc:Work
         rdf:about="">
        <dc:format>image/svg+xml</dc:format>
        <dc:type
           rdf:resource="http://purl.org/dc/dcmitype/StillImage" />
      </cc:Work>
    </rdf:RDF>
  </metadata>
  <g
     inkscape:label="Calque 1"
     inkscape:groupmode="layer"
     id="layer1">
    <path
       style="fill:#ab991d;fill-opacity:1;fill-rule:evenodd;stroke:none;stroke-width:1px;stroke-linecap:butt;stroke-linejoin:miter;stroke-opacity:1"
       d="M 69.879259,5.7781558 L 60.003236,10.074656 L 51.660757,16.817776 L 48.225618,24.455999 L 47.244149,35.018231 L 51.170022,43.611233 L 57.549565,50.831741 L 65.953386,54.173464 L 74.295866,55.605631 L 84.662623,53.218686 L 92.514369,46.535241 L 96.930975,39.792121 L 97.973785,29.766952 L 95.949508,21.114277 L 91.5329,13.953442 L 81.718218,7.2103227 L 69.879259,5.7781558 z "
       id="path30383"
       sodipodi:nodetypes="ccccccccccccccccc" />
    <path
       style="fill:#ffdc4f;fill-opacity:1;fill-rule:evenodd;stroke:none;stroke-width:1px;stroke-linecap:butt;stroke-linejoin:miter;stroke-opacity:1"
       d="M 70.503483,8.8498583 L 61.839938,12.621878 L 54.521665,18.541854 L 51.508258,25.247669 L 50.647285,34.520552 L 54.091178,42.064592 L 59.687506,48.403683 L 67.05959,51.337476 L 74.377863,52.594816 L 83.471894,50.499249 L 90.359683,44.631662 L 94.234061,38.711685 L 95.148846,29.910304 L 93.37309,22.313875 L 89.498706,16.027175 L 80.888974,10.107198 L 70.503483,8.8498583 z "
       id="path30605"
       sodipodi:nodetypes="ccccccccccccccccc" />
    <path
       style="fill:black;fill-opacity:1;fill-rule:evenodd;stroke:none;stroke-width:1px;stroke-linecap:butt;stroke-linejoin:miter;stroke-opacity:1"
       d="M 63.66363,15.40026 L 61.181351,16.398585 L 59.084519,17.965403 L 58.221119,19.740204 L 57.974432,22.194419 L 58.961176,24.191071 L 60.564636,25.868813 L 62.676885,26.645288 L 64.773717,26.978064 L 67.379338,26.423437 L 69.352827,24.870487 L 70.462914,23.303671 L 70.725018,20.974244 L 70.216229,18.963728 L 69.106141,17.299853 L 66.63928,15.733035 L 63.66363,15.40026 z "
       id="path30607"
       sodipodi:nodetypes="ccccccccccccccccc" />
    <path
       style="fill:white;fill-opacity:1;fill-rule:evenodd;stroke:none;stroke-width:1px;stroke-linecap:butt;stroke-linejoin:miter;stroke-opacity:1"
       d="M 64.070226,17.213319 L 62.396267,17.888887 L 60.982239,18.949154 L 60.399993,20.150164 L 60.233636,21.810936 L 60.899061,23.162073 L 61.980376,24.297402 L 63.4048,24.822844 L 64.818829,25.048035 L 66.575966,24.672718 L 67.906816,23.621835 L 68.655418,22.561567 L 68.832171,20.985241 L 68.489062,19.624722 L 67.74046,18.498775 L 66.076897,17.438508 L 64.070226,17.213319 z "
       id="path30609"
       sodipodi:nodetypes="ccccccccccccccccc" />
    <path
       style="fill:black;fill-opacity:1;fill-rule:evenodd;stroke:none;stroke-width:1px;stroke-linecap:butt;stroke-linejoin:miter;stroke-opacity:1"
       d="M 77.233103,14.873889 L 73.918731,16.255488 L 71.119013,18.423832 L 69.966187,20.880009 L 69.636809,24.276441 L 70.954324,27.039642 L 73.095284,29.361496 L 75.915588,30.436074 L 78.715307,30.896608 L 82.194368,30.129051 L 84.829396,27.979897 L 86.3116,25.811553 L 86.661564,22.58782 L 85.982221,19.805432 L 84.500017,17.502766 L 81.206232,15.334422 L 77.233103,14.873889 z "
       id="path30611"
       sodipodi:nodetypes="ccccccccccccccccc" />
    <path
       style="fill:white;fill-opacity:1;fill-rule:evenodd;stroke:none;stroke-width:1px;stroke-linecap:butt;stroke-linejoin:miter;stroke-opacity:1"
       d="M 77.12494,16.628461 L 74.523791,17.687304 L 72.326547,19.349098 L 71.421799,21.231484 L 71.1633,23.834472 L 72.197296,25.952158 L 73.877542,27.7316 L 76.090942,28.555145 L 78.288186,28.908093 L 81.018585,28.319846 L 83.086578,26.672759 L 84.249826,25.010964 L 84.52448,22.540331 L 83.991327,20.407941 L 82.828079,18.643203 L 80.243087,16.981409 L 77.12494,16.628461 z "
       id="path30613"
       sodipodi:nodetypes="ccccccccccccccccc" />
    <path
       style="fill:black;fill-opacity:1;fill-rule:evenodd;stroke:none;stroke-width:1px;stroke-linecap:butt;stroke-linejoin:miter;stroke-opacity:1"
       d="M 64.945586,18.616975 L 64.008624,19.010131 L 63.217152,19.627168 L 62.891252,20.326112 L 62.798138,21.292619 L 63.170595,22.07893 L 63.775838,22.739651 L 64.573129,23.045437 L 65.3646,23.17649 L 66.348118,22.95807 L 67.093033,22.346495 L 67.512048,21.729459 L 67.610981,20.812096 L 67.418934,20.020323 L 66.999919,19.365064 L 66.068775,18.748027 L 64.945586,18.616975 z "
       id="path30615"
       sodipodi:nodetypes="ccccccccccccccccc" />
    <path
       style="fill:black;fill-opacity:1;fill-rule:evenodd;stroke:none;stroke-width:1px;stroke-linecap:butt;stroke-linejoin:miter;stroke-opacity:1"
       d="M 74.898295,19.669719 L 73.961332,20.062874 L 73.169862,20.679911 L 72.843962,21.378855 L 72.750848,22.345362 L 73.123304,23.131673 L 73.728547,23.792394 L 74.525838,24.098181 L 75.317309,24.229233 L 76.300828,24.010813 L 77.045742,23.399238 L 77.464756,22.782201 L 77.563691,21.864839 L 77.371642,21.073066 L 76.952628,20.417807 L 76.021485,19.80077 L 74.898295,19.669719 z "
       id="path30617"
       sodipodi:nodetypes="ccccccccccccccccc" />
    <path
       style="fill:black;fill-opacity:1;fill-rule:evenodd;stroke:none;stroke-width:1px;stroke-linecap:butt;stroke-linejoin:miter;stroke-opacity:1"
       d="M 57.327875,33.646623 L 58.915424,35.167253 L 63.311713,37.974568 L 66.364691,39.612169 L 72.592767,40.547941 L 76.134222,39.846112 L 79.431438,38.325483 L 82.240178,36.453939 L 82.362298,34.699367 L 83.827727,34.465424 L 84.560442,36.103025 L 85.293157,37.506682 L 84.80468,39.378227 L 83.217132,39.144283 L 82.972893,37.974568 L 81.385345,39.612169 L 79.1872,41.951599 L 76.012103,43.238285 L 72.348529,43.472228 L 69.539789,43.238285 L 66.120453,42.536457 L 62.33476,41.24977 L 60.502972,39.963084 L 59.648139,38.325483 L 58.304829,36.570911 L 57.327875,35.401196 L 55.37397,35.518168 L 54.885493,34.816339 C 54.885493,34.816339 54.030659,33.412681 54.763374,33.061767 C 55.496088,32.710852 57.694233,31.307195 57.694233,31.307195 L 59.037543,32.710852 L 57.327875,33.646623 z "
       id="path30619"
       sodipodi:nodetypes="ccccccccccccccccccccccccccccsccc" />
    <path
       style="fill:#bbbe80;fill-opacity:1;fill-rule:evenodd;stroke:none;stroke-width:1px;stroke-linecap:butt;stroke-linejoin:miter;stroke-opacity:1"
       d="M 26.200502,2.9145873 L 15.225027,7.7410253 L 5.9538178,15.315853 L 2.1362608,23.896188 L 1.0455299,35.761183 L 5.4084518,45.41406 L 12.4982,53.525158 L 21.83758,57.279055 L 28.783351,58.887867 L 34.98003,58.203114 L 29.38341,43.233519 L 23.620686,36.070756 L 27.159721,27.080863 L 20.898689,25.731699 L 21.780078,18.23673 L 23.99029,10.741762 L 26.200502,2.9145873 z "
       id="path31511"
       sodipodi:nodetypes="ccccccccccccccccc" />
    <path
       style="fill:#fff6d5;fill-opacity:1;fill-rule:evenodd;stroke:none;stroke-width:1px;stroke-linecap:butt;stroke-linejoin:miter;stroke-opacity:1"
       d="M 22.794389,7.3993639 L 16.13874,10.65628 L 8.0394789,16.999757 L 5.3200465,24.561593 L 4.3769626,33.191065 L 7.8170908,42.362541 L 12.867466,49.178635 L 19.188157,52.985247 L 25.630896,55.233604 L 30.836836,55.213262 L 26.224449,44.92561 L 20.126146,36.95205 L 23.145482,28.697066 L 18.187134,27.508049 L 19.313299,19.573922 L 20.887741,12.968618 L 22.794389,7.3993639 z "
       id="path31513"
       sodipodi:nodetypes="ccccccccccccccccc" />
    <path
       style="fill:black;fill-opacity:1;fill-rule:evenodd;stroke:none;stroke-width:1px;stroke-linecap:butt;stroke-linejoin:miter;stroke-opacity:1"
       d="M 12.354426,16.59148 L 10.177869,17.426488 L 8.3392869,18.736987 L 7.5822244,20.221446 L 7.3659203,22.274172 L 8.2311353,23.944189 L 9.6371094,25.347466 L 11.48921,25.996916 L 13.327792,26.275253 L 15.6125,25.811359 L 17.34293,24.512458 L 18.316296,23.201959 L 18.546119,21.253607 L 18.099993,19.571995 L 17.126626,18.180315 L 14.963588,16.869816 L 12.354426,16.59148 z "
       id="path31515"
       sodipodi:nodetypes="ccccccccccccccccc" />
    <path
       style="fill:white;fill-opacity:1;fill-rule:evenodd;stroke:none;stroke-width:1px;stroke-linecap:butt;stroke-linejoin:miter;stroke-opacity:1"
       d="M 12.710944,18.107938 L 11.243153,18.672989 L 10.00328,19.559805 L 9.4927441,20.56434 L 9.3468766,21.953424 L 9.930346,23.083526 L 10.878484,24.033125 L 12.127474,24.472609 L 13.367348,24.66096 L 14.908072,24.347042 L 16.075012,23.468075 L 16.731415,22.581258 L 16.886399,21.262805 L 16.585548,20.124856 L 15.929144,19.183104 L 14.47047,18.296288 L 12.710944,18.107938 z "
       id="path31517"
       sodipodi:nodetypes="ccccccccccccccccc" />
    <path
       style="fill:black;fill-opacity:1;fill-rule:evenodd;stroke:none;stroke-width:1px;stroke-linecap:butt;stroke-linejoin:miter;stroke-opacity:1"
       d="M 15.139521,18.617556 L 14.317957,18.989364 L 13.623965,19.572893 L 13.338203,20.233884 L 13.256557,21.147909 L 13.583142,21.89152 L 14.113841,22.516364 L 14.812936,22.805545 L 15.506928,22.929482 L 16.369315,22.722921 L 17.022484,22.144557 L 17.389892,21.561026 L 17.476641,20.693478 L 17.308246,19.9447 L 16.940838,19.325023 L 16.124376,18.741492 L 15.139521,18.617556 z "
       id="path31519"
       sodipodi:nodetypes="ccccccccccccccccc" />
    <path
       style="fill:black;fill-opacity:1;fill-rule:evenodd;stroke:none;stroke-width:1px;stroke-linecap:butt;stroke-linejoin:miter;stroke-opacity:1"
       d="M 15.823776,45.238266 L 17.057699,43.530079 L 20.474716,40.376505 L 22.847644,38.53692 L 27.688418,37.485728 L 30.441015,38.274122 L 33.003777,39.982308 L 35.186871,42.084691 L 35.281789,44.055675 L 36.420795,44.318473 L 36.990297,42.478888 L 37.5598,40.902101 L 37.180131,38.799717 L 35.946209,39.062516 L 35.756375,40.376505 L 34.522452,38.53692 L 32.813943,35.908941 L 30.346098,34.463553 L 27.498584,34.200755 L 25.315489,34.463553 L 22.65781,35.251946 L 19.715378,36.697335 L 18.291621,38.142723 L 17.627202,39.982308 L 16.583113,41.953292 L 15.823776,43.267281 L 14.305102,43.135882 L 13.925433,43.924276 C 13.925433,43.924276 13.261014,45.501063 13.830518,45.89526 C 14.400018,46.289457 16.108527,47.866244 16.108527,47.866244 L 17.152615,46.289457 L 15.823776,45.238266 z "
       id="path31521"
       sodipodi:nodetypes="ccccccccccccccccccccccccccccsccc" />
    <path
       style="fill:black;fill-opacity:1;fill-rule:evenodd;stroke:none;stroke-width:1px;stroke-linecap:butt;stroke-linejoin:miter;stroke-opacity:1"
       d="M 28.964708,14.432143 L 26.788151,15.267151 L 24.949569,16.57765 L 24.192507,18.062109 L 23.976203,20.114835 L 24.841418,21.784852 L 26.247392,23.188129 L 28.099492,23.837579 L 29.938074,24.115916 L 32.222782,23.652022 L 33.953212,22.353121 L 34.926578,21.042622 L 35.156401,19.09427 L 34.710275,17.412658 L 33.736908,16.020978 L 31.57387,14.710479 L 28.964708,14.432143 z "
       id="path31523"
       sodipodi:nodetypes="ccccccccccccccccc" />
    <path
       style="fill:white;fill-opacity:1;fill-rule:evenodd;stroke:none;stroke-width:1px;stroke-linecap:butt;stroke-linejoin:miter;stroke-opacity:1"
       d="M 29.321226,15.948601 L 27.853435,16.513652 L 26.613562,17.400468 L 26.103027,18.405003 L 25.957159,19.794087 L 26.540628,20.924189 L 27.488767,21.873788 L 28.737756,22.313272 L 29.97763,22.501623 L 31.518354,22.187705 L 32.685294,21.308738 L 33.341697,20.421921 L 33.496681,19.103468 L 33.19583,17.965519 L 32.539426,17.023767 L 31.080752,16.136951 L 29.321226,15.948601 z "
       id="path31525"
       sodipodi:nodetypes="ccccccccccccccccc" />
    <path
       style="fill:black;fill-opacity:1;fill-rule:evenodd;stroke:none;stroke-width:1px;stroke-linecap:butt;stroke-linejoin:miter;stroke-opacity:1"
       d="M 31.749803,16.458219 L 30.928239,16.830027 L 30.234247,17.413556 L 29.948485,18.074547 L 29.866839,18.988572 L 30.193424,19.732183 L 30.724123,20.357027 L 31.423218,20.646208 L 32.11721,20.770145 L 32.979597,20.563584 L 33.632766,19.98522 L 34.000174,19.401689 L 34.086923,18.534141 L 33.918528,17.785363 L 33.55112,17.165686 L 32.734658,16.582155 L 31.749803,16.458219 z "
       id="path31527"
       sodipodi:nodetypes="ccccccccccccccccc" />
    <g
       id="g27626"
       transform="matrix(0.454905,0.281672,-0.29002,0.441811,37.75948,68.42045)">
      <path
         id="path20377"
         d="m -5.9132601,-12.757095 -19.0624999,10.2500005 5.53125,21.8124995 6.9375,3.3125 4.4142181,-8.889631 8.08578177,2.577131 c 1.44552003,0.389801 2.52187003,0.787166 3.37500003,1.1875 L 10.77424,4.3054055 C 6.1669699,3.2326085 -2.4045031,1.1112145 -2.7882601,-0.03834454 -3.3127391,-1.6094464 0.30548887,-10.382095 0.30548987,-10.382095 Z"
         style="fill:#c58101;fill-opacity:1;fill-rule:evenodd;stroke:none;stroke-width:1px;stroke-linecap:butt;stroke-linejoin:miter;stroke-opacity:1"
         inkscape:connector-curvature="0"
         sodipodi:nodetypes="ccccccccscc" />
      <path
         sodipodi:nodetypes="ccccccccccc"
         id="path26699"
         d="M -8.097637,-7.2936763 L -20.796202,-0.66833834 L -18.771793,7.4292977 L -17.483532,15.895009 L -13.06664,17.73538 L -9.017823,8.7175587 L 2.392481,13.502525 L 6.257261,7.2452597 L -7.177452,3.0124057 L -4.416893,-7.6617503 L -8.097637,-7.2936763 z "
         style="fill:#ffc06e;fill-opacity:1;fill-rule:evenodd;stroke:none;stroke-width:1px;stroke-linecap:butt;stroke-linejoin:miter;stroke-opacity:1" />
    </g>
    <g
       id="g32018"
       transform="matrix(-0.454905,0.281672,0.29002,0.441811,53.90282,67.34265)">
      <path
         id="path32020"
         d="m -5.9132601,-12.757095 -19.0624999,10.2500005 5.53125,21.8124995 6.9375,3.3125 4.8888509,-9.004249 7.17712898,3.156433 C 1.0044899,17.15989 2.5148599,17.092571 3.3679899,17.492905 L 10.77424,4.3054055 C 6.1669699,3.2326085 -2.4045031,1.1112145 -2.7882601,-0.03834454 -3.3127391,-1.6094464 0.30548887,-10.382095 0.30548987,-10.382095 Z"
         style="fill:#c58101;fill-opacity:1;fill-rule:evenodd;stroke:none;stroke-width:1px;stroke-linecap:butt;stroke-linejoin:miter;stroke-opacity:1"
         inkscape:connector-curvature="0"
         sodipodi:nodetypes="ccccccccscc" />
      <path
         sodipodi:nodetypes="ccccccccccc"
         id="path32022"
         d="M -8.097637,-7.2936763 L -20.796202,-0.66833834 L -18.771793,7.4292977 L -17.483532,15.895009 L -13.06664,17.73538 L -9.017823,8.7175587 L 2.392481,13.502525 L 6.257261,7.2452597 L -7.177452,3.0124057 L -4.416893,-7.6617503 L -8.097637,-7.2936763 z "
         style="fill:#ffc06e;fill-opacity:1;fill-rule:evenodd;stroke:none;stroke-width:1px;stroke-linecap:butt;stroke-linejoin:miter;stroke-opacity:1" />
    </g>
    <g
       transform="matrix(1.4402466,0,0,1.4402466,-22.563517,-40.199523)"
       style="font-style:normal;font-variant:normal;font-weight:bold;font-stretch:normal;font-size:10px;line-height:125%;font-family:Purisa;-inkscape-font-specification:'Purisa Bold';text-align:start;letter-spacing:0px;word-spacing:0px;writing-mode:lr-tb;text-anchor:start;fill:none;fill-opacity:1;stroke:#ce3737;stroke-width:1px;stroke-linecap:butt;stroke-linejoin:miter;stroke-opacity:1"
       id="flowRoot8026">
      <path
         d="m 29.684297,93.99709 q -0.39,0 -0.48,-0.91 -0.09,-0.91 -0.09,-4.44 0,-1.76 0.03,-2.42 0.03,-0.66 0.12,-0.78 0.19,-0.24 0.45,-0.24 0.22,0 0.37,0.29 0.16,0.28 0.38,1.01 0.32,1.07 0.68,1.84 0.36,0.77 0.53,0.9 0.11,-0.07 0.34,-0.4 0.24,-0.34 0.67,-1.1 0.44,-0.76 0.96,-1.8 0.14,-0.29 0.4,-0.49 0.27,-0.2 0.52,-0.2 0.18,0 0.31,0.12 0.26,0.23 0.33,0.93 0.07,0.69 0.09,2.86 0.01,1.31 0.06,2.12 0.05,0.81 0.1,1.02 0.06,0.21 0.1,0.36 0.04,0.15 0.04,0.3 0,0.44 -0.41,0.44 -0.2,0 -0.39,-0.12 -0.18,-0.12 -0.25,-0.32 -0.07,-0.19 -0.13,-1.45 -0.06,-1.27 -0.11,-2.75 -0.05,-1.48 -0.1,-1.94 -0.07,0.13 -0.33,0.67 -0.25,0.53 -0.87,1.56 -0.23,0.38 -0.72,0.71 -0.48,0.32 -0.87,0.32 -0.15,0 -0.4,-0.27 -0.24,-0.28 -0.47,-0.66 l -0.28,-0.46 0,2.1 q 0,1.37 -0.06,2.05 -0.05,0.68 -0.17,0.91 -0.12,0.24 -0.35,0.24 z"
         id="path8070"
         inkscape:connector-curvature="0"
         style="fill:none;stroke:#ce3737;stroke-opacity:1" />
      <path
         d="m 41.497266,90.48709 q 0.06,-0.45 0.27,-1.25 0.21,-0.81 0.21,-1 0,-0.25 -0.27,-0.75 -0.26,-0.51 -0.39,-0.64 -0.1,-0.06 -0.33,-0.06 -0.45,0 -1.17,0.22 -1.52,0.46 -1.88,2.43 -0.1,0.62 -0.1,0.79 0,0.33 0.24,0.96 0.53,1.42 1.44,1.42 0.23,0 0.54,-0.11 0.32,-0.12 0.84,-0.83 0.53,-0.72 0.6,-1.18 z m -0.7,2.66 q -0.04,0 -0.09,0.07 -0.04,0.07 -0.08,0.1 -0.15,0.1 -0.58,0.16 -0.43,0.07 -0.83,0.07 -0.3,0 -0.5,-0.08 -0.19,-0.07 -0.49,-0.28 -0.58,-0.44 -1,-1.36 -0.42,-0.92 -0.42,-1.74 0,-0.94 0.43,-1.88 0.43,-0.94 1.12,-1.4 0.64,-0.42 0.96,-0.44 0.08,-0.02 0.37,-0.28 0.29,-0.26 0.52,-0.26 0.14,0 0.27,-0.13 0.14,-0.14 0.45,-0.14 0.85,0 1.35,0.78 0.51,0.77 0.51,2.07 0,0.83 -0.21,1.72 -0.21,0.88 -0.52,1.53 -0.3,0.65 -0.65,1.07 -0.35,0.42 -0.61,0.42 z"
         id="path8072"
         inkscape:connector-curvature="0"
         style="fill:none;stroke:#ce3737;stroke-opacity:1" />
      <path
         d="m 48.567578,90.48709 q 0.06,-0.45 0.27,-1.25 0.21,-0.81 0.21,-1 0,-0.25 -0.27,-0.75 -0.26,-0.51 -0.39,-0.64 -0.1,-0.06 -0.33,-0.06 -0.45,0 -1.17,0.22 -1.52,0.46 -1.88,2.43 -0.1,0.62 -0.1,0.79 0,0.33 0.24,0.96 0.53,1.42 1.44,1.42 0.23,0 0.54,-0.11 0.32,-0.12 0.84,-0.83 0.53,-0.72 0.6,-1.18 z m -0.7,2.66 q -0.04,0 -0.09,0.07 -0.04,0.07 -0.08,0.1 -0.15,0.1 -0.58,0.16 -0.43,0.07 -0.83,0.07 -0.3,0 -0.5,-0.08 -0.19,-0.07 -0.49,-0.28 -0.58,-0.44 -1,-1.36 -0.42,-0.92 -0.42,-1.74 0,-0.94 0.43,-1.88 0.43,-0.94 1.12,-1.4 0.64,-0.42 0.96,-0.44 0.08,-0.02 0.37,-0.28 0.29,-0.26 0.52,-0.26 0.14,0 0.27,-0.13 0.14,-0.14 0.45,-0.14 0.85,0 1.35,0.78 0.51,0.77 0.51,2.07 0,0.83 -0.21,1.72 -0.21,0.88 -0.52,1.53 -0.3,0.65 -0.65,1.07 -0.35,0.42 -0.61,0.42 z"
         id="path8074"
         inkscape:connector-curvature="0"
         style="fill:none;stroke:#ce3737;stroke-opacity:1" />
      <path
         d="m 52.297891,90.12709 q 0,0.48 0.04,0.84 0.04,0.36 0.04,0.47 0,0.6 -0.16,1.07 -0.16,0.47 -0.4,0.47 -0.42,0 -0.54,-0.3 -0.12,-0.3 -0.12,-1.33 0,-1.16 0.06,-3.25 0.07,-2.1 0.14,-2.33 0.01,-0.04 0.04,-0.09 0.03,-0.06 0.17,-0.15 0.14,-0.1 0.33,-0.1 0.2,0 0.41,0.13 0.18,0.13 0.83,0.99 0.66,0.85 0.66,0.99 0.02,0.05 0.23,0.35 0.21,0.3 0.65,1 0.45,0.69 0.93,1.56 0.98,1.78 1.31,1.91 0.15,-0.24 0.3,-2.38 0.18,-2.65 0.29,-3.15 0.12,-0.58 0.43,-0.67 0.09,-0.03 0.21,-0.03 0.45,0 0.45,0.69 0,0.23 -0.05,0.7 -0.05,0.46 -0.16,1.44 -0.1,0.97 -0.19,2.07 -0.04,0.55 -0.07,0.84 -0.03,0.28 -0.08,0.62 -0.05,0.33 -0.1,0.48 -0.05,0.15 -0.14,0.3 -0.09,0.14 -0.21,0.18 -0.11,0.05 -0.28,0.05 -0.75,0 -1.33,-0.52 -0.57,-0.53 -1.16,-1.64 -0.28,-0.52 -0.5,-0.89 -0.22,-0.38 -0.3,-0.49 -0.08,-0.11 -0.14,-0.23 -0.05,-0.13 -0.1,-0.32 -0.05,-0.18 -0.27,-0.53 -0.22,-0.35 -0.6,-0.87 -0.37,-0.52 -0.43,-0.61 -0.19,0.93 -0.19,2.73 z"
         id="path8076"
         inkscape:connector-curvature="0"
         style="fill:none;stroke:#ce3737;stroke-opacity:1" />
      <path
         d="m 68.111328,92.94709 q 0,-0.4 0.12,-0.59 0.12,-0.2 0.27,-0.2 0.17,0 0.48,0.23 0.31,0.22 0.31,0.35 0,0.05 -0.07,0.24 -0.07,0.19 -0.26,0.41 -0.19,0.22 -0.42,0.22 -0.43,0 -0.43,-0.66 z m 0.61,-1.84 q -0.27,0 -0.35,-0.28 -0.08,-0.29 -0.08,-0.92 0,-0.65 0.1,-0.97 0.11,-0.32 0.51,-0.68 0.35,-0.31 0.55,-0.77 0.2,-0.46 0.2,-0.87 0,-0.3 -0.09,-0.5 -0.08,-0.2 -0.36,-0.42 -0.27,-0.22 -0.42,-0.22 -0.3,0 -0.74,0.36 -0.44,0.36 -0.44,0.6 0.01,0.16 0.21,0.54 0.21,0.38 0.32,0.41 0.13,-0.01 0.25,-0.16 0.12,-0.15 0.17,-0.29 -0.04,0 -0.11,-0.01 -0.06,-0.01 -0.16,-0.07 -0.09,-0.06 -0.09,-0.17 0,-0.19 0.18,-0.32 0.18,-0.14 0.35,-0.14 0.19,0 0.33,0.19 0.15,0.18 0.15,0.48 0,0.21 -0.07,0.43 -0.07,0.22 -0.29,0.43 -0.22,0.2 -0.56,0.2 -0.45,0 -0.91,-0.49 -0.46,-0.49 -0.46,-1.05 0,-0.59 0.63,-1.13 0.64,-0.55 1.22,-0.55 0.64,0 1.12,0.64 0.49,0.63 0.49,1.35 0,0.46 -0.25,0.96 -0.24,0.49 -0.78,1.2 l -0.32,0.42 0.01,0.71 0,0.32 q 0,0.77 -0.31,0.77 z"
         id="path8078"
         inkscape:connector-curvature="0"
         style="fill:none;stroke:#ce3737;stroke-opacity:1" />
    </g>
    <g
       transform="matrix(1.4402466,0,0,1.4402466,-22.533096,-40.263829)"
       style="font-style:normal;font-variant:normal;font-weight:bold;font-stretch:normal;font-size:10px;line-height:125%;font-family:Purisa;-inkscape-font-specification:'Purisa Bold';text-align:start;letter-spacing:0px;word-spacing:0px;writing-mode:lr-tb;text-anchor:start;fill:#ed8484;fill-opacity:1;stroke:none;stroke-width:1px;stroke-linecap:butt;stroke-linejoin:miter;stroke-opacity:1"
       id="flowRoot8026-1">
      <path
         d="m 29.684297,93.99709 q -0.39,0 -0.48,-0.91 -0.09,-0.91 -0.09,-4.44 0,-1.76 0.03,-2.42 0.03,-0.66 0.12,-0.78 0.19,-0.24 0.45,-0.24 0.22,0 0.37,0.29 0.16,0.28 0.38,1.01 0.32,1.07 0.68,1.84 0.36,0.77 0.53,0.9 0.11,-0.07 0.34,-0.4 0.24,-0.34 0.67,-1.1 0.44,-0.76 0.96,-1.8 0.14,-0.29 0.4,-0.49 0.27,-0.2 0.52,-0.2 0.18,0 0.31,0.12 0.26,0.23 0.33,0.93 0.07,0.69 0.09,2.86 0.01,1.31 0.06,2.12 0.05,0.81 0.1,1.02 0.06,0.21 0.1,0.36 0.04,0.15 0.04,0.3 0,0.44 -0.41,0.44 -0.2,0 -0.39,-0.12 -0.18,-0.12 -0.25,-0.32 -0.07,-0.19 -0.13,-1.45 -0.06,-1.27 -0.11,-2.75 -0.05,-1.48 -0.1,-1.94 -0.07,0.13 -0.33,0.67 -0.25,0.53 -0.87,1.56 -0.23,0.38 -0.72,0.71 -0.48,0.32 -0.87,0.32 -0.15,0 -0.4,-0.27 -0.24,-0.28 -0.47,-0.66 l -0.28,-0.46 0,2.1 q 0,1.37 -0.06,2.05 -0.05,0.68 -0.17,0.91 -0.12,0.24 -0.35,0.24 z"
         id="path8081"
         inkscape:connector-curvature="0" />
      <path
         d="m 41.497266,90.48709 q 0.06,-0.45 0.27,-1.25 0.21,-0.81 0.21,-1 0,-0.25 -0.27,-0.75 -0.26,-0.51 -0.39,-0.64 -0.1,-0.06 -0.33,-0.06 -0.45,0 -1.17,0.22 -1.52,0.46 -1.88,2.43 -0.1,0.62 -0.1,0.79 0,0.33 0.24,0.96 0.53,1.42 1.44,1.42 0.23,0 0.54,-0.11 0.32,-0.12 0.84,-0.83 0.53,-0.72 0.6,-1.18 z m -0.7,2.66 q -0.04,0 -0.09,0.07 -0.04,0.07 -0.08,0.1 -0.15,0.1 -0.58,0.16 -0.43,0.07 -0.83,0.07 -0.3,0 -0.5,-0.08 -0.19,-0.07 -0.49,-0.28 -0.58,-0.44 -1,-1.36 -0.42,-0.92 -0.42,-1.74 0,-0.94 0.43,-1.88 0.43,-0.94 1.12,-1.4 0.64,-0.42 0.96,-0.44 0.08,-0.02 0.37,-0.28 0.29,-0.26 0.52,-0.26 0.14,0 0.27,-0.13 0.14,-0.14 0.45,-0.14 0.85,0 1.35,0.78 0.51,0.77 0.51,2.07 0,0.83 -0.21,1.72 -0.21,0.88 -0.52,1.53 -0.3,0.65 -0.65,1.07 -0.35,0.42 -0.61,0.42 z"
         id="path8083"
         inkscape:connector-curvature="0" />
      <path
         d="m 48.567578,90.48709 q 0.06,-0.45 0.27,-1.25 0.21,-0.81 0.21,-1 0,-0.25 -0.27,-0.75 -0.26,-0.51 -0.39,-0.64 -0.1,-0.06 -0.33,-0.06 -0.45,0 -1.17,0.22 -1.52,0.46 -1.88,2.43 -0.1,0.62 -0.1,0.79 0,0.33 0.24,0.96 0.53,1.42 1.44,1.42 0.23,0 0.54,-0.11 0.32,-0.12 0.84,-0.83 0.53,-0.72 0.6,-1.18 z m -0.7,2.66 q -0.04,0 -0.09,0.07 -0.04,0.07 -0.08,0.1 -0.15,0.1 -0.58,0.16 -0.43,0.07 -0.83,0.07 -0.3,0 -0.5,-0.08 -0.19,-0.07 -0.49,-0.28 -0.58,-0.44 -1,-1.36 -0.42,-0.92 -0.42,-1.74 0,-0.94 0.43,-1.88 0.43,-0.94 1.12,-1.4 0.64,-0.42 0.96,-0.44 0.08,-0.02 0.37,-0.28 0.29,-0.26 0.52,-0.26 0.14,0 0.27,-0.13 0.14,-0.14 0.45,-0.14 0.85,0 1.35,0.78 0.51,0.77 0.51,2.07 0,0.83 -0.21,1.72 -0.21,0.88 -0.52,1.53 -0.3,0.65 -0.65,1.07 -0.35,0.42 -0.61,0.42 z"
         id="path8085"
         inkscape:connector-curvature="0" />
      <path
         d="m 52.297891,90.12709 q 0,0.48 0.04,0.84 0.04,0.36 0.04,0.47 0,0.6 -0.16,1.07 -0.16,0.47 -0.4,0.47 -0.42,0 -0.54,-0.3 -0.12,-0.3 -0.12,-1.33 0,-1.16 0.06,-3.25 0.07,-2.1 0.14,-2.33 0.01,-0.04 0.04,-0.09 0.03,-0.06 0.17,-0.15 0.14,-0.1 0.33,-0.1 0.2,0 0.41,0.13 0.18,0.13 0.83,0.99 0.66,0.85 0.66,0.99 0.02,0.05 0.23,0.35 0.21,0.3 0.65,1 0.45,0.69 0.93,1.56 0.98,1.78 1.31,1.91 0.15,-0.24 0.3,-2.38 0.18,-2.65 0.29,-3.15 0.12,-0.58 0.43,-0.67 0.09,-0.03 0.21,-0.03 0.45,0 0.45,0.69 0,0.23 -0.05,0.7 -0.05,0.46 -0.16,1.44 -0.1,0.97 -0.19,2.07 -0.04,0.55 -0.07,0.84 -0.03,0.28 -0.08,0.62 -0.05,0.33 -0.1,0.48 -0.05,0.15 -0.14,0.3 -0.09,0.14 -0.21,0.18 -0.11,0.05 -0.28,0.05 -0.75,0 -1.33,-0.52 -0.57,-0.53 -1.16,-1.64 -0.28,-0.52 -0.5,-0.89 -0.22,-0.38 -0.3,-0.49 -0.08,-0.11 -0.14,-0.23 -0.05,-0.13 -0.1,-0.32 -0.05,-0.18 -0.27,-0.53 -0.22,-0.35 -0.6,-0.87 -0.37,-0.52 -0.43,-0.61 -0.19,0.93 -0.19,2.73 z"
         id="path8087"
         inkscape:connector-curvature="0" />
      <path
         d="m 68.111328,92.94709 q 0,-0.4 0.12,-0.59 0.12,-0.2 0.27,-0.2 0.17,0 0.48,0.23 0.31,0.22 0.31,0.35 0,0.05 -0.07,0.24 -0.07,0.19 -0.26,0.41 -0.19,0.22 -0.42,0.22 -0.43,0 -0.43,-0.66 z m 0.61,-1.84 q -0.27,0 -0.35,-0.28 -0.08,-0.29 -0.08,-0.92 0,-0.65 0.1,-0.97 0.11,-0.32 0.51,-0.68 0.35,-0.31 0.55,-0.77 0.2,-0.46 0.2,-0.87 0,-0.3 -0.09,-0.5 -0.08,-0.2 -0.36,-0.42 -0.27,-0.22 -0.42,-0.22 -0.3,0 -0.74,0.36 -0.44,0.36 -0.44,0.6 0.01,0.16 0.21,0.54 0.21,0.38 0.32,0.41 0.13,-0.01 0.25,-0.16 0.12,-0.15 0.17,-0.29 -0.04,0 -0.11,-0.01 -0.06,-0.01 -0.16,-0.07 -0.09,-0.06 -0.09,-0.17 0,-0.19 0.18,-0.32 0.18,-0.14 0.35,-0.14 0.19,0 0.33,0.19 0.15,0.18 0.15,0.48 0,0.21 -0.07,0.43 -0.07,0.22 -0.29,0.43 -0.22,0.2 -0.56,0.2 -0.45,0 -0.91,-0.49 -0.46,-0.49 -0.46,-1.05 0,-0.59 0.63,-1.13 0.64,-0.55 1.22,-0.55 0.64,0 1.12,0.64 0.49,0.63 0.49,1.35 0,0.46 -0.25,0.96 -0.24,0.49 -0.78,1.2 l -0.32,0.42 0.01,0.71 0,0.32 q 0,0.77 -0.31,0.77 z"
         id="path8089"
         inkscape:connector-curvature="0" />
    </g>
  </g>
</svg>
