<svg xmlns:dc="http://purl.org/dc/elements/1.1/" xmlns:cc="http://creativecommons.org/ns#" xmlns:rdf="http://www.w3.org/1999/02/22-rdf-syntax-ns#" xmlns="http://www.w3.org/2000/svg" width="256" height="256" viewBox="0 0 256 256" version="1.1" id="svg8"><metadata id="metadata5"><rdf:RDF><cc:Work><dc:format>image/svg+xml</dc:format><dc:type rdf:resource="http://purl.org/dc/dcmitype/StillImage"/><dc:title/><dc:date>2023</dc:date><dc:creator><cc:Agent><dc:title>Timothée Giet</dc:title></cc:Agent></dc:creator><cc:license rdf:resource="http://creativecommons.org/licenses/by-sa/4.0/"/></cc:Work><cc:License rdf:about="http://creativecommons.org/licenses/by-sa/4.0/"><cc:permits rdf:resource="http://creativecommons.org/ns#Reproduction"/><cc:permits rdf:resource="http://creativecommons.org/ns#Distribution"/><cc:requires rdf:resource="http://creativecommons.org/ns#Notice"/><cc:requires rdf:resource="http://creativecommons.org/ns#Attribution"/><cc:permits rdf:resource="http://creativecommons.org/ns#DerivativeWorks"/><cc:requires rdf:resource="http://creativecommons.org/ns#ShareAlike"/></cc:License></rdf:RDF></metadata><g id="layer1" transform="translate(-1.148 30.42)"><g id="g886" transform="rotate(45 92.017 157.412)"><path style="display:inline;overflow:visible;fill:#76533a;fill-opacity:.982771;fill-rule:evenodd;stroke:none;stroke-width:23.6462px;stroke-linecap:butt;stroke-linejoin:miter;stroke-opacity:1" d="M70.282 19.598c31.699-5.968 91.48 8.672 103.16 58.779 11.679 50.099-56.03 85.75-102.16 87.493-46.13 1.742-76.732-37.41-77.769-59.23-1.037-21.822 8.083-67.653 76.77-87.042z" id="path55"/><path style="display:inline;overflow:visible;fill:#dbb191;fill-opacity:1;fill-rule:evenodd;stroke:none;stroke-width:23.6462px;stroke-linecap:butt;stroke-linejoin:miter;stroke-opacity:1" d="M71.756 21.653c29.333-5.52 87.183 10.65 97.99 57.01 10.805 46.362-54.617 81.944-97.3 83.551-42.688 1.612-71.253-36.607-72.211-56.798-.955-20.187 7.967-65.821 71.524-83.76z" id="path57"/><path style="display:inline;overflow:visible;fill:#8d5336;fill-opacity:1;fill-rule:evenodd;stroke:none;stroke-width:23.6462px;stroke-linecap:butt;stroke-linejoin:miter;stroke-opacity:1" d="M63.982 31.366c-21.5 15.577-48.778 33.232-51.412 48.756-2.626 15.525 3.969 53.356 16.89 57.675 12.917 4.316 47.801 14.47 53.098 27.316 4.767 11.585-12.477 14.439-22.996 12.626-10.519-1.813-74.4-46.835-74.084-60.864.317-14.021-4.565-37.197 9.344-49.002C13.488 52.027 30.348 26.08 24.365 19.135c4.841-4.372 43.291-15.987 47.939-2.417 5.07 14.775-1.873 9.833-8.322 14.648z" id="path59"/><path style="display:inline;overflow:visible;fill:#c06e46;fill-opacity:1;fill-rule:evenodd;stroke:none;stroke-width:23.6462px;stroke-linecap:butt;stroke-linejoin:miter;stroke-opacity:1" d="M14.928 80.518c-2.675 14.707-.16 39.252 12.104 43.347 12.268 4.1 13.055 8.818 22.944 15.424 15.972 10.676 25.898 21.146 28.307 29.002 2.41 7.855-13.995 5.453-18.99 4.591-9.985-1.72-70.465-44.011-70.167-57.328.303-13.312-6.729-34.026 7.069-44.496 14.44-10.963 39.558-40.751 31.437-50.132 4.573-4.051 31.643-13.805 42.315-1.85 9.84 11.018-1.437 11.097-15.223 20.34-13.79 9.24-36.906 25.223-39.796 41.102z" id="path61"/><path style="fill:#2f2e2b;fill-opacity:1;stroke:none;stroke-width:1px;stroke-linecap:butt;stroke-linejoin:miter;stroke-opacity:1" d="M11.593 146.478C34.42 103.734 101.021 31.953 120.666 24.431c3.577-1.37 29.438 9.675 24.804 12.036-19.49 9.93-103.27 99.117-115.102 120.76-3.42 6.259-18.412-7.147-18.775-10.749z" id="path1039"/><path style="display:inline;overflow:visible;fill:#6c4e30;fill-opacity:.978463;fill-rule:evenodd;stroke:none;stroke-width:23.6462px;stroke-linecap:butt;stroke-linejoin:miter;stroke-opacity:1" d="M57.253 138.204c-17.528-.608-33.668 10.511-28.028 22.097 5.64 11.578 29.218 18.199 36.406 12.891 7.59-5.614 14.588-17.117 11.63-20.926" id="path63"/><path style="display:inline;overflow:visible;fill:#dbb191;fill-opacity:1;fill-rule:evenodd;stroke:none;stroke-width:23.6462px;stroke-linecap:butt;stroke-linejoin:miter;stroke-opacity:1" d="M59.33 135.693c-13.898 6.916-29.34 12.765-23.7 24.35 5.636 11.582 21.403 12.832 28.583 7.524 7.595-5.61 15.734-14.092 12.78-17.905" id="path65"/><path style="display:inline;overflow:visible;fill:#6c4e30;fill-opacity:.978463;fill-rule:evenodd;stroke:none;stroke-width:37.0045px;stroke-linecap:butt;stroke-linejoin:miter;stroke-opacity:1" d="M127.901 54.56c14.753 4.144 14.816 11.683 9.351 18.326-1.163 1.41 4.906-4.16 6.226-9.083 2.298-8.564-6.953-10.011-15.58-9.24z" id="path67"/><path style="display:inline;overflow:visible;fill:#8e6235;fill-opacity:1;fill-rule:evenodd;stroke:none;stroke-width:28.1616px;stroke-linecap:butt;stroke-linejoin:miter;stroke-opacity:1" d="M155.496 79.075c-5.531.333-19.897 13.786-23.56 24.607 10.74-.446 23.001-12.636 23.56-24.607z" id="path69"/><path style="display:inline;overflow:visible;fill:#76533a;fill-opacity:.982771;fill-rule:evenodd;stroke:none;stroke-width:23.6462px;stroke-linecap:butt;stroke-linejoin:miter;stroke-opacity:1" d="M46.119 163.438c-4.062-11.127 11.705-16.308 14.663-15.462 2.958.847 10.526 7.02 4.427 10.143-4.577 2.338-6.14-3.857-5.942-5.085.194-1.223-12.164.295-13.148 10.404z" id="path71"/><path style="display:inline;overflow:visible;fill:#76533a;fill-opacity:.982771;fill-rule:evenodd;stroke:none;stroke-width:23.6462px;stroke-linecap:butt;stroke-linejoin:miter;stroke-opacity:1" d="M50.748 160.256c1.902 7.818 7.784 5.659 10.705 2.35 3.477-3.947-6.345 3.338-10.705-2.35z" id="path73"/><path style="display:inline;overflow:visible;fill:#8d5336;fill-opacity:1;fill-rule:evenodd;stroke:none;stroke-width:23.6462px;stroke-linecap:butt;stroke-linejoin:miter;stroke-opacity:1" d="M76.701 52.232C63.407 58.2 50.284 73.506 52.738 82.478c-5.021-5.632-7.57-25.956 23.963-30.246z" id="path83"/><path style="display:inline;overflow:visible;fill:#8d5336;fill-opacity:1;fill-rule:evenodd;stroke:none;stroke-width:23.6462px;stroke-linecap:butt;stroke-linejoin:miter;stroke-opacity:1" d="M90.541 38.62c5.901-11.273 16.723-18.862 25.34-15.524-6.81-3.633-27.321-3.714-25.34 15.523z" id="path85"/></g></g></svg>