<svg xmlns:dc="http://purl.org/dc/elements/1.1/" xmlns:cc="http://creativecommons.org/ns#" xmlns:rdf="http://www.w3.org/1999/02/22-rdf-syntax-ns#" xmlns="http://www.w3.org/2000/svg" xmlns:xlink="http://www.w3.org/1999/xlink" width="256" height="256" viewBox="0 0 256 256" version="1.1" id="svg8"><metadata id="metadata5"><rdf:RDF><cc:Work><dc:format>image/svg+xml</dc:format><dc:type rdf:resource="http://purl.org/dc/dcmitype/StillImage"/><dc:title/><dc:date>2023</dc:date><dc:creator><cc:Agent><dc:title>Timothée Giet</dc:title></cc:Agent></dc:creator><cc:license rdf:resource="http://creativecommons.org/licenses/by-sa/4.0/"/></cc:Work><cc:License rdf:about="http://creativecommons.org/licenses/by-sa/4.0/"><cc:permits rdf:resource="http://creativecommons.org/ns#Reproduction"/><cc:permits rdf:resource="http://creativecommons.org/ns#Distribution"/><cc:requires rdf:resource="http://creativecommons.org/ns#Notice"/><cc:requires rdf:resource="http://creativecommons.org/ns#Attribution"/><cc:permits rdf:resource="http://creativecommons.org/ns#DerivativeWorks"/><cc:requires rdf:resource="http://creativecommons.org/ns#ShareAlike"/></cc:License></rdf:RDF></metadata><g id="layer1"><text xml:space="preserve" style="font-size:32px;line-height:1.25;font-family:kabel;-inkscape-font-specification:kabel" x="87.524109" y="108.18113" id="text2570-0"><tspan id="tspan2568-3" x="87.524109" y="108.18113" style="font-style:normal;font-variant:normal;font-weight:400;font-stretch:normal;font-size:32px;font-family:'DejaVu Sans Mono';-inkscape-font-specification:'DejaVu Sans Mono'">a</tspan></text><rect style="fill:#f6f6f6;fill-opacity:1;stroke:#373737;stroke-width:2;stroke-linejoin:round;stroke-miterlimit:4;stroke-dasharray:none;stroke-opacity:1" id="rect1767" width="112" height="112" x="8" y="8"/><use x="0" y="0" xlink:href="#rect1767" id="use1769" transform="translate(112)" width="100%" height="100%"/><use x="0" y="0" xlink:href="#rect1767" id="use1773" transform="translate(0 112)" width="100%" height="100%"/><use x="0" y="0" xlink:href="#rect1767" id="use1775" transform="translate(112 112)" width="100%" height="100%"/><use x="0" y="0" xlink:href="#rect1767" id="use2211" transform="translate(224)" width="100%" height="100%"/><use x="0" y="0" xlink:href="#rect1767" id="use2213" transform="translate(0 224)" width="100%" height="100%"/><use x="0" y="0" xlink:href="#rect1767" id="use2215" transform="translate(224 112)" width="100%" height="100%"/><use x="0" y="0" xlink:href="#rect1767" id="use2217" transform="translate(112 224)" width="100%" height="100%"/><use x="0" y="0" xlink:href="#rect1767" id="use2219" transform="translate(224 224)" width="100%" height="100%"/><circle style="fill:#373737;fill-opacity:1;stroke:#373737;stroke-width:2;stroke-linejoin:round;stroke-miterlimit:4;stroke-dasharray:none;stroke-opacity:1" id="path2344" cx="34" cy="34" r="10"/><circle style="fill:#f6f6f6;fill-opacity:1;stroke:#373737;stroke-width:2;stroke-linejoin:round;stroke-miterlimit:4;stroke-dasharray:none;stroke-opacity:1" id="path2344-8" cx="34" cy="86" r="10"/><use x="0" y="0" xlink:href="#path2344-8" id="use2466" transform="translate(0 -26)" width="100%" height="100%"/><use x="0" y="0" xlink:href="#path2344-8" id="use2468" transform="translate(26)" width="100%" height="100%"/><use x="0" y="0" xlink:href="#path2344-8" id="use2466-4" transform="translate(26 -26)" width="100%" height="100%"/><circle style="fill:#f6f6f6;fill-opacity:1;stroke:#373737;stroke-width:2;stroke-linejoin:round;stroke-miterlimit:4;stroke-dasharray:none;stroke-opacity:1" id="path2344-81" cx="60" cy="34" r="10"/><use x="0" y="0" xlink:href="#path2344" id="use2510" transform="translate(112)" width="100%" height="100%"/><use x="0" y="0" xlink:href="#path2344-8" id="use2512" transform="translate(112)" width="100%" height="100%"/><circle style="fill:#373737;fill-opacity:1;stroke:#373737;stroke-width:2;stroke-linejoin:round;stroke-miterlimit:4;stroke-dasharray:none;stroke-opacity:1" id="use2514" cx="146" cy="60" r="10"/><use x="0" y="0" xlink:href="#use2468" id="use2516" transform="translate(112)" width="100%" height="100%"/><use x="0" y="0" xlink:href="#use2466-4" id="use2518" transform="translate(112)" width="100%" height="100%"/><use x="0" y="0" xlink:href="#path2344-81" id="use2520" transform="translate(112)" width="100%" height="100%"/><use x="0" y="0" xlink:href="#path2344" id="use2522" transform="translate(224)" width="100%" height="100%"/><use x="0" y="0" xlink:href="#path2344-8" id="use2524" transform="translate(224)" width="100%" height="100%"/><use x="0" y="0" xlink:href="#use2466" id="use2526" transform="translate(224)" width="100%" height="100%"/><use x="0" y="0" xlink:href="#path2344" id="use2528" transform="translate(0 112)" width="100%" height="100%"/><circle style="fill:#373737;fill-opacity:1;stroke:#373737;stroke-width:2;stroke-linejoin:round;stroke-miterlimit:4;stroke-dasharray:none;stroke-opacity:1" id="use2530" cx="34" cy="198" r="10"/><use x="0" y="0" xlink:href="#use2466" id="use2532" transform="translate(0 112)" width="100%" height="100%"/><use x="0" y="0" xlink:href="#use2468" id="use2534" transform="translate(0 112)" width="100%" height="100%"/><use x="0" y="0" xlink:href="#use2466-4" id="use2536" transform="translate(0 112)" width="100%" height="100%"/><use x="0" y="0" xlink:href="#path2344-81" id="use2538" transform="translate(0 112)" width="100%" height="100%"/><use x="0" y="0" xlink:href="#path2344" id="use2540" transform="translate(112 112)" width="100%" height="100%"/><circle style="fill:#373737;fill-opacity:1;stroke:#373737;stroke-width:2;stroke-linejoin:round;stroke-miterlimit:4;stroke-dasharray:none;stroke-opacity:1" id="use2542" cx="146" cy="198" r="10"/><circle style="fill:#373737;fill-opacity:1;stroke:#373737;stroke-width:2;stroke-linejoin:round;stroke-miterlimit:4;stroke-dasharray:none;stroke-opacity:1" id="use2544" cx="146" cy="172" r="10"/><use x="0" y="0" xlink:href="#use2468" id="use2546" transform="translate(112 112)" width="100%" height="100%"/><use x="0" y="0" xlink:href="#use2466-4" id="use2548" transform="translate(112 112)" width="100%" height="100%"/><use x="0" y="0" xlink:href="#path2344-81" id="use2550" transform="translate(112 112)" width="100%" height="100%"/><use x="0" y="0" xlink:href="#path2344" id="use2552" transform="translate(0 224)" width="100%" height="100%"/><use x="0" y="0" xlink:href="#path2344-81" id="use2554" transform="translate(0 224)" width="100%" height="100%"/><use x="0" y="0" xlink:href="#path2344" id="use2556" transform="translate(112 224)" width="100%" height="100%"/><use x="0" y="0" xlink:href="#path2344-81" id="use2558" transform="translate(112 224)" width="100%" height="100%"/><use x="0" y="0" xlink:href="#path2344" id="use2560" transform="translate(224 112)" width="100%" height="100%"/><circle style="fill:#373737;fill-opacity:1;stroke:#373737;stroke-width:2;stroke-linejoin:round;stroke-miterlimit:4;stroke-dasharray:none;stroke-opacity:1" id="use2562" cx="258" cy="198" r="10"/><use x="0" y="0" xlink:href="#use2466" id="use2564" transform="translate(224 112)" width="100%" height="100%"/><use x="0" y="0" xlink:href="#path2344" id="use2566" transform="translate(224 224)" width="100%" height="100%"/><g aria-label="a" id="text2570" style="font-size:32px;line-height:1.25;font-family:kabel;-inkscape-font-specification:kabel;fill:#373737;fill-opacity:1"><path d="M93.281 92.203h-.953q-2.516 0-3.797.89-1.265.876-1.265 2.626 0 1.578.953 2.453.953.875 2.64.875 2.375 0 3.735-1.64 1.36-1.657 1.375-4.563v-.64zm5.578-1.187V101h-2.89v-2.594q-.922 1.563-2.328 2.313-1.391.734-3.391.734-2.672 0-4.266-1.5-1.593-1.516-1.593-4.047 0-2.922 1.953-4.437 1.969-1.516 5.765-1.516h3.86V89.5q-.016-2.094-1.063-3.031-1.047-.953-3.344-.953-1.468 0-2.968.421-1.5.422-2.922 1.235v-2.875q1.594-.61 3.047-.906 1.469-.313 2.844-.313 2.171 0 3.703.64 1.546.641 2.5 1.923.593.78.843 1.937.25 1.14.25 3.438z" style="font-style:normal;font-variant:normal;font-weight:400;font-stretch:normal;font-size:32px;font-family:'DejaVu Sans Mono';-inkscape-font-specification:'DejaVu Sans Mono';fill:#373737;fill-opacity:1" id="path2814"/></g><g aria-label="b" id="text2570-04" style="font-size:32px;line-height:1.25;font-family:kabel;-inkscape-font-specification:kabel;fill:#373737;fill-opacity:1"><path d="M209.578 92.266q0-3.344-1.062-5.047-1.063-1.703-3.141-1.703-2.094 0-3.172 1.718-1.078 1.704-1.078 5.032 0 3.312 1.078 5.03 1.078 1.72 3.172 1.72 2.078 0 3.14-1.704 1.063-1.703 1.063-5.046zm-8.453-6.532q.688-1.28 1.89-1.968 1.22-.688 2.813-.688 3.156 0 4.969 2.438 1.812 2.421 1.812 6.687 0 4.328-1.828 6.797-1.812 2.453-4.984 2.453-1.563 0-2.766-.672-1.187-.687-1.906-1.984V101h-2.875V76.687h2.875z" style="font-style:normal;font-variant:normal;font-weight:400;font-stretch:normal;font-size:32px;font-family:'DejaVu Sans Mono';-inkscape-font-specification:'DejaVu Sans Mono';fill:#373737;fill-opacity:1" id="path2817"/></g><g aria-label="k" id="text2570-4" style="font-size:32px;line-height:1.25;font-family:kabel;-inkscape-font-specification:kabel;fill:#373737;fill-opacity:1"><path d="M85.547 188.688h2.969v14.078l7.547-7.266h3.5l-6.891 6.594L100.64 213h-3.516l-6.469-9.031-2.14 2.015V213h-2.97z" style="font-style:normal;font-variant:normal;font-weight:400;font-stretch:normal;font-size:32px;font-family:'DejaVu Sans Mono';-inkscape-font-specification:'DejaVu Sans Mono';fill:#373737;fill-opacity:1" id="path2823"/></g><g aria-label="l" id="text2570-4-6" style="font-size:32px;line-height:1.25;font-family:kabel;-inkscape-font-specification:kabel;fill:#373737;fill-opacity:1"><path d="M205.188 206.656q0 1.938.703 2.922.718.985 2.109.985h3.36V213h-3.641q-2.578 0-4-1.656-1.406-1.656-1.406-4.688v-15.89h-4.61v-2.25h7.485z" style="font-style:normal;font-variant:normal;font-weight:400;font-stretch:normal;font-size:32px;font-family:'DejaVu Sans Mono';-inkscape-font-specification:'DejaVu Sans Mono';fill:#373737;fill-opacity:1" id="path2820"/></g></g></svg>