<svg xmlns:dc="http://purl.org/dc/elements/1.1/" xmlns:cc="http://creativecommons.org/ns#" xmlns:rdf="http://www.w3.org/1999/02/22-rdf-syntax-ns#" xmlns="http://www.w3.org/2000/svg" xmlns:xlink="http://www.w3.org/1999/xlink" width="256" height="256" viewBox="0 0 256 256" version="1.1" id="svg8"><metadata id="metadata5"><rdf:RDF><cc:Work><dc:format>image/svg+xml</dc:format><dc:type rdf:resource="http://purl.org/dc/dcmitype/StillImage"/><dc:title/><dc:date>2023</dc:date><dc:creator><cc:Agent><dc:title>Timothée Giet</dc:title></cc:Agent></dc:creator><cc:license rdf:resource="http://creativecommons.org/licenses/by-sa/4.0/"/></cc:Work><cc:License rdf:about="http://creativecommons.org/licenses/by-sa/4.0/"><cc:permits rdf:resource="http://creativecommons.org/ns#Reproduction"/><cc:permits rdf:resource="http://creativecommons.org/ns#Distribution"/><cc:requires rdf:resource="http://creativecommons.org/ns#Notice"/><cc:requires rdf:resource="http://creativecommons.org/ns#Attribution"/><cc:permits rdf:resource="http://creativecommons.org/ns#DerivativeWorks"/><cc:requires rdf:resource="http://creativecommons.org/ns#ShareAlike"/></cc:License></rdf:RDF></metadata><g id="layer1"><rect style="fill:#f6f6f6;fill-opacity:1;stroke:#373737;stroke-width:2;stroke-linejoin:round;stroke-miterlimit:4;stroke-dasharray:none;stroke-opacity:1" id="rect1767" width="112" height="112" x="8" y="8"/><use x="0" y="0" xlink:href="#rect1767" id="use1769" transform="translate(112)" width="100%" height="100%"/><use x="0" y="0" xlink:href="#rect1767" id="use1773" transform="translate(0 112)" width="100%" height="100%"/><use x="0" y="0" xlink:href="#rect1767" id="use1775" transform="translate(112 112)" width="100%" height="100%"/><g aria-label="a" id="text1787" style="font-style:normal;font-variant:normal;font-weight:400;font-stretch:normal;font-size:32px;line-height:1.25;font-family:'DejaVu Sans Mono';-inkscape-font-specification:'DejaVu Sans Mono';fill:#373737;fill-opacity:1" transform="translate(-8 -8)"><path d="M113.422 99.75h-.953q-2.516 0-3.797.89-1.266.876-1.266 2.626 0 1.578.953 2.453.953.875 2.641.875 2.375 0 3.734-1.64 1.36-1.657 1.375-4.563v-.641zM119 98.563v9.984h-2.89v-2.594q-.923 1.563-2.329 2.313-1.39.734-3.39.734-2.672 0-4.266-1.5-1.594-1.516-1.594-4.047 0-2.922 1.953-4.437 1.97-1.516 5.766-1.516h3.86v-.453q-.016-2.094-1.063-3.031-1.047-.953-3.344-.953-1.469 0-2.969.421-1.5.422-2.922 1.235v-2.875q1.594-.61 3.047-.906 1.47-.313 2.844-.313 2.172 0 3.703.64 1.547.641 2.5 1.923.594.78.844 1.937.25 1.14.25 3.438z" id="path1893" style="fill:#373737;fill-opacity:1"/></g><g aria-label="i" id="text1787-1" style="font-style:normal;font-variant:normal;font-weight:400;font-stretch:normal;font-size:32px;line-height:1.25;font-family:'DejaVu Sans Mono';-inkscape-font-specification:'DejaVu Sans Mono';fill:#373737;fill-opacity:1" transform="translate(-8 -8)"><path d="M217.938 91.5h7.359v15.266H231V109h-14.281v-2.234h5.703V93.734h-4.484zm4.484-6.813h2.875v3.641h-2.875z" id="path1896" style="fill:#373737;fill-opacity:1"/></g><g aria-label="an" id="text1787-9" style="font-style:normal;font-variant:normal;font-weight:400;font-stretch:normal;font-size:32px;line-height:1.25;font-family:'DejaVu Sans Mono';-inkscape-font-specification:'DejaVu Sans Mono';fill:#373737;fill-opacity:1" transform="translate(-8 -8)"><path d="M94.281 211.75h-.953q-2.516 0-3.797.89-1.265.876-1.265 2.626 0 1.578.953 2.453.953.875 2.64.875 2.375 0 3.735-1.64 1.36-1.657 1.375-4.563v-.641zm5.578-1.188v9.985h-2.89v-2.594q-.922 1.563-2.328 2.313-1.391.734-3.391.734-2.672 0-4.266-1.5-1.593-1.516-1.593-4.047 0-2.922 1.953-4.437 1.969-1.516 5.765-1.516h3.86v-.453q-.016-2.094-1.063-3.031-1.047-.953-3.344-.953-1.468 0-2.968.421-1.5.422-2.922 1.235v-2.875q1.594-.61 3.047-.906 1.469-.313 2.844-.313 2.171 0 3.703.64 1.546.641 2.5 1.923.593.78.843 1.937.25 1.14.25 3.438z" id="path1899" style="fill:#373737;fill-opacity:1"/><path d="M119 209.703v10.844h-2.89v-10.844q0-2.36-.829-3.469-.828-1.109-2.594-1.109-2.015 0-3.109 1.438-1.078 1.421-1.078 4.093v9.89h-2.875v-17.5h2.875v2.626q.766-1.5 2.078-2.266 1.313-.781 3.11-.781 2.671 0 3.984 1.766 1.328 1.75 1.328 5.312z" id="path1901" style="fill:#373737;fill-opacity:1"/></g><g aria-label="in" id="text1787-9-9" style="font-style:normal;font-variant:normal;font-weight:400;font-stretch:normal;font-size:32px;line-height:1.25;font-family:'DejaVu Sans Mono';-inkscape-font-specification:'DejaVu Sans Mono';fill:#373737;fill-opacity:1" transform="translate(-8 -8)"><path d="M199.313 203.5h7.359v15.266h5.703V221h-14.281v-2.234h5.703v-13.032h-4.484zm4.484-6.813h2.875v3.641h-2.875z" id="path1904" style="fill:#373737;fill-opacity:1"/><path d="M231 210.156V221h-2.89v-10.844q0-2.36-.829-3.469-.828-1.109-2.594-1.109-2.015 0-3.109 1.438-1.078 1.422-1.078 4.093V221h-2.875v-17.5h2.875v2.625q.766-1.5 2.078-2.266 1.313-.78 3.11-.78 2.671 0 3.984 1.765 1.328 1.75 1.328 5.312z" id="path1906" style="fill:#373737;fill-opacity:1"/></g><circle style="fill:#373737;fill-opacity:1;stroke:#373737;stroke-width:2;stroke-linejoin:round;stroke-miterlimit:4;stroke-dasharray:none;stroke-opacity:1" id="path1931" cx="28" cy="28" r="4"/><circle style="fill:none;fill-opacity:1;stroke:#373737;stroke-width:2;stroke-linejoin:round;stroke-miterlimit:4;stroke-dasharray:none;stroke-opacity:1" id="use1941" cx="28" cy="88" r="4"/><use x="0" y="0" xlink:href="#use1941" id="use1975" transform="translate(12)" width="100%" height="100%"/><use x="0" y="0" xlink:href="#use1941" id="use1977" transform="translate(0 -12)" width="100%" height="100%"/><use x="0" y="0" xlink:href="#use1975" id="use1979" transform="translate(0 -12)" width="100%" height="100%"/><use x="0" y="0" xlink:href="#use1941" id="use1981" transform="translate(0 -24)" width="100%" height="100%"/><use x="0" y="0" xlink:href="#use1975" id="use1983" transform="translate(0 -24)" width="100%" height="100%"/><use x="0" y="0" xlink:href="#use1941" id="use1985" transform="translate(0 -36)" width="100%" height="100%"/><use x="0" y="0" xlink:href="#use1975" id="use1987" transform="translate(0 -36)" width="100%" height="100%"/><use x="0" y="0" xlink:href="#use1941" id="use1989" transform="translate(0 -48)" width="100%" height="100%"/><use x="0" y="0" xlink:href="#use1975" id="use1991" transform="translate(0 -48)" width="100%" height="100%"/><use x="0" y="0" xlink:href="#path1931" id="use1993" transform="translate(12)" width="100%" height="100%"/><circle style="fill:#373737;fill-opacity:1;stroke:#373737;stroke-width:2;stroke-linejoin:round;stroke-miterlimit:4;stroke-dasharray:none;stroke-opacity:1" id="path1931-7" cx="140" cy="28" r="4"/><circle style="fill:none;fill-opacity:1;stroke:#373737;stroke-width:2;stroke-linejoin:round;stroke-miterlimit:4;stroke-dasharray:none;stroke-opacity:1" id="use1941-1" cx="140" cy="88" r="4"/><use x="0" y="0" xlink:href="#use1941-1" id="use1975-1" transform="translate(12)" width="100%" height="100%"/><use x="0" y="0" xlink:href="#use1941-1" id="use1977-5" transform="translate(0 -12)" width="100%" height="100%"/><use x="0" y="0" xlink:href="#use1975-1" id="use1979-9" transform="translate(0 -12)" width="100%" height="100%"/><use x="0" y="0" xlink:href="#use1941-1" id="use1981-7" transform="translate(0 -24)" width="100%" height="100%"/><use x="0" y="0" xlink:href="#use1975-1" id="use1983-7" transform="translate(0 -24)" width="100%" height="100%"/><use x="0" y="0" xlink:href="#use1941-1" id="use1985-6" transform="translate(0 -36)" width="100%" height="100%"/><use x="0" y="0" xlink:href="#use1975-1" id="use1987-7" transform="translate(0 -36)" width="100%" height="100%"/><use x="0" y="0" xlink:href="#use1941-1" id="use1989-3" transform="translate(0 -48)" width="100%" height="100%"/><circle style="fill:#373737;fill-opacity:1;stroke:#373737;stroke-width:2;stroke-linejoin:round;stroke-miterlimit:4;stroke-dasharray:none;stroke-opacity:1" id="use1991-6" cx="152" cy="40" r="4"/><use x="0" y="0" xlink:href="#path1931-7" id="use1993-5" transform="translate(12)" width="100%" height="100%"/><circle style="fill:#373737;fill-opacity:1;stroke:#373737;stroke-width:2;stroke-linejoin:round;stroke-miterlimit:4;stroke-dasharray:none;stroke-opacity:1" id="path1931-6" cx="28" cy="140" r="4"/><circle style="fill:none;fill-opacity:1;stroke:#373737;stroke-width:2;stroke-linejoin:round;stroke-miterlimit:4;stroke-dasharray:none;stroke-opacity:1" id="use1941-3" cx="28" cy="200" r="4"/><use x="0" y="0" xlink:href="#use1941-3" id="use1975-9" transform="translate(12)" width="100%" height="100%"/><use x="0" y="0" xlink:href="#use1941-3" id="use1977-4" transform="translate(0 -12)" width="100%" height="100%"/><use x="0" y="0" xlink:href="#use1975-9" id="use1979-8" transform="translate(0 -12)" width="100%" height="100%"/><use x="0" y="0" xlink:href="#use1941-3" id="use1981-1" transform="translate(0 -24)" width="100%" height="100%"/><use x="0" y="0" xlink:href="#use1975-9" id="use1983-2" transform="translate(0 -24)" width="100%" height="100%"/><use x="0" y="0" xlink:href="#use1941-3" id="use1985-9" transform="translate(0 -36)" width="100%" height="100%"/><use x="0" y="0" xlink:href="#use1975-9" id="use1987-3" transform="translate(0 -36)" width="100%" height="100%"/><circle style="fill:#373737;fill-opacity:1;stroke:#373737;stroke-width:2;stroke-linejoin:round;stroke-miterlimit:4;stroke-dasharray:none;stroke-opacity:1" id="use1989-9" cx="28" cy="152" r="4"/><use x="0" y="0" xlink:href="#use1975-9" id="use1991-0" transform="translate(0 -48)" width="100%" height="100%"/><use x="0" y="0" xlink:href="#path1931-6" id="use1993-8" transform="translate(12)" width="100%" height="100%"/><circle style="fill:#373737;fill-opacity:1;stroke:#373737;stroke-width:2;stroke-linejoin:round;stroke-miterlimit:4;stroke-dasharray:none;stroke-opacity:1" id="path1931-7-8" cx="140" cy="140" r="4"/><circle style="fill:none;fill-opacity:1;stroke:#373737;stroke-width:2;stroke-linejoin:round;stroke-miterlimit:4;stroke-dasharray:none;stroke-opacity:1" id="use1941-1-5" cx="140" cy="200" r="4"/><use x="0" y="0" xlink:href="#use1941-1-5" id="use1975-1-0" transform="translate(12)" width="100%" height="100%"/><use x="0" y="0" xlink:href="#use1941-1-5" id="use1977-5-9" transform="translate(0 -12)" width="100%" height="100%"/><use x="0" y="0" xlink:href="#use1975-1-0" id="use1979-9-6" transform="translate(0 -12)" width="100%" height="100%"/><use x="0" y="0" xlink:href="#use1941-1-5" id="use1981-7-3" transform="translate(0 -24)" width="100%" height="100%"/><use x="0" y="0" xlink:href="#use1975-1-0" id="use1983-7-8" transform="translate(0 -24)" width="100%" height="100%"/><use x="0" y="0" xlink:href="#use1941-1-5" id="use1985-6-5" transform="translate(0 -36)" width="100%" height="100%"/><use x="0" y="0" xlink:href="#use1975-1-0" id="use1987-7-6" transform="translate(0 -36)" width="100%" height="100%"/><circle style="fill:#373737;fill-opacity:1;stroke:#373737;stroke-width:2;stroke-linejoin:round;stroke-miterlimit:4;stroke-dasharray:none;stroke-opacity:1" id="use1989-3-1" cx="140" cy="152" r="4"/><circle style="fill:#373737;fill-opacity:1;stroke:#373737;stroke-width:2;stroke-linejoin:round;stroke-miterlimit:4;stroke-dasharray:none;stroke-opacity:1" id="use1991-6-1" cx="152" cy="152" r="4"/><use x="0" y="0" xlink:href="#path1931-7-8" id="use1993-5-5" transform="translate(12)" width="100%" height="100%"/><use x="0" y="0" xlink:href="#rect1767" id="use2211" transform="translate(224)" width="100%" height="100%"/><use x="0" y="0" xlink:href="#rect1767" id="use2213" transform="translate(0 224)" width="100%" height="100%"/><use x="0" y="0" xlink:href="#rect1767" id="use2215" transform="translate(224 112)" width="100%" height="100%"/><use x="0" y="0" xlink:href="#rect1767" id="use2217" transform="translate(112 224)" width="100%" height="100%"/><use x="0" y="0" xlink:href="#rect1767" id="use2219" transform="translate(224 224)" width="100%" height="100%"/><use x="0" y="0" xlink:href="#path1931" id="use2221" transform="translate(224)" width="100%" height="100%"/><use x="0" y="0" xlink:href="#use1941" id="use2223" transform="translate(224)" width="100%" height="100%"/><use x="0" y="0" xlink:href="#use1977" id="use2225" transform="translate(224)" width="100%" height="100%"/><use x="0" y="0" xlink:href="#use1981" id="use2227" transform="translate(224)" width="100%" height="100%"/><use x="0" y="0" xlink:href="#use1985" id="use2229" transform="translate(224)" width="100%" height="100%"/><use x="0" y="0" xlink:href="#use1989" id="use2231" transform="translate(224)" width="100%" height="100%"/><use x="0" y="0" xlink:href="#path1931-6" id="use2233" transform="translate(224)" width="100%" height="100%"/><use x="0" y="0" xlink:href="#use1941-3" id="use2235" transform="translate(224)" width="100%" height="100%"/><use x="0" y="0" xlink:href="#use1977-4" id="use2237" transform="translate(224)" width="100%" height="100%"/><use x="0" y="0" xlink:href="#use1981-1" id="use2239" transform="translate(224)" width="100%" height="100%"/><use x="0" y="0" xlink:href="#use1985-9" id="use2241" transform="translate(224)" width="100%" height="100%"/><use x="0" y="0" xlink:href="#use1989-9" id="use2243" transform="translate(224)" width="100%" height="100%"/><use x="0" y="0" xlink:href="#path1931" id="use2245" transform="translate(0 224)" width="100%" height="100%"/><use x="0" y="0" xlink:href="#use1993" id="use2247" transform="translate(0 224)" width="100%" height="100%"/><use x="0" y="0" xlink:href="#use2245" id="use2249" transform="translate(112)" width="100%" height="100%"/><use x="0" y="0" xlink:href="#use2247" id="use2251" transform="translate(112)" width="100%" height="100%"/><use x="0" y="0" xlink:href="#use2245" id="use2253" transform="translate(224)" width="100%" height="100%"/></g></svg>