<svg xmlns:dc="http://purl.org/dc/elements/1.1/" xmlns:cc="http://creativecommons.org/ns#" xmlns:rdf="http://www.w3.org/1999/02/22-rdf-syntax-ns#" xmlns="http://www.w3.org/2000/svg" width="256" height="256" viewBox="0 0 256 256" version="1.1" id="svg8"><rect style="fill:#535353;fill-opacity:1;stroke:none;stroke-width:6.35093;stroke-linejoin:round;stroke-miterlimit:4;stroke-dasharray:none;stroke-opacity:1" id="rect1114-6" width="4.3288641" height="28.966602" x="125.8356" y="14.092553"/><path id="path1148-3" style="fill:#535353;fill-opacity:1;stroke:none;stroke-width:.978815px;stroke-linecap:butt;stroke-linejoin:miter;stroke-opacity:1" d="m126.379 32.534-6.934 4.395-.071 6.812-.89.791.098 3.874 2.241 2.993s-2.718 91.003-6.385 102.3c-2.514.47-4.208 1.589-4.208 1.589l.979 7.207 1.78-.076s-8.058 26.844-9.66 29.247c-2.499.112-4.826.054-4.826.054l.178 10.03.459.762-16.02 29.446-3.958.514.333 9.403 27.625.125.277-9.696-3.318-.149s4.823-16.39 23.92-16.39 23.92 16.39 23.92 16.39l-3.316.15.277 9.695 27.625-.125.333-9.403-3.96-.514-16.02-29.446.459-.761.178-10.031s-2.325.058-4.824-.054c-1.602-2.403-9.662-29.247-9.662-29.247l1.78.076.98-7.207s-1.695-1.118-4.209-1.589c-3.667-11.297-6.383-102.3-6.383-102.3l2.24-2.993.096-3.874-.889-.791-.069-6.812-6.936-4.395m1.701 138.694s2.686 12.922 4.958 20.48l-8.278-.226-8.278.226c2.272-7.558 4.956-20.48 4.956-20.48l3.322-.094z"/><metadata id="metadata5"><rdf:RDF><cc:Work><dc:format>image/svg+xml</dc:format><dc:type rdf:resource="http://purl.org/dc/dcmitype/StillImage"/><dc:title/><dc:date>2023</dc:date><dc:creator><cc:Agent><dc:title>Timothée Giet</dc:title></cc:Agent></dc:creator><cc:license rdf:resource="http://creativecommons.org/licenses/by-sa/4.0/"/></cc:Work><cc:License rdf:about="http://creativecommons.org/licenses/by-sa/4.0/"><cc:permits rdf:resource="http://creativecommons.org/ns#Reproduction"/><cc:permits rdf:resource="http://creativecommons.org/ns#Distribution"/><cc:requires rdf:resource="http://creativecommons.org/ns#Notice"/><cc:requires rdf:resource="http://creativecommons.org/ns#Attribution"/><cc:permits rdf:resource="http://creativecommons.org/ns#DerivativeWorks"/><cc:requires rdf:resource="http://creativecommons.org/ns#ShareAlike"/></cc:License></rdf:RDF></metadata><rect style="fill:#6f6c67;fill-opacity:1;stroke:none;stroke-width:6.35094;stroke-linejoin:round;stroke-miterlimit:4;stroke-dasharray:none;stroke-opacity:1" id="rect1114" width="1.7073326" height="27.059155" x="127.14636" y="16.000002"/><path id="path1148" style="fill:#6f6c67;fill-opacity:1;stroke:none;stroke-width:.978815px;stroke-linecap:butt;stroke-linejoin:miter;stroke-opacity:1" d="m126.379 34.534-4.934 4.395-.071 4.812-.89.791.098 3.874 2.241 2.993s-2.718 91.003-6.385 102.3c-2.514.47-4.208 1.589-4.208 1.589l.979 5.207 1.78-.076s-8.058 30.844-9.66 33.247c-2.499.112-4.826.054-4.826.054l.178 8.03.459.762-16.02 31.446-3.958.514.333 5.403 23.625.125.277-5.696-3.318-.149s3.947-19.452 25.92-20.39c21.973.938 25.92 20.39 25.92 20.39l-3.316.15.277 5.695 23.625-.125.333-5.403-3.96-.514-16.02-31.446.459-.761.178-8.031s-2.325.058-4.824-.054c-1.602-2.403-9.662-33.247-9.662-33.247l1.78.076.98-5.207s-1.695-1.118-4.209-1.589c-3.667-11.297-6.383-102.3-6.383-102.3l2.24-2.993.096-3.874-.889-.791-.069-4.812-4.936-4.395m3.701 134.694s2.686 16.922 4.958 24.48L128 193.482l-10.278.226c2.272-7.558 4.956-24.48 4.956-24.48l5.322-.094z"/></svg>