<svg xmlns:dc="http://purl.org/dc/elements/1.1/" xmlns:cc="http://creativecommons.org/ns#" xmlns:rdf="http://www.w3.org/1999/02/22-rdf-syntax-ns#" xmlns="http://www.w3.org/2000/svg" width="256" height="256" viewBox="0 0 256 256" version="1.1" id="svg8"><metadata id="metadata5"><rdf:RDF><cc:Work><dc:format>image/svg+xml</dc:format><dc:type rdf:resource="http://purl.org/dc/dcmitype/StillImage"/><dc:title/><dc:date>2023</dc:date><dc:creator><cc:Agent><dc:title>Timothée Giet</dc:title></cc:Agent></dc:creator><cc:license rdf:resource="http://creativecommons.org/licenses/by-sa/4.0/"/></cc:Work><cc:License rdf:about="http://creativecommons.org/licenses/by-sa/4.0/"><cc:permits rdf:resource="http://creativecommons.org/ns#Reproduction"/><cc:permits rdf:resource="http://creativecommons.org/ns#Distribution"/><cc:requires rdf:resource="http://creativecommons.org/ns#Notice"/><cc:requires rdf:resource="http://creativecommons.org/ns#Attribution"/><cc:permits rdf:resource="http://creativecommons.org/ns#DerivativeWorks"/><cc:requires rdf:resource="http://creativecommons.org/ns#ShareAlike"/></cc:License></rdf:RDF></metadata><g id="layer1"><ellipse ry="112" rx="111.75332" cy="128" cx="128" style="color:#000;fill:#4664bf;fill-opacity:1;stroke:none;stroke-width:3.18274;stroke-miterlimit:4;stroke-dasharray:none;stroke-opacity:1" id="ellipse8"/><ellipse ry="108.79091" rx="108.55129" cy="128" cx="128" style="color:#000;fill:#49b1ff;fill-opacity:1;stroke:none;stroke-width:3.18274;stroke-miterlimit:4;stroke-dasharray:none;stroke-opacity:1" id="ellipse10"/><path style="fill:#a9e848;fill-opacity:1;stroke:none;stroke-width:1.56189;stroke-miterlimit:4;stroke-dasharray:none;stroke-opacity:1" d="M113.038 19.541c-12.49 1.7-24.724 5.564-35.8 11.604 4.972 4.52 2.585 9.64-1.203 11.306.538 6.569 10.016 15.834 11.092 4.128 4.256-7.025 11.913-11.22 19.59-14.367.808-5.31.417-9.25 6.426-11.347zm40.679 2.069c-5.78 3.883-7.353 13.641-12.518 15.554-.688 5.296-.274 6.572 3.316 4.707 4.246 1.175 7.792 8.622 10.14.312.736-3.87-2.473-14.055 5.265-12.769-3.816 6.677 1.384 6.76 5.722 5.83-2.107 3.846-4.678 1.91-4.166 7.13-3.29-.442-1.308 6.786-6.811 5.678-4.223 2.457-8.972-.146-12.292 4.86-1.983 4.074-5.738 8.648-10.312 10.28 6.668 1.563-5.092 1.936 2.515 4.762 5.528 8.154-9.857 2.358-8.148 9.605-2.524 12.731 14.16 8.96 12.705-1.254 2.432-2.896 4.128-6.301 7.639-6.715.54-4.723 9.389 3.272 12.202 5.21-5.28 4.433-.19 5.512.752-.44 5.544-3.24-9.202-4.964-7.136-9.91 8.243 1.2 10.512 8.53 15.583 12.67 3.545-3.58-3.797-6.903 3.927-8.491-.917 9.85 9.6 5.964 14.854 6.492 3.183 10.758-8.874 12.528-16.464 11.095-4.902-4.194-2.731 9.326-10.663 2.48-6.543 1.368-7.043-5.048-7.925-8.314-5.248 2.508-10.932 5.904-16.846 6.888-4.37-.048-4.252 3.756-7.814 7.037-.044 7.957-7.559 13.65-7.759 22.079 2.833 7.536-2.082 17.473 6.665 21.89 2.896 6.315 10.65 9.73 15.86 4.953 4.194-2.043 10.038-7.435 13.898-1.814 5.3-2.445 6.846 5.834 5.532 9.834 5.773 5.03 9.42 12.594 9.551 20.147-4.026 7.397 2.285 13.326 5.179 19.765 1.25 6.884 6.13 13.893 10.344 18.307 6.47-2.384 10.54-7.94 13.816-14.163 2.212-7.024 4.825-11.222 3.007-17.81 7.85-8.336 5.618-18.2 1.324-27.742 2.846-10.458 10.208-19.172 12.117-29.91 3.052-11.045-12.995 6.517-13.495-5.526-7.788-6.547-11.83-15.834-17.27-24.211-.645-4.883 9.37 4.812 10.746 9.707 6.174 2.511 6.938 18.664 14.481 12.25 5.023-4.608 17.633-15.315 10.694-20.955-3.383-5.08-3.39-5.229-6.445-.315-5.633 6.413-13.622-16.884-4.943-7.276 6.305.777 11.48 4.084 18.117 2.42-12.903-31.752-41.59-56.412-74.944-64.324zM61.029 41.68c-5.73 2.581-3.183 7.75-7.553 11.254 4.049 3.266 10.01 3.145 7.804-2.221 5.325 2.291-3.22-5.815 2.645-3.648.872-2.167-1.213-4.309-2.896-5.385zM48.95 57.298c-4.825 3.686-4.545 7.623-4.319 12.858-5.426.233-4.828 13.616-8.708 5.484.987-9.198-7.83 6.369-8.514 10.2a108.5 108.5 0 0 0-8.25 37.758c1.83-6.254 10.44-.685 9.39 4.392 6.404 2.33-3.788-12.46 4.083-14.603 6.512-4.462 5.99-15.315 13.368-17.918.223-5.338 11.509-15.227 6.859-5.137 1.706-2.46 13.374-10.456 3.787-6.312-4.749.287 3.635-7.234-4.316-2.823-6.422-.643 7.986-6.68 11.127-6.28 4.166-2.052 5.287-8.99 1.2-7.644-3.94-2.7-1.19-13.387-7.32-5.506-3.543 2.247-1.738-7.403-8.387-4.469zm-29.29 81.605c-.427 7.77 4.086 5.819 0 0zm4.57 9.281c-6.525 1.137.025 14.304 6.088 14.208 3.342-.207-8.297-6.047-4.169-11.143-.541-1.416.605-3.443-1.92-3.065zm21.716 3.139c-.389 7.657-1.477 5.292-3.858.458-4.892 3.969-5.815 10.353-4.653 16.038-1.614 5.496-4.004 11.375-2.753 16.117 5.748 7.81 10.684 18.696 20.15 22.018 4.698 8.056 14.408 14.186 23.527 18.896 6.715 6.366 10.659 1.585 10.045-5.452.346-5.76-.242-10.172 6.648-12.202 5.837-6.62.175-17.41 3.3-25.061 3.575-4.752 2.381-10.44-3.277-11.245-5.051-2.766-10.093.98-14.52-2.699-.433-1.973-8.966 4.058-4.32-2.132-.722-8.396-10.566-6.675-15.645-11.102-3.957-5.61-9.351.354-14.641-3.634zm175.299 8.657c-.872 6.884-9.79 8.23-5.121 16.375-5.366 5.936 5.41 13.752 4.844 3.32.41-6.404 3.826-13.572.277-19.699z" id="path12"/><path style="color:#000;font-style:normal;font-variant:normal;font-weight:400;font-stretch:normal;font-size:medium;line-height:normal;font-family:sans-serif;text-indent:0;text-align:start;text-decoration:none;text-decoration-line:none;text-decoration-style:solid;text-decoration-color:#000;letter-spacing:normal;word-spacing:normal;text-transform:none;writing-mode:lr-tb;direction:ltr;baseline-shift:baseline;text-anchor:start;white-space:normal;clip-rule:nonzero;display:inline;overflow:visible;visibility:visible;isolation:auto;mix-blend-mode:normal;color-interpolation:sRGB;color-interpolation-filters:linearRGB;solid-color:#000;solid-opacity:1;fill:#598711;fill-opacity:1;fill-rule:nonzero;stroke:none;stroke-width:1.59137;stroke-linecap:butt;stroke-linejoin:miter;stroke-miterlimit:4;stroke-dasharray:none;stroke-dashoffset:0;stroke-opacity:1;color-rendering:auto;image-rendering:auto;shape-rendering:auto;text-rendering:auto;enable-background:accumulate" d="M112.163 18.586c-.032-.318-.163.08.025.338-12.61 1.639-24.11 5.404-35.328 11.521-.264-.175-1.08.233-.984.538.287-.14.796.436.828.751 2.215 2.416 3.141 4.128 2.444 5.961-.363 1.455-1.451 3.38-3.43 4.03-.32.019-.478.538-.523.223.312.05-.165.802.048.566.188 3.336 2.55 7.55 5.7 9.523 1.436 1.248 3.438 1.257 4.507.43 1.114-.713 2.613-2.706 3.164-5.914.063-.312-.395.191-.112.337 3.855-6.588 11.156-10.137 18.915-13.545-.267.172.128-.3.417-.175-.054-.312-.19-.624.07-.44a72.726 72.726 0 0 1 1.509-7.205c.404-1.582 1.13-3.234 3.991-3.912-.2.248.264-.159.58-.197.018-.319-.465-1.868-.157-1.942-.146.287-.506.363-.678.63-.102.3.236-1.113.02-1.349.089-.306-.822-.426-1.006-.169-.118.296-.054.315 0 0m-.083 1.983c-2.441 1.407-4.112 2.925-4.841 4.472-1.095 1.922-1.098 4.456-1.238 6.642-7.642 3.47-15.5 7.171-19.555 14.485-.07.312-.29-.096-.095.16.315.053.299.14-.02.177-.184 2.499-1.1 3.851-1.747 4.625-.955.668-1.432.063-2.769-.43-2.365-1.158-4.15-5.102-4.857-7.963 2.11-1.082 3.495-2.374 3.743-4.701.723-2.2-.133-4.605-2.27-6.544 10.148-5.646 21.726-8.95 33.649-10.923.318.013.19-.254 0 0m40.84.032c-.18-.261-.18.455 0 .716-2.911 1.805-4.598 5.707-6.39 8.422-1.703 2.845-3.727 5.91-5.605 6.683.296-.114-.56-.133-.455.17.12-.297-.242.731-.064.47-.197 1.655-.089 2.69-.277 3.332.27.732-.054 1.916.446 2.232.573.356.894.78 1.903.833.818-.292 1.114-.095 1.977-.728 1.995.722 3.262 2.52 5.452 3.545.461-.044 1.021.172 1.528.557.655.373.89.16 1.66-.35 1.064-.961 1.825-1.623 2.324-4.08-.159-.277.124-.338.013-.038.032.318-.267-.191.006-.032.169-1.448-.185-2.524.057-3.998.039-1.776.124-3.186-.044-4.401.398-1.51.748-2.292 1.063-3.062.573-.156 1.683-.37 2.25-.462-.127 1.086-.688 1.964-.961 2.877.006.853.369 2.247 1.54 2.594 1.432.892 2.667.529 4.462.099-.509.223-1.034 1.537-1.715 1.687-.182.461-1.286.97-1.229 1.684.042.381-.4 1.25-.13 2.38-.541.029-.754.156-.662.112-.118.162-.557.33-.949.977-.773.75-.369 1.677-.964 2.368-.461 1.028-.334 1.543-1.07 1.763-.133.318-1.228.302-2.269.318-.27.169-.601-.13-.292-.057.311-.064-.02.356-.261.15-1.636.916-4.259.922-6.19 1.374-2.528.306-4.88.962-6.36 3.737-.14-.286-.099.353-.032.041-.032-.318-.159.34-.025.051-1.834 4.236-5.901 8.237-9.867 9.88-.14-.287-2.4 1.196-2.543.913-.016.318 2.38.417 2.632.614.605-.181.513.471.949.293-.325.264.063-.16-.248.137-.16-.115-.59.671-.933.633-.471.541-.697.449-.528 1.324-.182.732.165.977.99 1.299.61.032.932.86 1.884.894.452 1.165.623 1.748.96 1.996.392.534.329.627-.152.795-.643.45-1.728.997-2.998.971-1.474-.083-2.858.207-4.424 1.133-.688.675-1.133.595-1.591 1.627-.325 1.06-.669 1.521-.13 2.667-.173-.268-.271-.513-.007-.334-.64 3.657.232 5.77 1.318 7.304 1.709 1.423 3.202 2.034 5.544 1.607 4.252-.57 8.768-4.37 7.976-9.796 1.076-1.133 1.862-2.661 2.642-3.966 1.42-1.165 2.355-2.015 3.829-1.878.245.204.308-.089.627-.073.203-.245.06-.614-.032-.92.372-.445.493-.582.26-.671.405-.109.43.388.796.111.401.2 1.894.703 2.986 1.241 2.355 1.13 4.328 3.374 6.235 4.577-.56.996-1.464 1.378-1.84 2.301-.436.595-.013.63-.108 1.28.458.385.56.477 1.044.84.554.01 1.41-.707 2.158-1.206.296-.879.72-2.037 1.305-3.38.795-.153 1.4-.818 1.282-1.302-.063-.538-.27-1.184-.397-1.84-.459-.923-1.751-1.572-3.438-2.291-1.655-.876-3.125-1.487-3.692-2.308-.61-.127-.442-.904-.872-1.149.207-.312-.019.073.013-.35 3.676.684 5.783 2.133 7.69 4.676 1.909 2.263 4.146 5.837 6.696 7.72.318.02.328.243.557.46.003.318.55-.201.506-.516 1.063-.72 1.512-2.158 1.254-3.438-.296-1.25-.293-2.135-.659-2.536.01-.914-.14-.669.025-1.299.49-.35 1.12-.283 2.232-.92.318 1.7.531 3.54 1.12 4.577 1.168 1.547 2.62 2.419 4.424 2.298 2.982.045 6.82-.576 9.045-.23.52 1.866.751 3.38-.105 4.918-.986 1.601-1.664 2.597-3.638 3.269-3.638 1.458-8.326 1.356-11.785.913-.764-.636-1.305-.977-1.617-.82-.977-.1-1.178.512-1.703.604-1.028 1.037-1.534 2.027-1.74 2.864-.8.834-1.252 1.391-1.627 1.754-.529-.16-1.448-.277-3.613-1.741.233.216-.43-.544-.299-.255-.318-.022-.614-.14-.382.08-1.228.455-2.333.382-3.377-.204-1.12-.35-1.667-.853-1.858-1.827-1.165-1.871-1.286-3.672-1.767-5.713.118.296-.468-.687-.248-.923-.3-.108-.541.38-.86.414-5.073 2.76-11.25 5.866-16.632 6.824-.255-.194-.163-.102.143-.013-2.483.284-4.138 1.022-4.876 2.607-1.264 1.235-1.601 2.883-3.492 4.644.312.054-.509.038-.254.229.022.318-.178.083 0 .35-.303 3.58-1.75 7.32-3.724 10.484-1.887 3.157-3.915 7.447-4.036 11.575-.293.128-.229-.07-.006.156.287.134.13.459.058.15 1.228 3.82.7 8.084 1.063 11.878-.207 2.021.693 3.89 1.298 5.856.614 1.935 2.05 3.527 3.899 4.892 1.649 2.998 5.121 5.252 7.944 6.366 3.485 1.2 7.445 1.75 10-.653.306 1.124-.111.248-.095-.07 2.47-1.27 4.414-3.482 6.407-4.246 1.31-.143 1.505-.837 2.769-.674.859-.096 2.568.789 3.128 2.043-.318.022.59.315.382.554.252-.191.707-.583.605-.28 1.477-.506 2.276-.478 2.657-.287.87.143.59 1.525 1.118 2.26 1.009 2.285 1.333 4.8.468 6.693.114-.296-.424.688-.163.503-.028.318.34.662.398.35 5.34 5.06 8.644 12.286 8.453 19.555-2.129 3.985-.954 7.906.764 11.257 1.197 3.45 5.554 8.635 5.608 8.82-.016.318.02-.494-.054-.185 1.095 6.907 4.952 13.858 9.494 18.154-.315-.054 1.719 1.035 1.413.943-.175-.268.182-.115.494-.182 6.537-2.244 11-7.868 14.386-14.469-.315.042.032-.07.032-.07-.032.319-.032.07.019-.066 1.021-3.782 2.282-6.124 3.24-9.176 1.005-2.718 1.002-5.34-.064-8.393 3.638-4.466 5.557-9.198 5.442-14.281-.165-5.07-1.623-9.246-3.43-14.09 2.514-10.223 9.815-18.027 11.734-29.275.7-1.39.137-3.055-.286-3.66-.303-.675-.003-.844-.65-1.089-.534-.025-.585-.678-1.113-.426-1.22-.108-3.428.98-5.036 1.496-2.04.983-3.507 1.598-4.917 1.2-.305.05-.726-.14-1.362-.815-.064-.64-.815-1.677-.7-2.82-.242-.21-.338-.331-.02-.35.31-.067-.509-.433-.267-.223-7.457-6.047-11.445-15.163-17.008-23.851.318-.236-.048-.096-.026-.344.16-.105-.134-.309.204.114.487-.076 1.54 1.041 3.116 2.25 2.683 2.623 4.933 5.952 5.605 8.355-.191-.254.038.681.108.373-.312.06.344-.169.36.15 1.39.219 2.421 1.304 3.227 3.246.986 1.387 1.687 4.13 2.8 5.662.678 1.696 1.614 2.947 3.011 4.045 1.019.223 1.75 1.451 2.785.945.863-.518 2.948-1.39 3.778-1.982.172-.271-.153-.287.006-.013-.277-.16.312.099.013-.013 2.778-2.425 7.047-5.834 9.933-10.2 1.732-2.25 2.639-4.447 2.973-6.21.576-1.897-.041-4.033-2.244-5.745.306.092.207-.14.156.175-.722-1.563-1.696-2.005-2.046-2.94-.787-.478-1.296-1.506-1.91-1.312-.637.185-.51.248-1.114.321.006.175-.446.783-.837.822-.204.69-.936 1.826-1.814 2.718-.382.9-1.035 1.177-1.566.859-.634-.293-1.33-.446-1.693-.742-1.496-1.158-2.292-3.192-3.23-4.742-.135-1.108-.103-1.789-.542-2.556-.366-.43.134-.369-.127-.636.35-.09.318.226.264-.013.516-.095 1.241.707 1.973 1.852-.296.112.497.341.2.223.21.242.265-.283.294.032 2.788.567 5.57 1.566 8.838 2.209 3.269.827 5.824 1.257 9.618.299.198-.248.675-.847.84-.573-.025.318-.356-1.168-.343-.85-12.807-32.25-41.764-57.117-75.501-64.8-.137-.287-.716-.055-.977-.236-.274.16-.318-.013 0 0m1.031 1.941c32.184 7.782 60.084 31.666 73.346 62.586-2.52.137-5.041.652-7.632-.255a629.069 629.069 0 0 0-8.759-2.084c-.68-.965-1.792-2.133-2.524-2.168-.102-.328-.48-.382-1.225-.239-.115.086-.532.541-1 .755-.238.986-.41 1.136-.13 2.291.458.961.462 1.518.888 2.836 1.082 1.786 2.12 3.772 3.705 5.366 1.079.497 1.378 1.165 2.673 1.092 1.127-.277 2.292-.532 2.792-1.404 0-.318.311-.222.04-.05.32.019.103-.367.04-.055 1.037-1.066 1.629-2.014 1.76-2.654.241-.583.617-.21.496-.503.041.239.375.115.105-.057-.319-.054.308-.191.776.725.335.319 1.407 1.687 1.967 2.823.16.277-.117.36.067.1-.255-.189.41.114.096.082 1.616 1.566 1.992 2.919 1.677 4.265.063 1.652-1.308 3.269-2.68 5.506-2.524 3.746-7.32 7.355-9.717 9.965-.305-.092-.12.306-.013.013-.544.716-1.91 1.057-2.167 1.225-.748.401-.783.252-1.5-.2-.96-.182-1.667-1.655-2.848-3.594-.77-1.46-2.132-3.946-2.937-5.633-1.324-1.63-2.114-3.339-3.861-3.864-.907-2.46-3.89-6.384-6.216-8.695-1.225-1.55-2.438-2.499-3.689-2.594-.741.07-1.56-.357-1.782.204-.236.604-.643.846-.477 1.884.213-.236.22.426.022.175.038-.318-.21.226.102.156 5.067 8.386 9.408 17.164 17.244 24.17.181 1.06.595 2.708.888 3.3.318 1.009 1.82 1.372 2.438 1.483 1.693.541 4.185-.461 5.741-1.305 1.655-.522 3.734-1.13 4.297-1.384-.063-.217.328.347.248.073.029.344-.207.21.118.236.287.598-.251 1.107-.312 2.517.006-.318.204.267-.012.032.136.286.311.022-.006.038-2.18 10.465-9.113 19.466-12.095 29.845-.283.15.239.321-.076.273-.264-.175.08.576.111.261 2.33 4.478 3.845 9.778 3.826 14.017.22 4.828-1.528 8.848-4.997 12.849.283-.14-.63.36-.315.324-.112-.299.36.643.12.437 1.118 3.357.628 5.977.007 8.329-.987 2.68-1.61 5.232-2.967 8.924-3.39 6.162-6.989 11.372-12.912 13.44-3.956-4.659-8.88-10.89-9.74-17.377-.317-.022-.327-.184-.018-.102.044-.318-.363-.086-.045-.086-1.381-3.04-3.714-6.12-5.178-9.526-1.089-3.214-1.598-6.012-.026-9.535.077-.309.013.12.099-.185-.115-.299-.277-.36 0-.207.095-7.46-3.66-15.55-9.621-20.455.343-1.973.512-5.3-.274-7.298-.401-1.55-1.206-2.654-2.308-2.96-.974-.843-1.84-.337-3.399.02-.668-1.22-2.307-2.398-3.32-2.426-1.088-.13-3.033-.172-4.057.436-2.324 1.028-4.85 2.852-7.149 3.82-.15.28-.35-.15-.102.047-.226.223-.245-.2-.086.073-2.113 2.349-5.073 2.744-7.995 1.525-2.762-.653-5.477-3.473-6.607-6.216.312.063-.045.054-.111-.255.29-.134-.535.013-.249-.127-1.804-.837-3.367-2.623-3.978-3.858a14.539 14.539 0 0 1-1.14-5.248c.093-3.673.217-8.425-1.113-12.053-.249.197.273.162 0-.006-.144-3.772 1.63-7.301 3.844-10.847 2.165-3.453 3.476-7.04 3.848-10.904 1.684-1.986 2.636-3.759 3.524-4.65.633-1.439 1.906-2.046 3.555-1.932-.121.293.165.303.07 0-.319-.032-.2.16.066-.013 5.618-.722 10.93-4.134 16.232-6.553.497 1.245.783 3.154 1.636 5.172.446.732 1.716 1.99 2.56 2.483 1.123.19 2.545.254 4.067.29 1.9 1.183 3.128 2.068 4.663 1.934 1.467-.633 2.412-1.438 2.66-2.555.455-1.353 1.251-2.324 1.417-2.451-.054-.382.076.054.445-.185.506-.012.818-.031 1.108.627.318-.031-.15.08.162.144.315-.051-.063.206.204.038 4.07.455 8.765.42 12.75-1.035 1.703-1.104 3.32-2.409 4.42-4.02.583-1.833.784-4.045.21-7.05-.26-.177-.053-.21-.155-.508.111-.3-.716.197-.529-.058-2.874-.608-7.065.43-9.739.249-1.68-.405-2.457-.806-3.412-1.385-.967-.592-1.527-2.2-.996-4.488.06.312.255-.795.099-1.072.318-.042-1.146.522-1.05.22-1.802.171-3.419.71-3.842 1.782-.344.827-.812 1.763-.293 2.718.541.897.268 1.709.599 2.218.311.223-.481 1.012-.446 1.12-1.999-2.218-3.612-4.544-5.79-6.54-1.973-2.508-5.404-5.006-9.462-5.49.287.146-.299-.163-.608-.086.144.286-.127.27-.242.566-.022.685-.49 1.328-.07 2.301-.025.554.675.955 1.293 1.776 1.387 1.197 2.711 1.26 4.086 2.308 1.68.681 2.333 1.146 2.734 1.273.093-.08.427.5.58.84-.08.392-.109 1.146-.955 1.286a7.575 7.575 0 0 1-.334 1.4c-.074.134-.398-.808-.49-.677-1.306-.717-3.66-4.335-6.255-5.621-1.327-.535-2.33-1.633-3.835-1.677-.764.2-1.012.222-1.76.404-.076.216-.223.923-.659 1.324-1.626.675-3.135 1.528-4.226 2.406-1.49 1.149-2.152 3.208-3.438 4.306-.315.042-.245.592-.229.274-.08.309-.16.598.048.353.945 4.52-3.12 7.67-6.098 8.339-1.942.178-3.457-.07-4.106-1.127-1.194-.814-1.744-2.657-.93-5.92-.19-.251.255-.391.032-.165.239.213.14-.433-.035-.169-.283-1.091.051-1.553.035-1.645.408-.564.128-.58.898-.879 1.098-.741 2.164-.563 3.921-.97 1.757-.408 3.138-.691 3.927-1.47.56-.838.63-1.007.535-2.133-.455-.761-.815-1.884-1.286-2.77-.312-.063-.36-.442-.143-.21-.181-.26.073-.038-.242-.095-1.235-.324-1.527-.955-1.846-.86-.423-.429.096-.177-.229-.168.261-.382.006-.213.576-.382.36-.455.86-.165.86-.484.318-.5.372-.461.77-.986-.179-.096-.16-.36-.268-.872-.308-.49-.057-.379-.592-.43-.235.239-.49.118-.308-.095 4.185-2.42 7.444-6.248 9.274-9.663-.032-.319.096.378-.05.095 1.492-1.989 2.918-2.918 5.248-3.042 1.893-.551 4.137-.191 6.779-1.58.277-.158-.872.144-.557.096 1.824.433 2.915.3 3.58-.643 1.07-.458.933-1.527 1.56-2.45.337-1.165.318-1.432.828-2.091-.115-.424.232-.669.378-.417-.12-.28.557-.058.516-.07-.274-.16 1.117-.163.996.13-.118-.296-.372-.84-.095-.993-.303-1.505.13-1.738.098-2.45.013-.739.643-.56.69-.92.762-.233 2.353-.974 3.286-3.3.057-.313.617-1.287.83-1.522.236-.217-1.903.605-1.696.366-1.792.372-4.625.77-5.379.013-.178-.172-.732-.214-.707-1.226-.232-.464 0-1.957 1.22-3.45-.179-.264.455-.697.563-.996-.179.264-.946-.449-1.124-.185-2.333-.56-3.552-.187-4.688 1.146-.748.844-1.05 2.56-1.496 4.02a26.716 26.716 0 0 0 .035 4.624c.16 1.77-.197 2.84-.032 3.587-.808 1.75-1.174 2.55-1.616 3.126-.452-.077-.328-.16-.621.127-.376.255-.707.13-.945-.369-1.4-1.152-3.336-2.81-5.962-3.787.315.06.013-.115-.302-.08.153-.277.006-.01-.274.143-.68.185-1.2.764-1.852.716-.083.217-.2.344-.37-.098.21-.016-.502-.484-.21-1.382.284-.856-.127-1.941.243-2.877 2.937-1.314 4.398-4.36 5.96-7.012 1.392-3.036 3.683-5.881 6.032-7.97-.318-.037-.318-.018 0 0M61.092 40.78c-.222-.226-.413-.144-.391.175-3.001 1.082-4.16 3.981-4.717 5.773-.955 2.047-1.324 4.122-3.008 5.589-.276.16-.792.3-.773.614.16-.273.624.904.773.624 1.93 1.553 4.95 2.365 6.882 2.292 1.333-.054 2.129-1.044 2.428-1.744-.041-.643-.274-1.72-.172-2.34.255-.27.09.252.56.156.096.277.796.153.812-.254.576-.17.299-.233.417-.783.095-.182-.124-1.15-.261-1.2.025-.105-.3-1.05-.535-1.102-.025-.085-.032-.716-.446-.98.303.029.3.086-.012-.038.525-.045.573-.248 1 .248.305.093.652.583.728.274.06-.312.143-1.006.286-.723.866-1.32-.105-2.558-.566-3.835-.662-.76-1.942-1.696-2.642-2.514-.21-.242-.235-.525-.363-.232.236.213.233-.22 0 0m-.124 1.928c.907.28 1.458.726 1.805 1.697.684.496-.003 1.05.293 1.658.057-.178-.748.064-.742-.16-.531-.171-.815.23-.802.23-.083-.102-.19.255-.51.713-.451.503.18.64.157 1.302-.073.623.143.509.515 1.142.214.627.261.917.414.86.07-.255-.487-.204-.51-.163.294-.127-2.074-.636-1.788-.773-.293.124.653 1.496.742 1.804.414 1.528.165 2.028.29 2.451-.383.69-.679.395-1.242.805-1.368.459-3.218-.27-4.863-1.696 1.878-1.645 2.419-3.409 2.778-5.382.255-1.817 1.496-3.558 3.463-4.488.166.27-.26.182 0 0m-8.02 13.667c-.914-.872-2.24-.446-4.32.191-.317.025.201-.092-.085.048.073.308-.382.14-.073.054-2.68 2.212-3.505 3.92-4.348 6.292-.382 1.859-.5 4.131-.27 6.894-.949.169-2.037 1.095-2.992 1.964-.732 1.566-1.213 3.004-1.897 3.905a2.075 2.075 0 0 1-.681 1.39c.111.364-.16.118-.28.354-.198.153.372.095-.22-.248-.095-.567-.484-1.197-1.082-1.814-.115-.739.095-1.465-.08-2.375.198-.414-.022-.827-.659-.881-.41.108-.477-.112-1.1-.09-.411-.022-1.194.952-1.611 1.226-.532.254-.758 1.222-1.623 2.126-1.33 1.426-2.085 3.418-3.174 5.576-1.11 2.142-1.862 3.762-1.83 4.71a110.145 110.145 0 0 0-8.259 37.872c.315.041.783 1.614.5 1.76.71-1.448 2.46-3.164 2.985-3.176.513-.035 1.439.671 2.56.929 1.699.987 3.586 2.438 3.36 4.742.051-.312-.461.71-.143.681.286-.136.681.545.646.23.86.642 1.976.4 2.336.085.525-.076.76-1.374.964-1.775.185-1.656-.286-3.326-.75-4.838-.65-1.652-.567-3.438-.462-5.185.334-1.75 1.063-1.846 2.68-2.616-.163-.274-.147.12.13-.038.07-.31.398.063.112-.074 3.326-2.664 5.035-6.314 6.932-9.79 1.81-3.81 2.76-7.12 6.149-7.988-.303.101.222-.319.509-.182-.191-.254-.293-.54.025-.534.217-.796.844-3.132 1.585-4.36 1.232-1.637 1.942-2.983 3.282-3.709.404-.146.958-1.06 1.33-.875.013.286-.245.06.105-.032.274.118.226.252-.073.459.204.566-.815.598-.143 2.718.277-.16 0 0 1.025.038 0 0 .967-.987 2.033-1.713.866-1.1 2.668-1.858 3.489-3.045.426-.77.923-.541 1.203-1.235.334-.45.168-.34.369-.611l.08-.484c.063-.388-.045-.37-.236-.7-.503-.233-.7-.255-1.009-.191-.395.047-.706.34-.85.175-.312.07-1.273.273-2.568.983-.092-.127.127.137-.35.127-.319 0-.414.08-.471-.4-.306-.367.48-1.232.732-1.592.455-.321.582-.675.302-1.057.302-.343.223-.213-.137-.728-.01-.557-.165-.51-.754-.535-.293.095-.624.016-1.534.293-.207.203-.987.398-2.088 1.037-.191.255-.436-.388-.487-.111.668-.277 1.276-1.426 2.922-1.872 1.731-.483 3.173-1.273 5.067-1.982 1.445-.265 2.874-.647 3.638-.691-.007-.318-.083.057.235.025-.274-.159.261.21.216-.105 2.693-1.193 3.94-3.303 4.128-5.68.074-.742.398-2.003-.54-2.84-.523-1.066-2.101-.964-2.992-.592-.214-.232.407.213.703.099-.757-.828-.97-1.375-1.633-2.686-.649-1.337-.783-2.753-.89-3.59a2.715 2.715 0 0 1-.634-1.468c.006-.458-.618-.945-1.515-.741-.385-.16-1.108.073-1.713.9-.668.185-1.11.876-1.861 2.085-.23-.146-.78.274-.52.197.192-.21-.14.287-.254-.203.038-.376-.697-1.55-1.063-2.17-.398-1.249-.764-2.175-2.075-2.563-.191.258.302.102 0 0m-.77 1.394c.827.51.805 1.248 1.403 1.84.16.614.385 1.632 1.264 2.492-.022.404.407.668 1.273.783.869.07 1.416-.144 1.642-.446-.165.27.067.239.118-.076-.318.003-.048-.392.086-.105.493-.774 1.034-1.592 1.808-2.028.264-.15 1.056-.63.815-.515.29.207-.306.102.07.082-.16.328.426.777.391.974.58.898.723 2.088.9 3.629.488 1.645 1.147 2.393 2.257 3.526-.159-.274.634.153.322.223-.169-.267.267.178.375-.12.716.015 1.098.18 1.26.085.484.127.605.665.201 1.585-.27 1.235-1.788 3.61-3.259 4.507-1.044-.354-2.406-.108-3.851.668-1.582.812-3.969 1.213-5.3 2.078-1.673.478-3.115 1.805-3.672 2.458-.223-.083-.373.811-.373.843.24.197.064.76.471 1.034.522.194 1.089.914 1.866.7-.277-.159 0 0 .248.026.22-.118.461-.321.22-.118-.468.096 1.518-1.082 2.18-1.095.308.147-.223.287.082.112-.56.659-.563.977-.684 2.177-.006.776.42.881.758 1.286.566.127.378.168 1.056.292 0 0 .023-.028.354.074.127-.054.076-.074.572-.067.691-.115 1.12-.443 1.286-.446-.82 1.152-1.897 1.744-3.326 2.9-.175-.191-.468.044-.328.324.226-1.024.331-1.661-.324-1.884-.373-.566-.952-.484-.968-.382 0-.016-.744-.203-.885.198-.467.534-.818.604-1.74 1.117-1.2.684-2.375 2.19-3.59 4.055-.688 1.594-1.296 3.08-1.773 4.424-3.489 1.744-5.38 5.203-7.123 8.43-1.55 3.31-2.865 7.034-6.08 9.326-.079.306-.07-.041.242-.115-2.05.87-3.303 2.626-3.637 4.16-.191 1.544.318 3.673.474 5.752.153 1.635.675 3.278.725 4.41-.152.128-.146.777-.127.475.118.3-.19-.312-.7-.118-.15-2.893-1.353-4.99-3.842-6.454-1.543-.564-2.555-.732-3.978-.685-.802.2-.764 1.175-1.101 1.2a100.645 100.645 0 0 1 7.902-35.214c.013.319.204-.35.039-.08-.128-.292.302.039.012-.088.09-1.073.487-2.54 1.687-4.29 1.21-1.86 1.783-3.603 3.075-5.389.802-.942.767-1.636 1.477-1.951.372-.678.805-.598.678-.58.34.14.4.971.019 1.783-.28-.146.26.366-.026.226.086-.305.41.277.102.207.808.974 1.229 1.887 1.384 2.292.14.55 1.111.566 1.722.754.79.153.72-.713 1.312-1.057.604-.375.585-1.337.802-1.623.203-1.146 1.314-2.4 1.766-3.657.503-1.305 1.35-1.39 2.473-1.741-.067.312.487.032.796-.035-.191-.255-.274-1.009-.035-.796-.178-2.314-.02-4.599.248-6.788.777-1.9 1.165-3.629 3.698-5.31 1.178-.795 2.442-.302 2.81-.254.306.086.262-.181 0 0m-33.189 78.798c-.309-.085-.321 2.543-.127 2.292.133 1.814.391 3.342.445 4.414.265.182.704.853.694 1.156.032.452.541.563 1.343.299.739-.404.408-.802.77-1.05.227-.118-.006-1.156-.012-1.369.092-.872-.955-2.552-1.795-3.867.264-.175-1.15-1.604-1.318-1.878-.312-.057-.267-.172 0 0m4.956 11.048c-1.608.226-2.53.993-2.597 2.89-.507 1.817-.573 4.007.48 5.582.71 1.515 1.872 3.803 3.527 4.876 1.502 1.64 3.144 2.578 4.971 2.228.255.19.14.293.02-.003.254-.191-.01.318.018 0 .592-.013.554-.127.516-.34.58-.246.71-.81.56-.882.045-1.003-.452-1.251-.624-1.337-.51-.446-2.215-1.617-2.858-2.584-1.101-1.315-1.21-2.423-1.684-3.2-.095-1.202-.827-1.804.28-3.086.128-.296-.009-.459.293-.363.28.15-.095-.121-.168-.43-.471-.47-.411-.993-.242-1.967-.382-.414.019-.885-.786-1.295-.8-.2-.643-.188-1.687-.09-.182-.26.299-.088-.007 0-.102-.298-.073.313-.01 0 .21.24.068.313 0 0m.405 1.363c.662-.36.681-.315.742.006-.236-.197-.28-.134.047.188.144.716-.42 1.457.265 2.355-.774 1.591-.752 2.603-.63 3.86.843 1.446 1.253 2.636 2.577 3.81.618 1.083 1.318 1.019 1.83 1.885-.71-.5-1.91-.16-2.759-1.293-1.123-1.435-2.654-2.552-3.15-4.363-.637-1.318-.81-3.107-.918-4.408.344-.879.417-1.592 1.996-2.037-.213-.239-.318.025 0 0m19.217 1.55c-.031-.318 1.414 1.451 1.535 1.158-.408 1.62-.106 2.486-.36 3.387.181-.268-.23-.045-.414-.64-.127-.62-1.082-1.509-1.534-3.001-.248.197-.134-.812-.44-.898.316.048-.512.815-.77.63-4.86 3.9-6.244 10.44-4.936 16.487-1.311 5.563-5.388 11.852-3.736 17.085-.147.286.019-.169.038.15.27.165 0 0 .092.117 5.764 7.34 10.223 19.02 20.042 22.33 4.959 7.913 15.563 13.333 24.908 18.228.197-.248-.318-.42-.188-.13 1.483 1.47 3.724 2.768 4.937 3.31 1.607.684 2.76-.163 3.953-.65 1.973-1.273 2.578-4.876 2.498-8.759-.086-.305-.06.43 0 .118a27.89 27.89 0 0 1 .821-7.279c.84-1.591 1.897-3.549 5.261-4.21-.264.178.204.25.217-.067-.284.146.108.146.15-.17 3.459-3.526 2.857-8.115 2.864-12.724-.478-4.258-1.057-8.755.579-12.562.318.01.048-.102-.099.181 1.802-2.23 2.28-5.426 1.958-7.79-.942-2.324-2.941-4.075-6.299-4.501-2.365-1.343-4.847-.662-7.508-.64-2.142.283-4.115-.563-6.08-1.91-.021-.413.217-.19-.19-.296.057-.315-.353-.54-.71-.28-.77-.114-.65-.213-1.305.124-.951-.095-1.582.573-2.6.621-.153.366-.382.328-.36.083.452-.179.194-.525.58-1.496-.17-.268-.096-.09.184-.239-.296-.111-.175-.589-.032-.305.096-2.384-1.871-5.147-1.871-5.147-1.416-1.47-3.208-1.655-4.93-2.568-3.288-.892-6.101-2.006-8.715-3.915-.286-.134.503 1.232.627.939-1.247-1.26-2.272-2.706-3.863-2.887-1.442-.627-2.801-.029-4.198-.172-2.61.026-4.956.105-6.907-1.426-.095-.302.287-.12.013-.286.165-.27-.618.232-.837 0-.245-.2-2.215.277-2.375 0 .24.213-.022.318 0 0m3.056 1.858c2.317 1.083 5.067.866 7.231.933 1.534-.248 2.651-.127 3.32.038.818.529 2.011.5 2.76 2.06.308-.08.161-.223.056.08-.257.184.242.333.074.063 2.648 2.705 6.683 2.76 9.704 4.207 1.817.404 3.157 1.06 3.873 2.206 1.175 1.136 1.537 2.489 1.719 3.978-.58.312-.891.828-1.012 1.547-.538.382-.755 1.07-.185 1.56-.137.12.16.7.659.592.19.4.675-.144.665.082.48.284.548.055 1.232-.26.923.05 1.49-.63 2.511-.803.05.137.213-.254.595-.076-.146.283.322.073.006.038-.286.14-.028-.032.213.175 2.387 2.336 4.924 2.27 7.575 1.878 2.356.162 4.552-.124 7.07.907-.166.27.04.376.127.067.031.318.092-.296.14.02 2.734.091 3.723 1.524 4.446 3.564.703 1.597-.325 4.3-1.693 6.42-.118.295.264.076-.054.079-.045.318-.363.111-.045.095-1.375 4.001-1.225 9.033-.69 13.272.604 4.453.515 8.486-2.451 11.5-3.616 1.171-5.341 3.084-5.946 5.022a28.575 28.575 0 0 0-.923 7.721c-.025-.318-.216-.171 0 .064-.2.245-.312.045.006.054a8.202 8.202 0 0 1-1.95 7.044c-.535.782-1.637.967-2.617.391-1.229-.589-2.234-.97-4.138-2.629.252.191-.095-.391-.082-.073.305-.09.216-.067-.1-.057-9.385-4.622-18.446-11.025-23.204-18.588.073.31.152-.369-.144-.254-.226.223-.397-.398-.28-.102-8.67-3.03-14.357-12.801-20.07-21.013-1.404-4.446 1.684-10.91 3.173-16.146.27.17-.216-.022.057-.187-.003.318.27-.249-.044-.191-1.082-4.8.15-10.806 3.787-14.313.541.42.576 1.674.949 1.865.35.115.64.503.678 1.05-.09.255.75.637.853.716.238.395.604-.187.732.032.27.242.697-.44.585-.398.583-.36.35-.356.49-1.12-.101-.5.24-2.196.344-3.106.162-.274.318-.016 0 0m174.122 5.152c.12.293-.185 2.636-.296 2.337-.605 3.354-2.33 5.01-4.475 7.32-.796.862-1.735 2.753-1.935 4.017-.214 1.804-.064 3.31 1.298 5.197-1.388 1.649-2.358 3.88-1.827 5.166-.028 1.674 1.353 2.584 2.77 3.22 1.03 1.118 2.463.923 3.889.23 1.05-.599 1.903-2.925 1.585-5.395.318 0 .486.073.496.391-.064-2.896 1.14-6.543 1.617-10.293.375-3.131.095-6.588-1.942-10.153-.171-.264-1.082-1.734-1.177-2.037-.096-.305.29.125 0 0m.382 4.68c.503 2.323 1.098 5.098.668 7.393-.43 2.963-1.33 6.384-1.63 10.013.067.311.096-.255-.005.044.232.217-.3.134.006.048.451 2.444-.268 3.383-.958 4.042-.783.216-1.296.617-2.006-.255-.697-.869-1.569-1.301-1.731-2.8-.519-1.114.267-2.28 1.232-3.82.133.287.146-.213.385-.423-.191-.255-.121-.777-.287-.503-1.346-2.145-1.098-3.157-1.193-4.52-.121-1.317.54-1.966 1.61-3.252 1.012-1.49 2.928-3.234 3.912-5.968.255.191-.16.277 0 0" id="path14"/></g></svg>