<!--Created with Sodipodi ("http://www.sodipodi.com/")--><svg xmlns:dc="http://purl.org/dc/elements/1.1/" xmlns:cc="http://creativecommons.org/ns#" xmlns:rdf="http://www.w3.org/1999/02/22-rdf-syntax-ns#" xmlns="http://www.w3.org/2000/svg" xmlns:sodipodi="http://sodipodi.sourceforge.net/DTD/sodipodi-0.dtd" xmlns:inkscape="http://www.inkscape.org/namespaces/inkscape" sodipodi:version="0.32" width="191.28000pt" height="170.89000pt" xml:space="preserve" sodipodi:docname="strawberry.svg" inkscape:version="0.91 r13725"><metadata><rdf:RDF><cc:Work><dc:format>image/svg+xml</dc:format><dc:type rdf:resource="http://purl.org/dc/dcmitype/StillImage"/></cc:Work></rdf:RDF></metadata><sodipodi:namedview inkscape:zoom="3.0179724" inkscape:cx="16.084791" inkscape:cy="124.96522" inkscape:window-width="1880" inkscape:window-height="1060" inkscape:window-x="-3" inkscape:window-y="-3" inkscape:current-layer="g799" showgrid="false" inkscape:window-maximized="1"/><path style="font-size:12px;fill:#af1818;fill-opacity:1;fill-rule:evenodd;stroke-width:1" d="M477.65 696.267c7.777 45.347-43.995 90.6-83.484 96.374-37.89 5.54-103.869-22.494-111.645-67.84-7.776-45.347 40.056-65.773 91.29-60.425 44.86-22.252 96.064-13.455 103.84 31.891z" sodipodi:nodetypes="ccccc" inkscape:connector-curvature="0" transform="matrix(1 0 0 1.22504 -265.079 -768.375)"/><path style="font-size:12px;fill:#eb2828;fill-opacity:1;fill-rule:evenodd;stroke-width:1" d="M469.77 698.426c7.148 41.685-40.443 83.283-76.743 88.591-34.83 5.093-95.481-20.678-102.63-62.362-7.148-41.685 36.822-60.461 83.918-55.546 41.238-20.454 88.307-12.368 95.455 29.317z" sodipodi:nodetypes="ccccc" inkscape:connector-curvature="0" transform="matrix(1 0 0 1.22504 -265.079 -768.375)"/><path style="font-size:12px;fill:#1a7b1a;fill-opacity:1;fill-rule:evenodd" d="M85.345 12.345c-4.221 12.57 13.726 24.908 16.166 37.253-10.489-.41-17.43.384-31.627-6.617.395 9.351 9.71 13.678 15.558 17.09-5.174 3.697-8.36 8.055-13.535 11.751 13.04 1.61 24.65-6.843 34.66-3.749 10.336-2.219 22.384 2.497 29.69 9.928.28-4.747-1.099-11.152-.82-15.899l27.706-15.219c-15.398-9.014-23.554 4.106-31.776 2.037l-11.013-15.977c-2.41 5.05-4.818 9.63-7.875 12.944-5.432-4.501-13.284-6.129-11.71-30.48-4.57 4.948-6.612.154-15.424-3.062z" inkscape:connector-curvature="0" sodipodi:nodetypes="cccccccccccccc"/><g style="fill:#ec7f7f;fill-opacity:1"><path sodipodi:nodetypes="ccccc" d="M329.312 735.201c.519 2.541 1.054 5.522-.453 7.962-1.85-1.243-3.983-3.334-5.125-6.141-.894-3.218-.04-4.794 1.736-5.277 1.776-.483 2.93.453 3.841 3.456z" style="font-size:12px;fill:#ec7f7f;fill-opacity:1;fill-rule:evenodd;stroke-width:1" transform="matrix(1 0 0 1.22504 -265.079 -768.375)"/><path sodipodi:nodetypes="ccccc" d="M404.338 770.055c.726 2.49 1.504 5.417.203 7.973-1.945-1.087-4.243-2.996-5.612-5.7-1.155-3.133-.434-4.774 1.297-5.402 1.73-.627 2.957.21 4.112 3.13z" style="font-size:12px;fill:#ec7f7f;fill-opacity:1;fill-rule:evenodd;stroke-width:1" transform="matrix(1 0 0 1.22504 -265.079 -768.375)"/><path sodipodi:nodetypes="ccccc" d="M382.438 744.14c.047 2.593.03 5.621-1.898 7.745-1.59-1.559-3.307-4.005-3.918-6.973-.292-3.327.836-4.72 2.67-4.872 1.835-.15 2.799.98 3.146 4.1z" style="font-size:12px;fill:#ec7f7f;fill-opacity:1;fill-rule:evenodd;stroke-width:1" transform="matrix(1 0 0 1.22504 -265.079 -768.375)"/><path sodipodi:nodetypes="ccccc" d="M381.709 770.583c.236 2.582.44 5.604-1.326 7.863-1.7-1.438-3.592-3.751-4.418-6.667-.535-3.296.487-4.769 2.306-5.054 1.818-.285 2.862.772 3.438 3.858z" style="font-size:12px;fill:#ec7f7f;fill-opacity:1;fill-rule:evenodd;stroke-width:1" transform="matrix(1 0 0 1.22504 -265.079 -768.375)"/><path sodipodi:nodetypes="ccccc" d="M353.966 741.125c.034 2.593.001 5.621-1.937 7.736-1.583-1.567-3.287-4.021-3.883-6.993-.276-3.328.858-4.716 2.693-4.858 1.836-.142 2.794.994 3.127 4.115z" style="font-size:12px;fill:#ec7f7f;fill-opacity:1;fill-rule:evenodd;stroke-width:1" transform="matrix(1 0 0 1.22504 -265.079 -768.375)"/><path sodipodi:nodetypes="ccccc" d="M356.632 765.403c.54 2.537 1.097 5.513-.392 7.965-1.858-1.229-4.008-3.304-5.171-6.102-.918-3.21-.077-4.793 1.696-5.29 1.772-.497 2.933.43 3.867 3.427z" style="font-size:12px;fill:#ec7f7f;fill-opacity:1;fill-rule:evenodd;stroke-width:1" transform="matrix(1 0 0 1.22504 -265.079 -768.375)"/><path sodipodi:nodetypes="ccccc" d="M323.448 713.064c-.809 2.465-1.821 5.32-4.34 6.691-.99-1.995-1.806-4.87-1.407-7.874.818-3.237 2.341-4.183 4.123-3.722 1.782.46 2.321 1.845 1.624 4.905z" style="font-size:12px;fill:#ec7f7f;fill-opacity:1;fill-rule:evenodd;stroke-width:1" transform="matrix(1 0 0 1.22504 -265.079 -768.375)"/><path sodipodi:nodetypes="ccccc" d="M348.101 717.352c-.346 2.57-.822 5.56-3.048 7.368-1.337-1.782-2.663-4.459-2.818-7.486.216-3.332 1.541-4.54 3.377-4.41 1.836.128 2.618 1.391 2.49 4.528z" style="font-size:12px;fill:#ec7f7f;fill-opacity:1;fill-rule:evenodd;stroke-width:1" transform="matrix(1 0 0 1.22504 -265.079 -768.375)"/><path sodipodi:nodetypes="ccccc" d="M328.104 753.897c1.16 2.32 2.448 5.06 1.623 7.808-2.107-.722-4.71-2.19-6.54-4.607-1.695-2.876-1.278-4.62.313-5.546 1.59-.926 2.947-.32 4.604 2.345z" style="font-size:12px;fill:#ec7f7f;fill-opacity:1;fill-rule:evenodd;stroke-width:1" transform="matrix(1 0 0 1.22504 -265.079 -768.375)"/><path sodipodi:nodetypes="ccccc" d="M308.086 730.864c.566 2.53 1.157 5.501-.305 7.969-1.872-1.208-4.044-3.26-5.238-6.045-.954-3.2-.13-4.792 1.637-5.308 1.767-.517 2.939.398 3.906 3.384z" style="font-size:12px;fill:#ec7f7f;fill-opacity:1;fill-rule:evenodd;stroke-width:1" transform="matrix(1 0 0 1.22504 -265.079 -768.375)"/><path sodipodi:nodetypes="ccccc" d="M302.223 706.16c-1.033 2.38-2.305 5.128-4.94 6.262-.8-2.08-1.348-5.016-.673-7.971 1.114-3.148 2.718-3.949 4.45-3.325 1.732.623 2.14 2.052 1.163 5.035z" style="font-size:12px;fill:#ec7f7f;fill-opacity:1;fill-rule:evenodd;stroke-width:1" transform="matrix(1 0 0 1.22504 -265.079 -768.375)"/><path sodipodi:nodetypes="ccccc" d="M312.416 690.623c-2.09 1.535-4.574 3.268-7.42 2.92.354-2.2 1.362-5.013 3.434-7.225 2.548-2.157 4.337-2.04 5.519-.63 1.182 1.412.814 2.851-1.533 4.935z" style="font-size:12px;fill:#ec7f7f;fill-opacity:1;fill-rule:evenodd;stroke-width:1" transform="matrix(1 0 0 1.22504 -265.079 -768.375)"/><path sodipodi:nodetypes="ccccc" d="M408.783 739.64c.532 2.538 1.082 5.516-.413 7.964-1.856-1.234-4-3.315-5.156-6.117-.91-3.212-.063-4.793 1.71-5.285 1.774-.492 2.933.438 3.859 3.438z" style="font-size:12px;fill:#ec7f7f;fill-opacity:1;fill-rule:evenodd;stroke-width:1" transform="matrix(1 0 0 1.22504 -265.079 -768.375)"/><path sodipodi:nodetypes="ccccc" d="M456.844 691.791c.925 2.424 1.937 5.278.845 7.93-2.026-.926-4.47-2.644-6.053-5.229-1.404-3.03-.817-4.723.857-5.488 1.674-.765 2.965-.029 4.351 2.787z" style="font-size:12px;fill:#ec7f7f;fill-opacity:1;fill-rule:evenodd;stroke-width:1" transform="matrix(1 0 0 1.22504 -265.079 -768.375)"/><path sodipodi:nodetypes="ccccc" d="M426.545 726.906c.747 2.484 1.55 5.404.268 7.97-1.953-1.07-4.267-2.96-5.658-5.654-1.18-3.123-.473-4.77 1.253-5.411 1.725-.642 2.959.186 4.137 3.095z" style="font-size:12px;fill:#ec7f7f;fill-opacity:1;fill-rule:evenodd;stroke-width:1" transform="matrix(1 0 0 1.22504 -265.079 -768.375)"/><path sodipodi:nodetypes="ccccc" d="M441.12 707.027c.265 2.58.502 5.6-1.24 7.878-1.716-1.42-3.632-3.712-4.491-6.619-.57-3.29.435-4.773 2.25-5.078 1.815-.305 2.871.74 3.48 3.82z" style="font-size:12px;fill:#ec7f7f;fill-opacity:1;fill-rule:evenodd;stroke-width:1" transform="matrix(1 0 0 1.22504 -265.079 -768.375)"/><path sodipodi:nodetypes="ccccc" d="M427.946 756.234c.103 2.592.152 5.62-1.73 7.785-1.624-1.524-3.393-3.931-4.068-6.886-.364-3.32.733-4.737 2.563-4.928 1.83-.191 2.82.918 3.235 4.03z" style="font-size:12px;fill:#ec7f7f;fill-opacity:1;fill-rule:evenodd;stroke-width:1" transform="matrix(1 0 0 1.22504 -265.079 -768.375)"/><path sodipodi:nodetypes="ccccc" d="M457.42 720.076c-.42 2.56-.98 5.536-3.258 7.28-1.285-1.82-2.534-4.535-2.602-7.565.31-3.324 1.67-4.493 3.501-4.312 1.832.18 2.577 1.466 2.36 4.597z" style="font-size:12px;fill:#ec7f7f;fill-opacity:1;fill-rule:evenodd;stroke-width:1" transform="matrix(1 0 0 1.22504 -265.079 -768.375)"/><path sodipodi:nodetypes="ccccc" d="M444.386 738.084c-.127 2.59-.348 5.611-2.413 7.6-1.483-1.661-3.031-4.217-3.442-7.22-.067-3.339 1.15-4.654 2.991-4.681 1.84-.028 2.727 1.165 2.864 4.301z" style="font-size:12px;fill:#ec7f7f;fill-opacity:1;fill-rule:evenodd;stroke-width:1" transform="matrix(1 0 0 1.22504 -265.079 -768.375)"/></g><path inkscape:connector-curvature="0" style="font-size:12px;fill:#22a022;fill-opacity:1;fill-rule:evenodd" d="M354.165 640.956c-.472 10.07 13.767 18.947 16.207 29.025-10.489-.335-16.961 1.494-31.159-4.221 2.32 6.847 14.596 7.255 18.621 10.784-5.174 3.017-8.349 3.366-13.523 6.383 13.04 1.314 16.862-5.283 26.871-2.757 10.336-1.811 19.923.093 27.229 6.159.279-3.876-.614-5.647-.336-9.522l23.101-10.32c-9.434-4.113-17.68 4.084-25.902 2.395l-9.842-12.085c-2.409 4.121-4.818 8.051-7.875 10.757-5.432-3.674-14.454-5.577-12.88-25.456-4.57 4.04-1.7 1.484-10.512-1.142z" sodipodi:nodetypes="cccccccccccccc" transform="matrix(1 0 0 1.22504 -265.079 -768.375)"/></svg>