<svg xmlns:dc="http://purl.org/dc/elements/1.1/" xmlns:cc="http://creativecommons.org/ns#" xmlns:rdf="http://www.w3.org/1999/02/22-rdf-syntax-ns#" xmlns="http://www.w3.org/2000/svg" width="1200" height="520"><metadata><rdf:RDF><cc:Work><dc:format>image/svg+xml</dc:format><dc:type rdf:resource="http://purl.org/dc/dcmitype/StillImage"/><dc:title/><dc:date>2021</dc:date><dc:creator><cc:Agent><dc:title>Timothée Giet</dc:title></cc:Agent></dc:creator><cc:license rdf:resource="http://creativecommons.org/licenses/by-sa/4.0/"/></cc:Work><cc:License rdf:about="http://creativecommons.org/licenses/by-sa/4.0/"><cc:permits rdf:resource="http://creativecommons.org/ns#Reproduction"/><cc:permits rdf:resource="http://creativecommons.org/ns#Distribution"/><cc:requires rdf:resource="http://creativecommons.org/ns#Notice"/><cc:requires rdf:resource="http://creativecommons.org/ns#Attribution"/><cc:permits rdf:resource="http://creativecommons.org/ns#DerivativeWorks"/><cc:requires rdf:resource="http://creativecommons.org/ns#ShareAlike"/></cc:License></rdf:RDF></metadata><g style="display:inline;stroke-width:.5;stroke-miterlimit:4;stroke-dasharray:none" transform="translate(800)"><rect style="fill:#8b5835;fill-opacity:1;stroke-width:.5;stroke-miterlimit:4;stroke-dasharray:none" width="1200" height="520" x="-800.00049" y="-1.9999999e-05"/><path style="fill:#8b5835;fill-opacity:1;stroke:#8b5835;stroke-width:.5;stroke-linecap:butt;stroke-linejoin:miter;stroke-miterlimit:4;stroke-dasharray:none;stroke-opacity:1" d="m-204.131 75.23-14.142 108.894 168.291-31.112-59.397-101.824z"/><path style="fill:#a26841;fill-opacity:1;stroke:#a26841;stroke-width:.5;stroke-linecap:butt;stroke-linejoin:miter;stroke-miterlimit:4;stroke-dasharray:none;stroke-opacity:1" d="m-109.379 51.188 161.176-13.9-39.231 123.159-62.548-7.435z"/><path style="fill:#99623d;fill-opacity:1;stroke:#935e3a;stroke-width:.5;stroke-linecap:butt;stroke-linejoin:miter;stroke-miterlimit:4;stroke-dasharray:none;stroke-opacity:1" d="m-218.273 184.124-23.335 45.962 86.974 106.066 137.886-77.074-33.234-106.066z"/><path style="fill:#8b5835;fill-opacity:1;stroke:#8b5835;stroke-width:.5;stroke-linecap:butt;stroke-linejoin:miter;stroke-miterlimit:4;stroke-dasharray:none;stroke-opacity:1" d="m-49.982 153.012 62.548 7.435-29.314 98.63z"/><path style="fill:#935e3a;fill-opacity:1;stroke:#935e3a;stroke-width:.5;stroke-linecap:butt;stroke-linejoin:miter;stroke-miterlimit:4;stroke-dasharray:none;stroke-opacity:1" d="m-241.608 230.086-63.64 60.104L-460 243.521l-40.707-95.46z"/><path style="fill:#935e3a;fill-opacity:1;stroke:#935e3a;stroke-width:.5;stroke-linecap:butt;stroke-linejoin:miter;stroke-miterlimit:4;stroke-dasharray:none;stroke-opacity:1" d="M-500.707 148.062-460 56.845-204.13 75.23l-14.142 108.894z"/><path style="fill:#8b5835;fill-opacity:1;stroke:#8b5835;stroke-width:.5;stroke-linecap:butt;stroke-linejoin:miter;stroke-miterlimit:4;stroke-dasharray:none;stroke-opacity:1" d="m-500.707 148.062 282.434 36.062-23.335 45.962z"/><path style="fill:#805130;fill-opacity:1;stroke:#805130;stroke-width:.5;stroke-linecap:butt;stroke-linejoin:miter;stroke-miterlimit:4;stroke-dasharray:none;stroke-opacity:1" d="m-305.247 290.19 30.405 83.439-53.033 98.995-234.246-26.87L-460 243.52z"/><path d="m51.797 37.288 93.383 135.523 181.901 12.287-7.165-125.513z" style="opacity:1;fill:#af7047;fill-opacity:1;stroke:#af7047;stroke-width:.5;stroke-linecap:butt;stroke-linejoin:miter;stroke-miterlimit:4;stroke-dasharray:none;stroke-opacity:1"/><path d="m319.916 59.585 49.237 52.74-7.275 67.245-34.797 5.528z" style="opacity:1;fill:#b77a51;fill-opacity:1;stroke:#b77a51;stroke-width:.5;stroke-linecap:butt;stroke-linejoin:miter;stroke-miterlimit:4;stroke-dasharray:none;stroke-opacity:1"/><path style="fill:#a96c44;fill-opacity:1;stroke:#a96c44;stroke-width:.5;stroke-linecap:butt;stroke-linejoin:miter;stroke-miterlimit:4;stroke-dasharray:none;stroke-opacity:1" d="m51.797 37.288 93.383 135.523-7.113 87.518-125.501-99.882z"/><path style="fill:#8b5835;fill-opacity:1;stroke:#8b5835;stroke-width:.5;stroke-linecap:butt;stroke-linejoin:miter;stroke-miterlimit:4;stroke-dasharray:none;stroke-opacity:1" d="m-305.247 290.19 63.64-60.104 86.973 106.066-120.208 37.477z"/><path d="m-562.121 445.754 234.246 26.87 32.527 56.568-280.915-1.414z" style="opacity:1;fill:#5a3820;fill-opacity:1;stroke:#5a3820;stroke-width:.5;stroke-linecap:butt;stroke-linejoin:miter;stroke-miterlimit:4;stroke-dasharray:none;stroke-opacity:1"/><path style="fill:#935e3a;fill-opacity:1;stroke:#935e3a;stroke-width:.5;stroke-linecap:butt;stroke-linejoin:miter;stroke-miterlimit:4;stroke-dasharray:none;stroke-opacity:1" d="m-327.875 472.624 178.898-19.092-5.657-117.38-120.208 37.477z"/><path style="fill:#8b5835;fill-opacity:1;stroke:#8b5835;stroke-width:.5;stroke-linecap:butt;stroke-linejoin:miter;stroke-miterlimit:4;stroke-dasharray:none;stroke-opacity:1" d="m-154.634 336.152 137.886-77.074 56.569 216.374-188.798-21.92z"/><path style="fill:#a26841;fill-opacity:1;stroke:#a26841;stroke-width:.5;stroke-linecap:butt;stroke-linejoin:miter;stroke-miterlimit:4;stroke-dasharray:none;stroke-opacity:1" d="m12.566 160.447-29.314 98.63 56.569 216.375 98.246-215.123z"/><path d="m138.067 260.329 170.24 55.46 18.774-130.691L145.18 172.81z" style="opacity:1;fill:#b97d54;fill-opacity:1;stroke:#b97d54;stroke-width:.5;stroke-linecap:butt;stroke-linejoin:miter;stroke-miterlimit:4;stroke-dasharray:none;stroke-opacity:1"/><path d="m138.067 260.329 170.24 55.46-25.949 126.43-242.537 33.233z" style="opacity:1;fill:#af7047;fill-opacity:1;stroke:#af7047;stroke-width:.5;stroke-linecap:butt;stroke-linejoin:miter;stroke-miterlimit:4;stroke-dasharray:none;stroke-opacity:1"/><path d="m39.82 475.452 242.538-33.234-25.456 89.096-146.37.707z" style="opacity:1;fill:#5a3820;fill-opacity:1;stroke:#5a3820;stroke-width:.5;stroke-linecap:butt;stroke-linejoin:miter;stroke-miterlimit:4;stroke-dasharray:none;stroke-opacity:1"/><path style="opacity:1;fill:#b77a51;fill-opacity:1;stroke:#b77a51;stroke-width:.5;stroke-linecap:butt;stroke-linejoin:miter;stroke-miterlimit:4;stroke-dasharray:none;stroke-opacity:1" d="m308.308 315.789-25.95 126.43 87.259-28.642-10.855-79.001z"/><path d="m282.358 442.218 155.564 47.376 4.95 38.891-185.97 2.829z" style="opacity:1;fill:#643d24;fill-opacity:1;stroke:#643d24;stroke-width:.5;stroke-linecap:butt;stroke-linejoin:miter;stroke-miterlimit:4;stroke-dasharray:none;stroke-opacity:1"/><path style="fill:#744829;fill-opacity:1;stroke:#744829;stroke-width:.5;stroke-linecap:butt;stroke-linejoin:miter;stroke-miterlimit:4;stroke-dasharray:none;stroke-opacity:1" d="m-500.707 148.062 40.707 95.46-102.121 202.232-92.54-263.974z"/><path style="fill:#805130;fill-opacity:1;stroke:#805130;stroke-width:.5;stroke-linecap:butt;stroke-linejoin:miter;stroke-miterlimit:4;stroke-dasharray:none;stroke-opacity:1" d="M-500.707 148.062-460 56.845l-127.458-30.404-67.203 155.339z"/><path style="fill:#5a3820;fill-opacity:1;stroke:#5a3820;stroke-width:.5;stroke-linecap:butt;stroke-linejoin:miter;stroke-miterlimit:4;stroke-dasharray:none;stroke-opacity:1" d="M-460 56.845-500 0l-132.627-1.102 45.17 27.543z"/><path style="fill:#5a3820;fill-opacity:1;stroke:#5a3820;stroke-width:.5;stroke-linecap:butt;stroke-linejoin:miter;stroke-miterlimit:4;stroke-dasharray:none;stroke-opacity:1" d="m-562.121 445.754-89.998 24.67-97.119-76.017-30.678-104.661 53.983-231.356 138.475-31.95-45.17-27.542L-800 0v520l223.737 7.778z"/><path style="fill:#6a4225;fill-opacity:1;stroke:#6a4225;stroke-width:.5;stroke-linecap:butt;stroke-linejoin:miter;stroke-miterlimit:4;stroke-dasharray:none;stroke-opacity:1" d="m-654.661 181.78-94.577 212.627 97.119 76.017 89.998-24.67z"/><path style="fill:#6a4225;fill-opacity:1;stroke:#6a4225;stroke-width:.5;stroke-linecap:butt;stroke-linejoin:miter;stroke-miterlimit:4;stroke-dasharray:none;stroke-opacity:1" d="m-654.661 181.78 67.203-155.34-138.475 31.95z"/><path style="fill:#603c22;fill-opacity:1;stroke:none;stroke-width:.5;stroke-linecap:butt;stroke-linejoin:miter;stroke-miterlimit:4;stroke-dasharray:none;stroke-opacity:1" d="m-725.933 58.39 71.272 123.39-94.577 212.627-30.678-104.661z"/><path d="m285 0 34.916 59.585L400 56.138V0z" style="opacity:1;fill:#643d24;fill-opacity:1;stroke:#643d24;stroke-width:.5;stroke-linecap:butt;stroke-linejoin:miter;stroke-miterlimit:4;stroke-dasharray:none;stroke-opacity:1"/><path d="m-147.563 0-56.568 75.23 94.752-24.042z" style="opacity:1;fill:#684025;fill-opacity:1;stroke:#684025;stroke-width:.5;stroke-linecap:butt;stroke-linejoin:miter;stroke-miterlimit:4;stroke-dasharray:none;stroke-opacity:1"/><path d="m-147.563 0 38.184 51.188 161.176-13.9L104.5 0z" style="opacity:1;fill:#6a4125;fill-opacity:1;stroke:none;stroke-width:.5;stroke-linecap:butt;stroke-linejoin:miter;stroke-miterlimit:4;stroke-dasharray:none;stroke-opacity:1"/><path d="M51.797 37.288 104.5 0H285l34.916 59.585z" style="opacity:1;fill:#5a3820;fill-opacity:1;stroke:#5a3820;stroke-width:.5;stroke-linecap:butt;stroke-linejoin:miter;stroke-miterlimit:4;stroke-dasharray:none;stroke-opacity:1"/><path d="M-500 0h352.437l-56.568 75.23L-460 56.845z" style="opacity:1;fill:#5a3820;fill-opacity:1;stroke:#5a3820;stroke-width:.5;stroke-linecap:butt;stroke-linejoin:miter;stroke-miterlimit:4;stroke-dasharray:none;stroke-opacity:1"/><path d="m-327.875 472.624 178.898-19.092-19.092 76.367-127.279-.707z" style="opacity:1;fill:#5a3820;fill-opacity:1;stroke:#5a3820;stroke-width:.5;stroke-linecap:butt;stroke-linejoin:miter;stroke-miterlimit:4;stroke-dasharray:none;stroke-opacity:1"/><path d="m-148.977 453.532-19.092 76.367 278.6 2.122-70.71-56.569z" style="opacity:1;fill:#6a4125;fill-opacity:1;stroke:none;stroke-width:.5;stroke-linecap:butt;stroke-linejoin:miter;stroke-miterlimit:4;stroke-dasharray:none;stroke-opacity:1"/></g><g style="display:inline"><path style="fill:#5a3820;fill-opacity:.49050634" d="M571.67 404.107c1.06.341 3.66.054 2.769-1.858-.495-1.062-2.821-2.397-3.85-2.715-1.548-.478-4.15 1.597-2.161 2.925l-.433 1.412c-1.665-.866-2.14-3.517-2.004-5.415.096-1.333 1.202-2.74 1.64-4.003 1.198-3.444 2.181-6.83 3.112-10.36.373-1.41.483-4.077 1.609-5.007 1.054-.871 2.674-.998 3.858-1.639.873-.473 1.444-1.448 2.382-1.763 2.018-.68 4.002-.504 4.971-2.891 2.041 3.357 3.745 6.486 4.084 10.595.242 2.921-1.591 5.919-2.21 8.711-.432 1.954-.298 3.941-.77 5.886-.585 2.425-1.731 4.667-2.291 7.063-.337 1.446-.035 3.092-.45 4.474-.741 2.474-4.976 3.953-4.472 7.063.232 1.436 1.772 1.719 2.866 1.964 2.54.565 5.275.216 7.783-.212.835-.141 1.849.033 2.5-.676 1.574-1.714-.286-4.951.224-6.962.366-1.438 1.616-2.693 2.27-4.002 1.421-2.842 2.623-5.837 3.438-8.947h.216c.052 2.74.66 6.175 1.624 8.711.61 1.603 2.18 3.901 2.136 5.65-.073 3-4.246 4.964-2.244 8.472 2.013 3.532 6.772-.021 9.295-.643 1.381-.339 3.234.106 3.913-1.716.936-2.515-.964-4.9-1.282-7.29-.366-2.733.106-5.483-.355-8.24-.335-2.018-1.844-4.365-1.794-6.357.036-1.4.949-3.06 1.247-4.473l8.216 4.202 3.46 2.155c.014 2-.037 4.393.287 6.357.153.939.962 1.885.715 2.855-.482 1.891-4.728 3.829-3.772 5.832.525 1.1 1.976 1.477 2.985 1.76 2.556.715 9.252 1.79 11.13-.818.829-1.151.76-3.065.762-4.45 0-3.487.337-7.183-.433-10.595 2.78 1.87 3.414 5.623 4.809 8.712.482 1.071 1.49 2.766 1.16 4-.507 1.9-5.716 4.869-3.307 7.435.668.711 1.883.765 2.743 1.05 2.487.824 10.034 2.169 11.21-1.422 1.099-3.357.818-9.283.055-12.711-.45-2.018-1.497-3.767-1.678-5.886-.169-1.95 1.07-3.92 1.204-5.887.184-2.733-.592-5.135-.67-7.77-.05-1.692.473-3.44.473-5.179 2.374 6.856-.112 14.23 1.618 21.19.25 1.015.35 6.76 2.213 6.18.699-.216.904-1.535.764-2.177-.612-2.798-1.72-5.27-1.726-8.241-.002-1.476.617-2.997.768-4.473.895-8.71 2.145-20.82-4.72-27.208-3.061-2.847-6.376-4.928-9.727-7.285-2.622-1.846-5.308-4-8.432-4.735-2.294-.537-4.806.26-7.135.134-5.08-.268-10.07-1.316-15.134-1.834-2.305-.235-4.588.25-6.918-.228-5.01-1.027-8.713-5.147-13.621-6.496-1.555-.426-4.25-.134-5.838.17-1.5.287-2.296 1.431-3.463 2.337-3.392 2.63-7.841 6.85-9.72 11.005-1.153 2.552-1.276 5.962-2.016 8.712-1.078 4.01-3.126 7.343-3.733 11.536-.635 4.394.338 9.008.338 13.42 0 3.32-1.705 7.377-.62 10.596 1.517 4.499 9.566 5.987 10.133 0z" transform="translate(400)"/><g style="fill:#5a3820;fill-opacity:.49050634"><path style="fill:#5a3820;fill-opacity:.49050634;stroke:none;stroke-width:.22160828" d="M316.582 198.223c-2.778 1.238-5.822 2.731-6.96 5.773-.262.696-.36 1.64-.31 2.625-2.902-.352-6.015-.525-9.29-.62-3.175-2.38-4.026-4.01-10.045-4.415-8.183-1.226-14.848 2.56-22.827 5.502-18.902 8.181-60.64 10.534-53.66 47.494-1.138 1.992-2.394 3.691-4.195 5.027-.291 4.072.159 9.155 1.59 13.52.059 1.082-.742 2.125-.572 3.193.077.49.292 1.05.699 1.291.569.298 3.832.333 4.322-.746.055-.69-.969-.986-1.207-1.63-.655-1.918-.053-4.86.19-6.864 1.605-4.573 8.59-9.01 11.89-12.908 0 0-.843 1.909-1.463 2.717-1.384 1.725-4.806 2.894-4.64 6.047.815 6.113 9.208 6.587 10.822 12.968 3.61-.2 3.754-.222 4.754-1.62-1.802-2.585-6.029-3.882-7.248-7.204-.057-2.457 5.361-4.261 7.183-5.707.843-.759.99-2.409 2.035-2.785 2.039-.639 7.948 3.096 11.127 3.33 6.477.426 13.927-4.197 21.045-3.33 2.382.46 4.234-.004 4.862 2.607.378 1.574-1.186 4.043-2.913 3.5-1.24-.39-1.744.54-3.945.846-1.038 2.355 6.596 3.938 9.104 4.297-2.418 1.711-1.89.599-3.631 3.775-.176.535-4.114 2.455-3.774 2.889.917 1.064 6.024 1.38 7.555.894.648-.28 2.196-.844 2.608-1.449.548-.805 1.245-1.794 1.642-2.695.988-2.19 3.298-3.62 4.514-5.899.93-2.087.892-4.825 1.59-7.203 3.093-6.072 11.923-11.976 18.755-13.927.811-.057 1.831.013 2.352.68.802 1.162-1.142 3.89.953 4.279 1.764-.314 2.446-2.938 4.07-3.737 1.466-.69 3.159.073 4.832-.068 1.337-.115 2.569-.573 3.688-1.494.91-.13 1.92.009 2.861-.477 2.594-1.981 2.625-7.596 3.178-11.006 2.812-17.762-2.506-24.82-11.943-27.7.007-.058.02-.115.023-.173-1.02-.313-2.156-.94-2.453-2.095-.668-2.6 2.837-4.653 2.832-7.502z" transform="matrix(1 0 0 1 406 3)"/></g><path style="fill:#5a3820;fill-opacity:.49050634" d="M155.013 416.628c3.746 1.55 7.794 3.037 10.62 6.096 1.74 1.883 5.563 5.306 3.442 7.044-1.64 1.344-4.763 3.894-4.763 3.894s-.773 14.065-.949 18.506c.753.214 1.66-.177 1.856-.986.045-5.496 0-17.034 0-17.034s3.263-2.165 4.536-3.406c1.225-1.193 9.11 2.509 8.005 3.98-3.073 4.088-5.51 8.187-5.51 8.187s-.227 8.476-.453 11.68c.573.463 1.629-.1 2.041-.73-.018-2.788-.227-10.22-.227-10.22s3.524-5.372 6.003-8.716c1.415-1.909 5.067-1.066 7.379-2.234 2.703-1.367 5.028-3.53 7.371-5.475 2.775-2.304 3.128-.39 4.536 1.703 2.253 3.35 4.124 5.117 7.712 8.152 1.9 1.607 4.082-1.575 5.557-.365 3.465 2.842 5.953 6.119 9.639 11.072.467.627 1.202-.805.907-1.217-2.705-3.78-5.785-8.313-8.958-11.559-.612-.625-1.544-.643-2.155-1.216-1.571-1.475-2.273-3.36-3.63-5.475.878-.472 1.554-.209 2.723-.852 1.517.79 3.383 2.423 5.33 2.798 1.121.216 2.723-1.347 3.402-.365 2.587 3.745 5.275 7.85 7.938 12.654.31.559 1.685-.034 1.36-.608-2.135-3.78-5.208-9.851-7.825-14.236-.78-1.309-2.105.654-3.742-.486-3.737-2.604-5.569-8.575-8.505-12.046-.513-.606-3.698-2.574-6.805-3.285-1.664-.38-3.411.074-5.103-.121-3.14-.364-6.176-1.445-9.3-1.947-5.375-.864-4.723-2.34-16.216-1.825-7.301.327-8.768-2.344-11.794-5.354-3.778-3.756-5.18-4.931-6.464-4.745-.389-2.593-.331-4.803.68-6.813 1.301-2.587 3.683-4.928 6.35-5.597 3.251-.815 7.692-.642 9.754 2.433 1.188 1.773 4.482 6.756 6.35 10.22.124-3.448-1.75-8.435-4.195-11.68-2.215-2.94-5.422-5.316-8.846-6.205-3.88-1.007-8.665-1.158-11.908 1.338-4.123 3.174-5.64 10.818-6.35 14.844-.28-3.225.068-7.826 1.814-11.072 1.529-2.842 4.145-5.24 7.03-6.327 3.176-1.196 6.88-.829 10.094.243 4.014 1.34 7.745 4.058 10.546 7.422 2.624 3.152 3.55 7.438 5.33 11.315.441-3.465-.774-8.138-2.495-11.68-1.979-4.075-4.868-8.004-8.619-10.22-4.838-2.861-10.916-4.222-16.33-3.042-5.32 1.161-10.967 4.446-13.708 9.49-2.651 4.878-2.265 11.456-.908 16.912.909 3.651 4.067 7.269 5.784 9.49-1.228 2.125-1.604 3.361-2.495 4.988-2.599 4.748 3.35 4.755 4.083 4.137 1.9-1.6 3.534-2.484 5.557-2.677 1.552-.147 3.082.615 4.536 1.217z" transform="translate(400)"/><path style="fill:#5a3820;fill-opacity:.49050634" d="M668.42 229.45c-.859 2.296-2.57 4.915.267 6.795 1.324.029 1.189-3.297 3.067-3.978 1.262-1.699 1.343-3.75 2.52-5.52 1.333-1.942.176-5.937 3.716-6.202 2.793 1.04 1.792 4.135 1.431 6.139-.624 2.698-1.052 5.467-2.633 7.925-.329 2.53-2.115 4.793-2.632 7.173-2.158 3.196-1.641 7.132-3.722 10.361.024 2.22-2.467 3.987-2.838 5.647-1.786 2.293-4.105 4.232-6.745 5.843-1.544 1.147-4.935.63-5.607-.352-1.02-.67-2.843.126-3.483-1.442-.221-.747 1.383-1.687-1.012-1.154-1.416.27 2.444-2.15-.357-.512-1.25.195-1.826-.214-1.161-.58-2.931.308-6.083.22-8.745-.94-2.447-1.093-3.2-3.326-4.512-5.217-1.536-2-1.502-4.473-2.46-6.672-.566-1.366-1.216-3.29-1.675-4.842-.41-2.474-1.248-4.867-2.113-7.256-.466-1.583-.439-5.4-1.293-5.133-.8-2.238 3.725-1.624 4.457.32 1.262 1.658 2.245 3.248 2.502 5.214-.936 2.011 2.021.915 1.902 2.916.918 1.928.523 4.384 2.694 5.082 1.488 2.092 2.165-2.842 3.822-2.901.036-1.148.731-2.69 1.506-3.667-.315-2.222.698-4.409.37-6.466-.548-2.508.232-5.14.593-7.665.626-1.573-.025-3.358.51-5.05.916-2.421.444-4.955 1.767-7.444.107-3.473 5.9-2.29 4.547.81.258 2.56-.928 4.976-.748 7.532-.804 3.512.373 7.165-.874 10.613.019 2.33 3.01 1.374 2.952-.325-.195-1.913-.82-4.478-.084-6.706.957-3.122-.161-6.585 1.44-9.565.746-2.4.726-5.15 2.642-7.044 4.188-1.3 3.371 2.983 3.163 5.09-.68 2.711.57 5.537-.648 8.203-.771 2.473.609 5.006-.152 7.518-1.383 1.682-1.06 6.457 1.54 5.173-.592-2.468.375-5.007 1.137-7.365.075-2.494.737-4.953 1.333-7.366.907-2.145-.3-6.109 3.203-6.612 3.419.712 1.855 4.129 2 6.22-.041 2.935-.43 5.842-1.24 8.698-.278 1.556.174 3.153-.347 4.704z" transform="translate(400)"/><path style="fill:#5a3820;fill-opacity:.49050634" d="M578.953 228.163c.859 2.493 2.57 5.335-.267 7.376-1.324.031-1.189-3.578-3.067-4.318-1.262-1.844-1.343-4.071-2.52-5.992-1.333-2.108-.176-6.444-3.717-6.732-2.792 1.128-1.791 4.489-1.43 6.664.624 2.928 1.052 5.934 2.633 8.603.329 2.746 2.115 5.202 2.632 7.786 2.158 3.468 1.641 7.74 3.722 11.246-.025 2.41 2.467 4.327 2.838 6.13 1.786 2.488 4.105 4.593 6.745 6.341 1.544 1.245 4.935.684 5.607-.382 1.02-.727 2.843.138 3.483-1.565.221-.81-1.383-1.831 1.012-1.252 1.416.292-2.444-2.333.357-.556 1.25.212 1.826-.232 1.161-.63 2.931.335 6.082.239 8.745-1.02 2.447-1.186 3.2-3.61 4.512-5.663 1.536-2.171 1.502-4.855 2.46-7.243.566-1.482 1.215-3.571 1.675-5.255.41-2.685 1.248-5.283 2.113-7.876.466-1.718.439-5.863 1.293-5.572.8-2.428-3.725-1.763-4.457.347-1.262 1.8-2.245 3.526-2.502 5.66.936 2.183-2.022.993-1.902 3.166-.918 2.092-.523 4.758-2.694 5.516-1.488 2.27-2.165-3.085-3.822-3.15-.036-1.245-.731-2.92-1.506-3.98.315-2.412-.698-4.785-.37-7.019.548-2.722-.232-5.578-.593-8.32-.626-1.707.025-3.644-.51-5.482-.916-2.627-.444-5.378-1.767-8.08-.107-3.77-5.9-2.485-4.547.88-.258 2.778.928 5.402.748 8.176.804 3.812-.373 7.777.874 11.52-.019 2.53-3.01 1.491-2.953-.353.196-2.076.82-4.86.085-7.279-.957-3.39.161-7.148-1.44-10.382-.746-2.607-.726-5.59-2.642-7.646-4.188-1.412-3.371 3.237-3.164 5.526.68 2.941-.569 6.01.649 8.903.771 2.684-.609 5.433.152 8.16 1.383 1.826 1.06 7.009-1.54 5.615.592-2.679-.375-5.434-1.137-7.994-.075-2.707-.737-5.377-1.333-7.996-.907-2.328.3-6.63-3.203-7.177-3.419.773-1.855 4.482-2 6.753.041 3.185.43 6.34 1.24 9.44.278 1.689-.174 3.423.346 5.106z" transform="translate(400)"/><path style="fill:#5a3820;fill-opacity:.49050634" d="M107.895 117.128c1.84 1.98 2.605 9.111-1.472 7.461-2.751-4.759-5.924-9.609-6.21-15.165-.321-4.1-6.55-4.418-5.763.125.03 4.28 1.58 8.4 2.716 12.499 2.197 6.83 5.414 13.381 6.752 20.434 1.91 7.762 5.969 15.631 13.397 19.97 4.378 1.68 9.047-1.247 11.321-4.676 3.356-1.493 7.381-.005 10.798-1.517 5.683-2.498 7.262-8.755 8.98-13.872 2.377-8.041 4.283-16.205 6.332-24.317-.031-4.245-5.903-1.927-5.987 1.182-1.7 3.697-2.887 7.598-4.903 11.166 1.046 3.765-5.05 6.543-6.021 1.959-4.587-7.158-2.242-15.743-3.658-23.563-.658-5.25-1.263-10.504-1.975-15.738.093-3.965-6.098-5.92-6.592-1.124.505 5.766 2.142 11.537 1.363 17.357-.149 2.319 2.223 8.4-1.48 7.987-2.892-2.807.635-7.23-1.05-10.667-.74-3.819-.38-7.727-1.443-11.482-.612-3.134-.994-6.435-2.801-9.211-4.205-2.793-5.369 3.394-4.212 6.067.095 4.303.19 8.624.84 12.882-.59 4.2.468 8.391.983 12.408-1.2 3.146-3.537.43-2.75-1.717-.883-6.081-2.422-12.074-3.215-18.166 2.032-3.899-5.672-8.315-5.947-2.832-.296 4.645.513 9.297 1.118 13.893.436 2.87.706 5.762.88 8.657z" transform="translate(400)"/><path style="fill:#5a3820;fill-opacity:.49050634" d="M471.707 364.724c-.644-.29-1.361-1.364-1.361-2.04 0-.648-.623-.871-1.447-.518-1.595.683-3.12-1.12-2.63-3.11.366-1.487.362-1.496-.568-1.496-1.394 0-1.962-.667-1.962-2.303 0-2.195.596-3.465 2.544-5.417.958-.96 2.007-2.253 2.33-2.872 2.123-4.06 2.268-4.275 3.106-4.586 1.113-.415 2.998.05 4.292 1.056.744.578 1.397.79 2.857.924 1.877.173 1.904.187 3.286 1.726 1.118 1.245 1.5 1.923 1.929 3.431.294 1.034.926 2.45 1.404 3.145.478.695.869 1.443.869 1.662 0 .87-.94 2.357-3.134 4.953-1.843 2.183-2.73 2.983-4.474 4.039-1.954 1.182-2.397 1.334-4.336 1.484-1.188.092-2.405.057-2.705-.078zm2.959-8.74c.302-.552.717-1.003.922-1.003.6 0 1.62-1.344 1.62-2.135 0-.435-.372-1.192-.92-1.876-.827-1.032-1.04-1.147-2.128-1.147-1.113 0-1.295.106-2.3 1.335l-1.091 1.336.674.606c.37.333.865 1.247 1.1 2.031.649 2.175 1.263 2.421 2.123.853zm-36.848 7.731c-2.505-.432-6.394-2.48-7.138-3.758-.24-.413-1.162-1.457-2.05-2.321-1.6-1.559-2.482-3.075-2.495-4.293-.004-.349.329-1.065.738-1.59.41-.526.944-1.53 1.19-2.231.636-1.823 1.402-3.096 2.745-4.563 1.126-1.23 1.251-1.29 3.073-1.458 1.263-.116 2.06-.34 2.381-.667.266-.27 1.073-.745 1.795-1.055 1.776-.76 5.6-.509 7.512.494.699.367 1.476.668 1.728.67.605.004 1.895.762 2.872 1.69.434.411 1.141.963 1.573 1.226.43.263 1.032 1.027 1.336 1.698 1.127 2.492.118 5.612-2.254 6.968-.711.406-1.498 1.158-1.88 1.795-1.158 1.933-1.552 2.449-3.95 5.164l-2.354 2.666-1.331-.031c-.732-.018-2.303-.2-3.49-.404zm2.566-7.964c.782-.187 1.605-.51 1.827-.72.435-.406 1.706-3.905 1.706-4.693 0-.514-.33-.676-1.906-.936-.559-.092-1.68-.287-2.492-.433-1.78-.32-2.364-.105-3.434 1.269-.645.828-.778 1.202-.648 1.818.265 1.25.592 1.789 1.264 2.076.346.149.825.658 1.064 1.131.481.954.586.973 2.62.488zm17.636-14.182c-1.04-.235-1.938-1.607-2.247-3.435-.207-1.229-1.837-5.045-2.366-5.54-.226-.211-1.363-.468-2.528-.57-1.453-.128-2.398-.372-3.012-.78-1.398-.931-2.671-1.226-3.832-.887-1.613.47-2.165.893-2.693 2.06-1.463 3.233-4.539 5.124-6.903 4.244-1.736-.646-2.269-2.943-1.058-4.566.355-.476.823-1.453 1.04-2.17.217-.719.488-1.307.601-1.307.113 0 .529-.787.923-1.75.542-1.323.996-1.961 1.866-2.62.632-.48 1.7-1.508 2.37-2.285.672-.778 1.73-1.667 2.35-1.977 1.186-.591 1.894-1.683 1.894-2.92 0-1.025.846-2.054 2.012-2.448.714-.241 1.228-.674 1.67-1.407.853-1.416.808-1.736-.315-2.256-.524-.243-1.332-.849-1.794-1.347-.821-.884-.894-.905-3.181-.892-2.247.013-2.402.056-3.866 1.075-.838.584-1.783 1.061-2.1 1.061-1.159 0-2.292-.815-3.326-2.393-.572-.873-1.584-2.007-2.25-2.518-1.785-1.375-8.325-8.477-9.33-10.133a29.022 29.022 0 0 0-1.79-2.579c-.506-.63-1.443-2.37-2.082-3.868-.64-1.497-1.56-3.223-2.047-3.834-1.339-1.684-2.111-3.853-2.337-6.563-.132-1.594-.373-2.69-.746-3.393-.302-.572-.712-2.055-.909-3.296-.197-1.241-.495-2.687-.662-3.213-.373-1.179-.188-3.127.508-5.362.633-2.03.645-2.611.115-5.257-.68-3.398.027-6.566 1.72-7.7.62-.417.772-.41 1.906.073.677.289 1.643.988 2.147 1.554.799.898.937 1.264 1.094 2.89.218 2.256 1.164 5.766 2.106 7.81.927 2.012.987 4.706.141 6.32-.846 1.613-.76 2.786.59 8.123.205.812 1.024 2.553 1.819 3.868.795 1.316 1.763 3.273 2.153 4.35.389 1.077.922 2.302 1.184 2.723.262.42.839 1.554 1.282 2.52.958 2.088 1.061 2.195 3.836 3.982 4.078 2.627 4.506 2.807 6.6 2.767 1.64-.031 2.342.138 5.164 1.245 3.673 1.441 4.289 1.515 5.977.722a18.792 18.792 0 0 1 2.284-.874c.6-.174 1.16-.514 1.243-.757.083-.243.004-1.316-.175-2.384-.423-2.532-.22-3.592 1.017-5.28.64-.871 1.077-1.806 1.177-2.51.088-.618.381-1.441.652-1.83.672-.963 2.042-.97 2.828-.014.753.915 1.313 4.421 1.093 6.836-.648 7.103-.863 6.646 3.005 6.386 1.543-.104 3.364-.066 4.045.083.973.212 1.672.154 3.24-.268 1.174-.316 2.708-.51 3.716-.471 1.43.056 1.926-.058 2.986-.685 6.686-3.953 6.539-3.827 7.825-6.699.353-.788.966-2.148 1.364-3.022.397-.875.876-2.007 1.064-2.516.189-.51.932-1.858 1.653-2.995 1.59-2.51 2.03-3.626 2.699-6.836.653-3.14.647-3.997-.042-5.489-.426-.924-.552-1.676-.537-3.212.016-1.73.145-2.274.938-3.961.505-1.075.919-2.122.919-2.327 0-.204.228-1.179.508-2.165.28-.987.508-2.348.508-3.025 0-1.533.823-2.728 2.566-3.724 1.435-.82 1.94-.867 2.718-.253 1.56 1.233 2.118 4.364 1.443 8.113l-.456 2.532.676 2.447c.766 2.768.845 4.301.303 5.867-.206.594-.486 1.889-.622 2.876-.136.988-.53 2.407-.876 3.153-.43.929-.669 2.008-.76 3.431-.157 2.432-1.09 5.044-2.245 6.278-.42.449-1.15 1.719-1.62 2.822-1.298 3.039-2.095 4.505-2.92 5.37-.412.43-1.1 1.428-1.53 2.216-.43.787-2.117 2.813-3.748 4.501-1.632 1.689-3.054 3.228-3.16 3.422-.105.194-.979.998-1.94 1.786-.961.789-2.119 2.016-2.572 2.727-1.394 2.19-3.939 2.857-5.613 1.472-2.179-1.802-3.648-1.914-5.183-.394-1.021 1.012-1.577 1.023-3.91.078-1.905-.771-2.661-.76-3.777.053-.962.701-.65 2.397.719 3.914.245.272.577 1.679.851 3.607.38 2.678.4 3.329.121 4.255-.409 1.36-.352 1.994.415 4.61.86 2.937 1.269 9.39.74 11.68-.488 2.112-.779 2.685-1.523 3.004-.596.256-2.766.285-3.801.051z" transform="translate(400)"/></g><path d="m1200 202.94 3.477 119.74-44.715 11.896-50.454-18.787 18.774-130.691 34.796-5.528z" style="fill:#bc815a;fill-opacity:1;stroke:#bc815a;stroke-width:.5;stroke-linecap:butt;stroke-linejoin:miter;stroke-miterlimit:4;stroke-dasharray:none;stroke-opacity:1"/><path d="m1119.916 59.585 41.962 119.985L1200 202.94V56.139z" style="fill:#5a3820;fill-opacity:1;stroke:#5a3820;stroke-width:.5;stroke-linecap:butt;stroke-linejoin:miter;stroke-opacity:1;stroke-miterlimit:4;stroke-dasharray:none"/><path d="m1082.359 442.218 76.403-107.642 44.715-11.897 34.445 166.915z" style="fill:#5a3820;fill-opacity:1;stroke:#5a3820;stroke-width:.5;stroke-linecap:butt;stroke-linejoin:miter;stroke-miterlimit:4;stroke-dasharray:none;stroke-opacity:1"/></svg>