<?xml version="1.0" encoding="UTF-8" standalone="no"?>
<!-- Created with Sodipodi ("http://www.sodipodi.com/") -->

<svg
   xmlns:dc="http://purl.org/dc/elements/1.1/"
   xmlns:cc="http://creativecommons.org/ns#"
   xmlns:rdf="http://www.w3.org/1999/02/22-rdf-syntax-ns#"
   xmlns:svg="http://www.w3.org/2000/svg"
   xmlns="http://www.w3.org/2000/svg"
   xmlns:xlink="http://www.w3.org/1999/xlink"
   xmlns:sodipodi="http://sodipodi.sourceforge.net/DTD/sodipodi-0.dtd"
   xmlns:inkscape="http://www.inkscape.org/namespaces/inkscape"
   id="svg602"
   sodipodi:version="0.32"
   width="120"
   height="69.01535"
   xml:space="preserve"
   sodipodi:docname="tuxhelico.svg"
   inkscape:version="0.91 r13725"
   version="1.1"><metadata
     id="metadata108"><rdf:RDF><cc:Work
         rdf:about=""><dc:format>image/svg+xml</dc:format><dc:type
           rdf:resource="http://purl.org/dc/dcmitype/StillImage" /></cc:Work></rdf:RDF></metadata><defs
     id="defs604"><linearGradient
       id="linearGradient758"><stop
         style="stop-color:#ff0000;stop-opacity:1;"
         offset="0"
         id="stop759" /><stop
         style="stop-color:#ff0000;stop-opacity:0.2471;"
         offset="1"
         id="stop760" /></linearGradient><linearGradient
       id="linearGradient658"><stop
         style="stop-color:#ffffff;stop-opacity:1;"
         offset="0"
         id="stop659" /><stop
         style="stop-color:#000000;stop-opacity:1;"
         offset="1"
         id="stop660" /></linearGradient><linearGradient
       id="linearGradient649"><stop
         style="stop-color:#00000a;stop-opacity:1;"
         offset="0"
         id="stop651" /><stop
         style="stop-color:#ffffff;stop-opacity:1;"
         offset="1"
         id="stop652" /></linearGradient><linearGradient
       id="linearGradient648"><stop
         style="stop-color:#666666;stop-opacity:1;"
         offset="0"
         id="stop649" /><stop
         style="stop-color:#ffffff;stop-opacity:1;"
         offset="1"
         id="stop650" /></linearGradient><linearGradient
       id="linearGradient634"><stop
         style="stop-color:#ff6d00;stop-opacity:1;"
         offset="0"
         id="stop635" /><stop
         style="stop-color:#ffff00;stop-opacity:1;"
         offset="1"
         id="stop636" /></linearGradient><linearGradient
       id="linearGradient626"><stop
         style="stop-color:#ffffff;stop-opacity:1;"
         offset="0"
         id="stop627" /><stop
         style="stop-color:#b5ffff;stop-opacity:0.1765;"
         offset="1"
         id="stop628" /></linearGradient><linearGradient
       inkscape:collect="always"
       xlink:href="#linearGradient649"
       id="linearGradient1465"
       x1="284.96692"
       y1="151.28859"
       x2="400.01779"
       y2="157.82706"
       gradientTransform="scale(0.905196,1.104733)"
       gradientUnits="userSpaceOnUse" /><radialGradient
       inkscape:collect="always"
       xlink:href="#linearGradient658"
       id="radialGradient1467"
       cx="213.60185"
       cy="162.78499"
       fx="213.60185"
       fy="162.78499"
       r="3.5191741"
       gradientTransform="scale(0.985612,1.014598)"
       gradientUnits="userSpaceOnUse" /><linearGradient
       inkscape:collect="always"
       xlink:href="#linearGradient634"
       id="linearGradient1469"
       x1="491.16629"
       y1="121.58448"
       x2="518.6665"
       y2="121.58448"
       gradientTransform="scale(0.652403,1.532795)"
       gradientUnits="userSpaceOnUse" /><linearGradient
       inkscape:collect="always"
       xlink:href="#linearGradient634"
       id="linearGradient1471"
       x1="367.75742"
       y1="175.20065"
       x2="433.40237"
       y2="164.45979"
       gradientTransform="scale(0.798871,1.251767)"
       gradientUnits="userSpaceOnUse" /><radialGradient
       inkscape:collect="always"
       xlink:href="#linearGradient649"
       id="radialGradient1473"
       cx="381.92261"
       cy="186.56987"
       fx="381.92261"
       fy="186.56987"
       r="31.844234"
       gradientTransform="scale(0.819623,1.220073)"
       gradientUnits="userSpaceOnUse" /><linearGradient
       inkscape:collect="always"
       xlink:href="#linearGradient649"
       id="linearGradient1475"
       x1="252.60847"
       y1="200.46466"
       x2="337.91837"
       y2="163.55708"
       gradientTransform="scale(1.0771,0.928419)"
       gradientUnits="userSpaceOnUse" /><radialGradient
       inkscape:collect="always"
       xlink:href="#linearGradient658"
       id="radialGradient1477"
       gradientTransform="scale(1.047269,0.954864)"
       cx="274.73563"
       cy="125.39588"
       fx="274.73563"
       fy="125.39588"
       r="10.798452"
       gradientUnits="userSpaceOnUse" /><linearGradient
       inkscape:collect="always"
       xlink:href="#linearGradient634"
       id="linearGradient1479"
       x1="-84.03521"
       y1="537.92523"
       x2="-18.223389"
       y2="421.02298"
       gradientTransform="scale(0.888208,1.125862)"
       gradientUnits="userSpaceOnUse" /><linearGradient
       inkscape:collect="always"
       xlink:href="#linearGradient634"
       id="linearGradient1481"
       x1="-64.355515"
       y1="1120.1011"
       x2="314.54974"
       y2="745.49969"
       gradientTransform="scale(1.568558,0.637528)"
       gradientUnits="userSpaceOnUse" /><radialGradient
       inkscape:collect="always"
       xlink:href="#linearGradient626"
       id="radialGradient1483"
       cx="364.09772"
       cy="630.99817"
       fx="364.09772"
       fy="630.99817"
       r="201.10191"
       gradientTransform="scale(1.170922,0.854028)"
       gradientUnits="userSpaceOnUse" /><linearGradient
       inkscape:collect="always"
       xlink:href="#linearGradient648"
       id="linearGradient1485"
       x1="148.76166"
       y1="2277.386"
       x2="99.761955"
       y2="2084.0901"
       gradientTransform="scale(2.925884,0.341777)"
       gradientUnits="userSpaceOnUse" /><linearGradient
       inkscape:collect="always"
       xlink:href="#linearGradient648"
       id="linearGradient1487"
       spreadMethod="reflect"
       x1="295.14429"
       y1="560.43518"
       x2="297.26828"
       y2="589.70123"
       gradientTransform="scale(0.831891,1.202081)"
       gradientUnits="userSpaceOnUse" /><linearGradient
       inkscape:collect="always"
       xlink:href="#linearGradient648"
       id="linearGradient1489"
       spreadMethod="reflect"
       x1="558.93134"
       y1="520.6076"
       x2="561.64777"
       y2="540.6792"
       gradientTransform="scale(0.746632,1.339348)"
       gradientUnits="userSpaceOnUse" /><linearGradient
       inkscape:collect="always"
       xlink:href="#linearGradient634"
       id="linearGradient1491"
       x1="155.14452"
       y1="519.20825"
       x2="265.19324"
       y2="471.82281"
       gradientTransform="scale(0.977526,1.022991)"
       gradientUnits="userSpaceOnUse" /><linearGradient
       inkscape:collect="always"
       xlink:href="#linearGradient634"
       id="linearGradient1493"
       x1="418.67734"
       y1="571.72717"
       x2="535.62311"
       y2="614.11017"
       gradientTransform="scale(0.911616,1.096953)"
       gradientUnits="userSpaceOnUse" /><linearGradient
       inkscape:collect="always"
       xlink:href="#linearGradient658"
       id="linearGradient1495"
       gradientTransform="scale(0.959002,1.04275)"
       spreadMethod="reflect"
       x1="256.50027"
       y1="222.8512"
       x2="274.12"
       y2="222.47939"
       gradientUnits="userSpaceOnUse" /><linearGradient
       inkscape:collect="always"
       xlink:href="#linearGradient658"
       id="linearGradient1497"
       spreadMethod="reflect"
       x1="254.0732"
       y1="224.95247"
       x2="271.6929"
       y2="224.58067"
       gradientTransform="scale(0.968489,1.032537)"
       gradientUnits="userSpaceOnUse" /><radialGradient
       inkscape:collect="always"
       xlink:href="#linearGradient649"
       id="radialGradient1499"
       gradientTransform="scale(1.21596,0.822396)"
       cx="186.7224"
       cy="829.74182"
       fx="186.7224"
       fy="829.74182"
       r="40.536659"
       gradientUnits="userSpaceOnUse" /><linearGradient
       inkscape:collect="always"
       xlink:href="#linearGradient649"
       id="linearGradient1501"
       x1="-107.12666"
       y1="420.18906"
       x2="-145.35402"
       y2="442.10153"
       gradientTransform="scale(0.775212,1.28997)"
       gradientUnits="userSpaceOnUse" /><linearGradient
       inkscape:collect="always"
       xlink:href="#linearGradient649"
       id="linearGradient1503"
       x1="-118.1791"
       y1="494.65002"
       x2="-88.056427"
       y2="469.08203"
       gradientTransform="scale(0.811798,1.231834)"
       gradientUnits="userSpaceOnUse" /><radialGradient
       inkscape:collect="always"
       xlink:href="#linearGradient626"
       id="radialGradient1505"
       cx="-33.550484"
       cy="709.96832"
       fx="-33.550484"
       fy="709.96832"
       r="158.66774"
       gradientUnits="userSpaceOnUse" /><linearGradient
       inkscape:collect="always"
       xlink:href="#linearGradient758"
       id="linearGradient1507"
       x1="-73.346039"
       y1="420.8981"
       x2="-113.73101"
       y2="455.49091"
       gradientTransform="scale(0.637743,1.56803)"
       gradientUnits="userSpaceOnUse" /><linearGradient
       inkscape:collect="always"
       xlink:href="#linearGradient758"
       id="linearGradient1509"
       x1="-21.852612"
       y1="482.14066"
       x2="-13.285748"
       y2="461.49805"
       gradientTransform="scale(0.637743,1.56803)"
       gradientUnits="userSpaceOnUse" /><linearGradient
       inkscape:collect="always"
       xlink:href="#linearGradient649"
       id="linearGradient1511"
       x1="19.284672"
       y1="1758.0068"
       x2="19.886118"
       y2="1960.7573"
       gradientTransform="scale(4.597461,0.217511)"
       gradientUnits="userSpaceOnUse" /><linearGradient
       inkscape:collect="always"
       xlink:href="#linearGradient649"
       id="linearGradient1513"
       x1="109.75822"
       y1="1188.3186"
       x2="90.346123"
       y2="1149.5381"
       gradientTransform="scale(2.876729,0.347617)"
       gradientUnits="userSpaceOnUse" /><radialGradient
       inkscape:collect="always"
       xlink:href="#linearGradient658"
       id="radialGradient1515"
       cx="132.4838"
       cy="681.49878"
       fx="132.4838"
       fy="681.49878"
       r="18.184837"
       gradientTransform="scale(1.668384,0.599382)"
       gradientUnits="userSpaceOnUse" /><radialGradient
       inkscape:collect="always"
       xlink:href="#linearGradient626"
       id="radialGradient1517"
       gradientTransform="scale(2.815463,0.355181)"
       cx="85.867661"
       cy="1058.8088"
       fx="85.867661"
       fy="1058.8088"
       r="308.67459"
       gradientUnits="userSpaceOnUse" /><linearGradient
       inkscape:collect="always"
       xlink:href="#linearGradient758"
       id="linearGradient1519"
       gradientTransform="scale(2.819788,0.354637)"
       x1="1.3400391"
       y1="1240.6666"
       x2="39.572086"
       y2="1240.6666"
       gradientUnits="userSpaceOnUse" /><linearGradient
       inkscape:collect="always"
       xlink:href="#linearGradient758"
       id="linearGradient1521"
       gradientTransform="scale(2.871607,0.348237)"
       x1="104.9062"
       y1="1130.6661"
       x2="142.46684"
       y2="1130.6661"
       gradientUnits="userSpaceOnUse" /></defs><sodipodi:namedview
     id="base"
     inkscape:zoom="0.37724655"
     inkscape:cx="336.20364"
     inkscape:cy="489.42696"
     inkscape:window-width="1122"
     inkscape:window-height="576"
     inkscape:window-x="0"
     inkscape:window-y="0"
     inkscape:current-layer="svg602"
     showgrid="false"
     borderlayer="true"
     fit-margin-top="0"
     fit-margin-left="0"
     fit-margin-right="0"
     fit-margin-bottom="0"
     inkscape:window-maximized="0" /><g
     id="g1406"
     transform="matrix(0.18036496,0,0,0.18036496,27.958913,-68.749438)"><g
       transform="matrix(0.680971,0,0,0.681347,70.93722,281.2527)"
       id="g710"><path
         transform="matrix(0.996744,0.08062679,-0.08062679,0.996744,19.79549,-16.67789)"
         sodipodi:ry="5.9407425"
         sodipodi:rx="31.401131"
         sodipodi:cy="236.78146"
         sodipodi:cx="216.41321"
         d="m 247.81434,236.78146 a 31.401131,5.9407425 0 0 1 -31.40113,5.94075 31.401131,5.9407425 0 0 1 -31.40113,-5.94075 31.401131,5.9407425 0 0 1 31.40113,-5.94074 31.401131,5.9407425 0 0 1 31.40113,5.94074 z"
         id="path699"
         style="fill:#808080;fill-opacity:1;fill-rule:evenodd;stroke:none"
         sodipodi:type="arc" /><rect
         y="248.23849"
         x="210.47244"
         height="37.341927"
         width="11.881516"
         id="rect700"
         style="font-size:12px;fill:#808080;fill-rule:evenodd;stroke-width:1" /><rect
         transform="matrix(0.99995,-0.00998408,0.02676116,0.999642,0,0)"
         y="261.93109"
         x="213.31094"
         height="25.920595"
         width="5.091639"
         id="rect701"
         style="font-size:12px;fill:#808080;fill-rule:evenodd;stroke-width:1" /><rect
         transform="matrix(0.99725,0.07411051,-0.07411051,0.99725,0,0)"
         y="176.8784"
         x="257.69424"
         height="42.43388"
         width="5.0920653"
         id="rect702"
         style="font-size:12px;fill:#808080;fill-rule:evenodd;stroke-width:1" /><rect
         transform="matrix(0.999829,-0.01846753,0.01446979,0.999895,0,0)"
         y="241.27605"
         x="193.08849"
         height="47.93885"
         width="5.0922518"
         id="rect703"
         style="font-size:12px;fill:#808080;fill-rule:evenodd;stroke-width:1" /><rect
         transform="matrix(0.999808,-0.01960925,0.01362717,0.999907,0,0)"
         y="238.39238"
         x="229.4111"
         height="50.903088"
         width="5.0923624"
         id="rect704"
         style="font-size:12px;fill:#808080;fill-rule:evenodd;stroke-width:1" /><path
         transform="matrix(0.837838,0,0,1,35.09403,20.36824)"
         sodipodi:ry="5.9407425"
         sodipodi:rx="31.401131"
         sodipodi:cy="236.78146"
         sodipodi:cx="216.41321"
         d="m 247.81434,236.78146 a 31.401131,5.9407425 0 0 1 -31.40113,5.94075 31.401131,5.9407425 0 0 1 -31.40113,-5.94075 31.401131,5.9407425 0 0 1 31.40113,-5.94074 31.401131,5.9407425 0 0 1 31.40113,5.94074 z"
         id="path705"
         style="fill:#808080;fill-opacity:1;fill-rule:evenodd;stroke:none"
         sodipodi:type="arc" /><rect
         transform="matrix(0.999945,-0.01047362,0.02551104,0.999675,0,0)"
         y="260.09317"
         x="231.08513"
         height="27.190775"
         width="5.0916629"
         id="rect706"
         style="font-size:12px;fill:#808080;fill-rule:evenodd;stroke-width:1" /><rect
         transform="matrix(0.999927,-0.01210525,0.0220739,0.999756,0,0)"
         y="256.95859"
         x="187.4938"
         height="31.424679"
         width="5.0917587"
         id="rect707"
         style="font-size:12px;fill:#808080;fill-rule:evenodd;stroke-width:1" /><rect
         transform="matrix(0.996279,0.08618101,-0.06959023,0.997576,0,0)"
         y="184.00964"
         x="202.35742"
         height="35.24456"
         width="3.8029807"
         id="rect708"
         style="font-size:12px;fill:#808080;fill-rule:evenodd;stroke-width:1" /><rect
         transform="matrix(0.99689,0.07880668,-0.06547992,0.997854,0,0)"
         y="179.9232"
         x="226.36226"
         height="51.675381"
         width="11.887782"
         id="rect709"
         style="font-size:12px;fill:#808080;fill-rule:evenodd;stroke-width:1" /></g><g
       transform="matrix(0.985436,-0.170045,0.170045,0.985436,71.88467,497.6401)"
       id="g681"><path
         sodipodi:nodetypes="cccscssc"
         id="path637"
         d="m 331.464,196.3146 c 0,36.2045 -28.4371,45.3256 -44.7367,41.0452 -71.0482,-18.8986 -73.2321,-14.5852 -51.0853,-40.1595 1.7717,-18.3977 9.8476,-42.7592 18.1304,-54.6223 8.2827,-11.863 9.6854,-35.7367 32.9549,-36.3273 23.2695,0 23.7862,17.6726 26.1632,34.2603 0.7746,7.1926 -2.2965,12.5575 2.1163,21.9307 4.4127,9.3731 15.7189,22.6068 16.4572,33.8729 z"
         style="font-size:12px;fill:url(#linearGradient1465);fill-rule:evenodd;stroke-width:1"
         inkscape:connector-curvature="0" /><path
         sodipodi:nodetypes="ccccc"
         id="path645"
         d="m 246.6723,106.6026 c -1.7748,1.6697 -2.9357,3.5223 -4.5338,5.0885 -1.9113,-1.4617 -3.8388,-4.8983 -3.8388,-7.5077 -0.2953,-3.5786 2.0646,-6.21587 5.2287,-6.32024 4.3125,-0.20882 3.6659,7.17434 3.1439,8.73944 z"
         style="font-size:12px;fill:#ffffff;fill-opacity:1;fill-rule:evenodd;stroke-width:1"
         transform="translate(64.0781,27.46205)"
         inkscape:connector-curvature="0" /><path
         sodipodi:nodetypes="ccccccccsc"
         id="path643"
         d="m 240.6621,166.1945 c 0.0738,5.2089 -0.1942,9.3853 -1.0975,12.8209 0.1273,-3.8317 -5.2938,1.6487 -4.253,7.4674 -0.6376,1.2056 -1.5113,1.8748 -2.7453,2.2673 1.1304,-7.0828 -11.4561,-7.8961 -12.7223,2.5441 -9.2143,0 -23.1804,-16.9619 -9.3017,-33.6631 15.6504,-23.1976 1.3127,-42.0483 7.6851,-36.8068 0.7376,-0.0866 2.6965,-0.1811 3.5401,-0.3665 0.1263,1.9464 0.709,7.7934 3.0822,12.6329 4.5999,9.2757 15.8124,22.0955 15.8124,33.1038 z"
         style="font-size:12px;fill:#f4f6f6;fill-opacity:1;fill-rule:evenodd;stroke-width:1"
         transform="translate(90.65428,30.41486)"
         inkscape:connector-curvature="0" /><path
         transform="matrix(0.588241,0,0,0.857144,184.6248,-8.30455)"
         sodipodi:ry="5.1675797"
         sodipodi:rx="5.0199509"
         sodipodi:cy="165.16098"
         sodipodi:cx="209.36118"
         d="m 214.38113,165.16098 a 5.0199509,5.1675797 0 0 1 -5.01995,5.16758 5.0199509,5.1675797 0 0 1 -5.01996,-5.16758 5.0199509,5.1675797 0 0 1 5.01996,-5.16758 5.0199509,5.1675797 0 0 1 5.01995,5.16758 z"
         id="path653"
         style="fill:url(#radialGradient1467);fill-opacity:1;fill-rule:evenodd;stroke:none"
         sodipodi:type="arc" /><path
         sodipodi:nodetypes="cccc"
         id="path639"
         d="m 326.9913,143.7884 c -0.3638,2.8712 -13.3022,7.8409 -18.153,7.3158 -10.454,-2.6323 -7.1622,-7.6469 2.6934,-17.6868 8.0835,2.6576 15.4595,7.3207 15.4596,10.371 z"
         style="font-size:12px;fill:#ffa501;fill-opacity:1;fill-rule:evenodd;stroke-width:1"
         inkscape:connector-curvature="0" /><path
         sodipodi:nodetypes="csc"
         id="path644"
         d="m 326.2098,143.7345 c -9.7147,-2.2021 -12.1571,0.5971 -15.25,1.5941 -2.9289,1.0485 -6.0093,0.1418 -5.9569,-2.1996"
         style="fill:none;stroke:#000000;stroke-width:5.54431419pt;stroke-linecap:round;stroke-linejoin:miter;stroke-opacity:1"
         inkscape:connector-curvature="0" /><path
         sodipodi:nodetypes="cssscsccscsss"
         id="path663"
         d="m 327.7803,228.512 c -1.8187,0.01 -3.0867,-1.1963 -4.0203,-2.7841 -0.4692,-0.6938 -1.2359,-1.3749 -2.7305,-1.5891 -1.5385,-0.328 0.2144,-10.1928 1.9611,-10.153 0.8228,0.0711 1.8652,0.2965 2.9417,0.5121 0.9721,-1.0371 1.8267,-2.0775 1.8929,-2.8873 0.3548,-4.4386 2.0569,-23.6216 4.5804,-21.8839 0.8462,0.7892 1.0587,2.3195 0.9805,2.9037 0.9354,0.1958 0.0512,-4.9027 1.6578,-6.2222 0.3663,-0.3526 1.1135,1.4525 1.3613,3.9244 0.9566,0.7522 0.6425,-4.0616 1.6914,-1.4707 0.8891,2.2249 -0.068,14.2012 -6.5044,35.325 -1.0476,3.4295 -2.3823,4.4039 -3.8119,4.3251 z"
         style="font-size:12px;fill:url(#linearGradient1469);fill-rule:evenodd;stroke-width:1"
         inkscape:connector-curvature="0" /><path
         sodipodi:nodetypes="csssscccccss"
         id="path664"
         d="m 312.0735,235.6279 c -0.7388,-1.2296 -2.1593,-3.8479 -3.1621,-4.2347 -2.0091,-0.7499 -5.3864,1.1135 -6.5791,-0.2668 -1.3556,-2.0851 -0.4877,-7.9829 2.4038,-8.1523 2.1431,-0.3444 6.4244,6.4208 5.6623,-3.9154 -1.0157,-14.1698 -2.2531,-21.7767 6.2003,-24.8984 2.2156,0.1384 2.6436,1.3914 1.7517,3.058 2.31,-0.1519 2.3031,-5.3168 4.7815,-6.9783 2.7379,0.5227 3.041,1.7048 2.4142,3.476 0.8426,0.341 0.9506,-2.762 3.3155,-2.9706 4.5243,3.2479 3.6236,15.354 -8.0286,39.6008 -1.8983,3.9377 -6.5901,8.5855 -8.7595,5.2817 z"
         style="font-size:12px;fill:url(#linearGradient1471);fill-rule:evenodd;stroke-width:1"
         inkscape:connector-curvature="0" /><path
         sodipodi:nodetypes="ccccccccccccccccccc"
         id="path668"
         d="m 309.3984,228.554 c -1.7551,-0.0607 -1.7964,-0.2726 -2.0157,0.1761 -0.4229,0.7083 1.0153,0.4482 1.2844,2.1993 -0.2528,0.3938 -1.349,-0.6462 -1.6267,-0.3148 -0.2777,0.3313 0.912,-0.0559 0.9314,2.0846 -0.8158,0.1566 -1.52,-0.4141 -1.7169,-1.0661 -0.3012,0.1833 0.2879,1.8637 -0.0122,1.9612 -0.7177,-0.007 -0.8293,-1.3733 -1.1195,-1.3692 -0.2901,0.004 -0.4817,1.8769 -0.7532,1.78 -0.7215,-3.3703 -3.5812,-1.0927 -2.4267,-8.032 1.6241,-4.3818 2.8318,-1.861 6.4849,-5.8173 -0.2709,1.6221 -1.4793,1.8362 -1.6777,2.856 0.6994,-0.5294 1.3302,-0.9403 3.1711,-0.988 -0.3516,1.2574 -1.8821,1.2813 -1.7651,1.6139 0.1171,0.3326 2.1275,-0.1367 2.5548,0.5125 -0.3035,0.2837 -2.7062,0.2113 -2.7012,0.6436 0.005,0.4324 2.0824,0.1238 2.9681,1.2151 -0.5757,0.2561 -3.0239,0.0234 -3.1383,0.5095 -0.1145,0.4859 1.2134,-0.1305 1.5585,2.0356 z"
         style="font-size:12px;fill:url(#radialGradient1473);fill-rule:evenodd;stroke-width:1"
         inkscape:connector-curvature="0" /><path
         sodipodi:nodetypes="csssccc"
         id="path673"
         d="m 299.5582,181.0955 c 10.6306,-4.2858 45.1505,-14.218 33.8189,0.4385 -12.9325,16.3095 -20.5927,20.7021 -31.2246,24.4907 -4.2688,1.1035 -30.6248,-20.3173 -30.8582,-27.5896 -0.155,-5.2472 -0.3166,-10.3283 2.6067,-21.7268 1.7717,-12.2507 7.5028,-2.2401 15.3848,-3.4213 5.621,-0.8352 6.7289,17.9202 10.2724,27.8085 z"
         style="font-size:12px;fill:url(#linearGradient1475);fill-rule:evenodd;stroke-width:1"
         inkscape:connector-curvature="0" /><path
         transform="matrix(0.451091,-0.504111,0.649051,0.580788,90.52001,190.6077)"
         sodipodi:ry="6.4729309"
         sodipodi:rx="7.0993347"
         sodipodi:cy="119.63559"
         sodipodi:cx="287.73163"
         d="m 294.83096,119.63559 a 7.0993347,6.4729309 0 0 1 -7.09933,6.47293 7.0993347,6.4729309 0 0 1 -7.09934,-6.47293 7.0993347,6.4729309 0 0 1 7.09934,-6.47293 7.0993347,6.4729309 0 0 1 7.09933,6.47293 z"
         id="path678"
         style="fill:url(#radialGradient1477);fill-opacity:1;fill-rule:evenodd;stroke:none"
         sodipodi:type="arc" /><path
         sodipodi:nodetypes="cccc"
         id="path680"
         d="m 312.5561,153.8519 c -2.251,-0.0367 -7.0011,-0.6996 -9.8844,-6.2027 2.4814,3.2182 6.8551,3.8523 9.8598,3.1976 0.0842,1.1809 -0.0238,2.1379 0.0246,3.0051 z"
         style="font-size:12px;opacity:0.40509997;fill:#808080;fill-rule:evenodd;stroke-width:1"
         inkscape:connector-curvature="0" /></g><path
       sodipodi:nodetypes="csscccsccccc"
       id="path616"
       d="m -81.01522,572.5346 c 37.58438,20.341 19.8364,51.6225 -10.85775,52.2006 -22.45523,0.005 -44.73923,-16.1891 -49.10143,-41.0191 -2.9589,-14.1357 11.0994,-52.7939 54.11259,-26.2152 l 5.84659,15.0337 z m 46.7717,-16.7039 c 12.30242,21.5489 -8.55916,78.2114 -59.29979,78.0919 -37.32859,-0.0865 -72.04349,-35.9758 -58.46459,-86.4441 l 12.2923,-58.5222 c 4.3814,-18.3165 39.99341,-14.3159 51.20683,-1.8488 l 28.37379,47.4253 c 5.8613,9.2089 14.50327,20.5459 25.89146,21.2979 z"
       style="font-size:12px;fill:url(#linearGradient1479);fill-rule:evenodd"
       inkscape:connector-curvature="0" /><path
       sodipodi:nodetypes="cccssssccsscsscc"
       id="path606"
       d="m 499.4546,653.5502 c 0,62.0412 -120.1899,60.5525 -184.9987,60.5525 -64.8088,0 -108.1594,-124.6278 -191.6802,-124.0284 0.6264,-5.1305 -206.6826,-10.8395 -215.50509,-11.3538 -14.85721,-0.8174 -12.37191,-19.9681 -0.0492,-20.3628 l 258.40009,-8.276 c 9.1049,-0.2916 19.1211,-4.2643 20.7135,-12.4771 l 13.1166,-67.649 41.8817,-0.6993 8.1542,35.461 c 1.9935,8.6697 16.4374,6.1097 22.0817,4.2535 7.9706,-3.4565 30.9326,-7.8967 39.9513,-8.732 -23.983,5 -13.4126,37.7262 -0.8319,61.9212 26.3083,49.7324 45.4185,57.8977 96.5595,71.0215 56.6931,14.2211 62.9829,-4.0476 79.804,-21.8321 8.6168,16.2177 12.4025,29.3421 12.4025,42.2008 z"
       style="font-size:12px;fill:url(#linearGradient1481);fill-opacity:1;fill-rule:evenodd;stroke-width:1"
       inkscape:connector-curvature="0" /><path
       sodipodi:nodetypes="csssc"
       id="path608"
       d="m 486.6819,611.372 c -22.5507,30.3949 -38.6642,30.6075 -78.9273,22.2554 -55.8261,-11.3451 -77.1048,-31.5033 -97.3017,-71.828 -17.2496,-34.6952 -20.6486,-61.8263 6.264,-61.8053 56.9414,-0.7908 126.5341,46.7396 169.965,111.3779 z"
       style="font-size:12px;fill:url(#radialGradient1483);fill-rule:evenodd;stroke-width:1"
       inkscape:connector-curvature="0" /><path
       transform="translate(0,1.697357)"
       sodipodi:nodetypes="ccccccc"
       id="path620"
       d="m 176.5252,751.9297 0,10.1842 297.413,-1.8003 c 26.3247,-1.8004 34.0459,-17.4031 36.3665,-33.0059 l -7.8014,-4.1831 c -1.1203,15.6028 -13.0424,27.6048 -26.1647,27.6049 l -299.8134,1.2002 z"
       style="font-size:12px;fill:url(#linearGradient1485);fill-rule:evenodd"
       inkscape:connector-curvature="0" /><path
       transform="translate(0,1.697357)"
       sodipodi:nodetypes="cssss"
       id="path623"
       d="m 264.7879,677.2459 c -0.1746,16.8312 -47.526,56.5787 -47.526,76.3812 0,2.9704 10.1841,2.7582 10.1841,0 0,-16.4078 47.5881,-55.7357 47.526,-76.3812 -0.2071,-8.6991 -10.1467,-3.8188 -10.1841,0 z"
       style="font-size:12px;fill:url(#linearGradient1487);fill-rule:evenodd"
       inkscape:connector-curvature="0" /><path
       transform="translate(0,1.697357)"
       sodipodi:nodetypes="cssss"
       id="path624"
       d="m 413.3067,701.4332 c 16.0153,13.6126 19.6691,30.6948 19.7318,50.4964 0.008,2.5469 -8.6872,2.1227 -8.6989,0 -0.1297,-23.6206 -3.3133,-34.9544 -22.2778,-50.0721 -1.6838,-1.3383 0.9599,-9.3467 11.2449,-0.4243 z"
       style="font-size:12px;fill:url(#linearGradient1489);fill-rule:evenodd"
       inkscape:connector-curvature="0" /><path
       sodipodi:nodetypes="ccccc"
       id="path695"
       d="m 199.7581,468.9977 -22.981,79.5497 c 43.605,0 44.3416,-14.5841 76.0143,-38.0071 l -12.3744,-41.5426 -40.6589,0 z"
       style="font-size:12px;fill:url(#linearGradient1491);fill-rule:evenodd"
       inkscape:connector-curvature="0" /><path
       sodipodi:nodetypes="ccc"
       id="path697"
       d="m 487.0209,612.629 c 25.1908,48.036 10.54,77.34 -42.4264,90.5984 -47.6631,13.2581 -14.5842,-30.3581 42.4264,-90.5984 z"
       style="font-size:12px;fill:url(#linearGradient1493);fill-rule:evenodd;stroke-width:1"
       inkscape:connector-curvature="0" /><g
       transform="translate(28.28434,7.071045)"
       id="g737"><path
         transform="matrix(0.839437,0,0,0.640867,165.1613,481.1472)"
         sodipodi:ry="12.30587"
         sodipodi:rx="12.73019"
         sodipodi:cy="249.93561"
         sodipodi:cx="133.24269"
         d="m 145.97288,249.93561 a 12.73019,12.30587 0 0 1 -12.73019,12.30587 12.73019,12.30587 0 0 1 -12.73019,-12.30587 12.73019,12.30587 0 0 1 12.73019,-12.30587 12.73019,12.30587 0 0 1 12.73019,12.30587 z"
         id="path726"
         style="fill:#333333;fill-opacity:1;fill-rule:evenodd;stroke:none"
         sodipodi:type="arc" /><g
         transform="matrix(0.9375,0,0,0.869565,7.937612,438.696)"
         id="g732"><path
           transform="translate(-0.300026,0.300034)"
           sodipodi:ry="19.519653"
           sodipodi:rx="27.157761"
           sodipodi:cy="233.38635"
           sodipodi:cx="263.0907"
           d="m 290.24846,233.38635 a 27.157761,19.519653 0 0 1 -27.15776,19.51966 27.157761,19.519653 0 0 1 -27.15776,-19.51966 27.157761,19.519653 0 0 1 27.15776,-19.51965 27.157761,19.519653 0 0 1 27.15776,19.51965 z"
           id="path724"
           style="fill:#808080;fill-opacity:1;fill-rule:evenodd;stroke:none"
           sodipodi:type="arc" /><path
           transform="matrix(0.950282,0,0,0.827067,12.63036,40.58514)"
           sodipodi:ry="19.519653"
           sodipodi:rx="27.157761"
           sodipodi:cy="233.38635"
           sodipodi:cx="263.0907"
           d="m 290.24846,233.38635 a 27.157761,19.519653 0 0 1 -27.15776,19.51966 27.157761,19.519653 0 0 1 -27.15776,-19.51966 27.157761,19.519653 0 0 1 27.15776,-19.51965 27.157761,19.519653 0 0 1 27.15776,19.51965 z"
           id="path729"
           style="fill:#999999;fill-opacity:1;fill-rule:evenodd;stroke:none"
           sodipodi:type="arc" /><path
           sodipodi:nodetypes="ccccc"
           id="path727"
           d="m 258.4278,233.8106 c 0,6.7964 5.9511,12.3059 -3.5657,12.3059 -9.5169,0 -17.2318,-5.5095 -17.2318,-12.3059 0,-6.7963 7.7149,-12.3059 17.2318,-12.3059 9.5168,0 3.5657,5.5096 3.5657,12.3059 z"
           style="font-size:12px;fill:url(#linearGradient1495);fill-rule:evenodd;stroke-width:1"
           inkscape:connector-curvature="0" /><path
           sodipodi:nodetypes="ccccc"
           id="path728"
           d="m 265.8877,233.6605 c 0,6.7964 -6.0694,12.456 3.6366,12.456 9.7061,0 17.5744,-5.5095 17.5744,-12.3059 0,-6.7963 -7.8683,-12.3059 -17.5744,-12.3059 -9.706,0 -3.6366,5.3595 -3.6366,12.1558 z"
           style="font-size:12px;fill:url(#linearGradient1497);fill-rule:evenodd;stroke-width:1"
           inkscape:connector-curvature="0" /></g></g><path
       sodipodi:nodetypes="csccs"
       id="path745"
       d="m 238.4041,672.9166 c -5.5762,0.2266 -3.9483,10.8773 -0.3125,10.5973 7.6575,-0.4335 13.9676,-1.0937 18.6857,-5 11.875,-9.9908 0.3125,-17.4816 -4.375,-10.9098 -4.4056,6.25 -8.366,5.2398 -13.9982,5.3125 z"
       style="font-size:12px;fill:url(#radialGradient1499);fill-rule:evenodd"
       inkscape:connector-curvature="0" /><g
       id="g777"><path
         sodipodi:nodetypes="ccccc"
         id="path766"
         d="m -110.8782,520.6535 c 8.5786,15.6109 27.50821,51.7761 24.94136,53.1866 -2.56695,1.4106 -23.70666,-30.2927 -32.28546,-45.9035 -1.9999,-3.6394 -3.6714,-7.9405 1.2195,-10.6282 2.5668,-1.4106 3.485,-1.4582 6.1246,3.3451 z"
         style="font-size:12px;fill:url(#linearGradient1501);fill-rule:evenodd"
         inkscape:connector-curvature="0" /><path
         sodipodi:nodetypes="ccccc"
         id="path768"
         d="m -70.86535,617.5813 c -9.31048,-15.1859 -29.93645,-50.4111 -27.43955,-51.9421 2.49706,-1.5307 25.11884,29.1327 34.42933,44.3185 2.17055,3.5402 4.04445,7.7571 -0.71323,10.674 -2.49688,1.5309 -3.41184,1.6222 -6.27655,-3.0504 z"
         style="font-size:12px;fill:url(#linearGradient1503);fill-rule:evenodd"
         inkscape:connector-curvature="0" /><path
         transform="translate(0.835209,-1.67041)"
         sodipodi:ry="8.3521118"
         sodipodi:rx="7.9344788"
         sodipodi:cy="571.28217"
         sodipodi:cx="-92.29052"
         d="m -84.356041,571.28217 a 7.9344788,8.3521118 0 0 1 -7.934479,8.35211 7.9344788,8.3521118 0 0 1 -7.93448,-8.35211 7.9344788,8.3521118 0 0 1 7.93448,-8.35212 7.9344788,8.3521118 0 0 1 7.934479,8.35212 z"
         id="path617"
         style="fill:#808080;fill-opacity:1;fill-rule:evenodd;stroke:none"
         sodipodi:type="arc" /></g><g
       transform="translate(-59.22041,-141.4219)"
       id="g761"><path
         id="path748"
         d="m -20.7486,709.9714 c 0,6.5584 -5.3166,11.875 -11.875,11.875 -6.55834,0 -11.87489,-5.3166 -11.87489,-11.875 0,-6.5584 5.31655,-11.875 11.87489,-11.875 6.5584,0 11.875,5.3166 11.875,11.875 z m 47.5,-10e-5 c 0,32.7918 -26.583104,59.3749 -59.375,59.3749 -32.79189,0 -59.37499,-26.5831 -59.37499,-59.3749 0,-32.7919 26.5831,-59.3751 59.37499,-59.3751 32.791896,0 59.375,26.5832 59.375,59.3751 z"
         style="font-size:12px;fill:url(#radialGradient1505);fill-rule:evenodd;stroke-width:1"
         inkscape:connector-curvature="0" /><path
         sodipodi:nodetypes="ccssc"
         id="path750"
         d="m -59.50964,761.987 c -4.5109,-0.5177 -31.53071,-19.233 -33.29849,-52.7938 -0.84597,-34.5389 34.37669,-60.0537 40.65989,-47.6422 6.1245,12.3156 -8.0076,2.6059 -21.7245,15.3052 -32.26226,30.2946 -2.3762,77.6845 14.3631,85.1308 z"
         style="font-size:12px;fill:url(#linearGradient1507);fill-opacity:0.12710003;fill-rule:evenodd"
         inkscape:connector-curvature="0" /><path
         sodipodi:nodetypes="ccssc"
         id="path751"
         d="m -5.104704,657.2597 c 4.5109,0.5177 31.530704,19.233 33.298504,52.7938 0.846,34.5389 -34.376704,60.0537 -40.6599,47.6422 -6.1245,-12.3156 8.007596,-2.6059 21.724496,-15.3052 C 41.5206,712.0959 11.6346,664.706 -5.104704,657.2597 z"
         style="font-size:12px;fill:url(#linearGradient1509);fill-rule:evenodd"
         inkscape:connector-curvature="0" /></g><g
       transform="translate(-1.25,4.374969)"
       id="g796"><path
         sodipodi:nodetypes="cssscccc"
         id="path782"
         d="m 208.7504,414.8611 c 0,1.0356 -3.4978,2.022 -9.8232,2.9194 -6.3253,0.8972 -2.0247,-1.521 -13.335,-0.8424 -11.3103,0.6786 -116.44273,2.0722 -131.39757,2.4517 -14.95483,0.3795 -36.27028,-1.0874 -53.421419,-2.3327 -5.038017,-0.1037 -9.835707,-0.2851 -9.835707,-4.4272 L 199.0225,409.1884 c 6.96,-0.3572 9.7279,1.5305 9.7279,5.6727 z"
         style="font-size:12px;fill:url(#linearGradient1511);fill-rule:evenodd"
         transform="matrix(0.996271,-0.0862798,0.0862798,0.996271,-21.73181,17.52301)"
         inkscape:connector-curvature="0" /><path
         sodipodi:nodetypes="cssscccc"
         id="path783"
         d="m 220.7751,410.9803 c 0.0758,1.0317 3.2211,1.7127 8.8448,2.0611 5.6236,0.3482 1.668,-1.69 11.6559,-1.9895 9.9879,-0.2996 102.4685,-7.98 115.637,-8.892 13.1682,-0.9118 31.7909,-4.2119 46.7705,-6.932 4.4192,-0.5378 8.6217,-1.1325 8.3192,-5.2591 l -183.0938,14.5209 c -6.1418,0.2446 -8.436,2.3639 -8.1336,6.4906 z"
         style="font-size:12px;fill:url(#linearGradient1513);fill-rule:evenodd"
         inkscape:connector-curvature="0" /><path
         sodipodi:nodetypes="cccc"
         id="path785"
         d="m 236.1969,410.2811 c -0.3016,6.0331 -29.6401,4.5662 -29.3384,-1.4668 0.1768,-3.5363 7.4884,-5.5706 15.59,-5.1655 8.1016,0.4051 13.3322,2.4406 13.7484,6.6323 z"
         style="font-size:12px;fill:url(#radialGradient1515);fill-rule:evenodd"
         inkscape:connector-curvature="0" /></g><g
       id="g804"><path
         transform="matrix(0.999784,0.02079077,-0.02079077,0.999784,-27.17906,37.18106)"
         sodipodi:ry="34.795837"
         sodipodi:rx="275.82074"
         sodipodi:cy="374.26746"
         sodipodi:cx="243.57092"
         d="M 519.39166,374.26746 A 275.82074,34.795837 0 0 1 243.57092,409.06329 275.82074,34.795837 0 0 1 -32.249817,374.26746 275.82074,34.795837 0 0 1 243.57092,339.47162 275.82074,34.795837 0 0 1 519.39166,374.26746 Z"
         id="path625"
         style="fill:url(#radialGradient1517);fill-opacity:1;fill-rule:evenodd;stroke:none"
         sodipodi:type="arc" /><path
         sodipodi:nodetypes="cccsc"
         id="path801"
         d="m 111.5849,446.765 c -76.56654,-6.2226 -99.60029,-9.1991 -100.91175,-9.1991 -1.201003,-0.3314 -7.109455,-0.007 -6.888484,-2.9544 0,-1.0694 0.812593,-1.8524 4.027854,-1.1173 22.7823,5.0987 44.95298,7.1058 103.77238,13.2708 z"
         style="font-size:12px;fill:url(#linearGradient1519);fill-rule:evenodd;stroke-width:1"
         inkscape:connector-curvature="0" /><path
         sodipodi:nodetypes="cccsc"
         id="path803"
         d="m 301.2494,387.1998 c 76.5939,5.8766 99.6408,8.7491 100.9523,8.7431 1.2025,0.326 7.1094,-0.0255 6.9018,2.9233 0.005,1.0694 -0.8042,1.856 -4.0228,1.1355 -22.8051,-4.9958 -44.9847,-6.9027 -103.8313,-12.8019 z"
         style="font-size:12px;fill:url(#linearGradient1521);fill-rule:evenodd;stroke-width:1"
         inkscape:connector-curvature="0" /></g></g></svg>