<?xml version="1.0" encoding="UTF-8" standalone="no"?>
<!-- Created with Inkscape (http://www.inkscape.org/) -->

<svg
   width="46.188538"
   height="47.016064"
   viewBox="0 0 46.188538 47.016064"
   version="1.1"
   id="svg1184"
   xmlns="http://www.w3.org/2000/svg"
   xmlns:svg="http://www.w3.org/2000/svg"
   xmlns:rdf="http://www.w3.org/1999/02/22-rdf-syntax-ns#"
   xmlns:cc="http://creativecommons.org/ns#"
   xmlns:dc="http://purl.org/dc/elements/1.1/">
  <metadata
     id="metadata73">
    <rdf:RDF>
      <cc:Work
         rdf:about="">
        <dc:format>image/svg+xml</dc:format>
        <dc:type
           rdf:resource="http://purl.org/dc/dcmitype/StillImage" />
      </cc:Work>
    </rdf:RDF>
  </metadata>
  <defs
     id="defs1181" />
  <g
     id="layer9"
     style="display:inline"
     transform="translate(-122.85588,-115.45524)">
    <path
       class="polygon"
       d="m 158.15354,115.71662 -0.10946,2.76597 -0.12643,3.20474 -0.0934,2.35509 -0.1241,3.14346 -0.12751,3.21363 -0.17322,4.38227 -0.11296,2.83223 0.0537,0.0662 1.35961,-0.13697 2.01156,0.12356 0.49166,-0.008 0.61631,0.24663 0.47492,0.0742 1.02279,0.63809 1.2004,0.48322 0.76556,-0.97433 -0.40306,-0.58678 -0.30128,-0.29954 0.0468,-0.26168 4.16901,2.52322 -0.49168,0.38918 -1.0618,0.89919 -1.92418,1.53723 -1.72373,1.37631 -1.65858,1.24826 -1.49431,1.12406 -0.17597,0.11173 -1.89463,0.80229 -0.3162,0.36967 -0.4081,1.58843 -0.18541,0.39362 0.34359,0.88185 0.34239,1.36241 -0.10946,0.71093 -1.31062,0.87698 -0.60069,0.78949 -0.26441,0.51004 -0.23547,-0.13252 -0.40591,-0.0399 -0.93536,0.19763 -0.4521,0.0444 -0.37754,0.22601 -0.0375,0.49054 0.24995,0.79611 0.09,0.41037 -0.26339,0.18927 -1.15193,0.47823 -0.45428,0.47219 -0.43592,0.73326 -0.50558,0.30674 -0.52725,-0.057 -0.37355,0.10822 -0.79783,0.55006 -1.2026,1.06397 -0.64526,0.79007 -0.0145,0.59021 0.12181,0.52996 -4.37724,-1.87462 -1.45761,-0.32018 -6.1472,0.0387 -2.63736,-0.73659 -3.00539,-1.42251 -2.03163,-1.29169 -4.74414,-3.61671 0.29783,-0.29178 0.2505,-0.67367 0.30958,-0.69486 -0.18872,-0.80171 -0.11296,-0.65028 0.35017,-0.94595 -0.0331,-0.70991 0.16316,-0.43762 0.51892,-0.28291 0.27286,-0.54115 -1.47708,-1.86404 10e-4,-0.42542 0.19486,-0.52337 1.19761,-1.99155 1.42418,-2.36791 1.57118,-2.61285 0.94482,-1.57117 3.45023,-0.002 2.28273,-0.002 2.89849,-0.001 3.15124,-0.002 2.06671,-0.001 0.85291,-0.0171 -0.14471,-1.02223 0.1107,-1.12907 0.37801,-1.02553 v -0.45267 l -0.6169,-0.55349 -1.19367,-0.32235 -0.66477,-0.4894 -0.002,-0.62016 -0.29179,-0.74994 -0.57844,-0.88027 -1.20095,-0.90079 -1.82226,-0.92029 -1.55114,-1.23547 -1.28055,-1.55167 -1.08347,-0.99829 -0.83408,-0.41756 -0.19716,-0.22157 2.4414,0.0206 2.30943,0.0195 0.0161,-2.22369 0.0145,-1.97596 0.0148,-2.23093 4.18629,0.002 4.99915,0.003 5.18566,0.003 4.07382,0.003 z"
       id="path2358-2"
       style="fill:#8936e7;fill-opacity:1;fill-rule:evenodd;stroke:#505050;stroke-width:0.5;stroke-linecap:round;stroke-linejoin:round;stroke-miterlimit:4;stroke-dasharray:none;stroke-opacity:1" />
  </g>
</svg>
