<?xml version="1.0" encoding="UTF-8" standalone="no"?>
<!-- Created with Inkscape (http://www.inkscape.org/) -->

<svg
   xmlns:dc="http://purl.org/dc/elements/1.1/"
   xmlns:cc="http://creativecommons.org/ns#"
   xmlns:rdf="http://www.w3.org/1999/02/22-rdf-syntax-ns#"
   xmlns:svg="http://www.w3.org/2000/svg"
   xmlns="http://www.w3.org/2000/svg"
   xmlns:sodipodi="http://sodipodi.sourceforge.net/DTD/sodipodi-0.dtd"
   xmlns:inkscape="http://www.inkscape.org/namespaces/inkscape"
   width="66"
   height="66"
   id="svg4191"
   version="1.1"
   inkscape:version="0.92.1 r15371"
   sodipodi:docname="apply_disabled.svg">
  <defs
     id="defs4193" />
  <sodipodi:namedview
     id="base"
     pagecolor="#1d1d1d"
     bordercolor="#666666"
     borderopacity="1.0"
     inkscape:pageopacity="0"
     inkscape:pageshadow="2"
     inkscape:zoom="10.348485"
     inkscape:cx="-3.333821"
     inkscape:cy="28.40112"
     inkscape:document-units="px"
     inkscape:current-layer="layer1"
     showgrid="false"
     fit-margin-top="0"
     fit-margin-left="0"
     fit-margin-right="0"
     fit-margin-bottom="0"
     inkscape:window-width="1884"
     inkscape:window-height="1051"
     inkscape:window-x="0"
     inkscape:window-y="0"
     inkscape:window-maximized="1" />
  <metadata
     id="metadata4196">
    <rdf:RDF>
      <cc:Work
         rdf:about="">
        <dc:format>image/svg+xml</dc:format>
        <dc:type
           rdf:resource="http://purl.org/dc/dcmitype/StillImage" />
        <dc:title></dc:title>
        <dc:date>2015</dc:date>
        <dc:creator>
          <cc:Agent>
            <dc:title>Timothée Giet</dc:title>
          </cc:Agent>
        </dc:creator>
        <cc:license
           rdf:resource="http://creativecommons.org/licenses/by-sa/4.0/" />
      </cc:Work>
      <cc:License
         rdf:about="http://creativecommons.org/licenses/by-sa/4.0/">
        <cc:permits
           rdf:resource="http://creativecommons.org/ns#Reproduction" />
        <cc:permits
           rdf:resource="http://creativecommons.org/ns#Distribution" />
        <cc:requires
           rdf:resource="http://creativecommons.org/ns#Notice" />
        <cc:requires
           rdf:resource="http://creativecommons.org/ns#Attribution" />
        <cc:permits
           rdf:resource="http://creativecommons.org/ns#DerivativeWorks" />
        <cc:requires
           rdf:resource="http://creativecommons.org/ns#ShareAlike" />
      </cc:License>
    </rdf:RDF>
  </metadata>
  <g
     inkscape:label="Calque 1"
     inkscape:groupmode="layer"
     id="layer1"
     transform="translate(-342.68073,-498.66483)">
    <path
       sodipodi:nodetypes="sssss"
       inkscape:connector-curvature="0"
       style="fill:#999999;fill-opacity:1;stroke:#ffffff;stroke-width:1.99999988;stroke-linecap:round;stroke-miterlimit:4;stroke-dasharray:none;stroke-opacity:1"
       d="m 375.67772,499.72754 c -17.7715,0 -32.19212,14.36355 -32.19212,32.06477 0,17.70121 14.42062,32.0709 32.19212,32.0709 17.77151,0 32.19824,-14.36969 32.19824,-32.0709 0,-17.70121 -14.42673,-32.06477 -32.19824,-32.06477 z"
       id="path3728" />
    <g
       style="display:inline"
       id="CHECKED-3"
       transform="matrix(1.609767,0,0,1.6033967,-861.87658,-33.95082)">
      <path
         id="path3728-7"
         d="m 773.07672,341.10868 c 0.0585,-6.4e-4 0.1174,0.002 0.1765,0.004 0.0523,0.002 0.1048,0.007 0.1573,0.0115 0.007,4.8e-4 0.0128,-5.1e-4 0.0192,0 0.0976,0.008 0.197,0.0196 0.2955,0.0345 0.6222,0.0942 1.2567,0.33219 1.8459,0.72148 l 1.6579,1.09373 c 1.82,1.20248 2.495,3.37287 1.5159,4.86615 -0.7363,1.12292 -2.1907,1.53173 -3.642,1.15513 l -4.1868,13.37807 c -0.4804,1.53539 -2.0353,2.43321 -3.6074,2.15293 -0.008,-8.2e-4 -0.0153,-0.003 -0.0231,-0.004 -0.9587,-0.1091 -1.944,-0.61882 -2.7055,-1.48517 l -5.0887,-5.79103 c -1.4334,-1.63076 -1.5121,-3.89242 -0.1727,-5.07338 1.3393,-1.18095 3.5747,-0.81719 5.0081,0.81359 l 2.0455,2.32562 3.7494,-11.99652 c 0.0157,-0.0502 0.0357,-0.097 0.0537,-0.14583 0.002,-0.007 0.002,-0.0156 0.004,-0.023 0.0741,-0.26012 0.1886,-0.51118 0.3416,-0.74451 0.5419,-0.82645 1.4729,-1.26447 2.506,-1.28945 0.0168,-4.1e-4 0.0329,-0.004 0.0499,-0.004 z"
         style="fill:#ffffff;fill-opacity:1;stroke:none;stroke-linecap:round"
         inkscape:connector-curvature="0"
         sodipodi:nodetypes="cccccccccccccccccccccccc" />
    </g>
  </g>
</svg>
