<svg xmlns:dc="http://purl.org/dc/elements/1.1/" xmlns:cc="http://creativecommons.org/ns#" xmlns:rdf="http://www.w3.org/1999/02/22-rdf-syntax-ns#" xmlns="http://www.w3.org/2000/svg" width="64" height="64" version="1.1" id="svg14"><metadata id="metadata4"><rdf:RDF><cc:Work><dc:format>image/svg+xml</dc:format><dc:type rdf:resource="http://purl.org/dc/dcmitype/StillImage"/><dc:title/><dc:date>2015</dc:date><dc:creator><cc:Agent><dc:title>Timothée Giet</dc:title></cc:Agent></dc:creator><cc:license rdf:resource="http://creativecommons.org/licenses/by-sa/4.0/"/></cc:Work><cc:License rdf:about="http://creativecommons.org/licenses/by-sa/4.0/"><cc:permits rdf:resource="http://creativecommons.org/ns#Reproduction"/><cc:permits rdf:resource="http://creativecommons.org/ns#Distribution"/><cc:requires rdf:resource="http://creativecommons.org/ns#Notice"/><cc:requires rdf:resource="http://creativecommons.org/ns#Attribution"/><cc:permits rdf:resource="http://creativecommons.org/ns#DerivativeWorks"/><cc:requires rdf:resource="http://creativecommons.org/ns#ShareAlike"/></cc:License></rdf:RDF></metadata><g id="g12"><circle style="fill:#999;fill-opacity:1;stroke:#fff;stroke-width:2;stroke-linejoin:round;stroke-miterlimit:4;stroke-dasharray:none;stroke-opacity:1" id="path877" cx="32" cy="32" r="30.5"/><g style="display:inline;stroke-width:1.05348" id="g10" transform="matrix(.94735 0 0 .95112 .736 .489)"><path d="M773.077 341.109c.058-.001.117.002.176.004.053.002.105.007.158.011h.019a4.614 4.614 0 0 1 2.141.756l1.658 1.094c1.82 1.202 2.495 3.373 1.516 4.866-.736 1.123-2.19 1.532-3.642 1.155l-4.187 13.378c-.48 1.536-2.035 2.433-3.607 2.153-.008 0-.016-.003-.023-.004-.96-.109-1.944-.619-2.706-1.485l-5.089-5.791c-1.433-1.63-1.512-3.892-.172-5.073 1.339-1.181 3.574-.818 5.008.813l2.045 2.326 3.75-11.997c.015-.05.035-.097.053-.146l.004-.023c.075-.26.189-.51.342-.744.542-.827 1.473-1.265 2.506-1.29.017 0 .033-.004.05-.004z" style="fill:#fff;fill-opacity:1;stroke:none;stroke-width:1.05348;stroke-linecap:round" transform="matrix(1.60977 0 0 1.6034 -1204.557 -532.616)" id="path8"/></g></g></svg>