<?xml version="1.0" encoding="UTF-8" standalone="no"?>
<!-- Created with Inkscape (http://www.inkscape.org/) -->

<svg
   xmlns:dc="http://purl.org/dc/elements/1.1/"
   xmlns:cc="http://creativecommons.org/ns#"
   xmlns:rdf="http://www.w3.org/1999/02/22-rdf-syntax-ns#"
   xmlns:svg="http://www.w3.org/2000/svg"
   xmlns="http://www.w3.org/2000/svg"
   xmlns:xlink="http://www.w3.org/1999/xlink"
   xmlns:sodipodi="http://sodipodi.sourceforge.net/DTD/sodipodi-0.dtd"
   xmlns:inkscape="http://www.inkscape.org/namespaces/inkscape"
   width="66"
   height="66"
   id="svg4211"
   version="1.1"
   inkscape:version="0.48.3.1 r9886"
   sodipodi:docname="bar_exit.svg">
  <defs
     id="defs4213">
    <linearGradient
       inkscape:collect="always"
       xlink:href="#linearGradient2806"
       id="linearGradient19936"
       gradientUnits="userSpaceOnUse"
       gradientTransform="matrix(0.196489,0,0,0.196489,405.6821,137.41089)"
       x1="274.81769"
       y1="284.70993"
       x2="324.22366"
       y2="480.46399" />
    <linearGradient
       id="linearGradient2806">
      <stop
         style="stop-color:white;stop-opacity:1;"
         offset="0"
         id="stop2808" />
      <stop
         style="stop-color:white;stop-opacity:0;"
         offset="1"
         id="stop2810" />
    </linearGradient>
    <linearGradient
       id="linearGradient2806-3-7">
      <stop
         style="stop-color:white;stop-opacity:1;"
         offset="0"
         id="stop2808-8-1" />
      <stop
         style="stop-color:white;stop-opacity:0;"
         offset="1"
         id="stop2810-4-9" />
    </linearGradient>
    <linearGradient
       inkscape:collect="always"
       xlink:href="#linearGradient2806-6"
       id="linearGradient20738"
       gradientUnits="userSpaceOnUse"
       gradientTransform="matrix(0.196489,0,0,0.196489,405.68875,368.25399)"
       x1="274.81769"
       y1="284.70993"
       x2="324.22366"
       y2="480.46399" />
    <linearGradient
       id="linearGradient2806-6">
      <stop
         style="stop-color:white;stop-opacity:1;"
         offset="0"
         id="stop2808-0" />
      <stop
         style="stop-color:white;stop-opacity:0;"
         offset="1"
         id="stop2810-8" />
    </linearGradient>
    <linearGradient
       inkscape:collect="always"
       xlink:href="#linearGradient2806-7"
       id="linearGradient15060"
       gradientUnits="userSpaceOnUse"
       gradientTransform="matrix(0.196491,0,0,0.196491,405.56722,60.315417)"
       x1="274.81769"
       y1="284.70993"
       x2="324.22366"
       y2="480.46399" />
    <linearGradient
       id="linearGradient2806-7">
      <stop
         style="stop-color:white;stop-opacity:1;"
         offset="0"
         id="stop2808-3" />
      <stop
         style="stop-color:white;stop-opacity:0;"
         offset="1"
         id="stop2810-5" />
    </linearGradient>
    <linearGradient
       y2="480.46399"
       x2="324.22366"
       y1="284.70993"
       x1="274.81769"
       gradientTransform="matrix(0.196491,0,0,0.196491,405.56722,60.315417)"
       gradientUnits="userSpaceOnUse"
       id="linearGradient4402"
       xlink:href="#linearGradient2806-7"
       inkscape:collect="always" />
    <linearGradient
       inkscape:collect="always"
       xlink:href="#linearGradient2806-0"
       id="linearGradient2382"
       gradientUnits="userSpaceOnUse"
       gradientTransform="matrix(0.196491,0,0,0.196491,405.70665,290.84895)"
       x1="274.81769"
       y1="284.70993"
       x2="324.22366"
       y2="480.46399" />
    <linearGradient
       id="linearGradient2806-0">
      <stop
         style="stop-color:white;stop-opacity:1;"
         offset="0"
         id="stop2808-9" />
      <stop
         style="stop-color:white;stop-opacity:0;"
         offset="1"
         id="stop2810-2" />
    </linearGradient>
    <linearGradient
       y2="480.46399"
       x2="324.22366"
       y1="284.70993"
       x1="274.81769"
       gradientTransform="matrix(0.196491,0,0,0.196491,405.70665,290.84895)"
       gradientUnits="userSpaceOnUse"
       id="linearGradient4464"
       xlink:href="#linearGradient2806-0"
       inkscape:collect="always" />
  </defs>
  <sodipodi:namedview
     id="base"
     pagecolor="#ffffff"
     bordercolor="#666666"
     borderopacity="1.0"
     inkscape:pageopacity="0.0"
     inkscape:pageshadow="2"
     inkscape:zoom="0.35"
     inkscape:cx="-166.69224"
     inkscape:cy="124.70717"
     inkscape:document-units="px"
     inkscape:current-layer="layer1"
     showgrid="false"
     fit-margin-top="0"
     fit-margin-left="0"
     fit-margin-right="0"
     fit-margin-bottom="0"
     inkscape:window-width="503"
     inkscape:window-height="345"
     inkscape:window-x="223"
     inkscape:window-y="213"
     inkscape:window-maximized="0" />
  <metadata
     id="metadata4216">
    <rdf:RDF>
      <cc:Work
         rdf:about="">
        <dc:format>image/svg+xml</dc:format>
        <dc:type
           rdf:resource="http://purl.org/dc/dcmitype/StillImage" />
        <dc:title></dc:title>
      </cc:Work>
    </rdf:RDF>
  </metadata>
  <g
     inkscape:label="Calque 1"
     inkscape:groupmode="layer"
     id="layer1"
     transform="translate(-541.69224,-591.06935)">
    <g
       style="stroke-width:2;stroke-miterlimit:4;stroke-dasharray:none;display:inline"
       id="CONFIG"
       transform="translate(96.817236,240.2881)">
      <path
         transform="matrix(-0.183872,0,0,0.183872,417.77855,324.94981)"
         d="m -157.47986,322.08786 c 0,92.94252 -75.3448,168.28732 -168.28732,168.28732 -92.94252,0 -168.28732,-75.3448 -168.28732,-168.28732 0,-92.94252 75.3448,-168.28732 168.28732,-168.28732 92.94252,0 168.28732,75.3448 168.28732,168.28732 z"
         sodipodi:ry="168.28732"
         sodipodi:rx="168.28732"
         sodipodi:cy="322.08786"
         sodipodi:cx="-325.76718"
         id="path16216"
         style="fill:#999999;fill-opacity:1;stroke-width:10.87713146;stroke-linecap:round;stroke-miterlimit:4;stroke-dasharray:none"
         sodipodi:type="arc" />
      <path
         id="path5756"
         d="m 477.88235,351.7862 c -17.664,0 -32,14.33603 -32,32 0,17.66398 14.3361,32.00001 32,32 17.664,0 32,-14.33601 32,-32 0,-17.66398 -14.336,-32 -32,-32 z m 5.1563,14.75 c 0.4292,0.0141 0.8801,0.14102 1.25,0.53125 0.7393,0.78004 0.8807,1.66991 -0.0313,2.65625 l -5.1875,5.0625 1.7813,6.21875 6.2187,1.875 5.4375,-5.28125 c 0.7293,-0.67976 1.6065,-0.50827 2.1563,0.0625 0.5167,0.5365 0.7846,1.09865 0.6562,1.9375 -0.4334,2.01178 -1.4197,3.92565 -3,5.46875 -3.2161,3.14051 -7.8754,3.84492 -11.7812,2.21875 -0.1298,0.15249 -0.2591,0.325 -0.4063,0.46875 l -11.8437,11.5625 c -2.0431,1.99508 -4.9558,2.30157 -6.5625,0.65625 l -0.3125,-0.3125 c -1.6067,-1.6453 -1.2306,-4.53618 0.8125,-6.53125 l 11.8437,-11.59375 c 0.1473,-0.14377 0.3132,-0.24892 0.4688,-0.375 -1.5329,-3.94338 -0.6849,-8.57821 2.5312,-11.71875 1.387,-1.35434 3.065,-2.24154 4.8125,-2.71875 0.3175,-0.0867 0.727,-0.20164 1.1563,-0.1875 z m -18.4688,28.1875 c -0.559,-0.007 -1.1287,0.20145 -1.5625,0.625 -0.8675,0.8471 -0.9096,2.2575 -0.0625,3.125 0.8471,0.86748 2.2576,0.84706 3.125,0 0.8675,-0.8471 0.8784,-2.22627 0.0313,-3.09375 -0.4236,-0.43375 -0.9723,-0.6496 -1.5313,-0.65625 z"
         style="fill:#f8d600;fill-opacity:1;stroke:#000000;stroke-width:2;stroke-linecap:round;stroke-miterlimit:4;stroke-dasharray:none"
         inkscape:connector-curvature="0" />
      <path
         sodipodi:nodetypes="csss"
         id="path5792"
         d="m 507.63785,380.29815 c 0.0657,6.92447 -59.4519,6.28838 -59.4598,0 -0.0187,-14.94367 13.319,-27.0719 29.7299,-27.0719 16.4109,0 29.5882,12.13153 29.7299,27.0719 z"
         style="fill:url(#linearGradient4464);fill-opacity:1;stroke-width:2;stroke-linecap:round;stroke-miterlimit:4;stroke-dasharray:none"
         inkscape:connector-curvature="0" />
    </g>
  </g>
</svg>
