<svg xmlns:dc="http://purl.org/dc/elements/1.1/" xmlns:cc="http://creativecommons.org/ns#" xmlns:rdf="http://www.w3.org/1999/02/22-rdf-syntax-ns#" xmlns="http://www.w3.org/2000/svg" width="64" height="64" version="1.1" id="svg12"><metadata id="metadata4"><rdf:RDF><cc:Work><dc:format>image/svg+xml</dc:format><dc:type rdf:resource="http://purl.org/dc/dcmitype/StillImage"/><dc:title/><dc:date>2015</dc:date><dc:creator><cc:Agent><dc:title>Timothée Giet</dc:title></cc:Agent></dc:creator><cc:license rdf:resource="http://creativecommons.org/licenses/by-sa/4.0/"/></cc:Work><cc:License rdf:about="http://creativecommons.org/licenses/by-sa/4.0/"><cc:permits rdf:resource="http://creativecommons.org/ns#Reproduction"/><cc:permits rdf:resource="http://creativecommons.org/ns#Distribution"/><cc:requires rdf:resource="http://creativecommons.org/ns#Notice"/><cc:requires rdf:resource="http://creativecommons.org/ns#Attribution"/><cc:permits rdf:resource="http://creativecommons.org/ns#DerivativeWorks"/><cc:requires rdf:resource="http://creativecommons.org/ns#ShareAlike"/></cc:License></rdf:RDF></metadata><g id="g10"><path style="fill:#53b9c9;fill-opacity:1;stroke:#fff;stroke-width:2;stroke-linecap:round;stroke-miterlimit:4;stroke-dasharray:none;stroke-opacity:1" d="M31.997 1.5C15.161 1.5 1.5 15.168 1.5 32.003 1.5 48.839 15.161 62.5 31.997 62.5S62.5 48.84 62.5 32.003 48.832 1.5 31.997 1.5z" id="path6"/><path d="M31.888 11.718c.038 0 .075.006.112.006 1.265-.017 2.59.496 3.622 1.528l13.244 13.244c1.887 1.887 2.058 4.755.382 6.431-1.255 1.254-3.17 1.471-4.847.715.026.177.035.36.035.543v8.727c0 2.372-2.254 4.653-4.126 4.653H23.848c-1.872 0-4.133-2.281-4.133-4.653.081-3.004-.294-5.704-.093-8.727 0-.194.019-.386.047-.572-1.693.79-3.647.584-4.916-.686-1.678-1.677-1.506-4.545.38-6.431l13.244-13.244c1.003-1.003 2.28-1.52 3.511-1.535zm.135 10.113c-.86.007-1.726.585-2.867 1.716l-4.022 3.979c-1.191 1.18-1.416 2.577-1.416 4.266v8.668c0 1.536 1.43 3.148 3.203 3.148h10.165c1.772 0 3.195-1.61 3.195-3.148v-8.668c0-1.917-.391-2.989-1.615-4.266l-3.816-3.98c-1.11-1.157-1.967-1.722-2.827-1.715z" style="display:inline;fill:#fff;fill-opacity:1;stroke:none;stroke-width:2;stroke-linecap:round;stroke-miterlimit:4;stroke-dasharray:none" id="path8"/></g></svg>