<svg xmlns:dc="http://purl.org/dc/elements/1.1/" xmlns:cc="http://creativecommons.org/ns#" xmlns:rdf="http://www.w3.org/1999/02/22-rdf-syntax-ns#" xmlns="http://www.w3.org/2000/svg" width="64" height="64" version="1.1" id="svg14"><metadata id="metadata4"><rdf:RDF><cc:Work><dc:format>image/svg+xml</dc:format><dc:type rdf:resource="http://purl.org/dc/dcmitype/StillImage"/><dc:title/><dc:date>2015</dc:date><dc:creator><cc:Agent><dc:title>Timothée Giet</dc:title></cc:Agent></dc:creator><cc:license rdf:resource="http://creativecommons.org/licenses/by-sa/4.0/"/></cc:Work><cc:License rdf:about="http://creativecommons.org/licenses/by-sa/4.0/"><cc:permits rdf:resource="http://creativecommons.org/ns#Reproduction"/><cc:permits rdf:resource="http://creativecommons.org/ns#Distribution"/><cc:requires rdf:resource="http://creativecommons.org/ns#Notice"/><cc:requires rdf:resource="http://creativecommons.org/ns#Attribution"/><cc:permits rdf:resource="http://creativecommons.org/ns#DerivativeWorks"/><cc:requires rdf:resource="http://creativecommons.org/ns#ShareAlike"/></cc:License></rdf:RDF></metadata><g id="g12"><path style="fill:#669ab2;fill-opacity:1;stroke:#fff;stroke-width:2;stroke-linecap:round;stroke-miterlimit:4;stroke-dasharray:none;stroke-opacity:1" d="M32 1.5C15.164 1.5 1.5 15.164 1.5 32S15.164 62.5 32 62.5 62.5 48.836 62.5 32 48.836 1.5 32 1.5z" id="path6"/><g style="display:inline;stroke-width:2.09836;stroke-miterlimit:4;stroke-dasharray:none" id="g10" transform="matrix(.95313 0 0 .95313 .54 .543)"><path d="M403.039 366.536c.429.014.88.141 1.25.531.739.78.88 1.67-.032 2.657l-5.187 5.062 1.781 6.219 6.219 1.875 5.437-5.281c.73-.68 1.607-.509 2.157.062.516.537.784 1.099.656 1.938a10.764 10.764 0 0 1-3 5.468c-3.216 3.141-7.876 3.845-11.781 2.22-.13.152-.26.324-.407.468l-11.843 11.562c-2.043 1.996-4.956 2.302-6.563.657l-.312-.313c-1.607-1.645-1.23-4.536.812-6.531l11.844-11.594c.147-.144.313-.249.469-.375-1.533-3.943-.685-8.578 2.53-11.719 1.388-1.354 3.066-2.241 4.813-2.718.318-.087.727-.202 1.157-.188zm-18.47 28.188a2.198 2.198 0 0 0-1.562.625c-.867.847-.91 2.257-.062 3.125.847.867 2.257.847 3.125 0a2.182 2.182 0 0 0 .031-3.094 2.158 2.158 0 0 0-1.531-.656z" style="fill:#fff;fill-opacity:1;stroke:none;stroke-width:2.09836;stroke-linecap:round;stroke-miterlimit:4;stroke-dasharray:none" transform="translate(-364.875 -350.781)" id="path8"/></g></g></svg>