<!--Created with Inkscape (http://www.inkscape.org/)--><svg xmlns:dc="http://purl.org/dc/elements/1.1/" xmlns:cc="http://creativecommons.org/ns#" xmlns:rdf="http://www.w3.org/1999/02/22-rdf-syntax-ns#" xmlns="http://www.w3.org/2000/svg" xmlns:sodipodi="http://sodipodi.sourceforge.net/DTD/sodipodi-0.dtd" xmlns:inkscape="http://www.inkscape.org/namespaces/inkscape" width="66" height="66" inkscape:version="0.91 r13725" sodipodi:docname="loading.svg"><sodipodi:namedview pagecolor="#8b8b8b" bordercolor="#666666" borderopacity="1.0" inkscape:pageopacity="0" inkscape:pageshadow="2" inkscape:zoom="7.919596" inkscape:cx="18.813066" inkscape:cy="26.991488" inkscape:document-units="px" inkscape:current-layer="layer1" showgrid="false" fit-margin-top="0" fit-margin-left="0" fit-margin-right="0" fit-margin-bottom="0" inkscape:window-width="1600" inkscape:window-height="1141" inkscape:window-x="1356" inkscape:window-y="0" inkscape:window-maximized="1"/><metadata><rdf:RDF><cc:Work><dc:format>image/svg+xml</dc:format><dc:type rdf:resource="http://purl.org/dc/dcmitype/StillImage"/><dc:title/></cc:Work></rdf:RDF></metadata><g inkscape:label="Calque 1" inkscape:groupmode="layer"><g style="stroke-width:2;stroke-miterlimit:4;stroke-dasharray:none;display:inline;stroke:#fff;stroke-opacity:1;fill:none;fill-opacity:1"><path d="M561.637 351.786c-17.663 0-32.003 14.34-32.003 32.003 0 17.664 14.34 31.997 32.003 31.997 17.664 0 31.997-14.333 31.997-31.997s-14.333-32.003-31.997-32.003z" style="fill:none;fill-opacity:1;stroke:#fff;stroke-width:2;stroke-linecap:round;stroke-miterlimit:4;stroke-dasharray:none;stroke-opacity:1" inkscape:connector-curvature="0" sodipodi:nodetypes="sssss" transform="translate(-528.625 -350.781)"/></g><g style="display:inline;stroke-width:2;stroke-miterlimit:4;stroke-dasharray:none"><path d="M641.92 362.139c1.959.017 3.852.305 5.649.822a5.256 5.256 0 0 0-.958.535c-1.385.993-2.115 2.66-2.223 4.126l-.282 3.85a13.417 13.417 0 0 0-2.628-.203c-6.89.146-12.365 5.863-12.22 12.754a12.5 12.5 0 0 0 .215 2.038c.483-2.34 2.545-4 4.87-3.8 2.518.215 4.353 2.519 4.126 5.17l-.982 11.488c-.007.08-.014.16-.025.24v.005a4.45 4.45 0 0 1-.135.81c-.344 1.294-1.229 2.292-2.37 2.85l-.013.006c-.063.03-.125.064-.19.092l-.012.006-.05.019a4.359 4.359 0 0 1-1.976.374c-.06-.003-.118 0-.179-.006-.018-.002-.036-.01-.055-.012h-.037a5.141 5.141 0 0 1-.927-.16l-11.138-2.96c-2.09-.555-3.503-2.32-3.61-4.273-.026-.45.019-.911.14-1.37.542-2.034 2.435-3.357 4.538-3.346a21.543 21.543 0 0 1-1.308-6.981c-.252-11.926 9.216-21.816 21.141-22.069.213-.004.428-.008.639-.006zm8.375 1.522c.087 0 .177.002.264.006.06.003.118.001.178.006l.056.006.036.006c.307.024.619.072.928.154l11.132 2.96c2.089.555 3.503 2.327 3.61 4.28.025.45-.02.91-.14 1.369-.566 2.125-2.607 3.47-4.821 3.334a21.54 21.54 0 0 1 1.547 7.583c.253 11.926-9.221 21.816-21.147 22.068a21.058 21.058 0 0 1-6.938-1.02 5.582 5.582 0 0 0 1.455-.705c1.398-.975 2.144-2.631 2.272-4.096l.307-3.518c.882.161 1.793.234 2.714.215 6.89-.146 12.359-5.863 12.213-12.754a12.49 12.49 0 0 0-.252-2.24c-.618 2.134-2.582 3.595-4.777 3.407-2.518-.216-4.36-2.52-4.132-5.17l.982-11.482c.007-.081.014-.166.025-.246v-.006c.02-.267.063-.536.135-.804.344-1.293 1.235-2.297 2.376-2.856l.012-.006c.064-.03.126-.064.19-.092l.013-.006c.015-.007.033-.006.049-.012a4.348 4.348 0 0 1 1.713-.38z" style="fill:#fff;fill-opacity:1;stroke:none;stroke-width:2;stroke-linecap:round;stroke-miterlimit:4;stroke-dasharray:none" inkscape:connector-curvature="0" sodipodi:nodetypes="ccccccccccccccccccccccccccccscccccccccccccscccccsccscccccccccccc" transform="matrix(-1 0 0 1 674.644 -350.781)"/></g></g></svg>