<svg xmlns:dc="http://purl.org/dc/elements/1.1/" xmlns:cc="http://creativecommons.org/ns#" xmlns:rdf="http://www.w3.org/1999/02/22-rdf-syntax-ns#" xmlns="http://www.w3.org/2000/svg" xmlns:xlink="http://www.w3.org/1999/xlink" xmlns:sodipodi="http://sodipodi.sourceforge.net/DTD/sodipodi-0.dtd" xmlns:inkscape="http://www.inkscape.org/namespaces/inkscape" xml:space="preserve" sodipodi:version="0.32" viewBox="0 0 299.97088 432.06769" version="1.0" sodipodi:docname="tuxballoon.svg" inkscape:version="0.92.1 r15371"><sodipodi:namedview bordercolor="#666666" borderopacity="1.0" pagecolor="#ffffff" showgrid="false" inkscape:zoom="1.8101934" inkscape:cx="-101.15384" inkscape:cy="195.19102" inkscape:window-width="1884" inkscape:window-height="1051" inkscape:window-x="0" inkscape:window-y="0" inkscape:window-maximized="1" inkscape:current-layer="layer2" fit-margin-top="0" fit-margin-left="0" fit-margin-right="0" fit-margin-bottom="0" inkscape:snap-global="false"/><defs><linearGradient inkscape:collect="always" xlink:href="#a" id="b" x1="940.9632" y1="637.41199" x2="945.6795" y2="650.04968" gradientUnits="userSpaceOnUse" gradientTransform="matrix(1 0 0 1.08592 0 -53.897)"/><linearGradient inkscape:collect="always" id="a"><stop style="stop-color:#275eb1;stop-opacity:1" offset="0"/><stop style="stop-color:#e6ecf9;stop-opacity:1" offset="1"/></linearGradient><linearGradient inkscape:collect="always" xlink:href="#a" id="c" x1="940.9632" y1="637.41199" x2="945.6795" y2="650.04968" gradientUnits="userSpaceOnUse" gradientTransform="matrix(-1 0 0 1.08592 1919.998 -53.897)"/><linearGradient inkscape:collect="always" xlink:href="#a" id="d" x1="940.9632" y1="637.41199" x2="945.6795" y2="650.04968" gradientUnits="userSpaceOnUse" gradientTransform="matrix(1 0 0 1.08592 0 -53.897)"/><linearGradient inkscape:collect="always" xlink:href="#a" id="e" x1="940.9632" y1="637.41199" x2="945.6795" y2="650.04968" gradientUnits="userSpaceOnUse" gradientTransform="matrix(-1 0 0 1.08592 1919.998 -53.897)"/></defs><metadata><rdf:RDF><cc:Work><dc:format>image/svg+xml</dc:format><dc:type rdf:resource="http://purl.org/dc/dcmitype/StillImage"/><cc:license rdf:resource="http://creativecommons.org/licenses/by-sa/4.0/"/><dc:publisher><cc:Agent rdf:about="http://openclipart.org/"><dc:title/></cc:Agent></dc:publisher><dc:title/><dc:date>2015</dc:date><dc:description>Based on a drawing by Francesco &apos;Architetto&apos; Rolandin from http://openclipart.org/detail/32719/architetto----pallone-aerestatico-by-anonymous</dc:description><dc:source/><dc:creator><cc:Agent><dc:title>Timothée Giet</dc:title></cc:Agent></dc:creator><dc:subject><rdf:Bag/></dc:subject></cc:Work><cc:License rdf:about="http://creativecommons.org/licenses/by-sa/4.0/"><cc:permits rdf:resource="http://creativecommons.org/ns#Reproduction"/><cc:permits rdf:resource="http://creativecommons.org/ns#Distribution"/><cc:requires rdf:resource="http://creativecommons.org/ns#Notice"/><cc:requires rdf:resource="http://creativecommons.org/ns#Attribution"/><cc:permits rdf:resource="http://creativecommons.org/ns#DerivativeWorks"/><cc:requires rdf:resource="http://creativecommons.org/ns#ShareAlike"/></cc:License></rdf:RDF></metadata><g inkscape:groupmode="layer" inkscape:label="Layer 2"><path inkscape:connector-curvature="0" d="M70.732 389.48c-4.449.19-4.238 8.273.286 8.088-.267 8.827.52 18.614-.37 26.874-3.956 1.187-1.754 8.152 2.483 6.272 48.127-.127 96.323.252 144.409-.188 2.455-1.109 2.106-5.947-.826-6.119.158-8.87-.31-18.34.224-26.848 5.472-.597 3.357-10.214-2.178-8.089-48.01.007-96.02-.013-144.028.01z" style="fill:#4e2506;fill-opacity:1"/><path d="M178.731 324.183c22.542-28.893 45.381-57.397 66.886-87.09 10.551-14.57 19.829-29.859 29.024-45.298 8.06-13.53 16.933-29.95 20.05-45.534 8.873-44.327-3.77-95.73-49.69-113.51l-69.84 240.462-16.26 55.987c6.594-1.675 13.204-3.35 19.814-5.024" inkscape:connector-curvature="0" style="fill:#ec854d"/><path d="M164.166 327.697c5.8-28.72 11.787-56.504 19.919-84.588l42.961-148.377c5.984-20.66 11.965-41.322 17.948-61.983 16.157 4.995 27.112 15.673 32.772 31.516 5.973 16.716 9.11 34.297 8.22 52.094-1.82 36.369-23.842 69.829-41.57 100.513-11.61 20.095-24.386 39.557-36.767 59.181-6.45 10.224-12.875 20.466-19.133 30.81-3.368 5.569-6.65 11.189-9.975 16.783-1.346 2.243-12.262 4.142-14.386 4.053" inkscape:connector-curvature="0" style="fill:#dc6133"/><path d="m159.141 328.953 35.04-47.117c6.586-8.859 13.175-17.718 19.763-26.575 3.722-5.005 7.285-6.893 13.476-2.619 6.703 4.395.31 8.579-3.344 14.08-5.256 7.224-10.943 14.187-16.494 21.187-5.383 6.786-10.731 13.618-16.278 20.273-3.894 4.67-8.816 15.036-14.82 16.575-5.248 1.331-12.411 4.262-17.346 4.187" inkscape:connector-curvature="0" style="fill:#e92f2f" sodipodi:nodetypes="csccccccc"/><path d="M297.96 124.37c-4.351-5.487-9.727-10.665-17.922-11.482-3.288-.327-2.87.038-4.094-3.018l-5.55-13.83c-8.466-21.096-16.931-42.195-25.397-63.294 19.01 7.869 30.933 19.665 41.509 37.136 9.735 16.114 10.856 36.241 11.44 54.488" inkscape:connector-curvature="0" style="fill:#e9cd2f"/><path d="M223.4 250.878c-8.558 14.118-17.573 27.942-26.28 41.966-4.4 7.085-8.94 14.127-13.109 21.35-1.025 1.778-4.305 9.58-6 10.035l-13.854 3.71c1.525-7.873 3.707-10.738 8.498-17.179l23.81-32.014 19.391-26.072c2.213-2.976 4.89-2.602 7.537-1.795" inkscape:connector-curvature="0" style="fill:#c31414"/><path sodipodi:nodetypes="cccccc" d="M268.336 46.302c18.621 22.357 17.571 43.77 17.571 68.026-1.67-.83-8.585-1.005-9.03-2.116L267.1 87.846l-22.109-55.1c8.24 2.548 18.035 8.346 23.344 13.556" inkscape:connector-curvature="0" style="fill:#e9a62f"/><path d="M173.198 324.183c18.04-31.914 37.542-62.982 56.401-94.419 9.553-15.923 18.279-32.288 26.885-48.737 7.773-14.859 15.449-31.567 18.347-48.164 6.363-36.451-3.29-74.166-29.132-100.907-4.098-4.238-30.107-21.56-32.092-10.399l-7.1 39.923c-15.687 88.163-31.374 176.325-47.046 264.494l-.574 3.228a15430.5 15430.5 0 0 1 14.296-5.025" inkscape:connector-curvature="0" style="fill:#ec854d"/><path d="M160.652 326.187c11.01-81.258 27.68-161.924 41.979-242.646l9.61-54.244c.606-3.428 1.215-6.859 1.822-10.288.65-3.66 16.215 2.494 18.38 3.577 15.704 7.844 21.214 28.047 24.85 43.949 3.732 16.316 4.514 35.296 1.763 51.788-6.013 36.05-24.67 70.528-39.881 103.421-15.242 32.962-30.846 65.712-45.367 99.007-2.243 5.1-7.641 5.847-13.16 5.428" inkscape:connector-curvature="0" style="fill:#dc6133"/><path d="M216.37 205.955c5.634-3.406 13.59-3.58 19.171-.318 5.84 3.414 5.169 6.415 2.54 11.494-7.224 13.95-14.915 27.57-23.213 40.91-7.992 12.845-16.577 25.323-24.742 38.061-4.159 6.489-8.436 12.946-12.209 19.67-1.694 3.02-3.008 7.811-6.409 9.003l-12.618 4.43c2.264-12.686 4.525-25.373 6.789-38.059 1.52-8.512 9.457-19.31 13.655-26.9 5.826-10.539 11.776-20.996 17.809-31.418 4.994-8.599 11.29-20.756 19.246-26.873" inkscape:connector-curvature="0" style="fill:#e92f2f" sodipodi:nodetypes="cccccccccccc"/><path d="M196.17 269.732c-4.587 10.323-9.089 20.689-13.733 30.986a727.87 727.87 0 0 0-7.97 18.286c-.725 1.734-1.236 5.25-3.256 5.61-3.438.61-6.876 1.221-10.313 1.833l2.752-22.223c.583-4.702.492-11.002 2.645-15.147 6.314-12.157 12.716-24.246 19.345-36.233 6.294-11.384 12.886-22.599 20.191-33.367 5.488-8.105 10.802-16.963 20.698-16.401-10.18 22.795-20.553 44.597-30.358 66.656z" inkscape:connector-curvature="0" style="fill:#c31414" sodipodi:nodetypes="ccccccccccc"/><path d="M276.621 112.573c-5.114-7.189-16.348-8.237-24.245-6.65-4.262.855-9.05-16.932-10.546-20.53-9.239-22.235-18.474-44.47-27.713-66.704 10.935.281 18.754 2.918 27.442 9.747 8.789 6.907 15.482 14.954 21.379 24.387 4.95 7.917 9.565 18.802 10.957 28.087 1.3 8.777 5.174 23.321 2.706 31.663" inkscape:connector-curvature="0" style="fill:#e9cd2f"/><path sodipodi:nodetypes="ccccccccc" d="M222.88 17.393c17.705 4.125 26.491 21.764 31.453 37.757 2.74 8.835 4.135 17.661 5.307 26.816.546 4.272 1.02 20.236.625 23.327-5.945.06-8.801.678-10.065 1.06-3.631-8.739-7.65-19.219-11.28-27.957-8.223-19.796-17.222-41.138-25.447-60.935-.043-.106-.09-.213-.133-.32 2.886.075 7.552.177 9.526.252" inkscape:connector-curvature="0" style="fill:#e9a62f"/><path d="M166.17 324.183c13.892-33.48 29.054-66.314 43.67-99.472 7.509-17.034 15.216-34.004 22.092-51.305 6.489-16.32 14.233-33.409 16.774-50.895 4.73-32.545.85-78.623-26.06-101.558-6.136-5.23-13.957-9.695-22.088-10.544-2.67-.28-13.25.036-13.63 3.753-1.149 11.17-2.296 22.339-3.443 33.51l-27.954 272.105c-.218 2.137-.44 4.274-.658 6.411 3.784-.673 7.552-1.33 11.306-2.003" inkscape:connector-curvature="0" style="fill:#ec854d"/><path d="M165.422 324.183c-3.117.408-6.99-.419-10.29-.748L180.69 74.882a603805.159 603805.159 0 0 1 6.288-61.168c.413-4.008 13.99-3.513 16.474-2.804 14.016 4.005 20.674 22.597 24.511 35.495 5.147 17.302 5.236 35.59 5.236 53.478 0 15.962-5.655 33.054-10.026 48.258-5.33 18.543-11.08 36.94-16.953 55.317-10.78 33.728-22.288 67.262-33.824 100.737-2.153 6.28-4.441 14.79-6.968 19.994" inkscape:connector-curvature="0" style="fill:#dc6133"/><path d="M154.88 326.187c1.038-10.076 2.08-20.154 3.12-30.232.832-8.055 3.155-13.69 6.24-21.236 6.71-16.41 13.419-32.944 20.914-49.014 2.953-6.328 5.751-18.088 13.15-20.008 2.308-.598 19.873.197 17.975 4.755-6.789 16.305-13.971 32.443-21.306 48.508-5.828 12.765-11.533 25.584-17.34 38.358-2.68 5.9-5.311 11.832-7.764 17.831-.553 1.352-2.6 8.832-3.955 9.073-3.649.673-7.328 1.316-11.006 1.974" inkscape:connector-curvature="0" style="fill:#e92f2f"/><path d="M165.422 324.183c-3.117.408-6.99-.419-10.29-.748l1.966-18.896c.53-5.09-.136-12.754 1.901-17.5 4.847-11.3 9.331-22.758 14.275-34.015 5.01-11.407 9.824-22.906 15.092-34.195 3.752-8.043 6.813-15.734 17.22-13.373-6.383 19.599-13.188 39.056-19.707 58.61-3.652 10.96-7.458 21.863-11.043 32.845-2.827 8.688-5.818 19.784-9.407 27.291" inkscape:connector-curvature="0" style="fill:#c31414"/><path sodipodi:nodetypes="cccccccc" d="M204.333 11.16c40.274 12.815 47.485 56.035 45.937 95.138-3.607-4.464-10.133-5.763-15.537-6.21-1.653-.138-11.105 1.857-11.303 1.383l-14.912-36.055-18.91-45.716c-.946-2.287-4.019-6.067-.965-7.284 5.084-2.024 10.408-2.882 15.702-1.256" inkscape:connector-curvature="0" style="fill:#e9cd2f"/><path d="M204.333 11.16c5.284.499 9.938 6.983 12.929 11.17 5.376 7.525 8.458 16.022 11.072 24.81 2.322 7.804 3.71 16.506 4.162 24.627.237 4.288 1.227 8.656.706 12.918-.33 2.694.15 14.025 0 16.305-.814-.734-9.673.785-9.897 1.141-3.303-7.987-6.607-16.94-9.91-24.928l-25.872-62.55c-1.974-4.796 14.146-4.314 16.823-3.493" inkscape:connector-curvature="0" style="fill:#e9a62f" sodipodi:nodetypes="ccccsccccc"/><path d="M159.141 324.183c22.683-69.202 48.375-138.449 63.153-209.882 3.564-17.227 1.012-35.98-.88-53.247-1.803-16.427-8.994-35.71-21.607-46.747-6.231-5.452-13.757-8.845-22.09-9.162-3.707-.142-7.472.473-10.794 2.135-4.679 2.34-3.877 7.415-4.475 12.09-2.44 19.006-2.692 38.644-3.911 57.755-4.552 71.257-8.685 142.644-11.718 213.98-.332 7.801-.543 15.616-1.002 23.41-.18 3.054-2.144 7.992 1.42 8.373 3.673.374 9.162.882 11.913 1.286" inkscape:connector-curvature="0" style="fill:#ec854d"/><path d="M149.355 323.181c2.662-71.852 3.073-143.682 7.25-215.49 1.01-17.361 2.234-34.71 3.303-52.067.55-8.918 1.194-17.825 1.828-26.738.421-5.923-1.209-19.917 6.071-21.996 3.656-1.045 6.526-1.758 10.419-1.758 3.834 0 7.566 5.823 9.645 8.538 5.207 6.804 7.98 15.57 9.641 23.882 3.544 17.736 4.26 35.81 3.728 53.871-1.012 34.351-6.451 69.643-13.243 103.299-7.326 36.313-15.278 72.477-24.942 108.247l-4.88 18.057c-1.256 4.636-4.247 2.557-8.814 2.139" inkscape:connector-curvature="0" style="fill:#dc6133"/><path sodipodi:nodetypes="ccccccccc" d="m159.141 324.183-10.29-1.002c2.414-15.732 5.775-31.472 10.351-46.73 2.368-7.89 4.539-15.832 7.222-23.62.795-2.308 1.975-8.007 4.392-8.973 3.209-1.283 6.547-1.187 9.914-.626 7.566 1.259 2.549 11.138 1.122 15.893-4.56 14.781-9.997 28.501-14.295 42.219-2.169 6.968-4.662 16.913-8.416 22.85" inkscape:connector-curvature="0" style="fill:#e92f2f"/><path d="m157.137 323.929-7.783-.752c1.328-6.447 1.734-13.547 3.263-20.227 2.072-9.055 4.519-18.019 6.883-27.002 2.26-8.588 4.702-17.195 7.678-25.568 2.307-6.49 4.404-7.53 10.795-7.53-3.117 13.344-6.377 26.637-9.602 39.95-1.823 7.528-3.878 14.986-5.858 22.473-1.405 5.339-2.617 14.222-5.368 18.663" inkscape:connector-curvature="0" style="fill:#c31414"/><path sodipodi:nodetypes="ccccccc" d="M181.228 5.386c41.078 8.646 43.867 64.278 42.81 96.834-7.526-6.288-23.988-9.28-32.514-3.453-6.67-17.78-12.323-36.008-17.64-54.237-2.759-9.459-5.55-18.917-8.422-28.341-1.68-5.514-2.241-8.002 3.97-10.051 3.678-1.208 9.106-1.054 11.798-.752" inkscape:connector-curvature="0" style="fill:#e9cd2f"/><path d="M178.97 5.135c18.125 11.656 20.785 38.499 21.836 58.107.509 9.467.001 32.501.001 32.501s-6.99 1.593-9.283 3.024c-6.499-17.32-12.051-35.072-17.228-52.829-2.75-9.43-5.592-18.833-8.378-28.254-1.34-4.536-3.795-7.839 1.002-10.541 3.604-2.023 8.06-2.008 12.053-2.008" inkscape:connector-curvature="0" style="fill:#e9a62f" sodipodi:nodetypes="cccccccc"/><path d="M107.437 320.16c-21.26-30.113-41.915-60.515-61.641-91.655-18.162-28.667-38.481-63.062-42.81-97.2-5.47-43.121 14.243-90.54 57.76-104.584l56.21 244.261c4.272 18.57 8.546 37.139 12.82 55.709-6.969-1.944-16.294-3.096-22.339-6.52" inkscape:connector-curvature="0" style="fill:#dc6133"/><path d="m75.556 245.614 26.958 41.628 17.716 27.355c2.617 4.041 4.962 9.89 9.546 12.094l-17.911-5.03c-5.276-1.483-6.426-4.11-9.45-8.65-6.179-9.276-12.81-18.318-19.296-27.389-5.961-8.34-11.52-16.952-17.262-25.438-2.47-4.359-7.026-8.787-4.106-11.558 2.941-3.68 9.702-3.68 13.805-3.021" inkscape:connector-curvature="0" style="fill:#c31414" sodipodi:nodetypes="cscccccccc"/><path sodipodi:nodetypes="ccccc" d="M60.496 26.722c-6.906 18.823-15.868 37-24.825 54.924-2.107 4.217-9.106 23.646-13.432 23.21-9.706-.976-16.333 5.7-20.229 13.74.367-43.128 18.297-77.133 58.486-91.874" inkscape:connector-curvature="0" style="fill:#e9a62f"/><path d="M113.46 322.18c-15.837-33.078-33.495-65.182-50.034-97.904-8.35-16.52-16.263-33.118-23.53-50.139-6.661-15.597-13.309-32.438-15.163-49.393-3.972-36.331 7.555-73.552 34.952-98.29 6.422-5.799 14.653-9.296 22.76-11.903 3.95-1.27 9.954-1.522 10.485 2.93l4.706 39.503a8256757.64 8256757.64 0 0 1 31.75 266.453l.39 3.263c-5.41-1.526-10.836-3.35-16.317-4.516" inkscape:connector-curvature="0" style="fill:#dc6133"/><path d="M126.01 322.673C110.35 289.504 92.514 257.5 75.977 224.77c-8.38-16.583-16.236-33.303-23.53-50.387-6.62-15.501-13.318-32.295-15.161-49.147-3.975-36.323 7.535-73.783 34.952-98.539 6.423-5.799 14.573-9.325 22.76-11.665 4.04-1.155 9.942-1.856 10.485 2.693l4.706 39.503c10.583 88.816 21.166 177.625 31.749 266.453-4.706-2.87-10.518-3.264-15.928-1.014" inkscape:connector-curvature="0" style="fill:#ec854d" sodipodi:nodetypes="csccsccccc"/><path d="M55.978 209.709c-.628-7.023 20.806-9.137 23.155-3.807l17.032 38.641c11.912 27.03 25.788 53.617 33.612 82.142-2.877-.81-16.983-4.104-18.145-6.567-2.872-6.085-5.286-9.53-8.422-15.484-5.585-10.607-9.769-22.009-15.408-32.587-5.3-9.94-10.653-19.838-15.773-29.876-6.346-10.139-12.319-23.612-16.05-32.45" inkscape:connector-curvature="0" style="fill:#c31414" sodipodi:nodetypes="ccccccccc"/><path d="M128.774 323.181c-5.037.283-13.366-22.624-15.903-27.475-5.006-9.578-9.766-19.291-14.904-28.803-11.258-20.842-22.163-42.348-32.588-63.619 3.631-.98 7.954-.63 11.42.755 2.752 1.096 3.136 3.693 4.33 6.404a1204685.17 1204685.17 0 0 1 38.995 88.473c3.073 6.954 8.733 17.512 8.65 24.256" inkscape:connector-curvature="0" style="fill:#e92f2f" sodipodi:nodetypes="ccccccccc"/><path sodipodi:nodetypes="ccccccccccc" d="M92.289 14.907c.883.045 1.147 7.518 1.251 8.487.739 6.832 1.084 11.775-.5 18.505-2.977 12.66-5.963 25.258-9.817 37.686-1.784 5.752-3.82 11.591-5.282 17.425-.496 1.977-18.067 2.18-20.493 2.406-11.75 1.098-22.865-2.115-33.35 5.627-1.805-7.492 1.81-19.845 3.39-27.741 2.008-10.036 6.446-18.944 11.224-27.903 9.097-17.054 25.99-29.396 44.123-34.976 7.987-1.58 6.303.323 9.454.484z" inkscape:connector-curvature="0" style="fill:#e9a62f"/><path d="m92.625 15.428 1.932 17.382c.526 4.736-2.037 11.31-3.122 15.925-2.556 10.864-5.345 21.61-8.653 32.274-1.52 4.9-2.835 9.847-4.455 14.72-1.286 3.862-11.01 2.767-14.746 3.116-8.98.84-17.915-.542-26.681.927 2.998-17.99 6.84-34.864 16.316-50.707 4.823-8.061 10.65-14.939 17.757-21.03 6.68-5.729 14.641-8.27 21.652-12.607" inkscape:connector-curvature="0" style="fill:#e9cd2f"/><path d="M120.49 322.673c-11.41-34.233-24.64-67.708-36.882-101.633-6.348-17.59-13-35.096-18.85-52.857-5.526-16.776-11.694-34.471-13.332-52.147-3.047-32.908 4.63-78.297 32.663-99.608 5.796-4.407 15.976-10.112 23.598-9.161 2.928.365 12.195 1.059 12.343 5.047l1.332 35.47c3.405 90.736 6.81 181.468 10.217 272.21l.205 5.44c-3.765-.927-7.53-1.839-11.295-2.766" inkscape:connector-curvature="0" style="fill:#dc6133"/><path d="M131.03 322.927c-11.434-34.296-24.583-67.873-36.96-101.823-12.372-33.935-28.872-69.924-32.233-106.227-1.668-18.035 1.053-37.01 6.061-54.391 4.572-15.864 12.651-34.598 27.096-44.04 7.007-4.58 15.515-9.48 24.239-8.8 3.02.234 11.205 1.299 11.35 5.162l1.365 36.356 10.193 271.553.187 4.969c-3.767-.912-7.532-1.824-11.298-2.752" inkscape:connector-curvature="0" style="fill:#ec854d"/><path d="M74.551 196.16c11.265-7.164 22.312-2.151 31.377 5.273 3.362 2.753 5.595 3.802 6.368 7.945 1.316 7.054 2.632 14.107 3.95 21.16 5.837 31.285 14.428 63.03 15.538 94.897l-9.233-2.257c-3.198-.78-3.012-3.299-4.061-6.388-2.164-6.375-4.422-12.705-6.701-19.039-4.14-11.5-8.48-22.887-12.934-34.268-4.407-11.262-8.844-22.5-13.09-33.824-5.49-13.271-7.99-26.14-11.214-33.497" inkscape:connector-curvature="0" style="fill:#c31414" sodipodi:nodetypes="ccccccccccc"/><path d="M131.533 323.181c-2.836-3.359-3.797-10.001-5.27-14.308-1.78-5.198-3.53-10.41-5.415-15.569a2889.497 2889.497 0 0 0-13.019-34.945c-8.249-21.698-17.179-43.894-24.65-65.888 10.742-2.037 17.554 4.68 25.26 11.1 7.235 6.029 6.685 20.968 8.34 29.837l10.973 58.805c1.748 9.36 5.548 21.698 3.78 30.97" inkscape:connector-curvature="0" style="fill:#e92f2f" sodipodi:nodetypes="ccccccccc"/><path sodipodi:nodetypes="cccccccccc" d="M117.853 9.778c3.257 1.953-2.946 12.838-4.395 16.334-4.913 11.848-10.856 23.206-16.387 34.769-5.132 10.725-10.757 21.49-16.711 31.782-.759 1.308-1.57 2.58-2.166 3.969-.749 1.748-1.183.034-2.636.124-2.705.169-5.717-.856-8.536-.752-5.28.19-11.8 1.24-16.316 4.018-.082-34.823 10.84-83.842 51.574-93.093 4.501-1.374 11.51.414 15.573 2.849z" inkscape:connector-curvature="0" style="fill:#e9a62f"/><path d="M113.208 8.148c1.715.459 3.415 1.08 5.02 1.881 2.659 1.33-1.388 7.92-2.451 10.484-4.61 11.12-9.835 21.82-15.026 32.67-5.13 10.723-10.786 21.107-16.246 31.659-1.356 2.621-2.67 5.265-4.148 7.82-1.554 2.684-1.557 4.792-4.427 4.218-4.891-.975-9.494-.929-14.434-.374 2.297-18.622 4.874-36.618 13.036-53.717 3.878-8.121 8.887-15.854 15.557-21.988 7.15-6.577 15.054-9.492 23.119-12.653" inkscape:connector-curvature="0" style="fill:#e9cd2f"/><path d="M127.266 323.181c-17.518-70.673-39.168-141.362-48.961-213.635-2.376-17.53 1.412-35.764 4.251-53.026 2.77-16.844 11.86-35.138 25.27-45.748 6.106-4.831 15.285-8.259 23.207-7.273 3.739.465 8.141 1.24 10.92 4.016 2.84 2.839 2.095 7.98 2.135 11.817.2 19.576.249 39.146.249 58.723 0 71.915-.783 143.927-2.33 215.819-.163 7.592-.431 15.189-.431 22.784 0 4.479 1.36 5.956-3.173 6.12-3.713.149-7.425.298-11.137.403" inkscape:connector-curvature="0" style="fill:#dc6133"/><path d="M134.293 322.927c-8.92-35.98-17.834-71.955-26.346-108.033-8.256-35.002-16.363-70.32-20.07-106.124-1.705-16.462.035-35.884 4.305-51.891 4.65-17.432 10.07-36.786 25.796-47.726 5.647-3.929 13.834-6.73 20.335-3.766 6.937 3.165 5.723 8.89 5.795 15.928.197 19.209.28 38.413.227 57.621-.206 73.045-.85 146.156-2.421 219.198-.117 5.376-.34 10.761-.34 16.139 0 1.424.913 7.483 0 8.409-.837.852-5.935.209-7.28.254" inkscape:connector-curvature="0" style="fill:#ec854d"/><path d="M138.815 315.39c.23.936 1.505 6.529 1.505 6.529-.814 1.534-4.31-.032-6.378.046-3.695.14-6.543 2.583-7.576-1.135-3.353-12.07-6.282-24.286-9.262-36.455-5.98-23.392-12.226-46.571-17.953-70.896 2.48-.902 4.728-2.652 7.782-2.76 1.747-.062 5.274.318 6.779 1.254 2.39 1.485 2.219 3.369 2.95 6.182a1286.41 1286.41 0 0 1 7.914 32.094c2.686 11.567 5.497 23.108 8.228 34.666 2.074 8.793 6.98 21.967 6.011 30.491" inkscape:connector-curvature="0" style="fill:#c31414" sodipodi:nodetypes="cccccccccscc"/><path d="M140.318 322.673c-.966.041-1.384.36-1.603-.465-.779-2.96-1.558-4.76-2.337-7.72-1.136-4.318-4.168-9.085-5.273-13.413-2.784-10.901-7.52-22.229-10.146-33.17-4.578-19.08-9.139-38.18-14.026-57.185 2.423.236 7.77-.576 10.016.548 2.949 1.473 3.02 9.438 3.85 12.93 2.906 12.202 3.717 26.162 6.66 38.356 4.815 19.919 9.02 40.122 12.86 60.1" inkscape:connector-curvature="0" style="fill:#e92f2f" sodipodi:nodetypes="cccccccscc"/><path sodipodi:nodetypes="scccss" d="M143.088 10.665c-3.504 8.954-7.01 17.91-10.513 26.866l-22.881 58.474c-8.54-4.682-24.561-5.224-32.13 1.507C77.95 64.17 86.05 8.896 126.01 2.855c3.24-.49 19.659 1.213 17.078 7.81z" inkscape:connector-curvature="0" style="fill:#e9a62f"/><path d="M87.355 93.241c1.846-17.03 2.315-37.03 9.384-52.934 6.909-15.545 15.8-34.117 34.961-36.25 3.446-.385 9.6 1.537 10.878 4.09 1.486 2.974-1.505 7.665-2.998 11.481L126.03 54.25l-16.339 41.755c-6.11-3.734-15.417-3.597-22.337-2.764" inkscape:connector-curvature="0" style="fill:#e9cd2f"/><path d="M135.55 323.675C122.196 251.66 112.03 180.026 109.7 106.75c-.534-16.795.604-34.458 3.685-50.96 3.347-17.924 7.175-36.774 21.57-49.206 4.182-3.613 18.016-9.163 20.619-1.361 2.682 8.04 2.316 16.798 2.316 25.183 0 18.127-.873 36.204-1.759 54.303-3.592 73.448-7.773 146.88-11.767 220.304a1977.29 1977.29 0 0 0-1.035 21.673c-2.553-1.017-5.143-2.228-7.769-3.005" inkscape:connector-curvature="0" style="fill:#dc6133"/><path d="M118.733 85.963c1.491-18.396 3.181-36.418 9.054-54.023 2.92-8.754 7.058-15.893 12.987-22.938 2.23-2.649 6.172-4.736 9.421-5.82 4.488-1.496 5.866.985 6.52 5.79 2.318 16.988 1.678 35.091.61 52.184-1.19 19.004-1.916 38.045-2.835 57.065-3.25 67.412-7.237 134.803-10.907 202.195-13.007-71.301-25.102-143.366-25.102-216.073 0-6.132.07-12.243.252-18.378" inkscape:connector-curvature="0" style="fill:#ec854d"/><path d="M142.83 203.697c6.367 8.494 6.159 14.92 5.697 25.412-.501 11.42-1.29 22.83-1.843 34.25-1.015 21.007-3.447 42.317-3.352 63.336-1.26-.504-9.272.551-9.51-.627-.847-4.154.241-10.922-.607-15.076a643.647 643.647 0 0 1-3.535-18.826c-2.444-14.121-4.664-28.262-7.069-42.389-2.274-13.37-3.867-26.968-5.512-40.433-.88-7.22 1.313-6.89 8.26-8.28 5.232-1.002 13.49.658 17.47 2.677" inkscape:connector-curvature="0" style="fill:#c31414" sodipodi:nodetypes="ccccccccccc"/><path d="M149.104 215.99c-1.26 34.832-3.938 69.608-5.521 104.425-4.889-26.38-9.545-52.753-13.582-79.278-.659-4.339-6.357-39.798-4.366-40.084 4.549-.65 13.626-.321 17.444 2.637 3.228 2.497 4.806 8.628 6.025 12.292" inkscape:connector-curvature="0" style="fill:#e92f2f"/><path d="M109.948 85.46c1.733-17.923 3.718-35.156 8.796-52.485 4.08-13.927 15.724-35.077 33.5-30.978 10.127 2.335 5.426 36.772 4.144 43.941-2.997 16.764-5.938 33.79-10.042 50.318-9.74-4.292-27.152-6.046-36.65-.252-.088-3.45.34-7.297.25-10.543" inkscape:connector-curvature="0" style="fill:#e92f2f"/><path sodipodi:nodetypes="cssccccc" d="M153.623 2.123c5.26 5.914 4.27 17.094 4.27 24.489 0 8.284-.117 16.552-.306 24.836-.338 14.852-2.546 30.022-1.956 44.808-7.463-1.247-14.958-2.252-22.527-2.599-7.062-.323-16.998-.217-23.409 3.12-.102-16.762 1.246-35.404 4.552-51.952 3.803-19.087 17.516-49.981 39.366-42.702" inkscape:connector-curvature="0" style="fill:#e9a62f"/><path sodipodi:nodetypes="ccccscccc" d="M118.733 85.963c1.339-16.505 2.253-33.635 7.534-49.47 2.737-8.2 5.42-16.694 11.087-23.428 3.504-4.164 13.447-14.793 18.028-8.433 4.058 5.636 2.512 18.051 2.512 24.6 0 8.456-.184 16.898-.377 25.351-.314 13.82-11.72 27.91-11.17 41.672-11.657-3.159-15.915-3.223-27.865-2.26-.01-2.717.187-5.35.242-8.032" inkscape:connector-curvature="0" style="fill:#e9cd2f"/><path d="M150.862 324.183c18.57-70.46 34.382-141.882 40.148-214.667 1.349-17.028 1.38-34.302-.407-51.294-1.917-18.234-5.081-36.798-18.159-50.529-2.77-2.905-6.81-4.229-10.54-5.407-1.66-.524-3.893-.542-5.61-.278-3.315.51-2.681 2.207-3.185 5.226-1.327 7.95-2.632 15.877-3.546 23.89-2.019 17.698-2.973 35.533-3.47 53.338-2.056 73.606-1.716 147.366-2.509 220.992-.076 7.08-.252 14.158-.252 21.238 2.234-.732 6.201-1.884 7.525-2.512" inkscape:connector-curvature="0" style="fill:#dc6133"/><path d="M150.36 324.183c1.669-73.379 1.898-146.811 2.72-220.2.381-33.89 1.16-68.393 7.07-101.851 17.072 2.68 25.423 22.501 27.918 37.762 3.084 18.854 4.268 37.64 3.721 56.745-.981 34.351-6.454 69.188-12.672 102.934-3.839 20.842-7.84 41.647-12.627 62.292-2.33 10.046-4.539 20.123-7.105 30.113l-5.677 22.105c-.643 2.437-1.376 9.406-3.367 10.109" inkscape:connector-curvature="0" style="fill:#ec854d"/><path d="M164.492 266.454c-2.822 10.608-4.688 21.177-7.516 31.783-1.56 5.85-2.03 11.696-3.601 17.54-.515 1.916-.872 6.945-2.26 8.409-1.32 1.395-5.898 1.904-7.782 2.512.218-28.776.342-57.623.342-86.418 0-6.64-.079-13.286 0-19.925.27-3.457-.129-18.624 1.149-20.997 12.558-6.281 22.48-2.519 33.724 2.627-3.34 21.97-8.348 43-14.056 64.469z" inkscape:connector-curvature="0" style="fill:#c31414" sodipodi:nodetypes="cccccscccc"/><path d="M179.093 201.44c-3.198 21.041-7.489 41.805-12.753 62.427-2.596 10.169-3.571 20.352-6.438 30.45-1.377 4.854-2.917 9.661-4.324 14.507-1.327 4.564-2.052 12.078-4.964 15.613V245.59c0-14.373.237-28.74.43-43.111.06-4.324-.892-4.793 3.085-6.061 2.965-.947 7.56-.673 10.638-.437 5.608.419 10.426 2.348 14.33 5.458" inkscape:connector-curvature="0" style="fill:#e92f2f" sodipodi:nodetypes="cccccscccc"/><path d="m129.025 353.553-18.223-28.821c-.725-1.147-9.415-13.769-4.62-11.093 2.413 1.346 4.943 7.816 6.378 10.086 3.948 6.245 7.896 12.492 11.844 18.735 1.312 2.074 6.37 7.552 6.378 10.087.01 1.764-.791 1.69-1.757.986" inkscape:connector-curvature="0" style="fill:#2a2a2a;fill-opacity:1"/><path style="color:#000;display:inline;overflow:visible;visibility:visible;opacity:1;fill:#c31414;fill-opacity:1;fill-rule:nonzero;stroke:none;stroke-width:1;stroke-linecap:round;stroke-linejoin:round;stroke-miterlimit:4;stroke-dasharray:none;stroke-dashoffset:0;stroke-opacity:1;marker:none;enable-background:accumulate" sodipodi:type="arc" sodipodi:cx="145.46178" sodipodi:cy="320.93655" sodipodi:rx="35.430233" sodipodi:ry="9.9861279" sodipodi:start="0" sodipodi:end="5.9206281" sodipodi:open="true" d="M180.892 320.937a35.43 9.986 0 0 1-32.223 9.945 35.43 9.986 0 0 1-38.057-8.145 35.43 9.986 0 0 1 25.334-11.42 35.43 9.986 0 0 1 42.643 6.078"/><path d="m136.806 352.805 13.759-31.237c.53-1.2 5.976-15.17 6.825-10.432.347 1.938-3.646 8.108-4.43 9.928l-8.803 20.378-5.312 12.296c-.888 2.034-2.03-.628-2.045-.927" inkscape:connector-curvature="0" style="fill:#2a2a2a;fill-opacity:1"/><path sodipodi:nodetypes="cccccccc" d="M153.623 2.123c23.085-2.527 33.728 25.165 35.717 44.08a496.998 496.998 0 0 1 2.512 36.372c.157 4.955.924 11.727-.32 16.192-11.358-7.61-33.467-7.774-45.958-2.317.054-14.654.907-27.217 1.79-39.891.66-9.484 1.381-18.926 2.562-28.362.975-7.796 1.917-18.17 3.697-26.074" inkscape:connector-curvature="0" style="fill:#e9a62f"/><path d="M153.369 84.456c.6-27.378 2.007-55.326 6.776-82.333 21.933 3.442 26.787 30.846 29.725 48.822 1.728 10.562 2.143 19.144 2.412 29.814-.238 4.448-.658 12.59-.756 18.008-9.218-7.647-27.115-6.338-38.157-4.52.015-3.264.015-6.528.015-9.791" inkscape:connector-curvature="0" style="fill:#e9cd2f" sodipodi:nodetypes="ccccccc"/><path d="M107.437 320.16c3.601 3.579 9.786 4.557 14.55 5.657 3.585.83 14.8 4.868 12.81-.888-2.301-6.66-27.019-14.057-27.36-4.517" inkscape:connector-curvature="0" style="fill:none;stroke:#363636;stroke-width:1.49541569;stroke-linecap:square;stroke-miterlimit:10"/><path d="M107.437 320.16c3.601 3.579 9.786 4.557 14.55 5.657 3.585.83 14.8 4.868 12.81-.888-2.612-7.552-28.395-12.382-27.36-4.77" inkscape:connector-curvature="0" style="fill:#c31414"/><path d="M107.437 320.16c-21.26-30.113-41.915-60.515-61.641-91.655-18.162-28.667-38.481-63.062-42.81-97.2-4.535-35.75 7.868-74.052 37.92-95.37 6.916-4.906 15.048-7.51 22.137-12.021 6.126-3.9 12.471-8.208 19.792-9.493 2.513-.441 3.197-.015 5.522-1.003 1.754-.747 3.27-1.977 5.02-2.762 3.176-1.423 6.451-2.052 9.79-2.886 1.906-.476 3.654-.377 5.522-.377 3.393 0 4.698-.516 8.032-1.757 5.075-1.89 10.062-2.009 15.313-2.009 3.24 0 3.964.793 7.028 0 3.836-.991 7.597-2.698 11.672-1.883 6.369 1.275 12.149-.577 18.218 3.213 2.98 1.861 10.192.01 14.165.804 2.965.592 5.458 1.415 8.158 2.76 3.29 1.643 4.2 1.381 7.529 1.632 5.54.417 10.604 2.418 15.564 4.895 1.819.907 3.257 2.092 4.895 3.263 1.673 1.194 3.741.288 5.647 1.005 3.684 1.384 6.923 2.847 10.29 4.894 3.482 2.118 6.621 4.467 9.791 7.029 3.435 2.773 7.238 3.906 10.968 6.267 33.355 21.124 42.304 56.052 41.752 93.45-.253 17.109-9.66 35.157-17.322 49.962-8.508 16.439-18.35 31.961-28.688 47.297-17.433 25.863-36.663 50.65-56.283 74.884-5.296 6.54-10.5 13.136-15.678 19.772-2.518 3.228-12.431.703-16.137.507-18.722-.986-37.446-1.975-56.169-2.963" inkscape:connector-curvature="0" style="fill:none;stroke:none;stroke-linecap:square;stroke-miterlimit:10"/><path d="m178.97 323.435-18.724 23.985c-.9 1.152-4.223 6.96-5.806 6.858-6.571-.421-6.987 0-9.815-5.65-7.613-15.221-19.638-27.576-37.195-28.208 5.754-13.243 73.423-9.59 71.79 3.017" inkscape:connector-curvature="0" style="fill:none;stroke:#2a2a2a;stroke-width:1.49541569;stroke-linecap:square;stroke-miterlimit:10"/><path d="M178.97 323.435c-10.864-7.969-31.106-6.781-43.928-6.781-7.418 0-15.066-.253-22.311 1.564-3.707.928-4.596 3.209-6.928-.132l-7.66-10.969c5.766-3.879 14.48-4.037 21.186-4.357 8.178-.39 16.32-.582 24.5-.162 13.474.691 33.91-.05 45.184 8.536-3.264 4.1-6.525 8.2-9.79 12.303" inkscape:connector-curvature="0" style="fill:none;stroke:#363636;stroke-width:1.49541569;stroke-linecap:square;stroke-miterlimit:10"/><path d="M111.637 390.738c-.068.686.16 1.386.706 1.938a2.92 2.92 0 0 0 1.917.843v-.488a2.737 2.737 0 0 1-.593-.451c-.426-.432-.664-1.309-.715-1.846z" inkscape:connector-curvature="0" style="fill:#1c1c1c"/><path d="M174.126 390.738a2.396 2.396 0 0 1-.707 1.938 2.92 2.92 0 0 1-1.917.843v-.488c.215-.123.416-.272.593-.451.426-.432.664-1.309.715-1.846z" inkscape:connector-curvature="0" style="fill:#1a1a1a"/><path d="M163.427 362.618c.697.06 1.293.63 1.45 1.45l5.488 28.84h-4.808l-5.26-27.65c-.191-1.01.362-2.011 1.25-2.241l1.377-.355a1.51 1.51 0 0 1 .503-.045z" inkscape:connector-curvature="0" style="fill:#a40"/><rect x="121.27865" y="352.69165" width="45.534092" height="2.3470521" ry="1.1735379" style="fill:#2a2a2a;fill-opacity:1"/><path d="m168.397 349.647 5.721 41.105c.042.297-.228.568-.604.607-.376.04-.712-.166-.754-.463l-5.72-41.105c-.042-.297.227-.568.604-.608.376-.04.712.167.753.464z" inkscape:connector-curvature="0" style="fill:#1a1a1a"/><path d="m117.365 349.647-5.721 41.105c-.042.297.228.568.604.607.376.04.712-.166.754-.463l5.72-41.105c.042-.297-.227-.568-.604-.608-.376-.04-.712.167-.753.464z" inkscape:connector-curvature="0" style="fill:#1a1a1a"/><path d="M85.531 393.45h38.466c-.117-6.35-9.457-17.136-20.01-17.136-10.554 0-18.338 10.785-18.456 17.136z" inkscape:connector-curvature="0" style="fill:#f2f2f2;fill-opacity:1" sodipodi:nodetypes="cccc"/><path style="fill:#2a2a2a;fill-opacity:1" d="M102.967 337.498c-4.165-.004-12.334 4.533-15.338 10.943-3.004 6.411-1.578 17.857-1.964 22.016-.385 4.16-1.065 5.209-2.686 9.95-1.622 4.741-7.691 13.356-5.511 12.907l9.83.137c.12-2.935.547-4.277 3.438-7.715 2.89-3.438 11.157-9.239 15.767-7.374 4.61 1.865 7.415 6.967 9.242 10.374 1.099 1.375.571 5.01 2.863 4.715 11.144.86 14.347 1.219 13.861-1.43-2.224-7.942-9.32-15.765-9.364-22.186.045-3.904.645-7.37-.156-14.495-.802-7.125-11.921-17.23-17.056-17.7-5.135-.472 1.24-.139-2.926-.142z" inkscape:connector-curvature="0" sodipodi:nodetypes="zzzzcczzcccczzz"/><path d="M93.378 375.157c1.917-3.52 10.736 5.42 10.736 5.42s9.902-9.36 11.144-5.42c1.479 4.684 1.452 7.646 0 13.19-1.034 3.954-11.144-5.112-11.144-5.112s-9.05 8.7-10.736 5.112c-1.775-3.779-2.313-8.943 0-13.19z" inkscape:connector-curvature="0" style="fill:#d42323;fill-opacity:1"/><path style="fill:#b28b16;fill-opacity:1;fill-rule:evenodd;stroke:none;stroke-width:1px;stroke-linecap:butt;stroke-linejoin:miter;stroke-opacity:1" d="M92.481 368.138c-.294.374 5.602 10.718 11.414 10.718 5.813 0 11.707-10.344 11.412-10.718-4.459-.923-7.61-1.946-11.414-1.935-3.803.012-7.602.978-11.412 1.935z" inkscape:connector-curvature="0" sodipodi:nodetypes="ccczc"/><g style="display:inline"><path sodipodi:nodetypes="zzzz" inkscape:connector-curvature="0" d="M939.016 625.167c8.223-3.274 13.362 12.734 11.801 21.21-1.56 8.477-9.504 12.463-16.25 5.307-6.746-7.157-3.775-23.242 4.449-26.517z" style="fill:#f2f2f5;fill-opacity:1;stroke:none" transform="matrix(.38418 0 0 .38418 -264.883 112.223)"/><path sodipodi:nodetypes="zzz" inkscape:connector-curvature="0" d="M942.972 636.293c6.989-.193 7.867 17.204 1.526 16.26-6.34-.943-8.514-16.066-1.526-16.26z" style="display:inline;fill:url(#b);fill-opacity:1;stroke:none" transform="matrix(.38418 0 0 .38418 -264.883 112.223)"/><path sodipodi:nodetypes="zzz" inkscape:connector-curvature="0" d="M943.913 641.709c2.95-.087 3.321 7.675.645 7.254-2.677-.42-3.595-7.168-.645-7.254z" style="fill:#171717;fill-opacity:1;stroke:none" transform="matrix(.38418 0 0 .38418 -264.883 112.223)"/><path sodipodi:nodetypes="zzzz" inkscape:connector-curvature="0" d="M980.92 625.167c-8.223-3.274-13.361 12.734-11.8 21.21 1.56 8.477 9.504 12.463 16.25 5.307 6.746-7.157 3.774-23.242-4.449-26.517z" style="display:inline;fill:#f2f2f5;fill-opacity:1;stroke:none" transform="matrix(.38418 0 0 .38418 -264.883 112.223)"/><path sodipodi:nodetypes="zzz" inkscape:connector-curvature="0" d="M977.026 636.293c-6.989-.193-7.868 17.204-1.526 16.26 6.34-.943 8.514-16.066 1.526-16.26z" style="display:inline;fill:url(#c);fill-opacity:1;stroke:none" transform="matrix(.38418 0 0 .38418 -264.883 112.223)"/><path sodipodi:nodetypes="zzz" inkscape:connector-curvature="0" d="M976.087 641.709c-2.95-.087-3.321 7.675-.645 7.254 2.677-.42 3.595-7.168.645-7.254z" style="display:inline;fill:#171717;fill-opacity:1;stroke:none" transform="matrix(.38418 0 0 .38418 -264.883 112.223)"/><path sodipodi:nodetypes="zzz" inkscape:connector-curvature="0" d="M941.33 639.5c2.594-.066 2.92 5.77.566 5.453-2.354-.317-3.16-5.389-.566-5.454z" style="display:inline;fill:#fff;fill-opacity:.90232556;stroke:none" transform="matrix(.38418 0 0 .38418 -264.883 112.223)"/><path sodipodi:nodetypes="zzz" inkscape:connector-curvature="0" d="M942.1 645.818c1.704-.034 1.918 3.048.372 2.88-1.547-.167-2.077-2.846-.373-2.88z" style="display:inline;fill:#fff;fill-opacity:.76744187;stroke:none" transform="matrix(.38418 0 0 .38418 -264.883 112.223)"/><path sodipodi:nodetypes="zzz" inkscape:connector-curvature="0" d="M974.668 639.5c-2.594-.066-2.92 5.77-.566 5.453 2.354-.317 3.16-5.389.566-5.454z" style="display:inline;fill:#fff;fill-opacity:.90232556;stroke:none" transform="matrix(.38418 0 0 .38418 -264.883 112.223)"/><path sodipodi:nodetypes="zzz" inkscape:connector-curvature="0" d="M973.898 645.818c-1.704-.034-1.919 3.048-.372 2.88 1.547-.167 2.077-2.846.372-2.88z" style="display:inline;fill:#fff;fill-opacity:.76744187;stroke:none" transform="matrix(.38418 0 0 .38418 -264.883 112.223)"/></g><path d="M100.314 337.233c-2.92 3.265-1.974 5.39-6.706 9.289-4.732 3.9-7.28 3.16-10.43 4.832 2.983-3.52 1.973-5.389 6.705-9.289 4.73-3.9 7.082-3.067 10.43-4.832z" inkscape:connector-curvature="0" style="fill:#ffdc54"/><path d="M128.198 351.11c-5.588-1.244-6.272 3.168-14.235-.599-7.964-3.767-10.026-9.369-14.602-13.043 5.955.323 6.396-.981 14.236.6 8.522 1.72 9.747 9.127 14.601 13.042z" inkscape:connector-curvature="0" style="fill:#ffdc54"/><path d="M102.153 336.006c-.499.5-.337.824-1.144 1.42-.808.597-1.242.483-1.78.739.51-.538.337-.824 1.144-1.42.807-.597 1.208-.47 1.78-.74z" inkscape:connector-curvature="0" style="fill:#f1d97b"/><path d="M98.078 335.317c.5.498.824.337 1.42 1.144.597.807.484 1.242.74 1.78-.539-.51-.825-.337-1.421-1.144-.597-.808-.47-1.209-.74-1.78z" inkscape:connector-curvature="0" style="fill:#f1d97b"/><path d="M124.619 349.42c-4.121-.919-4.625 2.335-10.5-.442-5.872-2.779-7.392-6.91-10.767-9.62 4.392.239 4.717-.724 10.499.443 6.285 1.267 7.188 6.73 10.769 9.619z" inkscape:connector-curvature="0" style="fill:#ffe67f"/><g style="stroke-linecap:round"><path style="fill:#9b9b9b;stroke:#9b9b9b;stroke-width:1.17190003" inkscape:connector-curvature="0" d="M-1058.3 2365.4h29.062v90.445h-29.062z" transform="matrix(.021 0 0 .021 137.287 332.434)"/><path style="fill:#0c770c;stroke:#0c770c;stroke-width:1.4648" inkscape:connector-curvature="0" d="M-1306.7 3017.3c-26.748 0-48.406 210.6-48.406 470.34 0 8.935.043 17.782.094 26.594h96.687c.051-8.812.094-17.659.094-26.594 0-259.75-21.691-470.34-48.469-470.34z" transform="matrix(.0168 0 0 .0168 137.287 332.434)"/><path style="fill:#9b9b9b;stroke:#9b9b9b;stroke-width:1.17190003" inkscape:connector-curvature="0" d="M-989.15 2808.6c0-207.82-15.407-341.43-36.829-341.43-5.18 0-10.289 10.078-15.07 29.625" transform="matrix(.021 0 0 .021 137.287 332.434)"/><path style="fill:#9b9b9b;stroke:#9b9b9b;stroke-width:1.17190003" inkscape:connector-curvature="0" d="M-1083.8 2743h76.992v9.07h-76.992z" transform="matrix(.021 0 0 .021 137.287 332.434)"/><g><path style="fill:#9b9b9b;stroke:#9b9b9b;stroke-width:1.17190003" inkscape:connector-curvature="0" d="M-978.92 2419.6h29.062v90.422h-29.062z" transform="matrix(.021 0 0 .021 137.287 332.342)"/><path style="fill:#1c1ce7;stroke:#1c1ce7;stroke-width:1.4648" inkscape:connector-curvature="0" d="M-1207.5 3085.1c-25.51 0-46.43 191.58-48.312 434.66h96.594c-1.882-243.08-22.771-434.66-48.281-434.66z" transform="matrix(.0168 0 0 .0168 137.287 332.342)"/><path style="fill:#9b9b9b;stroke:#9b9b9b;stroke-width:1.17190003" inkscape:connector-curvature="0" d="M-921.41 2800.8c0-207.82-3.812-279.46-25.21-279.46-5.18 0-10.312 10.055-15.07 29.602" transform="matrix(.021 0 0 .021 137.287 332.342)"/><path style="fill:#9b9b9b;stroke:#9b9b9b;stroke-width:1.17190003" inkscape:connector-curvature="0" d="M-1004.4 2797.3h76.992v9.047h-76.992z" transform="matrix(.021 0 0 .021 137.287 332.342)"/></g><g><path style="fill:#9b9b9b;stroke:#9b9b9b;stroke-width:1.17190003" inkscape:connector-curvature="0" d="M-897.59 2360.9h29.062v90.422h-29.062z" transform="matrix(.021 0 0 .021 137.287 332.342)"/><path style="fill:#e71c1c;stroke:#e71c1c;stroke-width:1.4648" inkscape:connector-curvature="0" d="M-1105.8 3011.7c-26.777 0-48.469 210.6-48.469 470.38 0 12.713.054 25.26.156 37.719h96.625a4601.8 4601.8 0 0 0 .157-37.719c0-259.78-21.722-470.38-48.47-470.38z" transform="matrix(.0168 0 0 .0168 137.287 332.342)"/><path style="fill:#9b9b9b;stroke:#9b9b9b;stroke-width:1.17190003" inkscape:connector-curvature="0" d="M-832.36 2779.9c0-207.82-11.534-317.23-32.933-317.23-5.18 0-10.312 10.055-15.07 29.602" transform="matrix(.021 0 0 .021 137.287 332.342)"/><path style="fill:#9b9b9b;stroke:#9b9b9b;stroke-width:1.17190003" inkscape:connector-curvature="0" d="M-923.09 2738.5h76.992v9.047h-76.992z" transform="matrix(.021 0 0 .021 137.287 332.342)"/></g><g><path style="fill:#9b9b9b;stroke:#9b9b9b;stroke-width:1.17190003" inkscape:connector-curvature="0" d="M-816.28 2388h29.086v90.445h-29.086z" transform="matrix(.021 0 0 .021 137.287 332.434)"/><path style="fill:#e7e71c;stroke:#e7e71c;stroke-width:1.4648" inkscape:connector-curvature="0" d="M-1004.2 3045.5c-26.72 0-48.376 209.71-48.469 468.72h96.906c-.092-259.01-21.747-468.72-48.438-468.72z" transform="matrix(.0168 0 0 .0168 137.287 332.434)"/><path style="fill:#9b9b9b;stroke:#9b9b9b;stroke-width:1.17190003" inkscape:connector-curvature="0" d="M-758.78 2801.1c0-207.82-3.788-311.42-25.187-311.42-5.18 0-10.312 10.078-15.094 29.625" transform="matrix(.021 0 0 .021 137.287 332.434)"/><path style="fill:#9b9b9b;stroke:#9b9b9b;stroke-width:1.17190003" inkscape:connector-curvature="0" d="M-841.76 2765.6h76.992v9.07h-76.992z" transform="matrix(.021 0 0 .021 137.287 332.434)"/></g></g><path d="M178.512 342.222c-3.702.06-7.307 1.168-10.165 3.15-4.087 2.834-6.791 7.19-7.932 12.792-.052.258-.119.612-.155.784-.036.172-.11.61-.156.975-.045.365-.122.97-.176 1.335-.127.858-.128 3.989 0 4.767.39 2.382.813 4.122 1.71 7.036.272.885.335 1.098.48 1.639.04.15.185.678.317 1.172.85 3.182.924 5.375.268 7.452-.479 1.52-1.237 2.686-2.733 4.174-1.071 1.07-2.283 4.665-3.072 6.29 2.878.329 29.671 0 50.171 0-.512-1.11-1.383-4.482-2.434-5.979-.578-.822-1.344-2.063-1.762-2.557-1.325-1.57-2.441-2.33-3.244-3.392-1.668-1.542-1.47-1.862-1.432-4.031.695-3.456.893-9.904.695-15.097.073-1.516-.01-2.305-.087-3.106-.275-2.83-.812-4.53-1.921-6.745-.88-1.755-1.986-3.268-3.44-4.719-1.627-1.623-3.204-2.75-5.319-3.793-2.577-1.271-5.03-1.917-8.024-2.112a19.63 19.63 0 0 0-1.59-.035z" inkscape:connector-curvature="0" style="fill:#2a2a2a;fill-opacity:1" sodipodi:nodetypes="cccccccccccccccccccccccccc"/><path d="M180.252 375.65c-7.573 0-13.713 9.69-13.797 18.137h27.6c-.084-8.447-6.23-18.137-13.802-18.137z" inkscape:connector-curvature="0" style="fill:#f2f2f2;fill-opacity:1" sodipodi:nodetypes="sccss"/><g style="display:inline"><path style="fill:#f2f2f5;fill-opacity:1;stroke:none" d="M939.016 625.167c8.223-3.274 13.362 12.734 11.801 21.21-1.56 8.477-9.504 12.463-16.25 5.307-6.746-7.157-3.775-23.242 4.449-26.517z" inkscape:connector-curvature="0" sodipodi:nodetypes="zzzz" transform="matrix(.38418 0 0 .38418 -188.784 112.223)"/><path style="display:inline;fill:url(#d);fill-opacity:1;stroke:none" d="M942.972 636.293c6.989-.193 7.867 17.204 1.526 16.26-6.34-.943-8.514-16.066-1.526-16.26z" inkscape:connector-curvature="0" sodipodi:nodetypes="zzz" transform="matrix(.38418 0 0 .38418 -188.784 112.223)"/><path style="fill:#171717;fill-opacity:1;stroke:none" d="M943.913 641.709c2.95-.087 3.321 7.675.645 7.254-2.677-.42-3.595-7.168-.645-7.254z" inkscape:connector-curvature="0" sodipodi:nodetypes="zzz" transform="matrix(.38418 0 0 .38418 -188.784 112.223)"/><path style="display:inline;fill:#f2f2f5;fill-opacity:1;stroke:none" d="M980.92 625.167c-8.223-3.274-13.361 12.734-11.8 21.21 1.56 8.477 9.504 12.463 16.25 5.307 6.746-7.157 3.774-23.242-4.449-26.517z" inkscape:connector-curvature="0" sodipodi:nodetypes="zzzz" transform="matrix(.38418 0 0 .38418 -188.784 112.223)"/><path style="display:inline;fill:url(#e);fill-opacity:1;stroke:none" d="M977.026 636.293c-6.989-.193-7.868 17.204-1.526 16.26 6.34-.943 8.514-16.066 1.526-16.26z" inkscape:connector-curvature="0" sodipodi:nodetypes="zzz" transform="matrix(.38418 0 0 .38418 -188.784 112.223)"/><path style="display:inline;fill:#171717;fill-opacity:1;stroke:none" d="M976.087 641.709c-2.95-.087-3.321 7.675-.645 7.254 2.677-.42 3.595-7.168.645-7.254z" inkscape:connector-curvature="0" sodipodi:nodetypes="zzz" transform="matrix(.38418 0 0 .38418 -188.784 112.223)"/><path style="display:inline;fill:#fff;fill-opacity:.90232556;stroke:none" d="M941.33 639.5c2.594-.066 2.92 5.77.566 5.453-2.354-.317-3.16-5.389-.566-5.454z" inkscape:connector-curvature="0" sodipodi:nodetypes="zzz" transform="matrix(.38418 0 0 .38418 -188.784 112.223)"/><path style="display:inline;fill:#fff;fill-opacity:.76744187;stroke:none" d="M942.1 645.818c1.704-.034 1.918 3.048.372 2.88-1.547-.167-2.077-2.846-.373-2.88z" inkscape:connector-curvature="0" sodipodi:nodetypes="zzz" transform="matrix(.38418 0 0 .38418 -188.784 112.223)"/><path style="display:inline;fill:#fff;fill-opacity:.90232556;stroke:none" d="M974.668 639.5c-2.594-.066-2.92 5.77-.566 5.453 2.354-.317 3.16-5.389.566-5.454z" inkscape:connector-curvature="0" sodipodi:nodetypes="zzz" transform="matrix(.38418 0 0 .38418 -188.784 112.223)"/><path style="display:inline;fill:#fff;fill-opacity:.76744187;stroke:none" d="M973.898 645.818c-1.704-.034-1.919 3.048-.372 2.88 1.547-.167 2.077-2.846.372-2.88z" inkscape:connector-curvature="0" sodipodi:nodetypes="zzz" transform="matrix(.38418 0 0 .38418 -188.784 112.223)"/></g><path d="M198.912 379.777c-22.235 15-36.15 1.161-36.15 1.161" inkscape:connector-curvature="0" style="fill:none;stroke:#c7c014;stroke-width:.45206749"/><path d="M179.306 362.18c0 3.456-3.087 6.258-6.896 6.258-3.809 0-6.896-2.802-6.896-6.259 0-3.456 3.087-6.258 6.896-6.258 3.809 0 6.896 2.802 6.896 6.258z" inkscape:connector-curvature="0" style="fill-opacity:.39216003"/><path style="fill:#b28b16;fill-opacity:1;fill-rule:evenodd;stroke:none;stroke-width:1px;stroke-linecap:butt;stroke-linejoin:miter;stroke-opacity:1" d="M168.718 368.822c-.295.374 5.601 10.718 11.414 10.718 5.812 0 11.706-10.344 11.412-10.718-4.46-.923-7.611-1.946-11.414-1.935-3.803.012-7.603.978-11.412 1.935z" inkscape:connector-curvature="0" sodipodi:nodetypes="ccczc"/><path d="M194.524 362.274c0 3.456-3.087 6.258-6.896 6.258-3.808 0-6.896-2.802-6.896-6.258 0-3.457 3.088-6.26 6.896-6.26 3.809 0 6.896 2.803 6.896 6.26z" inkscape:connector-curvature="0" style="fill-opacity:.39216003"/><path style="fill:#f1c43c;fill-opacity:1;fill-rule:evenodd;stroke:none;stroke-width:1px;stroke-linecap:butt;stroke-linejoin:miter;stroke-opacity:1" d="M169.607 369.164c-.295.374 4.712 8.395 10.525 8.395 5.812 0 10.612-7.884 10.317-8.258-4.459-.923-6.585-1.81-10.388-1.798-3.803.011-6.645.704-10.454 1.661z" inkscape:connector-curvature="0" sodipodi:nodetypes="ccczc"/><g style="stroke:#e31c1c;stroke-width:.5;stroke-linecap:round;stroke-linejoin:round;stroke-miterlimit:4;stroke-dasharray:none;stroke-opacity:1"><path style="fill:#e31c1c;fill-opacity:1;stroke:#e31c1c;stroke-width:.5;stroke-linecap:round;stroke-linejoin:round;stroke-miterlimit:4;stroke-dasharray:none;stroke-opacity:1" inkscape:connector-curvature="0" d="M200.873 361.037h6.249v.949h-6.249z" transform="translate(-38.271 .764) scale(.99051)"/><path style="fill:none;stroke:#e31c1c;stroke-width:.5;stroke-linecap:round;stroke-linejoin:round;stroke-miterlimit:4;stroke-dasharray:none;stroke-opacity:1" inkscape:connector-curvature="0" d="M219.895 364.877c0 3.49-3.116 6.319-6.962 6.319-3.845 0-6.962-2.829-6.962-6.319 0-3.49 3.117-6.318 6.962-6.318 3.845 0 6.962 2.829 6.962 6.318z" transform="translate(-38.271 .764) scale(.99051)"/><path style="fill:#e31c1c;fill-opacity:1;stroke:#e31c1c;stroke-width:.5;stroke-linecap:round;stroke-linejoin:round;stroke-miterlimit:4;stroke-dasharray:none;stroke-opacity:1" inkscape:connector-curvature="0" d="M219.356 362.554h2.56v.948h-2.56z" transform="translate(-38.271 .764) scale(.99051)"/><path style="fill:#e31c1c;fill-opacity:1;stroke:#e31c1c;stroke-width:.5;stroke-linecap:round;stroke-linejoin:round;stroke-miterlimit:4;stroke-dasharray:none;stroke-opacity:1" inkscape:connector-curvature="0" d="M233.96 361.037h6.702v.949h-6.702z" transform="translate(-38.271 .764) scale(.99051)"/><path style="fill:none;stroke:#e31c1c;stroke-width:.5;stroke-linecap:round;stroke-linejoin:round;stroke-miterlimit:4;stroke-dasharray:none;stroke-opacity:1" inkscape:connector-curvature="0" d="M235.26 364.973c0 3.489-3.118 6.318-6.963 6.318s-6.962-2.829-6.962-6.318c0-3.49 3.117-6.32 6.962-6.32 3.845 0 6.962 2.83 6.962 6.32z" transform="translate(-38.271 .764) scale(.99051)"/></g><path d="M179.744 342.221c20.183-6.663 17.46 36.009 17.46 36.009" inkscape:connector-curvature="0" style="fill:none;stroke:#9e301c;stroke-width:1.66447937;stroke-linecap:round"/><path d="M179.055 342.336c38.794-2.387 16.976 45.224 17.575 47.38" inkscape:connector-curvature="0" style="fill:none;stroke:#d18c5e;stroke-width:1.66447937;stroke-linecap:round"/><path d="M180.778 342.221c20.719-9.61 23.656 21.91 21.365 34.516" inkscape:connector-curvature="0" style="fill:none;stroke:#9e301c;stroke-width:1.66447937;stroke-linecap:round"/><path d="M183.764 342.796c17.776-1.59 18.908 28.621 16.426 42.786" inkscape:connector-curvature="0" style="fill:none;stroke:#d18c5e;stroke-width:1.66447937;stroke-linecap:round"/><path d="M180.203 342.796c20.698-10.241 19.53 20.23 17.762 48.027" inkscape:connector-curvature="0" style="fill:none;stroke:#9e301c;stroke-width:1.66447937;stroke-linecap:round"/><path d="M180.548 342.566c22.57-5.4 14.474 38.581 25.04 47.955" inkscape:connector-curvature="0" style="fill:none;stroke:#9e301c;stroke-width:1.66447937;stroke-linecap:round"/><path d="M180.892 343.485c22.57-5.401 12.5 38.109 23.066 47.48" inkscape:connector-curvature="0" style="fill:none;stroke:#d18c5e;stroke-width:1.66447937;stroke-linecap:round"/><path d="M179.744 342.221c20.183-6.663 17.46 36.009 17.46 36.009" inkscape:connector-curvature="0" style="fill:none;stroke:#9e301c;stroke-width:1.66447937;stroke-linecap:round"/><path d="M179.055 342.336c38.794-2.387 16.976 45.224 17.575 47.38" inkscape:connector-curvature="0" style="fill:none;stroke:#d18c5e;stroke-width:1.66447937;stroke-linecap:round"/><path style="fill:#f1c43c;fill-opacity:1;fill-rule:evenodd;stroke:none;stroke-width:1px;stroke-linecap:butt;stroke-linejoin:miter;stroke-opacity:1" d="M93.37 368.48c-.294.374 4.713 8.395 10.525 8.395 5.813 0 10.613-7.884 10.318-8.258-4.46-.923-6.585-1.81-10.388-1.798-3.803.011-6.645.704-10.454 1.661z" inkscape:connector-curvature="0" sodipodi:nodetypes="ccczc"/><g style="fill:#e31c1c;fill-opacity:1;stroke:#e31c1c;stroke-opacity:1"><path style="fill:#e31c1c;fill-opacity:1;stroke:#e31c1c;stroke-opacity:1" inkscape:connector-curvature="0" d="M81.208 359.57h7.833v1.032h-7.833z" transform="translate(1.35 .764) scale(.99051)"/><path style="fill:none;fill-opacity:1;stroke:#e31c1c;stroke-width:1.24192333;stroke-opacity:1" inkscape:connector-curvature="0" d="M102.945 363.75c0 3.797-3.393 6.876-7.578 6.876-4.185 0-7.578-3.079-7.578-6.877 0-3.799 3.393-6.878 7.578-6.878 4.185 0 7.578 3.08 7.578 6.878z" transform="translate(1.35 .764) scale(.99051)"/><path style="fill:#e31c1c;fill-opacity:1;stroke:#e31c1c;stroke-opacity:1" inkscape:connector-curvature="0" d="M118.253 359.57h7.295v1.032h-7.295z" transform="translate(1.35 .764) scale(.99051)"/><path style="fill:none;fill-opacity:1;stroke:#e31c1c;stroke-width:1.24192333;stroke-opacity:1" inkscape:connector-curvature="0" d="M119.666 363.853c0 3.799-3.392 6.878-7.578 6.878-4.185 0-7.578-3.08-7.578-6.878s3.393-6.877 7.578-6.877c4.186 0 7.578 3.079 7.578 6.877z" transform="translate(1.35 .764) scale(.99051)"/><path style="fill:#e31c1c;fill-opacity:1;stroke:#e31c1c;stroke-opacity:1" inkscape:connector-curvature="0" d="M102.356 363.22h2.787v1.033h-2.787z" transform="translate(1.35 .764) scale(.99051)"/></g><path d="M180.778 342.221c20.719-9.61 23.656 21.91 21.365 34.516" inkscape:connector-curvature="0" style="fill:none;stroke:#9e301c;stroke-width:1.66447937;stroke-linecap:round"/><path d="M183.764 342.796c17.776-1.59 18.908 28.621 16.426 42.786" inkscape:connector-curvature="0" style="fill:none;stroke:#d18c5e;stroke-width:1.66447937;stroke-linecap:round"/><path d="M180.977 342.796c20.698-10.241 21.562 20.146 19.793 47.942" inkscape:connector-curvature="0" style="fill:none;stroke:#9e301c;stroke-width:1.66447937;stroke-linecap:round"/><path d="M180.548 342.566c22.57-5.4 14.474 38.581 25.04 47.955" inkscape:connector-curvature="0" style="fill:none;stroke:#9e301c;stroke-width:1.66447937;stroke-linecap:round"/><path d="M181.279 343.678c22.57-5.4 14.975 36.599 25.542 45.97" inkscape:connector-curvature="0" style="fill:none;stroke:#d18c5e;stroke-width:1.66447937;stroke-linecap:round"/><path d="M180.207 342.336c-20.183-6.664-17.461 36.01-17.461 36.01" inkscape:connector-curvature="0" style="fill:none;stroke:#9e301c;stroke-width:1.66447937;stroke-linecap:round"/><path d="M180.896 342.451c-38.796-2.387-16.977 45.222-17.576 47.379" inkscape:connector-curvature="0" style="fill:none;stroke:#d18c5e;stroke-width:1.66447937;stroke-linecap:round"/><path d="M179.194 342.317c-19.667-9.62-22.457 21.937-20.28 34.558" inkscape:connector-curvature="0" style="fill:none;stroke:#9e301c;stroke-width:1.62261426;stroke-linecap:round"/><path d="M176.187 342.91c-17.777-1.59-18.91 28.622-16.427 42.787" inkscape:connector-curvature="0" style="fill:none;stroke:#d18c5e;stroke-width:1.66447937;stroke-linecap:round"/><path d="M179.756 343.831c-20.714-10.045-20.734 19.43-18.963 46.692" inkscape:connector-curvature="0" style="fill:none;stroke:#9e301c;stroke-width:1.6490941;stroke-linecap:round"/><path d="M179.403 342.68c-22.571-5.4-14.474 38.582-25.042 47.954" inkscape:connector-curvature="0" style="fill:none;stroke:#9e301c;stroke-width:1.66447937;stroke-linecap:round"/><path d="M179.057 343.6c-22.57-5.401-12.013 37.615-22.58 46.987" inkscape:connector-curvature="0" style="fill:none;stroke:#d18c5e;stroke-width:1.66447937;stroke-linecap:round"/><path d="M193.654 341.342c-5.251-3.423.266-3.252-5.75-1.257-3.238 1.073.439 5.809 1.414 2.694 1.813-5.79 3.346-.766-.515-5.571-2.078-2.586-5.694 2.191-2.267 2.107 6.373-.155 1.803 2.779 5.433-2.186 1.953-2.67-3.96-4.454-2.816-1.39 2.126 5.693-2.231 2.482 3.873 4.22 3.285.934 3.248-4.945.526-2.968-5.058 3.675-3.181-1.244-3.039 4.794.077 3.249 5.967 1.399 3.141-.443z" inkscape:connector-curvature="0" style="fill:#1c6de7;stroke:#1c1ce7;stroke-width:.47831818;stroke-linejoin:round"/><path d="M191.428 339.077c0 .564-.481 1.02-1.076 1.02-.594 0-1.076-.456-1.076-1.02 0-.563.482-1.02 1.076-1.02.595 0 1.076.457 1.076 1.02z" inkscape:connector-curvature="0" style="fill:#cfbf4c;stroke:#4848d4;stroke-width:.47831818;stroke-linejoin:round"/><path d="M193.88 348.572c-5.252-3.423.266-3.252-5.75-1.257-3.238 1.073.439 5.809 1.414 2.693 1.812-5.79 3.346-.765-.515-5.57-2.078-2.586-5.695 2.19-2.267 2.107 6.372-.156 1.802 2.779 5.433-2.186 1.953-2.671-3.96-4.454-2.816-1.39 2.126 5.693-2.232 2.482 3.873 4.22 3.285.934 3.248-4.946.526-2.968-5.057 3.675-3.18-1.244-3.038 4.794.077 3.248 5.967 1.399 3.141-.443z" inkscape:connector-curvature="0" style="fill:#e29421;stroke:#e1811d;stroke-width:.47831818;stroke-linejoin:round"/><path d="M191.654 346.307c0 .564-.482 1.02-1.076 1.02-.595 0-1.077-.456-1.077-1.02 0-.563.482-1.02 1.077-1.02.594 0 1.076.457 1.076 1.02z" inkscape:connector-curvature="0" style="fill:#e2ca21;stroke:#e1811d;stroke-width:.47831818;stroke-linejoin:round"/><path d="M187.962 345.454c-5.252-3.423.266-3.252-5.75-1.257-3.238 1.073.44 5.81 1.414 2.693 1.813-5.79 3.346-.765-.515-5.57-2.077-2.586-5.695 2.191-2.266 2.107 6.372-.156 1.802 2.779 5.432-2.186 1.954-2.671-3.959-4.454-2.815-1.39 2.125 5.693-2.232 2.482 3.872 4.22 3.285.934 3.248-4.945.526-2.968-5.058 3.675-3.181-1.244-3.038 4.794.076 3.248 5.966 1.399 3.14-.443z" inkscape:connector-curvature="0" style="fill:#e71ce7;stroke:#d21676;stroke-width:.47831818;stroke-linejoin:round"/><path d="M185.737 343.19c0 .563-.482 1.02-1.077 1.02s-1.077-.457-1.077-1.02c0-.564.482-1.02 1.077-1.02s1.077.456 1.077 1.02z" inkscape:connector-curvature="0" style="fill:#e2ca21;stroke:#d6166c;stroke-width:.47831818;stroke-linejoin:round"/><path d="M179.162 387.793c-2.563-1.67.13-1.586-2.806-.613-1.58.524.214 2.834.69 1.314.884-2.825 1.632-.373-.252-2.718-1.013-1.262-2.778 1.07-1.105 1.028 3.109-.076.879 1.356 2.65-1.066.953-1.304-1.932-2.174-1.374-.679 1.037 2.778-1.089 1.211 1.89 2.059 1.602.456 1.584-2.412.257-1.448-2.469 1.793-1.553-.607-1.483 2.34.037 1.584 2.911.682 1.532-.217z" inkscape:connector-curvature="0" style="fill:#5ac414;stroke:#11a811;stroke-width:.2333824;stroke-linejoin:round"/><path d="M178.076 386.688a.512.512 0 0 1-.526.498.512.512 0 0 1-.525-.498c0-.275.236-.498.525-.498.29 0 .526.223.526.498z" inkscape:connector-curvature="0" style="fill:#e2ca21;stroke:#11a811;stroke-width:.2333824;stroke-linejoin:round"/><path d="M185.594 387.332c-2.563-1.67.13-1.586-2.806-.613-1.58.523.214 2.834.69 1.314.885-2.825 1.633-.373-.251-2.718-1.014-1.262-2.779 1.069-1.106 1.028 3.109-.076.88 1.356 2.65-1.066.954-1.304-1.931-2.174-1.373-.68 1.037 2.78-1.09 1.212 1.89 2.06 1.602.456 1.584-2.413.256-1.448-2.468 1.793-1.552-.607-1.482 2.34.037 1.584 2.91.682 1.532-.217z" inkscape:connector-curvature="0" style="fill:#e71c1c;stroke:#b11c12;stroke-width:.2333824;stroke-linejoin:round"/><path d="M184.508 386.227a.512.512 0 0 1-.525.498.512.512 0 0 1-.525-.498c0-.275.235-.498.525-.498.29 0 .525.223.525.498z" inkscape:connector-curvature="0" style="fill:#e2ca21;stroke:#b11c12;stroke-width:.2333824;stroke-linejoin:round"/><path d="M173.146 386.82c-2.563-1.671.13-1.588-2.806-.614-1.58.523.214 2.834.69 1.314.885-2.825 1.633-.373-.251-2.718-1.014-1.262-2.779 1.069-1.106 1.028 3.109-.076.88 1.356 2.65-1.066.953-1.304-1.931-2.174-1.374-.68 1.037 2.78-1.089 1.212 1.89 2.06 1.603.456 1.585-2.413.257-1.448-2.468 1.793-1.553-.607-1.483 2.34.038 1.584 2.911.682 1.533-.217z" inkscape:connector-curvature="0" style="fill:#8e3f7e;stroke:#5d1861;stroke-width:.2333824;stroke-linejoin:round"/><path d="M172.06 385.714a.512.512 0 0 1-.526.498.512.512 0 0 1-.525-.498c0-.275.235-.498.525-.498.29 0 .526.223.526.498z" inkscape:connector-curvature="0" style="fill:#e2ca21;stroke:#5d1861;stroke-width:.2333824;stroke-linejoin:round"/><path d="M197.034 382.97c-2.563-1.671.13-1.587-2.806-.614-1.58.523.214 2.834.69 1.314.884-2.825 1.632-.373-.251-2.718-1.014-1.261-2.779 1.069-1.106 1.028 3.109-.076.88 1.356 2.65-1.066.953-1.303-1.932-2.174-1.374-.68 1.037 2.78-1.089 1.212 1.89 2.06 1.603.456 1.584-2.413.257-1.448-2.469 1.793-1.553-.607-1.483 2.34.037 1.584 2.911.682 1.532-.217z" inkscape:connector-curvature="0" style="fill:#1c6de7;stroke:#1c1ce7;stroke-width:.2333824;stroke-linejoin:round"/><path d="M195.948 381.864a.512.512 0 0 1-.526.498.512.512 0 0 1-.524-.498c0-.275.235-.498.524-.498.29 0 .526.223.526.498z" inkscape:connector-curvature="0" style="fill:#e2ca21;stroke:#1c1ce7;stroke-width:.2333824;stroke-linejoin:round"/><path d="M191.37 385.598c-2.562-1.67.13-1.586-2.805-.613-1.58.524.214 2.834.69 1.314.884-2.825 1.632-.373-.251-2.718-1.014-1.261-2.78 1.07-1.106 1.028 3.109-.076.88 1.356 2.65-1.066.953-1.303-1.931-2.174-1.374-.679 1.038 2.778-1.089 1.211 1.89 2.059 1.603.456 1.585-2.412.257-1.448-2.468 1.793-1.553-.607-1.483 2.34.038 1.584 2.91.682 1.533-.217z" inkscape:connector-curvature="0" style="fill:#e29421;stroke:#e1811d;stroke-width:.2333824;stroke-linejoin:round"/><path d="M190.283 384.493a.512.512 0 0 1-.525.498.512.512 0 0 1-.526-.498c0-.275.236-.498.526-.498.29 0 .525.223.525.498z" inkscape:connector-curvature="0" style="fill:#e2ca21;stroke:#e1811d;stroke-width:.2333824;stroke-linejoin:round"/><path d="M167.419 383.995c-2.562-1.67.13-1.586-2.806-.613-1.58.524.215 2.834.69 1.314.885-2.825 1.633-.373-.251-2.718-1.014-1.261-2.779 1.07-1.106 1.028 3.11-.076.88 1.356 2.65-1.066.953-1.303-1.931-2.174-1.373-.679 1.037 2.778-1.09 1.211 1.89 2.06 1.602.455 1.584-2.414.256-1.448-2.468 1.793-1.552-.607-1.483 2.339.038 1.585 2.912.682 1.533-.216z" inkscape:connector-curvature="0" style="fill:#e71ce7;stroke:#d21676;stroke-width:.2333824;stroke-linejoin:round"/><path d="M166.333 382.89a.512.512 0 0 1-.525.498.512.512 0 0 1-.526-.498c0-.275.236-.497.526-.497.29 0 .525.222.525.497z" inkscape:connector-curvature="0" style="fill:#e2ca21;stroke:#d6166c;stroke-width:.2333824;stroke-linejoin:round"/><g transform="matrix(.46718 0 0 .19343 -400.773 -45.733)"><rect x="1014.1" y="2268.5" width="303.38" height="180.8" style="fill:#954815;fill-opacity:1"/><rect x="1009.1" y="2440.8" width="313.37" height="12.142" ry="2.5186" style="fill:#520"/><rect x="1006.8" y="2260.2" width="317.85001" height="21.382999" ry="6.9333" style="fill:#520"/><path d="M1107.7 2282.4c-1.157-.31-2.578.519-2.958 2.7-1.817 11.1-13.204 20.085-16.552 1.707a4.873 4.873 0 0 0-.256-.856c-.389-2.701-3.716-2.94-4.549.562-2.49 10.968-14.427 19.238-16.648.69a4.653 4.653 0 0 0-.264-1.098c-.596-2.34-3.635-2.446-4.484.866-2.681 10.923-14.763 18.99-16.66.406a5.31 5.31 0 0 0-.123-.786c.066-2.775-3.21-3.544-4.566-.184-4.104 10.471-17.147 16.873-16.568-1.797.11-4.019-3.813-3.56-3.943.65-.743 17.596 14.017 20.431 22.19 7.816 3.5 12.758 15.892 12.576 21.866.998 4.134 11.646 16.126 10.835 21.668-.755 5.308 13.446 20.162 9.904 23.272-6.804.63-2.364-.268-3.805-1.424-4.115z" inkscape:connector-curvature="0" style="fill:#e88e53;fill-opacity:1;fill-rule:evenodd"/><path d="M1195.7 2282.4c-1.157-.31-2.578.519-2.958 2.7-1.817 11.1-13.204 20.085-16.552 1.707a4.873 4.873 0 0 0-.256-.856c-.389-2.701-3.716-2.94-4.549.562-2.49 10.968-14.427 19.238-16.648.69a4.653 4.653 0 0 0-.264-1.098c-.596-2.34-3.635-2.446-4.484.866-2.681 10.923-14.763 18.99-16.66.406a5.31 5.31 0 0 0-.123-.786c.066-2.775-3.21-3.544-4.566-.184-4.104 10.471-17.147 16.873-16.568-1.797.11-4.019-3.813-3.56-3.943.65-.743 17.596 14.017 20.431 22.19 7.816 3.5 12.758 15.892 12.576 21.866.998 4.134 11.646 16.126 10.835 21.668-.755 5.308 13.446 20.162 9.904 23.272-6.804.63-2.364-.268-3.805-1.424-4.115z" inkscape:connector-curvature="0" style="fill:#e88e53;fill-opacity:1;fill-rule:evenodd"/><path d="M1283.7 2282.4c-1.157-.31-2.578.519-2.958 2.7-1.817 11.1-13.204 20.085-16.552 1.707a4.873 4.873 0 0 0-.256-.856c-.389-2.701-3.716-2.94-4.549.562-2.49 10.968-14.427 19.238-16.648.69a4.653 4.653 0 0 0-.264-1.098c-.596-2.34-3.635-2.446-4.484.866-2.681 10.923-14.763 18.99-16.66.406a5.31 5.31 0 0 0-.123-.786c.066-2.775-3.21-3.544-4.566-.184-4.104 10.471-17.147 16.873-16.568-1.797.11-4.019-3.813-3.56-3.943.65-.743 17.596 14.017 20.431 22.19 7.816 3.5 12.758 15.892 12.576 21.866.998 4.134 11.646 16.126 10.835 21.668-.755 5.308 13.446 20.162 9.904 23.272-6.804.63-2.364-.268-3.805-1.424-4.115z" inkscape:connector-curvature="0" style="fill:#e88e53;fill-opacity:1;fill-rule:evenodd"/><path d="M1284.2 2281.8c-.983.139-1.998 1.333-2.063 3.438-.742 17.596 14.015 20.428 22.188 7.812 2.2 8.019 7.92 10.916 13.344 9.094v-5.094c-4.273 3.026-9.161 1.55-10.312-9.719a5.258 5.258 0 0 0-.125-.781c.066-2.776-3.206-3.547-4.562-.188-4.104 10.473-17.141 16.89-16.562-1.78.056-2.01-.923-2.92-1.906-2.782z" inkscape:connector-curvature="0" style="fill:#e88e53;fill-opacity:1;fill-rule:evenodd"/></g><path d="M95.07 377.363c1.614-2.396 9.041 3.69 9.041 3.69s8.34-6.372 9.386-3.69c1.245 3.19 1.223 5.206 0 8.98-.871 2.693-9.386-3.48-9.386-3.48s-7.622 5.924-9.041 3.48c-1.495-2.572-1.948-6.088 0-8.98z" inkscape:connector-curvature="0" style="fill:#ea3232;fill-opacity:1"/></g></svg>