<svg xmlns:dc="http://purl.org/dc/elements/1.1/" xmlns:cc="http://creativecommons.org/ns#" xmlns:rdf="http://www.w3.org/1999/02/22-rdf-syntax-ns#" xmlns="http://www.w3.org/2000/svg" height="900" width="640" viewBox="0 0 640.00002 900.00001"><title>Trophy</title><defs><linearGradient x1="177.16" y1="450.5" gradientTransform="matrix(.98011 0 0 .98011 23.797 -64.114)" x2="568.56" gradientUnits="userSpaceOnUse" y2="592.35999" id="a"><stop offset="0" style="stop-color:#f55"/><stop offset=".5" style="stop-color:#ffd5d5"/><stop offset="1" style="stop-color:#ff2a2a"/></linearGradient></defs><g transform="translate(-56.043 -85.34)"><path style="fill:#82641b;fill-opacity:1;stroke-width:.99999994" d="M657.31 147.121a197.909 197.909 0 0 1 5.453 10.729c.016.035.029.073.045.108.65 1.38 1.312 2.771 1.94 4.18.45 1.005.863 2.038 1.3 3.057.014.028.04.049.052.076a234.445 234.445 0 0 1 2.622 6.385c19.99 50.573 33.66 113.302 22.065 183.968-22.688 138.268-113.479 242.557-194.104 227.694-13.618-2.51-26.27-8.167-37.793-16.456l2.126-12.953c11.916 6.378 24.604-15.72 37.864-14.891 81.695 5.104 140.297-72.47 148.086-212.572 2.48-44.582-2.702-71.44-8.232-95.901-23.248 18.89-56.05 43.692-88.133 38.6-9.11-1.679-29.164-29.168-37.362-33.502l2.435-14.84c8.289 3.089 16.896 4.999 25.757 5.553 36.9 2.305 71.92-18.77 99.954-55.475.169-.221.324-.459.491-.681.272-.358.569-.692.837-1.053a220.519 220.519 0 0 0 2.69-3.661c.047-.067.081-.145.13-.212.731-1.022 1.46-2.04 2.182-3.085.5-.725.974-1.475 1.47-2.21.647-.96 1.292-1.92 1.93-2.896a246.463 246.463 0 0 0 6.19-9.958z"/><path style="fill:#82641b;fill-opacity:1;stroke-width:.99999994" d="M94.775 147.121a197.909 197.909 0 0 0-5.451 10.729c-.017.035-.03.073-.045.108-.65 1.38-1.313 2.771-1.94 4.18-.45 1.005-.863 2.038-1.302 3.057-.012.028-.04.049-.05.076a234.445 234.445 0 0 0-2.623 6.385c-19.989 50.573-33.66 113.302-22.066 183.968 22.688 138.268 113.48 242.557 194.105 227.694 13.618-2.51 33.312-18.026 44.835-26.315-2.872-12.957-22.404-19.898-25.905-19.393-90.146 19.188-161.425-71.062-169.213-211.164-2.48-44.582 2.703-71.44 8.231-95.901 23.249 18.89 56.052 43.692 88.134 38.6 9.11-1.678 29.165-29.168 37.362-33.502l-2.434-14.84c-8.29 3.089-16.897 4.999-25.758 5.553-36.9 2.305-71.92-18.77-99.954-55.475-.17-.221-.323-.459-.492-.681-.27-.358-.566-.692-.837-1.053a220.482 220.482 0 0 1-2.688-3.661c-.048-.067-.082-.144-.13-.212-.732-1.022-1.46-2.04-2.182-3.085-.5-.725-.976-1.475-1.47-2.21-.647-.96-1.292-1.92-1.931-2.896a246.463 246.463 0 0 1-6.189-9.958z"/><path style="fill:#f3c650;fill-opacity:1;stroke-width:.99999994" d="M99.23 165.988a179.24 179.24 0 0 0-5.342 9.92c-.016.031-.03.068-.045.1-.637 1.275-1.286 2.561-1.901 3.864-.44.928-.845 1.884-1.274 2.825-.013.026-.04.046-.05.071a209.923 209.923 0 0 0-2.57 5.903C68.46 235.424 61.964 297.325 73.326 362.655 95.557 490.483 177.62 582.982 256.625 569.242c13.343-2.321 25.74-7.55 37.031-15.213l-2.083-11.975c-11.676 5.896-24.107 9.406-37.102 10.171-80.05 4.72-151.135-96.46-158.769-225.985-2.428-41.216 1.84-80.332 11.4-114.664.01.01.025.015.034.025 32.141 33.742 70.315 51.163 107.794 44.644 8.926-1.551 17.439-4.422 25.472-8.428l-2.387-13.72c-8.122 2.856-16.556 4.622-25.238 5.133-36.158 2.132-70.473-17.35-97.943-51.286-.166-.204-.317-.423-.482-.63-.266-.33-.556-.638-.82-.973a204.868 204.868 0 0 1-2.635-3.385c-.047-.062-.08-.133-.127-.195-.717-.946-1.431-1.887-2.139-2.852-.49-.67-.954-1.362-1.44-2.044a248.3 248.3 0 0 1-1.892-2.677 226.27 226.27 0 0 1-6.064-9.205z"/><path style="fill:#f3c650;fill-opacity:1;stroke-width:.99999994" d="M653.078 165.988a179.193 179.193 0 0 1 5.342 9.92c.017.031.029.068.045.1.637 1.275 1.285 2.561 1.9 3.864.441.928.846 1.884 1.275 2.825.012.026.04.046.05.071a209.885 209.885 0 0 1 2.57 5.903c19.587 46.755 26.082 108.654 14.721 173.984-22.231 127.828-104.295 220.337-183.299 206.597-13.343-2.321-25.741-7.55-37.031-15.214l2.082-11.975c11.677 5.897 24.108 9.407 37.103 10.172 80.05 4.72 151.135-96.46 158.768-225.985 2.43-41.216-1.84-80.332-11.398-114.664-.01.01-.026.015-.036.025-32.14 33.742-70.314 51.163-107.793 44.644-8.926-1.551-17.439-4.422-25.472-8.428l2.387-13.72c8.122 2.855 16.556 4.622 25.238 5.133 36.158 2.132 70.473-17.35 97.943-51.286.166-.204.317-.424.482-.63.265-.33.556-.638.82-.973a204.628 204.628 0 0 0 2.635-3.385c.047-.062.08-.133.127-.195.717-.946 1.431-1.887 2.139-2.852.49-.67.954-1.363 1.44-2.044a226.16 226.16 0 0 0 7.957-11.884z"/><path style="opacity:.5;fill:url(#a);stroke-width:.99999994" d="M389.231 151.57c-61.568 0-118.339 14.488-163.895 38.868-8.379 19.458-15.057 40.522-19.786 62.788-.035.162-.058.329-.092.49-.236 1.118-.479 2.246-.704 3.37-.056.275-.098.552-.154.826-.31 1.56-.627 3.115-.918 4.686-.211 1.14-.413 2.287-.613 3.43-.076.44-.139.879-.215 1.318a366.514 366.514 0 0 0-1.408 8.76c-.067.448-.12.899-.184 1.348-.175 1.225-.358 2.444-.52 3.675-.085.634-.164 1.264-.246 1.899-.052.41-.103.815-.153 1.225-.098.79-.182 1.566-.276 2.358a376.724 376.724 0 0 0-.55 4.9c-.13 1.243-.25 2.49-.368 3.738-.039.398-.087.796-.123 1.195-.054.59-.102 1.184-.153 1.776-.104 1.19-.214 2.387-.306 3.583-.118 1.52-.207 3.038-.306 4.564-.029.43-.066.855-.092 1.286a381.921 381.921 0 0 0-.215 3.706c-.087 1.68-.149 3.366-.215 5.054-.017.46-.045.919-.06 1.379a395.378 395.378 0 0 0-.123 4.195 383.593 383.593 0 0 0-.092 4.533 392.946 392.946 0 0 0-.03 5.116c0 2.048.029 4.088.06 6.125.02 1.24.03 2.47.062 3.706.03 1.155.053 2.31.092 3.461.036 1.034.079 2.062.123 3.093.035.848.081 1.698.122 2.543a386.892 386.892 0 0 0 .735 11.363 382.163 382.163 0 0 0 .704 8.024c.102 1.022.196 2.047.307 3.063.239 2.22.52 4.446.796 6.647.168 1.335.339 2.653.521 3.981.095.695.177 1.391.275 2.083.152 1.066.33 2.125.49 3.186.156 1.023.297 2.043.46 3.062.128.8.265 1.593.398 2.39.275 1.648.562 3.294.858 4.93.025.143.035.288.06.43.385 2.106.807 4.191 1.226 6.279.273 1.358.54 2.723.827 4.073.231 1.086.465 2.166.705 3.246.043.193.078.39.122.583.363 1.62.75 3.232 1.133 4.84a344.137 344.137 0 0 0 1.532 6.154c.087.34.186.674.275 1.012.424 1.623.842 3.262 1.286 4.87.234.84.467 1.676.706 2.511.324 1.141.674 2.267 1.01 3.4.16.54.297 1.086.46 1.623.45 1.49.91 2.966 1.377 4.441.173.543.347 1.083.522 1.624.336 1.043.696 2.088 1.04 3.124.445 1.332.89 2.662 1.348 3.982a327.888 327.888 0 0 0 3.523 9.617c.718 1.874 1.426 3.728 2.175 5.575.025.063.065.12.09.183.652 1.602 1.289 3.197 1.961 4.778.695 1.633 1.426 3.23 2.145 4.84.657 1.476 1.313 2.953 1.99 4.41.114.245.223.492.337.736.592 1.264 1.2 2.518 1.808 3.766.277.573.546 1.147.826 1.715.442.895.899 1.778 1.348 2.666.154.304.303.614.46.919.592 1.161 1.2 2.313 1.807 3.46.476.903.954 1.802 1.44 2.695a280.328 280.328 0 0 0 3.214 5.759c.31.539.608 1.088.92 1.623.002.004.028-.004.03 0 35.175 60.475 88.44 99.05 148.086 99.05 59.662 0 112.968-38.587 148.154-99.08a278.02 278.02 0 0 0 2.512-4.44c.551-.991 1.111-2 1.654-3.002.27-.5.559-.998.826-1.5.373-.699.735-1.411 1.103-2.114.432-.826.861-1.648 1.287-2.48.3-.589.59-1.186.888-1.778.771-1.536 1.517-3.095 2.267-4.655.113-.237.254-.466.367-.704.357-.75.72-1.512 1.072-2.267.5-1.07.98-2.135 1.47-3.216.703-1.554 1.401-3.11 2.082-4.686.124-.284.245-.573.368-.857.131-.307.268-.613.399-.92a311.963 311.963 0 0 0 1.96-4.716c.03-.072.063-.143.091-.216a329.348 329.348 0 0 0 5.452-14.548c.076-.215.17-.426.246-.642.235-.679.472-1.37.704-2.053.356-1.046.726-2.1 1.072-3.154.408-1.242.798-2.485 1.195-3.737.388-1.229.757-2.468 1.132-3.706.297-.977.6-1.957.89-2.94.017-.062.042-.123.06-.184a350.805 350.805 0 0 0 4.503-16.938 355.85 355.85 0 0 0 1.44-6.34c.466-2.125.916-4.254 1.347-6.4.4-1.99.796-3.996 1.164-6.004.065-.356.12-.716.184-1.073.117-.653.253-1.303.367-1.96.292-1.678.556-3.363.827-5.053.138-.863.266-1.737.399-2.604a373.894 373.894 0 0 0 2.45-19.357 377.828 377.828 0 0 0 .704-8.025 384.652 384.652 0 0 0 .735-11.394c.04-.836.088-1.673.122-2.51.043-1.03.088-2.062.123-3.094.039-1.154.062-2.304.092-3.46.031-1.237.042-2.467.061-3.708.032-2.036.061-4.077.061-6.125 0-3.233-.043-6.443-.122-9.648a387.663 387.663 0 0 0-.123-4.197c-.016-.458-.043-.919-.06-1.378-.066-1.688-.128-3.373-.216-5.053-.086-1.672-.197-3.328-.306-4.993-.099-1.526-.19-3.044-.306-4.563-.168-2.189-.377-4.381-.582-6.555a385.653 385.653 0 0 0-.367-3.736 376.724 376.724 0 0 0-.551-4.9c-.142-1.205-.277-2.386-.43-3.584-.08-.635-.16-1.266-.245-1.9-.163-1.23-.346-2.45-.52-3.675-.065-.449-.118-.899-.184-1.348a366.514 366.514 0 0 0-1.41-8.76c-.271-1.585-.535-3.173-.826-4.747-.29-1.57-.609-3.126-.918-4.686a361.339 361.339 0 0 0-.858-4.196c-.034-.162-.059-.328-.092-.49-4.73-22.268-11.409-43.33-19.787-62.788-45.556-24.38-102.353-38.867-163.924-38.867z"/><g style="fill:#82641b;fill-opacity:1;stroke-width:1.02028871" transform="matrix(.98011 0 0 .98011 23.797 -64.114)"><path style="fill:#82641b;fill-opacity:1;stroke-width:1.02028871" d="M370.2 796.48c-106.54 0-197.06 16.135-229.78 38.594h-13.156v19.406h.125c1.929 31.168 109.89 56.281 242.81 56.281 132.92 0 240.89-25.113 242.81-56.281h.031v-19.406h-13.062c-32.72-22.45-123.24-38.59-229.78-38.59z"/><ellipse style="fill:#82641b;fill-opacity:1;stroke-width:1.02028871" transform="translate(-46.949 -82.442)" cx="417.14285" cy="918.07648" rx="242.85715" ry="57.142857"/></g><g style="fill:#f3c650;fill-opacity:1;stroke-width:1.02028871" transform="matrix(.88693 0 0 .88693 58.262 13.804)"><path style="fill:#f3c650;fill-opacity:1;stroke-width:1.02028871" d="M370.2 796.48c-106.54 0-197.06 16.135-229.78 38.594h-13.156v19.406h.125c1.929 31.168 109.89 56.281 242.81 56.281 132.92 0 240.89-25.113 242.81-56.281h.031v-19.406h-13.062c-32.72-22.45-123.24-38.59-229.78-38.59z"/><ellipse style="fill:#f3c650;fill-opacity:1;stroke-width:1.02028871" transform="translate(-46.949 -82.442)" cx="417.14285" cy="918.07648" rx="242.85715" ry="57.142857"/></g><path style="fill:#82641b;fill-opacity:1;stroke-width:.99999994" d="M354.25 566.865v176.42h.063a3.984 3.984 0 0 0-.062.675c0 6.175 14.481 11.178 32.344 11.178 17.862 0 32.343-5.003 32.343-11.179 0-.225-.054-.45-.092-.673h.092v-176.42z"/><path style="opacity:1;fill:#4e93ff;fill-opacity:1;stroke-width:.99999994" d="M482.195 199.028c-12.493 0-24.7 1.558-36.54 4.533a149.281 149.281 0 0 1 27.474 4.931c103.765 28.906 156.857 163.816 118.564 301.297-19.583 70.304-59.275 127.66-107.263 163.072l74.641-21.073-12.588 49.712C622.614 666.295 677.24 570.32 677.24 457.45c0-142.715-87.324-258.417-195.043-258.417z"/><path d="M389.26 151.574c-61.567 0-118.339 14.487-163.894 38.867-8.38 19.458-15.058 40.522-19.787 62.788-.034.162-.058.329-.092.49-.235 1.118-.478 2.246-.705 3.37-.055.275-.098.552-.153.826-.31 1.56-.628 3.115-.919 4.686-.21 1.14-.412 2.287-.612 3.43-.077.44-.139.879-.214 1.318-.273 1.59-.545 3.178-.797 4.778a371.348 371.348 0 0 0-.613 3.982c-.065.448-.12.899-.183 1.348-.175 1.225-.358 2.444-.521 3.675-.085.634-.164 1.264-.245 1.899l-.153 1.225c-.098.79-.182 1.566-.276 2.358a378.092 378.092 0 0 0-.551 4.9c-.13 1.243-.25 2.49-.368 3.738-.037.398-.086.796-.122 1.195-.054.59-.102 1.184-.153 1.776-.103 1.19-.214 2.387-.306 3.583-.118 1.519-.208 3.038-.307 4.564-.028.43-.066.855-.092 1.286a382.546 382.546 0 0 0-.215 3.706c-.087 1.68-.148 3.366-.213 5.054-.018.46-.046.919-.062 1.378a370.944 370.944 0 0 0-.123 4.196 408.218 408.218 0 0 0-.092 4.533 386.13 386.13 0 0 0-.03 5.116c0 2.048.03 4.088.062 6.125.02 1.24.031 2.47.06 3.706.03 1.155.053 2.31.092 3.46.036 1.035.079 2.063.123 3.094.035.848.081 1.698.123 2.543a382.423 382.423 0 0 0 .735 11.363 382.02 382.02 0 0 0 .704 8.024c.101 1.021.196 2.047.306 3.063.24 2.22.52 4.446.797 6.647.168 1.335.338 2.653.52 3.981.095.695.177 1.391.276 2.083.152 1.066.33 2.125.49 3.186.155 1.023.296 2.043.46 3.062.127.8.264 1.593.397 2.39.275 1.647.562 3.294.858 4.93.026.143.036.288.062.43.384 2.106.806 4.191 1.225 6.279.272 1.358.539 2.723.827 4.073.23 1.086.464 2.166.704 3.246.043.193.08.39.122.582.363 1.62.75 3.233 1.134 4.84a344.045 344.045 0 0 0 1.531 6.155c.088.34.187.674.276 1.012.424 1.623.842 3.262 1.287 4.87.232.84.465 1.676.704 2.511.325 1.141.675 2.267 1.01 3.4.16.54.298 1.086.46 1.623.45 1.49.912 2.966 1.379 4.441.171.543.345 1.083.52 1.624.337 1.043.696 2.088 1.042 3.124.444 1.332.889 2.662 1.347 3.982a330.328 330.328 0 0 0 3.522 9.617c.718 1.874 1.427 3.728 2.176 5.575.024.062.066.12.091.183.65 1.602 1.288 3.197 1.96 4.778.695 1.633 1.426 3.23 2.145 4.84.657 1.476 1.313 2.953 1.99 4.41.114.244.223.491.337.735.592 1.265 1.201 2.52 1.807 3.767.278.572.547 1.147.827 1.715.441.895.899 1.778 1.348 2.666.155.304.304.614.46.919.592 1.161 1.201 2.313 1.807 3.46.476.903.954 1.802 1.439 2.695a280.792 280.792 0 0 0 3.216 5.759c.309.539.608 1.088.919 1.623 0 .004.029-.004.03 0 35.174 60.475 88.44 99.05 148.086 99.05 59.661 0 112.968-38.587 148.154-99.08.852-1.466 1.68-2.95 2.512-4.44a284.576 284.576 0 0 0 1.653-3.002c.27-.5.559-.998.827-1.5.373-.699.735-1.411 1.103-2.114.431-.826.86-1.648 1.286-2.48.3-.589.592-1.186.889-1.778.771-1.536 1.516-3.095 2.266-4.655.115-.238.255-.466.367-.704.358-.75.72-1.512 1.073-2.267.5-1.07.98-2.135 1.47-3.216a305.962 305.962 0 0 0 2.083-4.686l.367-.857c.131-.307.268-.613.398-.92a311.963 311.963 0 0 0 1.96-4.716c.03-.072.063-.143.092-.216a329.484 329.484 0 0 0 5.452-14.548c.076-.215.17-.426.246-.642.235-.679.472-1.37.704-2.053.356-1.047.725-2.1 1.072-3.154.408-1.242.799-2.485 1.195-3.737.388-1.229.757-2.468 1.133-3.706.297-.977.6-1.957.888-2.94.017-.062.044-.123.06-.184a350.89 350.89 0 0 0 4.503-16.938 355.507 355.507 0 0 0 1.44-6.34c.466-2.125.916-4.254 1.347-6.4a363.623 363.623 0 0 0 1.164-6.004c.065-.356.12-.716.184-1.073.118-.653.253-1.303.368-1.96.293-1.678.556-3.363.827-5.053.137-.863.264-1.737.398-2.604a373.98 373.98 0 0 0 2.45-19.357 382.02 382.02 0 0 0 .705-8.025 383.22 383.22 0 0 0 .735-11.394c.041-.836.087-1.673.122-2.51.043-1.03.088-2.062.123-3.094.04-1.154.063-2.304.092-3.46.031-1.237.042-2.467.06-3.708.033-2.036.062-4.077.062-6.125 0-3.233-.044-6.443-.123-9.648a370.878 370.878 0 0 0-.122-4.197c-.017-.458-.044-.919-.061-1.378-.066-1.688-.128-3.373-.216-5.053-.086-1.672-.196-3.329-.305-4.993-.1-1.526-.19-3.044-.306-4.563-.169-2.189-.378-4.381-.583-6.555a357.039 357.039 0 0 0-.367-3.736 378.093 378.093 0 0 0-.551-4.901c-.142-1.205-.276-2.385-.43-3.583-.08-.635-.16-1.266-.244-1.9-.163-1.23-.345-2.45-.52-3.675-.064-.45-.118-.899-.184-1.348a367.748 367.748 0 0 0-1.41-8.76c-.27-1.585-.535-3.173-.827-4.747-.29-1.57-.608-3.126-.918-4.686a361.339 361.339 0 0 0-.858-4.196c-.034-.162-.058-.328-.092-.49-4.729-22.268-11.408-43.33-19.785-62.788-45.557-24.38-102.354-38.867-163.924-38.867z" style="fill:#82641b;fill-opacity:1;stroke-width:.99999994"/><path style="fill:#f3c650;fill-opacity:1;stroke-width:.99999994" d="M366.265 601.426v110.723h.038a2.498 2.498 0 0 0-.038.423c0 3.875 9.089 7.017 20.3 7.017 11.21 0 20.298-3.142 20.298-7.017 0-.141-.033-.283-.057-.423h.058V601.426z"/><path style="fill:#597c42;fill-opacity:1;stroke-width:.99999994" d="M296.875 167.292c2.113 0 4.214.057 6.31.153-6.351.982-12.67 2.383-18.928 4.288-94.682 28.816-140.333 154.397-101.961 280.47 27.807 91.37 92.13 157.916 161.473 176.665 84.481 14.83 148.762 90.347 148.762 181.321 0 70.569-38.688 131.855-95.469 162.729l15.192-65.668-76.081 23.217c25.953-31.92 41.562-72.995 41.562-117.83 0-82.335-52.671-152.044-125.298-175.528-77.466-26.322-134.736-119.868-134.736-231.219 0-131.776 80.207-238.599 179.175-238.599z"/><ellipse style="fill:#82641b;fill-opacity:1;stroke-width:.99999994" cx="387.15271" cy="192.10526" rx="165.34508" ry="40.59367"/><path d="M389.223 168.488c-56.502 0-108.603 13.359-150.411 35.842-7.69 17.941-13.82 37.366-18.159 57.899-.031.15-.053.304-.084.452-.217 1.03-.44 2.07-.647 3.107-.05.253-.09.51-.14.762-.284 1.439-.577 2.873-.844 4.322a348.348 348.348 0 0 0-.562 3.163c-.07.404-.128.81-.196 1.215-.25 1.465-.5 2.93-.732 4.405a343.898 343.898 0 0 0-.561 3.673c-.061.412-.11.828-.17 1.243-.16 1.129-.327 2.254-.477 3.389-.079.584-.151 1.164-.226 1.75l-.14 1.13c-.09.729-.166 1.444-.253 2.175a336.784 336.784 0 0 0-.505 4.519 356.007 356.007 0 0 0-.337 3.446c-.035.367-.08.734-.113 1.101-.05.546-.094 1.092-.141 1.638-.094 1.099-.196 2.202-.28 3.305-.108 1.402-.19 2.8-.282 4.209-.026.397-.06.788-.084 1.186a354.56 354.56 0 0 0-.197 3.417c-.08 1.549-.137 3.103-.196 4.66-.017.423-.043.847-.058 1.27a343.786 343.786 0 0 0-.112 3.87 375.879 375.879 0 0 0-.084 4.18 342.68 342.68 0 0 0-.028 4.718c0 1.888.028 3.77.056 5.648.018 1.144.03 2.278.056 3.418.027 1.064.05 2.13.085 3.191.032.954.072 1.902.112 2.852.033.781.075 1.566.112 2.345a353.156 353.156 0 0 0 .675 10.478 353.91 353.91 0 0 0 .647 7.4c.093.942.18 1.887.28 2.825.221 2.046.477 4.1.732 6.128.153 1.232.31 2.448.477 3.673.088.64.163 1.282.253 1.92.14.982.303 1.96.45 2.937.143.944.272 1.885.422 2.825.118.736.243 1.47.365 2.203.253 1.52.515 3.039.787 4.548.023.13.033.265.057.395.352 1.943.74 3.865 1.124 5.79.25 1.253.496 2.51.76 3.756.211 1.002.425 1.998.646 2.994.04.177.073.36.112.537.333 1.493.688 2.98 1.04 4.462.452 1.902.922 3.796 1.405 5.677.08.313.173.62.253.931.39 1.498.773 3.009 1.181 4.492.214.774.428 1.545.647 2.316.298 1.052.619 2.09.927 3.135.147.497.273 1 .422 1.497.411 1.372.836 2.734 1.264 4.095.158.5.319.999.478 1.497.31.962.64 1.925.956 2.881.408 1.227.815 2.455 1.237 3.672a305.768 305.768 0 0 0 3.232 8.869c.66 1.727 1.31 3.437 1.996 5.14.023.058.062.111.085.169.597 1.477 1.181 2.948 1.799 4.406.637 1.505 1.308 2.978 1.967 4.463.604 1.361 1.205 2.724 1.828 4.067.104.225.204.453.308.677a277.115 277.115 0 0 0 1.659 3.474c.255.528.502 1.059.76 1.582.404.825.823 1.64 1.235 2.457.142.282.28.568.422.848a266.799 266.799 0 0 0 1.659 3.191 238.665 238.665 0 0 0 4.271 7.796c.285.497.559 1.003.844 1.497 0 .004.027-.004.029 0 32.28 55.766 81.163 91.339 135.902 91.339 54.753 0 103.675-35.583 135.967-91.367.782-1.352 1.541-2.72 2.304-4.095.507-.914 1.02-1.843 1.518-2.767.248-.461.513-.922.759-1.384.343-.644.674-1.3 1.012-1.95.397-.761.79-1.519 1.18-2.287.277-.542.543-1.092.816-1.638.708-1.417 1.392-2.855 2.08-4.293.104-.22.233-.43.337-.65.328-.69.66-1.394.984-2.09.458-.987.9-1.969 1.35-2.965a283.184 283.184 0 0 0 1.91-4.323c.113-.26.226-.527.338-.79.12-.282.245-.564.365-.847a288.803 288.803 0 0 0 1.799-4.35c.027-.066.059-.131.085-.197a295.553 295.553 0 0 0 3.541-9.292c.5-1.367.981-2.743 1.463-4.124.068-.199.156-.393.225-.593.216-.626.433-1.264.646-1.892.327-.966.665-1.937.984-2.91.374-1.144.733-2.291 1.096-3.446.357-1.133.696-2.275 1.04-3.417.272-.9.55-1.805.815-2.711.017-.057.04-.113.056-.17a318.096 318.096 0 0 0 4.132-15.619c.46-1.935.893-3.89 1.321-5.846.429-1.96.841-3.923 1.237-5.904.367-1.834.73-3.683 1.069-5.535.058-.328.11-.66.168-.988.108-.604.233-1.203.337-1.808.269-1.548.51-3.102.759-4.66.127-.797.244-1.602.366-2.401a346.495 346.495 0 0 0 2.248-17.85 347.114 347.114 0 0 0 .647-7.4 355.115 355.115 0 0 0 .674-10.507c.038-.771.08-1.542.113-2.316.04-.949.08-1.901.113-2.852.035-1.063.057-2.125.084-3.192.03-1.14.04-2.274.056-3.418.03-1.878.056-3.76.056-5.648 0-2.98-.04-5.942-.112-8.897a359.748 359.748 0 0 0-.113-3.87c-.015-.423-.039-.848-.056-1.27-.06-1.558-.116-3.111-.197-4.66-.08-1.543-.181-3.07-.281-4.604-.091-1.408-.173-2.807-.281-4.209-.154-2.02-.345-4.04-.533-6.043a325.775 325.775 0 0 0-.339-3.447 335 335 0 0 0-.505-4.518c-.13-1.111-.253-2.2-.393-3.305-.076-.586-.148-1.166-.226-1.751-.15-1.135-.316-2.26-.477-3.39-.059-.414-.108-.829-.169-1.242a340.782 340.782 0 0 0-1.293-8.078c-.25-1.462-.491-2.926-.759-4.378-.267-1.45-.559-2.883-.843-4.322-.256-1.29-.517-2.585-.787-3.868-.032-.15-.054-.303-.085-.452-4.34-20.534-10.469-39.958-18.158-57.9-41.809-22.482-93.934-35.841-150.439-35.841z" style="fill:#f3c650;fill-opacity:1;stroke-width:.99999994"/><ellipse style="fill:#e3a81b;fill-opacity:1;stroke-width:.99999994" cx="387.12082" cy="200.25693" rx="150.582" ry="34.742374"/><path d="m343.429 275.023-36.433-35.074 9.233 49.723-23.812-44.617-6.584 50.143-8.859-49.791-21.756 45.653 6.96-50.091-34.799 36.696 22.1-45.489-44.436 24.147 35.074-36.434-49.723 9.233 44.617-23.811-50.143-6.584 49.791-8.859-45.653-21.757 50.091 6.962-36.696-34.8 45.489 22.1-24.147-44.437 36.434 35.075-9.233-49.723 23.811 44.616 6.584-50.142 8.859 49.791 21.757-45.654-6.961 50.092 34.8-36.696-22.1 45.488 44.436-24.146-35.075 36.433 49.723-9.233-44.616 23.812 50.142 6.584-49.79 8.859 45.653 21.756-50.092-6.96 36.696 34.799-45.488-22.1z" style="opacity:.9;fill:#d40000;stroke-width:.99999994"/><path d="m161.624 609.915-9.84-9.473 2.494 13.43-6.43-12.05-1.78 13.542-2.392-13.448-5.876 12.33 1.88-13.528-9.399 9.91 5.97-12.285-12.002 6.522 9.473-9.84-13.43 2.493 12.05-6.43-13.542-1.779 13.448-2.393-12.33-5.876 13.528 1.88-9.91-9.398 12.285 5.968-6.521-12.001 9.84 9.473-2.494-13.43 6.43 12.05 1.78-13.542 2.392 13.448 5.876-12.33-1.88 13.528 9.398-9.91-5.968 12.285 12.001-6.521-9.473 9.84 13.43-2.494-12.05 6.431 13.542 1.778-13.448 2.393 12.33 5.876-13.528-1.88 9.91 9.399-12.285-5.969z" transform="scale(2.34713) rotate(-10.532 -2606.29 469.877)" style="fill:#fc0;stroke-width:1.02028871"/></g><metadata><rdf:RDF><cc:Work><dc:format>image/svg+xml</dc:format><dc:type rdf:resource="http://purl.org/dc/dcmitype/StillImage"/><cc:license rdf:resource="http://creativecommons.org/licenses/by-sa/4.0/"/><dc:publisher><cc:Agent rdf:about="http://openclipart.org/"><dc:title/></cc:Agent></dc:publisher><dc:title>Trophy</dc:title><dc:date>2015</dc:date><dc:description/><dc:source/><dc:creator><cc:Agent><dc:title>Timothée Giet</dc:title></cc:Agent></dc:creator><dc:subject><rdf:Bag><rdf:li>award</rdf:li><rdf:li>celebration</rdf:li><rdf:li>prize</rdf:li><rdf:li>trophy</rdf:li></rdf:Bag></dc:subject><dc:contributor><cc:Agent><dc:title>Based on a drawin by sheikh_tuhin from https://openclipart.org/detail/48937/trophy-by-sheikh_tuhin</dc:title></cc:Agent></dc:contributor></cc:Work><cc:License rdf:about="http://creativecommons.org/licenses/by-sa/4.0/"><cc:permits rdf:resource="http://creativecommons.org/ns#Reproduction"/><cc:permits rdf:resource="http://creativecommons.org/ns#Distribution"/><cc:requires rdf:resource="http://creativecommons.org/ns#Notice"/><cc:requires rdf:resource="http://creativecommons.org/ns#Attribution"/><cc:permits rdf:resource="http://creativecommons.org/ns#DerivativeWorks"/><cc:requires rdf:resource="http://creativecommons.org/ns#ShareAlike"/></cc:License></rdf:RDF></metadata></svg>