<!--Created with Inkscape (http://www.inkscape.org/)--><svg xmlns:dc="http://purl.org/dc/elements/1.1/" xmlns:cc="http://creativecommons.org/ns#" xmlns:rdf="http://www.w3.org/1999/02/22-rdf-syntax-ns#" xmlns="http://www.w3.org/2000/svg" xmlns:sodipodi="http://sodipodi.sourceforge.net/DTD/sodipodi-0.dtd" xmlns:inkscape="http://www.inkscape.org/namespaces/inkscape" width="64" height="64" sodipodi:version="0.32" inkscape:version="0.91 r13725" version="1.0" sodipodi:docname="maze-2d-bubble.svg" inkscape:output_extension="org.inkscape.output.svg.inkscape"><sodipodi:namedview pagecolor="#ffffff" bordercolor="#666666" borderopacity="1.0" inkscape:pageopacity="0.0" inkscape:pageshadow="2" inkscape:zoom="2.8" inkscape:cx="16.836029" inkscape:cy="84.469377" inkscape:document-units="px" inkscape:current-layer="layer1" showgrid="false" showguides="true" inkscape:guide-bbox="true" inkscape:window-width="902" inkscape:window-height="875" inkscape:window-x="349" inkscape:window-y="25" inkscape:window-maximized="0"><sodipodi:guide orientation="0,1" position="360.49819,410.12193"/></sodipodi:namedview><metadata><rdf:RDF><cc:Work><dc:format>image/svg+xml</dc:format><dc:type rdf:resource="http://purl.org/dc/dcmitype/StillImage"/><dc:title/><dc:date>2015</dc:date><dc:creator><cc:Agent><dc:title>Timothée Giet</dc:title></cc:Agent></dc:creator><cc:license rdf:resource="http://creativecommons.org/licenses/by-sa/4.0/"/></cc:Work><cc:License rdf:about="http://creativecommons.org/licenses/by-sa/4.0/"><cc:permits rdf:resource="http://creativecommons.org/ns#Reproduction"/><cc:permits rdf:resource="http://creativecommons.org/ns#Distribution"/><cc:requires rdf:resource="http://creativecommons.org/ns#Notice"/><cc:requires rdf:resource="http://creativecommons.org/ns#Attribution"/><cc:permits rdf:resource="http://creativecommons.org/ns#DerivativeWorks"/><cc:requires rdf:resource="http://creativecommons.org/ns#ShareAlike"/></cc:License></rdf:RDF></metadata><g inkscape:label="Calque 1" inkscape:groupmode="layer" transform="translate(-321.531 -636.24)"><rect style="fill:#fafafa;fill-opacity:1;fill-rule:evenodd;stroke:none" width="61.07143" height="60" x="1.0714285" y="1.1428572" transform="translate(321.531 636.24)" rx="9.6450443" ry="0"/><path sodipodi:nodetypes="ccccccccccc" d="M325.716 645.009h18.28l.186 28.01 15.528.124.24 6.933-22.489-.12.267-28.128h-4.72l-.006 13.563-7.286.114V645.01z" style="fill:#3ab534;fill-opacity:1;fill-rule:evenodd;stroke:none;stroke-width:.88885444;stroke-linecap:round;stroke-linejoin:round;marker:none;marker-start:none;marker-mid:none;marker-end:none;stroke-miterlimit:4;stroke-dashoffset:0;stroke-opacity:1;visibility:visible;display:inline;overflow:visible" transform="matrix(1.07281 0 0 1.09227 -23.412 -64.609)"/><path sodipodi:nodetypes="ccccccccccccccccccccccccccccccccccccccccccccccccccccccccc" d="M322.125 641.646a.6.6 0 0 0-.594.594v57.406a.6.6 0 0 0 .594.594h58.469a.6.6 0 0 0 .594-.594V642.24a.6.6 0 0 0-.594-.594h-58.469zm27.25 2.563 16.375.094.031 3.509 3.067.009-.102-3.5 8.254.2c.323 0 .795.182.795.505l-.058 22.38-8.893-.228.2-15.487-3.173-.031.129 20.361 11.719.094.25 22.719a.6.6 0 0 1-.594.594h-17.406a.6.6 0 0 1-.594-.594v-8.813a.6.6 0 0 1 .594-.593h11.062l-.062-3.594-16.344-.281-.25 14c0 .323-.24.594-.563.593h-27.78c-.324 0-.563-.27-.563-.593v-9.532c0-.322.146-.156.469-.156l14.437.063.094-4.407-14.969-.03c-.323 0-.594-.24-.594-.563v-8.313a.6.6 0 0 1 .594-.594h11.219v-18.906h-3.063v13.156c0 .323-.24.594-.562.594h-8.313c-.323 0-.562-.27-.562-.594v-22l20.812-.03.063 27.78h14.812v-4.5H349.72l-.344-23.312z" style="fill:#2e2e2e;fill-opacity:1;fill-rule:evenodd;stroke:none;stroke-width:.89999998;stroke-linecap:round;stroke-linejoin:round;marker:none;marker-start:none;marker-mid:none;marker-end:none;stroke-miterlimit:4;stroke-dashoffset:0;stroke-opacity:1;visibility:visible;display:inline;overflow:visible" transform="matrix(1.07281 0 0 1.09227 -23.412 -64.609)"/></g></svg>