<!--Created with Inkscape (http://www.inkscape.org/)--><svg xmlns:dc="http://purl.org/dc/elements/1.1/" xmlns:cc="http://creativecommons.org/ns#" xmlns:rdf="http://www.w3.org/1999/02/22-rdf-syntax-ns#" xmlns="http://www.w3.org/2000/svg" xmlns:sodipodi="http://sodipodi.sourceforge.net/DTD/sodipodi-0.dtd" xmlns:inkscape="http://www.inkscape.org/namespaces/inkscape" width="48.610508mm" height="30.93396mm" viewBox="0 0 172.24196 109.60852" inkscape:version="0.91 r13725" sodipodi:docname="tux_shoes_top_south.svg"><sodipodi:namedview pagecolor="#ffffff" bordercolor="#666666" borderopacity="1.0" inkscape:pageopacity="0.0" inkscape:pageshadow="2" inkscape:zoom="3.959798" inkscape:cx="80.329222" inkscape:cy="32.618961" inkscape:document-units="px" inkscape:current-layer="layer1" showgrid="false" fit-margin-top="0" fit-margin-left="0" fit-margin-right="0" fit-margin-bottom="0" inkscape:window-width="1880" inkscape:window-height="1060" inkscape:window-x="-3" inkscape:window-y="-3" inkscape:window-maximized="1"/><metadata><rdf:RDF><cc:Work><dc:format>image/svg+xml</dc:format><dc:type rdf:resource="http://purl.org/dc/dcmitype/StillImage"/><dc:title/><dc:date>2015</dc:date><dc:creator><cc:Agent><dc:title>Timothée Giet</dc:title></cc:Agent></dc:creator><cc:license rdf:resource="http://creativecommons.org/licenses/by-sa/4.0/"/></cc:Work><cc:License rdf:about="http://creativecommons.org/licenses/by-sa/4.0/"><cc:permits rdf:resource="http://creativecommons.org/ns#Reproduction"/><cc:permits rdf:resource="http://creativecommons.org/ns#Distribution"/><cc:requires rdf:resource="http://creativecommons.org/ns#Notice"/><cc:requires rdf:resource="http://creativecommons.org/ns#Attribution"/><cc:permits rdf:resource="http://creativecommons.org/ns#DerivativeWorks"/><cc:requires rdf:resource="http://creativecommons.org/ns#ShareAlike"/></cc:License></rdf:RDF></metadata><g inkscape:label="Calque 1" inkscape:groupmode="layer"><path inkscape:connector-curvature="0" style="fill:#5d1e1e;fill-opacity:1;stroke:none;stroke-width:.51014107px;stroke-linecap:butt;stroke-linejoin:miter;stroke-opacity:1" d="M264.596 654.625c-6.71 8.41-17.849 20.381-17.203 28.034.657 7.78 34.236 13.682 38.104 13.007 3.81-.664 7.035-.879 4.66-19.837-.278-.128-.58-.233-.856-.364a65.455 65.455 0 0 1-15.424-10.169 61.015 61.015 0 0 1-4.195-4.123 57.847 57.847 0 0 1-3.689-4.381c-.314-.415-1.097-1.747-1.397-2.167z" sodipodi:nodetypes="cssccsssscc" transform="translate(-228.165 -586.13)"/><path inkscape:connector-curvature="0" style="fill:#cf1f1f;fill-opacity:1;stroke:none;stroke-width:.51014107px;stroke-linecap:butt;stroke-linejoin:miter;stroke-opacity:1" d="M265.22 656.053c-6.708 8.411-17.071 18.572-15.554 26.1 1.289 6.392 31.585 11.536 35.452 10.862 3.81-.665 4.888-8.33 4.03-17.564-2.239-.974-3.582-1.864-5.44-2.967a65.455 65.455 0 0 1-9.83-7.188 61.015 61.015 0 0 1-4.196-4.123c-1.752-1.948-3.165-3.144-4.461-5.12z" sodipodi:nodetypes="cssccsscc" transform="translate(-228.165 -586.13)"/><path style="fill:#751b1b;fill-opacity:1;stroke:none;stroke-width:.519548px;stroke-linecap:butt;stroke-linejoin:miter;stroke-opacity:1" d="m272.011 663.614-2.56 18.185 10.509-11.716" inkscape:connector-curvature="0" sodipodi:nodetypes="ccc" transform="translate(-228.165 -586.13)"/><path style="color:#000;font-style:normal;font-variant:normal;font-weight:400;font-stretch:normal;font-size:medium;line-height:normal;font-family:sans-serif;text-indent:0;text-align:start;text-decoration:none;text-decoration-line:none;text-decoration-style:solid;text-decoration-color:#000;letter-spacing:normal;word-spacing:normal;text-transform:none;direction:ltr;block-progression:tb;writing-mode:lr-tb;baseline-shift:baseline;text-anchor:start;white-space:normal;clip-rule:nonzero;display:inline;overflow:visible;visibility:visible;opacity:1;isolation:auto;mix-blend-mode:normal;color-interpolation:sRGB;color-interpolation-filters:linearRGB;solid-color:#000;solid-opacity:1;fill:#f1f1f1;fill-opacity:1;fill-rule:nonzero;stroke:none;stroke-width:.519548px;stroke-linecap:round;stroke-linejoin:round;stroke-miterlimit:4;stroke-dasharray:none;stroke-dashoffset:0;stroke-opacity:1;color-rendering:auto;image-rendering:auto;shape-rendering:auto;text-rendering:auto;enable-background:accumulate" d="m271.9 663.65-2.97-.289c-.232.002-.256.908-.09 1.07l10.199 9.782-11.353-1.615c-.219-.035-.646 1.004-.532 1.194l5.729 8.177-5.992-3.604c-.3-.187-.573.27-.268.446l6.359 4.414c.232.138 1.03-.394.891-.625l-5.627-9.312 11.688 2.099s.759-.443.58-.62l-10.951-10.712 2.34.115c.352.002.348-.527-.004-.52z" inkscape:connector-curvature="0" sodipodi:nodetypes="cccccccccccccccccc" transform="translate(-228.165 -586.13)"/><path style="color:#000;font-style:normal;font-variant:normal;font-weight:400;font-stretch:normal;font-size:medium;line-height:normal;font-family:sans-serif;text-indent:0;text-align:start;text-decoration:none;text-decoration-line:none;text-decoration-style:solid;text-decoration-color:#000;letter-spacing:normal;word-spacing:normal;text-transform:none;direction:ltr;block-progression:tb;writing-mode:lr-tb;baseline-shift:baseline;text-anchor:start;white-space:normal;clip-rule:nonzero;display:inline;overflow:visible;visibility:visible;opacity:1;isolation:auto;mix-blend-mode:normal;color-interpolation:sRGB;color-interpolation-filters:linearRGB;solid-color:#000;solid-opacity:1;fill:#f1f1f1;fill-opacity:1;fill-rule:nonzero;stroke:none;stroke-width:.519548px;stroke-linecap:round;stroke-linejoin:round;stroke-miterlimit:4;stroke-dasharray:none;stroke-dashoffset:0;stroke-opacity:1;marker:none;color-rendering:auto;image-rendering:auto;shape-rendering:auto;text-rendering:auto;enable-background:accumulate" d="M268.244 667.761c-.213.015-.318.534-.18.696l8.297 9.824-9.642.164c-.347.007-.337.527.01.52l10.19-.174a.26.26 0 0 0 .193-.428l-8.221-9.732 11.03 2.11c.345.044.41-.472.065-.515-3.9-.49-7.842-1.983-11.742-2.465z" inkscape:connector-curvature="0" sodipodi:nodetypes="ccccccccccc" transform="translate(-228.165 -586.13)"/><path style="color:#000;display:inline;overflow:visible;visibility:visible;fill:#f1f1f1;fill-opacity:1;fill-rule:nonzero;stroke:none;stroke-width:10.19999981;marker:none;enable-background:accumulate" d="m262.113 659.938 3.172-3.914 1.802 2.274c-4.53 12.025-11.054 22.746-5.575 30.707-1.422-.436-2.968-1.167-4.385-1.679-6-10.282 2.134-17.53 4.986-27.388z" inkscape:connector-curvature="0" sodipodi:nodetypes="cccccc" transform="translate(-228.165 -586.13)"/><path inkscape:connector-curvature="0" style="fill:#5d1e1e;fill-opacity:1;stroke:none;stroke-width:.51014107px;stroke-linecap:butt;stroke-linejoin:miter;stroke-opacity:1" d="M363.866 654.625c6.709 8.41 17.848 20.381 17.202 28.034-.657 7.78-34.236 13.682-38.103 13.007-3.81-.664-7.035-.879-4.661-19.837.279-.128.58-.233.856-.364a65.455 65.455 0 0 0 15.424-10.169 61.015 61.015 0 0 0 4.196-4.123 57.847 57.847 0 0 0 3.689-4.381c.313-.415 1.097-1.747 1.397-2.167z" sodipodi:nodetypes="cssccsssscc" transform="translate(-228.165 -586.13)"/><path inkscape:connector-curvature="0" style="fill:#cf1f1f;fill-opacity:1;stroke:none;stroke-width:.51014107px;stroke-linecap:butt;stroke-linejoin:miter;stroke-opacity:1" d="M363.24 656.053c6.71 8.411 17.073 18.572 15.555 26.1-1.288 6.392-31.584 11.536-35.451 10.862-3.81-.665-4.889-8.33-4.03-17.564 2.238-.974 3.581-1.864 5.439-2.967a65.455 65.455 0 0 0 9.831-7.188 61.015 61.015 0 0 0 4.196-4.123c1.752-1.948 3.164-3.144 4.46-5.12z" sodipodi:nodetypes="cssccsscc" transform="translate(-228.165 -586.13)"/><path style="fill:#751b1b;fill-opacity:1;stroke:none;stroke-width:.519548px;stroke-linecap:butt;stroke-linejoin:miter;stroke-opacity:1" d="m356.45 663.614 2.56 18.185-10.508-11.716" inkscape:connector-curvature="0" sodipodi:nodetypes="ccc" transform="translate(-228.165 -586.13)"/><path style="color:#000;font-style:normal;font-variant:normal;font-weight:400;font-stretch:normal;font-size:medium;line-height:normal;font-family:sans-serif;text-indent:0;text-align:start;text-decoration:none;text-decoration-line:none;text-decoration-style:solid;text-decoration-color:#000;letter-spacing:normal;word-spacing:normal;text-transform:none;direction:ltr;block-progression:tb;writing-mode:lr-tb;baseline-shift:baseline;text-anchor:start;white-space:normal;clip-rule:nonzero;display:inline;overflow:visible;visibility:visible;opacity:1;isolation:auto;mix-blend-mode:normal;color-interpolation:sRGB;color-interpolation-filters:linearRGB;solid-color:#000;solid-opacity:1;fill:#f1f1f1;fill-opacity:1;fill-rule:nonzero;stroke:none;stroke-width:.519548px;stroke-linecap:round;stroke-linejoin:round;stroke-miterlimit:4;stroke-dasharray:none;stroke-dashoffset:0;stroke-opacity:1;color-rendering:auto;image-rendering:auto;shape-rendering:auto;text-rendering:auto;enable-background:accumulate" d="m356.562 663.65 2.97-.289c.232.002.256.908.09 1.07l-10.199 9.782 11.353-1.615c.218-.035.646 1.004.532 1.194l-5.73 8.177 5.993-3.604c.299-.187.573.27.268.446l-6.36 4.414c-.232.138-1.03-.394-.89-.625l5.627-9.312-11.688 2.099s-.76-.443-.58-.62l10.951-10.712-2.34.115c-.352.002-.348-.527.003-.52z" inkscape:connector-curvature="0" sodipodi:nodetypes="cccccccccccccccccc" transform="translate(-228.165 -586.13)"/><path style="color:#000;font-style:normal;font-variant:normal;font-weight:400;font-stretch:normal;font-size:medium;line-height:normal;font-family:sans-serif;text-indent:0;text-align:start;text-decoration:none;text-decoration-line:none;text-decoration-style:solid;text-decoration-color:#000;letter-spacing:normal;word-spacing:normal;text-transform:none;direction:ltr;block-progression:tb;writing-mode:lr-tb;baseline-shift:baseline;text-anchor:start;white-space:normal;clip-rule:nonzero;display:inline;overflow:visible;visibility:visible;opacity:1;isolation:auto;mix-blend-mode:normal;color-interpolation:sRGB;color-interpolation-filters:linearRGB;solid-color:#000;solid-opacity:1;fill:#f1f1f1;fill-opacity:1;fill-rule:nonzero;stroke:none;stroke-width:.519548px;stroke-linecap:round;stroke-linejoin:round;stroke-miterlimit:4;stroke-dasharray:none;stroke-dashoffset:0;stroke-opacity:1;marker:none;color-rendering:auto;image-rendering:auto;shape-rendering:auto;text-rendering:auto;enable-background:accumulate" d="M360.217 667.761c.213.015.319.534.18.696l-8.297 9.824 9.643.164c.346.007.336.527-.01.52l-10.19-.174a.26.26 0 0 1-.193-.428l8.22-9.732-11.03 2.11c-.344.044-.408-.472-.065-.515 3.9-.49 7.842-1.983 11.742-2.465z" inkscape:connector-curvature="0" sodipodi:nodetypes="ccccccccccc" transform="translate(-228.165 -586.13)"/><path style="color:#000;display:inline;overflow:visible;visibility:visible;fill:#f1f1f1;fill-opacity:1;fill-rule:nonzero;stroke:none;stroke-width:10.19999981;marker:none;enable-background:accumulate" d="m366.349 659.938-3.173-3.914-1.802 2.274c4.53 12.025 11.055 22.746 5.575 30.707 1.423-.436 2.968-1.167 4.386-1.679 5.999-10.282-2.134-17.53-4.986-27.388z" inkscape:connector-curvature="0" sodipodi:nodetypes="cccccc" transform="translate(-228.165 -586.13)"/></g></svg>