<?xml version="1.0" encoding="UTF-8" standalone="no"?>
<!-- Created with Inkscape (http://www.inkscape.org/) -->

<svg
   xmlns:dc="http://purl.org/dc/elements/1.1/"
   xmlns:cc="http://creativecommons.org/ns#"
   xmlns:rdf="http://www.w3.org/1999/02/22-rdf-syntax-ns#"
   xmlns:svg="http://www.w3.org/2000/svg"
   xmlns="http://www.w3.org/2000/svg"
   xmlns:sodipodi="http://sodipodi.sourceforge.net/DTD/sodipodi-0.dtd"
   xmlns:inkscape="http://www.inkscape.org/namespaces/inkscape"
   width="100"
   height="100"
   id="svg12024"
   sodipodi:version="0.32"
   inkscape:version="0.92.1 r15371"
   version="1.0"
   sodipodi:docname="calendar.svg">
  <defs
     id="defs12026" />
  <sodipodi:namedview
     id="base"
     pagecolor="#ffffff"
     bordercolor="#666666"
     borderopacity="1.0"
     inkscape:pageopacity="0.0"
     inkscape:pageshadow="2"
     inkscape:zoom="5.6362496"
     inkscape:cx="31.488071"
     inkscape:cy="53.248386"
     inkscape:document-units="px"
     inkscape:current-layer="layer1"
     height="100px"
     width="100px"
     inkscape:window-width="1884"
     inkscape:window-height="1051"
     inkscape:window-x="0"
     inkscape:window-y="0"
     showgrid="true"
     inkscape:window-maximized="1">
    <inkscape:grid
       type="xygrid"
       id="grid847"
       empspacing="4" />
  </sodipodi:namedview>
  <metadata
     id="metadata12029">
    <rdf:RDF>
      <cc:Work
         rdf:about="">
        <dc:format>image/svg+xml</dc:format>
        <dc:type
           rdf:resource="http://purl.org/dc/dcmitype/StillImage" />
        <dc:title></dc:title>
        <dc:date>2018</dc:date>
        <dc:creator>
          <cc:Agent>
            <dc:title>Timothée Giet</dc:title>
          </cc:Agent>
        </dc:creator>
        <cc:license
           rdf:resource="http://creativecommons.org/licenses/by-sa/4.0/" />
      </cc:Work>
      <cc:License
         rdf:about="http://creativecommons.org/licenses/by-sa/4.0/">
        <cc:permits
           rdf:resource="http://creativecommons.org/ns#Reproduction" />
        <cc:permits
           rdf:resource="http://creativecommons.org/ns#Distribution" />
        <cc:requires
           rdf:resource="http://creativecommons.org/ns#Notice" />
        <cc:requires
           rdf:resource="http://creativecommons.org/ns#Attribution" />
        <cc:permits
           rdf:resource="http://creativecommons.org/ns#DerivativeWorks" />
        <cc:requires
           rdf:resource="http://creativecommons.org/ns#ShareAlike" />
      </cc:License>
    </rdf:RDF>
  </metadata>
  <g
     inkscape:label="Calque 1"
     inkscape:groupmode="layer"
     id="layer1">
    <rect
       style="opacity:1;fill:#373737;fill-opacity:0.50196081;stroke:none;stroke-width:1;stroke-linecap:butt;stroke-linejoin:round;stroke-miterlimit:4;stroke-dasharray:none;stroke-opacity:1"
       id="rect1471"
       width="92"
       height="84"
       x="4"
       y="16" />
    <rect
       style="opacity:1;fill:#373737;fill-opacity:1;stroke:#8e8e8e;stroke-width:1;stroke-linecap:butt;stroke-linejoin:round;stroke-miterlimit:4;stroke-dasharray:none;stroke-opacity:1"
       id="rect895"
       width="12"
       height="12"
       x="8"
       y="36" />
    <rect
       style="opacity:1;fill:#373737;fill-opacity:1;stroke:#8e8e8e;stroke-width:1;stroke-linecap:butt;stroke-linejoin:round;stroke-miterlimit:4;stroke-dasharray:none;stroke-opacity:1"
       id="rect895-3"
       width="12"
       height="12"
       x="20"
       y="36" />
    <rect
       style="opacity:1;fill:#373737;fill-opacity:1;stroke:#8e8e8e;stroke-width:1;stroke-linecap:butt;stroke-linejoin:round;stroke-miterlimit:4;stroke-dasharray:none;stroke-opacity:1"
       id="rect895-5"
       width="12"
       height="12"
       x="32"
       y="36" />
    <rect
       style="opacity:1;fill:#373737;fill-opacity:1;stroke:#8e8e8e;stroke-width:1;stroke-linecap:butt;stroke-linejoin:round;stroke-miterlimit:4;stroke-dasharray:none;stroke-opacity:1"
       id="rect895-6"
       width="12"
       height="12"
       x="44"
       y="36" />
    <rect
       style="opacity:1;fill:#373737;fill-opacity:1;stroke:#8e8e8e;stroke-width:1;stroke-linecap:butt;stroke-linejoin:round;stroke-miterlimit:4;stroke-dasharray:none;stroke-opacity:1"
       id="rect895-3-2"
       width="12"
       height="12"
       x="56"
       y="36" />
    <rect
       style="opacity:1;fill:#373737;fill-opacity:1;stroke:#8e8e8e;stroke-width:1;stroke-linecap:butt;stroke-linejoin:round;stroke-miterlimit:4;stroke-dasharray:none;stroke-opacity:1"
       id="rect895-5-9"
       width="12"
       height="12"
       x="68"
       y="36" />
    <rect
       style="opacity:1;fill:#373737;fill-opacity:1;stroke:#8e8e8e;stroke-width:1;stroke-linecap:butt;stroke-linejoin:round;stroke-miterlimit:4;stroke-dasharray:none;stroke-opacity:1"
       id="rect895-5-9-1"
       width="12"
       height="12"
       x="80"
       y="36" />
    <rect
       style="opacity:1;fill:#373737;fill-opacity:1;stroke:#8e8e8e;stroke-width:1;stroke-linecap:butt;stroke-linejoin:round;stroke-miterlimit:4;stroke-dasharray:none;stroke-opacity:1"
       id="rect895-2"
       width="12"
       height="12"
       x="8"
       y="48" />
    <rect
       style="opacity:1;fill:#373737;fill-opacity:1;stroke:#8e8e8e;stroke-width:1;stroke-linecap:butt;stroke-linejoin:round;stroke-miterlimit:4;stroke-dasharray:none;stroke-opacity:1"
       id="rect895-3-7"
       width="12"
       height="12"
       x="20"
       y="48" />
    <rect
       style="opacity:1;fill:#373737;fill-opacity:1;stroke:#8e8e8e;stroke-width:1;stroke-linecap:butt;stroke-linejoin:round;stroke-miterlimit:4;stroke-dasharray:none;stroke-opacity:1"
       id="rect895-5-0"
       width="12"
       height="12"
       x="32"
       y="48" />
    <rect
       style="opacity:1;fill:#373737;fill-opacity:1;stroke:#8e8e8e;stroke-width:1;stroke-linecap:butt;stroke-linejoin:round;stroke-miterlimit:4;stroke-dasharray:none;stroke-opacity:1"
       id="rect895-6-9"
       width="12"
       height="12"
       x="44"
       y="48" />
    <rect
       style="opacity:1;fill:#373737;fill-opacity:1;stroke:#8e8e8e;stroke-width:1;stroke-linecap:butt;stroke-linejoin:round;stroke-miterlimit:4;stroke-dasharray:none;stroke-opacity:1"
       id="rect895-3-2-3"
       width="12"
       height="12"
       x="56"
       y="48" />
    <rect
       style="opacity:1;fill:#373737;fill-opacity:1;stroke:#8e8e8e;stroke-width:1;stroke-linecap:butt;stroke-linejoin:round;stroke-miterlimit:4;stroke-dasharray:none;stroke-opacity:1"
       id="rect895-5-9-6"
       width="12"
       height="12"
       x="68"
       y="48" />
    <rect
       style="opacity:1;fill:#373737;fill-opacity:1;stroke:#8e8e8e;stroke-width:1;stroke-linecap:butt;stroke-linejoin:round;stroke-miterlimit:4;stroke-dasharray:none;stroke-opacity:1"
       id="rect895-5-9-1-0"
       width="12"
       height="12"
       x="80"
       y="48" />
    <rect
       style="opacity:1;fill:#373737;fill-opacity:1;stroke:#8e8e8e;stroke-width:1;stroke-linecap:butt;stroke-linejoin:round;stroke-miterlimit:4;stroke-dasharray:none;stroke-opacity:1"
       id="rect895-2-6"
       width="12"
       height="12"
       x="8"
       y="48" />
    <rect
       style="opacity:1;fill:#373737;fill-opacity:1;stroke:#8e8e8e;stroke-width:1;stroke-linecap:butt;stroke-linejoin:round;stroke-miterlimit:4;stroke-dasharray:none;stroke-opacity:1"
       id="rect895-3-7-2"
       width="12"
       height="12"
       x="20"
       y="48" />
    <rect
       style="opacity:1;fill:#373737;fill-opacity:1;stroke:#8e8e8e;stroke-width:1;stroke-linecap:butt;stroke-linejoin:round;stroke-miterlimit:4;stroke-dasharray:none;stroke-opacity:1"
       id="rect895-5-0-6"
       width="12"
       height="12"
       x="32"
       y="48" />
    <rect
       style="opacity:1;fill:#373737;fill-opacity:1;stroke:#8e8e8e;stroke-width:1;stroke-linecap:butt;stroke-linejoin:round;stroke-miterlimit:4;stroke-dasharray:none;stroke-opacity:1"
       id="rect895-6-9-1"
       width="12"
       height="12"
       x="44"
       y="48" />
    <rect
       style="opacity:1;fill:#373737;fill-opacity:1;stroke:#8e8e8e;stroke-width:1;stroke-linecap:butt;stroke-linejoin:round;stroke-miterlimit:4;stroke-dasharray:none;stroke-opacity:1"
       id="rect895-3-2-3-8"
       width="12"
       height="12"
       x="56"
       y="48" />
    <rect
       style="opacity:1;fill:#373737;fill-opacity:1;stroke:#8e8e8e;stroke-width:1;stroke-linecap:butt;stroke-linejoin:round;stroke-miterlimit:4;stroke-dasharray:none;stroke-opacity:1"
       id="rect895-5-9-6-7"
       width="12"
       height="12"
       x="68"
       y="48" />
    <rect
       style="opacity:1;fill:#373737;fill-opacity:1;stroke:#8e8e8e;stroke-width:1;stroke-linecap:butt;stroke-linejoin:round;stroke-miterlimit:4;stroke-dasharray:none;stroke-opacity:1"
       id="rect895-5-9-1-0-9"
       width="12"
       height="12"
       x="80"
       y="48" />
    <rect
       style="opacity:1;fill:#373737;fill-opacity:1;stroke:#8e8e8e;stroke-width:1;stroke-linecap:butt;stroke-linejoin:round;stroke-miterlimit:4;stroke-dasharray:none;stroke-opacity:1"
       id="rect895-2-2"
       width="12"
       height="12"
       x="8"
       y="60" />
    <rect
       style="opacity:1;fill:#373737;fill-opacity:1;stroke:#8e8e8e;stroke-width:1;stroke-linecap:butt;stroke-linejoin:round;stroke-miterlimit:4;stroke-dasharray:none;stroke-opacity:1"
       id="rect895-3-7-0"
       width="12"
       height="12"
       x="20"
       y="60" />
    <rect
       style="opacity:1;fill:#373737;fill-opacity:1;stroke:#8e8e8e;stroke-width:1;stroke-linecap:butt;stroke-linejoin:round;stroke-miterlimit:4;stroke-dasharray:none;stroke-opacity:1"
       id="rect895-5-0-2"
       width="12"
       height="12"
       x="32"
       y="60" />
    <rect
       style="opacity:1;fill:#373737;fill-opacity:1;stroke:#8e8e8e;stroke-width:1;stroke-linecap:butt;stroke-linejoin:round;stroke-miterlimit:4;stroke-dasharray:none;stroke-opacity:1"
       id="rect895-6-9-3"
       width="12"
       height="12"
       x="44"
       y="60" />
    <rect
       style="opacity:1;fill:#373737;fill-opacity:1;stroke:#8e8e8e;stroke-width:1;stroke-linecap:butt;stroke-linejoin:round;stroke-miterlimit:4;stroke-dasharray:none;stroke-opacity:1"
       id="rect895-3-2-3-7"
       width="12"
       height="12"
       x="56"
       y="60" />
    <rect
       style="opacity:1;fill:#373737;fill-opacity:1;stroke:#8e8e8e;stroke-width:1;stroke-linecap:butt;stroke-linejoin:round;stroke-miterlimit:4;stroke-dasharray:none;stroke-opacity:1"
       id="rect895-5-9-6-5"
       width="12"
       height="12"
       x="68"
       y="60" />
    <rect
       style="opacity:1;fill:#373737;fill-opacity:1;stroke:#8e8e8e;stroke-width:1;stroke-linecap:butt;stroke-linejoin:round;stroke-miterlimit:4;stroke-dasharray:none;stroke-opacity:1"
       id="rect895-5-9-1-0-92"
       width="12"
       height="12"
       x="80"
       y="60" />
    <rect
       style="opacity:1;fill:#373737;fill-opacity:1;stroke:#8e8e8e;stroke-width:1;stroke-linecap:butt;stroke-linejoin:round;stroke-miterlimit:4;stroke-dasharray:none;stroke-opacity:1"
       id="rect895-2-6-2"
       width="12"
       height="12"
       x="8"
       y="60" />
    <rect
       style="opacity:1;fill:#373737;fill-opacity:1;stroke:#8e8e8e;stroke-width:1;stroke-linecap:butt;stroke-linejoin:round;stroke-miterlimit:4;stroke-dasharray:none;stroke-opacity:1"
       id="rect895-3-7-2-8"
       width="12"
       height="12"
       x="20"
       y="60" />
    <rect
       style="opacity:1;fill:#373737;fill-opacity:1;stroke:#8e8e8e;stroke-width:1;stroke-linecap:butt;stroke-linejoin:round;stroke-miterlimit:4;stroke-dasharray:none;stroke-opacity:1"
       id="rect895-5-0-6-9"
       width="12"
       height="12"
       x="32"
       y="60" />
    <rect
       style="opacity:1;fill:#373737;fill-opacity:1;stroke:#8e8e8e;stroke-width:1;stroke-linecap:butt;stroke-linejoin:round;stroke-miterlimit:4;stroke-dasharray:none;stroke-opacity:1"
       id="rect895-6-9-1-7"
       width="12"
       height="12"
       x="44"
       y="60" />
    <rect
       style="opacity:1;fill:#373737;fill-opacity:1;stroke:#8e8e8e;stroke-width:1;stroke-linecap:butt;stroke-linejoin:round;stroke-miterlimit:4;stroke-dasharray:none;stroke-opacity:1"
       id="rect895-3-2-3-8-3"
       width="12"
       height="12"
       x="56"
       y="60" />
    <rect
       style="opacity:1;fill:#373737;fill-opacity:1;stroke:#8e8e8e;stroke-width:1;stroke-linecap:butt;stroke-linejoin:round;stroke-miterlimit:4;stroke-dasharray:none;stroke-opacity:1"
       id="rect895-5-9-6-7-6"
       width="12"
       height="12"
       x="68"
       y="60" />
    <rect
       style="opacity:1;fill:#373737;fill-opacity:1;stroke:#8e8e8e;stroke-width:1;stroke-linecap:butt;stroke-linejoin:round;stroke-miterlimit:4;stroke-dasharray:none;stroke-opacity:1"
       id="rect895-5-9-1-0-9-1"
       width="12"
       height="12"
       x="80"
       y="60" />
    <rect
       style="opacity:1;fill:#373737;fill-opacity:1;stroke:#8e8e8e;stroke-width:1;stroke-linecap:butt;stroke-linejoin:round;stroke-miterlimit:4;stroke-dasharray:none;stroke-opacity:1"
       id="rect895-2-29"
       width="12"
       height="12"
       x="8"
       y="72" />
    <rect
       style="opacity:1;fill:#373737;fill-opacity:1;stroke:#8e8e8e;stroke-width:1;stroke-linecap:butt;stroke-linejoin:round;stroke-miterlimit:4;stroke-dasharray:none;stroke-opacity:1"
       id="rect895-3-7-3"
       width="12"
       height="12"
       x="20"
       y="72" />
    <rect
       style="opacity:1;fill:#373737;fill-opacity:1;stroke:#8e8e8e;stroke-width:1;stroke-linecap:butt;stroke-linejoin:round;stroke-miterlimit:4;stroke-dasharray:none;stroke-opacity:1"
       id="rect895-5-0-1"
       width="12"
       height="12"
       x="32"
       y="72" />
    <rect
       style="opacity:1;fill:#373737;fill-opacity:1;stroke:#8e8e8e;stroke-width:1;stroke-linecap:butt;stroke-linejoin:round;stroke-miterlimit:4;stroke-dasharray:none;stroke-opacity:1"
       id="rect895-6-9-9"
       width="12"
       height="12"
       x="44"
       y="72" />
    <rect
       style="opacity:1;fill:#373737;fill-opacity:1;stroke:#8e8e8e;stroke-width:1;stroke-linecap:butt;stroke-linejoin:round;stroke-miterlimit:4;stroke-dasharray:none;stroke-opacity:1"
       id="rect895-3-2-3-4"
       width="12"
       height="12"
       x="56"
       y="72" />
    <rect
       style="opacity:1;fill:#373737;fill-opacity:1;stroke:#8e8e8e;stroke-width:1;stroke-linecap:butt;stroke-linejoin:round;stroke-miterlimit:4;stroke-dasharray:none;stroke-opacity:1"
       id="rect895-5-9-6-78"
       width="12"
       height="12"
       x="68"
       y="72" />
    <rect
       style="opacity:1;fill:#373737;fill-opacity:1;stroke:#8e8e8e;stroke-width:1;stroke-linecap:butt;stroke-linejoin:round;stroke-miterlimit:4;stroke-dasharray:none;stroke-opacity:1"
       id="rect895-5-9-1-0-4"
       width="12"
       height="12"
       x="80"
       y="72" />
    <rect
       style="opacity:1;fill:#373737;fill-opacity:1;stroke:#8e8e8e;stroke-width:1;stroke-linecap:butt;stroke-linejoin:round;stroke-miterlimit:4;stroke-dasharray:none;stroke-opacity:1"
       id="rect895-2-6-5"
       width="12"
       height="12"
       x="8"
       y="72" />
    <rect
       style="opacity:1;fill:#373737;fill-opacity:1;stroke:#8e8e8e;stroke-width:1;stroke-linecap:butt;stroke-linejoin:round;stroke-miterlimit:4;stroke-dasharray:none;stroke-opacity:1"
       id="rect895-3-7-2-0"
       width="12"
       height="12"
       x="20"
       y="72" />
    <rect
       style="opacity:1;fill:#373737;fill-opacity:1;stroke:#8e8e8e;stroke-width:1;stroke-linecap:butt;stroke-linejoin:round;stroke-miterlimit:4;stroke-dasharray:none;stroke-opacity:1"
       id="rect895-5-0-6-3"
       width="12"
       height="12"
       x="32"
       y="72" />
    <rect
       style="opacity:1;fill:#373737;fill-opacity:1;stroke:#8e8e8e;stroke-width:1;stroke-linecap:butt;stroke-linejoin:round;stroke-miterlimit:4;stroke-dasharray:none;stroke-opacity:1"
       id="rect895-6-9-1-6"
       width="12"
       height="12"
       x="44"
       y="72" />
    <rect
       style="opacity:1;fill:#373737;fill-opacity:1;stroke:#8e8e8e;stroke-width:1;stroke-linecap:butt;stroke-linejoin:round;stroke-miterlimit:4;stroke-dasharray:none;stroke-opacity:1"
       id="rect895-3-2-3-8-1"
       width="12"
       height="12"
       x="56"
       y="72" />
    <rect
       style="opacity:1;fill:#373737;fill-opacity:1;stroke:#8e8e8e;stroke-width:1;stroke-linecap:butt;stroke-linejoin:round;stroke-miterlimit:4;stroke-dasharray:none;stroke-opacity:1"
       id="rect895-5-9-6-7-0"
       width="12"
       height="12"
       x="68"
       y="72" />
    <rect
       style="opacity:1;fill:#373737;fill-opacity:1;stroke:#8e8e8e;stroke-width:1;stroke-linecap:butt;stroke-linejoin:round;stroke-miterlimit:4;stroke-dasharray:none;stroke-opacity:1"
       id="rect895-5-9-1-0-9-6"
       width="12"
       height="12"
       x="80"
       y="72" />
    <rect
       style="opacity:1;fill:#373737;fill-opacity:1;stroke:#8e8e8e;stroke-width:1;stroke-linecap:butt;stroke-linejoin:round;stroke-miterlimit:4;stroke-dasharray:none;stroke-opacity:1"
       id="rect895-2-3"
       width="12"
       height="12"
       x="8"
       y="84" />
    <rect
       style="opacity:1;fill:#373737;fill-opacity:1;stroke:#8e8e8e;stroke-width:1;stroke-linecap:butt;stroke-linejoin:round;stroke-miterlimit:4;stroke-dasharray:none;stroke-opacity:1"
       id="rect895-3-7-20"
       width="12"
       height="12"
       x="20"
       y="84" />
    <rect
       style="opacity:1;fill:#373737;fill-opacity:1;stroke:#8e8e8e;stroke-width:1;stroke-linecap:butt;stroke-linejoin:round;stroke-miterlimit:4;stroke-dasharray:none;stroke-opacity:1"
       id="rect895-5-0-61"
       width="12"
       height="12"
       x="32"
       y="84" />
    <rect
       style="opacity:1;fill:#373737;fill-opacity:1;stroke:#8e8e8e;stroke-width:1;stroke-linecap:butt;stroke-linejoin:round;stroke-miterlimit:4;stroke-dasharray:none;stroke-opacity:1"
       id="rect895-6-9-5"
       width="12"
       height="12"
       x="44"
       y="84" />
    <rect
       style="opacity:1;fill:#373737;fill-opacity:1;stroke:#8e8e8e;stroke-width:1;stroke-linecap:butt;stroke-linejoin:round;stroke-miterlimit:4;stroke-dasharray:none;stroke-opacity:1"
       id="rect895-3-2-3-5"
       width="12"
       height="12"
       x="56"
       y="84" />
    <rect
       style="opacity:1;fill:#373737;fill-opacity:1;stroke:#8e8e8e;stroke-width:1;stroke-linecap:butt;stroke-linejoin:round;stroke-miterlimit:4;stroke-dasharray:none;stroke-opacity:1"
       id="rect895-5-9-6-4"
       width="12"
       height="12"
       x="68"
       y="84" />
    <rect
       style="opacity:1;fill:#373737;fill-opacity:1;stroke:#8e8e8e;stroke-width:1;stroke-linecap:butt;stroke-linejoin:round;stroke-miterlimit:4;stroke-dasharray:none;stroke-opacity:1"
       id="rect895-5-9-1-0-7"
       width="12"
       height="12"
       x="80"
       y="84" />
    <rect
       style="opacity:1;fill:#373737;fill-opacity:1;stroke:#8e8e8e;stroke-width:1;stroke-linecap:butt;stroke-linejoin:round;stroke-miterlimit:4;stroke-dasharray:none;stroke-opacity:1"
       id="rect895-2-6-6"
       width="12"
       height="12"
       x="8"
       y="84" />
    <rect
       style="opacity:1;fill:#373737;fill-opacity:1;stroke:#8e8e8e;stroke-width:1;stroke-linecap:butt;stroke-linejoin:round;stroke-miterlimit:4;stroke-dasharray:none;stroke-opacity:1"
       id="rect895-3-7-2-5"
       width="12"
       height="12"
       x="20"
       y="84" />
    <rect
       style="opacity:1;fill:#373737;fill-opacity:1;stroke:#8e8e8e;stroke-width:1;stroke-linecap:butt;stroke-linejoin:round;stroke-miterlimit:4;stroke-dasharray:none;stroke-opacity:1"
       id="rect895-5-0-6-6"
       width="12"
       height="12"
       x="32"
       y="84" />
    <rect
       style="opacity:1;fill:#373737;fill-opacity:1;stroke:#8e8e8e;stroke-width:1;stroke-linecap:butt;stroke-linejoin:round;stroke-miterlimit:4;stroke-dasharray:none;stroke-opacity:1"
       id="rect895-6-9-1-9"
       width="12"
       height="12"
       x="44"
       y="84" />
    <rect
       style="opacity:1;fill:#373737;fill-opacity:1;stroke:#8e8e8e;stroke-width:1;stroke-linecap:butt;stroke-linejoin:round;stroke-miterlimit:4;stroke-dasharray:none;stroke-opacity:1"
       id="rect895-3-2-3-8-37"
       width="12"
       height="12"
       x="56"
       y="84" />
    <rect
       style="opacity:1;fill:#373737;fill-opacity:1;stroke:#8e8e8e;stroke-width:1;stroke-linecap:butt;stroke-linejoin:round;stroke-miterlimit:4;stroke-dasharray:none;stroke-opacity:1"
       id="rect895-5-9-6-7-4"
       width="12"
       height="12"
       x="68"
       y="84" />
    <rect
       style="opacity:1;fill:#373737;fill-opacity:1;stroke:#8e8e8e;stroke-width:1;stroke-linecap:butt;stroke-linejoin:round;stroke-miterlimit:4;stroke-dasharray:none;stroke-opacity:1"
       id="rect895-5-9-1-0-9-5"
       width="12"
       height="12"
       x="80"
       y="84" />
    <rect
       style="opacity:1;fill:#f2f2f2;fill-opacity:1;stroke:#8e8e8e;stroke-width:1;stroke-linecap:butt;stroke-linejoin:round;stroke-miterlimit:4;stroke-dasharray:none;stroke-opacity:1"
       id="rect1138"
       width="84"
       height="16"
       x="8"
       y="20" />
    <text
       xml:space="preserve"
       style="font-style:normal;font-variant:normal;font-weight:normal;font-stretch:normal;font-size:5.33333349px;line-height:1.25;font-family:Kabel;-inkscape-font-specification:Kabel;letter-spacing:0px;word-spacing:0px;fill:#000000;fill-opacity:1;stroke:none"
       x="52"
       y="36"
       id="text1156"><tspan
         sodipodi:role="line"
         id="tspan1154"
         x="52"
         y="40.882881"></tspan></text>
    <g
       aria-label="1/12"
       style="font-style:normal;font-variant:normal;font-weight:normal;font-stretch:normal;font-size:8px;line-height:1.25;font-family:Kabel;-inkscape-font-specification:Kabel;letter-spacing:0px;word-spacing:0px;fill:#373737;fill-opacity:1;stroke:none"
       id="text1301">
      <path
         d="m 41.168945,28.760742 -0.591797,-1.017578 3.279297,-2.015625 v 6.888672 l -1.671875,0.144531 v -4.521484 z"
         id="path1307"
         inkscape:connector-curvature="0" />
      <path
         d="m 44.717773,33.895508 3.703125,-7.984375 0.0332,-0.0625 0.966796,0.423828 -3.671875,7.982422 -0.01563,0.01758 z"
         id="path1309"
         inkscape:connector-curvature="0" />
      <path
         d="m 50.77832,28.760742 -0.591797,-1.017578 3.279297,-2.015625 v 6.888672 l -1.671875,0.144531 v -4.521484 z"
         id="path1311"
         inkscape:connector-curvature="0" />
      <path
         d="m 54.327148,32.631836 2.423829,-2.904297 q 0.791015,-1.023437 0.791015,-1.455078 0,-0.02539 0,-0.04883 -0.04687,-0.423828 -0.271484,-0.63086 -0.207031,-0.193359 -0.503906,-0.193359 -0.02344,0 -0.04687,0 -0.320313,0.0078 -0.529297,0.232422 -0.207032,0.224609 -0.222657,0.544922 0,0.01563 0,0.03125 0,0.439453 0.558594,0.720703 L 55.59082,30.15918 q -0.0078,-0.0078 -0.191406,-0.126953 -0.183594,-0.121094 -0.351562,-0.25586 -0.65625,-0.617187 -0.65625,-1.576172 0,-0.06445 0,-0.128906 0.02344,-0.607422 0.34375,-1.103516 0.3125,-0.488281 0.871093,-0.751953 0.53711,-0.255859 1.183594,-0.255859 0.01758,0 0.0332,0 0.623047,0 1.158203,0.240234 0.53711,0.240235 0.873047,0.695313 0.328125,0.457031 0.361328,1.095703 0,0.04883 0,0.0957 0,0.496094 -0.289062,1.113281 -0.320313,0.6875 -0.775391,1.183594 l -0.671875,0.744141 h 1.94336 l -0.392579,1.503906 z"
         id="path1313"
         inkscape:connector-curvature="0" />
    </g>
    <path
       style="fill:#8bcff3;fill-opacity:0.94117647;stroke:none;stroke-width:1px;stroke-linecap:butt;stroke-linejoin:miter;stroke-opacity:1"
       d="m 16,24 -4,4 4,4 v -8"
       id="path1303"
       inkscape:connector-curvature="0" />
    <path
       style="fill:#8bcff3;fill-opacity:0.94117647;stroke:none;stroke-width:1px;stroke-linecap:butt;stroke-linejoin:miter;stroke-opacity:1"
       d="m 84,24 4,4 -4,4 z"
       id="path1305"
       inkscape:connector-curvature="0" />
  </g>
  <g
     inkscape:groupmode="layer"
     id="layer2"
     inkscape:label="Calque 2">
    <g
       aria-label="1"
       style="font-style:normal;font-variant:normal;font-weight:normal;font-stretch:normal;font-size:5.33333349px;line-height:1.25;font-family:Kabel;-inkscape-font-specification:Kabel;letter-spacing:0px;word-spacing:0px;fill:#f2f2f2;fill-opacity:1;stroke:none"
       id="text1161">
      <path
         d="m 48.666667,41.419271 -0.394532,-0.678386 2.186198,-1.34375 v 4.592448 l -1.114583,0.09635 v -3.014324 z"
         style=""
         id="path1468" />
    </g>
    <g
       aria-label="2"
       style="font-style:normal;font-variant:normal;font-weight:normal;font-stretch:normal;font-size:5.33333349px;line-height:1.25;font-family:Kabel;-inkscape-font-specification:Kabel;letter-spacing:0px;word-spacing:0px;fill:#f2f2f2;fill-opacity:1;stroke:none"
       id="text1165">
      <path
         d="m 60.272135,44 1.615886,-1.936198 q 0.527344,-0.682292 0.527344,-0.970052 0,-0.01693 0,-0.03255 -0.03125,-0.282552 -0.18099,-0.420573 -0.138021,-0.128906 -0.335937,-0.128906 -0.01563,0 -0.03125,0 -0.213542,0.0052 -0.352865,0.154948 -0.138021,0.149739 -0.148438,0.363281 0,0.01042 0,0.02083 0,0.292969 0.372396,0.480469 l -0.623698,0.820312 q -0.0052,-0.0052 -0.127604,-0.08463 -0.122396,-0.08073 -0.234375,-0.170573 -0.4375,-0.411458 -0.4375,-1.050781 0,-0.04297 0,-0.08594 0.01563,-0.404948 0.229167,-0.735677 0.208333,-0.325521 0.580729,-0.501302 0.358073,-0.170573 0.789063,-0.170573 0.01172,0 0.02213,0 0.415365,0 0.772135,0.160156 0.358073,0.160157 0.582032,0.463542 0.21875,0.304688 0.240885,0.730469 0,0.03255 0,0.0638 0,0.330729 -0.192708,0.742188 -0.213542,0.458333 -0.516927,0.789062 l -0.447917,0.496094 h 1.295573 L 63.407552,44 Z"
         style=""
         id="path1465" />
    </g>
    <g
       aria-label="3"
       style="font-style:normal;font-variant:normal;font-weight:normal;font-stretch:normal;font-size:5.33333349px;line-height:1.25;font-family:Kabel;-inkscape-font-specification:Kabel;letter-spacing:0px;word-spacing:0px;fill:#f2f2f2;fill-opacity:1;stroke:none"
       id="text1169">
      <path
         d="m 73.114583,40.917969 -0.778645,-0.523438 q 0.02734,-0.07422 0.160156,-0.239583 0.132812,-0.165365 0.282552,-0.266927 0.442708,-0.315104 1.045573,-0.315104 0.389323,0 0.75651,0.170572 0.363282,0.177084 0.582032,0.490886 0.170572,0.25651 0.170572,0.565104 0,0.08073 -0.01042,0.160156 -0.03255,0.235677 -0.122396,0.39974 -0.09635,0.171875 -0.192708,0.261719 -0.101563,0.09115 -0.11198,0.09635 0.261719,0.127604 0.432292,0.4375 0.170573,0.308594 0.170573,0.618489 0,0.21875 -0.06901,0.404948 -0.07552,0.1875 -0.1875,0.33724 -0.11198,0.148437 -0.223959,0.244792 -0.404948,0.351562 -1.16276,0.351562 -0.46875,0 -0.873698,-0.175781 -0.411458,-0.175781 -0.720052,-0.528646 l 0.740885,-0.697917 q 0.04297,0.05859 0.14974,0.160157 0.106771,0.10026 0.255208,0.170573 0.208333,0.09505 0.384115,0.10677 0.213541,-0.01693 0.384114,-0.139323 0.165365,-0.122395 0.165365,-0.330729 0,-0.154948 -0.0638,-0.272135 -0.06901,-0.117188 -0.18099,-0.153646 -0.197916,-0.05339 -0.533854,-0.05339 -0.117187,0 -0.160156,0 -0.04297,0.0052 -0.06901,0.01042 v -0.811198 q 0.02604,0 0.08594,0 0.05859,0.0052 0.132812,0.01042 0.287761,0 0.496094,-0.08464 0.203125,-0.08073 0.203125,-0.33073 0,-0.203125 -0.144531,-0.32552 -0.144531,-0.122396 -0.358073,-0.122396 -0.196615,0 -0.382813,0.101562 -0.192708,0.106771 -0.251302,0.272136 z"
         style=""
         id="path1462" />
    </g>
    <g
       aria-label="4"
       style="font-style:normal;font-variant:normal;font-weight:normal;font-stretch:normal;font-size:5.33333349px;line-height:1.25;font-family:Kabel;-inkscape-font-specification:Kabel;letter-spacing:0px;word-spacing:0px;fill:#f2f2f2;fill-opacity:1;stroke:none"
       id="text1173">
      <path
         d="m 85.717448,39.626302 h 1.450521 v 2.394531 h 0.623698 l -0.154948,0.949219 H 87.178386 V 44 l -1.071615,0.09635 v -1.126302 h -1.834636 z m 0.458333,2.4375 v -1.429688 l -0.602864,1.429688 z"
         style=""
         id="path1459" />
    </g>
    <g
       aria-label="5"
       style="font-style:normal;font-variant:normal;font-weight:normal;font-stretch:normal;font-size:5.33333349px;line-height:1.25;font-family:Kabel;-inkscape-font-specification:Kabel;letter-spacing:0px;word-spacing:0px;fill:#f2f2f2;fill-opacity:1;stroke:none"
       id="text1177">
      <path
         d="m 12.272135,55.509115 0.746094,-0.778646 q 0.01693,0.01563 0.07031,0.06901 0.04687,0.05859 0.132812,0.11849 0.08594,0.05859 0.203125,0.10026 0.117188,0.04818 0.292969,0.05339 0.261719,0 0.458333,-0.191407 0.165365,-0.160156 0.165365,-0.358073 0,-0.03646 -0.0052,-0.07422 -0.03255,-0.208334 -0.144532,-0.33073 Q 14.074219,54 13.914063,53.946615 q -0.158855,-0.05339 -0.319011,-0.05339 -0.277344,0 -0.533854,0.08073 -0.25651,0.08464 -0.320313,0.132813 v -2.410157 h 2.459636 l -0.261719,0.980469 H 13.78125 v 0.394531 q 0.02083,-0.0052 0.04818,-0.01042 0.02083,-0.0052 0.05208,-0.01042 0.03255,-0.0052 0.05469,-0.01042 0.02083,0 0.0638,0 0.421875,0 0.746094,0.229167 0.320312,0.229167 0.496094,0.597656 0.165364,0.36198 0.165364,0.746094 0,0.01042 0,0.02083 -0.01563,0.427083 -0.239583,0.76302 -0.229167,0.341146 -0.597656,0.533855 -0.367188,0.191406 -0.778646,0.201823 -0.02083,0 -0.04297,0 -0.479167,0 -0.932292,-0.250001 -0.470052,-0.261718 -0.544271,-0.373697 z"
         style=""
         id="path1456" />
    </g>
    <g
       aria-label="6"
       style="font-style:normal;font-variant:normal;font-weight:normal;font-stretch:normal;font-size:5.33333349px;line-height:1.25;font-family:Kabel;-inkscape-font-specification:Kabel;letter-spacing:0px;word-spacing:0px;fill:#f2f2f2;fill-opacity:1;stroke:none"
       id="text1181">
      <path
         d="m 26.074219,51.455729 1.147135,0.421875 q -0.03776,0.01042 -0.325521,0.266927 -0.292968,0.255208 -0.415364,0.377604 -0.240886,0.240886 -0.513021,0.582032 0,0 0.08073,-0.01042 0.07943,-0.01172 0.117188,-0.01693 0.03776,-0.0052 0.08594,-0.0052 0.585938,0 0.975261,0.416667 0.384114,0.420573 0.410156,1.013021 0,0.03255 0,0.0638 0,0.458333 -0.223958,0.800781 -0.239584,0.367188 -0.634115,0.554688 -0.39974,0.191406 -0.799479,0.191406 -0.742188,0 -1.210938,-0.480469 -0.4375,-0.442708 -0.4375,-1.135416 0,-0.05339 0.0052,-0.111979 0.01563,-0.277344 0.09115,-0.516928 0.06901,-0.235677 0.175782,-0.447916 0.10677,-0.213542 0.255208,-0.442709 0.144531,-0.230468 0.235677,-0.373698 0.18099,-0.304687 0.980469,-1.147135 z m -0.106771,2.470052 q -0.244792,0.0052 -0.410156,0.186198 -0.14974,0.170573 -0.14974,0.389323 0,0.02083 0,0.04297 0.01693,0.229166 0.1875,0.394531 0.170573,0.165365 0.404948,0.165365 0.239583,0 0.415365,-0.186198 0.165364,-0.171875 0.165364,-0.395834 0,-0.01563 0,-0.03125 -0.0052,-0.246093 -0.186198,-0.416666 -0.170573,-0.148438 -0.384114,-0.148438 -0.02083,0 -0.04297,0 z"
         style=""
         id="path1453" />
    </g>
    <g
       aria-label="7"
       style="font-style:normal;font-variant:normal;font-weight:normal;font-stretch:normal;font-size:5.33333349px;line-height:1.25;font-family:Kabel;-inkscape-font-specification:Kabel;letter-spacing:0px;word-spacing:0px;fill:#f2f2f2;fill-opacity:1;stroke:none"
       id="text1185">
      <path
         d="m 36.272135,52.699219 0.282553,-1.040365 h 2.842448 L 38.032552,56 l -1.233073,0.175781 1.210938,-3.476562 z"
         style=""
         id="path1450" />
    </g>
    <g
       aria-label="8"
       style="font-style:normal;font-variant:normal;font-weight:normal;font-stretch:normal;font-size:5.33333349px;line-height:1.25;font-family:Kabel;-inkscape-font-specification:Kabel;letter-spacing:0px;word-spacing:0px;fill:#f2f2f2;fill-opacity:1;stroke:none"
       id="text1189">
      <path
         d="m 49.867188,53.279948 q 0.06901,0 0.25,-0.127604 0.175781,-0.117188 0.175781,-0.320313 0,-0.0052 0,-0.01042 -0.0052,-0.180989 -0.117188,-0.272135 -0.111979,-0.09115 -0.28776,-0.09115 -0.165365,0 -0.272136,0.101563 -0.111979,0.106771 -0.117187,0.272135 0,0.0052 0,0.01042 0,0.122396 0.07422,0.21875 0.08073,0.101562 0.175781,0.149739 0.09115,0.05339 0.11849,0.06901 z m 0.02083,0.90625 q -0.127604,0.04297 -0.320313,0.170573 -0.191406,0.134114 -0.191406,0.384114 0,0.240886 0.160156,0.358073 0.153646,0.122396 0.389323,0.122396 0.132813,-0.0052 0.255209,-0.06901 0.117187,-0.0638 0.192708,-0.165365 0.0638,-0.09115 0.0638,-0.192708 0,-0.01563 0,-0.03125 -0.02734,-0.277344 -0.246094,-0.427084 -0.223958,-0.149739 -0.303385,-0.149739 z m -0.959636,-0.425781 q -0.01042,-0.0052 -0.144531,-0.134115 -0.138021,-0.122396 -0.234375,-0.341146 -0.08594,-0.175781 -0.08594,-0.410156 0,-0.04818 0.0052,-0.101563 0.03255,-0.394531 0.240885,-0.666666 0.208334,-0.272136 0.537761,-0.39974 0.299479,-0.111979 0.635417,-0.111979 0.03125,0 0.0638,0 0.592448,0.01042 0.986979,0.308594 0.389323,0.299479 0.420573,0.885416 0,0.03776 0,0.06901 0,0.246094 -0.09505,0.4375 -0.117188,0.21875 -0.261719,0.335937 -0.144531,0.117188 -0.154948,0.128907 0.170573,0.08464 0.411458,0.346354 0.21224,0.244791 0.21224,0.639323 0,0.03776 0,0.07552 -0.01563,0.634114 -0.447917,0.954427 -0.430989,0.320312 -1.082031,0.335937 -0.03255,0 -0.0638,0 -0.666667,0 -1.088542,-0.315104 -0.447916,-0.330729 -0.46875,-0.932292 0,-0.01172 0,-0.02214 0,-0.303386 0.127604,-0.539063 0.127605,-0.239583 0.292969,-0.394531 0.165365,-0.148437 0.192708,-0.148437 z"
         style=""
         id="path1447" />
    </g>
    <g
       aria-label="9"
       style="font-style:normal;font-variant:normal;font-weight:normal;font-stretch:normal;font-size:5.33333349px;line-height:1.25;font-family:Kabel;-inkscape-font-specification:Kabel;letter-spacing:0px;word-spacing:0px;fill:#f2f2f2;fill-opacity:1;stroke:none"
       id="text1193">
      <path
         d="m 61.867188,56.251302 -1.147136,-0.395833 q 0.05339,-0.03646 0.287761,-0.239584 0.234375,-0.203125 0.4375,-0.415364 0.261718,-0.256511 0.522135,-0.597656 -0.127604,0.04297 -0.341146,0.04297 -0.585937,-0.02214 -0.94401,-0.4375 -0.361979,-0.411458 -0.378907,-0.997396 0,-0.04297 0,-0.08073 0,-0.447916 0.21875,-0.783854 0.240886,-0.367187 0.625,-0.553385 0.384115,-0.1875 0.809896,-0.1875 0.742188,0 1.216146,0.46875 0.4375,0.4375 0.4375,1.136718 0,0.05339 -0.0052,0.11198 -0.01563,0.255208 -0.09115,0.50651 -0.07422,0.25651 -0.18099,0.464844 -0.10677,0.207031 -0.25651,0.446614 -0.148437,0.240886 -0.234375,0.363282 -0.14974,0.239583 -0.46875,0.592448 -0.320313,0.35677 -0.50651,0.554687 z m 0.08984,-2.459635 q 0.240886,-0.0052 0.411459,-0.191407 0.165364,-0.180989 0.165364,-0.421875 0,-0.0052 0,-0.01042 -0.01172,-0.154948 -0.09115,-0.277344 -0.07943,-0.122396 -0.213541,-0.197917 -0.132813,-0.06901 -0.282552,-0.06901 -0.25,0.01042 -0.415365,0.1875 -0.165365,0.170573 -0.165365,0.404948 0,0.0052 0,0.01042 0.0052,0.234375 0.18099,0.39974 0.165365,0.165365 0.39974,0.165365 0.0052,0 0.01042,0 z"
         style=""
         id="path1444" />
    </g>
    <g
       aria-label="10"
       style="font-style:normal;font-variant:normal;font-weight:normal;font-stretch:normal;font-size:5.33333349px;line-height:1.25;font-family:Kabel;-inkscape-font-specification:Kabel;letter-spacing:0px;word-spacing:0px;fill:#f2f2f2;fill-opacity:1;stroke:none"
       id="text1197">
      <path
         d="m 71.198931,53.419271 -0.394531,-0.678386 2.186198,-1.34375 v 4.592448 l -1.114583,0.09635 v -3.014324 z"
         style=""
         id="path1439" />
      <path
         d="m 75.239296,51.615885 q 0.83724,0.0052 1.231771,0.635417 0.394531,0.634115 0.40625,1.716146 0,0.03255 0,0.0651 0,0.324219 -0.09115,0.671875 -0.101562,0.389323 -0.309896,0.697917 -0.207031,0.315104 -0.527343,0.507812 -0.320313,0.191407 -0.730469,0.196615 -0.523438,0 -0.895834,-0.298177 -0.373698,-0.299479 -0.555989,-0.789063 -0.18099,-0.490885 -0.191406,-1.072916 0.01042,-0.03255 0.01042,-0.06901 0.01693,-0.986979 0.432292,-1.626302 0.410156,-0.635417 1.210937,-0.635417 0.0052,0 0.01042,0 z m -0.02083,0.986979 q -0.330729,0 -0.454427,0.384115 -0.117188,0.356771 -0.117188,0.826823 0,0.03646 0,0.07422 0,1.226562 0.571615,1.236979 0.0052,0 0.01042,0 0.575521,0 0.575521,-1.279948 0,-0.490885 -0.132812,-0.86849 -0.134115,-0.373698 -0.453125,-0.373698 z"
         style=""
         id="path1441" />
    </g>
    <g
       aria-label="11"
       style="font-style:normal;font-variant:normal;font-weight:normal;font-stretch:normal;font-size:5.33333349px;line-height:1.25;font-family:Kabel;-inkscape-font-specification:Kabel;letter-spacing:0px;word-spacing:0px;fill:#f2f2f2;fill-opacity:1;stroke:none"
       id="text1201">
      <path
         d="m 83.198931,53.419271 -0.394531,-0.678386 2.186198,-1.34375 v 4.592448 l -1.114583,0.09635 v -3.014324 z"
         style=""
         id="path1434" />
      <path
         d="m 85.959348,53.419271 -0.394531,-0.678386 2.186198,-1.34375 v 4.592448 l -1.114584,0.09635 v -3.014324 z"
         style=""
         id="path1436" />
    </g>
    <g
       aria-label="12"
       style="font-style:normal;font-variant:normal;font-weight:normal;font-stretch:normal;font-size:5.33333349px;line-height:1.25;font-family:Kabel;-inkscape-font-specification:Kabel;letter-spacing:0px;word-spacing:0px;fill:#f2f2f2;fill-opacity:1;stroke:none"
       id="text1205">
      <path
         d="m 11.198934,65.419271 -0.394531,-0.678386 2.186198,-1.34375 v 4.592448 l -1.114583,0.09636 v -3.014324 z"
         style=""
         id="path1429" />
      <path
         d="m 13.56482,68 1.615885,-1.936198 q 0.527344,-0.682292 0.527344,-0.970052 0,-0.01693 0,-0.03255 -0.03125,-0.282552 -0.18099,-0.420573 -0.13802,-0.128906 -0.335937,-0.128906 -0.01563,0 -0.03125,0 -0.213542,0.0052 -0.352865,0.154948 -0.138021,0.149739 -0.148437,0.363281 0,0.01042 0,0.02083 0,0.292969 0.372396,0.480469 l -0.623698,0.820312 q -0.0052,-0.0052 -0.127604,-0.08464 -0.122396,-0.08073 -0.234375,-0.170573 -0.437501,-0.411458 -0.437501,-1.050781 0,-0.04297 0,-0.08594 0.01563,-0.404948 0.229167,-0.735677 0.208334,-0.325521 0.580729,-0.501302 0.358073,-0.170573 0.789063,-0.170573 0.01172,0 0.02214,0 0.415365,0 0.772136,0.160156 0.358073,0.160157 0.582031,0.463542 0.21875,0.304688 0.240885,0.730469 0,0.03255 0,0.0638 0,0.330729 -0.192708,0.742188 -0.213542,0.458333 -0.516927,0.789062 l -0.447917,0.496094 h 1.295573 L 16.700237,68 Z"
         style=""
         id="path1431" />
    </g>
    <g
       aria-label="13"
       style="font-style:normal;font-variant:normal;font-weight:normal;font-stretch:normal;font-size:5.33333349px;line-height:1.25;font-family:Kabel;-inkscape-font-specification:Kabel;letter-spacing:0px;word-spacing:0px;fill:#f2f2f2;fill-opacity:1;stroke:none"
       id="text1209">
      <path
         d="m 23.198937,65.419271 -0.394531,-0.678386 2.186198,-1.34375 v 4.592448 l -1.114584,0.09636 v -3.014324 z"
         style=""
         id="path1424" />
      <path
         d="m 26.407271,64.917969 -0.778646,-0.523438 q 0.02734,-0.07422 0.160156,-0.239583 0.132812,-0.165365 0.282552,-0.266927 0.442708,-0.315104 1.045573,-0.315104 0.389323,0 0.75651,0.170572 0.363282,0.177084 0.582032,0.490886 0.170573,0.25651 0.170573,0.565104 0,0.08073 -0.01042,0.160156 -0.03255,0.235677 -0.122396,0.39974 -0.09635,0.171875 -0.192708,0.261719 -0.101563,0.09115 -0.111979,0.09635 0.261718,0.127604 0.432291,0.4375 0.170573,0.308594 0.170573,0.618489 0,0.21875 -0.06901,0.404948 -0.07552,0.1875 -0.1875,0.33724 -0.111979,0.148437 -0.223959,0.244792 -0.404947,0.351562 -1.16276,0.351562 -0.46875,0 -0.873698,-0.175781 Q 25.863,67.760417 25.554406,67.407552 l 0.740885,-0.697917 q 0.04297,0.05859 0.14974,0.160157 0.106771,0.10026 0.255208,0.170573 0.208334,0.09505 0.384115,0.10677 0.213542,-0.01693 0.384114,-0.139323 0.165365,-0.122395 0.165365,-0.330729 0,-0.154948 -0.0638,-0.272135 -0.06901,-0.117188 -0.18099,-0.153646 -0.197916,-0.05338 -0.533854,-0.05338 -0.117187,0 -0.160156,0 -0.04297,0.0052 -0.06901,0.01042 v -0.811198 q 0.02604,0 0.08594,0 0.05859,0.0052 0.132813,0.01042 0.28776,0 0.496093,-0.08463 0.203125,-0.08073 0.203125,-0.33073 0,-0.203125 -0.144531,-0.32552 -0.144531,-0.122396 -0.358073,-0.122396 -0.196614,0 -0.382812,0.101562 -0.192709,0.106771 -0.251302,0.272136 z"
         style=""
         id="path1426" />
    </g>
    <g
       aria-label="14"
       style="font-style:normal;font-variant:normal;font-weight:normal;font-stretch:normal;font-size:5.33333349px;line-height:1.25;font-family:Kabel;-inkscape-font-specification:Kabel;letter-spacing:0px;word-spacing:0px;fill:#f2f2f2;fill-opacity:1;stroke:none"
       id="text1213">
      <path
         d="m 35.198931,65.419271 -0.394531,-0.678386 2.186198,-1.34375 v 4.592448 l -1.114583,0.09636 v -3.014324 z"
         style=""
         id="path1419" />
      <path
         d="m 39.010129,63.626302 h 1.450521 v 2.394531 h 0.623698 L 40.9294,66.970052 H 40.471067 V 68 l -1.071615,0.09635 v -1.126302 h -1.834635 z m 0.458334,2.4375 v -1.429688 l -0.602865,1.429688 z"
         style=""
         id="path1421" />
    </g>
    <g
       aria-label="15"
       style="font-style:normal;font-variant:normal;font-weight:normal;font-stretch:normal;font-size:5.33333349px;line-height:1.25;font-family:Kabel;-inkscape-font-specification:Kabel;letter-spacing:0px;word-spacing:0px;fill:#f2f2f2;fill-opacity:1;stroke:none"
       id="text1217">
      <path
         d="m 47.198931,65.419271 -0.394531,-0.678386 2.186198,-1.34375 v 4.592448 l -1.114583,0.09636 v -3.014324 z"
         style=""
         id="path1414" />
      <path
         d="m 49.564817,67.509115 0.746094,-0.778646 q 0.01693,0.01563 0.07031,0.06901 0.04687,0.05859 0.132813,0.11849 0.08594,0.05859 0.203125,0.10026 0.117187,0.04818 0.292968,0.05339 0.261719,0 0.458334,-0.191407 0.165364,-0.160156 0.165364,-0.358073 0,-0.03646 -0.0052,-0.07422 -0.03255,-0.208334 -0.144531,-0.33073 Q 51.3669,66 51.206744,65.946615 q -0.158854,-0.05339 -0.31901,-0.05339 -0.277344,0 -0.533855,0.08073 -0.25651,0.08464 -0.320312,0.132813 v -2.410157 h 2.459635 l -0.261718,0.980469 h -1.157552 v 0.394531 q 0.02083,-0.0052 0.04818,-0.01042 0.02083,-0.0052 0.05208,-0.01042 0.03255,-0.0052 0.05469,-0.01042 0.02083,0 0.0638,0 0.421875,0 0.746093,0.229167 0.320313,0.229167 0.496094,0.597656 0.165365,0.36198 0.165365,0.746094 0,0.01042 0,0.02083 -0.01563,0.427083 -0.239584,0.76302 -0.229166,0.341146 -0.597656,0.533855 -0.367187,0.191406 -0.778646,0.201823 -0.02083,0 -0.04297,0 -0.479166,0 -0.932291,-0.250001 -0.470052,-0.261718 -0.544271,-0.373697 z"
         style=""
         id="path1416" />
    </g>
    <g
       aria-label="16"
       style="font-style:normal;font-variant:normal;font-weight:normal;font-stretch:normal;font-size:5.33333349px;line-height:1.25;font-family:Kabel;-inkscape-font-specification:Kabel;letter-spacing:0px;word-spacing:0px;fill:#f2f2f2;fill-opacity:1;stroke:none"
       id="text1221">
      <path
         d="m 59.198931,65.419271 -0.394531,-0.678386 2.186198,-1.34375 v 4.592448 l -1.114583,0.09636 v -3.014324 z"
         style=""
         id="path1409" />
      <path
         d="m 63.3669,63.455729 1.147136,0.421875 q -0.03776,0.01042 -0.325521,0.266927 -0.292969,0.255208 -0.415365,0.377604 -0.240885,0.240886 -0.513021,0.582032 0,0 0.08073,-0.01042 0.07943,-0.01172 0.117187,-0.01693 0.03776,-0.0052 0.08594,-0.0052 0.585937,0 0.97526,0.416667 0.384115,0.420573 0.410156,1.013021 0,0.03255 0,0.0638 0,0.458333 -0.223958,0.800781 -0.239583,0.367188 -0.634115,0.554688 -0.399739,0.191406 -0.799479,0.191406 -0.742187,0 -1.210937,-0.480469 -0.4375,-0.442708 -0.4375,-1.135416 0,-0.05339 0.0052,-0.111979 0.01563,-0.277344 0.09115,-0.516928 0.06901,-0.235677 0.175781,-0.447916 0.106771,-0.213542 0.255208,-0.442709 0.144532,-0.230468 0.235677,-0.373698 0.18099,-0.304687 0.980469,-1.147135 z m -0.106771,2.470052 q -0.244791,0.0052 -0.410156,0.186198 -0.149739,0.170573 -0.149739,0.389323 0,0.02083 0,0.04297 0.01693,0.229166 0.1875,0.394531 0.170573,0.165365 0.404948,0.165365 0.239583,0 0.415364,-0.186198 0.165365,-0.171875 0.165365,-0.395834 0,-0.01563 0,-0.03125 -0.0052,-0.246093 -0.186198,-0.416666 -0.170573,-0.148438 -0.384115,-0.148438 -0.02083,0 -0.04297,0 z"
         style=""
         id="path1411" />
    </g>
    <g
       aria-label="17"
       style="font-style:normal;font-variant:normal;font-weight:normal;font-stretch:normal;font-size:5.33333349px;line-height:1.25;font-family:Kabel;-inkscape-font-specification:Kabel;letter-spacing:0px;word-spacing:0px;fill:#f2f2f2;fill-opacity:1;stroke:none"
       id="text1225">
      <path
         d="m 71.198931,65.419271 -0.394531,-0.678386 2.186198,-1.34375 v 4.592448 l -1.114583,0.09636 v -3.014324 z"
         style=""
         id="path1404" />
      <path
         d="m 73.564817,64.699219 0.282552,-1.040365 h 2.842448 L 75.325234,68 l -1.233073,0.175781 1.210937,-3.476562 z"
         style=""
         id="path1406" />
    </g>
    <g
       aria-label="18"
       style="font-style:normal;font-variant:normal;font-weight:normal;font-stretch:normal;font-size:5.33333349px;line-height:1.25;font-family:Kabel;-inkscape-font-specification:Kabel;letter-spacing:0px;word-spacing:0px;fill:#f2f2f2;fill-opacity:1;stroke:none"
       id="text1229">
      <path
         d="m 83.198931,65.419271 -0.394531,-0.678386 2.186198,-1.34375 v 4.592448 l -1.114583,0.09636 v -3.014324 z"
         style=""
         id="path1399" />
      <path
         d="m 87.159869,65.279948 q 0.06901,0 0.25,-0.127604 0.175781,-0.117188 0.175781,-0.320313 0,-0.0052 0,-0.01042 -0.0052,-0.180989 -0.117187,-0.272135 -0.111979,-0.09115 -0.287761,-0.09115 -0.165364,0 -0.272135,0.101563 -0.111979,0.106771 -0.117188,0.272135 0,0.0052 0,0.01042 0,0.122396 0.07422,0.21875 0.08073,0.101562 0.175781,0.149739 0.09115,0.05339 0.11849,0.06901 z m 0.02083,0.90625 q -0.127604,0.04297 -0.320312,0.170573 -0.191406,0.134114 -0.191406,0.384114 0,0.240886 0.160156,0.358073 0.153646,0.122396 0.389323,0.122396 0.132812,-0.0052 0.255208,-0.06901 0.117188,-0.0638 0.192708,-0.165365 0.0638,-0.09115 0.0638,-0.192708 0,-0.01563 0,-0.03125 -0.02734,-0.277344 -0.246094,-0.427084 -0.223959,-0.149739 -0.303386,-0.149739 z m -0.959635,-0.425781 q -0.01042,-0.0052 -0.144531,-0.134115 -0.138021,-0.122396 -0.234375,-0.341146 -0.08594,-0.175781 -0.08594,-0.410156 0,-0.04818 0.0052,-0.101563 0.03255,-0.394531 0.240886,-0.666666 0.208333,-0.272136 0.53776,-0.39974 0.29948,-0.111979 0.635417,-0.111979 0.03125,0 0.0638,0 0.592448,0.01042 0.986979,0.308594 0.389323,0.299479 0.420573,0.885416 0,0.03776 0,0.06901 0,0.246094 -0.09505,0.4375 -0.117187,0.21875 -0.261719,0.335937 -0.144531,0.117188 -0.154948,0.128907 0.170573,0.08463 0.411459,0.346354 0.212239,0.244791 0.212239,0.639323 0,0.03776 0,0.07552 -0.01563,0.634114 -0.447916,0.954427 -0.43099,0.320312 -1.082032,0.335937 -0.03255,0 -0.0638,0 -0.666666,0 -1.088541,-0.315104 -0.447917,-0.330729 -0.46875,-0.932292 0,-0.01172 0,-0.02213 0,-0.303386 0.127604,-0.539063 0.127604,-0.239583 0.292969,-0.394531 0.165364,-0.148437 0.192708,-0.148437 z"
         style=""
         id="path1401" />
    </g>
    <g
       aria-label="19"
       style="font-style:normal;font-variant:normal;font-weight:normal;font-stretch:normal;font-size:5.33333349px;line-height:1.25;font-family:Kabel;-inkscape-font-specification:Kabel;letter-spacing:0px;word-spacing:0px;fill:#f2f2f2;fill-opacity:1;stroke:none"
       id="text1233">
      <path
         d="m 11.198934,77.419271 -0.394531,-0.678386 2.186198,-1.34375 v 4.592448 l -1.114583,0.09636 v -3.014324 z"
         style=""
         id="path1394" />
      <path
         d="m 15.159872,80.251302 -1.147136,-0.395833 q 0.05339,-0.03646 0.287761,-0.239584 0.234375,-0.203125 0.4375,-0.415364 0.261719,-0.256511 0.522135,-0.597656 -0.127604,0.04297 -0.341146,0.04297 -0.585937,-0.02213 -0.94401,-0.4375 -0.361979,-0.411458 -0.378906,-0.997396 0,-0.04297 0,-0.08073 0,-0.447916 0.21875,-0.783854 0.240885,-0.367187 0.625,-0.553385 0.384114,-0.1875 0.809896,-0.1875 0.742187,0 1.216145,0.46875 0.437501,0.4375 0.437501,1.136718 0,0.05339 -0.0052,0.11198 -0.01563,0.255208 -0.09115,0.50651 -0.07422,0.25651 -0.180989,0.464844 -0.106771,0.207031 -0.256511,0.446614 -0.148437,0.240886 -0.234375,0.363282 -0.149739,0.239583 -0.46875,0.592448 -0.320312,0.35677 -0.50651,0.554687 z m 0.08984,-2.459635 q 0.240885,-0.0052 0.411458,-0.191407 0.165365,-0.180989 0.165365,-0.421875 0,-0.0052 0,-0.01042 -0.01172,-0.154948 -0.09115,-0.277344 -0.07943,-0.122396 -0.213542,-0.197917 -0.132812,-0.06901 -0.282552,-0.06901 -0.25,0.01042 -0.415365,0.1875 -0.165364,0.170573 -0.165364,0.404948 0,0.0052 0,0.01042 0.0052,0.234375 0.180989,0.39974 0.165365,0.165365 0.39974,0.165365 0.0052,0 0.01042,0 z"
         style=""
         id="path1396" />
    </g>
    <g
       aria-label="20"
       style="font-style:normal;font-variant:normal;font-weight:normal;font-stretch:normal;font-size:5.33333349px;line-height:1.25;font-family:Kabel;-inkscape-font-specification:Kabel;letter-spacing:0px;word-spacing:0px;fill:#f2f2f2;fill-opacity:1;stroke:none"
       id="text1237">
      <path
         d="m 22.804406,80 1.615885,-1.936198 q 0.527344,-0.682292 0.527344,-0.970052 0,-0.01693 0,-0.03255 -0.03125,-0.282552 -0.18099,-0.420573 -0.13802,-0.128906 -0.335937,-0.128906 -0.01563,0 -0.03125,0 -0.213542,0.0052 -0.352865,0.154948 -0.13802,0.149739 -0.148437,0.363281 0,0.01042 0,0.02083 0,0.292969 0.372396,0.480469 l -0.623698,0.820312 q -0.0052,-0.0052 -0.127604,-0.08464 -0.122396,-0.08073 -0.234375,-0.170573 -0.4375,-0.411458 -0.4375,-1.050781 0,-0.04297 0,-0.08594 0.01563,-0.404948 0.229166,-0.735677 0.208334,-0.325521 0.580729,-0.501302 0.358073,-0.170573 0.789063,-0.170573 0.01172,0 0.02214,0 0.415365,0 0.772136,0.160156 0.358073,0.160157 0.582031,0.463542 0.21875,0.304688 0.240886,0.730469 0,0.03255 0,0.0638 0,0.330729 -0.192709,0.742188 -0.213541,0.458333 -0.516927,0.789062 l -0.447917,0.496094 h 1.295573 L 25.939823,80 Z"
         style=""
         id="path1389" />
      <path
         d="m 28.353885,75.615885 q 0.83724,0.0052 1.231771,0.635417 0.394531,0.634115 0.40625,1.716146 0,0.03255 0,0.0651 0,0.324219 -0.09115,0.671875 -0.101562,0.389323 -0.309896,0.697917 -0.207031,0.315104 -0.527343,0.507812 -0.320313,0.191407 -0.730469,0.196615 -0.523438,0 -0.895834,-0.298177 -0.373698,-0.299479 -0.555989,-0.789063 -0.18099,-0.490885 -0.191406,-1.072916 0.01042,-0.03255 0.01042,-0.06901 0.01693,-0.986979 0.432292,-1.626302 0.410156,-0.635417 1.210937,-0.635417 0.0052,0 0.01042,0 z m -0.02083,0.986979 q -0.330729,0 -0.454427,0.384115 -0.117188,0.356771 -0.117188,0.826823 0,0.03646 0,0.07422 0,1.226562 0.571615,1.236979 0.0052,0 0.01042,0 0.575521,0 0.575521,-1.279948 0,-0.490885 -0.132812,-0.86849 -0.134115,-0.373698 -0.453125,-0.373698 z"
         style=""
         id="path1391" />
    </g>
    <g
       aria-label="21"
       style="font-style:normal;font-variant:normal;font-weight:normal;font-stretch:normal;font-size:5.33333349px;line-height:1.25;font-family:Kabel;-inkscape-font-specification:Kabel;letter-spacing:0px;word-spacing:0px;fill:#f2f2f2;fill-opacity:1;stroke:none"
       id="text1241">
      <path
         d="m 34.8044,80 1.615886,-1.936198 q 0.527343,-0.682292 0.527343,-0.970052 0,-0.01693 0,-0.03255 -0.03125,-0.282552 -0.180989,-0.420573 -0.138021,-0.128906 -0.335938,-0.128906 -0.01563,0 -0.03125,0 -0.213541,0.0052 -0.352864,0.154948 -0.138021,0.149739 -0.148438,0.363281 0,0.01042 0,0.02083 0,0.292969 0.372396,0.480469 l -0.623698,0.820312 q -0.0052,-0.0052 -0.127604,-0.08464 -0.122396,-0.08073 -0.234375,-0.170573 -0.4375,-0.411458 -0.4375,-1.050781 0,-0.04297 0,-0.08594 0.01563,-0.404948 0.229167,-0.735677 0.208333,-0.325521 0.580729,-0.501302 0.358073,-0.170573 0.789062,-0.170573 0.01172,0 0.02214,0 0.415364,0 0.772135,0.160156 0.358073,0.160157 0.582031,0.463542 0.21875,0.304688 0.240886,0.730469 0,0.03255 0,0.0638 0,0.330729 -0.192709,0.742188 -0.213541,0.458333 -0.516927,0.789062 l -0.447916,0.496094 h 1.295573 L 37.939817,80 Z"
         style=""
         id="path1384" />
      <path
         d="m 39.073931,77.419271 -0.394531,-0.678386 2.186198,-1.34375 v 4.592448 l -1.114583,0.09636 v -3.014324 z"
         style=""
         id="path1386" />
    </g>
    <g
       aria-label="22"
       style="font-style:normal;font-variant:normal;font-weight:normal;font-stretch:normal;font-size:5.33333349px;line-height:1.25;font-family:Kabel;-inkscape-font-specification:Kabel;letter-spacing:0px;word-spacing:0px;fill:#f2f2f2;fill-opacity:1;stroke:none"
       id="text1245">
      <path
         d="m 46.8044,80 1.615886,-1.936198 q 0.527343,-0.682292 0.527343,-0.970052 0,-0.01693 0,-0.03255 -0.03125,-0.282552 -0.180989,-0.420573 -0.138021,-0.128906 -0.335938,-0.128906 -0.01563,0 -0.03125,0 -0.213541,0.0052 -0.352864,0.154948 -0.138021,0.149739 -0.148438,0.363281 0,0.01042 0,0.02083 0,0.292969 0.372396,0.480469 l -0.623698,0.820312 q -0.0052,-0.0052 -0.127604,-0.08464 -0.122396,-0.08073 -0.234375,-0.170573 -0.4375,-0.411458 -0.4375,-1.050781 0,-0.04297 0,-0.08594 0.01563,-0.404948 0.229167,-0.735677 0.208333,-0.325521 0.580729,-0.501302 0.358073,-0.170573 0.789062,-0.170573 0.01172,0 0.02214,0 0.415364,0 0.772135,0.160156 0.358073,0.160157 0.582031,0.463542 0.21875,0.304688 0.240886,0.730469 0,0.03255 0,0.0638 0,0.330729 -0.192709,0.742188 -0.213541,0.458333 -0.516927,0.789062 l -0.447916,0.496094 h 1.295573 L 49.939817,80 Z"
         style=""
         id="path1379" />
      <path
         d="m 50.6794,80 1.615886,-1.936198 q 0.527343,-0.682292 0.527343,-0.970052 0,-0.01693 0,-0.03255 -0.03125,-0.282552 -0.180989,-0.420573 -0.138021,-0.128906 -0.335938,-0.128906 -0.01563,0 -0.03125,0 -0.213541,0.0052 -0.352864,0.154948 -0.138021,0.149739 -0.148438,0.363281 0,0.01042 0,0.02083 0,0.292969 0.372396,0.480469 l -0.623698,0.820312 q -0.0052,-0.0052 -0.127604,-0.08464 -0.122396,-0.08073 -0.234375,-0.170573 -0.4375,-0.411458 -0.4375,-1.050781 0,-0.04297 0,-0.08594 0.01563,-0.404948 0.229167,-0.735677 0.208333,-0.325521 0.580729,-0.501302 0.358073,-0.170573 0.789062,-0.170573 0.01172,0 0.02214,0 0.415364,0 0.772135,0.160156 0.358073,0.160157 0.582031,0.463542 0.21875,0.304688 0.240886,0.730469 0,0.03255 0,0.0638 0,0.330729 -0.192709,0.742188 -0.213541,0.458333 -0.516927,0.789062 l -0.447916,0.496094 h 1.295573 L 53.814817,80 Z"
         style=""
         id="path1381" />
    </g>
    <g
       aria-label="23"
       style="font-style:normal;font-variant:normal;font-weight:normal;font-stretch:normal;font-size:5.33333349px;line-height:1.25;font-family:Kabel;-inkscape-font-specification:Kabel;letter-spacing:0px;word-spacing:0px;fill:#f2f2f2;fill-opacity:1;stroke:none"
       id="text1249">
      <path
         d="m 58.8044,80 1.615886,-1.936198 q 0.527343,-0.682292 0.527343,-0.970052 0,-0.01693 0,-0.03255 -0.03125,-0.282552 -0.180989,-0.420573 -0.138021,-0.128906 -0.335938,-0.128906 -0.01563,0 -0.03125,0 -0.213541,0.0052 -0.352864,0.154948 -0.138021,0.149739 -0.148438,0.363281 0,0.01042 0,0.02083 0,0.292969 0.372396,0.480469 l -0.623698,0.820312 q -0.0052,-0.0052 -0.127604,-0.08464 -0.122396,-0.08073 -0.234375,-0.170573 -0.4375,-0.411458 -0.4375,-1.050781 0,-0.04297 0,-0.08594 0.01563,-0.404948 0.229167,-0.735677 0.208333,-0.325521 0.580729,-0.501302 0.358073,-0.170573 0.789062,-0.170573 0.01172,0 0.02214,0 0.415364,0 0.772135,0.160156 0.358073,0.160157 0.582031,0.463542 0.21875,0.304688 0.240886,0.730469 0,0.03255 0,0.0638 0,0.330729 -0.192709,0.742188 -0.213541,0.458333 -0.516927,0.789062 l -0.447916,0.496094 h 1.295573 L 61.939817,80 Z"
         style=""
         id="path1374" />
      <path
         d="m 63.521848,76.917969 -0.778646,-0.523438 q 0.02734,-0.07422 0.160156,-0.239583 0.132813,-0.165365 0.282553,-0.266927 0.442708,-0.315104 1.045573,-0.315104 0.389322,0 0.75651,0.170572 0.363281,0.177084 0.582031,0.490886 0.170573,0.25651 0.170573,0.565104 0,0.08073 -0.01042,0.160156 -0.03255,0.235677 -0.122395,0.39974 -0.09636,0.171875 -0.192709,0.261719 -0.101562,0.09115 -0.111979,0.09635 0.261719,0.127604 0.432292,0.4375 0.170573,0.308594 0.170573,0.618489 0,0.21875 -0.06901,0.404948 -0.07552,0.1875 -0.1875,0.33724 -0.111979,0.148437 -0.223958,0.244792 -0.404948,0.351562 -1.16276,0.351562 -0.46875,0 -0.873698,-0.175781 -0.411459,-0.175781 -0.720053,-0.528646 l 0.740886,-0.697917 q 0.04297,0.05859 0.149739,0.160157 0.106771,0.10026 0.255209,0.170573 0.208333,0.09505 0.384114,0.10677 0.213542,-0.01693 0.384115,-0.139323 0.165365,-0.122395 0.165365,-0.330729 0,-0.154948 -0.0638,-0.272135 -0.06901,-0.117188 -0.18099,-0.153646 -0.197917,-0.05338 -0.533854,-0.05338 -0.117188,0 -0.160156,0 -0.04297,0.0052 -0.06901,0.01042 v -0.811198 q 0.02604,0 0.08594,0 0.05859,0.0052 0.132812,0.01042 0.287761,0 0.496094,-0.08463 0.203125,-0.08073 0.203125,-0.33073 0,-0.203125 -0.144531,-0.32552 -0.144532,-0.122396 -0.358073,-0.122396 -0.196615,0 -0.382813,0.101562 -0.192708,0.106771 -0.251302,0.272136 z"
         style=""
         id="path1376" />
    </g>
    <g
       aria-label="24"
       style="font-style:normal;font-variant:normal;font-weight:normal;font-stretch:normal;font-size:5.33333349px;line-height:1.25;font-family:Kabel;-inkscape-font-specification:Kabel;letter-spacing:0px;word-spacing:0px;fill:#f2f2f2;fill-opacity:1;stroke:none"
       id="text1253">
      <path
         d="m 70.8044,80 1.615886,-1.936198 q 0.527343,-0.682292 0.527343,-0.970052 0,-0.01693 0,-0.03255 -0.03125,-0.282552 -0.180989,-0.420573 -0.138021,-0.128906 -0.335938,-0.128906 -0.01563,0 -0.03125,0 -0.213541,0.0052 -0.352864,0.154948 -0.138021,0.149739 -0.148438,0.363281 0,0.01042 0,0.02083 0,0.292969 0.372396,0.480469 l -0.623698,0.820312 q -0.0052,-0.0052 -0.127604,-0.08464 -0.122396,-0.08073 -0.234375,-0.170573 -0.4375,-0.411458 -0.4375,-1.050781 0,-0.04297 0,-0.08594 0.01563,-0.404948 0.229167,-0.735677 0.208333,-0.325521 0.580729,-0.501302 0.358073,-0.170573 0.789062,-0.170573 0.01172,0 0.02214,0 0.415364,0 0.772135,0.160156 0.358073,0.160157 0.582031,0.463542 0.21875,0.304688 0.240886,0.730469 0,0.03255 0,0.0638 0,0.330729 -0.192709,0.742188 -0.213541,0.458333 -0.516927,0.789062 l -0.447916,0.496094 h 1.295573 L 73.939817,80 Z"
         style=""
         id="path1369" />
      <path
         d="m 76.124713,75.626302 h 1.450521 v 2.394531 h 0.623697 l -0.154947,0.949219 H 77.58565 V 80 l -1.071614,0.09635 V 78.970052 H 74.6794 Z m 0.458333,2.4375 v -1.429688 l -0.602865,1.429688 z"
         style=""
         id="path1371" />
    </g>
    <g
       aria-label="25"
       style="font-style:normal;font-variant:normal;font-weight:normal;font-stretch:normal;font-size:5.33333349px;line-height:1.25;font-family:Kabel;-inkscape-font-specification:Kabel;letter-spacing:0px;word-spacing:0px;fill:#f2f2f2;fill-opacity:1;stroke:none"
       id="text1257">
      <path
         d="m 82.8044,80 1.615886,-1.936198 q 0.527343,-0.682292 0.527343,-0.970052 0,-0.01693 0,-0.03255 -0.03125,-0.282552 -0.180989,-0.420573 -0.138021,-0.128906 -0.335938,-0.128906 -0.01563,0 -0.03125,0 -0.213541,0.0052 -0.352864,0.154948 -0.138021,0.149739 -0.148438,0.363281 0,0.01042 0,0.02083 0,0.292969 0.372396,0.480469 l -0.623698,0.820312 q -0.0052,-0.0052 -0.127604,-0.08464 -0.122396,-0.08073 -0.234375,-0.170573 -0.4375,-0.411458 -0.4375,-1.050781 0,-0.04297 0,-0.08594 0.01563,-0.404948 0.229167,-0.735677 0.208333,-0.325521 0.580729,-0.501302 0.358073,-0.170573 0.789062,-0.170573 0.01172,0 0.02214,0 0.415364,0 0.772135,0.160156 0.358073,0.160157 0.582031,0.463542 0.21875,0.304688 0.240886,0.730469 0,0.03255 0,0.0638 0,0.330729 -0.192709,0.742188 -0.213541,0.458333 -0.516927,0.789062 l -0.447916,0.496094 h 1.295573 L 85.939817,80 Z"
         style=""
         id="path1364" />
      <path
         d="m 86.6794,79.509115 0.746094,-0.778646 q 0.01693,0.01563 0.07031,0.06901 0.04687,0.05859 0.132813,0.11849 0.08594,0.05859 0.203125,0.10026 0.117187,0.04818 0.292969,0.05339 0.261718,0 0.458333,-0.191407 0.165365,-0.160156 0.165365,-0.358073 0,-0.03646 -0.0052,-0.07422 -0.03255,-0.208334 -0.144531,-0.33073 Q 88.481484,78 88.321327,77.946615 q -0.158854,-0.05339 -0.31901,-0.05339 -0.277344,0 -0.533854,0.08073 -0.256511,0.08464 -0.320313,0.132813 v -2.410157 h 2.459636 l -0.261719,0.980469 h -1.157552 v 0.394531 q 0.02083,-0.0052 0.04818,-0.01042 0.02083,-0.0052 0.05208,-0.01042 0.03255,-0.0052 0.05469,-0.01042 0.02083,0 0.0638,0 0.421875,0 0.746094,0.229167 0.320312,0.229167 0.496093,0.597656 0.165365,0.36198 0.165365,0.746094 0,0.01042 0,0.02083 -0.01563,0.427083 -0.239583,0.76302 -0.229167,0.341146 -0.597657,0.533855 -0.367187,0.191406 -0.778646,0.201823 -0.02083,0 -0.04297,0 -0.479167,0 -0.932292,-0.250001 -0.470052,-0.261718 -0.544271,-0.373697 z"
         style=""
         id="path1366" />
    </g>
    <g
       aria-label="26"
       style="font-style:normal;font-variant:normal;font-weight:normal;font-stretch:normal;font-size:5.33333349px;line-height:1.25;font-family:Kabel;-inkscape-font-specification:Kabel;letter-spacing:0px;word-spacing:0px;fill:#f2f2f2;fill-opacity:1;stroke:none"
       id="text1261">
      <path
         d="m 10.804403,92 1.615885,-1.936198 q 0.527344,-0.682292 0.527344,-0.970052 0,-0.01693 0,-0.03255 -0.03125,-0.282552 -0.180989,-0.420573 -0.138021,-0.128906 -0.335938,-0.128906 -0.01563,0 -0.03125,0 -0.213542,0.0052 -0.352864,0.154948 -0.138021,0.149739 -0.148438,0.363281 0,0.01042 0,0.02083 0,0.292969 0.372396,0.480469 l -0.623698,0.820312 q -0.0052,-0.0052 -0.127604,-0.08464 -0.122396,-0.08073 -0.234375,-0.170573 -0.4375,-0.411458 -0.4375,-1.050781 0,-0.04297 0,-0.08594 0.01563,-0.404948 0.229166,-0.735677 0.208334,-0.325521 0.58073,-0.501302 0.358073,-0.170573 0.789062,-0.170573 0.01172,0 0.02214,0 0.415364,0 0.772135,0.160156 0.358073,0.160157 0.582031,0.463542 0.21875,0.304688 0.240886,0.730469 0,0.03255 0,0.0638 0,0.330729 -0.192709,0.742188 -0.213541,0.458333 -0.516927,0.789062 l -0.447916,0.496094 h 1.295573 L 13.93982,92 Z"
         style=""
         id="path1359" />
      <path
         d="m 16.481486,87.455729 1.147136,0.421875 q -0.03776,0.01042 -0.325521,0.266927 -0.292969,0.255208 -0.415365,0.377604 -0.240885,0.240886 -0.51302,0.582032 0,0 0.08073,-0.01042 0.07943,-0.01172 0.117187,-0.01693 0.03776,-0.0052 0.08594,-0.0052 0.585937,0 0.97526,0.416667 0.384115,0.420573 0.410156,1.013021 0,0.03255 0,0.0638 0,0.458333 -0.223958,0.800781 -0.239583,0.367188 -0.634115,0.554688 -0.399739,0.191406 -0.799479,0.191406 -0.742187,0 -1.210937,-0.480469 -0.4375,-0.442708 -0.4375,-1.135416 0,-0.05339 0.0052,-0.111979 0.01563,-0.277344 0.09115,-0.516928 0.06901,-0.235677 0.175781,-0.447916 0.106771,-0.213542 0.255209,-0.442709 0.144531,-0.230468 0.235677,-0.373698 0.180989,-0.304687 0.980468,-1.147135 z m -0.10677,2.470052 q -0.244792,0.0052 -0.410157,0.186198 -0.149739,0.170573 -0.149739,0.389323 0,0.02083 0,0.04297 0.01693,0.229166 0.1875,0.394531 0.170573,0.165365 0.404948,0.165365 0.239583,0 0.415364,-0.186198 0.165365,-0.171875 0.165365,-0.395834 0,-0.01563 0,-0.03125 -0.0052,-0.246093 -0.186198,-0.416666 -0.170573,-0.148438 -0.384115,-0.148438 -0.02083,0 -0.04297,0 z"
         style=""
         id="path1361" />
    </g>
    <g
       aria-label="27"
       style="font-style:normal;font-variant:normal;font-weight:normal;font-stretch:normal;font-size:5.33333349px;line-height:1.25;font-family:Kabel;-inkscape-font-specification:Kabel;letter-spacing:0px;word-spacing:0px;fill:#f2f2f2;fill-opacity:1;stroke:none"
       id="text1265">
      <path
         d="m 22.804406,92 1.615885,-1.936198 q 0.527344,-0.682292 0.527344,-0.970052 0,-0.01693 0,-0.03255 -0.03125,-0.282552 -0.18099,-0.420573 -0.13802,-0.128906 -0.335937,-0.128906 -0.01563,0 -0.03125,0 -0.213542,0.0052 -0.352865,0.154948 -0.13802,0.149739 -0.148437,0.363281 0,0.01042 0,0.02083 0,0.292969 0.372396,0.480469 l -0.623698,0.820312 q -0.0052,-0.0052 -0.127604,-0.08464 -0.122396,-0.08073 -0.234375,-0.170573 -0.4375,-0.411458 -0.4375,-1.050781 0,-0.04297 0,-0.08594 0.01563,-0.404948 0.229166,-0.735677 0.208334,-0.325521 0.580729,-0.501302 0.358073,-0.170573 0.789063,-0.170573 0.01172,0 0.02214,0 0.415365,0 0.772136,0.160156 0.358073,0.160157 0.582031,0.463542 0.21875,0.304688 0.240886,0.730469 0,0.03255 0,0.0638 0,0.330729 -0.192709,0.742188 -0.213541,0.458333 -0.516927,0.789062 l -0.447917,0.496094 h 1.295573 L 25.939823,92 Z"
         style=""
         id="path1354" />
      <path
         d="m 26.679406,88.699219 0.282552,-1.040365 h 2.842448 L 28.439823,92 27.20675,92.175781 28.417687,88.699219 Z"
         style=""
         id="path1356" />
    </g>
    <g
       aria-label="28"
       style="font-style:normal;font-variant:normal;font-weight:normal;font-stretch:normal;font-size:5.33333349px;line-height:1.25;font-family:Kabel;-inkscape-font-specification:Kabel;letter-spacing:0px;word-spacing:0px;fill:#f2f2f2;fill-opacity:1;stroke:none"
       id="text1269">
      <path
         d="m 34.8044,92 1.615886,-1.936198 q 0.527343,-0.682292 0.527343,-0.970052 0,-0.01693 0,-0.03255 -0.03125,-0.282552 -0.180989,-0.420573 -0.138021,-0.128906 -0.335938,-0.128906 -0.01563,0 -0.03125,0 -0.213541,0.0052 -0.352864,0.154948 -0.138021,0.149739 -0.148438,0.363281 0,0.01042 0,0.02083 0,0.292969 0.372396,0.480469 l -0.623698,0.820312 q -0.0052,-0.0052 -0.127604,-0.08464 -0.122396,-0.08073 -0.234375,-0.170573 -0.4375,-0.411458 -0.4375,-1.050781 0,-0.04297 0,-0.08594 0.01563,-0.404948 0.229167,-0.735677 0.208333,-0.325521 0.580729,-0.501302 0.358073,-0.170573 0.789062,-0.170573 0.01172,0 0.02214,0 0.415364,0 0.772135,0.160156 0.358073,0.160157 0.582031,0.463542 0.21875,0.304688 0.240886,0.730469 0,0.03255 0,0.0638 0,0.330729 -0.192709,0.742188 -0.213541,0.458333 -0.516927,0.789062 l -0.447916,0.496094 h 1.295573 L 37.939817,92 Z"
         style=""
         id="path1349" />
      <path
         d="m 40.274452,89.279948 q 0.06901,0 0.25,-0.127604 0.175782,-0.117188 0.175782,-0.320313 0,-0.0052 0,-0.01042 -0.0052,-0.180989 -0.117188,-0.272135 -0.111979,-0.09115 -0.28776,-0.09115 -0.165365,0 -0.272136,0.101563 -0.111979,0.106771 -0.117187,0.272135 0,0.0052 0,0.01042 0,0.122396 0.07422,0.21875 0.08073,0.101562 0.175782,0.149739 0.09115,0.05339 0.118489,0.06901 z m 0.02083,0.90625 q -0.127605,0.04297 -0.320313,0.170573 -0.191406,0.134114 -0.191406,0.384114 0,0.240886 0.160156,0.358073 0.153646,0.122396 0.389323,0.122396 0.132813,-0.0052 0.255208,-0.06901 0.117188,-0.0638 0.192709,-0.165365 0.0638,-0.09115 0.0638,-0.192708 0,-0.01563 0,-0.03125 -0.02734,-0.277344 -0.246094,-0.427084 -0.223958,-0.149739 -0.303385,-0.149739 z M 39.33565,89.760417 q -0.01042,-0.0052 -0.144531,-0.134115 -0.138021,-0.122396 -0.234375,-0.341146 -0.08594,-0.175781 -0.08594,-0.410156 0,-0.04818 0.0052,-0.101563 0.03255,-0.394531 0.240885,-0.666666 0.208333,-0.272136 0.537761,-0.39974 0.299479,-0.111979 0.635416,-0.111979 0.03125,0 0.0638,0 0.592448,0.01042 0.98698,0.308594 0.389322,0.299479 0.420572,0.885416 0,0.03776 0,0.06901 0,0.246094 -0.09505,0.4375 -0.117187,0.21875 -0.261718,0.335937 -0.144532,0.117188 -0.154948,0.128907 0.170573,0.08463 0.411458,0.346354 0.21224,0.244791 0.21224,0.639323 0,0.03776 0,0.07552 -0.01563,0.634114 -0.447917,0.954427 -0.43099,0.320312 -1.082031,0.335937 -0.03255,0 -0.0638,0 -0.666667,0 -1.088542,-0.315104 -0.447917,-0.330729 -0.46875,-0.932292 0,-0.01172 0,-0.02213 0,-0.303386 0.127604,-0.539063 0.127604,-0.239583 0.292969,-0.394531 0.165364,-0.148437 0.192708,-0.148437 z"
         style=""
         id="path1351" />
    </g>
    <g
       aria-label="29"
       style="font-style:normal;font-variant:normal;font-weight:normal;font-stretch:normal;font-size:5.33333349px;line-height:1.25;font-family:Kabel;-inkscape-font-specification:Kabel;letter-spacing:0px;word-spacing:0px;fill:#f2f2f2;fill-opacity:1;stroke:none"
       id="text1273">
      <path
         d="m 46.8044,92 1.615886,-1.936198 q 0.527343,-0.682292 0.527343,-0.970052 0,-0.01693 0,-0.03255 -0.03125,-0.282552 -0.180989,-0.420573 -0.138021,-0.128906 -0.335938,-0.128906 -0.01563,0 -0.03125,0 -0.213541,0.0052 -0.352864,0.154948 -0.138021,0.149739 -0.148438,0.363281 0,0.01042 0,0.02083 0,0.292969 0.372396,0.480469 l -0.623698,0.820312 q -0.0052,-0.0052 -0.127604,-0.08464 -0.122396,-0.08073 -0.234375,-0.170573 -0.4375,-0.411458 -0.4375,-1.050781 0,-0.04297 0,-0.08594 0.01563,-0.404948 0.229167,-0.735677 0.208333,-0.325521 0.580729,-0.501302 0.358073,-0.170573 0.789062,-0.170573 0.01172,0 0.02214,0 0.415364,0 0.772135,0.160156 0.358073,0.160157 0.582031,0.463542 0.21875,0.304688 0.240886,0.730469 0,0.03255 0,0.0638 0,0.330729 -0.192709,0.742188 -0.213541,0.458333 -0.516927,0.789062 l -0.447916,0.496094 h 1.295573 L 49.939817,92 Z"
         style=""
         id="path1344" />
      <path
         d="m 52.274452,92.251302 -1.147135,-0.395833 q 0.05338,-0.03646 0.28776,-0.239584 0.234375,-0.203125 0.4375,-0.415364 0.261719,-0.256511 0.522136,-0.597656 -0.127604,0.04297 -0.341146,0.04297 -0.585938,-0.02213 -0.944011,-0.4375 -0.361979,-0.411458 -0.378906,-0.997396 0,-0.04297 0,-0.08073 0,-0.447916 0.21875,-0.783854 0.240886,-0.367187 0.625,-0.553385 0.384115,-0.1875 0.809896,-0.1875 0.742188,0 1.216146,0.46875 0.4375,0.4375 0.4375,1.136718 0,0.05339 -0.0052,0.11198 -0.01563,0.255208 -0.09115,0.50651 -0.07422,0.25651 -0.18099,0.464844 -0.106771,0.207031 -0.25651,0.446614 -0.148438,0.240886 -0.234375,0.363282 -0.14974,0.239583 -0.46875,0.592448 -0.320313,0.35677 -0.506511,0.554687 z m 0.08984,-2.459635 q 0.240885,-0.0052 0.411458,-0.191407 0.165365,-0.180989 0.165365,-0.421875 0,-0.0052 0,-0.01042 -0.01172,-0.154948 -0.09115,-0.277344 -0.07943,-0.122396 -0.213542,-0.197917 -0.132812,-0.06901 -0.282552,-0.06901 -0.25,0.01042 -0.415364,0.1875 -0.165365,0.170573 -0.165365,0.404948 0,0.0052 0,0.01042 0.0052,0.234375 0.18099,0.39974 0.165364,0.165365 0.399739,0.165365 0.0052,0 0.01042,0 z"
         style=""
         id="path1346" />
    </g>
    <g
       aria-label="30"
       style="font-style:normal;font-variant:normal;font-weight:normal;font-stretch:normal;font-size:5.33333349px;line-height:1.25;font-family:Kabel;-inkscape-font-specification:Kabel;letter-spacing:0px;word-spacing:0px;fill:#f2f2f2;fill-opacity:1;stroke:none"
       id="text1277">
      <path
         d="m 59.646848,88.917969 -0.778646,-0.523438 q 0.02734,-0.07422 0.160156,-0.239583 0.132813,-0.165365 0.282553,-0.266927 0.442708,-0.315104 1.045573,-0.315104 0.389322,0 0.75651,0.170572 0.363281,0.177084 0.582031,0.490886 0.170573,0.25651 0.170573,0.565104 0,0.08073 -0.01042,0.160156 -0.03255,0.235677 -0.122395,0.39974 -0.09635,0.171875 -0.192709,0.261719 -0.101562,0.09115 -0.111979,0.09635 0.261719,0.127604 0.432292,0.4375 0.170573,0.308594 0.170573,0.618489 0,0.21875 -0.06901,0.404948 -0.07552,0.1875 -0.1875,0.33724 -0.111979,0.148437 -0.223958,0.244792 -0.404948,0.351562 -1.16276,0.351562 -0.46875,0 -0.873698,-0.175781 -0.411459,-0.175781 -0.720053,-0.528646 l 0.740886,-0.697917 q 0.04297,0.05859 0.149739,0.160157 0.106771,0.10026 0.255209,0.170573 0.208333,0.09505 0.384114,0.10677 0.213542,-0.01693 0.384115,-0.139323 0.165365,-0.122395 0.165365,-0.330729 0,-0.154948 -0.0638,-0.272135 -0.06901,-0.117188 -0.18099,-0.153646 -0.197917,-0.05338 -0.533854,-0.05338 -0.117188,0 -0.160156,0 -0.04297,0.0052 -0.06901,0.01042 v -0.811198 q 0.02604,0 0.08594,0 0.05859,0.0052 0.132812,0.01042 0.287761,0 0.496094,-0.08463 0.203125,-0.08073 0.203125,-0.33073 0,-0.203125 -0.144531,-0.32552 -0.144532,-0.122396 -0.358073,-0.122396 -0.196615,0 -0.382813,0.101562 -0.192708,0.106771 -0.251302,0.272136 z"
         style=""
         id="path1339" />
      <path
         d="m 64.228879,87.615885 q 0.83724,0.0052 1.231771,0.635417 0.394531,0.634115 0.40625,1.716146 0,0.03255 0,0.0651 0,0.324219 -0.09115,0.671875 -0.101562,0.389323 -0.309895,0.697917 -0.207032,0.315104 -0.527344,0.507812 -0.320313,0.191407 -0.730469,0.196615 -0.523437,0 -0.895833,-0.298177 -0.373698,-0.299479 -0.55599,-0.789063 -0.18099,-0.490885 -0.191406,-1.072916 0.01042,-0.03255 0.01042,-0.06901 0.01693,-0.986979 0.432292,-1.626302 0.410156,-0.635417 1.210938,-0.635417 0.0052,0 0.01042,0 z m -0.02083,0.986979 q -0.330729,0 -0.454427,0.384115 -0.117188,0.356771 -0.117188,0.826823 0,0.03646 0,0.07422 0,1.226562 0.571615,1.236979 0.0052,0 0.01042,0 0.575521,0 0.575521,-1.279948 0,-0.490885 -0.132813,-0.86849 -0.134115,-0.373698 -0.453125,-0.373698 z"
         style=""
         id="path1341" />
    </g>
    <g
       aria-label="31"
       style="font-style:normal;font-variant:normal;font-weight:normal;font-stretch:normal;font-size:5.33333349px;line-height:1.25;font-family:Kabel;-inkscape-font-specification:Kabel;letter-spacing:0px;word-spacing:0px;fill:#f2f2f2;fill-opacity:1;stroke:none"
       id="text1281">
      <path
         d="m 71.646848,88.917969 -0.778646,-0.523438 q 0.02734,-0.07422 0.160156,-0.239583 0.132813,-0.165365 0.282553,-0.266927 0.442708,-0.315104 1.045573,-0.315104 0.389322,0 0.75651,0.170572 0.363281,0.177084 0.582031,0.490886 0.170573,0.25651 0.170573,0.565104 0,0.08073 -0.01042,0.160156 -0.03255,0.235677 -0.122395,0.39974 -0.09636,0.171875 -0.192709,0.261719 -0.101562,0.09115 -0.111979,0.09635 0.261719,0.127604 0.432292,0.4375 0.170573,0.308594 0.170573,0.618489 0,0.21875 -0.06901,0.404948 -0.07552,0.1875 -0.1875,0.33724 -0.111979,0.148437 -0.223958,0.244792 -0.404948,0.351562 -1.16276,0.351562 -0.46875,0 -0.873698,-0.175781 -0.411459,-0.175781 -0.720053,-0.528646 l 0.740886,-0.697917 q 0.04297,0.05859 0.149739,0.160157 0.106771,0.10026 0.255209,0.170573 0.208333,0.09505 0.384114,0.10677 0.213542,-0.01693 0.384115,-0.139323 0.165365,-0.122395 0.165365,-0.330729 0,-0.154948 -0.0638,-0.272135 -0.06901,-0.117188 -0.18099,-0.153646 -0.197917,-0.05338 -0.533854,-0.05338 -0.117188,0 -0.160156,0 -0.04297,0.0052 -0.06901,0.01042 v -0.811198 q 0.02604,0 0.08594,0 0.05859,0.0052 0.132812,0.01042 0.287761,0 0.496094,-0.08463 0.203125,-0.08073 0.203125,-0.33073 0,-0.203125 -0.144531,-0.32552 -0.144532,-0.122396 -0.358073,-0.122396 -0.196615,0 -0.382813,0.101562 -0.192708,0.106771 -0.251302,0.272136 z"
         style=""
         id="path1334" />
      <path
         d="m 74.948931,89.419271 -0.394531,-0.678386 2.186198,-1.34375 v 4.592448 l -1.114583,0.09636 v -3.014324 z"
         style=""
         id="path1336" />
    </g>
    <g
       aria-label="1"
       style="font-style:normal;font-variant:normal;font-weight:normal;font-stretch:normal;font-size:5.33333349px;line-height:1.25;font-family:Kabel;-inkscape-font-specification:Kabel;letter-spacing:0px;word-spacing:0px;fill:#8e8e8e;fill-opacity:1;stroke:none"
       id="text1285">
      <path
         d="m 84.666667,89.419271 -0.394532,-0.678386 2.186198,-1.34375 v 4.592448 l -1.114583,0.09636 v -3.014324 z"
         style=""
         id="path1331" />
    </g>
    <g
       aria-label="30"
       style="font-style:normal;font-variant:normal;font-weight:normal;font-stretch:normal;font-size:5.33333349px;line-height:1.25;font-family:Kabel;-inkscape-font-specification:Kabel;letter-spacing:0px;word-spacing:0px;fill:#8e8e8e;fill-opacity:1;stroke:none"
       id="text1289">
      <path
         d="m 35.646848,40.917969 -0.778646,-0.523438 q 0.02734,-0.07422 0.160156,-0.239583 0.132813,-0.165365 0.282553,-0.266927 0.442708,-0.315104 1.045573,-0.315104 0.389322,0 0.75651,0.170572 0.363281,0.177084 0.582031,0.490886 0.170573,0.25651 0.170573,0.565104 0,0.08073 -0.01042,0.160156 -0.03255,0.235677 -0.122395,0.39974 -0.09635,0.171875 -0.192709,0.261719 -0.101562,0.09115 -0.111979,0.09635 0.261719,0.127604 0.432292,0.4375 0.170573,0.308594 0.170573,0.618489 0,0.21875 -0.06901,0.404948 -0.07552,0.1875 -0.1875,0.33724 -0.111979,0.148437 -0.223958,0.244792 -0.404948,0.351562 -1.16276,0.351562 -0.46875,0 -0.873698,-0.175781 -0.411459,-0.175781 -0.720053,-0.528646 l 0.740886,-0.697917 q 0.04297,0.05859 0.149739,0.160157 0.106771,0.10026 0.255209,0.170573 0.208333,0.09505 0.384114,0.10677 0.213542,-0.01693 0.384115,-0.139323 0.165365,-0.122395 0.165365,-0.330729 0,-0.154948 -0.0638,-0.272135 -0.06901,-0.117188 -0.18099,-0.153646 -0.197917,-0.05339 -0.533854,-0.05339 -0.117188,0 -0.160156,0 -0.04297,0.0052 -0.06901,0.01042 v -0.811198 q 0.02604,0 0.08594,0 0.05859,0.0052 0.132812,0.01042 0.287761,0 0.496094,-0.08464 0.203125,-0.08073 0.203125,-0.33073 0,-0.203125 -0.144531,-0.32552 -0.144532,-0.122396 -0.358073,-0.122396 -0.196615,0 -0.382813,0.101562 -0.192708,0.106771 -0.251302,0.272136 z"
         style=""
         id="path1326" />
      <path
         d="m 40.228879,39.615885 q 0.83724,0.0052 1.231771,0.635417 0.394531,0.634115 0.40625,1.716146 0,0.03255 0,0.0651 0,0.324219 -0.09115,0.671875 -0.101562,0.389323 -0.309895,0.697917 -0.207032,0.315104 -0.527344,0.507812 -0.320313,0.191407 -0.730469,0.196615 -0.523437,0 -0.895833,-0.298177 -0.373698,-0.299479 -0.55599,-0.789063 -0.18099,-0.490885 -0.191406,-1.072916 0.01042,-0.03255 0.01042,-0.06901 0.01693,-0.986979 0.432292,-1.626302 0.410156,-0.635417 1.210938,-0.635417 0.0052,0 0.01042,0 z m -0.02083,0.986979 q -0.330729,0 -0.454427,0.384115 -0.117188,0.356771 -0.117188,0.826823 0,0.03646 0,0.07422 0,1.226562 0.571615,1.236979 0.0052,0 0.01042,0 0.575521,0 0.575521,-1.279948 0,-0.490885 -0.132813,-0.86849 -0.134115,-0.373698 -0.453125,-0.373698 z"
         style=""
         id="path1328" />
    </g>
    <g
       aria-label="29"
       style="font-style:normal;font-variant:normal;font-weight:normal;font-stretch:normal;font-size:5.33333349px;line-height:1.25;font-family:Kabel;-inkscape-font-specification:Kabel;letter-spacing:0px;word-spacing:0px;fill:#8e8e8e;fill-opacity:1;stroke:none"
       id="text1293">
      <path
         d="m 22.804406,44 1.615885,-1.936198 q 0.527344,-0.682292 0.527344,-0.970052 0,-0.01693 0,-0.03255 -0.03125,-0.282552 -0.18099,-0.420573 -0.13802,-0.128906 -0.335937,-0.128906 -0.01563,0 -0.03125,0 -0.213542,0.0052 -0.352865,0.154948 -0.13802,0.149739 -0.148437,0.363281 0,0.01042 0,0.02083 0,0.292969 0.372396,0.480469 l -0.623698,0.820312 q -0.0052,-0.0052 -0.127604,-0.08463 -0.122396,-0.08073 -0.234375,-0.170573 -0.4375,-0.411458 -0.4375,-1.050781 0,-0.04297 0,-0.08594 0.01563,-0.404948 0.229166,-0.735677 0.208334,-0.325521 0.580729,-0.501302 0.358073,-0.170573 0.789063,-0.170573 0.01172,0 0.02214,0 0.415365,0 0.772136,0.160156 0.358073,0.160157 0.582031,0.463542 0.21875,0.304688 0.240886,0.730469 0,0.03255 0,0.0638 0,0.330729 -0.192709,0.742188 -0.213541,0.458333 -0.516927,0.789062 l -0.447917,0.496094 h 1.295573 L 25.939823,44 Z"
         style=""
         id="path1321" />
      <path
         d="m 28.274458,44.251302 -1.147135,-0.395833 q 0.05338,-0.03646 0.28776,-0.239584 0.234375,-0.203125 0.4375,-0.415364 0.261719,-0.256511 0.522135,-0.597656 -0.127604,0.04297 -0.341145,0.04297 -0.585938,-0.02214 -0.944011,-0.4375 -0.361979,-0.411458 -0.378906,-0.997396 0,-0.04297 0,-0.08073 0,-0.447916 0.21875,-0.783854 0.240885,-0.367187 0.625,-0.553385 0.384114,-0.1875 0.809896,-0.1875 0.742187,0 1.216146,0.46875 0.4375,0.4375 0.4375,1.136718 0,0.05339 -0.0052,0.11198 -0.01563,0.255208 -0.09115,0.50651 -0.07422,0.25651 -0.180989,0.464844 -0.106771,0.207031 -0.256511,0.446614 -0.148437,0.240886 -0.234375,0.363282 -0.149739,0.239583 -0.46875,0.592448 -0.320312,0.35677 -0.50651,0.554687 z m 0.08984,-2.459635 q 0.240885,-0.0052 0.411458,-0.191407 0.165365,-0.180989 0.165365,-0.421875 0,-0.0052 0,-0.01042 -0.01172,-0.154948 -0.09115,-0.277344 -0.07943,-0.122396 -0.213542,-0.197917 -0.132812,-0.06901 -0.282552,-0.06901 -0.25,0.01042 -0.415365,0.1875 -0.165364,0.170573 -0.165364,0.404948 0,0.0052 0,0.01042 0.0052,0.234375 0.180989,0.39974 0.165365,0.165365 0.39974,0.165365 0.0052,0 0.01042,0 z"
         style=""
         id="path1323" />
    </g>
    <g
       aria-label="28"
       style="font-style:normal;font-variant:normal;font-weight:normal;font-stretch:normal;font-size:5.33333349px;line-height:1.25;font-family:Kabel;-inkscape-font-specification:Kabel;letter-spacing:0px;word-spacing:0px;fill:#8e8e8e;fill-opacity:1;stroke:none"
       id="text1297">
      <path
         d="m 10.804403,44 1.615885,-1.936198 q 0.527344,-0.682292 0.527344,-0.970052 0,-0.01693 0,-0.03255 -0.03125,-0.282552 -0.180989,-0.420573 -0.138021,-0.128906 -0.335938,-0.128906 -0.01563,0 -0.03125,0 -0.213542,0.0052 -0.352864,0.154948 -0.138021,0.149739 -0.148438,0.363281 0,0.01042 0,0.02083 0,0.292969 0.372396,0.480469 l -0.623698,0.820312 q -0.0052,-0.0052 -0.127604,-0.08463 -0.122396,-0.08073 -0.234375,-0.170573 -0.4375,-0.411458 -0.4375,-1.050781 0,-0.04297 0,-0.08594 0.01563,-0.404948 0.229166,-0.735677 0.208334,-0.325521 0.58073,-0.501302 0.358073,-0.170573 0.789062,-0.170573 0.01172,0 0.02214,0 0.415364,0 0.772135,0.160156 0.358073,0.160157 0.582031,0.463542 0.21875,0.304688 0.240886,0.730469 0,0.03255 0,0.0638 0,0.330729 -0.192709,0.742188 -0.213541,0.458333 -0.516927,0.789062 l -0.447916,0.496094 h 1.295573 L 13.93982,44 Z"
         style=""
         id="path1316" />
      <path
         d="m 16.274455,41.279948 q 0.06901,0 0.25,-0.127604 0.175781,-0.117188 0.175781,-0.320313 0,-0.0052 0,-0.01042 -0.0052,-0.180989 -0.117187,-0.272135 -0.111979,-0.09115 -0.287761,-0.09115 -0.165364,0 -0.272135,0.101563 -0.111979,0.106771 -0.117187,0.272135 0,0.0052 0,0.01042 0,0.122396 0.07422,0.21875 0.08073,0.101562 0.175782,0.149739 0.09115,0.05339 0.118489,0.06901 z m 0.02083,0.90625 q -0.127604,0.04297 -0.320312,0.170573 -0.191406,0.134114 -0.191406,0.384114 0,0.240886 0.160156,0.358073 0.153646,0.122396 0.389323,0.122396 0.132812,-0.0052 0.255208,-0.06901 0.117188,-0.0638 0.192709,-0.165365 0.0638,-0.09115 0.0638,-0.192708 0,-0.01563 0,-0.03125 -0.02734,-0.277344 -0.246094,-0.427084 -0.223958,-0.149739 -0.303386,-0.149739 z m -0.959635,-0.425781 q -0.01042,-0.0052 -0.144531,-0.134115 -0.138021,-0.122396 -0.234375,-0.341146 -0.08594,-0.175781 -0.08594,-0.410156 0,-0.04818 0.0052,-0.101563 0.03255,-0.394531 0.240885,-0.666666 0.208333,-0.272136 0.53776,-0.39974 0.29948,-0.111979 0.635417,-0.111979 0.03125,0 0.0638,0 0.592448,0.01042 0.986979,0.308594 0.389323,0.299479 0.420573,0.885416 0,0.03776 0,0.06901 0,0.246094 -0.09505,0.4375 -0.117187,0.21875 -0.261719,0.335937 -0.144531,0.117188 -0.154947,0.128907 0.170572,0.08464 0.411458,0.346354 0.21224,0.244791 0.21224,0.639323 0,0.03776 0,0.07552 -0.01563,0.634114 -0.447917,0.954427 -0.43099,0.320312 -1.082031,0.335937 -0.03255,0 -0.0638,0 -0.666666,0 -1.088541,-0.315104 -0.447917,-0.330729 -0.46875,-0.932292 0,-0.01172 0,-0.02214 0,-0.303386 0.127604,-0.539063 0.127604,-0.239583 0.292969,-0.394531 0.165364,-0.148437 0.192708,-0.148437 z"
         style=""
         id="path1318" />
    </g>
  </g>
</svg>
