<?xml version="1.0" encoding="UTF-8" standalone="no"?>
<!-- Created with Inkscape (http://www.inkscape.org/) -->

<svg
   width="20.6159"
   height="24.57147"
   viewBox="0 0 20.6159 24.571471"
   version="1.1"
   id="svg1059"
   xmlns="http://www.w3.org/2000/svg"
   xmlns:svg="http://www.w3.org/2000/svg"
   xmlns:rdf="http://www.w3.org/1999/02/22-rdf-syntax-ns#"
   xmlns:cc="http://creativecommons.org/ns#"
   xmlns:dc="http://purl.org/dc/elements/1.1/">
  <defs
     id="defs1053" />
  <metadata
     id="metadata1056">
    <rdf:RDF>
      <cc:Work
         rdf:about="">
        <dc:format>image/svg+xml</dc:format>
        <dc:type
           rdf:resource="http://purl.org/dc/dcmitype/StillImage" />
      </cc:Work>
    </rdf:RDF>
  </metadata>
  <g
     id="layer18"
     style="display:inline"
     transform="translate(-256.36553,-93.02544)">
    <path
       style="fill:#cbe736;fill-opacity:1;fill-rule:evenodd;stroke:#505050;stroke-width:0.5;stroke-linecap:round;stroke-linejoin:round;stroke-miterlimit:4;stroke-dasharray:none;stroke-opacity:1"
       class="polygon"
       d="m 273.83373,94.325638 -0.22269,0.29094 -1.02611,2.09589 -0.19919,0.31333 0.11414,0.19022 0.43641,0.39165 -0.25625,0.66021 -0.10072,0.17904 -0.19358,0.61546 0.11189,0.5595 0.24731,0.21261 0.66579,0.268552 0.99929,0.20142 1.17696,0.46999 0.79226,0.1119 0.18575,0.3357 -0.0335,0.60426 0.19694,0.52594 0.003,0.93995 -0.23722,0.82806 -1.213,0.39167 -0.6244,0.42523 -0.16897,0.2126 0.1533,0.24619 0.0784,0.3357 -1.14194,0.82805 -1.17361,1.07426 -0.27974,0.72734 -0.23388,0.86164 -0.34354,0.5483 -0.89407,0.7945 -0.91198,1.59234 -0.44651,1.04068 -2.237,2.48418 -1.98879,1.23874 -0.57966,0.42523 -3.51982,-0.1119 -0.26856,-1.67404 -0.536,-2.28612 -1.20976,-2.06457 -0.12757,-0.86162 0.056,-1.6662 0.004,-2.34096 -0.0784,-1.25776 0.0223,-0.91758 0.15441,-1.5957 -0.0223,-0.95115 -0.79674,-1.09663 -0.99031,-1.169342 -0.53824,-0.57071 -0.0223,-0.45879 0.002,-0.42522 0.16002,-0.62664 0.38717,-0.69379 0.4353,-0.11189 1.06864,0.27975 1.1134,0.59307 0.58972,1.32603 0.45208,0.19022 0.82136,-0.002 2.10025,-0.17904 h 0.52257 l 0.95563,-0.31332 0.94892,-0.5595 0.27303,-0.58188 0.22156,-1.29916 0.19919,-2.33873 h 0.48452 l 1.32558,0.82806 h 0.28422 0.27976 l 0.45878,-0.41402 0.5651,-0.33569 0.41627,0.007 1.53864,-0.39165 0.8247,0.70498 0.52256,0.21261 z"
       id="path2220-0" />
  </g>
</svg>
