<?xml version="1.0" encoding="UTF-8" standalone="no"?>
<!-- Created with Inkscape (http://www.inkscape.org/) -->

<svg
   width="213.80472"
   height="209.87187"
   viewBox="0 0 213.80472 209.87188"
   version="1.1"
   id="svg1059"
   xmlns="http://www.w3.org/2000/svg"
   xmlns:svg="http://www.w3.org/2000/svg"
   xmlns:rdf="http://www.w3.org/1999/02/22-rdf-syntax-ns#"
   xmlns:cc="http://creativecommons.org/ns#"
   xmlns:dc="http://purl.org/dc/elements/1.1/">
  <defs
     id="defs1053" />
  <metadata
     id="metadata1056">
    <rdf:RDF>
      <cc:Work
         rdf:about="">
        <dc:format>image/svg+xml</dc:format>
        <dc:type
           rdf:resource="http://purl.org/dc/dcmitype/StillImage" />
      </cc:Work>
    </rdf:RDF>
  </metadata>
  <g
     id="layer14"
     style="display:inline"
     transform="translate(-68.346472,-8.49196)">
    <path
       style="fill:#36e7c4;fill-opacity:1;fill-rule:evenodd;stroke:#505050;stroke-width:0.5;stroke-linecap:round;stroke-linejoin:round;stroke-miterlimit:4;stroke-dasharray:none;stroke-opacity:1"
       class="polygon"
       d="m 238.5819,10.297449 0.40171,0.7833 0.57963,0.80568 1.93745,1.35959 0.61658,0.76093 0.47221,0.83926 0.29877,0.649 0.59867,0.52594 0.83925,0.3357 0.71728,0.40285 0.43866,0.59306 0.65798,0.61546 1.26984,0.83925 h 0.61768 l 0.71392,0.12308 0.62888,0.21263 h 0.67476 l 1.0888,-0.54833 1.28394,-0.91758 0.97912,-0.57068 2.37577,0.20142 1.32108,0.45879 1.05187,0.64902 h 0.82135 l 1.79007,-1.19062 0.94892,-1.27007 0.92206,-0.26855 1.39651,0.54831 1.1529,1.18613 1.01046,1.72102 0.71393,0.66021 0.97801,1.0183 1.94181,2.1899 2.52648,1.09662 0.98026,0.53712 0.32002,0.53712 0.18577,0.71616 0.0672,0.7833 0.30549,0.32451 0.68147,-0.1119 0.58524,-0.11189 0.64119,0.22379 0.44425,0.57069 0.22268,0.44761 0.24281,0.48118 0.63449,0.30212 0.1242,0.61545 -0.43529,0.74973 -0.44424,0.6714 -0.54272,1.33385 -0.28311,1.36072 0.36368,0.44759 0.39053,0.38047 0.20813,0.38047 0.12086,0.44758 -0.0448,0.52593 -0.86274,1.89225 -0.44425,1.65277 -0.0112,0.83925 1.13545,0.61544 h 1.47519 l 0.46661,0.38048 0.46664,0.60426 0.41178,0.30212 0.62105,-0.008 0.43417,0.2126 0.16785,0.42523 0.50243,0.45878 0.42186,0.50355 -0.20141,0.64902 -0.0335,0.49237 -1.05075,1.37077 -2.4194,2.67778 -5.19721,4.96502 -0.003,0.002 -1.75392,0.59307 -0.90639,0.91759 -0.64007,1.44686 -1.51681,1.2309 -1.16924,0.49236 -0.12532,0.29095 -0.0895,1.3305 0.11973,1.95826 -0.54831,0.89519 -0.79225,1.73782 -0.4118,1.08543 -0.31443,0.21261 -0.35808,0.5483 -0.22157,1.77363 -0.15107,0.59307 -0.57292,3.67145 0.16336,1.05186 -0.44312,1.74677 -0.0223,1.02948 -0.1835,1.16376 -0.31445,1.00711 0.0223,1.61137 0.17792,2.63412 -0.0335,0.3469 -0.43865,0.24618 -0.78107,0.64903 -0.73854,0.4364 -0.56287,0.1119 -0.93435,1.16378 -0.80121,1.09662 -0.59644,1.07423 -0.15553,0.49236 0.12533,1.39092 0.0784,1.6483 -0.18464,0.70496 -0.28087,0.42524 -1.308,0.89518 -0.8605,0.63784 -0.40621,0.3357 -0.20926,0.51476 0.37823,1.2186 0.0223,0.89518 0.31109,0.52595 1.0362,0.42522 -0.002,0.42521 0.0223,0.4588 0.53824,0.57069 0.99031,1.169361 0.79674,1.09662 0.0223,0.95115 -0.15442,1.59458 -0.0223,0.91758 0.0784,1.25777 -0.004,2.34207 -0.0559,1.66508 0.12756,0.86164 1.20975,2.06566 0.53599,2.28613 0.26858,1.67403 0.0109,0.52593 -0.40956,1.92693 -0.46886,1.86649 -0.0223,0.70498 0.21596,0.93996 0.865,2.16079 0.63,1.57108 0.30548,0.93996 0.43306,1.10782 0.57965,1.6897 0.14434,0.80568 -0.11861,0.59307 -1.18123,2.1194 -0.11972,0.67139 0.29318,1.64606 0.38716,1.58674 0.55729,0.9064 1.33204,2.48865 0.99032,0.83926 1.83147,1.24544 1.61618,1.25216 0.62218,0.64903 0.56956,0.72734 1.12447,1.85532 0.68597,1.51064 0.36031,1.36407 0.8829,1.86315 0.81911,1.73223 1.06193,2.1149 0.75085,1.49387 0.33906,0.99592 -1.93856,0.29095 -2.80188,0.42521 -3.09035,0.46999 -3.19095,0.48117 -3.16028,0.48116 -3.00071,0.45879 -2.72321,0.41403 -0.8292,0.23501 0.40621,1.1727 -0.18687,1.23426 -0.53936,0.95116 -0.85044,1.17721 -0.38941,0.46995 -0.86724,0.91759 -0.72511,0.64902 -1.47966,1.08545 -0.93548,0.61542 -0.005,0.55953 1.5703,2.63076 0.7128,1.88778 0.28983,1.70535 -0.0112,0.98472 -0.0559,2.01534 -0.0672,2.3969 -0.1119,0.93995 0.42633,1.70984 -0.0784,1.33272 -1.05859,1.48941 -0.29429,1.46364 -0.53377,1.97393 -0.73966,2.7393 -0.52593,1.43905 0.29318,0.93997 0.26409,0.62664 0.2775,0.85044 0.56734,1.27343 0.66134,0.74973 0.36926,0.3245 2.18016,1.60242 0.90192,0.77212 1.38129,1.53638 1.01718,1.0183 1.41945,0.235 1.70693,0.39164 0.93773,0.29095 0.64902,-0.14548 0.21595,-0.35808 -0.0335,-0.77212 -0.11526,-0.57068 0.18128,-0.43642 0.57738,-0.29093 h 1.47967 l 0.64455,-0.38047 0.50915,-0.11189 0.002,1.68633 0.002,1.61584 9.9e-4,1.96161 0.002,2.25143 0.003,1.84636 0.002,1.96276 0.002,2.2626 -0.0112,0.25737 -0.22493,0.50356 -0.58747,0.17903 -0.79336,-0.4364 -0.0448,-0.45879 -0.19471,-0.82808 -0.37037,-0.42521 -0.48119,-0.13427 -0.81463,0.21261 -1.11453,0.61545 -1.43366,0.5371 -0.58076,0.30216 h -1.00935 l -1.0899,-0.29096 -0.80569,-0.69378 -0.23052,-1.04067 -0.70385,-1.06304 -0.95787,-1.53865 -0.48228,-0.63782 -0.63896,-0.71615 -0.64342,-0.11191 -0.72176,-0.20142 -0.44425,-1.05186 -0.41178,-1.32939 -0.25737,-0.51475 -0.43195,-0.6602 -0.61768,-0.40285 -1.34739,-0.53711 -1.88508,-0.73855 -2.36579,-0.92877 h -1.12561 l -1.25887,-0.15665 -0.78891,-0.44759 -0.45208,-0.3581 -0.5192,-1.29357 -0.70947,-1.51289 -2.07629,-1.80159 -0.46664,-1.99742 -0.41625,-0.29094 -0.71393,0.15666 -0.55167,0.24618 -0.21708,0.53711 -0.55727,1.80048 -0.30548,0.82806 -0.21037,0.235 -0.45209,0.26857 -0.74302,0.24617 -1.05522,0.1231 h -1.49163 l -1.86537,-0.26858 -1.00711,-0.20141 -2.72209,-0.30214 -0.78778,-0.14547 -1.11228,-0.39165 -0.80233,-0.39166 -2.64118,-0.85043 -1.19666,0.1119 -0.58188,-0.60427 -0.52147,-0.29095 -0.71617,-0.57067 -0.32116,-0.78331 -0.42633,-1.66172 0.10072,-0.8952 0.30774,-0.99591 -0.34242,-0.27974 h -0.47894 l -0.68371,0.34689 -1.21837,0.19022 -2.22826,0.43641 -0.7889,0.24618 -0.87507,0.19025 -0.67028,0.16785 -1.67516,0.96233 -0.58076,0.1119 -0.99254,-0.3469 -0.47893,-0.51473 0.47893,-0.58188 0.20588,-0.71616 -0.34241,-1.40212 -0.51249,-0.64903 -1.48515,-0.46997 h -0.56733 l -0.23946,-0.7833 -0.41069,-0.71617 -0.84708,-0.13428 -0.4051,-0.11191 -0.42297,0.22382 -0.23947,0.58187 -0.0672,0.44761 -0.75309,0.3357 -1.53864,-0.1119 -1.52654,-0.32451 -1.07425,-0.1119 -0.71391,0.1119 -2.72434,1.09662 -0.90079,0.14547 -2.92653,-0.11189 -1.6588,-0.23501 h -1.18021 l -0.83814,0.3469 -1.0429,0.81687 -0.87285,0.43642 h -0.40395 l -0.24843,-0.34689 -0.34129,-0.46998 -0.1119,-1.22308 -0.43417,-1.34729 0.28647,-0.70496 0.8605,-0.50355 0.29766,-1.04067 -0.26632,-1.56437 -0.0223,-1.09663 0.23274,-0.63783 -0.31218,-1.53974 -0.85941,-2.44391 -1.21512,-1.99071 -1.57254,-1.53527 -1.02947,-1.46925 -0.48678,-1.40435 0.1824,-3.36035 0.47446,-2.96425 0.37486,-2.35215 -0.1119,-3.94113 -1.06304,-2.56474 -0.23277,-2.75836 0.59867,-2.95193 0.0895,-2.02203 -0.39837,-1.02949 -0.27304,-0.15665 -0.34242,-0.1119 -2.68818,-0.11191 -3.58652,-0.13428 h -3.12637 -3.39204 l -0.55279,-0.36928 -0.25289,-0.69378 0.0112,-0.68259 0.69155,-2.08805 -0.10072,-0.16785 h -1.20639 l -3.26962,0.3357 -2.15497,0.3357 -1.3681,0.11189 -2.40418,0.5707 -1.48503,1.20069 -0.49012,1.51178 0.0448,1.24432 -0.0784,0.91759 -0.67813,0.95115 -0.53376,1.09661 -0.0223,0.5819 -0.32563,2.91052 -2.21719,0.39165 h -2.21843 -0.51586 l -2.74066,-0.69378 -1.01494,-9.9e-4 -0.87282,0.36926 -1.67627,0.35808 -1.6042,0.26857 -1.61517,0.86163 -0.4297,0.1119 -1.07088,-0.44759 h -1.50259 l -1.51569,0.2126 -0.71393,0.1119 -0.48789,-0.25738 -1.39541,-2.16973 -1.861,-2.89375 -1.00598,-1.81391 -0.37488,-0.46997 -0.64678,-0.62665 -0.88401,-1.18167 -0.36591,-1.12347 0.15442,-1.06305 -0.51921,-1.43346 -1.19006,-1.80718 -0.78444,-1.72438 -0.37598,-1.64157 -0.0895,-1.4066 0.18799,-1.17047 -0.2294,-0.86163 -0.64565,-0.55952 -0.3525,-0.70496 -0.25625,-0.29094 -0.53711,-0.6714 -1.18234,-0.73855 -1.30041,-0.39164 -2.85435,-0.007 -3.72863,-0.0112 -3.37882,0.1119 -3.75582,0.11189 -3.803942,0.11191 -1.023896,0.11189 h -2.901349 l -2.325404,-0.19023 -0.861624,-0.12308 -1.513563,-0.1119 H 85.94962 l -1.292789,0.1119 -3.105674,9.9e-4 h -0.279763 l -0.490113,0.20142 -1.323338,-0.29093 -1.300389,0.11189 -0.725117,-0.32451 -1.594351,0.20142 -0.774355,0.26856 -1.24141,0.92877 -1.858795,0.48117 H 71.27423 l -0.461029,-0.15665 -1.082072,-1.0183 -0.834771,-0.98473 -0.299898,-0.54831 0.465509,-0.13427 1.463194,-0.21261 1.102227,-0.11191 0.213719,-0.25736 0.17009,-3.03475 0.03359,-3.08509 -0.391656,-0.40284 -0.382689,-0.24617 -0.02229,-0.21263 0.574043,-0.39163 0.792261,-0.44761 0.254009,-0.20142 0.87954,-0.81686 1.733108,-1.88777 1.317849,-0.45879 1.229449,-0.49237 0.172319,-0.17903 0.163391,-0.36929 h 0.550538 l 0.175688,0.17905 0.269686,0.40284 0.483405,0.55951 0.868332,0.66021 0.878431,0.71617 0.438645,0.11189 0.71057,-0.35809 0.819105,-0.53711 1.20752,-0.39165 0.288701,-0.36928 0.157783,-0.78329 0.08948,-0.83926 0.100716,-0.9959 0.246191,-0.13429 0.436396,-0.1119 0.800089,0.27976 0.367042,0.29092 h 0.655733 l 0.41963,-0.25737 0.766517,-0.49235 0.973528,-0.19024 1.042921,-0.46997 0.998142,-0.60426 h 0.471097 l 0.499081,0.78329 0.445354,0.54831 0.07838,0.33571 -0.445374,0.66022 -0.497951,0.86162 0.41962,1.07425 0.100716,1.04067 -0.0112,0.62664 0.33795,0.25737 0.231634,0.12309 0.361424,-0.14546 h 0.71281 l 0.854916,0.32449 h 0.826952 l 0.798969,-0.40283 1.48615,-1.56884 2.17243,-2.73596 1.80092,-1.71655 1.42605,-0.70498 0.96571,-0.81687 0.50354,-0.93996 0.82918,-0.63783 1.72876,-0.50355 1.31896,-0.5707 1.31573,-1.88104 1.75392,-3.37939 0.49125,-3.01906 0.29989,-1.83629 -0.17345,-6.327971 -0.11414,-2.07799 0.26521,-1.13355 0.65572,-0.7833 1.78673,-1.64829 1.19878,-1.35063 0.91423,-1.58004 1.76366,-3.6099 0.77211,-1.16265 0.34465,-0.52593 1.06082,-0.96234 1.48727,-0.83925 1.91563,-0.72737 2.95494,-2.51327 2.34946,-2.52895 -0.32114,-3.0381 0.5483,-2.51887 1.28182,-3.20594 0.41962,-3.39282 -0.44088,-3.57633 0.18687,-2.92284 1.22284,-3.40177 0.51586,-1.26224 0.16785,-2.06455 -0.007,-3.28876 1.56044,-4.49391 1.4753,-2.69121 1.65007,-3.01011 0.62889,-1.81951 0.84036,-2.42935 -0.13203,-1.95041 -0.1533,-2.24138 0.41402,-3.08397 -0.15441,-1.81613 -0.58636,-1.57779 0.29877,-0.99593 1.18345,-0.40285 1.4753,-1.57554 2.65002,-4.11793 2.85213,-2.00638 1.98667,-0.63783 2.07082,0.11191 1.34842,0.35807 0.62663,0.64903 1.56492,0.97352 2.5068,1.28798 1.87085,1.60464 1.04068,1.61922 0.80121,0.88401 1.00038,0.30211 1.62826,-0.13426 1.82163,0.38045 1.90028,0.90639 1.16602,0.3357 0.43192,-0.23498 0.91535,0.13427 2.09712,0.74974 1.6719,-0.41404 2.47513,0.30214 5.75134,1.33049 0.30773,-0.22379 h 0.13539 l 0.49013,-0.53714 1.24791,-2.6621 1.05746,-1.63599 0.49236,-0.61544 1.21737,-0.86163 1.43589,-0.2238 1.37683,0.1119 1.15179,0.38045 1.05186,0.43641 1.16713,0.004 1.19116,-0.42523 1.77028,-0.78329 1.86426,-0.51475 1.60308,-0.55949 2.64129,-0.98473 1.03061,-0.44761 1.31237,-0.17903 3.67503,0.89519 2.38224,-0.59306 0.9713,0.16785 2.05986,-0.63783 0.37822,-0.42523 1.31024,-2.1619098 1.39775,-0.62665 2.11235,0.31332 1.1867,0.33571 3.95691,0.9287598 5.13722,0.96236 1.51021,0.14547 0.60987,0.11191 0.53711,-0.14548 1.68387,-1.21637 0.57405,-0.16785 h 0.4823 z"
       id="path2272-0" />
  </g>
</svg>
