<?xml version="1.0" encoding="UTF-8" standalone="no"?>
<!-- Created with Inkscape (http://www.inkscape.org/) -->

<svg
   width="26.670738"
   height="23.540398"
   viewBox="0 0 26.670738 23.540399"
   version="1.1"
   id="svg1059"
   xmlns="http://www.w3.org/2000/svg"
   xmlns:svg="http://www.w3.org/2000/svg"
   xmlns:rdf="http://www.w3.org/1999/02/22-rdf-syntax-ns#"
   xmlns:cc="http://creativecommons.org/ns#"
   xmlns:dc="http://purl.org/dc/elements/1.1/">
  <defs
     id="defs1053" />
  <metadata
     id="metadata1056">
    <rdf:RDF>
      <cc:Work
         rdf:about="">
        <dc:format>image/svg+xml</dc:format>
        <dc:type
           rdf:resource="http://purl.org/dc/dcmitype/StillImage" />
      </cc:Work>
    </rdf:RDF>
  </metadata>
  <g
     id="layer4"
     style="display:inline"
     transform="translate(-234.4019,-386.98925)">
    <path
       style="fill:#60e736;fill-opacity:1;fill-rule:evenodd;stroke:#505050;stroke-width:0.5;stroke-linecap:round;stroke-linejoin:round;stroke-miterlimit:4;stroke-dasharray:none;stroke-opacity:1"
       class="polygon"
       d="m 253.5048,404.31075 -1.0071,0.2798 h -0.13989 l -0.64566,-0.1119 -0.86275,0.1119 -0.677,0.1566 h -0.52592 l -0.85828,0.7946 -1.55832,2.1417 -0.41516,0.4476 -0.11525,0.8392 -0.36145,0.6716 -0.44311,0.5146 -0.43306,0.1232 -1.30152,-0.2126 -1.66429,-0.2687 -0.96793,-0.6489 -0.86052,-0.8504 -0.45431,-0.6156 -0.47558,-0.3357 -0.16337,-0.1902 -0.677,-0.2798 -0.25626,-0.1454 -0.22492,-0.1118 -0.27304,-0.4141 -0.16113,-0.358 0.0672,-0.9961 -0.47781,-0.593 -0.81575,-1.007 -0.51698,-0.8281 -0.70609,-1.1313 -0.43305,-0.9624 -0.4476,-1.0072 0.056,-0.4252 0.42858,-0.2909 1.25564,-0.5037 0.97466,-0.3915 0.69713,-0.7161 0.76205,-1.063 0.37037,-0.638 0.36928,-0.2909 0.40395,-0.4475 0.7061,-1.0072 0.78553,-1.1077 0.84038,-1.1963 1.0608,-0.347 1.44902,-0.4028 1.39327,-1.0405 1.65891,-0.8842 2.67722,-0.9511 1.24803,-0.2461 0.47446,-0.1344 0.30101,0.1791 0.31891,0.5483 0.45432,0.4588 1.05634,0.7944 0.44759,0.1903 1.09103,1.1794 1.16702,0.8058 1.34301,0.9287 0.91423,0.4589 0.46551,0.1342 0.38718,0.828 0.39164,0.6155 0.22157,0.5706 -0.0448,0.5596 -0.42411,1.3674 -0.6188,1.3975 -0.49572,0.5821 -0.60538,0.3692 -0.59195,0.5484 -0.22604,1.1212 -0.26745,1.3192 -0.7721,0.5484 -0.60091,0.3581 -0.8303,0.4364 z"
       id="path2440-7" />
  </g>
</svg>
