<?xml version="1.0" encoding="UTF-8" standalone="no"?>
<!-- Created with Inkscape (http://www.inkscape.org/) -->

<svg
   width="81.363152"
   height="151.41556"
   viewBox="0 0 81.363152 151.41556"
   version="1.1"
   id="svg1059"
   xmlns="http://www.w3.org/2000/svg"
   xmlns:svg="http://www.w3.org/2000/svg"
   xmlns:rdf="http://www.w3.org/1999/02/22-rdf-syntax-ns#"
   xmlns:cc="http://creativecommons.org/ns#"
   xmlns:dc="http://purl.org/dc/elements/1.1/">
  <defs
     id="defs1053" />
  <metadata
     id="metadata1056">
    <rdf:RDF>
      <cc:Work
         rdf:about="">
        <dc:format>image/svg+xml</dc:format>
        <dc:type
           rdf:resource="http://purl.org/dc/dcmitype/StillImage" />
      </cc:Work>
    </rdf:RDF>
  </metadata>
  <g
     id="layer2"
     style="display:inline"
     transform="translate(-415.72819,-202.46229)">
    <path
       style="fill:#e77936;fill-opacity:1;fill-rule:nonzero;stroke:#505050;stroke-width:0.5;stroke-linecap:round;stroke-linejoin:round;stroke-miterlimit:4;stroke-dasharray:none;stroke-opacity:1"
       class="polygon"
       d="m 490.72799,256.61355 -1.25776,2.0545 0.3536,-1.71655 1.45774,-2.47077 0.41514,-0.19023 z m -17.83959,-39.60264 0.0112,0.40283 -1.47306,-0.16784 -0.23163,-1.40211 h 0.72065 l 0.15777,-0.57069 0.43864,-0.1119 0.47222,1.24544 z m 13.38439,-10.42576 0.51362,1.17049 0.5998,1.12347 1.87073,2.71358 0.8001,1.04068 0.68259,1.10781 0.33234,2.21563 1.18895,3.44316 1.12335,5.17317 0.34467,5.30631 0.34465,2.43495 0.87393,2.29172 1.43054,2.37788 0.46328,2.6442 -0.87396,2.72478 -1.26547,2.56699 -0.32675,0.48116 -0.59642,0.66022 h -0.26858 l -1.01269,-0.66022 -0.82806,-1.08543 -1.05075,-2.55468 -0.38045,-1.29581 -0.43977,-0.20141 -1.22609,0.1119 -0.88849,0.80568 -0.16225,0.50354 0.19135,1.44018 0.33682,1.29579 0.14993,1.31371 0.0223,1.65501 0.33011,0.50355 0.48788,0.42522 0.50467,1.08543 0.0895,2.58043 -0.30996,1.30475 -0.86498,1.11901 0.0559,0.61545 0.32003,0.63783 -0.3066,0.38046 -1.15068,0.48117 -0.46661,0.42523 -0.62328,1.13802 -1.00935,2.32418 -0.13652,1.18726 0.63223,3.61213 -0.1768,2.56252 -1.28619,4.89904 -0.73853,2.3241 -1.04627,2.77852 -1.60308,3.6625 -1.58899,4.59794 -1.34953,4.73005 -0.99815,2.84337 -1.13321,2.79978 -1.5496,4.95153 -1.31785,5.02435 -1.95715,5.52902 -2.70137,6.1646 -0.29205,0.80573 -0.56062,3.14879 -0.6065,2.73262 -0.724,2.70691 -1.51458,4.47258 -0.17231,1.37979 -0.34353,1.32268 -1.45885,2.80425 -0.61658,1.04065 -0.4364,1.1077 -0.24506,1.4055 -0.4353,1.3563 -1.06865,2.4943 -1.59323,2.1462 -1.0832,0.7832 -2.34621,1.1313 -1.18895,0.2351 h -2.63581 l -2.55166,0.6489 -2.66088,1.2422 -2.55927,1.4223 -0.98024,0.6714 -1.08097,0.3804 -3.38219,0.112 -1.01269,-0.3022 -3.38319,-2.3376 -1.31024,-0.3805 -2.48385,-0.3245 -0.75086,-0.2014 -0.68035,-0.3022 -1.00486,-1.2219 -1.99216,-1.0295 -0.47894,-0.3245 -0.30326,-0.7162 -0.20701,-0.7721 -0.51585,-0.8616 -0.3827,-1.6348 -0.64904,-1.1436 -1.83582,-2.0199 -0.19583,-0.649 -0.1477,-2.14294 0.0559,-1.45013 -0.17904,-2.6554 0.20813,-1.24889 0.64343,-1.12574 -0.26296,-1.21739 -0.68372,-1.27901 -0.25737,-1.32489 -0.50467,-1.20521 -1.9211,-2.17194 -0.45097,-1.06307 -0.3122,-1.10788 -0.72398,-3.44984 -0.0895,-1.19955 0.10071,-2.54122 0.26745,-1.30702 0.46662,-0.90644 0.11638,-0.68256 0.30324,-0.58184 0.45656,-0.47002 0.30549,-0.55948 0.71727,-3.24744 0.90976,-0.72724 1.34851,-0.41409 1.08097,-0.85042 0.62103,-1.14592 0.62105,-2.36104 1.70033,-2.34546 0.60537,-1.23203 1.37034,-1.86205 1.21412,-2.62068 0.36814,-1.23539 0.26409,-1.26561 0.30773,-2.77285 0.23163,-1.37972 -0.0448,-1.3674 -0.69713,-1.40545 -1.65333,-2.55027 -0.0559,-0.48112 0.1309,-1.89671 -0.14099,-1.37078 -0.60872,-1.36631 -0.78219,-1.28686 -0.76877,-2.40704 -0.37373,-3.9769 0.0784,-1.43903 -0.22492,-1.27678 -0.55949,-1.21859 0.40059,-2.12387 4.94588,-7.70994 0.16115,-0.90638 -0.19919,-2.35215 0.10073,-1.36743 0.17232,-0.50355 0.3771,-0.29095 0.84709,-0.14545 3.99843,-0.33571 0.51361,-0.235 0.99815,-0.64901 1.37147,-1.25664 0.62775,-0.35809 0.54161,0.13429 0.34689,0.53711 0.44536,0.29096 1.61293,-0.57071 h 0.62106 l 0.63111,0.1119 0.29653,-0.52593 0.17681,-0.70496 0.235,-0.49236 0.43303,-0.27976 2.07845,-0.15666 1.32445,-0.20142 1.71465,-0.49237 0.36928,0.1119 1.3823,1.76468 0.41962,0.15665 0.53712,0.1119 0.46999,-0.3245 -1.12225,-0.91759 -0.16897,-0.52593 0.0559,-0.59306 0.60091,-1.2712 1.00598,-0.97353 2.23364,-1.4726 2.31992,-1.70426 0.67365,-0.12308 0.57069,0.26856 0.43752,2.00862 -0.056,0.3357 h 0.3704 l 0.43306,-0.24619 0.38269,-0.80567 0.0223,-0.67141 -0.31107,-0.64903 -0.1522,-0.54831 -0.0112,-0.50354 1.17586,-1.18615 0.92652,-1.13467 0.42858,-1.35288 0.3715,-0.62663 0.97465,-0.70497 0.28758,0.11188 0.22716,0.5707 0.12645,0.60426 -0.25065,0.60427 -0.35697,0.59307 -0.14434,0.7945 0.54942,0.15664 0.51922,-0.19022 0.75981,-1.4312 0.86609,-1.354 0.51475,-0.70497 0.64904,-0.49236 1.07872,0.1119 1.0485,0.30213 -1.70804,-1.43009 -0.42747,-1.95714 2.0348,-3.38611 0.0223,-0.70496 0.2943,-0.21261 0.13763,-0.26856 -1.05297,-1.14474 -0.1992,-0.57068 0.13876,-0.86164 0.50356,-0.76094 0.45655,-0.53711 0.64903,-0.20142 0.51585,0.29095 1.13211,0.93996 0.76314,0.14546 0.92206,-0.90638 0.75422,-1.12571 1.13434,-0.77213 1.28616,-0.48117 1.95939,-1.77361 1.2741,-3.71174 0.10072,-1.08543 -0.282,-1.31372 -0.45207,-1.24768 -0.75533,-1.55766 0.19695,-0.34689 1.07087,0.20142 0.35921,-0.21261 1.16388,-1.37973 1.91672,-2.64308 0.63224,0.006 0.54384,0.49236 0.20253,0.72735 0.37823,0.53712 1.29603,1.2544 z"
       id="path2458-3" />
  </g>
</svg>
