<?xml version="1.0" encoding="UTF-8" standalone="no"?>
<!-- Created with Inkscape (http://www.inkscape.org/) -->

<svg
   width="36.555405"
   height="87.100929"
   viewBox="0 0 36.555405 87.100933"
   version="1.1"
   id="svg1059"
   xmlns="http://www.w3.org/2000/svg"
   xmlns:svg="http://www.w3.org/2000/svg"
   xmlns:rdf="http://www.w3.org/1999/02/22-rdf-syntax-ns#"
   xmlns:cc="http://creativecommons.org/ns#"
   xmlns:dc="http://purl.org/dc/elements/1.1/">
  <defs
     id="defs1053" />
  <metadata
     id="metadata1056">
    <rdf:RDF>
      <cc:Work
         rdf:about="">
        <dc:format>image/svg+xml</dc:format>
        <dc:type
           rdf:resource="http://purl.org/dc/dcmitype/StillImage" />
      </cc:Work>
    </rdf:RDF>
  </metadata>
  <g
     id="layer11"
     style="display:inline"
     transform="translate(-297.28031,-172.33606)">
    <path
       style="fill:#e79436;fill-opacity:1;fill-rule:nonzero;stroke:#505050;stroke-width:0.5;stroke-linecap:round;stroke-linejoin:round;stroke-miterlimit:4;stroke-dasharray:none;stroke-opacity:1"
       class="polygon"
       d="m 320.44827,202.98756 -0.3939,0.1119 -0.2473,-0.20143 0.056,-0.59306 0.13876,-0.43642 0.39276,-0.1119 0.26857,0.1119 0.19022,0.20143 0.003,0.31331 -0.11526,0.32452 z m -0.86947,-1.08543 -0.22155,0.59307 -0.46215,-0.008 -0.4353,-0.52593 0.13875,-0.40284 0.41851,-0.12309 0.36703,0.15665 z m -14.66723,-27.91353 1.00711,0.99591 0.52482,0.13427 0.66916,-0.13427 1.90365,-0.1119 0.76651,0.14548 0.98473,0.58186 0.38829,0.11191 h 0.61657 l 0.11191,-0.15666 0.0672,-0.34689 -0.1119,-0.69378 0.13986,-0.38046 0.37487,-0.40285 1.04068,0.46998 2.59966,2.16751 0.0784,0.27976 1.6578,2.15184 0.53935,0.90639 v 0.48117 l 0.5114,1.87993 0.11302,0.88401 -0.11526,0.6714 0.0223,0.53712 0.20142,0.77211 -0.0672,0.32451 0.59194,1.1246 0.28312,0.93997 0.0559,0.91758 -0.16451,0.8952 -0.52255,1.31259 -0.0895,0.52594 0.11414,0.48116 0.33794,0.52593 0.56398,0.55951 0.42522,0.68258 0.28759,0.7945 0.24283,0.35809 0.30324,-0.007 0.55613,0.1231 0.44761,0.46999 0.51922,0.78329 0.17456,0.8952 0.0784,0.38048 h -1.48726 l -1.86875,0.14545 -0.45879,0.34691 -0.13763,0.78328 -0.58523,1.61137 -0.32564,0.59308 -0.69266,1.08543 -0.97242,1.52632 -0.20365,0.49235 0.0335,0.51475 0.57406,2.07464 0.6009,2.17982 0.19135,0.85043 0.42969,2.89822 0.23835,2.04666 0.0335,1.20405 0.20142,1.61024 0.536,0.87283 0.56062,0.54831 2.11347,0.3245 0.63112,0.40285 1.19767,1.02947 2.61387,2.83556 1.4359,1.81055 1.26112,1.59346 2.25984,2.95864 1.75391,2.29845 0.21821,2.15855 0.29207,0.31332 -0.59084,1.59793 -0.38718,2.5849 0.27864,1.71544 -0.11638,2.92507 -0.32116,3.11531 -0.40172,1.11899 -0.51922,0.41403 -1.22609,0.3357 -2.69478,0.39167 -0.40284,0.36927 -0.34688,0.60425 -0.54496,1.43457 -0.64343,1.44911 -0.20254,0.61544 0.1242,0.14547 0.57629,0.73855 0.57518,1.88552 0.10072,3.23615 -0.2003,0.235 -0.79673,0.14547 h -0.85943 l -0.35248,-0.17904 -0.3178,-0.35809 -0.23163,-0.69378 0.56285,-0.48117 0.20031,-0.83925 -0.36032,-0.72735 -0.72177,-0.15667 -0.91646,-0.66021 -1.95388,-2.16302 -1.63477,-1.51626 -0.94667,-1.25776 -0.97128,-0.50354 -0.27865,-0.31332 -0.23386,-0.53711 -0.004,-0.76094 0.0895,-0.57068 -0.30326,-0.63784 -0.98137,-0.98472 -0.44759,-0.54831 -0.0223,-0.64903 0.41292,-0.62664 0.83925,-0.76091 0.63446,-1.54982 0.22605,-1.0071 1.18457,-2.01309 0.16337,-1.74901 0.0223,-1.39875 -0.0672,-1.05186 -0.30325,-2.14402 -0.21038,-1.4838 -1.45783,-1.94035 -0.47557,-0.17904 -1.38455,0.16785 -1.19655,0.29094 -0.58635,0.40284 h -0.89073 l -2.33201,0.33571 -0.7307,0.14546 -0.42299,0.3469 -0.24506,0.1119 -1.46758,-1.50058 -1.29065,-1.61808 -1.63799,-2.75722 -0.46775,-0.3357 -0.60091,-0.80568 -0.49684,0.20142 -0.68481,0.57068 -0.37041,0.15666 h -0.19247 l -0.12084,-0.14546 -0.15331,-0.35809 -0.52928,-1.04068 -0.5942,-0.74973 -0.62889,-0.29094 -0.51361,-0.34689 0.22603,-0.3357 0.23949,-0.23499 -0.10073,-0.24617 -0.28757,-0.35807 -1.11566,-0.51475 -0.0223,-0.22382 0.98473,-0.44758 0.62328,-0.53713 0.42299,-0.51474 0.53601,-1.119 0.43528,-1.11902 0.32451,-0.35808 0.11303,-0.73853 -0.0672,-0.83926 0.21598,-1.06305 0.11191,-1.0071 -0.33012,-0.39166 -0.27862,-0.67139 0.33121,-1.15258 0.51923,-0.79448 2.48274,-0.82807 1.72885,-0.74973 0.36591,-0.32451 0.58748,-0.63783 0.32562,-0.62665 -0.23386,-0.19023 -1.35836,-0.0112 -0.33459,-0.23499 -0.98248,-2.18988 0.54383,-2.51104 0.0448,-0.98473 -0.0112,-1.22195 -0.17457,-0.8952 -0.42858,-0.38046 -0.26408,-0.48117 0.0672,-1.31148 0.39836,-0.15666 0.86387,-1.73222 0.38382,-1.01828 -0.45991,-0.81689 -0.50803,-1.16375 -0.22939,-0.73855 -0.12757,-0.24618 0.35137,-0.4588 0.583,-0.44758 0.65126,-0.1231 0.68932,-0.2126 2.17465,-2.1552 0.0223,-0.41405 -0.39502,-0.71616 -0.81127,-1.08542 -0.18016,-0.4476 -0.10072,-1.30812 -0.32227,-0.39165 -1.1923,-0.88402 -0.91758,-0.92876 0.28646,-0.93997 0.15554,-1.02948 -0.4532,-0.55951 -0.67699,-0.58188 -0.41739,-0.86163 -0.19023,-0.63783 -0.53376,-0.25737 -0.48789,-0.008 -0.35809,0.39166 h -0.38829 l -0.46774,-0.13429 -0.15554,-0.5483 -0.0223,-0.59309 -0.32228,-0.40283 -0.30995,-0.5595 -0.0335,-0.30213 0.1947,-0.11191 0.41068,-0.11189 1.75069,1.12795 1.0608,0.11191 z"
       id="path2488-1" />
  </g>
</svg>
