<!--Created with Inkscape (http://www.inkscape.org/)--><svg xmlns:dc="http://purl.org/dc/elements/1.1/" xmlns:cc="http://creativecommons.org/ns#" xmlns:rdf="http://www.w3.org/1999/02/22-rdf-syntax-ns#" xmlns="http://www.w3.org/2000/svg" xmlns:xlink="http://www.w3.org/1999/xlink" xmlns:sodipodi="http://sodipodi.sourceforge.net/DTD/sodipodi-0.dtd" xmlns:inkscape="http://www.inkscape.org/namespaces/inkscape" width="100" height="100" viewBox="0 0 99.999997 100" inkscape:version="0.91 r13725" sodipodi:docname="penalty.svg"><defs><linearGradient gradientTransform="translate(0 952.362)" gradientUnits="userSpaceOnUse" y2="29.458378" x2="47.31078" y1="27.521519" x1="47.416126" id="c" xlink:href="#a" inkscape:collect="always"/><linearGradient id="a" inkscape:collect="always"><stop offset="0" style="stop-color:#d6a25d;stop-opacity:1"/><stop offset="1" style="stop-color:#e0b985;stop-opacity:1"/></linearGradient><linearGradient gradientTransform="translate(0 952.362)" gradientUnits="userSpaceOnUse" y2="30.051884" x2="38.269402" y1="28.53743" x1="38.396049" id="b" xlink:href="#a" inkscape:collect="always"/></defs><sodipodi:namedview pagecolor="#ffffff" bordercolor="#666666" borderopacity="1.0" inkscape:pageopacity="0.0" inkscape:pageshadow="2" inkscape:zoom="5.6568542" inkscape:cx="73.020336" inkscape:cy="22.558682" inkscape:document-units="px" inkscape:current-layer="layer1" showgrid="false" units="px" inkscape:window-width="1880" inkscape:window-height="1060" inkscape:window-x="-3" inkscape:window-y="-3" inkscape:window-maximized="1"/><metadata><rdf:RDF><cc:Work><dc:format>image/svg+xml</dc:format><dc:type rdf:resource="http://purl.org/dc/dcmitype/StillImage"/><dc:title/><dc:date>2015</dc:date><dc:creator><cc:Agent><dc:title>Timothée Giet</dc:title></cc:Agent></dc:creator><cc:license rdf:resource="http://creativecommons.org/licenses/by-sa/4.0/"/></cc:Work><cc:License rdf:about="http://creativecommons.org/licenses/by-sa/4.0/"><cc:permits rdf:resource="http://creativecommons.org/ns#Reproduction"/><cc:permits rdf:resource="http://creativecommons.org/ns#Distribution"/><cc:requires rdf:resource="http://creativecommons.org/ns#Notice"/><cc:requires rdf:resource="http://creativecommons.org/ns#Attribution"/><cc:permits rdf:resource="http://creativecommons.org/ns#DerivativeWorks"/><cc:requires rdf:resource="http://creativecommons.org/ns#ShareAlike"/></cc:License></rdf:RDF></metadata><g inkscape:label="Calque 1" inkscape:groupmode="layer" transform="translate(0 -952.362)"><path sodipodi:nodetypes="cssssssc" inkscape:connector-curvature="0" d="M61.31 1003.19c1.903-1.087 6.491-2.6 7.605-.995.388.559-3.141 2.148-3.245 3.047-.103.9.317 1.307 2.038.96.83-.168 1.705.846.996 1.407-.71.561-3.387 1.2-4.957 1.095-1.571-.106-4.547-.307-4.558-1.157-.015-1.247 2.12-4.357 2.12-4.357z" style="display:inline;overflow:visible;fill:#6d4d30;fill-opacity:1;fill-rule:evenodd;stroke:none;stroke-width:4.48256016px;stroke-linecap:butt;stroke-linejoin:miter;stroke-opacity:1"/><path sodipodi:nodetypes="cssssssc" inkscape:connector-curvature="0" d="M61.619 1003.82c1.903-1.088 4.726-2.186 5.757-1.38.536.42-2.262 2.05-2.366 2.95-.103.898.395 1.678 2.116 1.331.83-.168 1.215.083.506.645-.71.56-2.71.516-4.28.41-1.57-.105-4.152.62-4.163-.229-.015-1.247 2.43-3.728 2.43-3.728z" style="display:inline;overflow:visible;fill:#b3814b;fill-opacity:1;fill-rule:evenodd;stroke:none;stroke-width:4.48256016px;stroke-linecap:butt;stroke-linejoin:miter;stroke-opacity:1"/><path sodipodi:nodetypes="cssssc" inkscape:connector-curvature="0" d="M40.849 1001.42c5.531 3.268 11.777 7.918 15.153 9.537 2.666 1.278 6.465-1.442 6.424-4.971-.052-4.493-5.666-5.422-9.505-6.426-3.287-.86-9.909-4.453-12.255-3.656-2.495.848-2.698 2.84.183 5.516z" style="display:inline;overflow:visible;fill:#864a25;fill-opacity:1;fill-rule:evenodd;stroke:none;stroke-width:4.48256016px;stroke-linecap:butt;stroke-linejoin:miter;stroke-opacity:1"/><path sodipodi:nodetypes="cssssc" inkscape:connector-curvature="0" d="M40.044 1000.418c5.532 3.267 12.689 7.652 16.064 9.271 2.666 1.279 5.388-.324 5.347-3.854-.052-4.492-4.84-4.2-8.68-5.205-3.286-.86-10.547-4.7-12.893-3.902-2.494.848-2.719 1.013.162 3.69z" style="display:inline;overflow:visible;fill:#d38254;fill-opacity:1;fill-rule:evenodd;stroke:none;stroke-width:4.48256016px;stroke-linecap:butt;stroke-linejoin:miter;stroke-opacity:1"/><path inkscape:connector-curvature="0" d="M44.316 1038.889c2.945 2.021 4.506 5.137 4.626 5.555.12.419.32 1.87-.248 2.223-.568.353-4.75 1.597-9.21.949-4.462-.648-8.02-2.626-8.289-3.435-.268-.81-.613-4.229.369-4.657.982-.428 10.858-1.665 12.752-.635z" style="display:inline;overflow:visible;fill:#785333;fill-opacity:1;fill-rule:evenodd;stroke:none;stroke-width:4.48256016px;stroke-linecap:butt;stroke-linejoin:miter;stroke-opacity:1"/><path inkscape:connector-curvature="0" d="M43.694 1039.455c2.518 1.468 3.853 3.731 3.956 4.035.103.304.274 1.358-.212 1.615-.486.256-4.062 1.16-7.877.689-3.815-.471-6.858-1.907-7.088-2.495-.23-.588-.525-3.071.315-3.382.84-.31 9.285-1.21 10.906-.462z" style="display:inline;overflow:visible;fill:#d9bc7e;fill-opacity:1;fill-rule:evenodd;stroke:none;stroke-width:4.48256016px;stroke-linecap:butt;stroke-linejoin:miter;stroke-opacity:1"/><path inkscape:connector-curvature="0" d="M62.36 1028.018c3.502-.706 6.824.345 7.209.55.384.204 1.564 1.072 1.422 1.726-.142.654-2.163 4.52-5.735 7.27-3.572 2.75-7.47 3.925-8.237 3.554-.768-.37-3.462-2.505-3.085-3.507.377-1.003 6.368-8.95 8.426-9.593z" style="display:inline;overflow:visible;fill:#785333;fill-opacity:1;fill-rule:evenodd;stroke:none;stroke-width:4.48256016px;stroke-linecap:butt;stroke-linejoin:miter;stroke-opacity:1"/><path sodipodi:nodetypes="ccssssc" inkscape:connector-curvature="0" d="M62.354 1028.879c2.912-.683 5.627.092 5.939.251.311.159.824.49.688 1.035-.136.545-1.914 3.803-4.943 6.18-3.028 2.377-6.28 3.46-6.905 3.176-.623-.286-2.35-1.623-2.01-2.463.339-.84 5.513-7.589 7.23-8.179z" style="display:inline;overflow:visible;fill:#d9bc7e;fill-opacity:1;fill-rule:evenodd;stroke:none;stroke-width:4.48256016px;stroke-linecap:butt;stroke-linejoin:miter;stroke-opacity:1"/><path inkscape:transform-center-y="-0.55587566" inkscape:transform-center-x="0.63308055" sodipodi:nodetypes="cssssssssc" inkscape:connector-curvature="0" d="M49.235 1017.533c4.223 2.453 8.972 5.087 9.317 5.47.346.385 1.655 4.491 2.003 4.622.349.13 1.356-1.364 2.047-.688.277.27-.347 3.91-2.058 6.256-1.71 2.346-5.149 6.773-6.556 6.42-1.407-.355-3.466-5.954-3.875-6.58-.41-.627-.254-1.284-.196-1.667.058-.383-5.723-3.55-6.675-4.08-.952-.53 4.756-9.041 5.993-9.753z" style="display:inline;overflow:visible;fill:#7c5123;fill-opacity:1;fill-rule:evenodd;stroke:none;stroke-width:4.48256016px;stroke-linecap:butt;stroke-linejoin:miter;stroke-opacity:1"/><path inkscape:transform-center-y="-0.54964603" inkscape:transform-center-x="1.1437956" sodipodi:nodetypes="cssssssssc" inkscape:connector-curvature="0" d="M49.6 1019.054c3.641 2.115 7.863 4.42 8.16 4.75.298.332 1.395 4.73 1.963 4.918.304.101 1.405-.613 1.524-.3.118.312-.36 2.14-1.836 4.163-1.475 2.023-4.284 5.817-5.498 5.512-1.213-.305-2.485-5.217-2.837-5.757-.353-.54-.22-1.107-.17-1.437.051-.33-5.162-3.888-6.516-3.991-.937-.071 4.144-7.245 5.21-7.858z" style="display:inline;overflow:visible;fill:#c7813a;fill-opacity:1;fill-rule:evenodd;stroke:none;stroke-width:4.48256016px;stroke-linecap:butt;stroke-linejoin:miter;stroke-opacity:1"/><path sodipodi:nodetypes="cssssssssc" inkscape:connector-curvature="0" d="M45.703 1023.278c.837 4.812 1.468 9.273 1.395 9.784-.072.512-2.084 4.545-1.96 4.896.124.35 2.033.787 1.843 1.125-.19.338-3.217 2.248-6.114 2.446-2.897.198-9.349-.341-9.983-1.646-.633-1.305 2.89-6.12 3.107-6.836.217-.716.82-1.02 1.151-1.222.33-.201-1.089-3.42-1.295-4.489-.207-1.07 10.516-4.548 11.856-4.058z" style="display:inline;overflow:visible;fill:#7c5123;fill-opacity:1;fill-rule:evenodd;stroke:none;stroke-width:4.48256016px;stroke-linecap:butt;stroke-linejoin:miter;stroke-opacity:1"/><path sodipodi:nodetypes="cssssssssc" inkscape:connector-curvature="0" d="M44.773 1024.535c.722 4.149 1.266 7.995 1.203 8.436-.062.441-2.434 4.498-2.213 5.055.118.297 1.373.682 1.21.973-.164.291-1.872 1.1-4.37 1.272-2.497.17-8.06-.294-8.606-1.42-.547-1.125 2.957-4.895 3.144-5.512.187-.617.707-.88.992-1.053.285-.174-.47-3.208-1.262-4.31-.547-.764 8.747-3.863 9.902-3.44z" style="display:inline;overflow:visible;fill:#c7813a;fill-opacity:1;fill-rule:evenodd;stroke:none;stroke-width:4.48256016px;stroke-linecap:butt;stroke-linejoin:miter;stroke-opacity:1"/><path sodipodi:nodetypes="ccssssc" inkscape:connector-curvature="0" d="M41.987 996.343c3.076 2.846 14.519 18.245 15.866 22.105-.455 1.597-4.512 1.024-9.528 6.098-1.771 1.792-19.623 7.175-19.25 3.993.232-1.965 1.02-4.263 1.4-10.076.378-5.812-1.373-21.554-.149-22.566 1.82-1.504 8.843-2.338 11.66.446z" style="display:inline;overflow:visible;fill:#864a25;fill-opacity:1;fill-rule:evenodd;stroke:none;stroke-width:4.48256016px;stroke-linecap:butt;stroke-linejoin:miter;stroke-opacity:1"/><path sodipodi:nodetypes="ccssssc" inkscape:connector-curvature="0" d="M42.192 997.895c2.788 2.58 13.158 16.534 14.379 20.032-.412 1.447-4.09.928-8.635 5.527-1.605 1.623-17.782 6.502-17.444 3.618.21-1.781.924-3.863 1.268-9.13.343-5.269-1.244-19.534-.135-20.451 1.649-1.363 8.014-2.119 10.567.404z" style="display:inline;overflow:visible;fill:#d38254;fill-opacity:1;fill-rule:evenodd;stroke:none;stroke-width:4.48256016px;stroke-linecap:butt;stroke-linejoin:miter;stroke-opacity:1"/><path sodipodi:nodetypes="cssssc" inkscape:connector-curvature="0" d="M32 1001.347c-4.667 4.415-9.724 10.336-12.655 12.665-2.316 1.839-6.624.03-7.368-3.42-.947-4.392 4.32-6.544 7.84-8.377 3.013-1.568 8.671-6.543 11.136-6.287 2.62.272 3.262 2.17 1.047 5.42z" style="display:inline;overflow:visible;fill:#864a25;fill-opacity:1;fill-rule:evenodd;stroke:none;stroke-width:4.48256016px;stroke-linecap:butt;stroke-linejoin:miter;stroke-opacity:1"/><path sodipodi:nodetypes="cssssc" inkscape:connector-curvature="0" d="M32.562 1000.19c-4.668 4.415-10.672 10.281-13.603 12.61-2.315 1.838 1.59-1.074-.71-3.752-3.262-3.8-6.269-1.903 1.44-5.714 3.046-1.505 9.747-7.033 12.212-6.777 2.62.273 2.875.384.66 3.634z" style="display:inline;overflow:visible;fill:#d38254;fill-opacity:1;fill-rule:evenodd;stroke:none;stroke-width:4.48256016px;stroke-linecap:butt;stroke-linejoin:miter;stroke-opacity:1"/><path sodipodi:nodetypes="csscsscsscssssssssc" inkscape:connector-curvature="0" d="M16.348 1007.234c-2.373-2.267-5.676-6.483-6.417-6.564-.74-.08-1.481.886-1.164 1.834.317.949 2.57 3.412 2.656 4.05-1.799-.18-6.25-2.476-6.704-1.965-.454.512-.744 1.572-.017 2.338.727.765 3.627 1.664 4.21 2.207-1.871.58-5.423.834-5.646 1.383-.224.548.375 1.607 1.205 1.768.83.162 2.246.073 2.666 0-.523 1.293-1.944 2.781-1.908 3.169.03.314 1.23.737 2.19.072s1.987-2.593 2.305-2.286c.297.287 2.246.586 3.152.292.906-.295 2.46.45 4.139-.626.742-.476.8-1.616 2.087-2.777 1.316-1.188 2.985-2.384 2.97-2.889-.031-1.01-.956-1.497-2.05-1.217-1.141.293-2.885 2.114-3.674 1.212z" style="display:inline;overflow:visible;fill:#6c4e30;fill-opacity:.97846327;fill-rule:evenodd;stroke:none;stroke-width:4.48256016px;stroke-linecap:butt;stroke-linejoin:miter;stroke-opacity:1"/><path sodipodi:nodetypes="csscsscsscssssssssc" inkscape:connector-curvature="0" d="M16.283 1007.685c-2.373-2.266-5.425-6.295-6.166-6.376-.74-.08-.77.445-.453 1.394.317.948 2.836 4.09 2.922 4.73-1.798-.18-7.062-2.942-7.517-2.43-.455.512-.201.949.526 1.714.727.766 4.416 2.047 4.998 2.59-1.87.58-6.333.883-6.557 1.431-.224.549-.238.921.592 1.082.83.161 2.93-.11 3.35-.185-.524 1.293-2.04 3.01-2.003 3.397.029.314.299.61 1.259-.055s2.155-2.696 2.473-2.388c.296.286 1.956.617 2.862.323.906-.295 1.967.47 3.646-.607.742-.476 1.147-1.518 2.433-2.68 1.316-1.188 2.737-1.929 2.722-2.434-.031-1.01-.237-1.07-1.33-.79-1.142.293-2.968 2.186-3.757 1.284z" style="display:inline;overflow:visible;fill:#b3814b;fill-opacity:1;fill-rule:evenodd;stroke:none;stroke-width:4.48256016px;stroke-linecap:butt;stroke-linejoin:miter;stroke-opacity:1"/><path sodipodi:nodetypes="cscc" inkscape:connector-curvature="0" d="M33.065 996.815c2.218 2.521 5.165 4.223 6.8 3.7 1.635-.522 2.244-2.404 1.353-3.708-2.718-.294-9.482-1.962-8.153.009z" style="display:inline;overflow:visible;fill:#864a25;fill-opacity:1;fill-rule:evenodd;stroke:none;stroke-width:4.48256016px;stroke-linecap:butt;stroke-linejoin:miter;stroke-opacity:1"/><path inkscape:connector-curvature="0" d="M34.577 996.907c1.612 1.78 3.613 2.8 4.802 2.43 1.188-.368 1.533-1.462.885-2.383-.647-.92-6.982-1.532-5.687-.047z" style="display:inline;overflow:visible;fill:#b3814b;fill-opacity:1;fill-rule:evenodd;stroke:none;stroke-width:4.48256016px;stroke-linecap:butt;stroke-linejoin:miter;stroke-opacity:1"/><path sodipodi:nodetypes="csssc" inkscape:connector-curvature="0" d="M42.427 1008.105c-1.154-2.864-1.532-3.697-2.797-3.8-1.276-.105-3.448 2.371-2.742 3.76.707 1.389 3.665 2.155 4.63 2.003.965-.152.91-1.963.91-1.963z" style="display:inline;overflow:visible;fill:#dcc89d;fill-opacity:1;fill-rule:evenodd;stroke:none;stroke-width:4.48256016px;stroke-linecap:butt;stroke-linejoin:miter;stroke-opacity:1"/><path sodipodi:nodetypes="csssc" inkscape:connector-curvature="0" d="M41 1009.78c-3.01.69-3.893.933-4.194 2.166-.303 1.244 1.8 3.777 3.283 3.298 1.483-.479 2.704-3.28 2.706-4.257.001-.976-1.795-1.207-1.795-1.207z" style="display:inline;overflow:visible;fill:#dcc89d;fill-opacity:1;fill-rule:evenodd;stroke:none;stroke-width:4.48256016px;stroke-linecap:butt;stroke-linejoin:miter;stroke-opacity:1"/><path sodipodi:nodetypes="csssc" inkscape:connector-curvature="0" d="M42.14 1011.818c-.338 3.07-.399 3.982.667 4.671 1.075.696 4.16-.458 4.194-2.016.035-1.558-2.21-3.632-3.131-3.954-.922-.323-1.73 1.299-1.73 1.299z" style="display:inline;overflow:visible;fill:#dcc89d;fill-opacity:1;fill-rule:evenodd;stroke:none;stroke-width:4.48256016px;stroke-linecap:butt;stroke-linejoin:miter;stroke-opacity:1"/><path sodipodi:nodetypes="csssc" inkscape:connector-curvature="0" d="M44.64 1011.392c2.728 1.448 3.554 1.841 4.588 1.105 1.043-.742 1.11-4.035-.325-4.642-1.435-.608-4.192.712-4.832 1.45-.64.737.569 2.087.569 2.087z" style="display:inline;overflow:visible;fill:#dcc89d;fill-opacity:1;fill-rule:evenodd;stroke:none;stroke-width:4.48256016px;stroke-linecap:butt;stroke-linejoin:miter;stroke-opacity:1"/><path sodipodi:nodetypes="csssc" inkscape:connector-curvature="0" d="M44.71 1009.487c2.32-2.038 2.981-2.67 2.66-3.898-.325-1.239-3.38-2.468-4.457-1.34-1.076 1.126-.818 4.171-.355 5.03.463.86 2.152.209 2.152.209z" style="display:inline;overflow:visible;fill:#dcc89d;fill-opacity:1;fill-rule:evenodd;stroke:none;stroke-width:4.48256016px;stroke-linecap:butt;stroke-linejoin:miter;stroke-opacity:1"/><path sodipodi:nodetypes="zzz" inkscape:connector-curvature="0" d="M43.998 1012.452c-3.073.718-4.188-4.406-1.243-5.075 2.944-.669 4.316 4.357 1.243 5.075z" style="color:#000;display:inline;overflow:visible;visibility:visible;opacity:1;fill:#f0c66e;fill-opacity:1;fill-rule:nonzero;stroke:none;stroke-width:1;stroke-linecap:round;stroke-linejoin:round;stroke-miterlimit:4;stroke-dasharray:none;stroke-dashoffset:0;stroke-opacity:1;marker:none;enable-background:accumulate"/><path sodipodi:nodetypes="csssssssccccccccccccccccccccc" inkscape:connector-curvature="0" d="M27.188 962.745c.883-.73.38-.517 1.569-1.022.892.256 2.402-.426 2.944-.92.908-.517.084.045 1.273.114 1.053.555 1.568 1.133 2.577 1.303.73-.124 2.01.883 2.218 1.381.939.843-.04.93.859 1.252.4.163.52 1.63 1.386 2.333.234.328 1.348.646 1.018 1.649.054.178.43 2.01.082 3.346.164.353-.529.476-.816 1.753-.035.364-.049 1.79-.335 1.985-.82 1.208-1.124 1.41-1.582 2.195-.9.28.078 1.59-.714 1.544-.167-.024-2.076.178-2.558.96-.56.796-.989.72-1.1.973-.21-.09-2.23-.011-2.303-.241-.858-1.002-2.003-.23-2.226-.442-.464.384-1.27-.272-2.496-.876-.081-.76-.471-.955-1.454-1.416-.081-.168-1.287-.69-1.274-1.727.161-.314-.788-2.014-.492-2.932.061-1.131-.435-.124-.91-1.118-.174-.173.71-2.154.218-2.38.15-.285-1.358-1.025-.981-1.329.47-.83 1.214-.973 1.125-1.908.655-.994-.534-1.374.313-2.138.93-.423 1.325-2.07 1.791-1.997 1.328-1.064 2.678-.785 2.203-.649" style="display:inline;overflow:visible;fill:#4d3f31;fill-opacity:1;fill-rule:evenodd;stroke:none;stroke-width:4.48256016px;stroke-linecap:butt;stroke-linejoin:miter;stroke-opacity:1"/><path sodipodi:nodetypes="csssssssccccccccccccccccccccc" inkscape:connector-curvature="0" d="M27.609 963.536c.798-.66.343-.467 1.417-.923.807.231 2.17-.386 2.661-.832.82-.467.076.041 1.15.103.951.502 1.417 1.024 2.329 1.178.659-.112 1.816.798 2.004 1.248.848.762-.036.84.776 1.131.361.147.47 1.472 1.252 2.108.212.297 1.219.583.92 1.49.05.16.389 1.817.074 3.024.148.319-.477.43-.736 1.583-.032.329-.045 1.618-.303 1.794-.742 1.092-1.016 1.275-1.43 1.983-.814.253.07 1.437-.646 1.396-.15-.022-1.875.16-2.31.867-.506.72-.894.65-.994.88-.19-.082-2.016-.011-2.081-.219-.775-.905-1.81-.208-2.012-.4-.42.348-1.147-.245-2.255-.79-.074-.687-.426-.863-1.314-1.28-.073-.152-1.163-.623-1.151-1.56.145-.285-.712-1.82-.445-2.65.056-1.022-.393-.112-.822-1.01-.158-.156.642-1.947.197-2.15.135-.258-1.227-.926-.887-1.201.424-.751 1.098-.88 1.017-1.724.592-.898-.482-1.242.283-1.932.84-.382 1.197-1.871 1.618-1.805 1.2-.961 2.42-.709 1.99-.586" style="display:inline;overflow:visible;fill:#635140;fill-opacity:1;fill-rule:evenodd;stroke:none;stroke-width:4.48256016px;stroke-linecap:butt;stroke-linejoin:miter;stroke-opacity:1"/><path sodipodi:nodetypes="csssssssccccccccccccccccccccc" inkscape:connector-curvature="0" d="M20.883 967.544c-.757-.86-.294-.57-1.389-1.255-.921.113-2.306-.798-2.764-1.37-.816-.653-.09.031-1.275-.087-1.127.383-1.726.873-2.75.883-.7-.237-2.123.557-2.406 1.016-1.06.686-.106.924-1.045 1.102-.42.098-.77 1.528-1.735 2.087-.282.287-1.433.426-1.263 1.468-.082.168-.74 1.919-.606 3.293-.217.323.447.552.53 1.858-.022.365-.232 1.776.02 2.014.622 1.322.889 1.569 1.219 2.415.845.418-.327 1.558.463 1.638.168.002 2.022.5 2.376 1.348.428.875.863.866.933 1.134.222-.055 2.205.339 2.313.123 1.004-.855 2.014.086 2.268-.088.398.453 1.296-.07 2.602-.474.2-.736.615-.868 1.658-1.17.106-.153 1.379-.479 1.53-1.505-.11-.336 1.093-1.866.944-2.82.117-1.126.45-.054 1.074-.96.2-.144-.363-2.24.158-2.386-.103-.304 1.503-.799 1.178-1.158-.333-.894-1.047-1.151-.812-2.06-.491-1.085.742-1.274.025-2.161-.852-.564-.983-2.253-1.455-2.254-1.144-1.259-2.521-1.195-2.074-.986" style="display:inline;overflow:visible;fill:#4d3f31;fill-opacity:1;fill-rule:evenodd;stroke:none;stroke-width:4.48256016px;stroke-linecap:butt;stroke-linejoin:miter;stroke-opacity:1"/><path sodipodi:nodetypes="csssssssccccccccccccccccccccc" inkscape:connector-curvature="0" d="M20.343 968.26c-.684-.777-.266-.516-1.255-1.134-.833.102-2.083-.721-2.498-1.239-.737-.59-.08.029-1.152-.078-1.018.346-1.56.79-2.484.798-.633-.215-1.919.503-2.174.918-.958.62-.097.835-.945.996-.38.088-.695 1.38-1.567 1.885-.255.26-1.295.385-1.142 1.327-.074.152-.669 1.734-.547 2.975-.197.292.404.5.479 1.68-.02.33-.21 1.604.018 1.819.561 1.194.803 1.418 1.101 2.182.764.378-.295 1.408.419 1.48.152.002 1.827.453 2.146 1.219.387.79.78.782.843 1.024.2-.05 1.993.306 2.09.111.908-.773 1.82.078 2.05-.079.36.409 1.171-.063 2.35-.428.181-.666.557-.785 1.499-1.057.096-.14 1.246-.433 1.382-1.361-.1-.304.988-1.686.854-2.547.106-1.018.406-.05.97-.869.18-.13-.328-2.023.143-2.155-.093-.275 1.358-.722 1.064-1.046-.3-.809-.946-1.04-.734-1.863-.443-.98.671-1.15.024-1.952-.77-.51-.89-2.036-1.315-2.036-1.034-1.137-2.279-1.08-1.875-.891" style="display:inline;overflow:visible;fill:#635140;fill-opacity:1;fill-rule:evenodd;stroke:none;stroke-width:4.48256016px;stroke-linecap:butt;stroke-linejoin:miter;stroke-opacity:1"/><path sodipodi:nodetypes="csssc" inkscape:connector-curvature="0" d="M42.708 970.65c5.368 2.928 12.317 11.836 8.019 20.59-4.299 8.754-19.144 6.415-26.123 1.134-6.978-5.281-6.48-14.727-4.013-18.054 2.467-3.326 9.711-9.067 22.117-3.67z" style="display:inline;overflow:visible;fill:#6c4e30;fill-opacity:.97846327;fill-rule:evenodd;stroke:none;stroke-width:4.48256016px;stroke-linecap:butt;stroke-linejoin:miter;stroke-opacity:1"/><path sodipodi:nodetypes="csssc" inkscape:connector-curvature="0" d="M42.273 971.239c4.966 2.71 11.84 11.35 7.862 19.451-3.977 8.1-18.173 6.145-24.63 1.258-6.457-4.886-6.063-13.922-3.78-17 2.282-3.078 9.068-8.703 20.548-3.71z" style="display:inline;overflow:visible;fill:#b3814b;fill-opacity:1;fill-rule:evenodd;stroke:none;stroke-width:4.48256016px;stroke-linecap:butt;stroke-linejoin:miter;stroke-opacity:1"/><path sodipodi:nodetypes="cssssssssc" inkscape:connector-curvature="0" d="M39.966 971.731c-5.024-.295-11.146-.977-13.395.985-2.25 1.963-4.53 6.508-3.151 8.692 1.377 2.184 2.42 1.947 1.013 3.86-1.407 1.913-2.727 3.09-4.053 1.562-1.327-1.528-3.926-9.952-2.196-11.971 1.729-2.02 6.644-5.899 10.1-6.061 3.454-.163 2.648-1.212 3.883-1.273 1.235-.06 9.178.564 10.778 3.055 1.6 2.491-1.455 1.218-2.98 1.151z" style="display:inline;overflow:visible;fill:#4d3f31;fill-opacity:1;fill-rule:evenodd;stroke:none;stroke-width:4.48256016px;stroke-linecap:butt;stroke-linejoin:miter;stroke-opacity:1"/><path sodipodi:nodetypes="ssssssssss" inkscape:connector-curvature="0" d="M39.818 971.913c-4.823-.46-10.619-.84-12.949 1.144-2.158 1.837-4.734 5.74-3.426 7.814 1.308 2.073 2.988 2.598 1.652 4.414-1.336 1.816-2.505 2.407-3.764.956s-4.095-9.221-2.453-11.138c1.641-1.918 6.25-5.705 9.53-5.86 3.279-.154 2.89-.949 4.062-1.006 1.172-.057 8.44.177 9.958 2.542 1.52 2.365-1.168 1.272-2.61 1.134z" style="display:inline;overflow:visible;fill:#635140;fill-opacity:1;fill-rule:evenodd;stroke:none;stroke-width:4.48256016px;stroke-linecap:butt;stroke-linejoin:miter;stroke-opacity:1"/><path sodipodi:nodetypes="cssc" inkscape:connector-curvature="0" d="M26.157 986.6c-2.5-2.191-6.036-1.825-6.599.551-.562 2.376 1.938 5.507 3.63 5.59 1.787.088 4.194-.76 4.218-1.675" style="display:inline;overflow:visible;fill:#6c4e30;fill-opacity:.97846327;fill-rule:evenodd;stroke:none;stroke-width:4.48256016px;stroke-linecap:butt;stroke-linejoin:miter;stroke-opacity:1"/><path sodipodi:nodetypes="cssc" inkscape:connector-curvature="0" d="M26.763 986.482c-2.87-.653-5.41-1.297-5.972 1.079-.563 2.376 1.173 4.102 2.864 4.185 1.788.087 4-.18 4.024-1.094" style="display:inline;overflow:visible;fill:#b3814b;fill-opacity:1;fill-rule:evenodd;stroke:none;stroke-width:4.48256016px;stroke-linecap:butt;stroke-linejoin:miter;stroke-opacity:1"/><path sodipodi:nodetypes="cssc" inkscape:connector-curvature="0" d="M46 982.862c.209 1.098-.121 1.823-.64 2.234-.169.132.902.302 1.378-.07.828-.648.097-1.54-.738-2.164z" style="display:inline;overflow:visible;fill:#6c4e30;fill-opacity:.97846327;fill-rule:evenodd;stroke:none;stroke-width:4.48256016px;stroke-linecap:butt;stroke-linejoin:miter;stroke-opacity:1"/><path sodipodi:nodetypes="ccsc" inkscape:connector-curvature="0" d="M48.378 988.118c-2.96 2.695-10.528.967-9.76 1.18 1.46 1.667 4.897 1.846 6.63 1.204 1.733-.642 2.443-1.131 3.13-2.384z" style="display:inline;overflow:visible;fill:#8e6235;fill-opacity:1;fill-rule:evenodd;stroke:none;stroke-width:4.48256016px;stroke-linecap:butt;stroke-linejoin:miter;stroke-opacity:1"/><path sodipodi:nodetypes="csssc" inkscape:connector-curvature="0" d="M21.495 988.969c.739-2.12 3.967-1.019 4.299-.54.332.48.41 2.324-.86 2.05-.951-.206-.437-1.302-.261-1.46.175-.156-1.82-1.416-3.178-.05z" style="display:inline;overflow:visible;fill:#6c4e30;fill-opacity:.97846327;fill-rule:evenodd;stroke:none;stroke-width:4.48256016px;stroke-linecap:butt;stroke-linejoin:miter;stroke-opacity:1"/><path sodipodi:nodetypes="csc" inkscape:connector-curvature="0" d="M23.033 988.911c-.66 1.375-.014 1.91.811 1.775.985-.161-.854-.417-.81-1.775z" style="display:inline;overflow:visible;fill:#6c4e30;fill-opacity:.97846327;fill-rule:evenodd;stroke:none;stroke-width:4.48256016px;stroke-linecap:butt;stroke-linejoin:miter;stroke-opacity:1"/><path sodipodi:nodetypes="sss" inkscape:connector-curvature="0" d="M36.257 976.871c-2.801.772-.772 6.646 2.27 6.168 3.54-.556 1.283-7.148-2.27-6.168z" style="display:inline;overflow:visible;fill:#6c4e30;fill-opacity:.97846327;fill-rule:evenodd;stroke:none;stroke-width:4.48256016px;stroke-linecap:butt;stroke-linejoin:miter;stroke-opacity:1"/><path sodipodi:nodetypes="sss" inkscape:connector-curvature="0" d="M36.463 977.81c-2.77.64-1.263 5.77 2.264 5.237 3.527-.533 1.311-6.065-2.264-5.237z" style="display:inline;overflow:visible;fill:#fff;fill-opacity:1;fill-rule:evenodd;stroke:none;stroke-width:4.48256016px;stroke-linecap:butt;stroke-linejoin:miter;stroke-opacity:1"/><path sodipodi:nodetypes="sss" inkscape:connector-curvature="0" d="M45.43 976.24c-2.394.775-.367 6.178 2.14 5.79 3.003-.467.831-6.751-2.14-5.79z" style="display:inline;overflow:visible;fill:#6c4e30;fill-opacity:.97846327;fill-rule:evenodd;stroke:none;stroke-width:4.48256016px;stroke-linecap:butt;stroke-linejoin:miter;stroke-opacity:1"/><path sodipodi:nodetypes="sss" inkscape:connector-curvature="0" d="M45.665 977.027c-2.36.649-.866 5.67 2.106 5.137 2.973-.533.889-5.96-2.106-5.137z" style="display:inline;overflow:visible;fill:#fff;fill-opacity:1;fill-rule:evenodd;stroke:none;stroke-width:4.48256016px;stroke-linecap:butt;stroke-linejoin:miter;stroke-opacity:1"/><path sodipodi:nodetypes="ccc" inkscape:connector-curvature="0" d="M37.205 975.346c-2.752-.237-4.893.944-5.313 2.657-.118-1.213.797-3.821 5.313-2.657z" style="display:inline;overflow:visible;fill:#6c4e30;fill-opacity:.97846327;fill-rule:evenodd;stroke:none;stroke-width:4.48256016px;stroke-linecap:butt;stroke-linejoin:miter;stroke-opacity:1"/><path sodipodi:nodetypes="ccc" inkscape:connector-curvature="0" d="M43.816 974.428c2.4-.237 4.268.944 4.635 2.657.102-1.212-.696-3.82-4.635-2.657z" style="display:inline;overflow:visible;fill:#6c4e30;fill-opacity:.97846327;fill-rule:evenodd;stroke:none;stroke-width:4.48256016px;stroke-linecap:butt;stroke-linejoin:miter;stroke-opacity:1"/><path sodipodi:nodetypes="scss" inkscape:connector-curvature="0" d="M36.768 980.84c0 1.071.878 2.079 2.025 2.19 2.316-.263 2.305-2.95.62-4.19-1.335-.983-2.645.791-2.645 2z" style="color:#000;display:inline;overflow:visible;visibility:visible;opacity:1;fill:url(#b);fill-opacity:1;fill-rule:nonzero;stroke:none;stroke-width:1;stroke-linecap:round;stroke-linejoin:round;stroke-miterlimit:4;stroke-dasharray:none;stroke-dashoffset:0;stroke-opacity:1;marker:none;enable-background:accumulate"/><ellipse ry="0.90317881" rx="0.84886146" cy="980.93781" cx="39.507133" style="color:#000;display:inline;overflow:visible;visibility:visible;opacity:1;fill:#3a3a3a;fill-opacity:1;fill-rule:nonzero;stroke:none;stroke-width:1;stroke-linecap:round;stroke-linejoin:round;stroke-miterlimit:4;stroke-dasharray:none;stroke-dashoffset:0;stroke-opacity:1;marker:none;enable-background:accumulate"/><path sodipodi:nodetypes="ssss" inkscape:connector-curvature="0" d="M45.639 979.973c0 1.105 1.047 2.2 2.246 2.135 2.137-.114 1.535-3.394.174-4.08-1.362-.687-2.42.736-2.42 1.945z" style="color:#000;display:inline;overflow:visible;visibility:visible;opacity:1;fill:url(#c);fill-opacity:1;fill-rule:nonzero;stroke:none;stroke-width:1;stroke-linecap:round;stroke-linejoin:round;stroke-miterlimit:4;stroke-dasharray:none;stroke-dashoffset:0;stroke-opacity:1;marker:none;enable-background:accumulate"/><ellipse cx="48.155346" cy="980.09302" rx="0.8273322" ry="0.90782917" style="color:#000;display:inline;overflow:visible;visibility:visible;opacity:1;fill:#3a3a3a;fill-opacity:1;fill-rule:nonzero;stroke:none;stroke-width:1;stroke-linecap:round;stroke-linejoin:round;stroke-miterlimit:4;stroke-dasharray:none;stroke-dashoffset:0;stroke-opacity:1;marker:none;enable-background:accumulate"/><ellipse ry="0.41891629" rx="0.4353216" cy="980.46466" cx="38.798969" style="color:#000;display:inline;overflow:visible;visibility:visible;opacity:1;fill:#fdfcfa;fill-opacity:1;fill-rule:nonzero;stroke:none;stroke-width:1;stroke-linecap:round;stroke-linejoin:round;stroke-miterlimit:4;stroke-dasharray:none;stroke-dashoffset:0;stroke-opacity:1;marker:none;enable-background:accumulate"/><ellipse ry="0.25034222" rx="0.27901918" cy="981.63464" cx="38.827702" style="color:#000;display:inline;overflow:visible;visibility:visible;opacity:1;fill:#fdfcfa;fill-opacity:1;fill-rule:nonzero;stroke:none;stroke-width:1;stroke-linecap:round;stroke-linejoin:round;stroke-miterlimit:4;stroke-dasharray:none;stroke-dashoffset:0;stroke-opacity:1;marker:none;enable-background:accumulate"/><ellipse ry="0.41891629" rx="0.4353216" cy="979.89197" cx="47.30061" style="color:#000;display:inline;overflow:visible;visibility:visible;opacity:1;fill:#fdfcfa;fill-opacity:1;fill-rule:nonzero;stroke:none;stroke-width:1;stroke-linecap:round;stroke-linejoin:round;stroke-miterlimit:4;stroke-dasharray:none;stroke-dashoffset:0;stroke-opacity:1;marker:none;enable-background:accumulate"/><ellipse ry="0.25034222" rx="0.27901918" cy="981.07507" cx="47.341518" style="color:#000;display:inline;overflow:visible;visibility:visible;opacity:1;fill:#fdfcfa;fill-opacity:1;fill-rule:nonzero;stroke:none;stroke-width:1;stroke-linecap:round;stroke-linejoin:round;stroke-miterlimit:4;stroke-dasharray:none;stroke-dashoffset:0;stroke-opacity:1;marker:none;enable-background:accumulate"/><g style="display:inline;overflow:visible"><g inkscape:label="ITEMS"><g inkscape:label="#BALLOON" style="display:inline"><path style="fill:#343b3d;fill-opacity:1;fill-rule:evenodd;stroke:none" d="M68.824 24.044c2.54 2.69 4.504 5.96 6.093 9.3 1.093 2.295 2.133 4.625 2.405 7.209.244 2.32.676 4.584.537 6.938-.184 3.105-.254 6.293-1.195 9.237-.858 2.686-2.137 5.273-3.687 7.62-1.154 1.747-2.419 3.384-4.119 4.684-2.074 1.585-4.092 3.189-6.357 4.498-2.539 1.469-5.079 3.188-7.917 3.829-3.647.823-7.488.767-11.214.524-2.043-.133-4.075-.365-5.967-1.294-2.25-1.106-4.605-1.922-6.66-3.414-1.597-1.16-3.113-2.324-4.435-3.798-1.682-1.874-3.342-3.73-4.658-5.885-.999-1.634-2.156-3.145-2.625-5.056-.675-2.745-1.85-5.367-1.985-8.221-.093-1.972-.747-3.927-.166-5.907 1.05-3.582 1.587-7.366 3.157-10.75 1.142-2.463 2.402-4.884 4.299-6.889 1.54-1.627 2.826-3.467 4.737-4.716 2.117-1.383 4-3.09 6.4-4.017 1.908-.736 3.721-1.596 5.77-1.938 2.048-.343 4.06-.636 6.13-.499 2.071.138 4.177-.136 6.15.743 3.076 1.372 6.571 1.806 9.516 3.409 2.13 1.158 4.123 2.626 5.791 4.393z" inkscape:connector-curvature="0" sodipodi:nodetypes="ssssssssssssssssssssssssss" transform="matrix(.52053 0 0 .51896 56.596 993.308)"/><path inkscape:connector-curvature="0" d="m65.183 26.215-2.478-2.93-3.247-1.594-4.677-2.689-3.483-.716-3.471-.427-2.061.235-.762 1.48 2 1.504 2.57 1.913 1.305 1.39 3.471.427 2.808 1.034 3.103 1.456 2.952 1.173 1.97-2.256z" style="fill:#f2f2f2;fill-opacity:1;fill-rule:evenodd;stroke:none" transform="matrix(.52053 0 0 .51896 56.596 993.308)"/><path inkscape:connector-curvature="0" sodipodi:nodetypes="cccccccccccccccc" d="M67.36 37.838 65.485 33l-2.76-3.062-3.522-1.582-4.494-1.684-2.375-.62-3.092 1.872-2.22 2.845 1.675 5.603 2.548 5.497 3.497 1.005 3.654 1.431 3.025-1.33 2.446-1.947 2.19-1.398 1.301-1.793z" style="fill:#f2f2f2;fill-opacity:1;fill-rule:evenodd;stroke:none" transform="matrix(.52053 0 0 .51896 56.596 993.308)"/><path inkscape:connector-curvature="0" sodipodi:nodetypes="cccccccccccccccc" d="m74.264 44.046-2.183-2.508-3.41-2.166-2.935 2.298-2.785 2.582-.893 1.63.148 3.321.318 4.037.38 2.298 2.654 1.724 2.592 1.333 2.362.372 1.984-1.968L73.7 53.04l.739-5.095-.175-3.899z" style="fill:#f2f2f2;fill-opacity:1;fill-rule:evenodd;stroke:none" transform="matrix(.52053 0 0 .51896 56.596 993.308)"/><path inkscape:connector-curvature="0" d="m68.456 62.384-.937-2.418-3.529-1.727-3.077-.878-3.412.873-3.532 1.312-2.698 1.42-1.518 3.104-1.749 4.127-.855 2.497 3.116 1.745 3.227 1.16 3.82-1.035 2.836-1.426 2.954-1.865 3.048-2.882 2.306-4.007z" style="fill:#f2f2f2;fill-opacity:1;fill-rule:evenodd;stroke:none" transform="matrix(.52053 0 0 .51896 56.596 993.308)"/><path inkscape:connector-curvature="0" sodipodi:nodetypes="ccccccccccccccccc" d="m49.113 43.555-2.563 4.452-2.102 2.407-3.865.024-4.49-.527-3.147-1.457-2.222-2.359-1.382-3.122.042-2.132 1.45-2.56 2.188-3.567 2.456-2.678 2.462-.579 4.56.09 1.818.5 2.569 4.95 2.226 6.558z" style="fill:#f2f2f2;fill-opacity:1;fill-rule:evenodd;stroke:none" transform="matrix(.52053 0 0 .51896 56.596 993.308)"/><path inkscape:connector-curvature="0" sodipodi:nodetypes="ccccccccc" d="m42.698 19.423-2.498.795-3.814 1.18-2.534 1.992-3.288.577 4.812-3.538 4.208-1.63 3.275-.867-.161 1.49z" style="fill:#f2f2f2;fill-opacity:1;fill-rule:evenodd;stroke:none" transform="matrix(.52053 0 0 .51896 56.596 993.308)"/><path inkscape:connector-curvature="0" sodipodi:nodetypes="ccccccccccccc" d="m32.105 25.495 2.043 4.536-2.838 4.465-2.595 3.73-.743 1.913-3.774 2.046-2.664-.896-.738-4.163 2.011-4.428 2.332-3.43 2.483-3.147 1.99-.843 2.493.217z" style="fill:#f2f2f2;fill-opacity:1;fill-rule:evenodd;stroke:none" transform="matrix(.52053 0 0 .51896 56.596 993.308)"/><path inkscape:connector-curvature="0" d="m20.05 42.077-1.02 4.964 1.287 7.177.956-6.408-1.223-5.733z" style="fill:#f2f2f2;fill-opacity:1;fill-rule:evenodd;stroke:none" transform="matrix(.52053 0 0 .51896 56.596 993.308)"/><path inkscape:connector-curvature="0" d="M35.522 70.045 36 71.471l-1.917.373-6.578-5.065-3.972-5.468-1.84-4.115.604-1.907 5.543 3.519s1.651 2.966 2.385 3.946c.734.98 5.422 6.997 5.297 7.291z" style="fill:#f2f2f2;fill-opacity:1;fill-rule:evenodd;stroke:none" transform="matrix(.52053 0 0 .51896 56.596 993.308)"/><path inkscape:connector-curvature="0" sodipodi:nodetypes="cccccccccccc" d="M50.123 60.003 47.45 55.78l-2.49-3.219-5.978-.896-5.84-.901-2.92 5.762.928 3.257 2.08 4.242 3.324 4.384 5.157 1.076 3.859-.168 4.554-9.314z" style="fill:#f2f2f2;fill-opacity:1;fill-rule:evenodd;stroke:none" transform="matrix(.52053 0 0 .51896 56.596 993.308)"/></g></g></g></g></svg>