<!--Created with Inkscape (http://www.inkscape.org/)--><svg xmlns:dc="http://purl.org/dc/elements/1.1/" xmlns:cc="http://creativecommons.org/ns#" xmlns:rdf="http://www.w3.org/1999/02/22-rdf-syntax-ns#" xmlns="http://www.w3.org/2000/svg" xmlns:xlink="http://www.w3.org/1999/xlink" xmlns:sodipodi="http://sodipodi.sourceforge.net/DTD/sodipodi-0.dtd" xmlns:inkscape="http://www.inkscape.org/namespaces/inkscape" width="103.16541mm" height="14.657602mm" viewBox="0 0 365.54674 51.936386" inkscape:version="0.91 r13725" sodipodi:docname="grille.svg"><defs><linearGradient inkscape:collect="always" xlink:href="#a" id="b" gradientUnits="userSpaceOnUse" x1="140.05528" y1="435.89456" x2="140.21999" y2="450.83289"/><linearGradient id="a"><stop offset="0" style="stop-color:#000;stop-opacity:1"/><stop offset="1" style="stop-color:#fff;stop-opacity:1"/></linearGradient><linearGradient inkscape:collect="always" xlink:href="#a" id="c" gradientUnits="userSpaceOnUse" gradientTransform="translate(-3.475 -36.14)" spreadMethod="reflect" x1="141.8038" y1="441.27612" x2="141.8038" y2="442.18454"/><radialGradient inkscape:collect="always" xlink:href="#a" id="d" gradientUnits="userSpaceOnUse" gradientTransform="matrix(2.66148 .00014 -.00008 1.5895 -238.35 -297.125)" cx="141.61014" cy="441.87601" fx="141.61014" fy="441.87601" r="5.3211083"/></defs><sodipodi:namedview pagecolor="#ffffff" bordercolor="#666666" borderopacity="1.0" inkscape:pageopacity="0.0" inkscape:pageshadow="2" inkscape:zoom="3.959798" inkscape:cx="158.7074" inkscape:cy="-51.789709" inkscape:document-units="px" inkscape:current-layer="g6266" showgrid="false" fit-margin-top="0" fit-margin-left="0" fit-margin-right="0" fit-margin-bottom="0" inkscape:window-width="3200" inkscape:window-height="1679" inkscape:window-x="0" inkscape:window-y="0" inkscape:window-maximized="1"/><metadata><rdf:RDF><cc:Work><dc:format>image/svg+xml</dc:format><dc:type rdf:resource="http://purl.org/dc/dcmitype/StillImage"/><dc:title/></cc:Work></rdf:RDF></metadata><g transform="matrix(3.67378 0 0 3.9187 -325.416 -1561.567)" inkscape:label="Calque 1" inkscape:groupmode="layer"><ellipse ry="4.9700518" rx="49.700516" cy="437.61313" cx="141.81213" transform="matrix(1 0 0 1.33333 -3.475 -178.366)" style="opacity:1;fill:url(#b);fill-opacity:1;stroke:none;stroke-width:1;stroke-linejoin:round;stroke-miterlimit:4;stroke-dasharray:none;stroke-opacity:1"/><rect rx="2.7337642" ry="0.91897601" y="404.22766" x="88.577965" height="1.816835" width="99.501648" style="opacity:1;fill:url(#c);fill-opacity:1;stroke:none;stroke-width:1;stroke-linejoin:round;stroke-miterlimit:4;stroke-dasharray:none;stroke-opacity:1"/><ellipse ry="6.0975919" rx="12.195184" cy="405.25943" cx="138.50415" style="opacity:1;fill:url(#d);fill-opacity:1;stroke:none;stroke-width:1;stroke-linejoin:round;stroke-miterlimit:4;stroke-dasharray:none;stroke-opacity:1"/><ellipse ry="4.7207193" rx="9.4414387" cy="405.25943" cx="138.50415" style="opacity:1;fill:#ffdb00;fill-opacity:1;stroke:none;stroke-width:1;stroke-linejoin:round;stroke-miterlimit:4;stroke-dasharray:none;stroke-opacity:1"/><path inkscape:connector-curvature="0" d="M126.971 451.732h.46v1.539c-.542.133-1.13.23-1.672.04a1.45 1.45 0 0 1-.883-1.116c-.103-.51-.053-1.074.226-1.523.26-.406.722-.675 1.206-.686.346-.023.695.043 1.016.172.124.113.032.341-.107.397-.167-.039-.326-.144-.506-.148-.379-.066-.816.01-1.074.317-.31.36-.359.87-.294 1.324.051.35.235.705.567.86.304.149.657.126.98.07.161-.087.048-.303.08-.447-.004-.266.003-.533.001-.8z" transform="matrix(2.5544 0 0 2.05629 -184.598 -523.8)" style="font-style:normal;font-variant:normal;font-weight:400;font-stretch:normal;font-size:4.75013113px;line-height:-200%;font-family:Ubuntu;-inkscape-font-specification:Ubuntu;text-align:start;writing-mode:lr-tb;text-anchor:start;fill:#000;fill-opacity:1;stroke:none;stroke-width:1px;stroke-linecap:butt;stroke-linejoin:miter;stroke-opacity:1"/></g></svg>