<svg xmlns:dc="http://purl.org/dc/elements/1.1/" xmlns:cc="http://creativecommons.org/ns#" xmlns:rdf="http://www.w3.org/1999/02/22-rdf-syntax-ns#" xmlns="http://www.w3.org/2000/svg" width="103.16541mm" height="14.657602mm" viewBox="0 0 365.54674 51.936386" version="1.1" id="svg28"><metadata id="metadata14"><rdf:RDF><cc:Work><dc:format>image/svg+xml</dc:format><dc:type rdf:resource="http://purl.org/dc/dcmitype/StillImage"/><dc:title/><dc:date>2023</dc:date><dc:creator><cc:Agent><dc:title>Timothée Giet</dc:title></cc:Agent></dc:creator><cc:license rdf:resource="http://creativecommons.org/licenses/by-sa/4.0/"/></cc:Work><cc:License rdf:about="http://creativecommons.org/licenses/by-sa/4.0/"><cc:permits rdf:resource="http://creativecommons.org/ns#Reproduction"/><cc:permits rdf:resource="http://creativecommons.org/ns#Distribution"/><cc:requires rdf:resource="http://creativecommons.org/ns#Notice"/><cc:requires rdf:resource="http://creativecommons.org/ns#Attribution"/><cc:permits rdf:resource="http://creativecommons.org/ns#DerivativeWorks"/><cc:requires rdf:resource="http://creativecommons.org/ns#ShareAlike"/></cc:License></rdf:RDF></metadata><g transform="matrix(3.67378 0 0 3.9187 -325.416 -1561.567)" id="g26"><ellipse ry="6.626719" rx="49.700516" cy="405.1167" cx="138.33713" style="fill:#4f4f4f;fill-opacity:1;stroke:none;stroke-width:1.1547;stroke-linejoin:round;stroke-miterlimit:4;stroke-dasharray:none;stroke-opacity:1" id="ellipse16-3"/><ellipse ry="5.8262949" rx="47.35807" cy="404.92896" cx="138.33713" style="opacity:1;fill:gray;fill-opacity:1;stroke:none;stroke-width:1.1547;stroke-linejoin:round;stroke-miterlimit:4;stroke-dasharray:none;stroke-opacity:1" id="ellipse16"/><ellipse ry="5.4420981" rx="10.907213" cy="405.07816" cx="138.32874" style="opacity:1;fill:#d6d6d6;fill-opacity:1;stroke:#8b8b8b;stroke-width:.494167;stroke-linejoin:round;stroke-miterlimit:4;stroke-dasharray:none;stroke-opacity:1" id="ellipse20"/><ellipse ry="4.2132401" rx="8.4442997" cy="405.07816" cx="138.32874" style="opacity:1;fill:#d28b18;fill-opacity:1;stroke:#765219;stroke-width:.74125;stroke-linejoin:round;stroke-miterlimit:4;stroke-dasharray:none;stroke-opacity:1" id="ellipse22"/><path d="M139.796 404.929h1.051v2.824c-1.238.244-2.581.422-3.82.074a3.313 2.661 0 0 1-2.017-2.048c-.235-.936-.121-1.972.516-2.796.594-.745 1.65-1.238 2.756-1.259a6.491 6.491 0 0 1 2.32.316c.284.208.074.626-.244.729-.381-.072-.744-.265-1.156-.272-.865-.121-1.864.019-2.453.582-.709.66-.82 1.597-.672 2.43.117.642.537 1.294 1.295 1.578.695.274 1.501.231 2.24.129.367-.16.109-.557.182-.82-.009-.489.007-.979.003-1.469z" style="font-style:normal;font-variant:normal;font-weight:400;font-stretch:normal;font-size:4.75013px;line-height:-200%;font-family:Ubuntu;-inkscape-font-specification:Ubuntu;text-align:start;writing-mode:lr-tb;text-anchor:start;fill:#2f2f2f;fill-opacity:1;stroke:none;stroke-width:2.29185px;stroke-linecap:butt;stroke-linejoin:miter;stroke-opacity:1" id="path24"/></g></svg>