<!--Created with Inkscape (http://www.inkscape.org/)--><svg xmlns:dc="http://purl.org/dc/elements/1.1/" xmlns:cc="http://creativecommons.org/ns#" xmlns:rdf="http://www.w3.org/1999/02/22-rdf-syntax-ns#" xmlns="http://www.w3.org/2000/svg" xmlns:sodipodi="http://sodipodi.sourceforge.net/DTD/sodipodi-0.dtd" xmlns:inkscape="http://www.inkscape.org/namespaces/inkscape" width="100" height="100" sodipodi:version="0.32" inkscape:version="0.92.1 r15371" version="1.0" sodipodi:docname="submarine.svg"><sodipodi:namedview pagecolor="#cdcdcd" bordercolor="#666666" borderopacity="1.0" inkscape:pageopacity="0" inkscape:pageshadow="2" inkscape:zoom="4.7787658" inkscape:cx="13.281704" inkscape:cy="80.770943" inkscape:document-units="px" inkscape:current-layer="layer1" height="100px" width="100px" inkscape:window-width="1884" inkscape:window-height="1051" inkscape:window-x="0" inkscape:window-y="0" showguides="true" inkscape:guide-bbox="true" showgrid="false" inkscape:snap-global="false" inkscape:window-maximized="1"/><metadata><rdf:RDF><cc:Work><dc:format>image/svg+xml</dc:format><dc:type rdf:resource="http://purl.org/dc/dcmitype/StillImage"/><dc:title/><dc:date>2017</dc:date><dc:creator><cc:Agent><dc:title>Timothée Giet</dc:title></cc:Agent></dc:creator><cc:license rdf:resource="http://creativecommons.org/licenses/by-sa/4.0/"/></cc:Work><cc:License rdf:about="http://creativecommons.org/licenses/by-sa/4.0/"><cc:permits rdf:resource="http://creativecommons.org/ns#Reproduction"/><cc:permits rdf:resource="http://creativecommons.org/ns#Distribution"/><cc:requires rdf:resource="http://creativecommons.org/ns#Notice"/><cc:requires rdf:resource="http://creativecommons.org/ns#Attribution"/><cc:permits rdf:resource="http://creativecommons.org/ns#DerivativeWorks"/><cc:requires rdf:resource="http://creativecommons.org/ns#ShareAlike"/></cc:License></rdf:RDF></metadata><g inkscape:label="Calque 1" inkscape:groupmode="layer"><g transform="scale(1.15308) rotate(15 -142.754 65.366)" inkscape:label="Calque 2"><path sodipodi:nodetypes="cccc" inkscape:connector-curvature="0" d="M10.583 2.892c2.646 0 6.409.81 7.938 3.968l-7.938 1.323c2.282-1.378 1.323-3.968 0-5.291z" style="fill:#376186;fill-opacity:1;stroke:none;stroke-width:.26458332px;stroke-linecap:butt;stroke-linejoin:miter;stroke-opacity:1"/><path sodipodi:nodetypes="cccc" inkscape:connector-curvature="0" d="M10.583 21.413c2.646 0 6.409-.811 7.938-3.97l-7.938-1.322c2.16 1.316 1.323 3.969 0 5.292z" style="fill:#376186;fill-opacity:1;stroke:none;stroke-width:.26458332px;stroke-linecap:butt;stroke-linejoin:miter;stroke-opacity:1"/><rect ry="0.66145831" y="-11.6604" x="50.270832" height="10.583333" width="1.3229166" style="opacity:1;fill:#3d688d;fill-opacity:1;stroke:none;stroke-width:.26458332;stroke-linejoin:miter;stroke-miterlimit:4;stroke-dasharray:none;stroke-opacity:1"/><rect ry="0.66145831" y="-9.0145674" x="54.239582" height="9.260417" width="1.3229166" style="opacity:1;fill:#3d688d;fill-opacity:1;stroke:none;stroke-width:.26458332;stroke-linejoin:miter;stroke-miterlimit:4;stroke-dasharray:none;stroke-opacity:1"/><rect ry="0.66145831" y="-7.6916509" x="52.387497" height="9.260417" width="1.3229166" style="opacity:1;fill:#386c9a;fill-opacity:1;stroke:none;stroke-width:.26458332;stroke-linejoin:miter;stroke-miterlimit:4;stroke-dasharray:none;stroke-opacity:1"/><path sodipodi:nodetypes="ccccc" inkscape:connector-curvature="0" d="M59.531 5.538v-8.203c-2.969-2.46-14.421-1.51-14.552 0-1.315 3.916-3.484 5.979-6.614 8.203z" style="fill:#386c9a;fill-opacity:1;stroke:none;stroke-width:.26458332px;stroke-linecap:butt;stroke-linejoin:miter;stroke-opacity:1"/><path sodipodi:nodetypes="ccccc" inkscape:connector-curvature="0" d="M58.643 5.538v-7.673c-2.68-1.985-13.016-1.218-13.134 0-1.188 3.158-2.6 5.88-5.425 7.673z" style="fill:#89b5de;fill-opacity:1;stroke:none;stroke-width:.22573189px;stroke-linecap:butt;stroke-linejoin:miter;stroke-opacity:1"/><path sodipodi:nodetypes="cccsccsc" inkscape:connector-curvature="0" transform="matrix(.26458 0 0 .26458 0 -12.719)" d="M250 64a67.344 67.344 0 0 0-3.451.096L55.633 69C50 69 10.714 84 10.357 94 10 104 50 119 55.633 119c.834-.004 194.367 5 194.367 5 24.853 0 45-13.431 45-30 0-16.569-20.147-30-45-30z" style="opacity:1;fill:#386c9a;fill-opacity:1;stroke:none;stroke-width:.99999994;stroke-linejoin:miter;stroke-miterlimit:4;stroke-dasharray:none;stroke-opacity:1"/><path sodipodi:nodetypes="cccsccsc" inkscape:connector-curvature="0" d="M65.608 5.065c-.295 0-.59.008-.885.023l-48.996 1.2c-1.445 0-11.527 3.666-11.619 6.11-.092 2.445 10.174 4.939 11.62 4.939.213-.001 49.88 1.222 49.88 1.222 6.378 0 11.549-2.11 11.549-6.16 0-4.05-5.17-7.334-11.549-7.334z" style="opacity:1;fill:#89b5de;fill-opacity:1;stroke:none;stroke-width:.25046882;stroke-linejoin:miter;stroke-miterlimit:4;stroke-dasharray:none;stroke-opacity:1"/><path sodipodi:nodetypes="ccccc" inkscape:connector-curvature="0" d="M0 4.215h6.615V20.09H0z" style="fill:#386c9a;fill-opacity:1;stroke:none;stroke-width:.40989071px;stroke-linecap:butt;stroke-linejoin:miter;stroke-opacity:1"/><path sodipodi:nodetypes="ccccc" inkscape:connector-curvature="0" d="M1.04 4.782h4.535V18.2H1.04z" style="fill:#89b5de;fill-opacity:1;stroke:none;stroke-width:.30027375px;stroke-linecap:butt;stroke-linejoin:miter;stroke-opacity:1"/></g><circle style="opacity:1;fill:#fff;fill-opacity:.50316453;stroke:none;stroke-width:1.9993701;stroke-linecap:butt;stroke-linejoin:round;stroke-miterlimit:4;stroke-dasharray:none;stroke-opacity:1" cx="11.09073" cy="52.28894" r="4.3944402"/><circle style="opacity:1;fill:#fff;fill-opacity:.44620255;stroke:none;stroke-width:1.42812157;stroke-linecap:butt;stroke-linejoin:round;stroke-miterlimit:4;stroke-dasharray:none;stroke-opacity:1" cx="8.1611032" cy="42.872284" r="3.138886"/><circle style="opacity:1;fill:#fff;fill-opacity:.30379745;stroke:none;stroke-width:.95208108;stroke-linecap:butt;stroke-linejoin:round;stroke-miterlimit:4;stroke-dasharray:none;stroke-opacity:1" cx="11.09073" cy="36.594513" r="2.0925908"/></g></svg>