<?xml version="1.0" encoding="UTF-8" standalone="no"?>
<!-- Created with Inkscape (http://www.inkscape.org/) -->

<svg
   xmlns:dc="http://purl.org/dc/elements/1.1/"
   xmlns:cc="http://creativecommons.org/ns#"
   xmlns:rdf="http://www.w3.org/1999/02/22-rdf-syntax-ns#"
   xmlns:svg="http://www.w3.org/2000/svg"
   xmlns="http://www.w3.org/2000/svg"
   xmlns:sodipodi="http://sodipodi.sourceforge.net/DTD/sodipodi-0.dtd"
   xmlns:inkscape="http://www.inkscape.org/namespaces/inkscape"
   width="100"
   height="100"
   id="svg11539"
   sodipodi:version="0.32"
   inkscape:version="0.91 r13725"
   version="1.0"
   sodipodi:docname="maze.svg">
  <defs
     id="defs11541" />
  <sodipodi:namedview
     id="base"
     pagecolor="#ffffff"
     bordercolor="#666666"
     borderopacity="1.0"
     inkscape:pageopacity="0.0"
     inkscape:pageshadow="2"
     inkscape:zoom="2.4336259"
     inkscape:cx="42.192442"
     inkscape:cy="42.822063"
     inkscape:document-units="px"
     inkscape:current-layer="layer1"
     height="100px"
     width="100px"
     inkscape:window-width="1880"
     inkscape:window-height="1060"
     inkscape:window-x="-3"
     inkscape:window-y="-3"
     showgrid="false"
     inkscape:window-maximized="1" />
  <metadata
     id="metadata11544">
    <rdf:RDF>
      <cc:Work
         rdf:about="">
        <dc:format>image/svg+xml</dc:format>
        <dc:type
           rdf:resource="http://purl.org/dc/dcmitype/StillImage" />
      </cc:Work>
    </rdf:RDF>
  </metadata>
  <g
     inkscape:label="Calque 1"
     inkscape:groupmode="layer"
     id="layer1">
    <rect
       style="opacity:1;fill:#e3dedb;fill-opacity:1;fill-rule:evenodd;stroke:none;stroke-width:2;stroke-linecap:butt;stroke-linejoin:bevel;stroke-miterlimit:4;stroke-dasharray:none;stroke-dashoffset:0;stroke-opacity:1"
       id="rect12366"
       width="70.903809"
       height="68.383514"
       x="14.691938"
       y="25.686052" />
    <path
       style="fill:#b38b56;fill-opacity:1;fill-rule:evenodd;stroke:none;stroke-width:1px;stroke-linecap:butt;stroke-linejoin:miter;stroke-opacity:1"
       d="m 19.445229,24.237198 -3.532499,0.340482 -3.341554,0.885253 -0.238682,2.406072 3.723446,-0.136192 0,0.0454 4.296282,-0.0681 6.51603,0.0454 3.79505,0 -0.0716,4.789446 0.238683,4.335469 -0.214815,4.471663 -0.0716,0 0.190946,1.974795 -0.07161,1.566218 0.07161,0 0,0.0681 1.76625,-0.249687 1.599172,-0.0681 0.02387,-0.885253 0.262551,-0.0454 -0.190946,-1.770506 0,-0.158892 -0.02387,0 -0.334156,-3.041638 0.358024,-6.174073 -0.859257,-8.148868 -5.227145,0.272386 -8.664171,-0.453976 z m -3.508631,16.910603 -1.76625,0.249686 -1.599172,0.0681 -0.02387,0.885253 -0.26255,0.0454 0.190946,1.770506 0,0.158891 0.02387,0 0.334155,3.041639 -0.358024,6.174072 0.859257,8.148868 5.227144,-0.272385 8.664172,0.453975 3.532499,-0.340482 3.341554,-0.885252 0.238682,-2.406073 -3.723446,0.136193 0,-0.0454 -4.296283,0.0681 -6.516029,-0.0454 -3.79505,0 0.0716,-4.789446 -0.238682,-4.335471 0.214814,-4.471662 0.04774,0 -0.190946,-2.791953 0.0716,-0.749059 -0.04774,0 0,-0.0681 z"
       id="path10698"
       inkscape:connector-curvature="0" />
    <path
       style="fill:#b38b56;fill-opacity:1;fill-rule:evenodd;stroke:none;stroke-width:1px;stroke-linecap:butt;stroke-linejoin:miter;stroke-opacity:1"
       d="m 38.852674,24.360439 -3.532499,0.415659 -3.341554,1.013168 -0.262551,3.299291 3.460895,-0.545551 0,-0.103915 0.739915,0 0.262551,-0.05196 6.945658,-0.389681 9.953056,0.311745 -0.334154,-3.74093 -5.227145,0.311744 -8.664172,-0.519573 z"
       id="path10811"
       inkscape:connector-curvature="0" />
    <path
       style="fill:#b38b56;fill-opacity:1;fill-rule:evenodd;stroke:none;stroke-width:1px;stroke-linecap:butt;stroke-linejoin:miter;stroke-opacity:1"
       d="m 21.211479,58.87556 -5.82385,0.363181 -2.935794,0.612868 0.54897,4.971036 -0.358024,6.174073 0.596706,5.652 -0.167078,0.0454 0.54897,4.971037 -0.358024,6.174072 0.859257,8.148868 5.227144,-0.272386 8.664172,0.453981 3.532499,-0.340486 1.408226,-0.363182 0.190946,0.817158 5.227145,-0.522073 6.492161,0.340483 5.943192,-0.567471 0.04774,0.158892 5.227145,-0.522073 6.492161,0.340482 8.568698,-0.817157 -0.286418,-4.971036 0.477365,-8.239663 -0.358024,-3.359421 -0.930862,-3.177832 -2.530033,-0.226988 0.143209,3.541013 -0.04774,0 0.0716,4.085782 -0.04774,6.196772 0,3.609109 -5.036199,-0.0681 -1.646909,0.09079 -0.143209,0.658266 -5.227144,-0.544772 -5.656773,0.317783 0,0.136193 -5.036199,-0.0681 -4.558835,0.226988 -2.959661,-0.136192 -2.076538,0.136192 -3.532499,-0.249686 -0.358023,0.0227 0,-0.0454 -0.04774,0 -4.248547,0.0681 -6.51603,-0.0454 -3.795049,0 0.0716,-4.789446 -0.09547,-1.566217 -0.692179,-0.136193 0.572838,-4.971036 -0.334156,-5.379615 -0.143209,0 0.0716,-4.789446 -0.238682,-4.335469 0.214814,-4.471664 5.5613,-0.295084 4.773647,0.38588 4.344021,0.0454 0,0.0681 1.766249,-0.249687 1.599172,-0.0681 0.09547,-2.860049 -6.563766,0.0908 -6.587634,-0.453977 z"
       id="path11595"
       inkscape:connector-curvature="0" />
    <path
       style="fill:#b38b56;fill-opacity:1;fill-rule:evenodd;stroke:none;stroke-width:1px;stroke-linecap:butt;stroke-linejoin:miter;stroke-opacity:1"
       d="m 54.209579,65.277954 -0.437073,-3.359421 -1.065367,-3.177832 -3.469272,-0.249687 0.573659,3.291326 0.109268,0 0,0.703663 0.05464,0.249687 0.409756,6.605349 -0.327804,9.465398 3.933661,-0.317783 -0.327805,-4.971036 0.546342,-8.239664 z"
       id="path11611"
       inkscape:connector-curvature="0" />
    <path
       style="fill:#b38b56;fill-opacity:1;fill-rule:evenodd;stroke:none;stroke-width:1px;stroke-linecap:butt;stroke-linejoin:miter;stroke-opacity:1"
       d="m 58.065439,24.200561 -3.5325,0.415659 -3.341554,1.013168 -0.26255,3.299291 3.460895,-0.545552 0,-0.103914 0.739915,0 0.262551,-0.05196 6.945658,-0.38968 9.953056,0.311744 -0.334155,-3.740929 -5.227145,0.311744 -8.664171,-0.519573 z"
       id="path11613"
       inkscape:connector-curvature="0" />
    <path
       style="fill:#b38b56;fill-opacity:1;fill-rule:evenodd;stroke:none;stroke-width:1px;stroke-linecap:butt;stroke-linejoin:miter;stroke-opacity:1"
       d="m 74.071584,24.200561 -3.5325,0.415659 -3.341554,1.013168 -0.26255,3.299291 3.460895,-0.545552 0,-0.103914 0.739916,0 0.26255,-0.05196 6.945658,-0.38968 9.953057,0.311744 -0.334156,-3.740929 -5.227145,0.311744 -8.664171,-0.519573 z"
       id="path11615"
       inkscape:connector-curvature="0" />
    <path
       style="fill:#b38b56;fill-opacity:1;fill-rule:evenodd;stroke:none;stroke-width:1px;stroke-linecap:butt;stroke-linejoin:miter;stroke-opacity:1"
       d="m 79.566096,95.802145 5.82385,-0.363181 2.935793,-0.612867 -0.54897,-4.971036 0.358024,-6.174073 -0.596706,-5.652 0.167077,-0.0454 -0.548968,-4.971036 0.358024,-6.174072 -0.859257,-8.148865 -5.227145,0.272386 -8.664171,-0.453975 -3.5325,0.340482 -3.341553,0.885252 -0.238683,2.406073 3.723446,-0.136193 0,0.0454 4.296283,-0.0681 6.51603,0.0454 3.79505,0 -0.07161,4.789443 0.09547,1.566215 0.692179,0.136193 -0.572839,4.971036 0.334156,5.379615 0.143209,0 -0.0716,4.789446 0.238683,4.33547 -0.214815,4.471663 -5.5613,0.295084 -4.773648,-0.385879 -4.34402,-0.0454 0,-0.0681 -1.766249,0.249686 -1.599173,0.0681 -0.09547,2.860049 6.563766,-0.09079 6.587635,0.453976 z"
       id="path11619"
       inkscape:connector-curvature="0" />
    <path
       style="fill:#b38b56;fill-opacity:1;fill-rule:evenodd;stroke:none;stroke-width:1px;stroke-linecap:butt;stroke-linejoin:miter;stroke-opacity:1"
       d="m 72.313187,24.461573 -3.5325,0.340482 -3.341553,0.885253 -0.238682,2.406073 3.723446,-0.136193 0,0.0454 4.296282,-0.0681 6.51603,0.0454 3.79505,0 -0.0716,4.789445 0.238683,4.33547 -0.214814,4.471663 -0.07161,0 0.190947,1.974795 -0.07161,1.566217 0.07161,0 0,0.0681 1.766249,-0.249686 1.599172,-0.0681 0.02387,-0.885253 0.262551,-0.0454 -0.190946,-1.770505 0,-0.158893 -0.02387,0 -0.334156,-3.041638 0.358024,-6.174072 -0.859257,-8.148868 -5.227145,0.272386 -8.664171,-0.453976 z m -3.508631,16.910603 -1.76625,0.249687 -1.599172,0.0681 -0.02387,0.885252 -0.262551,0.0454 0.190946,1.770507 0,0.158891 0.02387,0 0.334156,3.041639 -0.358024,6.174073 0.859257,8.148867 5.227145,-0.272385 8.664171,0.453976 3.5325,-0.340482 3.341553,-0.885253 0.238682,-2.406073 -3.723445,0.136193 0,-0.0454 -4.296283,0.0681 -6.51603,-0.0454 -3.79505,0 0.0716,-4.789445 -0.238683,-4.33547 0.214815,-4.471664 0.04774,0 -0.190947,-2.791952 0.07161,-0.749059 -0.04774,0 0,-0.0681 z"
       id="path11621"
       inkscape:connector-curvature="0" />
    <path
       style="fill:#b38b56;fill-opacity:1;fill-rule:evenodd;stroke:none;stroke-width:1px;stroke-linecap:butt;stroke-linejoin:miter;stroke-opacity:1"
       d="m 53.895733,49.160637 -0.437073,-3.359422 -1.065366,-3.177831 -3.469272,-0.249686 0.573659,3.291325 0.109268,0 0,0.703662 0.05464,0.249687 0.409756,6.60535 -0.327805,9.465397 3.933661,-0.317782 -0.327805,-4.971037 0.546342,-8.239663 z"
       id="path11623"
       inkscape:connector-curvature="0" />
    <path
       style="fill:#b38b56;fill-opacity:1;fill-rule:evenodd;stroke:none;stroke-width:1px;stroke-linecap:butt;stroke-linejoin:miter;stroke-opacity:1"
       d="m 53.581887,35.132602 -0.437075,-3.359421 -1.065365,-3.597878 -3.469273,-0.249687 0.573659,3.711372 0.109269,0 0,0.703662 0.05464,0.249687 0.409756,6.605349 -0.327805,9.465398 3.933662,-0.317783 -0.327805,-4.971036 z"
       id="path11625"
       inkscape:connector-curvature="0"
       sodipodi:nodetypes="ccccccccccccc" />
    <path
       style="fill:#b38b56;fill-opacity:1;fill-rule:evenodd;stroke:none;stroke-width:1px;stroke-linecap:butt;stroke-linejoin:miter;stroke-opacity:1"
       d="m 45.695855,79.519147 3.532499,-0.415658 3.341554,-1.013169 0.262551,-3.299292 -3.460895,0.545552 0,0.103915 -0.739916,0 -0.26255,0.05196 -6.945658,0.38968 -9.953057,-0.311744 0.334155,3.740929 5.227145,-0.311744 8.664172,0.519573 z"
       id="path11629"
       inkscape:connector-curvature="0" />
    <g
       id="g22156"
       transform="matrix(0.25886021,-0.23597359,0.25896816,0.23587546,11.41168,40.306953)">
      <path
         id="path21267"
         d="M 20.980236,5.9570105 9.9380067,-2.3246617 4.4168919,-5.0852191 l 4.0488175,-5.7051519 7.7295606,-4.232855 8.46571,9.017821 4.600929,4.2328548 8.281672,-6.6253378 2.024409,2.2084459 0.552111,3.4967061 -2.392483,16.011233 -18.403716,1.472297 -4.048818,-2.57652 1.288261,-2.7605574 4.416891,-3.4967061 z"
         style="fill:#f32929;fill-opacity:1;fill-rule:evenodd;stroke:#000000;stroke-width:1px;stroke-linecap:butt;stroke-linejoin:miter;stroke-opacity:1"
         inkscape:connector-curvature="0" />
      <path
         sodipodi:nodetypes="ccccccccccscccccccccccccccc"
         id="path20377"
         d="M 17.486149,-17.96875 7.734375,-12.357686 -0.54510135,-4.90625 9.5782095,0.06942568 17.125,5.78125 11.40625,11.46875 16.75,17 39.1875,15.34375 42.875,-6 38.65625,-11.15625 c 0,0 -7.177028,6.2396113 -8.833361,6.2396115 -1.656335,0 -12.336739,-13.0521115 -12.33674,-13.0521115 z m -1.298649,5.875 8.843666,10.3195101 4.607685,2.40278719 6.423649,-5.72229729 1.84375,-0.71875 0.9375,2.75 L 38.083361,0.26047297 35.902703,11.670186 26.5,12.78125 19.125,13.125 17.65625,12.03125 23.9375,7.8125 22.09375,2.84375 7.53125,-5.8125 16.1875,-12.09375 Z"
         style="fill:#9a0e0e;fill-opacity:1;fill-rule:evenodd;stroke:none;stroke-width:1px;stroke-linecap:butt;stroke-linejoin:miter;stroke-opacity:1"
         inkscape:connector-curvature="0" />
    </g>
    <path
       style="fill:#37c837;fill-opacity:1;fill-rule:evenodd;stroke:#000000;stroke-width:0.34952599px;stroke-linecap:butt;stroke-linejoin:miter;stroke-opacity:1"
       d="m 82.856009,54.36729 -5.003083,0.652232 -2.144094,0.651689 -0.429375,-2.301119 0.904701,-2.822399 4.526764,0.129399 2.287172,-0.08727 0.428044,-3.51701 1.095956,0.04321 1.048455,0.694503 3.527081,4.341221 -4.382711,4.690069 -1.715315,0.347677 -0.381417,-0.955144 0.237822,-1.867057 z"
       id="path12360"
       inkscape:connector-curvature="0" />
    <path
       style="fill:#3a9a0e;fill-opacity:1;fill-rule:evenodd;stroke:none;stroke-width:1px;stroke-linecap:butt;stroke-linejoin:miter;stroke-opacity:1"
       d="m 75.755518,49.548303 -1.071259,3.624673 -0.213542,3.711349 3.909064,-1.215194 3.432744,-0.433565 -0.0075,2.691016 2.815702,0.0437 5.37926,-5.685326 -4.572805,-5.904619 -2.427371,-0.22072 c 0,0 -0.241987,3.165361 -0.670745,3.556212 -0.428759,0.390851 -6.573573,-0.167529 -6.573573,-0.167528 z m 1.18527,1.692215 4.961697,0.347247 1.814992,-0.520534 0.180935,-2.86556 0.29114,-0.604612 0.954844,0.427432 0.66371,0.96324 2.390266,3.205849 -2.146255,2.480862 -1.820074,1.821388 -0.663448,0.0886 0.533444,-2.477308 -1.764021,-0.736931 -6.011345,1.394569 0.614115,-3.524239 z"
       id="path12362"
       sodipodi:nodetypes="ccccccccccscccccccccccccccc"
       inkscape:connector-curvature="0" />
  </g>
</svg>
