<?xml version="1.0" encoding="UTF-8" standalone="no"?>
<!-- Created with Inkscape (http://www.inkscape.org/) -->

<svg
   xmlns:dc="http://purl.org/dc/elements/1.1/"
   xmlns:cc="http://creativecommons.org/ns#"
   xmlns:rdf="http://www.w3.org/1999/02/22-rdf-syntax-ns#"
   xmlns:svg="http://www.w3.org/2000/svg"
   xmlns="http://www.w3.org/2000/svg"
   xmlns:xlink="http://www.w3.org/1999/xlink"
   xmlns:sodipodi="http://sodipodi.sourceforge.net/DTD/sodipodi-0.dtd"
   xmlns:inkscape="http://www.inkscape.org/namespaces/inkscape"
   inkscape:version="0.92.1 r15371"
   version="1.1"
   id="svg2"
   viewBox="0 0 500.00001 500.00001"
   height="500"
   width="500"
   sodipodi:docname="tux1.svg">
  <sodipodi:namedview
     inkscape:window-maximized="1"
     inkscape:window-y="0"
     inkscape:window-x="0"
     inkscape:window-height="1051"
     inkscape:window-width="1884"
     showgrid="false"
     inkscape:current-layer="layer2"
     inkscape:document-units="px"
     inkscape:cy="186.69375"
     inkscape:cx="213.13144"
     inkscape:zoom="0.7"
     inkscape:pageshadow="2"
     inkscape:pageopacity="0.0"
     borderopacity="1.0"
     bordercolor="#666666"
     pagecolor="#ffffff"
     id="base"
     fit-margin-top="0"
     fit-margin-left="0"
     fit-margin-right="0"
     fit-margin-bottom="0"
     units="px" />
  <defs
     id="defs4">
    <linearGradient
       inkscape:collect="always"
       xlink:href="#linearGradient4497"
       id="linearGradient4503"
       x1="940.9632"
       y1="637.41199"
       x2="945.6795"
       y2="650.04968"
       gradientUnits="userSpaceOnUse"
       gradientTransform="matrix(1,0,0,1.0859179,0,-53.897354)" />
    <linearGradient
       inkscape:collect="always"
       id="linearGradient4497">
      <stop
         style="stop-color:#275eb1;stop-opacity:1"
         offset="0"
         id="stop4499" />
      <stop
         style="stop-color:#e6ecf9;stop-opacity:1"
         offset="1"
         id="stop4501" />
    </linearGradient>
    <linearGradient
       inkscape:collect="always"
       xlink:href="#linearGradient4497"
       id="linearGradient4503-2"
       x1="940.9632"
       y1="637.41199"
       x2="945.6795"
       y2="650.04968"
       gradientUnits="userSpaceOnUse"
       gradientTransform="matrix(-1,0,0,1.0859179,1919.9978,-53.897354)" />
  </defs>
  <metadata
     id="metadata7">
    <rdf:RDF>
      <cc:Work
         rdf:about="">
        <dc:format>image/svg+xml</dc:format>
        <dc:type
           rdf:resource="http://purl.org/dc/dcmitype/StillImage" />
        <dc:title></dc:title>
        <dc:date>2017</dc:date>
        <dc:creator>
          <cc:Agent>
            <dc:title>Timothée Giet</dc:title>
          </cc:Agent>
        </dc:creator>
        <cc:license
           rdf:resource="http://creativecommons.org/licenses/by-sa/4.0/" />
      </cc:Work>
      <cc:License
         rdf:about="http://creativecommons.org/licenses/by-sa/4.0/">
        <cc:permits
           rdf:resource="http://creativecommons.org/ns#Reproduction" />
        <cc:permits
           rdf:resource="http://creativecommons.org/ns#Distribution" />
        <cc:requires
           rdf:resource="http://creativecommons.org/ns#Notice" />
        <cc:requires
           rdf:resource="http://creativecommons.org/ns#Attribution" />
        <cc:permits
           rdf:resource="http://creativecommons.org/ns#DerivativeWorks" />
        <cc:requires
           rdf:resource="http://creativecommons.org/ns#ShareAlike" />
      </cc:License>
    </rdf:RDF>
  </metadata>
  <g
     inkscape:groupmode="layer"
     id="layer2"
     inkscape:label="tux"
     style="display:inline"
     transform="translate(-397.13483,-257.43302)">
    <path
       style="display:inline;opacity:0.98999999;fill:#a78014;fill-opacity:1;stroke:none"
       d="m 706.6495,688.2083 c 24.96718,-0.20499 97.87831,26.99326 95.52293,37.32145 -0.61368,2.69157 -26.12412,11.80311 -36.00778,16.45899 -5.64056,2.65711 2.65438,10.74634 -2.59187,11.39311 -5.24624,0.64676 -19.5494,-5.18991 -31.03857,-5.98168 -14.76208,-1.01733 -42.82333,3.17017 -49.08376,2.54609 -6.2604,-0.62407 -14.49641,-45.40241 -11.0016,-47.02542 10.37232,-4.77793 26.82227,-14.16803 34.20065,-14.71254 z"
       id="path3775-3"
       inkscape:connector-curvature="0"
       sodipodi:nodetypes="csszszcc" />
    <path
       style="display:inline;fill:#a78014;fill-opacity:1;stroke:none"
       d="m 588.56172,688.20958 c -24.96719,-0.20499 -97.8783,26.99326 -95.52304,37.32145 0.6138,2.69157 26.12419,11.80311 36.00783,16.45898 5.64059,2.65711 -2.65444,10.74635 2.59185,11.39311 5.24628,0.64676 19.5495,-5.1899 31.03858,-5.98167 14.76205,-1.01733 42.82338,3.17016 49.0838,2.54608 6.26041,-0.62407 14.49642,-45.4024 11.00161,-47.02541 -10.37232,-4.77794 -26.82221,-14.16803 -34.20063,-14.71254 z"
       id="path3775"
       inkscape:connector-curvature="0"
       sodipodi:nodetypes="csszszcc" />
    <g
       style="display:inline"
       id="g4667"
       transform="matrix(1.6153725,0,0,1.6153725,-904.15377,-643.17342)">
      <path
         sodipodi:nodetypes="csszszcc"
         inkscape:connector-curvature="0"
         id="path3775-9"
         d="m 921.34614,828.77469 c -13.48149,-0.11069 -52.85117,12.57551 -51.57941,18.1524 0.33143,1.45336 14.10624,4.3733 19.44309,6.88733 3.04574,1.43475 0.31118,5.80268 3.14402,6.15192 2.83282,0.34923 8.8116,-2.80239 15.01534,-3.22992 7.97104,-0.54933 25.12326,1.9673 28.5037,1.63031 3.38042,-0.33698 3.8276,-22.77136 1.94051,-23.64774 -5.60072,-2.57993 -12.48314,-5.65028 -16.46725,-5.9443 z"
         style="display:inline;fill:#e2a70e;fill-opacity:1;stroke:none" />
      <path
         sodipodi:nodetypes="csszszcc"
         inkscape:connector-curvature="0"
         id="path3775-9-3"
         d="m 999.3113,828.77469 c 13.4815,-0.11069 52.8512,12.57551 51.5794,18.1524 -0.3314,1.45336 -14.1062,4.3733 -19.4431,6.88733 -3.0457,1.43475 -0.3112,5.80268 -3.144,6.15192 -2.8328,0.34923 -8.8116,-2.80239 -15.0153,-3.22992 -7.9711,-0.54933 -25.12331,1.9673 -28.50375,1.63031 -3.38042,-0.33698 -3.8276,-22.77136 -1.94051,-23.64774 5.60072,-2.57993 12.48316,-5.65028 16.46726,-5.9443 z"
         style="display:inline;fill:#e2a70e;fill-opacity:1;stroke:none" />
    </g>
    <g
       id="g4602"
       style="display:inline;fill:#2a2a2a;fill-opacity:1"
       transform="matrix(1.6153725,0,0,1.6153725,-903.62279,-643.17342)">
      <path
         sodipodi:nodetypes="ssszzzs"
         inkscape:connector-curvature="0"
         id="path2992"
         d="m 1047.5807,761.80244 c 0,48.36946 -39.2113,87.58066 -87.58072,87.58066 -48.36945,0 -87.58065,-39.2112 -87.58065,-87.58066 0,-24.18473 13.8028,-71.40879 29.65178,-112.58666 15.84898,-41.17788 25.49178,-72.49935 59.03328,-72.49935 33.54151,0 40.97541,31.32147 56.82441,72.49935 15.849,41.17787 29.6519,88.40193 29.6519,112.58666 z"
         style="color:#000000;display:inline;overflow:visible;visibility:visible;fill:#2a2a2a;fill-opacity:1;fill-rule:nonzero;stroke:none;stroke-width:0.5;marker:none;enable-background:accumulate" />
      <path
         sodipodi:nodetypes="ccsc"
         inkscape:connector-curvature="0"
         id="path3807"
         d="m 1037.6216,728.00614 c 23.716,-0.38105 55.6572,10.63018 59.7453,12.83874 10.9697,-19.99218 -50.0446,-46.77657 -71.2956,-65.89171 -12.1316,-10.91225 6.4731,51.31353 11.5503,53.05297 z"
         style="fill:#2a2a2a;fill-opacity:1;stroke:none" />
      <path
         sodipodi:nodetypes="ccsc"
         inkscape:connector-curvature="0"
         id="path3807-7"
         d="m 882.37842,728.00614 c -23.716,-0.38105 -55.6572,10.63018 -59.7453,12.83874 -10.9697,-19.99218 50.0446,-46.77657 71.2956,-65.89171 12.1316,-10.91225 -6.4731,51.31353 -11.5503,53.05297 z"
         style="display:inline;fill:#2a2a2a;fill-opacity:1;stroke:none" />
    </g>
    <path
       style="color:#000000;display:inline;overflow:visible;visibility:visible;fill:#f2f2f2;fill-opacity:1;fill-rule:nonzero;stroke:none;stroke-width:0.5;marker:none;enable-background:accumulate"
       d="m 745.90352,559.43856 c 0,62.09666 -42.436,109.20524 -98.76877,109.20524 -56.33272,0 -98.76867,-47.10858 -98.76867,-109.20524 0,-62.09668 42.43595,-122.12821 98.76867,-122.12821 56.33277,0 98.76877,60.03153 98.76877,122.12821 z"
       id="path3829"
       inkscape:connector-curvature="0"
       sodipodi:nodetypes="sssss" />
    <path
       style="color:#000000;display:inline;overflow:visible;visibility:visible;fill:#b28b16;fill-opacity:1;fill-rule:nonzero;stroke:none;stroke-width:0.5;marker:none;enable-background:accumulate"
       d="m 709.60658,465.26723 c 0,12.88729 -36.8526,46.14721 -62.47183,46.14721 -25.61923,0 -62.47191,-34.53718 -62.47191,-46.14721 0,-10.30123 27.96964,-38.60976 62.47191,-38.60976 34.5023,0 62.47183,27.46661 62.47183,38.60976 z"
       id="path3792"
       inkscape:connector-curvature="0"
       sodipodi:nodetypes="szszs" />
    <path
       style="color:#000000;display:inline;overflow:visible;visibility:visible;fill:#f1c43c;fill-opacity:1;fill-rule:nonzero;stroke:none;stroke-width:0.5;marker:none;enable-background:accumulate"
       d="m 701.00833,465.78594 c 0,11.11355 -31.78044,39.79578 -53.87358,39.79578 -22.09316,0 -53.87366,-29.78369 -53.87366,-39.79578 0,-8.88344 18.28733,-36.5265 53.87366,-36.5265 35.58633,0 53.87358,26.91702 53.87358,36.5265 z"
       id="path3792-7"
       inkscape:connector-curvature="0"
       sodipodi:nodetypes="szszs" />
    <path
       style="color:#000000;font-style:normal;font-variant:normal;font-weight:normal;font-stretch:normal;font-size:medium;line-height:normal;font-family:Sans;-inkscape-font-specification:Sans;text-indent:0;text-align:start;text-decoration:none;text-decoration-line:none;letter-spacing:normal;word-spacing:normal;text-transform:none;writing-mode:lr-tb;direction:ltr;baseline-shift:baseline;text-anchor:start;display:inline;overflow:visible;visibility:visible;fill:#b28b16;fill-opacity:1;stroke:none;stroke-width:1px;marker:none;enable-background:accumulate"
       d="m 586.91164,466.58747 -0.10096,1.16105 c 0,0 25.91649,26.90605 60.32407,26.90605 34.40758,0 60.32407,-26.90605 60.32407,-26.90605 l -0.10097,-1.16105 c 0,0 -26.66104,24.75132 -60.2231,24.75132 -33.56206,0 -60.22311,-24.75132 -60.22311,-24.75132 z"
       id="path3803"
       inkscape:connector-curvature="0"
       sodipodi:nodetypes="ccsccsc" />
    <g
       style="display:inline"
       id="g4625"
       transform="matrix(1.6153725,0,0,1.6153725,-903.5716,-643.17342)">
      <path
         sodipodi:nodetypes="zzzz"
         inkscape:connector-curvature="0"
         id="path2999"
         d="m 939.0157,625.16734 c 8.22345,-3.27448 13.36227,12.73386 11.8014,21.21012 -1.56086,8.47625 -9.50431,12.46262 -16.2504,5.30623 -6.7461,-7.15639 -3.77445,-23.24187 4.449,-26.51635 z"
         style="fill:#f2f2f5;fill-opacity:1;stroke:none" />
      <path
         sodipodi:nodetypes="zzz"
         inkscape:connector-curvature="0"
         id="path3769-9"
         d="m 942.97212,636.2935 c 6.98855,-0.19342 7.86724,17.20381 1.52621,16.26008 -6.34105,-0.94375 -8.51478,-16.06661 -1.52621,-16.26008 z"
         style="display:inline;fill:url(#linearGradient4503);fill-opacity:1;stroke:none" />
      <path
         sodipodi:nodetypes="zzz"
         inkscape:connector-curvature="0"
         id="path3769"
         d="m 943.91329,641.70876 c 2.94998,-0.0863 3.32089,7.67564 0.64424,7.25458 -2.67665,-0.42106 -3.59422,-7.16827 -0.64424,-7.25458 z"
         style="fill:#171717;fill-opacity:1;stroke:none" />
      <path
         sodipodi:nodetypes="zzzz"
         inkscape:connector-curvature="0"
         id="path2999-2"
         d="m 980.92095,625.16734 c -8.22345,-3.27448 -13.36227,12.73386 -11.8014,21.21012 1.56086,8.47625 9.50431,12.46262 16.2504,5.30623 6.7461,-7.15639 3.77445,-23.24187 -4.449,-26.51635 z"
         style="display:inline;fill:#f2f2f5;fill-opacity:1;stroke:none" />
      <path
         sodipodi:nodetypes="zzz"
         inkscape:connector-curvature="0"
         id="path3769-9-5"
         d="m 977.02571,636.2935 c -6.98855,-0.19342 -7.86724,17.20381 -1.52621,16.26008 6.34105,-0.94375 8.51478,-16.06661 1.52621,-16.26008 z"
         style="display:inline;fill:url(#linearGradient4503-2);fill-opacity:1;stroke:none" />
      <path
         sodipodi:nodetypes="zzz"
         inkscape:connector-curvature="0"
         id="path3769-6"
         d="m 976.08665,641.70876 c -2.94998,-0.0863 -3.32089,7.67564 -0.64424,7.25458 2.67665,-0.42106 3.59422,-7.16827 0.64424,-7.25458 z"
         style="display:inline;fill:#171717;fill-opacity:1;stroke:none" />
      <path
         sodipodi:nodetypes="zzz"
         inkscape:connector-curvature="0"
         id="path3769-2"
         d="m 941.32961,639.49936 c 2.59421,-0.0649 2.92038,5.77001 0.56654,5.45349 -2.35384,-0.31653 -3.16075,-5.38861 -0.56654,-5.45349 z"
         style="display:inline;fill:#ffffff;fill-opacity:0.90232556;stroke:none" />
      <path
         sodipodi:nodetypes="zzz"
         inkscape:connector-curvature="0"
         id="path3769-2-0"
         d="m 942.09935,645.81792 c 1.70477,-0.0343 1.91911,3.04768 0.3723,2.88049 -1.54682,-0.16719 -2.07708,-2.84622 -0.3723,-2.88049 z"
         style="display:inline;fill:#ffffff;fill-opacity:0.76744187;stroke:none" />
      <path
         sodipodi:nodetypes="zzz"
         inkscape:connector-curvature="0"
         id="path3769-2-9"
         d="m 974.66822,639.49936 c -2.59421,-0.0649 -2.92038,5.77001 -0.56654,5.45349 2.35384,-0.31653 3.16075,-5.38861 0.56654,-5.45349 z"
         style="display:inline;fill:#ffffff;fill-opacity:0.90232556;stroke:none" />
      <path
         sodipodi:nodetypes="zzz"
         inkscape:connector-curvature="0"
         id="path3769-2-0-2"
         d="m 973.89848,645.81792 c -1.70477,-0.0343 -1.91911,3.04768 -0.3723,2.88049 1.54682,-0.16719 2.07708,-2.84622 0.3723,-2.88049 z"
         style="display:inline;fill:#ffffff;fill-opacity:0.76744187;stroke:none" />
    </g>
  </g>
</svg>
