<?xml version="1.0" encoding="UTF-8" standalone="no"?>
<!-- Created with Inkscape (http://www.inkscape.org/) -->
<svg xmlns:inkscape="http://www.inkscape.org/namespaces/inkscape" xmlns:rdf="http://www.w3.org/1999/02/22-rdf-syntax-ns#" xmlns="http://www.w3.org/2000/svg" xmlns:xlink="http://www.w3.org/1999/xlink" xmlns:ns1="http://sozi.baierouge.fr" xmlns:cc="http://creativecommons.org/ns#" xmlns:sodipodi="http://sodipodi.sourceforge.net/DTD/sodipodi-0.dtd" xmlns:dc="http://purl.org/dc/elements/1.1/" version="1.1" viewBox="0 0 34.786 67.553" inkscape:version="0.91 r13725">
  <g transform="translate(-110.08 -708.34)">
    <path d="m143.14 770.77c0 4.8242-9.7614 6.133-9.7614-0.0435 0-17.952-0.0375-34.883 0-43.352 0.032-7.2182-0.85482-8.369-5.6105-8.369-7.2401 0-6.2949 7.3283-6.2949 9.3217 0 4.9429-0.64376 7.9806-5.8246 7.9806s-4.5515-6.5135-4.5515-8.7939c0-8.5335 5.5543-18.18 17.328-18.18 6.9292 0 12.283 4.3939 13.98 8.2494 2.7662 6.2831 0.73476 28.332 0.73476 53.187z" fill="#FFF"/>
    <g transform="matrix(.13469 0 0 .13439 87.903 702.53)" fill="#cd0909">
      <path style="color:#000000" d="m176.56 184.96c20.329 21.95 41.984 33.293 67.617 35.355-3.6828 8.3969-7.3657 16.794-11.049 25.191-45.815 7.2184-61.798-1.0312-56.569-60.546z"/>
      <path style="color:#000000" d="m197.07 109.71c8.5876 16.315 28.942 36.852 49.53 45.175l25.19-30.91c-13.68-13.58-26.16-32.46-28.19-55.363-22.85 7.343-31.58 22.568-46.53 41.103z"/>
      <path style="color:#000000" d="m323.12 56.25c-11.823 6.6667-26.615 32.24-24.219 61.719 11.927 5.1042 23.854 10.208 35.781 15.312 6.6222-23.304 19.182-44.382 36.406-54.063 0 0-18.125-18.75-47.969-22.969z"/>
      <path style="color:#000000" d="m412.77 159.55c-25.853 2.7034-48.798 18.977-71.153 38.007l-3.0936 60.104c19.651-21.174 50.513-52.02 79.329-45.962z"/>
      <path style="color:#000000" d="m412.33 295.22c-25.493 4.1406-49.121 17.077-70.49 40.659l-1.7678 50.823c16.831-14.755 36.8-34.21 70.048-41.984z"/>
      <path style="color:#000000" d="m406.72 422.66c-21.635 4.2974-42.849 13.872-65.938 32.5l0.3125 48.125c26.771-26.875 44.635-38.125 65.312-40.312z"/>
    </g>
    <path style="color:#000000" d="m128.21 716.2c-0.0855 0.68823-0.10795 1.4077-0.0505 2.1461 0.0193 0.00025 0.0397-0.00031 0.059 0 0.10968 0.002 0.21799 0.006 0.3241 0.009 0.25109 0.008 0.49188 0.0194 0.72398 0.0378 0.11565 0.009 0.22969 0.0214 0.34094 0.0336 0.0702 0.008 0.14195 0.0161 0.21045 0.0252 0.0392 0.006 0.0793 0.0112 0.11786 0.0168 0.0808 0.0119 0.16148 0.0237 0.23993 0.0378 0.0251 0.004 0.051 0.009 0.0757 0.0126 0.0269 0.006 0.0532 0.0114 0.0799 0.0168 0.17768 0.0358 0.3511 0.077 0.51773 0.126 0.75287 0.22112 1.4 0.60979 1.8815 1.1886 0.0344 0.0413 0.0683 0.0827 0.10099 0.126 0.0326 0.0433 0.066 0.0891 0.0968 0.1344 0.037 0.0542 0.0704 0.11156 0.1052 0.16799 0.12242-0.41527 0.26241-0.82528 0.41251-1.2264-0.99975-1.9073-2.8579-2.7185-4.7143-2.8307-0.17797-0.0107-0.35064-0.0171-0.52194-0.021zm-5.1436 1.3481c-1.3682 0.95376-2.3439 2.3577-3.1737 4.0402-0.14632 0.29667-0.27148 0.60995-0.37463 0.93657 0.51767 0.32062 1.047 0.59882 1.5784 0.81477 0.006-0.0223 0.0112-0.0449 0.0169-0.0672 0.0156-0.0619 0.0294-0.12305 0.0464-0.1848 0.0332-0.12265 0.0702-0.24357 0.10943-0.36537 0.36371-1.132 0.98988-2.2469 2.0499-3.0659 0.0765-0.0591 0.1549-0.11649 0.23571-0.17219 0.0582-0.0401 0.12051-0.0795 0.181-0.11759 0.002-0.00094 0.002-0.003 0.004-0.004 0.0655-0.0412 0.13391-0.0786 0.20203-0.1176 0.01-0.006 0.0196-0.0111 0.0295-0.0168 0.0573-0.0324 0.11349-0.0658 0.17258-0.0966 0.0549-0.0287 0.11176-0.0568 0.16836-0.084 0.0114-0.006 0.0222-0.0113 0.0337-0.0168-0.44444-0.4531-0.87645-0.9486-1.2796-1.4825zm19.88 6.5013c-0.38622 0.0622-0.76765 0.14367-1.1449 0.24779 0.082 2.1822 0.14604 4.4306 0.19361 6.7113 0.39532-0.0824 0.79224-0.12718 1.187-0.126-0.003-0.53116-0.008-1.0504-0.0169-1.5581-0.0134-0.8432-0.0349-1.645-0.0631-2.4191-0.007-0.15844-0.0106-0.32335-0.0169-0.47878-0.00081-0.0188-0.003-0.0358-0.004-0.0546-0.0188-0.43805-0.0385-0.86336-0.0632-1.2768-0.0214-0.35985-0.0451-0.70497-0.0715-1.0458zm-23.98 7.8159c-0.0141 0.13359-0.0312 0.26448-0.0505 0.39058-0.25571 1.6712-1.4913 2.9214-1.9068 3.3011 0.0966-0.0128 0.19092-0.0263 0.28201-0.042 0.26835-0.0465 0.51236-0.10446 0.73661-0.17639 0.004-0.00095 0.008-0.003 0.0126-0.004 0.008-0.003 0.0167-0.006 0.0253-0.009 0.0667-0.0221 0.13055-0.0471 0.19363-0.0713 0.14243-0.055 0.27901-0.1142 0.40408-0.18059 0.0113-0.007 0.0225-0.0107 0.0337-0.0168 0.0513-0.0281 0.0988-0.0581 0.1473-0.0882 0.003-0.002 0.006-0.002 0.008-0.004 0.0556-0.0345 0.10775-0.0722 0.15995-0.10919 0.0547-0.0389 0.10884-0.0802 0.15995-0.12179 0.0495-0.0403 0.0968-0.0789 0.14311-0.1218l0.004-0.004c0.0578-0.0538 0.11517-0.11023 0.16836-0.16799 0.0345-0.0377 0.0682-0.0782 0.101-0.1176 0.0201-0.0241 0.0395-0.0468 0.059-0.0713 0.0294-0.0374 0.0563-0.0746 0.0842-0.11339 0.0197-0.0273 0.0399-0.056 0.059-0.084 0.0105-0.0149 0.0196-0.0311 0.0295-0.0462 0.0364-0.0552 0.0713-0.11015 0.1052-0.168 0.034-0.058 0.0652-0.119 0.0968-0.1806 0.008-0.0153 0.0176-0.0306 0.0252-0.0462 0.023-0.0461 0.0457-0.0947 0.0673-0.14278 0.002-0.006 0.007-0.0111 0.008-0.0168 0.0246-0.0556 0.0486-0.10989 0.0715-0.16799 0.002-0.004 0.002-0.009 0.004-0.0126 0.00094-0.004 0.003-0.009 0.004-0.0127 0.0518-0.1334 0.0993-0.27378 0.14312-0.41998 0.0008-0.003 0.003-0.006 0.004-0.009 0.0216-0.0718 0.0392-0.14775 0.0589-0.22258 0.0207-0.0786 0.0403-0.15757 0.059-0.2394 0.0187-0.0818 0.0378-0.16701 0.0547-0.25198-0.53208-0.053-1.0496-0.13777-1.5574-0.25199zm24.06 10.416c-0.30914 0.0591-0.61685 0.1312-0.92181 0.20999-0.00094 2.2722-0.0134 4.5004-0.0379 6.6609 0.25441-0.0782 0.51581-0.15083 0.7829-0.21839 0.0628-2.2777 0.12357-4.539 0.17679-6.6525zm-0.42933 17.072c-0.24829 0.0505-0.4973 0.10687-0.74503 0.168-0.0623 1.9938-0.12875 3.8164-0.20624 5.3926 0.28498-0.0633 0.57198-0.112 0.86287-0.147 0.0215-1.8319 0.0532-3.6316 0.0883-5.4136z" fill="#870101"/>
    <path style="color:#000000" d="m127.84 716.19c-2.0225 0.009-3.5563 0.50113-4.7774 1.3523 0.4036 0.53416 0.83893 1.0293 1.2838 1.4825 0.92332-0.43709 2.0576-0.68877 3.4221-0.68877 0.29802 0 0.58125 0.003 0.85447 0.0126-0.15253-0.006-0.30718-0.0105-0.46722-0.0126-0.0571-0.73739-0.0349-1.4546 0.0505-2.1419-0.12317-0.003-0.24661-0.004-0.36619-0.004zm13.604 0.99116c0.14338 2.2431 0.26037 4.636 0.35358 7.1145 0.37729-0.10414 0.75863-0.18975 1.1449-0.252-0.21613-2.7909-0.59989-4.9335-1.1533-6.1905-0.0972-0.22088-0.21221-0.44236-0.33674-0.66778v-0.004h-0.008zm-12.396 1.1885c0.12459 0.008 0.24662 0.0184 0.36621 0.0294-0.11991-0.011-0.2413-0.0216-0.36621-0.0294zm0.41672 0.0336c0.24545 0.0237 0.48128 0.0562 0.70713 0.0966-0.22594-0.0401-0.46157-0.073-0.70713-0.0966zm1.086 0.17219c0.10026 0.0239 0.19808 0.0514 0.29465 0.0797 0.21511 0.0631 0.42207 0.13985 0.61874 0.23098-0.19667-0.0915-0.40363-0.17201-0.61874-0.23518-0.0959-0.0282-0.19515-0.0519-0.29465-0.0756zm1.1996 0.45778c0.0744 0.042 0.14807 0.0877 0.21889 0.13439-0.0716-0.0476-0.14365-0.0916-0.21889-0.13439zm1.6921 0.009c-0.15124 0.40359-0.28928 0.81258-0.4125 1.2306 0.57993 0.9418 0.8462 2.185 0.95549 3.9016 0.0744-0.59114 0.24025-2.0885 0.13048-2.9189-0.11401-0.86254-0.34896-1.5952-0.67347-2.2133zm-13.928 3.4775c-0.90667 2.8711-0.28087 6.7652-0.55139 9.3362 0.50778 0.11415 1.0255 0.19887 1.5574 0.25199 0.20529-1.0357 0.2778-2.3068 0.2778-3.7798 0-0.81074-0.21516-2.9186 0.29464-4.9978-0.53061-0.2156-1.0616-0.49083-1.5784-0.81055zm1.006 9.5882c-0.0169 0.0851-0.036 0.17013-0.0548 0.25199 0.0189-0.0823 0.0377-0.16643 0.0548-0.25199zm-0.0548 0.25199c-0.0746 0.32743-0.16209 0.62915-0.26939 0.90296 0.10774-0.27324 0.19448-0.57608 0.26939-0.90296zm-0.26939 0.90296c-0.0248 0.063-0.0533 0.12465-0.0799 0.18479 0.0269-0.0604 0.0549-0.1214 0.0799-0.18479zm22.902-6.3627c0.0284 0.77358 0.0498 1.5766 0.0631 2.4191-0.0138-0.84205-0.0343-1.6462-0.0631-2.4191zm0.0631 2.4191c0.008 0.50734 0.0134 1.0232 0.0169 1.5539-0.003-0.52979-0.008-1.0478-0.0169-1.5539zm0.0169 1.5539c-0.39447-0.00094-0.79194 0.0438-1.187 0.126 0.0796 3.8083 0.11091 7.696 0.10945 11.487 0.30505-0.0789 0.61263-0.15504 0.92181-0.21419 0.0439-1.7461 0.0859-3.4535 0.11363-5.0692 0.0388-2.2539 0.0549-4.3689 0.0421-6.3291zm-0.15573 11.398c-0.0532 2.1135-0.11404 4.3748-0.1768 6.6525 0.0628-2.2777 0.12357-4.539 0.1768-6.6525zm-0.1768 6.6525c-0.26748 0.0677-0.52812 0.1442-0.7829 0.22259-0.0425 3.7558-0.11793 7.2817-0.21467 10.374 0.24773-0.0611 0.49674-0.12173 0.74503-0.17219 0.0717-3.6276 0.16022-7.0729 0.25254-10.424zm-23.058-14.88c-0.0465 0.0687-0.0967 0.13702-0.14732 0.20158 0.0513-0.065 0.10037-0.13218 0.14732-0.20158zm-0.14732 0.20158c-0.0505 0.0645-0.10057 0.12448-0.15574 0.18479 0.0545-0.0592 0.10574-0.12133 0.15574-0.18479zm22.864 30.516c-0.29088 0.035-0.57789 0.0837-0.86287 0.14698-0.12335 2.5087-0.26568 4.4201-0.40829 5.506-0.29032 2.2104-3.1294 3.1499-5.9476 3.0491 0.006 0.004 0.0112 0.009 0.0169 0.0127 0.75309 0.55177 1.8186 0.79749 2.9127 0.72656 1.0942-0.0709 2.1994-0.4592 2.9885-1.0668 0.78908-0.60754 1.2628-1.3846 1.2628-2.3645 0-2.0256 0.0146-4.0291 0.0379-6.01z" fill="#c4c4c4"/>
    <path d="m143.14 770.77c0 4.8242-9.7614 6.133-9.7614-0.0435 0-17.952-0.0375-34.883 0-43.352 0.032-7.2182-0.85481-8.369-5.6105-8.369-7.2401 0-6.2949 7.3283-6.2949 9.3217 0 4.943-0.64376 7.9806-5.8246 7.9806s-4.5515-6.5135-4.5515-8.7939c0-8.5335 5.5543-18.18 17.328-18.18 6.9292 0 12.283 4.3939 13.98 8.2494 2.7662 6.2831 0.73477 28.332 0.73477 53.187z" stroke="#000" stroke-width="2" fill="none"/>
  </g>
  <metadata>
    <rdf:RDF>
      <cc:Work>
        <dc:format>image/svg+xml</dc:format>
        <dc:type rdf:resource="http://purl.org/dc/dcmitype/StillImage"/>
        <cc:license rdf:resource="http://creativecommons.org/licenses/publicdomain/"/>
        <dc:publisher>
          <cc:Agent rdf:about="http://openclipart.org/">
            <dc:title>Openclipart</dc:title>
          </cc:Agent>
        </dc:publisher>
      </cc:Work>
      <cc:License rdf:about="http://creativecommons.org/licenses/publicdomain/">
        <cc:permits rdf:resource="http://creativecommons.org/ns#Reproduction"/>
        <cc:permits rdf:resource="http://creativecommons.org/ns#Distribution"/>
        <cc:permits rdf:resource="http://creativecommons.org/ns#DerivativeWorks"/>
      </cc:License>
    </rdf:RDF>
  </metadata>
</svg>
