<svg xmlns:dc="http://purl.org/dc/elements/1.1/" xmlns:cc="http://creativecommons.org/ns#" xmlns:rdf="http://www.w3.org/1999/02/22-rdf-syntax-ns#" xmlns="http://www.w3.org/2000/svg" xmlns:xlink="http://www.w3.org/1999/xlink" xmlns:sodipodi="http://sodipodi.sourceforge.net/DTD/sodipodi-0.dtd" xmlns:inkscape="http://www.inkscape.org/namespaces/inkscape" viewBox="0 0 42 60" height="60" width="42" inkscape:version="0.92.4 (5da689c313, 2019-01-14)" sodipodi:docname="girl.svg"><sodipodi:namedview pagecolor="#ffffff" bordercolor="#666666" borderopacity="1" objecttolerance="10" gridtolerance="10" guidetolerance="10" inkscape:pageopacity="0" inkscape:pageshadow="2" inkscape:window-width="1884" inkscape:window-height="1051" showgrid="false" units="px" inkscape:zoom="1.6819304" inkscape:cx="-230.30055" inkscape:cy="64.777487" inkscape:window-x="0" inkscape:window-y="0" inkscape:window-maximized="1" inkscape:current-layer="svg2"/><defs><linearGradient gradientTransform="matrix(.96958 .09974 -.0972 .99501 -128.43 -2.138)" gradientUnits="userSpaceOnUse" y2="30.051884" x2="38.269402" y1="28.53743" x1="38.396049" id="b" xlink:href="#a" inkscape:collect="always"/><linearGradient inkscape:collect="always" id="a"><stop style="stop-color:#5d9cd6;stop-opacity:1" offset="0"/><stop style="stop-color:#85bbe0;stop-opacity:1" offset="1"/></linearGradient><linearGradient gradientTransform="matrix(.98154 .09748 -.0984 .97241 -128.715 -1.454)" gradientUnits="userSpaceOnUse" y2="29.458378" x2="47.31078" y1="27.521519" x1="47.416126" id="c" xlink:href="#a" inkscape:collect="always"/></defs><metadata><rdf:RDF><cc:Work><dc:format>image/svg+xml</dc:format><dc:type rdf:resource="http://purl.org/dc/dcmitype/StillImage"/><dc:title/><dc:date>2017</dc:date><dc:creator><cc:Agent><dc:title>Timothée Giet</dc:title></cc:Agent></dc:creator><cc:license rdf:resource="http://creativecommons.org/licenses/by-sa/4.0/"/></cc:Work><cc:License rdf:about="http://creativecommons.org/licenses/by-sa/4.0/"><cc:permits rdf:resource="http://creativecommons.org/ns#Reproduction"/><cc:permits rdf:resource="http://creativecommons.org/ns#Distribution"/><cc:requires rdf:resource="http://creativecommons.org/ns#Notice"/><cc:requires rdf:resource="http://creativecommons.org/ns#Attribution"/><cc:permits rdf:resource="http://creativecommons.org/ns#DerivativeWorks"/><cc:requires rdf:resource="http://creativecommons.org/ns#ShareAlike"/></cc:License></rdf:RDF></metadata><g transform="matrix(.7408 0 0 .7408 94.253 -11.456)"><path style="display:inline;overflow:visible;fill:#6d4d30;fill-opacity:1;fill-rule:evenodd;stroke:none;stroke-width:4.48256016px;stroke-linecap:butt;stroke-linejoin:miter;stroke-opacity:1" d="M-78.185 62.085c2.139.481 6.547 2.458 6.288 4.394-.09.675-3.769-.532-4.452.062-.682.595-.646 1.179.858 2.083.727.436.689 1.775-.214 1.71-.902-.064-3.31-1.397-4.398-2.534-1.089-1.137-3.15-3.293-2.586-3.927.83-.932 4.504-1.788 4.504-1.788z" inkscape:connector-curvature="0" sodipodi:nodetypes="cssssssc"/><path style="display:inline;overflow:visible;fill:#c79968;fill-opacity:1;fill-rule:evenodd;stroke:none;stroke-width:4.48256016px;stroke-linecap:butt;stroke-linejoin:miter;stroke-opacity:1" d="M-78.38 62.758c2.138.482 4.963 1.574 5.18 2.864.113.672-3.052-.011-3.735.583-.683.594-.84 1.506.664 2.41.726.436.842.88-.061.817-.902-.064-2.348-1.446-3.437-2.583-1.089-1.137-3.485-2.342-2.92-2.976.83-.932 4.308-1.115 4.308-1.115z" inkscape:connector-curvature="0" sodipodi:nodetypes="cssssssc"/><path style="display:inline;overflow:visible;fill:#864a25;fill-opacity:1;fill-rule:evenodd;stroke:none;stroke-width:4.48256016px;stroke-linecap:butt;stroke-linejoin:miter;stroke-opacity:1" d="M-96.01 50.104c3.627 5.303 7.315 12.161 9.687 15.058 1.873 2.287 6.467 1.433 7.925-1.782 1.856-4.091-2.835-7.31-5.888-9.847-2.613-2.171-7.089-8.232-9.552-8.503-2.619-.29-3.647 1.43-2.171 5.074z" inkscape:connector-curvature="0" sodipodi:nodetypes="cssssc"/><path style="display:inline;overflow:visible;fill:#d38254;fill-opacity:1;fill-rule:evenodd;stroke:none;stroke-width:4.48256016px;stroke-linecap:butt;stroke-linejoin:miter;stroke-opacity:1" d="M-96.313 48.855c3.626 5.303 8.252 12.307 10.624 15.204 1.873 2.287 5.018 1.988 6.476-1.227 1.856-4.091-2.605-5.855-5.657-8.392-2.613-2.17-7.564-8.724-10.027-8.996-2.619-.289-2.892-.234-1.416 3.41z" inkscape:connector-curvature="0" sodipodi:nodetypes="cssssc"/><path inkscape:transform-center-y="6.4827357" inkscape:transform-center-x="-3.3593108" style="display:inline;overflow:visible;fill:#785333;fill-opacity:1;fill-rule:evenodd;stroke:none;stroke-width:4.48256016px;stroke-linecap:butt;stroke-linejoin:miter;stroke-opacity:1" d="M-84.222 83.65c3.413 1.054 5.83 3.564 6.07 3.928.239.363.861 1.69.424 2.196-.438.506-4.06 2.937-8.512 3.646-4.452.708-8.437-.121-8.934-.814-.498-.693-1.844-3.855-1.034-4.555.81-.7 9.87-4.82 11.986-4.401z" inkscape:connector-curvature="0"/><path inkscape:transform-center-y="6.0417536" inkscape:transform-center-x="-3.1733939" style="display:inline;overflow:visible;fill:#d9bc7e;fill-opacity:1;fill-rule:evenodd;stroke:none;stroke-width:4.48256016px;stroke-linecap:butt;stroke-linejoin:miter;stroke-opacity:1" d="M-84.64 84.404c2.886.791 4.9 2.77 5.098 3.058.198.289.49.824.11 1.238-.38.414-3.5 2.426-7.295 3.067-3.796.641-7.172.039-7.583-.51-.412-.548-1.29-2.548-.59-3.124.7-.576 8.47-4.032 10.26-3.73z" inkscape:connector-curvature="0" sodipodi:nodetypes="ccssssc"/><path style="display:inline;overflow:visible;fill:#7c4523;fill-opacity:1;fill-rule:evenodd;stroke:none;stroke-width:4.48256016px;stroke-linecap:butt;stroke-linejoin:miter;stroke-opacity:1" d="M-90.742 68.168c2.538 4.173 5.451 8.756 5.57 9.258.12.503-.691 4.736-.448 5.016.244.281 1.842-.55 2.127.374.114.37-2.173 3.269-4.797 4.512-2.624 1.244-7.76 3.49-8.827 2.507-1.067-.984-.2-6.886-.26-7.632-.06-.746.39-1.25.624-1.558.235-.308-3.33-5.854-3.914-6.774-.583-.92 8.499-5.669 9.925-5.703z" inkscape:connector-curvature="0" sodipodi:nodetypes="cssssssssc" inkscape:transform-center-x="1.7131945" inkscape:transform-center-y="-3.0499145"/><path style="display:inline;overflow:visible;fill:#c76f3a;fill-opacity:1;fill-rule:evenodd;stroke:none;stroke-width:4.48256016px;stroke-linecap:butt;stroke-linejoin:miter;stroke-opacity:1" d="M-91.148 69.678c2.188 3.598 4.796 7.64 4.899 8.073.103.434-1.035 4.82-.626 5.258.219.234 1.527.132 1.482.463-.046.331-1.34 1.71-3.602 2.781-2.262 1.073-6.544 3.063-7.464 2.215-.92-.848.31-5.77.259-6.413-.052-.643.336-1.077.538-1.343s-2.678-5.883-3.818-6.62c-.788-.51 7.102-4.384 8.332-4.414z" inkscape:connector-curvature="0" sodipodi:nodetypes="cssssssssc" inkscape:transform-center-x="2.0853772" inkscape:transform-center-y="-2.9968831"/><path style="display:inline;overflow:visible;fill:#785333;fill-opacity:1;fill-rule:evenodd;stroke:none;stroke-width:4.48256016px;stroke-linecap:butt;stroke-linejoin:miter;stroke-opacity:1" d="M-95.772 86.857c2.945 2.021 4.506 5.137 4.626 5.556.12.418.32 1.869-.248 2.222-.568.354-4.75 1.597-9.21.95-4.462-.649-8.02-2.627-8.289-3.436-.268-.81-.613-4.229.369-4.657.982-.427 10.857-1.664 12.752-.635z" inkscape:connector-curvature="0"/><path style="display:inline;overflow:visible;fill:#d9bc7e;fill-opacity:1;fill-rule:evenodd;stroke:none;stroke-width:4.48256016px;stroke-linecap:butt;stroke-linejoin:miter;stroke-opacity:1" d="M-96.394 87.424c2.518 1.468 3.853 3.73 3.956 4.034.103.304.274 1.358-.212 1.615-.486.257-4.063 1.16-7.878.689-3.814-.47-6.858-1.907-7.087-2.495-.23-.588-.525-3.071.315-3.382.84-.31 9.285-1.209 10.906-.461z" inkscape:connector-curvature="0"/><path style="display:inline;overflow:visible;fill:#7c4523;fill-opacity:1;fill-rule:evenodd;stroke:none;stroke-width:4.48256016px;stroke-linecap:butt;stroke-linejoin:miter;stroke-opacity:1" d="M-94.385 71.246c.837 4.812 1.468 9.273 1.395 9.785-.072.511-2.084 4.545-1.96 4.895.124.35 2.033.787 1.843 1.125-.19.338-3.217 2.248-6.114 2.446-2.897.199-9.349-.34-9.983-1.646-.634-1.305 2.89-6.12 3.107-6.836.217-.716.82-1.02 1.15-1.221.332-.202-1.088-3.42-1.294-4.49-.207-1.069 10.516-4.547 11.856-4.058z" inkscape:connector-curvature="0" sodipodi:nodetypes="cssssssssc"/><path style="display:inline;overflow:visible;fill:#c76f3a;fill-opacity:1;fill-rule:evenodd;stroke:none;stroke-width:4.48256016px;stroke-linecap:butt;stroke-linejoin:miter;stroke-opacity:1" d="M-95.315 72.504c.722 4.148 1.266 7.994 1.203 8.435-.062.441-2.434 4.499-2.213 5.055.118.298 1.373.682 1.21.973-.164.292-1.872 1.101-4.37 1.272-2.497.171-8.06-.294-8.606-1.42-.547-1.125 2.957-4.894 3.144-5.512.187-.617.706-.88.992-1.053.285-.174-.47-3.208-1.262-4.31-.547-.763 8.747-3.863 9.902-3.44z" inkscape:connector-curvature="0" sodipodi:nodetypes="cssssssssc"/><path style="display:inline;overflow:visible;fill:#864a25;fill-opacity:1;fill-rule:evenodd;stroke:none;stroke-width:4.48256016px;stroke-linecap:butt;stroke-linejoin:miter;stroke-opacity:1" d="M-92.424 46.977c2.41 3.429 10.357 20.89 10.862 24.947-.78 1.465-4.626.052-10.597 3.957-2.108 1.38-20.693 2.888-19.658-.144.639-1.874 1.893-3.953 3.486-9.557 1.593-5.603 3.192-21.36 4.602-22.092 2.094-1.088 9.136-.426 11.305 2.889z" inkscape:connector-curvature="0" sodipodi:nodetypes="ccssssc"/><path style="display:inline;overflow:visible;fill:#d38254;fill-opacity:1;fill-rule:evenodd;stroke:none;stroke-width:4.48256016px;stroke-linecap:butt;stroke-linejoin:miter;stroke-opacity:1" d="M-92.549 48.537c2.183 3.108 9.386 18.932 9.844 22.608-.707 1.328-4.193.047-9.604 3.587-1.91 1.25-18.753 2.616-17.815-.132.579-1.697 1.716-3.582 3.16-8.66 1.443-5.078 2.892-19.358 4.17-20.021 1.898-.986 8.28-.386 10.245 2.618z" inkscape:connector-curvature="0" sodipodi:nodetypes="ccssssc"/><path style="display:inline;overflow:visible;fill:#864a25;fill-opacity:1;fill-rule:evenodd;stroke:none;stroke-width:4.48256016px;stroke-linecap:butt;stroke-linejoin:miter;stroke-opacity:1" d="M-102.498 49.367c-2.838 5.764-5.515 13.076-7.452 16.28-1.53 2.53-6.199 2.336-8.098-.64-2.417-3.787 1.77-7.64 4.432-10.583 2.278-2.52 5.85-9.154 8.25-9.772 2.55-.657 3.812.898 2.868 4.715z" inkscape:connector-curvature="0" sodipodi:nodetypes="cssssc"/><path style="display:inline;overflow:visible;fill:#d38254;fill-opacity:1;fill-rule:evenodd;stroke:none;stroke-width:4.48256016px;stroke-linecap:butt;stroke-linejoin:miter;stroke-opacity:1" d="M-102.098 47.811c-2.838 5.764-6.7 13.63-8.636 16.833-1.53 2.53 1.116-1.559-1.972-3.269-4.38-2.425-6.54.4-.64-5.857 2.33-2.472 5.927-9.504 8.327-10.123 2.55-.657 3.865-1.4 2.921 2.416z" inkscape:connector-curvature="0" sodipodi:nodetypes="cssssc"/><path style="display:inline;overflow:visible;fill:#6c4e30;fill-opacity:.97846327;fill-rule:evenodd;stroke:none;stroke-width:4.16854429px;stroke-linecap:butt;stroke-linejoin:miter;stroke-opacity:1" d="M-115.525 60.945c-3.15-.264-8.173-1.376-8.78-1.018-.607.357-.585 1.449.224 1.937.808.489 3.986.958 4.435 1.358-1.464.879-6.2 1.755-6.235 2.368-.035.613.384 1.519 1.391 1.65 1.008.13 3.735-.86 4.5-.804-1.062 1.452-3.587 3.616-3.426 4.126.16.51 1.248.918 1.971.567.723-.351 1.737-1.204 2.01-1.49.382 1.2.205 3.038.465 3.29.21.204 1.37-.171 1.694-1.174.324-1.003-.06-2.93.365-2.893.396.036 2.046-.844 2.552-1.557.506-.713 2.125-1.058 2.744-2.753.273-.749-.367-1.581-.094-3.115.278-1.57.818-3.342.503-3.688-.63-.691-1.62-.516-2.276.292-.685.844-.905 3.097-2.042 2.905z" inkscape:connector-curvature="0" sodipodi:nodetypes="csscsscsscssssssssc"/><path style="display:inline;overflow:visible;fill:#c79968;fill-opacity:1;fill-rule:evenodd;stroke:none;stroke-width:4.16854429px;stroke-linecap:butt;stroke-linejoin:miter;stroke-opacity:1" d="M-115.303 61.298c-3.15-.264-7.871-1.385-8.478-1.027-.607.357-.314.743.495 1.231.809.489 4.596 1.285 5.044 1.685-1.464.88-7.09 1.885-7.126 2.498-.036.613.418.778 1.426.909s4.559-1.033 5.324-.978c-1.062 1.453-4.245 4.16-4.085 4.67.161.511.374.78 1.097.429.723-.351 2.142-1.715 2.414-2.002.382 1.2.27 3.251.53 3.503.211.204.592.26.917-.743.324-1.003.005-3.096.43-3.058.395.035 1.845-.66 2.351-1.373.506-.714 1.766-.77 2.385-2.464.273-.749-.047-1.707.225-3.24.278-1.57.905-2.885.59-3.23-.631-.693-.822-.619-1.478.19-.684.843-.924 3.192-2.06 3z" inkscape:connector-curvature="0" sodipodi:nodetypes="csscsscsscssssssssc"/><path style="display:inline;overflow:visible;fill:#864a25;fill-opacity:1;fill-rule:evenodd;stroke:none;stroke-width:4.48256016px;stroke-linecap:butt;stroke-linejoin:miter;stroke-opacity:1" d="M-101.498 45.889c2.218 2.52 5.165 4.223 6.8 3.7 1.635-.523 2.244-2.405 1.353-3.709-2.718-.294-9.482-1.962-8.153.01z" inkscape:connector-curvature="0" sodipodi:nodetypes="cscc"/><path style="display:inline;overflow:visible;fill:#c79968;fill-opacity:1;fill-rule:evenodd;stroke:none;stroke-width:4.48256016px;stroke-linecap:butt;stroke-linejoin:miter;stroke-opacity:1" d="M-99.986 45.98c1.612 1.78 3.614 2.8 4.802 2.431 1.188-.369 1.533-1.463.885-2.384-.647-.92-6.982-1.531-5.687-.046z" inkscape:connector-curvature="0"/><path style="display:inline;overflow:visible;fill:#4e3a32;fill-opacity:1;fill-rule:evenodd;stroke:none;stroke-width:5.27144384px;stroke-linecap:butt;stroke-linejoin:miter;stroke-opacity:1" d="M-107.403 25.799c-.668-1.288-.236-.826-1.257-1.919-.928.028-2.215-1.416-2.614-2.268-.746-1.01-.092.032-1.26-.295-1.16.373-1.805.964-2.824.836-.673-.423-2.168.473-2.496 1.066-1.122.798-.198 1.258-1.15 1.373-.427.077-.917 1.995-1.933 2.632-.31.356-1.469.389-1.404 1.846-.098.22-.928 2.538-.932 4.447-.248.415.39.823.343 2.63-.058.5-.408 2.413-.181 2.774.486 1.905.728 2.282.972 3.492.799.692-.48 2.099.297 2.317.167.026 1.962.969 2.23 2.184.338 1.262.772 1.31.815 1.688.226-.045 2.16.77 2.289.489 1.084-1.039 1.996.397 2.265.192.351.677 1.297.083 2.637-.293.272-.987.699-1.11 1.766-1.382.122-.196 1.42-.468 1.672-1.86-.076-.478 1.274-2.417 1.222-3.75.229-1.534.452-.012 1.164-1.174.213-.17-.138-3.131.395-3.26-.072-.433 1.575-.892 1.288-1.431-.243-1.277-.927-1.73-.603-2.948-.38-1.56.866-1.65.241-2.97-.791-.893-.754-3.235-1.223-3.301-1.013-1.89-2.39-1.993-1.966-1.643" inkscape:connector-curvature="0" sodipodi:nodetypes="csssssssccccccccccccccccccccc"/><path style="display:inline;overflow:visible;fill:#6a4739;fill-opacity:1;fill-rule:evenodd;stroke:none;stroke-width:5.27144384px;stroke-linecap:butt;stroke-linejoin:miter;stroke-opacity:1" d="M-108.012 26.709c-.603-1.164-.213-.746-1.136-1.734-.838.026-2-1.28-2.361-2.05-.675-.913-.084.03-1.139-.266-1.047.337-1.63.871-2.551.755-.609-.382-1.96.428-2.256.964-1.014.72-.179 1.136-1.039 1.24-.386.07-.829 1.803-1.747 2.378-.28.323-1.327.352-1.269 1.669-.088.198-.838 2.293-.841 4.018-.224.375.352.743.31 2.377-.053.451-.37 2.18-.165 2.506.44 1.721.658 2.062.879 3.155.722.625-.434 1.897.269 2.094.15.024 1.773.875 2.014 1.973.306 1.14.698 1.185.737 1.526.204-.041 1.952.696 2.068.441.98-.938 1.804.359 2.047.174.317.612 1.172.075 2.382-.265.246-.891.632-1.003 1.596-1.248.11-.178 1.283-.424 1.511-1.682-.068-.431 1.151-2.183 1.104-3.387.207-1.387.409-.011 1.052-1.061.193-.153-.125-2.83.357-2.946-.065-.392 1.423-.806 1.164-1.294-.22-1.153-.838-1.562-.545-2.663-.343-1.41.782-1.491.218-2.683-.715-.807-.682-2.924-1.106-2.984-.915-1.707-2.159-1.8-1.775-1.484" inkscape:connector-curvature="0" sodipodi:nodetypes="csssssssccccccccccccccccccccc"/><path style="display:inline;overflow:visible;fill:#6c4e30;fill-opacity:.97846327;fill-rule:evenodd;stroke:none;stroke-width:4.48256016px;stroke-linecap:butt;stroke-linejoin:miter;stroke-opacity:1" d="M-88.621 20.319c5.048 3.449 11.075 13.006 5.924 21.287-5.15 8.282-19.688 4.473-26.105-1.477-6.417-5.95-4.978-15.3-2.192-18.364 2.786-3.064 10.567-8.054 22.373-1.446z" inkscape:connector-curvature="0" sodipodi:nodetypes="csssc"/><path style="display:inline;overflow:visible;fill:#c79968;fill-opacity:1;fill-rule:evenodd;stroke:none;stroke-width:4.48256016px;stroke-linecap:butt;stroke-linejoin:miter;stroke-opacity:1" d="M-89.113 20.861C-84.442 24.053-78.464 33.337-83.23 41c-4.766 7.663-18.696 4.301-24.633-1.205-5.938-5.506-4.644-14.458-2.066-17.293 2.578-2.834 9.891-7.755 20.816-1.64z" inkscape:connector-curvature="0" sodipodi:nodetypes="csssc"/><path style="display:inline;overflow:visible;fill:#4e3a32;fill-opacity:1;fill-rule:evenodd;stroke:none;stroke-width:4.48256016px;stroke-linecap:butt;stroke-linejoin:miter;stroke-opacity:1" d="M-91.458 21.121c-4.969-.794-10.993-2.084-13.426-.356-2.434 1.729-5.156 6.024-4.003 8.335 1.153 2.31 2.214 2.178.623 3.941-1.59 1.763-3.021 2.803-4.188 1.15-1.168-1.653-2.913-10.293-.991-12.13 1.922-1.838 7.2-5.207 10.654-5.024 3.454.183 2.756-.942 3.991-.879 1.235.063 9.076 1.477 10.42 4.115 1.343 2.638-1.57 1.067-3.08.848z" inkscape:connector-curvature="0" sodipodi:nodetypes="cssssssssc"/><path style="display:inline;overflow:visible;fill:#6a4739;fill-opacity:1;fill-rule:evenodd;stroke:none;stroke-width:4.48256016px;stroke-linecap:butt;stroke-linejoin:miter;stroke-opacity:1" d="M-91.623 21.288c-4.753-.94-10.482-1.895-12.999-.154-2.33 1.613-5.283 5.24-4.188 7.433 1.095 2.194 2.714 2.884 1.203 4.557-1.51 1.674-2.732 2.145-3.84.576-1.108-1.57-3.155-9.583-1.33-11.328 1.825-1.744 6.787-5.052 10.066-4.879 3.28.173 2.97-.656 4.143-.596 1.172.06 8.38 1.018 9.655 3.522 1.276 2.505-1.289 1.15-2.71.869z" inkscape:connector-curvature="0" sodipodi:nodetypes="ssssssssss"/><path style="display:inline;overflow:visible;fill:#6c4e30;fill-opacity:.97846327;fill-rule:evenodd;stroke:none;stroke-width:4.48256016px;stroke-linecap:butt;stroke-linejoin:miter;stroke-opacity:1" d="M-106.681 34.54c-2.268-2.431-5.824-2.42-6.62-.111-.798 2.308 1.378 5.672 3.053 5.924 1.77.265 4.25-.339 4.365-1.246" inkscape:connector-curvature="0" sodipodi:nodetypes="cssc"/><path style="display:inline;overflow:visible;fill:#c79968;fill-opacity:1;fill-rule:evenodd;stroke:none;stroke-width:4.48256016px;stroke-linecap:butt;stroke-linejoin:miter;stroke-opacity:1" d="M-106.066 34.482c-2.79-.936-5.253-1.831-6.05.477-.797 2.309.758 4.199 2.432 4.45 1.77.266 3.998.22 4.113-.687" inkscape:connector-curvature="0" sodipodi:nodetypes="cssc"/><path style="display:inline;overflow:visible;fill:#6c4e30;fill-opacity:.97846327;fill-rule:evenodd;stroke:none;stroke-width:4.48256016px;stroke-linecap:butt;stroke-linejoin:miter;stroke-opacity:1" d="M-86.564 32.798c.413 1.114-.067 1.802-.86 2.159-.196.088.867.39 1.378.068.889-.562.25-1.522-.518-2.227z" inkscape:connector-curvature="0" sodipodi:nodetypes="csscc"/><path style="display:inline;overflow:visible;fill:#8e6235;fill-opacity:1;fill-rule:evenodd;stroke:none;stroke-width:4.48256016px;stroke-linecap:butt;stroke-linejoin:miter;stroke-opacity:1" d="M-85.62 38.472c-3.215 2.387-9.674-.295-8.932-.007 1.287 1.805 4.275 2.119 6.063 1.653 1.788-.466 2.06-.467 2.87-1.646z" inkscape:connector-curvature="0" sodipodi:nodetypes="ccsc"/><path style="display:inline;overflow:visible;fill:#6c4e30;fill-opacity:.97846327;fill-rule:evenodd;stroke:none;stroke-width:4.48256016px;stroke-linecap:butt;stroke-linejoin:miter;stroke-opacity:1" d="M-111.556 36.43c.947-2.036 4.048-.617 4.331-.107.283.51.177 2.352-1.06 1.953-.926-.3-.305-1.34-.114-1.478.19-.138-1.67-1.591-3.157-.368z" inkscape:connector-curvature="0" sodipodi:nodetypes="csssc"/><path style="display:inline;overflow:visible;fill:#6c4e30;fill-opacity:.97846327;fill-rule:evenodd;stroke:none;stroke-width:4.48256016px;stroke-linecap:butt;stroke-linejoin:miter;stroke-opacity:1" d="M-110.02 36.527c-.793 1.302-.204 1.899.63 1.847.996-.063-.808-.5-.63-1.847z" inkscape:connector-curvature="0" sodipodi:nodetypes="csc"/><path style="display:inline;overflow:visible;fill:#6c4e30;fill-opacity:.97846327;fill-rule:evenodd;stroke:none;stroke-width:4.48256016px;stroke-linecap:butt;stroke-linejoin:miter;stroke-opacity:1" d="M-95.661 25.865c-2.864.49-1.431 6.537 1.643 6.364 3.578-.2 1.99-6.984-1.643-6.364z" inkscape:connector-curvature="0" sodipodi:nodetypes="sss"/><path style="display:inline;overflow:visible;fill:#fff;fill-opacity:1;fill-rule:evenodd;stroke:none;stroke-width:4.48256016px;stroke-linecap:butt;stroke-linejoin:miter;stroke-opacity:1" d="M-95.55 26.82c-2.819.362-1.832 5.616 1.73 5.437 3.563-.178 1.91-5.904-1.73-5.437z" inkscape:connector-curvature="0" sodipodi:nodetypes="sss"/><path style="display:inline;overflow:visible;fill:#6c4e30;fill-opacity:.97846327;fill-rule:evenodd;stroke:none;stroke-width:4.48256016px;stroke-linecap:butt;stroke-linejoin:miter;stroke-opacity:1" d="M-86.47 26.153c-2.46.532-.982 6.11 1.552 5.973 3.033-.164 1.5-6.634-1.553-5.973z" inkscape:connector-curvature="0" sodipodi:nodetypes="sss"/><path style="display:inline;overflow:visible;fill:#fff;fill-opacity:1;fill-rule:evenodd;stroke:none;stroke-width:4.48256016px;stroke-linecap:butt;stroke-linejoin:miter;stroke-opacity:1" d="M-86.315 26.96c-2.414.41-1.428 5.554 1.583 5.32 3.01-.233 1.479-5.84-1.583-5.32z" inkscape:connector-curvature="0" sodipodi:nodetypes="sss"/><path style="display:inline;overflow:visible;fill:#6c4e30;fill-opacity:.97846327;fill-rule:evenodd;stroke:none;stroke-width:4.48256016px;stroke-linecap:butt;stroke-linejoin:miter;stroke-opacity:1" d="M-93.115 24.442c-2.715-.51-6.413.452-7.002 2.114.004-1.218 2.624-3.722 7.002-2.114z" inkscape:connector-curvature="0" sodipodi:nodetypes="ccc"/><path style="display:inline;overflow:visible;fill:#6c4e30;fill-opacity:.97846327;fill-rule:evenodd;stroke:none;stroke-width:4.48256016px;stroke-linecap:butt;stroke-linejoin:miter;stroke-opacity:1" d="M-88.379 24.396c2.412.004 4.636 1.158 4.83 2.899.222-1.196-.795-3.664-4.83-2.899z" inkscape:connector-curvature="0" sodipodi:nodetypes="ccc"/><path style="color:#000;display:inline;overflow:visible;visibility:visible;opacity:1;fill:url(#b);fill-opacity:1;fill-rule:nonzero;stroke:none;stroke-width:.98713714;stroke-linecap:round;stroke-linejoin:round;stroke-miterlimit:4;stroke-dasharray:none;stroke-dashoffset:0;stroke-opacity:1;marker:none;enable-background:accumulate" d="M-95.55 29.866c-.103 1.066.65 2.155 1.752 2.38 2.272-.03 2.522-2.704 1.008-4.107-1.199-1.111-2.642.524-2.76 1.727z" inkscape:connector-curvature="0" sodipodi:nodetypes="scss"/><ellipse transform="rotate(5.724)" style="color:#000;display:inline;overflow:visible;visibility:visible;opacity:1;fill:#3a3a3a;fill-opacity:1;fill-rule:nonzero;stroke:none;stroke-width:1;stroke-linecap:round;stroke-linejoin:round;stroke-miterlimit:4;stroke-dasharray:none;stroke-dashoffset:0;stroke-opacity:1;marker:none;enable-background:accumulate" cx="-89.353798" cy="39.344883" rx="0.84886146" ry="0.90317881"/><path style="color:#000;display:inline;overflow:visible;visibility:visible;opacity:1;fill:url(#c);fill-opacity:1;fill-rule:nonzero;stroke:none;stroke-width:.98186457;stroke-linecap:round;stroke-linejoin:round;stroke-miterlimit:4;stroke-dasharray:none;stroke-dashoffset:0;stroke-opacity:1;marker:none;enable-background:accumulate" d="M-86.636 29.844c-.108 1.074.812 2.24 1.995 2.295 2.11.097 1.841-3.151.572-3.951-1.269-.8-2.448.48-2.567 1.656z" inkscape:connector-curvature="0" sodipodi:nodetypes="ssss"/><ellipse transform="rotate(5.724)" style="color:#000;display:inline;overflow:visible;visibility:visible;opacity:1;fill:#3a3a3a;fill-opacity:1;fill-rule:nonzero;stroke:none;stroke-width:1;stroke-linecap:round;stroke-linejoin:round;stroke-miterlimit:4;stroke-dasharray:none;stroke-dashoffset:0;stroke-opacity:1;marker:none;enable-background:accumulate" ry="0.90782917" rx="0.8273322" cy="38.500095" cx="-80.705589"/><ellipse transform="rotate(5.724)" style="color:#000;display:inline;overflow:visible;visibility:visible;opacity:1;fill:#fdfcfa;fill-opacity:1;fill-rule:nonzero;stroke:none;stroke-width:1;stroke-linecap:round;stroke-linejoin:round;stroke-miterlimit:4;stroke-dasharray:none;stroke-dashoffset:0;stroke-opacity:1;marker:none;enable-background:accumulate" cx="-90.061966" cy="38.871738" rx="0.4353216" ry="0.41891629"/><ellipse transform="rotate(5.724)" style="color:#000;display:inline;overflow:visible;visibility:visible;opacity:1;fill:#fdfcfa;fill-opacity:1;fill-rule:nonzero;stroke:none;stroke-width:1;stroke-linecap:round;stroke-linejoin:round;stroke-miterlimit:4;stroke-dasharray:none;stroke-dashoffset:0;stroke-opacity:1;marker:none;enable-background:accumulate" cx="-90.033234" cy="40.041721" rx="0.27901918" ry="0.25034222"/><ellipse transform="rotate(5.724)" style="color:#000;display:inline;overflow:visible;visibility:visible;opacity:1;fill:#fdfcfa;fill-opacity:1;fill-rule:nonzero;stroke:none;stroke-width:1;stroke-linecap:round;stroke-linejoin:round;stroke-miterlimit:4;stroke-dasharray:none;stroke-dashoffset:0;stroke-opacity:1;marker:none;enable-background:accumulate" cx="-81.560326" cy="38.299046" rx="0.4353216" ry="0.41891629"/><ellipse transform="rotate(5.724)" style="color:#000;display:inline;overflow:visible;visibility:visible;opacity:1;fill:#fdfcfa;fill-opacity:1;fill-rule:nonzero;stroke:none;stroke-width:1;stroke-linecap:round;stroke-linejoin:round;stroke-miterlimit:4;stroke-dasharray:none;stroke-dashoffset:0;stroke-opacity:1;marker:none;enable-background:accumulate" cx="-81.519417" cy="39.482151" rx="0.27901918" ry="0.25034222"/></g></svg>