<?xml version="1.0" encoding="UTF-8" standalone="no"?>
<!-- Created with Inkscape (http://www.inkscape.org/) -->

<svg
   xmlns:dc="http://purl.org/dc/elements/1.1/"
   xmlns:cc="http://creativecommons.org/ns#"
   xmlns:rdf="http://www.w3.org/1999/02/22-rdf-syntax-ns#"
   xmlns:svg="http://www.w3.org/2000/svg"
   xmlns="http://www.w3.org/2000/svg"
   xmlns:sodipodi="http://sodipodi.sourceforge.net/DTD/sodipodi-0.dtd"
   xmlns:inkscape="http://www.inkscape.org/namespaces/inkscape"
   width="3000"
   height="3000"
   viewBox="0 0 793.74998 793.75002"
   version="1.1"
   id="svg4028"
   inkscape:version="0.92.4 (5da689c313, 2019-01-14)"
   sodipodi:docname="germany.svg">
  <defs
     id="defs4022" />
  <sodipodi:namedview
     id="base"
     pagecolor="#ffffff"
     bordercolor="#666666"
     borderopacity="1.0"
     inkscape:pageopacity="0.0"
     inkscape:pageshadow="2"
     inkscape:zoom="0.14508454"
     inkscape:cx="517.87058"
     inkscape:cy="1766.3529"
     inkscape:document-units="px"
     inkscape:current-layer="layer1"
     showgrid="false"
     units="px"
     inkscape:window-width="1884"
     inkscape:window-height="1051"
     inkscape:window-x="0"
     inkscape:window-y="0"
     inkscape:window-maximized="1"
     inkscape:snap-global="false" />
  <metadata
     id="metadata4025">
    <rdf:RDF>
      <cc:Work
         rdf:about="">
        <dc:format>image/svg+xml</dc:format>
        <dc:type
           rdf:resource="http://purl.org/dc/dcmitype/StillImage" />
        <dc:title />
        <dc:date>2020</dc:date>
        <dc:creator>
          <cc:Agent>
            <dc:title>Timothée Giet</dc:title>
          </cc:Agent>
        </dc:creator>
        <cc:license
           rdf:resource="http://creativecommons.org/licenses/by-sa/4.0/" />
      </cc:Work>
      <cc:License
         rdf:about="http://creativecommons.org/licenses/by-sa/4.0/">
        <cc:permits
           rdf:resource="http://creativecommons.org/ns#Reproduction" />
        <cc:permits
           rdf:resource="http://creativecommons.org/ns#Distribution" />
        <cc:requires
           rdf:resource="http://creativecommons.org/ns#Notice" />
        <cc:requires
           rdf:resource="http://creativecommons.org/ns#Attribution" />
        <cc:permits
           rdf:resource="http://creativecommons.org/ns#DerivativeWorks" />
        <cc:requires
           rdf:resource="http://creativecommons.org/ns#ShareAlike" />
      </cc:License>
    </rdf:RDF>
  </metadata>
  <g
     inkscape:label="Layer 1"
     inkscape:groupmode="layer"
     id="layer1"
     transform="translate(0,496.75002)">
    <rect
       y="-496.75"
       x="-5.6936035e-05"
       height="793.75"
       width="793.75"
       id="rect4591"
       style="display:inline;opacity:1;vector-effect:none;fill:#75c5f0;fill-opacity:1;stroke:none;stroke-width:0.26449555;stroke-linecap:butt;stroke-linejoin:miter;stroke-miterlimit:4;stroke-dasharray:none;stroke-dashoffset:0;stroke-opacity:1" />
    <path
       style="fill:#cc5c18;stroke-width:0.26458335;fill-opacity:1"
       d="m 388.94066,28.811012 c 0.002,-0.126948 0.1789,-0.885667 0.39373,-1.686031 0.58594,-2.182972 0.63258,-2.116667 -1.48903,-2.116667 h -1.88589 l 0.16241,-1.015683 c 0.13435,-0.840184 0.0602,-1.106037 -0.4292,-1.538658 -1.00904,-0.891963 -1.99157,-1.413589 -4.45359,-2.364396 l -2.37587,-0.917575 -2.97454,0.818489 -2.97454,0.818515 -3.64276,-2.13368 c -2.00352,-1.173533 -3.68863,-2.133679 -3.74469,-2.133679 -0.0561,0 -0.71051,-0.378301 -1.45432,-0.840687 l -1.3524,-0.840687 -1.18478,0.575601 -1.18478,0.575601 -1.11842,-0.704427 c -0.61514,-0.387456 -2.16318,-1.470475 -3.44008,-2.406729 l -2.32165,-1.702277 -2.97002,0.581449 c -1.63351,0.319801 -3.0151,0.624628 -3.07021,0.677386 -0.0551,0.05276 0.23477,0.884026 0.64416,1.847294 l 0.74434,1.751383 1.6048,-0.08768 c 2.17366,-0.118771 2.13854,0.42852 -0.0811,1.262936 -1.26335,0.474927 -2.21524,0.633757 -3.7982,0.633757 -1.46653,0 -2.77116,0.196082 -4.26726,0.641402 -1.8041,0.536972 -2.65522,0.633889 -5.22787,0.595313 l -3.07294,-0.04609 -1.89843,-1.322917 c -1.81753,-1.266534 -1.955,-1.43891 -3.22605,-4.045109 l -1.32763,-2.722219 1.35124,-3.9935678 1.35124,-3.9935946 -0.55288,-0.5885127 -0.55289,-0.5885392 1.56667,-4.4696329 c 0.86167,-2.4583232 1.86387,-5.4816907 2.2271,-6.7186178 0.36323,-1.236927 1.59773,-4.534033 2.74334,-7.326895 l 2.08292,-5.077936 1.45521,-0.16301 c 1.6822,-0.18841 2.64583,-0.528691 2.64583,-0.93427 0,-0.156343 0.65484,-1.418485 1.45521,-2.804743 0.80036,-1.386258 1.45521,-2.667926 1.45521,-2.84816 0,-0.180234 -1.27993,-0.931677 -2.84427,-1.669891 l -2.84428,-1.342179 -2.09357,0.367163 -2.09357,0.367188 -3.20154,-1.828985 c -3.18832,-1.821418 -3.20658,-1.827821 -4.4197,-1.55022 -1.10124,0.251989 -1.67222,0.158538 -5.94967,-0.973773 -6.76112,-1.789747 -6.27288,-1.588055 -6.92057,-2.85914 -0.3141,-0.616427 -0.94498,-1.775619 -1.40196,-2.575984 -1.14324,-2.002314 -2.87801,-5.080265 -3.12002,-5.535771 -0.10999,-0.20701 -1.20461,-0.72271 -2.43249,-1.14599 -1.22788,-0.42328 -2.27948,-0.816584 -2.33689,-0.873998 -0.0574,-0.05739 0.0233,-0.25826 0.17942,-0.446326 0.51364,-0.618913 2.61065,-5.044255 3.69934,-7.80677 l 1.06877,-2.711952 -0.70232,-0.491464 c -0.38627,-0.270298 -0.8248,-0.538189 -0.9745,-0.595313 -0.1497,-0.05712 -1.22127,-0.676407 -2.38125,-1.37615 -2.08251,-1.256295 -2.12997,-1.309159 -3.76973,-4.20124 -1.65201,-2.913698 -1.7861,-3.473133 -1.01823,-4.248362 0.18102,-0.182748 0.93754,-1.235445 1.68114,-2.339287 1.2023,-1.784747 1.50819,-2.066237 2.76238,-2.54217 l 1.41038,-0.535172 0.0802,-2.352623 c 0.11858,-3.476625 -0.0103,-3.897921 -1.47805,-4.832059 -2.15905,-1.374087 -2.04916,-1.211474 -1.41782,-2.098119 0.70049,-0.983748 0.70472,-1.241584 0.0349,-2.127462 -3.23599,-4.279741 -4.75815,-6.43136 -4.74957,-6.713723 0.006,-0.186769 0.54146,-0.730329 1.19063,-1.207876 0.64917,-0.477546 1.1803,-1.038807 1.1803,-1.247219 0,-0.208413 -0.49731,-1.338819 -1.10513,-2.512008 l -1.10514,-2.133083 2.45529,-2.32121 2.45528,-2.32121 -1.08783,-0.7199 -1.08784,-0.7199 1.52362,-2.17325 1.52363,-2.17325 0.0893,-2.83823 0.0893,-2.83824 -1.13292,-2.06086 c -0.6231,-1.13347 -1.34515,-2.47758 -1.60455,-2.9869 -0.75291,-1.47833 -1.83507,-4.76716 -1.66117,-5.04854 0.0875,-0.14154 1.0977,-0.72929 2.24494,-1.30611 2.01868,-1.01497 2.14809,-1.0435 4.01679,-0.88554 2.41988,0.20456 5.67013,-0.22083 8.99729,-1.17755 1.41475,-0.40681 2.62877,-0.79615 2.69782,-0.8652 0.0691,-0.0691 -0.23,-1.18361 -0.66456,-2.47679 -0.43689,-1.30013 -0.68206,-2.42028 -0.5484,-2.50566 0.13293,-0.0849 1.73841,-1.1069 3.56774,-2.27107 1.82931,-1.16417 3.37669,-2.23573 3.4386,-2.38125 0.18623,-0.43768 -1.20081,-7.65685 -1.51336,-7.87667 -0.15933,-0.11207 -1.45082,-0.1716 -2.86996,-0.13229 -2.14797,0.0595 -2.58073,0.005 -2.58301,-0.32542 -0.002,-0.21828 0.37389,-1.36953 0.83421,-2.55834 l 0.83695,-2.16146 1.61376,-0.1646 c 3.38098,-0.34484 3.61383,-0.41418 3.89842,-1.1609 1.2064,-3.16536 3.38995,-11.52096 5.44348,-20.83003 0.10065,-0.45626 -0.1458,-0.66909 -1.45531,-1.25677 -0.86707,-0.38911 -1.68066,-0.7093 -1.80799,-0.71153 -0.12732,-0.002 -0.38753,-0.10301 -0.57824,-0.22395 -0.39331,-0.24943 0.14966,-2.73567 1.55035,-7.09898 0.42942,-1.3377 0.78077,-2.62136 0.78077,-2.85257 0,-0.65743 0.53768,-0.71496 2.60936,-0.27917 2.57746,0.54219 3.13808,0.49358 4.53439,-0.39317 3.67741,-2.3354 3.59029,-2.31202 6.65668,-1.78619 l 1.904,0.32649 1.52831,2.06124 1.52831,2.06123 -0.51698,1.18414 c -0.28434,0.65128 -0.75981,1.74075 -1.05658,2.42104 -0.43875,1.00572 -0.47584,1.29718 -0.19844,1.55948 1.08224,1.02334 3.49264,3.02446 3.64303,3.02446 0.0973,0 0.44914,-0.86826 0.78195,-1.92947 0.58671,-1.8708 0.59215,-1.98008 0.17887,-3.59325 -0.23443,-0.91507 -0.42623,-1.7289 -0.42623,-1.80851 0,-0.29509 2.14948,0.21309 4.13465,0.97752 1.12633,0.4337 2.10111,0.7353 2.1662,0.67022 0.13111,-0.13111 -0.13176,-1.16819 -1.02301,-4.03594 l -0.5949,-1.91423 1.82571,-2.67454 c 1.00415,-1.471 1.88939,-2.71415 1.96722,-2.76256 0.0778,-0.0484 1.08796,0.4985 2.24475,1.21533 1.15679,0.71684 2.25559,1.30334 2.44178,1.30334 0.32468,0 1.18753,-0.42565 1.77308,-0.87468 0.15293,-0.11728 0.86082,-0.62063 1.57309,-1.11857 l 1.29503,-0.90534 -2.57642,-2.46583 -2.57641,-2.46584 0.94606,-1.57497 0.94606,-1.57497 -1.34633,-1.21504 c -1.33748,-1.20706 -1.34571,-1.2243 -1.25217,-2.62422 l 0.0941,-1.40918 -1.63522,-1.07995 c -0.89937,-0.59397 -1.64351,-1.15856 -1.65364,-1.25465 -0.0222,-0.21058 3.3262,-2.8667 5.39973,-4.28331 1.33014,-0.90875 1.45348,-1.06912 1.14512,-1.48907 -0.41499,-0.56518 -3.44583,-4.5262 -4.45853,-5.82688 -0.50272,-0.64568 -0.85037,-1.58852 -1.1483,-3.11423 -0.23501,-1.2035 -0.42729,-2.30483 -0.42729,-2.44739 0,-0.14432 0.81365,-0.25921 1.83567,-0.25921 1.00962,0 2.60884,-0.17931 3.55383,-0.39847 l 1.71817,-0.39847 2.51957,1.61213 c 1.5405,0.98569 2.65276,1.53612 2.86231,1.41651 0.18851,-0.1076 1.50233,-1.02128 2.9196,-2.03041 1.41727,-1.00913 2.69203,-1.79466 2.83279,-1.74564 0.14077,0.049 1.56384,1.38046 3.16238,2.95874 1.81841,1.79537 2.95761,3.1325 3.04315,3.57188 0.0752,0.38625 0.26602,1.65477 0.42405,2.81894 0.15803,1.16416 0.40855,2.73686 0.5567,3.49488 l 0.26938,1.37821 1.59939,0.47387 1.59939,0.47387 -0.163,1.38906 c -0.19244,1.63999 -0.31063,1.60502 3.39311,1.00385 1.29847,-0.21077 2.48909,-0.30936 2.64583,-0.21909 0.15674,0.0903 1.80005,1.21566 3.6518,2.50088 1.85177,1.28522 3.47401,2.33676 3.605,2.33676 0.131,0 0.99719,-0.83277 1.92484,-1.85059 1.64304,-1.80271 1.7198,-1.85063 2.9667,-1.85208 l 1.28003,-0.002 -0.20127,1.12448 c -0.24935,1.39308 -0.25056,1.54681 -0.0276,3.50573 0.0994,0.87312 0.0918,1.70656 -0.0169,1.85208 -0.10869,0.14552 -1.22626,0.76539 -2.48348,1.3775 -2.20096,1.07158 -2.32235,1.17815 -3.26835,2.86975 l -0.98247,1.75685 0.87286,0.90055 c 0.48006,0.49531 1.02756,0.90056 1.21663,0.90056 0.1891,0 1.50519,-0.47625 2.92468,-1.05833 1.41946,-0.58208 2.68949,-1.05833 2.82228,-1.05833 0.25437,-1e-5 2.83909,1.5799 3.06586,1.874 0.0728,0.0944 0.63024,0.42399 1.23883,0.73251 0.60857,0.30851 1.18116,0.68169 1.27239,0.82929 0.35568,0.57551 0.62484,0.15309 1.97847,-3.10508 0.77084,-1.85539 1.5345,-3.50348 1.69706,-3.66244 0.16254,-0.15895 1.72429,-0.61506 3.47054,-1.01358 5.89275,-1.34482 5.97102,-1.37757 7.40154,-3.09673 0.28728,-0.34527 1.21327,-1.4612 2.05769,-2.47985 3.36158,-4.05506 5.55927,-6.43986 5.84779,-6.34567 2.53921,0.82888 4.24778,1.15842 6.84491,1.32021 l 3.10192,0.19325 1.20814,1.29162 c 2.06722,2.21002 2.27864,1.74782 1.06685,-2.3322 l -0.92755,-3.12304 2.30426,-2.31511 c 1.26735,-1.27331 2.41168,-2.3151 2.54296,-2.3151 0.13129,0 1.3244,0.62508 2.65134,1.38906 1.32696,0.76398 2.64956,1.51103 2.9391,1.66011 0.38203,0.19669 0.58055,0.66847 0.72361,1.71979 0.10845,0.79681 0.5216,3.47281 0.91813,5.94666 l 0.72093,4.49792 4.98639,4.99024 c 2.74249,2.74463 4.94996,5.02291 4.90543,5.06284 -0.0445,0.0399 -1.30132,0.68268 -2.79291,1.42832 -1.49159,0.74564 -2.71198,1.45978 -2.71198,1.58696 0,0.20684 3.02149,2.14518 3.34391,2.14518 0.34118,0 1.94775,1.42626 1.94775,1.72915 0,0.18888 0.0962,0.38311 0.21384,0.43162 0.11761,0.0485 0.62309,0.6835 1.12329,1.41111 0.8286,1.20528 1.15835,1.89549 1.83293,3.83646 0.12644,0.3638 0.48638,1.3163 0.79986,2.11666 1.08905,2.78059 1.12413,3.10854 0.92591,8.65923 l -0.1913,5.35687 -2.64678,3.98631 c -1.45574,2.19247 -2.60355,4.0233 -2.55072,4.0685 0.0529,0.0452 1.28371,0.71838 2.73521,1.49593 2.01385,1.07879 3.31796,2.04327 5.50434,4.07085 l 2.86523,2.65711 -0.1659,3.04432 -0.16586,3.04432 1.18456,2.64422 c 1.07945,2.40948 1.22209,2.97918 1.60687,6.41748 0.56592,5.05678 0.54679,5.43698 -0.37147,7.38047 -0.43657,0.92399 -0.79375,1.81297 -0.79375,1.97553 0,0.16256 0.801,1.88042 1.77998,3.81747 l 1.78001,3.52191 -0.45709,1.71536 c -0.25138,0.94344 -0.45707,1.8869 -0.45707,2.09657 0,0.27959 0.78319,0.51187 2.9378,0.87129 3.40574,0.56812 3.05051,0.15027 4.00627,4.7127 0.68154,3.2534 0.6732,3.46394 -0.22146,5.58961 -0.18375,0.43656 -0.80788,2.16297 -1.38694,3.83646 -0.5791,1.67349 -1.38809,3.977996 -1.79777,5.121128 l -0.74488,2.078435 -1.15387,-0.158142 c -0.63463,-0.087 -1.26405,-0.226271 -1.39872,-0.309509 -0.1347,-0.08321 -0.65458,-1.026425 -1.15533,-2.095977 l -0.91046,-1.944661 -3.4421,-1.136004 c -1.89315,-0.62481 -3.51626,-1.06183 -3.60693,-0.97117 -0.0906,0.0907 0.30456,1.454841 0.87823,3.031496 0.5737,1.576679 0.99901,2.94648 0.94517,3.044005 -0.0538,0.09753 -2.15056,0.85434 -4.65939,1.681824 -2.50883,0.827511 -5.45447,1.921034 -6.54587,2.430013 -1.09141,0.509005 -2.43859,1.107652 -2.99371,1.330325 -0.83857,0.336312 -1.14107,0.68363 -1.78792,2.052691 l -0.77859,1.647851 -1.78395,0.182007 c -1.5943,0.162639 -2.11704,0.383117 -4.91681,2.073725 -3.06417,1.850284 -3.15407,1.931723 -4.10104,3.715147 -1.66801,3.141371 -1.54559,3.069934 -3.2838,1.915848 -0.81772,-0.542952 -1.61867,-0.905642 -1.7799,-0.806 -0.16121,0.09964 -1.38928,0.440557 -2.72902,0.757608 l -2.43589,0.576447 -2.11666,3.229187 c -1.16417,1.776069 -2.18366,3.232838 -2.26553,3.237283 -0.0819,0.0045 -1.07471,-0.845026 -2.2063,-1.887723 -2.29643,-2.116005 -2.39808,-2.107406 -2.68986,0.227912 -0.1668,1.334982 -0.11825,1.475317 1.51029,4.364858 1.81787,3.225457 1.7617,3.154733 4.05826,5.108258 0.85537,0.727604 1.91082,1.631527 2.34542,2.008717 l 0.79024,0.685826 -1.10199,2.940156 c -0.60611,1.617081 -1.10199,3.073718 -1.10199,3.236939 0,0.476039 3.94097,6.88938 5.0352,8.193988 2.52357,3.008815 2.95966,3.357721 5.09069,4.072678 1.13083,0.379413 2.23126,0.689822 2.44536,0.689822 0.21413,0 1.3557,1.220391 2.53688,2.711979 1.97832,2.498223 2.30936,2.791778 4.2,3.724567 l 2.05239,1.012586 1.29212,2.768257 c 0.9071,1.943338 1.44984,2.802916 1.82132,2.884487 0.29104,0.0639 1.54119,0.29763 2.77812,0.519404 2.43954,0.437383 2.23414,0.289798 4.56391,3.279563 1.09995,1.411579 1.10945,1.442694 1.21097,3.970285 l 0.10231,2.547541 -1.28495,1.58279 c -2.2647,2.789635 -1.89362,2.664937 -3.54055,1.189779 -0.79671,-0.713635 -1.56763,-1.300904 -1.71315,-1.305058 -0.14552,-0.0042 -0.54067,0.734801 -0.87815,1.64219 -1.52649,4.104508 -1.59853,4.219654 -4.2359,6.7705553 -1.40737,1.3612284 -3.03511,2.7897668 -3.6172,3.1745239 -0.58208,0.3847835 -1.2115,0.8444442 -1.39869,1.0215034 -0.18719,0.1770591 -0.69321,0.5303573 -1.12448,0.7851246 -0.43127,0.2547408 -0.78412,0.5565775 -0.78412,0.6707188 0,0.1141412 -0.12065,0.2075391 -0.2681,0.2075391 -0.38635,0 -4.22982,2.71039181 -4.22982,2.98283328 0,0.12575647 0.71081,1.22877802 1.57957,2.45120592 1.68933,2.3769903 3.18293,5.117968 3.18293,5.8411007 0,0.2432844 -0.44648,1.334982 -0.99218,2.426018 -0.54571,1.091009 -0.87313,2.030227 -0.72761,2.087165 0.14552,0.05691 0.96994,0.498343 1.83206,0.980917 1.54101,0.862647 1.57575,0.907759 2.05959,2.674064 0.4626,1.68865 0.46623,1.874732 0.0605,3.096393 -0.23744,0.714851 -0.51488,1.263914 -0.61656,1.220126 -0.10168,-0.04379 -1.2878,-0.784199 -2.63586,-1.645338 l -2.45099,-1.565725 0.17571,-1.039972 c 0.12859,-0.761232 0.0471,-1.27881 -0.30425,-1.93114 -0.55094,-1.023065 -0.25273,-1.041824 -4.6996,0.296068 l -2.87528,0.865082 -2.80136,-1.173639 c -1.54075,-0.645504 -3.1523,-1.2006 -3.58124,-1.233487 l -0.77989,-0.0598 0.0571,1.745139 0.0572,1.745112 -2.43867,0.173117 c -1.34125,0.0952 -3.27332,0.17309 -4.29345,0.17309 -1.68174,0 -2.07912,0.113983 -4.25883,1.221582 -1.32221,0.671883 -3.4756,2.020226 -4.78529,2.9963 -2.36413,1.761967 -2.41014,1.78189 -6.40037,2.774315 l -4.01916,0.999596 -0.87563,-1.009068 c -0.48163,-0.555016 -1.07212,-1.210151 -1.31223,-1.455896 -0.24009,-0.245745 -0.62561,-1.097174 -0.8567,-1.892088 -0.41989,-1.444361 -0.42095,-1.445393 -1.6801,-1.62478 -4.71379,-0.671619 -9.1799,-1.189699 -9.29174,-1.077834 -0.0727,0.07273 0.12409,1.529874 0.43741,3.238077 0.33229,1.811576 0.46545,3.141504 0.31954,3.191431 -0.21492,0.07353 -4.26829,3.028553 -5.22675,3.81045 -0.1819,0.148378 -0.32931,0.16592 -0.32758,0.03895 z m 18.29547,-243.170162 c -0.31544,-1.40135 -0.53147,-2.58997 -0.48006,-2.64138 0.10369,-0.10368 3.59264,0.59442 3.72739,0.7458 0.0466,0.0524 0.34827,0.61749 0.67022,1.25569 0.67014,1.3284 0.65484,1.34982 -1.44637,2.02359 -0.72761,0.23331 -1.45225,0.59071 -1.61028,0.79421 -0.22008,0.28334 -0.42172,-0.22679 -0.8609,-2.17791 z"
       id="path836"
       inkscape:connector-curvature="0" />
  </g>
</svg>
