<?xml version="1.0" encoding="UTF-8" standalone="no"?>
<svg
   xmlns:dc="http://purl.org/dc/elements/1.1/"
   xmlns:cc="http://creativecommons.org/ns#"
   xmlns:rdf="http://www.w3.org/1999/02/22-rdf-syntax-ns#"
   xmlns:svg="http://www.w3.org/2000/svg"
   xmlns="http://www.w3.org/2000/svg"
   id="svg1029"
   version="1.1"
   viewBox="0 0 122.736 82.957999"
   height="82.958"
   width="122.736">
  <defs
     id="defs1023" />
  <metadata
     id="metadata1026">
    <rdf:RDF>
      <cc:Work
         rdf:about="">
        <dc:format>image/svg+xml</dc:format>
        <dc:type
           rdf:resource="http://purl.org/dc/dcmitype/StillImage" />
        <dc:title></dc:title>
        <dc:date>2021</dc:date>
        <dc:creator>
          <cc:Agent>
            <dc:title>Timothée Giet</dc:title>
          </cc:Agent>
        </dc:creator>
        <cc:license
           rdf:resource="http://creativecommons.org/licenses/by-sa/4.0/" />
      </cc:Work>
      <cc:License
         rdf:about="http://creativecommons.org/licenses/by-sa/4.0/">
        <cc:permits
           rdf:resource="http://creativecommons.org/ns#Reproduction" />
        <cc:permits
           rdf:resource="http://creativecommons.org/ns#Distribution" />
        <cc:requires
           rdf:resource="http://creativecommons.org/ns#Notice" />
        <cc:requires
           rdf:resource="http://creativecommons.org/ns#Attribution" />
        <cc:permits
           rdf:resource="http://creativecommons.org/ns#DerivativeWorks" />
        <cc:requires
           rdf:resource="http://creativecommons.org/ns#ShareAlike" />
      </cc:License>
    </rdf:RDF>
  </metadata>
  <g
     transform="translate(0,-406.22182)"
     id="layer1">
    <g
       transform="matrix(0.02261733,0,0,-0.02261733,-266.74863,715.87689)"
       id="g78"
       style="fill:#1b8bd2;fill-opacity:1;stroke:#125e8e;stroke-width:22.10693932;stroke-miterlimit:4;stroke-dasharray:none;stroke-opacity:1">
      <path
         d="m 16006,13671 c -4,-5 -25,-12 -49,-16 -42,-7 -127,-43 -138,-59 -4,-5 -12,-5 -18,-2 -6,4 -11,2 -11,-3 0,-6 6,-12 13,-12 6,-1 23,-3 35,-4 14,-1 33,7 44,19 12,11 18,16 15,10 -4,-7 3,-14 16,-18 31,-8 39,-7 32,4 -3,6 1,7 9,4 9,-3 13,-11 9,-17 -4,-7 20,-8 78,-4 50,3 76,2 64,-3 -16,-7 -11,-9 21,-9 29,-1 44,4 48,14 3,8 14,15 25,15 26,0 51,10 51,21 0,5 -9,9 -19,9 -11,0 -21,4 -23,10 -3,8 -68,18 -132,20 -15,0 -16,3 -6,15 11,13 7,15 -23,15 -20,0 -38,-4 -41,-9 z m 119,-51 c -10,-11 -30,-20 -44,-19 l -26,1 25,8 c 14,4 18,9 10,10 -8,1 -4,6 10,10 40,13 44,11 25,-10 z m -255,-14 c 0,-3 -4,-8 -10,-11 -5,-3 -10,-1 -10,4 0,6 5,11 10,11 6,0 10,-2 10,-4 z"
         id="path56"
         style="fill:#1b8bd2;fill-opacity:1;stroke:#125e8e;stroke-width:22.10693932;stroke-miterlimit:4;stroke-dasharray:none;stroke-opacity:1" />
      <path
         d="m 15662,13626 c -18,-6 -30,-15 -26,-19 4,-4 2,-7 -4,-7 -7,0 -12,5 -12,10 0,12 -72,12 -145,0 -50,-7 -36,-13 32,-13 18,0 30,-4 27,-9 -3,-4 -4,-8 -2,-9 53,-9 119,-9 114,0 -5,7 2,11 16,11 16,0 19,-3 10,-9 -16,-9 30,-21 82,-21 24,0 28,3 16,10 -8,6 -28,7 -45,4 -27,-6 -28,-5 -16,10 7,9 22,16 33,16 10,0 16,5 13,10 -3,6 -15,10 -26,10 -10,0 -19,5 -19,10 0,12 -6,12 -48,-4 z"
         id="path58"
         style="fill:#1b8bd2;fill-opacity:1;stroke:#125e8e;stroke-width:22.10693932;stroke-miterlimit:4;stroke-dasharray:none;stroke-opacity:1" />
      <path
         d="m 14170,13582 c -9,-10 -25,-12 -52,-8 -30,5 -40,3 -45,-10 -3,-9 0,-20 8,-25 8,-5 9,-9 3,-9 -6,0 -17,7 -25,16 -7,9 -22,14 -36,11 -13,-2 -25,-1 -28,3 -2,4 -30,5 -62,4 -32,-2 -70,-3 -85,-4 -22,0 -26,-4 -21,-17 4,-10 18,-29 32,-42 l 26,-24 -27,16 c -16,10 -29,13 -33,7 -3,-5 13,-18 37,-30 50,-24 54,-25 38,-5 -24,29 51,-18 78,-47 13,-16 31,-28 40,-28 10,-1 35,-9 57,-20 59,-29 82,-26 90,10 4,17 13,30 20,30 15,0 73,50 59,50 -5,0 -1,5 9,11 20,12 52,4 85,-22 21,-16 22,-18 5,-28 -20,-12 -13,-14 33,-11 18,1 35,-3 39,-9 7,-12 53,-5 70,10 5,5 17,9 28,9 10,0 15,5 12,10 -3,6 -19,10 -35,10 -16,0 -30,7 -34,16 -4,11 -14,15 -31,12 -14,-3 -25,-1 -25,3 0,14 -91,51 -108,44 -13,-5 -14,-3 -5,6 8,8 31,9 75,5 107,-12 199,-6 206,14 2,6 12,10 22,10 26,0 34,17 13,28 -29,15 -151,21 -158,8 -3,-8 -7,-7 -11,2 -9,18 -54,15 -54,-4 0,-13 -3,-14 -15,-4 -21,18 -178,19 -195,2 z m 88,-50 c 3,-9 -2,-13 -14,-10 -9,1 -19,9 -22,16 -3,9 2,13 14,10 9,-1 19,-9 22,-16 z m -198,-67 c 0,-3 -8,-5 -18,-5 -10,0 -19,7 -19,14 0,11 5,13 19,5 10,-5 18,-12 18,-14 z m -70,-25 c 0,-5 -4,-10 -10,-10 -5,0 -10,5 -10,10 0,6 5,10 10,10 6,0 10,-4 10,-10 z"
         id="path60"
         style="fill:#1b8bd2;fill-opacity:1;stroke:#125e8e;stroke-width:22.10693932;stroke-miterlimit:4;stroke-dasharray:none;stroke-opacity:1" />
      <path
         d="m 16641,13383 c -14,-3 -35,-12 -48,-20 -16,-11 -65,-18 -149,-24 -120,-8 -163,-15 -174,-28 -11,-14 -86,-44 -103,-42 -13,2 -18,-3 -16,-16 5,-32 -11,-59 -44,-75 l -32,-16 25,-10 c 15,-7 19,-11 9,-11 -9,-1 -29,-12 -45,-26 -23,-19 -25,-25 -11,-25 25,0 21,-19 -8,-30 -14,-5 -25,-16 -25,-24 0,-21 27,-39 50,-33 11,3 18,1 14,-4 -3,-5 7,-14 22,-19 21,-8 29,-8 36,2 6,10 8,9 8,-3 0,-22 21,-29 100,-36 120,-9 133,-9 138,6 3,10 0,12 -12,8 -9,-4 -15,-3 -12,2 3,4 -13,14 -34,21 -22,7 -40,16 -40,19 0,4 -12,14 -28,23 -27,16 -44,68 -22,68 6,0 10,5 10,10 0,14 105,120 119,120 6,0 19,8 29,18 23,23 66,36 197,62 174,35 209,57 127,80 -38,10 -41,10 -81,3 z m -514,-219 c -3,-3 -12,-4 -19,-1 -8,3 -5,6 6,6 11,1 17,-2 13,-5 z"
         id="path62"
         style="fill:#1b8bd2;fill-opacity:1;stroke:#125e8e;stroke-width:22.10693932;stroke-miterlimit:4;stroke-dasharray:none;stroke-opacity:1" />
      <path
         d="m 14635,12979 c -4,-6 -14,-8 -23,-4 -8,3 -26,-4 -40,-17 -14,-13 -22,-17 -18,-10 5,8 -2,12 -26,12 -43,0 -79,-10 -73,-20 6,-10 -43,-24 -74,-21 -17,2 -21,-1 -16,-11 6,-10 5,-11 -6,0 -24,22 -89,12 -89,-14 0,-15 -1,-15 -37,-19 -41,-4 -55,-14 -50,-35 3,-11 0,-23 -5,-27 -7,-4 -8,-1 -3,7 6,10 2,11 -20,6 -25,-6 -27,-5 -16,8 19,22 0,21 -53,-5 -33,-15 -43,-25 -39,-36 4,-11 2,-14 -5,-9 -14,8 -82,-19 -82,-33 0,-14 4,-14 45,3 19,8 35,13 35,11 0,-2 14,0 30,5 18,5 30,5 30,-1 0,-5 -7,-9 -15,-9 -8,0 -15,-9 -15,-19 0,-11 -20,-34 -50,-55 -27,-20 -50,-40 -50,-45 0,-5 -9,-11 -20,-14 -14,-3 -20,-14 -20,-31 0,-34 -33,-66 -67,-66 -23,0 -25,-2 -13,-11 12,-9 13,-11 1,-16 -7,-3 -31,-23 -52,-44 -35,-35 -41,-38 -60,-27 -17,11 -22,10 -32,-3 -7,-9 -18,-14 -26,-11 -10,3 -12,0 -8,-11 4,-11 -2,-17 -24,-22 -16,-4 -29,-11 -29,-16 0,-5 -11,-11 -25,-15 -14,-3 -25,-10 -25,-16 0,-5 -4,-7 -8,-4 -5,3 -22,-3 -39,-14 -30,-18 -31,-21 -32,-94 -1,-63 2,-74 14,-70 16,6 21,-11 7,-20 -12,-7 -13,-66 -1,-66 5,0 9,-9 9,-20 0,-12 15,-29 40,-45 52,-33 106,-33 151,0 19,13 53,34 77,46 23,12 42,29 43,38 0,13 2,14 6,1 3,-8 12,-19 19,-23 8,-4 14,-20 14,-35 0,-15 9,-38 20,-52 11,-14 20,-29 20,-33 0,-5 16,-25 35,-45 19,-20 30,-38 25,-40 -6,-2 -10,-10 -10,-18 0,-8 -3,-13 -7,-13 -16,3 -73,-14 -73,-21 0,-10 -59,-24 -67,-17 -2,3 0,14 6,24 10,17 10,17 11,0 0,-10 5,-15 10,-12 6,4 8,10 5,15 -3,5 -1,11 5,15 18,11 11,35 -10,35 -20,0 -28,24 -11,35 12,7 11,65 -1,65 -4,0 -8,-4 -8,-10 0,-5 -6,-10 -14,-10 -7,0 -19,-7 -26,-15 -7,-8 -25,-15 -41,-15 -54,0 -91,-107 -51,-148 14,-16 15,-29 2,-37 -5,-3 -7,-12 -3,-21 4,-11 9,-12 19,-3 11,9 14,8 14,-5 0,-9 -5,-16 -11,-16 -8,0 -8,-5 1,-15 22,-26 -5,-46 -51,-39 -26,5 -46,2 -61,-8 -14,-9 -36,-13 -54,-11 -47,7 -90,-19 -98,-60 -10,-53 -76,-113 -151,-138 -44,-14 -51,-20 -58,-52 -8,-32 -14,-38 -48,-47 -22,-6 -45,-20 -52,-30 -14,-23 -49,-26 -69,-7 -7,8 -26,17 -42,21 -26,6 -28,5 -21,-16 21,-68 19,-73 -22,-73 -21,0 -43,4 -50,8 -13,8 -89,-1 -113,-14 -19,-9 -21,-59 -3,-59 7,0 13,-4 13,-10 0,-5 6,-7 13,-4 23,9 67,-14 61,-31 -3,-8 -1,-15 6,-15 6,0 8,5 5,10 -11,18 25,10 47,-10 13,-11 16,-20 9,-20 -9,0 -8,-5 3,-16 9,-8 16,-20 16,-25 0,-5 7,-9 16,-9 8,0 12,-4 9,-10 -3,-5 -2,-10 3,-10 5,0 9,-6 9,-12 0,-7 2,-17 4,-23 4,-14 -10,-114 -22,-153 -12,-36 -40,-56 -69,-47 -17,5 -151,15 -277,19 -29,1 -55,5 -59,9 -14,14 -51,7 -69,-13 -10,-11 -26,-20 -35,-20 -28,0 -42,-24 -31,-53 5,-13 11,-55 12,-93 3,-73 -20,-157 -50,-181 -8,-7 -12,-13 -9,-13 4,0 3,-13 -2,-30 -5,-18 -5,-30 1,-30 5,0 9,-7 9,-15 0,-8 6,-14 13,-12 13,2 15,-49 3,-93 -7,-24 -5,-25 36,-24 24,0 53,4 66,8 36,12 62,-3 79,-45 17,-44 55,-62 76,-36 22,27 81,46 142,47 33,0 68,0 78,1 9,0 24,14 32,30 11,20 26,32 46,36 23,4 34,15 46,44 8,22 21,39 28,39 7,0 18,7 25,15 11,13 10,18 -2,28 -24,19 -27,42 -10,69 36,53 97,118 111,118 8,0 38,12 67,27 54,27 84,67 64,87 -5,5 -10,20 -10,32 0,49 106,67 167,28 33,-21 56,-17 92,15 19,17 46,33 62,36 16,4 34,15 39,25 5,10 16,20 24,23 21,8 106,-31 106,-49 0,-8 6,-23 13,-35 10,-17 9,-22 -6,-34 -13,-9 -15,-15 -6,-20 6,-4 15,-2 19,6 7,10 11,10 24,0 9,-8 16,-20 16,-27 0,-8 9,-14 20,-14 11,0 20,-3 20,-8 0,-15 100,-86 123,-87 13,0 35,-12 49,-27 14,-16 33,-28 42,-28 9,0 16,-7 16,-16 0,-9 13,-21 30,-27 22,-8 33,-22 45,-57 10,-28 12,-46 5,-48 -5,-2 -10,-12 -10,-21 0,-23 -92,-44 -164,-37 -59,5 -76,0 -76,-24 0,-17 90,-70 118,-70 6,0 15,-6 19,-13 4,-8 18,-16 31,-20 25,-6 46,21 36,47 -3,9 -3,28 0,42 5,20 11,24 27,19 25,-8 69,29 69,58 0,10 9,21 20,24 28,7 26,45 -5,63 -22,14 -23,18 -12,40 10,20 19,24 42,22 17,-2 32,-8 33,-13 2,-5 11,-17 20,-25 15,-15 17,-15 26,5 13,30 -17,60 -104,102 -59,28 -67,36 -59,51 5,10 6,18 2,19 -4,0 -27,1 -50,3 -34,2 -50,10 -78,39 -19,20 -35,44 -35,54 -1,25 -18,45 -62,71 -41,25 -56,55 -38,77 7,9 8,15 0,20 -20,12 -10,31 23,43 40,14 69,16 49,4 -9,-6 -10,-16 -3,-34 12,-33 31,-45 42,-27 6,11 9,8 9,-8 0,-12 5,-25 10,-28 6,-3 10,3 10,14 0,11 5,23 12,27 8,5 9,2 5,-10 -4,-10 -1,-24 9,-33 11,-12 12,-18 4,-23 -13,-8 34,-50 56,-50 8,0 22,-9 31,-20 10,-11 29,-20 43,-21 l 25,-1 -25,-8 c -24,-8 -24,-8 7,-9 17,-1 35,-5 38,-11 3,-5 14,-10 24,-10 9,0 40,-17 68,-37 l 52,-38 -6,-62 c -5,-58 -4,-62 22,-79 16,-10 22,-20 15,-24 -14,-9 -2,-40 15,-40 8,0 21,-7 29,-16 16,-15 16,-33 1,-68 -4,-10 -4,-21 2,-25 5,-3 12,-14 16,-23 7,-20 27,-24 27,-6 0,25 38,-25 45,-59 6,-31 9,-34 31,-29 17,5 24,2 24,-9 0,-8 5,-15 10,-15 6,0 10,5 10,10 0,6 5,10 10,10 6,0 10,-11 10,-25 0,-14 5,-25 10,-25 19,0 15,51 -7,95 -11,21 -11,26 -2,18 7,-7 21,-13 32,-13 14,0 17,5 12,21 -6,17 -3,20 17,17 18,-2 22,1 20,16 -3,17 -2,18 12,7 9,-8 16,-10 16,-6 0,4 7,2 15,-5 8,-7 15,-21 15,-32 0,-18 1,-18 16,-4 14,14 13,18 -5,38 -12,12 -21,18 -21,14 0,-15 -32,18 -41,41 -5,14 -17,23 -29,23 -14,0 -24,10 -31,30 -6,17 -15,30 -20,30 -11,0 -41,58 -37,72 2,6 18,-1 35,-16 31,-26 49,-34 38,-16 -4,6 1,7 11,3 14,-5 16,-3 10,13 -6,15 -5,17 5,7 24,-24 33,-13 10,11 -23,24 -23,24 -3,35 15,8 23,8 28,-1 4,-7 3,-8 -4,-4 -7,4 -12,2 -12,-3 0,-19 27,-12 33,8 4,18 8,18 38,7 19,-6 44,-17 57,-24 31,-17 63,-12 84,14 13,16 28,21 54,20 19,-1 40,4 46,12 12,14 12,14 -23,29 -31,13 -74,92 -59,107 6,6 10,20 10,32 0,13 8,24 19,27 16,4 20,15 23,53 3,42 7,51 31,62 19,9 27,21 27,38 0,14 13,39 30,57 16,18 30,38 30,45 0,6 11,12 25,12 15,0 25,-6 25,-15 0,-15 52,-29 107,-28 18,1 30,-3 27,-8 -3,-5 -10,-9 -15,-9 -13,0 -55,-40 -43,-41 13,-2 26,-5 52,-14 18,-6 22,-14 20,-34 -3,-22 1,-26 26,-29 19,-2 32,2 38,12 5,9 20,16 33,16 13,0 27,5 30,10 3,6 22,10 41,10 24,0 34,5 34,15 0,17 5,14 51,-27 10,-10 25,-18 32,-18 7,0 22,-7 33,-15 10,-8 25,-15 33,-15 8,0 22,-7 32,-16 15,-13 24,-14 49,-6 25,9 36,8 63,-7 17,-11 48,-22 67,-26 19,-4 56,-20 81,-36 41,-26 52,-29 100,-23 l 54,6 65,-57 c 110,-95 375,-216 357,-162 -2,6 -11,12 -20,12 -10,0 -60,47 -112,104 -82,88 -95,108 -95,137 0,33 -29,74 -63,88 -8,3 -9,7 -2,13 6,4 15,21 20,37 10,31 61,66 83,58 6,-2 12,2 12,10 0,20 25,41 90,74 30,16 57,30 60,32 3,2 -8,14 -25,27 -24,20 -29,31 -27,59 2,28 -5,43 -31,73 -43,48 -53,67 -61,120 -6,42 -6,42 31,52 21,6 61,11 89,11 27,0 55,5 61,11 20,20 143,14 208,-9 45,-17 71,-21 107,-16 33,5 48,3 48,-5 0,-6 9,-11 19,-11 11,0 26,-7 35,-15 18,-19 42,-19 49,-1 4,10 17,13 44,9 71,-9 87,49 20,72 -51,17 -72,35 -55,47 13,9 6,16 -52,58 -20,14 -21,18 -10,62 10,41 10,50 -6,77 -25,42 -56,41 -95,-4 -42,-47 -75,-47 -109,1 -14,19 -36,49 -49,65 -23,29 -23,31 -6,49 10,11 31,20 47,20 67,0 91,80 39,128 -37,34 -51,70 -51,130 -1,113 -27,225 -84,351 -39,87 -53,128 -46,136 6,7 32,20 58,30 102,38 210,115 212,150 0,6 -19,29 -42,52 -49,47 -110,68 -228,78 -106,10 -111,11 -169,36 -39,16 -55,19 -63,11 -9,-9 -6,-17 10,-32 12,-12 26,-19 31,-16 10,6 88,-30 108,-49 19,-19 16,-25 -12,-25 -18,0 -23,-4 -19,-15 5,-11 2,-13 -10,-9 -8,3 -15,9 -15,12 3,20 -15,51 -32,55 -21,6 -27,-9 -6,-16 6,-2 -6,-8 -28,-12 -22,-4 -44,-11 -50,-15 -5,-4 -31,-7 -58,-7 -26,-1 -54,-6 -62,-13 -7,-6 -24,-10 -37,-8 -28,4 -36,34 -11,41 10,3 0,5 -22,6 -22,0 -50,-6 -62,-14 -11,-8 -36,-16 -54,-17 -19,-1 -52,-13 -74,-25 -22,-13 -49,-23 -60,-23 -31,-1 -61,-23 -60,-45 0,-11 -7,-23 -15,-27 -27,-12 -77,-8 -90,7 -7,8 -19,15 -27,15 -28,0 -6,24 32,34 l 38,11 -34,26 c -27,21 -49,27 -107,31 -74,5 -106,-5 -52,-17 28,-6 30,-10 30,-49 0,-36 4,-45 25,-54 26,-12 31,-27 16,-51 -6,-10 -13,-11 -29,-2 -11,6 -30,11 -41,11 -12,0 -21,7 -21,16 0,10 -10,6 -32,-15 -18,-17 -40,-31 -48,-31 -8,0 -28,-11 -44,-23 l -29,-23 23,-22 c 37,-34 15,-46 -53,-28 -30,8 -65,20 -78,26 -16,9 -27,9 -44,0 -24,-13 -23,-40 1,-40 8,0 14,-4 14,-10 0,-5 13,-10 29,-10 16,0 31,-6 35,-15 9,-26 -51,-22 -103,6 -20,10 -44,19 -53,19 -10,0 -18,6 -18,13 0,8 -9,22 -20,32 -15,14 -17,22 -9,37 12,23 -8,43 -53,53 -14,3 -28,12 -31,19 -4,9 14,8 77,-4 208,-43 266,-43 328,1 32,23 35,45 10,76 -17,21 -91,57 -100,49 -2,-3 -19,2 -36,11 -17,9 -33,16 -36,16 -8,-1 -31,8 -80,29 -25,11 -87,24 -137,30 -61,7 -93,15 -93,23 0,14 -69,28 -84,17 -6,-4 -31,-5 -56,-2 l -45,5 33,12 c 19,7 31,16 28,21 -8,13 -124,44 -136,37 -6,-3 -10,-1 -10,4 0,6 -15,11 -34,11 -23,0 -38,-7 -49,-22 -11,-16 -16,-18 -17,-8 0,8 -12,21 -27,28 -33,15 -40,15 -48,1 z m 45,-19 c 0,-5 -5,-10 -11,-10 -5,0 -7,5 -4,10 3,6 8,10 11,10 2,0 4,-4 4,-10 z m 110,6 c 0,-9 -30,-14 -35,-6 -4,6 3,10 14,10 12,0 21,-2 21,-4 z m -460,-96 c 0,-5 -7,-7 -15,-4 -8,4 -15,8 -15,10 0,2 7,4 15,4 8,0 15,-4 15,-10 z m -100,-20 c 0,-5 -8,-10 -17,-10 -15,0 -16,2 -3,10 19,12 20,12 20,0 z m -106,-66 c 3,-8 2,-12 -4,-9 -6,3 -10,10 -10,16 0,14 7,11 14,-7 z m 79,9 c -7,-2 -19,-2 -25,0 -7,3 -2,5 12,5 14,0 19,-2 13,-5 z m 446,-219 c 21,-4 31,-12 31,-24 0,-14 -5,-17 -21,-13 -16,4 -20,2 -17,-8 6,-16 -56,-79 -78,-79 -8,0 -14,-4 -14,-8 0,-14 -58,-42 -73,-36 -8,3 -18,1 -22,-5 -3,-6 1,-14 9,-17 14,-5 14,-8 1,-20 -11,-11 -12,-20 -5,-34 6,-11 14,-28 18,-37 5,-10 7,-41 6,-69 -2,-43 0,-51 14,-50 9,0 16,-4 15,-10 -1,-7 13,-15 32,-18 18,-4 35,-11 37,-17 2,-7 30,-3 77,9 41,11 81,18 88,15 8,-3 18,-1 22,5 3,6 38,13 76,16 58,4 74,2 95,-14 28,-21 25,-29 -13,-32 -15,-1 -27,-8 -27,-16 0,-13 -50,-12 -150,1 -47,6 -164,-47 -132,-60 17,-7 15,-24 -3,-17 -8,4 -15,12 -15,20 0,8 -6,14 -12,13 -19,-1 -55,-17 -40,-18 18,-1 15,-21 -4,-21 -13,0 -15,-6 -9,-27 8,-33 16,-42 22,-25 3,6 13,12 24,12 10,0 19,4 19,9 0,12 39,21 46,10 3,-5 13,-9 22,-9 34,0 24,-99 -9,-100 -3,0 -22,15 -43,34 -34,30 -41,32 -66,23 -39,-15 -64,-75 -57,-137 6,-51 -11,-80 -46,-80 -9,0 -17,-7 -17,-15 0,-9 -11,-20 -24,-27 -27,-12 -61,-4 -51,12 18,29 -124,16 -150,-15 -5,-6 -38,-17 -72,-25 -65,-13 -93,-6 -93,25 0,28 -28,24 -124,-19 -21,-9 -41,-14 -45,-11 -8,9 39,46 49,40 4,-3 10,2 14,10 3,8 13,15 21,15 9,0 13,5 10,10 -4,6 -12,7 -18,3 -8,-5 -8,-2 0,9 7,8 10,18 6,21 -3,4 -1,7 5,7 7,0 12,8 13,18 1,11 4,8 8,-8 6,-22 13,-25 51,-25 37,0 45,4 49,20 5,29 31,44 74,45 28,0 37,4 37,18 0,14 2,15 10,2 5,-8 11,-12 13,-10 12,13 36,84 31,89 -4,3 -9,0 -11,-6 -8,-23 -24,-14 -18,10 5,18 11,54 14,88 1,4 11,10 24,14 12,4 24,8 27,9 3,1 15,5 28,10 12,4 22,14 22,23 0,9 7,21 15,27 12,9 12,15 2,35 -12,25 -20,30 -72,53 -31,14 -42,37 -29,66 4,9 7,29 7,43 0,17 9,32 28,45 16,10 29,24 29,29 0,10 70,45 91,45 5,0 26,16 47,36 27,26 33,37 23,43 -11,7 -9,15 9,39 13,17 27,29 32,26 4,-3 8,0 8,5 0,12 79,15 129,5 z m -779,-96 c 0,-14 -48,-58 -63,-58 -5,0 -4,7 3,15 7,8 9,15 5,15 -5,0 2,9 15,20 26,23 40,25 40,8 z m -183,-114 c -3,-3 -12,-4 -19,-1 -8,3 -5,6 6,6 11,1 17,-2 13,-5 z m 213,-624 c 0,-4 -7,-11 -16,-14 -8,-3 -12,-2 -9,4 3,6 1,10 -4,10 -6,0 -11,4 -11,9 0,5 9,7 20,4 11,-3 20,-9 20,-13 z m 602,-2 c -7,-7 -12,-8 -12,-2 0,14 12,26 19,19 2,-3 -1,-11 -7,-17 z m -652,-17 c 0,5 6,4 14,-3 21,-19 -9,-34 -40,-19 -33,15 -32,33 1,21 16,-6 25,-6 25,1 z m -345,-180 c -3,-6 -11,-11 -16,-11 -5,0 -4,6 3,14 14,16 24,13 13,-3 z m 2225,-480 c -19,-10 -38,-17 -42,-14 -5,2 -8,-2 -8,-10 0,-8 10,-18 23,-21 19,-6 20,-8 6,-16 -9,-5 -20,-21 -23,-36 -7,-25 -9,-26 -66,-21 -32,2 -63,0 -68,-5 -6,-6 -18,1 -30,17 l -21,27 27,29 c 15,16 41,30 57,33 17,2 38,7 49,11 26,11 77,23 106,24 22,1 21,-1 -10,-18 z m -1130,-734 c 5,2 7,-4 4,-12 -4,-8 -10,-15 -15,-15 -5,0 -12,-1 -16,-2 -4,-2 -8,13 -10,32 -3,34 -3,34 13,15 8,-11 19,-19 24,-18 z m 190,23 c 13,-8 13,-10 -2,-10 -9,0 -20,5 -23,10 -8,13 5,13 25,0 z m -63,-36 c -3,-3 -12,-4 -19,-1 -8,3 -5,6 6,6 11,1 17,-2 13,-5 z m 20,-36 c -3,-8 -6,-5 -6,6 -1,11 2,17 5,13 3,-3 4,-12 1,-19 z"
         id="path64"
         style="fill:#1b8bd2;fill-opacity:1;stroke:#125e8e;stroke-width:22.10693932;stroke-miterlimit:4;stroke-dasharray:none;stroke-opacity:1" />
      <path
         d="m 11906,12634 c -9,-8 -25,-16 -36,-17 -11,-1 -20,-7 -20,-14 0,-7 -4,-13 -8,-13 -5,0 -17,-7 -28,-15 -17,-15 -14,-15 44,-12 79,5 87,-18 9,-29 -47,-7 -59,-13 -52,-24 3,-5 11,-10 16,-10 6,0 8,4 5,8 -7,12 68,1 76,-12 15,-22 8,-36 -17,-36 -15,0 -25,-6 -25,-14 0,-10 12,-13 48,-11 27,2 61,-3 79,-12 39,-18 127,-21 168,-6 56,21 100,35 146,48 63,18 129,61 129,84 0,11 -12,23 -30,31 -16,7 -27,16 -24,21 3,5 -1,9 -8,9 -8,1 -5,7 7,16 19,15 18,16 -17,10 -21,-4 -39,-2 -43,4 -10,16 -45,12 -45,-5 0,-9 -9,-15 -22,-15 -13,0 -51,0 -85,0 -48,0 -64,-4 -72,-18 -9,-16 -10,-16 -16,1 -10,24 -35,21 -35,-4 0,-14 -5,-19 -15,-16 -8,4 -17,2 -20,-3 -11,-17 -23,-11 -18,9 3,13 -6,24 -32,40 -43,25 -40,25 -59,5 z"
         id="path66"
         style="fill:#1b8bd2;fill-opacity:1;stroke:#125e8e;stroke-width:22.10693932;stroke-miterlimit:4;stroke-dasharray:none;stroke-opacity:1" />
      <path
         d="m 12767,12323 c -11,-10 -8,-35 2,-28 5,3 13,0 17,-6 3,-6 1,-15 -5,-19 -9,-5 -7,-11 5,-21 16,-12 17,-12 11,3 -3,10 -2,20 4,23 5,4 7,10 4,15 -3,5 -1,11 5,15 5,3 10,12 10,18 0,8 -3,8 -9,-2 -6,-9 -11,-10 -15,-2 -8,12 -19,14 -29,4 z"
         id="path68"
         style="fill:#1b8bd2;fill-opacity:1;stroke:#125e8e;stroke-width:22.10693932;stroke-miterlimit:4;stroke-dasharray:none;stroke-opacity:1" />
      <path
         d="m 12981,12077 c -6,-6 -11,-17 -11,-24 0,-15 -42,-27 -75,-21 -18,4 -29,-1 -40,-19 -26,-39 -55,-64 -66,-58 -5,4 -16,1 -25,-5 -11,-10 -12,-16 -2,-28 7,-8 12,-17 11,-19 -2,-1 -3,-6 -3,-10 0,-5 4,-2 9,6 5,8 11,9 15,3 3,-6 -9,-16 -29,-22 -19,-6 -35,-16 -35,-21 0,-6 8,-5 20,1 16,8 20,8 20,-4 0,-8 8,-16 18,-19 13,-3 11,-6 -10,-15 -16,-6 -28,-16 -28,-21 0,-16 20,-23 34,-12 14,11 26,5 26,-13 0,-6 -5,-4 -10,4 -8,13 -10,12 -10,-3 0,-15 5,-17 30,-12 25,5 29,4 24,-9 -3,-9 -10,-16 -15,-16 -6,0 -5,-10 2,-21 6,-12 14,-18 18,-13 10,14 81,14 75,0 -2,-6 4,-21 14,-31 18,-21 18,-55 -2,-67 -6,-4 -28,-5 -48,-2 -23,2 -38,0 -38,-6 0,-6 5,-8 10,-5 18,11 11,-4 -12,-25 l -23,-22 25,4 c 44,6 37,-27 -10,-46 -56,-22 -52,-49 9,-52 48,-2 84,-24 40,-24 -24,0 -69,-32 -69,-49 0,-4 -16,-16 -35,-26 -19,-11 -32,-21 -29,-24 11,-11 38,-9 61,6 14,9 34,13 51,10 21,-4 33,0 45,13 13,16 27,18 86,15 39,-2 71,0 71,5 0,4 19,7 43,6 44,-3 127,26 127,43 0,6 -7,11 -15,11 -19,0 -20,26 -1,33 28,11 48,54 37,76 -14,25 -66,37 -89,19 -15,-11 -16,-11 -4,3 10,13 10,22 0,45 -6,16 -12,34 -12,39 -1,13 -29,40 -55,55 -11,6 -24,23 -27,38 -10,38 -36,71 -56,72 -24,0 -23,32 2,50 11,8 20,20 20,26 0,7 7,20 16,28 24,25 7,36 -56,36 -32,0 -62,5 -65,10 -3,6 -1,10 5,10 7,0 23,9 37,20 14,11 22,20 18,20 -5,0 1,10 12,23 11,12 23,27 26,33 9,15 -38,15 -52,1 z m -191,-137 c 0,-5 -5,-10 -11,-10 -5,0 -7,5 -4,10 3,6 8,10 11,10 2,0 4,-4 4,-10 z"
         id="path70"
         style="fill:#1b8bd2;fill-opacity:1;stroke:#125e8e;stroke-width:22.10693932;stroke-miterlimit:4;stroke-dasharray:none;stroke-opacity:1" />
      <path
         d="m 12653,11762 c -24,-8 -71,-62 -53,-62 6,0 8,-5 5,-10 -3,-6 -26,-8 -51,-6 -35,4 -46,1 -54,-14 -7,-13 -6,-20 3,-23 9,-4 9,-7 0,-18 -19,-19 -16,-26 12,-33 35,-9 31,-26 -15,-60 -37,-28 -54,-66 -29,-66 5,0 7,-5 3,-12 -5,-8 -2,-9 9,-5 10,3 17,2 17,-4 0,-17 77,0 128,27 25,13 59,24 77,24 28,0 33,4 43,39 7,21 12,56 12,78 0,33 4,42 25,51 29,13 32,38 7,68 -20,23 -99,38 -139,26 z"
         id="path72"
         style="fill:#1b8bd2;fill-opacity:1;stroke:#125e8e;stroke-width:22.10693932;stroke-miterlimit:4;stroke-dasharray:none;stroke-opacity:1" />
      <path
         d="m 13756,10728 c -4,-9 -18,-19 -31,-22 -13,-3 -25,-14 -27,-24 -6,-26 9,-73 28,-87 16,-11 15,-14 -10,-30 -21,-14 -29,-16 -35,-6 -6,9 -10,7 -13,-6 -3,-11 1,-28 8,-38 8,-10 12,-28 9,-39 -15,-79 -15,-85 7,-97 18,-9 24,-8 34,6 7,10 20,15 28,12 19,-8 25,11 28,96 3,57 0,71 -15,82 -16,12 -17,18 -7,52 13,42 10,130 -4,101 z"
         id="path74"
         style="fill:#1b8bd2;fill-opacity:1;stroke:#125e8e;stroke-width:22.10693932;stroke-miterlimit:4;stroke-dasharray:none;stroke-opacity:1" />
      <path
         d="m 14777,10103 c -4,-3 -7,-14 -7,-23 0,-13 12,-19 42,-24 23,-4 45,-11 48,-17 4,-6 27,-6 60,-2 51,8 70,21 41,31 -9,3 -11,0 -6,-9 6,-10 2,-9 -11,2 -10,9 -41,17 -69,18 -27,2 -52,7 -53,12 -2,5 -8,6 -14,3 -6,-4 -13,-1 -17,5 -4,6 -10,8 -14,4 z"
         id="path76"
         style="fill:#1b8bd2;fill-opacity:1;stroke:#125e8e;stroke-width:22.10693932;stroke-miterlimit:4;stroke-dasharray:none;stroke-opacity:1" />
    </g>
  </g>
</svg>
