<?xml version="1.0" encoding="UTF-8" standalone="no"?>
<!-- Created with Inkscape (http://www.inkscape.org/) -->

<svg
   xmlns:dc="http://purl.org/dc/elements/1.1/"
   xmlns:cc="http://creativecommons.org/ns#"
   xmlns:rdf="http://www.w3.org/1999/02/22-rdf-syntax-ns#"
   xmlns:svg="http://www.w3.org/2000/svg"
   xmlns="http://www.w3.org/2000/svg"
   xmlns:sodipodi="http://sodipodi.sourceforge.net/DTD/sodipodi-0.dtd"
   xmlns:inkscape="http://www.inkscape.org/namespaces/inkscape"
   width="100"
   height="100"
   viewBox="0 0 100 100"
   id="svg2"
   version="1.1"
   inkscape:version="0.91 r13725"
   sodipodi:docname="babymatch.svg">
  <defs
     id="defs4" />
  <sodipodi:namedview
     id="base"
     pagecolor="#ffffff"
     bordercolor="#666666"
     borderopacity="1.0"
     inkscape:pageopacity="0.0"
     inkscape:pageshadow="2"
     inkscape:zoom="5.6"
     inkscape:cx="58.024232"
     inkscape:cy="43.50606"
     inkscape:document-units="px"
     inkscape:current-layer="layer1"
     showgrid="false"
     units="px"
     inkscape:window-width="1280"
     inkscape:window-height="959"
     inkscape:window-x="0"
     inkscape:window-y="0"
     inkscape:window-maximized="1" />
  <metadata
     id="metadata7">
    <rdf:RDF>
      <cc:Work
         rdf:about="">
        <dc:format>image/svg+xml</dc:format>
        <dc:type
           rdf:resource="http://purl.org/dc/dcmitype/StillImage" />
        <dc:title />
      </cc:Work>
    </rdf:RDF>
  </metadata>
  <g
     inkscape:label="Layer 1"
     inkscape:groupmode="layer"
     id="layer1"
     transform="translate(0,-952.36216)">
    <g
       id="g4178">
      <path
         sodipodi:nodetypes="sssss"
         inkscape:connector-curvature="0"
         id="path3336-1"
         d="m 47.551727,991.07468 c 3e-6,15.03842 -8.574788,22.76732 -18.266014,22.76732 -9.691227,0 -18.266018,-7.7289 -18.266012,-22.76732 4e-6,-15.0383 8.574791,-32.76258 18.266012,-32.76258 9.691223,0 18.26601,17.72428 18.266014,32.76258 z"
         style="opacity:0.98999999;fill:#b96f16;fill-opacity:1;stroke:none;stroke-width:2;stroke-miterlimit:4;stroke-dasharray:none;stroke-opacity:1" />
      <path
         sodipodi:nodetypes="sssss"
         inkscape:connector-curvature="0"
         id="path3336"
         d="m 46.202075,990.47054 c 3e-6,14.34796 -7.670027,21.29616 -16.916362,21.29616 -9.246336,0 -16.916366,-6.9482 -16.91636,-21.29616 3e-6,-14.34794 7.67003,-30.66225 16.91636,-30.66225 9.246332,0 16.916359,16.31431 16.916362,30.66225 z"
         style="opacity:0.98999999;fill:#efb876;fill-opacity:1;stroke:none;stroke-width:2;stroke-miterlimit:4;stroke-dasharray:none;stroke-opacity:1" />
    </g>
    <path
       style="color:#000000;font-style:normal;font-variant:normal;font-weight:normal;font-stretch:normal;font-size:medium;line-height:normal;font-family:sans-serif;text-indent:0;text-align:start;text-decoration:none;text-decoration-line:none;text-decoration-style:solid;text-decoration-color:#000000;letter-spacing:normal;word-spacing:normal;text-transform:none;direction:ltr;block-progression:tb;writing-mode:lr-tb;baseline-shift:baseline;text-anchor:start;white-space:normal;clip-rule:nonzero;display:inline;overflow:visible;visibility:visible;opacity:0.98999999;isolation:auto;mix-blend-mode:normal;color-interpolation:sRGB;color-interpolation-filters:linearRGB;solid-color:#000000;solid-opacity:1;fill:#003789;fill-opacity:1;fill-rule:nonzero;stroke:none;stroke-width:2.5;stroke-linecap:butt;stroke-linejoin:miter;stroke-miterlimit:4;stroke-dasharray:none;stroke-dashoffset:0;stroke-opacity:1;color-rendering:auto;image-rendering:auto;shape-rendering:auto;text-rendering:auto;enable-background:accumulate"
       d="m 51.286346,1012.555 -1.262691,0.022 0.01269,1.2202 c -2.2e-4,0.031 -0.0098,0.1348 -0.0098,0.3106 -2e-6,7.0501 1.721983,12.7575 4.648438,16.6894 2.517679,3.3826 5.950148,5.4778 9.753906,6.4238 -1.025446,1.5395 -2.054524,2.7477 -2.774073,3.4414 -0.942832,0.9089 -1.05124,1.0151 -1.507254,1.4183 -0.959147,0.8478 -2.13999,2.4618 -2.13999,2.4618 l 2.886161,0.014 16.60537,0 2.841518,0 c 0,0 -1.810786,-2.1839 -2.184633,-2.5223 -0.459408,-0.4158 -0.495285,-0.4747 -1.449219,-1.3873 -0.726511,-0.695 -1.754672,-1.8976 -2.772119,-3.4218 3.810235,-0.9406 7.250564,-3.0332 9.773437,-6.4161 2.932868,-3.9326 4.658205,-9.6438 4.658204,-16.703 0,-0.1759 -0.0096,-0.2798 -0.0098,-0.3106 l -0.0078,-1.2422 -35.802637,0 -1.259765,0 z"
       id="path4234"
       inkscape:connector-curvature="0"
       sodipodi:nodetypes="cccssccsccccsccssccccc" />
    <path
       inkscape:connector-curvature="0"
       style="opacity:0.98999999;fill:#1170ff;fill-opacity:1;stroke:none;stroke-width:2;stroke-miterlimit:4;stroke-dasharray:none;stroke-opacity:1"
       d="m 51.47575,1013.9953 c -7.12e-4,0.1004 -0.0098,0.2025 -0.0098,0.3027 -5e-6,13.6942 6.673974,20.9362 15.183594,22.125 -2.910053,5.0534 -5.566406,6.4902 -5.566406,6.4902 l 16.226562,0 c 0,0 -2.718331,-1.4689 -5.597656,-6.4863 8.525451,-1.1746 15.214846,-8.4169 15.214844,-22.1289 0,-0.1002 -0.0091,-0.2023 -0.0098,-0.3027 l -35.441406,0 z"
       id="path3336-1-7" />
  </g>
</svg>
