<!--Created with Inkscape (http://www.inkscape.org/)--><svg width="100" height="100" version="1.0" id="svg62" xmlns="http://www.w3.org/2000/svg" xmlns:rdf="http://www.w3.org/1999/02/22-rdf-syntax-ns#" xmlns:cc="http://creativecommons.org/ns#" xmlns:dc="http://purl.org/dc/elements/1.1/"><metadata id="metadata4"><rdf:RDF><cc:Work><dc:format>image/svg+xml</dc:format><dc:type rdf:resource="http://purl.org/dc/dcmitype/StillImage"/><dc:date>2015-2024</dc:date><dc:creator><cc:Agent><dc:title>Timothée Giet</dc:title></cc:Agent></dc:creator><cc:license rdf:resource="http://creativecommons.org/licenses/by-sa/4.0/"/></cc:Work><cc:License rdf:about="http://creativecommons.org/licenses/by-sa/4.0/"><cc:permits rdf:resource="http://creativecommons.org/ns#Reproduction"/><cc:permits rdf:resource="http://creativecommons.org/ns#Distribution"/><cc:requires rdf:resource="http://creativecommons.org/ns#Notice"/><cc:requires rdf:resource="http://creativecommons.org/ns#Attribution"/><cc:permits rdf:resource="http://creativecommons.org/ns#DerivativeWorks"/><cc:requires rdf:resource="http://creativecommons.org/ns#ShareAlike"/></cc:License></rdf:RDF></metadata><g id="g60"><path style="fill:none;fill-opacity:.75;fill-rule:evenodd;stroke:#000;stroke-linecap:butt;stroke-linejoin:miter;stroke-opacity:1;stroke-width:1,0" d="m8 13077 17 68221L8 13077l82 535605M18 13077l7 68221-7-68221 72 535605M28 13077l-3 68221 3-68221 62 535605M38 13077 25 81298l13-68221 52 535605M48 13077 25 81298l23-68221 42 535605M58 13077 25 81298l33-68221 32 535605M68 13077 25 81298l43-68221 22 535605M78 13077 25 81298l53-68221 12 535605M88 13077 25 81298l63-68221 2 535605m8-535605L25 81298l73-68221-8 535605M3 13077l27 68221 72 416194L30 81298M3 13077l37 68221 62 416194L40 81298M3 13077l47 68221 52 416194L50 81298M3 13077l57 68221 42 416194L60 81298M3 13077l67 68221 32 416194L70 81298M3 13077l77 68221 22 416194L80 81298M3 13077l87 68221 12 416194L90 81298" id="path6"/><path style="fill:none;fill-opacity:.75;fill-rule:evenodd;stroke:#000;stroke-linecap:butt;stroke-linejoin:miter;stroke-opacity:1;stroke-width:1,0" d="m8 13077 17 68221L8 13077l82 535605M13 213077 25 81298 13 213077l77 335605M18 413077l7-331779-7 331779 72 135605m-67 64395 2-531779-2 531779 67-64395M28 813077 25 81298l3 731779 62-264395M34 13076l-9 68222 9-68222 56 535606M39 213076 25 81298l14 131778 51 335606M44 413076 25 81298l19 331778 46 135606m-41 64394L25 81298l24 531778 41-64394M54 813076 25 81298l29 731778 36-264394M60 13075 25 81298l35-68223 30 535607M65 213075 25 81298l40 131777 25 335607M70 413075 25 81298l45 331777 20 135607m-15 64393L25 81298l50 531777 15-64393M80 813075 25 81298l55 731777 10-264393M86 13074 25 81298l61-68224 4 535608m1-335608L25 81298l66 131776-1 335608m6-135608L25 81298l71 331776-6 135608m11 64392L25 81298l76 531776-11-64392M3 13077l27 68221 72 416194L30 81298M3 13077l37 68221 62 416194L40 81298M3 13077l47 68221 52 416194L50 81298M3 13077l57 68221 42 416194L60 81298M3 13077l67 68221 32 416194L70 81298M3 13077l77 68221 22 416194L80 81298M3 13077l87 68221 12 416194L90 81298" id="path8"/><path style="fill:#906625;fill-opacity:1;fill-rule:evenodd;stroke:none;stroke-width:2.27919" d="M27.853 38.738c2.598-2.09 4.301-3.865 4.187-5.896-.08-1.427-.474-2.838-2.03-3.943-3.069-2.179-4.304-1.463-7.066-.675-1.026.294-1.31.256-2.108-.05-1.646-.631-2.469-3.733-2.804-3.788-1.919-.3-3.127 7.316-1.816 11.88 1.308 4.565 7.521 5.78 11.637 2.472z" id="path26"/><path style="fill:#cf9740;fill-opacity:1;fill-rule:evenodd;stroke:none;stroke-width:2.27919" d="M27.338 37.934c2.266-1.82 3.747-3.367 3.647-5.138-.069-1.242-.41-2.47-1.769-3.434-2.671-1.899-4.333-.734-6.74-.046-.893.255-1.141.221-1.836-.046-1.436-.547-1.566-2.23-2.441-3.297-1.673-.263-2.143 5.832-1.001 9.807 1.14 3.977 6.555 5.037 10.14 2.154z" id="path28"/><path style="fill:#aa4033;fill-opacity:1;fill-rule:evenodd;stroke:none;stroke-width:2.27919" d="m68.644 89.569 2.835 3.16c1.003 3.618-3.911 5.129-6.662 2.002l-1.99-2.598c1.117-.333 1.949-.648 3.273-1.27 1.242-.56 1.687-.83 2.544-1.294z" id="path30"/><path style="fill:#e25c4b;fill-opacity:1;fill-rule:evenodd;stroke:none;stroke-width:2.27919" d="m68.138 90.783 1.834 2.043c.648 2.336-2.53 3.313-4.307 1.292l-1.283-1.68a13.63 13.63 0 0 0 2.115-.82c.802-.363 1.09-.536 1.64-.837z" id="path32"/><path style="fill:#91573c;fill-opacity:1;fill-rule:evenodd;stroke:none;stroke-width:2.27919" d="M50.497 40.619c-4.969-.014-9.486.654-12.278 1.8-1.735.716 1.247.502 6.181 4.46 21.908 17.589-17.611-.262-25.45 14.906-7.84 15.166 8.47 31.423 28.39 32.517 19.92 1.094 39.64-11.22 38.785-29.597-.415-8.941-7.902-15.469-16.902-20.191-5.197-2.724-12.335-3.875-18.726-3.895zM48.89 59.855c1.611.048 2.838.556 3.15 1.44.497 1.413-1.536 3.257-4.545 4.117-3.008.856-5.848.407-6.347-1.008-.497-1.413 1.536-3.26 4.544-4.116 1.126-.321 2.232-.46 3.198-.433z" id="path34"/><path style="fill:#ca734c;fill-opacity:1;fill-rule:evenodd;stroke:none;stroke-width:2.27919" d="M48.828 41.523c-2.696.055-5.105.456-6.965 1.222-1.616.663 1.163.463 5.758 4.15 20.398 16.379-19.43 2.056-26.728 16.18-7.3 14.124 8.177 28.33 26.728 29.347 18.548 1.019 36.91-10.445 36.115-27.56-.387-8.326-7.359-14.404-15.74-18.8-5.912-3.1-13.235-4.662-19.168-4.539zm.324 17.078c2.626-.073 4.684.661 5.17 2.042.706 2.006-2.182 4.623-6.448 5.842-4.267 1.217-8.301.579-9.008-1.429-.706-2.006 2.181-4.622 6.448-5.842a15.694 15.694 0 0 1 3.838-.613z" id="path36"/><path style="fill:#ebdc4f;fill-opacity:.532203;fill-rule:evenodd;stroke:none;stroke-width:2.27919" d="M32.355 65.97c-3.17.05-7.529 5.66-6.412 10.803 1.117 5.151 5.8 8.659 10.46 7.84 4.656-.82 12.202-8.293 6.41-10.807-5.79-2.514-7.286-7.886-10.458-7.836z" id="path38"/><path style="fill:#db3840;fill-opacity:.572881;fill-rule:evenodd;stroke:none;stroke-width:2.27919" d="M61.925 84.912c-6.516 2.931-10.156.916-11.866-3.393-1.71-4.308 1.65-9.806 6.838-11.025 5.19-1.222 8.143 2.633 9.812 5.778 1.67 3.145 1.732 5.71-4.784 8.638z" id="path40"/><path style="fill:#27d66d;fill-opacity:.767797;fill-rule:evenodd;stroke:none;stroke-width:2.27919" d="M64.894 57.753c1.676-.478 8.297 2.075 8.114-2.842 2.015-3.17 10.232 10.156 6.307 14.115-2.414 2.161-7.362.948-12.057 1.151-2.924.379-4.907-11.259-2.364-12.421z" id="path42"/><path style="fill:#aa4033;fill-opacity:1;fill-rule:evenodd;stroke:none;stroke-width:2.27919" d="m28.521 42.054 1.336-.88 1.38-.906 7.23 8.786 12.24 14.878c-.365.47-1.537.937-2.41 1.254-1.005.36-1.855.73-3.106.633-4.148-5.87-7.551-10.85-10.395-14.878a174310.84 174310.84 0 0 0-6.275-8.889z" id="path44"/><path style="fill:#e25c4b;fill-opacity:1;fill-rule:evenodd;stroke:none;stroke-width:2.27919" d="M29.991 42.054c.44-.289-.583-.583-.134-.88.455-.298.916.869 1.38.564l7.23 8.786C41.784 54.558 45.082 58.403 50 64.38c-.939.914-2.45 1.395-3.339 1.436-4.148-5.869-7.55-10.849-10.395-14.876a172645.74 172645.74 0 0 0-6.275-8.889z" id="path46"/><path style="fill:#68777c;fill-opacity:1;fill-rule:evenodd;stroke:none;stroke-width:2.27919" d="M24.822 37.496c-.146-2.022 1.22-2.24 2.584-1.79L37.96 47.91c-2.193-.454-3.239.273-3.86 2.584z" id="path48"/><path style="fill:#92a8af;fill-opacity:1;fill-rule:evenodd;stroke:none;stroke-width:2.27919" d="M25.663 37.485c.091-1.22.57-1.43 1.71-.65l8.92 10.25c-1.251-.317-1.791.237-2.411 1.527z" id="path50"/><path style="fill:#ebdc4f;fill-opacity:1;fill-rule:evenodd;stroke:none;stroke-width:2.27919" d="M32.954 67.855c-2.534.039-6.017 4.522-5.124 8.633.892 4.114 4.636 6.92 8.358 6.264 3.722-.655 9.755-6.626 5.124-8.636-4.627-2.008-5.824-6.302-8.358-6.263z" id="path52"/><path style="fill:#db3840;fill-opacity:1;fill-rule:evenodd;stroke:none;stroke-width:2.27919" d="M61.152 83.353c-4.985 2.243-7.77.702-9.078-2.596-1.308-3.298 1.263-7.5 5.233-8.433 3.968-.934 6.227 2.013 7.505 4.42 1.277 2.404 1.325 4.367-3.66 6.61z" id="path54"/><path style="fill:#27d66d;fill-opacity:1;fill-rule:evenodd;stroke:none;stroke-width:2.27919" d="M67.538 59.337c1.179-.335 5.844 1.461 5.712-2 1.42-2.234 7.202 7.151 4.44 9.937-1.698 1.522-5.183.667-8.488.811-2.058.267-3.453-7.93-1.664-8.748z" id="path56"/></g></svg>