<?xml version="1.0" encoding="UTF-8" standalone="no"?>
<!-- Created with Inkscape (http://www.inkscape.org/) -->
<svg
   xmlns:dc="http://purl.org/dc/elements/1.1/"
   xmlns:cc="http://web.resource.org/cc/"
   xmlns:rdf="http://www.w3.org/1999/02/22-rdf-syntax-ns#"
   xmlns:svg="http://www.w3.org/2000/svg"
   xmlns="http://www.w3.org/2000/svg"
   xmlns:sodipodi="http://sodipodi.sourceforge.net/DTD/sodipodi-0.dtd"
   xmlns:inkscape="http://www.inkscape.org/namespaces/inkscape"
   width="100"
   height="100"
   id="svg10790"
   sodipodi:version="0.32"
   inkscape:version="0.44.1"
   version="1.0"
   sodipodi:docbase="/home/mat/Travaux/Inkscape/Gcompris"
   sodipodi:docname="eye_colors.svg">
  <defs
     id="defs10792" />
  <sodipodi:namedview
     id="base"
     pagecolor="#ffffff"
     bordercolor="#666666"
     borderopacity="1.0"
     inkscape:pageopacity="0.0"
     inkscape:pageshadow="2"
     inkscape:zoom="5.1274672"
     inkscape:cx="59.939531"
     inkscape:cy="50.838984"
     inkscape:document-units="px"
     inkscape:current-layer="layer1"
     height="100px"
     width="100px"
     inkscape:window-width="1022"
     inkscape:window-height="927"
     inkscape:window-x="12"
     inkscape:window-y="19" />
  <metadata
     id="metadata10795">
    <rdf:RDF>
      <cc:Work
         rdf:about="">
        <dc:format>image/svg+xml</dc:format>
        <dc:type
           rdf:resource="http://purl.org/dc/dcmitype/StillImage" />
      </cc:Work>
    </rdf:RDF>
  </metadata>
  <g
     inkscape:label="Calque 1"
     inkscape:groupmode="layer"
     id="layer1">
    <g
       id="g10727"
       transform="matrix(0.974972,0,0,0.952422,-43.43383,-47.82398)"
       style="fill:#b3b3b3">
      <path
         sodipodi:nodetypes="cccccccccccccccccc"
         id="path10729"
         d="M 60.859189,57.721223 L 56.541192,58.164981 L 52.478865,59.302112 L 52.961799,65.79208 L 52.251602,72.80901 L 52.592497,76.802836 L 52.365234,83.486947 L 60.376255,83.376008 L 68.415685,83.958441 L 75.517654,83.486947 L 79.097047,82.71037 L 78.415258,76.331343 L 78.869784,68.39916 L 77.59143,61.576374 L 77.818693,57.943102 L 71.42692,58.303656 L 65.972607,58.636475 L 60.859189,57.721223 z "
         style="fill:#b3b3b3;fill-opacity:1;fill-rule:evenodd;stroke:none;stroke-width:1px;stroke-linecap:butt;stroke-linejoin:miter;stroke-opacity:1" />
      <path
         id="path10731"
         d="M 60.5,56 L 55.75,56.5 L 51.28125,57.78125 L 51.8125,65.09375 L 51.03125,73 L 51.40625,77.5 L 51.15625,85.03125 L 59.96875,84.90625 L 68.8125,85.5625 L 76.625,85.03125 L 80.5625,84.15625 L 79.8125,76.96875 L 80.3125,68.03125 L 78.90625,60.34375 L 79.15625,56.25 L 72.125,56.65625 L 66.125,57.03125 L 60.5,56 z M 61.25,58.375 L 65.9375,59.21875 L 70.9375,58.90625 L 76.78125,58.59375 L 76.5625,62.03125 L 77.75,68.46875 L 77.3125,76 L 77.9375,82 L 74.65625,82.75 L 68.1875,83.1875 L 60.84375,82.65625 L 53.5,82.75 L 53.71875,76.40625 L 53.40625,72.65625 L 54.03125,66 L 53.59375,59.875 L 57.34375,58.8125 L 61.25,58.375 z "
         style="fill:#b3b3b3;fill-opacity:1;fill-rule:evenodd;stroke:none;stroke-width:1px;stroke-linecap:butt;stroke-linejoin:miter;stroke-opacity:1" />
    </g>
    <path
       style="fill:#ff140e;fill-opacity:1;fill-rule:evenodd;stroke:none;stroke-width:1px;stroke-linecap:butt;stroke-linejoin:miter;stroke-opacity:1"
       d="M 11.795225,3.0107192 L 7.5852986,3.4333642 L 3.6246441,4.5163923 L 4.095491,10.697579 L 3.4030693,17.380655 L 3.7354326,21.184462 L 3.5138571,27.550555 L 11.324377,27.444894 L 19.162595,27.999616 L 26.086814,27.550555 L 29.576621,26.810926 L 28.911896,20.735402 L 29.355047,13.180618 L 28.108688,6.6824495 L 28.330262,3.2220413 L 22.098464,3.5654411 L 16.780663,3.8824251 L 11.795225,3.0107192 z "
       id="path10703"
       sodipodi:nodetypes="cccccccccccccccccc" />
    <path
       style="fill:black;fill-opacity:1;fill-rule:evenodd;stroke:none;stroke-width:1px;stroke-linecap:butt;stroke-linejoin:miter;stroke-opacity:1"
       d="M 11.445025,1.3713891 L 6.8139086,1.8475996 L 2.4570032,3.06789 L 1.7838756,10.330345 L 2.5788748,21.848456 L 2.3351324,29.021382 L 10.927071,28.90233 L 19.549478,29.527357 L 27.166445,29.021382 L 31.005397,28.188013 L 30.274168,21.342482 L 30.761654,12.830213 L 29.634343,1.6094947 L 22.779072,1.9964162 L 11.445025,1.3713891 z M 12.622909,6.1652908 L 21.174638,6.2244581 L 26.127703,6.2246977 L 26.03001,12.800092 L 26.347886,18.781535 L 26.063933,24.942872 L 18.791236,25.329196 L 12.524597,24.823222 L 6.8534996,24.763576 L 6.9178906,18.12591 L 6.3292576,11.193477 L 6.6471336,6.253505 L 12.622909,6.1652908 z "
       id="path10698"
       sodipodi:nodetypes="cccccccccccccccccccccccccccc" />
    <g
       id="g10803"
       transform="matrix(0.974972,0,0,0.952422,-10.22156,-48.25677)"
       style="fill:#b3b3b3">
      <path
         sodipodi:nodetypes="cccccccccccccccccc"
         id="path10805"
         d="M 60.859189,57.721223 L 56.541192,58.164981 L 52.478865,59.302112 L 52.961799,65.79208 L 52.251602,72.80901 L 52.592497,76.802836 L 52.365234,83.486947 L 60.376255,83.376008 L 68.415685,83.958441 L 75.517654,83.486947 L 79.097047,82.71037 L 78.415258,76.331343 L 78.869784,68.39916 L 77.59143,61.576374 L 77.818693,57.943102 L 71.42692,58.303656 L 65.972607,58.636475 L 60.859189,57.721223 z "
         style="fill:#b3b3b3;fill-opacity:1;fill-rule:evenodd;stroke:none;stroke-width:1px;stroke-linecap:butt;stroke-linejoin:miter;stroke-opacity:1" />
      <path
         id="path10807"
         d="M 60.5,56 L 55.75,56.5 L 51.28125,57.78125 L 51.8125,65.09375 L 51.03125,73 L 51.40625,77.5 L 51.15625,85.03125 L 59.96875,84.90625 L 68.8125,85.5625 L 76.625,85.03125 L 80.5625,84.15625 L 79.8125,76.96875 L 80.3125,68.03125 L 78.90625,60.34375 L 79.15625,56.25 L 72.125,56.65625 L 66.125,57.03125 L 60.5,56 z M 61.25,58.375 L 65.9375,59.21875 L 70.9375,58.90625 L 76.78125,58.59375 L 76.5625,62.03125 L 77.75,68.46875 L 77.3125,76 L 77.9375,82 L 74.65625,82.75 L 68.1875,83.1875 L 60.84375,82.65625 L 53.5,82.75 L 53.71875,76.40625 L 53.40625,72.65625 L 54.03125,66 L 53.59375,59.875 L 57.34375,58.8125 L 61.25,58.375 z "
         style="fill:#b3b3b3;fill-opacity:1;fill-rule:evenodd;stroke:none;stroke-width:1px;stroke-linecap:butt;stroke-linejoin:miter;stroke-opacity:1" />
    </g>
    <path
       style="fill:#ffba0e;fill-opacity:1;fill-rule:evenodd;stroke:none;stroke-width:1px;stroke-linecap:butt;stroke-linejoin:miter;stroke-opacity:1"
       d="M 45.007489,2.5779287 L 40.797563,3.0005737 L 36.836908,4.0836018 L 37.307755,10.264789 L 36.615334,16.947865 L 36.947697,20.751672 L 36.726121,27.117765 L 44.536641,27.012104 L 52.374859,27.566826 L 59.299078,27.117765 L 62.788885,26.378136 L 62.12416,20.302612 L 62.567311,12.747828 L 61.320952,6.2496591 L 61.542526,2.7892508 L 55.310728,3.1326506 L 49.992927,3.4496346 L 45.007489,2.5779287 z "
       id="path10809"
       sodipodi:nodetypes="cccccccccccccccccc" />
    <path
       style="fill:black;fill-opacity:1;fill-rule:evenodd;stroke:none;stroke-width:1px;stroke-linecap:butt;stroke-linejoin:miter;stroke-opacity:1"
       d="M 44.657289,0.93859861 L 40.026173,1.4148091 L 35.669267,2.6350995 L 34.99614,9.8975554 L 35.791139,21.415666 L 35.547397,28.588592 L 44.139335,28.469539 L 52.761742,29.094566 L 60.378709,28.588592 L 64.217661,27.755223 L 63.486432,20.909692 L 63.973918,12.397423 L 62.846607,1.1767042 L 55.991336,1.5636257 L 44.657289,0.93859861 z M 45.835173,5.7325003 L 54.386902,5.7916676 L 59.339967,5.7919072 L 59.242274,12.367302 L 59.56015,18.348745 L 59.276197,24.510082 L 52.0035,24.896406 L 45.736861,24.390432 L 40.065764,24.330786 L 40.130155,17.69312 L 39.541522,10.760687 L 39.859398,5.8207145 L 45.835173,5.7325003 z "
       id="path10811"
       sodipodi:nodetypes="cccccccccccccccccccccccccccc" />
    <g
       id="g10813"
       transform="matrix(0.974972,0,0,0.952422,-44.8334,-14.85424)"
       style="fill:#b3b3b3">
      <path
         sodipodi:nodetypes="cccccccccccccccccc"
         id="path10815"
         d="M 60.859189,57.721223 L 56.541192,58.164981 L 52.478865,59.302112 L 52.961799,65.79208 L 52.251602,72.80901 L 52.592497,76.802836 L 52.365234,83.486947 L 60.376255,83.376008 L 68.415685,83.958441 L 75.517654,83.486947 L 79.097047,82.71037 L 78.415258,76.331343 L 78.869784,68.39916 L 77.59143,61.576374 L 77.818693,57.943102 L 71.42692,58.303656 L 65.972607,58.636475 L 60.859189,57.721223 z "
         style="fill:#b3b3b3;fill-opacity:1;fill-rule:evenodd;stroke:none;stroke-width:1px;stroke-linecap:butt;stroke-linejoin:miter;stroke-opacity:1" />
      <path
         id="path10817"
         d="M 60.5,56 L 55.75,56.5 L 51.28125,57.78125 L 51.8125,65.09375 L 51.03125,73 L 51.40625,77.5 L 51.15625,85.03125 L 59.96875,84.90625 L 68.8125,85.5625 L 76.625,85.03125 L 80.5625,84.15625 L 79.8125,76.96875 L 80.3125,68.03125 L 78.90625,60.34375 L 79.15625,56.25 L 72.125,56.65625 L 66.125,57.03125 L 60.5,56 z M 61.25,58.375 L 65.9375,59.21875 L 70.9375,58.90625 L 76.78125,58.59375 L 76.5625,62.03125 L 77.75,68.46875 L 77.3125,76 L 77.9375,82 L 74.65625,82.75 L 68.1875,83.1875 L 60.84375,82.65625 L 53.5,82.75 L 53.71875,76.40625 L 53.40625,72.65625 L 54.03125,66 L 53.59375,59.875 L 57.34375,58.8125 L 61.25,58.375 z "
         style="fill:#b3b3b3;fill-opacity:1;fill-rule:evenodd;stroke:none;stroke-width:1px;stroke-linecap:butt;stroke-linejoin:miter;stroke-opacity:1" />
    </g>
    <path
       style="fill:#2165cd;fill-opacity:1;fill-rule:evenodd;stroke:none;stroke-width:1px;stroke-linecap:butt;stroke-linejoin:miter;stroke-opacity:1"
       d="M 10.395658,35.98046 L 6.1857325,36.403105 L 2.2250773,37.486133 L 2.6959242,43.667321 L 2.0035025,50.350397 L 2.3358658,54.154204 L 2.1142903,60.520296 L 9.9248099,60.414635 L 17.763028,60.969357 L 24.687248,60.520296 L 28.177055,59.780667 L 27.51233,53.705144 L 27.95548,46.15036 L 26.709121,39.652191 L 26.930696,36.191782 L 20.698897,36.535182 L 15.381096,36.852166 L 10.395658,35.98046 z "
       id="path10819"
       sodipodi:nodetypes="cccccccccccccccccc" />
    <path
       style="fill:black;fill-opacity:1;fill-rule:evenodd;stroke:none;stroke-width:1px;stroke-linecap:butt;stroke-linejoin:miter;stroke-opacity:1"
       d="M 10.33389,34.34113 L 5.7027735,34.81734 L 1.3458682,36.037631 L 0.67274057,43.300087 L 1.4677398,54.818198 L 1.2239974,61.991124 L 9.8159359,61.872071 L 18.438344,62.497098 L 26.05531,61.991124 L 29.894262,61.157755 L 29.163033,54.312224 L 29.650519,45.799954 L 28.523208,34.579235 L 21.667938,34.966157 L 10.33389,34.34113 z M 11.511775,39.135032 L 20.063503,39.194199 L 25.016568,39.194439 L 24.918875,45.769833 L 25.236751,51.751277 L 24.952798,57.912613 L 17.680101,58.298938 L 11.413462,57.792964 L 5.7423655,57.733318 L 5.8067565,51.095652 L 5.2181231,44.163219 L 5.5359985,39.223246 L 11.511775,39.135032 z "
       id="path10821"
       sodipodi:nodetypes="cccccccccccccccccccccccccccc" />
    <g
       id="g10823"
       transform="matrix(0.974972,0,0,0.952422,-10.17897,-15.4313)"
       style="fill:#b3b3b3">
      <path
         sodipodi:nodetypes="cccccccccccccccccc"
         id="path10825"
         d="M 60.859189,57.721223 L 56.541192,58.164981 L 52.478865,59.302112 L 52.961799,65.79208 L 52.251602,72.80901 L 52.592497,76.802836 L 52.365234,83.486947 L 60.376255,83.376008 L 68.415685,83.958441 L 75.517654,83.486947 L 79.097047,82.71037 L 78.415258,76.331343 L 78.869784,68.39916 L 77.59143,61.576374 L 77.818693,57.943102 L 71.42692,58.303656 L 65.972607,58.636475 L 60.859189,57.721223 z "
         style="fill:#b3b3b3;fill-opacity:1;fill-rule:evenodd;stroke:none;stroke-width:1px;stroke-linecap:butt;stroke-linejoin:miter;stroke-opacity:1" />
      <path
         id="path10827"
         d="M 60.5,56 L 55.75,56.5 L 51.28125,57.78125 L 51.8125,65.09375 L 51.03125,73 L 51.40625,77.5 L 51.15625,85.03125 L 59.96875,84.90625 L 68.8125,85.5625 L 76.625,85.03125 L 80.5625,84.15625 L 79.8125,76.96875 L 80.3125,68.03125 L 78.90625,60.34375 L 79.15625,56.25 L 72.125,56.65625 L 66.125,57.03125 L 60.5,56 z M 61.25,58.375 L 65.9375,59.21875 L 70.9375,58.90625 L 76.78125,58.59375 L 76.5625,62.03125 L 77.75,68.46875 L 77.3125,76 L 77.9375,82 L 74.65625,82.75 L 68.1875,83.1875 L 60.84375,82.65625 L 53.5,82.75 L 53.71875,76.40625 L 53.40625,72.65625 L 54.03125,66 L 53.59375,59.875 L 57.34375,58.8125 L 61.25,58.375 z "
         style="fill:#b3b3b3;fill-opacity:1;fill-rule:evenodd;stroke:none;stroke-width:1px;stroke-linecap:butt;stroke-linejoin:miter;stroke-opacity:1" />
    </g>
    <path
       style="fill:white;fill-opacity:1;fill-rule:evenodd;stroke:none;stroke-width:1px;stroke-linecap:butt;stroke-linejoin:miter;stroke-opacity:1"
       d="M 45.05008,35.403402 L 40.840154,35.826047 L 36.879499,36.909076 L 37.350346,43.090263 L 36.657925,49.773339 L 36.990288,53.577146 L 36.768712,59.943239 L 44.579232,59.837578 L 52.41745,60.3923 L 59.341669,59.943239 L 62.831476,59.20361 L 62.166751,53.128086 L 62.609902,45.573302 L 61.363543,39.075132 L 61.585117,35.614725 L 55.353319,35.958124 L 50.035518,36.275108 L 45.05008,35.403402 z "
       id="path10829"
       sodipodi:nodetypes="cccccccccccccccccc" />
    <path
       style="fill:black;fill-opacity:1;fill-rule:evenodd;stroke:none;stroke-width:1px;stroke-linecap:butt;stroke-linejoin:miter;stroke-opacity:1"
       d="M 44.69988,33.764072 L 40.068764,34.240283 L 35.711858,35.460573 L 35.038731,42.723029 L 35.83373,54.24114 L 35.589988,61.414066 L 44.181926,61.295014 L 52.804333,61.920041 L 60.4213,61.414066 L 64.260252,60.580698 L 63.529023,53.735166 L 64.016509,45.222897 L 62.889198,34.002178 L 56.033927,34.389099 L 44.69988,33.764072 z M 45.877764,38.557974 L 54.429493,38.617141 L 59.382558,38.617381 L 59.284865,45.192776 L 59.602741,51.174219 L 59.318788,57.335556 L 52.046091,57.72188 L 45.779452,57.215906 L 40.108355,57.15626 L 40.172746,50.518594 L 39.584113,43.586161 L 39.901989,38.646188 L 45.877764,38.557974 z "
       id="path10831"
       sodipodi:nodetypes="cccccccccccccccccccccccccccc" />
    <g
       id="g11145"
       transform="matrix(0.974972,0,0,0.952422,20.98369,-48.35831)"
       style="fill:#b3b3b3">
      <path
         sodipodi:nodetypes="cccccccccccccccccc"
         id="path11147"
         d="M 60.859189,57.721223 L 56.541192,58.164981 L 52.478865,59.302112 L 52.961799,65.79208 L 52.251602,72.80901 L 52.592497,76.802836 L 52.365234,83.486947 L 60.376255,83.376008 L 68.415685,83.958441 L 75.517654,83.486947 L 79.097047,82.71037 L 78.415258,76.331343 L 78.869784,68.39916 L 77.59143,61.576374 L 77.818693,57.943102 L 71.42692,58.303656 L 65.972607,58.636475 L 60.859189,57.721223 z "
         style="fill:#b3b3b3;fill-opacity:1;fill-rule:evenodd;stroke:none;stroke-width:1px;stroke-linecap:butt;stroke-linejoin:miter;stroke-opacity:1" />
      <path
         id="path11149"
         d="M 60.5,56 L 55.75,56.5 L 51.28125,57.78125 L 51.8125,65.09375 L 51.03125,73 L 51.40625,77.5 L 51.15625,85.03125 L 59.96875,84.90625 L 68.8125,85.5625 L 76.625,85.03125 L 80.5625,84.15625 L 79.8125,76.96875 L 80.3125,68.03125 L 78.90625,60.34375 L 79.15625,56.25 L 72.125,56.65625 L 66.125,57.03125 L 60.5,56 z M 61.25,58.375 L 65.9375,59.21875 L 70.9375,58.90625 L 76.78125,58.59375 L 76.5625,62.03125 L 77.75,68.46875 L 77.3125,76 L 77.9375,82 L 74.65625,82.75 L 68.1875,83.1875 L 60.84375,82.65625 L 53.5,82.75 L 53.71875,76.40625 L 53.40625,72.65625 L 54.03125,66 L 53.59375,59.875 L 57.34375,58.8125 L 61.25,58.375 z "
         style="fill:#b3b3b3;fill-opacity:1;fill-rule:evenodd;stroke:none;stroke-width:1px;stroke-linecap:butt;stroke-linejoin:miter;stroke-opacity:1" />
    </g>
    <path
       style="fill:#85c751;fill-opacity:1;fill-rule:evenodd;stroke:none;stroke-width:1px;stroke-linecap:butt;stroke-linejoin:miter;stroke-opacity:1"
       d="M 76.212741,2.47639 L 72.002815,2.899035 L 68.04216,3.982063 L 68.513007,10.16325 L 67.820586,16.846326 L 68.152949,20.650133 L 67.931373,27.016226 L 75.741893,26.910565 L 83.580111,27.465287 L 90.50433,27.016226 L 93.994137,26.276597 L 93.329412,20.201073 L 93.772563,12.646289 L 92.526204,6.1481201 L 92.747778,2.687712 L 86.51598,3.031112 L 81.198179,3.348096 L 76.212741,2.47639 z "
       id="path11151"
       sodipodi:nodetypes="cccccccccccccccccc" />
    <path
       style="fill:black;fill-opacity:1;fill-rule:evenodd;stroke:none;stroke-width:1px;stroke-linecap:butt;stroke-linejoin:miter;stroke-opacity:1"
       d="M 75.862541,0.83706001 L 71.231425,1.31327 L 66.874519,2.533561 L 66.201392,9.7960164 L 66.996391,21.314127 L 66.752649,28.487053 L 75.344587,28.368 L 83.966994,28.993027 L 91.583961,28.487053 L 95.422913,27.653684 L 94.691684,20.808153 L 95.17917,12.295884 L 94.051859,1.075165 L 87.196588,1.462087 L 75.862541,0.83706001 z M 77.040425,5.6309613 L 85.592154,5.6901286 L 90.545219,5.6903682 L 90.447526,12.265763 L 90.765402,18.247206 L 90.481449,24.408543 L 83.208752,24.794867 L 76.942113,24.288893 L 71.271016,24.229247 L 71.335407,17.591581 L 70.746774,10.659148 L 71.06465,5.7191755 L 77.040425,5.6309613 z "
       id="path11153"
       sodipodi:nodetypes="cccccccccccccccccccccccccccc" />
    <g
       id="g11155"
       transform="matrix(0.974972,0,0,0.952422,21.02627,-15.53284)"
       style="fill:#b3b3b3">
      <path
         sodipodi:nodetypes="cccccccccccccccccc"
         id="path11157"
         d="M 60.859189,57.721223 L 56.541192,58.164981 L 52.478865,59.302112 L 52.961799,65.79208 L 52.251602,72.80901 L 52.592497,76.802836 L 52.365234,83.486947 L 60.376255,83.376008 L 68.415685,83.958441 L 75.517654,83.486947 L 79.097047,82.71037 L 78.415258,76.331343 L 78.869784,68.39916 L 77.59143,61.576374 L 77.818693,57.943102 L 71.42692,58.303656 L 65.972607,58.636475 L 60.859189,57.721223 z "
         style="fill:#b3b3b3;fill-opacity:1;fill-rule:evenodd;stroke:none;stroke-width:1px;stroke-linecap:butt;stroke-linejoin:miter;stroke-opacity:1" />
      <path
         id="path11159"
         d="M 60.5,56 L 55.75,56.5 L 51.28125,57.78125 L 51.8125,65.09375 L 51.03125,73 L 51.40625,77.5 L 51.15625,85.03125 L 59.96875,84.90625 L 68.8125,85.5625 L 76.625,85.03125 L 80.5625,84.15625 L 79.8125,76.96875 L 80.3125,68.03125 L 78.90625,60.34375 L 79.15625,56.25 L 72.125,56.65625 L 66.125,57.03125 L 60.5,56 z M 61.25,58.375 L 65.9375,59.21875 L 70.9375,58.90625 L 76.78125,58.59375 L 76.5625,62.03125 L 77.75,68.46875 L 77.3125,76 L 77.9375,82 L 74.65625,82.75 L 68.1875,83.1875 L 60.84375,82.65625 L 53.5,82.75 L 53.71875,76.40625 L 53.40625,72.65625 L 54.03125,66 L 53.59375,59.875 L 57.34375,58.8125 L 61.25,58.375 z "
         style="fill:#b3b3b3;fill-opacity:1;fill-rule:evenodd;stroke:none;stroke-width:1px;stroke-linecap:butt;stroke-linejoin:miter;stroke-opacity:1" />
    </g>
    <path
       style="fill:#83cbc6;fill-opacity:1;fill-rule:evenodd;stroke:none;stroke-width:1px;stroke-linecap:butt;stroke-linejoin:miter;stroke-opacity:1"
       d="M 76.255332,35.301863 L 72.045406,35.724508 L 68.084751,36.807537 L 68.555598,42.988724 L 67.863177,49.6718 L 68.19554,53.475607 L 67.973964,59.8417 L 75.784484,59.736039 L 83.622702,60.290761 L 90.546921,59.8417 L 94.036728,59.102071 L 93.372003,53.026547 L 93.815154,45.471763 L 92.568795,38.973593 L 92.790369,35.513186 L 86.558571,35.856585 L 81.24077,36.173569 L 76.255332,35.301863 z "
       id="path11161"
       sodipodi:nodetypes="cccccccccccccccccc" />
    <path
       style="fill:black;fill-opacity:1;fill-rule:evenodd;stroke:none;stroke-width:1px;stroke-linecap:butt;stroke-linejoin:miter;stroke-opacity:1"
       d="M 75.905132,33.662533 L 71.274016,34.138744 L 66.91711,35.359034 L 66.243983,42.62149 L 67.038982,54.139601 L 66.79524,61.312527 L 75.387178,61.193475 L 84.009585,61.818502 L 91.626552,61.312527 L 95.465504,60.479159 L 94.734275,53.633627 L 95.221761,45.121358 L 94.09445,33.900639 L 87.239179,34.28756 L 75.905132,33.662533 z M 77.083016,38.456435 L 85.634745,38.515602 L 90.58781,38.515842 L 90.490117,45.091237 L 90.807993,51.07268 L 90.52404,57.234017 L 83.251343,57.620341 L 76.984704,57.114367 L 71.313607,57.054721 L 71.377998,50.417055 L 70.789365,43.484622 L 71.107241,38.544649 L 77.083016,38.456435 z "
       id="path11163"
       sodipodi:nodetypes="cccccccccccccccccccccccccccc" />
    <g
       id="g11165"
       transform="matrix(0.974972,0,0,0.952422,-44.2487,17.63831)"
       style="fill:#b3b3b3">
      <path
         sodipodi:nodetypes="cccccccccccccccccc"
         id="path11167"
         d="M 60.859189,57.721223 L 56.541192,58.164981 L 52.478865,59.302112 L 52.961799,65.79208 L 52.251602,72.80901 L 52.592497,76.802836 L 52.365234,83.486947 L 60.376255,83.376008 L 68.415685,83.958441 L 75.517654,83.486947 L 79.097047,82.71037 L 78.415258,76.331343 L 78.869784,68.39916 L 77.59143,61.576374 L 77.818693,57.943102 L 71.42692,58.303656 L 65.972607,58.636475 L 60.859189,57.721223 z "
         style="fill:#b3b3b3;fill-opacity:1;fill-rule:evenodd;stroke:none;stroke-width:1px;stroke-linecap:butt;stroke-linejoin:miter;stroke-opacity:1" />
      <path
         id="path11169"
         d="M 60.5,56 L 55.75,56.5 L 51.28125,57.78125 L 51.8125,65.09375 L 51.03125,73 L 51.40625,77.5 L 51.15625,85.03125 L 59.96875,84.90625 L 68.8125,85.5625 L 76.625,85.03125 L 80.5625,84.15625 L 79.8125,76.96875 L 80.3125,68.03125 L 78.90625,60.34375 L 79.15625,56.25 L 72.125,56.65625 L 66.125,57.03125 L 60.5,56 z M 61.25,58.375 L 65.9375,59.21875 L 70.9375,58.90625 L 76.78125,58.59375 L 76.5625,62.03125 L 77.75,68.46875 L 77.3125,76 L 77.9375,82 L 74.65625,82.75 L 68.1875,83.1875 L 60.84375,82.65625 L 53.5,82.75 L 53.71875,76.40625 L 53.40625,72.65625 L 54.03125,66 L 53.59375,59.875 L 57.34375,58.8125 L 61.25,58.375 z "
         style="fill:#b3b3b3;fill-opacity:1;fill-rule:evenodd;stroke:none;stroke-width:1px;stroke-linecap:butt;stroke-linejoin:miter;stroke-opacity:1" />
    </g>
    <path
       style="fill:#8d5fd3;fill-opacity:1;fill-rule:evenodd;stroke:none;stroke-width:1px;stroke-linecap:butt;stroke-linejoin:miter;stroke-opacity:1"
       d="M 10.980357,68.47301 L 6.7704316,68.895655 L 2.8097766,69.978683 L 3.2806226,76.159871 L 2.5882016,82.842947 L 2.9205646,86.646754 L 2.6989896,93.012846 L 10.509509,92.907185 L 18.347727,93.461907 L 25.271947,93.012846 L 28.761754,92.273217 L 28.097029,86.197694 L 28.540179,78.64291 L 27.29382,72.144741 L 27.515395,68.684332 L 21.283596,69.027732 L 15.965795,69.344716 L 10.980357,68.47301 z "
       id="path11171"
       sodipodi:nodetypes="cccccccccccccccccc" />
    <path
       style="fill:black;fill-opacity:1;fill-rule:evenodd;stroke:none;stroke-width:1px;stroke-linecap:butt;stroke-linejoin:miter;stroke-opacity:1"
       d="M 10.918589,66.83368 L 6.2874726,67.30989 L 1.9305666,68.530181 L 1.2574396,75.792637 L 2.0524386,87.310748 L 1.8086966,94.483674 L 10.400635,94.364621 L 19.023043,94.989648 L 26.640009,94.483674 L 30.478961,93.650305 L 29.747732,86.804774 L 30.235218,78.292504 L 29.107907,67.071785 L 22.252637,67.458707 L 10.918589,66.83368 z M 12.096474,71.627582 L 20.648202,71.686749 L 25.601267,71.686989 L 25.503574,78.262383 L 25.82145,84.243827 L 25.537497,90.405163 L 18.2648,90.791488 L 11.998161,90.285514 L 6.3270646,90.225868 L 6.3914556,83.588202 L 5.8028216,76.655769 L 6.1206976,71.715796 L 12.096474,71.627582 z "
       id="path11173"
       sodipodi:nodetypes="cccccccccccccccccccccccccccc" />
    <g
       id="g11175"
       transform="matrix(0.974972,0,0,0.952422,-9.594271,17.06125)"
       style="fill:#b3b3b3">
      <path
         sodipodi:nodetypes="cccccccccccccccccc"
         id="path11177"
         d="M 60.859189,57.721223 L 56.541192,58.164981 L 52.478865,59.302112 L 52.961799,65.79208 L 52.251602,72.80901 L 52.592497,76.802836 L 52.365234,83.486947 L 60.376255,83.376008 L 68.415685,83.958441 L 75.517654,83.486947 L 79.097047,82.71037 L 78.415258,76.331343 L 78.869784,68.39916 L 77.59143,61.576374 L 77.818693,57.943102 L 71.42692,58.303656 L 65.972607,58.636475 L 60.859189,57.721223 z "
         style="fill:#b3b3b3;fill-opacity:1;fill-rule:evenodd;stroke:none;stroke-width:1px;stroke-linecap:butt;stroke-linejoin:miter;stroke-opacity:1" />
      <path
         id="path11179"
         d="M 60.5,56 L 55.75,56.5 L 51.28125,57.78125 L 51.8125,65.09375 L 51.03125,73 L 51.40625,77.5 L 51.15625,85.03125 L 59.96875,84.90625 L 68.8125,85.5625 L 76.625,85.03125 L 80.5625,84.15625 L 79.8125,76.96875 L 80.3125,68.03125 L 78.90625,60.34375 L 79.15625,56.25 L 72.125,56.65625 L 66.125,57.03125 L 60.5,56 z M 61.25,58.375 L 65.9375,59.21875 L 70.9375,58.90625 L 76.78125,58.59375 L 76.5625,62.03125 L 77.75,68.46875 L 77.3125,76 L 77.9375,82 L 74.65625,82.75 L 68.1875,83.1875 L 60.84375,82.65625 L 53.5,82.75 L 53.71875,76.40625 L 53.40625,72.65625 L 54.03125,66 L 53.59375,59.875 L 57.34375,58.8125 L 61.25,58.375 z "
         style="fill:#b3b3b3;fill-opacity:1;fill-rule:evenodd;stroke:none;stroke-width:1px;stroke-linecap:butt;stroke-linejoin:miter;stroke-opacity:1" />
    </g>
    <path
       style="fill:#d45500;fill-opacity:1;fill-rule:evenodd;stroke:none;stroke-width:1px;stroke-linecap:butt;stroke-linejoin:miter;stroke-opacity:1"
       d="M 45.634779,67.895952 L 41.424853,68.318597 L 37.464198,69.401626 L 37.935045,75.582813 L 37.242624,82.265889 L 37.574987,86.069696 L 37.353411,92.435789 L 45.163931,92.330128 L 53.002149,92.88485 L 59.926368,92.435789 L 63.416175,91.69616 L 62.75145,85.620636 L 63.194601,78.065852 L 61.948242,71.567682 L 62.169816,68.107275 L 55.938018,68.450674 L 50.620217,68.767658 L 45.634779,67.895952 z "
       id="path11181"
       sodipodi:nodetypes="cccccccccccccccccc" />
    <path
       style="fill:black;fill-opacity:1;fill-rule:evenodd;stroke:none;stroke-width:1px;stroke-linecap:butt;stroke-linejoin:miter;stroke-opacity:1"
       d="M 45.284579,66.256622 L 40.653463,66.732833 L 36.296557,67.953123 L 35.62343,75.215579 L 36.418429,86.73369 L 36.174687,93.906616 L 44.766625,93.787564 L 53.389032,94.412591 L 61.005999,93.906616 L 64.844951,93.073248 L 64.113722,86.227716 L 64.601208,77.715447 L 63.473897,66.494728 L 56.618626,66.881649 L 45.284579,66.256622 z M 46.462463,71.050524 L 55.014192,71.109691 L 59.967257,71.109931 L 59.869564,77.685326 L 60.18744,83.666769 L 59.903487,89.828106 L 52.63079,90.21443 L 46.364151,89.708456 L 40.693054,89.64881 L 40.757445,83.011144 L 40.168812,76.078711 L 40.486688,71.138738 L 46.462463,71.050524 z "
       id="path11183"
       sodipodi:nodetypes="cccccccccccccccccccccccccccc" />
    <g
       id="g11185"
       transform="matrix(0.974972,0,0,0.952422,21.61097,16.95971)"
       style="fill:#b3b3b3">
      <path
         sodipodi:nodetypes="cccccccccccccccccc"
         id="path11187"
         d="M 60.859189,57.721223 L 56.541192,58.164981 L 52.478865,59.302112 L 52.961799,65.79208 L 52.251602,72.80901 L 52.592497,76.802836 L 52.365234,83.486947 L 60.376255,83.376008 L 68.415685,83.958441 L 75.517654,83.486947 L 79.097047,82.71037 L 78.415258,76.331343 L 78.869784,68.39916 L 77.59143,61.576374 L 77.818693,57.943102 L 71.42692,58.303656 L 65.972607,58.636475 L 60.859189,57.721223 z "
         style="fill:#b3b3b3;fill-opacity:1;fill-rule:evenodd;stroke:none;stroke-width:1px;stroke-linecap:butt;stroke-linejoin:miter;stroke-opacity:1" />
      <path
         id="path11189"
         d="M 60.5,56 L 55.75,56.5 L 51.28125,57.78125 L 51.8125,65.09375 L 51.03125,73 L 51.40625,77.5 L 51.15625,85.03125 L 59.96875,84.90625 L 68.8125,85.5625 L 76.625,85.03125 L 80.5625,84.15625 L 79.8125,76.96875 L 80.3125,68.03125 L 78.90625,60.34375 L 79.15625,56.25 L 72.125,56.65625 L 66.125,57.03125 L 60.5,56 z M 61.25,58.375 L 65.9375,59.21875 L 70.9375,58.90625 L 76.78125,58.59375 L 76.5625,62.03125 L 77.75,68.46875 L 77.3125,76 L 77.9375,82 L 74.65625,82.75 L 68.1875,83.1875 L 60.84375,82.65625 L 53.5,82.75 L 53.71875,76.40625 L 53.40625,72.65625 L 54.03125,66 L 53.59375,59.875 L 57.34375,58.8125 L 61.25,58.375 z "
         style="fill:#b3b3b3;fill-opacity:1;fill-rule:evenodd;stroke:none;stroke-width:1px;stroke-linecap:butt;stroke-linejoin:miter;stroke-opacity:1" />
    </g>
    <path
       style="fill:#666;fill-opacity:1;fill-rule:evenodd;stroke:none;stroke-width:1px;stroke-linecap:butt;stroke-linejoin:miter;stroke-opacity:1"
       d="M 76.840031,67.794413 L 72.630105,68.217058 L 68.66945,69.300087 L 69.140297,75.481274 L 68.447876,82.16435 L 68.780239,85.968157 L 68.558663,92.33425 L 76.369183,92.228589 L 84.207401,92.783311 L 91.131623,92.33425 L 94.621423,91.594621 L 93.956703,85.519097 L 94.399853,77.964313 L 93.153493,71.466143 L 93.375073,68.005736 L 87.14327,68.349135 L 81.825469,68.666119 L 76.840031,67.794413 z "
       id="path11191"
       sodipodi:nodetypes="cccccccccccccccccc" />
    <path
       style="fill:black;fill-opacity:1;fill-rule:evenodd;stroke:none;stroke-width:1px;stroke-linecap:butt;stroke-linejoin:miter;stroke-opacity:1"
       d="M 76.489831,66.155083 L 71.858715,66.631294 L 67.501809,67.851584 L 66.828682,75.11404 L 67.623681,86.632151 L 67.379939,93.805077 L 75.971877,93.686025 L 84.594284,94.311052 L 92.211253,93.805077 L 96.050203,92.971709 L 95.318973,86.126177 L 95.806463,77.613908 L 94.679153,66.393189 L 87.823878,66.78011 L 76.489831,66.155083 z M 77.667715,70.948985 L 86.219444,71.008152 L 91.172513,71.008392 L 91.074813,77.583787 L 91.392693,83.56523 L 91.108743,89.726567 L 83.836042,90.112891 L 77.569403,89.606917 L 71.898306,89.547271 L 71.962697,82.909605 L 71.374064,75.977172 L 71.69194,71.037199 L 77.667715,70.948985 z "
       id="path11193"
       sodipodi:nodetypes="cccccccccccccccccccccccccccc" />
  </g>
</svg>
