<?xml version="1.0" encoding="UTF-8" standalone="no"?>
<!-- Created with Inkscape (http://www.inkscape.org/) -->
<svg
   xmlns:dc="http://purl.org/dc/elements/1.1/"
   xmlns:cc="http://web.resource.org/cc/"
   xmlns:rdf="http://www.w3.org/1999/02/22-rdf-syntax-ns#"
   xmlns:svg="http://www.w3.org/2000/svg"
   xmlns="http://www.w3.org/2000/svg"
   xmlns:sodipodi="http://sodipodi.sourceforge.net/DTD/sodipodi-0.dtd"
   xmlns:inkscape="http://www.inkscape.org/namespaces/inkscape"
   width="50"
   height="50"
   id="svg2"
   sodipodi:version="0.32"
   inkscape:version="0.44.1"
   version="1.0"
   sodipodi:docbase="/home/mat/Travaux/Inkscape/Gcompris/boardicons"
   sodipodi:docname="math.svg">
  <defs
     id="defs4" />
  <sodipodi:namedview
     id="base"
     pagecolor="#ffffff"
     bordercolor="#666666"
     borderopacity="1.0"
     inkscape:pageopacity="0.0"
     inkscape:pageshadow="2"
     inkscape:zoom="6.9663759"
     inkscape:cx="16.247847"
     inkscape:cy="22.972296"
     inkscape:document-units="px"
     inkscape:current-layer="layer1"
     width="50px"
     height="50px"
     inkscape:window-width="1005"
     inkscape:window-height="856"
     inkscape:window-x="63"
     inkscape:window-y="10" />
  <metadata
     id="metadata7">
    <rdf:RDF>
      <cc:Work
         rdf:about="">
        <dc:format>image/svg+xml</dc:format>
        <dc:type
           rdf:resource="http://purl.org/dc/dcmitype/StillImage" />
      </cc:Work>
    </rdf:RDF>
  </metadata>
  <g
     inkscape:label="Calque 1"
     inkscape:groupmode="layer"
     id="layer1">
    <path
       id="path8988"
       style="fill:#977247;fill-opacity:1;fill-rule:nonzero;stroke:black;stroke-width:0.72181094;stroke-linecap:butt;stroke-linejoin:miter;stroke-miterlimit:4;stroke-opacity:1"
       d="M 18.906166,43.365109 C 18.906166,43.365109 22.887956,44.863007 21.751777,45.519454 C 21.315941,46.026985 20.772865,47.237198 19.63082,47.498895 C 18.734675,47.915908 17.658664,45.956921 17.457383,46.158371 C 17.088227,46.450872 17.836208,48.088589 16.314787,47.821667 C 14.793369,47.554752 13.816533,46.797933 13.599623,45.904797 C 13.382712,45.011662 16.693947,43.688288 16.891719,42.623254 M 18.584952,43.246032 C 18.584952,43.246032 22.566745,44.743938 21.430564,45.400381 C 20.994727,45.907916 20.451651,47.118124 19.309607,47.379825 C 18.41346,47.796842 17.337449,46.0164 17.136169,46.217854 C 16.767016,46.510355 17.514995,47.969516 15.993577,47.702597 C 14.472156,47.435675 13.495319,46.678863 13.278408,45.785724 C 13.061499,44.892588 16.372732,43.569214 16.570506,42.504176"
       sodipodi:nodetypes="cccccccccccccc" />
    <path
       id="path8978"
       style="fill:#977247;fill-opacity:1;fill-rule:nonzero;stroke:black;stroke-width:0.72181094;stroke-linecap:butt;stroke-linejoin:miter;stroke-miterlimit:4;stroke-opacity:1"
       d="M 31.992573,43.552214 C 31.992573,43.552214 28.010782,45.050116 29.14696,45.706563 C 29.582797,46.214094 30.125873,47.424303 31.267918,47.686003 C 32.164063,48.10302 33.240073,46.14403 33.441356,46.34548 C 33.810512,46.637981 33.06253,48.275694 34.583951,48.008776 C 36.105369,47.741857 37.082205,46.985042 37.299114,46.091906 C 37.516025,45.198771 34.204789,43.875396 34.007018,42.810358 M 32.313786,43.43314 C 32.313786,43.43314 28.331993,44.931046 29.468174,45.587489 C 29.90401,46.095024 30.447087,47.305233 31.589131,47.56693 C 32.485277,47.983946 33.56129,46.203509 33.762567,46.404962 C 34.131723,46.697464 33.383744,48.156625 34.905162,47.889706 C 36.426583,47.622783 37.403419,46.865968 37.620331,45.972833 C 37.83724,45.079697 34.526006,43.756323 34.328232,42.691285"
       sodipodi:nodetypes="cccccccccccccc" />
    <g
       style="fill:white;fill-opacity:1"
       id="g9006"
       transform="matrix(0.240604,0,0,0.240604,9.88376,-22.63998)">
      <path
         style="fill:white;fill-opacity:1;fill-rule:evenodd;stroke:black;stroke-width:3;stroke-linecap:round;stroke-linejoin:round;stroke-miterlimit:4;stroke-opacity:1"
         d="M 43.912178,150.09499 C 0.41278786,170.72439 5.4904579,232.82202 24.785808,252.26662 C 40.901478,276.65986 100.85496,273.80256 111.04659,246.06431 C 131.32149,224.73779 93.540858,120.47483 43.912178,150.09499 z "
         id="path9008"
         sodipodi:nodetypes="cccc" />
      <path
         style="fill:white;fill-opacity:1;fill-rule:evenodd;stroke:black;stroke-width:3;stroke-linecap:round;stroke-linejoin:round;stroke-miterlimit:4;stroke-opacity:1"
         d="M 45.779162,151.09499 C 2.2797715,171.72439 7.3574415,233.82202 26.652792,253.26662 C 42.768462,277.65986 102.72194,274.80256 112.91357,247.06431 C 133.18847,225.73779 95.407842,121.47483 45.779162,151.09499 z "
         id="path9010"
         sodipodi:nodetypes="cccc" />
    </g>
    <path
       style="fill:white;fill-opacity:1;fill-rule:evenodd;stroke:black;stroke-width:1.08271635;stroke-linecap:butt;stroke-linejoin:miter;stroke-miterlimit:4;stroke-dasharray:none;stroke-opacity:1"
       d="M 14.362327,22.621888 C 10.96736,19.691509 16.582887,11.761097 20.000094,15.971411"
       id="path9012"
       sodipodi:nodetypes="cc" />
    <path
       style="fill:white;fill-opacity:1;fill-rule:evenodd;stroke:black;stroke-width:1.11807156;stroke-linecap:butt;stroke-linejoin:miter;stroke-miterlimit:4;stroke-dasharray:none;stroke-opacity:1"
       d="M 34.657926,20.78274 C 38.301604,19.565844 41.082083,28.506248 36.545517,29.047583"
       id="path9034"
       sodipodi:nodetypes="cc" />
    <path
       style="fill:white;fill-opacity:1;fill-rule:evenodd;stroke:black;stroke-width:1.07945311;stroke-linecap:butt;stroke-linejoin:miter;stroke-miterlimit:4;stroke-dasharray:none;stroke-opacity:1"
       d="M 34.302256,20.755783 C 37.061905,17.941211 31.381047,11.589268 28.713455,15.508371"
       id="path9038"
       sodipodi:nodetypes="cc"
       inkscape:transform-center-x="3.8105048"
       inkscape:transform-center-y="-3.1176845" />
    <path
       style="fill:white;fill-opacity:1;fill-rule:evenodd;stroke:black;stroke-width:1.02692819;stroke-linecap:butt;stroke-linejoin:miter;stroke-miterlimit:4;stroke-dasharray:none;stroke-opacity:1"
       d="M 36.586352,29.129537 C 39.946518,30.134227 40.032057,39.187863 36.093042,37.119303"
       id="path9040"
       sodipodi:nodetypes="cc" />
    <path
       style="fill:white;fill-opacity:1;fill-rule:evenodd;stroke:black;stroke-width:1.07945311;stroke-linecap:butt;stroke-linejoin:miter;stroke-miterlimit:4;stroke-dasharray:none;stroke-opacity:1"
       d="M 14.518053,34.324594 C 10.668672,35.172987 8.2932331,26.989063 13.030449,26.804151"
       id="path9042"
       sodipodi:nodetypes="cc" />
    <path
       id="path8990"
       style="fill:white;fill-opacity:1;fill-rule:nonzero;stroke:black;stroke-width:0.72181094;stroke-linecap:butt;stroke-linejoin:miter;stroke-miterlimit:4;stroke-opacity:1"
       d="M 19.778366,41.797403 C 19.816261,42.80093 18.665013,42.574315 18.702906,43.577845 C 18.702906,43.577845 16.490688,43.901024 16.688459,42.83599 C 16.891348,41.743396 17.853866,39.588018 16.115197,39.178274 M 20.586474,41.016434 C 20.624366,42.01996 18.3438,42.455245 18.381693,43.458771 C 18.381693,43.458771 16.169472,43.78195 16.367246,42.716912 C 16.570132,41.624323 17.653513,40.801986 15.914844,40.392239"
       sodipodi:nodetypes="cccccccc" />
    <path
       style="fill:white;fill-opacity:1;fill-rule:evenodd;stroke:black;stroke-width:1.07945311;stroke-linecap:butt;stroke-linejoin:miter;stroke-miterlimit:4;stroke-dasharray:none;stroke-opacity:1"
       d="M 19.266746,39.863366 C 16.245997,42.395669 10.35529,36.237834 14.47006,33.883244"
       id="path9044"
       sodipodi:nodetypes="cc" />
    <path
       style="fill:white;fill-opacity:1;fill-rule:evenodd;stroke:black;stroke-width:0.96241456;stroke-linecap:butt;stroke-linejoin:miter;stroke-miterlimit:4;stroke-dasharray:none;stroke-opacity:1"
       d="M 28.466512,41.104961 C 27.84838,45.565122 17.698686,44.921793 19.423206,39.767969"
       id="path9046"
       sodipodi:nodetypes="cc" />
    <path
       id="path8986"
       style="fill:white;fill-opacity:1;fill-rule:nonzero;stroke:black;stroke-width:0.72181094;stroke-linecap:butt;stroke-linejoin:miter;stroke-miterlimit:4;stroke-opacity:1"
       d="M 31.385997,42.727997 C 31.348101,43.731523 32.002928,42.898173 31.965036,43.901699 C 31.965036,43.901699 34.177253,44.224881 33.979482,43.159844 C 33.776592,42.06725 32.427968,41.401139 34.16664,40.991396 M 31.350101,42.608924 C 31.312208,43.61245 32.324141,42.779099 32.286249,43.782625 C 32.286249,43.782625 34.49847,44.105808 34.300696,43.04077 C 34.097809,41.948177 33.014428,41.12584 34.753096,40.716093"
       sodipodi:nodetypes="cccccccc" />
    <path
       style="fill:white;fill-opacity:1;fill-rule:evenodd;stroke:black;stroke-width:1.07945311;stroke-linecap:butt;stroke-linejoin:miter;stroke-miterlimit:4;stroke-dasharray:none;stroke-opacity:1"
       d="M 35.990817,37.579119 C 37.569062,41.19113 30.000581,45.107432 28.901196,40.495841"
       id="path9048"
       sodipodi:nodetypes="cc" />
    <path
       id="path8976"
       style="fill:#977247;fill-opacity:1;fill-rule:nonzero;stroke:black;stroke-width:0.72181094;stroke-linecap:butt;stroke-linejoin:miter;stroke-miterlimit:4;stroke-opacity:1"
       d="M 10.842101,22.035977 C 10.842101,22.035977 9.4825178,17.844905 8.5167198,18.865517 C 7.8268418,19.215663 6.2455537,19.558525 5.7720408,20.648792 C 5.1361109,21.470077 8.5827208,22.8213 8.3052628,22.988337 C 7.8925248,23.307129 4.805067,22.333178 4.9430846,23.88517 C 5.0810995,25.437161 5.9009275,26.528307 6.9886028,26.887863 C 8.0762808,27.247418 10.154372,24.177616 11.510003,24.153722 M 10.949574,22.373789 C 10.949574,22.373789 9.5899908,18.182715 8.6241958,19.203327 C 7.9343148,19.553475 6.3530265,19.896335 5.8795136,20.986601 C 5.2435863,21.807887 8.6901958,23.15911 8.4127358,23.326144 C 7.9999978,23.644939 4.9125421,22.67099 5.0505573,24.22298 C 5.1885723,25.774972 6.0084025,26.866118 7.0960782,27.225673 C 8.1837538,27.585229 10.261847,24.515429 11.617478,24.491536"
       sodipodi:nodetypes="cccccccccccccc" />
    <path
       id="path8980"
       style="fill:white;fill-opacity:1;fill-rule:nonzero;stroke:black;stroke-width:0.72181094;stroke-linecap:butt;stroke-linejoin:miter;stroke-miterlimit:4;stroke-opacity:1"
       d="M 14.362566,22.393343 C 13.114025,22.193467 12.331272,22.305345 11.082731,22.10547 C 11.082731,22.10547 10.395004,24.24711 11.750635,24.223216 C 13.141338,24.198705 13.007907,24.052467 13.296417,25.843007 M 14.731849,22.615134 C 13.483308,22.41526 12.438745,22.643152 11.190207,22.443283 C 11.190207,22.443283 10.502479,24.584919 11.85811,24.561029 C 13.248814,24.536517 12.849472,24.105666 13.137982,25.896205"
       sodipodi:nodetypes="cccccccc" />
    <path
       id="path8982"
       style="fill:#977247;fill-opacity:1;fill-rule:nonzero;stroke:black;stroke-width:0.72181094;stroke-linecap:butt;stroke-linejoin:miter;stroke-miterlimit:4;stroke-opacity:1"
       d="M 38.973005,22.965205 C 38.973005,22.965205 38.840331,18.561124 40.093625,19.196462 C 40.86116,19.293579 42.465477,19.083369 43.278777,19.950223 C 44.154323,20.509092 41.364876,22.942995 41.682397,23.006731 C 42.178444,23.167748 44.756922,21.210098 45.150117,22.717785 C 45.543308,24.225472 45.139256,25.529104 44.23643,26.234243 C 43.333601,26.939382 40.342376,24.749701 39.058023,25.18415 M 38.985694,23.319475 C 38.985694,23.319475 38.853015,18.915389 40.106314,19.550729 C 40.873842,19.647849 42.478159,19.437636 43.291458,20.304492 C 44.167004,20.863362 41.869837,22.720957 42.187362,22.784692 C 42.683402,22.945707 44.769604,21.564365 45.162802,23.072053 C 45.555989,24.579742 45.151941,25.883374 44.249111,26.588513 C 43.346282,27.293653 40.355058,25.103971 39.070711,25.538421"
       sodipodi:nodetypes="cccccccccccccc" />
    <g
       id="g3065"
       transform="matrix(0.206239,-1.581764e-2,1.839919e-2,0.239899,-132.7122,-51.35183)"
       style="fill:white;fill-opacity:1">
      <path
         inkscape:transform-center-y="-1.4778979"
         inkscape:transform-center-x="3.4697407"
         sodipodi:nodetypes="cc"
         id="path3059"
         d="M 726.00271,279.13067 C 725.13887,266.13019 706.99148,266.24905 709.79256,281.44472"
         style="fill:white;fill-opacity:1;fill-rule:evenodd;stroke:black;stroke-width:4;stroke-linecap:butt;stroke-linejoin:miter;stroke-miterlimit:4;stroke-dasharray:none;stroke-opacity:1" />
      <path
         inkscape:transform-center-y="-2.595119"
         inkscape:transform-center-x="3.9451526"
         sodipodi:nodetypes="cc"
         id="path3061"
         d="M 742.63993,280.92995 C 745.4616,268.21 728.01106,263.228 726.43223,278.5988"
         style="fill:white;fill-opacity:1;fill-rule:evenodd;stroke:black;stroke-width:4;stroke-linecap:butt;stroke-linejoin:miter;stroke-miterlimit:4;stroke-dasharray:none;stroke-opacity:1" />
      <path
         inkscape:transform-center-y="-2.6254546"
         inkscape:transform-center-x="3.9052362"
         sodipodi:nodetypes="cc"
         id="path3063"
         d="M 758.51175,285.92995 C 763.99219,274.10948 748.01358,265.50567 743.1794,280.18167"
         style="fill:white;fill-opacity:1;fill-rule:evenodd;stroke:black;stroke-width:4;stroke-linecap:butt;stroke-linejoin:miter;stroke-miterlimit:4;stroke-dasharray:none;stroke-opacity:1" />
    </g>
    <g
       id="g3209"
       transform="matrix(0.22359,-8.886859e-2,8.886859e-2,0.22359,-127.195,-22.39068)"
       style="fill:#ffb869;fill-opacity:1">
      <path
         inkscape:transform-center-y="10.574156"
         inkscape:transform-center-x="2.0200813"
         sodipodi:nodetypes="cc"
         id="path3108"
         d="M 511.74207,346.69599 C 458.4468,359.78462 438.37201,303.15633 521.27504,331.71102"
         style="fill:#ffb869;fill-opacity:1;fill-rule:evenodd;stroke:black;stroke-width:2.5;stroke-linecap:round;stroke-linejoin:round;stroke-miterlimit:4;stroke-dasharray:none;stroke-opacity:1" />
      <path
         inkscape:transform-center-y="10.574156"
         inkscape:transform-center-x="2.0200813"
         sodipodi:nodetypes="cc"
         id="path3198"
         d="M 511.60288,346.66916 C 462.46961,360.59482 438.835,302.52071 522.23114,330.86278"
         style="fill:#ffb869;fill-opacity:1;fill-rule:evenodd;stroke:black;stroke-width:2.5;stroke-linecap:round;stroke-linejoin:round;stroke-miterlimit:4;stroke-dasharray:none;stroke-opacity:1" />
      <path
         inkscape:transform-center-y="10.574156"
         inkscape:transform-center-x="2.0200813"
         sodipodi:nodetypes="cc"
         id="path3204"
         d="M 510.82587,347.08976 C 463.88215,362.70289 437.3699,301.4273 522.31775,329.97751"
         style="fill:#ffb869;fill-opacity:1;fill-rule:evenodd;stroke:black;stroke-width:2.5;stroke-linecap:round;stroke-linejoin:round;stroke-miterlimit:4;stroke-dasharray:none;stroke-opacity:1" />
    </g>
    <g
       id="g3098"
       transform="matrix(0.240604,0,0,0.240604,-167.3159,-52.52533)">
      <path
         inkscape:transform-center-y="3.3623047"
         inkscape:transform-center-x="1.287519"
         sodipodi:nodetypes="cc"
         id="path3094"
         d="M 773.71554,257.33692 C 720.08082,285.71964 712.16957,251.52054 773.43607,247.46425"
         style="fill:white;fill-opacity:0.62608696;fill-rule:evenodd;stroke:black;stroke-width:2.02413583;stroke-linecap:round;stroke-linejoin:round;stroke-miterlimit:4;stroke-dasharray:none;stroke-opacity:1" />
      <path
         inkscape:transform-center-y="3.3623047"
         inkscape:transform-center-x="1.287519"
         sodipodi:nodetypes="cc"
         id="path3096"
         d="M 753.97041,266.82978 C 714.6457,274.6158 720.2627,253.35396 773.43608,247.08454"
         style="fill:none;fill-opacity:1;fill-rule:evenodd;stroke:black;stroke-width:2.02413583;stroke-linecap:round;stroke-linejoin:round;stroke-miterlimit:4;stroke-dasharray:none;stroke-opacity:1" />
    </g>
    <path
       id="path8954"
       style="fill:#ffb869;fill-opacity:1;fill-rule:nonzero;stroke:black;stroke-width:0.60150909;stroke-linecap:round;stroke-linejoin:round;stroke-miterlimit:4;stroke-dasharray:none;stroke-opacity:1"
       d="M 15.579608,22.881805 C 16.667327,27.544063 24.494332,32.638382 31.689669,26.298052 C 36.17997,20.344476 29.94831,12.730196 28.457251,4.9875444 C 25.281341,3.8352504 21.200651,3.9215261 19.060402,4.8657798 C 17.957824,15.543244 14.898318,17.877973 15.579608,22.881805 z "
       sodipodi:nodetypes="ccccc" />
    <path
       d="M 19.265372,25.002241 C 24.754992,28.825365 28.163832,23.462627 31.001055,25.086124"
       style="fill:none;fill-opacity:0.75;fill-rule:evenodd;stroke:black;stroke-width:0.67874259;stroke-linecap:round;stroke-linejoin:round;stroke-miterlimit:4;stroke-dasharray:none;stroke-opacity:1"
       id="path3071"
       sodipodi:nodetypes="cc" />
    <path
       style="fill:black;fill-opacity:1;fill-rule:evenodd;stroke:white;stroke-width:2.31949759;stroke-linecap:round;stroke-linejoin:round;stroke-miterlimit:4;stroke-opacity:1"
       d="M 22.828852,11.976931 C 24.756955,14.704736 21.737544,12.932599 21.737544,12.932599"
       id="path3231"
       sodipodi:nodetypes="cc" />
    <path
       style="fill:black;fill-opacity:1;fill-rule:evenodd;stroke:black;stroke-width:1.42756867;stroke-linecap:round;stroke-linejoin:round;stroke-miterlimit:4;stroke-opacity:1"
       d="M 22.750189,12.549485 C 23.799805,14.447581 22.156105,13.214471 22.156105,13.214471"
       id="path3081"
       sodipodi:nodetypes="cc" />
    <g
       id="g3159"
       transform="matrix(-0.113639,-1.985791e-3,6.97138e-3,-4.398914e-2,30.59202,17.38532)"
       style="fill:white;fill-opacity:0.23043476;stroke:none;stroke-opacity:1">
      <path
         style="fill:white;fill-opacity:0.23043476;fill-rule:evenodd;stroke-width:3;stroke-linecap:round;stroke-linejoin:round;stroke-miterlimit:4"
         d="M 71.429931,245.18482 C 29.88177,213.08921 33.653439,197.54365 26.652792,253.26662 C 52.519036,309.80446 100.90294,287.41728 112.91357,247.06431 C 106.25799,209.40787 121.05862,215.56466 71.429931,245.18482 z "
         id="path3161"
         sodipodi:nodetypes="cccc" />
    </g>
    <path
       style="fill:black;fill-opacity:1;fill-rule:evenodd;stroke:white;stroke-width:2.53667188;stroke-linecap:round;stroke-linejoin:round;stroke-miterlimit:4;stroke-opacity:1"
       d="M 26.340735,11.771251 C 28.272604,15.02741 25.247296,12.912025 25.247296,12.912025"
       id="path3233"
       sodipodi:nodetypes="cc" />
    <path
       style="fill:black;fill-opacity:1;fill-rule:evenodd;stroke:black;stroke-width:1.47745085;stroke-linecap:round;stroke-linejoin:round;stroke-miterlimit:4;stroke-opacity:1"
       d="M 26.382605,12.444657 C 27.562441,14.253325 25.714815,13.078313 25.714815,13.078313"
       id="path3193"
       sodipodi:nodetypes="cc" />
    <path
       style="fill:#ffa07d;fill-opacity:1;fill-rule:evenodd;stroke:black;stroke-width:0.60150874;stroke-linecap:round;stroke-linejoin:round;stroke-miterlimit:4;stroke-dasharray:none;stroke-opacity:1"
       d="M 30.373017,9.7324766 C 39.760525,19.137339 51.880829,6.5044806 28.933709,4.9866422"
       id="path3216"
       sodipodi:nodetypes="cc"
       inkscape:transform-center-x="1.3031266"
       inkscape:transform-center-y="6.821243" />
    <path
       style="fill:none;fill-opacity:1;fill-rule:evenodd;stroke:black;stroke-width:0.60150874;stroke-linecap:round;stroke-linejoin:round;stroke-miterlimit:4;stroke-dasharray:none;stroke-opacity:1"
       d="M 30.497883,10.478391 C 40.33739,17.867074 51.422337,6.4345056 28.88668,5.4515628"
       id="path3218"
       sodipodi:nodetypes="cc"
       inkscape:transform-center-x="1.3031285"
       inkscape:transform-center-y="6.8212426" />
    <path
       style="fill:#ffb869;fill-opacity:1;fill-rule:evenodd;stroke:black;stroke-width:0.60150874;stroke-linecap:round;stroke-linejoin:round;stroke-miterlimit:4;stroke-dasharray:none;stroke-opacity:1"
       d="M 30.816957,10.732847 C 39.834214,18.121529 51.298925,6.7770339 29.311427,5.7027317"
       id="path3220"
       sodipodi:nodetypes="cc"
       inkscape:transform-center-x="1.3031267"
       inkscape:transform-center-y="6.8212431" />
    <path
       id="path3090"
       style="fill:none;fill-opacity:1;fill-rule:nonzero;stroke:black;stroke-width:0.60150909;stroke-linecap:round;stroke-linejoin:round;stroke-miterlimit:4;stroke-dasharray:none;stroke-opacity:1"
       d="M 15.960443,23.349536 C 17.048161,28.011794 24.875166,33.106113 32.070504,26.765783 C 36.560805,20.812207 30.329145,13.197927 28.838086,5.4552754 C 25.662176,4.3029814 21.581485,4.389257 19.441237,5.3335108 C 18.338658,16.010976 15.279152,18.345704 15.960443,23.349536 z "
       sodipodi:nodetypes="ccccc" />
    <g
       id="g3225"
       transform="matrix(-0.240604,0,0,0.240604,216.1444,-52.41396)">
      <path
         inkscape:transform-center-y="3.3623047"
         inkscape:transform-center-x="1.287519"
         sodipodi:nodetypes="cc"
         id="path3227"
         d="M 773.71554,257.33692 C 724.69136,294.70249 711.0686,254.36281 776.09407,247.08454"
         style="fill:white;fill-opacity:0.62608696;fill-rule:evenodd;stroke:black;stroke-width:2.02413583;stroke-linecap:round;stroke-linejoin:round;stroke-miterlimit:4;stroke-dasharray:none;stroke-opacity:1" />
      <path
         inkscape:transform-center-y="3.3623047"
         inkscape:transform-center-x="1.287519"
         sodipodi:nodetypes="cc"
         id="path3229"
         d="M 760.8974,268.06106 C 717.01612,283.82107 720.2627,253.35396 773.43608,247.08454"
         style="fill:none;fill-opacity:1;fill-rule:evenodd;stroke:black;stroke-width:2.02413583;stroke-linecap:round;stroke-linejoin:round;stroke-miterlimit:4;stroke-dasharray:none;stroke-opacity:1" />
    </g>
    <path
       d="M 19.160505,25.240657 C 24.650125,29.063785 28.058965,23.701043 30.896188,25.32454"
       style="fill:none;fill-opacity:0.75;fill-rule:evenodd;stroke:black;stroke-width:0.67874259;stroke-linecap:round;stroke-linejoin:round;stroke-miterlimit:4;stroke-dasharray:none;stroke-opacity:1"
       id="path3237"
       sodipodi:nodetypes="cc" />
    <path
       id="path3239"
       d="M 25.051928,26.245332 L 24.875561,23.085078"
       style="fill:none;fill-opacity:0.75;fill-rule:evenodd;stroke:black;stroke-width:0.48120728;stroke-linecap:round;stroke-linejoin:round;stroke-miterlimit:4;stroke-dasharray:none;stroke-opacity:1"
       sodipodi:nodetypes="cc" />
    <path
       id="path3241"
       d="M 24.712046,26.374535 L 24.535679,23.214283"
       style="fill:none;fill-opacity:0.75;fill-rule:evenodd;stroke:black;stroke-width:0.48120728;stroke-linecap:round;stroke-linejoin:round;stroke-miterlimit:4;stroke-dasharray:none;stroke-opacity:1"
       sodipodi:nodetypes="cc" />
    <g
       id="g4209"
       transform="matrix(0.92036,0,0,0.823808,40.59795,-1.79181)">
      <path
         id="path4207"
         d="M -6.7466931,47.8468 L -1.5790133,49.425813 L -3.1580266,52.727386 L -5.8854131,53.158026 L -6.1725064,56.890239 L -3.5886665,60.191813 L 0.71773331,60.478906 L 5.0241332,57.320879 L 5.4547732,53.732213 L 4.0193065,50.717733 L 5.7418662,47.129067 L 4.0193065,41.81784 L 6.9115496e-09,40.52592 L -3.7322132,40.95656 L -5.7418665,44.114587 L -6.7466931,47.8468 z "
         style="fill:#ff7b06;fill-opacity:1;fill-rule:evenodd;stroke:black;stroke-width:1px;stroke-linecap:butt;stroke-linejoin:miter;stroke-opacity:1" />
      <path
         id="path4205"
         d="M -23.828746,48.995173 L -22.393279,44.114587 L -18.804613,40.52592 L -13.780479,40.382373 L -11.053093,44.114587 L -11.483733,47.990346 L -12.632106,51.866106 L -13.780479,54.3064 L -9.4740797,54.162853 L -9.1869863,60.335359 L -22.249733,60.622453 L -22.106186,54.593493 L -20.527173,53.158026 L -21.101359,51.579013 L -23.972293,49.712906 L -23.828746,48.995173 z "
         style="fill:#ff7bff;fill-opacity:1;fill-rule:evenodd;stroke:black;stroke-width:1px;stroke-linecap:butt;stroke-linejoin:miter;stroke-opacity:1" />
      <path
         id="path4203"
         d="M -37.752772,44.688773 L -33.733466,40.95656 L -28.422239,40.813013 L -30.431892,54.162853 L -26.843226,55.16768 L -27.991599,59.474079 L -39.188239,59.761173 L -38.901145,55.16768 L -35.743119,54.3064 L -34.451199,47.8468 L -36.604399,47.559707 L -37.752772,44.688773 z "
         style="fill:#0fb8aa;fill-opacity:1;fill-rule:evenodd;stroke:none;stroke-width:1px;stroke-linecap:butt;stroke-linejoin:miter;stroke-opacity:1" />
      <path
         transform="scale(0.986117,1.014079)"
         style="font-size:23.58180809px;font-style:normal;font-variant:normal;font-weight:normal;font-stretch:normal;text-align:start;line-height:125%;writing-mode:lr-tb;text-anchor:start;fill:black;fill-opacity:1;stroke:none;stroke-width:1px;stroke-linecap:butt;stroke-linejoin:miter;stroke-opacity:1;font-family:Indigo Joker"
         d="M -25.872075,54.211624 C -25.87209,54.746147 -26.068605,55.752303 -26.46162,57.230095 C -26.93327,59.038032 -27.404906,59.942 -27.876528,59.942003 C -27.923705,59.942 -28.033753,59.926279 -28.206674,59.89484 C -28.379619,59.879116 -28.489668,59.871255 -28.536819,59.871258 C -28.599716,59.871255 -28.922,59.902697 -29.503673,59.965585 C -30.085369,60.044188 -30.407653,60.083491 -30.470527,60.083494 C -30.517701,60.083491 -30.62775,60.06777 -30.800672,60.036331 C -30.973616,60.020606 -31.099385,60.012746 -31.177981,60.012749 C -31.618185,60.012746 -32.231311,60.059909 -33.017362,60.15424 C -34.054969,60.295727 -34.699538,60.382194 -34.951071,60.413639 C -36.004396,60.539406 -37.458606,60.712339 -39.313705,60.932439 C -39.675294,60.979599 -39.981857,61.066065 -40.233396,61.191839 C -40.437772,61.113229 -40.53996,60.971738 -40.539959,60.767367 C -40.53996,60.830248 -40.477075,60.012746 -40.351305,58.314859 C -40.225536,56.475478 -40.139069,54.989826 -40.091905,53.857897 C -40.076185,53.810736 -39.989718,53.739991 -39.832505,53.645661 C -39.470919,53.551337 -39.117192,53.433428 -38.771324,53.291933 C -38.535508,53.260495 -38.181781,53.19761 -37.710142,53.103279 C -37.458606,53.024677 -37.089159,52.914629 -36.601797,52.773134 C -36.523196,52.710253 -36.468172,52.647368 -36.436725,52.584479 C -35.996536,50.131978 -35.776439,48.779956 -35.776434,48.528408 C -35.776439,48.481253 -35.831463,48.402647 -35.941507,48.29259 C -36.381705,48.638465 -37.034134,49.125822 -37.898797,49.754662 C -37.945963,49.754669 -38.024569,49.676063 -38.134615,49.518844 C -38.118896,49.125822 -38.276108,48.496974 -38.606251,47.632299 C -38.70058,47.365049 -39.313707,46.19382 -40.445632,44.11861 C -40.461354,44.102902 -40.469214,43.977132 -40.469214,43.741301 C -40.044742,43.489775 -38.991422,42.782322 -37.309252,41.618938 C -36.931947,41.288809 -36.365984,40.832894 -35.611361,40.251194 C -35.234058,39.968229 -34.652374,39.575199 -33.866308,39.072103 C -33.724824,38.962073 -33.512588,38.812721 -33.229599,38.624049 C -33.182443,38.608346 -33.048813,38.600485 -32.828708,38.600467 C -32.781553,38.600485 -32.364941,38.66337 -31.578872,38.789121 C -30.792822,38.899188 -30.36835,38.954212 -30.305455,38.954194 C -30.258302,38.954212 -30.171835,38.946352 -30.046055,38.930612 C -29.920296,38.899188 -29.825969,38.883467 -29.763073,38.883449 C -29.322891,38.883467 -28.874837,38.93063 -28.41891,39.02494 C -27.617142,39.182169 -27.216251,39.44943 -27.216238,39.826721 C -27.216251,39.873902 -27.247694,39.976089 -27.310565,40.133285 C -27.373463,40.274792 -27.404906,40.38484 -27.404892,40.46343 C -27.46779,41.453881 -27.554257,42.200638 -27.664292,42.703702 C -27.837238,43.851363 -28.135941,45.651439 -28.560401,48.103936 C -28.859116,49.188707 -29.228564,50.737244 -29.668746,52.749552 C -29.590151,52.891047 -29.417218,52.985374 -29.149946,53.032534 C -28.961303,53.06398 -28.764789,53.087562 -28.560401,53.103279 C -28.104499,53.166168 -27.640724,53.229052 -27.169074,53.291933 C -26.304422,53.480591 -25.87209,53.787155 -25.872075,54.211624 M -28.206674,55.46146 C -28.25385,55.414298 -28.324595,55.343552 -28.41891,55.249224 C -28.859116,55.154898 -29.983181,54.981965 -31.791108,54.730424 C -31.869724,54.604656 -31.909027,54.478887 -31.909017,54.353115 C -31.909027,54.526051 -31.571021,52.773138 -30.895,49.094372 C -30.706356,47.883848 -30.454816,46.296008 -30.140382,44.330846 C -30.093229,44.047878 -29.97532,43.529078 -29.786655,42.774447 C -29.613733,42.09845 -29.527266,41.736863 -29.527255,41.689684 C -29.527266,41.56393 -29.558709,41.469602 -29.621582,41.406702 L -30.824254,41.406702 C -31.924748,41.406718 -33.001649,41.485324 -34.054962,41.64252 C -34.243623,41.673978 -34.487302,41.823329 -34.785998,42.090575 C -35.068986,42.342129 -35.446294,42.719437 -35.917925,43.222501 C -36.515335,43.851363 -36.814038,44.244392 -36.814034,44.401592 C -36.814038,44.511653 -36.696129,44.865379 -36.460306,45.462773 C -36.193051,46.123075 -35.972954,46.45322 -35.800016,46.453209 C -35.752857,46.45322 -35.532761,46.351032 -35.139725,46.146646 C -34.746701,45.942281 -34.526605,45.840093 -34.479435,45.840082 C -34.33795,45.840093 -34.227902,45.895117 -34.149289,46.005155 C -34.180738,46.775504 -34.282926,47.78166 -34.455853,49.023626 C -34.754562,51.303207 -34.919634,52.608065 -34.951071,52.938206 C -34.99824,53.362682 -35.092567,53.905064 -35.234052,54.565351 C -35.265501,54.722565 -35.351967,54.801171 -35.493452,54.801169 C -35.556343,54.801171 -35.587785,54.793311 -35.58778,54.777587 L -35.58778,54.777587 C -35.587785,54.746147 -35.611367,54.730426 -35.658525,54.730424 C -35.721415,54.730426 -36.641105,54.903359 -38.417596,55.249224 C -38.653417,55.296389 -38.771326,55.374995 -38.771324,55.485042 L -38.771324,57.607404 L -33.394671,57.607404 L -29.315019,58.102622 C -29.063491,58.102621 -28.804092,57.678149 -28.536819,56.829205 C -28.363898,56.247521 -28.25385,55.791606 -28.206674,55.46146 M -8.2022994,54.588933 C -8.2023167,54.541772 -8.2101773,54.691123 -8.2258812,55.036987 C -8.2416197,55.555788 -8.2573409,56.444036 -8.2730448,57.701732 C -8.3045044,58.173367 -8.351668,58.817935 -8.4145356,59.63544 C -8.4145528,59.949861 -8.4774375,60.405775 -8.6031901,61.003185 C -8.6503706,61.113229 -9.0669821,61.207556 -9.8530259,61.286166 C -10.481889,61.349047 -11.032131,61.380489 -11.503753,61.380494 L -19.521567,61.239003 C -19.568737,61.238998 -19.694506,61.215417 -19.898876,61.168257 C -20.103257,61.136811 -20.236887,61.12109 -20.299767,61.121094 C -20.755687,61.089647 -21.219462,61.058205 -21.691094,61.026766 C -22.288503,60.963878 -22.744417,60.853829 -23.058838,60.696621 C -23.373265,60.539406 -23.530477,60.059909 -23.530475,59.258131 C -23.530477,59.226686 -23.506895,58.935844 -23.459729,58.385604 C -23.396847,57.835361 -23.357544,57.434471 -23.34182,57.182932 C -23.31038,56.648411 -23.286798,56.113891 -23.271075,55.579369 C -23.223913,54.840474 -23.090283,54.25879 -22.870184,53.834315 C -22.870187,53.661385 -22.807302,53.433428 -22.68153,53.150443 C -22.571484,53.024677 -22.374969,52.883186 -22.091984,52.72597 C -21.809006,52.553041 -21.620352,52.427272 -21.526021,52.348661 C -21.777564,52.128569 -22.272781,51.814145 -23.011675,51.405389 C -23.687689,51.028086 -24.167185,50.705801 -24.450165,50.438535 C -24.874638,50.02979 -25.086874,49.573876 -25.086874,49.07079 C -25.086874,49.133682 -25.047571,48.937168 -24.968965,48.481245 C -24.858917,47.883848 -24.560215,46.909134 -24.072856,45.5571 C -23.56978,44.189368 -22.744417,42.813764 -21.596766,41.430284 C -20.370518,39.921065 -19.222871,39.009236 -18.153822,38.694794 C -17.965175,38.600485 -17.690055,38.490437 -17.328459,38.364649 C -16.919716,38.286062 -16.416638,38.246759 -15.819223,38.24674 C -14.545817,38.246759 -13.382449,38.600485 -12.329116,39.307921 C -11.275809,40.015392 -10.607659,40.864337 -10.324662,41.854757 C -10.057417,42.750879 -9.923787,43.662708 -9.9237714,44.590246 C -9.923787,45.816511 -10.214629,47.270721 -10.796298,48.952881 C -11.315112,50.462123 -11.865354,51.601909 -12.447025,52.372243 C -12.447038,52.482296 -12.360571,52.53732 -12.187625,52.537316 C -12.124754,52.53732 -11.6767,52.490156 -10.843462,52.395825 C -9.9945323,52.285781 -9.5386178,52.230757 -9.475717,52.230752 C -9.1613093,52.230757 -8.9412126,52.27006 -8.8154264,52.348661 C -8.6267888,52.458714 -8.4695769,52.812441 -8.3437902,53.409842 C -8.2494803,53.881482 -8.2023167,54.274511 -8.2022994,54.588933 M -9.8294441,56.216078 C -9.8294598,56.153194 -9.8530416,56.003842 -9.9001896,55.768023 C -9.9316476,55.516485 -9.9552294,55.343552 -9.970935,55.249224 C -10.002393,54.966244 -10.09672,54.769729 -10.253917,54.659678 C -10.395423,54.533911 -10.654822,54.471026 -11.032116,54.471024 L -16.385187,55.296387 C -16.683899,55.170619 -16.83325,55.021268 -16.833241,54.848333 C -16.83325,54.78545 -16.558129,54.478887 -16.007878,53.928642 C -15.363319,53.284077 -14.923125,52.812441 -14.687297,52.513734 C -14.45149,52.199314 -14.160648,51.751261 -13.81477,51.169571 C -13.233097,50.226305 -12.832207,49.36164 -12.612097,48.575572 C -12.517783,48.213993 -12.415596,47.616588 -12.305534,46.783354 C -12.195499,46.044469 -12.140475,45.604275 -12.140461,45.462773 C -12.140475,44.598119 -12.321268,43.772757 -12.682843,42.986683 C -13.13877,41.980541 -13.783339,41.359554 -14.616551,41.12372 C -15.041034,40.997967 -15.614858,40.935082 -16.338023,40.935066 C -16.43236,40.935082 -16.69962,40.982246 -17.139805,41.076557 C -17.580006,41.1709 -17.815824,41.218063 -17.847259,41.218048 C -18.837702,41.312391 -19.898882,41.956959 -21.030803,43.151756 C -22.147012,44.34658 -22.736557,45.454924 -22.799439,46.476791 C -22.815163,46.602571 -22.878047,46.861971 -22.988093,47.254991 C -23.098144,47.64803 -23.153168,47.868127 -23.153166,47.915281 C -23.153168,48.418368 -23.121726,48.717071 -23.058838,48.81139 C -22.744417,49.251591 -22.304224,49.605318 -21.738257,49.872571 C -21.250904,50.092675 -20.763547,50.312772 -20.276185,50.532862 C -20.229027,50.485705 -20.181863,50.430681 -20.134694,50.367789 C -19.961767,49.062937 -19.820276,48.269017 -19.710222,47.986027 C -19.364361,47.011322 -19.049938,46.343171 -18.766949,45.981573 C -18.358205,45.494227 -17.800103,45.250549 -17.092641,45.250537 C -16.385196,45.250549 -15.866397,45.698603 -15.536242,46.5947 C -15.316155,47.192116 -15.206107,47.844545 -15.206096,48.55199 C -15.206107,49.49527 -15.355458,50.210584 -15.654151,50.697935 C -15.77993,50.886595 -16.243705,51.263904 -17.045477,51.829861 C -17.407073,52.128569 -17.949454,52.505878 -18.672622,52.961788 C -19.222871,53.134725 -19.993209,53.401985 -20.983639,53.76357 C -21.125135,53.826458 -21.274486,54.203766 -21.431694,54.895496 C -21.58891,55.587231 -21.667516,56.153194 -21.667512,56.593387 L -21.667512,58.833658 C -21.494583,59.00659 -21.305928,59.093056 -21.101548,59.093058 C -21.07011,59.093056 -20.79499,59.069474 -20.276185,59.022313 C -19.757391,58.990868 -19.411525,58.967287 -19.238586,58.951567 C -18.845562,58.951565 -18.279599,58.959426 -17.540695,58.975149 C -16.723202,58.990868 -16.361614,58.998729 -16.455932,58.998731 C -15.198246,58.998729 -13.13091,58.849378 -10.253917,58.550677 C -10.128162,58.534954 -10.025975,58.204809 -9.9473532,57.560241 C -9.8687628,57.041441 -9.8294598,56.593387 -9.8294441,56.216078 M 6.9832806,44.967555 C 6.9832658,45.014731 6.959684,45.124779 6.9125351,45.2977 C 6.881078,45.454924 6.8574962,45.572833 6.8417897,45.651428 C 6.8103327,46.484662 6.6373996,47.255 6.3229899,47.962445 C 6.087158,48.481253 5.6312435,49.220149 4.9552451,50.179135 C 5.2067713,50.446402 5.5133345,50.831571 5.8749356,51.334643 C 6.4251635,52.529459 6.7002844,53.496313 6.7002989,54.235206 C 6.7002844,55.382855 6.2915334,56.514781 5.4740448,57.630986 C 5.2696561,57.992573 5.0652806,58.35416 4.8609178,58.715749 C 4.5622026,59.234547 4.2084758,59.643298 3.7997365,59.942003 C 2.9507806,60.539406 1.9603457,60.971738 0.82842864,61.239003 C 0.13668766,61.39621 -0.39783279,61.474816 -0.77513431,61.474821 C -2.3000967,61.474816 -3.6206767,61.018902 -4.7368781,60.107076 C -6.0102975,59.069474 -6.7256116,57.662428 -6.8828226,55.885932 C -6.8985447,55.823049 -6.9378477,55.70514 -7.0007316,55.532205 C -7.047896,55.343552 -7.0714778,55.217783 -7.0714771,55.154896 L -7.0714771,52.796715 C -7.0714778,52.529459 -6.9221265,52.183593 -6.6234227,51.759116 C -6.5605391,51.664794 -6.3876061,51.546885 -6.1046229,51.405389 C -5.805922,51.248182 -5.5701042,51.169577 -5.3971687,51.169571 C -5.3342863,51.169577 -5.2871228,51.185298 -5.2556778,51.216734 C -5.2085168,51.232461 -5.1456321,51.240322 -5.0670234,51.240316 C -4.8312083,51.240322 -4.5403663,51.193158 -4.1944965,51.098825 C -3.7857492,50.988783 -3.5263495,50.870874 -3.4162968,50.745098 C -3.3062529,50.619335 -3.2512287,50.383517 -3.2512242,50.037644 C -3.2512287,49.691785 -3.439883,49.400943 -3.8171876,49.165117 C -4.5246451,48.693489 -5.5308012,48.44195 -6.835659,48.410499 C -6.9142659,48.394787 -7.047896,48.324041 -7.2365497,48.198263 C -7.4252046,48.056781 -7.5195317,47.938872 -7.5195314,47.844536 C -7.5195317,47.199976 -7.4409258,46.272426 -7.2837133,45.061882 C -7.2365503,44.951846 -7.1815261,44.810355 -7.1186407,44.63741 C -6.8985447,43.2854 -6.1046246,41.878353 -4.7368781,40.416266 C -4.5167845,40.290513 -4.1866395,40.070417 -3.7464421,39.755976 C -2.9132231,39.048539 -1.9227882,38.592625 -0.77513431,38.388231 C -0.72797777,38.372528 -0.61006885,38.333225 -0.42140719,38.270322 C -0.2327603,38.207456 -0.10699078,38.176013 -0.044098261,38.175994 C 0.96205012,38.176013 1.9524851,38.435413 2.9272096,38.954194 C 3.2887862,39.111424 3.815446,39.394405 4.5071907,39.803139 C 6.1579033,41.155179 6.9832658,42.876649 6.9832806,44.967555 M 4.8844996,45.8165 C 4.8844869,44.48021 4.3971301,43.332563 3.4224275,42.373556 C 2.4477025,41.398857 1.2528921,40.9115 -0.1620073,40.911484 C -0.57076587,40.9115 -0.82230491,40.919361 -0.91662516,40.935066 C -0.99523799,40.950803 -1.0974257,40.990106 -1.2231887,41.052975 C -1.3489648,41.100155 -1.4354313,41.123736 -1.4825886,41.12372 C -2.2529332,41.108015 -3.0389927,41.611093 -3.8407694,42.632956 C -4.4381785,43.371866 -4.9569778,44.275835 -5.3971687,45.344864 C -5.4914982,45.549251 -5.593686,46.115214 -5.7037322,47.042754 C -5.0591655,47.24714 -4.1787789,47.537982 -3.0625697,47.915281 C -2.9682473,47.537982 -2.8660596,47.168534 -2.7560062,46.806936 C -2.6302417,46.382474 -2.4808904,46.052329 -2.3079518,45.8165 C -1.8206005,45.156221 -1.2389164,44.826076 -0.56289804,44.826064 C 0.034499929,44.826076 0.537578,45.077616 0.94633768,45.580682 C 1.3079163,46.052329 1.48871,46.563268 1.4887193,47.1135 C 1.48871,48.874283 0.94632893,49.904021 -0.13842549,50.202717 C -0.46857814,50.234166 -0.79086253,50.265608 -1.1052796,50.297044 C -1.4825949,50.375656 -1.6476674,50.635056 -1.6004976,51.075243 C -1.4590131,51.201019 -1.28608,51.295346 -1.0816978,51.358225 C -0.81444431,51.421116 -0.45285695,51.531164 0.0030653553,51.68837 C 0.36464491,51.861309 0.67906871,52.183593 0.94633768,52.655225 C 1.1664256,53.06398 1.2764739,53.394125 1.276483,53.645661 C 1.2764739,54.211627 1.0406561,54.722565 0.56902875,55.178478 C 0.11310588,55.618673 -0.40569338,55.83877 -0.98737058,55.838769 C -1.6005038,55.83877 -2.1114425,55.555788 -2.5201881,54.989824 C -2.7717324,54.643959 -2.8975019,54.235208 -2.897497,53.76357 C -2.8975019,53.559197 -2.8739202,53.354822 -2.8267516,53.150443 C -2.779593,52.961792 -2.8110354,52.828162 -2.9210788,52.749552 C -3.0311321,52.749556 -3.2119257,52.741695 -3.4634604,52.72597 C -3.7150038,52.694532 -3.8643551,52.678811 -3.9115148,52.678806 C -4.3045484,52.678811 -4.6346934,52.733835 -4.9019507,52.843879 C -5.0591655,52.922489 -5.2085168,53.19761 -5.3500051,53.669242 C -5.4914982,54.12516 -5.5622436,54.478887 -5.5622414,54.730424 C -5.5622436,55.296389 -5.3342863,55.948818 -4.8783689,56.687714 C -4.7211599,56.939253 -4.4932027,57.253677 -4.1944965,57.630986 C -3.4870466,58.212669 -2.488751,58.503511 -1.1996069,58.503513 C -1.1838923,58.503511 -0.84588669,58.464209 -0.18558911,58.385604 C 0.3803661,58.322718 0.6947899,58.291275 0.75768321,58.291277 C 1.119262,58.212669 1.4808494,58.102621 1.8424464,57.961131 C 2.7228234,57.599543 3.273065,57.245816 3.493173,56.89995 C 4.1377304,55.878073 4.4600148,54.903359 4.4600271,53.975806 C 4.4600148,52.780998 4.2084758,51.892751 3.7054092,51.311062 C 3.563907,51.153855 3.3359498,50.94948 3.0215368,50.697935 C 2.7699869,50.509287 2.6442174,50.383517 2.6442279,50.320626 C 2.6442174,50.257748 2.7071022,50.147699 2.8328823,49.99048 C 2.9586412,49.833275 3.0293866,49.738948 3.0451186,49.707499 C 3.4224163,49.157264 3.7918643,48.614883 4.1534636,48.080354 C 4.6408085,47.325746 4.8844869,46.571129 4.8844996,45.8165"
         id="text4195" />
    </g>
  </g>
</svg>
