<?xml version="1.0" encoding="UTF-8" standalone="no"?>
<!-- Created with Inkscape (http://www.inkscape.org/) -->
<svg
   xmlns:dc="http://purl.org/dc/elements/1.1/"
   xmlns:cc="http://web.resource.org/cc/"
   xmlns:rdf="http://www.w3.org/1999/02/22-rdf-syntax-ns#"
   xmlns:svg="http://www.w3.org/2000/svg"
   xmlns="http://www.w3.org/2000/svg"
   xmlns:sodipodi="http://sodipodi.sourceforge.net/DTD/sodipodi-0.dtd"
   xmlns:inkscape="http://www.inkscape.org/namespaces/inkscape"
   width="100"
   height="100"
   id="svg12024"
   sodipodi:version="0.32"
   inkscape:version="0.44.1"
   version="1.0"
   sodipodi:docbase="/home/mat/Travaux/Inkscape/Gcompris/boardicons"
   sodipodi:docname="melody.svg">
  <defs
     id="defs12026" />
  <sodipodi:namedview
     id="base"
     pagecolor="#ffffff"
     bordercolor="#666666"
     borderopacity="1.0"
     inkscape:pageopacity="0.0"
     inkscape:pageshadow="2"
     inkscape:zoom="3.9854303"
     inkscape:cx="74.90418"
     inkscape:cy="23.527496"
     inkscape:document-units="px"
     inkscape:current-layer="layer1"
     height="100px"
     width="100px"
     inkscape:window-width="1015"
     inkscape:window-height="891"
     inkscape:window-x="30"
     inkscape:window-y="23" />
  <metadata
     id="metadata12029">
    <rdf:RDF>
      <cc:Work
         rdf:about="">
        <dc:format>image/svg+xml</dc:format>
        <dc:type
           rdf:resource="http://purl.org/dc/dcmitype/StillImage" />
      </cc:Work>
    </rdf:RDF>
  </metadata>
  <g
     inkscape:label="Calque 1"
     inkscape:groupmode="layer"
     id="layer1">
    <path
       style="fill:black;fill-opacity:0.22287388;fill-rule:evenodd;stroke:none;stroke-width:1px;stroke-linecap:butt;stroke-linejoin:miter;stroke-opacity:1"
       d="M 25.479717,5.8983111 L 20.323467,7.304561 L 16.948467,11.585811 C 16.948467,11.585811 17.323467,18.125101 17.323467,19.367061 C 17.323467,19.889991 17.326778,20.877281 17.323467,21.867061 C 16.634008,21.856711 14.854717,21.835811 14.854717,21.835811 L 8.2609671,23.335811 L 7.4484671,25.773311 L 9.5109671,29.429561 L 16.667217,29.742061 C 16.666286,31.637741 16.792217,33.398311 16.792217,33.398311 C 16.792217,33.398311 17.386479,38.592247 17.604717,41.648307 C 16.331408,41.629467 14.073467,41.617057 14.073467,41.617057 L 7.4484671,43.117057 L 6.6672171,45.554557 L 8.7297171,49.210807 L 17.635967,49.617057 L 17.823467,49.617057 C 17.865683,50.605207 17.911587,51.452077 17.854717,51.679557 C 17.677294,52.389247 17.479717,61.773307 17.479717,61.773307 L 20.854717,66.585807 L 25.823467,67.804557 L 30.073467,66.398307 L 33.823467,63.929557 L 35.417217,57.179557 L 34.698467,49.492057 L 35.917217,49.492057 C 35.930589,49.977157 35.955372,50.356057 35.917217,50.492057 C 35.739794,51.124477 35.542216,59.523307 35.542217,59.523307 L 38.917217,63.773307 L 43.885967,64.898307 L 48.135967,63.617057 L 52.948467,61.742057 L 53.479717,55.398307 L 52.854717,49.554557 L 53.792217,49.523307 C 53.622973,50.677497 53.479718,57.710807 53.479717,57.710807 L 56.854717,61.710807 L 61.823467,62.773307 L 66.073467,61.585807 L 70.854717,59.804557 L 71.385967,54.054557 L 74.760967,57.523307 L 79.729717,58.429557 L 83.979717,57.398307 L 88.792217,55.835807 L 89.323467,50.710807 L 89.198467,49.679557 L 94.292214,49.554557 L 98.135964,47.617057 L 98.917214,45.710807 L 96.448464,42.992057 L 92.042214,41.867057 C 92.042214,41.867057 89.698167,41.889607 88.292217,41.898307 L 88.792217,35.523307 L 88.635967,29.929561 L 95.104714,29.773311 L 98.948464,27.835811 L 99.729714,25.929561 L 97.260964,23.210811 L 92.823464,22.085811 C 92.823464,22.085811 90.400098,22.107391 88.854717,22.117061 L 88.948467,19.304561 L 88.417217,16.242061 L 86.479717,13.773311 L 79.385967,13.523311 L 74.229717,14.554561 L 71.010967,17.492061 L 70.510967,14.085811 L 68.542217,11.242061 L 61.448467,10.960811 L 56.323467,12.148311 L 52.948467,15.710811 L 52.573467,13.023311 L 50.635967,10.023311 L 43.542217,9.710811 L 38.385967,10.992061 L 35.010967,14.773311 L 35.042217,13.867061 L 34.510967,9.617061 L 32.573467,6.242061 L 25.479717,5.8983111 z M 35.010967,14.835811 C 35.018036,14.952461 35.385966,20.646581 35.385967,21.742061 C 35.385967,21.775001 35.385676,21.862361 35.385967,21.898311 C 35.19337,21.905711 35.020161,21.923451 34.823467,21.929561 L 35.010967,14.835811 z M 53.073467,17.960811 C 53.168396,19.519521 53.243079,21.091571 53.260967,21.898311 C 53.127451,21.894141 53.076223,21.902331 52.948467,21.898311 L 53.073467,17.960811 z M 70.979717,19.367061 C 71.057047,20.455531 71.118113,21.255001 71.167217,22.210811 C 71.069233,22.209401 70.984087,22.212211 70.885967,22.210811 L 70.979717,19.367061 z M 34.854717,34.210811 C 34.854717,34.210811 35.454958,38.937377 35.667217,41.648307 C 35.31456,41.667967 34.948564,41.696577 34.573467,41.710807 L 34.885967,36.242057 L 34.854717,34.210811 z M 70.823467,34.273311 C 71.018354,35.499207 71.729708,40.136707 71.573467,40.929557 C 71.533732,41.131197 71.526704,41.524407 71.542217,41.992057 C 71.166959,41.986747 70.865031,41.997607 70.479717,41.992057 L 70.854717,36.335807 L 70.823467,34.273311 z M 52.917217,35.148307 C 53.107924,36.542087 53.57546,39.897017 53.667217,41.742057 C 53.171497,41.727037 53.08456,41.724767 52.635967,41.710807 L 52.948467,36.742057 L 52.917217,35.148307 z M 70.885967,49.398307 L 71.542217,49.429557 C 71.453578,51.440747 71.391465,53.658427 71.385967,53.867057 L 70.885967,49.398307 z M 89.885967,68.898307 L 85.292217,70.960807 L 83.260967,72.929557 C 82.403781,72.934787 70.618106,73.010227 69.667217,73.085807 C 68.681641,73.164157 60.298252,72.913717 58.573467,72.992057 C 56.848699,73.070397 44.292217,72.617057 44.292217,72.617057 C 44.292218,72.617057 36.905218,72.444527 33.948467,72.679557 C 30.991719,72.914607 26.548239,72.835807 24.823467,72.835807 C 23.098697,72.835807 13.979717,72.679557 13.979717,72.679557 L 8.0734671,74.179557 L 7.3859671,76.617057 L 9.2297171,80.273307 L 17.198467,80.679557 L 35.167217,80.523307 L 48.229717,80.585807 L 61.542217,80.367057 L 77.323467,80.835807 L 83.260967,80.648307 C 83.682143,81.066447 84.144088,81.504337 84.667217,81.898307 C 86.319199,83.142437 86.917218,82.867057 86.917217,82.867057 L 91.917217,82.210807 L 94.385964,78.523307 L 95.385964,74.867057 L 94.635964,72.460807 L 93.042214,70.148307 L 89.885967,68.898307 z M 16.354717,81.773307 L 11.760967,83.835807 L 8.7609671,86.710807 L 8.3859671,90.117057 L 8.1672171,91.804557 C 8.1672171,91.804557 9.4839841,93.529177 11.135967,94.773307 C 12.787949,96.017437 13.354717,95.710807 13.354717,95.710807 L 18.354717,95.054557 L 20.167217,93.273307 L 26.635967,93.617057 L 44.698467,93.460807 L 57.823467,93.554557 L 71.167217,93.304557 L 87.010967,93.773307 L 95.479714,93.554557 L 98.917214,91.617057 L 99.635964,89.710807 L 97.417214,86.992057 L 93.448464,85.867057 C 93.448464,85.867057 80.344548,85.944967 79.354717,86.023307 C 78.364909,86.101657 69.93067,85.851217 68.198467,85.929557 C 66.466281,86.007897 53.854717,85.554557 53.854717,85.554557 C 53.854716,85.554567 46.449185,85.382027 43.479717,85.617057 C 40.510252,85.852087 36.055658,85.773307 34.323467,85.773307 C 32.59128,85.773317 21.292217,85.617057 21.292217,85.617057 L 21.198467,85.648307 L 21.073467,85.304557 L 19.510967,83.023307 L 16.354717,81.773307 z "
       id="path29290" />
    <g
       id="g27077"
       transform="translate(-0.220473,-12.10259)">
      <path
         sodipodi:nodetypes="ccccccccccccccsscssc"
         id="path27065"
         d="M 10.857622,30.078224 L 4.244678,31.566767 L 3.4597457,34.016177 L 5.5201891,37.656894 L 14.439633,38.06935 L 34.554005,37.91266 L 49.157596,37.991003 L 64.036716,37.755969 L 81.671232,38.226036 L 91.096009,37.991003 L 94.934733,36.053128 L 95.719681,34.172863 L 93.25862,31.446954 L 88.83525,30.313257 C 88.83525,30.313257 74.231672,30.391601 73.129505,30.469945 C 72.02736,30.54829 62.65903,30.313257 60.730238,30.391601 C 58.801468,30.469945 44.748951,29.99988 44.748951,29.99988 C 44.748951,29.99988 36.482779,29.843191 33.176305,30.078224 C 29.869834,30.313257 24.910127,30.234913 22.98135,30.234913 C 21.052576,30.234913 10.857622,30.078224 10.857622,30.078224 z "
         style="fill:black;fill-opacity:1;fill-rule:evenodd;stroke:none;stroke-width:1px;stroke-linecap:butt;stroke-linejoin:miter;stroke-opacity:1" />
      <path
         sodipodi:nodetypes="cccccccccccccccsscssc"
         id="path27067"
         d="M 13.905363,32.037756 L 7.9662366,32.752656 L 5.986527,33.843821 L 6.4814563,35.348875 L 11.183262,35.762764 L 17.122389,35.875642 L 35.187235,35.800389 L 48.302797,35.838016 L 61.665848,35.725139 L 77.503526,35.950895 L 87.402056,35.838016 L 91.613591,35.354374 L 92.351331,33.919071 L 90.619092,32.865535 L 83.937577,32.150635 C 83.937577,32.150635 70.821989,32.188262 69.83214,32.225888 C 68.842289,32.263515 60.428535,32.150635 58.696274,32.188262 C 56.964034,32.225888 44.343393,32.000129 44.343393,32.000129 C 44.343393,32.000129 36.919483,31.924876 33.94992,32.037756 C 30.980355,32.150635 26.526008,32.113008 24.793763,32.113008 C 23.061517,32.113008 13.905363,32.037756 13.905363,32.037756 z "
         style="fill:#ffba0e;fill-opacity:1;fill-rule:evenodd;stroke:none;stroke-width:1px;stroke-linecap:butt;stroke-linejoin:miter;stroke-opacity:1" />
    </g>
    <g
       id="g27073"
       transform="translate(-0.220473,-12.10259)">
      <path
         sodipodi:nodetypes="ccccccccccccccsscssc"
         id="path27069"
         d="M 10.059219,49.860883 L 3.4462748,51.349426 L 2.6613418,53.798836 L 4.7217858,57.439553 L 13.64123,57.852009 L 33.755602,57.695319 L 48.359193,57.773662 L 63.238313,57.538628 L 80.872829,58.008695 L 90.297606,57.773662 L 94.13633,55.835787 L 94.92128,53.955522 L 92.46022,51.229613 L 88.036847,50.095916 C 88.036847,50.095916 73.433269,50.17426 72.331102,50.252604 C 71.228957,50.330949 61.860627,50.095916 59.931835,50.17426 C 58.003065,50.252604 43.950548,49.782539 43.950548,49.782539 C 43.950548,49.782539 35.684376,49.62585 32.377902,49.860883 C 29.071431,50.095916 24.111724,50.017572 22.182947,50.017572 C 20.254173,50.017572 10.059219,49.860883 10.059219,49.860883 z "
         style="fill:black;fill-opacity:1;fill-rule:evenodd;stroke:none;stroke-width:1px;stroke-linecap:butt;stroke-linejoin:miter;stroke-opacity:1" />
      <path
         sodipodi:nodetypes="cccccccccccccccsscssc"
         id="path27071"
         d="M 13.10696,51.820415 L 7.1678328,52.535315 L 5.1881238,53.62648 L 5.6830528,55.131534 L 10.384859,55.545423 L 16.323986,55.658301 L 34.388832,55.583048 L 47.504394,55.620675 L 60.867445,55.507798 L 76.705123,55.733554 L 86.603653,55.620675 L 90.815188,55.137033 L 91.55293,53.70173 L 89.820689,52.648194 L 83.139174,51.933294 C 83.139174,51.933294 70.023586,51.970921 69.033737,52.008547 C 68.043886,52.046174 59.630132,51.933294 57.897871,51.970921 C 56.165631,52.008547 43.54499,51.782788 43.54499,51.782788 C 43.54499,51.782788 36.12108,51.707535 33.151517,51.820415 C 30.181952,51.933294 25.727605,51.895667 23.99536,51.895667 C 22.263114,51.895667 13.10696,51.820415 13.10696,51.820415 z "
         style="fill:#ffba0e;fill-opacity:1;fill-rule:evenodd;stroke:none;stroke-width:1px;stroke-linecap:butt;stroke-linejoin:miter;stroke-opacity:1" />
    </g>
    <path
       style="fill:black;fill-opacity:1;fill-rule:evenodd;stroke:none;stroke-width:1px;stroke-linecap:butt;stroke-linejoin:miter;stroke-opacity:1"
       d="M 12.731402,7.702241 L 16.102438,3.4440906 L 21.247703,2.0247066 L 28.344621,2.3795526 L 30.296273,5.7505886 L 30.828542,10.00874 L 30.473696,22.960615 L 30.651119,32.364031 L 30.11885,41.94487 L 31.183388,53.299938 L 29.586581,60.04201 L 25.8607,62.525931 L 21.602549,63.945315 L 16.634706,62.703354 L 13.26367,57.912935 C 13.26367,57.912935 13.441093,48.509519 13.618516,47.799827 C 13.795939,47.090135 13.26367,41.057755 13.441093,39.815794 C 13.618516,38.573834 12.553979,29.525264 12.553979,29.525264 C 12.553979,29.525264 12.199133,24.202575 12.731402,22.0735 C 13.26367,19.944424 13.086248,16.750811 13.086248,15.508851 C 13.086248,14.26689 12.731402,7.702241 12.731402,7.702241 z "
       id="path26959"
       sodipodi:nodetypes="cccccccccccccccsscssc" />
    <path
       style="fill:#ff7bff;fill-opacity:1;fill-rule:evenodd;stroke:none;stroke-width:1px;stroke-linecap:butt;stroke-linejoin:miter;stroke-opacity:1"
       d="M 28.281255,10.398918 L 27.109379,6.0477346 L 22.183142,5.3070316 L 17.101381,5.6252736 L 15.703898,8.648582 L 15.322765,12.467497 L 15.576854,24.083362 L 15.449809,32.516798 L 15.830942,41.109356 L 15.068677,51.293128 L 15.449809,57.657986 L 18.879998,59.567442 L 21.929054,60.840414 L 25.486287,59.726564 L 27.900123,55.430285 C 27.900123,55.430285 27.773079,46.996849 27.646035,46.360363 C 27.518991,45.723877 27.900123,40.313748 27.773079,39.199899 C 27.646035,38.086049 28.408299,29.970855 28.408299,29.970855 C 28.408299,29.970855 28.662387,25.197211 28.281255,23.287754 C 27.900123,21.378296 28.027167,18.514111 28.027167,17.400261 C 28.027167,16.286411 28.281255,10.398918 28.281255,10.398918 z "
       id="path26961"
       sodipodi:nodetypes="cccccccccccccccsscssc" />
    <path
       style="fill:black;fill-opacity:1;fill-rule:evenodd;stroke:none;stroke-width:1px;stroke-linecap:butt;stroke-linejoin:miter;stroke-opacity:1"
       d="M 30.797765,10.89865 L 34.168801,7.104138 L 39.314066,5.8392996 L 46.410984,6.1555096 L 48.362636,9.159498 L 48.894905,12.954012 L 48.540059,24.495654 L 48.717482,32.875202 L 48.185213,41.412855 L 49.249751,51.531554 L 48.717482,57.855743 L 43.927063,59.752998 L 39.668912,61.017836 L 34.701069,59.911103 L 31.330033,55.642276 C 31.330033,55.642276 31.507456,47.262729 31.684879,46.630309 C 31.862302,45.997891 31.330033,40.622332 31.507456,39.515599 C 31.684879,38.408865 30.620342,30.345526 30.620342,30.345526 C 30.620342,30.345526 30.265496,25.602386 30.797765,23.705129 C 31.330033,21.807873 31.152611,18.961989 31.152611,17.855256 C 31.152611,16.748524 30.797765,10.89865 30.797765,10.89865 z "
       id="path26963"
       sodipodi:nodetypes="cccccccccccccccsscssc" />
    <path
       style="fill:#ff140e;fill-opacity:1;fill-rule:evenodd;stroke:none;stroke-width:1px;stroke-linecap:butt;stroke-linejoin:miter;stroke-opacity:1"
       d="M 33.345052,13.296066 L 35.758889,9.897195 L 39.443165,8.764237 L 44.524926,9.047477 L 45.922409,11.738249 L 46.303542,15.137121 L 46.049453,25.475354 L 46.176498,32.981195 L 45.795365,40.628656 L 46.55763,49.692313 L 46.176498,55.357098 L 42.746309,57.056533 L 39.697253,58.189491 L 36.14002,57.198154 L 33.726184,53.374423 C 33.726184,53.374423 33.853228,45.868583 33.980272,45.302104 C 34.107316,44.735624 33.726184,39.920558 33.853228,38.929221 C 33.980272,37.937883 33.218008,30.715282 33.218008,30.715282 C 33.218008,30.715282 32.96392,26.466693 33.345052,24.767257 C 33.726184,23.06782 33.59914,20.518667 33.59914,19.52733 C 33.59914,18.535992 33.345052,13.296066 33.345052,13.296066 z "
       id="path26965"
       sodipodi:nodetypes="cccccccccccccccsscssc" />
    <path
       style="fill:black;fill-opacity:1;fill-rule:evenodd;stroke:none;stroke-width:1px;stroke-linecap:butt;stroke-linejoin:miter;stroke-opacity:1"
       d="M 48.717483,11.831519 L 52.088519,8.268826 L 57.233784,7.081261 L 64.330702,7.378153 L 66.282354,10.198617 L 66.814623,13.761312 L 66.459777,24.597838 L 66.6372,32.465452 L 66.104931,40.481512 L 67.169469,49.982027 L 66.6372,55.919851 L 61.846781,57.701196 L 57.58863,58.888761 L 52.620787,57.849642 L 49.249751,53.841611 C 49.249751,53.841611 49.427174,45.973998 49.604597,45.380215 C 49.78202,44.786433 49.249751,39.739285 49.427174,38.700166 C 49.604597,37.661046 48.54006,30.090322 48.54006,30.090322 C 48.54006,30.090322 48.185214,25.636956 48.717483,23.855608 C 49.249751,22.074262 49.072329,19.402242 49.072329,18.363123 C 49.072329,17.324005 48.717483,11.831519 48.717483,11.831519 z "
       id="path26967"
       sodipodi:nodetypes="cccccccccccccccsscssc" />
    <path
       style="fill:#85c751;fill-opacity:1;fill-rule:evenodd;stroke:none;stroke-width:1px;stroke-linecap:butt;stroke-linejoin:miter;stroke-opacity:1"
       d="M 64.622182,14.054902 L 62.208345,10.884354 L 58.524069,9.827504 L 53.442308,10.091717 L 52.044825,12.601734 L 51.663692,15.772283 L 51.917781,25.416033 L 51.790736,32.417659 L 52.171869,39.551394 L 51.409604,48.006189 L 51.790736,53.290436 L 55.220925,54.875709 L 58.269981,55.93256 L 61.827214,55.007817 L 64.24105,51.44095 C 64.24105,51.44095 64.114006,44.439323 63.986962,43.910897 C 63.859918,43.382472 64.24105,38.890863 64.114006,37.96612 C 63.986962,37.041377 64.749226,30.303962 64.749226,30.303962 C 64.749226,30.303962 65.003314,26.340777 64.622182,24.755503 C 64.24105,23.170228 64.368094,20.792316 64.368094,19.867574 C 64.368094,18.942831 64.622182,14.054902 64.622182,14.054902 z "
       id="path26969"
       sodipodi:nodetypes="cccccccccccccccsscssc" />
    <path
       style="fill:black;fill-opacity:1;fill-rule:evenodd;stroke:none;stroke-width:1px;stroke-linecap:butt;stroke-linejoin:miter;stroke-opacity:1"
       d="M 66.6372,13.7697 L 70.008236,10.682846 L 75.153501,9.653894 L 82.250419,9.911133 L 84.202071,12.354891 L 84.73434,15.441746 L 84.379494,24.830928 L 84.556917,31.647731 L 84.024648,38.593153 L 85.089186,46.824763 L 84.556917,51.969522 L 79.766498,53.512947 L 75.508347,54.541899 L 70.540504,53.641567 L 67.169468,50.168855 C 67.169468,50.168855 67.346891,43.352053 67.524314,42.837577 C 67.701737,42.323101 67.169468,37.950059 67.346891,37.049726 C 67.524314,36.149393 66.459777,29.589827 66.459777,29.589827 C 66.459777,29.589827 66.104931,25.73126 66.6372,24.187832 C 67.169468,22.644405 66.992046,20.329265 66.992046,19.428932 C 66.992046,18.5286 66.6372,13.7697 66.6372,13.7697 z "
       id="path26971"
       sodipodi:nodetypes="cccccccccccccccsscssc" />
    <path
       style="fill:#ffba0e;fill-opacity:1;fill-rule:evenodd;stroke:none;stroke-width:1px;stroke-linecap:butt;stroke-linejoin:miter;stroke-opacity:1"
       d="M 69.184487,15.653838 L 71.598324,12.938468 L 75.2826,12.033344 L 80.364361,12.259626 L 81.761844,14.409293 L 82.142977,17.124664 L 81.888888,25.383915 L 82.015933,31.380357 L 81.6348,37.489942 L 82.397065,44.730929 L 82.015933,49.256546 L 78.585744,50.61423 L 75.536688,51.519355 L 71.979455,50.727372 L 69.565619,47.67258 C 69.565619,47.67258 69.692663,41.676138 69.819707,41.223575 C 69.946751,40.771013 69.565619,36.924239 69.692663,36.132256 C 69.819707,35.340274 69.057443,29.570112 69.057443,29.570112 C 69.057443,29.570112 68.803355,26.175899 69.184487,24.818214 C 69.565619,23.460528 69.438575,21.424 69.438575,20.632017 C 69.438575,19.840034 69.184487,15.653838 69.184487,15.653838 z "
       id="path26973"
       sodipodi:nodetypes="cccccccccccccccsscssc" />
    <g
       id="g27970"
       transform="translate(-0.220473,-12.10259)">
      <path
         id="path27081"
         d="M 20.219692,29.117431 L 22.964176,27.866348 L 24.837598,28.629594 L 25.782316,30.022652 L 26.229588,31.481894 L 25.640341,33.711853 L 24.16402,35.933274 L 21.179354,36.330376 C 21.179354,36.330376 20.822817,36.504374 19.836468,35.749667 C 18.850118,34.994961 18.0794,33.958441 18.0794,33.958441 L 18.195755,32.93046 L 18.428465,30.874498 L 20.219692,29.117431 z "
         style="fill:black;fill-opacity:1;fill-rule:evenodd;stroke:none;stroke-width:1px;stroke-linecap:butt;stroke-linejoin:miter;stroke-opacity:1" />
      <path
         id="path27968"
         d="M 21.253924,30.860876 L 22.564524,30.290255 L 23.459157,30.638373 L 23.910297,31.273749 L 24.123887,31.939311 L 23.842499,32.956399 L 23.137497,33.969593 L 21.712201,34.150712 C 21.712201,34.150712 21.54194,34.230072 21.07092,33.885849 C 20.599898,33.541627 20.23185,33.068868 20.23185,33.068868 L 20.287414,32.600005 L 20.398542,31.662277 L 21.253924,30.860876 z "
         style="fill:gray;fill-opacity:1;fill-rule:evenodd;stroke:none;stroke-width:1px;stroke-linecap:butt;stroke-linejoin:miter;stroke-opacity:1" />
    </g>
    <g
       id="g27974"
       transform="translate(-0.551945,8.950731)">
      <path
         id="path27976"
         d="M 20.219692,29.117431 L 22.964176,27.866348 L 24.837598,28.629594 L 25.782316,30.022652 L 26.229588,31.481894 L 25.640341,33.711853 L 24.16402,35.933274 L 21.179354,36.330376 C 21.179354,36.330376 20.822817,36.504374 19.836468,35.749667 C 18.850118,34.994961 18.0794,33.958441 18.0794,33.958441 L 18.195755,32.93046 L 18.428465,30.874498 L 20.219692,29.117431 z "
         style="fill:black;fill-opacity:1;fill-rule:evenodd;stroke:none;stroke-width:1px;stroke-linecap:butt;stroke-linejoin:miter;stroke-opacity:1" />
      <path
         id="path27978"
         d="M 21.253924,30.860876 L 22.564524,30.290255 L 23.459157,30.638373 L 23.910297,31.273749 L 24.123887,31.939311 L 23.842499,32.956399 L 23.137497,33.969593 L 21.712201,34.150712 C 21.712201,34.150712 21.54194,34.230072 21.07092,33.885849 C 20.599898,33.541627 20.23185,33.068868 20.23185,33.068868 L 20.287414,32.600005 L 20.398542,31.662277 L 21.253924,30.860876 z "
         style="fill:gray;fill-opacity:1;fill-rule:evenodd;stroke:none;stroke-width:1px;stroke-linecap:butt;stroke-linejoin:miter;stroke-opacity:1" />
    </g>
    <g
       id="g27980"
       transform="translate(17.72262,8.950721)">
      <path
         id="path27982"
         d="M 20.219692,29.117431 L 22.964176,27.866348 L 24.837598,28.629594 L 25.782316,30.022652 L 26.229588,31.481894 L 25.640341,33.711853 L 24.16402,35.933274 L 21.179354,36.330376 C 21.179354,36.330376 20.822817,36.504374 19.836468,35.749667 C 18.850118,34.994961 18.0794,33.958441 18.0794,33.958441 L 18.195755,32.93046 L 18.428465,30.874498 L 20.219692,29.117431 z "
         style="fill:black;fill-opacity:1;fill-rule:evenodd;stroke:none;stroke-width:1px;stroke-linecap:butt;stroke-linejoin:miter;stroke-opacity:1" />
      <path
         id="path27984"
         d="M 21.253924,30.860876 L 22.564524,30.290255 L 23.459157,30.638373 L 23.910297,31.273749 L 24.123887,31.939311 L 23.842499,32.956399 L 23.137497,33.969593 L 21.712201,34.150712 C 21.712201,34.150712 21.54194,34.230072 21.07092,33.885849 C 20.599898,33.541627 20.23185,33.068868 20.23185,33.068868 L 20.287414,32.600005 L 20.398542,31.662277 L 21.253924,30.860876 z "
         style="fill:gray;fill-opacity:1;fill-rule:evenodd;stroke:none;stroke-width:1px;stroke-linecap:butt;stroke-linejoin:miter;stroke-opacity:1" />
    </g>
    <g
       id="g27986"
       transform="translate(35.81977,9.128151)">
      <path
         id="path27988"
         d="M 20.219692,29.117431 L 22.964176,27.866348 L 24.837598,28.629594 L 25.782316,30.022652 L 26.229588,31.481894 L 25.640341,33.711853 L 24.16402,35.933274 L 21.179354,36.330376 C 21.179354,36.330376 20.822817,36.504374 19.836468,35.749667 C 18.850118,34.994961 18.0794,33.958441 18.0794,33.958441 L 18.195755,32.93046 L 18.428465,30.874498 L 20.219692,29.117431 z "
         style="fill:black;fill-opacity:1;fill-rule:evenodd;stroke:none;stroke-width:1px;stroke-linecap:butt;stroke-linejoin:miter;stroke-opacity:1" />
      <path
         id="path27990"
         d="M 21.253924,30.860876 L 22.564524,30.290255 L 23.459157,30.638373 L 23.910297,31.273749 L 24.123887,31.939311 L 23.842499,32.956399 L 23.137497,33.969593 L 21.712201,34.150712 C 21.712201,34.150712 21.54194,34.230072 21.07092,33.885849 C 20.599898,33.541627 20.23185,33.068868 20.23185,33.068868 L 20.287414,32.600005 L 20.398542,31.662277 L 21.253924,30.860876 z "
         style="fill:gray;fill-opacity:1;fill-rule:evenodd;stroke:none;stroke-width:1px;stroke-linecap:butt;stroke-linejoin:miter;stroke-opacity:1" />
    </g>
    <g
       id="g27992"
       transform="translate(53.73948,9.305571)">
      <path
         id="path27994"
         d="M 20.219692,29.117431 L 22.964176,27.866348 L 24.837598,28.629594 L 25.782316,30.022652 L 26.229588,31.481894 L 25.640341,33.711853 L 24.16402,35.933274 L 21.179354,36.330376 C 21.179354,36.330376 20.822817,36.504374 19.836468,35.749667 C 18.850118,34.994961 18.0794,33.958441 18.0794,33.958441 L 18.195755,32.93046 L 18.428465,30.874498 L 20.219692,29.117431 z "
         style="fill:black;fill-opacity:1;fill-rule:evenodd;stroke:none;stroke-width:1px;stroke-linecap:butt;stroke-linejoin:miter;stroke-opacity:1" />
      <path
         id="path27996"
         d="M 21.253924,30.860876 L 22.564524,30.290255 L 23.459157,30.638373 L 23.910297,31.273749 L 24.123887,31.939311 L 23.842499,32.956399 L 23.137497,33.969593 L 21.712201,34.150712 C 21.712201,34.150712 21.54194,34.230072 21.07092,33.885849 C 20.599898,33.541627 20.23185,33.068868 20.23185,33.068868 L 20.287414,32.600005 L 20.398542,31.662277 L 21.253924,30.860876 z "
         style="fill:gray;fill-opacity:1;fill-rule:evenodd;stroke:none;stroke-width:1px;stroke-linecap:butt;stroke-linejoin:miter;stroke-opacity:1" />
    </g>
    <g
       id="g27998"
       transform="translate(18.07747,-11.98518)">
      <path
         id="path28000"
         d="M 20.219692,29.117431 L 22.964176,27.866348 L 24.837598,28.629594 L 25.782316,30.022652 L 26.229588,31.481894 L 25.640341,33.711853 L 24.16402,35.933274 L 21.179354,36.330376 C 21.179354,36.330376 20.822817,36.504374 19.836468,35.749667 C 18.850118,34.994961 18.0794,33.958441 18.0794,33.958441 L 18.195755,32.93046 L 18.428465,30.874498 L 20.219692,29.117431 z "
         style="fill:black;fill-opacity:1;fill-rule:evenodd;stroke:none;stroke-width:1px;stroke-linecap:butt;stroke-linejoin:miter;stroke-opacity:1" />
      <path
         id="path28002"
         d="M 21.253924,30.860876 L 22.564524,30.290255 L 23.459157,30.638373 L 23.910297,31.273749 L 24.123887,31.939311 L 23.842499,32.956399 L 23.137497,33.969593 L 21.712201,34.150712 C 21.712201,34.150712 21.54194,34.230072 21.07092,33.885849 C 20.599898,33.541627 20.23185,33.068868 20.23185,33.068868 L 20.287414,32.600005 L 20.398542,31.662277 L 21.253924,30.860876 z "
         style="fill:gray;fill-opacity:1;fill-rule:evenodd;stroke:none;stroke-width:1px;stroke-linecap:butt;stroke-linejoin:miter;stroke-opacity:1" />
    </g>
    <g
       id="g28004"
       transform="translate(35.81976,-11.80776)">
      <path
         id="path28006"
         d="M 20.219692,29.117431 L 22.964176,27.866348 L 24.837598,28.629594 L 25.782316,30.022652 L 26.229588,31.481894 L 25.640341,33.711853 L 24.16402,35.933274 L 21.179354,36.330376 C 21.179354,36.330376 20.822817,36.504374 19.836468,35.749667 C 18.850118,34.994961 18.0794,33.958441 18.0794,33.958441 L 18.195755,32.93046 L 18.428465,30.874498 L 20.219692,29.117431 z "
         style="fill:black;fill-opacity:1;fill-rule:evenodd;stroke:none;stroke-width:1px;stroke-linecap:butt;stroke-linejoin:miter;stroke-opacity:1" />
      <path
         id="path28008"
         d="M 21.253924,30.860876 L 22.564524,30.290255 L 23.459157,30.638373 L 23.910297,31.273749 L 24.123887,31.939311 L 23.842499,32.956399 L 23.137497,33.969593 L 21.712201,34.150712 C 21.712201,34.150712 21.54194,34.230072 21.07092,33.885849 C 20.599898,33.541627 20.23185,33.068868 20.23185,33.068868 L 20.287414,32.600005 L 20.398542,31.662277 L 21.253924,30.860876 z "
         style="fill:gray;fill-opacity:1;fill-rule:evenodd;stroke:none;stroke-width:1px;stroke-linecap:butt;stroke-linejoin:miter;stroke-opacity:1" />
    </g>
    <g
       id="g28010"
       transform="translate(53.56206,-11.09806)">
      <path
         id="path28012"
         d="M 20.219692,29.117431 L 22.964176,27.866348 L 24.837598,28.629594 L 25.782316,30.022652 L 26.229588,31.481894 L 25.640341,33.711853 L 24.16402,35.933274 L 21.179354,36.330376 C 21.179354,36.330376 20.822817,36.504374 19.836468,35.749667 C 18.850118,34.994961 18.0794,33.958441 18.0794,33.958441 L 18.195755,32.93046 L 18.428465,30.874498 L 20.219692,29.117431 z "
         style="fill:black;fill-opacity:1;fill-rule:evenodd;stroke:none;stroke-width:1px;stroke-linecap:butt;stroke-linejoin:miter;stroke-opacity:1" />
      <path
         id="path28014"
         d="M 21.253924,30.860876 L 22.564524,30.290255 L 23.459157,30.638373 L 23.910297,31.273749 L 24.123887,31.939311 L 23.842499,32.956399 L 23.137497,33.969593 L 21.712201,34.150712 C 21.712201,34.150712 21.54194,34.230072 21.07092,33.885849 C 20.599898,33.541627 20.23185,33.068868 20.23185,33.068868 L 20.287414,32.600005 L 20.398542,31.662277 L 21.253924,30.860876 z "
         style="fill:gray;fill-opacity:1;fill-rule:evenodd;stroke:none;stroke-width:1px;stroke-linecap:butt;stroke-linejoin:miter;stroke-opacity:1" />
    </g>
    <g
       id="g28016"
       transform="matrix(0.894231,0,0,1,0.770704,18.94643)">
      <path
         sodipodi:nodetypes="ccccccccccccccsscssc"
         id="path28018"
         d="M 10.059219,49.860883 L 3.4462748,51.349426 L 2.6613418,53.798836 L 4.7217858,57.439553 L 13.64123,57.852009 L 33.755602,57.695319 L 48.359193,57.773662 L 63.238313,57.538628 L 80.872829,58.008695 L 90.297606,57.773662 L 94.13633,55.835787 L 94.92128,53.955522 L 92.46022,51.229613 L 88.036847,50.095916 C 88.036847,50.095916 73.433269,50.17426 72.331102,50.252604 C 71.228957,50.330949 61.860627,50.095916 59.931835,50.17426 C 58.003065,50.252604 43.950548,49.782539 43.950548,49.782539 C 43.950548,49.782539 35.684376,49.62585 32.377902,49.860883 C 29.071431,50.095916 24.111724,50.017572 22.182947,50.017572 C 20.254173,50.017572 10.059219,49.860883 10.059219,49.860883 z "
         style="fill:black;fill-opacity:1;fill-rule:evenodd;stroke:none;stroke-width:1px;stroke-linecap:butt;stroke-linejoin:miter;stroke-opacity:1" />
      <path
         sodipodi:nodetypes="cccccccccccccccsscssc"
         id="path28020"
         d="M 13.10696,51.820415 L 7.1678328,52.535315 L 5.1881238,53.62648 L 5.6830528,55.131534 L 10.384859,55.545423 L 16.323986,55.658301 L 34.388832,55.583048 L 47.504394,55.620675 L 60.867445,55.507798 L 76.705123,55.733554 L 86.603653,55.620675 L 90.815188,55.137033 L 91.55293,53.70173 L 89.820689,52.648194 L 83.139174,51.933294 C 83.139174,51.933294 70.023586,51.970921 69.033737,52.008547 C 68.043886,52.046174 59.630132,51.933294 57.897871,51.970921 C 56.165631,52.008547 43.54499,51.782788 43.54499,51.782788 C 43.54499,51.782788 36.12108,51.707535 33.151517,51.820415 C 30.181952,51.933294 25.727605,51.895667 23.99536,51.895667 C 22.263114,51.895667 13.10696,51.820415 13.10696,51.820415 z "
         style="fill:#ffba0e;fill-opacity:1;fill-rule:evenodd;stroke:none;stroke-width:1px;stroke-linecap:butt;stroke-linejoin:miter;stroke-opacity:1" />
    </g>
    <g
       id="g28022"
       transform="matrix(0.898077,0,0,1,10.16388,31.89831)">
      <path
         sodipodi:nodetypes="ccccccccccccccsscssc"
         id="path28024"
         d="M 7.6885143,49.860883 L 3.4462748,51.349426 L 2.6613418,53.798836 L 4.7217858,57.439553 L 13.64123,57.852009 L 33.755602,57.695319 L 48.359193,57.773662 L 63.238313,57.538628 L 80.872829,58.008695 L 90.297606,57.773662 L 94.13633,55.835787 L 94.92128,53.955522 L 92.46022,51.229613 L 88.036847,50.095916 C 88.036847,50.095916 73.433269,50.17426 72.331102,50.252604 C 71.228957,50.330949 61.860627,50.095916 59.931835,50.17426 C 58.003065,50.252604 43.950548,49.782539 43.950548,49.782539 C 43.950548,49.782539 35.684376,49.62585 32.377902,49.860883 C 29.071431,50.095916 24.111724,50.017572 22.182947,50.017572 C 20.254173,50.017572 7.6885143,49.860883 7.6885143,49.860883 z "
         style="fill:black;fill-opacity:1;fill-rule:evenodd;stroke:none;stroke-width:1px;stroke-linecap:butt;stroke-linejoin:miter;stroke-opacity:1" />
      <path
         sodipodi:nodetypes="cccccccccccccccsscssc"
         id="path28026"
         d="M 13.10696,51.820415 L 6.9702741,52.535315 L 5.1881238,53.62648 L 5.6830528,55.131534 L 10.384859,55.545423 L 16.323986,55.658301 L 34.388832,55.583048 L 47.504394,55.620675 L 60.867445,55.507798 L 76.705123,55.733554 L 86.603653,55.620675 L 90.815188,55.137033 L 91.55293,53.70173 L 89.820689,52.648194 L 83.139174,51.933294 C 83.139174,51.933294 70.023586,51.970921 69.033737,52.008547 C 68.043886,52.046174 59.630132,51.933294 57.897871,51.970921 C 56.165631,52.008547 43.54499,51.782788 43.54499,51.782788 C 43.54499,51.782788 36.12108,51.707535 33.151517,51.820415 C 30.181952,51.933294 25.727605,51.895667 23.99536,51.895667 C 22.263114,51.895667 13.10696,51.820415 13.10696,51.820415 z "
         style="fill:#ffba0e;fill-opacity:1;fill-rule:evenodd;stroke:none;stroke-width:1px;stroke-linecap:butt;stroke-linejoin:miter;stroke-opacity:1" />
    </g>
    <path
       style="fill:black;fill-opacity:1;fill-rule:evenodd;stroke:none;stroke-width:1px;stroke-linecap:butt;stroke-linejoin:miter;stroke-opacity:1"
       d="M 81.081068,67.089721 L 85.677653,65.027318 L 88.815345,66.285525 L 90.397601,68.581973 L 91.146712,70.987524 L 90.159815,74.663598 L 87.687206,78.325598 L 82.688353,78.980218 C 82.688353,78.980218 82.091209,79.267053 80.439227,78.022923 C 78.787244,76.778794 77.496411,75.070097 77.496411,75.070097 L 77.691287,73.375477 L 78.08104,69.986236 L 81.081068,67.089721 z "
       id="path28030" />
    <path
       style="fill:#ffba0e;fill-opacity:1;fill-rule:evenodd;stroke:none;stroke-width:1px;stroke-linecap:butt;stroke-linejoin:miter;stroke-opacity:1"
       d="M 82.531832,68.963143 L 85.503571,67.603731 L 87.532121,68.433066 L 88.555064,69.946745 L 89.039373,71.532338 L 88.401335,73.955383 L 86.802767,76.369152 L 83.570959,76.80064 C 83.570959,76.80064 83.184898,76.9897 82.116878,76.169647 C 81.048852,75.349593 80.214316,74.223322 80.214316,74.223322 L 80.340305,73.106334 L 80.592284,70.872349 L 82.531832,68.963143 z "
       id="path28032" />
    <path
       style="fill:black;fill-opacity:1;fill-rule:evenodd;stroke:none;stroke-width:1px;stroke-linecap:butt;stroke-linejoin:miter;stroke-opacity:1"
       d="M 7.539256,79.952892 L 12.13584,77.890489 L 15.273532,79.148696 L 16.855788,81.445144 L 17.604899,83.850695 L 17.327694,88.059038 L 14.145393,91.188769 L 9.146541,91.843389 C 9.146541,91.843389 8.549397,92.130224 6.897415,90.886094 C 5.245432,89.641965 3.954599,87.933268 3.954599,87.933268 L 4.149475,86.238648 L 4.539228,82.849407 L 7.539256,79.952892 z "
       id="path28036"
       sodipodi:nodetypes="ccccccccscccc" />
    <path
       style="fill:#ffba0e;fill-opacity:1;fill-rule:evenodd;stroke:none;stroke-width:1px;stroke-linecap:butt;stroke-linejoin:miter;stroke-opacity:1"
       d="M 8.99002,81.826314 L 11.961758,80.466902 L 13.990308,81.296237 L 15.013251,82.809916 L 15.49756,84.395509 L 14.859522,86.818554 L 13.260954,89.232323 L 10.029147,89.663811 C 10.029147,89.663811 9.6430862,89.852871 8.575066,89.032818 C 7.50704,88.212764 6.672504,87.086493 6.672504,87.086493 L 6.798493,85.969505 L 7.050472,83.73552 L 8.99002,81.826314 z "
       id="path28038" />
  </g>
</svg>
