<?xml version="1.0" encoding="UTF-8" standalone="no"?>
<!-- Created with Inkscape (http://www.inkscape.org/) -->

<svg
   xmlns:dc="http://purl.org/dc/elements/1.1/"
   xmlns:cc="http://creativecommons.org/ns#"
   xmlns:rdf="http://www.w3.org/1999/02/22-rdf-syntax-ns#"
   xmlns:svg="http://www.w3.org/2000/svg"
   xmlns="http://www.w3.org/2000/svg"
   xmlns:sodipodi="http://sodipodi.sourceforge.net/DTD/sodipodi-0.dtd"
   xmlns:inkscape="http://www.inkscape.org/namespaces/inkscape"
   width="100"
   height="100"
   id="svg2"
   sodipodi:version="0.32"
   inkscape:version="0.48.3.1 r9886"
   version="1.0"
   sodipodi:docname="note_names.svg">
  <defs
     id="defs4">
    <filter
       inkscape:collect="always"
       id="filter4351"
       x="-0.13237838"
       width="1.2647568"
       y="-0.065687165"
       height="1.1313743">
      <feGaussianBlur
         inkscape:collect="always"
         stdDeviation="2.233172"
         id="feGaussianBlur4353" />
    </filter>
  </defs>
  <sodipodi:namedview
     id="base"
     pagecolor="#ffffff"
     bordercolor="#666666"
     borderopacity="1.0"
     inkscape:pageopacity="0.0"
     inkscape:pageshadow="2"
     inkscape:zoom="3.1100436"
     inkscape:cx="32.87338"
     inkscape:cy="89.444925"
     inkscape:document-units="px"
     inkscape:current-layer="layer1"
     width="100px"
     height="100px"
     showguides="true"
     inkscape:guide-bbox="true"
     inkscape:window-width="1112"
     inkscape:window-height="949"
     inkscape:window-x="567"
     inkscape:window-y="25"
     showgrid="false"
     inkscape:window-maximized="0" />
  <metadata
     id="metadata7">
    <rdf:RDF>
      <cc:Work
         rdf:about="">
        <dc:format>image/svg+xml</dc:format>
        <dc:type
           rdf:resource="http://purl.org/dc/dcmitype/StillImage" />
      </cc:Work>
    </rdf:RDF>
  </metadata>
  <g
     inkscape:label="Calque 1"
     inkscape:groupmode="layer"
     id="layer1">
    <path
       style="fill:#1e2f1e;fill-opacity:1;filter:url(#filter4351)"
       d="m 40.044237,87.456962 c -4.748895,-1.22651 -8.367964,-3.90639 -9.425546,-6.97953 -2.140335,-6.21941 4.983667,-14.036641 15.401589,-16.900297 4.243565,-1.166464 11.1139,-1.46389 14.508652,-0.628106 1.410545,0.347276 2.796818,0.631412 3.080596,0.631412 0.616464,0 0.278429,-1.508824 -7.311187,-32.633898 -0.755491,-3.098278 -1.929332,-7.993362 -2.608539,-10.877966 -0.679199,-2.884603 -1.590405,-6.585045 -2.02489,-8.223203 -0.434486,-1.638159 -0.789975,-3.2642057 -0.789975,-3.6134377 0,-0.557714 2.163541,-1.760816 3.166483,-1.760816 0.440684,0 0.655946,0.798449 6.965,25.8351687 3.268106,12.969103 4.561442,18.09273 6.227263,24.669672 2.664833,10.5212 3.49146,14.339013 3.49146,16.125361 0,3.71636 -4.555518,8.96126 -10.115763,11.64656 -6.145256,2.96783 -15.031061,4.13837 -20.565143,2.70908 z m 12.47824,-5.04778 c 1.178722,-0.58455 2.132228,-1.80122 2.57741,-3.28879 0.258881,-0.86502 0.143424,-0.81552 -1.055647,0.45264 -0.740482,0.78314 -1.766109,1.62464 -2.279182,1.87 -1.561586,0.7468 -3.948281,0.56806 -5.626835,-0.42138 l -1.542437,-0.9092 0.641778,0.96084 c 1.456959,2.18131 4.467103,2.73331 7.284913,1.33589 z m -11.055128,-6.22456 c 1.161475,-0.78018 1.142077,-1.55641 -0.05774,-2.31033 -0.977965,-0.61452 -2.702178,-0.33658 -3.25749,0.52509 -0.387815,0.60178 0.20234,1.64903 1.132355,2.0094 1.175602,0.45554 1.17014,0.45611 2.182872,-0.22416 z m 17.828429,-2.67018 c 1.390453,-1.259247 -1.315872,-3.033528 -3.00659,-1.971144 -1.199421,0.753673 -1.219262,1.530114 -0.05899,2.309464 0.931205,0.6255 2.149867,0.49101 3.065611,-0.33832 z"
       id="path3541-2"
       inkscape:connector-curvature="0"
       transform="matrix(1.0940455,0,0,1.0940455,-2.3397074,-0.1045323)" />
    <path
       style="fill:#008f00;fill-opacity:1"
       d="m 36.912839,91.470092 c -5.195507,-1.341854 -9.154933,-4.273768 -10.311976,-7.635917 -2.341624,-6.804318 5.452358,-15.356727 16.850039,-18.489697 4.642653,-1.276165 12.159113,-1.601562 15.873126,-0.687177 1.5432,0.379936 3.059846,0.690794 3.370312,0.690794 0.67444,0 0.304614,-1.650722 -7.998771,-35.70297 -0.826542,-3.389657 -2.110777,-8.745102 -2.853861,-11.90099 -0.743074,-3.155887 -1.739975,-7.204339 -2.215321,-8.9965583 -0.475348,-1.7922205 -0.864269,-3.5711898 -0.864269,-3.9532655 0,-0.6101646 2.367012,-1.9264131 3.464276,-1.9264131 0.482129,0 0.717635,0.8735392 7.620027,28.2648509 3.575457,14.188789 4.990426,19.79427 6.81291,26.989744 2.915448,11.510672 3.819816,15.687533 3.819816,17.641876 0,4.065867 -4.983944,9.804026 -11.067105,12.741866 -6.72319,3.246947 -16.444665,4.527571 -22.499203,2.963857 z m 13.651763,-5.522498 c 1.289575,-0.639525 2.332754,-1.970621 2.819804,-3.598086 0.283227,-0.946374 0.156912,-0.892211 -1.154926,0.495209 -0.810121,0.856791 -1.932204,1.77743 -2.493529,2.04587 -1.708446,0.817024 -4.319599,0.621482 -6.156014,-0.46101 l -1.687496,-0.994711 0.702134,1.051202 c 1.59398,2.386459 4.887214,2.990362 7.970027,1.461526 z m -12.094813,-6.80995 c 1.270706,-0.853552 1.249484,-1.702789 -0.06317,-2.527609 -1.069938,-0.672312 -2.956305,-0.368237 -3.563842,0.574474 -0.424287,0.658371 0.221369,1.804109 1.238848,2.198377 1.286162,0.498382 1.280186,0.499 2.388161,-0.245242 z m 19.505112,-2.921301 c 1.521219,-1.377673 -1.439624,-3.318817 -3.289346,-2.15652 -1.312221,0.824552 -1.333928,1.674018 -0.06454,2.526661 1.018781,0.684324 2.352053,0.537186 3.353918,-0.370141 z"
       id="path3541"
       inkscape:connector-curvature="0" />
  </g>
</svg>
