<?xml version="1.0" encoding="UTF-8" standalone="no"?>
<!-- Created with Inkscape (http://www.inkscape.org/) -->
<svg
   xmlns:dc="http://purl.org/dc/elements/1.1/"
   xmlns:cc="http://web.resource.org/cc/"
   xmlns:rdf="http://www.w3.org/1999/02/22-rdf-syntax-ns#"
   xmlns:svg="http://www.w3.org/2000/svg"
   xmlns="http://www.w3.org/2000/svg"
   xmlns:sodipodi="http://sodipodi.sourceforge.net/DTD/sodipodi-0.dtd"
   xmlns:inkscape="http://www.inkscape.org/namespaces/inkscape"
   width="100"
   height="100"
   id="svg2"
   sodipodi:version="0.32"
   inkscape:version="0.44.1"
   version="1.0"
   sodipodi:docbase="/home/mat/Travaux/Inkscape/Gcompris/boardicons"
   sodipodi:docname="numeration.svg">
  <defs
     id="defs4" />
  <sodipodi:namedview
     id="base"
     pagecolor="#ffffff"
     bordercolor="#666666"
     borderopacity="1.0"
     inkscape:pageopacity="0.0"
     inkscape:pageshadow="2"
     inkscape:zoom="6.2200871"
     inkscape:cx="49.548569"
     inkscape:cy="39.735714"
     inkscape:document-units="px"
     inkscape:current-layer="layer1"
     width="100px"
     height="100px"
     showguides="true"
     inkscape:guide-bbox="true"
     inkscape:window-width="1112"
     inkscape:window-height="949"
     inkscape:window-x="73"
     inkscape:window-y="25" />
  <metadata
     id="metadata7">
    <rdf:RDF>
      <cc:Work
         rdf:about="">
        <dc:format>image/svg+xml</dc:format>
        <dc:type
           rdf:resource="http://purl.org/dc/dcmitype/StillImage" />
      </cc:Work>
    </rdf:RDF>
  </metadata>
  <g
     inkscape:label="Calque 1"
     inkscape:groupmode="layer"
     id="layer1">
    <path
       style="fill:black;fill-opacity:0.2463343;fill-rule:evenodd;stroke:none;stroke-width:1px;stroke-linecap:butt;stroke-linejoin:miter;stroke-opacity:1"
       d="M 68.75236,14.543263 L 37.56486,16.480763 L 20.84611,15.824513 L 23.09611,34.637013 L 22.78361,37.887013 C 21.509193,38.690348 20.499377,39.358691 19.84611,39.824513 C 16.782907,41.551018 14.869066,42.607489 14.09611,42.980763 C 14.09611,43.330745 14.09873,43.519952 14.12736,43.543263 C 16.188576,46.622951 17.29934,48.334155 17.47111,48.730763 C 18.072295,50.013973 18.374735,50.960003 18.34611,51.543263 C 18.546502,51.776582 18.697722,51.887025 18.78361,51.887013 C 20.013659,51.157969 20.806535,50.672277 21.56486,50.199513 L 21.15861,54.418263 L 21.31486,56.230763 C 21.260725,56.284902 21.210392,56.33288 21.12736,56.387013 C 20.239882,56.596997 19.585401,56.739117 19.12736,56.855763 C 18.268514,56.995754 17.619277,57.090356 17.18986,57.137013 C 16.56004,57.346997 15.910802,57.528283 15.25236,57.668263 C 14.966077,57.808252 14.812235,57.910776 14.78361,57.980763 C 14.697725,59.660587 14.543882,61.876056 14.31486,64.605763 C 14.085835,67.125491 13.971108,68.324078 13.97111,68.230763 C 13.971108,68.534057 14.161444,68.739103 14.53361,68.855763 C 14.991658,68.66911 15.531413,68.550748 16.18986,68.480763 C 18.809379,68.227475 20.604512,68.05612 22.34611,67.887013 L 22.43986,69.043263 L 21.62736,85.918263 L 44.93986,87.230763 L 62.47111,85.293263 L 81.43986,87.699513 L 95.90861,86.730763 L 93.87736,67.449513 C 94.16105,67.310458 94.45292,67.165813 94.72111,67.012013 C 95.46541,66.568724 96.08339,65.969426 96.62736,65.199513 C 96.9995,64.662902 97.38017,64.111124 97.75236,63.574513 C 99.241,61.918023 100.00233,60.246419 100.00236,58.543263 C 100.00233,57.446719 99.47307,56.003912 98.47111,54.230763 C 97.81264,53.484185 97.27288,52.908645 96.81486,52.512013 C 98.04584,51.088842 98.88541,50.000691 99.31486,49.230763 C 99.88739,48.180888 100.19509,47.029814 100.25236,45.793263 C 100.28096,45.676625 100.32009,45.52659 100.37736,45.293263 C 100.46322,45.036642 100.50234,44.863275 100.50236,44.793263 C 100.50233,41.723874 99.0373,39.196012 96.09611,37.199513 L 95.12736,16.793263 L 68.75236,14.543263 z "
       id="path9836" />
    <path
       style="fill:black;fill-opacity:1;fill-rule:evenodd;stroke:none;stroke-width:1px;stroke-linecap:butt;stroke-linejoin:miter;stroke-opacity:1"
       d="M 16.720023,30.869135 L 14.79079,50.643778 L 16.076945,65.273798 L 15.273098,82.154591 L 38.584669,83.440746 L 56.108539,81.511513 L 75.079335,83.923055 L 89.548585,82.958438 L 86.815505,57.235325 L 89.870124,36.496066 L 88.744739,13.023726 L 62.378548,10.772953 L 31.189274,12.702187 L 14.46925,12.05911 L 16.720023,30.869135 z "
       id="path2101"
       sodipodi:nodetypes="ccccccccccccccc" />
    <path
       style="fill:white;fill-opacity:1;fill-rule:evenodd;stroke:none;stroke-width:1px;stroke-linecap:butt;stroke-linejoin:miter;stroke-opacity:1"
       d="M 82.989431,32.914087 L 84.684195,49.559556 L 83.554353,61.874495 L 84.260504,76.084042 L 63.782109,77.166674 L 48.388005,75.542726 L 31.722829,77.572661 L 19.012102,76.760687 L 21.413017,55.108045 L 18.729641,37.650603 L 19.718253,17.892567 L 42.880023,15.99796 L 70.278704,17.621908 L 84.966656,17.080593 L 82.989431,32.914087 z "
       id="path2988"
       sodipodi:nodetypes="ccccccccccccccc" />
    <g
       id="g1970"
       transform="translate(4.340779,122.9887)">
      <path
         id="path1952"
         d="M 32.691264,-50.631801 L 35.342026,-57.774212 L 41.968929,-63.025989 L 51.246595,-63.236059 L 56.28304,-57.774212 L 55.487812,-52.102298 L 53.367203,-46.430383 L 51.246595,-42.859176 L 59.198878,-43.069248 L 59.72903,-34.036199 L 35.607101,-33.616056 L 35.872178,-42.439035 L 38.788015,-44.539745 L 37.727711,-46.850524 L 32.426187,-49.581447 L 32.691264,-50.631801 z "
         style="fill:#ff7bff;fill-opacity:1;fill-rule:evenodd;stroke:black;stroke-width:1.6438992px;stroke-linecap:butt;stroke-linejoin:miter;stroke-opacity:1" />
      <path
         sodipodi:nodetypes="cscccsccsscsscscccccssssccccsscsccscssscccscccssccccsccsssccssscccccsssccccsccsccssccc"
         style="font-size:23.58180809px;font-style:normal;font-variant:normal;font-weight:normal;font-stretch:normal;text-align:start;line-height:125%;writing-mode:lr-tb;text-anchor:start;fill:black;fill-opacity:1;stroke:none;stroke-width:1px;stroke-linecap:butt;stroke-linejoin:miter;stroke-opacity:1;font-family:Indigo Joker"
         d="M 61.81878,-42.137174 C 61.818749,-42.207162 61.804435,-41.98552 61.775838,-41.472245 C 61.747179,-40.702325 61.718551,-39.384132 61.689954,-37.517665 C 61.632667,-36.817741 61.546783,-35.861178 61.432302,-34.647971 C 61.43227,-34.181358 61.317758,-33.504765 61.088765,-32.618186 C 61.00285,-32.454877 60.244208,-32.314892 58.812835,-32.198232 C 57.667686,-32.104914 56.665705,-32.058253 55.806889,-32.058246 L 41.206586,-32.268224 C 41.120691,-32.268231 40.891667,-32.303226 40.519513,-32.373213 C 40.147339,-32.41988 39.904001,-32.443211 39.789497,-32.443205 C 38.959275,-32.489874 38.114748,-32.536535 37.255915,-32.583191 C 36.168043,-32.676519 35.337831,-32.839836 34.765276,-33.073139 C 34.19271,-33.306452 33.906429,-34.018043 33.906433,-35.207911 C 33.906429,-35.254577 33.949372,-35.686197 34.03526,-36.502773 C 34.149767,-37.319354 34.221337,-37.91429 34.249971,-38.287583 C 34.307222,-39.080832 34.350165,-39.87408 34.378796,-40.66733 C 34.464677,-41.763877 34.708015,-42.627118 35.108812,-43.257055 C 35.108806,-43.513689 35.223319,-43.851986 35.452347,-44.271946 C 35.652739,-44.458587 36.01059,-44.668565 36.525901,-44.90188 C 37.041199,-45.158513 37.384735,-45.345159 37.55651,-45.46182 C 37.098454,-45.788445 36.196672,-46.255062 34.851159,-46.861671 C 33.620149,-47.421602 32.746995,-47.899885 32.231693,-48.296518 C 31.458735,-48.903111 31.072257,-49.579704 31.072257,-50.326302 C 31.072257,-50.232968 31.143827,-50.524602 31.286967,-51.201209 C 31.487363,-52.087768 32.031294,-53.53428 32.918766,-55.540748 C 33.834859,-57.570513 35.337831,-59.61196 37.427684,-61.665096 C 39.660661,-63.904832 41.750507,-65.25802 43.697227,-65.724664 C 44.04075,-65.864622 44.541739,-66.027937 45.200199,-66.214611 C 45.944513,-66.331237 46.860609,-66.389565 47.948492,-66.389593 C 50.267343,-66.389565 52.385816,-65.864622 54.303917,-64.814761 C 56.221971,-63.764848 57.438661,-62.504982 57.953994,-61.035162 C 58.440643,-59.705284 58.683981,-58.352096 58.684009,-56.975595 C 58.683981,-55.155772 58.154362,-52.997671 57.095153,-50.501283 C 56.150401,-48.261512 55.14842,-46.570028 54.089207,-45.426824 C 54.089183,-45.263501 54.246638,-45.181843 54.56157,-45.181849 C 54.676057,-45.181843 55.491956,-45.251836 57.009268,-45.391827 C 58.555155,-45.555136 59.385367,-45.636794 59.499908,-45.636801 C 60.07244,-45.636794 60.473232,-45.578467 60.702286,-45.46182 C 61.045792,-45.298497 61.332072,-44.773553 61.561128,-43.886988 C 61.732865,-43.187057 61.818749,-42.603788 61.81878,-42.137174 M 58.855777,-39.72243 C 58.855749,-39.815752 58.812807,-40.037396 58.726951,-40.38736 C 58.669667,-40.760652 58.626725,-41.017291 58.598125,-41.157277 C 58.54084,-41.57723 58.369073,-41.868866 58.082819,-42.032185 C 57.825139,-42.218828 57.352778,-42.312152 56.665732,-42.312155 L 46.917881,-41.087286 C 46.373932,-41.27393 46.101966,-41.495573 46.101982,-41.752214 C 46.101966,-41.845535 46.602957,-42.300486 47.604954,-43.11707 C 48.778685,-44.073628 49.580271,-44.773553 50.00971,-45.216846 C 50.43911,-45.683457 50.968729,-46.348384 51.598567,-47.211633 C 52.657783,-48.611475 53.387797,-49.89467 53.788614,-51.061224 C 53.960358,-51.59782 54.146439,-52.484392 54.34686,-53.720942 C 54.547232,-54.817474 54.647429,-55.470739 54.647455,-55.680733 C 54.647429,-56.963911 54.318208,-58.188779 53.659787,-59.355342 C 52.829551,-60.848494 51.655802,-61.770062 50.138537,-62.120048 C 49.365561,-62.30667 48.320637,-62.399994 47.003766,-62.400017 C 46.83198,-62.399994 46.345304,-62.330001 45.543734,-62.19004 C 44.742136,-62.050031 44.312715,-61.980039 44.255473,-61.980062 C 42.451893,-61.840053 40.519502,-60.88349 38.458293,-59.110367 C 36.425696,-57.337204 35.352144,-55.692381 35.237637,-54.175893 C 35.209004,-53.98923 35.094493,-53.604271 34.894101,-53.021015 C 34.6937,-52.437731 34.593503,-52.111098 34.593506,-52.04112 C 34.593503,-51.29452 34.650758,-50.851234 34.765276,-50.711261 C 35.337831,-50.057987 36.139415,-49.533043 37.170032,-49.136429 C 38.057493,-48.809787 38.944962,-48.483155 39.83244,-48.156533 C 39.918314,-48.226516 40.004199,-48.308173 40.090093,-48.401508 C 40.40499,-50.337956 40.662642,-51.516163 40.863049,-51.93613 C 41.492856,-53.382629 42.065415,-54.37419 42.580733,-54.910814 C 43.325049,-55.634054 44.341343,-55.995681 45.629619,-55.995699 C 46.917865,-55.995681 47.862589,-55.330752 48.463795,-54.000911 C 48.86457,-53.114324 49.064966,-52.146095 49.064986,-51.09622 C 49.064966,-49.696358 48.793,-48.634806 48.249085,-47.911559 C 48.020044,-47.63158 47.175517,-47.07164 45.715504,-46.231739 C 45.057044,-45.788445 44.069377,-45.228504 42.752501,-44.551917 C 41.750507,-44.295272 40.347734,-43.898648 38.544178,-43.362043 C 38.286516,-43.268715 38.014551,-42.708776 37.728278,-41.682223 C 37.44199,-40.655662 37.29885,-39.815752 37.298857,-39.16249 L 37.298857,-35.837845 C 37.613758,-35.581207 37.957295,-35.452888 38.329468,-35.452885 C 38.386716,-35.452888 38.887705,-35.487885 39.83244,-35.557874 C 40.777155,-35.604539 41.406971,-35.639534 41.72189,-35.662863 C 42.43758,-35.662866 43.468189,-35.6512 44.813721,-35.627867 C 46.302361,-35.604539 46.960807,-35.592873 46.789056,-35.59287 C 49.07928,-35.592873 52.843864,-35.814516 58.082819,-36.257799 C 58.311817,-36.281132 58.497898,-36.77108 58.641067,-37.727643 C 58.784179,-38.497561 58.855749,-39.16249 58.855777,-39.72243"
         id="text4195" />
    </g>
    <g
       id="g1966"
       transform="translate(23.1508,127.0079)">
      <path
         id="path1954"
         d="M -14.403458,-94.71475 L -6.9813266,-100.17659 L 2.8264914,-100.38666 L -0.88457355,-80.850069 L 5.7423284,-79.379572 L 3.6217194,-73.077445 L -17.05422,-72.657302 L -16.524066,-79.379572 L -10.692392,-80.639997 L -8.3067066,-90.093189 L -12.282849,-90.51333 L -14.403458,-94.71475 z "
         style="fill:#0fb8aa;fill-opacity:1;fill-rule:evenodd;stroke:none;stroke-width:1px;stroke-linecap:butt;stroke-linejoin:miter;stroke-opacity:1" />
      <path
         sodipodi:nodetypes="ccssscssscsccscccccccsccccccccccscssscssccccsccccccscsssccsscscsssccsssccsscccccc"
         style="font-size:23.58180809px;font-style:normal;font-variant:normal;font-weight:normal;font-stretch:normal;text-align:start;line-height:125%;writing-mode:lr-tb;text-anchor:start;fill:black;fill-opacity:1;stroke:none;stroke-width:1px;stroke-linecap:butt;stroke-linejoin:miter;stroke-opacity:1;font-family:Indigo Joker"
         d="M 8.1989574,-79.661719 C 8.1989304,-78.868467 7.8410794,-77.375295 7.1254064,-75.182197 C 6.2665394,-72.499151 5.4076984,-71.157629 4.5488824,-71.157625 C 4.4629744,-71.157629 4.2625784,-71.18096 3.9476924,-71.227616 C 3.6327624,-71.250951 3.4323654,-71.262617 3.3465044,-71.262613 C 3.2319694,-71.262617 2.6450964,-71.215956 1.5858794,-71.122628 C 0.52662145,-71.005978 -0.060252555,-70.947651 -0.17474555,-70.947647 C -0.26064855,-70.947651 -0.46104555,-70.970982 -0.77593355,-71.017638 C -1.0908616,-71.040975 -1.3198846,-71.052639 -1.4630066,-71.052635 C -2.2646106,-71.052639 -3.3811026,-70.982648 -4.8124886,-70.842657 C -6.7019536,-70.632685 -7.8757026,-70.504365 -8.3337396,-70.457699 C -10.251827,-70.271057 -12.899918,-70.014418 -16.278022,-69.687781 C -16.93647,-69.617794 -17.494716,-69.489475 -17.952764,-69.302822 C -18.324929,-69.419482 -18.511012,-69.62946 -18.51101,-69.932754 C -18.511012,-69.839436 -18.396499,-71.052639 -18.167474,-73.572367 C -17.938451,-76.302076 -17.780996,-78.506839 -17.695111,-80.186663 C -17.666485,-80.256652 -17.50903,-80.36164 -17.222748,-80.501629 C -16.564306,-80.641609 -15.920175,-80.816591 -15.290356,-81.026575 C -14.860939,-81.07323 -14.216808,-81.166553 -13.357961,-81.306544 C -12.899918,-81.423192 -12.227162,-81.586508 -11.339684,-81.796492 C -11.196553,-81.889809 -11.096355,-81.983133 -11.039091,-82.076463 C -10.237514,-85.716065 -9.8367206,-87.722515 -9.8367116,-88.095822 C -9.8367206,-88.165802 -9.9369186,-88.282456 -10.137307,-88.445785 C -10.9389,-87.932493 -12.126962,-87.209237 -13.701499,-86.276016 C -13.787387,-86.276005 -13.930527,-86.392659 -14.130919,-86.625978 C -14.102295,-87.209237 -14.388576,-88.142471 -14.989761,-89.425681 C -15.161532,-89.82229 -16.278026,-91.560437 -18.339242,-94.640125 C -18.367872,-94.663437 -18.382184,-94.850084 -18.382184,-95.200066 C -17.609228,-95.57334 -15.69115,-96.623226 -12.627947,-98.349731 C -11.940881,-98.839655 -10.910273,-99.516249 -9.5361166,-100.37951 C -8.8490546,-100.79944 -7.7898176,-101.38271 -6.3584046,-102.12933 C -6.1007646,-102.29262 -5.7142866,-102.51426 -5.1989686,-102.79426 C -5.1130986,-102.81756 -4.8697606,-102.82923 -4.4689526,-102.82925 C -4.3830846,-102.82923 -3.6244406,-102.7359 -2.1930226,-102.54928 C -0.76163855,-102.38594 0.011317445,-102.30428 0.12584845,-102.30431 C 0.21171245,-102.30428 0.36916745,-102.31595 0.59821145,-102.33931 C 0.82721645,-102.38594 0.99898345,-102.40927 1.1135164,-102.4093 C 1.9150804,-102.40927 2.7309794,-102.33928 3.5612144,-102.19932 C 5.0212204,-101.96599 5.7512364,-101.56936 5.7512594,-101.00945 C 5.7512364,-100.93943 5.6939784,-100.78778 5.5794914,-100.55449 C 5.4649554,-100.34449 5.4076984,-100.18118 5.4077244,-100.06455 C 5.2931874,-98.594682 5.1357324,-97.486467 4.9353614,-96.739901 C 4.6204294,-95.03673 4.0764964,-92.36535 3.3035614,-88.725754 C 2.7596064,-87.115914 2.0868484,-84.817828 1.2852844,-81.831488 C 1.4284044,-81.621504 1.7433124,-81.48152 2.2300104,-81.411532 C 2.5735264,-81.364865 2.9313744,-81.329869 3.3035614,-81.306544 C 4.1337514,-81.213215 4.9782774,-81.119892 5.8371444,-81.026575 C 7.4116614,-80.746599 8.1989304,-80.291647 8.1989574,-79.661719 M 3.9476924,-77.806916 C 3.8617854,-77.876906 3.7329604,-77.981896 3.5612144,-78.121882 C 2.7596064,-78.261866 0.71270345,-78.518505 -2.5795006,-78.891801 C -2.7226596,-79.078445 -2.7942296,-79.265091 -2.7942116,-79.451741 C -2.7942296,-79.195098 -2.1787266,-81.796486 -0.94770355,-87.25591 C -0.60418555,-89.052373 -0.14613555,-91.408786 0.42644345,-94.325159 C 0.51230845,-94.745094 0.72701845,-95.515013 1.0705744,-96.634913 C 1.3854624,-97.638118 1.5429174,-98.174726 1.5429374,-98.244741 C 1.5429174,-98.431365 1.4856594,-98.571351 1.3711694,-98.664697 L -0.81887655,-98.664697 C -2.8228566,-98.664673 -4.7838756,-98.548019 -6.7019406,-98.314735 C -7.0454886,-98.26805 -7.4892246,-98.046407 -8.0331446,-97.649804 C -8.5484606,-97.276489 -9.2355326,-96.71655 -10.094365,-95.969984 C -11.182238,-95.03673 -11.726171,-94.45346 -11.726164,-94.22017 C -11.726171,-94.056835 -11.511461,-93.531893 -11.082032,-92.645338 C -10.595365,-91.665425 -10.194572,-91.175478 -9.8796546,-91.175494 C -9.7937786,-91.175478 -9.3929876,-91.327129 -8.6772756,-91.630445 C -7.9615856,-91.93373 -7.5607946,-92.085381 -7.4748986,-92.085397 C -7.2172566,-92.085381 -7.0168616,-92.003723 -6.8737086,-91.840423 C -6.9309766,-90.697196 -7.1170586,-89.204024 -7.4319566,-87.3609 C -7.9759006,-83.977918 -8.2764936,-82.04146 -8.3337396,-81.551519 C -8.4196336,-80.92158 -8.5914016,-80.116666 -8.8490436,-79.136775 C -8.9063116,-78.903464 -9.0637646,-78.78681 -9.3214066,-78.786813 C -9.4359296,-78.78681 -9.4931846,-78.798474 -9.4931756,-78.821809 L -9.4931756,-78.821809 C -9.4931846,-78.868467 -9.5361276,-78.891798 -9.6220016,-78.891801 C -9.7365226,-78.891798 -11.411263,-78.635159 -14.646223,-78.121882 C -15.075649,-78.051888 -15.290359,-77.935234 -15.290356,-77.77192 L -15.290356,-74.622256 L -5.4995616,-74.622256 L 1.9294154,-73.887334 C 2.3874434,-73.887336 2.8598044,-74.517268 3.3465044,-75.777132 C 3.6613904,-76.640373 3.8617854,-77.316967 3.9476924,-77.806916"
         id="path1956" />
    </g>
    <g
       id="g1974"
       transform="translate(27.49158,36.49467)">
      <path
         id="path1950"
         d="M 39.959138,-17.103857 L 49.501878,-14.793077 L 46.586041,-9.9614464 L 41.549594,-9.3312344 L 41.019442,-3.8693904 L 45.790813,0.96224161 L 53.743097,1.3823836 L 61.695381,-3.2391774 L 62.490609,-8.4909494 L 59.839848,-12.902439 L 63.020761,-18.154211 L 59.839848,-25.926836 L 52.417716,-27.817478 L 45.525736,-27.187258 L 41.81467,-22.565701 L 39.959138,-17.103857 z "
         style="fill:#ff7b06;fill-opacity:1;fill-rule:evenodd;stroke:black;stroke-width:1.6438992px;stroke-linecap:butt;stroke-linejoin:miter;stroke-opacity:1" />
      <path
         sodipodi:nodetypes="csccccscsccssccccssssssssccsscccccsscccccssssccccssscsccccccssssssccscssscssccssscssscc"
         style="font-size:23.58180809px;font-style:normal;font-variant:normal;font-weight:normal;font-stretch:normal;text-align:start;line-height:125%;writing-mode:lr-tb;text-anchor:start;fill:black;fill-opacity:1;stroke:none;stroke-width:1px;stroke-linecap:butt;stroke-linejoin:miter;stroke-opacity:1;font-family:Indigo Joker"
         d="M 64.651843,-20.551697 C 64.651816,-20.481686 64.608874,-20.31837 64.523017,-20.061749 C 64.465734,-19.828423 64.422792,-19.653442 64.394191,-19.536804 C 64.336908,-18.300254 64.022,-17.157044 63.449465,-16.107169 C 63.020019,-15.337239 62.189807,-14.24069 60.958825,-12.817519 C 61.41685,-12.420885 61.975096,-11.84928 62.633566,-11.102702 C 63.635522,-9.3295513 64.136512,-7.8947043 64.136538,-6.7981603 C 64.136512,-5.0950068 63.392183,-3.4151868 61.903551,-1.7586968 C 61.531362,-1.2220888 61.159198,-0.68547982 60.787057,-0.14886882 C 60.243101,0.62104618 59.598971,1.2276482 58.854664,1.6709372 C 57.308729,2.5575052 55.505164,3.1991022 53.443962,3.5957332 C 52.184314,3.8290342 51.210961,3.9456892 50.523902,3.9456962 C 47.746971,3.9456892 45.342217,3.2690952 43.309634,1.9159122 C 40.990758,0.37607218 39.688184,-1.7120358 39.401905,-4.3484218 C 39.373275,-4.4417428 39.301705,-4.6167238 39.187195,-4.8733658 C 39.101309,-5.1533338 39.058367,-5.3399798 39.058368,-5.4333068 L 39.058368,-8.9329333 C 39.058367,-9.3295513 39.330333,-9.8428293 39.874268,-10.472769 C 39.988778,-10.612746 40.303686,-10.787727 40.818993,-10.997713 C 41.362923,-11.231014 41.792343,-11.347666 42.107256,-11.347675 C 42.221763,-11.347666 42.307647,-11.324336 42.364908,-11.277684 C 42.450787,-11.254344 42.565299,-11.242678 42.708445,-11.242687 C 43.13786,-11.242678 43.667478,-11.312671 44.297301,-11.452665 C 45.041623,-11.615971 45.513986,-11.790953 45.71439,-11.977609 C 45.914778,-12.164246 46.014976,-12.514209 46.014984,-13.027497 C 46.014976,-13.540764 45.67144,-13.972385 44.984374,-14.322359 C 43.696106,-15.022273 41.863913,-15.395566 39.487789,-15.44224 C 39.344647,-15.465557 39.101309,-15.570547 38.757774,-15.757206 C 38.414237,-15.967171 38.242469,-16.142152 38.242469,-16.28215 C 38.242469,-17.238701 38.385609,-18.61522 38.67189,-20.411712 C 38.757773,-20.575009 38.857971,-20.784987 38.972484,-21.041644 C 39.373275,-23.048077 40.81899,-25.136187 43.309634,-27.305978 C 43.71042,-27.4926 44.311609,-27.819231 45.113201,-28.285873 C 46.630478,-29.335735 48.434043,-30.012329 50.523902,-30.315657 C 50.609773,-30.338961 50.824483,-30.397288 51.168033,-30.490638 C 51.511555,-30.583934 51.74058,-30.630596 51.855106,-30.630624 C 53.687285,-30.630596 55.49085,-30.245637 57.265807,-29.475747 C 57.924232,-29.242412 58.88327,-28.822457 60.142926,-28.215881 C 63.148845,-26.209404 64.651816,-23.654678 64.651843,-20.551697 M 60.829999,-19.291831 C 60.829976,-21.274935 59.942507,-22.978085 58.16759,-24.401287 C 56.392633,-25.847776 54.216903,-26.571032 51.640395,-26.571056 C 50.896053,-26.571032 50.438005,-26.559366 50.266249,-26.536059 C 50.123097,-26.512705 49.937014,-26.454378 49.708002,-26.361078 C 49.478966,-26.291061 49.321512,-26.256066 49.235639,-26.25609 C 47.832855,-26.279397 46.401454,-25.53281 44.941432,-24.016328 C 43.85356,-22.919758 42.908836,-21.578235 42.107256,-19.991756 C 41.935483,-19.688438 41.749401,-18.848528 41.549009,-17.472024 C 42.722754,-17.168708 44.325923,-16.737088 46.358521,-16.177162 C 46.53028,-16.737088 46.716362,-17.285362 46.916768,-17.821987 C 47.145783,-18.451904 47.417749,-18.941852 47.732667,-19.291831 C 48.620125,-20.271709 49.679362,-20.761657 50.91038,-20.761674 C 51.998232,-20.761657 52.914328,-20.388362 53.658673,-19.641793 C 54.317101,-18.941852 54.646324,-18.183599 54.646341,-17.367035 C 54.646324,-14.753968 53.658657,-13.225798 51.683338,-12.782522 C 51.082135,-12.735851 50.495261,-12.68919 49.922713,-12.642538 C 49.235628,-12.525875 48.935034,-12.140915 49.020929,-11.487662 C 49.27857,-11.301005 49.593478,-11.161021 49.965655,-11.067706 C 50.452319,-10.974373 51.110763,-10.811058 51.94099,-10.577758 C 52.59942,-10.321111 53.171981,-9.8428293 53.658673,-9.1429103 C 54.059449,-8.5363023 54.259845,-8.0463553 54.259862,-7.6730663 C 54.259845,-6.8331523 53.830425,-6.0749013 52.9716,-5.3983098 C 52.141372,-4.7450438 51.196647,-4.4184118 50.137423,-4.4184138 C 49.020918,-4.4184118 48.090507,-4.8383678 47.346188,-5.6782793 C 46.88813,-6.1915553 46.659106,-6.7981573 46.659115,-7.4980853 C 46.659106,-7.8013823 46.702048,-8.1046823 46.787941,-8.4079883 C 46.873816,-8.6879533 46.81656,-8.8862653 46.616173,-9.0029253 C 46.415768,-9.0029193 46.086546,-9.0145853 45.628505,-9.0379223 C 45.170449,-9.0845773 44.898483,-9.1079073 44.812606,-9.1079153 C 44.096899,-9.1079073 43.49571,-9.0262503 43.009039,-8.8629403 C 42.722754,-8.7462803 42.450787,-8.3379903 42.19314,-7.6380713 C 41.935483,-6.9614723 41.806657,-6.4365283 41.806661,-6.0632383 C 41.806657,-5.2233258 42.221763,-4.2550968 43.051981,-3.1585478 C 43.338256,-2.7852548 43.753362,-2.3186378 44.297301,-1.7586968 C 45.585555,-0.89545782 47.403435,-0.46383782 49.750944,-0.46383482 C 49.77956,-0.46383782 50.395063,-0.52216382 51.597453,-0.63881582 C 52.628048,-0.73214182 53.200609,-0.77880382 53.315136,-0.77880082 C 53.973565,-0.89545782 54.63201,-1.0587738 55.290472,-1.2687498 C 56.893623,-1.8053598 57.895604,-2.3303038 58.296417,-2.8435818 C 59.470145,-4.3600848 60.057019,-5.8065963 60.057042,-7.1831193 C 60.057019,-8.9562583 59.598971,-10.274449 58.682895,-11.137697 C 58.425222,-11.370998 58.010116,-11.674299 57.437575,-12.047601 C 56.979507,-12.327561 56.750483,-12.514209 56.750502,-12.607541 C 56.750483,-12.700854 56.864995,-12.864171 57.094039,-13.09749 C 57.323043,-13.330788 57.451869,-13.470773 57.480517,-13.517444 C 58.16757,-14.334013 58.840328,-15.138927 59.498795,-15.932188 C 60.386241,-17.052054 60.829976,-18.171933 60.829999,-19.291831"
         id="path1964" />
    </g>
  </g>
</svg>
