<?xml version="1.0" encoding="UTF-8" standalone="no"?>
<!-- Created with Inkscape (http://www.inkscape.org/) -->
<svg
   xmlns:dc="http://purl.org/dc/elements/1.1/"
   xmlns:cc="http://web.resource.org/cc/"
   xmlns:rdf="http://www.w3.org/1999/02/22-rdf-syntax-ns#"
   xmlns:svg="http://www.w3.org/2000/svg"
   xmlns="http://www.w3.org/2000/svg"
   xmlns:sodipodi="http://sodipodi.sourceforge.net/DTD/sodipodi-0.dtd"
   xmlns:inkscape="http://www.inkscape.org/namespaces/inkscape"
   width="100"
   height="100"
   id="svg2"
   sodipodi:version="0.32"
   inkscape:version="0.44.1"
   version="1.0"
   sodipodi:docbase="/home/mat/Travaux/Inkscape/Gcompris/boardicons"
   sodipodi:docname="railroad.svg">
  <defs
     id="defs4" />
  <sodipodi:namedview
     id="base"
     pagecolor="#ffffff"
     bordercolor="#666666"
     borderopacity="1.0"
     inkscape:pageopacity="0.0"
     inkscape:pageshadow="2"
     inkscape:zoom="6.3238915"
     inkscape:cx="69.34698"
     inkscape:cy="48.519189"
     inkscape:document-units="px"
     inkscape:current-layer="layer1"
     width="100px"
     height="100px"
     inkscape:window-width="1130"
     inkscape:window-height="918"
     inkscape:window-x="75"
     inkscape:window-y="5" />
  <metadata
     id="metadata7">
    <rdf:RDF>
      <cc:Work
         rdf:about="">
        <dc:format>image/svg+xml</dc:format>
        <dc:type
           rdf:resource="http://purl.org/dc/dcmitype/StillImage" />
      </cc:Work>
    </rdf:RDF>
  </metadata>
  <g
     inkscape:label="Calque 1"
     inkscape:groupmode="layer"
     id="layer1">
    <path
       style="fill:black;fill-opacity:0.26979472;fill-rule:evenodd;stroke:none;stroke-width:0.73705125px;stroke-linecap:butt;stroke-linejoin:miter;stroke-opacity:1"
       d="M 8.59375 19.59375 L 6.46875 22.28125 L 6.46875 30 L 6.3125 41.40625 L 12.3125 44.25 L 10.59375 52.15625 L 8.0625 60.875 L 7.71875 71.75 L 8.6875 73.5 L 13.46875 73.78125 L 14.53125 78.0625 L 17.625 81.15625 C 17.624999 81.15625 19.766863 82.237413 20.9375 82.15625 C 22.108137 82.075089 25.6875 80.75 25.6875 80.75 L 28.78125 77.53125 L 28.96875 74.75 L 36.59375 75.21875 L 37.375 78.28125 L 40.4375 81.34375 C 40.437501 81.343746 42.610613 82.456163 43.78125 82.375 C 44.951889 82.293835 48.5 80.96875 48.5 80.96875 L 51.59375 77.75 L 51.9375 72.875 L 51.90625 72.8125 L 55.78125 75.25 L 62.8125 73.5625 L 62.21875 76 L 62.25 76.1875 L 61.5 78.71875 L 62.25 78.6875 L 62.15625 79.03125 L 63.21875 79 L 64.6875 80.5 C 64.687503 80.499995 65.99045 81.143044 66.6875 81.09375 C 67.384543 81.044451 69.5 80.25 69.5 80.25 L 71.03125 78.65625 L 76 78.4375 L 76.15625 79.03125 L 77.96875 80.875 C 77.968753 80.874996 79.2717 81.549294 79.96875 81.5 C 80.665793 81.450702 82.78125 80.65625 82.78125 80.65625 L 84.625 78.6875 L 84.65625 78.1875 L 95.65625 77.9375 L 98.34375 74.9375 L 88.53125 68.125 L 91.71875 59.25 L 92.8125 48.5 L 87.59375 48.6875 L 86.625 41.40625 L 92.3125 39.5 L 92.96875 33.03125 L 84.09375 32.6875 L 75.875 32.0625 L 76.34375 39.5 L 76.375 39.8125 L 77.5625 39.9375 L 80.3125 40.9375 L 79.1875 46.9375 L 76.6875 46.84375 L 59.28125 47.09375 L 59.125 40.59375 L 54.84375 37.28125 L 51.0625 42.34375 L 51.0625 47.40625 L 40.59375 46.96875 L 40.5625 44.625 L 41.5625 35.875 L 43 24 L 40.53125 21 L 24.15625 20.6875 L 8.59375 19.59375 z M 10.84375 30.65625 L 30.53125 31.3125 L 30.03125 37.5 L 27.9375 37.6875 L 26.9375 39.34375 L 16.625 38.71875 L 10.59375 37.875 L 10.84375 30.65625 z "
       id="path12106" />
    <path
       style="fill:black;fill-opacity:1;fill-rule:evenodd;stroke:none;stroke-width:0.73705125px;stroke-linecap:butt;stroke-linejoin:miter;stroke-opacity:1"
       d="M 12.998372,65.932609 C 9.541453,68.779727 9.335543,69.275044 9.335543,69.275044 L 8.252981,73.68949 L 9.331656,78.016417 L 12.397168,81.094619 C 12.397168,81.094619 14.557579,82.193431 15.728216,82.112268 C 16.898853,82.031105 20.460036,80.710455 20.460036,80.710455 L 23.560653,77.484932 L 23.88784,72.625374 L 22.497044,68.751185 L 19.300399,66.219961 L 15.640089,65.604593 L 12.998372,65.932609 z "
       id="path1872"
       sodipodi:nodetypes="cccccsccccccc" />
    <path
       style="fill:black;fill-opacity:1;fill-rule:evenodd;stroke:none;stroke-width:0.73705125px;stroke-linecap:butt;stroke-linejoin:miter;stroke-opacity:1"
       d="M 35.828059,66.138637 C 32.37114,68.985755 32.165231,69.481072 32.165231,69.481072 L 31.082669,73.895518 L 32.161343,78.222445 L 35.226855,81.300647 C 35.226855,81.300647 37.387266,82.399459 38.557903,82.318296 C 39.72854,82.237133 43.289723,80.916483 43.289723,80.916483 L 46.39034,77.69096 L 46.717527,72.831402 L 45.326731,68.957213 L 42.130086,66.425989 L 38.469776,65.810621 L 35.828059,66.138637 z "
       id="path2760"
       sodipodi:nodetypes="cccccsccccccc" />
    <path
       style="fill:black;fill-opacity:1;fill-rule:evenodd;stroke:none;stroke-width:0.73705125px;stroke-linecap:butt;stroke-linejoin:miter;stroke-opacity:1"
       d="M 59.841669,71.228149 C 57.783276,72.957358 57.660669,73.258191 57.660669,73.258191 L 57.016067,75.939324 L 57.658354,78.567302 L 59.483687,80.436861 C 59.483687,80.436861 60.770085,81.104229 61.46713,81.054935 C 62.164176,81.00564 64.284651,80.203538 64.284651,80.203538 L 66.130886,78.244502 L 66.325707,75.293029 L 65.49757,72.940023 L 63.594155,71.402673 L 61.414656,71.028927 L 59.841669,71.228149 z "
       id="path2762"
       sodipodi:nodetypes="cccccsccccccc" />
    <path
       style="fill:black;fill-opacity:1;fill-rule:evenodd;stroke:none;stroke-width:0.73705125px;stroke-linecap:butt;stroke-linejoin:miter;stroke-opacity:1"
       d="M 73.12463,71.623475 C 71.066237,73.352684 70.94363,73.653517 70.94363,73.653517 L 70.299028,76.33465 L 70.941315,78.962628 L 72.766648,80.832187 C 72.766648,80.832187 74.053046,81.499555 74.750091,81.450261 C 75.447137,81.400966 77.567612,80.598864 77.567612,80.598864 L 79.413847,78.639828 L 79.608668,75.688355 L 78.780531,73.335349 L 76.877116,71.797999 L 74.697617,71.424253 L 73.12463,71.623475 z "
       id="path2764"
       sodipodi:nodetypes="cccccsccccccc" />
    <path
       style="fill:#ff2a2a;fill-opacity:1;fill-rule:evenodd;stroke:none;stroke-width:1px;stroke-linecap:butt;stroke-linejoin:miter;stroke-opacity:1"
       d="M 82.702241,68.532034 C 82.702241,68.532034 84.916067,59.834858 84.916067,58.886075 C 84.916067,57.937292 85.232329,49.398246 85.232329,49.398246 L 71.949368,49.081986 L 71.633107,69.164556 L 82.702241,68.532034 z "
       id="path2766"
       sodipodi:nodetypes="cscccc" />
    <path
       style="fill:#fc0;fill-opacity:1;fill-rule:evenodd;stroke:none;stroke-width:1px;stroke-linecap:butt;stroke-linejoin:miter;stroke-opacity:1"
       d="M 74.163195,49.240116 L 75.586369,40.226679 L 71.158716,39.752287 L 70.684324,32.478285 L 77.167674,33.268937 L 86.813633,33.268937 L 86.181111,39.594156 L 80.646544,41.491722 L 81.279066,49.714507"
       id="path2768"
       sodipodi:nodetypes="ccccccccc" />
    <path
       style="fill:#4d4d4d;fill-opacity:1;fill-rule:evenodd;stroke:black;stroke-width:1px;stroke-linecap:butt;stroke-linejoin:miter;stroke-opacity:1"
       d="M 59.615191,69.955208 L 82.069719,68.690165 L 91.715678,75.964167 L 90.608765,77.545471 L 56.926973,78.968646 L 59.615191,69.955208 z "
       id="path2770" />
    <path
       style="fill:#3771c8;fill-opacity:1;fill-rule:evenodd;stroke:none;stroke-width:1px;stroke-linecap:butt;stroke-linejoin:miter;stroke-opacity:1"
       d="M 2.84375 21.71875 C 2.8437499 21.71875 1.4243366 39.431858 2.53125 39.90625 C 3.6381634 40.38064 8.6875 43.5625 8.6875 43.5625 L 4.4375 61.875 L 4.28125 72 L 32.40625 73.90625 C 32.40625 73.90625 36.587272 23.229953 35.75 22.84375 C 34.438149 22.238639 2.84375 21.71875 2.84375 21.71875 z M 9.25 28.4375 L 28.9375 29.09375 L 28.4375 35.28125 L 26.34375 35.46875 L 25.375 37.15625 L 15.03125 36.5 L 9 35.65625 L 9.25 28.4375 z "
       id="path2772" />
    <path
       style="fill:#fc0;fill-opacity:1;fill-rule:evenodd;stroke:none;stroke-width:1px;stroke-linecap:butt;stroke-linejoin:miter;stroke-opacity:1"
       d="M 34.472445,48.291333 L 47.913535,49.714507 L 57.085103,49.081985 L 64.359105,49.240116 L 71.474977,49.081985 L 72.107499,56.830379 L 70.526194,72.801557 L 62.303409,72.959687 L 51.550536,74.066601 L 45.541578,71.378383 L 39.058229,71.694644 L 30.044791,71.220252 L 31.309835,47.816941 L 34.472445,48.291333 z "
       id="path2774" />
    <path
       style="fill:#ac9d93;fill-opacity:1;fill-rule:evenodd;stroke:none;stroke-width:1px;stroke-linecap:butt;stroke-linejoin:miter;stroke-opacity:1"
       d="M 46.1741,49.398246 L 46.964752,43.705549 L 49.811101,39.752287 L 52.65745,41.333592 L 52.65745,49.081985 L 46.1741,49.398246 z "
       id="path2776" />
    <path
       style="fill:black;fill-opacity:1;fill-rule:evenodd;stroke:none;stroke-width:1px;stroke-linecap:butt;stroke-linejoin:miter;stroke-opacity:1"
       d="M 6.65625 25.6875 L 6.3125 38 L 14.0625 39.4375 L 27.34375 40.53125 L 28.625 37.6875 L 31.3125 37.375 L 31.9375 26.78125 L 6.65625 25.6875 z M 9.09375 28.6875 L 28.78125 29.34375 L 28.28125 35.53125 L 26.1875 35.71875 L 25.21875 37.375 L 14.875 36.71875 L 8.84375 35.90625 L 9.09375 28.6875 z "
       id="path2778" />
    <path
       style="fill:white;fill-opacity:0.51319646;fill-rule:evenodd;stroke:none;stroke-width:1px;stroke-linecap:butt;stroke-linejoin:miter;stroke-opacity:1"
       d="M 34.630575,48.599271 L 49.020449,49.414891 L 69.893672,48.133202 L 86.022981,49.06534 L 86.181112,51.512201 L 70.842455,52.560856 L 51.392406,51.628718 L 32.100487,52.094787 L 34.630575,48.599271 z "
       id="path12102"
       sodipodi:nodetypes="ccccccccc" />
    <path
       style="fill:white;fill-opacity:0.51319646;fill-rule:evenodd;stroke:none;stroke-width:1px;stroke-linecap:butt;stroke-linejoin:miter;stroke-opacity:1"
       d="M 35.542368,49.356632 L 49.721864,50.66745 L 70.289922,48.607593 L 86.183423,50.105672 L 86.339242,54.038127 L 71.224834,55.723465 L 52.526598,57.862387 L 33.049269,54.974426 L 35.542368,49.356632 z "
       id="path12104"
       sodipodi:nodetypes="ccccccccc" />
    <path
       style="fill:black;fill-opacity:1;fill-rule:evenodd;stroke:none;stroke-width:1px;stroke-linecap:butt;stroke-linejoin:miter;stroke-opacity:1"
       d="M 1.2673685,22.223229 L 1.269249,29.946902 L 1.112999,41.353152 L 7.112999,44.196902 L 5.3773247,52.103152 L 2.8366723,60.809901 L 2.519249,71.696902 L 3.487999,73.446902 L 34.612999,75.353152 L 33.987999,72.196902 L 46.331749,72.509402 L 50.581749,75.196902 L 57.862999,73.446902 L 56.300499,78.665652 L 90.456749,77.884402 L 93.144249,74.884402 L 83.331749,68.071902 L 86.495521,59.200663 L 87.589271,48.448782 L 82.394249,48.634402 L 81.425499,41.353152 L 87.112999,39.446902 L 87.769249,32.978152 L 78.894249,32.634402 L 70.675499,32.009402 L 71.144249,39.446902 L 75.112999,40.884402 L 73.987999,46.884402 L 71.487999,46.790652 L 54.081749,47.040652 L 53.925499,40.540652 L 49.644249,37.228152 L 45.862999,42.290652 L 45.862999,47.353152 L 35.394249,46.915652 L 35.362999,44.571902 L 36.362999,35.821902 L 37.776771,23.951381 L 35.324501,20.948782 L 18.956749,20.634402 L 3.3915133,19.53125 L 1.2673685,22.223229 z M 4.081749,22.603152 L 20.675499,23.196902 L 35.019249,23.478152 L 33.956749,37.321902 L 32.800499,45.946902 L 31.956749,46.384402 L 29.956749,54.853152 L 29.458629,69.545849 L 27.379205,72.22063 L 6.809901,70.65813 L 5.6186404,69.09563 L 5.7798137,62.47063 L 7.436064,56.280805 L 10.249282,42.763163 L 3.487999,39.853152 L 3.925499,31.696902 L 4.081749,22.603152 z M 73.817423,34.515043 L 79.039934,35.241315 L 84.568586,35.048174 L 85.070466,37.634402 L 79.861119,38.904369 L 79.695466,48.228152 L 76.903651,47.919413 L 77.372401,38.775608 L 73.626162,38.257522 L 73.817423,34.515043 z M 49.800499,40.446902 L 51.800499,42.603152 L 52.050499,48.321902 L 47.987999,48.415652 L 48.237999,43.540652 L 49.800499,40.446902 z M 35.081749,49.696902 L 46.862999,50.790652 L 46.956749,51.134402 L 53.769249,50.509402 L 53.769249,49.821902 L 69.269249,49.759402 L 71.081749,64.665652 L 69.769249,70.446902 L 60.081749,71.321902 L 60.300499,70.196902 L 51.487999,72.259402 L 46.831749,69.509402 L 32.675499,69.884402 L 32.800499,62.665652 L 35.081749,49.696902 z M 72.144249,49.915652 L 74.331749,49.946902 L 74.331749,50.040652 L 81.925499,50.353152 L 81.956749,50.165652 L 85.237999,50.290652 L 83.894249,58.040652 L 81.425499,66.853152 L 72.956749,67.603152 L 72.675499,54.290652 L 72.144249,49.915652 z M 81.175499,69.665652 L 88.862999,74.009402 L 80.800499,75.665652 L 59.112999,76.228152 L 59.612999,73.728152 L 72.425499,73.446902 L 72.519249,71.509402 L 73.050499,71.446902 L 73.019249,70.540652 L 81.175499,69.665652 z "
       id="path8534"
       sodipodi:nodetypes="ccccccccccccccccccccccccccccccccccccccccccccccccccccccccccccccccccccccccccccccccccccccccccccccccccccccccccccccc" />
    <path
       style="fill:black;fill-opacity:0.2961877;fill-rule:evenodd;stroke:none;stroke-width:1px;stroke-linecap:butt;stroke-linejoin:miter;stroke-opacity:1"
       d="M 4.4276535,71.527211 L 29.254139,73.666624 L 33.839923,71.536513 L 46.174101,70.903991 L 50.759884,73.90847 L 58.508278,71.303969 L 59.457061,72.215544 L 70.368064,71.490005 L 72.107499,69.331989 L 82.069719,68.606449 L 84.283546,59.155827 L 72.107499,57.462901 L 71.791238,61.816139 L 51.708667,64.960146 L 31.467966,58.672133 L 31.151705,63.267219 L 4.9020449,58.672133 L 4.4276535,71.527211 z "
       id="path12096"
       sodipodi:nodetypes="cccccccccccccccccc" />
    <path
       style="fill:black;fill-opacity:0.2961877;fill-rule:evenodd;stroke:none;stroke-width:1px;stroke-linecap:butt;stroke-linejoin:miter;stroke-opacity:1"
       d="M 4.5067187,72.418037 L 29.333205,73.899169 L 33.918989,72.424477 L 46.253167,71.986577 L 50.83895,74.066601 L 58.587344,72.263485 L 59.536127,72.894575 L 70.44713,72.392279 L 72.186565,70.898268 L 81.990655,68.656536 L 84.362612,63.853233 L 72.186565,62.681208 L 71.870304,65.694987 L 51.787733,67.871608 L 31.547032,63.518368 L 31.230771,66.699581 L 4.9811101,63.518368 L 4.5067187,72.418037 z "
       id="path12098"
       sodipodi:nodetypes="cccccccccccccccccc" />
    <path
       style="fill:black;fill-opacity:0.2961877;fill-rule:evenodd;stroke:none;stroke-width:1px;stroke-linecap:butt;stroke-linejoin:miter;stroke-opacity:1"
       d="M 3.5579355,72.965411 L 29.175074,73.30618 L 32.970206,72.970331 L 44.671862,71.687041 L 50.206428,73.434079 L 57.006039,72.214829 L 59.219866,72.22252 L 69.498347,72.945735 L 71.079652,70.223172 L 81.674394,68.826999 L 83.413829,66.422853 L 71.237782,65.527556 L 70.921521,67.829748 L 50.83895,69.492445 L 30.598249,66.167053 L 30.281988,68.597147 L 4.0323269,66.167053 L 3.5579355,72.965411 z "
       id="path12100"
       sodipodi:nodetypes="cccccccccccccccccc" />
  </g>
</svg>
