<!--Created with Inkscape (http://www.inkscape.org/)--><svg xmlns:dc="http://purl.org/dc/elements/1.1/" xmlns:cc="http://creativecommons.org/ns#" xmlns:rdf="http://www.w3.org/1999/02/22-rdf-syntax-ns#" xmlns="http://www.w3.org/2000/svg" xmlns:sodipodi="http://sodipodi.sourceforge.net/DTD/sodipodi-0.dtd" xmlns:inkscape="http://www.inkscape.org/namespaces/inkscape" width="100" height="100" viewBox="0 0 100 100" inkscape:version="0.92.1 r15371" sodipodi:docname="explore_world_music.svg" inkscape:export-filename="/home/ilya/explore_music/explore-music.png" inkscape:export-xdpi="90" inkscape:export-ydpi="90"><sodipodi:namedview pagecolor="#ffffff" bordercolor="#666666" borderopacity="1.0" inkscape:pageopacity="0.0" inkscape:pageshadow="2" inkscape:zoom="4.0000002" inkscape:cx="78.14005" inkscape:cy="41.771755" inkscape:document-units="px" inkscape:current-layer="layer1" showgrid="false" units="px" inkscape:window-width="1884" inkscape:window-height="1051" inkscape:window-x="0" inkscape:window-y="0" inkscape:window-maximized="1" inkscape:snap-global="false"><inkscape:grid type="xygrid"/></sodipodi:namedview><metadata><rdf:RDF><cc:Work><dc:format>image/svg+xml</dc:format><dc:type rdf:resource="http://purl.org/dc/dcmitype/StillImage"/><dc:title/><dc:date>2017</dc:date><dc:creator><cc:Agent><dc:title>Timothée Giet and Ilya Bizyaev</dc:title></cc:Agent></dc:creator><cc:license rdf:resource="http://creativecommons.org/licenses/by-sa/4.0/"/></cc:Work><cc:License rdf:about="http://creativecommons.org/licenses/by-sa/4.0/"><cc:permits rdf:resource="http://creativecommons.org/ns#Reproduction"/><cc:permits rdf:resource="http://creativecommons.org/ns#Distribution"/><cc:requires rdf:resource="http://creativecommons.org/ns#Notice"/><cc:requires rdf:resource="http://creativecommons.org/ns#Attribution"/><cc:permits rdf:resource="http://creativecommons.org/ns#DerivativeWorks"/><cc:requires rdf:resource="http://creativecommons.org/ns#ShareAlike"/></cc:License></rdf:RDF></metadata><g inkscape:groupmode="layer" inkscape:label="Layer 1"><g transform="translate(80 -952.362)"><ellipse style="color:#000;fill:#4664bf;fill-opacity:1;stroke:none;stroke-width:1;stroke-miterlimit:4;stroke-dasharray:none;stroke-opacity:1" cx="-30" cy="1002.3622" rx="35.112282" ry="35.189789"/><ellipse style="color:#000;fill:#49b1ff;fill-opacity:1;stroke:none;stroke-width:1;stroke-miterlimit:4;stroke-dasharray:none;stroke-opacity:1" cx="-30" cy="1002.3622" rx="34.106224" ry="34.181511"/><path inkscape:connector-curvature="0" d="M126.459 936.915c-3.924.534-7.768 1.748-11.248 3.646 1.562 1.42.812 3.029-.378 3.552.169 2.064 3.147 4.975 3.485 1.297 1.337-2.207 3.743-3.525 6.155-4.514.254-1.668.131-2.906 2.019-3.565l-.033-.416zm12.781.65c-1.816 1.22-2.31 4.286-3.933 4.887-.216 1.664-.086 2.065 1.042 1.479 1.334.369 2.448 2.709 3.186.098.231-1.216-.777-4.416 1.654-4.012-1.199 2.098.435 2.124 1.798 1.832-.662 1.208-1.47.6-1.309 2.24-1.034-.139-.411 2.132-2.14 1.784-1.327.772-2.819-.046-3.862 1.527-.623 1.28-1.803 2.717-3.24 3.23 2.095.491-1.6.608.79 1.496 1.737 2.562-3.097.741-2.56 3.018-.793 4 4.449 2.815 3.992-.394.764-.91 1.297-1.98 2.4-2.11.17-1.484 2.95 1.028 3.834 1.637-1.659 1.393-.06 1.732.236-.138 1.742-1.018-2.891-1.56-2.242-3.114 2.59.377 3.303 2.68 4.896 3.981 1.114-1.125-1.193-2.169 1.234-2.668-.288 3.095 3.016 1.874 4.667 2.04 1 3.38-2.788 3.936-5.173 3.486-1.54-1.318-.858 2.93-3.35.779-2.056.43-2.213-1.586-2.49-2.612-1.649.788-3.435 1.855-5.293 2.164-1.373-.015-1.336 1.18-2.455 2.211-.014 2.5-2.375 4.289-2.438 6.937.89 2.368-.654 5.49 2.094 6.878.91 1.984 3.346 3.057 4.983 1.556 1.318-.642 3.154-2.336 4.367-.57 1.665-.768 2.151 1.833 1.738 3.09 1.814 1.58 2.96 3.957 3.001 6.33-1.265 2.324.718 4.187 1.627 6.21.393 2.163 1.926 4.365 3.25 5.752 2.033-.749 3.312-2.495 4.341-4.45.695-2.207 1.516-3.526.945-5.596 2.466-2.619 1.765-5.718.416-8.716.894-3.286 3.207-6.024 3.807-9.398.959-3.47-4.083 2.048-4.24-1.736-2.447-2.057-3.717-4.975-5.426-7.607-.203-1.534 2.944 1.512 3.376 3.05 1.94.789 2.18 5.864 4.55 3.849 1.578-1.448 5.54-4.812 3.36-6.584-1.063-1.596-1.065-1.643-2.025-.099-1.77 2.015-4.28-5.305-1.553-2.286 1.981.244 3.607 1.283 5.692.76-4.054-9.976-13.067-17.724-23.547-20.21zm-29.122 6.306c-1.8.811-1 2.435-2.373 3.536 1.272 1.026 3.145.988 2.452-.698 1.673.72-1.012-1.827.831-1.146.274-.681-.381-1.354-.91-1.692zm-3.795 4.907c-1.516 1.158-1.428 2.395-1.357 4.04-1.705.073-1.517 4.278-2.736 1.723.31-2.89-2.46 2.001-2.675 3.205a34.09 34.09 0 0 0-2.592 11.863c.575-1.965 3.28-.215 2.95 1.38 2.012.732-1.19-3.915 1.283-4.588 2.046-1.402 1.882-4.812 4.2-5.63.07-1.677 3.616-4.784 2.155-1.614.536-.773 4.202-3.285 1.19-1.983-1.492.09 1.142-2.273-1.356-.887-2.018-.202 2.509-2.099 3.496-1.973 1.309-.645 1.661-2.825.377-2.402-1.238-.848-.374-4.206-2.3-1.73-1.113.706-.546-2.326-2.635-1.404zm-9.203 25.64c-.134 2.441 1.284 1.828 0 0zm1.436 2.916c-2.05.357.008 4.494 1.913 4.464 1.05-.065-2.607-1.9-1.31-3.501-.17-.445.19-1.082-.603-.963zm6.823.986c-.122 2.406-.464 1.663-1.212.144-1.537 1.247-1.827 3.253-1.462 5.039-.507 1.727-1.258 3.574-.865 5.064 1.806 2.454 3.357 5.874 6.331 6.918 1.476 2.531 4.527 4.457 7.392 5.937 2.11 2 3.349.498 3.156-1.713.109-1.81-.076-3.196 2.089-3.834 1.834-2.08.055-5.47 1.037-7.874 1.123-1.493.748-3.28-1.03-3.533-1.587-.869-3.171.308-4.562-.848-.136-.62-2.817 1.275-1.357-.67-.227-2.638-3.32-2.097-4.916-3.488-1.243-1.763-2.938.111-4.6-1.142zm55.078 2.72c-.274 2.163-3.076 2.586-1.609 5.145-1.686 1.865 1.7 4.321 1.522 1.043.129-2.012 1.202-4.264.087-6.189z" style="fill:#a9e848;fill-opacity:1;stroke:none;stroke-width:.49073824;stroke-miterlimit:4;stroke-dasharray:none;stroke-opacity:1" transform="translate(-161.16 31.37)"/><path inkscape:connector-curvature="0" d="M126.184 936.615c-.01-.1-.051.025.008.106-3.962.515-7.575 1.698-11.1 3.62-.083-.055-.339.073-.309.169.09-.044.25.137.26.236.696.759.987 1.297.768 1.873-.114.457-.456 1.062-1.078 1.266-.1.006-.15.169-.164.07.098.016-.052.252.015.178.059 1.048.801 2.372 1.791 2.992.451.392 1.08.395 1.416.135.35-.224.821-.85.994-1.858.02-.098-.124.06-.035.106 1.211-2.07 3.505-3.185 5.943-4.256-.084.054.04-.094.131-.055-.017-.098-.06-.196.022-.138a22.85 22.85 0 0 1 .474-2.264c.127-.497.355-1.016 1.254-1.229-.063.078.083-.05.182-.062.006-.1-.146-.587-.049-.61-.046.09-.159.114-.213.198-.032.094.074-.35.006-.424.028-.096-.258-.134-.316-.053-.037.093-.017.099 0 0m-.026.623c-.767.442-1.292.919-1.521 1.405-.344.604-.345 1.4-.389 2.087-2.401 1.09-4.87 2.253-6.144 4.551-.022.098-.091-.03-.03.05.099.017.094.044-.006.056-.058.785-.346 1.21-.549 1.453-.3.21-.45.02-.87-.135-.743-.364-1.304-1.603-1.526-2.502.663-.34 1.098-.746 1.176-1.477.227-.691-.042-1.447-.713-2.056 3.188-1.774 6.826-2.812 10.572-3.432.1.004.06-.08 0 0m12.832.01c-.057-.082-.057.143 0 .225-.915.567-1.445 1.793-2.008 2.646-.535.894-1.171 1.857-1.761 2.1.093-.036-.176-.042-.143.053.038-.093-.076.23-.02.148-.062.52-.028.845-.087 1.047.085.23-.017.602.14.701.18.112.281.245.598.262.257-.092.35-.03.621-.229.627.227 1.025.792 1.713 1.114.145-.014.321.054.48.175.206.117.28.05.522-.11.334-.302.573-.51.73-1.282-.05-.087.039-.106.004-.012.01.1-.084-.06.002-.01.053-.455-.058-.793.018-1.256.012-.558.039-1.001-.014-1.383.125-.474.235-.72.334-.962.18-.049.529-.116.707-.145-.04.341-.216.617-.302.904.002.268.116.706.484.815.45.28.838.166 1.402.031-.16.07-.325.483-.539.53-.057.145-.404.305-.386.529.013.12-.126.393-.041.748-.17.009-.237.049-.208.035-.037.051-.175.104-.298.307-.243.236-.116.527-.303.744-.145.323-.105.485-.336.554-.042.1-.386.095-.713.1-.085.053-.189-.041-.092-.018.098-.02-.006.112-.082.047-.514.288-1.338.29-1.945.432-.794.096-1.533.302-1.998 1.174-.044-.09-.031.111-.01.013-.01-.1-.05.107-.008.016-.576 1.331-1.854 2.588-3.1 3.104-.044-.09-.754.376-.799.287-.005.1.748.131.827.193.19-.057.161.148.298.092-.102.083.02-.05-.078.043-.05-.036-.185.211-.293.199-.148.17-.219.141-.166.416-.057.23.052.307.311.408.192.01.293.27.592.281.142.366.196.549.302.627.123.168.103.197-.048.25-.202.141-.543.313-.942.305-.463-.026-.898.065-1.39.356-.216.212-.356.187-.5.511-.102.333-.21.478-.041.838-.054-.084-.085-.161-.002-.105-.201 1.149.073 1.813.414 2.295.537.447 1.006.639 1.742.505 1.336-.179 2.755-1.373 2.506-3.078.338-.356.585-.836.83-1.246.446-.366.74-.633 1.203-.59.077.064.097-.028.197-.023.064-.077.019-.193-.01-.289.117-.14.155-.183.082-.211.127-.034.135.122.25.035.126.063.595.221.938.39.74.355 1.36 1.06 1.959 1.438-.176.313-.46.433-.578.723-.137.187-.004.198-.034.402.144.121.176.15.328.264.174.003.443-.222.678-.379.093-.276.226-.64.41-1.062.25-.048.44-.257.403-.409-.02-.169-.085-.372-.125-.578-.144-.29-.55-.494-1.08-.72-.52-.275-.982-.467-1.16-.725-.192-.04-.139-.284-.274-.361.065-.098-.006.023.004-.11 1.155.215 1.817.67 2.416 1.469.6.711 1.303 1.834 2.104 2.426.1.006.103.076.175.144.001.1.173-.063.159-.162.334-.226.475-.678.394-1.08-.093-.393-.092-.671-.207-.797.003-.287-.044-.21.008-.408.154-.11.352-.089.701-.289.1.534.167 1.112.352 1.438.367.486.823.76 1.39.722.937.014 2.143-.181 2.842-.072.163.586.236 1.062-.033 1.545-.31.503-.523.816-1.143 1.027-1.143.458-2.616.426-3.703.287-.24-.2-.41-.307-.508-.258-.307-.031-.37.161-.535.19-.323.326-.482.637-.547.9-.251.262-.393.437-.511.551-.166-.05-.455-.087-1.135-.547.073.068-.135-.171-.094-.08-.1-.007-.193-.044-.12.025-.386.143-.733.12-1.061-.064-.352-.11-.524-.268-.584-.574-.366-.588-.404-1.154-.555-1.795.037.093-.147-.216-.078-.29-.094-.034-.17.119-.27.13-1.594.867-3.535 1.843-5.226 2.144-.08-.061-.051-.032.045-.004-.78.089-1.3.321-1.532.819-.397.388-.503.906-1.097 1.459.098.017-.16.012-.08.072.007.1-.056.026 0 .11-.095 1.125-.55 2.3-1.17 3.294-.593.992-1.23 2.34-1.268 3.637-.092.04-.072-.022-.002.049.09.042.041.144.018.047.386 1.2.22 2.54.334 3.732-.065.635.218 1.222.408 1.84.193.608.644 1.108 1.225 1.537.518.942 1.609 1.65 2.496 2 1.095.377 2.339.55 3.142-.205.096.353-.035.078-.03-.022.776-.399 1.387-1.094 2.013-1.334.412-.045.473-.263.87-.212.27-.03.807.248.983.642-.1.007.185.099.12.174.079-.06.222-.183.19-.088.464-.159.715-.15.835-.09.273.045.185.479.351.71.317.718.419 1.508.147 2.103.036-.093-.133.216-.051.158-.009.1.107.208.125.11 1.678 1.59 2.716 3.86 2.656 6.144-.669 1.252-.3 2.484.24 3.537.376 1.084 1.745 2.713 1.762 2.771-.005.1.006-.155-.017-.058.344 2.17 1.556 4.354 2.983 5.704-.099-.017.54.325.444.296-.055-.084.057-.036.155-.057 2.054-.705 3.456-2.472 4.52-4.546-.099.013.01-.022.01-.022-.01.1-.01.022.006-.021.321-1.188.717-1.924 1.018-2.883.316-.854.315-1.678-.02-2.637 1.143-1.403 1.746-2.89 1.71-4.487-.052-1.593-.51-2.905-1.078-4.427.79-3.212 3.084-5.664 3.687-9.198.22-.437.043-.96-.09-1.15-.095-.212-.001-.265-.204-.342-.168-.008-.184-.213-.35-.134-.383-.034-1.077.308-1.582.47-.641.309-1.102.502-1.545.377-.096.016-.228-.044-.428-.256-.02-.201-.256-.527-.22-.886-.076-.066-.106-.104-.006-.11.097-.021-.16-.136-.084-.07-2.343-1.9-3.596-4.764-5.344-7.494.1-.074-.015-.03-.008-.108.05-.033-.042-.097.064.036.153-.024.484.327.979.707.843.824 1.55 1.87 1.761 2.625-.06-.08.012.214.034.117-.098.019.108-.053.113.047.437.069.761.41 1.014 1.02.31.436.53 1.298.88 1.779.213.533.507.926.946 1.271.32.07.55.456.875.297.271-.163.926-.437 1.187-.623.054-.085-.048-.09.002-.004-.087-.05.098.031.004-.004.873-.762 2.214-1.833 3.121-3.205.544-.707.829-1.397.934-1.951.181-.596-.013-1.267-.705-1.805.096.029.065-.044.049.055-.227-.491-.533-.63-.643-.924-.247-.15-.407-.473-.6-.412-.2.058-.16.078-.35.101.002.055-.14.246-.263.258-.064.217-.294.574-.57.854-.12.283-.325.37-.492.27-.199-.092-.418-.14-.532-.233-.47-.364-.72-1.003-1.015-1.49-.042-.348-.032-.562-.17-.803-.115-.135.042-.116-.04-.2.11-.028.1.071.083-.004.162-.03.39.222.62.582-.093.035.156.107.063.07.066.076.083-.089.092.01.876.178 1.75.492 2.777.694 1.027.26 1.83.395 3.022.094.062-.078.212-.266.264-.18-.008.1-.112-.367-.108-.267-4.024-10.133-13.122-17.946-23.722-20.36-.043-.09-.225-.017-.307-.074-.086.05-.1-.004 0 0m.324.61c10.112 2.445 18.878 9.949 23.045 19.664-.792.043-1.584.205-2.398-.08a197.65 197.65 0 0 0-2.752-.655c-.214-.303-.563-.67-.793-.681-.032-.103-.151-.12-.385-.075-.036.027-.167.17-.314.237-.075.31-.129.357-.041.72.144.302.145.477.279.891.34.561.666 1.185 1.164 1.686.339.156.433.366.84.343.354-.087.72-.167.877-.441 0-.1.098-.07.013-.016.1.006.032-.115.012-.017.326-.335.512-.633.553-.834.076-.183.194-.066.156-.158.013.075.118.036.033-.018-.1-.017.097-.06.244.228.105.1.442.53.618.887.05.087-.037.113.021.031-.08-.059.129.036.03.026.508.492.626.917.527 1.34.02.519-.411 1.027-.842 1.73-.793 1.177-2.3 2.311-3.053 3.131-.096-.029-.038.096-.004.004-.171.225-.6.332-.681.385-.235.126-.246.079-.471-.063-.302-.057-.524-.52-.895-1.129-.242-.459-.67-1.24-.923-1.77-.416-.512-.664-1.049-1.213-1.214-.285-.773-1.222-2.006-1.953-2.732-.385-.487-.766-.785-1.159-.815-.233.022-.49-.112-.56.064-.074.19-.202.266-.15.592.067-.074.069.134.007.055.012-.1-.066.071.032.049 1.592 2.635 2.956 5.393 5.418 7.594.057.333.187.851.279 1.037.1.317.572.431.766.466.532.17 1.315-.145 1.804-.41.52-.164 1.173-.355 1.35-.435-.02-.068.103.109.078.023.009.108-.065.066.037.074.09.188-.079.348-.098.791.002-.1.064.084-.004.01.043.09.098.007-.002.012-.685 3.288-2.863 6.116-3.8 9.377-.089.047.075.101-.024.086-.083-.055.025.181.035.082.732 1.407 1.208 3.072 1.202 4.404.069 1.517-.48 2.78-1.57 4.037.089-.044-.198.113-.099.102-.035-.094.113.202.038.137.351 1.055.197 1.878.002 2.617-.31.842-.506 1.644-.932 2.804-1.065 1.936-2.196 3.573-4.057 4.223-1.243-1.464-2.79-3.422-3.06-5.46-.1-.007-.103-.058-.006-.032.014-.1-.114-.027-.014-.027-.434-.955-1.167-1.923-1.627-2.993-.342-1.01-.502-1.889-.008-2.996.024-.097.004.038.031-.058-.036-.094-.087-.113 0-.065.03-2.344-1.15-4.886-3.023-6.427.108-.62.161-1.665-.086-2.293-.126-.487-.379-.834-.725-.93-.306-.265-.578-.106-1.068.006-.21-.383-.725-.753-1.043-.762-.342-.041-.953-.054-1.275.137-.73.323-1.524.896-2.246 1.2-.047.088-.11-.047-.032.015-.071.07-.077-.063-.027.023-.664.738-1.594.862-2.512.479-.868-.205-1.721-1.091-2.076-1.953.098.02-.014.017-.035-.08.091-.042-.168.004-.078-.04-.567-.263-1.058-.824-1.25-1.212a4.568 4.568 0 0 1-.358-1.649c.029-1.154.068-2.647-.35-3.787-.078.062.086.051 0-.002-.045-1.185.512-2.294 1.208-3.408.68-1.085 1.092-2.212 1.209-3.426.529-.624.828-1.181 1.107-1.461.199-.452.599-.643 1.117-.607-.038.092.052.095.022 0-.1-.01-.063.05.021-.004 1.765-.227 3.434-1.299 5.1-2.059.156.391.246.991.514 1.625.14.23.539.625.804.78.353.06.8.08 1.278.091.597.372.983.65 1.465.608.461-.199.758-.452.836-.803.143-.425.393-.73.445-.77-.017-.12.024.017.14-.058.159-.004.257-.01.348.197.1-.01-.047.025.051.045.099-.016-.02.065.064.012 1.279.143 2.754.132 4.006-.325.535-.347 1.043-.757 1.389-1.263.183-.576.246-1.271.066-2.215-.082-.056-.017-.066-.049-.16.035-.094-.225.062-.166-.018-.903-.191-2.22.135-3.06.078-.528-.127-.772-.253-1.072-.435-.304-.186-.48-.691-.313-1.41.019.098.08-.25.031-.337.1-.013-.36.164-.33.069-.566.054-1.074.223-1.207.56-.108.26-.255.554-.092.854.17.282.084.537.188.697.098.07-.151.318-.14.352-.628-.697-1.135-1.428-1.819-2.055-.62-.788-1.698-1.573-2.973-1.725.09.046-.094-.051-.191-.027.045.09-.04.085-.076.178-.007.215-.154.417-.022.723-.008.174.212.3.406.558.436.376.852.396 1.284.725.528.214.733.36.859.4.029-.025.134.157.182.264-.025.123-.034.36-.3.404a2.38 2.38 0 0 1-.105.44c-.023.042-.125-.254-.154-.213-.41-.225-1.15-1.362-1.965-1.766-.417-.168-.732-.513-1.205-.527-.24.063-.318.07-.553.127-.024.068-.07.29-.207.416-.511.212-.985.48-1.328.756-.468.361-.676 1.008-1.08 1.353-.099.013-.077.186-.072.086-.025.097-.05.188.015.111.297 1.42-.98 2.41-1.916 2.62-.61.056-1.086-.022-1.29-.354-.375-.256-.548-.835-.292-1.86-.06-.079.08-.123.01-.052.075.067.044-.136-.011-.053-.089-.343.016-.488.011-.517.128-.177.04-.182.282-.276.345-.233.68-.177 1.232-.305.552-.128.986-.217 1.234-.462.176-.263.198-.316.168-.67-.143-.239-.256-.592-.404-.87-.098-.02-.113-.139-.045-.066-.057-.082.023-.012-.076-.03-.388-.102-.48-.3-.58-.27-.133-.135.03-.056-.072-.053.082-.12.002-.067.181-.12.113-.143.27-.052.27-.152.1-.157.117-.145.242-.31-.056-.03-.05-.113-.084-.274-.097-.154-.018-.119-.186-.135-.074.075-.154.037-.097-.03 1.315-.76 2.339-1.963 2.914-3.036-.01-.1.03.119-.016.03.469-.625.917-.917 1.649-.956.595-.173 1.3-.06 2.13-.496.087-.05-.274.045-.175.03.573.136.916.094 1.125-.202.336-.144.293-.48.49-.77.106-.366.1-.45.26-.657-.036-.133.073-.21.119-.131-.038-.088.175-.018.162-.022-.086-.05.351-.051.313.041-.037-.093-.117-.264-.03-.312-.095-.473.041-.546.031-.77.004-.232.202-.176.217-.289.239-.073.739-.306 1.032-1.037.018-.098.194-.404.261-.478.074-.068-.598.19-.533.115-.563.117-1.453.242-1.69.004-.056-.054-.23-.067-.222-.385-.073-.146 0-.615.383-1.084-.056-.083.143-.219.177-.313-.056.083-.297-.141-.353-.058-.733-.176-1.116-.059-1.473.36-.235.265-.33.804-.47 1.263a8.394 8.394 0 0 0 .011 1.453c.05.556-.062.892-.01 1.127-.254.55-.369.801-.508.982-.142-.024-.103-.05-.195.04-.118.08-.222.041-.297-.116-.44-.362-1.048-.883-1.873-1.19.099.019.004-.036-.095-.025.048-.087.002-.003-.086.045-.214.058-.377.24-.582.225-.026.068-.063.108-.116-.031.066-.005-.158-.152-.066-.434.089-.269-.04-.61.076-.904.923-.413 1.382-1.37 1.873-2.203.437-.954 1.157-1.848 1.895-2.504-.1-.012-.1-.006 0 0m-29.176 5.73c-.07-.071-.13-.045-.123.055-.943.34-1.307 1.251-1.482 1.814-.3.643-.416 1.295-.945 1.756-.087.05-.249.094-.243.193.05-.086.196.284.243.196.606.488 1.555.743 2.162.72.419-.017.669-.328.763-.548-.013-.202-.086-.54-.054-.735.08-.085.028.079.176.049.03.087.25.048.255-.08.181-.053.094-.073.131-.246.03-.057-.039-.361-.082-.377.008-.033-.094-.33-.168-.346-.008-.027-.01-.225-.14-.308.095.009.094.027-.004-.012.165-.014.18-.078.314.078.096.029.205.183.229.086.019-.098.045-.316.09-.227.272-.415-.033-.804-.178-1.205-.208-.239-.61-.533-.83-.79-.066-.076-.074-.165-.114-.073.074.067.073-.069 0 0m-.039.606c.285.088.458.228.567.533.215.156-.001.33.092.521.018-.056-.235.02-.233-.05-.167-.054-.256.072-.252.072-.026-.032-.06.08-.16.224-.142.158.056.201.049.409-.023.196.045.16.162.359.067.197.082.288.13.27.022-.08-.153-.064-.16-.051.092-.04-.652-.2-.562-.243-.092.039.205.47.233.567.13.48.052.637.091.77-.12.217-.213.124-.39.253-.43.144-1.011-.085-1.528-.533.59-.517.76-1.071.873-1.691.08-.571.47-1.118 1.088-1.41.052.085-.082.057 0 0m-2.52 4.294c-.287-.274-.704-.14-1.357.06-.1.008.063-.029-.027.015.023.097-.12.044-.023.017-.842.695-1.101 1.232-1.366 1.977-.12.584-.157 1.298-.085 2.166-.298.053-.64.344-.94.617-.23.492-.381.944-.596 1.227a.652.652 0 0 1-.214.437c.035.114-.05.037-.088.111-.062.048.117.03-.069-.078-.03-.178-.152-.376-.34-.57-.036-.232.03-.46-.025-.746.062-.13-.007-.26-.207-.277-.129.034-.15-.035-.346-.028-.129-.007-.375.299-.506.385-.167.08-.238.384-.51.668-.418.448-.655 1.074-.997 1.752-.349.673-.585 1.182-.575 1.48a34.607 34.607 0 0 0-2.595 11.899c.099.013.246.507.157.553.223-.455.773-.994.938-.998.161-.011.452.211.804.292.534.31 1.127.766 1.056 1.49.016-.098-.145.223-.045.214.09-.043.214.171.203.072.27.202.621.126.734.027.165-.024.239-.432.303-.558.058-.52-.09-1.045-.236-1.52-.204-.519-.178-1.08-.145-1.629.105-.55.334-.58.842-.822-.051-.086-.046.038.041-.012.022-.097.125.02.035-.023 1.045-.837 1.582-1.984 2.178-3.076.569-1.197.867-2.237 1.932-2.51-.095.032.07-.1.16-.057-.06-.08-.092-.17.008-.168.068-.25.265-.984.498-1.37.387-.514.61-.937 1.031-1.165.127-.046.301-.333.418-.275.004.09-.077.019.033-.01.086.037.071.079-.023.144.064.178-.256.188-.045.854.087-.05 0 0 .322.012 0 0 .304-.31.639-.538.272-.346.838-.584 1.096-.957.134-.242.29-.17.378-.388.105-.141.053-.107.116-.192l.025-.152c.02-.122-.014-.116-.074-.22-.158-.073-.22-.08-.317-.06-.124.015-.222.107-.267.055-.098.022-.4.086-.807.309-.029-.04.04.043-.11.04-.1 0-.13.025-.148-.126-.096-.115.151-.387.23-.5.143-.101.183-.212.095-.332.095-.108.07-.067-.043-.229-.003-.175-.052-.16-.237-.168-.092.03-.196.005-.482.092-.065.064-.31.125-.656.326-.06.08-.137-.122-.153-.035.21-.087.401-.448.918-.588.544-.152.997-.4 1.592-.623.454-.083.903-.203 1.143-.217-.002-.1-.026.018.074.008-.086-.05.082.066.068-.033.846-.375 1.238-1.038 1.297-1.785.023-.233.125-.629-.17-.892-.164-.335-.66-.303-.94-.186-.067-.073.128.067.221.031-.238-.26-.305-.432-.513-.844-.204-.42-.246-.865-.28-1.128a.853.853 0 0 1-.199-.461c.002-.144-.194-.297-.476-.233-.121-.05-.348.023-.538.283-.21.058-.349.275-.585.655-.072-.046-.245.086-.163.062.06-.066-.044.09-.08-.064.012-.118-.219-.487-.334-.682-.125-.392-.24-.683-.652-.805-.06.081.095.032 0 0m-.242.438c.26.16.253.392.441.578.05.193.121.513.397.783-.007.127.128.21.4.246.273.022.445-.045.516-.14-.052.085.021.075.037-.024-.1.001-.015-.123.027-.033.155-.243.325-.5.568-.637.083-.047.332-.198.256-.162.091.065-.096.032.022.026-.05.103.134.244.123.306.182.282.227.656.283 1.14.153.517.36.752.709 1.108-.05-.086.199.048.101.07-.053-.084.084.056.118-.038.225.005.345.057.396.027.152.04.19.209.063.498-.085.388-.562 1.134-1.024 1.416-.328-.111-.756-.034-1.21.21-.497.255-1.247.381-1.665.653-.526.15-.979.567-1.154.772-.07-.026-.117.255-.117.265.075.062.02.239.148.325.164.061.342.287.586.22-.087-.05 0 0 .078.008.069-.037.145-.101.069-.037-.147.03.477-.34.685-.344.097.046-.07.09.026.035-.176.207-.177.307-.215.684-.002.244.132.277.238.404.178.04.119.053.332.092 0 0 .007-.009.111.023.04-.017.024-.023.18-.021.217-.036.352-.139.404-.14-.258.362-.596.548-1.045.911-.055-.06-.147.014-.103.102.071-.322.104-.522-.102-.592-.117-.178-.299-.152-.304-.12 0-.005-.234-.064-.278.062-.147.168-.257.19-.547.351-.377.215-.746.688-1.128 1.274-.216.501-.407.968-.557 1.39-1.096.548-1.69 1.635-2.238 2.649-.487 1.04-.9 2.21-1.91 2.93-.025.096-.022-.013.076-.036-.644.273-1.038.825-1.143 1.307-.06.485.1 1.154.149 1.807.048.514.212 1.03.228 1.386-.048.04-.046.244-.04.149.037.094-.06-.098-.22-.037-.047-.909-.425-1.568-1.207-2.028-.485-.177-.803-.23-1.25-.215-.252.063-.24.369-.346.377a31.622 31.622 0 0 1 2.483-11.064c.004.1.064-.11.012-.025-.04-.092.095.012.004-.028.028-.337.153-.798.53-1.348.38-.584.56-1.132.966-1.693.252-.296.241-.514.464-.613.117-.213.253-.188.213-.182.107.044.126.305.006.56-.088-.046.082.115-.008.071.027-.096.129.087.032.065.254.306.386.593.435.72.044.173.349.178.541.237.248.048.226-.224.412-.332.19-.118.184-.42.252-.51.064-.36.413-.754.555-1.149.158-.41.424-.437.777-.547-.021.098.153.01.25-.011-.06-.08-.086-.317-.011-.25-.056-.727-.006-1.445.078-2.133.244-.597.366-1.14 1.162-1.668.37-.25.767-.095.883-.08.096.027.082-.057 0 0M96.91 973.684c-.097-.027-.101.799-.04.72.042.57.123 1.05.14 1.387.083.057.221.268.218.363.01.142.17.177.422.094.232-.127.128-.252.242-.33.071-.037-.002-.363-.004-.43.029-.274-.3-.802-.564-1.215.083-.055-.361-.504-.414-.59-.098-.018-.084-.054 0 0m1.557 3.471c-.505.071-.795.312-.816.908-.159.571-.18 1.259.151 1.754.223.476.588 1.195 1.108 1.532.472.515.988.81 1.562.7.08.06.044.092.006-.001.08-.06-.003.1.006 0 .186-.004.174-.04.162-.107.182-.077.223-.254.176-.277.014-.315-.142-.393-.196-.42-.16-.14-.696-.508-.898-.812-.346-.413-.38-.761-.529-1.005-.03-.378-.26-.567.088-.97.04-.093-.003-.144.092-.114.088.047-.03-.038-.053-.135-.148-.148-.129-.312-.076-.618-.12-.13.006-.278-.247-.407-.251-.063-.202-.059-.53-.028-.057-.082.094-.028-.002 0-.032-.094-.023.098-.003 0 .066.075.021.098 0 0m.127.428c.208-.113.214-.099.233.002-.074-.062-.088-.042.015.059.045.225-.132.458.083.74-.243.5-.236.818-.198 1.213.265.454.394.828.81 1.197.194.34.414.32.575.592-.223-.157-.6-.05-.867-.406-.353-.451-.834-.802-.99-1.371-.2-.414-.254-.976-.288-1.385.108-.276.131-.5.627-.64-.067-.075-.1.008 0 0m6.038.487c-.01-.1.444.456.482.364-.128.509-.033.781-.113 1.064.057-.084-.072-.014-.13-.201-.04-.195-.34-.474-.482-.943-.078.062-.042-.255-.138-.282.099.015-.161.256-.242.198-1.527 1.225-1.962 3.28-1.551 5.18-.412 1.748-1.693 3.724-1.174 5.368-.046.09.006-.053.012.047.085.052 0 0 .029.037 1.811 2.306 3.212 5.976 6.297 7.016 1.558 2.486 4.89 4.189 7.826 5.727.062-.078-.1-.132-.059-.041.466.462 1.17.87 1.551 1.04.505.215.867-.051 1.242-.204.62-.4.81-1.532.785-2.752-.027-.096-.019.135 0 .037a8.763 8.763 0 0 1 .258-2.287c.264-.5.596-1.115 1.653-1.323-.083.056.064.079.068-.021-.089.046.034.046.047-.053 1.087-1.108.898-2.55.9-3.998-.15-1.338-.332-2.751.182-3.947.1.003.015-.032-.031.057.566-.701.716-1.705.615-2.448-.296-.73-.924-1.28-1.979-1.414-.743-.422-1.523-.208-2.359-.201-.673.089-1.293-.177-1.91-.6-.007-.13.068-.06-.06-.093.018-.099-.111-.17-.223-.088-.242-.036-.204-.067-.41.039-.299-.03-.497.18-.817.195-.048.115-.12.103-.113.026.142-.056.061-.165.182-.47-.053-.084-.03-.028.058-.075-.093-.035-.055-.185-.01-.096.03-.749-.588-1.617-.588-1.617-.445-.462-1.008-.52-1.549-.807-1.033-.28-1.917-.63-2.738-1.23-.09-.042.158.387.197.295-.392-.396-.714-.85-1.214-.907-.453-.197-.88-.009-1.319-.054-.82.008-1.557.033-2.17-.448-.03-.095.09-.038.004-.09.052-.085-.194.073-.263 0-.077-.063-.696.087-.746 0 .075.067-.007.1 0 0m.96.584c.728.34 1.592.272 2.272.293.482-.078.833-.04 1.043.012.257.166.632.157.867.647.097-.025.051-.07.018.025-.081.058.076.105.023.02.832.85 2.1.867 3.049 1.322.571.127.992.333 1.217.693.369.357.483.782.54 1.25-.182.098-.28.26-.318.486-.169.12-.237.336-.058.49-.043.038.05.22.207.186.06.126.212-.045.209.026.151.089.172.017.387-.082.29.016.468-.198.789-.252.016.043.067-.08.187-.024-.046.089.101.023.002.012-.09.044-.009-.01.067.055.75.734 1.547.713 2.38.59.74.051 1.43-.039 2.221.285-.052.085.013.118.04.021.01.1.029-.093.044.006.859.029 1.17.479 1.397 1.12.221.502-.102 1.351-.532 2.017-.037.093.083.024-.017.025-.014.1-.114.035-.014.03-.432 1.257-.385 2.838-.217 4.17.19 1.399.162 2.666-.77 3.613-1.136.368-1.678.969-1.868 1.578a8.978 8.978 0 0 0-.29 2.426c-.008-.1-.068-.054 0 .02-.063.077-.098.014.002.017a2.577 2.577 0 0 1-.613 2.213c-.168.246-.514.304-.822.123-.386-.185-.702-.305-1.3-.826.079.06-.03-.123-.026-.023.096-.028.068-.021-.031-.018-2.949-1.452-5.796-3.464-7.291-5.84.023.097.048-.116-.045-.08-.071.07-.125-.125-.088-.032-2.724-.952-4.511-4.022-6.306-6.602-.441-1.397.529-3.428.997-5.073.085.053-.068-.007.018-.059-.001.1.085-.078-.014-.06-.34-1.508.047-3.395 1.19-4.497.17.132.181.526.298.586.11.036.201.158.213.33-.028.08.236.2.268.225.075.124.19-.059.23.01.085.076.219-.138.184-.125.183-.113.11-.112.154-.352-.032-.157.075-.69.108-.976.051-.086.1-.005 0 0m54.708 1.619c.038.092-.058.828-.093.734-.19 1.054-.732 1.574-1.406 2.3-.25.271-.545.865-.608 1.262-.067.567-.02 1.04.408 1.633-.436.518-.741 1.219-.574 1.623-.009.526.425.812.87 1.012.324.351.774.29 1.222.072.33-.188.598-.919.498-1.695.1 0 .153.023.156.123-.02-.91.358-2.056.508-3.234.118-.984.03-2.07-.61-3.19-.054-.083-.34-.545-.37-.64-.03-.096.091.039 0 0m.12 1.47c.158.73.345 1.602.21 2.323-.135.931-.418 2.006-.512 3.146.021.098.03-.08-.002.014.073.068-.094.042.002.015.142.768-.084 1.063-.301 1.27-.246.068-.407.194-.63-.08-.219-.273-.493-.409-.544-.88-.163-.35.084-.716.387-1.2.042.09.046-.067.121-.133-.06-.08-.038-.244-.09-.158-.423-.674-.345-.992-.375-1.42-.038-.414.17-.618.506-1.022.318-.468.92-1.016 1.229-1.875.08.06-.05.087 0 0" style="color:#000;font-style:normal;font-variant:normal;font-weight:400;font-stretch:normal;font-size:medium;line-height:normal;font-family:sans-serif;text-indent:0;text-align:start;text-decoration:none;text-decoration-line:none;text-decoration-style:solid;text-decoration-color:#000;letter-spacing:normal;word-spacing:normal;text-transform:none;writing-mode:lr-tb;direction:ltr;baseline-shift:baseline;text-anchor:start;white-space:normal;clip-rule:nonzero;display:inline;overflow:visible;visibility:visible;opacity:1;isolation:auto;mix-blend-mode:normal;color-interpolation:sRGB;color-interpolation-filters:linearRGB;solid-color:#000;solid-opacity:1;fill:#598711;fill-opacity:1;fill-rule:nonzero;stroke:none;stroke-width:.5;stroke-linecap:butt;stroke-linejoin:miter;stroke-miterlimit:4;stroke-dasharray:none;stroke-dashoffset:0;stroke-opacity:1;color-rendering:auto;image-rendering:auto;shape-rendering:auto;text-rendering:auto;enable-background:accumulate" sodipodi:nodetypes="ccccccccccccccccccccccccccccccccccccccccccccccccccccccccccccccccccccccccccccccccccccccccccccccccccccccccccccccccccccccccccccccccccccccccccccccccccccccccccccccccccccccccccccccccccccccccccccccccccccccccccccccccccccccccccccccccccccccccccccccccccccccccccccccccccccccccccccccccccccccccccccccccccccccccccccccccccccccccccccccccccccccccccccccccccccccccccccscccccccccccccccccccccccccccccccccccccccccccccccccccccccccccccccccccccccccccccccccccccccccccccccccccccccccccccccccccccccccccccccccccccccccccccccccccccccccccccccccccccccccccccccccccccccccccccccccccccccccccccccccccccccccccccccccccccccccccccccccccccccccccccccccccccccccccccccccccccccccccccccccccccccccccccccccccccccccccccccccccccccccccccccccccccccccccccccccccccccccccccccccccccccccccccccccccccccccccccccccccccccccccccccccccccccccccccccccccccccc" transform="translate(-161.16 31.37)"/></g><g transform="matrix(1.10315 0 0 1.10315 -6.324 -1042.541)"><rect transform="rotate(-8.258)" ry="4.2230407e-05" y="982.31836" x="-88.227829" height="20.849329" width="2.7194731" style="opacity:1;fill:#8a198a;fill-opacity:1;stroke:none;stroke-width:1.05663562;stroke-miterlimit:4;stroke-dasharray:none;stroke-opacity:1"/><ellipse transform="matrix(.8572 -.51498 .5481 .8364 0 0)" ry="3.5004106" rx="4.6636724" cy="891.51343" cx="-505.87189" style="opacity:1;fill:#8a198a;fill-opacity:1;stroke:none;stroke-width:1.01808321;stroke-miterlimit:4;stroke-dasharray:none;stroke-opacity:1"/><ellipse transform="matrix(.85393 -.52038 .54249 .84006 0 0)" ry="2.7850695" rx="3.6668909" cy="888.18042" cx="-499.62885" style="opacity:1;fill:#e776e7;fill-opacity:1;stroke:none;stroke-width:.80524254;stroke-miterlimit:4;stroke-dasharray:none;stroke-opacity:1"/><rect transform="rotate(-8.258)" ry="4.0541152e-05" y="983.22485" x="-87.321335" height="19.942778" width="0.90649062" style="opacity:1;fill:#e776e7;fill-opacity:1;stroke:none;stroke-width:.65477258;stroke-miterlimit:4;stroke-dasharray:none;stroke-opacity:1"/></g><g transform="scale(1.10315) rotate(-16.26 -3407.845 360.69)"><rect ry="4.2230407e-05" y="1002.1633" x="12.077786" height="20.849329" width="2.7194731" style="opacity:1;fill:#b51a1a;fill-opacity:1;stroke:none;stroke-width:1.05663562;stroke-miterlimit:4;stroke-dasharray:none;stroke-opacity:1"/><ellipse transform="matrix(.92228 -.38652 .4223 .90646 0 0)" ry="3.5004106" rx="4.6636724" cy="948.62976" cx="-423.26614" style="opacity:1;fill:#b51a1a;fill-opacity:1;stroke:none;stroke-width:1.01808321;stroke-miterlimit:4;stroke-dasharray:none;stroke-opacity:1"/><ellipse transform="matrix(.91982 -.39234 .4162 .90927 0 0)" ry="2.7850695" rx="3.6668909" cy="945.80768" cx="-416.65512" style="opacity:1;fill:#ed5656;fill-opacity:1;stroke:none;stroke-width:.80524254;stroke-miterlimit:4;stroke-dasharray:none;stroke-opacity:1"/><path sodipodi:nodetypes="cccsc" inkscape:connector-curvature="0" d="M12.078 994.911v8.159c3.438 6.943 10.04 5.663 5.439 14.504 2.38-2.72 3.42-6.696 2.493-8.499-1.988-3.864-6.113-9.077-7.932-14.164z" style="fill:#b51a1a;fill-opacity:1;stroke:none;stroke-width:.90649116px;stroke-linecap:butt;stroke-linejoin:miter;stroke-opacity:1"/><rect ry="4.0541152e-05" y="1003.0698" x="12.984278" height="19.942778" width="0.90649062" style="opacity:1;fill:#ed5656;fill-opacity:1;stroke:none;stroke-width:.65477258;stroke-miterlimit:4;stroke-dasharray:none;stroke-opacity:1"/><path sodipodi:nodetypes="cccsc" inkscape:connector-curvature="0" d="M12.984 998.537v6.346c3.626 1.813 6.346 6.345 6.346 6.345s0-1.813-.907-3.06c-2.555-3.513-3.62-4.544-5.439-9.63z" style="fill:#ed5656;fill-opacity:1;stroke:none;stroke-width:.90649116px;stroke-linecap:butt;stroke-linejoin:miter;stroke-opacity:1"/></g><g transform="matrix(1.0162 .4293 -.4293 1.0162 457.426 -980.887)"><rect ry="4.2230407e-05" y="1002.1633" x="12.077786" height="20.849329" width="2.7194731" style="opacity:1;fill:#a65c13;fill-opacity:1;stroke:none;stroke-width:1.05663562;stroke-miterlimit:4;stroke-dasharray:none;stroke-opacity:1"/><ellipse transform="matrix(.92228 -.38652 .4223 .90646 0 0)" ry="3.5004106" rx="4.6636724" cy="948.62976" cx="-423.26614" style="opacity:1;fill:#a65c13;fill-opacity:1;stroke:none;stroke-width:1.01808321;stroke-miterlimit:4;stroke-dasharray:none;stroke-opacity:1"/><ellipse transform="matrix(.91982 -.39234 .4162 .90927 0 0)" ry="2.7850695" rx="3.6668909" cy="945.80768" cx="-416.65512" style="opacity:1;fill:#ed8823;fill-opacity:1;stroke:none;stroke-width:.80524254;stroke-miterlimit:4;stroke-dasharray:none;stroke-opacity:1"/><path sodipodi:nodetypes="cccsc" inkscape:connector-curvature="0" d="M12.078 994.911v8.159c3.438 6.943 10.04 5.663 5.439 14.504 2.38-2.72 3.42-6.696 2.493-8.499-1.988-3.864-6.113-9.077-7.932-14.164z" style="fill:#a65c13;fill-opacity:1;stroke:none;stroke-width:.90649116px;stroke-linecap:butt;stroke-linejoin:miter;stroke-opacity:1"/><rect ry="4.0541152e-05" y="1003.0698" x="12.984278" height="19.942778" width="0.90649062" style="opacity:1;fill:#ed8823;fill-opacity:1;stroke:none;stroke-width:.65477258;stroke-miterlimit:4;stroke-dasharray:none;stroke-opacity:1"/><path sodipodi:nodetypes="cccsc" inkscape:connector-curvature="0" d="M12.984 998.537v6.346c3.626 1.813 6.346 6.345 6.346 6.345s0-1.813-.907-3.06c-2.555-3.513-3.62-4.544-5.439-9.63z" style="fill:#ed8823;fill-opacity:1;stroke:none;stroke-width:.90649116px;stroke-linecap:butt;stroke-linejoin:miter;stroke-opacity:1"/></g><path style="color:#000;font-style:normal;font-variant:normal;font-weight:400;font-stretch:normal;font-size:medium;line-height:normal;font-family:'Times New Roman';text-indent:0;text-align:start;text-decoration:none;text-decoration-line:none;text-decoration-style:solid;text-decoration-color:#000;letter-spacing:normal;word-spacing:normal;text-transform:none;writing-mode:lr-tb;direction:ltr;baseline-shift:baseline;text-anchor:start;white-space:normal;clip-rule:nonzero;display:inline;overflow:visible;visibility:visible;opacity:1;isolation:auto;mix-blend-mode:normal;color-interpolation:sRGB;color-interpolation-filters:linearRGB;solid-color:#000;solid-opacity:1;fill:#1b9f1b;fill-opacity:1;fill-rule:evenodd;stroke:none;stroke-width:1;stroke-linecap:butt;stroke-linejoin:bevel;stroke-miterlimit:79.84031677;stroke-dasharray:none;stroke-dashoffset:0;stroke-opacity:1;color-rendering:auto;image-rendering:auto;shape-rendering:auto;text-rendering:auto;enable-background:accumulate" d="m36.298 974.851-10.846 2.614s.062 11.619.01 16.977c-.025-.004-.112-.024-.166-.032-.297-.042-.64-.113-1.032-.098a4.005 4.005 0 0 0-1.203.214c-.427.152-.863.368-1.234.697-.334.296-.56.657-.74.999-.148.285-.283.62-.348.994a2.463 3.416 71.592 0 0-.036.152l-.001.007v.004a2.463 3.416 71.592 0 0 .056.938 2.463 3.416 71.592 0 0 4.018 1.257 2.463 3.416 71.592 0 0 2.507-3.244.881.881 0 0 0 .06-.306c-.043-5.057.077-12.3.08-12.763l6.84-1.45-.036 6.113-.051-.013a3.782 3.782 0 0 0-.946-.077 4.594 4.594 0 0 0-1.326.286 4.465 4.465 0 0 0-.892.47 2.463 3.416 71.592 0 0-1.515 2.973 2.463 3.416 71.592 0 0 4.019 1.259 2.463 3.416 71.592 0 0 2.496-3.288l.055-.03z" inkscape:connector-curvature="0" transform="matrix(1.11251 0 0 1.11251 -18.92 -1062.97)"/><path sodipodi:nodetypes="caaaaaaaaaaaaacccsaaaaaaaaaaaaacccc" style="font-size:medium;font-family:'Times New Roman';fill:#7fec7f;fill-opacity:1;fill-rule:evenodd;stroke:none;stroke-width:.30000001;stroke-linejoin:bevel;stroke-miterlimit:79.84031677;stroke-dasharray:none;stroke-opacity:1;marker-start:none;marker-end:none" inkscape:connector-curvature="0" d="M35.328 989.581s-.09.756-.259 1.088c-.171.335-.44.624-.738.856-.325.254-.716.42-1.106.555-.403.14-.829.226-1.254.255a2.626 2.626 0 0 1-.701-.046c-.205-.042-.416-.094-.59-.209-.167-.11-.3-.27-.406-.44-.109-.175-.205-.372-.221-.577-.028-.354.06-.726.221-1.042.175-.343.474-.616.775-.856a3.84 3.84 0 0 1 1.032-.578 4.099 4.099 0 0 1 1.18-.255c.275-.017.553.02.824.07.217.04.638.186.638.186l.044-8.124-8.24 1.921s-.045 8.346 0 13.562c.002.393-.091.79-.237 1.154-.155.388-.364.773-.664 1.064-.316.309-.732.51-1.143.671a4.25 4.25 0 0 1-1.144.255c-.306.03-.619.03-.922-.023-.217-.038-.446-.082-.627-.208a1.421 1.421 0 0 1-.48-.602 1.72 1.72 0 0 1-.11-.833c.033-.34.174-.668.332-.972.164-.313.362-.621.627-.856.306-.271.684-.464 1.07-.601.336-.12.697-.172 1.054-.185.316-.012.63.05.943.094.246.035 0 0 .732.137.062-5.105.037-17.099.037-17.099l9.333-2.175z" transform="matrix(1.11251 0 0 1.11251 -18.92 -1062.97)"/><path style="color:#000;font-style:normal;font-variant:normal;font-weight:400;font-stretch:normal;font-size:medium;line-height:normal;font-family:'Times New Roman';text-indent:0;text-align:start;text-decoration:none;text-decoration-line:none;text-decoration-style:solid;text-decoration-color:#000;letter-spacing:normal;word-spacing:normal;text-transform:none;direction:ltr;block-progression:tb;writing-mode:lr-tb;baseline-shift:baseline;text-anchor:start;white-space:normal;clip-rule:nonzero;display:inline;overflow:visible;visibility:visible;opacity:1;isolation:auto;mix-blend-mode:normal;color-interpolation:sRGB;color-interpolation-filters:linearRGB;solid-color:#000;solid-opacity:1;fill:#000;fill-opacity:1;fill-rule:evenodd;stroke:none;stroke-width:1;stroke-linecap:butt;stroke-linejoin:bevel;stroke-miterlimit:79.84031677;stroke-dasharray:none;stroke-dashoffset:0;stroke-opacity:1;color-rendering:auto;image-rendering:auto;shape-rendering:auto;text-rendering:auto;enable-background:accumulate" d="M81.139 1024.64c-.03.044-.054.104-.084.145-.007.01-.021.02-.028.027.037-.06.077-.11.112-.172z" transform="translate(0 -952.362)"/><path style="color:#000;font-style:normal;font-variant:normal;font-weight:400;font-stretch:normal;font-size:medium;line-height:normal;font-family:'Times New Roman';text-indent:0;text-align:start;text-decoration:none;text-decoration-line:none;text-decoration-style:solid;text-decoration-color:#000;letter-spacing:normal;word-spacing:normal;text-transform:none;direction:ltr;block-progression:tb;writing-mode:lr-tb;baseline-shift:baseline;text-anchor:start;white-space:normal;clip-rule:nonzero;display:inline;overflow:visible;visibility:visible;opacity:1;isolation:auto;mix-blend-mode:normal;color-interpolation:sRGB;color-interpolation-filters:linearRGB;solid-color:#000;solid-opacity:1;fill:#000;fill-opacity:1;fill-rule:evenodd;stroke:none;stroke-width:1;stroke-linecap:butt;stroke-linejoin:bevel;stroke-miterlimit:79.84031677;stroke-dasharray:none;stroke-dashoffset:0;stroke-opacity:1;color-rendering:auto;image-rendering:auto;shape-rendering:auto;text-rendering:auto;enable-background:accumulate" d="M78.496 1026.393a1.148 1.148 0 0 0-.006.019l.006-.02z" transform="translate(0 -952.362)"/><path style="color:#000;font-style:normal;font-variant:normal;font-weight:400;font-stretch:normal;font-size:medium;line-height:normal;font-family:'Times New Roman';text-indent:0;text-align:start;text-decoration:none;text-decoration-line:none;text-decoration-style:solid;text-decoration-color:#000;letter-spacing:normal;word-spacing:normal;text-transform:none;direction:ltr;block-progression:tb;writing-mode:lr-tb;baseline-shift:baseline;text-anchor:start;white-space:normal;clip-rule:nonzero;display:inline;overflow:visible;visibility:visible;opacity:1;isolation:auto;mix-blend-mode:normal;color-interpolation:sRGB;color-interpolation-filters:linearRGB;solid-color:#000;solid-opacity:1;fill:#000;fill-opacity:1;fill-rule:evenodd;stroke:none;stroke-width:1;stroke-linecap:butt;stroke-linejoin:bevel;stroke-miterlimit:79.84031677;stroke-dasharray:none;stroke-dashoffset:0;stroke-opacity:1;color-rendering:auto;image-rendering:auto;shape-rendering:auto;text-rendering:auto;enable-background:accumulate" d="M78.486 1026.448h.022l-.024.055-.002-.025.004-.033z" transform="translate(0 -952.362)"/><path style="color:#000;font-style:normal;font-variant:normal;font-weight:400;font-stretch:normal;font-size:medium;line-height:normal;font-family:'Times New Roman';text-indent:0;text-align:start;text-decoration:none;text-decoration-line:none;text-decoration-style:solid;text-decoration-color:#000;letter-spacing:normal;word-spacing:normal;text-transform:none;direction:ltr;block-progression:tb;writing-mode:lr-tb;baseline-shift:baseline;text-anchor:start;white-space:normal;clip-rule:nonzero;display:inline;overflow:visible;visibility:visible;opacity:1;isolation:auto;mix-blend-mode:normal;color-interpolation:sRGB;color-interpolation-filters:linearRGB;solid-color:#000;solid-opacity:1;fill:#000;fill-opacity:1;fill-rule:evenodd;stroke:none;stroke-width:1;stroke-linecap:butt;stroke-linejoin:bevel;stroke-miterlimit:79.84031677;stroke-dasharray:none;stroke-dashoffset:0;stroke-opacity:1;color-rendering:auto;image-rendering:auto;shape-rendering:auto;text-rendering:auto;enable-background:accumulate" d="M76.883 1028.307c-.162.06-.33.13-.496.19-.062.021-.117.035-.178.058.138-.057.284-.096.42-.158.053-.024.172-.063.254-.09z" transform="translate(0 -952.362)"/><path style="fill:#b26616;fill-opacity:1;stroke:none;stroke-width:1.08294964px;stroke-linecap:butt;stroke-linejoin:miter;stroke-opacity:1" d="M85.81 988.104c-5.829 3.156-4.912 13.723-3.84 19.513-4.512 6.862-8.564 14.519-7.714 19.205 1.763 9.096 6.653 11.087 13.063 8.201 1.735 4.546 1.357 13.417-3.805 12.804 3.18-2.62 2.45-5.165.852-7.183-1.843-2.394-6.672 1.905-5.646 5.898.598 2.326 2.562 5.787 7.756 3.586 6.658-3.334 3.935-10.149 2.97-15.897.12-.058.237-.104.36-.164 8.362-4.062 6.428-21.549-3.406-17.16l-.855-4.942c3.135-4.967 10.303-29.295.266-23.86zm-1.767 16.601c-.067-2.405.428-8.087 2.597-8.872 2.17-.784-1.824 7.395-2.597 8.873zm-.183 10.414c.454 2.238.433 1.867.62 3.093-7.557 5.165-3.413 13.115.168 13.027-1.71-1.815-2.675-5.451.838-7.311 1.026 5.07.822 5.513 1.529 9.047-12.915 4.796-8.195-11.54-3.03-17.669zm5.241 15.74-1.358-8.063c4.239-.621 4.41 5.781 1.358 8.063z" inkscape:connector-curvature="0" sodipodi:nodetypes="scccccscccccsccccccccccccc" transform="translate(0 -952.362)"/><path style="fill:#f2a24f;fill-opacity:1;stroke:none;stroke-width:1px;stroke-linecap:butt;stroke-linejoin:miter;stroke-opacity:1" d="M85.648 989.253c-5.34 3.239-3.699 13.07-2.695 18.545-3.993 6.61-8.752 14.328-8 18.843 1.56 8.764 6.122 10.682 12.89 7.561 1.374 5.86 2.055 11.422-2.107 13.918-.972.354-4.33.176-2.12-1.326 2.209-1.503 1.855-3.358.44-5.303-1.63-2.306-4.887.984-4.683 4.064.153 2.309 2.033 5.747 6.629 3.625 4.596-2.12 4.065-7.69 4.065-7.69l-1.202-7.796c7.355-2.732 8.195-20.869-2.943-15.68l-1.149-6.117c3.128-4.469 10.148-28.267.875-22.644zm1.131 5.174c.885-.026 1.504.976 1.256 3.134-.222 1.935-2.068 5.194-4.283 8.891-.785-3.2-.198-11.466 3.027-12.025zM84 1013.407l.973 5.219c-6.69 4.977-3.288 12.696-.12 12.611-4.72-2.77-2.21-6.614.899-8.406.908 4.886 1.279 6.955 1.904 10.36-7.223 4.487-13.195-1.818-7.664-12.913.924-1.854 2.625-4.18 4.008-6.87zm4.639 19.082-1.907-10.152c5.673-1.846 7.507 5.588 1.907 10.152z" inkscape:connector-curvature="0" sodipodi:nodetypes="sccccscssccccscscccccccscccc" transform="translate(0 -952.362)"/></g></svg>