<svg xmlns:dc="http://purl.org/dc/elements/1.1/" xmlns:cc="http://creativecommons.org/ns#" xmlns:rdf="http://www.w3.org/1999/02/22-rdf-syntax-ns#" xmlns="http://www.w3.org/2000/svg" width="702" height="176" viewBox="0 0 702 176" version="1.1" id="svg52"><metadata id="metadata30"><rdf:RDF><cc:Work><dc:format>image/svg+xml</dc:format><dc:type rdf:resource="http://purl.org/dc/dcmitype/StillImage"/><dc:title/><dc:date>2023</dc:date><dc:creator><cc:Agent><dc:title>Timothée Giet</dc:title></cc:Agent></dc:creator><cc:license rdf:resource="http://creativecommons.org/licenses/by-sa/4.0/"/></cc:Work><cc:License rdf:about="http://creativecommons.org/licenses/by-sa/4.0/"><cc:permits rdf:resource="http://creativecommons.org/ns#Reproduction"/><cc:permits rdf:resource="http://creativecommons.org/ns#Distribution"/><cc:requires rdf:resource="http://creativecommons.org/ns#Notice"/><cc:requires rdf:resource="http://creativecommons.org/ns#Attribution"/><cc:permits rdf:resource="http://creativecommons.org/ns#DerivativeWorks"/><cc:requires rdf:resource="http://creativecommons.org/ns#ShareAlike"/></cc:License></rdf:RDF></metadata><g transform="matrix(3.67378 0 0 3.9187 -150.177 -1551.293)" id="g50"><path id="path32-3" style="fill:#999;fill-opacity:1;stroke:none;stroke-width:.999999;stroke-linejoin:round;stroke-miterlimit:4;stroke-opacity:1" d="M217.5 395.87c-3.135-.013-6.753.12-10.829.34-16.301.883-4.635 15.991-70.251 15.992-65.616 0-53.95-15.108-70.251-15.991-4.076-.221-7.694-.354-10.829-.34-9.405.04-14.46 1.398-14.46 5.637 0 5.651-.55 25.849 16.975 32.472 8.937 3.378 43.723 6.802 78.565 6.802s69.628-3.424 78.565-6.802c17.524-6.624 16.975-26.821 16.975-32.473 0-4.238-5.055-5.596-14.46-5.637z"/></g></svg>