<!--Created with Inkscape (http://www.inkscape.org/)--><svg xmlns:dc="http://purl.org/dc/elements/1.1/" xmlns:cc="http://creativecommons.org/ns#" xmlns:rdf="http://www.w3.org/1999/02/22-rdf-syntax-ns#" xmlns="http://www.w3.org/2000/svg" xmlns:sodipodi="http://sodipodi.sourceforge.net/DTD/sodipodi-0.dtd" xmlns:inkscape="http://www.inkscape.org/namespaces/inkscape" width="35.600437mm" height="41.506142mm" viewBox="0 0 126.14328 147.06901" inkscape:version="0.92.1 r15371" sodipodi:docname="tire_right.svg"><sodipodi:namedview pagecolor="#ffffff" bordercolor="#666666" borderopacity="1.0" inkscape:pageopacity="0.0" inkscape:pageshadow="2" inkscape:zoom="1.979899" inkscape:cx="56.235583" inkscape:cy="26.131431" inkscape:document-units="px" inkscape:current-layer="g6961" showgrid="false" fit-margin-top="0" fit-margin-left="0" fit-margin-right="0" fit-margin-bottom="0" inkscape:window-width="1884" inkscape:window-height="1051" inkscape:window-x="0" inkscape:window-y="0" inkscape:window-maximized="1"/><metadata><rdf:RDF><cc:Work><dc:format>image/svg+xml</dc:format><dc:type rdf:resource="http://purl.org/dc/dcmitype/StillImage"/><dc:title/><dc:date>2017</dc:date><dc:creator><cc:Agent><dc:title>Timothée Giet</dc:title></cc:Agent></dc:creator><cc:license rdf:resource="http://creativecommons.org/licenses/by-sa/4.0/"/></cc:Work><cc:License rdf:about="http://creativecommons.org/licenses/by-sa/4.0/"><cc:permits rdf:resource="http://creativecommons.org/ns#Reproduction"/><cc:permits rdf:resource="http://creativecommons.org/ns#Distribution"/><cc:requires rdf:resource="http://creativecommons.org/ns#Notice"/><cc:requires rdf:resource="http://creativecommons.org/ns#Attribution"/><cc:permits rdf:resource="http://creativecommons.org/ns#DerivativeWorks"/><cc:requires rdf:resource="http://creativecommons.org/ns#ShareAlike"/></cc:License></rdf:RDF></metadata><path style="opacity:1;fill:#999;fill-opacity:1;stroke:none;stroke-width:4.04721355;stroke-linejoin:round;stroke-miterlimit:4;stroke-dasharray:none;stroke-opacity:1" d="M13.617 0v1.332C5.687 4.732 0 14.289 0 25.615v105.643c0 11.326 5.687 20.883 13.617 24.283v1.332h86.209c11.084 0 20.008-11.424 20.008-25.615v-7.998c.173-.196.378-.498.635-1.028 4.32-8.908 9.065-22.203 14.084-28.24l-6.752-.34c-2.976 2.893-4.803 11.516-7.385 14.653-.219.55-.406.97-.582 1.377V25.615C119.834 11.425 110.91 0 99.826 0H13.618z" transform="scale(.9375)" inkscape:label="Calque 1" inkscape:groupmode="layer"/></svg>