<!--Created with Inkscape (http://www.inkscape.org/)--><svg xmlns:dc="http://purl.org/dc/elements/1.1/" xmlns:cc="http://creativecommons.org/ns#" xmlns:rdf="http://www.w3.org/1999/02/22-rdf-syntax-ns#" xmlns="http://www.w3.org/2000/svg" xmlns:sodipodi="http://sodipodi.sourceforge.net/DTD/sodipodi-0.dtd" xmlns:inkscape="http://www.inkscape.org/namespaces/inkscape" width="3000" height="3000" viewBox="0 0 793.74998 793.75002" inkscape:version="0.92.4 (5da689c313, 2019-01-14)" sodipodi:docname="egypt.svg"><sodipodi:namedview pagecolor="#ffffff" bordercolor="#666666" borderopacity="1.0" inkscape:pageopacity="0.0" inkscape:pageshadow="2" inkscape:zoom="0.20518053" inkscape:cx="517.87058" inkscape:cy="1766.3529" inkscape:document-units="px" inkscape:current-layer="layer1" showgrid="false" units="px" inkscape:window-width="1884" inkscape:window-height="1051" inkscape:window-x="0" inkscape:window-y="0" inkscape:window-maximized="1" inkscape:snap-global="false"/><metadata><rdf:RDF><cc:Work><dc:format>image/svg+xml</dc:format><dc:type rdf:resource="http://purl.org/dc/dcmitype/StillImage"/><dc:title/><dc:date>2020</dc:date><dc:creator><cc:Agent><dc:title>Timothée Giet</dc:title></cc:Agent></dc:creator><cc:license rdf:resource="http://creativecommons.org/licenses/by-sa/4.0/"/></cc:Work><cc:License rdf:about="http://creativecommons.org/licenses/by-sa/4.0/"><cc:permits rdf:resource="http://creativecommons.org/ns#Reproduction"/><cc:permits rdf:resource="http://creativecommons.org/ns#Distribution"/><cc:requires rdf:resource="http://creativecommons.org/ns#Notice"/><cc:requires rdf:resource="http://creativecommons.org/ns#Attribution"/><cc:permits rdf:resource="http://creativecommons.org/ns#DerivativeWorks"/><cc:requires rdf:resource="http://creativecommons.org/ns#ShareAlike"/></cc:License></rdf:RDF></metadata><g inkscape:label="Layer 1" inkscape:groupmode="layer" transform="translate(0 496.75)"><rect y="-496.75" x="-5.6936035e-05" height="793.75" width="793.75" style="display:inline;opacity:1;vector-effect:none;fill:#75c5f0;fill-opacity:1;stroke:none;stroke-width:.26449555;stroke-linecap:butt;stroke-linejoin:miter;stroke-miterlimit:4;stroke-dasharray:none;stroke-dashoffset:0;stroke-opacity:1"/><path style="fill:#cc5c18;stroke-width:.26458338;fill-opacity:1" d="M471.488 28.27c-.219-.092-.457-.254-.53-.361-.072-.108-.965-.645-1.984-1.194-1.019-.55-2.073-1.188-2.343-1.42-.416-.355-1.323-.415-5.953-.394-3.004.014-7.13.158-9.167.32-9.281.74-13.859.9-17.906.63-4.775-.319-12.24-1.258-13.182-1.659-.898-.381-4.318-2.671-4.562-3.055-.306-.48-3.725-.741-4.472-.343-.521.278-1.424 1.07-3.767 3.306-.163.155-.934.72-1.715 1.256-1.673 1.15-.874 1.112-14.456.686-4.802-.15-10.124-.259-11.826-.24-1.702.018-4.024-.09-5.16-.24-2.017-.268-11.79-.529-41.222-1.099-8.004-.154-16.696-.41-19.315-.568-2.62-.157-5.774-.31-7.011-.34a86.248 86.248 0 0 1-4.498-.252c-1.237-.108-8.296-.334-15.687-.502-11.412-.26-13.477-.366-13.705-.703-.179-.263-.217-5.029-.114-14.155.086-7.567.272-33.106.415-56.753.143-23.648.373-50.08.512-58.738.681-42.314.458-38.539 2.528-42.766.667-1.363 1.306-2.478 1.418-2.478.113 0 .522-.647.91-1.438.806-1.648.892-3.033.31-5.02-.217-.741-.56-2.002-.763-2.802-.422-1.668-1.894-5.052-2.705-6.22-.302-.435-.619-.983-.703-1.218-.084-.234-.95-1.47-1.923-2.747-.974-1.276-1.859-2.632-1.967-3.013-.107-.381-.07-2.598.083-4.926l.277-4.233 1.338-1.343c1.453-1.458 1.865-2.183 2.402-4.225.905-3.442 1.015-5.751.7-14.775-.193-5.505-.218-9.45-.067-10.614.132-1.018.321-2.447.42-3.175.1-.727.421-2.027.716-2.889a9.664 9.664 0 0 0 .5-3.248c-.03-1.34.051-1.716.399-1.85.933-.357 1.28.285 1.613 2.989.332 2.683.908 4.656 1.59 5.444.585.675 2.6 1.539 3.59 1.539 1.455 0 4.137-1.063 5.942-2.354.937-.67 1.9-1.337 2.14-1.483.241-.145.498-.338.57-.429.073-.09.873-.536 1.779-.992 2.231-1.122 3.479-1.103 5.815.092 2.074 1.06 3.049 1.23 11.88 2.08l6.112.587 4.074 4.107c3.198 3.224 4.534 4.374 6.21 5.348 1.174.682 2.543 1.374 3.042 1.538.5.163 1.497.581 2.217.929.72.347 1.553.632 1.852.634.299.002 1.298.24 2.22.53 2.072.649 2.63.652 5.094.03 2.607-.657 6.664-.932 8.312-.563.71.16 1.805.611 2.434 1.005l2.925 1.83c.98.613 2.08 1.327 2.444 1.587.363.26.958.63 1.322.822.365.192 1.273.698 2.018 1.124 1.956 1.12 4.028 1.096 6.124-.067 1.781-.988 3.67-2.24 4.28-2.836 2.014-1.969 6.804-5.053 7.848-5.053.107 0 1.303-.554 2.659-1.231 2.165-1.082 2.737-1.528 4.707-3.67 3.034-3.298 4.39-4.126 9.407-5.746.565-.183 4.279-.357 9.525-.448 8.324-.145 8.642-.17 9.922-.773 1.035-.487 1.784-.626 3.44-.635 2.461-.013 3.808.445 5.82 1.98.728.556 1.621 1.085 1.985 1.177.364.092 1.257.493 1.984.89.728.398 1.84.8 2.472.893.632.093 1.615.407 2.184.697.57.291 1.958.708 3.085.927 2.81.545 4.078.932 4.658 1.422.69.583 2.22 3.707 2.56 5.225.157.697.438 1.449.626 1.67.187.22.708 1.055 1.157 1.856.45.8 1.178 1.8 1.62 2.223.75.718.931.766 2.797.73 2.397-.046 5.628-1.048 8.607-2.67.51-.277 1.852-.99 2.983-1.584l2.058-1.08h3.015c1.658 0 4.839-.129 7.068-.285 4.514-.317 5.453-.602 8.424-2.553.946-.622 1.81-1.13 1.921-1.13.11-.001.706-.232 1.323-.515 1.812-.829 3.337-1.127 4.796-.938 3.059.397 8.613 2.457 9.686 3.593.219.232.682.946 1.029 1.588a869.49 869.49 0 0 0 3.252 5.928c.403.728 1.09 1.978 1.526 2.778.437.8.963 1.753 1.17 2.117 1.063 1.866 4.666 9.353 4.666 9.696 0 .218.286.894.635 1.502.35.608.716 1.522.815 2.031.099.51.536 2.057.971 3.44.899 2.852 1.36 8.232.8 9.336-.591 1.168-1.397 3.468-1.677 4.79-.158.743-.57 1.913-.916 2.6-.345.686-.628 1.45-.628 1.696 0 .592-.86 3.368-1.097 3.541-.103.075-.426 1.027-.72 2.117-.684 2.54-.9 3.199-1.733 5.272-.376.937-.683 1.95-.683 2.25 0 .3-.286 1.259-.636 2.132-.35.873-.788 2.302-.971 3.175-.184.873-.42 1.707-.526 1.852-.318.44-.983 3.305-1.294 5.58-.426 3.118-1.57 5.996-2.531 6.365-.63.241-2.237-.446-3.122-1.333-.463-.465-1.437-2.015-2.163-3.443-.727-1.43-1.506-2.734-1.733-2.9-.227-.165-.585-.55-.796-.856-.211-.305-.944-1.198-1.629-1.984a224.894 224.894 0 0 1-2.784-3.281c-3.088-3.717-3.242-3.882-4.423-4.763a22.8 22.8 0 0 1-1.16-.926 12.394 12.394 0 0 0-1.175-.866c-1.902-1.234-4.501-3.826-6.543-6.524-1.237-1.635-2.76-3.587-3.383-4.34a74.623 74.623 0 0 1-1.328-1.631c-.107-.146-.749-.979-1.427-1.852-.679-.873-1.488-2.242-1.8-3.043-.31-.8-.712-1.693-.891-1.984-.18-.291-.477-1.065-.66-1.72-.364-1.3-.515-1.746-1.654-4.882-.42-1.157-.763-2.322-.763-2.589 0-.267-.18-.759-.399-1.093-.219-.335-.648-1.595-.953-2.8-.305-1.206-.839-2.804-1.186-3.55-.348-.747-.633-1.668-.635-2.047-.003-.903-1.69-3.096-2.546-3.31-1.975-.497-3.014 1.354-3.434 6.116-.167 1.892-.607 5.047-.978 7.011-.37 1.965-.871 5.299-1.112 7.409-.241 2.11-.659 4.967-.928 6.35-.268 1.382-.562 3.437-.652 4.566-.176 2.196.214 5.183.734 5.62.173.146.766 1.158 1.319 2.249 1.802 3.563 2.094 3.937 3.89 4.98.655.38 1.348.844 1.54 1.03.193.187.461.34.597.34.364 0 2.33 2.126 2.814 3.043.231.436.686 1.15 1.011 1.587.325.437.672 1.06.77 1.384.1.325.59 1.27 1.09 2.101.5.831.91 1.596.91 1.699 0 .103.476 1.209 1.058 2.457.582 1.248 1.058 2.34 1.058 2.426 0 .298 1.681 2.64 3.029 4.22.745.874 2.174 2.6 3.177 3.837 1.002 1.237 1.986 2.428 2.185 2.646 1.798 1.963 3.945 4.616 6.976 8.62 2.174 2.87 3.45 5.362 4.192 8.181.191.728.622 2.037.957 2.91.334.874.8 2.362 1.036 3.308.235.946.527 1.958.65 2.249l.554 1.323c.183.436.487 1.586.677 2.555.19.968.576 2.219.86 2.778.283.56.719 2.088.967 3.398s.68 2.886.958 3.503c.278.617.507 1.51.508 1.984.003.475.478 2.33 1.059 4.124.58 1.794 1.055 3.377 1.055 3.518 0 .141.4 1.115.888 2.163.488 1.048 1.039 2.382 1.224 2.964.185.582.476 1.237.648 1.455.171.219.59 1.23.933 2.25.342 1.018.706 1.97.81 2.116.104.146.398.92.653 1.72.256.8.815 2.225 1.244 3.166.43.942.849 2.073.932 2.514.084.441.38 1.256.658 1.81.277.556.838 1.985 1.247 3.176 1.772 5.172 3.274 8.544 4.668 10.485.501.698.912 1.403.912 1.566 0 .163.238.446.529.628.29.181.529.415.529.52 0 .104.923 1.62 2.05 3.368 4.556 7.062 6.681 11.096 6.681 12.683 0 .926-1.045 2.153-1.835 2.153-.239 0-.906.252-1.482.56l-2.196 1.166c-1.496.79-2.264 1.525-3.443 3.295-1.096 1.645-1.052 1.045-.817 11.25.088 3.824.03 5.273-.246 6.053-.383 1.082-1.598 3.052-2.525 4.093-.987 1.107-4.036 2.695-5.914 3.08-.98.2-2.2.531-2.708.736-1.971.793-3.059 1.275-3.44 1.525-.218.143-.69.408-1.048.589-.359.18-.954.608-1.323.95-1.02.945-1.933 1.336-3.765 1.614-3.49.529-5.061.84-6.125 1.21-.605.21-1.31.385-1.566.387-.256.003-.97.466-1.588 1.03-5.096 4.664-7.742 6.434-9.8 6.553-.756.045-1.554.006-1.773-.085z" inkscape:connector-curvature="0"/></g></svg>