<?xml version="1.0" encoding="UTF-8" standalone="no"?>
<!-- Created with Inkscape (http://www.inkscape.org/) -->

<svg
   xmlns:dc="http://purl.org/dc/elements/1.1/"
   xmlns:cc="http://creativecommons.org/ns#"
   xmlns:rdf="http://www.w3.org/1999/02/22-rdf-syntax-ns#"
   xmlns:svg="http://www.w3.org/2000/svg"
   xmlns="http://www.w3.org/2000/svg"
   xmlns:sodipodi="http://sodipodi.sourceforge.net/DTD/sodipodi-0.dtd"
   xmlns:inkscape="http://www.inkscape.org/namespaces/inkscape"
   width="120"
   height="120"
   viewBox="0 0 31.75 31.750001"
   version="1.1"
   id="svg8"
   inkscape:version="0.92.1 r15371"
   sodipodi:docname="12.svg">
  <defs
     id="defs2" />
  <sodipodi:namedview
     id="base"
     pagecolor="#ffffff"
     bordercolor="#666666"
     borderopacity="1.0"
     inkscape:pageopacity="0.0"
     inkscape:pageshadow="2"
     inkscape:zoom="0.35355339"
     inkscape:cx="75.76598"
     inkscape:cy="110.12232"
     inkscape:document-units="mm"
     inkscape:current-layer="text1005"
     showgrid="false"
     units="px"
     inkscape:window-width="938"
     inkscape:window-height="1047"
     inkscape:window-x="0"
     inkscape:window-y="0"
     inkscape:window-maximized="0" />
  <metadata
     id="metadata5">
    <rdf:RDF>
      <cc:Work
         rdf:about="">
        <dc:format>image/svg+xml</dc:format>
        <dc:type
           rdf:resource="http://purl.org/dc/dcmitype/StillImage" />
        <dc:title></dc:title>
      </cc:Work>
    </rdf:RDF>
  </metadata>
  <g
     inkscape:label="Calque 1"
     inkscape:groupmode="layer"
     id="layer1"
     transform="translate(0,-265.24998)">
    <g
       aria-label="a"
       style="font-style:normal;font-variant:normal;font-weight:normal;font-stretch:normal;font-size:25.39999962px;line-height:1.25;font-family:Kabel;-inkscape-font-specification:Kabel;letter-spacing:0px;word-spacing:0px;fill:#e77936;fill-opacity:1;stroke:#b95c1f;stroke-width:0.5291667;stroke-miterlimit:4;stroke-dasharray:none;stroke-opacity:1"
       id="text817"
       transform="translate(1.7053228,-3.6786133)">
      <g
         aria-label="bcdefghijklmnopqrstuvwxyz  ABCDEFGHIJKLMNOPQRSTUVWXYZ"
         style="font-style:normal;font-variant:normal;font-weight:normal;font-stretch:normal;font-size:25.39999962px;line-height:1.25;font-family:Kabel;-inkscape-font-specification:Kabel;letter-spacing:0px;word-spacing:0px;fill:#e77936;fill-opacity:1;stroke:#b95c1f;stroke-width:0.5291667;stroke-miterlimit:4;stroke-dasharray:none;stroke-opacity:1"
         id="text1005">
        <path
           d="m 1.3939645,284.11155 -1.87895006,-3.23081 10.41176976,-6.39961 v 21.87153 l -5.3082097,0.45889 v -14.35571 z"
           style="font-style:normal;font-variant:normal;font-weight:normal;font-stretch:normal;font-size:25.39999962px;line-height:1.25;font-family:Kabel;-inkscape-font-specification:Kabel;letter-spacing:0px;word-spacing:0px;fill:#cc77d6;fill-opacity:1;stroke:#a91fb9;stroke-width:0.52916676;stroke-miterlimit:4;stroke-dasharray:none;stroke-opacity:1"
           id="path4860"
           inkscape:connector-curvature="0" />
        <path
           d="m 12.661494,296.40227 7.69566,-9.22114 q 2.51147,-3.24941 2.51147,-4.61987 0,-0.0806 0,-0.15503 -0.14883,-1.34566 -0.86196,-2.00298 -0.65732,-0.61392 -1.5999,-0.61392 -0.0744,0 -0.14883,0 -1.01699,0.0248 -1.68052,0.73794 -0.65732,0.71314 -0.70693,1.73013 0,0.0496 0,0.0992 0,1.39526 1.77353,2.28823 l -2.97036,3.90674 q -0.0248,-0.0248 -0.60771,-0.40308 -0.58291,-0.38447 -1.11621,-0.81235 -2.0836,-1.95957 -2.0836,-5.00435 0,-0.20463 0,-0.40927 0.0744,-1.92857 1.09141,-3.50366 0.99219,-1.5503 2.76572,-2.38746 1.70532,-0.81235 3.75791,-0.81235 0.0558,0 0.10542,0 1.97818,0 3.6773,0.76274 1.70532,0.76275 2.771921,2.20762 1.0418,1.45108 1.14722,3.47886 0,0.15503 0,0.30386 0,1.57509 -0.917781,3.53466 -1.01699,2.18282 -2.46186,3.75791 l -2.1332,2.36265 h 6.170162 l -1.246431,4.7749 z"
           style="font-style:normal;font-variant:normal;font-weight:normal;font-stretch:normal;font-size:25.39999962px;line-height:1.25;font-family:Kabel;-inkscape-font-specification:Kabel;letter-spacing:0px;word-spacing:0px;fill:#cc77d6;fill-opacity:1;stroke:#a91fb9;stroke-width:0.52916676;stroke-miterlimit:4;stroke-dasharray:none;stroke-opacity:1"
           id="path4862"
           inkscape:connector-curvature="0" />
      </g>
    </g>
  </g>
</svg>
