<?xml version="1.0" encoding="UTF-8" standalone="no"?>
<!-- Created with Inkscape (http://www.inkscape.org/) -->

<svg
   xmlns:dc="http://purl.org/dc/elements/1.1/"
   xmlns:cc="http://creativecommons.org/ns#"
   xmlns:rdf="http://www.w3.org/1999/02/22-rdf-syntax-ns#"
   xmlns:svg="http://www.w3.org/2000/svg"
   xmlns="http://www.w3.org/2000/svg"
   xmlns:sodipodi="http://sodipodi.sourceforge.net/DTD/sodipodi-0.dtd"
   xmlns:inkscape="http://www.inkscape.org/namespaces/inkscape"
   width="120"
   height="120"
   viewBox="0 0 31.75 31.750001"
   version="1.1"
   id="svg8"
   inkscape:version="0.92.1 r15371"
   sodipodi:docname="13.svg">
  <defs
     id="defs2" />
  <sodipodi:namedview
     id="base"
     pagecolor="#ffffff"
     bordercolor="#666666"
     borderopacity="1.0"
     inkscape:pageopacity="0.0"
     inkscape:pageshadow="2"
     inkscape:zoom="0.35355339"
     inkscape:cx="75.76598"
     inkscape:cy="110.12232"
     inkscape:document-units="mm"
     inkscape:current-layer="text1005"
     showgrid="false"
     units="px"
     inkscape:window-width="938"
     inkscape:window-height="1047"
     inkscape:window-x="0"
     inkscape:window-y="0"
     inkscape:window-maximized="0" />
  <metadata
     id="metadata5">
    <rdf:RDF>
      <cc:Work
         rdf:about="">
        <dc:format>image/svg+xml</dc:format>
        <dc:type
           rdf:resource="http://purl.org/dc/dcmitype/StillImage" />
        <dc:title></dc:title>
      </cc:Work>
    </rdf:RDF>
  </metadata>
  <g
     inkscape:label="Calque 1"
     inkscape:groupmode="layer"
     id="layer1"
     transform="translate(0,-265.24998)">
    <g
       aria-label="a"
       style="font-style:normal;font-variant:normal;font-weight:normal;font-stretch:normal;font-size:25.39999962px;line-height:1.25;font-family:Kabel;-inkscape-font-specification:Kabel;letter-spacing:0px;word-spacing:0px;fill:#e77936;fill-opacity:1;stroke:#b95c1f;stroke-width:0.5291667;stroke-miterlimit:4;stroke-dasharray:none;stroke-opacity:1"
       id="text817"
       transform="translate(1.7053228,-3.6786133)">
      <g
         aria-label="bcdefghijklmnopqrstuvwxyz  ABCDEFGHIJKLMNOPQRSTUVWXYZ"
         style="font-style:normal;font-variant:normal;font-weight:normal;font-stretch:normal;font-size:25.39999962px;line-height:1.25;font-family:Kabel;-inkscape-font-specification:Kabel;letter-spacing:0px;word-spacing:0px;fill:#e77936;fill-opacity:1;stroke:#b95c1f;stroke-width:0.5291667;stroke-miterlimit:4;stroke-dasharray:none;stroke-opacity:1"
         id="text1005">
        <path
           d="m 1.8391109,284.11155 -1.87896005,-3.23081 10.41177015,-6.39961 v 21.87153 l -5.3081999,0.45889 v -14.35571 z"
           style="font-style:normal;font-variant:normal;font-weight:normal;font-stretch:normal;font-size:25.39999962px;line-height:1.25;font-family:Kabel;-inkscape-font-specification:Kabel;letter-spacing:0px;word-spacing:0px;fill:#e16f6f;fill-opacity:1;stroke:#b91f1f;stroke-width:0.52916676;stroke-miterlimit:4;stroke-dasharray:none;stroke-opacity:1"
           id="path4864"
           inkscape:connector-curvature="0" />
        <path
           d="m 17.118801,281.7241 -3.7083,-2.49287 q 0.13022,-0.35347 0.76274,-1.14102 0.63252,-0.78755 1.34565,-1.27124 2.1084,-1.50068 4.97955,-1.50068 1.85415,0 3.60288,0.81235 1.73012,0.84336 2.771919,2.33784 0.812351,1.22164 0.812351,2.69131 0,0.38448 -0.0496,0.76275 -0.15502,1.12241 -0.582912,1.90376 -0.45888,0.81855 -0.917768,1.24643 -0.483691,0.43408 -0.533301,0.45889 1.246441,0.60771 2.058791,2.08359 0.81235,1.46968 0.81235,2.94556 0,1.0418 -0.32866,1.92856 -0.359669,0.89297 -0.892972,1.60611 -0.533299,0.70693 -1.066598,1.16582 -1.928561,1.67431 -5.537651,1.67431 -2.23242,0 -4.16098,-0.83715 -1.95957,-0.83716 -3.42925,-2.51768 l 3.52847,-3.32383 q 0.20464,0.27905 0.71313,0.76275 0.5085,0.47749 1.21543,0.81235 0.99219,0.45269 1.82935,0.5085 1.01699,-0.0806 1.82934,-0.66353 0.78755,-0.58291 0.78755,-1.5751 0,-0.73794 -0.30386,-1.29604 -0.32866,-0.55811 -0.86196,-0.73174 -0.94258,-0.25425 -2.54248,-0.25425 -0.55811,0 -0.76274,0 -0.20464,0.0248 -0.32867,0.0496 v -3.86333 q 0.12403,0 0.40928,0 0.27905,0.0248 0.63252,0.0496 1.37046,0 2.36265,-0.40308 0.96738,-0.38447 0.96738,-1.57509 0,-0.96739 -0.68833,-1.5503 -0.68833,-0.58291 -1.70532,-0.58291 -0.93638,0 -1.82315,0.48369 -0.91777,0.5085 -1.19682,1.29605 z"
           style="font-style:normal;font-variant:normal;font-weight:normal;font-stretch:normal;font-size:25.39999962px;line-height:1.25;font-family:Kabel;-inkscape-font-specification:Kabel;letter-spacing:0px;word-spacing:0px;fill:#e16f6f;fill-opacity:1;stroke:#b91f1f;stroke-width:0.52916676;stroke-miterlimit:4;stroke-dasharray:none;stroke-opacity:1"
           id="path4866"
           inkscape:connector-curvature="0" />
      </g>
    </g>
  </g>
</svg>
