<!--Created with Inkscape (http://www.inkscape.org/)--><svg xmlns:dc="http://purl.org/dc/elements/1.1/" xmlns:cc="http://creativecommons.org/ns#" xmlns:rdf="http://www.w3.org/1999/02/22-rdf-syntax-ns#" xmlns="http://www.w3.org/2000/svg" xmlns:sodipodi="http://sodipodi.sourceforge.net/DTD/sodipodi-0.dtd" xmlns:inkscape="http://www.inkscape.org/namespaces/inkscape" width="120" height="120" viewBox="0 0 31.75 31.750001" inkscape:version="0.92.1 r15371" sodipodi:docname="16.svg"><sodipodi:namedview pagecolor="#ffffff" bordercolor="#666666" borderopacity="1.0" inkscape:pageopacity="0.0" inkscape:pageshadow="2" inkscape:zoom="0.35355339" inkscape:cx="75.76598" inkscape:cy="110.12232" inkscape:document-units="mm" inkscape:current-layer="text1005" showgrid="false" units="px" inkscape:window-width="938" inkscape:window-height="1047" inkscape:window-x="0" inkscape:window-y="0" inkscape:window-maximized="0"/><metadata><rdf:RDF><cc:Work><dc:format>image/svg+xml</dc:format><dc:type rdf:resource="http://purl.org/dc/dcmitype/StillImage"/><dc:title/></cc:Work></rdf:RDF></metadata><g aria-label="a" style="font-style:normal;font-variant:normal;font-weight:400;font-stretch:normal;font-size:25.39999962px;line-height:1.25;font-family:Kabel;-inkscape-font-specification:Kabel;letter-spacing:0;word-spacing:0;fill:#e77936;fill-opacity:1;stroke:#b95c1f;stroke-width:.5291667;stroke-miterlimit:4;stroke-dasharray:none;stroke-opacity:1" inkscape:label="Calque 1" inkscape:groupmode="layer"><g aria-label="bcdefghijklmnopqrstuvwxyz ABCDEFGHIJKLMNOPQRSTUVWXYZ" style="font-style:normal;font-variant:normal;font-weight:400;font-stretch:normal;font-size:25.39999962px;line-height:1.25;font-family:Kabel;-inkscape-font-specification:Kabel;letter-spacing:0;word-spacing:0;fill:#e77936;fill-opacity:1;stroke:#b95c1f;stroke-width:.5291667;stroke-miterlimit:4;stroke-dasharray:none;stroke-opacity:1"><path d="m1.51 284.112-1.878-3.231 10.411-6.4v21.872l-5.308.459v-14.356z" style="font-style:normal;font-variant:normal;font-weight:400;font-stretch:normal;font-size:25.39999962px;line-height:1.25;font-family:Kabel;-inkscape-font-specification:Kabel;letter-spacing:0;word-spacing:0;fill:#75d21b;fill-opacity:1;stroke:#6bb91f;stroke-width:.52916676;stroke-miterlimit:4;stroke-dasharray:none;stroke-opacity:1" inkscape:connector-curvature="0" transform="translate(1.705 -268.929)"/><path d="m21.36 274.76 5.464 2.01q-.18.049-1.55 1.27-1.396 1.216-1.979 1.799-1.147 1.147-2.443 2.772l.384-.05q.379-.056.558-.08.18-.025.41-.025 2.79 0 4.644 1.984 1.83 2.003 1.954 4.825v.304q0 2.182-1.067 3.813-1.14 1.75-3.02 2.642-1.904.912-3.807.912-3.535 0-5.767-2.289-2.084-2.108-2.084-5.407 0-.254.025-.533.074-1.321.434-2.462.329-1.123.837-2.133.509-1.017 1.215-2.109.689-1.097 1.123-1.78.862-1.45 4.67-5.463zm-.508 11.764q-1.166.025-1.953.887-.714.812-.714 1.854v.204q.081 1.092.893 1.88.813.787 1.929.787 1.14 0 1.978-.887.788-.818.788-1.885v-.149q-.025-1.172-.887-1.984-.812-.707-1.83-.707h-.204z" style="font-style:normal;font-variant:normal;font-weight:400;font-stretch:normal;font-size:25.39999962px;line-height:1.25;font-family:Kabel;-inkscape-font-specification:Kabel;letter-spacing:0;word-spacing:0;fill:#75d21b;fill-opacity:1;stroke:#6bb91f;stroke-width:.52916676;stroke-miterlimit:4;stroke-dasharray:none;stroke-opacity:1" inkscape:connector-curvature="0" transform="translate(1.705 -268.929)"/></g></g></svg>