<!--Created with Inkscape (http://www.inkscape.org/)--><svg xmlns:dc="http://purl.org/dc/elements/1.1/" xmlns:cc="http://creativecommons.org/ns#" xmlns:rdf="http://www.w3.org/1999/02/22-rdf-syntax-ns#" xmlns="http://www.w3.org/2000/svg" xmlns:sodipodi="http://sodipodi.sourceforge.net/DTD/sodipodi-0.dtd" xmlns:inkscape="http://www.inkscape.org/namespaces/inkscape" width="120" height="120" viewBox="0 0 31.75 31.750001" inkscape:version="0.92.1 r15371" sodipodi:docname="18.svg"><sodipodi:namedview pagecolor="#ffffff" bordercolor="#666666" borderopacity="1.0" inkscape:pageopacity="0.0" inkscape:pageshadow="2" inkscape:zoom="0.35355339" inkscape:cx="75.76598" inkscape:cy="110.12232" inkscape:document-units="mm" inkscape:current-layer="text1005" showgrid="false" units="px" inkscape:window-width="938" inkscape:window-height="1047" inkscape:window-x="0" inkscape:window-y="0" inkscape:window-maximized="0"/><metadata><rdf:RDF><cc:Work><dc:format>image/svg+xml</dc:format><dc:type rdf:resource="http://purl.org/dc/dcmitype/StillImage"/><dc:title/></cc:Work></rdf:RDF></metadata><g aria-label="a" style="font-style:normal;font-variant:normal;font-weight:400;font-stretch:normal;font-size:25.39999962px;line-height:1.25;font-family:Kabel;-inkscape-font-specification:Kabel;letter-spacing:0;word-spacing:0;fill:#e77936;fill-opacity:1;stroke:#b95c1f;stroke-width:.5291667;stroke-miterlimit:4;stroke-dasharray:none;stroke-opacity:1" inkscape:label="Calque 1" inkscape:groupmode="layer"><g aria-label="bcdefghijklmnopqrstuvwxyz ABCDEFGHIJKLMNOPQRSTUVWXYZ" style="font-style:normal;font-variant:normal;font-weight:400;font-stretch:normal;font-size:25.39999962px;line-height:1.25;font-family:Kabel;-inkscape-font-specification:Kabel;letter-spacing:0;word-spacing:0;fill:#e77936;fill-opacity:1;stroke:#b95c1f;stroke-width:.5291667;stroke-miterlimit:4;stroke-dasharray:none;stroke-opacity:1"><path d="m1.917 284.112-1.88-3.231 10.412-6.4v21.872l-5.308.459v-14.356z" style="font-style:normal;font-variant:normal;font-weight:400;font-stretch:normal;font-size:25.39999962px;line-height:1.25;font-family:Kabel;-inkscape-font-specification:Kabel;letter-spacing:0;word-spacing:0;fill:#1b8bd2;fill-opacity:1;stroke:#1f7db9;stroke-width:.52916676;stroke-miterlimit:4;stroke-dasharray:none;stroke-opacity:1" inkscape:connector-curvature="0" transform="translate(1.705 -268.929)"/><path d="M20.78 283.448q.33 0 1.191-.608.837-.558.837-1.525v-.05q-.024-.862-.558-1.296-.533-.434-1.37-.434-.788 0-1.296.484-.534.508-.558 1.296v.05q0 .582.353 1.041.385.484.837.713.434.255.565.329zm.1 4.316q-.608.205-1.526.812-.911.64-.911 1.83 0 1.147.762 1.705.732.583 1.855.583.632-.025 1.215-.329.558-.304.918-.787.304-.434.304-.918v-.149q-.13-1.32-1.172-2.034-1.067-.713-1.445-.713zm-4.57-2.028q-.05-.025-.689-.638-.657-.583-1.116-1.625-.41-.837-.41-1.954 0-.229.026-.483.155-1.88 1.147-3.175.992-1.296 2.56-1.904 1.427-.533 3.027-.533h.304q2.821.05 4.7 1.47 1.854 1.426 2.003 4.216v.329q0 1.172-.452 2.083-.558 1.042-1.247 1.6-.688.558-.738.614.813.403 1.96 1.65 1.01 1.166 1.01 3.045v.36q-.074 3.02-2.133 4.545-2.052 1.525-5.153 1.6h-.304q-3.175 0-5.184-1.501-2.133-1.575-2.232-4.44v-.106q0-1.444.607-2.567.608-1.14 1.396-1.879.787-.707.918-.707z" style="font-style:normal;font-variant:normal;font-weight:400;font-stretch:normal;font-size:25.39999962px;line-height:1.25;font-family:Kabel;-inkscape-font-specification:Kabel;letter-spacing:0;word-spacing:0;fill:#1b8bd2;fill-opacity:1;stroke:#1f7db9;stroke-width:.52916676;stroke-miterlimit:4;stroke-dasharray:none;stroke-opacity:1" inkscape:connector-curvature="0" transform="translate(1.705 -268.929)"/></g></g></svg>