<?xml version="1.0" encoding="UTF-8" standalone="no"?>
<!-- Created with Inkscape (http://www.inkscape.org/) -->

<svg
   width="52.605087"
   height="42.833652"
   viewBox="0 0 52.605087 42.833655"
   version="1.1"
   id="svg1059"
   xmlns="http://www.w3.org/2000/svg"
   xmlns:svg="http://www.w3.org/2000/svg"
   xmlns:rdf="http://www.w3.org/1999/02/22-rdf-syntax-ns#"
   xmlns:cc="http://creativecommons.org/ns#"
   xmlns:dc="http://purl.org/dc/elements/1.1/">
  <defs
     id="defs1053" />
  <metadata
     id="metadata1056">
    <rdf:RDF>
      <cc:Work
         rdf:about="">
        <dc:format>image/svg+xml</dc:format>
        <dc:type
           rdf:resource="http://purl.org/dc/dcmitype/StillImage" />
      </cc:Work>
    </rdf:RDF>
  </metadata>
  <g
     id="layer45"
     style="display:inline"
     transform="translate(-109.60526,-142.9405)">
    <path
       style="display:inline;fill:#36b4e7;fill-opacity:1;fill-rule:nonzero;stroke:#505050;stroke-width:0.5;stroke-linecap:round;stroke-linejoin:round;stroke-miterlimit:4;stroke-dasharray:none;stroke-opacity:1"
       class="polygon"
       d="m 119.68821,182.43929 -0.35985,0.3845 -0.57478,-0.78872 0.005,-0.2169 z m -2.68805,-5.58609 -0.17549,0.0986 -0.16563,-0.002 -0.16957,-0.14789 0.0197,-0.57182 0.12323,-0.34506 0.28887,-0.0986 z m 44.26805,-33.17346 -0.41506,1.02731 -0.4407,0.9366 -0.82815,0.80844 -0.0394,0.60139 -0.28492,1.78645 0.10943,0.57182 0.19225,0.48309 0.26915,0.25633 0.71872,1.74898 0.65365,1.59124 0.64379,1.30631 0.11338,0.82815 -0.59154,2.09405 -0.69111,1.92348 0.0591,0.95632 0.29577,0.95632 0.31549,1.2797 0.11732,1.6356 -0.17155,1.06674 -0.31154,0.66055 -0.59647,0.68027 -0.51858,0.34506 -0.62407,-0.57182 h -0.4969 l -0.66646,0.17747 -0.52351,0.26619 -1.06773,0.99772 -1.18327,0.96618 -1.63669,0.24648 -0.6359,0.7197 -0.68126,0.0986 h -1.29497 l -0.84492,0.1676 0.0394,0.36479 -0.069,1.70856 0.0197,0.40421 -0.13112,0.10845 h -0.58562 l -0.9926,-0.25633 -1.34309,-0.42394 -0.95534,-0.0986 -0.49097,0.74928 -0.29281,0.28591 h -0.36183 l -0.37858,0.12817 -0.12817,0.33521 -0.0296,0.41407 0.18337,0.70985 0.069,1.13082 -0.0493,0.769 0.35098,0.49295 2.04978,1.63757 0.60534,0.41408 0.069,0.24648 -0.35887,0.8873 0.31943,1.25308 h -0.64181 l -1.07158,-0.54225 -0.51266,-0.32534 -0.62112,0.26619 h -0.21591 l -0.41999,-0.61126 -0.54914,-0.63097 h -0.56492 l -1.19481,0.24647 -1.22084,0.17747 -0.46337,-0.002 -0.18929,0.11831 -0.70886,0.9366 -0.29971,-0.15774 -1.2305,-0.35492 -1.12166,-0.13803 -0.2307,0.23662 0.13704,0.75914 0.24648,0.74928 -0.14493,0.31549 -0.61618,0.39435 -0.81436,0.70985 -0.49984,0.5521 -0.34704,0.13803 h -1.24006 l -1.23622,0.0986 -0.49492,0.52252 -0.46435,0.40422 -0.40028,0.10845 -1.61657,-1.28167 -3.20703,-0.44365 -0.349,-0.56196 -0.3076,-0.10845 -0.29577,0.73942 -1.76101,0.70985 -0.73745,-0.42394 -0.54126,-0.51266 0.0789,-0.63098 0.50971,-0.51266 0.87548,-0.37464 0.40421,-1.29744 -0.66646,-1.66124 -0.58464,-0.48309 -0.61717,-0.3845 -0.64773,0.62112 -0.54619,1.05688 -0.56886,0.54224 -0.80252,0.11831 h -1.17657 l -0.45746,-1.57842 -0.15084,-1.35364 0.1607,-1.5449 0.17845,-0.91688 -1.13319,-1.26195 -0.0592,-1.20181 -0.54815,-0.62111 -0.16071,0.31548 0.0197,0.34507 -0.15577,-0.24648 -1.78891,-3.52655 -0.29971,-1.6356 0.30661,-1.25899 0.18042,-0.42394 -0.51562,-0.66055 -0.72562,-0.74928 -1.28246,-0.98688 -0.0887,-1.56068 -0.28591,-1.84067 -0.38548,-0.62111 -0.58858,-1.13378 -0.31746,-0.93661 -0.10845,-2.48248 0.16366,-0.19718 0.90899,-0.0986 1.16681,-0.17746 0.18437,-0.40422 -0.20507,-0.33521 0.74632,-0.56196 1.0697,-1.23138 0.82717,-1.28758 0.59548,-0.80844 0.35492,-0.80844 1.20053,-1.14166 1.65985,-0.78872 1.12462,-0.18732 1.17262,-0.26619 1.12363,-0.3845 h 0.53238 l 1.39505,0.46337 0.75421,0.11831 0.79167,-0.007 h 0.82027 0.71477 l 1.70985,-0.32534 1.81296,0.25633 1.61845,-0.19718 2.00354,-0.37464 0.98392,0.23662 0.89618,0.37464 0.12521,0.75914 0.20704,0.34506 0.29873,0.26619 h 0.3983 l 0.51168,-0.52252 0.42591,-0.54224 0.13999,-0.0986 0.0197,0.26619 0.21197,0.59154 0.38154,0.58168 0.38647,0.38449 0.64379,0.51267 h 0.41901 l 1.36902,-0.48309 2.05273,0.69999 0.23958,0.35492 0.66449,0.70985 0.7197,0.51266 h 1.60021 l 0.57084,-1.26096 -0.27605,-0.769 -0.91294,-1.33885 -0.24845,-0.78871 0.29084,-0.13803 1.54618,-0.14788 0.25141,-0.15775 0.3421,-0.86759 0.41999,0.0986 0.85773,0.10845 0.90703,-0.59154 0.53731,-0.62111 0.29281,0.28591 0.32042,0.43379 0.35098,0.25634 0.65266,0.37464 0.71675,0.53238 0.44661,0.52253 0.35887,0.19718 0.91984,-0.14789 h 0.24549 l 0.53337,-0.63097 0.37464,-0.34507 0.31746,0.0986 0.46337,-0.01 0.95928,-0.79858 0.54914,-0.72956 0.29971,-0.19718 0.85971,0.36478 0.34407,-0.0986 0.4969,-1.0066 0.53534,-0.39436 z"
       id="path2414-4" />
  </g>
</svg>
