<?xml version="1.0" encoding="UTF-8" standalone="no"?>
<!-- Created with Inkscape (http://www.inkscape.org/) -->

<svg
   width="88.90696"
   height="184.54668"
   viewBox="0 0 88.90696 184.54669"
   version="1.1"
   id="svg1059"
   xmlns="http://www.w3.org/2000/svg"
   xmlns:svg="http://www.w3.org/2000/svg"
   xmlns:rdf="http://www.w3.org/1999/02/22-rdf-syntax-ns#"
   xmlns:cc="http://creativecommons.org/ns#"
   xmlns:dc="http://purl.org/dc/elements/1.1/">
  <defs
     id="defs1053" />
  <metadata
     id="metadata1056">
    <rdf:RDF>
      <cc:Work
         rdf:about="">
        <dc:format>image/svg+xml</dc:format>
        <dc:type
           rdf:resource="http://purl.org/dc/dcmitype/StillImage" />
      </cc:Work>
    </rdf:RDF>
  </metadata>
  <g
     id="layer41"
     style="display:inline"
     transform="translate(-9.6461307,-6.4547)">
    <path
       style="display:inline;fill:#eb6757;fill-opacity:1;fill-rule:nonzero;stroke:#505050;stroke-width:0.5;stroke-linecap:round;stroke-linejoin:round;stroke-miterlimit:4;stroke-dasharray:none;stroke-opacity:1"
       class="polygon"
       d="m 69.06093,190.17956 -0.4752,0.57182 h -0.1607 l 0.21887,-0.95632 0.79365,-0.69998 0.69998,-0.0986 -0.0789,0.43379 -0.51365,0.53239 z m 0.26817,-10.04924 0.82519,1.7056 -0.0887,0.26619 -0.12718,0.12817 h -0.19422 l -0.33126,-0.91689 -0.61915,-0.59153 -0.73843,0.10844 0.61224,-0.74928 0.24352,-0.1676 z m 3.27248,-0.0986 h -0.22379 -0.20606 l -0.20309,-0.14789 0.48407,-1.05786 z m -3.15506,-5.09413 -0.0493,0.22676 -0.069,-0.008 -0.21788,-0.15774 0.13605,-0.93661 0.37464,-0.75914 0.38549,-1.12096 0.21196,-0.24648 0.0789,0.59154 -0.23366,1.26984 -0.20211,0.69998 z m 3.27446,-2.62939 -0.25042,2.03292 -0.62703,-0.28591 -0.29676,9.9e-4 -0.37365,-1.14759 0.0296,-0.30562 -0.22675,-0.75914 1.44996,-0.12817 z m -4.71575,0.52253 0.0789,0.5521 -0.61619,-0.58168 -0.10549,-1.61983 0.48506,1.02041 0.20901,0.23661 z m 4.34318,-2.09602 -0.41112,0.0986 -0.19521,-1.59617 0.11535,-0.22675 0.58266,0.77886 0.83111,0.47323 -0.32633,0.31548 z m -3.73951,-2.41939 -0.11437,0.0986 h -0.16365 l -0.32634,-0.15774 -0.37562,-0.67041 0.19718,-0.47323 0.13901,-0.11831 h 0.33027 l 0.17352,0.0986 0.0592,0.1676 -0.0986,0.37464 0.0197,0.31549 z m -0.69604,-2.36024 -0.0592,0.35493 -0.57182,0.73942 -0.49886,-0.42394 -0.12915,-0.23661 0.50872,-0.47323 0.54126,0.0986 0.14591,-0.10845 z m 3.42944,-2.05165 0.22182,0.2662 0.31352,-0.009 -0.0887,0.96618 -0.77492,1.18406 -0.45745,0.16761 -0.2031,0.002 0.17352,-1.72927 -0.28492,-0.98786 0.0986,-0.66055 0.83209,0.30562 z m -0.97111,-4.94131 -0.0591,1.62081 -0.49197,-0.77886 -0.0887,-0.8873 0.0394,-0.82816 0.10549,-0.13802 0.0296,0.12817 0.29675,0.37464 z m -34.6103,-26.81836 -0.20211,0.24647 -0.40422,-0.17746 -0.0986,-0.10845 0.93168,-1.08449 0.10056,0.40422 z m -3.23502,-1.24815 -0.63886,0.96618 -0.23662,-1.43744 1.04367,-0.79857 0.51562,-0.75915 0.54521,-0.52252 0.17154,0.63097 -0.51759,1.2028 z m 30.54544,-3.02966 -0.37266,0.12817 -0.55999,-0.6507 -0.11042,-1.53109 0.46632,-0.35493 0.25239,-0.0986 0.36479,0.18732 0.14098,0.24648 0.0591,0.30563 -0.10154,0.31548 z m -38.294,-23.96814 -0.16563,0.0986 -1.02632,-0.82815 -0.81238,-1.06378 1.28926,-0.20704 1.24676,0.22676 0.008,0.57182 -0.26816,0.90702 z m 0.23662,-8.615751 1.13033,0.8183 0.44562,-0.0986 0.69999,0.51266 0.0197,0.19718 -0.1331,0.42394 -0.31549,0.32534 -0.85477,0.32535 -0.58562,-0.26619 -0.23169,-0.89717 -0.69111,-0.42393 -0.17944,-0.35493 0.43676,-0.48309 z m -2.19895,-3.29684 0.21197,1.35857 -0.67633,-0.51267 -0.24746,-0.69998 -0.069,-0.71971 z m -4.74847,-0.30562 0.12915,0.9366 -0.47422,-0.3845 -0.61618,-1.29941 0.0197,-0.85773 0.44266,0.39435 z m 46.53354,-83.6355996 0.3845,0.50281 0.4683,-0.002 0.47717,-0.0986 0.2238,0.0986 0.45844,0.42393 0.86956,1.00858 0.38845,0.2563296 0.36773,0.43379 0.19127,0.85773 0.11929,0.86759 1.08991,3.00107 0.32732,0.63098 0.24253,0.48309 0.50971,0.1183 0.41309,-0.48309 0.16267,-0.51266 0.43084,-0.17746 0.51168,0.0986 0.93956,0.48309 0.50675,0.25633 0.25239,1.48476 0.0591,1.74109 -0.0789,0.54225 0.41112,1.43645 0.12817,1.65137 0.0887,0.90703 0.009,0.86759 -0.069,1.13082 -0.22084,1.51631 -0.3707,1.29251 0.13507,1.0766 -0.22084,0.49295 -0.89914,0.24647 -0.0789,0.41408 0.26521,0.68027 0.62801,0.84787 0.0197,0.53239 -0.30464,0.36478 h -0.66055 l -0.9159,0.3352 -0.62999,1.09336 -0.66942,0.89717 -0.36675,0.17746 -1.22271,-0.25633 -0.29282,0.22675 -0.42689,1.5311 -0.35098,0.66055 -0.52548,0.56196 -0.48013,0.32535 -0.4338,0.22675 -0.97012,-0.15774 -0.51464,0.92674 -0.51661,1.22054 -0.0394,0.63098 0.26717,0.99082 -0.13901,0.27605 -0.52351,0.2169 -0.86167,0.44366 -0.5314,1.41574 0.0197,1.37533 0.31351,0.47323 0.5945,0.20704 0.42393,0.42393 0.0394,0.66055 0.36971,0.82816 -0.17352,0.96618 -1.20634,1.40293 -0.0394,0.75914 0.64182,0.23661 0.55605,-0.10845 0.68618,-0.3352 0.80844,-0.53238 1.76673,-0.77886 1.92841,-0.44366 1.52607,-0.0986 h 1.30266 l 0.63887,0.16761 0.18929,0.28591 1.78398,-0.45352 h 0.37464 0.32239 l -0.01,0.30563 -1.30553,1.24716 -0.2445,0.58168 0.0394,0.62112 0.53435,0.58167 0.51858,0.44366 0.43873,1.11899 -0.33915,1.02435 0.21591,0.37464 0.38647,0.41407 0.23366,0.59154 0.0296,0.71971 -0.21493,1.1466 1.88612,0.60139 1.6291,0.26619 1.188,0.0986 0.76111,0.2662 0.45845,0.22675 0.32238,0.41408 0.0986,0.44365 -0.39731,0.31549 -0.80449,1.00759 -0.46239,1.34476 0.0493,1.0066 -0.0493,0.86759 -0.93266,1.25899 -0.37168,0.86759 -0.32535,0.88731 0.01,0.38449 0.19225,0.2662 0.3983,0.15774 0.68717,0.0986 0.84295,-0.0986 2.01132,0.2169 2.29428,0.3845 0.90999,0.21689 0.29774,0.39436 -0.069,0.85773 -0.14592,0.79858 0.14887,0.61126 0.36971,0.56196 0.62112,0.18732 0.53534,0.21689 0.10056,0.4338 -0.16267,0.58168 0.27112,0.46337 0.30464,0.30563 0.66154,0.1676 1.33924,-0.37464 0.93759,0.1676 0.84491,0.25634 0.72168,-0.13803 0.71576,-0.32535 1.55782,-1.48081 1.81582,-0.79858 0.59647,-0.18732 0.40323,0.0986 0.10056,0.0986 -0.0296,0.29577 0.18929,1.21758 -0.0789,0.13803 -0.57675,0.97603 -1.50675,1.00956 -1.06487,0.51267 h -0.62013 l -0.52745,0.6014 -0.43281,1.19293 -0.44858,0.69999 -0.46436,0.20704 -0.3007,0.45351 -0.13704,0.69013 0.26619,0.37464 h 0.67436 l 0.0493,0.19718 -0.56985,0.3352 -0.70787,0.11831 -0.84689,-0.0986 -0.80252,0.27605 -0.75716,0.64083 -0.64478,1.39209 -0.53436,2.13841 -0.069,0.5521 -1.17174,-0.62111 -0.48604,-0.35493 -0.63098,-0.0986 -0.64182,0.39436 -0.51168,0.42394 -0.52449,0.15774 h -0.80351 l -1.05521,-0.2169 -0.71674,-0.19717 -0.10747,0.10844 0.39042,0.89717 0.14,0.7197 -0.15479,0.37465 -0.33915,0.31548 -0.51562,0.24648 -0.60436,0.14788 h -0.53435 l -0.85576,-0.34506 -0.65168,-0.01 -0.55703,0.1676 -0.34013,0.25633 -0.18732,0.31549 -0.32831,1.77856 -0.28985,0.56196 -0.40718,0.31549 h -0.40323 l -0.55506,-0.0986 -0.58069,0.0986 -2.63037,0.69012 -0.38352,0.0986 h -0.82519 -0.76506 -0.5383 l -1.26214,-0.70984 -0.61126,-0.0986 -0.33521,0.19718 -0.23464,0.94646 -0.73745,0.6014 -0.98195,1.31025 -0.22873,1.91363 0.10155,1.3349 -0.88435,1.321101 -0.0789,0.64084 0.47323,3.06515 -0.0789,0.32535 -0.17943,0.15774 -0.55407,0.10845 -0.92872,0.31548 -0.61323,0.30563 h -0.29774 l -0.8666,-0.22675 -0.22774,-0.004 0.069,0.23662 0.69111,1.32702 0.71971,0.63097 0.74435,-0.0986 0.32436,0.12817 -0.0986,0.31548 0.2869,0.82816 0.67238,1.34476 0.19915,1.0066 -0.40816,1.00266 0.0789,0.35492 0.2238,0.20704 0.62999,0.9366 1.34397,1.45913 1.31903,1.57743 1.09957,1.31519 0.80745,0.90702 1.79749,1.69476 0.31844,0.79858 0.069,1.60504 0.44365,0.92674 0.41013,0.66055 0.28493,0.5521 0.66153,1.818 0.28099,0.24647 1.44128,-1.10618 0.33422,0.22676 0.18732,0.41408 0.002,0.53238 -0.22577,0.6014 -0.46929,0.5521 -2.22408,1.28364 -0.18141,1.1042 -0.15577,1.67701 -0.0394,2.05855 0.1055,1.53998 -0.0789,0.35492 -0.19323,0.1676 -0.83999,-0.0986 -1.21018,0.77886 -0.4269,0.0986 -0.5314,0.29577 -0.40618,0.36478 -0.12916,0.56196 0.23859,1.69081 0.43281,1.58927 0.84886,1.16533 0.67139,0.92674 0.93463,1.28265 0.73942,1.11407 1.49038,1.22448 2.09405,1.8318 0.79956,1.01251 0.7059,1.22646 0.49887,1.04604 0.18929,1.38912 0.1538,0.77886 0.0493,2.60178 -0.38548,0.59154 -0.29281,0.68027 0.16267,0.71971 0.489,0.68026 v 0.77886 l 0.45647,1.40195 0.76407,0.85773 0.73548,0.58168 0.32634,0.45351 -0.10648,0.72956 0.21788,0.77886 0.15873,0.84787 0.3007,1.17125 0.59252,0.99181 0.90506,3.04051 -0.0197,0.31548 -0.39042,0.61126 -0.56787,0.56196 -0.36774,0.17746 -0.34704,0.57182 -0.82717,1.62673 -1.66271,2.80093 -1.62427,1.82687 -1.36329,1.29843 -0.98777,0.78871 -0.29281,0.47323 v 0.36479 l 0.17943,0.66055 -0.069,1.24321 -0.21197,0.78872 -0.28,0.83801 -0.15675,0.74928 -0.43873,0.10845 -0.94054,1.42068 -0.40718,-0.70985 -0.24056,-0.73942 0.25831,-1.68194 -0.57281,-3.18149 0.35492,-0.42393 0.34211,-0.2169 0.62309,-1.21955 0.75717,-1.20773 0.069,-1.44138 0.61224,-1.05787 -0.14394,-0.8873 0.0296,-1.03815 0.12915,-0.84787 -0.0493,-0.69013 0.48605,-0.71971 0.83998,-0.54224 -0.35196,-0.18732 -0.34999,-0.39436 -1.09573,0.6014 -0.56492,-0.19718 -0.11239,-0.62112 0.14,-0.67041 0.0591,-0.40421 0.43872,-0.45352 -0.0296,-0.8873 -0.22183,-0.78872 0.31943,-0.97604 -0.64773,-0.002 -0.29873,-0.19718 0.18535,-0.54224 0.58759,-0.47323 -0.53534,-0.90703 0.39633,-0.97604 -0.01,-1.20772 -0.27112,-1.06575 0.01,-0.769 -0.41408,-1.35857 -0.1883,-1.73321 -0.87646,-1.29349 -0.64872,-1.88011 -1.734,-2.46178 0.0296,-1.05392 -0.0986,-0.92675 -0.38056,-0.45351 -0.50182,3.27909 -0.38351,-0.64083 -0.12225,-1.82884 -0.25239,-0.86759 0.27112,-1.72532 -1.00315,-1.71349 -0.21591,-1.2442 -0.65858,-1.88503 0.19225,-0.42394 0.88139,0.42394 -0.81041,-1.09731 -0.66449,0.24648 -0.55999,-1.18505 -0.12324,-3.21402 -0.55309,-1.20181 0.3007,-1.22448 -0.62999,-4.38232 -1.24302,-1.42067 0.24648,-1.22449 0.30858,-1.08547 -0.069,-2.00926 0.30563,-0.62111 0.60435,-0.47323 -0.56689,0.1676 -0.48111,0.13803 -1.12935,0.1183 h -1.27378 l -0.44168,-1.46701 -0.62703,-0.69999 -0.55013,-1.47391 -0.32929,-1.67011 0.21591,-0.32535 -0.98589,-0.68027 -0.25338,-0.41407 -1.02918,-1.08843 -1.16976,-0.82816 0.25929,0.58168 0.31548,0.36478 -0.58069,1.00463 0.56886,1.69575 -0.49886,1.08251 -0.46732,1.40786 -0.44562,0.67041 -1.40954,1.44335 -1.14186,0.49295 -0.74436,0.0986 -0.65857,-0.15774 -0.80943,-0.74928 -0.19816,-0.62112 -0.13014,-1.04702 -0.28197,-0.14789 -0.3076,0.11831 0.47915,1.35167 -0.01,0.63097 0.86364,1.21265 -0.3076,0.33521 -1.55781,0.66055 -0.53337,-0.10845 -0.37563,0.12817 -0.10549,0.54224 -0.19521,0.30563 -2.45508,0.83801 -0.51168,0.94646 -0.3145,0.95632 -1.22083,1.36941 -1.63768,1.13477 -0.4052,-0.0986 -0.46337,-0.26619 0.0591,-1.22547 0.56098,-1.03519 -0.17746,-1.10618 -0.13606,0.63097 -1.05619,1.54293 -0.4821,0.50281 -0.9721,-0.13803 -1.33825,0.20704 -0.50675,-1.58631 0.01,-0.58167 -0.0986,-0.49295 0.1538,-0.52253 -0.0493,-0.41407 -0.32534,0.78871 -0.12225,0.69013 -0.48901,0.61126 -1.34693,0.66055 -0.0493,-0.82816 -0.0493,-0.74928 0.28985,-0.67041 -0.0394,-1.07167 0.42788,-1.5449 -0.0296,-0.53238 -0.13112,-0.58168 -0.23958,0.84787 -0.13605,0.87745 -0.27112,0.26619 -0.49492,0.19718 -0.90506,1.01252 -0.53337,0.90702 -1.40569,0.85773 -0.74139,-0.0986 -0.0986,-1.08646 0.56196,-3.85189 0.55309,-0.54225 0.25732,-0.67041 0.45942,-2.24981 0.51661,-0.84788 0.20409,-1.78348 0.20901,-0.30563 0.69111,-1.39997 0.24154,-2.57122 -0.28492,-1.27871 -0.64773,-1.23829 -0.62703,-3.71683 -1.62614,-3.0129 -0.13507,-1.00561 -0.80351,-1.21463 0.73943,-0.0986 -1.52213,-1.06575 -0.21,-0.4338 -0.30562,-2.491361 0.0592,-1.39307 -0.22183,0.18732 -0.20605,0.85773 -0.59647,0.35492 0.26619,1.489691 -0.069,0.36479 -0.31647,0.58167 -1.27279,-0.60139 -0.93266,-0.65069 -1.05816,-1.593211 -1.03598,-1.78448 0.36971,-0.27605 H 23.689 l 1.47313,1.32801 0.95533,0.27605 0.60337,-0.33521 0.7483,-0.56196 0.35591,-1.10026 -0.36873,-0.40422 -0.71773,-0.2169 -0.47619,-0.29576 -0.68618,-0.73943 -0.0887,-0.37464 -0.21197,-0.48309 -0.69802,-0.34506 -0.56196,-0.4338 0.47422,-0.769 0.46534,-0.57182 h -1.23434 l -1.40757,-0.98589 -0.29084,-0.28591 -0.46632,-0.19718 -1.10727,-0.11831 -0.92082,0.28591 0.41802,1.4049 -0.0789,0.46338 -0.60239,-0.0986 -1.25731,-2.13841 0.37858,-0.54225 0.54422,-0.51266 -0.26817,-0.0986 h -0.52449 l 0.50971,-1.89687 -0.30958,-0.28591 -0.16366,0.59154 -0.27605,0.57182 -1.07068,1.33983 -0.53041,-0.24647 -0.36577,-0.33521 0.51562,-0.69998 0.27704,-0.18732 0.19126,-0.3845 -0.3983,-0.73943 -0.629,-0.53238 -0.50576,-0.92674 -0.26324,-0.01 0.23267,1.0904 -0.0986,1.55476 -1.1322,-1.71743 -2.26451,-2.44207 -0.53435,-0.72956 -0.12028,-0.71971 -0.25338,-0.66055 -0.17549,-0.7197 -0.0394,-0.56196 -0.48999,-0.50281 -0.22479,-0.88731 -0.12225,-0.89716 0.28197,-0.64084 0.70491,-0.69012 0.50182,-0.11831 0.41507,0.30563 0.97801,0.45351 0.6635,0.42393 0.28986,0.55211 0.3076,-0.0986 0.31351,-0.35493 -0.0591,-0.43379 -0.31352,-1.14956 -0.0887,-1.39701 -0.0197,-3.26628 -0.0789,-0.37464 0.54718,-0.32535 0.21985,-0.37464 0.21788,-0.56196 0.14099,-0.24647 h 0.31548 l 0.4969,0.27605 0.81731,0.9366 0.54421,0.20704 0.54323,-0.14788 0.5659,-1.39998 0.20704,-0.37464 0.27211,-0.24647 h 0.50182 l 0.29281,-0.24648 0.11042,-0.60139 -0.004,-0.67041 -0.56098,-1.84264 -0.16661,-0.84788 -0.0986,-0.83801 0.35098,-0.85773 0.4752,-1.00758 -0.11338,-0.87745 0.13014,-0.34507 h 0.39239 l 0.489,0.2169 0.53731,-0.14788 0.40817,-0.54225 0.16365,-0.47323 0.24944,-2.03785 0.16563,-1.86137 0.069,-1.51927 -0.41802,-0.90702 -0.64281,-2.44207 0.18732,-0.41407 0.28887,-0.0986 0.95238,0.85773 0.41013,0.13802 0.69309,-0.12816 0.68224,-0.18733 h 0.49393 l 0.71478,0.29577 0.98195,0.32535 1.53179,0.40422 0.63097,0.30563 h 0.52056 l 0.42097,-0.94647 0.48704,-1.38518 0.72266,-2.05757 0.83012,-1.49757 0.21887,-0.39436 0.92379,-1.21857 0.89618,-1.27674 0.78083,-1.6149 0.43675,-1.1604 -0.0394,-0.48309 -0.27999,-0.40421 -0.58858,-0.25634 -0.48408,-0.26619 -0.13309,-0.23661 0.01,-0.27606 0.2514,-0.74928 0.42394,-0.8873 0.44266,-0.48309 1.16405,-0.6014 0.74238,-0.769 0.83407,-1.01646 0.45647,-0.69013 0.22873,-1.40391 0.2514,-0.27606 0.51563,-0.45351 0.38844,-0.53238 -0.0296,-0.28591 -0.20605,-0.20704 -0.38844,-0.9859 -0.17845,-1.53997 0.0887,-1.24913 0.29281,-0.50281 0.38746,-0.70984 0.71675,-0.4338 1.02148,-0.30562 1.56551,-0.82816 2.70639,-1.91658 0.97505,-0.62112 0.67041,-0.32534 0.64675,-0.80844 0.89223,-0.87745 1.27575,-0.43379 0.82224,-0.1676 3.85979,-0.6014 0.6497,0.0986 0.65267,0.34506 0.81237,1.16731 0.7207,0.43379 0.83505,0.30563 0.63097,-0.12817 0.0197,-0.47323 -1.98914,-2.72403 -0.18141,-0.73942 -0.069,-0.70985 0.22577,-0.56196 0.6221,-0.53238 0.85674,-0.61126 1.06586,-0.75914 0.67336,-0.52253 0.78971,-0.1676 0.28591,-0.30563 0.0789,-0.44365 -0.0394,-0.47323 -0.35886,-0.54224 0.0789,-0.68027 0.12028,-0.6211196 0.3352,-0.36478 0.73943,-0.97604 0.45647,-0.70984 0.24055,-0.30563 0.35197,-0.53239 0.60435,-0.0986 0.58858,0.16761 0.35197,0.30563 z"
       id="path2472-9" />
  </g>
</svg>
