<svg xmlns:dc="http://purl.org/dc/elements/1.1/" xmlns:cc="http://creativecommons.org/ns#" xmlns:rdf="http://www.w3.org/1999/02/22-rdf-syntax-ns#" xmlns="http://www.w3.org/2000/svg" version="1.0" height="100" width="100"><metadata><rdf:RDF><cc:Work><dc:format>image/svg+xml</dc:format><dc:type rdf:resource="http://purl.org/dc/dcmitype/StillImage"/><dc:title/><dc:date>2021</dc:date><dc:creator><cc:Agent><dc:title>Timothée Giet</dc:title></cc:Agent></dc:creator><cc:license rdf:resource="http://creativecommons.org/licenses/by-sa/4.0/"/></cc:Work><cc:License rdf:about="http://creativecommons.org/licenses/by-sa/4.0/"><cc:permits rdf:resource="http://creativecommons.org/ns#Reproduction"/><cc:permits rdf:resource="http://creativecommons.org/ns#Distribution"/><cc:requires rdf:resource="http://creativecommons.org/ns#Notice"/><cc:requires rdf:resource="http://creativecommons.org/ns#Attribution"/><cc:permits rdf:resource="http://creativecommons.org/ns#DerivativeWorks"/><cc:requires rdf:resource="http://creativecommons.org/ns#ShareAlike"/></cc:License></rdf:RDF></metadata><g style="display:inline"><rect ry="5" y="69.5" x="63.499996" height="25" width="33" style="display:inline;fill:#fff;fill-opacity:1;stroke:gray;stroke-width:2;stroke-linejoin:bevel;stroke-miterlimit:4;stroke-dasharray:none;stroke-opacity:1"/><rect ry="5" y="69.5" x="3.5" height="25" width="25" style="display:inline;fill:#fff;fill-opacity:1;stroke:gray;stroke-width:2;stroke-linejoin:bevel;stroke-miterlimit:4;stroke-dasharray:none;stroke-opacity:1"/><rect ry="5" y="23.5" x="47.5" height="25" width="25" style="display:inline;fill:#fff;fill-opacity:1;stroke:gray;stroke-width:2;stroke-linejoin:bevel;stroke-miterlimit:4;stroke-dasharray:none;stroke-opacity:1"/><path d="m59.165 54.27-4.33-2.5-7.5 12.99-4.33-2.5L42 79l13.995-9.24-4.33-2.5z" style="fill:#ebf1f9;fill-opacity:1;fill-rule:evenodd;stroke:#327cf4;stroke-width:2;stroke-linecap:butt;stroke-linejoin:miter;stroke-miterlimit:4;stroke-dasharray:none;stroke-opacity:1"/><g style="font-style:normal;font-variant:normal;font-weight:400;font-stretch:normal;font-size:16px;line-height:1.25;font-family:'Andika SmLTailCrvTl';-inkscape-font-specification:'Andika SmLTailCrvTl';letter-spacing:0;word-spacing:0;fill:#373737;fill-opacity:1" aria-label="is"><path d="M54.968 31.176c0 .16.016.288.064.416.032.128.096.24.192.336a.893.893 0 0 0 .32.224c.112.064.24.08.4.08a.895.895 0 0 0 .4-.08.893.893 0 0 0 .32-.224c.08-.096.144-.208.208-.336.048-.128.08-.256.08-.416 0-.128-.032-.272-.08-.4a1.713 1.713 0 0 0-.208-.336 1.15 1.15 0 0 0-.32-.224.867.867 0 0 0-.4-.096.78.78 0 0 0-.4.096 1.15 1.15 0 0 0-.32.224.712.712 0 0 0-.192.336 1.105 1.105 0 0 0-.064.4zm1.712 6.8V33.72h-1.568c.032.208.048.448.064.736s.032.592.032.912c0 .336.016.688.016 1.056 0 .368.016.736.016 1.12v4.144h1.6a7.51 7.51 0 0 1-.08-.784c-.016-.32-.032-.656-.032-1.008-.016-.352-.032-.688-.032-1.04-.016-.336-.016-.624-.016-.88z"/><path d="m64.408 35.56.272-1.376a11.863 11.863 0 0 1-.464-.224 12.128 12.128 0 0 0-.576-.192 4.002 4.002 0 0 0-.688-.144 6.218 6.218 0 0 0-.784-.064c-.4 0-.752.048-1.04.128a3.98 3.98 0 0 0-.784.336 2.297 2.297 0 0 0-.56.448c-.16.16-.272.336-.368.512a1.84 1.84 0 0 0-.192.512c-.048.16-.064.304-.064.416 0 .256.032.48.096.704.064.224.176.416.352.608.16.192.4.352.704.512.304.16.688.288 1.168.4.432.112.784.224 1.072.336.272.112.496.224.656.336.16.128.256.24.32.368a.867.867 0 0 1 .096.4.74.74 0 0 1-.128.4c-.08.128-.192.24-.32.336a2.042 2.042 0 0 1-.496.24c-.192.064-.4.08-.624.08-.208 0-.432-.016-.672-.064a3.606 3.606 0 0 1-.704-.224 5.469 5.469 0 0 1-.688-.336 3.315 3.315 0 0 1-.592-.432l-.384 1.408c.144.128.32.24.544.352.208.112.448.208.704.288.256.08.544.144.832.192.288.048.608.064.928.064.416 0 .8-.064 1.168-.192.368-.128.688-.304.96-.528.256-.224.48-.48.64-.784a2.213 2.213 0 0 0 .032-1.936 2.51 2.51 0 0 0-.56-.672 3.38 3.38 0 0 0-.816-.464 6.502 6.502 0 0 0-.992-.304 12.087 12.087 0 0 1-.992-.256c-.256-.08-.448-.16-.576-.256-.128-.096-.224-.192-.256-.288a.843.843 0 0 1-.064-.368c0-.112.016-.224.08-.352a.73.73 0 0 1 .256-.336c.112-.096.272-.176.464-.24s.448-.096.736-.096c.224 0 .464.032.688.08.224.064.432.128.624.192s.368.144.544.24c.16.096.32.176.448.24z"/></g><g style="font-style:normal;font-variant:normal;font-weight:400;font-stretch:normal;font-size:16px;line-height:1.25;font-family:'Andika SmLTailCrvTl';-inkscape-font-specification:'Andika SmLTailCrvTl';letter-spacing:0;word-spacing:0;display:inline;fill:#373737;fill-opacity:1" aria-label="It"><path d="M15.048 76.2h-5.28v1.136h1.888v9.136H9.768v1.136h5.28v-1.136h-1.92v-9.136h1.92z"/><path d="M16.536 79.832v1.136h1.552v4.528c0 .464.048.848.176 1.136.112.288.272.528.464.704.192.176.432.304.704.368.256.064.544.096.864.096.272 0 .576-.032.896-.128a4.05 4.05 0 0 0 1.04-.496v-1.248c-.352.192-.656.352-.944.448a2.377 2.377 0 0 1-.752.144c-.176 0-.32-.016-.448-.08a.615.615 0 0 1-.32-.288 1.626 1.626 0 0 1-.176-.592 8.172 8.172 0 0 1-.048-.992v-3.6h2.528v-1.136h-2.528v-2.544h-1.456v2.544z"/></g><g style="font-style:normal;font-variant:normal;font-weight:400;font-stretch:normal;font-size:16px;line-height:1.25;font-family:'Andika SmLTailCrvTl';-inkscape-font-specification:'Andika SmLTailCrvTl';letter-spacing:0;word-spacing:0;display:inline;fill:#373737;fill-opacity:1" aria-label="fun"><path d="M68.504 79.288v1.136h1.552v6.64h1.68a6.058 6.058 0 0 1-.112-.736 14.398 14.398 0 0 1-.08-.928 21.927 21.927 0 0 1-.032-1.056v-3.92h2.096v-1.136h-2.096v-1.68c0-.656.096-1.136.32-1.424.208-.288.512-.448.928-.448.224 0 .448.048.688.128.24.08.464.192.672.336l.352-1.248a3.86 3.86 0 0 0-.816-.4 2.839 2.839 0 0 0-.896-.144c-.848 0-1.504.304-1.984.88-.48.592-.72 1.472-.72 2.64v1.36z"/><path d="M81.224 87.064h1.328a8.766 8.766 0 0 1-.384-1.52c-.096-.576-.128-1.232-.128-2v-4.448h-1.6c.032.24.064.464.096.656l.048.576c0 .192.016.384.016.576v2.88a4.22 4.22 0 0 1-.448.752 4.562 4.562 0 0 1-.656.704c-.24.224-.496.4-.752.528a1.463 1.463 0 0 1-.72.208c-.256 0-.464-.048-.624-.144a.988.988 0 0 1-.416-.464c-.112-.192-.192-.464-.224-.784a8.021 8.021 0 0 1-.064-1.152v-4.336h-1.6c.032.24.048.464.08.656l.048.576c0 .192.016.4.016.592 0 .208.016.432.016.672v2.304c0 2.24.832 3.36 2.496 3.36.544 0 1.072-.144 1.584-.448.496-.288.976-.736 1.456-1.312.016.16.048.304.08.448.032.16.08.304.112.432a3.6 3.6 0 0 0 .128.384c.032.128.08.224.112.304z"/><path d="M90.04 87.064h1.456v-4.88c0-1.072-.224-1.888-.672-2.432-.448-.544-1.072-.816-1.904-.816-.56 0-1.088.144-1.6.4s-1.008.688-1.488 1.28l-.064-.352c-.032-.128-.048-.272-.08-.416-.032-.144-.048-.288-.08-.416a4.612 4.612 0 0 0-.096-.336h-1.408c.096.272.176.672.272 1.216.08.544.128 1.184.128 1.952v4.8h1.44v-4.528c.08-.256.208-.528.384-.8.16-.256.368-.496.592-.704.224-.208.464-.384.736-.512.272-.128.544-.208.832-.208.256 0 .496.048.688.112a.925.925 0 0 1 .48.384c.128.192.224.432.288.752.064.32.096.72.096 1.2z"/></g></g></svg>