<!--Created with Inkscape (http://www.inkscape.org/)--><svg version="1.1" width="50" height="50" id="svg3930" xmlns="http://www.w3.org/2000/svg" xmlns:rdf="http://www.w3.org/1999/02/22-rdf-syntax-ns#" xmlns:cc="http://creativecommons.org/ns#" xmlns:dc="http://purl.org/dc/elements/1.1/"><metadata id="metadata3935"><rdf:RDF><cc:Work><dc:format>image/svg+xml</dc:format><dc:type rdf:resource="http://purl.org/dc/dcmitype/StillImage"/><dc:date>2012-2024</dc:date><dc:creator><cc:Agent><dc:title>Timothée Giet</dc:title></cc:Agent></dc:creator><cc:license rdf:resource="http://creativecommons.org/licenses/by-sa/4.0/"/></cc:Work><cc:License rdf:about="http://creativecommons.org/licenses/by-sa/4.0/"><cc:permits rdf:resource="http://creativecommons.org/ns#Reproduction"/><cc:permits rdf:resource="http://creativecommons.org/ns#Distribution"/><cc:requires rdf:resource="http://creativecommons.org/ns#Notice"/><cc:requires rdf:resource="http://creativecommons.org/ns#Attribution"/><cc:permits rdf:resource="http://creativecommons.org/ns#DerivativeWorks"/><cc:requires rdf:resource="http://creativecommons.org/ns#ShareAlike"/></cc:License></rdf:RDF></metadata><path d="M25 1C11.745 1 1 11.745 1 25s10.745 24 24 24 24-10.745 24-24S38.255 1 25 1zm0 4c11.046 0 20 8.955 20 20 0 11.046-8.955 20-20 20-11.046 0-20-8.955-20-20C5 13.954 13.955 5 25 5z" id="path3850-7" style="color:#000;display:inline;overflow:visible;visibility:visible;fill:#fff;fill-opacity:1;fill-rule:nonzero;stroke:none;stroke-width:1.125;marker:none;enable-background:accumulate"/><path d="M33 10a5 5 0 1 0 0 10 5 5 0 0 0 0-10zm0 1c.554 0 1 .446 1 1v2h2c.554 0 1 .446 1 1s-.446 1-1 1h-2v2c0 .554-.446 1-1 1s-1-.446-1-1v-2h-2c-.554 0-1-.446-1-1s.446-1 1-1h2v-2c0-.554.446-1 1-1z" id="path3517" style="color:#000;display:inline;overflow:visible;visibility:visible;fill:#fff;fill-opacity:1;fill-rule:nonzero;stroke:none;stroke-width:3;marker:none;enable-background:accumulate"/><path d="M15 12v26h20V21.719A7.072 7.072 0 0 1 33 22a7 7 0 0 1-7-7c0-1.075.254-2.09.688-3z" id="rect4318" style="color:#000;display:inline;overflow:visible;visibility:visible;fill:#fff;fill-opacity:1;fill-rule:nonzero;stroke:none;stroke-width:3;marker:none;enable-background:accumulate"/></svg>