<svg height="100" width="100" version="1.1" id="svg2694" xmlns="http://www.w3.org/2000/svg" xmlns:rdf="http://www.w3.org/1999/02/22-rdf-syntax-ns#" xmlns:cc="http://creativecommons.org/ns#" xmlns:dc="http://purl.org/dc/elements/1.1/"><metadata id="metadata2686"><rdf:RDF><cc:Work><dc:format>image/svg+xml</dc:format><dc:type rdf:resource="http://purl.org/dc/dcmitype/StillImage"/><dc:date>2024</dc:date><dc:creator><cc:Agent><dc:title>Timothée Giet</dc:title></cc:Agent></dc:creator><cc:license rdf:resource="http://creativecommons.org/licenses/by-sa/4.0/"/></cc:Work><cc:License rdf:about="http://creativecommons.org/licenses/by-sa/4.0/"><cc:permits rdf:resource="http://creativecommons.org/ns#Reproduction"/><cc:permits rdf:resource="http://creativecommons.org/ns#Distribution"/><cc:requires rdf:resource="http://creativecommons.org/ns#Notice"/><cc:requires rdf:resource="http://creativecommons.org/ns#Attribution"/><cc:permits rdf:resource="http://creativecommons.org/ns#DerivativeWorks"/><cc:requires rdf:resource="http://creativecommons.org/ns#ShareAlike"/></cc:License></rdf:RDF></metadata><path style="fill:#ab0e0e;fill-opacity:1;stroke:none;stroke-width:4;stroke-linecap:round;stroke-linejoin:miter;stroke-dasharray:none;stroke-opacity:1" d="M49.968 92.803S1.241 62.59 1.241 37.411c0 0-4.873-30.214 29.236-30.214 14.618 0 19.491 11.351 19.491 11.351S54.841 7.197 74.332 7.197c29.236 0 24.363 30.214 24.363 30.214 0 25.178-48.727 55.392-48.727 55.392z" id="path8084-7"/><path style="fill:#f42323;fill-opacity:1;stroke:none;stroke-width:4;stroke-linecap:round;stroke-linejoin:miter;stroke-dasharray:none;stroke-opacity:1" d="M49.97 89.89S3.787 61.606 3.787 38.04c0 0-4.618-28.283 27.71-28.283 13.854 0 18.473 14.141 18.473 14.141s4.618-14.14 23.091-14.14c27.71 0 23.091 28.281 23.091 28.281 0 23.568-46.182 51.85-46.182 51.85z" id="path8084"/></svg>