<!--Created with Inkscape (http://www.inkscape.org/)--><svg width="50" height="50" id="svg5923" version="1.1" xmlns="http://www.w3.org/2000/svg" xmlns:rdf="http://www.w3.org/1999/02/22-rdf-syntax-ns#" xmlns:cc="http://creativecommons.org/ns#" xmlns:dc="http://purl.org/dc/elements/1.1/"><metadata id="metadata5928"><rdf:RDF><cc:Work><dc:format>image/svg+xml</dc:format><dc:type rdf:resource="http://purl.org/dc/dcmitype/StillImage"/><dc:date>2012-2024</dc:date><dc:creator><cc:Agent><dc:title>Timothée Giet</dc:title></cc:Agent></dc:creator><cc:license rdf:resource="http://creativecommons.org/licenses/by-sa/4.0/"/></cc:Work><cc:License rdf:about="http://creativecommons.org/licenses/by-sa/4.0/"><cc:permits rdf:resource="http://creativecommons.org/ns#Reproduction"/><cc:permits rdf:resource="http://creativecommons.org/ns#Distribution"/><cc:requires rdf:resource="http://creativecommons.org/ns#Notice"/><cc:requires rdf:resource="http://creativecommons.org/ns#Attribution"/><cc:permits rdf:resource="http://creativecommons.org/ns#DerivativeWorks"/><cc:requires rdf:resource="http://creativecommons.org/ns#ShareAlike"/></cc:License></rdf:RDF></metadata><path style="color:#000;display:inline;overflow:visible;visibility:visible;fill:#fff;fill-opacity:1;fill-rule:nonzero;stroke:none;stroke-width:1.2;marker:none;enable-background:accumulate" d="M25 1C11.745 1 1 11.745 1 25c0 13.254 10.745 24 24 24s24-10.745 24-24S38.255 1 25 1zm0 4.001c11.046 0 20 8.955 20 20C45 36.047 36.043 45 25 45 13.954 45 5 36.045 5 25 5 13.954 13.956 5.002 25 5.002z" id="path3850-3"/><path id="path1902" style="fill:#fff;fill-opacity:1;stroke-width:1;stroke-linejoin:bevel" d="M25 11.628c-8.748 0-15.84 5.985-15.84 13.373 0 7.386 7.092 13.305 15.84 13.372 11.11.086 7.002-2.674 5.793-5.916-1.913-5.13 10.05 1.095 10.047-7.456-.002-7.387-7.092-13.373-15.84-13.373zm8.348 10.142a2.885 2.466 0 0 1 2.882 2.464 2.885 2.466 0 0 1-2.882 2.466 2.885 2.466 0 0 1-2.885-2.466 2.885 2.466 0 0 1 2.884-2.465z"/><ellipse style="fill:#ccc;fill-opacity:1;stroke:none;stroke-width:1;stroke-linejoin:bevel" id="path2063" cx="24.030834" cy="16.091061" rx="3.9986765" ry="2.3909078"/><ellipse style="display:inline;fill:#b2b2b2;fill-opacity:1;stroke:none;stroke-width:1;stroke-linejoin:bevel" id="path2063-6" cx="16.568382" cy="20.430592" rx="3.9986765" ry="2.3909078"/><ellipse style="display:inline;fill:#999;fill-opacity:1;stroke:none;stroke-width:1;stroke-linejoin:bevel" id="path2063-6-7" cx="15.678535" cy="26.903839" rx="3.9986765" ry="2.3909078"/><ellipse style="display:inline;fill:gray;fill-opacity:1;stroke:none;stroke-width:1;stroke-linejoin:bevel" id="path2063-6-7-5" cx="21.818256" cy="32.212147" rx="3.9986765" ry="2.3909078"/></svg>