<!--Created with Inkscape (http://www.inkscape.org/)--><svg width="50" height="50" id="svg4244" version="1.1" xmlns="http://www.w3.org/2000/svg" xmlns:rdf="http://www.w3.org/1999/02/22-rdf-syntax-ns#" xmlns:cc="http://creativecommons.org/ns#" xmlns:dc="http://purl.org/dc/elements/1.1/"><metadata id="metadata4249"><rdf:RDF><cc:Work><dc:format>image/svg+xml</dc:format><dc:type rdf:resource="http://purl.org/dc/dcmitype/StillImage"/><dc:date>2012-2024</dc:date><dc:creator><cc:Agent><dc:title>Timothée Giet</dc:title></cc:Agent></dc:creator><cc:license rdf:resource="http://creativecommons.org/licenses/by-sa/4.0/"/></cc:Work><cc:License rdf:about="http://creativecommons.org/licenses/by-sa/4.0/"><cc:permits rdf:resource="http://creativecommons.org/ns#Reproduction"/><cc:permits rdf:resource="http://creativecommons.org/ns#Distribution"/><cc:requires rdf:resource="http://creativecommons.org/ns#Notice"/><cc:requires rdf:resource="http://creativecommons.org/ns#Attribution"/><cc:permits rdf:resource="http://creativecommons.org/ns#DerivativeWorks"/><cc:requires rdf:resource="http://creativecommons.org/ns#ShareAlike"/></cc:License></rdf:RDF></metadata><path d="M25 1C11.746 1 1 11.746 1 25c0 13.255 10.746 24 24 24 13.255 0 24-10.745 24-24C49 11.746 38.255 1 25 1zm0 4c11.046 0 20 8.955 20 20 0 11.046-8.954 20-20 20-11.045 0-20-8.954-20-20C5 13.955 13.955 5 25 5z" id="path3850-7-4-8-4-0-55" style="color:#000;display:inline;overflow:visible;visibility:visible;fill:#fff;fill-opacity:1;fill-rule:nonzero;stroke:none;stroke-width:1.8;marker:none;enable-background:accumulate"/><path id="path7077-3-9" d="M34.6 13H15.4v25.2h19.2z" style="fill:none;stroke:#fff;stroke-width:1.2;stroke-opacity:1"/><path id="rect369" style="fill:#fff;fill-opacity:1;stroke:none;stroke-width:1.2;stroke-linecap:round" d="M25 18.25a2.5 2.5 0 0 0-2.5 2.5c.003 1.142 1 3 1 3s1 3 0 3h-2c-2 0-3 1-3 4h13c0-3-1-4-3-4h-2c-1 0 0-3 0-3s.997-1.858 1-3a2.5 2.5 0 0 0-2.5-2.5z"/><rect style="fill:#fff;fill-opacity:.641939;stroke:none;stroke-width:1.2;stroke-linecap:round" id="rect1914" width="11" height="2" x="19.5" y="29.75"/></svg>