<?xml version="1.0" encoding="UTF-8" standalone="no"?>
<!-- Created with Inkscape (http://www.inkscape.org/) -->
<svg
   xmlns:dc="http://purl.org/dc/elements/1.1/"
   xmlns:cc="http://web.resource.org/cc/"
   xmlns:rdf="http://www.w3.org/1999/02/22-rdf-syntax-ns#"
   xmlns:svg="http://www.w3.org/2000/svg"
   xmlns="http://www.w3.org/2000/svg"
   xmlns:sodipodi="http://sodipodi.sourceforge.net/DTD/sodipodi-0.dtd"
   xmlns:inkscape="http://www.inkscape.org/namespaces/inkscape"
   width="100"
   height="100"
   id="svg2"
   sodipodi:version="0.32"
   inkscape:version="0.44.1"
   version="1.0"
   sodipodi:docbase="/home/mat"
   sodipodi:docname="algorithm.svg">
  <defs
     id="defs4" />
  <sodipodi:namedview
     id="base"
     pagecolor="#ffffff"
     bordercolor="#666666"
     borderopacity="1.0"
     inkscape:pageopacity="0.0"
     inkscape:pageshadow="2"
     inkscape:zoom="2.9302689"
     inkscape:cx="-0.97398477"
     inkscape:cy="84.412014"
     inkscape:document-units="px"
     inkscape:current-layer="layer1"
     width="100px"
     height="100px"
     inkscape:window-width="1005"
     inkscape:window-height="903"
     inkscape:window-x="23"
     inkscape:window-y="22" />
  <metadata
     id="metadata7">
    <rdf:RDF>
      <cc:Work
         rdf:about="">
        <dc:format>image/svg+xml</dc:format>
        <dc:type
           rdf:resource="http://purl.org/dc/dcmitype/StillImage" />
      </cc:Work>
    </rdf:RDF>
  </metadata>
  <g
     inkscape:label="Calque 1"
     inkscape:groupmode="layer"
     id="layer1">
    <path
       style="fill:black;fill-opacity:0.26979472;fill-rule:evenodd;stroke:none;stroke-width:1px;stroke-linecap:butt;stroke-linejoin:miter;stroke-opacity:1"
       d="M 49.763964,15.488359 L 38.732714,20.488359 L 35.513964,21.144609 L 32.451464,23.113359 L 30.045214,25.488359 L 29.138964,27.644609 L 25.326464,30.863359 L 25.170214,29.519609 L 24.076464,27.644609 L 22.982714,25.769609 L 19.357714,24.769609 L 17.295214,24.925859 L 17.357714,24.050859 L 18.138964,21.488359 L 19.045214,20.832109 L 20.951464,20.613359 L 21.420214,20.394609 L 20.326464,19.207109 L 19.232714,18.550859 C 19.232714,18.550859 17.511023,19.757726 17.263964,19.925859 C 17.201284,20.060668 16.397145,22.473002 16.326464,22.675859 C 16.300676,22.813863 16.328478,23.931878 16.357714,24.832109 L 14.013964,24.769609 L 10.607714,25.738359 L 9.3889644,27.644609 L 8.7952144,29.394609 L 8.6077144,32.425859 L 9.2014644,34.613359 L 10.482714,37.675859 L 13.482714,39.519609 L 16.638964,40.082109 L 20.045214,39.550859 L 21.607714,38.957109 L 20.295214,41.988359 L 19.388964,52.175859 L 18.107714,50.863359 L 16.732714,50.144609 C 16.732714,50.144609 14.661974,51.515602 14.357714,51.707109 C 14.280522,51.86066 13.257254,54.569798 13.170214,54.800859 C 13.129644,55.001681 13.173804,57.339964 13.232714,58.113359 L 10.826464,58.613359 L 9.8577144,60.644609 L 9.6389644,61.050859 L 8.5452144,63.082109 L 7.7327144,65.800859 L 6.1389644,67.988359 L 5.7639644,70.644609 L 5.5452144,74.019609 L 8.9202144,77.238359 L 14.920214,78.519609 L 21.545214,77.300859 L 24.201464,75.457109 L 25.076464,72.863359 L 24.420214,70.300859 L 23.795214,68.363359 L 21.701464,66.207109 L 21.295214,63.644609 L 19.357714,58.925859 L 17.295214,57.988359 L 14.295214,58.050859 L 14.451464,56.394609 L 15.388964,53.457109 L 16.513964,52.738359 L 18.888964,52.457109 L 19.388964,52.269609 L 18.982714,56.988359 L 24.295214,69.207109 L 32.982714,79.457109 L 36.638964,80.988359 C 36.534684,81.309547 36.732717,81.863361 36.732714,81.863359 C 36.732714,81.863359 36.904518,82.122392 37.295214,82.207109 C 37.607577,82.274841 37.753332,81.791746 37.732714,81.425859 L 44.420214,84.207109 L 55.763964,86.238359 L 69.857714,82.832109 L 75.607714,77.738359 C 75.642616,77.761508 75.732714,77.800859 75.732714,77.800859 C 75.732714,77.800859 76.043268,77.860965 76.388964,77.644609 C 76.588502,77.519729 76.543698,77.261591 76.420214,77.019609 L 80.545214,73.363359 L 81.326464,72.082109 C 81.324995,72.149342 81.326464,72.236622 81.326464,72.300859 C 81.326461,73.160116 81.415513,73.695245 81.545214,73.863359 C 81.80461,74.087513 81.990731,74.226142 82.138964,74.300859 C 81.972203,74.711807 81.805717,75.096089 81.638964,75.488359 C 81.435148,75.992703 81.326462,76.464979 81.326464,76.894609 C 81.326461,77.921976 81.819008,78.721793 82.763964,79.300859 C 83.505098,79.76784 84.350254,80.019602 85.295214,80.019609 C 86.203102,80.019603 87.221659,79.805553 88.388964,79.394609 C 89.16715,79.114412 89.653889,78.881328 89.857714,78.675859 C 90.357971,78.227548 90.779997,77.685958 91.076464,77.050859 C 91.150565,76.808023 91.182923,76.606542 91.201464,76.457109 C 91.627606,75.579173 91.857699,74.943126 91.857714,74.550859 C 91.8577,74.214629 91.844979,74.013149 91.826464,73.957109 C 91.752337,73.788994 91.585849,73.530771 91.326464,73.175859 C 91.08558,72.820951 90.951451,72.619471 90.951464,72.582109 C 90.951452,72.507394 91.015059,72.343624 91.107714,72.082109 C 91.200343,71.8206 91.232702,71.631688 91.232714,71.519609 C 91.269758,71.183382 91.2952,70.912587 91.295214,70.707109 C 91.443429,70.426921 91.801845,70.181268 92.357714,69.957109 C 93.172953,69.639563 93.800737,69.324595 94.263964,68.988359 C 95.727697,67.979675 96.688456,66.69501 97.170214,65.144609 C 97.281366,64.789709 97.351887,64.506341 97.388964,64.300859 C 97.926271,63.086706 98.201444,61.839755 98.201464,60.550859 C 98.201444,59.579541 98.098564,58.66013 97.857714,57.800859 C 97.579767,56.810865 97.22135,55.973336 96.795214,55.300859 C 96.016999,54.124073 94.934835,53.36197 93.545214,52.988359 C 92.952287,52.801586 92.497905,52.631709 92.201464,52.519609 C 91.441783,52.444913 90.493747,52.425882 89.326464,52.425859 C 88.910909,52.425873 88.315879,52.478365 87.670214,52.550859 L 87.982714,49.550859 L 85.888964,40.144609 L 87.545214,40.425859 L 90.951464,39.894609 L 93.326464,38.988359 L 94.763964,37.957109 L 96.045214,35.675859 L 96.357714,32.332109 L 96.045214,29.863359 L 94.982714,27.988359 L 93.888964,26.113359 L 90.263964,25.113359 L 88.201464,25.269609 L 88.263964,24.394609 L 89.013964,21.832109 L 89.951464,21.207109 L 91.857714,20.957109 L 92.295214,20.769609 L 91.201464,19.550859 L 90.107714,18.894609 C 90.107714,18.894609 88.417273,20.132726 88.170214,20.300859 C 88.107534,20.435668 87.303393,22.816752 87.232714,23.019609 C 87.206926,23.157613 87.234727,24.275629 87.263964,25.175859 L 84.920214,25.113359 L 81.513964,26.082109 L 80.295214,27.988359 L 80.107714,28.582109 L 79.201464,27.082109 L 70.388964,20.769609 L 70.201464,20.363359 L 69.388964,20.050859 L 65.857714,17.519609 L 49.763964,15.488359 z M 14.013964,58.488359 L 14.076464,58.488359 L 14.076464,58.519609 L 14.013964,58.519609 L 14.013964,58.488359 z "
       id="path15913" />
    <path
       style="fill:black;fill-opacity:1;fill-rule:evenodd;stroke:none;stroke-width:1px;stroke-linecap:butt;stroke-linejoin:miter;stroke-opacity:1"
       d="M 47.81824,12.066881 L 34.385166,18.168033 L 23.037973,27.743455 L 18.365599,38.58995 L 17.030635,53.588619 L 22.370491,65.790925 L 31.047756,76.044252 L 42.478384,80.789594 L 53.825578,82.823311 L 67.926134,79.433782 L 78.605845,69.943099 L 84.613182,60.367678 L 86.03158,46.131653 L 83.278219,33.844609 L 77.270881,23.67602 L 63.921242,14.100598 L 47.81824,12.066881 z "
       id="path30383"
       sodipodi:nodetypes="ccccccccccccccccc" />
    <path
       style="fill:white;fill-opacity:1;fill-rule:evenodd;stroke:none;stroke-width:1px;stroke-linecap:butt;stroke-linejoin:miter;stroke-opacity:1"
       d="M 48.441569,15.404988 L 36.458361,20.908495 L 26.335898,29.545947 L 22.167826,39.329963 L 20.976948,52.859421 L 25.74046,63.866438 L 33.481166,73.11539 L 43.678057,77.395897 L 53.800519,79.230399 L 66.379166,76.172895 L 75.906192,67.611882 L 81.26514,58.974431 L 82.530449,46.132911 L 80.074266,35.049456 L 74.715309,25.876942 L 62.806533,17.23949 L 48.441569,15.404988 z "
       id="path30605"
       sodipodi:nodetypes="ccccccccccccccccc" />
    <g
       id="g14586"
       transform="matrix(0.755979,0,0,0.722516,53.99746,-1.142415)">
      <path
         sodipodi:nodetypes="ccccccccccccccccc"
         id="path7355"
         d="M -22.852446,44.272104 L -25.124327,47.345825 L -29.267168,45.341225 L -30.603569,43.871184 L -28.198048,38.792863 L -23.253367,34.115461 L -17.373205,31.175381 L -14.700404,32.244501 L -13.364004,36.921902 L -15.368604,38.792863 L -11.760323,43.871184 L -7.216562,44.673025 L -10.557563,49.751347 L -12.963083,51.889586 L -17.105924,52.424147 L -19.511445,46.410345 L -22.852446,44.272104 z "
         style="fill:#fc0;fill-opacity:1;fill-rule:evenodd;stroke:none;stroke-width:1px;stroke-linecap:butt;stroke-linejoin:miter;stroke-opacity:1" />
      <path
         sodipodi:nodetypes="ccscccccccccccccccc"
         id="path6468"
         d="M -28.999888,49.617706 L -34.61277,45.742145 C -34.61277,45.742145 -35.28097,39.461063 -35.01369,38.926503 C -34.74641,38.391943 -32.741809,32.645421 -32.741809,32.645421 L -27.262568,28.36894 L -20.981486,26.097059 L -14.967684,26.765259 L -10.958483,32.511781 L -11.493043,34.917302 L -14.834044,38.258303 L -13.898564,34.783662 L -14.834044,32.244501 L -17.640485,31.309021 L -22.317886,34.115461 L -26.861648,37.857382 L -29.668088,42.133864 L -29.935368,44.940304 L -25.658887,47.078545 L -28.999888,49.617706 z "
         style="fill:red;fill-opacity:1;fill-rule:evenodd;stroke:none;stroke-width:1px;stroke-linecap:butt;stroke-linejoin:miter;stroke-opacity:1" />
      <path
         sodipodi:nodetypes="cccccscccccccccccccccccccccccccccccccccccccccsccccccccccccccccccccccccccccccccccccccc"
         id="path2022"
         d="M -20.69081,24.77463 L -27.02923,26.13033 L -31.06379,28.86305 L -34.24265,32.15625 L -36.01526,36.53125 C -36.01526,36.53125 -36.582619,40.632908 -36.75662,41.33511 C -36.930621,42.037313 -35.747979,45.713421 -35.74798,45.71342 L -33.9375,47.59375 L -31.82114,49.98934 L -28.32978,50.67684 L -24.95147,47.99798 L -22.84375,45.5 L -20.62629,47.78731 L -18.79651,50.195578 L -18.66618,53.68621 L -15.7739,53.625729 L -10.325741,52.165619 L -6.8603008,47.580509 L -6.2652604,43.151649 L -11.03254,41.742089 L -13.17684,40.2886 L -14.4375,38.84375 L -12.26066,37.70478 L -10.43088,36.05717 L -10.10974,33.48272 L -10.77794,30.21544 L -12.52794,26.37169 L -15.875,25.04191 L -20.69081,24.77463 z M -20.46875,27.5625 L -17.15625,27.5625 L -14.96875,28.5 L -11.87702,32.82243 L -13.67353,34.85901 L -13.89761,32.10901 L -17.438226,31.29756 L -20.73377,32.484496 L -24.811855,35.327923 L -29.9375,40.125 L -31.8125,43.875 L -31.21875,45.9375 L -29.28125,46.9375 L -27.74669,47.0625 L -28.89761,48.42684 L -32.6682,45.85772 C -32.668199,45.857722 -33.865807,41.736895 -33.7307,41.12169 C -33.595593,40.506486 -33.46673,37.34375 -33.46673,37.34375 L -31.83309,33.49669 L -27.8125,30.1443 L -24.15625,28.3125 L -20.46875,27.5625 z M -18.95373,33.469314 L -15.09375,33.1875 L -14.84908,35.85441 L -16.4375,37.5625 L -16.65625,36.71875 L -16.09375,36.46875 L -15.78125,34.125 L -18.125,34.46875 L -21.96875,37.1875 L -26,40.25 L -28.1875,43.6875 L -26.1875,44.40625 L -25.8125,43.28125 L -24.5,43.625 L -26.77794,45.80919 L -29.28125,44.125 L -27.40625,40.125 L -24.937339,37.671915 L -18.95373,33.469314 z M -18.4375,37.46875 L -16.5625,40 L -14.55055,42.35037 L -11.74007,44.51195 L -8.3637794,45.371689 L -11.538431,49.702761 L -14.529792,50.643009 L -16.46673,50.966169 L -17.97537,48.04393 L -19.1875,45.625 L -22.625,42.8125 L -25.34375,42.125 L -23,40.0625 L -19.46875,37.90625 L -18.4375,37.46875 z "
         style="fill:black;fill-opacity:1;fill-rule:evenodd;stroke:none;stroke-width:1px;stroke-linecap:butt;stroke-linejoin:miter;stroke-opacity:1" />
      <g
         transform="matrix(0.774194,0,0,0.758065,36.85606,-8.038113)"
         id="g10901">
        <path
           style="fill:black;fill-opacity:1;fill-rule:evenodd;stroke:none;stroke-width:1px;stroke-linecap:butt;stroke-linejoin:miter;stroke-opacity:1"
           d="M -89.368319,58.838868 L -87.939753,56.700628 L -85.225478,55.230587 L -83.511199,55.631507 L -82.082632,57.101548 L -81.654063,59.507069 L -82.22549,61.912589 L -84.654051,63.38263 L -86.368331,63.51627 L -88.51118,62.98171 L -89.511176,61.912589 L -89.939745,59.640709 L -89.368319,58.838868 z "
           id="path10012" />
        <path
           style="fill:white;fill-opacity:1;fill-rule:evenodd;stroke:none;stroke-width:1px;stroke-linecap:butt;stroke-linejoin:miter;stroke-opacity:1"
           d="M -87.958187,59.196679 L -87.01349,57.95512 L -85.218566,57.101548 L -84.08493,57.33434 L -83.140233,58.187913 L -82.856824,59.584667 L -83.234703,60.98142 L -84.840687,61.834993 L -85.974324,61.91259 L -87.391369,61.602201 L -88.052657,60.98142 L -88.336065,59.662264 L -87.958187,59.196679 z "
           id="path10899" />
      </g>
      <path
         id="path10913"
         d="M -24.270554,31.255087 L -23.73709,30.411752 L -22.723507,29.831959 L -22.08335,29.990085 L -21.549885,30.569877 L -21.389846,31.518629 L -21.603231,32.467381 L -22.510121,33.047173 L -23.150279,33.099882 L -23.950475,32.889049 L -24.3239,32.467381 L -24.48394,31.571338 L -24.270554,31.255087 z "
         style="fill:black;fill-opacity:1;fill-rule:evenodd;stroke:none;stroke-width:1px;stroke-linecap:butt;stroke-linejoin:miter;stroke-opacity:1" />
      <path
         id="path10915"
         d="M -23.34697,31.358328 L -23.127407,31.034509 L -22.710238,30.811882 L -22.446763,30.872599 L -22.2272,31.095225 L -22.161332,31.459522 L -22.249157,31.823819 L -22.622413,32.046445 L -22.885888,32.066684 L -23.215232,31.985729 L -23.368926,31.823819 L -23.434795,31.479761 L -23.34697,31.358328 z "
         style="fill:white;fill-opacity:1;fill-rule:evenodd;stroke:none;stroke-width:1px;stroke-linecap:butt;stroke-linejoin:miter;stroke-opacity:1" />
      <path
         id="path10919"
         d="M -33.160676,47.168275 L -33.744696,46.359129 L -33.905337,45.202537 L -33.520194,44.667308 L -32.783445,44.388123 L -31.843334,44.592903 L -31.042284,45.144249 L -30.841913,46.201821 L -31.031385,46.815564 L -31.525041,47.479694 L -32.055442,47.669234 L -32.946635,47.484083 L -33.160676,47.168275 z "
         style="fill:black;fill-opacity:1;fill-rule:evenodd;stroke:none;stroke-width:1px;stroke-linecap:butt;stroke-linejoin:miter;stroke-opacity:1" />
      <path
         id="path10921"
         d="M -32.720925,46.349566 L -32.939689,46.025207 L -32.990953,45.555138 L -32.836487,45.333224 L -32.54811,45.212358 L -32.185486,45.286889 L -31.880096,45.504059 L -31.812481,45.933373 L -31.891813,46.185434 L -32.089591,46.460943 L -32.29709,46.543288 L -32.640931,46.476295 L -32.720925,46.349566 z "
         style="fill:white;fill-opacity:1;fill-rule:evenodd;stroke:none;stroke-width:1px;stroke-linecap:butt;stroke-linejoin:miter;stroke-opacity:1" />
      <path
         id="path10925"
         d="M -15.311784,37.768974 L -14.327894,34.940291 L -15.680743,32.234595 L -17.894494,31.988622 L -23.367381,34.50984 L -26.626516,38.506892 C -26.626516,38.506892 -29.639678,42.257971 -29.824157,42.995889 C -30.008637,43.733806 -28.471309,46.439503 -28.471309,46.439503 L -25.704119,47.423392 L -24.166792,45.086654 L -21.153629,45.455613 L -19.062864,48.530268 L -17.771508,51.973882 L -16.41866,52.035376 L -16.664632,49.391172 L -17.710015,46.500996 L -19.247343,44.225751 L -20.16974,41.766026 L -19.431822,39.552275 L -16.910605,38.014947 L -15.311784,37.768974 z "
         style="fill:black;fill-opacity:0.12903227;fill-rule:evenodd;stroke:none;stroke-width:1px;stroke-linecap:butt;stroke-linejoin:miter;stroke-opacity:1" />
      <path
         sodipodi:nodetypes="ccccccc"
         id="path10927"
         d="M -21.830053,27.807091 L -16.603139,27.868584 L -14.881332,28.483515 L -12.360115,32.296088 L -16.357167,28.913967 L -20.138993,28.852474 L -21.830053,27.807091 z "
         style="fill:white;fill-opacity:0.48093842;fill-rule:evenodd;stroke:none;stroke-width:1px;stroke-linecap:butt;stroke-linejoin:miter;stroke-opacity:1" />
      <path
         id="path10929"
         d="M -31.054839,35.684654 L -31.868891,36.847755 L -31.07732,38.796512 L -29.365206,39.643695 L -27.662558,39.278081 L -26.641442,37.87952 L -27.985576,38.239218 L -29.343908,38.377654 L -30.338993,37.518639 L -30.701057,36.670273 L -31.054839,35.684654 z "
         style="fill:black;fill-opacity:0.30791788;fill-rule:evenodd;stroke:none;stroke-width:1px;stroke-linecap:butt;stroke-linejoin:miter;stroke-opacity:1" />
      <path
         id="path10931"
         d="M -29.885651,31.804143 L -31.115513,34.694319 L -32.960306,37.338523 L -30.992527,39.367795 L -29.332213,39.736754 C -29.332213,39.736754 -28.040857,40.782137 -28.471309,40.905123 C -28.901761,41.028109 -30.439089,43.42634 -30.439089,43.42634 L -26.50353,46.992941 C -26.50353,46.992941 -28.10235,49.329679 -28.409816,49.391172 C -28.717282,49.452665 -34.005689,46.19353 -34.005689,46.19353 L -35.051072,40.105713 C -35.051072,40.105713 -33.513744,34.448347 -33.144785,34.140881 C -32.775827,33.833416 -30.746554,31.066226 -30.746554,31.066226 L -29.885651,31.804143 z "
         style="fill:black;fill-opacity:0.23167156;fill-rule:evenodd;stroke:none;stroke-width:1px;stroke-linecap:butt;stroke-linejoin:miter;stroke-opacity:1" />
    </g>
    <path
       d="M 34.778455,78.444609 C 34.778455,78.444609 34.517992,77.682154 34.778455,77.427998 C 35.038912,77.173843 35.624959,77.427998 35.755188,77.766871 C 35.88542,78.105743 35.755188,78.868198 35.364492,78.783481 C 34.9738,78.698765 34.778455,78.444609 34.778455,78.444609 z "
       style="fill:white;fill-opacity:1;fill-rule:evenodd;stroke:white;stroke-width:0.03648241pt;stroke-linecap:butt;stroke-linejoin:miter;stroke-opacity:1"
       id="path23372" />
    <g
       id="g14573"
       transform="matrix(0.490597,0,0,0.536521,84.87027,44.58984)">
      <path
         id="path11838"
         d="M -107.65919,35.820396 L -110.89291,36.561457 L -113.04872,38.784641 L -114.194,41.883625 L -114.26137,45.184716 L -113.52031,48.890023 L -111.02765,50.84373 L -105.84022,52.730068 L -100.45068,51.247945 C -100.45068,51.247945 -97.284328,49.428976 -97.14959,48.957392 C -97.014851,48.485807 -95.936944,44.308916 -95.936944,43.837332 C -95.936944,43.365747 -96.071682,40.805717 -96.678005,40.266764 C -97.284328,39.72781 -99.574881,37.976211 -99.574881,37.976211 L -103.21282,37.437257 L -105.16653,37.033042 L -107.65919,35.820396 z "
         style="fill:red;fill-opacity:1;fill-rule:evenodd;stroke:none;stroke-width:1px;stroke-linecap:butt;stroke-linejoin:miter;stroke-opacity:1" />
      <path
         sodipodi:nodetypes="ccccccccccccccccccccccccccccccccccc"
         id="path10951"
         d="M -104.38846,35.00817 L -108.58907,33.902746 L -113.23185,36.997934 L -115.4427,40.977462 L -116.10596,45.178075 L -115.4427,49.157602 L -112.12643,52.031706 L -108.81016,53.5793 L -105.2728,53.5793 L -99.082421,53.358215 L -96.871573,50.705196 L -93.997469,45.399159 L -94.439639,40.314207 L -98.144884,37.54178 L -102.61978,35.671425 L -105.75465,38.52644 L -108.73272,41.079138 L -107.72897,45.205567 L -105.25832,44.882806 L -106.18463,42.331463 L -102.61978,38.766613 L -98.861336,39.872037 L -96.345459,42.949493 L -97.313742,46.283499 L -99.745676,50.041942 L -104.16737,50.926281 L -108.81016,50.705196 L -112.78968,48.273263 L -113.23185,44.735905 L -113.01077,41.198547 L -111.3615,38.527796 L -108.36799,36.997934 L -105.68439,38.411554 L -102.65963,35.749231 L -104.38846,35.00817 z "
         style="fill:black;fill-opacity:1;fill-rule:evenodd;stroke:none;stroke-width:1px;stroke-linecap:butt;stroke-linejoin:miter;stroke-opacity:1" />
      <path
         sodipodi:nodetypes="ccccccccccc"
         id="path12725"
         d="M -104.65524,37.142306 C -104.79968,37.014138 -104.90549,29.975905 -104.81662,29.476733 C -104.65503,28.989958 -102.78128,23.264312 -102.63798,22.940824 C -102.07315,22.537372 -98.200019,19.632524 -98.200019,19.632524 L -95.698622,21.165638 L -93.197224,24.070487 L -94.246197,24.554628 L -98.60347,25.11946 L -100.70142,26.652575 L -102.4766,32.785033 L -102.79936,37.222996"
         style="fill:black;fill-opacity:1;fill-rule:evenodd;stroke:none;stroke-width:1px;stroke-linecap:butt;stroke-linejoin:miter;stroke-opacity:1" />
      <path
         id="path13612"
         d="M -101.48237,39.358971 L -100.56461,39.366834 L -99.470365,39.925569 L -99.112302,40.55729 L -99.098492,41.321988 L -99.586503,41.963451 L -100.34197,42.285465 L -101.35979,41.818001 L -101.85178,41.298405 L -102.29098,40.501746 L -102.29061,39.958049 L -101.83608,39.344615 L -101.48237,39.358971 z "
         style="fill:white;fill-opacity:1;fill-rule:evenodd;stroke:none;stroke-width:1px;stroke-linecap:butt;stroke-linejoin:miter;stroke-opacity:1" />
      <path
         id="path13623"
         d="M -92.962669,38.778022 L -94.917176,41.458699 L -95.085841,44.550887 L -93.917268,47.64116 L -91.80256,50.176854 L -88.812518,52.487289 L -85.649527,52.326634 L -80.496854,50.347332 L -77.401392,45.693099 C -77.401392,45.693099 -76.204852,42.243066 -76.412524,41.798748 C -76.620195,41.354429 -78.546735,37.494801 -78.8561,37.138873 C -79.165465,36.782944 -80.946569,34.939151 -81.757751,34.930132 C -82.568934,34.921111 -85.446799,35.101722 -85.446799,35.101722 L -88.546093,37.081478 L -90.285823,38.058052 L -92.962669,38.778022 z "
         style="fill:red;fill-opacity:1;fill-rule:evenodd;stroke:none;stroke-width:1px;stroke-linecap:butt;stroke-linejoin:miter;stroke-opacity:1" />
      <path
         id="path13625"
         style="fill:white;fill-opacity:1;fill-rule:evenodd;stroke:white;stroke-width:0.07110953pt;stroke-linecap:butt;stroke-linejoin:miter;stroke-opacity:1"
         d="M -70.873741,55.723398 C -70.873741,55.723398 -72.206711,54.999099 -72.116766,54.293283 C -72.026821,53.587467 -70.814475,53.161361 -70.199775,53.463923 C -69.585083,53.766493 -68.853166,55.013214 -69.557811,55.416467 C -70.262456,55.81972 -70.873741,55.723398 -70.873741,55.723398 z " />
      <path
         sodipodi:nodetypes="ccccccccccccccccccccccccccccccccccc"
         id="path13627"
         d="M -91.026916,36.019357 L -94.9225,37.940691 L -96.39616,43.322506 L -95.45418,47.776397 L -93.199119,51.381913 L -90.08791,53.950358 L -85.699506,53.944073 L -82.181309,52.936605 L -79.511488,50.616055 L -74.984335,46.38823 L -75.05611,42.935521 L -76.367704,37.045343 L -80.037221,33.497544 L -84.6525,33.83574 L -89.256903,35.359674 L -89.75002,39.571008 L -90.323119,43.451307 L -86.858554,45.907259 L -85.205563,44.042878 L -87.578409,42.724923 L -87.226422,37.695768 L -83.664566,36.064503 L -79.74686,36.736767 L -78.290523,39.888313 L -77.660442,44.320376 L -80.417581,47.888518 L -84.066755,50.767375 L -88.665681,51.542491 L -91.319959,49.162739 L -93.473644,46.347884 L -93.980901,43.250193 L -92.725156,40.13175 L -89.772363,39.438211 L -89.23594,35.444543 L -91.026916,36.019357 z "
         style="fill:black;fill-opacity:1;fill-rule:evenodd;stroke:none;stroke-width:1px;stroke-linecap:butt;stroke-linejoin:miter;stroke-opacity:1" />
      <path
         sodipodi:nodetypes="ccccccccccc"
         id="path13629"
         d="M -89.82825,37.805107 C -90.021347,37.803128 -94.718371,32.560433 -94.97876,32.125384 C -95.176133,31.651988 -97.518014,26.101356 -97.622068,25.763195 C -97.460431,25.088153 -96.4428,20.354898 -96.4428,20.354898 L -93.54913,19.87107 L -89.755584,20.422557 L -90.229694,21.476102 L -93.147809,24.760832 L -93.725493,27.294229 L -91.042347,33.087244 L -88.374594,36.648531"
         style="fill:black;fill-opacity:1;fill-rule:evenodd;stroke:none;stroke-width:1px;stroke-linecap:butt;stroke-linejoin:miter;stroke-opacity:1" />
      <path
         id="path13631"
         d="M -81.634352,36.553279 L -80.716623,36.564242 L -79.624277,37.12667 L -79.26835,37.759597 L -79.257123,38.524337 L -79.747299,39.164148 L -80.503849,39.483608 L -81.520085,39.012708 L -82.01031,38.491453 L -82.446826,37.693315 L -82.444613,37.149623 L -81.988014,36.537728 L -81.634352,36.553279 z "
         style="fill:white;fill-opacity:1;fill-rule:evenodd;stroke:none;stroke-width:1px;stroke-linecap:butt;stroke-linejoin:miter;stroke-opacity:1" />
      <path
         sodipodi:nodetypes="ccccccccccccc"
         id="path13643"
         d="M -101.02165,39.19934 L -99.042373,39.792497 L -97.344438,41.764263 L -96.445267,42.836949 L -97.765232,44.355445 L -99.146367,44.991943 L -100.86298,44.908092 L -102.60959,43.358982 L -103.26942,42.142302 L -103.64942,40.525858 L -103.30717,39.659822 L -102.58898,38.824694 L -101.02165,39.19934 z "
         style="fill:white;fill-opacity:0.34310853;fill-rule:evenodd;stroke:none;stroke-width:1px;stroke-linecap:butt;stroke-linejoin:miter;stroke-opacity:1" />
      <path
         sodipodi:nodetypes="ccccccccccccc"
         id="path14530"
         d="M -82.214287,36.288759 L -79.873622,36.737361 L -78.68163,38.998237 L -78.143847,40.287756 L -79.463812,41.806252 L -80.844947,42.44275 L -82.56156,42.358899 L -84.30817,40.809789 L -84.968,39.593109 L -85.348,37.976665 L -85.00575,37.110629 L -83.781617,36.058668 L -82.214287,36.288759 z "
         style="fill:white;fill-opacity:0.34310853;fill-rule:evenodd;stroke:none;stroke-width:1px;stroke-linecap:butt;stroke-linejoin:miter;stroke-opacity:1" />
    </g>
    <g
       id="g14602"
       transform="matrix(0.437402,0,0,0.416736,77.03842,2.005012)">
      <path
         sodipodi:nodetypes="cccccccccssscccc"
         id="path14532"
         d="M -153.17782,50.295514 L -157.81528,54.029531 L -159.47351,59.686628 L -158.76457,66.205554 L -156.13749,72.302597 L -151.86239,78.546053 L -146.1946,80.293392 L -136.20618,79.936972 L -127.06485,75.686578 C -127.06485,75.686578 -124.07715,64.529549 -124.24926,63.566601 C -124.42136,62.603646 -127.10347,57.231839 -127.4944,56.367907 C -127.88532,55.503973 -130.22633,50.913067 -131.6578,50.37129 C -133.08928,49.82951 -138.26129,48.303903 -138.26129,48.303903 L -144.61632,49.990011 L -148.12434,50.685243 L -153.17782,50.295514 z "
         style="fill:#71c837;fill-opacity:1;fill-rule:evenodd;stroke:none;stroke-width:1px;stroke-linecap:butt;stroke-linejoin:miter;stroke-opacity:1" />
      <path
         sodipodi:nodetypes="ccccccccccccccccccccccccccccccccccccccc"
         id="path14534"
         d="M -148.53925,46.403927 L -156.27767,48.759374 L -159.08826,53.300487 L -160.44354,57.518199 L -160.89691,64.816327 L -159.53272,70.039659 L -156.6273,77.370886 L -149.74659,81.863101 L -142.52803,83.15286 L -134.7042,81.890433 L -129.32211,79.730549 L -126.00396,77.253433 L -123.04452,71.747135 L -122.37597,63.7202 L -123.04986,57.803854 L -125.51654,53.308559 L -127.98322,48.813264 L -136.29902,46.457158 L -141.55958,46.804327 L -144.7692,54.015018 L -147.81308,56.514137 L -142.60056,61.072228 L -142.57474,58.341897 L -141.34309,55.803919 L -140.93419,51.342748 L -135.53089,51.252651 L -129.54063,53.101206 L -126.08563,62.022727 L -126.11111,71.988908 L -132.88253,77.343526 L -141.2528,79.541908 L -151.83388,76.879236 L -156.29284,70.723809 L -157.41083,64.080968 L -156.94627,57.976182 L -153.83792,51.518321 L -143.29503,50.518911 L -141.3981,46.652749 L -148.53925,46.403927 z "
         style="fill:black;fill-opacity:1;fill-rule:evenodd;stroke:none;stroke-width:1px;stroke-linecap:butt;stroke-linejoin:miter;stroke-opacity:1" />
      <path
         sodipodi:nodetypes="ccccccccccc"
         id="path14540"
         d="M -143.07736,49.047099 C -143.2218,48.918931 -143.32761,41.880698 -143.23874,41.381526 C -143.07715,40.894751 -141.2034,35.169105 -141.0601,34.845617 C -140.49527,34.442165 -136.62214,31.537317 -136.62214,31.537317 L -134.12074,33.070431 L -131.61934,35.97528 L -132.66832,36.459421 L -137.02559,37.024253 L -139.12354,38.557368 L -140.89872,44.689826 L -141.22148,49.127789"
         style="fill:black;fill-opacity:1;fill-rule:evenodd;stroke:none;stroke-width:1px;stroke-linecap:butt;stroke-linejoin:miter;stroke-opacity:1" />
      <path
         sodipodi:nodetypes="ccccccccccccc"
         id="path14542"
         d="M -135.8406,51.755083 L -133.1514,51.678355 L -130.36594,53.236569 L -128.88151,54.093387 L -130.04882,56.269414 L -131.58176,57.489036 L -133.77324,58.033589 L -136.48182,56.962661 L -137.71161,55.857084 L -138.71939,54.203777 L -138.57121,53.115236 L -137.939,51.921364 L -135.8406,51.755083 z "
         style="fill:white;fill-opacity:0.34310853;fill-rule:evenodd;stroke:none;stroke-width:1px;stroke-linecap:butt;stroke-linejoin:miter;stroke-opacity:1" />
      <path
         sodipodi:nodetypes="ccccccccccccc"
         id="path14544"
         d="M -133.9815,51.887211 L -132.3132,52.27819 L -130.88205,53.577881 L -130.12415,54.284942 L -131.23672,55.285859 L -132.40086,55.705406 L -133.84776,55.650136 L -135.31995,54.62904 L -135.8761,53.827065 L -136.1964,52.761586 L -135.90792,52.190738 L -135.30257,51.640263 L -133.9815,51.887211 z "
         style="fill:white;fill-opacity:1;fill-rule:evenodd;stroke:none;stroke-width:1px;stroke-linecap:butt;stroke-linejoin:miter;stroke-opacity:1" />
    </g>
    <g
       id="g14563"
       transform="matrix(0.538675,0,0,0.474671,1.475779,80.59335)">
      <path
         sodipodi:nodetypes="cccccccssscccc"
         id="path14546"
         d="M 10.028282,-44.905697 L 9.0639519,-40.942117 L 5.2320519,-30.589227 L 4.5713919,-21.590927 L 10.698312,-15.022607 L 21.031092,-12.968537 L 38.092602,-20.088567 C 38.092602,-20.088567 36.029752,-31.704737 35.857642,-32.667687 C 35.685542,-33.630637 32.429512,-37.969377 32.038582,-38.833307 C 31.647662,-39.697237 30.110142,-50.601337 28.678672,-51.143117 C 27.247192,-51.684897 23.108252,-54.587917 23.108252,-54.587917 L 16.753222,-52.901817 L 13.245202,-52.206577 L 10.028282,-44.905697 z "
         style="fill:#aad400;fill-opacity:1;fill-rule:evenodd;stroke:none;stroke-width:1px;stroke-linecap:butt;stroke-linejoin:miter;stroke-opacity:1" />
      <path
         sodipodi:nodetypes="ccccccccccccccccccccccccccccccccccccccccc"
         id="path14548"
         d="M 13.748572,-53.503487 L 11.978982,-49.196687 L 9.5127519,-44.081647 L 8.0426819,-38.371727 L 5.0640419,-33.713657 L 4.3620919,-28.145977 L 3.9387519,-21.044317 L 10.245532,-14.256397 L 21.366792,-11.589217 L 33.667242,-14.114277 L 38.590192,-17.995947 L 40.186562,-23.457467 L 39.013732,-28.848977 L 37.845712,-32.973227 L 33.957842,-37.512147 L 33.212942,-42.925727 L 29.598412,-52.815917 L 25.759242,-54.827677 L 19.580392,-54.710077 L 19.976212,-51.549077 L 25.838652,-51.639177 L 28.959282,-45.428777 L 31.036862,-35.588977 L 33.147652,-33.245947 L 35.258432,-30.902917 L 36.177162,-26.159467 L 37.095902,-21.416027 L 29.811572,-16.815887 L 21.149812,-15.200167 L 12.300932,-16.416717 L 6.2068919,-21.995107 L 6.6174719,-26.622427 L 7.0280519,-31.249737 L 8.8221519,-33.308517 L 10.616252,-35.367297 L 11.766812,-40.198857 L 12.917372,-45.030417 L 15.910942,-50.799587 L 19.911072,-51.569417 L 19.741872,-54.861657 L 13.748572,-53.503487 z "
         style="fill:black;fill-opacity:1;fill-rule:evenodd;stroke:none;stroke-width:1px;stroke-linecap:butt;stroke-linejoin:miter;stroke-opacity:1" />
      <path
         sodipodi:nodetypes="ccccccccccc"
         id="path14550"
         d="M 18.292182,-53.844727 C 18.147742,-53.972897 18.041932,-61.011127 18.130802,-61.510297 C 18.292392,-61.997077 20.166142,-67.722717 20.309442,-68.046207 C 20.874272,-68.449657 24.747402,-71.354506 24.747402,-71.354506 L 27.248802,-69.821397 L 29.750202,-66.916547 L 28.701222,-66.432407 L 24.343952,-65.867567 L 22.246002,-64.334457 L 20.470822,-58.201997 L 20.148062,-53.764037"
         style="fill:black;fill-opacity:1;fill-rule:evenodd;stroke:none;stroke-width:1px;stroke-linecap:butt;stroke-linejoin:miter;stroke-opacity:1" />
      <path
         sodipodi:nodetypes="cccccccccccc"
         id="path14552"
         d="M 26.526662,-49.710377 L 27.426832,-47.954267 L 28.716412,-45.331657 L 29.369642,-42.867377 L 27.226622,-44.708137 L 23.707082,-44.534277 L 21.318982,-46.646717 L 21.251202,-48.299017 L 20.123482,-49.945437 L 17.906772,-51.058847 L 25.630712,-51.325517 L 26.526662,-49.710377 z "
         style="fill:white;fill-opacity:0.34310853;fill-rule:evenodd;stroke:none;stroke-width:1px;stroke-linecap:butt;stroke-linejoin:miter;stroke-opacity:1" />
      <path
         sodipodi:nodetypes="ccccccccccccc"
         id="path14554"
         d="M 25.308342,-51.574527 L 26.297712,-49.975747 L 26.995202,-48.565287 L 26.532792,-47.850407 L 25.225102,-47.647807 L 24.145262,-47.821327 L 23.068182,-48.391127 L 22.415672,-49.563397 L 22.360452,-50.261837 L 22.606032,-51.034747 L 23.088172,-51.278457 L 23.700252,-51.721547 L 25.308342,-51.574527 z "
         style="fill:white;fill-opacity:1;fill-rule:evenodd;stroke:none;stroke-width:1px;stroke-linecap:butt;stroke-linejoin:miter;stroke-opacity:1" />
      <path
         sodipodi:nodetypes="ccccccccccccc"
         id="path14558"
         d="M 32.098972,-34.318017 L 33.343502,-32.791477 L 35.092222,-31.201937 L 35.975022,-25.753247 L 34.176352,-28.167927 L 29.937132,-27.380027 L 28.016752,-28.567987 L 26.891292,-31.254357 L 25.905232,-32.217947 L 21.563522,-35.356577 L 27.381782,-35.092557 L 31.203022,-35.933157 L 32.098972,-34.318017 z "
         style="fill:white;fill-opacity:0.34310853;fill-rule:evenodd;stroke:none;stroke-width:1px;stroke-linecap:butt;stroke-linejoin:miter;stroke-opacity:1" />
      <path
         sodipodi:nodetypes="ccccccccccccc"
         id="path14556"
         d="M 31.280042,-34.450807 L 32.872472,-33.213247 L 33.619592,-32.148077 L 32.424102,-31.041487 L 31.202262,-30.856017 L 30.193332,-31.014857 L 29.186962,-31.536497 L 28.577302,-32.609677 L 28.525702,-33.249077 L 28.755162,-33.956657 L 29.205642,-34.179757 L 29.777532,-34.585397 L 31.280042,-34.450807 z "
         style="fill:white;fill-opacity:1;fill-rule:evenodd;stroke:none;stroke-width:1px;stroke-linecap:butt;stroke-linejoin:miter;stroke-opacity:1" />
      <path
         id="path14560"
         d="M 6.2216519,-32.089387 L 4.8442319,-22.791777 L 9.0912819,-17.167307 L 16.437542,-13.723747 L 31.589182,-15.330747 L 15.174902,-17.052517 L 10.813062,-21.529147 L 10.124352,-27.497977 L 10.009572,-31.285887 L 10.813062,-33.352017 L 10.927852,-39.665207 L 6.2216519,-32.089387 z "
         style="fill:black;fill-opacity:0.24926686;fill-rule:evenodd;stroke:none;stroke-width:1px;stroke-linecap:butt;stroke-linejoin:miter;stroke-opacity:1" />
    </g>
    <g
       id="g14609"
       transform="matrix(0.755979,0,0,0.722516,77.74761,-2.111138)">
      <path
         sodipodi:nodetypes="ccccccccccccccccc"
         id="path14611"
         d="M -22.852446,44.272104 L -25.124327,47.345825 L -29.267168,45.341225 L -30.603569,43.871184 L -28.198048,38.792863 L -23.253367,34.115461 L -17.373205,31.175381 L -14.700404,32.244501 L -13.364004,36.921902 L -15.368604,38.792863 L -11.760323,43.871184 L -7.216562,44.673025 L -10.557563,49.751347 L -12.963083,51.889586 L -17.105924,52.424147 L -19.511445,46.410345 L -22.852446,44.272104 z "
         style="fill:#fc0;fill-opacity:1;fill-rule:evenodd;stroke:none;stroke-width:1px;stroke-linecap:butt;stroke-linejoin:miter;stroke-opacity:1" />
      <path
         sodipodi:nodetypes="ccscccccccccccccccc"
         id="path14613"
         d="M -28.999888,49.617706 L -34.61277,45.742145 C -34.61277,45.742145 -35.28097,39.461063 -35.01369,38.926503 C -34.74641,38.391943 -32.741809,32.645421 -32.741809,32.645421 L -27.262568,28.36894 L -20.981486,26.097059 L -14.967684,26.765259 L -10.958483,32.511781 L -11.493043,34.917302 L -14.834044,38.258303 L -13.898564,34.783662 L -14.834044,32.244501 L -17.640485,31.309021 L -22.317886,34.115461 L -26.861648,37.857382 L -29.668088,42.133864 L -29.935368,44.940304 L -25.658887,47.078545 L -28.999888,49.617706 z "
         style="fill:red;fill-opacity:1;fill-rule:evenodd;stroke:none;stroke-width:1px;stroke-linecap:butt;stroke-linejoin:miter;stroke-opacity:1" />
      <path
         sodipodi:nodetypes="cccccscccccccccccccccccccccccccccccccccccccccsccccccccccccccccccccccccccccccccccccccc"
         id="path14615"
         d="M -20.69081,24.77463 L -27.02923,26.13033 L -31.06379,28.86305 L -34.24265,32.15625 L -36.01526,36.53125 C -36.01526,36.53125 -36.582619,40.632908 -36.75662,41.33511 C -36.930621,42.037313 -35.747979,45.713421 -35.74798,45.71342 L -33.9375,47.59375 L -31.82114,49.98934 L -28.32978,50.67684 L -24.95147,47.99798 L -22.84375,45.5 L -20.62629,47.78731 L -18.79651,50.195578 L -18.66618,53.68621 L -15.7739,53.625729 L -10.325741,52.165619 L -6.8603008,47.580509 L -6.2652604,43.151649 L -11.03254,41.742089 L -13.17684,40.2886 L -14.4375,38.84375 L -12.26066,37.70478 L -10.43088,36.05717 L -10.10974,33.48272 L -10.77794,30.21544 L -12.52794,26.37169 L -15.875,25.04191 L -20.69081,24.77463 z M -20.46875,27.5625 L -17.15625,27.5625 L -14.96875,28.5 L -11.87702,32.82243 L -13.67353,34.85901 L -13.89761,32.10901 L -17.438226,31.29756 L -20.73377,32.484496 L -24.811855,35.327923 L -29.9375,40.125 L -31.8125,43.875 L -31.21875,45.9375 L -29.28125,46.9375 L -27.74669,47.0625 L -28.89761,48.42684 L -32.6682,45.85772 C -32.668199,45.857722 -33.865807,41.736895 -33.7307,41.12169 C -33.595593,40.506486 -33.46673,37.34375 -33.46673,37.34375 L -31.83309,33.49669 L -27.8125,30.1443 L -24.15625,28.3125 L -20.46875,27.5625 z M -18.95373,33.469314 L -15.09375,33.1875 L -14.84908,35.85441 L -16.4375,37.5625 L -16.65625,36.71875 L -16.09375,36.46875 L -15.78125,34.125 L -18.125,34.46875 L -21.96875,37.1875 L -26,40.25 L -28.1875,43.6875 L -26.1875,44.40625 L -25.8125,43.28125 L -24.5,43.625 L -26.77794,45.80919 L -29.28125,44.125 L -27.40625,40.125 L -24.937339,37.671915 L -18.95373,33.469314 z M -18.4375,37.46875 L -16.5625,40 L -14.55055,42.35037 L -11.74007,44.51195 L -8.3637794,45.371689 L -11.538431,49.702761 L -14.529792,50.643009 L -16.46673,50.966169 L -17.97537,48.04393 L -19.1875,45.625 L -22.625,42.8125 L -25.34375,42.125 L -23,40.0625 L -19.46875,37.90625 L -18.4375,37.46875 z "
         style="fill:black;fill-opacity:1;fill-rule:evenodd;stroke:none;stroke-width:1px;stroke-linecap:butt;stroke-linejoin:miter;stroke-opacity:1" />
      <g
         transform="matrix(0.774194,0,0,0.758065,36.85606,-8.038113)"
         id="g14617">
        <path
           style="fill:black;fill-opacity:1;fill-rule:evenodd;stroke:none;stroke-width:1px;stroke-linecap:butt;stroke-linejoin:miter;stroke-opacity:1"
           d="M -89.368319,58.838868 L -87.939753,56.700628 L -85.225478,55.230587 L -83.511199,55.631507 L -82.082632,57.101548 L -81.654063,59.507069 L -82.22549,61.912589 L -84.654051,63.38263 L -86.368331,63.51627 L -88.51118,62.98171 L -89.511176,61.912589 L -89.939745,59.640709 L -89.368319,58.838868 z "
           id="path14619" />
        <path
           style="fill:white;fill-opacity:1;fill-rule:evenodd;stroke:none;stroke-width:1px;stroke-linecap:butt;stroke-linejoin:miter;stroke-opacity:1"
           d="M -87.958187,59.196679 L -87.01349,57.95512 L -85.218566,57.101548 L -84.08493,57.33434 L -83.140233,58.187913 L -82.856824,59.584667 L -83.234703,60.98142 L -84.840687,61.834993 L -85.974324,61.91259 L -87.391369,61.602201 L -88.052657,60.98142 L -88.336065,59.662264 L -87.958187,59.196679 z "
           id="path14621" />
      </g>
      <path
         id="path14623"
         d="M -24.270554,31.255087 L -23.73709,30.411752 L -22.723507,29.831959 L -22.08335,29.990085 L -21.549885,30.569877 L -21.389846,31.518629 L -21.603231,32.467381 L -22.510121,33.047173 L -23.150279,33.099882 L -23.950475,32.889049 L -24.3239,32.467381 L -24.48394,31.571338 L -24.270554,31.255087 z "
         style="fill:black;fill-opacity:1;fill-rule:evenodd;stroke:none;stroke-width:1px;stroke-linecap:butt;stroke-linejoin:miter;stroke-opacity:1" />
      <path
         id="path14625"
         d="M -23.34697,31.358328 L -23.127407,31.034509 L -22.710238,30.811882 L -22.446763,30.872599 L -22.2272,31.095225 L -22.161332,31.459522 L -22.249157,31.823819 L -22.622413,32.046445 L -22.885888,32.066684 L -23.215232,31.985729 L -23.368926,31.823819 L -23.434795,31.479761 L -23.34697,31.358328 z "
         style="fill:white;fill-opacity:1;fill-rule:evenodd;stroke:none;stroke-width:1px;stroke-linecap:butt;stroke-linejoin:miter;stroke-opacity:1" />
      <path
         id="path14627"
         d="M -33.160676,47.168275 L -33.744696,46.359129 L -33.905337,45.202537 L -33.520194,44.667308 L -32.783445,44.388123 L -31.843334,44.592903 L -31.042284,45.144249 L -30.841913,46.201821 L -31.031385,46.815564 L -31.525041,47.479694 L -32.055442,47.669234 L -32.946635,47.484083 L -33.160676,47.168275 z "
         style="fill:black;fill-opacity:1;fill-rule:evenodd;stroke:none;stroke-width:1px;stroke-linecap:butt;stroke-linejoin:miter;stroke-opacity:1" />
      <path
         id="path14629"
         d="M -32.720925,46.349566 L -32.939689,46.025207 L -32.990953,45.555138 L -32.836487,45.333224 L -32.54811,45.212358 L -32.185486,45.286889 L -31.880096,45.504059 L -31.812481,45.933373 L -31.891813,46.185434 L -32.089591,46.460943 L -32.29709,46.543288 L -32.640931,46.476295 L -32.720925,46.349566 z "
         style="fill:white;fill-opacity:1;fill-rule:evenodd;stroke:none;stroke-width:1px;stroke-linecap:butt;stroke-linejoin:miter;stroke-opacity:1" />
      <path
         id="path14631"
         d="M -15.311784,37.768974 L -14.327894,34.940291 L -15.680743,32.234595 L -17.894494,31.988622 L -23.367381,34.50984 L -26.626516,38.506892 C -26.626516,38.506892 -29.639678,42.257971 -29.824157,42.995889 C -30.008637,43.733806 -28.471309,46.439503 -28.471309,46.439503 L -25.704119,47.423392 L -24.166792,45.086654 L -21.153629,45.455613 L -19.062864,48.530268 L -17.771508,51.973882 L -16.41866,52.035376 L -16.664632,49.391172 L -17.710015,46.500996 L -19.247343,44.225751 L -20.16974,41.766026 L -19.431822,39.552275 L -16.910605,38.014947 L -15.311784,37.768974 z "
         style="fill:black;fill-opacity:0.12903227;fill-rule:evenodd;stroke:none;stroke-width:1px;stroke-linecap:butt;stroke-linejoin:miter;stroke-opacity:1" />
      <path
         sodipodi:nodetypes="ccccccc"
         id="path14633"
         d="M -21.830053,27.807091 L -16.603139,27.868584 L -14.881332,28.483515 L -12.360115,32.296088 L -16.357167,28.913967 L -20.138993,28.852474 L -21.830053,27.807091 z "
         style="fill:white;fill-opacity:0.48093842;fill-rule:evenodd;stroke:none;stroke-width:1px;stroke-linecap:butt;stroke-linejoin:miter;stroke-opacity:1" />
      <path
         id="path14635"
         d="M -31.054839,35.684654 L -31.868891,36.847755 L -31.07732,38.796512 L -29.365206,39.643695 L -27.662558,39.278081 L -26.641442,37.87952 L -27.985576,38.239218 L -29.343908,38.377654 L -30.338993,37.518639 L -30.701057,36.670273 L -31.054839,35.684654 z "
         style="fill:black;fill-opacity:0.30791788;fill-rule:evenodd;stroke:none;stroke-width:1px;stroke-linecap:butt;stroke-linejoin:miter;stroke-opacity:1" />
      <path
         id="path14637"
         d="M -29.885651,31.804143 L -31.115513,34.694319 L -32.960306,37.338523 L -30.992527,39.367795 L -29.332213,39.736754 C -29.332213,39.736754 -28.040857,40.782137 -28.471309,40.905123 C -28.901761,41.028109 -30.439089,43.42634 -30.439089,43.42634 L -26.50353,46.992941 C -26.50353,46.992941 -28.10235,49.329679 -28.409816,49.391172 C -28.717282,49.452665 -34.005689,46.19353 -34.005689,46.19353 L -35.051072,40.105713 C -35.051072,40.105713 -33.513744,34.448347 -33.144785,34.140881 C -32.775827,33.833416 -30.746554,31.066226 -30.746554,31.066226 L -29.885651,31.804143 z "
         style="fill:black;fill-opacity:0.23167156;fill-rule:evenodd;stroke:none;stroke-width:1px;stroke-linecap:butt;stroke-linejoin:miter;stroke-opacity:1" />
    </g>
    <g
       id="g14639"
       transform="matrix(0.437402,0,0,0.416736,147.9403,2.353582)">
      <path
         sodipodi:nodetypes="cccccccccssscccc"
         id="path14641"
         d="M -153.17782,50.295514 L -157.81528,54.029531 L -159.47351,59.686628 L -158.76457,66.205554 L -156.13749,72.302597 L -151.86239,78.546053 L -146.1946,80.293392 L -136.20618,79.936972 L -127.06485,75.686578 C -127.06485,75.686578 -124.07715,64.529549 -124.24926,63.566601 C -124.42136,62.603646 -127.10347,57.231839 -127.4944,56.367907 C -127.88532,55.503973 -130.22633,50.913067 -131.6578,50.37129 C -133.08928,49.82951 -138.26129,48.303903 -138.26129,48.303903 L -144.61632,49.990011 L -148.12434,50.685243 L -153.17782,50.295514 z "
         style="fill:#71c837;fill-opacity:1;fill-rule:evenodd;stroke:none;stroke-width:1px;stroke-linecap:butt;stroke-linejoin:miter;stroke-opacity:1" />
      <path
         sodipodi:nodetypes="ccccccccccccccccccccccccccccccccccccccc"
         id="path14643"
         d="M -148.53925,46.403927 L -156.27767,48.759374 L -159.08826,53.300487 L -160.44354,57.518199 L -160.89691,64.816327 L -159.53272,70.039659 L -156.6273,77.370886 L -149.74659,81.863101 L -142.52803,83.15286 L -134.7042,81.890433 L -129.32211,79.730549 L -126.00396,77.253433 L -123.04452,71.747135 L -122.37597,63.7202 L -123.04986,57.803854 L -125.51654,53.308559 L -127.98322,48.813264 L -136.29902,46.457158 L -141.55958,46.804327 L -144.7692,54.015018 L -147.81308,56.514137 L -142.60056,61.072228 L -142.57474,58.341897 L -141.34309,55.803919 L -140.93419,51.342748 L -135.53089,51.252651 L -129.54063,53.101206 L -126.08563,62.022727 L -126.11111,71.988908 L -132.88253,77.343526 L -141.2528,79.541908 L -151.83388,76.879236 L -156.29284,70.723809 L -157.41083,64.080968 L -156.94627,57.976182 L -153.83792,51.518321 L -143.29503,50.518911 L -141.3981,46.652749 L -148.53925,46.403927 z "
         style="fill:black;fill-opacity:1;fill-rule:evenodd;stroke:none;stroke-width:1px;stroke-linecap:butt;stroke-linejoin:miter;stroke-opacity:1" />
      <path
         sodipodi:nodetypes="ccccccccccc"
         id="path14645"
         d="M -143.07736,49.047099 C -143.2218,48.918931 -143.32761,41.880698 -143.23874,41.381526 C -143.07715,40.894751 -141.2034,35.169105 -141.0601,34.845617 C -140.49527,34.442165 -136.62214,31.537317 -136.62214,31.537317 L -134.12074,33.070431 L -131.61934,35.97528 L -132.66832,36.459421 L -137.02559,37.024253 L -139.12354,38.557368 L -140.89872,44.689826 L -141.22148,49.127789"
         style="fill:black;fill-opacity:1;fill-rule:evenodd;stroke:none;stroke-width:1px;stroke-linecap:butt;stroke-linejoin:miter;stroke-opacity:1" />
      <path
         sodipodi:nodetypes="ccccccccccccc"
         id="path14647"
         d="M -135.8406,51.755083 L -133.1514,51.678355 L -130.36594,53.236569 L -128.88151,54.093387 L -130.04882,56.269414 L -131.58176,57.489036 L -133.77324,58.033589 L -136.48182,56.962661 L -137.71161,55.857084 L -138.71939,54.203777 L -138.57121,53.115236 L -137.939,51.921364 L -135.8406,51.755083 z "
         style="fill:white;fill-opacity:0.34310853;fill-rule:evenodd;stroke:none;stroke-width:1px;stroke-linecap:butt;stroke-linejoin:miter;stroke-opacity:1" />
      <path
         sodipodi:nodetypes="ccccccccccccc"
         id="path14649"
         d="M -133.9815,51.887211 L -132.3132,52.27819 L -130.88205,53.577881 L -130.12415,54.284942 L -131.23672,55.285859 L -132.40086,55.705406 L -133.84776,55.650136 L -135.31995,54.62904 L -135.8761,53.827065 L -136.1964,52.761586 L -135.90792,52.190738 L -135.30257,51.640263 L -133.9815,51.887211 z "
         style="fill:white;fill-opacity:1;fill-rule:evenodd;stroke:none;stroke-width:1px;stroke-linecap:butt;stroke-linejoin:miter;stroke-opacity:1" />
    </g>
    <path
       d="M 58.483349,78.35404 C 58.483349,78.35404 58.222886,77.591585 58.483349,77.337429 C 58.743806,77.083274 59.329853,77.337429 59.460082,77.676302 C 59.590314,78.015174 59.460082,78.777629 59.069386,78.692912 C 58.678694,78.608196 58.483349,78.35404 58.483349,78.35404 z "
       style="fill:white;fill-opacity:1;fill-rule:evenodd;stroke:white;stroke-width:0.03648241pt;stroke-linecap:butt;stroke-linejoin:miter;stroke-opacity:1"
       id="path14651" />
    <g
       id="g14653"
       transform="matrix(0.490597,0,0,0.536521,108.5751,44.49927)">
      <path
         id="path14655"
         d="M -107.65919,35.820396 L -110.89291,36.561457 L -113.04872,38.784641 L -114.194,41.883625 L -114.26137,45.184716 L -113.52031,48.890023 L -111.02765,50.84373 L -105.84022,52.730068 L -100.45068,51.247945 C -100.45068,51.247945 -97.284328,49.428976 -97.14959,48.957392 C -97.014851,48.485807 -95.936944,44.308916 -95.936944,43.837332 C -95.936944,43.365747 -96.071682,40.805717 -96.678005,40.266764 C -97.284328,39.72781 -99.574881,37.976211 -99.574881,37.976211 L -103.21282,37.437257 L -105.16653,37.033042 L -107.65919,35.820396 z "
         style="fill:red;fill-opacity:1;fill-rule:evenodd;stroke:none;stroke-width:1px;stroke-linecap:butt;stroke-linejoin:miter;stroke-opacity:1" />
      <path
         sodipodi:nodetypes="ccccccccccccccccccccccccccccccccccc"
         id="path14657"
         d="M -104.38846,35.00817 L -108.58907,33.902746 L -113.23185,36.997934 L -115.4427,40.977462 L -116.10596,45.178075 L -115.4427,49.157602 L -112.12643,52.031706 L -108.81016,53.5793 L -105.2728,53.5793 L -99.082421,53.358215 L -96.871573,50.705196 L -93.997469,45.399159 L -94.439639,40.314207 L -98.144884,37.54178 L -102.61978,35.671425 L -105.75465,38.52644 L -108.73272,41.079138 L -107.72897,45.205567 L -105.25832,44.882806 L -106.18463,42.331463 L -102.61978,38.766613 L -98.861336,39.872037 L -96.345459,42.949493 L -97.313742,46.283499 L -99.745676,50.041942 L -104.16737,50.926281 L -108.81016,50.705196 L -112.78968,48.273263 L -113.23185,44.735905 L -113.01077,41.198547 L -111.3615,38.527796 L -108.36799,36.997934 L -105.68439,38.411554 L -102.65963,35.749231 L -104.38846,35.00817 z "
         style="fill:black;fill-opacity:1;fill-rule:evenodd;stroke:none;stroke-width:1px;stroke-linecap:butt;stroke-linejoin:miter;stroke-opacity:1" />
      <path
         sodipodi:nodetypes="ccccccccccc"
         id="path14659"
         d="M -104.65524,37.142306 C -104.79968,37.014138 -104.90549,29.975905 -104.81662,29.476733 C -104.65503,28.989958 -102.78128,23.264312 -102.63798,22.940824 C -102.07315,22.537372 -98.200019,19.632524 -98.200019,19.632524 L -95.698622,21.165638 L -93.197224,24.070487 L -94.246197,24.554628 L -98.60347,25.11946 L -100.70142,26.652575 L -102.4766,32.785033 L -102.79936,37.222996"
         style="fill:black;fill-opacity:1;fill-rule:evenodd;stroke:none;stroke-width:1px;stroke-linecap:butt;stroke-linejoin:miter;stroke-opacity:1" />
      <path
         id="path14661"
         d="M -101.48237,39.358971 L -100.56461,39.366834 L -99.470365,39.925569 L -99.112302,40.55729 L -99.098492,41.321988 L -99.586503,41.963451 L -100.34197,42.285465 L -101.35979,41.818001 L -101.85178,41.298405 L -102.29098,40.501746 L -102.29061,39.958049 L -101.83608,39.344615 L -101.48237,39.358971 z "
         style="fill:white;fill-opacity:1;fill-rule:evenodd;stroke:none;stroke-width:1px;stroke-linecap:butt;stroke-linejoin:miter;stroke-opacity:1" />
      <path
         id="path14663"
         d="M -92.962669,38.778022 L -94.917176,41.458699 L -95.085841,44.550887 L -93.917268,47.64116 L -91.80256,50.176854 L -88.812518,52.487289 L -85.649527,52.326634 L -80.496854,50.347332 L -77.401392,45.693099 C -77.401392,45.693099 -76.204852,42.243066 -76.412524,41.798748 C -76.620195,41.354429 -78.546735,37.494801 -78.8561,37.138873 C -79.165465,36.782944 -80.946569,34.939151 -81.757751,34.930132 C -82.568934,34.921111 -85.446799,35.101722 -85.446799,35.101722 L -88.546093,37.081478 L -90.285823,38.058052 L -92.962669,38.778022 z "
         style="fill:red;fill-opacity:1;fill-rule:evenodd;stroke:none;stroke-width:1px;stroke-linecap:butt;stroke-linejoin:miter;stroke-opacity:1" />
      <path
         id="path14665"
         style="fill:white;fill-opacity:1;fill-rule:evenodd;stroke:white;stroke-width:0.07110953pt;stroke-linecap:butt;stroke-linejoin:miter;stroke-opacity:1"
         d="M -70.873741,55.723398 C -70.873741,55.723398 -72.206711,54.999099 -72.116766,54.293283 C -72.026821,53.587467 -70.814475,53.161361 -70.199775,53.463923 C -69.585083,53.766493 -68.853166,55.013214 -69.557811,55.416467 C -70.262456,55.81972 -70.873741,55.723398 -70.873741,55.723398 z " />
      <path
         sodipodi:nodetypes="ccccccccccccccccccccccccccccccccccc"
         id="path14667"
         d="M -91.026916,36.019357 L -94.9225,37.940691 L -96.39616,43.322506 L -95.45418,47.776397 L -93.199119,51.381913 L -90.08791,53.950358 L -85.699506,53.944073 L -82.181309,52.936605 L -79.511488,50.616055 L -74.984335,46.38823 L -75.05611,42.935521 L -76.367704,37.045343 L -80.037221,33.497544 L -84.6525,33.83574 L -89.256903,35.359674 L -89.75002,39.571008 L -90.323119,43.451307 L -86.858554,45.907259 L -85.205563,44.042878 L -87.578409,42.724923 L -87.226422,37.695768 L -83.664566,36.064503 L -79.74686,36.736767 L -78.290523,39.888313 L -77.660442,44.320376 L -80.417581,47.888518 L -84.066755,50.767375 L -88.665681,51.542491 L -91.319959,49.162739 L -93.473644,46.347884 L -93.980901,43.250193 L -92.725156,40.13175 L -89.772363,39.438211 L -89.23594,35.444543 L -91.026916,36.019357 z "
         style="fill:black;fill-opacity:1;fill-rule:evenodd;stroke:none;stroke-width:1px;stroke-linecap:butt;stroke-linejoin:miter;stroke-opacity:1" />
      <path
         sodipodi:nodetypes="ccccccccccc"
         id="path14669"
         d="M -89.82825,37.805107 C -90.021347,37.803128 -94.718371,32.560433 -94.97876,32.125384 C -95.176133,31.651988 -97.518014,26.101356 -97.622068,25.763195 C -97.460431,25.088153 -96.4428,20.354898 -96.4428,20.354898 L -93.54913,19.87107 L -89.755584,20.422557 L -90.229694,21.476102 L -93.147809,24.760832 L -93.725493,27.294229 L -91.042347,33.087244 L -88.374594,36.648531"
         style="fill:black;fill-opacity:1;fill-rule:evenodd;stroke:none;stroke-width:1px;stroke-linecap:butt;stroke-linejoin:miter;stroke-opacity:1" />
      <path
         id="path14671"
         d="M -81.634352,36.553279 L -80.716623,36.564242 L -79.624277,37.12667 L -79.26835,37.759597 L -79.257123,38.524337 L -79.747299,39.164148 L -80.503849,39.483608 L -81.520085,39.012708 L -82.01031,38.491453 L -82.446826,37.693315 L -82.444613,37.149623 L -81.988014,36.537728 L -81.634352,36.553279 z "
         style="fill:white;fill-opacity:1;fill-rule:evenodd;stroke:none;stroke-width:1px;stroke-linecap:butt;stroke-linejoin:miter;stroke-opacity:1" />
      <path
         sodipodi:nodetypes="ccccccccccccc"
         id="path14673"
         d="M -101.02165,39.19934 L -99.042373,39.792497 L -97.344438,41.764263 L -96.445267,42.836949 L -97.765232,44.355445 L -99.146367,44.991943 L -100.86298,44.908092 L -102.60959,43.358982 L -103.26942,42.142302 L -103.64942,40.525858 L -103.30717,39.659822 L -102.58898,38.824694 L -101.02165,39.19934 z "
         style="fill:white;fill-opacity:0.34310853;fill-rule:evenodd;stroke:none;stroke-width:1px;stroke-linecap:butt;stroke-linejoin:miter;stroke-opacity:1" />
      <path
         sodipodi:nodetypes="ccccccccccccc"
         id="path14675"
         d="M -82.214287,36.288759 L -79.873622,36.737361 L -78.68163,38.998237 L -78.143847,40.287756 L -79.463812,41.806252 L -80.844947,42.44275 L -82.56156,42.358899 L -84.30817,40.809789 L -84.968,39.593109 L -85.348,37.976665 L -85.00575,37.110629 L -83.781617,36.058668 L -82.214287,36.288759 z "
         style="fill:white;fill-opacity:0.34310853;fill-rule:evenodd;stroke:none;stroke-width:1px;stroke-linecap:butt;stroke-linejoin:miter;stroke-opacity:1" />
    </g>
    <path
       style="fill:#2165cd;fill-opacity:1;fill-rule:evenodd;stroke:black;stroke-width:0.77515936px;stroke-linecap:butt;stroke-linejoin:miter;stroke-opacity:1"
       d="M 77.409165,54.908044 L 84.336437,50.622583 L 91.893459,51.416187 L 95.199657,56.019088 L 93.940153,62.844081 L 89.059576,66.177216 L 87.800072,69.19291 L 88.902138,72.208604 L 85.59594,75.541739 L 80.557925,74.748136 L 80.557925,71.415001 L 81.187677,70.145235 L 80.400487,67.446982 L 81.817429,60.145828 L 78.668669,61.574315 L 77.409165,54.908044 z "
       id="path30140" />
    <path
       style="font-size:36px;font-style:normal;font-variant:normal;font-weight:normal;font-stretch:normal;text-align:start;line-height:100%;writing-mode:lr-tb;text-anchor:start;fill:black;fill-opacity:1;stroke:none;stroke-width:1px;stroke-linecap:butt;stroke-linejoin:miter;stroke-opacity:1;font-family:Indigo Joker"
       d="M 96.268352,57.128164 C 96.268332,58.417059 95.99967,59.668582 95.462363,60.882735 C 95.425287,61.088219 95.351173,61.368411 95.240021,61.723311 C 94.758262,63.273714 93.785516,64.553256 92.321783,65.56194 C 91.858555,65.898176 91.219323,66.225065 90.404084,66.542611 C 89.848216,66.76677 89.496175,67.018942 89.34796,67.29913 C 89.347947,67.504608 89.329418,67.775459 89.292374,68.111686 C 89.292361,68.223766 89.24604,68.410561 89.153411,68.67207 C 89.060756,68.933585 89.014435,69.1017 89.014447,69.176415 C 89.014435,69.213777 89.134869,69.40991 89.375753,69.764818 C 89.635138,70.119729 89.801895,70.381241 89.876022,70.549356 C 89.894537,70.605395 89.903801,70.801529 89.903815,71.137759 C 89.903801,71.530027 89.690724,72.165128 89.264582,73.043064 C 89.24604,73.192497 89.199719,73.388631 89.125618,73.631467 C 88.82915,74.266565 88.430787,74.808269 87.93053,75.25658 C 87.726705,75.46205 87.235701,75.704882 86.457515,75.985079 C 85.29021,76.396021 84.252616,76.601495 83.344728,76.601501 C 82.399768,76.601495 81.556722,76.368002 80.815588,75.901021 C 79.870631,75.321954 79.398155,74.518738 79.398158,73.491371 C 79.398155,73.061741 79.500062,72.594755 79.703878,72.090411 C 79.870631,71.698142 80.037387,71.296534 80.204148,70.885586 C 80.055916,70.810869 79.852103,70.661433 79.592707,70.437279 C 79.463005,70.269165 79.398155,69.75548 79.398158,68.896223 C 79.398155,67.383191 79.805782,65.038921 80.621039,61.863407 C 80.528393,61.788698 80.463543,61.751339 80.42649,61.75133 C 80.389429,61.751339 80.083709,61.928794 79.509329,62.283695 C 78.823773,62.694651 78.332768,62.974843 78.036314,63.12427 C 77.851027,62.974843 77.739856,62.834747 77.702801,62.703982 C 77.406344,61.303033 76.924603,59.220275 76.257578,56.455703 C 76.220521,56.306282 76.127879,56.03543 75.979651,55.643146 C 75.812895,55.250894 75.729517,55.026741 75.729516,54.970686 C 75.729517,54.69051 76.229786,54.074089 77.230324,53.121419 C 78.119691,52.318221 78.657016,51.860575 78.842303,51.748479 C 79.472269,51.393589 80.111501,51.048019 80.760003,50.711769 C 81.612308,50.244803 82.223747,49.973951 82.594324,49.899212 C 83.001943,49.731119 83.631912,49.525645 84.48423,49.28279 C 85.744158,49.096017 86.707639,49.002621 87.374675,49.002598 C 88.541958,49.002621 89.505439,49.039979 90.26512,49.114675 C 90.561562,49.226774 91.006245,49.376209 91.599172,49.562982 C 92.988793,49.936592 94.072708,50.711789 94.850923,51.888575 C 95.277059,52.561054 95.6291,53.392289 95.907047,54.382283 C 96.147897,55.241554 96.268332,56.156846 96.268352,57.128164 M 93.739213,58.248931 C 93.739196,57.464408 93.729932,57.025441 93.71142,56.932029 C 92.988793,53.831256 90.459656,52.280862 86.124002,52.280844 C 85.123455,52.280862 83.974689,52.523695 82.677702,53.009343 C 82.547996,53.00936 82.38124,53.02804 82.177432,53.065381 C 80.750734,53.719179 79.722404,54.428999 79.092438,55.194839 C 78.851565,55.475047 78.73113,55.736559 78.731132,55.979377 C 78.73113,56.483737 78.907151,57.679221 79.259195,59.565833 C 79.27772,59.696601 79.388891,59.846037 79.592707,60.01414 C 81.797593,58.762629 83.289135,58.136868 84.067339,58.136854 C 84.901113,58.136868 85.577402,58.351681 86.096209,58.781296 C 86.633525,59.210935 86.902188,59.836697 86.902198,60.658581 C 86.902188,60.751989 86.809546,60.948123 86.624271,61.246984 C 86.457505,61.545865 86.337069,61.704641 86.262965,61.723311 C 86.114727,61.798038 85.901651,61.882095 85.623732,61.975483 C 85.531081,61.975493 85.169776,61.975493 84.539815,61.975483 C 84.465694,61.975493 84.132181,61.966153 83.539277,61.947464 C 82.964886,61.910115 82.640639,61.891435 82.566531,61.891426 C 82.344183,61.891435 82.177427,62.321062 82.066261,63.180309 C 81.973614,63.75938 81.862443,64.543916 81.732749,65.533921 C 81.640101,65.683362 81.593779,65.776759 81.593785,65.814112 L 81.593785,68.083667 C 81.593779,68.214426 81.630836,68.363862 81.704956,68.531974 C 81.816121,68.774809 81.945821,68.896226 82.094054,68.896223 C 82.149634,68.896226 82.761074,68.76547 83.928375,68.503955 C 83.965424,68.503957 84.539807,68.42924 85.651525,68.279801 C 86.392655,68.186407 86.874395,68.046311 87.096748,67.859513 C 87.170851,67.317813 87.272758,66.533276 87.402468,65.505901 C 87.476571,65.431189 87.893461,65.347132 88.653141,65.253729 C 89.579553,65.122979 90.515241,64.609294 91.460208,63.712673 C 92.405145,62.816068 93.044377,61.872756 93.377907,60.882735 C 93.618761,60.172926 93.739196,59.294993 93.739213,58.248931 M 87.791566,71.221816 C 87.791555,70.848227 87.615534,70.521337 87.263504,70.241145 C 86.92998,69.942275 86.559411,69.792839 86.151794,69.792838 C 85.392117,69.792839 84.474958,70.054351 83.400313,70.577375 C 82.084785,71.231156 81.427023,71.997013 81.427028,72.874948 C 81.427023,73.192497 81.491873,73.388631 81.621578,73.463351 C 81.992142,73.706182 82.399768,73.874297 82.844458,73.967697 C 83.196493,74.023732 83.511477,74.051751 83.789411,74.051754 C 84.345259,74.051751 85.012284,73.967694 85.790489,73.799582 C 86.290748,73.687503 86.753961,73.313913 87.180126,72.678814 C 87.587741,72.11843 87.791555,71.632764 87.791566,71.221816"
       id="text29945" />
  </g>
</svg>
