<!--Created with Inkscape (http://www.inkscape.org/)--><svg width="32" height="32" viewBox="0 0 31.999999 31.999999" version="1.1" id="svg5" xmlns="http://www.w3.org/2000/svg" xmlns:rdf="http://www.w3.org/1999/02/22-rdf-syntax-ns#" xmlns:cc="http://creativecommons.org/ns#" xmlns:dc="http://purl.org/dc/elements/1.1/"><g id="layer1"><path id="path52344" style="fill:#f2f2f2" d="M16 12 3.5 24.5c-1 1-2 3-.5 4.5s3.5.5 4.5-.5L20 16zM5 26a1 1 0 1 1 0 2 1 1 0 0 1 0-2z"/><path id="path55453" style="fill:#f2f2f2" d="M21 3a8 8 0 0 0-8 8 8 8 0 0 0 8 8 8 8 0 0 0 8-8 8 8 0 0 0-.711-3.29L23.999 12h-4V8l4.29-4.29a8 8 0 0 0-3.29-.71z"/></g><metadata id="metadata132"><rdf:RDF><cc:Work><dc:date>2026</dc:date><dc:creator><cc:Agent><dc:title>Timothée Giet</dc:title></cc:Agent></dc:creator><cc:license rdf:resource="http://creativecommons.org/licenses/by-sa/4.0/"/></cc:Work><cc:License rdf:about="http://creativecommons.org/licenses/by-sa/4.0/"><cc:permits rdf:resource="http://creativecommons.org/ns#Reproduction"/><cc:permits rdf:resource="http://creativecommons.org/ns#Distribution"/><cc:requires rdf:resource="http://creativecommons.org/ns#Notice"/><cc:requires rdf:resource="http://creativecommons.org/ns#Attribution"/><cc:permits rdf:resource="http://creativecommons.org/ns#DerivativeWorks"/><cc:requires rdf:resource="http://creativecommons.org/ns#ShareAlike"/></cc:License></rdf:RDF></metadata></svg>
