<?xml version="1.0" encoding="UTF-8" standalone="no"?>
<svg
   viewBox="-180.25 1.1503906 27.377831 14.361776"
   version="1.2"
   id="svg486"
   width="27.377831"
   height="14.361776"
   xmlns="http://www.w3.org/2000/svg"
   xmlns:svg="http://www.w3.org/2000/svg"
   xmlns:rdf="http://www.w3.org/1999/02/22-rdf-syntax-ns#"
   xmlns:cc="http://creativecommons.org/ns#"
   xmlns:dc="http://purl.org/dc/elements/1.1/">
  <metadata
     id="metadata492">
    <rdf:RDF>
      <cc:Work
         rdf:about="">
        <dc:format>image/svg+xml</dc:format>
        <dc:type
           rdf:resource="http://purl.org/dc/dcmitype/StillImage" />
      </cc:Work>
    </rdf:RDF>
  </metadata>
  <defs
     id="defs490" />
  <g
     id="layer4"
     transform="translate(-192.56531,-50.796823)"
     style="display:inline">
    <path
       style="opacity:1;fill:#1e6ddf;fill-opacity:1;fill-rule:evenodd;stroke:#505050;stroke-width:0.5;stroke-linecap:round;stroke-linejoin:round;stroke-miterlimit:4;stroke-dasharray:none;stroke-opacity:1"
       id="path40"
       d="m 28.602564,52.60519 0.035,0.14525 0.1911,0.0616 0.6713,-0.0315 0.3402,-0.2632 0.2688,-0.16611 0.19949,0.11179 0.098,0.32403 0.1855,0.42245 0.79975,0.47271 0.6769,0.13468 0.83264,-0.093 0.3297,-0.0844 0.2233,0.0704 0.2212,0.24982 0.4788,0.28609 1.00491,0.20272 0.3087,0.11487 0.2149,0.19208 -0.063,0.27447 -0.4795,0.68362 -0.063,0.20202 0.063,0.0679 -0.0938,0.12677 -0.62369,0.45835 -0.056,0.16135 0.2079,0.26355 0.1708,0.2184 0.007,-0.0441 0.955,-0.19656 0.4305,0.39599 0.71043,0.0147 0.084,0.12747 0.79435,0.37086 0.2457,0.29393 0.5698,0.28406 -0.4725,0.35923 0.0714,0.15995 0.1701,0.16373 0.6433,0.0953 0.322,0.23618 0.021,0.36057 0.1456,0.58856 -1.32552,0.58449 -0.3766,0.65317 -0.035,0.12852 -0.042,-0.0196 -0.147,-0.21567 -0.2401,0.002 -0.54949,-0.0902 -0.76566,0.59059 -0.3465,0.49084 -0.2051,0.36029 -0.308,0.2912 -0.063,0.30792 0.042,0.12922 -0.105,0.16681 -0.005,0.17535 0.441,0.34587 0.1099,0.18697 0.5369,0.6118 -0.1666,0.22351 -0.1323,0.24164 -0.1554,0.17157 -0.1799,0.1087 -0.5551,-0.006 -0.70272,0.0769 -0.4739,0.12033 -0.2457,10e-4 -0.5089,-0.3052 -0.56839,-0.45731 -0.3612,-0.21805 -0.1617,-0.18864 -0.4466,-0.0793 -0.6363,-0.22561 -0.4417,-0.24542 -0.37869,-0.15281 -0.5348,-0.0762 -0.441,0.008 -0.1295,-0.41286 -0.056,-0.47166 -0.3605,-0.31549 0.4935,-1.23422 -0.2933,-0.12103 -0.3206,0.0988 -0.46339,0.29392 -0.2212,0.3514 -0.1323,0.31101 -0.77791,0.29533 -1.23388,0.10696 -1.34876,-0.10696 -0.1876,-0.0793 -0.0861,-0.0902 -0.001,-0.10857 0.0945,-0.16716 0.2352,-0.20272 0.056,-0.28917 -0.2415,-0.25017 -0.1575,-0.0974 0.063,-0.24234 0.1785,-0.30352 0.035,-0.17297 -0.91328,-0.52395 -0.6608,-0.1022 -0.6412,-0.0182 -0.4865,-0.0588 -0.2835,0.0245 -0.2044,0.15281 -0.20649,0.10941 -0.1547,-0.13125 -0.2835,-0.92763 -0.2198,-0.14014 -0.82915,-0.15484 -1.12524,-0.0553 -0.3003,-0.16919 -0.1645,-0.41733 -0.1036,-0.50246 -0.3703,-0.48125 -0.1897,-0.12068 -0.336,-0.21364 -0.58799,0.0879 -0.70609,0.27888 -0.4172,0.0772 -0.1589,0.0294 -0.5628,-0.27209 -0.63139,-0.42553 -0.5068,-0.45149 -0.1225,-0.25088 0.1554,-0.3045 -0.1869,-0.2331 -0.2716,-0.42658 -0.0777,-0.33327 3.04674,-1.17817 1.85527,-0.60326 0.8743,-0.18249 0.21,0.60599 0.15959,0.19243 0.2079,0.12509 0.2758,0.0245 0.3157,-0.14973 0.4424,-0.15792 0.71092,0.0735 0.51659,0.14595 0.1841,0.15141 0.3416,0.14427 0.4991,0.0343 0.96586,-0.2758 0.92763,-0.42007 0.2723,-0.29155 0.1029,-0.26418 0.5481,0.17465 0.4844,0.0385 0.21209,-0.0776 -0.1344,-0.4235 0.3934,-0.2256 0.4375,-0.10423 0.1974,0.18284 0.3997,0.18661 0.3164,10e-4 0.85175,-0.48566 0.1995,0.096 0.1848,0.17262 z"
       class="polygon" />
  </g>
</svg>
