<?xml version="1.0" encoding="UTF-8" standalone="no"?>
<svg
   viewBox="-180.25 1.1503906 76.886154 72.240936"
   version="1.2"
   id="svg486"
   width="76.886154"
   height="72.240936"
   xmlns="http://www.w3.org/2000/svg"
   xmlns:svg="http://www.w3.org/2000/svg"
   xmlns:rdf="http://www.w3.org/1999/02/22-rdf-syntax-ns#"
   xmlns:cc="http://creativecommons.org/ns#"
   xmlns:dc="http://purl.org/dc/elements/1.1/">
  <metadata
     id="metadata492">
    <rdf:RDF>
      <cc:Work
         rdf:about="">
        <dc:format>image/svg+xml</dc:format>
        <dc:type
           rdf:resource="http://purl.org/dc/dcmitype/StillImage" />
      </cc:Work>
    </rdf:RDF>
  </metadata>
  <defs
     id="defs490" />
  <g
     id="layer12"
     transform="translate(-319.24549,79.218051)"
     style="display:inline">
    <path
       class="polygon"
       d="m 146.27822,-8.1195496 -0.61389,0.0693 -0.3822,-0.20237 0.1449,-0.15071 0.4284,-0.16779 0.46269,0.0231 0.0987,0.19691 z m 1.43423,-0.22897 -0.7007,0.24059 -0.2667,-0.0574 0.07,-0.40572 0.4165,-0.18557 0.7007,-0.021 z m 2.39322,-1.61157 0.88661,0.16233 0.3724,-0.0581 0.4242,0.36743 -0.71841,0.2338 -0.049,0.28987 0.2835,0.18011 0.1001,0.26082 -0.71574,-3.4e-4 -0.3423,-0.21945 -0.1491,-0.2786 -0.3332,-0.19684 -0.4438,-0.15008 0.217,-0.19999 0.1239,-0.28679 z m -1.26602,0.23856 -0.50959,0.0308 -0.71981,-0.3469204 -0.091,-0.13565 0.2821,-0.0786 -0.1869,-0.27888 0.056,-0.12341 0.5572,0.22015 0.30449,0.25739 -0.29749,0.0595 0.50399,0.2655704 z m -3.8035,-1.3504304 -0.098,0.32571 -0.4753,-0.0364 -0.483,0.0588 -0.38989,-0.32333 -0.2086,-0.54516 0.0714,-0.11725 0.30379,-0.12376 0.2324,0.29904 z m -1.63169,-18.98195 0.0749,0.13055 0.41019,-0.0357 0.5523,-0.23793 0.392,0.11109 -0.042,0.33978 -0.266,-0.0133 -0.0735,-0.056 -0.3409,0.19411 -0.063,0.1176 -0.39479,0.0748 -0.72877,-0.33222 -0.4578,-0.54656 1.06708,-10e-4 -0.1022,0.1302 z m 25.41318,-12.2479 -1.04524,0.2324 -0.84216,-0.14525 -0.014,-0.45017 0.52219,-0.2177 0.94402,-0.0872 1.29198,0.2177 0.1883,0.1162 -0.74031,0.0872 z m 22.39304,-34.8645 1.55308,0.70171 0.99806,0.34076 2.72068,0.63881 2.38853,0.42042 1.34252,1.38906 -0.66149,0.55335 -0.3297,0.19075 -1.16823,0.55097 -1.25033,0.77758 -0.0959,0.40537 0.4151,0.4088 0.51729,0.27034 -0.46829,0.0861 -1.44711,0.34041 -0.88325,0.22966 -1.06365,0.16849 0.2765,0.22316 1.76707,0.0469 0.2723,0.0637 0.196,0.11487 0.035,0.18354 -0.1792,0.29666 -1.90924,1.63652 -0.063,0.34489 0.6258,0.95908 0.87499,1.131 2.6448,0.50281 1.96601,0.3927 1.26259,0.92933 2.08151,1.22568 1.10333,0.45801 0.063,0.14217 -0.3283,0.8456 -1.33433,0.84732 -1.24823,0.71435 -1.29206,0.86064 -1.01031,0.73383 -1.09444,0.87945 -0.126,0.28503 -0.021,0.26936 0.1883,0.29771 1.40139,1.07597 0.5453,0.54929 0.6524,0.59402 0.56,0.64736 0.32479,0.58001 0.5614,0.56497 0.3486,0.28882 0.5796,0.40467 0.6993,0.60193 0.23239,0.47676 1.05616,1.65498 0.1064,0.42175 -0.049,0.31206 -0.4641,0.0769 -1.02472,0.0497 -1.11083,0.20475 -0.056,0.0686 0.72457,0.39067 -0.6398,0.66717 -0.0924,0.95532 -0.6839,0.50141 -0.063,0.11655 0.028,0.0974 0.1211,0.0762 1.26602,0.13398 0.1092,0.13601 0.005,0.28167 -0.1127,0.26012 -0.6356,0.19313 -0.6832,0.28574 -0.1512,0.26285 0.021,0.23485 0.2331,0.39648 0.4494,0.46214 0.5705,0.29021 2.02754,0.27482 0.2618,0.22729 0.1113,0.31136 -0.042,0.30422 -0.94199,0.60837 0.007,0.23415 0.3871,0.56636 0.4634,0.54075 1.97763,0.58583 0.6811,0.3213 0.1813,0.25564 0.0994,0.41222 -0.014,0.44674 -0.1554,0.39683 -0.6202,0.51163 -1.43548,1.00932 -1.44312,0.39207 -0.0882,0.0851 0.4473,0.32298 2.54232,1.29472 1.65703,0.60599 2.2367,0.81791 1.44235,0.64631 0.46619,0.46487 0.6251,0.5168 0.70203,0.42245 0.5061,0.36673 0.1911,0.23583 -0.014,0.25361 -0.6769,0.76493 -0.3843,0.59129 -0.6776,0.86679 -0.69229,0.60501 -1.75679,1.10332 -2.59082,1.37333 -0.6013,0.41558 -1.21268,0.72358 -2.07542,1.4523 -0.5376,0.32059 -1.70141,1.15835 -0.77518,0.36847 -0.60899,0.34454 -1.68511,1.09511 -1.81082,0.83125 -1.77729,0.77212 -0.5334,0.39136 -0.66289,0.29841 -0.79163,0.28406 -0.3339,0.15897 -1.78828,1.05751 -2.48009,1.46802 -0.252,0.0231 -0.6461,0.23723 -1.0096,0.0574 -0.4389,0.18151 -1.54356,-0.51681 -0.2562,-0.0336 -0.90783,0.12817 -0.87087,0.37562 -1.60782,0.11487 -0.79842,0.12165 -0.50959,0.1736 -0.1043,-0.41082 0.2205,-0.52087 0.35419,-0.34727 0.035,-0.22631 -0.25969,0.0238 -0.5145,0.50925 -0.2758,0.59507 -0.5509,0.2991 -1.21134,0.12236 -1.18055,-0.47816 -0.5607,0.005 0.3521,0.34251 0.238,0.3759604 -0.028,0.21056 -0.6293,-0.0371 -0.70069,0.22526 -0.6146,0.32949 -0.2982,6.8e-4 -0.413,-0.46039 -0.75739,0.21497 -0.6475,0.28882 -1.31523,0.0902 -0.78406,0.37975 -1.38775,0.25634 -0.76215,-0.006 -1.73775,0.30863 -0.57749,0.47579 -0.5068,0.175 -0.72114,-0.14735 -2.22172,0.23205 -2.12386,0.30457 -0.9037,-0.0175 -0.90376,-0.12649 -0.95767,0.42315 -1.01723,0.56601 -1.12105,0.20237 -0.4018,-0.0725 0.3213,-0.29701 0.74172,-0.30729 0.5089,-0.41664 0.07,-0.34727 -0.35,-0.13636 -0.4781,-0.042 -0.602,-0.35889 -0.57679,-0.77827 -0.3122,-0.0427 -0.1589,0.2044 -0.1771,0.59675 -0.1799,0.17192 -0.3052,0.13671 -0.3668,0.13776 -0.3584,0.0672 -1.28449,-0.008 -0.1687,-0.30149 v -0.12614 l 0.2275,-0.39683 -0.1988,-0.0693 0.1897,-0.31101 0.3031,0.0168 0.3591,-0.0462 0.1799,-0.15995 -0.014,-0.19103 -0.4991,-0.0497 -0.028,-0.1302 0.4452,-0.5441 0.063,-0.1503604 -0.1722,-0.0308 -0.2786,0.0588 -1.8382,-0.17052 -2.26743,-0.69552 -0.55789,-0.0357 -0.343,-0.62104 -0.5467,0.0786 -0.79709,0.36365 -0.59849,-0.27615 -0.6426,-0.18186 -0.1778,-0.28406 0.007,-0.41901 -0.056,-0.49427 -0.1757,-0.57834 -0.1288,-0.82201 0.1204,-0.64225 0.5124,-0.47544 0.1967,-0.30352 0.2408,-0.77484 0.056,-0.90747 -0.1358,-0.30898 0.035,-0.20545 h 0.4088 l -0.0889,-0.1764 -0.1799,-0.0964 -0.1988,-0.20062 0.1694,-0.10633 0.48929,-0.008 0.042,-0.0679 0.056,-0.0957 -0.37869,-0.52703 -0.042,-0.25123 -0.5257,-0.76254 -0.5992,-0.7229 -0.90236,-0.52297 0.31989,-0.86098 0.3647,-0.77827 -0.0728,-0.37492 -0.1393,-0.45626 -1.10466,-0.50035 -0.1638,-0.70512 -0.2702,-0.75708 0.1015,-0.46417 0.1799,-0.35511 0.3633,-0.35377 1.83273,-1.11631 0.112,-0.58275 1.24207,-0.0427 -0.57609,-0.52086 -0.1358,-0.2926 -0.028,-0.34146 1.78688,-0.2338 0.6671,0.19208 1.57226,-0.23723 1.39593,-0.46417 -0.028,-0.24647 -0.2149,-0.22078 -0.29609,-0.42518 0.20999,-0.11794 0.5096,0.0868 -0.2338,-0.21126 0.042,-0.22288 0.5558,0.0926 0.90713,-0.62174 0.035,-0.47509 1.56743,-0.2485 1.80746,-0.96933 0.83398,-0.30183 0.80591,-0.2184 1.71653,-0.96831 0.73485,-0.0448 0.378,-0.65282 1.45943,-0.8685 0.44379,-0.11109 0.6825,-0.78305 1.79241,-0.90507 1.1361,-1.15391 0.6272,-0.40984 0.1939,-0.43645 0.69789,-0.0371 0.6293,-0.3206 1.3624,-0.22351 1.34463,0.0616 0.56,0.15211 0.51729,-0.0483 -0.049,-0.39235 -0.36889,-0.24234 0.30169,-0.23275 0.71092,-0.1764 -0.0721,-0.38961 -0.1547,-0.2345 -0.5908,-0.31241 0.294,-0.69965 0.0707,-0.76664 0.2793,-0.8856 -0.74234,-0.46927 -2.81707,-0.79844 -0.5257,0.028 -0.6258,-0.10017 -0.65379,-0.60501 0.29189,-0.52192 0.035,-0.19243 -0.2548,0.006 -0.41299,0.25431 -0.89824,0.29085 -1.16759,-0.22316 -0.574,0.0497 -0.74515,-1.29199 -0.3808,-0.49357 -0.61109,-0.61522 -1.09102,-0.30044 -0.2135,-0.16989 -0.1449,-0.26047 -0.049,-0.36162 -0.1379,-0.53494 0.056,-0.4389 0.1337,-0.26144 0.4704,-0.1757 0.6804,-0.49525 0.1421,-0.35994 0.056,-0.55202 0.31289,-0.48195 0.3479,-0.24366 -0.0875,-0.19383 -0.2401,-0.2772 -0.50749,-0.3934 -0.77245,-0.47985 -0.5712,-0.45871 -0.2506,-0.42896 -0.1295,-0.38317 0.021,-0.3486 0.2142,-0.23723 0.7301,-0.29876 0.098,-0.12684 -0.2891,-0.66003 -0.5096,-0.11998 -0.8661,-0.0637 -0.483,-0.005 -0.0924,-0.0721 -0.021,-0.13265 0.098,-0.27069 0.2737,-0.31003 0.2275,-0.19754 0.028,-0.16751 -0.2877,-0.57315 -0.0868,-0.70274 0.0987,-0.55027 0.91734,-0.40606 0.042,-0.14833 -1.15247,-0.44058 -0.83125,-0.49938 -0.2583,-0.29155 -0.95227,-0.0441 -0.5929,-0.84662 -0.85722,-0.41223 -0.84902,-0.35616 -0.5019,-0.16576 -2.94216,-0.51135 -1.16892,-0.0974 -1.38362,-0.29841 -1.03088,-0.37463 -0.88319,-0.24094 -0.75607,-0.29701 -1.05405,-0.2779 -0.3017,-0.23751 -1.1382,-0.43988 -0.53479,-0.28952 -1.85387,-0.5469 -0.07,-0.21567 -0.014,-0.20818 -0.0833,-0.0865 -1.91065,-0.39921 0.3759,-0.22834 1.49366,-0.014 1.23521,0.20783 0.2716,-0.0888 0.1631,-0.18459 -0.5264,-0.74032 0.0945,-0.19278 0.5432,-0.23205 0.86134,-0.18494 1.36101,-0.0266 0.92763,0.0273 0.196,0.0203 1.38565,0.81347 1.1881,0.79365 0.6314,0.33838 1.54489,0.95839 0.5775,0.55475 0.196,0.39718 0.6286,-0.002 2.17244,0.1743 1.82454,0.14665 0.5089,0.22252 1.25782,-0.0448 0.96929,-0.20061 1.7117,-0.25361 0.4585,-0.31171 0.5698,-0.33257 1.00351,0.0525 1.09718,0.26285 1.2455,0.34559 1.1095,0.15995 1.48882,0.25087 0.6944,0.32438 0.97278,0.0926 1.01857,-0.32438 0.6013,-0.87977 0.5341,-0.39242 0.75599,-0.28777 0.86611,-0.12712 0.6608,-0.0455 0.49979,-0.22386 0.71162,-0.497 0.1386,-0.60192 -0.1365,-1.08725 0.1302,-0.35854 0.581,-0.58688 0.7793,-1.55483 0.35,-0.44806 0.4263,-0.27244 0.5859,-0.16198 1.06434,-0.47068 1.52033,-0.93173 0.41229,-0.079 1.09172,-0.0469 1.35827,0.0343 1.22094,0.16408 0.1316,-0.0126 0.5467,-0.0855 0.99665,-0.28952 1.70554,-0.57526 1.09305,-0.15827 0.99463,0.0224 z"
       id="path140"
       style="opacity:1;fill:#b93edb;fill-opacity:1;fill-rule:nonzero;stroke:#505050;stroke-width:0.5;stroke-linecap:round;stroke-linejoin:round;stroke-miterlimit:4;stroke-dasharray:none;stroke-opacity:1" />
  </g>
</svg>
