<?xml version="1.0" encoding="UTF-8" standalone="no"?>
<svg
   viewBox="-180.25 1.1503906 60.595089 48.16243"
   version="1.2"
   id="svg486"
   width="60.595089"
   height="48.16243"
   xmlns="http://www.w3.org/2000/svg"
   xmlns:svg="http://www.w3.org/2000/svg"
   xmlns:rdf="http://www.w3.org/1999/02/22-rdf-syntax-ns#"
   xmlns:cc="http://creativecommons.org/ns#"
   xmlns:dc="http://purl.org/dc/elements/1.1/">
  <metadata
     id="metadata492">
    <rdf:RDF>
      <cc:Work
         rdf:about="">
        <dc:format>image/svg+xml</dc:format>
        <dc:type
           rdf:resource="http://purl.org/dc/dcmitype/StillImage" />
      </cc:Work>
    </rdf:RDF>
  </metadata>
  <defs
     id="defs490" />
  <g
     id="layer15"
     transform="translate(-312.41514,-119.0288)"
     style="display:inline">
    <path
       class="polygon"
       d="m 161.85204,163.88628 0.4788,0.0511 0.6489,-0.009 0.1477,-0.042 0.413,-0.40915 0.50889,-0.01 0.2219,0.40432 -0.51589,0.18626 -0.105,0.10528 0.0994,0.0851 0.38779,0.16884 0.5383,-0.0637 0.014,0.31822 0.1204,0.26012 0.266,0.15519 0.2877,0.0301 0.6363,-0.0455 0.62789,-0.10325 0.6468,-0.20405 0.6601,-0.10423 1.97287,0.10458 0.70819,0.44058 1.34735,0.0532 1.25237,0.23205 0.65729,-0.15316 1.12378,-0.14357 0.1799,0.15554 -0.1449,0.99633 0.07,0.28917 0.3241,0.13909 0.32059,-0.0679 0.3934,-0.32641 0.94269,-0.25256 0.97894,0.001 0.82369,-0.66276 0.2429,-0.0378 -0.1512,0.32571 -0.1246,0.76562 -0.1771,0.44842 -0.0784,0.35343 -0.5509,0.18249 -0.83257,0.0308 -1.51893,-0.0772 -1.53131,0.12509 -2.83618,0.33635 -2.8417,0.1736 -0.3822,-0.11312 -0.007,-0.44604 -0.063,-0.30765 -0.1841,-0.21532 -0.87843,-0.18389 -0.83803,-0.31514 -3.28537,-0.43098 -0.77518,-0.16919 -1.25782,0.0882 -0.4606,-0.0119 -0.3171,-0.15449 -0.2184,-0.26558 -0.0987,-0.84287 0.1561,-0.83432 0.2723,-0.22043 0.1253,0.25122 0.3227,0.11522 0.2996,-0.2536 -0.003,-0.38213 0.1533,-0.35546 0.2373,0.14903 0.1582,0.54621 z m 23.26671,0.49118 -0.26739,0.3934 -0.2716,-0.33152 0.1169,-0.38283 -0.3157,-0.60633 0.59779,-0.89961 0.014,-0.4368 0.4557,-0.22253 -0.1127,0.74204 -0.3486,0.59472 0.3619,0.49392 0.1729,0.56258 z m -28.85569,-5.07156 -0.0812,0.30387 -0.71918,-0.20881 -0.2002,-0.31346 -0.035,-0.69524 0.1883,-0.33907 0.1253,-0.10633 0.3318,0.39066 0.6944,0.57078 z m 33.52257,1.82348 -0.50539,0.147 -0.1743,-0.0189 -0.2114,-0.32403 0.2926,-0.78305 -0.2709,-0.50344 -0.014,-0.21329 0.4067,-0.29533 0.28559,-0.44226 0.6944,-0.47851 1.7992,-0.56637 0.4221,-0.0518 -0.014,0.44366 -0.602,1.1228 -0.53479,0.56126 0.1407,0.45044 -0.85589,0.12474 z m -16.52238,-3.2433 -0.32549,0.36778 -0.4578,-0.13195 0.1869,-0.14014 0.1099,-0.18151 0.014,-0.2618 -0.1246,-0.16134 0.0847,-0.0588 0.4088,0.27068 z m 6.84752,-1.3494 -0.553,0.16716 -0.3514,0.35105 -0.4298,-0.24885 -0.001,-0.33943 0.4704,0.10388 0.3304,-0.1911 -0.0994,-0.21497 0.3591,0.10052 z m 9.79652,0.22043 -0.1533,0.11144 -0.35139,-0.3199 -0.014,-0.16681 0.35769,-0.19138 0.1799,-0.0441 0.049,0.13055 -0.005,0.27888 z m -23.27077,-1.46904 0.014,0.41117 -0.049,0.14735 -1.43282,0.19859 0.1323,-0.47166 0.0875,-0.14903 0.4746,0.21945 0.175,-0.11214 0.0714,-0.12957 z m 5.92191,0.62824 -0.1218,0.10969 -0.5299,-0.44226 -0.2009,-0.25837 0.2513,-0.21496 0.77728,0.5028 z m 10.97511,-0.37156 -0.2184,0.008 0.2604,-0.33802 0.73892,-0.46312 1.07666,-0.40775 0.3549,-0.0455 0.6055,0.25361 -1.11286,0.41832 -0.2954,0.22078 -0.82172,0.0476 z m -7.63165,-0.4433 -0.61809,0.0574 -0.1953,-0.0525 0.3752,-0.12103 0.26319,-0.12852 0.1267,-0.15519 0.6272,-0.27307 0.4109,-0.35581 0.4466,0.24269 -0.5586,0.16135 z m -7.96932,-0.91704 -0.1281,0.0301 -0.1834,-0.29533 -0.042,-0.27517 0.0728,-0.16135 0.2429,-0.0154 0.3297,0.52227 z m 16.09174,-0.2632 -0.6986,0.0967 0.1246,-0.55573 -0.343,-0.43855 0.5453,0.24612 0.3458,0.29701 0.1687,0.0567 -0.042,0.17906 z m -12.18569,-0.76562 -0.5565,0.53969 -0.46269,-0.0581 -0.1946,-0.24709 0.287,-0.50722 0.62019,-0.28777 0.2814,0.0748 -0.028,0.37562 z m 1.86892,0.7058 -0.62439,0.26523 -0.4256,-0.38283 -0.238,-0.60227 1.14365,-0.88184 0.2737,0.079 0.1645,0.22799 -0.028,0.79262 z m -7.15649,-1.10263 -0.259,0.10528 -0.43189,-0.15344 0.1148,-0.38416 0.2982,-0.16338 0.31709,0.12509 0.049,0.17262 z m -0.61459,-1.53535 -0.3976,0.21224 0.1316,-0.48538 -0.196,-0.25325 0.1757,-0.21532 0.2548,-0.1736 0.1211,0.17941 0.2303,0.29085 z m 3.54989,-1.0435 -0.035,0.72666 -0.1848,-0.006 -0.1071,-0.11214 -0.006,-0.27824 0.0784,-0.43785 z m 3.21901,0.52052 -0.6692,0.0434 0.042,-0.53424 0.2478,-0.13909 0.80395,0.26663 -0.042,0.16814 z m 4.38597,-0.77177 -0.3283,0.0266 0.1008,-0.27993 0.6272,-0.48538 0.87632,-0.0238 0.79842,-0.24339 0.1806,-0.009 -0.3815,0.38318 -0.644,0.35749 z m -5.41406,-0.49147 -0.2597,0.4515 -0.4368,-0.07 -0.73079,-0.48566 -0.2492,-0.22043 -0.1386,-0.21672 0.3003,-0.0266 0.3668,0.22869 0.93519,0.12131 z m -6.29927,0.15925 -0.469,0.34006 -0.0805,-0.50995 0.301,-0.53627 0.4109,-0.035 0.1519,0.23583 z m 17.27907,-1.64199 0.86065,0.23072 0.2394,-0.0245 0.4067,0.0837 0.1078,0.42518 -0.5383,0.0616 -0.9324,0.39031 -0.39619,-0.0857 -0.4746,-0.33942 -0.75334,-0.035 -0.2226,-0.0926 0.4032,-0.39991 0.73283,-0.20237 z m -41.55133,0.0427 0.73822,0.68152 -0.5943,-0.16884 -0.63349,0.47165 -0.80318,-0.55096 -0.4809,-0.55783 -0.1085,-0.22316 0.504,-0.52157 0.4704,0.53592 0.56839,0.0858 z m 28.72242,0.32025 -0.2065,0.47068 -0.5467,-0.54691 -0.59919,-0.37457 -0.224,-0.32676 -0.3654,-0.19719 -0.0994,-0.43953 0.4424,-0.18081 0.1897,-0.0182 0.45289,0.53522 0.70889,0.0623 -0.056,0.32984 0.224,0.42518 z m -10.085,-1.16382 -0.2765,0.17297 -0.31219,-0.008 -0.2205,-0.0637 -0.1113,-0.13839 0.1379,-0.0658 0.1617,-0.2779 0.1505,-0.0752 0.22259,0.0357 0.1351,0.11074 z m -20.57067,-3.20228 0.0868,0.80835 0.4935,0.15176 0.6552,0.7287 -0.056,0.37289 -0.1358,0.12782 -1.08619,-0.34419 -0.2604,0.15449 -0.3178,-0.063 -0.19599,-0.40264 0.021,-0.14147 -0.17779,-0.24101 -0.1484,-0.10766 -0.4277,0.32025 -0.2695,0.0595 -0.002,-0.29295 0.3948,-0.80527 0.1848,-0.13601 0.3248,0.26593 0.26739,-0.0988 0.2009,-0.43546 0.014,-0.43407 0.0903,-0.12887 z m 1.02473,0.37737 -0.3458,0.0759 -0.4403,-0.6699 -0.1589,-0.46214 0.1827,-0.0259 0.1757,0.0539 0.1855,0.1743 -0.001,0.17843 0.0735,0.1911 0.1925,0.23002 z m 37.34729,0.77963 -0.6685,0.39578 -0.74648,-0.57253 -0.1232,-0.18424 0.5481,-0.23106 0.2716,-0.35616 -0.2198,-0.4375 -0.76083,-0.64666 -0.035,-0.45934 1.16487,-0.19383 0.6853,0.39956 0.34929,0.0273 -0.13369,0.38178 0.056,0.12404 0.049,1.15868 -0.32409,0.16303 -0.056,0.31822 z m -37.85108,-2.73436 -0.2723,0.0539 -0.2345,-0.0371 -0.2128,0.0315 -0.2051,0.13398 0.021,-0.5551 0.2422,-0.68803 0.2954,-0.40193 0.4165,-0.18662 0.1785,0.31549 -0.035,1.12587 z m 27.91581,-1.40376 -0.73969,0.17094 -0.196,-0.0273 0.1645,-0.21532 0.014,-0.0906 -0.73758,-0.39375 0.0868,-0.51135 0.0854,-0.1302 0.5488,0.26628 0.1204,0.44366 z m -8.81492,-1.04589 0.3955,0.75981 0.37099,0.25634 0.77861,0.30282 0.3654,0.0385 1.32824,0.5469 1.5456,0.10906 0.1995,0.15757 0.19039,0.4214 0.315,0.33089 0.0791,0.25739 -0.1645,0.28574 0.2282,0.87363 0.3899,0.83021 0.5873,0.40264 0.73003,0.12166 0.69509,-0.0168 0.1757,0.16471 -0.07,0.72666 -0.294,0.28301 -0.2394,0.0686 -0.20789,-0.0742 -0.1883,-0.17122 -0.2051,-0.081 -0.399,-0.014 -0.2919,-0.2926 -0.74032,-0.40026 -0.1358,-0.2389 -0.028,-0.36848 -0.31429,-0.27139 -0.2891,-0.51646 -0.2751,-0.14252 -0.1519,-0.25837 -0.014,-0.11109 -1.07737,-0.0752 -0.89207,-0.003 -0.756,-0.29295 -0.2338,-0.7663 -0.4487,-0.20608 -0.336,-0.21672 -0.27999,-0.30044 -0.70826,-0.55405 -0.78337,-0.46347 -0.75739,-0.3052 -0.80395,-0.19998 -0.6538,0.23617 -0.3808,-0.056 -0.077,-0.15994 0.81214,-0.31787 1.11629,-0.60739 0.78679,-0.20062 0.3815,-0.0252 z m 2.55044,-1.09033 -0.3122,0.23688 -0.483,-0.10353 -0.5054,-0.79262 z m 0.75746,-0.30729 -0.3276,0.082 0.3283,-0.55853 0.5796,-0.28952 -0.2177,0.47033 z m 17.65512,-1.19799 -0.1218,0.4153 0.96795,0.68838 0.3304,0.43582 0.1218,0.42483 -0.0812,0.12166 -0.3668,-0.23037 -0.3003,-0.0731 0.1008,0.30352 0.308,0.2611 -0.54879,0.14938 -0.5502,-0.008 -1.6051,-0.36365 -0.37029,-0.38626 0.96046,-0.58142 0.196,-0.23415 -0.6804,0.0231 -0.72533,0.69076 -1.16277,-0.30352 -0.3556,-0.2779 -0.0791,-0.14973 0.4578,-0.6125 0.8183,0.0203 0.4333,-0.13775 0.53549,-0.19383 0.004,-0.29085 1.27631,-0.0665 z m -44.32542,-0.7229 0.1519,0.39269 -0.87227,-0.24374 -0.637,-0.35069 -0.52569,-0.86646 -1.11972,-0.98608 -0.014,-0.28644 0.4256,-0.21707 0.91874,-0.15414 0.3717,0.15995 0.2408,0.16478 0.0749,0.189 -0.5222,0.3787 -0.1085,0.17157 0.4018,0.34041 -0.007,0.13636 0.1694,0.65862 0.1953,0.2485 0.5075,0.19824 z m 37.51816,-3.85409 -0.2646,0.23618 -0.1946,0.40775 -0.105,0.58239 -0.4081,0.014 -0.2471,-0.11794 -0.0812,-0.22015 -0.014,-0.27825 -0.1792,0.0112 -0.1442,0.30212 -0.1267,0.13636 -0.41089,0.0287 -0.4501,-0.18592 0.021,-0.40229 -0.0903,-0.4655 0.042,-0.16303 1.23325,-0.0406 0.3612,0.34384 0.4361,-0.19929 0.1792,-0.21532 0.5285,-0.13503 z m 1.73634,-3.10281 -0.79156,0.18284 -0.87226,-0.57659 0.84349,-0.23142 0.3906,0.16716 0.2793,0.19691 z m -6.38061,-1.32037 -0.89824,0.25018 -0.91259,-0.47306 0.007,-0.28132 0.4823,-0.57078 0.2646,-0.16919 0.6706,0.0462 0.3815,0.39207 0.0889,0.18494 -0.1239,0.31479 z m 12.33541,-5.09548 -1.44038,0.73041 -0.035,0.66857 0.021,0.32368 0.028,0.22897 0.1505,0.19278 v 0.2779 l -0.161,0.29806 -0.6286,0.49902 -0.4361,0.39683 -0.48789,0.53802 -0.2765,0.0658 -0.2156,0.0947 -0.1974,-0.29666 -1.08549,-0.52465 -2.51222,-0.3059 -1.20042,-0.38723 -0.5264,0.0721 -1.01919,-0.43337 -0.6986,0.1904 -1.48203,0.77006 -0.79982,-0.0837 -0.85519,-0.46277 -0.55649,-0.0851 -0.6531,0.24507 -1.04587,0.88627 -1.06434,0.43442 -0.95361,-0.16989 -1.28309,0.004 -0.1365,0.4956 0.2478,0.34314 0.70132,0.58512 -0.329,0.43988 0.2443,0.44093 0.4564,0.0895 0.6895,-0.0252 1.2756,0.57078 0.5579,0.60193 0.3563,0.65862 -0.77658,-0.47236 -0.5152,-0.45387 -0.7191,-0.16478 -1.00009,-0.38661 -0.6286,-0.0644 -0.66849,0.26796 -0.049,0.30422 0.7205,0.56804 0.6587,0.3493 0.3493,0.28469 0.2331,0.62958 -0.1323,0.21399 -0.2436,0.19929 -0.78204,-0.39683 -1.19559,-1.41093 -1.66795,-0.28098 -0.2786,0.29393 0.3276,0.7458 0.2373,0.2905 1.4492,0.80527 -0.1162,0.17087 -0.2114,0.0728 -1.62217,-0.46039 -0.4718,-0.70068 -0.1134,-0.88559 -1.49708,-0.61488 -1.41162,-0.6692 -0.3157,-0.63503 0.2905,-0.23548 0.2058,-0.4662 -0.77587,0.0858 -0.4865,0.29498 -0.7868,0.28644 -0.035,0.46858 0.1246,0.43406 -0.2604,0.63133 -0.2527,1.09956 0.1603,0.57693 1.70484,1.65429 0.5831,1.20176 0.4186,0.45563 0.87227,0.50245 0.90985,0.93516 0.3857,0.48741 0.2751,0.7974 -0.76559,0.49357 -0.44589,0.0203 -0.2471,-0.2191 0.34509,-0.54376 -0.049,-0.33123 -1.18194,-0.51303 -0.5005,0.17297 -0.5768,0.33425 0.3297,0.62033 0.3703,0.40915 0.1862,0.56434 0.70819,-0.049 -0.95361,0.63161 -0.8948,0.32263 -0.88046,0.0189 -0.5607,0.0588 -0.1932,0.16169 0.4557,0.1176 0.3724,0.0105 0.6055,0.34146 1.72402,0.4095 0.82166,0.51751 0.8066,0.0469 0.81214,0.94985 1.40475,0.2529 0.80052,0.95874 1.06434,0.18865 0.91672,0.35343 0.2688,0.33733 0.1337,0.60906 0.056,1.29131 0.1981,0.96181 0.007,0.30387 -0.049,0.45423 -0.2492,0.22323 -0.3367,0.007 -0.6594,-0.70718 -1.0117,-0.74409 -1.06638,-0.88525 -0.3031,-0.15554 -0.2478,-0.0147 -0.57049,0.29939 -1.58599,0.23142 -0.74374,0.32333 -0.2793,0.0714 -0.0777,0.16989 0.3486,0.17668 0.427,0.40467 v 0.55334 l 0.35279,0.67228 0.4557,0.17367 0.5943,-0.0147 0.3402,0.12439 0.0882,0.26761 0.3451,0.31241 0.22749,0.23142 -0.007,0.16576 -1.65696,0.44022 -0.3465,0.20132 -0.2905,0.1029 -0.43049,-0.20951 -0.028,-0.53766 -0.5698,-0.28847 -0.5222,-0.2471 -0.6258,-0.10598 -0.53269,-0.37016 -0.3472,0.30079 0.2772,1.04179 0.60199,0.71743 1.00758,1.92465 0.4571,1.13647 0.0924,0.54992 -0.2275,0.91293 0.4949,0.67844 0.33879,0.69657 -0.37309,-0.0266 -0.3241,-0.24577 -0.5432,-0.28987 -1.05406,-1.11118 -0.36679,-0.69348 -0.4389,-0.0546 -0.76153,0.0995 -0.83537,1.48099 0.003,0.84868 -0.4319,-0.20202 -0.3703,-0.26453 0.042,-0.92831 -0.035,-0.38997 -1.01374,-1.26464 -0.4648,-0.14182 -0.21699,-0.42756 -0.3731,-0.45528 -0.4809,0.0872 -0.3934,0.18494 -0.1085,0.68803 -0.042,0.61691 -0.2933,0.46451 -1.08009,-0.88148 -1.08626,-1.52407 -0.028,-0.83603 0.79569,-0.7622 -0.0952,-0.54551 -0.75327,-1.07666 -1.08555,-0.69251 -0.6083,-0.2058 -0.2856,-0.73622 -0.5824,-0.38038 -0.47109,-0.17703 -0.0931,-0.26215 0.1421,-0.19376 1.14155,-0.75707 0.6692,-1.18467 0.3325,-0.0567 0.68319,0.28098 0.76769,-0.0735 0.63,-0.69384 0.5341,-0.37737 0.90026,0.0483 2.033,0.92729 2.18476,0.52843 1.08969,0.46416 0.6167,0.46004 0.32759,0.0953 0.5173,0.0651 -0.021,-0.34419 -0.1666,-0.30422 0.4312,-0.16576 1.17096,0.009 0.2135,-0.16134 0.21699,-0.2611 -0.24219,-0.29666 -0.3878,-0.14252 -0.4144,-0.0399 -0.273,-0.094 -0.4403,0.095 -0.6867,-0.22932 -0.35489,-0.189 -0.2086,-0.19446 -1.19357,-0.38794 -1.13196,-0.65519 -0.2548,0.37085 -0.4571,0.20097 -0.6517,0.028 -1.8307,-0.41734 -1.12447,0.31857 -0.6132,0.0834 -0.469,0.007 -0.5768,0.14287 -0.66569,0.0855 -0.5768,-0.605 -0.2429,-0.46893 -0.1708,-0.0875 -0.007,0.44058 -0.1855,0.35308 -0.8449,0.19858 -0.48579,-0.27376 -0.3738,-0.83022 -0.4732,-1.05513 -0.83265,-0.85209 -0.67479,-0.22253 -0.056,-0.46823 0.063,-0.37429 0.81073,-0.0926 1.26742,0.39172 0.2618,-0.0779 0.2849,-0.18046 -0.056,-0.39991 -0.1834,-0.35545 -0.3486,-0.0161 -0.2415,0.042 -0.77931,-0.0735 -1.00148,0.19754 -0.4641,-0.18627 -0.1547,-0.22624 -0.83741,-0.56154 -0.72393,-0.75297 -1.17236,-0.50281 -0.76559,-1.5309 -0.64399,-0.66822 -0.6867,-0.47712 0.1491,-0.009 0.2604,0.081 0.4991,0.2625 0.53059,0.0567 0.2898,-0.17395 0.1666,-0.1596 0.1085,-0.26179 0.042,-0.30555 0.0861,-0.10115 0.4053,0.0343 0.1288,-0.0762 -0.005,-0.27412 -0.2618,-0.34181 -0.2303,-0.42112 -0.001,-0.20062 0.1911,-0.0813 0.3164,-0.18284 0.1701,-0.22596 0.336,-0.11277 0.49699,-0.0203 0.5544,-0.0991 0.3584,-0.24303 0.056,-0.24066 0.224,-0.66241 0.1463,-0.32403 0.2366,-0.29568 0.1288,-0.39886 0.252,-0.37491 0.52919,-0.15722 0.4795,-0.18529 0.3626,-0.48293 0.2023,-0.41356 0.001,-0.25326 -0.3024,-0.41391 -0.2247,-0.40263 0.056,-0.52227 0.95018,-0.0441 0.3332,-0.049 1.23318,-0.028 0.5628,-0.28028 0.3892,0.0252 0.81276,0.24269 0.3626,-0.19173 1.06372,-0.3787 1.04999,-1.09888 0.4473,-0.16478 1.01857,-0.0672 0.31919,-0.12683 0.3724,0.0245 1.14156,0.22252 0.64959,0.0343 0.77042,-0.15176 0.84833,-0.2683 0.2121,-0.9396 0.2016,-0.13468 0.52779,-0.0378 0.3969,0.008 0.76699,0.0745 0.91258,0.0252 0.5873,-0.44022 0.92561,-0.0329 0.4291,-0.0637 0.71707,0.0889 0.6951,-0.005 0.89005,-0.18354 0.82984,-0.30079 0.6489,0.0259 0.2646,-0.0546 0.1512,-0.063 0.1617,-0.40705 1.22023,-0.0252 0.4137,0.0406 0.6811,0.0105 0.70818,-0.22183 0.2128,0.0189 0.3577,0.59612 0.1869,0.17262 0.3857,0.15925 0.85862,0.44709 0.1547,-0.1176 0.35769,-0.14938 1.02676,0.20475 0.97888,0.34453 0.82438,0.50554 0.91539,-0.1456 1.01576,-0.24815 0.6608,-0.0721 0.71715,-0.0343 0.427,-0.10766 0.96858,0.12957 1.00149,-0.27138 0.483,-0.24542 0.13859,-0.34384 -0.0812,-0.60669 -0.2261,-0.60669 -0.2401,-0.22386 -0.0763,-0.23142 0.1365,-0.21636 0.1533,-0.15071 0.65239,-0.12684 0.84217,0.19075 0.6279,0.14154 0.3633,0.23071 0.22749,0.21091 0.3465,0.18214 0.2576,0.042 0.1988,0.62377 0.1057,0.7728 -0.1582,0.33327 z"
       id="path170"
       style="opacity:1;fill:#edd132;fill-opacity:1;fill-rule:nonzero;stroke:#505050;stroke-width:0.5;stroke-linecap:round;stroke-linejoin:round;stroke-miterlimit:4;stroke-dasharray:none;stroke-opacity:1" />
  </g>
</svg>
