<?xml version="1.0" encoding="UTF-8" standalone="no"?>
<svg
   viewBox="-180.25 1.1503906 183.63124 92.34671"
   version="1.2"
   id="svg486"
   width="183.63124"
   height="92.34671"
   xmlns="http://www.w3.org/2000/svg"
   xmlns:svg="http://www.w3.org/2000/svg"
   xmlns:rdf="http://www.w3.org/1999/02/22-rdf-syntax-ns#"
   xmlns:cc="http://creativecommons.org/ns#"
   xmlns:dc="http://purl.org/dc/elements/1.1/">
  <metadata
     id="metadata492">
    <rdf:RDF>
      <cc:Work
         rdf:about="">
        <dc:format>image/svg+xml</dc:format>
        <dc:type
           rdf:resource="http://purl.org/dc/dcmitype/StillImage" />
      </cc:Work>
    </rdf:RDF>
  </metadata>
  <defs
     id="defs490" />
  <g
     id="layer27"
     transform="translate(-208.48318,86.75956)"
     style="display:inline">
    <path
       class="polygon"
       d="m 30.491114,-9.5178196 0.021,0.83158 -0.6447,-0.063 -0.2898,-0.31892 -0.084,-0.2037 0.049,-0.48124 -0.1449,-0.4963004 0.1904,-0.2464 0.2338,-0.0336 0.4172,0.44163 z m -0.89005,-5.4389904 -0.6202,0.0885 -0.49769,-0.0755 0.1778,-0.66857 0.26039,-0.10941 0.3766,-0.0385 0.4046,0.35784 z m 22.00819,-15.77113 -0.6867,0.005 -0.8148,-0.10801 -0.51099,-0.22897 -0.0791,-0.20202 0.94058,-0.25123 0.94612,-0.147 0.4382,0.27615 0.035,0.45458 z m 2.57648,-2.30678 -0.80255,0.0161 -0.483,-0.15652 1.14912,-0.31275 1.80333,-0.29736 0.1715,-0.189 0.2184,-0.0231 0.3115,0.2324 0.042,0.31822 -0.1981,0.15756 z m 19.32446,-8.39107 -0.3668,0.19481 -0.81556,-0.15652 -1.60986,0.12096 -0.64889,-0.1904 0.51519,-0.37051 1.45264,-0.38829 0.78133,0.0175 0.79506,0.47782 z m 5.15562,-5.32449 -0.4627,0.21567 -0.86478,-0.0616 -0.0924,-0.18494 0.2464,-0.37051 0.525,-0.15414 0.679,0.0301 0.2163,0.15484 z m 3.79118,-1.92807 -0.5607,0.0203 0.005,-0.28609 0.3213,-0.26011 0.5096,-0.1736 0.6552,-0.0462 0.73283,-0.0196 0.22189,0.13776 -0.42139,0.1948 z m -0.6279,-0.98916 -0.64819,0.0462 0.1078,-0.30897 0.52429,-0.29323 0.2009,-0.20062 0.1043,-0.23583 0.4627,-0.17878 0.6538,0.22834 0.014,0.38829 -0.3241,0.35378 z m 3.86301,-12.81595 -1.03432,0.37015 0.3773,-0.6757 0.5586,-0.68397 0.77245,-0.39102 0.38359,0.15344 -0.1757,0.32711 0.003,0.32368 -0.16519,0.15309 z m 6.30746,-2.73847 0.4165,0.11963 1.08758,-0.035 0.2177,0.0448 -0.1547,0.19754 -0.47249,0.21735 -0.9912,0.13328 -0.4459,0.33187 -0.3192,0.11277 -0.85588,10e-4 -0.5054,0.0766 -0.6216,0.29533 -0.497,-0.2177 -0.13859,0.15449 -0.0903,0.27615 -0.2765,0.081 -0.85855,0.10017 -0.2093,-0.6433 0.3948,-0.23345 0.3094,-0.27888 0.4746,-0.0427 0.42489,0.0231 0.76489,-0.60052 1.04797,-0.17059 0.67479,-0.0189 z m 9.339916,-4.74446 0.91049,0.70478 0.4158,0.41188 -0.3367,0.77827 -0.88459,0.3927 -1.36513,0.07 -0.957736,-0.0322 -0.6034,-0.189 -0.0749,-0.21189 -0.34859,-0.0623 -0.91945,0.27209 -0.6391,0.0371 -0.81276,-0.21119 -0.2184,-0.33733 0.86267,-0.42315 0.399,-0.32879 0.95704,0.0294 0.2394,0.1022 0.54109,0.0637 0.329,-0.39613 -0.0756,-0.27377 0.2408,-0.1904 1.155976,0.13706 0.002,-0.74374 0.44869,-0.0525 0.1841,0.0287 0.3325,0.15687 z m 3.87252,2.67318 0.084,0.049 0.95361,-0.67402 1.05686,-0.21021 0.063,-0.2345 0.40949,-0.22694 -0.049,-0.37051 0.2086,-0.30114 0.539,-0.0797 0.336,-0.10185 0.3731,-0.056 0.67409,0.24339 0.3815,0.27034 0.4739,0.60466 -0.1967,0.58485 -1.26874,0.45597 -1.00835,0.20573 -1.01849,0.52367 -0.5117,0.42826 -0.4396,0.0926 -0.2779,-0.035 -0.2471,-0.10353 -0.5159,-3.4e-4 -0.56769,0.37155 -1.71514,0.30212 -0.67269,-0.0871 -0.028,-0.3705 -0.4011,0.0308 -0.6426,0.444 -0.6286,0.14833 -0.42209,0.0455 -0.775876,-0.16716 -2.08564,0.75674 -1.95579,0.14154 -0.644,-0.0875 -0.002,-0.46312 1.26398,-0.59233 1.03628,-0.41153 3.566336,-0.28742 2.22095,-1.22089 0.5369,-1.32651 0.525,-0.47887 -0.2464,-0.27069 -0.5978,-0.0476 -0.035,-0.41559 0.3115,-0.45422 1.16557,-0.62377 0.64749,-0.26558 1.05476,-0.75161 0.5089,-0.16919 h 0.5789 l 0.56979,0.19691 -0.1022,0.40264 -0.85518,0.72632 -1.26672,0.619 0.1547,0.44436 0.5047,0.36575 0.1239,0.62517 0.028,0.60193 -0.9604,0.81313 z m 12.19864,-7.24503 0.84154,0.40025 0.3787,-0.12236 0.74444,-0.0455 0.5537,0.14049 0.4529,0.25431 0.5369,0.0119 0.3367,0.33222 0.17149,0.43239 -0.38989,0.32298 -0.553,0.1463 -0.1498,0.38073 0.21,0.53318 -1.24005,0.18284 -1.43758,0.0813 -0.5621,-0.25501 -1.14981,0.4676 -1.1389,0.7287 -0.5488,0.0858 -0.035,-0.23071 -0.81822,-0.15925 -1.04797,-0.009 0.035,-0.17087 0.1904,-0.12068 0.9044,-0.17878 0.1806,-0.36911 -0.1638,-0.6587 0.1596,-0.31955 0.035,-0.22077 0.56909,-0.25837 1.94481,0.12131 0.2359,-0.2464 -0.1477,-0.15519 -1.00485,-0.27174 0.1547,-0.18284 0.72527,-0.16338 0.68669,-0.021 0.2065,-0.2765 0.035,-0.12033 z m 87.17154,-1.40376 -1.32958,0.20475 -0.154,-0.16849 0.2919,-0.26215 0.3493,-0.53556 0.5467,0.0217 0.553,0.20439 0.43539,0.24402 z m -64.23838,-2.05077 -0.37729,0.16268 -0.5789,0.0665 -0.3115,-0.10087 -0.4438,-0.0665 -0.4928,0.0301 -0.4144,-0.29806 0.049,-0.25018 0.5677,-0.33908 1.13477,-0.19278 0.91804,0.0793 0.2338,0.0984 z m -10.66879,0.16338 0.6209,0.38108 0.54949,-0.0364 0.1652,-0.14392 0.3752,-0.0711 0.7581,0.20132 -0.1085,0.34278 -1.0493,0.43239 -0.75333,0.61691 -0.9639,0.14322 -0.4634,-0.0745 -0.86127,0.35616 -0.6902,0.37016 -0.71575,0.46794 -0.042,0.24129 -0.1113,0.18459 -2.62156,0.18319 -0.95297,0.12131 -1.00961,-0.15652 -0.47879,-0.30968 0.15399,-0.16814 1.00758,-0.0672 0.035,-0.28713 0.2548,-0.17535 0.3262,-0.0957 0.2401,-0.36673 0.39829,-0.0957 0.74305,0.0902 0.5012,-0.26558 0.2821,-0.0448 0.3479,0.2198 0.1673,-0.30247 -0.1673,-0.27615 0.0875,-0.18627 0.96116,-0.48433 0.4158,-0.35307 0.5978,-0.22729 0.5761,0.0364 0.16729,-0.33495 -0.16729,-0.34286 0.063,-0.22351 0.50889,-0.54278 0.56,-0.0231 0.2569,0.4823 z m 3.58678,-1.05205 0.3563,0.082 0.3521,-0.0511 0.2926,0.0725 0.5859,0.36848 0.63069,0.1449 0.028,0.18557 -0.57749,0.18081 -0.76083,0.0546 -0.81487,-0.063 -0.2394,-0.23142 -0.25059,-0.38381 -0.6818,-0.37632 -0.1015,-0.32949 0.5936,-0.0518 z m 26.93484,-2.32831 0.1309,0.32746 0.049,0.26999 -0.6531,0.39067 -1.50457,0.51233 0.0861,0.13775 -0.5208,0.1316 -0.78064,0.0971 -0.4123,-0.0944 0.056,-0.43917 -0.1246,-0.1316 -0.59289,0.17395 -0.6167,-0.22316 -7e-4,-0.22456 0.1624,-0.19481 0.5698,-0.29631 0.95157,-0.20405 0.6279,0.0766 2.0904,-0.78374 0.2254,0.16408 z m 2.81574,-0.12649 -1.33301,0.27923 -0.77384,-0.24059 -0.3255,-0.24647 -0.049,-0.54718 0.1813,-0.33292 0.62509,-0.17192 0.4067,0.12579 0.1085,0.10528 0.73073,0.10325 0.85315,0.34313 z m -4.03934,-1.73871 -0.1372,0.21945 -0.23659,0.21364 -0.5733,0.22561 -1.65914,0.89311 -0.97474,0.14392 -0.3087,0.14014 -0.3899,0.0837 -1.21134,-0.12236 -0.3549,0.18116 -0.3353,0.12096 -0.87703,0.0469 -0.51449,-0.0392 -1.32965,-0.33117 -0.79085,-0.35854 -0.4284,-0.30659 1.22842,0.006 0.4382,-0.0742 0.82376,0.0644 0.49489,-0.31444 1.04797,0.0378 2.01179,-0.21875 0.73829,0.12201 1.68776,-0.73145 0.5285,0.0189 0.808,-0.20881 z m 31.20251,0.96489 0.70546,0.0957 1.51752,-0.28063 0.3934,0.25466 -0.483,0.63741 -0.0819,0.95703 -0.175,0.55852 v 0.50925 l 0.1883,0.27342 0.6097,-1.08383 0.2086,-0.27755 0.89214,-0.4081 0.3325,-0.82202 0.8722,-0.98608 0.983,-0.57288 0.5719,-0.15722 1.89566,0.0224 0.81347,0.21567 0.71778,0.47922 0.53619,0.19138 1.6898,0.2037 0.58029,0.25529 0.1085,0.15211 0.413,0.0301 1.14023,-0.36302 0.74038,-0.0602 1.20785,0.56567 -0.2429,0.41901 0.0714,0.13293 1.46222,-0.0273 1.21681,0.16443 2.31328,0.85791 0.2401,0.40096 -0.1155,0.48601 -3.32639,0.53592 -1.44171,0.51197 -2.35976,0.19754 -8.01301,-0.34251 0.1617,0.37016 5.57947,0.8104 0.3185,0.23142 -0.1785,0.4874 -0.003,0.39102 0.1043,0.26663 0.4109,0.24885 0.68249,0.1169 1.38768,-0.0616 0.68529,0.13363 0.4683,-0.19859 0.1743,-0.66654 0.4025,-0.14728 0.77861,0.19348 0.33879,0.7123 0.217,0.0738 0.392,-0.50827 0.77112,0.0364 0.83943,-0.0427 1.08696,0.0858 0.3808,0.92182 -0.014,0.32165 -0.1806,0.31206 -0.2513,0.1596 -0.5033,0.0693 -1.21407,-0.0287 -1.65018,-0.36505 -1.06504,-0.34349 -0.3318,-0.0147 -0.1428,0.042 0.2569,0.34524 -0.07,0.26453 -0.1603,0.28811 -0.2233,0.26145 -0.3115,0.2198 -0.65309,0.28266 -1.12931,0.22421 -3.111,0.4361 -0.24639,0.19278 -1.00149,1.21508 -0.2737,0.17843 -0.3661,0.15106 -1.06917,0.19586 -0.5173,-0.27034 -0.4151,-0.4088 0.0959,-0.40537 1.25034,-0.77758 1.16822,-0.55097 0.3297,-0.19075 0.6615,-0.55335 -1.34253,-1.38906 -2.38846,-0.42041 -2.72075,-0.63882 -0.99798,-0.34076 -1.55316,-0.70171 -1.10123,-0.62992 -0.99463,-0.0224 -1.09311,0.15827 -1.70554,0.57525 -0.99666,0.28952 -0.5467,0.0855 -0.1316,0.0126 -1.22093,-0.16408 -1.35828,-0.0343 -1.09171,0.0469 -0.4123,0.079 -1.52025,0.93173 -1.06435,0.47068 -0.5859,0.16198 -0.42629,0.27244 -0.35,0.44807 -0.77931,1.55482 -0.581,0.58688 -0.1302,0.35854 0.1365,1.08725 -0.1386,0.60193 -0.71161,0.49699 -0.4998,0.22386 -0.6608,0.0455 -0.8661,0.12712 -0.75607,0.28777 -0.5341,0.39242 -0.6013,0.87978 -1.01856,0.32438 -0.97272,-0.0926 -0.69439,-0.32438 -1.4889,-0.25088 -1.10949,-0.15995 -1.24544,-0.34559 -1.09717,-0.26285 -1.00352,-0.0525 -0.5698,0.33257 -0.45849,0.31171 -1.71171,0.25361 -0.96935,0.20062 -1.25783,0.0448 -0.5089,-0.22253 -1.82447,-0.14665 -2.17244,-0.1743 -0.6286,0.002 -0.19599,-0.39717 -0.5775,-0.55475 -1.54497,-0.9584 -0.63139,-0.33837 -1.18804,-0.79365 -1.38564,-0.81348 -0.196,-0.0203 -0.92764,-0.0273 -1.36107,0.0266 -0.86128,0.18494 -0.5432,0.23205 -0.0945,0.19278 0.52639,0.74032 -0.1631,0.18459 -0.2716,0.0888 -1.23528,-0.20783 -1.49365,0.014 -0.3759,0.22834 -0.91119,0.0252 -2.62709,0.0868 1.15941,0.60599 0.3836,0.24269 0.0763,0.35651 -0.2002,0.66275 -0.5558,0.56637 -0.6482,0.46074 -1.25026,0.45696 1.89832,0.4515 -1.28862,0.61011 -0.6027,0.23793 -0.6986,-0.0413 -1.25159,-0.21126 -3.0256,-0.51029 -1.44444,-0.19173 -1.29059,-0.0588 -0.6888,0.008 -2.73845,-0.43645 -0.5292,0.049 -0.98301,0.189 -0.1085,0.42448 0.063,1.05648 0.1449,0.81347 -0.3619,0.47033 -0.3626,0.31927 -1.09584,0.86064 -2.46364,-0.58478 -1.68097,-0.38759 -1.0787,0.51576 -2.70836,0.94575 -1.38634,1.86689 -0.0798,0.0609 -0.81893,0.47474 -1.04999,0.21804 -0.79499,0.10801 -0.4627,0.55545 1.0787,0.79638 0.5537,0.42042 0.51519,0.67844 -0.0952,0.43203 -0.12039,0.26866 -1.16074,0.54992 -2.47463,1.45297 -2.29004,1.51723 -0.93856,0.43582 0.4256,1.2872 -0.76222,0.37737 -1.55106,0.42693 -0.79295,0.16478 -0.854486,0.0967 -2.62296,0.17052 0.4669,1.37949 0.1764,0.61075 -0.004,0.36231 -0.2716,0.35273 -0.3241,0.67536 -0.4886,2.41444 -0.3738,0.25977 -0.51659,0.6545 -1.66117,1.57294 -1.3323,1.04556 -1.92156,1.50663 1.56267,0.47579 1.4287,0.34692 0.29609,0.53388 0.1967,0.89209 -0.049,0.60739 -0.54529,0.5462 -0.4242,0.38346 -0.2954,0.18697 -2.02887,-0.18627 -2.59762,-0.23933 -0.6727,-0.002 -1.51143,0.17227 -1.3636,0.35574 -0.7191,0.29806 -0.1925,0.11858 -0.90853,0.67843 -1.61531,1.20655 -0.88732,0.52667 0.2583,0.72598 -1.48539,1.40375 0.97138,1.41777 0.042,0.0462 0.5145,0.57316 -0.5397,0.36945 -0.2268,0.19859 0.077,0.65485 0.1414,0.73213 -0.126,0.42931 -0.049,0.47676 1.32272,2.14409 -0.014,0.50281 -0.063,0.32437 -0.4081,1.33404 -0.5481,1.79271 0.95704,0.47103 1.3631,0.56329 0.76496,0.22182 1.12993,0.66927 0.86268,0.65387 -0.1197,0.43407 -0.2485,0.47922 -0.3633,0.33494 -0.33949,0.46004 -0.1526,0.33873 -0.1617,0.0913 -1.50801,0.0371 -0.79701,0.12817 -0.4172,0.14357 0.1435,0.77382 0.91461,1.41744 0.7595,1.00795 0.2443,0.66444 -0.2506,0.6736704 -0.259,0.34489 -0.007,0.46452 -0.1995,0.92456 -0.58869,0.46724 -0.77042,0.5096 -0.85932,0.38045 -0.68179,0.10696 -0.5852,0.0441 -0.3934,0.19348 -0.3563,0.5684 -0.329,0.59709 -1.07456,0.73418 0.028,0.25564 0.4095,0.87022 0.38359,0.99086 -0.3241,0.92627 -0.27719,0.97239997 -0.4858,0.64806 -0.6944,0.23142 -0.5103,-0.1155 -0.57679,-0.88901 -0.014,-0.2044 -0.1435,-0.27173997 -1.63653,-0.27069 -0.2891,0.01 -0.64329,-0.15862 -0.3773,-0.0448 -0.77385,-0.0916 -0.64329,-0.78441 -0.6839,-0.65247 -0.0973,-0.27272 0.021,-1.2202 -0.2093,-0.54278 -0.063,-0.59164 -0.4298,0.48125 0.2492,0.76084 -0.5306,0.31927 -0.66919,0.15519 0.063,0.44569 0.27509,0.0844 0.056,0.46277 -0.1624,0.68495 -1.31725,1.52303997 -0.266,0.16373 -0.1806,0.20573 -0.67409,-0.13671 -0.86478,0.4242 -0.81893,0.0679 -0.29679,-0.47985 -1.15528,-0.63503997 -0.5453,0.0357 0.4893,0.31338997 0.4823,0.4074 -0.2744,0.26971 -0.2695,0.17605 -0.4718,0.0913 -1.68776,0.53318 0.6006,0.35819 -0.5103,0.40677003 -0.5901,0.0595 -0.3143,0.19005 -0.1092,0.25802 -1.74796,0.7352 -2.8492,1.88568 -1.46425,0.53284 -1.02263,0.55405 -0.90096,-0.014 -1.13274,0.47103 -2.86767,0.41321 -1.90239,-0.18697 -1.32481,0.16408 -0.71029,-0.32403 -0.0924,-0.22253 0.035,-0.12922 0.119,-0.15484 -0.2464,-0.0553 -0.51939,-0.0266 -0.2219,0.15617 -0.028,0.35476 -0.2471,0.0926 -0.98637,-0.203 -0.2478,-0.18284 0.3549,-0.37051 0.6069,-0.33362 -0.1099,-0.0686 -0.1183,-0.20265 -0.2961,-0.0259 -0.88255,0.049 -0.71708,-0.0595 -2.34065,-0.75023 -0.5467,-0.40026 -1.88803,-0.63917 -0.8463,-0.67745 -0.4802,-0.74273 0.035,-0.67298003 0.2317,-1.06777 0.3962,-0.26389 1.69462,0.37393 1.71311,0.62447 0.2681,-0.0308 0.53829,-0.49014 1.04384,-0.39374 -0.2954,-0.10871 -1.55175,0.45149 -0.5768,-0.25017 -0.89481,-0.5096 V -1.0518596 l 0.4172,-0.2625 0.1386,-0.35476 -0.2184,-0.33495 0.1015,-0.45563 0.6916,-0.48362 1.03767,-0.48944 0.74718,-0.47236 0.76762,-0.29085 -0.0798,-0.0971 -0.87773,0.18522 -0.83943,0.31409 -0.98847,0.52633 -1.20519,0.42693 -0.89067,0.16541 -0.4242,0.13705 -0.6531,0.13328 -0.67549,0.6118 -0.73696,0.26215 -1.32342,0.0266 -0.29119,-0.44744 0.37379,-1.59037 0.3997,-0.77451 0.4389,-0.54789 0.6902,-0.0923 0.4823,-0.40124 h 0.40039 l 0.3486,0.18529 1.34876,0.17976 0.66569,-0.51135 0.86611,-0.0748 1.57905,-0.51575 -0.035,-0.094 -1.0684,0.11347 -0.6482,0.0168 -0.92903,0.12957 -0.4935,-0.0926 -0.231,-0.38626 0.3717,-0.34797 1.49022,-0.8309 0.5138,-0.364 0.2933,-0.34006 -0.049,-0.23142 0.2471,-0.47852 1.45739,-0.83638 1.18537,-0.3821204 0.3892,0.3287804 -0.3311,1.02881 0.003,0.42483 0.93856,-1.50014 0.413,-0.3565004 0.4704,-0.25158 1.13819,-0.16884 0.322,-0.23618 -1.32551,0.0783 -3.21558,0.57183 -1.35554,0.5099404 -0.3612,0.3927 -0.94066,0.59199 -0.441,0.38451 -0.1946,0.56433 -0.52989,0.3066 -0.71435,0.11347 -0.9926,0.71572 -0.43749,0.57526 -0.98777,0.45836 -0.6272,0.35238 -0.2058,0.12579 -0.3388,0.34656 -0.28139,0.0245 -0.2457,-0.203 -0.042,-0.44708 0.1008,-0.71401 0.47529,-0.51373 0.2268,-0.50176 -0.3157,-0.46858 0.2184,-0.29568 0.4186,0.0105 0.77721,0.13468 0.82649,-0.0217 1.35827,-0.37016 -0.217,-0.21636 -0.5866,-0.0308 -1.09507,0.0308 -0.92078,-0.36127 -0.71575,-0.7188 -0.32549,-0.9604404 0.2177,-0.27447 2.64822,-0.97822 0.71302,-0.44401 -0.413,-0.0441 -0.99399,0.53865 -1.42324,0.33424 -0.89753,-0.46486 -0.4669,-0.50071 -0.2688,-1.05717 0.0973,-0.54313 -0.112,-0.71435 0.6076,-0.23205 0.67969,0.12341 0.6699,0.0455 1.51963,-0.0623 3.35095,-0.42861 2.16012,0.25466 0.8778,-0.0231 1.34322,-0.36911 1.17579,-0.0378 0.87905,0.28196 0.4809,0.32333 0.056,0.43274 0.4067,0.28846 0.2751,-0.0937 -0.2184,-0.34278 -0.042,-0.53116 3.53421,-0.60193 0.4165,-0.2338 -1.40412,-0.0813 -0.4011,-0.54894 0.74172,-0.83056 -0.07,-0.10766 -0.78001,0.4382 -0.3843,0.61656 0.1526,0.49217 -0.1547,0.22869 -0.71708,0.10493 -1.61671,0.0378 -1.03767,-0.20881 -0.9611,-0.11347 -0.3276,-0.15757 0.1092,-0.35133 -0.182,-0.0725 -0.3976,0.31584 -0.35349,0.62958 -0.76356,0.1449 -2.10685,-0.2338 -3.05017,0.13776 -1.36856,0.31681 -0.88662,-0.0413 -1.52508,-0.55509 -0.5957,-0.44128 -0.2219,-0.8897 0.0896,-0.39137 1.18804,-0.1647 0.60059,0.0119 0.5628,-0.21021 -0.4977,-0.13671 -0.69999,-0.26831 -0.4774,-0.53767 -0.71911,-0.17535 -0.4823,-0.45836 -0.1225,-0.69215 0.1379,-0.48125 0.385,-0.15484 0.92351,0.10528 2.43837,-0.0806 2.2955,0.48874 1.55791,0.2772 3.15615,-0.13944 1.84841,-0.43645 -0.3388,-0.12068 -2.00493,0.25221 -1.85324,-0.0105 -3.26689,-0.49322 -1.33979,-0.15897 -1.44312,0.0701 -0.75123,-0.14973 -0.4417,-0.48776 0.3269,-0.93276 0.68389,-0.20132 0.3703,0.24339 0.4473,0.0154 0.4529,-0.38962 0.4333,-0.22218 0.34299,-0.50245 1.29402,-0.47614 0.5467,-0.0406 0.78406,-0.21945 0.5005,0.0623 0.3206,0.22015 0.4053,0.18249 0.87842,-0.0224 2.59769,-0.38143 0.2793,-0.11214 0.5068,-0.31346 -1.64681,0.13979 -1.36787,0.22253 -0.87905,0.0616 -0.1239,-0.2779 0.3241,-0.24675 0.50889,-0.2625 0.2478,-0.44743 0.5607,-0.19103 0.6055,0.0105 1.25229,-0.0813 0.88389,-0.1162 1.51556,0.0779 2.25854,0.17122 1.45607,0.41628 0.54809,-0.0378 0.581,-0.11074 0.2632,-0.15105 -1.14296,-0.17297 -0.063,-0.24647 0.1414,-0.18592 1.86417,-0.34251 2.03573,-0.0759 -0.35,-0.2758 -4.45975,0.41629 -1.16417,-0.28406 -0.91874,0.002 -0.6013,0.16233 -1.71443,0.19656 -0.315,-0.13979 0.3262,-0.48257 1.02675,-0.7916 0.0854,-0.19411 0.4767,-0.1904 2.66391,-0.45941 1.27973,-0.53354 0.5768,-0.0679 0.5719,0.0371 0.87016,-0.0623 1.68168,0.15281 0.77377,0.66822 0.6958,0.20986 2.18819,0.835 -0.098,-0.2403 -1.89433,-1.13134 -0.72394,-0.27993 -0.54039,-0.55545 0.18549,-0.52499 0.609,-0.35035 2.16082,-0.18767 0.3878,-0.20265 0.042,-0.34832 -0.3311,-0.23821 -0.79498,0.014 -0.6552,-0.14763 -0.1806,-0.37527 0.2618,-0.25361 1.2462,-0.46241 0.6825,-0.15008 1.18124,-0.16303 2.05415,0.36575 0.1561,0.19173 -0.5754,0.46108 0.056,0.25872 0.5033,0.0287 1.17305,-0.77724 1.37948,-0.10731 0.5705,-0.16716 0.6622,-0.10493 0.94744,0.70274 0.4151,0.22491 0.3115,0.0923 0.3024,0.58512 0.2926,0.0308 0.4172,-0.2933 0.75606,-0.15449 1.06029,-0.10185 1.75615,0.15484 0.79499,-0.11452 0.3899,0.0161 -0.3738,-0.52534 -0.2317,-0.15176 0.3619,-0.46893 0.3773,-0.18319 1.21337,-0.32914 1.15731,-0.147 0.75536,-0.31241 1.01444,-0.28714 -0.1596,-0.23001 -0.2821,-0.26628 -0.6559,-0.0168 -0.2681,-0.14525 0.83335,-0.34524 1.14086,-0.38353 -0.1988,-0.15071 -0.85785,-0.17052 -0.6517,0.12852 -0.96865,0.29666 -1.12658,0.46928 0.3668,0.13671 0.5642,0.39445 -0.7868,0.52499 -4.16995,1.39419 -1.98855,0.40845 -0.91719,-0.0637 -0.2184,-0.38108 -0.4235,-0.28196 -0.4536,-0.58107 -0.77181,0.0154 -0.4382,0.12852 -0.1911,-0.1904 0.3325,-0.62069 0.6531,-0.49048 1.09514,-0.37051 0.525,-0.44744 0.49351,-0.70991 1.58388,-0.67543 2.30572,-1.67069 1.87852,-0.53319 0.68809,-0.58275 1.10677,-0.25774 0.94471,-0.45457 0.74165,-0.0448 1.34736,-0.40915 0.76362,-0.48671 -0.4984,-0.0301 -1.18467,0.31682 -0.6699,0.12747 0.049,-0.52227 0.3248,-0.53557 0.97615,-0.48944 4.69215,-1.42186 0.46829,0.23512 0.56,0.41566 1.41302,-0.094 1.60985,-0.80492 1.24004,-0.87398 -0.66989,0.15246 -0.7315,0.35784 -1.42526,0.49728 -0.6587,0.0786 -0.3759,-0.0644 -0.2093,-0.33187 -0.4942,-0.10766 -0.44659,0.0745 -0.4599,-0.23583 -0.0819,-0.5824 0.58869,-0.86713 0.4662,-0.5735 0.504,-0.43407 1.98036,-1.23183 0.4277,-0.67234 0.89551,-0.35476 1.16346,0.079 0.3507,-0.10255 -0.399,-0.44058 -1.26804,-0.3493 -0.0777,-0.21945 4.22322,-0.57624 2.01109,0.0196 0.5971,-0.28742 1.09304,-0.18423 0.82852,-0.3514 -0.427,-0.15519 -2.04259,0.32298 -1.27693,0.15176 -0.5775,-0.005 -0.4508,0.11109 -1.63239,0.0427 -0.3549,-1.40103 0.2555,-0.76014 0.6083,0.0154 0.13859,-0.72563 0.70273,-0.42721 0.96999,-0.0957 0.4886,-0.18284 0.70615,-0.37219 1.16823,0.0865 1.20042,-0.0831 -0.2975,-0.17535 -1.49022,-0.22589 -0.3675,-0.38794 0.5257,-0.21672 0.5719,-0.15925 0.50259,-0.0287 0.99526,-0.75742 0.6048,-0.32298 0.67759,0.056 0.94339,-0.33397 0.92624,0.11382 0.8962,-0.2184 1.2243,-0.1442 4.480956,-0.056 0.133,-0.30968 -0.94269,-0.0718 -3.329736,-0.0797 -1.70009,0.006 -0.71574,0.0804 -0.2632,-0.10801 0.049,-0.18522 0.61809,-0.29323 0.2933,-0.32403 1.23529,-0.79091 1.4485,-0.52668 1.110126,0.13468 1.18061,0.50316 0.84147,0.063 0.392,0.16268 0.61319,0.69418 0.2905,0.0224 -0.1316,-0.66716 0.81074,-0.54278 -0.2114,-0.15008 -1.21813,0.19621 -0.9331,-0.20405 -0.73696,-0.4074 -0.2107,-0.37254 0.4578,-0.36813 0.4319,-0.18529 -0.2933,-0.21601 -1.84155,0.57903 -1.302896,0.13468 -0.5131,-0.081 0.2779,-0.52465 -0.1554,-0.41628 1.746556,-1.02505 0.6006,-0.11858 0.9809,0.0824 0.88529,0.28917 0.74032,-0.0462 0.80324,-0.15449 -0.1092,-0.2772 -1.7418,-0.11004 -0.4487,-0.23002 0.1617,-0.22596 1.1956,-0.23856 1.18873,-0.43063 1.36241,-0.12474 1.09647,-0.32571 0.2114,0.0738 0.1855,0.12782 0.3941,1.2079 0.97957,0.9854 0.3612,0.0357 -0.3759,-0.83843 0.3507,-0.24094 0.4445,-0.18319 0.1386,-0.20853 -0.5096,-0.0711 -0.4165,-0.29939 -0.59499,-0.95703 0.20299,-0.2485 1.28863,-0.50959 1.61664,-0.11725 1.72269,0.35721 0.6048,0.004 0.99869,-0.096 1.69462,-0.29358 0.99673,-0.11179 0.52009,3.4e-4 0.1288,-0.14833 -0.48159,-0.0953 -0.1554,-0.0926 -0.378,-0.0532 -1.56681,0.15862 -4.32234,-0.0504 -0.41719,-0.16954 -0.0763,-0.29323 0.45849,-0.42077 0.504,-0.2317 1.62966,-0.41733 1.72536,-0.0567 1.81768,-0.74136 0.6944,-0.55572 0.39409,-0.85654 1.1081,-0.69251 2.77815,-0.39375 0.112,-0.1743 -0.2947,-0.35993 0.021,-0.64841 0.76153,-0.75502 0.50609,-0.2625 0.2338,-0.0315 0.5992,0.24675 0.72728,0.52499 1.14023,0.30079 1.49435,0.0518 0.3983,-0.14798 -1.16144,-0.29974 -0.87905,-0.39164 -0.07,-0.39347 0.4172,-0.20846 0.64819,0.0231 0.81347,-0.0441 0.7581,-0.26453 0.1099,-0.18592 0.028,-0.25228 0.1897,-0.25669 1.11215,-0.61215 3.42824,-0.39815 0.24779,0.16163 -0.18549,1.1809 -0.3941,0.76391 0.014,0.55853 0.66709,-0.55853 0.89481,-1.52816 0.6713,-0.71743 0.75879,-0.41188 0.5418,-0.093 0.5369,-0.21329 0.70819,-0.12677 0.217,0.16373 0.22399,0.3801 -0.38149,1.33471 0.035,0.4221 -0.427,0.56567 -1.63379,1.26123 0.0749,0.161 0.3689,-0.0595 0.6328,-0.20818 2.02348,-1.198 1.7691,0.15106 0.021,-0.0981 -0.56769,-0.3514 -0.693,-0.33663 -0.2086,-0.41663 0.0931,-1.11118 0.5327,-0.43988 1.52781,0.0462 0.91532,-0.0609 0.427,0.19999 0.91671,-0.0147 0.6342,-0.79604 1.2544,-0.07 1.10123,0.52605 1.32551,0.35412 1.06505,0.50925 0.301,-0.13909 -0.5747,-1.18774 -0.6286,-0.43274 -1.36443,-0.2249 -1.45194,-0.53389 -0.37869,-0.23653 0.07,-0.17605 1.28099,-0.16989 1.69056,0.19446 1.50661,-0.44436 0.41229,0.12166 1.15528,-0.2324 0.71778,0.31276 0.4396,-0.0926 0.2548,-0.41902 1.84365,-0.26012 1.16963,0.23996 0.6265,0.2485 0.2912,0.47747 0.4459,0.94439 0.91328,0.50959 0.567,0.25018 0.672,0.0693 0.3241,-0.25466 -0.6293,-0.30659 -0.1694,-0.28882 0.3017,-0.71675 0.3521,-0.28161 1.9728,-1.06606 1.65157,-0.553 0.98917,-0.0462 1.72948,-1.23934 0.49,-0.22526 0.4508,-0.0518 -0.1155,-0.30317 -0.94745,-0.19173 -0.035,-0.37527 1.24824,-0.45661 1.51346,-0.7663 0.74718,-0.0518 0.4683,0.21294 1.47377,0.34587 0.90307,0.39613 0.6545,0.19964 0.4249,-0.0413 0.3514,-0.29771 0.42209,-0.13944 0.93717,0.0783 0.55929,0.19138 0.4354,0.0252 0.3941,0.11585 0.0931,0.25466 -0.81074,0.27755 -1.38151,0.73622 -1.3631,0.83705 -0.4501,0.44093 -0.4403,1.15767 -1.06505,0.74066 -0.0805,0.51954 0.4277,0.24472 1.17579,-0.19208 1.4492,-0.69314 0.3619,-0.73554 3.62304,-1.9937 1.69939,-1.10057 1.93255,-0.91123 1.08072,-0.18865 0.5089,0.60326 -0.4095,0.78817 -0.82095,0.50281 0.60479,0.23037 -0.11549,0.59745 -0.1883,0.33186 -0.1204,0.34762 0.007,0.3066 0.56769,-0.0817 2.26267,-0.6279 0.5733,-0.67948 0.532,-0.50925 0.2548,-0.43988 0.87975,-0.41664 1.65977,-0.003 0.063,-0.16373 -2.00633,-0.57833 -0.2366,-0.26047 0.6748,-0.34657 1.858,-0.66206 0.955,0.0731 0.5705,0.15036 2.28661,0.11452 1.75405,0.47404 -0.07,0.74101 -0.3913,0.30968 -0.38499,0.19075 -2.24622,0.56258 z m -16.18197,-3.24911 1.87025,0.26761 0.6405,-0.005 0.92833,0.50042 0.4844,-0.0441 -0.0917,0.3059 -0.93855,0.1449 -1.4588,0.0882 -0.2177,0.0609 -1.24683,-0.049 -0.7,-0.41153 -1.16962,-0.10185 0.002,-0.13195 0.75739,-0.311 z"
       id="path326"
       style="opacity:1;fill:#2b96e2;fill-opacity:1;fill-rule:nonzero;stroke:#505050;stroke-width:0.5;stroke-linecap:round;stroke-linejoin:round;stroke-miterlimit:4;stroke-dasharray:none;stroke-opacity:1" />
  </g>
</svg>
