<?xml version="1.0" encoding="UTF-8" standalone="no"?>
<svg
   viewBox="-180.25 1.1503906 70.356606 41.219059"
   version="1.2"
   id="svg486"
   width="70.356606"
   height="41.219059"
   xmlns="http://www.w3.org/2000/svg"
   xmlns:svg="http://www.w3.org/2000/svg"
   xmlns:rdf="http://www.w3.org/1999/02/22-rdf-syntax-ns#"
   xmlns:cc="http://creativecommons.org/ns#"
   xmlns:dc="http://purl.org/dc/elements/1.1/">
  <metadata
     id="metadata492">
    <rdf:RDF>
      <cc:Work
         rdf:about="">
        <dc:format>image/svg+xml</dc:format>
        <dc:type
           rdf:resource="http://purl.org/dc/dcmitype/StillImage" />
      </cc:Work>
    </rdf:RDF>
  </metadata>
  <defs
     id="defs490" />
  <g
     id="layer28"
     transform="translate(-273.78975,-27.370239)"
     style="display:inline">
    <path
       class="polygon"
       d="m 132.12589,31.42069 0.2786,0.0848 1.96056,0.0916 1.98722,0.0926 3.19576,0.0988 3.33045,0.10388 3.4556,0.10731 3.73988,0.1162 3.94364,0.0686 0.2408,-0.0469 0.4025,-0.27307 0.4914,0.0371 0.57959,0.16919 0.2716,0.12614 0.1148,0.14322 0.0714,0.16576 0.3171,0.0329 0.5796,0.12614 0.78406,0.28777 0.6146,0.27887 0.5845,0.39921 0.1939,0.45115 0.014,0.51135 -0.035,0.32914 0.049,0.13398 0.79981,2.38402 1.33231,2.29789 0.4893,1.11186 0.1953,0.59199 0.1561,0.85859 0.049,0.60291 -0.006,0.33943 -0.0994,0.46654 -0.3955,0.2758 -2.5559,0.78852 -0.4809,0.24745 -0.75334,0.61488 -0.69439,0.63335 -0.1596,0.21637 -0.042,0.14252 0.1533,0.20783 0.91118,0.33943 0.91875,0.27244 0.2996,0.20405 0.67759,0.2611 0.2471,0.2345 0.1337,0.2044 -0.007,0.47165 -0.3059,0.65247 0.1281,0.49322 -0.31009,0.32844 -0.2555,0.36505 -0.035,0.63951 0.45919,0.70683 0.3752,0.48258 0.1456,0.37835 -0.1547,0.29701 0.049,0.29701 0.3346,0.31443 1.05889,0.97241 0.52219,0.93584 0.3339,0.3647 0.77042,0.47376 0.07,0.19446 -0.3087,0.17808 -0.2492,0.0238 -0.2023,0.0476 -0.1309,0.16646 0.2023,0.17807 0.273,0.26145 0.3388,0.74033 -0.035,0.60599 -0.2611,0.15414 -0.3339,0.35994 -0.2261,0.32879 -1.8265,0.22897 -0.4389,0.35203 -1.00008,0.68053 -0.6832,0.39137 -1.00898,0.70752 -1.5969,1.21645 -0.5887,0.5089 -0.43049,0.42077 -1.29199,1.1204 -0.3969,0.47033 0.0784,0.38724 0.4151,0.90917 0.0875,0.41048 -0.0728,0.3794 -0.1372,0.33768 0.021,0.15071 0.3815,0.24471 0.6083,0.38486 0.035,0.12957 -0.0861,0.16681 -0.21,0.12712 -0.7595,-0.13433 -0.84902,-0.26082 -0.2891,0.0315 -0.4592,-0.0602 -1.89356,-0.50343 -1.27694,-0.3941 -0.126,-0.25599 -0.2415,-0.37086 -0.54249,-0.31066 -1.24614,-0.26936 -0.5075,-0.21021 -2.02411,-0.1176 -0.87842,-0.005 -0.6223,0.0868 -0.3969,-0.008 -0.5474,0.54894 -0.3773,0.15925 -0.55159,0.0168 -0.4823,-0.0977 -0.4935,-0.28882 -0.79023,-0.15246 -0.57049,0.0735 -0.4207,-0.063 -0.3633,-0.0147 -0.126,0.0581 -0.2919,-0.008 -0.4235,0.13811 -0.46199,0.19516 -0.5103,0.14868 -0.392,0.31955 -0.35,0.62615 -0.99056,-0.28063 -0.3304,0.12166 -0.4669,0.0817 -0.3192,-0.0844 0.0749,-0.21567 0.1442,-0.24339 -0.007,-0.34006 -0.0917,-0.37527 -0.3066,-0.12201 -0.4613,-0.0448 -0.2373,-0.0742 -0.028,-0.12404 -0.23519,-0.15925 -0.4081,-0.40369 -0.3857,-0.50105 -0.2667,-0.14938 -0.3878,0.23856 -0.5873,0.27139 -0.36539,0.094 -0.70546,0.77997 -1.26742,0.0266 -0.0777,-0.36434 -0.133,-0.35 -0.74171,-0.0875 -0.021,-0.20545 -0.1568,-0.51506 -1.48609,-1.00864 -0.1806,-0.42077 0.056,-0.16233 -0.1029,-0.26761 -0.3234,-0.16135 -1.17439,-0.19207 -0.3024,0.11039 -0.27299,-0.11347 -0.427,-0.24129 -0.74242,-0.19621 -0.0805,-0.1015 -0.2674,-0.17262 -0.1484,-0.0231 -0.0959,0.10493 -0.2163,0.14833 -0.76285,0.18767 -0.3052,-0.0772 -0.2765,-0.16303 -0.3157,-0.3514 -0.4585,-0.30793 -0.378,-0.10941 -0.21559,-0.1617 -0.049,-0.12579 0.83943,-0.25256 0.1834,-0.26047 -0.1071,-0.47508 -0.1253,-0.0595 -0.3332,0.16065 -0.70069,0.14119 -0.6461,0.0651 h -0.3297 l -1.84295,-0.86475 -1.19833,-0.26452 -0.70475,-0.0766 -0.0763,0.0879 0.3192,0.48502 0.55019,0.5985 -0.028,0.1596 -0.66009,0.24472 -0.3745,0.10661 -0.4424,0.20783 -0.3731,0.28679 -0.3234,0.1302 -0.2793,-0.0329 -0.29749,-0.13846 -0.76363,-0.88525 -0.95977,-0.67781 -0.1141,-0.15176 -0.3003,-0.035 -0.42419,-0.15554 -0.1428,-0.20748 0.2128,-0.21672 0.29259,-0.19824 0.5187,-0.12236 0.1575,-0.11487 0.0924,-0.17325 0.1918,-0.22386 -0.049,-0.0806 -0.3675,-0.25361 -0.5439,-0.23961 -1.51073,0.17976 -0.4144,0.12817 -0.2338,-0.16681 -0.1771,-0.24374 -0.38219,-0.0462 -0.5229,-0.22253 -0.6209,-0.21707 -0.6062,-0.0644 -1.25985,-0.31479 -0.4851,-0.0168 -0.2814,-0.10836 -0.2926,-0.23786 -0.2492,-0.26082 -0.12949,-0.52877 -0.92827,-0.24031 -0.925606,-0.15036 -0.063,0.0766 0.035,0.53319 -0.049,0.28468 -0.60969,0.1764 -0.6048,0.0168 0.035,-0.0885 0.72254,-0.95975 0.32479,-0.60466 0.368896,-1.10332 -0.444496,-0.87089 -0.12319,-0.4074 -0.2072,-0.19586 -1.26875,-0.42385 -0.0966,-0.14735 0.1939,-0.5756 -0.0966,-0.24199 -0.3052,-0.25529 -0.4018,-0.50827 -0.15609,-0.43099 0.51239,-0.50722 0.1267,-0.37218 0.2226,-0.50995 0.1631,-0.27958 0.028,-0.0772 -0.336,-0.19859 -0.0854,-0.27888 0.091,-0.40194 -0.1785,-0.2977 -0.4501,-0.19348 -0.29189,-0.25564 -0.1351,-0.31857 0.1057,-0.50008 0.34789,-0.68187 -0.73758,-0.81962 -1.82244,-0.9584 -0.8757,-0.66989 0.0721,-0.38248 0.3836,-0.34622 0.69649,-0.31101 0.5278,-0.55167 0.2968,-0.65421 0.007,-0.12404 0.014,-0.46725 -0.81074,-1.91064 -0.1316,-0.47816 -0.0966,-0.57659 -0.049,-0.15757 1.60096,0.40432 0.6713,0.22764 -0.0833,-0.25564 -0.1358,-0.22015 0.0896,-0.32333 -0.042,-0.48776 -1.45264,-0.24885 -0.96046,-0.0841 -0.1078,-0.33803 0.0924,-0.21909 0.2653,0.12886 0.94408,0.0504 2.32077,-0.65519 4.008596,-0.85107 4.28133,-0.79843 0.99938,-0.0868 1.00492,-0.16814 0.371,-0.29876 0.37029,-0.19992 0.5831,-0.52668 1.28926,-0.8186 2.27975,-0.29806 0.85105,-0.38829 1.78416,-0.54383 4.0674,-0.61011 1.69868,-0.13398 1.66459,-0.0161 1.48204,0.48124 1.56883,0.59402 0.2821,0.35854 -0.84903,-0.22351 -1.23731,-0.53354 -0.4571,-0.0224 1.05616,1.62285 0.57749,0.57386 1.1676,0.4293 0.97887,0.14455 3.01601,-0.26012 1.07114,-0.33977 z"
       id="path350"
       style="opacity:1;fill:#3fe130;fill-opacity:1;fill-rule:evenodd;stroke:#505050;stroke-width:0.5;stroke-linecap:round;stroke-linejoin:round;stroke-miterlimit:4;stroke-dasharray:none;stroke-opacity:1" />
  </g>
</svg>
