<?xml version="1.0" encoding="UTF-8" standalone="no"?>
<svg
   viewBox="-180.25 1.1503906 22.465014 10.544209"
   version="1.2"
   id="svg486"
   width="22.465014"
   height="10.544209"
   xmlns="http://www.w3.org/2000/svg"
   xmlns:svg="http://www.w3.org/2000/svg"
   xmlns:rdf="http://www.w3.org/1999/02/22-rdf-syntax-ns#"
   xmlns:cc="http://creativecommons.org/ns#"
   xmlns:dc="http://purl.org/dc/elements/1.1/">
  <metadata
     id="metadata492">
    <rdf:RDF>
      <cc:Work
         rdf:about="">
        <dc:format>image/svg+xml</dc:format>
        <dc:type
           rdf:resource="http://purl.org/dc/dcmitype/StillImage" />
      </cc:Work>
    </rdf:RDF>
  </metadata>
  <defs
     id="defs490" />
  <g
     id="layer34"
     transform="translate(-268.5388,-83.19096)"
     style="display:inline">
    <path
       class="polygon"
       d="m 110.50383,87.13543 -0.6202,-0.17157 -0.74515,-0.0714 -0.14,0.0926 -0.29959,0.0944 -0.1519,0.16849 0.1162,0.66311 -0.1813,0.11382 -0.84693,-0.0658 -0.2793,0.0762 -0.4606,0.46179 -0.47179,0.19411 -0.5999,0.13846 -0.4431,0.16716 -0.5607,0.14524 -0.4781,0.0875 -0.1883,0.20167 -0.11479,0.22351 0.028,0.21532 0.48509,0.42518 0.063,0.45353 -0.056,0.55475 -0.1113,0.29595 -0.1911,0.19691 -1.19496,0.25501 -1.23935,0.45493 -0.028,0.10423 0.56559,0.40467 0.021,0.1008 -0.4676,0.23002 -0.042,0.23072 0.056,0.2669 0.2478,0.27482 0.0896,0.24675 -0.68179,0.17948 -0.92148,-0.0658 -1.091016,-0.34384 -0.38219,0.0504 -0.3703,0.17738 -0.378,-0.0762 -0.4165,-0.21189 -0.5887,-0.44092 -0.28629,-0.27034 -0.1176,-0.28812 -0.161,-0.042 -0.2443,0.0837 -0.2016,0.35035 -0.5446,0.62614 -0.4018,0.17024 -0.6083,-0.0364 -0.85245,0.0105 -0.5299,0.0511 -0.6496,-0.22113 -0.1575,0.0427 -10e-4,0.14525 -0.24149,0.22967 -0.3983,0.15008 -1.84436,-0.33873 -0.26109,-0.28098 0.41579,-0.13328 0.5775,-0.36161 0.3934,0.0392 0.4809,-0.0762 0.21,-0.15379 -0.3052,-0.45906 -0.76629,-0.56602 -0.4074,-0.21497 -0.56069,-0.14252 -0.0966,-0.15246 0.31009,-0.89277 -0.0938,-0.12684 -0.6398,0.042 -0.1505,-0.0933 -0.049,-0.15484 0.042,-0.21224 0.4312,-0.34692 0.47949,-0.30793 0.1288,-0.17262 -0.014,-0.13503 -0.61459,-0.13671 -0.3703,-0.14014 -0.294,-0.0483 -0.2016,0.0786 -0.1498,-0.0885 -0.1498,-0.25669 0.1491,-0.39137 0.553,-0.36161 0.5936,-0.3213 0.51659,-0.23415 0.2982,-0.10052 0.1421,-0.40159 0.308,0.042 0.6118,0.0217 0.6825,0.0913 0.63559,0.11214 0.5593,0.14182 1.17439,0.14833 1.06847,0.0895 0.322,0.0827 0.2632,-0.007 0.3241,0.12131 0.1911,-0.0926 0.1386,-0.16198 0.58239,-0.19138 0.5362,-0.24983 0.3766,-0.31821 0.2107,-0.25123 0.3682,-0.17808 0.39339,-0.0511 0.3591,-0.0892 1.514166,-0.11893 1.55581,0.0933 0.74242,-0.175 0.61109,-0.3066 0.89341,-0.0862 0.049,-0.004 1.3351,0.23548 0.1022,-0.13706 0.056,-0.0602 -0.028,-0.66857 0.4221,-0.30421 0.3913,-0.12922 1.33363,0.042 0.1743,0.2051 0.07,0.31821 0.119,0.42623 0.2219,0.11795 0.1218,0.16779 -0.021,0.29498 0.2604,0.22008 0.6104,0.59612 z"
       id="path410"
       style="opacity:1;fill:#cce532;fill-opacity:1;fill-rule:evenodd;stroke:#505050;stroke-width:0.5;stroke-linecap:round;stroke-linejoin:round;stroke-miterlimit:4;stroke-dasharray:none;stroke-opacity:1" />
  </g>
</svg>
