<?xml version="1.0" encoding="UTF-8" standalone="no"?>
<svg
   viewBox="-180.25 1.1503906 40.23539 13.340106"
   version="1.2"
   id="svg486"
   width="40.23539"
   height="13.340106"
   xmlns="http://www.w3.org/2000/svg"
   xmlns:svg="http://www.w3.org/2000/svg"
   xmlns:rdf="http://www.w3.org/1999/02/22-rdf-syntax-ns#"
   xmlns:cc="http://creativecommons.org/ns#"
   xmlns:dc="http://purl.org/dc/elements/1.1/">
  <metadata
     id="metadata492">
    <rdf:RDF>
      <cc:Work
         rdf:about="">
        <dc:format>image/svg+xml</dc:format>
        <dc:type
           rdf:resource="http://purl.org/dc/dcmitype/StillImage" />
      </cc:Work>
    </rdf:RDF>
  </metadata>
  <defs
     id="defs490" />
  <g
     id="layer33"
     transform="translate(-292.92834,-64.050503)"
     style="display:inline">
    <path
       class="polygon"
       d="m 152.66374,69.12587 -0.1022,0.28917 -0.28629,0.33698 -0.3584,0.34796 -0.2982,0.42042 -0.3976,0.89892 -0.2618,0.41461 -1.06637,0.82134 -0.077,1.14228 -0.1435,0.0837 -2.41037,0.38689 -0.3185,-0.0595 -0.3283,-0.22253 -0.182,-0.1617 -0.1127,-0.11928 -0.2093,-0.31619 -0.2758,-0.22421 -0.4095,-0.18319 -0.37309,-0.21258 -0.483,-0.008 -1.30221,0.30008 -0.90376,0.0329 -0.6027,-0.0964 -0.80185,-0.18186 -1.564,-0.0287 -1.0719,0.15959 -0.105,0.22253 -0.98847,1.39692 -1.43625,0.51478 -1.24754,0.52772 -0.3626,0.10696 -0.62019,-0.16576 -0.70616,-0.31346 -0.5866,-0.16302 -0.4277,0.0717 -0.4676,0.35511 -0.21349,0.35994 -1.41295,0.26355 -2.45685,0.15554 -0.85581,0.35378 -0.2926,0.42588 -0.014,0.32746 0.2079,0.27859 -0.2618,0.32473 -0.1148,0.13538 -1.73564,0.0711 -2.31468,0.095 -1.38355,-0.0245 -1.30227,-0.0231 -0.88662,-0.27825 -1.08212,-0.54382 -1.14366,-0.72324 -0.1099,-0.0168 -0.1701,-0.0769 -0.71841,-0.0539 -0.19109,0.0427 -0.4298,-0.23513 -0.1267,-0.3059 -0.6664,-0.8039 -0.75061,-1.32172 -0.021,-0.38143 0.2926,-0.43477 0.2723,-0.33187 0.042,-0.26355 0.028,-0.0717 0.2247,-0.54656 0.546,-0.727 0.5068,-0.4221 0.36959,-0.13909 0.7588,0.12684 1.30018,0.10528 0.99938,-0.0984 0.93177,-0.32402 0.5068,-0.28336 0.43259,-0.29771 0.1442,-0.19313 0.1918,-0.0926 0.77105,-0.17192 0.2457,-0.20027 0.1008,-0.3794 0.07,-0.42315 0.1589,-0.31345 0.1981,-0.22967 1.42736,-0.55202 0.1281,-0.19383 0.2289,-0.189 0.4214,-0.21126 0.40949,-0.3052 0.4333,-0.18732 0.5579,0.021 0.5145,-0.0385 0.4011,-0.10661 0.1764,-0.0112 0.74171,0.0875 0.133,0.35 0.0777,0.36435 1.26735,-0.0266 0.70545,-0.77998 0.3654,-0.094 0.5873,-0.27139 0.3878,-0.23856 0.2667,0.14938 0.38569,0.50106 0.4081,0.40369 0.2352,0.15925 0.028,0.12404 0.2373,0.0742 0.4613,0.0448 0.3066,0.12201 0.0917,0.37527 0.007,0.34005 -0.1442,0.24339 -0.0749,0.21567 0.3192,0.0844 0.46689,-0.0817 0.3304,-0.12166 0.9905,0.28063 0.35,-0.62615 0.39199,-0.31954 0.5103,-0.14868 0.462,-0.19516 0.4235,-0.13811 0.2919,0.008 0.126,-0.0581 0.3633,0.0147 0.42069,0.063 0.5705,-0.0735 0.79023,0.15246 0.4935,0.28882 0.48229,0.0977 0.5516,-0.0168 0.3773,-0.15925 0.5474,-0.54894 0.3969,0.008 0.62229,-0.0868 0.87843,0.005 2.02411,0.1176 0.5075,0.21021 1.2462,0.26936 0.5425,0.31066 0.2415,0.37086 0.126,0.25598 1.27693,0.3941 1.89357,0.50344 z"
       id="path408"
       style="opacity:1;fill:#f0e03b;fill-opacity:1;fill-rule:evenodd;stroke:#505050;stroke-width:0.5;stroke-linecap:round;stroke-linejoin:round;stroke-miterlimit:4;stroke-dasharray:none;stroke-opacity:1" />
  </g>
</svg>
