<?xml version="1.0" standalone="no"?>
<!DOCTYPE svg PUBLIC "-//W3C//DTD SVG 20010904//EN"
 "http://www.w3.org/TR/2001/REC-SVG-20010904/DTD/svg10.dtd">
<svg version="1.0" xmlns="http://www.w3.org/2000/svg"
 width="300.000000pt" height="300.000000pt" viewBox="0 0 300.000000 300.000000"
 preserveAspectRatio="xMidYMid meet">
<metadata>
Created by potrace 1.13, written by Peter Selinger 2001-2015
</metadata>
<g transform="translate(0.000000,300.000000) scale(0.100000,-0.100000)"
fill="#000000" stroke="none">
<path d="M1315 2727 c-33 -25 -12 -81 57 -153 l60 -62 -54 -35 c-68 -43 -108
-90 -108 -127 0 -70 75 -61 165 22 l56 51 63 -62 c36 -33 73 -61 84 -61 30 0
52 27 52 62 0 25 -11 41 -55 82 -30 28 -55 56 -55 62 0 6 23 30 51 54 59 50
89 94 89 132 0 32 -11 40 -56 40 -42 0 -92 -36 -119 -85 l-19 -35 -43 44 c-39
40 -110 83 -139 84 -5 0 -18 -6 -29 -13z"/>
<path d="M940 2570 c-52 -4 -156 -8 -230 -9 -141 -1 -233 -21 -254 -54 -15
-23 1 -63 31 -76 30 -14 150 -16 311 -5 76 5 102 4 102 -5 0 -7 -29 -52 -64
-101 -97 -136 -181 -312 -212 -445 -14 -60 -29 -128 -34 -150 -9 -37 -7 -42
20 -67 34 -32 91 -45 125 -30 50 23 60 56 61 192 0 99 5 138 22 190 28 84 131
257 211 351 69 81 85 108 96 157 6 30 4 33 -29 47 -19 8 -41 14 -48 13 -7 -1
-56 -5 -108 -8z m166 -35 c12 -30 -28 -95 -137 -226 -46 -55 -88 -122 -140
-224 -22 -44 -38 -72 -35 -62 7 22 5 21 -54 -4 -39 -17 -51 -28 -61 -56 -6
-19 -13 -33 -15 -30 -6 5 28 101 59 167 38 80 66 127 122 205 71 98 86 125 80
136 -4 6 -80 7 -200 3 -212 -8 -259 0 -253 39 5 35 68 49 242 53 87 2 161 6
164 9 3 3 54 5 114 5 88 0 110 -3 114 -15z m-331 -819 c-9 -48 -32 -66 -85
-66 -33 0 -52 5 -64 19 -16 18 -16 25 -2 110 9 50 16 94 16 99 0 4 5 -1 10
-10 7 -11 7 -26 0 -43 -13 -34 -13 -75 0 -75 6 0 12 6 14 13 16 55 25 78 21
55 -5 -25 -3 -27 17 -24 13 3 26 5 29 5 9 1 29 49 30 74 1 12 6 -12 11 -53 5
-41 6 -88 3 -104z"/>
<path d="M2076 2545 c-54 -19 -131 -98 -168 -172 -44 -91 -48 -170 -14 -302
38 -147 69 -198 155 -253 127 -80 264 16 317 221 20 81 15 260 -10 339 -39
123 -175 203 -280 167z m150 -39 c78 -36 113 -98 135 -238 21 -135 -23 -322
-94 -396 -118 -125 -276 -54 -344 152 -22 66 -27 100 -27 186 -1 119 13 161
79 240 78 93 138 107 251 56z"/>
<path d="M2046 2419 c-62 -48 -107 -192 -92 -295 8 -61 48 -145 91 -193 33
-36 43 -41 80 -41 87 0 144 73 164 210 13 89 4 156 -34 229 -26 52 -40 64
-115 93 -57 23 -62 22 -94 -3z m137 -36 c42 -24 89 -118 95 -188 7 -82 -22
-195 -61 -239 -81 -92 -165 -54 -227 104 -35 90 -19 232 36 311 28 41 29 41
77 35 27 -3 63 -13 80 -23z"/>
<path d="M1167 2273 c-42 -11 -50 -107 -12 -143 66 -62 149 0 125 91 -14 51
-51 68 -113 52z"/>
<path d="M1743 2172 c-12 -4 -44 -38 -72 -77 -55 -76 -109 -148 -202 -267 -78
-101 -139 -206 -139 -240 0 -15 10 -36 22 -48 26 -24 72 -26 231 -8 59 6 109
9 111 7 3 -3 10 -55 17 -117 9 -85 17 -116 31 -129 28 -25 75 -21 106 11 23
22 27 35 27 79 -1 28 -4 71 -9 93 l-8 42 53 28 c58 32 73 59 55 95 -9 18 -24
26 -64 33 l-52 10 0 150 c-1 241 -22 348 -68 345 -9 -1 -27 -4 -39 -7z m69
-39 c7 -17 14 -119 17 -253 l6 -225 41 3 c78 6 112 -57 46 -87 -87 -40 -84
-33 -67 -148 10 -65 1 -98 -30 -119 -33 -22 -70 -11 -83 23 -6 16 -13 66 -17
112 -8 103 -18 131 -42 125 -63 -14 -287 -33 -302 -25 -37 20 -44 38 -30 73
20 52 87 152 199 298 57 74 119 155 137 180 51 70 52 70 84 70 23 0 32 -6 41
-27z"/>
<path d="M1654 1913 c-32 -38 -82 -94 -110 -125 -55 -60 -74 -108 -54 -133 19
-23 232 -21 251 1 18 22 24 135 11 198 -6 28 -13 68 -17 89 -3 20 -10 37 -14
37 -5 0 -35 -30 -67 -67z m74 -20 c11 -56 15 -114 13 -180 -2 -52 -20 -62
-119 -62 -48 0 -95 3 -104 5 -28 8 -21 47 15 92 55 69 172 201 178 201 4 1 11
-25 17 -56z"/>
<path d="M907 1989 c-23 -32 -21 -56 6 -73 19 -13 65 -15 277 -13 274 3 312 9
318 54 5 36 -29 46 -147 43 -154 -5 -163 -4 -307 5 -131 8 -131 8 -147 -16z
m318 -9 c83 2 171 3 197 4 58 1 80 -16 55 -42 -16 -15 -40 -17 -192 -17 -160
0 -201 6 -160 21 29 11 15 24 -26 24 l-41 0 16 -25 17 -26 -82 3 c-63 2 -84 7
-92 20 -8 12 -7 21 3 33 12 14 25 16 84 9 39 -4 139 -6 221 -4z"/>
<path d="M2585 1895 c-114 -61 -198 -141 -244 -232 -33 -65 -53 -168 -54 -273
-1 -122 24 -192 94 -262 58 -58 101 -78 165 -78 73 0 122 20 179 72 80 73 129
213 111 312 -20 105 -151 158 -306 125 -45 -10 -54 -9 -71 7 -12 11 -19 30
-19 52 0 53 84 133 162 156 32 9 67 26 78 38 36 39 18 108 -29 108 -10 0 -40
-11 -66 -25z m-84 -449 c19 12 98 5 128 -11 66 -34 90 -124 52 -195 -34 -64
-138 -99 -201 -67 -62 31 -94 132 -65 205 18 44 67 92 73 73 2 -6 8 -8 13 -5z"/>
<path d="M1150 1768 c-17 -18 -21 -31 -17 -62 6 -45 19 -56 65 -56 22 0 41 8
57 25 30 29 31 40 5 83 -16 26 -26 32 -54 32 -24 0 -42 -8 -56 -22z"/>
<path d="M919 1571 c-110 -36 -189 -120 -189 -201 0 -51 13 -70 48 -70 40 0
62 18 62 51 0 51 25 85 74 102 34 12 54 13 81 6 72 -20 78 -84 16 -155 -37
-41 -40 -85 -10 -115 15 -15 28 -19 47 -14 113 28 178 13 202 -45 10 -24 8
-36 -9 -74 -24 -56 -53 -70 -114 -56 -62 14 -76 12 -102 -15 -33 -32 -31 -67
4 -107 29 -32 31 -33 113 -33 70 1 91 5 133 27 139 73 181 196 112 329 -46 89
-130 139 -213 126 l-32 -5 14 44 c45 149 -79 257 -237 205z"/>
<path d="M2145 1413 c-16 -13 -67 -48 -112 -78 -45 -30 -91 -64 -102 -76 -25
-27 -28 -84 -5 -93 27 -11 74 -7 104 9 16 8 31 12 33 7 4 -6 22 -409 22 -487
0 -16 -9 -21 -44 -26 -29 -4 -51 -14 -63 -28 -24 -31 -23 -37 9 -58 23 -15 47
-18 147 -16 112 1 122 3 139 24 26 32 18 61 -21 80 -19 8 -37 22 -42 30 -5 7
-9 149 -10 314 0 251 -9 407 -22 420 -2 2 -16 -8 -33 -22z"/>
<path d="M363 1371 c-48 -22 -69 -56 -59 -95 12 -47 87 -65 111 -27 8 14 61
14 87 0 23 -12 48 -66 48 -103 0 -32 -83 -88 -154 -105 -107 -26 -200 -89
-259 -173 -43 -63 -45 -85 -15 -123 20 -26 109 -75 136 -75 7 0 38 -11 69 -25
30 -14 75 -31 100 -38 44 -11 46 -11 69 16 29 34 30 47 4 89 -11 18 -20 28
-20 21 0 -9 -14 -6 -46 7 -25 11 -51 20 -58 20 -7 0 -36 7 -64 15 -39 12 -52
21 -52 34 0 42 67 76 240 121 98 26 173 81 202 148 27 60 17 143 -23 207 -23
36 -42 52 -87 72 -78 35 -172 41 -229 14z m199 -22 c99 -38 145 -110 136 -213
-9 -103 -68 -150 -253 -201 -55 -15 -112 -34 -126 -41 -32 -16 -79 -70 -79
-90 0 -20 38 -41 100 -53 81 -17 160 -59 160 -86 0 -27 -18 -45 -45 -45 -28 0
-294 106 -316 126 -25 23 -24 65 3 100 70 94 142 144 257 178 68 20 136 60
157 91 21 32 3 97 -37 138 -27 26 -35 29 -75 24 -28 -3 -50 -12 -58 -23 -12
-16 -18 -17 -41 -6 -23 10 -26 17 -23 50 3 31 9 40 38 54 48 25 136 23 202 -3z"/>
<path d="M1614 975 c-16 -25 -16 -70 2 -132 6 -20 3 -23 -27 -24 -19 -1 -40
-1 -47 0 -26 4 -82 -21 -93 -40 -8 -16 -7 -26 5 -45 18 -26 37 -33 111 -36
l50 -3 3 -60 c3 -66 21 -95 59 -95 12 0 33 10 44 21 19 19 21 29 16 84 l-6 63
57 7 c94 11 130 50 91 99 -17 21 -30 26 -82 28 l-61 3 -10 40 c-6 28 -6 40 3
43 6 2 11 13 11 24 0 11 -5 18 -12 16 -6 -2 -20 4 -30 14 -26 26 -64 23 -84
-7z m67 -5 c15 -9 19 -22 19 -62 0 -70 18 -88 86 -88 68 0 84 -7 84 -36 0 -30
-27 -44 -87 -44 -72 0 -77 -7 -69 -83 6 -53 4 -67 -9 -81 -38 -37 -65 -7 -65
71 0 27 -5 54 -12 61 -7 7 -39 12 -73 12 -49 0 -66 4 -80 20 -30 33 -5 50 75
50 88 0 97 10 81 88 -17 89 -1 119 50 92z"/>
<path d="M639 813 c-15 -4 -39 -55 -39 -85 0 -8 9 -23 21 -34 19 -17 37 -19
153 -19 105 0 137 3 163 17 57 31 53 117 -5 119 -81 3 -279 4 -293 2z m284
-19 c33 -6 37 -10 37 -35 0 -48 -34 -61 -168 -66 -138 -6 -172 3 -172 44 0 48
9 52 120 56 58 1 114 4 125 5 11 1 37 -1 58 -4z"/>
</g>
</svg>
