<?xml version="1.0" standalone="yes"?>

<svg version="1.1" viewBox="0.0 0.0 960.0 540.0" fill="none" stroke="none" stroke-linecap="square" stroke-miterlimit="10" xmlns="http://www.w3.org/2000/svg" xmlns:xlink="http://www.w3.org/1999/xlink"><clipPath id="g15193cd4f6_0_56.0"><path d="m0 0l960.0 0l0 540.0l-960.0 0l0 -540.0z" clip-rule="nonzero"></path></clipPath><g clip-path="url(#g15193cd4f6_0_56.0)"><path fill="#a2c4c9" d="m0 0l960.0 0l0 540.0l-960.0 0z" fill-rule="nonzero"></path><path fill="#9900ff" d="m169.3517 27.561678l0 57.205063l322.15582 0c-40.97992 34.389168 -79.666504 76.67757 -116.059845 126.86517c-36.29364 50.11415 -64.16196 102.17552 -83.60498 156.18416c-19.443024 54.008636 -29.61322 100.0813 -30.51059 138.21802l83.006744 0c4.486847 -48.27713 14.80658 -92.69647 30.959259 -133.25806c22.434235 -57.535706 54.191162 -113.52835 95.27078 -167.97786c41.17929 -54.449524 82.70758 -98.09731 124.58484 -130.94339l0 -46.293114z" fill-rule="evenodd"></path><path stroke="#595959" stroke-width="4.0" stroke-linejoin="round" stroke-linecap="butt" d="m169.3517 27.561678l0 57.205063l322.15582 0c-40.97992 34.389168 -79.666504 76.67757 -116.059845 126.86517c-36.29364 50.11415 -64.16196 102.17552 -83.60498 156.18416c-19.443024 54.008636 -29.61322 100.0813 -30.51059 138.21802l83.006744 0c4.486847 -48.27713 14.80658 -92.69647 30.959259 -133.25806c22.434235 -57.535706 54.191162 -113.52835 95.27078 -167.97786c41.17929 -54.449524 82.70758 -98.09731 124.58484 -130.94339l0 -46.293114z" fill-rule="evenodd"></path></g></svg>

