<!--Generator:9va-0.2.21 (9va-win) http://www.d1.dion.ne.jp/~danjiro/9va/win.html--><svg xmlns:dc="http://purl.org/dc/elements/1.1/" xmlns:cc="http://creativecommons.org/ns#" xmlns:rdf="http://www.w3.org/1999/02/22-rdf-syntax-ns#" xmlns="http://www.w3.org/2000/svg" xmlns:sodipodi="http://sodipodi.sourceforge.net/DTD/sodipodi-0.dtd" xmlns:inkscape="http://www.inkscape.org/namespaces/inkscape" style="image-rendering:optimizeSpeed" height="385.2926" width="232.15034" sodipodi:docname="rocket.svg" inkscape:version="0.91 r13725" viewBox="0 0 232.15034 385.2926"><sodipodi:namedview inkscape:snap-global="false" inkscape:current-layer="g3709" inkscape:window-maximized="0" inkscape:window-y="0" inkscape:window-x="942" inkscape:cy="171.32508" inkscape:cx="105.89539" inkscape:zoom="0.944" fit-margin-bottom="0" fit-margin-right="0" fit-margin-left="0" fit-margin-top="0" showgrid="false" inkscape:window-height="1051" inkscape:window-width="938" inkscape:pageshadow="2" inkscape:pageopacity="0" guidetolerance="10" gridtolerance="10" objecttolerance="10" borderopacity="1" bordercolor="#666666" pagecolor="#ffffff"/><metadata><rdf:RDF><cc:Work><dc:format>image/svg+xml</dc:format><dc:type rdf:resource="http://purl.org/dc/dcmitype/StillImage"/><dc:title/><dc:date>2017</dc:date><dc:creator><cc:Agent><dc:title>Timothée Giet</dc:title></cc:Agent></dc:creator><cc:license rdf:resource="http://creativecommons.org/licenses/by-sa/4.0/"/></cc:Work><cc:License rdf:about="http://creativecommons.org/licenses/by-sa/4.0/"><cc:permits rdf:resource="http://creativecommons.org/ns#Reproduction"/><cc:permits rdf:resource="http://creativecommons.org/ns#Distribution"/><cc:requires rdf:resource="http://creativecommons.org/ns#Notice"/><cc:requires rdf:resource="http://creativecommons.org/ns#Attribution"/><cc:permits rdf:resource="http://creativecommons.org/ns#DerivativeWorks"/><cc:requires rdf:resource="http://creativecommons.org/ns#ShareAlike"/></cc:License></rdf:RDF></metadata><g transform="rotate(-1.472 331.466 3287.703)"><path inkscape:connector-curvature="0" d="M201.828-1.7c-15.642-.913-26.13 13.652-33.848 25.397-15.254 28.956-21.943 61.458-28.448 93.3-8.123 46.11-14.031 92.716-16.21 139.502.293 13.587-1.131 27.911 6.164 39.88 9.209 18.336 28.368 30.068 47.612 35.527 24.17 5.307 52.615.165 68.634-20.186 8.094-10 17.256-21.003 17.032-34.604 4.585-44.572-.39-89.41-4.377-133.85-3.979-35.558-9.397-71.22-19.636-105.551C233.84 22.92 224.764 8.448 211.115.38c-2.916-.96-6.157-2.397-9.287-2.08z" style="opacity:1;fill:#2c4c79;fill-opacity:1;stroke:none;stroke-width:.99999988;image-rendering:optimizeSpeed"/><path sodipodi:nodetypes="ccscscsccc" inkscape:connector-curvature="0" d="M201.545 4.651c-14.628-.76-23.882 13.499-30.83 24.48-14.301 28.833-22.71 65.976-28.04 96.295-7.639 43.46-17.729 138.916-12.134 149.166 9.35 10.15 31.462 19.703 49.93 21.93 26.846 3.238 77.338-4.479 77.52-30.16 4.283-43.83-1.628-81.504-5.834-125.174-3.266-33.909-8.104-67.87-17.688-100.618-4.954-13.687-12.997-28.393-26.686-34.823-2.11-.192-4.064-1.63-6.238-1.096z" style="opacity:1;fill:#5a8ad1;stroke:none;stroke-width:.99999988;image-rendering:optimizeSpeed"/><path sodipodi:nodetypes="cccccccccccccc" inkscape:connector-curvature="0" d="M262.1 279.95c-14.106 11.12-31.223 17.67-48.608 21.6-18.663 3.634-38.456 2.216-56.092-5.102-11.247-4.27-21.82-10.229-31.108-17.89-2.655-3.047-2.822-1.38-2.459 1.81.57 5.366-1.022 10.768.778 16.033 1.273 9.904 6.388 19.334 14.573 25.2 11.636 8.684 25.513 14.98 40.07 16.35 5.708.198 11.39 1.055 17.103.638 5.8.214 11.624-.113 17.418-.435 13.538-1.815 26.836-7.657 36.645-17.256 6.695-7.387 9.14-17.447 10.224-27.084 2.71-5.273 1.617-10.576 1.455-13.865z" style="opacity:1;fill:#690000;stroke:none;stroke-width:.99999988;image-rendering:optimizeSpeed"/><path inkscape:connector-curvature="0" d="M201.828-1.7c-5.089-.453-10.483.948-14.687 3.967-12.177 8.86-20.797 21.921-26.047 35.902-5.282 13.357-9.545 27.14-13.108 41.061 9.438 10.025 22.394 15.995 35.516 19.57 14.247 3.253 29.498 2.51 43.145-2.893 8.329-2.955 16.189-7.311 22.739-13.281-2.755-13.78-5.529-27.597-9.4-41.108-4.034-14.488-12-28.036-23.536-37.793-4.072-3.333-9.378-5.488-14.622-5.425z" style="opacity:1;fill:#535353;fill-opacity:1;stroke:none;stroke-width:.99999988;image-rendering:optimizeSpeed"/><path inkscape:connector-curvature="0" d="M193.105 255.444c-7.626-.061-13.953 5.707-18.091 11.609-4.387 7.923-8.526 16.042-11.824 24.496-6.712 18.632-10.56 38.482-9.598 58.334-.056 5.198-.193 10.854 3.944 14.705 6.281 7.386 16.089 10.409 25.217 12.607 10.303 1.885 21.34.895 30.877-3.555 5.494-3.092 11.488-7.459 12.829-13.98 2.314-16.112 1.814-32.618-1.692-48.53-2.685-14.67-7.77-28.758-13.588-42.44-2.936-5.876-8.132-11.211-14.613-12.912-1.12-.014-2.512-.563-3.46-.334z" style="opacity:1;fill:#690000;fill-opacity:1;stroke:none;stroke-width:.99999988;image-rendering:optimizeSpeed"/><path inkscape:connector-curvature="0" d="M124.573 276.028c1.41 16.928 4.353 33.687 7.72 50.324-1.312 4.227-5.475 7.085-9.127 9.28-8.16 3.986-17.67 3.748-26.477 2.68-6.318-.734-12.544-3.525-16.515-8.626-3.354-3.125-1.929-8.103-2.154-12.154-.23-15.146 2.624-30.267 7.368-44.613 2.135-5.83 4.914-11.444 8.021-16.79 6.68-8.895 16.468-15.297 27.106-18.389 4.717-1.822 6.746 2.93 5.305 6.719-.907 10.488-1.786 21.036-1.247 31.569z" style="opacity:1;fill:#690000;fill-opacity:1;stroke:none;stroke-width:.99999988;image-rendering:optimizeSpeed"/><path sodipodi:nodetypes="ccccccc" inkscape:connector-curvature="0" d="M121.97 277.004c1.137 15.245-.152 18.222 2.607 33.202 1.51 6.453-34.992 8.056-41.324-.3-3.294-14.687 5.304-36.264 12.942-50.769 5.548-8.024 13.668-13.809 22.485-16.613 3.91-1.65 5.582 2.627 4.382 6.041-.771 9.45-1.519 18.952-1.092 28.439z" style="opacity:1;fill:#d70000;stroke:none;stroke-width:.99999988;image-rendering:optimizeSpeed"/><path inkscape:connector-curvature="0" d="M201.556 5.17c-4.609-.408-9.492.852-13.305 3.576-11.016 7.976-18.834 19.754-23.593 32.376-4.783 12.044-8.644 24.474-11.87 37.03 8.563 9.052 20.298 14.43 32.176 17.653 12.907 2.935 26.717 2.269 39.085-2.604 7.54-2.663 14.66-6.588 20.6-11.976-2.499-12.43-5.013-24.89-8.52-37.074-3.66-13.081-10.89-25.299-21.326-34.087-3.694-3.01-8.5-4.95-13.247-4.894z" style="opacity:1;fill:#989898;fill-opacity:1;stroke:none;stroke-width:.99999988;image-rendering:optimizeSpeed"/><circle transform="rotate(1.472)" r="22.497025" cy="219.52689" cx="199.43312" style="color:#000;clip-rule:nonzero;display:inline;overflow:visible;visibility:visible;opacity:1;isolation:auto;mix-blend-mode:normal;color-interpolation:sRGB;color-interpolation-filters:linearRGB;solid-color:#000;solid-opacity:1;fill:#355b91;fill-opacity:1;fill-rule:evenodd;stroke:none;stroke-width:.99999988;stroke-linecap:square;stroke-linejoin:miter;stroke-miterlimit:4;stroke-dasharray:none;stroke-dashoffset:0;stroke-opacity:1;marker:none;color-rendering:auto;image-rendering:auto;shape-rendering:auto;text-rendering:auto;enable-background:accumulate"/><circle transform="rotate(1.472)" r="18.37257" cy="220.40417" cx="199.43312" style="color:#000;clip-rule:nonzero;display:inline;overflow:visible;visibility:visible;opacity:1;isolation:auto;mix-blend-mode:normal;color-interpolation:sRGB;color-interpolation-filters:linearRGB;solid-color:#000;solid-opacity:1;fill:#5a8ad1;fill-opacity:1;fill-rule:evenodd;stroke:none;stroke-width:.99999988;stroke-linecap:square;stroke-linejoin:miter;stroke-miterlimit:4;stroke-dasharray:none;stroke-dashoffset:0;stroke-opacity:1;marker:none;color-rendering:auto;image-rendering:auto;shape-rendering:auto;text-rendering:auto;enable-background:accumulate"/><circle transform="rotate(1.472)" r="44.994049" cy="147.53629" cx="199.43312" style="color:#000;clip-rule:nonzero;display:inline;overflow:visible;visibility:visible;opacity:1;isolation:auto;mix-blend-mode:normal;color-interpolation:sRGB;color-interpolation-filters:linearRGB;solid-color:#000;solid-opacity:1;fill:#355b91;fill-opacity:1;fill-rule:evenodd;stroke:none;stroke-width:.99999988;stroke-linecap:square;stroke-linejoin:miter;stroke-miterlimit:4;stroke-dasharray:none;stroke-dashoffset:0;stroke-opacity:1;marker:none;color-rendering:auto;image-rendering:auto;shape-rendering:auto;text-rendering:auto;enable-background:accumulate"/><circle transform="rotate(1.472)" r="41.619495" cy="148.28632" cx="199.43312" style="color:#000;clip-rule:nonzero;display:inline;overflow:visible;visibility:visible;opacity:1;isolation:auto;mix-blend-mode:normal;color-interpolation:sRGB;color-interpolation-filters:linearRGB;solid-color:#000;solid-opacity:1;fill:#477ccc;fill-opacity:1;fill-rule:evenodd;stroke:none;stroke-width:.99999988;stroke-linecap:square;stroke-linejoin:miter;stroke-miterlimit:4;stroke-dasharray:none;stroke-dashoffset:0;stroke-opacity:1;marker:none;color-rendering:auto;image-rendering:auto;shape-rendering:auto;text-rendering:auto;enable-background:accumulate"/><circle transform="rotate(1.472)" r="33.370586" cy="148.28632" cx="199.43312" style="color:#000;clip-rule:nonzero;display:inline;overflow:visible;visibility:visible;opacity:1;isolation:auto;mix-blend-mode:normal;color-interpolation:sRGB;color-interpolation-filters:linearRGB;solid-color:#000;solid-opacity:1;fill:#355b91;fill-opacity:1;fill-rule:evenodd;stroke:none;stroke-width:.99999988;stroke-linecap:square;stroke-linejoin:miter;stroke-miterlimit:4;stroke-dasharray:none;stroke-dashoffset:0;stroke-opacity:1;marker:none;color-rendering:auto;image-rendering:auto;shape-rendering:auto;text-rendering:auto;enable-background:accumulate"/><circle transform="rotate(1.472)" r="29.996031" cy="148.28632" cx="199.43312" style="color:#000;clip-rule:nonzero;display:inline;overflow:visible;visibility:visible;opacity:1;isolation:auto;mix-blend-mode:normal;color-interpolation:sRGB;color-interpolation-filters:linearRGB;solid-color:#000;solid-opacity:1;fill:#adceff;fill-opacity:1;fill-rule:evenodd;stroke:none;stroke-width:.99999988;stroke-linecap:square;stroke-linejoin:miter;stroke-miterlimit:4;stroke-dasharray:none;stroke-dashoffset:0;stroke-opacity:1;marker:none;color-rendering:auto;image-rendering:auto;shape-rendering:auto;text-rendering:auto;enable-background:accumulate"/><path sodipodi:nodetypes="cccccccccccc" inkscape:connector-curvature="0" d="M192.97 259.18c-6.33-.048-11.567 4.76-14.991 9.66-3.716 6.767-7.263 13.684-9.996 20.922-5.435 15.351-8.292 21.663-7.504 37.986-.047 4.323-.165 9.025 3.267 12.235 5.195 6.137 13.325 8.659 20.893 10.486 8.538 1.569 17.687.741 25.585-2.96 4.56-2.575 9.523-6.216 10.63-11.632 1.92-13.405 1.25-17.128-1.655-30.368-2.222-12.202-6.434-23.923-11.254-35.309-2.429-4.88-6.728-9.324-12.108-10.741-.927-.015-2.08-.469-2.867-.278z" style="opacity:1;fill:#d70000;stroke:none;stroke-width:.99999988;image-rendering:optimizeSpeed"/><path inkscape:connector-curvature="0" d="M262.17 279.565c-2.278 16.833-6.078 33.419-10.296 49.86 1.094 4.29 5.104 7.358 8.639 9.738 7.945 4.4 17.454 4.65 26.304 4.037 6.348-.41 12.709-2.876 16.936-7.767 3.511-2.949 2.343-7.994 2.776-12.027 1.007-15.114-1.065-30.363-5.066-44.933-1.832-5.932-4.32-11.681-7.148-17.18-6.213-9.227-15.66-16.123-26.125-19.757-4.618-2.062-6.888 2.58-5.644 6.437.367 10.521.703 21.1-.376 31.592z" style="opacity:1;fill:#690000;fill-opacity:1;stroke:none;stroke-width:.99999988;image-rendering:optimizeSpeed"/><path sodipodi:nodetypes="ccccccc" inkscape:connector-curvature="0" d="M264.72 280.673c-1.92 15.167-.786 18.206-4.31 33.025-1.84 6.366 34.532 9.843 41.284 1.823 4.045-14.498-3.433-36.488-10.316-51.366-5.129-8.3-12.94-14.493-21.602-17.747-3.82-1.849-5.71 2.336-4.686 5.808.284 9.477.543 19.005-.371 28.457z" style="opacity:1;fill:#d70000;stroke:none;stroke-width:.99999988;image-rendering:optimizeSpeed"/></g></svg>