<?xml version="1.0" encoding="iso-8859-1"?>
<!-- Generator: Adobe Illustrator 21.0.0, SVG Export Plug-In . SVG Version: 6.00 Build 0)  -->
<svg xmlns="http://www.w3.org/2000/svg" xmlns:xlink="http://www.w3.org/1999/xlink" version="1.1" id="Capa_1" x="0px" y="0px" viewBox="0 0 511.563 511.563" style="enable-background:new 0 0 511.563 511.563;" xml:space="preserve" width="512" height="512">
<g>
	<path style="fill:#6E563D;" d="M391.232,447.983V310.682c0-3.036-1.831-5.773-4.638-6.933c-2.808-1.159-6.035-0.51-8.177,1.641   c-10.697,10.744-24.936,16.661-40.091,16.661c-4.143,0-7.5,3.357-7.5,7.5v139.437c0,4.143,3.357,7.5,7.5,7.5   c14.013,0,23.595,5.609,28.481,16.671c1.2,2.717,3.891,4.47,6.86,4.47h48.922c2.035,0,3.983-0.827,5.396-2.292   c1.414-1.465,2.171-3.441,2.099-5.476C430.072,489.463,428.296,452.41,391.232,447.983z"/>
	<path style="fill:#604B35;" d="M391.232,336.901v-26.22c0-3.036-1.831-5.773-4.638-6.933c-2.808-1.159-6.035-0.51-8.177,1.641   c-10.697,10.744-24.936,16.661-40.091,16.661c-4.143,0-7.5,3.357-7.5,7.5v28.825C357.722,356.739,378.102,347.168,391.232,336.901z   "/>
	<path style="fill:#6E563D;" d="M260.469,323.994c-1.231-2.643-3.883-4.333-6.799-4.333h-93.035c-2.646,0-5.098,1.396-6.449,3.671   c-9.22,15.53-24.179,29.879-44.461,42.649c-2.181,1.373-3.504,3.77-3.504,6.347v86.537c0,21.374,17.389,38.763,38.762,38.763   h62.065c2.035,0,3.983-0.827,5.398-2.292c1.413-1.465,2.17-3.441,2.098-5.476c-0.014-0.398-1.791-37.45-38.854-41.877v-61.08   c14.734-5.398,56.782-22.868,83.722-54.916C261.288,329.755,261.701,326.638,260.469,323.994z"/>
	<path style="fill:#604B35;" d="M253.671,319.661h-93.035c-2.646,0-5.098,1.396-6.449,3.671   c-6.256,10.538-15.163,20.53-26.574,29.856h109.601c7.897-6.196,15.514-13.249,22.199-21.201c1.876-2.232,2.289-5.35,1.058-7.993   C259.238,321.352,256.587,319.661,253.671,319.661z"/>
	<path style="fill:#A58260;" d="M503.757,81.411l-59.118-24.632L426.77,33.135C411.089,12.387,386.2,0,360.191,0   c-26.491,0-50.229,15.786-60.475,40.217L249.71,159.463H145.501c-17.66,0-34.792,4.724-49.846,13.702   c-18.063-11.395-30.929-26.105-38.273-43.778C38.269,83.383,60.633,29.312,60.845,28.809c4.495-10.443-0.34-22.606-10.778-27.114   C39.617-2.819,27.442,2.014,22.935,12.45l-0.175,0.386C18.894,21.318,11.732,38.878,7.2,61.177   c-6.824,33.576-4.932,63.547,5.625,89.08c10.294,24.9,26.012,46.489,45.669,62.812c-7.534,15.022-10.944,31.69-9.892,48.595   c0.059,0.964,0.129,1.936,0.209,2.911c2.11,25.823-14.807,59.517-29.935,80.524c-10.238,14.217-15.65,30.893-15.65,48.229v79.474   c0,21.373,17.389,38.762,38.762,38.762h62.064c2.035,0,3.983-0.827,5.396-2.292c1.414-1.465,2.171-3.441,2.099-5.476   c-0.014-0.398-1.79-37.45-38.854-41.877v-61.076c16.409-6.001,66.548-26.905,92.106-66.181h111.558v138.14   c0,21.373,17.389,38.762,38.762,38.762h62.065c2.035,0,3.983-0.827,5.396-2.292c1.414-1.465,2.171-3.441,2.099-5.476   c-0.014-0.398-1.79-37.45-38.853-41.877V336.661c35.957-3.761,64.076-34.251,64.076-71.186V157.562h28.351   c20.713,0,40.171-8.663,53.385-23.769c11.103-12.695,16.734-27.99,16.734-45.459C508.373,85.307,506.552,82.575,503.757,81.411z"/>
	<g>
		<path style="fill:#85684A;" d="M38.69,400.842v67.671c37.063,4.427,38.84,34.885,38.854,35.282    c0.072,2.034-0.685,4.011-2.099,5.476c-1.413,1.465-3.361,2.292-5.396,2.292l33.916,0c0.96,0,1.923-0.146,2.813-0.503    c3.09-1.242,4.879-4.187,4.769-7.264c-0.014-0.398-1.79-37.45-38.854-41.877v-61.076c16.409-6.001,66.548-26.905,92.106-66.181    h-23.68c-6.162,0-12.012,2.805-15.792,7.672C98.651,376.679,53.997,395.244,38.69,400.842z"/>
		<path style="fill:#85684A;" d="M404.25,157.562h-11.342c-9.393,0-17.008,7.615-17.008,17.008v90.905    c0,33.088-22.566,61.004-53.118,69.164c-6.415,1.714-10.958,7.402-10.958,14.042v119.832    c37.063,4.427,38.839,34.885,38.853,35.282c0.072,2.034-0.685,4.011-2.099,5.476c-1.413,1.465-3.361,2.292-5.396,2.292h33.916    c0.96,0,1.923-0.146,2.813-0.503c3.09-1.241,4.879-4.187,4.769-7.264c-0.014-0.398-1.79-37.45-38.853-41.877V336.661    c35.957-3.761,64.076-34.251,64.076-71.186V157.562l-0.155-0.229C407.926,157.469,406.095,157.562,404.25,157.562z"/>
	</g>
	<path style="fill:#604B35;" d="M364.683,147.381c-0.662,0-1.329-0.088-1.986-0.268c-1.661-0.456-40.79-11.684-48.848-56.006   c-0.741-4.075,1.962-7.979,6.037-8.721c4.08-0.746,7.98,1.962,8.721,6.037c4.933,27.133,24.749,38.679,33.672,42.573   c16.455-22.831,5.748-58.009,5.632-58.382c-1.236-3.953,0.967-8.16,4.921-9.396c3.951-1.237,8.159,0.967,9.396,4.921   c0.151,0.484,3.72,12.054,4.148,27.052c0.587,20.497-5.012,37.712-16.189,49.784C368.747,146.531,366.743,147.381,364.683,147.381z   "/>
	<path style="fill:#464649;" d="M261.915,157.251c-1.945,0-3.89-0.752-5.358-2.253L117.941,13.445   c-2.898-2.959-2.849-7.708,0.111-10.606c2.958-2.898,7.707-2.851,10.605,0.111l138.615,141.553   c2.898,2.959,2.849,7.708-0.111,10.605C265.703,156.539,263.808,157.251,261.915,157.251z"/>
	<path style="fill:#FFDF65;" d="M405.042,178.847l-134.445-50.525c-3.776-1.419-7.996,0.402-9.555,4.12l-13.261,31.621   c-0.792,1.888-0.777,4.018,0.039,5.895c0.817,1.877,2.366,3.338,4.288,4.045l147.706,54.326c0.841,0.309,1.717,0.461,2.588,0.461   c1.515,0,3.017-0.459,4.292-1.349c2.011-1.403,3.209-3.7,3.209-6.151v-35.422C409.903,182.743,407.966,179.945,405.042,178.847z"/>
	<path style="fill:#FFCD2C;" d="M405.042,178.847l-29.639-11.138v51.641l24.411,8.979c0.841,0.309,1.717,0.461,2.588,0.461   c1.515,0,3.017-0.459,4.292-1.349c2.011-1.403,3.209-3.7,3.209-6.151v-35.422C409.903,182.743,407.966,179.945,405.042,178.847z"/>
	<path style="fill:#604B35;" d="M407.252,83.459c-5.931,0-10.755-4.824-10.755-10.755c0-5.93,4.824-10.754,10.755-10.754   c5.93,0,10.754,4.824,10.754,10.754C418.006,78.635,413.181,83.459,407.252,83.459z"/>
	<path style="fill:#604B35;" d="M503.757,81.411L476.803,70.18c-3.51,16.501,9.138,32.409,18.988,38.067   c0.545,0.313,1.127,0.556,1.733,0.724c1.845,0.512,3.655,0.766,5.413,0.766c0.791,0,1.568-0.065,2.335-0.167   c2.058-6.657,3.101-13.745,3.101-21.235C508.373,85.307,506.552,82.575,503.757,81.411z"/>
</g>















</svg>
