<?xml version="1.0" encoding="iso-8859-1"?>
<!-- Generator: Adobe Illustrator 16.0.0, SVG Export Plug-In . SVG Version: 6.00 Build 0)  -->
<!DOCTYPE svg PUBLIC "-//W3C//DTD SVG 1.1//EN" "http://www.w3.org/Graphics/SVG/1.1/DTD/svg11.dtd">
<svg version="1.1" id="Capa_1" xmlns="http://www.w3.org/2000/svg" xmlns:xlink="http://www.w3.org/1999/xlink" x="0px" y="0px"
	 width="268.831px" height="268.832px" viewBox="0 0 268.831 268.832" style="enable-background:new 0 0 268.831 268.832;"
	 xml:space="preserve">
<g>
	<path d="M223.255,83.659l-80-79.998c-4.881-4.881-12.797-4.881-17.678,0l-80,80c-4.883,4.882-4.883,12.796,0,17.678
		c2.439,2.44,5.64,3.661,8.839,3.661s6.397-1.221,8.839-3.661l58.661-58.661v213.654c0,6.903,5.597,12.5,12.5,12.5
		c6.901,0,12.5-5.597,12.5-12.5V42.677l58.661,58.659c4.883,4.881,12.797,4.881,17.678,0
		C228.137,96.455,228.137,88.541,223.255,83.659z"/>
</g>
<g>
</g>
<g>
</g>
<g>
</g>
<g>
</g>
<g>
</g>
<g>
</g>
<g>
</g>
<g>
</g>
<g>
</g>
<g>
</g>
<g>
</g>
<g>
</g>
<g>
</g>
<g>
</g>
<g>
</g>
</svg>
