<svg xmlns:dc="http://purl.org/dc/elements/1.1/" xmlns:cc="http://creativecommons.org/ns#" xmlns:rdf="http://www.w3.org/1999/02/22-rdf-syntax-ns#" xmlns="http://www.w3.org/2000/svg" height="64" width="64" xml:space="preserve" viewBox="0 0 63.999999 63.999999" y="0px" x="0px"><metadata><rdf:RDF><cc:Work><dc:format>image/svg+xml</dc:format><dc:type rdf:resource="http://purl.org/dc/dcmitype/StillImage"/><dc:title/><dc:date>2020</dc:date><dc:creator><cc:Agent><dc:title>Timothée Giet</dc:title></cc:Agent></dc:creator><cc:license rdf:resource="http://creativecommons.org/licenses/by-sa/4.0/"/></cc:Work><cc:License rdf:about="http://creativecommons.org/licenses/by-sa/4.0/"><cc:permits rdf:resource="http://creativecommons.org/ns#Reproduction"/><cc:permits rdf:resource="http://creativecommons.org/ns#Distribution"/><cc:requires rdf:resource="http://creativecommons.org/ns#Notice"/><cc:requires rdf:resource="http://creativecommons.org/ns#Attribution"/><cc:permits rdf:resource="http://creativecommons.org/ns#DerivativeWorks"/><cc:requires rdf:resource="http://creativecommons.org/ns#ShareAlike"/></cc:License></rdf:RDF></metadata><path d="M10.095 2.476a7.602 7.602 0 0 0-7.619 7.62v43.809a7.602 7.602 0 0 0 7.62 7.619h43.809a7.602 7.602 0 0 0 7.619-7.62V10.096a7.602 7.602 0 0 0-7.62-7.619zm5.715 7.62h33.333a4.751 4.751 0 0 1 4.762 4.761V48.19a4.751 4.751 0 0 1-4.762 4.762H15.81a4.751 4.751 0 0 1-4.762-4.762V14.857a4.751 4.751 0 0 1 4.762-4.762z" style="color:#000;clip-rule:nonzero;display:inline;overflow:visible;visibility:visible;opacity:1;isolation:auto;mix-blend-mode:normal;color-interpolation:sRGB;color-interpolation-filters:linearRGB;solid-color:#000;solid-opacity:1;fill:#1bd0d2;fill-opacity:1;fill-rule:evenodd;stroke:#279fa1;stroke-width:.95238096;stroke-linecap:square;stroke-linejoin:miter;stroke-miterlimit:4;stroke-dasharray:none;stroke-dashoffset:0;stroke-opacity:1;marker:none;color-rendering:auto;image-rendering:auto;shape-rendering:auto;text-rendering:auto;enable-background:accumulate"/><g style="font-style:normal;font-variant:normal;font-weight:400;font-stretch:normal;font-size:40px;line-height:125%;font-family:Kabel;-inkscape-font-specification:Kabel;letter-spacing:0;word-spacing:0;fill:#1bd0d2;fill-opacity:1;stroke:#279fa1;stroke-width:1px;stroke-linecap:butt;stroke-linejoin:miter;stroke-opacity:1"><path style="fill:#1bd0d2;fill-opacity:1;stroke:#279fa1;stroke-opacity:1" d="M26.814 23.099v17.48q5.723 0 8.165-2.441 2.44-2.442 2.44-6.358v-.244q-.126-4.795-2.84-6.601-2.765-1.758-7.765-1.836zm.684 25h-9.277V15.9h9.756q5.322 0 9.355 1.797 4.043 1.797 6.24 5.362 2.168 3.603 2.207 8.798 0 3.682-1.445 6.758-1.436 3.086-3.916 5.166-2.48 2.08-5.879 3.203-3.398 1.114-7.041 1.114z" transform="translate(1.524 1.524) scale(.95238)"/></g></svg>