<?xml version="1.0" encoding="UTF-8" standalone="no"?>
<svg
   xmlns:dc="http://purl.org/dc/elements/1.1/"
   xmlns:cc="http://creativecommons.org/ns#"
   xmlns:rdf="http://www.w3.org/1999/02/22-rdf-syntax-ns#"
   xmlns:svg="http://www.w3.org/2000/svg"
   xmlns="http://www.w3.org/2000/svg"
   xmlns:sodipodi="http://sodipodi.sourceforge.net/DTD/sodipodi-0.dtd"
   xmlns:inkscape="http://www.inkscape.org/namespaces/inkscape"
   version="1.1"
   id="Layer_1"
   x="0px"
   y="0px"
   viewBox="0 0 40 40.564373"
   enable-background="new 0 0 3508 2480"
   xml:space="preserve"
   inkscape:version="0.91 r13725"
   sodipodi:docname="f.svg"
   width="40"
   height="40.564373"><metadata
     id="metadata4083"><rdf:RDF><cc:Work
         rdf:about=""><dc:format>image/svg+xml</dc:format><dc:type
           rdf:resource="http://purl.org/dc/dcmitype/StillImage" /><dc:title></dc:title></cc:Work></rdf:RDF></metadata><defs
     id="defs4081" /><sodipodi:namedview
     pagecolor="#ffffff"
     bordercolor="#666666"
     borderopacity="1"
     objecttolerance="10"
     gridtolerance="10"
     guidetolerance="10"
     inkscape:pageopacity="0"
     inkscape:pageshadow="2"
     inkscape:window-width="1623"
     inkscape:window-height="1029"
     id="namedview4079"
     showgrid="false"
     showguides="false"
     inkscape:zoom="13.518218"
     inkscape:cx="13.35994"
     inkscape:cy="32.747183"
     inkscape:window-x="57"
     inkscape:window-y="21"
     inkscape:window-maximized="1"
     inkscape:current-layer="Layer_1"
     fit-margin-top="0"
     fit-margin-left="0"
     fit-margin-right="0"
     fit-margin-bottom="0" /><path
     style="fill:#74a236;stroke:#74a236;stroke-width:0.07960087"
     inkscape:connector-curvature="0"
     id="path175"
     d="m 6.181254,8.5776749 c 0,-0.424806 -0.065664,-0.8737335 0.1447423,-1.2623573 0.046903,8.2776864 0.0067,16.5567034 0.021428,24.8357434 0.016081,0.561508 -0.072351,1.13639 0.087105,1.687177 2.5287348,0.148749 5.0628167,0.05225 7.5942447,0.07906 4.734523,0.02948 9.467666,-0.05628 14.202189,-0.03752 1.707265,-0.01608 3.415869,0.02948 5.124474,-0.02545 0.302858,0.0027 0.609737,0.01072 0.917969,0.03617 0.03884,0.07506 0.115234,0.227828 0.154096,0.304199 -8.943707,0.03886 -17.888754,0 -26.8338017,0.01742 -0.4945037,0.0094 -0.9889806,0.0094 -1.4794506,-0.01876 l 0.020101,-0.09917 c 0.013401,-0.07906 0.040202,-0.235855 0.054943,-0.31492 C 6.1785739,25.3796 6.1879544,16.977295 6.181254,8.5776749 Z" /><path
     style="fill:#74a236;stroke:#74a236;stroke-width:0.07960087"
     inkscape:connector-curvature="0"
     id="path183"
     d="M 18.496621,23.630807 18.626609,23.5169 c -0.0054,1.022482 0.0134,2.046305 -0.01341,3.068774 -0.0013,0.04558 -0.004,0.136688 -0.0067,0.182265 1.153824,-0.0027 2.307622,0.04287 3.461446,0.02814 0.16751,0.0054 0.326966,-0.03216 0.478422,-0.112567 l 0.05895,0.01608 c 0.0429,0.0268 0.127308,0.07772 0.170191,0.104513 0.0335,1.514293 0.004,3.029939 0.01741,4.545558 -0.008,0.355122 0.0335,0.729019 -0.107206,1.068046 -0.08173,-0.08308 -0.158116,-0.16215 -0.230494,-0.238521 L 22.32791,32.051866 c 0.0737,0 0.221127,-0.0013 0.294818,-0.0013 0.03484,-1.69921 0.03886,-3.402468 0.0013,-5.101678 -0.07368,0.03082 -0.21976,0.09111 -0.293464,0.121947 -1.3039,0.06967 -2.6145,0.0268 -3.91974,0.02545 0.0027,-0.06834 0.0094,-0.203692 0.01206,-0.270696 0.07235,-1.064012 -0.0013,-2.130717 0.07369,-3.194742 z" /><path
     style="fill:#88bb3c;stroke:#88bb3c;stroke-width:0.07960087"
     inkscape:connector-curvature="0"
     id="path513"
     d="m 1.4815865,0.48624633 c 0.049583,-0.009381 0.1500891,-0.0281417 0.1996722,-0.0375223 0.1956519,-0.0361822 0.3993444,-0.0683442 0.6030369,-0.0897855 0.036182,0.0629839 0.1058664,0.19029165 0.1420353,0.25461558 0.6888021,0.10854665 1.3923452,0.0348421 2.0892012,0.0549434 10.2261789,0.00268 20.4509779,-0.00134 30.6771439,-0.00402 1.165871,-0.0107207 2.331756,0.0281417 3.497627,-0.0455628 -0.147422,-0.0911256 -0.290824,-0.17957099 -0.430166,-0.2680164 0.560141,-0.00134 0.988967,0.37924321 1.382938,0.73168479 l 0.01743,0.079065 c -0.03752,0.1353482 -0.06968,0.2720366 -0.09783,0.4114051 -0.17153,0.8013691 -0.08981,1.6255195 -0.09917,2.4389493 -0.01072,9.4247965 0.01473,18.8509375 -0.0027,28.2757335 0.02277,1.933752 -0.03618,3.870157 0.03216,5.802555 0.04156,-0.0536 0.125954,-0.162163 0.16751,-0.217093 0.0268,0.156776 0.05761,0.313579 0.09245,0.474376 -0.119253,0.289457 -0.286764,0.572215 -0.55746,0.742405 0.04017,-0.120607 0.08441,-0.241215 0.128648,-0.359155 -0.566855,0.135348 -1.127036,0.344414 -1.715305,0.33502 -11.256689,-0.0027 -22.514718,-0.0013 -33.7714068,-0.0013 C 3.262542,39.061824 2.6796064,39.115414 2.1221456,38.959978 1.7388688,38.745565 1.3314973,38.579381 0.91071152,38.464134 0.73650086,38.17201 0.52074766,37.871831 0.55155614,37.516709 0.56897721,26.037567 0.5475359,14.558407 0.55959663,3.0792782 0.5622768,2.8434238 0.54217557,2.6035491 0.38269241,2.4199579 0.5475493,1.680246 0.86780209,0.95928188 1.481573,0.48623293 M 0.74720811,2.4038903 c 0.0120607,10.5879877 0,21.1773197 0.008041,31.7653077 0.0402025,1.298526 -0.0844252,2.602426 0.0469029,3.896958 0.075058,-0.134008 0.12060738,-0.273376 0.13534828,-0.420785 0.00268,-11.034235 0,-22.068461 0,-33.1027099 C 0.90935804,3.5965767 1.0045039,2.6424383 0.87183574,1.7030408 0.73114053,1.9080599 0.75794217,2.1653557 0.74722151,2.4038903 M 6.083428,5.4740181 c 0.00804,0.073691 0.022781,0.2224537 0.030822,0.2974982 L 5.9614806,5.7460682 c -0.052263,3.2617596 -0.00402,6.5248458 -0.024108,9.7866058 0.016081,5.98481 0.0067,11.969629 0.00134,17.955762 -0.00134,0.217094 -0.017421,0.463682 0.195652,0.605717 l -0.020101,0.09917 c 0.49047,0.02815 0.9849603,0.02815 1.4794506,0.01876 8.9450468,-0.01742 17.8900948,0.02144 26.8338018,-0.01742 -0.03886,-0.07637 -0.115261,-0.229154 -0.154096,-0.304199 0.06566,0.0054 0.198332,0.01608 0.263996,0.02144 -0.0027,-9.412736 -0.0013,-18.825476 0,-28.2368716 l -0.146082,0.083085 C 34.430194,5.6884334 34.506594,5.5490512 34.544116,5.480707 31.053203,5.423097 27.560936,5.475347 24.068669,5.455259 18.074482,5.47 12.077615,5.435158 6.0834283,5.47402 Z" /><path
     style="fill:#88bb3c;stroke:#88bb3c;stroke-width:0.07960087"
     inkscape:connector-curvature="0"
     id="path519"
     d="m 8.1216928,7.3219912 0.016081,0.00402 0.1849314,0.054943 c 0.1835912,0.1340082 0.3604954,0.3149193 0.6164511,0.2854375 5.6712407,0 11.3437807,0.00402 17.0150207,0.00268 2.0557,-0.018761 4.115392,0.048243 6.169738,-0.032162 0.05627,2.7605683 0.01072,5.5224773 0.02009,8.2843733 -1.644281,0.02548 -3.291255,-0.03618 -4.934196,0.03618 l -0.03616,-0.0013 c -0.02817,-0.995694 0.02143,-1.991362 -0.02951,-2.985703 -0.05895,0.004 -0.175524,0.01206 -0.234514,0.01608 0.05362,-0.134008 0.11258,-0.265336 0.176904,-0.39397 -2.894563,0.01876 -5.789154,0.01742 -8.682391,0.0013 0.008,0.06298 0.02549,0.190278 0.0335,0.254615 -0.06298,0.0067 -0.190278,0.02143 -0.254602,0.02814 -0.02948,1.333382 0.004,2.666763 -0.02545,4.000145 0.01875,0.245235 -0.067,0.599017 0.227814,0.715604 -0.02012,0.063 -0.05895,0.187611 -0.07908,0.250595 0.761154,0.01206 1.525027,0.0295 2.288874,0.004 -0.0027,-0.08309 -0.0094,-0.249255 -0.01206,-0.33234 -0.02143,-1.045264 -0.02009,-2.089188 -0.02143,-3.133112 1.424494,0.15545 2.866422,0.02144 4.300337,0.06968 -0.02817,2.685525 0.01473,5.371049 -0.0013,8.056577 0.01206,0.907236 -0.04156,1.817138 0.04823,2.721694 -0.759813,-0.16215 -1.539754,-0.08709 -2.307621,-0.09917 -0.644593,0.01474 -1.293166,-0.0469 -1.931045,0.04156 l -0.05228,0.0268 c -0.01072,-1.007742 0.0067,-2.01681 -0.02143,-3.024552 -0.05627,0.01876 -0.170191,0.0536 -0.227814,0.07102 0.0777,-0.124641 0.158116,-0.247929 0.241188,-0.368523 -0.749079,0.008 -1.498199,-0.01608 -2.244638,0.0134 -0.01875,0.0268 -0.05627,0.08041 -0.07502,0.107193 -0.194339,0.364516 -0.121975,0.787968 -0.124655,1.185986 0.02951,1.232876 -0.02814,2.468418 0.02549,3.702647 0.05761,-0.01608 0.174183,-0.04558 0.231834,-0.06032 -0.0027,0.067 -0.0094,0.202352 -0.01206,0.270696 1.30524,0.0013 2.61584,0.04422 3.91974,-0.02545 0.02545,1.659008 0.04424,3.32071 -0.0027,4.981071 -4.631337,-0.04019 -9.266654,-0.02814 -13.8979907,-0.0054 -0.1005061,-1.033203 -0.028142,-2.073107 -0.057637,-3.10899 -0.025448,-0.71291 0.1152604,-1.451309 -0.120594,-2.140111 l 0.060304,0.02814 c 0.2197735,0.16751 0.4703688,0.284097 0.7584864,0.258649 0.9742393,-0.01474 1.9498193,0.03216 2.9240723,-0.02414 0.02411,-0.05494 0.07234,-0.16349 0.09649,-0.217093 0.16617,-0.943418 0.03752,-1.908277 0.0737,-2.861075 -0.0027,-3.171974 0.0054,-6.343953 0.004,-9.515927 -0.01206,-0.553454 0.06835,-1.121648 -0.100506,-1.656341 -0.01741,-0.04824 -0.05091,-0.147409 -0.067,-0.196992 -1.214087,-0.0067 -2.4268746,0.02411 -3.6396489,-0.01206 0.017421,-1.52768 -0.014741,-3.0540331 0.00134,-4.5803865 0.022766,-0.2612148 -0.097841,-0.494389 -0.2412297,-0.6980949 z" /><path
     style="fill:#5c8124;stroke:#5c8124;stroke-width:0.07960087"
     inkscape:connector-curvature="0"
     id="path677"
     d="m 7.3926882,28.536847 c -0.041556,-0.623138 0.4006845,-1.120309 0.6338587,-1.664382 0.096486,1.785003 -0.012061,3.573999 0.057637,5.358988 0.085765,-0.04556 0.2586224,-0.139355 0.3457411,-0.184931 -0.022781,0.05494 -0.067004,0.163503 -0.089786,0.218433 -0.5038708,0.150089 -0.6633406,0.675401 -0.8549723,1.105568 l -0.061644,-0.140696 c -0.065677,-1.562549 -0.00536,-3.129105 -0.030835,-4.69298 z" /><path
     style="fill:#d3e2ab;stroke:#d3e2ab;stroke-width:0.07960087"
     inkscape:connector-curvature="0"
     id="path1491"
     d="M 1.6812587,0.44872404 C 1.8702102,0.27049313 2.0605019,0.00917714 2.3579867,0.04267919 14.335653,0.04401927 26.313293,0.03731886 38.290959,0.04401927 38.828332,0.20214895 39.411254,0.53716945 39.643075,1.0825828 39.249104,0.73014126 38.820278,0.34955797 38.260137,0.35089805 c -11.694896,-0.0335021 -23.391131,0 -35.0860404,-0.016081 -0.2988383,-0.00268 -0.5963499,0 -0.8898144,0.0241215 -0.2036791,0.0214413 -0.4073716,0.0536033 -0.6030235,0.0897855 z" /><path
     style="fill:#648a2c;stroke:#648a2c;stroke-width:0.07960087"
     inkscape:connector-curvature="0"
     id="path1509"
     d="M 2.2842956,0.35893854 C 2.5777601,0.33481707 2.8752717,0.3321369 3.17411,0.33481707 c 11.694896,0.016081 23.391131,-0.0174211 35.08604,0.016081 0.139342,0.0884454 0.282744,0.17689083 0.430167,0.2680164 -1.165872,0.0737045 -2.331756,0.0348421 -3.497628,0.0455628 -10.226179,0.00268 -20.450978,0.0067 -30.6771435,0.00402 C 3.8186895,0.64839626 3.1151464,0.72210077 2.4263443,0.61355412 2.3901754,0.54923019 2.3204778,0.4219224 2.2842956,0.35893854 Z" /><path
     style="fill:#96b969;stroke:#96b969;stroke-width:0.07960087"
     inkscape:connector-curvature="0"
     id="path1527"
     d="m 39.660523,1.1616477 c 0.297498,0.344401 0.306878,0.8187901 0.297498,1.2516366 -0.0054,11.7458187 0.004,23.4929817 -0.004,35.2401407 0.0067,0.246575 -0.08176,0.479749 -0.201013,0.694149 -0.03484,-0.16081 -0.06566,-0.3176 -0.09245,-0.474376 -0.03082,-11.465755 -0.0054,-22.932827 -0.01475,-34.3985822 -0.01473,-0.6351989 0.07908,-1.2797783 -0.08307,-1.9015764 0.02813,-0.1393551 0.06029,-0.2760435 0.09781,-0.4113917 z" /><path
     style="fill:#a7d666;stroke:#a7d666;stroke-width:0.07960087"
     inkscape:connector-curvature="0"
     id="path1533"
     d="m 39.56271,1.5730528 c 0.16215,0.6217981 0.06834,1.2663775 0.08307,1.9015764 0.0094,11.4657548 -0.01607,22.9328268 0.01475,34.3985818 -0.04156,0.05493 -0.125954,0.16349 -0.16751,0.217094 -0.06834,-1.932398 -0.0094,-3.868817 -0.03216,-5.802555 0.01741,-9.424797 -0.008,-18.850938 0.0027,-28.2757345 0.0094,-0.8134432 -0.07238,-1.6375936 0.09917,-2.4389627 z" /><path
     style="fill:#090d04;stroke:#090d04;stroke-width:0.07960087"
     inkscape:connector-curvature="0"
     id="path1539"
     d="M 6.3166023,5.9524408 C 15.59131,5.9082181 24.868684,5.9430602 34.144732,5.9363598 33.855287,6.4013683 33.573857,6.8717371 33.262985,7.3233447 32.977534,7.3193245 32.69345,7.3220046 32.416039,7.279122 l -0.0737,-0.018761 C 31.83045,7.1102717 31.295717,7.1920167 30.775792,7.1772758 23.408022,7.1745956 16.040251,7.181296 8.6738065,7.1745956 8.4741343,7.1585146 8.2959168,7.2094377 8.1377737,7.3260249 l -0.016081,-0.00402 -0.095146,-0.018748 c -0.5681947,0.013401 -1.1350494,0.017421 -1.7005506,0.012061 0.00268,-0.4543012 -0.00402,-0.9099291 -0.00938,-1.3628768 z" /><path
     style="fill:#090d04;stroke:#090d04;stroke-width:0.07960087"
     inkscape:connector-curvature="0"
     id="path1541"
     d="m 18.678859,22.454215 c 0.467688,-0.02411 0.938057,-0.03618 1.408426,0.0067 l 0.02411,0.180911 c -0.203692,0.33368 -0.423452,0.65664 -0.641899,0.980927 l -0.06966,-0.07637 c -0.261343,-0.01206 -0.517285,-0.01474 -0.773227,-0.02948 0.03884,-0.353782 0.03484,-0.710244 0.05225,-1.062685 z" /><path
     style="fill:#b5e075;stroke:#b5e075;stroke-width:0.07960087"
     inkscape:connector-curvature="0"
     id="path1545"
     d="m 0.74722151,2.4039037 c 0.0107207,-0.2385346 -0.016081,-0.4958304 0.12461423,-0.7008629 0.13266816,0.9393975 0.0375223,1.8935359 0.065664,2.8396203 0,11.0342489 0.00268,22.0684879 0,33.1027099 -0.0147409,0.147409 -0.0603037,0.286777 -0.13534828,0.420785 -0.13132804,-1.294519 -0.0067,-2.598419 -0.0469029,-3.896958 -0.008041,-10.587974 0.00402,-21.177306 -0.008041,-31.7652943 z" /><path
     style="fill:#5d802e;stroke:#5d802e;stroke-width:0.07960087"
     inkscape:connector-curvature="0"
     id="path1559"
     d="m 0.38271921,2.4199847 c 0.15948316,0.1835912 0.17958439,0.4234659 0.17690423,0.6593203 -0.0120607,11.479129 0.009381,22.958275 -0.008041,34.437431 -0.0308219,0.355122 0.18493132,0.6553 0.35915538,0.947425 -0.009381,0.04558 -0.0294818,0.138028 -0.0402025,0.183591 -0.1862714,0.26535 -0.39666427,0.513265 -0.6030369,0.76386 C 0.16833289,39.096693 0.03700486,38.78176 0.04772551,38.44808 0.05040568,27.463428 0.04906559,16.478785 0.04906559,5.4954729 0.07451375,4.4636097 -0.0929965,3.3808235 0.38273261,2.4199847 Z" /><path
     style="fill:#3f5e15;stroke:#3f5e15;stroke-width:0.07960087"
     inkscape:connector-curvature="0"
     id="path1687"
     d="m 6.083428,5.4740315 c 5.994187,-0.038862 11.991054,-0.00402 17.985241,-0.018761 3.492267,0.020101 6.98452,-0.032162 10.475447,0.025448 -0.03752,0.068344 -0.11392,0.2077128 -0.152782,0.2774104 l -0.100507,0.071024 c -8.899471,0.00536 -17.798982,-0.00134 -26.6984532,0.00402 -0.4944769,0 -0.9916607,0.025475 -1.4781105,-0.061644 -0.00804,-0.075017 -0.022795,-0.2237795 -0.030835,-0.297484 z" /><path
     style="fill:#94bc61;stroke:#94bc61;stroke-width:0.07960087"
     inkscape:connector-curvature="0"
     id="path1709"
     d="m 5.9614806,5.7460816 0.1527693,0.025448 c 0.4864498,0.087105 0.9836336,0.061644 1.4781105,0.061644 8.8994716,-0.00536 17.7989826,0.00134 26.6984536,-0.00402 l -0.06432,0.048243 -0.08176,0.05895 c -9.276048,0.0067 -18.553436,-0.028142 -27.8281297,0.016081 0.00536,0.4529477 0.012061,0.9085756 0.00938,1.3628634 C 6.115578,7.7039148 6.181242,8.1528423 6.181242,8.5776483 6.187942,16.977269 6.178562,25.379587 6.189282,33.779221 6.174541,33.858281 6.147726,34.015075 6.134339,34.09414 5.9212647,33.952105 5.9373457,33.705516 5.9386858,33.488423 5.9440461,27.50229 5.9534267,21.51747 5.9373457,15.53266 5.9574335,12.270914 5.9091772,9.0078144 5.9614538,5.7460682 Z" /><path
     style="fill:#a8d367;stroke:#a8d367;stroke-width:0.07960087"
     inkscape:connector-curvature="0"
     id="path1711"
     d="m 34.290814,5.8291533 0.100506,-0.071024 0.146083,-0.083085 c -0.0013,9.4113967 -0.0027,18.8241367 0,28.2368727 -0.06566,-0.0054 -0.198333,-0.01608 -0.263997,-0.02144 -0.308218,-0.02545 -0.615111,-0.0335 -0.917969,-0.03617 l -0.0831,-0.120608 -0.0027,-0.06032 c 0.301519,0.0094 0.60569,0.0201 0.913909,0.03084 0.06834,-3.86615 0.01206,-7.736306 0.02948,-11.603783 0.0094,-5.407235 -0.01875,-10.815806 0.01341,-16.2230239 l 0.06432,-0.048256 z" /><path
     style="fill:#5b8224;stroke:#5b8224;stroke-width:0.07960087"
     inkscape:connector-curvature="0"
     id="path1719"
     d="m 34.144732,5.9363598 0.08176,-0.05895 c -0.03216,5.4072302 -0.004,10.8158012 -0.01341,16.2230232 -0.01741,3.867477 0.03886,7.737633 -0.02948,11.603783 -0.308219,-0.01072 -0.612391,-0.02144 -0.913909,-0.03084 -0.0067,-8.784224 0.0094,-17.567139 -0.0067,-26.3500361 0.310872,-0.4516076 0.592302,-0.9219898 0.881747,-1.3869849 z" /><path
     style="fill:#b1c880;stroke:#b1c880;stroke-width:0.07960087"
     inkscape:connector-curvature="0"
     id="path1777"
     d="M 8.1377603,7.3260249 C 8.2959034,7.2094377 8.4741209,7.1585146 8.6737931,7.1745956 c 7.3664439,0.0067 14.7342149,0 22.1019859,0.00268 0.519938,0.014741 1.054658,-0.067004 1.566542,0.083085 -0.50253,0.1969921 -1.047917,0.1072066 -1.569236,0.1206074 -7.483031,-0.00402 -14.967362,0 -22.4503933,0 L 8.1377603,7.3260249 Z" /><path
     style="fill:#6d9433;stroke:#6d9433;stroke-width:0.07960087"
     inkscape:connector-curvature="0"
     id="path1779"
     d="m 32.342321,7.2603608 0.07371,0.018761 c 0.03752,0.021441 0.11258,0.067004 0.150103,0.088445 -0.0054,2.9039442 0.01206,5.8092552 -0.0094,8.7132132 -0.02814,0.05225 -0.08712,0.155436 -0.116601,0.206359 -0.02948,-0.03618 -0.08977,-0.108533 -0.119253,-0.144729 0.195651,-0.584276 0.08307,-1.207414 0.10856,-1.809111 -0.01072,-2.278139 0.02545,-4.5562782 -0.01609,-6.8330775 -0.07236,0.034842 -0.21708,0.1018463 -0.289444,0.1366884 -2.054359,0.080405 -4.114052,0.013401 -6.169738,0.032162 -5.67124,0.00134 -11.34378,-0.00268 -17.0150208,-0.00268 C 8.6832005,7.6958741 8.5062963,7.514963 8.3227051,7.3809548 c 7.4830309,0 14.9673629,-0.00402 22.4503939,0 0.521319,-0.013401 1.066705,0.076398 1.569236,-0.120594 z" /><path
     style="fill:#a5d462;stroke:#a5d462;stroke-width:0.07960087"
     inkscape:connector-curvature="0"
     id="path1785"
     d="m 8.0265469,7.3032435 0.095146,0.018748 c 0.1434021,0.2036925 0.2640095,0.4368667 0.2412147,0.6981961 -0.016081,1.5263534 0.016081,3.0527064 -0.00134,4.5803864 -0.00134,0.063 -0.00402,0.187612 -0.0067,0.249255 -0.076371,-0.01072 -0.2304941,-0.0335 -0.3082054,-0.04422 0.00938,-1.455329 0,-2.910658 0.00804,-4.3659871 C 8.0238802,8.2185061 8.0975981,7.9196678 7.85771,7.7963802 7.9126534,7.6315636 7.9635765,7.4640533 8.0265603,7.3032435 Z" /><path
     style="fill:#a9d26d;stroke:#a9d26d;stroke-width:0.07960087"
     inkscape:connector-curvature="0"
     id="path1789"
     d="m 32.123915,7.6369239 c 0.07236,-0.034842 0.21708,-0.1018462 0.289444,-0.1366884 0.04156,2.2767993 0.0054,4.5549385 0.01609,6.8330785 -0.02549,0.601696 0.08709,1.224835 -0.10856,1.80911 -0.04424,-0.05494 -0.132669,-0.16483 -0.176905,-0.221113 -0.0094,-2.761909 0.0362,-5.523818 -0.02007,-8.2843871 z" /><path
     style="fill:#598224;stroke:#598224;stroke-width:0.07960087"
     inkscape:connector-curvature="0"
     id="path1793"
     d="m 7.8576966,7.7963936 c 0.2398747,0.1232876 0.1661702,0.4221259 0.1969921,0.6432394 -0.00804,1.4553291 0.00134,2.910658 -0.00804,4.365987 0.077725,0.01072 0.2318342,0.0335 0.3082054,0.04422 1.2315488,0.05494 2.4885459,0.136688 3.7133679,-0.04019 -0.363162,0.375209 -0.210367,0.923316 -0.235856,1.392345 -0.004,4.126099 0.02011,8.252229 -0.01206,12.377001 -0.203692,0.01742 -0.407384,0.03618 -0.603037,0.06298 -0.08712,-2.894577 -0.01206,-5.793174 -0.0335,-8.689095 -0.0268,-1.161852 0.05091,-2.326383 -0.04692,-3.485554 l -0.0027,-0.05898 c 0.201013,-0.410051 0.461015,-0.798689 0.582949,-1.242242 -0.28143,-0.140709 -0.615111,-0.06032 -0.915289,-0.08042 -0.8442512,0.03216 -1.6938498,-0.05225 -2.5327411,0.0402 -0.3832769,0.288117 -0.456968,0.844251 -0.6392191,1.267717 -0.3148988,-0.298823 -0.2304736,-0.742377 -0.235834,-1.12966 0.00536,-1.298553 0.00402,-2.595739 -0.00134,-3.8929386 -0.04559,-0.5695483 0.3068519,-1.0506377 0.4649816,-1.5746098 z" /><path
     style="fill:#496f14;stroke:#496f14;stroke-width:0.07960087"
     inkscape:connector-curvature="0"
     id="path1899"
     d="m 8.3615674,12.600588 c 1.2127742,0.03618 2.4255616,0.0054 3.6396496,0.01206 0.01609,0.04958 0.0496,0.148749 0.067,0.196992 -1.224822,0.176878 -2.4818186,0.09515 -3.7133674,0.04019 0.00268,-0.06164 0.00536,-0.186271 0.0067,-0.249255 z" /><path
     style="fill:#4f7024;stroke:#4f7024;stroke-width:0.07960087"
     inkscape:connector-curvature="0"
     id="path1901"
     d="m 18.404129,12.593887 c 2.89325,0.01608 5.787841,0.01742 8.682391,-0.0013 -0.06432,0.128648 -0.123274,0.259963 -0.176904,0.393971 -0.142022,1.031876 -0.04152,2.090541 -0.04689,3.133112 0.07506,0.0067 0.226461,0.01876 0.301519,0.02548 -0.125955,0.05493 -0.257323,0.07503 -0.393971,0.06298 -0.03484,-0.966199 0.03484,-1.935065 -0.06834,-2.897257 0,-0.0402 -0.0027,-0.120607 -0.004,-0.159483 -2.656055,0.01341 -5.314792,-0.02545 -7.970807,0.01876 -0.187625,0.360496 -0.03886,0.829524 -0.06432,1.231549 l 0.0027,0.08174 -0.10584,-0.01206 -0.07774,-0.0094 c 0.01206,-0.538713 0.03216,-1.080093 -0.04424,-1.613446 -0.008,-0.06432 -0.02543,-0.191632 -0.03349,-0.254615 z" /><path
     style="fill:#a1cf5e;stroke:#a1cf5e;stroke-width:0.07960087"
     inkscape:connector-curvature="0"
     id="path1909"
     d="m 12.068221,12.80964 c 0.16885,0.534693 0.08847,1.102888 0.100506,1.656342 0.0013,3.171974 -0.0067,6.343952 -0.004,9.515926 -0.03618,0.952798 0.09245,1.917644 -0.07371,2.861075 -0.294818,-0.02278 -0.582949,-0.04422 -0.872393,-0.05895 l -0.0013,-0.142062 c 0.195652,-0.0268 0.399344,-0.04556 0.603037,-0.06298 0.03216,-4.124772 0.008,-8.250902 0.01206,-12.377001 0.02549,-0.469029 -0.127307,-1.017136 0.235855,-1.392346 z" /><path
     style="fill:#aad86d;stroke:#aad86d;stroke-width:0.07960087"
     inkscape:connector-curvature="0"
     id="path1911"
     d="m 18.183028,12.876645 c 0.06432,-0.0067 0.191619,-0.02144 0.254603,-0.02814 0.0764,0.533352 0.05631,1.074732 0.04424,1.613445 -0.08176,1.041244 0.07236,2.095888 -0.09649,3.130432 -0.294818,-0.116587 -0.209066,-0.470369 -0.227814,-0.715604 0.0295,-1.333368 -0.004,-2.66675 0.02546,-4.000131 z" /><path
     style="fill:#a9d468;stroke:#a9d468;stroke-width:0.07960087"
     inkscape:connector-curvature="0"
     id="path1917"
     d="m 26.909629,12.986531 c 0.05899,-0.004 0.175564,-0.01206 0.234514,-0.01608 0.05094,0.994341 0.0013,1.990022 0.02951,2.985703 l -0.0094,0.188952 c -0.07506,-0.0067 -0.22646,-0.01876 -0.301518,-0.02548 0.0054,-1.042557 -0.09513,-2.101236 0.04689,-3.133099 z" /><path
     style="fill:#0a0d03;stroke:#0a0d03;stroke-width:0.07960087"
     inkscape:connector-curvature="0"
     id="path1929"
     d="m 7.6298827,14.393617 c 0.1822511,-0.423452 0.2559422,-0.979586 0.6392191,-1.267717 0.8388913,-0.09245 1.6884899,-0.008 2.5327412,-0.0402 0.300179,0.0201 0.633859,-0.0603 0.91529,0.08042 -0.121934,0.443553 -0.381937,0.832191 -0.582949,1.242242 -1.1685384,-0.01206 -2.3370899,0.01742 -3.5043013,-0.01474 z" /><path
     style="fill:#0a0d03;stroke:#0a0d03;stroke-width:0.07960087"
     inkscape:connector-curvature="0"
     id="path1931"
     d="m 7.6513106,33.505871 c 0.2036924,-0.310886 0.2733767,-0.750446 0.6030369,-0.955479 4.0671625,0.08308 8.1369775,0.01341 12.2068205,0.03886 0.666021,0.02548 1.349476,-0.08845 2.004762,0.09783 -0.227813,0.286777 -0.439546,0.585616 -0.678094,0.861686 -4.710375,-0.07372 -9.42477,0.01072 -14.1365254,-0.0429 z" /><path
     style="fill:#080d01;stroke:#080d01;stroke-width:0.07960087"
     inkscape:connector-curvature="0"
     id="path1935"
     d="m 18.727115,13.170122 c 2.656016,-0.04422 5.314752,-0.0054 7.970808,-0.01876 0.0013,0.03886 0.004,0.119268 0.004,0.159483 -0.251949,0.356462 -0.49985,0.715604 -0.710243,1.098868 -0.263997,-0.004 -0.521306,-0.0054 -0.777248,-0.0094 -0.121934,-0.471709 -0.640559,-0.376576 -1.005061,-0.381923 -1.265024,0.03484 -2.532742,-0.04958 -3.795126,0.04422 -0.07636,0.111227 -0.146042,0.226488 -0.206373,0.347082 -0.517258,-0.0027 -1.031863,0 -1.545087,-0.008 0.02543,-0.402065 -0.123328,-0.871093 0.06431,-1.231575 z" /><path
     style="fill:#5a8126;stroke:#5a8126;stroke-width:0.07960087"
     inkscape:connector-curvature="0"
     id="path1945"
     d="m 25.991686,14.409698 c 0.210407,-0.383263 0.458295,-0.742392 0.710244,-1.098867 0.103186,0.962192 0.0335,1.931058 0.06834,2.897257 0.136661,0.01206 0.268016,-0.008 0.393971,-0.06298 l 0.0094,-0.188952 0.03616,0.0013 c 0.187624,0.396664 0.648613,0.274717 1.006401,0.292151 1.301247,-0.0295 2.603806,0.01206 3.906353,-0.0094 0.0054,-0.0804 0.01607,-0.238535 0.02143,-0.31894 0.04424,0.05628 0.132669,0.16617 0.176905,0.221114 0.02948,0.03618 0.08977,0.108533 0.119254,0.144729 -0.06968,0.09783 -0.138029,0.195665 -0.203693,0.293491 -0.398004,-0.255956 -0.885781,-0.136688 -1.326668,-0.15679 -1.290485,0.03618 -2.590392,-0.06432 -3.874163,0.0469 -0.348435,0.32296 -0.498511,0.813443 -0.849626,1.14309 -0.03618,-0.0469 -0.1099,-0.140708 -0.147422,-0.187611 -0.075,-1.003735 0.02148,-2.01283 -0.04688,-3.016538 z" /><path
     style="fill:#5a8224;stroke:#5a8224;stroke-width:0.07960087"
     inkscape:connector-curvature="0"
     id="path1967"
     d="m 20.207879,14.409698 c 0.06033,-0.120594 0.130015,-0.235854 0.206373,-0.347081 0.04558,0.104526 0.0938,0.210406 0.147422,0.31894 -0.04826,0.02814 -0.146082,0.08308 -0.194312,0.109873 -0.06298,0.954152 0.04018,1.914977 -0.05362,2.870456 -0.250582,-0.0067 -0.49717,-0.01072 -0.742405,-0.0134 -0.0013,-0.565515 -0.0094,-1.131043 -0.02545,-1.695204 0.209053,-0.420772 0.466335,-0.816097 0.661987,-1.243583 z" /><path
     style="fill:#89ab4d;stroke:#89ab4d;stroke-width:0.07960087"
     inkscape:connector-curvature="0"
     id="path1969"
     d="m 20.414252,14.062617 c 1.262384,-0.09381 2.530088,-0.0094 3.795125,-0.04422 0.364502,0.0054 0.883128,-0.08979 1.005062,0.381924 l 0.02948,0.05628 -0.205032,-0.004 -0.176864,-0.0013 c -1.433915,-0.04824 -2.875843,0.08577 -4.300337,-0.06968 -0.05363,-0.108534 -0.101859,-0.214414 -0.147435,-0.31894 z" /><path
     style="fill:#0b0e03;stroke:#0b0e03;stroke-width:0.07960087"
     inkscape:connector-curvature="0"
     id="path1973"
     d="m 1.997518,39.518819 c 10.262361,0.03618 20.526023,0.0067 30.788384,0.01608 1.886849,0.02414 3.776338,-0.05359 5.660506,0.04424 -0.191618,0.247915 -0.39129,0.49047 -0.596336,0.724984 l -0.07102,0.07906 c -0.152756,0.01742 -0.296159,0.05895 -0.428827,0.124614 -11.749866,0.03084 -23.501031,0 -35.2508567,0.01474 -0.2814173,0.01742 -0.5440867,-0.08308 -0.8080695,-0.143375 l 0.025475,-0.01206 C 1.3891248,40.330922 1.5365472,40.258542 1.6088982,40.22236 1.736202,39.986494 1.86619,39.75198 1.997518,39.518819 Z" /><path
     style="fill:#6f933a;stroke:#6f933a;stroke-width:0.07960087"
     inkscape:connector-curvature="0"
     id="path1987"
     d="m 18.481867,14.461962 0.07774,0.0094 c -0.0013,1.013089 -0.06834,2.032891 0.02948,3.044666 0.66334,-0.01072 1.328008,-0.01608 1.994028,-0.0013 0.0027,0.08309 0.0094,0.249256 0.01206,0.332341 -0.763847,0.02548 -1.527707,0.008 -2.288873,-0.004 0.02011,-0.06298 0.05895,-0.187598 0.07908,-0.250595 0.168837,-1.034557 0.01471,-2.089201 0.09647,-3.130445 z" /><path
     style="fill:#b8d78a;stroke:#b8d78a;stroke-width:0.07960087"
     inkscape:connector-curvature="0"
     id="path1989"
     d="m 18.559605,14.471342 0.10584,0.01206 c 0.03085,0.887134 -0.02143,1.778289 0.01743,2.665423 0.08042,0.314919 0.509231,0.134008 0.745099,0.182251 0.05359,-0.557474 -0.09649,-1.148437 0.117914,-1.677783 0.01609,0.564175 0.02411,1.129703 0.02545,1.695204 0.245248,0.0027 0.491837,0.0067 0.742405,0.0134 0.09381,-0.955479 -0.0094,-1.916304 0.05362,-2.870456 0.04823,-0.0268 0.146042,-0.08174 0.194312,-0.109873 0.0013,1.043924 0,2.087848 0.02143,3.133112 -0.666021,-0.01474 -1.330688,-0.0094 -1.994029,0.0013 -0.09781,-1.011776 -0.03081,-2.031578 -0.02947,-3.04468 z" /><path
     style="fill:#a7d26a;stroke:#a7d26a;stroke-width:0.07960087"
     inkscape:connector-curvature="0"
     id="path1991"
     d="m 24.862011,14.451241 0.176864,0.0013 c -0.0134,3.444011 0.02147,6.888025 -0.0013,10.332036 -0.0268,0.151429 -0.06968,0.300179 -0.128647,0.444894 -0.08977,-0.904555 -0.03618,-1.814458 -0.04823,-2.721693 0.01608,-2.685528 -0.02681,-5.371039 0.0013,-8.056577 z" /><path
     style="fill:#9fbc76;stroke:#9fbc76;stroke-width:0.07960087"
     inkscape:connector-curvature="0"
     id="path1993"
     d="m 25.038875,14.452581 0.205032,0.004 c 0.01743,0.03216 0.0496,0.09783 0.06566,0.129988 0.02545,3.351545 -0.008,6.704434 0.01341,10.057306 0.01072,0.361836 -0.004,0.747779 -0.253289,1.037224 -0.03886,-0.109874 -0.07368,-0.21842 -0.107179,-0.322947 L 24.9089,25.229511 c 0.05895,-0.144729 0.101846,-0.293465 0.128648,-0.444894 0.02279,-3.444011 -0.01206,-6.888025 0.0013,-10.332036 z" /><path
     style="fill:#456618;stroke:#456618;stroke-width:0.07960087"
     inkscape:connector-curvature="0"
     id="path2019"
     d="m 27.209807,15.957493 c 1.642941,-0.07236 3.289902,-0.01072 4.934196,-0.03618 -0.0054,0.0804 -0.01607,0.238534 -0.02143,0.318939 -1.30256,0.02144 -2.605106,-0.0201 -3.906353,0.0094 -0.357802,-0.01742 -0.81879,0.104513 -1.006415,-0.292151 z" /><path
     style="fill:#090e04;stroke:#090e04;stroke-width:0.07960087"
     inkscape:connector-curvature="0"
     id="path2033"
     d="m 27.035624,16.470744 c 1.283771,-0.111226 2.583678,-0.01072 3.874163,-0.0469 0.440887,0.0201 0.928664,-0.09917 1.326668,0.156789 -0.313552,0.363162 -0.501191,0.852292 -0.913909,1.117629 -1.076086,0.09514 -2.152185,-0.143376 -3.225591,-0.008 -0.541393,0.07906 -1.08414,-0.09114 -1.620172,0.01206 -0.07237,-0.02278 -0.21842,-0.067 -0.290785,-0.08845 0.351115,-0.329673 0.501191,-0.820143 0.849626,-1.143103 z" /><path
     style="fill:#475c1f;stroke:#475c1f;stroke-width:0.07960087"
     inkscape:connector-curvature="0"
     id="path2143"
     d="m 18.365266,21.89004 c 0.746439,-0.02948 1.495558,-0.0054 2.244638,-0.0134 -0.08307,0.120594 -0.16349,0.243882 -0.241188,0.368523 l -0.06432,0.09917 c -0.06835,0.09649 -0.132668,0.195652 -0.192999,0.297498 l -0.02411,-0.180911 c -0.470369,-0.0429 -0.940738,-0.03082 -1.408426,-0.0067 -0.01741,0.352441 -0.01341,0.708903 -0.05225,1.062698 l -0.129988,0.113907 c -0.04424,-0.542733 0.159456,-1.171232 -0.206373,-1.633573 0.01875,-0.0268 0.05627,-0.08041 0.07502,-0.107207 z" /><path
     style="fill:#a9d76e;stroke:#a9d76e;stroke-width:0.07960087"
     inkscape:connector-curvature="0"
     id="path2147"
     d="m 18.165594,23.183219 c 0.0027,-0.398018 -0.06968,-0.82147 0.124654,-1.185986 0.365843,0.462342 0.16215,1.090827 0.206373,1.633574 -0.07506,1.064011 -0.0013,2.13073 -0.07371,3.194755 -0.05765,0.01474 -0.17421,0.04424 -0.231834,0.06032 -0.05363,-1.234229 0.004,-2.469784 -0.02549,-3.70266 z" /><path
     style="fill:#abd46e;stroke:#abd46e;stroke-width:0.07960087"
     inkscape:connector-curvature="0"
     id="path2149"
     d="m 20.368716,22.245162 c 0.05761,-0.01742 0.17153,-0.05226 0.227813,-0.07102 0.02814,1.007742 0.01072,2.01681 0.02143,3.024552 -0.05225,0.06166 -0.156776,0.183591 -0.209066,0.245249 -0.22512,-1.013116 -0.07234,-2.0691 -0.104499,-3.09961 l 0.06432,-0.09917 z" /><path
     style="fill:#5a8127;stroke:#5a8127;stroke-width:0.07960087"
     inkscape:connector-curvature="0"
     id="path2151"
     d="m 20.111393,22.641826 c 0.06033,-0.101846 0.124654,-0.201012 0.192999,-0.297498 0.03216,1.03051 -0.120621,2.086494 0.104499,3.09961 0.05228,-0.06166 0.156817,-0.183592 0.209066,-0.245249 l 0.05228,-0.0268 c 0.02411,0.05628 0.07368,0.170191 0.09783,0.226461 0.651266,0.06434 1.3106,0.01072 1.965887,0.02816 0.742405,-0.02278 1.491525,0.06432 2.22857,-0.06834 0.0335,0.104526 0.06832,0.213073 0.107179,0.322946 -0.28005,0.375223 -0.541393,0.76386 -0.821456,1.13907 -0.491797,-0.008 -0.984974,0.0335 -1.472751,-0.01608 -0.0429,-0.0268 -0.127307,-0.07773 -0.17019,-0.104513 0.523959,0.03751 1.061332,0.08843 1.58533,-0.008 0.268017,-0.293464 0.451595,-0.648599 0.648573,-0.99166 -1.46873,-0.03617 -2.936106,-0.0067 -4.403496,-0.01608 -0.209066,0.3377 -0.415439,0.696856 -0.765213,0.908575 l -0.125955,0.008 c -0.09111,-0.990321 -0.03082,-1.986015 -0.07506,-2.977676 0.218461,-0.324273 0.438221,-0.647233 0.641913,-0.980913 z" /><path
     style="fill:#39580b;stroke:#39580b;stroke-width:0.07960087"
     inkscape:connector-curvature="0"
     id="path2233"
     d="m 20.670234,25.171901 c 0.637879,-0.08845 1.286465,-0.02681 1.931045,-0.04156 0.767867,0.01206 1.547794,-0.06298 2.307621,0.09917 l 0.05362,0.128661 c -0.737045,0.132668 -1.486165,0.04556 -2.22857,0.06834 -0.655287,-0.01742 -1.314634,0.03618 -1.965887,-0.02815 -0.02415,-0.05627 -0.07372,-0.170163 -0.09783,-0.22646 z" /><path
     style="fill:#090c01;stroke:#090c01;stroke-width:0.07960087"
     inkscape:connector-curvature="0"
     id="path2247"
     d="m 19.670506,26.592388 c 0.349775,-0.211733 0.556147,-0.570875 0.765214,-0.908576 1.467389,0.0094 2.934766,-0.02009 4.403496,0.01608 -0.196992,0.343075 -0.380557,0.698196 -0.648573,0.991661 -0.523999,0.09649 -1.061372,0.04556 -1.585331,0.008 l -0.05895,-0.01608 c -0.944784,-0.176904 -1.920364,-0.03352 -2.875856,-0.09114 z" /><path
     style="fill:#acc67b;stroke:#acc67b;stroke-width:0.07960087"
     inkscape:connector-curvature="0"
     id="path2265"
     d="m 18.613195,26.585674 c 0.308219,0.02144 0.617791,0.0295 0.931357,0.01475 l 0.125954,-0.008 c 0.955492,0.05764 1.931085,-0.08576 2.875843,0.09114 -0.151443,0.0804 -0.310913,0.117927 -0.478423,0.112567 -1.153824,0.01474 -2.307621,-0.03082 -3.461445,-0.02814 0.0027,-0.04556 0.0054,-0.136688 0.0067,-0.182265 z" /><path
     style="fill:#a2d05d;stroke:#a2d05d;stroke-width:0.07960087"
     inkscape:connector-curvature="0"
     id="path2271"
     d="m 8.0265469,26.872465 c 0.018761,-0.03617 0.057637,-0.109873 0.076398,-0.147409 l 0.1487491,0.07236 c 0.2358544,0.688802 0.095146,1.427188 0.120594,2.140111 0.029495,1.035884 -0.042869,2.075787 0.057637,3.108991 -0.087105,0.04558 -0.2599625,0.139368 -0.3457411,0.184931 -0.069698,-1.784989 0.038849,-3.573999 -0.057637,-5.358988 z" /><path
     style="fill:#638b25;stroke:#638b25;stroke-width:0.07960087"
     inkscape:connector-curvature="0"
     id="path2273"
     d="m 8.3119844,26.825562 c 0.9635324,-0.112567 1.9377716,-0.05761 2.9066516,-0.04153 0.289444,0.01474 0.577588,0.03617 0.872393,0.05895 -0.02415,0.0536 -0.07236,0.16215 -0.09649,0.217093 -0.974239,0.05628 -1.949819,0.0094 -2.9240722,0.02414 -0.2881176,0.02545 -0.5387129,-0.09114 -0.7584864,-0.258649 z" /><path
     style="fill:#a4d462;stroke:#a4d462;stroke-width:0.07960087"
     inkscape:connector-curvature="0"
     id="path2279"
     d="m 22.330582,27.07081 c 0.07371,-0.03084 0.219787,-0.09114 0.293465,-0.121947 0.03752,1.699211 0.0335,3.402468 -0.0013,5.101679 -0.07368,0 -0.2211,0.0013 -0.294818,0.0013 0.04693,-1.660362 0.02814,-3.322077 0.0027,-4.981072 z" /><path
     style="fill:#385510;stroke:#385510;stroke-width:0.07960087"
     inkscape:connector-curvature="0"
     id="path2379"
     d="m 8.4299116,32.046508 c 4.6313364,-0.02277 9.2666534,-0.03483 13.8979904,0.0054 l 0.127308,0.127322 c -0.609711,0.160809 -1.24491,0.07369 -1.865381,0.09245 -4.08323,0 -8.166446,0.008 -12.2496895,-0.0067 0.022768,-0.05493 0.066991,-0.163477 0.089772,-0.218434 z" /><path
     style="fill:#4f6d28;stroke:#4f6d28;stroke-width:0.07960087"
     inkscape:connector-curvature="0"
     id="path2381"
     d="m 22.455196,32.179203 c 0.07236,0.07637 0.148763,0.155436 0.230495,0.238521 -0.0777,0.08711 -0.151416,0.176904 -0.219761,0.269357 -0.655286,-0.186272 -1.338741,-0.07235 -2.004762,-0.09783 -4.069843,-0.02545 -8.139658,0.04422 -12.2068205,-0.03886 -0.3296602,0.205033 -0.3993445,0.644593 -0.6030369,0.955479 l -0.069671,0.08711 c -0.024135,-0.05627 -0.072364,-0.16617 -0.096499,-0.222453 0.1916451,-0.430167 0.3511015,-0.955479 0.8549723,-1.105568 4.0832431,0.01475 8.1664731,0.0067 12.2496891,0.0067 0.620485,-0.01876 1.255684,0.06834 1.865394,-0.09245 z" /><path
     style="fill:#bac8a3;stroke:#bac8a3;stroke-width:0.07960087"
     inkscape:connector-curvature="0"
     id="path2393"
     d="m 7.5816397,33.592976 0.069671,-0.08711 c 4.7117553,0.0536 9.4261503,-0.03082 14.1365253,0.0429 0.452961,0.245235 0.986313,0.117927 1.48079,0.146069 3.334138,0.02548 6.672268,-0.05226 10.003699,0.03886 l 0.0831,0.120608 c -1.708604,0.05493 -3.417209,0.0094 -5.124473,0.02545 -4.734523,-0.01876 -9.467666,0.067 -14.202189,0.03752 -2.531428,-0.02681 -5.06551,0.06968 -7.5942448,-0.07906 0.3497614,-0.07102 0.7089034,-0.10856 1.0680454,-0.150102 0.020115,-0.02411 0.058977,-0.07235 0.079078,-0.09513 z" /><path
     style="fill:#6d982f;stroke:#6d982f;stroke-width:0.07960087"
     inkscape:connector-curvature="0"
     id="path2417"
     d="m 0.91071152,38.464174 c 0.42078578,0.115247 0.82815728,0.281431 1.21143408,0.495844 -0.076398,0 -0.2291674,0 -0.3055386,0 0.024108,0.07906 0.072351,0.238535 0.096486,0.318939 -0.056284,0 -0.1701905,0.0013 -0.227814,0.0013 l -0.1259811,-0.0764 c -0.2465751,-0.16617 -0.474389,-0.357788 -0.68880214,-0.556134 0.0107206,-0.04556 0.0308219,-0.138028 0.0402159,-0.183591 z" /><path
     style="fill:#45621f;stroke:#45621f;stroke-width:0.07960087"
     inkscape:connector-curvature="0"
     id="path2419"
     d="m 0.26747216,39.411612 c 0.20637263,-0.250595 0.4167655,-0.49851 0.6030369,-0.76386 0.21441314,0.198346 0.44222704,0.389964 0.68880214,0.556134 -0.3296602,0.06566 -0.5802555,0.373883 -0.5252987,0.715604 0.076371,0.156789 0.179571,0.297511 0.2827573,0.447601 -0.4717223,-0.15947 -0.78798165,-0.557474 -1.04929764,-0.955479 z" /><path
     style="fill:#537b23;stroke:#537b23;stroke-width:0.07960087"
     inkscape:connector-curvature="0"
     id="path2421"
     d="m 37.608857,39.065858 c 0.588283,0.0094 1.148464,-0.199673 1.715305,-0.335021 -0.04424,0.117927 -0.08847,0.238535 -0.128648,0.359156 -0.419459,0.422125 -0.767867,1.011761 -1.345442,1.214127 0.205032,-0.234514 0.404705,-0.477082 0.596336,-0.724984 -1.884168,-0.09783 -3.773657,-0.0201 -5.660506,-0.04424 -10.262361,-0.0094 -20.526023,0.0201 -30.788384,-0.01608 -0.1058665,-0.08309 -0.2103795,-0.16215 -0.3122391,-0.238521 0.05761,0 0.1715171,-0.0013 0.227814,-0.0013 -0.024135,-0.0804 -0.072365,-0.239874 -0.096486,-0.318939 0.076371,0 0.229154,0 0.3055386,0 0.5574608,0.155436 1.1403964,0.101846 1.7152916,0.104526 11.2567019,0 22.5147309,-0.0013 33.7714199,0.0013 z" /><path
     style="fill:#304413;stroke:#304413;stroke-width:0.07960087"
     inkscape:connector-curvature="0"
     id="path2425"
     d="M 1.0340125,39.91949 C 0.9790691,39.577782 1.2296644,39.26955 1.5593112,39.203886 l 0.1259811,0.0764 c 0.1018462,0.07637 0.2063592,0.155436 0.3122391,0.238521 -0.131328,0.233175 -0.261316,0.467689 -0.3886238,0.703543 -0.072351,0.03618 -0.2197734,0.10856 -0.2921244,0.144743 -0.1032131,-0.150092 -0.2063995,-0.2908 -0.2827707,-0.447603 z" /></svg>