<svg xmlns:dc="http://purl.org/dc/elements/1.1/" xmlns:cc="http://creativecommons.org/ns#" xmlns:rdf="http://www.w3.org/1999/02/22-rdf-syntax-ns#" xmlns="http://www.w3.org/2000/svg" height="64" width="64" xml:space="preserve" viewBox="0 0 63.999999 63.999999" y="0px" x="0px"><metadata><rdf:RDF><cc:Work><dc:format>image/svg+xml</dc:format><dc:type rdf:resource="http://purl.org/dc/dcmitype/StillImage"/><dc:title/><dc:date>2020</dc:date><dc:creator><cc:Agent><dc:title>Timothée Giet</dc:title></cc:Agent></dc:creator><cc:license rdf:resource="http://creativecommons.org/licenses/by-sa/4.0/"/></cc:Work><cc:License rdf:about="http://creativecommons.org/licenses/by-sa/4.0/"><cc:permits rdf:resource="http://creativecommons.org/ns#Reproduction"/><cc:permits rdf:resource="http://creativecommons.org/ns#Distribution"/><cc:requires rdf:resource="http://creativecommons.org/ns#Notice"/><cc:requires rdf:resource="http://creativecommons.org/ns#Attribution"/><cc:permits rdf:resource="http://creativecommons.org/ns#DerivativeWorks"/><cc:requires rdf:resource="http://creativecommons.org/ns#ShareAlike"/></cc:License></rdf:RDF></metadata><path d="M10.095 2.476a7.602 7.602 0 0 0-7.619 7.62v43.809a7.602 7.602 0 0 0 7.62 7.619h43.809a7.602 7.602 0 0 0 7.619-7.62V10.096a7.602 7.602 0 0 0-7.62-7.619zm5.715 7.62h33.333a4.751 4.751 0 0 1 4.762 4.761V48.19a4.751 4.751 0 0 1-4.762 4.762H15.81a4.751 4.751 0 0 1-4.762-4.762V14.857a4.751 4.751 0 0 1 4.762-4.762z" style="color:#000;clip-rule:nonzero;display:inline;overflow:visible;visibility:visible;opacity:1;isolation:auto;mix-blend-mode:normal;color-interpolation:sRGB;color-interpolation-filters:linearRGB;solid-color:#000;solid-opacity:1;fill:#e16f6f;fill-opacity:1;fill-rule:evenodd;stroke:#c43c3c;stroke-width:.95238096;stroke-linecap:square;stroke-linejoin:miter;stroke-miterlimit:4;stroke-dasharray:none;stroke-dashoffset:0;stroke-opacity:1;marker:none;color-rendering:auto;image-rendering:auto;shape-rendering:auto;text-rendering:auto;enable-background:accumulate"/><g style="font-style:normal;font-variant:normal;font-weight:400;font-stretch:normal;font-size:40px;line-height:125%;font-family:Kabel;-inkscape-font-specification:Kabel;letter-spacing:0;word-spacing:0;fill:#e16f6f;fill-opacity:1;stroke:#c43c3c;stroke-width:1px;stroke-linecap:butt;stroke-linejoin:miter;stroke-opacity:1"><path style="fill:#e16f6f;fill-opacity:1;stroke:#c43c3c;stroke-opacity:1" d="m46.346 19.778-4.922 6.162q-3.281-3.28-7.647-3.28h-.4q-2.197.038-4.121 1.357-1.914 1.318-3.076 3.398-1.162 2.129-1.162 4.404 0 4.043 2.685 6.72 2.637 2.724 6.758 2.724 1.123 0 2.803-.362 1.68-.361 1.797-.478v-4.805h-8.282l2.364-6.64h14.199v16.64q-.156.166-2.041 1.006-1.924.84-4.883 1.553-2.959.722-6.201.722-4.912 0-8.955-2.275-4.082-2.285-6.358-6.201-2.246-3.848-2.246-8.36v-.166q.078-4.638 2.285-8.437 2.159-3.799 6.036-6.084 3.837-2.236 8.486-2.275h.234q5.166 0 8.164 1.601 3.076 1.68 4.483 3.076z" transform="translate(1.524 1.524) scale(.95238)"/></g></svg>