<?xml version="1.0" encoding="UTF-8" standalone="no"?>
<svg
   xmlns:dc="http://purl.org/dc/elements/1.1/"
   xmlns:cc="http://creativecommons.org/ns#"
   xmlns:rdf="http://www.w3.org/1999/02/22-rdf-syntax-ns#"
   xmlns:svg="http://www.w3.org/2000/svg"
   xmlns="http://www.w3.org/2000/svg"
   xmlns:sodipodi="http://sodipodi.sourceforge.net/DTD/sodipodi-0.dtd"
   xmlns:inkscape="http://www.inkscape.org/namespaces/inkscape"
   version="1.1"
   id="Layer_1"
   x="0px"
   y="0px"
   viewBox="0 0 40 39.812431"
   enable-background="new 0 0 3508 2480"
   xml:space="preserve"
   inkscape:version="0.91 r13725"
   sodipodi:docname="i.svg"
   width="40"
   height="39.812431"><metadata
     id="metadata4083"><rdf:RDF><cc:Work
         rdf:about=""><dc:format>image/svg+xml</dc:format><dc:type
           rdf:resource="http://purl.org/dc/dcmitype/StillImage" /><dc:title></dc:title></cc:Work></rdf:RDF></metadata><defs
     id="defs4081" /><sodipodi:namedview
     pagecolor="#ffffff"
     bordercolor="#666666"
     borderopacity="1"
     objecttolerance="10"
     gridtolerance="10"
     guidetolerance="10"
     inkscape:pageopacity="0"
     inkscape:pageshadow="2"
     inkscape:window-width="1623"
     inkscape:window-height="1029"
     id="namedview4079"
     showgrid="false"
     showguides="false"
     inkscape:zoom="16.770606"
     inkscape:cx="13.248331"
     inkscape:cy="17.673563"
     inkscape:window-x="57"
     inkscape:window-y="21"
     inkscape:window-maximized="1"
     inkscape:current-layer="Layer_1"
     fit-margin-top="0"
     fit-margin-left="0"
     fit-margin-right="0"
     fit-margin-bottom="0" /><path
     style="fill:#88bb3c;stroke:#88bb3c;stroke-width:0.07949221"
     inkscape:connector-curvature="0"
     id="path511"
     d="m 24.396704,7.2476293 c 0.702996,0.036174 1.408731,0.047033 2.114681,0.029758 0.04698,0.022701 0.142298,0.068178 0.18932,0.090881 L 26.594581,7.4696271 C 25.911763,7.4318881 25.225902,7.3041811 24.545428,7.4180249 23.735878,7.5394915 22.925191,7.2695156 22.119281,7.397858 21.401266,7.5364329 20.677796,7.2887013 19.964292,7.4181435 19.072415,7.573915 18.176929,7.261724 17.28485,7.39738 16.400405,7.5401593 15.510492,7.2483808 14.627673,7.410014 14.045239,7.447518 13.462066,7.401884 12.881726,7.450226 l -0.03339,-0.1720631 c 2.153284,-0.013678 4.306346,0.024903 6.460583,-0.030272 1.694546,0.065511 3.392228,0.025311 5.087788,-2.623e-4 z" /><path
     style="fill:#68863b;stroke:#68863b;stroke-width:0.07949221"
     inkscape:connector-curvature="0"
     id="path1269"
     d="m 33.493989,0.1053885 c 0.894276,0.0185994 1.791122,0.0641602 2.687379,-0.001583 0.746575,0.0962149 1.601454,-0.11789384 2.265158,0.31417588 0.05491,0.17057157 0.104234,0.34485563 0.173705,0.51891273 C 38.512474,0.82505525 38.407094,0.7187088 38.304131,0.61785712 36.605709,0.45295049 34.900944,0.5235852 33.199018,0.51932032 26.457038,0.52465744 19.715293,0.52598666 12.974502,0.53407007 11.053464,0.44397871 9.1294731,0.62580408 7.2091933,0.49822637 5.5674113,0.59378686 3.9167914,0.46100871 2.2821607,0.5971733 2.0347263,0.5875186 1.8038499,0.54527168 1.5818835,0.46330835 1.6137912,0.41950183 1.6748468,0.33307658 1.7053712,0.2905339 3.2221939,0.20012963 4.7470483,0.28038674 6.2671683,0.25181828 10.429552,0.23793759 14.59344,0.24558476 18.756132,0.22635995 c 0.60597,0.021429 1.216753,0.0525062 1.821413,-0.0481041 0.86614,-0.1263672 1.73811,-0.0192008 2.609751,-0.027318 0.884793,-0.12533623 1.777076,0.0513079 2.666577,-0.0134549 0.892636,-0.09675656 1.793407,0.0950999 2.688413,-0.0202898 0.752771,-0.04015269 1.507544,0.0779601 2.263799,0.0232701 0.893766,-0.0926867 1.793448,0.0950887 2.687904,-0.0350747 z" /><path
     style="fill:#86b751;stroke:#86b751;stroke-width:0.07949221"
     inkscape:connector-curvature="0"
     id="path1275"
     d="m 38.446526,0.41798153 c 0.491117,0.23220896 0.784094,0.72688697 1.00427,1.20547877 -0.05983,-0.00867 -0.178106,-0.027268 -0.23659,-0.035861 l -0.05774,0.00217 C 38.99065,1.7521622 38.960898,1.9756874 38.956804,2.1952695 38.927418,1.7567091 38.80349,1.3316876 38.620244,0.936895 38.550774,0.76283789 38.501433,0.5885531 38.446526,0.41798153 Z" /><path
     style="fill:#8e7ead;stroke:#8e7ead;stroke-width:0.07949221"
     inkscape:connector-curvature="0"
     id="path1279"
     d="m 33.199018,0.51932032 c 1.701939,0.004266 3.406691,-0.0663698 5.105113,0.0985368 0.0092,0.0996914 0.02886,0.30182129 0.03805,0.40285118 0.537114,0.4424969 0.362975,1.216945 0.420222,1.8299433 0.09428,1.5197442 -0.108898,3.0377916 0.0055,4.5573066 0.107069,1.6518001 -0.107613,3.3045818 0.0021,4.9578658 0.125084,1.520106 -0.146533,3.039732 -0.0054,4.560723 0.160518,1.60649 -0.126676,3.213715 0.01364,4.821796 0.137554,1.609255 -0.133692,3.218688 -0.0029,4.828925 0.119156,1.602864 -0.09951,3.207188 0.01289,4.811019 0.09998,1.343153 -0.05871,2.686741 -0.02313,4.031683 -0.01616,0.850194 0.148405,1.703676 0.01846,2.551602 -0.03288,0.327895 -0.392413,0.455443 -0.60563,0.651418 -0.55685,0.205115 -1.151767,0.105219 -1.726405,0.147162 -1.074429,0.06392 -2.147758,-0.134789 -3.21703,0.0058 -0.807811,-0.03124 -1.614783,0.01933 -2.419546,0.0057 -1.084924,-0.08544 -2.173172,-0.01423 -3.25547,0.04657 -1.68418,-0.0341 -3.367868,-0.02933 -5.051455,0.02237 -1.829854,-0.09041 -3.657604,-0.0011 -5.486175,-0.01774 -1.653655,-0.102119 -3.307369,0.06383 -4.960244,-0.0034 C 11.299,38.780602 10.53932,38.896772 9.7796925,38.842722 8.7768737,38.773875 7.7729086,38.896645 6.772521,38.809187 5.8378211,38.478745 4.8529667,38.716497 3.8937334,38.684925 3.177812,38.664121 2.462402,38.731791 1.7508508,38.680414 1.3899649,38.541182 1.0244651,38.36418 0.74104596,38.108589 0.634609,37.633603 0.71537012,37.142144 0.7338178,36.663352 0.807088,35.676923 0.675205,34.692572 0.6438081,33.708387 0.656431,32.728002 0.79365793,31.749129 0.7218926,30.768074 0.7132106,29.736894 0.57845476,28.706801 0.6956711,27.677245 0.84734295,26.073266 0.544731,24.466937 0.6936301,22.864146 0.81868565,21.207751 0.54987462,19.548338 0.6976591,17.8932 0.7780806,16.947376 0.6883461,16.000189 0.6668457,15.055446 0.5749909,14.171122 0.7094857,13.28994 0.7274205,12.40769 0.70449701,11.464195 0.63594749,10.5222 0.62770905,9.5795174 0.73402463,8.0199286 0.71865758,6.4549548 0.62117734,4.8961651 0.62751587,3.9087179 0.77161872,2.9262042 0.72835629,1.9386962 0.67017799,1.5360727 0.90125308,1.1869645 1.1517071,0.89924053 1.4083046,0.54886227 1.9107016,0.7227217 2.2822015,0.59716216 c 1.6346307,-0.1361646 3.2852506,-0.003386 4.9270326,-0.0989469 1.9202799,0.12757771 3.8442709,-0.0542477 5.7653089,0.0358437 6.740764,-0.008072 13.482495,-0.009401 20.224475,-0.0147386 M 28.783243,5.3120917 c -0.715459,-0.052946 -1.428962,0.028245 -2.140358,-0.00169 -1.696306,-0.081691 -3.388635,0.07943 -5.083827,0.00182 -0.970903,-0.038918 -1.938455,0.055038 -2.90543,-0.00645 -1.001065,0.094785 -2.002816,-0.040999 -3.002558,0.00561 -0.850335,0.058886 -1.699112,-0.030915 -2.547003,0.008 -0.786129,0.036969 -1.571682,-0.081505 -2.35117,0.029534 C 8.9820728,5.354247 7.2066883,5.2480806 5.4388055,5.3701789 L 5.375909,5.295667 C 5.13383,5.8438711 5.2543955,6.4509869 5.2156156,7.031872 c 0.063739,1.5140354 0.069531,3.03425 0.00589,4.549287 -0.00736,1.030267 0.075178,2.058828 0.039718,3.088895 -0.060661,1.873061 0.023561,3.744733 -0.00768,5.61942 -0.077362,1.52098 0.1091472,3.044482 -0.012532,4.567047 -0.095617,0.930241 0.023051,1.862944 -0.00839,2.795391 0.1341321,0.968392 -0.041537,1.939792 -0.014893,2.912979 0.061908,0.867912 -9.147e-4,1.738312 0.054266,2.607179 0.030964,0.336785 -0.124195,0.816077 0.2480785,1.016266 1.3680755,0.127871 2.7659694,0.176985 4.1251782,-0.06822 0.5755977,-0.01106 1.1514177,-0.0744 1.7295357,-0.01028 0.7595,0.08083 1.514171,-0.114689 2.277088,-0.02293 0.940111,0.08681 1.881273,-0.03942 2.823767,0.02874 0.579266,0.04408 1.155938,-0.10767 1.740676,-0.04184 1.113979,0.09374 2.22981,-0.04027 3.347173,0.04025 0.980202,-0.153571 1.971197,0.05533 2.958336,-0.02951 0.739562,-0.06768 1.483486,0.100756 2.223726,-0.02721 0.992766,-0.04163 1.987977,0.115236 2.983253,0.02819 0.525125,-0.04335 1.051835,0.05411 1.579606,0.01089 0.04426,0.02389 0.131413,0.0716 0.174413,0.09408 0.786433,0.07831 1.585051,0.05812 2.368964,-0.06072 0.188406,-0.03785 0.29279,-0.253217 0.302686,-0.432283 0.09432,-1.34311 0.08571,-2.690596 0.06627,-4.035987 -0.0753,-1.644683 0.07456,-3.288971 5.97e-4,-4.93358 -0.102481,-1.39555 0.05644,-2.791396 -3.77e-4,-4.188443 -0.0835,-1.73897 0.05824,-3.478868 -0.0038,-5.217993 -0.122285,-1.691497 0.08796,-3.386072 -0.03156,-5.078769 -0.09363,-1.6041476 0.186443,-3.2278488 -0.06195,-4.820445 -0.05874,0.019538 -0.174802,0.058694 -0.232205,0.078306 l 0.06776,-0.1584309 c -0.962483,-0.094745 -1.927913,0.010051 -2.889691,-0.048467 -0.763678,-0.054244 -1.525506,0.076548 -2.286248,0.018419 z" /><path
     style="fill:#8e7ead;stroke:#8e7ead;stroke-width:0.07949221"
     inkscape:connector-curvature="0"
     id="path1281"
     d="m 23.842943,7.5668403 c 0.866538,0.059956 1.733665,-0.1092463 2.601856,0.017816 0.178245,0.7765003 0.04135,1.5798129 0.02731,2.3671304 -0.103011,0.8212683 0.125192,1.6393983 -0.01397,2.4599963 -0.782068,-0.03652 -1.563444,0.01144 -2.341892,0.03141 -0.144996,-0.02008 -0.213868,0.03777 -0.208173,0.177476 -0.17502,1.372158 -0.01696,2.756037 -0.118512,4.132282 0.03935,-0.32353 0.08401,-0.646754 0.127182,-0.967366 0.08544,1.752454 -0.06953,3.513092 0.04263,5.267022 -0.09055,1.856665 0.03587,3.715954 -0.02111,5.571794 0.0055,0.1437 0.02292,0.28809 0.04828,0.435584 0.795805,0.0065 1.597612,-0.144912 2.390538,0.01016 0.146931,0.130087 0.05163,0.375455 0.09516,0.557461 0.01685,1.028937 -0.09368,2.058877 -0.04076,3.089821 0.01888,0.337458 -0.0093,0.677663 -0.08798,1.009728 -0.75359,0.03073 -1.505751,-0.03765 -2.254641,0.02952 -0.593875,0.05028 -1.194823,-0.06202 -1.774315,0.09226 -0.04422,2.37e-4 -0.13154,0.0035 -0.175756,0.0037 -0.740007,-0.142762 -1.497399,-0.164518 -2.243494,-0.09989 -0.94808,0.08163 -1.895657,-0.06456 -2.841192,-0.0042 -0.851597,0.05748 -1.700785,-0.122148 -2.547084,-0.01478 -0.463149,0.06152 -0.930144,0.07189 -1.388762,0.0037 -0.0056,-1.329882 0.128346,-2.661434 0.01415,-3.990617 0.01248,-0.225806 -0.109131,-0.547497 0.132979,-0.684242 0.58203,-0.103188 1.181307,0.08808 1.764519,-0.03651 0.17413,-0.07079 0.442009,-0.164538 0.44141,-0.396442 0.02038,-1.120701 -0.117259,-2.243447 -0.02055,-3.36261 0.09403,-1.652748 -0.106933,-3.303036 -0.02242,-4.95363 0.0087,-0.956492 0.175078,-1.955196 -0.107346,-2.883547 l -0.0014,-0.07111 c 0.001,-0.963631 0.156539,-1.934777 -0.01579,-2.890563 -0.754974,-0.04173 -1.511693,-0.05138 -2.263122,-0.108998 0.09834,-1.100308 -0.06215,-2.197485 0.02943,-3.2968393 0.0429,-0.4854962 -0.304619,-1.1815392 0.175342,-1.4994679 0.728363,-0.083051 1.460548,0.1035089 2.193605,0.03278 0.74245,-0.095675 1.493933,0.032978 2.239573,-0.071903 1.071327,-0.0078 2.142104,0.1398378 3.214216,0.020834 0.982447,0.1213141 1.96575,-0.088377 2.950123,0.022321 z" /><path
     style="fill:#8c928b;stroke:#8c928b;stroke-width:0.07949221"
     inkscape:connector-curvature="0"
     id="path1283"
     d="m 38.304144,0.61785786 c 0.102963,0.10085168 0.208343,0.20719813 0.3161,0.31903714 0.183246,0.3947926 0.307174,0.8198141 0.33656,1.2583745 0.05568,2.0966184 0.01208,4.1944513 0.02087,6.2911588 -0.04914,0.7920791 -0.05411,1.5852587 0.01603,2.3772297 -0.04475,2.871133 0.05516,5.743546 -0.0538,8.612443 0.111667,1.204383 0.02198,2.415087 0.06109,3.623514 -0.03797,3.572469 0.05792,7.148301 -0.04837,10.721028 0.109438,1.414699 0.06679,2.841083 -0.0021,4.258 -0.06249,0.135924 -0.115799,0.276402 -0.162524,0.418558 -0.207173,0.03814 -0.415696,0.07621 -0.610085,0.12579 0.213215,-0.195962 0.57275,-0.323523 0.605629,-0.651418 0.129949,-0.847926 -0.03463,-1.701422 -0.01846,-2.551602 -0.03558,-1.344942 0.123101,-2.68853 0.02313,-4.031683 -0.112401,-1.603831 0.106278,-3.208154 -0.01289,-4.811019 -0.130824,-1.610237 0.140422,-3.219683 0.0029,-4.828926 -0.140313,-1.60808 0.146881,-3.215291 -0.01364,-4.821795 -0.141092,-1.520991 0.130525,-3.040617 0.0054,-4.560724 -0.109668,-1.653284 0.105015,-3.3060649 -0.0021,-4.9578651 -0.11438,-1.519515 0.08879,-3.0375624 -0.0055,-4.5573066 C 38.705167,2.237654 38.879305,1.4632059 38.342192,1.020709 38.333006,0.91967915 38.31335,0.71754854 38.304144,0.61785786 Z" /><path
     style="fill:#adce7c;stroke:#adce7c;stroke-width:0.07949221"
     inkscape:connector-curvature="0"
     id="path1299"
     d="m 15.539262,0.0592874 c 1.249219,0.047599 2.49757,-0.03485855 3.74936,0.01422289 0.427072,0.03297274 0.892254,-0.13832689 1.288923,0.10474553 -0.604673,0.10060954 -1.215443,0.0695331 -1.821413,0.0481041 -4.162679,0.0192256 -8.326567,0.0115784 -12.4889637,0.0254583 -1.5201066,0.0285692 -3.0449744,-0.0516887 -4.5617971,0.0387156 -0.571227,0.0769925 -0.96658799,0.61002324 -1.13168399,1.12361358 -0.19528847,1.0118517 -0.0339957,2.046092 -0.0784532,3.0689607 -0.0607834,1.6090156 0.12503507,3.2182578 0.002638,4.8265487 -0.0458689,0.8056632 0.0127084,1.6130772 -0.0265793,2.4204312 -0.057115,0.93639 0.10037644,1.869898 0.0164626,2.806161 0.0318664,0.805938 0.0382709,1.61181 0.0177767,2.418875 0.11507007,1.070541 -0.0701466,2.141935 0.004615,3.214283 0.0323827,0.578103 -0.0304766,1.157671 0.0219619,1.736896 0.0819851,0.893147 -0.0720157,1.787994 -0.031762,2.684196 0.0391792,0.892121 -0.0947314,1.786739 0.0545821,2.674211 -0.0636017,1.87826 -0.0791475,3.760528 -0.0504027,5.641211 -0.0919297,0.935793 0.061257,1.874438 -0.0199837,2.810835 -0.0608782,0.495225 0.1093277,0.980437 0.0779067,1.47595 -0.004429,0.395142 -0.0978469,0.800109 -1.0603e-4,1.190176 0.12674623,0.107527 0.28992573,0.162116 0.45258832,0.226059 -0.0175572,0.123663 -0.0311944,0.248911 -0.0409299,0.377041 C 0.32455945,38.635118 0.07775089,37.86287 0.06122069,37.167697 0.06603811,25.779475 0.04017682,14.389545 0.03974923,2.999706 0.0649653,2.3979669 -0.00931635,1.7532003 0.26802119,1.1975629 0.62633742,0.65578317 1.1518147,0.1205618 1.8496264,0.10551772 2.8354023,0.06886103 3.8235145,0.01490963 4.8117821,0.07891279 5.6639835,0.05899882 6.5156413,0.04843686 7.3703074,0.08093061 8.4407744,-0.03280324 9.51454,0.1337669 10.589338,0.06316187 c 0.621453,-0.04070911 1.242967,0.03921172 1.869114,0.01082467 1.023807,-0.09354108 2.052941,0.05581902 3.08081,-0.01469914 z" /><path
     style="fill:#73a431;stroke:#73a431;stroke-width:0.07949221"
     inkscape:connector-curvature="0"
     id="path1301"
     d="m 39.214206,1.587599 c 0.05848,0.00859 0.176769,0.027194 0.23659,0.035861 0.08406,1.0983269 -0.07849,2.1964264 0.0095,3.2963088 -0.01498,8.3465312 0.03313,16.6911872 -0.0033,25.0378702 0.06547,1.822413 -0.05138,3.645444 0.03689,5.467763 0.03744,0.632008 -0.02431,1.263881 -0.03383,1.897315 -0.05649,0.512905 0.268544,0.985229 0.144885,1.501097 -0.09395,0.147601 -0.222031,0.258468 -0.354954,0.359698 0.274466,-0.382911 -0.205478,-0.526043 -0.461998,-0.686313 0.04673,-0.142169 0.100046,-0.282634 0.162524,-0.418558 0.275924,-0.263545 0.276894,-0.669587 0.279033,-1.023307 0.0086,-8.715465 -0.02176,-17.430401 -0.01192,-26.144469 -0.03605,-3.1061166 0.05421,-6.2186546 -0.06113,-9.3211112 l 0.05777,-0.00216 z" /><path
     style="fill:#b5d981;stroke:#b5d981;stroke-width:0.07949221"
     inkscape:connector-curvature="0"
     id="path1303"
     d="m 38.956804,2.1952695 c 0.0041,-0.2195821 0.03387,-0.4431059 0.199662,-0.6055005 0.115339,3.1024565 0.02508,6.2149946 0.06113,9.32111 -0.0098,8.714056 0.0205,17.428991 0.01192,26.14447 -0.0021,0.35372 -0.0031,0.759761 -0.279033,1.023307 0.06893,-1.416917 0.111565,-2.843302 0.0021,-4.258 0.106297,-3.572727 0.01042,-7.148559 0.04837,-10.721028 -0.0391,-1.208427 0.05059,-2.419131 -0.06109,-3.623514 0.108959,-2.868911 0.0091,-5.741324 0.0538,-8.612444 -0.07014,-0.791957 -0.06517,-1.58515 -0.01603,-2.3772291 -0.0088,-2.0967201 0.03482,-4.194553 -0.02086,-6.2911714 z" /><path
     style="fill:#85b93d;stroke:#85b93d;stroke-width:0.07949221"
     inkscape:connector-curvature="0"
     id="path1305"
     d="m 39.450796,1.6234603 c 0.554009,0.5975647 0.499277,1.4670718 0.47476,2.2256641 -0.05966,0.861193 0.04421,1.7220424 -0.01018,2.584867 -0.05133,0.6136988 0.07437,1.2251195 0.02434,1.8388899 -0.06567,1.1155167 0.04154,2.2312067 -0.03088,3.3476907 0.08378,0.933469 0.0038,1.869925 0.007,2.806981 0.07091,0.87511 -0.02853,1.752869 -0.0086,2.629183 0.09784,0.776077 -0.02985,1.55844 0.02894,2.337721 0.04802,0.80415 -0.06488,1.610129 -0.0022,2.41643 0.06824,0.802587 -0.05403,1.608048 6.14e-4,2.413905 0.05266,0.866047 -0.05294,1.734097 -0.02043,2.600384 0.09346,0.782524 -0.04259,1.571153 0.04261,2.357241 0.0017,0.93964 -0.07849,1.881443 0.0022,2.822794 -0.06647,1.202593 0.03595,2.405123 -0.03601,3.610106 0.03497,0.846318 0.07108,1.696721 -0.02126,2.542705 -0.03362,0.244756 -0.188424,0.45066 -0.296802,0.665806 0.123672,-0.515867 -0.201367,-0.988191 -0.144886,-1.501097 0.0095,-0.633433 0.07127,-1.26532 0.03383,-1.897315 -0.08829,-1.822333 0.02858,-3.645364 -0.03689,-5.467763 0.03646,-8.346683 -0.01166,-16.69134 0.0033,-25.0378698 -0.08797,-1.0998965 0.07458,-2.197996 -0.0095,-3.2963229 z" /><path
     style="fill:#839077;stroke:#839077;stroke-width:0.07949221"
     inkscape:connector-curvature="0"
     id="path1309"
     d="M 0.57368721,1.4141475 C 0.73878321,0.90055714 1.1341442,0.36752636 1.7053712,0.2905339 1.6748468,0.33307658 1.6137912,0.41950183 1.5818835,0.46330835 1.8038499,0.54527168 2.0347263,0.5875186 2.2821607,0.5971733 1.9106608,0.72273285 1.4082771,0.54887416 1.1516663,0.89925168 0.90121225,1.1869756 0.67013716,1.5360839 0.72831546,1.9387073 0.77157789,2.9262154 0.6274743,3.9087424 0.62113651,4.8961762 c 0.0974802,1.5587898 0.1128473,3.1237636 0.006532,4.6833523 0.008238,0.9426825 0.0767879,1.8846785 0.0997114,2.8281725 -0.0179355,0.882263 -0.15244369,1.763445 -0.0605748,2.647756 0.0215007,0.944743 0.11123484,1.89193 0.0308134,2.837754 -0.14779789,1.655138 0.12102649,3.314551 -0.004029,4.970946 -0.14889885,1.602791 0.15371309,3.20912 0.002041,4.813099 -0.11721712,1.02957 0.0175391,2.059663 0.0262215,3.09083 0.0717527,0.981041 -0.0654609,1.959914 -0.0780845,2.940312 0.0313968,0.984185 0.16327984,1.968536 0.0900097,2.954965 -0.0184217,0.478807 -0.0992088,0.970251 0.007228,1.445237 0.28341989,0.255578 0.64891899,0.432593 1.00980489,0.571826 0.7115504,0.05139 1.4269612,-0.01629 2.1428826,0.0045 0.9592333,0.03157 1.9440877,-0.206181 2.8787876,0.124261 -0.7325725,0.159215 -1.4804969,0.01467 -2.2176161,0.06239 -0.9318899,0.05571 -1.8639837,-0.03064 -2.7928058,-0.0069 C 1.5141063,38.767877 1.2611453,38.688219 1.0149189,38.608935 0.8522563,38.544995 0.68907681,38.490404 0.56233057,38.382877 0.46458967,37.99281 0.55800857,37.587829 0.5624366,37.192701 0.5938443,36.697187 0.42365171,36.211976 0.48453,35.716751 0.5657707,34.780354 0.4125707,33.841708 0.5045137,32.905916 0.4757689,31.025233 0.4913282,29.142965 0.5549165,27.264705 0.40560303,26.377233 0.5395002,25.482614 0.5003344,24.590494 0.4600807,23.694292 0.6140815,22.799445 0.5320964,21.906298 0.4796572,21.327086 0.5425164,20.747518 0.5101345,20.169402 0.4353731,19.097054 0.62057567,18.025672 0.5055195,16.955119 0.5260137,16.148053 0.5195959,15.342181 0.4877428,14.536244 0.571656,13.599994 0.4141912,12.666488 0.4712802,11.730083 0.5105412,10.922728 0.4519906,10.115315 0.4978595,9.3096518 0.62025649,7.7013519 0.43443806,6.0921097 0.49522141,4.4830941 0.53969146,3.4602395 0.37839874,2.4259992 0.57368721,1.4141475 Z" /><path
     style="fill:#4c6925;stroke:#4c6925;stroke-width:0.07949221"
     inkscape:connector-curvature="0"
     id="path1375"
     d="m 28.783243,5.3120917 c 0.760755,0.05813 1.522584,-0.072662 2.28622,-0.018394 0.961778,0.058518 1.927208,-0.046278 2.889691,0.048468 l -0.06776,0.1584308 -0.01387,0.032741 c -0.176975,0.3400357 -0.117018,0.7347157 -0.197517,1.100188 -0.335316,-0.019873 -0.667885,-0.040935 -0.995036,-0.063037 0.29541,-0.082855 0.599462,-0.1035782 0.911478,-0.098396 0.0019,-0.2049576 0.01042,-0.4068735 0.02291,-0.6085679 -1.756878,0.019504 -3.51426,1.113e-4 -5.269742,-0.029899 -2.499161,0.088382 -5.000203,-0.032425 -7.499283,0.030496 C 19.957252,5.94477 19.061445,5.8081266 18.170312,5.8781737 14.684636,5.8946081 11.195361,5.8304258 7.7112702,5.8911775 7.1360337,5.8714471 6.5572382,5.8193529 5.9939818,5.9463768 5.8929998,5.8576972 5.7921183,5.767683 5.7070702,5.6812244 5.6679975,5.6361754 5.5911679,5.5474905 5.5533575,5.5038516 5.5243971,5.4700839 5.4678257,5.402623 5.4387914,5.3701915 7.2066742,5.2480932 8.9820587,5.3542596 10.752883,5.3489296 c 0.779488,-0.111052 1.565041,0.00742 2.35117,-0.029534 0.84789,-0.038916 1.696668,0.050885 2.547003,-0.008 0.999742,-0.046607 2.001493,0.089177 3.002558,-0.00561 0.966975,0.061486 1.934527,-0.03247 2.90543,0.00645 1.695191,0.077609 3.387521,-0.083513 5.083827,-0.00182 0.711396,0.029923 1.4249,-0.051268 2.140358,0.00168 z" /><path
     style="fill:#8a9184;stroke:#8a9184;stroke-width:0.07949221"
     inkscape:connector-curvature="0"
     id="path1377"
     d="m 33.891398,5.5005964 c 0.0574,-0.019612 0.173466,-0.058768 0.232205,-0.078306 0.248392,1.5925962 -0.0317,3.2162968 0.06195,4.8204446 0.119525,1.692697 -0.09071,3.387273 0.03156,5.078769 0.06206,1.739126 -0.07969,3.479023 0.0038,5.217993 0.05682,1.397047 -0.102103,2.792893 3.78e-4,4.188443 0.07396,1.644609 -0.07589,3.288898 -5.97e-4,4.933581 0.01946,1.345391 0.02806,2.692876 -0.06627,4.035987 -0.0099,0.179066 -0.114267,0.394432 -0.302687,0.432283 -0.783913,0.118849 -1.582531,0.13903 -2.368963,0.06072 -0.043,-0.02248 -0.13015,-0.07019 -0.174413,-0.09408 0.723521,-0.140952 1.456982,-0.0012 2.188467,-0.01976 0.235174,0.013 0.505558,-0.150331 0.525009,-0.405252 0.0454,-0.62743 0.07506,-1.261077 0.01454,-1.887673 -0.132208,-1.512458 0.04031,-3.03354 -0.05556,-4.548011 0.007,-6.650157 0.006,-13.300757 -0.01379,-19.9510425 -0.0012,-0.5844353 0.09088,-1.1838322 -0.08949,-1.7513507 l 0.01387,-0.032741 z" /><path
     style="fill:#b3d387;stroke:#b3d387;stroke-width:0.07949221"
     inkscape:connector-curvature="0"
     id="path1385"
     d="m 33.680022,6.6335258 c 0.08051,-0.3654582 0.02054,-0.7601523 0.197517,-1.100188 0.180373,0.5675319 0.08829,1.1669154 0.08949,1.7513508 0.0198,6.6502854 0.02081,13.3008854 0.0138,19.9510424 0.09587,1.514471 -0.07665,3.035567 0.05556,4.548012 -0.05165,0.619042 0.07837,1.273591 -0.120703,1.868401 -0.195772,0.147348 -0.453675,0.08484 -0.671853,0.103598 -0.914715,-0.01303 -1.830409,0.04089 -2.737209,-0.06685 0.312028,-0.165035 0.66918,-0.103746 1.013178,-0.09546 0.694979,0.03573 1.3914,-0.02764 2.089481,2.2e-4 0.06112,-0.960308 -0.06268,-1.92144 0.01181,-2.880982 0.04658,-0.672935 -0.05702,-1.344787 -0.02121,-2.016976 0.06904,-0.982642 -0.06292,-1.96567 0.02351,-2.947351 -0.01966,-3.354505 -0.01667,-6.706418 -0.023,-10.060186 -0.08356,-0.937463 0.06081,-1.875719 -0.0014,-2.812016 -0.06281,-0.803627 0.06339,-1.60753 -8.36e-4,-2.409896 -0.05573,-0.713437 0.04005,-1.4278818 -0.0091,-2.1396129 -0.03702,-0.5662967 -0.04424,-1.1390023 0.0909,-1.6931167 z" /><path
     style="fill:#0a0d04;stroke:#0a0d04;stroke-width:0.07949221"
     inkscape:connector-curvature="0"
     id="path1393"
     d="m 28.349649,5.8336273 c 1.755481,0.03001 3.512863,0.049403 5.269741,0.029899 C 33.6069,6.0652207 33.59842,6.2671366 33.59648,6.4720942 33.284462,6.4669115 32.98041,6.487635 32.685,6.5704896 24.568452,6.5896682 16.450181,6.5913009 8.3345075,6.5944308 7.7707731,6.5605928 7.1928918,6.6372175 6.6493273,6.4811872 6.4460944,6.326543 6.2522283,6.1724166 6.066836,6.0107167 l -0.072854,-0.06434 c 0.5632564,-0.1270239 1.1420519,-0.07493 1.7172884,-0.055199 3.4841036,-0.060751 6.9733656,0.00343 10.4590416,-0.013004 0.891133,-0.070034 1.78694,0.066596 2.680027,-0.014052 2.499093,-0.062921 5.000136,0.057887 7.499296,-0.030495 z" /><path
     style="fill:#8a9186;stroke:#8a9186;stroke-width:0.07949221"
     inkscape:connector-curvature="0"
     id="path1443"
     d="m 5.3759083,5.2956804 0.062896,0.074512 c 0.029034,0.032431 0.085606,0.099892 0.1145661,0.13366 C 5.3491618,6.0461078 5.45333,6.6348935 5.4394748,7.2010726 5.4769268,15.762267 5.439209,24.326009 5.4765538,32.889879 c 0.011901,0.342433 -0.069203,0.718594 0.1212331,1.032026 0.041221,0.03042 0.1222137,0.09253 0.1620855,0.122883 1.2907155,0.145054 2.5912997,-0.08196 3.8853718,0.07535 -1.3592088,0.245208 -2.7571027,0.196093 -4.1251782,0.06822 -0.3722735,-0.200188 -0.2171149,-0.67948 -0.2480784,-1.016265 -0.05518,-0.86888 0.00764,-1.739281 -0.054266,-2.607179 -0.026644,-0.973187 0.1490389,-1.944587 0.014893,-2.912979 0.031445,-0.932448 -0.087223,-1.86515 0.00839,-2.795392 0.121679,-1.522551 -0.064857,-3.046068 0.012533,-4.567046 0.031237,-1.874687 -0.052984,-3.74636 0.00768,-5.61942 C 5.2966789,13.64 5.2141355,12.611452 5.2215004,11.581186 5.2851447,10.066149 5.2793398,8.5459334 5.2156141,7.0318987 5.2544215,6.4510017 5.1338292,5.8438844 5.3759083,5.2956804 Z" /><path
     style="fill:#b0d381;stroke:#b0d381;stroke-width:0.07949221"
     inkscape:connector-curvature="0"
     id="path1453"
     d="m 5.4394753,7.2010725 c 0.013855,-0.5661791 -0.090313,-1.1549648 0.1138956,-1.6972202 0.037797,0.043638 0.11464,0.1323239 0.1537127,0.1773728 -0.09987,2.5102143 0.00931,5.0212609 -0.061159,7.5330999 0.037365,0.70572 0.026432,1.412791 0.020844,2.120145 0.078562,1.124842 -0.065399,2.250775 0.03052,3.376563 -0.00274,4.172187 -0.038908,8.342528 0.00259,12.514479 -5.72e-4,0.810847 -0.036194,1.625118 0.045099,2.433788 -0.037098,0.06497 -0.1100314,0.196304 -0.1472032,0.262604 C 5.4073514,33.608473 5.4884416,33.232311 5.4765409,32.889878 5.4392095,24.326009 5.4769277,15.762267 5.4394753,7.2010725 Z" /><path
     style="fill:#76a932;stroke:#76a932;stroke-width:0.07949221"
     inkscape:connector-curvature="0"
     id="path1459"
     d="m 5.7070836,5.6812251 c 0.085048,0.086459 0.1859295,0.1764729 0.2869116,0.2651524 l 0.072854,0.06434 C 5.8317877,6.6504494 5.9299,7.3488046 5.9372035,8.0166753 c -0.00207,6.2456617 0.017443,12.4884937 0.00735,18.7337117 0.080441,0.945333 -0.068497,1.894072 0.00786,2.840506 0.060424,0.77401 -0.070736,1.546826 -0.00362,2.321205 0.049746,0.603202 0.022972,1.208876 -0.074473,1.807963 l -0.129331,-0.06076 c -0.08128,-0.808669 -0.045671,-1.622941 -0.045099,-2.433788 -0.041498,-4.171952 -0.00535,-8.342293 -0.00259,-12.514479 -0.09592,-1.125788 0.048041,-2.251708 -0.03052,-3.376563 0.00559,-0.707354 0.016521,-1.414426 -0.020844,-2.120146 0.07046,-2.511839 -0.038724,-5.0228856 0.061146,-7.5330999 z" /><path
     style="fill:#a6ca6d;stroke:#a6ca6d;stroke-width:0.07949221"
     inkscape:connector-curvature="0"
     id="path1463"
     d="m 25.078574,7.0842717 c 0.588632,-0.077371 1.186208,-0.025579 1.779514,0.00721 0.02436,0.044236 0.07172,0.1326323 0.0947,0.178132 -0.110026,0.00196 -0.3314,0.00581 -0.441386,0.00777 -0.70595,0.017275 -1.411686,0.00642 -2.114682,-0.029758 -1.695559,0.025573 -3.393241,0.065773 -5.087775,2.63e-4 -2.154223,0.055175 -4.307298,0.016594 -6.460582,0.030272 l 0.03339,0.1720631 c 0.190521,0.9179098 0.05567,1.8540245 0.06472,2.7820092 0.08685,0.780831 0.02731,1.566987 -0.03869,2.34874 -0.008,0.09606 -0.02404,0.289501 -0.03203,0.385574 -0.141854,-0.0762 -0.399924,-0.111903 -0.376659,-0.314355 0.01618,-0.801943 -0.03474,-1.602219 0.0068,-2.401436 0.03183,-0.9887191 -0.0757,-1.9770989 0.02573,-2.9633113 0.115939,-0.3032002 0.491517,-0.1390306 0.737219,-0.1710208 0.698671,-0.03108 1.397671,-0.043378 2.099183,-0.00461 1.130563,-0.1345243 2.266157,0.052887 3.40183,-0.00363 0.648942,-0.052593 1.301982,0.038453 1.951495,-0.048956 0.867625,-0.032465 1.736708,0.1026885 2.606549,0.030138 0.581164,-0.06304 1.166212,0.045692 1.75072,-0.0051 z" /><path
     style="fill:#83ba36;stroke:#83ba36;stroke-width:0.07949221"
     inkscape:connector-curvature="0"
     id="path1475"
     d="M 5.9371901,8.0166745 C 5.9299,7.3488046 5.8317743,6.6504487 6.066836,6.0107167 6.2522424,6.172404 6.4461077,6.3265438 6.6493273,6.4811872 c 0.1937459,0.2533017 0.086636,0.5904974 0.1037204,0.8876468 -0.079554,1.075881 0.039128,2.1533363 -0.035143,3.230863 0.028308,1.694344 0.059328,3.388851 0.00173,5.085162 0.042704,0.803857 0.042427,1.609359 0.00195,2.41398 0.05166,3.576082 -0.00797,7.152715 0.039683,10.728575 -0.056324,1.625332 0.062663,3.255019 -0.08874,4.879118 -0.2721375,10e-4 -0.5363316,0.0039 -0.7982233,0.01353 0.097445,-0.599087 0.1242059,-1.204762 0.074473,-1.807963 -0.067118,-0.774379 0.064041,-1.547195 0.00362,-2.321204 -0.076359,-0.946435 0.072578,-1.895174 -0.00786,-2.840507 0.010097,-6.245217 -0.00943,-12.488051 -0.00735,-18.7337115 z" /><path
     style="fill:#83b836;stroke:#83b836;stroke-width:0.07949221"
     inkscape:connector-curvature="0"
     id="path1477"
     d="m 26.511399,7.2773884 c 0.109986,-0.00196 0.331374,-0.00581 0.441386,-0.00777 0.195277,0.2493654 0.408569,0.4890041 0.645718,0.7085167 -0.03548,1.3209105 -0.06292,2.6422649 0.06803,3.9589709 -0.02657,0.529288 0.09235,1.117536 -0.151746,1.605315 -0.31216,-0.29334 -0.607539,-0.671545 -1.069822,-0.698436 0.05144,-0.05748 0.154368,-0.173748 0.207146,-0.231158 0.04799,-0.04426 0.146793,-0.133945 0.196133,-0.178141 0.03016,-1.53966 -0.0094,-3.0805157 0.01144,-4.620706 0.01895,-0.1731907 -0.04909,-0.3243838 -0.158973,-0.4457091 -0.04701,-0.022703 -0.142337,-0.06818 -0.189306,-0.090881 z" /><path
     style="fill:#a7cb79;stroke:#a7cb79;stroke-width:0.07949221"
     inkscape:connector-curvature="0"
     id="path1481"
     d="m 26.700705,7.368269 c 0.109886,0.1213387 0.177927,0.2725317 0.158973,0.4457091 -0.02079,1.5401903 0.01872,3.0810329 -0.01144,4.6207059 -0.04934,0.0442 -0.148131,0.133897 -0.196133,0.178141 -0.09454,-0.665977 -0.05465,-1.339294 -0.09537,-2.009012 0.04832,-1.0440997 -0.04796,-2.0908305 0.03786,-3.1341985 l 0.10611,-0.1013455 z" /><path
     style="fill:#576743;stroke:#576743;stroke-width:0.07949221"
     inkscape:connector-curvature="0"
     id="path1489"
     d="m 24.545441,7.4180257 c 0.68046,-0.1138313 1.366335,0.013863 2.049153,0.051602 -0.08581,1.043368 0.01046,2.090098 -0.03786,3.1341983 0.04073,0.669719 8.41e-4,1.343036 0.09537,2.009012 -0.05278,0.05741 -0.155705,0.173675 -0.207146,0.231158 -0.754712,0.0025 -1.504771,-0.07915 -2.254252,-0.123251 -0.06919,-0.0092 -0.207577,-0.02756 -0.276764,-0.03674 -0.0035,1.033175 -0.0325,2.067606 0.0028,3.101598 -0.04317,0.320612 -0.08784,0.643848 -0.127182,0.967366 0.101557,-1.376245 -0.05651,-2.760124 0.118512,-4.132282 -0.0057,-0.139705 0.06318,-0.197552 0.208173,-0.177476 0.778448,-0.01997 1.559823,-0.06792 2.341891,-0.03141 0.139175,-0.820597 -0.08904,-1.638728 0.01397,-2.4599968 0.01403,-0.7873182 0.150934,-1.5906301 -0.02731,-2.3671304 -0.86819,-0.1270619 -1.735317,0.04214 -2.601855,-0.017816 -0.984373,-0.1106983 -1.967677,0.098993 -2.950096,-0.02232 -1.072112,0.1190041 -2.14289,-0.028637 -3.214217,-0.020834 -0.74564,0.104881 -1.497123,-0.023772 -2.239573,0.071903 -0.733056,0.070729 -1.465242,-0.1158309 -2.193605,-0.03278 -0.479974,0.317928 -0.132453,1.0139843 -0.175342,1.4994679 -0.09159,1.0993553 0.06891,2.1965313 -0.02944,3.2968393 0.751416,0.05761 1.508135,0.06727 2.263123,0.108999 0.17233,0.955786 0.01679,1.926932 0.01579,2.890562 -0.01866,-0.874904 -0.02788,-1.750626 -0.01849,-2.623993 -0.09381,0.02431 -0.278871,0.07439 -0.371433,0.100098 -0.668536,0.01934 -1.455067,0.160832 -2.021867,-0.253806 0.06598,-0.781766 0.125526,-1.567909 0.03869,-2.348739 -0.0091,-0.9279848 0.1258,-1.8640995 -0.06472,-2.7820093 0.580353,-0.048342 1.163513,-0.00271 1.745947,-0.040212 0.882806,-0.1616341 1.772719,0.1301444 2.657176,-0.012634 0.892079,-0.135656 1.787566,0.176535 2.679443,0.020764 0.71349,-0.1294429 1.43696,0.1182887 2.154989,-0.020285 0.805871,-0.1283714 1.616558,0.1416045 2.426107,0.020151 z" /><path
     style="fill:#c1daa1;stroke:#c1daa1;stroke-width:0.07949221"
     inkscape:connector-curvature="0"
     id="path1495"
     d="m 27.598503,7.9781332 c 0.33779,0.411376 0.212593,1.0035683 0.217484,1.4970673 -0.08276,0.8183675 0.03974,1.6574615 -0.149472,2.4619165 -0.13095,-1.31672 -0.103503,-2.638074 -0.06802,-3.9589845 z" /><path
     style="fill:#090d04;stroke:#090d04;stroke-width:0.07949221"
     inkscape:connector-curvature="0"
     id="path1537"
     d="m 12.907787,12.580977 c 0.566799,0.414651 1.353344,0.273162 2.021867,0.253805 -0.0236,0.281498 -0.02983,0.563956 -0.04957,0.848348 -0.518835,-0.118462 -1.165553,0.136625 -1.56971,-0.286461 -0.150086,-0.122221 -0.296346,-0.240195 -0.44018,-0.354041 l 0.0055,-0.07608 c 0.008,-0.09606 0.02404,-0.289516 0.03203,-0.385575 z" /><path
     style="fill:#0b0e04;stroke:#0b0e04;stroke-width:0.07949221"
     inkscape:connector-curvature="0"
     id="path1613"
     d="m 24.190709,12.720745 c 0.749481,0.0441 1.499541,0.125755 2.254252,0.123251 0.462283,0.02689 0.757676,0.405097 1.069822,0.698436 -0.328788,0.177525 -0.707488,0.0936 -1.057555,0.09836 -0.465002,-0.0257 -0.926875,0.03723 -1.386082,0.02793 -0.273469,-0.289875 -0.558306,-0.568315 -0.813679,-0.870593 l -0.06676,-0.07739 z" /><path
     style="fill:#b1ce88;stroke:#b1ce88;stroke-width:0.07949221"
     inkscape:connector-curvature="0"
     id="path1663"
     d="m 23.913945,12.683991 c 0.06919,0.0092 0.207577,0.02756 0.276764,0.03674 l 0.06676,0.07739 c -0.127788,1.705835 -0.06592,3.423505 -0.108239,5.13539 0.08464,1.135901 -0.04517,2.271998 0.02329,3.409672 -0.05337,1.281053 0.02731,2.561472 0.03555,3.84325 -0.02739,0.519848 -0.0349,1.043488 -0.105127,1.562335 l -0.164657,-0.124365 c 0.05699,-1.85584 -0.06943,-3.715128 0.02111,-5.571794 -0.112161,-1.753931 0.04281,-3.514569 -0.04263,-5.267022 -0.03533,-1.03398 -0.0063,-2.068423 -0.0028,-3.101599 z" /><path
     style="fill:#82b936;stroke:#82b936;stroke-width:0.07949221"
     inkscape:connector-curvature="0"
     id="path1673"
     d="m 24.257467,12.798138 c 0.255373,0.302278 0.54021,0.580718 0.813679,0.870593 -0.108887,0.611858 0.02328,1.227657 -0.0027,1.844095 -0.06633,1.151668 0.04149,2.304907 -0.03436,3.45873 0.06424,0.85063 0.01713,1.703134 0.01419,2.55674 0.08535,0.977772 -0.07078,1.959607 0.01459,2.93738 0.02854,0.623474 -0.01131,1.247202 -0.02971,1.870763 -0.268269,0.02805 -0.526131,0.06205 -0.786665,0.0959 0.01102,-0.417563 0.0058,-0.83334 -0.03836,-1.245901 -0.0082,-1.281791 -0.08892,-2.562211 -0.03555,-3.843251 -0.06847,-1.137674 0.06134,-2.273771 -0.02329,-3.409671 0.04232,-1.711885 -0.01956,-3.429543 0.108225,-5.135377 z" /><path
     style="fill:#82b936;stroke:#82b936;stroke-width:0.07949221"
     inkscape:connector-curvature="0"
     id="path1675"
     d="m 25.028167,26.644434 c 0.559603,-0.182178 1.20294,-0.01259 1.793962,-0.13272 0.277229,0.197603 0.538443,0.418445 0.798039,0.64456 -0.05953,1.319581 -0.04809,2.640404 0.06273,3.957337 0.01649,0.502182 0.0018,1.010682 -0.07008,1.510661 -0.07689,0.0574 -0.149855,0.116351 -0.217452,0.175623 -0.174803,-0.256289 -0.408058,-0.522497 -0.746181,-0.491581 0.02085,-0.08597 0.06126,-0.259325 0.08208,-0.345294 0.204229,-0.518129 0.140375,-1.084568 0.15033,-1.628191 -0.0442,-1.140354 0.01077,-2.280588 -0.01738,-3.420054 -0.04018,-0.02499 -0.121824,-0.07509 -0.163342,-0.100154 -0.516169,-0.264421 -1.118934,-0.150303 -1.672704,-0.170187 z" /><path
     style="fill:#aacb7a;stroke:#aacb7a;stroke-width:0.07949221"
     inkscape:connector-curvature="0"
     id="path1701"
     d="m 14.929667,12.834796 c 0.09255,-0.02571 0.277609,-0.07578 0.371433,-0.100097 -0.0094,0.873352 -1.69e-4,1.749075 0.01849,2.623992 l 0.0014,0.07111 c -0.09898,1.742261 -0.02135,3.490276 -0.05077,5.235068 0.03374,1.402473 -0.01568,2.805698 0.01665,4.209447 -0.01921,0.614134 0.06694,1.238112 -0.07371,1.842853 -0.788332,-0.09317 -1.58037,-0.04581 -2.368253,-0.04913 -0.07209,-0.02946 -0.216278,-0.08836 -0.288455,-0.116465 0.759177,-0.05856 1.524217,-0.07795 2.287423,-0.01566 0.04854,-2.309326 -0.02625,-4.617414 0.04234,-6.925632 -0.05029,-1.975707 -0.03474,-3.954451 -0.0061,-5.927138 0.01974,-0.284406 0.02597,-0.56685 0.04957,-0.848348 z" /><path
     style="fill:#848885;stroke:#848885;stroke-width:0.07949221"
     inkscape:connector-curvature="0"
     id="path1801"
     d="m 15.321021,15.429793 c 0.282424,0.928337 0.116008,1.927055 0.107346,2.883547 -0.08453,1.650592 0.116448,3.300881 0.02242,4.953629 -0.0967,1.119163 0.04095,2.24191 0.02056,3.36261 5.99e-4,0.231904 -0.26728,0.325649 -0.44141,0.396443 -0.583213,0.12458 -1.182489,-0.0667 -1.764519,0.0365 -0.24211,0.136745 -0.120499,0.458436 -0.132979,0.684243 0.114191,1.329182 -0.01973,2.660736 -0.01415,3.990616 0.458631,0.06822 0.925613,0.05786 1.388761,-0.0037 0.846299,-0.107359 1.695487,0.07226 2.547085,0.01478 0.945535,-0.06032 1.893099,0.08587 2.841191,0.0042 0.746096,-0.06463 1.503501,-0.04288 2.243495,0.09989 -1.308413,0.150173 -2.621623,-1.44e-4 -3.93091,0.06956 -1.766608,-0.04671 -3.53586,0.05119 -5.300333,-0.0584 0.05144,-0.809389 0.160919,-1.62628 0.02179,-2.431432 -0.03168,-0.808608 0.07482,-1.620302 -0.01456,-2.428079 0.725079,-0.144886 1.469337,-0.0555 2.203253,-0.142265 l 0.09514,-0.144855 c 0.140648,-0.604755 0.0545,-1.228733 0.07371,-1.842853 -0.03233,-1.403749 0.01709,-2.806987 -0.01665,-4.209447 0.02943,-1.744778 -0.04821,-3.492793 0.05078,-5.235067 z" /><path
     style="fill:#8bb54d;stroke:#8bb54d;stroke-width:0.07949221"
     inkscape:connector-curvature="0"
     id="path2065"
     d="m 24.208071,25.18645 c 0.04421,0.41256 0.04938,0.828337 0.03836,1.245901 0.260534,-0.03385 0.518396,-0.06785 0.786665,-0.0959 -0.0016,0.07765 -0.0034,0.231682 -0.005,0.30798 -0.31223,0.02295 -0.622588,0.06076 -0.925223,0.104338 0.07025,-0.518832 0.07775,-1.042487 0.10514,-1.562321 z" /><path
     style="fill:#617743;stroke:#617743;stroke-width:0.07949221"
     inkscape:connector-curvature="0"
     id="path2087"
     d="m 25.028167,26.644434 c 0.55377,0.01988 1.156534,-0.09422 1.672663,0.170198 -0.796032,0.191895 -1.62621,0.08032 -2.431496,0.0519 -0.04125,-0.02909 -0.125108,-0.08867 -0.166391,-0.117747 0.302636,-0.04359 0.612993,-0.0814 0.925224,-0.104351 z" /><path
     style="fill:#858a85;stroke:#858a85;stroke-width:0.07949221"
     inkscape:connector-curvature="0"
     id="path2093"
     d="m 23.986561,27.059989 c -0.02535,-0.147494 -0.04283,-0.291871 -0.04827,-0.435583 l 0.164657,0.124365 c 0.04129,0.02909 0.125135,0.08867 0.16639,0.117747 0.805287,0.02843 1.635465,0.139996 2.431497,-0.0519 -0.138932,0.937216 -0.02951,1.892206 -0.07373,2.837351 0.08626,0.767382 -0.108962,1.559456 0.10414,2.311063 -0.643929,-0.158883 -1.298618,-0.0021 -1.947414,-0.04865 -0.824323,-0.04824 -1.650042,0.02675 -2.469255,-0.06544 0.579492,-0.154273 1.18044,-0.04198 1.774315,-0.09226 0.748891,-0.06719 1.501064,0.0012 2.254641,-0.02952 0.07869,-0.332065 0.106852,-0.672271 0.08798,-1.009728 -0.0529,-1.03093 0.05762,-2.06087 0.04076,-3.089821 -0.04354,-0.182006 0.05177,-0.427374 -0.09516,-0.557461 -0.792925,-0.155083 -1.594732,-0.0037 -2.390538,-0.01017 z" /><path
     style="fill:#a9cc7b;stroke:#a9cc7b;stroke-width:0.07949221"
     inkscape:connector-curvature="0"
     id="path2095"
     d="m 26.700831,26.814618 c 0.04152,0.02507 0.123174,0.07516 0.163342,0.100155 0.02815,1.139466 -0.02682,2.2797 0.01738,3.420053 -0.01,0.543624 0.0539,1.110063 -0.15033,1.628192 -0.213102,-0.751607 -0.01788,-1.543668 -0.10414,-2.311063 0.04419,-0.945119 -0.06519,-1.900107 0.07375,-2.837337 z" /><path
     style="fill:#c1daa0;stroke:#c1daa0;stroke-width:0.07949221"
     inkscape:connector-curvature="0"
     id="path2101"
     d="m 27.620155,27.156273 c 0.299623,0.374419 0.16534,0.912497 0.212829,1.362794 -0.08386,0.862536 0.03093,1.744093 -0.150101,2.594544 -0.11082,-1.316947 -0.122271,-2.637758 -0.06273,-3.957338 z" /><path
     style="fill:#adcf7f;stroke:#adcf7f;stroke-width:0.07949221"
     inkscape:connector-curvature="0"
     id="path2107"
     d="m 12.556479,26.551561 c 0.07216,0.0281 0.216353,0.087 0.288455,0.116465 0.02082,0.10836 0.04407,0.220903 0.06986,0.336254 0.08938,0.807777 -0.01713,1.61947 0.01456,2.428079 0.139132,0.805166 0.02965,1.622056 -0.02179,2.431432 l -0.0028,0.147279 c -0.0033,0.132507 -0.0092,0.263529 0.0033,0.40093 -0.248174,-0.09279 -0.46841,-0.303316 -0.391065,-0.587218 0.06056,-0.562258 -0.132534,-1.142556 0.0304,-1.689773 0.291525,-0.691563 0.198663,-1.460664 0.182731,-2.190665 -0.04347,0.107515 -0.129161,0.323914 -0.17263,0.431416 -0.143785,-0.599017 -0.03843,-1.220466 -10e-4,-1.824199 z" /><path
     style="fill:#677b49;stroke:#677b49;stroke-width:0.07949221"
     inkscape:connector-curvature="0"
     id="path2109"
     d="m 12.844934,26.668026 c 0.787895,0.0033 1.579934,-0.04404 2.368253,0.04913 l -0.09514,0.144855 c -0.733903,0.08676 -1.478174,-0.0026 -2.203253,0.142265 -0.02579,-0.115351 -0.04904,-0.22788 -0.06986,-0.336254 z" /><path
     style="fill:#9dbf66;stroke:#9dbf66;stroke-width:0.07949221"
     inkscape:connector-curvature="0"
     id="path2127"
     d="m 12.730149,27.944344 c 0.01593,0.730015 0.108794,1.499102 -0.182731,2.190665 -0.04672,-0.585611 -0.0236,-1.174062 0.0101,-1.759249 0.04348,-0.107501 0.129159,-0.323901 0.17263,-0.431416 z" /><path
     style="fill:#688836;stroke:#688836;stroke-width:0.07949221"
     inkscape:connector-curvature="0"
     id="path2189"
     d="m 34.036398,31.783757 c 0.06053,0.626583 0.03087,1.260243 -0.01454,1.887672 -0.01945,0.254921 -0.289835,0.41825 -0.525009,0.405252 -0.731485,0.01853 -1.464946,-0.121176 -2.188467,0.01976 -0.52777,0.04321 -1.054481,-0.05426 -1.579606,-0.01089 -0.995276,0.08705 -1.990487,-0.06982 -2.983253,-0.02819 -0.74024,0.127964 -1.484164,-0.04047 -2.223726,0.02721 -0.987139,0.08483 -1.978133,-0.124073 -2.958336,0.02951 -1.117363,-0.08052 -2.233193,0.05348 -3.347173,-0.04025 -0.584738,-0.06583 -1.16141,0.08592 -1.740676,0.04184 -0.942493,-0.06818 -1.883643,0.05807 -2.823767,-0.02874 -0.762917,-0.09176 -1.517588,0.103765 -2.277088,0.02293 -0.578118,-0.06412 -1.153938,-7.84e-4 -1.7295358,0.01028 -1.2940729,-0.157301 -2.5946571,0.06972 -3.8853719,-0.07535 -0.039885,-0.03035 -0.1208642,-0.09246 -0.1620855,-0.122883 0.037172,-0.0663 0.1101053,-0.19764 0.1472032,-0.262604 l 0.1293311,0.06076 c 0.4523266,0.13355 0.9059921,-0.07189 1.3645146,-0.0747 0.9838958,-0.0019 1.9683977,0.130224 2.9543473,0.04266 0.71486,-0.05699 1.430043,0.07368 2.148677,0.02092 0.934033,-0.09448 1.873365,0.0794 2.809706,-0.03235 0.94009,0.01443 1.879817,0.05967 2.821519,-0.0036 0.97925,0.106394 1.959968,-0.05653 2.942152,0.02055 0.938915,0.05994 1.876734,-0.07855 2.819073,0.01642 1.535469,-0.08802 3.078145,0.0093 4.615454,0.08221 -0.0026,-0.02562 -0.01047,-0.07699 -0.01434,-0.103995 0.72214,0.05332 1.445882,-0.09164 2.171238,7.17e-4 0.9068,0.107737 1.822495,0.05382 2.73721,0.06685 0.218178,-0.01877 0.476081,0.04374 0.671852,-0.103598 0.19906,-0.594851 0.06905,-1.249386 0.120704,-1.868428 z" /><path
     style="fill:#55742b;stroke:#55742b;stroke-width:0.07949221"
     inkscape:connector-curvature="0"
     id="path2201"
     d="m 24.783823,31.914373 c 0.648796,0.04658 1.303485,-0.110237 1.947414,0.04865 -0.02082,0.08597 -0.06123,0.259327 -0.08208,0.345294 -0.944439,0.08852 -1.892547,0.02541 -2.834201,-0.0092 -0.589036,-0.03658 -1.172482,0.092 -1.756791,0.06642 -2.76584,-0.03358 -5.531525,0.05079 -8.295089,-0.07246 -0.301327,-0.05284 -0.715156,0.06234 -0.858287,-0.281989 l 0.0028,-0.147279 c 1.764473,0.109584 3.533725,0.01169 5.300333,0.0584 1.309301,-0.06972 2.62251,0.08061 3.93091,-0.06956 0.04422,-2.37e-4 0.13154,-0.0035 0.175756,-0.0037 0.8192,0.09219 1.644932,0.0172 2.469254,0.06544 z" /><path
     style="fill:#050d00;stroke:#050d00;stroke-width:0.07949221"
     inkscape:connector-curvature="0"
     id="path2209"
     d="m 22.058181,32.36552 c 0.584307,0.02559 1.167755,-0.102995 1.75679,-0.06642 0.941654,0.03462 1.889762,0.09774 2.834202,0.0092 0.338122,-0.03092 0.571377,0.235291 0.746181,0.49158 -1.521182,-0.04923 -3.037735,0.03582 -4.557467,-0.04012 -0.83998,0.138535 -1.700247,-0.05913 -2.543733,0.02158 -0.846749,0.09125 -1.698623,-0.08852 -2.541061,0.02175 -0.940599,0.01904 -1.881757,-0.04907 -2.820068,-0.07143 -0.133104,-0.01674 -0.253564,0.0047 -0.361481,0.06579 -0.373985,7.75e-4 -0.743076,-0.01425 -1.104827,-0.06508 -0.17628,-0.13305 -0.358838,-0.249036 -0.55862,-0.320378 -0.0125,-0.137401 -0.0066,-0.268424 -0.0033,-0.40093 0.143145,0.344325 0.556961,0.229146 0.858287,0.281988 2.763565,0.123241 5.529237,0.03887 8.29509,0.07245 z" /><path
     style="fill:#62882b;stroke:#62882b;stroke-width:0.07949221"
     inkscape:connector-curvature="0"
     id="path2333"
     d="m 38.177859,38.622989 c 0.194389,-0.04958 0.402912,-0.08765 0.610085,-0.125789 0.256521,0.16027 0.736464,0.303402 0.461998,0.686313 -0.02529,0.04551 -0.07597,0.137859 -0.102671,0.184634 -0.04626,0.01219 -0.140142,0.03784 -0.186473,0.05136 -0.111665,-0.113396 -0.222464,-0.218701 -0.332269,-0.31725 -0.396713,0.04776 -0.778158,0.183488 -1.168889,0.24499 -5.838766,0.08072 -11.681126,0.0085 -17.521625,0.04753 -5.58349,-0.003 -11.1650724,0.0075 -16.7489449,0.01116 C 2.8200536,39.389565 2.4364656,39.345593 2.1080539,39.540549 1.7130912,39.38737 1.3448263,39.187404 0.97341065,38.996672 l 5.9081e-4,-0.01069 c 0.009762,-0.128129 0.0233854,-0.253364 0.0409299,-0.377041 0.2462398,0.07928 0.4991874,0.158938 0.7471395,0.255741 0.2067192,0.455076 0.7599912,0.241708 1.1532141,0.280865 11.486153,-0.02057 22.973683,-0.01828 34.460997,-0.0361 0.250671,-8.88e-4 0.490712,-0.100206 0.72514,-0.194473 -2.157105,-0.111181 -4.315699,0.02283 -6.471119,-0.04537 -1.356987,0.01078 -2.716836,0.04955 -4.070883,-0.04138 1.082298,-0.06079 2.170546,-0.13201 3.25547,-0.04657 0.804763,0.01365 1.611735,-0.03692 2.419546,-0.0057 1.069271,-0.140606 2.142601,0.05811 3.21703,-0.0058 0.574624,-0.04194 1.169556,0.05794 1.726392,-0.147176 z" /><path
     style="fill:#395511;stroke:#395511;stroke-width:0.07949221"
     inkscape:connector-curvature="0"
     id="path2343"
     d="m 31.63029,38.869602 c 2.155433,0.0682 4.314013,-0.06581 6.471118,0.04537 -0.234427,0.09427 -0.474468,0.193585 -0.725139,0.194474 -11.487315,0.01783 -22.974844,0.01553 -34.4609973,0.0361 -0.3932229,-0.03916 -0.9464949,0.174211 -1.1532141,-0.280865 0.9288213,-0.02371 1.8609151,0.06264 2.7928058,0.0069 0.7371191,-0.04772 1.4850435,0.09682 2.2176161,-0.06239 1.0003876,0.08746 2.0043393,-0.03531 3.0071104,0.03351 0.7596271,0.05405 1.5193201,-0.06212 2.2819161,-0.01327 1.652875,0.06724 3.306589,-0.09871 4.960244,0.0034 1.82857,0.01663 3.65632,-0.07266 5.486174,0.01774 1.683588,-0.0517 3.367276,-0.05647 5.051456,-0.02237 1.354074,0.09092 2.713922,0.05216 4.07091,0.04138 z" /><path
     style="fill:#3b511c;stroke:#3b511c;stroke-width:0.07949221"
     inkscape:connector-curvature="0"
     id="path2349"
     d="m 37.45964,39.347262 c 0.390731,-0.0615 0.772175,-0.197235 1.168888,-0.244991 0.109806,0.09854 0.220605,0.203841 0.332269,0.31725 -0.174035,0.141835 -0.372868,0.223312 -0.591141,0.219303 -0.04035,0.0031 -0.122543,0.01065 -0.162937,0.01377 0.0017,-0.05485 0.0038,-0.165986 0.0042,-0.222242 -0.254081,-0.03416 -0.506841,-0.06824 -0.751307,-0.08309 z" /><path
     style="fill:#060e00;stroke:#060e00;stroke-width:0.07949221"
     inkscape:connector-curvature="0"
     id="path2359"
     d="m 19.938014,39.394793 c 5.840499,-0.03908 11.682845,0.0332 17.521626,-0.04753 0.244466,0.01485 0.497226,0.04893 0.75132,0.08309 -4.28e-4,0.05626 -0.0025,0.167396 -0.0042,0.222242 0.04038,-0.0031 0.122582,-0.01065 0.162937,-0.01377 l -0.01482,0.09836 c -0.698684,-0.01718 -1.398344,-0.06522 -2.092268,9.67e-4 -0.84924,-0.0094 -1.697635,-0.05764 -2.542846,0.0056 -1.147156,-0.07547 -2.28994,0.03695 -3.433638,-0.0276 -0.555448,-0.03874 -1.106451,0.06081 -1.657924,0.02363 -1.158484,-0.06403 -2.314644,0.04766 -3.471126,-0.02832 -0.897928,0.071 -1.796153,0.0026 -2.694296,0.0052 -0.807629,0.08671 -1.617778,-0.02374 -2.423419,0.0028 -0.802285,0.08702 -1.607969,-0.03123 -2.407594,0.0077 -0.803473,0.08426 -1.611386,-0.04215 -2.412717,0.0034 -0.887923,0.08495 -1.780064,-0.07024 -2.665684,0.02155 -0.806233,0.0372 -1.611856,-0.08239 -2.413906,6.14e-4 -0.7190221,0.0353 -1.4387991,-0.06076 -2.1544038,-0.01454 -0.8930605,0.08066 -1.7891702,-0.07475 -2.6804698,0.02207 -0.8522014,0.01991 -1.7056729,-0.08221 -2.5552552,0.01157 C 2.5391206,39.67027 2.3203244,39.603212 2.1080138,39.540547 2.4364255,39.345591 2.8200128,39.389576 3.18903,39.405938 c 5.5838718,-0.0037 11.165455,-0.01416 16.748944,-0.01115 z" /></svg>