<svg xmlns:dc="http://purl.org/dc/elements/1.1/" xmlns:cc="http://creativecommons.org/ns#" xmlns:rdf="http://www.w3.org/1999/02/22-rdf-syntax-ns#" xmlns="http://www.w3.org/2000/svg" height="64" width="64" xml:space="preserve" viewBox="0 0 63.999999 63.999999" y="0px" x="0px"><metadata><rdf:RDF><cc:Work><dc:format>image/svg+xml</dc:format><dc:type rdf:resource="http://purl.org/dc/dcmitype/StillImage"/><dc:title/><dc:date>2020</dc:date><dc:creator><cc:Agent><dc:title>Timothée Giet</dc:title></cc:Agent></dc:creator><cc:license rdf:resource="http://creativecommons.org/licenses/by-sa/4.0/"/></cc:Work><cc:License rdf:about="http://creativecommons.org/licenses/by-sa/4.0/"><cc:permits rdf:resource="http://creativecommons.org/ns#Reproduction"/><cc:permits rdf:resource="http://creativecommons.org/ns#Distribution"/><cc:requires rdf:resource="http://creativecommons.org/ns#Notice"/><cc:requires rdf:resource="http://creativecommons.org/ns#Attribution"/><cc:permits rdf:resource="http://creativecommons.org/ns#DerivativeWorks"/><cc:requires rdf:resource="http://creativecommons.org/ns#ShareAlike"/></cc:License></rdf:RDF></metadata><path style="color:#000;clip-rule:nonzero;display:inline;overflow:visible;visibility:visible;opacity:1;isolation:auto;mix-blend-mode:normal;color-interpolation:sRGB;color-interpolation-filters:linearRGB;solid-color:#000;solid-opacity:1;fill:#e7bb36;fill-opacity:1;fill-rule:evenodd;stroke:#ae8d2a;stroke-width:1;stroke-linecap:square;stroke-linejoin:miter;stroke-miterlimit:4;stroke-dasharray:none;stroke-dashoffset:0;stroke-opacity:1;marker:none;color-rendering:auto;image-rendering:auto;shape-rendering:auto;text-rendering:auto;enable-background:accumulate" d="M9 1C4.568 1 1 4.568 1 9v46c0 4.432 3.568 8 8 8h46c4.432 0 8-3.568 8-8V9c0-4.432-3.568-8-8-8zm6 8h35c2.77 0 5 2.23 5 5v35c0 2.77-2.23 5-5 5H15c-2.77 0-5-2.23-5-5V14c0-2.77 2.23-5 5-5z" transform="translate(1.524 1.524) scale(.95238)"/><g style="font-style:normal;font-variant:normal;font-weight:400;font-stretch:normal;font-size:40px;line-height:125%;font-family:Kabel;-inkscape-font-specification:Kabel;letter-spacing:0;word-spacing:0;fill:#e7bb36;fill-opacity:1;stroke:#ae8d2a;stroke-width:1px;stroke-linecap:butt;stroke-linejoin:miter;stroke-opacity:1"><path d="M29.969 22.698h-1.162v6.875h1.162q5.478 0 5.478-3.437v-.078q-.039-2.12-1.484-2.764-1.475-.596-3.994-.596zm5.713 13.36q-1.162.283-4.678.478-1.28-.078-1.64-.078h-.635v11.24l-8.37.723V15.579h9.248q14.034 0 14.034 10.557 0 3.125-1.836 5.957-1.836 2.88-6.123 3.965z" style="fill:#e7bb36;fill-opacity:1;stroke:#ae8d2a;stroke-opacity:1" transform="translate(1.524 1.524) scale(.95238)"/></g></svg>