<?xml version="1.0" encoding="UTF-8" standalone="no"?>
<svg
   xmlns:dc="http://purl.org/dc/elements/1.1/"
   xmlns:cc="http://creativecommons.org/ns#"
   xmlns:rdf="http://www.w3.org/1999/02/22-rdf-syntax-ns#"
   xmlns:svg="http://www.w3.org/2000/svg"
   xmlns="http://www.w3.org/2000/svg"
   height="64"
   width="64"
   xml:space="preserve"
   enable-background="new 0 0 3508 2480"
   viewBox="0 0 63.999999 63.999999"
   y="0px"
   x="0px"
   id="Layer_1"
   version="1.1"><metadata
     id="metadata4083">
    <rdf:RDF>
      <cc:Work
   rdf:about="">
        <dc:format>image/svg+xml</dc:format>
        <dc:type
   rdf:resource="http://purl.org/dc/dcmitype/StillImage" />
        <dc:title></dc:title>
        <dc:date>2020</dc:date>
        <dc:creator>
          <cc:Agent>
            <dc:title>Timothée Giet</dc:title>
          </cc:Agent>
        </dc:creator>
        <cc:license
   rdf:resource="http://creativecommons.org/licenses/by-sa/4.0/" />
      </cc:Work>
      
    <cc:License
   rdf:about="http://creativecommons.org/licenses/by-sa/4.0/"><cc:permits
     rdf:resource="http://creativecommons.org/ns#Reproduction" /><cc:permits
     rdf:resource="http://creativecommons.org/ns#Distribution" /><cc:requires
     rdf:resource="http://creativecommons.org/ns#Notice" /><cc:requires
     rdf:resource="http://creativecommons.org/ns#Attribution" /><cc:permits
     rdf:resource="http://creativecommons.org/ns#DerivativeWorks" /><cc:requires
     rdf:resource="http://creativecommons.org/ns#ShareAlike" /></cc:License></rdf:RDF>
        </metadata><defs
     id="defs4081" /><g
     transform="matrix(0.95238095,0,0,0.95238095,1.5238096,1.5238096)"
     id="g1194"><path
       style="color:#000000;clip-rule:nonzero;display:inline;overflow:visible;visibility:visible;opacity:1;isolation:auto;mix-blend-mode:normal;color-interpolation:sRGB;color-interpolation-filters:linearRGB;solid-color:#000000;solid-opacity:1;fill:#e7bb36;fill-opacity:1;fill-rule:evenodd;stroke:#ae8d2a;stroke-width:1;stroke-linecap:square;stroke-linejoin:miter;stroke-miterlimit:4;stroke-dasharray:none;stroke-dashoffset:0;stroke-opacity:1;marker:none;color-rendering:auto;image-rendering:auto;shape-rendering:auto;text-rendering:auto;enable-background:accumulate"
       d="M 9,1 C 4.568,1 1,4.568 1,9 v 46 c 0,4.432 3.568,8 8,8 h 46 c 4.432,0 8,-3.568 8,-8 V 9 C 63,4.568 59.432,1 55,1 Z m 6,8 h 35 c 2.77,0 5,2.23 5,5 v 35 c 0,2.77 -2.23,5 -5,5 H 15 c -2.77,0 -5,-2.23 -5,-5 V 14 c 0,-2.77 2.23,-5 5,-5 z"
       id="rect4193" /><g
       style="font-style:normal;font-variant:normal;font-weight:normal;font-stretch:normal;font-size:40px;line-height:125%;font-family:Kabel;-inkscape-font-specification:Kabel;letter-spacing:0px;word-spacing:0px;fill:#e7bb36;fill-opacity:1;stroke:#ae8d2a;stroke-width:1px;stroke-linecap:butt;stroke-linejoin:miter;stroke-opacity:1"
       id="text4261"><path
         d="m 29.96875,22.698242 h -1.162109 v 6.875 h 1.162109 q 5.478516,0 5.478516,-3.4375 0,-0.03906 0,-0.07813 -0.03906,-2.11914 -1.484375,-2.763672 -1.47461,-0.595703 -3.994141,-0.595703 z m 5.712891,13.359375 q -1.16211,0.283203 -4.677735,0.478516 -1.279297,-0.07813 -1.640625,-0.07813 -0.40039,0 -0.634765,0 v 11.240234 l -8.369141,0.722656 V 15.579097 h 9.248047 q 14.033203,0 14.033203,10.55664 0,3.125 -1.835938,5.957031 -1.835937,2.88086 -6.123046,3.964844 z"
         style="fill:#e7bb36;fill-opacity:1;stroke:#ae8d2a;stroke-opacity:1"
         id="path5480" /></g></g></svg>