<?xml version="1.0" encoding="UTF-8" standalone="no"?>
<svg
   xmlns:dc="http://purl.org/dc/elements/1.1/"
   xmlns:cc="http://creativecommons.org/ns#"
   xmlns:rdf="http://www.w3.org/1999/02/22-rdf-syntax-ns#"
   xmlns:svg="http://www.w3.org/2000/svg"
   xmlns="http://www.w3.org/2000/svg"
   xmlns:sodipodi="http://sodipodi.sourceforge.net/DTD/sodipodi-0.dtd"
   xmlns:inkscape="http://www.inkscape.org/namespaces/inkscape"
   version="1.1"
   id="Layer_1"
   x="0px"
   y="0px"
   viewBox="0 0 40 39.479839"
   enable-background="new 0 0 3508 2480"
   xml:space="preserve"
   inkscape:version="0.91 r13725"
   sodipodi:docname="r.svg"
   width="40"
   height="39.479839"><metadata
     id="metadata4083"><rdf:RDF><cc:Work
         rdf:about=""><dc:format>image/svg+xml</dc:format><dc:type
           rdf:resource="http://purl.org/dc/dcmitype/StillImage" /><dc:title></dc:title></cc:Work></rdf:RDF></metadata><defs
     id="defs4081" /><sodipodi:namedview
     pagecolor="#ffffff"
     bordercolor="#666666"
     borderopacity="1"
     objecttolerance="10"
     gridtolerance="10"
     guidetolerance="10"
     inkscape:pageopacity="0"
     inkscape:pageshadow="2"
     inkscape:window-width="1623"
     inkscape:window-height="1029"
     id="namedview4079"
     showgrid="false"
     showguides="false"
     inkscape:zoom="11.858609"
     inkscape:cx="0.61008192"
     inkscape:cy="19.728873"
     inkscape:window-x="57"
     inkscape:window-y="21"
     inkscape:window-maximized="1"
     inkscape:current-layer="Layer_1"
     fit-margin-top="0"
     fit-margin-left="0"
     fit-margin-right="0"
     fit-margin-bottom="0" /><g
     id="g11845"
     transform="matrix(0.12808979,-0.03876243,0.03876243,0.12808979,-905.87665,179.91572)"><path
       d="m 7039.6187,938.48244 c 1.5801,-1.6699 3.1699,0.4801 3.74,1.91 -4.1099,11.73 -6.8101,23.9501 -11.25,35.5601 -3.98,0.63 -7.5801,-1.52 -11.3,-2.4401 -6.97,-2.41 -14.3799,-3.76 -21.0698,-6.8099 10.3499,1.6899 20,6.1699 30.26,8.34 0.01,-0.54 0.04,-1.63 0.05,-2.1801 0.09,-0.34 0.27,-1.0199 0.3601,-1.36 l 0.4199,1.74 c 1.97,-1.09 1.9102,-3.6899 2.6602,-5.5499 2.5798,-8.73 5.28,-17.4301 7.8699,-26.15 -0.4399,-0.35 -1.3301,-1.04 -1.77,-1.38 0.01,-0.4201 0.03,-1.2601 0.03,-1.6801 z"
       id="path213"
       inkscape:connector-curvature="0"
       style="fill:#74a236;stroke:#74a236;stroke-width:0.59399998" /><path
       d="m 6857.6087,884.90244 c 0.9399,-1.02 1.8,-2.2 3.1201,-2.8099 1.74,-0.04 3.4099,0.6499 5.0999,1.1899 -3.98,3.03 -4.77,8.22 -6.1799,12.6899 -2,8.0801 -5.2,15.8501 -6.6699,24.05 -0.6201,0.33 -1.8501,1.01 -2.47,1.34 -4.3901,-3.37 -0.8,-8.71 0.23,-12.87 2.0099,-7.9499 5.2599,-15.5599 6.8698,-23.5899 z"
       id="path1003"
       inkscape:connector-curvature="0"
       style="fill:#5b8126;stroke:#5b8126;stroke-width:0.59399998" /><path
       d="m 6876.8086,684.49244 c 3.3801,-2.9199 7.9102,-0.75 11.5601,0.4401 12.1799,3.77 24.3701,7.5499 36.6501,11.03 9,1.6599 17.74,4.5699 26.2598,7.9199 5.6001,1.4 11.2102,2.8101 16.7302,4.6 51.7,15.63 103.3398,31.4601 155.0698,47.04 7.54,2.46 15.6602,3.98 22.1702,8.85 1.3599,6.9 -1.7202,13.36 -3.51,19.86 -19.0801,62.3601 -37.8801,124.8 -56.9502,187.17 -6.0898,20.54 -12.8599,40.94006 -18.45,61.57996 -3.6899,1.79 -8.2,1.12 -12.0798,0.3401 -74.8901,-22.87 -149.8101,-45.63996 -224.74,-68.37996 -9.6201,-2.92 -19.1602,-6.15 -28.9202,-8.53 -3.3599,-2.47 -7.5701,-5.26 -7.3499,-9.97 1.5298,-3.61 2.52,-7.41 3.5798,-11.16 13.24,-43.1801 26.28,-86.42 39.4202,-129.62 11.3499,-36.63 22.0698,-73.45 33.6599,-109.99 2.0401,-3.8601 3.0101,-8.6401 6.9,-11.1801 m 22.4002,40.43 c -2.3401,1.86 -3.6301,4.97 -3.01,7.95 -17.26,56.75 -34.4202,113.55 -51.77,170.3 -2.3201,8.47 -5.51,16.73 -7.4001,25.3099 l 0.5801,0.6101 0.23,0.07 c 0.95,2.89 4.6001,3.0599 7.1001,3.88 61.6499,18.87 123.3699,37.41 185,56.37 3.8499,0.91 7.45,3.8199 11.6099,2.61 1.0701,-1.29 1.25,-3.11 1.9202,-4.62 1.5898,-5.33 3.97,-10.5599 4.1299,-16.1899 16.3401,-53.6101 32.6301,-107.2301 48.9399,-160.8501 1.9602,-0.76 1.76,-3.11 2.4001,-4.76 1.6099,-5.6899 4.03,-11.1899 4.77,-17.1 0.26,-1.39 -0.1301,-2.71 -1.47,-3.24 -8.5801,-3.52 -18.03,-4.5699 -26.4302,-8.58 -4.24,-1.3 -8.6899,-1.78 -12.8699,-3.2101 -12.22,-4.1899 -24.97,-6.7599 -36.96,-11.6 -5.9001,-1.5499 -11.8501,-2.89 -17.5901,-4.9 -4.3101,-1.5399 -9.1899,-1.87 -12.8601,-4.7699 -4.9099,-0.51 -9.3499,-2.77 -14.0598,-4.01 -5.1301,-1.63 -10.5901,-1.98 -15.55,-4.11 -9.52,-3.0901 -19.26,-5.5 -28.6301,-9.01 -9.51,-2.74 -19,-5.49 -28.3699,-8.62 -3.3101,-0.2199 -6.43,-2.9699 -9.71,-1.5299 z"
       id="path1351"
       inkscape:connector-curvature="0"
       style="fill:#d43d2c;stroke:#d43d2c;stroke-width:0.59399998" /><path
       d="m 6909.2388,745.89244 c 7.24,0.9401 14.3499,3.02 21,6.0601 10.6699,3.6599 21.6799,6.2 32.53,9.25 7.95,2.8099 16.2798,4.3999 24.1799,7.4399 14.3398,4.27 28.6499,8.7001 43.02,12.9501 8.3,2.2899 15.4299,7.33 23.0999,11.08 3.1101,2.29 6.47,4.64 8.21,8.25 2.4502,4.89 5.1501,9.6899 7.03,14.87 0.04,0.12 0.1201,0.35 0.1602,0.47 0.9199,3.0701 1.1899,6.3201 2.4299,9.3301 1.8301,12.6299 -1.97,25.0099 -6.3,36.71 -3.9299,6.48 -7.5898,13.1899 -13.1899,18.4199 -9.03,4.4901 -18.3501,9.0601 -28.5701,9.8101 -2.1399,0.53 -5.3499,-0.13 -6.3398,2.33 -0.3801,3.9301 -0.6101,8.04 0.6599,11.87 0.54,4.16 0.21,8.4401 1.3101,12.55 -0.03,4.96 -0.46,10.08 0.99,14.91 1.9199,2.65 5.3198,3.74 8.5,3.97 3.3499,0.1801 6.3999,2.46 9.8398,1.62 l 0.6101,0.28 c 0.3101,0.1 0.9099,0.3099 1.21,0.4199 0,0.42 -0.02,1.26 -0.03,1.6801 -2.01,9.77 -5.6199,19.16 -8.3999,28.75 -1.5601,1.01 -3.29,2.36 -5.1899,1.45 -23.27,-6.99 -46.5,-14.12 -69.75,-21.1499 -2.76,-0.75 -5.6401,-1.39 -7.76,-3.38 1.0498,-2.4301 1.5698,-5.03 1.48,-7.66 0.1499,-0.4 0.4399,-1.22 0.5898,-1.63 3.6301,-5.75 4.1001,-12.88 6.4402,-19.2 3.5398,-1.05 6.3398,2.24 9.8899,1.87 1.97,0.35 4.28,-0.5701 4.53,-2.8 -1.3701,-9.33 -1.03,-18.8101 -2.3901,-28.15 -0.5999,-2.9199 -0.3298,-5.9299 -0.8999,-8.8099 -4.6199,-2.0701 -9.6699,-2.9 -14.3999,-4.61 -4.4102,-1.3201 -8.8101,-3.7201 -13.52,-2.8101 -2.04,0.08 -2.1301,2.4301 -2.76,3.87 -2.3101,7.45 -4.27,15.02 -6.8501,22.4 -0.98,3.0499 -2.3101,6.77 -0.28,9.71 2.4302,1.28 5.3201,0.84 8.01,0.89 l 0.4402,0.01 c 1.7898,0.12 3.6099,0.27 5.48,0.39 0.08,0.24 0.24,0.71 0.3198,0.95 -2.0798,-0.2899 -4.03,-0.45 -5.8899,0.42 1.8899,0.79 3.8799,1.52 5.8899,2.22 -2.7,9.9401 -5.96,19.72 -9.0698,29.55 -8.6301,-1.67 -16.8101,-5.02 -25.29,-7.2201 -17.03,-5.47 -34.25,-10.2699 -51.26,-15.75 -2.0601,-0.23 -2.21,-2.49 -2.5801,-4.0099 2.9099,-9.2401 5.8501,-18.4701 8.28,-27.8401 6.3701,0.73 12.01,6.5801 18.6399,3.6801 0.07,-0.71 0.2202,-2.11 0.29,-2.8201 8.99,-31.47 19.1001,-62.63 28.3101,-94.0399 0.6499,-2.65 1.54,-5.24 2.8101,-7.66 1.3699,-1.5699 1.28,-4.3199 -0.8701,-5.1 -4.55,-1.63 -9.3198,-2.5701 -13.8098,-4.35 0.5498,-5.92 4.2598,-11.16 3.7998,-17.2001 0.8101,-3.26 1.79,-6.47 2.97,-9.61 0.8197,-1.5402 1.6297,-3.0802 2.4498,-4.6302 m 52.49,50.4599 c -4.77,13.88 -8.3601,28.13 -13,42.05 -0.9202,2.14 -0.05,4.34 0.9299,6.3101 7.02,1.61 13.8699,3.8999 20.73,6.13 4.5701,0.98 9.3401,3.1499 14.0601,1.6899 0.8101,0.27 1.6599,0.55 2.55,0.86 -0.8801,-0.02 -2.6201,-0.06 -3.5,-0.08 l 0.27,1.21 c 7.49,2.0701 15.6699,-0.1799 22.5898,-3.5699 7.55,-4.05 13.23,-12.7201 11.1401,-21.4801 -1.27,-3.62 -0.3601,-7.7799 -2.6802,-10.97 -1.8999,-5.15 -6.0898,-9.36 -10.9299,-11.7899 -10.6399,-3.42 -21.3799,-6.4901 -32.02,-9.8601 -3.31,-1.0199 -7.07,-3.2699 -10.1398,-0.5 z"
       id="path1353"
       inkscape:connector-curvature="0"
       style="fill:#d43d2c;stroke:#d43d2c;stroke-width:0.59399998" /><path
       d="m 6873.8487,680.47234 c 6.3501,-2.7799 13.4399,-0.84 19.6201,1.5 21.3799,6.17 42.52,13.1201 63.9099,19.26 20.3901,6.1801 40.74,12.5 61.1201,18.77 40.6799,12.3 81.4099,24.52 121.99,37.14 3.3499,1.27 6.0498,3.92 7.71,7.09 l -1.3401,0.07 c -2.0801,-2.6 -4.47,-5.09 -7.79,-5.92 -82.0498,-24.89 -164.0698,-49.9 -246.0999,-74.83 -2.3401,-0.72 -4.5901,-1.5601 -6.8501,-2.3301 -2.8,-1.21 -5.8499,-1.0699 -8.78,-0.85 -0.8699,0.03 -2.6199,0.07 -3.49,0.1 z"
       id="path2435"
       inkscape:connector-curvature="0"
       style="fill:#bbcd94;stroke:#bbcd94;stroke-width:0.59399998" /><path
       d="m 6863.9888,690.60234 c 1.3899,-4.7899 5.3499,-8.2699 9.8599,-10.13 0.8701,-0.03 2.6201,-0.07 3.49,-0.1 -3.8298,2.3401 -7.27,5.62 -8.5999,10.02 -25.5,83.67 -50.74,167.41 -76.3901,251.03 -0.76,2.65 -1.5999,5.5699 -0.48,8.26 0.6201,2.02 2.3701,4.02 1.1401,6.22 -3.2202,-3.63 -6.2202,-8.3199 -5.3401,-13.39 0.9299,-5.12 2.74,-10.02 4.23,-14.98 12.51,-41.5 25.3201,-82.91 37.73,-124.4399 11.6499,-37.43 22.77,-75.03 34.3601,-112.4901 z"
       id="path2437"
       inkscape:connector-curvature="0"
       style="fill:#597f23;stroke:#597f23;stroke-width:0.59399998" /><path
       d="m 6877.3386,680.37244 c 2.9302,-0.22 5.98,-0.36 8.78,0.85 -3.5601,-0.37 -7.4199,-0.1699 -10.28,2.2001 -4.0999,2.6799 -4.96,7.83 -5.9299,12.25 -11.5901,36.54 -22.3101,73.36 -33.6599,109.99 -13.1401,43.2 -26.1802,86.4399 -39.4202,129.62 -1.0598,3.75 -2.05,7.55 -3.5798,11.16 -0.24,0.5499 -0.7202,1.65 -0.9602,2.2 1.2302,2.99 2.6702,5.9401 3.3701,9.14 -0.9299,-0.67 -1.8101,-1.24 -2.6499,-1.88 1.23,-2.2 -0.52,-4.2 -1.1401,-6.22 -1.1199,-2.6901 -0.28,-5.61 0.48,-8.26 25.6501,-83.62 50.8901,-167.36 76.3901,-251.03 1.3298,-4.4001 4.77,-7.68 8.5998,-10.0201 z"
       id="path2439"
       inkscape:connector-curvature="0"
       style="fill:#b6d871;stroke:#b6d871;stroke-width:0.59399998" /><path
       d="m 6875.8386,683.42244 c 2.8601,-2.37 6.72,-2.5701 10.28,-2.2001 2.26,0.77 4.51,1.6101 6.8501,2.3301 82.03,24.9299 164.05,49.9399 246.0999,74.83 3.3201,0.8301 5.71,3.3201 7.79,5.92 -0.28,1.91 -0.1399,3.87 0.21,5.7999 -25.1499,82.12 -49.9399,164.3501 -75.0498,246.48006 -1.0801,3.98 -2.6301,7.84 -3.4802,11.8899 -0.6599,2.2101 0.1401,5.4301 -2.5198,6.4601 -10.3501,1.3099 -19.9802,-3.11 -29.7102,-5.8201 -74.3499,-22.7 -148.74,-45.22996 -223.0999,-67.89986 -4.24,-1.5 -9.01,-1.9501 -12.6101,-4.8 9.76,2.38 19.3,5.61 28.9202,8.53 74.9299,22.74 149.8499,45.50996 224.74,68.37996 3.8799,0.7799 8.3899,1.45 12.0798,-0.3401 5.5901,-20.6399 12.3601,-41.03986 18.45,-61.57996 19.0701,-62.37 37.8701,-124.8099 56.9502,-187.17 1.7898,-6.5 4.8699,-12.96 3.51,-19.86 -6.51,-4.87 -14.6301,-6.39 -22.1702,-8.85 -51.73,-15.58 -103.3699,-31.41 -155.0698,-47.04 -5.52,-1.7899 -11.1301,-3.2 -16.7302,-4.6 -8.5198,-3.35 -17.2598,-6.26 -26.2598,-7.9199 -12.28,-3.4801 -24.4702,-7.26 -36.6501,-11.03 -3.6499,-1.1901 -8.1799,-3.36 -11.5601,-0.4401 -3.8899,2.54 -4.8599,7.3201 -6.8999,11.1801 0.97,-4.42 1.8301,-9.5701 5.9299,-12.25 z"
       id="path2441"
       inkscape:connector-curvature="0"
       style="fill:#896629;stroke:#896629;stroke-width:0.59399998" /><path
       d="m 6899.2088,724.92244 c 3.28,-1.4401 6.3999,1.3099 9.71,1.53 9.3699,3.13 18.8599,5.88 28.3699,8.62 9.3701,3.51 19.1101,5.9199 28.6301,9.01 4.96,2.13 10.4199,2.48 15.55,4.11 4.71,1.24 9.1499,3.5 14.0598,4.01 3.6702,2.8999 8.55,3.23 12.8601,4.7699 5.74,2.01 11.6899,3.3501 17.5901,4.9 11.99,4.8401 24.74,7.41 36.96,11.6 4.1799,1.4301 8.6299,1.91 12.8699,3.2101 8.4001,4.01 17.8501,5.0599 26.4302,8.58 1.3398,0.53 1.73,1.85 1.47,3.24 -0.74,5.91 -3.1602,11.41 -4.77,17.1 -0.6401,1.65 -0.4399,4 -2.4001,4.76 1.3,-5.24 2.9202,-10.38 4.6101,-15.5 0.5701,-2.0499 1.46,-4.13 1.02,-6.2899 l -0.03,-0.06 c -0.1899,-0.4 -0.5801,-1.1899 -0.77,-1.58 -38.4399,-12.01 -77.0601,-23.4601 -115.5601,-35.28 -28.51,-8.59 -56.95,-17.42 -85.48,-25.9301 -0.1599,0.26 -0.47,0.76 -0.6299,1.02 l -0.45,0.49 c -1.8601,1.3301 -2.3701,3.6001 -3.05,5.64 -0.6203,-2.9799 0.6698,-6.0899 3.0099,-7.9499 z"
       id="path2461"
       inkscape:connector-curvature="0"
       style="fill:#9c6635;stroke:#9c6635;stroke-width:0.59399998" /><path
       d="m 6900.3286,725.72234 c 28.53,8.51 56.97,17.3401 85.48,25.9301 38.5,11.8199 77.1201,23.27 115.5601,35.28 0.1899,0.39 0.5801,1.1799 0.77,1.58 -0.74,-0.08 -2.21,-0.23 -2.95,-0.3099 -7.3501,-3.01 -15.1101,-4.7201 -22.6201,-7.2301 -44.24,-13.47 -88.47,-26.9299 -132.72,-40.36 -14.6099,-4.1899 -28.95,-9.33 -43.71,-12.89 l -0.4399,-0.98 c 0.16,-0.26 0.47,-0.76 0.6299,-1.0201 z"
       id="path2463"
       inkscape:connector-curvature="0"
       style="fill:#384c0c;stroke:#384c0c;stroke-width:0.59399998" /><path
       d="m 6896.1987,732.87244 c 0.6799,-2.0399 1.1899,-4.3099 3.05,-5.64 -1.8201,8.3 -5.05,16.1901 -7.1401,24.42 -13.6399,44.41 -26.9199,88.9301 -40.5801,133.33 -4.1799,14.5801 -9.1399,28.9301 -13.1399,43.5601 l -0.78,0.55 -0.5801,-0.6101 c 1.8901,-8.58 5.0801,-16.84 7.4001,-25.3099 17.35,-56.7501 34.5101,-113.5501 51.7701,-170.3001 z"
       id="path2465"
       inkscape:connector-curvature="0"
       style="fill:#bfb663;stroke:#bfb663;stroke-width:0.59399998" /><path
       d="m 6899.2488,727.23244 0.45,-0.49 0.4399,0.98 c 0.47,1.3101 1.05,2.7401 2.46,3.4 -1.24,0.39 -2.3999,1.03 -2.45,2.4501 -19.7,64.2799 -39,128.6799 -58.79,192.9299 -1.02,0.66 -2.0601,1.3201 -2.97,2.04 4,-14.63 8.96,-28.98 13.1399,-43.5601 13.6602,-44.3999 26.9402,-88.9199 40.5801,-133.33 2.09,-8.2299 5.32,-16.1199 7.1401,-24.4199 z"
       id="path2467"
       inkscape:connector-curvature="0"
       style="fill:#97b96d;stroke:#97b96d;stroke-width:0.59399998" /><path
       d="m 6900.1387,727.72234 c 14.76,3.5601 29.1001,8.7001 43.71,12.89 44.25,13.4301 88.48,26.89 132.72,40.36 7.51,2.51 15.27,4.2201 22.6201,7.2301 -2.03,0.6699 -4.0901,1.26 -6.1899,1.26 -8.48,-3.3501 -17.4202,-5.4301 -26.0801,-8.27 -54.75,-16.75 -109.6001,-33.2201 -164.3201,-50.0701 -1.41,-0.6598 -1.99,-2.0899 -2.46,-3.4 z"
       id="path2469"
       inkscape:connector-curvature="0"
       style="fill:#4e622f;stroke:#4e622f;stroke-width:0.59399998" /><path
       d="m 6900.4487,742.94244 c 1.8298,-4 6.99,-2.62 10.3899,-1.9401 22.53,6.25 44.6899,13.77 67.1702,20.27 17.25,5.0601 34.3699,10.5701 51.5898,15.76 5.72,2.58 12.0801,3.9 17.22,7.71 2.1201,1.5701 4.9202,2.63 6.0601,5.24 -0.53,-0.11 -1.6099,-0.34 -2.1499,-0.46 -6.4502,-4.89 -13.79,-8.63 -21.6802,-10.48 -33.02,-10.01 -66.01,-20.1 -99.0298,-30.0701 -7.1201,-2.0199 -14.01,-4.85 -21.29,-6.21 -0.1201,0.41 -0.3601,1.22 -0.49,1.63 l -0.5,-0.64 c -0.4502,0.07 -1.3401,0.22 -1.78,0.3 0.3,-1.02 0.6499,-2.02 1.02,-3.01 -1.8201,0.42 -4.7002,-0.17 -5.29,2.12 -2.74,8.4399 -5.1699,16.99 -7.8301,25.47 -1.2,3.89 -3.05,7.8101 -2.3799,11.99 -2.21,-2.2 -1.1001,-5.52 -0.22,-8.0599 3.3499,-9.7799 5.9399,-19.8099 9.1899,-29.6199 z"
       id="path2481"
       inkscape:connector-curvature="0"
       style="fill:#bbd091;stroke:#bbd091;stroke-width:0.59399998" /><path
       d="m 6901.6887,743.16244 c 0.5898,-2.29 3.47,-1.7 5.29,-2.12 -0.3701,0.99 -0.72,1.99 -1.02,3.01 -3.8501,10.66 -6.29,21.76 -9.98,32.47 -0.8601,1.97 -0.21,2.66 1.96,2.0601 0.04,0.45 0.1399,1.36 0.1899,1.8199 -2.25,-0.01 -4.48,0.1 -6.6499,0.22 -0.6702,-4.1799 1.1799,-8.1 2.3799,-11.99 2.6602,-8.48 5.0901,-17.0301 7.8301,-25.47 z"
       id="path2483"
       inkscape:connector-curvature="0"
       style="fill:#598026;stroke:#598026;stroke-width:0.59399998" /><path
       d="m 6905.9588,744.05244 c 0.4399,-0.08 1.3298,-0.23 1.78,-0.3 l 0.5,0.64 c -0.52,2.03 -0.97,4.08 -1.4502,6.13 -1.1799,3.14 -2.1599,6.35 -2.97,9.61 -2.3198,6.03 -3.79,12.34 -5.8799,18.4501 -2.1699,0.6 -2.8201,-0.09 -1.96,-2.0601 3.69,-10.71 6.13,-21.8099 9.9801,-32.47 z"
       id="path2487"
       inkscape:connector-curvature="0"
       style="fill:#afce67;stroke:#afce67;stroke-width:0.59399998" /><path
       d="m 6908.7288,742.76244 c 7.28,1.36 14.1699,4.1901 21.29,6.21 33.0198,9.9701 66.0098,20.0601 99.0298,30.0701 7.8901,1.85 15.23,5.59 21.6802,10.48 0.75,1.03 1.5,2.09 2.3398,3.15 -7.6699,-3.75 -14.7998,-8.79 -23.0999,-11.08 -14.3701,-4.25 -28.6802,-8.6801 -43.02,-12.9501 -7.9001,-3.04 -16.23,-4.63 -24.1799,-7.4399 -10.8501,-3.05 -21.8601,-5.5901 -32.53,-9.25 -6.6501,-3.04 -13.76,-5.12 -21,-6.0601 -0.8201,1.55 -1.6301,3.09 -2.4502,4.63 0.4802,-2.05 0.9302,-4.1 1.4502,-6.13 0.1299,-0.41 0.3699,-1.22 0.49,-1.63 z"
       id="path2489"
       inkscape:connector-curvature="0"
       style="fill:#906625;stroke:#906625;stroke-width:0.59399998" /><path
       d="m 6897.9387,778.58244 c 2.0898,-6.1101 3.5601,-12.42 5.8799,-18.4501 0.46,6.04 -3.25,11.28 -3.7998,17.2001 4.49,1.7799 9.2598,2.72 13.8098,4.35 2.1501,0.78 2.24,3.53 0.8701,5.1 -0.21,-0.55 -0.6401,-1.63 -0.8601,-2.1801 l -0.02,-0.08 c -0.1,-0.37 -0.29,-1.11 -0.3899,-1.48 -5.1699,-1.4899 -10.1799,-3.6199 -15.49,-4.4599 z"
       id="path2543"
       inkscape:connector-curvature="0"
       style="fill:#ae582d;stroke:#ae582d;stroke-width:0.59399998" /><path
       d="m 7146.8587,764.30244 1.3401,-0.07 c 2.01,4.39 1.8699,9.4801 0.3699,14.01 -2.28,7.2201 -4.53,14.4601 -6.5,21.78 -6.6399,20.5601 -12.5498,41.35 -18.97,61.98 -15.72,51.5601 -31.3499,103.15 -47.1099,154.70006 -2.1101,6 -2.9202,12.74 -7.3901,17.62 -4.23,3.9099 -10.49,5.01 -15.8999,3.26 -8.3501,-2.6901 -16.76,-5.16 -25.1301,-7.76 -4.3999,-1.41 -9.01,-2.29 -13.0698,-4.55 13.75,2.96 26.98,8.05 40.5498,11.79 3.75,0.7999 7.6802,-0.2001 10.9702,-2.13 2.6599,-1.03 1.8599,-4.25 2.5198,-6.4601 l 0.3901,1.5901 c 1.97,-2.9501 2.54,-6.5 3.6299,-9.8 24.8601,-81.83996 49.7002,-163.66986 74.6501,-245.46996 0.52,-1.55 0.1,-3.17 -0.1401,-4.6901 -0.3499,-1.9299 -0.4901,-3.8898 -0.21,-5.7999 z"
       id="path2551"
       inkscape:connector-curvature="0"
       style="fill:#92b366;stroke:#92b366;stroke-width:0.59399998" /><path
       d="m 7147.0686,770.10234 c 0.24,1.52 0.6602,3.14 0.1401,4.6901 -24.95,81.8 -49.79,163.63 -74.6501,245.46996 -1.0898,3.3 -1.6599,6.85 -3.6299,9.8 l -0.3901,-1.5901 c 0.8501,-4.0499 2.4001,-7.9099 3.4802,-11.8899 25.1099,-82.12996 49.8999,-164.36006 75.0498,-246.48006 z"
       id="path2563"
       inkscape:connector-curvature="0"
       style="fill:#bcc06b;stroke:#bcc06b;stroke-width:0.59399998" /><path
       d="m 6897.9387,778.58244 c 5.3101,0.84 10.3201,2.97 15.49,4.46 0.1,0.37 0.29,1.11 0.3899,1.48 -5.49,-0.3 -10.3198,-3.3 -15.6899,-4.12 -0.05,-0.46 -0.1499,-1.37 -0.19,-1.82 z"
       id="path2577"
       inkscape:connector-curvature="0"
       style="fill:#575c19;stroke:#575c19;stroke-width:0.59399998" /><path
       d="m 6891.4788,780.62244 c 2.1699,-0.12 4.3999,-0.23 6.6499,-0.22 5.3701,0.8199 10.2,3.8199 15.6899,4.12 l 0.02,0.08 c -3.1799,3.14 -3.5898,7.8401 -4.9299,11.89 -9.4099,30.54 -18.45,61.1901 -28.01,91.6801 -1.48,-0.71 -2.8899,-1.4 -4.3101,-2.0701 6.74,-23.3099 14.1001,-46.4399 21.05,-69.6899 2.8999,-10.38 6.74,-20.53 9.05,-31.05 -5.0899,-1.5501 -10.2198,-2.9401 -15.2098,-4.7401 z"
       id="path2585"
       inkscape:connector-curvature="0"
       style="fill:#598023;stroke:#598023;stroke-width:0.59399998" /><path
       d="m 6908.9087,796.49244 c 1.3401,-4.0499 1.75,-8.75 4.9299,-11.89 0.22,0.55 0.6501,1.63 0.8601,2.1801 -1.27,2.42 -2.1602,5.01 -2.8101,7.66 -9.21,31.4099 -19.3201,62.5699 -28.3101,94.0399 -0.6099,1.12 -1.6499,1.8401 -2.76,2.3301 0.02,-0.66 0.06,-1.98 0.08,-2.64 9.5602,-30.4901 18.6002,-61.1401 28.0101,-91.6801 z"
       id="path2605"
       inkscape:connector-curvature="0"
       style="fill:#bad871;stroke:#bad871;stroke-width:0.59399998" /><path
       d="m 7092.9988,789.46254 c 2.0999,0 4.1599,-0.5901 6.1899,-1.26 0.74,0.08 2.21,0.23 2.95,0.3099 l 0.03,0.06 c -3.6599,1.7 -3.3,6.1599 -4.5701,9.3999 -12.8101,41.8701 -25.48,83.79 -38.2,125.6901 -2.26,9.08 -5.6399,17.85 -8.3,26.8199 -3.4399,12.6001 -7.6599,24.9601 -11.29,37.5 -2.5798,-0.46 -5.0898,-0.96 -7.5898,-1.5599 0.4199,-0.59 0.8699,-1.17 1.3499,-1.74 7.7002,-24.37 14.9001,-48.91 22.4202,-73.34 12.3197,-40.6401 24.8497,-81.2001 37.0099,-121.88 z"
       id="path2609"
       inkscape:connector-curvature="0"
       style="fill:#5b8125;stroke:#5b8125;stroke-width:0.59399998" /><path
       d="m 7050.7288,789.52244 c 0.54,0.12 1.6199,0.35 2.1499,0.46 l 0.51,0.1001 c 15.02,13.37 23.79,34.3099 20.3501,54.4099 -1.9302,11.2101 -6.6201,22.05 -14.3101,30.52 -2.8101,2.5701 -5.1001,6.0801 -8.79,7.42 0.1899,-0.4301 0.5801,-1.28 0.77,-1.7101 5.6001,-5.23 9.26,-11.9399 13.1899,-18.4199 l 0.3501,1.76 c 3.5898,-4.76 4.5,-10.86 6.3799,-16.39 1.6802,-4.9 0.9202,-10.1 0.8601,-15.14 -0.06,-2.39 -0.4102,-4.75 -1.29,-6.9399 -1.24,-3.01 -1.51,-6.26 -2.4299,-9.3301 -0.04,-0.12 -0.1201,-0.35 -0.1602,-0.47 -1.8799,-5.1801 -4.5798,-9.98 -7.03,-14.87 -1.74,-3.61 -5.0999,-5.96 -8.21,-8.25 -0.8398,-1.06 -1.5898,-2.12 -2.3398,-3.15 z"
       id="path2617"
       inkscape:connector-curvature="0"
       style="fill:#88a845;stroke:#88a845;stroke-width:0.59399998" /><path
       d="m 7097.5987,797.97234 c 1.27,-3.24 0.9102,-7.7 4.5701,-9.3999 0.4399,2.1599 -0.45,4.24 -1.02,6.2899 -1.6899,5.12 -3.3101,10.26 -4.6101,15.5 -16.3098,53.62 -32.5999,107.24 -48.9399,160.8501 -2.02,6.4399 -3.9099,12.9199 -5.9399,19.36 l -0.78,-0.1801 c -0.3999,-0.25 -1.1799,-0.76 -1.5701,-1.01 0.1301,-0.35 0.3801,-1.0499 0.5,-1.4 3.6301,-12.5399 7.8501,-24.8999 11.29,-37.5 2.6602,-8.97 6.04,-17.74 8.3,-26.8199 12.7199,-41.9 25.3898,-83.8199 38.1999,-125.6901 z"
       id="path2619"
       inkscape:connector-curvature="0"
       style="fill:#afd066;stroke:#afd066;stroke-width:0.59399998" /><path
       d="m 6961.7288,796.35234 c 3.0698,-2.7699 6.8298,-0.5199 10.1399,0.5 10.6401,3.37 21.3801,6.4401 32.02,9.8601 4.8401,2.4299 9.03,6.6399 10.9299,11.7899 2.3201,3.1901 1.4102,7.35 2.6802,10.97 2.0898,8.76 -3.5901,17.4301 -11.1401,21.4801 -6.9199,3.39 -15.0999,5.64 -22.5898,3.5699 l -0.27,-1.21 c 0.8799,0.02 2.6199,0.06 3.5,0.08 8.6799,1.8101 17.8799,-1.52 24.3198,-7.4 3.3401,-3.61 6.3,-8.2899 5.99,-13.3999 -0.1299,-2.41 -1.0898,-4.63 -1.78,-6.8601 -0.4399,-2.5399 -1.1699,-5.01 -2.3398,-7.2699 -0.2,0.58 -0.6001,1.74 -0.8,2.3199 -0.6699,-1.23 -1.3601,-2.42 -1.96,-3.61 1,-2.84 -1.3601,-4.76 -3.1599,-6.49 -3.3801,-3.9601 -8.8601,-4.26 -13.4502,-5.86 -6.6299,-2.23 -13.3999,-3.99 -20.04,-6.13 -3.3098,-1.01 -6.72,-2.8301 -10.21,-1.73 -1.96,0.6799 -2.1299,2.88 -2.71,4.5599 -3.8999,13.2 -8.1499,26.3101 -11.8398,39.5701 0.72,0.21 2.1599,0.6499 2.8799,0.86 10.6001,3.1599 21.1499,6.51 31.79,9.6 l 0.76,0.98 c -4.72,1.46 -9.49,-0.71 -14.0601,-1.6899 -6.8601,-2.2301 -13.71,-4.52 -20.73,-6.13 -0.98,-1.9701 -1.8501,-4.17 -0.9299,-6.3101 4.6398,-13.9199 8.2299,-28.1699 12.9999,-42.05 z"
       id="path2649"
       inkscape:connector-curvature="0"
       style="fill:#836523;stroke:#836523;stroke-width:0.59399998" /><path
       d="m 6963.5686,796.96254 c 3.49,-1.1001 6.9001,0.72 10.21,1.73 6.6401,2.14 13.4102,3.9 20.04,6.13 4.5901,1.6 10.0701,1.8999 13.4502,5.86 -4.1101,-0.7101 -7.8601,-2.63 -11.8401,-3.7101 -7.1899,-2.0599 -14.3301,-4.2899 -21.46,-6.5099 -3.5099,-1.0901 -7.2399,-1.6001 -10.4001,-3.5 z"
       id="path2669"
       inkscape:connector-curvature="0"
       style="fill:#5a641d;stroke:#5a641d;stroke-width:0.59399998" /><path
       d="m 6960.8587,801.52244 c 0.5801,-1.6799 0.75,-3.88 2.71,-4.5599 0.3801,1.21 0.77,2.45 1.1802,3.72 -3.0601,12.0599 -7.0701,23.89 -10.74,35.78 -0.7102,1.83 -1.4402,3.6499 -2.1101,5.49 -0.72,-0.2101 -2.1599,-0.65 -2.8799,-0.86 3.6899,-13.2601 7.9399,-26.3702 11.8398,-39.5701 z"
       id="path2675"
       inkscape:connector-curvature="0"
       style="fill:#9dbf62;stroke:#9dbf62;stroke-width:0.59399998" /><path
       d="m 6963.5686,796.96254 c 3.1602,1.8999 6.8901,2.4099 10.4001,3.5 7.1299,2.22 14.27,4.45 21.46,6.5099 3.98,1.0801 7.73,3 11.8401,3.7101 1.7998,1.73 4.1599,3.65 3.1599,6.49 -3.3601,-3.58 -7.6899,-8.88 -13.2,-7.01 -10.8901,-2.95 -21.47,-7.05 -32.48,-9.48 -0.4101,-1.2701 -0.8,-2.5101 -1.1801,-3.72 z"
       id="path2677"
       inkscape:connector-curvature="0"
       style="fill:#5f7748;stroke:#5f7748;stroke-width:0.59399998" /><path
       d="m 6997.2288,810.16244 c 5.51,-1.87 9.8398,3.4301 13.2,7.01 0.5999,1.1899 1.29,2.38 1.96,3.61 0.05,1.89 0.1499,3.8101 0.21,5.73 -0.3,-0.74 -0.8799,-2.21 -1.1699,-2.95 -1.0601,0.1699 -2.03,0.37 -2.99,0.59 -1.7301,-5.89 -5.5902,-11.3099 -11.2101,-13.99 z"
       id="path2719"
       inkscape:connector-curvature="0"
       style="fill:#405f19;stroke:#405f19;stroke-width:0.59399998" /><path
       d="m 7068.3086,815.79244 c 0.04,0.12 0.1201,0.35 0.1602,0.47 -0.04,-0.12 -0.1201,-0.35 -0.1602,-0.47 z"
       id="path2755"
       inkscape:connector-curvature="0"
       style="fill:#a4893a;stroke:#a4893a;stroke-width:0.59399998" /><path
       d="m 7013.1887,818.46254 c 1.1699,2.2599 1.8999,4.73 2.3398,7.2699 -0.8098,4.8501 -0.47,10.0601 -2.8499,14.53 -4.51,8.88 -16.1301,13.84 -25.54,10.54 0.74,-0.1801 2.24,-0.53 2.99,-0.71 6.3999,-1.05 12.8801,-4.3601 16.0901,-10.2301 2.98,-4.6599 2.5898,-10.45 2.22,-15.71 0.96,-0.22 1.9299,-0.42 2.99,-0.59 0.29,0.74 0.8699,2.21 1.1699,2.95 -0.06,-1.9199 -0.1599,-3.84 -0.21,-5.73 0.2,-0.5799 0.6002,-1.7399 0.8001,-2.3198 z"
       id="path2765"
       inkscape:connector-curvature="0"
       style="fill:#5a7f25;stroke:#5a7f25;stroke-width:0.59399998" /><path
       d="m 7070.8987,825.59254 c 0.8799,2.1899 1.23,4.5499 1.29,6.9399 0.06,5.04 0.8201,10.24 -0.8601,15.14 -1.8799,5.53 -2.79,11.63 -6.3799,16.39 l -0.3501,-1.76 c 4.3301,-11.7001 8.1302,-24.0801 6.3001,-36.7099 z"
       id="path2789"
       inkscape:connector-curvature="0"
       style="fill:#beae5e;stroke:#beae5e;stroke-width:0.59399998" /><path
       d="m 7012.6787,840.26244 c 2.3799,-4.47 2.04,-9.6799 2.8499,-14.53 0.6902,2.2301 1.6501,4.4501 1.78,6.8601 0.3101,5.11 -2.6499,9.7899 -5.99,13.3999 -6.4399,5.88 -15.6399,9.2101 -24.3198,7.4 -0.8901,-0.3099 -1.74,-0.59 -2.55,-0.86 l -0.76,-0.98 c 1.0601,-0.27 2.3,-0.48 3.45,-0.75 9.4098,3.2999 21.0299,-1.66 25.5399,-10.54 z"
       id="path2795"
       inkscape:connector-curvature="0"
       style="fill:#a1b355;stroke:#a1b355;stroke-width:0.59399998" /><path
       d="m 6951.8987,841.95244 c 0.6699,-1.8401 1.3999,-3.66 2.1101,-5.49 -0.1602,1.2699 -0.26,2.5599 -0.3,3.88 5.9399,1.2799 11.54,3.75 17.47,5.1399 6.3201,1.51 12.3201,4.53 18.95,4.6101 -0.75,0.1799 -2.25,0.5299 -2.99,0.71 -1.1499,0.27 -2.3899,0.48 -3.45,0.75 -10.6402,-3.0899 -21.19,-6.44 -31.7901,-9.6 z"
       id="path2835"
       inkscape:connector-curvature="0"
       style="fill:#bad197;stroke:#bad197;stroke-width:0.59399998" /><path
       d="m 6940.2088,872.03244 c 4.71,-0.91 9.1099,1.49 13.52,2.8101 4.73,1.71 9.78,2.5399 14.3999,4.61 0.5701,2.88 0.3,5.89 0.8999,8.8099 1.3601,9.34 1.02,18.8201 2.3901,28.15 -0.25,2.23 -2.5601,3.15 -4.53,2.8 -3.55,0.37 -6.3501,-2.92 -9.8899,-1.87 -2.3401,6.3199 -2.8101,13.45 -6.4402,19.2 1.72,-7.36 4.1802,-14.52 6.3801,-21.75 1.3398,1.16 3.26,0.88 4.9399,0.55 1.96,0.4199 3.98,0.8999 6.02,1.23 0.6699,0.03 2.01,0.08 2.6799,0.1 -0.8699,-8.92 -1.4299,-17.85 -2.1199,-26.78 -0.22,-2.74 -0.1501,-5.6 -1.5701,-8.02 l 0.1201,-0.25 c 0.1799,-0.2799 0.5298,-0.84 0.71,-1.13 -5.6301,-2.2 -11.55,-3.5 -17.25,-5.45 -3.25,-0.85 -6.47,-2.6 -9.8901,-1.92 -0.3298,0.1901 -0.98,0.5801 -1.3098,0.77 -3.3,10.48 -6.5801,20.99 -9.4302,31.61 0.8101,0.2001 1.6602,0.4401 2.55,0.6901 1.9399,0.5299 3.9199,1.1599 5.74,2.2 l 0.2,0.51 c -2.6899,-0.05 -5.5798,0.39 -8.01,-0.89 -2.03,-2.9399 -0.7,-6.66 0.28,-9.71 2.5801,-7.38 4.54,-14.9501 6.8501,-22.4 0.63,-1.44 0.7201,-3.7901 2.7602,-3.8701 z"
       id="path2919"
       inkscape:connector-curvature="0"
       style="fill:#8d6c2a;stroke:#8d6c2a;stroke-width:0.59399998" /><path
       d="m 6940.5786,873.12244 c 3.4202,-0.6799 6.6401,1.0701 9.8901,1.92 5.7,1.95 11.6199,3.25 17.25,5.45 -0.1802,0.29 -0.53,0.8501 -0.71,1.13 -2.1802,-0.2999 -4.3301,-0.64 -6.4502,-0.99 -6.46,-2.12 -13.0898,-3.71 -19.45,-6.08 l -0.5299,-1.43 z"
       id="path2923"
       inkscape:connector-curvature="0"
       style="fill:#56601b;stroke:#56601b;stroke-width:0.59399998" /><path
       d="m 6939.2688,873.89244 c 0.3298,-0.1899 0.98,-0.58 1.3098,-0.77 l 0.53,1.4301 c -2.71,10.59 -7.3,20.76 -8.72,31.64 -0.8899,-0.25 -1.74,-0.49 -2.55,-0.6901 2.8501,-10.62 6.1302,-21.13 9.4302,-31.61 z"
       id="path2931"
       inkscape:connector-curvature="0"
       style="fill:#b6c069;stroke:#b6c069;stroke-width:0.59399998" /><path
       d="m 6941.1087,874.55244 c 6.3601,2.37 12.99,3.96 19.45,6.08 0.4202,0.26 1.27,0.78 1.6902,1.04 -1.3401,4.99 -0.04,10.16 0.21,15.22 0.78,5.47 0.4099,11.09 1.6299,16.5 1.3801,0.53 2.78,0.88 4.27,1.37 l 0.23,0.11 c -0.1699,0.4301 -0.52,1.28 -0.6899,1.7001 -2.04,-0.3301 -4.0601,-0.8101 -6.02,-1.23 -1.3599,-1.16 -3.1599,-2.2001 -4.8,-1.0801 -0.52,-0.2999 -1.5598,-0.9 -2.0798,-1.2 1.1799,-0.6801 2.4099,-1.25 3.75,-1.72 0.96,0.2 2.8699,0.59 3.8198,0.7899 -0.77,-9.88 -1.3999,-19.75 -2.3398,-29.6 -0.5801,-1.46 -2.3801,-1.4399 -3.53,-2.01 -4.9102,-1.34 -9.6702,-3.4399 -14.78,-3.78 -2.24,9.11 -5.5801,17.91 -7.77,27.03 3.3201,0.9301 6.7,1.9 9.71,3.7 l 0.3901,1.8301 c -1.8701,-0.12 -3.6902,-0.27 -5.48,-0.39 -0.1602,-0.13 -0.4802,-0.39 -0.6401,-0.52 -1.8201,-1.04 -3.8,-1.67 -5.74,-2.2 1.4195,-10.88 6.0096,-21.05 8.7196,-31.64 z"
       id="path2935"
       inkscape:connector-curvature="0"
       style="fill:#8fa170;stroke:#8fa170;stroke-width:0.59399998" /><path
       d="m 6960.5586,880.63244 c 2.1201,0.35 4.27,0.6901 6.4502,0.99 l -0.1201,0.25 c -1.0801,2.77 -0.47,5.77 -0.3301,8.65 0.8301,8.0601 1.27,16.15 1.8,24.24 -1.49,-0.49 -2.8899,-0.84 -4.27,-1.37 -1.22,-5.41 -0.8499,-11.03 -1.6299,-16.5 -0.25,-5.0599 -1.55,-10.23 -0.21,-15.22 -0.4201,-0.26 -1.2699,-0.78 -1.6901,-1.04 z"
       id="path2955"
       inkscape:connector-curvature="0"
       style="fill:#547921;stroke:#547921;stroke-width:0.59399998" /><path
       d="m 7022.8386,890.53244 c 10.22,-0.75 19.54,-5.3199 28.5701,-9.8101 -0.1899,0.4301 -0.5801,1.28 -0.77,1.7101 -0.25,0.2 -0.74,0.6 -0.99,0.7999 -4.26,1.3401 -7.8999,3.91 -11.6799,6.16 -6.6702,2.79 -13.8901,4.61 -21.1401,4.5601 0.09,3.58 0.21,7.1699 0.3301,10.7799 -1.27,-3.83 -1.04,-7.9399 -0.6599,-11.87 0.9899,-2.4599 4.1998,-1.7999 6.3397,-2.3299 z"
       id="path2957"
       inkscape:connector-curvature="0"
       style="fill:#766421;stroke:#766421;stroke-width:0.59399998" /><path
       d="m 6966.5586,890.52244 c -0.1399,-2.88 -0.75,-5.88 0.3301,-8.65 1.4199,2.42 1.3501,5.28 1.5701,8.02 0.6899,8.9301 1.25,17.86 2.1199,26.78 -0.6699,-0.02 -2.01,-0.07 -2.6799,-0.1 0.1699,-0.42 0.52,-1.27 0.6899,-1.7001 l -0.23,-0.11 c -0.5301,-8.0899 -0.97,-16.1799 -1.8001,-24.2399 z"
       id="path2963"
       inkscape:connector-curvature="0"
       style="fill:#a1a346;stroke:#a1a346;stroke-width:0.59399998" /><path
       d="m 6865.8286,883.28244 c 3.4202,0.1801 6.7,1.95 10.0601,2.85 -3.6001,0.3 -7.1499,-0.2999 -10.71,-0.4 -0.1301,0.4701 -0.4001,1.42 -0.53,1.89 -2.4299,9.37 -5.3701,18.6 -8.28,27.8401 -0.4299,1.4199 -0.8401,2.84 -1.1399,4.3199 l -0.9202,-0.05 c -0.3298,0.07 -1,0.2201 -1.3298,0.29 1.47,-8.2 4.6699,-15.97 6.6699,-24.05 1.4099,-4.47 2.2,-9.66 6.1799,-12.69 z"
       id="path2967"
       inkscape:connector-curvature="0"
       style="fill:#b5d36b;stroke:#b5d36b;stroke-width:0.59399998" /><path
       d="m 7037.9688,889.39244 c 3.78,-2.25 7.4199,-4.8199 11.6799,-6.16 -0.79,1.8401 -2.8301,2.52 -4.3501,3.5601 -7.5598,4.65 -16.22,7.54 -25.0698,8.22 -0.03,5.1801 0.1499,10.37 0.8699,15.52 0.21,6.72 0.47,13.45 1.3201,20.13 -4.8501,-3.01 -1.21,-9.3101 -3.95,-13.38 -1.1001,-4.11 -0.77,-8.39 -1.3101,-12.55 -0.1201,-3.61 -0.24,-7.2 -0.3301,-10.7799 7.25,0.05 14.47,-1.7702 21.1402,-4.5602 z"
       id="path2969"
       inkscape:connector-curvature="0"
       style="fill:#92b24b;stroke:#92b24b;stroke-width:0.59399998" /><path
       d="m 6865.1787,885.73244 c 3.5601,0.1001 7.1099,0.7001 10.71,0.4 l 0.7,-0.03 c 1.4202,0.67 2.8301,1.3601 4.3101,2.0701 -0.02,0.66 -0.06,1.98 -0.08,2.64 1.1101,-0.49 2.1501,-1.2101 2.76,-2.3301 -0.07,0.7101 -0.22,2.1101 -0.29,2.8201 -6.6299,2.9 -12.2698,-2.9501 -18.6399,-3.6801 0.1298,-0.47 0.3998,-1.42 0.5299,-1.89 z"
       id="path2971"
       inkscape:connector-curvature="0"
       style="fill:#849137;stroke:#849137;stroke-width:0.59399998" /><path
       d="m 6938.1287,908.39244 c 0.1599,0.13 0.48,0.39 0.6401,0.52 l -0.4402,-0.01 -0.1999,-0.51 z"
       id="path3007"
       inkscape:connector-curvature="0"
       style="fill:#7f9540;stroke:#7f9540;stroke-width:0.59399998" /><path
       d="m 6943.8587,907.47234 c 2.25,1.1001 4.6101,2.15 7.1602,2.5 -3.6501,2.8701 -4.1301,7.64 -5.5801,11.7401 -2.3301,7.3099 -3.8701,14.8999 -6.8401,22.0099 -0.4099,0.7401 -0.8,1.4901 -1.1699,2.25 l -0.9099,-1.34 c 2.7898,-11.47 6.8198,-22.62 10.1699,-33.9399 -0.53,-0.11 -1.5901,-0.3301 -2.1201,-0.4401 -0.08,-0.24 -0.24,-0.71 -0.3198,-0.95 l -0.3902,-1.83 z"
       id="path3009"
       inkscape:connector-curvature="0"
       style="fill:#b0bf6c;stroke:#b0bf6c;stroke-width:0.59399998" /><path
       d="m 6951.0188,909.97234 c 2.6199,0.02 5.1699,0.6801 7.73,1.3701 -1.3401,0.47 -2.5701,1.0399 -3.75,1.72 -3.4202,11.4399 -7.5601,22.71 -10.4001,34.3199 0.29,0.4 0.8901,1.2001 1.1799,1.6 0.3,0.37 0.8801,1.12 1.1802,1.49 -2.71,-0.2999 -5.3801,-1.33 -7.23,-3.33 -0.46,-1.13 -0.8701,-2.2999 -1.1301,-3.42 2.97,-7.11 4.51,-14.7 6.8401,-22.0099 1.4499,-4.1 1.9299,-8.8699 5.58,-11.7401 z"
       id="path3013"
       inkscape:connector-curvature="0"
       style="fill:#5a8122;stroke:#5a8122;stroke-width:0.59399998" /><path
       d="m 6938.6787,910.67244 c 1.8599,-0.87 3.8101,-0.71 5.8899,-0.42 0.53,0.11 1.5901,0.3301 2.1201,0.4401 -3.3501,11.3199 -7.3801,22.47 -10.1699,33.9399 -27.01,-8.5499 -54.2102,-16.51 -81.29,-24.85 0.2998,-1.48 0.71,-2.9 1.1399,-4.3199 0.3701,1.5199 0.52,3.7799 2.5801,4.0099 17.01,5.4801 34.23,10.28 51.26,15.75 8.48,2.2001 16.6599,5.55 25.29,7.2201 3.1099,-9.8301 6.3699,-19.61 9.0698,-29.55 -2.01,-0.7001 -4,-1.43 -5.8899,-2.2201 z"
       id="path3019"
       inkscape:connector-curvature="0"
       style="fill:#a55b2f;stroke:#a55b2f;stroke-width:0.59399998" /><path
       d="m 6954.9988,913.06244 c 0.52,0.2999 1.5598,0.9 2.0798,1.2 l -0.1399,0.53 c -2.2,7.23 -4.6602,14.39 -6.3801,21.75 -0.1499,0.41 -0.4399,1.23 -0.5898,1.63 -1.28,3.0599 -2.05,6.28 -2.9402,9.47 -0.3098,0.33 -0.9399,1 -1.25,1.34 -0.2898,-0.3999 -0.8899,-1.2 -1.1799,-1.6 2.84,-11.61 6.9799,-22.88 10.4001,-34.32 z"
       id="path3025"
       inkscape:connector-curvature="0"
       style="fill:#acd067;stroke:#acd067;stroke-width:0.59399998" /><path
       d="m 6957.0786,914.26244 c 1.6401,-1.12 3.4402,-0.08 4.8,1.0801 -1.6799,0.33 -3.6001,0.61 -4.9399,-0.55 l 0.1399,-0.5301 z"
       id="path3027"
       inkscape:connector-curvature="0"
       style="fill:#768d34;stroke:#768d34;stroke-width:0.59399998" /><path
       d="m 7018.4688,917.28244 c 2.74,4.0699 -0.9001,10.37 3.95,13.38 5.3799,2.12 11.8501,2.3199 16.24,6.47 l -0.8601,0.65 c -3.4399,0.84 -6.49,-1.4399 -9.8398,-1.62 -3.1802,-0.23 -6.5801,-1.3199 -8.5,-3.97 -1.4501,-4.83 -1.0202,-9.95 -0.9901,-14.91 z"
       id="path3045"
       inkscape:connector-curvature="0"
       style="fill:#94ae66;stroke:#94ae66;stroke-width:0.59399998" /><path
       d="m 6852.9788,920.02244 c 0.3298,-0.07 1,-0.22 1.3298,-0.29 0.24,0.77 -0.4299,2.3 0.8,2.4801 25.0601,7.72 50.2,15.23 75.27,22.9299 2.27,0.4501 4.8201,2.41 7.05,0.83 0.3699,-0.7599 0.76,-1.5099 1.1699,-2.25 0.26,1.1201 0.6702,2.29 1.1301,3.42 -3.77,1.8201 -7.47,-0.45 -11.0801,-1.4 -23,-7.02 -46.01,-13.99 -69,-21 -3.1299,-0.96 -6.3799,-1.61 -9.1399,-3.38 0.6201,-0.33 1.8501,-1.0101 2.4702,-1.34 z"
       id="path3053"
       inkscape:connector-curvature="0"
       style="fill:#9ab07c;stroke:#9ab07c;stroke-width:0.59399998" /><path
       d="m 6854.3086,919.73244 0.9202,0.05 c 27.0798,8.34 54.28,16.3 81.29,24.85 l 0.9099,1.34 c -2.23,1.5801 -4.78,-0.3799 -7.05,-0.83 -25.0701,-7.7 -50.21,-15.21 -75.27,-22.9299 -1.23,-0.1801 -0.5601,-1.7101 -0.8001,-2.4801 z"
       id="path3055"
       inkscape:connector-curvature="0"
       style="fill:#535d1d;stroke:#535d1d;stroke-width:0.59399998" /><path
       d="m 6838.3887,928.54244 c 0.9099,-0.72 1.95,-1.38 2.97,-2.04 0.52,0.1901 1.54,0.5801 2.05,0.77 1.6299,3.42 6.01,3.3 9.1399,4.52 30.9102,9.42 61.8301,18.8 92.7202,28.3099 1.3999,0.6001 2.8699,0.08 4.25,-0.5 1.4099,0.4 2.8499,0.79 4.3298,1.2301 -0.49,0.3199 -1.47,0.97 -1.97,1.2899 25.4399,7.51 50.77,15.39 76.1499,23.05 1.3901,0.25 2.8301,-0.22 4.3,-0.34 0.3101,-0.04 0.9302,-0.1101 1.24,-0.15 -0.48,0.5699 -0.9299,1.15 -1.3499,1.74 2.5,0.6 5.01,1.1 7.5898,1.5599 -0.1199,0.3501 -0.3699,1.05 -0.5,1.4 0.3901,0.25 1.1702,0.76 1.5701,1.01 -7.74,-1.34 -15.0601,-4.3099 -22.6001,-6.36 -60.1499,-18.29 -120.2898,-36.59 -180.4399,-54.87 l -0.23,-0.07 0.7802,-0.5499 z"
       id="path3065"
       inkscape:connector-curvature="0"
       style="fill:#89a257;stroke:#89a257;stroke-width:0.59399998" /><path
       d="m 6843.4087,927.27244 c 35.4099,10.66 70.77,21.46 106.1101,32.33 -1.3801,0.5801 -2.8501,1.1001 -4.25,0.5 -30.8901,-9.5099 -61.8101,-18.8899 -92.7202,-28.3099 -3.1299,-1.2201 -7.51,-1.1001 -9.1399,-4.5201 z"
       id="path3069"
       inkscape:connector-curvature="0"
       style="fill:#849269;stroke:#849269;stroke-width:0.59399998" /><path
       d="m 6951.8787,962.12244 c 0.5,-0.3199 1.48,-0.97 1.97,-1.2899 26.1702,7.97 52.3801,15.7999 78.48,24 -1.47,0.12 -2.9099,0.59 -4.3,0.34 -25.38,-7.6601 -50.7101,-15.5401 -76.15,-23.0501 z"
       id="path3071"
       inkscape:connector-curvature="0"
       style="fill:#849269;stroke:#849269;stroke-width:0.59399998" /><path
       d="m 6837.8386,929.16244 c 60.1501,18.28 120.29,36.58 180.4399,54.87 7.54,2.05 14.8601,5.02 22.6001,6.36 l 0.78,0.1801 c 2.03,-6.4401 3.9199,-12.92 5.9399,-19.36 -0.1599,5.63 -2.54,10.86 -4.1299,16.1899 -0.6702,1.51 -0.8501,3.33 -1.9202,4.62 -4.1599,1.21 -7.76,-1.7 -11.6099,-2.61 -61.6301,-18.96 -123.3501,-37.5 -185,-56.37 -2.4998,-0.8201 -6.1499,-0.99 -7.0999,-3.88 z"
       id="path3075"
       inkscape:connector-curvature="0"
       style="fill:#7a6223;stroke:#7a6223;stroke-width:0.59399998" /><path
       d="m 6947.0286,947.64244 c 0.8901,-3.1899 1.6602,-6.41 2.9402,-9.47 0.09,2.63 -0.4302,5.23 -1.48,7.66 2.1199,1.99 5,2.63 7.76,3.38 23.25,7.0299 46.48,14.1599 69.75,21.1499 1.8999,0.91 3.6299,-0.4399 5.1899,-1.45 -0.1899,0.65 -0.5801,1.9399 -0.78,2.59 -0.09,0.3401 -0.27,1.02 -0.3601,1.36 -21.73,-6.1499 -43.23,-13.08 -64.8699,-19.5399 -6.08,-1.83 -12.1599,-3.64 -18.1501,-5.68 z"
       id="path3091"
       inkscape:connector-curvature="0"
       style="fill:#a05a2e;stroke:#a05a2e;stroke-width:0.59399998" /><path
       d="m 7039.5886,940.16244 c 0.4399,0.34 1.3301,1.03 1.77,1.38 -2.5898,8.72 -5.29,17.42 -7.8699,26.15 -0.75,1.86 -0.6902,4.46 -2.6602,5.5499 l -0.4199,-1.74 c 0.2,-0.65 0.5901,-1.9399 0.78,-2.59 2.7802,-9.5899 6.39,-18.9799 8.4,-28.7499 z"
       id="path3099"
       inkscape:connector-curvature="0"
       style="fill:#c8c371;stroke:#c8c371;stroke-width:0.59399998" /><path
       d="m 6792.2886,948.64244 c 0.24,-0.5499 0.7202,-1.65 0.9602,-2.2 -0.2202,4.71 3.99,7.5 7.3499,9.97 3.6001,2.85 8.3701,3.3 12.6101,4.8 74.3599,22.6699 148.75,45.19996 223.0999,67.89986 9.73,2.7101 19.3601,7.13 29.7102,5.8201 -3.29,1.9299 -7.2202,2.9299 -10.9702,2.13 -13.5698,-3.74 -26.7998,-8.8301 -40.5498,-11.79 -0.76,-0.1799 -1.4702,-0.34 -2.1401,-0.47 -3.8398,-2.22 -8.22,-3.0601 -12.3699,-4.39 -64.4102,-19.54 -128.77,-39.20996 -193.1802,-58.71996 -3.8499,-0.9701 -7.4199,-2.6801 -11.1499,-3.91 -0.7,-3.2 -2.14,-6.15 -3.3702,-9.14 z"
       id="path3111"
       inkscape:connector-curvature="0"
       style="fill:#4f661b;stroke:#4f661b;stroke-width:0.59399998" /><path
       d="m 6947.0286,947.64244 c 5.9902,2.04 12.0701,3.85 18.1501,5.6801 21.6399,6.46 43.1399,13.39 64.8699,19.5399 -0.01,0.55 -0.04,1.64 -0.05,2.1801 -10.26,-2.17 -19.9102,-6.65 -30.26,-8.34 -17.54,-4.9401 -34.8901,-10.5901 -52.3801,-15.7101 l -0.3999,-0.52 c -0.3,-0.37 -0.8801,-1.12 -1.1802,-1.49 0.31,-0.34 0.9402,-1.0101 1.25,-1.34 z"
       id="path3113"
       inkscape:connector-curvature="0"
       style="fill:#475f1c;stroke:#475f1c;stroke-width:0.59399998" /><path
       d="m 6795.6587,957.78244 c 3.73,1.23 7.3,2.9399 11.1499,3.91 64.4102,19.51 128.77,39.17986 193.1802,58.71996 4.1499,1.33 8.53,2.17 12.3699,4.39 -2.97,-0.41 -5.8499,-1.12 -8.6399,-2.0701 -66.22,-20.1799 -132.47,-40.26986 -198.7,-60.37996 -3.31,-1.0999 -7.0901,-1.6899 -9.3601,-4.5699 z"
       id="path3131"
       inkscape:connector-curvature="0"
       style="fill:#a5ba88;stroke:#a5ba88;stroke-width:0.59399998" /></g></svg>