<?xml version="1.0" encoding="UTF-8" standalone="no"?>
<svg
   xmlns:dc="http://purl.org/dc/elements/1.1/"
   xmlns:cc="http://creativecommons.org/ns#"
   xmlns:rdf="http://www.w3.org/1999/02/22-rdf-syntax-ns#"
   xmlns:svg="http://www.w3.org/2000/svg"
   xmlns="http://www.w3.org/2000/svg"
   height="64"
   width="64"
   xml:space="preserve"
   enable-background="new 0 0 3508 2480"
   viewBox="0 0 63.999999 63.999999"
   y="0px"
   x="0px"
   id="Layer_1"
   version="1.1"><metadata
     id="metadata4083">
    <rdf:RDF>
      <cc:Work
   rdf:about="">
        <dc:format>image/svg+xml</dc:format>
        <dc:type
   rdf:resource="http://purl.org/dc/dcmitype/StillImage" />
        <dc:title></dc:title>
        <dc:date>2020</dc:date>
        <dc:creator>
          <cc:Agent>
            <dc:title>Timothée Giet</dc:title>
          </cc:Agent>
        </dc:creator>
        <cc:license
   rdf:resource="http://creativecommons.org/licenses/by-sa/4.0/" />
      </cc:Work>
      
    <cc:License
   rdf:about="http://creativecommons.org/licenses/by-sa/4.0/"><cc:permits
     rdf:resource="http://creativecommons.org/ns#Reproduction" /><cc:permits
     rdf:resource="http://creativecommons.org/ns#Distribution" /><cc:requires
     rdf:resource="http://creativecommons.org/ns#Notice" /><cc:requires
     rdf:resource="http://creativecommons.org/ns#Attribution" /><cc:permits
     rdf:resource="http://creativecommons.org/ns#DerivativeWorks" /><cc:requires
     rdf:resource="http://creativecommons.org/ns#ShareAlike" /></cc:License></rdf:RDF>
        </metadata><defs
     id="defs4081" /><g
     transform="matrix(0.95238095,0,0,0.95238095,1.5238096,1.5238096)"
     id="g1274"><path
       style="color:#000000;clip-rule:nonzero;display:inline;overflow:visible;visibility:visible;opacity:1;isolation:auto;mix-blend-mode:normal;color-interpolation:sRGB;color-interpolation-filters:linearRGB;solid-color:#000000;solid-opacity:1;fill:#1bd0d2;fill-opacity:1;fill-rule:evenodd;stroke:#279fa1;stroke-width:1;stroke-linecap:square;stroke-linejoin:miter;stroke-miterlimit:4;stroke-dasharray:none;stroke-dashoffset:0;stroke-opacity:1;marker:none;color-rendering:auto;image-rendering:auto;shape-rendering:auto;text-rendering:auto;enable-background:accumulate"
       d="M 9,1 C 4.568,1 1,4.568 1,9 v 46 c 0,4.432 3.568,8 8,8 h 46 c 4.432,0 8,-3.568 8,-8 V 9 C 63,4.568 59.432,1 55,1 Z m 6,8 h 35 c 2.77,0 5,2.23 5,5 v 35 c 0,2.77 -2.23,5 -5,5 H 15 c -2.77,0 -5,-2.23 -5,-5 V 14 c 0,-2.77 2.23,-5 5,-5 z"
       id="rect4193" /><g
       style="font-style:normal;font-variant:normal;font-weight:normal;font-stretch:normal;font-size:40px;line-height:125%;font-family:Kabel;-inkscape-font-specification:Kabel;letter-spacing:0px;word-spacing:0px;fill:#1bd0d2;fill-opacity:1;stroke:#279fa1;stroke-width:1px;stroke-linecap:butt;stroke-linejoin:miter;stroke-opacity:1"
       id="text4261"><path
         d="M 36.521484,33.723633 45.4375,45.920898 36.921875,48.557617 27.078125,33.479492 V 47.717773 L 18.5625,48.196289 V 15.442383 h 10 q 12.597656,0 13.203125,9.394531 0.03906,0.400391 0.03906,0.761719 0,5.205078 -5.283203,8.125 z m -9.443359,-3.359375 h 1.884766 q 2.197265,0 3.359375,-1.367188 1.083984,-1.240234 1.083984,-2.841797 0,-0.117187 0,-0.234375 -0.166016,-4.199218 -4.609375,-4.199218 h -1.71875 z"
         style="fill:#1bd0d2;fill-opacity:1;stroke:#279fa1;stroke-opacity:1"
         id="path5624" /></g></g></svg>