<svg xmlns:dc="http://purl.org/dc/elements/1.1/" xmlns:cc="http://creativecommons.org/ns#" xmlns:rdf="http://www.w3.org/1999/02/22-rdf-syntax-ns#" xmlns="http://www.w3.org/2000/svg" height="64" width="64" xml:space="preserve" viewBox="0 0 63.999999 63.999999" y="0px" x="0px"><metadata><rdf:RDF><cc:Work><dc:format>image/svg+xml</dc:format><dc:type rdf:resource="http://purl.org/dc/dcmitype/StillImage"/><dc:title/><dc:date>2020</dc:date><dc:creator><cc:Agent><dc:title>Timothée Giet</dc:title></cc:Agent></dc:creator><cc:license rdf:resource="http://creativecommons.org/licenses/by-sa/4.0/"/></cc:Work><cc:License rdf:about="http://creativecommons.org/licenses/by-sa/4.0/"><cc:permits rdf:resource="http://creativecommons.org/ns#Reproduction"/><cc:permits rdf:resource="http://creativecommons.org/ns#Distribution"/><cc:requires rdf:resource="http://creativecommons.org/ns#Notice"/><cc:requires rdf:resource="http://creativecommons.org/ns#Attribution"/><cc:permits rdf:resource="http://creativecommons.org/ns#DerivativeWorks"/><cc:requires rdf:resource="http://creativecommons.org/ns#ShareAlike"/></cc:License></rdf:RDF></metadata><path style="color:#000;clip-rule:nonzero;display:inline;overflow:visible;visibility:visible;opacity:1;isolation:auto;mix-blend-mode:normal;color-interpolation:sRGB;color-interpolation-filters:linearRGB;solid-color:#000;solid-opacity:1;fill:#1b8bd2;fill-opacity:1;fill-rule:evenodd;stroke:#2c6f99;stroke-width:1;stroke-linecap:square;stroke-linejoin:miter;stroke-miterlimit:4;stroke-dasharray:none;stroke-dashoffset:0;stroke-opacity:1;marker:none;color-rendering:auto;image-rendering:auto;shape-rendering:auto;text-rendering:auto;enable-background:accumulate" d="M9 1C4.568 1 1 4.568 1 9v46c0 4.432 3.568 8 8 8h46c4.432 0 8-3.568 8-8V9c0-4.432-3.568-8-8-8zm6 8h35c2.77 0 5 2.23 5 5v35c0 2.77-2.23 5-5 5H15c-2.77 0-5-2.23-5-5V14c0-2.77 2.23-5 5-5z" transform="translate(1.524 1.524) scale(.95238)"/><g style="font-style:normal;font-variant:normal;font-weight:400;font-stretch:normal;font-size:40px;line-height:125%;font-family:Kabel;-inkscape-font-specification:Kabel;letter-spacing:0;word-spacing:0;fill:#1b8bd2;fill-opacity:1;stroke:#2c6f99;stroke-width:1px;stroke-linecap:butt;stroke-linejoin:miter;stroke-opacity:1"><path d="m43.484 19.3-4.765 5.722q0-.205-.596-.84-.644-.605-1.885-1.161-1.24-.557-2.998-.606h-.283q-.996 0-1.836.488-.957.596-1.084 1.64-.039.157-.039.313 0 .967.762 1.563.879.723 2.363 1.123 1.436.44 2.842.84 4.16 1.24 5.918 3.72 1.719 2.52 1.836 6.436v.479q0 2.685-1.319 4.843-1.484 2.364-4.12 3.682-2.676 1.318-6.202 1.436h-.234q-2.881 0-5.323-.918-2.597-.918-4.238-1.993-1.64-1.084-2.002-1.445l5-6.006q.684.762 2.364 1.846 1.396.918 3.232.918.4 0 .8-.04 1.72-.165 2.677-.683.966-.517 1.005-2.04v-.079q0-1.162-1.2-1.797-1.28-.683-3.721-1.406-2.481-.674-3.282-1.113-1.474-.84-2.676-1.885-1.2-.996-2.04-2.793-.84-1.68-.84-4.209v-.234q.039-2.764 1.523-5.079 1.475-2.324 3.916-3.642 2.402-1.28 5.283-1.358h.235q6.64 0 10.927 4.278z" style="fill:#1b8bd2;fill-opacity:1;stroke:#2c6f99;stroke-opacity:1" transform="translate(1.524 1.524) scale(.95238)"/></g></svg>