<?xml version="1.0" encoding="UTF-8" standalone="no"?>
<svg
   xmlns:dc="http://purl.org/dc/elements/1.1/"
   xmlns:cc="http://creativecommons.org/ns#"
   xmlns:rdf="http://www.w3.org/1999/02/22-rdf-syntax-ns#"
   xmlns:svg="http://www.w3.org/2000/svg"
   xmlns="http://www.w3.org/2000/svg"
   xmlns:sodipodi="http://sodipodi.sourceforge.net/DTD/sodipodi-0.dtd"
   xmlns:inkscape="http://www.inkscape.org/namespaces/inkscape"
   version="1.1"
   id="Layer_1"
   x="0px"
   y="0px"
   viewBox="0 0 40 40.258446"
   enable-background="new 0 0 3508 2480"
   xml:space="preserve"
   inkscape:version="0.91 r13725"
   sodipodi:docname="v.svg"
   width="40"
   height="40.258446"><metadata
     id="metadata4083"><rdf:RDF><cc:Work
         rdf:about=""><dc:format>image/svg+xml</dc:format><dc:type
           rdf:resource="http://purl.org/dc/dcmitype/StillImage" /><dc:title></dc:title></cc:Work></rdf:RDF></metadata><defs
     id="defs4081" /><sodipodi:namedview
     pagecolor="#ffffff"
     bordercolor="#666666"
     borderopacity="1"
     objecttolerance="10"
     gridtolerance="10"
     guidetolerance="10"
     inkscape:pageopacity="0"
     inkscape:pageshadow="2"
     inkscape:window-width="1623"
     inkscape:window-height="1029"
     id="namedview4079"
     showgrid="false"
     showguides="false"
     inkscape:zoom="16.770606"
     inkscape:cx="13.660247"
     inkscape:cy="19.866172"
     inkscape:window-x="57"
     inkscape:window-y="21"
     inkscape:window-maximized="1"
     inkscape:current-layer="Layer_1"
     fit-margin-top="0"
     fit-margin-left="0"
     fit-margin-right="0"
     fit-margin-bottom="0" /><g
     id="g12673"
     transform="matrix(0.12967206,-0.03902684,0.03902684,0.12967206,-723.68295,52.81529)"><path
       d="m 5233.2449,1176.9106 c 3.1799,-1.9301 7.21,-2.4 10.73,-1.11 -1.46,0.2899 -2.84,0.7 -4.25,1.09 15.53,5.36 31.42,9.65 47.1,14.5599 69.42,20.8601 138.84,41.7401 208.22,62.7201 1.51,0.5 3.15,0.74 4.4,-0.54 0.87,0.4 1.77,0.83 2.71,1.27 0.3201,-0.17 0.9701,-0.5 1.3,-0.67 0.4301,-0.53 0.87,-1.0399 1.33,-1.53 0.8401,1.1001 1.62,2.26 2.2301,3.5801 0.21,3.75 0.11,7.54 -0.63,11.26 -0.89,-3.11 -1.77,-6.23 -3.29,-9.0701 0.23,2.9401 1.1899,5.9501 0.39,8.91 -13.78,45.8199 -27.59,91.64 -41.42,137.46 -12.11,39.6 -23.58,79.42 -36.0599,118.9 0.72,0.8301 1.4399,1.72 2.1499,2.6499 -1.9299,1.9001 -4.2,3.4802 -6.7,4.52 -0.08,-0.96 -0.14,-1.8999 -0.1799,-2.7998 -4.54,1.45 -9.15,-0.4202 -13.5701,-1.4102 -77.63,-23.3599 -155.26,-46.76 -232.89,-70.1199 -7.58,-2.3901 -15.6699,-4.01 -22.1699,-8.8401 1.11,4.98 6.2999,6.54 10.2899,8.6301 -7.08,-0.5901 -13.62,-6.2002 -14.1599,-13.4802 1.45,-1.7998 2.73,-3.7598 3.3999,-5.97 25.15,-83.4799 50.29,-166.96 75.48,-250.4299 1.3499,-3.3999 1.9099,-7.8499 5.5899,-9.5799 m 23.9099,42.75 c 0.05,0.39 0.14,1.1899 0.1801,1.59 -1.58,-0.02 -1.91,1.42 -2.25,2.6801 -20.01,66.4399 -39.96,132.8999 -60.1,199.3099 0.71,0.1301 2.12,0.3801 2.83,0.5 -1.1799,0.1499 -2.15,0.8401 -3.14,1.3901 22.49,7.24 45.27,13.5598 67.79,20.71 45.42,13.3799 90.65,27.3899 136.05,40.79 -0.08,-0.6501 -0.25,-1.9402 -0.3401,-2.5801 0.3201,0.1099 0.9501,0.3301 1.26,0.4399 20.48,-67.01 40.42,-134.2 60.8,-201.25 -0.39,-0.08 -1.17,-0.25 -1.5601,-0.33 0.23,-0.54 0.6901,-1.62 0.92,-2.15 -17.03,-5.55 -34.28,-10.35 -51.36,-15.71 -50.4098,-14.9399 -100.6598,-30.4499 -151.0799,-45.3899 z"
       id="path221"
       inkscape:connector-curvature="0"
       style="fill:#74a236;stroke:#74a236;stroke-width:0.59399998" /><path
       d="m 5266.9048,1237.2506 c 14.6201,3.52 28.66,9.0701 43.27,12.66 7.5,2.2 14.8101,5.0699 22.49,6.6699 0.12,0.3101 0.37,0.9401 0.49,1.26 -3.5199,8.65 -5.5,17.8201 -8.49,26.66 -3.1799,-1.23 -6.46,-2.1799 -9.7899,-2.83 -0.07,0.23 -0.2101,0.7 -0.28,0.9399 -1.33,3.85 -0.15,7.9501 -0.3199,11.92 0.11,23.6899 -0.01,47.37 0.2899,71.0599 -0.03,1.53 0.4401,3.04 0.88,4.55 3.27,-4.34 6.42,-8.77 9.1901,-13.4401 12.76,-19.49 26.33,-38.46 39.12,-57.9299 -0.55,-0.14 -1.66,-0.41 -2.2101,-0.55 1.1801,-0.2799 2.38,-0.58 3.5901,-0.89 -4.62,-3.1 -10.52,-3.6 -15.76,-5.21 1.72,-2.29 2.1,-5.22 2.98,-7.86 1.64,-5.76 3.47,-11.46 5.0699,-17.22 5.4401,0.2 10.26,2.9099 15.4701,4.1799 14.8999,4.51 29.8999,8.67 44.6899,13.54 7.61,1.7 14.8199,4.84 22.45,6.48 -2.12,8.89 -5.5699,17.4401 -7.3999,26.4 -1.9701,-1.72 -4.62,-2.12 -6.99,-2.92 -2.39,-0.5699 -4.9901,-2.1 -7.3301,-0.61 -6.28,8.0801 -12.5399,16.16 -18.5699,24.42 -4.37,4.75 -7.48,10.46 -11.74,15.29 -21.2001,28.12 -42.8,55.9099 -63.9401,84.0698 -1.8199,2.54 -4.28,4.6301 -5.61,7.51 -13.17,-3.5298 -26.0599,-8 -39.23,-11.46 -0.8,-54.11 -2.74,-108.21 -4.02,-162.2899 0.03,-0.49 0.09,-1.47 0.12,-1.96 -4.53,-1.4801 -9.08,-2.91 -13.65,-4.2101 -1.38,-0.9099 -2.22,0.62 -2.95,1.4601 0.52,0.34 1.55,1.0299 2.0699,1.37 -1.14,-0.14 -2.26,-0.26 -3.36,-0.37 -0.1799,-0.4901 -0.5499,-1.4801 -0.74,-1.9801 0.6,-0.2799 1.8101,-0.84 2.42,-1.12 2.4901,-9.2194 6.2001,-18.1594 7.79,-27.5894 z"
       id="path225"
       inkscape:connector-curvature="0"
       style="fill:#74a236;stroke:#74a236;stroke-width:0.59399998" /><path
       d="m 5355.1548,1265.1506 c -0.06,2.23 -0.62,4.4 -1.3799,6.51 -1.4301,3.89 -2.1001,8.02 -3.63,11.89 -0.2201,0.1499 -0.67,0.46 -0.89,0.61 1.83,-6.38 3.55,-12.8 5.8999,-19.01 z"
       id="path227"
       inkscape:connector-curvature="0"
       style="fill:#74a236;stroke:#74a236;stroke-width:0.59399998" /><path
       d="m 5238.3649,1172.5805 c 6.45,-2.0499 12.71,1.02 18.83,2.76 18.67,5.62 37.35,11.24 56.03,16.88 60.2,18.12 120.36,36.3201 180.5699,54.38 4.2001,0.88 8.15,2.78 10.99,6.1 -0.46,0.4901 -0.8999,1 -1.33,1.53 -5.23,-4.13 -11.87,-5.46 -18.08,-7.38 -79.6,-23.99 -159.2201,-47.95 -238.8,-71.98 -2.7299,-0.9099 -5.8399,-0.5299 -8.2099,-2.29 z"
       id="path3303"
       inkscape:connector-curvature="0"
       style="fill:#222b11;stroke:#222b11;stroke-width:0.59399998" /><path
       d="m 5225.0849,1183.8305 c 1.83,-6.0399 7.7,-9.2999 13.28,-11.25 2.37,1.76 5.48,1.38 8.21,2.29 79.58,24.03 159.2001,47.99 238.8,71.98 6.21,1.92 12.85,3.25 18.08,7.38 -0.33,0.17 -0.98,0.5 -1.3,0.67 -0.9399,-0.4401 -1.84,-0.87 -2.71,-1.27 -9.51,-4.21 -19.78,-6.36 -29.63,-9.58 -52.4399,-15.8301 -104.89,-31.6001 -157.33,-47.41 -22.8,-7.0601 -45.8,-13.51 -68.51,-20.84 -3.52,-1.29 -7.55,-0.8201 -10.73,1.11 -3.6801,1.73 -4.24,6.1799 -5.5901,9.58 -25.1899,83.47 -50.33,166.9501 -75.48,250.4299 -0.6699,2.2102 -1.95,4.1702 -3.3999,5.97 -0.4401,-2.0999 -0.5901,-4.2598 0.09,-6.2898 19.6799,-65.55 39.59,-131.04 59.13,-196.6401 5.85,-18.6599 11.26,-37.4699 17.09,-56.13 z"
       id="path3305"
       inkscape:connector-curvature="0"
       style="fill:#a9cc74;stroke:#a9cc74;stroke-width:0.59399998" /><path
       d="m 5239.7249,1176.8906 c 1.41,-0.39 2.79,-0.8 4.25,-1.09 22.71,7.33 45.71,13.7799 68.51,20.84 52.4399,15.8099 104.89,31.58 157.33,47.41 9.85,3.22 20.12,5.37 29.63,9.58 -1.25,1.28 -2.89,1.04 -4.4,0.54 -69.38,-20.98 -138.7999,-41.86 -208.22,-62.7201 -15.6799,-4.9099 -31.57,-9.1999 -47.1,-14.5599 z"
       id="path3307"
       inkscape:connector-curvature="0"
       style="fill:#5b8023;stroke:#5b8023;stroke-width:0.59399998" /><path
       d="m 5257.1548,1219.6606 c 50.42,14.9399 100.67,30.45 151.0801,45.39 17.08,5.36 34.33,10.1599 51.36,15.71 -0.23,0.53 -0.6901,1.61 -0.92,2.15 -1.5399,-0.36 -3.0399,-0.67 -4.5399,-0.98 -63.65,-19.55 -127.5,-38.49 -191.24,-57.77 -1.8101,-0.49 -3.63,-0.9501 -5.42,-1.35 -0.04,-0.39 -0.1,-1.17 -0.14,-1.5601 -0.04,-0.3999 -0.1301,-1.1999 -0.1802,-1.5899 z"
       id="path3335"
       inkscape:connector-curvature="0"
       style="fill:#3c5c11;stroke:#3c5c11;stroke-width:0.59399998" /><path
       d="m 5255.0849,1223.9306 c 0.34,-1.26 0.67,-2.7001 2.25,-2.6801 0.04,0.39 0.1,1.17 0.14,1.5601 -7.87,24.84 -15.01,49.9099 -22.7,74.8099 -10.9801,36.67 -22.1201,73.29 -33.0601,109.97 -1.52,4.88 -3.46,9.6801 -4.13,14.7999 0.41,0.04 1.24,0.1201 1.65,0.1702 66.27,19.48 132.28,39.9399 198.53,59.55 0.49,-1.6501 0.99,-3.3 1.5399,-4.8901 -1.2799,-0.52 -2.5,-0.99 -3.75,-1.4199 0.8301,0.02 2.4701,0.07 3.3,0.1 19.27,-63.9399 38.4399,-127.9099 57.78,-191.8298 -1.4601,-0.6101 -2.87,-1.1801 -4.3,-1.7001 0.45,-0.11 1.35,-0.33 1.8,-0.4399 1.5,0.3099 3,0.62 4.5399,0.98 0.39,0.08 1.17,0.25 1.5601,0.33 -20.38,67.05 -40.3201,134.24 -60.8,201.25 -0.3099,-0.1099 -0.9399,-0.3301 -1.26,-0.4399 -40.9299,-12.55 -81.97,-24.78 -122.97,-37.1301 -25.8,-7.7 -51.54,-15.6899 -77.39,-23.1799 -0.71,-0.1199 -2.12,-0.3699 -2.83,-0.5 20.1402,-66.4104 40.0902,-132.8703 60.1002,-199.3103 z"
       id="path3339"
       inkscape:connector-curvature="0"
       style="fill:#accf77;stroke:#accf77;stroke-width:0.59399998" /><path
       d="m 5234.775,1297.6206 c 7.6899,-24.9 14.83,-49.97 22.7,-74.8099 1.79,0.3999 3.61,0.86 5.42,1.35 -1.27,0.1699 -2.52,0.39 -3.7401,0.65 0.2101,0.4399 0.63,1.2999 0.8401,1.74 -2.62,7.9099 -4.65,16.01 -7.24,23.9399 -1.39,6.47 -4.3,12.5601 -5.01,19.17 -14.89,49.37 -29.85,98.72 -44.5901,148.13 -1.5099,1.4099 -2.7899,3.03 -3.9199,4.77 -0.41,-0.05 -1.24,-0.1301 -1.65,-0.1702 0.67,-5.1199 2.61,-9.9199 4.13,-14.7999 10.9398,-36.6799 22.0799,-73.2999 33.06,-109.9699 z"
       id="path3341"
       inkscape:connector-curvature="0"
       style="fill:#83b73b;stroke:#83b73b;stroke-width:0.59399998" /><path
       d="m 5259.1548,1224.8106 c 1.2201,-0.26 2.4701,-0.4801 3.7401,-0.65 63.74,19.28 127.59,38.22 191.24,57.77 -0.4501,0.11 -1.3501,0.33 -1.8,0.4399 -46.88,-13.86 -93.62,-28.1899 -140.4399,-42.21 -16.53,-5.16 -33.2301,-9.78 -49.6801,-15.17 -3.08,5.97 -4,12.75 -6.27,19.05 -3.02,8.45 -4.63,17.36 -8.2,25.62 0.71,-6.61 3.62,-12.7001 5.01,-19.17 2.59,-7.9299 4.62,-16.03 7.24,-23.9399 -0.2101,-0.44 -0.63,-1.3 -0.8401,-1.74 z"
       id="path3343"
       inkscape:connector-curvature="0"
       style="fill:#a9be8b;stroke:#a9be8b;stroke-width:0.59399998" /><path
       d="m 5270.3549,1232.9906 c 21.88,6.26 43.6,13.12 65.4399,19.5601 1.4601,0.27 2.5701,1.02 2.79,2.64 -1.22,0.23 -2.41,0.48 -3.58,0.7599 -4.05,-2.37 -8.76,-2.98 -13.13,-4.48 -13.78,-4.1799 -27.55,-8.35 -41.3201,-12.5299 -4.14,-1.3201 -8.4399,-2.1101 -12.4099,-3.87 0.5601,-0.5201 1.6601,-1.5601 2.2101,-2.0801 z"
       id="path3349"
       inkscape:connector-curvature="0"
       style="fill:#1a2306;stroke:#1a2306;stroke-width:0.59399998" /><path
       d="m 5267.2949,1234.9206 c 0.2101,0.04 0.64,0.11 0.8501,0.15 3.97,1.7599 8.2699,2.5499 12.4099,3.87 13.77,4.1799 27.54,8.35 41.3201,12.5299 4.37,1.5 9.08,2.11 13.13,4.48 1.1699,-0.2799 2.36,-0.5299 3.58,-0.7599 -1.4399,9.74 -5.5599,18.88 -7.65,28.49 -1.77,1.3999 -3.14,3.4199 -5.23,4.34 -1.8099,-0.01 -3.58,-0.08 -5.35,0.01 1.08,17.46 0.58,34.99 0.7999,52.5 0,4.83 0.2101,9.6899 -0.1799,14.53 -0.6,0.02 -1.8201,0.07 -2.4301,0.09 0.9601,0.61 1.9,1.2 2.9,1.87 -1.38,2.62 -2.86,5.1899 -4.5599,7.63 -0.88,-5.67 -0.3301,-11.41 -0.4501,-17.11 -0.1699,-15.6901 -0.1699,-31.38 -0.38,-47.0601 0.1901,-5.08 -0.45,-10.1899 0.53,-15.2 2.85,0.46 5.71,1 8.55,1.63 -0.12,-0.6 -0.3501,-1.8 -0.4701,-2.41 0.4401,0.2 1.3,0.58 1.74,0.78 2.55,-8.51 5.5701,-16.91 7.54,-25.5701 -0.2,-0.47 -0.59,-1.3999 -0.79,-1.87 -0.12,-0.3199 -0.37,-0.95 -0.49,-1.26 -7.6799,-1.6 -14.99,-4.47 -22.49,-6.6699 -14.61,-3.59 -28.6499,-9.14 -43.27,-12.66 0.06,-0.4399 0.1801,-1.3199 0.2401,-1.77 l 0.15,-0.5599 z"
       id="path3357"
       inkscape:connector-curvature="0"
       style="fill:#80b539;stroke:#80b539;stroke-width:0.59399998" /><path
       d="m 5263.9349,1238.5106 c 0.26,-1.64 1.74,-2.59 3.2101,-3.03 -0.06,0.4501 -0.1801,1.3301 -0.2401,1.77 -1.59,9.4301 -5.2999,18.37 -7.7899,27.59 -0.61,0.28 -1.8201,0.8401 -2.42,1.12 -1.11,-3.73 1.7001,-7.2799 2.4,-10.8899 1.1699,-5.6601 3.5399,-10.9501 4.8399,-16.5601 z"
       id="path3361"
       inkscape:connector-curvature="0"
       style="fill:#b3d082;stroke:#b3d082;stroke-width:0.59399998" /><path
       d="m 5507.0149,1256.2806 c 2.6599,5.25 0.7,11.16 -1.1101,16.34 -24.7999,81.9401 -49.3999,163.9501 -74.1599,245.9 -0.9,2.73 -1.8101,5.54 -3.5901,7.8699 -0.71,-0.9299 -1.4299,-1.8198 -2.1499,-2.6499 12.48,-39.48 23.95,-79.3 36.0599,-118.9 13.8301,-45.8199 27.64,-91.64 41.42,-137.46 0.7999,-2.96 -0.16,-5.97 -0.39,-8.91 1.52,2.8401 2.4,5.9601 3.29,9.0701 0.7401,-3.72 0.8401,-7.5101 0.6301,-11.2601 z"
       id="path3397"
       inkscape:connector-curvature="0"
       style="fill:#a1c868;stroke:#a1c868;stroke-width:0.59399998" /><path
       d="m 5333.1548,1257.8406 c 0.2001,0.4701 0.5901,1.4 0.79,1.87 -1.97,8.66 -4.99,17.0601 -7.54,25.5701 -0.4399,-0.2001 -1.2999,-0.5801 -1.74,-0.78 2.99,-8.8401 4.9701,-18.0101 8.49,-26.6601 z"
       id="path3407"
       inkscape:connector-curvature="0"
       style="fill:#a5d465;stroke:#a5d465;stroke-width:0.59399998" /><path
       d="m 5358.3449,1261.6206 c 0.9301,-2.4399 3.6,-1.24 5.39,-0.67 26.91,8.15 53.8099,16.3501 80.78,24.28 l -0.07,0.3 c -0.3099,1.0499 -0.49,2.21 -0.8099,3.3099 -0.99,-0.51 -1.9501,-1.08 -2.87,-1.5399 -23.25,-7.3401 -46.7001,-14.16 -70.0601,-21.16 -1.8,-0.5699 -3.62,-1.02 -5.42,-1.41 -2.4299,-0.71 -4.86,-1.4299 -7.2999,-1.99 0.09,-0.28 0.27,-0.84 0.36,-1.12 z"
       id="path3409"
       inkscape:connector-curvature="0"
       style="fill:#1a2408;stroke:#1a2408;stroke-width:0.59399998" /><path
       d="m 5355.1548,1265.1506 c -0.05,-1.78 1.53,-3.2001 3.1901,-3.53 -0.09,0.28 -0.27,0.84 -0.36,1.12 2.4399,0.5601 4.87,1.28 7.2999,1.99 -2.46,0.12 -4.8899,0.25 -7.3099,0.48 -0.13,0.4601 -0.41,1.38 -0.55,1.8301 -1.6,5.76 -3.4299,11.46 -5.0699,17.22 -0.88,2.64 -1.26,5.5699 -2.98,7.86 -0.67,0.63 -1.3301,1.29 -1.9701,1.9501 l -0.46,0.45 c -0.07,-3.46 0.23,-7.58 2.3101,-10.36 0.22,-0.15 0.6699,-0.4601 0.89,-0.61 1.5299,-3.87 2.2,-8 3.63,-11.89 0.7598,-2.1102 1.3199,-4.2802 1.3798,-6.5102 z"
       id="path3417"
       inkscape:connector-curvature="0"
       style="fill:#a2c76d;stroke:#a2c76d;stroke-width:0.59399998" /><path
       d="m 5258.7249,1266.9407 c 0.73,-0.8401 1.5699,-2.37 2.95,-1.4601 4.5701,1.3 9.12,2.73 13.65,4.2101 -0.03,0.49 -0.09,1.47 -0.12,1.96 -0.88,0 -2.64,0.01 -3.52,0.01 -1.65,-0.47 -3.34,-0.89 -4.95,-1.3301 -2.02,-0.5499 -4.15,-0.9399 -5.9401,-2.0199 -0.5198,-0.3401 -1.5499,-1.0301 -2.0699,-1.37 z"
       id="path3427"
       inkscape:connector-curvature="0"
       style="fill:#375612;stroke:#375612;stroke-width:0.59399998" /><path
       d="m 5357.9749,1265.2106 c 2.42,-0.23 4.85,-0.36 7.3099,-0.48 1.8,0.39 3.62,0.8401 5.42,1.41 23.36,7 46.8101,13.8199 70.0601,21.16 -0.6101,0.4299 -1.1801,0.89 -1.74,1.39 0.7999,0.7999 1.62,1.62 2.45,2.47 l -1.4401,0.08 c -7.63,-1.64 -14.84,-4.78 -22.45,-6.48 -14.79,-4.87 -29.79,-9.03 -44.6899,-13.54 -5.2101,-1.27 -10.03,-3.98 -15.4701,-4.1799 0.1401,-0.4501 0.4201,-1.3701 0.5501,-1.8301 z"
       id="path3429"
       inkscape:connector-curvature="0"
       style="fill:#779a3f;stroke:#779a3f;stroke-width:0.59399998" /><path
       d="m 5271.6849,1271.6606 c 0.88,0 2.64,-0.01 3.52,-0.01 1.28,54.08 3.22,108.1799 4.02,162.2899 0.09,0.9302 -0.63,2.6802 0.87,2.9402 9.8199,3.3999 20.21,5.3398 29.73,9.5298 -9.33,-1.22 -18.0599,-5.27 -27.2,-7.45 -2.0601,-0.6299 -5.0901,-0.9199 -5.48,-3.52 -1.26,-7.5698 -0.8201,-15.27 -1.0701,-22.8999 0.11,-8.37 -0.88,-16.6901 -0.74,-25.05 0.13,-14.6799 -1.11,-29.2999 -1.09,-43.96 -0.3201,-8.04 0.04,-16.1 -0.77,-24.11 -0.29,-11.64 -0.12,-23.3 -0.63,-34.9401 -0.7299,-4.2599 0.1401,-8.6799 -1.1599,-12.8199 z"
       id="path3447"
       inkscape:connector-curvature="0"
       style="fill:#98c25c;stroke:#98c25c;stroke-width:0.59399998" /><path
       d="m 5314.8749,1281.6706 c 3.33,0.65 6.61,1.6 9.7899,2.83 0.12,0.61 0.3501,1.8101 0.4701,2.41 -2.8401,-0.63 -5.7001,-1.17 -8.55,-1.63 -0.6899,-0.91 -1.36,-1.8 -1.99,-2.67 0.07,-0.24 0.21,-0.71 0.28,-0.94 z"
       id="path3473"
       inkscape:connector-curvature="0"
       style="fill:#426613;stroke:#426613;stroke-width:0.59399998" /><path
       d="m 5314.275,1294.5306 c 0.1699,-3.97 -1.01,-8.0701 0.3199,-11.92 0.63,0.87 1.3,1.76 1.99,2.67 -0.98,5.01 -0.34,10.12 -0.53,15.2 0.2101,15.6801 0.2101,31.37 0.38,47.0601 0.12,5.7 -0.4299,11.4399 0.4501,17.11 1.7,-2.4401 3.1799,-5.01 4.5599,-7.63 -1,-0.67 -1.9399,-1.26 -2.9,-1.87 0.61,-0.02 1.8301,-0.07 2.4301,-0.09 0.45,-0.01 1.34,-0.05 1.78,-0.06 0.47,0.42 1.4099,1.28 1.88,1.7 -2.77,4.67 -5.92,9.1001 -9.1901,13.4401 -0.4399,-1.51 -0.91,-3.02 -0.88,-4.55 -0.3,-23.6901 -0.18,-47.3701 -0.2899,-71.0601 z"
       id="path3475"
       inkscape:connector-curvature="0"
       style="fill:#91c647;stroke:#91c647;stroke-width:0.59399998" /><path
       d="m 5444.4449,1285.5306 c 1.9501,0.78 0.71,3.47 0.7001,5.0599 -2.14,6.5901 -4.04,13.26 -6.0801,19.89 -1,3.0601 -1.58,6.36 -3.4199,9.0801 -2.9801,1.84 -6.7201,0.2799 -9.76,-0.67 -2.37,-0.77 -5.74,-2.38 -7.26,0.5599 -32.49,43.04 -65.5,85.7001 -97.99,128.74 -2.27,1.8201 -5.27,0.4202 -7.7001,-0.1799 l 0.1901,-0.8101 c 1.6899,0.1899 3.4,0.4102 5.15,0.5901 0.04,-0.6001 0.1299,-1.79 0.1799,-2.3901 1.33,-2.8799 3.79,-4.97 5.61,-7.51 21.14,-28.1599 42.74,-55.9498 63.9401,-84.0698 4.26,-4.8301 7.37,-10.54 11.74,-15.29 6.03,-8.26 12.2899,-16.34 18.5699,-24.42 4.28,3.4601 10.04,4.02 15.2101,5.4301 -0.2201,-0.47 -0.67,-1.4301 -0.89,-1.9 2.5,0.26 2.5,-2.45 3.14,-4.14 1.84,-7.35 4.6899,-14.41 6.21,-21.83 l -0.51,-0.51 c -0.83,-0.85 -1.65,-1.67 -2.45,-2.47 0.5599,-0.5 1.1299,-0.9601 1.74,-1.39 0.9199,0.46 1.88,1.0299 2.87,1.5399 0.3199,-1.1001 0.4999,-2.2602 0.8099,-3.3101 z"
       id="path3479"
       inkscape:connector-curvature="0"
       style="fill:#85af47;stroke:#85af47;stroke-width:0.59399998" /><path
       d="m 5440.0348,1291.2406 1.4401,-0.08 0.51,0.51 c -1.52,7.4199 -4.37,14.48 -6.21,21.83 -0.64,1.6901 -0.64,4.4 -3.14,4.14 1.83,-8.96 5.28,-17.51 7.3999,-26.4 z"
       id="path3493"
       inkscape:connector-curvature="0"
       style="fill:#a0cc64;stroke:#a0cc64;stroke-width:0.59399998" /><path
       d="m 5347.4048,1294.0707 c 0.64,-0.66 1.3,-1.3201 1.9701,-1.9501 0.05,0.59 0.1699,1.78 0.23,2.38 3.89,1.45 7.91,2.62 11.9399,3.72 0.55,0.14 1.66,0.41 2.2101,0.55 -12.79,19.47 -26.36,38.4399 -39.12,57.9299 -0.4701,-0.4199 -1.41,-1.2799 -1.88,-1.7 l -0.4601,-0.4299 c 9,-13.1101 17.9301,-26.3201 26.77,-39.5601 3.17,-4.64 6.6801,-9.1 9.34,-14.0601 1.38,-2.6 -2.0499,-2.9099 -3.72,-3.4399 -2.4499,-1.0499 -5.9899,-0.6898 -7.28,-3.4398 z"
       id="path3495"
       inkscape:connector-curvature="0"
       style="fill:#97c356;stroke:#97c356;stroke-width:0.59399998" /><path
       d="m 5349.3749,1292.1206 c 5.24,1.61 11.14,2.11 15.76,5.21 -1.2101,0.3101 -2.41,0.6101 -3.5901,0.89 -4.0299,-1.1 -8.0499,-2.27 -11.9399,-3.72 -0.06,-0.6 -0.18,-1.79 -0.23,-2.38 z"
       id="path3497"
       inkscape:connector-curvature="0"
       style="fill:#436319;stroke:#436319;stroke-width:0.59399998" /><path
       d="m 5418.3149,1314.1106 c 2.34,-1.49 4.9401,0.04 7.3301,0.61 2.37,0.8 5.0199,1.2001 6.99,2.92 0.22,0.47 0.6699,1.4301 0.89,1.9 -5.1701,-1.41 -10.9301,-1.9699 -15.2101,-5.43 z"
       id="path3613"
       inkscape:connector-curvature="0"
       style="fill:#45651a;stroke:#45651a;stroke-width:0.59399998" /><path
       d="m 5203.1548,1417.7906 c 64.13,19.3499 128.29,38.6099 192.4,58.01 1.25,0.4299 2.4701,0.8999 3.75,1.4199 -0.5499,1.5901 -1.0499,3.24 -1.5399,4.8901 -66.25,-19.6101 -132.26,-40.0701 -198.53,-59.55 1.13,-1.7399 2.4101,-3.3601 3.9199,-4.77 z"
       id="path3853"
       inkscape:connector-curvature="0"
       style="fill:#1e280d;stroke:#1e280d;stroke-width:0.59399998" /><path
       d="m 5197.8149,1423.7406 c 25.85,7.49 51.59,15.48 77.39,23.1799 41,12.3501 82.04,24.5801 122.97,37.1301 0.09,0.6399 0.26,1.9299 0.3401,2.5801 -45.4,-13.4001 -90.63,-27.4102 -136.05,-40.79 -22.52,-7.1501 -45.3,-13.47 -67.79,-20.71 0.9899,-0.55 1.9599,-1.2402 3.1399,-1.3901 z"
       id="path3857"
       inkscape:connector-curvature="0"
       style="fill:#618828;stroke:#618828;stroke-width:0.59399998" /><path
       d="m 5280.0949,1436.8807 c -1.5,-0.26 -0.78,-2.01 -0.87,-2.9402 13.17,3.46 26.0599,7.9302 39.23,11.46 -0.05,0.6001 -0.14,1.79 -0.1799,2.3901 -1.75,-0.1799 -3.4601,-0.4001 -5.15,-0.5901 -0.62,-0.08 -1.85,-0.25 -2.4701,-0.3298 l -0.83,-0.4602 c -9.52,-4.1899 -19.91,-6.1299 -29.73,-9.5298 z"
       id="path3867"
       inkscape:connector-curvature="0"
       style="fill:#416317;stroke:#416317;stroke-width:0.59399998" /><path
       d="m 5152.645,1447.7406 c 6.5,4.8301 14.59,6.45 22.1699,8.8401 77.63,23.3599 155.26,46.76 232.89,70.1199 4.42,0.99 9.03,2.8601 13.5701,1.4102 0.04,0.8999 0.1,1.8398 0.1799,2.7998 -5.52,2.3901 -11.27,-0.01 -16.62,-1.5898 -80.63,-24.3401 -161.29,-48.55 -241.9,-72.95 -3.99,-2.0902 -9.18,-3.6502 -10.2899,-8.6302 z"
       id="path3895"
       inkscape:connector-curvature="0"
       style="fill:#466719;stroke:#466719;stroke-width:0.59399998" /></g></svg>