<?xml version="1.0" encoding="UTF-8" standalone="no"?>
<!-- Created with Inkscape (http://www.inkscape.org/) -->

<svg
   xmlns:dc="http://purl.org/dc/elements/1.1/"
   xmlns:cc="http://creativecommons.org/ns#"
   xmlns:rdf="http://www.w3.org/1999/02/22-rdf-syntax-ns#"
   xmlns:svg="http://www.w3.org/2000/svg"
   xmlns="http://www.w3.org/2000/svg"
   xmlns:sodipodi="http://sodipodi.sourceforge.net/DTD/sodipodi-0.dtd"
   xmlns:inkscape="http://www.inkscape.org/namespaces/inkscape"
   id="svg3390"
   version="1.1"
   inkscape:version="0.92.1 r15371"
   width="192"
   height="112"
   viewBox="0 0 192 112"
   sodipodi:docname="multipleTwo.svg">
  <metadata
     id="metadata3396">
    <rdf:RDF>
      <cc:Work
         rdf:about="">
        <dc:format>image/svg+xml</dc:format>
        <dc:type
           rdf:resource="http://purl.org/dc/dcmitype/StillImage" />
        <dc:title />
        <dc:date>2018</dc:date>
        <dc:creator>
          <cc:Agent>
            <dc:title>Timothée Giet</dc:title>
          </cc:Agent>
        </dc:creator>
        <cc:license
           rdf:resource="http://creativecommons.org/licenses/by-sa/4.0/" />
      </cc:Work>
      <cc:License
         rdf:about="http://creativecommons.org/licenses/by-sa/4.0/">
        <cc:permits
           rdf:resource="http://creativecommons.org/ns#Reproduction" />
        <cc:permits
           rdf:resource="http://creativecommons.org/ns#Distribution" />
        <cc:requires
           rdf:resource="http://creativecommons.org/ns#Notice" />
        <cc:requires
           rdf:resource="http://creativecommons.org/ns#Attribution" />
        <cc:permits
           rdf:resource="http://creativecommons.org/ns#DerivativeWorks" />
        <cc:requires
           rdf:resource="http://creativecommons.org/ns#ShareAlike" />
      </cc:License>
    </rdf:RDF>
  </metadata>
  <defs
     id="defs3394" />
  <sodipodi:namedview
     pagecolor="#ffffff"
     bordercolor="#666666"
     borderopacity="1"
     objecttolerance="10"
     gridtolerance="10"
     guidetolerance="10"
     inkscape:pageopacity="0"
     inkscape:pageshadow="2"
     inkscape:window-width="1884"
     inkscape:window-height="1051"
     id="namedview3392"
     showgrid="true"
     inkscape:zoom="1.9992484"
     inkscape:cx="174.97252"
     inkscape:cy="57.168987"
     inkscape:window-x="0"
     inkscape:window-y="0"
     inkscape:window-maximized="1"
     inkscape:current-layer="svg3390">
    <inkscape:grid
       type="xygrid"
       id="grid812"
       empspacing="4" />
  </sodipodi:namedview>
  <rect
     style="opacity:1;vector-effect:none;fill:#ea594e;fill-opacity:1;stroke:none;stroke-width:10;stroke-linecap:butt;stroke-linejoin:miter;stroke-miterlimit:4;stroke-dasharray:none;stroke-dashoffset:0;stroke-opacity:0.50162886"
     id="rect831"
     width="70"
     height="16"
     x="77"
     y="72"
     ry="0" />
  <path
     style="fill:#ea594e;fill-opacity:1;stroke:none;stroke-width:1px;stroke-linecap:butt;stroke-linejoin:miter;stroke-opacity:1"
     d="m 45,80 40,24 V 56 Z"
     id="path833"
     inkscape:connector-curvature="0"
     sodipodi:nodetypes="cccc" />
  <g
     aria-label="* 2"
     style="font-style:normal;font-variant:normal;font-weight:normal;font-stretch:normal;font-size:53.33333206px;line-height:1.25;font-family:Kabel;-inkscape-font-specification:Kabel;letter-spacing:0px;word-spacing:0px;fill:#ea594e;fill-opacity:1;stroke:none"
     id="text837"
     transform="translate(-7.269532)">
    <path
       d="m 73.25,15.791668 -0.429688,-6.6666669 4.270833,-1.015625 v 7.6822919 l 5.234375,-3.632813 3.085938,3.203125 -6.666667,3.789063 6.184896,2.877604 -1.380208,4.153645 -6.458334,-3.841145 0.221355,6.562499 -4.0625,1.171875 v -7.408854 l -5.442708,3.73698 -3.085938,-3.203125 6.770833,-3.945313 -6.080729,-2.825521 1.276042,-4.270833 z"
       id="path847"
       inkscape:connector-curvature="0" />
    <path
       d="m 107.84635,56 16.15886,-19.361979 q 5.27344,-6.822916 5.27344,-9.70052 0,-0.169271 0,-0.325521 -0.3125,-2.825521 -1.8099,-4.205729 -1.38021,-1.289063 -3.35938,-1.289063 -0.15625,0 -0.3125,0 -2.13541,0.05208 -3.52864,1.549479 -1.38021,1.497396 -1.48438,3.632813 0,0.104167 0,0.208333 0,2.929688 3.72396,4.804688 l -6.23698,8.203124 q -0.0521,-0.05208 -1.27604,-0.846354 -1.22396,-0.807291 -2.34375,-1.705729 -4.375,-4.114583 -4.375,-10.507812 0,-0.429688 0,-0.859375 0.15625,-4.049479 2.29167,-7.356771 2.08333,-3.255208 5.80729,-5.01302 3.58073,-1.70573 7.89062,-1.70573 0.11719,0 0.22136,0 4.15364,0 7.72135,1.601563 3.58073,1.601562 5.82032,4.635416 2.18749,3.046875 2.40885,7.304688 0,0.325521 0,0.638021 0,3.307291 -1.92708,7.421874 -2.13542,4.583334 -5.16927,7.890625 l -4.47917,4.960938 h 12.95573 L 139.20052,56 Z"
       id="path849"
       inkscape:connector-curvature="0" />
  </g>
</svg>
