<?xml version="1.0" encoding="UTF-8" standalone="no"?>
<!-- Created with Inkscape (http://www.inkscape.org/) -->

<svg
   xmlns:dc="http://purl.org/dc/elements/1.1/"
   xmlns:cc="http://creativecommons.org/ns#"
   xmlns:rdf="http://www.w3.org/1999/02/22-rdf-syntax-ns#"
   xmlns:svg="http://www.w3.org/2000/svg"
   xmlns="http://www.w3.org/2000/svg"
   xmlns:sodipodi="http://sodipodi.sourceforge.net/DTD/sodipodi-0.dtd"
   xmlns:inkscape="http://www.inkscape.org/namespaces/inkscape"
   width="172.92142"
   height="87.511894"
   id="svg2872"
   sodipodi:version="0.32"
   inkscape:version="0.48.3.1 r9886"
   version="1.0"
   sodipodi:docname="cloud.svg"
   inkscape:output_extension="org.inkscape.output.svg.inkscape">
  <defs
     id="defs2874">
    <linearGradient
       id="linearGradient5148">
      <stop
         style="stop-color:#ffffff;stop-opacity:1;"
         offset="0"
         id="stop5150" />
      <stop
         style="stop-color:#ff1e18;stop-opacity:0;"
         offset="1"
         id="stop5152" />
    </linearGradient>
  </defs>
  <sodipodi:namedview
     id="base"
     pagecolor="#ffffff"
     bordercolor="#666666"
     borderopacity="1.0"
     inkscape:pageopacity="0.0"
     inkscape:pageshadow="2"
     inkscape:zoom="16"
     inkscape:cx="42.982543"
     inkscape:cy="53.312002"
     inkscape:document-units="px"
     inkscape:current-layer="layer1"
     inkscape:window-width="1366"
     inkscape:window-height="713"
     inkscape:window-x="-2"
     inkscape:window-y="-3"
     showguides="true"
     inkscape:guide-bbox="true"
     showgrid="false"
     inkscape:window-maximized="1" />
  <metadata
     id="metadata2877">
    <rdf:RDF>
      <cc:Work
         rdf:about="">
        <dc:format>image/svg+xml</dc:format>
        <dc:type
           rdf:resource="http://purl.org/dc/dcmitype/StillImage" />
      </cc:Work>
    </rdf:RDF>
  </metadata>
  <g
     inkscape:label="Livello 1"
     inkscape:groupmode="layer"
     id="layer1"
     transform="translate(-446.36183,-632.0126)">
    <path
       id="path4159"
       d="m 456.68399,714.78078 c -9.51702,-3.68561 -7.38808,-19.78145 3.02094,-27.19522 2.58355,-1.84012 4.23238,-4.61335 4.58074,-4.86415 0.34835,-0.25079 -0.37628,-1.00324 -1.61029,-1.67212 -15.29175,-8.28867 -1.51964,-32.1649 18.64846,-32.33021 5.16845,-0.0424 6.42873,0.75608 8.09271,-5.17901 2.94064,-10.4887 24.51338,-11.19169 34.70258,-2.57399 4.07528,3.44676 4.60749,4.32701 8.23825,1.02331 13.25076,-12.05709 51.82189,-6.4315 55.7022,8.4942 l 1.24929,6.32949 6.61018,0.377 c 13.11576,0.74803 19.05942,5.27427 19.05942,19.64786 0,15.8673 -6.71434,21.83501 -24.56684,21.83501 l -9.88937,0 -0.81643,4.21504 c -2.26213,11.6792 -29.04833,16.57999 -44.33516,8.11154 -4.23348,-2.34522 -4.32668,-2.34354 -7.58096,0.13578 -4.27368,3.256 -22.5936,3.64999 -27.1143,0.58311 -2.26829,-1.53884 -3.40612,-1.63397 -5.6474,-0.47218 -7.76741,4.02631 -31.43958,6.20844 -38.34402,3.5346 z"
       style="fill:#dcdcdc;fill-opacity:1"
       inkscape:connector-curvature="0"
       sodipodi:nodetypes="csssssssscssscssssscc" />
    <path
       id="path4159-0"
       d="m 456.05334,715.92266 c -9.51702,-3.68561 -7.82558,-20.15645 2.58344,-27.57022 2.58355,-1.84012 4.66988,-4.23835 5.01824,-4.48915 0.34835,-0.25079 2.88647,-1.02764 3.3881,-2.33857 4.70182,-12.28738 10.46949,-18.02923 19.31491,-9.00439 11.8244,12.06425 13.46532,-4.42868 17.75627,-1.18029 13.54987,10.25768 32.09183,9.83348 40.0342,-0.57464 13.05109,-17.10286 18.68621,-6.878 21.98374,-3.8504 8.76737,13.26112 13.79689,18.93671 35.40423,-0.19021 12.57552,-3.79987 12.81135,-3.11856 12.81135,11.25503 0,15.8673 -6.04268,19.16441 -23.81684,20.83501 l -10.63937,1 -0.81643,4.21504 c -2.26213,11.6792 -27.86083,15.89248 -43.14766,7.42404 -4.23348,-2.34522 -6.07668,-5.18914 -9.33096,0.44828 -2.68605,4.65307 -22.0311,4.02499 -26.5518,0.95811 -2.26829,-1.53884 -3.59362,-2.50897 -5.8349,-1.34718 -7.76741,4.02631 -31.25208,7.08344 -38.15652,4.4096 z"
       style="fill:#c8c8c8;fill-opacity:1"
       inkscape:connector-curvature="0"
       sodipodi:nodetypes="cssssssccsscssssscc" />
    <path
       id="path4155"
       d="M 453.71121,718.02139 C 442.69333,714.04291 444.35559,698.17102 456.7399,689.10239 C 459.53449,687.05601 462.37111,684.91965 463.04349,684.35493 C 463.71588,683.79021 462.38219,681.56842 460.07975,679.41761 C 447.07356,667.26801 461.85008,645.80728 481.41489,648.43146 C 486.42692,649.10371 486.9017,648.88647 487.66897,645.56974 C 491.21037,630.26097 509.76592,627.29176 523.23938,639.87786 C 528.48968,644.78237 528.90448,644.84181 532.23072,641.16635 C 546.51122,625.38658 586.06937,632.06507 589.26691,650.79561 L 590.25478,656.58235 L 599.08676,656.71539 C 613.27853,656.92915 619.28789,663.0889 619.28324,677.41729 C 619.27843,692.19267 610.33699,699.42462 592.07383,699.42462 L 581.65461,699.42462 L 580.69414,703.79758 C 577.55378,718.09559 556.55352,722.7363 538.08793,713.21285 C 531.03836,709.5771 530.0094,709.36772 528.44751,711.25116 C 523.45195,717.27509 511.22872,718.58106 501.93801,714.0835 C 496.18825,711.3001 495.73547,711.27177 491.70347,713.44314 C 481.33444,719.02723 462.71159,721.27138 453.71121,718.02139 z M 479.90313,713.5404 C 483.81693,712.37814 489.24684,709.39517 492.03659,706.8748 L 497.08606,702.3129 L 501.22824,706.95108 C 508.24963,714.81323 523.99258,713.05126 527.42666,704.01892 C 529.03173,699.79724 531.89614,699.8998 534.76729,704.28174 C 544.48681,719.11562 577.63927,715.58964 575.98557,699.89792 C 575.4045,694.38421 575.7217,694.25987 591.54987,693.79652 C 611.00897,693.22689 613.99955,691.19787 614.96048,677.91302 C 615.99337,663.6335 603.52195,656.89351 588.93658,663.84879 C 582.95225,666.70253 581.90259,665.66459 584.0851,659.05153 C 587.12896,649.82852 583.02763,642.00398 573.46628,638.79287 C 558.97474,633.92599 532.7813,640.31457 532.7813,648.71593 C 532.7813,655.01302 529.07178,655.13418 524.83449,648.97549 C 516.24822,636.49578 503.50808,632.52449 496.03447,639.9981 C 491.89574,644.13684 491.79249,644.96159 494.36382,653.34299 C 495.32418,656.47334 495.18846,656.55144 490.75597,655.41909 C 464.5773,648.73138 445.51159,671.34859 470.17915,679.82891 C 476.77512,682.09649 476.7321,684.47761 470.05335,686.78984 C 438.71823,697.63834 448.05588,722.99803 479.90313,713.5404 z "
       style="fill:#000000;fill-opacity:1" />
    <path
       style="fill:#ffff00;stroke:#000000;stroke-width:0.54856837"
       inkscape:connector-curvature="0"
       id="path3781"
       d="m 518.43451,697.07292 8.43424,-2.22126 -2.15476,24.40721 13.3816,-34.892 -13.17881,3.35258 c 0,0 -1.06502,-6.32848 -1.66247,-8.44499 -1.94121,-0.45815 -7.90518,-1.86298 -7.90518,-1.86298 0.26532,6.59294 1.94286,13.15548 3.08538,19.66144 z"
       sodipodi:nodetypes="cccccccc" />
    <path
       style="fill:#ffff00;stroke:#000000;stroke-width:0.44000301"
       inkscape:connector-curvature="0"
       id="path3781-7"
       d="m 588.96472,680.63953 0.59863,18.88624 -9.01302,-0.0417 14.43368,19.85031 -28.37738,-27.43817 14.05282,-0.0532 -0.89261,-12.23897 c 0,0 3.99817,1.22246 8.36534,-1.79709 0.80949,-0.55969 0.83254,2.83258 0.83254,2.83258 z"
       sodipodi:nodetypes="cccccccsc" />
    <path
       style="fill:none;stroke:#000000;stroke-width:0.87071311"
       inkscape:connector-curvature="0"
       id="path2946"
       d="m 503.67175,671.24984 c 13.90813,9.59715 26.17516,10.94884 38.99738,1.40999"
       sodipodi:nodetypes="cc" />
    <path
       style="fill:none;stroke:#000000;stroke-width:0.87071311"
       inkscape:connector-curvature="0"
       id="path2946-1"
       d="m 566.15163,667.74744 c 15.90749,18.92748 18.51096,12.28174 31.33318,2.74289"
       sodipodi:nodetypes="cc" />
  </g>
</svg>
