<!--Created with Inkscape (http://www.inkscape.org/)--><svg xmlns:dc="http://purl.org/dc/elements/1.1/" xmlns:cc="http://creativecommons.org/ns#" xmlns:rdf="http://www.w3.org/1999/02/22-rdf-syntax-ns#" xmlns="http://www.w3.org/2000/svg" xmlns:sodipodi="http://sodipodi.sourceforge.net/DTD/sodipodi-0.dtd" xmlns:inkscape="http://www.inkscape.org/namespaces/inkscape" width="225" height="100" sodipodi:version="0.32" inkscape:version="0.91 r13725" version="1.0" sodipodi:docname="cloud.svg" inkscape:output_extension="org.inkscape.output.svg.inkscape"><sodipodi:namedview pagecolor="#878787" bordercolor="#666666" borderopacity="1.0" inkscape:pageopacity="0" inkscape:pageshadow="2" inkscape:zoom="3.0009657" inkscape:cx="3.1204578" inkscape:cy="49.536766" inkscape:document-units="px" inkscape:current-layer="layer1" inkscape:window-width="1880" inkscape:window-height="1060" inkscape:window-x="-3" inkscape:window-y="-3" showguides="true" inkscape:guide-bbox="true" showgrid="false" fit-margin-top="0" fit-margin-left="0" fit-margin-right="0" fit-margin-bottom="0" inkscape:window-maximized="1"/><metadata><rdf:RDF><cc:Work><dc:format>image/svg+xml</dc:format><dc:type rdf:resource="http://purl.org/dc/dcmitype/StillImage"/><dc:title/><dc:date>2015</dc:date><dc:creator><cc:Agent><dc:title>Timothée Giet</dc:title></cc:Agent></dc:creator><cc:license rdf:resource="http://creativecommons.org/licenses/by-sa/4.0/"/></cc:Work><cc:License rdf:about="http://creativecommons.org/licenses/by-sa/4.0/"><cc:permits rdf:resource="http://creativecommons.org/ns#Reproduction"/><cc:permits rdf:resource="http://creativecommons.org/ns#Distribution"/><cc:requires rdf:resource="http://creativecommons.org/ns#Notice"/><cc:requires rdf:resource="http://creativecommons.org/ns#Attribution"/><cc:permits rdf:resource="http://creativecommons.org/ns#DerivativeWorks"/><cc:requires rdf:resource="http://creativecommons.org/ns#ShareAlike"/></cc:License></rdf:RDF></metadata><path style="color:#000;clip-rule:nonzero;display:inline;overflow:visible;visibility:visible;opacity:1;isolation:auto;mix-blend-mode:normal;color-interpolation:sRGB;color-interpolation-filters:linearRGB;solid-color:#000;solid-opacity:1;fill:#f6fbfc;fill-opacity:1;fill-rule:nonzero;stroke:none;stroke-width:.5;stroke-linecap:round;stroke-linejoin:round;stroke-miterlimit:4;stroke-dasharray:none;stroke-dashoffset:0;stroke-opacity:1;marker:none;color-rendering:auto;image-rendering:auto;shape-rendering:auto;text-rendering:auto;enable-background:accumulate" d="M542.415 625.769c-10.912.009-21.442 2.403-29.6 6.73a59.507 59.507 0 0 0-2.722-.066c-20.152 0-36.488 9.995-36.488 22.326.018 9.478 9.816 17.916 24.437 21.047 1.196 11.759 17.12 20.925 36.375 20.94 13.289.644 33.553.383 28.235-8.206 4.46 1.43 9.787 2.201 15.252 2.207-5.067-3.717-4.897-8.923 24.556-7.512 4.026 3.26 10.284 5.177 16.926 5.184 38.39 1.391-6.245-11.766 21.326-13.162a8.26 8.26 0 0 0-.068-.858c.245.006.49.01.736.012 10.857 0 19.658-4.102 19.66-9.162-6.13-.264-22.473 1.535-19.66-9.164-4.799.003-9.43.824-13.02 2.309.23-.873 3.015-4.752 3.026-5.634 0-10.306-17.287-15.661-35.322-15.661-5.198.005-10.318.72-14.936 2.084-7.947-8.29-22.715-13.406-38.713-13.414z" inkscape:connector-curvature="0" sodipodi:nodetypes="cccccccccccccccccccc" transform="translate(-439.105 -611.366)" inkscape:label="Livello 1" inkscape:groupmode="layer"/></svg>