<!--Created with Sodipodi ("http://www.sodipodi.com/")--><svg width="700" height="400" xml:space="preserve" version="1.1" id="svg74" xmlns="http://www.w3.org/2000/svg" xmlns:rdf="http://www.w3.org/1999/02/22-rdf-syntax-ns#"><metadata id="metadata2"><rdf:RDF/></metadata><path style="font-size:12px;fill:#cea111;fill-opacity:1;fill-rule:evenodd;stroke-width:1" d="M692.785 286.661c0 63.21-138.756 65.769-204.786 65.769S379.715 228.67 294.745 224.027c-5.257-.287-206.501-11.044-215.49-11.568-15.137-.832-12.605-38.683-.05-39.086l263.269-8.432c9.276-.296 17.345-.986 21.104-8.636L388.4 105.78l23.573-2.623 20.022 17.603c6.807 5.985 12.673 4.188 18.423 2.296 8.12-3.521 35.59-3.97 44.78-4.821-24.436 5.094-19.779 42.513-6.962 67.164 26.805 50.669 48.313 58.988 100.418 72.359 57.76 14.489 68.245-8.2 85.383-26.319 8.778 16.524 18.748 42.121 18.748 55.221z" id="path6"/><g transform="matrix(.6938 0 0 .69419 246.006 -100.802)" style="fill:#6b4824;fill-opacity:1;stroke-width:.981506" id="g30"><ellipse ry="5.9407425" rx="31.401131" cy="236.78146" cx="216.41321" style="fill:#6b4824;fill-opacity:1;fill-rule:evenodd;stroke:none;stroke-width:.981506pt;stroke-linecap:butt;stroke-linejoin:miter;stroke-opacity:1" transform="rotate(4.625 216.415 236.78)" id="ellipse8"/><rect style="font-size:12px;fill:#6b4824;fill-opacity:1;fill-rule:evenodd;stroke-width:.981506" width="11.881516" height="37.341927" x="210.47244" y="248.23849" id="rect10"/><rect style="font-size:12px;fill:#6b4824;fill-opacity:1;fill-rule:evenodd;stroke-width:.981506" width="5.091639" height="25.920595" x="213.31094" y="261.93109" transform="matrix(.99995 -.00998 .02676 .99964 0 0)" id="rect12"/><rect style="font-size:12px;fill:#6b4824;fill-opacity:1;fill-rule:evenodd;stroke-width:.981506" width="5.0920653" height="42.43388" x="257.69424" y="176.8784" transform="rotate(4.25)" id="rect14"/><rect style="font-size:12px;fill:#6b4824;fill-opacity:1;fill-rule:evenodd;stroke-width:.981506" width="5.0922518" height="47.93885" x="193.08849" y="241.27605" transform="rotate(-1.056) skewX(-.229)" id="rect16"/><rect style="font-size:12px;fill:#6b4824;fill-opacity:1;fill-rule:evenodd;stroke-width:.981506" width="5.0923624" height="50.903088" x="229.4111" y="238.39238" transform="matrix(.9998 -.0196 .01363 .9999 0 0)" id="rect18"/><ellipse ry="5.9407425" rx="31.401131" cy="236.78146" cx="216.41321" style="fill:#6b4824;fill-opacity:1;fill-rule:evenodd;stroke:none;stroke-width:.981506pt;stroke-linecap:butt;stroke-linejoin:miter;stroke-opacity:1" transform="matrix(.83784 0 0 1 35.094 20.368)" id="ellipse20"/><rect style="font-size:12px;fill:#6b4824;fill-opacity:1;fill-rule:evenodd;stroke-width:.981506" width="5.0916629" height="27.190775" x="231.08513" y="260.09317" transform="matrix(.99994 -.01047 .02551 .99967 0 0)" id="rect22"/><rect style="font-size:12px;fill:#6b4824;fill-opacity:1;fill-rule:evenodd;stroke-width:.981506" width="5.0917587" height="31.424679" x="187.4938" y="256.95859" transform="matrix(.99993 -.0121 .02207 .99976 0 0)" id="rect24"/><rect style="font-size:12px;fill:#6b4824;fill-opacity:1;fill-rule:evenodd;stroke-width:.981506" width="3.8029807" height="35.24456" x="202.35742" y="184.00964" transform="matrix(.99628 .08618 -.06959 .99758 0 0)" id="rect26"/><rect style="font-size:12px;fill:#6b4824;fill-opacity:1;fill-rule:evenodd;stroke-width:.981506" width="11.887782" height="51.675381" x="226.36226" y="179.9232" transform="matrix(.99689 .0788 -.06548 .99785 0 0)" id="rect28"/></g><path style="font-size:12px;fill:#be680c;fill-opacity:1;fill-rule:evenodd;stroke-width:1" d="M92.344 205.801c41.94 22.699 22.134 41.304-12.116 41.948-25.058.005-41.773-9.914-46.64-37.621-3.302-15.774-3.916-50.76 44.08-21.102zm52.191-32.903c13.728 24.045-9.55 99.5-66.17 99.367-41.655-.097-86.506-46.257-71.353-102.574l15.754-65.304c4.89-20.438 50.74-18.013 63.254-4.1l33.7 52.92c6.54 10.276 12.107 18.852 24.815 19.691z" id="path32"/><path style="font-size:12px;fill:#f1810a;fill-opacity:1;fill-rule:evenodd;stroke-width:1" d="M91.19 195.97c38.293 20.722 20.21 52.594-11.062 53.183-22.88.005-45.583-16.495-50.027-41.793-3.015-14.402 11.309-53.788 55.132-26.708l5.956 15.316zm47.653-17.02c12.534 21.955-8.722 79.685-60.418 79.563-38.031-.088-73.4-36.654-59.565-88.073l12.523-59.625c4.464-18.662 40.747-14.585 52.172-1.884l28.909 48.32c5.97 9.383 14.776 20.932 26.379 21.698z" id="path34"/><path style="font-size:12px;fill:#be680c;fill-opacity:1;fill-rule:evenodd;stroke-width:1" d="M368.615 83.797 341.34 172.1c51.754 0 60.779-13.235 98.371-41.035l-14.689-45.23z" id="path36"/><path style="font-size:12px;fill:#f2c228;fill-opacity:1;fill-rule:evenodd;stroke-width:1" d="M682.597 278.51c0 63.21-122.455 61.694-188.485 61.694-66.03 0-110.321-121.721-195.292-126.365-5.257-.288-210.576-11.045-219.565-11.568-15.137-.833-12.605-20.345-.05-20.747l263.269-8.432c9.276-.296 19.481-4.344 21.104-12.712l24.822-54.6 23.573-2.623 15.947 25.754c4.771 7.705 16.748 4.187 22.498 2.295 8.12-3.52 31.515-8.044 40.704-8.896-24.435 5.094-13.665 38.438-.848 63.089 26.805 50.669 46.275 58.988 98.38 72.359 57.76 14.489 64.17-4.124 81.307-22.243 8.779 16.523 12.636 29.894 12.636 42.995z" id="path38"/><path style="font-size:12px;fill:#d0e2e2;fill-opacity:1;fill-rule:evenodd;stroke-width:1" d="M675.696 233.5c-22.975 30.967-45.505 37.297-86.527 28.788-56.878-11.56-82.633-36.172-103.21-77.257-17.575-35.349-21.039-67.066 6.382-67.045 58.013-.806 139.107 49.658 183.356 115.514z" id="path40"/><path style="font-size:12px;fill:#7e7e7e;fill-opacity:1;fill-rule:evenodd;stroke-width:1" d="M345.432 376.398V399l317.281-3.872c26.821-1.834 32.65-27.92 35.014-43.816l-18.137-4.262c-1.14 15.896-11.25 28.124-24.62 28.124z" id="path42"/><path style="font-size:12px;fill:#7e7e7e;fill-opacity:1;fill-rule:evenodd;stroke-width:1" d="M433.32 304.382c-.178 17.148-48.422 57.645-48.422 77.82 0 3.026 26.679 2.81 26.679 0 0-16.717 48.484-56.786 48.421-77.82-.212-8.864-26.64-3.89-26.678 0z" id="path44"/><path style="font-size:12px;fill:#b3b3b3;fill-opacity:1;fill-rule:evenodd;stroke-width:1" d="M443.508 304.382c-.177 17.148-48.421 57.645-48.421 77.82 0 3.026 10.377 2.81 10.377 0 0-16.717 48.484-56.786 48.421-77.82-.212-8.864-10.338-3.89-10.377 0z" id="path46"/><path style="font-size:12px;fill:#7e7e7e;fill-opacity:1;fill-rule:evenodd;stroke-width:1" d="M596.863 329.025c16.318 13.87 20.041 31.273 20.104 51.448.008 2.594-14.964 2.162-14.976 0-.132-24.066-3.375-35.613-22.698-51.016-1.714-1.363 7.092-9.522 17.57-.432z" id="path48"/><path style="font-size:12px;fill:#b3b3b3;fill-opacity:1;fill-rule:evenodd;stroke-width:1" d="M594.826 329.025c16.317 13.87 20.04 31.273 20.103 51.448.008 2.594-8.85 2.162-8.862 0-.133-24.066-3.376-35.613-22.698-51.016-1.715-1.363.978-9.522 11.457-.432z" id="path50"/><path style="font-size:12px;fill:#f1810a;fill-opacity:1;fill-rule:evenodd;stroke-width:1" d="m377.254 90.48-23.414 81.05c44.427 0 45.176-14.86 77.446-38.724L418.68 90.48h-41.426z" id="path52"/><ellipse style="fill:#4b4b4b;fill-opacity:1;fill-rule:evenodd;stroke:none;stroke-width:1pt;stroke-linecap:butt;stroke-linejoin:miter;stroke-opacity:1" cx="484.77853" cy="273.25684" rx="10.887547" ry="8.0350256" id="ellipse54"/><ellipse ry="17.293432" rx="25.940134" cy="273.84656" cx="461.64444" style="fill:gray;fill-opacity:1;fill-rule:evenodd;stroke:none;stroke-width:1pt;stroke-linecap:butt;stroke-linejoin:miter;stroke-opacity:1" id="ellipse56"/><ellipse ry="12.39312" rx="14.607294" cy="273.78003" cx="461.50119" style="fill:#999;fill-opacity:1;fill-rule:evenodd;stroke:none;stroke-width:1pt;stroke-linecap:butt;stroke-linejoin:miter;stroke-opacity:1" id="ellipse58"/><path style="font-size:12px;fill:#7e7e7e;fill-opacity:1;fill-rule:evenodd;stroke-width:1" d="M408.476 296.204c-5.68.231-4.022 21.271-.318 20.986 7.803-.442 22.382-1.115 27.19-5.094 12.098-10.18.317-28-4.458-21.304-4.49 6.368-16.675 5.339-22.413 5.412z" id="path60"/><path style="font-size:12px;fill:#b3b3b3;fill-opacity:1;fill-rule:evenodd;stroke-width:1" d="M416.627 298.242c-5.681.23-4.022 11.083-.318 10.797 7.802-.442 14.231-1.114 19.038-5.094 12.099-10.18.318-17.811-4.457-11.116-4.49 6.368-8.524 5.34-14.262 5.413z" id="path62"/><path d="M92.256 212.285c0 6.682-5.417 12.099-12.099 12.099s-12.098-5.417-12.098-12.1c0-6.68 5.416-12.098 12.098-12.098s12.1 5.417 12.1 12.099zm48.395 0c0 33.41-27.085 60.494-60.494 60.494-33.41 0-60.493-27.084-60.493-60.494s27.084-60.494 60.493-60.494c33.41 0 60.494 27.084 60.494 60.494z" style="font-size:12px;fill:#ececec;fill-opacity:.898039;fill-rule:evenodd;stroke-width:1" id="path64"/><ellipse transform="rotate(1.191)" style="fill:#ececec;fill-opacity:.898039;fill-rule:evenodd;stroke:none;stroke-width:1pt;stroke-linecap:butt;stroke-linejoin:miter;stroke-opacity:1" cx="386.90356" cy="28.886196" rx="281.01788" ry="35.451477" id="ellipse66"/><path style="font-size:12px;fill:#b3b3b3;fill-opacity:1;fill-rule:evenodd;stroke-width:1" d="M353.583 380.473v10.376l303.017-1.834c26.821-1.834 34.688-17.732 37.051-33.628l-7.948-4.261c-1.14 15.896-13.287 28.124-26.658 28.124l-305.462 1.222z" id="path68"/><path style="color:#000;clip-rule:nonzero;display:inline;overflow:visible;visibility:visible;opacity:1;isolation:auto;mix-blend-mode:normal;color-interpolation:sRGB;color-interpolation-filters:linearRGB;solid-color:#000;solid-opacity:1;fill:#ecf3f3;fill-opacity:1;fill-rule:nonzero;stroke:none;stroke-width:.49869;stroke-linecap:round;stroke-linejoin:round;stroke-miterlimit:4;stroke-dasharray:none;stroke-dashoffset:0;stroke-opacity:1;marker:none;color-rendering:auto;image-rendering:auto;shape-rendering:auto;text-rendering:auto;enable-background:accumulate" d="M503.181 136.974c13.581-10.473 80.528 15.073 56.362 18.492-31.561 4.466-21.86 36.997 5.832 51.017 15.3 7.746-38.21 4.61-55.012-13.092-16.802-17.703-20.762-45.944-7.182-56.417z" id="path70"/><path style="color:#000;clip-rule:nonzero;display:inline;overflow:visible;visibility:visible;opacity:1;isolation:auto;mix-blend-mode:normal;color-interpolation:sRGB;color-interpolation-filters:linearRGB;solid-color:#000;solid-opacity:1;fill:#ecf3f3;fill-opacity:1;fill-rule:nonzero;stroke:none;stroke-width:.5;stroke-linecap:round;stroke-linejoin:round;stroke-miterlimit:4;stroke-dasharray:none;stroke-dashoffset:0;stroke-opacity:1;marker:none;color-rendering:auto;image-rendering:auto;shape-rendering:auto;text-rendering:auto;enable-background:accumulate" d="M565.698 173.905c-1.349-14.953 12.725-14.592 31.435.806 18.711 15.399 48.465 39.99 53.645 54.083 2.294 6.24-42.24-34.933-61.646-43.932-21.983-10.194-22.085 3.996-23.434-10.957z" id="path72"/></svg>