<svg xmlns:dc="http://purl.org/dc/elements/1.1/" xmlns:cc="http://creativecommons.org/ns#" xmlns:rdf="http://www.w3.org/1999/02/22-rdf-syntax-ns#" xmlns="http://www.w3.org/2000/svg" viewBox="0 0 64 64" height="64" width="64"><metadata><rdf:RDF><cc:Work><dc:format>image/svg+xml</dc:format><dc:type rdf:resource="http://purl.org/dc/dcmitype/StillImage"/><dc:title/><dc:date>2021</dc:date><dc:creator><cc:Agent><dc:title>Timothée Giet</dc:title></cc:Agent></dc:creator><cc:license rdf:resource="http://creativecommons.org/licenses/by-sa/4.0/"/></cc:Work><cc:License rdf:about="http://creativecommons.org/licenses/by-sa/4.0/"><cc:permits rdf:resource="http://creativecommons.org/ns#Reproduction"/><cc:permits rdf:resource="http://creativecommons.org/ns#Distribution"/><cc:requires rdf:resource="http://creativecommons.org/ns#Notice"/><cc:requires rdf:resource="http://creativecommons.org/ns#Attribution"/><cc:permits rdf:resource="http://creativecommons.org/ns#DerivativeWorks"/><cc:requires rdf:resource="http://creativecommons.org/ns#ShareAlike"/></cc:License></rdf:RDF></metadata><path d="M32 294.067a28 16 0 0 0-28 16 28 16 0 0 0 17.104 14.738A18 8 0 0 0 38 330.067a18 8 0 0 0 18-8 18 8 0 0 0-1.135-2.782A28 16 0 0 0 60 310.067a28 16 0 0 0-28-16z" style="fill:#52a2ec;fill-opacity:1;stroke:#000;stroke-width:2;stroke-miterlimit:4;stroke-dasharray:none;stroke-opacity:.25081434" transform="translate(0 -280.067)"/><path d="M22 304.067s4 0 8-4l8 4-8-2c-4 2-8 2-8 2z" style="fill:#85bef2;fill-opacity:1;stroke:none;stroke-width:1px;stroke-linecap:butt;stroke-linejoin:miter;stroke-opacity:1" transform="translate(0 -280.067)"/><path d="M12 312.067s4 0 8-4l8 4-8-2c-4 2-8 2-8 2z" style="fill:#85bef2;fill-opacity:1;stroke:none;stroke-width:1px;stroke-linecap:butt;stroke-linejoin:miter;stroke-opacity:1" transform="translate(0 -280.067)"/><path d="M40 312.067s4 0 8-4l8 4-8-2c-4 2-8 2-8 2z" style="fill:#85bef2;fill-opacity:1;stroke:none;stroke-width:1px;stroke-linecap:butt;stroke-linejoin:miter;stroke-opacity:1" transform="translate(0 -280.067)"/><path d="M28 320.067s4 0 8-4l8 4-8-2c-4 2-8 2-8 2z" style="fill:#85bef2;fill-opacity:1;stroke:none;stroke-width:1px;stroke-linecap:butt;stroke-linejoin:miter;stroke-opacity:1" transform="translate(0 -280.067)"/></svg>