<!--Created with Inkscape (http://www.inkscape.org/)--><svg xmlns:dc="http://purl.org/dc/elements/1.1/" xmlns:cc="http://creativecommons.org/ns#" xmlns:rdf="http://www.w3.org/1999/02/22-rdf-syntax-ns#" xmlns="http://www.w3.org/2000/svg" xmlns:sodipodi="http://sodipodi.sourceforge.net/DTD/sodipodi-0.dtd" xmlns:inkscape="http://www.inkscape.org/namespaces/inkscape" width="100" height="100" viewBox="0 0 100 100" inkscape:version="0.91 r13725" sodipodi:docname="missing-letter.svg"><sodipodi:namedview pagecolor="#ffffff" bordercolor="#666666" borderopacity="1.0" inkscape:pageopacity="0.0" inkscape:pageshadow="2" inkscape:zoom="5.6" inkscape:cx="46.829147" inkscape:cy="56.073544" inkscape:document-units="px" inkscape:current-layer="layer1" showgrid="false" units="px" inkscape:window-width="1280" inkscape:window-height="959" inkscape:window-x="0" inkscape:window-y="0" inkscape:window-maximized="1"/><metadata><rdf:RDF><cc:Work><dc:format>image/svg+xml</dc:format><dc:type rdf:resource="http://purl.org/dc/dcmitype/StillImage"/><dc:title/><dc:date>2017</dc:date><dc:creator><cc:Agent><dc:title>Timothée Giet and Ilya Bizyaev</dc:title></cc:Agent></dc:creator><cc:license rdf:resource="http://creativecommons.org/licenses/by-sa/4.0/"/></cc:Work><cc:License rdf:about="http://creativecommons.org/licenses/by-sa/4.0/"><cc:permits rdf:resource="http://creativecommons.org/ns#Reproduction"/><cc:permits rdf:resource="http://creativecommons.org/ns#Distribution"/><cc:requires rdf:resource="http://creativecommons.org/ns#Notice"/><cc:requires rdf:resource="http://creativecommons.org/ns#Attribution"/><cc:permits rdf:resource="http://creativecommons.org/ns#DerivativeWorks"/><cc:requires rdf:resource="http://creativecommons.org/ns#ShareAlike"/></cc:License></rdf:RDF></metadata><g inkscape:label="Layer 1" inkscape:groupmode="layer"><path d="m64.854 961.66 3.328 12.755q-4.177-3.028-9.222-2.46-5.833.659-9.352 5.073-3.359 4.228-2.74 9.715l.064.567q.983 5.74 5.573 8.708 4.152 2.808 8.962 2.265.456-.051.906-.158 4.882-.9 8.097-4.413l-.344 12.707q-2.95 1.775-5.703 2.31-1.446.33-2.87.49-3.898.44-7.723-.332-5.153-1.015-9.4-4.035-4.225-2.967-6.788-7.326-2.597-4.284-3.166-9.33-.524-4.643.691-9.134 1.216-4.49 3.893-8.18 2.629-3.627 6.588-6.132 3.963-2.462 8.638-3.213l2.433-.275q4.077-.46 8.135.399z" style="font-style:normal;font-variant:normal;font-weight:400;font-stretch:normal;font-size:medium;line-height:125%;font-family:Kabel;-inkscape-font-specification:Kabel;letter-spacing:0;word-spacing:0;fill:#278343;fill-opacity:1;stroke:none;stroke-width:1px;stroke-linecap:butt;stroke-linejoin:miter;stroke-opacity:1" inkscape:connector-curvature="0" transform="scale(.72867) rotate(5.107 10366.93 1209.21)"/><path sodipodi:nodetypes="ccccccccccc" inkscape:connector-curvature="0" d="m63.42 964.365 3.056 7.853c-3.108-2.4-7.36-2.802-11.032-1.608-4.655 1.194-8.72 4.8-9.925 9.529-1.73 6.257.035 13.7 5.37 17.706 6.282 3.641 12.977 3.727 17.552-1.217l-.334 7.534c-4.968 3-11.252 3.28-16.729 1.631-7.893-2.354-13.068-9.611-13.902-17.852-1.056-8.594 2.64-17.825 10.4-21.785 5.283-2.19 10.467-2.85 15.544-1.791z" style="font-style:normal;font-variant:normal;font-weight:400;font-stretch:normal;font-size:medium;line-height:125%;font-family:Kabel;-inkscape-font-specification:Kabel;letter-spacing:0;word-spacing:0;fill:#41da70;fill-opacity:1;stroke:none;stroke-width:1px;stroke-linecap:butt;stroke-linejoin:miter;stroke-opacity:1" transform="scale(.72867) rotate(5.107 10366.93 1209.21)"/><path d="M-18.45 122.337-4.5 94.971l13.98 27.366-6.542 1.422-2.789-5.817h-9.585l-2.464 5.886-6.55-1.49zM-2.1 112.56l-2.595-5.724-2.526 5.724h5.121z" style="font-style:normal;font-variant:normal;font-weight:400;font-stretch:normal;font-size:medium;line-height:125%;font-family:Kabel;-inkscape-font-specification:Kabel;letter-spacing:0;word-spacing:0;fill:#833527;fill-opacity:1;stroke:none;stroke-width:1px;stroke-linecap:butt;stroke-linejoin:miter;stroke-opacity:1" inkscape:connector-curvature="0" transform="rotate(-.089 -148050.42 -45580.156) scale(1.24042)"/><path sodipodi:nodetypes="cccccccccccc" d="m-16.899 121.86 12.46-24.415 12.527 24.203-4.67.999-2.739-5.686-10.657-.148-2.73 5.824zm16.31-8.303-4.135-8.486-4.097 8.462z" style="font-style:normal;font-variant:normal;font-weight:400;font-stretch:normal;font-size:medium;line-height:125%;font-family:Kabel;-inkscape-font-specification:Kabel;letter-spacing:0;word-spacing:0;fill:#dd5d46;fill-opacity:1;stroke:none;stroke-width:1px;stroke-linecap:butt;stroke-linejoin:miter;stroke-opacity:1" inkscape:connector-curvature="0" transform="rotate(-.089 -148050.42 -45580.156) scale(1.24042)"/><g><path d="M50.545 1009.943c-1.505 0-2.873.398-3.852 1.332-.985.942-1.42 2.315-1.42 3.805 0 1.46.46 2.822 1.432 3.773h.006l.004.01c.98.937 2.345 1.356 3.83 1.356 1.467 0 2.827-.44 3.797-1.389h.006l.006-.01c.956-.956 1.42-2.303 1.42-3.74 0-1.47-.456-2.835-1.438-3.777-.964-.94-2.32-1.36-3.791-1.36zm1.32-26.15c-3.948 0-7.718.998-11.226 2.965l-1.112.623 3.606 7.244 1.205-.613c2.735-1.396 5.091-2.045 7.035-2.045 1.105 0 1.813.225 2.22.513.388.275.509.482.509 1.122a2.49 2.49 0 0 1-.506 1.562l-.004.008-.006.008c-.3.428-1.257 1.327-2.768 2.406l-.006.006-.007.006c-1.712 1.257-2.96 2.47-3.72 3.784-.74 1.284-1.095 2.78-1.095 4.402v2.992H54.588v-2.68c0-.703.145-1.134.328-1.408.18-.251 1.035-1.076 2.416-2.098l-.02.014c2.162-1.544 3.694-2.948 4.604-4.404.891-1.426 1.322-3.113 1.322-4.955 0-2.786-1.121-5.231-3.219-6.935h-.002c-2.09-1.71-4.869-2.516-8.152-2.516z" style="color:#000;font-style:normal;font-variant:normal;font-weight:700;font-stretch:normal;font-size:50px;line-height:125%;font-family:'Noto Sans';-inkscape-font-specification:'Noto Sans Bold';text-indent:0;text-align:start;text-decoration:none;text-decoration-line:none;text-decoration-style:solid;text-decoration-color:#000;letter-spacing:0;word-spacing:0;text-transform:none;direction:ltr;block-progression:tb;writing-mode:lr-tb;baseline-shift:baseline;text-anchor:start;white-space:normal;clip-rule:nonzero;display:inline;overflow:visible;visibility:visible;opacity:1;isolation:auto;mix-blend-mode:normal;color-interpolation:sRGB;color-interpolation-filters:linearRGB;solid-color:#000;solid-opacity:1;fill:#005199;fill-opacity:1;fill-rule:nonzero;stroke:none;stroke-width:2.67600012;stroke-linecap:butt;stroke-linejoin:miter;stroke-miterlimit:4;stroke-dasharray:none;stroke-dashoffset:0;stroke-opacity:1;color-rendering:auto;image-rendering:auto;shape-rendering:auto;text-rendering:auto;enable-background:accumulate" inkscape:connector-curvature="0" transform="translate(.876 -952.362)"/><path d="M47.327 1007.437v-1.654q0-2.146.917-3.733.916-1.587 3.352-3.375 2.347-1.676 3.085-2.726.76-1.05.76-2.347 0-1.453-1.073-2.213t-2.995-.76q-3.353 0-7.644 2.19l-2.436-4.894q4.984-2.794 10.571-2.794 4.605 0 7.309 2.213 2.727 2.212 2.727 5.9 0 2.459-1.118 4.247-1.117 1.788-4.246 4.023-2.146 1.587-2.727 2.414-.559.827-.559 2.168v1.34h-5.923zm-.715 7.643q0-1.877 1.006-2.838 1.006-.961 2.928-.961 1.855 0 2.86.983 1.029.984 1.029 2.816 0 1.766-1.028 2.794-1.028 1.006-2.861 1.006-1.878 0-2.906-.983-1.028-1.006-1.028-2.817z" style="font-style:normal;font-variant:normal;font-weight:700;font-stretch:normal;font-size:50px;line-height:125%;font-family:'Noto Sans';-inkscape-font-specification:'Noto Sans Bold';letter-spacing:0;word-spacing:0;fill:#2397ff;fill-opacity:1;stroke:none;stroke-width:1.33839321;stroke-linecap:butt;stroke-linejoin:miter;stroke-miterlimit:4;stroke-dasharray:none;stroke-opacity:1" inkscape:connector-curvature="0" transform="translate(.876 -952.362)"/></g></g></svg>