<!--Created with Inkscape (http://www.inkscape.org/)--><svg xmlns:dc="http://purl.org/dc/elements/1.1/" xmlns:cc="http://creativecommons.org/ns#" xmlns:rdf="http://www.w3.org/1999/02/22-rdf-syntax-ns#" xmlns="http://www.w3.org/2000/svg" xmlns:xlink="http://www.w3.org/1999/xlink" xmlns:sodipodi="http://sodipodi.sourceforge.net/DTD/sodipodi-0.dtd" xmlns:inkscape="http://www.inkscape.org/namespaces/inkscape" width="100" height="100" sodipodi:version="0.32" inkscape:version="0.91 r13725" version="1.0" sodipodi:docname="redraw.svg"><defs><linearGradient inkscape:collect="always" xlink:href="#a" id="b" x1="940.9632" y1="637.41199" x2="945.6795" y2="650.04968" gradientUnits="userSpaceOnUse" gradientTransform="matrix(1 0 0 1.08592 0 -53.897)"/><linearGradient inkscape:collect="always" id="a"><stop style="stop-color:#275eb1;stop-opacity:1" offset="0"/><stop style="stop-color:#e6ecf9;stop-opacity:1" offset="1"/></linearGradient><linearGradient inkscape:collect="always" xlink:href="#a" id="c" x1="940.9632" y1="637.41199" x2="945.6795" y2="650.04968" gradientUnits="userSpaceOnUse" gradientTransform="matrix(-1 0 0 1.08592 1919.998 -53.897)"/><linearGradient inkscape:collect="always" xlink:href="#a" id="d" gradientUnits="userSpaceOnUse" gradientTransform="matrix(1 0 0 1.08592 0 -53.897)" x1="940.9632" y1="637.41199" x2="945.6795" y2="650.04968"/><linearGradient inkscape:collect="always" xlink:href="#a" id="e" gradientUnits="userSpaceOnUse" gradientTransform="matrix(-1 0 0 1.08592 1919.998 -53.897)" x1="940.9632" y1="637.41199" x2="945.6795" y2="650.04968"/></defs><sodipodi:namedview pagecolor="#ffffff" bordercolor="#666666" borderopacity="1.0" inkscape:pageopacity="0.0" inkscape:pageshadow="2" inkscape:zoom="4.2" inkscape:cx="41.149273" inkscape:cy="35.454314" inkscape:document-units="px" inkscape:current-layer="layer1" width="100px" height="100px" inkscape:window-width="1880" inkscape:window-height="1060" inkscape:window-x="-3" inkscape:window-y="-3" showgrid="false" inkscape:window-maximized="1" showguides="false"/><metadata><rdf:RDF><cc:Work><dc:format>image/svg+xml</dc:format><dc:type rdf:resource="http://purl.org/dc/dcmitype/StillImage"/><dc:title/><dc:date>2015</dc:date><dc:creator><cc:Agent><dc:title>Timothée Giet</dc:title></cc:Agent></dc:creator><cc:license rdf:resource="http://creativecommons.org/licenses/by-sa/4.0/"/></cc:Work><cc:License rdf:about="http://creativecommons.org/licenses/by-sa/4.0/"><cc:permits rdf:resource="http://creativecommons.org/ns#Reproduction"/><cc:permits rdf:resource="http://creativecommons.org/ns#Distribution"/><cc:requires rdf:resource="http://creativecommons.org/ns#Notice"/><cc:requires rdf:resource="http://creativecommons.org/ns#Attribution"/><cc:permits rdf:resource="http://creativecommons.org/ns#DerivativeWorks"/><cc:requires rdf:resource="http://creativecommons.org/ns#ShareAlike"/></cc:License></rdf:RDF></metadata><g inkscape:label="Calque 1" inkscape:groupmode="layer"><rect style="color:#000;clip-rule:nonzero;display:inline;overflow:visible;visibility:visible;opacity:1;isolation:auto;mix-blend-mode:normal;color-interpolation:sRGB;color-interpolation-filters:linearRGB;solid-color:#000;solid-opacity:1;fill:#ed8d11;fill-opacity:1;fill-rule:nonzero;stroke:none;stroke-width:1.18700004;stroke-linecap:butt;stroke-linejoin:miter;stroke-miterlimit:4;stroke-dasharray:none;stroke-dashoffset:0;stroke-opacity:1;marker:none;color-rendering:auto;image-rendering:auto;shape-rendering:auto;text-rendering:auto;enable-background:accumulate" width="44.446712" height="64.481407" x="3.7766416" y="34.427227" ry="5.6322298"/><rect style="color:#000;clip-rule:nonzero;display:inline;overflow:visible;visibility:visible;opacity:1;isolation:auto;mix-blend-mode:normal;color-interpolation:sRGB;color-interpolation-filters:linearRGB;solid-color:#000;solid-opacity:1;fill:#dfdfdf;fill-opacity:1;fill-rule:nonzero;stroke:none;stroke-width:1.18700004;stroke-linecap:butt;stroke-linejoin:miter;stroke-miterlimit:4;stroke-dasharray:none;stroke-dashoffset:0;stroke-opacity:1;marker:none;color-rendering:auto;image-rendering:auto;shape-rendering:auto;text-rendering:auto;enable-background:accumulate" width="39.80476" height="59.430641" x="6.0976191" y="36.95261" ry="5.1910629"/><path style="fill:#6cafe4;fill-opacity:1;fill-rule:evenodd;stroke:none;stroke-width:1px;stroke-linecap:butt;stroke-linejoin:miter;stroke-opacity:1" d="M11.29 36.953a5.18 5.18 0 0 0-5.192 5.192v39.607c8.843-3.065 29.307-2.252 39.805.648V42.145a5.18 5.18 0 0 0-5.192-5.192H11.29z" inkscape:connector-curvature="0"/><path style="display:inline;opacity:.98999999;fill:#a78014;fill-opacity:1;stroke:none" d="M30.088 84.853c1.784-.015 6.991 1.928 6.823 2.666-.044.192-1.866.843-2.572 1.175-.403.19.19.768-.185.814-.375.046-1.396-.37-2.217-.427-1.054-.073-3.058.226-3.506.182-.447-.045-1.035-3.243-.785-3.359.74-.341 1.915-1.012 2.442-1.05z" inkscape:connector-curvature="0" sodipodi:nodetypes="csszszcc"/><path style="display:inline;fill:#a78014;fill-opacity:1;stroke:none" d="M21.654 84.853c-1.783-.014-6.99 1.928-6.823 2.666.044.192 1.866.843 2.572 1.176.403.19-.19.767.185.813.375.046 1.397-.37 2.217-.427 1.055-.073 3.059.226 3.506.182.447-.045 1.035-3.243.786-3.359-.741-.341-1.916-1.012-2.443-1.05z" inkscape:connector-curvature="0" sodipodi:nodetypes="csszszcc"/><g style="display:inline"><path sodipodi:nodetypes="csszszcc" inkscape:connector-curvature="0" d="M921.346 828.775c-13.481-.111-52.851 12.575-51.58 18.152.332 1.453 14.107 4.373 19.444 6.887 3.046 1.435.311 5.803 3.144 6.152 2.833.35 8.811-2.802 15.015-3.23 7.971-.549 25.123 1.968 28.504 1.63 3.38-.336 3.827-22.77 1.94-23.647-5.6-2.58-12.483-5.65-16.467-5.944z" style="display:inline;fill:#e2a70e;fill-opacity:1;stroke:none" transform="matrix(.11538 0 0 .11538 -84.963 -10.24)"/><path sodipodi:nodetypes="csszszcc" inkscape:connector-curvature="0" d="M999.311 828.775c13.482-.111 52.851 12.575 51.58 18.152-.332 1.453-14.107 4.373-19.443 6.887-3.046 1.435-.312 5.803-3.144 6.152-2.833.35-8.812-2.802-15.016-3.23-7.97-.549-25.123 1.968-28.503 1.63-3.38-.336-3.828-22.77-1.941-23.647 5.6-2.58 12.483-5.65 16.467-5.944z" style="display:inline;fill:#e2a70e;fill-opacity:1;stroke:none" transform="matrix(.11538 0 0 .11538 -84.963 -10.24)"/></g><g style="display:inline;fill:#2a2a2a;fill-opacity:1"><path sodipodi:nodetypes="ssszzzs" inkscape:connector-curvature="0" d="M1047.58 761.802c0 48.37-39.21 87.581-87.58 87.581s-87.58-39.211-87.58-87.58c0-24.185 13.802-71.41 29.651-112.587 15.85-41.178 25.492-72.5 59.033-72.5 33.542 0 40.976 31.322 56.825 72.5 15.849 41.178 29.652 88.402 29.652 112.586z" style="color:#000;display:inline;overflow:visible;visibility:visible;fill:#2a2a2a;fill-opacity:1;fill-rule:nonzero;stroke:none;stroke-width:.5;marker:none;enable-background:accumulate" transform="matrix(.11538 0 0 .11538 -84.925 -10.24)"/><path sodipodi:nodetypes="ccsc" inkscape:connector-curvature="0" d="M1037.622 728.006c23.716-.38 52.738-28.768 62.663-61.58 10.97-19.992-52.963 27.642-74.214 8.527-12.131-10.912 6.473 51.314 11.55 53.053z" style="fill:#2a2a2a;fill-opacity:1;stroke:none" transform="matrix(.11538 0 0 .11538 -84.925 -10.24)"/><path sodipodi:nodetypes="ccsc" inkscape:connector-curvature="0" d="M882.378 728.006c-23.716-.38-55.657 10.63-59.745 12.839-10.97-19.992 50.045-46.777 71.296-65.892 12.131-10.912-6.473 51.314-11.55 53.053z" style="display:inline;fill:#2a2a2a;fill-opacity:1;stroke:none" transform="matrix(.11538 0 0 .11538 -84.925 -10.24)"/></g><path style="color:#000;display:inline;overflow:visible;visibility:visible;fill:#f2f2f2;fill-opacity:1;fill-rule:nonzero;stroke:none;stroke-width:.5;marker:none;enable-background:accumulate" d="M32.892 75.656c0 4.435-3.03 7.8-7.054 7.8-4.024 0-7.055-3.365-7.055-7.8s3.031-8.723 7.055-8.723c4.023 0 7.054 4.288 7.054 8.723z" inkscape:connector-curvature="0" sodipodi:nodetypes="sssss"/><path style="color:#000;display:inline;overflow:visible;visibility:visible;fill:#b28b16;fill-opacity:1;fill-rule:nonzero;stroke:none;stroke-width:.5;marker:none;enable-background:accumulate" d="M30.3 68.93c0 .92-2.633 3.296-4.462 3.296-1.83 0-4.462-2.467-4.462-3.296 0-.736 1.997-2.758 4.462-2.758 2.464 0 4.462 1.962 4.462 2.758z" inkscape:connector-curvature="0" sodipodi:nodetypes="szszs"/><path style="color:#000;display:inline;overflow:visible;visibility:visible;fill:#f1c43c;fill-opacity:1;fill-rule:nonzero;stroke:none;stroke-width:.5;marker:none;enable-background:accumulate" d="M29.685 68.967c0 .793-2.27 2.842-3.847 2.842-1.578 0-3.848-2.127-3.848-2.842 0-.635 1.306-2.61 3.848-2.61 2.541 0 3.847 1.923 3.847 2.61z" inkscape:connector-curvature="0" sodipodi:nodetypes="szszs"/><path style="color:#000;font-style:normal;font-variant:normal;font-weight:400;font-stretch:normal;font-size:medium;line-height:normal;font-family:Sans;-inkscape-font-specification:Sans;text-indent:0;text-align:start;text-decoration:none;text-decoration-line:none;letter-spacing:normal;word-spacing:normal;text-transform:none;direction:ltr;block-progression:tb;writing-mode:lr-tb;baseline-shift:baseline;text-anchor:start;display:inline;overflow:visible;visibility:visible;fill:#b28b16;fill-opacity:1;stroke:none;stroke-width:1px;marker:none;enable-background:accumulate" d="m21.536 69.024-.007.083s1.851 1.922 4.309 1.922c2.457 0 4.308-1.922 4.308-1.922l-.007-.083s-1.904 1.768-4.301 1.768c-2.398 0-4.302-1.768-4.302-1.768z" inkscape:connector-curvature="0" sodipodi:nodetypes="ccsccsc"/><g style="display:inline"><path sodipodi:nodetypes="zzzz" inkscape:connector-curvature="0" d="M939.016 625.167c8.223-3.274 13.362 12.734 11.801 21.21-1.56 8.477-9.504 12.463-16.25 5.307-6.746-7.157-3.775-23.242 4.449-26.517z" style="fill:#f2f2f5;fill-opacity:1;stroke:none" transform="matrix(.11538 0 0 .11538 -84.921 -10.24)"/><path sodipodi:nodetypes="zzz" inkscape:connector-curvature="0" d="M942.972 636.293c6.989-.193 7.867 17.204 1.526 16.26-6.34-.943-8.514-16.066-1.526-16.26z" style="display:inline;fill:url(#b);fill-opacity:1;stroke:none" transform="matrix(.11538 0 0 .11538 -84.921 -10.24)"/><path sodipodi:nodetypes="zzz" inkscape:connector-curvature="0" d="M943.913 641.709c2.95-.087 3.321 7.675.645 7.254-2.677-.42-3.595-7.168-.645-7.254z" style="fill:#171717;fill-opacity:1;stroke:none" transform="matrix(.11538 0 0 .11538 -84.921 -10.24)"/><path sodipodi:nodetypes="zzzz" inkscape:connector-curvature="0" d="M980.92 625.167c-8.223-3.274-13.361 12.734-11.8 21.21 1.56 8.477 9.504 12.463 16.25 5.307 6.746-7.157 3.774-23.242-4.449-26.517z" style="display:inline;fill:#f2f2f5;fill-opacity:1;stroke:none" transform="matrix(.11538 0 0 .11538 -84.921 -10.24)"/><path sodipodi:nodetypes="zzz" inkscape:connector-curvature="0" d="M977.026 636.293c-6.989-.193-7.868 17.204-1.526 16.26 6.34-.943 8.514-16.066 1.526-16.26z" style="display:inline;fill:url(#c);fill-opacity:1;stroke:none" transform="matrix(.11538 0 0 .11538 -84.921 -10.24)"/><path sodipodi:nodetypes="zzz" inkscape:connector-curvature="0" d="M976.087 641.709c-2.95-.087-3.321 7.675-.645 7.254 2.677-.42 3.595-7.168.645-7.254z" style="display:inline;fill:#171717;fill-opacity:1;stroke:none" transform="matrix(.11538 0 0 .11538 -84.921 -10.24)"/><path sodipodi:nodetypes="zzz" inkscape:connector-curvature="0" d="M941.33 639.5c2.594-.066 2.92 5.77.566 5.453-2.354-.317-3.16-5.389-.566-5.454z" style="display:inline;fill:#fff;fill-opacity:.90232556;stroke:none" transform="matrix(.11538 0 0 .11538 -84.921 -10.24)"/><path sodipodi:nodetypes="zzz" inkscape:connector-curvature="0" d="M942.1 645.818c1.704-.034 1.918 3.048.372 2.88-1.547-.167-2.077-2.846-.373-2.88z" style="display:inline;fill:#fff;fill-opacity:.76744187;stroke:none" transform="matrix(.11538 0 0 .11538 -84.921 -10.24)"/><path sodipodi:nodetypes="zzz" inkscape:connector-curvature="0" d="M974.668 639.5c-2.594-.066-2.92 5.77-.566 5.453 2.354-.317 3.16-5.389.566-5.454z" style="display:inline;fill:#fff;fill-opacity:.90232556;stroke:none" transform="matrix(.11538 0 0 .11538 -84.921 -10.24)"/><path sodipodi:nodetypes="zzz" inkscape:connector-curvature="0" d="M973.898 645.818c-1.704-.034-1.919 3.048-.372 2.88 1.547-.167 2.077-2.846.372-2.88z" style="display:inline;fill:#fff;fill-opacity:.76744187;stroke:none" transform="matrix(.11538 0 0 .11538 -84.921 -10.24)"/></g><rect style="color:#000;clip-rule:nonzero;display:inline;overflow:visible;visibility:visible;opacity:1;isolation:auto;mix-blend-mode:normal;color-interpolation:sRGB;color-interpolation-filters:linearRGB;solid-color:#000;solid-opacity:1;fill:#ed8d11;fill-opacity:1;fill-rule:nonzero;stroke:none;stroke-width:1.18700004;stroke-linecap:butt;stroke-linejoin:miter;stroke-miterlimit:4;stroke-dasharray:none;stroke-dashoffset:0;stroke-opacity:1;marker:none;color-rendering:auto;image-rendering:auto;shape-rendering:auto;text-rendering:auto;enable-background:accumulate" width="44.446712" height="64.481407" x="51.776646" y="34.427227" ry="5.6322298"/><rect style="color:#000;clip-rule:nonzero;display:inline;overflow:visible;visibility:visible;opacity:1;isolation:auto;mix-blend-mode:normal;color-interpolation:sRGB;color-interpolation-filters:linearRGB;solid-color:#000;solid-opacity:1;fill:#dfdfdf;fill-opacity:1;fill-rule:nonzero;stroke:none;stroke-width:1.18700004;stroke-linecap:butt;stroke-linejoin:miter;stroke-miterlimit:4;stroke-dasharray:none;stroke-dashoffset:0;stroke-opacity:1;marker:none;color-rendering:auto;image-rendering:auto;shape-rendering:auto;text-rendering:auto;enable-background:accumulate" width="39.80476" height="59.430641" x="54.097614" y="36.95261" ry="5.1910629"/><path style="fill:#6cafe4;fill-opacity:1;fill-rule:evenodd;stroke:none;stroke-width:1px;stroke-linecap:butt;stroke-linejoin:miter;stroke-opacity:1" d="M59.29 36.953a5.18 5.18 0 0 0-5.192 5.192v39.607c8.843-3.065 29.307-2.252 39.805.648V42.145a5.18 5.18 0 0 0-5.192-5.192H59.29z" inkscape:connector-curvature="0"/><path style="display:inline;opacity:.98999999;fill:#a78014;fill-opacity:1;stroke:none" d="M78.088 84.853c1.784-.015 6.991 1.928 6.823 2.666-.044.192-1.866.843-2.572 1.175-.403.19.19.768-.185.814-.375.046-1.396-.37-2.217-.427-1.054-.073-3.058.226-3.506.182-.447-.045-1.035-3.243-.785-3.359.74-.341 1.915-1.012 2.442-1.05z" inkscape:connector-curvature="0" sodipodi:nodetypes="csszszcc"/><path style="display:inline;fill:#a78014;fill-opacity:1;stroke:none" d="M69.654 84.853c-1.783-.014-6.99 1.928-6.823 2.666.044.192 1.866.843 2.572 1.176.403.19-.19.767.185.813.375.046 1.397-.37 2.217-.427 1.055-.073 3.059.226 3.506.182.447-.045 1.035-3.243.786-3.359-.741-.341-1.916-1.012-2.443-1.05z" inkscape:connector-curvature="0" sodipodi:nodetypes="csszszcc"/><g style="display:inline"><path sodipodi:nodetypes="csszszcc" inkscape:connector-curvature="0" d="M921.346 828.775c-13.481-.111-52.851 12.575-51.58 18.152.332 1.453 14.107 4.373 19.444 6.887 3.046 1.435.311 5.803 3.144 6.152 2.833.35 8.811-2.802 15.015-3.23 7.971-.549 25.123 1.968 28.504 1.63 3.38-.336 3.827-22.77 1.94-23.647-5.6-2.58-12.483-5.65-16.467-5.944z" style="display:inline;fill:#e2a70e;fill-opacity:1;stroke:none" transform="matrix(.11538 0 0 .11538 -36.963 -10.24)"/><path sodipodi:nodetypes="csszszcc" inkscape:connector-curvature="0" d="M999.311 828.775c13.482-.111 52.851 12.575 51.58 18.152-.332 1.453-14.107 4.373-19.443 6.887-3.046 1.435-.312 5.803-3.144 6.152-2.833.35-8.812-2.802-15.016-3.23-7.97-.549-25.123 1.968-28.503 1.63-3.38-.336-3.828-22.77-1.941-23.647 5.6-2.58 12.483-5.65 16.467-5.944z" style="display:inline;fill:#e2a70e;fill-opacity:1;stroke:none" transform="matrix(.11538 0 0 .11538 -36.963 -10.24)"/></g><g style="display:inline;fill:#2a2a2a;fill-opacity:1"><path sodipodi:nodetypes="ssszzzs" inkscape:connector-curvature="0" d="M1047.58 761.802c0 48.37-39.21 87.581-87.58 87.581s-87.58-39.211-87.58-87.58c0-24.185 13.802-71.41 29.651-112.587 15.85-41.178 25.492-72.5 59.033-72.5 33.542 0 40.976 31.322 56.825 72.5 15.849 41.178 29.652 88.402 29.652 112.586z" style="color:#000;display:inline;overflow:visible;visibility:visible;fill:#2a2a2a;fill-opacity:1;fill-rule:nonzero;stroke:none;stroke-width:.5;marker:none;enable-background:accumulate" transform="matrix(.11538 0 0 .11538 -36.925 -10.24)"/><path sodipodi:nodetypes="ccsc" inkscape:connector-curvature="0" d="M1037.622 728.006c23.716-.38 52.738-28.768 62.663-61.58 10.97-19.992-52.963 27.642-74.214 8.527-12.131-10.912 6.473 51.314 11.55 53.053z" style="fill:#2a2a2a;fill-opacity:1;stroke:none" transform="matrix(.11538 0 0 .11538 -36.925 -10.24)"/><path sodipodi:nodetypes="ccsc" inkscape:connector-curvature="0" d="M882.378 728.006c-23.716-.38-55.657 10.63-59.745 12.839-10.97-19.992 50.045-46.777 71.296-65.892 12.131-10.912-6.473 51.314-11.55 53.053z" style="display:inline;fill:#2a2a2a;fill-opacity:1;stroke:none" transform="matrix(.11538 0 0 .11538 -36.925 -10.24)"/></g><path style="color:#000;display:inline;overflow:visible;visibility:visible;fill:#f2f2f2;fill-opacity:1;fill-rule:nonzero;stroke:none;stroke-width:.5;marker:none;enable-background:accumulate" d="M80.892 75.656c0 4.435-3.03 7.8-7.054 7.8-4.024 0-7.055-3.365-7.055-7.8s3.031-8.723 7.055-8.723c4.023 0 7.054 4.288 7.054 8.723z" inkscape:connector-curvature="0" sodipodi:nodetypes="sssss"/><path style="color:#000;display:inline;overflow:visible;visibility:visible;fill:#b28b16;fill-opacity:1;fill-rule:nonzero;stroke:none;stroke-width:.5;marker:none;enable-background:accumulate" d="M78.3 68.93c0 .92-2.633 3.296-4.462 3.296-1.83 0-4.462-2.467-4.462-3.296 0-.736 1.997-2.758 4.462-2.758 2.464 0 4.462 1.962 4.462 2.758z" inkscape:connector-curvature="0" sodipodi:nodetypes="szszs"/><path style="color:#000;display:inline;overflow:visible;visibility:visible;fill:#f1c43c;fill-opacity:1;fill-rule:nonzero;stroke:none;stroke-width:.5;marker:none;enable-background:accumulate" d="M77.685 68.967c0 .793-2.27 2.842-3.847 2.842-1.578 0-3.848-2.127-3.848-2.842 0-.635 1.306-2.61 3.848-2.61 2.541 0 3.847 1.923 3.847 2.61z" inkscape:connector-curvature="0" sodipodi:nodetypes="szszs"/><path style="color:#000;font-style:normal;font-variant:normal;font-weight:400;font-stretch:normal;font-size:medium;line-height:normal;font-family:Sans;-inkscape-font-specification:Sans;text-indent:0;text-align:start;text-decoration:none;text-decoration-line:none;letter-spacing:normal;word-spacing:normal;text-transform:none;direction:ltr;block-progression:tb;writing-mode:lr-tb;baseline-shift:baseline;text-anchor:start;display:inline;overflow:visible;visibility:visible;fill:#b28b16;fill-opacity:1;stroke:none;stroke-width:1px;marker:none;enable-background:accumulate" d="m69.536 69.024-.007.083s1.851 1.922 4.309 1.922c2.457 0 4.308-1.922 4.308-1.922l-.007-.083s-1.904 1.768-4.301 1.768c-2.398 0-4.302-1.768-4.302-1.768z" inkscape:connector-curvature="0" sodipodi:nodetypes="ccsccsc"/><g style="display:inline"><path sodipodi:nodetypes="zzzz" inkscape:connector-curvature="0" d="M939.016 625.167c8.223-3.274 13.362 12.734 11.801 21.21-1.56 8.477-9.504 12.463-16.25 5.307-6.746-7.157-3.775-23.242 4.449-26.517z" style="fill:#f2f2f5;fill-opacity:1;stroke:none" transform="matrix(.11538 0 0 .11538 -36.921 -10.24)"/><path sodipodi:nodetypes="zzz" inkscape:connector-curvature="0" d="M942.972 636.293c6.989-.193 7.867 17.204 1.526 16.26-6.34-.943-8.514-16.066-1.526-16.26z" style="display:inline;fill:url(#d);fill-opacity:1;stroke:none" transform="matrix(.11538 0 0 .11538 -36.921 -10.24)"/><path sodipodi:nodetypes="zzz" inkscape:connector-curvature="0" d="M943.913 641.709c2.95-.087 3.321 7.675.645 7.254-2.677-.42-3.595-7.168-.645-7.254z" style="fill:#171717;fill-opacity:1;stroke:none" transform="matrix(.11538 0 0 .11538 -36.921 -10.24)"/><path sodipodi:nodetypes="zzzz" inkscape:connector-curvature="0" d="M980.92 625.167c-8.223-3.274-13.361 12.734-11.8 21.21 1.56 8.477 9.504 12.463 16.25 5.307 6.746-7.157 3.774-23.242-4.449-26.517z" style="display:inline;fill:#f2f2f5;fill-opacity:1;stroke:none" transform="matrix(.11538 0 0 .11538 -36.921 -10.24)"/><path sodipodi:nodetypes="zzz" inkscape:connector-curvature="0" d="M977.026 636.293c-6.989-.193-7.868 17.204-1.526 16.26 6.34-.943 8.514-16.066 1.526-16.26z" style="display:inline;fill:url(#e);fill-opacity:1;stroke:none" transform="matrix(.11538 0 0 .11538 -36.921 -10.24)"/><path sodipodi:nodetypes="zzz" inkscape:connector-curvature="0" d="M976.087 641.709c-2.95-.087-3.321 7.675-.645 7.254 2.677-.42 3.595-7.168.645-7.254z" style="display:inline;fill:#171717;fill-opacity:1;stroke:none" transform="matrix(.11538 0 0 .11538 -36.921 -10.24)"/><path sodipodi:nodetypes="zzz" inkscape:connector-curvature="0" d="M941.33 639.5c2.594-.066 2.92 5.77.566 5.453-2.354-.317-3.16-5.389-.566-5.454z" style="display:inline;fill:#fff;fill-opacity:.90232556;stroke:none" transform="matrix(.11538 0 0 .11538 -36.921 -10.24)"/><path sodipodi:nodetypes="zzz" inkscape:connector-curvature="0" d="M942.1 645.818c1.704-.034 1.918 3.048.372 2.88-1.547-.167-2.077-2.846-.373-2.88z" style="display:inline;fill:#fff;fill-opacity:.76744187;stroke:none" transform="matrix(.11538 0 0 .11538 -36.921 -10.24)"/><path sodipodi:nodetypes="zzz" inkscape:connector-curvature="0" d="M974.668 639.5c-2.594-.066-2.92 5.77-.566 5.453 2.354-.317 3.16-5.389.566-5.454z" style="display:inline;fill:#fff;fill-opacity:.90232556;stroke:none" transform="matrix(.11538 0 0 .11538 -36.921 -10.24)"/><path sodipodi:nodetypes="zzz" inkscape:connector-curvature="0" d="M973.898 645.818c-1.704-.034-1.919 3.048-.372 2.88 1.547-.167 2.077-2.846.372-2.88z" style="display:inline;fill:#fff;fill-opacity:.76744187;stroke:none" transform="matrix(.11538 0 0 .11538 -36.921 -10.24)"/></g></g></svg>