<?xml version="1.0" encoding="UTF-8" standalone="no"?>
<!-- Created with Inkscape (http://www.inkscape.org/) -->

<svg
   xmlns:dc="http://purl.org/dc/elements/1.1/"
   xmlns:cc="http://creativecommons.org/ns#"
   xmlns:rdf="http://www.w3.org/1999/02/22-rdf-syntax-ns#"
   xmlns:svg="http://www.w3.org/2000/svg"
   xmlns="http://www.w3.org/2000/svg"
   xmlns:sodipodi="http://sodipodi.sourceforge.net/DTD/sodipodi-0.dtd"
   xmlns:inkscape="http://www.inkscape.org/namespaces/inkscape"
   id="svg2"
   sodipodi:docname="back.svg"
   inkscape:export-filename="/datas/wiki/arrow_go_left.png"
   viewBox="0 0 50 40"
   sodipodi:version="0.32"
   inkscape:export-xdpi="90.000000"
   version="1.0"
   inkscape:output_extension="org.inkscape.output.svg.inkscape"
   inkscape:export-ydpi="90.000000"
   inkscape:version="0.91 r13725">
  <defs
     id="defs4">
    <linearGradient
       id="linearGradient2520"
       y2="42.613"
       gradientUnits="userSpaceOnUse"
       x2="44.702"
       gradientTransform="matrix(0,1,-1,0,63.627,-4.5653)"
       y1="34.687"
       x1="5.068"
       inkscape:collect="always">
      <stop
         id="stop2129"
         style="stop-color:#1b611f"
         offset="0" />
      <stop
         id="stop2131"
         style="stop-color:#103f14"
         offset="1" />
    </linearGradient>
    <linearGradient
       id="linearGradient2522"
       y2="62.81"
       gradientUnits="userSpaceOnUse"
       x2="16.504"
       gradientTransform="matrix(0,1,-1,0,63.627,-4.5653)"
       y1="15.406"
       x1="32.382"
       inkscape:collect="always">
      <stop
         id="stop1354"
         style="stop-color:#179907"
         offset="0" />
      <stop
         id="stop1356"
         style="stop-color:#0f7402"
         offset="1" />
    </linearGradient>
    <linearGradient
       id="linearGradient2524"
       y2="62.974"
       gradientUnits="userSpaceOnUse"
       x2="20.353"
       gradientTransform="matrix(0,1,-1,0,63.641,-4.3836)"
       y1="16.25"
       x1="28.414"
       inkscape:collect="always">
      <stop
         id="stop1408"
         style="stop-color:#56d760;stop-opacity:.58863"
         offset="0" />
      <stop
         id="stop1410"
         style="stop-color:#18b01f;stop-opacity:.39216"
         offset="1" />
    </linearGradient>
  </defs>
  <sodipodi:namedview
     id="base"
     bordercolor="#666666"
     inkscape:grid-points="false"
     inkscape:pageshadow="2"
     inkscape:window-y="24"
     pagecolor="#ffffff"
     inkscape:window-height="1176"
     inkscape:grid-bbox="false"
     inkscape:zoom="20.175"
     inkscape:window-x="65"
     showgrid="false"
     borderopacity="1.0"
     inkscape:current-layer="layer1"
     inkscape:cx="31.815366"
     inkscape:cy="20"
     showguides="false"
     inkscape:window-width="1855"
     inkscape:pageopacity="0.0"
     inkscape:document-units="px"
     inkscape:window-maximized="1">
    <inkscape:grid
       id="GridFromPre046Settings"
       opacity=".2"
       visible="true"
       color="#0000ff"
       enabled="true"
       originy="0px"
       originx="0px"
       empspacing="4"
       spacingy="1px"
       spacingx="1px"
       empopacity="0.4"
       type="xygrid"
       empcolor="#0000ff" />
  </sodipodi:namedview>
  <g
     id="layer1"
     inkscape:label="Calque 1"
     inkscape:groupmode="layer">
    <path
       inkscape:connector-curvature="0"
       d="m 32.471,6.591 -14.063,0 c -0.049,-1 0,-5 0,-5 -0.009,-0.447 -0.117,-0.83 -0.531,-1 C 17.463,0.421 17.01,0.498 16.689,0.81 l -15.99999997,16 c -0.42138,0.435 -0.42138,1.127 4.3e-4,1.562 l 15.99999997,16 c 0.321,0.312 0.774,0.42 1.188,0.25 0.414,-0.169 0.522,-0.584 0.531,-1.031 l 0,-5 7.938,0 c 2.281,-0.156 3.281,0.844 3.281,3.844 l 0,6.062 c 0,0 0,1 1,1 6,0 12,-0.062 18,-0.062 1,0 1,-1 1,-1 l 0,-12.5 c 0,-14.5 -8,-19.5 -17.156,-19.344 z"
       style="fill:url(#linearGradient2520)"
       sodipodi:nodetypes="cccsccccscccccssccc"
       id="path1388" />
    <path
       inkscape:connector-curvature="0"
       d="m 48.221,25.872 c 0,-7.003 -1.917,-11.445 -4.75,-14.187 C 40.637,8.942 36.766,7.798 32.439,7.872 l -0.031,0 -14.062,0 C 17.627,7.873 17.035,7.309 17.002,6.591 16.952,5.56 16.99,3.152 17.002,2.278 l -15.25,15.25 15.25,15.282 0,-4.282 c 0,-0.742 0.602,-1.343 1.344,-1.343 l 7.843,0 c 0.032,-0.002 0.062,0.001 0.094,0 1.318,-0.073 2.637,0.211 3.5,1.187 0.884,1 1.125,2.351 1.125,4 l 0,5.719 c 5.762,-0.002 11.533,-0.06 17.313,-0.063 l 0,-12.156 z"
       style="fill:url(#linearGradient2522)"
       id="path2147" />
    <path
       inkscape:connector-curvature="0"
       d="m 47.391,26.054 c 0,-6.849 -1.857,-11.036 -4.5,-13.594 C 40.249,9.903 36.623,8.827 32.453,8.898 l -0.031,0 -14.063,0 C 17.198,8.899 16.226,7.964 16.172,6.804 16.143,6.21 16.165,5.383 16.172,4.491 L 2.953,17.71 l 13.219,13.25 0,-2.25 c 0,-1.198 0.989,-2.187 2.187,-2.187 l 7.782,0 c 0.068,-0.005 0.045,-0.001 0.062,0 0.018,0 0.096,-0.002 0.063,0 1.469,-0.082 3.064,0.233 4.156,1.468 1.083,1.226 1.344,2.831 1.344,4.563 l 0,4.875 c 5.197,-0.007 10.405,-0.056 15.625,-0.063 l 0,-11.312 z"
       style="fill:url(#linearGradient2524)"
       id="path1412" />
  </g>
  <metadata
     id="metadata24">
    <rdf:RDF>
      <cc:Work>
        <dc:format>image/svg+xml</dc:format>
        <dc:type
           rdf:resource="http://purl.org/dc/dcmitype/StillImage" />
        <cc:license
           rdf:resource="http://creativecommons.org/licenses/publicdomain/" />
        <dc:publisher>
          <cc:Agent
             rdf:about="http://openclipart.org/">
            <dc:title>Openclipart</dc:title>
          </cc:Agent>
        </dc:publisher>
        <dc:title>arrow_go_left</dc:title>
        <dc:date>2008-05-26T11:32:36</dc:date>
        <dc:description />
        <dc:source>https://openclipart.org/detail/16963/arrow_go_left-by-jean_victor_balin</dc:source>
        <dc:creator>
          <cc:Agent>
            <dc:title>jean_victor_balin</dc:title>
          </cc:Agent>
        </dc:creator>
        <dc:subject>
          <rdf:Bag>
            <rdf:li>arrow</rdf:li>
            <rdf:li>icon</rdf:li>
          </rdf:Bag>
        </dc:subject>
      </cc:Work>
      <cc:License
         rdf:about="http://creativecommons.org/licenses/publicdomain/">
        <cc:permits
           rdf:resource="http://creativecommons.org/ns#Reproduction" />
        <cc:permits
           rdf:resource="http://creativecommons.org/ns#Distribution" />
        <cc:permits
           rdf:resource="http://creativecommons.org/ns#DerivativeWorks" />
      </cc:License>
    </rdf:RDF>
  </metadata>
</svg>
