<?xml version="1.0" encoding="utf-8"?>
<!-- Generated by IcoMoon.io -->
<!DOCTYPE svg PUBLIC "-//W3C//DTD SVG 1.1//EN" "http://www.w3.org/Graphics/SVG/1.1/DTD/svg11.dtd">
<svg version="1.1" xmlns="http://www.w3.org/2000/svg" xmlns:xlink="http://www.w3.org/1999/xlink" width="512" height="512" viewBox="0 0 512 512">
<g>
</g>
	<path d="M67.133 37.755l7.219-6c21.586-19.221 55.214-16.825 73.82 5.376l43.797 50.402-86.436 75.038-43.797-50.422c-19.21-21.596-16.794-55.194 5.396-74.394v0zM204.585 101.929l-13.814 12.001 204.053 234.68 13.783-12.002-204.022-234.68zM383.385 358.205l-204.022-234.66-11.397 10.22 204.053 234.639 11.366-10.199zM359.998 378.614l-203.417-234.639-13.834 12.001 204.042 234.66 13.209-12.022zM334.776 400.21l-13.179 11.418-203.448-234.66 13.2-11.417 203.428 234.66zM421.202 351.007l42.025 142.224-129.044-67.205 87.019-75.018z" fill="#000000" />
	<path d="M154.931 144.333l18.309-16.2 203.643 233.933-23.931 21.842z" fill="#000000" />
</svg>
