<?xml version="1.0" encoding="utf-8"?>
<!-- Generator: Adobe Illustrator 15.0.2, SVG Export Plug-In . SVG Version: 6.00 Build 0)  -->
<!DOCTYPE svg PUBLIC "-//W3C//DTD SVG 1.1//EN" "http://www.w3.org/Graphics/SVG/1.1/DTD/svg11.dtd">
<svg version="1.1" id="Layer_1" xmlns="http://www.w3.org/2000/svg" xmlns:xlink="http://www.w3.org/1999/xlink" x="0px" y="0px"
	 width="512px" height="404.906px" viewBox="0 0 512 404.906" enable-background="new 0 0 512 404.906" xml:space="preserve">
<path d="M236.19,0l168.716,185.578L185.578,404.906L0,219.312l88.572-88.566c0,0,194.007,59.052,215.109,16.872
	c33.734-50.612-50.613-63.266-50.613-46.393c16.857,16.867,29.511,37.959,29.511,37.959S67.48,134.966,33.74,50.612
	C16.867-16.873,215.104,21.087,215.104,21.087L236.19,0z M185.578,46.394c0,0-105.445-8.434-105.445,8.434
	c0,16.872,63.267,25.306,63.267,25.306L185.578,46.394z M404.906,168.705L286.804,33.74c0,0,93.649,66.366,109.653,71.699
	c12.653,4.22,42.18-21.087,75.914-4.214c33.756,16.867,0,54.827,0,37.959c0-16.872-50.612-4.219-50.612-4.219
	c84.368,16.872,101.225,50.612,84.368,67.49c-16.878,16.856-37.96,16.856-37.96,0C468.167,185.578,404.906,168.705,404.906,168.705z
	"/>
</svg>
