<?xml version="1.0" encoding="UTF-8" standalone="no"?>
<!-- Created with Inkscape (http://www.inkscape.org/) -->

<svg
   xmlns:dc="http://purl.org/dc/elements/1.1/"
   xmlns:cc="http://creativecommons.org/ns#"
   xmlns:rdf="http://www.w3.org/1999/02/22-rdf-syntax-ns#"
   xmlns:svg="http://www.w3.org/2000/svg"
   xmlns="http://www.w3.org/2000/svg"
   xmlns:xlink="http://www.w3.org/1999/xlink"
   xmlns:sodipodi="http://sodipodi.sourceforge.net/DTD/sodipodi-0.dtd"
   xmlns:inkscape="http://www.inkscape.org/namespaces/inkscape"
   id="svg2"
   version="1.1"
   inkscape:version="0.48.3.1 r9886"
   width="109.99999"
   height="80"
   sodipodi:docname="stone_1.svg">
  <metadata
     id="metadata8">
    <rdf:RDF>
      <cc:Work
         rdf:about="">
        <dc:format>image/svg+xml</dc:format>
        <dc:type
           rdf:resource="http://purl.org/dc/dcmitype/StillImage" />
        <dc:title></dc:title>
      </cc:Work>
    </rdf:RDF>
  </metadata>
  <defs
     id="defs6">
    <linearGradient
       y2="463.47311"
       y1="183.48366"
       xlink:href="#linearGradient1702"
       x2="214.59154"
       x1="213.82799"
       inkscape:collect="always"
       id="linearGradient1078"
       gradientUnits="userSpaceOnUse"
       gradientTransform="matrix(1.5539,0,0,0.643542,-1.017928,0)" />
    <linearGradient
       y2="505.0845"
       y1="469.49918"
       xlink:href="#linearGradient1697"
       x2="522.94183"
       x1="522.94183"
       inkscape:collect="always"
       id="linearGradient1077"
       gradientUnits="userSpaceOnUse" />
    <linearGradient
       y2="466.2785"
       y1="506.28723"
       xlink:href="#linearGradient1697"
       x2="520.57166"
       x1="520.57166"
       inkscape:collect="always"
       id="linearGradient1076"
       gradientUnits="userSpaceOnUse" />
    <linearGradient
       y2="463.47311"
       y1="183.48366"
       xlink:href="#linearGradient1702"
       x2="214.59154"
       x1="213.82799"
       inkscape:collect="always"
       id="linearGradient1717"
       gradientUnits="userSpaceOnUse"
       gradientTransform="matrix(1.5539,0,0,0.643542,-1.017928,0)" />
    <linearGradient
       y2="505.0845"
       y1="469.49918"
       xlink:href="#linearGradient1697"
       x2="522.94183"
       x1="522.94183"
       inkscape:collect="always"
       id="linearGradient1710"
       gradientUnits="userSpaceOnUse" />
    <radialGradient
       xlink:href="#linearGradient1702"
       r="15.301119"
       inkscape:collect="always"
       id="radialGradient1706"
       gradientUnits="userSpaceOnUse"
       fy="473.03323"
       fx="522.89911"
       cy="481.86633"
       cx="522.89532" />
    <linearGradient
       y2="466.2785"
       y1="506.28723"
       xlink:href="#linearGradient1697"
       x2="520.57166"
       x1="520.57166"
       inkscape:collect="always"
       id="linearGradient1700"
       gradientUnits="userSpaceOnUse" />
    <linearGradient
       id="linearGradient1697">
      <stop
         style="stop-color:#69db0e;stop-opacity:1.0000000;"
         offset="0.0000000"
         id="stop1698" />
      <stop
         style="stop-color:#397607;stop-opacity:1.0000000;"
         offset="1.0000000"
         id="stop1699" />
    </linearGradient>
    <linearGradient
       id="linearGradient1702">
      <stop
         style="stop-color:#ffffff;stop-opacity:0.69072163;"
         offset="0.0000000"
         id="stop1703" />
      <stop
         style="stop-color:#ffffff;stop-opacity:0.0000000;"
         offset="1.0000000"
         id="stop1704" />
    </linearGradient>
    <linearGradient
       id="linearGradient1702-3">
      <stop
         style="stop-color:#ffffff;stop-opacity:0.69072163;"
         offset="0.0000000"
         id="stop1703-1" />
      <stop
         style="stop-color:#ffffff;stop-opacity:0.0000000;"
         offset="1.0000000"
         id="stop1704-8" />
    </linearGradient>
    <linearGradient
       inkscape:collect="always"
       xlink:href="#linearGradient1697-7"
       id="linearGradient4996"
       x1="57.142277"
       y1="74.461128"
       x2="57.739239"
       y2="-4.7337885"
       gradientUnits="userSpaceOnUse"
       gradientTransform="matrix(0.96292473,0,0,0.98546944,5.8295573,5.4967685)" />
    <linearGradient
       id="linearGradient1697-7">
      <stop
         style="stop-color:#db210e;stop-opacity:1.0000000;"
         offset="0.0000000"
         id="stop1698-7" />
      <stop
         style="stop-color:#761107;stop-opacity:1.0000000;"
         offset="1.0000000"
         id="stop1699-7" />
    </linearGradient>
    <linearGradient
       inkscape:collect="always"
       xlink:href="#linearGradient1697-7"
       id="linearGradient5004"
       x1="-5.4424672"
       y1="35.011974"
       x2="107.56975"
       y2="35.011974"
       gradientUnits="userSpaceOnUse"
       gradientTransform="matrix(0.96292473,0,0,0.98546944,5.8295573,5.4967685)" />
    <linearGradient
       id="linearGradient5112">
      <stop
         style="stop-color:#db210e;stop-opacity:1.0000000;"
         offset="0.0000000"
         id="stop5114" />
      <stop
         style="stop-color:#761107;stop-opacity:1.0000000;"
         offset="1.0000000"
         id="stop5116" />
    </linearGradient>
    <linearGradient
       inkscape:collect="always"
       xlink:href="#linearGradient1697"
       id="linearGradient5198"
       gradientUnits="userSpaceOnUse"
       gradientTransform="matrix(0.96292473,0,0,0.98546944,5.829549,5.4967685)"
       x1="57.142277"
       y1="74.461128"
       x2="57.739239"
       y2="-4.7337885" />
    <linearGradient
       inkscape:collect="always"
       xlink:href="#linearGradient1697"
       id="linearGradient5200"
       gradientUnits="userSpaceOnUse"
       gradientTransform="matrix(0.96292473,0,0,0.98546944,5.829549,5.4967685)"
       x1="-5.4424672"
       y1="35.011974"
       x2="107.56975"
       y2="35.011974" />
    <linearGradient
       inkscape:collect="always"
       xlink:href="#linearGradient1702-3"
       id="linearGradient5202"
       gradientUnits="userSpaceOnUse"
       gradientTransform="matrix(0.26630633,0,0,0.11287198,-0.79524104,-17.195664)"
       x1="213.82799"
       y1="232.68723"
       x2="214.59154"
       y2="463.47311" />
  </defs>
  <sodipodi:namedview
     pagecolor="#ffffff"
     bordercolor="#666666"
     borderopacity="1"
     objecttolerance="10"
     gridtolerance="10"
     guidetolerance="10"
     inkscape:pageopacity="0"
     inkscape:pageshadow="2"
     inkscape:window-width="1366"
     inkscape:window-height="744"
     id="namedview4"
     showgrid="false"
     inkscape:zoom="3.3714286"
     inkscape:cx="96.188216"
     inkscape:cy="37.381642"
     inkscape:window-x="0"
     inkscape:window-y="24"
     inkscape:window-maximized="1"
     inkscape:current-layer="svg2"
     fit-margin-top="0"
     fit-margin-left="0"
     fit-margin-right="0"
     fit-margin-bottom="0" />
  <rect
     style="fill:url(#linearGradient5198);fill-opacity:1;stroke:url(#linearGradient5200);stroke-width:1.94826376;stroke-linecap:round;stroke-linejoin:round;stroke-miterlimit:4;stroke-opacity:1;stroke-dasharray:none;stroke-dashoffset:0"
     id="rect4922"
     width="108.05173"
     height="78.051735"
     x="0.97413188"
     y="0.97413188"
     ry="7.8686709" />
  <g
     id="layer1"
     inkscape:label="Calque 1"
     transform="matrix(1.1403165,0,0,1.1403165,0.04416896,13.260998)">
    <path
       sodipodi:nodetypes="cccccccc"
       id="path1316"
       style="fill:#ffaf19;fill-opacity:1;fill-rule:nonzero;stroke:#000000;stroke-width:0.68687952;stroke-linecap:butt;stroke-linejoin:miter;stroke-miterlimit:4;stroke-opacity:1"
       d="m 33.451722,36.857897 c 0,0 4.627366,9.804557 9.990912,5.673313 6.475634,-7.130254 1.715199,-8.051203 -1.053988,-2.56503 -3.071316,5.025497 -7.907068,-6.567571 -7.907068,-6.567571 m -1.355917,3.550943 c 0,0 4.627368,9.804556 9.990914,5.673311 8.059079,-7.427057 1.821961,-8.970896 -1.053992,-2.565029 -3.071314,5.025498 -7.907066,-6.567572 -7.907066,-6.567572"
       inkscape:connector-curvature="0" />
    <g
       transform="matrix(0.230278,0,0,0.230278,-85.03624,-7.568486)"
       id="g18874"
       style="stroke:none">
      <path
         style="fill:#ffaf19;fill-opacity:1;fill-rule:evenodd"
         d="m 449.28822,211.32142 c -22.05644,-15.37224 -36.04414,-84.15987 14.5322,-110.56508 50.54462,-26.388655 84.04457,72.56537 65.51039,99.21483 -17.57546,25.27095 -59.36632,25.76058 -80.04259,11.35025 z"
         id="path17354"
         sodipodi:nodetypes="czzz"
         inkscape:connector-curvature="0" />
      <path
         id="path12788"
         d="m 448.25693,112.36218 c -7.09182,7.18828 -11.77942,15.60295 -14.65625,24.46875 l 91.03125,-3.21875 c -1.49354,-3.26217 -3.12881,-6.41145 -4.90625,-9.4375 l -71.46875,-11.8125 z m -17.625,37.71875 c -1.5319,12.14144 -0.18543,24.36106 3.03125,34.84375 l 100.9375,-16.1875 c -0.24068,-2.19075 -0.66268,-4.42917 -1.0625,-6.6875 L 430.63193,150.08093 z m 6.8125,44.5625 c 3.42999,7.26024 7.74084,13.07989 12.46875,16.375 18.19305,12.67965 52.71145,13.81124 72.71875,-3.3125 l -85.1875,-13.0625 z"
         style="fill:#ff9119;fill-opacity:1;fill-rule:evenodd"
         inkscape:connector-curvature="0" />
      <path
         style="fill:none"
         d="m 450.28822,212.32142 c -22.05644,-15.37224 -36.04414,-84.15987 14.5322,-110.56508 50.54462,-26.388651 84.04457,72.56537 65.51039,99.21483 -17.57546,25.27095 -59.36632,25.76058 -80.04259,11.35025 z"
         id="path18114"
         sodipodi:nodetypes="czzz"
         inkscape:connector-curvature="0" />
    </g>
    <g
       id="g6665"
       transform="matrix(0.230278,0,0,0.230278,11.10502,-18.6344)">
      <path
         style="fill:none;stroke:#000000;stroke-width:3;stroke-linecap:round;stroke-linejoin:round;stroke-miterlimit:4;stroke-opacity:1"
         d="m 43.912178,150.09499 c -43.49939014,20.6294 -38.4217201,82.72703 -19.12637,102.17163 16.11567,24.39324 76.069152,21.53594 86.260782,-6.20231 20.2749,-21.32652 -17.505732,-125.58948 -67.134412,-95.96932 z"
         id="path5143"
         sodipodi:nodetypes="cccc"
         inkscape:connector-curvature="0" />
      <path
         style="fill:none;stroke:#000000;stroke-width:3;stroke-linecap:round;stroke-linejoin:round;stroke-miterlimit:4;stroke-opacity:1"
         d="m 45.779162,151.09499 c -43.4993905,20.6294 -38.4217205,82.72703 -19.12637,102.17163 16.11567,24.39324 76.069148,21.53594 86.260778,-6.20231 20.2749,-21.32652 -17.505728,-125.58948 -67.134408,-95.96932 z"
         id="path6663"
         sodipodi:nodetypes="cccc"
         inkscape:connector-curvature="0" />
    </g>
    <path
       id="path1342"
       style="fill:#ffaf19;fill-opacity:1;fill-rule:nonzero;stroke:#000000;stroke-width:0.6908356;stroke-linecap:round;stroke-linejoin:round;stroke-miterlimit:4;stroke-opacity:1"
       d="m 21.524994,1.2656814 c -1.088937,-0.037316 -1.087585,4.4916914 -1.065039,5.9008877 -1.614032,2.0064847 -2.228205,4.5506829 -2.079704,6.4190139 0.363053,4.567608 6.846,11.234497 13.089895,9.146375 C 35.69727,21.3183 40.512498,15.038509 38.91822,10.066639 39.578298,9.1590998 41.958521,5.7493955 40.307088,5.5977965 38.485474,5.4305758 39.682245,5.5292381 35.960581,6.3893793 35.195322,5.8822201 34.326211,5.4120466 33.240413,5.0292962 29.768907,3.8055621 27.010028,3.7219524 24.849639,4.3096756 22.588415,1.4728606 23.310633,2.3659981 21.805645,1.3664282 21.706722,1.3007258 21.610141,1.268599 21.524994,1.2656814 z m 0.230278,0.3234033 c -1.088937,-0.037316 -1.087585,4.4916914 -1.065039,5.9008877 -1.614031,2.0064854 -2.228204,4.5506836 -2.079702,6.4190136 0.363053,4.567608 6.845998,11.2345 13.089895,9.146374 4.227124,-1.413658 9.04235,-7.693447 7.448073,-12.665318 C 39.808576,9.4825028 42.188796,6.0727987 40.537366,5.9211998 38.715753,5.7539778 39.912524,5.8526414 36.19086,6.7127825 35.4256,6.2056234 34.556489,5.7354498 33.470692,5.3526994 29.999186,4.1289629 27.240306,4.0453531 25.079918,4.6330763 22.818693,1.7962638 23.540911,2.6893988 22.035924,1.6898315 21.937001,1.6241291 21.84042,1.5920022 21.755272,1.5890847 z"
       inkscape:connector-curvature="0" />
    <path
       style="fill:#000000;fill-opacity:1;fill-rule:evenodd;stroke:#000000;stroke-width:1.64802325;stroke-linecap:round;stroke-linejoin:round;stroke-miterlimit:4;stroke-opacity:1"
       d="m 25.805876,9.4813858 c 0.879696,2.4639422 -0.749727,0.6658132 -0.749727,0.6658132"
       id="path6648"
       sodipodi:nodetypes="cc"
       inkscape:connector-curvature="0" />
    <path
       style="fill:#000000;fill-opacity:1;fill-rule:evenodd;stroke:#000000;stroke-width:1.70063841;stroke-linecap:round;stroke-linejoin:round;stroke-miterlimit:4;stroke-opacity:1"
       d="m 34.134594,11.451813 c 0.797134,2.895531 -0.679362,0.782441 -0.679362,0.782441"
       id="path6650"
       sodipodi:nodetypes="cc"
       inkscape:connector-curvature="0" />
    <path
       style="fill:none;stroke:#000000;stroke-width:0.6908356;stroke-linecap:round;stroke-linejoin:round;stroke-miterlimit:4;stroke-opacity:1;stroke-dasharray:none"
       d="m 27.624575,19.022557 0.738123,-2.420355"
       id="path7412"
       inkscape:connector-curvature="0" />
    <path
       style="fill:#000000;fill-opacity:1;fill-rule:evenodd;stroke:#000000;stroke-width:0.49998724;stroke-linecap:round;stroke-linejoin:round;stroke-miterlimit:4;stroke-opacity:1"
       d="m 23.699942,14.425481 c 0.280774,0.710559 -0.23929,0.19201 -0.23929,0.19201"
       id="path9716"
       sodipodi:nodetypes="cc"
       inkscape:connector-curvature="0" />
    <path
       style="fill:#000000;fill-opacity:1;fill-rule:evenodd;stroke:#000000;stroke-width:0.49998724;stroke-linecap:round;stroke-linejoin:round;stroke-miterlimit:4;stroke-opacity:1"
       d="m 25.095641,14.890714 c 0.280772,0.710559 -0.239292,0.192011 -0.239292,0.192011"
       id="path9718"
       sodipodi:nodetypes="cc"
       inkscape:connector-curvature="0" />
    <path
       style="fill:#000000;fill-opacity:1;fill-rule:evenodd;stroke:#000000;stroke-width:0.49998724;stroke-linecap:round;stroke-linejoin:round;stroke-miterlimit:4;stroke-opacity:1"
       d="m 22.746317,16.368412 c 0.280773,0.710559 -0.23929,0.192011 -0.23929,0.192011"
       id="path9720"
       sodipodi:nodetypes="cc"
       inkscape:connector-curvature="0" />
    <path
       style="fill:#000000;fill-opacity:1;fill-rule:evenodd;stroke:#000000;stroke-width:0.49998724;stroke-linecap:round;stroke-linejoin:round;stroke-miterlimit:4;stroke-opacity:1"
       d="m 33.004598,16.751646 c 0.280775,0.710559 -0.239289,0.192011 -0.239289,0.192011"
       id="path9722"
       sodipodi:nodetypes="cc"
       inkscape:connector-curvature="0" />
    <path
       style="fill:#000000;fill-opacity:1;fill-rule:evenodd;stroke:#000000;stroke-width:0.49998724;stroke-linecap:round;stroke-linejoin:round;stroke-miterlimit:4;stroke-opacity:1"
       d="m 34.490524,17.566314 c 0.280772,0.710559 -0.239292,0.192011 -0.239292,0.192011"
       id="path9724"
       sodipodi:nodetypes="cc"
       inkscape:connector-curvature="0" />
    <path
       style="fill:#000000;fill-opacity:1;fill-rule:evenodd;stroke:#000000;stroke-width:0.49998724;stroke-linecap:round;stroke-linejoin:round;stroke-miterlimit:4;stroke-opacity:1"
       d="m 33.004598,18.147343 c 0.280775,0.71056 -0.239289,0.192011 -0.239289,0.192011"
       id="path9726"
       sodipodi:nodetypes="cc"
       inkscape:connector-curvature="0" />
    <path
       style="fill:#000000;fill-opacity:1;fill-rule:evenodd;stroke:#000000;stroke-width:1.15139258;stroke-linecap:round;stroke-linejoin:round;stroke-miterlimit:4;stroke-opacity:1"
       d="m 26.192927,37.088208 c 0.545885,1.938127 -0.465233,0.523726 -0.465233,0.523726"
       id="path12786"
       sodipodi:nodetypes="cc"
       inkscape:connector-curvature="0" />
    <path
       id="path19641"
       d="m 27.632408,4.6616913 c 0,0 5.11878,0.6336349 6.270174,1.5547491 1.151392,0.9211129 -2.993621,2.0725064 -2.993621,2.0725064 0,0 -4.710875,-2.1883862 -3.276553,-3.6272555 z"
       style="fill:#ff9119;fill-opacity:1;fill-rule:evenodd;stroke:none"
       inkscape:connector-curvature="0" />
    <path
       id="path9715"
       style="fill:#ffaf19;fill-opacity:1;fill-rule:nonzero;stroke:#000000;stroke-width:0.6908356;stroke-linecap:round;stroke-linejoin:round;stroke-miterlimit:4;stroke-opacity:1"
       d="m 17.319921,20.05755 c -1.215243,-1.040473 -1.96525,-1.150476 -3.180492,-2.190947 0,0 1.261852,-5.583528 -0.442798,-5.072043 -0.971147,-0.05902 -0.492907,2.511662 -1.357672,2.855102 -0.864763,0.343439 -1.540351,-3.564317 -2.7598973,-2.652839 -1.2195427,0.503977 1.6149893,4.27167 1.2073543,4.277293 -0.65213,0.08712 -3.3451427,-3.023097 -4.2061822,-1.194488 -0.8610408,1.82861 4.2137892,2.436917 3.0373899,2.907475 -1.2135852,0.485433 -3.7249942,0.679496 -2.7869779,1.793612 0.9380188,1.114112 5.1743902,-0.965123 6.6506012,-0.105246 1.514406,0.882123 2.129146,1.760058 1.275057,3.954288 m 2.466618,-4.217826 c -1.215241,-1.040471 -1.965249,-1.150474 -3.180491,-2.190945 0,0 1.261853,-5.583527 -0.442798,-5.07204 -0.971147,-0.05902 -0.492907,2.511659 -1.357672,2.855098 -0.864762,0.34344 -1.540351,-3.564315 -2.7598973,-2.652836 -1.2195434,0.503974 1.6149893,4.271666 1.2073543,4.27729 -0.652129,0.08712 -3.3451421,-3.023096 -4.2061817,-1.194487 -0.8610407,1.82861 4.2137887,2.436915 3.0373904,2.907473 -1.213587,0.485435 -3.7249946,0.679498 -2.7869783,1.793612 0.9380188,1.114111 5.1743906,-0.965122 6.6506006,-0.105243 1.514405,0.88212 2.129146,1.760058 1.275056,3.954288"
       inkscape:connector-curvature="0" />
    <path
       id="path9731"
       style="fill:#ffaf19;fill-opacity:1;fill-rule:nonzero;stroke:#000000;stroke-width:0.6908356;stroke-linecap:round;stroke-linejoin:round;stroke-miterlimit:4;stroke-opacity:1"
       d="m 32.39945,41.226589 c 0,0 -0.346344,2.556439 0.634823,4.986893 2.072506,1.611948 4.805428,0.824891 4.895898,-0.921114 0.07637,-1.473842 -1.775111,-2.533065 -3.620871,-1.151395 0.336923,1.381672 0.336923,-3.684455 0.336923,-3.684455 m -1.786216,1.000351 c 0,0 -0.346344,2.556435 0.634822,4.98689 2.072507,1.611952 4.80543,0.824891 4.895899,-0.921114 0.07637,-1.473843 -1.775111,-2.533062 -3.620872,-1.151391 0.336923,1.381671 0.336923,-3.684457 0.336923,-3.684457"
       inkscape:connector-curvature="0" />
    <path
       id="path9738"
       style="fill:#ffaf19;fill-opacity:1;fill-rule:nonzero;stroke:#000000;stroke-width:0.6908356;stroke-linecap:round;stroke-linejoin:round;stroke-miterlimit:4;stroke-opacity:1"
       d="m 20.371975,41.226589 c 0,0 0.346343,2.556439 -0.634823,4.986893 -2.072507,1.611948 -4.805429,0.824891 -4.895899,-0.921114 -0.07637,-1.473842 1.775111,-2.533065 3.620872,-1.151395 -0.336923,1.381672 -0.336923,-3.684455 -0.336923,-3.684455 m 1.621571,0.770071 c 0,0 0.346344,2.556439 -0.634823,4.986893 -2.072506,1.611948 -4.805429,0.824891 -4.895898,-0.921114 -0.07637,-1.473842 1.775111,-2.533065 3.620871,-1.151395 C 17.5,45.522645 17.5,40.456518 17.5,40.456518"
       inkscape:connector-curvature="0" />
    <g
       id="g9761"
       transform="matrix(0.230278,0,0,0.230278,-38.042,-31.04136)">
      <g
         id="g10496"
         transform="matrix(0.975826,0.218549,-0.218549,0.975826,-14.69221,-91.19371)">
        <path
           style="fill:none;stroke:#000000;stroke-width:3;stroke-linecap:butt;stroke-linejoin:miter;stroke-miterlimit:4;stroke-opacity:1"
           d="m 391.93919,210.90512 c 0,0 23.6343,-1.66013 36.06081,-10.10153"
           id="path9730"
           sodipodi:nodetypes="cc"
           inkscape:connector-curvature="0" />
        <path
           style="fill:none;stroke:#000000;stroke-width:3;stroke-linecap:butt;stroke-linejoin:miter;stroke-miterlimit:4;stroke-opacity:1"
           d="m 389.91888,216.96603 c 0,0 34.08112,-1.60385 40.08112,6.39615"
           id="path9732"
           inkscape:connector-curvature="0" />
        <path
           style="fill:none;stroke:#000000;stroke-width:3;stroke-linecap:butt;stroke-linejoin:miter;stroke-miterlimit:4;stroke-opacity:1"
           d="m 389.91889,221.00664 c 0,0 18.12172,-1.62415 34.12172,6.37585"
           id="path9736"
           sodipodi:nodetypes="cc"
           inkscape:connector-curvature="0" />
      </g>
      <g
         id="g9753"
         transform="matrix(0.975826,0.218549,-0.218549,0.975826,-16.2681,-90.69721)">
        <path
           style="fill:none;stroke:#000000;stroke-width:3;stroke-linecap:butt;stroke-linejoin:miter;stroke-miterlimit:4;stroke-opacity:1"
           d="m 391.93919,210.90512 c 0,0 23.6343,-1.66013 36.06081,-10.10153"
           id="path9755"
           sodipodi:nodetypes="cc"
           inkscape:connector-curvature="0" />
        <path
           style="fill:none;stroke:#000000;stroke-width:3;stroke-linecap:butt;stroke-linejoin:miter;stroke-miterlimit:4;stroke-opacity:1"
           d="m 389.91888,216.96603 c 0,0 34.08112,-1.60385 40.08112,6.39615"
           id="path9757"
           inkscape:connector-curvature="0" />
        <path
           style="fill:none;stroke:#000000;stroke-width:3;stroke-linecap:butt;stroke-linejoin:miter;stroke-miterlimit:4;stroke-opacity:1"
           d="m 389.91889,221.00664 c 0,0 18.12172,-1.62415 34.12172,6.37585"
           id="path9759"
           sodipodi:nodetypes="cc"
           inkscape:connector-curvature="0" />
      </g>
    </g>
    <g
       id="g9779"
       transform="matrix(0.230278,0,0,0.230278,-24.34276,-18.95091)">
      <g
         id="g10501"
         transform="matrix(-0.975826,-0.218549,0.218549,-0.975826,536.1163,437.8007)">
        <path
           style="fill:none;stroke:#000000;stroke-width:3;stroke-linecap:butt;stroke-linejoin:miter;stroke-miterlimit:4;stroke-opacity:1"
           d="m 391.93919,210.90512 c 0,0 23.6343,-1.66013 36.06081,-10.10153"
           id="path10503"
           sodipodi:nodetypes="cc"
           inkscape:connector-curvature="0" />
        <path
           style="fill:none;stroke:#000000;stroke-width:3;stroke-linecap:butt;stroke-linejoin:miter;stroke-miterlimit:4;stroke-opacity:1"
           d="m 389.91888,216.96603 c 0,0 34.08112,-1.60385 40.08112,6.39615"
           id="path10505"
           inkscape:connector-curvature="0" />
        <path
           style="fill:none;stroke:#000000;stroke-width:3;stroke-linecap:butt;stroke-linejoin:miter;stroke-miterlimit:4;stroke-opacity:1"
           d="m 389.91889,221.00664 c 0,0 18.12172,-1.62415 34.12172,6.37585"
           id="path10507"
           sodipodi:nodetypes="cc"
           inkscape:connector-curvature="0" />
      </g>
      <g
         id="g9771"
         transform="matrix(-0.975826,-0.218549,0.218549,-0.975826,534.6922,436.3505)">
        <path
           style="fill:none;stroke:#000000;stroke-width:3;stroke-linecap:butt;stroke-linejoin:miter;stroke-miterlimit:4;stroke-opacity:1"
           d="m 391.93919,210.90512 c 0,0 23.6343,-1.66013 36.06081,-10.10153"
           id="path9773"
           sodipodi:nodetypes="cc"
           inkscape:connector-curvature="0" />
        <path
           style="fill:none;stroke:#000000;stroke-width:3;stroke-linecap:butt;stroke-linejoin:miter;stroke-miterlimit:4;stroke-opacity:1"
           d="m 389.91888,216.96603 c 0,0 34.08112,-1.60385 40.08112,6.39615"
           id="path9775"
           inkscape:connector-curvature="0" />
        <path
           style="fill:none;stroke:#000000;stroke-width:3;stroke-linecap:butt;stroke-linejoin:miter;stroke-miterlimit:4;stroke-opacity:1"
           d="m 389.91889,221.00664 c 0,0 18.12172,-1.62415 34.12172,6.37585"
           id="path9777"
           sodipodi:nodetypes="cc"
           inkscape:connector-curvature="0" />
      </g>
    </g>
    <path
       id="path9789"
       style="fill:#ff5700;fill-opacity:1;fill-rule:nonzero;stroke:#000000;stroke-width:0.46055704;stroke-linecap:round;stroke-linejoin:round;stroke-miterlimit:4;stroke-opacity:1"
       d="m 28.614856,16.003277 c 0,0 -1.559683,-1.949841 -0.638962,-2.695389 -0.940209,-1.210781 2.939194,-0.158914 3.45129,0.642 0.512098,0.800919 -2.812328,2.053389 -2.812328,2.053389 z m 0.0039,0.345418 c 0,0 -1.559683,-1.949841 -0.638963,-2.695389 -0.940209,-1.210781 2.939195,-0.158916 3.451291,0.642 0.512097,0.800918 -2.812328,2.053389 -2.812328,2.053389 z"
       inkscape:connector-curvature="0" />
    <path
       id="path9796"
       style="fill:none;stroke:#000000;stroke-width:0.46055704;stroke-linecap:round;stroke-linejoin:round;stroke-miterlimit:4;stroke-opacity:1"
       d="m 24.461162,17.613997 c 0,0 2.300114,3.259039 6.945025,1.371256 m -6.39582,-1.141965 c 0,0 2.300113,3.259036 6.945026,1.371256"
       inkscape:connector-curvature="0" />
    <g
       id="g9803"
       transform="matrix(0.12675,0,0,0.09393553,18.06417,13.5663)"
       style="fill:#ffffff;fill-opacity:0.07333332;stroke:none">
      <path
         style="fill-rule:evenodd"
         d="m 43.912178,150.09499 c -43.49939014,20.6294 -38.4217201,82.72703 -19.12637,102.17163 16.11567,24.39324 76.069152,21.53594 86.260782,-6.20231 20.2749,-21.32652 -17.505732,-125.58948 -67.134412,-95.96932 z"
         id="path9805"
         sodipodi:nodetypes="cccc"
         inkscape:connector-curvature="0" />
      <path
         style="fill-rule:evenodd"
         d="m 45.779162,151.09499 c -43.4993905,20.6294 -38.4217205,82.72703 -19.12637,102.17163 16.11567,24.39324 76.069148,21.53594 86.260778,-6.20231 20.2749,-21.32652 -17.505728,-125.58948 -67.134408,-95.96932 z"
         id="path9807"
         sodipodi:nodetypes="cccc"
         inkscape:connector-curvature="0" />
    </g>
    <g
       id="g10567"
       transform="matrix(0.12675,0,0,-0.09393553,19.80379,29.85156)"
       style="fill:#ffffff;fill-opacity:0.07333332;stroke:none">
      <path
         style="fill-rule:evenodd"
         d="m 43.912178,150.09499 c -43.49939014,20.6294 -38.4217201,82.72703 -19.12637,102.17163 16.11567,24.39324 76.069152,21.53594 86.260782,-6.20231 20.2749,-21.32652 -17.505732,-125.58948 -67.134412,-95.96932 z"
         id="path10569"
         sodipodi:nodetypes="cccc"
         inkscape:connector-curvature="0" />
      <path
         style="fill-rule:evenodd"
         d="m 45.779162,151.09499 c -43.4993905,20.6294 -38.4217205,82.72703 -19.12637,102.17163 16.11567,24.39324 76.069148,21.53594 86.260778,-6.20231 20.2749,-21.32652 -17.505728,-125.58948 -67.134408,-95.96932 z"
         id="path10571"
         sodipodi:nodetypes="cccc"
         inkscape:connector-curvature="0" />
    </g>
    <path
       style="fill:none;stroke:#000000;stroke-width:0.6908356;stroke-linecap:round;stroke-linejoin:round;stroke-miterlimit:4;stroke-opacity:1"
       d="M 38.452349,8.9983888 C 40.842093,6.1112758 37.981145,7.1948499 37.369994,7.8038548"
       id="path10573"
       sodipodi:nodetypes="cc"
       inkscape:connector-curvature="0" />
    <path
       style="fill:none;stroke:#000000;stroke-width:0.6908356;stroke-linecap:round;stroke-linejoin:round;stroke-miterlimit:4;stroke-opacity:1"
       d="M 22.242452,6.2801739 C 21.402573,2.6276543 23.472939,4.8799313 23.745773,5.6984378"
       id="path11333"
       sodipodi:nodetypes="cc"
       inkscape:connector-curvature="0" />
    <path
       sodipodi:nodetypes="csssc"
       id="path3098"
       d="m 40.176545,19.87853 c 0,0 -1.654536,0.333905 -1.446657,2.015763 0.211145,1.70828 1.307696,0.790777 2.881437,0.279884 1.404459,-0.455938 1.982117,-1.206603 1.594198,-2.32753 -0.387493,-1.119703 -1.753618,-0.446377 -3.028978,0.03188 z"
       style="fill:#ffaf19;fill-opacity:1;fill-rule:evenodd;stroke:#000000;stroke-width:1.00518131;stroke-linecap:butt;stroke-linejoin:miter;stroke-miterlimit:4;stroke-opacity:1;stroke-dasharray:none"
       inkscape:connector-curvature="0" />
    <path
       sodipodi:nodetypes="csssc"
       id="path3102"
       d="m 40.993962,22.471012 c 0,0 -1.654535,0.333905 -1.446656,2.015763 0.211144,1.70828 1.307695,0.790777 2.881436,0.279884 1.404459,-0.455938 1.982117,-1.206604 1.594198,-2.32753 -0.387493,-1.119703 -1.753617,-0.446377 -3.028978,0.03188 z"
       style="fill:#ffaf19;fill-opacity:1;fill-rule:evenodd;stroke:#000000;stroke-width:1.00518131;stroke-linecap:butt;stroke-linejoin:miter;stroke-miterlimit:4;stroke-opacity:1;stroke-dasharray:none"
       inkscape:connector-curvature="0" />
    <path
       sodipodi:nodetypes="csssc"
       id="path3104"
       d="m 41.692869,25.199004 c 0,0 -1.654536,0.333904 -1.446657,2.015762 0.211144,1.708281 1.307695,0.790778 2.881436,0.279884 1.404459,-0.455937 1.982117,-1.206603 1.594199,-2.32753 -0.387494,-1.119702 -1.753618,-0.446377 -3.028978,0.03188 z"
       style="fill:#ffaf19;fill-opacity:1;fill-rule:evenodd;stroke:#000000;stroke-width:1.00518131;stroke-linecap:butt;stroke-linejoin:miter;stroke-miterlimit:4;stroke-opacity:1;stroke-dasharray:none"
       inkscape:connector-curvature="0" />
  </g>
  <path
     style="opacity:0.9;fill:url(#linearGradient5202);fill-opacity:1;fill-rule:evenodd;stroke:none"
     sodipodi:nodetypes="cccccc"
     id="path1713-8"
     d="m 106.61628,28.298373 c 0.0889,-6.66154 1.13541,-21.0508673 -2.61074,-23.2698043 C 101.0512,2.1463502 17.132659,4.3440338 7.961459,4.2459808 2.074819,3.5633272 3.887469,22.684642 3.837989,27.426219 25.814379,21.636703 48.310051,21.116809 65.48302,26.2697 c 24.336165,6.045087 31.53911,4.599658 41.13326,2.028673 z"
     inkscape:connector-curvature="0"
     inkscape:transform-center-x="13.709435" />
</svg>
