<svg xmlns:dc="http://purl.org/dc/elements/1.1/" xmlns:cc="http://creativecommons.org/ns#" xmlns:rdf="http://www.w3.org/1999/02/22-rdf-syntax-ns#" xmlns="http://www.w3.org/2000/svg" xmlns:xlink="http://www.w3.org/1999/xlink" width="120" height="200" viewBox="0 0 120 200" version="1.1" id="svg8"><defs id="defs2"><linearGradient id="linearGradient1029"><stop style="stop-color:#b38734;stop-opacity:1" offset="0" id="stop1025"/><stop style="stop-color:#e0c998;stop-opacity:1" offset="1" id="stop1027"/></linearGradient><linearGradient xlink:href="#linearGradient1029" id="linearGradient1031" x1="47.886875" y1="70.867462" x2="47.886875" y2="75.952682" gradientUnits="userSpaceOnUse"/><linearGradient xlink:href="#linearGradient1029" id="linearGradient1031-9" x1="47.886875" y1="70.867462" x2="47.886875" y2="75.952682" gradientUnits="userSpaceOnUse" gradientTransform="matrix(-1 0 0 1 118.75 0)"/></defs><metadata id="metadata5"><rdf:RDF><cc:Work><dc:format>image/svg+xml</dc:format><dc:type rdf:resource="http://purl.org/dc/dcmitype/StillImage"/><dc:title/><dc:date>2023</dc:date><dc:creator><cc:Agent><dc:title>Timothée Giet</dc:title></cc:Agent></dc:creator><cc:license rdf:resource="http://creativecommons.org/licenses/by-sa/4.0/"/></cc:Work><cc:License rdf:about="http://creativecommons.org/licenses/by-sa/4.0/"><cc:permits rdf:resource="http://creativecommons.org/ns#Reproduction"/><cc:permits rdf:resource="http://creativecommons.org/ns#Distribution"/><cc:requires rdf:resource="http://creativecommons.org/ns#Notice"/><cc:requires rdf:resource="http://creativecommons.org/ns#Attribution"/><cc:permits rdf:resource="http://creativecommons.org/ns#DerivativeWorks"/><cc:requires rdf:resource="http://creativecommons.org/ns#ShareAlike"/></cc:License></rdf:RDF></metadata><g id="layer1" style="display:inline"><ellipse style="display:inline;opacity:.999223;fill:#000;fill-opacity:.149109;stroke:none;stroke-width:1;stroke-miterlimit:4;stroke-dasharray:none;stroke-opacity:.996078" id="path1535" cx="56.714947" cy="179.22609" rx="50.736477" ry="11.736539"/><path style="fill:#734848;fill-opacity:1;stroke:none;stroke-width:1px;stroke-linecap:butt;stroke-linejoin:miter;stroke-opacity:1" d="M94.998 134.055c4.108-.847 12.226 1.2 14.396 7.507-1.226 1.087-6.691 3.41-7.284 2.394-2.35-.702-5.211-.915-7.741.064-2.53.979.629-9.965.629-9.965z" id="path1415-6-1"/><path style="fill:#e7aeae;fill-opacity:1;stroke:none;stroke-width:1px;stroke-linecap:butt;stroke-linejoin:miter;stroke-opacity:1" d="M94.584 136.238c3.69-.667 11.182 1.046 13.117 4.997-1.113.597-4.241 1.733-4.779 1.175-1.77-1.967-6.208-1.964-8.503-1.426-2.294.538.165-4.746.165-4.746z" id="path1415-6"/><path style="fill:#734848;fill-opacity:1;stroke:none;stroke-width:1px;stroke-linecap:butt;stroke-linejoin:miter;stroke-opacity:1" d="M109.563 143.488c1.308 2.702.728 10.385-6.41 12.977-4.822 1.75-9.773-3.078-8.834-8.346.567-3.18 2.8-9.172 8.132-10.951 5.332-1.78 12.687.045 14.44 3.978 1.751 3.933.36 8.126-1.063 8.653-3.284 1.216-3.445-2.136-4.815-4.382-.48-.787-8.686-1.536-9.056 2.014-.2 1.91 2.256.367 1.306-2.565 1.007-.434 4.94-1.458 6.3-1.378z" id="path1415-2"/><path style="fill:#54472e;fill-opacity:1;stroke:none;stroke-width:1px;stroke-linecap:butt;stroke-linejoin:miter;stroke-opacity:1" d="M94.418 103.193c1.867 1.158 11.766 4.803 14.78 3.808 2.154-4.633 3.531-11.552-1.568-20.098-2.354.685-2.971 1.002-4.057 1.498.553-.872 1.199-1.777 2.304-2.726-1.316-.872-4.35-2.777-6.776-2.672-2.939 2.963-6.307 9.89-6.932 15.075z" id="path1213-1-9-2"/><path style="fill:#c9a96b;fill-opacity:1;stroke:none;stroke-width:1px;stroke-linecap:butt;stroke-linejoin:miter;stroke-opacity:1" d="M96.683 101.533c1.867 1.158 6.829 3.819 10.265 2.98 2.572-4.005 1.707-12.073-.85-15.56-2.354.684-4.938 2.584-6.024 3.08.25-1.329 1.733-4.235 3.19-5.398-.542-.647-3.112-1.8-4.086-1.608-1.849 2.636-4.513 6.81-5.138 11.995z" id="path1213-2-8"/><path style="fill:#734848;fill-opacity:1;stroke:none;stroke-width:1px;stroke-linecap:butt;stroke-linejoin:miter;stroke-opacity:1" d="M79.338 101.167c2.463-1.444 9.622-3.561 14.714-4.264 4.778-.66 5.94 4.08 4.562 4.755-6.701 3.285-8.36 5.963-13.896 9.965-3.615 2.613-5.6-8.985-5.38-10.456z" id="path1317-5-9"/><path style="fill:#54472e;fill-opacity:1;stroke:none;stroke-width:1px;stroke-linecap:butt;stroke-linejoin:miter;stroke-opacity:1" d="M22.038 103.193c-1.867 1.158-11.766 4.803-14.78 3.808-2.154-4.633-3.53-11.552 1.568-20.098 2.354.685 2.972 1.002 4.057 1.498-.553-.872-1.199-1.777-2.304-2.726 1.316-.872 4.35-2.777 6.776-2.672 2.939 2.963 6.307 9.89 6.932 15.075z" id="path1213-1-9"/><path style="fill:#c9a96b;fill-opacity:1;stroke:none;stroke-width:1px;stroke-linecap:butt;stroke-linejoin:miter;stroke-opacity:1" d="M19.773 101.533c-1.867 1.158-6.829 3.819-10.265 2.98-2.572-4.005-1.707-12.073.85-15.56 2.354.684 4.938 2.584 6.024 3.08-.25-1.329-1.733-4.235-3.19-5.398.542-.647 3.112-1.8 4.086-1.608 1.849 2.636 4.513 6.81 5.138 11.995z" id="path1213-2"/><path style="fill:#734848;fill-opacity:1;stroke:none;stroke-width:1px;stroke-linecap:butt;stroke-linejoin:miter;stroke-opacity:1" d="M37.118 101.167c-2.463-1.444-9.622-3.561-14.714-4.264-4.778-.66-5.94 4.08-4.562 4.755 6.701 3.285 8.36 5.963 13.896 9.965 3.615 2.613 5.6-8.985 5.38-10.456z" id="path1317-5"/><path style="fill:#54472e;fill-opacity:1;stroke:none;stroke-width:1px;stroke-linecap:butt;stroke-linejoin:miter;stroke-opacity:1" d="M80.093 164.528c-2.012 1.276-7.795 8.334-8.048 11.5 3.92 3.776 10.563 7.72 21.686 6.32.294-2.435.227-3.128.175-4.321.674.847 1.343 1.793 1.862 3.179 1.475-.877 4.769-2.939 5.7-5.217-1.837-3.857-7.634-9.64-12.788-12.222z" id="path1213-1-3"/><path style="fill:#c9a96b;fill-opacity:1;stroke:none;stroke-width:1px;stroke-linecap:butt;stroke-linejoin:miter;stroke-opacity:1" d="M80.857 167.26c-2.012 1.275-4.648 4.16-5.246 7.653 3.085 3.92 11.892 6.241 16.635 5.23.294-2.436-.584-5.554-.636-6.747 1.281.745 3.683 3.235 4.275 5.028.909-.25 3.216-2.175 3.434-3.147-1.963-2.724-5.184-6.795-10.337-9.376z" id="path1213-7"/><path style="fill:#54472e;fill-opacity:1;stroke:none;stroke-width:1px;stroke-linecap:butt;stroke-linejoin:miter;stroke-opacity:1" d="M37.42 164.528c2.011 1.276 7.794 8.334 8.048 11.5-3.92 3.776-10.564 7.72-21.686 6.32-.294-2.435-.227-3.128-.175-4.321-.674.847-1.344 1.793-1.862 3.179-1.475-.877-4.769-2.939-5.7-5.217 1.837-3.857 7.634-9.64 12.787-12.222z" id="path1213-1"/><path style="fill:#c9a96b;fill-opacity:1;stroke:none;stroke-width:1px;stroke-linecap:butt;stroke-linejoin:miter;stroke-opacity:1" d="M36.655 167.26c2.012 1.275 4.648 4.16 5.247 7.653-3.085 3.92-11.892 6.241-16.636 5.23-.293-2.436.585-5.554.637-6.747-1.281.745-3.683 3.235-4.276 5.028-.908-.25-3.215-2.175-3.433-3.147 1.963-2.724 5.183-6.795 10.337-9.376z" id="path1213"/><path style="opacity:1;fill:#734848;fill-opacity:1;stroke:none;stroke-width:1px;stroke-linecap:butt;stroke-linejoin:miter;stroke-opacity:1" d="M36.575 94.073c-10.148 13.812-18 35.426-14.605 47.73 4.057 14.711 16.234 23.871 36.277 23.566 20.042-.305 33.925-7.6 37.312-25.1 3.164-16.345-12.243-39.577-16.159-45.558-3.915-5.982-38.154-7.96-42.825-.638z" id="path1169-2"/><path style="fill:#734848;fill-opacity:1;stroke:none;stroke-width:1px;stroke-linecap:butt;stroke-linejoin:miter;stroke-opacity:1" d="M85.465 150.65c2.692 6.147 4.023 17.603 3.226 18.94-.796 1.339-4.82 3.315-7.438 1.247-1.316-1.04-4.79-6.856-8.142-9.156-3.353-2.3 8.856-11.504 12.354-11.032z" id="path1191-6-9"/><path style="opacity:1;fill:#e7aeae;fill-opacity:1;stroke:none;stroke-width:1px;stroke-linecap:butt;stroke-linejoin:miter;stroke-opacity:1" d="M38.758 93.818c-9.14 13.065-16.213 33.51-13.156 45.15 3.655 13.915 14.624 22.58 32.677 22.291 18.054-.288 30.56-7.188 33.61-23.742 2.85-15.462-11.028-37.438-14.555-43.096-3.527-5.658-34.368-7.53-38.576-.603z" id="path1169"/><path style="opacity:1;fill:#734848;fill-opacity:1;stroke:none;stroke-width:1px;stroke-linecap:butt;stroke-linejoin:miter;stroke-opacity:1" d="M59.912 47.287c16.418-.274 31.714 13.526 32.047 27.22.349 14.316-15.604 35.326-32.352 35.24-15.894-.083-33.07-16.807-33-32.722.07-15.915 11.87-29.965 33.305-29.738z" id="path904-3"/><path style="opacity:1;fill:#734848;fill-opacity:1;stroke:none;stroke-width:1px;stroke-linecap:butt;stroke-linejoin:miter;stroke-opacity:1" d="M47.832 50.22c-4.007-5.887-20.721-18.772-22.489-19.235-1.768-.464-6.253 27.844 4.29 34.487 10.542 6.642 18.563-12.324 18.2-15.252z" id="path906-7"/><path style="opacity:1;fill:#e7aeae;fill-opacity:1;stroke:none;stroke-width:1px;stroke-linecap:butt;stroke-linejoin:miter;stroke-opacity:1" d="M46.216 52.172c-4.007-5.886-18.15-17.39-19.918-17.854-1.768-.463-4.561 23.33 5.981 29.972 10.543 6.643 14.3-9.19 13.937-12.118z" id="path906"/><path style="opacity:1;fill:#734848;fill-opacity:1;stroke:none;stroke-width:1px;stroke-linecap:butt;stroke-linejoin:miter;stroke-opacity:1" d="M68.883 50.22c4.008-5.887 20.722-18.772 22.49-19.235 1.767-.464 6.252 27.844-4.29 34.487-10.543 6.642-18.563-12.324-18.2-15.252z" id="path906-7-5"/><path style="opacity:1;fill:#e7aeae;fill-opacity:1;stroke:none;stroke-width:1px;stroke-linecap:butt;stroke-linejoin:miter;stroke-opacity:1" d="M59.866 49.692c15.228-.253 29.415 12.532 29.724 25.219.323 13.263-14.077 31.424-29.61 31.343-14.742-.076-31.069-14.266-31.003-29.01.065-14.745 11.008-27.761 30.89-27.552z" id="path904"/><path style="opacity:1;fill:#b68787;fill-opacity:1;stroke:none;stroke-width:1px;stroke-linecap:butt;stroke-linejoin:miter;stroke-opacity:1" d="M40.06 53.324c-3.866-4.266-9.417-11.588-11.036-11.141-3.653 1.008 1.38 19.468 3.937 17.844 1.34-.852 4.393-4.09 7.1-6.703z" id="path908"/><path style="opacity:1;fill:#e7aeae;fill-opacity:1;stroke:none;stroke-width:1px;stroke-linecap:butt;stroke-linejoin:miter;stroke-opacity:1" d="M70.5 52.172c4.007-5.886 18.15-17.39 19.918-17.854 1.768-.463 4.56 23.33-5.982 29.972-10.542 6.643-14.3-9.19-13.937-12.118z" id="path906-3"/><path style="opacity:1;fill:#b68787;fill-opacity:1;stroke:none;stroke-width:1px;stroke-linecap:butt;stroke-linejoin:miter;stroke-opacity:1" d="M76.655 53.324c3.866-4.266 9.417-11.588 11.037-11.141 3.653 1.008-1.38 19.468-3.938 17.844-1.34-.852-4.392-4.09-7.1-6.703z" id="path908-5"/><ellipse style="opacity:1;fill:#734848;fill-opacity:1;stroke:none;stroke-width:1.50054;stroke-opacity:.996078" id="path999" cx="22.236427" cy="80.259445" rx="5.6474514" ry="7.0360355" transform="matrix(.9397 -.34201 .30641 .9519 0 0)"/><ellipse style="opacity:1;fill:#ebebeb;fill-opacity:1;stroke:none;stroke-width:1.50001;stroke-opacity:.996078" id="path999-6" cx="20.722017" cy="80.869278" rx="5.1002922" ry="6.0552759" transform="rotate(-18.902) skewX(-.013)"/><path id="path1023" style="opacity:1;fill:url(#linearGradient1031);fill-opacity:1;stroke:none;stroke-width:1.5;stroke-opacity:.996078" d="M48.002 64.9a4.735 5.638 0 0 0-4.736 5.64 4.735 5.638 0 0 0 2.953 5.222 6.055 5.1 71.143 0 0 1.525-.23 6.055 5.1 71.143 0 0 2.865-7.384 6.055 5.1 71.143 0 0-2.308-3.236 4.735 5.638 0 0 0-.299-.012z"/><circle style="opacity:1;fill:#2c2c2c;fill-opacity:1;stroke:none;stroke-width:1.5;stroke-opacity:.996078" id="path1054" cx="48.106663" cy="70.438972" r="3.0279512"/><ellipse style="opacity:1;fill:#fff;fill-opacity:1;stroke:none;stroke-width:1.5;stroke-opacity:.996078" id="path1056" cx="45.795338" cy="69.055069" rx="1.5619718" ry="1.4385517"/><ellipse style="opacity:1;fill:#734848;fill-opacity:1;stroke:none;stroke-width:1.50054;stroke-opacity:.996078" id="path999-7" cx="-90.881607" cy="39.616699" rx="5.6474514" ry="7.0360355" transform="matrix(-.9397 -.34201 -.30641 .9519 0 0)"/><ellipse style="opacity:1;fill:#ebebeb;fill-opacity:1;stroke:none;stroke-width:1.50001;stroke-opacity:.996078" id="path999-6-0" cx="-91.633209" cy="42.40052" rx="5.1002922" ry="6.0552759" transform="matrix(-.94608 -.32395 -.32373 .94615 0 0)"/><path id="path1023-9" style="opacity:1;fill:url(#linearGradient1031-9);fill-opacity:1;stroke:none;stroke-width:1.5;stroke-opacity:.996078" d="M70.748 64.9a4.735 5.638 0 0 1 4.736 5.64 4.735 5.638 0 0 1-2.953 5.222 5.1 6.055 18.857 0 1-1.525-.23 5.1 6.055 18.857 0 1-2.865-7.384 5.1 6.055 18.857 0 1 2.308-3.236 4.735 5.638 0 0 1 .3-.012z"/><circle style="opacity:1;fill:#2c2c2c;fill-opacity:1;stroke:none;stroke-width:1.5;stroke-opacity:.996078" id="path1054-3" cx="-70.643417" cy="70.438972" r="3.0279512" transform="scale(-1 1)"/><ellipse style="opacity:1;fill:#fff;fill-opacity:1;stroke:none;stroke-width:1.5;stroke-opacity:.996078" id="path1056-6" cx="-69.859711" cy="69.055069" rx="1.5619718" ry="1.4385517" transform="scale(-1 1)"/><path style="opacity:1;fill:#734848;fill-opacity:1;stroke:none;stroke-width:1px;stroke-linecap:butt;stroke-linejoin:miter;stroke-opacity:1" d="M59.564 74.277c6.9-.283 13.177.337 12.927 6.923-.25 6.587-5.376 11.19-12.708 11.398-7.332.208-13.643-4.795-13.305-12.099.262-5.679 7.132-5.977 13.086-6.222z" id="path1121-0"/><path style="opacity:1;fill:#e7aeae;fill-opacity:1;stroke:none;stroke-width:1px;stroke-linecap:butt;stroke-linejoin:miter;stroke-opacity:1" d="M59.574 75.441c5.908-.238 11.286.407 11.072 5.93-.213 5.522-4.474 8.736-10.751 8.91-6.277.175-11.556-3.928-11.267-10.052.225-4.762 5.848-4.583 10.946-4.788z" id="path1121"/><ellipse style="opacity:1;fill:#734848;fill-opacity:1;stroke:none;stroke-width:1.5;stroke-opacity:.996078" id="path1143" cx="7.1177573" cy="98.457428" rx="1.6129886" ry="2.4398563" transform="rotate(-28.811)"/><ellipse style="opacity:1;fill:#734848;fill-opacity:1;stroke:none;stroke-width:1.5;stroke-opacity:.996078" id="path1143-6" cx="-97.476929" cy="40.929577" rx="1.6129886" ry="2.4398563" transform="scale(-1 1) rotate(-28.811)"/><path style="opacity:1;fill:#734848;fill-opacity:1;stroke:none;stroke-width:1px;stroke-linecap:butt;stroke-linejoin:miter;stroke-opacity:1" d="M42.47 89.835c10.016 6.62 26.72 6.616 32.93-.153-9.095 10.207-23.174 8.671-32.93.153z" id="path1165"/><path style="opacity:1;fill:#a36c6c;fill-opacity:1;stroke:#734848;stroke-width:1.5;stroke-linecap:butt;stroke-linejoin:miter;stroke-miterlimit:4;stroke-dasharray:none;stroke-opacity:1" d="M49.597 94.198c4.29 10.245 15.177 9.2 19.443.17-6.486 1.619-11.995 1.737-19.443-.17z" id="path1167"/><path style="fill:#e7aeae;fill-opacity:1;stroke:none;stroke-width:1px;stroke-linecap:butt;stroke-linejoin:miter;stroke-opacity:1" d="M81.788 150.806c2.691 6.148 6.184 15.951 5.388 17.29-.797 1.337-3.46 2.142-5.32.852-1.379-.955-4.975-9.65-8.328-11.95-3.352-2.3 4.762-6.664 8.26-6.192z" id="path1191-2"/><ellipse style="opacity:1;fill:#734848;fill-opacity:1;stroke:none;stroke-width:1.5;stroke-miterlimit:4;stroke-dasharray:none;stroke-opacity:1" id="path1267" cx="58.576012" cy="146.96619" rx="2.6478281" ry="1.7577504"/><path style="fill:#734848;fill-opacity:1;stroke:none;stroke-width:1px;stroke-linecap:butt;stroke-linejoin:miter;stroke-opacity:1" d="M29.989 150.65c-2.692 6.147-4.023 17.603-3.226 18.94.797 1.339 4.82 3.315 7.438 1.247 1.316-1.04 4.79-6.856 8.143-9.156 3.352-2.3-8.857-11.504-12.355-11.032z" id="path1191-6-9-0"/><path style="fill:#e7aeae;fill-opacity:1;stroke:none;stroke-width:1px;stroke-linecap:butt;stroke-linejoin:miter;stroke-opacity:1" d="M33.667 150.806c-2.692 6.148-6.185 15.951-5.388 17.29.797 1.337 3.459 2.142 5.32.852 1.378-.955 4.975-9.65 8.327-11.95 3.352-2.3-4.761-6.664-8.26-6.192z" id="path1191-2-2"/><path style="fill:#e7aeae;fill-opacity:1;stroke:none;stroke-width:1px;stroke-linecap:butt;stroke-linejoin:miter;stroke-opacity:1" d="M36.19 103.418c-2.463-1.444-9.984-4.457-13.909-4.66-2.354-.12-3.084 1.385-1.78 2.195 4.167 2.591 8.307 4.53 11.556 7.585 3.25 3.054 4.353-3.649 4.133-5.12z" id="path1317"/><path style="fill:#e7aeae;fill-opacity:1;stroke:none;stroke-width:1px;stroke-linecap:butt;stroke-linejoin:miter;stroke-opacity:1" d="M79.887 103.418c2.463-1.444 9.984-4.457 13.909-4.66 2.354-.12 3.084 1.385 1.78 2.195-4.167 2.591-8.306 4.53-11.556 7.585-3.25 3.054-4.353-3.649-4.133-5.12z" id="path1317-3"/><path style="fill:#e7aeae;fill-opacity:1;stroke:#734848;stroke-width:1px;stroke-linecap:butt;stroke-linejoin:miter;stroke-opacity:1" d="M108.508 143.495c1.309 2.637 1.015 9.66-5.648 11.347-5.067 1.283-7.297-2.91-7.32-5.973-.025-3.157 2.088-8.089 7.42-9.826 5.332-1.738 10.811-.85 12.563 2.99 1.752 3.84.295 5.55-1.147 6.007-1.443.457-1.007-2.956-3.322-4.106-1.865-.926-9.38-1.28-10.293 3.698-.914 4.978 5.871.896 3.274-3.47 1.007-.423 3.113-.745 4.473-.667z" id="path1415"/></g></svg>