<!--Created with Inkscape (http://www.inkscape.org/)--><svg xmlns:dc="http://purl.org/dc/elements/1.1/" xmlns:cc="http://creativecommons.org/ns#" xmlns:rdf="http://www.w3.org/1999/02/22-rdf-syntax-ns#" xmlns="http://www.w3.org/2000/svg" xmlns:sodipodi="http://sodipodi.sourceforge.net/DTD/sodipodi-0.dtd" xmlns:inkscape="http://www.inkscape.org/namespaces/inkscape" width="120" height="200" sodipodi:version="0.32" inkscape:version="0.91 r13725" sodipodi:docname="02_pig.svg" version="1.0"><sodipodi:namedview pagecolor="#ffffff" bordercolor="#666666" borderopacity="1.0" inkscape:pageopacity="0.0" inkscape:pageshadow="2" inkscape:zoom="1.8173077" inkscape:cx="124.28571" inkscape:cy="48.571429" inkscape:document-units="px" inkscape:current-layer="layer1" inkscape:window-width="1026" inkscape:window-height="873" inkscape:window-x="60" inkscape:window-y="-9" height="200px" width="120px"/><metadata><rdf:RDF><cc:Work><dc:format>image/svg+xml</dc:format><dc:type rdf:resource="http://purl.org/dc/dcmitype/StillImage"/></cc:Work></rdf:RDF></metadata><g inkscape:label="Calque 1" inkscape:groupmode="layer"><path style="opacity:1;fill:#000;fill-opacity:.28695652;fill-rule:evenodd;stroke:none;stroke-width:5;stroke-linecap:round;stroke-linejoin:round;stroke-miterlimit:4;stroke-opacity:1" d="M25.996 187.017c-22.717-7.488-37.124-40.996 14.967-53.858 52.059-12.854 86.562 35.348 67.473 48.33-18.102 12.309-61.145 12.547-82.44 5.528z" sodipodi:nodetypes="czzz"/><path sodipodi:nodetypes="ccccccc" d="M84.896 147.016c5.106-4.908 3.751-3.69 11.205-5.12 6.078-2.521 8.97 4.46 5.823 8.182-3.481 3.562-5.704 2.784-7.558-.216-1.434 5.406 6.661 9.12 10.142 5.557 3.147-3.722 4.66-19.512-3.865-19.437-7.454 1.43-13.44 2.17-18.546 7.078" style="fill:#ff7e77;fill-opacity:1;fill-rule:evenodd;stroke:#000;stroke-width:2.63766432;stroke-linecap:round;stroke-linejoin:miter;stroke-miterlimit:4;stroke-dasharray:none;stroke-opacity:1"/><path sodipodi:nodetypes="ccccc" d="M96.296 154.527c-8.072-9.276 9.998-17.893 16.13-15.607 4.135 2.103 3.587 15.894.495 12.364-.844.678 1.172-6.262-2.962-8.366-.75-1.307-16.373 3.394-9.28 10.224" style="fill:#ff7e77;fill-opacity:1;fill-rule:evenodd;stroke:#000;stroke-width:2.63766432;stroke-linecap:round;stroke-linejoin:miter;stroke-miterlimit:4;stroke-dasharray:none;stroke-opacity:1"/><g style="fill:#ff7e77;fill-opacity:1;stroke:none;stroke-opacity:1"><path style="fill:#ff7e77;fill-opacity:1;fill-rule:evenodd;stroke-width:5;stroke-linecap:round;stroke-linejoin:round;stroke-miterlimit:4" d="M449.288 211.321c-22.056-15.372-36.044-84.16 14.532-110.565 50.545-26.388 84.045 72.566 65.51 99.215-17.575 25.271-59.366 25.76-80.042 11.35z" sodipodi:nodetypes="czzz" transform="matrix(.65942 0 0 .65942 -259.753 16.594)"/><path d="M448.257 112.362c-7.092 7.188-11.78 15.603-14.656 24.469l91.03-3.219a104.587 104.587 0 0 0-4.905-9.437l-71.47-11.813zm-17.625 37.719c-1.532 12.141-.185 24.361 3.031 34.844l100.938-16.188c-.241-2.19-.663-4.429-1.063-6.687l-102.906-11.97zm6.812 44.562c3.43 7.26 7.741 13.08 12.47 16.375 18.192 12.68 52.71 13.812 72.718-3.312l-85.188-13.063z" style="fill:#ff7e77;fill-opacity:1;fill-rule:evenodd;stroke-width:5;stroke-linecap:round;stroke-linejoin:round;stroke-miterlimit:4" transform="matrix(.65942 0 0 .65942 -259.753 16.594)"/><path style="fill:#ff7e77;fill-opacity:1;fill-rule:evenodd;stroke-width:5;stroke-linecap:round;stroke-linejoin:round;stroke-miterlimit:4" d="M450.288 212.321c-22.056-15.372-36.044-84.16 14.532-110.565 50.545-26.388 84.045 72.566 65.51 99.215-17.575 25.271-59.366 25.76-80.042 11.35z" sodipodi:nodetypes="czzz" transform="matrix(.65942 0 0 .65942 -259.753 16.594)"/></g><path style="fill:none;fill-opacity:.75;fill-rule:evenodd;stroke:#000;stroke-width:3;stroke-linecap:round;stroke-linejoin:round;stroke-miterlimit:4;stroke-opacity:1" d="M43.912 150.095c-43.5 20.63-38.422 82.727-19.126 102.172 16.115 24.393 76.069 21.536 86.26-6.203 20.275-21.326-17.505-125.59-67.134-95.969z" sodipodi:nodetypes="cccc" transform="matrix(.65942 0 0 .65942 15.553 -15.093)"/><path style="fill:none;fill-opacity:.75;fill-rule:evenodd;stroke:#000;stroke-width:3;stroke-linecap:round;stroke-linejoin:round;stroke-miterlimit:4;stroke-opacity:1" d="M45.78 151.095c-43.5 20.63-38.423 82.727-19.127 102.172 16.115 24.393 76.069 21.536 86.26-6.203 20.275-21.326-17.505-125.59-67.134-95.969z" sodipodi:nodetypes="cccc" transform="matrix(.65942 0 0 .65942 15.553 -15.093)"/><path style="fill:#ff7e77;fill-opacity:1;fill-rule:nonzero;stroke:#000;stroke-width:1.97824812;stroke-linecap:round;stroke-linejoin:round;stroke-miterlimit:4;stroke-opacity:1" d="M30.043 40.963c-3.1.36 1.85 17.963 2.517 21.944-3.712 6.371-4.864 14.338-3.645 19.565 2.982 12.777 24.69 28.382 41.476 19.8 11.364-5.811 22.313-25.65 15.673-39.047 6.113-.348 11.189-16.534 6.448-16.257-5.23.306-8.604-.422-16.395 7.11-3.886-3.362-6.047-3.32-9.285-3.94-10.353-1.98-15.571.465-21.437 3.053-4.277-11.823-6.728-9.124-9.285-10.244-.312-.137-5.825-2.013-6.067-1.984zm1.498.109c-3.1.36 1.143 18.671 1.81 22.652-3.713 6.371-4.364 13.838-3.144 19.064 2.98 12.778 24.188 28.883 40.974 20.3 11.364-5.81 22.313-25.65 15.673-39.046 6.238-2.476 8.853-17.877 5.74-17.85-5.238.044-7.395-.206-15.687 8.703-2.383-1.109-8.04-3.878-11.288-4.44-7.098-1.23-12.942 2.342-20.06 2.927-5.988-11.823-5.96-6.546-9.587-10.326-.236-.246-4.189-2.012-4.431-1.984z" sodipodi:nodetypes="ccsscscscscccsscscscsc"/><path style="fill:#000;fill-opacity:1;fill-rule:evenodd;stroke:#000;stroke-width:2.41944194;stroke-linecap:round;stroke-linejoin:round;stroke-miterlimit:4;stroke-opacity:1" d="M47.463 71.147c1.905 3.004-1.079 1.053-1.079 1.053" sodipodi:nodetypes="cc"/><path style="fill:#000;fill-opacity:1;fill-rule:evenodd;stroke:#000;stroke-width:2.28532696;stroke-linecap:round;stroke-linejoin:round;stroke-miterlimit:4;stroke-opacity:1" d="M72.236 73.408c1.723 3.16-.902 1.06-.902 1.06" sodipodi:nodetypes="cc"/><path style="fill:#000;fill-opacity:1;fill-rule:evenodd;stroke:#000;stroke-width:3.29708028;stroke-linecap:round;stroke-linejoin:round;stroke-miterlimit:4;stroke-opacity:1" d="M58.758 144.472c1.563 5.55-1.332 1.5-1.332 1.5" sodipodi:nodetypes="cc"/><path sodipodi:nodetypes="cccc" style="fill:none;fill-opacity:1;fill-rule:nonzero;stroke:#000;stroke-width:1.61803651;stroke-linecap:round;stroke-linejoin:round;stroke-miterlimit:4;stroke-opacity:1" d="M49.034 83.737c-1.487-9.535 5.577-10.253 15.543-9.223 5.989 2.036 8.188 10.965.24 14.577-4.91 1.752-13.198 1.915-15.783-5.354z"/><path sodipodi:nodetypes="cc" style="fill:none;fill-opacity:.75;fill-rule:evenodd;stroke:#000;stroke-width:1.31883216;stroke-linecap:round;stroke-linejoin:round;stroke-miterlimit:4;stroke-opacity:1" d="M46.314 91.619c11.039 4.271 15.137 3.688 29.372-.96"/><g style="fill:#fff;fill-opacity:.07333332;stroke:none;stroke-opacity:1"><path style="fill-rule:evenodd;stroke-width:3;stroke-linecap:round;stroke-linejoin:round;stroke-miterlimit:4" d="M43.912 150.095c-43.5 20.63-38.422 82.727-19.126 102.172 16.115 24.393 76.069 21.536 86.26-6.203 20.275-21.326-17.505-125.59-67.134-95.969z" sodipodi:nodetypes="cccc" transform="matrix(-.0689 -.31877 .23047 -.04981 15.345 164.925)"/><path style="fill-rule:evenodd;stroke-width:3;stroke-linecap:round;stroke-linejoin:round;stroke-miterlimit:4" d="M45.78 151.095c-43.5 20.63-38.423 82.727-19.127 102.172 16.115 24.393 76.069 21.536 86.26-6.203 20.275-21.326-17.505-125.59-67.134-95.969z" sodipodi:nodetypes="cccc" transform="matrix(-.0689 -.31877 .23047 -.04981 15.345 164.925)"/></g><path style="fill:#ffafe5;fill-opacity:1;fill-rule:evenodd;stroke:#000;stroke-width:1.97824812;stroke-linecap:round;stroke-linejoin:round;stroke-miterlimit:4;stroke-opacity:1" d="M84.288 60.4c7.66-7.695 3.047-13.334-3.575-2.92" sodipodi:nodetypes="cc"/><path style="fill:#ffafe5;fill-opacity:1;fill-rule:evenodd;stroke:#000;stroke-width:1.97824812;stroke-linecap:round;stroke-linejoin:round;stroke-miterlimit:4;stroke-opacity:1" d="M37.103 57.757c-5.693-9.482.013-12.053 4.008-2.29" sodipodi:nodetypes="cc"/><path sodipodi:nodetypes="cccc" style="fill:#f34;fill-opacity:1;fill-rule:nonzero;stroke:#000;stroke-width:1.31883216;stroke-linecap:round;stroke-linejoin:round;stroke-miterlimit:4;stroke-opacity:1" d="M52.463 82.642c-.467-2.179 1.167-3.134 3.172-3.013 1.376.421 1.901 3.259.28 4.417-1.017.586-2.54.065-3.452-1.404z"/><path sodipodi:nodetypes="cccc" style="fill:#f34;fill-opacity:1;fill-rule:nonzero;stroke:#000;stroke-width:1.31883216;stroke-linecap:round;stroke-linejoin:round;stroke-miterlimit:4;stroke-opacity:1" d="M61.418 82.652c-.467-2.18 1.167-3.134 3.172-3.014 1.376.422 1.901 3.26.28 4.418-1.017.585-2.54.065-3.452-1.404z"/><path sodipodi:nodetypes="cccc" style="fill:none;fill-opacity:1;fill-rule:nonzero;stroke:#000;stroke-width:1.61803651;stroke-linecap:round;stroke-linejoin:round;stroke-miterlimit:4;stroke-opacity:1" d="M49.571 84.334c-1.487-9.535 5.578-10.253 15.543-9.223 5.989 2.037 8.188 10.965.24 14.577-4.91 1.752-13.198 1.915-15.783-5.354z"/><path sodipodi:nodetypes="cc" style="fill:#000;fill-opacity:1;fill-rule:evenodd;stroke:#000;stroke-width:1.31883216;stroke-linecap:round;stroke-linejoin:round;stroke-miterlimit:4;stroke-opacity:1" d="M51.774 93.91c4.702 8.198 12.964 8.965 17.055-.585"/><path sodipodi:nodetypes="cccc" style="fill:red;fill-opacity:1;fill-rule:nonzero;stroke:none;stroke-width:2;stroke-linecap:round;stroke-linejoin:round;stroke-miterlimit:4;stroke-opacity:1" d="M57.4 97.084c-.466-2.179 4.363-1.637 6.369-1.516 1.375.421-1.706 2.319-3.327 3.477-1.017.585-2.129-.492-3.041-1.961z"/><path sodipodi:nodetypes="cc" style="fill:none;fill-opacity:.75;fill-rule:evenodd;stroke:#000;stroke-width:1.31883216;stroke-linecap:round;stroke-linejoin:round;stroke-miterlimit:4;stroke-opacity:1" d="M45.864 90.645c11.038 4.272 15.136 3.688 29.37-.96"/><path style="fill:#ffb147;fill-opacity:1;fill-rule:nonzero;stroke:#000;stroke-width:1.97824812;stroke-linecap:butt;stroke-linejoin:miter;stroke-miterlimit:4;stroke-opacity:1" d="M21.856 97.992s-.069-12.075-3.439-10.212c-2.093.341-6.507-.077-8.65 2.377-2.343 1.616 5.536 8.01 4.672 8.215-1.343.49-8.597-4.62-9.526-.452-.929 4.168.305 7.7 2.847 9.542 2.542 1.843 10.52-4.448 14.08-3.384m.016-5.114s-.069-12.075-3.439-10.212c-2.093.34-6.507-.078-8.65 2.376-2.343 1.617 5.536 8.01 4.672 8.215-1.343.49-8.597-4.619-9.526-.451-.929 4.168.305 7.699 2.847 9.542s10.52-4.448 14.08-3.384" sodipodi:nodetypes="cccccccccccccc"/><path style="fill:#ffb147;fill-opacity:1;fill-rule:nonzero;stroke:#000;stroke-width:1.97824812;stroke-linecap:butt;stroke-linejoin:miter;stroke-miterlimit:4;stroke-opacity:1" d="M76.607 161.015s-10.912 4.105-7.798 5.904c1.194 1.39 2.682 4.708 5.812 5.425 2.456 1.143 5.405-4.226 5.957-3.674 1.012.802-1.038 5.29 3.132 4.558 4.17-.731 6.846-2.805 7.441-5.253.594-2.448-8.48-6.075-9.023-8.994m-4.64 1.707s-10.913 4.105-7.8 5.905c1.195 1.39 2.684 4.707 5.814 5.425 2.456 1.142 5.405-3.737 5.956-3.185 1.012.802-1.038 4.8 3.132 4.07 4.17-.732 6.847-2.807 7.441-5.254.595-2.448-8.48-6.075-9.022-8.994" sodipodi:nodetypes="cccccccccccccc"/><g style="fill:#ffafd1;fill-opacity:.20666665;stroke:none;stroke-opacity:1"><path style="fill-rule:evenodd;stroke-width:3;stroke-linecap:round;stroke-linejoin:round;stroke-miterlimit:4" d="M43.912 150.095c-43.5 20.63-38.422 82.727-19.126 102.172 16.115 24.393 76.069 21.536 86.26-6.203 20.275-21.326-17.505-125.59-67.134-95.969z" sodipodi:nodetypes="cccc" transform="matrix(.07598 0 0 .07384 73.057 68.328)"/><path style="fill-rule:evenodd;stroke-width:3;stroke-linecap:round;stroke-linejoin:round;stroke-miterlimit:4" d="M45.78 151.095c-43.5 20.63-38.423 82.727-19.127 102.172 16.115 24.393 76.069 21.536 86.26-6.203 20.275-21.326-17.505-125.59-67.134-95.969z" sodipodi:nodetypes="cccc" transform="matrix(.07598 0 0 .07384 73.057 68.328)"/></g><g style="fill:#ffafd1;fill-opacity:.20666665;stroke:none;stroke-opacity:1"><path style="fill-rule:evenodd;stroke-width:3;stroke-linecap:round;stroke-linejoin:round;stroke-miterlimit:4" d="M43.912 150.095c-43.5 20.63-38.422 82.727-19.126 102.172 16.115 24.393 76.069 21.536 86.26-6.203 20.275-21.326-17.505-125.59-67.134-95.969z" sodipodi:nodetypes="cccc" transform="matrix(.07598 0 0 .07384 36.13 67.988)"/><path style="fill-rule:evenodd;stroke-width:3;stroke-linecap:round;stroke-linejoin:round;stroke-miterlimit:4" d="M45.78 151.095c-43.5 20.63-38.423 82.727-19.127 102.172 16.115 24.393 76.069 21.536 86.26-6.203 20.275-21.326-17.505-125.59-67.134-95.969z" sodipodi:nodetypes="cccc" transform="matrix(.07598 0 0 .07384 36.13 67.988)"/></g><path style="fill:#ff7e77;fill-opacity:1;fill-rule:nonzero;stroke:#000;stroke-width:1.97824812;stroke-linecap:butt;stroke-linejoin:miter;stroke-miterlimit:4;stroke-opacity:1" d="M30.004 101.612c-3.095-1.559-5.232-1.917-8.327-3.477 0 0-3.576 5.022-.015 6.086 3.652 1.092 4.796.685 4.061 5.601m3.791-7.727c-3.095-1.56-4.742-1.429-7.837-2.988 0 0-3.576 5.022-.015 6.086 3.652 1.091 5.39-.294 4.656 4.622" sodipodi:nodetypes="cccccccc"/><path style="fill:#ffb147;fill-opacity:1;fill-rule:nonzero;stroke:#000;stroke-width:1.97824812;stroke-linecap:butt;stroke-linejoin:miter;stroke-miterlimit:4;stroke-opacity:1" d="M90.563 99.494s.069-12.076 3.44-10.213c2.092.341 6.507-.077 8.65 2.377 2.342 1.617-5.536 8.01-4.673 8.215 1.343.49 8.597-4.62 9.526-.451.93 4.168-.305 7.699-2.847 9.541-2.542 1.843-10.52-4.448-14.08-3.384m-.016-5.114s.069-12.075 3.44-10.212c2.092.341 6.507-.077 8.65 2.377 2.342 1.616-5.536 8.009-4.673 8.215 1.343.49 8.597-4.62 9.526-.452.93 4.168-.305 7.7-2.847 9.542-2.542 1.843-10.52-4.448-14.08-3.384" sodipodi:nodetypes="cccccccccccccc"/><path style="fill:#ff7e77;fill-opacity:1;fill-rule:nonzero;stroke:#000;stroke-width:1.97824812;stroke-linecap:butt;stroke-linejoin:miter;stroke-miterlimit:4;stroke-opacity:1" d="M82.416 103.114c3.095-1.56 5.232-1.918 8.327-3.477 0 0 3.575 5.021.015 6.085-3.653 1.092-4.796.686-4.062 5.602m-3.79-7.728c3.094-1.56 4.742-1.428 7.837-2.988 0 0 3.575 5.022.015 6.086-3.653 1.091-5.391-.294-4.657 4.622" sodipodi:nodetypes="cccccccc"/><path style="fill:#ff7e77;fill-opacity:1;fill-rule:nonzero;stroke:#000;stroke-width:1.97824812;stroke-linecap:butt;stroke-linejoin:miter;stroke-miterlimit:4;stroke-opacity:1" d="M74.945 158.756c-.104 2.75 1.69.466 1.587 3.216 0 0 6.063.886 5.52-2.033-.555-2.994-4.251-4.82.514-5.943m-7.72 4.433c-.103 2.75 2.67.467 2.566 3.217 0 0 6.063.886 5.521-2.033-.556-2.995-3.525-5.248 1.24-6.371" sodipodi:nodetypes="cccccccc"/><path style="fill:#ffb147;fill-opacity:1;fill-rule:nonzero;stroke:#000;stroke-width:1.97824812;stroke-linecap:butt;stroke-linejoin:miter;stroke-miterlimit:4;stroke-opacity:1" d="M40.742 160.502s10.913 4.105 7.799 5.904c-1.195 1.391-2.683 4.708-5.813 5.425-2.456 1.143-5.405-4.226-5.957-3.674-1.011.802 1.038 5.29-3.131 4.559-4.17-.732-6.847-2.806-7.442-5.254-.594-2.448 8.48-6.075 9.023-8.993m4.64 1.706s10.913 4.106 7.8 5.905c-1.195 1.39-2.683 4.708-5.813 5.425-2.456 1.143-5.405-3.737-5.957-3.185-1.012.802 1.038 4.8-3.132 4.07-4.17-.732-6.846-2.806-7.44-5.254-.595-2.448 8.48-6.075 9.022-8.994" sodipodi:nodetypes="cccccccccccccc"/><path style="fill:#ff7e77;fill-opacity:1;fill-rule:nonzero;stroke:#000;stroke-width:1.97824812;stroke-linecap:butt;stroke-linejoin:miter;stroke-miterlimit:4;stroke-opacity:1" d="M41.772 157.868c.104 2.75-1.691.466-1.587 3.217 0 0-6.063.885-5.521-2.033.556-2.995 4.252-4.82-.513-5.943m7.72 4.433c.103 2.75-2.67.466-2.567 3.216 0 0-6.062.886-5.52-2.033.556-2.994 3.525-5.248-1.24-6.37" sodipodi:nodetypes="cccccccc"/><g style="fill:#fff;fill-opacity:.07333332;stroke:none;stroke-opacity:1"><path style="fill-rule:evenodd;stroke-width:3;stroke-linecap:round;stroke-linejoin:round;stroke-miterlimit:4" d="M71.43 245.185c-41.548-32.096-37.777-47.641-44.777 8.082 25.866 56.537 74.25 34.15 86.26-6.203-6.655-37.656 8.146-31.5-41.483-1.88z" sodipodi:nodetypes="cccc" transform="matrix(-.4097 -.00638 .02513 -.14127 83.481 91.968)"/></g></g></svg>