<?xml version="1.0" encoding="UTF-8" standalone="no"?>
<!-- Created with Inkscape (http://www.inkscape.org/) -->

<svg
   xmlns:dc="http://purl.org/dc/elements/1.1/"
   xmlns:cc="http://creativecommons.org/ns#"
   xmlns:rdf="http://www.w3.org/1999/02/22-rdf-syntax-ns#"
   xmlns:svg="http://www.w3.org/2000/svg"
   xmlns="http://www.w3.org/2000/svg"
   xmlns:sodipodi="http://sodipodi.sourceforge.net/DTD/sodipodi-0.dtd"
   xmlns:inkscape="http://www.inkscape.org/namespaces/inkscape"
   width="120"
   height="200"
   id="svg2513"
   sodipodi:version="0.32"
   inkscape:version="0.91 r13725"
   sodipodi:docname="03_bear.svg"
   version="1.0">
  <defs
     id="defs2515" />
  <sodipodi:namedview
     id="base"
     pagecolor="#ffffff"
     bordercolor="#666666"
     borderopacity="1.0"
     inkscape:pageopacity="0.0"
     inkscape:pageshadow="2"
     inkscape:zoom="1.8941176"
     inkscape:cx="117.14286"
     inkscape:cy="58.571429"
     inkscape:document-units="px"
     inkscape:current-layer="layer1"
     inkscape:window-width="1006"
     inkscape:window-height="842"
     inkscape:window-x="89"
     inkscape:window-y="5"
     height="200px"
     width="120px" />
  <metadata
     id="metadata2518">
    <rdf:RDF>
      <cc:Work
         rdf:about="">
        <dc:format>image/svg+xml</dc:format>
        <dc:type
           rdf:resource="http://purl.org/dc/dcmitype/StillImage" />
      </cc:Work>
    </rdf:RDF>
  </metadata>
  <g
     inkscape:label="Calque 1"
     inkscape:groupmode="layer"
     id="layer1">
    <path
       style="opacity:1;fill:black;fill-opacity:0.26086956;fill-rule:evenodd;stroke:none;stroke-width:5;stroke-linecap:round;stroke-linejoin:round;stroke-miterlimit:4;stroke-opacity:1"
       d="M 24.747019,190.57531 C 2.0493313,183.45557 -12.345032,151.59623 39.701718,139.36653 C 91.71583,127.14449 126.18973,172.97555 107.1167,185.31838 C 89.030266,197.02275 46.024413,197.24953 24.747019,190.57531 z "
       id="path3188"
       sodipodi:nodetypes="czzz" />
    <path
       id="path8790"
       style="fill:#ffb147;fill-opacity:1;fill-rule:nonzero;stroke:black;stroke-width:2.21211028;stroke-linecap:butt;stroke-linejoin:miter;stroke-miterlimit:4;stroke-opacity:1"
       d="M 14.510911,95.805787 C 5.24983,93.050999 6.2105052,89.943031 15.601864,92.073106 M 15.169876,95.807337 C 10.373446,95.945227 6.1364141,90.303672 15.431805,91.037103"
       sodipodi:nodetypes="cccc" />
    <path
       id="path8792"
       style="fill:#ffb147;fill-opacity:1;fill-rule:nonzero;stroke:black;stroke-width:2.21211028;stroke-linecap:butt;stroke-linejoin:miter;stroke-miterlimit:4;stroke-opacity:1"
       d="M 13.764626,89.798971 C 4.8119577,86.164931 6.0675295,83.163955 15.210048,86.18873 M 14.420377,89.863989 C 9.6329724,89.539223 5.9590404,83.515792 15.140566,85.14115"
       sodipodi:nodetypes="cccc" />
    <path
       id="path8794"
       style="fill:#ffb147;fill-opacity:1;fill-rule:nonzero;stroke:black;stroke-width:2.21211028;stroke-linecap:butt;stroke-linejoin:miter;stroke-miterlimit:4;stroke-opacity:1"
       d="M 15.367277,85.283679 C 8.0141567,79.015673 10.150752,76.562649 17.875899,82.312175 M 15.969208,85.551857 C 11.527548,83.736272 9.9370044,76.862427 18.139789,81.296005"
       sodipodi:nodetypes="cccc" />
    <g
       id="g8778"
       transform="matrix(0.73737,0,0,-0.662357,14.22742,257.039)"
       style="fill:#752f21;fill-opacity:1;fill-rule:nonzero">
      <path
         style="fill:#752f21;fill-opacity:1;fill-rule:nonzero;stroke:black;stroke-width:3;stroke-linecap:round;stroke-linejoin:round;stroke-miterlimit:4;stroke-opacity:1"
         d="M 43.912178,150.09499 C 0.41278786,170.72439 5.4904579,232.82202 24.785808,252.26662 C 40.901478,276.65986 95.48499,268.42224 105.67662,240.68399 C 125.95152,219.35747 93.540858,120.47483 43.912178,150.09499 z "
         id="path8780"
         sodipodi:nodetypes="cccc" />
      <path
         style="fill:#752f21;fill-opacity:1;fill-rule:nonzero;stroke:black;stroke-width:3;stroke-linecap:round;stroke-linejoin:round;stroke-miterlimit:4;stroke-opacity:1"
         d="M 45.779162,151.09499 C 2.2797715,171.72439 7.3574415,233.82202 26.652792,253.26662 C 42.768462,277.65986 95.203982,267.6288 105.39561,239.89055 C 125.67051,218.56403 95.407842,121.47483 45.779162,151.09499 z "
         id="path8782"
         sodipodi:nodetypes="cccc" />
    </g>
    <g
       id="g8772"
       transform="matrix(0.73737,0,0,-0.662357,14.22742,255.784)">
      <path
         style="fill:none;fill-opacity:0.75;fill-rule:evenodd;stroke:black;stroke-width:3;stroke-linecap:round;stroke-linejoin:round;stroke-miterlimit:4;stroke-opacity:1"
         d="M 43.912178,150.09499 C 0.41278786,170.72439 5.4904579,232.82202 24.785808,252.26662 C 40.901478,276.65986 95.48499,268.42224 105.67662,240.68399 C 125.95152,219.35747 93.540858,120.47483 43.912178,150.09499 z "
         id="path8774"
         sodipodi:nodetypes="cccc" />
      <path
         style="fill:none;fill-opacity:0.75;fill-rule:evenodd;stroke:black;stroke-width:3;stroke-linecap:round;stroke-linejoin:round;stroke-miterlimit:4;stroke-opacity:1"
         d="M 45.779162,151.09499 C 2.2797715,171.72439 7.3574415,233.82202 26.652792,253.26662 C 42.768462,277.65986 95.203982,267.6288 105.39561,239.89055 C 125.67051,218.56403 95.407842,121.47483 45.779162,151.09499 z "
         id="path8776"
         sodipodi:nodetypes="cccc" />
    </g>
    <path
       id="path8700"
       style="fill:#752f21;fill-opacity:1;fill-rule:nonzero;stroke:black;stroke-width:2.21211028;stroke-linecap:round;stroke-linejoin:round;stroke-miterlimit:4;stroke-opacity:1"
       d="M 29.327213,24.682165 C 21.87622,34.515807 31.121264,37.067793 34.526358,40.258829 C 30.375451,47.383468 28.667414,62.172297 30.030936,68.016758 C 33.364432,82.305022 55.258435,98.353827 73.04932,91.836812 C 86.450917,86.927651 97.860404,59.794515 89.73536,43.415031 C 97.13112,45.265808 101.16172,33.199159 95.829711,28.195881 C 89.11792,21.897892 84.06175,25.502866 82.392521,36.126268 C 79.727081,34.886416 73.950609,30.733445 70.329761,30.040767 C 58.753228,27.826105 48.718192,31.960428 42.159037,34.854252 C 44.75141,25.049442 38.927498,16.76365 29.327213,24.682165 z M 29.732973,25.456013 C 22.991906,32.711758 30.185062,36.441699 34.150145,40.052704 C 29.999237,47.177351 27.311228,65.186062 30.074707,71.310516 C 36.109115,84.684077 57.682122,99.407657 76.452974,89.810766 C 89.160859,83.313685 97.344189,59.028423 89.919119,44.048889 C 97.874876,44.219724 101.75458,35.255632 96.119499,27.723846 C 92.610504,23.033752 83.288944,22.363939 82.99627,36.200137 C 80.33082,34.960294 75.114335,32.767245 71.493487,32.074566 C 59.916954,29.859897 49.601924,32.314285 42.482787,34.928122 C 45.199922,24.36601 40.460748,17.733454 29.732973,25.456013 z "
       sodipodi:nodetypes="ccsscscsccccsscscscc" />
    <path
       style="fill:black;fill-opacity:1;fill-rule:evenodd;stroke:black;stroke-width:4.03663254;stroke-linecap:round;stroke-linejoin:round;stroke-miterlimit:4;stroke-opacity:1"
       d="M 48.508363,50.757999 C 51.35999,56.343976 46.894318,52.715017 46.894318,52.715017"
       id="path8702"
       sodipodi:nodetypes="cc" />
    <path
       style="fill:black;fill-opacity:1;fill-rule:evenodd;stroke:black;stroke-width:3.61496711;stroke-linecap:round;stroke-linejoin:round;stroke-miterlimit:4;stroke-opacity:1"
       d="M 75.671186,52.254196 C 78.205757,57.631911 74.344874,54.058785 74.344874,54.058785"
       id="path8704"
       sodipodi:nodetypes="cc" />
    <path
       style="fill:black;fill-opacity:1;fill-rule:evenodd;stroke:black;stroke-width:3.68685079;stroke-linecap:round;stroke-linejoin:round;stroke-miterlimit:4;stroke-opacity:1"
       d="M 60.461395,135.24615 C 62.209365,141.45218 58.971684,136.92317 58.971684,136.92317"
       id="path8706"
       sodipodi:nodetypes="cc" />
    <path
       sodipodi:nodetypes="cccc"
       id="path8708"
       style="fill:white;fill-opacity:0.19565214;fill-rule:nonzero;stroke:black;stroke-width:0;stroke-linecap:round;stroke-linejoin:round;stroke-miterlimit:4;stroke-dasharray:none;stroke-dashoffset:0;stroke-opacity:1"
       d="M 43.637428,75.983725 C 41.236764,55.718148 52.644572,54.191083 68.736959,56.381611 C 78.40874,60.709738 81.960152,79.686599 69.125326,87.36425 C 61.195784,91.088117 47.811984,91.434816 43.637428,75.983725 z " />
    <g
       id="g8712"
       transform="matrix(-0.45814,-1.65402e-2,2.81054e-2,-0.366397,83.61856,196.6939)"
       style="fill:white;fill-opacity:0.07333332;stroke:none;stroke-opacity:1">
      <path
         style="fill-rule:evenodd;stroke-width:3;stroke-linecap:round;stroke-linejoin:round;stroke-miterlimit:4"
         d="M 43.912178,150.09499 C 0.41278786,170.72439 5.4904579,232.82202 24.785808,252.26662 C 40.901478,276.65986 100.85496,273.80256 111.04659,246.06431 C 131.32149,224.73779 93.540858,120.47483 43.912178,150.09499 z "
         id="path8714"
         sodipodi:nodetypes="cccc" />
      <path
         style="fill-rule:evenodd;stroke-width:3;stroke-linecap:round;stroke-linejoin:round;stroke-miterlimit:4"
         d="M 45.779162,151.09499 C 2.2797715,171.72439 7.3574415,233.82202 26.652792,253.26662 C 42.768462,277.65986 102.72194,274.80256 112.91357,247.06431 C 133.18847,225.73779 95.407842,121.47483 45.779162,151.09499 z "
         id="path8716"
         sodipodi:nodetypes="cccc" />
    </g>
    <path
       style="fill:#a43533;fill-opacity:1;fill-rule:evenodd;stroke:black;stroke-width:2.21211028;stroke-linecap:round;stroke-linejoin:round;stroke-miterlimit:4;stroke-opacity:1"
       d="M 89.989461,40.115528 C 101.92097,36.461262 90.426842,21.047586 85.991363,36.850955"
       id="path8718"
       sodipodi:nodetypes="cc" />
    <path
       style="fill:#a43533;fill-opacity:1;fill-rule:evenodd;stroke:black;stroke-width:2.21211028;stroke-linecap:round;stroke-linejoin:round;stroke-miterlimit:4;stroke-opacity:1"
       d="M 35.126393,36.180059 C 23.811235,32.308511 39.89276,17.357477 39.608024,33.619357"
       id="path8720"
       sodipodi:nodetypes="cc" />
    <path
       id="path8750"
       style="fill:#752f21;fill-opacity:1;fill-rule:nonzero;stroke:black;stroke-width:2.21211028;stroke-linecap:butt;stroke-linejoin:miter;stroke-miterlimit:4;stroke-opacity:1"
       d="M 40.386776,84.476407 C 32.613893,83.025219 23.451944,79.829361 18.813804,80.465637 C 18.813804,80.465637 9.4410574,81.554453 15.761726,96.275787 C 20.438813,99.590187 20.093783,99.522277 26.692449,100.6165 M 39.716609,84.629877 C 31.932143,83.427823 25.591401,80.480267 19.221305,80.458994 C 19.221305,80.458994 12.622779,85.120561 16.402338,95.594447 C 21.146188,99.824847 18.847524,98.449077 26.547954,100.55065"
       sodipodi:nodetypes="cccccccc" />
    <path
       style="fill:white;fill-opacity:0.07333332;fill-rule:evenodd;stroke:none;stroke-width:3;stroke-linecap:round;stroke-linejoin:round;stroke-miterlimit:4;stroke-opacity:1"
       d="M 28.016914,84.992005 C 39.63791,89.060331 38.250489,90.901649 41.309668,84.266228 C 34.73336,77.355543 20.123941,79.775009 15.870607,84.542653 C 17.1465,89.088297 12.911732,88.270947 28.016914,84.992005 z "
       id="path8830"
       sodipodi:nodetypes="cccc" />
    <path
       id="path8766"
       style="fill:#752f21;fill-opacity:1;fill-rule:nonzero;stroke:black;stroke-width:2.21211028;stroke-linecap:butt;stroke-linejoin:miter;stroke-miterlimit:4;stroke-opacity:1"
       d="M 86.344981,141.32173 C 93.880696,147.04282 96.016418,156.07015 96.768187,160.69098 C 96.768187,160.69098 98.475635,169.97097 82.547991,168.24496 C 78.007817,164.74538 77.713413,160.946 74.732345,154.95826 M 86.126359,141.39629 C 93.293337,147.34728 94.766773,154.21561 96.655041,160.29943 C 96.655041,160.29943 94.133297,167.97482 83.011545,167.43271 C 77.576042,164.1379 79.392301,161.57164 75.125067,154.82597"
       sodipodi:nodetypes="cccccccc"
       inkscape:transform-center-y="4.1576351"
       inkscape:transform-center-x="-2.5737761" />
    <path
       id="path8768"
       style="fill:#752f21;fill-opacity:1;fill-rule:nonzero;stroke:black;stroke-width:2.21211028;stroke-linecap:butt;stroke-linejoin:miter;stroke-miterlimit:4;stroke-opacity:1"
       d="M 30.200738,138.95146 C 22.665015,144.67255 17.856528,157.36255 17.104764,161.98337 C 17.104764,161.98337 15.39731,171.26338 31.324955,169.53737 C 35.865133,166.03778 39.624232,157.98178 42.605293,151.99404 M 30.320369,139.02601 C 23.15339,144.97701 19.106178,155.508 17.217907,161.59184 C 17.217907,161.59184 19.739646,169.26723 30.861407,168.72512 C 36.296901,165.43031 38.242319,159.30036 42.509546,152.55468"
       sodipodi:nodetypes="cccccccc"
       inkscape:transform-center-y="4.1576413"
       inkscape:transform-center-x="2.5737739" />
    <path
       id="path8796"
       style="fill:#ffb147;fill-opacity:1;fill-rule:nonzero;stroke:black;stroke-width:2.21211028;stroke-linecap:butt;stroke-linejoin:miter;stroke-miterlimit:4;stroke-opacity:1"
       d="M 30.071279,170.8143 C 25.900344,179.52979 22.981133,178.0943 26.555469,169.15232 M 30.176,170.16371 C 29.561144,174.92255 23.325728,178.22396 25.505616,169.15806"
       sodipodi:nodetypes="cccc" />
    <path
       id="path8798"
       style="fill:#ffb147;fill-opacity:1;fill-rule:nonzero;stroke:black;stroke-width:2.21211028;stroke-linecap:butt;stroke-linejoin:miter;stroke-miterlimit:4;stroke-opacity:1"
       d="M 24.721672,169.49085 C 19.730635,177.76405 16.96327,176.05406 21.382308,167.49795 M 24.888577,168.85338 C 23.818195,173.53087 17.293775,176.21631 20.336768,167.40254"
       sodipodi:nodetypes="cccc" />
    <path
       id="path8800"
       style="fill:#ffb147;fill-opacity:1;fill-rule:nonzero;stroke:black;stroke-width:2.21211028;stroke-linecap:butt;stroke-linejoin:miter;stroke-miterlimit:4;stroke-opacity:1"
       d="M 20.513037,167.20095 C 13.170969,173.4819 11.082752,170.98755 17.970982,164.25799 M 20.872165,166.64843 C 18.383482,170.75102 11.345366,171.24561 17.00867,163.83823"
       sodipodi:nodetypes="cccc" />
    <path
       id="path8802"
       style="fill:#ffb147;fill-opacity:1;fill-rule:nonzero;stroke:black;stroke-width:2.21211028;stroke-linecap:butt;stroke-linejoin:miter;stroke-miterlimit:4;stroke-opacity:1"
       d="M 83.812536,169.74366 C 87.983473,178.45915 90.902681,177.02367 87.328345,168.08169 M 83.70782,169.09308 C 84.322676,173.85192 90.558086,177.15332 88.378206,168.08743"
       sodipodi:nodetypes="cccc" />
    <path
       id="path8804"
       style="fill:#ffb147;fill-opacity:1;fill-rule:nonzero;stroke:black;stroke-width:2.21211028;stroke-linecap:butt;stroke-linejoin:miter;stroke-miterlimit:4;stroke-opacity:1"
       d="M 89.16214,168.42021 C 94.153177,176.69342 96.920541,174.98343 92.501505,166.42732 M 88.99524,167.78274 C 90.065618,172.46023 96.590044,175.14568 93.547053,166.3319"
       sodipodi:nodetypes="cccc" />
    <path
       id="path8806"
       style="fill:#ffb147;fill-opacity:1;fill-rule:nonzero;stroke:black;stroke-width:2.21211028;stroke-linecap:butt;stroke-linejoin:miter;stroke-miterlimit:4;stroke-opacity:1"
       d="M 93.370775,166.13032 C 100.71284,172.41127 102.80106,169.91693 95.912838,163.18735 M 93.011656,165.5778 C 95.500339,169.68038 102.53845,170.17498 96.875144,162.7676"
       sodipodi:nodetypes="cccc" />
    <path
       id="path8808"
       style="fill:#ffb147;fill-opacity:1;fill-rule:nonzero;stroke:black;stroke-width:2.21211028;stroke-linecap:butt;stroke-linejoin:miter;stroke-miterlimit:4;stroke-opacity:1"
       d="M 107.8081,98.343757 C 117.06919,95.588967 116.10851,92.480999 106.71715,94.611074 M 107.14914,98.345307 C 111.94558,98.483197 116.1826,92.84164 106.8872,93.57507"
       sodipodi:nodetypes="cccc" />
    <path
       id="path8810"
       style="fill:#ffb147;fill-opacity:1;fill-rule:nonzero;stroke:black;stroke-width:2.21211028;stroke-linecap:butt;stroke-linejoin:miter;stroke-miterlimit:4;stroke-opacity:1"
       d="M 108.55439,92.336939 C 117.50706,88.702899 116.25149,85.701919 107.10896,88.726697 M 107.89864,92.401957 C 112.68605,92.07719 116.35998,86.053755 107.17845,87.679118"
       sodipodi:nodetypes="cccc" />
    <path
       id="path8812"
       style="fill:#ffb147;fill-opacity:1;fill-rule:nonzero;stroke:black;stroke-width:2.21211028;stroke-linecap:butt;stroke-linejoin:miter;stroke-miterlimit:4;stroke-opacity:1"
       d="M 106.95173,87.821647 C 114.30486,81.553642 112.16826,79.100618 104.44312,84.850133 M 106.34981,88.089835 C 110.79147,86.274232 112.38201,79.400396 104.17922,83.833974"
       sodipodi:nodetypes="cccc" />
    <path
       id="path8814"
       style="fill:#752f21;fill-opacity:1;fill-rule:nonzero;stroke:black;stroke-width:2.21211028;stroke-linecap:butt;stroke-linejoin:miter;stroke-miterlimit:4;stroke-opacity:1"
       d="M 81.932238,87.014373 C 89.705123,85.563183 98.867065,82.367329 103.50522,83.003606 C 103.50522,83.003606 112.87796,84.092422 106.55729,98.813757 C 101.88021,102.12816 100.64137,102.06025 94.042699,103.15446 M 82.602402,87.167842 C 90.386872,85.965783 96.727613,83.018236 103.09771,82.996963 C 103.09771,82.996963 109.69624,87.658529 105.91668,98.132417 C 101.17283,102.36282 102.28359,102.17493 94.58316,104.27652"
       sodipodi:nodetypes="cccccccc" />
    <g
       id="g8822"
       transform="matrix(-0.45814,-7.131414e-3,2.81054e-2,-0.157975,88.12188,77.1421)"
       style="fill:white;fill-opacity:0.07333332;stroke:none;stroke-opacity:1">
      <path
         style="fill-rule:evenodd;stroke-width:3;stroke-linecap:round;stroke-linejoin:round;stroke-miterlimit:4"
         d="M 71.429931,245.18482 C 29.88177,213.08921 33.653439,197.54365 26.652792,253.26662 C 52.519036,309.80446 100.90294,287.41728 112.91357,247.06431 C 106.25799,209.40787 121.05862,215.56466 71.429931,245.18482 z "
         id="path8826"
         sodipodi:nodetypes="cccc" />
    </g>
    <path
       style="fill:white;fill-opacity:0.07333332;fill-rule:evenodd;stroke:none;stroke-width:3;stroke-linecap:round;stroke-linejoin:round;stroke-miterlimit:4;stroke-opacity:1"
       d="M 95.172155,87.718389 C 106.79315,91.786715 105.40572,93.628022 108.46491,86.992607 C 101.8886,80.081925 87.279175,82.501391 83.025841,87.269037 C 84.301743,91.814681 80.066966,90.997331 95.172155,87.718389 z "
       id="path8832"
       sodipodi:nodetypes="cccc" />
    <path
       style="fill:white;fill-opacity:0.07333332;fill-rule:evenodd;stroke:none;stroke-width:3;stroke-linecap:round;stroke-linejoin:round;stroke-miterlimit:4;stroke-opacity:1"
       d="M 88.266144,150.83653 C 87.947057,157.59225 86.062237,158.09621 92.346317,155.53459 C 96.335016,149.1162 90.510542,144.86612 85.457196,145.9171 C 82.035027,148.96726 81.601648,146.88004 88.266144,150.83653 z "
       id="path8834"
       sodipodi:nodetypes="cccc" />
    <path
       style="fill:white;fill-opacity:0.07333332;fill-rule:evenodd;stroke:none;stroke-width:3;stroke-linecap:round;stroke-linejoin:round;stroke-miterlimit:4;stroke-opacity:1"
       d="M 27.20091,149.86889 C 27.52,156.62461 29.404821,157.12857 23.120732,154.56696 C 19.132039,148.14855 24.956511,143.89849 30.009856,144.94946 C 33.432028,147.99963 33.865409,145.9124 27.20091,149.86889 z "
       id="path8836"
       sodipodi:nodetypes="cccc" />
    <path
       d="M 48.574652,74.689972 C 48.574652,74.689972 59.891666,82.836408 73.478292,74.282988 M 48.754618,73.425279 C 48.754618,73.425279 59.511666,84.091626 73.098282,75.538214"
       style="fill:none;fill-opacity:0.75;fill-rule:evenodd;stroke:black;stroke-width:1.47474027;stroke-linecap:round;stroke-linejoin:round;stroke-miterlimit:4;stroke-opacity:1"
       id="path8900"
       sodipodi:nodetypes="cccc" />
    <path
       id="path8902"
       d="M 60.997303,77.497782 L 60.852763,69.396524"
       style="fill:none;fill-opacity:0.75;fill-rule:evenodd;stroke:black;stroke-width:1.47474027;stroke-linecap:round;stroke-linejoin:round;stroke-miterlimit:4;stroke-dasharray:none;stroke-opacity:1" />
    <path
       d="M 60.655219,68.295926 C 60.655219,68.295926 54.052562,63.787153 56.173124,60.641613 C 52.159762,57.815303 65.023773,57.400922 67.342243,59.37341 C 69.660713,61.345897 60.655219,68.295926 60.655219,68.295926 z M 60.990686,69.349959 C 60.990686,69.349959 54.388019,64.841179 56.508581,61.695646 C 52.495208,58.869336 65.359219,58.454956 67.677689,60.427444 C 69.99618,62.39993 60.990686,69.349959 60.990686,69.349959 z "
       style="fill:black;fill-opacity:1;fill-rule:nonzero;stroke:black;stroke-width:1.47474027;stroke-linecap:round;stroke-linejoin:round;stroke-miterlimit:4;stroke-opacity:1"
       id="path8904"
       inkscape:transform-center-x="-1.9599289" />
  </g>
</svg>
