<!--Created with Inkscape (http://www.inkscape.org/)--><svg xmlns:dc="http://purl.org/dc/elements/1.1/" xmlns:cc="http://creativecommons.org/ns#" xmlns:rdf="http://www.w3.org/1999/02/22-rdf-syntax-ns#" xmlns="http://www.w3.org/2000/svg" xmlns:sodipodi="http://sodipodi.sourceforge.net/DTD/sodipodi-0.dtd" xmlns:inkscape="http://www.inkscape.org/namespaces/inkscape" width="120" height="200" sodipodi:version="0.32" inkscape:version="0.91 r13725" sodipodi:docname="04_hippopotamus.svg" version="1.0"><sodipodi:namedview pagecolor="#ffffff" bordercolor="#666666" borderopacity="1.0" inkscape:pageopacity="0.0" inkscape:pageshadow="2" inkscape:zoom="2.0982773" inkscape:cx="112.97052" inkscape:cy="49.115255" inkscape:document-units="px" inkscape:current-layer="layer1" inkscape:window-width="887" inkscape:window-height="894" inkscape:window-x="53" inkscape:window-y="17" height="200px" width="120px"/><metadata><rdf:RDF><cc:Work><dc:format>image/svg+xml</dc:format><dc:type rdf:resource="http://purl.org/dc/dcmitype/StillImage"/></cc:Work></rdf:RDF></metadata><g inkscape:label="Calque 1" inkscape:groupmode="layer"><path inkscape:transform-center-y="0.012142605" inkscape:transform-center-x="-0.5988659" style="fill:#a5b1c2;fill-opacity:1;fill-rule:evenodd;stroke:none;stroke-width:2.30175185;stroke-linecap:butt;stroke-linejoin:miter;stroke-miterlimit:4;stroke-dasharray:none;stroke-opacity:1" d="M364.041 527.862c-1.803 14.287-26.83 5.546-22.04-4.015" sodipodi:nodetypes="cc" transform="matrix(0 -.58936 -.58936 0 422.45 295.389)"/><g style="fill:#a5b1c2;fill-opacity:1"><path style="fill:#a5b1c2;fill-opacity:1;fill-rule:evenodd;stroke:#000;stroke-width:4;stroke-linecap:butt;stroke-linejoin:miter;stroke-miterlimit:4;stroke-dasharray:none;stroke-opacity:1" d="M725.848 281.261c-.864-13-22.788-7.363-17.93.82" sodipodi:nodetypes="cc" inkscape:transform-center-x="3.4697407" inkscape:transform-center-y="-1.4778979" transform="matrix(-.02441 -.26534 -.4287 .05188 249.656 267.958)"/><path style="fill:#a5b1c2;fill-opacity:1;fill-rule:evenodd;stroke:#000;stroke-width:4;stroke-linecap:butt;stroke-linejoin:miter;stroke-miterlimit:4;stroke-dasharray:none;stroke-opacity:1" d="M742.725 284.284c2.821-12.72-15.058-16.97-16.636-1.6" sodipodi:nodetypes="cc" inkscape:transform-center-x="3.9451526" inkscape:transform-center-y="-2.595119" transform="matrix(-.02441 -.26534 -.4287 .05188 249.656 267.958)"/><path style="fill:#a5b1c2;fill-opacity:1;fill-rule:evenodd;stroke:#000;stroke-width:4;stroke-linecap:butt;stroke-linejoin:miter;stroke-miterlimit:4;stroke-dasharray:none;stroke-opacity:1" d="M760.279 290.02c5.49-11.822-13.167-17.045-18.11-6.245" sodipodi:nodetypes="cc" inkscape:transform-center-x="3.9052362" inkscape:transform-center-y="-2.6254546" transform="matrix(-.02441 -.26534 -.4287 .05188 249.656 267.958)"/></g><path style="opacity:1;fill:#000;fill-opacity:.24347825;fill-rule:evenodd;stroke:none;stroke-width:5;stroke-linecap:round;stroke-linejoin:round;stroke-miterlimit:4;stroke-opacity:1" d="M26.296 180.656c-21.886-6.693-35.766-36.64 14.42-48.136 50.155-11.489 83.397 31.592 65.006 43.194-17.44 11.002-58.91 11.215-79.426 4.942z" sodipodi:nodetypes="czzz"/><g style="fill:#7a8ca5;fill-opacity:1;stroke:none;stroke-opacity:1"><path style="fill:#7a8ca5;fill-opacity:1;fill-rule:evenodd;stroke-width:5;stroke-linecap:round;stroke-linejoin:round;stroke-miterlimit:4" d="M449.288 211.321c-22.056-15.372-36.044-84.16 14.532-110.565 50.545-26.388 84.045 72.566 65.51 99.215-17.575 25.271-59.366 25.76-80.042 11.35z" sodipodi:nodetypes="czzz" transform="matrix(.58936 0 0 .58936 -224.064 20.428)"/><path d="M448.257 112.362c-7.092 7.188-11.78 15.603-14.656 24.469l91.03-3.219a104.587 104.587 0 0 0-4.905-9.437l-71.47-11.813zm-17.625 37.719c-1.532 12.141-.185 24.361 3.031 34.844l100.938-16.188c-.241-2.19-.663-4.429-1.063-6.687l-102.906-11.97zm6.812 44.562c3.43 7.26 7.741 13.08 12.47 16.375 18.192 12.68 52.71 13.812 72.718-3.312l-85.188-13.063z" style="fill:#7a8ca5;fill-opacity:1;fill-rule:evenodd;stroke-width:5;stroke-linecap:round;stroke-linejoin:round;stroke-miterlimit:4" transform="matrix(.58936 0 0 .58936 -224.064 20.428)"/><path style="fill:#7a8ca5;fill-opacity:1;fill-rule:evenodd;stroke-width:5;stroke-linecap:round;stroke-linejoin:round;stroke-miterlimit:4" d="M450.288 212.321c-22.056-15.372-36.044-84.16 14.532-110.565 50.545-26.388 84.045 72.566 65.51 99.215-17.575 25.271-59.366 25.76-80.042 11.35z" sodipodi:nodetypes="czzz" transform="matrix(.58936 0 0 .58936 -224.064 20.428)"/></g><path style="fill:#7a8ca5;fill-opacity:1;fill-rule:nonzero;stroke:#000;stroke-width:1.76806676;stroke-linecap:round;stroke-linejoin:round;stroke-miterlimit:4;stroke-opacity:1" d="M40.478 40.665c-4.885 5.27 1.37 7.815 3.263 10.365-3.318 5.695-5.915 20.404-4.825 25.075 2.664 11.42 16.712 22.45 30.932 17.24C80.56 89.423 83.13 65.702 76.635 52.61c5.193-3.9 6.493-4.63 3.891-7.814-2.8-3.427-6.57-4.406-6.872 4.675-10.913-6.123-15.257-7.94-25.557-1.457-1.499-7.173-2.431-11.624-7.619-7.35zm.227.13c-6.107 5.844 1.897 8.168 3.27 10.363-3.317 5.695-5.418 15.143-4.607 25.161.684 8.454 18.198 23.078 33.2 15.408 10.157-5.193 10.051-26.931 4.116-38.904 4.784-3.952 7.84-2.844 3.635-7.817-1.586-1.874-6.535-6.535-6.769 4.524-7.974-5.495-11.377-11.34-25.292-1.653-3.2-7.367-2.93-10.16-7.553-7.082z" sodipodi:nodetypes="ccsscscccccsscsccc"/><path style="fill:#000;fill-opacity:1;fill-rule:evenodd;stroke:#000;stroke-width:3.22634721;stroke-linecap:round;stroke-linejoin:round;stroke-miterlimit:4;stroke-opacity:1" d="M46.918 61.447c2.28 4.465-1.29 1.564-1.29 1.564" sodipodi:nodetypes="cc"/><path style="fill:#000;fill-opacity:1;fill-rule:evenodd;stroke:#000;stroke-width:2.88932395;stroke-linecap:round;stroke-linejoin:round;stroke-miterlimit:4;stroke-opacity:1" d="M73.877 61.278c2.026 4.299-1.06 1.443-1.06 1.443" sodipodi:nodetypes="cc"/><path style="fill:#000;fill-opacity:1;fill-rule:evenodd;stroke:#000;stroke-width:2.94677806;stroke-linecap:round;stroke-linejoin:round;stroke-miterlimit:4;stroke-opacity:1" d="M59.787 128.042c1.397 4.96-1.19 1.34-1.19 1.34" sodipodi:nodetypes="cc"/><g style="fill:#4c4c4d;fill-opacity:.13478262;stroke:none;stroke-opacity:1"><path style="fill:#4c4c4d;fill-opacity:.13478262;fill-rule:evenodd;stroke-width:3;stroke-linecap:round;stroke-linejoin:round;stroke-miterlimit:4" d="M56.01 153.36C6.458 143.777-12.42 260.303 6.875 279.748c35.532-58.41 58.955-97.722 124.185 7.327 20.274-21.326-3.198-120.52-75.05-133.717z" sodipodi:nodetypes="cccc" transform="matrix(-.42104 -.00698 .02583 -.15467 81.598 174.34)"/></g><path style="fill:#fff;fill-opacity:.07333332;fill-rule:evenodd;stroke:none;stroke-width:3;stroke-linecap:round;stroke-linejoin:round;stroke-miterlimit:4;stroke-opacity:1" d="M33.855 87.875c9.288 3.252 8.18 4.723 10.625-.58-5.257-5.523-16.933-3.59-20.333.22 1.02 3.634-2.365 2.98 9.708.36z" sodipodi:nodetypes="cccc"/><path style="fill:none;fill-opacity:.75;fill-rule:evenodd;stroke:#000;stroke-width:3;stroke-linecap:round;stroke-linejoin:round;stroke-miterlimit:4;stroke-opacity:1" d="M43.912 150.095c-43.5 20.63-38.422 82.727-19.126 102.172 16.115 24.393 76.069 21.536 86.26-6.203 20.275-21.326-17.505-125.59-67.134-95.969z" sodipodi:nodetypes="cccc" transform="matrix(.58936 0 0 .58936 22.233 -6.963)"/><path style="fill:none;fill-opacity:.75;fill-rule:evenodd;stroke:#000;stroke-width:3;stroke-linecap:round;stroke-linejoin:round;stroke-miterlimit:4;stroke-opacity:1" d="M45.78 151.095c-43.5 20.63-38.423 82.727-19.127 102.172 16.115 24.393 76.069 21.536 86.26-6.203 20.275-21.326-17.505-125.59-67.134-95.969z" sodipodi:nodetypes="cccc" transform="matrix(.58936 0 0 .58936 22.233 -6.963)"/><path style="fill:#7a8ca5;fill-opacity:1;fill-rule:nonzero;stroke:#000;stroke-width:1.76806676;stroke-linecap:butt;stroke-linejoin:miter;stroke-miterlimit:4;stroke-opacity:1" d="M43.742 87.463c-6.213-1.16-16.85-6.477-20.558-5.968 0 0-8.044 3.08-2.992 14.846 3.739 2.65 3.463 2.595 8.737 3.47m14.277-12.225c-6.222-.961-16.312-6.445-21.404-6.462 0 0-5.224 6.578-2.203 14.949 3.792 3.381 8.106 3.147 14.26 4.827" sodipodi:nodetypes="cccccccc"/><path style="fill:#7a8ca5;fill-opacity:1;fill-rule:nonzero;stroke:#000;stroke-width:1.76806676;stroke-linecap:butt;stroke-linejoin:miter;stroke-miterlimit:4;stroke-opacity:1" d="M86.368 137.612c6.023 4.573 5.843 9.698 6.444 13.391 0 0-.846 8.937-13.576 7.557-3.63-2.797-4.481-4.968-6.864-9.754m14.116-11.134c5.729 4.756 4.31 8.57 5.819 13.433 0 0-3.397 7.516-12.286 7.082-4.345-2.633-4.22-3.21-7.63-8.602" sodipodi:nodetypes="cccccccc" inkscape:transform-center-y="3.3230618" inkscape:transform-center-x="-2.0571327"/><path style="fill:#7a8ca5;fill-opacity:1;fill-rule:nonzero;stroke:#000;stroke-width:1.76806676;stroke-linecap:butt;stroke-linejoin:miter;stroke-miterlimit:4;stroke-opacity:1" d="M31.475 131.592c-6.023 4.573-9.194 16.475-9.795 20.168 0 0 2.365 8.522 15.095 7.143 3.63-2.797 5.179-7.975 7.561-12.76M32.455 132.24c-5.729 4.757-9.451 14.896-10.96 19.759 0 0 5.883 7.101 14.772 6.668 4.344-2.634 3.698-6.686 7.109-12.077" sodipodi:nodetypes="cccccccc" inkscape:transform-center-y="3.3230632" inkscape:transform-center-x="2.057132"/><g style="opacity:.61016947;fill:#fff;fill-opacity:1;stroke:none;stroke-opacity:1"><path style="opacity:.56779659;fill:#fff;fill-opacity:1;fill-rule:evenodd;stroke-width:3;stroke-linecap:round;stroke-linejoin:round;stroke-miterlimit:4" d="M71.718 264.645c-23.915 3.21-29.943-49.089-38.86-18.442 25.867 56.538 54.181 82.1 75.996-1.362-15.165-16.487-13.713 24.187-37.136 19.804z" sodipodi:nodetypes="cccc" transform="matrix(-.36618 -.0057 .02246 -.12626 81.326 82.952)"/></g><path style="fill:#7a8ca5;fill-opacity:1;fill-rule:nonzero;stroke:#000;stroke-width:1.76806676;stroke-linecap:butt;stroke-linejoin:miter;stroke-miterlimit:4;stroke-opacity:1" d="M76.948 89.491c6.212-1.16 16.298-4.819 20.005-4.31 0 0 7.768 1.146 2.716 12.913-3.738 2.649-9.24 6.075-14.515 6.95m-7.67-15.43c6.221-.96 14.833-5.26 19.925-5.277 0 0 5.736 5.255 2.715 13.626-3.792 3.382-8.973 5.414-15.127 7.094" sodipodi:nodetypes="cccccccc"/><path style="fill:#7a8ca5;fill-opacity:1;fill-rule:nonzero;stroke:#000;stroke-width:1.35908449;stroke-linecap:round;stroke-linejoin:round;stroke-miterlimit:4;stroke-opacity:1" d="M39.494 73.334c-3.225 3.46-4.552 10.646-3.493 13.485 2.59 6.942 19.601 14.739 33.424 11.573 10.412-2.385 19.277-15.568 12.964-23.525l-5.705-3.541c-2.071-.603-6.559-2.62-9.372-2.957-8.995-1.076-16.792.933-21.888 2.339l-5.93 2.626zm-.292-.1c-3.225 3.46-5.314 12.21-3.167 15.185 4.689 6.498 21.45 13.65 36.034 8.988 9.874-3.156 16.232-14.955 10.463-22.232l-5.379-3.813c-2.07-.603-6.124-1.668-8.937-2.005-8.995-1.076-17.009.117-22.54 1.387l-6.474 2.49z" sodipodi:nodetypes="cssccscccssccscc"/><path d="M44.546 86.985s13.569 18.385 31.984-.096M45.04 86.69s9.152 7.422 31.728.548" style="fill:none;fill-opacity:.74347821;fill-rule:evenodd;stroke:#000;stroke-width:1.45916152;stroke-linecap:round;stroke-linejoin:round;stroke-miterlimit:4;stroke-opacity:1" sodipodi:nodetypes="cccc"/><path style="fill:#000;fill-opacity:1;fill-rule:evenodd;stroke:#000;stroke-width:2.21905088;stroke-linecap:round;stroke-linejoin:round;stroke-miterlimit:4;stroke-opacity:1" d="M50.756 74.744c1.707 3.01-.893 1.01-.893 1.01" sodipodi:nodetypes="cc"/><path style="fill:#000;fill-opacity:1;fill-rule:evenodd;stroke:#000;stroke-width:2.21905088;stroke-linecap:round;stroke-linejoin:round;stroke-miterlimit:4;stroke-opacity:1" d="M68.437 75.385c1.706 3.01-.893 1.01-.893 1.01" sodipodi:nodetypes="cc"/><g style="opacity:.59745765;fill:#fff;fill-opacity:1;stroke:none;stroke-opacity:1"><path style="opacity:.55932204;fill:#fff;fill-opacity:1;fill-rule:evenodd;stroke-width:3;stroke-linecap:round;stroke-linejoin:round;stroke-miterlimit:4" d="M69.537 263.525c-26.214 8.784-49.593-43.482-61.527-31.297 32.966 82.584 107.59 61.09 115.654 5.599-18.86-15.225-15.498 38.147-54.127 25.698z" sodipodi:nodetypes="cccc" transform="matrix(-.36618 -.0057 .02246 -.12626 80.206 106.089)"/></g><path style="fill:#7a8ca5;fill-opacity:1;fill-rule:evenodd;stroke:#000;stroke-width:1.76806676;stroke-linecap:butt;stroke-linejoin:miter;stroke-miterlimit:4;stroke-dasharray:none;stroke-opacity:1" d="M99.01 98.477s5.371.571 10.24-2.387c6.955-4.224-1.07-17.368-5.94-14.187-1.303.85-6.34 2.444-6.88 2.89" sodipodi:nodetypes="cssc" inkscape:transform-center-x="-2.6158759" inkscape:transform-center-y="-1.2630137"/><path inkscape:transform-center-y="0.012142605" inkscape:transform-center-x="-0.5988659" style="fill:#a5b1c2;fill-opacity:1;fill-rule:evenodd;stroke:none;stroke-width:2.30175185;stroke-linecap:butt;stroke-linejoin:miter;stroke-miterlimit:4;stroke-dasharray:none;stroke-opacity:1" d="M364.041 527.862c-1.803 14.287-26.83 5.546-22.04-4.015" sodipodi:nodetypes="cc" transform="matrix(0 -.58936 .58936 0 -300.456 291.924)"/><g style="fill:#a5b1c2;fill-opacity:1"><path style="fill:#a5b1c2;fill-opacity:1;fill-rule:evenodd;stroke:#000;stroke-width:4;stroke-linecap:butt;stroke-linejoin:miter;stroke-miterlimit:4;stroke-dasharray:none;stroke-opacity:1" d="M725.848 281.261c-.864-13-22.788-7.363-17.93.82" sodipodi:nodetypes="cc" inkscape:transform-center-x="3.4697407" inkscape:transform-center-y="-1.4778979" transform="matrix(.02441 -.26534 .4287 .05188 -127.661 264.492)"/><path style="fill:#a5b1c2;fill-opacity:1;fill-rule:evenodd;stroke:#000;stroke-width:4;stroke-linecap:butt;stroke-linejoin:miter;stroke-miterlimit:4;stroke-dasharray:none;stroke-opacity:1" d="M742.725 284.284c2.821-12.72-15.058-16.97-16.636-1.6" sodipodi:nodetypes="cc" inkscape:transform-center-x="3.9451526" inkscape:transform-center-y="-2.595119" transform="matrix(.02441 -.26534 .4287 .05188 -127.661 264.492)"/><path style="fill:#a5b1c2;fill-opacity:1;fill-rule:evenodd;stroke:#000;stroke-width:4;stroke-linecap:butt;stroke-linejoin:miter;stroke-miterlimit:4;stroke-dasharray:none;stroke-opacity:1" d="M759.642 286.764c5.49-11.823-12.53-13.79-17.474-2.989" sodipodi:nodetypes="cc" inkscape:transform-center-x="3.9052362" inkscape:transform-center-y="-2.6254546" transform="matrix(.02441 -.26534 .4287 .05188 -127.661 264.492)"/></g><path style="fill:#7a8ca5;fill-opacity:1;fill-rule:evenodd;stroke:#000;stroke-width:1.76806676;stroke-linecap:butt;stroke-linejoin:miter;stroke-miterlimit:4;stroke-dasharray:none;stroke-opacity:1" d="M21.434 97.056s-6.643-.434-9.972-4.547c-5.12-6.324 1.07-17.368 5.94-14.187 1.303.85 6.642 2.774 7.181 3.22" sodipodi:nodetypes="cssc" inkscape:transform-center-x="2.6158805" inkscape:transform-center-y="-1.2630141"/><path style="fill:#7a8ca5;fill-opacity:1;fill-rule:evenodd;stroke:#000;stroke-width:1.76806676;stroke-linecap:butt;stroke-linejoin:miter;stroke-miterlimit:4;stroke-dasharray:none;stroke-opacity:1" d="M78.993 155.656s-1.372 7.466 3.425 9.7c7.376 3.436 14.046-3.642 12.327-9.2-.75-2.425-3.288-5.096-3.85-5.511" sodipodi:nodetypes="cssc" inkscape:transform-center-x="-1.8279309" inkscape:transform-center-y="1.9791525"/><path style="fill:#7a8ca5;fill-opacity:1;fill-rule:evenodd;stroke:#000;stroke-width:1.76806676;stroke-linecap:butt;stroke-linejoin:miter;stroke-miterlimit:4;stroke-dasharray:none;stroke-opacity:1" d="M35.65 156.654s1.37 7.465-3.426 9.7c-7.376 3.435-14.046-3.642-12.327-9.2.75-2.425 3.288-5.097 3.85-5.512" sodipodi:nodetypes="cssc" inkscape:transform-center-x="1.8279326" inkscape:transform-center-y="1.9791504"/><path style="opacity:.32627115;fill:#fff;fill-opacity:1;fill-rule:evenodd;stroke:none;stroke-width:3;stroke-linecap:round;stroke-linejoin:round;stroke-miterlimit:4;stroke-opacity:1" d="M19.718 83.513c-4.6 1.103-6.03-1.723-4.178-3.9-.4-2.274 2.374.953 6.394 2.397.168-1.953 8.003 2.665 11.46 3.594-.042 4.22-7.33.39-13.676-2.09z" sodipodi:nodetypes="ccccc"/><path style="opacity:.34745765;fill:#fff;fill-opacity:1;fill-rule:evenodd;stroke:none;stroke-width:3;stroke-linecap:round;stroke-linejoin:round;stroke-miterlimit:4;stroke-opacity:1" d="M101.357 87.07c4.6 1.103 6.03-2.493 4.178-4.671-5.504 1.833-4.427 1.98-6.78 2.526-1.45 1.255-7.36 1.639-10.818 2.567.043 4.22 6.817 1.417 13.42-.422z" sodipodi:nodetypes="ccccc"/><path style="fill:#fff;fill-opacity:1;fill-rule:evenodd;stroke:#000;stroke-width:1.76806676;stroke-linecap:round;stroke-linejoin:round;stroke-miterlimit:4;stroke-dasharray:none;stroke-opacity:1" d="m50.299 90.162-.6 3.734 4.975 1.094.506-4.056" sodipodi:nodetypes="cccc"/><path style="fill:#fff;fill-opacity:1;fill-rule:evenodd;stroke:#000;stroke-width:1.76806676;stroke-linecap:round;stroke-linejoin:round;stroke-miterlimit:4;stroke-dasharray:none;stroke-opacity:1" d="m70.103 89.816.625 4.238-5 .53c-.678-3.597-.248-2.467-.445-4.143" sodipodi:nodetypes="cccc" inkscape:transform-center-x="-6.2510568"/><path style="fill:none;fill-opacity:.75;fill-rule:evenodd;stroke:#000;stroke-width:1.17871118;stroke-linecap:butt;stroke-linejoin:miter;stroke-miterlimit:4;stroke-dasharray:none;stroke-opacity:1" d="M59.51 80.314s-1.327 6.335.442 9.282" sodipodi:nodetypes="cc"/><path style="opacity:.39830508;fill:#000;fill-opacity:1;fill-rule:evenodd;stroke:#000;stroke-width:1.91549098;stroke-linecap:round;stroke-linejoin:round;stroke-miterlimit:4;stroke-opacity:1" d="M73.795 104.65c1.535 2.491-.804.835-.804.835" sodipodi:nodetypes="cc"/><path style="opacity:.39830508;fill:#000;fill-opacity:1;fill-rule:evenodd;stroke:#000;stroke-width:1.91549098;stroke-linecap:round;stroke-linejoin:round;stroke-miterlimit:4;stroke-opacity:1" d="M45.653 104.821c1.536 2.492-.804.836-.804.836" sodipodi:nodetypes="cc"/><g><path inkscape:transform-center-y="0.012142605" inkscape:transform-center-x="-0.5988659" style="fill:#a5b1c2;fill-opacity:1;fill-rule:evenodd;stroke:none;stroke-width:2.30175185;stroke-linecap:butt;stroke-linejoin:miter;stroke-miterlimit:4;stroke-dasharray:none;stroke-opacity:1" d="M364.041 527.862c-1.803 14.287-26.83 5.546-22.04-4.015" sodipodi:nodetypes="cc" transform="matrix(.58936 0 0 .58936 -180.533 -149.184)"/><g style="fill:#a5b1c2;fill-opacity:1"><path style="fill:#a5b1c2;fill-opacity:1;fill-rule:evenodd;stroke:#000;stroke-width:4;stroke-linecap:butt;stroke-linejoin:miter;stroke-miterlimit:4;stroke-dasharray:none;stroke-opacity:1" d="M725.848 281.261c-.864-13-22.788-7.363-17.93.82" sodipodi:nodetypes="cc" inkscape:transform-center-x="3.4697407" inkscape:transform-center-y="-1.4778979" transform="matrix(.26534 .02441 -.05188 .4287 -153.102 23.61)"/><path style="fill:#a5b1c2;fill-opacity:1;fill-rule:evenodd;stroke:#000;stroke-width:4;stroke-linecap:butt;stroke-linejoin:miter;stroke-miterlimit:4;stroke-dasharray:none;stroke-opacity:1" d="M742.725 284.284c2.821-12.72-15.058-16.97-16.636-1.6" sodipodi:nodetypes="cc" inkscape:transform-center-x="3.9451526" inkscape:transform-center-y="-2.595119" transform="matrix(.26534 .02441 -.05188 .4287 -153.102 23.61)"/><path style="fill:#a5b1c2;fill-opacity:1;fill-rule:evenodd;stroke:#000;stroke-width:4;stroke-linecap:butt;stroke-linejoin:miter;stroke-miterlimit:4;stroke-dasharray:none;stroke-opacity:1" d="M759.642 286.764c5.49-11.823-12.53-13.79-17.474-2.989" sodipodi:nodetypes="cc" inkscape:transform-center-x="3.9052362" inkscape:transform-center-y="-2.6254546" transform="matrix(.26534 .02441 -.05188 .4287 -153.102 23.61)"/></g></g><g><path inkscape:transform-center-y="0.012142605" inkscape:transform-center-x="-0.5988659" style="fill:#a5b1c2;fill-opacity:1;fill-rule:evenodd;stroke:none;stroke-width:2.30175185;stroke-linecap:butt;stroke-linejoin:miter;stroke-miterlimit:4;stroke-dasharray:none;stroke-opacity:1" d="M364.041 527.862c-3.11 14.07-26.83 5.546-22.04-4.015" sodipodi:nodetypes="cc" transform="matrix(-.58936 0 0 .58936 294.91 -150.365)"/><g style="fill:#a5b1c2;fill-opacity:1"><path style="fill:#a5b1c2;fill-opacity:1;fill-rule:evenodd;stroke:#000;stroke-width:4;stroke-linecap:butt;stroke-linejoin:miter;stroke-miterlimit:4;stroke-dasharray:none;stroke-opacity:1" d="M725.848 281.261c-.864-13-22.788-7.363-17.93.82" sodipodi:nodetypes="cc" inkscape:transform-center-x="3.4697407" inkscape:transform-center-y="-1.4778979" transform="matrix(-.26534 .02441 .05188 .4287 267.48 22.43)"/><path style="fill:#a5b1c2;fill-opacity:1;fill-rule:evenodd;stroke:#000;stroke-width:4;stroke-linecap:butt;stroke-linejoin:miter;stroke-miterlimit:4;stroke-dasharray:none;stroke-opacity:1" d="M742.725 284.284c2.821-12.72-15.058-16.97-16.636-1.6" sodipodi:nodetypes="cc" inkscape:transform-center-x="3.9451526" inkscape:transform-center-y="-2.595119" transform="matrix(-.26534 .02441 .05188 .4287 267.48 22.43)"/><path style="fill:#a5b1c2;fill-opacity:1;fill-rule:evenodd;stroke:#000;stroke-width:4;stroke-linecap:butt;stroke-linejoin:miter;stroke-miterlimit:4;stroke-dasharray:none;stroke-opacity:1" d="M759.642 286.764c5.49-11.823-12.53-13.79-17.474-2.989" sodipodi:nodetypes="cc" inkscape:transform-center-x="3.9052362" inkscape:transform-center-y="-2.6254546" transform="matrix(-.26534 .02441 .05188 .4287 267.48 22.43)"/></g></g></g></svg>