<!--Created with Inkscape (http://www.inkscape.org/)--><svg xmlns:dc="http://purl.org/dc/elements/1.1/" xmlns:cc="http://creativecommons.org/ns#" xmlns:rdf="http://www.w3.org/1999/02/22-rdf-syntax-ns#" xmlns="http://www.w3.org/2000/svg" xmlns:sodipodi="http://sodipodi.sourceforge.net/DTD/sodipodi-0.dtd" xmlns:inkscape="http://www.inkscape.org/namespaces/inkscape" width="120" height="200" sodipodi:version="0.32" inkscape:version="0.91 r13725" sodipodi:docname="07_sheep.svg" version="1.0"><sodipodi:namedview pagecolor="#ffffff" bordercolor="#666666" borderopacity="1.0" inkscape:pageopacity="0.0" inkscape:pageshadow="2" inkscape:zoom="2.1097222" inkscape:cx="85.714286" inkscape:cy="82.176221" inkscape:document-units="px" inkscape:current-layer="layer1" inkscape:window-width="953" inkscape:window-height="849" inkscape:window-x="50" inkscape:window-y="18" height="200px" width="120px"/><metadata><rdf:RDF><cc:Work><dc:format>image/svg+xml</dc:format><dc:type rdf:resource="http://purl.org/dc/dcmitype/StillImage"/></cc:Work></rdf:RDF></metadata><g inkscape:label="Calque 1" inkscape:groupmode="layer"><path style="opacity:1;fill:#000;fill-opacity:.26521739;fill-rule:evenodd;stroke:none;stroke-width:5;stroke-linecap:round;stroke-linejoin:round;stroke-miterlimit:4;stroke-opacity:1" d="M31.877 179.057c-20.783-7.326-33.964-40.105 13.694-52.688 47.628-12.575 79.195 34.58 61.73 47.279-16.56 12.042-55.94 12.275-75.424 5.409z" sodipodi:nodetypes="czzz"/><path style="fill:#977247;fill-opacity:1;fill-rule:nonzero;stroke:#000;stroke-width:1.93525887;stroke-linecap:butt;stroke-linejoin:miter;stroke-miterlimit:4;stroke-opacity:1" d="M42.874 151.159s10.675 4.016 7.63 5.776c-1.17 1.36-2.625 4.606-5.687 5.307-2.403 1.118-5.288-4.134-5.828-3.594-.99.784 1.016 5.175-3.063 4.46-4.08-.716-6.698-2.745-7.28-5.14-.581-2.394 8.296-5.943 8.827-8.798m4.54 1.67s10.675 4.016 7.629 5.776c-1.169 1.36-2.625 4.605-5.687 5.307-2.402 1.118-5.287-3.656-5.827-3.115-.99.784 1.016 4.696-3.063 3.98-4.08-.715-6.698-2.744-7.28-5.139-.582-2.395 8.296-5.943 8.826-8.798" sodipodi:nodetypes="cccccccccccccc"/><path style="fill:#977247;fill-opacity:1;fill-rule:nonzero;stroke:#000;stroke-width:1.93525887;stroke-linecap:butt;stroke-linejoin:miter;stroke-miterlimit:4;stroke-opacity:1" d="M77.96 151.66s-10.676 4.017-7.63 5.777c1.169 1.36 2.625 4.605 5.687 5.307 2.403 1.118 5.288-4.134 5.827-3.594.99.784-1.015 5.175 3.064 4.46 4.079-.716 6.698-2.746 7.28-5.14.58-2.395-8.297-5.943-8.827-8.798m-4.54 1.67s-10.676 4.015-7.63 5.775c1.17 1.361 2.625 4.606 5.687 5.308 2.403 1.118 5.288-3.656 5.827-3.116.99.784-1.015 4.697 3.064 3.981 4.079-.716 6.698-2.745 7.28-5.14.581-2.394-8.297-5.942-8.827-8.798" sodipodi:nodetypes="cccccccccccccc"/><g style="fill:#fff;fill-opacity:1"><path style="fill:#fff;fill-opacity:1;fill-rule:evenodd;stroke:#000;stroke-width:3;stroke-linecap:round;stroke-linejoin:round;stroke-miterlimit:4;stroke-opacity:1" d="M43.912 150.095c-43.5 20.63-38.422 82.727-19.126 102.172 16.115 24.393 76.069 21.536 86.26-6.203 20.275-21.326-17.505-125.59-67.134-95.969z" sodipodi:nodetypes="cccc" transform="matrix(.64509 0 0 .64509 18.684 -25.808)"/><path style="fill:#fff;fill-opacity:1;fill-rule:evenodd;stroke:#000;stroke-width:3;stroke-linecap:round;stroke-linejoin:round;stroke-miterlimit:4;stroke-opacity:1" d="M45.78 151.095c-43.5 20.63-38.423 82.727-19.127 102.172 16.115 24.393 76.069 21.536 86.26-6.203 20.275-21.326-17.505-125.59-67.134-95.969z" sodipodi:nodetypes="cccc" transform="matrix(.64509 0 0 .64509 18.684 -25.808)"/></g><path style="fill:#fff;fill-opacity:1;fill-rule:evenodd;stroke:#000;stroke-width:2.9028883;stroke-linecap:butt;stroke-linejoin:miter;stroke-miterlimit:4;stroke-dasharray:none;stroke-opacity:1" d="M30.691 95.544c-9.102-7.857 5.954-29.119 15.116-17.83" sodipodi:nodetypes="cc"/><path style="fill:#fff;fill-opacity:1;fill-rule:evenodd;stroke:#000;stroke-width:2.99767971;stroke-linecap:butt;stroke-linejoin:miter;stroke-miterlimit:4;stroke-dasharray:none;stroke-opacity:1" d="M85.106 90.613c9.77-3.263 17.224 20.708 5.06 22.16" sodipodi:nodetypes="cc"/><path style="fill:#fff;fill-opacity:1;fill-rule:evenodd;stroke:#000;stroke-width:2.89413905;stroke-linecap:butt;stroke-linejoin:miter;stroke-miterlimit:4;stroke-dasharray:none;stroke-opacity:1" d="M84.152 90.54c7.4-7.545-7.832-24.576-14.984-14.068" sodipodi:nodetypes="cc" inkscape:transform-center-x="3.8105048" inkscape:transform-center-y="-3.1176845"/><path style="fill:#fff;fill-opacity:1;fill-rule:evenodd;stroke:#000;stroke-width:2.75331354;stroke-linecap:butt;stroke-linejoin:miter;stroke-miterlimit:4;stroke-dasharray:none;stroke-opacity:1" d="M90.276 112.992c9.01 2.693 9.239 26.967-1.322 21.421" sodipodi:nodetypes="cc"/><path style="fill:#fff;fill-opacity:1;fill-rule:evenodd;stroke:#000;stroke-width:2.89413905;stroke-linecap:butt;stroke-linejoin:miter;stroke-miterlimit:4;stroke-dasharray:none;stroke-opacity:1" d="M31.109 126.92c-10.321 2.275-16.69-19.667-3.989-20.163" sodipodi:nodetypes="cc"/><path style="fill:#fff;fill-opacity:1;fill-rule:nonzero;stroke:#000;stroke-width:1.93525887;stroke-linecap:butt;stroke-linejoin:miter;stroke-miterlimit:4;stroke-opacity:1" d="M45.212 146.956c.102 2.69-2.985 2.083-2.883 4.773 0 0-5.932.867-5.401-1.989.544-2.929 3.124-8.708-1.537-9.806m11.988 4.928c.101 2.69-6.013 3.858-5.912 6.548 0 0-5.93.867-5.4-1.989.543-2.93 3.448-5.134-1.213-6.233" sodipodi:nodetypes="cccccccc"/><path style="fill:#fff;fill-opacity:1;fill-rule:evenodd;stroke:#000;stroke-width:2.89413905;stroke-linecap:butt;stroke-linejoin:miter;stroke-miterlimit:4;stroke-dasharray:none;stroke-opacity:1" d="M43.84 141.77c-8.099 6.79-23.892-9.72-12.86-16.033" sodipodi:nodetypes="cc"/><path style="fill:#fff;fill-opacity:1;fill-rule:evenodd;stroke:#000;stroke-width:2.58034515;stroke-linecap:butt;stroke-linejoin:miter;stroke-miterlimit:4;stroke-dasharray:none;stroke-opacity:1" d="M68.506 145.1c-1.657 11.958-28.87 10.233-24.246-3.585" sodipodi:nodetypes="cc"/><path style="fill:#fff;fill-opacity:1;fill-rule:nonzero;stroke:#000;stroke-width:1.93525887;stroke-linecap:butt;stroke-linejoin:miter;stroke-miterlimit:4;stroke-opacity:1" d="M76.334 149.45c-.102 2.691 1.654.457 1.552 3.148 0 0 5.931.866 5.401-1.99-.544-2.929-4.16-4.715.502-5.813m-7.552 4.337c-.101 2.69 2.612.456 2.51 3.146 0 0 5.931.867 5.401-1.989-.544-2.929-3.448-5.134 1.213-6.232" sodipodi:nodetypes="cccccccc"/><path style="fill:#fff;fill-opacity:1;fill-rule:evenodd;stroke:#000;stroke-width:2.89413905;stroke-linecap:butt;stroke-linejoin:miter;stroke-miterlimit:4;stroke-dasharray:none;stroke-opacity:1" d="M88.68 135.646c4.231 9.684-16.06 20.184-19.008 7.82" sodipodi:nodetypes="cc"/><path style="fill:#977247;fill-opacity:1;fill-rule:nonzero;stroke:#000;stroke-width:1.93525887;stroke-linecap:butt;stroke-linejoin:miter;stroke-miterlimit:4;stroke-opacity:1" d="M22.023 93.973s-3.645-11.237-6.235-8.5c-1.85.939-6.09 1.858-7.359 4.78-1.705 2.203 7.536 5.826 6.792 6.274-1.106.854-9.384-1.757-9.014 2.404.37 4.161 2.568 7.087 5.484 8.05 2.916.965 8.488-7.266 12.122-7.33m-1.502-4.772s-3.645-11.237-6.235-8.5c-1.85.938-6.089 1.858-7.359 4.78-1.705 2.203 7.536 5.825 6.792 6.273-1.106.855-9.384-1.756-9.014 2.405.37 4.16 2.568 7.086 5.484 8.05 2.916.964 8.488-7.266 12.123-7.33" sodipodi:nodetypes="cccccccccccccc"/><path style="fill:#fff;fill-opacity:1;fill-rule:nonzero;stroke:#000;stroke-width:1.93525887;stroke-linecap:butt;stroke-linejoin:miter;stroke-miterlimit:4;stroke-opacity:1" d="M30.692 94.931c-3.348-.536-5.446-.236-8.794-.772 0 0-1.844 5.742 1.79 5.678 3.73-.065 3.372-.457 4.145 4.343m3.849-8.654c-3.348-.536-6.148.075-9.496-.46 0 0-1.844 5.741 1.791 5.677 3.729-.066 2.658-1.22 3.431 3.58" sodipodi:nodetypes="cccccccc"/><path style="fill:#977247;fill-opacity:1;fill-rule:nonzero;stroke:#000;stroke-width:1.93525887;stroke-linecap:butt;stroke-linejoin:miter;stroke-miterlimit:4;stroke-opacity:1" d="M96.675 96.465S96.32 84.656 99.68 86.36c2.058.26 6.359-.303 8.54 2.021 2.347 1.498-5.132 8.024-4.28 8.195 1.33.432 8.243-4.817 9.297-.775 1.054 4.042-.03 7.538-2.45 9.428-2.42 1.89-10.44-3.98-13.884-2.815m-.194-5s-.356-11.808 3.005-10.104c2.058.26 6.359-.303 8.54 2.02 2.347 1.5-3.812 6.48-2.96 6.65 1.33.432 6.923-3.271 7.977.771 1.054 4.042-.03 7.537-2.45 9.428-2.42 1.89-10.44-3.98-13.884-2.815" sodipodi:nodetypes="cccccccccccccc"/><g style="fill:#fff;fill-opacity:1"><path inkscape:transform-center-y="-1.4778979" inkscape:transform-center-x="3.4697407" sodipodi:nodetypes="cc" d="M726.003 279.13c-.864-13-19.012-12.88-16.21 2.315" style="fill:#fff;fill-opacity:1;fill-rule:evenodd;stroke:#000;stroke-width:4;stroke-linecap:butt;stroke-linejoin:miter;stroke-miterlimit:4;stroke-dasharray:none;stroke-opacity:1" transform="matrix(.55295 -.0424 .04933 .6432 -363.633 -102.788)"/><path inkscape:transform-center-y="-2.595119" inkscape:transform-center-x="3.9451526" sodipodi:nodetypes="cc" d="M742.64 280.93c2.822-12.72-14.629-17.702-16.208-2.331" style="fill:#fff;fill-opacity:1;fill-rule:evenodd;stroke:#000;stroke-width:4;stroke-linecap:butt;stroke-linejoin:miter;stroke-miterlimit:4;stroke-dasharray:none;stroke-opacity:1" transform="matrix(.55295 -.0424 .04933 .6432 -363.633 -102.788)"/><path inkscape:transform-center-y="-2.6254546" inkscape:transform-center-x="3.9052362" sodipodi:nodetypes="cc" d="M758.512 285.93c5.48-11.82-10.498-20.424-15.333-5.748" style="fill:#fff;fill-opacity:1;fill-rule:evenodd;stroke:#000;stroke-width:4;stroke-linecap:butt;stroke-linejoin:miter;stroke-miterlimit:4;stroke-dasharray:none;stroke-opacity:1" transform="matrix(.55295 -.0424 .04933 .6432 -363.633 -102.788)"/></g><g style="fill:#ffb869;fill-opacity:1"><path inkscape:transform-center-y="10.574156" inkscape:transform-center-x="2.0200813" sodipodi:nodetypes="cc" d="M511.742 346.696c-53.295 13.089-73.37-43.54 9.533-14.985" style="fill:#ffb869;fill-opacity:1;fill-rule:evenodd;stroke:#000;stroke-width:2.5;stroke-linecap:round;stroke-linejoin:round;stroke-miterlimit:4;stroke-dasharray:none;stroke-opacity:1" transform="matrix(.59947 -.23827 .23827 .59947 -348.84 -25.14)"/><path inkscape:transform-center-y="10.574156" inkscape:transform-center-x="2.0200813" sodipodi:nodetypes="cc" d="M511.603 346.67c-49.133 13.925-72.768-44.15 10.628-15.807" style="fill:#ffb869;fill-opacity:1;fill-rule:evenodd;stroke:#000;stroke-width:2.5;stroke-linecap:round;stroke-linejoin:round;stroke-miterlimit:4;stroke-dasharray:none;stroke-opacity:1" transform="matrix(.59947 -.23827 .23827 .59947 -348.84 -25.14)"/><path inkscape:transform-center-y="10.574156" inkscape:transform-center-x="2.0200813" sodipodi:nodetypes="cc" d="M510.826 347.09c-46.944 15.613-73.456-45.663 11.492-17.112" style="fill:#ffb869;fill-opacity:1;fill-rule:evenodd;stroke:#000;stroke-width:2.5;stroke-linecap:round;stroke-linejoin:round;stroke-miterlimit:4;stroke-dasharray:none;stroke-opacity:1" transform="matrix(.59947 -.23827 .23827 .59947 -348.84 -25.14)"/></g><path inkscape:transform-center-y="3.3623047" inkscape:transform-center-x="1.287519" sodipodi:nodetypes="cc" d="M773.716 257.337c-53.635 28.383-61.546-5.816-.28-9.873" style="fill:#fff;fill-opacity:.62608696;fill-rule:evenodd;stroke:#000;stroke-width:2.02413583;stroke-linecap:round;stroke-linejoin:round;stroke-miterlimit:4;stroke-dasharray:none;stroke-opacity:1" transform="matrix(.64509 0 0 .64509 -456.41 -105.934)"/><path inkscape:transform-center-y="3.3623047" inkscape:transform-center-x="1.287519" sodipodi:nodetypes="cc" d="M753.97 266.83c-39.324 7.786-33.707-13.476 19.466-19.745" style="fill:none;fill-opacity:1;fill-rule:evenodd;stroke:#000;stroke-width:2.02413583;stroke-linecap:round;stroke-linejoin:round;stroke-miterlimit:4;stroke-dasharray:none;stroke-opacity:1" transform="matrix(.64509 0 0 .64509 -456.41 -105.934)"/><path style="fill:#ffb869;fill-opacity:1;fill-rule:nonzero;stroke:#000;stroke-width:1.61271572;stroke-linecap:round;stroke-linejoin:round;stroke-miterlimit:4;stroke-dasharray:none;stroke-opacity:1" d="M33.955 96.24c2.916 12.501 23.901 26.16 43.193 9.16 12.039-15.962-4.67-36.377-8.667-57.136-8.515-3.09-19.456-2.858-25.194-.326-2.956 28.627-11.159 34.887-9.332 48.303z" sodipodi:nodetypes="ccccc"/><path d="M43.837 101.926c14.718 10.25 23.858-4.128 31.464.225" style="fill:none;fill-opacity:.75;fill-rule:evenodd;stroke:#000;stroke-width:1.81978762;stroke-linecap:round;stroke-linejoin:round;stroke-miterlimit:4;stroke-dasharray:none;stroke-opacity:1" sodipodi:nodetypes="cc"/><path style="fill:#000;fill-opacity:1;fill-rule:evenodd;stroke:#fff;stroke-width:6.21884203;stroke-linecap:round;stroke-linejoin:round;stroke-miterlimit:4;stroke-opacity:1" d="M53.39 67.004c5.17 7.313-2.925 2.562-2.925 2.562" sodipodi:nodetypes="cc"/><path style="fill:#000;fill-opacity:1;fill-rule:evenodd;stroke:#000;stroke-width:3.82747746;stroke-linecap:round;stroke-linejoin:round;stroke-miterlimit:4;stroke-opacity:1" d="M53.18 68.539c2.814 5.089-1.593 1.783-1.593 1.783" sodipodi:nodetypes="cc"/><g style="fill:#fff;fill-opacity:.23043476;stroke:none;stroke-opacity:1"><path style="fill:#fff;fill-opacity:.23043476;fill-rule:evenodd;stroke-width:3;stroke-linecap:round;stroke-linejoin:round;stroke-miterlimit:4" d="M71.43 245.185c-41.548-32.096-37.777-47.641-44.777 8.082 25.866 56.537 74.25 34.15 86.26-6.203-6.655-37.656 8.146-31.5-41.483-1.88z" sodipodi:nodetypes="cccc" transform="matrix(-.30468 -.00532 .0187 -.11794 74.205 81.504)"/></g><path style="fill:#000;fill-opacity:1;fill-rule:evenodd;stroke:#fff;stroke-width:6.8011117;stroke-linecap:round;stroke-linejoin:round;stroke-miterlimit:4;stroke-opacity:1" d="M62.807 66.452c5.18 8.73-2.932 3.059-2.932 3.059" sodipodi:nodetypes="cc"/><path style="fill:#000;fill-opacity:1;fill-rule:evenodd;stroke:#000;stroke-width:3.9612174;stroke-linecap:round;stroke-linejoin:round;stroke-miterlimit:4;stroke-opacity:1" d="M62.919 68.258c3.163 4.849-1.79 1.699-1.79 1.699" sodipodi:nodetypes="cc"/><path style="fill:#ffa07d;fill-opacity:1;fill-rule:evenodd;stroke:#000;stroke-width:1.61271477;stroke-linecap:round;stroke-linejoin:round;stroke-miterlimit:4;stroke-dasharray:none;stroke-opacity:1" d="M73.618 60.986c25.169 25.216 57.665-8.655-3.86-12.724" sodipodi:nodetypes="cc" inkscape:transform-center-x="1.3031266" inkscape:transform-center-y="6.821243"/><path style="fill:none;fill-opacity:1;fill-rule:evenodd;stroke:#000;stroke-width:1.61271477;stroke-linecap:round;stroke-linejoin:round;stroke-miterlimit:4;stroke-dasharray:none;stroke-opacity:1" d="M73.952 62.986c26.381 19.81 56.101-10.842-4.32-13.478" sodipodi:nodetypes="cc" inkscape:transform-center-x="1.3031285" inkscape:transform-center-y="6.8212426"/><path style="fill:#ffb869;fill-opacity:1;fill-rule:evenodd;stroke:#000;stroke-width:1.61271477;stroke-linecap:round;stroke-linejoin:round;stroke-miterlimit:4;stroke-dasharray:none;stroke-opacity:1" d="M74.808 63.668c24.176 19.81 54.914-10.606-4.037-13.486" sodipodi:nodetypes="cc" inkscape:transform-center-x="1.3031267" inkscape:transform-center-y="6.8212431"/><path style="fill:none;fill-opacity:1;fill-rule:nonzero;stroke:#000;stroke-width:1.61271572;stroke-linecap:round;stroke-linejoin:round;stroke-miterlimit:4;stroke-dasharray:none;stroke-opacity:1" d="M34.976 97.495c2.916 12.5 23.901 26.158 43.193 9.16 12.039-15.963-4.669-36.378-8.667-57.137-8.515-3.09-19.455-2.858-25.194-.326-2.956 28.627-11.159 34.887-9.332 48.303z" sodipodi:nodetypes="ccccc"/><path inkscape:transform-center-y="3.3623047" inkscape:transform-center-x="1.287519" sodipodi:nodetypes="cc" d="M773.716 257.337c-49.025 37.365-62.647-2.974 2.378-10.252" style="fill:#fff;fill-opacity:.62608696;fill-rule:evenodd;stroke:#000;stroke-width:2.02413583;stroke-linecap:round;stroke-linejoin:round;stroke-miterlimit:4;stroke-dasharray:none;stroke-opacity:1" transform="matrix(-.64509 0 0 .64509 571.692 -105.636)"/><path inkscape:transform-center-y="3.3623047" inkscape:transform-center-x="1.287519" sodipodi:nodetypes="cc" d="M760.897 268.061c-43.88 15.76-40.634-14.707 12.54-20.976" style="fill:none;fill-opacity:1;fill-rule:evenodd;stroke:#000;stroke-width:2.02413583;stroke-linecap:round;stroke-linejoin:round;stroke-miterlimit:4;stroke-dasharray:none;stroke-opacity:1" transform="matrix(-.64509 0 0 .64509 571.692 -105.636)"/><path d="M43.556 102.565c14.718 10.25 23.857-4.128 31.464.225" style="fill:none;fill-opacity:.75;fill-rule:evenodd;stroke:#000;stroke-width:1.81978762;stroke-linecap:round;stroke-linejoin:round;stroke-miterlimit:4;stroke-dasharray:none;stroke-opacity:1" sodipodi:nodetypes="cc"/><path d="m59.351 105.259-.473-8.473" style="fill:none;fill-opacity:.75;fill-rule:evenodd;stroke:#000;stroke-width:1.29017258;stroke-linecap:round;stroke-linejoin:round;stroke-miterlimit:4;stroke-dasharray:none;stroke-opacity:1" sodipodi:nodetypes="cc"/><path d="m58.44 105.605-.473-8.473" style="fill:none;fill-opacity:.75;fill-rule:evenodd;stroke:#000;stroke-width:1.29017258;stroke-linecap:round;stroke-linejoin:round;stroke-miterlimit:4;stroke-dasharray:none;stroke-opacity:1" sodipodi:nodetypes="cc"/></g></svg>