<svg xmlns:dc="http://purl.org/dc/elements/1.1/" xmlns:cc="http://creativecommons.org/ns#" xmlns:rdf="http://www.w3.org/1999/02/22-rdf-syntax-ns#" xmlns="http://www.w3.org/2000/svg" xmlns:xlink="http://www.w3.org/1999/xlink" width="120" height="200" viewBox="0 0 120 200" version="1.1" id="svg8"><defs id="defs2"><linearGradient id="linearGradient938"><stop style="stop-color:#557d9c;stop-opacity:1" offset="0" id="stop934"/><stop style="stop-color:#b1c4d3;stop-opacity:1" offset="1" id="stop936"/></linearGradient><linearGradient xlink:href="#linearGradient938" id="linearGradient940" x1="48.137787" y1="66.137093" x2="48.137787" y2="70.341789" gradientUnits="userSpaceOnUse"/><linearGradient xlink:href="#linearGradient938" id="linearGradient985" gradientUnits="userSpaceOnUse" x1="48.137787" y1="66.137093" x2="48.137787" y2="70.341789" gradientTransform="matrix(-1 0 0 1 119.277 0)"/></defs><metadata id="metadata5"><rdf:RDF><cc:Work><dc:format>image/svg+xml</dc:format><dc:type rdf:resource="http://purl.org/dc/dcmitype/StillImage"/><dc:title/><dc:date>2023</dc:date><dc:creator><cc:Agent><dc:title>Timothée Giet</dc:title></cc:Agent></dc:creator><cc:license rdf:resource="http://creativecommons.org/licenses/by-sa/4.0/"/></cc:Work><cc:License rdf:about="http://creativecommons.org/licenses/by-sa/4.0/"><cc:permits rdf:resource="http://creativecommons.org/ns#Reproduction"/><cc:permits rdf:resource="http://creativecommons.org/ns#Distribution"/><cc:requires rdf:resource="http://creativecommons.org/ns#Notice"/><cc:requires rdf:resource="http://creativecommons.org/ns#Attribution"/><cc:permits rdf:resource="http://creativecommons.org/ns#DerivativeWorks"/><cc:requires rdf:resource="http://creativecommons.org/ns#ShareAlike"/></cc:License></rdf:RDF></metadata><g id="layer1" style="display:inline"><ellipse style="display:inline;opacity:.999223;fill:#000;fill-opacity:.149109;stroke:none;stroke-width:.999992;stroke-miterlimit:4;stroke-dasharray:none;stroke-opacity:.996078" id="path1535" cx="60.000004" cy="179.18158" rx="50.332283" ry="13.236317"/><path style="fill:#474747;fill-opacity:1;stroke:none;stroke-width:1px;stroke-linecap:butt;stroke-linejoin:miter;stroke-opacity:1" d="M79.874 117.931c8.337-10.34 22.906-8.247 26.94-4.968 4.034 3.279 7.265 8.304 7.073 12.887-.192 4.583-4.784 10.061-5.515 9.62-1.734-1.047-.51-6.455-2.185-7.087-4.267-1.612-7.522 2.603-8.717 4.566-2.034 3.34-3.84 9.683-12.843 11.713-7.03 1.584-20.743-10.918-4.753-26.73z" id="path1346-2"/><path style="fill:#888;fill-opacity:1;stroke:none;stroke-width:1px;stroke-linecap:butt;stroke-linejoin:miter;stroke-opacity:1" d="M80.829 119.425c8.336-10.34 20.63-8.746 24.664-5.467 4.034 3.279 7.094 7.061 6.903 11.644-.192 4.583-2.6 7.834-3.352 7.427-.752-.407-.214-5.194-1.887-5.832-4.248-1.623-7.416.862-10.115 3.692-2.7 2.83-3.406 9.45-12.41 11.479-7.03 1.584-19.794-7.13-3.803-22.943z" id="path1346"/><path style="fill:#474747;fill-opacity:1;stroke:none;stroke-width:1px;stroke-linecap:butt;stroke-linejoin:miter;stroke-opacity:1" d="M65.93 150.522c7.202 8.31 5.05 18.794 3.52 23.717-1.602 5.163 15.152 12.07 24.842 5.55 9.51-6.4-4.17-11.14-2.807-13.129 1.266-1.847 2.308-19.768-9.58-34.436-11.887-14.667-18.014 15.924-15.974 18.298z" id="path1218-2"/><path style="fill:#474747;fill-opacity:1;stroke:none;stroke-width:1.5;stroke-linecap:butt;stroke-linejoin:miter;stroke-miterlimit:4;stroke-dasharray:none;stroke-opacity:1" d="M100.758 92.23c4.597-.952 11.182 4.283 11.786 6.797.372 1.55-6.952-1.352-9.244-.225-2.293 1.127-2.542-6.572-2.542-6.572z" id="path1136-6-1-2"/><path style="fill:#e2e2e2;fill-opacity:1;stroke:none;stroke-width:1.5;stroke-linecap:butt;stroke-linejoin:miter;stroke-miterlimit:4;stroke-dasharray:none;stroke-opacity:1" d="M100.662 93.37c4.012-.503 9.283 2.994 9.957 4.502.674 1.508-5.163-1.473-7.455-.346-2.293 1.127-2.502-4.156-2.502-4.156z" id="path1136-8-0"/><path style="fill:#474747;fill-opacity:1;stroke:none;stroke-width:1.5;stroke-linecap:butt;stroke-linejoin:miter;stroke-miterlimit:4;stroke-dasharray:none;stroke-opacity:1" d="M102.986 88.354c4.322-1.835 11.805 2.007 12.89 4.354.669 1.447-7.082.037-9.11 1.592-2.026 1.554-3.78-5.946-3.78-5.946z" id="path1136-6-1-7"/><path style="fill:#e2e2e2;fill-opacity:1;stroke:none;stroke-width:1.5;stroke-linecap:butt;stroke-linejoin:miter;stroke-miterlimit:4;stroke-dasharray:none;stroke-opacity:1" d="M103.116 89.49c3.835-1.279 9.69 1.116 10.646 2.463.957 1.347-5.352-.432-7.379 1.122-2.027 1.555-3.267-3.584-3.267-3.584z" id="path1136-8-9"/><path style="fill:#474747;fill-opacity:1;stroke:none;stroke-width:1.5;stroke-linecap:butt;stroke-linejoin:miter;stroke-miterlimit:4;stroke-dasharray:none;stroke-opacity:1" d="M100.148 85.375c3.526-3.099 11.838-1.8 13.605.087 1.09 1.164-6.713 2.26-8.149 4.371-1.436 2.113-5.456-4.458-5.456-4.458z" id="path1136-6-1"/><path style="fill:#e2e2e2;fill-opacity:1;stroke:none;stroke-width:1.5;stroke-linecap:butt;stroke-linejoin:miter;stroke-miterlimit:4;stroke-dasharray:none;stroke-opacity:1" d="M100.628 86.414c3.239-2.42 9.55-1.984 10.88-1.005 1.332.978-5.216 1.27-6.652 3.382-1.437 2.113-4.228-2.377-4.228-2.377z" id="path1136-8"/><path style="fill:#474747;fill-opacity:1;stroke:none;stroke-width:1.5;stroke-linecap:butt;stroke-linejoin:miter;stroke-miterlimit:4;stroke-dasharray:none;stroke-opacity:1" d="M94.709 84.561c1.209-4.534 8.552-6.843 10.954-5.764 1.481.665-4.203 5.086-4.252 7.76-.048 2.675-6.702-1.996-6.702-1.996z" id="path1136-6"/><path style="fill:#e2e2e2;fill-opacity:1;stroke:none;stroke-width:1.5;stroke-linecap:butt;stroke-linejoin:miter;stroke-miterlimit:4;stroke-dasharray:none;stroke-opacity:1" d="M95.636 85.366c1.334-3.748 6.621-6.037 8.2-5.656 1.578.38-3.52 3.48-3.569 6.154-.049 2.675-4.631-.498-4.631-.498z" id="path1136"/><path style="fill:#474747;fill-opacity:1;stroke:none;stroke-width:1px;stroke-linecap:butt;stroke-linejoin:miter;stroke-opacity:1" d="M103.046 84.905c7.672 4.869 3.466 15.291-.605 16.18-6.446 1.409-12.155 3.786-17.801 10.286-5.646 6.5-12.608-19.516-6.78-22.703 5.828-3.186 19.53-7.352 25.186-3.763z" id="path1114-2"/><use x="0" y="0" xlink:href="#path1218-2" id="use1310" transform="matrix(-1 0 0 1 119.193 0)" width="100%" height="100%"/><use x="0" y="0" xlink:href="#path1136-6-1-2" id="use1312" transform="matrix(-1 0 0 1 119.193 0)" width="100%" height="100%"/><use x="0" y="0" xlink:href="#path1136-8-0" id="use1314" transform="matrix(-1 0 0 1 119.193 0)" width="100%" height="100%"/><use x="0" y="0" xlink:href="#path1136-6-1-7" id="use1316" transform="matrix(-1 0 0 1 119.193 0)" width="100%" height="100%"/><use x="0" y="0" xlink:href="#path1136-8-9" id="use1318" transform="matrix(-1 0 0 1 119.193 0)" width="100%" height="100%"/><use x="0" y="0" xlink:href="#path1136-6-1" id="use1320" transform="matrix(-1 0 0 1 119.193 0)" width="100%" height="100%"/><use x="0" y="0" xlink:href="#path1136-8" id="use1322" transform="matrix(-1 0 0 1 119.193 0)" width="100%" height="100%"/><use x="0" y="0" xlink:href="#path1136-6" id="use1324" transform="matrix(-1 0 0 1 119.193 0)" width="100%" height="100%"/><use x="0" y="0" xlink:href="#path1136" id="use1326" transform="matrix(-1 0 0 1 119.193 0)" width="100%" height="100%"/><use x="0" y="0" xlink:href="#path1114-2" id="use1328" transform="matrix(-1 0 0 1 119.193 0)" width="100%" height="100%"/><path style="fill:#474747;fill-opacity:1;stroke:none;stroke-width:.999999px;stroke-linecap:butt;stroke-linejoin:miter;stroke-opacity:1" d="M78.17 87.635c6.005 7.224 12.572 20.3 8.608 33.354-3.964 13.055-10.354 36.736-27.486 36.829-17.132.092-23.142-23.909-26.79-38.067-3.127-12.14 7.735-30.914 9.658-32.423 1.923-1.509 32.517-4.498 36.01.307z" id="path1092-6"/><use x="0" y="0" xlink:href="#path1114" id="use1330" transform="matrix(-1 0 0 1 119.193 0)" width="100%" height="100%"/><path style="fill:#888;fill-opacity:1;stroke:none;stroke-width:1px;stroke-linecap:butt;stroke-linejoin:miter;stroke-opacity:1" d="M76.59 87.555c5.484 7.006 11.482 19.686 7.862 32.344-3.62 12.66-9.456 35.623-25.102 35.713-15.645.09-21.134-23.184-24.465-36.914-2.856-11.772 7.063-29.976 8.82-31.44 1.756-1.463 29.695-4.362 32.886.297z" id="path1092"/><use x="0" y="0" xlink:href="#path1218" id="use1332" transform="matrix(-1 0 0 1 119.193 0)" width="100%" height="100%"/><path style="fill:#888;fill-opacity:1;stroke:none;stroke-width:1px;stroke-linecap:butt;stroke-linejoin:miter;stroke-opacity:1" d="M78.156 90.716c7.83-3.59 18.04-7.539 23.258-4.653 7.075 3.914 3.831 12.885.077 13.6-5.945 1.132-12.04 3.541-17.248 8.766-5.207 5.226-8.342-16.623-6.087-17.713z" id="path1114"/><path style="fill:#474747;fill-opacity:1;stroke:none;stroke-width:1px;stroke-linecap:butt;stroke-linejoin:miter;stroke-opacity:1" d="M70.08 45.815c4.14-6.665 19.146-20.118 19.825-16.806 1.956 9.548-1.372 25.576-5.471 34.015 1.052 5.2 3.153 12.273 1.93 14.92-7.002 15.149-16.57 23.597-27.438 23.597-10.868 0-21.702-13.734-26.126-23.457-.794-1.743.594-7.07 1.896-14.58-3.25-5.558-7.389-26.903-5.476-34.512C30.259 24.86 44.702 39.518 49.636 45.7c5.311-1.041 12.898-.787 20.444.116z" id="path863-3"/><use x="0" y="0" xlink:href="#path1240-3" id="use1334" transform="matrix(-1 0 0 1 119.193 0)" width="100%" height="100%"/><path style="fill:#888;fill-opacity:1;stroke:none;stroke-width:1px;stroke-linecap:butt;stroke-linejoin:miter;stroke-opacity:1" d="M70.773 48.129c3.796-6.084 16.9-18.898 17.509-15.873 1.464 7.28-1.794 21.184-5.97 29.91.965 4.746 2.979 12.666 1.857 15.082-6.422 13.829-15.198 21.54-25.166 21.54S39.098 86.252 35.04 77.377c-.728-1.592.705-7.855 1.9-14.71-3.165-5.99-7.595-23.127-5.84-30.072.952-3.773 13.705 9.732 18.23 15.374 4.872-.95 14.521-.665 21.443.16z" id="path863"/><path style="fill:#474747;fill-opacity:1;stroke:none;stroke-width:1px;stroke-linecap:butt;stroke-linejoin:miter;stroke-opacity:1" d="M53.054 68.553c-3.128 3.437-11.642 3.315-11.72-2.743-.11-8.744 4.774-7.39 7.03-6.48 4.27 1.722 6.852 6.847 4.69 9.223z" id="path887-6"/><path style="fill:#e9e9e9;fill-opacity:1;stroke:none;stroke-width:.999998px;stroke-linecap:butt;stroke-linejoin:miter;stroke-opacity:1" d="M53.054 68.39c-2.977 3.152-9.951 3.054-10.13-2.262-.18-5.315 3.373-5.266 5.564-4.617 4.35 1.29 6.126 5.227 4.566 6.878z" id="path887"/><path id="path911" style="opacity:.999223;fill:url(#linearGradient940);fill-opacity:1;stroke:none;stroke-width:1.5" d="M47.873 61.367a4.77 4.861 0 0 0-2.574 4.313 4.77 4.861 0 0 0 3.65 4.724c1.55-.227 3.07-.918 4.106-2.015 1.56-1.652-.217-5.587-4.567-6.877-.192-.057-.405-.1-.615-.145z"/><ellipse style="opacity:.999223;fill:#292a2a;fill-opacity:1;stroke:none;stroke-width:1.5" id="path942" cx="50.380829" cy="65.918015" rx="2.1231165" ry="2.1291895"/><ellipse style="opacity:.999223;fill:#fff;fill-opacity:1;stroke:none;stroke-width:1.5" id="path944" cx="48.175011" cy="66.058334" rx="1.0778284" ry="1.066426"/><path style="fill:#474747;fill-opacity:1;stroke:none;stroke-width:1px;stroke-linecap:butt;stroke-linejoin:miter;stroke-opacity:1" d="M66.223 68.553c3.129 3.437 11.643 3.315 11.72-2.743.11-8.744-4.773-7.39-7.029-6.48-4.27 1.722-6.852 6.847-4.69 9.223z" id="path887-6-5"/><path style="fill:#e9e9e9;fill-opacity:1;stroke:none;stroke-width:.999998px;stroke-linecap:butt;stroke-linejoin:miter;stroke-opacity:1" d="M66.223 68.39c2.978 3.152 9.952 3.054 10.13-2.262.18-5.315-3.373-5.266-5.563-4.617-4.35 1.29-6.126 5.227-4.567 6.878z" id="path887-62"/><path id="path911-9" style="opacity:.999223;fill:url(#linearGradient985);fill-opacity:1;stroke:none;stroke-width:1.5" d="M71.404 61.367a4.77 4.861 0 0 1 2.575 4.313 4.77 4.861 0 0 1-3.65 4.724c-1.55-.227-3.07-.918-4.106-2.015-1.56-1.652.217-5.587 4.566-6.877.193-.057.405-.1.615-.145z"/><ellipse style="opacity:.999223;fill:#292a2a;fill-opacity:1;stroke:none;stroke-width:1.5" id="path942-1" cx="-68.896606" cy="65.918015" rx="2.1231165" ry="2.1291895" transform="scale(-1 1)"/><ellipse style="opacity:.999223;fill:#fff;fill-opacity:1;stroke:none;stroke-width:1.5" id="path944-2" cx="-67.413147" cy="66.058334" rx="1.0778284" ry="1.066426" transform="scale(-1 1)"/><path style="fill:#b8b8b8;fill-opacity:1;stroke:none;stroke-width:1px;stroke-linecap:butt;stroke-linejoin:miter;stroke-opacity:1" d="M44.676 50.182c-3.77-5.7-11.048-13.879-10.618-10.305.169 1.405 2.644 17.883 4.931 17.363.647-.147 1.395-3.089 5.687-7.058z" id="path992"/><path style="fill:#b8b8b8;fill-opacity:1;stroke:none;stroke-width:1px;stroke-linecap:butt;stroke-linejoin:miter;stroke-opacity:1" d="M74.491 50.182c3.77-5.7 11.312-13.776 10.882-10.202-.169 1.405-2.908 17.78-5.195 17.26-.647-.147-1.395-3.089-5.687-7.058z" id="path992-7"/><use x="0" y="0" xlink:href="#path1240-3-7-9" id="use1336" transform="matrix(-1 0 0 1 119.193 0)" width="100%" height="100%"/><path style="fill:#b8b8b8;fill-opacity:1;stroke:none;stroke-width:1px;stroke-linecap:butt;stroke-linejoin:miter;stroke-opacity:1" d="M49.515 73.18c4.498-2.099 17.885-1.81 20.447-.29 2.563 1.52 6.912 16.107 4.977 18.243-2.332 2.576-7.989 7.572-15.255 7.745-7.267.173-13.675-5.943-15.852-8.504-1.256-1.478 3.066-15.696 5.683-17.194z" id="path1018"/><use x="0" y="0" xlink:href="#path1240-3-7" id="use1338" transform="matrix(-1 0 0 1 119.193 0)" width="100%" height="100%"/><path style="fill:#474747;fill-opacity:1;stroke:none;stroke-width:1px;stroke-linecap:butt;stroke-linejoin:miter;stroke-opacity:1" d="M55.77 85.384c-1.468-1.244-4.724-6.86-2.761-9.004 1.963-2.143 11.52-2.178 13.25.079 1.73 2.257-1.692 7.96-3.194 9.076-1.503 1.116-5.826 1.093-7.294-.151z" id="path1016"/><use x="0" y="0" xlink:href="#path1240" id="use1340" transform="matrix(-1 0 0 1 119.193 0)" width="100%" height="100%"/><path style="fill:#474747;fill-opacity:1;stroke:none;stroke-width:1px;stroke-linecap:butt;stroke-linejoin:miter;stroke-opacity:1" d="M50.213 89.653c6.526 3.082 13.753 2.401 19.251-.03-5.231 5.669-14.254 5.941-19.251.03z" id="path1020"/><use x="0" y="0" xlink:href="#path1240-5-2" id="use1342" transform="matrix(-1 0 0 1 119.193 0)" width="100%" height="100%"/><path style="fill:#474747;fill-opacity:1;stroke:none;stroke-width:1px;stroke-linecap:butt;stroke-linejoin:miter;stroke-opacity:1" d="M49.633 78.465c.146-1.552-15.66-.859-22.902 2.16 15.486-3.814 22.725-.58 22.902-2.16z" id="path1022"/><use x="0" y="0" xlink:href="#path1240-5" id="use1344" transform="matrix(-1 0 0 1 119.193 0)" width="100%" height="100%"/><path style="fill:#474747;fill-opacity:1;stroke:none;stroke-width:1px;stroke-linecap:butt;stroke-linejoin:miter;stroke-opacity:1" d="M49.53 81.567c-.053-1.432-14.138 1.1-20.273 4.721 13.43-5.337 20.301-3.26 20.272-4.72z" id="path1022-0"/><path style="fill:#474747;fill-opacity:1;stroke:none;stroke-width:.999998px;stroke-linecap:butt;stroke-linejoin:miter;stroke-opacity:1" d="M49.685 84.773c-.291-1.365-13.19 3.56-18.382 8.124 11.804-7.503 18.656-6.728 18.382-8.124z" id="path1022-0-9"/><path style="fill:#474747;fill-opacity:1;stroke:none;stroke-width:1px;stroke-linecap:butt;stroke-linejoin:miter;stroke-opacity:1" d="M69.959 78.465c-.147-1.552 15.659-.859 22.901 2.16-15.485-3.814-22.725-.58-22.901-2.16z" id="path1022-3"/><path style="fill:#474747;fill-opacity:1;stroke:none;stroke-width:1px;stroke-linecap:butt;stroke-linejoin:miter;stroke-opacity:1" d="M70.062 81.567c.052-1.432 14.137 1.1 20.272 4.721-13.43-5.337-20.3-3.26-20.272-4.72z" id="path1022-0-6"/><path style="fill:#474747;fill-opacity:1;stroke:none;stroke-width:.999998px;stroke-linecap:butt;stroke-linejoin:miter;stroke-opacity:1" d="M69.906 84.773c.292-1.365 13.19 3.56 18.383 8.124-11.804-7.503-18.656-6.728-18.383-8.124z" id="path1022-0-9-0"/><path style="fill:#888;fill-opacity:1;stroke:none;stroke-width:1px;stroke-linecap:butt;stroke-linejoin:miter;stroke-opacity:1" d="M67.886 149.28c7.202 8.31 5.118 18.607 3.59 23.53-1.603 5.163 11.492 11.029 21.535 5.066 7.14-4.24-5.628-9.365-4.264-11.354 1.266-1.847 3.114-18.526-8.774-33.193-11.887-14.668-14.127 13.577-12.087 15.951z" id="path1218"/><path style="fill:#474747;fill-opacity:1;stroke:none;stroke-width:1px;stroke-linecap:butt;stroke-linejoin:miter;stroke-opacity:1" d="M81.183 181.963c3.697 1.864 9.073 3.627 9.84 4.442-.521-4.621-3.393-9.988-7.167-9.267-1.861.356-3.907 2.582-2.673 4.825z" id="path1240-3"/><path style="fill:#474747;fill-opacity:1;stroke:none;stroke-width:1px;stroke-linecap:butt;stroke-linejoin:miter;stroke-opacity:1" d="M94.102 177.693c2.86 1.383 7.019 2.692 7.612 3.297-.403-3.43-2.625-7.413-5.545-6.878-1.44.264-3.023 1.916-2.067 3.581z" id="path1240-3-7-9"/><path style="fill:#474747;fill-opacity:1;stroke:none;stroke-width:1px;stroke-linecap:butt;stroke-linejoin:miter;stroke-opacity:1" d="M88.487 179.87c3.304 1.69 8.109 3.29 8.794 4.03-.466-4.193-3.033-9.061-6.405-8.407-1.664.323-3.493 2.342-2.39 4.377z" id="path1240-3-7"/><path style="fill:#e2e2e2;fill-opacity:1;stroke:none;stroke-width:1px;stroke-linecap:butt;stroke-linejoin:miter;stroke-opacity:1" d="M82.687 180.607c3.696 1.863 5.99 2.668 6.756 3.482-1.047-3.858-1.875-5.08-3.784-5.763-1.785-.639-3.755.272-2.972 2.28z" id="path1240"/><path style="fill:#e2e2e2;fill-opacity:1;stroke:none;stroke-width:1px;stroke-linecap:butt;stroke-linejoin:miter;stroke-opacity:1" d="M95.79 176.992c1.52.732 2.95 1.049 4.396 1.88-1.12-2.235-1.826-3.305-3.23-3.342-1.404-.038-1.493.703-1.166 1.462z" id="path1240-5-2"/><path style="fill:#e2e2e2;fill-opacity:1;stroke:none;stroke-width:1px;stroke-linecap:butt;stroke-linejoin:miter;stroke-opacity:1" d="M90.038 178.936c3.304 1.691 5.107 2.13 5.793 2.87-.952-3.466-1.943-4.556-3.662-4.915-1.658-.347-2.83.223-2.131 2.045z" id="path1240-5"/><path style="fill:#474747;fill-opacity:1;stroke:none;stroke-width:1px;stroke-linecap:butt;stroke-linejoin:miter;stroke-opacity:1" d="M45.425 105.363c-2.364 5.198-1.404 13.739-.45 15.95 1.763-3.607 3.921-5.706 4.86-6.653-.353 4.896.862 9.547 1.664 11.3 1.345-3.857 4.241-6.61 4.94-7.068-.135 4.232 2.002 8.717 2.615 10.42 1.887-4.197 3.622-8.024 3.644-9.898 2.809 2.44 4.1 4.852 4.653 6.11 1.583-4.27 2.174-7.745 2.207-10.068 2.023 2.23 3.275 3.85 3.867 5.144 1.723-4.95 2.218-8.487.905-14.037 2.424 4.871.968 14.06-.819 17.258-1.513-2.725-2.822-4.302-3.289-4.873-.485 4.315-1.854 7.311-2.906 9.342-2.376-3.744-3.284-4.727-3.87-5.171-1.502 4.382-3.861 7.906-4.468 9.024-1.345-2.245-3.287-8.424-3.618-9.63-1.816 2.294-2.998 5.352-3.606 6.572-2.099-3.338-3.004-8.214-3.08-10.04-2.157 2.989-2.82 4.117-3.509 6.51-2.43-5.838-3.92-14.443.26-20.192z" id="path1368"/></g></svg>