<!--Created with Inkscape (http://www.inkscape.org/)--><svg xmlns:dc="http://purl.org/dc/elements/1.1/" xmlns:cc="http://creativecommons.org/ns#" xmlns:rdf="http://www.w3.org/1999/02/22-rdf-syntax-ns#" xmlns="http://www.w3.org/2000/svg" xmlns:sodipodi="http://sodipodi.sourceforge.net/DTD/sodipodi-0.dtd" xmlns:inkscape="http://www.inkscape.org/namespaces/inkscape" width="120" height="200" sodipodi:version="0.32" inkscape:version="0.91 r13725" sodipodi:docname="14_fox.svg" version="1.0"><sodipodi:namedview pagecolor="#ffffff" bordercolor="#666666" borderopacity="1.0" inkscape:pageopacity="0.0" inkscape:pageshadow="2" inkscape:zoom="2.4821429" inkscape:cx="88.571429" inkscape:cy="80" inkscape:document-units="px" inkscape:current-layer="layer1" inkscape:window-width="966" inkscape:window-height="893" inkscape:window-x="83" inkscape:window-y="-17" height="200px" width="120px"/><metadata><rdf:RDF><cc:Work><dc:format>image/svg+xml</dc:format><dc:type rdf:resource="http://purl.org/dc/dcmitype/StillImage"/></cc:Work></rdf:RDF></metadata><g inkscape:label="Calque 1" inkscape:groupmode="layer"><path style="opacity:1;fill:#000;fill-opacity:.26086956;fill-rule:evenodd;stroke:none;stroke-width:5;stroke-linecap:round;stroke-linejoin:round;stroke-miterlimit:4;stroke-opacity:1" d="M24.117 180.094c-21.053-7.42-34.405-40.625 13.871-53.372 48.247-12.738 80.223 35.029 62.532 47.893-16.776 12.198-56.667 12.435-76.403 5.479z" sodipodi:nodetypes="czzz"/><path style="fill:#ffb147;fill-opacity:1;fill-rule:nonzero;stroke:#000;stroke-width:1.96036649;stroke-linecap:butt;stroke-linejoin:miter;stroke-miterlimit:4;stroke-opacity:1" d="M16.75 98.792c-8.206-2.442-7.355-5.196.967-3.308m-.382 3.31c-4.25.121-8.006-4.878.232-4.228" sodipodi:nodetypes="cccc"/><path style="fill:#ffb147;fill-opacity:1;fill-rule:nonzero;stroke:#000;stroke-width:1.96036649;stroke-linecap:butt;stroke-linejoin:miter;stroke-miterlimit:4;stroke-opacity:1" d="M16.09 93.468c-7.935-3.22-6.822-5.88 1.28-3.199m-.7 3.257c-4.242-.288-7.498-5.626.639-4.185" sodipodi:nodetypes="cccc"/><path style="fill:#ffb147;fill-opacity:1;fill-rule:nonzero;stroke:#000;stroke-width:1.96036649;stroke-linecap:butt;stroke-linejoin:miter;stroke-miterlimit:4;stroke-opacity:1" d="M17.51 89.467c-6.517-5.555-4.623-7.729 2.223-2.633m-1.69 2.87c-3.936-1.608-5.346-7.7 1.924-3.77" sodipodi:nodetypes="cccc"/><path style="fill:#d72e00;fill-opacity:1;fill-rule:evenodd;stroke:#000;stroke-width:1.96036649;stroke-linecap:butt;stroke-linejoin:miter;stroke-miterlimit:4;stroke-dasharray:none;stroke-opacity:1" d="M71.066 148.557s11.502 8.523 21.35 1.623c19.227-9.317 16.033-13.639 20.127-35.354 3.372-6.6-18.349-11.251-25.13 8.785-5.59 16.514-40.408 15.619-44.86 24.083" sodipodi:nodetypes="cccsc"/><g style="fill:#d72e00;fill-opacity:1;fill-rule:nonzero;stroke:none"><path style="fill:#d72e00;fill-opacity:1;fill-rule:nonzero;stroke:none;stroke-width:3;stroke-linecap:round;stroke-linejoin:round;stroke-miterlimit:4;stroke-opacity:1" d="M43.446 159.132c-25.845 29.42-15.816 82.517-14.178 93.665 16.115 24.394 57.071 17.344 67.263-10.395 2.495-38.797 20.805-85.26-53.085-83.27z" sodipodi:nodetypes="cccc" transform="matrix(.632 0 0 -.58698 16.356 241.287)"/></g><path style="fill:#d72e00;fill-opacity:1;fill-rule:nonzero;stroke:#000;stroke-width:1.96036649;stroke-linecap:butt;stroke-linejoin:miter;stroke-miterlimit:4;stroke-opacity:1" d="M41.746 88.162c-6.888-1.286-17.072-3.529-21.182-2.965 0 0-8.306.965-2.705 14.011 4.145 2.937 8.852 3.467 14.7 4.437m8.888-15.347c-6.899-1.065-14.877-3.088-20.522-3.107 0 0-5.848 4.131-2.498 13.413 4.204 3.75 8.61 3.12 15.434 4.982" sodipodi:nodetypes="cccccccc"/><path style="fill:#fff;fill-opacity:.07333332;fill-rule:evenodd;stroke:none;stroke-width:3;stroke-linecap:round;stroke-linejoin:round;stroke-miterlimit:4;stroke-opacity:1" d="M28.72 89.209c10.298 3.605 10.543 4.647 13.254-1.233-5.828-6.125-20.25-3.39-24.018.834 1.13 4.029-2.623 3.304 10.764.399z" sodipodi:nodetypes="cccc"/><path style="fill:#d72e00;fill-opacity:1;fill-rule:nonzero;stroke:#000;stroke-width:1.96036649;stroke-linecap:butt;stroke-linejoin:miter;stroke-miterlimit:4;stroke-opacity:1" d="M80.41 139.128c6.678 5.07 8.57 13.07 9.237 17.165 0 0 1.513 8.224-12.602 6.694-4.024-3.101-4.58-9.417-7.221-14.723m10.392-9.07c6.351 5.274 7.657 11.36 9.33 16.752 0 0-2.234 6.802-12.09 6.321-4.817-2.92-3.502-7.848-7.284-13.826" sodipodi:nodetypes="cccccccc" inkscape:transform-center-y="3.6844894" inkscape:transform-center-x="-2.2808732"/><path style="opacity:1;fill:#fffcff;fill-opacity:.72608696;fill-rule:evenodd;stroke:none;stroke-width:5;stroke-linecap:round;stroke-linejoin:round;stroke-miterlimit:4;stroke-opacity:1" d="M46.089 136.63c-7.005-6.17-11.447-33.78 4.614-44.379 16.051-10.592 26.69 29.127 20.804 39.824-5.581 10.143-18.852 10.34-25.418 4.556z" sodipodi:nodetypes="czzz"/><path style="fill:#d72e00;fill-opacity:1;fill-rule:nonzero;stroke:#000;stroke-width:1.96036649;stroke-linecap:butt;stroke-linejoin:miter;stroke-miterlimit:4;stroke-opacity:1" d="M30.655 137.027c-6.678 5.07-10.94 16.316-11.606 20.411 0 0-1.513 8.224 12.602 6.694 4.024-3.1 8.535-12.599 11.176-17.905M34.594 130.9c-6.351 5.274-13.771 20.799-15.444 26.19 0 0 2.234 6.802 12.09 6.322 4.817-2.92 7.72-11.006 11.502-16.984" sodipodi:nodetypes="cccccccc" inkscape:transform-center-y="3.6844859" inkscape:transform-center-x="2.2808711"/><path style="fill:#ffb147;fill-opacity:1;fill-rule:nonzero;stroke:#000;stroke-width:1.96036649;stroke-linecap:butt;stroke-linejoin:miter;stroke-miterlimit:4;stroke-opacity:1" d="M30.54 165.264c-3.696 7.724-6.283 6.452-3.115-1.473m3.208.896c-.545 4.218-6.07 7.143-4.139-.89" sodipodi:nodetypes="cccc"/><path style="fill:#ffb147;fill-opacity:1;fill-rule:nonzero;stroke:#000;stroke-width:1.96036649;stroke-linecap:butt;stroke-linejoin:miter;stroke-miterlimit:4;stroke-opacity:1" d="M25.8 164.091c-4.424 7.332-6.876 5.816-2.96-1.766m3.107 1.201c-.948 4.145-6.73 6.525-4.033-1.285" sodipodi:nodetypes="cccc"/><path style="fill:#ffb147;fill-opacity:1;fill-rule:nonzero;stroke:#000;stroke-width:1.96036649;stroke-linecap:butt;stroke-linejoin:miter;stroke-miterlimit:4;stroke-opacity:1" d="M22.07 162.062c-6.507 5.566-8.357 3.356-2.253-2.608m2.571 2.118c-2.205 3.636-8.443 4.074-3.424-2.49" sodipodi:nodetypes="cccc"/><path style="fill:#ffb147;fill-opacity:1;fill-rule:nonzero;stroke:#000;stroke-width:1.96036649;stroke-linecap:butt;stroke-linejoin:miter;stroke-miterlimit:4;stroke-opacity:1" d="M78.166 164.315c3.696 7.724 6.283 6.452 3.115-1.473m-3.208.897c.545 4.217 6.07 7.143 4.139-.892" sodipodi:nodetypes="cccc"/><path style="fill:#ffb147;fill-opacity:1;fill-rule:nonzero;stroke:#000;stroke-width:1.96036649;stroke-linecap:butt;stroke-linejoin:miter;stroke-miterlimit:4;stroke-opacity:1" d="M82.906 163.142c4.423 7.332 6.876 5.817 2.96-1.766m-3.107 1.201c.948 4.146 6.73 6.525 4.033-1.285" sodipodi:nodetypes="cccc"/><path style="fill:#ffb147;fill-opacity:1;fill-rule:nonzero;stroke:#000;stroke-width:1.96036649;stroke-linecap:butt;stroke-linejoin:miter;stroke-miterlimit:4;stroke-opacity:1" d="M86.636 161.113c6.507 5.566 8.357 3.356 2.253-2.608m-2.571 2.118c2.205 3.636 8.442 4.074 3.424-2.49" sodipodi:nodetypes="cccc"/><path style="fill:#ffb147;fill-opacity:1;fill-rule:nonzero;stroke:#000;stroke-width:1.96036649;stroke-linecap:butt;stroke-linejoin:miter;stroke-miterlimit:4;stroke-opacity:1" d="M98.262 101.04c8.207-2.44 7.356-5.195-.967-3.307m.383 3.31c4.25.121 8.005-4.878-.232-4.228" sodipodi:nodetypes="cccc"/><path style="fill:#ffb147;fill-opacity:1;fill-rule:nonzero;stroke:#000;stroke-width:1.96036649;stroke-linecap:butt;stroke-linejoin:miter;stroke-miterlimit:4;stroke-opacity:1" d="M99.801 95.328c7.934-3.22 6.821-5.88-1.28-3.2m.699 3.258c4.243-.288 7.498-5.626-.638-4.186" sodipodi:nodetypes="cccc"/><path style="fill:#ffb147;fill-opacity:1;fill-rule:nonzero;stroke:#000;stroke-width:1.96036649;stroke-linecap:butt;stroke-linejoin:miter;stroke-miterlimit:4;stroke-opacity:1" d="M98.672 91.716c6.516-5.555 4.622-7.728-2.224-2.633m1.69 2.87c3.936-1.608 5.346-7.7-1.923-3.77" sodipodi:nodetypes="cccc"/><path style="fill:#d72e00;fill-opacity:1;fill-rule:nonzero;stroke:#000;stroke-width:1.96036649;stroke-linecap:butt;stroke-linejoin:miter;stroke-miterlimit:4;stroke-opacity:1" d="M72.193 90.946c6.888-1.286 17.366-4.118 21.477-3.554 0 0 8.306.965 2.704 14.01-4.145 2.938-11.023 5.615-16.87 6.585m-7.897-16.61c6.899-1.065 16.056-3.972 21.701-3.991 0 0 5.848 4.13 2.499 13.413-4.204 3.749-9.296 4.562-16.12 6.424" sodipodi:nodetypes="cccccccc"/><g style="fill:#fff;fill-opacity:.07333332;stroke:none;stroke-opacity:1"><path style="fill-rule:evenodd;stroke-width:3;stroke-linecap:round;stroke-linejoin:round;stroke-miterlimit:4" d="M71.43 245.185c-41.548-32.096-37.777-47.641-44.777 8.082 25.866 56.537 74.25 34.15 86.26-6.203-6.655-37.656 8.146-31.5-41.483-1.88z" sodipodi:nodetypes="cccc" transform="matrix(-.40628 -.00597 .02492 -.13221 81.74 90.017)"/></g><path style="fill:#fff;fill-opacity:.07333332;fill-rule:evenodd;stroke:none;stroke-width:3;stroke-linecap:round;stroke-linejoin:round;stroke-miterlimit:4;stroke-opacity:1" d="M88.232 91.625c10.299 3.605 9.07 5.237 11.78-.644-5.827-6.124-20.332-5.538-24.102-1.313 1.131 4.029-1.064 4.862 12.322 1.957z" sodipodi:nodetypes="cccc"/><path style="fill:#fff;fill-opacity:.07333332;fill-rule:evenodd;stroke:none;stroke-width:3;stroke-linecap:round;stroke-linejoin:round;stroke-miterlimit:4;stroke-opacity:1" d="M82.112 147.56c-.282 5.987-1.953 6.433 3.616 4.163 3.535-5.688-1.627-9.454-6.105-8.523-3.033 2.703-3.417.854 2.49 4.36z" sodipodi:nodetypes="cccc"/><path style="fill:#fff;fill-opacity:.07333332;fill-rule:evenodd;stroke:none;stroke-width:3;stroke-linecap:round;stroke-linejoin:round;stroke-miterlimit:4;stroke-opacity:1" d="M27.997 146.702c.282 5.987 1.953 6.434-3.616 4.164-3.535-5.688 1.627-9.455 6.105-8.523 3.033 2.703 3.417.853-2.49 4.36z" sodipodi:nodetypes="cccc"/><path style="fill:none;fill-opacity:.75;fill-rule:evenodd;stroke:#000;stroke-width:1.96036649;stroke-linecap:butt;stroke-linejoin:miter;stroke-miterlimit:4;stroke-dasharray:none;stroke-opacity:1" d="M45.566 96.23c-3.895 10.516-8.57 16.296-8.57 16.296" sodipodi:nodetypes="cc"/><path style="fill:none;fill-opacity:.75;fill-rule:evenodd;stroke:#000;stroke-width:1.96036649;stroke-linecap:butt;stroke-linejoin:miter;stroke-miterlimit:4;stroke-dasharray:none;stroke-opacity:1" d="M42.255 110.812c-1.948 8.18-7.011 14.739-7.011 14.739" sodipodi:nodetypes="cc"/><path style="fill:none;fill-opacity:.75;fill-rule:evenodd;stroke:#000;stroke-width:1.96036649;stroke-linecap:butt;stroke-linejoin:miter;stroke-miterlimit:4;stroke-dasharray:none;stroke-opacity:1" d="M41.476 123.876c-2.437 4 6.566 7.989 1.169 13.57" sodipodi:nodetypes="cc"/><path style="fill:none;fill-opacity:.75;fill-rule:evenodd;stroke:#000;stroke-width:1.96036649;stroke-linecap:butt;stroke-linejoin:miter;stroke-miterlimit:4;stroke-dasharray:none;stroke-opacity:1" d="M70.3 112.425c1.559 7.79 4.948 12.168 4.948 12.168" sodipodi:nodetypes="cc"/><path style="fill:none;fill-opacity:.75;fill-rule:evenodd;stroke:#000;stroke-width:1.96036649;stroke-linecap:butt;stroke-linejoin:miter;stroke-miterlimit:4;stroke-dasharray:none;stroke-opacity:1" d="M66.795 97.778c6.232 15.97 9.232 17.465 9.232 17.465" sodipodi:nodetypes="cc"/><path style="fill:none;fill-opacity:.75;fill-rule:evenodd;stroke:#000;stroke-width:1.96036649;stroke-linecap:butt;stroke-linejoin:miter;stroke-miterlimit:4;stroke-dasharray:none;stroke-opacity:1" d="M71.743 126.838c2.437 4-4.229 5.652-2.337 10.454" sodipodi:nodetypes="cc"/><path style="fill:none;fill-opacity:.75;fill-rule:evenodd;stroke:#000;stroke-width:1.96036649;stroke-linecap:butt;stroke-linejoin:miter;stroke-miterlimit:4;stroke-dasharray:none;stroke-opacity:1" d="M49.75 135.408c2.438 4-2.67 4.093-.778 8.896" sodipodi:nodetypes="cc"/><path style="fill:none;fill-opacity:.75;fill-rule:evenodd;stroke:#000;stroke-width:1.96036649;stroke-linecap:butt;stroke-linejoin:miter;stroke-miterlimit:4;stroke-dasharray:none;stroke-opacity:1" d="M63.384 137.509c.1 4 5.899 3.703 1.558 7.727" sodipodi:nodetypes="cc"/><path style="fill:none;fill-opacity:.75;fill-rule:evenodd;stroke:#000;stroke-width:1.96036649;stroke-linecap:butt;stroke-linejoin:miter;stroke-miterlimit:4;stroke-dasharray:none;stroke-opacity:1" d="M56.895 136.966c2.437 4-2.282 3.704-.39 8.506" sodipodi:nodetypes="cc"/><path style="opacity:1;fill:#fff9ff;fill-opacity:.69130435;fill-rule:evenodd;stroke:none;stroke-width:5;stroke-linecap:round;stroke-linejoin:round;stroke-miterlimit:4;stroke-opacity:1" d="M90.113 126.283c-2.483-6.871 7.658-18.42 17.029-15.426 8.042-1.953 2.172 16.287-.87 18.987-3.21 2.85-13.77 3.05-16.16-3.56z" sodipodi:nodetypes="cczz" inkscape:transform-center-x="4.4320124"/><path style="fill:none;fill-opacity:.75;fill-rule:evenodd;stroke:#000;stroke-width:1.96036649;stroke-linecap:butt;stroke-linejoin:miter;stroke-miterlimit:4;stroke-dasharray:none;stroke-opacity:1" d="M116.01 105.804c2.437 4-4.619 2.925-2.727 7.727" sodipodi:nodetypes="cc"/><path style="fill:none;fill-opacity:.75;fill-rule:evenodd;stroke:#000;stroke-width:1.96036649;stroke-linecap:butt;stroke-linejoin:miter;stroke-miterlimit:4;stroke-dasharray:none;stroke-opacity:1" d="M109.548 101.909c-2.437 4 4.23 5.651 2.337 10.454" sodipodi:nodetypes="cc"/><path style="fill:none;fill-opacity:.75;fill-rule:evenodd;stroke:#000;stroke-width:1.96036649;stroke-linecap:butt;stroke-linejoin:miter;stroke-miterlimit:4;stroke-dasharray:none;stroke-opacity:1" d="M112.538 103.516c.1 4 2.393 2.535-1.948 6.559" sodipodi:nodetypes="cc"/><path style="fill:none;fill-opacity:.75;fill-rule:evenodd;stroke:#000;stroke-width:1.96036649;stroke-linecap:butt;stroke-linejoin:miter;stroke-miterlimit:4;stroke-dasharray:none;stroke-opacity:1" d="M89.658 124.467c.264 5.676 9.708 10.776 17.448 3.886" sodipodi:nodetypes="cc"/><path style="fill:none;fill-opacity:.75;fill-rule:evenodd;stroke:#000;stroke-width:1.96036649;stroke-linecap:butt;stroke-linejoin:miter;stroke-miterlimit:4;stroke-dasharray:none;stroke-opacity:1" d="M32.175 102.21c1.167 10.31 3.788 11.083-.914 18.076" sodipodi:nodetypes="cc"/><path style="fill:none;fill-opacity:.75;fill-rule:evenodd;stroke:#000;stroke-width:1.96036649;stroke-linecap:butt;stroke-linejoin:miter;stroke-miterlimit:4;stroke-dasharray:none;stroke-opacity:1" d="M32.987 119.28c3.526 11.753-1.6 15.33-1.6 15.33" sodipodi:nodetypes="cc"/><path style="fill:none;fill-opacity:.75;fill-rule:evenodd;stroke:#000;stroke-width:1.96036649;stroke-linecap:butt;stroke-linejoin:miter;stroke-miterlimit:4;stroke-dasharray:none;stroke-opacity:1" d="M78.683 101.732c-1.51 9.273 2.946 17.586 2.946 17.586" sodipodi:nodetypes="cc"/><path style="fill:none;fill-opacity:.75;fill-rule:evenodd;stroke:#000;stroke-width:1.96036649;stroke-linecap:butt;stroke-linejoin:miter;stroke-miterlimit:4;stroke-dasharray:none;stroke-opacity:1" d="M79.728 115.486c.17 12.26-1.876 20.083-1.876 20.083" sodipodi:nodetypes="cc"/><path style="fill:none;fill-opacity:.75;fill-rule:evenodd;stroke:#000;stroke-width:1.96036649;stroke-linecap:butt;stroke-linejoin:miter;stroke-miterlimit:4;stroke-dasharray:none;stroke-opacity:1" d="M70.373 147.356c-18.133 4.094-27.946-1.057-27.946-1.057" sodipodi:nodetypes="cc"/><g style="opacity:.47033895;fill:#020202;fill-opacity:1;stroke:none;stroke-opacity:1"><path style="opacity:1;fill:#020202;fill-opacity:1;fill-rule:evenodd;stroke-width:3;stroke-linecap:round;stroke-linejoin:round;stroke-miterlimit:4" d="M74.356 251.173c-23.915 3.21-31.79 15.354-46.549 6.665-.465 68.906 64.18 107.885 102.648-19.126-18.618 82.041-5.37-25.405-56.099 12.46z" sodipodi:nodetypes="cccc" transform="matrix(.23319 -.33242 .10186 .09921 56.056 132.015)"/></g><path sodipodi:nodetypes="cccc" style="fill:#fff;fill-opacity:.22173911;fill-rule:nonzero;stroke:#000;stroke-width:0;stroke-linecap:round;stroke-linejoin:round;stroke-miterlimit:4;stroke-dasharray:none;stroke-dashoffset:0;stroke-opacity:1" d="M51.667 62.01c-11.287-.248-9.902-5.104 3.49-5.562 11.044 1.85 20.198 3.418 8.027 5.925-7.154-.628-5.154-.682-11.517-.364z"/><g style="fill:#fff;fill-opacity:.07333332;stroke:none;stroke-opacity:1"><path style="fill-rule:evenodd;stroke-width:3;stroke-linecap:round;stroke-linejoin:round;stroke-miterlimit:4" d="M71.43 245.185c-41.548-32.096-37.777-47.641-44.777 8.082 25.866 56.537 74.25 34.15 86.26-6.203-6.655-37.656 8.146-31.5-41.483-1.88z" sodipodi:nodetypes="cccc" transform="matrix(-.40628 -.00597 .02492 -.13221 83.165 90.962)"/></g><path style="fill:#d72e00;fill-opacity:1;fill-rule:nonzero;stroke:#000;stroke-width:1.90575063;stroke-linecap:round;stroke-linejoin:round;stroke-miterlimit:4;stroke-opacity:1" d="M39.597 40.63c-2.294 12.412-1.668 25.212-4.186 35.578-.265 11.39 10.941 15.634 18.06 18.534 7.609 3.95 3.348 3.356 13.224-.706 5.74-6.19 11.601-3.101 12.431-18.636-2.416-8.606-.58-29.64-1.068-35.728-4.298 3.574-5.517 9.339-11.682 16.67-2.364-1.039 1.741.982-1.47.402-10.266-1.853-9.444-1.346-15.26 1.075-5.636-5.27-2.952-8.4-10.049-17.19zm.24-.242c-2.448 11.458-.821 22.664-4.184 35.814.18 12.068 7.149 13.56 13.983 17.5 5.708 1.644 6.717 7.031 15.12.326 5.214-3.329 14.257-5.195 14.197-18.927-1.234-5.444-1.655-27.81-.913-35.303-5.046 5.398-6.934 9.03-12.014 16.865-2.364-1.038 3.123 2.363-.088 1.783-10.266-1.853-10.558-3.012-16.871-.825-2.908-6.887-2-6.884-9.23-17.233z" sodipodi:nodetypes="cccccccscccccccccscc"/><path style="fill:#fff;fill-opacity:.57826089;fill-rule:evenodd;stroke:#000;stroke-width:1.90575063;stroke-linecap:butt;stroke-linejoin:miter;stroke-miterlimit:4;stroke-dasharray:none;stroke-opacity:1" d="M40.17 62.95s1.297-14.1 1.09-13.617c-1.139 2.651 5.544 7.173 4.971 9.199" sodipodi:nodetypes="csc"/><path style="fill:#fff;fill-opacity:.70434786;fill-rule:evenodd;stroke:#000;stroke-width:1.90575063;stroke-linecap:butt;stroke-linejoin:miter;stroke-miterlimit:4;stroke-dasharray:none;stroke-opacity:1" d="M75.87 60.969s-1.263-14.138-.997-13.682c1.459 2.508-5.228 7.697-4.408 9.646" sodipodi:nodetypes="csc"/><path style="fill:#010000;fill-opacity:1;fill-rule:evenodd;stroke:#000;stroke-width:1.19075274;stroke-linecap:butt;stroke-linejoin:miter;stroke-miterlimit:4;stroke-dasharray:none;stroke-opacity:1" d="M49.872 72.23c-.26-1.286.636-3.13 2.488-2.42 1.777.681 2.126 2.81.53 3.748-1.556.913-2.774-.118-3.018-1.328z" sodipodi:nodetypes="czzz"/><path style="fill:#010000;fill-opacity:1;fill-rule:evenodd;stroke:#000;stroke-width:1.19075274;stroke-linecap:butt;stroke-linejoin:miter;stroke-miterlimit:4;stroke-dasharray:none;stroke-opacity:1" d="M62.014 72.484c-.26-1.286.636-3.131 2.488-2.42 1.777.68 2.126 2.81.53 3.747-1.557.914-2.774-.117-3.018-1.327z" sodipodi:nodetypes="czzz"/><path sodipodi:nodetypes="cccc" style="fill:#fff;fill-opacity:.22173911;fill-rule:nonzero;stroke:#000;stroke-width:0;stroke-linecap:round;stroke-linejoin:round;stroke-miterlimit:4;stroke-dasharray:none;stroke-dashoffset:0;stroke-opacity:1" d="M53.092 62.955c-11.287-.247-9.901-5.104 3.49-5.562 11.045 1.851 20.199 3.419 8.028 5.925-7.154-.628-5.155-.682-11.518-.363z"/><path style="fill:#fff;fill-opacity:.68260875;fill-rule:evenodd;stroke:none;stroke-width:1px;stroke-linecap:butt;stroke-linejoin:miter;stroke-opacity:1" d="M57.806 96.854c-9.778-5.036-24.235-10.18-20.482-22.528.673-7.42 6.223 3.946 12.305 3.067 6.083-.879 6.192-6.472 13.564-.73 8.604 4.819 12.156-7.834 13.925-4.59 2.385 14.025-5.837 17.804-19.312 24.781z" sodipodi:nodetypes="cccccc"/><path d="M57.445 83.024s-3.712-2.657-2.629-5.287c-2.05-2.363 4.52-2.71 5.705-1.06 1.184 1.649-3.076 6.347-3.076 6.347zm.172-.231s-3.713-1.545-2.63-4.175c-2.05-2.363 4.521-2.71 5.705-1.06 1.185 1.65-3.075 5.235-3.075 5.235z" style="fill:#000;fill-opacity:1;fill-rule:nonzero;stroke:#000;stroke-width:.96377778;stroke-linecap:butt;stroke-linejoin:miter;stroke-miterlimit:4;stroke-opacity:1" inkscape:transform-center-x="-1.0010927" sodipodi:nodetypes="ccscccsc"/><path d="m57.739 86.731-.228-3.254" style="fill:none;fill-opacity:.75;fill-rule:evenodd;stroke:#000;stroke-width:1.17363;stroke-linecap:round;stroke-linejoin:round;stroke-miterlimit:4;stroke-dasharray:none;stroke-opacity:1"/><path d="M57.843 87.689S57.14 93.06 70.67 85.4" style="fill:none;fill-opacity:.75;fill-rule:evenodd;stroke:#000;stroke-width:1.27050042;stroke-linecap:round;stroke-linejoin:round;stroke-miterlimit:4;stroke-opacity:1" sodipodi:nodetypes="cc"/><path d="M57.6 88.227s.703 5.371-12.826-2.288" style="fill:none;fill-opacity:.75;fill-rule:evenodd;stroke:#000;stroke-width:1.27050042;stroke-linecap:round;stroke-linejoin:round;stroke-miterlimit:4;stroke-opacity:1" sodipodi:nodetypes="cc"/><path d="M57.85 86.995s-.704 5.371 12.825-2.288" style="fill:none;fill-opacity:.75;fill-rule:evenodd;stroke:#000;stroke-width:1.27050042;stroke-linecap:round;stroke-linejoin:round;stroke-miterlimit:4;stroke-opacity:1" sodipodi:nodetypes="cc"/><path d="M57.6 87.575s.703 5.371-12.826-2.288" style="fill:none;fill-opacity:.75;fill-rule:evenodd;stroke:#000;stroke-width:1.27050042;stroke-linecap:round;stroke-linejoin:round;stroke-miterlimit:4;stroke-opacity:1" sodipodi:nodetypes="cc"/><path sodipodi:nodetypes="cc" d="M64.101 78.99c.797 2.017-.679.545-.679.545" style="fill:#000;fill-opacity:1;fill-rule:evenodd;stroke:#000;stroke-width:1.41880107;stroke-linecap:round;stroke-linejoin:round;stroke-miterlimit:4;stroke-opacity:1"/><path sodipodi:nodetypes="cc" d="M68.318 81.302c.797 2.017-.68.545-.68.545" style="fill:#000;fill-opacity:1;fill-rule:evenodd;stroke:#000;stroke-width:1.41880107;stroke-linecap:round;stroke-linejoin:round;stroke-miterlimit:4;stroke-opacity:1"/><path sodipodi:nodetypes="cc" d="M64.101 82.951c.797 2.016-.679.545-.679.545" style="fill:#000;fill-opacity:1;fill-rule:evenodd;stroke:#000;stroke-width:1.41880107;stroke-linecap:round;stroke-linejoin:round;stroke-miterlimit:4;stroke-opacity:1"/><path style="fill:none;fill-opacity:.75;fill-rule:evenodd;stroke:#000;stroke-width:2;stroke-linecap:butt;stroke-linejoin:miter;stroke-miterlimit:4;stroke-dasharray:none;stroke-opacity:1" d="M908.27 773.405s23.426-3.545 37.397 1.976" sodipodi:nodetypes="cc" transform="matrix(.41742 -.1455 .21507 .61705 -475.74 -265.08)"/><path style="fill:none;fill-opacity:.75;fill-rule:evenodd;stroke:#000;stroke-width:2;stroke-linecap:butt;stroke-linejoin:miter;stroke-miterlimit:4;stroke-dasharray:none;stroke-opacity:1" d="M908.563 775.067s33.608 5.883 37.714 15.001" transform="matrix(.41742 -.1455 .21507 .61705 -475.74 -265.08)"/><path style="fill:none;fill-opacity:.75;fill-rule:evenodd;stroke:#000;stroke-width:2;stroke-linecap:butt;stroke-linejoin:miter;stroke-miterlimit:4;stroke-dasharray:none;stroke-opacity:1" d="M908.347 777.01s18.038 2.375 31.903 13.679" sodipodi:nodetypes="cc" transform="matrix(.41742 -.1455 .21507 .61705 -475.74 -265.08)"/><path sodipodi:nodetypes="cc" d="M51.576 79.471c.797 2.017-.679.545-.679.545" style="fill:#000;fill-opacity:1;fill-rule:evenodd;stroke:#000;stroke-width:1.41880107;stroke-linecap:round;stroke-linejoin:round;stroke-miterlimit:4;stroke-opacity:1"/><path sodipodi:nodetypes="cc" d="M52.703 84.381c.797 2.017-.679.545-.679.545" style="fill:#000;fill-opacity:1;fill-rule:evenodd;stroke:#000;stroke-width:1.41880107;stroke-linecap:round;stroke-linejoin:round;stroke-miterlimit:4;stroke-opacity:1"/><path sodipodi:nodetypes="cc" d="M48.932 82.739c.796 2.016-.68.545-.68.545" style="fill:#000;fill-opacity:1;fill-rule:evenodd;stroke:#000;stroke-width:1.41880107;stroke-linecap:round;stroke-linejoin:round;stroke-miterlimit:4;stroke-opacity:1"/><g><path style="fill:none;fill-opacity:.75;fill-rule:evenodd;stroke:#000;stroke-width:2;stroke-linecap:butt;stroke-linejoin:miter;stroke-miterlimit:4;stroke-dasharray:none;stroke-opacity:1" d="M908.27 773.405s23.426-3.545 37.397 1.976" sodipodi:nodetypes="cc" transform="matrix(-.41742 -.1455 -.21507 .61705 592.928 -265.465)"/><path style="fill:none;fill-opacity:.75;fill-rule:evenodd;stroke:#000;stroke-width:2;stroke-linecap:butt;stroke-linejoin:miter;stroke-miterlimit:4;stroke-dasharray:none;stroke-opacity:1" d="M908.563 775.067s33.608 5.883 37.714 15.001" transform="matrix(-.41742 -.1455 -.21507 .61705 592.928 -265.465)"/><path style="fill:none;fill-opacity:.75;fill-rule:evenodd;stroke:#000;stroke-width:2;stroke-linecap:butt;stroke-linejoin:miter;stroke-miterlimit:4;stroke-dasharray:none;stroke-opacity:1" d="M908.347 777.01s18.038 2.375 31.903 13.679" sodipodi:nodetypes="cc" transform="matrix(-.41742 -.1455 -.21507 .61705 592.928 -265.465)"/></g></g></svg>