<svg xmlns:dc="http://purl.org/dc/elements/1.1/" xmlns:cc="http://creativecommons.org/ns#" xmlns:rdf="http://www.w3.org/1999/02/22-rdf-syntax-ns#" xmlns="http://www.w3.org/2000/svg" xmlns:xlink="http://www.w3.org/1999/xlink" width="120" height="200" viewBox="0 0 120 200" version="1.1" id="svg8"><defs id="defs2"><linearGradient id="linearGradient1167"><stop style="stop-color:#4766b8;stop-opacity:1" offset="0" id="stop1163"/><stop style="stop-color:#93a4d4;stop-opacity:1" offset="1" id="stop1165"/></linearGradient><linearGradient xlink:href="#linearGradient1167" id="linearGradient1152" gradientUnits="userSpaceOnUse" gradientTransform="scale(-.87587 .87587) rotate(-32.361 -102.023 275.395)" x1="82.49968" y1="121.40517" x2="80.85424" y2="124.00184"/><linearGradient xlink:href="#linearGradient1167" id="linearGradient1250" gradientUnits="userSpaceOnUse" gradientTransform="scale(-.70202 .70202) rotate(-32.361 22.91 436.523)" x1="82.49968" y1="121.40517" x2="80.85424" y2="124.00184"/></defs><metadata id="metadata5"><rdf:RDF><cc:Work><dc:format>image/svg+xml</dc:format><dc:type rdf:resource="http://purl.org/dc/dcmitype/StillImage"/><dc:title/><dc:date>2023</dc:date><dc:creator><cc:Agent><dc:title>Timothée Giet</dc:title></cc:Agent></dc:creator><cc:license rdf:resource="http://creativecommons.org/licenses/by-sa/4.0/"/></cc:Work><cc:License rdf:about="http://creativecommons.org/licenses/by-sa/4.0/"><cc:permits rdf:resource="http://creativecommons.org/ns#Reproduction"/><cc:permits rdf:resource="http://creativecommons.org/ns#Distribution"/><cc:requires rdf:resource="http://creativecommons.org/ns#Notice"/><cc:requires rdf:resource="http://creativecommons.org/ns#Attribution"/><cc:permits rdf:resource="http://creativecommons.org/ns#DerivativeWorks"/><cc:requires rdf:resource="http://creativecommons.org/ns#ShareAlike"/></cc:License></rdf:RDF></metadata><g id="layer1" style="display:inline"><path style="display:inline;fill:#7c571f;fill-opacity:1;stroke:none;stroke-width:1px;stroke-linecap:butt;stroke-linejoin:miter;stroke-opacity:1" d="M22.05 34.833 10.37 33.597l6.167 7.076z" id="path970-5-2"/><path style="display:inline;fill:#e7ac53;fill-opacity:1;stroke:none;stroke-width:1px;stroke-linecap:butt;stroke-linejoin:miter;stroke-opacity:1" d="m20.857 36.218-8.364-1.186 4.242 4.611z" id="path970-9"/><path style="display:inline;fill:#7c571f;fill-opacity:1;stroke:none;stroke-width:1px;stroke-linecap:butt;stroke-linejoin:miter;stroke-opacity:1" d="m14.848 42.839-2.757-7.286 4.318 4.28z" id="path970-5-3-1"/><path style="display:inline;fill:#e7ac53;fill-opacity:1;stroke:none;stroke-width:1px;stroke-linecap:butt;stroke-linejoin:miter;stroke-opacity:1" d="m15.27 41.348-1.544-4.257 2.388 2.868z" id="path970-56-2"/><path style="fill:#354b8a;fill-opacity:1;stroke:none;stroke-width:1px;stroke-linecap:butt;stroke-linejoin:miter;stroke-opacity:1" d="M44.001 52.528c9.486-.54 19.444 5.545 20.872 11.582 1.24 5.241-19.184 2.513-20.872-11.582z" id="path1053"/><path style="fill:#6d8ae2;fill-opacity:1;stroke:none;stroke-width:1px;stroke-linecap:butt;stroke-linejoin:miter;stroke-opacity:1" d="M43.871 54.147c9.486-.54 18.259 5.147 19.687 11.185 1.24 5.24-18 2.91-19.687-11.185z" id="path1053-5"/><path style="fill:#354b8a;fill-opacity:1;stroke:none;stroke-width:1px;stroke-linecap:butt;stroke-linejoin:miter;stroke-opacity:1" d="M59.196 63.364c1.282-.145 23.726-2.14 26.155-.547 2.541 1.666-5.532 9.562-6.579 10.084 1.307 1.372-3.519 8.22-7.409 8.53 1.527 3.503-7.7 6.531-15.559 3.554-5.656 5.354-19.96 4.449-25.633-1.696-5.672-6.145-8.533-19.446-6.998-22.413-4.9-1.963-10.073-5.575-10.393-13.199-.529-12.555 13.286-17.365 20.97-13.519 7.766 3.886 8.587 10.341 7.379 15.936 11.21 2.957 17.672 13.315 18.067 13.27z" id="path1027-7"/><path style="fill:#6d8ae2;fill-opacity:1;stroke:none;stroke-width:1px;stroke-linecap:butt;stroke-linejoin:miter;stroke-opacity:1" d="M39.904 50.983c11.669 2.929 17.848 13.569 18.243 13.577 1.347.028 21.612-1.544 24.04.048 2.542 1.666-4.17 7.405-5.217 7.928 1.307 1.371-3.14 7.145-7.03 7.456 1.527 3.503-5.936 6.01-13.794 3.033-5.657 5.354-18.976 5.139-24.648-1.006-5.673-6.145-7.196-19.435-5.662-22.402-4.9-1.963-10.254-4.487-10.716-12.104-.574-9.467 9.887-16.234 17.469-12.188 7.581 4.046 7.7 9.455 7.315 15.658z" id="path1027"/><path style="fill:#354b8a;fill-opacity:1;stroke:none;stroke-width:1px;stroke-linecap:butt;stroke-linejoin:miter;stroke-opacity:1" d="M23.732 59.591c-8.27 4.93-11.96 15.698-11.708 19.876.939 15.543 15.94 20.9 13.646 10.745 2.633 2.253 5.738.478 5.305-3.567.86 1.77 4.748 3.004 3.446-9.088-.827-7.686-10.69-17.966-10.69-17.966z" id="path1075-3"/><path style="fill:#354b8a;fill-opacity:1;stroke:none;stroke-width:1px;stroke-linecap:butt;stroke-linejoin:miter;stroke-opacity:1" d="M77.766 73.104 65.27 71.907l13.506-.131z" id="path1049"/><path style="fill:#354b8a;fill-opacity:1;stroke:none;stroke-width:1px;stroke-linecap:butt;stroke-linejoin:miter;stroke-opacity:1" d="M70.757 80.928c-1.17-.39-9.188-3.016-9.188-3.016l11.044 2.06z" id="path1051"/><path style="fill:#6d8ae2;fill-opacity:1;stroke:none;stroke-width:1px;stroke-linecap:butt;stroke-linejoin:miter;stroke-opacity:1" d="M27.559 58.863C19.104 62.714 12.543 74.568 13.754 80.8c2.274 11.702 11.92 16.786 10.969 7.733 2.798 1.845 6.382.788 4.798-4.727 2.417 2.887 4.603 3.466 4.344-8.668-.165-7.728-6.306-16.274-6.306-16.274z" id="path1075"/><path style="fill:#354b8a;fill-opacity:1;stroke:none;stroke-width:1px;stroke-linecap:butt;stroke-linejoin:miter;stroke-opacity:1" d="M24.973 90.154c-.522-2.822-5.008-9.309-4.628-9.035 1.067.77 5.49 8.06 5.49 8.06z" id="path1097"/><path style="fill:#354b8a;fill-opacity:1;stroke:none;stroke-width:1px;stroke-linecap:butt;stroke-linejoin:miter;stroke-opacity:1" d="M30.002 86.128c-.374-1.851-3.853-7.394-3.413-7.068.434.322 4.178 5.668 4.414 6.42z" id="path1099"/><ellipse style="display:inline;opacity:.999223;fill:#354b8a;fill-opacity:1;stroke:none;stroke-width:1.5;stroke-opacity:.996078" id="path913-7" cx="-48.653622" cy="-8.3102951" rx="4.4363551" ry="5.1212168" transform="scale(-1 1) rotate(-67.736)"/><ellipse style="display:inline;opacity:.999223;fill:#ecebeb;fill-opacity:1;stroke:none;stroke-width:1.5003;stroke-opacity:.996078" id="path913-6-0" cx="-48.527622" cy="-6.7790422" rx="3.902391" ry="4.4608221" transform="matrix(-.39178 -.92006 -.9307 .36576 0 0)"/><path id="path935-9" style="display:inline;opacity:.999223;fill:url(#linearGradient1152);fill-opacity:1;stroke:none;stroke-width:1.5;stroke-opacity:.996078" d="M27.56 38.63c.612 1.07.598 2.354-.035 3.354-.966 1.524-3.053 1.934-4.66.915a3.542 3.542 0 0 1-1.552-2.132c.494-.972 1.385-1.76 2.48-2.19 1.243-.488 2.625-.468 3.767.053z"/><ellipse style="display:inline;opacity:.999223;fill:#2d2d2d;fill-opacity:1;stroke:none;stroke-width:1.5;stroke-opacity:.996078" id="path966-3" cx="-42.195427" cy="20.71137" rx="1.3560816" ry="1.511143" transform="scale(-1 1) rotate(-32.361)"/><ellipse style="display:inline;opacity:.999223;fill:#fff;fill-opacity:1;stroke:none;stroke-width:1.5;stroke-opacity:.996078" id="path968-6" cx="-43.651184" cy="20.931215" rx="0.85981226" ry="0.84787953" transform="scale(-1 1) rotate(-32.361)"/><path style="display:inline;fill:#7c571f;fill-opacity:1;stroke:none;stroke-width:.999998px;stroke-linecap:butt;stroke-linejoin:miter;stroke-opacity:1" d="m64.597 92.433-9.36-.991 4.943 5.671z" id="path970-5-2-2"/><path style="display:inline;fill:#e7ac53;fill-opacity:1;stroke:none;stroke-width:.999998px;stroke-linecap:butt;stroke-linejoin:miter;stroke-opacity:1" d="m63.15 93.65-5.507-.681 2.76 2.936z" id="path970-9-6"/><path style="display:inline;fill:#7c571f;fill-opacity:1;stroke:none;stroke-width:.999998px;stroke-linecap:butt;stroke-linejoin:miter;stroke-opacity:1" d="m58.825 98.85-2.21-5.84 3.461 3.431z" id="path970-5-3-1-1"/><path style="display:inline;fill:#e7ac53;fill-opacity:1;stroke:none;stroke-width:.999998px;stroke-linecap:butt;stroke-linejoin:miter;stroke-opacity:1" d="m59.386 97.216-1.46-2.973 1.914 2.298z" id="path970-56-2-8"/><path style="fill:#354b8a;fill-opacity:1;stroke:none;stroke-width:.999998px;stroke-linecap:butt;stroke-linejoin:miter;stroke-opacity:1" d="M82.192 106.616c7.603-.433 15.584 4.444 16.73 9.283.993 4.2-15.378 2.014-16.73-9.283z" id="path1053-7"/><path style="fill:#6d8ae2;fill-opacity:1;stroke:none;stroke-width:.999998px;stroke-linecap:butt;stroke-linejoin:miter;stroke-opacity:1" d="M82.087 107.913c7.763.377 14.772 4.824 15.78 8.965 1.02 4.194-14.427 2.332-15.78-8.965z" id="path1053-5-9"/><path style="fill:#354b8a;fill-opacity:1;stroke:none;stroke-width:.999998px;stroke-linecap:butt;stroke-linejoin:miter;stroke-opacity:1" d="M94.37 115.3c1.028-.116 19.018-1.714 20.964-.438 2.037 1.336-4.434 7.665-5.273 8.083 1.048 1.1-2.82 6.588-5.938 6.837 1.223 2.808-6.173 5.234-12.47 2.848-4.534 4.292-16 3.566-20.546-1.359-4.547-4.925-6.84-15.586-5.61-17.965-3.927-1.573-8.073-4.468-8.33-10.579-.423-10.063 10.65-13.918 16.809-10.835 6.224 3.115 6.882 8.288 5.914 12.773 8.984 2.37 14.164 10.672 14.48 10.636z" id="path1027-7-2"/><path style="fill:#6d8ae2;fill-opacity:1;stroke:none;stroke-width:.999998px;stroke-linecap:butt;stroke-linejoin:miter;stroke-opacity:1" d="M78.543 105.757c9.353 2.347 14.754 11.396 15.071 11.403 1.08.022 16.54-1.87 18.487-.593 2.037 1.335-3.105 5.473-3.944 5.892 1.047 1.099-2.432 5.817-5.55 6.066 1.223 2.808-5.127 4.23-11.425 1.844-4.534 4.291-14.55 3.726-19.096-1.2-4.547-4.925-4.936-14.604-3.706-16.982-3.928-1.573-8.909-3.182-9.28-9.287-.46-7.588 7.791-12.453 13.868-9.21 6.077 3.243 5.884 7.095 5.575 12.067z" id="path1027-0"/><path style="fill:#354b8a;fill-opacity:1;stroke:none;stroke-width:.999998px;stroke-linecap:butt;stroke-linejoin:miter;stroke-opacity:1" d="M65.945 112.277c-6.629 3.95-9.586 12.582-9.383 15.93.752 12.459 12.775 16.752 10.937 8.613 2.11 1.805 4.6.383 4.252-2.859.689 1.418 3.806 2.407 2.762-7.285-.663-6.16-8.568-14.399-8.568-14.399z" id="path1075-3-2"/><path style="fill:#354b8a;fill-opacity:1;stroke:none;stroke-width:.999998px;stroke-linecap:butt;stroke-linejoin:miter;stroke-opacity:1" d="m109.255 123.108-10.017-.96 10.825-.105z" id="path1049-3"/><path style="fill:#354b8a;fill-opacity:1;stroke:none;stroke-width:.999998px;stroke-linecap:butt;stroke-linejoin:miter;stroke-opacity:1" d="M103.637 129.379c-.938-.313-7.365-2.418-7.365-2.418l8.852 1.651z" id="path1051-7"/><path style="fill:#6d8ae2;fill-opacity:1;stroke:none;stroke-width:.999998px;stroke-linecap:butt;stroke-linejoin:miter;stroke-opacity:1" d="M69.013 111.693c-6.777 3.087-11.365 12.847-10.394 17.841 1.823 9.38 8.235 12.14 7.473 4.883 2.243 1.479 5.257.66 3.988-3.761 1.937 2.314 4.195 3.806 3.988-5.919-.132-6.194-5.055-13.044-5.055-13.044z" id="path1075-5"/><path style="fill:#354b8a;fill-opacity:1;stroke:none;stroke-width:.999998px;stroke-linecap:butt;stroke-linejoin:miter;stroke-opacity:1" d="M66.94 136.773c-.418-2.261-4.014-7.46-3.71-7.241.856.616 4.402 6.46 4.402 6.46z" id="path1097-9"/><path style="fill:#354b8a;fill-opacity:1;stroke:none;stroke-width:.999998px;stroke-linecap:butt;stroke-linejoin:miter;stroke-opacity:1" d="M70.971 133.547c-.3-1.484-3.088-5.927-2.735-5.665.348.257 3.348 4.542 3.538 5.145z" id="path1099-2"/><ellipse style="display:inline;opacity:.999223;fill:#354b8a;fill-opacity:1;stroke:none;stroke-width:1.5;stroke-opacity:.996078" id="path913-7-2" cx="-116.47887" cy="-25.644257" rx="3.5558088" ry="4.1047363" transform="scale(-1 1) rotate(-67.736)"/><ellipse style="display:inline;opacity:.999223;fill:#ecebeb;fill-opacity:1;stroke:none;stroke-width:1.5003;stroke-opacity:.996078" id="path913-6-0-8" cx="-116.13255" cy="-23.338507" rx="3.1278281" ry="3.5754197" transform="matrix(-.39178 -.92006 -.9307 .36576 0 0)"/><path id="path935-9-9" style="display:inline;opacity:.999223;fill:url(#linearGradient1250);fill-opacity:1;stroke:none;stroke-width:1.5;stroke-opacity:.996078" d="M69.014 95.476c.49.858.48 1.887-.028 2.688-.775 1.222-2.447 1.55-3.735.733a2.84 2.84 0 0 1-1.244-1.708c.395-.78 1.11-1.41 1.987-1.755.997-.391 2.105-.376 3.02.042z"/><ellipse style="display:inline;opacity:.999223;fill:#2d2d2d;fill-opacity:1;stroke:none;stroke-width:1.5;stroke-opacity:.996078" id="path966-3-7" cx="-107.9879" cy="45.977882" rx="1.0869207" ry="1.2112049" transform="scale(-1 1) rotate(-32.361)"/><ellipse style="display:inline;opacity:.999223;fill:#fff;fill-opacity:1;stroke:none;stroke-width:1.5;stroke-opacity:.996078" id="path968-6-3" cx="-109.15474" cy="46.154087" rx="0.68915313" ry="0.67958885" transform="scale(-1 1) rotate(-32.361)"/><ellipse style="display:inline;opacity:.999223;fill:#000;fill-opacity:.149109;stroke:none;stroke-width:1;stroke-miterlimit:4;stroke-dasharray:none;stroke-opacity:.996078" id="path1535" cx="89.949615" cy="166.02148" rx="17.49608" ry="5.625102"/><ellipse style="display:inline;opacity:.999223;fill:#000;fill-opacity:.149109;stroke:none;stroke-width:.999999;stroke-miterlimit:4;stroke-dasharray:none;stroke-opacity:.996078" id="path1535-6" cx="39.958336" cy="165.91107" rx="22.832722" ry="7.7713366"/></g></svg>