<svg xmlns:dc="http://purl.org/dc/elements/1.1/" xmlns:cc="http://creativecommons.org/ns#" xmlns:rdf="http://www.w3.org/1999/02/22-rdf-syntax-ns#" xmlns="http://www.w3.org/2000/svg" xmlns:xlink="http://www.w3.org/1999/xlink" width="120" height="200" viewBox="0 0 120 200" version="1.1" id="svg8"><defs id="defs2"><linearGradient id="linearGradient962"><stop style="stop-color:#2d8fbe;stop-opacity:1" offset="0" id="stop958"/><stop style="stop-color:#85c5e2;stop-opacity:1" offset="1" id="stop960"/></linearGradient><linearGradient xlink:href="#linearGradient962" id="linearGradient964" x1="49.838158" y1="71.013588" x2="49.838158" y2="75.440346" gradientUnits="userSpaceOnUse" gradientTransform="translate(0 -8)"/><linearGradient xlink:href="#linearGradient962" id="linearGradient1009" gradientUnits="userSpaceOnUse" x1="49.838158" y1="71.013588" x2="49.838158" y2="75.440346" gradientTransform="matrix(-1 0 0 1 119.448 -8)"/></defs><metadata id="metadata5"><rdf:RDF><cc:Work><dc:format>image/svg+xml</dc:format><dc:type rdf:resource="http://purl.org/dc/dcmitype/StillImage"/><dc:title/><dc:date>2023</dc:date><dc:creator><cc:Agent><dc:title>Timothée Giet</dc:title></cc:Agent></dc:creator><cc:license rdf:resource="http://creativecommons.org/licenses/by-sa/4.0/"/></cc:Work><cc:License rdf:about="http://creativecommons.org/licenses/by-sa/4.0/"><cc:permits rdf:resource="http://creativecommons.org/ns#Reproduction"/><cc:permits rdf:resource="http://creativecommons.org/ns#Distribution"/><cc:requires rdf:resource="http://creativecommons.org/ns#Notice"/><cc:requires rdf:resource="http://creativecommons.org/ns#Attribution"/><cc:permits rdf:resource="http://creativecommons.org/ns#DerivativeWorks"/><cc:requires rdf:resource="http://creativecommons.org/ns#ShareAlike"/></cc:License></rdf:RDF></metadata><g id="layer1" style="display:inline"><ellipse style="display:inline;opacity:.999223;fill:#000;fill-opacity:.149109;stroke:none;stroke-width:.999993;stroke-miterlimit:4;stroke-dasharray:none;stroke-opacity:.996078" id="path1535" cx="60.000004" cy="175.73619" rx="53.730843" ry="15.530154"/><use x="0" y="0" xlink:href="#path1240-9" id="use1360" transform="matrix(-1 0 0 1 119.286 0)" width="100%" height="100%"/><path style="fill:#3b5361;fill-opacity:1;stroke:none;stroke-width:1px;stroke-linecap:butt;stroke-linejoin:miter;stroke-opacity:1" d="M31.686 134.456c-10.13 7.56-15.152 30.407-11.655 38.87 2.913 7.046 23.156 4.779 25.077-.464.998-2.726-4.317-11.308 4.088-21.611 7.134-8.744-14.94-19.386-17.51-16.795z" id="path1240-9"/><path style="fill:#3b5361;fill-opacity:1;stroke:none;stroke-width:1px;stroke-linecap:butt;stroke-linejoin:miter;stroke-opacity:1" d="M10.434 118.312c-4.603 1.654-3.416 8.937-.188 8.414 3.228-.523 7.018-8.778.188-8.414z" id="path1170-2-6-8"/><path style="fill:#c8d6dc;fill-opacity:1;stroke:none;stroke-width:1px;stroke-linecap:butt;stroke-linejoin:miter;stroke-opacity:1" d="M10.404 119.47c-3.103 1.116-2.286 6.074-.109 5.725 2.177-.35 4.719-5.958.11-5.724z" id="path1170-1-7"/><path style="fill:#3b5361;fill-opacity:1;stroke:none;stroke-width:1px;stroke-linecap:butt;stroke-linejoin:miter;stroke-opacity:1" d="M39.68 84.05c-10.723 11.558-17.755 39.51-9.228 56.214 9.529 18.667 46.938 20.395 57.504 1.402 11.412-20.514.937-48.428-9.637-56.906-10.574-8.478-35.94-5.218-38.64-.71z" id="path1124-0"/><path style="fill:#92b6ca;fill-opacity:1;stroke:none;stroke-width:1px;stroke-linecap:butt;stroke-linejoin:miter;stroke-opacity:1" d="M41.105 83.833c-9.963 11.01-16.496 37.634-8.574 53.544 8.853 17.78 43.61 19.426 53.427 1.336 10.604-19.54.871-46.128-8.953-54.203-9.825-8.076-33.393-4.97-35.9-.677z" id="path1124"/><path style="fill:#3b5361;fill-opacity:1;stroke:none;stroke-width:1px;stroke-linecap:butt;stroke-linejoin:miter;stroke-opacity:1" d="M39.05 84.055C22.06 86.837 14.012 95.23 12.288 97.55c-1.725 2.318-9.758 15.779-6.812 21.494 3.07 5.954 10.234 8.448 13.916 5.745 3.682-2.704 6.58-9.136 8.84-11.9 2.45-2.996 5.753-6.065 6.995-8.096 1.573-2.573 2.229-15.184 3.823-20.738z" id="path1146-6"/><use x="0" y="0" xlink:href="#path1170-2-6-8" id="use1362" transform="matrix(-1 0 0 1 119.286 0)" width="100%" height="100%"/><use x="0" y="0" xlink:href="#path1170-1-7" id="use1364" transform="matrix(-1 0 0 1 119.286 0)" width="100%" height="100%"/><use x="0" y="0" xlink:href="#path1146-6" id="use1366" transform="matrix(-1 0 0 1 119.286 0)" width="100%" height="100%"/><use x="0" y="0" xlink:href="#path1146" id="use1380" transform="matrix(-1 0 0 1 119.286 0)" width="100%" height="100%"/><use x="0" y="0" xlink:href="#path889-6" id="use1368" transform="matrix(-1 0 0 1 119.286 0)" width="100%" height="100%"/><use x="0" y="0" xlink:href="#path889" id="use1370" transform="matrix(-1 0 0 1 119.286 0)" width="100%" height="100%"/><use x="0" y="0" xlink:href="#path911" id="use1372" transform="matrix(-1 0 0 1 119.286 0)" width="100%" height="100%"/><path style="fill:#3b5361;fill-opacity:1;stroke:none;stroke-width:1px;stroke-linecap:butt;stroke-linejoin:miter;stroke-opacity:1" d="M48.499 43.188c-4.707-3.7-16.905-14.793-22.204-15.398-5.298-.605-12.066 5.393-14.752 11.475-3.915 8.864-7.19 29.921 7.796 39.901 14.985 9.979 21.112 6.625 23.233 5.64 2.12-.986 5.927-40.042 5.927-41.618z" id="path889-6"/><path style="fill:#92b6ca;fill-opacity:1;stroke:none;stroke-width:1px;stroke-linecap:butt;stroke-linejoin:miter;stroke-opacity:1" d="M47.197 44.813c-4.707-3.7-14.966-13.095-20.264-13.7-5.298-.605-11.127 5.189-13.246 10.317-1.714 4.146-7.658 25.239 7.4 35.333 14.955 10.024 19.277 7.133 21.398 6.147 2.12-.986 4.712-36.52 4.712-38.097z" id="path889"/><path style="fill:#92b6ca;fill-opacity:1;stroke:none;stroke-width:1px;stroke-linecap:butt;stroke-linejoin:miter;stroke-opacity:1" d="M39.848 85.348C22.858 88.13 15.53 96.656 13.806 98.975c-1.724 2.318-10.103 14.407-6.225 19.537 3.877 5.13 7.939 6.901 11.621 4.197 3.682-2.703 5.32-8.98 7.988-11.352s5.45-5.647 7.81-5.974c2.358-.327 7.212-18.244 4.848-20.035z" id="path1146"/><path style="fill:#b8d0de;fill-opacity:1;stroke:none;stroke-width:1px;stroke-linecap:butt;stroke-linejoin:miter;stroke-opacity:1" d="M42.17 48.088c-6.871-6.766-14.279-11.982-19.294-8.53-6.81 4.687-8.56 21.06-1.741 29.291 5.705 6.887 10.406 7.81 16.203 9.382-3.156-9.727-1.095-23.676 4.832-30.143z" id="path911"/><path style="fill:#3b5361;fill-opacity:1;stroke:none;stroke-width:1px;stroke-linecap:butt;stroke-linejoin:miter;stroke-opacity:1" d="M18.023 112.147c-4.89.093-6.097 7.374-2.871 7.912 3.225.537 9.459-6.07 2.871-7.912z" id="path1170-2"/><path style="fill:#3b5361;fill-opacity:1;stroke:none;stroke-width:1px;stroke-linecap:butt;stroke-linejoin:miter;stroke-opacity:1" d="M71.998 42.567c5.952 5.27 11.466 15.829 11.621 26.027.136 8.967-3.497 29.577-23.117 29.577s-25.335-17.75-25.006-30.125c.329-12.376 6.672-21.244 11.108-25.368 3.087-2.87 21.564-2.883 25.394-.111z" id="path863-3"/><path style="fill:#c8d6dc;fill-opacity:1;stroke:none;stroke-width:1px;stroke-linecap:butt;stroke-linejoin:miter;stroke-opacity:1" d="M17.625 113.236c-3.298.063-4.111 5.022-1.936 5.388 2.174.366 6.377-4.134 1.936-5.388z" id="path1170"/><path style="fill:#92b6ca;fill-opacity:1;stroke:none;stroke-width:1px;stroke-linecap:butt;stroke-linejoin:miter;stroke-opacity:1" d="M71.255 44.464c5.596 4.88 10.782 14.658 10.927 24.101.128 8.303-3.395 25.404-21.844 25.404-18.45 0-23.715-14.452-23.406-25.912.31-11.46 6.274-19.671 10.445-23.49 2.903-2.658 20.277-2.67 23.878-.103z" id="path863"/><path style="fill:#3b5361;fill-opacity:1;stroke:none;stroke-width:1px;stroke-linecap:butt;stroke-linejoin:miter;stroke-opacity:1" d="M7.037 111.983c-4.579 1.721-3.284 8.987-.064 8.416 3.22-.57 6.888-8.88.064-8.416z" id="path1170-2-6"/><ellipse style="opacity:.999223;fill:#3b5361;fill-opacity:1;stroke:none;stroke-width:1.5;stroke-opacity:.996078" id="path913-7" cx="21.337631" cy="76.748123" rx="5.3326082" ry="6.3697619" transform="matrix(.92685 -.37543 .3788 .92548 0 0)"/><path style="fill:#c8d6dc;fill-opacity:1;stroke:none;stroke-width:1px;stroke-linecap:butt;stroke-linejoin:miter;stroke-opacity:1" d="M7.024 113.142c-3.086 1.161-2.197 6.107-.025 5.725 2.172-.381 4.63-6.026.025-5.725z" id="path1170-1"/><ellipse style="opacity:.999223;fill:#ebebeb;fill-opacity:1;stroke:none;stroke-width:1.5;stroke-opacity:.996078" id="path913" cx="21.80237" cy="77.656784" rx="4.7261691" ry="5.6664476" transform="rotate(-22.155)"/><path style="fill:#92b6ca;fill-opacity:1;stroke:none;stroke-width:1px;stroke-linecap:butt;stroke-linejoin:miter;stroke-opacity:1" d="M33.99 136.443c-10.13 7.56-15.301 28.115-11.686 34.828 2.991 5.556 19.266 2.719 20.217.361 1.085-2.693-3.146-12.572 5.26-22.875 7.134-8.744-11.22-14.906-13.79-12.314z" id="path1240"/><path style="fill:#3b5361;fill-opacity:1;stroke:none;stroke-width:1px;stroke-linecap:butt;stroke-linejoin:miter;stroke-opacity:1" d="M37.085 170.132c-3.851.443-4.038 7.628-1.603 7.653 2.435.024 6.835-1.012 6.928-2.411.17-2.58-2.325-5.587-5.325-5.242z" id="path1264-2"/><path style="fill:#c8d6dc;fill-opacity:1;stroke:none;stroke-width:1px;stroke-linecap:butt;stroke-linejoin:miter;stroke-opacity:1" d="M37.255 171.582c-2.919.3-2.952 5.014-.517 5.039 2.434.024 4.756-.588 4.49-1.965-.266-1.376-1.516-3.327-3.973-3.074z" id="path1264"/><path style="fill:#3b5361;fill-opacity:1;stroke:none;stroke-width:1px;stroke-linecap:butt;stroke-linejoin:miter;stroke-opacity:1" d="M28.502 170.512c-3.826-.622-5.92 6-3.585 6.687 2.337.686 6.853.887 7.323-.433.867-2.436-.757-5.769-3.738-6.254z" id="path1264-2-0"/><path style="fill:#c8d6dc;fill-opacity:1;stroke:none;stroke-width:1px;stroke-linecap:butt;stroke-linejoin:miter;stroke-opacity:1" d="M28.313 171.713c-2.89-.507-4.207 4.021-1.87 4.708 2.336.686 4.736.729 4.855-.668.119-1.396-.553-3.614-2.985-4.04z" id="path1264-23"/><path style="fill:#3b5361;fill-opacity:1;stroke:none;stroke-width:1px;stroke-linecap:butt;stroke-linejoin:miter;stroke-opacity:1" d="M20.636 167.43c3.876.073 3.558 7.164 1.684 7.457-2.406.376-4.551-1.15-4.872-2.514-.559-2.374 1.332-4.979 3.188-4.944z" id="path1264-2-9"/><path style="fill:#c8d6dc;fill-opacity:1;stroke:none;stroke-width:1px;stroke-linecap:butt;stroke-linejoin:miter;stroke-opacity:1" d="M20.303 168.754c2.644-.52 2.966 5.641.816 5.157-1.383-.312-2.904-1.381-2.638-2.758.265-1.376.409-2.12 1.822-2.399z" id="path1264-22"/><ellipse style="opacity:.999223;fill:#5f859b;fill-opacity:1;stroke:none;stroke-width:1.5;stroke-opacity:1" id="path1358" cx="59.195255" cy="132.84027" rx="2.1122711" ry="1.949824"/><path id="path935" style="opacity:.999223;fill:url(#linearGradient964);fill-opacity:1;stroke:none;stroke-width:1.5;stroke-opacity:.996078" d="M50.645 58.533a4.51 4.317 0 0 0-3.74 4.254 4.51 4.317 0 0 0 4.51 4.317 4.51 4.317 0 0 0 2.618-.805 5.666 4.726 67.845 0 0-.178-4.38 5.666 4.726 67.845 0 0-3.21-3.386z"/><use x="0" y="0" xlink:href="#path1170-2" id="use1382" transform="matrix(-1 0 0 1 119.286 0)" width="100%" height="100%"/><ellipse style="opacity:.999223;fill:#2c2c2c;fill-opacity:1;stroke:none;stroke-width:1.5;stroke-opacity:.996078" id="path966" cx="51.206791" cy="62.836266" rx="2.0200777" ry="1.9327427"/><use x="0" y="0" xlink:href="#path1170" id="use1384" transform="matrix(-1 0 0 1 119.286 0)" width="100%" height="100%"/><ellipse style="opacity:.999223;fill:#fff;fill-opacity:1;stroke:none;stroke-width:1.5;stroke-opacity:.996078" id="path968" cx="49.133713" cy="63.10701" rx="0.92584181" ry="0.92511839"/><use x="0" y="0" xlink:href="#path1170-2-6" id="use1386" transform="matrix(-1 0 0 1 119.286 0)" width="100%" height="100%"/><ellipse style="opacity:.999223;fill:#3b5361;fill-opacity:1;stroke:none;stroke-width:1.5;stroke-opacity:.996078" id="path913-7-6" cx="-89.209465" cy="31.90394" rx="5.3326082" ry="6.3697619" transform="matrix(-.92685 -.37543 -.3788 .92548 0 0)"/><use x="0" y="0" xlink:href="#path1170-1" id="use1388" transform="matrix(-1 0 0 1 119.286 0)" width="100%" height="100%"/><ellipse style="opacity:.999223;fill:#ebebeb;fill-opacity:1;stroke:none;stroke-width:1.5;stroke-opacity:.996078" id="path913-2" cx="-88.826248" cy="32.612041" rx="4.7261691" ry="5.6664476" transform="scale(-1 1) rotate(-22.155)"/><path id="path935-9" style="opacity:.999223;fill:url(#linearGradient1009);fill-opacity:1;stroke:none;stroke-width:1.5;stroke-opacity:.996078" d="M68.803 58.533a4.51 4.317 0 0 1 3.74 4.254 4.51 4.317 0 0 1-4.51 4.317 4.51 4.317 0 0 1-2.619-.805 4.726 5.666 22.155 0 1 .178-4.38 4.726 5.666 22.155 0 1 3.211-3.386z"/><ellipse style="opacity:.999223;fill:#2c2c2c;fill-opacity:1;stroke:none;stroke-width:1.5;stroke-opacity:.996078" id="path966-1" cx="-68.240784" cy="62.836266" rx="2.0200777" ry="1.9327427" transform="scale(-1 1)"/><path style="fill:#3b5361;fill-opacity:1;stroke:none;stroke-width:1px;stroke-linecap:butt;stroke-linejoin:miter;stroke-opacity:1" d="M43.813 84.03c.377 4.69-1.268 12.591-1.81 14.405-.542 1.813 3.332 6.871 6.745-4.374 3.193-10.523-4.68-11.64-4.935-10.03z" id="path1082-3"/><path style="fill:#cad8de;fill-opacity:1;stroke:none;stroke-width:1px;stroke-linecap:butt;stroke-linejoin:miter;stroke-opacity:1" d="M44.697 83.512c.377 4.69-.82 12.573-1.363 14.386-.543 1.813 1.734 4.373 4.798-7.238 2.806-10.633-3.18-8.756-3.435-7.148z" id="path1082"/><path style="fill:#3b5361;fill-opacity:1;stroke:none;stroke-width:1px;stroke-linecap:butt;stroke-linejoin:miter;stroke-opacity:1" d="M44.265 75.218c-.552 4.607-.784 6.372-.117 7.704 1.448-1.886 3.775-1.147 4.94.095.04 1.118.126.356-.091 1.524-1.104-1.532-3.21-3.111-4.93-.095-2.181-.914-1.723-4.338.198-9.228z" id="path1080"/><ellipse style="opacity:.999223;fill:#fff;fill-opacity:1;stroke:none;stroke-width:1.5;stroke-opacity:.996078" id="path968-6" cx="66.746315" cy="63.10701" rx="0.92584181" ry="0.92511839"/><use x="0" y="0" xlink:href="#path1082-3" id="use1374" transform="matrix(-1 0 0 1 119.286 0)" width="100%" height="100%"/><use x="0" y="0" xlink:href="#path1082" id="use1376" transform="matrix(-1 0 0 1 119.286 0)" width="100%" height="100%"/><use x="0" y="0" xlink:href="#path1080" id="use1378" transform="matrix(-1 0 0 1 119.286 0)" width="100%" height="100%"/><path style="fill:#3b5361;fill-opacity:1;stroke:none;stroke-width:1px;stroke-linecap:butt;stroke-linejoin:miter;stroke-opacity:1" d="M49.462 79.053c-1.837 7.739-.001 22.048.205 24.268.206 2.22-.158 10.565 2.033 14.315 2.974 5.089 8.991 6.338 10.845 7.937 3.247 2.801 1.673 6.966 4.92 9.119 1.918 1.271 9.52-5.605 6.498-14.71-2.432-7.324-6.403-9.048-5.66-11.896 2.118-8.111 4.051-19.752 1.74-29.036-1.467-5.893-19.826-3.919-20.581.003z" id="path1016-7"/><path style="fill:#92b6ca;fill-opacity:1;stroke:none;stroke-width:1px;stroke-linecap:butt;stroke-linejoin:miter;stroke-opacity:1" d="M49.462 79.053c.622 13.971 1.842 22.022 2.048 24.243.206 2.22-.282 8.497 1.91 12.247 2.973 5.09 8.746 7.514 10.6 9.112 3.247 2.802 1.976 6.833 4.046 7.713 1.309.557 7.164-5.956 3.92-12.96-3.242-7.003-6.28-8.596-5.537-11.444 2.118-8.111 4.686-20.5 3.594-28.914-1.093-8.419-19.323-6.352-20.581.003z" id="path1016"/><path style="fill:#3b5361;fill-opacity:1;stroke:none;stroke-width:1px;stroke-linecap:butt;stroke-linejoin:miter;stroke-opacity:1" d="M51.917 76.641c4.301-2.305 11.31-2.566 15.451.09-3.352-4.519-12.61-4.01-15.45-.09z" id="path1038"/><path style="fill:#3b5361;fill-opacity:1;stroke:none;stroke-width:1px;stroke-linecap:butt;stroke-linejoin:miter;stroke-opacity:1" d="M54.04 81.915c3.764-1.761 8.11-2.369 12.452.234-3.065-3.965-9.674-3.588-12.452-.234z" id="path1038-0"/><path style="fill:#3b5361;fill-opacity:1;stroke:none;stroke-width:1px;stroke-linecap:butt;stroke-linejoin:miter;stroke-opacity:1" d="M55.665 86.293c3.284-1.378 5.783-1.544 8.824.258-2.244-3.148-6.614-2.926-8.824-.258z" id="path1038-0-9"/><use x="0" y="0" xlink:href="#path1240" id="use1390" transform="matrix(-1 0 0 1 119.286 0)" width="100%" height="100%"/><use x="0" y="0" xlink:href="#path1264-2" id="use1392" transform="matrix(-1 0 0 1 119.286 0)" width="100%" height="100%"/><use x="0" y="0" xlink:href="#path1264" id="use1394" transform="matrix(-1 0 0 1 119.286 0)" width="100%" height="100%"/><use x="0" y="0" xlink:href="#path1264-2-0" id="use1396" transform="matrix(-1 0 0 1 119.286 0)" width="100%" height="100%"/><use x="0" y="0" xlink:href="#path1264-23" id="use1398" transform="matrix(-1 0 0 1 119.286 0)" width="100%" height="100%"/><use x="0" y="0" xlink:href="#path1264-2-9" id="use1400" transform="matrix(-1 0 0 1 119.286 0)" width="100%" height="100%"/><use x="0" y="0" xlink:href="#path1264-22" id="use1402" transform="matrix(-1 0 0 1 119.286 0)" width="100%" height="100%"/></g></svg>