<?xml version="1.0" encoding="UTF-8" standalone="no"?>
<!-- Created with Inkscape (http://www.inkscape.org/) -->

<svg
   xmlns:dc="http://purl.org/dc/elements/1.1/"
   xmlns:cc="http://creativecommons.org/ns#"
   xmlns:rdf="http://www.w3.org/1999/02/22-rdf-syntax-ns#"
   xmlns:svg="http://www.w3.org/2000/svg"
   xmlns="http://www.w3.org/2000/svg"
   xmlns:sodipodi="http://sodipodi.sourceforge.net/DTD/sodipodi-0.dtd"
   xmlns:inkscape="http://www.inkscape.org/namespaces/inkscape"
   width="120"
   height="200"
   id="svg5114"
   sodipodi:version="0.32"
   inkscape:version="0.91 r13725"
   sodipodi:docname="16_elephant.svg"
   version="1.0">
  <defs
     id="defs5116" />
  <sodipodi:namedview
     id="base"
     pagecolor="#ffffff"
     bordercolor="#666666"
     borderopacity="1.0"
     inkscape:pageopacity="0.0"
     inkscape:pageshadow="2"
     inkscape:zoom="2.2654545"
     inkscape:cx="111.42857"
     inkscape:cy="56.368399"
     inkscape:document-units="px"
     inkscape:current-layer="layer1"
     inkscape:window-width="924"
     inkscape:window-height="910"
     inkscape:window-x="6"
     inkscape:window-y="-16"
     height="200px"
     width="120px" />
  <metadata
     id="metadata5119">
    <rdf:RDF>
      <cc:Work
         rdf:about="">
        <dc:format>image/svg+xml</dc:format>
        <dc:type
           rdf:resource="http://purl.org/dc/dcmitype/StillImage" />
      </cc:Work>
    </rdf:RDF>
  </metadata>
  <g
     inkscape:label="Calque 1"
     inkscape:groupmode="layer"
     id="layer1">
    <g
       id="g5856"
       transform="matrix(0,-0.616504,-0.616504,0,437.4221,312.8424)">
      <path
         inkscape:transform-center-y="0.012142605"
         inkscape:transform-center-x="-0.5988659"
         style="fill:#a5b1c2;fill-opacity:1;fill-rule:evenodd;stroke:none;stroke-width:2.30175185;stroke-linecap:butt;stroke-linejoin:miter;stroke-miterlimit:4;stroke-dasharray:none;stroke-opacity:1"
         d="M 364.0415,527.86236 C 362.23843,542.1494 337.2103,533.40792 342.00188,523.84732"
         id="path5858"
         sodipodi:nodetypes="cc" />
      <g
         style="fill:#a5b1c2;fill-opacity:1"
         transform="matrix(0.450212,4.142173e-2,-8.803189e-2,0.727396,46.54434,293.1917)"
         id="g5860">
        <path
           style="fill:#a5b1c2;fill-opacity:1;fill-rule:evenodd;stroke:black;stroke-width:4;stroke-linecap:butt;stroke-linejoin:miter;stroke-miterlimit:4;stroke-dasharray:none;stroke-opacity:1"
           d="M 725.84798,281.26099 C 724.98414,268.26051 703.51481,272.75163 708.37247,280.93527"
           id="path5862"
           sodipodi:nodetypes="cc"
           inkscape:transform-center-x="3.4697407"
           inkscape:transform-center-y="-1.4778979" />
        <path
           style="fill:#a5b1c2;fill-opacity:1;fill-rule:evenodd;stroke:black;stroke-width:4;stroke-linecap:butt;stroke-linejoin:miter;stroke-miterlimit:4;stroke-dasharray:none;stroke-opacity:1"
           d="M 742.72452,284.2842 C 745.54619,271.56425 727.66742,267.3138 726.08859,282.6846"
           id="path5864"
           sodipodi:nodetypes="cc"
           inkscape:transform-center-x="3.9451526"
           inkscape:transform-center-y="-2.595119" />
        <path
           style="fill:#a5b1c2;fill-opacity:1;fill-rule:evenodd;stroke:black;stroke-width:4;stroke-linecap:butt;stroke-linejoin:miter;stroke-miterlimit:4;stroke-dasharray:none;stroke-opacity:1"
           d="M 759.64217,286.76371 C 765.13152,274.9408 747.11158,272.97488 742.1682,283.77511"
           id="path5866"
           sodipodi:nodetypes="cc"
           inkscape:transform-center-x="3.9052362"
           inkscape:transform-center-y="-2.6254546" />
      </g>
    </g>
    <g
       id="g5844"
       transform="matrix(0,-0.616504,0.616504,0,-317.2423,309.292)">
      <path
         inkscape:transform-center-y="0.012142605"
         inkscape:transform-center-x="-0.5988659"
         style="fill:#a5b1c2;fill-opacity:1;fill-rule:evenodd;stroke:none;stroke-width:2.30175185;stroke-linecap:butt;stroke-linejoin:miter;stroke-miterlimit:4;stroke-dasharray:none;stroke-opacity:1"
         d="M 364.0415,527.86236 C 362.23843,542.1494 337.2103,533.40792 342.00188,523.84732"
         id="path5846"
         sodipodi:nodetypes="cc" />
      <g
         style="fill:#a5b1c2;fill-opacity:1"
         transform="matrix(0.450212,4.142173e-2,-8.803189e-2,0.727396,46.54434,293.1917)"
         id="g5848">
        <path
           style="fill:#a5b1c2;fill-opacity:1;fill-rule:evenodd;stroke:black;stroke-width:4;stroke-linecap:butt;stroke-linejoin:miter;stroke-miterlimit:4;stroke-dasharray:none;stroke-opacity:1"
           d="M 725.84798,281.26099 C 724.98414,268.26051 703.06001,273.89822 707.91767,282.08186"
           id="path5850"
           sodipodi:nodetypes="cc"
           inkscape:transform-center-x="3.4697407"
           inkscape:transform-center-y="-1.4778979" />
        <path
           style="fill:#a5b1c2;fill-opacity:1;fill-rule:evenodd;stroke:black;stroke-width:4;stroke-linecap:butt;stroke-linejoin:miter;stroke-miterlimit:4;stroke-dasharray:none;stroke-opacity:1"
           d="M 742.72452,284.2842 C 745.54619,271.56425 727.66742,267.3138 726.08859,282.6846"
           id="path5852"
           sodipodi:nodetypes="cc"
           inkscape:transform-center-x="3.9451526"
           inkscape:transform-center-y="-2.595119" />
        <path
           style="fill:#a5b1c2;fill-opacity:1;fill-rule:evenodd;stroke:black;stroke-width:4;stroke-linecap:butt;stroke-linejoin:miter;stroke-miterlimit:4;stroke-dasharray:none;stroke-opacity:1"
           d="M 759.64217,286.76371 C 765.13152,274.9408 747.11158,272.97488 742.1682,283.77511"
           id="path5854"
           sodipodi:nodetypes="cc"
           inkscape:transform-center-x="3.9052362"
           inkscape:transform-center-y="-2.6254546" />
      </g>
    </g>
    <path
       style="fill:none;fill-opacity:1;fill-rule:evenodd;stroke:black;stroke-width:1.84951413;stroke-linecap:butt;stroke-linejoin:miter;stroke-miterlimit:4;stroke-dasharray:none;stroke-opacity:1"
       d="M 75.388622,55.019305 C 75.388622,55.019305 92.970528,36.99986 102.21811,41.940652 C 111.46568,46.881505 109.87456,56.376849 108.81182,68.097959 C 107.74908,79.819132 89.339172,91.910268 87.885998,92.210877 C 86.432814,92.511423 80.640441,97.742897 80.640441,97.742897 L 75.388622,55.019305 z "
       id="path5018"
       sodipodi:nodetypes="cssscc" />
    <path
       style="fill:none;fill-opacity:1;fill-rule:evenodd;stroke:black;stroke-width:1.84951413;stroke-linecap:butt;stroke-linejoin:miter;stroke-miterlimit:4;stroke-dasharray:none;stroke-opacity:1"
       d="M 46.808929,53.856761 C 46.808929,53.856761 29.22702,35.837316 19.979449,40.778108 C 10.731878,45.718961 12.322992,55.214307 13.385734,66.935417 C 14.448472,78.656589 32.858376,90.747725 34.311558,91.048333 C 35.76474,91.348881 41.557115,96.580354 41.557115,96.580354 L 46.808929,53.856761 z "
       id="path5016"
       sodipodi:nodetypes="cssscc" />
    <path
       style="fill:#7a8ca5;fill-opacity:1;fill-rule:evenodd;stroke:black;stroke-width:1.84951413;stroke-linecap:butt;stroke-linejoin:miter;stroke-miterlimit:4;stroke-dasharray:none;stroke-opacity:1"
       d="M 74.201644,55.171767 C 74.201644,55.171767 91.783549,37.15232 101.03113,42.093113 C 110.2787,47.033967 108.68758,56.52931 107.62483,68.250421 C 106.56211,79.971594 88.152194,92.062731 86.699011,92.363338 C 85.245836,92.663884 79.453454,97.895358 79.453454,97.895358 L 74.201644,55.171767 z "
       id="path5008"
       sodipodi:nodetypes="cssscc" />
    <path
       style="opacity:1;fill:black;fill-opacity:0.24782608;fill-rule:evenodd;stroke:none;stroke-width:5;stroke-linecap:round;stroke-linejoin:round;stroke-miterlimit:4;stroke-opacity:1"
       d="M 26.565904,183.97213 C 6.7029646,176.97134 -5.8936618,145.64427 39.652887,133.61892 C 85.170868,121.60109 115.33927,166.66641 98.648303,178.80304 C 82.820713,190.31182 45.18593,190.53481 26.565904,183.97213 z "
       id="path4924"
       sodipodi:nodetypes="czzz" />
    <path
       style="fill:#7a8ca5;fill-opacity:1;fill-rule:evenodd;stroke:black;stroke-width:1.84951413;stroke-linecap:butt;stroke-linejoin:miter;stroke-miterlimit:4;stroke-dasharray:none;stroke-opacity:1"
       d="M 47.703464,55.019305 C 47.703464,55.019305 30.121556,36.99986 20.873986,41.940652 C 11.626414,46.881505 13.217527,56.376849 14.28027,68.097959 C 15.343007,79.819132 33.752911,91.910268 35.206094,92.210877 C 36.659276,92.511423 42.451651,97.742897 42.451651,97.742897 L 47.703464,55.019305 z "
       id="path5010"
       sodipodi:nodetypes="cssscc" />
    <g
       transform="matrix(0.616504,0,0,0.616504,-238.4533,25.36742)"
       id="g4926"
       style="fill:#7a8ca5;fill-opacity:1;stroke:none;stroke-opacity:1">
      <path
         style="fill:#7a8ca5;fill-opacity:1;fill-rule:evenodd;stroke-width:5;stroke-linecap:round;stroke-linejoin:round;stroke-miterlimit:4"
         d="M 449.28822,211.32142 C 427.23178,195.94918 413.24408,127.16155 463.82042,100.75634 C 514.36504,74.367685 547.86499,173.32171 529.33081,199.97117 C 511.75535,225.24212 469.96449,225.73175 449.28822,211.32142 z "
         id="path4928"
         sodipodi:nodetypes="czzz" />
      <path
         id="path4930"
         d="M 448.25693,112.36218 C 441.16511,119.55046 436.47751,127.96513 433.60068,136.83093 L 524.63193,133.61218 C 523.13839,130.35001 521.50312,127.20073 519.72568,124.17468 L 448.25693,112.36218 z M 430.63193,150.08093 C 429.10003,162.22237 430.4465,174.44199 433.66318,184.92468 L 534.60068,168.73718 C 534.36,166.54643 533.938,164.30801 533.53818,162.04968 L 430.63193,150.08093 z M 437.44443,194.64343 C 440.87442,201.90367 445.18527,207.72332 449.91318,211.01843 C 468.10623,223.69808 502.62463,224.82967 522.63193,207.70593 L 437.44443,194.64343 z "
         style="fill:#7a8ca5;fill-opacity:1;fill-rule:evenodd;stroke-width:5;stroke-linecap:round;stroke-linejoin:round;stroke-miterlimit:4" />
      <path
         style="fill:#7a8ca5;fill-opacity:1;fill-rule:evenodd;stroke-width:5;stroke-linecap:round;stroke-linejoin:round;stroke-miterlimit:4"
         d="M 450.28822,212.32142 C 428.23178,196.94918 414.24408,128.16155 464.82042,101.75634 C 515.36504,75.367689 543.49247,171.63545 530.33081,200.97117 C 517.09308,230.47645 470.96449,226.73175 450.28822,212.32142 z "
         id="path4932"
         sodipodi:nodetypes="czzz" />
    </g>
    <path
       style="fill:black;fill-opacity:1;fill-rule:evenodd;stroke:black;stroke-width:3.08252335;stroke-linecap:round;stroke-linejoin:round;stroke-miterlimit:4;stroke-opacity:1"
       d="M 59.359385,137.40956 C 60.820833,142.5983 58.113854,138.81168 58.113854,138.81168"
       id="path4940"
       sodipodi:nodetypes="cc" />
    <g
       id="g4942"
       transform="matrix(-0.440436,-7.303732e-3,2.701937e-2,-0.161792,82.17504,185.8405)"
       style="fill:#4c4c4d;fill-opacity:0.13478262;stroke:none;stroke-opacity:1">
      <path
         style="fill:#4c4c4d;fill-opacity:0.13478262;fill-rule:evenodd;stroke-width:3;stroke-linecap:round;stroke-linejoin:round;stroke-miterlimit:4"
         d="M 56.010381,153.35933 C 6.4583907,143.7781 -12.420233,260.30393 6.8751175,279.74853 C 42.406931,221.33991 65.82989,182.02688 131.05952,287.07617 C 151.33442,265.74965 127.86238,166.55648 56.010381,153.35933 z "
         id="path4944"
         sodipodi:nodetypes="cccc" />
    </g>
    <path
       style="fill:white;fill-opacity:0.07333332;fill-rule:evenodd;stroke:none;stroke-width:3;stroke-linecap:round;stroke-linejoin:round;stroke-miterlimit:4;stroke-opacity:1"
       d="M 32.233012,95.392781 C 41.949164,98.794222 40.78916,100.3337 43.346896,94.785954 C 37.848538,89.008011 25.63381,91.030886 22.077656,95.017082 C 23.144412,98.817587 19.603783,98.134254 32.233012,95.392781 z "
       id="path4946"
       sodipodi:nodetypes="cccc" />
    <g
       id="g4948"
       transform="matrix(0.616504,0,0,0.616504,20.07532,-3.813796)">
      <path
         style="fill:none;fill-opacity:0.75;fill-rule:evenodd;stroke:black;stroke-width:3;stroke-linecap:round;stroke-linejoin:round;stroke-miterlimit:4;stroke-opacity:1"
         d="M 43.912178,150.09499 C 0.41278786,170.72439 5.4904579,232.82202 24.785808,252.26662 C 40.901478,276.65986 100.85496,273.80256 111.04659,246.06431 C 125.05355,196.53205 93.540858,120.47483 43.912178,150.09499 z "
         id="path4950"
         sodipodi:nodetypes="cccc" />
      <path
         style="fill:none;fill-opacity:0.75;fill-rule:evenodd;stroke:black;stroke-width:3;stroke-linecap:round;stroke-linejoin:round;stroke-miterlimit:4;stroke-opacity:1"
         d="M 45.779162,151.09499 C 2.2797715,171.72439 7.3574415,233.82202 26.652792,253.26662 C 42.768462,277.65986 98.244838,274.80256 108.43647,247.06431 C 130.05451,212.30648 95.407842,121.47483 45.779162,151.09499 z "
         id="path4952"
         sodipodi:nodetypes="cccc" />
    </g>
    <path
       id="path4954"
       style="fill:#7a8ca5;fill-opacity:1;fill-rule:nonzero;stroke:black;stroke-width:1.84951413;stroke-linecap:butt;stroke-linejoin:miter;stroke-miterlimit:4;stroke-opacity:1"
       d="M 42.575279,94.961658 C 36.076481,93.748377 24.94841,88.186457 21.070528,88.718439 C 21.070528,88.718439 12.65612,91.940663 17.940743,104.24901 C 21.85119,107.02012 21.562714,106.96334 27.079766,107.87818 M 42.014962,95.090015 C 35.50648,94.08499 26.159195,89.019662 20.833248,89.001846 C 20.833248,89.001846 14.160348,95.21122 17.320384,103.9683 C 21.28665,107.50532 25.799624,107.2605 32.237845,109.01766"
       sodipodi:nodetypes="cccccccc" />
    <path
       id="path4956"
       style="fill:#7a8ca5;fill-opacity:1;fill-rule:nonzero;stroke:black;stroke-width:1.84951413;stroke-linecap:butt;stroke-linejoin:miter;stroke-miterlimit:4;stroke-opacity:1"
       d="M 87.165324,147.42129 C 93.465839,152.20462 93.276806,157.56562 93.90535,161.42902 C 93.90535,161.42902 93.021002,170.77732 79.704123,169.33427 C 75.908142,166.40828 75.016557,164.13713 72.524136,159.13087 M 87.290793,147.48361 C 93.282997,152.45918 91.798506,156.44852 93.377262,161.53518 C 93.377262,161.53518 89.823919,169.39739 80.525166,168.94414 C 75.980628,166.18942 76.112002,165.58493 72.544229,159.94503"
       sodipodi:nodetypes="cccccccc"
       inkscape:transform-center-y="3.476145"
       inkscape:transform-center-x="-2.1518989" />
    <path
       id="path4958"
       style="fill:#7a8ca5;fill-opacity:1;fill-rule:nonzero;stroke:black;stroke-width:1.84951413;stroke-linecap:butt;stroke-linejoin:miter;stroke-miterlimit:4;stroke-opacity:1"
       d="M 29.743343,141.124 C 23.442832,145.90734 20.125666,158.35716 19.497127,162.22061 C 19.497127,162.22061 21.970932,171.13544 35.287811,169.69233 C 39.083791,166.7664 40.704718,161.35052 43.197142,156.34427 M 30.768122,141.80284 C 24.775912,146.7784 20.881489,157.38462 19.302731,162.47122 C 19.302731,162.47122 25.457003,169.89997 34.75575,169.44673 C 39.300288,166.69199 38.624564,162.45296 42.192331,156.813"
       sodipodi:nodetypes="cccccccc"
       inkscape:transform-center-y="3.4761405"
       inkscape:transform-center-x="2.1518949" />
    <g
       id="g4960"
       transform="matrix(-0.383043,-5.962475e-3,2.349853e-2,-0.132079,81.8905,90.24223)"
       style="opacity:0.61016947;fill:white;fill-opacity:1;stroke:none;stroke-opacity:1">
      <path
         style="opacity:0.56779659;fill:white;fill-opacity:1;fill-rule:evenodd;stroke-width:3;stroke-linecap:round;stroke-linejoin:round;stroke-miterlimit:4"
         d="M 71.718427,264.64479 C 47.802601,267.85527 42.615182,204.5158 33.698996,235.1632 C 59.565244,291.70104 87.039362,328.30215 108.854,244.84053 C 93.689165,228.35426 95.140858,269.02771 71.718427,264.64479 z "
         id="path4962"
         sodipodi:nodetypes="cccc" />
    </g>
    <path
       id="path4964"
       style="fill:#7a8ca5;fill-opacity:1;fill-rule:nonzero;stroke:black;stroke-width:1.84951413;stroke-linecap:butt;stroke-linejoin:miter;stroke-miterlimit:4;stroke-opacity:1"
       d="M 77.310851,97.083606 C 83.80965,95.870325 94.35974,92.042324 98.237624,92.574307 C 98.237624,92.574307 106.36303,93.773654 101.07841,106.08199 C 97.167968,108.85305 91.412029,112.43755 85.894973,113.35243 M 77.871161,97.211963 C 84.379652,96.206937 93.388363,91.709288 98.714312,91.691532 C 98.714312,91.691532 104.71431,97.18872 101.55428,105.9458 C 97.58801,109.48276 92.168557,111.60871 85.73034,113.36581"
       sodipodi:nodetypes="cccccccc" />
    <path
       style="fill:#7a8ca5;fill-opacity:1;fill-rule:evenodd;stroke:black;stroke-width:1.84951413;stroke-linecap:butt;stroke-linejoin:miter;stroke-miterlimit:4;stroke-dasharray:none;stroke-opacity:1"
       d="M 99.886705,106.82787 C 99.886705,106.82787 105.79711,105.52478 109.84519,104.11207 C 117.88171,101.30748 109.9827,85.818032 104.88751,89.145122 C 103.52448,90.03517 98.82591,92.085615 97.822202,92.049309"
       id="path4978"
       sodipodi:nodetypes="cssc"
       inkscape:transform-center-x="-2.7363814"
       inkscape:transform-center-y="-1.321196" />
    <path
       style="fill:#7a8ca5;fill-opacity:1;fill-rule:evenodd;stroke:black;stroke-width:1.84951413;stroke-linecap:butt;stroke-linejoin:miter;stroke-miterlimit:4;stroke-dasharray:none;stroke-opacity:1"
       d="M 18.828368,104.70231 C 18.828368,104.70231 12.541758,103.85199 8.8077857,100.24054 C 2.689452,94.322996 9.9266931,82.072148 15.021877,85.399239 C 16.384906,86.289287 21.851768,89.07836 22.478556,88.979301"
       id="path4982"
       sodipodi:nodetypes="cssc"
       inkscape:transform-center-x="2.7363836"
       inkscape:transform-center-y="-1.3211938" />
    <path
       style="fill:#7a8ca5;fill-opacity:1;fill-rule:evenodd;stroke:black;stroke-width:1.84951413;stroke-linecap:butt;stroke-linejoin:miter;stroke-miterlimit:4;stroke-dasharray:none;stroke-opacity:1"
       d="M 79.449771,166.29626 C 79.449771,166.29626 78.01534,174.10571 83.033081,176.44286 C 90.748954,180.03679 97.726286,172.63331 95.927888,166.81979 C 95.142949,164.28245 92.488764,161.48826 91.899792,161.054"
       id="path4986"
       sodipodi:nodetypes="cssc"
       inkscape:transform-center-x="-1.912139"
       inkscape:transform-center-y="2.0703185" />
    <path
       style="fill:#7a8ca5;fill-opacity:1;fill-rule:evenodd;stroke:black;stroke-width:1.84951413;stroke-linecap:butt;stroke-linejoin:miter;stroke-miterlimit:4;stroke-dasharray:none;stroke-opacity:1"
       d="M 34.109949,167.33969 C 34.109949,167.33969 35.544376,175.14913 30.526638,177.48632 C 22.81076,181.08023 15.833437,173.67674 17.63183,167.86328 C 18.416765,165.32587 21.070954,162.53169 21.659924,162.09743"
       id="path4988"
       sodipodi:nodetypes="cssc"
       inkscape:transform-center-x="1.9121375"
       inkscape:transform-center-y="2.0703243" />
    <path
       style="opacity:0.32627115;fill:white;fill-opacity:1;fill-rule:evenodd;stroke:none;stroke-width:3;stroke-linecap:round;stroke-linejoin:round;stroke-miterlimit:4;stroke-opacity:1"
       d="M 18.384712,92.977994 C 13.384439,90.362349 10.317414,88.662626 12.25533,86.384396 C 14.224305,84.257634 16.685742,88.135811 20.891266,89.646124 C 22.197209,89.739303 28.805474,92.448353 32.422686,93.419658 C 32.377668,97.833277 25.292204,94.902043 18.384712,92.977994 z "
       id="path4994"
       sodipodi:nodetypes="ccccc" />
    <path
       style="opacity:0.34745765;fill:white;fill-opacity:1;fill-rule:evenodd;stroke:none;stroke-width:3;stroke-linecap:round;stroke-linejoin:round;stroke-miterlimit:4;stroke-opacity:1"
       d="M 101.63604,95.624525 C 106.44784,94.893566 109.70334,92.691275 107.76541,90.413044 C 106.04772,88.09776 103.9004,91.41061 99.694877,92.920862 C 97.949177,93.265328 91.089635,94.655138 87.472415,95.626503 C 87.517434,100.04006 94.728545,97.548636 101.63604,95.624525 z "
       id="path4996"
       sodipodi:nodetypes="ccccc" />
    <path
       style="fill:none;fill-opacity:0.75;fill-rule:evenodd;stroke:black;stroke-width:1.84951413;stroke-linecap:round;stroke-linejoin:round;stroke-miterlimit:4;stroke-dasharray:none;stroke-opacity:1"
       d="M 42.812911,56.04369 C 42.812911,56.04369 32.238936,48.410376 28.862358,47.402513 C 22.758992,45.580803 20.433899,50.386765 19.852629,49.146358"
       id="path5012"
       sodipodi:nodetypes="csc" />
    <path
       style="fill:none;fill-opacity:0.75;fill-rule:evenodd;stroke:black;stroke-width:1.84951413;stroke-linecap:round;stroke-linejoin:round;stroke-miterlimit:4;stroke-dasharray:none;stroke-opacity:1"
       d="M 76.672053,57.759792 C 76.672053,57.759792 89.571114,48.092012 92.947695,47.08415 C 99.051057,45.26244 101.37616,50.068403 101.95742,48.827996"
       id="path5014"
       sodipodi:nodetypes="csc" />
    <path
       id="path4934"
       style="fill:#7a8ca5;fill-opacity:1;fill-rule:nonzero;stroke:black;stroke-width:1.84951413;stroke-linecap:round;stroke-linejoin:round;stroke-miterlimit:4;stroke-opacity:1"
       d="M 42.573794,56.850571 C 39.103278,62.807363 36.38683,78.194395 37.526852,83.080874 C 40.31394,95.027069 55.009266,106.56441 69.883971,101.11561 C 81.088848,97.011105 83.777012,72.197346 76.983779,58.502742 C 66.400189,51.400299 58.879991,41.67913 42.573794,56.850571 z M 42.819699,56.984722 C 39.349184,62.941576 37.151165,72.824824 37.999383,83.30485 C 38.71514,92.148301 57.035674,107.44552 72.729716,99.421636 C 83.354602,93.989554 83.243244,71.250333 77.035248,58.726163 C 67.806708,50.519005 54.05848,45.114109 42.819699,56.984722 z "
       sodipodi:nodetypes="csscccsscc" />
    <path
       style="fill:black;fill-opacity:1;fill-rule:evenodd;stroke:black;stroke-width:3.02242279;stroke-linecap:round;stroke-linejoin:round;stroke-miterlimit:4;stroke-opacity:1"
       d="M 52.010642,73.010824 C 54.129754,77.507055 50.90173,74.519657 50.90173,74.519657"
       id="path4938"
       sodipodi:nodetypes="cc" />
    <path
       style="fill:black;fill-opacity:1;fill-rule:evenodd;stroke:black;stroke-width:3.37497115;stroke-linecap:round;stroke-linejoin:round;stroke-miterlimit:4;stroke-opacity:1"
       d="M 67.404828,73.063227 C 69.78903,77.733558 66.055347,74.699429 66.055347,74.699429"
       id="path4936"
       sodipodi:nodetypes="cc" />
    <path
       sodipodi:nodetypes="cccc"
       id="path5038"
       style="fill:white;fill-opacity:0.22173911;fill-rule:nonzero;stroke:black;stroke-width:0;stroke-linecap:round;stroke-linejoin:round;stroke-miterlimit:4;stroke-dasharray:none;stroke-dashoffset:0;stroke-opacity:1"
       d="M 53.883362,56.461495 C 43.23478,60.006398 44.251075,53.39013 57.176447,51.214115 C 67.596263,52.960673 75.94181,59.089592 64.749856,56.804395 C 58.000258,56.211934 59.886466,56.160641 53.883362,56.461495 z " />
    <g
       id="g5030"
       transform="matrix(-4.716686e-2,-0.41438,0.612549,-6.97236e-2,-373.1114,488.1478)">
      <path
         style="fill:none;fill-opacity:0.75;fill-rule:evenodd;stroke:black;stroke-width:2;stroke-linecap:butt;stroke-linejoin:miter;stroke-miterlimit:4;stroke-dasharray:none;stroke-opacity:1"
         d="M 908.26999,773.40517 C 908.26999,773.40517 931.69577,769.85992 945.66674,775.38145"
         id="path5032"
         sodipodi:nodetypes="cc" />
      <path
         style="fill:none;fill-opacity:0.75;fill-rule:evenodd;stroke:black;stroke-width:2;stroke-linecap:butt;stroke-linejoin:miter;stroke-miterlimit:4;stroke-dasharray:none;stroke-opacity:1"
         d="M 908.56287,775.06688 C 908.56287,775.06688 942.17063,780.9502 946.2772,790.0681"
         id="path5034" />
      <path
         style="fill:none;fill-opacity:0.75;fill-rule:evenodd;stroke:black;stroke-width:2;stroke-linecap:butt;stroke-linejoin:miter;stroke-miterlimit:4;stroke-dasharray:none;stroke-opacity:1"
         d="M 908.34651,777.00972 C 908.34651,777.00972 926.38511,779.38531 940.24994,790.68871"
         id="path5036"
         sodipodi:nodetypes="cc" />
    </g>
    <path
       sodipodi:nodetypes="cccc"
       id="path5040"
       style="fill:white;fill-opacity:0.22173911;fill-rule:nonzero;stroke:black;stroke-width:0;stroke-linecap:round;stroke-linejoin:round;stroke-miterlimit:4;stroke-dasharray:none;stroke-dashoffset:0;stroke-opacity:1"
       d="M 55.497562,84.6029 C 44.84898,88.147802 46.155915,79.787689 59.081286,77.611675 C 69.501103,79.358233 77.556012,87.230997 66.364056,84.9458 C 59.323819,82.318873 60.628757,82.848882 55.497562,84.6029 z " />
    <path
       sodipodi:nodetypes="cccc"
       id="path5042"
       style="fill:white;fill-opacity:0.40869565;fill-rule:nonzero;stroke:black;stroke-width:0;stroke-linecap:round;stroke-linejoin:round;stroke-miterlimit:4;stroke-dasharray:none;stroke-dashoffset:0;stroke-opacity:1"
       d="M 87.924377,48.264942 C 79.223613,55.354068 78.99136,50.260259 90.306296,43.644177 C 101.24996,36.933956 109.77288,52.785524 101.9852,47.64036 C 94.30126,45.700466 93.4311,45.855826 87.924377,48.264942 z " />
    <path
       sodipodi:nodetypes="cccc"
       id="path5044"
       style="fill:white;fill-opacity:0.36086958;fill-rule:nonzero;stroke:black;stroke-width:0;stroke-linecap:round;stroke-linejoin:round;stroke-miterlimit:4;stroke-dasharray:none;stroke-dashoffset:0;stroke-opacity:1"
       d="M 33.940958,48.183439 C 42.641726,55.272566 42.873976,50.178757 31.559036,43.562675 C 20.61538,36.852453 12.092468,52.704022 19.880143,47.558858 C 27.56408,45.618965 28.434234,45.774325 33.940958,48.183439 z " />
    <path
       style="fill:#7a8ca5;fill-opacity:1;fill-rule:evenodd;stroke:black;stroke-width:1.84951413;stroke-linecap:butt;stroke-linejoin:miter;stroke-miterlimit:4;stroke-dasharray:none;stroke-opacity:1"
       d="M 45.157904,88.286886 C 45.157904,88.286886 48.857111,89.519957 52.556306,97.329406 C 56.288803,105.20915 54.611411,117.46951 54.611411,117.46951 L 71.052286,116.23645 C 71.052286,116.23645 66.120012,85.820805 75.162525,87.875862"
       id="path5078"
       sodipodi:nodetypes="csccc" />
    <g
       id="g5106"
       transform="matrix(0.616504,0,0,0.616504,-512.6597,-606.4149)">
      <path
         sodipodi:nodetypes="cssz"
         id="path5064"
         d="M 917.99804,1185.9816 C 913.34264,1173.4222 924.70911,1155.3135 938.04306,1160.647 C 952.65233,1166.4907 954.71045,1182.648 947.37681,1190.6484 C 937.09389,1201.8662 922.35362,1197.7321 917.99804,1185.9816 z "
         style="fill:#7a8ca5;fill-opacity:1;fill-rule:evenodd;stroke:black;stroke-width:3;stroke-linecap:butt;stroke-linejoin:miter;stroke-miterlimit:4;stroke-dasharray:none;stroke-opacity:1" />
      <path
         id="path5066"
         d="M 921.37563,1182.9814 C 921.48674,1158.647 944.59891,1162.3138 944.71002,1175.9811"
         style="fill:#7a8ca5;fill-opacity:1;fill-rule:evenodd;stroke:black;stroke-width:3;stroke-linecap:butt;stroke-linejoin:miter;stroke-miterlimit:4;stroke-dasharray:none;stroke-opacity:1"
         sodipodi:nodetypes="cc" />
      <path
         sodipodi:nodetypes="cc"
         id="path5070"
         d="M 937.99478,1174.5337 C 940.89504,1180.3826 936.47711,1176.4965 936.47711,1176.4965"
         style="fill:#7a8ca5;fill-opacity:1;fill-rule:evenodd;stroke:black;stroke-width:4.03282595;stroke-linecap:round;stroke-linejoin:round;stroke-miterlimit:4;stroke-opacity:1" />
      <path
         sodipodi:nodetypes="cc"
         id="path5104"
         d="M 929.30825,1175.894 C 932.20851,1181.7429 928.12393,1177.1901 928.12393,1177.1901"
         style="fill:#7a8ca5;fill-opacity:1;fill-rule:evenodd;stroke:black;stroke-width:4.03282595;stroke-linecap:round;stroke-linejoin:round;stroke-miterlimit:4;stroke-opacity:1" />
    </g>
    <path
       sodipodi:nodetypes="cccc"
       id="path5088"
       style="fill:white;fill-opacity:0.22173911;fill-rule:nonzero;stroke:black;stroke-width:0;stroke-linecap:round;stroke-linejoin:round;stroke-miterlimit:4;stroke-dasharray:none;stroke-dashoffset:0;stroke-opacity:1"
       d="M 54.363268,118.6831 C 54.606769,116.2682 55.502685,113.86789 61.029657,109.43127 C 75.970711,112.82193 72.722523,119.66717 70.367539,116.7654 C 60.655659,102.01331 56.206285,117.3401 54.363268,118.6831 z " />
    <path
       sodipodi:nodetypes="cccc"
       id="path5090"
       style="fill:white;fill-opacity:0.22173911;fill-rule:nonzero;stroke:black;stroke-width:0;stroke-linecap:round;stroke-linejoin:round;stroke-miterlimit:4;stroke-dasharray:none;stroke-dashoffset:0;stroke-opacity:1"
       d="M 58.832261,94.466543 C 52.856833,98.011445 53.590214,89.651334 60.843263,87.475319 C 66.690323,89.221877 71.210323,97.094642 64.929974,94.809444 C 60.979361,92.182517 61.711622,92.712527 58.832261,94.466543 z " />
    <path
       sodipodi:nodetypes="cccc"
       id="path5092"
       style="fill:white;fill-opacity:0.22173911;fill-rule:nonzero;stroke:black;stroke-width:0;stroke-linecap:round;stroke-linejoin:round;stroke-miterlimit:4;stroke-dasharray:none;stroke-dashoffset:0;stroke-opacity:1"
       d="M 60.340508,103.496 C 55.486632,106.11355 56.08236,99.940431 61.974056,98.333693 C 66.723651,99.623362 70.395269,105.43657 65.293711,103.74921 C 62.084607,101.80948 62.679429,102.20084 60.340508,103.496 z " />
    <g
       id="g4636"
       transform="matrix(0.616504,0,0,0.616504,-191.6803,-152.9791)">
      <path
         inkscape:transform-center-y="0.012142605"
         inkscape:transform-center-x="-0.5988659"
         style="fill:#a5b1c2;fill-opacity:1;fill-rule:evenodd;stroke:none;stroke-width:2.30175185;stroke-linecap:butt;stroke-linejoin:miter;stroke-miterlimit:4;stroke-dasharray:none;stroke-opacity:1"
         d="M 364.0415,527.86236 C 362.23843,542.1494 337.2103,533.40792 342.00188,523.84732"
         id="path4175"
         sodipodi:nodetypes="cc" />
      <g
         style="fill:#a5b1c2;fill-opacity:1"
         transform="matrix(0.450212,4.142173e-2,-8.803189e-2,0.727396,46.54434,293.1917)"
         id="g4177">
        <path
           style="fill:#a5b1c2;fill-opacity:1;fill-rule:evenodd;stroke:black;stroke-width:4;stroke-linecap:butt;stroke-linejoin:miter;stroke-miterlimit:4;stroke-dasharray:none;stroke-opacity:1"
           d="M 725.84798,281.26099 C 724.98414,268.26051 703.06001,273.89822 707.91767,282.08186"
           id="path4179"
           sodipodi:nodetypes="cc"
           inkscape:transform-center-x="3.4697407"
           inkscape:transform-center-y="-1.4778979" />
        <path
           style="fill:#a5b1c2;fill-opacity:1;fill-rule:evenodd;stroke:black;stroke-width:4;stroke-linecap:butt;stroke-linejoin:miter;stroke-miterlimit:4;stroke-dasharray:none;stroke-opacity:1"
           d="M 742.72452,284.2842 C 745.54619,271.56425 727.66742,267.3138 726.08859,282.6846"
           id="path4181"
           sodipodi:nodetypes="cc"
           inkscape:transform-center-x="3.9451526"
           inkscape:transform-center-y="-2.595119" />
        <path
           style="fill:#a5b1c2;fill-opacity:1;fill-rule:evenodd;stroke:black;stroke-width:4;stroke-linecap:butt;stroke-linejoin:miter;stroke-miterlimit:4;stroke-dasharray:none;stroke-opacity:1"
           d="M 759.64217,286.76371 C 765.13152,274.9408 747.11158,272.97488 742.1682,283.77511"
           id="path4183"
           sodipodi:nodetypes="cc"
           inkscape:transform-center-x="3.9052362"
           inkscape:transform-center-y="-2.6254546" />
      </g>
    </g>
    <g
       id="g5832"
       transform="matrix(-0.616504,0,0,0.616504,305.2318,-154.0357)">
      <path
         inkscape:transform-center-y="0.012142605"
         inkscape:transform-center-x="-0.5988659"
         style="fill:#a5b1c2;fill-opacity:1;fill-rule:evenodd;stroke:none;stroke-width:2.30175185;stroke-linecap:butt;stroke-linejoin:miter;stroke-miterlimit:4;stroke-dasharray:none;stroke-opacity:1"
         d="M 364.0415,527.86236 C 362.23843,542.1494 337.2103,533.40792 342.00188,523.84732"
         id="path5834"
         sodipodi:nodetypes="cc" />
      <g
         style="fill:#a5b1c2;fill-opacity:1"
         transform="matrix(0.450212,4.142173e-2,-8.803189e-2,0.727396,46.54434,293.1917)"
         id="g5836">
        <path
           style="fill:#a5b1c2;fill-opacity:1;fill-rule:evenodd;stroke:black;stroke-width:4;stroke-linecap:butt;stroke-linejoin:miter;stroke-miterlimit:4;stroke-dasharray:none;stroke-opacity:1"
           d="M 725.84798,281.26099 C 724.98414,268.26051 703.06001,273.89822 707.91767,282.08186"
           id="path5838"
           sodipodi:nodetypes="cc"
           inkscape:transform-center-x="3.4697407"
           inkscape:transform-center-y="-1.4778979" />
        <path
           style="fill:#a5b1c2;fill-opacity:1;fill-rule:evenodd;stroke:black;stroke-width:4;stroke-linecap:butt;stroke-linejoin:miter;stroke-miterlimit:4;stroke-dasharray:none;stroke-opacity:1"
           d="M 742.72452,284.2842 C 745.54619,271.56425 727.66742,267.3138 726.08859,282.6846"
           id="path5840"
           sodipodi:nodetypes="cc"
           inkscape:transform-center-x="3.9451526"
           inkscape:transform-center-y="-2.595119" />
        <path
           style="fill:#a5b1c2;fill-opacity:1;fill-rule:evenodd;stroke:black;stroke-width:4;stroke-linecap:butt;stroke-linejoin:miter;stroke-miterlimit:4;stroke-dasharray:none;stroke-opacity:1"
           d="M 759.64217,286.76371 C 765.13152,274.9408 747.11158,272.97488 742.1682,283.77511"
           id="path5842"
           sodipodi:nodetypes="cc"
           inkscape:transform-center-x="3.9052362"
           inkscape:transform-center-y="-2.6254546" />
      </g>
    </g>
  </g>
</svg>
