<!--Created with Inkscape (http://www.inkscape.org/)--><svg xmlns:dc="http://purl.org/dc/elements/1.1/" xmlns:cc="http://creativecommons.org/ns#" xmlns:rdf="http://www.w3.org/1999/02/22-rdf-syntax-ns#" xmlns="http://www.w3.org/2000/svg" xmlns:sodipodi="http://sodipodi.sourceforge.net/DTD/sodipodi-0.dtd" xmlns:inkscape="http://www.inkscape.org/namespaces/inkscape" width="120" height="200" sodipodi:version="0.32" inkscape:version="0.91 r13725" sodipodi:docname="20_greenbaby.svg" version="1.0"><sodipodi:namedview pagecolor="#ffffff" bordercolor="#666666" borderopacity="1.0" inkscape:pageopacity="0.0" inkscape:pageshadow="2" inkscape:zoom="2.2831776" inkscape:cx="82.857143" inkscape:cy="84.285714" inkscape:document-units="px" inkscape:current-layer="layer1" inkscape:window-width="949" inkscape:window-height="896" inkscape:window-x="35" inkscape:window-y="-35" height="200px" width="120px"/><metadata><rdf:RDF><cc:Work><dc:format>image/svg+xml</dc:format><dc:type rdf:resource="http://purl.org/dc/dcmitype/StillImage"/></cc:Work></rdf:RDF></metadata><g inkscape:label="Calque 1" inkscape:groupmode="layer"><path sodipodi:nodetypes="czzz" style="opacity:1;fill:#000;fill-opacity:.24782608;fill-rule:evenodd;stroke:none;stroke-width:5;stroke-linecap:round;stroke-linejoin:round;stroke-miterlimit:4;stroke-opacity:1" inkscape:export-xdpi="90" d="M29.198 155.099c-20.488 3.816-33.482 20.896 13.5 27.452 46.95 6.552 78.07-18.017 60.853-24.634-16.327-6.275-55.147-6.396-74.353-2.818z" inkscape:export-filename="/home/mat/Travaux/Inkscape/Gcompris/path3176.png" inkscape:export-ydpi="90"/><g style="fill:#7fff2a;fill-opacity:1"><path style="fill:#7fff2a;fill-opacity:1;fill-rule:evenodd;stroke:#000;stroke-width:2.75463986;stroke-linecap:round;stroke-linejoin:round;stroke-miterlimit:4;stroke-opacity:1" sodipodi:nodetypes="cccc" d="M421.179 862.45c-40.796-18.546-30.402-73.246-17.938-91.852 15.114-21.93 64.29-12.912 73.848 12.025 7.19 30.435-9.367 106.455-55.91 79.827z" transform="matrix(.6796 0 0 .6796 -234.118 -438.299)"/><path style="fill:#7fff2a;fill-opacity:1;fill-rule:evenodd;stroke:#000;stroke-width:2.75463986;stroke-linecap:round;stroke-linejoin:round;stroke-miterlimit:4;stroke-opacity:1" sodipodi:nodetypes="cccc" d="M421.023 860.975c-40.796-18.546-28.15-70.993-17.938-91.852 15.114-21.93 62.038-14.038 71.596 10.899 9.441 32.124-7.115 107.582-53.658 80.953z" transform="matrix(.6796 0 0 .6796 -234.118 -438.299)"/></g><path style="fill:#010000;fill-opacity:1;fill-rule:evenodd;stroke:#000;stroke-width:1.27386785;stroke-linecap:butt;stroke-linejoin:miter;stroke-miterlimit:4;stroke-dasharray:none;stroke-opacity:1" sodipodi:nodetypes="czzz" d="M56.697 114.52c-.27-1.416.661-3.447 2.586-2.665 1.847.75 2.21 3.096.55 4.127-1.617 1.007-2.882-.128-3.136-1.461z"/><path sodipodi:nodetypes="cssc" style="fill:#a05a2c;fill-opacity:1;fill-rule:evenodd;stroke:#000;stroke-width:2.03877282;stroke-linecap:butt;stroke-linejoin:miter;stroke-miterlimit:4;stroke-dasharray:none;stroke-opacity:1" d="M26.344 102.683s-7.115 8.748-12.89 6.776c-8.879-3.032-9.615-17.611-2.908-17.496 1.794.031 10.765-.21 11.565-.106" inkscape:transform-center-y="1.721982" inkscape:transform-center-x="2.8267962"/><path sodipodi:nodetypes="cssc" style="fill:#a05a2c;fill-opacity:1;fill-rule:evenodd;stroke:#000;stroke-width:2.03877282;stroke-linecap:butt;stroke-linejoin:miter;stroke-miterlimit:4;stroke-dasharray:none;stroke-opacity:1" d="M18.687 96.73s-5.14 4.559-6.374 3.986c-3.87-1.797-3.142-5.169-2.493-6.841.65-1.673 6.78-1.11 7.516-1.44" inkscape:transform-center-y="2.4976849" inkscape:transform-center-x="2.577411"/><path sodipodi:nodetypes="cccccccc" style="fill:#7fff2a;fill-opacity:1;fill-rule:nonzero;stroke:#000;stroke-width:2.03877282;stroke-linecap:butt;stroke-linejoin:miter;stroke-miterlimit:4;stroke-opacity:1" inkscape:export-xdpi="90" d="M40.563 83.212c-6.776 2.68-15.493 4.681-18.8 7.453 0 0-6.778 5.447 5.375 13.833 5.275.292 1.528 1.556 7.214-.827m8.143-20.592c-6.664 2.88-15.436 4.273-20.417 7.38 0 0-2.861 6.875 5.226 13.193 5.776.974.153 1.923 7.192-.215" inkscape:export-filename="/home/mat/Travaux/Inkscape/Gcompris/path3176.png" inkscape:export-ydpi="90"/><path style="fill:#fff;fill-opacity:.44347827;fill-rule:evenodd;stroke:none;stroke-width:3;stroke-linecap:round;stroke-linejoin:round;stroke-miterlimit:4;stroke-opacity:1" sodipodi:nodetypes="cccc" d="M31.22 91.888c1.847-6.867 9.73 3.56 8.862-3.118-2.485-3.528-18.534-.534-17.879 4.65 1.566 8.018 4.602-.456 9.018-1.532z"/><path sodipodi:nodetypes="cssc" style="fill:#a05a2c;fill-opacity:1;fill-rule:evenodd;stroke:#000;stroke-width:2.03877282;stroke-linecap:butt;stroke-linejoin:miter;stroke-miterlimit:4;stroke-dasharray:none;stroke-opacity:1" d="M96.342 106.477s4.707 10.153 10.734 9.199c9.267-1.468 12.487-15.707 5.86-16.74-1.773-.277-10.34-2.885-11.146-2.919" inkscape:transform-center-y="1.6154365" inkscape:transform-center-x="-3.1004326"/><path sodipodi:nodetypes="cccccccc" style="fill:#7fff2a;fill-opacity:1;fill-rule:nonzero;stroke:#000;stroke-width:2.03877282;stroke-linecap:butt;stroke-linejoin:miter;stroke-miterlimit:4;stroke-opacity:1" inkscape:export-xdpi="90" d="M85.548 85.414c6.218 3.801 14.463 7.264 17.247 10.561 0 0 5.747 6.527-7.662 12.71-5.247-.616-1.163 3.144-6.357-.177M84 84.402c6.072 3.979 14.146 7.402 18.521 11.317 0 0 1.643 7.263-7.406 12.104-5.858-.03.14 3.88-6.43.57" inkscape:export-filename="/home/mat/Travaux/Inkscape/Gcompris/path3176.png" inkscape:export-ydpi="90"/><path sodipodi:nodetypes="cssccccssccc" style="fill:#a05a2c;fill-opacity:1;fill-rule:nonzero;stroke:#000;stroke-width:2.03877282;stroke-linecap:round;stroke-linejoin:round;stroke-miterlimit:4;stroke-opacity:1" inkscape:export-xdpi="90" d="M40.302 45.774c-3.826 6.567-1.528 26.005-.271 31.392 3.072 13.168 19.675 25.87 34.402 16.488 11.964-7.622 13.75-17.571 14.006-44.284-3.42-18.218-15.504-16.571-23.87-18.479-12.693-.206-19.647 2.324-24.267 14.883zm-.004.154c-3.826 6.566-3.372 27.036-.825 32.68 5.561 12.326 20.797 22.024 38.097 13.179 11.712-5.988 8.631-22.518 10.695-42.52-3.653-16.075-15.011-17.926-24.172-18.825-17.108 2.899-17.395 4.293-23.795 15.486z" inkscape:export-filename="/home/mat/Travaux/Inkscape/Gcompris/path3176.png" inkscape:export-ydpi="90"/><path sodipodi:nodetypes="cccccccc" style="fill:#7fff2a;fill-opacity:1;fill-rule:nonzero;stroke:#000;stroke-width:2.03877282;stroke-linecap:butt;stroke-linejoin:miter;stroke-miterlimit:4;stroke-opacity:1" inkscape:export-xdpi="90" d="M86.144 129.976c6.945 5.272 9.296 17.037 9.989 21.295 0 0 1.573 8.553-13.106 6.962-4.185-3.225-4.456-6.727-7.203-12.245m9.735-15.962c6.606 5.485 8.73 15.277 10.47 20.885 0 0-2.325 7.073-12.575 6.574-5.01-3.037-4.12-5.42-8.052-11.637" inkscape:export-filename="/home/mat/Travaux/Inkscape/Gcompris/path3176.png" inkscape:export-ydpi="90" inkscape:transform-center-y="3.8318532" inkscape:transform-center-x="-2.3720977"/><path sodipodi:nodetypes="cccccccc" style="fill:#7fff2a;fill-opacity:1;fill-rule:nonzero;stroke:#000;stroke-width:2.03877282;stroke-linecap:butt;stroke-linejoin:miter;stroke-miterlimit:4;stroke-opacity:1" inkscape:export-xdpi="90" d="M34.782 131.235c-6.946 5.273-11.377 16.969-12.07 21.228 0 0-1.574 8.552 13.106 6.962 4.184-3.226 7.649-10.65 10.396-16.17m-10.16-13.887c-6.606 5.485-11.498 17.127-13.238 22.734 0 0 2.324 7.074 12.574 6.574 5.01-3.037 7.97-9.465 11.902-15.682" inkscape:export-filename="/home/mat/Travaux/Inkscape/Gcompris/path3176.png" inkscape:export-ydpi="90" inkscape:transform-center-y="3.8318523" inkscape:transform-center-x="2.3720962"/><path sodipodi:nodetypes="cccc" style="fill:#fff;fill-opacity:.43913042;fill-rule:evenodd;stroke:none;stroke-width:3;stroke-linecap:round;stroke-linejoin:round;stroke-miterlimit:4;stroke-opacity:1" inkscape:export-xdpi="90" d="M93.055 95.182c2.976 4.493 3.974 12.758 8.174 4.615 3.33-5.573-13.51-10.018-16.886-13.152-1.93 3.9-3.655 1.465 8.712 8.537z" inkscape:export-filename="/home/mat/Travaux/Inkscape/Gcompris/path3176.png" inkscape:export-ydpi="90"/><g style="fill:#4c4c4d;fill-opacity:.13478262;stroke:none;stroke-opacity:1"><path style="fill:#4c4c4d;fill-opacity:.13478262;fill-rule:evenodd;stroke-width:3;stroke-linecap:round;stroke-linejoin:round;stroke-miterlimit:4" sodipodi:nodetypes="cccc" d="M64.361 146.469c-48.356 9.906-46.686 136.36-44.755 171.788 32.479-95.183 57.225-151.926 117.689 5.45 9.139-20.825-34.359-186.423-72.934-177.238z" transform="matrix(-.4855 -.00805 .02978 -.17835 90.026 177.24)"/></g><path sodipodi:nodetypes="cssc" style="fill:#a05a2c;fill-opacity:1;fill-rule:evenodd;stroke:#000;stroke-width:2.03877282;stroke-linecap:butt;stroke-linejoin:miter;stroke-miterlimit:4;stroke-dasharray:none;stroke-opacity:1" d="M105.855 102.603s4.284 5.372 5.598 5.018c4.121-1.108 3.98-4.554 3.626-6.314-.353-1.759-5.998-3.376-6.668-3.826" inkscape:transform-center-y="2.3371526" inkscape:transform-center-x="-2.2811658"/><path style="fill:#010000;fill-opacity:1;fill-rule:evenodd;stroke:#000;stroke-width:.65892631;stroke-linecap:butt;stroke-linejoin:miter;stroke-miterlimit:4;stroke-dasharray:none;stroke-opacity:1" sodipodi:nodetypes="czzz" d="M60.485 68.947c-.12-.85.295-2.069 1.153-1.6.824.451.986 1.858.246 2.477-.721.604-1.285-.077-1.399-.877z"/><path style="fill:#010000;fill-opacity:1;fill-rule:evenodd;stroke:#000;stroke-width:.65892631;stroke-linecap:butt;stroke-linejoin:miter;stroke-miterlimit:4;stroke-dasharray:none;stroke-opacity:1" sodipodi:nodetypes="czzz" d="M63.735 68.947c-.12-.85.294-2.069 1.153-1.6.823.451.985 1.858.245 2.477-.721.604-1.285-.077-1.398-.877z"/><path style="fill:#a05a2c;fill-opacity:1;fill-rule:evenodd;stroke:#000;stroke-width:2.37856841;stroke-linecap:butt;stroke-linejoin:miter;stroke-miterlimit:4;stroke-dasharray:none;stroke-opacity:1" sodipodi:nodetypes="cssc" inkscape:transform-center-x="-4.1050362" d="M86.458 55.78s4.211-3.033 4.818-1.4c1.9 5.124.642 9.413-.157 11.35-.798 1.937-4.476-1.064-5-1.09"/><path sodipodi:nodetypes="cssc" style="fill:#a05a2c;fill-opacity:1;fill-rule:evenodd;stroke:#000;stroke-width:2.37856841;stroke-linecap:butt;stroke-linejoin:miter;stroke-miterlimit:4;stroke-dasharray:none;stroke-opacity:1" d="M39.744 56.012s-3.896-3.429-4.658-1.862a15.539 15.539 0 0 0-.948 11.31c.606 2.006 4.559-.623 5.083-.598" inkscape:transform-center-y="-0.50482262" inkscape:transform-center-x="4.0657822"/><path sodipodi:nodetypes="cssc" style="fill:#7fff2a;fill-opacity:1;fill-rule:evenodd;stroke:#000;stroke-width:2.03877282;stroke-linecap:butt;stroke-linejoin:miter;stroke-miterlimit:4;stroke-dasharray:none;stroke-opacity:1" d="M83.014 153.505s-4.21 10.37.6 14.124c7.396 5.773 20.002-1.587 16.236-7.138-1.008-1.485-4.947-9.527-5.472-10.14" inkscape:transform-center-y="-21.817159" inkscape:transform-center-x="-17.03733"/><path sodipodi:nodetypes="cssc" style="fill:#7fff2a;fill-opacity:1;fill-rule:evenodd;stroke:#000;stroke-width:2.03877282;stroke-linecap:butt;stroke-linejoin:miter;stroke-miterlimit:4;stroke-dasharray:none;stroke-opacity:1" d="M36.032 155.872s4.21 10.369-.6 14.124c-7.396 5.773-20.002-1.588-16.236-7.139 1.008-1.485 4.947-9.527 5.472-10.14" inkscape:transform-center-y="-21.81716" inkscape:transform-center-x="17.037329"/><path sodipodi:nodetypes="cssc" style="fill:none;fill-opacity:1;fill-rule:evenodd;stroke:#000;stroke-width:2.03877282;stroke-linecap:butt;stroke-linejoin:miter;stroke-miterlimit:4;stroke-dasharray:none;stroke-opacity:1" d="M34.79 156.493s4.21 10.369-.6 14.123c-7.396 5.774-20.002-1.587-16.236-7.138 1.008-1.485 4.947-9.527 5.472-10.14" inkscape:transform-center-y="-21.81716" inkscape:transform-center-x="17.037328"/><path sodipodi:nodetypes="cssc" style="fill:none;fill-opacity:1;fill-rule:evenodd;stroke:#000;stroke-width:2.03877282;stroke-linecap:butt;stroke-linejoin:miter;stroke-miterlimit:4;stroke-dasharray:none;stroke-opacity:1" d="M81.705 153.505s-4.21 10.37.6 14.124c7.396 5.773 20.002-1.587 16.236-7.138-1.007-1.485-4.947-9.527-5.472-10.14" inkscape:transform-center-y="-21.817159" inkscape:transform-center-x="-17.037329"/><path style="fill:#fff;fill-opacity:.27391304;fill-rule:evenodd;stroke:none;stroke-width:3;stroke-linecap:round;stroke-linejoin:round;stroke-miterlimit:4;stroke-opacity:1" d="M50.177 127.788c7.989 13.232 22.378 8.376 25.627 1.04 4.65-6.548-1.448-17.578-8.76-19.502-6.505-5.566-27.426 3.679-16.867 18.462z" sodipodi:nodetypes="cccc"/><g style="fill:#4c4c4d;fill-opacity:.13478262;stroke:none;stroke-opacity:1"><path style="fill:#4c4c4d;fill-opacity:.13478262;fill-rule:evenodd;stroke-width:3;stroke-linecap:round;stroke-linejoin:round;stroke-miterlimit:4" sodipodi:nodetypes="cccc" d="M74.31 191.616c-48.357 9.906-36.49 42.536-34.56 77.963 33.679-36.612 33.904-64.021 82.957 11.36 9.14-20.823-9.823-98.508-48.398-89.323z" transform="matrix(-.4855 -.00805 .02978 -.17835 93.053 133.72)"/></g><path sodipodi:nodetypes="cccc" style="fill:#fff;fill-opacity:.1;fill-rule:evenodd;stroke:none;stroke-width:3;stroke-linecap:round;stroke-linejoin:round;stroke-miterlimit:4;stroke-opacity:1" d="M63.834 42.114c3.326 7.334 13.691 7.145 16.983 4.187 4.109-2.385 1.712-8.418-2.886-10.373-3.503-3.54-18.907-2.244-14.097 6.186z" inkscape:transform-center-y="6.7569684" inkscape:transform-center-x="1.7584041"/><g style="fill:#4c4c4d;fill-opacity:.13478262;stroke:none;stroke-opacity:1"><path style="fill:#4c4c4d;fill-opacity:.13478262;fill-rule:evenodd;stroke-width:3;stroke-linecap:round;stroke-linejoin:round;stroke-miterlimit:4" sodipodi:nodetypes="cccc" d="M64.361 146.469c-22.108 8.72-27.997 76.958-26.066 112.385 56.007-126.522 86.709 34.068 110.466 447.084 9.14-20.824-18.425-530.407-84.4-559.47z" transform="matrix(-.4855 -.00358 .02978 -.07935 91.89 106.758)"/></g><path style="fill:none;fill-opacity:.75;fill-rule:evenodd;stroke:#000;stroke-width:1.35918176;stroke-linecap:butt;stroke-linejoin:miter;stroke-miterlimit:4;stroke-dasharray:none;stroke-opacity:1" sodipodi:nodetypes="cc" d="M54.799 109.349s-1.344 5.488 2.674 40.126"/><path style="fill:none;fill-opacity:.75;fill-rule:evenodd;stroke:#000;stroke-width:1.28354585;stroke-linecap:butt;stroke-linejoin:miter;stroke-miterlimit:4;stroke-dasharray:none;stroke-opacity:1" sodipodi:nodetypes="cc" d="M55.593 112.499s-2.272 8.728 1.134 36.627"/><path style="fill:#ff9579;fill-opacity:1;fill-rule:evenodd;stroke:#000;stroke-width:2.03877282;stroke-linecap:butt;stroke-linejoin:miter;stroke-miterlimit:4;stroke-dasharray:none;stroke-opacity:1" sodipodi:nodetypes="cccc" d="M57.096 81.465c.138-1.959 2.205-9.718 7.179-5.956 4.146 4.389 2.485 13.794-1.933 12.853-4.418-.94-5.384-4.937-5.246-6.897z"/><path style="fill:#010000;fill-opacity:1;fill-rule:evenodd;stroke:#000;stroke-width:.97934252;stroke-linecap:butt;stroke-linejoin:miter;stroke-miterlimit:4;stroke-dasharray:none;stroke-opacity:1" sodipodi:nodetypes="cccc" d="M57.255 81.725c.91-2.414 4.066-7.527 5.455-6.886 1.332.615 6.22 4.277 2.882 7.77-3.336-8.108-9.149 1.268-8.337-.884z"/><path style="fill:#b3ff80;fill-opacity:1;fill-rule:evenodd;stroke:#000;stroke-width:1.35918176;stroke-linecap:butt;stroke-linejoin:miter;stroke-miterlimit:4;stroke-dasharray:none;stroke-opacity:1" sodipodi:nodetypes="cccc" d="M55.055 110.694c7.271-5.358 10.442-12.703 14.944-15.917 2.588 4.44 6.032 12.86 4.975 20.283-5.65-.23-12.648-.922-19.92-4.366z"/><path style="fill:none;fill-opacity:.75;fill-rule:evenodd;stroke:#000;stroke-width:1.35918176;stroke-linecap:butt;stroke-linejoin:miter;stroke-miterlimit:4;stroke-dasharray:none;stroke-opacity:1" sodipodi:nodetypes="cccc" d="M55.335 111.413c7.272-5.358 10.443-12.32 14.944-15.534 2.588 4.44 6.798 12.477 5.74 19.9-5.649-.23-13.412-.922-20.684-4.366z"/><path style="fill:#010000;fill-opacity:1;fill-rule:evenodd;stroke:#000;stroke-width:1.27386785;stroke-linecap:butt;stroke-linejoin:miter;stroke-miterlimit:4;stroke-dasharray:none;stroke-opacity:1" sodipodi:nodetypes="czzz" d="M57.08 102.657c-.27-1.416.66-3.448 2.586-2.665 1.847.75 2.21 3.095.55 4.127-1.617 1.006-2.883-.13-3.136-1.462z"/><path style="fill:#010000;fill-opacity:1;fill-rule:evenodd;stroke:#000;stroke-width:1.18773961;stroke-linecap:butt;stroke-linejoin:miter;stroke-miterlimit:4;stroke-dasharray:none;stroke-opacity:1" sodipodi:nodetypes="czzz" d="M56.844 126.352c-.25-1.325.615-3.226 2.403-2.494 1.716.702 2.053 2.897.512 3.862-1.503.942-2.679-.12-2.915-1.368z"/><path style="fill:#010000;fill-opacity:1;fill-rule:evenodd;stroke:#000;stroke-width:1.01543796;stroke-linecap:butt;stroke-linejoin:miter;stroke-miterlimit:4;stroke-dasharray:none;stroke-opacity:1" sodipodi:nodetypes="czzz" d="M57.522 138.152c-.212-1.143.52-2.783 2.035-2.152 1.454.606 1.74 2.5.434 3.332-1.274.812-2.27-.104-2.47-1.18z"/><path style="fill:none;fill-opacity:.75;fill-rule:evenodd;stroke:#000;stroke-width:1.35918176;stroke-linecap:round;stroke-linejoin:round;stroke-miterlimit:4;stroke-opacity:1" sodipodi:nodetypes="cccc" d="M47.923 56.212s1.907-1.922 7.799.91m-7.347-1.265s3.37-4.26 7.855 1.296"/><path style="fill:none;fill-opacity:.75;fill-rule:evenodd;stroke:#000;stroke-width:1.35918176;stroke-linecap:round;stroke-linejoin:round;stroke-miterlimit:4;stroke-opacity:1" sodipodi:nodetypes="cccc" d="M68.78 58.498s1.907-1.923 7.798.91m-7.346-1.266s3.37-4.259 7.855 1.296"/><path style="fill:#ffa474;fill-opacity:.45217393;fill-rule:evenodd;stroke:none;stroke-width:3;stroke-linecap:round;stroke-linejoin:round;stroke-miterlimit:4;stroke-opacity:1" d="M46.103 68.023c.694 3.83 3.642 5.236 6.502 3.274 2.224-1.448 1.83-5.39-.368-7.011-2.414-3.032-7.582-.471-6.134 3.737z" sodipodi:nodetypes="cccc"/><path style="fill:#ffa474;fill-opacity:.36956524;fill-rule:evenodd;stroke:none;stroke-width:3;stroke-linecap:round;stroke-linejoin:round;stroke-miterlimit:4;stroke-opacity:1" d="M72.126 70.446c.694 3.83 3.642 5.235 6.502 3.274 2.224-1.448 1.83-5.39-.368-7.012-2.414-3.031-7.582-.47-6.134 3.738z" sodipodi:nodetypes="cccc"/></g></svg>