<svg xmlns:dc="http://purl.org/dc/elements/1.1/" xmlns:cc="http://creativecommons.org/ns#" xmlns:rdf="http://www.w3.org/1999/02/22-rdf-syntax-ns#" xmlns="http://www.w3.org/2000/svg" width="42.326897mm" height="59.004517mm" viewBox="0 0 149.97719 209.07112" version="1.1" id="svg24"><metadata id="metadata4"><rdf:RDF><cc:Work><dc:format>image/svg+xml</dc:format><dc:type rdf:resource="http://purl.org/dc/dcmitype/StillImage"/><dc:title/><dc:date>2015</dc:date><dc:creator><cc:Agent><dc:title>Timothée Giet</dc:title></cc:Agent></dc:creator><cc:license rdf:resource="http://creativecommons.org/licenses/by-sa/4.0/"/></cc:Work><cc:License rdf:about="http://creativecommons.org/licenses/by-sa/4.0/"><cc:permits rdf:resource="http://creativecommons.org/ns#Reproduction"/><cc:permits rdf:resource="http://creativecommons.org/ns#Distribution"/><cc:requires rdf:resource="http://creativecommons.org/ns#Notice"/><cc:requires rdf:resource="http://creativecommons.org/ns#Attribution"/><cc:permits rdf:resource="http://creativecommons.org/ns#DerivativeWorks"/><cc:requires rdf:resource="http://creativecommons.org/ns#ShareAlike"/></cc:License></rdf:RDF></metadata><g transform="translate(-92.545 -252.842)" id="g22"><rect style="color:#000;clip-rule:nonzero;display:inline;overflow:visible;visibility:visible;opacity:1;isolation:auto;mix-blend-mode:normal;color-interpolation:sRGB;color-interpolation-filters:linearRGB;solid-color:#000;solid-opacity:1;fill:#3771c8;fill-opacity:1;fill-rule:nonzero;stroke:#274674;stroke-width:3;stroke-linecap:round;stroke-linejoin:bevel;stroke-miterlimit:4;stroke-dasharray:none;stroke-dashoffset:0;stroke-opacity:1;marker:none;color-rendering:auto;image-rendering:auto;shape-rendering:auto;text-rendering:auto;enable-background:accumulate" width="146.97719" height="206.07112" x="94.044655" y="254.34169" ry="12.5" id="rect6"/><g id="g20"><g style="display:inline;fill:#fff;fill-opacity:.427907;stroke:#fff;stroke-width:2;stroke-miterlimit:4;stroke-dasharray:none;stroke-opacity:1" id="g12"><g style="fill:#e77936;fill-opacity:1;stroke:#fff;stroke-width:2;stroke-miterlimit:4;stroke-dasharray:none;stroke-opacity:1" id="g10"><path style="display:inline;fill:#3771c8;fill-opacity:1;stroke:#fff;stroke-width:2;stroke-linecap:round;stroke-miterlimit:4;stroke-dasharray:none;stroke-opacity:1" d="M477.903 275.107c-17.664 0-32 14.336-32 32s14.336 32 32 32 32-14.336 32-32-14.336-32-32-32z" transform="translate(-612.939 -144.164) scale(1.63312)" id="path8"/></g></g><g style="display:inline;fill:#fff;fill-opacity:1;stroke:none;stroke-width:2;stroke-miterlimit:4;stroke-dasharray:none" id="g18"><g style="fill:#fff;fill-opacity:1;stroke:none;stroke-width:2;stroke-miterlimit:4;stroke-dasharray:none" id="g16"><path style="display:inline;fill:#fff;fill-opacity:1;stroke:none;stroke-width:2;stroke-linecap:round;stroke-miterlimit:4;stroke-dasharray:none" d="M477.278 292.67c6.54 0 10.375 3.718 10.375 3.718l-6.281 5.781c-4.319-1.85-8.025 1.499-7.531 6.188.493 4.689 3.83 5.65 7.531 5.156 3.702-.494 1.219-3.563 1.219-3.563l-1.469.375-2.344-2.468 12.438-3.97c1.727 12.34-2.944 17.657-13.063 17.657-10.118 0-13.937-7.649-13.937-14.312 0-6.664 6.522-14.563 13.062-14.563z" transform="translate(-612.939 -144.164) scale(1.63312)" id="path14"/></g></g></g></g></svg>