<?xml version="1.0" encoding="UTF-8" standalone="no"?>
<!-- Created with Inkscape (http://www.inkscape.org/) -->

<svg
   xmlns:dc="http://purl.org/dc/elements/1.1/"
   xmlns:cc="http://creativecommons.org/ns#"
   xmlns:rdf="http://www.w3.org/1999/02/22-rdf-syntax-ns#"
   xmlns:svg="http://www.w3.org/2000/svg"
   xmlns="http://www.w3.org/2000/svg"
   xmlns:xlink="http://www.w3.org/1999/xlink"
   xmlns:sodipodi="http://sodipodi.sourceforge.net/DTD/sodipodi-0.dtd"
   xmlns:inkscape="http://www.inkscape.org/namespaces/inkscape"
   width="240"
   height="100"
   viewBox="0 0 63.499999 26.458334"
   version="1.1"
   id="svg8"
   inkscape:version="0.92.1 r15371"
   sodipodi:docname="wagon6.svg">
  <defs
     id="defs2">
    <linearGradient
       gradientTransform="scale(0.26458333)"
       inkscape:collect="always"
       xlink:href="#linearGradient1060"
       id="linearGradient1062"
       x1="121.7444"
       y1="47.998077"
       x2="121.7444"
       y2="64.665596"
       gradientUnits="userSpaceOnUse" />
    <linearGradient
       inkscape:collect="always"
       id="linearGradient1060">
      <stop
         style="stop-color:#cbc6c0;stop-opacity:1"
         offset="0"
         id="stop1056" />
      <stop
         style="stop-color:#8194a9;stop-opacity:1"
         offset="1"
         id="stop1058" />
    </linearGradient>
  </defs>
  <sodipodi:namedview
     id="base"
     pagecolor="#ffffff"
     bordercolor="#666666"
     borderopacity="1.0"
     inkscape:pageopacity="0.0"
     inkscape:pageshadow="2"
     inkscape:zoom="3.959798"
     inkscape:cx="127.15092"
     inkscape:cy="7.6466589"
     inkscape:document-units="mm"
     inkscape:current-layer="layer2"
     showgrid="false"
     units="px"
     inkscape:window-width="1884"
     inkscape:window-height="1051"
     inkscape:window-x="0"
     inkscape:window-y="0"
     inkscape:window-maximized="1" />
  <metadata
     id="metadata5">
    <rdf:RDF>
      <cc:Work
         rdf:about="">
        <dc:format>image/svg+xml</dc:format>
        <dc:type
           rdf:resource="http://purl.org/dc/dcmitype/StillImage" />
        <dc:title />
        <dc:date>2018</dc:date>
        <dc:creator>
          <cc:Agent>
            <dc:title>Timothée Giet</dc:title>
          </cc:Agent>
        </dc:creator>
        <cc:license
           rdf:resource="http://creativecommons.org/licenses/by-sa/4.0/" />
      </cc:Work>
      <cc:License
         rdf:about="http://creativecommons.org/licenses/by-sa/4.0/">
        <cc:permits
           rdf:resource="http://creativecommons.org/ns#Reproduction" />
        <cc:permits
           rdf:resource="http://creativecommons.org/ns#Distribution" />
        <cc:requires
           rdf:resource="http://creativecommons.org/ns#Notice" />
        <cc:requires
           rdf:resource="http://creativecommons.org/ns#Attribution" />
        <cc:permits
           rdf:resource="http://creativecommons.org/ns#DerivativeWorks" />
        <cc:requires
           rdf:resource="http://creativecommons.org/ns#ShareAlike" />
      </cc:License>
    </rdf:RDF>
  </metadata>
  <g
     inkscape:groupmode="layer"
     id="layer2"
     inkscape:label="Calque 2"
     style="display:inline">
    <path
       inkscape:connector-curvature="0"
       style="display:inline;opacity:1;vector-effect:none;fill:#4a4a43;fill-opacity:1;stroke:none;stroke-width:0.34905761;stroke-linecap:butt;stroke-linejoin:miter;stroke-miterlimit:4;stroke-dasharray:none;stroke-dashoffset:0;stroke-opacity:1"
       d="m 4.8756731,18.369421 v 2.173511 H 1.152901 V 21.20439 H 0 v -0.661458 -2.022099 -0.151412 z"
       id="rect849-3"
       sodipodi:nodetypes="ccccccccc" />
    <path
       inkscape:connector-curvature="0"
       style="display:inline;opacity:1;vector-effect:none;fill:#4a4a43;fill-opacity:1;stroke:none;stroke-width:0.34905761;stroke-linecap:butt;stroke-linejoin:miter;stroke-miterlimit:4;stroke-dasharray:none;stroke-dashoffset:0;stroke-opacity:1"
       d="m 58.737503,18.369421 v 2.173511 h 3.722772 v 0.661458 h 1.152903 v -0.661458 -2.022099 -0.151412 z"
       id="rect849-3-3"
       sodipodi:nodetypes="ccccccccc" />
    <rect
       style="display:inline;opacity:1;vector-effect:none;fill:#4d4d4d;fill-opacity:1;stroke:none;stroke-width:0.2428074;stroke-linecap:butt;stroke-linejoin:miter;stroke-miterlimit:4;stroke-dasharray:none;stroke-dashoffset:0;stroke-opacity:1"
       id="rect819-3"
       width="62.006531"
       height="5.0113034"
       x="0.74673462"
       y="-15.567099"
       transform="scale(1,-1)"
       ry="1.4365734" />
    <rect
       style="display:inline;opacity:1;vector-effect:none;fill:#d8d8d8;fill-opacity:1;stroke:none;stroke-width:0.22654298;stroke-linecap:butt;stroke-linejoin:miter;stroke-miterlimit:4;stroke-dasharray:none;stroke-dashoffset:0;stroke-opacity:1"
       id="rect819-3-6"
       width="61.33836"
       height="4.4099469"
       x="1.0808215"
       y="-15.567098"
       transform="scale(1,-1)"
       ry="1.2695299" />
    <circle
       style="display:inline;opacity:1;vector-effect:none;fill:#4e4e4e;fill-opacity:1;stroke:none;stroke-width:0.29451737;stroke-linecap:butt;stroke-linejoin:miter;stroke-miterlimit:4;stroke-dasharray:none;stroke-dashoffset:0;stroke-opacity:1"
       id="path890-3"
       cx="13.623351"
       cy="24.654264"
       r="1.8040693" />
    <circle
       style="display:inline;opacity:1;vector-effect:none;fill:#696969;fill-opacity:1;stroke:none;stroke-width:0.20725296;stroke-linecap:butt;stroke-linejoin:miter;stroke-miterlimit:4;stroke-dasharray:none;stroke-dashoffset:0;stroke-opacity:1"
       id="path890-3-5"
       cx="13.623351"
       cy="24.654264"
       r="1.2695302" />
    <circle
       style="display:inline;opacity:1;vector-effect:none;fill:#4e4e4e;fill-opacity:1;stroke:none;stroke-width:0.29451737;stroke-linecap:butt;stroke-linejoin:miter;stroke-miterlimit:4;stroke-dasharray:none;stroke-dashoffset:0;stroke-opacity:1"
       id="path890-3-6"
       cx="6.744185"
       cy="24.654264"
       r="1.8040693" />
    <circle
       style="display:inline;opacity:1;vector-effect:none;fill:#696969;fill-opacity:1;stroke:none;stroke-width:0.20725296;stroke-linecap:butt;stroke-linejoin:miter;stroke-miterlimit:4;stroke-dasharray:none;stroke-dashoffset:0;stroke-opacity:1"
       id="path890-3-5-2"
       cx="6.744185"
       cy="24.654264"
       r="1.2695302" />
    <rect
       style="display:inline;opacity:1;vector-effect:none;fill:#4f4f4f;fill-opacity:1;stroke:none;stroke-width:0.45063144;stroke-linecap:butt;stroke-linejoin:miter;stroke-miterlimit:4;stroke-dasharray:none;stroke-dashoffset:0;stroke-opacity:1"
       id="rect888"
       width="15.702085"
       height="4.6772165"
       x="2.5400593"
       y="20.244318"
       ry="2.3386083" />
    <circle
       style="display:inline;opacity:1;vector-effect:none;fill:#4e4e4e;fill-opacity:1;stroke:none;stroke-width:0.29451737;stroke-linecap:butt;stroke-linejoin:miter;stroke-miterlimit:4;stroke-dasharray:none;stroke-dashoffset:0;stroke-opacity:1"
       id="path890-3-9"
       cx="55.956692"
       cy="24.654264"
       r="1.8040693" />
    <circle
       style="display:inline;opacity:1;vector-effect:none;fill:#696969;fill-opacity:1;stroke:none;stroke-width:0.20725296;stroke-linecap:butt;stroke-linejoin:miter;stroke-miterlimit:4;stroke-dasharray:none;stroke-dashoffset:0;stroke-opacity:1"
       id="path890-3-5-1"
       cx="55.956692"
       cy="24.654264"
       r="1.2695302" />
    <circle
       style="display:inline;opacity:1;vector-effect:none;fill:#4e4e4e;fill-opacity:1;stroke:none;stroke-width:0.29451737;stroke-linecap:butt;stroke-linejoin:miter;stroke-miterlimit:4;stroke-dasharray:none;stroke-dashoffset:0;stroke-opacity:1"
       id="path890-3-6-2"
       cx="49.077522"
       cy="24.654264"
       r="1.8040693" />
    <circle
       style="display:inline;opacity:1;vector-effect:none;fill:#696969;fill-opacity:1;stroke:none;stroke-width:0.20725296;stroke-linecap:butt;stroke-linejoin:miter;stroke-miterlimit:4;stroke-dasharray:none;stroke-dashoffset:0;stroke-opacity:1"
       id="path890-3-5-2-7"
       cx="49.077522"
       cy="24.654264"
       r="1.2695302" />
    <rect
       style="display:inline;opacity:1;vector-effect:none;fill:#505050;fill-opacity:1;stroke:none;stroke-width:0.45063144;stroke-linecap:butt;stroke-linejoin:miter;stroke-miterlimit:4;stroke-dasharray:none;stroke-dashoffset:0;stroke-opacity:1"
       id="rect888-0"
       width="15.702085"
       height="4.6772165"
       x="44.873394"
       y="20.244318"
       ry="2.3386083" />
    <rect
       style="display:inline;opacity:1;vector-effect:none;fill:#555555;fill-opacity:1;stroke:none;stroke-width:0.34905761;stroke-linecap:butt;stroke-linejoin:miter;stroke-miterlimit:4;stroke-dasharray:none;stroke-dashoffset:0;stroke-opacity:1"
       id="rect819"
       width="62.006531"
       height="10.356694"
       x="0.74673462"
       y="12.693952" />
    <rect
       style="display:inline;opacity:1;vector-effect:none;fill:#34569a;fill-opacity:1;stroke:none;stroke-width:0.33850199;stroke-linecap:butt;stroke-linejoin:miter;stroke-miterlimit:4;stroke-dasharray:none;stroke-dashoffset:0;stroke-opacity:1"
       id="rect819-7"
       width="61.071087"
       height="9.8889723"
       x="1.2144562"
       y="12.693952" />
    <path
       style="display:inline;opacity:1;vector-effect:none;fill:#d8d8d8;fill-opacity:1;stroke:none;stroke-width:0.34905761;stroke-linecap:butt;stroke-linejoin:miter;stroke-miterlimit:4;stroke-dasharray:none;stroke-dashoffset:0;stroke-opacity:1"
       d="m 1.2144612,17.30437 v 5.278747 H 62.285668 V 17.30437 Z"
       id="rect870"
       inkscape:connector-curvature="0" />
    <rect
       style="display:inline;opacity:1;vector-effect:none;fill:#4f4f4f;fill-opacity:1;stroke:none;stroke-width:0.34905761;stroke-linecap:butt;stroke-linejoin:miter;stroke-miterlimit:4;stroke-dasharray:none;stroke-dashoffset:0;stroke-opacity:1"
       id="rect967"
       width="4.2763124"
       height="8.7530775"
       x="2.80633"
       y="13.233864"
       ry="0.93544304" />
    <rect
       style="display:inline;opacity:1;vector-effect:none;fill:#4f4f4f;fill-opacity:1;stroke:none;stroke-width:0.34905761;stroke-linecap:butt;stroke-linejoin:miter;stroke-miterlimit:4;stroke-dasharray:none;stroke-dashoffset:0;stroke-opacity:1"
       id="rect967-9"
       width="4.2763124"
       height="8.7530775"
       x="56.252167"
       y="13.233864"
       ry="0.93544304" />
    <path
       inkscape:connector-curvature="0"
       style="display:inline;opacity:1;vector-effect:none;fill:url(#linearGradient1062);fill-opacity:1;stroke:none;stroke-width:0.34905761;stroke-linecap:butt;stroke-linejoin:miter;stroke-miterlimit:4;stroke-dasharray:none;stroke-dashoffset:0;stroke-opacity:1"
       d="m 9.693982,13.167155 c -0.5182352,0 -0.9353434,0.417108 -0.9353434,0.935343 v 1.870687 c 0,0.518235 0.4171082,0.93586 0.9353434,0.93586 h 3.006535 c 0.518235,0 0.93586,-0.417625 0.93586,-0.93586 v -1.870687 c 0,-0.518235 -0.417625,-0.935343 -0.93586,-0.935343 z m 5.820833,0 c -0.518235,0 -0.935343,0.417108 -0.935343,0.935343 v 1.870687 c 0,0.518235 0.417108,0.93586 0.935343,0.93586 h 3.006535 c 0.518235,0 0.93586,-0.417625 0.93586,-0.93586 v -1.870687 c 0,-0.518235 -0.417625,-0.935343 -0.93586,-0.935343 z m 5.820834,0 c -0.518236,0 -0.935344,0.417108 -0.935344,0.935343 v 1.870687 c 0,0.518235 0.417108,0.93586 0.935344,0.93586 h 3.006534 c 0.518236,0 0.935344,-0.417625 0.935344,-0.93586 v -1.870687 c 0,-0.518235 -0.417108,-0.935343 -0.935344,-0.935343 z m 5.820832,0 c -0.518234,0 -0.935342,0.417108 -0.935342,0.935343 v 1.870687 c 0,0.518235 0.417108,0.93586 0.935342,0.93586 h 3.006535 c 0.518237,0 0.935344,-0.417625 0.935344,-0.93586 v -1.870687 c 0,-0.518235 -0.417107,-0.935343 -0.935344,-0.935343 z m 5.820834,0 c -0.518234,0 -0.935342,0.417108 -0.935342,0.935343 v 1.870687 c 0,0.518235 0.417108,0.93586 0.935342,0.93586 h 3.006534 c 0.518237,0 0.935345,-0.417625 0.935345,-0.93586 v -1.870687 c 0,-0.518235 -0.417108,-0.935343 -0.935345,-0.935343 z m 5.820833,0 c -0.518234,0 -0.935342,0.417108 -0.935342,0.935343 v 1.870687 c 0,0.518235 0.417108,0.93586 0.935342,0.93586 h 3.006535 c 0.518236,0 0.93586,-0.417625 0.93586,-0.93586 v -1.870687 c 0,-0.518235 -0.417624,-0.935343 -0.93586,-0.935343 z m 5.820833,0 c -0.518234,0 -0.935341,0.417108 -0.935341,0.935343 v 1.870687 c 0,0.518235 0.417107,0.93586 0.935341,0.93586 h 3.006535 c 0.518237,0 0.93586,-0.417625 0.93586,-0.93586 v -1.870687 c 0,-0.518235 -0.417623,-0.935343 -0.93586,-0.935343 z m 5.820834,0 c -0.518234,0 -0.935342,0.417108 -0.935342,0.935343 v 1.870687 c 0,0.518235 0.417108,0.93586 0.935342,0.93586 h 3.006534 c 0.518237,0 0.935861,-0.417625 0.935861,-0.93586 v -1.870687 c 0,-0.518235 -0.417624,-0.935343 -0.935861,-0.935343 z"
       id="rect984" />
    <rect
       style="display:inline;opacity:1;vector-effect:none;fill:#34569a;fill-opacity:1;stroke:none;stroke-width:0.30755174;stroke-linecap:butt;stroke-linejoin:miter;stroke-miterlimit:4;stroke-dasharray:none;stroke-dashoffset:0;stroke-opacity:1"
       id="rect967-9-7"
       width="3.6081386"
       height="8.0535831"
       x="56.586254"
       y="13.583611"
       ry="0.86068797" />
    <rect
       style="display:inline;opacity:1;vector-effect:none;fill:#34569a;fill-opacity:1;stroke:none;stroke-width:0.30755174;stroke-linecap:butt;stroke-linejoin:miter;stroke-miterlimit:4;stroke-dasharray:none;stroke-dashoffset:0;stroke-opacity:1"
       id="rect967-9-7-9"
       width="3.6081386"
       height="8.0535831"
       x="3.1404169"
       y="13.583611"
       ry="0.86068803" />
    <path
       inkscape:connector-curvature="0"
       style="display:inline;opacity:1;vector-effect:none;fill:#d8d8d8;fill-opacity:1;stroke:none;stroke-width:0.34905761;stroke-linecap:butt;stroke-linejoin:miter;stroke-miterlimit:4;stroke-dasharray:none;stroke-dashoffset:0;stroke-opacity:1"
       d="m 3.1403769,17.30437 v 3.472139 c 0,0.476821 0.384108,0.86093 0.8609293,0.86093 h 1.8867064 c 0.4768213,0 0.8604126,-0.384109 0.8604126,-0.86093 V 17.30437 Z"
       id="rect870-2" />
    <path
       inkscape:connector-curvature="0"
       style="display:inline;opacity:1;vector-effect:none;fill:#d8d8d8;fill-opacity:1;stroke:none;stroke-width:0.34905761;stroke-linecap:butt;stroke-linejoin:miter;stroke-miterlimit:4;stroke-dasharray:none;stroke-dashoffset:0;stroke-opacity:1"
       d="m 56.58621,17.30437 v 3.472139 c 0,0.476821 0.384109,0.86093 0.86093,0.86093 h 1.886707 c 0.476819,0 0.860412,-0.384109 0.860412,-0.86093 V 17.30437 Z"
       id="rect870-23" />
  </g>
</svg>
