<!--Created with Inkscape (http://www.inkscape.org/)--><svg xmlns:dc="http://purl.org/dc/elements/1.1/" xmlns:cc="http://creativecommons.org/ns#" xmlns:rdf="http://www.w3.org/1999/02/22-rdf-syntax-ns#" xmlns="http://www.w3.org/2000/svg" xmlns:sodipodi="http://sodipodi.sourceforge.net/DTD/sodipodi-0.dtd" xmlns:inkscape="http://www.inkscape.org/namespaces/inkscape" width="100" height="100" sodipodi:version="0.32" inkscape:version="0.91 r13725" version="1.0" sodipodi:docname="hexagon.svg"><sodipodi:namedview pagecolor="#ffffff" bordercolor="#666666" borderopacity="1.0" inkscape:pageopacity="0.0" inkscape:pageshadow="2" inkscape:zoom="4.1324561" inkscape:cx="-30.968427" inkscape:cy="10.925113" inkscape:document-units="px" inkscape:current-layer="layer1" height="100px" width="100px" inkscape:window-width="1880" inkscape:window-height="1060" inkscape:window-x="-3" inkscape:window-y="-3" showgrid="false" inkscape:window-maximized="1"/><metadata><rdf:RDF><cc:Work><dc:format>image/svg+xml</dc:format><dc:type rdf:resource="http://purl.org/dc/dcmitype/StillImage"/><dc:title/><dc:date>2015</dc:date><dc:creator><cc:Agent><dc:title>Timothée Giet</dc:title></cc:Agent></dc:creator><cc:license rdf:resource="http://creativecommons.org/licenses/by-sa/4.0/"/></cc:Work><cc:License rdf:about="http://creativecommons.org/licenses/by-sa/4.0/"><cc:permits rdf:resource="http://creativecommons.org/ns#Reproduction"/><cc:permits rdf:resource="http://creativecommons.org/ns#Distribution"/><cc:requires rdf:resource="http://creativecommons.org/ns#Notice"/><cc:requires rdf:resource="http://creativecommons.org/ns#Attribution"/><cc:permits rdf:resource="http://creativecommons.org/ns#DerivativeWorks"/><cc:requires rdf:resource="http://creativecommons.org/ns#ShareAlike"/></cc:License></rdf:RDF></metadata><g inkscape:label="Calque 1" inkscape:groupmode="layer"><path style="color:#000;clip-rule:nonzero;display:inline;overflow:visible;visibility:visible;opacity:1;isolation:auto;mix-blend-mode:normal;color-interpolation:sRGB;color-interpolation-filters:linearRGB;solid-color:#000;solid-opacity:1;fill:#f0b858;fill-opacity:1;fill-rule:nonzero;stroke:none;stroke-width:.5;stroke-linecap:round;stroke-linejoin:round;stroke-miterlimit:4;stroke-dasharray:none;stroke-dashoffset:0;stroke-opacity:1;marker:none;color-rendering:auto;image-rendering:auto;shape-rendering:auto;text-rendering:auto;enable-background:accumulate" d="M66.111 33.906c-4.312 1.929-10.065 4.07-8.41 9.97-1.421 4.752 2.034 7.168 6.115 8.24 3.906 3.16 8.286 1.411 12.233-.71 5.498-1.54 3.128-8.495 3.836-12.74-1.875-3.472-7.14-3.022-10.196-5.49-1.312-.293-2.42.17-3.578.73z" inkscape:connector-curvature="0"/><path style="color:#000;clip-rule:nonzero;display:inline;overflow:visible;visibility:visible;opacity:1;isolation:auto;mix-blend-mode:normal;color-interpolation:sRGB;color-interpolation-filters:linearRGB;solid-color:#000;solid-opacity:1;fill:#44b2e9;fill-opacity:1;fill-rule:nonzero;stroke:none;stroke-width:.5;stroke-linecap:round;stroke-linejoin:round;stroke-miterlimit:4;stroke-dasharray:none;stroke-dashoffset:0;stroke-opacity:1;marker:none;color-rendering:auto;image-rendering:auto;shape-rendering:auto;text-rendering:auto;enable-background:accumulate" d="M76.336 51.248c-4.473 1.78-9.618 4.375-8.094 10.08-1.354 4.562 1.97 6.919 6.018 7.951 4.642 3.948 9.76.394 14.41-1.543 2.476-3.711 1.666-9.28.894-13.41-4.36-.738-8.912-5.636-13.228-3.078z" inkscape:connector-curvature="0"/><path style="color:#000;clip-rule:nonzero;display:inline;overflow:visible;visibility:visible;opacity:1;isolation:auto;mix-blend-mode:normal;color-interpolation:sRGB;color-interpolation-filters:linearRGB;solid-color:#000;solid-opacity:1;fill:#f09758;fill-opacity:1;fill-rule:nonzero;stroke:none;stroke-width:.5;stroke-linecap:round;stroke-linejoin:round;stroke-miterlimit:4;stroke-dasharray:none;stroke-dashoffset:0;stroke-opacity:1;marker:none;color-rendering:auto;image-rendering:auto;shape-rendering:auto;text-rendering:auto;enable-background:accumulate" d="M54.672 51.086c-3.824 1.963-9.915 3.549-8.403 9.072-.62 3.865-.219 8.024 4.516 8.475 3.714 1.984 7.756 3.964 11.596.9 3.976-.716 6.67-3.613 5.824-7.773.75-4.372.06-8.894-5.248-9.194-2.803-.78-5.34-3.665-8.285-1.48z" inkscape:connector-curvature="0"/><path style="color:#000;clip-rule:nonzero;display:inline;overflow:visible;visibility:visible;opacity:1;isolation:auto;mix-blend-mode:normal;color-interpolation:sRGB;color-interpolation-filters:linearRGB;solid-color:#000;solid-opacity:1;fill:#f09758;fill-opacity:1;fill-rule:nonzero;stroke:none;stroke-width:.5;stroke-linecap:round;stroke-linejoin:round;stroke-miterlimit:4;stroke-dasharray:none;stroke-dashoffset:0;stroke-opacity:1;marker:none;color-rendering:auto;image-rendering:auto;shape-rendering:auto;text-rendering:auto;enable-background:accumulate" d="M43.9 68.344c-4.583 1.84-9.87 4.492-8.198 10.379-1.052 3.552.77 6.541 4.485 7.023 3.565 1.777 7.46 4.08 11.17 1.158 5.005-.673 7.097-4.748 6.331-9.373 1.614-5.14-2.202-7.307-6.462-8.312-2.463-1.057-4.664-2.869-7.326-.875z" inkscape:connector-curvature="0"/><path style="color:#000;clip-rule:nonzero;display:inline;overflow:visible;visibility:visible;opacity:1;isolation:auto;mix-blend-mode:normal;color-interpolation:sRGB;color-interpolation-filters:linearRGB;solid-color:#000;solid-opacity:1;fill:#e86e41;fill-opacity:1;fill-rule:nonzero;stroke:none;stroke-width:.5;stroke-linecap:round;stroke-linejoin:round;stroke-miterlimit:4;stroke-dasharray:none;stroke-dashoffset:0;stroke-opacity:1;marker:none;color-rendering:auto;image-rendering:auto;shape-rendering:auto;text-rendering:auto;enable-background:accumulate" d="M32.42 51.205c-3.666 1.923-9.653 3.37-8.21 8.838-1.355 4.954 1.266 8.394 6.053 9.24 3.853 3.016 8.188 1.685 12.086-.567 5.8-1.551 3.736-9.41 3.484-13.811-3.18-2.04-7.498-3.588-11.296-4.596l-2.117.896z" inkscape:connector-curvature="0"/><path style="color:#000;clip-rule:nonzero;display:inline;overflow:visible;visibility:visible;opacity:1;isolation:auto;mix-blend-mode:normal;color-interpolation:sRGB;color-interpolation-filters:linearRGB;solid-color:#000;solid-opacity:1;fill:#44b2e9;fill-opacity:1;fill-rule:nonzero;stroke:none;stroke-width:.5;stroke-linecap:round;stroke-linejoin:round;stroke-miterlimit:4;stroke-dasharray:none;stroke-dashoffset:0;stroke-opacity:1;marker:none;color-rendering:auto;image-rendering:auto;shape-rendering:auto;text-rendering:auto;enable-background:accumulate" d="M43.795 34.057c-4 1.893-9.734 3.843-8.09 9.466-.842 3.714.35 7.427 4.592 7.914 3.863 2.097 8.13 4.121 12.11.672 7.046-.783 5.03-8.491 5.405-13.433-1.857-3.471-7.043-3.111-10.113-5.514-1.445-.341-2.636.315-3.904.895z" inkscape:connector-curvature="0"/><path style="color:#000;clip-rule:nonzero;display:inline;overflow:visible;visibility:visible;opacity:1;isolation:auto;mix-blend-mode:normal;color-interpolation:sRGB;color-interpolation-filters:linearRGB;solid-color:#000;solid-opacity:1;fill:#44b2e9;fill-opacity:1;fill-rule:nonzero;stroke:none;stroke-width:.5;stroke-linecap:round;stroke-linejoin:round;stroke-miterlimit:4;stroke-dasharray:none;stroke-dashoffset:0;stroke-opacity:1;marker:none;color-rendering:auto;image-rendering:auto;shape-rendering:auto;text-rendering:auto;enable-background:accumulate" d="M65.957 68.326c-3.73 1.894-9.668 3.471-8.239 8.939-1.294 4.737.962 8.156 5.677 8.997 3.335 2.231 7.118 2.852 10.568.375 3.722-.799 6.695-3.424 5.702-7.543.496-3.56.933-8.634-3.976-8.93-3.314-.7-6.344-4.306-9.732-1.838z" inkscape:connector-curvature="0"/><path style="color:#000;clip-rule:nonzero;display:inline;overflow:visible;visibility:visible;opacity:1;isolation:auto;mix-blend-mode:normal;color-interpolation:sRGB;color-interpolation-filters:linearRGB;solid-color:#000;solid-opacity:1;fill:#44b2e9;fill-opacity:1;fill-rule:nonzero;stroke:none;stroke-width:.5;stroke-linecap:round;stroke-linejoin:round;stroke-miterlimit:4;stroke-dasharray:none;stroke-dashoffset:0;stroke-opacity:1;marker:none;color-rendering:auto;image-rendering:auto;shape-rendering:auto;text-rendering:auto;enable-background:accumulate" d="M22.092 33.926c-3.848 1.922-9.859 3.61-8.334 9.113-.585 3.826-.17 7.915 4.609 8.428 3.812 2.086 7.879 3.817 11.804.737 4.9-.38 6.195-4.805 5.513-8.954.98-3.926-.484-7.495-4.995-7.785-2.918-.809-5.513-3.826-8.597-1.54z" inkscape:connector-curvature="0"/><path style="color:#000;clip-rule:nonzero;display:inline;overflow:visible;visibility:visible;opacity:1;isolation:auto;mix-blend-mode:normal;color-interpolation:sRGB;color-interpolation-filters:linearRGB;solid-color:#000;solid-opacity:1;fill:#44b2e9;fill-opacity:1;fill-rule:nonzero;stroke:none;stroke-width:.5;stroke-linecap:round;stroke-linejoin:round;stroke-miterlimit:4;stroke-dasharray:none;stroke-dashoffset:0;stroke-opacity:1;marker:none;color-rendering:auto;image-rendering:auto;shape-rendering:auto;text-rendering:auto;enable-background:accumulate" d="M21.937 68.334c-3.713 1.887-9.617 3.48-8.202 8.925-.772 3.98-.053 8.067 4.651 8.57 3.678 2.223 7.761 3.676 11.575.81 7.293-.797 5.584-8.452 5.843-13.653-2.127-3.534-7.663-3.63-11.085-5.51-1.021-.252-1.844.627-2.782.858z" inkscape:connector-curvature="0"/><path style="fill:#383838;fill-opacity:1;fill-rule:evenodd;stroke:none" d="m24.978 66.209-5.004 2.22-7.23 2.255c.123 3.4.059 11.068.005 14.468l7.459 3.007 4.623 1.924 4.07-1.998 7.716-2.133c.166-3.954.158-11.732.036-15.684l-6.905-2.276zm-.141 2.959 3.565 1.88 5.514 1.888-.067 6.08-.35 4.075-4.328 1.82-4.334 1.82-4.537-2.195-4.82-1.942.21-4.39-.068-4.395 4.887-2.822z" inkscape:connector-curvature="0" sodipodi:nodetypes="cccccccccccccccccccccccc"/><path style="fill:#383838;fill-opacity:1;fill-rule:evenodd;stroke:none" d="m46.978 66.209-5.004 2.22-7.23 2.255c.123 3.4.059 11.068.005 14.468l7.459 3.007 4.623 1.924 4.07-1.998 7.716-2.133c.166-3.954.158-11.732.036-15.684l-6.905-2.276zm-.141 2.959 3.565 1.88 5.514 1.888-.067 6.08-.35 4.075-4.328 1.82-4.334 1.82-4.537-2.195-4.82-1.942.21-4.39-.068-4.395 4.887-2.822z" inkscape:connector-curvature="0" sodipodi:nodetypes="cccccccccccccccccccccccc"/><path style="fill:#383838;fill-opacity:1;fill-rule:evenodd;stroke:none" d="m68.978 66.209-5.004 2.22-7.23 2.255c.123 3.4.059 11.068.005 14.468l7.459 3.007 4.623 1.924 4.07-1.998 7.716-2.133c.166-3.954.158-11.732.036-15.684l-6.905-2.276zm-.141 2.959 3.565 1.88 5.514 1.888-.067 6.08-.35 4.075-4.328 1.82-4.334 1.82-4.537-2.195-4.82-1.942.21-4.39-.068-4.395 4.887-2.822z" inkscape:connector-curvature="0" sodipodi:nodetypes="cccccccccccccccccccccccc"/><path style="fill:#383838;fill-opacity:1;fill-rule:evenodd;stroke:none" d="m35.492 49.064-5.004 2.22-7.231 2.256c.123 3.4.06 11.067.006 14.467l7.458 3.007 4.623 1.925 4.07-1.998 7.716-2.133c.166-3.954.159-11.732.037-15.684l-6.905-2.277zm-.142 2.96 3.566 1.88 5.514 1.888-.068 6.08-.35 4.075-4.328 1.82-4.334 1.82-4.536-2.195-4.82-1.943.21-4.39-.069-4.394 4.888-2.822z" inkscape:connector-curvature="0" sodipodi:nodetypes="cccccccccccccccccccccccc"/><path style="fill:#383838;fill-opacity:1;fill-rule:evenodd;stroke:none" d="m57.492 49.064-5.004 2.22-7.231 2.256c.123 3.4.06 11.067.006 14.467l7.458 3.007 4.623 1.925 4.07-1.998 7.716-2.133c.166-3.954.159-11.732.037-15.684l-6.905-2.277zm-.142 2.96 3.566 1.88 5.514 1.888-.068 6.08-.35 4.075-4.328 1.82-4.334 1.82-4.536-2.195-4.82-1.943.21-4.39-.069-4.394 4.888-2.822z" inkscape:connector-curvature="0" sodipodi:nodetypes="cccccccccccccccccccccccc"/><path style="fill:#383838;fill-opacity:1;fill-rule:evenodd;stroke:none" d="m79.492 49.064-5.004 2.22-7.231 2.256c.123 3.4.06 11.067.006 14.467l7.458 3.007 4.623 1.925 4.07-1.998 7.716-2.133c.166-3.954.159-11.732.037-15.684l-6.905-2.277zm-.142 2.96 3.566 1.88 5.514 1.888-.068 6.08-.35 4.075-4.328 1.82-4.334 1.82-4.536-2.195-4.82-1.943.21-4.39-.069-4.394 4.888-2.822z" inkscape:connector-curvature="0" sodipodi:nodetypes="cccccccccccccccccccccccc"/><path style="fill:#383838;fill-opacity:1;fill-rule:evenodd;stroke:none" d="m24.978 31.867-5.004 2.219-7.23 2.256c.123 3.4.059 11.067.005 14.467l7.459 3.008 4.623 1.924 4.07-1.998 7.716-2.133c.166-3.954.158-11.732.036-15.684l-6.905-2.277zm-.141 2.959 3.565 1.88 5.514 1.888-.067 6.08-.35 4.075-4.328 1.82-4.334 1.82-4.537-2.195-4.82-1.943.21-4.389-.068-4.395 4.887-2.822z" inkscape:connector-curvature="0" sodipodi:nodetypes="cccccccccccccccccccccccc"/><path style="fill:#383838;fill-opacity:1;fill-rule:evenodd;stroke:none" d="m46.978 31.867-5.004 2.219-7.23 2.256c.123 3.4.059 11.067.005 14.467l7.459 3.008 4.623 1.924 4.07-1.998 7.716-2.133c.166-3.954.158-11.732.036-15.684l-6.905-2.277zm-.141 2.959 3.565 1.88 5.514 1.888-.067 6.08-.35 4.075-4.328 1.82-4.334 1.82-4.537-2.195-4.82-1.943.21-4.389-.068-4.395 4.887-2.822z" inkscape:connector-curvature="0" sodipodi:nodetypes="cccccccccccccccccccccccc"/><path style="fill:#383838;fill-opacity:1;fill-rule:evenodd;stroke:none" d="m68.978 31.867-5.004 2.219-7.23 2.256c.123 3.4.059 11.067.005 14.467l7.459 3.008 4.623 1.924 4.07-1.998 7.716-2.133c.166-3.954.158-11.732.036-15.684l-6.905-2.277zm-.141 2.959 3.565 1.88 5.514 1.888-.067 6.08-.35 4.075-4.328 1.82-4.334 1.82-4.537-2.195-4.82-1.943.21-4.389-.068-4.395 4.887-2.822z" inkscape:connector-curvature="0" sodipodi:nodetypes="cccccccccccccccccccccccc"/><path sodipodi:type="star" style="fill:#f6e086;fill-opacity:1;fill-rule:evenodd;stroke:none;stroke-width:2;stroke-linecap:butt;stroke-linejoin:bevel;stroke-miterlimit:4;stroke-dasharray:none;stroke-dashoffset:0;stroke-opacity:1" sodipodi:sides="5" sodipodi:cx="-91.713013" sodipodi:cy="24.25812" sodipodi:r1="12.457035" sodipodi:r2="6.2285171" sodipodi:arg1="1.0636978" sodipodi:arg2="1.6920164" inkscape:flatsided="false" inkscape:rounded="0" inkscape:randomized="0" d="m-85.663 35.148-6.803-4.707-7.734 2.936 2.374-7.925-5.182-6.448 8.27-.19 4.531-6.922 2.737 7.807 7.983 2.17-6.579 5.016z" transform="matrix(.51448 0 0 .5107 82.368 48.58)"/></g></svg>