<!--Created with Inkscape (http://www.inkscape.org/)--><svg xmlns:dc="http://purl.org/dc/elements/1.1/" xmlns:cc="http://creativecommons.org/ns#" xmlns:rdf="http://www.w3.org/1999/02/22-rdf-syntax-ns#" xmlns="http://www.w3.org/2000/svg" xmlns:sodipodi="http://sodipodi.sourceforge.net/DTD/sodipodi-0.dtd" xmlns:inkscape="http://www.inkscape.org/namespaces/inkscape" width="66.246666mm" height="39.839043mm" viewBox="0 0 234.73228 141.16196" inkscape:version="0.92.1 r15371" sodipodi:docname="M-wood.svg"><sodipodi:namedview pagecolor="#ffffff" bordercolor="#666666" borderopacity="1.0" inkscape:pageopacity="0.0" inkscape:pageshadow="2" inkscape:zoom="1.979899" inkscape:cx="10.160817" inkscape:cy="77.669275" inkscape:document-units="px" inkscape:current-layer="layer1" showgrid="false" fit-margin-top="0" fit-margin-left="0" fit-margin-right="0" fit-margin-bottom="0" inkscape:window-width="1884" inkscape:window-height="1051" inkscape:window-x="0" inkscape:window-y="0" inkscape:window-maximized="1"/><metadata><rdf:RDF><cc:Work><dc:format>image/svg+xml</dc:format><dc:type rdf:resource="http://purl.org/dc/dcmitype/StillImage"/><dc:title/><dc:date>2017</dc:date><dc:creator><cc:Agent><dc:title>Timothée Giet</dc:title></cc:Agent></dc:creator><cc:license rdf:resource="http://creativecommons.org/licenses/by-sa/4.0/"/></cc:Work><cc:License rdf:about="http://creativecommons.org/licenses/by-sa/4.0/"><cc:permits rdf:resource="http://creativecommons.org/ns#Reproduction"/><cc:permits rdf:resource="http://creativecommons.org/ns#Distribution"/><cc:requires rdf:resource="http://creativecommons.org/ns#Notice"/><cc:requires rdf:resource="http://creativecommons.org/ns#Attribution"/><cc:permits rdf:resource="http://creativecommons.org/ns#DerivativeWorks"/><cc:requires rdf:resource="http://creativecommons.org/ns#ShareAlike"/></cc:License></rdf:RDF></metadata><path style="fill:#999;stroke-width:1.06666672;fill-opacity:1" d="M95.094 0a4.924 4.924 0 0 0-4.938 4.934l-.01 16.421-34.128-.039c-1.294-.001-2.338 2.198-2.338 4.932l-.002 10.703c0 1.983.55 3.674 1.345 4.461-1.119.663-1.925 2.478-1.925 4.649l-.002 10.703c-.001 2.734 1.268 4.936 2.845 4.937l1.2.002a4.92 4.92 0 0 0-4.051 4.85l-.006 10.703a4.924 4.924 0 0 0 4.93 4.937l-10.284-.005c-9.05-.005-9.06 16.453-.01 16.458l-19.31-.01a6.158 6.158 0 0 0-6.11-4.044l-16.439.83a6.158 6.158 0 0 0-5.853 6.474l.31 6.165a6.158 6.158 0 0 0 6.475 5.853l16.44-.828a6.155 6.155 0 0 0 5.527-4.162l36.81.02a36.264 36.264 0 0 0-.431 5.554c-.011 19.885 16.1 36.013 35.984 36.023 19.885.011 36.013-16.1 36.023-35.984a36.257 36.257 0 0 0-.425-5.555l21.431.012a36.265 36.265 0 0 0-.431 5.555c-.011 19.885 16.1 36.012 35.984 36.023 19.885.011 36.015-16.1 36.025-35.984a36.259 36.259 0 0 0-.425-5.555l8.925.004c4.111.002 4.119-10.265.016-10.287l5.344.004c9.05.005 9.058-16.454.008-16.46l-33.948-.019 25.72.014a4.923 4.923 0 0 0 4.937-4.932l.006-10.703a4.924 4.924 0 0 0-4.934-4.937l-30.871-.018.02-21.183c0-1.627-2.2-2.937-4.934-2.938l-12.76-.004c-2.734 0-4.938 1.308-4.94 2.934l-.019 21.18-23.02-.014c1.276-.49 2.227-2.446 2.227-4.809l.004-10.703c0-2.734-1.269-4.936-2.846-4.937l-17.043-.016c.65-.874 1.084-2.4 1.084-4.156l.002-10.701c0-2.735-1.04-4.939-2.334-4.94l-27.172-.031.01-16.436a4.924 4.924 0 0 0-4.933-4.937L95.094 0zm21.972 82.225 60.77.033-.004.002-60.766-.035z" transform="scale(.9375)" inkscape:label="Calque 1" inkscape:groupmode="layer"/></svg>