<!--Created with Inkscape (http://www.inkscape.org/)--><svg xmlns:dc="http://purl.org/dc/elements/1.1/" xmlns:cc="http://creativecommons.org/ns#" xmlns:rdf="http://www.w3.org/1999/02/22-rdf-syntax-ns#" xmlns="http://www.w3.org/2000/svg" xmlns:xlink="http://www.w3.org/1999/xlink" xmlns:sodipodi="http://sodipodi.sourceforge.net/DTD/sodipodi-0.dtd" xmlns:inkscape="http://www.inkscape.org/namespaces/inkscape" width="60" height="36" inkscape:version="0.91 r13725" sodipodi:docname="gold_nugget.svg"><defs><radialGradient inkscape:collect="always" xlink:href="#a" id="b" gradientUnits="userSpaceOnUse" gradientTransform="matrix(.05674 .25089 -.56824 .12925 797.646 663.163)" cx="-624.74622" cy="386.52124" fx="-624.74622" fy="386.52124" r="76.704979"/><radialGradient inkscape:collect="always" xlink:href="#a" id="c" gradientUnits="userSpaceOnUse" gradientTransform="matrix(.00739 .15717 -.30136 .0534 768.609 696.816)" cx="-1084.3376" cy="688.13416" fx="-1084.3376" fy="688.13416" r="76.704979"/><linearGradient id="a"><stop offset="0" style="stop-color:#fffcdc;stop-opacity:0"/><stop style="stop-color:#fffcdc;stop-opacity:0" offset="0.78899086"/><stop offset="1" style="stop-color:#fffcdc;stop-opacity:1"/></linearGradient></defs><sodipodi:namedview pagecolor="#ffffff" bordercolor="#666666" borderopacity="1.0" inkscape:pageopacity="0.0" inkscape:pageshadow="2" inkscape:zoom="5.6" inkscape:cx="16.833178" inkscape:cy="17.584984" inkscape:document-units="px" inkscape:current-layer="layer1" showgrid="false" borderlayer="true" fit-margin-top="0" fit-margin-left="0" fit-margin-right="0" fit-margin-bottom="0" inkscape:window-width="1880" inkscape:window-height="1060" inkscape:window-x="-2" inkscape:window-y="-3" inkscape:window-maximized="1"/><metadata><rdf:RDF><cc:Work><dc:format>image/svg+xml</dc:format><dc:type rdf:resource="http://purl.org/dc/dcmitype/StillImage"/><dc:title/><dc:date>2015</dc:date><dc:creator><cc:Agent><dc:title>Timothée Giet</dc:title></cc:Agent></dc:creator><cc:license rdf:resource="http://creativecommons.org/licenses/by-sa/4.0/"/></cc:Work><cc:License rdf:about="http://creativecommons.org/licenses/by-sa/4.0/"><cc:permits rdf:resource="http://creativecommons.org/ns#Reproduction"/><cc:permits rdf:resource="http://creativecommons.org/ns#Distribution"/><cc:requires rdf:resource="http://creativecommons.org/ns#Notice"/><cc:requires rdf:resource="http://creativecommons.org/ns#Attribution"/><cc:permits rdf:resource="http://creativecommons.org/ns#DerivativeWorks"/><cc:requires rdf:resource="http://creativecommons.org/ns#ShareAlike"/></cc:License></rdf:RDF></metadata><g inkscape:label="Calque 1" inkscape:groupmode="layer"><path style="color:#000;display:inline;overflow:visible;visibility:visible;fill:#f4bf00;fill-opacity:1;stroke:none;stroke-width:1;marker:none;enable-background:accumulate" d="M568.152 554.036c2.37 9.302-16.975 19.183-31.615 19.183-14.64 0-27.236-3.013-26.507-17.42.487-9.608 12.84-18.68 26.507-17.42 14.582 1.344 25.238-9.376 31.615 15.657z" inkscape:connector-curvature="0" sodipodi:nodetypes="sssss" transform="translate(-510 -537.22)"/><path style="color:#000;display:inline;overflow:visible;visibility:visible;fill:#ffec39;fill-opacity:1;stroke:none;stroke-width:1;marker:none;enable-background:accumulate" d="M565.312 553.546c2.16 8.24-15.468 16.991-28.808 16.991s-24.82-2.668-24.155-15.43c.443-8.509 11.7-16.544 24.155-15.428 13.287 1.19 22.998-8.305 28.808 13.867z" inkscape:connector-curvature="0" sodipodi:nodetypes="sssss" transform="translate(-510 -537.22)"/><path style="color:#000;display:inline;overflow:visible;visibility:visible;fill:url(#b);fill-opacity:1;fill-rule:nonzero;stroke:none;stroke-width:.68601674;marker:none;enable-background:accumulate" d="M565.312 553.546c2.16 8.24-15.468 16.991-28.808 16.991s-24.82-2.668-24.155-15.43c.443-8.509 11.7-16.544 24.155-15.428 13.287 1.19 22.998-8.305 28.808 13.867z" inkscape:connector-curvature="0" sodipodi:nodetypes="sssss" transform="translate(-510 -537.22)"/><path style="color:#000;display:inline;overflow:visible;visibility:visible;fill:#f4bf00;fill-opacity:1;fill-rule:nonzero;stroke:none;stroke-width:.93174636;marker:none;enable-background:accumulate" d="M570 563.527c0 5.16-3.072 8.39-15.254 6.864-12.058-1.51-18.766-.178-22.058-9.343-1.77-4.926 4.169-6.865 22.058-9.344 12.03-1.667 15.254 6.662 15.254 11.823z" inkscape:connector-curvature="0" sodipodi:nodetypes="sssss" transform="translate(-510 -537.22)"/><path style="color:#000;display:inline;overflow:visible;visibility:visible;fill:#ffec39;fill-opacity:1;fill-rule:nonzero;stroke:none;stroke-width:.93174636;marker:none;enable-background:accumulate" d="M566.964 562.54c0 4.187-2.62 6.808-13.009 5.57-10.283-1.225-16.003-.145-18.811-7.583-1.51-3.997 3.555-5.57 18.811-7.582 10.26-1.353 13.01 5.406 13.01 9.594z" inkscape:connector-curvature="0" sodipodi:nodetypes="sssss" transform="translate(-510 -537.22)"/><path style="color:#000;display:inline;overflow:visible;visibility:visible;opacity:.6;fill:url(#c);fill-opacity:1;fill-rule:nonzero;stroke:none;stroke-width:.68601674;marker:none;enable-background:accumulate" d="M566.964 562.54c0 4.187-2.62 6.808-13.009 5.57-10.283-1.225-16.003-.145-18.811-7.583-1.51-3.997 3.555-5.57 18.811-7.582 10.26-1.353 13.01 5.406 13.01 9.594z" inkscape:connector-curvature="0" sodipodi:nodetypes="sssss" transform="translate(-510 -537.22)"/></g></svg>