<?xml version="1.0" encoding="UTF-8" standalone="no"?>
<!-- Created with Inkscape (http://www.inkscape.org/) -->

<svg
   xmlns:dc="http://purl.org/dc/elements/1.1/"
   xmlns:cc="http://creativecommons.org/ns#"
   xmlns:rdf="http://www.w3.org/1999/02/22-rdf-syntax-ns#"
   xmlns:svg="http://www.w3.org/2000/svg"
   xmlns="http://www.w3.org/2000/svg"
   xmlns:sodipodi="http://sodipodi.sourceforge.net/DTD/sodipodi-0.dtd"
   xmlns:inkscape="http://www.inkscape.org/namespaces/inkscape"
   sodipodi:docname="rockwall.svg"
   inkscape:version="0.91 r13725"
   version="1.1"
   id="svg2"
   height="520"
   width="800">
  <sodipodi:namedview
     fit-margin-bottom="0"
     fit-margin-right="0"
     fit-margin-left="0"
     fit-margin-top="0"
     borderlayer="true"
     inkscape:guide-bbox="true"
     showguides="true"
     inkscape:window-maximized="1"
     inkscape:window-y="-3"
     inkscape:window-x="-2"
     inkscape:window-height="1060"
     inkscape:window-width="1880"
     showgrid="false"
     inkscape:current-layer="BACKGROUND"
     inkscape:document-units="px"
     inkscape:cy="274.23989"
     inkscape:cx="566.87581"
     inkscape:zoom="0.70982643"
     inkscape:pageshadow="2"
     inkscape:pageopacity="0.0"
     borderopacity="1.0"
     bordercolor="#666666"
     pagecolor="#ffffff"
     id="base" />
  <defs
     id="defs4" />
  <metadata
     id="metadata7">
    <rdf:RDF>
      <cc:Work
         rdf:about="">
        <dc:format>image/svg+xml</dc:format>
        <dc:type
           rdf:resource="http://purl.org/dc/dcmitype/StillImage" />
        <dc:title></dc:title>
        <dc:date>2015</dc:date>
        <dc:creator>
          <cc:Agent>
            <dc:title>Timothée Giet</dc:title>
          </cc:Agent>
        </dc:creator>
        <cc:license
           rdf:resource="http://creativecommons.org/licenses/by-sa/4.0/" />
      </cc:Work>
      <cc:License
         rdf:about="http://creativecommons.org/licenses/by-sa/4.0/">
        <cc:permits
           rdf:resource="http://creativecommons.org/ns#Reproduction" />
        <cc:permits
           rdf:resource="http://creativecommons.org/ns#Distribution" />
        <cc:requires
           rdf:resource="http://creativecommons.org/ns#Notice" />
        <cc:requires
           rdf:resource="http://creativecommons.org/ns#Attribution" />
        <cc:permits
           rdf:resource="http://creativecommons.org/ns#DerivativeWorks" />
        <cc:requires
           rdf:resource="http://creativecommons.org/ns#ShareAlike" />
      </cc:License>
    </rdf:RDF>
  </metadata>
  <g
     inkscape:label="#BACKGROUND"
     inkscape:groupmode="layer"
     id="BACKGROUND"
     transform="translate(-14.9375,-516.0625)"
     style="display:inline">
    <path
       style="color:#000000;display:inline;overflow:visible;visibility:visible;fill:#d79320;fill-opacity:1;stroke:none;stroke-width:0.10798467;stroke-linecap:round;stroke-linejoin:miter;stroke-miterlimit:4;stroke-dashoffset:0;stroke-opacity:1;marker:none;enable-background:accumulate"
       d="M -0.50471716,764.16041 C 266.97286,730.64833 569.79399,767.66909 830.37905,698.72568 L 827.56146,507.6663 0.90407795,506.2575 c 2.03168365,72.39119 -1.40879511,186.33473 -1.40879511,257.90291 z"
       id="rect3800"
       inkscape:connector-curvature="0"
       sodipodi:nodetypes="ccccc" />
    <path
       inkscape:connector-curvature="0"
       style="color:#000000;display:inline;overflow:visible;visibility:visible;fill:#df9e32;fill-opacity:1;fill-rule:nonzero;stroke:none;stroke-width:0.10497186;stroke-linecap:round;stroke-linejoin:miter;stroke-miterlimit:4;stroke-dasharray:none;stroke-dashoffset:0;stroke-opacity:1;marker:none;enable-background:accumulate"
       d="m 805.7047,649.98134 c -0.34199,0.1074 -3.88634,1.88097 -11.58327,4.07769 -8.02722,2.29098 -8.39008,-8.75593 -23.10989,-5.07263 -7.36005,1.84167 -9.51677,8.12883 -18.29955,10.15006 -8.78292,2.02122 -34.17563,16.06745 -44.21465,18.15593 -10.03897,2.08849 -22.6001,-5.652 -33.72856,-3.6086 -11.12824,2.0434 -22.17083,2.6527 -34.22171,4.53871 -12.05071,1.88597 -6.90568,3.41383 -19.71223,5.03008 -12.80644,1.61624 -24.73425,7.07403 -38.12963,8.30818 -13.39534,1.23416 -46.84152,4.86127 -60.65897,5.601 -13.81733,0.73973 -27.18762,-4.35966 -41.26025,-4.22665 -7.03625,0.0664 -13.19269,-1.63332 -20.26151,-1.73952 -7.06879,-0.10627 -3.34882,14.90412 -10.42939,14.61107 -7.08043,-0.29304 -12.39764,-19.43661 -19.46896,-19.93047 -7.07132,-0.49389 -15.4972,-1.59981 -22.5385,-2.30858 -7.04128,-0.70875 -24.12697,1.06613 -31.11735,0.12847 -6.99045,-0.93767 -16.55649,2.99174 -23.47525,1.81111 -6.91865,-1.18063 -13.78651,1.58822 -20.61261,0.15058 -6.82608,-1.4376 0.82127,-13.95515 -5.89137,-15.66381 -5.27003,-1.34146 -24.25012,10.43918 -29.4594,9.38251 -5.20926,-1.05668 5.63177,1.14255 0.48997,0.35498 -5.14179,-0.78759 -25.43628,-3.07222 -30.5039,-3.60636 -5.06759,-0.53414 8.08458,-7.89173 3.09784,-8.1881 -4.98673,-0.29636 -23.9006,10.01439 -28.79977,9.94012 -4.89914,-0.0741 0.96144,-16.63619 -3.84341,-16.50409 -4.80488,0.13218 -7.17697,12.11534 -11.88086,12.43827 -4.70387,0.32295 -19.76672,6.33831 -24.36291,6.83635 -4.59618,0.49804 -14.81081,-1.7352 -19.29259,-1.07773 -4.48177,0.65745 -3.17736,-15.61417 -7.53804,-14.81295 -8.72132,1.60245 -9.99926,5.28176 -18.19592,7.36527 -8.19667,2.08348 -12.01038,13.29659 -19.62878,15.73577 -7.61836,2.4392 -16.98438,-1.88113 -23.97083,0.78842 -6.98645,2.66953 -31.449616,10.04053 -37.750492,12.8151 -6.300879,2.77455 -6.522028,16.15514 -12.083706,18.90937 -5.561675,2.75422 -16.275709,-6.0737 -21.044526,-3.46516 -4.768815,2.60854 -6.594255,0.54638 -10.516588,2.88391 -7.844668,4.67505 -13.950399,8.70155 -18.087282,11.54045 -3.8075749,2.61291 -2.846183,19.7972 -3.163746,20.039 L 5.5001426,917.97681 c 0.515323,0.11755 12.4787804,11.26388 15.0072524,11.74353 3.154541,0.59846 15.365103,-16.60625 21.462428,-15.75999 6.097328,0.84629 -4.288158,10.5755 4.540165,11.31904 8.828324,0.74349 24.189435,-12.96623 35.537019,-12.67606 5.673785,0.14507 13.423173,-0.25323 19.687073,-0.28722 6.26389,-0.034 15.73212,19.62301 22.55965,19.3661 6.82752,-0.2569 22.61015,-12.09423 29.97486,-12.61785 7.36467,-0.52363 3.79222,10.24954 11.6676,9.41537 7.87539,-0.83418 22.79104,-3.40183 31.15065,-4.59038 8.35959,-1.18858 12.57985,-0.98022 21.3972,-2.56698 8.81734,-1.58676 12.81833,-4.13717 22.06694,-6.16596 9.2486,-2.02879 26.97271,-4.47893 36.62614,-6.99359 19.30688,-5.02925 25.23918,-12.15471 42.04679,-16.25312 16.80757,-4.09836 50.1481,-14.1047 64.95584,-17.28025 14.80778,-3.17554 26.86486,-11.79404 40.17233,-14.0548 6.65369,-1.13038 -3.57326,8.76937 2.79896,7.86618 6.37228,-0.90321 30.91485,-9.22305 37.06807,-9.90007 6.15327,-0.67701 -4.71114,-5.71641 1.28555,-6.16828 5.99667,-0.45184 9.79347,2.62501 15.69605,2.39732 5.90251,-0.2277 29.83639,-1.79679 35.70721,-1.80134 5.87078,-0.004 6.12651,14.56983 12.02807,14.78745 5.90156,0.21762 18.7497,-8.40945 24.74438,-7.97071 5.99466,0.43877 2.9286,10.41155 9.07896,11.07045 6.15019,0.65887 1.62015,-7.18707 7.98835,-6.30907 6.36831,0.87801 21.21579,-9.36467 27.86456,-8.26854 6.64862,1.09612 21.56094,19.21681 28.20738,19.79029 6.6465,0.57349 11.50284,2.16205 18.09196,2.27342 6.58903,0.11138 -0.31492,-3.45496 6.1617,-3.74518 6.47661,-0.29016 28.31646,-13.2095 34.62553,-13.84064 6.30907,-0.63117 14.07048,11.126 20.15678,10.2144 6.08649,-0.91161 11.61234,-13.23174 17.42095,-14.36323 5.80851,-1.13148 -4.65126,9.46784 0.82434,8.17701 5.47573,-1.29083 27.64695,-13.2789 32.73473,-14.6685 10.17534,-2.77922 20.07285,2.65187 28.36556,-0.15918 8.29272,-2.81105 -2.0789,-14.74531 3.89037,-17.10376 16.89485,0.4888 41.29338,17.95141 41.29338,17.95141 l -5.58296,-193.67615 -6.30722,-20.44266"
       id="path3819"
       sodipodi:nodetypes="cssssssssscssssssssssssccsssssssssssscccsssssssssssssssssscsssssssssssssscccc" />
    <path
       sodipodi:nodetypes="ccssssssssssssssscsssssssssssssssssccccc"
       inkscape:connector-curvature="0"
       style="color:#000000;display:inline;overflow:visible;visibility:visible;fill:#ac7512;fill-opacity:1;fill-rule:nonzero;stroke:none;stroke-width:0.10973334;stroke-linecap:round;stroke-linejoin:miter;stroke-miterlimit:4;stroke-dasharray:none;stroke-dashoffset:0;stroke-opacity:1;marker:none;enable-background:accumulate"
       d="m 805.36071,815.0588 c -0.64371,0.33439 14.58875,5.38377 12.2082,6.53746 -3.20504,1.55331 -22.64503,-9.44003 -28.61437,-6.86276 -5.96927,2.57725 -13.93567,6.91436 -22.22839,9.98619 -8.29271,3.07185 -1.13723,17.1 -11.31257,20.13707 -5.08778,1.51855 -18.48335,-13.7554 -23.95908,-12.3448 -5.4756,1.41057 -15.1483,21.51777 -20.95681,22.75423 -5.80861,1.2365 -16.30058,-2.68971 -22.38707,-1.69352 -6.0863,0.99618 5.55355,-7.02236 -0.75552,-6.33265 -6.30907,0.68973 -18.28523,-3.17703 -24.76184,-2.85994 -6.47662,0.31708 -13.3608,0.30344 -19.94983,0.18172 -6.58912,-0.12172 -20.75881,17.91647 -27.40531,17.28979 -6.64644,-0.62668 -11.417,-19.79966 -18.06562,-20.99746 -6.64877,-1.19783 -0.17154,7.93749 -6.53985,6.97803 -6.3682,-0.95946 -12.71269,-0.91451 -18.86288,-1.63452 -6.15036,-0.72002 -23.93131,-12.71214 -29.92597,-13.19161 -5.99468,-0.47945 -0.19398,7.57169 -6.09554,7.33391 -5.90156,-0.23781 -22.68801,-8.88817 -28.55879,-8.88322 -5.87082,0.004 -16.52098,1.93495 -22.42349,2.18376 -5.90258,0.24883 2.19969,14.4194 -3.79698,14.91318 -5.99669,0.49378 -18.20977,-14.32297 -24.36304,-13.58315 -6.15322,0.73981 -22.59817,17.20666 -28.97045,18.19364 -6.37222,0.98701 -0.80452,5.47071 -7.45821,6.70597 -13.30747,2.47051 -25.31263,-11.85765 -40.12041,-8.38748 -14.80774,3.47016 -38.20295,5.70802 -55.01052,10.18664 -16.80761,4.47861 -38.39121,27.66453 -57.69809,33.16043 -9.65343,2.74795 -15.21302,6.71821 -24.46162,8.93521 -9.24861,2.21701 -9.46168,-12.59508 -18.27902,-10.8611 -8.81735,1.73397 -15.10565,7.17491 -23.46524,8.47374 -8.35961,1.29883 -18.6596,-1.37256 -26.53499,-0.46098 -7.87538,0.91156 -18.42933,-0.5893 -25.794,-0.0171 -7.36471,0.57221 -8.97203,11.1823 -15.79955,11.46304 -6.82753,0.28074 -28.57025,-9.29824 -34.834138,-9.2611 -6.263898,0.0371 -16.747631,6.31297 -22.421416,6.15442 -11.347584,-0.31708 -2.556622,5.18401 -11.384946,4.3715 -8.828323,-0.81249 -42.503049,-6.21651 -48.600377,-7.1413 C -0.68785459,962.75853 3.0774309,1040.0282 2.8228329,1056.6514 L 836.83916,1047.219 824.18428,815.67335 808.0612,804.69027"
       id="path3822" />
  </g>
  <g
     inkscape:groupmode="layer"
     id="layer1"
     inkscape:label="#ITEMS"
     transform="translate(-14.9375,16.2997)"
     style="display:inline" />
</svg>
