<!--Created with Inkscape (http://www.inkscape.org/)--><svg xmlns:dc="http://purl.org/dc/elements/1.1/" xmlns:cc="http://creativecommons.org/ns#" xmlns:rdf="http://www.w3.org/1999/02/22-rdf-syntax-ns#" xmlns="http://www.w3.org/2000/svg" xmlns:sodipodi="http://sodipodi.sourceforge.net/DTD/sodipodi-0.dtd" xmlns:inkscape="http://www.inkscape.org/namespaces/inkscape" width="256.49371" height="117.95969" inkscape:version="0.91 r13725" sodipodi:docname="stone1.svg"><sodipodi:namedview pagecolor="#ffffff" bordercolor="#666666" borderopacity="1.0" inkscape:pageopacity="0.0" inkscape:pageshadow="2" inkscape:zoom="1.979899" inkscape:cx="-41.764412" inkscape:cy="76.26628" inkscape:document-units="px" inkscape:current-layer="layer1" showgrid="false" borderlayer="true" fit-margin-top="0" fit-margin-left="0" fit-margin-right="0" fit-margin-bottom="0" inkscape:window-width="1880" inkscape:window-height="1060" inkscape:window-x="-2" inkscape:window-y="-3" inkscape:window-maximized="1"/><metadata><rdf:RDF><cc:Work><dc:format>image/svg+xml</dc:format><dc:type rdf:resource="http://purl.org/dc/dcmitype/StillImage"/><dc:title/><dc:date>2015</dc:date><dc:creator><cc:Agent><dc:title>Timothée Giet</dc:title></cc:Agent></dc:creator><cc:license rdf:resource="http://creativecommons.org/licenses/by-sa/4.0/"/></cc:Work><cc:License rdf:about="http://creativecommons.org/licenses/by-sa/4.0/"><cc:permits rdf:resource="http://creativecommons.org/ns#Reproduction"/><cc:permits rdf:resource="http://creativecommons.org/ns#Distribution"/><cc:requires rdf:resource="http://creativecommons.org/ns#Notice"/><cc:requires rdf:resource="http://creativecommons.org/ns#Attribution"/><cc:permits rdf:resource="http://creativecommons.org/ns#DerivativeWorks"/><cc:requires rdf:resource="http://creativecommons.org/ns#ShareAlike"/></cc:License></rdf:RDF></metadata><g inkscape:label="Calque 1" inkscape:groupmode="layer"><path style="fill:#797979;fill-opacity:1;fill-rule:evenodd;stroke:none;stroke-width:1px;stroke-linecap:butt;stroke-linejoin:miter;stroke-opacity:1" d="M435.84 165.092c-17.98-5.662-62.93 18.686-67.987 26.046-5.057 7.361-20.79 46.997-20.79 50.394 0 3.398 28.095 35.106 34.275 35.106 6.181 0 80.91-23.215 89.9-34.54 8.99-11.324 13.486-28.31 13.486-34.539 0-6.228-17.419-30.576-22.475-34.54-5.057-3.963-26.409-7.927-26.409-7.927z" inkscape:connector-curvature="0" transform="translate(-337.467 -161.954)"/><path style="fill:#bcbcbc;fill-rule:evenodd;stroke:none;stroke-width:1px;stroke-linecap:butt;stroke-linejoin:miter;stroke-opacity:1;fill-opacity:1" d="M435.452 168.797c-16.162-5.051-56.568 16.667-61.114 23.233-4.546 6.566-18.688 41.922-18.688 44.952 0 3.03 25.254 31.315 30.81 31.315 5.556 0 72.73-20.708 80.812-30.81 8.081-10.101 12.122-25.254 12.122-30.81 0-5.555-15.657-27.274-20.203-30.81-4.546-3.535-23.739-7.07-23.739-7.07z" inkscape:connector-curvature="0" transform="translate(-337.467 -161.954)"/><path style="fill:#797979;fill-opacity:1;fill-rule:evenodd;stroke:none;stroke-width:1px;stroke-linecap:butt;stroke-linejoin:miter;stroke-opacity:1" d="M550.278 197.71c-21.533-1.72-50.05 4.591-54.706 12.625-4.656 8.033-4.656 23.526.582 30.412 5.238 6.885 36.082 32.133 47.14 32.707 11.057.574 47.722-11.476 47.722-20.657s-1.746-24.674-4.656-29.839c-2.91-5.164-36.082-25.247-36.082-25.247z" inkscape:connector-curvature="0" transform="translate(-337.467 -161.954)"/><path style="fill:#bcbcbc;fill-rule:evenodd;stroke:none;stroke-width:1px;stroke-linecap:butt;stroke-linejoin:miter;stroke-opacity:1;fill-opacity:1" d="M547.074 199.606c-18.688-1.515-43.436 4.04-47.477 11.112-4.04 7.071-4.04 20.708.505 26.77 4.546 6.06 31.315 28.283 40.911 28.788 9.597.505 41.416-10.101 41.416-18.182 0-8.082-1.515-21.719-4.04-26.264-2.526-4.546-31.315-22.224-31.315-22.224z" inkscape:connector-curvature="0" transform="translate(-337.467 -161.954)"/></g></svg>