<?xml version="1.0" encoding="UTF-8" standalone="no"?>
<!-- Created with Inkscape (http://www.inkscape.org/) -->

<svg
   width="33.576157"
   height="36.905502"
   viewBox="0 0 33.576157 36.905504"
   version="1.1"
   id="svg1059"
   xmlns="http://www.w3.org/2000/svg"
   xmlns:svg="http://www.w3.org/2000/svg"
   xmlns:rdf="http://www.w3.org/1999/02/22-rdf-syntax-ns#"
   xmlns:cc="http://creativecommons.org/ns#"
   xmlns:dc="http://purl.org/dc/elements/1.1/">
  <defs
     id="defs1053" />
  <metadata
     id="metadata1056">
    <rdf:RDF>
      <cc:Work
         rdf:about="">
        <dc:format>image/svg+xml</dc:format>
        <dc:type
           rdf:resource="http://purl.org/dc/dcmitype/StillImage" />
      </cc:Work>
    </rdf:RDF>
  </metadata>
  <g
     id="layer7"
     style="display:inline"
     transform="translate(-356.84292,-107.72785)">
    <path
       style="display:inline;fill:#6e59eb;fill-opacity:1;fill-rule:nonzero;stroke:#333333;stroke-width:0.5;stroke-linecap:round;stroke-linejoin:round;stroke-miterlimit:4;stroke-dasharray:none"
       class="polygon"
       d="m 359.23791,144.23495 -0.30146,0.1484 -0.28065,-0.089 -0.0752,-0.07 -0.33772,-0.3848 -0.088,-0.1973 0.22694,-0.3767 0.9285,-0.6197 2.40238,-0.5969 0.43239,-0.027 0.94878,0.2558 0.2021,0.4787 -0.1739,0.4129 -0.21821,0.2767 -1.0989,0.4666 -0.85565,0.2236 z m 2.86076,-7.5223 0.11347,0.3196 -0.54317,-0.06 -0.28871,-0.3068 0.0403,-0.2632 0.32295,-0.04 z m -3.48692,-0.1779 -0.4297,0.1027 -0.24104,-0.2309 -0.1692,-0.06 0.096,-0.3035 0.69962,-0.5962 0.13697,-0.2055 0.64724,0.1236 0.24171,0.3155 -0.29811,0.4801 z m 10.50985,-1.6419 -0.0752,0.2082 -0.33907,-0.3143 0.33437,-0.3437 z m -10.92425,-0.7796 -0.0886,0.1625 -0.29274,-0.047 -0.29945,-0.4619 -0.12488,-0.3659 -0.29878,-0.2008 0.47603,-0.3182 0.60494,0.572 z m 12.71558,-0.5015 -0.0745,0.6566 -0.47469,0.034 -0.28333,-0.4229 -0.30147,0.2067 h -0.15711 l -0.23634,-0.5263 -0.0403,-0.411 0.55861,-0.3122 0.33705,0.188 0.48611,0.097 z m 4.53339,0.047 -0.63315,0.4143 -0.8537,-0.5553 -0.20344,-0.3068 0.64926,-0.4499 0.55056,-0.5136 0.36189,-0.034 z m -15.59991,-11.37402 -0.0926,0.43441 -0.44515,-0.2867 -0.12757,-0.95334 0.45724,0.27797 z m 30.20316,-6.6194 -0.30482,0.19941 -0.36122,-0.19941 -0.047,-0.21083 0.18867,-0.18329 0.43843,-0.11079 0.20545,0.16114 z m -29.51079,-1.7346 -0.0336,0.88714 -0.37062,-0.0403 -0.25179,-0.0893 -0.10809,-0.17323 -0.25447,-0.82322 0.28401,-0.33974 0.54989,0.26924 z m 12.44741,-5.95289 1.63986,3.00364 1.56836,1.94052 1.33692,1.40607 1.90413,2.70634 0.55794,1.44703 0.0537,0.89634 0.31758,1.23298 -0.27125,0.70687 0.0806,1.11394 -0.12018,0.57204 -0.23231,0.42165 -0.007,0.80946 0.0745,0.43306 0.007,0.57406 0.14972,0.22425 0.21821,0.0826 0.34578,-0.20948 0.42366,-0.0866 -0.0745,0.69075 -0.51229,1.74739 -0.44514,1.2727 -0.60495,1.1084 -0.77105,1.0133 -0.92252,0.3968 -0.64926,0.1424 -1.23795,0.054 -1.02807,-0.1726 -0.88385,0.1249 -0.35451,0.2115 -0.26386,0.3612 0.19336,0.5613 -0.0268,0.4143 -0.37801,-0.034 -0.7501,-0.241 -0.83014,-0.034 -0.38808,-0.1189 -0.39143,-0.5935 -0.39949,0.02 -0.69505,0.3518 -1.06352,0.078 -0.37465,0.19 -0.13227,0.2464 0.1551,0.3109 0.53512,0.4082 -0.17994,0.4129 -0.55728,0.2068 -0.44984,-0.5082 -0.28065,-0.4982 -0.31355,-0.027 -0.48745,0.1423 -0.0987,0.5378 0.22694,0.3659 0.37398,0.4244 -0.52303,0.4881 -0.13832,0.3485 -0.37599,0.2511 -1.01497,-0.5566 0.14435,-0.3955 0.44045,-0.38 0.0537,-0.3941 -0.14503,-0.2337 -1.45233,0.9953 -0.895,1.1281 -0.47804,-0.082 -0.20008,-0.29 -0.27998,-0.1182 -0.9665,0.7275 -0.17793,0.5774 -0.35518,0.02 -0.15576,-0.2444 -0.0134,-0.5217 -0.16584,-0.4404 -1.00121,-0.6426 -0.45791,-0.5613 0.24574,-0.3135 0.83604,0.1705 0.66403,-0.02 -0.13092,-0.2659 -0.21553,-0.1262 0.44112,-0.1497 0.36794,-0.3068 -0.30483,-0.083 -0.46596,0.1772 -0.38807,-0.087 -0.15309,-0.7347 -0.47267,-0.754 -0.24373,-0.7321 0.46597,-0.4209 0.237,-0.6547 0.43307,-0.9481 0.21686,-0.3068 0.60092,-0.2229 0.21351,-0.2451 -0.32967,-0.1255 -0.52638,-0.1115 0.0134,-0.2733 0.35854,-0.1497 0.40083,-0.3014 0.77763,-0.36664 0.23903,-0.69243 -0.22425,-0.17389 -0.48476,-0.1645 0.10876,-0.34981 0.20009,-0.26655 -0.0745,-0.15979 -0.57272,-0.45052 -0.38002,-0.41024 0.1128,-0.46797 -0.0873,-0.70747 0.0537,-0.5942 -0.0269,-0.32228 -0.27931,-0.7252 -0.12689,-0.72613 -0.36727,0.10608 -0.29676,0.17994 -1.06157,-0.25581 -0.33437,-0.0134 -0.1363,-0.53915 0.38002,-0.6647 0.90218,-0.58614 0.51766,-0.0725 0.39144,-0.25782 0.60897,-0.0812 0.73178,0.39748 0.65664,0.0799 0.36458,0.68713 0.22358,0.14503 0.047,-0.25246 0.52974,-0.29609 0.1269,-0.22358 -0.11481,-0.1222 -0.60965,-0.12152 -0.5472,-0.8527 -0.0759,-0.37263 -0.19941,-0.23701 0.29609,-0.68062 -0.63314,-0.77729 -0.30818,-0.2444 0.047,-0.6986 -0.33033,-0.44515 -0.18397,-0.24372 -0.1128,-0.42098 0.0967,-0.18934 0.28871,-0.0718 0.0886,-0.17725 0.20612,-0.1269 0.0134,-0.18263 0.002,-0.59957 0.58749,-0.41493 0.83665,-0.85337 0.41024,-0.46663 0.4673,-0.43575 0.54183,-0.29139 0.53176,-0.13899 0.83598,-0.0604 1.60246,0.0537 0.31422,-0.047 1.11469,-0.047 0.26319,0.0772 0.80972,0.047 0.89762,-0.0537 0.45186,-0.12623 0.41896,-0.21485 0.36592,-0.3874 0.37734,-0.71701 0.40352,-0.56466 z"
       id="path2420-1" />
  </g>
</svg>
