<?xml version="1.0" encoding="UTF-8" standalone="no"?>
<!-- Created with Inkscape (http://www.inkscape.org/) -->

<svg
   width="24.95182"
   height="23.046793"
   viewBox="0 0 24.95182 23.046794"
   version="1.1"
   id="svg1059"
   xmlns="http://www.w3.org/2000/svg"
   xmlns:svg="http://www.w3.org/2000/svg"
   xmlns:rdf="http://www.w3.org/1999/02/22-rdf-syntax-ns#"
   xmlns:cc="http://creativecommons.org/ns#"
   xmlns:dc="http://purl.org/dc/elements/1.1/">
  <defs
     id="defs1053" />
  <metadata
     id="metadata1056">
    <rdf:RDF>
      <cc:Work
         rdf:about="">
        <dc:format>image/svg+xml</dc:format>
        <dc:type
           rdf:resource="http://purl.org/dc/dcmitype/StillImage" />
      </cc:Work>
    </rdf:RDF>
  </metadata>
  <g
     id="layer8"
     style="display:inline"
     transform="translate(-305.00746,-197.29875)">
    <path
       style="display:inline;fill:#eb59d0;fill-opacity:1;fill-rule:nonzero;stroke:#333333;stroke-width:0.5;stroke-linecap:round;stroke-linejoin:round;stroke-miterlimit:4;stroke-dasharray:none"
       class="polygon"
       d="m 306.06508,202.65825 0.29408,0.4498 -0.12422,0.2753 -0.92379,-0.1477 -0.0537,-0.2686 0.34981,0.067 z m 17.46596,12.7683 -0.41561,0.7875 -0.33235,0.8319 -0.13428,0.7856 0.007,0.8097 -0.0953,0.7312 -0.16383,0.7231 -0.65194,-0.2082 -0.35317,-0.517 -0.0812,-0.85 -0.47267,-1.0259 -0.17726,-0.2954 -0.68121,-0.5774 -0.61905,-0.2887 -0.47939,-0.423 h 0.0604 l -0.35383,-0.5707 -0.26857,-0.611 -0.55526,-1.7256 -0.19135,-0.4162 -0.25648,-0.3827 -0.0732,-0.376 0.088,-0.4163 0.23902,-0.6244 0.14637,-0.6311 -0.11817,-0.8568 0.047,-0.848 0.17994,-0.376 3.16041,-5.1665 0.8576,-1.0991 0.52706,-0.5371 0.44045,-0.611 0.41963,-0.7701 0.5143,-0.7043 0.36794,-0.2149 1.81295,-0.6311 0.56533,-0.6043 0.45321,-0.188 h 0.5143 l 0.33168,0.2887 0.29542,0.3424 0.31019,0.1813 0.80254,0.3357 0.35183,0.3223 0.15979,0.5573 -0.48812,0.5237 -0.24238,0.4767 -0.047,0.5237 0.0873,0.7103 0.0134,0.7131 -0.61099,1.6725 -0.65597,1.042 -0.17658,0.517 -0.19941,1.2878 -0.38472,1.2938 -0.32833,1.6389 -0.53511,1.6893 -0.30348,0.7063 -0.37801,0.6761 -0.90419,1.2777 z"
       id="path2626-8" />
  </g>
</svg>
