<?xml version="1.0" encoding="UTF-8" standalone="no"?>
<!-- Created with Inkscape (http://www.inkscape.org/) -->
<svg
   xmlns:dc="http://purl.org/dc/elements/1.1/"
   xmlns:cc="http://web.resource.org/cc/"
   xmlns:rdf="http://www.w3.org/1999/02/22-rdf-syntax-ns#"
   xmlns:svg="http://www.w3.org/2000/svg"
   xmlns="http://www.w3.org/2000/svg"
   xmlns:sodipodi="http://sodipodi.sourceforge.net/DTD/sodipodi-0.dtd"
   xmlns:inkscape="http://www.inkscape.org/namespaces/inkscape"
   width="100"
   height="100"
   id="svg2"
   sodipodi:version="0.32"
   inkscape:version="0.44.1"
   version="1.0"
   sodipodi:docbase="/home/mat/Travaux/Inkscape/Gcompris/boardicons"
   sodipodi:docname="bargame.svg">
  <defs
     id="defs4" />
  <sodipodi:namedview
     id="base"
     pagecolor="#ffffff"
     bordercolor="#666666"
     borderopacity="1.0"
     inkscape:pageopacity="0.0"
     inkscape:pageshadow="2"
     inkscape:zoom="4.3012821"
     inkscape:cx="56"
     inkscape:cy="40"
     inkscape:document-units="px"
     inkscape:current-layer="layer1"
     width="100px"
     height="100px"
     inkscape:window-width="1071"
     inkscape:window-height="875"
     inkscape:window-x="86"
     inkscape:window-y="13" />
  <metadata
     id="metadata7">
    <rdf:RDF>
      <cc:Work
         rdf:about="">
        <dc:format>image/svg+xml</dc:format>
        <dc:type
           rdf:resource="http://purl.org/dc/dcmitype/StillImage" />
      </cc:Work>
    </rdf:RDF>
  </metadata>
  <g
     inkscape:label="Calque 1"
     inkscape:groupmode="layer"
     id="layer1">
    <path
       style="fill:black;fill-opacity:1;fill-rule:evenodd;stroke:none;stroke-width:1px;stroke-linecap:butt;stroke-linejoin:miter;stroke-opacity:1"
       d="M 14.535433,31.908612 L 12.6062,51.683255 L 13.892355,66.313275 L 13.088508,83.194068 L 36.400079,84.480223 L 53.923949,82.55099 L 72.894748,84.962532 L 87.363998,83.997915 L 84.630918,58.274802 L 87.685538,37.535543 L 86.560148,14.063203 L 60.193958,11.81243 L 29.004684,13.741664 L 12.28466,13.098587 L 14.535433,31.908612 z "
       id="path2101"
       sodipodi:nodetypes="ccccccccccccccc" />
    <path
       style="fill:#fc0;fill-opacity:1;fill-rule:evenodd;stroke:none;stroke-width:1px;stroke-linecap:butt;stroke-linejoin:miter;stroke-opacity:1"
       d="M 81.467604,33.557568 L 83.192118,50.95722 L 82.042439,63.830133 L 82.760991,78.683495 L 61.923201,79.81518 L 46.258935,78.117653 L 29.301289,80.239561 L 16.367492,79.390797 L 18.810542,56.757104 L 16.080073,38.508688 L 17.086035,17.855443 L 40.654289,15.874994 L 68.53381,17.572521 L 83.479534,17.006679 L 81.467604,33.557568 z "
       id="path2988"
       sodipodi:nodetypes="ccccccccccccccc" />
    <g
       id="g3689"
       transform="matrix(0.559954,0,0,0.573177,31.53337,0.810656)">
      <path
         id="path3691"
         d="M 6.5977904,70.980683 L 8.2100811,65.490409 L 11.78866,60.787864 L 17.03781,58.104539 L 23.299239,59.569826 L 29.31295,64.310772 C 29.31295,64.310772 31.499513,70.709316 30.926939,71.461723 C 30.354367,72.21413 27.892645,77.977727 27.892645,77.977727 L 19.87578,82.190814 C 19.87578,82.190814 15.571205,82.368544 14.311207,81.495595 C 13.051209,80.622647 10.187496,78.064071 9.137497,77.336613 C 8.0874971,76.609156 6.454648,71.168783 6.5977904,70.980683 z "
         style="fill:black;fill-opacity:1;fill-rule:evenodd;stroke:none;stroke-width:1.33998621px;stroke-linecap:butt;stroke-linejoin:miter;stroke-opacity:1" />
      <path
         id="path3693"
         d="M 9.602288,70.734553 L 10.815437,66.663964 L 13.508094,63.177413 L 17.457752,61.187947 L 22.169088,62.274337 L 26.694031,65.78936 C 26.694031,65.78936 28.339284,70.533356 27.908457,71.091204 C 27.477632,71.649052 25.62534,75.922287 25.62534,75.922287 L 19.593148,79.045946 C 19.593148,79.045946 16.354223,79.177718 15.406153,78.530498 C 14.458083,77.883279 12.303318,75.986304 11.513259,75.446954 C 10.7232,74.907604 9.4945818,70.874013 9.602288,70.734553 z "
         style="fill:#c83737;fill-opacity:1;fill-rule:evenodd;stroke:none;stroke-width:1.33998621px;stroke-linecap:butt;stroke-linejoin:miter;stroke-opacity:1" />
    </g>
    <g
       id="g3683"
       transform="matrix(0.704862,0,0,0.697268,22.32206,-2.189437)">
      <path
         id="path3685"
         d="M 6.5977904,70.980683 L 8.2100811,65.490409 L 11.78866,60.787864 L 17.03781,58.104539 L 23.299239,59.569826 L 29.31295,64.310772 C 29.31295,64.310772 31.499513,70.709316 30.926939,71.461723 C 30.354367,72.21413 27.892645,77.977727 27.892645,77.977727 L 19.87578,82.190814 C 19.87578,82.190814 15.571205,82.368544 14.311207,81.495595 C 13.051209,80.622647 10.187496,78.064071 9.137497,77.336613 C 8.0874971,76.609156 6.454648,71.168783 6.5977904,70.980683 z "
         style="fill:black;fill-opacity:1;fill-rule:evenodd;stroke:none;stroke-width:1.33998621px;stroke-linecap:butt;stroke-linejoin:miter;stroke-opacity:1" />
      <path
         id="path3687"
         d="M 9.602288,70.734553 L 10.815437,66.663964 L 13.508094,63.177413 L 17.457752,61.187947 L 22.169088,62.274337 L 26.694031,65.78936 C 26.694031,65.78936 28.339284,70.533356 27.908457,71.091204 C 27.477632,71.649052 25.62534,75.922287 25.62534,75.922287 L 19.593148,79.045946 C 19.593148,79.045946 16.354223,79.177718 15.406153,78.530498 C 14.458083,77.883279 12.303318,75.986304 11.513259,75.446954 C 10.7232,74.907604 9.4945818,70.874013 9.602288,70.734553 z "
         style="fill:#c83737;fill-opacity:1;fill-rule:evenodd;stroke:none;stroke-width:1.33998621px;stroke-linecap:butt;stroke-linejoin:miter;stroke-opacity:1" />
    </g>
    <g
       id="g3677"
       transform="matrix(0.887472,0,0,0.855498,13.78398,-4.445934)">
      <path
         id="path3679"
         d="M 6.5977904,70.980683 L 8.2100811,65.490409 L 11.78866,60.787864 L 17.03781,58.104539 L 23.299239,59.569826 L 29.31295,64.310772 C 29.31295,64.310772 31.499513,70.709316 30.926939,71.461723 C 30.354367,72.21413 27.892645,77.977727 27.892645,77.977727 L 19.87578,82.190814 C 19.87578,82.190814 15.571205,82.368544 14.311207,81.495595 C 13.051209,80.622647 10.187496,78.064071 9.137497,77.336613 C 8.0874971,76.609156 6.454648,71.168783 6.5977904,70.980683 z "
         style="fill:black;fill-opacity:1;fill-rule:evenodd;stroke:none;stroke-width:1.33998621px;stroke-linecap:butt;stroke-linejoin:miter;stroke-opacity:1" />
      <path
         id="path3681"
         d="M 9.602288,70.734553 L 10.815437,66.663964 L 13.508094,63.177413 L 17.457752,61.187947 L 22.169088,62.274337 L 26.694031,65.78936 C 26.694031,65.78936 28.339284,70.533356 27.908457,71.091204 C 27.477632,71.649052 25.62534,75.922287 25.62534,75.922287 L 19.593148,79.045946 C 19.593148,79.045946 16.354223,79.177718 15.406153,78.530498 C 14.458083,77.883279 12.303318,75.986304 11.513259,75.446954 C 10.7232,74.907604 9.4945818,70.874013 9.602288,70.734553 z "
         style="fill:#c83737;fill-opacity:1;fill-rule:evenodd;stroke:none;stroke-width:1.33998621px;stroke-linecap:butt;stroke-linejoin:miter;stroke-opacity:1" />
    </g>
    <g
       id="g3673"
       transform="translate(9.196739,-2.368254)">
      <path
         id="path1872"
         d="M 6.5977904,70.980683 L 8.2100811,65.490409 L 11.78866,60.787864 L 17.03781,58.104539 L 23.299239,59.569826 L 29.31295,64.310772 C 29.31295,64.310772 31.499513,70.709316 30.926939,71.461723 C 30.354367,72.21413 27.892645,77.977727 27.892645,77.977727 L 19.87578,82.190814 C 19.87578,82.190814 15.571205,82.368544 14.311207,81.495595 C 13.051209,80.622647 10.187496,78.064071 9.137497,77.336613 C 8.0874971,76.609156 6.454648,71.168783 6.5977904,70.980683 z "
         style="fill:black;fill-opacity:1;fill-rule:evenodd;stroke:none;stroke-width:1.33998621px;stroke-linecap:butt;stroke-linejoin:miter;stroke-opacity:1" />
      <path
         id="path2766"
         d="M 9.602288,70.734553 L 10.815437,66.663964 L 13.508094,63.177413 L 17.457752,61.187947 L 22.169088,62.274337 L 26.694031,65.78936 C 26.694031,65.78936 28.339284,70.533356 27.908457,71.091204 C 27.477632,71.649052 25.62534,75.922287 25.62534,75.922287 L 19.593148,79.045946 C 19.593148,79.045946 16.354223,79.177718 15.406153,78.530498 C 14.458083,77.883279 12.303318,75.986304 11.513259,75.446954 C 10.7232,74.907604 9.4945818,70.874013 9.602288,70.734553 z "
         style="fill:#c83737;fill-opacity:1;fill-rule:evenodd;stroke:none;stroke-width:1.33998621px;stroke-linecap:butt;stroke-linejoin:miter;stroke-opacity:1" />
    </g>
    <g
       id="g4457"
       transform="translate(-0.697466,-2.557377)">
      <path
         id="path2768"
         d="M 38.198922,71.314625 L 39.811213,65.824351 L 43.389792,61.121806 L 48.638942,58.438481 L 54.900371,59.903768 L 60.914082,64.644714 C 60.914082,64.644714 63.100645,71.043258 62.528071,71.795665 C 61.955499,72.548072 59.493777,78.311669 59.493777,78.311669 L 51.476912,82.524756 C 51.476912,82.524756 47.172337,82.702486 45.912339,81.829537 C 44.652341,80.956589 41.788628,78.398013 40.738629,77.670555 C 39.688629,76.943098 38.05578,71.502725 38.198922,71.314625 z "
         style="fill:black;fill-opacity:1;fill-rule:evenodd;stroke:none;stroke-width:1.33998621px;stroke-linecap:butt;stroke-linejoin:miter;stroke-opacity:1" />
      <path
         id="path2770"
         d="M 41.20342,71.068495 L 42.416569,66.997906 L 45.109226,63.511355 L 49.058884,61.521889 L 53.77022,62.608279 L 58.295163,66.123302 C 58.295163,66.123302 59.940416,70.867298 59.509589,71.425146 C 59.078764,71.982994 57.226472,76.256229 57.226472,76.256229 L 51.19428,79.379888 C 51.19428,79.379888 47.955355,79.51166 47.007285,78.86444 C 46.059215,78.217221 43.90445,76.320246 43.114391,75.780896 C 42.324332,75.241546 41.095713,71.207955 41.20342,71.068495 z "
         style="fill:#7fff2a;fill-opacity:1;fill-rule:evenodd;stroke:none;stroke-width:1.33998621px;stroke-linecap:butt;stroke-linejoin:miter;stroke-opacity:1" />
      <path
         id="path2776"
         d="M 43.96586,67.276908 L 44.308153,66.087446 L 45.067891,65.068646 L 46.182296,64.487306 L 47.51161,64.804759 L 48.788332,65.831879 C 48.788332,65.831879 49.252544,67.218116 49.130985,67.381124 C 49.009427,67.544131 48.486799,68.792809 48.486799,68.792809 L 46.784803,69.70557 C 46.784803,69.70557 45.870933,69.744074 45.603433,69.554951 C 45.335933,69.365827 44.727962,68.811516 44.505045,68.653914 C 44.282128,68.496311 43.93547,67.317659 43.96586,67.276908 z "
         style="fill:black;fill-opacity:1;fill-rule:evenodd;stroke:none;stroke-width:1.33998621px;stroke-linecap:butt;stroke-linejoin:miter;stroke-opacity:1" />
      <path
         id="path2778"
         d="M 51.29777,67.551854 L 51.640063,66.362392 L 52.399801,65.343592 L 53.514206,64.762252 L 54.84352,65.079705 L 56.120242,66.106825 C 56.120242,66.106825 56.584454,67.493062 56.462895,67.65607 C 56.341337,67.819077 55.818709,69.067755 55.818709,69.067755 L 54.116713,69.980516 C 54.116713,69.980516 53.202843,70.01902 52.935343,69.829897 C 52.667843,69.640773 52.059872,69.086462 51.836955,68.92886 C 51.614038,68.771257 51.26738,67.592605 51.29777,67.551854 z "
         style="fill:black;fill-opacity:1;fill-rule:evenodd;stroke:none;stroke-width:1.33998621px;stroke-linecap:butt;stroke-linejoin:miter;stroke-opacity:1" />
      <path
         sodipodi:nodetypes="cccccccc"
         id="path2780"
         d="M 44.541358,72.322037 L 47.657421,74.338312 L 52.423163,74.155014 L 55.722523,72.322037 L 53.156353,75.987992 L 47.474123,76.354587 L 45.27455,74.704908 L 44.541358,72.322037 z "
         style="fill:black;fill-opacity:1;fill-rule:evenodd;stroke:none;stroke-width:1px;stroke-linecap:butt;stroke-linejoin:miter;stroke-opacity:1" />
    </g>
    <g
       id="g4450"
       transform="translate(0.464975,1.394933)">
      <path
         id="path2772"
         d="M 59.720328,66.946528 L 61.332619,61.456254 L 64.911198,56.753709 L 70.160348,54.070384 L 76.421777,55.535671 L 82.435488,60.276617 C 82.435488,60.276617 84.622051,66.675161 84.049477,67.427568 C 83.476905,68.179975 81.015183,73.943572 81.015183,73.943572 L 72.998318,78.156659 C 72.998318,78.156659 68.693743,78.334389 67.433745,77.46144 C 66.173747,76.588492 63.310034,74.029916 62.260035,73.302458 C 61.210035,72.575001 59.577186,67.134628 59.720328,66.946528 z "
         style="fill:black;fill-opacity:1;fill-rule:evenodd;stroke:none;stroke-width:1.33998621px;stroke-linecap:butt;stroke-linejoin:miter;stroke-opacity:1" />
      <path
         id="path2774"
         d="M 62.724826,66.700398 L 63.937975,62.629809 L 66.630632,59.143258 L 70.58029,57.153792 L 75.291626,58.240182 L 79.816569,61.755205 C 79.816569,61.755205 81.461822,66.499201 81.030995,67.057049 C 80.60017,67.614897 78.747878,71.888132 78.747878,71.888132 L 72.715686,75.011791 C 72.715686,75.011791 69.476761,75.143563 68.528691,74.496343 C 67.580621,73.849124 65.425856,71.952149 64.635797,71.412799 C 63.845738,70.873449 62.617119,66.839858 62.724826,66.700398 z "
         style="fill:#c83737;fill-opacity:1;fill-rule:evenodd;stroke:none;stroke-width:1.33998621px;stroke-linecap:butt;stroke-linejoin:miter;stroke-opacity:1" />
      <path
         id="path3667"
         d="M 65.487266,63.367056 L 65.829559,62.177594 L 66.589297,61.158794 L 67.703702,60.577454 L 69.033016,60.894907 L 70.309738,61.922027 C 70.309738,61.922027 70.77395,63.308264 70.652391,63.471272 C 70.530833,63.634279 70.008205,64.882957 70.008205,64.882957 L 68.306209,65.795718 C 68.306209,65.795718 67.392339,65.834222 67.124839,65.645099 C 66.857339,65.455975 66.249368,64.901664 66.026451,64.744062 C 65.803534,64.586459 65.456876,63.407807 65.487266,63.367056 z "
         style="fill:black;fill-opacity:1;fill-rule:evenodd;stroke:none;stroke-width:1.33998621px;stroke-linecap:butt;stroke-linejoin:miter;stroke-opacity:1" />
      <path
         id="path3669"
         d="M 72.819177,63.367055 L 73.16147,62.177593 L 73.921208,61.158793 L 75.035613,60.577453 L 76.364927,60.894906 L 77.641649,61.922026 C 77.641649,61.922026 78.105861,63.308263 77.984302,63.471271 C 77.862744,63.634278 77.340116,64.882956 77.340116,64.882956 L 75.63812,65.795717 C 75.63812,65.795717 74.72425,65.834221 74.45675,65.645098 C 74.18925,65.455974 73.581279,64.901663 73.358362,64.744061 C 73.135445,64.586458 72.788787,63.407806 72.819177,63.367055 z "
         style="fill:black;fill-opacity:1;fill-rule:evenodd;stroke:none;stroke-width:1.33998621px;stroke-linecap:butt;stroke-linejoin:miter;stroke-opacity:1" />
      <path
         sodipodi:nodetypes="cccccccc"
         id="path3671"
         d="M 66.521008,71.2533 L 69.637071,69.237025 L 74.402813,69.420323 L 77.702173,71.2533 L 75.136003,67.587345 L 69.453773,67.22075 L 67.2542,68.870429 L 66.521008,71.2533 z "
         style="fill:black;fill-opacity:1;fill-rule:evenodd;stroke:none;stroke-width:1px;stroke-linecap:butt;stroke-linejoin:miter;stroke-opacity:1" />
    </g>
  </g>
</svg>
