<svg xmlns:dc="http://purl.org/dc/elements/1.1/" xmlns:cc="http://creativecommons.org/ns#" xmlns:rdf="http://www.w3.org/1999/02/22-rdf-syntax-ns#" xmlns="http://www.w3.org/2000/svg" width="100" height="100" version="1.0"><metadata><rdf:RDF><cc:Work><dc:format>image/svg+xml</dc:format><dc:type rdf:resource="http://purl.org/dc/dcmitype/StillImage"/><dc:title/><dc:date>2021</dc:date><dc:creator><cc:Agent><dc:title>Timothée Giet</dc:title></cc:Agent></dc:creator><cc:license rdf:resource="http://creativecommons.org/licenses/by-sa/4.0/"/></cc:Work><cc:License rdf:about="http://creativecommons.org/licenses/by-sa/4.0/"><cc:permits rdf:resource="http://creativecommons.org/ns#Reproduction"/><cc:permits rdf:resource="http://creativecommons.org/ns#Distribution"/><cc:requires rdf:resource="http://creativecommons.org/ns#Notice"/><cc:requires rdf:resource="http://creativecommons.org/ns#Attribution"/><cc:permits rdf:resource="http://creativecommons.org/ns#DerivativeWorks"/><cc:requires rdf:resource="http://creativecommons.org/ns#ShareAlike"/></cc:License></rdf:RDF></metadata><g style="display:inline"><rect style="display:inline;fill:#fff;fill-opacity:1;stroke:gray;stroke-width:2;stroke-linejoin:bevel;stroke-miterlimit:4;stroke-dasharray:none;stroke-opacity:1" width="25" height="25" x="67.5" y="69.5" ry="5"/><rect style="display:inline;fill:#fff;fill-opacity:1;stroke:gray;stroke-width:2;stroke-linejoin:bevel;stroke-miterlimit:4;stroke-dasharray:none;stroke-opacity:1" width="25" height="25" x="7.5" y="69.5" ry="5"/><rect style="display:inline;fill:#fff;fill-opacity:1;stroke:gray;stroke-width:2;stroke-linejoin:bevel;stroke-miterlimit:4;stroke-dasharray:none;stroke-opacity:1" width="25" height="25" x="51.5" y="23.5" ry="5"/><path style="fill:#ebf1f9;fill-opacity:1;fill-rule:evenodd;stroke:#327cf4;stroke-width:2;stroke-linecap:butt;stroke-linejoin:miter;stroke-miterlimit:4;stroke-dasharray:none;stroke-opacity:1" d="m63.165 54.27-4.33-2.5-7.5 12.99-4.33-2.5L46 79l13.995-9.24-4.33-2.5z"/><g style="font-style:normal;font-variant:normal;font-weight:400;font-stretch:normal;font-size:16px;line-height:1.25;font-family:'Andika SmLTailCrvTl';-inkscape-font-specification:'Andika SmLTailCrvTl';letter-spacing:0;word-spacing:0;fill:#373737;fill-opacity:1" aria-label="A"><path d="m19.968 77.816 2 5.664H18zm-5.024 9.888h1.6l1.04-3.008h4.8l1.072 3.008h1.6c-.064-.16-.144-.32-.208-.496-.08-.16-.16-.352-.256-.576a7.112 7.112 0 0 1-.288-.736 19.241 19.241 0 0 1-.352-.96l-3.12-8.64h-1.68l-3.12 8.64c-.144.368-.272.688-.368.96-.096.288-.192.528-.272.736a26.17 26.17 0 0 0-.24.576c-.08.176-.144.336-.208.496z"/></g><g style="font-style:normal;font-variant:normal;font-weight:400;font-stretch:normal;font-size:16px;line-height:1.25;font-family:'Andika SmLTailCrvTl';-inkscape-font-specification:'Andika SmLTailCrvTl';letter-spacing:0;word-spacing:0;display:inline;fill:#373737;fill-opacity:1" aria-label="C"><path d="m84.44 86.616-.32-1.536a5.175 5.175 0 0 1-.72.608c-.272.176-.56.32-.848.448-.288.128-.592.24-.896.304a4.38 4.38 0 0 1-.896.096c-.544 0-1.024-.096-1.472-.32a3.224 3.224 0 0 1-1.168-.912c-.32-.4-.576-.88-.752-1.44-.192-.56-.272-1.2-.272-1.904 0-.736.08-1.392.272-1.968.192-.56.448-1.024.784-1.408a3.03 3.03 0 0 1 1.184-.864c.448-.192.96-.288 1.504-.288.224 0 .464.032.72.064.256.032.512.096.768.192s.512.208.768.352c.256.16.496.336.752.56l.464-1.408a8.147 8.147 0 0 0-.864-.512 4.956 4.956 0 0 0-.88-.336 5.712 5.712 0 0 0-.88-.176c-.288-.032-.576-.064-.848-.064-.688 0-1.344.128-1.984.384a4.66 4.66 0 0 0-1.696 1.136 5.722 5.722 0 0 0-1.168 1.888c-.288.768-.432 1.648-.432 2.64 0 .896.112 1.696.352 2.4s.576 1.312 1.024 1.808c.448.496.976.88 1.616 1.136.624.272 1.328.4 2.128.4.288 0 .608-.016.96-.08a5.76 5.76 0 0 0 1.008-.24c.336-.112.656-.24.976-.4.32-.16.592-.336.816-.56z"/></g><g style="font-style:normal;font-variant:normal;font-weight:400;font-stretch:normal;font-size:16px;line-height:1.25;font-family:'Andika SmLTailCrvTl';-inkscape-font-specification:'Andika SmLTailCrvTl';letter-spacing:0;word-spacing:0;display:inline;fill:#373737;fill-opacity:1" aria-label="B"><path d="M60.28 39.272c0 .368-.016.704-.016 1.008 0 .304-.016.576-.032.816a4.74 4.74 0 0 1-.064.608c.096.016.272.032.496.032.224 0 .48.016.8.016.304.016.64.032 1.024.032h1.152c.752 0 1.392-.08 1.92-.256.528-.16.96-.4 1.296-.704.336-.304.576-.656.736-1.072.16-.416.24-.848.24-1.328 0-.48-.08-.88-.224-1.232a2.77 2.77 0 0 0-.592-.848 3.433 3.433 0 0 0-.8-.56 5.626 5.626 0 0 0-.896-.336c.256-.096.512-.208.752-.368.224-.144.432-.32.608-.528.16-.208.304-.448.4-.704.096-.256.16-.56.16-.896 0-.512-.08-.928-.24-1.28-.16-.352-.4-.624-.704-.848a3.41 3.41 0 0 0-1.152-.464 7.374 7.374 0 0 0-1.536-.144c-.336 0-.672.016-1.008.016-.336 0-.656.016-.96.016-.304 0-.576.016-.832.016-.256.016-.48.032-.64.032.032.16.048.368.064.624s.032.528.032.848c0 .32.016.656.016 1.008zm1.488 1.216v-4.256h1.84c.912 0 1.584.192 2.032.56.432.368.656.912.656 1.632 0 .416-.08.752-.224 1.024-.144.272-.336.48-.576.64-.256.16-.528.288-.848.352-.32.064-.64.096-.96.096h-.64c-.192 0-.384-.016-.544-.016-.176 0-.32 0-.448-.016-.128 0-.224-.016-.288-.016zm0-5.456v-3.568h.32c.128 0 .288-.016.448-.016.16 0 .336-.016.512-.016h.48c.384 0 .72.048 1.008.112.272.08.496.192.672.336.176.144.304.32.384.544.08.224.128.48.128.768 0 .272-.048.528-.144.752a1.564 1.564 0 0 1-.448.576c-.192.16-.448.288-.752.384-.32.096-.672.128-1.088.128z"/></g></g></svg>