<!--Created with Inkscape (http://www.inkscape.org/)--><svg xmlns:dc="http://purl.org/dc/elements/1.1/" xmlns:cc="http://creativecommons.org/ns#" xmlns:rdf="http://www.w3.org/1999/02/22-rdf-syntax-ns#" xmlns="http://www.w3.org/2000/svg" xmlns:sodipodi="http://sodipodi.sourceforge.net/DTD/sodipodi-0.dtd" xmlns:inkscape="http://www.inkscape.org/namespaces/inkscape" width="421.33347" height="280.3248" inkscape:version="0.91 r13725" sodipodi:docname="rain.svg"><sodipodi:namedview pagecolor="#ffffff" bordercolor="#666666" borderopacity="1.0" inkscape:pageopacity="0.0" inkscape:pageshadow="2" inkscape:zoom="0.35" inkscape:cx="94.904882" inkscape:cy="24.978447" inkscape:document-units="px" inkscape:current-layer="g6126-4" showgrid="false" inkscape:window-width="1307" inkscape:window-height="744" inkscape:window-x="59" inkscape:window-y="24" inkscape:window-maximized="1" fit-margin-top="0" fit-margin-left="0" fit-margin-right="0" fit-margin-bottom="0"/><metadata><rdf:RDF><cc:Work><dc:format>image/svg+xml</dc:format><dc:type rdf:resource="http://purl.org/dc/dcmitype/StillImage"/><dc:title/></cc:Work></rdf:RDF></metadata><g inkscape:label="Layer 1" inkscape:groupmode="layer"><g style="display:inline;enable-background:new"><path d="M1387.797 144.123s-4.703 19.337-15.678 30.311c-10.974 10.975 11.497 31.88 30.311 18.814 18.814-13.065-15.155-49.125-14.633-49.125z" style="fill:#09f;fill-opacity:1;fill-rule:evenodd;stroke:#000;stroke-width:4.43606234;stroke-linecap:butt;stroke-linejoin:miter;stroke-miterlimit:4;stroke-opacity:1;stroke-dasharray:none" inkscape:connector-curvature="0" transform="scale(.38592 .37756) rotate(6.116 61.991 -7378.343)"/><path d="M1403 170.281c-1.802 13.064-18.62 18.169-29.563 13.313-3.812-2.573-.771 2.907.438 4.344 7.453 10.047 25.888 10.2 31.531-1.532 1.853-5.292-.298-11.69-2.406-16.125z" style="opacity:.5;fill:#004dc0;fill-opacity:1;fill-rule:evenodd;stroke:none" inkscape:connector-curvature="0" transform="scale(.38592 .37756) rotate(6.116 61.991 -7378.343)"/><path d="M1387.797 144.123s-4.703 19.337-15.678 30.311c-10.974 10.975 11.497 31.88 30.311 18.814 18.814-13.065-15.155-49.125-14.633-49.125z" style="fill:#09f;fill-opacity:1;fill-rule:evenodd;stroke:#000;stroke-width:4.43606234;stroke-linecap:butt;stroke-linejoin:miter;stroke-miterlimit:4;stroke-opacity:1;stroke-dasharray:none" inkscape:connector-curvature="0" transform="scale(.38592 .37756) rotate(6.116 2363.956 -6510.105)"/><path d="M1403 170.281c-1.802 13.064-18.62 18.169-29.563 13.313-3.812-2.573-.771 2.907.438 4.344 7.453 10.047 25.888 10.2 31.531-1.532 1.853-5.292-.298-11.69-2.406-16.125z" style="opacity:.5;fill:#004dc0;fill-opacity:1;fill-rule:evenodd;stroke:none" inkscape:connector-curvature="0" transform="scale(.38592 .37756) rotate(6.116 2363.956 -6510.105)"/><path style="fill:#09f;fill-opacity:1;fill-rule:evenodd;stroke:#000;stroke-width:4.43606234;stroke-linecap:butt;stroke-linejoin:miter;stroke-miterlimit:4;stroke-opacity:1;stroke-dasharray:none" d="M1387.797 144.123s-4.703 19.337-15.678 30.311c-10.974 10.975 11.497 31.88 30.311 18.814 18.814-13.065-15.155-49.125-14.633-49.125z" inkscape:connector-curvature="0" transform="scale(.38592 .37756) rotate(6.116 2221.588 -7792.962)"/><path style="opacity:.5;fill:#004dc0;fill-opacity:1;fill-rule:evenodd;stroke:none" d="M1403 170.281c-1.802 13.064-18.62 18.169-29.563 13.313-3.812-2.573-.771 2.907.438 4.344 7.453 10.047 25.888 10.2 31.531-1.532 1.853-5.292-.298-11.69-2.406-16.125z" inkscape:connector-curvature="0" transform="scale(.38592 .37756) rotate(6.116 2221.588 -7792.962)"/><path d="M1387.797 144.123s-4.703 19.337-15.678 30.311c-10.974 10.975 11.497 31.88 30.311 18.814 18.814-13.065-15.155-49.125-14.633-49.125z" style="fill:#09f;fill-opacity:1;fill-rule:evenodd;stroke:#000;stroke-width:4.43606234;stroke-linecap:butt;stroke-linejoin:miter;stroke-miterlimit:4;stroke-opacity:1;stroke-dasharray:none" inkscape:connector-curvature="0" transform="scale(.38592 .37756) rotate(6.116 1152.11 -8931.69)"/><path d="M1403 170.281c-1.802 13.064-18.62 18.169-29.563 13.313-3.812-2.573-.771 2.907.438 4.344 7.453 10.047 25.888 10.2 31.531-1.532 1.853-5.292-.298-11.69-2.406-16.125z" style="opacity:.5;fill:#004dc0;fill-opacity:1;fill-rule:evenodd;stroke:none" inkscape:connector-curvature="0" transform="scale(.38592 .37756) rotate(6.116 1152.11 -8931.69)"/><path style="fill:#09f;fill-opacity:1;fill-rule:evenodd;stroke:#000;stroke-width:4.43606234;stroke-linecap:butt;stroke-linejoin:miter;stroke-miterlimit:4;stroke-opacity:1;stroke-dasharray:none" d="M1387.797 144.123s-4.703 19.337-15.678 30.311c-10.974 10.975 11.497 31.88 30.311 18.814 18.814-13.065-15.155-49.125-14.633-49.125z" inkscape:connector-curvature="0" transform="scale(.38592 .37756) rotate(6.116 2168.639 -9275.126)"/><path style="opacity:.5;fill:#004dc0;fill-opacity:1;fill-rule:evenodd;stroke:none" d="M1403 170.281c-1.802 13.064-18.62 18.169-29.563 13.313-3.812-2.573-.771 2.907.438 4.344 7.453 10.047 25.888 10.2 31.531-1.532 1.853-5.292-.298-11.69-2.406-16.125z" inkscape:connector-curvature="0" transform="scale(.38592 .37756) rotate(6.116 2168.639 -9275.126)"/><g><path d="M1387.797 144.123s-4.703 19.337-15.678 30.311c-10.974 10.975 11.497 31.88 30.311 18.814 18.814-13.065-15.155-49.125-14.633-49.125z" style="fill:#09f;fill-opacity:1;fill-rule:evenodd;stroke:#000;stroke-width:4.43606234;stroke-linecap:butt;stroke-linejoin:miter;stroke-miterlimit:4;stroke-opacity:1;stroke-dasharray:none" inkscape:connector-curvature="0" transform="scale(.38592 .37756) rotate(6.116 256.784 -10450.443)"/><path d="M1403 170.281c-1.802 13.064-18.62 18.169-29.563 13.313-3.812-2.573-.771 2.907.438 4.344 7.453 10.047 25.888 10.2 31.531-1.532 1.853-5.292-.298-11.69-2.406-16.125z" style="opacity:.5;fill:#004dc0;fill-opacity:1;fill-rule:evenodd;stroke:none" inkscape:connector-curvature="0" transform="scale(.38592 .37756) rotate(6.116 256.784 -10450.443)"/></g><g><path d="M1387.797 144.123s-4.703 19.337-15.678 30.311c-10.974 10.975 11.497 31.88 30.311 18.814 18.814-13.065-15.155-49.125-14.633-49.125z" style="fill:#09f;fill-opacity:1;fill-rule:evenodd;stroke:#000;stroke-width:4.43606234;stroke-linecap:butt;stroke-linejoin:miter;stroke-miterlimit:4;stroke-opacity:1;stroke-dasharray:none" inkscape:connector-curvature="0" transform="scale(.38592 .37756) rotate(6.116 1201.13 -7450.17)"/><path d="M1403 170.281c-1.802 13.064-18.62 18.169-29.563 13.313-3.812-2.573-.771 2.907.438 4.344 7.453 10.047 25.888 10.2 31.531-1.532 1.853-5.292-.298-11.69-2.406-16.125z" style="opacity:.5;fill:#004dc0;fill-opacity:1;fill-rule:evenodd;stroke:none" inkscape:connector-curvature="0" transform="scale(.38592 .37756) rotate(6.116 1201.13 -7450.17)"/></g><g><path style="fill:#09f;fill-opacity:1;fill-rule:evenodd;stroke:#000;stroke-width:4.43606234;stroke-linecap:butt;stroke-linejoin:miter;stroke-miterlimit:4;stroke-opacity:1;stroke-dasharray:none" d="M1387.797 144.123s-4.703 19.337-15.678 30.311c-10.974 10.975 11.497 31.88 30.311 18.814 18.814-13.065-15.155-49.125-14.633-49.125z" inkscape:connector-curvature="0" transform="scale(.38592 .37756) rotate(6.116 29.33 -8793.192)"/><path style="opacity:.5;fill:#004dc0;fill-opacity:1;fill-rule:evenodd;stroke:none" d="M1403 170.281c-1.802 13.064-18.62 18.169-29.563 13.313-3.812-2.573-.771 2.907.438 4.344 7.453 10.047 25.888 10.2 31.531-1.532 1.853-5.292-.298-11.69-2.406-16.125z" inkscape:connector-curvature="0" transform="scale(.38592 .37756) rotate(6.116 29.33 -8793.192)"/></g><g><path d="M1387.797 144.123s-4.703 19.337-15.678 30.311c-10.974 10.975 11.497 31.88 30.311 18.814 18.814-13.065-15.155-49.125-14.633-49.125z" style="fill:#09f;fill-opacity:1;fill-rule:evenodd;stroke:#000;stroke-width:4.43606234;stroke-linecap:butt;stroke-linejoin:miter;stroke-miterlimit:4;stroke-opacity:1;stroke-dasharray:none" inkscape:connector-curvature="0" transform="matrix(.38372 .04023 -.04112 .37541 -375.558 18.216)"/><path d="M1403 170.281c-1.802 13.064-18.62 18.169-29.563 13.313-3.812-2.573-.771 2.907.438 4.344 7.453 10.047 25.888 10.2 31.531-1.532 1.853-5.292-.298-11.69-2.406-16.125z" style="opacity:.5;fill:#004dc0;fill-opacity:1;fill-rule:evenodd;stroke:none" inkscape:connector-curvature="0" transform="matrix(.38372 .04023 -.04112 .37541 -375.558 18.216)"/></g><g><path d="M1387.797 144.123s-4.703 19.337-15.678 30.311c-10.974 10.975 11.497 31.88 30.311 18.814 18.814-13.065-15.155-49.125-14.633-49.125z" style="fill:#09f;fill-opacity:1;fill-rule:evenodd;stroke:#000;stroke-width:4.43606234;stroke-linecap:butt;stroke-linejoin:miter;stroke-miterlimit:4;stroke-opacity:1;stroke-dasharray:none" inkscape:connector-curvature="0" transform="matrix(.38372 .04023 -.04112 .37541 -436.617 17.16)"/><path d="M1403 170.281c-1.802 13.064-18.62 18.169-29.563 13.313-3.812-2.573-.771 2.907.438 4.344 7.453 10.047 25.888 10.2 31.531-1.532 1.853-5.292-.298-11.69-2.406-16.125z" style="opacity:.5;fill:#004dc0;fill-opacity:1;fill-rule:evenodd;stroke:none" inkscape:connector-curvature="0" transform="matrix(.38372 .04023 -.04112 .37541 -436.617 17.16)"/></g></g><g style="display:inline;enable-background:new"><path style="fill:#09f;fill-opacity:1;fill-rule:evenodd;stroke:#000;stroke-width:4.43606234;stroke-linecap:butt;stroke-linejoin:miter;stroke-miterlimit:4;stroke-opacity:1;stroke-dasharray:none" d="M1387.797 144.123s-4.703 19.337-15.678 30.311c-10.974 10.975 11.497 31.88 30.311 18.814 18.814-13.065-15.155-49.125-14.633-49.125z" inkscape:connector-curvature="0" transform="matrix(.38372 .04023 -.04112 .37541 -391.194 139.79)"/><path style="opacity:.5;fill:#004dc0;fill-opacity:1;fill-rule:evenodd;stroke:none" d="M1403 170.281c-1.802 13.064-18.62 18.169-29.563 13.313-3.812-2.573-.771 2.907.438 4.344 7.453 10.047 25.888 10.2 31.531-1.532 1.853-5.292-.298-11.69-2.406-16.125z" inkscape:connector-curvature="0" transform="matrix(.38372 .04023 -.04112 .37541 -391.194 139.79)"/><path style="fill:#09f;fill-opacity:1;fill-rule:evenodd;stroke:#000;stroke-width:4.43606234;stroke-linecap:butt;stroke-linejoin:miter;stroke-miterlimit:4;stroke-opacity:1;stroke-dasharray:none" d="M1387.797 144.123s-4.703 19.337-15.678 30.311c-10.974 10.975 11.497 31.88 30.311 18.814 18.814-13.065-15.155-49.125-14.633-49.125z" inkscape:connector-curvature="0" transform="matrix(.38372 .04023 -.04112 .37541 -350.437 49.055)"/><path style="opacity:.5;fill:#004dc0;fill-opacity:1;fill-rule:evenodd;stroke:none" d="M1403 170.281c-1.802 13.064-18.62 18.169-29.563 13.313-3.812-2.573-.771 2.907.438 4.344 7.453 10.047 25.888 10.2 31.531-1.532 1.853-5.292-.298-11.69-2.406-16.125z" inkscape:connector-curvature="0" transform="matrix(.38372 .04023 -.04112 .37541 -350.437 49.055)"/><path d="M1387.797 144.123s-4.703 19.337-15.678 30.311c-10.974 10.975 11.497 31.88 30.311 18.814 18.814-13.065-15.155-49.125-14.633-49.125z" style="fill:#09f;fill-opacity:1;fill-rule:evenodd;stroke:#000;stroke-width:4.43606234;stroke-linecap:butt;stroke-linejoin:miter;stroke-miterlimit:4;stroke-opacity:1;stroke-dasharray:none" inkscape:connector-curvature="0" transform="matrix(.38372 .04023 -.04112 .37541 -403.498 52.025)"/><path d="M1403 170.281c-1.802 13.064-18.62 18.169-29.563 13.313-3.812-2.573-.771 2.907.438 4.344 7.453 10.047 25.888 10.2 31.531-1.532 1.853-5.292-.298-11.69-2.406-16.125z" style="opacity:.5;fill:#004dc0;fill-opacity:1;fill-rule:evenodd;stroke:none" inkscape:connector-curvature="0" transform="matrix(.38372 .04023 -.04112 .37541 -403.498 52.025)"/><path style="fill:#09f;fill-opacity:1;fill-rule:evenodd;stroke:#000;stroke-width:4.43606234;stroke-linecap:butt;stroke-linejoin:miter;stroke-miterlimit:4;stroke-opacity:1;stroke-dasharray:none" d="M1387.797 144.123s-4.703 19.337-15.678 30.311c-10.974 10.975 11.497 31.88 30.311 18.814 18.814-13.065-15.155-49.125-14.633-49.125z" inkscape:connector-curvature="0" transform="matrix(.38372 .04023 -.04112 .37541 -452.669 92.6)"/><path style="opacity:.5;fill:#004dc0;fill-opacity:1;fill-rule:evenodd;stroke:none" d="M1403 170.281c-1.802 13.064-18.62 18.169-29.563 13.313-3.812-2.573-.771 2.907.438 4.344 7.453 10.047 25.888 10.2 31.531-1.532 1.853-5.292-.298-11.69-2.406-16.125z" inkscape:connector-curvature="0" transform="matrix(.38372 .04023 -.04112 .37541 -452.669 92.6)"/><g><path d="M1387.797 144.123s-4.703 19.337-15.678 30.311c-10.974 10.975 11.497 31.88 30.311 18.814 18.814-13.065-15.155-49.125-14.633-49.125z" style="fill:#09f;fill-opacity:1;fill-rule:evenodd;stroke:#000;stroke-width:4.43606234;stroke-linecap:butt;stroke-linejoin:miter;stroke-miterlimit:4;stroke-opacity:1;stroke-dasharray:none" inkscape:connector-curvature="0" transform="matrix(.38372 .04023 -.04112 .37541 -464.557 50.97)"/><path d="M1403 170.281c-1.802 13.064-18.62 18.169-29.563 13.313-3.812-2.573-.771 2.907.438 4.344 7.453 10.047 25.888 10.2 31.531-1.532 1.853-5.292-.298-11.69-2.406-16.125z" style="opacity:.5;fill:#004dc0;fill-opacity:1;fill-rule:evenodd;stroke:none" inkscape:connector-curvature="0" transform="matrix(.38372 .04023 -.04112 .37541 -464.557 50.97)"/></g><g><path style="fill:#09f;fill-opacity:1;fill-rule:evenodd;stroke:#000;stroke-width:4.43606234;stroke-linecap:butt;stroke-linejoin:miter;stroke-miterlimit:4;stroke-opacity:1;stroke-dasharray:none" d="M1387.797 144.123s-4.703 19.337-15.678 30.311c-10.974 10.975 11.497 31.88 30.311 18.814 18.814-13.065-15.155-49.125-14.633-49.125z" inkscape:connector-curvature="0" transform="matrix(.38372 .04023 -.04112 .37541 -517.083 125.352)"/><path style="opacity:.5;fill:#004dc0;fill-opacity:1;fill-rule:evenodd;stroke:none" d="M1403 170.281c-1.802 13.064-18.62 18.169-29.563 13.313-3.812-2.573-.771 2.907.438 4.344 7.453 10.047 25.888 10.2 31.531-1.532 1.853-5.292-.298-11.69-2.406-16.125z" inkscape:connector-curvature="0" transform="matrix(.38372 .04023 -.04112 .37541 -517.083 125.352)"/></g><g><path style="fill:#09f;fill-opacity:1;fill-rule:evenodd;stroke:#000;stroke-width:4.43606234;stroke-linecap:butt;stroke-linejoin:miter;stroke-miterlimit:4;stroke-opacity:1;stroke-dasharray:none" d="M1387.797 144.123s-4.703 19.337-15.678 30.311c-10.974 10.975 11.497 31.88 30.311 18.814 18.814-13.065-15.155-49.125-14.633-49.125z" inkscape:connector-curvature="0" transform="matrix(.38372 .04023 -.04112 .37541 -391.645 93.812)"/><path style="opacity:.5;fill:#004dc0;fill-opacity:1;fill-rule:evenodd;stroke:none" d="M1403 170.281c-1.802 13.064-18.62 18.169-29.563 13.313-3.812-2.573-.771 2.907.438 4.344 7.453 10.047 25.888 10.2 31.531-1.532 1.853-5.292-.298-11.69-2.406-16.125z" inkscape:connector-curvature="0" transform="matrix(.38372 .04023 -.04112 .37541 -391.645 93.812)"/></g><g><path d="M1387.797 144.123s-4.703 19.337-15.678 30.311c-10.974 10.975 11.497 31.88 30.311 18.814 18.814-13.065-15.155-49.125-14.633-49.125z" style="fill:#09f;fill-opacity:1;fill-rule:evenodd;stroke:#000;stroke-width:4.43606234;stroke-linecap:butt;stroke-linejoin:miter;stroke-miterlimit:4;stroke-opacity:1;stroke-dasharray:none" inkscape:connector-curvature="0" transform="matrix(.38372 .04023 -.04112 .37541 -449.44 138.064)"/><path d="M1403 170.281c-1.802 13.064-18.62 18.169-29.563 13.313-3.812-2.573-.771 2.907.438 4.344 7.453 10.047 25.888 10.2 31.531-1.532 1.853-5.292-.298-11.69-2.406-16.125z" style="opacity:.5;fill:#004dc0;fill-opacity:1;fill-rule:evenodd;stroke:none" inkscape:connector-curvature="0" transform="matrix(.38372 .04023 -.04112 .37541 -449.44 138.064)"/></g></g><g style="display:inline;enable-background:new"><path d="M1387.797 144.123s-4.703 19.337-15.678 30.311c-10.974 10.975 11.497 31.88 30.311 18.814 18.814-13.065-15.155-49.125-14.633-49.125z" style="fill:#09f;fill-opacity:1;fill-rule:evenodd;stroke:#000;stroke-width:4.43606234;stroke-linecap:butt;stroke-linejoin:miter;stroke-miterlimit:4;stroke-opacity:1;stroke-dasharray:none" inkscape:connector-curvature="0" transform="scale(.38592 .37756) rotate(6.116 17.697 -3725.574)"/><path d="M1403 170.281c-1.802 13.064-18.62 18.169-29.563 13.313-3.812-2.573-.771 2.907.438 4.344 7.453 10.047 25.888 10.2 31.531-1.532 1.853-5.292-.298-11.69-2.406-16.125z" style="opacity:.5;fill:#004dc0;fill-opacity:1;fill-rule:evenodd;stroke:none" inkscape:connector-curvature="0" transform="scale(.38592 .37756) rotate(6.116 17.697 -3725.574)"/><path d="M1387.797 144.123s-4.703 19.337-15.678 30.311c-10.974 10.975 11.497 31.88 30.311 18.814 18.814-13.065-15.155-49.125-14.633-49.125z" style="fill:#09f;fill-opacity:1;fill-rule:evenodd;stroke:#000;stroke-width:4.43606234;stroke-linecap:butt;stroke-linejoin:miter;stroke-miterlimit:4;stroke-opacity:1;stroke-dasharray:none" inkscape:connector-curvature="0" transform="matrix(.38372 .04023 -.04112 .37541 -112.39 -99.454)"/><path d="M1403 170.281c-1.802 13.064-18.62 18.169-29.563 13.313-3.812-2.573-.771 2.907.438 4.344 7.453 10.047 25.888 10.2 31.531-1.532 1.853-5.292-.298-11.69-2.406-16.125z" style="opacity:.5;fill:#004dc0;fill-opacity:1;fill-rule:evenodd;stroke:none" inkscape:connector-curvature="0" transform="matrix(.38372 .04023 -.04112 .37541 -112.39 -99.454)"/><path style="fill:#09f;fill-opacity:1;fill-rule:evenodd;stroke:#000;stroke-width:4.43606234;stroke-linecap:butt;stroke-linejoin:miter;stroke-miterlimit:4;stroke-opacity:1;stroke-dasharray:none" d="M1387.797 144.123s-4.703 19.337-15.678 30.311c-10.974 10.975 11.497 31.88 30.311 18.814 18.814-13.065-15.155-49.125-14.633-49.125z" inkscape:connector-curvature="0" transform="scale(.38592 .37756) rotate(6.116 2177.294 -4140.193)"/><path style="opacity:.5;fill:#004dc0;fill-opacity:1;fill-rule:evenodd;stroke:none" d="M1403 170.281c-1.802 13.064-18.62 18.169-29.563 13.313-3.812-2.573-.771 2.907.438 4.344 7.453 10.047 25.888 10.2 31.531-1.532 1.853-5.292-.298-11.69-2.406-16.125z" inkscape:connector-curvature="0" transform="scale(.38592 .37756) rotate(6.116 2177.294 -4140.193)"/><path d="M1387.797 144.123s-4.703 19.337-15.678 30.311c-10.974 10.975 11.497 31.88 30.311 18.814 18.814-13.065-15.155-49.125-14.633-49.125z" style="fill:#09f;fill-opacity:1;fill-rule:evenodd;stroke:#000;stroke-width:4.43606234;stroke-linecap:butt;stroke-linejoin:miter;stroke-miterlimit:4;stroke-opacity:1;stroke-dasharray:none" inkscape:connector-curvature="0" transform="scale(.38592 .37756) rotate(6.116 1107.816 -5278.92)"/><path d="M1403 170.281c-1.802 13.064-18.62 18.169-29.563 13.313-3.812-2.573-.771 2.907.438 4.344 7.453 10.047 25.888 10.2 31.531-1.532 1.853-5.292-.298-11.69-2.406-16.125z" style="opacity:.5;fill:#004dc0;fill-opacity:1;fill-rule:evenodd;stroke:none" inkscape:connector-curvature="0" transform="scale(.38592 .37756) rotate(6.116 1107.816 -5278.92)"/><path style="fill:#09f;fill-opacity:1;fill-rule:evenodd;stroke:#000;stroke-width:4.43606234;stroke-linecap:butt;stroke-linejoin:miter;stroke-miterlimit:4;stroke-opacity:1;stroke-dasharray:none" d="M1387.797 144.123s-4.703 19.337-15.678 30.311c-10.974 10.975 11.497 31.88 30.311 18.814 18.814-13.065-15.155-49.125-14.633-49.125z" inkscape:connector-curvature="0" transform="matrix(.38372 .04023 -.04112 .37541 -226.51 -97.54)"/><path style="opacity:.5;fill:#004dc0;fill-opacity:1;fill-rule:evenodd;stroke:none" d="M1403 170.281c-1.802 13.064-18.62 18.169-29.563 13.313-3.812-2.573-.771 2.907.438 4.344 7.453 10.047 25.888 10.2 31.531-1.532 1.853-5.292-.298-11.69-2.406-16.125z" inkscape:connector-curvature="0" transform="matrix(.38372 .04023 -.04112 .37541 -226.51 -97.54)"/><g><path d="M1387.797 144.123s-4.703 19.337-15.678 30.311c-10.974 10.975 11.497 31.88 30.311 18.814 18.814-13.065-15.155-49.125-14.633-49.125z" style="fill:#09f;fill-opacity:1;fill-rule:evenodd;stroke:#000;stroke-width:4.43606234;stroke-linecap:butt;stroke-linejoin:miter;stroke-miterlimit:4;stroke-opacity:1;stroke-dasharray:none" inkscape:connector-curvature="0" transform="scale(.38592 .37756) rotate(6.116 212.49 -6797.674)"/><path d="M1403 170.281c-1.802 13.064-18.62 18.169-29.563 13.313-3.812-2.573-.771 2.907.438 4.344 7.453 10.047 25.888 10.2 31.531-1.532 1.853-5.292-.298-11.69-2.406-16.125z" style="opacity:.5;fill:#004dc0;fill-opacity:1;fill-rule:evenodd;stroke:none" inkscape:connector-curvature="0" transform="scale(.38592 .37756) rotate(6.116 212.49 -6797.674)"/></g><g><path d="M1387.797 144.123s-4.703 19.337-15.678 30.311c-10.974 10.975 11.497 31.88 30.311 18.814 18.814-13.065-15.155-49.125-14.633-49.125z" style="fill:#09f;fill-opacity:1;fill-rule:evenodd;stroke:#000;stroke-width:4.43606234;stroke-linecap:butt;stroke-linejoin:miter;stroke-miterlimit:4;stroke-opacity:1;stroke-dasharray:none" inkscape:connector-curvature="0" transform="scale(.38592 .37756) rotate(6.116 1156.837 -3797.402)"/><path d="M1403 170.281c-1.802 13.064-18.62 18.169-29.563 13.313-3.812-2.573-.771 2.907.438 4.344 7.453 10.047 25.888 10.2 31.531-1.532 1.853-5.292-.298-11.69-2.406-16.125z" style="opacity:.5;fill:#004dc0;fill-opacity:1;fill-rule:evenodd;stroke:none" inkscape:connector-curvature="0" transform="scale(.38592 .37756) rotate(6.116 1156.837 -3797.402)"/></g><g><path style="fill:#09f;fill-opacity:1;fill-rule:evenodd;stroke:#000;stroke-width:4.43606234;stroke-linecap:butt;stroke-linejoin:miter;stroke-miterlimit:4;stroke-opacity:1;stroke-dasharray:none" d="M1387.797 144.123s-4.703 19.337-15.678 30.311c-10.974 10.975 11.497 31.88 30.311 18.814 18.814-13.065-15.155-49.125-14.633-49.125z" inkscape:connector-curvature="0" transform="scale(.38592 .37756) rotate(6.116 -14.964 -5140.423)"/><path style="opacity:.5;fill:#004dc0;fill-opacity:1;fill-rule:evenodd;stroke:none" d="M1403 170.281c-1.802 13.064-18.62 18.169-29.563 13.313-3.812-2.573-.771 2.907.438 4.344 7.453 10.047 25.888 10.2 31.531-1.532 1.853-5.292-.298-11.69-2.406-16.125z" inkscape:connector-curvature="0" transform="scale(.38592 .37756) rotate(6.116 -14.964 -5140.423)"/></g><g><path d="M1387.797 144.123s-4.703 19.337-15.678 30.311c-10.974 10.975 11.497 31.88 30.311 18.814 18.814-13.065-15.155-49.125-14.633-49.125z" style="fill:#09f;fill-opacity:1;fill-rule:evenodd;stroke:#000;stroke-width:4.43606234;stroke-linecap:butt;stroke-linejoin:miter;stroke-miterlimit:4;stroke-opacity:1;stroke-dasharray:none" inkscape:connector-curvature="0" transform="matrix(.38372 .04023 -.04112 .37541 -225.463 27.848)"/><path d="M1403 170.281c-1.802 13.064-18.62 18.169-29.563 13.313-3.812-2.573-.771 2.907.438 4.344 7.453 10.047 25.888 10.2 31.531-1.532 1.853-5.292-.298-11.69-2.406-16.125z" style="opacity:.5;fill:#004dc0;fill-opacity:1;fill-rule:evenodd;stroke:none" inkscape:connector-curvature="0" transform="matrix(.38372 .04023 -.04112 .37541 -225.463 27.848)"/></g><g><path d="M1387.797 144.123s-4.703 19.337-15.678 30.311c-10.974 10.975 11.497 31.88 30.311 18.814 18.814-13.065-15.155-49.125-14.633-49.125z" style="fill:#09f;fill-opacity:1;fill-rule:evenodd;stroke:#000;stroke-width:4.43606234;stroke-linecap:butt;stroke-linejoin:miter;stroke-miterlimit:4;stroke-opacity:1;stroke-dasharray:none" inkscape:connector-curvature="0" transform="matrix(.38372 .04023 -.04112 .37541 -286.522 26.793)"/><path d="M1403 170.281c-1.802 13.064-18.62 18.169-29.563 13.313-3.812-2.573-.771 2.907.438 4.344 7.453 10.047 25.888 10.2 31.531-1.532 1.853-5.292-.298-11.69-2.406-16.125z" style="opacity:.5;fill:#004dc0;fill-opacity:1;fill-rule:evenodd;stroke:none" inkscape:connector-curvature="0" transform="matrix(.38372 .04023 -.04112 .37541 -286.522 26.793)"/></g></g><g style="display:inline;enable-background:new"><path style="fill:#09f;fill-opacity:1;fill-rule:evenodd;stroke:#000;stroke-width:4.43606234;stroke-linecap:butt;stroke-linejoin:miter;stroke-miterlimit:4;stroke-opacity:1;stroke-dasharray:none" d="M1387.797 144.123s-4.703 19.337-15.678 30.311c-10.974 10.975 11.497 31.88 30.311 18.814 18.814-13.065-15.155-49.125-14.633-49.125z" inkscape:connector-curvature="0" transform="matrix(.38372 .04023 -.04112 .37541 -241.099 149.423)"/><path style="opacity:.5;fill:#004dc0;fill-opacity:1;fill-rule:evenodd;stroke:none" d="M1403 170.281c-1.802 13.064-18.62 18.169-29.563 13.313-3.812-2.573-.771 2.907.438 4.344 7.453 10.047 25.888 10.2 31.531-1.532 1.853-5.292-.298-11.69-2.406-16.125z" inkscape:connector-curvature="0" transform="matrix(.38372 .04023 -.04112 .37541 -241.099 149.423)"/><path style="fill:#09f;fill-opacity:1;fill-rule:evenodd;stroke:#000;stroke-width:4.43606234;stroke-linecap:butt;stroke-linejoin:miter;stroke-miterlimit:4;stroke-opacity:1;stroke-dasharray:none" d="M1387.797 144.123s-4.703 19.337-15.678 30.311c-10.974 10.975 11.497 31.88 30.311 18.814 18.814-13.065-15.155-49.125-14.633-49.125z" inkscape:connector-curvature="0" transform="matrix(.38372 .04023 -.04112 .37541 -200.342 58.687)"/><path style="opacity:.5;fill:#004dc0;fill-opacity:1;fill-rule:evenodd;stroke:none" d="M1403 170.281c-1.802 13.064-18.62 18.169-29.563 13.313-3.812-2.573-.771 2.907.438 4.344 7.453 10.047 25.888 10.2 31.531-1.532 1.853-5.292-.298-11.69-2.406-16.125z" inkscape:connector-curvature="0" transform="matrix(.38372 .04023 -.04112 .37541 -200.342 58.687)"/><path d="M1387.797 144.123s-4.703 19.337-15.678 30.311c-10.974 10.975 11.497 31.88 30.311 18.814 18.814-13.065-15.155-49.125-14.633-49.125z" style="fill:#09f;fill-opacity:1;fill-rule:evenodd;stroke:#000;stroke-width:4.43606234;stroke-linecap:butt;stroke-linejoin:miter;stroke-miterlimit:4;stroke-opacity:1;stroke-dasharray:none" inkscape:connector-curvature="0" transform="matrix(.38372 .04023 -.04112 .37541 -253.403 61.657)"/><path d="M1403 170.281c-1.802 13.064-18.62 18.169-29.563 13.313-3.812-2.573-.771 2.907.438 4.344 7.453 10.047 25.888 10.2 31.531-1.532 1.853-5.292-.298-11.69-2.406-16.125z" style="opacity:.5;fill:#004dc0;fill-opacity:1;fill-rule:evenodd;stroke:none" inkscape:connector-curvature="0" transform="matrix(.38372 .04023 -.04112 .37541 -253.403 61.657)"/><path style="fill:#09f;fill-opacity:1;fill-rule:evenodd;stroke:#000;stroke-width:4.43606234;stroke-linecap:butt;stroke-linejoin:miter;stroke-miterlimit:4;stroke-opacity:1;stroke-dasharray:none" d="M1387.797 144.123s-4.703 19.337-15.678 30.311c-10.974 10.975 11.497 31.88 30.311 18.814 18.814-13.065-15.155-49.125-14.633-49.125z" inkscape:connector-curvature="0" transform="matrix(.38372 .04023 -.04112 .37541 -302.574 102.232)"/><path style="opacity:.5;fill:#004dc0;fill-opacity:1;fill-rule:evenodd;stroke:none" d="M1403 170.281c-1.802 13.064-18.62 18.169-29.563 13.313-3.812-2.573-.771 2.907.438 4.344 7.453 10.047 25.888 10.2 31.531-1.532 1.853-5.292-.298-11.69-2.406-16.125z" inkscape:connector-curvature="0" transform="matrix(.38372 .04023 -.04112 .37541 -302.574 102.232)"/><g><path d="M1387.797 144.123s-4.703 19.337-15.678 30.311c-10.974 10.975 11.497 31.88 30.311 18.814 18.814-13.065-15.155-49.125-14.633-49.125z" style="fill:#09f;fill-opacity:1;fill-rule:evenodd;stroke:#000;stroke-width:4.43606234;stroke-linecap:butt;stroke-linejoin:miter;stroke-miterlimit:4;stroke-opacity:1;stroke-dasharray:none" inkscape:connector-curvature="0" transform="matrix(.38372 .04023 -.04112 .37541 -314.462 60.602)"/><path d="M1403 170.281c-1.802 13.064-18.62 18.169-29.563 13.313-3.812-2.573-.771 2.907.438 4.344 7.453 10.047 25.888 10.2 31.531-1.532 1.853-5.292-.298-11.69-2.406-16.125z" style="opacity:.5;fill:#004dc0;fill-opacity:1;fill-rule:evenodd;stroke:none" inkscape:connector-curvature="0" transform="matrix(.38372 .04023 -.04112 .37541 -314.462 60.602)"/></g><g><path style="fill:#09f;fill-opacity:1;fill-rule:evenodd;stroke:#000;stroke-width:4.43606234;stroke-linecap:butt;stroke-linejoin:miter;stroke-miterlimit:4;stroke-opacity:1;stroke-dasharray:none" d="M1387.797 144.123s-4.703 19.337-15.678 30.311c-10.974 10.975 11.497 31.88 30.311 18.814 18.814-13.065-15.155-49.125-14.633-49.125z" inkscape:connector-curvature="0" transform="scale(.38592 .37756) rotate(6.116 -3374.32 -8328.16)"/><path style="opacity:.5;fill:#004dc0;fill-opacity:1;fill-rule:evenodd;stroke:none" d="M1403 170.281c-1.802 13.064-18.62 18.169-29.563 13.313-3.812-2.573-.771 2.907.438 4.344 7.453 10.047 25.888 10.2 31.531-1.532 1.853-5.292-.298-11.69-2.406-16.125z" inkscape:connector-curvature="0" transform="scale(.38592 .37756) rotate(6.116 -3374.32 -8328.16)"/></g><g><path style="fill:#09f;fill-opacity:1;fill-rule:evenodd;stroke:#000;stroke-width:4.43606234;stroke-linecap:butt;stroke-linejoin:miter;stroke-miterlimit:4;stroke-opacity:1;stroke-dasharray:none" d="M1387.797 144.123s-4.703 19.337-15.678 30.311c-10.974 10.975 11.497 31.88 30.311 18.814 18.814-13.065-15.155-49.125-14.633-49.125z" inkscape:connector-curvature="0" transform="matrix(.38372 .04023 -.04112 .37541 -241.55 103.444)"/><path style="opacity:.5;fill:#004dc0;fill-opacity:1;fill-rule:evenodd;stroke:none" d="M1403 170.281c-1.802 13.064-18.62 18.169-29.563 13.313-3.812-2.573-.771 2.907.438 4.344 7.453 10.047 25.888 10.2 31.531-1.532 1.853-5.292-.298-11.69-2.406-16.125z" inkscape:connector-curvature="0" transform="matrix(.38372 .04023 -.04112 .37541 -241.55 103.444)"/></g><g><path d="M1387.797 144.123s-4.703 19.337-15.678 30.311c-10.974 10.975 11.497 31.88 30.311 18.814 18.814-13.065-15.155-49.125-14.633-49.125z" style="fill:#09f;fill-opacity:1;fill-rule:evenodd;stroke:#000;stroke-width:4.43606234;stroke-linecap:butt;stroke-linejoin:miter;stroke-miterlimit:4;stroke-opacity:1;stroke-dasharray:none" inkscape:connector-curvature="0" transform="matrix(.38372 .04023 -.04112 .37541 -299.345 147.696)"/><path d="M1403 170.281c-1.802 13.064-18.62 18.169-29.563 13.313-3.812-2.573-.771 2.907.438 4.344 7.453 10.047 25.888 10.2 31.531-1.532 1.853-5.292-.298-11.69-2.406-16.125z" style="opacity:.5;fill:#004dc0;fill-opacity:1;fill-rule:evenodd;stroke:none" inkscape:connector-curvature="0" transform="matrix(.38372 .04023 -.04112 .37541 -299.345 147.696)"/></g></g></g></svg>