<?xml version="1.0" encoding="UTF-8" standalone="no"?>
<!-- Created with Inkscape (http://www.inkscape.org/) -->

<svg
   xmlns:dc="http://purl.org/dc/elements/1.1/"
   xmlns:cc="http://creativecommons.org/ns#"
   xmlns:rdf="http://www.w3.org/1999/02/22-rdf-syntax-ns#"
   xmlns:svg="http://www.w3.org/2000/svg"
   xmlns="http://www.w3.org/2000/svg"
   xmlns:sodipodi="http://sodipodi.sourceforge.net/DTD/sodipodi-0.dtd"
   xmlns:inkscape="http://www.inkscape.org/namespaces/inkscape"
   width="334.91949"
   height="387.35999"
   id="svg4848"
   version="1.1"
   inkscape:version="0.91 r13725"
   sodipodi:docname="river.svg">
  <defs
     id="defs4850" />
  <sodipodi:namedview
     id="base"
     pagecolor="#ffffff"
     bordercolor="#666666"
     borderopacity="1.0"
     inkscape:pageopacity="0.0"
     inkscape:pageshadow="2"
     inkscape:zoom="0.35"
     inkscape:cx="167.46471"
     inkscape:cy="193.61157"
     inkscape:document-units="px"
     inkscape:current-layer="layer1"
     showgrid="false"
     fit-margin-top="0"
     fit-margin-left="0"
     fit-margin-right="0"
     fit-margin-bottom="0"
     inkscape:window-width="470"
     inkscape:window-height="411"
     inkscape:window-x="-2"
     inkscape:window-y="0"
     inkscape:window-maximized="0" />
  <metadata
     id="metadata4853">
    <rdf:RDF>
      <cc:Work
         rdf:about="">
        <dc:format>image/svg+xml</dc:format>
        <dc:type
           rdf:resource="http://purl.org/dc/dcmitype/StillImage" />
        <dc:title />
      </cc:Work>
    </rdf:RDF>
  </metadata>
  <g
     inkscape:label="Layer 1"
     inkscape:groupmode="layer"
     id="layer1"
     transform="translate(-207.53529,-338.61376)">
    <g
       style="display:inline;enable-background:new"
       id="RIVERWATER"
       transform="translate(-27.300082,247.20751)">
      <g
         id="g8239">
        <g
           style="display:inline;enable-background:new"
           id="g17646"
           transform="translate(0,30)">
          <path
             style="fill:#0099ff;fill-opacity:1;fill-rule:evenodd;stroke:#000000;stroke-width:1px;stroke-linecap:butt;stroke-linejoin:miter;stroke-opacity:1;display:inline;enable-background:new"
             d="m 324.63024,92.57156 c 0,0 -4.28553,-0.0392 -17.72056,4.2034 -13.43503,4.2426 -15.55635,-12.0208 -9.19239,-14.8492 6.36396,-2.8285 98.35287,-18.645248 98.35287,-18.645248 l 0.53033,-1.2374 c 0,0 -96.23155,14.048948 -101.35807,16.877348 -5.12653,2.8285 -9.01562,11.137 -5.30331,14.4957 3.71232,3.3588 3.53554,12.3744 15.55635,9.546 12.02082,-2.8285 10.84925,-3.4106 10.84925,-3.4106 l 8.28553,-6.98 z"
             id="path7898"
             sodipodi:nodetypes="cssccssscc"
             inkscape:connector-curvature="0" />
        </g>
        <g
           style="display:inline;enable-background:new"
           id="g7564"
           transform="translate(840,0)">
          <path
             style="fill:#0099ff;fill-opacity:1;fill-rule:evenodd;stroke:#000000;stroke-width:1;stroke-linecap:round;stroke-linejoin:round;stroke-miterlimit:4;stroke-opacity:1;stroke-dasharray:none;display:inline;enable-background:new"
             d="m -539.9375,150.03125 -15.09375,9.8125 c -10e-6,1e-5 -2.50018,2.50004 -2,7 0.48749,4.38576 -0.89667,18.99933 -0.96875,19.75 -15.58418,13.7935 -27.15636,10.09808 -1.5625,48.25005 7.00001,13 -1,32 -3,38 -1.99999,6 -39.00003,32 -42,46 -3,14 68,32 97,28 29.00001,-4 72,31 86,54 14.00001,23 80,50 94,54 14.00001,4 19.5,19 19.5,19 l 36,-12 c 10e-6,0 -25.5,-20 -38.5,-25 -12.99999,-5 -66,-26 -79,-39 -12.99999,-13 -63,-55 -92,-62 -28.99999,-7 -37,6 -95,-12 10e-6,0 -12,-2 -7,-10 5.00001,-8 37,-36 38,-50 1.00001,-14 1,-31 -2,-37 -2.99999,-6 -4.57641,-10.4236 5.42359,-13.4236 -5.23814,-4.84219 16.06949,-11.23696 -10.48609,-22.0139 -2.3173,-1.8094 1.35339,-5.49276 1.5625,-7.78125 3.6764,-6.5537 0.0818,-14.41704 2.125,-21.21875 3.19219,-3.94429 6.10603,-8.14291 9,-12.375 z"
             id="path7439"
             inkscape:connector-curvature="0"
             sodipodi:nodetypes="ccsccsssssccssscssscccccc" />
          <path
             style="opacity:0.25;fill:#00ffff;fill-opacity:1;fill-rule:evenodd;stroke:none"
             d="m -565.86876,196.44194 c 2.06565,15.8599 -10.27882,-2.09565 12.28919,35.40572 1.4472,0.3991 -0.8834,-6.4764 -0.828,-9.2638 2.12093,-17.063 5.81217,-18.34872 1.7813,-29.9062 -4.777,-11.78424 4.73387,-21.23465 -1.6536,-29.6146 -0.8736,31.8424 -5.05755,30.67883 -11.58889,33.37888 z m -27.82001,115.73572 c -4.7345,3.3221 -4.8742,11.6334 1.875,11.875 4.0855,-1.7716 -0.3971,-6.5752 1.6875,-9.7813 1.0422,-3.2211 -1.5639,-3.855 -3.5625,-2.0937 z m 140.625,48.3437 c 18.4053,11.5599 30.2383,30.0007 44.6562,45.75 21.1718,18.3719 47.6165,29.0207 73.3454,39.4061 11.5886,4.0172 24.6041,9.1602 30.1546,21.0626 4.946,-3.623 13.1935,-2.0323 16.5938,-7.5625 0.2822,-4.4337 -6.1154,-5.5906 -8.9375,-8.1875 -32.4032,-19.3446 -71.6952,-26.2271 -100.2043,-52.0169 -16.7236,-15.2843 -34.1688,-29.8056 -53.4207,-41.7955 -5.1838,-0.7619 -5.0706,-1.3173 -2.1875,3.3437 z"
             id="path6945"
             sodipodi:nodetypes="ccccccccccccccccccc"
             inkscape:connector-curvature="0" />
        </g>
      </g>
      <path
         style="fill:#0099ff;fill-opacity:1;stroke:none;display:inline;enable-background:new"
         inkscape:transform-center-x="2.7894032"
         inkscape:transform-center-y="6.816054"
         d="m 531.30195,469.90805 33.89951,-9.3305 4.55341,4.85819 -36.02451,13.3305 -2.42841,-8.85819 z"
         id="rect8273"
         sodipodi:nodetypes="ccccc"
         inkscape:connector-curvature="0" />
    </g>
  </g>
</svg>
