<!--Created with Inkscape (http://www.inkscape.org/)--><svg xmlns:dc="http://purl.org/dc/elements/1.1/" xmlns:cc="http://creativecommons.org/ns#" xmlns:rdf="http://www.w3.org/1999/02/22-rdf-syntax-ns#" xmlns="http://www.w3.org/2000/svg" xmlns:sodipodi="http://sodipodi.sourceforge.net/DTD/sodipodi-0.dtd" xmlns:inkscape="http://www.inkscape.org/namespaces/inkscape" width="100" height="100" sodipodi:version="0.32" inkscape:version="0.91 r13725" version="1.0" sodipodi:docname="hanoi.svg"><sodipodi:namedview pagecolor="#ffffff" bordercolor="#666666" borderopacity="1.0" inkscape:pageopacity="0.0" inkscape:pageshadow="2" inkscape:zoom="6.9348072" inkscape:cx="28.291756" inkscape:cy="37.216818" inkscape:document-units="px" inkscape:current-layer="layer1" height="100px" width="100px" inkscape:window-width="1024" inkscape:window-height="705" inkscape:window-x="-8" inkscape:window-y="-8" showgrid="false" inkscape:window-maximized="1" showguides="true" inkscape:guide-bbox="true"/><metadata><rdf:RDF><cc:Work><dc:format>image/svg+xml</dc:format><dc:type rdf:resource="http://purl.org/dc/dcmitype/StillImage"/><dc:title/><dc:date>2017</dc:date><dc:creator><cc:Agent><dc:title>Timothée Giet and Harpreet S</dc:title></cc:Agent></dc:creator><cc:license rdf:resource="http://creativecommons.org/licenses/by-sa/4.0/"/></cc:Work><cc:License rdf:about="http://creativecommons.org/licenses/by-sa/4.0/"><cc:permits rdf:resource="http://creativecommons.org/ns#Reproduction"/><cc:permits rdf:resource="http://creativecommons.org/ns#Distribution"/><cc:requires rdf:resource="http://creativecommons.org/ns#Notice"/><cc:requires rdf:resource="http://creativecommons.org/ns#Attribution"/><cc:permits rdf:resource="http://creativecommons.org/ns#DerivativeWorks"/><cc:requires rdf:resource="http://creativecommons.org/ns#ShareAlike"/></cc:License></rdf:RDF></metadata><g inkscape:label="Calque 1" inkscape:groupmode="layer"><path style="fill:none;fill-opacity:.75;fill-rule:evenodd;stroke:#000;stroke-linecap:butt;stroke-linejoin:miter;stroke-opacity:1;stroke-width:1,0" d="m8 13077 17 68221L8 13077l82 535605M18 13077l7 68221-7-68221 72 535605M28 13077l-3 68221 3-68221 62 535605M38 13077 25 81298l13-68221 52 535605M48 13077 25 81298l23-68221 42 535605M58 13077 25 81298l33-68221 32 535605M68 13077 25 81298l43-68221 22 535605M78 13077 25 81298l53-68221 12 535605M88 13077 25 81298l63-68221 2 535605m8-535605L25 81298l73-68221-8 535605M3 13077l27 68221 72 416194L30 81298M3 13077l37 68221 62 416194L40 81298M3 13077l47 68221 52 416194L50 81298M3 13077l57 68221 42 416194L60 81298M3 13077l67 68221 32 416194L70 81298M3 13077l77 68221 22 416194L80 81298M3 13077l87 68221 12 416194L90 81298"/><path style="fill:none;fill-opacity:.75;fill-rule:evenodd;stroke:#000;stroke-linecap:butt;stroke-linejoin:miter;stroke-opacity:1;stroke-width:1,0" d="m8 13077 17 68221L8 13077l82 535605M13 213077 25 81298 13 213077l77 335605M18 413077l7-331779-7 331779 72 135605m-67 64395 2-531779-2 531779 67-64395M28 813077 25 81298l3 731779 62-264395M34 13076l-9 68222 9-68222 56 535606M39 213076 25 81298l14 131778 51 335606M44 413076 25 81298l19 331778 46 135606m-41 64394L25 81298l24 531778 41-64394M54 813076 25 81298l29 731778 36-264394M60 13075 25 81298l35-68223 30 535607M65 213075 25 81298l40 131777 25 335607M70 413075 25 81298l45 331777 20 135607m-15 64393L25 81298l50 531777 15-64393M80 813075 25 81298l55 731777 10-264393M86 13074 25 81298l61-68224 4 535608m1-335608L25 81298l66 131776-1 335608m6-135608L25 81298l71 331776-6 135608m11 64392L25 81298l76 531776-11-64392M3 13077l27 68221 72 416194L30 81298M3 13077l37 68221 62 416194L40 81298M3 13077l47 68221 52 416194L50 81298M3 13077l57 68221 42 416194L60 81298M3 13077l67 68221 32 416194L70 81298M3 13077l77 68221 22 416194L80 81298M3 13077l87 68221 12 416194L90 81298"/><path style="fill:#f4a932;fill-opacity:1;fill-rule:evenodd;stroke:none;stroke-width:.94928712px;stroke-linecap:butt;stroke-linejoin:miter;stroke-opacity:1" d="m59.953 23.625 8.253-5.395 9.003.999 3.939 5.794-1.5 8.592-5.815 4.195-1.5 3.797 1.312 3.796-3.939 4.196-6.002-1v-4.195l.75-1.599-.938-3.396 1.689-9.191-3.752 1.798-1.5-8.391z" inkscape:connector-curvature="0"/><path sodipodi:nodetypes="ccccsccccccccccccscccccccccccccc" inkscape:connector-curvature="0" style="font-style:normal;font-variant:normal;font-weight:400;font-stretch:normal;font-size:medium;line-height:100%;font-family:'Indigo Joker';text-align:start;writing-mode:lr-tb;text-anchor:start;fill:#9f6710;fill-opacity:1;stroke:none;stroke-width:1px;stroke-linecap:butt;stroke-linejoin:miter;stroke-opacity:1" d="M82.609 25.42c-.55 8.928-4.009 8.746-8.245 12.804.023.832-.203 1.646-.397 2.363 0 .047.143.294.43.74 1.742 2.799-.928 6.815-3.477 7.83-3.156 1.258-8.343.894-8.41-3.138.056-1.22.552-2.236.96-3.28-.176-.095-.42-.283-.728-.565-.155-.212-.232-.858-.232-1.94-.357-3.227 1.234-8.045 1.422-9.057-.955.558-1.974 1.168-3.045 1.791-1.11-3.54-1.506-6.595-2.45-9.417-.199-.494-.298-.776-.298-.847 9.954-8.007 24.557-7.601 24.47 2.716zm-3.047-.247c-.86-3.903-3.874-5.855-9.039-5.855-3.04.335-6.342 1.123-8.377 3.669-.287.352-.43.681-.43.987 0 .635.209 2.14.628 4.515.022.164.155.353.398.564 2.59-1.975 8.651-3.983 8.708.811-.749 2.303-3.201 1.667-5.165 1.552-1.098 2.278-1.16 4.94-1.16 7.795 0 .165.045.353.133.565.133.305.287.458.464.458 2.092-.647 3.855-.444 5.96-1.305.088-.682.21-1.67.364-2.963 5.554-.956 7.679-5.488 7.516-10.793zm-7.681 16.754c-2.275-1.457-6.886.83-6.954 3.316.998 2.62 5.732 1.486 6.854-.247.845-1.217.805-2.064.1-3.069z"/><rect style="opacity:1;fill:#a75a27;fill-opacity:1;fill-rule:evenodd;stroke:#17761d;stroke-width:0;stroke-linecap:round;stroke-linejoin:bevel;stroke-miterlimit:4;stroke-dasharray:none;stroke-dashoffset:0;stroke-opacity:1" width="8.7074289" height="52.681293" x="15.974996" y="37.681614" rx="5.8943501" ry="4.5884099"/><rect style="opacity:1;fill:#e6945e;fill-opacity:1;fill-rule:evenodd;stroke:#17761d;stroke-width:0;stroke-linecap:round;stroke-linejoin:bevel;stroke-miterlimit:4;stroke-dasharray:none;stroke-dashoffset:0;stroke-opacity:1" width="6.1464205" height="47.955929" x="17.255497" y="40.860027" rx="5.8943501" ry="4.5884099"/><rect style="opacity:1;fill:#a75a27;fill-opacity:1;fill-rule:evenodd;stroke:#17761d;stroke-width:0;stroke-linecap:round;stroke-linejoin:bevel;stroke-miterlimit:4;stroke-dasharray:none;stroke-dashoffset:0;stroke-opacity:1" width="30.565445" height="8.5121021" x="4.8684735" y="83.982559" ry="4.1805592" rx="3.9540279"/><rect style="opacity:1;fill:#e6945e;fill-opacity:1;fill-rule:evenodd;stroke:#17761d;stroke-width:0;stroke-linecap:round;stroke-linejoin:bevel;stroke-miterlimit:4;stroke-dasharray:none;stroke-dashoffset:0;stroke-opacity:1" width="27.445614" height="6.4609928" x="6.5059476" y="84.956833" ry="2.7530453" rx="3.8550506"/><rect ry="4.5884104" rx="5.8943501" y="39.024662" x="17.255497" height="49.791298" width="6.1464205" style="opacity:1;fill:#e6945e;fill-opacity:1;fill-rule:evenodd;stroke:#17761d;stroke-width:0;stroke-linecap:round;stroke-linejoin:bevel;stroke-miterlimit:4;stroke-dasharray:none;stroke-dashoffset:0;stroke-opacity:1"/><rect style="opacity:1;fill:#9f6811;fill-opacity:1;fill-rule:evenodd;stroke:#17761d;stroke-width:0;stroke-linecap:round;stroke-linejoin:bevel;stroke-miterlimit:4;stroke-dasharray:none;stroke-dashoffset:0;stroke-opacity:1" width="27.78219" height="10.440917" x="6.1638379" y="42.92263" ry="6.8316464" rx="4.7697449"/><rect style="opacity:1;fill:#ffac27;fill-opacity:1;fill-rule:evenodd;stroke:#17761d;stroke-width:0;stroke-linecap:round;stroke-linejoin:bevel;stroke-miterlimit:4;stroke-dasharray:none;stroke-dashoffset:0;stroke-opacity:1" width="23.441578" height="8.2055473" x="8.5656757" y="44.117676" ry="3.7726941" rx="3.6511216"/><rect style="opacity:1;fill:#a75a27;fill-opacity:1;fill-rule:evenodd;stroke:#17761d;stroke-width:0;stroke-linecap:round;stroke-linejoin:bevel;stroke-miterlimit:4;stroke-dasharray:none;stroke-dashoffset:0;stroke-opacity:1" width="30.565445" height="8.5121021" x="38.14687" y="83.818497" ry="4.1805592" rx="3.9540279"/><rect style="opacity:1;fill:#a11a17;fill-opacity:1;fill-rule:evenodd;stroke:#17761d;stroke-width:0;stroke-linecap:round;stroke-linejoin:bevel;stroke-miterlimit:4;stroke-dasharray:none;stroke-dashoffset:0;stroke-opacity:1" width="27.78219" height="10.440917" x="6.0940208" y="53.177872" ry="6.8316464" rx="4.7697449"/><rect style="opacity:1;fill:#f43732;fill-opacity:1;fill-rule:evenodd;stroke:#17761d;stroke-width:0;stroke-linecap:round;stroke-linejoin:bevel;stroke-miterlimit:4;stroke-dasharray:none;stroke-dashoffset:0;stroke-opacity:1" width="23.441578" height="8.3075132" x="8.3981047" y="54.147221" ry="3.7726941" rx="3.6511216"/><rect style="opacity:1;fill:#4a861e;fill-opacity:1;fill-rule:evenodd;stroke:#17761d;stroke-width:0;stroke-linecap:round;stroke-linejoin:bevel;stroke-miterlimit:4;stroke-dasharray:none;stroke-dashoffset:0;stroke-opacity:1" width="27.78219" height="10.440917" x="6.2979507" y="63.578289" ry="6.8316464" rx="4.7697449"/><rect style="opacity:1;fill:#83df39;fill-opacity:1;fill-rule:evenodd;stroke:#17761d;stroke-width:0;stroke-linecap:round;stroke-linejoin:bevel;stroke-miterlimit:4;stroke-dasharray:none;stroke-dashoffset:0;stroke-opacity:1" width="23.441578" height="8.3075132" x="8.4877682" y="64.514183" ry="3.7726941" rx="3.6511216"/><rect style="opacity:1;fill:#12449a;fill-opacity:1;fill-rule:evenodd;stroke:#17761d;stroke-width:0;stroke-linecap:round;stroke-linejoin:bevel;stroke-miterlimit:4;stroke-dasharray:none;stroke-dashoffset:0;stroke-opacity:1" width="27.78219" height="10.440917" x="6.5018806" y="73.774773" ry="6.8316464" rx="4.7697449"/><rect style="opacity:1;fill:#337ef3;fill-opacity:1;fill-rule:evenodd;stroke:#17761d;stroke-width:0;stroke-linecap:round;stroke-linejoin:bevel;stroke-miterlimit:4;stroke-dasharray:none;stroke-dashoffset:0;stroke-opacity:1" width="23.441578" height="8.2055483" x="8.5774317" y="74.995201" ry="3.7726943" rx="3.6511216"/><rect style="opacity:1;fill:#a75a27;fill-opacity:1;fill-rule:evenodd;stroke:#17761d;stroke-width:0;stroke-linecap:round;stroke-linejoin:bevel;stroke-miterlimit:4;stroke-dasharray:none;stroke-dashoffset:0;stroke-opacity:1" width="30.565445" height="8.5121021" x="38.146873" y="84.02243" ry="4.1805592" rx="3.9540279"/><rect style="opacity:1;fill:#a75a27;fill-opacity:1;fill-rule:evenodd;stroke:#17761d;stroke-width:0;stroke-linecap:round;stroke-linejoin:bevel;stroke-miterlimit:4;stroke-dasharray:none;stroke-dashoffset:0;stroke-opacity:1" width="8.7074289" height="52.681293" x="49.661255" y="37.313629" rx="5.8943501" ry="4.5884099"/><rect style="opacity:1;fill:#e6945e;fill-opacity:1;fill-rule:evenodd;stroke:#17761d;stroke-width:0;stroke-linecap:round;stroke-linejoin:bevel;stroke-miterlimit:4;stroke-dasharray:none;stroke-dashoffset:0;stroke-opacity:1" width="6.1464205" height="47.955929" x="50.941757" y="40.492043" rx="5.8943501" ry="4.5884099"/><rect style="opacity:1;fill:#a75a27;fill-opacity:1;fill-rule:evenodd;stroke:#17761d;stroke-width:0;stroke-linecap:round;stroke-linejoin:bevel;stroke-miterlimit:4;stroke-dasharray:none;stroke-dashoffset:0;stroke-opacity:1" width="30.565445" height="8.5121021" x="38.554733" y="83.614571" ry="4.1805592" rx="3.9540279"/><rect style="opacity:1;fill:#e6945e;fill-opacity:1;fill-rule:evenodd;stroke:#17761d;stroke-width:0;stroke-linecap:round;stroke-linejoin:bevel;stroke-miterlimit:4;stroke-dasharray:none;stroke-dashoffset:0;stroke-opacity:1" width="27.445614" height="6.4609928" x="40.192207" y="84.588844" ry="2.7530453" rx="3.8550506"/><rect ry="4.5884104" rx="5.8943501" y="38.656677" x="50.941757" height="49.791298" width="6.1464205" style="opacity:1;fill:#e6945e;fill-opacity:1;fill-rule:evenodd;stroke:#17761d;stroke-width:0;stroke-linecap:round;stroke-linejoin:bevel;stroke-miterlimit:4;stroke-dasharray:none;stroke-dashoffset:0;stroke-opacity:1"/><rect style="opacity:1;fill:#a11a17;fill-opacity:1;fill-rule:evenodd;stroke:#17761d;stroke-width:0;stroke-linecap:round;stroke-linejoin:bevel;stroke-miterlimit:4;stroke-dasharray:none;stroke-dashoffset:0;stroke-opacity:1" width="27.78219" height="10.440917" x="39.547421" y="53.045467" ry="6.8316464" rx="4.7697449"/><rect style="opacity:1;fill:#f43732;fill-opacity:1;fill-rule:evenodd;stroke:#17761d;stroke-width:0;stroke-linecap:round;stroke-linejoin:bevel;stroke-miterlimit:4;stroke-dasharray:none;stroke-dashoffset:0;stroke-opacity:1" width="23.441578" height="8.3075132" x="41.851501" y="54.014816" ry="3.7726941" rx="3.6511216"/><rect style="opacity:1;fill:#4a861e;fill-opacity:1;fill-rule:evenodd;stroke:#17761d;stroke-width:0;stroke-linecap:round;stroke-linejoin:bevel;stroke-miterlimit:4;stroke-dasharray:none;stroke-dashoffset:0;stroke-opacity:1" width="27.78219" height="10.440917" x="39.75135" y="63.445885" ry="6.8316464" rx="4.7697449"/><rect style="opacity:1;fill:#83df39;fill-opacity:1;fill-rule:evenodd;stroke:#17761d;stroke-width:0;stroke-linecap:round;stroke-linejoin:bevel;stroke-miterlimit:4;stroke-dasharray:none;stroke-dashoffset:0;stroke-opacity:1" width="23.441578" height="8.3075132" x="41.941166" y="64.381775" ry="3.7726941" rx="3.6511216"/><rect style="opacity:1;fill:#12449a;fill-opacity:1;fill-rule:evenodd;stroke:#17761d;stroke-width:0;stroke-linecap:round;stroke-linejoin:bevel;stroke-miterlimit:4;stroke-dasharray:none;stroke-dashoffset:0;stroke-opacity:1" width="27.78219" height="10.440917" x="39.95528" y="73.642365" ry="6.8316464" rx="4.7697449"/><rect style="opacity:1;fill:#337ef3;fill-opacity:1;fill-rule:evenodd;stroke:#17761d;stroke-width:0;stroke-linecap:round;stroke-linejoin:bevel;stroke-miterlimit:4;stroke-dasharray:none;stroke-dashoffset:0;stroke-opacity:1" width="23.441578" height="8.2055483" x="42.03083" y="74.862793" ry="3.7726943" rx="3.6511216"/></g></svg>