<svg xmlns:dc="http://purl.org/dc/elements/1.1/" xmlns:cc="http://creativecommons.org/ns#" xmlns:rdf="http://www.w3.org/1999/02/22-rdf-syntax-ns#" xmlns="http://www.w3.org/2000/svg" viewBox="0 0 180 120" height="120" width="180"><metadata><rdf:RDF><cc:Work><dc:format>image/svg+xml</dc:format><dc:type rdf:resource="http://purl.org/dc/dcmitype/StillImage"/><dc:title/><dc:date>2020</dc:date><dc:creator><cc:Agent><dc:title>Timothée Giet</dc:title></cc:Agent></dc:creator><cc:license rdf:resource="http://creativecommons.org/licenses/by-sa/4.0/"/></cc:Work><cc:License rdf:about="http://creativecommons.org/licenses/by-sa/4.0/"><cc:permits rdf:resource="http://creativecommons.org/ns#Reproduction"/><cc:permits rdf:resource="http://creativecommons.org/ns#Distribution"/><cc:requires rdf:resource="http://creativecommons.org/ns#Notice"/><cc:requires rdf:resource="http://creativecommons.org/ns#Attribution"/><cc:permits rdf:resource="http://creativecommons.org/ns#DerivativeWorks"/><cc:requires rdf:resource="http://creativecommons.org/ns#ShareAlike"/></cc:License></rdf:RDF></metadata><g transform="translate(0 -932.362)"><rect ry="7.1098094" rx="3.9206023" y="1004.6357" x="24.009747" height="30.218592" width="143.20216" style="color:#000;display:inline;overflow:visible;visibility:visible;opacity:1;fill:#887d50;fill-opacity:1;fill-rule:nonzero;stroke:none;stroke-width:2.26971984;stroke-linecap:round;stroke-linejoin:round;stroke-miterlimit:4;stroke-dasharray:none;stroke-dashoffset:0;stroke-opacity:1;marker:none;marker-start:none;marker-mid:none;marker-end:none"/><rect ry="5.2007236" rx="3.7769163" y="1007.3405" x="26.633862" height="22.104467" width="137.95393" style="color:#000;display:inline;overflow:visible;visibility:visible;opacity:1;fill:#cfc28f;fill-opacity:1;fill-rule:nonzero;stroke:none;stroke-width:2.26971984;stroke-linecap:round;stroke-linejoin:round;stroke-miterlimit:4;stroke-dasharray:none;stroke-dashoffset:0;stroke-opacity:1;marker:none;marker-start:none;marker-mid:none;marker-end:none"/><path style="color:#000;display:inline;overflow:visible;visibility:visible;opacity:1;fill:#2c4f97;fill-opacity:1;fill-rule:nonzero;stroke:none;stroke-width:1.64933383;stroke-linecap:round;stroke-linejoin:round;stroke-miterlimit:4;stroke-dasharray:none;stroke-dashoffset:0;stroke-opacity:1;marker:none;marker-start:none;marker-mid:none;marker-end:none" d="M62.733 1036.261a17.097 16.101 0 0 1-17.097 16.101 17.097 16.101 0 0 1-17.097-16.1 17.097 16.101 0 0 1 17.097-16.102 17.097 16.101 0 0 1 17.097 16.101z"/><rect ry="5.1490493" rx="3.9206023" y="960.73254" x="97.218185" height="74.252106" width="17.242712" style="color:#000;display:inline;overflow:visible;visibility:visible;opacity:1;fill:#be680c;fill-opacity:1;fill-rule:nonzero;stroke:none;stroke-width:1.9315536;stroke-linecap:round;stroke-linejoin:round;stroke-miterlimit:4;stroke-dasharray:none;stroke-dashoffset:0;stroke-opacity:1;marker:none;marker-start:none;marker-mid:none;marker-end:none"/><rect ry="5.1490483" rx="3.9206023" y="980.38049" x="29.525116" height="12.213738" width="61.530243" style="color:#000;display:inline;overflow:visible;visibility:visible;opacity:1;fill:#be680c;fill-opacity:1;fill-rule:nonzero;stroke:none;stroke-width:1.9315536;stroke-linecap:round;stroke-linejoin:round;stroke-miterlimit:4;stroke-dasharray:none;stroke-dashoffset:0;stroke-opacity:1;marker:none;marker-start:none;marker-mid:none;marker-end:none"/><rect ry="5.1490483" rx="3.9206023" y="992.23492" height="12.703414" width="92.955078" style="color:#000;display:inline;overflow:visible;visibility:visible;opacity:1;fill:#be680c;fill-opacity:1;fill-rule:nonzero;stroke:none;stroke-width:1.9315536;stroke-linecap:round;stroke-linejoin:round;stroke-miterlimit:4;stroke-dasharray:none;stroke-dashoffset:0;stroke-opacity:1;marker:none;marker-start:none;marker-mid:none;marker-end:none"/><rect ry="5.1490483" rx="3.9206023" y="954.42596" x="135.44557" height="46.28521" width="13.151215" style="color:#000;display:inline;overflow:visible;visibility:visible;opacity:1;fill:#887d50;fill-opacity:1;fill-rule:nonzero;stroke:none;stroke-width:1.9315536;stroke-linecap:round;stroke-linejoin:round;stroke-miterlimit:4;stroke-dasharray:none;stroke-dashoffset:0;stroke-opacity:1;marker:none;marker-start:none;marker-mid:none;marker-end:none"/><rect ry="4.9564428" rx="2.9487832" y="955.29169" x="136.83067" height="44.55386" width="9.8913574" style="color:#000;display:inline;overflow:visible;visibility:visible;opacity:1;fill:#ded5b1;fill-opacity:1;fill-rule:nonzero;stroke:none;stroke-width:1.9315536;stroke-linecap:round;stroke-linejoin:round;stroke-miterlimit:4;stroke-dasharray:none;stroke-dashoffset:0;stroke-opacity:1;marker:none;marker-start:none;marker-mid:none;marker-end:none"/><rect ry="5.1490488" rx="3.9206023" y="967.92041" x="116.32491" height="13.07373" width="51.39254" style="color:#000;display:inline;overflow:visible;visibility:visible;opacity:1;fill:#be680c;fill-opacity:1;fill-rule:nonzero;stroke:none;stroke-width:1.9315536;stroke-linecap:round;stroke-linejoin:round;stroke-miterlimit:4;stroke-dasharray:none;stroke-dashoffset:0;stroke-opacity:1;marker:none;marker-start:none;marker-mid:none;marker-end:none"/><path style="color:#000;display:inline;overflow:visible;visibility:visible;opacity:1;fill:#2c4f97;fill-opacity:1;fill-rule:nonzero;stroke:none;stroke-width:1.93160927;stroke-linecap:round;stroke-linejoin:round;stroke-miterlimit:4;stroke-dasharray:none;stroke-dashoffset:0;stroke-opacity:1;marker:none;marker-start:none;marker-mid:none;marker-end:none" d="m103.42 938.701 8.077.04c2.172.01 3.89 2.315 3.85 5.167l-.034 2.612c-.039 2.853-1.818 5.14-3.99 5.13l-8.076-.04c-2.172-.01-3.89-2.315-3.851-5.167l.035-2.613c.038-2.852 1.817-5.14 3.99-5.129z"/><path d="m90.507 948.31 30.588 4.79 3.637 3.764c0 2.478-1.225 4.472-2.746 4.472H90.507c-1.52 0-2.745-1.994-2.745-4.472v-4.082c0-2.478 1.224-4.472 2.745-4.472z" style="color:#000;display:inline;overflow:visible;visibility:visible;fill:#cea111;fill-opacity:1;fill-rule:nonzero;stroke:none;stroke-width:1.9315536;stroke-linecap:round;stroke-linejoin:round;stroke-miterlimit:4;stroke-dasharray:none;stroke-dashoffset:0;stroke-opacity:1;marker:none;marker-start:none;marker-mid:none;marker-end:none"/><path style="color:#000;display:inline;overflow:visible;visibility:visible;fill:#cea111;fill-opacity:1;fill-rule:nonzero;stroke:none;stroke-width:1.9315536;stroke-linecap:round;stroke-linejoin:round;stroke-miterlimit:4;stroke-dasharray:none;stroke-dashoffset:0;stroke-opacity:1;marker:none;marker-start:none;marker-mid:none;marker-end:none" d="m73.479 940.84-26.371.035c-2.117 0-3.809 1.99-3.809 4.467v30.662c0 2.478 1.692 4.47 3.809 4.47H78.05c2.116 0 3.836-1.992 3.836-4.47l.441-17.752c0-2.477-6.733-17.412-8.85-17.412zm-8.582 12.73a4.652 4.308 0 0 1 4.652 4.307 4.652 4.308 0 0 1-4.652 4.309 4.652 4.308 0 0 1-4.653-4.309 4.652 4.308 0 0 1 4.653-4.306z"/><path style="color:#000;display:inline;overflow:visible;visibility:visible;fill:#f2c228;fill-opacity:1;fill-rule:nonzero;stroke:none;stroke-width:1.9315536;stroke-linecap:round;stroke-linejoin:round;stroke-miterlimit:4;stroke-dasharray:none;stroke-dashoffset:0;stroke-opacity:1;marker:none;marker-start:none;marker-mid:none;marker-end:none" d="m72.242 943.534-24.22.029c-1.944 0-3.5 1.72-3.5 3.861v26.494c0 2.141 1.556 3.862 3.5 3.862H76.44c1.943 0 3.523-1.72 3.523-3.862l.406-15.338c0-2.14-6.183-15.046-8.127-15.046zm-7.59 7.977c3.651 0 6.611 2.74 6.611 6.121 0 3.381-2.96 6.122-6.611 6.122s-6.611-2.74-6.611-6.122c0-3.38 2.96-6.12 6.61-6.12z"/><path d="m44.607 932.362 31.4 1.106 5.12 6.47c0 2.477-1.307 5.45-2.93 5.45h-33.59c-1.624 0-2.93-1.994-2.93-4.471v-4.083c0-2.477 1.306-4.472 2.93-4.472z" style="color:#000;display:inline;overflow:visible;visibility:visible;fill:#cea111;fill-opacity:1;fill-rule:nonzero;stroke:none;stroke-width:1.9315536;stroke-linecap:round;stroke-linejoin:round;stroke-miterlimit:4;stroke-dasharray:none;stroke-dashoffset:0;stroke-opacity:1;marker:none;marker-start:none;marker-mid:none;marker-end:none"/><path style="color:#000;display:inline;overflow:visible;visibility:visible;opacity:1;fill:#3b6dd6;fill-opacity:1;fill-rule:nonzero;stroke:none;stroke-width:1.64933383;stroke-linecap:round;stroke-linejoin:round;stroke-miterlimit:4;stroke-dasharray:none;stroke-dashoffset:0;stroke-opacity:1;marker:none;marker-start:none;marker-mid:none;marker-end:none" d="M59.882 1035.443a14.491 13.647 0 0 1-14.49 13.647 14.491 13.647 0 0 1-14.492-13.647 14.491 13.647 0 0 1 14.491-13.647 14.491 13.647 0 0 1 14.491 13.647z"/><path style="color:#000;display:inline;overflow:visible;visibility:visible;opacity:1;fill:#2c4f97;fill-opacity:1;fill-rule:nonzero;stroke:none;stroke-width:1.64933383;stroke-linecap:round;stroke-linejoin:round;stroke-miterlimit:4;stroke-dasharray:none;stroke-dashoffset:0;stroke-opacity:1;marker:none;marker-start:none;marker-mid:none;marker-end:none" d="M158.243 1036.261a17.097 16.101 0 0 1-17.097 16.101 17.097 16.101 0 0 1-17.096-16.1 17.097 16.101 0 0 1 17.096-16.102 17.097 16.101 0 0 1 17.097 16.101z"/><path style="color:#000;display:inline;overflow:visible;visibility:visible;opacity:1;fill:#3b6dd6;fill-opacity:1;fill-rule:nonzero;stroke:none;stroke-width:1.64933383;stroke-linecap:round;stroke-linejoin:round;stroke-miterlimit:4;stroke-dasharray:none;stroke-dashoffset:0;stroke-opacity:1;marker:none;marker-start:none;marker-mid:none;marker-end:none" d="M155.393 1035.443a14.491 13.647 0 0 1-14.492 13.647 14.491 13.647 0 0 1-14.49-13.647 14.491 13.647 0 0 1 14.49-13.647 14.491 13.647 0 0 1 14.492 13.647z"/><rect ry="5.1490488" rx="3.9206023" y="991.92041" x="116.32491" height="13.07373" width="51.39254" style="color:#000;display:inline;overflow:visible;visibility:visible;opacity:1;fill:#be680c;fill-opacity:1;fill-rule:nonzero;stroke:none;stroke-width:1.9315536;stroke-linecap:round;stroke-linejoin:round;stroke-miterlimit:4;stroke-dasharray:none;stroke-dashoffset:0;stroke-opacity:1;marker:none;marker-start:none;marker-mid:none;marker-end:none"/><rect ry="5.1490488" rx="3.9206023" y="979.92041" x="116.32491" height="13.07373" width="51.39254" style="color:#000;display:inline;overflow:visible;visibility:visible;opacity:1;fill:#be680c;fill-opacity:1;fill-rule:nonzero;stroke:none;stroke-width:1.9315536;stroke-linecap:round;stroke-linejoin:round;stroke-miterlimit:4;stroke-dasharray:none;stroke-dashoffset:0;stroke-opacity:1;marker:none;marker-start:none;marker-mid:none;marker-end:none"/><rect ry="3.9918494" rx="3.5843816" y="992.89978" x="118.28371" height="10.135535" width="46.985245" style="color:#000;display:inline;overflow:visible;visibility:visible;opacity:1;fill:#f1810a;fill-opacity:1;fill-rule:nonzero;stroke:none;stroke-width:1.9315536;stroke-linecap:round;stroke-linejoin:round;stroke-miterlimit:4;stroke-dasharray:none;stroke-dashoffset:0;stroke-opacity:1;marker:none;marker-start:none;marker-mid:none;marker-end:none"/><rect ry="5.1490488" rx="3.9206023" y="1000.5942" x="162.65793" height="34.129917" width="17.342077" style="color:#000;display:inline;overflow:visible;visibility:visible;opacity:1;fill:#cea111;fill-opacity:1;fill-rule:nonzero;stroke:none;stroke-width:2.26906157;stroke-linecap:round;stroke-linejoin:round;stroke-miterlimit:4;stroke-dasharray:none;stroke-dashoffset:0;stroke-opacity:1;marker:none;marker-start:none;marker-mid:none;marker-end:none"/><rect ry="3.9918494" rx="3.5843816" y="980.89984" x="118.28371" height="10.135535" width="46.985245" style="color:#000;display:inline;overflow:visible;visibility:visible;opacity:1;fill:#f1810a;fill-opacity:1;fill-rule:nonzero;stroke:none;stroke-width:1.9315536;stroke-linecap:round;stroke-linejoin:round;stroke-miterlimit:4;stroke-dasharray:none;stroke-dashoffset:0;stroke-opacity:1;marker:none;marker-start:none;marker-mid:none;marker-end:none"/><rect ry="4.5580163" rx="3.1384513" y="1001.5735" x="164.14294" height="30.212322" width="13.882373" style="color:#000;display:inline;overflow:visible;visibility:visible;opacity:1;fill:#f2c228;fill-opacity:1;fill-rule:nonzero;stroke:none;stroke-width:2.26906157;stroke-linecap:round;stroke-linejoin:round;stroke-miterlimit:4;stroke-dasharray:none;stroke-dashoffset:0;stroke-opacity:1;marker:none;marker-start:none;marker-mid:none;marker-end:none"/><path d="m45.54 933.586 29.016 1.06 4.612 5.489c0 1.825-1.177 3.307-2.639 3.295l-30.99-.245c-1.461-.011-2.638-1.47-2.638-3.295v-3.008c0-1.826 1.177-3.296 2.639-3.296z" style="color:#000;display:inline;overflow:visible;visibility:visible;fill:#f2c228;fill-opacity:1;fill-rule:nonzero;stroke:none;stroke-width:1.9315536;stroke-linecap:round;stroke-linejoin:round;stroke-miterlimit:4;stroke-dasharray:none;stroke-dashoffset:0;stroke-opacity:1;marker:none;marker-start:none;marker-mid:none;marker-end:none"/><path style="color:#000;display:inline;overflow:visible;visibility:visible;opacity:1;fill:#3b6dd6;fill-opacity:1;fill-rule:nonzero;stroke:none;stroke-width:1.93160927;stroke-linecap:round;stroke-linejoin:round;stroke-miterlimit:4;stroke-dasharray:none;stroke-dashoffset:0;stroke-opacity:1;marker:none;marker-start:none;marker-mid:none;marker-end:none" d="m104.025 940.138 6.34.027c1.706.007 3.054 1.583 3.024 3.532l-.027 1.785c-.03 1.95-1.428 3.513-3.133 3.506l-6.34-.027c-1.706-.007-3.055-1.582-3.025-3.532l.028-1.785c.03-1.95 1.427-3.513 3.132-3.506z"/><rect ry="4.7768598" rx="3.1332636" y="962.98334" x="98.776413" height="68.884926" width="13.780015" style="color:#000;display:inline;overflow:visible;visibility:visible;opacity:1;fill:#f1810a;fill-opacity:1;fill-rule:nonzero;stroke:none;stroke-width:1.9315536;stroke-linecap:round;stroke-linejoin:round;stroke-miterlimit:4;stroke-dasharray:none;stroke-dashoffset:0;stroke-opacity:1;marker:none;marker-start:none;marker-mid:none;marker-end:none"/><rect ry="3.8127756" rx="3.7420166" y="993.70392" x="1.5408325" height="9.4066448" width="88.720917" style="color:#000;display:inline;overflow:visible;visibility:visible;opacity:1;fill:#f1810a;fill-opacity:1;fill-rule:nonzero;stroke:none;stroke-width:1.9315536;stroke-linecap:round;stroke-linejoin:round;stroke-miterlimit:4;stroke-dasharray:none;stroke-dashoffset:0;stroke-opacity:1;marker:none;marker-start:none;marker-mid:none;marker-end:none"/><rect ry="3.9958816" rx="3.7021828" y="981.84961" x="30.749388" height="9.4783831" width="58.102348" style="color:#000;display:inline;overflow:visible;visibility:visible;opacity:1;fill:#f1810a;fill-opacity:1;fill-rule:nonzero;stroke:none;stroke-width:1.9315536;stroke-linecap:round;stroke-linejoin:round;stroke-miterlimit:4;stroke-dasharray:none;stroke-dashoffset:0;stroke-opacity:1;marker:none;marker-start:none;marker-mid:none;marker-end:none"/><rect ry="3.9918494" rx="3.5843816" y="968.89984" x="118.28371" height="10.135535" width="46.985245" style="color:#000;display:inline;overflow:visible;visibility:visible;opacity:1;fill:#f1810a;fill-opacity:1;fill-rule:nonzero;stroke:none;stroke-width:1.9315536;stroke-linecap:round;stroke-linejoin:round;stroke-miterlimit:4;stroke-dasharray:none;stroke-dashoffset:0;stroke-opacity:1;marker:none;marker-start:none;marker-mid:none;marker-end:none"/><path d="m91.704 950.269 27.549 3.529 3.275 2.774c0 1.826-1.103 3.295-2.473 3.295H91.704c-1.37 0-2.473-1.47-2.473-3.295v-3.008c0-1.826 1.103-3.295 2.473-3.295z" style="color:#000;display:inline;overflow:visible;visibility:visible;fill:#f2c228;fill-opacity:1;fill-rule:nonzero;stroke:none;stroke-width:1.9315536;stroke-linecap:round;stroke-linejoin:round;stroke-miterlimit:4;stroke-dasharray:none;stroke-dashoffset:0;stroke-opacity:1;marker:none;marker-start:none;marker-mid:none;marker-end:none"/><g transform="matrix(1 0 0 1.11352 -340.892 491.346)"><circle style="color:#000;clip-rule:nonzero;display:inline;overflow:visible;visibility:visible;opacity:1;isolation:auto;mix-blend-mode:normal;color-interpolation:sRGB;color-interpolation-filters:linearRGB;solid-color:#000;solid-opacity:1;fill:#2c4f97;fill-opacity:1;fill-rule:evenodd;stroke:none;stroke-width:1.56299996;stroke-linecap:square;stroke-linejoin:miter;stroke-miterlimit:4;stroke-dasharray:none;stroke-dashoffset:0;stroke-opacity:1;marker:none;color-rendering:auto;image-rendering:auto;shape-rendering:auto;text-rendering:auto;enable-background:accumulate" cx="386.52753" cy="489.36133" r="5.3671799"/><circle style="color:#000;clip-rule:nonzero;display:inline;overflow:visible;visibility:visible;opacity:1;isolation:auto;mix-blend-mode:normal;color-interpolation:sRGB;color-interpolation-filters:linearRGB;solid-color:#000;solid-opacity:1;fill:#3b6dd6;fill-opacity:1;fill-rule:evenodd;stroke:none;stroke-width:1.56299996;stroke-linecap:square;stroke-linejoin:miter;stroke-miterlimit:4;stroke-dasharray:none;stroke-dashoffset:0;stroke-opacity:1;marker:none;color-rendering:auto;image-rendering:auto;shape-rendering:auto;text-rendering:auto;enable-background:accumulate" cx="386.18124" cy="488.66876" r="3.6358314"/><circle style="color:#000;clip-rule:nonzero;display:inline;overflow:visible;visibility:visible;opacity:1;isolation:auto;mix-blend-mode:normal;color-interpolation:sRGB;color-interpolation-filters:linearRGB;solid-color:#000;solid-opacity:1;fill:#2c4f97;fill-opacity:1;fill-rule:evenodd;stroke:none;stroke-width:1.56299996;stroke-linecap:square;stroke-linejoin:miter;stroke-miterlimit:4;stroke-dasharray:none;stroke-dashoffset:0;stroke-opacity:1;marker:none;color-rendering:auto;image-rendering:auto;shape-rendering:auto;text-rendering:auto;enable-background:accumulate" cx="482.03787" cy="489.36133" r="5.3671799"/><circle style="color:#000;clip-rule:nonzero;display:inline;overflow:visible;visibility:visible;opacity:1;isolation:auto;mix-blend-mode:normal;color-interpolation:sRGB;color-interpolation-filters:linearRGB;solid-color:#000;solid-opacity:1;fill:#3b6dd6;fill-opacity:1;fill-rule:evenodd;stroke:none;stroke-width:1.56299996;stroke-linecap:square;stroke-linejoin:miter;stroke-miterlimit:4;stroke-dasharray:none;stroke-dashoffset:0;stroke-opacity:1;marker:none;color-rendering:auto;image-rendering:auto;shape-rendering:auto;text-rendering:auto;enable-background:accumulate" cx="481.69159" cy="488.66876" r="3.6358314"/></g></g></svg>