<?xml version="1.0" encoding="UTF-8" standalone="no"?>
<!-- Created with Inkscape (http://www.inkscape.org/) -->

<svg
   xmlns:osb="http://www.openswatchbook.org/uri/2009/osb"
   xmlns:dc="http://purl.org/dc/elements/1.1/"
   xmlns:cc="http://creativecommons.org/ns#"
   xmlns:rdf="http://www.w3.org/1999/02/22-rdf-syntax-ns#"
   xmlns:svg="http://www.w3.org/2000/svg"
   xmlns="http://www.w3.org/2000/svg"
   xmlns:xlink="http://www.w3.org/1999/xlink"
   xmlns:sodipodi="http://sodipodi.sourceforge.net/DTD/sodipodi-0.dtd"
   xmlns:inkscape="http://www.inkscape.org/namespaces/inkscape"
   id="svg2"
   sodipodi:docname="water_drop2.svg"
   sodipodi:modified="true"
   viewBox="0 0 39.999999 40.000001"
   sodipodi:version="0.32"
   version="1.0"
   inkscape:output_extension="org.inkscape.output.svg.inkscape"
   inkscape:version="0.91 r13725"
   width="40"
   height="40">
  <defs
     id="defs4">
    <radialGradient
       fy="468.82877"
       fx="395.68723"
       inkscape:collect="always"
       r="197.21001"
       gradientTransform="matrix(-0.05707599,-0.13150124,0.13056269,-0.05568766,-2094.6771,736.86191)"
       cx="395.68723"
       cy="468.82877"
       gradientUnits="userSpaceOnUse"
       id="radialGradient4627"
       spreadMethod="pad">
      <stop
         offset="0"
         style="stop-color:#30074a;stop-opacity:0.87058824"
         id="stop4629" />
      <stop
         offset="1"
         style="stop-color:#c81dff;stop-opacity:0"
         id="stop4631" />
    </radialGradient>
    <linearGradient
       id="linearGradient5600"
       osb:paint="solid">
      <stop
         style="stop-color:#0c2544;stop-opacity:1;"
         offset="0"
         id="stop5602" />
    </linearGradient>
    <radialGradient
       id="radialGradient2469"
       gradientUnits="userSpaceOnUse"
       cy="658.84998"
       cx="481.38"
       gradientTransform="matrix(0.07153624,-0.06950866,0.0690667,0.0681333,-2147.8147,673.28526)"
       r="189.36"
       inkscape:collect="always"
       xlink:href="#radialGradient4627"
       fx="481.38"
       fy="658.84998">
      <stop
         id="stop3536"
         style="stop-color:#f3a5ec;stop-opacity:1"
         offset="0" />
      <stop
         id="stop3538"
         style="stop-color:#ffffff;stop-opacity:0"
         offset="1" />
    </radialGradient>
    <radialGradient
       id="radialGradient2471"
       gradientUnits="userSpaceOnUse"
       cy="350.63"
       cx="271.67001"
       gradientTransform="matrix(0.06638531,0.03555456,-0.11364981,0.20852776,-2066.0255,573.50657)"
       r="197.21001"
       inkscape:collect="always">
      <stop
         id="stop3546"
         style="stop-color:#ffffff"
         offset="0" />
      <stop
         id="stop3548"
         style="stop-color:#cbb8d2;stop-opacity:0"
         offset="1" />
    </radialGradient>
    <radialGradient
       inkscape:collect="always"
       xlink:href="#radialGradient4627"
       id="radialGradient4617"
       gradientUnits="userSpaceOnUse"
       gradientTransform="matrix(-0.05707599,-0.13150124,0.13056269,-0.05568766,-2094.6771,736.86191)"
       cx="393.54477"
       cy="472.20044"
       fx="393.54477"
       fy="472.20044"
       r="197.21001" />
  </defs>
  <sodipodi:namedview
     id="base"
     bordercolor="#666666"
     inkscape:pageshadow="2"
     guidetolerance="10"
     pagecolor="#ffffff"
     gridtolerance="10000"
     inkscape:window-height="1029"
     inkscape:zoom="16"
     objecttolerance="10"
     borderopacity="1.0"
     inkscape:current-layer="g2462"
     inkscape:cx="18.443349"
     inkscape:cy="19.599226"
     inkscape:window-y="21"
     inkscape:window-x="57"
     inkscape:window-width="1623"
     inkscape:pageopacity="0.0"
     inkscape:document-units="px"
     showgrid="false"
     showguides="true"
     inkscape:guide-bbox="true"
     inkscape:window-maximized="1"
     fit-margin-top="0"
     fit-margin-left="-0.1"
     fit-margin-right="0"
     fit-margin-bottom="0"
     inkscape:snap-global="true" />
  <g
     id="layer1"
     inkscape:label="Layer 1"
     inkscape:groupmode="layer"
     transform="translate(-161.8674,-725.16339)">
    <g
       id="g2462"
       transform="matrix(1,0,0,0.66506637,2262.9,303.4543)">
      <g
         id="g10676"
         transform="matrix(0.94298971,0,0,0.94298971,-118.90272,38.094309)">
        <path
           inkscape:connector-curvature="0"
           d="m -2062.3586,674.52494 c 0,9.51399 -7.9477,17.71889 -17.8089,17.71889 -9.8703,0 -18.1197,-8.20669 -17.9386,-17.71889 0.2358,-12.76016 14.2781,-19.79131 17.809,-36.19411 1.251,6.47189 4.3072,12.33977 7.7094,17.42643 3.8325,5.72982 7.9294,10.61843 9.5159,15.16499 0.2503,0.71756 0.429,1.44674 0.5529,2.14539 0.086,0.49574 0.1603,0.96338 0.1603,1.4573 z"
           style="color:#000000;opacity:0.69855;fill:#854cab;fill-opacity:0.62671234;fill-rule:evenodd;stroke:#a44fbe;stroke-width:1.36555433;stroke-linecap:butt;stroke-linejoin:miter;stroke-miterlimit:3.5999999;stroke-dasharray:none;stroke-dashoffset:0;stroke-opacity:1"
           sodipodi:nodetypes="csscsssc"
           id="path2530" />
        <path
           inkscape:connector-curvature="0"
           d="m -2063.0333,674.53448 c 0,9.51397 -7.1809,13.97584 -17.0421,13.97584 -9.8704,0 -18.1002,-4.8773 -18.1002,-14.14849 0,-4.86724 2.0966,-8.6057 4.8044,-12.43714 4.3931,-6.21708 9.2051,-10.88466 13.0133,-20.71579 1.273,4.02794 2.919,8.00591 4.8447,11.19331 1.4184,2.34717 2.7942,4.39383 4.1344,6.31345 1.961,2.80847 2.0209,2.82431 3.6868,5.23327 0.8697,1.25789 2.313,3.59521 2.9618,4.86756 0.5395,1.05843 1.5653,3.06564 1.6969,5.71799 z"
           style="color:#000000;opacity:0.69855;fill:url(#radialGradient4617);fill-opacity:1;fill-rule:evenodd"
           sodipodi:nodetypes="cssscssssc"
           id="path3556" />
        <path
           inkscape:connector-curvature="0"
           d="m -2063.8412,674.94741 c 0,9.02701 -7.6044,16.35321 -16.9582,16.35321 -4.9097,0 -11.164,-3.90653 -12.2058,-5.28798 -2.3098,-3.06313 -4.3864,-5.96664 -4.3046,-10.25925 0.01,-0.52108 -0.089,-2.05013 -0.045,-2.546 0.084,-0.95707 0.2539,-1.72527 0.467,-2.59358 0.1632,-0.66443 0.5575,-1.86096 0.7848,-2.48504 1.0288,-2.10743 2.1066,-4.40414 3.6677,-6.46026 0.9726,-1.41843 2.7338,-3.68407 3.8407,-5.18478 3.4614,-4.83531 6.9011,-9.38176 8.207,-15.2747 2.153,7.94972 5.9042,12.09332 7.9836,16.04261 8.8933,16.89139 8.5631,10.39718 8.5631,17.69577 z"
           style="color:#000000;opacity:0.69855;fill:url(#radialGradient2471);fill-rule:evenodd"
           sodipodi:nodetypes="csssssccccscc"
           id="path3542" />
        <path
           inkscape:connector-curvature="0"
           d="m -2063.179,674.64833 c 0.1158,9.13409 -7.6798,17.02504 -17.1494,17.29182 -9.4699,0.26674 -17.43,-6.92639 -17.3644,-16.0638 0.071,-12.25582 9.4416,-17.51174 16.7575,-31.80217 8.129,13.39345 17.6404,21.44005 17.7563,30.57415 z"
           style="color:#000000;opacity:0.69855;fill:url(#radialGradient2469);fill-opacity:1;fill-rule:evenodd"
           sodipodi:nodetypes="csscc"
           id="path3520" />
      </g>
    </g>
  </g>
  <metadata
     id="metadata23">
    <rdf:RDF>
      <cc:Work>
        <dc:format>image/svg+xml</dc:format>
        <dc:type
           rdf:resource="http://purl.org/dc/dcmitype/StillImage" />
        <cc:license
           rdf:resource="http://creativecommons.org/publicdomain/zero/1.0/" />
        <dc:publisher>
          <cc:Agent
             rdf:about="http://openclipart.org/">
            <dc:title>Openclipart</dc:title>
          </cc:Agent>
        </dc:publisher>
        <dc:title></dc:title>
        <dc:date>2007-04-23T19:05:17</dc:date>
        <dc:description>A nice water drop. I made it because I couldn't find any that I liked, much less in SVG format. It uses Inkscape 0.45's blur filter.</dc:description>
        <dc:source>https://openclipart.org/detail/4063/water-drop-by-lagartoflojo</dc:source>
        <dc:creator>
          <cc:Agent>
            <dc:title>lagartoflojo</dc:title>
          </cc:Agent>
        </dc:creator>
        <dc:subject>
          <rdf:Bag>
            <rdf:li>drop</rdf:li>
            <rdf:li>h2o</rdf:li>
            <rdf:li>nature</rdf:li>
            <rdf:li>water</rdf:li>
            <rdf:li>waterdrop</rdf:li>
          </rdf:Bag>
        </dc:subject>
      </cc:Work>
      <cc:License
         rdf:about="http://creativecommons.org/publicdomain/zero/1.0/">
        <cc:permits
           rdf:resource="http://creativecommons.org/ns#Reproduction" />
        <cc:permits
           rdf:resource="http://creativecommons.org/ns#Distribution" />
        <cc:permits
           rdf:resource="http://creativecommons.org/ns#DerivativeWorks" />
      </cc:License>
    </rdf:RDF>
  </metadata>
</svg>
