<?xml version="1.0" encoding="UTF-8" standalone="no"?>
<svg
   xmlns:dc="http://purl.org/dc/elements/1.1/"
   xmlns:cc="http://creativecommons.org/ns#"
   xmlns:rdf="http://www.w3.org/1999/02/22-rdf-syntax-ns#"
   xmlns:svg="http://www.w3.org/2000/svg"
   xmlns="http://www.w3.org/2000/svg"
   version="1.0"
   id="svg1949"
   height="320"
   width="960">
  <defs
     id="defs1951" />
  <metadata
     id="metadata1954">
    <rdf:RDF>
      <cc:Work
         rdf:about="">
        <dc:format>image/svg+xml</dc:format>
        <dc:type
           rdf:resource="http://purl.org/dc/dcmitype/StillImage" />
        <dc:title></dc:title>
        <dc:date>2020</dc:date>
        <dc:creator>
          <cc:Agent>
            <dc:title>Timothée Giet</dc:title>
          </cc:Agent>
        </dc:creator>
        <cc:license
           rdf:resource="http://creativecommons.org/licenses/by-sa/4.0/" />
      </cc:Work>
      <cc:License
         rdf:about="http://creativecommons.org/licenses/by-sa/4.0/">
        <cc:permits
           rdf:resource="http://creativecommons.org/ns#Reproduction" />
        <cc:permits
           rdf:resource="http://creativecommons.org/ns#Distribution" />
        <cc:requires
           rdf:resource="http://creativecommons.org/ns#Notice" />
        <cc:requires
           rdf:resource="http://creativecommons.org/ns#Attribution" />
        <cc:permits
           rdf:resource="http://creativecommons.org/ns#DerivativeWorks" />
        <cc:requires
           rdf:resource="http://creativecommons.org/ns#ShareAlike" />
      </cc:License>
    </rdf:RDF>
  </metadata>
  <g
     transform="translate(0,220)"
     style="display:none;opacity:0.42600002"
     id="layer2">
    <path
       id="path4300-1-2"
       d="m -69.691703,36.219364 c 0.04754,-0.01073 0.09476,-0.0091 0.141116,0.0032 11.81626,10.298019 18.051204,14.577411 19.236391,17.726864 0.59901,1.591665 0.815751,24.306778 -0.578981,27.447375 -0.277722,0.625364 -0.155618,0.909022 -0.820931,1.468473 0.406729,1.991067 1.03683,5.889545 0.405868,6.017771 -0.521533,0.105989 -1.95132,-1.154558 -4.016657,-4.537679 -0.684107,0.299313 -0.334243,0.144812 -1.082212,0.308738 -0.06499,2.280683 -0.603809,6.11827 -1.457327,7.577973 -0.605027,0.902056 -3.043287,-3.333594 -2.92202,-6.798846 -0.942905,1.661744 -2.760622,5.948392 -3.367932,5.634822 -0.519433,-0.268199 -1.113974,-1.587203 -0.414815,-6.503447 0,0 -0.04669,-0.651587 -0.274053,-0.983808 -1.451286,1.385302 -3.110643,3.537711 -3.765082,3.533765 -0.786828,-0.0047 -1.134986,-3.412125 1.896476,-9.180969 -1.008749,-8.724163 5.084156,-16.350996 4.544488,-18.205248 -0.55734,-1.914982 -4.650075,-7.801348 -7.001823,-7.024195 -2.278258,0.752867 -1.995547,-16.151797 -0.522506,-16.484769 z"
       style="display:inline;fill:#437027;fill-opacity:1;fill-rule:evenodd;stroke:none;stroke-width:1px;stroke-linecap:butt;stroke-linejoin:miter;stroke-opacity:1" />
    <path
       id="path4300-7"
       d="m -68.944555,38.858416 c 0.043,-0.0097 0.08574,-0.0083 0.127683,0.0029 10.691536,9.317808 16.333016,13.189867 17.405382,16.039544 0.541954,1.440179 0.738108,21.993148 -0.523867,24.83481 -0.251287,0.565839 -0.726473,1.115935 -1.328458,1.622136 0.368015,1.801548 1.523806,5.035513 0.952904,5.151534 -0.471891,0.09591 -1.275259,-0.7436 -3.144009,-3.8047 -0.618988,0.270828 -1.281313,0.485895 -1.958084,0.634227 0.170814,2.09085 -0.543063,5.42609 -1.116272,6.756616 -0.541665,-0.103673 -1.032341,-1.685682 -1.73289,-6.607523 -0.210499,-0.02616 -0.419999,-0.05431 -0.624782,-0.100066 -0.853157,1.503571 -2.082641,5.154162 -2.632144,4.87044 -0.469992,-0.242671 -0.518692,-1.729753 0.113919,-6.178046 -0.245642,-0.2357 -0.47216,-0.505317 -0.677884,-0.805916 -1.313145,1.253443 -3.468879,4.059788 -3.881252,3.634817 -0.403195,-0.415512 0.178675,-2.138343 2.739392,-7.115408 -0.912732,-7.893758 5.282446,-17.231767 4.794146,-18.909523 -0.504291,-1.732705 -7.4277,-11.109725 -9.555599,-10.406545 -2.061403,0.681206 -0.291015,-9.317996 1.041815,-9.619274 z"
       style="display:inline;fill:#71c837;fill-opacity:1;fill-rule:evenodd;stroke:none;stroke-width:1px;stroke-linecap:butt;stroke-linejoin:miter;stroke-opacity:1" />
    <path
       id="path4300-1"
       d="m -120.72159,43.532178 c -0.0479,0.008 -0.0909,0.02716 -0.12912,0.05595 -7.04292,13.948656 -11.19286,20.242719 -11.10414,23.596293 0.0448,1.694839 8.37811,22.752303 10.8459,25.128492 0.49139,0.473153 0.4852,0.780965 1.30975,1.047645 0.3724,1.991428 1.25509,5.82815 1.88592,5.709524 0.52142,-0.09805 1.36819,-1.799225 2.00446,-5.699227 0.74417,0.0194 0.36305,0.0082 1.11534,-0.121457 0.9168,2.081662 2.85605,5.42302 4.1926,6.450324 0.89758,0.605698 1.55795,-4.221655 0.14416,-7.37605 1.49499,1.180295 4.78392,4.455889 5.22693,3.938176 0.37892,-0.442803 0.43242,-1.884177 -2.06011,-6.161377 0,0 -0.20167,-0.61924 -0.11652,-1.011442 1.8606,0.734034 4.20152,2.098278 4.80437,1.848779 0.7248,-0.299971 -0.23375,-3.577277 -5.20033,-7.765617 -2.34592,-8.4352 -10.85823,-13.851237 -11.05647,-15.766266 -0.20474,-1.977748 1.51166,-10.392294 3.97531,-10.558129 2.38667,-0.160653 -4.3527,-13.561521 -5.83805,-13.315618 z"
       style="display:inline;fill:#437027;fill-opacity:1;fill-rule:evenodd;stroke:none;stroke-width:1px;stroke-linecap:butt;stroke-linejoin:miter;stroke-opacity:1" />
    <path
       id="path4251-5"
       d="m -90.65694,75.210928 c -14.40444,0.902136 -29.66608,-15.283566 -31.45067,-28.869901 -0.62179,-4.733756 -5.85472,-32.798754 26.310501,-35.208412 32.165226,-2.4096577 29.286698,30.020494 28.262484,38.707862 -1.215132,10.306711 -7.783947,24.409824 -23.122315,25.370451 z"
       style="display:inline;fill:#437027;fill-opacity:1;fill-rule:evenodd;stroke:none;stroke-width:1px;stroke-linecap:butt;stroke-linejoin:miter;stroke-opacity:1" />
    <path
       id="path4251"
       d="m -90.262057,72.415069 c -13.562203,0.858237 -28.805363,-13.96827 -30.484273,-26.750683 -0.58542,-4.457103 -5.51255,-30.88188 24.772822,-33.150709 30.285378,-2.268829 27.455985,28.14447 26.491629,36.324116 -1.144113,9.704352 -6.338829,22.663405 -20.780178,23.577276 z"
       style="fill:#71c837;fill-opacity:1;fill-rule:evenodd;stroke:none;stroke-width:1px;stroke-linecap:butt;stroke-linejoin:miter;stroke-opacity:1" />
    <path
       d="m -92.03978,33.175858 a 9.0112648,9.0112648 0 0 1 -10.20034,7.631432 9.0112648,9.0112648 0 0 1 -7.63897,-10.194687 9.0112648,9.0112648 0 0 1 10.189028,-7.646519 9.0112648,9.0112648 0 0 1 7.654056,10.183372"
       id="path4164"
       style="color:#000000;clip-rule:nonzero;display:inline;overflow:visible;visibility:visible;opacity:1;isolation:auto;mix-blend-mode:normal;color-interpolation:sRGB;color-interpolation-filters:linearRGB;solid-color:#000000;solid-opacity:1;fill:#437027;fill-opacity:1;fill-rule:nonzero;stroke:none;stroke-width:1.18700004;stroke-linecap:butt;stroke-linejoin:miter;stroke-miterlimit:4;stroke-dasharray:none;stroke-dashoffset:0;stroke-opacity:1;marker:none;color-rendering:auto;image-rendering:auto;shape-rendering:auto;text-rendering:auto;enable-background:accumulate" />
    <path
       d="m -93.527733,32.607882 a 7.3388987,7.3388987 0 0 1 -8.307297,6.215143 7.3388987,7.3388987 0 0 1 -6.22129,-8.302694 7.3388987,7.3388987 0 0 1 8.298092,-6.227431 7.3388987,7.3388987 0 0 1 6.233569,8.293479"
       id="path4164-3"
       style="color:#000000;clip-rule:nonzero;display:inline;overflow:visible;visibility:visible;opacity:1;isolation:auto;mix-blend-mode:normal;color-interpolation:sRGB;color-interpolation-filters:linearRGB;solid-color:#000000;solid-opacity:1;fill:#f0f0f0;fill-opacity:1;fill-rule:nonzero;stroke:none;stroke-width:1.18700004;stroke-linecap:butt;stroke-linejoin:miter;stroke-miterlimit:4;stroke-dasharray:none;stroke-dashoffset:0;stroke-opacity:1;marker:none;color-rendering:auto;image-rendering:auto;shape-rendering:auto;text-rendering:auto;enable-background:accumulate" />
    <path
       d="m -93.537442,32.063728 a 5.6611929,5.7717628 0 0 1 -6.40821,4.887972 5.6611929,5.7717628 0 0 1 -4.799078,-6.529751 5.6611929,5.7717628 0 0 1 6.401113,-4.897635 5.6611929,5.7717628 0 0 1 4.808546,6.522503"
       id="path4181-6"
       style="color:#000000;clip-rule:nonzero;display:inline;overflow:visible;visibility:visible;opacity:1;isolation:auto;mix-blend-mode:normal;color-interpolation:sRGB;color-interpolation-filters:linearRGB;solid-color:#000000;solid-opacity:1;fill:#86d353;fill-opacity:1;fill-rule:nonzero;stroke:none;stroke-width:1.18700004;stroke-linecap:butt;stroke-linejoin:miter;stroke-miterlimit:4;stroke-dasharray:none;stroke-dashoffset:0;stroke-opacity:1;marker:none;color-rendering:auto;image-rendering:auto;shape-rendering:auto;text-rendering:auto;enable-background:accumulate" />
    <path
       d="m -95.063124,31.165179 a 2.4440892,2.4918253 0 0 1 -2.766596,2.11027 2.4440892,2.4918253 0 0 1 -2.071889,-2.81907 2.4440892,2.4918253 0 0 1 2.76353,-2.114441 2.4440892,2.4918253 0 0 1 2.075979,2.81594"
       id="path4181"
       style="color:#000000;clip-rule:nonzero;display:inline;overflow:visible;visibility:visible;opacity:1;isolation:auto;mix-blend-mode:normal;color-interpolation:sRGB;color-interpolation-filters:linearRGB;solid-color:#000000;solid-opacity:1;fill:#223326;fill-opacity:1;fill-rule:nonzero;stroke:none;stroke-width:1.18700004;stroke-linecap:butt;stroke-linejoin:miter;stroke-miterlimit:4;stroke-dasharray:none;stroke-dashoffset:0;stroke-opacity:1;marker:none;color-rendering:auto;image-rendering:auto;shape-rendering:auto;text-rendering:auto;enable-background:accumulate" />
    <path
       transform="scale(-1,1)"
       d="m 90.399486,31.49316 a 6.5603204,6.5603204 0 0 1 -7.425981,5.555783 6.5603204,6.5603204 0 0 1 -5.561276,-7.421867 6.5603204,6.5603204 0 0 1 7.41775,-5.566767 6.5603204,6.5603204 0 0 1 5.572254,7.41363"
       id="path4164-6"
       style="color:#000000;clip-rule:nonzero;display:inline;overflow:visible;visibility:visible;opacity:1;isolation:auto;mix-blend-mode:normal;color-interpolation:sRGB;color-interpolation-filters:linearRGB;solid-color:#000000;solid-opacity:1;fill:#437027;fill-opacity:1;fill-rule:nonzero;stroke:none;stroke-width:1.18700004;stroke-linecap:butt;stroke-linejoin:miter;stroke-miterlimit:4;stroke-dasharray:none;stroke-dashoffset:0;stroke-opacity:1;marker:none;color-rendering:auto;image-rendering:auto;shape-rendering:auto;text-rendering:auto;enable-background:accumulate" />
    <path
       transform="scale(-1,1)"
       d="m 89.316236,31.079666 a 5.3428159,5.3428159 0 0 1 -6.047821,4.524707 5.3428159,5.3428159 0 0 1 -4.529181,-6.044472 5.3428159,5.3428159 0 0 1 6.041119,-4.533652 5.3428159,5.3428159 0 0 1 4.538121,6.037763"
       id="path4164-3-7"
       style="color:#000000;clip-rule:nonzero;display:inline;overflow:visible;visibility:visible;opacity:1;isolation:auto;mix-blend-mode:normal;color-interpolation:sRGB;color-interpolation-filters:linearRGB;solid-color:#000000;solid-opacity:1;fill:#f0f0f0;fill-opacity:1;fill-rule:nonzero;stroke:none;stroke-width:1.18700004;stroke-linecap:butt;stroke-linejoin:miter;stroke-miterlimit:4;stroke-dasharray:none;stroke-dashoffset:0;stroke-opacity:1;marker:none;color-rendering:auto;image-rendering:auto;shape-rendering:auto;text-rendering:auto;enable-background:accumulate" />
    <path
       transform="scale(-1,1)"
       d="m 89.174899,30.607298 a 3.9325917,4.0093999 0 0 1 -4.451513,3.395468 3.9325917,4.0093999 0 0 1 -3.333713,-4.535942 3.9325917,4.0093999 0 0 1 4.446579,-3.402181 3.9325917,4.0093999 0 0 1 3.340294,4.530908"
       id="path4181-5-1"
       style="color:#000000;clip-rule:nonzero;display:inline;overflow:visible;visibility:visible;opacity:1;isolation:auto;mix-blend-mode:normal;color-interpolation:sRGB;color-interpolation-filters:linearRGB;solid-color:#000000;solid-opacity:1;fill:#86d353;fill-opacity:1;fill-rule:nonzero;stroke:none;stroke-width:1.18700004;stroke-linecap:butt;stroke-linejoin:miter;stroke-miterlimit:4;stroke-dasharray:none;stroke-dashoffset:0;stroke-opacity:1;marker:none;color-rendering:auto;image-rendering:auto;shape-rendering:auto;text-rendering:auto;enable-background:accumulate" />
    <path
       transform="scale(-1,1)"
       d="m 87.913233,29.987358 a 1.4911484,1.5202724 0 0 1 -1.687911,1.287483 1.4911484,1.5202724 0 0 1 -1.264068,-1.719925 1.4911484,1.5202724 0 0 1 1.686041,-1.290029 1.4911484,1.5202724 0 0 1 1.266563,1.718016"
       id="path4181-5"
       style="color:#000000;clip-rule:nonzero;display:inline;overflow:visible;visibility:visible;opacity:1;isolation:auto;mix-blend-mode:normal;color-interpolation:sRGB;color-interpolation-filters:linearRGB;solid-color:#000000;solid-opacity:1;fill:#223326;fill-opacity:1;fill-rule:nonzero;stroke:none;stroke-width:1.18700004;stroke-linecap:butt;stroke-linejoin:miter;stroke-miterlimit:4;stroke-dasharray:none;stroke-dashoffset:0;stroke-opacity:1;marker:none;color-rendering:auto;image-rendering:auto;shape-rendering:auto;text-rendering:auto;enable-background:accumulate" />
    <path
       id="path4234"
       d="m -110.74335,23.194116 c 6.2124,-6.739799 13.293493,-3.087571 17.324471,-1.326744 -3.095208,-3.098068 -12.469721,-8.945821 -18.965871,-0.668946 -2.77782,3.539278 1.6414,1.99569 1.6414,1.99569 z"
       style="fill:#365c1f;fill-opacity:1;fill-rule:evenodd;stroke:none;stroke-width:1px;stroke-linecap:butt;stroke-linejoin:miter;stroke-opacity:1" />
    <path
       id="path4234-3"
       d="m -73.419411,21.77098 c -6.212399,-6.7398 -13.293495,-3.087571 -17.324473,-1.326744 3.095208,-3.098069 12.469717,-8.945822 18.965869,-0.668946 2.777822,3.539278 -1.641396,1.99569 -1.641396,1.99569 z"
       style="fill:#365c1f;fill-opacity:1;fill-rule:evenodd;stroke:none;stroke-width:1px;stroke-linecap:butt;stroke-linejoin:miter;stroke-opacity:1" />
    <path
       id="path4300"
       d="m -120.40039,46.144531 c -0.0435,0.0072 -0.0825,0.02465 -0.11719,0.05078 -6.39215,12.659812 -10.15864,18.37231 -10.07812,21.416016 0.0407,1.538237 7.60398,20.650009 9.84375,22.806641 0.44598,0.429434 1.09344,0.759914 1.84179,1.001953 0.338,1.807422 0.48606,5.238524 1.0586,5.130859 0.47324,-0.08899 0.90104,-1.169339 1.47851,-4.708984 0.67542,0.01761 1.36996,-0.03276 2.05274,-0.150391 0.62967,2.001085 2.54774,4.82145 3.58008,5.837891 0.46266,-0.300146 0.32102,-1.950435 -0.88477,-6.773438 0.18512,-0.103547 0.36857,-0.208571 0.54102,-0.328125 1.35685,1.071236 3.87135,3.989408 4.27343,3.519532 0.3439,-0.401889 -0.17137,-1.797698 -2.43359,-5.679688 0.13872,-0.310889 0.24693,-0.64599 0.32422,-1.001953 1.68868,0.66621 4.74301,2.453334 4.96484,1.904297 0.2169,-0.536818 -0.97129,-1.913381 -5.21875,-5.558594 -2.12915,-7.655795 -11.38648,-13.970901 -11.5664,-15.708983 -0.18582,-1.795006 2.69367,-13.089723 4.92968,-13.240235 2.16614,-0.145809 -3.24173,-8.740759 -4.58984,-8.517578 z"
       style="fill:#71c837;fill-opacity:1;fill-rule:evenodd;stroke:none;stroke-width:1px;stroke-linecap:butt;stroke-linejoin:miter;stroke-opacity:1" />
    <path
       id="path30619"
       d="m -78.049316,41.014806 c -8.699299,9.28891 -20.012569,8.229757 -28.554294,2.631118 l 1.32919,-1.2497 c -2.28658,-0.192475 -4.64093,2.167204 -4.0576,4.365685 l 1.59345,-0.04157 0.28374,-1.336702 c 7.19215,4.502314 1.10559,19.935105 18.001846,17.037991 13.795101,-2.365376 8.190048,-13.552239 12.156233,-20.0735 l 0.476851,1.368493 1.560791,-0.18402 c -0.770088,-1.591261 -1.332751,-3.168627 -4.38926,-4.16412 z"
       style="display:inline;opacity:1;fill:#3c6423;fill-opacity:0.99166667;fill-rule:evenodd;stroke:none;stroke-width:1px;stroke-linecap:butt;stroke-linejoin:miter;stroke-opacity:1" />
    <path
       id="path19704"
       d="m -104.19882,46.53003 c 3.64731,10.248435 5.212735,14.585643 14.312051,13.94603 7.991097,-0.723602 9.718196,-8.800074 9.462057,-15.660111 -4.581351,4.159364 -14.8527,6.629874 -23.774108,1.714081 z"
       style="display:inline;opacity:1;fill:#eaeaea;fill-opacity:1;fill-rule:evenodd;stroke:none;stroke-width:1px;stroke-linecap:butt;stroke-linejoin:miter;stroke-opacity:1" />
    <path
       id="path19706"
       d="m -102.44318,51.846942 6.746553,3.408669 2.678082,-2.257688 5.77902,-0.929637 3.030461,1.726469 3.947088,-5.444525 -0.06345,1.476431 -3.816182,6.30776 -3.153743,-2.417057 -5.233795,0.561717 -3.015652,3.789378 -6.523332,-4.828702 z"
       style="display:inline;opacity:1;fill:#3c6423;fill-opacity:0.99166667;fill-rule:evenodd;stroke:none;stroke-width:1px;stroke-linecap:butt;stroke-linejoin:miter;stroke-opacity:1" />
    <path
       id="path4404-0"
       d="m -104.89631,66.0727 c -3.48883,1.72811 -5.99679,10.66004 -5.04993,11.76488 0.94687,1.10484 44.609949,1.44634 46.094038,0.8437 1.484088,-0.60265 6.554163,-11.13546 5.600586,-11.99255 -0.953577,-0.85709 -46.644694,-0.61603 -46.644694,-0.61603 z"
       style="display:inline;fill:#8d2626;fill-opacity:1;fill-rule:evenodd;stroke:none;stroke-width:1px;stroke-linecap:butt;stroke-linejoin:miter;stroke-opacity:1" />
    <path
       id="path4404"
       d="m -103.28481,67.00639 c -3.21796,1.43869 -5.53119,8.87469 -4.65784,9.79449 0.87334,0.9198 41.146392,1.2041 42.515255,0.70239 1.368862,-0.50171 6.045293,-9.27048 5.165752,-9.98402 -0.87954,-0.71355 -43.023167,-0.51286 -43.023167,-0.51286 z"
       style="fill:#e63232;fill-opacity:1;fill-rule:evenodd;stroke:none;stroke-width:1px;stroke-linecap:butt;stroke-linejoin:miter;stroke-opacity:1" />
    <path
       id="path4404-0-9"
       d="m -108.89631,85.20741 c -3.48883,1.72811 -5.99679,10.66004 -5.04993,11.76488 0.94687,1.10484 44.609949,1.44634 46.094038,0.8437 1.484088,-0.60265 6.554163,-11.13546 5.600586,-11.99255 -0.953577,-0.85709 -46.644694,-0.61603 -46.644694,-0.61603 z"
       style="display:inline;fill:#8d2626;fill-opacity:1;fill-rule:evenodd;stroke:none;stroke-width:1px;stroke-linecap:butt;stroke-linejoin:miter;stroke-opacity:1" />
    <path
       id="path4404-3"
       d="m -107.28481,86.1411 c -3.21796,1.43869 -5.53119,8.87469 -4.65784,9.79449 0.87334,0.9198 41.146392,1.2041 42.515255,0.70239 1.368862,-0.50171 6.045293,-9.27048 5.165752,-9.98402 -0.87954,-0.71355 -43.023167,-0.51286 -43.023167,-0.51286 z"
       style="display:inline;fill:#e63232;fill-opacity:1;fill-rule:evenodd;stroke:none;stroke-width:1px;stroke-linecap:butt;stroke-linejoin:miter;stroke-opacity:1" />
    <path
       d="m -96.989736,33.3484 a 1.2920358,1.2436393 0 0 1 -1.462525,1.053209 1.2920358,1.2436393 0 0 1 -1.095277,-1.406963 1.2920358,1.2436393 0 0 1 1.460904,-1.055291 1.2920358,1.2436393 0 0 1 1.097439,1.405401"
       id="path4533"
       style="color:#000000;clip-rule:nonzero;display:inline;overflow:visible;visibility:visible;opacity:1;isolation:auto;mix-blend-mode:normal;color-interpolation:sRGB;color-interpolation-filters:linearRGB;solid-color:#000000;solid-opacity:1;fill:#f7f7f7;fill-opacity:1;fill-rule:nonzero;stroke:none;stroke-width:1.18700004;stroke-linecap:butt;stroke-linejoin:miter;stroke-miterlimit:4;stroke-dasharray:none;stroke-dashoffset:0;stroke-opacity:1;marker:none;color-rendering:auto;image-rendering:auto;shape-rendering:auto;text-rendering:auto;enable-background:accumulate" />
    <path
       d="m -98.327557,35.89825 a 0.78179115,0.74894285 0 0 1 -0.884952,0.634263 0.78179115,0.74894285 0 0 1 -0.662735,-0.847299 0.78179115,0.74894285 0 0 1 0.883971,-0.635517 0.78179115,0.74894285 0 0 1 0.664043,0.846359"
       id="path4533-8"
       style="color:#000000;clip-rule:nonzero;display:inline;overflow:visible;visibility:visible;opacity:1;isolation:auto;mix-blend-mode:normal;color-interpolation:sRGB;color-interpolation-filters:linearRGB;solid-color:#000000;solid-opacity:1;fill:#f7f7f7;fill-opacity:1;fill-rule:nonzero;stroke:none;stroke-width:1.18700004;stroke-linecap:butt;stroke-linejoin:miter;stroke-miterlimit:4;stroke-dasharray:none;stroke-dashoffset:0;stroke-opacity:1;marker:none;color-rendering:auto;image-rendering:auto;shape-rendering:auto;text-rendering:auto;enable-background:accumulate" />
    <path
       transform="scale(-1,1)"
       d="m 86.608133,31.341569 a 0.85593808,0.78669822 0 0 1 -0.968883,0.666237 0.85593808,0.78669822 0 0 1 -0.72559,-0.890013 0.85593808,0.78669822 0 0 1 0.967808,-0.667554 0.85593808,0.78669822 0 0 1 0.727023,0.889025"
       id="path4533-7"
       style="color:#000000;clip-rule:nonzero;display:inline;overflow:visible;visibility:visible;opacity:1;isolation:auto;mix-blend-mode:normal;color-interpolation:sRGB;color-interpolation-filters:linearRGB;solid-color:#000000;solid-opacity:1;fill:#f7f7f7;fill-opacity:1;fill-rule:nonzero;stroke:none;stroke-width:1.18700004;stroke-linecap:butt;stroke-linejoin:miter;stroke-miterlimit:4;stroke-dasharray:none;stroke-dashoffset:0;stroke-opacity:1;marker:none;color-rendering:auto;image-rendering:auto;shape-rendering:auto;text-rendering:auto;enable-background:accumulate" />
    <path
       transform="scale(-1,1)"
       d="m 85.72187,32.954546 a 0.51791507,0.47376436 0 0 1 -0.586256,0.40122 0.51791507,0.47376436 0 0 1 -0.439044,-0.535982 0.51791507,0.47376436 0 0 1 0.585606,-0.402014 0.51791507,0.47376436 0 0 1 0.439911,0.535388"
       id="path4533-8-9"
       style="color:#000000;clip-rule:nonzero;display:inline;overflow:visible;visibility:visible;opacity:1;isolation:auto;mix-blend-mode:normal;color-interpolation:sRGB;color-interpolation-filters:linearRGB;solid-color:#000000;solid-opacity:1;fill:#f7f7f7;fill-opacity:1;fill-rule:nonzero;stroke:none;stroke-width:1.18700004;stroke-linecap:butt;stroke-linejoin:miter;stroke-miterlimit:4;stroke-dasharray:none;stroke-dashoffset:0;stroke-opacity:1;marker:none;color-rendering:auto;image-rendering:auto;shape-rendering:auto;text-rendering:auto;enable-background:accumulate" />
  </g>
  <g
     id="layer1"
     style="opacity:0.19500002" />
  <g
     id="layer3">
    <path
       style="fill:#416e23;fill-opacity:1;stroke:#314a20;stroke-width:5;stroke-linecap:butt;stroke-linejoin:miter;stroke-miterlimit:4;stroke-dasharray:none;stroke-opacity:1"
       d="M 160,40 C 60,40 50,50 40,70 30,90 50,230 80,250 c 7.069061,4.71271 18.607188,8.29529 32.20508,10.39453 L 90,290 h 50 l -14.01562,-28.0332 c 12.04349,0.88736 24.97107,0.6779 37.49609,-0.83789 L 149.04492,290 h 50 L 175.90625,259.15039 C 202.88863,253.7584 225.69834,241.5083 230,220 c -24.15336,0.21938 -60,-10 -60,-10 0,0 50,-10 70,-10 3.559,-15.13596 0,-30 0,-30 20,0 40,0 50,-10 C 300,150 260,40 160,40 Z"
       id="path955" />
    <ellipse
       style="display:inline;opacity:1;vector-effect:none;fill:#f0f0f0;fill-opacity:1;stroke:#314a20;stroke-width:5;stroke-linecap:square;stroke-linejoin:bevel;stroke-miterlimit:4;stroke-dasharray:none;stroke-dashoffset:3.20000005;stroke-opacity:1"
       id="path966"
       cx="192.5"
       cy="71.821205"
       rx="20.968546"
       ry="16.647339" />
    <ellipse
       style="display:inline;opacity:1;vector-effect:none;fill:#373737;fill-opacity:1;stroke:none;stroke-width:4.4959383;stroke-linecap:square;stroke-linejoin:bevel;stroke-miterlimit:4;stroke-dasharray:none;stroke-dashoffset:3.20000005;stroke-opacity:1"
       id="path968"
       cx="202.59164"
       cy="71.821205"
       rx="7.5687356"
       ry="6.0089669" />
    <path
       style="fill:#416e23;fill-opacity:1;stroke:#314a20;stroke-width:5;stroke-linecap:butt;stroke-linejoin:miter;stroke-miterlimit:4;stroke-dasharray:none;stroke-opacity:1"
       d="m 800,40 c -100,0 -110,10 -120,30 -10,20 10,160 40,180 7.06906,4.71271 18.60719,8.29529 32.20508,10.39453 L 730,290 h 50 l -14.01562,-28.0332 c 12.04349,0.88736 24.97107,0.6779 37.49609,-0.83789 L 789.04492,290 h 50 L 815.90625,259.15039 C 842.88863,253.7584 850,250 860,240 c -50.78567,-5.28595 -50,-30 -50,-30 0,0 -10.42753,-59.85562 70,-30 v -10 c 20,0 40,0 50,-10 C 940,150 900,40 800,40 Z"
       id="path955-7" />
    <path
       style="fill:#416e23;fill-opacity:1;stroke:#314a20;stroke-width:5;stroke-linecap:butt;stroke-linejoin:miter;stroke-miterlimit:4;stroke-dasharray:none;stroke-opacity:1"
       d="m 480,40 c -100,0 -110,10 -120,30 -10,20 10,160 40,180 7.06906,4.71271 18.60719,8.29529 32.20508,10.39453 L 410,290 h 50 l -14.01562,-28.0332 c 12.04349,0.88736 24.97107,0.6779 37.49609,-0.83789 L 469.04492,290 h 50 L 495.90625,259.15039 C 522.88863,253.7584 534.50028,243.1427 540,230 c -50,0 -50,-20 -50,-20 0,0 9.00056,-32.57079 70,-20 v -20 c 20,0 40,0 50,-10 C 620,150 580,40 480,40 Z"
       id="path955-2" />
    <ellipse
       style="display:inline;opacity:1;vector-effect:none;fill:#f0f0f0;fill-opacity:1;stroke:#314a20;stroke-width:5;stroke-linecap:square;stroke-linejoin:bevel;stroke-miterlimit:4;stroke-dasharray:none;stroke-dashoffset:3.20000005;stroke-opacity:1"
       id="path966-2"
       cx="512.5"
       cy="71.821205"
       rx="20.968546"
       ry="16.647339" />
    <ellipse
       style="display:inline;opacity:1;vector-effect:none;fill:#373737;fill-opacity:1;stroke:none;stroke-width:4.4959383;stroke-linecap:square;stroke-linejoin:bevel;stroke-miterlimit:4;stroke-dasharray:none;stroke-dashoffset:3.20000005;stroke-opacity:1"
       id="path968-7"
       cx="522.59167"
       cy="71.821205"
       rx="7.5687356"
       ry="6.0089669" />
    <ellipse
       style="display:inline;opacity:1;vector-effect:none;fill:#f0f0f0;fill-opacity:1;stroke:#314a20;stroke-width:5;stroke-linecap:square;stroke-linejoin:bevel;stroke-miterlimit:4;stroke-dasharray:none;stroke-dashoffset:3.20000005;stroke-opacity:1"
       id="path966-2-0"
       cx="832.5"
       cy="71.821205"
       rx="20.968546"
       ry="16.647339" />
    <ellipse
       style="display:inline;opacity:1;vector-effect:none;fill:#373737;fill-opacity:1;stroke:none;stroke-width:4.4959383;stroke-linecap:square;stroke-linejoin:bevel;stroke-miterlimit:4;stroke-dasharray:none;stroke-dashoffset:3.20000005;stroke-opacity:1"
       id="path968-7-9"
       cx="842.59167"
       cy="71.821205"
       rx="7.5687356"
       ry="6.0089669" />
  </g>
</svg>
