<svg xmlns:dc="http://purl.org/dc/elements/1.1/" xmlns:cc="http://creativecommons.org/ns#" xmlns:rdf="http://www.w3.org/1999/02/22-rdf-syntax-ns#" xmlns="http://www.w3.org/2000/svg" width="1280" height="320" version="1.0"><metadata><rdf:RDF><cc:Work><dc:format>image/svg+xml</dc:format><dc:type rdf:resource="http://purl.org/dc/dcmitype/StillImage"/><dc:title/><dc:date>2020</dc:date><dc:creator><cc:Agent><dc:title>Timothée Giet</dc:title></cc:Agent></dc:creator><cc:license rdf:resource="http://creativecommons.org/licenses/by-sa/4.0/"/></cc:Work><cc:License rdf:about="http://creativecommons.org/licenses/by-sa/4.0/"><cc:permits rdf:resource="http://creativecommons.org/ns#Reproduction"/><cc:permits rdf:resource="http://creativecommons.org/ns#Distribution"/><cc:requires rdf:resource="http://creativecommons.org/ns#Notice"/><cc:requires rdf:resource="http://creativecommons.org/ns#Attribution"/><cc:permits rdf:resource="http://creativecommons.org/ns#DerivativeWorks"/><cc:requires rdf:resource="http://creativecommons.org/ns#ShareAlike"/></cc:License></rdf:RDF></metadata><g style="display:inline"><path style="opacity:1;vector-effect:none;fill:#71c837;fill-opacity:1;stroke:#437027;stroke-width:5;stroke-linecap:square;stroke-linejoin:bevel;stroke-miterlimit:4;stroke-dasharray:none;stroke-dashoffset:3.20000005;stroke-opacity:1" d="M20 70c-5.54 0-10 4.46-10 10v110c0 5.54 4.46 10 10 10h60v50H60c-5.54 0-10 4.46-10 10v10c0 5.54 4.46 10 10 10h40c5.54 0 10-4.46 10-10v-70h70v70c0 5.54 4.46 10 10 10h40c5.54 0 10-4.46 10-10v-10c0-5.54-4.46-10-10-10h-20v-50h90c5.54 0 10-4.46 10-10v-50c0-5.54-4.46-10-10-10h-20c-5.54 0-10 4.46-10 10v20H50v-50h30v20c0 5.54 4.46 10 10 10h160c5.54 0 10-4.46 10-10V80c0-5.54-4.46-10-10-10h-30z"/><path style="color:#000;clip-rule:nonzero;display:inline;overflow:visible;visibility:visible;opacity:1;isolation:auto;mix-blend-mode:normal;color-interpolation:sRGB;color-interpolation-filters:linearRGB;solid-color:#000;solid-opacity:1;fill:#f0f0f0;fill-opacity:1;fill-rule:nonzero;stroke:#437027;stroke-width:5;stroke-linecap:butt;stroke-linejoin:miter;stroke-miterlimit:4;stroke-dasharray:none;stroke-dashoffset:0;stroke-opacity:1;marker:none;color-rendering:auto;image-rendering:auto;shape-rendering:auto;text-rendering:auto;enable-background:accumulate" d="M200.545 69.64a19.2 19.2 0 0 1-21.733 16.26 19.2 19.2 0 0 1-16.276-21.721 19.2 19.2 0 0 1 21.71-16.292 19.2 19.2 0 0 1 16.307 21.697"/><path style="color:#000;clip-rule:nonzero;display:inline;overflow:visible;visibility:visible;opacity:1;isolation:auto;mix-blend-mode:normal;color-interpolation:sRGB;color-interpolation-filters:linearRGB;solid-color:#000;solid-opacity:1;fill:#86d353;fill-opacity:1;fill-rule:nonzero;stroke:none;stroke-width:2.52906322;stroke-linecap:butt;stroke-linejoin:miter;stroke-miterlimit:4;stroke-dasharray:none;stroke-dashoffset:0;stroke-opacity:1;marker:none;color-rendering:auto;image-rendering:auto;shape-rendering:auto;text-rendering:auto;enable-background:accumulate" d="M195.354 67.27a12.062 12.298 0 0 1-13.653 10.415 12.062 12.298 0 0 1-10.225-13.912 12.062 12.298 0 0 1 13.638-10.436 12.062 12.298 0 0 1 10.245 13.898"/><path style="color:#000;clip-rule:nonzero;display:inline;overflow:visible;visibility:visible;opacity:1;isolation:auto;mix-blend-mode:normal;color-interpolation:sRGB;color-interpolation-filters:linearRGB;solid-color:#000;solid-opacity:1;fill:#223326;fill-opacity:1;fill-rule:nonzero;stroke:none;stroke-width:2.52906322;stroke-linecap:butt;stroke-linejoin:miter;stroke-miterlimit:4;stroke-dasharray:none;stroke-dashoffset:0;stroke-opacity:1;marker:none;color-rendering:auto;image-rendering:auto;shape-rendering:auto;text-rendering:auto;enable-background:accumulate" d="M190.104 65.356a5.207 5.31 0 0 1-5.895 4.496 5.207 5.31 0 0 1-4.414-6.006 5.207 5.31 0 0 1 5.888-4.505 5.207 5.31 0 0 1 4.423 6"/><path style="color:#000;clip-rule:nonzero;display:inline;overflow:visible;visibility:visible;opacity:1;isolation:auto;mix-blend-mode:normal;color-interpolation:sRGB;color-interpolation-filters:linearRGB;solid-color:#000;solid-opacity:1;fill:#f7f7f7;fill-opacity:1;fill-rule:nonzero;stroke:none;stroke-width:2.52906322;stroke-linecap:butt;stroke-linejoin:miter;stroke-miterlimit:4;stroke-dasharray:none;stroke-dashoffset:0;stroke-opacity:1;marker:none;color-rendering:auto;image-rendering:auto;shape-rendering:auto;text-rendering:auto;enable-background:accumulate" d="M185.999 70.008a2.753 2.65 0 0 1-3.116 2.244 2.753 2.65 0 0 1-2.334-2.998 2.753 2.65 0 0 1 3.113-2.248A2.753 2.65 0 0 1 186 70"/><path style="color:#000;clip-rule:nonzero;display:inline;overflow:visible;visibility:visible;opacity:1;isolation:auto;mix-blend-mode:normal;color-interpolation:sRGB;color-interpolation-filters:linearRGB;solid-color:#000;solid-opacity:1;fill:#f7f7f7;fill-opacity:1;fill-rule:nonzero;stroke:none;stroke-width:2.52906322;stroke-linecap:butt;stroke-linejoin:miter;stroke-miterlimit:4;stroke-dasharray:none;stroke-dashoffset:0;stroke-opacity:1;marker:none;color-rendering:auto;image-rendering:auto;shape-rendering:auto;text-rendering:auto;enable-background:accumulate" d="M183.148 75.44a1.666 1.596 0 0 1-1.885 1.352 1.666 1.596 0 0 1-1.412-1.805 1.666 1.596 0 0 1 1.883-1.354 1.666 1.596 0 0 1 1.415 1.803"/><path style="color:#000;clip-rule:nonzero;display:inline;overflow:visible;visibility:visible;opacity:1;isolation:auto;mix-blend-mode:normal;color-interpolation:sRGB;color-interpolation-filters:linearRGB;solid-color:#000;solid-opacity:1;fill:#f0f0f0;fill-opacity:1;fill-rule:nonzero;stroke:#437027;stroke-width:5;stroke-linecap:butt;stroke-linejoin:miter;stroke-miterlimit:4;stroke-dasharray:none;stroke-dashoffset:0;stroke-opacity:1;marker:none;color-rendering:auto;image-rendering:auto;shape-rendering:auto;text-rendering:auto;enable-background:accumulate" d="M254.545 69.64a19.2 19.2 0 0 1-21.733 16.26 19.2 19.2 0 0 1-16.276-21.721 19.2 19.2 0 0 1 21.71-16.292 19.2 19.2 0 0 1 16.307 21.697"/><path style="color:#000;clip-rule:nonzero;display:inline;overflow:visible;visibility:visible;opacity:1;isolation:auto;mix-blend-mode:normal;color-interpolation:sRGB;color-interpolation-filters:linearRGB;solid-color:#000;solid-opacity:1;fill:#86d353;fill-opacity:1;fill-rule:nonzero;stroke:none;stroke-width:2.52906322;stroke-linecap:butt;stroke-linejoin:miter;stroke-miterlimit:4;stroke-dasharray:none;stroke-dashoffset:0;stroke-opacity:1;marker:none;color-rendering:auto;image-rendering:auto;shape-rendering:auto;text-rendering:auto;enable-background:accumulate" d="M249.354 67.27a12.062 12.298 0 0 1-13.653 10.415 12.062 12.298 0 0 1-10.225-13.912 12.062 12.298 0 0 1 13.638-10.436 12.062 12.298 0 0 1 10.245 13.898"/><path style="color:#000;clip-rule:nonzero;display:inline;overflow:visible;visibility:visible;opacity:1;isolation:auto;mix-blend-mode:normal;color-interpolation:sRGB;color-interpolation-filters:linearRGB;solid-color:#000;solid-opacity:1;fill:#223326;fill-opacity:1;fill-rule:nonzero;stroke:none;stroke-width:2.52906322;stroke-linecap:butt;stroke-linejoin:miter;stroke-miterlimit:4;stroke-dasharray:none;stroke-dashoffset:0;stroke-opacity:1;marker:none;color-rendering:auto;image-rendering:auto;shape-rendering:auto;text-rendering:auto;enable-background:accumulate" d="M244.104 65.356a5.207 5.31 0 0 1-5.895 4.496 5.207 5.31 0 0 1-4.414-6.006 5.207 5.31 0 0 1 5.888-4.505 5.207 5.31 0 0 1 4.423 6"/><path style="color:#000;clip-rule:nonzero;display:inline;overflow:visible;visibility:visible;opacity:1;isolation:auto;mix-blend-mode:normal;color-interpolation:sRGB;color-interpolation-filters:linearRGB;solid-color:#000;solid-opacity:1;fill:#f7f7f7;fill-opacity:1;fill-rule:nonzero;stroke:none;stroke-width:2.52906322;stroke-linecap:butt;stroke-linejoin:miter;stroke-miterlimit:4;stroke-dasharray:none;stroke-dashoffset:0;stroke-opacity:1;marker:none;color-rendering:auto;image-rendering:auto;shape-rendering:auto;text-rendering:auto;enable-background:accumulate" d="M239.999 70.008a2.753 2.65 0 0 1-3.116 2.244 2.753 2.65 0 0 1-2.334-2.998 2.753 2.65 0 0 1 3.113-2.248A2.753 2.65 0 0 1 240 70"/><path style="color:#000;clip-rule:nonzero;display:inline;overflow:visible;visibility:visible;opacity:1;isolation:auto;mix-blend-mode:normal;color-interpolation:sRGB;color-interpolation-filters:linearRGB;solid-color:#000;solid-opacity:1;fill:#f7f7f7;fill-opacity:1;fill-rule:nonzero;stroke:none;stroke-width:2.52906322;stroke-linecap:butt;stroke-linejoin:miter;stroke-miterlimit:4;stroke-dasharray:none;stroke-dashoffset:0;stroke-opacity:1;marker:none;color-rendering:auto;image-rendering:auto;shape-rendering:auto;text-rendering:auto;enable-background:accumulate" d="M237.148 75.44a1.666 1.596 0 0 1-1.885 1.352 1.666 1.596 0 0 1-1.412-1.805 1.666 1.596 0 0 1 1.883-1.354 1.666 1.596 0 0 1 1.415 1.803"/><path style="opacity:1;vector-effect:none;fill:#71c837;fill-opacity:1;stroke:#437027;stroke-width:5;stroke-linecap:square;stroke-linejoin:bevel;stroke-miterlimit:4;stroke-dasharray:none;stroke-dashoffset:3.20000005;stroke-opacity:1" d="M340 70c-5.54 0-10 4.46-10 10v125c0 5.54 4.46 10 10 10h60v35h-20c-5.54 0-10 4.46-10 10v10c0 5.54 4.46 10 10 10h40c5.54 0 10-4.46 10-10v-55h70v55c0 5.54 4.46 10 10 10h40c5.54 0 10-4.46 10-10v-10c0-5.54-4.46-10-10-10h-20v-35h90c5.54 0 10-4.46 10-10v-50c0-5.54-4.46-10-10-10h-20c-5.54 0-9.905 4.46-10 10v20H370v-65h30v20c0 5.54 4.46 10 10 10h160c5.54 0 10-4.46 10-10V80c0-5.54-4.46-10-10-10h-30z"/><path style="color:#000;clip-rule:nonzero;display:inline;overflow:visible;visibility:visible;opacity:1;isolation:auto;mix-blend-mode:normal;color-interpolation:sRGB;color-interpolation-filters:linearRGB;solid-color:#000;solid-opacity:1;fill:#f0f0f0;fill-opacity:1;fill-rule:nonzero;stroke:#437027;stroke-width:5;stroke-linecap:butt;stroke-linejoin:miter;stroke-miterlimit:4;stroke-dasharray:none;stroke-dashoffset:0;stroke-opacity:1;marker:none;color-rendering:auto;image-rendering:auto;shape-rendering:auto;text-rendering:auto;enable-background:accumulate" d="M520.545 69.64a19.2 19.2 0 0 1-21.733 16.26 19.2 19.2 0 0 1-16.276-21.721 19.2 19.2 0 0 1 21.71-16.292 19.2 19.2 0 0 1 16.307 21.697"/><path style="color:#000;clip-rule:nonzero;display:inline;overflow:visible;visibility:visible;opacity:1;isolation:auto;mix-blend-mode:normal;color-interpolation:sRGB;color-interpolation-filters:linearRGB;solid-color:#000;solid-opacity:1;fill:#86d353;fill-opacity:1;fill-rule:nonzero;stroke:none;stroke-width:2.52906322;stroke-linecap:butt;stroke-linejoin:miter;stroke-miterlimit:4;stroke-dasharray:none;stroke-dashoffset:0;stroke-opacity:1;marker:none;color-rendering:auto;image-rendering:auto;shape-rendering:auto;text-rendering:auto;enable-background:accumulate" d="M515.354 67.27a12.062 12.298 0 0 1-13.653 10.415 12.062 12.298 0 0 1-10.225-13.912 12.062 12.298 0 0 1 13.638-10.436 12.062 12.298 0 0 1 10.245 13.898"/><path style="color:#000;clip-rule:nonzero;display:inline;overflow:visible;visibility:visible;opacity:1;isolation:auto;mix-blend-mode:normal;color-interpolation:sRGB;color-interpolation-filters:linearRGB;solid-color:#000;solid-opacity:1;fill:#223326;fill-opacity:1;fill-rule:nonzero;stroke:none;stroke-width:2.52906322;stroke-linecap:butt;stroke-linejoin:miter;stroke-miterlimit:4;stroke-dasharray:none;stroke-dashoffset:0;stroke-opacity:1;marker:none;color-rendering:auto;image-rendering:auto;shape-rendering:auto;text-rendering:auto;enable-background:accumulate" d="M510.104 65.356a5.207 5.31 0 0 1-5.895 4.496 5.207 5.31 0 0 1-4.414-6.006 5.207 5.31 0 0 1 5.888-4.505 5.207 5.31 0 0 1 4.423 6"/><path style="color:#000;clip-rule:nonzero;display:inline;overflow:visible;visibility:visible;opacity:1;isolation:auto;mix-blend-mode:normal;color-interpolation:sRGB;color-interpolation-filters:linearRGB;solid-color:#000;solid-opacity:1;fill:#f7f7f7;fill-opacity:1;fill-rule:nonzero;stroke:none;stroke-width:2.52906322;stroke-linecap:butt;stroke-linejoin:miter;stroke-miterlimit:4;stroke-dasharray:none;stroke-dashoffset:0;stroke-opacity:1;marker:none;color-rendering:auto;image-rendering:auto;shape-rendering:auto;text-rendering:auto;enable-background:accumulate" d="M505.999 70.008a2.753 2.65 0 0 1-3.116 2.244 2.753 2.65 0 0 1-2.334-2.998 2.753 2.65 0 0 1 3.113-2.248A2.753 2.65 0 0 1 506 70"/><path style="color:#000;clip-rule:nonzero;display:inline;overflow:visible;visibility:visible;opacity:1;isolation:auto;mix-blend-mode:normal;color-interpolation:sRGB;color-interpolation-filters:linearRGB;solid-color:#000;solid-opacity:1;fill:#f7f7f7;fill-opacity:1;fill-rule:nonzero;stroke:none;stroke-width:2.52906322;stroke-linecap:butt;stroke-linejoin:miter;stroke-miterlimit:4;stroke-dasharray:none;stroke-dashoffset:0;stroke-opacity:1;marker:none;color-rendering:auto;image-rendering:auto;shape-rendering:auto;text-rendering:auto;enable-background:accumulate" d="M503.148 75.44a1.666 1.596 0 0 1-1.885 1.352 1.666 1.596 0 0 1-1.412-1.805 1.666 1.596 0 0 1 1.883-1.354 1.666 1.596 0 0 1 1.415 1.803"/><path style="color:#000;clip-rule:nonzero;display:inline;overflow:visible;visibility:visible;opacity:1;isolation:auto;mix-blend-mode:normal;color-interpolation:sRGB;color-interpolation-filters:linearRGB;solid-color:#000;solid-opacity:1;fill:#f0f0f0;fill-opacity:1;fill-rule:nonzero;stroke:#437027;stroke-width:5;stroke-linecap:butt;stroke-linejoin:miter;stroke-miterlimit:4;stroke-dasharray:none;stroke-dashoffset:0;stroke-opacity:1;marker:none;color-rendering:auto;image-rendering:auto;shape-rendering:auto;text-rendering:auto;enable-background:accumulate" d="M574.545 69.64a19.2 19.2 0 0 1-21.733 16.26 19.2 19.2 0 0 1-16.276-21.721 19.2 19.2 0 0 1 21.71-16.292 19.2 19.2 0 0 1 16.307 21.697"/><path style="color:#000;clip-rule:nonzero;display:inline;overflow:visible;visibility:visible;opacity:1;isolation:auto;mix-blend-mode:normal;color-interpolation:sRGB;color-interpolation-filters:linearRGB;solid-color:#000;solid-opacity:1;fill:#86d353;fill-opacity:1;fill-rule:nonzero;stroke:none;stroke-width:2.52906322;stroke-linecap:butt;stroke-linejoin:miter;stroke-miterlimit:4;stroke-dasharray:none;stroke-dashoffset:0;stroke-opacity:1;marker:none;color-rendering:auto;image-rendering:auto;shape-rendering:auto;text-rendering:auto;enable-background:accumulate" d="M569.354 67.27a12.062 12.298 0 0 1-13.653 10.415 12.062 12.298 0 0 1-10.225-13.912 12.062 12.298 0 0 1 13.638-10.436 12.062 12.298 0 0 1 10.245 13.898"/><path style="color:#000;clip-rule:nonzero;display:inline;overflow:visible;visibility:visible;opacity:1;isolation:auto;mix-blend-mode:normal;color-interpolation:sRGB;color-interpolation-filters:linearRGB;solid-color:#000;solid-opacity:1;fill:#223326;fill-opacity:1;fill-rule:nonzero;stroke:none;stroke-width:2.52906322;stroke-linecap:butt;stroke-linejoin:miter;stroke-miterlimit:4;stroke-dasharray:none;stroke-dashoffset:0;stroke-opacity:1;marker:none;color-rendering:auto;image-rendering:auto;shape-rendering:auto;text-rendering:auto;enable-background:accumulate" d="M564.104 65.356a5.207 5.31 0 0 1-5.895 4.496 5.207 5.31 0 0 1-4.414-6.006 5.207 5.31 0 0 1 5.888-4.505 5.207 5.31 0 0 1 4.423 6"/><path style="color:#000;clip-rule:nonzero;display:inline;overflow:visible;visibility:visible;opacity:1;isolation:auto;mix-blend-mode:normal;color-interpolation:sRGB;color-interpolation-filters:linearRGB;solid-color:#000;solid-opacity:1;fill:#f7f7f7;fill-opacity:1;fill-rule:nonzero;stroke:none;stroke-width:2.52906322;stroke-linecap:butt;stroke-linejoin:miter;stroke-miterlimit:4;stroke-dasharray:none;stroke-dashoffset:0;stroke-opacity:1;marker:none;color-rendering:auto;image-rendering:auto;shape-rendering:auto;text-rendering:auto;enable-background:accumulate" d="M559.999 70.008a2.753 2.65 0 0 1-3.116 2.244 2.753 2.65 0 0 1-2.334-2.998 2.753 2.65 0 0 1 3.113-2.248A2.753 2.65 0 0 1 560 70"/><path style="color:#000;clip-rule:nonzero;display:inline;overflow:visible;visibility:visible;opacity:1;isolation:auto;mix-blend-mode:normal;color-interpolation:sRGB;color-interpolation-filters:linearRGB;solid-color:#000;solid-opacity:1;fill:#f7f7f7;fill-opacity:1;fill-rule:nonzero;stroke:none;stroke-width:2.52906322;stroke-linecap:butt;stroke-linejoin:miter;stroke-miterlimit:4;stroke-dasharray:none;stroke-dashoffset:0;stroke-opacity:1;marker:none;color-rendering:auto;image-rendering:auto;shape-rendering:auto;text-rendering:auto;enable-background:accumulate" d="M557.148 75.44a1.666 1.596 0 0 1-1.885 1.352 1.666 1.596 0 0 1-1.412-1.805 1.666 1.596 0 0 1 1.883-1.354 1.666 1.596 0 0 1 1.415 1.803"/><path style="opacity:1;vector-effect:none;fill:#71c837;fill-opacity:1;stroke:#437027;stroke-width:5;stroke-linecap:square;stroke-linejoin:bevel;stroke-miterlimit:4;stroke-dasharray:none;stroke-dashoffset:3.20000005;stroke-opacity:1" d="M660 70c-5.54 0-10 4.46-10 10v140c0 5.54 4.46 10 10 10h60v20h-20c-5.54 0-10 4.46-10 10v10c0 5.54 4.46 10 10 10h40c5.54 0 10-4.46 10-10v-40h70v40c0 5.54 4.46 10 10 10h40c5.54 0 10-4.46 10-10v-10c0-5.54-4.46-10-10-10h-20v-20h90c5.54 0 9.651-4.471 10-10v-50c0-5.54-4.46-10-10-10h-20c-5.54 0-10 4.46-10 10v20H690v-80h30v20c0 5.54 4.46 10 10 10h160c5.54 0 10-4.46 10-10V80c0-5.54-4.46-10-10-10h-30z"/><path style="color:#000;clip-rule:nonzero;display:inline;overflow:visible;visibility:visible;opacity:1;isolation:auto;mix-blend-mode:normal;color-interpolation:sRGB;color-interpolation-filters:linearRGB;solid-color:#000;solid-opacity:1;fill:#f0f0f0;fill-opacity:1;fill-rule:nonzero;stroke:#437027;stroke-width:5;stroke-linecap:butt;stroke-linejoin:miter;stroke-miterlimit:4;stroke-dasharray:none;stroke-dashoffset:0;stroke-opacity:1;marker:none;color-rendering:auto;image-rendering:auto;shape-rendering:auto;text-rendering:auto;enable-background:accumulate" d="M840.545 69.64a19.2 19.2 0 0 1-21.733 16.26 19.2 19.2 0 0 1-16.276-21.721 19.2 19.2 0 0 1 21.71-16.292 19.2 19.2 0 0 1 16.307 21.697"/><path style="color:#000;clip-rule:nonzero;display:inline;overflow:visible;visibility:visible;opacity:1;isolation:auto;mix-blend-mode:normal;color-interpolation:sRGB;color-interpolation-filters:linearRGB;solid-color:#000;solid-opacity:1;fill:#86d353;fill-opacity:1;fill-rule:nonzero;stroke:none;stroke-width:2.52906322;stroke-linecap:butt;stroke-linejoin:miter;stroke-miterlimit:4;stroke-dasharray:none;stroke-dashoffset:0;stroke-opacity:1;marker:none;color-rendering:auto;image-rendering:auto;shape-rendering:auto;text-rendering:auto;enable-background:accumulate" d="M835.354 67.27a12.062 12.298 0 0 1-13.653 10.415 12.062 12.298 0 0 1-10.225-13.912 12.062 12.298 0 0 1 13.638-10.436 12.062 12.298 0 0 1 10.245 13.898"/><path style="color:#000;clip-rule:nonzero;display:inline;overflow:visible;visibility:visible;opacity:1;isolation:auto;mix-blend-mode:normal;color-interpolation:sRGB;color-interpolation-filters:linearRGB;solid-color:#000;solid-opacity:1;fill:#223326;fill-opacity:1;fill-rule:nonzero;stroke:none;stroke-width:2.52906322;stroke-linecap:butt;stroke-linejoin:miter;stroke-miterlimit:4;stroke-dasharray:none;stroke-dashoffset:0;stroke-opacity:1;marker:none;color-rendering:auto;image-rendering:auto;shape-rendering:auto;text-rendering:auto;enable-background:accumulate" d="M830.104 65.356a5.207 5.31 0 0 1-5.895 4.496 5.207 5.31 0 0 1-4.414-6.006 5.207 5.31 0 0 1 5.888-4.505 5.207 5.31 0 0 1 4.423 6"/><path style="color:#000;clip-rule:nonzero;display:inline;overflow:visible;visibility:visible;opacity:1;isolation:auto;mix-blend-mode:normal;color-interpolation:sRGB;color-interpolation-filters:linearRGB;solid-color:#000;solid-opacity:1;fill:#f7f7f7;fill-opacity:1;fill-rule:nonzero;stroke:none;stroke-width:2.52906322;stroke-linecap:butt;stroke-linejoin:miter;stroke-miterlimit:4;stroke-dasharray:none;stroke-dashoffset:0;stroke-opacity:1;marker:none;color-rendering:auto;image-rendering:auto;shape-rendering:auto;text-rendering:auto;enable-background:accumulate" d="M825.999 70.008a2.753 2.65 0 0 1-3.116 2.244 2.753 2.65 0 0 1-2.334-2.998 2.753 2.65 0 0 1 3.113-2.248A2.753 2.65 0 0 1 826 70"/><path style="color:#000;clip-rule:nonzero;display:inline;overflow:visible;visibility:visible;opacity:1;isolation:auto;mix-blend-mode:normal;color-interpolation:sRGB;color-interpolation-filters:linearRGB;solid-color:#000;solid-opacity:1;fill:#f7f7f7;fill-opacity:1;fill-rule:nonzero;stroke:none;stroke-width:2.52906322;stroke-linecap:butt;stroke-linejoin:miter;stroke-miterlimit:4;stroke-dasharray:none;stroke-dashoffset:0;stroke-opacity:1;marker:none;color-rendering:auto;image-rendering:auto;shape-rendering:auto;text-rendering:auto;enable-background:accumulate" d="M823.148 75.44a1.666 1.596 0 0 1-1.885 1.352 1.666 1.596 0 0 1-1.412-1.805 1.666 1.596 0 0 1 1.883-1.354 1.666 1.596 0 0 1 1.415 1.803"/><path style="color:#000;clip-rule:nonzero;display:inline;overflow:visible;visibility:visible;opacity:1;isolation:auto;mix-blend-mode:normal;color-interpolation:sRGB;color-interpolation-filters:linearRGB;solid-color:#000;solid-opacity:1;fill:#f0f0f0;fill-opacity:1;fill-rule:nonzero;stroke:#437027;stroke-width:5;stroke-linecap:butt;stroke-linejoin:miter;stroke-miterlimit:4;stroke-dasharray:none;stroke-dashoffset:0;stroke-opacity:1;marker:none;color-rendering:auto;image-rendering:auto;shape-rendering:auto;text-rendering:auto;enable-background:accumulate" d="M894.545 69.64a19.2 19.2 0 0 1-21.733 16.26 19.2 19.2 0 0 1-16.276-21.721 19.2 19.2 0 0 1 21.71-16.292 19.2 19.2 0 0 1 16.307 21.697"/><path style="color:#000;clip-rule:nonzero;display:inline;overflow:visible;visibility:visible;opacity:1;isolation:auto;mix-blend-mode:normal;color-interpolation:sRGB;color-interpolation-filters:linearRGB;solid-color:#000;solid-opacity:1;fill:#86d353;fill-opacity:1;fill-rule:nonzero;stroke:none;stroke-width:2.52906322;stroke-linecap:butt;stroke-linejoin:miter;stroke-miterlimit:4;stroke-dasharray:none;stroke-dashoffset:0;stroke-opacity:1;marker:none;color-rendering:auto;image-rendering:auto;shape-rendering:auto;text-rendering:auto;enable-background:accumulate" d="M889.354 67.27a12.062 12.298 0 0 1-13.653 10.415 12.062 12.298 0 0 1-10.225-13.912 12.062 12.298 0 0 1 13.638-10.436 12.062 12.298 0 0 1 10.245 13.898"/><path style="color:#000;clip-rule:nonzero;display:inline;overflow:visible;visibility:visible;opacity:1;isolation:auto;mix-blend-mode:normal;color-interpolation:sRGB;color-interpolation-filters:linearRGB;solid-color:#000;solid-opacity:1;fill:#223326;fill-opacity:1;fill-rule:nonzero;stroke:none;stroke-width:2.52906322;stroke-linecap:butt;stroke-linejoin:miter;stroke-miterlimit:4;stroke-dasharray:none;stroke-dashoffset:0;stroke-opacity:1;marker:none;color-rendering:auto;image-rendering:auto;shape-rendering:auto;text-rendering:auto;enable-background:accumulate" d="M884.104 65.356a5.207 5.31 0 0 1-5.895 4.496 5.207 5.31 0 0 1-4.414-6.006 5.207 5.31 0 0 1 5.888-4.505 5.207 5.31 0 0 1 4.423 6"/><path style="color:#000;clip-rule:nonzero;display:inline;overflow:visible;visibility:visible;opacity:1;isolation:auto;mix-blend-mode:normal;color-interpolation:sRGB;color-interpolation-filters:linearRGB;solid-color:#000;solid-opacity:1;fill:#f7f7f7;fill-opacity:1;fill-rule:nonzero;stroke:none;stroke-width:2.52906322;stroke-linecap:butt;stroke-linejoin:miter;stroke-miterlimit:4;stroke-dasharray:none;stroke-dashoffset:0;stroke-opacity:1;marker:none;color-rendering:auto;image-rendering:auto;shape-rendering:auto;text-rendering:auto;enable-background:accumulate" d="M879.999 70.008a2.753 2.65 0 0 1-3.116 2.244 2.753 2.65 0 0 1-2.334-2.998 2.753 2.65 0 0 1 3.113-2.248A2.753 2.65 0 0 1 880 70"/><path style="color:#000;clip-rule:nonzero;display:inline;overflow:visible;visibility:visible;opacity:1;isolation:auto;mix-blend-mode:normal;color-interpolation:sRGB;color-interpolation-filters:linearRGB;solid-color:#000;solid-opacity:1;fill:#f7f7f7;fill-opacity:1;fill-rule:nonzero;stroke:none;stroke-width:2.52906322;stroke-linecap:butt;stroke-linejoin:miter;stroke-miterlimit:4;stroke-dasharray:none;stroke-dashoffset:0;stroke-opacity:1;marker:none;color-rendering:auto;image-rendering:auto;shape-rendering:auto;text-rendering:auto;enable-background:accumulate" d="M877.148 75.44a1.666 1.596 0 0 1-1.885 1.352 1.666 1.596 0 0 1-1.412-1.805 1.666 1.596 0 0 1 1.883-1.354 1.666 1.596 0 0 1 1.415 1.803"/><path style="opacity:1;vector-effect:none;fill:#71c837;fill-opacity:1;stroke:#437027;stroke-width:5;stroke-linecap:square;stroke-linejoin:bevel;stroke-miterlimit:4;stroke-dasharray:none;stroke-dashoffset:3.20000005;stroke-opacity:1" d="M980 70c-5.54 0-10 4.46-10 10v155c0 5.54 4.462 10.135 10 10h60v5h-20c-5.54 0-10 4.46-10 10v10c0 5.54 4.46 10 10 10h40c5.54 0 10-4.46 10-10v-25h70v25c0 5.54 4.46 10 10 10h40c5.54 0 10-4.46 10-10v-10c0-5.54-4.46-10-10-10h-20v-5h90c5.54 0 10-4.46 10-10v-50c0-5.54-4.46-10-10-10h-20c-5.54 0-10.2 4.464-10 10v20h-220v-95h30v20c0 5.54 4.46 10 10 10h160c5.54 0 10-4.46 10-10V80c0-5.54-4.46-10-10-10h-30z"/><path style="color:#000;clip-rule:nonzero;display:inline;overflow:visible;visibility:visible;opacity:1;isolation:auto;mix-blend-mode:normal;color-interpolation:sRGB;color-interpolation-filters:linearRGB;solid-color:#000;solid-opacity:1;fill:#f0f0f0;fill-opacity:1;fill-rule:nonzero;stroke:#437027;stroke-width:5;stroke-linecap:butt;stroke-linejoin:miter;stroke-miterlimit:4;stroke-dasharray:none;stroke-dashoffset:0;stroke-opacity:1;marker:none;color-rendering:auto;image-rendering:auto;shape-rendering:auto;text-rendering:auto;enable-background:accumulate" d="M1160.545 69.64a19.2 19.2 0 0 1-21.733 16.26 19.2 19.2 0 0 1-16.276-21.721 19.2 19.2 0 0 1 21.71-16.292 19.2 19.2 0 0 1 16.307 21.697"/><path style="color:#000;clip-rule:nonzero;display:inline;overflow:visible;visibility:visible;opacity:1;isolation:auto;mix-blend-mode:normal;color-interpolation:sRGB;color-interpolation-filters:linearRGB;solid-color:#000;solid-opacity:1;fill:#86d353;fill-opacity:1;fill-rule:nonzero;stroke:none;stroke-width:2.52906322;stroke-linecap:butt;stroke-linejoin:miter;stroke-miterlimit:4;stroke-dasharray:none;stroke-dashoffset:0;stroke-opacity:1;marker:none;color-rendering:auto;image-rendering:auto;shape-rendering:auto;text-rendering:auto;enable-background:accumulate" d="M1155.354 67.27a12.062 12.298 0 0 1-13.653 10.415 12.062 12.298 0 0 1-10.225-13.912 12.062 12.298 0 0 1 13.638-10.436 12.062 12.298 0 0 1 10.245 13.898"/><path style="color:#000;clip-rule:nonzero;display:inline;overflow:visible;visibility:visible;opacity:1;isolation:auto;mix-blend-mode:normal;color-interpolation:sRGB;color-interpolation-filters:linearRGB;solid-color:#000;solid-opacity:1;fill:#223326;fill-opacity:1;fill-rule:nonzero;stroke:none;stroke-width:2.52906322;stroke-linecap:butt;stroke-linejoin:miter;stroke-miterlimit:4;stroke-dasharray:none;stroke-dashoffset:0;stroke-opacity:1;marker:none;color-rendering:auto;image-rendering:auto;shape-rendering:auto;text-rendering:auto;enable-background:accumulate" d="M1150.104 65.356a5.207 5.31 0 0 1-5.895 4.496 5.207 5.31 0 0 1-4.414-6.006 5.207 5.31 0 0 1 5.888-4.505 5.207 5.31 0 0 1 4.423 6"/><path style="color:#000;clip-rule:nonzero;display:inline;overflow:visible;visibility:visible;opacity:1;isolation:auto;mix-blend-mode:normal;color-interpolation:sRGB;color-interpolation-filters:linearRGB;solid-color:#000;solid-opacity:1;fill:#f7f7f7;fill-opacity:1;fill-rule:nonzero;stroke:none;stroke-width:2.52906322;stroke-linecap:butt;stroke-linejoin:miter;stroke-miterlimit:4;stroke-dasharray:none;stroke-dashoffset:0;stroke-opacity:1;marker:none;color-rendering:auto;image-rendering:auto;shape-rendering:auto;text-rendering:auto;enable-background:accumulate" d="M1145.999 70.008a2.753 2.65 0 0 1-3.116 2.244 2.753 2.65 0 0 1-2.334-2.998 2.753 2.65 0 0 1 3.113-2.248A2.753 2.65 0 0 1 1146 70"/><path style="color:#000;clip-rule:nonzero;display:inline;overflow:visible;visibility:visible;opacity:1;isolation:auto;mix-blend-mode:normal;color-interpolation:sRGB;color-interpolation-filters:linearRGB;solid-color:#000;solid-opacity:1;fill:#f7f7f7;fill-opacity:1;fill-rule:nonzero;stroke:none;stroke-width:2.52906322;stroke-linecap:butt;stroke-linejoin:miter;stroke-miterlimit:4;stroke-dasharray:none;stroke-dashoffset:0;stroke-opacity:1;marker:none;color-rendering:auto;image-rendering:auto;shape-rendering:auto;text-rendering:auto;enable-background:accumulate" d="M1143.148 75.44a1.666 1.596 0 0 1-1.885 1.352 1.666 1.596 0 0 1-1.412-1.805 1.666 1.596 0 0 1 1.883-1.354 1.666 1.596 0 0 1 1.415 1.803"/><path style="color:#000;clip-rule:nonzero;display:inline;overflow:visible;visibility:visible;opacity:1;isolation:auto;mix-blend-mode:normal;color-interpolation:sRGB;color-interpolation-filters:linearRGB;solid-color:#000;solid-opacity:1;fill:#f0f0f0;fill-opacity:1;fill-rule:nonzero;stroke:#437027;stroke-width:5;stroke-linecap:butt;stroke-linejoin:miter;stroke-miterlimit:4;stroke-dasharray:none;stroke-dashoffset:0;stroke-opacity:1;marker:none;color-rendering:auto;image-rendering:auto;shape-rendering:auto;text-rendering:auto;enable-background:accumulate" d="M1214.545 69.64a19.2 19.2 0 0 1-21.733 16.26 19.2 19.2 0 0 1-16.276-21.721 19.2 19.2 0 0 1 21.71-16.292 19.2 19.2 0 0 1 16.307 21.697"/><path style="color:#000;clip-rule:nonzero;display:inline;overflow:visible;visibility:visible;opacity:1;isolation:auto;mix-blend-mode:normal;color-interpolation:sRGB;color-interpolation-filters:linearRGB;solid-color:#000;solid-opacity:1;fill:#86d353;fill-opacity:1;fill-rule:nonzero;stroke:none;stroke-width:2.52906322;stroke-linecap:butt;stroke-linejoin:miter;stroke-miterlimit:4;stroke-dasharray:none;stroke-dashoffset:0;stroke-opacity:1;marker:none;color-rendering:auto;image-rendering:auto;shape-rendering:auto;text-rendering:auto;enable-background:accumulate" d="M1209.354 67.27a12.062 12.298 0 0 1-13.653 10.415 12.062 12.298 0 0 1-10.225-13.912 12.062 12.298 0 0 1 13.638-10.436 12.062 12.298 0 0 1 10.245 13.898"/><path style="color:#000;clip-rule:nonzero;display:inline;overflow:visible;visibility:visible;opacity:1;isolation:auto;mix-blend-mode:normal;color-interpolation:sRGB;color-interpolation-filters:linearRGB;solid-color:#000;solid-opacity:1;fill:#223326;fill-opacity:1;fill-rule:nonzero;stroke:none;stroke-width:2.52906322;stroke-linecap:butt;stroke-linejoin:miter;stroke-miterlimit:4;stroke-dasharray:none;stroke-dashoffset:0;stroke-opacity:1;marker:none;color-rendering:auto;image-rendering:auto;shape-rendering:auto;text-rendering:auto;enable-background:accumulate" d="M1204.104 65.356a5.207 5.31 0 0 1-5.895 4.496 5.207 5.31 0 0 1-4.414-6.006 5.207 5.31 0 0 1 5.888-4.505 5.207 5.31 0 0 1 4.423 6"/><path style="color:#000;clip-rule:nonzero;display:inline;overflow:visible;visibility:visible;opacity:1;isolation:auto;mix-blend-mode:normal;color-interpolation:sRGB;color-interpolation-filters:linearRGB;solid-color:#000;solid-opacity:1;fill:#f7f7f7;fill-opacity:1;fill-rule:nonzero;stroke:none;stroke-width:2.52906322;stroke-linecap:butt;stroke-linejoin:miter;stroke-miterlimit:4;stroke-dasharray:none;stroke-dashoffset:0;stroke-opacity:1;marker:none;color-rendering:auto;image-rendering:auto;shape-rendering:auto;text-rendering:auto;enable-background:accumulate" d="M1199.999 70.008a2.753 2.65 0 0 1-3.116 2.244 2.753 2.65 0 0 1-2.334-2.998 2.753 2.65 0 0 1 3.113-2.248A2.753 2.65 0 0 1 1200 70"/><path style="color:#000;clip-rule:nonzero;display:inline;overflow:visible;visibility:visible;opacity:1;isolation:auto;mix-blend-mode:normal;color-interpolation:sRGB;color-interpolation-filters:linearRGB;solid-color:#000;solid-opacity:1;fill:#f7f7f7;fill-opacity:1;fill-rule:nonzero;stroke:none;stroke-width:2.52906322;stroke-linecap:butt;stroke-linejoin:miter;stroke-miterlimit:4;stroke-dasharray:none;stroke-dashoffset:0;stroke-opacity:1;marker:none;color-rendering:auto;image-rendering:auto;shape-rendering:auto;text-rendering:auto;enable-background:accumulate" d="M1197.148 75.44a1.666 1.596 0 0 1-1.885 1.352 1.666 1.596 0 0 1-1.412-1.805 1.666 1.596 0 0 1 1.883-1.354 1.666 1.596 0 0 1 1.415 1.803"/></g></svg>