<svg xmlns:dc="http://purl.org/dc/elements/1.1/" xmlns:cc="http://creativecommons.org/ns#" xmlns:rdf="http://www.w3.org/1999/02/22-rdf-syntax-ns#" xmlns="http://www.w3.org/2000/svg" width="960" height="320" version="1.0"><metadata><rdf:RDF><cc:Work><dc:format>image/svg+xml</dc:format><dc:type rdf:resource="http://purl.org/dc/dcmitype/StillImage"/><dc:title/><dc:date>2020</dc:date><dc:creator><cc:Agent><dc:title>Timothée Giet</dc:title></cc:Agent></dc:creator><cc:license rdf:resource="http://creativecommons.org/licenses/by-sa/4.0/"/></cc:Work><cc:License rdf:about="http://creativecommons.org/licenses/by-sa/4.0/"><cc:permits rdf:resource="http://creativecommons.org/ns#Reproduction"/><cc:permits rdf:resource="http://creativecommons.org/ns#Distribution"/><cc:requires rdf:resource="http://creativecommons.org/ns#Notice"/><cc:requires rdf:resource="http://creativecommons.org/ns#Attribution"/><cc:permits rdf:resource="http://creativecommons.org/ns#DerivativeWorks"/><cc:requires rdf:resource="http://creativecommons.org/ns#ShareAlike"/></cc:License></rdf:RDF></metadata><g style="display:inline"><rect ry="7.5" y="140" x="170" height="25" width="15" style="opacity:1;vector-effect:none;fill:#f0f0f0;fill-opacity:1;stroke:#505050;stroke-width:5;stroke-linecap:square;stroke-linejoin:bevel;stroke-miterlimit:4;stroke-dasharray:none;stroke-dashoffset:3.20000005;stroke-opacity:1"/><rect ry="7.5" y="160" x="190" height="25" width="15" style="opacity:1;vector-effect:none;fill:#f0f0f0;fill-opacity:1;stroke:#505050;stroke-width:5;stroke-linecap:square;stroke-linejoin:bevel;stroke-miterlimit:4;stroke-dasharray:none;stroke-dashoffset:3.20000005;stroke-opacity:1"/><rect ry="7.5" y="140" x="210" height="25" width="15" style="opacity:1;vector-effect:none;fill:#f0f0f0;fill-opacity:1;stroke:#505050;stroke-width:5;stroke-linecap:square;stroke-linejoin:bevel;stroke-miterlimit:4;stroke-dasharray:none;stroke-dashoffset:3.20000005;stroke-opacity:1"/><path d="M155 30c-45 0-91.995 61.097-100 110-5.363 32.762 5 75 40 91.209V270H75v20h60v-20h-20v-33.26c11.274 2.127 24.492 3.26 40 3.26s28.726-1.133 40-3.26V270h-20v20h60v-20h-20v-38.791c23.926-14.499 36.165-33.108 41.518-56.209H160c-5.54 0-10-4.46-10-10v-5c0-5.54 4.46-10 10-10h99.768c.154-3.263.232-6.593.232-10 0-40-60-110-105-110z" style="opacity:1;vector-effect:none;fill:#9c37a8;fill-opacity:1;stroke:#6c2e72;stroke-width:5;stroke-linecap:square;stroke-linejoin:bevel;stroke-miterlimit:4;stroke-dasharray:none;stroke-dashoffset:3.20000005;stroke-opacity:1"/><circle r="20.77812" cy="87.5" cx="192.5" style="opacity:1;vector-effect:none;fill:#f0f0f0;fill-opacity:1;stroke:#6c2e72;stroke-width:3.77784014;stroke-linecap:square;stroke-linejoin:bevel;stroke-miterlimit:4;stroke-dasharray:none;stroke-dashoffset:3.20000005;stroke-opacity:1"/><circle r="7.5" cy="87.5" cx="202.5" style="opacity:1;vector-effect:none;fill:#373737;fill-opacity:1;stroke:none;stroke-width:5;stroke-linecap:square;stroke-linejoin:bevel;stroke-miterlimit:4;stroke-dasharray:none;stroke-dashoffset:3.20000005;stroke-opacity:1"/><rect ry="7.5" y="125" x="490" height="25" width="15" style="opacity:1;vector-effect:none;fill:#f0f0f0;fill-opacity:1;stroke:#505050;stroke-width:5;stroke-linecap:square;stroke-linejoin:bevel;stroke-miterlimit:4;stroke-dasharray:none;stroke-dashoffset:3.20000005;stroke-opacity:1"/><rect ry="7.5" y="125" x="530" height="25" width="15" style="opacity:1;vector-effect:none;fill:#f0f0f0;fill-opacity:1;stroke:#505050;stroke-width:5;stroke-linecap:square;stroke-linejoin:bevel;stroke-miterlimit:4;stroke-dasharray:none;stroke-dashoffset:3.20000005;stroke-opacity:1"/><rect ry="7.5" y="170" x="510" height="25" width="15" style="opacity:1;vector-effect:none;fill:#f0f0f0;fill-opacity:1;stroke:#505050;stroke-width:5;stroke-linecap:square;stroke-linejoin:bevel;stroke-miterlimit:4;stroke-dasharray:none;stroke-dashoffset:3.20000005;stroke-opacity:1"/><path d="M475 30c-45 0-91.995 61.097-100 110-5.363 32.762 5 75 40 91.209V270h-20v20h60v-20h-20v-33.26c11.274 2.127 24.492 3.26 40 3.26s28.726-1.133 40-3.26V270h-20v20h60v-20h-20v-38.791c20.37-12.344 32.262-27.671 38.652-46.209H480c-5.54 0-10-4.46-10-10v-30c0-5.54 4.46-10 10-10h99.7C575.157 94.446 518.18 30 475 30z" style="opacity:1;vector-effect:none;fill:#9c37a8;fill-opacity:1;stroke:#6c2e72;stroke-width:5;stroke-linecap:square;stroke-linejoin:bevel;stroke-miterlimit:4;stroke-dasharray:none;stroke-dashoffset:3.20000005;stroke-opacity:1"/><circle r="20.77812" cy="87.5" cx="512.5" style="opacity:1;vector-effect:none;fill:#f0f0f0;fill-opacity:1;stroke:#6c2e72;stroke-width:3.77784014;stroke-linecap:square;stroke-linejoin:bevel;stroke-miterlimit:4;stroke-dasharray:none;stroke-dashoffset:3.20000005;stroke-opacity:1"/><circle r="7.5" cy="87.5" cx="522.5" style="opacity:1;vector-effect:none;fill:#373737;fill-opacity:1;stroke:none;stroke-width:5;stroke-linecap:square;stroke-linejoin:bevel;stroke-miterlimit:4;stroke-dasharray:none;stroke-dashoffset:3.20000005;stroke-opacity:1"/><rect ry="7.5" y="115" x="810" height="25" width="15" style="opacity:1;vector-effect:none;fill:#f0f0f0;fill-opacity:1;stroke:#505050;stroke-width:5;stroke-linecap:square;stroke-linejoin:bevel;stroke-miterlimit:4;stroke-dasharray:none;stroke-dashoffset:3.20000005;stroke-opacity:1"/><rect ry="7.5" y="115" x="850" height="25" width="15" style="opacity:1;vector-effect:none;fill:#f0f0f0;fill-opacity:1;stroke:#505050;stroke-width:5;stroke-linecap:square;stroke-linejoin:bevel;stroke-miterlimit:4;stroke-dasharray:none;stroke-dashoffset:3.20000005;stroke-opacity:1"/><rect ry="7.5" y="185" x="830" height="25" width="15" style="opacity:1;vector-effect:none;fill:#f0f0f0;fill-opacity:1;stroke:#505050;stroke-width:5;stroke-linecap:square;stroke-linejoin:bevel;stroke-miterlimit:4;stroke-dasharray:none;stroke-dashoffset:3.20000005;stroke-opacity:1"/><path d="M795 30c-45 0-91.995 61.097-100 110-5.363 32.762 5 75 40 91.209V270h-20v20h60v-20h-20v-33.26c11.274 2.127 24.492 3.26 40 3.26s28.726-1.133 40-3.26V270h-20v20h60v-20h-20v-38.791c14.594-8.843 24.828-19.221 31.816-31.209H800c-5.54 0-10-4.46-10-10v-55c0-5.54 4.46-10 10-10h97.68C886.254 84.679 834.773 30 795 30z" style="opacity:1;vector-effect:none;fill:#9c37a8;fill-opacity:1;stroke:#6c2e72;stroke-width:5;stroke-linecap:square;stroke-linejoin:bevel;stroke-miterlimit:4;stroke-dasharray:none;stroke-dashoffset:3.20000005;stroke-opacity:1"/><circle r="20.77812" cy="87.5" cx="832.5" style="opacity:1;vector-effect:none;fill:#f0f0f0;fill-opacity:1;stroke:#6c2e72;stroke-width:3.77784014;stroke-linecap:square;stroke-linejoin:bevel;stroke-miterlimit:4;stroke-dasharray:none;stroke-dashoffset:3.20000005;stroke-opacity:1"/><circle r="7.5" cy="87.5" cx="842.5" style="opacity:1;vector-effect:none;fill:#373737;fill-opacity:1;stroke:none;stroke-width:5;stroke-linecap:square;stroke-linejoin:bevel;stroke-miterlimit:4;stroke-dasharray:none;stroke-dashoffset:3.20000005;stroke-opacity:1"/></g></svg>