<?xml version="1.0" encoding="UTF-8" standalone="no"?>
<!-- Created with Inkscape (http://www.inkscape.org/) -->
<svg
   xmlns:dc="http://purl.org/dc/elements/1.1/"
   xmlns:cc="http://web.resource.org/cc/"
   xmlns:rdf="http://www.w3.org/1999/02/22-rdf-syntax-ns#"
   xmlns:svg="http://www.w3.org/2000/svg"
   xmlns="http://www.w3.org/2000/svg"
   xmlns:sodipodi="http://sodipodi.sourceforge.net/DTD/sodipodi-0.dtd"
   xmlns:inkscape="http://www.inkscape.org/namespaces/inkscape"
   width="100"
   height="100"
   id="svg10790"
   sodipodi:version="0.32"
   inkscape:version="0.44.1"
   version="1.0"
   sodipodi:docbase="/home/mat/Travaux/Inkscape/Gcompris/boardicons"
   sodipodi:docname="doubleentry.svg">
  <defs
     id="defs10792" />
  <sodipodi:namedview
     id="base"
     pagecolor="#ffffff"
     bordercolor="#666666"
     borderopacity="1.0"
     inkscape:pageopacity="0.0"
     inkscape:pageshadow="2"
     inkscape:zoom="6.1561263"
     inkscape:cx="53.66805"
     inkscape:cy="46.448133"
     inkscape:document-units="px"
     inkscape:current-layer="layer1"
     height="100px"
     width="100px"
     inkscape:window-width="1022"
     inkscape:window-height="927"
     inkscape:window-x="211"
     inkscape:window-y="24" />
  <metadata
     id="metadata10795">
    <rdf:RDF>
      <cc:Work
         rdf:about="">
        <dc:format>image/svg+xml</dc:format>
        <dc:type
           rdf:resource="http://purl.org/dc/dcmitype/StillImage" />
      </cc:Work>
    </rdf:RDF>
  </metadata>
  <g
     inkscape:label="Calque 1"
     id="layer1"
     inkscape:groupmode="layer">
    <path
       style="fill:black;fill-opacity:0.23753665;fill-rule:evenodd;stroke:none;stroke-width:0.74045932px;stroke-linecap:butt;stroke-linejoin:miter;stroke-opacity:1"
       d="M 46.735856,5.7770367 L 38.735856,7.1832867 C 38.772981,7.6799098 38.754327,8.267317 38.673356,9.0582867 L 38.454606,13.277037 L 33.173356,14.214537 L 33.485856,18.277037 L 43.298356,24.839537 L 52.048356,17.120787 L 52.048356,13.589537 C 52.048356,13.589538 46.981919,13.84549 46.298356,13.308287 C 45.7982,12.91522 46.3932,8.2683917 46.735856,5.7770367 z M 68.329606,5.7770367 L 60.360856,7.1832867 C 60.397981,7.6799098 60.379327,8.267317 60.298356,9.0582867 L 60.079606,13.277037 L 54.767106,14.214537 L 55.110856,18.277037 L 64.923356,24.839537 L 73.673356,17.120787 L 73.673356,13.589537 C 73.673356,13.589538 68.606919,13.84549 67.923356,13.308287 C 67.4232,12.91522 67.98695,8.2683917 68.329606,5.7770367 z M 89.954606,5.7770367 L 81.985856,7.1832867 C 82.022981,7.6799098 82.004327,8.267317 81.923356,9.0582867 L 81.704606,13.277037 L 76.392106,14.214537 L 76.735856,18.277037 L 86.548356,24.839537 L 95.298356,17.120787 L 95.298356,13.589537 C 95.298356,13.589538 90.231919,13.84549 89.548356,13.308287 C 89.0482,12.91522 89.611948,8.2683917 89.954606,5.7770367 z M 74.423356,25.933287 L 74.110856,28.683287 C 71.412923,28.709769 68.173356,28.745787 68.173356,28.745787 L 61.923356,27.464537 L 55.485856,27.558287 L 55.548356,26.495787 L 53.329606,26.495787 L 53.204606,27.620787 L 44.735856,27.745787 L 34.954606,28.745787 L 31.642106,32.214537 C 31.642106,32.214537 32.215643,36.798946 32.798356,40.683287 C 33.343936,44.320096 31.757288,48.612097 31.548356,49.620787 L 28.954606,49.808287 L 28.954606,51.839537 L 31.548356,51.745787 C 31.615184,54.319394 31.760242,59.585381 31.642106,60.402037 C 31.55224,61.02326 31.478192,66.43938 31.329606,70.902037 L 29.235856,71.058287 L 29.235856,73.089537 L 31.267106,72.995787 C 31.179477,74.818871 31.057616,76.284276 30.892106,76.652037 C 30.309393,77.946821 30.485391,87.351347 30.048356,88.214537 C 29.611321,89.077726 32.329606,92.245787 32.329606,92.245787 C 32.329606,92.245789 36.07043,95.13965 37.235856,94.995787 C 38.401283,94.851923 45.957396,94.39556 48.579606,94.683287 C 49.493412,94.783556 51.236809,94.744622 53.142106,94.683287 L 53.173356,94.933287 L 55.235856,94.933287 L 55.235856,94.620787 C 58.258341,94.490526 61.346163,94.308287 62.798356,94.308287 C 65.566244,94.30829 83.539177,95.264649 84.704606,95.120787 C 85.870032,94.976925 93.903141,94.252264 94.485856,93.964537 C 95.068571,93.676808 95.142109,88.027034 95.142106,88.027037 L 96.017106,81.277037 L 96.360856,73.183287 L 99.110856,73.370787 L 99.110856,71.183287 L 96.454606,70.870787 L 96.454606,70.777037 L 97.610856,59.683287 L 97.548356,52.027037 L 98.798356,52.120787 L 98.798356,49.933287 L 97.517106,49.777037 L 97.485856,44.277037 L 97.298356,36.808287 C 97.298357,36.808287 95.120962,31.921474 94.829606,31.058287 C 94.53825,30.1951 92.360854,28.620787 92.360856,28.620787 C 92.360856,28.620787 84.213781,28.620787 83.048356,28.620787 C 82.531743,28.620787 79.61295,28.653026 76.454606,28.683287 L 76.642106,25.933287 L 74.423356,25.933287 z M 15.579606,32.370787 C 15.579607,32.370787 15.866809,37.437225 15.329606,38.120787 C 14.936539,38.620943 10.28971,38.057192 7.7983556,37.714537 L 9.1733556,45.683287 C 9.6699786,45.646162 10.288636,45.664817 11.079606,45.745787 L 15.298356,45.964537 L 16.235856,51.277037 L 20.267106,50.933287 L 26.860856,41.120787 L 19.110856,32.370787 L 15.579606,32.370787 z M 15.579606,51.964537 C 15.579607,51.964537 15.866809,57.030974 15.329606,57.714537 C 14.936539,58.214693 10.28971,57.619695 7.7983556,57.277037 L 9.1733556,65.277037 C 9.6699786,65.239912 10.288636,65.227316 11.079606,65.308287 L 15.298356,65.558287 L 16.235856,70.839537 L 20.267106,70.527037 L 26.860856,60.683287 L 19.110856,51.964537 L 15.579606,51.964537 z M 15.579606,72.745787 C 15.579607,72.745787 15.866809,77.812223 15.329606,78.495787 C 14.936539,78.995943 10.28971,78.43219 7.7983556,78.089537 L 9.1733556,86.058287 C 9.6699786,86.021162 10.288636,86.039815 11.079606,86.120787 L 15.298356,86.339537 L 16.235856,91.652037 L 20.267106,91.308287 L 26.860856,81.495787 L 19.110856,72.745787 L 15.579606,72.745787 z "
       id="path5825" />
    <path
       style="fill:#ffba0e;fill-opacity:1;fill-rule:evenodd;stroke:black;stroke-width:0.74045932px;stroke-linecap:butt;stroke-linejoin:miter;stroke-opacity:1"
       d="M 32.032208,27.501635 L 28.542062,30.807389 L 30.363007,38.620992 L 28.693807,48.237733 L 28.997298,62.662845 L 26.872861,85.352344 L 32.487444,90.310976 L 89.46281,89.722108 L 90.4863,83.597918 L 91.364691,35.315237 L 87.267563,26.900588 L 63.898759,27.05085 L 57.070212,25.548234 L 32.032208,27.501635 z "
       id="path29949"
       sodipodi:nodetypes="cccccccccccccc" />
    <path
       style="fill:none;fill-opacity:0.75000000;fill-rule:evenodd;stroke:#000000;stroke-linecap:butt;stroke-linejoin:miter;stroke-opacity:1.0000000;stroke-width:1,000000pt"
       d="M 8,013077 25,081298 L 8,013077 90,548682 M 18,013077 25,081298 L 18,013077 90,548682 M 28,013077 25,081298 L 28,013077 90,548682 M 38,013077 25,081298 L 38,013077 90,548682 M 48,013077 25,081298 L 48,013077 90,548682 M 58,013077 25,081298 L 58,013077 90,548682 M 68,013077 25,081298 L 68,013077 90,548682 M 78,013077 25,081298 L 78,013077 90,548682 M 88,013077 25,081298 L 88,013077 90,548682 M 98,013077 25,081298 L 98,013077 90,548682 M 3,013077 30,081298 L 102,497492 30,081298 M 3,013077 40,081298 L 102,497492 40,081298 M 3,013077 50,081298 L 102,497492 50,081298 M 3,013077 60,081298 L 102,497492 60,081298 M 3,013077 70,081298 L 102,497492 70,081298 M 3,013077 80,081298 L 102,497492 80,081298 M 3,013077 90,081298 L 102,497492 90,081298 "
       id="path25447" />
    <path
       style="fill:none;fill-opacity:0.75000000;fill-rule:evenodd;stroke:#000000;stroke-linecap:butt;stroke-linejoin:miter;stroke-opacity:1.0000000;stroke-width:1,000000pt"
       d="M 8,013077 25,081298 L 8,013077 90,548682 M 13,213077 25,081298 L 13,213077 90,548682 M 18,413077 25,081298 L 18,413077 90,548682 M 23,613077 25,081298 L 23,613077 90,548682 M 28,813077 25,081298 L 28,813077 90,548682 M 34,013076 25,081298 L 34,013076 90,548682 M 39,213076 25,081298 L 39,213076 90,548682 M 44,413076 25,081298 L 44,413076 90,548682 M 49,613076 25,081298 L 49,613076 90,548682 M 54,813076 25,081298 L 54,813076 90,548682 M 60,013075 25,081298 L 60,013075 90,548682 M 65,213075 25,081298 L 65,213075 90,548682 M 70,413075 25,081298 L 70,413075 90,548682 M 75,613075 25,081298 L 75,613075 90,548682 M 80,813075 25,081298 L 80,813075 90,548682 M 86,013074 25,081298 L 86,013074 90,548682 M 91,213074 25,081298 L 91,213074 90,548682 M 96,413074 25,081298 L 96,413074 90,548682 M 101,613074 25,081298 L 101,613074 90,548682 M 3,013077 30,081298 L 102,497492 30,081298 M 3,013077 40,081298 L 102,497492 40,081298 M 3,013077 50,081298 L 102,497492 50,081298 M 3,013077 60,081298 L 102,497492 60,081298 M 3,013077 70,081298 L 102,497492 70,081298 M 3,013077 80,081298 L 102,497492 80,081298 M 3,013077 90,081298 L 102,497492 90,081298 "
       id="path25449" />
    <path
       style="fill:black;fill-opacity:1;fill-rule:evenodd;stroke:none;stroke-width:1px;stroke-linecap:butt;stroke-linejoin:miter;stroke-opacity:1"
       d="M 58.065421,24.45627 L 40.861976,24.732892 L 31.104799,25.747175 L 27.766817,29.204958 C 27.766817,29.204958 28.35123,33.803712 28.933943,37.688053 C 29.516657,41.572394 27.626762,46.241141 27.626762,46.8166 C 27.626762,47.392058 27.912495,56.390366 27.766817,57.397416 C 27.621138,58.404467 27.625912,72.354214 27.043198,73.648996 C 26.460485,74.943777 26.639902,84.334801 26.202867,85.197991 C 25.765832,86.061178 28.467093,89.232071 28.467093,89.232071 C 28.467093,89.232071 32.203598,92.14216 33.369024,91.998297 C 34.534451,91.854433 42.091285,91.387844 44.713494,91.675571 C 47.335704,91.9633 56.184549,91.306741 58.952437,91.306741 C 61.720326,91.306741 79.682302,92.257419 80.847731,92.113557 C 82.013158,91.969692 90.033084,91.235327 90.615799,90.9476 C 91.198513,90.659871 91.281845,85.013573 91.281842,85.013576 L 92.145516,78.259373 L 92.589024,67.770765 L 93.756151,56.682807 L 93.616096,41.284147 L 93.452698,33.815336 C 93.452698,33.815336 91.269746,28.915551 90.97839,28.052364 C 90.687033,27.189177 88.504079,25.608864 88.504081,25.608864 C 88.504081,25.608864 80.355837,25.608864 79.190412,25.608864 C 78.024985,25.608864 64.32122,25.747175 64.32122,25.747175 L 58.065421,24.45627 z M 58.298847,27.084185 L 63.971082,28.282883 C 63.971081,28.282883 76.405306,28.144572 77.463065,28.144572 C 78.520826,28.144571 85.936403,28.144572 85.936403,28.144572 C 85.9364,28.144571 87.912846,29.607635 88.177286,30.403657 C 88.441724,31.199677 90.418169,35.728642 90.418169,35.728642 L 90.558224,42.621157 L 90.698279,56.821119 L 89.624523,67.033104 L 89.2277,76.714897 C 89.671372,78.483214 88.499434,85.946185 88.69788,87.065194 C 88.168998,87.330534 80.038088,89.352972 78.980329,89.485642 C 77.922567,89.618314 61.628013,88.747982 59.115836,88.747982 C 56.603657,88.747984 48.564032,89.336048 46.184073,89.070708 C 43.804115,88.80537 36.947778,89.237713 35.890018,89.370382 C 34.832258,89.50305 31.454937,86.834675 31.454937,86.834675 C 31.454937,86.834674 28.980792,83.896291 29.377451,83.100269 C 29.774111,82.304249 29.595533,73.667381 30.124412,72.47335 C 30.653292,71.279318 30.669126,58.395262 30.801346,57.466571 C 30.933565,56.537881 30.684633,48.246304 30.684633,47.715623 C 30.684633,47.184942 32.380639,42.883777 31.85176,39.301685 C 31.32288,35.719593 30.801346,31.464044 30.801346,31.464044 L 33.835875,28.282883 L 42.706036,27.360807 L 58.298847,27.084185 z "
       id="path28146"
       sodipodi:nodetypes="ccccssssscsssssccccccscsccccscsccccccsssscssssscccc" />
    <path
       style="fill:black;fill-opacity:1;fill-rule:evenodd;stroke:none;stroke-width:1px;stroke-linecap:butt;stroke-linejoin:miter;stroke-opacity:1"
       d="M 49.456967,23.500697 L 51.686616,23.500697 L 50.497469,41.552218 L 50.943399,57.856817 L 51.092043,84.934098 L 51.389329,91.921784 L 49.308324,91.921784 L 48.565108,82.459293 L 49.159681,70.958727 L 48.713751,56.109896 L 48.416465,32.235304 L 49.456967,23.500697 z "
       id="path29036" />
    <path
       style="fill:black;fill-opacity:1;fill-rule:evenodd;stroke:none;stroke-width:1px;stroke-linecap:butt;stroke-linejoin:miter;stroke-opacity:1"
       d="M 94.94179,46.938557 L 94.94179,49.12221 L 76.510033,47.957595 L 59.861992,48.394325 L 32.214356,48.539902 L 25.079481,48.831056 L 25.079481,46.79298 L 34.74129,46.065097 L 46.484104,46.647404 L 61.645711,46.210673 L 86.023198,45.91952 L 94.94179,46.938557 z "
       id="path29923" />
    <path
       style="fill:black;fill-opacity:1;fill-rule:evenodd;stroke:none;stroke-width:1px;stroke-linecap:butt;stroke-linejoin:miter;stroke-opacity:1"
       d="M 70.564303,22.918389 L 72.793952,22.918389 L 71.604805,40.96991 L 72.050735,57.27451 L 72.199379,84.35179 L 72.496665,91.339476 L 70.41566,91.339476 L 69.672444,81.876985 L 70.267017,70.376419 L 69.821087,55.527588 L 69.523801,31.652996 L 70.564303,22.918389 z "
       id="path3535" />
    <path
       style="fill:black;fill-opacity:1;fill-rule:evenodd;stroke:none;stroke-width:1px;stroke-linecap:butt;stroke-linejoin:miter;stroke-opacity:1"
       d="M 95.239076,68.192768 L 95.239076,70.37642 L 76.807318,69.211805 L 60.159278,69.648536 L 32.511642,69.794113 L 25.376767,70.085266 L 25.376767,68.047191 L 35.038575,67.319308 L 46.78139,67.901615 L 61.942996,67.464884 L 86.320484,67.173731 L 95.239076,68.192768 z "
       id="path3537" />
    <g
       id="g5785"
       transform="translate(0,-0.611789)">
      <path
         id="path5641"
         d="M 91.427996,14.718314 L 82.68537,22.455498 L 72.861643,15.872381 L 72.531296,11.823946 L 77.829379,10.898261 L 78.060301,6.6788342 C 78.141272,5.8878644 78.148148,5.2801528 78.111023,4.7835297 L 86.098122,3.3884873 C 85.755466,5.8798422 85.180583,10.536788 85.680739,10.929855 C 86.364302,11.467058 91.428244,11.193327 91.428244,11.193326 L 91.427996,14.718314 z "
         style="fill:black;fill-opacity:1;fill-rule:evenodd;stroke:none;stroke-width:1px;stroke-linecap:butt;stroke-linejoin:miter;stroke-opacity:1"
         sodipodi:nodetypes="ccccccccscc" />
      <path
         sodipodi:nodetypes="ccccccccccc"
         id="path5643"
         d="M 88.287421,14.8543 L 82.564587,20.043941 L 78.912117,17.614536 L 74.93587,15.488781 L 74.85949,12.958276 L 80.127717,12.512163 L 79.915106,5.9696567 L 83.771652,5.1324192 L 83.32331,12.590485 L 89.172111,13.078376 L 88.287421,14.8543 z "
         style="fill:#85c751;fill-opacity:1;fill-rule:evenodd;stroke:none;stroke-width:1px;stroke-linecap:butt;stroke-linejoin:miter;stroke-opacity:1" />
    </g>
    <g
       id="g5743">
      <path
         id="path5647"
         d="M 15.255678,29.372844 L 22.992862,38.11547 L 16.409745,47.939197 L 12.36131,48.269544 L 11.435625,42.971461 L 7.2161982,42.740539 C 6.4252284,42.659568 5.8175168,42.652692 5.3208937,42.689817 L 3.9258513,34.702718 C 6.4172062,35.045374 11.074152,35.620257 11.467219,35.120101 C 12.004422,34.436538 11.730691,29.372596 11.73069,29.372596 L 15.255678,29.372844 z "
         style="fill:black;fill-opacity:1;fill-rule:evenodd;stroke:none;stroke-width:1px;stroke-linecap:butt;stroke-linejoin:miter;stroke-opacity:1"
         sodipodi:nodetypes="ccccccccscc" />
      <path
         sodipodi:nodetypes="ccccccccccc"
         id="path5649"
         d="M 15.391664,32.513419 L 20.581305,38.236253 L 18.1519,41.888723 L 16.026145,45.86497 L 13.49564,45.94135 L 13.049527,40.673123 L 6.5070207,40.885734 L 5.6697832,37.029188 L 13.127849,37.47753 L 13.61574,31.628729 L 15.391664,32.513419 z "
         style="fill:#2165cd;fill-opacity:1;fill-rule:evenodd;stroke:none;stroke-width:1px;stroke-linecap:butt;stroke-linejoin:miter;stroke-opacity:1" />
    </g>
    <g
       id="g5747"
       transform="translate(0,19.57726)">
      <path
         id="path5749"
         d="M 15.255678,29.372844 L 22.992862,38.11547 L 16.409745,47.939197 L 12.36131,48.269544 L 11.435625,42.971461 L 7.2161982,42.740539 C 6.4252284,42.659568 5.8175168,42.652692 5.3208937,42.689817 L 3.9258513,34.702718 C 6.4172062,35.045374 11.074152,35.620257 11.467219,35.120101 C 12.004422,34.436538 11.730691,29.372596 11.73069,29.372596 L 15.255678,29.372844 z "
         style="fill:black;fill-opacity:1;fill-rule:evenodd;stroke:none;stroke-width:1px;stroke-linecap:butt;stroke-linejoin:miter;stroke-opacity:1"
         sodipodi:nodetypes="ccccccccscc" />
      <path
         sodipodi:nodetypes="ccccccccccc"
         id="path5751"
         d="M 15.391664,32.513419 L 20.581305,38.236253 L 18.1519,41.888723 L 16.026145,45.86497 L 13.49564,45.94135 L 13.049527,40.673123 L 6.5070207,40.885734 L 5.6697832,37.029188 L 13.127849,37.47753 L 13.61574,31.628729 L 15.391664,32.513419 z "
         style="fill:#2165cd;fill-opacity:1;fill-rule:evenodd;stroke:none;stroke-width:1px;stroke-linecap:butt;stroke-linejoin:miter;stroke-opacity:1" />
    </g>
    <g
       id="g5753"
       transform="translate(0,40.37809)">
      <path
         id="path5755"
         d="M 15.255678,29.372844 L 22.992862,38.11547 L 16.409745,47.939197 L 12.36131,48.269544 L 11.435625,42.971461 L 7.2161982,42.740539 C 6.4252284,42.659568 5.8175168,42.652692 5.3208937,42.689817 L 3.9258513,34.702718 C 6.4172062,35.045374 11.074152,35.620257 11.467219,35.120101 C 12.004422,34.436538 11.730691,29.372596 11.73069,29.372596 L 15.255678,29.372844 z "
         style="fill:black;fill-opacity:1;fill-rule:evenodd;stroke:none;stroke-width:1px;stroke-linecap:butt;stroke-linejoin:miter;stroke-opacity:1"
         sodipodi:nodetypes="ccccccccscc" />
      <path
         sodipodi:nodetypes="ccccccccccc"
         id="path5757"
         d="M 15.391664,32.513419 L 20.581305,38.236253 L 18.1519,41.888723 L 16.026145,45.86497 L 13.49564,45.94135 L 13.049527,40.673123 L 6.5070207,40.885734 L 5.6697832,37.029188 L 13.127849,37.47753 L 13.61574,31.628729 L 15.391664,32.513419 z "
         style="fill:#2165cd;fill-opacity:1;fill-rule:evenodd;stroke:none;stroke-width:1px;stroke-linecap:butt;stroke-linejoin:miter;stroke-opacity:1" />
    </g>
    <path
       style="fill:black;fill-opacity:1;fill-rule:evenodd;stroke:none;stroke-width:1px;stroke-linecap:butt;stroke-linejoin:miter;stroke-opacity:1"
       d="M 46.35122,36.245815 L 46.35122,39.402769 L 43.199442,37.71906 L 40.352674,38.35045 L 35.625007,38.560914 L 34.404964,38.981841 L 34.404964,36.035351 L 36.057106,34.983035 L 38.065093,35.824888 L 40.657685,35.193497 L 44.826166,34.772571 L 46.35122,36.245815 z "
       id="path5759" />
    <path
       style="fill:black;fill-opacity:1;fill-rule:evenodd;stroke:none;stroke-width:1px;stroke-linecap:butt;stroke-linejoin:miter;stroke-opacity:1"
       d="M 65.928477,32.473113 L 65.928477,35.630067 L 62.776699,33.946358 L 59.929931,34.577748 L 55.202264,34.788212 L 53.982221,35.209139 L 53.982221,32.262649 L 55.634363,31.210333 L 57.64235,32.052186 L 60.234942,31.420795 L 64.403423,30.999869 L 65.928477,32.473113 z "
       id="path5761" />
    <path
       style="fill:black;fill-opacity:1;fill-rule:evenodd;stroke:none;stroke-width:1px;stroke-linecap:butt;stroke-linejoin:miter;stroke-opacity:1"
       d="M 65.520618,38.387077 L 65.520618,41.544031 L 62.36884,39.860322 L 59.522072,40.491712 L 54.794405,40.702176 L 53.574362,41.123103 L 53.574362,38.176613 L 55.226504,37.124297 L 57.234491,37.96615 L 59.827083,37.334759 L 63.995564,36.913833 L 65.520618,38.387077 z "
       id="path5763" />
    <path
       style="fill:black;fill-opacity:1;fill-rule:evenodd;stroke:none;stroke-width:1px;stroke-linecap:butt;stroke-linejoin:miter;stroke-opacity:1"
       d="M 86.321453,31.045605 L 86.321453,34.202559 L 83.169675,32.51885 L 80.322907,33.15024 L 75.59524,33.360704 L 74.375197,33.781631 L 74.375197,30.835141 L 76.027339,29.782825 L 78.035326,30.624678 L 80.627918,29.993287 L 84.796399,29.572361 L 86.321453,31.045605 z "
       id="path5765" />
    <path
       style="fill:black;fill-opacity:1;fill-rule:evenodd;stroke:none;stroke-width:1px;stroke-linecap:butt;stroke-linejoin:miter;stroke-opacity:1"
       d="M 86.525383,36.551709 L 86.525383,39.708663 L 83.373605,38.024954 L 80.526837,38.656344 L 75.79917,38.866808 L 74.579127,39.287735 L 74.579127,36.341245 L 76.231269,35.288929 L 78.239256,36.130782 L 80.831848,35.499391 L 85.000329,35.078465 L 86.525383,36.551709 z "
       id="path5767" />
    <path
       style="fill:black;fill-opacity:1;fill-rule:evenodd;stroke:none;stroke-width:1px;stroke-linecap:butt;stroke-linejoin:miter;stroke-opacity:1"
       d="M 86.321453,41.853882 L 86.321453,45.010836 L 83.169675,43.327127 L 80.322907,43.958517 L 75.59524,44.168981 L 74.375197,44.589908 L 74.375197,41.643418 L 76.027339,40.591102 L 78.035326,41.432955 L 80.627918,40.801564 L 84.796399,40.380638 L 86.321453,41.853882 z "
       id="path5769" />
    <path
       style="fill:black;fill-opacity:1;fill-rule:evenodd;stroke:none;stroke-width:1px;stroke-linecap:butt;stroke-linejoin:miter;stroke-opacity:1"
       d="M 40.812088,64.167527 L 37.655134,64.167527 L 39.338843,61.015749 L 38.707453,58.168981 L 38.496989,53.441314 L 38.076062,52.221271 L 41.022552,52.221271 L 42.074868,53.873413 L 41.233015,55.8814 L 41.864406,58.473992 L 42.285332,62.642473 L 40.812088,64.167527 z "
       id="path5771" />
    <path
       style="fill:black;fill-opacity:1;fill-rule:evenodd;stroke:none;stroke-width:1px;stroke-linecap:butt;stroke-linejoin:miter;stroke-opacity:1"
       d="M 75.480147,64.371457 L 72.323193,64.371457 L 74.006902,61.219679 L 73.375512,58.372911 L 73.165048,53.645244 L 72.744121,52.425201 L 75.690611,52.425201 L 76.742927,54.077343 L 75.901074,56.08533 L 76.532465,58.677922 L 76.953391,62.846403 L 75.480147,64.371457 z "
       id="path5775" />
    <path
       style="fill:black;fill-opacity:1;fill-rule:evenodd;stroke:none;stroke-width:1px;stroke-linecap:butt;stroke-linejoin:miter;stroke-opacity:1"
       d="M 81.39411,63.963598 L 78.237156,63.963598 L 79.920865,60.81182 L 79.289475,57.965052 L 79.079011,53.237385 L 78.658084,52.017342 L 81.604574,52.017342 L 82.65689,53.669484 L 81.815037,55.677471 L 82.446428,58.270063 L 82.867354,62.438544 L 81.39411,63.963598 z "
       id="path5777" />
    <path
       style="fill:black;fill-opacity:1;fill-rule:evenodd;stroke:none;stroke-width:1px;stroke-linecap:butt;stroke-linejoin:miter;stroke-opacity:1"
       d="M 87.512002,63.963597 L 84.355048,63.963597 L 86.038757,60.811819 L 85.407367,57.965051 L 85.196903,53.237384 L 84.775976,52.017341 L 87.722466,52.017341 L 88.774782,53.669483 L 87.932929,55.67747 L 88.56432,58.270062 L 88.985246,62.438543 L 87.512002,63.963597 z "
       id="path5779" />
    <g
       id="g5789"
       transform="translate(-21.61656,-0.611789)">
      <path
         id="path5791"
         d="M 91.427996,14.718314 L 82.68537,22.455498 L 72.861643,15.872381 L 72.531296,11.823946 L 77.829379,10.898261 L 78.060301,6.6788342 C 78.141272,5.8878644 78.148148,5.2801528 78.111023,4.7835297 L 86.098122,3.3884873 C 85.755466,5.8798422 85.180583,10.536788 85.680739,10.929855 C 86.364302,11.467058 91.428244,11.193327 91.428244,11.193326 L 91.427996,14.718314 z "
         style="fill:black;fill-opacity:1;fill-rule:evenodd;stroke:none;stroke-width:1px;stroke-linecap:butt;stroke-linejoin:miter;stroke-opacity:1"
         sodipodi:nodetypes="ccccccccscc" />
      <path
         sodipodi:nodetypes="ccccccccccc"
         id="path5793"
         d="M 88.287421,14.8543 L 82.564587,20.043941 L 78.912117,17.614536 L 74.93587,15.488781 L 74.85949,12.958276 L 80.127717,12.512163 L 79.915106,5.9696567 L 83.771652,5.1324192 L 83.32331,12.590485 L 89.172111,13.078376 L 88.287421,14.8543 z "
         style="fill:#85c751;fill-opacity:1;fill-rule:evenodd;stroke:none;stroke-width:1px;stroke-linecap:butt;stroke-linejoin:miter;stroke-opacity:1" />
    </g>
    <g
       id="g5795"
       transform="translate(-43.23312,-0.611789)">
      <path
         id="path5797"
         d="M 91.427996,14.718314 L 82.68537,22.455498 L 72.861643,15.872381 L 72.531296,11.823946 L 77.829379,10.898261 L 78.060301,6.6788342 C 78.141272,5.8878644 78.148148,5.2801528 78.111023,4.7835297 L 86.098122,3.3884873 C 85.755466,5.8798422 85.180583,10.536788 85.680739,10.929855 C 86.364302,11.467058 91.428244,11.193327 91.428244,11.193326 L 91.427996,14.718314 z "
         style="fill:black;fill-opacity:1;fill-rule:evenodd;stroke:none;stroke-width:1px;stroke-linecap:butt;stroke-linejoin:miter;stroke-opacity:1"
         sodipodi:nodetypes="ccccccccscc" />
      <path
         sodipodi:nodetypes="ccccccccccc"
         id="path5799"
         d="M 88.287421,14.8543 L 82.564587,20.043941 L 78.912117,17.614536 L 74.93587,15.488781 L 74.85949,12.958276 L 80.127717,12.512163 L 79.915106,5.9696567 L 83.771652,5.1324192 L 83.32331,12.590485 L 89.172111,13.078376 L 88.287421,14.8543 z "
         style="fill:#85c751;fill-opacity:1;fill-rule:evenodd;stroke:none;stroke-width:1px;stroke-linecap:butt;stroke-linejoin:miter;stroke-opacity:1" />
    </g>
    <path
       style="fill:black;fill-opacity:1;fill-rule:evenodd;stroke:none;stroke-width:1px;stroke-linecap:butt;stroke-linejoin:miter;stroke-opacity:1"
       d="M 56.718609,63.963598 L 53.561655,63.963598 L 55.245364,60.81182 L 54.613974,57.965052 L 54.40351,53.237385 L 53.982583,52.017342 L 56.929073,52.017342 L 57.981389,53.669484 L 57.139536,55.677471 L 57.770927,58.270063 L 58.191853,62.438544 L 56.718609,63.963598 z "
       id="path5801" />
    <path
       style="fill:black;fill-opacity:1;fill-rule:evenodd;stroke:none;stroke-width:1px;stroke-linecap:butt;stroke-linejoin:miter;stroke-opacity:1"
       d="M 63.856151,63.759668 L 60.699197,63.759668 L 62.382906,60.60789 L 61.751516,57.761122 L 61.541052,53.033455 L 61.120125,51.813412 L 64.066615,51.813412 L 65.118931,53.465554 L 64.277078,55.473541 L 64.908469,58.066133 L 65.329395,62.234614 L 63.856151,63.759668 z "
       id="path5803" />
    <path
       style="fill:black;fill-opacity:1;fill-rule:evenodd;stroke:none;stroke-width:1px;stroke-linecap:butt;stroke-linejoin:miter;stroke-opacity:1"
       d="M 39.33957,81.636586 L 36.182616,81.636586 L 37.024471,77.502077 L 36.603544,77.031801 L 39.550034,77.031801 L 40.60235,77.668633 L 40.812814,81.048741 L 39.33957,81.636586 z "
       id="path5805"
       sodipodi:nodetypes="cccccccc" />
    <path
       style="fill:black;fill-opacity:1;fill-rule:evenodd;stroke:none;stroke-width:1px;stroke-linecap:butt;stroke-linejoin:miter;stroke-opacity:1"
       d="M 58.020669,78.09886 L 54.863715,78.09886 L 55.70557,73.964351 L 55.284643,73.494075 L 58.231133,73.494075 L 59.283449,74.130907 L 59.493913,77.511015 L 58.020669,78.09886 z "
       id="path5815"
       sodipodi:nodetypes="cccccccc" />
    <path
       style="fill:black;fill-opacity:1;fill-rule:evenodd;stroke:none;stroke-width:1px;stroke-linecap:butt;stroke-linejoin:miter;stroke-opacity:1"
       d="M 64.680701,85.083773 L 61.523747,85.083773 L 62.365602,80.949264 L 61.944675,80.478988 L 64.891165,80.478988 L 65.943481,81.11582 L 66.153945,84.495928 L 64.680701,85.083773 z "
       id="path5817"
       sodipodi:nodetypes="cccccccc" />
    <path
       style="fill:black;fill-opacity:1;fill-rule:evenodd;stroke:none;stroke-width:1px;stroke-linecap:butt;stroke-linejoin:miter;stroke-opacity:1"
       d="M 76.213928,75.337384 L 73.056974,75.337384 L 73.898829,71.202875 L 73.477902,70.732599 L 76.424392,70.732599 L 77.476708,71.369431 L 77.687172,74.749539 L 76.213928,75.337384 z "
       id="path5819"
       sodipodi:nodetypes="cccccccc" />
    <path
       style="fill:black;fill-opacity:1;fill-rule:evenodd;stroke:none;stroke-width:1px;stroke-linecap:butt;stroke-linejoin:miter;stroke-opacity:1"
       d="M 80.762242,80.860337 L 77.605288,80.860337 L 78.447143,76.725828 L 78.026216,76.255552 L 80.972706,76.255552 L 82.025022,76.892384 L 82.235486,80.272492 L 80.762242,80.860337 z "
       id="path5821"
       sodipodi:nodetypes="cccccccc" />
    <path
       style="fill:black;fill-opacity:1;fill-rule:evenodd;stroke:none;stroke-width:1px;stroke-linecap:butt;stroke-linejoin:miter;stroke-opacity:1"
       d="M 84.985677,86.708171 L 81.828723,86.708171 L 82.670578,82.573662 L 82.249651,82.103386 L 85.196141,82.103386 L 86.248457,82.740218 L 86.458921,86.120326 L 84.985677,86.708171 z "
       id="path5823"
       sodipodi:nodetypes="cccccccc" />
  </g>
</svg>
