<?xml version="1.0" encoding="UTF-8" standalone="no"?>
<!-- Created with Inkscape (http://www.inkscape.org/) -->

<svg
   xmlns:dc="http://purl.org/dc/elements/1.1/"
   xmlns:cc="http://creativecommons.org/ns#"
   xmlns:rdf="http://www.w3.org/1999/02/22-rdf-syntax-ns#"
   xmlns:svg="http://www.w3.org/2000/svg"
   xmlns="http://www.w3.org/2000/svg"
   xmlns:sodipodi="http://sodipodi.sourceforge.net/DTD/sodipodi-0.dtd"
   xmlns:inkscape="http://www.inkscape.org/namespaces/inkscape"
   width="640"
   height="512"
   viewBox="0 0 639.99998 512.00002"
   id="svg4301"
   version="1.1"
   inkscape:version="0.92.1 r15371"
   sodipodi:docname="BCDTo7SegmentA_on.svg">
  <defs
     id="defs4303" />
  <sodipodi:namedview
     id="base"
     pagecolor="#ffffff"
     bordercolor="#666666"
     borderopacity="1.0"
     inkscape:pageopacity="0.0"
     inkscape:pageshadow="2"
     inkscape:zoom="0.7"
     inkscape:cx="138.20149"
     inkscape:cy="262.57443"
     inkscape:document-units="px"
     inkscape:current-layer="layer1"
     showgrid="true"
     fit-margin-top="0"
     fit-margin-left="0"
     fit-margin-right="0"
     fit-margin-bottom="0"
     units="px"
     inkscape:window-width="1884"
     inkscape:window-height="1051"
     inkscape:window-x="0"
     inkscape:window-y="0"
     inkscape:window-maximized="1"
     inkscape:lockguides="false">
    <inkscape:grid
       type="xygrid"
       id="grid838"
       empspacing="4" />
  </sodipodi:namedview>
  <metadata
     id="metadata4306">
    <rdf:RDF>
      <cc:Work
         rdf:about="">
        <dc:format>image/svg+xml</dc:format>
        <dc:type
           rdf:resource="http://purl.org/dc/dcmitype/StillImage" />
        <dc:title></dc:title>
        <dc:date>2018</dc:date>
        <dc:creator>
          <cc:Agent>
            <dc:title>Timothée Giet</dc:title>
          </cc:Agent>
        </dc:creator>
        <cc:license
           rdf:resource="http://creativecommons.org/licenses/by-sa/4.0/" />
      </cc:Work>
      <cc:License
         rdf:about="http://creativecommons.org/licenses/by-sa/4.0/">
        <cc:permits
           rdf:resource="http://creativecommons.org/ns#Reproduction" />
        <cc:permits
           rdf:resource="http://creativecommons.org/ns#Distribution" />
        <cc:requires
           rdf:resource="http://creativecommons.org/ns#Notice" />
        <cc:requires
           rdf:resource="http://creativecommons.org/ns#Attribution" />
        <cc:permits
           rdf:resource="http://creativecommons.org/ns#DerivativeWorks" />
        <cc:requires
           rdf:resource="http://creativecommons.org/ns#ShareAlike" />
      </cc:License>
    </rdf:RDF>
  </metadata>
  <g
     inkscape:label="Layer 1"
     inkscape:groupmode="layer"
     id="layer1"
     transform="translate(-245.47253,-175.55486)">
    <path
       inkscape:connector-curvature="0"
       style="opacity:0.98999999;fill:#dff4f5;fill-opacity:1;stroke:#19a8ad;stroke-width:2;stroke-linecap:butt;stroke-linejoin:round;stroke-miterlimit:4;stroke-dasharray:none;stroke-opacity:1"
       d="m 715.87253,209.55486 a 22.4,22.4 0 0 1 -22.4,22.4 22.4,22.4 0 0 1 -22.4,-22.4 22.4,22.4 0 0 1 22.4,-22.4 22.4,22.4 0 0 1 22.4,22.4 z"
       id="path840-6-5-2-8-7-3-6" />
    <g
       aria-label="a"
       style="font-style:normal;font-variant:normal;font-weight:normal;font-stretch:normal;font-size:42.66666794px;line-height:1.25;font-family:'DEC Terminal';-inkscape-font-specification:'DEC Terminal';letter-spacing:0px;word-spacing:0px;fill:#1c5052;fill-opacity:1;stroke:none"
       id="text1339"
       transform="translate(1e-5)">
      <path
         d="m 695.68085,209.47153 q -4.64584,0 -6.4375,1.0625 -1.79167,1.0625 -1.79167,3.625 0,2.04167 1.33333,3.25 1.35417,1.1875 3.66667,1.1875 3.1875,0 5.10417,-2.25 1.9375,-2.27083 1.9375,-6.02083 v -0.85417 z m 7.64583,-1.58333 v 13.3125 h -3.83333 v -3.54167 q -1.3125,2.125 -3.27084,3.14584 -1.95833,1 -4.79166,1 -3.58334,0 -5.70834,-2 -2.10416,-2.02084 -2.10416,-5.39584 0,-3.9375 2.625,-5.9375 2.64583,-2 7.875,-2 h 5.375 v -0.375 q 0,-2.64583 -1.75,-4.08333 -1.72917,-1.45834 -4.875,-1.45834 -2,0 -3.89584,0.47917 -1.89583,0.47917 -3.64583,1.4375 v -3.54167 q 2.10417,-0.8125 4.08333,-1.20833 1.97917,-0.41667 3.85417,-0.41667 5.0625,0 7.5625,2.625 2.5,2.625 2.5,7.95834 z"
         style="fill:#1c5052;fill-opacity:1"
         id="path1454"
         inkscape:connector-curvature="0" />
    </g>
  </g>
</svg>
