<!--Created with Inkscape (http://www.inkscape.org/)--><svg xmlns:dc="http://purl.org/dc/elements/1.1/" xmlns:cc="http://creativecommons.org/ns#" xmlns:rdf="http://www.w3.org/1999/02/22-rdf-syntax-ns#" xmlns="http://www.w3.org/2000/svg" xmlns:sodipodi="http://sodipodi.sourceforge.net/DTD/sodipodi-0.dtd" xmlns:inkscape="http://www.inkscape.org/namespaces/inkscape" width="640" height="512" viewBox="0 0 639.99998 512.00002" inkscape:version="0.92.1 r15371" sodipodi:docname="BCDTo7SegmentB_on.svg"><sodipodi:namedview pagecolor="#ffffff" bordercolor="#666666" borderopacity="1.0" inkscape:pageopacity="0.0" inkscape:pageshadow="2" inkscape:zoom="0.7" inkscape:cx="138.20149" inkscape:cy="262.57443" inkscape:document-units="px" inkscape:current-layer="layer1" showgrid="true" fit-margin-top="0" fit-margin-left="0" fit-margin-right="0" fit-margin-bottom="0" units="px" inkscape:window-width="1884" inkscape:window-height="1051" inkscape:window-x="0" inkscape:window-y="0" inkscape:window-maximized="1" inkscape:lockguides="false"><inkscape:grid type="xygrid" empspacing="4"/></sodipodi:namedview><metadata><rdf:RDF><cc:Work><dc:format>image/svg+xml</dc:format><dc:type rdf:resource="http://purl.org/dc/dcmitype/StillImage"/><dc:title/><dc:date>2018</dc:date><dc:creator><cc:Agent><dc:title>Timothée Giet</dc:title></cc:Agent></dc:creator><cc:license rdf:resource="http://creativecommons.org/licenses/by-sa/4.0/"/></cc:Work><cc:License rdf:about="http://creativecommons.org/licenses/by-sa/4.0/"><cc:permits rdf:resource="http://creativecommons.org/ns#Reproduction"/><cc:permits rdf:resource="http://creativecommons.org/ns#Distribution"/><cc:requires rdf:resource="http://creativecommons.org/ns#Notice"/><cc:requires rdf:resource="http://creativecommons.org/ns#Attribution"/><cc:permits rdf:resource="http://creativecommons.org/ns#DerivativeWorks"/><cc:requires rdf:resource="http://creativecommons.org/ns#ShareAlike"/></cc:License></rdf:RDF></metadata><g inkscape:label="Layer 1" inkscape:groupmode="layer"><path inkscape:connector-curvature="0" style="opacity:.98999999;fill:#dff4f5;fill-opacity:1;stroke:#19a8ad;stroke-width:2;stroke-linecap:butt;stroke-linejoin:round;stroke-miterlimit:4;stroke-dasharray:none;stroke-opacity:1" d="M715.873 283.555a22.4 22.4 0 0 1-22.4 22.4 22.4 22.4 0 0 1-22.4-22.4 22.4 22.4 0 0 1 22.4-22.4 22.4 22.4 0 0 1 22.4 22.4z" transform="translate(-245.473 -175.555)"/><g style="font-style:normal;font-variant:normal;font-weight:400;font-stretch:normal;font-size:42.66666794px;line-height:1.25;font-family:'DEC Terminal';-inkscape-font-specification:'DEC Terminal';letter-spacing:0;word-spacing:0;fill:#1c5052;fill-opacity:1;stroke:none"><path d="M699.93 287.815q0-4.229-1.75-6.625-1.728-2.416-4.77-2.416t-4.792 2.416q-1.729 2.396-1.729 6.625 0 4.23 1.73 6.646 1.75 2.396 4.791 2.396 3.042 0 4.77-2.396 1.75-2.417 1.75-6.646zm-13.04-8.146q1.208-2.083 3.04-3.083 1.855-1.02 4.418-1.02 4.25 0 6.895 3.374 2.667 3.375 2.667 8.875t-2.667 8.875q-2.645 3.375-6.895 3.375-2.563 0-4.417-1-1.833-1.02-3.042-3.104v3.5h-3.854v-32.417h3.854z" style="fill:#1c5052;fill-opacity:1" inkscape:connector-curvature="0" transform="translate(-245.473 -175.555)" aria-label="b"/></g></g></svg>