<!--Created with Inkscape (http://www.inkscape.org/)--><svg xmlns:dc="http://purl.org/dc/elements/1.1/" xmlns:cc="http://creativecommons.org/ns#" xmlns:rdf="http://www.w3.org/1999/02/22-rdf-syntax-ns#" xmlns="http://www.w3.org/2000/svg" xmlns:sodipodi="http://sodipodi.sourceforge.net/DTD/sodipodi-0.dtd" xmlns:inkscape="http://www.inkscape.org/namespaces/inkscape" sodipodi:docname="info.svg" viewBox="0 0 256 255.99999" sodipodi:version="0.32" version="1.0" inkscape:output_extension="org.inkscape.output.svg.inkscape" inkscape:version="0.92.1 r15371" width="256" height="256"><defs><linearGradient id="a"><stop style="stop-color:#08f" offset="0"/><stop style="stop-color:#1e2862" offset="1"/></linearGradient></defs><sodipodi:namedview bordercolor="#666666" inkscape:pageshadow="2" inkscape:window-y="0" pagecolor="#ababab" inkscape:window-height="1051" inkscape:zoom="1.979899" inkscape:window-x="0" borderopacity="1.0" inkscape:current-layer="REPEAT" inkscape:cx="39.213411" inkscape:cy="118.99486" inkscape:window-width="1884" inkscape:pageopacity="0" inkscape:document-units="px" showgrid="true" inkscape:window-maximized="1" fit-margin-top="0" fit-margin-left="0" fit-margin-right="0" fit-margin-bottom="0"><inkscape:grid type="xygrid" empspacing="4"/></sodipodi:namedview><g style="display:inline;fill:#7696a6;fill-opacity:1;stroke:#fff;stroke-width:2;stroke-miterlimit:4;stroke-dasharray:none;stroke-opacity:1" inkscape:label="Calque 1" inkscape:groupmode="layer"><path style="opacity:1;fill:#f2f2f2;fill-opacity:1;stroke:none;stroke-width:10;stroke-linecap:butt;stroke-linejoin:round;stroke-miterlimit:4;stroke-dasharray:none;stroke-opacity:1" d="M128 8A120 120 0 0 0 8 128a120 120 0 0 0 120 120 120 120 0 0 0 120-120A120 120 0 0 0 128 8zm0 16a104 104 0 0 1 104 104 104 104 0 0 1-104 104A104 104 0 0 1 24 128 104 104 0 0 1 128 24z"/><path style="text-indent:0;text-transform:none;fill:#16b4f3;fill-rule:evenodd;stroke:none;stroke-width:2.84960413;stroke-linecap:round;stroke-linejoin:round;fill-opacity:1" d="M565.865 364.623c-3.483-.158-6.5 3.586-5.416 6.948.762 2.73 4.517 3.49 6.616 1.823 2.19-1.418 3.349-4.523 1.986-6.884-.631-1.126-1.899-1.866-3.186-1.887zm-1.906 10.752c-3.604.534-6.51 2.935-9.463 4.875-1.7 1.471-.716 4.636 1.505 4.92.849.46 2.535-1.362 1.813.227-1.201 4.333-2.848 8.576-3.464 13.047-.158 2.196 1.528 4.52 3.852 4.486 2.63.106 4.633-1.878 6.757-3.113 1.089-.785 2.31-1.542 3.019-2.71.992-2.031-1.308-4.682-3.456-3.784-1.403 1.05-.086-1.405-.077-2.206.88-3.968 2.475-7.773 2.922-11.832.14-1.644-.88-3.386-2.584-3.7a1.45 1.45 0 0 0-.824-.21z" inkscape:connector-curvature="0" transform="translate(-1982.38 -1314.068) scale(3.75757)"/><path style="text-indent:0;text-transform:none;fill:#f2f2f2;fill-opacity:1;fill-rule:evenodd;stroke:none;stroke-width:2.84960413;stroke-linecap:round;stroke-linejoin:round" d="M565.68 365.512c-2.386.16-4.513 2.229-4.548 4.656-.156 1.857 1.63 3.459 3.45 3.2 2.787-.299 5.13-3.607 3.802-6.26-.509-.975-1.681-1.43-2.704-1.596zm-1.686 10.757c-2.023.093-3.703 1.407-5.423 2.342-1.288.832-2.647 1.595-3.815 2.587-.663.837-.043 1.884.38 2.672.678.884 1.89.473 2.585-.155.63-.302 2.065-1.615 1.508-.142-1.06 3.923-2.27 7.807-3.381 11.717-.452 1.733-1.037 3.729-.048 5.393 1.026 1.702 3.441 1.696 4.968.713a45.122 45.122 0 0 0 6.247-4.24c.742-.79.127-1.797-.307-2.56-.514-.853-1.743-.802-2.386-.13-.722.393-2.526 2.075-1.87.297 1.187-4.566 2.563-9.081 3.798-13.633.35-1.538.528-3.708-1.105-4.583a2.604 2.604 0 0 0-1.15-.278z" inkscape:connector-curvature="0" transform="translate(-1982.38 -1314.068) scale(3.75757)"/></g><metadata><rdf:RDF><cc:Work><dc:format>image/svg+xml</dc:format><dc:type rdf:resource="http://purl.org/dc/dcmitype/StillImage"/><cc:license rdf:resource="http://creativecommons.org/licenses/by-sa/4.0/"/><dc:publisher><cc:Agent rdf:about="http://openclipart.org/"><dc:title/></cc:Agent></dc:publisher><dc:title/><dc:date>2018</dc:date><dc:description/><dc:source/><dc:creator><cc:Agent><dc:title>Timothée Giet</dc:title></cc:Agent></dc:creator><dc:subject><rdf:Bag/></dc:subject></cc:Work><cc:License rdf:about="http://creativecommons.org/licenses/by-sa/4.0/"><cc:permits rdf:resource="http://creativecommons.org/ns#Reproduction"/><cc:permits rdf:resource="http://creativecommons.org/ns#Distribution"/><cc:requires rdf:resource="http://creativecommons.org/ns#Notice"/><cc:requires rdf:resource="http://creativecommons.org/ns#Attribution"/><cc:permits rdf:resource="http://creativecommons.org/ns#DerivativeWorks"/><cc:requires rdf:resource="http://creativecommons.org/ns#ShareAlike"/></cc:License></rdf:RDF></metadata></svg>