<?xml version="1.0" encoding="UTF-8" standalone="no"?>
<!-- Created with Inkscape (http://www.inkscape.org/) -->

<svg
   xmlns:osb="http://www.openswatchbook.org/uri/2009/osb"
   xmlns:dc="http://purl.org/dc/elements/1.1/"
   xmlns:cc="http://creativecommons.org/ns#"
   xmlns:rdf="http://www.w3.org/1999/02/22-rdf-syntax-ns#"
   xmlns:svg="http://www.w3.org/2000/svg"
   xmlns="http://www.w3.org/2000/svg"
   xmlns:xlink="http://www.w3.org/1999/xlink"
   xmlns:sodipodi="http://sodipodi.sourceforge.net/DTD/sodipodi-0.dtd"
   xmlns:inkscape="http://www.inkscape.org/namespaces/inkscape"
   width="66.000099"
   height="66.000153"
   id="svg4211"
   version="1.1"
   inkscape:version="0.91 r13725"
   sodipodi:docname="rotateLeft.svg">
  <defs
     id="defs4213">
    <linearGradient
       id="linearGradient4172"
       osb:paint="gradient">
      <stop
         style="stop-color:#ffffff;stop-opacity:1;"
         offset="0"
         id="stop4174" />
      <stop
         style="stop-color:#ffffff;stop-opacity:0;"
         offset="1"
         id="stop4176" />
    </linearGradient>
    <radialGradient
       inkscape:collect="always"
       xlink:href="#linearGradient4172"
       id="radialGradient4213"
       cx="498.86508"
       cy="382.34128"
       fx="498.86508"
       fy="382.34128"
       r="22.7815"
       gradientTransform="matrix(1,0,0,1.1791928,0,-68.512788)"
       gradientUnits="userSpaceOnUse" />
    <radialGradient
       id="radialGradient3329-5"
       gradientUnits="userSpaceOnUse"
       cy="603.29999"
       cx="359.85999"
       gradientTransform="matrix(1.9874,-0.32079,0.19084,1.1823,-313.86937,-138.03355)"
       r="287.14001"
       inkscape:collect="always">
      <stop
         id="stop3321-2"
         style="stop-color:#ffffff"
         offset="0" />
      <stop
         id="stop3323-5"
         style="stop-color:#ffffff;stop-opacity:0"
         offset="1" />
    </radialGradient>
    <filter
       id="filter3493-3"
       inkscape:collect="always"
       style="color-interpolation-filters:sRGB">
      <feGaussianBlur
         id="feGaussianBlur3495-0"
         stdDeviation="7.2323951"
         inkscape:collect="always" />
    </filter>
  </defs>
  <sodipodi:namedview
     id="base"
     pagecolor="#8b8b8b"
     bordercolor="#666666"
     borderopacity="1.0"
     inkscape:pageopacity="0"
     inkscape:pageshadow="2"
     inkscape:zoom="3.959798"
     inkscape:cx="-7.9174808"
     inkscape:cy="37.862487"
     inkscape:document-units="px"
     inkscape:current-layer="layer1"
     showgrid="false"
     fit-margin-top="0"
     fit-margin-left="0"
     fit-margin-right="0"
     fit-margin-bottom="0"
     inkscape:window-width="1366"
     inkscape:window-height="705"
     inkscape:window-x="-8"
     inkscape:window-y="-8"
     inkscape:window-maximized="1" />
  <metadata
     id="metadata4216">
    <rdf:RDF>
      <cc:Work
         rdf:about="">
        <dc:format>image/svg+xml</dc:format>
        <dc:type
           rdf:resource="http://purl.org/dc/dcmitype/StillImage" />
        <dc:title />
      </cc:Work>
    </rdf:RDF>
  </metadata>
  <g
     inkscape:label="Calque 1"
     inkscape:groupmode="layer"
     id="layer1"
     transform="translate(-517.27846,-372.40359)">
    <g
       id="g4881">
      <g
         transform="translate(-11.355794,21.617446)"
         id="REPEAT"
         style="display:inline;fill:#7696a6;fill-opacity:1;stroke:#ffffff;stroke-width:2;stroke-miterlimit:4;stroke-dasharray:none;stroke-opacity:1">
        <path
           sodipodi:nodetypes="sssss"
           inkscape:connector-curvature="0"
           style="fill:#7696a6;fill-opacity:1;stroke:#ffffff;stroke-width:2;stroke-linecap:round;stroke-miterlimit:4;stroke-dasharray:none;stroke-opacity:1"
           d="m 561.63735,351.78614 c -17.6638,0 -32.0031,14.33935 -32.0031,32.00314 0,17.66381 14.3393,31.99701 32.0031,31.99701 17.6638,0 31.997,-14.3332 31.997,-31.99701 0,-17.66379 -14.3332,-32.00314 -31.997,-32.00314 z"
           id="path5480" />
      </g>
      <g
         transform="translate(51.413425,23.062385)"
         id="g4215">
        <path
           inkscape:connector-curvature="0"
           id="path1091-3"
           style="color:#000000;fill:#9b57a0;fill-opacity:1;fill-rule:evenodd;stroke:#9b57a0;stroke-width:3.125;stroke-linecap:round;stroke-linejoin:round"
           d="m 497.89607,357.01855 -13.59299,13.468 13.59299,13.438 0,-8.375 c 0.33001,-0.043 0.62301,-0.188 0.96901,-0.188 6.092,0 11.03099,4.97001 11.03099,11.063 0,6.092 -4.93899,11.031 -11.03099,11.031 -6.042,0 -10.92,-4.88299 -11,-10.906 l -10.219,0 c 0.0778,11.652 9.54799,21.09301 21.219,21.09301 11.719,0 21.219,-9.5 21.219,-21.21801 0,-11.719 -9.5,-21.25 -21.219,-21.25 -0.33001,0 -0.644,0.075 -0.96901,0.094 l 0,-8.2505 z" />
        <path
           inkscape:connector-curvature="0"
           id="path1091"
           style="color:#000000;fill:url(#radialGradient4213);fill-opacity:1;fill-rule:evenodd;stroke:#9b57a0;stroke-width:3.125;stroke-linecap:round;stroke-linejoin:round"
           d="m 497.89608,357.01855 -13.593,13.468 13.593,13.438 0,-8.375 c 0.33,-0.043 0.623,-0.188 0.969,-0.188 6.092,0 11.031,4.97 11.031,11.063 0,6.092 -4.939,11.031 -11.031,11.031 -6.042,0 -10.92,-4.883 -11,-10.906 l -10.219,0 c 0.0778,11.652 9.548,21.093 21.219,21.093 11.719,0 21.219,-9.5 21.219,-21.218 0,-11.719 -9.5,-21.25 -21.219,-21.25 -0.33,0 -0.644,0.075 -0.969,0.094 l 0,-8.2505 z" />
      </g>
    </g>
    <path
       id="path7876"
       style="opacity:0.117;fill:url(#radialGradient3329-5);filter:url(#filter3493-3)"
       sodipodi:nodetypes="ccccssscc"
       d="m 845.71059,467.20245 c -165.90996,17.727 -216.68996,-24.732 -349.57996,51.053 -61.601,35.13 -119.16,47.249 -151.33,49.463 -13.737,-37.152 -21.594,-20.547 -33.986,-14.715 -8.605,-18.603 -12.755,-47.497 -12.755,-89.051 0,-158.5 128.64,-287.14 287.14,-287.14 105.1,0 197.05996,56.556 247.10996,140.87 21.814,36.754 35.662,78.782 39.16,123.7 -9.4152,-2.0579 -27.069,-8.7004 -25.759,25.82 z"
       inkscape:connector-curvature="0"
       transform="matrix(0.09591741,0,0,0.09591741,493.2617,360.52313)" />
  </g>
</svg>
