<!--Created with Inkscape (http://www.inkscape.org/)--><svg xmlns:dc="http://purl.org/dc/elements/1.1/" xmlns:cc="http://creativecommons.org/ns#" xmlns:rdf="http://www.w3.org/1999/02/22-rdf-syntax-ns#" xmlns="http://www.w3.org/2000/svg" xmlns:sodipodi="http://sodipodi.sourceforge.net/DTD/sodipodi-0.dtd" xmlns:inkscape="http://www.inkscape.org/namespaces/inkscape" sodipodi:docname="zoomOut.svg" viewBox="0 0 256 255.99999" sodipodi:version="0.32" version="1.0" inkscape:output_extension="org.inkscape.output.svg.inkscape" inkscape:version="0.92.1 r15371" width="256" height="256"><sodipodi:namedview bordercolor="#666666" inkscape:pageshadow="2" inkscape:window-y="0" pagecolor="#ababab" inkscape:window-height="1051" inkscape:zoom="1.979899" inkscape:window-x="0" borderopacity="1.0" inkscape:current-layer="REPEAT" inkscape:cx="17.242591" inkscape:cy="89.19536" inkscape:window-width="1884" inkscape:pageopacity="0" inkscape:document-units="px" showgrid="true" inkscape:window-maximized="1" fit-margin-top="0" fit-margin-left="0" fit-margin-right="0" fit-margin-bottom="0"><inkscape:grid type="xygrid" empspacing="4"/></sodipodi:namedview><g style="display:inline;fill:#7696a6;fill-opacity:1;stroke:#fff;stroke-width:2;stroke-miterlimit:4;stroke-dasharray:none;stroke-opacity:1" inkscape:label="Calque 1" inkscape:groupmode="layer"><path style="opacity:1;fill:#f2f2f2;fill-opacity:1;stroke:none;stroke-width:10;stroke-linecap:butt;stroke-linejoin:round;stroke-miterlimit:4;stroke-dasharray:none;stroke-opacity:1" d="M128 8A120 120 0 0 0 8 128a120 120 0 0 0 120 120 120 120 0 0 0 120-120A120 120 0 0 0 128 8zm0 16a104 104 0 0 1 104 104 104 104 0 0 1-104 104A104 104 0 0 1 24 128 104 104 0 0 1 128 24z"/><path d="M544.602 366.744v14.904h2.13v-12.775h29.806v29.807h-12.775v2.129h14.904v-34.065H546.73zm24.043 8.517-7.01 7.01v-4.881h-2.13v8.516h8.516v-2.13h-4.881l7.01-7.01zm-24.043 12.774v4.258h2.13v-2.13h2.128v-2.128zm8.516 0v2.129h2.13v2.129h2.128v-4.258zm-8.516 8.516v4.258h4.258v-2.13h-2.129v-2.128zm10.645 0v2.129h-2.129v2.129h4.258v-4.258z" style="color:#f2f2f2;fill:#f2f2f2;fill-opacity:1;stroke:none;stroke-width:4.2580719" inkscape:connector-curvature="0" transform="translate(-1982.38 -1314.068) scale(3.75757)"/></g><metadata><rdf:RDF><cc:Work><dc:format>image/svg+xml</dc:format><dc:type rdf:resource="http://purl.org/dc/dcmitype/StillImage"/><cc:license rdf:resource="http://creativecommons.org/licenses/by-sa/4.0/"/><dc:publisher><cc:Agent rdf:about="http://openclipart.org/"><dc:title/></cc:Agent></dc:publisher><dc:title/><dc:date>2018</dc:date><dc:description/><dc:source/><dc:creator><cc:Agent><dc:title>Timothée Giet</dc:title></cc:Agent></dc:creator><dc:subject><rdf:Bag/></dc:subject></cc:Work><cc:License rdf:about="http://creativecommons.org/licenses/by-sa/4.0/"><cc:permits rdf:resource="http://creativecommons.org/ns#Reproduction"/><cc:permits rdf:resource="http://creativecommons.org/ns#Distribution"/><cc:requires rdf:resource="http://creativecommons.org/ns#Notice"/><cc:requires rdf:resource="http://creativecommons.org/ns#Attribution"/><cc:permits rdf:resource="http://creativecommons.org/ns#DerivativeWorks"/><cc:requires rdf:resource="http://creativecommons.org/ns#ShareAlike"/></cc:License></rdf:RDF></metadata></svg>