<?xml version="1.0" encoding="UTF-8" standalone="no"?>
<!-- Created with Inkscape (http://www.inkscape.org/) -->

<svg
   xmlns:dc="http://purl.org/dc/elements/1.1/"
   xmlns:cc="http://creativecommons.org/ns#"
   xmlns:rdf="http://www.w3.org/1999/02/22-rdf-syntax-ns#"
   xmlns:svg="http://www.w3.org/2000/svg"
   xmlns="http://www.w3.org/2000/svg"
   xmlns:sodipodi="http://sodipodi.sourceforge.net/DTD/sodipodi-0.dtd"
   xmlns:inkscape="http://www.inkscape.org/namespaces/inkscape"
   width="100"
   height="100"
   id="svg2"
   sodipodi:version="0.32"
   inkscape:version="0.48.4 r9939"
   version="1.0"
   sodipodi:docname="computer-part.svg">
  <defs
     id="defs4">
    <radialGradient
       id="radialGradient9034"
       gradientUnits="userSpaceOnUse"
       cy="351.14999"
       cx="354.57999"
       gradientTransform="matrix(0.45211,-0.77903,0.68681,0.39859,-53.859,485.41)"
       r="15.805"
       inkscape:collect="always">
      <stop
         id="stop8732"
         style="stop-color:#f8f8f9"
         offset="0" />
      <stop
         id="stop8734"
         style="stop-color:#bab9bc"
         offset="1" />
    </radialGradient>
    <linearGradient
       id="linearGradient9036"
       y2="647.07001"
       gradientUnits="userSpaceOnUse"
       x2="567.95001"
       gradientTransform="translate(-1.0082,-0.84017)"
       y1="610.77002"
       x1="514.84998"
       inkscape:collect="always">
      <stop
         id="stop8821"
         style="stop-color:#ffffff;stop-opacity:.26804"
         offset="0" />
      <stop
         id="stop8823"
         style="stop-color:#ffffff;stop-opacity:0"
         offset="1" />
    </linearGradient>
    <linearGradient
       id="linearGradient8849"
       y2="426.95001"
       gradientUnits="userSpaceOnUse"
       x2="203.89"
       gradientTransform="matrix(0.60324,0,0,0.60324,-303.34,337.1)"
       y1="270.07001"
       x1="203.89"
       inkscape:collect="always">
      <stop
         id="stop8845"
         style="stop-color:#ededec"
         offset="0" />
      <stop
         id="stop8847"
         style="stop-color:#d7d7d7"
         offset="1" />
    </linearGradient>
    <linearGradient
       id="linearGradient8833"
       y2="235.37"
       gradientUnits="userSpaceOnUse"
       x2="294.19"
       gradientTransform="matrix(0.60324,0,0,0.60324,-303.34,337.1)"
       y1="244.88"
       x1="231.46001"
       inkscape:collect="always">
      <stop
         id="stop8829"
         style="stop-color:#e6e6e5"
         offset="0" />
      <stop
         id="stop8831"
         style="stop-color:#c3c3c0"
         offset="1" />
    </linearGradient>
    <linearGradient
       id="linearGradient8869"
       y2="401.07001"
       gradientUnits="userSpaceOnUse"
       x2="350.89001"
       gradientTransform="matrix(0.60324,0,0,0.60324,-303.34,337.1)"
       y1="283.44"
       x1="240.62"
       inkscape:collect="always">
      <stop
         id="stop8865"
         style="stop-color:#c1c1c1"
         offset="0" />
      <stop
         id="stop8867"
         style="stop-color:#929292"
         offset="1" />
    </linearGradient>
    <linearGradient
       id="linearGradient49897"
       y2="388.07999"
       gradientUnits="userSpaceOnUse"
       x2="359.98999"
       y1="382.51001"
       x1="360.98999"
       inkscape:collect="always">
      <stop
         id="stop7450"
         style="stop-color:#853095"
         offset="0" />
      <stop
         id="stop7452"
         style="stop-color:#589530"
         offset="1" />
    </linearGradient>
    <radialGradient
       id="radialGradient9127"
       gradientUnits="userSpaceOnUse"
       cy="477.42999"
       cx="387.67999"
       gradientTransform="matrix(0.65505,0.049334,-0.026458,0.35131,-298.14,425.98)"
       r="108.64"
       inkscape:collect="always">
      <stop
         id="stop8761"
         style="stop-color:#e7e7e7"
         offset="0" />
      <stop
         id="stop8763"
         style="stop-color:#a7a7aa"
         offset="1" />
    </radialGradient>
    <linearGradient
       id="linearGradient8742"
       y2="438.64001"
       gradientUnits="userSpaceOnUse"
       x2="500.07999"
       gradientTransform="matrix(0.60324,0,0,0.60324,-303.34,337.1)"
       y1="437.04001"
       x1="436.26999"
       inkscape:collect="always">
      <stop
         id="stop8738"
         style="stop-color:#d6d6d6"
         offset="0" />
      <stop
         id="stop8744"
         style="stop-color:#939393"
         offset="0.76" />
      <stop
         id="stop8740"
         style="stop-color:#797979"
         offset="1" />
    </linearGradient>
    <linearGradient
       id="linearGradient4092"
       y2="330.26999"
       gradientUnits="userSpaceOnUse"
       x2="412.98001"
       gradientTransform="matrix(3.6547,0,0,3.6547,-1597.8,-758.6)"
       y1="368.60001"
       x1="452.03"
       inkscape:collect="always">
      <stop
         id="stop3866"
         style="stop-color:#4054cf"
         offset="0" />
      <stop
         id="stop3868"
         style="stop-color:#bbc3f6"
         offset="1" />
    </linearGradient>
    <linearGradient
       id="linearGradient8712"
       y2="446.10001"
       gradientUnits="userSpaceOnUse"
       x2="604.25"
       gradientTransform="matrix(0.60324,0,0,0.60324,-303.34,337.1)"
       y1="144.98"
       x1="319.26001"
       inkscape:collect="always">
      <stop
         id="stop8708"
         style="stop-color:#d4d4d3"
         offset="0" />
      <stop
         id="stop8710"
         style="stop-color:#a7a7a7"
         offset="1" />
    </linearGradient>
    <linearGradient
       id="linearGradient49905"
       y2="388.07999"
       gradientUnits="userSpaceOnUse"
       x2="359.98999"
       y1="382.51001"
       x1="360.98999"
       inkscape:collect="always">
      <stop
         id="stop6151"
         style="stop-color:#853095"
         offset="0" />
      <stop
         id="stop6153"
         style="stop-color:#a43921"
         offset="1" />
    </linearGradient>
    <linearGradient
       id="linearGradient8781"
       y2="232.16"
       gradientUnits="userSpaceOnUse"
       x2="613.75"
       y1="225.09"
       x1="587.85999"
       inkscape:collect="always">
      <stop
         id="stop8777"
         style="stop-color:#ececec"
         offset="0" />
      <stop
         id="stop8779"
         style="stop-color:#a3a3a3"
         offset="1" />
    </linearGradient>
  </defs>
  <sodipodi:namedview
     id="base"
     pagecolor="#ffffff"
     bordercolor="#666666"
     borderopacity="1.0"
     inkscape:pageopacity="0.0"
     inkscape:pageshadow="2"
     inkscape:zoom="1.7708789"
     inkscape:cx="-15.825754"
     inkscape:cy="7.6409961"
     inkscape:document-units="px"
     inkscape:current-layer="layer1"
     width="100px"
     height="100px"
     showguides="true"
     inkscape:guide-bbox="true"
     inkscape:window-width="1366"
     inkscape:window-height="695"
     inkscape:window-x="-2"
     inkscape:window-y="-3"
     showgrid="false"
     inkscape:window-maximized="1" />
  <metadata
     id="metadata7">
    <rdf:RDF>
      <cc:Work
         rdf:about="">
        <dc:format>image/svg+xml</dc:format>
        <dc:type
           rdf:resource="http://purl.org/dc/dcmitype/StillImage" />
      </cc:Work>
    </rdf:RDF>
  </metadata>
  <g
     inkscape:label="Calque 1"
     inkscape:groupmode="layer"
     id="layer1">
    <path
       inkscape:connector-curvature="0"
       id="path8999"
       style="fill:#000000"
       d="m 37.020319,69.056525 c 0.04843,-0.0243 0.0922,-0.06213 0.138301,-0.09454 -2.335021,1.790964 -0.866696,0.651013 -0.599313,0.432208 0.159051,-0.124264 0.318103,-0.253921 0.474848,-0.380882 0.16135,-0.132364 0.318094,-0.270141 0.477137,-0.405201 0.159053,-0.135061 0.308883,-0.280937 0.458713,-0.426805 0.152138,-0.14317 0.295046,-0.299844 0.44027,-0.453821 0.142909,-0.156682 0.28121,-0.324153 0.419521,-0.48624 0.140609,-0.162076 0.276603,-0.332262 0.410299,-0.499743 0.135766,-0.170186 0.264157,-0.345766 0.393473,-0.521346 0.12263,-0.17559 0.246641,-0.345776 0.370887,-0.518659 0.119633,-0.164783 0.230961,-0.337666 0.343679,-0.507843 0.108112,-0.167479 0.215524,-0.337665 0.323173,-0.505146 0.10903,-0.16748 0.203769,-0.345767 0.301042,-0.521356 0.102807,-0.180992 0.198236,-0.370085 0.295046,-0.556471 0.10119,-0.19179 0.199162,-0.386286 0.298044,-0.580781 0.10119,-0.197194 0.198472,-0.397093 0.29689,-0.596992 0.09935,-0.205302 0.207693,-0.407898 0.315106,-0.610494 0.111565,-0.205302 0.232813,-0.405201 0.351755,-0.607797 0.121939,-0.199899 0.249176,-0.394395 0.375258,-0.591588 0.13047,-0.202596 0.268309,-0.397092 0.404539,-0.591588 0.13623,-0.194495 0.271079,-0.391688 0.406383,-0.586185 0.133923,-0.199898 0.267155,-0.399797 0.40085,-0.602393 0.131388,-0.197193 0.266464,-0.391689 0.401078,-0.588882 0.130697,-0.189093 0.26163,-0.380891 0.392555,-0.572681 0.135077,-0.199899 0.278221,-0.391689 0.419521,-0.583488 0.149603,-0.202596 0.304503,-0.399789 0.460321,-0.596991 0.17565,-0.218805 0.368816,-0.415998 0.561283,-0.615897 0.202615,-0.205303 0.413988,-0.397092 0.626287,-0.58889 0.240881,-0.2161 0.495824,-0.410596 0.750297,-0.605091 0.576728,-0.448418 1.168437,-0.869819 1.762681,-1.285818 0.276612,-0.191799 0.552061,-0.386295 0.828901,-0.578085 0.272225,-0.183689 0.54423,-0.370076 0.817146,-0.553765 0.282371,-0.191799 0.569813,-0.372782 0.85771,-0.553775 0.330087,-0.210705 0.675846,-0.386286 1.020914,-0.559169 0.372041,-0.191799 0.742002,-0.386285 1.112418,-0.580781 0.360976,-0.189093 0.720798,-0.378185 1.080157,-0.569984 0.337691,-0.180984 0.673311,-0.367379 1.007776,-0.556463 0.317177,-0.178286 0.626287,-0.375489 0.934697,-0.572681 -0.181637,0.170177 0.795251,-0.569984 0.599087,-0.421401 -0.260704,0.194486 -0.5214,0.388982 -0.781877,0.583478 0.04791,-0.03783 0.09566,-0.07566 0.143607,-0.113457 0.305185,-0.229612 0.574883,-0.513247 0.843655,-0.796891 0.287206,-0.291734 0.528777,-0.634804 0.764589,-0.983276 0.252863,-0.386286 0.420901,-0.826602 0.584331,-1.269617 0.16712,-0.491634 0.241109,-1.012989 0.313944,-1.531639 0.06821,-0.548371 0.06636,-1.09944 0.03318,-1.647802 -0.03755,-0.569985 -0.1685,-1.121044 -0.331922,-1.658609 -0.171044,-0.556472 -0.419756,-1.069718 -0.681842,-1.572168 -0.254245,-0.478129 -0.531085,-0.94005 -0.833971,-1.377661 -0.280528,-0.429511 -0.641958,-0.737465 -1.019532,-1.031906 -0.447874,-0.299843 -0.951068,-0.424107 -1.453798,-0.515952 -0.637353,-0.105348 -1.281619,-0.08914 -1.922423,-0.0486 -0.728866,0.0567 -1.451037,0.189092 -2.171834,0.318759 -0.731392,0.124263 -1.449883,0.321456 -2.156845,0.569975 -0.748454,0.264728 -1.453108,0.659122 -2.142554,1.085927 0.797322,-0.705035 -2.551017,1.788276 -1.381881,0.97248 0.502503,-0.35117 0.833045,-0.634813 0.21806,-0.129668 -0.663863,0.559169 -1.306512,1.153463 -1.943401,1.753151 -0.63389,0.599697 -1.246349,1.229098 -1.856265,1.861205 -0.578808,0.6051 -1.152302,1.218291 -1.724878,1.831492 -0.359822,0.388992 -0.181174,0.194495 -0.536618,0.583487 l -0.980112,0.524053 c 0.357287,-0.388992 0.177486,-0.194495 0.53938,-0.583487 0.573965,-0.615898 1.149539,-1.229098 1.729256,-1.836887 0.609697,-0.634813 1.221912,-1.264223 1.854657,-1.866607 0.636198,-0.602394 1.279311,-1.196689 1.940865,-1.76126 0.945763,-0.786084 1.933017,-1.512742 2.947943,-2.171855 0.694971,-0.421411 1.406084,-0.810393 2.159607,-1.069718 0.710886,-0.245822 1.432829,-0.434914 2.166529,-0.556472 0.72425,-0.132364 1.449891,-0.262031 2.181974,-0.313356 0.649335,-0.03783 1.302131,-0.05403 1.947316,0.05946 0.515875,0.09994 1.031052,0.235006 1.487457,0.548363 0.393928,0.291743 0.747991,0.640215 1.039811,1.069718 0.304504,0.443014 0.582715,0.910347 0.838813,1.39388 0.265547,0.51055 0.518176,1.031896 0.693842,1.596477 0.169149,0.545665 0.306347,1.104834 0.348621,1.685616 0.03722,0.556472 0.04632,1.115641 -0.01954,1.669414 -0.06182,0.529457 -0.145106,1.053509 -0.299223,1.558656 -0.15762,0.451123 -0.320773,0.902238 -0.56856,1.299339 -0.230514,0.356572 -0.465625,0.707742 -0.753757,1.00488 -0.266011,0.28634 -0.532012,0.578084 -0.833745,0.813099 -0.602075,0.45382 -1.194255,0.929254 -1.82146,1.334446 -0.309337,0.197193 -0.619373,0.388991 -0.936777,0.567278 -0.334693,0.186387 -0.670077,0.372782 -1.007768,0.553766 -0.359132,0.189093 -0.718718,0.378185 -1.079004,0.564581 -0.371115,0.194487 -0.741539,0.391688 -1.114498,0.580781 -0.344378,0.178286 -0.68852,0.35927 -1.018144,0.572681 -0.287905,0.180984 -0.57511,0.364673 -0.858173,0.55917 -0.272233,0.183688 -0.54423,0.370075 -0.815991,0.55647 -0.27615,0.191791 -0.551608,0.383589 -0.827975,0.575379 -0.387949,0.275534 -1.554542,1.112943 0.09957,-0.102651 -0.253782,0.191789 -0.508263,0.380882 -0.749144,0.594293 -0.212989,0.189084 -0.425979,0.378177 -0.628358,0.583479 -0.193166,0.19179 -0.38587,0.386286 -0.563591,0.599689 -0.156517,0.194495 -0.312107,0.388991 -0.461474,0.591596 -0.141528,0.19179 -0.284444,0.380882 -0.419975,0.578075 -0.131161,0.19179 -0.262549,0.380883 -0.392792,0.572681 -0.135076,0.197194 -0.27038,0.391689 -0.402458,0.588891 -0.133696,0.19989 -0.267391,0.399789 -0.400388,0.602385 -0.135076,0.194496 -0.269235,0.391698 -0.405464,0.588891 -0.136223,0.194495 -0.273607,0.386286 -0.405921,0.583479 -0.126091,0.197201 -0.2531,0.391688 -0.376875,0.591587 -0.119177,0.197202 -0.24019,0.397092 -0.353827,0.599697 -0.108338,0.19989 -0.217831,0.399789 -0.316258,0.607798 -0.09889,0.197192 -0.196847,0.397082 -0.295737,0.596981 -0.09935,0.194496 -0.197773,0.386295 -0.297126,0.580791 -0.09727,0.186387 -0.193394,0.375479 -0.293429,0.559169 -0.09705,0.178286 -0.192012,0.356572 -0.297354,0.52675 -0.108112,0.170186 -0.215987,0.337665 -0.323173,0.507851 -0.11249,0.172884 -0.223591,0.345767 -0.34207,0.513247 -0.124474,0.172883 -0.249175,0.345775 -0.371351,0.518658 -0.12839,0.178287 -0.255853,0.356573 -0.391166,0.52675 -0.13415,0.170186 -0.267155,0.343069 -0.408455,0.505147 -0.138764,0.164782 -0.276603,0.329565 -0.418594,0.491642 -0.143615,0.156673 -0.284216,0.316054 -0.436354,0.461921 -0.149831,0.145877 -0.299652,0.294441 -0.456397,0.432208 -0.159051,0.137776 -0.315795,0.275543 -0.474847,0.407907 -0.156744,0.129658 -0.313489,0.256619 -0.472541,0.38358 -0.421827,0.345775 -0.843646,0.691542 -1.295445,0.983286 -0.04842,0.02973 -0.0945,0.0648 -0.147523,0.08914 l 0.866704,-0.877927 z" />
    <path
       inkscape:connector-curvature="0"
       id="path9011"
       style="fill:#000000"
       d="m 78.525957,76.606701 c -8.42e-4,-0.03508 0.01659,-0.06213 0.02493,-0.09455 0.01911,-0.0567 0.0336,-0.116155 0.05052,-0.172884 0.02652,-0.08376 0.04935,-0.170185 0.07377,-0.256627 0.03755,-0.118852 0.08,-0.232309 0.120785,-0.348464 0.04127,-0.121566 0.09381,-0.235015 0.142453,-0.353875 0.05558,-0.140464 0.147987,-0.251225 0.233732,-0.370076 0.102579,-0.129668 0.227743,-0.226915 0.348756,-0.332264 0.148904,-0.113457 0.296436,-0.232318 0.444186,-0.348472 0.153283,-0.124254 0.308419,-0.245821 0.46332,-0.367379 0.166419,-0.12696 0.326625,-0.264728 0.486831,-0.399798 0.177949,-0.15127 0.348984,-0.313347 0.519783,-0.475424 0.181183,-0.170186 0.354062,-0.353875 0.526251,-0.540262 0.180946,-0.197193 0.354516,-0.402495 0.528549,-0.607797 0.173798,-0.202597 0.339999,-0.415999 0.506419,-0.626704 0.156517,-0.199899 0.311872,-0.402495 0.467699,-0.602395 0.146377,-0.183689 0.27961,-0.375479 0.405001,-0.578084 0.116407,-0.210696 0.111329,-0.399789 0.0784,-0.634804 -0.09566,-0.321457 -0.30634,-0.545665 -0.507346,-0.775277 -0.322238,-0.337666 -0.690363,-0.599697 -1.065395,-0.848216 -0.430585,-0.272827 -0.871773,-0.524053 -1.314806,-0.769873 -0.416295,-0.229612 -0.832825,-0.459224 -1.239663,-0.713145 -0.336765,-0.199899 -0.623288,-0.483535 -0.900591,-0.777984 -0.215288,-0.240409 -0.300115,-0.529456 -0.358433,-0.856316 -0.02467,-0.332254 0.09381,-0.599688 0.220594,-0.880626 0.183482,-0.348463 0.437273,-0.626703 0.697741,-0.894137 0.574647,-0.57537 1.249112,-0.985974 1.900292,-1.423585 0.509417,-0.329566 1.049495,-0.583487 1.590029,-0.834712 0.658101,-0.297146 1.332566,-0.540262 2.007713,-0.777974 0.765051,-0.264728 1.537244,-0.505146 2.311744,-0.737455 0.797549,-0.237721 1.595106,-0.475434 2.392656,-0.710449 0.733009,-0.216108 1.466017,-0.434914 2.199026,-0.661819 0.647727,-0.199899 1.295445,-0.405202 1.933949,-0.65372 0.378027,-0.05403 2.069943,-1.177773 0.730703,-0.297147 0.371118,-0.272837 0.659248,-0.63751 0.862097,-1.088633 0.172874,-0.443015 0.172874,-0.888726 0.09912,-1.358757 -0.11065,-0.551068 -0.352676,-1.042702 -0.615456,-1.512731 -0.308875,-0.53486 -0.693828,-0.999487 -1.097211,-1.437107 -0.45179,-0.47813 -0.949676,-0.888725 -1.461401,-1.275011 -0.587793,-0.426814 -1.223991,-0.753665 -1.867103,-1.048115 -0.714567,-0.318751 -1.459104,-0.542968 -2.203641,-0.750967 -0.786021,-0.210696 -1.583578,-0.361976 -2.381128,-0.50244 -0.802163,-0.135062 -1.608007,-0.240418 -2.413633,-0.343069 -0.79386,-0.105349 -1.590255,-0.17558 -2.386659,-0.243116 -0.841802,-0.06756 -1.684995,-0.116154 -2.527959,-0.162076 -0.873155,-0.05136 -1.746774,-0.09455 -2.620391,-0.135071 -0.83536,-0.0405 -1.670713,-0.07833 -2.506073,-0.116154 -0.765506,-0.03507 -1.531248,-0.06756 -2.296991,-0.102651 -0.705581,-0.02973 -1.411153,-0.05946 -2.116506,-0.09185 -0.650953,-0.03507 -1.30167,-0.0729 -1.952386,-0.110751 -0.588947,-0.03507 -1.177885,-0.07566 -1.766832,-0.113457 -0.544685,-0.03783 -1.089555,-0.07024 -1.634198,-0.110752 -0.511194,-0.03508 -1.022405,-0.0729 -1.533674,-0.108054 -0.497147,-0.03507 -0.993477,-0.08644 -1.489849,-0.13507 -0.469197,-0.04593 -0.938504,-0.08914 -1.407819,-0.132364 -0.439343,-0.04326 -0.878924,-0.08101 -1.318494,-0.121558 -0.417221,-0.03507 -0.834435,-0.07023 -1.251883,-0.105348 -0.387941,-0.0324 -0.776345,-0.05403 -1.165203,-0.06756 -0.384951,0 -0.768976,0.03507 -1.152529,0.06756 -0.378492,0.04326 -0.75583,0.105348 -1.129716,0.186387 -0.382408,0.08101 -0.759056,0.194495 -1.135012,0.310659 -0.373188,0.116154 -0.745456,0.235006 -1.1145,0.36737 -0.365582,0.13507 -0.728857,0.27824 -1.092595,0.418704 -0.348529,0.132365 -0.692216,0.280938 -1.034741,0.432208 -0.345069,0.148574 -0.67262,0.340372 -0.999936,0.534869 -0.311653,0.189092 -0.617765,0.391688 -0.924794,0.591578 -0.09658,0.06213 -0.192012,0.124264 -0.287905,0.189093 l 0.722869,-0.68613 c 0.0025,0 0.286288,-0.186386 0.287906,-0.186386 0.306338,-0.199899 0.612223,-0.399798 0.92433,-0.586194 0.329388,-0.191789 0.659937,-0.378176 1.00616,-0.52675 0.343451,-0.148574 0.687828,-0.297146 1.036813,-0.426804 0.363511,-0.140474 0.726785,-0.283644 1.09283,-0.416008 0.369962,-0.129667 0.742694,-0.248518 1.116344,-0.364682 0.377338,-0.113448 0.75583,-0.224199 1.139619,-0.305247 0.376184,-0.07566 0.75514,-0.135061 1.135703,-0.17558 0.385406,-0.0324 0.771275,-0.0648 1.157835,-0.0567 0.389094,0.01077 0.777725,0.0405 1.165902,0.0729 l 1.250266,0.105349 c 0.439115,0.0405 0.877996,0.08101 1.316877,0.121557 0.468372,0.04593 0.936777,0.09185 1.405073,0.137768 0.495707,0.0486 0.991414,0.09725 1.488014,0.132363 0.510385,0.03783 1.020728,0.07566 1.531089,0.113458 0.543699,0.03783 1.087458,0.0729 1.631225,0.110751 0.587102,0.03783 1.174196,0.08101 1.761763,0.116154 0.648871,0.0405 1.29798,0.0811 1.94708,0.113458 0.703963,0.03507 1.407936,0.0648 2.1119,0.09725 l 2.291693,0.105348 c 0.833508,0.0405 1.667252,0.081 2.500759,0.121557 0.874082,0.04326 1.748163,0.08644 2.622008,0.132374 0.844582,0.0486 1.689155,0.09454 2.532802,0.162076 0.797784,0.06756 1.595333,0.137767 2.390121,0.245821 0.805625,0.105349 1.612622,0.213403 2.414786,0.348464 0.799856,0.140474 1.599713,0.294441 2.388041,0.507853 0.746836,0.210705 1.495988,0.437611 2.215161,0.759068 0.647728,0.299843 1.29084,0.626703 1.883239,1.061617 0.516337,0.386286 1.01883,0.802293 1.475238,1.285818 0.407991,0.443023 0.797551,0.913053 1.113343,1.453315 0.269698,0.480828 0.518642,0.983276 0.638503,1.545142 0.08764,0.483543 0.103732,0.958976 -0.06685,1.420897 -0.193629,0.472728 -0.477144,0.859022 -0.852876,1.148059 -0.742226,0.51055 -1.461409,1.042702 -2.293533,1.329043 -0.63619,0.243125 -1.28161,0.445721 -1.929337,0.642913 -0.730701,0.22421 -1.461411,0.440318 -2.192113,0.653721 -0.797549,0.237712 -1.595098,0.472726 -2.392655,0.710447 -0.7745,0.235016 -1.546693,0.478131 -2.313126,0.745565 -0.677234,0.243115 -1.353299,0.491633 -2.012318,0.794184 -0.542387,0.253921 -1.083611,0.515952 -1.5928,0.856315 1.290376,-0.883331 -0.08645,0.0405 -0.334693,0.343061 -0.254254,0.262031 -0.514495,0.521356 -0.699585,0.859022 -0.1277,0.256627 -0.252873,0.50244 -0.244106,0.810393 0.04472,0.31065 0.119396,0.572681 0.319712,0.799587 0.269917,0.289046 0.549064,0.564581 0.878224,0.759068 0.404312,0.251224 0.818527,0.480837 1.232523,0.710448 0.44395,0.248518 0.886291,0.502449 1.318258,0.777984 0.382644,0.251215 0.757675,0.518649 1.087988,0.859012 0.215062,0.245822 0.437964,0.483533 0.546303,0.8212 0.04565,0.256628 0.07141,0.47813 -0.04379,0.718548 -0.119397,0.210706 -0.25033,0.410605 -0.400851,0.594294 -0.156054,0.19989 -0.312562,0.402495 -0.468616,0.605091 -0.166656,0.210705 -0.332621,0.424108 -0.505964,0.62941 -0.173797,0.205294 -0.346214,0.413292 -0.525779,0.610495 -0.171035,0.189092 -0.342997,0.375479 -0.523717,0.548362 -0.169418,0.164783 -0.338844,0.326859 -0.515639,0.478139 -0.15928,0.137767 -0.317868,0.278232 -0.48337,0.405192 -0.155128,0.118861 -0.310727,0.240419 -0.46332,0.367379 -0.146832,0.116155 -0.292974,0.232318 -0.441415,0.345767 -0.122175,0.09995 -0.247795,0.191799 -0.35429,0.313356 -0.08736,0.105348 -0.181182,0.205303 -0.242497,0.337666 -0.05027,0.113448 -0.103724,0.226906 -0.14498,0.345766 -0.04101,0.113449 -0.08438,0.226906 -0.121485,0.340363 -0.02375,0.08644 -0.05069,0.170186 -0.07192,0.253923 -0.01591,0.05946 -0.03504,0.113457 -0.04749,0.172892 -0.0099,0.02697 -0.01128,0.05946 -0.02972,0.081 l -0.86396,0.488946 z" />
    <g
       id="g21951"
       transform="matrix(1.2230888,0,0,1.4333441,-711.18662,-243.67725)">
      <path
         inkscape:connector-curvature="0"
         id="path15580"
         style="fill:none"
         d="m 615.86,234.43 14.89,-9.79 v -2.55 l -21.38,-8.01 -9.79,-0.26 -15.02,6.49 c 0,0 -4.07,9.29 8.4,11.2 12.47,1.91 20.87,3.94 22.9,2.92 z" />
      <path
         inkscape:connector-curvature="0"
         id="path16469"
         sodipodi:nodetypes="ccccccsc"
         style="fill:#53555d;fill-rule:evenodd"
         d="m 613.67,234.38 3.36,-4.19 13.58,-8.14 0.11,0.34 v 2.07 l -13.63,9.39 c 0,0 -1.35,0.99 -3.43,0.81 -2.07,-0.18 0.01,-0.28 0.01,-0.28 z" />
      <path
         inkscape:connector-curvature="0"
         id="path15582"
         sodipodi:nodetypes="ccccc"
         style="fill:url(#linearGradient8781);fill-rule:evenodd"
         d="m 584.41,222.05 33.34,7.75 -4.29,4.84 -21.2,-3.3 c 0,0 -8.35,-2.14 -7.85,-9.29 z" />
      <path
         inkscape:connector-curvature="0"
         id="path16489"
         sodipodi:nodetypes="ccccccc"
         style="fill:#cccccd;fill-rule:evenodd"
         d="m 602.88,212.12 6.54,1.87 21.19,8.06 -13.25,8.19 -32.96,-8.18 c 0.03,-0.75 0.17,-1.61 1.06,-2.09 l 17.42,-7.85 z" />
      <path
         inkscape:connector-curvature="0"
         id="path16491"
         style="fill:#a0a0a0;fill-opacity:0.69281;fill-rule:evenodd"
         d="m 585.59,221.09 3.36,0.96 1.45,-0.91 -2.67,-1.04 -2.14,0.99 z" />
      <path
         inkscape:connector-curvature="0"
         id="path17380"
         sodipodi:nodetypes="ccccc"
         style="fill:#a0a0a0;fill-opacity:0.69281;fill-rule:evenodd"
         d="m 589.01,219.8 2.41,1.04 2.08,-1.13 -2.36,-0.91 -2.13,1 z" />
      <path
         inkscape:connector-curvature="0"
         id="path17382"
         sodipodi:nodetypes="ccccc"
         style="fill:#a0a0a0;fill-opacity:0.69281;fill-rule:evenodd"
         d="m 591.67,218.45 3.24,1.31 1.81,-1.03 -3.1,-1.02 -1.95,0.74 z" />
      <path
         inkscape:connector-curvature="0"
         id="path17384"
         sodipodi:nodetypes="ccccc"
         style="fill:#a0a0a0;fill-opacity:0.69281;fill-rule:evenodd"
         d="m 594.21,217.3 2.36,0.87 2.13,-0.96 -2.36,-0.9 -2.13,0.99 z" />
      <path
         inkscape:connector-curvature="0"
         id="path17386"
         sodipodi:nodetypes="ccccc"
         style="fill:#a0a0a0;fill-opacity:0.69281;fill-rule:evenodd"
         d="m 597.16,216.12 2.36,0.87 2.13,-0.96 -2.36,-0.9 -2.13,0.99 z" />
      <path
         inkscape:connector-curvature="0"
         id="path17388"
         sodipodi:nodetypes="ccccc"
         style="fill:#a0a0a0;fill-opacity:0.69281;fill-rule:evenodd"
         d="m 600.02,214.89 2.03,0.78 1.83,-0.86 -2.03,-0.82 -1.83,0.9 z" />
      <path
         inkscape:connector-curvature="0"
         id="path17390"
         sodipodi:nodetypes="ccccc"
         style="fill:#a0a0a0;fill-opacity:0.69281;fill-rule:evenodd"
         d="m 602.28,213.88 1.67,0.57 1.52,-0.63 -1.68,-0.6 -1.51,0.66 z" />
      <path
         inkscape:connector-curvature="0"
         id="path17392"
         sodipodi:nodetypes="ccccc"
         style="fill:#a0a0a0;fill-opacity:0.69281;fill-rule:evenodd"
         d="m 604.66,214.71 1.68,0.57 1.51,-0.62 -1.68,-0.6 -1.51,0.65 z" />
      <path
         inkscape:connector-curvature="0"
         id="path17394"
         sodipodi:nodetypes="ccccc"
         style="fill:#a0a0a0;fill-opacity:0.69281;fill-rule:evenodd"
         d="m 606.93,215.47 1.68,0.56 1.51,-0.62 -1.67,-0.6 -1.52,0.66 z" />
      <path
         inkscape:connector-curvature="0"
         id="path17396"
         sodipodi:nodetypes="ccccc"
         style="fill:#a0a0a0;fill-opacity:0.69281;fill-rule:evenodd"
         d="m 609.16,216.24 1.67,0.56 1.52,-0.62 -1.68,-0.6 -1.51,0.66 z" />
      <path
         inkscape:connector-curvature="0"
         id="path17398"
         sodipodi:nodetypes="ccccc"
         style="fill:#a0a0a0;fill-opacity:0.69281;fill-rule:evenodd"
         d="m 611.29,216.96 1.68,-0.56 1.51,0.62 -1.67,0.6 -1.52,-0.66 z" />
      <path
         inkscape:connector-curvature="0"
         id="path17400"
         sodipodi:nodetypes="ccccc"
         style="fill:#a0a0a0;fill-opacity:0.69281;fill-rule:evenodd"
         d="m 613.6,217.78 1.68,0.57 1.52,-0.63 -1.68,-0.6 -1.52,0.66 z" />
      <path
         inkscape:connector-curvature="0"
         id="path17402"
         sodipodi:nodetypes="ccccc"
         style="fill:#a0a0a0;fill-opacity:0.69281;fill-rule:evenodd"
         d="m 615.87,218.55 1.68,0.57 1.52,-0.63 -1.68,-0.59 -1.52,0.65 z" />
      <path
         inkscape:connector-curvature="0"
         id="path17404"
         sodipodi:nodetypes="ccccc"
         style="fill:#a0a0a0;fill-opacity:0.69281;fill-rule:evenodd"
         d="m 617.78,219.28 1.68,0.56 1.51,-0.62 -1.67,-0.6 -1.52,0.66 z" />
      <path
         inkscape:connector-curvature="0"
         id="path17406"
         sodipodi:nodetypes="ccccc"
         style="fill:#a0a0a0;fill-opacity:0.69281;fill-rule:evenodd"
         d="m 619.69,220 1.67,0.57 1.52,-0.63 -1.68,-0.59 -1.51,0.65 z" />
      <path
         inkscape:connector-curvature="0"
         id="path17408"
         sodipodi:nodetypes="ccccc"
         style="fill:#a0a0a0;fill-opacity:0.69281;fill-rule:evenodd"
         d="m 621.87,220.87 1.67,0.56 1.52,-0.62 -1.68,-0.6 -1.51,0.66 z" />
      <path
         inkscape:connector-curvature="0"
         id="path17410"
         sodipodi:nodetypes="ccccc"
         style="fill:#a0a0a0;fill-opacity:0.69281;fill-rule:evenodd"
         d="m 623.91,221.55 1.68,0.56 1.51,-0.62 -1.68,-0.6 -1.51,0.66 z" />
      <path
         inkscape:connector-curvature="0"
         id="path17412"
         sodipodi:nodetypes="ccccc"
         style="fill:#a0a0a0;fill-opacity:0.69281;fill-rule:evenodd"
         d="m 626.19,222.32 1.67,0.57 1.52,-0.63 -1.68,-0.6 -1.51,0.66 z" />
      <path
         inkscape:connector-curvature="0"
         id="path17416"
         style="fill:#adadae;fill-rule:evenodd"
         d="m 594.77,223.41 1.28,-0.64 14.38,3.5 -0.72,1.13 -14.94,-3.99 z" />
      <path
         inkscape:connector-curvature="0"
         id="path18303"
         sodipodi:nodetypes="ccccc"
         style="fill:#a0a0a0;fill-opacity:0.69281;fill-rule:evenodd"
         d="m 624.44,223.13 1.68,0.56 1.51,-0.62 -1.67,-0.6 -1.52,0.66 z" />
      <path
         inkscape:connector-curvature="0"
         id="path18305"
         sodipodi:nodetypes="ccccc"
         style="fill:#a0a0a0;fill-opacity:0.69281;fill-rule:evenodd"
         d="m 622.96,224.04 1.67,0.57 1.52,-0.63 -1.68,-0.59 -1.51,0.65 z" />
      <path
         inkscape:connector-curvature="0"
         id="path18307"
         sodipodi:nodetypes="ccccc"
         style="fill:#a0a0a0;fill-opacity:0.69281;fill-rule:evenodd"
         d="m 621.55,224.86 1.68,0.57 1.51,-0.63 -1.68,-0.59 -1.51,0.65 z" />
      <path
         inkscape:connector-curvature="0"
         id="path18309"
         sodipodi:nodetypes="ccccc"
         style="fill:#a0a0a0;fill-opacity:0.69281;fill-rule:evenodd"
         d="m 620.14,225.72 1.68,0.57 1.51,-0.63 -1.67,-0.59 -1.52,0.65 z" />
      <path
         inkscape:connector-curvature="0"
         id="path18311"
         sodipodi:nodetypes="ccccc"
         style="fill:#a0a0a0;fill-opacity:0.69281;fill-rule:evenodd"
         d="m 618.6,226.54 1.67,0.57 1.52,-0.63 -1.68,-0.59 -1.51,0.65 z" />
      <path
         inkscape:connector-curvature="0"
         id="path18317"
         style="fill:#a0a0a0;fill-opacity:0.69281;fill-rule:evenodd"
         d="m 612.63,227.95 2.23,0.56 0.91,-0.62 -2.25,-0.6 -0.89,0.66 z"
         inkscape:transform-center-x="-1.3163745"
         inkscape:transform-center-y="-0.22696112"
         sodipodi:nodetypes="ccccc" />
      <path
         inkscape:connector-curvature="0"
         id="path18319"
         sodipodi:nodetypes="ccccc"
         inkscape:transform-center-y="0.22696112"
         style="fill:#a0a0a0;fill-opacity:0.69281;fill-rule:evenodd"
         d="m 609.91,227.4 2.22,0.57 0.92,-0.63 -2.26,-0.59 -0.88,0.65 z" />
      <path
         inkscape:connector-curvature="0"
         id="path18321"
         sodipodi:nodetypes="ccccc"
         style="fill:#a0a0a0;fill-opacity:0.69281;fill-rule:evenodd"
         d="m 589.8,222.09 2.23,0.57 0.91,-0.63 -2.26,-0.59 -0.88,0.65 z" />
      <path
         inkscape:connector-curvature="0"
         id="path18323"
         sodipodi:nodetypes="ccccc"
         style="fill:#a0a0a0;fill-opacity:0.69281;fill-rule:evenodd"
         d="m 592.53,222.68 2.22,0.57 0.91,-0.63 -2.25,-0.59 -0.88,0.65 z" />
      <path
         inkscape:connector-curvature="0"
         id="path18325"
         sodipodi:nodetypes="ccccc"
         style="fill:#a0a0a0;fill-opacity:0.69281;fill-rule:evenodd"
         d="m 603.15,216.05 2.22,0.84 0.91,-0.92 -2.25,-0.89 -0.88,0.97 z" />
      <path
         inkscape:connector-curvature="0"
         id="path18327"
         sodipodi:nodetypes="ccccc"
         style="fill:#a0a0a0;fill-opacity:0.69281;fill-rule:evenodd"
         d="m 605.87,216.95 2.23,0.72 0.91,-0.79 -2.26,-0.75 -0.88,0.82 z" />
      <path
         inkscape:connector-curvature="0"
         id="path18329"
         sodipodi:nodetypes="ccccc"
         style="fill:#a0a0a0;fill-opacity:0.69281;fill-rule:evenodd"
         d="m 608.64,217.91 2.22,0.8 0.92,-0.88 -2.26,-0.84 -0.88,0.92 z" />
      <path
         inkscape:connector-curvature="0"
         id="path18333"
         sodipodi:nodetypes="ccccc"
         style="fill:#a0a0a0;fill-opacity:0.69281;fill-rule:evenodd"
         d="m 611.68,219.07 2.23,0.86 0.91,-0.95 -2.26,-0.9 -0.88,0.99 z" />
      <path
         inkscape:connector-curvature="0"
         id="path18335"
         sodipodi:nodetypes="ccccc"
         style="fill:#a0a0a0;fill-opacity:0.69281;fill-rule:evenodd"
         d="m 614.45,220.15 2.55,1.11 1.13,-1.11 -2.51,-1.16 -1.17,1.16 z" />
      <path
         inkscape:connector-curvature="0"
         id="path18339"
         sodipodi:nodetypes="ccccc"
         style="fill:#a0a0a0;fill-opacity:0.69281;fill-rule:evenodd"
         d="m 617.9,221.25 2.18,0.93 1.09,-1.07 -2.14,-0.71 -1.13,0.85 z" />
      <path
         inkscape:connector-curvature="0"
         id="path18341"
         sodipodi:nodetypes="ccccc"
         style="fill:#a0a0a0;fill-opacity:0.69281;fill-rule:evenodd"
         d="m 621.26,221.87 2.22,0.89 0.91,-0.5 -2.25,-0.92 -0.88,0.53 z" />
      <path
         inkscape:connector-curvature="0"
         id="path18345"
         style="fill:#adadae;fill-rule:evenodd"
         d="m 600.27,217.46 1.99,-1.09 2.36,0.87 -1.81,1.18 -2.54,-0.96 z" />
      <path
         inkscape:connector-curvature="0"
         id="path19232"
         style="fill:#adadae;fill-rule:evenodd"
         d="m 603.31,218.48 2,-1.09 2.36,0.87 -1.82,1.18 -2.54,-0.96 z" />
      <path
         inkscape:connector-curvature="0"
         id="path19234"
         style="fill:#adadae;fill-rule:evenodd"
         d="m 606.3,219.57 2,-1.09 2.36,0.87 -1.81,1.18 -2.55,-0.96 z" />
      <path
         inkscape:connector-curvature="0"
         id="path19236"
         style="fill:#adadae;fill-rule:evenodd"
         d="m 609.25,220.62 2,-1.09 2.36,0.86 -1.81,1.18 -2.55,-0.95 z" />
      <path
         inkscape:connector-curvature="0"
         id="path19238"
         style="fill:#adadae;fill-rule:evenodd"
         d="m 612.16,221.66 2,-1.09 2.36,0.86 -1.82,1.19 -2.54,-0.96 z" />
      <path
         inkscape:connector-curvature="0"
         id="path19240"
         style="fill:#adadae;fill-rule:evenodd"
         d="m 615.43,222.71 2,-1.09 2.36,0.86 -1.82,1.18 -2.54,-0.95 z" />
      <path
         inkscape:connector-curvature="0"
         id="path19244"
         style="fill:#adadae;fill-rule:evenodd"
         d="m 615.47,228.69 2.6,-1.88 1.62,0.73 -2.44,1.72 -1.78,-0.57 z" />
      <path
         inkscape:connector-curvature="0"
         id="path20131"
         style="fill:#adadae;fill-rule:evenodd"
         d="m 616.02,224.45 1.27,-0.72 0.82,0.45 1.86,-1.13 1.4,0.63 -3.4,2.45 -2.72,-1 0.77,-0.68 z" />
      <path
         inkscape:connector-curvature="0"
         id="path21018"
         sodipodi:nodetypes="ccccc"
         style="fill:#a0a0a0;fill-opacity:0.69281;fill-rule:evenodd"
         d="m 619.94,222.73 2.23,0.89 0.91,-0.5 -2.25,-0.92 -0.89,0.53 z" />
      <path
         inkscape:connector-curvature="0"
         id="path21020"
         sodipodi:nodetypes="ccccc"
         style="fill:#a0a0a0;fill-opacity:0.69281;fill-rule:evenodd"
         d="m 613.72,227.13 2.23,0.57 0.91,-0.63 -2.25,-0.59 -0.89,0.65 z" />
      <path
         inkscape:connector-curvature="0"
         id="path21024"
         sodipodi:nodetypes="ccccc"
         style="fill:#a0a0a0;fill-opacity:0.69281;fill-rule:evenodd"
         d="m 614.68,226.45 2.22,0.57 0.91,-0.63 -2.25,-0.6 -0.88,0.66 z" />
      <path
         inkscape:connector-curvature="0"
         id="path21026"
         sodipodi:nodetypes="ccccc"
         style="fill:#a0a0a0;fill-opacity:0.69281;fill-rule:evenodd"
         d="m 610.91,226.59 2.22,0.56 0.91,-0.62 -2.25,-0.6 -0.88,0.66 z" />
      <path
         inkscape:connector-curvature="0"
         id="path21915"
         style="fill:#adadae;fill-rule:evenodd"
         d="m 597.73,218.63 2,-1.09 2.36,0.86 -1.81,1.18 -2.55,-0.95 z" />
      <path
         inkscape:connector-curvature="0"
         id="path21917"
         style="fill:#adadae;fill-rule:evenodd"
         d="m 601.02,220.1 2,-1.09 2.36,0.86 -1.81,1.18 -2.55,-0.95 z" />
      <path
         inkscape:connector-curvature="0"
         id="path21919"
         style="fill:#adadae;fill-rule:evenodd"
         d="m 604.14,221.1 2,-1.09 2.36,0.86 -1.82,1.18 -2.54,-0.95 z" />
      <path
         inkscape:connector-curvature="0"
         id="path21921"
         style="fill:#adadae;fill-rule:evenodd"
         d="m 607.43,222.18 2,-1.09 2.36,0.86 -1.82,1.18 -2.54,-0.95 z" />
      <path
         inkscape:connector-curvature="0"
         id="path21923"
         style="fill:#adadae;fill-rule:evenodd"
         d="m 610.5,223.35 2,-1.09 2.36,0.86 -1.82,1.18 -2.54,-0.95 z" />
      <path
         inkscape:connector-curvature="0"
         id="path21925"
         sodipodi:nodetypes="ccccc"
         style="fill:#adadae;fill-rule:evenodd"
         d="m 595.83,219.93 1.48,-0.83 2.36,0.86 -1.3,0.66 -2.54,-0.69 z" />
      <path
         inkscape:connector-curvature="0"
         id="path21927"
         sodipodi:nodetypes="ccccc"
         style="fill:#adadae;fill-rule:evenodd"
         d="m 591.85,221.05 2,-1.09 2.36,0.87 -1.39,1 -2.97,-0.78 z" />
      <path
         inkscape:connector-curvature="0"
         id="path21929"
         sodipodi:nodetypes="ccccc"
         style="fill:#adadae;fill-rule:evenodd"
         d="m 598.86,220.97 1.48,-0.66 2.36,0.86 -1.3,0.84 -2.54,-1.04 z" />
      <path
         inkscape:connector-curvature="0"
         id="path21931"
         sodipodi:nodetypes="ccccc"
         style="fill:#adadae;fill-rule:evenodd"
         d="m 601.76,222.18 1.48,-0.79 2.36,0.86 -1.13,0.58 -2.71,-0.65 z" />
      <path
         inkscape:connector-curvature="0"
         id="path21933"
         sodipodi:nodetypes="ccccc"
         style="fill:#adadae;fill-rule:evenodd"
         d="m 604.66,223.17 1.56,-0.7 2.36,0.87 -0.86,1 -3.06,-1.17 z" />
      <path
         inkscape:connector-curvature="0"
         id="path21935"
         sodipodi:nodetypes="ccccc"
         style="fill:#adadae;fill-rule:evenodd"
         d="m 608.12,224.4 1.48,-1 2.88,1.12 -1.21,0.97 -3.15,-1.09 z" />
      <path
         inkscape:connector-curvature="0"
         id="path21937"
         sodipodi:nodetypes="ccccc"
         style="fill:#adadae;fill-rule:evenodd"
         d="m 611.67,225.66 1.34,-0.63 c 0.72,0.19 1.86,0.37 2.15,0.57 l -1.13,0.65 -2.36,-0.59 z" />
      <path
         inkscape:connector-curvature="0"
         id="path21939"
         sodipodi:nodetypes="ccccc"
         style="fill:#adadae;fill-rule:evenodd"
         d="m 614.74,224.89 -1.19,-0.38 1.88,-1.15 1.01,0.34 -1.7,1.19 z" />
      <path
         inkscape:connector-curvature="0"
         id="path21941"
         sodipodi:nodetypes="ccccc"
         style="fill:#adadae;fill-rule:evenodd"
         d="m 595.22,222.05 2,-1.09 2.36,0.86 -1.38,1.01 -2.98,-0.78 z" />
      <path
         inkscape:connector-curvature="0"
         id="path21943"
         sodipodi:nodetypes="ccccc"
         style="fill:#adadae;fill-rule:evenodd"
         d="m 598.56,222.99 1.8,-0.86 2.12,0.68 -1.24,0.8 -2.68,-0.62 z" />
      <path
         inkscape:connector-curvature="0"
         id="path21945"
         sodipodi:nodetypes="ccccc"
         style="fill:#adadae;fill-rule:evenodd"
         d="m 601.72,224.01 1.7,-0.76 2,0.6 -1.17,0.71 -2.53,-0.55 z" />
      <path
         inkscape:connector-curvature="0"
         id="path21947"
         sodipodi:nodetypes="ccccc"
         style="fill:#adadae;fill-rule:evenodd"
         d="m 605.17,224.75 0.97,-0.6 1.84,0.47 -0.83,0.63 -1.98,-0.5 z" />
      <path
         inkscape:connector-curvature="0"
         id="path21949"
         sodipodi:nodetypes="ccccc"
         style="fill:#adadae;fill-rule:evenodd"
         d="m 608.25,225.63 1.03,-0.56 1.21,0.44 -0.71,0.52 -1.53,-0.4 z" />
    </g>
    <g
       id="g9038"
       transform="matrix(0.23050619,0,0,0.27013135,70.741073,-108.20745)">
      <path
         inkscape:connector-curvature="0"
         id="path2086"
         sodipodi:nodetypes="cccsccsc"
         style="fill:url(#linearGradient8849);fill-rule:evenodd"
         d="m -187.02,491.04 21.52,5.63 60.45,7.26 c 0,0 23.369,77.82 19.688,79.66 -3.68,1.84 -44.608,19.02 -44.608,19.02 l -37.11,7.16 c 0,0 -18.6,-7.05 -19.14,-13.61 -2.44,-30.09 -0.8,-105.12 -0.8,-105.12 z" />
      <path
         inkscape:connector-curvature="0"
         id="path7456"
         sodipodi:nodetypes="ccccc"
         style="fill:url(#linearGradient8833);fill-rule:evenodd"
         d="m -186.99,491.02 c 6.54,5.06 10.26,5.99 20.98,6.52 23.72,-3.97 73.887,-22.4 73.887,-22.4 l -28.067,-7.85 c 0,0 -57.42,13.71 -66.8,23.73 z" />
      <path
         inkscape:connector-curvature="0"
         id="path7458"
         sodipodi:nodetypes="cccccc"
         style="fill:url(#linearGradient8869);fill-rule:evenodd"
         d="m -166.9,497.47 -0.18,112.3 c 36.67,1.26 57.08,-6.83 85.067,-24.62 0.023,-33.63 0.045,-62.4 0.068,-96.03 -3.356,-4.67 -6.712,-9.33 -10.068,-14 -24.957,7.45 -48.177,11.65 -74.887,22.35 z" />
      <path
         id="path6561"
         sodipodi:rx="1.8563447"
         sodipodi:ry="3.8554852"
         style="fill:url(#linearGradient49897)"
         sodipodi:type="arc"
         d="m 361.84441,388.07635 c 0,2.12933 -0.83111,3.85549 -1.85634,3.85549 -1.02523,0 -1.85635,-1.72616 -1.85635,-3.85549 0,-2.12932 0.83112,-3.85548 1.85635,-3.85548 1.02523,0 1.85634,1.72616 1.85634,3.85548 z"
         transform="matrix(1.4497,-1.421,0.25628,1.3304,-799.78,503.08)"
         sodipodi:cy="388.07635"
         sodipodi:cx="359.98807" />
      <path
         inkscape:connector-curvature="0"
         id="path2090"
         sodipodi:nodetypes="cscs"
         style="fill:url(#radialGradient9127);fill-rule:evenodd"
         d="m -80.104,621.46 c 8.618,15.32 57.14,34.9 104.75,10.68 38.527,-19.6 -63.847,-39.29 -63.847,-39.29 0,0 -58.07,-1.91 -40.903,28.61 z" />
      <path
         inkscape:connector-curvature="0"
         id="path14650"
         sodipodi:nodetypes="ccccc"
         style="fill:url(#linearGradient8742);fill-rule:evenodd"
         d="m -48.887,612.47 4.696,-41.03 35.894,4.03 c 0.5076,15.42 2.8363,31.37 0.9697,46.11 -16.585,3.52 -32.498,5.42 -41.56,-9.11 z" />
      <path
         inkscape:connector-curvature="0"
         id="path2084"
         sodipodi:nodetypes="ccccc"
         style="fill:url(#linearGradient4092);fill-rule:evenodd"
         d="m -111.65,426.25 199.68,24.85 -24.844,156.43 -184.96,-38.65 10.12,-142.63 z" />
      <path
         inkscape:connector-curvature="0"
         id="path5088"
         sodipodi:nodetypes="ccccc"
         style="opacity:0.66000001;fill:#888888;fill-rule:evenodd"
         d="m -120.58,563.93 180.68,39.51 2.954,-6.56 -184.54,-38.19 0.91,5.24 z" />
      <path
         inkscape:connector-curvature="0"
         id="path2159"
         sodipodi:nodetypes="ccccc"
         style="fill:#000000;fill-rule:evenodd"
         d="m -120.9,565.88 181.4,39.37 0.671,-5.71 -183.08,-38.12 1.01,4.46 z" />
      <path
         inkscape:connector-curvature="0"
         id="path3163"
         sodipodi:nodetypes="ccccc"
         style="fill:none;stroke:url(#linearGradient8712);stroke-width:8.04039955;stroke-linejoin:round"
         d="m -111.78,425.86 199.68,24.85 -24.843,156.43 -184.96,-38.65 10.12,-142.63 z" />
      <path
         id="path5260"
         sodipodi:rx="1.8563447"
         sodipodi:ry="3.8554852"
         style="fill:url(#linearGradient49905)"
         sodipodi:type="arc"
         d="m 361.84441,388.07635 c 0,2.12933 -0.83111,3.85549 -1.85634,3.85549 -1.02523,0 -1.85635,-1.72616 -1.85635,-3.85549 0,-2.12932 0.83112,-3.85548 1.85635,-3.85548 1.02523,0 1.85634,1.72616 1.85634,3.85548 z"
         transform="matrix(1.4497,-1.421,0.25628,1.3304,-800.35,517.37)"
         sodipodi:cy="388.07635"
         sodipodi:cx="359.98807" />
    </g>
    <g
       id="g9023"
       transform="matrix(0.088708,0,0,0.10395735,28.161963,16.445746)">
      <g
         id="g23828"
         transform="matrix(4.0328,0,0,4.1889,-902.7,-841.21)">
        <g
           id="g23836">
          <path
             inkscape:connector-curvature="0"
             id="path22026"
             sodipodi:nodetypes="ccc"
             style="fill:#9fa1a1;fill-rule:evenodd"
             d="m 357.7,369.52 c 0,0 -2.07,-35.73 19.65,-24.09 -6.92,9.05 -18.44,23.48 -19.65,24.09 z" />
          <path
             inkscape:connector-curvature="0"
             id="path22024"
             sodipodi:nodetypes="ccscsccc"
             style="fill:#9a999c;fill-rule:evenodd"
             d="m 377.63,345.46 -18.28,23.26 c 0,0 -6.95,5.93 -19.09,0.8 -12.15,-5.14 -5.99,-13.52 -5.99,-13.52 0,0 4.62,-5.47 5.64,-5.13 1.03,0.34 10.78,-9.75 10.78,-9.75 0,0 2.22,-3.64 5.65,-4.79 6.05,0.05 21.63,2.46 21.29,9.13 z" />
          <path
             inkscape:connector-curvature="0"
             id="path22022"
             sodipodi:nodetypes="ccsc"
             style="fill:#383d4b;fill-rule:evenodd"
             d="m 363.36,363.52 12.99,-16.41 c 0,0 1.88,-2.06 -1.03,-3.25 -2.9,-1.2 -16.92,3.07 -11.96,19.66 z" />
          <path
             inkscape:connector-curvature="0"
             id="path22030"
             sodipodi:nodetypes="cccsccc"
             style="fill:url(#radialGradient9034);fill-rule:evenodd"
             d="m 363.46,345.5 c 0,0 -6.08,-5.96 -12.62,-4.58 -4.61,5.1 -11.81,10.08 -11.81,10.08 0,0 -5.82,5.18 -6.12,7.32 -0.51,3.68 -0.99,11.06 14.54,13.25 5.31,0.18 7.45,0.25 10.24,-1.79 0.16,-5.2 0.18,-16.71 5.77,-24.28 z" />
          <path
             inkscape:connector-curvature="0"
             id="path22028"
             sodipodi:nodetypes="cscc"
             style="fill:#212639;fill-rule:evenodd"
             d="m 354.84,343.22 c 2.15,0.21 9.54,-5.01 8.02,-5.8 -0.65,-0.35 -2.51,-0.55 -2.32,-0.61 -2.43,0.79 -6.74,3.66 -5.7,6.41 z" />
          <path
             inkscape:connector-curvature="0"
             id="path22032"
             sodipodi:nodetypes="ccc"
             style="fill:#bab9bc;fill-rule:evenodd"
             d="m 356.86,341.04 c 2.55,-0.34 3.49,-2 3.85,-2.98 -0.84,0.11 -3.15,-0.3 -3.85,2.98 z" />
        </g>
      </g>
      <path
         inkscape:connector-curvature="0"
         id="path8787"
         style="fill:url(#linearGradient9036);fill-rule:evenodd"
         d="m 533.65,567.48 c -12.08,4.23 -20.44,16.42 -22.35,19.4 -18.57,21.33 -47.44,42.03 -47.44,42.03 0,0 -23.49,21.74 -24.68,30.69 -0.3,2.25 -0.56,4.83 -0.66,7.63 -0.35,3.68 -0.14,7.72 1.13,11.9 3.57,14.32 16.74,29.89 58.18,35.97 21.38,0.74 30.01,1.06 41.28,-7.5 4.42,-2.39 6.69,-4.44 6.69,-4.44 l 55.16,-72.93 13.4,-17.6 c 0,0 0.49,-0.58 1.04,-1.5 l 4.09,-5.4 c 1.38,-27.95 -61.41,-38.02 -85.84,-38.25 z" />
    </g>
  </g>
</svg>
