<svg xmlns:dc="http://purl.org/dc/elements/1.1/" xmlns:cc="http://creativecommons.org/ns#" xmlns:rdf="http://www.w3.org/1999/02/22-rdf-syntax-ns#" xmlns="http://www.w3.org/2000/svg" width="100" height="100"><metadata><rdf:RDF><cc:Work><dc:format>image/svg+xml</dc:format><dc:type rdf:resource="http://purl.org/dc/dcmitype/StillImage"/><dc:title/><dc:date>2021</dc:date><dc:creator><cc:Agent><dc:title>Timothée Giet</dc:title></cc:Agent></dc:creator><cc:license rdf:resource="http://creativecommons.org/licenses/by-sa/4.0/"/></cc:Work><cc:License rdf:about="http://creativecommons.org/licenses/by-sa/4.0/"><cc:permits rdf:resource="http://creativecommons.org/ns#Reproduction"/><cc:permits rdf:resource="http://creativecommons.org/ns#Distribution"/><cc:requires rdf:resource="http://creativecommons.org/ns#Notice"/><cc:requires rdf:resource="http://creativecommons.org/ns#Attribution"/><cc:permits rdf:resource="http://creativecommons.org/ns#DerivativeWorks"/><cc:requires rdf:resource="http://creativecommons.org/ns#ShareAlike"/></cc:License></rdf:RDF></metadata><path d="M50 2.5a4.1 4.1 0 0 0-4.1 4.1 4.098 4.098 0 0 0 1.35 3.03c-1.202 2.403-1.54 3.514-4.613 4.38-2.469.696-2.701 3.45-2.627 5.033a2.506 2.506 0 0 0-1.871 2.424v4.847c0 .783.363 1.471.92 1.932a3.084 3.084 0 0 0-1.032.535c-.61.486-1.075 1.207-1.453 2.172-.755 1.93-1.207 4.9-1.517 9.56-.622 9.32-.62 25.37-.62 52.542 0 .988.728 1.737 1.649 2.263.92.526 2.132.92 3.564 1.239 2.864.636 6.604.943 10.35.943 3.746 0 7.486-.307 10.35-.943 1.432-.319 2.644-.713 3.564-1.239.92-.526 1.648-1.275 1.648-2.263 0-27.172.003-43.222-.619-52.541-.31-4.66-.762-7.632-1.517-9.56-.378-.966-.843-1.687-1.453-2.173a3.084 3.084 0 0 0-1.032-.535c.557-.46.92-1.149.92-1.932v-4.847a2.506 2.506 0 0 0-1.87-2.424c.073-1.583-.16-4.337-2.628-5.033-3.284-.926-3.41-1.977-4.611-4.38A4.098 4.098 0 0 0 54.1 6.6 4.1 4.1 0 0 0 50 2.5z" style="opacity:1;vector-effect:none;fill:#3651e7;fill-opacity:1;stroke:#fff;stroke-width:4;stroke-linecap:round;stroke-linejoin:round;stroke-miterlimit:4;stroke-dasharray:none;stroke-dashoffset:3.20000005;stroke-opacity:1"/><path d="M50 2.5a4.1 4.1 0 0 0-4.1 4.1 4.098 4.098 0 0 0 1.35 3.03c-1.202 2.403-1.54 3.514-4.613 4.38-2.469.696-2.701 3.45-2.627 5.033a2.506 2.506 0 0 0-1.871 2.424v4.847c0 .783.363 1.471.92 1.932a3.084 3.084 0 0 0-1.032.535c-.61.486-1.075 1.207-1.453 2.172-.755 1.93-1.207 4.9-1.517 9.56-.622 9.32-.62 25.37-.62 52.542 0 .988.728 1.737 1.649 2.263.92.526 2.132.92 3.564 1.239 2.864.636 6.604.943 10.35.943 3.746 0 7.486-.307 10.35-.943 1.432-.319 2.644-.713 3.564-1.239.92-.526 1.648-1.275 1.648-2.263 0-27.172.003-43.222-.619-52.541-.31-4.66-.762-7.632-1.517-9.56-.378-.966-.843-1.687-1.453-2.173a3.084 3.084 0 0 0-1.032-.535c.557-.46.92-1.149.92-1.932v-4.847a2.506 2.506 0 0 0-1.87-2.424c.073-1.583-.16-4.337-2.628-5.033-3.284-.926-3.41-1.977-4.611-4.38A4.098 4.098 0 0 0 54.1 6.6 4.1 4.1 0 0 0 50 2.5z" style="opacity:1;vector-effect:none;fill:#3651e7;fill-opacity:1;stroke:none;stroke-width:1.48208332;stroke-linecap:round;stroke-linejoin:round;stroke-miterlimit:4;stroke-dasharray:none;stroke-dashoffset:3.20000005;stroke-opacity:1"/></svg>