<svg xmlns:dc="http://purl.org/dc/elements/1.1/" xmlns:cc="http://creativecommons.org/ns#" xmlns:rdf="http://www.w3.org/1999/02/22-rdf-syntax-ns#" xmlns="http://www.w3.org/2000/svg" height="100" width="100"><metadata><rdf:RDF><cc:Work><dc:format>image/svg+xml</dc:format><dc:type rdf:resource="http://purl.org/dc/dcmitype/StillImage"/><dc:title/><dc:date>2021</dc:date><dc:creator><cc:Agent><dc:title>Timothée Giet</dc:title></cc:Agent></dc:creator><cc:license rdf:resource="http://creativecommons.org/licenses/by-sa/4.0/"/></cc:Work><cc:License rdf:about="http://creativecommons.org/licenses/by-sa/4.0/"><cc:permits rdf:resource="http://creativecommons.org/ns#Reproduction"/><cc:permits rdf:resource="http://creativecommons.org/ns#Distribution"/><cc:requires rdf:resource="http://creativecommons.org/ns#Notice"/><cc:requires rdf:resource="http://creativecommons.org/ns#Attribution"/><cc:permits rdf:resource="http://creativecommons.org/ns#DerivativeWorks"/><cc:requires rdf:resource="http://creativecommons.org/ns#ShareAlike"/></cc:License></rdf:RDF></metadata><path style="fill:#3651e7;fill-opacity:1;fill-rule:evenodd;stroke:#fff;stroke-width:4;stroke-linejoin:round;stroke-opacity:1;stroke-miterlimit:4;stroke-dasharray:none" d="M82.35 18.196c3.41-3.534 6.63-7.377 8.022-5.702 2.227 1.339.03 3.003.308 5.347.278 2.344-1.649 13.414.578 14.084 2.227.67 4.082 3.145 5.01 6.362 6.073 21.037-11.15 40.102-33.297 47.573-22.146 7.471-58.839-7.727-59.952-9.736-.557-2.344-1.392-8.036 1.948-10.045 28.671-9.041 63.61 8.706 78.64-31.81 2.506-7.032-1.256-16.073-1.256-16.073z"/><path style="fill:#3651e7;fill-opacity:1;fill-rule:evenodd;stroke:none;stroke-width:2.44237661;stroke-linejoin:round" d="M82.35 18.196c3.41-3.534 6.63-7.377 8.022-5.702 2.227 1.339.03 3.003.308 5.347.278 2.344-1.649 13.414.578 14.084 2.227.67 4.082 3.145 5.01 6.362 6.073 21.037-11.15 40.102-33.297 47.573-22.146 7.471-58.839-7.727-59.952-9.736-.557-2.344-1.392-8.036 1.948-10.045 28.671-9.041 63.61 8.706 78.64-31.81 2.506-7.032-1.256-16.073-1.256-16.073z"/></svg>