<?xml version="1.0" encoding="UTF-8" standalone="no"?>
<svg
   xmlns:dc="http://purl.org/dc/elements/1.1/"
   xmlns:cc="http://creativecommons.org/ns#"
   xmlns:rdf="http://www.w3.org/1999/02/22-rdf-syntax-ns#"
   xmlns:svg="http://www.w3.org/2000/svg"
   xmlns="http://www.w3.org/2000/svg"
   height="100"
   width="100"
   version="1.1"
   id="svg2">
  <metadata
     id="metadata8">
    <rdf:RDF>
      <cc:Work
         rdf:about="">
        <dc:format>image/svg+xml</dc:format>
        <dc:type
           rdf:resource="http://purl.org/dc/dcmitype/StillImage" />
        <dc:title></dc:title>
        <dc:date>2021</dc:date>
        <dc:creator>
          <cc:Agent>
            <dc:title>Timothée Giet</dc:title>
          </cc:Agent>
        </dc:creator>
        <cc:license
           rdf:resource="http://creativecommons.org/licenses/by-sa/4.0/" />
      </cc:Work>
      <cc:License
         rdf:about="http://creativecommons.org/licenses/by-sa/4.0/">
        <cc:permits
           rdf:resource="http://creativecommons.org/ns#Reproduction" />
        <cc:permits
           rdf:resource="http://creativecommons.org/ns#Distribution" />
        <cc:requires
           rdf:resource="http://creativecommons.org/ns#Notice" />
        <cc:requires
           rdf:resource="http://creativecommons.org/ns#Attribution" />
        <cc:permits
           rdf:resource="http://creativecommons.org/ns#DerivativeWorks" />
        <cc:requires
           rdf:resource="http://creativecommons.org/ns#ShareAlike" />
      </cc:License>
    </rdf:RDF>
  </metadata>
  <defs
     id="defs6" />
  <path
     id="rect855-3"
     d="M 94.88308,33.890097 C 90.462367,17.391768 76.468776,6.6730685 63.316788,9.6790891 59.944464,10.558424 61.152806,12.82778 57.226491,13.879833 53.300174,14.931886 56.572138,11.437748 8.361718,24.355691 5.0231467,25.250257 1.1921775,34.239571 2.9358523,37.272636 11.134696,51.53426 16.397661,67.340889 16.022948,86.114337 c -0.0698,3.497342 4.323615,5.385041 7.662191,4.490468 C 71.895557,77.68686 70.18865,75.526807 73.506537,74.637782 c 3.317888,-0.889026 3.237375,1.684396 6.680656,0.827341 15.605346,-3.884268 21.090477,-17.710113 14.69589,-41.57503 z"
     style="opacity:1;vector-effect:none;fill:#3651e7;fill-opacity:1;stroke:#ffffff;stroke-width:4;stroke-linecap:square;stroke-linejoin:round;stroke-miterlimit:4;stroke-dasharray:none;stroke-dashoffset:3.20000005;stroke-opacity:1" />
  <path
     id="rect855-3-6"
     d="M 94.883079,33.890097 C 90.462366,17.391768 76.468775,6.6730689 63.316787,9.6790895 59.944463,10.558424 61.152805,12.82778 57.22649,13.879833 53.300173,14.931886 56.572137,11.437748 8.361718,24.355691 5.0231467,25.250257 1.1921775,34.239571 2.9358523,37.272636 11.134695,51.53426 16.39766,67.340889 16.022947,86.114337 c -0.0698,3.497342 4.323615,5.385041 7.662191,4.490468 48.210418,-12.917945 46.503511,-15.077998 49.821398,-15.967023 3.317888,-0.889026 3.237375,1.684396 6.680656,0.827341 15.605346,-3.884268 21.090478,-17.710113 14.69589,-41.57503 z"
     style="opacity:1;vector-effect:none;fill:#3651e7;fill-opacity:1;stroke:none;stroke-width:4;stroke-linecap:square;stroke-linejoin:round;stroke-miterlimit:4;stroke-dasharray:none;stroke-dashoffset:3.20000005;stroke-opacity:1" />
</svg>
