<svg xmlns:dc="http://purl.org/dc/elements/1.1/" xmlns:cc="http://creativecommons.org/ns#" xmlns:rdf="http://www.w3.org/1999/02/22-rdf-syntax-ns#" xmlns="http://www.w3.org/2000/svg" width="100" height="100" xml:space="preserve" version="1.0"><metadata><rdf:RDF><cc:Work><dc:format>image/svg+xml</dc:format><dc:type rdf:resource="http://purl.org/dc/dcmitype/StillImage"/><dc:title/><dc:date>2021</dc:date><dc:creator><cc:Agent><dc:title>Timothée Giet</dc:title></cc:Agent></dc:creator><cc:license rdf:resource="http://creativecommons.org/licenses/by-sa/4.0/"/></cc:Work><cc:License rdf:about="http://creativecommons.org/licenses/by-sa/4.0/"><cc:permits rdf:resource="http://creativecommons.org/ns#Reproduction"/><cc:permits rdf:resource="http://creativecommons.org/ns#Distribution"/><cc:requires rdf:resource="http://creativecommons.org/ns#Notice"/><cc:requires rdf:resource="http://creativecommons.org/ns#Attribution"/><cc:permits rdf:resource="http://creativecommons.org/ns#DerivativeWorks"/><cc:requires rdf:resource="http://creativecommons.org/ns#ShareAlike"/></cc:License></rdf:RDF></metadata><defs><linearGradient id="b"><stop style="stop-color:#fff;stop-opacity:1" offset="0"/><stop style="stop-color:#fff;stop-opacity:0" offset="1"/></linearGradient><linearGradient id="a"><stop style="stop-color:#fff;stop-opacity:1" offset="0"/><stop style="stop-color:#fff;stop-opacity:0" offset="1"/></linearGradient></defs><path d="M66.846 2.502a2.647 2.647 0 0 0-2.668 2.031l-2.776 11.512c-3.572-.48-7.483-.725-11.402-.725-6.621 0-13.239.68-18.193 2.059-2.478.689-4.54 1.55-5.993 2.615-1.451 1.066-2.31 2.385-2.212 3.897l4.17 65.086c.094 1.48.904 2.77 2.181 3.835 1.278 1.067 3.029 1.932 5.096 2.624C39.183 96.818 44.59 97.5 50 97.5s10.817-.682 14.951-2.064c2.067-.692 3.818-1.557 5.096-2.624 1.277-1.066 2.087-2.355 2.182-3.835l4.17-65.086c.096-1.512-.762-2.831-2.213-3.897-1.452-1.065-3.515-1.926-5.993-2.615-.304-.085-.634-.159-.95-.238l2.704-11.215a2.651 2.651 0 0 0-1.959-3.205l-.607-.145a2.7 2.7 0 0 0-.535-.074z" style="opacity:1;vector-effect:none;fill:#3651e7;fill-opacity:1;stroke:#fff;stroke-width:4;stroke-linecap:round;stroke-linejoin:miter;stroke-miterlimit:4;stroke-dasharray:none;stroke-dashoffset:3.20000005;stroke-opacity:1"/><path d="M66.846 2.502a2.647 2.647 0 0 0-2.668 2.031l-2.776 11.512c-3.572-.48-7.483-.725-11.402-.725-6.621 0-13.239.68-18.193 2.059-2.478.689-4.54 1.55-5.993 2.615-1.451 1.066-2.31 2.385-2.212 3.897l4.17 65.086c.094 1.48.904 2.77 2.181 3.835 1.278 1.067 3.029 1.932 5.096 2.624C39.183 96.818 44.59 97.5 50 97.5s10.817-.682 14.951-2.064c2.067-.692 3.818-1.557 5.096-2.624 1.277-1.066 2.087-2.355 2.182-3.835l4.17-65.086c.096-1.512-.762-2.831-2.213-3.897-1.452-1.065-3.515-1.926-5.993-2.615-.304-.085-.634-.159-.95-.238l2.704-11.215a2.651 2.651 0 0 0-1.959-3.205l-.607-.145a2.7 2.7 0 0 0-.535-.074z" style="opacity:1;vector-effect:none;fill:#3651e7;fill-opacity:1;stroke:none;stroke-width:.72883207;stroke-linecap:round;stroke-linejoin:miter;stroke-miterlimit:4;stroke-dasharray:none;stroke-dashoffset:3.20000005;stroke-opacity:1"/></svg>