<?xml version="1.0" encoding="UTF-8" standalone="no"?>
<svg
   xmlns:dc="http://purl.org/dc/elements/1.1/"
   xmlns:cc="http://creativecommons.org/ns#"
   xmlns:rdf="http://www.w3.org/1999/02/22-rdf-syntax-ns#"
   xmlns:svg="http://www.w3.org/2000/svg"
   xmlns="http://www.w3.org/2000/svg"
   xmlns:xlink="http://www.w3.org/1999/xlink"
   id="svg962"
   width="100"
   height="100"
   xml:space="preserve"
   version="1.0"><metadata
     id="metadata35"><rdf:RDF><cc:Work
         rdf:about=""><dc:format>image/svg+xml</dc:format><dc:type
           rdf:resource="http://purl.org/dc/dcmitype/StillImage" /><dc:title></dc:title><dc:date>2021</dc:date><dc:creator><cc:Agent><dc:title>Timothée Giet</dc:title></cc:Agent></dc:creator><cc:license
           rdf:resource="http://creativecommons.org/licenses/by-sa/4.0/" /></cc:Work><cc:License
         rdf:about="http://creativecommons.org/licenses/by-sa/4.0/"><cc:permits
           rdf:resource="http://creativecommons.org/ns#Reproduction" /><cc:permits
           rdf:resource="http://creativecommons.org/ns#Distribution" /><cc:requires
           rdf:resource="http://creativecommons.org/ns#Notice" /><cc:requires
           rdf:resource="http://creativecommons.org/ns#Attribution" /><cc:permits
           rdf:resource="http://creativecommons.org/ns#DerivativeWorks" /><cc:requires
           rdf:resource="http://creativecommons.org/ns#ShareAlike" /></cc:License></rdf:RDF></metadata><defs
     id="defs964"><linearGradient
       id="linearGradient1077"><stop
         style="stop-color:#ffffff;stop-opacity:1;"
         offset="0"
         id="stop1073" /><stop
         style="stop-color:#ffffff;stop-opacity:0;"
         offset="1"
         id="stop1075" /></linearGradient><linearGradient
       id="linearGradient1069"><stop
         style="stop-color:#ffffff;stop-opacity:1;"
         offset="0"
         id="stop1065" /><stop
         style="stop-color:#ffffff;stop-opacity:0;"
         offset="1"
         id="stop1067" /></linearGradient><linearGradient
       gradientTransform="matrix(0.75568378,0,0,0.75568378,92.21581,23.837604)"
       xlink:href="#linearGradient1069"
       id="linearGradient1071"
       x1="0"
       y1="50"
       x2="80"
       y2="50"
       gradientUnits="userSpaceOnUse" /><linearGradient
       gradientTransform="matrix(0.75568378,0,0,0.75568378,92.21581,23.837604)"
       xlink:href="#linearGradient1077"
       id="linearGradient1079"
       x1="0"
       y1="80"
       x2="80"
       y2="80"
       gradientUnits="userSpaceOnUse" /></defs><path
     id="rect840-3"
     d="m 66.8457,2.5019526 c -1.23591,-0.044235 -2.36631,0.7802878 -2.66797,2.03125 L 61.40234,16.044922 C 57.82956,15.564448 53.91941,15.320313 50,15.320312 c -6.62106,2e-6 -13.23901,0.680625 -18.19336,2.058594 -2.47717,0.688985 -4.54035,1.549759 -5.99219,2.615235 -1.45184,1.065475 -2.30973,2.384808 -2.21289,3.896484 l 4.16992,65.085937 c 0.0949,1.480875 0.90408,2.769877 2.18164,3.835938 1.27761,1.066061 3.02841,1.931673 5.09571,2.623047 C 39.18343,96.818295 44.59032,97.5 50,97.5 c 5.40968,0 10.81657,-0.681705 14.95117,-2.064453 2.0673,-0.691374 3.81811,-1.556986 5.09571,-2.623047 1.27758,-1.066061 2.08677,-2.355063 2.18164,-3.835938 l 4.16992,-65.085937 c 0.0968,-1.511676 -0.76105,-2.831009 -2.21289,-3.896484 -1.45184,-1.065476 -3.51502,-1.92625 -5.99219,-2.615235 -0.30464,-0.08473 -0.63434,-0.158819 -0.95117,-0.238281 L 69.94727,5.9257807 C 70.29203,4.4961096 69.41795,3.0654572 67.98828,2.7207026 L 67.38086,2.5761714 c -0.1787,-0.043095 -0.3586,-0.0679 -0.53516,-0.074219 z"
     style="opacity:1;vector-effect:none;fill:#3651e7;fill-opacity:1;stroke:#ffffff;stroke-width:4;stroke-linecap:round;stroke-linejoin:miter;stroke-miterlimit:4;stroke-dasharray:none;stroke-dashoffset:3.20000005;stroke-opacity:1" /><path
     id="rect840"
     d="m 66.8457,2.5019531 c -1.23591,-0.044235 -2.36631,0.7802878 -2.66797,2.03125 L 61.40234,16.044922 C 57.82956,15.564448 53.91941,15.320313 50,15.320312 c -6.62106,2e-6 -13.23901,0.680625 -18.19336,2.058594 -2.47717,0.688985 -4.54035,1.549759 -5.99219,2.615235 -1.45184,1.065475 -2.30973,2.384808 -2.21289,3.896484 l 4.16992,65.085937 c 0.0949,1.480875 0.90408,2.769877 2.18164,3.835938 1.27761,1.066061 3.02841,1.931673 5.09571,2.623047 C 39.18343,96.818295 44.59032,97.5 50,97.5 c 5.40968,0 10.81657,-0.681705 14.95117,-2.064453 2.0673,-0.691374 3.81811,-1.556986 5.09571,-2.623047 1.27758,-1.066061 2.08677,-2.355063 2.18164,-3.835938 l 4.16992,-65.085937 c 0.0968,-1.511676 -0.76105,-2.831009 -2.21289,-3.896484 -1.45184,-1.065476 -3.51502,-1.92625 -5.99219,-2.615235 -0.30464,-0.08473 -0.63434,-0.158819 -0.95117,-0.238281 L 69.94727,5.9257812 C 70.29203,4.4961101 69.41795,3.0654577 67.98828,2.7207031 L 67.38086,2.5761719 c -0.1787,-0.043095 -0.3586,-0.0679 -0.53516,-0.074219 z"
     style="opacity:1;vector-effect:none;fill:#3651e7;fill-opacity:1;stroke:none;stroke-width:0.72883207;stroke-linecap:round;stroke-linejoin:miter;stroke-miterlimit:4;stroke-dasharray:none;stroke-dashoffset:3.20000005;stroke-opacity:1" /></svg>