<svg xmlns:dc="http://purl.org/dc/elements/1.1/" xmlns:cc="http://creativecommons.org/ns#" xmlns:rdf="http://www.w3.org/1999/02/22-rdf-syntax-ns#" xmlns="http://www.w3.org/2000/svg" width="100" height="100"><metadata><rdf:RDF><cc:Work><dc:format>image/svg+xml</dc:format><dc:type rdf:resource="http://purl.org/dc/dcmitype/StillImage"/><dc:title/><dc:date>2021</dc:date><dc:creator><cc:Agent><dc:title>Timothée Giet</dc:title></cc:Agent></dc:creator><cc:license rdf:resource="http://creativecommons.org/licenses/by-sa/4.0/"/></cc:Work><cc:License rdf:about="http://creativecommons.org/licenses/by-sa/4.0/"><cc:permits rdf:resource="http://creativecommons.org/ns#Reproduction"/><cc:permits rdf:resource="http://creativecommons.org/ns#Distribution"/><cc:requires rdf:resource="http://creativecommons.org/ns#Notice"/><cc:requires rdf:resource="http://creativecommons.org/ns#Attribution"/><cc:permits rdf:resource="http://creativecommons.org/ns#DerivativeWorks"/><cc:requires rdf:resource="http://creativecommons.org/ns#ShareAlike"/></cc:License></rdf:RDF></metadata><path style="color:#000;display:inline;overflow:visible;visibility:visible;opacity:1;fill:#3651e7;fill-opacity:1;fill-rule:nonzero;stroke:#fff;stroke-width:4;stroke-linecap:round;stroke-linejoin:round;stroke-miterlimit:4;stroke-dasharray:none;stroke-dashoffset:0;stroke-opacity:1;marker:none;enable-background:accumulate" d="M97.5 50A47.5 47.5 0 0 1 50 97.5 47.5 47.5 0 0 1 2.5 50 47.5 47.5 0 0 1 50 2.5 47.5 47.5 0 0 1 97.5 50z"/><path style="color:#000;display:inline;overflow:visible;visibility:visible;opacity:1;fill:#3651e7;fill-opacity:1;fill-rule:nonzero;stroke:none;stroke-width:.4929519;stroke-linecap:round;stroke-linejoin:round;stroke-miterlimit:4;stroke-dasharray:none;stroke-dashoffset:0;stroke-opacity:1;marker:none;enable-background:accumulate" d="M97.5 50A47.5 47.5 0 0 1 50 97.5 47.5 47.5 0 0 1 2.5 50 47.5 47.5 0 0 1 50 2.5 47.5 47.5 0 0 1 97.5 50z"/></svg>