<?xml version="1.0" encoding="UTF-8" standalone="no"?>
<svg
   xmlns:dc="http://purl.org/dc/elements/1.1/"
   xmlns:cc="http://creativecommons.org/ns#"
   xmlns:rdf="http://www.w3.org/1999/02/22-rdf-syntax-ns#"
   xmlns:svg="http://www.w3.org/2000/svg"
   xmlns="http://www.w3.org/2000/svg"
   id="svg2"
   version="1.1"
   width="100"
   height="100">
  <metadata
     id="metadata8">
    <rdf:RDF>
      <cc:Work
         rdf:about="">
        <dc:format>image/svg+xml</dc:format>
        <dc:type
           rdf:resource="http://purl.org/dc/dcmitype/StillImage" />
        <dc:title></dc:title>
        <dc:date>2021</dc:date>
        <dc:creator>
          <cc:Agent>
            <dc:title>Timothée Giet</dc:title>
          </cc:Agent>
        </dc:creator>
        <cc:license
           rdf:resource="http://creativecommons.org/licenses/by-sa/4.0/" />
      </cc:Work>
      <cc:License
         rdf:about="http://creativecommons.org/licenses/by-sa/4.0/">
        <cc:permits
           rdf:resource="http://creativecommons.org/ns#Reproduction" />
        <cc:permits
           rdf:resource="http://creativecommons.org/ns#Distribution" />
        <cc:requires
           rdf:resource="http://creativecommons.org/ns#Notice" />
        <cc:requires
           rdf:resource="http://creativecommons.org/ns#Attribution" />
        <cc:permits
           rdf:resource="http://creativecommons.org/ns#DerivativeWorks" />
        <cc:requires
           rdf:resource="http://creativecommons.org/ns#ShareAlike" />
      </cc:License>
    </rdf:RDF>
  </metadata>
  <defs
     id="defs6" />
  <path
     id="path1174-3"
     d="M 47.945312 2.5 C 47.65914 2.50006 47.377355 2.5747969 47.128906 2.7167969 L 18.349609 19.162109 C 17.837262 19.454889 17.52158 19.999744 17.521484 20.589844 L 17.521484 31.582031 C 17.521575 32.490231 18.257823 33.226473 19.166016 33.226562 L 19.177734 33.226562 L 19.177734 95.855469 C 19.177825 96.763659 19.914073 97.49991 20.822266 97.5 L 50.978516 97.5 C 51.264688 97.49995 51.544521 97.425203 51.792969 97.283203 L 80.572266 80.837891 C 81.084613 80.545121 81.400294 80.000246 81.400391 79.410156 L 81.400391 16.707031 L 81.650391 16.564453 C 82.162738 16.271673 82.478419 15.726819 82.478516 15.136719 L 82.478516 4.1445312 C 82.478426 3.2363313 81.742177 2.50009 80.833984 2.5 L 47.945312 2.5 z "
     style="color:#000000;font-style:normal;font-variant:normal;font-weight:normal;font-stretch:normal;font-size:medium;line-height:normal;font-family:sans-serif;font-variant-ligatures:normal;font-variant-position:normal;font-variant-caps:normal;font-variant-numeric:normal;font-variant-alternates:normal;font-feature-settings:normal;text-indent:0;text-align:start;text-decoration:none;text-decoration-line:none;text-decoration-style:solid;text-decoration-color:#000000;letter-spacing:normal;word-spacing:normal;text-transform:none;writing-mode:lr-tb;direction:ltr;text-orientation:mixed;dominant-baseline:auto;baseline-shift:baseline;text-anchor:start;white-space:normal;shape-padding:0;clip-rule:nonzero;display:inline;overflow:visible;visibility:visible;opacity:1;isolation:auto;mix-blend-mode:normal;color-interpolation:sRGB;color-interpolation-filters:linearRGB;solid-color:#000000;solid-opacity:1;vector-effect:none;fill:#3651e7;fill-opacity:1;fill-rule:nonzero;stroke:#ffffff;stroke-width:4;stroke-linecap:butt;stroke-linejoin:round;stroke-miterlimit:4;stroke-dasharray:none;stroke-dashoffset:0;stroke-opacity:1;color-rendering:auto;image-rendering:auto;shape-rendering:auto;text-rendering:auto;enable-background:accumulate" />
  <path
     id="path1174-3-0"
     d="m 47.945312,2.5 c -0.286172,6e-5 -0.567957,0.074797 -0.816406,0.2167969 L 18.349609,19.162109 c -0.512347,0.29278 -0.828029,0.837635 -0.828125,1.427735 v 10.992187 c 9.1e-5,0.9082 0.736339,1.644442 1.644532,1.644531 h 0.01172 v 62.628907 c 9.1e-5,0.90819 0.736339,1.644441 1.644532,1.644531 h 30.15625 c 0.286172,-5e-5 0.566005,-0.0748 0.814453,-0.216797 L 80.572266,80.837891 c 0.512347,-0.29277 0.828028,-0.837645 0.828125,-1.427735 V 16.707031 l 0.25,-0.142578 c 0.512347,-0.29278 0.828028,-0.837634 0.828125,-1.427734 V 4.1445312 C 82.478426,3.2363313 81.742177,2.50009 80.833984,2.5 Z"
     style="color:#000000;font-style:normal;font-variant:normal;font-weight:normal;font-stretch:normal;font-size:medium;line-height:normal;font-family:sans-serif;font-variant-ligatures:normal;font-variant-position:normal;font-variant-caps:normal;font-variant-numeric:normal;font-variant-alternates:normal;font-feature-settings:normal;text-indent:0;text-align:start;text-decoration:none;text-decoration-line:none;text-decoration-style:solid;text-decoration-color:#000000;letter-spacing:normal;word-spacing:normal;text-transform:none;writing-mode:lr-tb;direction:ltr;text-orientation:mixed;dominant-baseline:auto;baseline-shift:baseline;text-anchor:start;white-space:normal;shape-padding:0;clip-rule:nonzero;display:inline;overflow:visible;visibility:visible;opacity:1;isolation:auto;mix-blend-mode:normal;color-interpolation:sRGB;color-interpolation-filters:linearRGB;solid-color:#000000;solid-opacity:1;vector-effect:none;fill:#3651e7;fill-opacity:1;fill-rule:nonzero;stroke:none;stroke-width:3.28899431;stroke-linecap:butt;stroke-linejoin:round;stroke-miterlimit:4;stroke-dasharray:none;stroke-dashoffset:0;stroke-opacity:1;color-rendering:auto;image-rendering:auto;shape-rendering:auto;text-rendering:auto;enable-background:accumulate" />
</svg>
