<!--Created with Inkscape (http://www.inkscape.org/)--><svg xmlns:dc="http://purl.org/dc/elements/1.1/" xmlns:cc="http://creativecommons.org/ns#" xmlns:rdf="http://www.w3.org/1999/02/22-rdf-syntax-ns#" xmlns="http://www.w3.org/2000/svg" xmlns:sodipodi="http://sodipodi.sourceforge.net/DTD/sodipodi-0.dtd" xmlns:inkscape="http://www.inkscape.org/namespaces/inkscape" width="89.391777" height="88.148598" inkscape:version="0.91 r13725" sodipodi:docname="click_icon.svg"><sodipodi:namedview pagecolor="#ffffff" bordercolor="#666666" borderopacity="1.0" inkscape:pageopacity="0.0" inkscape:pageshadow="2" inkscape:zoom="7.919596" inkscape:cx="1.2371471" inkscape:cy="42.255951" inkscape:document-units="px" inkscape:current-layer="layer1" showgrid="false" fit-margin-top="0" fit-margin-left="0" fit-margin-right="0" fit-margin-bottom="0" inkscape:window-width="1880" inkscape:window-height="1060" inkscape:window-x="-2" inkscape:window-y="-3" inkscape:window-maximized="1"/><metadata><rdf:RDF><cc:Work><dc:format>image/svg+xml</dc:format><dc:type rdf:resource="http://purl.org/dc/dcmitype/StillImage"/><dc:title/><dc:date>2015</dc:date><dc:creator><cc:Agent><dc:title>Timothée Giet</dc:title></cc:Agent></dc:creator><cc:license rdf:resource="http://creativecommons.org/licenses/by-sa/4.0/"/></cc:Work><cc:License rdf:about="http://creativecommons.org/licenses/by-sa/4.0/"><cc:permits rdf:resource="http://creativecommons.org/ns#Reproduction"/><cc:permits rdf:resource="http://creativecommons.org/ns#Distribution"/><cc:requires rdf:resource="http://creativecommons.org/ns#Notice"/><cc:requires rdf:resource="http://creativecommons.org/ns#Attribution"/><cc:permits rdf:resource="http://creativecommons.org/ns#DerivativeWorks"/><cc:requires rdf:resource="http://creativecommons.org/ns#ShareAlike"/></cc:License></rdf:RDF></metadata><g inkscape:label="Calque 1" inkscape:groupmode="layer"><path style="fill:#2a2a2a;fill-opacity:1;fill-rule:evenodd;stroke:none;stroke-width:2.12904119;stroke-linecap:butt;stroke-linejoin:miter;stroke-miterlimit:4;stroke-dasharray:none;stroke-opacity:1" d="M45.962 490.637c13.35 6.145 53.787-39.309 20.812-51.986-29.495-11.34-38.282 45.74-20.812 51.986z" sodipodi:nodetypes="csc" inkscape:connector-curvature="0" transform="translate(-.736 -405.685)"/><path style="fill:#83cbc6;fill-opacity:1;fill-rule:evenodd;stroke:none;stroke-width:2.12904119;stroke-linecap:butt;stroke-linejoin:miter;stroke-miterlimit:4;stroke-dasharray:none;stroke-opacity:1" d="M47.258 487.84c11.94 5.495 48.1-35.152 18.611-46.49-26.376-10.14-34.234 40.905-18.611 46.49z" sodipodi:nodetypes="csc" inkscape:connector-curvature="0" transform="translate(-.736 -405.685)"/><path style="fill:none;stroke:none;stroke-width:2.12904119;stroke-linecap:butt;stroke-linejoin:miter;stroke-miterlimit:4;stroke-dasharray:none;stroke-opacity:1" d="M46.823 486.42c11.94 5.496 48.1-35.151 18.612-46.488-26.377-10.14-34.234 40.904-18.612 46.489z" sodipodi:nodetypes="csc" inkscape:connector-curvature="0" transform="translate(-.736 -405.685)"/><path style="fill:#f05e5e;fill-opacity:1;fill-rule:evenodd;stroke:none;stroke-width:2.12904119;stroke-linecap:butt;stroke-linejoin:miter;stroke-miterlimit:4;stroke-dasharray:none;stroke-opacity:1" d="M58.207 34.34c-6.858.118-11.994 4.857-15.3 11.31 6.24 4.836 13.7 7.856 13.7 7.856 1.77-5.679 3.893-11.474 8.137-17.977-2.325-.846-4.507-1.224-6.537-1.19z"/><path style="color:#000;font-style:normal;font-variant:normal;font-weight:400;font-stretch:normal;font-size:medium;line-height:normal;font-family:sans-serif;text-indent:0;text-align:start;text-decoration:none;text-decoration-line:none;text-decoration-style:solid;text-decoration-color:#000;letter-spacing:normal;word-spacing:normal;text-transform:none;direction:ltr;block-progression:tb;writing-mode:lr-tb;baseline-shift:baseline;text-anchor:start;white-space:normal;clip-rule:nonzero;display:inline;overflow:visible;visibility:visible;opacity:1;isolation:auto;mix-blend-mode:normal;color-interpolation:sRGB;color-interpolation-filters:linearRGB;solid-color:#000;solid-opacity:1;fill:#282828;fill-opacity:1;fill-rule:evenodd;stroke:none;stroke-width:2.12904119;stroke-linecap:butt;stroke-linejoin:miter;stroke-miterlimit:4;stroke-dasharray:none;stroke-dashoffset:0;stroke-opacity:1;color-rendering:auto;image-rendering:auto;shape-rendering:auto;text-rendering:auto;enable-background:accumulate" d="m43.205 450.028-1.006 1.29s2.92 3.41 8.672 6.42c5.752 3.01 14.046 6.041 25.637 6.18l.383-2.486c-11.234-.135-19.536-2.525-25.032-5.402-5.496-2.877-8.654-6.002-8.654-6.002z" inkscape:connector-curvature="0" sodipodi:nodetypes="ccsccsc" transform="translate(-.736 -405.685)"/><path style="color:#000;font-style:normal;font-variant:normal;font-weight:400;font-stretch:normal;font-size:medium;line-height:normal;font-family:sans-serif;text-indent:0;text-align:start;text-decoration:none;text-decoration-line:none;text-decoration-style:solid;text-decoration-color:#000;letter-spacing:normal;word-spacing:normal;text-transform:none;direction:ltr;block-progression:tb;writing-mode:lr-tb;baseline-shift:baseline;text-anchor:start;white-space:normal;clip-rule:nonzero;display:inline;overflow:visible;visibility:visible;opacity:1;isolation:auto;mix-blend-mode:normal;color-interpolation:sRGB;color-interpolation-filters:linearRGB;solid-color:#000;solid-opacity:1;fill:#2a2a2a;fill-opacity:1;fill-rule:evenodd;stroke:none;stroke-width:2.12904119;stroke-linecap:butt;stroke-linejoin:miter;stroke-miterlimit:4;stroke-dasharray:none;stroke-dashoffset:0;stroke-opacity:1;color-rendering:auto;image-rendering:auto;shape-rendering:auto;text-rendering:auto;enable-background:accumulate" d="M65.465 440.02c-3.96 6-7.779 11.804-9.843 18.351l2.389.82c1.984-6.296 4.628-12.465 8.517-18.357z" inkscape:connector-curvature="0" sodipodi:nodetypes="ccccc" transform="translate(-.736 -405.685)"/><path d="M20.98 5.957 9.938-2.325l-5.521-2.76 4.049-5.705 7.73-4.233 8.465 9.018 4.6 4.232 8.283-6.625 2.024 2.209.552 3.496-2.392 16.011-18.404 1.473-4.049-2.577 1.288-2.76 4.417-3.497z" style="fill:#f32929;fill-opacity:1;fill-rule:evenodd;stroke:none;stroke-width:1px;stroke-linecap:butt;stroke-linejoin:miter;stroke-opacity:1" inkscape:connector-curvature="0" transform="matrix(1.00303 0 0 1 7.948 19.102)"/><path sodipodi:nodetypes="ccccccccccscccccccccccccccc" d="m17.486-17.969-9.752 5.611-8.28 7.452L9.579.069l7.547 5.712-5.719 5.688L16.75 17l22.438-1.656L42.874-6l-4.219-5.156s-7.177 6.24-8.833 6.24c-1.656 0-12.337-13.053-12.337-13.053zm-1.298 5.875 8.843 10.32L29.64.629l6.423-5.723 1.844-.718.938 2.75-.76 3.322-2.181 11.41-9.403 1.111-7.375.344-1.469-1.094 6.282-4.219-1.844-4.968L7.53-5.812l8.657-6.282z" style="fill:#9a0e0e;fill-opacity:1;fill-rule:evenodd;stroke:none" inkscape:connector-curvature="0" transform="matrix(1.00303 0 0 1 7.948 19.102)"/><g style="font-style:normal;font-variant:normal;font-weight:700;font-stretch:normal;font-size:47.12679291px;font-family:Mallige;-inkscape-font-specification:'Mallige Bold';fill:#2a2a2a;fill-opacity:1;stroke:#2a2a2a;stroke-width:1.59787893;stroke-linecap:butt;stroke-linejoin:miter;stroke-miterlimit:4;stroke-dasharray:none;stroke-opacity:1"><path d="m13.036 455.564 15.36-.582v7.094l-25.694.35.485-6.862 12.54-11.068c1.12-1.013 1.95-2.002 2.486-2.969.537-.966.684-1.738.684-2.781 0-1.611-.544-2.093-1.633-3.075-1.074-.981-2.388-1.123-4.182-1.123-1.381 0-2.892.299-4.534.897-1.641.583-3.398 1.923-5.27 3.09v-9.41a41.25 41.25 0 0 1 5.915-1.496 32.116 32.116 0 0 1 5.73-.53c4.11 0 7.302.906 9.572 2.716 2.286 1.81 3.429 4.333 3.429 7.57 0 1.872-.484 3.62-1.45 5.247-.966 1.61-3 3.774-6.098 6.489z" style="font-style:normal;font-variant:normal;font-weight:700;font-stretch:normal;font-family:Mallige;-inkscape-font-specification:'Mallige Bold';fill:#2a2a2a;fill-opacity:1;stroke:#2a2a2a;stroke-width:1.59787893;stroke-opacity:1" inkscape:connector-curvature="0" sodipodi:nodetypes="ccccccsscsccccscsccc" transform="matrix(1.04285 0 0 1.08496 -.425 -418.863)"/></g><g style="font-style:normal;font-variant:normal;font-weight:700;font-stretch:normal;font-size:47.12679291px;font-family:Mallige;-inkscape-font-specification:'Mallige Bold';fill:#e4f4f3;fill-opacity:1;stroke:#2a2a2a;stroke-width:1.59787893;stroke-linecap:butt;stroke-linejoin:miter;stroke-miterlimit:4;stroke-dasharray:none;stroke-opacity:1"><path d="M15.149 455.564h15.118v6.512H5.3v-6.512l12.54-11.068q1.68-1.519 2.486-2.969.806-1.45.806-3.014 0-2.416-1.634-3.889-1.611-1.473-4.303-1.473-2.071 0-4.534.898-2.462.874-5.27 2.623v-7.548q2.992-.99 5.915-1.495 2.922-.53 5.73-.53 6.167 0 9.572 2.716 3.429 2.715 3.429 7.57 0 2.808-1.45 5.247-1.45 2.416-6.098 6.489l-7.34 6.443z" style="font-style:normal;font-variant:normal;font-weight:700;font-stretch:normal;font-family:Mallige;-inkscape-font-specification:'Mallige Bold';fill:#e4f4f3;fill-opacity:1;stroke:#2a2a2a;stroke-width:1.59787893;stroke-opacity:1" transform="matrix(.94647 0 0 1.05656 -.736 -405.685)"/></g><path style="color:#000;font-style:normal;font-variant:normal;font-weight:400;font-stretch:normal;font-size:medium;line-height:normal;font-family:sans-serif;text-indent:0;text-align:start;text-decoration:none;text-decoration-line:none;text-decoration-style:solid;text-decoration-color:#000;letter-spacing:normal;word-spacing:normal;text-transform:none;direction:ltr;block-progression:tb;writing-mode:lr-tb;baseline-shift:baseline;text-anchor:start;white-space:normal;clip-rule:nonzero;display:inline;overflow:visible;visibility:visible;opacity:1;isolation:auto;mix-blend-mode:normal;color-interpolation:sRGB;color-interpolation-filters:linearRGB;solid-color:#000;solid-opacity:1;fill:#2a2a2a;fill-opacity:1;fill-rule:nonzero;stroke:none;stroke-width:1.00151086px;stroke-linecap:butt;stroke-linejoin:miter;stroke-miterlimit:4;stroke-dasharray:none;stroke-dashoffset:0;stroke-opacity:1;color-rendering:auto;image-rendering:auto;shape-rendering:auto;text-rendering:auto;enable-background:accumulate" d="M55.879.012c-3.897-.076-8.082.274-12.494 1.119-.318.03-.623.044-.944.078l.104.996.113-.01.016.078c.282-.058.555-.094.836-.148C61.303.448 74.189 4.353 81.46 9.168c.487.38.947.764 1.378 1.15 3.507 3.146 5.086 6.445 4.63 8.649-.227 1.102-.912 1.984-2.23 2.6-.538.251-1.213.435-1.968.572-1.239.143-2.687.155-4.403-.041l-.021-.002-.02-.004c-.928-.03-1.764.024-2.56.11-1.98.074-3.564.456-4.817 1.071-1.843.906-2.964 2.306-3.623 3.793-.44.995-.674 2.021-.818 2.995-.37 1.42-.528 2.788-.649 3.88l.293.032a2.416 2.416 0 0 1-.062.345l.955.303c.237-.746.195-1.796.297-3.08.031-.394.08-.808.14-1.227.305-1.17.751-2.352 1.461-3.404 1.242-1.84 3.27-3.314 6.79-3.707a20.96 20.96 0 0 1 3.001.1h.014c1.729.122 3.208.046 4.451-.205.66-.092 1.284-.211 1.832-.385 1.713-.543 2.904-1.498 3.475-2.744.571-1.246.503-2.728-.108-4.252-.61-1.525-1.759-3.117-3.412-4.68-1.027-.971-2.258-1.93-3.674-2.853C76.15 3.859 67.188.23 55.88.012z"/></g></svg>