<svg xmlns:dc="http://purl.org/dc/elements/1.1/" xmlns:cc="http://creativecommons.org/ns#" xmlns:rdf="http://www.w3.org/1999/02/22-rdf-syntax-ns#" xmlns="http://www.w3.org/2000/svg" width="190.91853mm" height="76.764992mm" viewBox="0 0 676.48299 272.00194" version="1.1" id="svg30"><metadata id="metadata18"><rdf:RDF><cc:Work><dc:format>image/svg+xml</dc:format><dc:type rdf:resource="http://purl.org/dc/dcmitype/StillImage"/><dc:title/><dc:date>2023</dc:date><dc:creator><cc:Agent><dc:title>Timothée Giet</dc:title></cc:Agent></dc:creator><cc:license rdf:resource="http://creativecommons.org/licenses/by-sa/4.0/"/></cc:Work><cc:License rdf:about="http://creativecommons.org/licenses/by-sa/4.0/"><cc:permits rdf:resource="http://creativecommons.org/ns#Reproduction"/><cc:permits rdf:resource="http://creativecommons.org/ns#Distribution"/><cc:requires rdf:resource="http://creativecommons.org/ns#Notice"/><cc:requires rdf:resource="http://creativecommons.org/ns#Attribution"/><cc:permits rdf:resource="http://creativecommons.org/ns#DerivativeWorks"/><cc:requires rdf:resource="http://creativecommons.org/ns#ShareAlike"/></cc:License></rdf:RDF></metadata><g id="g28"><path id="path20" style="font-size:12px;fill:#999;fill-opacity:1;fill-rule:evenodd;stroke-width:1.27213" d="M21.186 0C11.912 0 4.447 7.494 4.447 16.805v175.591c0 6.395 3.521 11.932 8.73 14.774H5.58A5.579 5.579 0 0 0 0 212.77v11.14a5.579 5.579 0 0 0 5.58 5.6h54.59v59.493l220.717 1.13 59.412-39.312 234.943-3.611 123.992-17.7h16.768a5.579 5.579 0 0 0 5.58-5.6v-11.14a5.579 5.579 0 0 0-5.58-5.601h-9.785a16.775 16.775 0 0 0 8.73-14.774V16.805C714.947 7.495 707.482 0 698.21 0H21.186z" transform="scale(.9375)"/></g></svg>