<!--Created with Inkscape (http://www.inkscape.org/)--><svg xmlns:dc="http://purl.org/dc/elements/1.1/" xmlns:cc="http://creativecommons.org/ns#" xmlns:rdf="http://www.w3.org/1999/02/22-rdf-syntax-ns#" xmlns="http://www.w3.org/2000/svg" xmlns:sodipodi="http://sodipodi.sourceforge.net/DTD/sodipodi-0.dtd" xmlns:inkscape="http://www.inkscape.org/namespaces/inkscape" width="65.786804mm" height="30.984308mm" viewBox="0 0 233.10285 109.78692" inkscape:version="0.92.1 r15371" sodipodi:docname="engine.svg"><sodipodi:namedview pagecolor="#ffffff" bordercolor="#666666" borderopacity="1.0" inkscape:pageopacity="0.0" inkscape:pageshadow="2" inkscape:zoom="0.98994949" inkscape:cx="253.97871" inkscape:cy="64.009466" inkscape:document-units="px" inkscape:current-layer="layer1" showgrid="false" fit-margin-top="0" fit-margin-left="0" fit-margin-right="0" fit-margin-bottom="0" inkscape:window-width="1884" inkscape:window-height="1051" inkscape:window-x="0" inkscape:window-y="0" inkscape:window-maximized="1"/><metadata><rdf:RDF><cc:Work><dc:format>image/svg+xml</dc:format><dc:type rdf:resource="http://purl.org/dc/dcmitype/StillImage"/><dc:title/><dc:date>2017</dc:date><dc:creator><cc:Agent><dc:title>Timothée Giet</dc:title></cc:Agent></dc:creator><cc:license rdf:resource="http://creativecommons.org/licenses/by-sa/4.0/"/></cc:Work><cc:License rdf:about="http://creativecommons.org/licenses/by-sa/4.0/"><cc:permits rdf:resource="http://creativecommons.org/ns#Reproduction"/><cc:permits rdf:resource="http://creativecommons.org/ns#Distribution"/><cc:requires rdf:resource="http://creativecommons.org/ns#Notice"/><cc:requires rdf:resource="http://creativecommons.org/ns#Attribution"/><cc:permits rdf:resource="http://creativecommons.org/ns#DerivativeWorks"/><cc:requires rdf:resource="http://creativecommons.org/ns#ShareAlike"/></cc:License></rdf:RDF></metadata><path style="font-size:12px;fill:#999;fill-opacity:1;fill-rule:evenodd;stroke-width:1.27213037" d="M9.08.008C4.913.174 1.228 3.046 0 5.918L.205 57.23c.4 3.649 2.194 7.278 7.121 7.278l95.147.205V88.59h17.572V64.75l46.375.1c25.303-.48 45.668 24.387 45.818 45.45-.188 2.184 1.847 5.382 4.994 5.534l5.5-.147a11.094 11.094 0 0 0 5.442 1.418h9.31c6.182 0 11.159-4.996 11.159-11.203V84.97c0-6.207-4.977-11.203-11.159-11.203h-2.84c.098-.733.171-1.378.211-1.899 2.879-7.17 8.899-71.133-11.277-71.133L9.92.012a9.472 9.472 0 0 0-.84-.004zm95.39 64.709 13.178.027v8.887h-13.177v-8.914zm0 11.832h13.178v9.12h-13.177v-9.12z" transform="scale(.9375)" inkscape:label="Calque 1" inkscape:groupmode="layer"/></svg>