<!--Created with Inkscape (http://www.inkscape.org/)--><svg xmlns:dc="http://purl.org/dc/elements/1.1/" xmlns:cc="http://creativecommons.org/ns#" xmlns:rdf="http://www.w3.org/1999/02/22-rdf-syntax-ns#" xmlns="http://www.w3.org/2000/svg" xmlns:sodipodi="http://sodipodi.sourceforge.net/DTD/sodipodi-0.dtd" xmlns:inkscape="http://www.inkscape.org/namespaces/inkscape" width="113.91727mm" height="34.214252mm" viewBox="0 0 403.64386 121.2316" inkscape:version="0.92.1 r15371" sodipodi:docname="front_road.svg"><sodipodi:namedview pagecolor="#ffffff" bordercolor="#666666" borderopacity="1.0" inkscape:pageopacity="0.0" inkscape:pageshadow="2" inkscape:zoom="1.4" inkscape:cx="385.39335" inkscape:cy="-90.812771" inkscape:document-units="px" inkscape:current-layer="layer1" showgrid="false" fit-margin-top="0" fit-margin-left="0" fit-margin-right="0" fit-margin-bottom="0" inkscape:window-width="1884" inkscape:window-height="1051" inkscape:window-x="0" inkscape:window-y="0" inkscape:window-maximized="1"/><metadata><rdf:RDF><cc:Work><dc:format>image/svg+xml</dc:format><dc:type rdf:resource="http://purl.org/dc/dcmitype/StillImage"/><dc:title/><dc:date>2017</dc:date><dc:creator><cc:Agent><dc:title>Timothée Giet</dc:title></cc:Agent></dc:creator><cc:license rdf:resource="http://creativecommons.org/licenses/by-sa/4.0/"/></cc:Work><cc:License rdf:about="http://creativecommons.org/licenses/by-sa/4.0/"><cc:permits rdf:resource="http://creativecommons.org/ns#Reproduction"/><cc:permits rdf:resource="http://creativecommons.org/ns#Distribution"/><cc:requires rdf:resource="http://creativecommons.org/ns#Notice"/><cc:requires rdf:resource="http://creativecommons.org/ns#Attribution"/><cc:permits rdf:resource="http://creativecommons.org/ns#DerivativeWorks"/><cc:requires rdf:resource="http://creativecommons.org/ns#ShareAlike"/></cc:License></rdf:RDF></metadata><path style="font-size:12px;fill:#999;fill-opacity:1;fill-rule:evenodd;stroke:none;stroke-width:1.27213025" d="M123.26-.637c-.484.003-.981.055-1.485.16l.045-.01L40.766 10.48h-.008c-3.426.565-5.244 3.363-6.133 5.55l-.049.113v.17c-.23.699-.428 1.323-.517 1.89-.096.601-.082 1.198.232 1.711.252.412.667.692 1.18.879H17.535c-8.07 0-14.586 6.542-14.586 14.64v24.721C.69 64.941-.637 70.223-.637 75.941c0 3.367.043 5.285.274 6.313.058.257.109.466.295.697a.839.839 0 0 0 .45.295.843.843 0 0 0 .56-.074c.277-.144.388-.32.519-.518a6.1 6.1 0 0 0 .389-.709c.523-1.085 1.21-2.91 2.117-5.19a14.63 14.63 0 0 0 5.402 6.788c-1.915 20.963 13.788 40.458 37.166 44.877 25.237 4.77 49.886-9.812 55.047-32.6a38.2 38.2 0 0 0 .92-9.777h1.35c-.005.255-.022.509-.022.766 0 23.272 20.914 42.117 46.684 42.117 25.77 0 46.685-18.845 46.685-42.117 0-.257-.016-.51-.021-.766h7.66c3.637 4.265 9.032 6.973 15.082 6.973h63.766c6.05 0 11.446-2.708 15.084-6.973h17.916v.033c0 23.272 20.915 42.121 46.685 42.121 25.77 0 46.686-18.849 46.686-42.12v-.034h6.547c8.07 0 14.585-6.54 14.585-14.639v-35.97c0-8.099-6.515-14.641-14.585-14.641H120.553a8.243 8.243 0 0 0 1.67-.615c1.332-.687 2.414-1.786 2.965-3.305l.005-.021 3.395-11.89c.494-1.74-.233-3.403-1.56-4.413A5.826 5.826 0 0 0 124.66-.5a6.823 6.823 0 0 0-1.4-.137z" transform="scale(.9375)" inkscape:label="Calque 1" inkscape:groupmode="layer"/></svg>