<!--Created with Inkscape (http://www.inkscape.org/)--><svg width="100" height="100" version="1.0" id="svg13224" xmlns="http://www.w3.org/2000/svg" xmlns:rdf="http://www.w3.org/1999/02/22-rdf-syntax-ns#" xmlns:cc="http://creativecommons.org/ns#" xmlns:dc="http://purl.org/dc/elements/1.1/"><metadata id="metadata13206"><rdf:RDF><cc:Work><dc:format>image/svg+xml</dc:format><dc:type rdf:resource="http://purl.org/dc/dcmitype/StillImage"/><dc:date>2024</dc:date><dc:creator><cc:Agent><dc:title>Timothée Giet</dc:title></cc:Agent></dc:creator><cc:license rdf:resource="http://creativecommons.org/licenses/by-sa/4.0/"/></cc:Work><cc:License rdf:about="http://creativecommons.org/licenses/by-sa/4.0/"><cc:permits rdf:resource="http://creativecommons.org/ns#Reproduction"/><cc:permits rdf:resource="http://creativecommons.org/ns#Distribution"/><cc:requires rdf:resource="http://creativecommons.org/ns#Notice"/><cc:requires rdf:resource="http://creativecommons.org/ns#Attribution"/><cc:permits rdf:resource="http://creativecommons.org/ns#DerivativeWorks"/><cc:requires rdf:resource="http://creativecommons.org/ns#ShareAlike"/></cc:License></rdf:RDF></metadata><rect style="fill:#fff;fill-opacity:1;stroke:gray;stroke-width:1;stroke-miterlimit:4;stroke-dasharray:none;stroke-opacity:1" id="rect1078" width="92" height="92" x="2" y="6" ry="5"/><rect style="fill:none;fill-opacity:.984314;stroke:#a1cbd9;stroke-width:2;stroke-linecap:round;stroke-dasharray:none;stroke-opacity:1" id="rect13397" width="24" height="24" x="30" y="10" ry="2"/><rect style="display:inline;fill:none;fill-opacity:.984314;stroke:#a1cbd9;stroke-width:2;stroke-linecap:round;stroke-dasharray:none;stroke-opacity:1" id="rect13397-5" width="24" height="24" x="58" y="10" ry="2"/><rect style="display:inline;fill:none;fill-opacity:.984314;stroke:#a1cbd9;stroke-width:2;stroke-linecap:round;stroke-dasharray:none;stroke-opacity:1" id="rect13397-6" width="24" height="24" x="30" y="38" ry="2"/><rect style="display:inline;fill:none;fill-opacity:.984314;stroke:#a1cbd9;stroke-width:2;stroke-linecap:round;stroke-dasharray:none;stroke-opacity:1" id="rect13397-5-2" width="24" height="24" x="58" y="38" ry="2"/><rect style="display:inline;fill:none;fill-opacity:.984314;stroke:#a1cbd9;stroke-width:2;stroke-linecap:round;stroke-dasharray:none;stroke-opacity:1" id="rect13397-6-9" width="24" height="24" x="30" y="70" ry="2"/><rect style="display:inline;fill:none;fill-opacity:.984314;stroke:#a1cbd9;stroke-width:2;stroke-linecap:round;stroke-dasharray:none;stroke-opacity:1" id="rect13397-5-2-1" width="24" height="24" x="58" y="70" ry="2"/><path style="fill:none;fill-opacity:.984314;stroke:#373737;stroke-width:2;stroke-linecap:butt;stroke-dasharray:none;stroke-opacity:1" d="M6 66h84" id="path14978"/><path style="fill:none;fill-opacity:.984314;stroke:#373737;stroke-width:2;stroke-linecap:butt;stroke-dasharray:none;stroke-opacity:1" d="M10 50h12" id="path16276"/><rect style="fill:#d9a1a1;fill-opacity:.984314;stroke:none;stroke-width:2;stroke-linecap:butt;stroke-dasharray:none;stroke-opacity:1" id="rect16382" width="10" height="10" x="45" y="25" ry="2.5"/><rect style="fill:#a1d9a1;fill-opacity:.984314;stroke:none;stroke-width:2;stroke-linecap:butt;stroke-dasharray:none;stroke-opacity:1" id="rect16384" width="10" height="10" x="57" y="17" ry="2.5"/><path d="m68.254 21.194-.987-1.696 5.466-3.359V27.62l-2.787.241v-7.536z" id="path28080" style="fill:#373737;fill-opacity:.984314;stroke-width:2"/><path d="m60.952 21.517-.592-1.018 3.28-2.016v6.89l-1.672.144v-4.522z" id="path28077" style="fill:#373737;fill-opacity:.984314;stroke-width:2"/><path d="M46.64 31.339V30.17h2.608v1.168z" id="path28072" style="fill:#373737;fill-opacity:.984314;stroke-width:2"/><path d="m50.672 29.517-.592-1.018 3.28-2.016v6.89l-1.672.144v-4.522z" id="path28074" style="fill:#373737;fill-opacity:.984314;stroke-width:2"/><path d="m69.775 55.807-2.867-.99q.133-.09.719-.598t1.094-1.039q.654-.64 1.305-1.494-.319.108-.853.108-1.465-.056-2.36-1.094-.905-1.029-.947-2.494v-.201q0-1.12.547-1.96.602-.918 1.562-1.384.96-.468 2.025-.468 1.855 0 3.04 1.172 1.094 1.093 1.094 2.841 0 .134-.013.28-.039.638-.228 1.267-.185.64-.452 1.162-.267.517-.642 1.116-.37.602-.585.908-.375.6-1.172 1.482-.801.891-1.267 1.386zM70 49.658q.602-.013 1.029-.478.413-.453.413-1.055v-.026q-.03-.387-.228-.693-.198-.306-.534-.495-.332-.173-.706-.173-.625.026-1.038.469-.414.426-.414 1.012v.026q.013.586.453 1 .413.413.999.413z" id="path28086" style="fill:#373737;fill-opacity:.984314;stroke-width:2"/><path d="m65.754 87.56 4.04-4.84q1.318-1.706 1.318-2.426v-.081q-.078-.706-.453-1.052-.345-.322-.84-.322h-.078q-.534.013-.882.388-.345.374-.371.908v.052q0 .732.93 1.201l-1.558 2.05q-.013-.012-.32-.21-.305-.203-.585-.427-1.094-1.029-1.094-2.627v-.215q.04-1.012.573-1.84.52-.813 1.452-1.252.895-.427 1.972-.427h.056q1.038 0 1.93.4.895.4 1.455 1.16.547.761.602 1.826v.159q0 .827-.481 1.855-.534 1.146-1.293 1.973l-1.12 1.24h3.24l-.655 2.507z" id="path28092" style="fill:#373737;fill-opacity:.984314;stroke-width:2"/><path d="m40.086 47.689-1.947-1.309q.069-.185.4-.599.333-.413.707-.667 1.107-.788 2.614-.788.973 0 1.891.427.908.442 1.455 1.227.427.641.427 1.413 0 .201-.026.4-.082.59-.306 1-.241.429-.482.654-.254.227-.28.24.654.32 1.08 1.094.427.772.427 1.546 0 .547-.172 1.013-.19.469-.47.843-.279.371-.559.612-1.012.879-2.907.879-1.172 0-2.184-.44-1.029-.44-1.8-1.321l1.852-1.745q.107.146.374.4.267.251.638.427.521.237.96.267.535-.043.96-.349.414-.306.414-.826 0-.388-.16-.68-.172-.294-.452-.385-.494-.133-1.334-.133h-.4q-.108.013-.173.026v-2.028h.215q.146.013.332.026.72 0 1.24-.212.508-.202.508-.827 0-.507-.362-.813-.36-.306-.895-.306-.491 0-.957.253-.482.267-.628.68z" id="path28083" style="fill:#373737;fill-opacity:.984314;stroke-width:2"/><path d="M41.214 76.412h3.626V82.4h1.56l-.388 2.373h-1.146v2.575l-2.679.24v-2.815h-4.586zm1.146 6.094v-3.574l-1.507 3.574z" id="path28089" style="fill:#373737;fill-opacity:.984314;stroke-width:2"/><path d="M41.941 20.566q.173 0 .625-.319.44-.293.44-.8v-.027q-.013-.452-.293-.68-.28-.228-.72-.228-.413 0-.68.254-.28.267-.293.68v.026q0 .306.186.547.202.254.44.375zm.052 2.266q-.319.107-.8.426-.479.335-.479.96 0 .603.4.896.385.306.974.306.332-.013.638-.173.293-.16.482-.413.16-.228.16-.482v-.078q-.07-.694-.616-1.068-.56-.374-.759-.374zm-2.399-1.065q-.026-.013-.36-.335-.346-.306-.587-.853-.215-.44-.215-1.025 0-.12.013-.254.082-.987.603-1.667.52-.68 1.344-1 .749-.28 1.588-.28h.16q1.481.027 2.467.772.974.749 1.052 2.214v.172q0 .616-.238 1.094-.293.547-.654.84-.361.293-.387.322.426.212 1.028.866.53.612.53 1.598v.19q-.038 1.585-1.119 2.385-1.077.801-2.705.84h-.16q-1.666 0-2.72-.788-1.12-.826-1.173-2.33v-.056q0-.758.32-1.347.318-.6.732-.987.413-.37.481-.37z" id="path28069" style="fill:#373737;fill-opacity:.984314;stroke-width:2"/></svg>