<?xml version="1.0" encoding="UTF-8" standalone="no"?>
<!-- Created with Sodipodi ("http://www.sodipodi.com/") -->
<svg
   xmlns:dc="http://purl.org/dc/elements/1.1/"
   xmlns:cc="http://creativecommons.org/ns#"
   xmlns:rdf="http://www.w3.org/1999/02/22-rdf-syntax-ns#"
   xmlns:svg="http://www.w3.org/2000/svg"
   xmlns="http://www.w3.org/2000/svg"
   xmlns:xlink="http://www.w3.org/1999/xlink"
   xmlns:sodipodi="http://sodipodi.sourceforge.net/DTD/sodipodi-0.dtd"
   xmlns:inkscape="http://www.inkscape.org/namespaces/inkscape"
   id="svg602"
   sodipodi:version="0.32"
   width="83.127678"
   height="65.000015"
   xml:space="preserve"
   sodipodi:docbase="/home/franck/Dessins/Vectoriels/Boutons"
   sodipodi:docname="50.svg"
   inkscape:version="0.46"
   inkscape:output_extension="org.inkscape.output.svg.inkscape"
   sodipodi:modified="true"
   version="1.0"><metadata
     id="metadata33"><rdf:RDF><cc:Work
         rdf:about=""><dc:format>image/svg+xml</dc:format><dc:type
           rdf:resource="http://purl.org/dc/dcmitype/StillImage" /></cc:Work></rdf:RDF></metadata><defs
     id="defs604"><inkscape:perspective
       sodipodi:type="inkscape:persp3d"
       inkscape:vp_x="0 : 32.500008 : 1"
       inkscape:vp_y="0 : 1000 : 0"
       inkscape:vp_z="83.127678 : 32.500008 : 1"
       inkscape:persp3d-origin="41.563839 : 21.666672 : 1"
       id="perspective2786" /><linearGradient
       id="linearGradient641"><stop
         style="stop-color:#005d00;stop-opacity:0.2902;"
         offset="0"
         id="stop642" /><stop
         style="stop-color:#ffffff;stop-opacity:1;"
         offset="1"
         id="stop643" /></linearGradient><linearGradient
       id="linearGradient612"><stop
         style="stop-color:#00cf00;stop-opacity:0.2902;"
         offset="0"
         id="stop613" /><stop
         style="stop-color:#ffffff;stop-opacity:1;"
         offset="1"
         id="stop614" /></linearGradient><linearGradient
       id="linearGradient608"><stop
         style="stop-color:#d7d7d5;stop-opacity:1;"
         offset="0"
         id="stop609" /><stop
         style="stop-color:#ffffff;stop-opacity:1;"
         offset="1"
         id="stop610" /></linearGradient><linearGradient
       xlink:href="#linearGradient612"
       id="linearGradient611"
       x1="0.49664423"
       y1="0.98913556"
       x2="0.48993284"
       y2="-0.22826068" /><linearGradient
       xlink:href="#linearGradient641"
       id="linearGradient634" /><linearGradient
       xlink:href="#linearGradient641"
       id="linearGradient635"
       x1="-0.011904325"
       y1="0.023437222"
       x2="0.95238084"
       y2="0.99218756" /><linearGradient
       xlink:href="#linearGradient641"
       id="linearGradient644"
       x1="0.011364"
       y1="0.0078126118"
       x2="1.0454547"
       y2="1.0000002" /><radialGradient
       xlink:href="#linearGradient608"
       id="radialGradient646"
       cx="0.48863691"
       cy="0.48437524"
       r="0.13725556"
       fx="0.48863691"
       fy="0.48437524" /><radialGradient
       xlink:href="#linearGradient608"
       id="radialGradient647" /><linearGradient
       xlink:href="#linearGradient641"
       id="linearGradient770" /><radialGradient
       xlink:href="#linearGradient608"
       id="radialGradient784"
       cx="0.4999983"
       cy="0.49218491"
       r="0.31717092"
       fx="0.4999983"
       fy="0.49218491" /><linearGradient
       inkscape:collect="always"
       xlink:href="#linearGradient612"
       id="linearGradient2198"
       x1="234.46304"
       y1="735.4422"
       x2="233.05591"
       y2="480.19824"
       gradientTransform="scale(1.8041932,0.5542644)"
       gradientUnits="userSpaceOnUse" /><linearGradient
       inkscape:collect="always"
       xlink:href="#linearGradient641"
       id="linearGradient2200"
       x1="136.56464"
       y1="75.335732"
       x2="178.34737"
       y2="115.42535"
       gradientTransform="scale(0.8660254,1.1547005)"
       gradientUnits="userSpaceOnUse" /><radialGradient
       inkscape:collect="always"
       xlink:href="#linearGradient608"
       id="radialGradient2202"
       cx="158.6147"
       cy="97.831696"
       fx="158.6147"
       fy="97.831696"
       r="6.6024127"
       gradientTransform="scale(0.87562,1.1420479)"
       gradientUnits="userSpaceOnUse" /><linearGradient
       inkscape:collect="always"
       xlink:href="#linearGradient641"
       id="linearGradient2204"
       x1="136.1713"
       y1="71.501572"
       x2="172.68924"
       y2="108.18862"
       gradientTransform="scale(0.8322444,1.2015701)"
       gradientUnits="userSpaceOnUse" /><radialGradient
       inkscape:collect="always"
       xlink:href="#linearGradient608"
       id="radialGradient2206"
       cx="137.09328"
       cy="116.12344"
       fx="137.09328"
       fy="116.12344"
       r="17.064911"
       gradientTransform="scale(1.0250631,0.9755497)"
       gradientUnits="userSpaceOnUse" /><linearGradient
       inkscape:collect="always"
       xlink:href="#linearGradient612"
       id="linearGradient3635"
       gradientUnits="userSpaceOnUse"
       gradientTransform="matrix(0.3737772,0,0,0.1148277,-46.724535,-58.643902)"
       x1="234.46304"
       y1="735.4422"
       x2="233.05591"
       y2="480.19824" /></defs><sodipodi:namedview
     id="base"
     inkscape:zoom="8.149087"
     inkscape:cx="4.0942624"
     inkscape:cy="20.691124"
     inkscape:window-width="822"
     inkscape:window-height="719"
     inkscape:window-x="3"
     inkscape:window-y="25"
     inkscape:current-layer="svg602"
     showgrid="false" /><g
     id="g3639"
     style="opacity:0.7"><rect
       ry="9.5005054"
       y="2.3508912e-07"
       x="2.274414e-07"
       height="65.000015"
       width="83.127678"
       id="rect605"
       style="font-size:12px;fill:#006b00;fill-opacity:1;fill-rule:evenodd" /><rect
       ry="6.7028937"
       y="1.9915972"
       x="1.9916129"
       height="60.06572"
       width="78.367561"
       id="rect606"
       style="font-size:12px;fill:#00b000;fill-rule:evenodd" /><rect
       ry="7.2771926"
       y="1.9915972"
       x="1.9916129"
       height="24.07522"
       width="78.367561"
       id="rect607"
       style="font-size:12px;fill:url(#linearGradient3635);fill-rule:evenodd" /></g><g
     id="g955"
     transform="matrix(0.2071714,0,0,0.2071714,-44.32247,-58.521539)"><path
   transform="scale(3.632907,3.987338)"
   style="font-size:72px;font-weight:bold;fill:url(#linearGradient2200);stroke-width:1;font-family:Courier"
   d="M 135.5294,95.87872 C 140.2814,95.87872 142.2928,99.8017 142.2928,109.8817 C 142.2928,120.0337 140.1188,125.3617 135.3668,125.3617 C 130.5428,125.3617 127.9531,120.2579 127.9531,110.1779 C 127.9531,100.1699 130.7774,95.87872 135.5294,95.87872 z M 135.2948,133.2817 C 145.8068,133.2817 152.8628,124.6417 152.8628,109.9537 C 152.8628,95.26571 145.8068,86.6257 135.2948,86.6257 C 124.8548,86.6257 117.8708,95.1937 117.8708,109.9537 C 117.8708,124.6417 124.8548,133.2817 135.2948,133.2817 z"
   id="path953"
   sodipodi:nodetypes="cccccccccc" /><text
   style="font-size:72px;font-style:normal;font-weight:bold;writing-mode:lr-tb;text-anchor:start;fill:url(#radialGradient2202);fill-opacity:1;stroke:none;stroke-width:1pt;stroke-linecap:butt;stroke-linejoin:miter;stroke-opacity:1;font-family:Courier"
   x="117.65681"
   y="135.15884"
   id="text945"
   transform="scale(3.514764,3.898731)"><tspan
     id="tspan946"
     style="fill:url(#radialGradient2202)">0</tspan></text>

</g><g
     id="g1092"
     transform="matrix(0.2071714,0,0,0.2071714,-46.076587,-58.613719)"><path
   transform="matrix(3.932628,0,0,4.131597,-167.0417,-6.681702)"
   style="font-size:72px;font-weight:bold;fill:url(#linearGradient2204);font-family:Courier"
   d="M 123.4765,100.8317 L 123.4765,92.69566 L 140.2525,93.41039 C 143.2765,93.41039 143.69,92.11648 143.69,89.23649 C 143.69,86.35648 143.2765,84.84766 140.2525,84.84766 L 117.2125,84.84766 C 115.0525,84.84766 114.9805,85.92766 114.9805,87.72767 L 114.9805,104.7197 C 114.9805,108.1757 115.9165,109.6157 118.6525,109.6157 C 121.3165,109.6157 124.0525,106.7357 128.2285,106.7357 C 132.9085,106.7357 135.8605,109.9037 135.8605,114.7277 C 135.8605,119.6957 130.8842,121.1463 127.3583,121.4322 C 123.0383,121.4322 119.5042,119.4162 116.9842,119.4162 C 114.7522,119.4162 113.703,122.2887 113.703,124.5208 C 113.703,128.2648 117.8605,130.3517 126.5725,130.3517 C 138.7405,130.3517 145.2205,124.8077 145.2205,114.6557 C 145.2205,105.5837 139.5325,99.53566 131.1085,99.53566 C 128.9485,99.53566 126.4285,99.96766 123.4765,100.8317 z"
   id="path1045"
   sodipodi:nodetypes="cccccccccccccccccc" /><text
   style="font-size:72px;font-weight:bold;fill:url(#radialGradient2206);font-family:Courier"
   x="118.92936"
   y="133.38638"
   id="text739"
   transform="matrix(3.619815,0,0,3.994247,-167.0417,-6.681702)"><tspan
     id="tspan740"
     style="fill:url(#radialGradient2206)">5</tspan></text>

</g></svg>