<?xml version="1.0" encoding="UTF-8" standalone="no"?>
<!-- Created with Sodipodi ("http://www.sodipodi.com/") -->
<svg
   xmlns:dc="http://purl.org/dc/elements/1.1/"
   xmlns:cc="http://creativecommons.org/ns#"
   xmlns:rdf="http://www.w3.org/1999/02/22-rdf-syntax-ns#"
   xmlns:svg="http://www.w3.org/2000/svg"
   xmlns="http://www.w3.org/2000/svg"
   xmlns:xlink="http://www.w3.org/1999/xlink"
   xmlns:sodipodi="http://sodipodi.sourceforge.net/DTD/sodipodi-0.dtd"
   xmlns:inkscape="http://www.inkscape.org/namespaces/inkscape"
   id="svg602"
   sodipodi:version="0.32"
   width="83.127678"
   height="65.000015"
   xml:space="preserve"
   sodipodi:docbase="/home/franck/Dessins/Vectoriels/Boutons"
   sodipodi:docname="6.svg"
   inkscape:version="0.46"
   inkscape:output_extension="org.inkscape.output.svg.inkscape"
   sodipodi:modified="true"
   version="1.0"><metadata
     id="metadata27"><rdf:RDF><cc:Work
         rdf:about=""><dc:format>image/svg+xml</dc:format><dc:type
           rdf:resource="http://purl.org/dc/dcmitype/StillImage" /></cc:Work></rdf:RDF></metadata><defs
     id="defs604"><inkscape:perspective
       sodipodi:type="inkscape:persp3d"
       inkscape:vp_x="0 : 32.500008 : 1"
       inkscape:vp_y="0 : 1000 : 0"
       inkscape:vp_z="83.127678 : 32.500008 : 1"
       inkscape:persp3d-origin="41.563839 : 21.666672 : 1"
       id="perspective2568" /><linearGradient
       id="linearGradient641"><stop
         style="stop-color:#005d00;stop-opacity:0.2902;"
         offset="0"
         id="stop642" /><stop
         style="stop-color:#ffffff;stop-opacity:1;"
         offset="1"
         id="stop643" /></linearGradient><linearGradient
       id="linearGradient612"><stop
         style="stop-color:#00cf00;stop-opacity:0.2902;"
         offset="0"
         id="stop613" /><stop
         style="stop-color:#ffffff;stop-opacity:1;"
         offset="1"
         id="stop614" /></linearGradient><linearGradient
       id="linearGradient608"><stop
         style="stop-color:#d7d7d5;stop-opacity:1;"
         offset="0"
         id="stop609" /><stop
         style="stop-color:#ffffff;stop-opacity:1;"
         offset="1"
         id="stop610" /></linearGradient><linearGradient
       xlink:href="#linearGradient612"
       id="linearGradient611"
       x1="0.49664423"
       y1="0.98913556"
       x2="0.48993284"
       y2="-0.22826068" /><linearGradient
       xlink:href="#linearGradient641"
       id="linearGradient634"
       x1="-4.5613697e-06"
       y1="8.1274422e-08"
       x2="1.0609745"
       y2="1.007813" /><linearGradient
       xlink:href="#linearGradient641"
       id="linearGradient635"
       x1="-0.085365117"
       y1="0.0078097442"
       x2="1.0609756"
       y2="0.99218702"
       spreadMethod="pad" /><linearGradient
       xlink:href="#linearGradient641"
       id="linearGradient644"
       x1="-0.085365184"
       y1="0.0078100199"
       x2="1.0609754"
       y2="0.99218732" /><radialGradient
       xlink:href="#linearGradient608"
       id="radialGradient646"
       cx="0.49999982"
       cy="0.49999991"
       r="0.49999997"
       fx="0.49999982"
       fy="0.49999991" /><radialGradient
       xlink:href="#linearGradient608"
       id="radialGradient647"
       cx="0.49999985"
       cy="0.5"
       r="0.5"
       fx="0.49999985"
       fy="0.5" /><radialGradient
       xlink:href="#linearGradient641"
       id="radialGradient683" /><radialGradient
       xlink:href="#linearGradient641"
       id="radialGradient745"
       cx="0.49999902"
       cy="0.5"
       r="0.5"
       fx="0.49999902"
       fy="0.5" /><linearGradient
       inkscape:collect="always"
       xlink:href="#linearGradient612"
       id="linearGradient2186"
       x1="234.46304"
       y1="735.4422"
       x2="233.05591"
       y2="480.19824"
       gradientTransform="scale(1.8041932,0.5542644)"
       gradientUnits="userSpaceOnUse" /><linearGradient
       inkscape:collect="always"
       xlink:href="#linearGradient641"
       id="linearGradient2188"
       spreadMethod="pad"
       x1="107.31687"
       y1="72.105568"
       x2="151.50447"
       y2="110.05001"
       gradientTransform="scale(0.8274659,1.2085091)"
       gradientUnits="userSpaceOnUse" /><radialGradient
       inkscape:collect="always"
       xlink:href="#linearGradient608"
       id="radialGradient2190"
       cx="141.13902"
       cy="94.496162"
       fx="141.13902"
       fy="94.496162"
       r="19.273321"
       gradientTransform="scale(0.827465,1.2085103)"
       gradientUnits="userSpaceOnUse" /><radialGradient
       inkscape:collect="always"
       xlink:href="#linearGradient608"
       id="radialGradient6916"
       gradientUnits="userSpaceOnUse"
       gradientTransform="matrix(0.6215473,0,0,0.9759353,-46.724535,-58.643902)"
       cx="141.13902"
       cy="94.496162"
       fx="141.13902"
       fy="94.496162"
       r="19.273321" /><linearGradient
       inkscape:collect="always"
       xlink:href="#linearGradient641"
       id="linearGradient6919"
       gradientUnits="userSpaceOnUse"
       gradientTransform="matrix(0.6719347,0,0,1.0061662,-46.724535,-58.643902)"
       spreadMethod="pad"
       x1="107.31687"
       y1="72.105568"
       x2="151.50447"
       y2="110.05001" /><linearGradient
       inkscape:collect="always"
       xlink:href="#linearGradient612"
       id="linearGradient6922"
       gradientUnits="userSpaceOnUse"
       gradientTransform="matrix(0.3737772,0,0,0.1148277,-46.724535,-58.643902)"
       x1="234.46304"
       y1="735.4422"
       x2="233.05591"
       y2="480.19824" /></defs><sodipodi:namedview
     id="base"
     inkscape:zoom="0.36014217"
     inkscape:cx="372.04724"
     inkscape:cy="526.18109"
     inkscape:window-width="822"
     inkscape:window-height="592"
     inkscape:window-x="3"
     inkscape:window-y="25"
     inkscape:current-layer="svg602"
     showgrid="false" /><g
     id="g6930"
     style="opacity:0.7"><rect
       ry="9.5005054"
       y="2.3508912e-07"
       x="2.274414e-07"
       height="65.000015"
       width="83.127678"
       id="rect605"
       style="font-size:12px;fill:#006b00;fill-opacity:1;fill-rule:evenodd" /><rect
       ry="6.7028937"
       y="1.9915972"
       x="1.9916129"
       height="60.06572"
       width="78.367561"
       id="rect606"
       style="font-size:12px;fill:#00b000;fill-rule:evenodd" /><rect
       ry="7.2771926"
       y="1.9915972"
       x="1.9916129"
       height="24.07522"
       width="78.367561"
       id="rect607"
       style="font-size:12px;fill:url(#linearGradient6922);fill-rule:evenodd" /></g><g
     id="g6926"><path
       sodipodi:nodetypes="cccccccccccccc"
       id="path790"
       d="M 36.938889,40.09902 C 36.938889,37.73719 38.68859,35.418571 40.751495,35.418571 C 43.908703,35.418571 46.376896,36.432805 46.376896,40.26928 C 46.376896,44.105754 44.025637,46.69296 40.985362,46.69296 C 37.769687,46.69296 36.938889,44.115329 36.938889,40.09902 z M 35.13868,30.807558 C 36.717284,23.31447 40.049893,19.53794 46.071975,18.878546 C 50.807788,18.33905 52.79566,19.118334 52.79566,15.761403 C 52.79566,14.14289 50.983188,13.603386 47.241312,13.603386 C 35.431014,13.603386 27.596427,22.235461 27.596427,35.423317 C 27.596427,46.2134 32.741516,52.387726 40.634561,52.387726 C 48.527582,52.387726 53.497262,47.232464 53.497262,39.919185 C 53.497262,32.845685 48.702982,27.450643 42.622433,27.450643 C 39.640625,27.450643 36.951151,28.649542 35.13868,30.807558 z"
       style="font-size:72px;font-weight:bold;fill:url(#linearGradient6919);font-family:Courier" /><path
       id="path791"
       d="M 35.997404,31.456 C 37.457633,24.188029 40.540337,20.524956 46.110838,19.885375 C 50.491523,19.362081 52.330329,20.11795 52.330329,16.861899 C 52.330329,15.292017 50.653771,14.768723 47.192489,14.768723 C 36.267817,14.768723 29.020757,23.141442 29.020757,35.93307 C 29.020757,46.398948 33.78002,52.387756 41.081162,52.387756 C 48.382304,52.387756 52.97932,47.387392 52.97932,40.293853 C 52.97932,33.432888 48.544552,28.199949 42.919969,28.199949 C 40.161759,28.199949 37.673963,29.362825 35.997404,31.456 z M 36.105569,40.468284 C 36.105569,36.921514 38.322953,34.421332 41.189327,34.421332 C 44.109784,34.421332 46.273086,37.037802 46.273086,40.759003 C 46.273086,44.480204 44.217949,46.864098 41.405658,46.864098 C 38.431118,46.864098 36.105569,44.363916 36.105569,40.468284 z"
       style="font-size:72px;font-weight:bold;fill:url(#radialGradient6916);font-family:Courier" /></g></svg>