<?xml version="1.0" standalone="no"?>
<!DOCTYPE svg PUBLIC "-//W3C//DTD SVG 20010904//EN"
 "http://www.w3.org/TR/2001/REC-SVG-20010904/DTD/svg10.dtd">
<svg version="1.0" xmlns="http://www.w3.org/2000/svg"
 width="237.000000pt" height="213.000000pt" viewBox="0 0 237.000000 213.000000"
 preserveAspectRatio="xMidYMid meet">
<metadata>
Created by potrace 1.13, written by Peter Selinger 2001-2015
</metadata>
<g transform="translate(0.000000,213.000000) scale(0.100000,-0.100000)"
fill="#000000" stroke="none">
<path d="M1108 1745 c-41 -23 -45 -65 -14 -130 25 -49 85 -115 105 -115 15 0
31 60 31 112 0 105 -57 167 -122 133z"/>
<path d="M680 1605 c-80 -25 -115 -76 -65 -95 26 -10 61 -73 50 -90 -9 -14
-81 -34 -98 -27 -22 8 -32 65 -17 93 28 52 -22 70 -109 39 -94 -33 -129 -83
-72 -103 26 -9 33 -22 65 -119 37 -110 44 -157 26 -168 -18 -11 -11 -43 12
-48 47 -13 179 36 192 70 8 20 -3 40 -25 46 -18 5 -32 30 -45 81 -5 20 0 26
35 40 60 23 69 21 82 -25 10 -32 10 -48 0 -75 -7 -18 -9 -39 -5 -45 11 -18
104 -5 159 22 60 30 71 60 29 81 -24 11 -34 31 -68 135 -36 109 -39 124 -27
147 30 54 -20 71 -119 41z"/>
<path d="M957 1556 c-52 -32 -87 -63 -87 -80 0 -8 12 -21 27 -28 34 -17 72
-121 54 -150 -40 -63 41 -73 150 -17 49 24 54 43 21 68 -20 14 -36 45 -62 122
-22 66 -41 104 -50 106 -8 1 -32 -9 -53 -21z"/>
<path d="M1728 804 c-16 -8 -31 -28 -37 -47 -8 -29 -6 -35 27 -65 39 -36 61
-36 99 2 33 32 38 67 13 99 -24 31 -59 35 -102 11z"/>
<path d="M2014 752 c-40 -26 -40 -94 0 -131 19 -18 27 -20 50 -11 15 5 37 10
50 10 21 0 22 3 16 50 -3 27 -15 59 -25 70 -18 20 -69 27 -91 12z"/>
<path d="M1640 591 c-26 -50 4 -155 61 -212 76 -76 204 -87 295 -26 55 38 103
117 86 144 -11 17 -60 4 -67 -18 -8 -25 -55 -49 -95 -49 -17 0 -60 7 -95 16
-76 19 -130 68 -122 110 3 17 -3 28 -19 39 -30 19 -31 19 -44 -4z"/>
</g>
</svg>
