<!--Created with Inkscape (http://www.inkscape.org/)--><svg xmlns:dc="http://purl.org/dc/elements/1.1/" xmlns:cc="http://creativecommons.org/ns#" xmlns:rdf="http://www.w3.org/1999/02/22-rdf-syntax-ns#" xmlns="http://www.w3.org/2000/svg" xmlns:xlink="http://www.w3.org/1999/xlink" xmlns:sodipodi="http://sodipodi.sourceforge.net/DTD/sodipodi-0.dtd" xmlns:inkscape="http://www.inkscape.org/namespaces/inkscape" sodipodi:docname="background2.svg" inkscape:version="0.91 r13725" height="520" width="800"><sodipodi:namedview inkscape:snap-global="false" borderlayer="true" fit-margin-bottom="0" fit-margin-right="0" fit-margin-left="0" fit-margin-top="0" inkscape:window-maximized="1" inkscape:window-y="-3" inkscape:window-x="-3" inkscape:window-height="1060" inkscape:window-width="1880" units="px" showgrid="false" inkscape:current-layer="layer1" inkscape:document-units="px" inkscape:cy="238.02445" inkscape:cx="403.47003" inkscape:zoom="1.4" inkscape:pageshadow="2" inkscape:pageopacity="0.0" borderopacity="1.0" bordercolor="#666666" pagecolor="#ffffff"/><defs><linearGradient inkscape:collect="always" xlink:href="#a" id="b" x1="940.9632" y1="637.41199" x2="945.6795" y2="650.04968" gradientUnits="userSpaceOnUse" gradientTransform="matrix(1 0 0 1.08592 -3.829 -53.508)"/><linearGradient inkscape:collect="always" id="a"><stop style="stop-color:#275eb1;stop-opacity:1" offset="0"/><stop style="stop-color:#e6ecf9;stop-opacity:1" offset="1"/></linearGradient><linearGradient inkscape:collect="always" xlink:href="#a" id="c" x1="940.9632" y1="637.41199" x2="945.6795" y2="650.04968" gradientUnits="userSpaceOnUse" gradientTransform="matrix(-1 0 0 1.08592 1918.893 -53.897)"/></defs><g style="display:inline" transform="translate(398.408 -184.969)" inkscape:groupmode="layer" inkscape:label="Layer 1"><rect style="display:inline;fill:#cde7f8;fill-opacity:1;stroke:none" width="799.78149" height="516.16486" x="-397.47174" y="185.47681"/><path sodipodi:nodetypes="sscccs" inkscape:connector-curvature="0" d="M119.28 624.12c24.891-33.474 70.238-76.58 75.606-70.521 36.768 41.498 69.88 15.079 113.748-19.32C348.61 411.253 512.77 691.668 321.05 652.527c-30.326-11.115-82.795-13.802-116.233-8.919 0 0-96.918-4.186-85.538-19.488z" style="display:inline;fill:#bbdeef;fill-opacity:1;stroke:none;stroke-width:.89298624px;stroke-linecap:butt;stroke-linejoin:miter;stroke-opacity:1"/><path style="fill:#bbdeef;fill-opacity:1;stroke:none;stroke-width:1.30438411px;stroke-linecap:butt;stroke-linejoin:miter;stroke-opacity:1" d="M-396.699 624.12c24.331-33.474 68.658-76.58 73.904-70.521 35.94 41.498 62.554-.822 105.434-35.22 9.53-7.644 65.59-29.015 65.59-29.015s25.984 7.03 50.375 23.695c58.65 40.075 185.887-1.552 207.97-22.343 24.714-23.27 141.194 118.67 141.194 118.67-32.075.109-155.977 10.794-196.589 24.66-22.554 7.7-68.502-6.561-93.243-3.974-47.1 4.924-88.964 23.01-149.713.231-29.644-11.116-87.664-5.722-120.348-.838 0 0-95.696 9.956-84.574-5.346z" inkscape:connector-curvature="0" sodipodi:nodetypes="ssscsscssscs"/><path style="fill:#a3d0ec;fill-opacity:1;stroke:none;stroke-width:1.18263257px;stroke-linecap:butt;stroke-linejoin:miter;stroke-opacity:1" d="M-346.307 603.414c24.807-26.988 68.188-31.835 102.282-50.936 33.4-18.712 91.91 47.823 137.135 52.344 50.765 5.076 132.391-57.144 144.138-58.71 16.973-2.264 68.354 77.121 68.354 77.121-32.703.088-55.786-12.987-97.19-1.808-22.996 6.209-46.883-17.126-69.591-10.31-49.436 14.84-148.753 30.501-200.053-1.068-25.099-15.445-68.798 21.265-102.122 25.202 0 0 5.707-19.497 17.047-31.835z" inkscape:connector-curvature="0" sodipodi:nodetypes="sssscssscs"/><path style="fill:#82bddb;fill-opacity:1;stroke:none;stroke-width:.6662209px;stroke-linecap:butt;stroke-linejoin:miter;stroke-opacity:1" d="M-396.327 632.514c36.414-8.526 102.751-19.505 110.603-17.962 53.788 10.57 266.352 8.472 330.525-.29 22.249-3.037 75.45 13.117 100.927 13.665 74.517 1.604 158.406-4.638 195.086-10.527 63.139-10.138 52.615 36.973 52.615 36.973-48.004.028-58.69-22.862-119.47-19.33-33.754 1.961-102.518-1.671-139.546-1.012-70.49 1.254-133.142 5.86-224.058.059-44.364-2.832-131.195-1.458-180.11-.214 0 0-114.936 26.714-127.693 20.497l1.121-21.859z" inkscape:connector-curvature="0" sodipodi:nodetypes="csssscssscssc"/><path style="opacity:1;fill:#9ecbe3;fill-opacity:1;stroke:none;stroke-width:.53020447px;stroke-linecap:butt;stroke-linejoin:miter;stroke-opacity:1" d="M57.947 642.84c-24.806-5.424-56.546-15.046-93.094-18.608-32.855 3.868-78.465 15.551-123.689 16.46-50.764 1.02-131.515-14.855-143.262-15.17-16.973-.455-69.228 18.87-69.228 18.87 32.701.018 55.784-2.61 97.189-.363 22.995 1.248 46.883-3.442 69.59-2.072 49.437 2.982 138.117 3.477 200.054-.215 30.223-1.801 39.133 2.098 72.457 2.89 0 0 1.323.689-10.017-1.791z" inkscape:connector-curvature="0" sodipodi:nodetypes="scsscssscs"/><path sodipodi:nodetypes="scsscssscs" inkscape:connector-curvature="0" d="M-323.673 629.718c24.807-7.04 56.547-19.528 93.095-24.152 32.854 5.02 78.464 20.184 123.688 21.364 50.765 1.324 131.516-19.28 143.262-19.689 16.973-.59 118.181 34.375 118.181 34.375-32.704.023-101.47-2.916-142.875 0-22.996 1.62-50.15-14.823-72.857-13.045-49.436 3.871-137.957 17.836-199.893 13.045-30.224-2.338-103.052-1.027-136.376 0 0 0 62.435-8.68 73.775-11.898z" style="opacity:1;fill:#c9e3f0;fill-opacity:1;stroke:none;stroke-width:.60403317px;stroke-linecap:butt;stroke-linejoin:miter;stroke-opacity:1"/><path sodipodi:nodetypes="ssssscssscs" inkscape:connector-curvature="0" d="M131.007 654.35c-24.332-6.728-68.691-25.171-73.938-23.954-35.94 8.341-177.973 6.686-220.853-.228-14.866-2.397-50.077 3.176-67.1 3.609-49.792 1.265-101.864 5.651-123.946 1.472-24.714-4.677-42.618 19.101-42.618 19.101 32.075.022 34.094 0 76.711 0 22.65 0 77.54-.52 102.282 0 47.1.99 85.234 0 144.898 0 29.795 0 95.167-.981 127.852 0 0 0 87.833 3.076 76.712 0z" style="fill:#82bddb;fill-opacity:1;stroke:none;stroke-width:.58478796px;stroke-linecap:butt;stroke-linejoin:miter;stroke-opacity:1"/><path inkscape:connector-curvature="0" style="display:inline;fill:#c32d2d;fill-opacity:1;fill-rule:nonzero;stroke:none;stroke-width:6;stroke-linecap:round;stroke-linejoin:miter;stroke-miterlimit:4;stroke-opacity:1" d="M-81.176 594.235c4.837 0 8.797 3.963 8.797 8.8v37.715a2.048 2.048 0 0 1-1.024 1.8 2.068 2.068 0 0 1-2.082 0 2.07 2.07 0 0 1-1.025-1.814v-37.701a4.635 4.635 0 0 0-4.666-4.668 4.635 4.635 0 0 0-4.666 4.668 2.048 2.048 0 0 1-1.025 1.799 2.068 2.068 0 0 1-2.082 0 2.07 2.07 0 0 1-1.024-1.814c0-4.837 3.96-8.785 8.797-8.785z" sodipodi:nodetypes="cccssccscsscc" transform="translate(-20)"/><path inkscape:connector-curvature="0" style="fill:#e93f3f;fill-opacity:1;fill-rule:nonzero;stroke:none;stroke-width:6;stroke-linecap:round;stroke-linejoin:miter;stroke-miterlimit:4;stroke-opacity:1" d="M-81.05 594.74c3.69.127 8.116 3.293 8.116 7.929l-.568 36.274c.01.712.264 1.113-.35 1.472-.616.359-.75.359-1.365 0-.615-.36-.613-.774-.603-1.486v-36.134c0-2.495-2.483-5.105-4.977-5.105-5.102.275-5.094 3.533-6.023 6.009-1.568 1.251-2.333.97-2.472-.728-.377-4.62 4.552-8.357 8.242-8.23z" sodipodi:nodetypes="zccssccccsz" transform="translate(-20)"/><path inkscape:connector-curvature="0" sodipodi:nodetypes="cccccccsccccccccccsccccccccccccccccccccccccccccccccccccccccccccccccccc" d="M-80.37 594.78a8.348 8.348 0 0 1 2.985.867c1.064 1.378 1.982 2.199 3.339 3.202.492.923.817 1.946.936 3.03-3.044-1.728-5.374-3.89-7.26-7.098zm-2.22.08c.76 1.455 1.658 1.786 2.667 3.004a4.56 4.56 0 0 0-2.517.004c-.772-1.075-1.47-1.215-2.077-2.436a8.359 8.359 0 0 1 1.928-.572zm-3.512 1.568c.603 1.207.78 1.467 1.531 2.542a4.423 4.423 0 0 0-1.187 1.77c-.863-1.176-1.14-1.547-1.834-2.877a8.535 8.535 0 0 1 1.49-1.435zm-2.555 3.009c.884 1.562 1.256 2.517 2.361 3.866a1.984 1.984 0 0 1-1.778.978c-.667-.838-.667-1.21-1.258-2.124.071-.96.306-1.876.675-2.72zM-76 601.525c1.286 1.057 1.477 1.96 2.94 2.697v2.272c-1.38-.63-1.508-1.395-2.76-2.284v-1.415c0-.442-.064-.868-.18-1.27zm.18 5.133c1.264.806 1.39 1.5 2.76 2.073v2.211c-1.363-.525-1.487-1.16-2.76-1.898zm0 4.721c1.28.683 1.404 1.27 2.76 1.756v2.177c-1.352-.454-1.475-1-2.76-1.636zm0 4.567c1.289.595 1.412 1.106 2.76 1.531v2.154c-1.345-.4-1.467-.883-2.76-1.442zm0 4.47c1.295.529 1.417.983 2.76 1.361v2.138c-1.34-.358-1.462-.79-2.76-1.291zm0 4.402c1.3.477 1.422.887 2.76 1.228v2.127c-1.337-.326-1.458-.716-2.76-1.17zm0 4.358c1.303.434 1.425.806 2.76 1.118v2.119c-1.334-.299-1.456-.655-2.76-1.071zm0 4.323c1.305.4 1.427.742 2.76 1.029v2.111c-1.332-.275-1.454-.606-2.76-.99zm0 4.294c1.307.37 1.429.69 2.76.956v.193a1.963 1.963 0 0 1-.969 1.717c-.898-.19-.592-.404-1.48-.64a1.98 1.98 0 0 1-.311-1.09z" style="fill:#f4f4f4;fill-rule:evenodd;stroke:none" transform="translate(-20)"/><g style="display:inline;stroke:none"><path sodipodi:nodetypes="ccsccc" inkscape:connector-curvature="0" d="M1225.84 1200.905v-118.221c236.225-185.776 438.486 34.184 645.681 0 204.728-33.778 283.159-62.414 416.296-36.794l-.444 152.94z" style="opacity:1;fill:#ade0fc;fill-opacity:1;stroke:none;stroke-width:0;stroke-linecap:butt;stroke-linejoin:miter;stroke-miterlimit:4;stroke-dasharray:none;stroke-opacity:1" transform="matrix(.7561 0 0 .48698 -1325.234 123.43)"/><path transform="matrix(.3235 0 0 .19087 -379.157 587.307)" d="m30 274.094-11.061-6.038-12.6-.301 10.761-6.56 6.56-10.76.301 12.598z" inkscape:randomized="0" inkscape:rounded="0" inkscape:flatsided="false" sodipodi:arg2="1.8325957" sodipodi:arg1="0.78539816" sodipodi:r2="4.1012197" sodipodi:r1="14.142136" sodipodi:cy="264.09448" sodipodi:cx="20" sodipodi:sides="3" style="opacity:.04818564;fill:#fff;fill-opacity:1;stroke:none;stroke-width:0;stroke-linecap:round;stroke-miterlimit:4;stroke-dasharray:none;stroke-dashoffset:0;stroke-opacity:1" sodipodi:type="star"/><path transform="matrix(.3235 0 0 .19087 -387.276 580.147)" d="m30 274.094-11.061-6.038-12.6-.301 10.761-6.56 6.56-10.76.301 12.598z" inkscape:randomized="0" inkscape:rounded="0" inkscape:flatsided="false" sodipodi:arg2="1.8325957" sodipodi:arg1="0.78539816" sodipodi:r2="4.1012197" sodipodi:r1="14.142136" sodipodi:cy="264.09448" sodipodi:cx="20" sodipodi:sides="3" style="opacity:.03784335;fill:#fff;fill-opacity:1;stroke:none;stroke-width:0;stroke-linecap:round;stroke-miterlimit:4;stroke-dasharray:none;stroke-dashoffset:0;stroke-opacity:1" sodipodi:type="star"/><path transform="matrix(.3235 0 0 .19087 -376.035 584.455)" d="m30 274.094-11.061-6.038-12.6-.301 10.761-6.56 6.56-10.76.301 12.598z" inkscape:randomized="0" inkscape:rounded="0" inkscape:flatsided="false" sodipodi:arg2="1.8325957" sodipodi:arg1="0.78539816" sodipodi:r2="4.1012197" sodipodi:r1="14.142136" sodipodi:cy="264.09448" sodipodi:cx="20" sodipodi:sides="3" style="opacity:.01057733;fill:#fff;fill-opacity:1;stroke:none;stroke-width:0;stroke-linecap:round;stroke-miterlimit:4;stroke-dasharray:none;stroke-dashoffset:0;stroke-opacity:1" sodipodi:type="star"/><path transform="matrix(.3235 0 0 .19087 -373.972 574.509)" d="m30 274.094-11.061-6.038-12.6-.301 10.761-6.56 6.56-10.76.301 12.598z" inkscape:randomized="0" inkscape:rounded="0" inkscape:flatsided="false" sodipodi:arg2="1.8325957" sodipodi:arg1="0.78539816" sodipodi:r2="4.1012197" sodipodi:r1="14.142136" sodipodi:cy="264.09448" sodipodi:cx="20" sodipodi:sides="3" style="opacity:.04818564;fill:#fff;fill-opacity:1;stroke:none;stroke-width:0;stroke-linecap:round;stroke-miterlimit:4;stroke-dasharray:none;stroke-dashoffset:0;stroke-opacity:1" sodipodi:type="star"/><path sodipodi:type="star" style="opacity:.04818564;fill:#fff;fill-opacity:1;stroke:none;stroke-width:0;stroke-linecap:round;stroke-miterlimit:4;stroke-dasharray:none;stroke-dashoffset:0;stroke-opacity:1" sodipodi:sides="3" sodipodi:cx="20" sodipodi:cy="264.09448" sodipodi:r1="14.142136" sodipodi:r2="4.1012197" sodipodi:arg1="0.78539816" sodipodi:arg2="1.8325957" inkscape:flatsided="false" inkscape:rounded="0" inkscape:randomized="0" d="m30 274.094-11.061-6.038-12.6-.301 10.761-6.56 6.56-10.76.301 12.598z" transform="matrix(.3235 0 0 .19087 -388.194 577.96)"/><path transform="matrix(.3235 0 0 .19087 -382.751 573.317)" d="m30 274.094-11.061-6.038-12.6-.301 10.761-6.56 6.56-10.76.301 12.598z" inkscape:randomized="0" inkscape:rounded="0" inkscape:flatsided="false" sodipodi:arg2="1.8325957" sodipodi:arg1="0.78539816" sodipodi:r2="4.1012197" sodipodi:r1="14.142136" sodipodi:cy="264.09448" sodipodi:cx="20" sodipodi:sides="3" style="opacity:.04818564;fill:#fff;fill-opacity:1;stroke:none;stroke-width:0;stroke-linecap:round;stroke-miterlimit:4;stroke-dasharray:none;stroke-dashoffset:0;stroke-opacity:1" sodipodi:type="star"/><path transform="matrix(.3235 0 0 .19087 -367.787 583.241)" d="m30 274.094-11.061-6.038-12.6-.301 10.761-6.56 6.56-10.76.301 12.598z" inkscape:randomized="0" inkscape:rounded="0" inkscape:flatsided="false" sodipodi:arg2="1.8325957" sodipodi:arg1="0.78539816" sodipodi:r2="4.1012197" sodipodi:r1="14.142136" sodipodi:cy="264.09448" sodipodi:cx="20" sodipodi:sides="3" style="opacity:.01057733;fill:#fff;fill-opacity:1;stroke:none;stroke-width:0;stroke-linecap:round;stroke-miterlimit:4;stroke-dasharray:none;stroke-dashoffset:0;stroke-opacity:1" sodipodi:type="star"/><path transform="matrix(.3235 0 0 .19087 -374.616 573.356)" d="m30 274.094-11.061-6.038-12.6-.301 10.761-6.56 6.56-10.76.301 12.598z" inkscape:randomized="0" inkscape:rounded="0" inkscape:flatsided="false" sodipodi:arg2="1.8325957" sodipodi:arg1="0.78539816" sodipodi:r2="4.1012197" sodipodi:r1="14.142136" sodipodi:cy="264.09448" sodipodi:cx="20" sodipodi:sides="3" style="opacity:.04818564;fill:#fff;fill-opacity:1;stroke:none;stroke-width:0;stroke-linecap:round;stroke-miterlimit:4;stroke-dasharray:none;stroke-dashoffset:0;stroke-opacity:1" sodipodi:type="star"/><path transform="matrix(.3235 0 0 .19087 -368.183 583.58)" d="m30 274.094-11.061-6.038-12.6-.301 10.761-6.56 6.56-10.76.301 12.598z" inkscape:randomized="0" inkscape:rounded="0" inkscape:flatsided="false" sodipodi:arg2="1.8325957" sodipodi:arg1="0.78539816" sodipodi:r2="4.1012197" sodipodi:r1="14.142136" sodipodi:cy="264.09448" sodipodi:cx="20" sodipodi:sides="3" style="opacity:.04818564;fill:#fff;fill-opacity:1;stroke:none;stroke-width:0;stroke-linecap:round;stroke-miterlimit:4;stroke-dasharray:none;stroke-dashoffset:0;stroke-opacity:1" sodipodi:type="star"/></g><g inkscape:label="Layer 1" style="display:inline;stroke:none"><g style="stroke:none"><path style="fill:#76c0e9;fill-opacity:1;fill-rule:nonzero;stroke:none" d="M502.143 558.487 513 565.111l3.429-5.76 8.063 3.933 9.08-3.357 4.23 3.886 8.572-4.706 2.863 3.898 17.047-.177-6.998 8.907 8.667 7.55-8.096 2.53 3.714 2.304L551 588.44l1.429 4.032-10.572-1.728-13.428 3.744-2-5.184-4 3.168-5.715-3.456-10 2.592-1.463-5.74-13.394-.308 9.429-4.32-10.74-5.074 7.025-5.294-6.571-8.064 12.286 3.744z" inkscape:connector-curvature="0" sodipodi:nodetypes="ccccccccccccccccccccccccccccc" transform="matrix(1.85216 0 0 .82694 -896.079 191.142)"/><path sodipodi:nodetypes="cccccccccccccccccccccccccccc" inkscape:connector-curvature="0" d="m509.766 571.237.86 6.094-9.363-2.813 5.004 6.094-6.538 3.719 3.345 1.469 2.18.062.245 1.031 3.592 1.563s7.566.353 7.613.562l5.71 3.438 4.02-3.156 1.996 5.187 13.414-3.75 9.854 1.594.614-.219-1.32-3.687 8.104-2.782-5.74-4.375 5.34-6.75-13.015.125-2.18-2.937-6.538 3.562-3.223-2.937-6.937 2.531-6.14-2.969-2.609 4.344z" style="fill:#3ba1d8;fill-opacity:1;fill-rule:nonzero;stroke:none" transform="matrix(1.85216 0 0 .82694 -896.079 191.142)"/><path style="fill:none;stroke:none;stroke-opacity:1" d="m509.75 571.237.875 6.094-9.375-2.813 5.031 6.094-6.562 3.719 3.375 1.469 2.156.062.25 1.031 3.594 1.563-2.844 1.312.469 1.844 10-2.594 5.718 3.438 4-3.156 2 5.187 13.407-3.75 9.843 1.594.625-.219-1.312-3.687 8.094-2.782-5.75-4.375 5.343-6.75-13 .125-2.187-2.937-6.531 3.562-3.219-2.937-6.938 2.531-6.156-2.969-2.625 4.344-8.281-5z" inkscape:connector-curvature="0" transform="matrix(1.85216 0 0 .82694 -896.079 191.142)"/><path sodipodi:nodetypes="cccccccccccccccccccccc" inkscape:connector-curvature="0" transform="matrix(1 0 0 1 -398.408 184.969)" d="m424.652 478.611 5.647 6.762 8.678.84zm113.285.659-9.412 7.455 13.178-.803zm-106.082 7.785-6.712 2.082 1.964 1.426 10.936.273 1.924 3.266 1.203 1.298 3.06-.3-1.734-1.614 2.947-.695zm106.82.218-13.915 5.3 18.826-2.815z" style="fill:#76c0e9;fill-opacity:1;fill-rule:nonzero;stroke:none"/><path sodipodi:nodetypes="ccccccccccccccccccccccccccccc" inkscape:connector-curvature="0" d="M502.143 558.487 513 565.111l3.429-5.76 8.063 3.933 9.08-3.357 4.23 3.886 8.572-4.706 2.863 3.898 17.047-.177-6.998 8.907 8.667 7.504-8.096 2.576 3.714 2.304L551 588.44l1.429 4.032-10.572-1.728-13.428 3.744-2-5.184-4 3.168-5.715-3.456-10 2.592-1.463-5.74-13.394-.308 9.724-4.36-11.211-5.21 7.201-5.118-6.571-8.064 12.286 3.744z" style="fill:none;stroke:none;stroke-linejoin:round;stroke-opacity:1" transform="matrix(1.85216 0 0 .82694 -896.079 191.142)"/><path style="fill:none;stroke:none;stroke-width:1;stroke-linecap:round;stroke-linejoin:round;stroke-miterlimit:4;stroke-dasharray:none;stroke-opacity:1" d="m513.042 565.165 1.21 2.762-.883.834 1.816 1.294 1.304 2.976" inkscape:connector-curvature="0" sodipodi:nodetypes="ccccc" transform="matrix(1.85216 0 0 .82694 -896.079 191.142)"/><path style="fill:none;stroke:none;stroke-width:1;stroke-linecap:round;stroke-linejoin:round;stroke-miterlimit:4;stroke-dasharray:none;stroke-opacity:1" d="m524.355 563.22.68 3.17 1.122 1.792-.21 2.463" inkscape:connector-curvature="0" sodipodi:nodetypes="cccc" transform="matrix(1.85216 0 0 .82694 -896.079 191.142)"/><path style="fill:none;stroke:none;stroke-width:1;stroke-linecap:round;stroke-linejoin:round;stroke-miterlimit:4;stroke-dasharray:none;stroke-opacity:1" d="m503.407 566.756.49 2.095 1.72 2.034v2.588" inkscape:connector-curvature="0" sodipodi:nodetypes="cccc" transform="matrix(1.85216 0 0 .82694 -896.079 191.142)"/><path style="fill:none;stroke:none;stroke-width:1;stroke-linecap:round;stroke-linejoin:round;stroke-miterlimit:4;stroke-dasharray:none;stroke-opacity:1" d="m497.485 570.733.663.738.013 1.677 1.207-.317 1.609 1.791" inkscape:connector-curvature="0" sodipodi:nodetypes="ccccc" transform="matrix(1.85216 0 0 .82694 -896.079 191.142)"/><path style="fill:none;stroke:none;stroke-width:1;stroke-linecap:round;stroke-linejoin:round;stroke-miterlimit:4;stroke-dasharray:none;stroke-opacity:1" d="m537.879 563.75.09 3.709-.326 2.496 1.031 1.309" inkscape:connector-curvature="0" sodipodi:nodetypes="cccc" transform="matrix(1.85216 0 0 .82694 -896.079 191.142)"/><path style="fill:none;stroke:none;stroke-width:1;stroke-linecap:round;stroke-linejoin:round;stroke-miterlimit:4;stroke-dasharray:none;stroke-opacity:1" d="m533.37 559.95.053 3.36-.76 2.473" inkscape:connector-curvature="0" sodipodi:nodetypes="ccc" transform="matrix(1.85216 0 0 .82694 -896.079 191.142)"/><path style="fill:none;stroke:none;stroke-width:1;stroke-linecap:round;stroke-linejoin:round;stroke-miterlimit:4;stroke-dasharray:none;stroke-opacity:1" d="m516.577 559.42 1.768 4.684" inkscape:connector-curvature="0" transform="matrix(1.85216 0 0 .82694 -896.079 191.142)"/><path style="fill:none;stroke:none;stroke-width:1;stroke-linecap:round;stroke-linejoin:round;stroke-miterlimit:4;stroke-dasharray:none;stroke-opacity:1" d="m502.523 558.89 3.318 5.45 1.579 1.392.583 2.968" inkscape:connector-curvature="0" sodipodi:nodetypes="cccc" transform="matrix(1.85216 0 0 .82694 -896.079 191.142)"/><path style="fill:none;stroke:none;stroke-width:1;stroke-linecap:round;stroke-linejoin:round;stroke-miterlimit:4;stroke-dasharray:none;stroke-opacity:1" d="m546.276 559.243-1.129 3.785.814 1.209-1.1 1.9" inkscape:connector-curvature="0" sodipodi:nodetypes="cccc" transform="matrix(1.85216 0 0 .82694 -896.079 191.142)"/><path style="fill:none;stroke:none;stroke-width:1;stroke-linecap:round;stroke-linejoin:round;stroke-miterlimit:4;stroke-dasharray:none;stroke-opacity:1" d="m549.458 563.132-.25 3.01-1.607 4.591" inkscape:connector-curvature="0" sodipodi:nodetypes="ccc" transform="matrix(1.85216 0 0 .82694 -896.079 191.142)"/><path style="fill:none;stroke:none;stroke-width:1;stroke-linecap:round;stroke-linejoin:round;stroke-miterlimit:4;stroke-dasharray:none;stroke-opacity:1" d="m559.269 571.75-3.094 5.347" inkscape:connector-curvature="0" sodipodi:nodetypes="cc" transform="matrix(1.85216 0 0 .82694 -896.079 191.142)"/><path style="fill:none;stroke:none;stroke-width:1;stroke-linecap:round;stroke-linejoin:round;stroke-miterlimit:4;stroke-dasharray:none;stroke-opacity:1" d="m559.092 581.959-3.933 3.314" inkscape:connector-curvature="0" sodipodi:nodetypes="cc" transform="matrix(1.85216 0 0 .82694 -896.079 191.142)"/><path style="fill:none;stroke:none;stroke-width:1;stroke-linecap:round;stroke-linejoin:round;stroke-miterlimit:4;stroke-dasharray:none;stroke-opacity:1" d="m502.053 581.533 2.481 2.62" inkscape:connector-curvature="0" sodipodi:nodetypes="cc" transform="matrix(1.85216 0 0 .82694 -896.079 191.142)"/><path style="fill:none;stroke:none;stroke-width:1;stroke-linecap:round;stroke-linejoin:round;stroke-miterlimit:4;stroke-dasharray:none;stroke-opacity:1" d="m505.376 585.824 3.066 4.966" inkscape:connector-curvature="0" sodipodi:nodetypes="cc" transform="matrix(1.85216 0 0 .82694 -896.079 191.142)"/><path style="fill:none;stroke:none;stroke-width:1;stroke-linecap:round;stroke-linejoin:round;stroke-miterlimit:4;stroke-dasharray:none;stroke-opacity:1" d="M526.52 589.472c-.517-1.668 1.769 1.473 2.653 2.21" inkscape:connector-curvature="0" sodipodi:nodetypes="cc" transform="matrix(1.85216 0 0 .82694 -896.079 191.142)"/><path style="fill:none;stroke:none;stroke-width:1;stroke-linecap:round;stroke-linejoin:round;stroke-miterlimit:4;stroke-dasharray:none;stroke-opacity:1" d="m550.74 588.5-1.327 3.225" inkscape:connector-curvature="0" sodipodi:nodetypes="cc" transform="matrix(1.85216 0 0 .82694 -896.079 191.142)"/><path style="fill:none;stroke:none;stroke-linecap:round;stroke-opacity:1" d="m556.352 567.728-.582 2.588-1.186 1.301" inkscape:connector-curvature="0" sodipodi:nodetypes="ccc" transform="matrix(1.85216 0 0 .82694 -896.079 191.142)"/><path style="fill:none;stroke:none;stroke-width:1;stroke-linecap:round;stroke-linejoin:round;stroke-miterlimit:4;stroke-dasharray:none;stroke-opacity:1" d="m560.595 575.241-.736 2.074-1.209.754" inkscape:connector-curvature="0" sodipodi:nodetypes="ccc" transform="matrix(1.85216 0 0 .82694 -896.079 191.142)"/><path style="fill:none;stroke:none;stroke-width:1;stroke-linecap:round;stroke-linejoin:round;stroke-miterlimit:4;stroke-dasharray:none;stroke-opacity:1" d="m497.397 575.153-.089.795 1.15.442" inkscape:connector-curvature="0" transform="matrix(1.85216 0 0 .82694 -896.079 191.142)"/><path style="fill:none;stroke:none;stroke-width:1;stroke-linecap:round;stroke-linejoin:round;stroke-miterlimit:4;stroke-dasharray:none;stroke-opacity:1" d="m541.326 564.37-.972 2.209.618.088" inkscape:connector-curvature="0" transform="matrix(1.85216 0 0 .82694 -896.079 191.142)"/><path style="fill:none;stroke:none;stroke-width:1;stroke-linecap:round;stroke-linejoin:round;stroke-miterlimit:4;stroke-dasharray:none;stroke-opacity:1" d="m529.217 564.016-.796 1.68 1.856 1.325" inkscape:connector-curvature="0" transform="matrix(1.85216 0 0 .82694 -896.079 191.142)"/></g></g></g><g sodipodi:insensitive="true" style="display:inline" inkscape:label="Layer 2" inkscape:groupmode="layer"><path style="display:inline;opacity:.98999999;fill:#a78014;fill-opacity:1;stroke:none" d="M601.566 458.54c5.016-.041 19.662 5.422 19.189 7.497-.123.54-5.248 2.371-7.233 3.306-1.133.534.533 2.16-.521 2.289-1.054.13-3.927-1.043-6.235-1.202-2.966-.204-8.603.637-9.86.512-1.258-.126-2.912-9.12-2.21-9.447 2.083-.96 5.388-2.846 6.87-2.955z" inkscape:connector-curvature="0" sodipodi:nodetypes="csszszcc"/><path style="display:inline;fill:#a78014;fill-opacity:1;stroke:none" d="M577.844 458.54c-5.015-.041-19.662 5.423-19.189 7.497.124.541 5.248 2.371 7.234 3.307 1.133.533-.533 2.158.52 2.288 1.054.13 3.928-1.042 6.236-1.201 2.965-.205 8.602.636 9.86.511 1.257-.125 2.912-9.12 2.21-9.446-2.084-.96-5.388-2.847-6.87-2.956z" inkscape:connector-curvature="0" sodipodi:nodetypes="csszszcc"/><g style="display:inline"><path sodipodi:nodetypes="csszszcc" inkscape:connector-curvature="0" d="M921.346 828.775c-13.481-.111-52.851 12.575-51.58 18.152.332 1.453 14.107 4.373 19.444 6.887 3.046 1.435.311 5.803 3.144 6.152 2.833.35 8.811-2.802 15.015-3.23 7.971-.549 25.123 1.968 28.504 1.63 3.38-.336 3.827-22.77 1.94-23.647-5.6-2.58-12.483-5.65-16.467-5.944z" style="display:inline;fill:#e2a70e;fill-opacity:1;stroke:none" transform="matrix(.3245 0 0 .3245 277.984 191.089)"/><path sodipodi:nodetypes="csszszcc" inkscape:connector-curvature="0" d="M999.311 828.775c13.482-.111 52.851 12.575 51.58 18.152-.332 1.453-14.107 4.373-19.443 6.887-3.046 1.435-.312 5.803-3.144 6.152-2.833.35-8.812-2.802-15.016-3.23-7.97-.549-25.123 1.968-28.503 1.63-3.38-.336-3.828-22.77-1.941-23.647 5.6-2.58 12.483-5.65 16.467-5.944z" style="display:inline;fill:#e2a70e;fill-opacity:1;stroke:none" transform="matrix(.3245 0 0 .3245 277.984 191.089)"/></g><g style="display:inline;fill:#2a2a2a;fill-opacity:1"><path sodipodi:nodetypes="ssszzzs" inkscape:connector-curvature="0" d="M1047.58 761.802c0 48.37-39.21 87.581-87.58 87.581s-87.58-39.211-87.58-87.58c0-24.185 13.802-71.41 29.651-112.587 15.85-41.178 25.492-72.5 59.033-72.5 33.542 0 40.976 31.322 56.825 72.5 15.849 41.178 29.652 88.402 29.652 112.586z" style="color:#000;display:inline;overflow:visible;visibility:visible;fill:#2a2a2a;fill-opacity:1;fill-rule:nonzero;stroke:none;stroke-width:.5;marker:none;enable-background:accumulate" transform="matrix(.3245 0 0 .3245 278.091 191.089)"/><path sodipodi:nodetypes="ccsc" inkscape:connector-curvature="0" d="M1024.434 733.293c22.909 6.146 50.599 25.504 53.923 28.75 16.038-16.211-35.277-58.72-50.462-82.935-8.669-13.824-7.866 51.118-3.461 54.185z" style="fill:#2a2a2a;fill-opacity:1;stroke:none" transform="matrix(.3245 0 0 .3245 278.091 191.089)"/><path sodipodi:nodetypes="ccsc" inkscape:connector-curvature="0" d="M882.378 728.006c-25.917 2.92-60.06 26.039-64.147 28.247-10.97-19.992 54.447-62.185 75.698-81.3 12.131-10.912-6.473 51.314-11.55 53.053z" style="display:inline;fill:#2a2a2a;fill-opacity:1;stroke:none" transform="matrix(.3245 0 0 .3245 278.091 191.089)"/></g><path style="color:#000;display:inline;overflow:visible;visibility:visible;fill:#f2f2f2;fill-opacity:1;fill-rule:nonzero;stroke:none;stroke-width:.5;marker:none;enable-background:accumulate" d="M609.452 432.672c0 12.474-8.525 21.938-19.841 21.938-11.317 0-19.841-9.464-19.841-21.938 0-12.474 8.524-24.533 19.84-24.533 11.317 0 19.842 12.06 19.842 24.533z" inkscape:connector-curvature="0" sodipodi:nodetypes="sssss"/><path style="color:#000;display:inline;overflow:visible;visibility:visible;fill:#b28b16;fill-opacity:1;fill-rule:nonzero;stroke:none;stroke-width:.5;marker:none;enable-background:accumulate" d="M602.16 413.755c0 2.589-7.403 9.27-12.55 9.27-5.146 0-12.549-6.938-12.549-9.27 0-2.07 5.619-7.756 12.55-7.756 6.93 0 12.55 5.517 12.55 7.756z" inkscape:connector-curvature="0" sodipodi:nodetypes="szszs"/><path style="color:#000;display:inline;overflow:visible;visibility:visible;fill:#f1c43c;fill-opacity:1;fill-rule:nonzero;stroke:none;stroke-width:.5;marker:none;enable-background:accumulate" d="M600.433 413.86c0 2.232-6.384 7.993-10.822 7.993-4.438 0-10.823-5.983-10.823-7.994 0-1.784 3.674-7.337 10.823-7.337 7.148 0 10.822 5.407 10.822 7.337z" inkscape:connector-curvature="0" sodipodi:nodetypes="szszs"/><path style="color:#000;font-style:normal;font-variant:normal;font-weight:400;font-stretch:normal;font-size:medium;line-height:normal;font-family:Sans;-inkscape-font-specification:Sans;text-indent:0;text-align:start;text-decoration:none;text-decoration-line:none;letter-spacing:normal;word-spacing:normal;text-transform:none;direction:ltr;block-progression:tb;writing-mode:lr-tb;baseline-shift:baseline;text-anchor:start;display:inline;overflow:visible;visibility:visible;fill:#b28b16;fill-opacity:1;stroke:none;stroke-width:1px;marker:none;enable-background:accumulate" d="m577.513 414.02-.02.233s5.206 5.405 12.118 5.405c6.911 0 12.118-5.405 12.118-5.405l-.02-.233s-5.356 4.972-12.098 4.972c-6.742 0-12.098-4.972-12.098-4.972z" inkscape:connector-curvature="0" sodipodi:nodetypes="ccsccsc"/><g style="display:inline"><path sodipodi:nodetypes="zzzz" inkscape:connector-curvature="0" d="M939.016 625.167c8.223-3.274 13.362 12.734 11.801 21.21-1.56 8.477-9.504 12.463-16.25 5.307-6.746-7.157-3.775-23.242 4.449-26.517z" style="fill:#f2f2f5;fill-opacity:1;stroke:none" transform="matrix(.3245 0 0 .3245 278.101 191.089)"/><path sodipodi:nodetypes="zzz" inkscape:connector-curvature="0" d="M939.144 636.683c6.988-.194 7.867 17.203 1.526 16.26-6.341-.944-8.515-16.067-1.526-16.26z" style="display:inline;fill:url(#b);fill-opacity:1;stroke:none" transform="matrix(.3245 0 0 .3245 278.101 191.089)"/><path sodipodi:nodetypes="zzz" inkscape:connector-curvature="0" d="M940.085 642.098c2.95-.086 3.32 7.676.644 7.254-2.677-.42-3.594-7.168-.644-7.254z" style="fill:#171717;fill-opacity:1;stroke:none" transform="matrix(.3245 0 0 .3245 278.101 191.089)"/><path sodipodi:nodetypes="zzzz" inkscape:connector-curvature="0" d="M980.92 625.167c-8.223-3.274-13.361 12.734-11.8 21.21 1.56 8.477 9.504 12.463 16.25 5.307 6.746-7.157 3.774-23.242-4.449-26.517z" style="display:inline;fill:#f2f2f5;fill-opacity:1;stroke:none" transform="matrix(.3245 0 0 .3245 278.101 191.089)"/><path sodipodi:nodetypes="zzz" inkscape:connector-curvature="0" d="M975.92 636.293c-6.988-.193-7.866 17.204-1.525 16.26 6.34-.943 8.515-16.066 1.526-16.26z" style="display:inline;fill:url(#c);fill-opacity:1;stroke:none" transform="matrix(.3245 0 0 .3245 278.101 191.089)"/><path sodipodi:nodetypes="zzz" inkscape:connector-curvature="0" d="M974.982 641.709c-2.95-.087-3.321 7.675-.644 7.254 2.676-.42 3.594-7.168.644-7.254z" style="display:inline;fill:#171717;fill-opacity:1;stroke:none" transform="matrix(.3245 0 0 .3245 278.101 191.089)"/><path sodipodi:nodetypes="zzz" inkscape:connector-curvature="0" d="M937.501 639.888c2.594-.064 2.92 5.77.567 5.454-2.354-.317-3.161-5.389-.567-5.454z" style="display:inline;fill:#fff;fill-opacity:.90232556;stroke:none" transform="matrix(.3245 0 0 .3245 278.101 191.089)"/><path sodipodi:nodetypes="zzz" inkscape:connector-curvature="0" d="M938.27 646.207c1.705-.034 1.92 3.048.373 2.88-1.547-.167-2.077-2.846-.372-2.88z" style="display:inline;fill:#fff;fill-opacity:.76744187;stroke:none" transform="matrix(.3245 0 0 .3245 278.101 191.089)"/><path sodipodi:nodetypes="zzz" inkscape:connector-curvature="0" d="M973.563 639.5c-2.594-.066-2.92 5.77-.566 5.453 2.354-.317 3.16-5.389.566-5.454z" style="display:inline;fill:#fff;fill-opacity:.90232556;stroke:none" transform="matrix(.3245 0 0 .3245 278.101 191.089)"/><path sodipodi:nodetypes="zzz" inkscape:connector-curvature="0" d="M972.794 645.818c-1.705-.034-1.92 3.048-.373 2.88 1.547-.167 2.077-2.846.373-2.88z" style="display:inline;fill:#fff;fill-opacity:.76744187;stroke:none" transform="matrix(.3245 0 0 .3245 278.101 191.089)"/></g><path sodipodi:nodetypes="ccccc" style="color:#000;display:inline;overflow:visible;visibility:visible;fill:#884110;fill-opacity:1;stroke:none;stroke-width:2.4000001;stroke-linecap:butt;stroke-linejoin:miter;stroke-miterlimit:4;stroke-dasharray:none;stroke-dashoffset:0;stroke-opacity:1;marker:none;enable-background:accumulate" d="m553.22 430.138-66.482 12.76c-4.87 1.421-2.833 1.692.274 1.784l67.092-11.552c.905-1.237 2.999-2.712-.883-2.992z" inkscape:connector-curvature="0"/><g style="display:inline;stroke:none" transform="matrix(.2261 -.0234 .02293 .19995 420.767 335.913)"><path inkscape:connector-curvature="0" style="fill:#bf272d;fill-opacity:1;stroke:none" d="M754.629 233.202c-49.33-5.386-92.054 39-113.524 98.55 65.29-48.598 112.635-37.19 154.428 31.786.45-2.24 8.64-26.457 5.569-45.085-5.312-17.112 15.854 38.88 32.797 56.87l4.815-4.797c-13.202-28.206-15.103-45.429-21.8-70.181-10.635-42.497-25.625-63.14-62.285-67.143z" sodipodi:nodetypes="sccccccs"/><path inkscape:connector-curvature="0" style="display:inline;fill:#e72f31;fill-opacity:1;stroke:none" d="M754.163 237.792c-49.33-5.386-82.846 35.434-104.316 94.983 65.29-48.598 95.15-39.235 136.944 29.74.768-1.08 14.447-23.587 6.93-58.5-5.312-17.112 28.243 46.76 42.097 67.96l-.227-1.815c-13.202-28.205-15.103-45.428-21.799-70.18-10.635-42.498-22.969-58.186-59.629-62.188z" sodipodi:nodetypes="sccccccs"/><path style="display:inline;fill:#979797;fill-opacity:1;stroke:none;stroke-width:1.83691883;stroke-opacity:1" d="M651.943 312.868c69.049-47.51 125.354 8.4 151.371 43.313 6.768 13.32 3.772 54.684-20.233 47.803-77.715-66.364-77.915-66.757-139.446-28.958-19.984 9.2-21.46-15.157-15.546-33.11 4.758-13.789 14.75-21.242 23.854-29.048z" inkscape:connector-curvature="0" sodipodi:nodetypes="cccccc"/><path style="fill:#e2e2e2;fill-opacity:1;stroke:none;stroke-width:1.83691883;stroke-opacity:1" d="M656.984 316.196c62.83-35.155 115.395 17.588 139.905 44.824 6.443 10.334 4.51 33.127-17.705 27.414-72.614-52.289-72.804-52.593-128.865-24.745-18.257 6.687-20.002-12.01-14.84-25.663 4.162-10.482 13.245-16.013 21.505-21.83z" inkscape:connector-curvature="0" sodipodi:nodetypes="cccccc"/><circle transform="rotate(6.82)" style="fill:#979797;fill-opacity:1;stroke:none;stroke-width:1.54193914;stroke-linecap:butt;stroke-linejoin:miter;stroke-miterlimit:4;stroke-dasharray:none;stroke-opacity:1" cx="891.8999" cy="288.6701" r="27.93952"/><path style="fill:#bf272d;fill-opacity:1;stroke:none" d="M800.98 313.475c-27.18-28.067-66.398-39.034-50.27-40.374 26.468 1.091 42.795 31.111 50.27 40.374z" inkscape:connector-curvature="0" sodipodi:nodetypes="ccc"/><ellipse style="display:inline;fill:#e2e2e2;fill-opacity:1;stroke:none;stroke-width:1.54193914;stroke-linecap:butt;stroke-linejoin:miter;stroke-miterlimit:4;stroke-dasharray:none;stroke-opacity:1" cx="891.38782" cy="287.07809" rx="22.870634" ry="23.282667" transform="rotate(6.823) skewX(.021)"/></g><path sodipodi:nodetypes="ccccc" style="color:#000;display:inline;overflow:visible;visibility:visible;fill:#a44e13;fill-opacity:1;stroke:none;stroke-width:2.4000001;stroke-linecap:butt;stroke-linejoin:miter;stroke-miterlimit:4;stroke-dasharray:none;stroke-dashoffset:0;stroke-opacity:1;marker:none;enable-background:accumulate" d="m552.337 430.895-64.842 12.634c-4.87 1.422-2.833.303.275.395l65.45-11.426c.906-1.237 2.999-1.323-.883-1.603z" inkscape:connector-curvature="0"/><path sodipodi:nodetypes="ccccccc" inkscape:connector-curvature="0" d="M491.637 442.234c1.139.004 1.05.522.65 1.264v44.746c.333.218.667.364 1 0v-44.549c.309-.481.576-.64.541-1.057-.453-1.658-1.836-1.555-2.191-.404z" style="color:#000;font-style:normal;font-variant:normal;font-weight:400;font-stretch:normal;font-size:medium;line-height:normal;font-family:sans-serif;text-indent:0;text-align:start;text-decoration:none;text-decoration-line:none;text-decoration-style:solid;text-decoration-color:#000;letter-spacing:normal;word-spacing:normal;text-transform:none;direction:ltr;block-progression:tb;writing-mode:lr-tb;baseline-shift:baseline;text-anchor:start;white-space:normal;clip-rule:nonzero;display:inline;overflow:visible;visibility:visible;opacity:1;isolation:auto;mix-blend-mode:normal;color-interpolation:sRGB;color-interpolation-filters:linearRGB;solid-color:#000;solid-opacity:1;fill:#5c5c5c;fill-opacity:1;fill-rule:evenodd;stroke:none;stroke-width:1px;stroke-linecap:butt;stroke-linejoin:miter;stroke-miterlimit:4;stroke-dasharray:none;stroke-dashoffset:0;stroke-opacity:1;color-rendering:auto;image-rendering:auto;shape-rendering:auto;text-rendering:auto;enable-background:accumulate"/></g><metadata><rdf:RDF><cc:Work><dc:format>image/svg+xml</dc:format><dc:type rdf:resource="http://purl.org/dc/dcmitype/StillImage"/><dc:title/><dc:date>2015</dc:date><dc:creator><cc:Agent><dc:title>Timothée Giet</dc:title></cc:Agent></dc:creator><cc:license rdf:resource="http://creativecommons.org/licenses/by-sa/4.0/"/></cc:Work><cc:License rdf:about="http://creativecommons.org/licenses/by-sa/4.0/"><cc:permits rdf:resource="http://creativecommons.org/ns#Reproduction"/><cc:permits rdf:resource="http://creativecommons.org/ns#Distribution"/><cc:requires rdf:resource="http://creativecommons.org/ns#Notice"/><cc:requires rdf:resource="http://creativecommons.org/ns#Attribution"/><cc:permits rdf:resource="http://creativecommons.org/ns#DerivativeWorks"/><cc:requires rdf:resource="http://creativecommons.org/ns#ShareAlike"/></cc:License></rdf:RDF></metadata></svg>