<!--Created with Inkscape (http://www.inkscape.org/)--><svg xmlns:dc="http://purl.org/dc/elements/1.1/" xmlns:cc="http://creativecommons.org/ns#" xmlns:rdf="http://www.w3.org/1999/02/22-rdf-syntax-ns#" xmlns="http://www.w3.org/2000/svg" xmlns:sodipodi="http://sodipodi.sourceforge.net/DTD/sodipodi-0.dtd" xmlns:inkscape="http://www.inkscape.org/namespaces/inkscape" width="145" height="120" viewBox="0 0 38.364582 31.750001" inkscape:version="0.92.4 (5da689c313, 2019-01-14)" sodipodi:docname="cat.svg"><sodipodi:namedview pagecolor="#ffffff" bordercolor="#666666" borderopacity="1.0" inkscape:pageopacity="0.0" inkscape:pageshadow="2" inkscape:zoom="1.979899" inkscape:cx="-205.32432" inkscape:cy="49.703042" inkscape:document-units="px" inkscape:current-layer="layer1" showgrid="false" units="px" inkscape:snap-global="false" inkscape:window-width="1884" inkscape:window-height="1051" inkscape:window-x="0" inkscape:window-y="0" inkscape:window-maximized="1"/><metadata><rdf:RDF><cc:Work><dc:format>image/svg+xml</dc:format><dc:type rdf:resource="http://purl.org/dc/dcmitype/StillImage"/><dc:title/><dc:date>2020</dc:date><dc:creator><cc:Agent><dc:title>Timothée Giet</dc:title></cc:Agent></dc:creator><cc:license rdf:resource="http://creativecommons.org/licenses/by-sa/4.0/"/></cc:Work><cc:License rdf:about="http://creativecommons.org/licenses/by-sa/4.0/"><cc:permits rdf:resource="http://creativecommons.org/ns#Reproduction"/><cc:permits rdf:resource="http://creativecommons.org/ns#Distribution"/><cc:requires rdf:resource="http://creativecommons.org/ns#Notice"/><cc:requires rdf:resource="http://creativecommons.org/ns#Attribution"/><cc:permits rdf:resource="http://creativecommons.org/ns#DerivativeWorks"/><cc:requires rdf:resource="http://creativecommons.org/ns#ShareAlike"/></cc:License></rdf:RDF></metadata><g inkscape:label="Layer 1" inkscape:groupmode="layer" style="display:inline;opacity:1"><path style="fill:#515151;fill-opacity:1;stroke:none;stroke-width:.16526821;stroke-linecap:butt;stroke-linejoin:miter;stroke-miterlimit:4;stroke-dasharray:none;stroke-opacity:1" d="M29.5 288.83c3.798.96 4.925 1.293 5.217 1.627.292.334 1.42 2.254 1.294 2.546-.125.292-.334 2.212 1.043 2.546.877.125 1.545-1.544 1.086-2.462-.167-.71-1.503-4.967-1.628-5.259-.125-.292-2.296-1.21-2.504-2.087-.21-.876.083-3.38-.752-4.174-.834-.792-5.425 6.052-3.756 7.263z" inkscape:connector-curvature="0" sodipodi:nodetypes="cccccccsc" transform="translate(0 -265.25)"/><path style="fill:#8e8e8e;fill-opacity:1;stroke:none;stroke-width:.16526821;stroke-linecap:butt;stroke-linejoin:miter;stroke-miterlimit:4;stroke-dasharray:none;stroke-opacity:1" d="M29.584 288.412c3.798.96 5.05 1.378 5.342 1.711.292.334 1.586 2.797 1.46 3.089-.125.292-.256 1.408.337 1.871.83.648 1.625-.911 1.166-1.83-.167-.709-1.544-4.924-1.67-5.216-.125-.292-2.42-1.42-2.629-2.296-.208-.876.167-3.297-.668-4.09-.834-.793-5.008 5.55-3.338 6.761z" inkscape:connector-curvature="0" sodipodi:nodetypes="cccscccsc" transform="translate(0 -265.25)"/><path style="fill:#515151;fill-opacity:1;stroke:none;stroke-width:.16526821;stroke-linecap:butt;stroke-linejoin:miter;stroke-miterlimit:4;stroke-dasharray:none;stroke-opacity:1" d="M12.722 287.953c2.37 2 3.917 5.442 4.007 6.386.058.612-1.625.353-.752 1.544.5.682 2.653.395 2.755-.459.125-1.043 0-3.464-.5-4.299-.502-.835-.084-3.84-.293-4.048-.209-.209-4.925-.25-5.217.876z" inkscape:connector-curvature="0" sodipodi:nodetypes="csssccc" transform="translate(0 -265.25)"/><path style="fill:#8e8e8e;fill-opacity:1;stroke:none;stroke-width:.16526821;stroke-linecap:butt;stroke-linejoin:miter;stroke-miterlimit:4;stroke-dasharray:none;stroke-opacity:1" d="M13.181 287.953c2.371 2 3.792 5.525 3.882 6.47.058.611-1.416.394-.919 1.168.458.71 2.277.479 2.38-.376.125-1.043-.042-3.005-.543-3.84-.501-.834-.376-3.797-.585-4.006-.208-.209-3.923-.543-4.215.584z" inkscape:connector-curvature="0" sodipodi:nodetypes="csssccc" transform="translate(0 -265.25)"/><path style="fill:#515151;fill-opacity:1;stroke:none;stroke-width:.16526821;stroke-linecap:butt;stroke-linejoin:miter;stroke-miterlimit:4;stroke-dasharray:none;stroke-opacity:1" d="M4.381 274.067c0 .689.293 2.567.167 2.817-.063-.183.811 1.156 2.165.256-.357-1.005-2.04-2.76-2.332-3.073z" inkscape:connector-curvature="0" sodipodi:nodetypes="cccc" transform="translate(0 -265.25)"/><path style="fill:#8e8e8e;fill-opacity:1;stroke:none;stroke-width:.16526821;stroke-linecap:butt;stroke-linejoin:miter;stroke-miterlimit:4;stroke-dasharray:none;stroke-opacity:1" d="M4.544 274.48c.383.778 1.133 2.331.727 2.92-.125.251 1.171.746 1.445-.237-.685-.983-1.88-2.37-2.172-2.683z" inkscape:connector-curvature="0" sodipodi:nodetypes="cccc" transform="translate(0 -265.25)"/><path style="fill:#515151;fill-opacity:1;stroke:none;stroke-width:.16526821;stroke-linecap:butt;stroke-linejoin:miter;stroke-miterlimit:4;stroke-dasharray:none;stroke-opacity:1" d="M5.627 275.64c-1.962.418-2.713 1.253-2.755 1.462-.042.208-.96 1.794-1.127 2.003-.167.209.126 1.169.501 1.21.376.042.209.71.793.752.584.041 2.129.083 2.671.584.543.5 1.085 1.795 1.002 2.045-.084.25-.71 3.923-.668 4.675.042.75-3.088 5.55-4.132 5.884-1.043.334-1.836-.25-1.836.96 0 .68 1.46 1.461 2.63.96 1.168-.5 4.215-3.172 4.632-3.339.862-.344 3.517-3.652 3.798-4.09.334-.459 5.718 0 7.846-.835 2.129-.834 5.76-.292 6.094-.125 1.21 3.464 2.776 2.959 2.963 4.633.154 1.38-1.563 2.724-1.67 2.755-.333.083-1.752-.084-1.376.918.25 1.46 2.504.751 2.67.626.168-.125 3.673-3.673 3.507-4.633-.167-.96-.835-3.923-.46-4.633.376-.71 3.005-2.963 2.797-5.3-.209-2.337-.71-2.087-.46-2.671.209-.57 4.95-8.323 1.628-12.438-3.717-4.606-6.552 1.085-5.676 1.336.877.25 2.17-1.795 3.715.042 1.544 1.836.874 7.195-2.045 8.806-1.21.668-3.985-.969-6.845.083-2.6.957-11.735 2.278-13.606 1.002 0 0-2.254-2.88-4.591-2.671z" inkscape:connector-curvature="0" sodipodi:nodetypes="csccccsscssscscsccccsccsssssccc" transform="translate(0 -265.25)"/><path style="fill:#8e8e8e;fill-opacity:1;stroke:none;stroke-width:.16526821;stroke-linecap:butt;stroke-linejoin:miter;stroke-miterlimit:4;stroke-dasharray:none;stroke-opacity:1" d="M5.669 275.933c-1.962.417-2.505 1.127-2.546 1.336-.042.208-1.002 1.753-1.169 1.961-.167.209.167.752.543.793.375.042 0 .668.584.71.584.042 2.233.167 2.775.668.543.5 1.294 1.92 1.21 2.17-.083.25-.646 4.257-.604 5.008.041.751-3.423 5.635-4.466 5.969-1.044.333-1.545-.126-1.67.542s1.169 1.169 2.337.668c1.17-.5 4.049-3.13 4.466-3.297.862-.345 3.475-3.652 3.757-4.09.333-.46 5.926-.084 8.055-.919 2.128-.834 6.177-.208 6.51-.041 1.211 3.464 2.694 3.334 2.88 5.008.155 1.38-1.897 3.016-2.003 3.047-.334.083-1.377-.292-1.002.71.376 1 2.087.333 2.254.208.418-.5 3.38-3.464 3.214-4.424-.167-.96-1.002-3.965-.626-4.675.375-.71 3.172-2.754 2.963-5.092-.209-2.337-.668-2.17-.417-2.754.208-.57 4.923-7.987 1.711-12.187-3.342-4.37-5.542.652-5.175.584.896-.167 2.212-1.419 3.756.417 1.544 1.837.874 7.655-2.045 9.266-1.21.668-4.194-.802-7.054.25-2.6.957-12.11 2.195-13.981.919 0 0-1.92-2.964-4.257-2.755z" inkscape:connector-curvature="0" sodipodi:nodetypes="csccccsscssscscsccccsccssssscc" transform="translate(0 -265.25)"/><path style="fill:#515151;fill-opacity:1;stroke:none;stroke-width:.16526821;stroke-linecap:butt;stroke-linejoin:miter;stroke-miterlimit:4;stroke-dasharray:none;stroke-opacity:1" d="M5.042 273.805c0 .688.293 2.566.167 2.817-.063-.183.811 1.156 2.165.255-.357-1.004-2.04-2.76-2.332-3.072z" inkscape:connector-curvature="0" sodipodi:nodetypes="cccc" transform="translate(0 -265.25)"/><path style="fill:#515151;fill-opacity:1;stroke:none;stroke-width:.30296513;stroke-linecap:butt;stroke-linejoin:miter;stroke-miterlimit:4;stroke-dasharray:none;stroke-opacity:1" d="M3.842 276.756c.54.143.637 1.078.637 1.078s-.758 1.063-1.018 1.063-.661-1.355.38-2.141z" inkscape:connector-curvature="0" sodipodi:nodetypes="ccsc" transform="translate(0 -265.25)"/><path style="fill:#c3d8a3;fill-opacity:1;stroke:none;stroke-width:.26902974;stroke-linecap:butt;stroke-linejoin:miter;stroke-miterlimit:4;stroke-dasharray:none;stroke-opacity:1" d="M3.78 276.905c.491.124.579.935.579.935s-.689.924-.926.924c-.236 0-.6-1.177.347-1.86z" inkscape:connector-curvature="0" sodipodi:nodetypes="ccsc" transform="translate(0 -265.25)"/><path style="fill:#000;fill-opacity:1;stroke:none;stroke-width:.49959394px;stroke-linecap:butt;stroke-linejoin:miter;stroke-opacity:1" d="M3.447 278.294s-.221-.63.252-.978c.355-.14-.233.374-.252.978z" inkscape:connector-curvature="0" sodipodi:nodetypes="ccc" transform="translate(0 -265.25)"/><path style="fill:#665a52;fill-opacity:1;stroke:none;stroke-width:.16526821;stroke-linecap:butt;stroke-linejoin:miter;stroke-miterlimit:4;stroke-dasharray:none;stroke-opacity:1" d="M2.017 278.73c-.668.375-.668.813-.272 1.126.44.378.514-.762.272-1.127z" inkscape:connector-curvature="0" sodipodi:nodetypes="ccc" transform="translate(0 -265.25)"/><path style="fill:#b4a295;fill-opacity:1;stroke:none;stroke-width:.13750948;stroke-linecap:butt;stroke-linejoin:miter;stroke-miterlimit:4;stroke-dasharray:none;stroke-opacity:1" d="M2.02 278.995c-.427.26-.47.44-.147.706.323.265.147-.706.147-.706z" inkscape:connector-curvature="0" sodipodi:nodetypes="ccc" transform="translate(0 -265.25)"/><path style="fill:#515151;fill-opacity:1;stroke:none;stroke-width:.3305364px;stroke-linecap:butt;stroke-linejoin:miter;stroke-opacity:1" d="M2.538 279.71c-.354.23-1.064 1.336-1.147 2.045.333-1.043 1.001-1.836 1.147-2.045z" inkscape:connector-curvature="0" sodipodi:nodetypes="ccc" transform="translate(0 -265.25)"/><path style="fill:#515151;fill-opacity:1;stroke:none;stroke-width:.3305364px;stroke-linecap:butt;stroke-linejoin:miter;stroke-opacity:1" d="M2.776 279.674c-.42.68-.84 1.487-.81 2.201.266-1.177.662-2.072.81-2.2z" inkscape:connector-curvature="0" sodipodi:nodetypes="ccc" transform="translate(0 -265.25)"/><path style="fill:#515151;fill-opacity:1;stroke:none;stroke-width:.3305364px;stroke-linecap:butt;stroke-linejoin:miter;stroke-opacity:1" d="M2.526 279.527c-.461.16-1.301 1.106-1.52 1.786.538-.99 1.19-1.486 1.52-1.786z" inkscape:connector-curvature="0" sodipodi:nodetypes="ccc" transform="translate(0 -265.25)"/><path style="fill:#515151;fill-opacity:1;stroke:none;stroke-width:.3305364px;stroke-linecap:butt;stroke-linejoin:miter;stroke-opacity:1" d="M2.538 280.086c.605-.125.856-.188.856-.188s-.417.397-.689.46c-.042-.043-.167-.126-.167-.272z" inkscape:connector-curvature="0" sodipodi:nodetypes="cccc" transform="translate(0 -265.25)"/><path style="fill:#8e8e8e;fill-opacity:1;stroke:none;stroke-width:.16526821;stroke-linecap:butt;stroke-linejoin:miter;stroke-miterlimit:4;stroke-dasharray:none;stroke-opacity:1" d="M5.205 274.218c.383.777 1.133 2.33.727 2.92-.125.25 1.171.746 1.445-.238-.684-.983-1.88-2.37-2.172-2.682z" inkscape:connector-curvature="0" sodipodi:nodetypes="cccc" transform="translate(0 -265.25)"/><path style="opacity:1;vector-effect:none;fill:#f5f9f0;fill-opacity:1;stroke:none;stroke-width:.24979697;stroke-linecap:butt;stroke-linejoin:miter;stroke-miterlimit:4;stroke-dasharray:none;stroke-dashoffset:0;stroke-opacity:1" sodipodi:type="arc" sodipodi:cx="3.8284438" sodipodi:cy="277.57837" sodipodi:rx="0.23418465" sodipodi:ry="0.23418465" sodipodi:start="0.14344896" sodipodi:end="0.14048923" sodipodi:open="true" d="M4.06 277.612a.234.234 0 0 1-.265.198.234.234 0 0 1-.198-.265.234.234 0 0 1 .264-.198.234.234 0 0 1 .2.264" transform="translate(0 -265.25)"/></g></svg>