<!--Created with Inkscape (http://www.inkscape.org/)--><svg xmlns:dc="http://purl.org/dc/elements/1.1/" xmlns:cc="http://creativecommons.org/ns#" xmlns:rdf="http://www.w3.org/1999/02/22-rdf-syntax-ns#" xmlns="http://www.w3.org/2000/svg" xmlns:sodipodi="http://sodipodi.sourceforge.net/DTD/sodipodi-0.dtd" xmlns:inkscape="http://www.inkscape.org/namespaces/inkscape" width="210" height="160" viewBox="0 0 55.562499 42.333335" inkscape:version="0.92.4 (5da689c313, 2019-01-14)" sodipodi:docname="cow.svg"><sodipodi:namedview pagecolor="#ffffff" bordercolor="#666666" borderopacity="1.0" inkscape:pageopacity="0.0" inkscape:pageshadow="2" inkscape:zoom="1.4" inkscape:cx="-136.34493" inkscape:cy="114.3452" inkscape:document-units="px" inkscape:current-layer="layer1" showgrid="false" units="px" inkscape:window-width="1884" inkscape:window-height="1051" inkscape:window-x="0" inkscape:window-y="0" inkscape:window-maximized="1" inkscape:snap-global="false"/><metadata><rdf:RDF><cc:Work><dc:format>image/svg+xml</dc:format><dc:type rdf:resource="http://purl.org/dc/dcmitype/StillImage"/><dc:title/><dc:date>2020</dc:date><dc:creator><cc:Agent><dc:title>Timothée Giet</dc:title></cc:Agent></dc:creator><cc:license rdf:resource="http://creativecommons.org/licenses/by-sa/4.0/"/></cc:Work><cc:License rdf:about="http://creativecommons.org/licenses/by-sa/4.0/"><cc:permits rdf:resource="http://creativecommons.org/ns#Reproduction"/><cc:permits rdf:resource="http://creativecommons.org/ns#Distribution"/><cc:requires rdf:resource="http://creativecommons.org/ns#Notice"/><cc:requires rdf:resource="http://creativecommons.org/ns#Attribution"/><cc:permits rdf:resource="http://creativecommons.org/ns#DerivativeWorks"/><cc:requires rdf:resource="http://creativecommons.org/ns#ShareAlike"/></cc:License></rdf:RDF></metadata><g inkscape:label="Layer 1" inkscape:groupmode="layer" style="display:inline;opacity:1"><path style="display:inline;fill:#2f2d2d;fill-opacity:1;stroke:none;stroke-width:.16962974;stroke-linecap:butt;stroke-linejoin:miter;stroke-miterlimit:4;stroke-dasharray:none;stroke-opacity:1" d="M55.56 260.501c.061.606-1.514 12.422-.968 14.24.545 1.817 1.635 3.332-.061 5.816-1.696-1.636-1.15-3.999-1.03-5.393.121-1.393-.12-9.573-.181-11.633-.061-2.06-3.829-6.337-3.073-6.428.755-.09 5.253 2.793 5.314 3.398z" inkscape:connector-curvature="0" sodipodi:nodetypes="ccccccc" transform="translate(0 -254.667)"/><path style="display:inline;fill:#ede6da;fill-opacity:1;stroke:none;stroke-width:.16962974;stroke-linecap:butt;stroke-linejoin:miter;stroke-miterlimit:4;stroke-dasharray:none;stroke-opacity:1" d="M55.137 260.804c.06.606-1.393 12.36-.848 14.179.848 2.12 1.393 3.03.12 5.09-1.15-1.394-.787-3.273-.665-4.666.12-1.394.181-9.574.12-11.634-.06-2.06-4.744-6.744-3.001-6.163 1.742.582 4.213 2.588 4.274 3.194z" inkscape:connector-curvature="0" sodipodi:nodetypes="ccccccc" transform="translate(0 -254.667)"/><path style="display:inline;fill:#2f2d2d;fill-opacity:1;stroke:none;stroke-width:.18677783;stroke-linecap:butt;stroke-linejoin:miter;stroke-miterlimit:4;stroke-dasharray:none;stroke-opacity:1" d="M15.29 275.722c-.215 3.016-.17 5.826-.488 9.538.288.802 1.824 2.967 1.031 6.117-.403 1.604-1.847 3.944-1.415 4.191.433.247 3.28.248 3.929-.37.648-.617-.254-1.915.9-2.038.901-.92-.586-7.292-.468-8.154.36-.741 2.165-7.76 1.916-9.62-.361-2.71-4.837-2.134-5.406.336z" inkscape:connector-curvature="0" sodipodi:nodetypes="ccsccccsc" transform="translate(0 -254.667)"/><path style="display:inline;fill:#ede6da;fill-opacity:1;stroke:none;stroke-width:.16962974;stroke-linecap:butt;stroke-linejoin:miter;stroke-miterlimit:4;stroke-dasharray:none;stroke-opacity:1" d="M15.134 273.759c.788 5.574 0 10.724.242 11.512.243.788 1.636 3.09.97 6.18-.34 1.574-1.757 3.454-1.394 3.696.364.243 2.605.303 3.15-.303.545-.606-.06-1.939.909-2.06.606-.545-.848-7.392-.545-8.119.303-.727 2.173-8.396 2.423-9.27.726-2.545-5.634-4.06-5.755-1.636z" inkscape:connector-curvature="0" sodipodi:nodetypes="ccsccccsc" transform="translate(0 -254.667)"/><path style="display:inline;fill:#2f2d2d;fill-opacity:1;stroke:none;stroke-width:.17954719;stroke-linecap:butt;stroke-linejoin:miter;stroke-miterlimit:4;stroke-dasharray:none;stroke-opacity:1" d="M37.46 273.136c6.545-1.146 9.145 7.521 9.885 10.557.75 3.076 1.488 5.832.34 8.324-.749 1.628-1.84 2.654-1.84 3.498.069.724 3 .785 3.409.181.409-.603.204-2.171 1.09-2.292.887-.12 0-6.394.818-7.359.818-.965-1.09-10.918-.545-13.934s1.84-5.49 1.636-7.118c-.204-1.629-2.318-6.876-10.02-5.73-7.703 1.146-7.772 1.749-7.908 2.654-.136.905.068 9.832 3.136 11.22z" inkscape:connector-curvature="0" sodipodi:nodetypes="cssccccscscc" transform="translate(0 -254.667)"/><path style="display:inline;fill:#ede6da;fill-opacity:1;stroke:none;stroke-width:.16561833;stroke-linecap:butt;stroke-linejoin:miter;stroke-miterlimit:4;stroke-dasharray:none;stroke-opacity:1" d="M39.108 273.693c5.816-1.097 8.128 7.2 8.785 10.106.667 2.945 1.323 5.583.303 7.968-.666 1.56-1.636 2.541-1.636 3.35.06.692 2.666.75 3.03.173.363-.578.181-2.079.969-2.194.788-.116 0-6.121.727-7.045.727-.924-.97-10.452-.485-13.34.485-2.886 1.636-7.852 1.454-9.412-.181-1.559-2.06-6.582-8.906-5.485-6.847 1.097-6.907 1.674-7.028 2.54-.121.867.06 12.011 2.787 13.34z" inkscape:connector-curvature="0" sodipodi:nodetypes="cssccccscscc" transform="translate(0 -254.667)"/><path style="display:inline;fill:#2f2d2d;fill-opacity:1;stroke:none;stroke-width:.16962974;stroke-linecap:butt;stroke-linejoin:miter;stroke-miterlimit:4;stroke-dasharray:none;stroke-opacity:1" d="M8.92 268.984c2.846 4.969 3.21 10.604 4.663 11.27 1.799 1.815 6.734-1.927 9.874-2.424 3.11-.492 9.747 1.058 11.145.849 2.237-.336 3.165-2.972 5.391-2.485 2.745.6 4.665 2.242 7.633-.605 2.968-2.848 1.756-16.845-1.939-17.511-3.695-.667-10.6.06-15.749.182-5.148.12-8.796-1.378-11.63-1.273-1.294.048-1.99 1.09-5.21 1.09-2.12 0-3.149-2.423-3.936-1.514-.788.909-2.12 10.3-.243 12.421z" inkscape:connector-curvature="0" sodipodi:nodetypes="ccsssssssssc" transform="translate(0 -254.667)"/><path style="display:inline;fill:#ede6da;fill-opacity:1;stroke:none;stroke-width:.16386355;stroke-linecap:butt;stroke-linejoin:miter;stroke-miterlimit:4;stroke-dasharray:none;stroke-opacity:1" d="M9.384 268.873c2.788 4.734 3.144 10.103 4.568 10.738 1.761 1.73 6.595-1.836 9.67-2.31 3.046-.468 9.547 1.009 10.916.809 2.19-.32 2.725-1.78 4.856-2.428.968-.294 4.937 2.496 7.844-.217s1.776-16.349-1.843-16.984c-3.619-.635-10.382.058-15.425.174-5.043.115-8.614-1.313-11.39-1.213-1.268.046-1.95 1.04-5.102 1.04-2.077 0-2.843-1.401-3.614-.535-.771.866-2.319 8.905-.48 10.926z" inkscape:connector-curvature="0" sodipodi:nodetypes="ccsssssssssc" transform="translate(0 -254.667)"/><path style="display:inline;fill:#2f2d2d;fill-opacity:1;stroke:none;stroke-width:.16962974;stroke-linecap:butt;stroke-linejoin:miter;stroke-miterlimit:4;stroke-dasharray:none;stroke-opacity:1" d="M41.132 273.31c5.088.303 7.46 7.53 8.117 10.58.666 3.09 1.322 5.858.303 8.361-.666 1.636-1.636 3.163-1.636 4.011.061.727 3.344.788 3.708.182.363-.606.181-2.678.969-2.8.787-.12 0-6.422.727-7.392.726-.969-.97-10.966-.485-13.996.485-3.03 1.635-8.24 1.454-9.876-.182-1.636-2.06-6.908-8.905-5.756-6.844 1.15-6.3 2.06-6.42 2.969-.121.908-.558 12.324 2.168 13.717z" inkscape:connector-curvature="0" sodipodi:nodetypes="cssccccscscc" transform="translate(0 -254.667)"/><path style="display:inline;fill:#ede6da;fill-opacity:1;stroke:none;stroke-width:.16647179;stroke-linecap:butt;stroke-linejoin:miter;stroke-miterlimit:4;stroke-dasharray:none;stroke-opacity:1" d="M41.07 273.531c5.66-1.139 7.91 7.474 8.55 10.491.648 3.057 1.287 5.797.295 8.273-.65 1.618-1.532 2.758-1.532 3.598.059.72 2.534.658 2.888.058.354-.599.177-2.158.943-2.278.767-.12 0-6.354.708-7.313.707-.96-.944-10.85-.472-13.848.472-2.997 1.592-8.152 1.415-9.771-.177-1.619-2.005-6.834-8.668-5.695-6.663 1.14-7.388 1.557-7.506 2.456-.118.9.725 12.65 3.379 14.03z" inkscape:connector-curvature="0" sodipodi:nodetypes="cssccccscscc" transform="translate(0 -254.667)"/><path style="display:inline;fill:#2f2d2d;fill-opacity:1;stroke:none;stroke-width:.18677783;stroke-linecap:butt;stroke-linejoin:miter;stroke-miterlimit:4;stroke-dasharray:none;stroke-opacity:1" d="M16.646 276.401c-.214 3.016-.17 5.826-.487 9.537.288.803 1.824 2.968 1.031 6.117-.403 1.604-1.847 3.945-1.415 4.192.433.247 3.28.248 3.929-.37.648-.617-.254-1.915.899-2.039.902-.92-.585-7.292-.467-8.154.36-.74 2.165-7.76 1.916-9.62-.361-2.71-4.838-2.133-5.406.337z" inkscape:connector-curvature="0" sodipodi:nodetypes="ccsccccsc" transform="translate(0 -254.667)"/><path style="display:inline;fill:#ede6da;fill-opacity:1;stroke:none;stroke-width:.16962974;stroke-linecap:butt;stroke-linejoin:miter;stroke-miterlimit:4;stroke-dasharray:none;stroke-opacity:1" d="M16.491 274.437c.787 5.575 0 10.725.242 11.513.243.787 1.636 3.09.97 6.18-.34 1.574-1.757 3.453-1.394 3.696.364.242 2.605.303 3.15-.303.545-.606-.06-1.939.909-2.06.605-.546-.848-7.392-.546-8.12.303-.726 2.174-8.396 2.423-9.27.727-2.545-5.633-4.06-5.754-1.636z" inkscape:connector-curvature="0" sodipodi:nodetypes="ccsccccsc" transform="translate(0 -254.667)"/><path style="display:inline;opacity:1;vector-effect:none;fill:#2f2d2d;fill-opacity:1;stroke:none;stroke-width:.15254639;stroke-linecap:butt;stroke-linejoin:miter;stroke-miterlimit:4;stroke-dasharray:none;stroke-dashoffset:0;stroke-opacity:1" d="M19.43 260.009c-.7-.111-.488 1.166-1.16.526-1.579-.534-2.633-.745-2.63.514-.446.233-.676.567-.861-.077-.56-1.035-1.617-1.857-2.836-1.816-1.494-.003-3.17.559-3.873 1.985-.829 1.715-.446 3.706.087 5.448.685 2.007 1.578 4 2.985 5.61.992 1.148 2.542 1.923 4.08 1.581 1.154-.167 2.075-1.118 2.316-2.243.309-1.238.17-2.534-.065-3.773.752.19 1.03-.807.755-1.352-.194-.437-.525-.69.034-.994.236-.4.226-.845.79-.771 1.722-.55 1.873-.805 1.189-2.219.688-.303.522-1.265.166-1.775-.22-.328-.564-.632-.977-.644z" inkscape:connector-curvature="0" sodipodi:nodetypes="cccccccccccccccccc" transform="translate(0 -254.667)"/><path style="display:inline;opacity:1;fill:#2f2d2d;fill-opacity:1;stroke:none;stroke-width:.16966395;stroke-linecap:butt;stroke-linejoin:miter;stroke-miterlimit:4;stroke-dasharray:none;stroke-opacity:1" d="M53.149 260.27c-.216.175-.184 1.173-.379 1.525-.052-.233-.39-1.122-.511-1.187-.304-.159-.693.315-.87 1.059-.036.148-.242.663-.255.813-.876-.198-1.59.167-1.863 1.299-.286 1.184.21 2.371 1.11 2.653.36.113.81-.602 1.166-.803.049 1.787.43 3.79 1.079 4.114a.67.67 0 0 0 .44.053c.52-2.754 1.115-5.863.98-7.055-.062-.543-.324-1.493-.897-2.47z" inkscape:connector-curvature="0" sodipodi:nodetypes="ccccccccccccc" transform="translate(0 -254.667)"/><path style="display:inline;fill:#ede6da;fill-opacity:1;stroke:none;stroke-width:.16962974;stroke-linecap:butt;stroke-linejoin:miter;stroke-miterlimit:4;stroke-dasharray:none;stroke-opacity:1" d="M10.073 269.16c.349-.289.715-1.73.79-1.852.076-.12 1.438-2.01 1.59-2.782.151-.773-.333-3.362-.076-3.514.258-.151 1.534.186 1.852.216.318.03 2.27-2.079 2.18-2.67-6.407 1.212-10.09 9.819-6.336 10.601z" inkscape:connector-curvature="0" sodipodi:nodetypes="ccscccc" transform="translate(0 -254.667)"/><path style="display:inline;fill:#2f2d2d;fill-opacity:1;stroke:none;stroke-width:.16962974;stroke-linecap:butt;stroke-linejoin:miter;stroke-miterlimit:4;stroke-dasharray:none;stroke-opacity:1" d="M5.107 268.762c.152.181 4.404.642 4.752.354.349-.287.715-1.73.79-1.85.076-.122 1.438-2.01 1.59-2.783.15-.773-.333-3.533-.076-3.685.258-.151 1.748.143 2.066.173.318.03 2.185-2.122 2.094-2.712-.09-.591-1.301-1.272-2.104-1.075-.802.197-1.847 1.545-2.15 1.424-.303-.121-.337-.911-.124-1.02.22-.113 2.126-1.521 1.82-2.408-.155-.586-1.063.834-2.47.607-1.41-.228-1.696-1.035-2.801-.974-1.106.06-1.956 1.073-2.682 1.027-.727-.045-2.818-.953-2.97-.801-.15.151.938 1.84 2.219 2.281.361.125-.264 1.048-.764.957-.5-.09-1.692-.957-2.026-.957-.333 0-2.642.337-2.22 1.413.364.924 1.966 2.263 2.48 2.248.515-.015 1.511-.708 1.929-.148-.14 2.342.773 4.006 1.143 4.673.335.604-.669 2.881-.496 3.256z" inkscape:connector-curvature="0" sodipodi:nodetypes="cccscccscscssscscssccsc" transform="translate(0 -254.667)"/><path style="display:inline;fill:#eaeaea;fill-opacity:1;stroke:none;stroke-width:.44528574px;stroke-linecap:butt;stroke-linejoin:miter;stroke-opacity:1" d="M9.64 262.316c.1-.875 1.87-2.207 2.068-1.213.199.994-1.988 2.684-2.067 1.213z" inkscape:connector-curvature="0" sodipodi:nodetypes="csc" transform="translate(0 -254.667)"/><path style="display:inline;opacity:1;vector-effect:none;fill:#242424;fill-opacity:1;stroke:none;stroke-width:.21814457;stroke-linecap:butt;stroke-linejoin:miter;stroke-miterlimit:4;stroke-dasharray:none;stroke-dashoffset:0;stroke-opacity:1" sodipodi:type="arc" sodipodi:cx="10.734015" sodipodi:cy="261.79874" sodipodi:rx="0.47702366" sodipodi:ry="0.4572784" sodipodi:start="0.14344896" sodipodi:end="0.14048923" sodipodi:open="true" d="M11.206 261.864a.477.457 0 0 1-.54.387.477.457 0 0 1-.404-.517.477.457 0 0 1 .54-.388.477.457 0 0 1 .404.517" transform="translate(0 -254.667)"/><path style="display:inline;fill:#eaeaea;fill-opacity:1;stroke:none;stroke-width:.42987084px;stroke-linecap:butt;stroke-linejoin:miter;stroke-opacity:1" d="M6.565 262.668c.144-.838-1.136-2.55-1.589-1.682-.452.868 1.119 3.024 1.59 1.682z" inkscape:connector-curvature="0" sodipodi:nodetypes="csc" transform="translate(0 -254.667)"/><path style="display:inline;opacity:1;vector-effect:none;fill:#242424;fill-opacity:1;stroke:none;stroke-width:.21059284;stroke-linecap:butt;stroke-linejoin:miter;stroke-miterlimit:4;stroke-dasharray:none;stroke-dashoffset:0;stroke-opacity:1" sodipodi:type="arc" sodipodi:cx="5.8282986" sodipodi:cy="261.88785" sodipodi:rx="0.46051008" sodipodi:ry="0.44144833" sodipodi:start="0.14344896" sodipodi:end="0.14048923" sodipodi:open="true" d="M6.284 261.951a.46.441 0 0 1-.521.374.46.441 0 0 1-.39-.5.46.441 0 0 1 .52-.374.46.441 0 0 1 .391.499" transform="translate(0 -254.667)"/><path style="display:inline;opacity:1;vector-effect:none;fill:#fff;fill-opacity:1;stroke:none;stroke-width:.22264287;stroke-linecap:butt;stroke-linejoin:miter;stroke-miterlimit:4;stroke-dasharray:none;stroke-dashoffset:0;stroke-opacity:1" sodipodi:type="arc" sodipodi:cx="11.089984" sodipodi:cy="261.43683" sodipodi:rx="0.32325226" sodipodi:ry="0.32334465" sodipodi:start="0.14344896" sodipodi:end="0.14048923" sodipodi:open="true" d="M11.41 261.483a.323.323 0 0 1-.366.274.323.323 0 0 1-.274-.366.323.323 0 0 1 .365-.274.323.323 0 0 1 .275.365" transform="translate(0 -254.667)"/><path style="display:inline;opacity:1;vector-effect:none;fill:#fff;fill-opacity:1;stroke:none;stroke-width:.15886533;stroke-linecap:butt;stroke-linejoin:miter;stroke-miterlimit:4;stroke-dasharray:none;stroke-dashoffset:0;stroke-opacity:1" sodipodi:type="arc" sodipodi:cx="6.0399742" sodipodi:cy="261.65402" sodipodi:rx="0.23065448" sodipodi:ry="0.2307204" sodipodi:start="0.14344896" sodipodi:end="0.14048923" sodipodi:open="true" d="M6.268 261.687a.23.23 0 0 1-.26.195.23.23 0 0 1-.196-.26.23.23 0 0 1 .26-.196.23.23 0 0 1 .196.26" transform="translate(0 -254.667)"/><path style="display:inline;fill:#f6efe2;fill-opacity:.95238097;stroke:none;stroke-width:.33925948px;stroke-linecap:butt;stroke-linejoin:miter;stroke-opacity:1" d="M6.87 263.22c-.01 1.237-.857 2.871-1.05 3.3-.192.428-.62 1.992-.492 2.056.129.064 4.048.664 4.412.322.75-.964-1.028-4.906-.921-5.484.107-.579 1.05-3.9 1.67-4.05.339-.431.575-1.694.963-1.915 1.158-.658 2.137-1.694 1.94-1.992-.089-.135-1.422 1.38-3.028.482-.38-.212-1.583-.733-1.93-.752-.447.006-2.082.778-2.449.995-.367.217-2.83-1.05-2.68-.794.909 1.559 2.306 1.365 2.185 1.79-.12.424.027 1.294.074 1.715.085.622 1.317 3.092 1.306 4.328z" inkscape:connector-curvature="0" sodipodi:nodetypes="zsccscssscssscz" transform="translate(0 -254.667)"/><path style="display:inline;fill:#714f4e;fill-opacity:1;stroke:none;stroke-width:.20899771;stroke-linecap:butt;stroke-linejoin:miter;stroke-miterlimit:4;stroke-dasharray:none;stroke-opacity:1" d="M7.384 266.892c1.102.037 1.716-.822 2.239-.374.522.448.336 1.83-.187 2.576-.522.746-3.21.597-3.62 0-.41-.597-.72-2.107-.186-2.538.424-.342.652.298 1.754.336z" inkscape:connector-curvature="0" sodipodi:nodetypes="zzsssz" transform="translate(0 -254.667)"/><path style="display:inline;fill:#ceb4b2;fill-opacity:1;stroke:none;stroke-width:.18364774;stroke-linecap:butt;stroke-linejoin:miter;stroke-miterlimit:4;stroke-dasharray:none;stroke-opacity:1" d="M7.415 267.025c.968.033 1.508-.721 1.967-.328.46.394.295 1.607-.164 2.263-.459.656-2.82.525-3.18 0-.361-.524-.634-1.851-.164-2.23.373-.3.572.262 1.54.295z" inkscape:connector-curvature="0" sodipodi:nodetypes="zzsssz" transform="translate(0 -254.667)"/><path style="display:inline;fill:#714f4e;fill-opacity:1;stroke:none;stroke-width:.36729547px;stroke-linecap:butt;stroke-linejoin:miter;stroke-opacity:1" d="M8.054 268.206c.492-.197.787-.656.984-.886.197-.23.623.952-.984.886z" inkscape:connector-curvature="0" transform="translate(0 -254.667)"/><path style="display:inline;fill:#714f4e;fill-opacity:1;stroke:none;stroke-width:.36729547px;stroke-linecap:butt;stroke-linejoin:miter;stroke-opacity:1" d="M7.06 268.206c-.493-.197-.788-.656-.985-.886-.196-.23-.623.952.984.886z" inkscape:connector-curvature="0" transform="translate(0 -254.667)"/><path style="display:inline;fill:#2f2d2d;fill-opacity:1;stroke:none;stroke-width:.33925948px;stroke-linecap:butt;stroke-linejoin:miter;stroke-opacity:1" d="M24.002 258.138c-.06 2.06.788 4.242 1.999 4.181 1.211-.06 2.847-1.878 3.332-2.484.484-.606.726 1.333.969 1.757.242.424 2.301 2.969 2.968 1.757.666-1.212-.788-4.483-1.333-4.726-.545-.242-1.554.06-2.968-.121-2.362-.303-4.967-.364-4.967-.364z" inkscape:connector-curvature="0" sodipodi:nodetypes="cccscssc" transform="translate(0 -254.667)"/><path style="display:inline;opacity:1;vector-effect:none;fill:#2f2d2d;fill-opacity:1;stroke:none;stroke-width:.16962974;stroke-linecap:butt;stroke-linejoin:miter;stroke-miterlimit:4;stroke-dasharray:none;stroke-dashoffset:0;stroke-opacity:1" d="M38.437 267.02c-1.323-.19-3.03-2.447-2.841-3.771.19-1.325.567-3.033 1.892-2.845 1.324.189 2.305 2.505 2.542 3.894-.192 1.328-.269 2.913-1.593 2.723z" inkscape:connector-curvature="0" sodipodi:nodetypes="ssscs" transform="translate(0 -254.667)"/><path style="display:inline;opacity:1;vector-effect:none;fill:#2f2d2d;fill-opacity:1;stroke:none;stroke-width:.17958969;stroke-linecap:butt;stroke-linejoin:miter;stroke-miterlimit:4;stroke-dasharray:none;stroke-dashoffset:0;stroke-opacity:1" sodipodi:type="arc" sodipodi:cx="-53.054832" sodipodi:cy="266.05164" sodipodi:rx="1.0297792" sodipodi:ry="1.6358994" sodipodi:start="0.14344896" sodipodi:end="0.14048923" sodipodi:open="true" d="M-52.036 266.286a1.03 1.636 0 0 1-1.165 1.385 1.03 1.636 0 0 1-.873-1.85 1.03 1.636 0 0 1 1.164-1.389 1.03 1.636 0 0 1 .875 1.849" transform="rotate(-19.067 -758.2 -127.333) skewX(-.01)"/><path style="display:inline;opacity:1;vector-effect:none;fill:#2f2d2d;fill-opacity:1;stroke:none;stroke-width:.16962974;stroke-linecap:butt;stroke-linejoin:miter;stroke-miterlimit:4;stroke-dasharray:none;stroke-dashoffset:0;stroke-opacity:1" d="M30.608 269.92c3.37 4.39 2.639-5.592.07-2.766-.958-3.802-3.246-3.29-2.937.046.308 3.337 1.726 6.096 2.867 2.72z" inkscape:connector-curvature="0" sodipodi:nodetypes="cccc" transform="translate(0 -254.667)"/><path style="display:inline;opacity:1;vector-effect:none;fill:#2f2d2d;fill-opacity:1;stroke:none;stroke-width:.16962974;stroke-linecap:butt;stroke-linejoin:miter;stroke-miterlimit:4;stroke-dasharray:none;stroke-dashoffset:0;stroke-opacity:1" d="M23.847 266.295c-1.435-.009-1.946 2.412-1.62 3.763-1.733.434-1.898 1.958-1.33 3.61-.473.977-1.911 1.111-.44 2.52 1.29.576 1.904-2.127 2.26-1.896 2.098 1.623 3.127-.72 2.067-2.79 1.2-1.404 1.204-5.236-.937-5.207z" inkscape:connector-curvature="0" sodipodi:nodetypes="ccccccc" transform="translate(0 -254.667)"/><path style="display:inline;opacity:1;vector-effect:none;fill:#2f2d2d;fill-opacity:1;stroke:none;stroke-width:.16962974;stroke-linecap:butt;stroke-linejoin:miter;stroke-miterlimit:4;stroke-dasharray:none;stroke-dashoffset:0;stroke-opacity:1" sodipodi:type="arc" sodipodi:cx="18.64131" sodipodi:cy="276.25507" sodipodi:rx="0.51487386" sodipodi:ry="1.0906327" sodipodi:start="0.14344896" sodipodi:end="0.14048923" sodipodi:open="true" d="M19.15 276.411a.515 1.09 0 0 1-.582.924.515 1.09 0 0 1-.436-1.234.515 1.09 0 0 1 .582-.926.515 1.09 0 0 1 .437 1.233" transform="translate(0 -254.667)"/><path style="display:inline;opacity:1;vector-effect:none;fill:#2f2d2d;fill-opacity:1;stroke:none;stroke-width:.13989891;stroke-linecap:butt;stroke-linejoin:miter;stroke-miterlimit:4;stroke-dasharray:none;stroke-dashoffset:0;stroke-opacity:1" d="M19.37 283.522c-.316-.045.818-5.197 1.479-3.762.865.768-.929 6.211-1.478 3.762z" inkscape:connector-curvature="0" sodipodi:nodetypes="ccc" transform="translate(0 -254.667)"/></g></svg>