<?xml version="1.0" encoding="UTF-8" standalone="no"?>
<!-- Created with Inkscape (http://www.inkscape.org/) -->

<svg
   xmlns:dc="http://purl.org/dc/elements/1.1/"
   xmlns:cc="http://creativecommons.org/ns#"
   xmlns:rdf="http://www.w3.org/1999/02/22-rdf-syntax-ns#"
   xmlns:svg="http://www.w3.org/2000/svg"
   xmlns="http://www.w3.org/2000/svg"
   xmlns:xlink="http://www.w3.org/1999/xlink"
   xmlns:sodipodi="http://sodipodi.sourceforge.net/DTD/sodipodi-0.dtd"
   xmlns:inkscape="http://www.inkscape.org/namespaces/inkscape"
   width="63.331387"
   height="51.006783"
   id="svg59453"
   version="1.1"
   inkscape:version="0.91 r13725"
   sodipodi:docname="dog.svg"
   inkscape:export-filename="/home/bruno/Projets/gcompris/git/master/src/explore_farm_animals-activity/resources/explore_farm_animals/farm-animals.png"
   inkscape:export-xdpi="90"
   inkscape:export-ydpi="90">
  <defs
     id="defs59455">
    <style
       id="style8"
       type="text/css">
    .fil3 {fill:#00713D}
    .fil2 {fill:#085D37}
    .fil4 {fill:#393D3F}
    .fil0 {fill:#7E5F3F}
    .fil1 {fill:#E0903C}
    .fil5 {fill:#FFFFFF}
   </style>
    <linearGradient
       inkscape:collect="always"
       xlink:href="#linearGradient6405-6"
       id="linearGradient6683-6"
       gradientUnits="userSpaceOnUse"
       gradientTransform="matrix(0.91886718,0,0,0.7379282,33.048157,-3.4703536)"
       x1="548.75549"
       y1="-316.11746"
       x2="48.256561"
       y2="-311.83743" />
    <linearGradient
       id="linearGradient6405-6">
      <stop
         style="stop-color:#784421;stop-opacity:1;"
         offset="0"
         id="stop6407-8" />
      <stop
         style="stop-color:#e6e6e6;stop-opacity:1"
         offset="1"
         id="stop6409-8" />
    </linearGradient>
    <linearGradient
       inkscape:collect="always"
       xlink:href="#linearGradient6604-8"
       id="linearGradient6685-2"
       gradientUnits="userSpaceOnUse"
       gradientTransform="matrix(0.91886722,0,0,0.73792822,39.48023,-12.325494)"
       x1="730.22998"
       y1="-146.91786"
       x2="-227.81757"
       y2="-145.63782" />
    <linearGradient
       id="linearGradient6604-8">
      <stop
         id="stop6606-6"
         offset="0"
         style="stop-color:#2b1100;stop-opacity:1" />
      <stop
         id="stop6608-7"
         offset="1"
         style="stop-color:#784421;stop-opacity:1" />
    </linearGradient>
    <linearGradient
       inkscape:collect="always"
       xlink:href="#linearGradient6405-6"
       id="linearGradient6687-6"
       gradientUnits="userSpaceOnUse"
       gradientTransform="translate(-7,12)"
       x1="712"
       y1="-327.63782"
       x2="193"
       y2="-324.63782" />
    <linearGradient
       inkscape:collect="always"
       xlink:href="#linearGradient6505-0"
       id="linearGradient6689-5"
       gradientUnits="userSpaceOnUse"
       x1="814.02881"
       y1="-145.63782"
       x2="189"
       y2="-145.63782" />
    <linearGradient
       id="linearGradient6505-0">
      <stop
         style="stop-color:#2b1100;stop-opacity:1;"
         offset="0"
         id="stop6507-2" />
      <stop
         style="stop-color:#784421;stop-opacity:1"
         offset="1"
         id="stop6509-7" />
    </linearGradient>
    <linearGradient
       inkscape:collect="always"
       xlink:href="#linearGradient6405-6"
       id="linearGradient6691-4"
       gradientUnits="userSpaceOnUse"
       gradientTransform="translate(1.47393,0)"
       x1="432.5"
       y1="-465.63782"
       x2="183.99899"
       y2="-463.63782" />
    <linearGradient
       inkscape:collect="always"
       xlink:href="#linearGradient6483-1"
       id="linearGradient6693-9"
       gradientUnits="userSpaceOnUse"
       x1="461"
       y1="-381.63782"
       x2="52"
       y2="-379.63782" />
    <linearGradient
       id="linearGradient6483-1">
      <stop
         style="stop-color:#502d16;stop-opacity:1;"
         offset="0"
         id="stop6485-4" />
      <stop
         style="stop-color:#a05a2c;stop-opacity:1"
         offset="1"
         id="stop6487-8" />
    </linearGradient>
  </defs>
  <sodipodi:namedview
     id="base"
     pagecolor="#ffffff"
     bordercolor="#666666"
     borderopacity="1.0"
     inkscape:pageopacity="0.0"
     inkscape:pageshadow="2"
     inkscape:zoom="0.70710678"
     inkscape:cx="237.18168"
     inkscape:cy="74.997429"
     inkscape:document-units="px"
     inkscape:current-layer="layer3"
     showgrid="false"
     inkscape:window-width="1366"
     inkscape:window-height="706"
     inkscape:window-x="-8"
     inkscape:window-y="-8"
     inkscape:window-maximized="1"
     showguides="true"
     inkscape:guide-bbox="true"
     inkscape:snap-page="true"
     fit-margin-top="0"
     fit-margin-left="0"
     fit-margin-right="0"
     fit-margin-bottom="0"
     showborder="false" />
  <metadata
     id="metadata59458">
    <rdf:RDF>
      <cc:Work
         rdf:about="">
        <dc:format>image/svg+xml</dc:format>
        <dc:type
           rdf:resource="http://purl.org/dc/dcmitype/StillImage" />
        <dc:title />
      </cc:Work>
    </rdf:RDF>
  </metadata>
  <g
     inkscape:label="BACKGROUNG"
     inkscape:groupmode="layer"
     id="layer1"
     transform="translate(-245.54138,-458.90839)" />
  <g
     inkscape:groupmode="layer"
     id="layer3"
     inkscape:label="Animals"
     style="display:inline"
     transform="translate(-248.63177,-258.54621)">
    <g
       id="DOG"
       transform="matrix(0.11820807,0,0,0.11820807,235.68152,325.44828)">
      <g
         id="g6650">
        <g
           id="g6631"
           transform="matrix(0.98325959,0,0,1,-0.19825951,-41.7193)">
          <path
             style="fill:url(#linearGradient6683-6);fill-opacity:1;stroke:none"
             d="m 410.52021,-358.35888 c -216.10898,4.41526 -211.15625,94.35269 -211.15625,236.8527 0,3.33107 0.0954,6.64653 0.21875,9.94758 l 17.96875,0 c 7.8905,-81.91937 119.52992,-85.33478 192.96875,-85.33663 73.44722,-0.002 187.89736,24.07925 193.03125,85.33663 l 17.9375,0 c 0.12336,-3.30105 0.25,-6.61651 0.25,-9.94758 0,-79.13036 1.59328,-142.06843 -34.0625,-183.12988 l -14.25,-13.54878 c -30.69719,-24.50501 -80.88788,-38.49834 -162.90625,-40.17404 z"
             id="path6596"
             inkscape:connector-curvature="0" />
          <path
             id="path6598"
             d="m 199.36313,-133.069 c 0.003,3.86055 0,7.61147 0,11.55319 0,3.33106 0.10636,6.66098 0.22971,9.96203 l 17.94663,0 c 0.75878,-7.87773 2.47328,-15.0225 5.02505,-21.51522 l -23.20139,0 z m 397.29521,0 c 3.84931,6.59079 6.2415,13.7594 6.8915,21.51522 l 17.94663,0 c 0.12336,-3.30105 0.22972,-6.63097 0.22972,-9.96203 0,-3.95494 -0.003,-7.68 0,-11.55319 l -25.06785,0 z"
             style="fill:url(#linearGradient6685-2);fill-opacity:1;stroke:none"
             inkscape:connector-curvature="0" />
        </g>
        <g
           id="g6645">
          <path
             style="fill:url(#linearGradient6687-6);fill-opacity:1;stroke:none"
             d="m 619.3125,-546.375 c 0,0 2.16359,54.46111 -6.09375,79.84375 -6.30842,19.39174 -17.78756,36.45549 -32.125,52.0625 -33.40764,-33.20784 -88.02094,-52.16669 -177.28125,-54.4375 C 168.62185,-462.92293 174,-341.07698 174,-147.96875 c 0,4.51407 0.11576,9.02659 0.25,13.5 l 19.53125,0 c 8.5872,-111.01267 130.10803,-115.65374 210.03125,-115.65625 79.93235,-0.003 204.47531,32.64358 210.0625,115.65625 l 19.53125,0 c 0.13425,-4.47341 0.25,-8.98593 0.25,-13.5 0,-107.23314 1.64781,-192.48076 -37.15625,-248.125 11.18238,-6.54864 30.25933,-17.03206 37.0625,-26.59375 7.60871,-10.69386 10.30152,-24.63331 11.3125,-37.71875 1.96911,-25.48702 -2.90639,-39.52228 -9.46875,-57.96875 -3.60822,-10.14252 -16.09375,-28 -16.09375,-28 z"
             id="path6370"
             inkscape:connector-curvature="0"
             sodipodi:nodetypes="caccsccaccscssac" />
          <path
             style="fill:url(#linearGradient6689-5);fill-opacity:1;stroke:none"
             d="m 174,-163.625 c 0.003,5.23161 0,10.31464 0,15.65625 0,4.51407 0.11576,9.02659 0.25,13.5 l 19.53125,0 c 0.82578,-10.67547 2.69166,-20.35767 5.46875,-29.15625 l -25.25,0 z m 432.375,0 c 4.18919,8.93147 6.7926,18.64598 7.5,29.15625 l 19.53125,0 c 0.13425,-4.47341 0.25,-8.98593 0.25,-13.5 0,-5.35952 -0.003,-10.40752 0,-15.65625 l -27.28125,0 z"
             id="path6500"
             inkscape:connector-curvature="0" />
          <path
             id="path6515"
             d="m 403.8125,-468.90625 c -18.56061,0.47219 -35.6275,1.66906 -51.3125,3.5625 4.42674,4.57887 10.11927,8.29628 16.78125,10.59375 0.71416,0.24629 1.44007,0.44886 2.15625,0.65625 3.96302,16.41012 15.61615,30.35627 32.34375,36.125 0.10978,0.0378 0.20284,0.088 0.3125,0.125 -1.91482,13.40154 9.93991,28.32023 28.3125,34.65625 20.05548,6.91639 40.27912,0.98291 45.1875,-13.25 0.0373,-0.10805 0.0902,-0.20386 0.125,-0.3125 11.99267,-1.33104 22.46387,-6.76492 28.71875,-15.34375 2.93137,1.45383 6.04424,2.77915 9.3125,3.90625 24.58416,8.47815 48.5738,3.5564 53.59375,-11 0.55246,-1.60198 0.84365,-3.25464 0.90625,-4.9375 -34.00865,-27.22303 -86.22552,-42.74063 -166.4375,-44.78125 z m 204.375,92.8125 c -16.30603,2.40546 -30.38627,11.94312 -35.9375,26.09375 -1.67474,4.26907 -2.42453,8.63482 -2.375,12.9375 -12.47003,1.66003 -23.0285,8.37627 -27,18.5 -6.02395,15.35567 5.35078,32.73237 25.40625,38.8125 0.71416,0.21651 1.44007,0.38019 2.15625,0.5625 3.96302,14.42598 15.61615,26.71001 32.34375,31.78125 0.10978,0.0332 0.20284,0.0611 0.3125,0.0937 -1.91482,11.78116 9.93991,24.89882 28.3125,30.46875 0.66852,0.20267 1.33168,0.38473 2,0.5625 -0.90234,-64.4303 -5.17206,-118.49037 -25.21875,-159.8125 z m -400.40625,30.875 c -7.88012,0.0177 -15.44237,2.37629 -21.6875,6.59375 -6.94864,27.41255 -9.89038,58.74226 -11.15625,93.53125 4.69474,8.45926 12.26841,15.24846 21.96875,18.59375 0.0886,0.0305 0.1615,0.0326 0.25,0.0625 -1.49636,10.47279 7.44003,22.09845 21.46875,27.46875 24.96879,-29.2479 65.28913,-41.84372 106.53125,-47.21875 -5.17624,-6.07717 -13.31655,-11.55385 -23.21875,-14.96875 -3.3667,-1.16106 -6.73303,-2.04087 -10,-2.59375 0.59255,-1.12102 1.11015,-2.27893 1.53125,-3.5 5.94185,-17.22962 -8.07864,-37.70626 -31.3125,-45.71875 -5.19596,-1.79189 -10.43377,-2.81792 -15.46875,-3.125 -3.19881,-11.97628 -12.44012,-22.37113 -25.5,-26.875 -4.45424,-1.5361 -8.97987,-2.25992 -13.40625,-2.25 z m 237.46875,55.1875 c -19.58845,0.0439 -37.55074,11.67408 -44,30.375 -1.08929,3.1586 -1.78374,6.36031 -2.125,9.5625 1.56504,-0.004 3.15207,-0.0312 4.6875,-0.0312 44.48727,-0.002 102.79324,10.09521 146.71875,33.375 -5.4695,-14.06317 -19.30202,-26.92785 -37.90625,-33.34375 -6.43837,-2.22035 -12.91736,-3.46325 -19.15625,-3.84375 -3.96368,-14.83993 -15.41112,-27.73172 -31.59375,-33.3125 -5.5193,-1.9034 -11.14024,-2.79354 -16.625,-2.78125 z"
             style="opacity:0.62831882;fill:#552200;fill-opacity:1;stroke:none"
             inkscape:connector-curvature="0" />
        </g>
      </g>
      <g
         id="g6579">
        <g
           id="g6575">
          <path
             id="path6390"
             d="m 231.46875,-565.96875 c -23.61587,0 -49.9632,18.89594 -58.59375,41.28125 -21.84714,31.49156 -82.36801,125.91086 -57.375,172.8125 9.54984,17.92115 43.56425,26.06712 57.6875,11.875 11.83607,-11.89379 17.67193,-32.14146 19.9375,-55.21875 3.68795,9.27723 6.79514,18.79698 8.375,28.875 8.4586,7.59763 18.45981,12.125 29.96875,12.125 11.50894,0 21.51015,-4.52737 29.96875,-12.125 1.5818,-10.09041 4.71227,-19.61823 8.40625,-28.90625 2.26344,23.08979 8.09628,43.35104 19.9375,55.25 14.12325,14.19212 48.13766,6.04615 57.6875,-11.875 25.00003,-46.91484 -35.57482,-141.37888 -57.40625,-172.84375 -8.64152,-22.37329 -34.98753,-41.25 -58.59375,-41.25 z"
             style="fill:url(#linearGradient6691-4);fill-opacity:1;stroke:none"
             inkscape:connector-curvature="0" />
          <path
             id="path6555"
             d="m 231.46875,-565.96875 c -21.43329,0 -45.10348,15.57584 -55.75,35.1875 0.004,0.0202 -0.004,0.0423 0,0.0625 -0.89448,1.64492 -1.69222,3.30879 -2.40625,5 -0.04,0.0948 -0.0856,0.1863 -0.125,0.28125 -0.10098,0.24958 -0.21593,0.49953 -0.3125,0.75 -0.56907,1.44017 -1.06589,2.90629 -1.46875,4.375 -3.18014,11.59365 -4.68384,26.36938 -4.3125,40.84375 1.21764,0.16704 2.44367,0.25656 3.65625,0.28125 1.28505,13.77092 7.65628,25.60982 17.65625,30.3125 15.16798,7.13299 32.88325,-4.82877 39.5625,-26.6875 0.23786,-0.77837 0.45253,-1.56204 0.65625,-2.34375 10.01385,-2.6743 19.10559,-9.36811 25.625,-19.25 -2.8462,-7.0415 -6.58138,-13.62201 -11,-19.21875 17.65759,-9.29623 25.69666,-26.05054 18,-39.3125 -0.44495,-0.76667 -0.9391,-1.50678 -1.46875,-2.21875 -9.0061,-5.05034 -18.87609,-8.0625 -28.3125,-8.0625 z"
             style="opacity:0.62831882;fill:#552200;fill-opacity:1;stroke:none"
             inkscape:connector-curvature="0" />
        </g>
        <g
           id="g6473"
           transform="translate(0.00996832,-4)">
          <path
             style="opacity:0.47115383;fill:#c83737;fill-opacity:1;stroke:none"
             d="m 231.46875,-408.53125 c -6.03879,0 -17.71323,2.64785 -17.71323,2.64785 0,0 2.00028,32.34734 17.71323,32.4949 15.51171,0.14567 17.71323,-32.4949 17.71323,-32.4949 0,0 -11.65942,-2.64785 -17.71323,-2.64785 z"
             id="path6468"
             inkscape:connector-curvature="0"
             sodipodi:nodetypes="scscs" />
          <path
             sodipodi:nodetypes="aaaacaaacaaaa"
             inkscape:connector-curvature="0"
             id="path6460"
             d="m 231.47393,-429.50248 c -1.52134,0 -2.68202,1.15471 -3.29582,2.06532 -3.39778,5.04078 3.96386,11.99952 -0.59924,16.5226 -1.84242,1.82624 -5.76162,2.47838 -8.98862,2.47838 -6.45403,0 -17.97723,-4.95677 -17.97723,-4.95677 0,0 9.85937,10.78289 17.97723,11.56581 4.77747,0.46076 8.05968,-4.54371 12.88368,-4.54371 4.824,0 8.10621,5.00447 12.88368,4.54371 8.11786,-0.78292 17.97723,-11.56581 17.97723,-11.56581 0,0 -11.5232,4.95677 -17.97723,4.95677 -3.227,0 -7.1462,-0.65214 -8.98862,-2.47838 -4.5631,-4.52308 2.79854,-11.48182 -0.59924,-16.5226 -0.6138,-0.91061 -1.77448,-2.06532 -3.29582,-2.06532 z"
             style="fill:#784421;fill-opacity:1;stroke:none" />
          <path
             sodipodi:nodetypes="aaaa"
             inkscape:connector-curvature="0"
             id="path6465"
             d="m 246.29979,-445.5547 c -4.94195,-7.9048 -24.70977,-7.9048 -29.65172,0 -4.94195,7.90478 4.94195,23.71436 14.82586,23.71436 9.88391,0 19.76781,-15.80958 14.82586,-23.71436 z"
             inkscape:transform-center-y="3.9523925"
             style="fill:#421000;fill-opacity:1;stroke:none" />
        </g>
        <g
           id="g6453"
           transform="matrix(1.0186965,0,0,1,1.424628,-3.5)">
          <path
             transform="matrix(0.80721505,-0.09871148,0.12224026,0.99962208,98.472852,23.062939)"
             style="fill:#ffffff;fill-opacity:1;stroke:#552200;stroke-width:0.59210473;stroke-miterlimit:4"
             d="m 223,-491.63782 c 0,15.46398 -12.53603,28 -28,28 -15.46397,0 -28,-12.53602 -28,-28 0,-15.46397 12.53603,-28 28,-28 15.46397,0 28,12.53603 28,28 z"
             id="path6445"
             inkscape:connector-curvature="0"
             sodipodi:nodetypes="sssss" />
          <path
             transform="matrix(0.39704479,-0.0485532,0.06012631,0.49168403,148.54682,-231.30117)"
             style="fill:#552200;fill-opacity:1;stroke:#552200;stroke-width:0.59210473;stroke-miterlimit:4"
             d="m 223,-491.63782 c 0,15.46398 -12.53603,28 -28,28 -15.46397,0 -28,-12.53602 -28,-28 0,-15.46397 12.53603,-28 28,-28 15.46397,0 28,12.53603 28,28 z"
             id="path6447"
             inkscape:connector-curvature="0"
             sodipodi:nodetypes="sssss" />
          <path
             transform="matrix(-0.80721505,-0.09871148,-0.12224026,0.99962208,359.09085,23.062939)"
             style="fill:#ffffff;fill-opacity:1;stroke:#552200;stroke-width:0.59210473;stroke-miterlimit:4"
             d="m 230.18904,-490.92791 c 0,15.46398 -12.53603,28 -28,28 -15.46397,0 -28,-12.53602 -28,-28 0,-15.46397 12.53603,-28 28,-28 15.46397,0 28,12.53603 28,28 z"
             id="path6449"
             inkscape:connector-curvature="0"
             sodipodi:nodetypes="sssss" />
          <path
             transform="matrix(-0.39704479,-0.0485532,-0.06012631,0.49168403,309.01688,-231.30117)"
             style="fill:#552200;fill-opacity:1;stroke:#552200;stroke-width:0.59210473;stroke-miterlimit:4"
             d="m 237.61573,-490.19453 c 0,15.46398 -12.53603,28 -28,28 -15.46397,0 -28,-12.53602 -28,-28 0,-15.46397 12.53603,-28 28,-28 15.46397,0 28,12.53603 28,28 z"
             id="path6451"
             inkscape:connector-curvature="0"
             sodipodi:nodetypes="sssss" />
        </g>
        <path
           style="fill:url(#linearGradient6693-9);fill-opacity:1;stroke:none"
           d="m 294.56893,-504.96875 c 1.85075,13.67399 1.95116,29.13135 -0.125,42.84375 -2.62192,17.31694 -10.61835,32.41824 -18.21875,48.15625 0.10793,19.83269 1.91492,39.81145 11.5,57.0625 7.62091,16.19891 28.06412,18.68965 41.84375,10.6875 14.50599,-6.72203 17.25232,-25.79279 15.46875,-40.75 -6.51926,-43.55177 -27.59026,-82.03683 -50.46875,-118 z m -126.21875,0.0625 c -22.8648,35.94239 -43.92263,74.41501 -50.4375,117.9375 -1.78357,14.95721 0.93153,34.02797 15.4375,40.75 13.77963,8.00215 34.25409,5.51141 41.875,-10.6875 9.57504,-17.23297 11.41984,-37.18781 11.53125,-57 -7.60943,-15.76071 -15.62459,-30.87874 -18.25,-48.21875 -2.07284,-13.6905 -1.99842,-29.12336 -0.15625,-42.78125 z"
           id="path6418"
           inkscape:connector-curvature="0" />
      </g>
    </g>
  </g>
</svg>
