<?xml version="1.0" encoding="UTF-8" standalone="no"?>
<!-- Created with Inkscape (http://www.inkscape.org/) -->

<svg
   xmlns:dc="http://purl.org/dc/elements/1.1/"
   xmlns:cc="http://creativecommons.org/ns#"
   xmlns:rdf="http://www.w3.org/1999/02/22-rdf-syntax-ns#"
   xmlns:svg="http://www.w3.org/2000/svg"
   xmlns="http://www.w3.org/2000/svg"
   xmlns:xlink="http://www.w3.org/1999/xlink"
   xmlns:sodipodi="http://sodipodi.sourceforge.net/DTD/sodipodi-0.dtd"
   xmlns:inkscape="http://www.inkscape.org/namespaces/inkscape"
   width="200"
   height="190"
   viewBox="0 0 52.916666 50.270835"
   version="1.1"
   id="svg1468"
   inkscape:version="0.92.4 (5da689c313, 2019-01-14)"
   sodipodi:docname="horse.svg">
  <defs
     id="defs1462">
    <linearGradient
       id="linearGradient845"
       inkscape:collect="always">
      <stop
         id="stop841"
         offset="0"
         style="stop-color:#d47234;stop-opacity:1" />
      <stop
         id="stop843"
         offset="1"
         style="stop-color:#edc3a8;stop-opacity:1" />
    </linearGradient>
    <linearGradient
       inkscape:collect="always"
       id="linearGradient2241">
      <stop
         style="stop-color:#be6228;stop-opacity:1;"
         offset="0"
         id="stop2237" />
      <stop
         style="stop-color:#e9b695;stop-opacity:1"
         offset="1"
         id="stop2239" />
    </linearGradient>
    <linearGradient
       gradientTransform="matrix(1.239478,0,0,1.2361987,-1.0432434,242.99096)"
       inkscape:collect="always"
       xlink:href="#linearGradient845"
       id="linearGradient2251"
       x1="20.656397"
       y1="30.851662"
       x2="20.037479"
       y2="35.009399"
       gradientUnits="userSpaceOnUse" />
    <linearGradient
       gradientTransform="matrix(1.239478,0,0,1.2361987,-1.0432434,242.99096)"
       inkscape:collect="always"
       xlink:href="#linearGradient845"
       id="linearGradient2243-3"
       x1="33.61005"
       y1="30.155605"
       x2="33.734375"
       y2="33.699131"
       gradientUnits="userSpaceOnUse" />
    <linearGradient
       gradientTransform="matrix(1.239478,0,0,1.2361987,-1.0432434,242.99096)"
       inkscape:collect="always"
       xlink:href="#linearGradient2241"
       id="linearGradient2267-6"
       x1="32.88393"
       y1="29.898655"
       x2="32.981888"
       y2="34.387123"
       gradientUnits="userSpaceOnUse" />
    <linearGradient
       gradientTransform="matrix(1.239478,0,0,1.2361987,-1.0432434,242.99096)"
       inkscape:collect="always"
       xlink:href="#linearGradient2241"
       id="linearGradient2259"
       x1="20.448511"
       y1="30.539831"
       x2="20.34931"
       y2="34.177853"
       gradientUnits="userSpaceOnUse" />
  </defs>
  <sodipodi:namedview
     id="base"
     pagecolor="#ffffff"
     bordercolor="#666666"
     borderopacity="1.0"
     inkscape:pageopacity="0.0"
     inkscape:pageshadow="2"
     inkscape:zoom="0.7"
     inkscape:cx="-289.42464"
     inkscape:cy="134.98023"
     inkscape:document-units="mm"
     inkscape:current-layer="layer1"
     showgrid="false"
     units="px"
     inkscape:window-width="1884"
     inkscape:window-height="1051"
     inkscape:window-x="0"
     inkscape:window-y="0"
     inkscape:window-maximized="1"
     inkscape:snap-global="false" />
  <metadata
     id="metadata1465">
    <rdf:RDF>
      <cc:Work
         rdf:about="">
        <dc:format>image/svg+xml</dc:format>
        <dc:type
           rdf:resource="http://purl.org/dc/dcmitype/StillImage" />
        <dc:title></dc:title>
        <dc:date>2020</dc:date>
        <dc:creator>
          <cc:Agent>
            <dc:title>Timothée Giet</dc:title>
          </cc:Agent>
        </dc:creator>
        <cc:license
           rdf:resource="http://creativecommons.org/licenses/by-sa/4.0/" />
      </cc:Work>
      <cc:License
         rdf:about="http://creativecommons.org/licenses/by-sa/4.0/">
        <cc:permits
           rdf:resource="http://creativecommons.org/ns#Reproduction" />
        <cc:permits
           rdf:resource="http://creativecommons.org/ns#Distribution" />
        <cc:requires
           rdf:resource="http://creativecommons.org/ns#Notice" />
        <cc:requires
           rdf:resource="http://creativecommons.org/ns#Attribution" />
        <cc:permits
           rdf:resource="http://creativecommons.org/ns#DerivativeWorks" />
        <cc:requires
           rdf:resource="http://creativecommons.org/ns#ShareAlike" />
      </cc:License>
    </rdf:RDF>
  </metadata>
  <g
     inkscape:label="Layer 1"
     inkscape:groupmode="layer"
     id="layer1"
     transform="translate(0,-246.72915)"
     style="display:inline;opacity:1">
    <path
       style="display:inline;fill:#6b4127;fill-opacity:1;stroke:none;stroke-width:0.16375561;stroke-linecap:butt;stroke-linejoin:miter;stroke-miterlimit:4;stroke-dasharray:none;stroke-opacity:1"
       d="m 8.4203185,246.96263 c -0.2342467,1.92741 -0.4684931,3.446 -0.1171236,3.79643 0.3513704,0.35044 1.3469179,0.70089 2.0496581,-0.11682 0.702739,-0.81768 -1.5811644,-2.56989 -1.9325345,-3.67961 z"
       id="path2048-9"
       inkscape:connector-curvature="0"
       sodipodi:nodetypes="cssc" />
    <path
       style="display:inline;fill:#be6228;fill-opacity:1;stroke:none;stroke-width:0.16375561;stroke-linecap:butt;stroke-linejoin:miter;stroke-miterlimit:4;stroke-dasharray:none;stroke-opacity:1"
       d="m 8.5960033,247.89712 c 0.3513698,1.46018 0.3513701,2.04425 0.4099316,3.15397 0.026116,0.4949 0.4684931,0.75929 1.1712331,-0.0584 0.702739,-0.81771 -1.0541095,-2.04425 -1.5811647,-3.09557 z"
       id="path2048-2-1"
       inkscape:connector-curvature="0"
       sodipodi:nodetypes="cssc" />
    <path
       style="display:inline;fill:#462916;fill-opacity:1;stroke:none;stroke-width:0.1637556;stroke-linecap:butt;stroke-linejoin:miter;stroke-miterlimit:4;stroke-dasharray:none;stroke-opacity:1"
       d="m 46.157446,263.49172 c 3.455138,1.16813 5.211983,4.49732 5.914725,8.52738 0.70274,4.03006 1.112671,9.81233 0.644178,10.80525 -0.468492,0.9929 -1.581161,1.05133 -2.986647,2.56988 -0.154829,-3.80142 -0.849525,-16.34512 -3.572256,-21.90251 z"
       id="path2054"
       inkscape:connector-curvature="0"
       sodipodi:nodetypes="csscc" />
    <path
       style="display:inline;fill:#6b4127;fill-opacity:1;stroke:none;stroke-width:0.1637556;stroke-linecap:butt;stroke-linejoin:miter;stroke-miterlimit:4;stroke-dasharray:none;stroke-opacity:1"
       d="m 38.415597,273.7129 c 3.279451,4.96456 4.74349,9.05304 4.74349,9.52028 0,0.46726 0.11713,5.72387 -0.409935,7.06723 -0.52705,1.34335 -1.99109,3.86653 -1.873966,4.27536 0.117118,0.40886 2.646987,0.46726 3.291162,0 0.64418,-0.46725 0.64418,-2.52316 0.93699,-2.8736 0.292806,-0.35045 0.761299,-7.18402 1.229794,-7.65128 0.468493,-0.46727 -2.705548,-8.6442 -3.466851,-9.11145 -0.761302,-0.46726 -4.450684,-1.22654 -4.450684,-1.22654 z"
       id="path2062"
       inkscape:connector-curvature="0"
       sodipodi:nodetypes="csccscssc" />
    <path
       style="display:inline;fill:#6b4127;fill-opacity:1;stroke:none;stroke-width:0.16375561;stroke-linecap:butt;stroke-linejoin:miter;stroke-miterlimit:4;stroke-dasharray:none;stroke-opacity:1"
       d="m 18.844294,272.68495 c -0.175685,2.86191 1.171232,8.17693 0.878425,9.16983 -0.29281,0.99292 0.40993,6.62333 -0.468497,8.0251 -0.878424,1.40176 -1.698287,3.39927 -1.81541,3.69129 0.878428,0.75928 3.947054,0.23364 4.53267,-0.64248 0.585618,-0.87608 0.292809,-3.04881 0.702739,-3.34084 0.409933,-0.29206 0.234248,-7.26581 0.644178,-7.79148 0.409933,-0.52565 0.702741,-7.41763 1.171235,-7.88491 0.468492,-0.46723 -3.595686,-3.38757 -5.645343,-1.22651 z"
       id="path2060-3"
       inkscape:connector-curvature="0"
       sodipodi:nodetypes="cccccccccc" />
    <path
       style="display:inline;fill:url(#linearGradient2259);fill-opacity:1;stroke:none;stroke-width:0.16375561;stroke-linecap:butt;stroke-linejoin:miter;stroke-miterlimit:4;stroke-dasharray:none;stroke-opacity:1"
       d="m 19.500184,272.03077 c -0.175685,2.86193 1.171235,8.83111 0.878425,9.82401 -0.292809,0.99292 0.409931,6.62333 -0.468496,8.0251 -0.878424,1.40176 -1.698287,2.74511 -1.815411,3.03715 0.878431,0.75928 2.635274,0.23361 3.220892,-0.64249 0.585614,-0.8761 0.292808,-2.39466 0.702738,-2.68669 0.409932,-0.29206 0.234247,-7.26581 0.644179,-7.79148 0.40993,-0.52565 0.702741,-8.0718 1.171233,-8.53906 0.468493,-0.46725 -2.283905,-3.38757 -4.333563,-1.22654 z"
       id="path2060-7-5"
       inkscape:connector-curvature="0"
       sodipodi:nodetypes="cccccccccc" />
    <path
       style="display:inline;fill:url(#linearGradient2267-6);fill-opacity:1;stroke:none;stroke-width:0.16375561;stroke-linecap:butt;stroke-linejoin:miter;stroke-miterlimit:4;stroke-dasharray:none;stroke-opacity:1"
       d="m 39.071486,273.7129 c 3.279453,4.96456 4.743492,9.05304 4.743492,9.52028 0,0.46726 0.117129,5.72387 -0.409931,7.06723 -0.527055,1.34335 -1.991094,3.21237 -1.873972,3.62121 0.117118,0.40884 1.335206,0.46724 1.979383,0 0.64418,-0.46725 0.64418,-1.86901 0.936989,-2.21945 0.292805,-0.35045 0.761298,-7.18402 1.229793,-7.65128 0.468493,-0.46727 -1.393766,-8.6442 -2.155067,-9.11145 -0.761302,-0.46726 -4.450687,-1.22654 -4.450687,-1.22654 z"
       id="path2062-6"
       inkscape:connector-curvature="0"
       sodipodi:nodetypes="csccscssc" />
    <path
       style="display:inline;fill:#6b4127;fill-opacity:1;stroke:none;stroke-width:0.1637556;stroke-linecap:butt;stroke-linejoin:miter;stroke-miterlimit:4;stroke-dasharray:none;stroke-opacity:1"
       d="m 9.9077846,249.52084 c -2.4595892,0.17521 -3.8650687,2.51148 -4.5092466,3.03714 -0.6441786,0.52567 -4.1110279,3.69132 -5.10657587,4.33378 -0.995548,0.64248 0.83157547,3.69132 1.35863037,3.57449 0.5270548,-0.11682 0.9369864,0.81771 1.639726,0.70089 0.7027397,-0.11683 2.5884249,-1.8807 3.232603,-2.11433 0.6441783,-0.23363 2.91637,-0.75929 3.6191095,-0.52566 0.70274,0.23363 3.338014,8.93623 3.338014,10.16277 0,1.22654 0.995548,5.54864 3.338015,6.65836 2.342465,1.10974 15.460272,1.98583 19.559589,-1.05132 4.099316,-3.03715 8.362603,8.7026 8.421165,9.34507 0.05857,0.64248 1.054111,1.16814 1.054111,1.6938 0,0.52567 0,6.59996 -0.409932,7.30083 -0.409932,0.7009 -1.698287,3.16565 -1.698287,3.5745 0,0.40885 3.068629,1.16814 4.532672,-0.35044 0.468493,-1.46017 0.234246,-3.10723 0.527054,-3.57449 0.292808,-0.46725 -0.11713,-6.24952 0.409932,-9.81232 -0.761299,-1.6354 -2.869522,-4.96459 -2.518151,-6.24952 0.351369,-1.28495 3.279452,-6.30793 2.225341,-9.98755 -1.054107,-3.67962 -5.985,-4.97626 -7.917536,-4.80105 -1.459192,0.13233 -7.788696,1.28497 -10.248287,1.34336 -2.459589,0.0584 -6.617466,-0.64246 -8.667122,-2.62829 -2.04966,-1.98583 -8.667125,-10.63002 -12.1808244,-10.63002 z"
       id="path2044"
       inkscape:connector-curvature="0"
       sodipodi:nodetypes="csscccsssscscsccccssssc" />
    <path
       style="display:inline;fill:url(#linearGradient2243-3);fill-opacity:1;stroke:none;stroke-width:0.16375561;stroke-linecap:butt;stroke-linejoin:miter;stroke-miterlimit:4;stroke-dasharray:none;stroke-opacity:1"
       d="m 9.9077849,250.17499 c -2.4595895,0.17523 -3.865069,2.51149 -4.5092469,3.03716 -0.6441786,0.52566 -3.4551374,3.03715 -4.4506854,3.67962 -0.99554803,0.64247 0.175685,3.03714 0.7027399,2.92033 0.5270548,-0.11682 0.9369864,0.81769 1.6397263,0.70087 0.7027394,-0.11682 2.5884248,-1.88068 3.2326024,-2.11432 0.6441786,-0.23362 3.5722608,-0.75928 4.2750008,-0.52566 0.702738,0.23363 3.338013,9.59039 3.338013,10.81693 0,1.22654 0.995549,4.89447 3.338014,6.00422 2.342466,1.10972 14.804383,1.98582 18.9037,-1.05133 4.099316,-3.03715 9.018495,9.35676 9.077055,9.99922 0.05856,0.64248 1.054111,1.16814 1.054111,1.6938 0,0.52567 0,6.59996 -0.409931,7.30085 -0.409931,0.70088 -1.698287,2.51149 -1.698287,2.92033 0,0.40885 1.756849,1.16814 3.22089,-0.35043 0.468493,-1.46017 0.234245,-2.45309 0.527054,-2.92034 0.29281,-0.46725 -0.117129,-6.24953 0.409932,-9.81233 -0.761299,-1.6354 -2.86952,-4.96459 -2.518151,-6.24952 0.351371,-1.28494 3.279453,-6.30793 2.225342,-9.98755 -1.054109,-3.67962 -5.32911,-4.3221 -7.261643,-4.14688 -1.459195,0.1323 -7.788699,1.28494 -10.24829,1.34335 -2.459589,0.0585 -6.617466,-0.64247 -8.667122,-2.62828 -2.04966,-1.98585 -8.667125,-10.63004 -12.1808241,-10.63004 z"
       id="path2044-6"
       inkscape:connector-curvature="0"
       sodipodi:nodetypes="csscccsssscscsccccssssc" />
    <path
       style="display:inline;fill:#4a2710;fill-opacity:1;stroke:none;stroke-width:0.22595613;stroke-linecap:butt;stroke-linejoin:miter;stroke-miterlimit:4;stroke-dasharray:none;stroke-opacity:1"
       d="m 6.8999248,252.44618 c 1.3332921,-0.72533 2.7069866,0.40296 2.7069866,0.40296 0,0 -0.2828193,1.12827 -1.0100695,1.53124 -0.7272501,0.40297 -1.4545003,-1.53124 -1.6969171,-1.9342 z"
       id="path2046-7"
       inkscape:connector-curvature="0"
       sodipodi:nodetypes="ccsc" />
    <path
       style="display:inline;fill:#f1f1f1;fill-opacity:1;stroke:none;stroke-width:0.22595613;stroke-linecap:butt;stroke-linejoin:miter;stroke-miterlimit:4;stroke-dasharray:none;stroke-opacity:1"
       d="m 6.9605292,252.50662 c 1.131278,-0.20147 2.282757,0.4231 2.282757,0.4231 0,0 -0.080806,0.80592 -0.8080555,1.20887 -0.7272504,0.40297 -1.3751302,-1.05807 -1.4747015,-1.63197 z"
       id="path2046"
       inkscape:connector-curvature="0"
       sodipodi:nodetypes="ccsc" />
    <path
       style="display:inline;fill:#462916;fill-opacity:1;stroke:none;stroke-width:0.1637556;stroke-linecap:butt;stroke-linejoin:miter;stroke-miterlimit:4;stroke-dasharray:none;stroke-opacity:1"
       d="m 10.200593,249.29889 c -1.9910961,-0.11683 -3.6893836,0.35043 -4.7434938,2.5699 2.1082199,-1.28495 4.3335624,-1.92742 5.7390408,-1.86901 1.021848,0.0425 0.341391,1.01844 1.639726,4.38048 3.341881,8.65385 6.617468,9.3451 9.252742,9.3451 2.635274,0 3.747944,-1.98584 3.747944,-1.98584 0,0 -2.986643,-0.23363 -5.153423,-2.97874 -4.977741,-7.35924 -6.32466,-9.05304 -10.482536,-9.46189 z"
       id="path2052"
       inkscape:connector-curvature="0"
       sodipodi:nodetypes="ccsssccc" />
    <path
       style="display:inline;fill:#744223;fill-opacity:1;stroke:none;stroke-width:0.1637556;stroke-linecap:butt;stroke-linejoin:miter;stroke-miterlimit:4;stroke-dasharray:none;stroke-opacity:1"
       d="m 1.9434006,257.00858 c -0.8784247,0.23363 -1.11267129,0.70088 -0.819863,1.40177 0.6158545,-0.33346 1.1858826,-0.0804 0.819863,-1.40177 z"
       id="path2056"
       inkscape:connector-curvature="0"
       sodipodi:nodetypes="ccc" />
    <path
       style="display:inline;fill:#744223;fill-opacity:1;stroke:none;stroke-width:0.17452896;stroke-linecap:butt;stroke-linejoin:miter;stroke-miterlimit:4;stroke-dasharray:none;stroke-opacity:1"
       d="m 1.6213115,259.79519 c 1.2890964,-0.97624 2.0170639,-1.43234 2.5787935,-1.49457 -0.7489725,0.74699 -2.1418928,1.74356 -2.1418928,1.74356 z"
       id="path2058"
       inkscape:connector-curvature="0"
       sodipodi:nodetypes="cccc" />
    <path
       style="display:inline;fill:#6b4127;fill-opacity:1;stroke:none;stroke-width:0.1637556;stroke-linecap:butt;stroke-linejoin:miter;stroke-miterlimit:4;stroke-dasharray:none;stroke-opacity:1"
       d="m 16.87662,274.64741 c -0.175685,2.86191 1.171234,8.17694 0.878426,9.16984 -0.29281,0.99292 0.40993,6.62332 -0.468497,8.02509 -0.878423,1.40176 -1.698287,3.39928 -1.81541,3.69131 0.878429,0.75929 3.947054,0.23361 4.53267,-0.64249 0.585617,-0.8761 0.292809,-3.04882 0.702742,-3.34085 0.409929,-0.29205 0.234244,-7.26581 0.644176,-7.79147 0.409932,-0.52566 0.70274,-7.41765 1.171234,-7.8849 0.468493,-0.46725 -3.595686,-3.38758 -5.645343,-1.22653 z"
       id="path2060"
       inkscape:connector-curvature="0"
       sodipodi:nodetypes="cccccccccc" />
    <path
       style="display:inline;fill:#6b4127;fill-opacity:1;stroke:none;stroke-width:0.1637556;stroke-linecap:butt;stroke-linejoin:miter;stroke-miterlimit:4;stroke-dasharray:none;stroke-opacity:1"
       d="m 9.7320998,246.96263 c -0.2342467,1.92741 -0.4684933,3.44599 -0.1171236,3.79643 0.3513701,0.35044 1.3469178,0.70089 2.0496578,-0.11682 0.702739,-0.81769 -1.581164,-2.56989 -1.9325342,-3.67961 z"
       id="path2048"
       inkscape:connector-curvature="0"
       sodipodi:nodetypes="cssc" />
    <path
       style="display:inline;fill:url(#linearGradient2251);fill-opacity:1;stroke:none;stroke-width:0.16375561;stroke-linecap:butt;stroke-linejoin:miter;stroke-miterlimit:4;stroke-dasharray:none;stroke-opacity:1"
       d="m 17.532511,273.99325 c -0.175685,2.86193 1.171234,8.8311 0.878425,9.824 -0.292808,0.99292 0.409932,6.62332 -0.468496,8.02509 -0.878425,1.40176 -1.532649,2.57994 -1.649773,2.87196 0.878431,0.75929 2.469638,0.39881 3.055253,-0.47729 0.585616,-0.8761 0.292809,-2.39467 0.702739,-2.6867 0.409932,-0.29205 0.234247,-7.26581 0.64418,-7.79147 0.409929,-0.52566 0.70274,-8.0718 1.171232,-8.53906 0.468493,-0.46724 -2.283905,-3.38759 -4.33356,-1.22653 z"
       id="path2060-7"
       inkscape:connector-curvature="0"
       sodipodi:nodetypes="cccccccccc" />
    <path
       style="display:inline;fill:#d47234;fill-opacity:1;stroke:none;stroke-width:0.16375561;stroke-linecap:butt;stroke-linejoin:miter;stroke-miterlimit:4;stroke-dasharray:none;stroke-opacity:1"
       d="m 9.9077846,247.89712 c 0.3513694,1.46018 0.3513694,2.04425 0.4099314,3.15397 0.02612,0.4949 0.468493,0.75929 1.171233,-0.0584 0.702739,-0.81771 -1.05411,-2.04425 -1.5811644,-3.09557 z"
       id="path2048-2"
       inkscape:connector-curvature="0"
       sodipodi:nodetypes="cssc" />
    <path
       style="display:inline;fill:#362013;fill-opacity:1;stroke:none;stroke-width:0.22595613;stroke-linecap:butt;stroke-linejoin:miter;stroke-miterlimit:4;stroke-dasharray:none;stroke-opacity:1"
       d="m 7.1785466,252.45663 c 0.129068,1.44034 1.0925845,1.79872 1.2585473,0.76567 0.031282,-0.19349 -0.058395,-0.50362 -0.098988,-0.64845 -0.4525417,-0.16435 -0.8401509,-0.20694 -1.1595601,-0.11717 z"
       id="path2046-2"
       inkscape:connector-curvature="0"
       sodipodi:nodetypes="cccc" />
    <path
       style="display:inline;opacity:1;vector-effect:none;fill:#ffffff;fill-opacity:1;stroke:none;stroke-width:0.22595611;stroke-linecap:butt;stroke-linejoin:miter;stroke-miterlimit:4;stroke-dasharray:none;stroke-dashoffset:0;stroke-opacity:1"
       id="path2204"
       sodipodi:type="arc"
       sodipodi:cx="8.3164701"
       sodipodi:cy="253.09787"
       sodipodi:rx="0.30302089"
       sodipodi:ry="0.32236713"
       sodipodi:start="0.14344896"
       sodipodi:end="0.14048923"
       sodipodi:open="true"
       d="m 8.6163787,253.14395 a 0.30302089,0.32236713 0 0 1 -0.3430057,0.27301 0.30302089,0.32236713 0 0 1 -0.2568751,-0.3647 0.30302089,0.32236713 0 0 1 0.3426255,-0.27355 0.30302089,0.32236713 0 0 1 0.2573822,0.3643" />
  </g>
</svg>
