<!--Created with Inkscape (http://www.inkscape.org/)--><svg xmlns:dc="http://purl.org/dc/elements/1.1/" xmlns:cc="http://creativecommons.org/ns#" xmlns:rdf="http://www.w3.org/1999/02/22-rdf-syntax-ns#" xmlns="http://www.w3.org/2000/svg" xmlns:xlink="http://www.w3.org/1999/xlink" xmlns:sodipodi="http://sodipodi.sourceforge.net/DTD/sodipodi-0.dtd" xmlns:inkscape="http://www.inkscape.org/namespaces/inkscape" width="100" height="130" viewBox="0 0 26.458333 34.395834" inkscape:version="0.92.4 (5da689c313, 2019-01-14)" sodipodi:docname="rooster.svg"><defs><linearGradient inkscape:collect="always" id="a"><stop style="stop-color:#603018;stop-opacity:1" offset="0"/><stop style="stop-color:#a66131;stop-opacity:1" offset="1"/></linearGradient><linearGradient inkscape:collect="always" xlink:href="#a" id="b" x1="13.345773" y1="21.203039" x2="11.513701" y2="9.2357311" gradientUnits="userSpaceOnUse" gradientTransform="matrix(1.08058 0 0 1.08058 -6.719 -.932)"/><linearGradient inkscape:collect="always" xlink:href="#a" id="d" x1="21.486824" y1="20.235209" x2="13.987428" y2="11.61492" gradientUnits="userSpaceOnUse" gradientTransform="matrix(1.08058 0 0 1.08058 -6.719 -.932)"/><linearGradient inkscape:collect="always" xlink:href="#a" id="c" x1="22.642868" y1="18.731947" x2="18.944748" y2="12.070814" gradientUnits="userSpaceOnUse" gradientTransform="matrix(1.08058 0 0 1.08058 -6.719 -.932)"/></defs><sodipodi:namedview pagecolor="#ffffff" bordercolor="#666666" borderopacity="1.0" inkscape:pageopacity="0.0" inkscape:pageshadow="2" inkscape:zoom="2.3633684" inkscape:cx="62.217416" inkscape:cy="87.865161" inkscape:document-units="px" inkscape:current-layer="layer3" showgrid="false" units="px" inkscape:window-width="1884" inkscape:window-height="1051" inkscape:window-x="0" inkscape:window-y="0" inkscape:window-maximized="1" inkscape:snap-global="false"/><metadata><rdf:RDF><cc:Work><dc:format>image/svg+xml</dc:format><dc:type rdf:resource="http://purl.org/dc/dcmitype/StillImage"/><dc:title/><dc:date>2020</dc:date><dc:creator><cc:Agent><dc:title>Timothée Giet</dc:title></cc:Agent></dc:creator><cc:license rdf:resource="http://creativecommons.org/licenses/by-sa/4.0/"/></cc:Work><cc:License rdf:about="http://creativecommons.org/licenses/by-sa/4.0/"><cc:permits rdf:resource="http://creativecommons.org/ns#Reproduction"/><cc:permits rdf:resource="http://creativecommons.org/ns#Distribution"/><cc:requires rdf:resource="http://creativecommons.org/ns#Notice"/><cc:requires rdf:resource="http://creativecommons.org/ns#Attribution"/><cc:permits rdf:resource="http://creativecommons.org/ns#DerivativeWorks"/><cc:requires rdf:resource="http://creativecommons.org/ns#ShareAlike"/></cc:License></rdf:RDF></metadata><g inkscape:groupmode="layer" inkscape:label="Layer 2"><path style="fill:#883133;fill-opacity:1;stroke:none;stroke-width:.15829729;stroke-linecap:butt;stroke-linejoin:miter;stroke-miterlimit:4;stroke-dasharray:none;stroke-opacity:1" d="M1.283 5.811C1.132 7.012.577 7.546 1.08 8.257c.504.712 1.311 1.023 1.463.445.15-.578.454-5.47-1.261-2.89z" inkscape:connector-curvature="0"/><path style="fill:#cb5a5d;fill-opacity:1;stroke:none;stroke-width:.14295128;stroke-linecap:butt;stroke-linejoin:miter;stroke-miterlimit:4;stroke-dasharray:none;stroke-opacity:1" d="M1.493 5.783C1.365 6.937.894 7.45 1.322 8.135c.427.684 1.112.984 1.24.428.128-.556.385-5.261-1.07-2.78z" inkscape:connector-curvature="0"/><path style="fill:#756438;fill-opacity:1;stroke:none;stroke-width:.14295128;stroke-linecap:butt;stroke-linejoin:miter;stroke-miterlimit:4;stroke-dasharray:none;stroke-opacity:1" d="M9.417 25.965c.213 1.669.187 3.734-.043 3.807-.046.015-3.643-.391-3.892 1.326.645-.216 1.42-.603 1.967-.684-.043.256-2.181.598-1.967 1.368.06.174 1.404-.37 2.395-.684-.251.234-1.415.735-1.07 1.582a328.648 328.648 0 0 1 3.978-1.924s-.043-4.962.214-5.347c.257-.384-1.497.043-1.582.556z" inkscape:connector-curvature="0" sodipodi:nodetypes="cscccccccc"/><path style="fill:#c4ac6c;fill-opacity:1;stroke:none;stroke-width:.14295128;stroke-linecap:butt;stroke-linejoin:miter;stroke-miterlimit:4;stroke-dasharray:none;stroke-opacity:1" d="M9.63 26.094c.214 1.668.078 3.723-.128 3.85-.302.185-3.023-.392-3.764.897.581-.323 2.062-.838 2.139-.492-.043.257-1.604.492-2.181 1.284 1.112-.642 2.523-.899 2.651-.728-.25.235-1.458.885-1.24 1.262 1.283-.641 3.272-1.753 3.272-1.753s-.022-4.363.235-4.748c.257-.385-.898-.085-.984.428z" inkscape:connector-curvature="0" sodipodi:nodetypes="cscccccccc"/><path style="fill:#756438;fill-opacity:1;stroke:none;stroke-width:.14295128;stroke-linecap:butt;stroke-linejoin:miter;stroke-miterlimit:4;stroke-dasharray:none;stroke-opacity:1" d="M10.56 27.68c.214 1.669.188 3.735-.043 3.807-.045.015-3.643-.39-3.892 1.326.646-.216 1.42-.602 1.968-.684-.043.257-2.182.599-1.968 1.369.06.173 1.404-.37 2.395-.685-.25.235-1.415.735-1.069 1.583a328.664 328.664 0 0 1 3.978-1.925s-.043-4.961.214-5.346c.256-.385-1.497.043-1.583.556z" inkscape:connector-curvature="0" sodipodi:nodetypes="cscccccccc"/><path style="fill:#c4ac6c;fill-opacity:1;stroke:none;stroke-width:.14295128;stroke-linecap:butt;stroke-linejoin:miter;stroke-miterlimit:4;stroke-dasharray:none;stroke-opacity:1" d="M10.774 27.81c.214 1.667.078 3.722-.128 3.849-.303.185-3.023-.392-3.764.898.581-.324 2.062-.838 2.138-.492-.042.256-1.603.492-2.18 1.283 1.111-.642 2.523-.898 2.65-.727-.25.234-1.457.884-1.24 1.262 1.284-.642 3.272-1.754 3.272-1.754s-.02-4.363.236-4.747c.256-.385-.898-.086-.984.427z" inkscape:connector-curvature="0" sodipodi:nodetypes="cscccccccc"/><path style="fill:#603018;fill-opacity:1;stroke:none;stroke-width:.14928739;stroke-linecap:butt;stroke-linejoin:miter;stroke-miterlimit:4;stroke-dasharray:none;stroke-opacity:1" d="M1.89 8.817c-.894 2.77-.447 5.673-.492 6.164-.044.492-.533 2.848-.09 4.467.626 2.278 8.309 9.022 9.604 9.29 1.295.268 6.96-4.938 7.236-6.253.893-4.243-6.209-9.558-7.638-12.06-1.43-2.5-3.339-7.712-7.37-7.325-2.322.224-1.384 1.876-1.25 5.717z" inkscape:connector-curvature="0" sodipodi:nodetypes="csscsssc"/><path style="fill:url(#b);fill-opacity:1;stroke:none;stroke-width:.14295128;stroke-linecap:butt;stroke-linejoin:miter;stroke-miterlimit:4;stroke-dasharray:none;stroke-opacity:1" d="M2.401 9.058c-.855 2.652-.125 5.432-.168 5.902-.042.47-.632 2.788-.206 4.338.599 2.181 7.713 8.216 8.954 8.473 1.24.256 6.119-4.427 6.384-5.686.855-4.063-5.703-8.427-7.072-10.822-1.369-2.395-3.015-7.99-6.875-7.619C1.193 3.858 2.273 5.38 2.4 9.058z" inkscape:connector-curvature="0" sodipodi:nodetypes="csscsssc"/><path style="fill:#883133;fill-opacity:1;stroke:none;stroke-width:.14295128;stroke-linecap:butt;stroke-linejoin:miter;stroke-miterlimit:4;stroke-dasharray:none;stroke-opacity:1" d="M4.155 1.084 3.987.088c-.377.302-.548.976-.514 1.23-.235.098-.114-.306-.522-1.123-.204.357-.376 1.788-.376 1.788s-.087-.109-.444-.926c-.357-.817-.445 1.72-.445 1.72s-.164-.222-.47-.784c-.31.849-1.15 2.918.07 3.09l.478 1.052c.214 1.369-.126 2.433-.468 2.903-.342.47 1.279.975 1.664.718.385-.256 2.68-3.68 2.466-4.064-.211-.38-2.91.14-2.196-1.702.308-.194.56-.162 1.167-.171 2.23-.033 1.948-2.22 1.014-3.35 0 0-.297.696-.552.696C4.603 1.165 4.94 0 4.94 0z" inkscape:connector-curvature="0" sodipodi:nodetypes="cccccsccccssscscscc"/><path style="fill:#cb5a5d;fill-opacity:1;stroke:none;stroke-width:.14295126;stroke-linecap:butt;stroke-linejoin:miter;stroke-miterlimit:4;stroke-dasharray:none;stroke-opacity:1" d="m4.668.575-.543 1.083-.26-1.116c-.376.301-.184 1.4-.21 1.41-.236.1-.266-.457-.674-1.273-.204.357-.225 2.03-.225 2.03s-.268-.442-.625-1.259-.233 1.872-.233 1.872-.346-.374-.653-.936c-.31.849-.938 2.344.283 2.516l.478 1.052c.214 1.369.086 2.523-.256 2.993-.342.47.795.612 1.18.356.384-.257 2.498-3.136 2.284-3.52-.211-.38-2.88-.011-2.165-1.854.307-.194.499-.374 1.106-.383C6.385 3.514 5.892 1.902 5.38.983c0 0-.358.666-.613.666s-.1-1.074-.1-1.074z" inkscape:connector-curvature="0" sodipodi:nodetypes="ccccccsccccssscscsc"/><path style="opacity:1;vector-effect:none;fill:#603018;fill-opacity:1;stroke:none;stroke-width:.20835714;stroke-linecap:butt;stroke-linejoin:miter;stroke-miterlimit:4;stroke-dasharray:none;stroke-dashoffset:0;stroke-opacity:1" sodipodi:type="arc" sodipodi:cx="3.8629298" sodipodi:cy="4.9699159" sodipodi:rx="1.0597681" sodipodi:ry="1.0597681" sodipodi:start="0.14344896" sodipodi:end="0.14048923" sodipodi:open="true" d="M4.912 5.121a1.06 1.06 0 0 1-1.2.898 1.06 1.06 0 0 1-.898-1.199 1.06 1.06 0 0 1 1.198-.9 1.06 1.06 0 0 1 .9 1.198"/><path style="opacity:1;vector-effect:none;fill:#f0f0f0;fill-opacity:1;stroke:none;stroke-width:.17863601;stroke-linecap:butt;stroke-linejoin:miter;stroke-miterlimit:4;stroke-dasharray:none;stroke-dashoffset:0;stroke-opacity:1" sodipodi:type="arc" sodipodi:cx="3.7873473" sodipodi:cy="4.9699149" sodipodi:rx="0.90859753" sodipodi:ry="0.90859753" sodipodi:start="0.14344896" sodipodi:end="0.14048923" sodipodi:open="true" d="M4.687 5.1a.909.909 0 0 1-1.029.77.909.909 0 0 1-.77-1.029.909.909 0 0 1 1.027-.77.909.909 0 0 1 .772 1.026"/><path style="fill:#75692f;fill-opacity:1;stroke:none;stroke-width:.16697858;stroke-linecap:butt;stroke-linejoin:miter;stroke-miterlimit:4;stroke-dasharray:none;stroke-opacity:1" d="M1.562 4.843C.426 5.293.126 6.09.03 6.612c.9-.5 1.867-.208 2.017-.558.15-.35.164-1.012-.485-1.211z" inkscape:connector-curvature="0" sodipodi:nodetypes="ccsc"/><path style="fill:#c8b357;fill-opacity:1;stroke:none;stroke-width:.16697858;stroke-linecap:butt;stroke-linejoin:miter;stroke-miterlimit:4;stroke-dasharray:none;stroke-opacity:1" d="M1.527 5.02C.64 5.381.513 5.901.304 6.284c.9-.5 1.542-.149 1.583-.43.038-.261.248-.615-.36-.836z" inkscape:connector-curvature="0" sodipodi:nodetypes="ccsc"/><path style="fill:#252625;fill-opacity:1;stroke:none;stroke-width:.1516277;stroke-linecap:butt;stroke-linejoin:miter;stroke-miterlimit:4;stroke-dasharray:none;stroke-opacity:1" d="M14.623 12.804c1.705-6.182 5.81-15.546 11.805-4.858-2.38-2.204-5.628-3.778-6.634-.36 2.476-1.166 5.961-.666 6.542 4.904-1.28-2.61-2.836-3.509-3.797-3.24 1.372 1.278 2.486 2.982 2.013 6.163-.366-2.294-1.693-4.768-3.615-4.363 1.83 1.125 3.478 2.744 2.746 6.208-.504-2.654-1.602-3.824-2.288-3.914.87 1.35.824 2.474.595 3.284-.732-1.485-1.098-1.35-1.098-1.35.411 1.755.274 3.15.091 3.464-.503-1.484-.503-1.62-1.052-1.89-.55-.27-4.484-4.003-5.308-4.048z" inkscape:connector-curvature="0" sodipodi:nodetypes="ccccccccccccccc"/><path style="fill:#3a3b3a;fill-opacity:1;stroke:none;stroke-width:.14295128;stroke-linecap:butt;stroke-linejoin:miter;stroke-miterlimit:4;stroke-dasharray:none;stroke-opacity:1" d="M15.094 12.326C16.688 6.448 20.482-.959 25.7 7.066c-2.224-2.096-5.432-3.25-6.245.94 2.315-1.109 5.488-1.189 6.416 3.251-1.198-2.48-3.122-2.48-4.02-2.224 1.304 1.228 2.552 2.142 2.523 5.09-.342-2.182-1.71-4.32-4.149-3.208 1.711 1.07 3.294 2.096 3.336 5.09-.47-2.524-2.095-3.123-2.737-3.208.813 1.283 1.198 2.181.984 2.951-.685-1.411-1.326-1.155-1.326-1.155.385 1.668.599 2.823.428 3.122-.47-1.411-.343-1.283-.856-1.54-.513-.256-4.191-3.806-4.961-3.849z" inkscape:connector-curvature="0" sodipodi:nodetypes="ccccccccccccccc"/><path style="fill:#603018;fill-opacity:1;stroke:none;stroke-width:.15659976;stroke-linecap:butt;stroke-linejoin:miter;stroke-miterlimit:4;stroke-dasharray:none;stroke-opacity:1" d="M10.612 11.843c3.28-.047 6.794-.75 9.09 1.64 2.295 2.39.936 6.56-3.093 7.544-4.03.983-8.153-8.247-5.997-9.184z" inkscape:connector-curvature="0"/><path style="fill:url(#c);fill-opacity:1;stroke:none;stroke-width:.14295128;stroke-linecap:butt;stroke-linejoin:miter;stroke-miterlimit:4;stroke-dasharray:none;stroke-opacity:1" d="M11.03 12.24c2.995-.042 6.202-.683 8.298 1.498s.855 5.988-2.823 6.886c-3.678.898-7.442-7.528-5.474-8.383z" inkscape:connector-curvature="0"/><path style="fill:#603018;fill-opacity:1;stroke:none;stroke-width:.14295128;stroke-linecap:butt;stroke-linejoin:miter;stroke-miterlimit:4;stroke-dasharray:none;stroke-opacity:1" d="M9.234 15.106c1.454 3.508 1.668 5.903 4.406 7.614 2.737 1.71 4.448.641 4.619.384.17-.256-1.07-7.57-6.929-11.12-5.86-3.55-2.908 1.155-2.096 3.122z" inkscape:connector-curvature="0"/><path style="fill:url(#d);fill-opacity:1;stroke:none;stroke-width:.12432426;stroke-linecap:butt;stroke-linejoin:miter;stroke-miterlimit:4;stroke-dasharray:none;stroke-opacity:1" d="M8.82 14.954c1.265 3.05 2.358 5.556 4.74 7.044 2.38 1.488 3.868.558 4.016.335.15-.223-1.716-7.491-6.812-10.579-5.096-3.087-2.65 1.489-1.943 3.2z" inkscape:connector-curvature="0" sodipodi:nodetypes="cscsc"/><path style="opacity:1;vector-effect:none;fill:#212121;fill-opacity:1;stroke:none;stroke-width:.17863601;stroke-linecap:butt;stroke-linejoin:miter;stroke-miterlimit:4;stroke-dasharray:none;stroke-dashoffset:0;stroke-opacity:1" sodipodi:type="arc" sodipodi:cx="3.6211905" sodipodi:cy="4.810811" sodipodi:rx="0.39682311" sodipodi:ry="0.37792674" sodipodi:start="0.14344896" sodipodi:end="0.14048923" sodipodi:open="true" d="M4.014 4.865a.397.378 0 0 1-.45.32.397.378 0 0 1-.336-.428.397.378 0 0 1 .449-.32.397.378 0 0 1 .337.427"/><path style="opacity:1;vector-effect:none;fill:#fff;fill-opacity:1;stroke:none;stroke-width:.17863601;stroke-linecap:butt;stroke-linejoin:miter;stroke-miterlimit:4;stroke-dasharray:none;stroke-dashoffset:0;stroke-opacity:1" sodipodi:type="arc" sodipodi:cx="3.9802194" sodipodi:cy="4.7541223" sodipodi:rx="0.3023414" sodipodi:ry="0.32123771" sodipodi:start="0.14344896" sodipodi:end="0.14048923" sodipodi:open="true" d="M4.28 4.8a.302.321 0 0 1-.343.272.302.321 0 0 1-.256-.363.302.321 0 0 1 .342-.273.302.321 0 0 1 .257.363"/></g></svg>