<svg xmlns:dc="http://purl.org/dc/elements/1.1/" xmlns:cc="http://creativecommons.org/ns#" xmlns:rdf="http://www.w3.org/1999/02/22-rdf-syntax-ns#" xmlns="http://www.w3.org/2000/svg" viewBox="0 0 64.000001 64.000001" height="64" width="64"><metadata><rdf:RDF><cc:Work><dc:format>image/svg+xml</dc:format><dc:type rdf:resource="http://purl.org/dc/dcmitype/StillImage"/><dc:title/><dc:date>2017</dc:date><dc:creator><cc:Agent><dc:title>Timothée Giet</dc:title></cc:Agent></dc:creator><cc:license rdf:resource="http://creativecommons.org/licenses/by-sa/4.0/"/></cc:Work><cc:License rdf:about="http://creativecommons.org/licenses/by-sa/4.0/"><cc:permits rdf:resource="http://creativecommons.org/ns#Reproduction"/><cc:permits rdf:resource="http://creativecommons.org/ns#Distribution"/><cc:requires rdf:resource="http://creativecommons.org/ns#Notice"/><cc:requires rdf:resource="http://creativecommons.org/ns#Attribution"/><cc:permits rdf:resource="http://creativecommons.org/ns#DerivativeWorks"/><cc:requires rdf:resource="http://creativecommons.org/ns#ShareAlike"/></cc:License></rdf:RDF></metadata><g transform="translate(0 -988.362)"><rect rx="2.8899311e-07" y="988.36218" height="64" width="64" style="color:#000;clip-rule:nonzero;display:inline;overflow:visible;visibility:visible;opacity:1;isolation:auto;mix-blend-mode:normal;color-interpolation:sRGB;color-interpolation-filters:linearRGB;solid-color:#000;solid-opacity:1;fill:#372111;fill-opacity:1;fill-rule:evenodd;stroke:none;stroke-width:1px;stroke-linecap:butt;stroke-linejoin:miter;stroke-miterlimit:4;stroke-dasharray:none;stroke-dashoffset:0;stroke-opacity:1;marker:none;color-rendering:auto;image-rendering:auto;shape-rendering:auto;text-rendering:auto;enable-background:accumulate"/><path d="M0 988.362v64h8.572c.281-17.166-.989-41.112-.334-64zm9.158 0c-.614 22.986.577 46.94.332 64h4.432c-.378-17.984.607-41.736 1.937-64zm7.627 0c-1.055 22.07-2.118 45.965-1.943 64h.896c-.352-17.467.582-41.3 1.938-64zm1.817 0a12124.1 12124.1 0 0 0-1.944 64h1.791c.544-17.192 1.092-41.342 1.934-64zm4.554 0c-1.28 22.898-1.9 47.729-1.945 64h1.102c1.05-14.147.362-41.874 1.937-64zm2.02 0c-1.386 21.936-.189 47.741-1.944 64h3.022c1.6-14.763.608-41.752 2.215-64zm5.152 0c-1.65 22.577-1.397 49.527-2.224 64h8.04c3.229-15.882 1.527-41.645 2.897-64zm9.186 0c-1.154 22.5 1.008 48.587-2.905 64h2.248c1.757-17.63 1.261-42.118 2.895-64zm2.713 0c-1.568 22.133.04 47.588-2.903 64h4.492c1.167-17.38.89-42.095 2.891-64zm5.894 0c-1.71 21.923-1.098 46.646-2.906 64h3.463c2.047-17.644 1.45-42.099 2.898-64zm3.928 0c-1.137 22.04.178 46.829-2.904 64h5.88c2.937-14.687 1.729-41.079 3.307-64zm7.238 0c-1.377 22.086 1.123 47.299-3.322 64H64v-64z" style="color:#000;clip-rule:nonzero;display:inline;overflow:visible;visibility:visible;opacity:1;isolation:auto;mix-blend-mode:normal;color-interpolation:sRGB;color-interpolation-filters:linearRGB;solid-color:#000;solid-opacity:1;fill:#2d1a0b;fill-opacity:1;fill-rule:evenodd;stroke:none;stroke-width:1px;stroke-linecap:butt;stroke-linejoin:miter;stroke-miterlimit:4;stroke-dasharray:none;stroke-dashoffset:0;stroke-opacity:1;marker:none;color-rendering:auto;image-rendering:auto;shape-rendering:auto;text-rendering:auto;enable-background:accumulate"/><path d="M0 988.362v64h5.29c-.487-18.129-.819-39.952-.335-64zm16.785 0c-.91 22.846-1.33 47.54-1.943 64h.896c.97-17.761 1.117-41.983 1.938-64zm1.817 0c-.967 21.898-1.286 46.126-1.944 64h1.791c1.289-18.243 1.248-42.197 1.934-64zm4.554 0c-1.842 21.587-2.754 45.737-1.945 64h1.102c-.49-6.608 1.269-64 .843-64zm11.172 0c-.203 21.575-.334 45.658-2.224 64h2.04c3.648-18.628 2.743-42.484 2.897-64zm6.428 0c.783 22.63-1.494 46.314-2.904 64h1.22c4.456-22.51 2.32-44.698 3.02-64zm3.47 0c-.892 21.793.846 46.166-2.902 64h2.492c2.07-18.426 1.405-42.387 2.891-64zm6.526 0c-1.706 21.263-.69 44.606-2.906 64h.832c2.863-18.287 1.459-42.377 2.898-64zm1.297 0c-.838 20.879 2.852 43.058-2.904 64h2.976c5.588-15.202.79-42.2 3.307-64zm11.046 0c-1.938 22.643.26 52.709-3.322 64H64v-64z" style="color:#000;clip-rule:nonzero;display:inline;overflow:visible;visibility:visible;opacity:1;isolation:auto;mix-blend-mode:normal;color-interpolation:sRGB;color-interpolation-filters:linearRGB;solid-color:#000;solid-opacity:1;fill:#231409;fill-opacity:1;fill-rule:evenodd;stroke:none;stroke-width:1px;stroke-linecap:butt;stroke-linejoin:miter;stroke-miterlimit:4;stroke-dasharray:none;stroke-dashoffset:0;stroke-opacity:1;marker:none;color-rendering:auto;image-rendering:auto;shape-rendering:auto;text-rendering:auto;enable-background:accumulate"/></g></svg>