<?xml version="1.0" encoding="UTF-8" standalone="no"?>
<!-- Created with Inkscape (http://www.inkscape.org/) -->

<svg
   xmlns:dc="http://purl.org/dc/elements/1.1/"
   xmlns:cc="http://creativecommons.org/ns#"
   xmlns:rdf="http://www.w3.org/1999/02/22-rdf-syntax-ns#"
   xmlns:svg="http://www.w3.org/2000/svg"
   xmlns="http://www.w3.org/2000/svg"
   xmlns:sodipodi="http://sodipodi.sourceforge.net/DTD/sodipodi-0.dtd"
   xmlns:inkscape="http://www.inkscape.org/namespaces/inkscape"
   width="1000"
   height="500"
   viewBox="0 0 1000 500.00001"
   id="svg4684"
   version="1.1"
   inkscape:version="0.91 r13725"
   sodipodi:docname="background-wood.svg">
  <sodipodi:namedview
     id="base"
     pagecolor="#ffffff"
     bordercolor="#666666"
     borderopacity="1.0"
     inkscape:pageopacity="0.0"
     inkscape:pageshadow="2"
     inkscape:zoom="0.9899495"
     inkscape:cx="468.41721"
     inkscape:cy="179.06406"
     inkscape:document-units="px"
     inkscape:current-layer="layer1"
     showgrid="false"
     units="px"
     inkscape:window-width="1878"
     inkscape:window-height="1051"
     inkscape:window-x="0"
     inkscape:window-y="0"
     inkscape:window-maximized="1" />
  <defs
     id="defs4686" />
  <metadata
     id="metadata4689">
    <rdf:RDF>
      <cc:Work
         rdf:about="">
        <dc:format>image/svg+xml</dc:format>
        <dc:type
           rdf:resource="http://purl.org/dc/dcmitype/StillImage" />
        <dc:title></dc:title>
      </cc:Work>
    </rdf:RDF>
  </metadata>
  <g
     transform="translate(0,-552.36216)"
     id="layer1"
     inkscape:groupmode="layer"
     inkscape:label="Calque 1">
    <rect
       rx="2.2577578e-06"
       y="-999.99957"
       x="552.36224"
       height="999.99939"
       width="499.99985"
       id="rect5232"
       style="color:#000000;clip-rule:nonzero;display:inline;overflow:visible;visibility:visible;opacity:1;isolation:auto;mix-blend-mode:normal;color-interpolation:sRGB;color-interpolation-filters:linearRGB;solid-color:#000000;solid-opacity:1;fill:#b36125;fill-opacity:1;fill-rule:evenodd;stroke:none;stroke-width:1px;stroke-linecap:butt;stroke-linejoin:miter;stroke-miterlimit:4;stroke-dasharray:none;stroke-dashoffset:0;stroke-opacity:1;marker:none;color-rendering:auto;image-rendering:auto;shape-rendering:auto;text-rendering:auto;enable-background:accumulate"
       transform="matrix(0,1,-1,0,0,0)" />
    <path
       style="color:#000000;clip-rule:nonzero;display:inline;overflow:visible;visibility:visible;opacity:1;isolation:auto;mix-blend-mode:normal;color-interpolation:sRGB;color-interpolation-filters:linearRGB;solid-color:#000000;solid-opacity:1;fill:#a6591c;fill-opacity:1;fill-rule:evenodd;stroke:none;stroke-width:1px;stroke-linecap:butt;stroke-linejoin:miter;stroke-miterlimit:4;stroke-dasharray:none;stroke-dashoffset:0;stroke-opacity:1;marker:none;color-rendering:auto;image-rendering:auto;shape-rendering:auto;text-rendering:auto;enable-background:accumulate"
       d="m 1001.1545,570.72906 c -28.75328,0.85466 -57.73043,3.10987 -85.97729,3.24906 -24.91319,-3.20568 -49.17192,-0.34334 -73.66088,-2.91797 -24.72683,-0.4957 -45.64621,1.86092 -69.61014,1.91028 -24.18051,-2.80495 -45.86995,1.36183 -69.90788,-0.71356 -25.51028,8.19226 -48.81258,-7.42092 -73.70493,1.14304 -25.88274,-3.3168 -50.31138,-2.34604 -76.61294,-2.12676 -29.53209,0.21455 -60.00738,-2.09974 -89.32758,2.22766 -21.06495,-3.87911 -37.89725,-1.22437 -57.65357,0.005 -26.65948,-5.71549 -53.0206,3.8133 -77.61575,-3.45477 -20.53129,6.02752 -37.77941,1.28418 -58.16369,0.99646 -22.62861,2.78843 -46.045,-1.5781 -67.11432,2.1728 -26.68568,-3.82935 -55.12209,-1.83893 -81.12963,1.02417 -28.61369,0.37896 -56.001717,-6.9351 -84.828852,-1.91757 -26.9000244,-2.6913 -47.109318,-3.45788 -36.12748185,29.89011 -9.04871375,26.69679 28.07337085,23.36773 46.23089685,18.01703 18.788326,4.57241 36.76661,2.70723 55.152957,4.41111 22.46375,-4.29081 46.59287,-2.05677 69.21988,-2.58617 23.03555,-3.8168 45.53032,1.84029 69.24243,-0.98522 25.37366,0.34499 50.81868,2.9656 76.01464,-0.68194 25.29602,-0.10656 48.14204,1.61784 72.9274,0.11837 29.63742,-2.80829 58.16819,8.04168 86.93224,0.92374 22.27715,5.58779 42.12824,-2.27508 64.77407,3.58659 22.05696,3.29067 47.56992,-2.85102 69.47798,0.33591 21.84622,4.17903 48.90789,-3.84007 70.16932,3.78504 28.42254,-4.00552 54.27649,3.42568 82.4967,-1.88994 21.27217,-1.94062 40.65733,6.75469 59.84763,1.67881 26.49327,10.42346 54.72638,0.30001 82.37786,2.29001 27.20164,1.241 53.57415,4.49175 79.6217,6.04625 30.66553,6.11713 12.48041,-35.87712 15.49173,-53.73305 2.4831,-1.84158 -1.60899,-14.74145 -1.66256,-10.79991 m 2.10986,73.17152 c -30.89546,-8.21597 -62.93313,-2.78837 -94.27522,-5.46425 -27.13052,-4.72158 -55.50425,2.16635 -82.96361,-4.04643 -29.03114,5.18492 -56.3513,-2.46975 -86.50717,2.36595 -25.44155,-7.82226 -51.43844,-5.81526 -78.09076,-3.60609 -20.44897,-5.08115 -41.88392,1.2389 -62.73672,-1.16093 -25.52729,-3.72091 -49.19092,-2.90851 -76.72824,-1.10033 -19.21073,-3.30858 -42.1615,-1.17715 -62.38632,-0.7525 -27.32869,-8.35085 -58.56559,-1.31602 -88.69569,-1.2383 -21.27946,-4.31326 -42.95913,-1.58447 -62.97816,-0.66139 -23.55242,-3.47473 -44.58357,-2.0194 -67.89853,0.47998 -24.42018,-3.67169 -55.10142,-1.02622 -79.43676,0.0671 -25.17783,-3.21053 -51.40859,-0.17926 -76.472479,-0.15157 -26.905847,1.27889 -52.606458,-0.0622 -79.1068272,-0.47218 -2.37937518,12.19966 9.6803722,51.99228 2.2681624,51.12872 18.8956968,1.33086 38.9625818,-2.41169 59.7644968,-1.97678 21.678577,3.86265 42.174067,-4.78629 62.514557,1.23029 23.30198,-0.52869 43.63951,-2.5411 65.34625,-0.25221 28.05241,1.41369 55.02201,-8.52283 82.17935,0.58586 22.09565,-4.17155 46.39169,-0.8234 68.78487,-2.42997 23.09312,2.63366 48.28221,1.35451 71.89109,-0.0233 22.76384,0.0967 43.10791,2.01644 65.97341,4.58514 28.94954,-0.84663 56.75652,-2.99327 84.9923,1.06308 22.13789,0.57124 46.89291,-6.49974 69.46409,2.32159 24.29157,3.15909 48.3582,-8.51272 71.40055,1.24074 23.60206,-6.602 46.37641,5.16584 70.82703,1.10522 29.52499,0.12323 59.65122,-0.93803 89.18434,3.31994 22.5687,-5.52457 44.27938,3.93291 67.52018,1.16044 22.11568,-2.59769 44.17602,5.47306 64.3199,1.98979 5.12191,-11.06238 0.52047,-36.39032 0.63238,-49.8163 0.25786,-0.21716 -1.37708,-3.99793 0.34242,-3.34877 m 1.02591,59.47126 c -28.56578,5.47136 -58.80861,-3.29417 -88.54855,0.21147 -20.19837,-3.07763 -43.77674,-7.55125 -65.10991,-2.41379 -17.56573,-5.08766 -38.29696,3.61977 -55.55068,-5.20352 -21.6154,-0.98492 -46.21584,2.54982 -65.45149,-2.33645 -24.32418,1.62482 -49.3316,1.04294 -73.26388,-1.65447 -18.10074,7.91241 -37.39069,-6.42217 -56.7492,1.5553 -26.0711,-5.1417 -52.24296,-3.66679 -78.67128,-2.79275 -25.68697,-5.76107 -49.70186,4.23047 -73.82875,-3.43176 -23.94097,6.76449 -48.48078,-4.39207 -72.42291,3.1722 -27.6908,-2.26443 -55.39217,-3.60168 -83.70218,-4.52692 -25.03915,-2.14378 -50.68342,7.58269 -75.89909,2.19076 -22.73626,-2.71734 -45.72434,3.40701 -70.14305,1.25524 -20.51431,-2.68779 -42.144787,-0.98806 -62.364521,-2.52199 -27.427382,6.51528 -52.11086,-1.21349 -79.6056463,5.01749 15.0596153,8.4841 46.9930683,2.45174 69.5628253,5.86385 26.752432,-7.17488 52.881302,1.71996 80.840402,-0.87554 22.23749,-1.69142 44.17735,-0.74715 66.31766,-1.26875 25.34356,-4.97781 48.78335,0.20587 73.4533,-1.04188 22.32583,1.08364 48.19183,-2.7986 71.95453,-0.51996 24.21298,3.24892 50.59193,4.50106 73.79019,0.36405 25.2358,8.01687 53.51483,0.86518 78.1366,2.50212 29.81993,5.25919 57.09369,-1.44759 86.77539,2.59712 22.94504,1.34078 49.31121,0.69203 71.77179,2.41814 25.54358,3.83138 50.30122,-5.65569 75.89088,-0.0963 18.36404,6.62772 43.6039,-4.55804 63.06648,4.7519 26.61933,-0.82106 52.43969,-0.45038 78.16691,3.60142 29.17997,-0.37243 59.75804,-0.44779 89.49663,1.19656 13.92587,4.45763 18.94921,2.27895 22.41185,-7.9368 m 1.229,16.84391 c -31.92731,-3.0674 -63.64716,-1.6607 -94.17242,-5.04372 -22.64558,1.50802 -45.57446,-2.25778 -69.08938,-2.35556 -26.07781,4.99599 -52.47346,-6.85119 -77.96765,-1.29846 -21.64893,-4.7783 -38.60418,2.06876 -59.61808,-2.91204 -30.74635,-4.73319 -60.20255,5.99875 -90.37407,-3.9123 -18.32439,8.9335 -38.62945,-5.80884 -58.71072,-1.12897 -25.80216,-0.78945 -56.42996,0.10772 -81.86789,-0.47455 -21.3883,-4.9702 -41.50011,5.21529 -62.21761,-0.93617 -26.67257,2.33796 -53.45314,2.4204 -80.00769,1.84106 -23.55322,-6.06318 -51.64111,2.76093 -74.00813,-2.02221 -26.70855,-1.80279 -55.39967,-1.03615 -81.55502,1.8394 -21.17254,-7.46815 -43.13696,4.99722 -64.62743,-1.79722 C 82.310054,702.95604 59.221124,698.321 34.182379,704.60026 14.63064,705.2638 -7.0020071,690.61031 -0.33138608,718.46952 22.224274,708.58051 49.138601,718.02064 72.455788,714.58799 c 24.684722,-2.11286 45.814752,2.43755 70.062652,-1.8142 30.72763,5.87608 60.03052,-0.71018 90.86418,0.29785 22.33921,-0.5483 44.46525,-0.31312 65.71051,1.25384 25.4552,4.07458 48.93512,-2.79411 73.34071,-0.14452 22.56103,3.18226 46.33653,1.90859 66.70447,0.3085 28.57476,1.91691 56.95763,1.29473 85.4307,0.48124 25.43969,4.88604 50.95222,-0.009 74.81925,4.24458 28.11926,-0.0817 52.89891,2.45604 80.61271,1.20114 24.5997,1.93878 49.18755,0.51807 73.47697,1.5976 21.18955,-0.47239 43.397,4.57225 64.37209,4.87027 21.89456,-1.60718 41.70966,-3.58188 63.30046,0.96628 22.32532,1.67206 44.1721,1.12659 63.67227,0.35008 17.0311,-6.78372 66.02314,19.27465 56.36504,-12.12407 -1.71964,1.12149 2.6084,1.17407 0.8109,1.54577 m -0.4326,36.89008 c -21.15457,-0.35879 -46.86732,-6.31914 -69.04408,-3.18506 -28.31802,-1.80079 -54.91475,-4.04018 -82.61192,-2.97213 -22.16289,-2.01926 -44.79526,-4.52809 -67.13241,-1.80287 -29.45604,-4.50834 -59.08293,-3.86873 -87.62344,-3.691 -25.6128,-1.52848 -52.94797,-0.0683 -77.15303,-3.73334 -23.43711,0.55105 -44.35951,-0.41552 -67.26791,0.7047 -30.47457,-3.02968 -61.45877,0.43848 -91.66051,-3.24587 -24.23272,4.25808 -47.34469,1.19385 -70.9279,0.61015 -24.20524,1.97709 -47.68624,-5.7287 -73.15306,-0.57406 -26.00162,-3.80304 -53.53713,-2.33787 -79.98155,-2.53867 -25.99007,5.59084 -54.84141,-3.00972 -81.64244,0.76224 -27.05664,5.15145 -55.324953,-2.15201 -83.644934,3.93282 -21.927331,-7.3753 -51.601751,-2.33398 -70.8682659,2.74298 23.6103729,9.28292 52.5963879,4.79355 77.8597019,3.36059 20.977069,3.15401 44.733538,-0.31256 67.246288,0.85892 23.21089,1.73716 44.16988,-2.88243 67.94601,-3.37537 24.71065,4.53189 56.52454,1.18589 81.61027,2.65602 27.02654,-2.31339 54.11252,4.52292 80.39175,-2.26182 27.62721,6.28482 55.36334,-2.77632 83.14668,4.57253 26.77371,-5.02253 52.56051,3.23132 77.7979,-1.96069 26.01339,6.46415 56.48872,-1.91394 83.22514,4.48748 21.41147,-0.86761 43.91052,-0.9058 64.16909,2.66181 27.55393,-4.87141 52.15449,0.88827 78.27019,0.17291 25.72492,2.71017 50.43095,-0.57487 75.89724,4.86794 27.1354,-4.71838 51.78104,-0.0664 78.77413,-0.30964 15.65088,4.28496 33.62068,4.57824 50.54767,2.01328 15.54651,1.46443 38.66719,8.07698 35.04979,-4.67771 l 0.5983,0.54222 -0.6492,-5.5e-4 m -2.15636,12.5105 c -26.61937,1.95929 -52.54749,-1.49555 -79.10445,-3.27267 -27.17332,2.55961 -54.03402,-0.69695 -82.03594,-2.0373 -26.35151,3.72937 -51.22791,-4.62231 -78.2518,-0.81518 -26.75996,-6.02686 -51.67117,-0.0419 -78.52101,-4.45465 -29.91135,-0.33472 -57.03637,-2.58124 -87.25672,-3.05616 -24.64146,1.04336 -48.73997,0.18901 -73.22859,-0.44029 -21.93044,-4.75255 -40.94768,5.04832 -62.55429,-0.22738 -29.00005,-2.4377 -57.56576,-0.42754 -87.44962,1.82223 -23.65754,-8.41525 -49.13002,-3.80506 -73.67751,-2.89824 -20.28175,-0.007 -42.4325,1.59851 -63.50655,-0.13748 -23.16615,-0.12504 -45.19709,-0.0637 -68.33588,1.73838 -25.98068,-4.47185 -50.29663,-2.07071 -74.891831,0.37892 -24.236539,-0.0689 -49.078716,-0.61826 -71.883735,-0.23807 -24.0202728,-12.06339 -23.2731127,42.37315 1.708984,21.00298 29.702707,5.31352 56.632105,-2.59609 87.348982,0.26047 26.91438,-0.48483 53.83926,-3.04594 79.60262,0.73315 25.99125,-5.67352 50.82264,1.253 76.59719,-0.92911 20.57156,0.22142 43.0389,-1.81431 62.0638,1.83113 22.83867,2.76549 44.94934,-5.75576 66.32007,-1.33967 21.7248,2.0199 41.74523,0.13577 62.84752,2.73194 21.32672,-1.54307 46.72622,-6.6593 68.17895,0.94138 25.28899,-3.13574 49.68534,1.96227 76.00678,1.77899 28.60673,-6.50086 53.06971,6.70741 81.74731,0.48942 20.44062,1.83901 39.30208,2.06736 59.52098,0.0404 22.98751,3.87043 46.65942,0.58074 70.23071,5.58247 28.8135,1.889 53.78633,-0.84877 83.06276,2.27655 19.79567,0.58795 37.63503,7.65706 55.81711,1.0396 24.58346,0.52594 58.13952,13.8307 52.30732,-21.94934 -0.3246,-0.24211 1.223,-2.07122 0.019,-0.99703 m 0.6852,42.26185 c -24.28947,-8.92368 -49.04577,2.59029 -73.16082,-3.30052 -21.23742,0.0895 -43.25221,-6.075 -65.12156,-0.78347 -24.74549,-5.5813 -50.43499,1.461 -76.87268,-5.25995 -26.73713,-5.1039 -53.82631,0.20083 -79.50362,-3.42954 -27.37267,4.12919 -54.40762,-7.73069 -82.36032,-0.26004 -26.68486,-6.05919 -56.14737,1.09266 -82.69062,-5.70077 -26.37799,2.31546 -52.45077,-0.13957 -78.73776,0.10928 -23.89126,-3.17762 -52.06484,7.09663 -75.61652,-2.03401 -22.70009,1.37628 -44.789,-2.82068 -66.6031,0.2916 -28.67291,-1.92155 -59.97972,-1.9958 -87.21881,-0.21073 -24.18164,-1.87251 -45.12299,-1.43087 -70.40451,1.06289 -25.1648,-4.16562 -50.63825,2.06316 -76.333483,0.81605 -22.39814,-0.68378 -43.479971,-1.25268 -65.559087,-0.0117 -35.1568,-10.46689 -15.043656,31.17707 -22.7888555,53.00281 8.4078255,21.7408 46.6472535,2.92441 66.3422945,7.65803 30.966125,2.18817 59.333381,-2.08637 89.563401,1.22082 22.78742,-4.46189 47.14799,1.78154 68.58594,-2.46908 23.36549,4.05752 45.80356,-4.43679 68.26155,2.4929 23.13661,-3.34111 44.69999,0.39191 68.52899,-0.41851 21.14197,1.61132 45.95314,1.83062 68.89012,1.90018 21.03884,-1.50546 47.63798,-0.4963 70.96622,0.0885 26.91143,5.65884 53.01454,-2.01341 80.84116,3.78376 22.93693,-0.0808 44.78406,0.0881 67.19261,2.48241 22.35416,3.09169 41.92056,-0.94158 63.31431,2.5163 24.89186,1.5059 46.83167,-0.40618 71.81446,3.77096 21.34064,-8.56512 42.23601,5.74482 63.36171,0.28871 29.17053,2.94318 58.33523,5.84828 86.13942,5.81697 17.69818,-4.63127 67.53526,17.75049 65.77881,-6.91943 0.38633,-17.20475 -2.57643,-45.74212 3.25315,-56.32151 l 0.4936,0.47851 -0.5552,-0.14686 m 0.1703,71.3569 c -23.75346,-1.71211 -44.78772,-2.68304 -67.80038,-5.31808 -27.54725,5.10201 -55.7001,-7.73866 -82.58932,-1.87218 -21.17474,-8.60919 -44.40847,2.00505 -66.33993,-6.02024 -25.45572,-0.77912 -48.63031,-3.80136 -73.00885,-0.79448 -15.82391,-8.09763 -35.82151,1.72242 -54.0419,-4.99141 -24.8179,-0.34643 -49.94162,-3.23265 -75.65193,-2.17485 -25.6701,-2.78965 -51.37224,0.36294 -77.25713,-3.78881 -18.63903,3.47505 -38.89841,0.66987 -58.94068,-1.34658 -21.22171,7.11164 -42.55231,-5.84971 -62.88179,2.68101 -24.94346,-4.79619 -47.63026,-1.47334 -71.41873,-1.87857 -23.43449,-0.49293 -47.17581,-1.09909 -69.08859,-3.27616 -23.47097,-4.05202 -45.02244,6.4056 -67.51219,1.79842 -26.06152,-0.55023 -51.05581,3.43279 -77.895058,0.0107 -23.020282,2.61336 -49.520589,5.54986 -73.621714,1.48351 -28.5622092,-2.19293 -33.8113469,29.61345 0.133046,19.04975 24.087949,0.96089 51.360822,1.9673 76.129006,-3.38621 22.91509,4.04938 46.83309,-3.53973 72.43511,1.15064 22.71211,-1.28532 44.58287,1.13155 67.15043,-0.79655 21.31787,-0.38638 40.75073,2.58803 62.22896,-1.50455 29.04896,3.55265 60.43168,-0.74897 89.36783,4.28973 26.18594,-1.918 48.85027,-1.4692 75.64374,-1.18673 21.31543,5.11777 38.00672,1.45607 60.03293,3.08268 23.61595,-1.24984 49.9263,4.51385 76.05956,0.57888 22.77597,3.65487 44.82577,3.50756 68.72056,5.28993 26.87228,-5.33412 52.51856,4.50686 78.95865,2.00851 25.41734,4.48137 52.68049,-0.66449 77.87076,1.54305 24.97127,8.18071 51.00789,0.32722 76.5997,7.99105 26.47863,-0.3292 52.60847,1.45481 78.72334,1.5817 30.45957,12.45922 3.72603,-15.23699 18.05077,-14.45073 m -3.28349,19.36182 c -20.69014,0.60563 -46.96344,3.33994 -64.83816,-4.43767 -30.42007,2.68528 -58.60536,-5.96242 -89.00068,-3.10666 -23.58904,3.57981 -47.43093,-5.45848 -70.69718,-2.38711 -26.19335,0.71746 -51.98629,-5.21612 -77.48506,-3.5241 -25.4379,-4.26867 -53.27585,0.0212 -80.59234,-4.45269 -26.37147,-0.61274 -53.04288,-2.0869 -80.42355,-0.29661 -24.46165,-7.38685 -49.63071,-2.23273 -75.28816,-1.11517 -23.76557,-1.50802 -44.68256,-4.83178 -66.8265,-3.84526 -25.47671,1.89962 -49.8789,-3.10795 -77.39129,0.28024 -23.10794,-4.73798 -45.7976,0.7005 -70.26719,-0.82336 -26.97037,-5.1627 -55.18457,3.49424 -82.76164,-0.0461 -25.49265,1.06373 -50.37798,-3.09143 -74.686354,0.52451 -26.362397,1.61135 -48.593426,-2.13234 -74.439423,3.39839 -20.9169325,-9.54631 -11.7815709,34.03957 -10.1704709,33.97972 27.9295569,-1.73522 57.1113899,-1.37344 83.4097999,-3.11665 24.466088,5.74446 48.224908,-3.56331 72.546348,1.18903 23.29773,-4.98791 51.30335,-0.986 75.94882,-4.0552 25.93829,3.8956 50.83979,3.05237 77.92024,3.95767 24.24867,-2.43072 48.82277,-5.31322 73.34245,1.38718 18.15613,-9.94699 37.96231,2.60151 54.46802,-1.37475 26.45326,3.07268 54.01563,0.26816 82.71592,0.70778 25.63544,4.74809 49.60002,4.32316 73.95846,2.73201 24.05267,2.71954 48.68424,5.0246 73.55564,3.28559 25.18412,3.65092 49.66705,-0.66246 75.34618,5.83697 24.39313,-2.02288 48.00734,1.68246 71.90595,-0.91141 19.55994,4.62498 36.4971,6.23494 56.84614,4.37492 23.15584,1.87071 49.62042,4.88127 74.79593,3.30668 21.18889,-2.04499 60.53229,18.93611 49.12213,-14.43171 1.41196,-3.72848 5.28956,-22.88109 -1.5641,-14.78775 m 0.65568,43.71758 c -26.9105,4.82074 -53.40808,-3.2315 -80.41688,-5.81077 -21.99524,1.12624 -43.3055,2.3217 -64.86965,-1.93977 -24.48634,0.8752 -50.71426,-1.16335 -75.8985,-3.30886 -30.44459,0.41172 -60.2249,-5.65668 -89.54857,-1.22666 -24.60556,-8.05244 -50.43071,-1.04934 -74.49652,-7.08144 -23.08318,0.48328 -46.35027,-0.30944 -70.69909,0.21898 -26.38524,1.57494 -52.6487,-7.3673 -78.7977,-1.28828 -24.95995,-3.84529 -50.19553,-0.82968 -76.74471,-4.60873 -23.44531,0.95452 -46.52076,4.60669 -69.86661,-1.08989 -20.78509,8.81456 -43.85784,-1.59709 -63.10089,2.44449 -22.79402,-6.872 -48.02003,3.32691 -71.31714,-1.261 -22.84333,4.44205 -42.22311,-1.25912 -62.66805,2.39102 -22.546737,-1.46994 -43.307758,-0.99087 -65.944075,-0.96201 -23.118106,3.70951 -63.8671109,-10.18756 -56.8565989,23.89831 14.4687399,12.98493 46.3663169,4.4007 67.4721889,3.35564 20.318945,0.39713 45.120505,-0.64829 67.731125,-1.08138 23.02477,2.07252 45.91296,-2.05757 68.89328,1.80473 24.58229,-2.5016 53.51566,2.00883 78.02885,-3.05089 27.86364,0.39684 52.79372,0.51799 79.7043,3.94727 21.55864,-1.10472 40.29243,-3.16436 60.75564,-1.48848 24.00185,3.05512 49.4729,4.61025 71.77169,0.7556 21.68798,3.68882 44.58192,2.06172 67.00186,2.74593 24.3986,0.51905 45.05663,3.84883 69.64191,0.99343 24.24429,4.33365 52.50172,1.04378 79.5561,5.79285 27.70591,-0.97563 51.76302,4.14261 80.58615,3.36383 29.47261,-1.42833 62.03216,3.80456 90.62548,4.32402 25.0825,-3.25386 48.68521,6.8889 74.66921,4.92254 24.66538,0.0368 55.27998,9.29265 47.10858,-22.8508 l 0.1498,-0.7654 -1.0795,-3.53822 m -2.17179,32.42212 c -25.58854,-3.39093 -52.33391,0.43523 -79.1086,-4.28958 -30.23942,-5.6997 -58.39149,-1.49765 -89.04466,-5.02953 -28.76466,0.17842 -54.08465,-1.67672 -82.00083,-3.59788 -22.31054,-0.4274 -47.80853,-5.31951 -69.83277,-2.0962 -22.02731,-1.4268 -44.98005,-5.4599 -69.15462,-6.4302 -23.94948,1.1843 -46.08299,2.58774 -70.98556,-0.84666 -19.14228,6.26454 -40.96431,-4.71346 -61.14855,-0.44052 -28.7658,-1.228 -59.12284,2.16395 -87.1704,-4.22541 -22.95225,2.01208 -48.53594,-1.86006 -69.47518,2.93157 -23.14564,1.83801 -46.52224,-5.0183 -68.69516,-0.19535 -20.64194,0.11907 -41.86994,-4.8438 -60.0542,0.19158 -25.57492,-3.12099 -52.27067,1.56909 -79.09414,-2.08894 -23.057427,2.40182 -44.800475,0.0297 -67.94324,1.83091 -21.432598,3.88715 -53.9073165,-11.28446 -44.36455948,23.62979 -14.45213652,36.30793 35.22081848,24.20353 54.48511248,20.73427 23.732424,3.08546 48.484427,2.38786 73.146047,1.72036 22.5623,-4.76336 44.28368,-1.08166 67.15657,-0.5321 27.81132,-6.16586 55.98609,-2.39506 82.2769,0.2765 19.31343,-7.69686 38.19847,0.1462 58.0226,-0.79986 25.64733,3.15076 52.12706,-5.0073 76.75969,1.89016 27.707,-1.48346 56.85436,-1.41866 83.62827,2.8359 25.34755,-5.87076 51.49696,4.48 78.07281,2.2768 24.27885,-3.3006 50.86356,3.3736 76.49811,2.6458 22.97295,-5.7692 49.61567,6.8751 71.62346,0.6982 23.77794,4.2022 48.81811,4.0541 70.94877,3.0016 25.02361,5.7232 48.74336,7.0905 73.60152,5.2714 22.87366,0.5259 46.42962,5.3372 68.8589,4.3 17.3341,-3.7068 71.0363,19.2319 61.61763,-8.5167 3.32315,-10.115 5.07667,-32.06916 3.26741,-36.88754 m -1.90741,58.56574 c -23.33538,-0.089 -45.80783,-5.1291 -68.29212,-3.1823 -23.58312,-4.0434 -49.0165,-6.4117 -72.95127,-5.0655 -29.3347,-7.501 -56.98077,0.3262 -85.50345,-7.658 -27.00665,2.6158 -51.90795,-5.6152 -78.31331,-0.5044 -24.83381,-0.3828 -48.56044,-10.4169 -72.62464,-3.1809 -25.81642,-3.084 -51.14242,-3.0117 -77.39021,-4.3014 -25.70292,-3.63 -52.82415,-4.0266 -79.12717,-2.059 -19.53942,-3.9039 -40.4003,0.423 -59.62203,-2.9607 -28.47307,0.9584 -56.55112,-3.3326 -83.17812,0.7582 -26.83754,-2.2802 -54.49925,-4.6404 -79.78786,-0.9599 -22.95632,5.2056 -46.60358,-3.6524 -69.95321,-1.9892 -22.64798,3.9281 -43.84077,-1.6911 -67.27207,1.4737 -25.197161,3.4698 -53.227517,-1.0083 -77.981834,3.6783 -25.48659369,-11.42126 -29.8368397,14.6903 -25.19717192,31.6263 -13.73655508,37.1278 18.78252792,31.2281 42.87450192,32.2959 21.863354,-3.5122 46.661946,4.8874 70.562174,-1.6211 26.32879,-0.4937 54.54614,2.4953 80.04849,-1.0566 23.73466,2.2212 46.22821,3.8382 70.62946,-1.4275 22.12801,7.2853 42.28643,1.6161 63.84083,1.3697 29.7144,9.0618 62.44801,-3.8783 90.16926,3.2639 23.59712,-3.498 50.02177,-3.4122 72.26481,-0.09 23.57095,-0.5037 47.02064,1.0847 70.80492,-1.6065 19.49307,-1.9232 40.1734,4.6891 58.03322,-1.9958 22.50538,6.161 46.12541,-0.6719 69.6989,3.9815 25.53126,-0.5489 52.34005,-2.3312 75.58407,-1.5728 22.36923,-1.0009 43.19342,0.9408 65.56917,1.385 24.11555,-1.8204 45.50254,-1.0187 68.6551,0.1519 23.37754,-5.6262 44.48717,-0.6233 68.76407,-0.8847 27.90468,10.8273 38.89566,-14.3468 30.99226,-36.2773 l 0.28536,-0.6237 -1.27074,-2.0519"
       id="rect5232-3"
       inkscape:connector-curvature="0" />
    <path
       style="color:#000000;clip-rule:nonzero;display:inline;overflow:visible;visibility:visible;opacity:1;isolation:auto;mix-blend-mode:normal;color-interpolation:sRGB;color-interpolation-filters:linearRGB;solid-color:#000000;solid-opacity:1;fill:#9d551a;fill-opacity:1;fill-rule:evenodd;stroke:none;stroke-width:1px;stroke-linecap:butt;stroke-linejoin:miter;stroke-miterlimit:4;stroke-dasharray:none;stroke-dashoffset:0;stroke-opacity:1;marker:none;color-rendering:auto;image-rendering:auto;shape-rendering:auto;text-rendering:auto;enable-background:accumulate"
       d="m 1000.8457,550.5498 c -25.12893,9.86379 -55.41513,-8.22074 -80.83859,3.81226 -17.18243,-4.07202 -37.82358,0.91147 -53.75392,-2.1144 -21.98939,-3.84597 -43.13226,3.50591 -64.82448,-1.42527 -21.93616,6.90507 -43.34002,-1.79942 -65.62142,-0.49343 -29.53505,5.10744 -58.65185,0.60077 -88.70919,0.6984 -25.26258,1.67431 -50.61119,0.81044 -77.46058,3.301 -27.23593,-1.73318 -53.80462,1.1704 -81.20864,-0.73064 -26.66138,-0.99817 -47.59151,0.39239 -73.28818,-2.58902 -31.65425,1.88562 -61.37546,-0.78295 -93.23385,0.75655 -24.72993,-1.87241 -45.83352,1.61748 -70.28059,1.7577 -25.67155,-2.27602 -50.37075,-4.94401 -75.75903,-0.14978 -15.58364,-1.86352 -36.28732,1.99926 -54.81502,0.91691 -18.82085,-3.23022 -39.662826,-1.38264 -59.652631,-3.84159 -21.09954,11.39121 -61.13280123,-10.87766 -62.099279,12.35304 -5.2916502,27.51057 33.8015,7.38817 48.271097,13.93854 25.934841,-0.16948 47.924718,0.39075 75.787613,-0.35104 23.86065,-4.05474 51.95415,2.48055 75.10333,-2.27758 21.96428,0.38588 45.08206,5.85174 66.25769,-0.10163 25.22017,4.84275 49.39758,-1.13284 75.1025,0.94834 29.67114,5.7484 58.09126,-4.39005 87.67422,3.28403 23.15272,-0.19956 47.2695,0.18191 71.03754,0.51839 21.6739,-1.82453 42.08214,0.56132 63.81188,0.91168 27.54213,-1.52051 54.36891,1.22908 83.17837,1.76449 20.61867,-1.46108 44.58801,1.54636 65.42467,0.86269 25.78215,0.39771 52.14576,2.2087 77.32152,0.61191 26.46107,1.52757 53.97484,4.21155 78.85638,3.04988 27.30273,1.33629 53.30174,3.19191 80.10025,2.87394 21.90296,1.56105 64.43764,13.44871 51.95089,-21.95955 -3.09786,-0.41107 3.04915,-14.77426 1.01055,-12.52229 m -2.1481,128.74131 c -22.46684,1.24769 -45.14747,0.40799 -65.78565,-3.72378 -25.21559,1.70234 -49.75644,0.32865 -74.86194,-3.02752 -32.53619,0.52927 -58.75585,1.70872 -91.04172,0.0795 -24.52888,-1.07915 -49.14172,0.30859 -73.92867,-5.5082 -23.63251,8.27472 -49.16452,-1.71391 -72.75694,-0.26815 -24.03897,1.04849 -48.47299,-1.33995 -73.99451,-3.11977 -26.76929,5.09838 -52.76323,-5.74611 -78.82078,1.76558 -23.35994,-2.22056 -50.25904,-1.53749 -71.52238,-0.52071 -18.26687,-2.00877 -39.19109,-1.77884 -56.736,-1.71632 -22.14909,3.666 -42.58155,-2.28027 -64.7938,-1.7591 -27.34797,1.64617 -51.28666,2.02977 -77.43705,0.38886 -25.4585,2.26394 -50.9244,-0.68574 -76.62614,2.57225 -27.9091,0.4339 -56.536753,-2.95984 -84.195381,-1.5917 -11.382304,1.17229 -57.899679,-0.12582 -23.746488,9.08542 27.63285,-0.70277 50.63735,-1.43029 77.763269,-0.0103 30.15349,-1.77151 56.97392,-5.30861 86.06294,-1.08659 23.12469,-4.42626 45.98628,-0.0911 68.27879,-1.95486 22.91865,4.99217 50.62614,-2.67095 75.00065,0.58308 25.60762,-3.26568 52.69721,2.08939 79.50303,-0.48197 26.57693,-2.22241 57.15936,1.95392 85.22895,3.49433 24.00404,-1.6451 44.61247,0.42259 66.27165,-0.45128 26.10701,1.81893 52.44882,1.18457 81.46276,0.85514 24.82634,4.75811 46.43646,2.13101 71.06411,5.1838 23.94584,-1.39486 50.10517,3.05023 74.82515,0.20222 21.1119,2.36881 42.23739,1.5695 62.74581,3.36632 22.35376,-2.39535 42.80221,1.16711 64.62985,-0.5749 29.47923,2.60442 58.28829,1.72469 87.09689,6.33062 11.2637,-2.04139 10.9253,2.2493 7.3528,-9.48629 m -0.3558,14.42621 c -21.42328,2.20938 -43.10269,-3.05353 -65.09168,1.46441 -25.65961,-6.08516 -53.98797,-3.36694 -80.15733,-5.14043 -23.24495,-3.60099 -48.04958,1.88674 -71.94177,-4.73553 -26.14836,7.01684 -53.80636,-2.44443 -80.3849,0.023 -29.67033,-0.0923 -56.26371,-1.44855 -85.14876,-2.13814 -20.37895,-6.89496 -40.96624,3.23995 -60.50147,-3.74517 -20.20479,9.66812 -40.88671,-5.58361 -61.13231,1.91182 -22.87296,-4.25746 -44.05446,2.03445 -67.09107,-3.68665 -26.20882,6.35333 -52.2896,-7.69209 -78.74392,1.11585 -23.71836,1.56744 -48.9089,-5.30208 -71.40233,1.02002 -24.58299,-0.93353 -50.46115,1.46966 -73.78376,-2.42135 -22.79283,-1.13877 -46.70721,2.25834 -69.99804,-0.37512 -27.12901,1.1689 -58.034693,1.09485 -88.304943,1.92245 -12.013474,8.59991 -50.2058404,-12.03616 -42.1079532,13.0755 15.7090492,3.0274 42.3225912,0.35712 63.6886822,2.24048 19.170792,-6.44341 43.259984,4.35309 63.205464,-4.50323 25.65246,5.90754 48.26225,-4.89782 72.56861,4.17525 26.01658,-5.30065 49.19207,0.51995 74.03619,-3.41336 26.62956,4.65091 51.51829,-3.36789 78.51288,2.44214 27.75144,-4.1622 54.31823,4.8461 81.82367,-1.58258 23.98905,4.37229 45.58065,0.622 70.22524,3.30034 22.32487,-0.43023 45.9468,-0.8157 69.32708,1.29477 21.3555,1.60274 40.66718,-0.50163 62.46266,-0.95341 23.86364,7.95038 49.13866,0.48568 72.71807,5.31821 26.32955,-5.70262 53.04404,3.70857 79.40798,-0.48715 26.60631,0.87 51.83273,6.97672 78.50902,4.77723 22.40044,-2.57247 43.02786,6.38225 64.6524,-0.2877 19.8952,-6.59333 60.60842,14.46018 65.79279,-0.11747 -4.02556,-3.45772 3.4478,-7.51495 0.8811,-10.80941 m 1.0875,36.6398 c -27.59003,6.47593 -55.37086,-9.98739 -82.17908,-0.80079 -26.55524,2.02689 -53.27627,-7.22076 -79.41329,-2.70083 -32.75727,-6.55796 -66.71716,-2.59522 -100.49579,-3.86381 -26.13549,-6.17013 -54.57486,-0.38476 -81.5376,-2.61039 -24.17729,-1.70762 -48.46354,-1.09341 -70.43334,-3.05341 -19.49487,2.46449 -40.96742,-1.11094 -61.06154,-0.0101 -27.63407,3.87956 -55.75649,-6.2843 -81.47315,-0.099 -18.44539,0.29758 -40.83129,-10.5942 -59.45454,-0.75053 -19.93911,-7.82059 -43.37424,3.37801 -64.71249,-3.51517 -24.83288,2.39912 -49.1214,-1.37411 -73.281,2.69174 -27.78276,-5.82527 -60.2886,1.75824 -89.66618,-3.78196 -22.6164,3.16435 -45.59071,2.70283 -68.58686,0.63032 -27.000682,4.13731 -51.56356,3.24543 -77.891839,4.2302 -34.220465,2.73067 24.278078,9.62019 37.946838,9.19622 27.487825,-4.04838 56.168141,-2.03307 84.004001,0.10207 26.7776,-4.03014 52.22316,-1.65498 79.24442,0.0356 25.07204,-5.4769 50.22245,1.59608 75.30375,-0.29532 22.46176,6.30096 44.20672,-4.51666 63.49483,0.99597 21.2369,-3.52551 48.69013,-1.95293 69.20807,-0.2547 24.80995,-3.99417 49.77626,4.78593 74.83264,-1.19654 17.72328,6.95787 37.23739,-3.76387 55.32899,4.20093 24.22644,-4.191 46.19153,3.57423 70.39996,-3.38604 20.50987,9.29588 43.05441,-4.33305 64.47875,5.47337 22.21515,-3.99198 46.46731,-1.82207 69.67088,-2.01867 25.29458,3.91751 51.22369,-1.92254 76.60764,3.11879 23.09804,-8.30955 48.18343,3.28897 73.53386,-3.64077 21.05972,3.42493 39.98116,1.09939 61.10083,4.08815 11.00606,1.40718 27.83404,-8.78024 34.72164,-0.69018 m 0.4069,54.21228 c -26.41461,-0.83041 -52.06988,-2.03997 -78.26123,-3.24996 -23.0541,1.04926 -46.60137,-4.30223 -70.50396,-1.60382 -20.67304,-6.1288 -42.03177,-2.28292 -62.74201,-4.43301 -19.41499,2.51179 -40.38013,1.58095 -60.00949,-3.13617 -28.33063,3.45475 -58.3196,0.78421 -88.14239,0.59233 -23.17389,-7.32508 -48.05811,1.46594 -72.79822,-1.61225 -23.44491,-1.8141 -42.02844,-2.23392 -65.39311,-4.8803 -23.73182,2.4328 -50.45497,-2.01946 -76.23265,0.0933 -34.86997,1.81541 -68.34748,-5.74375 -102.06119,0.81214 -22.18435,-8.6953 -50.23114,4.72796 -73.50061,-2.86325 -23.64169,1.32317 -50.2406,2.33751 -74.51451,-1.0647 -28.94491,4.11336 -57.32569,1.91036 -86.81913,1.94651 -23.300036,-1.1136 -42.793618,3.41714 -66.368489,3.77093 -34.0778883,-17.22759 -24.88892737,28.9954 -20.2760957,46.11622 26.9571367,-0.62825 50.1470467,-1.3742 76.8303747,-2.83157 24.47758,1.63517 49.69652,-6.13268 73.45966,1.43007 25.37339,-4.63276 49.31796,-0.92452 74.68626,-0.91804 22.74951,0.61568 42.81383,-2.39825 62.87297,-1.963 21.2782,1.84784 41.65069,3.01461 63.08906,2.89302 27.49809,-2.40935 54.84064,-0.99511 82.6119,-0.19258 23.16407,1.10153 46.42972,0.0237 68.76899,3.41286 22.11205,-4.57352 44.95727,-0.94251 68.63691,2.13598 23.15009,-7.68452 47.18995,2.45407 70.20024,1.67634 21.58972,-2.48895 40.85666,0.79963 62.58738,2.0854 24.10307,0.54357 41.52271,2.55045 66.22861,1.31587 20.04186,3.26944 38.56716,1.66276 59.07847,2.47295 21.43078,1.59865 42.0893,3.07233 63.48574,3.3162 25.0367,6.75499 51.32196,1.82908 76.20583,4.95844 23.73077,5.37152 32.58809,8.27766 26.68847,-18.73422 7.93152,-10.24241 -8.69305,-22.35745 2.25592,-30.87136 m -2.0861,79.31833 c -17.38697,3.04126 -35.26381,0.38424 -53.23149,-0.40021 -24.70634,-3.97637 -50.69197,-1.91629 -74.17,-6.85333 -22.85952,2.18739 -45.0829,-1.42837 -67.31588,-2.20428 -24.76142,-1.2865 -49.247,1.62297 -71.47501,-4.72536 -24.01319,-3.01727 -49.0531,7.33951 -72.50034,-2.71261 -23.89509,2.46443 -46.59432,-1.44986 -70.52518,0.94895 -19.28489,-7.15707 -41.98466,0.30622 -62.05755,-5.51266 -26.43545,3.03036 -53.93632,-3.25632 -78.78949,-0.93726 -23.46561,-1.09192 -48.89231,-0.7899 -72.94689,-2.62031 -24.31805,4.69666 -48.50011,-1.11809 -74.11441,0.61711 -18.26768,-0.73042 -41.83816,4.13667 -63.10812,-0.27741 -25.17903,-1.37245 -53.76623,5.79377 -77.26859,-0.37499 -23.20327,6.12643 -43.98101,-4.39118 -67.061519,2.41947 -26.271641,3.48581 -53.847738,-0.0636 -80.473514,1.22808 -42.489082,6.70433 25.474011,6.52195 38.882831,6.51736 23.127972,-2.08135 46.367332,1.16668 69.483102,-1.87962 19.55274,2.95366 36.54817,-0.88708 56.77632,1.68297 26.64163,-1.10788 52.24783,-1.62784 79.45999,-1.63048 21.17028,2.75567 41.46688,-0.15609 63.66463,0.13534 22.34067,0.0874 50.56304,2.72104 75.10782,2.06362 20.90599,4.7076 42.67341,-5.48518 64.24657,1.97624 28.93615,-0.84797 54.33736,3.09631 84.18935,2.3394 20.38087,0.57 42.26228,-1.58246 63.32477,1.32197 19.13679,1.30023 37.23894,-0.19461 58.50132,3.61355 25.61709,-1.55825 52.15173,0.6945 78.93831,1.82301 20.33746,-2.17191 41.10677,3.70663 60.83972,2.47223 25.37238,3.45609 49.21242,1.61732 74.40345,6.87146 26.47019,1.4897 56.80503,-3.85006 84.22793,4.70087 7.41922,-7.58206 46.35417,10.41715 31.08867,-8.46559 m 3.9235,26.44346 c -30.20826,1.68666 -60.06049,-6.3897 -91.41815,-6.77546 -22.82944,4.45714 -41.31577,-4.95722 -64.43853,0.65337 -19.11382,-4.2489 -37.34437,-3.57604 -58.3159,-5.48716 -24.14366,-4.74187 -48.01664,1.5226 -73.36655,-1.5303 -24.66152,-5.48982 -51.5564,1.301 -76.4215,-6.12595 -26.04722,-1.60889 -49.70558,2.86737 -72.84046,-2.81352 -24.71501,4.48249 -54.44367,2.58045 -78.209,-1.55934 -20.70253,1.05473 -40.61239,-0.91401 -61.79149,-1.95198 -30.63426,4.56076 -61.29228,-4.56621 -92.28853,0.62501 -25.77218,-1.4559 -48.52549,-2.7149 -73.45062,0.12079 -26.52742,3.56559 -52.95422,-4.82804 -79.17909,-1.22012 -25.44773,2.39733 -51.78819,4.35864 -78.06805,0.50026 -22.271926,3.43761 -47.375097,3.73635 -71.581896,0.70532 -19.113879,0.68048 -38.9191377,2.92405 -27.2835752,20.09453 25.0391252,-2.74729 50.8059122,7.28486 76.7605212,-1.82894 19.610671,6.6319 41.84779,0.76798 62.02573,-0.93894 25.88288,2.50567 52.11644,-0.18297 77.84911,1.13562 25.71719,-1.7981 48.47408,0.34866 74.8901,0.10387 19.40096,2.57705 36.87649,-1.16355 57.68334,1.4571 28.99587,-3.82816 59.98252,4.36658 90.18942,0.0709 27.53961,5.22288 56.73597,4.04863 84.20418,0.77487 27.44125,3.77452 55.91128,0.57986 82.15825,5.82578 16.92565,-3.14688 32.47838,3.00359 49.60236,0.0981 28.8321,-2.47171 56.68203,9.28942 85.76203,2.87723 20.57388,7.71226 43.50738,-1.67635 65.733,3.95151 25.43344,1.67366 49.79255,0.72578 76.1335,4.56734 29.04369,2.4376 56.4133,4.49094 85.5281,6.09873 20.01211,-10.2764 27.55505,15.28399 28.9715,-20.74554 m -2.0831,51.32568 c -25.03524,2.34373 -50.8689,-2.12018 -77.56718,-5.28586 -22.00827,2.70784 -45.77521,-2.60161 -67.4776,-1.99561 -22.19286,0.82252 -45.12528,-2.10271 -65.86009,-3.33405 -24.93246,4.38656 -48.612,-6.23717 -72.52225,-0.38647 -26.04256,-3.6014 -53.0945,-6.03388 -77.91644,-3.70861 -25.04103,-7.81232 -50.06295,0.39068 -73.5913,-6.11667 -23.58193,3.41313 -51.50223,-1.82806 -74.86104,-1.66801 -24.18007,0.58694 -49.31026,-0.6007 -73.29358,1.5571 -24.47206,-5.94606 -54.22293,-1.04767 -80.65783,-3.87062 -24.94563,6.53761 -50.173,-3.58563 -75.40743,-0.11284 -29.53312,-0.22709 -58.1693,1.11966 -86.8763,-0.33487 -27.03552,4.79704 -52.18011,-1.76865 -78.620006,1.84844 -23.330246,0.89616 -47.353338,3.81128 -70.456483,-0.3684 -20.6807179,2.44414 -33.3406699,12.64941 -4.798034,6.73569 28.465606,3.22576 58.156927,0.61269 88.456283,0.7578 26.37446,-2.16224 50.35236,-1.65871 76.34885,-1.66561 26.25941,-2.94166 55.92055,2.18988 82.30339,-1.46135 22.23295,1.30927 42.21407,1.64119 64.18524,1.29317 28.01818,0.38366 55.99886,2.20031 81.89081,2.53307 23.18663,-0.49985 44.79792,-1.81522 67.89782,2.66198 25.07079,-6.59744 52.56812,1.6949 78.81135,-1.66006 23.68722,1.64255 46.79942,4.53162 70.58144,3.99018 23.23245,3.74634 46.8616,-1.99676 68.76663,3.60683 20.86002,1.17373 44.38935,-1.16641 66.54888,3.42406 27.41169,-0.0913 53.96799,-1.10115 81.44677,2.93479 22.4847,2.25418 42.99279,1.81714 66.02389,1.43498 25.42001,3.61127 52.87122,5.35329 77.90611,4.51412 9.54764,1.13195 14.9233,10.04622 8.441,-4.99943 m 2.2469,13.20647 c -24.11957,-2.30864 -45.4546,-6.01063 -68.55871,-7.64823 -27.09652,4.55369 -49.89073,-1.92238 -75.44261,-4.3174 -23.24419,3.70073 -45.93193,2.03853 -66.88871,-3.5687 -21.21965,4.22353 -42.99669,-1.10963 -65.57999,0.48273 -25.3035,-3.80622 -50.97167,-5.46497 -76.83393,-5.82208 -25.89642,3.87715 -53.51283,-2.34523 -79.4268,-0.57454 -28.27045,-3.46165 -55.50957,-6.23458 -82.96318,-1.39664 -29.74216,-2.65619 -59.8571,-0.53965 -89.52424,-1.82661 -28.90804,-0.32759 -56.98622,-1.75348 -84.06513,-2.33073 -26.06147,-4.50419 -51.03469,3.90794 -77.50157,-2.78859 -24.01978,5.60714 -46.36318,0.65814 -71.34614,2.6668 -23.02262,3.84704 -46.01767,-7.18978 -68.491337,2.67683 -28.699603,-0.71045 -54.040669,-3.20802 -81.291483,-1.32538 -19.230192,-9.03674 -20.2270574,41.33796 2.591225,24.3797 17.065906,-2.77378 34.164379,1.86017 52.035805,-1.82435 31.439837,-1.60197 60.80303,1.27666 92.23747,-3.4768 22.85736,2.62749 43.19222,-0.88624 64.06296,3.61154 24.25983,-5.72577 44.68641,2.4088 69.86197,-2.48674 24.69332,3.16189 50.827,0.53889 75.05138,1.04844 20.32094,1.48711 37.80055,-2.32763 58.08361,1.44448 23.81591,4.01666 47.35999,-1.47886 71.59373,3.53321 19.18219,-2.63589 41.22535,-1.89105 63.04034,-0.86322 22.28761,0.62111 45.56065,3.4256 67.73769,4.7735 21.07142,5.96089 42.83203,-3.87466 61.59707,2.44731 21.16083,-0.52429 42.96533,-1.68493 65.33636,2.89487 21.29218,-0.1202 43.98357,4.52624 65.69753,5.1708 20.90763,-3.39379 44.71332,0.0808 66.55694,2.8347 24.90665,1.90715 53.13237,0.26692 79.27105,2.55915 18.78075,5.6388 42.1631,8.3271 31.8684,-20.28185 m 2.2245,85.65595 c -22.52355,-3.5244 -47.14566,-2.1256 -70.74023,-4.078 -18.87576,-9.8247 -42.65806,3.311 -60.33999,-8.1173 -25.59222,1.3448 -48.9841,0.8281 -74.40969,-4.151 -20.91632,4.5589 -41.52771,-2.0597 -63.06123,-3.3151 -26.7783,4.8874 -46.49674,-6.0933 -74.17322,-0.3826 -23.18754,-1.3755 -44.56887,-6.2205 -68.79101,-2.8501 -26.00937,-4.604 -50.43344,1.1419 -76.06664,-5.2778 -24.38306,2.4492 -49.2866,1.75 -73.49097,-1.6299 -21.64651,-2.9512 -41.98415,4.1792 -64.10396,1.8842 -27.97521,-4.2203 -55.71123,-1.0321 -85.40601,-4.1355 -21.92865,-1.3621 -40.57883,4.5892 -61.85146,-0.6958 -27.49026,5.3079 -52.87287,4.3006 -80.78789,0 -22.67351,4.8783 -45.80968,-3.6497 -67.56793,5.0058 -26.932767,0.2136 -57.857681,-2.7016 -79.5648295,4.1093 -15.7579015,31.46 13.2276665,34.21 36.7882175,29.4893 24.834908,3.6848 49.182963,-7.3404 72.752002,1.8204 29.99365,-9.3279 58.13773,3.327 87.26341,-2.0984 29.17468,-2.8219 58.85309,2.1628 87.84822,2.1039 22.31858,-5.3694 40.62159,-0.066 62.89,-3.4253 27.98773,5.6449 52.83481,1.077 79.5713,0.4685 22.80407,2.7256 44.49568,-2.5439 67.38874,2.7789 24.2645,-4.0094 48.47681,-1.9671 72.51753,-2.6146 24.51904,1.8595 48.97494,1.1262 73.12013,2.4107 21.74831,-4.7968 46.66927,3.4258 70.54149,-2.1301 26.56754,5.4039 52.15424,-7.7868 78.70732,2.5614 26.83961,-3.3129 51.34819,-2.8142 77.69788,0.1964 18.74929,-4.6307 38.76956,-3.5106 56.96103,-0.4714 25.4423,0.423 48.69545,-0.3951 73.43869,-3.1514 l 2.9398,-3.5257 0.3621,-2.0344"
       id="rect5232-3-0"
       inkscape:connector-curvature="0" />
  </g>
</svg>
