<?xml version="1.0" encoding="UTF-8" standalone="no"?>
<svg
   xmlns:dc="http://purl.org/dc/elements/1.1/"
   xmlns:cc="http://creativecommons.org/ns#"
   xmlns:rdf="http://www.w3.org/1999/02/22-rdf-syntax-ns#"
   xmlns:svg="http://www.w3.org/2000/svg"
   xmlns="http://www.w3.org/2000/svg"
   xmlns:xlink="http://www.w3.org/1999/xlink"
   xmlns:sodipodi="http://sodipodi.sourceforge.net/DTD/sodipodi-0.dtd"
   xmlns:inkscape="http://www.inkscape.org/namespaces/inkscape"
   width="1000"
   height="500"
   id="svg2"
   version="1.1"
   inkscape:version="0.91 r13725"
   sodipodi:docname="background.svg">
  <metadata
     id="metadata1028">
    <rdf:RDF>
      <cc:Work
         rdf:about="">
        <dc:format>image/svg+xml</dc:format>
        <dc:type
           rdf:resource="http://purl.org/dc/dcmitype/StillImage" />
        <dc:title />
      </cc:Work>
    </rdf:RDF>
  </metadata>
  <defs
     id="defs1026">
    <linearGradient
       inkscape:collect="always"
       id="linearGradient3871">
      <stop
         style="stop-color:#060b05;stop-opacity:1"
         offset="0"
         id="stop3873" />
      <stop
         style="stop-color:#2a3729;stop-opacity:1"
         offset="1"
         id="stop3875" />
    </linearGradient>
    <linearGradient
       inkscape:collect="always"
       id="linearGradient3863">
      <stop
         style="stop-color:#0d0e0b;stop-opacity:1"
         offset="0"
         id="stop3865" />
      <stop
         style="stop-color:#616f54;stop-opacity:1"
         offset="1"
         id="stop3867" />
    </linearGradient>
    <linearGradient
       inkscape:collect="always"
       id="linearGradient3855">
      <stop
         style="stop-color:#ffd541;stop-opacity:1"
         offset="0"
         id="stop3857" />
      <stop
         style="stop-color:#fffeed;stop-opacity:1"
         offset="1"
         id="stop3859" />
    </linearGradient>
    <linearGradient
       inkscape:collect="always"
       xlink:href="#linearGradient3855"
       id="linearGradient3861"
       x1="1000"
       y1="95.12162780761719"
       x2="1000"
       y2="600"
       gradientUnits="userSpaceOnUse"
       gradientTransform="matrix(1,0,0,0.990337525480159,0,-94.20251528809546)" />
    <linearGradient
       inkscape:collect="always"
       xlink:href="#linearGradient3863"
       id="linearGradient3869"
       x1="1000"
       y1="0"
       x2="1000"
       y2="500"
       gradientUnits="userSpaceOnUse" />
    <linearGradient
       inkscape:collect="always"
       xlink:href="#linearGradient3871"
       id="linearGradient3877"
       x1="1000"
       y1="0"
       x2="1000"
       y2="500"
       gradientUnits="userSpaceOnUse" />
  </defs>
  <sodipodi:namedview
     pagecolor="#aabead"
     bordercolor="#000000"
     borderopacity="1"
     objecttolerance="10"
     gridtolerance="10"
     guidetolerance="10"
     inkscape:pageopacity="1"
     inkscape:pageshadow="2"
     inkscape:window-width="3200"
     inkscape:window-height="1717"
     id="namedview1024"
     showgrid="false"
     borderlayer="true"
     inkscape:showpageshadow="false"
     fit-margin-top="0"
     fit-margin-left="0"
     fit-margin-right="0"
     fit-margin-bottom="0"
     inkscape:zoom="1.57"
     inkscape:cx="266.24204"
     inkscape:cy="250"
     inkscape:window-x="-8"
     inkscape:window-y="0"
     inkscape:window-maximized="1"
     inkscape:current-layer="g4523"
     inkscape:object-paths="false"
     inkscape:object-nodes="true"
     inkscape:snap-smooth-nodes="true"
     inkscape:snap-intersection-paths="true"
     inkscape:snap-bbox="false"
     inkscape:snap-global="false" />
  <g
     id="g4114"
     transform="matrix(-1,0,0,0.9272712714807223,850.0602100135323,-84.74588356984747)" />
  <g
     id="g4523">
    <path
       sodipodi:nodetypes="ccccc"
       inkscape:connector-curvature="0"
       id="rect4097"
       d="m 0,0 1000,0 0,500 -1000,0 z"
       style="color:#000000;fill:url(#linearGradient3861);fill-opacity:1;fill-rule:nonzero;stroke:none;stroke-width:1;marker:none;visibility:visible;display:inline;overflow:visible;enable-background:accumulate" />
    <path
       inkscape:connector-curvature="0"
       id="path458"
       d="m 589.4128760226733,196.8512083569052 c 58.6431523739941,11.9197684739721 121.5985462690918,3.7119672529241 180.8591756519968,5.963472999794 44.6907850117102,1.6976791752522 103.7009072019773,9.0909575680321 146.1559494093375,-6.8141121086056 l -149.7423399566684,-19.072944133121 -61.7020847099726,18.9021263818909 c -24.7037903818467,-11.0520419885626 -94.8555632800252,-18.5725667367671 -115.5707003946924,1.0214568600456 z"
       style="fill:#ffffff;fill-opacity:1;stroke:none" />
    <path
       inkscape:connector-curvature="0"
       id="path976"
       d="m 341.3082407477731,167.4550774877793 c 33.5850406925337,9.7430855381043 120.1128104363284,20.2103321234827 147.273711260644,-4.2194965251073 41.2173040544768,19.5236656233493 95.1970729766854,1.9117050688957 139.2610148172022,6.6755463854504 25.4818376891827,2.7551488576993 70.9131730492544,21.5823256742596 95.4976952892051,10.0130480282956 25.5457805136904,-12.0290403452507 25.7850173861805,-57.1608031356146 13.5855598992046,-76.6625884187892 l -22.3909731638004,6.1306956114829 -11.5066660897688,31.2317150340003 -5.4642145565921,-34.6082423476101 c -42.6180799298304,-5.2118720890921 -65.8590322835407,2.7080485093553 -94.9839851726264,34.03000537102 -22.8084060342761,-12.9023537496057 -47.8514901479105,-28.2376486070866 -70.5935688441592,-8.7524977918982 -51.6925824299739,-24.4941691454806 -148.904093146352,0.6823845958204 -190.6785734393037,36.1618146531513 z"
       style="fill:#f6efe1;fill-opacity:1;stroke:none" />
    <path
       style="fill:url(#linearGradient3869);fill-opacity:1;stroke:none"
       d="m 0,500 0,-236.5959047652069 135.8588233665174,0 0,-5.9173745062408 -17.7521235187216,-11.8347490124831 29.5868725312066,5.9173745062425 -11.8347490124852,-17.7521235187252 106.5127411123423,-17.752123518723 c 0.6331590721606,26.1400018813219 2.7042401493524,44.7649381397144 29.5868725312065,53.2563705561695 l 0,5.9173745062426 -11.834749012485,0 0,5.9173745062407 23.6694980249653,0 29.5868725312072,-17.7521235187245 -5.9173745062408,23.669498024966 c 85.0208369056657,22.4948991854733 118.2996647663343,18.1977018190432 205.9300638292568,24.1991030432724 122.4837349046841,8.3878783625933 226.3898277058582,26.0582196543405 348.8617599984091,34.4450370008283 C 893.2725256612692,347.8418318197588 954.057201616057,339.9539278726337 1000,348.1335598343251 L 1000,500 z"
       id="path3002"
       inkscape:connector-curvature="0"
       sodipodi:nodetypes="cccccccccccccccssccc" />
    <path
       sodipodi:nodetypes="ccccccccccccccccccccccccccccccccccccccccccccccccccccccccccccccccccccccccccccccccccccccccccccccccccccccccccccccccccccc"
       inkscape:connector-curvature="0"
       id="path400"
       d="m 941.3266196170972,306.7310675120758 7.0827675006786,8.7654061246434 6.1336583025201,-4.555243896702 4.839054916697,-0.091559143202 22.9532438503933,20.3099750690788 -17.5945690104543,-5.6000409077827 -15.3822788609967,3.2575188999535 3.1088266948868,5.874123797496 -27.7083036798365,-3.9149244341826 13.6267637657327,2.6876036765902 -2.165853057798,7.4676811278946 -36.0542521318139,-8.2172403452163 18.9793030446011,17.4186927419314 -13.2225613642689,-4.1890073238962 -9.6466873988703,0.1825237465121 1.3471760385523,11.8404012780847 -4.8076324821733,0.090964603311 -27.3041012783725,-5.4163280814888 2.6793374199691,7.3549670806481 -4.8390549166968,0.091559143201 -47.5465852742725,-18.3719306098103 18.9731674835308,17.4398476459763 -16.2999656246318,-10.0637256612832 -57.224695107667,-18.1888123234072 14.1402481279041,17.510251885133 -4.839054916697,0.091559143201 -18.0301938464421,-4.0980427205858 6.5692831385073,-6.0572420838991 -31.6822444856283,-6.80620676133 5.7567416803322,13.2296854180352 22.0355570867581,6.988730507842 -23.3301604725807,-2.5250457543414 7.0827675006789,8.7654061246436 c -20.6914060287097,-2.9903189763778 -32.3118958758065,-8.1164519155868 -29.0869021529129,-15.7547311723765 -19.7040177409092,4.0986725008763 -19.6429969973492,7.6942950496501 -13.5366331174088,13.5947329110594 l -43.6040669030043,-15.4800537427721 2.6793374199691,7.354967080648 -23.2987380380564,-2.5256402942322 -2.165853057798,7.4676811278946 -4.8390549166975,0.091559143201 -22.0294215256876,-7.0098854118873 2.6732018588992,7.3761219846933 -4.8390549166975,0.091559143201 -2.2122901494574,-8.8575598077359 -4.8390549166975,0.091559143202 -1.2946033858226,4.4636847535006 -27.2726788438484,-5.4169226213797 c 2.687776840209,-4.5095488686735 1.6120393101531,-6.152658705027 -12.3574472533641,-7.171848794245 l 14.5697374028216,16.0294086019811 -8.7815732879651,-2.8003177238367 -15.8179036969843,4.7595170871501 -4.8390549166975,0.091559143201 -21.9979990911636,-7.0104799517779 2.2437125839814,8.856965267845 -4.8390549166969,0.091559143201 -17.5945690104542,-5.6000409077826 -21.9515619995042,9.3147609838524 0.4356248359877,-1.501998187197 c 15.1886119833989,-4.7425181135463 0.7693967805187,-10.0522796210506 -10.5957965970293,-13.1381262748336 l -3.7855236894959,5.0788631146445 -27.8967207961326,-11.8850698759747 -4.8390549166972,0.091559143202 1.8142233090643,10.337808550997 -26.8431895689312,-6.8977659045315 -2.1597174967279,7.4465262238496 -25.9780754580261,-9.8806073748804 -20.2213337776939,3.3490780431549 6.2176533897737,11.7482475949924 -16.7608773340732,-8.5822878382406 -4.8076324821731,0.090964603311 2.2122901494576,8.857559807736 -17.1589441744667,-7.1020390949796 -29.4385319016467,2.050758506515 -1.2946033858226,4.4636847535006 -4.8390549166973,0.091559143201 -4.8390549166972,0.091559143201 -25.5485861831086,-11.3614506580321 2.6793374199695,7.3549670806481 -35.220560455433,-11.1994872756741 7.9478816115842,5.7825646542945 -23.3301604725808,-2.5250457543413 3.5444515308746,4.3721256102991 -18.4658186824299,-2.5960445333885 3.5444515308746,4.3721256102991 -25.5424506220384,-11.3826055620774 -4.8390549166972,0.091559143202 -3.0248316076329,10.4293676941985 -4.8390549166972,0.091559143201 -2.249848145052,-8.8358103637999 -4.8390549166971,0.091559143201 5.7881641148562,13.2290908781442 -23.2987380380567,-2.5256402942323 -7.947881611584,-5.7825646542946 0.9491091981591,13.3206500213458 -4.8390549166972,0.091559143201 -7.5183923366666,-7.2634079374467 3.1088266948869,5.8741237974963 -20.70339570534128,-11.474164705279 -48.79475156843547,2.4169950793211 2.16585305779802,-7.4676811278946 -4.83905491669717,0.091559143202 -2.59534233271547,8.9485244110465 -9.64668739887033,0.1825237465119 2.15971749672778,-7.4465262238495 C 23.79047775509551,342.5298254501365 5.461873293742425,342.1936878623059 0,344.1137337059504 L 0,500 l 1000,0 0,-191.1226222762207 -24.8314184005466,-2.7866296742229 3.1088266948867,5.8741237974961 z m -231.4571995103711,35.5168167946726 4.839054916697,-0.091559143201 8.3835064475719,4.2805664670977 -15.466273948251,-13.0459725917412 -4.8076324821728,0.090964603311 z"
       style="fill:url(#linearGradient3877);fill-opacity:1;stroke:none" />
    <path
       id="path4134"
       d="M 900.59375 381.125 C 897.2139905409964 402.5988572613429 893.8198450626594 445.6636251347462 896.59375 474.59375 C 897.5331320567549 484.3913621937662 899.4255601923485 492.2695275669949 901.0625 500 L 903 500 C 904.5103565144115 477.7936280420948 906.7529706547111 430.4338455780013 905.59375 414.65625 C 904.6877554000188 402.3169099421669 902.0281732145537 391.9145845851845 900.59375 381.125 z M 584.625 386.34375 C 583.1905767854463 396.4098831149808 580.499744599981 406.1130239278425 579.59375 417.625 C 578.3750132078943 433.1004246983042 580.9425136626368 480.9164626693113 582.4375 500 L 583.5625 500 C 585.322768737552 491.8840688754231 587.5347551229838 483.8358179951148 588.59375 473.53125 C 591.3676549373406 446.5409163474389 588.0047594590035 406.3777655803207 584.625 386.34375 z M 738.90625 390.6875 C 742.2568025977999 429.1294951890025 757.206437580076 465.2345902110566 772.0625 500 L 774.90625 500 C 772.7549734092746 473.8995630996736 761.7557708182524 440.2359173571062 752.84375 415.53125 C 749.5860624206723 406.502786897279 749.6479446957285 393.6315149752311 738.90625 390.6875 z M 976.75 393.0625 L 972.625 500 L 976.96875 500 C 983.7505107088834 463.3216609200576 991.910008203436 427.0757499325864 976.75 393.0625 z M 782.40625 394.78125 C 770.7180740726883 422.8343770563372 791.7452975016455 467.0343975187877 800.1875 494.90625 L 804.65625 494.90625 L 782.40625 394.78125 z M 693.28125 401.34375 C 681.4141633103748 430.9470665775135 693.8491069142317 468.7597673671397 701 500 L 705.625 500 L 693.28125 401.34375 z M 974.96875 403.96875 C 964.3237849791258 427.9541280434056 962.1420256254555 460.4195328441992 962.90625 500 L 968.625 500 L 974.96875 403.96875 z M 441.46875 405.8125 C 437.1387009886588 432.9067093843237 491.4313447251759 468.9331058927286 502.9375 494.21875 L 505.4375 495.46875 L 511.875 495.78125 C 504.8757838221368 469.8217940805376 465.4268933765857 421.461446398639 441.46875 405.8125 z M 431.78125 406.5 C 417.544438888284 436.3002125883712 423.8704356703379 467.9187063609534 430.3125 500 L 435.65625 500 L 431.78125 406.5 z M 515.875 407.1875 C 503.8998967565659 435.0572752327096 516.6968440422231 470.702960993384 523.8125 500 L 528.3125 500 L 515.875 407.1875 z M 205.3125 408.09375 C 194.5741347984871 411.5463300087989 205.3193530193975 421.1343357008706 208.8125 428.25 C 218.5318906973913 448.0433706089464 233.2646898019669 475.0258493562199 252.75 494.84375 L 255.71875 494.5625 C 244.9939168572657 466.5706725271774 233.4438608790053 437.5256071458627 205.3125 408.09375 z M 732.5 410.1875 C 721.3968198498021 418.5561690546675 722.9221394501701 432.2199911081317 724.96875 444.59375 C 737.0061707821344 435.505030028421 736.9602530524462 423.2464721140597 732.5 410.1875 z M 620.25 412.84375 C 616.3120401420186 439.2554898066706 660.8385134506173 473.6102958668865 677.59375 500 L 687.46875 500 C 675.6617723349879 471.166847676482 641.7454935961218 427.8932274431361 620.25 412.84375 z M 253.90625 416 C 257.0602931185566 445.4599741886328 270.5096843332572 473.2340976239544 284.46875 500 L 289.28125 500 C 286.0921208330782 479.5839474293329 276.0688830699428 454.7805892341475 267.84375 436.21875 C 264.5860624206723 428.868720481487 264.6479446957285 418.3967088002357 253.90625 416 z M 716.21875 416.53125 C 698.0170028453589 435.7602449538647 703.1790699524935 475.4535091670904 710.6875 497.875 L 712.625 497.25 C 716.6015348251767 473.1341489895882 720.8021517864214 440.5901527273081 716.21875 416.53125 z M 433.5625 416.65625 L 439.5 500 L 445.71875 500 C 446.1049677805178 465.904225343985 443.5990610418855 437.7544402768845 433.5625 416.65625 z M 928.25 417.03125 C 914.4955752222626 434.3468021884612 906.2811871375486 452.9514307483873 907.3125 474.4375 C 921.2106677754756 459.7980188010815 926.9674387292952 436.8171122201971 928.25 417.03125 z M 887.4375 417.8125 C 861.0153159416772 435.4189422839553 880.4036503287567 476.2182960993205 893.90625 500 L 899.3125 500 L 887.4375 417.8125 z M 297.40625 419.34375 C 285.8587801982431 441.9067389007002 306.2408672355123 477.2703341086371 314.875 500 L 319.4375 500 L 297.40625 419.34375 z M 556.96875 419.84375 C 558.2513112707051 438.3029521435796 564.0080822245244 459.7483593445135 577.90625 473.40625 C 578.937562862451 453.3608412544758 570.7231747777378 435.9982786486545 556.96875 419.84375 z M 597.78125 420.5625 L 585.5 500 L 589.65625 500 C 603.1123448102271 478.3537413452894 625.3273646570357 437.6871297282414 597.78125 420.5625 z M 490.8125 422.125 C 489.4880826466887 435.5805115957558 502.0945679792023 477.9289426809327 512.84375 486.1875 C 519.0154439810343 470.0814939271528 502.7247747088619 433.8975266543761 490.8125 422.125 z M 794.3125 425.3125 L 806.75 495.3125 L 810.90625 495.3125 C 815.8503114126679 471.904668737224 817.1149595632054 440.4083166055716 794.3125 425.3125 z M 166.84375 432.8125 L 215.3125 500 L 222.875 500 C 211.8399701174532 478.4456122340259 199.3470682935379 449.7120713533354 166.84375 432.8125 z M 857.8125 432.875 C 838.1820408958896 436.0583290759826 823.9837842182654 479.1701792528125 821.6875 496.09375 C 838.3253200704431 487.067544577474 856.50894306182 450.5029669682525 857.8125 432.875 z M 940.90625 434.90625 C 927.1847819343279 451.3597814890417 904.4230705369482 477.7700488492612 903.96875 500 L 911.125 500 C 925.9022315965018 481.8880245259325 948.0258031697884 453.0888275807589 940.90625 434.90625 z M 544.3125 436.5 C 536.7727650326639 454.4645662936977 561.9043299900367 483.4293441843382 576.5 500 L 581.1875 500 C 582.8708814493216 478.7246743365993 558.6489870379078 452.5383334685968 544.3125 436.5 z M 734.875 438.96875 C 726.9382467428137 450.0358768531509 729.8363630037394 455.5739625733328 745.75 460.53125 C 752.1420336476906 450.5571401020774 749.2428244589563 443.4329553383562 734.875 438.96875 z M 674.3125 440.53125 C 673.2535945478865 452.0624523058227 681.0949160903639 483.380534703457 689.78125 500 L 697.6875 500 C 697.651265940307 480.748755400236 684.4134755331623 451.2311657039574 674.3125 440.53125 z M 249.875 442 C 241.5467204635432 460.1423173825592 257.1943532936015 484.719659399798 271.84375 500 L 277.03125 500 C 271.254109994057 481.1596494114692 262.6804939011992 457.5961926750023 249.875 442 z M 776.5625 443.375 C 776.55683973789 443.3876343257107 776.5368961716927 443.3936129909288 776.53125 443.40625 L 776.53125 443.46875 C 768.9381810518549 460.5285688998618 774.1452486199667 480.0268909935879 776.5625 497.5625 L 778.96875 497.5625 L 776.59375 443.8125 L 786.125 495.3125 L 790.96875 495.3125 C 790.2712512639782 480.0667311588502 788.4101157531018 454.3848850291758 776.5625 443.4375 L 776.5625 443.375 z M 826.6875 443.46875 C 819.4324894975797 458.1767320396341 812.3287797185734 480.2947118456004 815.28125 496.25 C 825.8370065250331 484.1701818731074 830.5420936617151 458.4928609602761 826.6875 443.46875 z M 309.3125 444.1875 L 321.53125 500 L 326.1875 500 C 330.8763427786669 481.0762893962084 331.6523483430543 456.2276082920092 309.3125 444.1875 z M 372.84375 450.375 C 354.0050108009967 452.8620136500924 340.1787309005147 485.212160083172 337.0625 500 L 340.125 500 C 355.7469717404555 490.4680932984115 371.6290866562316 463.7472166371678 372.84375 450.375 z M 725.5 455.84375 C 704.8614130628697 502.6222415957627 764.9989847706729 470.718774841849 725.5 455.84375 z M 629.15625 455.96875 C 629.1971010085047 467.124164129606 629.9031657226452 488.4960296326093 637.5625 500 L 646.5 500 C 646.1961618563532 483.0160214862615 641.6034841824218 470.8051447360882 629.15625 455.96875 z M 957.84375 457.21875 C 946.4932432079709 465.9336339238975 922.8519326485573 486.1730753720236 912.625 500 L 925.84375 500 C 941.0488007261897 487.422511073629 956.7672297795723 469.7381297130987 957.84375 457.21875 z M 527.375 457.3125 C 528.5076531794684 469.6014708419272 545.8511550885313 487.270246472265 561.75 499.0625 L 563.90625 500 L 574.625 500 C 565.9230548393507 487.199149668683 539.564958441332 466.0443551814341 527.375 457.3125 z M 177.875 457.46875 C 165.7346279651187 468.4087809494006 180.2547248381825 485.1323373120089 199.375 500 L 211.8125 500 L 177.875 457.46875 z M 291.5 458.90625 L 291.53125 459.03125 C 284.5007791025699 471.9480003057198 288.493597760411 486.5384203618565 291.03125 500 L 293.84375 500 L 291.625 459.4375 L 300.875 500 L 305.875 500 C 305.1254760617187 487.5002092155942 303.0556311511716 467.6647865776851 291.59375 459 L 291.59375 458.90625 C 291.5822621516344 458.9271251438258 291.5739298351946 458.9478658640919 291.5625 458.96875 C 291.5392432154817 458.9512439720572 291.5233339479267 458.9236634552929 291.5 458.90625 z M 341.71875 459 C 334.8204478761177 470.3849862992933 328.0498256803338 487.2060311885151 329.9375 500 L 332.1875 500 C 341.3906328000553 489.5558402582422 345.3324315578578 470.4666172059534 341.71875 459 z M 394.03125 461.5625 L 420.34375 500 L 427.40625 500 C 421.1073599779656 485.5578885619211 410.9543604110526 471.3312702939394 394.03125 461.5625 z M 394.3125 462.71875 C 395.5263719186011 469.0538435558144 401.1435371698852 488.7729646563733 409.4375 500 L 416.90625 500 L 394.3125 462.71875 z M 1000 464.4375 C 989.3076234845769 474.8432726687934 982.4877544620779 487.484060782825 978 500 L 983.875 500 L 1000 474.75 L 1000 464.4375 z M 746.25 466.46875 C 742.9642404005981 470.4943220429722 740.4817335613177 473.9258930587601 739.1875 478.96875 C 735.7856271148554 492.2119288612687 741.7614278307603 498.6508287765205 748.6875 500 L 754.4375 500 C 762.7263946027821 498.3930531253322 769.0068430835742 489.9331054957215 758.0625 477.71875 C 754.4751396583482 473.7142691460786 750.1918146279221 470.1635900914211 746.25 466.46875 z M 465.96875 466.59375 C 469.6814257306972 478.3273988630979 486.5475336686426 493.3967253417856 500.09375 495.59375 C 497.7036229464555 481.4532139997251 479.5296868565902 472.7851465397355 465.96875 466.59375 z M 875.71875 467.25 L 838.34375 500 L 845.28125 500 C 858.2397785350759 491.8513191914935 872.0360058079976 479.6768359245706 875.71875 467.25 z M 131.59375 470.6875 C 131.5867817247875 470.6994603369209 131.5693907881909 470.7067585875767 131.5625 470.71875 L 131.5625 470.75 C 127.651298299774 477.6209198329723 136.3975045431008 489.576069310769 146 500 L 154.59375 500 L 131.90625 471.0625 L 161.75 500 L 167.15625 500 C 158.593638389392 489.8163499999896 148.770144056779 479.4204606580877 131.65625 470.78125 L 131.59375 470.6875 z M 859.1875 474.4375 C 844.2537001183288 474.9421384734768 829.5317364063928 485.7097473411919 827 499.6875 L 865.5625 474.875 C 863.4563313279051 474.5088277548672 861.3208999830958 474.3654087895033 859.1875 474.4375 z M 147.78125 474.84375 C 152.5222297773257 481.9890594477801 164.5542871808997 491.7301088062427 178.4375 500 L 191.28125 500 C 178.8144922714503 490.9195396672741 161.9513417828254 481.6399795362454 147.78125 474.84375 z M 221.40625 475.15625 C 221.489065934625 482.3764126178043 224.397827407735 491.0113918130105 228.65625 500 L 247.65625 500 C 242.6486214652786 490.9978791715786 234.3297421816316 482.2007688957873 221.40625 475.15625 z M 644.75 478.03125 C 646.8924644832924 485.2889958208377 653.4226769912832 493.7030334259599 661.15625 500 L 675.25 500 C 668.7628224296363 490.026990583484 655.357489005924 483.2222803908318 644.75 478.03125 z M 1000 478.1875 L 987.65625 500 L 994.71875 500 C 996.6111250680498 497.6449158466326 998.3710806403435 494.7850057830822 1000 491.65625 L 1000 478.1875 z M 390.75 478.34375 L 360.34375 500 L 369.1875 500 C 379.0377101435001 493.8457259491155 387.9091980289906 486.1475337705851 390.75 478.34375 z M 951.03125 478.96875 C 947.8158659216621 486.9405088443232 948.1081059578662 493.4599779842123 950 500 L 961.25 500 C 960.2915129881565 492.4628640671091 955.7484276886877 484.7433914023331 951.03125 478.96875 z M 730.21875 483.03125 C 727.490911108688 484.4671545775064 724.3502417351199 485.803800219389 721.78125 488.1875 C 716.8539646468869 492.7603915509707 714.7381743236465 496.7610237467104 714.46875 500 L 738.59375 500 C 738.735658214939 498.8776275536586 738.7293669201339 497.647957278703 738.5625 496.3125 C 738.2837954441485 494.0883140397336 737.368111556137 492.3518070026707 736.3125 490.75 C 734.4742051833592 487.9590985849321 731.9054179857285 485.9557868901271 730.21875 483.03125 z M 616.96875 483.09375 C 604.8597421768429 486.2771064750319 596.7789692538355 490.414817829582 593.4375 500 L 602.46875 500 L 616.96875 483.09375 z M 374.21875 484.1875 C 361.4362778323749 484.5391415146895 348.8085531890836 491.0109159034609 343.84375 500 L 351.09375 500 L 380.59375 484.5625 C 378.487581327905 484.264400890554 376.3521499830959 484.1288108832426 374.21875 484.1875 z M 124.78125 484.65625 C 124.7990983294072 488.6241045454652 124.9543812891898 494.2156674057391 125.75 500 L 137 500 C 134.2581894592481 494.9646273178746 130.2957210804242 490.0072461487655 124.78125 484.65625 z M 868.21875 484.8125 L 880.375 500 L 890.59375 500 C 886.7344397909472 491.786348058939 879.1018268224803 487.8791941438619 868.21875 484.8125 z M 457.53125 486.625 C 454.2153554026188 490.4120535558147 450.9945196138298 495.1075721663618 449.03125 500 L 459.84375 500 C 460.2357005436054 495.8752197434429 459.6533089069414 491.5333630263484 457.53125 486.625 z M 388.03125 487.40625 C 383.1635230949438 490.8291416935035 380.7211686565699 495.1980368861285 379.6875 500 L 390.75 500 C 390.6228267364916 495.9629837919395 389.6149554175608 491.7322034609645 388.03125 487.40625 z M 540.90625 488.59375 C 537.6823867300252 492.2786556922319 535.2816144982794 495.4383083744588 533.96875 500 L 553.59375 500 C 553.3255053084292 499.7004672319341 553.0425484977778 499.3983547522071 552.75 499.09375 C 549.1626396583481 495.3577732333583 544.8480646279221 492.0408476991904 540.90625 488.59375 z M 477.78125 491.71875 C 475.3114816555762 494.9317163276521 473.9020447372092 497.6446547230051 473.59375 500 L 491.0625 500 C 489.3999965011249 496.5789750660031 485.075310571874 493.8331174281248 477.78125 491.71875 z M 622.5 492.4375 C 616.2764126156881 492.7094087387907 609.7953315070617 495.6052548551751 604.3125 500 L 616.09375 500 L 631.40625 494.09375 C 628.6098168266047 492.8251424901292 625.5759326688138 492.3031123999013 622.5 492.4375 z M 861.5625 494.84375 C 858.8870537908433 494.8687578519616 856.2593790267208 495.4039406271055 853.8125 496.59375 L 862.03125 500 L 877 500 C 872.1028294748262 496.7422511577195 866.720422715997 494.7955380167916 861.5625 494.84375 z M 936.5 496.28125 C 934.0076593868092 496.4472166616243 931.935174593491 497.8098200639405 930.75 500 L 945.125 500 C 942.1632793265989 497.2319741715313 939.1081392313044 496.1075722294015 936.5 496.28125 z "
       style="fill:#000000;fill-opacity:1;stroke:none" />
    <path
       sodipodi:nodetypes="ccccccccccccccccccccccccccccccccccccccc"
       inkscape:connector-curvature="0"
       id="path718"
       d="m 934.08596,205.99611 2.07683,-11.30257 -3.45325,-17.85319 -22.59599,2.06146 21.30255,-29.59876 4.9415,-18.52924 c -9.39998,-1.02651 -3.75023,-11.68024 11.99946,-29.15768 l -31.7001,-2.036151 8.56364,-9.885513 -14.83674,6.922913 22.99505,-19.984821 c 9.67429,4.038554 19.77457,9.121053 31.5028,11.19241 6.80286,1.200923 21.49782,-4.785004 22.32044,1.707763 0.70736,5.558764 -11.46299,19.287009 -11.79911,25.723069 -0.55392,10.61166 11.26425,15.49753 -12.33175,40.074 l 8.37043,34.79782 c -13.5993,18.82235 8.29498,22.08658 10.36934,27.45909 2.448,6.33372 -1.5505,26.82146 -0.0914,35.07052 0.78545,4.42685 4.92832,0.93986 5.3655,6.37188 0.46073,5.72643 -4.782,20.36877 -5.95699,29.00428 -1.66912,12.27213 1.10238,15.92462 0.0981,26.90121 -0.78178,8.54168 -5.03806,22.63156 -5.27545,30.34935 -1.42199,46.20442 6.01877,66.84016 5.80928,103.26186 -0.0873,15.90545 3.1547,36.14797 -2.96576,52.09113 l -66.90672,0 c 18.68636,-18.60394 3.65852,-18.97581 0.99821,-25.7872 -3.27938,-8.3953 9.36004,-28.37882 -2.09168,-31.3352 l 6.8518,-38.04033 5.04136,-16.56588 -24.89908,4.83961 2.0322,-8.27128 -3.96149,5.77445 6.47058,-16.7828 -6.71989,11.42878 -0.60154,0.0601 4.31371,-11.18854 -3.4846,3.03738 15.6874,-135.2718 c 2.39623,-17.84388 3.94375,-31.71339 22.5614,-36.53812 z"
       style="fill:#000000;fill-opacity:1;stroke:none" />
  </g>
</svg>
