<?xml version="1.0" encoding="UTF-8" standalone="no"?>
<!-- Created with Inkscape (http://www.inkscape.org/) -->

<svg
   xmlns:dc="http://purl.org/dc/elements/1.1/"
   xmlns:cc="http://creativecommons.org/ns#"
   xmlns:rdf="http://www.w3.org/1999/02/22-rdf-syntax-ns#"
   xmlns:svg="http://www.w3.org/2000/svg"
   xmlns="http://www.w3.org/2000/svg"
   xmlns:sodipodi="http://sodipodi.sourceforge.net/DTD/sodipodi-0.dtd"
   xmlns:inkscape="http://www.inkscape.org/namespaces/inkscape"
   width="23.610712mm"
   height="25.357666mm"
   viewBox="0 0 83.660003 89.849997"
   id="svg5902"
   version="1.1"
   inkscape:version="0.91 r13725"
   sodipodi:docname="bb.svg">
  <defs
     id="defs5904" />
  <sodipodi:namedview
     id="base"
     pagecolor="#ffffff"
     bordercolor="#666666"
     borderopacity="1.0"
     inkscape:pageopacity="0.0"
     inkscape:pageshadow="2"
     inkscape:zoom="3.959798"
     inkscape:cx="-42.755066"
     inkscape:cy="55.738395"
     inkscape:document-units="px"
     inkscape:current-layer="layer1"
     showgrid="false"
     fit-margin-top="0"
     fit-margin-left="0"
     fit-margin-right="0"
     fit-margin-bottom="0"
     inkscape:window-width="3200"
     inkscape:window-height="1717"
     inkscape:window-x="-8"
     inkscape:window-y="0"
     inkscape:window-maximized="1" />
  <metadata
     id="metadata5907">
    <rdf:RDF>
      <cc:Work
         rdf:about="">
        <dc:format>image/svg+xml</dc:format>
        <dc:type
           rdf:resource="http://purl.org/dc/dcmitype/StillImage" />
        <dc:title />
      </cc:Work>
    </rdf:RDF>
  </metadata>
  <g
     inkscape:label="Calque 1"
     inkscape:groupmode="layer"
     id="layer1"
     transform="translate(-306.74143,-424.58006)">
    <path
       style="fill:#ffffff;fill-opacity:1"
       d="m 347.72266,425.30774 c -6.42261,-0.48703 -8.17035,7.5021 -4.26758,11.46289 5.14149,4.15943 -1.29877,2.78731 -3.98633,4.82422 -7.88703,4.7387 -17.19482,12.94884 -13.81836,23.28125 0.96188,5.1803 6.12837,8.76926 7.09961,13.4707 0.14051,3.3465 -4.23963,7.38955 -1.70703,10.20117 4.14756,2.18292 9.10148,1.68831 13.58594,2.70313 -8.80339,4.80607 -18.85748,6.50115 -28.75781,5.26758 -3.24885,0.70975 -8.74295,4.96554 -5.48633,8.12695 1.60194,2.21409 3.51825,7.46565 6.6582,4.61328 10.35951,-3.50387 23.44725,-0.0622 31.31836,-9.36133 8.07312,8.78016 20.95609,6.14883 31.3086,9.22266 3.64813,3.55683 5.50839,-3.19974 7.57232,-5.54676 1.27526,-3.40372 -4.17074,-7.31354 -7.59576,-7.15832 -9.46433,1.44607 -19.02119,-0.70929 -27.43164,-5.13086 4.29931,-1.7097 11.75258,0.4222 14.42773,-4.13867 -0.69858,-4.99225 -5.08255,-10.72348 0.28511,-14.40238 5.70974,-6.4402 6.78413,-16.853 0.28716,-23.13278 -4.34755,-4.60688 -9.74128,-8.55748 -15.94532,-10.1582 4.1785,-3.35241 6.55251,-12.26052 -0.36328,-13.91015 -1.04183,-0.23771 -2.11904,-0.28675 -3.18359,-0.23438 z"
       id="path1731-5"
       inkscape:connector-curvature="0" />
    <path
       inkscape:connector-curvature="0"
       id="path1731"
       style="fill:#000000"
       d="m 342.24143,480.74006 c -4.39,0 -6.58,0.69 -6.58,2.06 0,1.21 1.94,1.94 5.81,2.2 l 7.1,0 c 8.61,0 12.91,-0.73 12.91,-2.2 0,-1.37 -2.19,-2.06 -6.58,-2.06 l -12.66,0 m 0,-8.01 c -3.78,0 -5.89,0.43 -6.32,1.3 -0.17,0.17 -0.26,0.43 -0.26,0.77 0,0.95 0.9,1.51 2.71,1.68 2.24,0.26 5.64,0.39 10.2,0.39 4.56,0 8,-0.13 10.33,-0.39 1.72,-0.17 2.58,-0.73 2.58,-1.68 0,-1.38 -2.19,-2.07 -6.58,-2.07 l -12.66,0 m 24.02,5.56 2.58,9.94 c 0,3.01 -3.06,4.77 -9.17,5.29 4.48,1.72 8.65,2.58 12.53,2.58 0.51,0 3.05,-0.13 7.61,-0.39 3.79,0 6.89,1.98 9.3,5.94 0.34,0.69 0.77,1.47 1.29,2.33 l -4.65,7.1 c -1.38,1.72 -2.84,2.84 -4.39,3.35 -0.34,-1.8 -3.1,-2.92 -8.26,-3.35 l -3.1,-0.26 c -10.59,-0.86 -17.73,-3.14 -21.43,-6.84 -3.36,3.53 -8.48,5.55 -15.36,6.06 -1.55,0.18 -3.57,0.43 -6.07,0.78 -6.28,0.52 -9.94,1.42 -10.97,2.71 -0.18,0.26 -0.31,0.56 -0.39,0.9 -2.24,-0.94 -4.35,-3.09 -6.33,-6.45 -0.77,-1.38 -1.68,-2.71 -2.71,-4 2.33,-4.31 4.82,-6.89 7.49,-7.75 0.95,-0.34 1.98,-0.52 3.1,-0.52 0,0 2.54,0.13 7.61,0.39 3.96,0 8.14,-0.86 12.53,-2.58 -6.11,-0.52 -9.17,-2.28 -9.17,-5.29 0,-0.26 0.69,-2.46 2.07,-6.59 0.43,-1.37 0.64,-2.32 0.64,-2.84 -5.25,-6.37 -7.87,-12 -7.87,-16.91 0,-5.68 2.79,-10.844 8.39,-15.492 4.99,-4.217 8.61,-6.455 10.84,-6.713 -1.89,-2.324 -2.84,-4.734 -2.84,-7.23 0,-4.045 2.03,-6.541 6.07,-7.488 0.95,-0.258 1.94,-0.387 2.97,-0.387 4.3,0 7.1,1.592 8.39,4.777 l 0.65,2.711 0,0.387 c 0,2.41 -0.95,4.82 -2.84,7.23 1.63,0.43 4.08,1.764 7.36,4.002 7.91,5.508 11.87,11.573 11.87,18.203 0,4.99 -2.58,10.46 -7.74,16.4 m -15.37,-12.01 0,-5.94 4.52,0 0,-4.91 -4.52,0 0,-5.546 -4.64,0 0,5.546 -4.52,0 0,4.91 4.52,0 0,5.94 4.64,0 m -2.32,-36.407 c -1.72,0 -2.8,0.775 -3.23,2.324 l -0.13,0.775 c 0,1.635 0.86,2.668 2.59,3.098 0.25,0.086 0.51,0.129 0.77,0.129 2.15,0 3.23,-1.076 3.23,-3.227 0,-2.066 -1.08,-3.099 -3.23,-3.099" />
  </g>
</svg>
