<?xml version="1.0" encoding="UTF-8" standalone="no"?>
<!-- Created with Inkscape (http://www.inkscape.org/) -->

<svg
   xmlns:dc="http://purl.org/dc/elements/1.1/"
   xmlns:cc="http://creativecommons.org/ns#"
   xmlns:rdf="http://www.w3.org/1999/02/22-rdf-syntax-ns#"
   xmlns:svg="http://www.w3.org/2000/svg"
   xmlns="http://www.w3.org/2000/svg"
   xmlns:xlink="http://www.w3.org/1999/xlink"
   xmlns:sodipodi="http://sodipodi.sourceforge.net/DTD/sodipodi-0.dtd"
   xmlns:inkscape="http://www.inkscape.org/namespaces/inkscape"
   width="126.08906"
   height="175.06825"
   id="svg3824"
   version="1.1"
   inkscape:version="0.48.4 r9939"
   sodipodi:docname="fire.svg">
  <defs
     id="defs3826">
    <linearGradient
       y2="372.35999"
       x2="214.28999"
       gradientTransform="translate(194.29,211.43)"
       y1="349.51001"
       gradientUnits="userSpaceOnUse"
       x1="122.86"
       id="linearGradient3358">
      <stop
         offset="0"
         stop-color="#000080"
         id="stop3362" />
      <stop
         offset="1"
         stop-color="#fff"
         id="stop3364" />
    </linearGradient>
    <linearGradient
       y2="431.82999"
       x2="390.81"
       gradientTransform="matrix(1.1462,-0.122,0.122,1.1462,-115.67,-52.252)"
       y1="361.84"
       gradientUnits="userSpaceOnUse"
       x1="314.23001"
       id="linearGradient3331">
      <stop
         offset="0"
         stop-color="#898989"
         id="stop3324" />
      <stop
         offset="1"
         stop-color="#fff"
         id="stop3326" />
    </linearGradient>
    <linearGradient
       y2="869.5"
       x2="418.57001"
       gradientTransform="matrix(0.7943,0,0,0.7155,276.51,398.97)"
       y1="843.78998"
       gradientUnits="userSpaceOnUse"
       xlink:href="#linearGradient3160"
       x1="377.14001"
       id="linearGradient3184" />
    <linearGradient
       id="linearGradient3160">
      <stop
         offset="0"
         id="stop3162" />
      <stop
         offset="1"
         stop-color="#f2f2f2"
         id="stop3164" />
    </linearGradient>
    <linearGradient
       y2="1064.9"
       x2="521.10999"
       gradientTransform="translate(149.38,-48.715)"
       y1="1087"
       gradientUnits="userSpaceOnUse"
       xlink:href="#linearGradient3160"
       x1="573.17999"
       id="linearGradient3229" />
    <linearGradient
       id="linearGradient3714">
      <stop
         offset="0"
         id="stop3716" />
      <stop
         offset="1"
         stop-color="#f2f2f2"
         id="stop3718" />
    </linearGradient>
    <linearGradient
       y2="1075.9"
       x2="573.17999"
       gradientTransform="translate(149.38,-48.715)"
       y1="1075.9"
       gradientUnits="userSpaceOnUse"
       xlink:href="#linearGradient3160"
       x1="521.10999"
       id="linearGradient3246" />
    <linearGradient
       id="linearGradient3721">
      <stop
         offset="0"
         id="stop3723" />
      <stop
         offset="1"
         stop-color="#f2f2f2"
         id="stop3725" />
    </linearGradient>
    <linearGradient
       y2="901.65002"
       y1="901.65002"
       x2="357.35001"
       gradientUnits="userSpaceOnUse"
       x1="304.07999"
       id="linearGradient3226">
      <stop
         offset="0"
         id="stop3218" />
      <stop
         offset="1"
         stop-color="#bebebe"
         id="stop3220" />
    </linearGradient>
    <linearGradient
       y2="869.5"
       x2="418.57001"
       gradientTransform="matrix(0.7943,0,0,0.7155,243.46,399.25)"
       y1="843.78998"
       gradientUnits="userSpaceOnUse"
       xlink:href="#linearGradient3160"
       x1="377.14001"
       id="linearGradient3220" />
    <linearGradient
       id="linearGradient3732">
      <stop
         offset="0"
         id="stop3734" />
      <stop
         offset="1"
         stop-color="#f2f2f2"
         id="stop3736" />
    </linearGradient>
    <linearGradient
       y2="901.65002"
       y1="901.65002"
       x2="357.35001"
       gradientUnits="userSpaceOnUse"
       x1="304.07999"
       id="linearGradient3739">
      <stop
         offset="0"
         id="stop3741" />
      <stop
         offset="1"
         stop-color="#bebebe"
         id="stop3743" />
    </linearGradient>
    <linearGradient
       y2="1061.1"
       x2="294"
       gradientTransform="translate(149.38,-48.715)"
       y1="1079.3"
       gradientUnits="userSpaceOnUse"
       xlink:href="#linearGradient3160"
       x1="318.5"
       id="linearGradient3238" />
    <linearGradient
       id="linearGradient3746">
      <stop
         offset="0"
         id="stop3748" />
      <stop
         offset="1"
         stop-color="#f2f2f2"
         id="stop3750" />
    </linearGradient>
    <linearGradient
       y2="1079.3"
       x2="318.5"
       gradientTransform="translate(149.38,-48.715)"
       y1="1061.1"
       gradientUnits="userSpaceOnUse"
       xlink:href="#linearGradient3160"
       x1="294"
       id="linearGradient3213" />
    <linearGradient
       id="linearGradient3753">
      <stop
         offset="0"
         id="stop3755" />
      <stop
         offset="1"
         stop-color="#f2f2f2"
         id="stop3757" />
    </linearGradient>
    <linearGradient
       y2="793.77002"
       x2="350.51999"
       gradientTransform="translate(160.3,106.24)"
       y1="821.03003"
       gradientUnits="userSpaceOnUse"
       x1="350.51999"
       id="linearGradient3242">
      <stop
         offset="0"
         stop-color="#ff0"
         id="stop3235" />
      <stop
         offset="1"
         stop-opacity="0"
         stop-color="#ff0"
         id="stop3237" />
    </linearGradient>
    <linearGradient
       y2="1240.9"
       x2="459.57001"
       gradientTransform="matrix(1.2255,0,0,1.152,68.62,-466.66)"
       y1="1240.9"
       gradientUnits="userSpaceOnUse"
       xlink:href="#linearGradient4713"
       x1="427.57001"
       id="linearGradient4719" />
    <linearGradient
       id="linearGradient4713">
      <stop
         offset="0"
         stop-color="#f00"
         id="stop4715" />
      <stop
         offset="1"
         stop-opacity="0"
         stop-color="#f00"
         id="stop4717" />
    </linearGradient>
    <linearGradient
       y2="1009.5"
       x2="475.29001"
       gradientTransform="matrix(1.2255,0,0,1.152,49.362,-200.04)"
       y1="1009.5"
       gradientUnits="userSpaceOnUse"
       xlink:href="#linearGradient4721"
       x1="443.29001"
       id="linearGradient4727" />
    <linearGradient
       id="linearGradient4721">
      <stop
         offset="0"
         stop-color="#fff"
         id="stop4723" />
      <stop
         offset="1"
         stop-opacity="0"
         stop-color="#fff"
         id="stop4725" />
    </linearGradient>
    <linearGradient
       y2="1240.9"
       x2="459.57001"
       gradientTransform="matrix(1.2255,0,0,1.152,118.62,-467.37)"
       y1="1240.9"
       gradientUnits="userSpaceOnUse"
       xlink:href="#linearGradient4713"
       x1="427.57001"
       id="linearGradient4731" />
    <linearGradient
       id="linearGradient3771">
      <stop
         offset="0"
         stop-color="#f00"
         id="stop3773" />
      <stop
         offset="1"
         stop-opacity="0"
         stop-color="#f00"
         id="stop3775" />
    </linearGradient>
    <linearGradient
       y2="1009.5"
       x2="475.29001"
       gradientTransform="matrix(1.2255,0,0,1.152,99.361,-200.76)"
       y1="1009.5"
       gradientUnits="userSpaceOnUse"
       xlink:href="#linearGradient4721"
       x1="443.29001"
       id="linearGradient4733" />
    <linearGradient
       id="linearGradient3778">
      <stop
         offset="0"
         stop-color="#fff"
         id="stop3780" />
      <stop
         offset="1"
         stop-opacity="0"
         stop-color="#fff"
         id="stop3782" />
    </linearGradient>
    <linearGradient
       y2="1002.4"
       x2="376.70999"
       gradientTransform="translate(149.38,-48.715)"
       y1="1002.4"
       gradientUnits="userSpaceOnUse"
       x1="334.70999"
       id="linearGradient4751">
      <stop
         offset="0"
         stop-color="#0ff"
         id="stop4747" />
      <stop
         offset="1"
         stop-color="#fff"
         id="stop4749" />
    </linearGradient>
    <linearGradient
       y2="76.293999"
       x2="507.63"
       gradientTransform="translate(-313.09,42.247)"
       y1="347.10001"
       gradientUnits="userSpaceOnUse"
       x1="494.23999"
       id="linearGradient3563">
      <stop
         offset="0"
         id="stop3559" />
      <stop
         offset="1"
         stop-opacity="0"
         id="stop3561" />
    </linearGradient>
    <filter
       color-interpolation-filters="sRGB"
       id="filter4458">
      <feGaussianBlur
         stdDeviation="8.8447956"
         id="feGaussianBlur4460" />
    </filter>
    <linearGradient
       y2="1102.5"
       x2="94.621002"
       gradientTransform="matrix(-1.2948,-1.0517,-0.37798,0.46531,867.81,-33.651)"
       y1="1126.7"
       gradientUnits="userSpaceOnUse"
       xlink:href="#linearGradient14630"
       x1="82.559998"
       id="linearGradient4573" />
    <linearGradient
       id="linearGradient14630">
      <stop
         offset="0"
         stop-color="#fff"
         id="stop14631" />
      <stop
         offset="1"
         stop-opacity="0"
         stop-color="#fff"
         id="stop14632" />
    </linearGradient>
    <linearGradient
       y2="563.04999"
       x2="-928.92999"
       gradientTransform="matrix(-0.51746,-0.4067,0.36243,-0.74685,-331.74,418.2)"
       y1="563.04999"
       gradientUnits="userSpaceOnUse"
       xlink:href="#linearGradient26051"
       x1="-960.97998"
       id="linearGradient4570" />
    <linearGradient
       id="linearGradient26051">
      <stop
         offset="0"
         stop-opacity=".44928"
         stop-color="#fff"
         id="stop26052" />
      <stop
         offset="1"
         stop-opacity="0"
         stop-color="#fff"
         id="stop26053" />
    </linearGradient>
    <filter
       color-interpolation-filters="sRGB"
       height="1.3779"
       x="-0.067992002"
       width="1.136"
       y="-0.18895"
       id="filter6454">
      <feGaussianBlur
         stdDeviation="7.2835937"
         id="feGaussianBlur6456" />
    </filter>
    <linearGradient
       y2="1102.5"
       x2="94.621002"
       gradientTransform="matrix(1.6681,0,0,0.59948,24.837,-275.56)"
       y1="1126.7"
       gradientUnits="userSpaceOnUse"
       xlink:href="#linearGradient14630"
       x1="82.559998"
       id="linearGradient4551" />
    <linearGradient
       id="linearGradient4076">
      <stop
         offset="0"
         stop-color="#fff"
         id="stop4078" />
      <stop
         offset="1"
         stop-opacity="0"
         stop-color="#fff"
         id="stop4080" />
    </linearGradient>
    <linearGradient
       y2="733.95001"
       x2="142.50999"
       gradientTransform="matrix(1.156,0,0,0.86508,22.442,-276.15)"
       y1="789.25"
       gradientUnits="userSpaceOnUse"
       xlink:href="#linearGradient14630"
       x1="96.398003"
       id="linearGradient4548" />
    <linearGradient
       id="linearGradient4083">
      <stop
         offset="0"
         stop-color="#fff"
         id="stop4085" />
      <stop
         offset="1"
         stop-opacity="0"
         stop-color="#fff"
         id="stop4087" />
    </linearGradient>
    <linearGradient
       y2="1102.5"
       x2="94.621002"
       gradientTransform="matrix(1.5531,0.60876,-0.21878,0.55814,242.02,-319.14)"
       y1="1126.7"
       gradientUnits="userSpaceOnUse"
       xlink:href="#linearGradient14630"
       x1="82.559998"
       id="linearGradient4545" />
    <linearGradient
       id="linearGradient4090">
      <stop
         offset="0"
         stop-color="#fff"
         id="stop4092" />
      <stop
         offset="1"
         stop-opacity="0"
         stop-color="#fff"
         id="stop4094" />
    </linearGradient>
    <linearGradient
       y2="1102.5"
       x2="94.621002"
       gradientTransform="matrix(1.1701,-1.1889,0.42727,0.4205,-456.67,35.746)"
       y1="1126.7"
       gradientUnits="userSpaceOnUse"
       xlink:href="#linearGradient14630"
       x1="82.559998"
       id="linearGradient4542" />
    <linearGradient
       id="linearGradient4097">
      <stop
         offset="0"
         stop-color="#fff"
         id="stop4099" />
      <stop
         offset="1"
         stop-opacity="0"
         stop-color="#fff"
         id="stop4101" />
    </linearGradient>
    <linearGradient
       y2="1102.5"
       x2="94.621002"
       gradientTransform="matrix(0.69089,-1.5183,0.54565,0.24829,-495.04,283.93)"
       y1="1126.7"
       gradientUnits="userSpaceOnUse"
       xlink:href="#linearGradient14630"
       x1="82.559998"
       id="linearGradient4539" />
    <linearGradient
       id="linearGradient4104">
      <stop
         offset="0"
         stop-color="#fff"
         id="stop4106" />
      <stop
         offset="1"
         stop-opacity="0"
         stop-color="#fff"
         id="stop4108" />
    </linearGradient>
    <linearGradient
       y2="1102.5"
       x2="94.621002"
       gradientTransform="matrix(-0.70286,-1.5128,0.54367,-0.2526,-290.4,830.24)"
       y1="1126.7"
       gradientUnits="userSpaceOnUse"
       xlink:href="#linearGradient14630"
       x1="82.559998"
       id="linearGradient4536" />
    <linearGradient
       id="linearGradient4111">
      <stop
         offset="0"
         stop-color="#fff"
         id="stop4113" />
      <stop
         offset="1"
         stop-opacity="0"
         stop-color="#fff"
         id="stop4115" />
    </linearGradient>
    <linearGradient
       y2="1102.5"
       x2="94.621002"
       gradientTransform="matrix(0.25641,-1.6483,-0.59236,-0.092149,851,668.48)"
       y1="1126.7"
       gradientUnits="userSpaceOnUse"
       xlink:href="#linearGradient14630"
       x1="82.559998"
       id="linearGradient4533" />
    <linearGradient
       id="linearGradient4118">
      <stop
         offset="0"
         stop-color="#fff"
         id="stop4120" />
      <stop
         offset="1"
         stop-opacity="0"
         stop-color="#fff"
         id="stop4122" />
    </linearGradient>
    <linearGradient
       y2="1102.5"
       x2="94.621002"
       gradientTransform="matrix(-0.74876,-1.4906,-0.5357,0.26909,944.83,255.49)"
       y1="1126.7"
       gradientUnits="userSpaceOnUse"
       xlink:href="#linearGradient14630"
       x1="82.559998"
       id="linearGradient4530" />
    <linearGradient
       id="linearGradient4125">
      <stop
         offset="0"
         stop-color="#fff"
         id="stop4127" />
      <stop
         offset="1"
         stop-opacity="0"
         stop-color="#fff"
         id="stop4129" />
    </linearGradient>
    <linearGradient
       y2="562.82001"
       x2="-929.40997"
       gradientTransform="matrix(0.5769,-0.25828,0.2613,1.0001,490.26,-420.38)"
       y1="562.82001"
       gradientUnits="userSpaceOnUse"
       xlink:href="#linearGradient26051"
       x1="-961.27002"
       id="linearGradient4527" />
    <linearGradient
       id="linearGradient4132">
      <stop
         offset="0"
         stop-opacity=".44928"
         stop-color="#fff"
         id="stop4134" />
      <stop
         offset="1"
         stop-opacity="0"
         stop-color="#fff"
         id="stop4136" />
    </linearGradient>
    <linearGradient
       y2="562.94"
       x2="-929.15997"
       gradientTransform="matrix(0.42511,-0.53051,0.57538,0.68663,219.53,-461.45)"
       y1="562.94"
       gradientUnits="userSpaceOnUse"
       xlink:href="#linearGradient26051"
       x1="-961.12"
       id="linearGradient4524" />
    <linearGradient
       id="linearGradient4139">
      <stop
         offset="0"
         stop-opacity=".44928"
         stop-color="#fff"
         id="stop4141" />
      <stop
         offset="1"
         stop-opacity="0"
         stop-color="#fff"
         id="stop4143" />
    </linearGradient>
    <linearGradient
       y2="562.77002"
       x2="-929.51001"
       gradientTransform="matrix(-0.019583,-0.86239,1.1799,-0.025248,-445.95,-360.55)"
       y1="562.77002"
       gradientUnits="userSpaceOnUse"
       xlink:href="#linearGradient26051"
       x1="-961.33002"
       id="linearGradient4521" />
    <linearGradient
       id="linearGradient4146">
      <stop
         offset="0"
         stop-opacity=".44928"
         stop-color="#fff"
         id="stop4148" />
      <stop
         offset="1"
         stop-opacity="0"
         stop-color="#fff"
         id="stop4150" />
    </linearGradient>
    <linearGradient
       y2="562.98999"
       x2="-929.03998"
       gradientTransform="matrix(-0.5802,-0.42153,0.40645,-0.77422,-466.27,461.47)"
       y1="562.98999"
       gradientUnits="userSpaceOnUse"
       xlink:href="#linearGradient26051"
       x1="-961.04999"
       id="linearGradient4518" />
    <linearGradient
       id="linearGradient4153">
      <stop
         offset="0"
         stop-opacity=".44928"
         stop-color="#fff"
         id="stop4155" />
      <stop
         offset="1"
         stop-opacity="0"
         stop-color="#fff"
         id="stop4157" />
    </linearGradient>
    <linearGradient
       y2="299.89001"
       x2="-953.88"
       gradientTransform="matrix(0.93941,0,0,1.4462,1410.7087,-332.72518)"
       y1="448.67999"
       gradientUnits="userSpaceOnUse"
       xlink:href="#linearGradient17250"
       x1="-1006.6"
       id="linearGradient4515" />
    <linearGradient
       id="linearGradient17250">
      <stop
         offset="0"
         stop-color="#dc0000"
         id="stop17251" />
      <stop
         offset="1"
         stop-color="#ffb200"
         id="stop17252" />
    </linearGradient>
    <linearGradient
       y2="500.79999"
       x2="323.10001"
       gradientTransform="matrix(0.80596,0,0,1.2407,303.20972,-281.20518)"
       y1="256.78"
       gradientUnits="userSpaceOnUse"
       x1="9.6549997"
       id="linearGradient4498">
      <stop
         offset="0"
         stop-color="#fff"
         id="stop29187" />
      <stop
         offset="1"
         stop-opacity="0"
         stop-color="#fff"
         id="stop29188" />
    </linearGradient>
    <linearGradient
       y2="272.82001"
       x2="-1335"
       gradientTransform="matrix(0.70158,0,0,1.9364,1410.7087,-332.72518)"
       y1="330.20001"
       gradientUnits="userSpaceOnUse"
       xlink:href="#linearGradient17250"
       x1="-1308.2"
       id="linearGradient4512" />
    <linearGradient
       id="linearGradient4167">
      <stop
         offset="0"
         stop-color="#dc0000"
         id="stop4169" />
      <stop
         offset="1"
         stop-color="#ffb200"
         id="stop4171" />
    </linearGradient>
    <linearGradient
       y2="713.54999"
       x2="122.42"
       gradientTransform="matrix(1.156,0,0,0.86508,307.95072,-293.39518)"
       y1="743.14001"
       gradientUnits="userSpaceOnUse"
       xlink:href="#linearGradient14630"
       x1="78.646004"
       id="linearGradient4507" />
    <linearGradient
       id="linearGradient4174">
      <stop
         offset="0"
         stop-color="#fff"
         id="stop4176" />
      <stop
         offset="1"
         stop-opacity="0"
         stop-color="#fff"
         id="stop4178" />
    </linearGradient>
    <linearGradient
       y2="232.89999"
       x2="502.45001"
       gradientTransform="matrix(0.60694,0,0,1.6476,285.60132,-267.66518)"
       y1="232.89999"
       gradientUnits="userSpaceOnUse"
       xlink:href="#linearGradient26051"
       x1="468.41"
       id="linearGradient4501" />
    <linearGradient
       id="linearGradient4181">
      <stop
         offset="0"
         stop-opacity=".44928"
         stop-color="#fff"
         id="stop4183" />
      <stop
         offset="1"
         stop-opacity="0"
         stop-color="#fff"
         id="stop4185" />
    </linearGradient>
    <linearGradient
       y2="832.44"
       x2="163.66"
       gradientTransform="matrix(1.3185,0,0,0.75843,23.041,-277.35)"
       y1="927.57001"
       gradientUnits="userSpaceOnUse"
       xlink:href="#linearGradient14630"
       x1="230.94"
       id="linearGradient4493" />
    <linearGradient
       id="linearGradient4188">
      <stop
         offset="0"
         stop-color="#fff"
         id="stop4190" />
      <stop
         offset="1"
         stop-opacity="0"
         stop-color="#fff"
         id="stop4192" />
    </linearGradient>
    <linearGradient
       y2="853.09998"
       x2="153.34"
       gradientTransform="matrix(1.3317,0,0,0.75092,22.742,-276.15)"
       y1="931.46002"
       gradientUnits="userSpaceOnUse"
       x1="124.57"
       id="linearGradient4489">
      <stop
         offset="0"
         stop-color="#fdffff"
         id="stop13378" />
      <stop
         offset="1"
         stop-opacity="0"
         stop-color="#fdffff"
         id="stop13379" />
    </linearGradient>
    <filter
       color-interpolation-filters="sRGB"
       height="1.6823"
       x="-0.12582"
       width="1.2516"
       y="-0.34112999"
       id="filter8363">
      <feGaussianBlur
         stdDeviation="5.4634181"
         id="feGaussianBlur8365" />
    </filter>
    <linearGradient
       y2="1102.5"
       x2="94.621002"
       gradientTransform="matrix(1.1002,-1.2538,0.4506,0.39539,-311.02,864.05)"
       y1="1126.7"
       gradientUnits="userSpaceOnUse"
       xlink:href="#linearGradient14630"
       x1="82.559998"
       id="linearGradient9274" />
    <linearGradient
       id="linearGradient4200">
      <stop
         offset="0"
         stop-color="#fff"
         id="stop4202" />
      <stop
         offset="1"
         stop-opacity="0"
         stop-color="#fff"
         id="stop4204" />
    </linearGradient>
    <linearGradient
       y2="713.54999"
       x2="122.42"
       gradientTransform="matrix(-0.34546,-1.1031,0.82555,-0.25853,-265.09,1483.1)"
       y1="743.14001"
       gradientUnits="userSpaceOnUse"
       xlink:href="#linearGradient14630"
       x1="78.646004"
       id="linearGradient9276" />
    <linearGradient
       id="linearGradient4207">
      <stop
         offset="0"
         stop-color="#fff"
         id="stop4209" />
      <stop
         offset="1"
         stop-opacity="0"
         stop-color="#fff"
         id="stop4211" />
    </linearGradient>
    <linearGradient
       y2="362.16"
       x2="-857.96002"
       gradientTransform="matrix(0.92675,0,0,1.4659,1410.7087,-332.72518)"
       y1="438.47"
       gradientUnits="userSpaceOnUse"
       xlink:href="#linearGradient17250"
       x1="-916.90002"
       id="linearGradient4479" />
    <linearGradient
       id="linearGradient4214">
      <stop
         offset="0"
         stop-color="#dc0000"
         id="stop4216" />
      <stop
         offset="1"
         stop-color="#ffb200"
         id="stop4218" />
    </linearGradient>
    <linearGradient
       y2="485.78"
       x2="317.14001"
       gradientTransform="matrix(0.7951,0,0,1.2577,309.30472,-296.10518)"
       y1="384.39999"
       gradientUnits="userSpaceOnUse"
       xlink:href="#linearGradient14630"
       x1="501.39999"
       id="linearGradient4476" />
    <linearGradient
       id="linearGradient4221">
      <stop
         offset="0"
         stop-color="#fff"
         id="stop4223" />
      <stop
         offset="1"
         stop-opacity="0"
         stop-color="#fff"
         id="stop4225" />
    </linearGradient>
    <linearGradient
       y2="294.87"
       x2="572.40997"
       gradientTransform="matrix(0.60253,0,0,1.6597,285.60132,-269.69518)"
       y1="294.87"
       gradientUnits="userSpaceOnUse"
       xlink:href="#linearGradient26051"
       x1="533.78003"
       id="linearGradient4473" />
    <linearGradient
       id="linearGradient4228">
      <stop
         offset="0"
         stop-opacity=".44928"
         stop-color="#fff"
         id="stop4230" />
      <stop
         offset="1"
         stop-opacity="0"
         stop-color="#fff"
         id="stop4232" />
    </linearGradient>
    <linearGradient
       y2="306.76001"
       x2="-1102.7"
       gradientTransform="matrix(0.79621,0,0,1.7063,1410.7087,-332.72518)"
       y1="404.57999"
       gradientUnits="userSpaceOnUse"
       xlink:href="#linearGradient17250"
       x1="-1131"
       id="linearGradient4470" />
    <linearGradient
       id="linearGradient4235">
      <stop
         offset="0"
         stop-color="#dc0000"
         id="stop4237" />
      <stop
         offset="1"
         stop-color="#ffb200"
         id="stop4239" />
    </linearGradient>
    <linearGradient
       y2="179.97"
       x2="390.32001"
       gradientTransform="matrix(0.54412,0,0,1.8378,285.60132,-267.66518)"
       y1="179.97"
       gradientUnits="userSpaceOnUse"
       xlink:href="#linearGradient26051"
       x1="349.42999"
       id="linearGradient4466" />
    <linearGradient
       id="linearGradient4242">
      <stop
         offset="0"
         stop-opacity=".44928"
         stop-color="#fff"
         id="stop4244" />
      <stop
         offset="1"
         stop-opacity="0"
         stop-color="#fff"
         id="stop4246" />
    </linearGradient>
    <linearGradient
       y2="403.09"
       x2="342.54001"
       gradientTransform="matrix(0.68311,0,0,1.4639,307.95072,-300.84518)"
       y1="246.21001"
       gradientUnits="userSpaceOnUse"
       xlink:href="#linearGradient14630"
       x1="198.88"
       id="linearGradient4463" />
    <linearGradient
       id="linearGradient4249">
      <stop
         offset="0"
         stop-color="#fff"
         id="stop4251" />
      <stop
         offset="1"
         stop-opacity="0"
         stop-color="#fff"
         id="stop4253" />
    </linearGradient>
    <linearGradient
       y2="376.89999"
       x2="239.46001"
       gradientTransform="matrix(0.60192,0,0,1.6614,311.50872,-286.69518)"
       y1="244.05"
       gradientUnits="userSpaceOnUse"
       xlink:href="#linearGradient14630"
       x1="110.45"
       id="linearGradient4504" />
    <linearGradient
       id="linearGradient4256">
      <stop
         offset="0"
         stop-color="#fff"
         id="stop4258" />
      <stop
         offset="1"
         stop-opacity="0"
         stop-color="#fff"
         id="stop4260" />
    </linearGradient>
  </defs>
  <sodipodi:namedview
     id="base"
     pagecolor="#ffffff"
     bordercolor="#666666"
     borderopacity="1.0"
     inkscape:pageopacity="0.0"
     inkscape:pageshadow="2"
     inkscape:zoom="1.979899"
     inkscape:cx="198.54572"
     inkscape:cy="57.738251"
     inkscape:document-units="px"
     inkscape:current-layer="g9278"
     showgrid="false"
     fit-margin-top="0"
     fit-margin-left="0"
     fit-margin-right="0"
     fit-margin-bottom="0"
     inkscape:window-width="1366"
     inkscape:window-height="713"
     inkscape:window-x="-2"
     inkscape:window-y="-3"
     inkscape:window-maximized="1" />
  <metadata
     id="metadata3829">
    <rdf:RDF>
      <cc:Work
         rdf:about="">
        <dc:format>image/svg+xml</dc:format>
        <dc:type
           rdf:resource="http://purl.org/dc/dcmitype/StillImage" />
        <dc:title></dc:title>
      </cc:Work>
    </rdf:RDF>
  </metadata>
  <g
     inkscape:label="Calque 1"
     inkscape:groupmode="layer"
     id="layer1"
     transform="translate(-245.83002,-772.69978)">
    <g
       id="layer1-5"
       transform="matrix(0.38074362,0,0,0.38074362,222.62345,766.6728)">
      <g
         id="g9278">
        <g
           id="g5457"
           transform="translate(-289.18837,9.2858648)">
          <path
             style="fill:url(#linearGradient4515);fill-rule:evenodd;stroke:#ffff00;stroke-width:2.15630007;stroke-opacity:0.50382002"
             inkscape:connector-curvature="0"
             id="path15991"
             d="m 420.51872,247.77482 c 19.34,57.18 49.95,87.5 104.82,90.97 60.35,19.34 116.38,-20.22 100.49,-82.3 -7.22,13.28 -11.84,20.5 -24.25,24.25 4.91,-34.36 -26.57,-40.14 -11.27,-77.1 10.69,-22.81 17.04,-50.82 -1.73,-73.64 -7.79,25.99 -17.32,43.32 -36.38,62.38 2.02,-31.77 18.77,-57.47 8.66,-87.5 1.44,-20.209998 -31.77,-19.639998 -32.05,-81.434998 -21.08,26.568 -30.04,47.07 -26.86,87.494998 -7.8,32.64 -26.86,44.47 -23.39,79.71 -2.89,-19.64 -4.91,-36.68 -0.87,-51.12 -2.31,-17.9 -4.62,-33.21 -22.52,-45.909998 5.49,22.229998 11.84,55.729998 -6.93,64.099998 -5.2,10.69 -31.19,47.36 -2.6,104.83 -8.37,-4.91 -16.75,-6.35 -25.12,-14.73 z" />
          <path
             style="fill:url(#linearGradient4498);fill-rule:evenodd"
             inkscape:connector-curvature="0"
             id="path29198"
             d="m 522.51872,35.841822 c -14.99,19.685 -21.35,44.824 -19.44,69.332998 1.43,11.99 -4.94,23.15 -9.48,33.86 -8.34,15.96 -15.89,33.39 -13.61,51.83 -0.65,10.63 -5.37,-0.08 -4.88,-5.43 -2.26,-15.03 -3.23,-30.63 -0.14,-45.52 -1.56,-14.49 -5.23,-30.2 -17.2,-39.73 3.56,17.2 8.18,36.59 -0.4,53.03 -3.08,5.51 -9.96,7.01 -11.4,13.63 -14.45,25.3 -15.53,56.84 -4.57,83.63 2.28,6.1 5.26,11.92 7.84,17.9 -8.04,-4.6 -16.88,-7.72 -24.65,-12.75 10.77,31.54 31.26,62.58 63.6,74.86 12.71,5.41 26.58,6.42 40.02,8.55 29.45,9.2 66,3.16 85.43,-22.47 11.41,-14.83 14.58,-34.84 10.7,-52.91 -5.15,10.4 -14.06,18.83 -25.57,21.5 2.65,-13.35 -1.38,-26.72 -8.28,-38.14 -7.44,-12.18 -9.2,-27.59 -3.25,-40.76 9.01,-19.76 15.83,-43.68 5.33,-64.25 -3.25,-9.5 -5.54,-3.67 -7.19,3.06 -6.86,21.12 -20.73,39.09 -36.42,54.5 1.09,-21.55 8.61,-41.94 11.8,-63.12 1.83,-10.79 -0.27,-21.62 -2.53,-32.07 -1.54,-11.739998 -13.77,-17.769998 -18.94,-27.820998 -9.2,-13.374 -12.26,-29.996 -12.8,-45.962 -1.32,1.75 -2.64,3.5 -3.97,5.25 z" />
          <path
             style="fill:url(#linearGradient4512);fill-rule:evenodd;stroke:#ffff00;stroke-width:2.15630007;stroke-opacity:0.50382002"
             inkscape:connector-curvature="0"
             id="path15990"
             d="m 519.27872,330.07482 c -45.92,-48.51 -53.72,-82.3 -23.39,-114.35 34.07,-60.64 25.7,-98.76 0.86,-135.149998 23.39,80.569998 -27.72,132.549998 -44.18,155.939998 -9.82,-30.32 -1.44,-43.32 12.13,-80.57 -26.57,28.88 -42.74,63.82 -32.92,97.03 17.9,49.96 60.06,60.93 87.5,77.1 z" />
          <path
             style="fill:#ffd700;fill-rule:evenodd;stroke:#ffff00;stroke-width:2.15630007;stroke-opacity:0.50382002"
             inkscape:connector-curvature="0"
             id="path15994"
             d="m 574.99872,146.77482 c -6.16,-17.9 -1.13,-21.73 4.26,-29.55 5.56,-2.17 3.85,-9.72 6.89,-26.539998 4.59,18.769998 16.93,27.309998 -11.15,56.089998 z" />
          <path
             style="fill:none;stroke:#000000;stroke-width:1.08610001pt;stroke-opacity:0.17938998"
             inkscape:connector-curvature="0"
             id="path20387"
             d="m 453.37872,343.15482 13.06,-5.94" />
          <path
             style="fill:url(#linearGradient4507);fill-rule:evenodd"
             inkscape:connector-curvature="0"
             id="path24159"
             d="m 422.62872,324.43482 26.98,-14.9 22.08,17.69 -5.39,9.14 -13.84,5.94 -29.83,-17.87 z" />
          <path
             style="fill:url(#linearGradient4501);fill-rule:evenodd"
             inkscape:connector-curvature="0"
             id="path28563"
             d="m 581.91872,87.744822 c -1.88,7.98 -1.03,16.769998 -4.5,24.219998 -8.15,6.22 -11.7,17.77 -8.13,27.58 1.11,8.22 3.68,9.64 8.24,2.13 9.73,-10.01 18.84,-24.36 13.3,-38.71 -2.5,-7.319998 -4.69,-14.749998 -7.48,-21.972998 -0.48,2.253 -0.96,4.503 -1.43,6.753 z" />
          <path
             style="fill:#ffd700;fill-rule:evenodd;stroke:#ffff00;stroke-width:2.15630007;stroke-opacity:0.50382002"
             inkscape:connector-curvature="0"
             id="path15993"
             d="m 614.56872,256.44482 c 15.88,-15.31 12.71,-21.95 11.26,-32.92 -4.62,-5.2 1.16,-12.13 6.93,-31.19 -14.72,17.04 -32.05,19.35 -18.19,64.11 z" />
          <path
             style="fill:url(#linearGradient4479);fill-rule:evenodd;stroke:#ffff00;stroke-width:2.15630007;stroke-opacity:0.50382002"
             inkscape:connector-curvature="0"
             id="path15992"
             d="m 540.06872,330.07482 c 17.9,-10.1 22.81,-41.87 25.12,-77.1 4.33,-34.08 13,-68.15 70.17,-73.64 -23.39,18.77 -42.45,41.87 -33.78,84.9 -2.31,62.67 -48.81,60.36 -61.51,65.84 z" />
          <path
             style="fill:url(#linearGradient4476);fill-rule:evenodd"
             inkscape:connector-curvature="0"
             id="path26056"
             d="m 628.76872,174.35482 c -24.38,3.46 -49.51,18.11 -56.66,42.99 -11.49,31.1 -5.14,66.49 -20.8,96.36 -5.95,2.58 -4.5,13.67 2.85,11.5 21.51,-3.9 41.94,-18.85 47.39,-40.78 5.25,-15.24 2.27,-31.35 1.71,-47 0.72,-22.69 13.86,-43.16 31.11,-57.16 3.02,-4.35 -2.02,-5.81 -5.6,-5.91 z" />
          <path
             style="fill:url(#linearGradient4473);fill-rule:evenodd"
             inkscape:connector-curvature="0"
             id="path28562"
             d="m 629.06872,186.24482 c -9.82,10.4 -24.08,20.13 -23.73,36.12 -0.73,11.46 3.35,22.38 5.89,33.38 8.53,-8.14 18.22,-18.74 15.1,-31.58 -0.03,-5.65 -4.29,-10.6 -0.94,-16.11 3.21,-8.73 6.57,-17.41 8.81,-26.47 -1.71,1.55 -3.42,3.1 -5.13,4.66 z" />
          <path
             style="fill:url(#linearGradient4470);fill-rule:evenodd;stroke:#ffff00;stroke-width:2.15630007;stroke-opacity:0.50382002"
             inkscape:connector-curvature="0"
             id="path15989"
             d="m 508.87872,306.68482 c -2.31,-27.72 -5.49,-47.65 29.46,-72.77 59.19,-41.29 30.03,-65.26 -6.93,-108.29 10.97,42.74 -6.65,76.81 -21.66,99.63 -9.82,14.15 -43.9,43.02 -0.87,81.43 z" />
          <path
             style="fill:#ffd700;fill-rule:evenodd;stroke:#ffff00;stroke-width:2.15630007;stroke-opacity:0.50382002"
             inkscape:connector-curvature="0"
             id="path15995"
             d="m 486.29872,103.33482 c 15.99,-18.409998 11.88,-25.986998 9.27,-38.662998 -5.55,-5.843 0.13,-14.122 4.68,-36.476 -14.56,20.374 -33.35,23.763 -13.95,75.138998 z" />
          <path
             style="fill:url(#linearGradient4466);fill-rule:evenodd"
             inkscape:connector-curvature="0"
             id="path28564"
             d="m 496.41872,24.272822 c -9.31,12.174 -23.43,23.408 -22.69,40.281 -0.1,14.03 5.43,27.121 9.56,40.280998 8.44,-9.629998 17.42,-21.869998 13.66,-35.444998 0.03,-5.372 -3.73,-9.542 -3.84,-14.616 2.06,-11.975 6.31,-23.543 7.99,-35.626 -1.56,1.708 -3.12,3.417 -4.68,5.125 z" />
          <path
             style="fill:url(#linearGradient4463);fill-rule:evenodd"
             inkscape:connector-curvature="0"
             id="path26055"
             d="m 530.50872,118.46482 c 6.41,29.13 -0.19,59.83 -14.93,85.42 -9.15,17.6 -27.2,31.08 -28.92,52.01 -2.76,18.25 10.39,33.46 22.57,45.24 4.96,6.24 0.71,-8.51 1.38,-11.96 -1.98,-17.95 1.1,-38.09 15.58,-50.4 16.13,-15.69 39.13,-26.56 46.85,-49.11 5.23,-19.91 -8.7,-37.76 -20.84,-51.9 -7.32,-8.88 -15.04,-17.41 -22.72,-25.99 0.35,2.23 0.69,4.46 1.03,6.69 z" />
          <path
             style="fill:url(#linearGradient4504);fill-rule:evenodd"
             inkscape:connector-curvature="0"
             id="path26054"
             d="m 501.41872,92.614822 c 0.63,13.779998 4.55,27.419998 2.75,41.329998 -1.58,32.46 -15.84,63 -35.54,88.41 -3.65,5.19 -7.54,10.21 -11.31,15.32 -5.03,-16.77 -2.76,-34.86 4.02,-50.77 3.57,-8.51 6.08,-17.34 7.39,-26.48 -18.82,17.17 -32.11,40.57 -36.78,65.63 -3.79,23.17 4.36,46.99 19.73,64.4 19.32,22.8 47.11,35.61 74.05,47.06 -15.26,-21.46 -36.51,-40.83 -41.02,-67.96 -3.1,-15.75 3.1,-31.55 13.45,-43.33 11.84,-16.27 19.21,-35.61 23.59,-55.15 5.69,-25.43 1.13,-52.94 -12.77,-74.989998 -3.43,-2.51 -9.56,-15.687 -7.56,-3.47 z" />
        </g>
      </g>
    </g>
  </g>
</svg>
