<!--Created with Inkscape (http://www.inkscape.org/)--><svg xmlns:dc="http://purl.org/dc/elements/1.1/" xmlns:cc="http://creativecommons.org/ns#" xmlns:rdf="http://www.w3.org/1999/02/22-rdf-syntax-ns#" xmlns="http://www.w3.org/2000/svg" xmlns:xlink="http://www.w3.org/1999/xlink" xmlns:sodipodi="http://sodipodi.sourceforge.net/DTD/sodipodi-0.dtd" xmlns:inkscape="http://www.inkscape.org/namespaces/inkscape" sodipodi:version="0.32" inkscape:version="0.91 r13725" width="147.59149" height="156.21884" sodipodi:docname="water_spot.svg" inkscape:output_extension="org.inkscape.output.svg.inkscape" version="1.0"><defs><linearGradient id="b" inkscape:collect="always"><stop offset="0" style="stop-color:#00a8ff;stop-opacity:1"/><stop offset="1" style="stop-color:#c1ebff;stop-opacity:1"/></linearGradient><linearGradient inkscape:collect="always" id="a"><stop style="stop-color:#fff;stop-opacity:1" offset="0"/><stop style="stop-color:#fff;stop-opacity:0" offset="1"/></linearGradient><linearGradient inkscape:collect="always" xlink:href="#a" id="d" x1="48.636494" y1="118.23406" x2="60.661427" y2="31.860046" gradientUnits="userSpaceOnUse" gradientTransform="translate(0 38)"/><linearGradient inkscape:collect="always" xlink:href="#b" id="c" x1="73.635422" y1="171.7592" x2="77.417946" y2="-0.98882014" gradientUnits="userSpaceOnUse" gradientTransform="translate(0 38)"/><linearGradient inkscape:collect="always" xlink:href="#a" id="f" x1="48.636494" y1="118.23406" x2="60.661427" y2="31.860046" gradientUnits="userSpaceOnUse" gradientTransform="matrix(.65463 -.10862 .10313 .62155 50.359 25.459)"/><linearGradient inkscape:collect="always" xlink:href="#b" id="e" x1="73.635422" y1="171.7592" x2="77.417946" y2="-0.98882014" gradientUnits="userSpaceOnUse" gradientTransform="matrix(.65463 -.10862 .10313 .62155 50.359 25.459)"/><linearGradient inkscape:collect="always" xlink:href="#b" id="g" x1="73.635422" y1="171.7592" x2="77.417946" y2="-0.98882014" gradientUnits="userSpaceOnUse" gradientTransform="matrix(.36748 .16617 -.15183 .34253 31.405 -2.185)"/><linearGradient inkscape:collect="always" xlink:href="#a" id="h" x1="48.636494" y1="118.23406" x2="60.661427" y2="31.860046" gradientUnits="userSpaceOnUse" gradientTransform="matrix(.36748 .16617 -.15183 .34253 31.405 -2.185)"/></defs><sodipodi:namedview pagecolor="#ffffff" bordercolor="#666666" borderopacity="1.0" inkscape:pageopacity="0.0" inkscape:pageshadow="2" inkscape:zoom="0.86831672" inkscape:cx="1.4707583" inkscape:cy="-23.805454" inkscape:window-width="830" inkscape:window-height="719" inkscape:window-x="399" inkscape:window-y="25" showgrid="false" inkscape:current-layer="layer1" inkscape:window-maximized="0"/><metadata><rdf:RDF><cc:Work><dc:format>image/svg+xml</dc:format><dc:type rdf:resource="http://purl.org/dc/dcmitype/StillImage"/><dc:title/><dc:date>2015</dc:date><dc:creator><cc:Agent><dc:title>Timothée Giet</dc:title></cc:Agent></dc:creator><cc:license rdf:resource="http://creativecommons.org/licenses/by-sa/4.0/"/></cc:Work><cc:License rdf:about="http://creativecommons.org/licenses/by-sa/4.0/"><cc:permits rdf:resource="http://creativecommons.org/ns#Reproduction"/><cc:permits rdf:resource="http://creativecommons.org/ns#Distribution"/><cc:requires rdf:resource="http://creativecommons.org/ns#Notice"/><cc:requires rdf:resource="http://creativecommons.org/ns#Attribution"/><cc:permits rdf:resource="http://creativecommons.org/ns#DerivativeWorks"/><cc:requires rdf:resource="http://creativecommons.org/ns#ShareAlike"/></cc:License></rdf:RDF></metadata><g inkscape:groupmode="layer" inkscape:label="Layer 1"><path style="fill:url(#c);fill-opacity:1;fill-rule:evenodd;stroke:#000;stroke-width:0;stroke-linecap:butt;stroke-linejoin:miter;stroke-miterlimit:4;stroke-opacity:1" d="M121.18 117.032c0 21.5-19.936 38.949-44.502 38.949-24.565 0-44.502-17.45-44.502-38.949 0-21.5 27.354-58.804 43.828-70.005 17.823 8.655 45.177 48.506 45.177 70.005z" sodipodi:nodetypes="ccccc" inkscape:export-filename="/home/bcoudoin/Projets/gcompris/gcompris/boards/images/water_spot.png" inkscape:export-xdpi="35.000000" inkscape:export-ydpi="35.000000" inkscape:connector-curvature="0"/><path style="fill:url(#d);fill-opacity:1;fill-rule:evenodd;stroke:#000;stroke-width:0;stroke-linecap:butt;stroke-linejoin:miter;stroke-miterlimit:4;stroke-opacity:1" d="M57.18 113.308c0 14.582 18.084 39.145 3.653 36.09-15.106-4.582-26.016-18.453-26.016-33.035 0-14.581 15.471-40.392 25.601-47.988 10.96 5.87-3.237 30.352-3.237 44.933z" sodipodi:nodetypes="ccccc" inkscape:export-filename="/home/bcoudoin/Projets/gcompris/gcompris/boards/images/water_spot.png" inkscape:export-xdpi="35.000000" inkscape:export-ydpi="35.000000" inkscape:connector-curvature="0"/><path style="fill:url(#e);fill-opacity:1;fill-rule:evenodd;stroke:#000;stroke-width:0;stroke-linecap:butt;stroke-linejoin:miter;stroke-miterlimit:4;stroke-opacity:1" d="M137.838 61.419c2.217 13.363-9.035 26.374-25.116 29.042-16.081 2.668-30.932-6.012-33.15-19.375-2.217-13.363 11.843-39.52 21.472-48.272 12.56 3.444 34.577 25.242 36.794 38.605z" sodipodi:nodetypes="ccccc" inkscape:export-filename="/home/bcoudoin/Projets/gcompris/gcompris/boards/images/water_spot.png" inkscape:export-xdpi="35.000000" inkscape:export-ydpi="35.000000" inkscape:connector-curvature="0"/><path style="fill:url(#f);fill-opacity:1;fill-rule:evenodd;stroke:#000;stroke-width:0;stroke-linecap:butt;stroke-linejoin:miter;stroke-miterlimit:4;stroke-opacity:1" d="M95.557 66.056c1.504 9.063 15.875 22.366 6.113 22.034-10.36-1.207-18.934-8.643-20.438-17.706-1.503-9.063 5.963-26.786 11.81-32.608 7.78 2.458 1.012 19.217 2.515 28.28z" sodipodi:nodetypes="ccccc" inkscape:export-filename="/home/bcoudoin/Projets/gcompris/gcompris/boards/images/water_spot.png" inkscape:export-xdpi="35.000000" inkscape:export-ydpi="35.000000" inkscape:connector-curvature="0"/><path style="fill:url(#g);fill-opacity:1;fill-rule:evenodd;stroke:#000;stroke-width:0;stroke-linecap:butt;stroke-linejoin:miter;stroke-miterlimit:4;stroke-opacity:1" d="M63.937 45.022c-3.265 7.365-13.24 10.029-22.268 5.947-9.027-4.082-13.704-13.372-10.44-20.736 3.265-7.364 18.98-15.597 26.735-16.697 5.236 5.927 9.237 24.122 5.973 31.486z" sodipodi:nodetypes="ccccc" inkscape:export-filename="/home/bcoudoin/Projets/gcompris/gcompris/boards/images/water_spot.png" inkscape:export-xdpi="35.000000" inkscape:export-ydpi="35.000000" inkscape:connector-curvature="0" inkscape:transform-center-x="6.9099217" inkscape:transform-center-y="9.2132299"/><path style="fill:url(#h);fill-opacity:1;fill-rule:evenodd;stroke:#000;stroke-width:0;stroke-linecap:butt;stroke-linejoin:miter;stroke-miterlimit:4;stroke-opacity:1" d="M40.983 33.112c-2.214 4.995.702 16.413-4.137 12.969-4.855-4.08-6.759-10.644-4.545-15.638 2.214-4.995 11.819-11.265 16.694-12.184 3.136 3.832-5.798 9.859-8.012 14.853z" sodipodi:nodetypes="ccccc" inkscape:export-filename="/home/bcoudoin/Projets/gcompris/gcompris/boards/images/water_spot.png" inkscape:export-xdpi="35.000000" inkscape:export-ydpi="35.000000" inkscape:connector-curvature="0" inkscape:transform-center-x="14.043001" inkscape:transform-center-y="8.492222"/></g></svg>