<svg xmlns:dc="http://purl.org/dc/elements/1.1/" xmlns:cc="http://creativecommons.org/ns#" xmlns:rdf="http://www.w3.org/1999/02/22-rdf-syntax-ns#" xmlns="http://www.w3.org/2000/svg" xmlns:sodipodi="http://sodipodi.sourceforge.net/DTD/sodipodi-0.dtd" xmlns:inkscape="http://www.inkscape.org/namespaces/inkscape" font-size="12" sodipodi:docname="roman_numerals.svg" viewBox="0 0 100 100" style="font-size:12px;font-family:Dialog;color-interpolation:auto;fill:#000;stroke:#000;stroke-linecap:square;stroke-miterlimit:10;color-rendering:auto;image-rendering:auto;shape-rendering:auto;text-rendering:auto" stroke-miterlimit="10" inkscape:version="0.91 r13725" width="100" height="100"><g style="fill:#a34810;fill-opacity:1"><path d="m8.506 43.957-3.465.387 2.783 6.394-5.79 6.112 3.21 1.566 4.031-4.34 2.293 5.461 3.547-.371-3.34-7.728 4.825-5.07-3.313-1.554-2.974 3.29-1.807-4.147z" style="color:#000;font-style:normal;font-variant:normal;font-weight:400;font-stretch:normal;font-size:medium;line-height:125%;font-family:Kabel;-inkscape-font-specification:Kabel;text-indent:0;text-align:start;text-decoration:none;text-decoration-line:none;text-decoration-style:solid;text-decoration-color:#000;letter-spacing:0;word-spacing:0;text-transform:none;direction:ltr;block-progression:tb;writing-mode:lr-tb;baseline-shift:baseline;text-anchor:start;white-space:normal;clip-rule:nonzero;display:inline;overflow:visible;visibility:visible;opacity:1;isolation:auto;mix-blend-mode:normal;color-interpolation:sRGB;color-interpolation-filters:linearRGB;solid-color:#000;solid-opacity:1;fill:#a34810;fill-opacity:1;fill-rule:nonzero;stroke:none;stroke-width:1.79999995;stroke-linecap:butt;stroke-linejoin:miter;stroke-miterlimit:10;stroke-dasharray:none;stroke-dashoffset:0;stroke-opacity:1;color-rendering:auto;image-rendering:auto;shape-rendering:auto;text-rendering:geometricPrecision;enable-background:accumulate"/><path inkscape:connector-curvature="0" d="M23.744 46.66c-1.943-.344-3.823.071-5.447 1.201l-.002.002c-1.62 1.132-2.658 2.755-3.002 4.697-.345 1.944.075 3.826 1.21 5.452 1.133 1.62 2.755 2.655 4.698 3 .556.098 1.08.137 1.574.107.45-.013.898-.066 1.342-.162l.5-.107 1.418-4.213-1.867.824c-.401.177-.783.28-1.155.318h-.006l-.007.002a4.097 4.097 0 0 1-1.22-.039c-1.113-.197-1.901-.705-2.538-1.635l-.004-.006-.004-.005c-.654-.925-.86-1.842-.662-2.956.196-1.106.707-1.903 1.644-2.558v-.002h.002c.916-.644 1.83-.846 2.946-.649.32.057.655.156 1.002.295.324.151.535.298.574.336l1.54 1.514-.02-4.373-.362-.27c-.343-.254-.568-.301-.996-.45l-.002-.003h-.002a7.76 7.76 0 0 0-1.154-.32z" style="color:#000;font-style:normal;font-variant:normal;font-weight:400;font-stretch:normal;font-size:medium;line-height:125%;font-family:Kabel;-inkscape-font-specification:Kabel;text-indent:0;text-align:start;text-decoration:none;text-decoration-line:none;text-decoration-style:solid;text-decoration-color:#000;letter-spacing:0;word-spacing:0;text-transform:none;direction:ltr;block-progression:tb;writing-mode:lr-tb;baseline-shift:baseline;text-anchor:start;white-space:normal;clip-rule:nonzero;display:inline;overflow:visible;visibility:visible;opacity:1;isolation:auto;mix-blend-mode:normal;color-interpolation:sRGB;color-interpolation-filters:linearRGB;solid-color:#000;solid-opacity:1;fill:#a34810;fill-opacity:1;fill-rule:nonzero;stroke:none;stroke-width:1.79999995;stroke-linecap:butt;stroke-linejoin:miter;stroke-miterlimit:10;stroke-dasharray:none;stroke-dashoffset:0;stroke-opacity:1;color-rendering:auto;image-rendering:auto;shape-rendering:auto;text-rendering:geometricPrecision;enable-background:accumulate"/><path inkscape:connector-curvature="0" d="m32.252 48.453-1.104.03-2.304.064-2.46 13.877 3.405-.076 2.463-13.895z" style="color:#000;font-style:normal;font-variant:normal;font-weight:400;font-stretch:normal;font-size:medium;line-height:125%;font-family:Kabel;-inkscape-font-specification:Kabel;text-indent:0;text-align:start;text-decoration:none;text-decoration-line:none;text-decoration-style:solid;text-decoration-color:#000;letter-spacing:0;word-spacing:0;text-transform:none;direction:ltr;block-progression:tb;writing-mode:lr-tb;baseline-shift:baseline;text-anchor:start;white-space:normal;clip-rule:nonzero;display:inline;overflow:visible;visibility:visible;opacity:1;isolation:auto;mix-blend-mode:normal;color-interpolation:sRGB;color-interpolation-filters:linearRGB;solid-color:#000;solid-opacity:1;fill:#a34810;fill-opacity:1;fill-rule:nonzero;stroke:none;stroke-width:1.79999995;stroke-linecap:butt;stroke-linejoin:miter;stroke-miterlimit:10;stroke-dasharray:none;stroke-dashoffset:0;stroke-opacity:1;color-rendering:auto;image-rendering:auto;shape-rendering:auto;text-rendering:geometricPrecision;enable-background:accumulate"/><path inkscape:connector-curvature="0" d="m36.426 48.95-3.366.122.33 1.114L37.8 65.037l9.933-13.361-3.097-1.274-5.58 7.635-2.63-9.088z" style="color:#000;font-style:normal;font-variant:normal;font-weight:400;font-stretch:normal;font-size:medium;line-height:125%;font-family:Kabel;-inkscape-font-specification:Kabel;text-indent:0;text-align:start;text-decoration:none;text-decoration-line:none;text-decoration-style:solid;text-decoration-color:#000;letter-spacing:0;word-spacing:0;text-transform:none;direction:ltr;block-progression:tb;writing-mode:lr-tb;baseline-shift:baseline;text-anchor:start;white-space:normal;clip-rule:nonzero;display:inline;overflow:visible;visibility:visible;opacity:1;isolation:auto;mix-blend-mode:normal;color-interpolation:sRGB;color-interpolation-filters:linearRGB;solid-color:#000;solid-opacity:1;fill:#a34810;fill-opacity:1;fill-rule:nonzero;stroke:none;stroke-width:1.79999995;stroke-linecap:butt;stroke-linejoin:miter;stroke-miterlimit:10;stroke-dasharray:none;stroke-dashoffset:0;stroke-opacity:1;color-rendering:auto;image-rendering:auto;shape-rendering:auto;text-rendering:geometricPrecision;enable-background:accumulate"/></g><g style="fill:#e77936;fill-opacity:1;text-rendering:geometricPrecision;stroke:#a34810;stroke-opacity:1;stroke-width:9.22902305;stroke-miterlimit:10;stroke-dasharray:none"><path d="m40.914 148.27 18.214-29.121h11.795l-24.007 37.68 24.58 38.307H59.599l-18.684-29.643-18.788 29.643H10.279l24.633-38.307-24.06-37.68h11.743l18.319 29.121z" style="font-style:normal;font-variant:normal;font-weight:400;font-stretch:normal;font-size:medium;line-height:125%;font-family:sans-serif;-inkscape-font-specification:'sans-serif, Normal';text-align:start;letter-spacing:0;word-spacing:0;writing-mode:lr-tb;text-anchor:start;color-interpolation:auto;fill:#e77936;fill-opacity:1;stroke:#a34810;stroke-width:9.22902305;stroke-linecap:butt;stroke-linejoin:miter;stroke-miterlimit:10;stroke-opacity:1;color-rendering:auto;image-rendering:auto;shape-rendering:auto;text-rendering:geometricPrecision;stroke-dasharray:none" inkscape:connector-curvature="0" transform="matrix(.1866 .05673 -.05673 .1866 75.005 12.198)"/><path d="M101.957 186.943h36.011v8.193H91.885V119.15h10.072v67.794z" style="font-style:normal;font-variant:normal;font-weight:400;font-stretch:normal;font-size:medium;line-height:125%;font-family:sans-serif;-inkscape-font-specification:'sans-serif, Normal';text-align:start;letter-spacing:0;word-spacing:0;writing-mode:lr-tb;text-anchor:start;color-interpolation:auto;fill:#e77936;fill-opacity:1;stroke:#a34810;stroke-width:9.22902305;stroke-linecap:butt;stroke-linejoin:miter;stroke-miterlimit:10;stroke-opacity:1;color-rendering:auto;image-rendering:auto;shape-rendering:auto;text-rendering:geometricPrecision;stroke-dasharray:none" inkscape:connector-curvature="0" transform="matrix(.1866 .05673 -.05673 .1866 75.005 12.198)"/></g><g style="font-style:normal;font-variant:normal;font-weight:400;font-stretch:normal;font-size:15px;line-height:125%;font-family:Kabel;-inkscape-font-specification:Kabel;letter-spacing:0;word-spacing:0;fill:#3b9edc;fill-opacity:1;stroke:#14669a;stroke-width:1.40443057;stroke-linecap:butt;stroke-linejoin:miter;stroke-opacity:1;stroke-miterlimit:10;stroke-dasharray:none"><path style="stroke:#14669a;stroke-opacity:1;stroke-width:1.40443057;stroke-miterlimit:10;stroke-dasharray:none" d="M67.935 91.372q0 1.004.703 1.714.703.703 1.707.703 1.01 0 1.714-.703.703-.71.703-1.714 0-1.003-.703-1.706-.704-.71-1.714-.71-1.004 0-1.707.71-.703.703-.703 1.706zm-1.384 0q0-1.575 1.106-2.68 1.113-1.114 2.688-1.114 1.582 0 2.688 1.091 1.098 1.114 1.098 2.703 0 1.333-.6 2.717-.198.433-.77 1.407-.417.673-1.113 1.516-.688.842-1.333 1.457l-1.391-.395q1.076-1.033 1.575-1.59.717-.805 1.274-1.75-.242.176-.66.286-.168.044-.746.117-1.729 0-2.762-1.084-1.054-1.062-1.054-2.68z" transform="matrix(1.42406 0 0 1.42406 -27.682 -46.207)"/><path style="stroke:#14669a;stroke-opacity:1;stroke-width:1.40443057;stroke-miterlimit:10;stroke-dasharray:none" d="m75.633 95.54 6.32-8.116v6.966h1.56l-.27 1.15h-1.29v2.614l-1.31.264V95.54h-5.01zm2.388-1.15h2.607v-3.347L78.02 94.39z" transform="matrix(1.42406 0 0 1.42406 -27.682 -46.207)"/></g><sodipodi:namedview bordercolor="#666666" inkscape:pageshadow="2" guidetolerance="10" pagecolor="#ffffff" gridtolerance="10" inkscape:window-maximized="1" inkscape:zoom="5.560681" objecttolerance="10" borderopacity="1" inkscape:current-layer="svg2" inkscape:cx="35.333715" inkscape:cy="35.414645" inkscape:window-y="0" inkscape:window-x="0" inkscape:window-width="1280" showgrid="false" inkscape:pageopacity="0" inkscape:window-height="959"/><!--Generated by Tech4Learning SVG Exporter--><path inkscape:connector-curvature="0" d="M47.943 25.731c-1.71.426-3.087 1.303-3.953 2.611-.873 1.317-1.083 2.927-.669 4.589a5.213 5.213 0 0 0 1.52 2.603 5.49 5.49 0 0 0 1.172.82 5.727 5.727 0 0 0-.897 1.568l-.003.004v.004a5.581 5.581 0 0 0-.16 3.283c.425 1.703 1.418 3.056 2.876 3.827l.004.001.003.002c1.463.759 3.187.87 5.024.412 1.822-.454 3.282-1.36 4.216-2.714h.001c.947-1.362 1.199-3.03.772-4.743a5.405 5.405 0 0 0-1.734-2.83 5.828 5.828 0 0 0-1.516-.94 5.54 5.54 0 0 0 .658-1.268 5.131 5.131 0 0 0 .146-3.042c-.414-1.663-1.362-2.985-2.758-3.735-1.378-.747-3-.876-4.702-.452zm.904 3.624c.647-.161 1.108-.09 1.595.208.48.293.775.694.95 1.393.175.705.106 1.196-.166 1.665h-.002c-.26.45-.635.733-1.337.908-.7.175-1.171.101-1.62-.172-.45-.286-.742-.689-.918-1.393-.187-.753-.111-1.25.152-1.688.28-.465.663-.75 1.346-.92zm1.92 7.804c.812-.202 1.394-.118 1.946.214l.002.002.002.002c.565.335.906.794 1.101 1.576.2.8.116 1.342-.19 1.839-.306.483-.796.832-1.668 1.05-.882.22-1.484.14-1.978-.141-.49-.286-.817-.726-1.02-1.538-.2-.807-.12-1.38.197-1.918.325-.538.793-.883 1.607-1.086z" style="color:#000;font-style:normal;font-variant:normal;font-weight:400;font-stretch:normal;font-size:medium;line-height:125%;font-family:sans-serif;-inkscape-font-specification:'sans-serif, Normal';text-indent:0;text-align:start;text-decoration:none;text-decoration-line:none;text-decoration-style:solid;text-decoration-color:#000;letter-spacing:0;word-spacing:0;text-transform:none;direction:ltr;block-progression:tb;writing-mode:lr-tb;baseline-shift:baseline;text-anchor:start;white-space:normal;clip-rule:nonzero;display:inline;overflow:visible;visibility:visible;opacity:1;isolation:auto;mix-blend-mode:normal;color-interpolation:auto;color-interpolation-filters:linearRGB;solid-color:#000;solid-opacity:1;fill:#14669a;fill-opacity:1;fill-rule:nonzero;stroke:none;stroke-width:15.20175076;stroke-linecap:butt;stroke-linejoin:miter;stroke-miterlimit:10;stroke-dasharray:none;stroke-dashoffset:0;stroke-opacity:1;color-rendering:auto;image-rendering:auto;shape-rendering:auto;text-rendering:geometricPrecision;enable-background:accumulate"/><g style="text-rendering:geometricPrecision;fill:#14669a;fill-opacity:1"><path style="color:#000;font-style:normal;font-variant:normal;font-weight:400;font-stretch:normal;font-size:medium;line-height:125%;font-family:sans-serif;-inkscape-font-specification:'sans-serif, Normal';text-indent:0;text-align:start;text-decoration:none;text-decoration-line:none;text-decoration-style:solid;text-decoration-color:#000;letter-spacing:0;word-spacing:0;text-transform:none;direction:ltr;block-progression:tb;writing-mode:lr-tb;baseline-shift:baseline;text-anchor:start;white-space:normal;clip-rule:nonzero;display:inline;overflow:visible;visibility:visible;opacity:1;isolation:auto;mix-blend-mode:normal;color-interpolation:auto;color-interpolation-filters:linearRGB;solid-color:#000;solid-opacity:1;fill:#14669a;fill-opacity:1;fill-rule:nonzero;stroke:none;stroke-width:15.2017498;stroke-linecap:butt;stroke-linejoin:miter;stroke-miterlimit:10;stroke-dasharray:none;stroke-dashoffset:0;stroke-opacity:1;color-rendering:auto;image-rendering:auto;shape-rendering:auto;text-rendering:geometricPrecision;enable-background:accumulate" d="M164.752 109.986c-4.604-.048-9.297.694-13.94 2.229-7.755 2.564-14.412 6.793-19.375 12.62-4.966 5.833-8 13.05-9.01 20.948l-.003.026-.004.027c-.945 7.827.013 15.892 2.676 23.947 2.5 7.561 6.312 14.258 11.412 19.807l.008.01.01.01c5.134 5.549 11.386 9.528 18.36 11.449l.019.004.017.006c7.113 1.921 14.678 1.52 22.031-.91a37.46 37.46 0 0 0 11.375-6.07c-.396 2.425-.993 4.65-1.976 6.474-3.055 5.585-8.827 10.246-18.776 13.733l-9.974 3.298 8.56 25.891 9.914-3.277.053-.02c17.877-6.203 30.89-16.701 36.912-31.275l.004-.01.004-.008c6.084-14.828 4.64-33.2-2.554-54.96l-1.311-3.966c-4.87-14.734-12.347-26.151-22.834-33.197-6.525-4.438-13.938-6.705-21.598-6.785zm-2.772 27.358c2.469-.256 4.718.555 7.915 2.963 4.2 3.163 7.745 8.267 10.345 16.134l1.178 3.56c-.428 2.837-1.388 5.478-3.344 8.18l-.013.02-.014.018c-2.06 2.882-4.298 4.523-7.377 5.54-3.934 1.301-6.272.964-9.664-1.386-3.521-2.523-6.327-6.384-8.354-12.514-2.092-6.327-2.037-11.006-.62-14.851l.005-.02.008-.02c1.41-3.89 3.232-5.672 7.352-7.034.914-.303 1.761-.505 2.584-.59z" inkscape:connector-curvature="0" transform="translate(-11.196 61.945) scale(.13996)"/><path style="color:#000;font-style:normal;font-variant:normal;font-weight:400;font-stretch:normal;font-size:medium;line-height:125%;font-family:sans-serif;-inkscape-font-specification:'sans-serif, Normal';text-indent:0;text-align:start;text-decoration:none;text-decoration-line:none;text-decoration-style:solid;text-decoration-color:#000;letter-spacing:0;word-spacing:0;text-transform:none;direction:ltr;block-progression:tb;writing-mode:lr-tb;baseline-shift:baseline;text-anchor:start;white-space:normal;clip-rule:nonzero;display:inline;overflow:visible;visibility:visible;opacity:1;isolation:auto;mix-blend-mode:normal;color-interpolation:auto;color-interpolation-filters:linearRGB;solid-color:#000;solid-opacity:1;fill:#14669a;fill-opacity:1;fill-rule:nonzero;stroke:none;stroke-width:15.2017498;stroke-linecap:butt;stroke-linejoin:miter;stroke-miterlimit:10;stroke-dasharray:none;stroke-dashoffset:0;stroke-opacity:1;color-rendering:auto;image-rendering:auto;shape-rendering:auto;text-rendering:geometricPrecision;enable-background:accumulate" d="M251.566 81.098c-4.695.092-9.562.97-14.457 2.588-13.187 4.36-22.985 13.008-26.648 24.884-3.636 11.789-1.994 25.805 3.476 42.354l6.012 18.187.018.047c5.46 15.825 12.58 27.649 22.469 34.795l.01.008.01.006c10.013 7.19 22.898 8.274 35.896 3.977 13.166-4.353 22.93-13.09 26.54-25.05 3.585-11.879 1.897-26.015-3.636-42.75l-5.838-17.661-.011-.033c-5.513-16.157-12.539-28.067-22.442-35.059-6.226-4.42-13.576-6.447-21.398-6.293zm14.483 18.007.023.02-.011-.008-.012-.012zm-14.365 9.266c1.63.244 3.002 1.031 4.56 2.352l.012.01.014.011c3.06 2.572 7.241 9.252 10.822 20.082l7.328 22.164c3.322 10.514 3.821 18.159 2.84 22.094l-.006.026-.008.025c-.96 3.965-2.488 5.683-7.334 7.285-4.85 1.603-7.255 1.122-10.682-1.75-3.381-2.92-7.595-9.738-11.178-20.574l-7.166-21.676c-3.272-10.206-3.832-17.71-2.898-21.762.899-3.897 2.444-5.675 7.584-7.375 2.592-.857 4.48-1.156 6.111-.912zm40.337 70.342-.011.049.004-.03c.002-.007.006-.012.008-.02z" inkscape:connector-curvature="0" transform="translate(-11.196 61.945) scale(.13996)"/><path style="color:#000;font-style:normal;font-variant:normal;font-weight:400;font-stretch:normal;font-size:medium;line-height:125%;font-family:sans-serif;-inkscape-font-specification:'sans-serif, Normal';text-indent:0;text-align:start;text-decoration:none;text-decoration-line:none;text-decoration-style:solid;text-decoration-color:#000;letter-spacing:0;word-spacing:0;text-transform:none;direction:ltr;block-progression:tb;writing-mode:lr-tb;baseline-shift:baseline;text-anchor:start;white-space:normal;clip-rule:nonzero;display:inline;overflow:visible;visibility:visible;opacity:1;isolation:auto;mix-blend-mode:normal;color-interpolation:auto;color-interpolation-filters:linearRGB;solid-color:#000;solid-opacity:1;fill:#14669a;fill-opacity:1;fill-rule:nonzero;stroke:none;stroke-width:15.2017498;stroke-linecap:butt;stroke-linejoin:miter;stroke-miterlimit:10;stroke-dasharray:none;stroke-dashoffset:0;stroke-opacity:1;color-rendering:auto;image-rendering:auto;shape-rendering:auto;text-rendering:geometricPrecision;enable-background:accumulate" d="M336.174 53.127c-4.696.093-9.56.972-14.455 2.59-13.188 4.36-22.986 13.006-26.649 24.883-3.635 11.788-1.996 25.804 3.475 42.353l6.012 18.188.017.047c5.461 15.824 12.58 27.65 22.469 34.796l.01.006.01.008c10.013 7.19 22.898 8.274 35.896 3.977 13.166-4.352 22.93-13.092 26.54-25.05 3.585-11.88 1.897-26.016-3.635-42.75l-5.838-17.663-.012-.033c-5.513-16.157-12.537-28.067-22.44-35.06-6.226-4.419-13.578-6.446-21.4-6.292zm14.482 18.008.024.021-.008-.004-.016-.017zM336.291 80.4c1.63.244 3.002 1.034 4.56 2.354l.014.01.012.01c3.06 2.57 7.244 9.25 10.824 20.082l7.336 22.197c3.312 10.495 3.81 18.13 2.83 22.06l-.006.026-.006.025c-.96 3.965-2.487 5.685-7.334 7.287-4.848 1.603-7.252 1.121-10.678-1.748-3.382-2.918-7.6-9.738-11.183-20.578l-7.166-21.674-.002-.008c-3.27-10.202-3.83-17.703-2.897-21.754.9-3.898 2.444-5.677 7.584-7.377 2.593-.857 4.481-1.156 6.112-.912zm40.338 70.342-.012.051c.003-.01.001-.023.004-.033l.008-.018z" inkscape:connector-curvature="0" transform="translate(-11.196 61.945) scale(.13996)"/></g><g style="text-rendering:geometricPrecision"><path style="color:#000;font-style:normal;font-variant:normal;font-weight:400;font-stretch:normal;font-size:medium;line-height:125%;font-family:sans-serif;-inkscape-font-specification:'sans-serif, Normal';text-indent:0;text-align:start;text-decoration:none;text-decoration-line:none;text-decoration-style:solid;text-decoration-color:#000;letter-spacing:0;word-spacing:0;text-transform:none;direction:ltr;block-progression:tb;writing-mode:lr-tb;baseline-shift:baseline;text-anchor:start;white-space:normal;clip-rule:nonzero;display:inline;overflow:visible;visibility:visible;opacity:1;isolation:auto;mix-blend-mode:normal;color-interpolation:auto;color-interpolation-filters:linearRGB;solid-color:#000;solid-opacity:1;fill:#14669a;fill-opacity:1;fill-rule:nonzero;stroke:none;stroke-width:15.2017498;stroke-linecap:butt;stroke-linejoin:miter;stroke-miterlimit:10;stroke-dasharray:none;stroke-dashoffset:0;stroke-opacity:1;color-rendering:auto;image-rendering:auto;shape-rendering:auto;text-rendering:geometricPrecision;enable-background:accumulate" d="M97.72-98.537 33.47.889v20.009H95.28v31.511h32.544V20.898h18.821V-8.38h-18.821v-90.157H97.72zm-2.44 57.704V-8.38H74.535L95.28-40.833z" inkscape:connector-curvature="0" transform="matrix(.1513 0 0 .1513 .613 21.37)"/><path inkscape:connector-curvature="0" style="color:#000;font-style:normal;font-variant:normal;font-weight:400;font-stretch:normal;font-size:medium;line-height:125%;font-family:sans-serif;-inkscape-font-specification:'sans-serif, Normal';text-indent:0;text-align:start;text-decoration:none;text-decoration-line:none;text-decoration-style:solid;text-decoration-color:#000;letter-spacing:0;word-spacing:0;text-transform:none;direction:ltr;block-progression:tb;writing-mode:lr-tb;baseline-shift:baseline;text-anchor:start;white-space:normal;clip-rule:nonzero;display:inline;overflow:visible;visibility:visible;opacity:1;isolation:auto;mix-blend-mode:normal;color-interpolation:auto;color-interpolation-filters:linearRGB;solid-color:#000;solid-opacity:1;fill:#14669a;fill-opacity:1;fill-rule:nonzero;stroke:none;stroke-width:15.2017498;stroke-linecap:butt;stroke-linejoin:miter;stroke-miterlimit:10;stroke-dasharray:none;stroke-dashoffset:0;stroke-opacity:1;color-rendering:auto;image-rendering:auto;shape-rendering:auto;text-rendering:geometricPrecision;enable-background:accumulate" d="M30.895 11.105c-2.481 0-4.578.9-5.846 2.682-1.26 1.77-1.78 4.246-1.78 7.397v3.498c.04 3.024.594 5.43 1.854 7.173l.002.002v.002c1.276 1.755 3.353 2.647 5.797 2.647 2.476 0 4.572-.92 5.836-2.719 1.257-1.789 1.773-4.286 1.773-7.472v-3.397c-.03-3.085-.562-5.5-1.83-7.215H36.7c-1.273-1.731-3.349-2.598-5.804-2.598zm0 4.444c1.055 0 1.538.272 1.966.972v.002l.002.002c.423.686.76 2.12.76 4.221v4.258c-.027 2.034-.375 3.423-.81 4.111l-.002.004-.002.004c-.432.694-.896.951-1.887.951-.996 0-1.485-.272-1.951-1.027-.456-.76-.791-2.22-.791-4.324v-4.164c.017-1.977.346-3.346.777-4.055.418-.689.891-.955 1.937-.955z" transform="matrix(1 0 0 1 -.54 -4.856)"/></g><g style="fill:#a34810;fill-opacity:1;text-rendering:geometricPrecision"><path inkscape:connector-curvature="0" style="color:#000;font-style:normal;font-variant:normal;font-weight:400;font-stretch:normal;font-size:medium;line-height:125%;font-family:sans-serif;-inkscape-font-specification:'sans-serif, Normal';text-indent:0;text-align:start;text-decoration:none;text-decoration-line:none;text-decoration-style:solid;text-decoration-color:#000;letter-spacing:0;word-spacing:0;text-transform:none;direction:ltr;block-progression:tb;writing-mode:lr-tb;baseline-shift:baseline;text-anchor:start;white-space:normal;clip-rule:nonzero;display:inline;overflow:visible;visibility:visible;opacity:1;isolation:auto;mix-blend-mode:normal;color-interpolation:auto;color-interpolation-filters:linearRGB;solid-color:#000;solid-opacity:1;fill:#a34810;fill-opacity:1;fill-rule:nonzero;stroke:none;stroke-width:15.2017498;stroke-linecap:butt;stroke-linejoin:miter;stroke-miterlimit:10;stroke-dasharray:none;stroke-dashoffset:0;stroke-opacity:1;color-rendering:auto;image-rendering:auto;shape-rendering:auto;text-rendering:geometricPrecision;enable-background:accumulate" d="M409.59 297.123c-7.994.026-15.626 1.632-22.635 4.879-9.343 4.277-17.105 11.279-22.918 20.42l-.01.017-.012.016c-5.764 9.173-9.323 20.007-10.841 32.219l-1.457 11.71c-2.306 18.544.48 34.933 8.974 48.079l.008.012.006.01c8.543 13.128 21.947 21.164 38.137 23.177 14.592 1.815 27.793-.59 38.365-7.74h.002l.002-.002c10.615-7.186 17.697-18.516 21.137-32.568l2.031-8.297-8.476-1.055-22.602-2.81-1.787 6.26c-2.528 8.856-5.961 13.696-9.026 15.704-3.27 2.136-8.351 3.258-16.136 2.29-7.948-.989-12.416-4.037-15.951-10.637-3.595-6.711-5.03-15.872-3.518-28.037l1.467-11.793c1.61-12.943 5.436-21.628 10.59-26.883 5.283-5.323 10.845-7.216 19.242-6.172 7.057.878 11.137 3.093 13.765 6.26l.016.017.014.018c2.572 3.062 4.549 8.63 4.717 17.467l.125 6.586 31.017 3.857.2-8.4c.338-14.32-3.482-27.013-11.708-36.729-8.251-9.81-20.29-15.594-34.627-17.377a64.044 64.044 0 0 0-8.11-.498z" transform="rotate(-11.105 176.762 20.906) scale(.11709)"/><path style="color:#000;font-style:normal;font-variant:normal;font-weight:400;font-stretch:normal;font-size:medium;line-height:125%;font-family:sans-serif;-inkscape-font-specification:'sans-serif, Normal';text-indent:0;text-align:start;text-decoration:none;text-decoration-line:none;text-decoration-style:solid;text-decoration-color:#000;letter-spacing:0;word-spacing:0;text-transform:none;direction:ltr;block-progression:tb;writing-mode:lr-tb;baseline-shift:baseline;text-anchor:start;white-space:normal;clip-rule:nonzero;display:inline;overflow:visible;visibility:visible;opacity:1;isolation:auto;mix-blend-mode:normal;color-interpolation:auto;color-interpolation-filters:linearRGB;solid-color:#000;solid-opacity:1;fill:#a34810;fill-opacity:1;fill-rule:nonzero;stroke:none;stroke-width:15.2017498;stroke-linecap:butt;stroke-linejoin:miter;stroke-miterlimit:10;stroke-dasharray:none;stroke-dashoffset:0;stroke-opacity:1;color-rendering:auto;image-rendering:auto;shape-rendering:auto;text-rendering:geometricPrecision;enable-background:accumulate" d="M476.531 306.635 459.51 443.508l31.146 3.87 6.85-55.085.832-8.961 18.004 67.242 22.457 2.793 34.14-61.195-1.439 9.33-6.85 55.08 31.147 3.873 17.02-136.873-33.475-4.162-45.483 82.314-23.94-90.947-5.103-.635-28.285-3.517z" inkscape:connector-curvature="0" sodipodi:nodetypes="ccccccccccccccccc" transform="rotate(-11.105 176.762 20.906) scale(.11709)"/></g><g style="fill:#a34810;fill-opacity:1;text-rendering:geometricPrecision"><path inkscape:connector-curvature="0" style="color:#000;font-style:normal;font-variant:normal;font-weight:400;font-stretch:normal;font-size:165.23641968px;line-height:125%;font-family:Kabel;-inkscape-font-specification:Kabel;text-indent:0;text-align:start;text-decoration:none;text-decoration-line:none;text-decoration-style:solid;text-decoration-color:#000;letter-spacing:0;word-spacing:0;text-transform:none;direction:ltr;block-progression:tb;writing-mode:lr-tb;baseline-shift:baseline;text-anchor:start;white-space:normal;clip-rule:nonzero;display:inline;overflow:visible;visibility:visible;opacity:1;isolation:auto;mix-blend-mode:normal;color-interpolation:sRGB;color-interpolation-filters:linearRGB;solid-color:#000;solid-opacity:1;fill:#a34810;fill-opacity:1;fill-rule:nonzero;stroke:none;stroke-width:15.20175076;stroke-linecap:butt;stroke-linejoin:miter;stroke-miterlimit:10;stroke-dasharray:none;stroke-dashoffset:0;stroke-opacity:1;color-rendering:auto;image-rendering:auto;shape-rendering:auto;text-rendering:auto;enable-background:accumulate" d="m358.441-142.002-30.449 2.693 3.272 9.245L381.4 11.572l88.723-133.185-28.684-10.082-51.935 79.373-31.063-89.68z" transform="matrix(.13823 0 0 .13823 9.282 24.728)"/><path inkscape:connector-curvature="0" style="color:#000;font-style:normal;font-variant:normal;font-weight:400;font-stretch:normal;font-size:165.23641968px;line-height:125%;font-family:Kabel;-inkscape-font-specification:Kabel;text-indent:0;text-align:start;text-decoration:none;text-decoration-line:none;text-decoration-style:solid;text-decoration-color:#000;letter-spacing:0;word-spacing:0;text-transform:none;direction:ltr;block-progression:tb;writing-mode:lr-tb;baseline-shift:baseline;text-anchor:start;white-space:normal;clip-rule:nonzero;display:inline;overflow:visible;visibility:visible;opacity:1;isolation:auto;mix-blend-mode:normal;color-interpolation:sRGB;color-interpolation-filters:linearRGB;solid-color:#000;solid-opacity:1;fill:#a34810;fill-opacity:1;fill-rule:nonzero;stroke:none;stroke-width:15.20175076;stroke-linecap:butt;stroke-linejoin:miter;stroke-miterlimit:10;stroke-dasharray:none;stroke-dashoffset:0;stroke-opacity:1;color-rendering:auto;image-rendering:auto;shape-rendering:auto;text-rendering:auto;enable-background:accumulate" d="m504.129-124.873-9.293.736-21.62 1.711-16.833 135.38 30.89-2.282 16.856-135.545z" transform="matrix(.13823 0 0 .13823 9.282 24.728)"/><path inkscape:connector-curvature="0" style="color:#000;font-style:normal;font-variant:normal;font-weight:400;font-stretch:normal;font-size:165.23641968px;line-height:125%;font-family:Kabel;-inkscape-font-specification:Kabel;text-indent:0;text-align:start;text-decoration:none;text-decoration-line:none;text-decoration-style:solid;text-decoration-color:#000;letter-spacing:0;word-spacing:0;text-transform:none;direction:ltr;block-progression:tb;writing-mode:lr-tb;baseline-shift:baseline;text-anchor:start;white-space:normal;clip-rule:nonzero;display:inline;overflow:visible;visibility:visible;opacity:1;isolation:auto;mix-blend-mode:normal;color-interpolation:sRGB;color-interpolation-filters:linearRGB;solid-color:#000;solid-opacity:1;fill:#a34810;fill-opacity:1;fill-rule:nonzero;stroke:none;stroke-width:15.20175076;stroke-linecap:butt;stroke-linejoin:miter;stroke-miterlimit:10;stroke-dasharray:none;stroke-dashoffset:0;stroke-opacity:1;color-rendering:auto;image-rendering:auto;shape-rendering:auto;text-rendering:auto;enable-background:accumulate" d="m544.945-119.797-9.293.736-21.617 1.711L497.2 18.03l30.893-2.282 16.853-135.545z" transform="matrix(.13823 0 0 .13823 9.282 24.728)"/><path inkscape:connector-curvature="0" style="color:#000;font-style:normal;font-variant:normal;font-weight:400;font-stretch:normal;font-size:165.23641968px;line-height:125%;font-family:Kabel;-inkscape-font-specification:Kabel;text-indent:0;text-align:start;text-decoration:none;text-decoration-line:none;text-decoration-style:solid;text-decoration-color:#000;letter-spacing:0;word-spacing:0;text-transform:none;direction:ltr;block-progression:tb;writing-mode:lr-tb;baseline-shift:baseline;text-anchor:start;white-space:normal;clip-rule:nonzero;display:inline;overflow:visible;visibility:visible;opacity:1;isolation:auto;mix-blend-mode:normal;color-interpolation:sRGB;color-interpolation-filters:linearRGB;solid-color:#000;solid-opacity:1;fill:#a34810;fill-opacity:1;fill-rule:nonzero;stroke:none;stroke-width:15.20175076;stroke-linecap:butt;stroke-linejoin:miter;stroke-miterlimit:10;stroke-dasharray:none;stroke-dashoffset:0;stroke-opacity:1;color-rendering:auto;image-rendering:auto;shape-rendering:auto;text-rendering:auto;enable-background:accumulate" d="m585.764-114.72-9.293.734-21.62 1.713-16.833 135.377 30.89-2.28 16.856-135.545z" transform="matrix(.13823 0 0 .13823 9.282 24.728)"/></g><g style="font-style:normal;font-weight:400;font-size:165.23641968px;line-height:125%;font-family:sans-serif;letter-spacing:0;word-spacing:0;fill:#e77936;fill-opacity:1;stroke:none;stroke-width:1px;stroke-linecap:butt;stroke-linejoin:miter;stroke-opacity:1;text-rendering:geometricPrecision"><path inkscape:connector-curvature="0" style="font-style:normal;font-variant:normal;font-weight:400;font-stretch:normal;font-size:165.23641968px;font-family:Kabel;-inkscape-font-specification:Kabel;fill:#e77936;fill-opacity:1" d="M624.52-164.606 682.37-48.99l57.848-115.617-13.716-2.985-43.971 89.718-44.133-89.718-13.877 2.985z" transform="matrix(.1433 .01782 -.01782 .1433 -36.365 18.858)"/><path inkscape:connector-curvature="0" style="font-style:normal;font-variant:normal;font-weight:400;font-stretch:normal;font-size:165.23641968px;font-family:Kabel;-inkscape-font-specification:Kabel;fill:#e77936;fill-opacity:1" d="M775.557-167.914v115.86l-14.523 2.904V-164.93l14.523-2.985z" transform="matrix(.1433 .01782 -.01782 .1433 -36.365 18.858)"/><path inkscape:connector-curvature="0" style="font-style:normal;font-variant:normal;font-weight:400;font-stretch:normal;font-size:165.23641968px;font-family:Kabel;-inkscape-font-specification:Kabel;fill:#e77936;fill-opacity:1" d="M814.93-167.914v115.86l-14.523 2.904V-164.93l14.523-2.985z" transform="matrix(.1433 .01782 -.01782 .1433 -36.365 18.858)"/><path inkscape:connector-curvature="0" style="font-style:normal;font-variant:normal;font-weight:400;font-stretch:normal;font-size:165.23641968px;font-family:Kabel;-inkscape-font-specification:Kabel;fill:#e77936;fill-opacity:1" d="M854.302-167.914v115.86L839.78-49.15V-164.93l14.522-2.985z" transform="matrix(.1433 .01782 -.01782 .1433 -36.365 18.858)"/></g><path d="M54.5 30.144q.326 1.305-.114 2.497-.43 1.188-1.46 2.056 1.512.246 2.583 1.175 1.084.926 1.439 2.351.564 2.264-.634 3.988-1.187 1.721-3.679 2.342-2.515.627-4.371-.335-1.847-.977-2.408-3.23-.353-1.413.13-2.742.495-1.332 1.714-2.26-1.305-.285-2.23-1.136-.924-.85-1.247-2.144-.55-2.204.542-3.85 1.09-1.646 3.403-2.223 2.3-.573 4.035.368 1.748.938 2.298 3.143zm.22 8.584q-.364-1.462-1.529-2.15-1.152-.693-2.65-.32-1.497.373-2.18 1.51-.671 1.135-.301 2.62.37 1.486 1.457 2.118 1.098.63 2.667.238 1.558-.388 2.232-1.46.671-1.083.304-2.556zm-6.098-10.274q-1.306.326-1.918 1.343-.602 1.003-.256 2.392.332 1.33 1.328 1.96 1.006.614 2.336.282 1.33-.331 1.917-1.343.596-1.026.265-2.356-.332-1.33-1.367-1.962-1.036-.633-2.305-.316z" style="font-style:normal;font-variant:normal;font-weight:400;font-stretch:normal;font-size:medium;line-height:125%;font-family:sans-serif;-inkscape-font-specification:'sans-serif, Normal';text-align:start;letter-spacing:0;word-spacing:0;writing-mode:lr-tb;text-anchor:start;color-interpolation:auto;fill:#3b9edc;fill-opacity:1;stroke:none;stroke-width:1px;stroke-linecap:butt;stroke-linejoin:miter;stroke-miterlimit:10;stroke-opacity:1;color-rendering:auto;image-rendering:auto;shape-rendering:auto;text-rendering:geometricPrecision" inkscape:connector-curvature="0"/><g style="fill:#e77936;fill-opacity:1;text-rendering:geometricPrecision"><path inkscape:connector-curvature="0" style="font-style:normal;font-variant:normal;font-weight:400;font-stretch:normal;font-size:medium;line-height:125%;font-family:sans-serif;-inkscape-font-specification:'sans-serif, Normal';text-align:start;letter-spacing:0;word-spacing:0;writing-mode:lr-tb;text-anchor:start;color-interpolation:auto;fill:#e77936;fill-opacity:1;stroke:none;stroke-width:1px;stroke-linecap:butt;stroke-linejoin:miter;stroke-miterlimit:10;stroke-opacity:1;color-rendering:auto;image-rendering:auto;shape-rendering:auto;text-rendering:geometricPrecision" d="m40.914 148.27 18.214-29.121h11.795l-24.007 37.68 24.58 38.307H59.599l-18.684-29.643-18.788 29.643H10.279l24.633-38.307-24.06-37.68h11.743l18.319 29.121z" transform="matrix(.1866 .05673 -.05673 .1866 75.005 12.198)"/><path inkscape:connector-curvature="0" style="font-style:normal;font-variant:normal;font-weight:400;font-stretch:normal;font-size:medium;line-height:125%;font-family:sans-serif;-inkscape-font-specification:'sans-serif, Normal';text-align:start;letter-spacing:0;word-spacing:0;writing-mode:lr-tb;text-anchor:start;color-interpolation:auto;fill:#e77936;fill-opacity:1;stroke:none;stroke-width:1px;stroke-linecap:butt;stroke-linejoin:miter;stroke-miterlimit:10;stroke-opacity:1;color-rendering:auto;image-rendering:auto;shape-rendering:auto;text-rendering:geometricPrecision" d="M101.957 186.943h36.011v8.193H91.885V119.15h10.072v67.794z" transform="matrix(.1866 .05673 -.05673 .1866 75.005 12.198)"/></g><g style="font-style:normal;font-variant:normal;font-weight:400;font-stretch:normal;font-size:165.23641968px;line-height:125%;font-family:sans-serif;-inkscape-font-specification:'sans-serif, Normal';text-align:start;letter-spacing:0;word-spacing:0;writing-mode:lr-tb;text-anchor:start;color-interpolation:auto;fill:#3b9edc;fill-opacity:1;stroke:none;stroke-width:1px;stroke-linecap:butt;stroke-linejoin:miter;stroke-miterlimit:10;stroke-opacity:1;color-rendering:auto;image-rendering:auto;shape-rendering:auto;text-rendering:geometricPrecision"><path inkscape:connector-curvature="0" d="M18.732 21.32h2.85v2.13h-2.85v4.767H16.11V23.45H6.757v-1.538l9.197-14.231h2.778V21.32zm-9.013 0h6.39V11.25l-.31.563-6.08 9.507z"/><path inkscape:connector-curvature="0" d="M36.843 19.458q0 4.584-1.566 6.813-1.566 2.228-4.894 2.228-3.287 0-4.866-2.172-1.58-2.186-1.637-6.516v-3.484q0-4.528 1.566-6.728t4.908-2.2q3.315 0 4.88 2.13 1.566 2.115 1.609 6.544v3.385zm-2.61-3.568q0-3.315-.93-4.824-.932-1.523-2.949-1.523-2.002 0-2.92 1.509-.916 1.509-.944 4.64v4.175q0 3.329.959 4.923.973 1.58 2.934 1.58 1.932 0 2.863-1.496.945-1.495.987-4.71V15.89z"/></g><g style="font-style:normal;font-variant:normal;font-weight:400;font-stretch:normal;font-size:165.2389679px;line-height:125%;font-family:sans-serif;-inkscape-font-specification:'sans-serif, Normal';text-align:start;letter-spacing:0;word-spacing:0;writing-mode:lr-tb;text-anchor:start;color-interpolation:auto;fill:#e77936;fill-opacity:1;stroke:none;stroke-width:1px;stroke-linecap:butt;stroke-linejoin:miter;stroke-miterlimit:10;stroke-opacity:1;color-rendering:auto;image-rendering:auto;shape-rendering:auto;text-rendering:geometricPrecision"><path inkscape:connector-curvature="0" d="M60.02 69.723q-.106 2.293-1.436 3.633-1.321 1.33-3.665 1.494-2.54.179-4.204-1.534-1.654-1.715-1.868-4.767l-.097-1.378q-.14-1.998.462-3.564.612-1.567 1.865-2.466 1.252-.91 2.974-1.03 2.285-.161 3.753 1.022 1.467 1.173 1.852 3.412l-1.9.133q-.366-1.696-1.247-2.405-.871-.711-2.348-.607-1.812.127-2.751 1.539-.93 1.41-.756 3.882l.097 1.388q.164 2.333 1.236 3.643 1.071 1.31 2.824 1.187 1.575-.111 2.362-.879.796-.778.947-2.57l1.9-.133z"/><path inkscape:connector-curvature="0" d="m64.344 59.585 5.508 11.366 3.864-12.025 2.452-.172 1.007 14.334-1.89.133-.392-5.582-.247-6.038-3.89 11.938-1.447.102-5.51-11.248.609 5.983.392 5.582-1.89.133-1.008-14.335 2.442-.171z"/></g><g style="font-style:normal;font-variant:normal;font-weight:400;font-stretch:normal;font-size:190.92240906px;line-height:125%;font-family:sans-serif;-inkscape-font-specification:'sans-serif, Normal';text-align:start;letter-spacing:0;word-spacing:0;writing-mode:lr-tb;text-anchor:start;color-interpolation:auto;fill:#3b9edc;fill-opacity:1;stroke:none;stroke-width:1px;stroke-linecap:butt;stroke-linejoin:miter;stroke-miterlimit:10;stroke-opacity:1;color-rendering:auto;image-rendering:auto;shape-rendering:auto;text-rendering:geometricPrecision"><path inkscape:connector-curvature="0" d="M15.955 86.307q-.362.906-1.052 1.613-.68.704-1.667 1.03-1.295.428-2.472.11-1.166-.321-2.071-1.299-.908-.988-1.37-2.386-.497-1.501-.329-2.89.178-1.394 1.016-2.378.838-.984 2.236-1.446 2.22-.734 4.045.51 1.832 1.23 2.78 4.098l.184.555q1.444 4.37.383 6.955-1.064 2.575-4.532 3.779l-.37.122-.53-1.604.4-.132q2.341-.82 3.215-2.42.87-1.61.134-4.217zm-2.93.968q.956-.316 1.564-1.167.618-.854.703-1.84l-.251-.76q-.619-1.871-1.818-2.775-1.2-.903-2.444-.492-1.254.415-1.695 1.632-.445 1.208.075 2.78.507 1.532 1.566 2.288 1.066.742 2.3.334z"/><path inkscape:connector-curvature="0" d="M29.958 81.894q1.104 3.34.5 5.342-.604 2.002-3.03 2.804-2.395.791-4.07-.411-1.677-1.213-2.762-4.355l-.84-2.539q-1.09-3.3-.48-5.28.612-1.981 3.048-2.787 2.416-.798 4.07.377 1.65 1.165 2.748 4.382l.816 2.467zm-2.761-1.972q-.799-2.416-1.841-3.291-1.045-.886-2.515-.4-1.46.482-1.765 1.803-.304 1.321.43 3.61l1.005 3.043q.802 2.425 1.885 3.356 1.09.917 2.52.444 1.407-.465 1.726-1.779.328-1.317-.416-3.671l-1.03-3.115z"/><path inkscape:connector-curvature="0" d="M41.8 77.98q1.104 3.34.5 5.342-.604 2-3.03 2.803-2.395.792-4.07-.41-1.678-1.213-2.762-4.356l-.84-2.539q-1.09-3.3-.48-5.28.612-1.981 3.048-2.786 2.416-.799 4.07.376 1.65 1.165 2.748 4.382l.816 2.467zm-2.762-1.973q-.798-2.415-1.84-3.29-1.046-.887-2.516-.4-1.46.482-1.764 1.802-.304 1.321.43 3.61l1.005 3.043q.802 2.426 1.885 3.356 1.09.917 2.52.445 1.407-.466 1.726-1.78.328-1.317-.416-3.671l-1.03-3.115z"/></g><path d="m10.043 49.74-2.097-4.814-1.593.177 2.535 5.821-5.359 5.655 1.51.736 4.526-4.874 2.575 6.132 1.663-.174-3.09-7.151 4.373-4.597-1.578-.74-3.465 3.83z" style="font-style:normal;font-variant:normal;font-weight:400;font-stretch:normal;font-size:medium;line-height:125%;font-family:Kabel;-inkscape-font-specification:Kabel;letter-spacing:0;word-spacing:0;fill:#e77936;fill-opacity:1;stroke:none;stroke-width:1px;stroke-linecap:butt;stroke-linejoin:miter;stroke-opacity:1;text-rendering:geometricPrecision" inkscape:connector-curvature="0"/><path d="M17.686 52.984q.35-1.978 2.014-3.14 1.636-1.151 3.622-.8.589.105 1.196.351.594.27.853.525l-.009-1.763q-.153-.114-.758-.326-.621-.214-1.017-.284-2.6-.46-4.777 1.054-2.17 1.516-2.63 4.116-.461 2.6 1.062 4.779 1.516 2.169 4.116 2.63.757.134 1.371.095.602-.015 1.197-.144l.605-1.793q-.716.316-1.423.39-.727.088-1.485-.046-1.985-.352-3.123-2.012-1.166-1.647-.814-3.632z" style="font-style:normal;font-variant:normal;font-weight:400;font-stretch:normal;font-size:medium;line-height:125%;font-family:Kabel;-inkscape-font-specification:Kabel;letter-spacing:0;word-spacing:0;fill:#e77936;fill-opacity:1;stroke:none;stroke-width:1px;stroke-linecap:butt;stroke-linejoin:miter;stroke-opacity:1;text-rendering:geometricPrecision" inkscape:connector-curvature="0"/><path d="m31.172 49.383-2.141 12.082-1.568.035 2.14-12.074 1.57-.043z" style="font-style:normal;font-variant:normal;font-weight:400;font-stretch:normal;font-size:medium;line-height:125%;font-family:Kabel;-inkscape-font-specification:Kabel;letter-spacing:0;word-spacing:0;fill:#e77936;fill-opacity:1;stroke:none;stroke-width:1px;stroke-linecap:butt;stroke-linejoin:miter;stroke-opacity:1;text-rendering:geometricPrecision" inkscape:connector-curvature="0"/><path d="m34.254 49.93 3.896 13.126 8.17-10.988-1.376-.565-6.243 8.544-2.944-10.172-1.503.055z" style="font-style:normal;font-variant:normal;font-weight:400;font-stretch:normal;font-size:medium;line-height:125%;font-family:Kabel;-inkscape-font-specification:Kabel;letter-spacing:0;word-spacing:0;fill:#e77936;fill-opacity:1;stroke:none;stroke-width:1px;stroke-linecap:butt;stroke-linejoin:miter;stroke-opacity:1;text-rendering:geometricPrecision" inkscape:connector-curvature="0"/><metadata><rdf:RDF><cc:Work><dc:format>image/svg+xml</dc:format><dc:type rdf:resource="http://purl.org/dc/dcmitype/StillImage"/><dc:title/><dc:date>2017</dc:date><dc:creator><cc:Agent><dc:title>Timothée Giet and Ilya Bizyaev</dc:title></cc:Agent></dc:creator><cc:license rdf:resource="http://creativecommons.org/licenses/by-sa/4.0/"/></cc:Work><cc:License rdf:about="http://creativecommons.org/licenses/by-sa/4.0/"><cc:permits rdf:resource="http://creativecommons.org/ns#Reproduction"/><cc:permits rdf:resource="http://creativecommons.org/ns#Distribution"/><cc:requires rdf:resource="http://creativecommons.org/ns#Notice"/><cc:requires rdf:resource="http://creativecommons.org/ns#Attribution"/><cc:permits rdf:resource="http://creativecommons.org/ns#DerivativeWorks"/><cc:requires rdf:resource="http://creativecommons.org/ns#ShareAlike"/></cc:License></rdf:RDF></metadata><g style="font-style:normal;font-variant:normal;font-weight:400;font-stretch:normal;font-size:15px;line-height:125%;font-family:Kabel;-inkscape-font-specification:Kabel;letter-spacing:0;word-spacing:0;fill:#3b9edc;fill-opacity:1;stroke:none;stroke-width:1px;stroke-linecap:butt;stroke-linejoin:miter;stroke-opacity:1"><path d="M67.935 91.372q0 1.004.703 1.714.703.703 1.707.703 1.01 0 1.714-.703.703-.71.703-1.714 0-1.003-.703-1.706-.704-.71-1.714-.71-1.004 0-1.707.71-.703.703-.703 1.706zm-1.384 0q0-1.575 1.106-2.68 1.113-1.114 2.688-1.114 1.582 0 2.688 1.091 1.098 1.114 1.098 2.703 0 1.333-.6 2.717-.198.433-.77 1.407-.417.673-1.113 1.516-.688.842-1.333 1.457l-1.391-.395q1.076-1.033 1.575-1.59.717-.805 1.274-1.75-.242.176-.66.286-.168.044-.746.117-1.729 0-2.762-1.084-1.054-1.062-1.054-2.68z" transform="matrix(1.42406 0 0 1.42406 -27.682 -46.207)"/><path d="m75.633 95.54 6.32-8.116v6.966h1.56l-.27 1.15h-1.29v2.614l-1.31.264V95.54h-5.01zm2.388-1.15h2.607v-3.347L78.02 94.39z" transform="matrix(1.42406 0 0 1.42406 -27.682 -46.207)"/></g></svg>