<?xml version="1.0" encoding="UTF-8" standalone="no"?>
<!-- Created with Sodipodi ("http://www.sodipodi.com/") -->

<svg
   xmlns:dc="http://purl.org/dc/elements/1.1/"
   xmlns:cc="http://creativecommons.org/ns#"
   xmlns:rdf="http://www.w3.org/1999/02/22-rdf-syntax-ns#"
   xmlns:svg="http://www.w3.org/2000/svg"
   xmlns="http://www.w3.org/2000/svg"
   xmlns:xlink="http://www.w3.org/1999/xlink"
   xmlns:sodipodi="http://sodipodi.sourceforge.net/DTD/sodipodi-0.dtd"
   xmlns:inkscape="http://www.inkscape.org/namespaces/inkscape"
   id="svg609"
   sodipodi:version="0.32"
   width="341.99478"
   height="210.37758"
   xml:space="preserve"
   sodipodi:docname="elephant_mer.svg"
   inkscape:version="0.91 r13725"
   inkscape:output_extension="org.inkscape.output.svg.inkscape"
   version="1.0"><metadata
     id="metadata78"><rdf:RDF><cc:Work
         rdf:about=""><dc:format>image/svg+xml</dc:format><dc:type
           rdf:resource="http://purl.org/dc/dcmitype/StillImage" /></cc:Work></rdf:RDF></metadata><defs
     id="defs611"><linearGradient
       id="linearGradient865"><stop
         style="stop-color:#e6eeff;stop-opacity:0.498;"
         offset="0"
         id="stop866" /><stop
         style="stop-color:#d1ffde;stop-opacity:0.702;"
         offset="1"
         id="stop867" /></linearGradient><linearGradient
       id="linearGradient814"><stop
         style="stop-color:#e8d7aa;stop-opacity:1;"
         offset="0"
         id="stop815" /><stop
         style="stop-color:#faffd2;stop-opacity:1;"
         offset="1"
         id="stop816" /></linearGradient><linearGradient
       id="linearGradient811"><stop
         style="stop-color:#d1edf7;stop-opacity:1;"
         offset="0"
         id="stop812" /><stop
         style="stop-color:#ffffff;stop-opacity:1;"
         offset="1"
         id="stop813" /></linearGradient><linearGradient
       id="linearGradient731"><stop
         style="stop-color:#e37a5a;stop-opacity:1;"
         offset="0"
         id="stop732" /><stop
         style="stop-color:#371d32;stop-opacity:1;"
         offset="1"
         id="stop733" /></linearGradient><linearGradient
       id="linearGradient728"><stop
         style="stop-color:#8c7a5a;stop-opacity:1;"
         offset="0"
         id="stop729" /><stop
         style="stop-color:#a79a7a;stop-opacity:1;"
         offset="1"
         id="stop730" /></linearGradient><linearGradient
       id="linearGradient652"><stop
         style="stop-color:#ffffff;stop-opacity:1;"
         offset="0"
         id="stop653" /><stop
         style="stop-color:#000000;stop-opacity:1;"
         offset="1"
         id="stop654" /></linearGradient><linearGradient
       inkscape:collect="always"
       xlink:href="#linearGradient865"
       id="linearGradient2362"
       gradientUnits="userSpaceOnUse"
       gradientTransform="scale(1.7696933,0.5650697)"
       spreadMethod="reflect"
       x1="289.41458"
       y1="1009.0089"
       x2="259.96301"
       y2="1016.4215" /><radialGradient
       inkscape:collect="always"
       xlink:href="#linearGradient811"
       id="radialGradient2364"
       gradientUnits="userSpaceOnUse"
       gradientTransform="scale(1.5789719,0.6333235)"
       cx="215.47537"
       cy="822.61102"
       fx="215.47537"
       fy="822.61102"
       r="135.37086" /><radialGradient
       inkscape:collect="always"
       xlink:href="#linearGradient811"
       id="radialGradient2366"
       gradientUnits="userSpaceOnUse"
       gradientTransform="scale(1.5802723,0.6328023)"
       cx="259.00861"
       cy="917.4989"
       fx="259.00861"
       fy="917.4989"
       r="135.25948" /><radialGradient
       inkscape:collect="always"
       xlink:href="#linearGradient811"
       id="radialGradient2368"
       gradientUnits="userSpaceOnUse"
       gradientTransform="scale(2.3531015,0.424971)"
       cx="109.32731"
       cy="1146.0132"
       fx="109.32731"
       fy="1146.0132"
       r="38.550976" /><radialGradient
       inkscape:collect="always"
       xlink:href="#linearGradient811"
       id="radialGradient2370"
       gradientUnits="userSpaceOnUse"
       gradientTransform="scale(2.5512675,0.391962)"
       cx="126.15958"
       cy="1157.8818"
       fx="126.15958"
       fy="1157.8818"
       r="47.454552" /><radialGradient
       inkscape:collect="always"
       xlink:href="#linearGradient811"
       id="radialGradient2372"
       gradientUnits="userSpaceOnUse"
       gradientTransform="scale(1.261335,0.7928108)"
       cx="300.42313"
       cy="684.20215"
       fx="300.42313"
       fy="684.20215"
       r="37.802559" /><radialGradient
       inkscape:collect="always"
       xlink:href="#linearGradient731"
       id="radialGradient2404"
       gradientUnits="userSpaceOnUse"
       gradientTransform="scale(1.3608892,0.7348137)"
       cx="441.87225"
       cy="499.28876"
       fx="441.87225"
       fy="499.28876"
       r="25.833607" /><linearGradient
       inkscape:collect="always"
       xlink:href="#linearGradient814"
       id="linearGradient2406"
       gradientUnits="userSpaceOnUse"
       gradientTransform="scale(0.9922395,1.0078212)"
       x1="195.7458"
       y1="299.53891"
       x2="197.06682"
       y2="299.53879" /><linearGradient
       inkscape:collect="always"
       xlink:href="#linearGradient814"
       id="linearGradient2408"
       gradientUnits="userSpaceOnUse"
       gradientTransform="scale(0.9922418,1.0078188)"
       x1="206.73682"
       y1="300.51489"
       x2="208.05783"
       y2="300.51477" /><radialGradient
       inkscape:collect="always"
       xlink:href="#linearGradient652"
       id="radialGradient2410"
       gradientUnits="userSpaceOnUse"
       gradientTransform="scale(1.0377495,0.9636237)"
       cx="555.92285"
       cy="315.77765"
       fx="555.92285"
       fy="315.77765"
       r="8.866003" /><linearGradient
       inkscape:collect="always"
       xlink:href="#linearGradient728"
       id="linearGradient3491"
       gradientUnits="userSpaceOnUse"
       gradientTransform="matrix(-0.3421306,0,0,0.5338644,317.96583,-110.85605)"
       x1="445.4563"
       y1="415.83636"
       x2="513.013"
       y2="375.46069" /><linearGradient
       inkscape:collect="always"
       xlink:href="#linearGradient728"
       id="linearGradient3494"
       gradientUnits="userSpaceOnUse"
       gradientTransform="matrix(-0.3338744,0,0,0.5470662,317.96583,-110.85605)"
       x1="145.16628"
       y1="316.01337"
       x2="182.07686"
       y2="293.95355" /><linearGradient
       inkscape:collect="always"
       xlink:href="#linearGradient728"
       id="linearGradient3497"
       gradientUnits="userSpaceOnUse"
       gradientTransform="matrix(-0.4761265,0,0,0.3836194,317.96583,-110.85605)"
       x1="60.912201"
       y1="484.22644"
       x2="100.2624"
       y2="460.70856" /><linearGradient
       inkscape:collect="always"
       xlink:href="#linearGradient728"
       id="linearGradient3500"
       gradientUnits="userSpaceOnUse"
       gradientTransform="matrix(-0.1138263,-0.07724893,-0.6356514,1.1732595,381.69341,-88.561474)"
       x1="250.96735"
       y1="149.94254"
       x2="266.88181"
       y2="140.43118" /><linearGradient
       inkscape:collect="always"
       xlink:href="#linearGradient728"
       id="linearGradient3503"
       gradientUnits="userSpaceOnUse"
       gradientTransform="matrix(-0.09218426,-0.09613414,-0.8829603,1.06058,411.60916,-51.75916)"
       x1="263.58371"
       y1="142.36064"
       x2="278.98901"
       y2="133.15358" /><linearGradient
       inkscape:collect="always"
       xlink:href="#linearGradient728"
       id="linearGradient3506"
       gradientUnits="userSpaceOnUse"
       gradientTransform="matrix(-0.4092457,0,0,0.4463122,317.96583,-110.85605)"
       x1="581.00067"
       y1="362.39807"
       x2="600.07782"
       y2="350.99649" /><linearGradient
       inkscape:collect="always"
       xlink:href="#linearGradient728"
       id="linearGradient3509"
       gradientUnits="userSpaceOnUse"
       gradientTransform="matrix(-0.3940222,0,0,0.463556,317.96583,-110.85605)"
       x1="606.28613"
       y1="379.98938"
       x2="631.04633"
       y2="365.19128" /><linearGradient
       inkscape:collect="always"
       xlink:href="#linearGradient728"
       id="linearGradient3512"
       gradientUnits="userSpaceOnUse"
       gradientTransform="matrix(-0.4100591,0,0,0.4454269,317.96583,-110.85605)"
       x1="514.35358"
       y1="379.5419"
       x2="584.48041"
       y2="337.63019" /><linearGradient
       inkscape:collect="always"
       xlink:href="#linearGradient728"
       id="linearGradient3515"
       gradientUnits="userSpaceOnUse"
       gradientTransform="matrix(-0.4420327,0,0,0.4132078,317.96583,-110.85605)"
       x1="433.47263"
       y1="520.69623"
       x2="514.58533"
       y2="472.21869" /><linearGradient
       inkscape:collect="always"
       xlink:href="#linearGradient728"
       id="linearGradient3518"
       gradientUnits="userSpaceOnUse"
       gradientTransform="matrix(-0.4660971,0,0,0.3918741,317.96583,-110.85605)"
       x1="381.54404"
       y1="569.53687"
       x2="475.6228"
       y2="513.31012" /><linearGradient
       inkscape:collect="always"
       xlink:href="#linearGradient728"
       id="linearGradient3521"
       gradientUnits="userSpaceOnUse"
       gradientTransform="matrix(-0.4380169,0,0,0.4169961,317.96583,-110.85605)"
       x1="447.36298"
       y1="486.64923"
       x2="524.48737"
       y2="440.55539" /><linearGradient
       inkscape:collect="always"
       xlink:href="#linearGradient728"
       id="linearGradient3524"
       gradientUnits="userSpaceOnUse"
       gradientTransform="matrix(-0.4432469,0,0,0.4120759,317.96583,-110.85605)"
       x1="467.73123"
       y1="445.72177"
       x2="533.96826"
       y2="406.13477" /><linearGradient
       inkscape:collect="always"
       xlink:href="#linearGradient728"
       id="linearGradient3527"
       gradientUnits="userSpaceOnUse"
       gradientTransform="matrix(-0.4239728,0,0,0.4308092,317.96583,-110.85605)"
       x1="483.37405"
       y1="452.84113"
       x2="553.76691"
       y2="410.77042" /><linearGradient
       inkscape:collect="always"
       xlink:href="#linearGradient728"
       id="linearGradient3530"
       gradientUnits="userSpaceOnUse"
       gradientTransform="matrix(-0.5277611,0,0,0.3460871,317.96583,-110.85605)"
       x1="226.21547"
       y1="775.99817"
       x2="297.3269"
       y2="733.49799" /><linearGradient
       inkscape:collect="always"
       xlink:href="#linearGradient728"
       id="linearGradient3533"
       gradientUnits="userSpaceOnUse"
       gradientTransform="matrix(-0.5830367,0,0,0.3132759,317.96583,-110.85605)"
       x1="84.524689"
       y1="791.27991"
       x2="280.60184"
       y2="674.0932" /><linearGradient
       inkscape:collect="always"
       xlink:href="#linearGradient728"
       id="linearGradient4649"
       gradientUnits="userSpaceOnUse"
       gradientTransform="matrix(-0.6284482,0,0,0.2906387,317.8713,-114.75106)"
       x1="401.13232"
       y1="507.52625"
       x2="414.27173"
       y2="499.6734" /><linearGradient
       inkscape:collect="always"
       xlink:href="#linearGradient728"
       id="linearGradient4652"
       gradientUnits="userSpaceOnUse"
       gradientTransform="matrix(-0.5989131,0,0,0.3049714,317.8713,-114.75106)"
       x1="423.70087"
       y1="542.13959"
       x2="444.56418"
       y2="529.67047" /><linearGradient
       inkscape:collect="always"
       xlink:href="#linearGradient728"
       id="linearGradient4655"
       gradientUnits="userSpaceOnUse"
       gradientTransform="matrix(-0.5630309,0,0,0.3244074,317.8713,-114.75106)"
       x1="450.57037"
       y1="492.65982"
       x2="470.73666"
       y2="480.6073" /><linearGradient
       inkscape:collect="always"
       xlink:href="#linearGradient728"
       id="linearGradient4658"
       gradientUnits="userSpaceOnUse"
       gradientTransform="matrix(-0.5849456,0,0,0.3122536,317.8713,-114.75106)"
       x1="433.83749"
       y1="520.02026"
       x2="454.15494"
       y2="507.87738" /><linearGradient
       inkscape:collect="always"
       xlink:href="#linearGradient728"
       id="linearGradient4661"
       gradientUnits="userSpaceOnUse"
       gradientTransform="matrix(-0.3771482,0,0,0.4842959,317.8713,-114.75106)"
       x1="645.52417"
       y1="342.4176"
       x2="693.5155"
       y2="313.73529" /></defs><sodipodi:namedview
     id="base"
     inkscape:zoom="0.36014218"
     inkscape:cx="115.04071"
     inkscape:cy="58.482982"
     inkscape:window-width="910"
     inkscape:window-height="627"
     inkscape:window-x="6"
     inkscape:window-y="50"
     inkscape:current-layer="svg609"
     showgrid="false"
     fit-margin-top="0"
     fit-margin-left="0"
     fit-margin-right="0"
     fit-margin-bottom="0"
     inkscape:window-maximized="0" /><g
     id="g868"
     transform="matrix(0.7999998,0,0,0.7999998,-95.281832,-180.93881)"><path
       id="path864"
       d="m 133.2453,533.6385 c 5.5681,34.522 3.3747,28.8354 2.261,49.9939 8.3522,6.6817 8.3587,9.7118 27.7892,11.1023 l 63.3029,4.5299 72.7521,19.885 70.3898,4.53 57.397,9.2546 c 21.4051,3.4513 43.2459,1.2613 60.3377,-12.1228 12.7171,-10.6976 16.0188,-14.1161 28.7902,-21.2051 13.3091,-8.6185 21.9494,-36.5789 32.3335,-49.5531 1.9919,-2.4889 3.7393,-10.95 4.4278,-22.3305 l -5.3327,-27.3737 c 8.3192,12.2125 -0.032,8.6775 -4.9887,15.0533 l -55.7787,71.749 c -10.0825,12.9692 -37.1728,15.6215 -44.13,14.4011 L 151.1727,550.402 c -10.1569,-1.7815 -13.043,-7.3735 -17.9274,-16.7635 z"
       style="font-size:12px;fill:url(#linearGradient2362);fill-rule:evenodd"
       transform="matrix(-1,0,0,1,673.0787,-145.2411)"
       inkscape:connector-curvature="0" /><g
       style="font-size:12px;fill:url(#radialGradient2364)"
       transform="matrix(-1,0,0,1,673.0787,-145.2411)"
       id="g664"><path
         sodipodi:nodetypes="cssssssssssssssss"
         id="path617"
         d="m 623.051,558.1809 c 0,15.568 -7.0191,19.9901 -10.3755,32.0402 -3.3565,12.05 -17.2242,18.7352 -26.1969,27.018 -8.9726,8.2828 -15.7042,24.2113 -29.8988,34.2407 -23.9356,16.0777 -12.2147,15.9108 -55.7354,13.5484 -26.9426,-1.5032 -69.3756,-10.3159 -100.6566,-7.864 -32.5148,1.3207 -84.5245,-23.6695 -95.4165,-28.1135 -29.042,-8.6998 -54.9636,0.983 -76.3594,-0.811 -21.3322,-0.6076 -32.8545,-7.2443 -32.8545,-22.8123 0,-15.568 16.6899,-39.2577 22.7593,-50.1266 6.0694,-10.8689 20.417,-27.8155 29.9064,-34.6218 9.4894,-6.8064 4.6714,-16.4651 14.9313,-19.8454 10.2601,-3.3802 20.2271,-5.6568 28.6241,-5.797 26.9684,-0.4504 49.0001,3.7456 84.5628,5.0219 35.5625,1.2762 79.9474,20.1629 113.8722,24.4593 33.9248,4.2963 64.4766,3.4517 86.5471,12.5119 22.0706,9.0603 46.2904,5.5832 46.2904,21.1512 z"
         style="font-size:12px;fill:url(#radialGradient2366);fill-rule:evenodd"
         transform="translate(-69.07462,-59.47551)"
         inkscape:connector-curvature="0" /><path
         sodipodi:nodetypes="csccc"
         id="path622"
         d="m 259.8558,470.6394 c 0.2953,4.8109 101.675,22.8503 86.5853,30.6898 -11.7556,4.8107 -109.2553,-5.2947 -125.5638,-7.657 -32.6169,0 -33.0725,15.1098 -54.3334,7.6774 7.087,-10.9758 42.5219,-10.9759 93.3119,-30.7102 z"
         style="font-size:12px;fill:url(#radialGradient2368);fill-opacity:0.38670002;fill-rule:evenodd"
         inkscape:connector-curvature="0" /><path
         sodipodi:nodetypes="ccccc"
         id="path624"
         d="m 442.9361,470.6393 c -29.5291,3.8003 -43.3636,2.9529 -112.2105,-15.9457 -53.4917,0 -129.928,-1.515 -129.928,-13.5834 0,-12.0681 50.4507,-1.7717 103.9424,-1.7717 46.4046,7.087 100.3989,23.9573 138.1961,31.3008 z"
         style="font-size:12px;fill:url(#radialGradient2370);fill-rule:evenodd"
         inkscape:connector-curvature="0" /><path
         sodipodi:nodetypes="ccccc"
         id="path803"
         d="m 414.393,546.905 c -4.7811,2.0921 -16.5739,52.7595 -74.3538,5.2466 8.942,-10.741 -12.8739,-35.4109 -8.0929,-37.5029 41.2815,-6.7084 77.6712,3.4554 90.3585,12.0335 11.5062,26.2957 -3.1308,18.1308 -7.9118,20.2228 z"
         style="font-size:12px;fill:url(#radialGradient2372);fill-rule:evenodd"
         inkscape:connector-curvature="0" /></g></g><path
     sodipodi:nodetypes="cscssssssssscsssscccsss"
     id="path614"
     d="m 84.768758,157.24214 c 23.514952,7.24644 53.732232,1.58251 62.266832,-1.15525 8.53459,-2.73777 19.01276,-7.34113 32.62255,-13.0524 19.82911,-10.63483 55.72318,-14.15017 64.84306,-34.66314 1.13994,-2.5641 6.59801,-4.11981 10.65636,-5.66819 3.10766,-1.03484 23.88767,-7.59689 25.41476,-13.77196 0.37471,-1.60327 35.97654,-7.44494 33.00488,-9.88031 -0.74291,-0.60889 -3.44912,-7.73719 -7.30497,-7.88712 -3.85585,-0.14998 -7.24749,2.09867 -12.0059,3.83536 -4.7584,1.7367 -9.30002,-3.82126 -12.92645,-1.88454 -2.17487,0.96458 -6.10181,3.42288 -7.08994,2.58119 -1.32395,-0.86389 4.58335,-5.6208 8.83723,-10.6063 4.76921,-5.36738 11.0869,-12.47317 11.79551,-14.52206 6.52071,-7.74085 -6.80262,-4.32059 -13.87155,-7.16104 C 275.2966,41.03942 278.01276,25.2319 274.25022,24.94294 260.84647,23.90004 246.61807,67.0309 245.95442,69.41961 243.21074,78.46452 215.29665,58.99105 202.89188,52.0993 189.92971,45.72104 169.96542,43.05666 145.71261,46.92245 126.35655,39.56302 123.97608,31.82221 118.21797,22.57855 93.049458,82.68569 73.461958,62.74819 58.512788,60.51831 c -2.40616,11.70309 -2.95391,8.97301 0.25342,21.37605 3.81446,12.82646 2.45936,27.01566 0.95504,36.7644 -5.26074,30.8668 8.26676,33.41213 25.04751,38.58338 z"
     style="font-size:12px;fill:url(#linearGradient3533);fill-opacity:1;fill-rule:evenodd"
     inkscape:connector-curvature="0" /><path
     sodipodi:nodetypes="ccccc"
     id="path619"
     d="m 143.40954,145.16703 c 12.66941,6.23254 24.13942,22.05737 46.10262,22.05737 31.41947,-5.01331 36.88167,-8.96569 -14.80608,-26.74442 -5.59547,-21.98779 -10.47449,-28.62978 -32.43765,-28.62978 -26.94026,0 -5.89744,27.87209 1.14111,33.31683 z"
     style="font-size:12px;fill:url(#linearGradient3530);fill-opacity:1;fill-rule:evenodd"
     inkscape:connector-curvature="0" /><path
     sodipodi:nodetypes="ccssccs"
     id="path632"
     d="m 88.233908,78.66128 c -13.59299,10.88889 -28.18924,0.69629 -30.48419,-2.92445 -0.53551,10.17226 0.99988,13.98818 3.61131,15.63345 4.18216,2.60927 10.95392,4.87989 16.91891,4.55901 26.248172,-1.39303 45.221432,-57.91619 46.179452,-63.62755 1.19642,-1.47423 -1.09602,-3.18339 -2.45904,-4.57533 -2.77539,12.72297 -13.08058,34.2248 -33.766442,50.93487 z"
     style="font-size:12px;fill:url(#linearGradient3527);fill-rule:evenodd"
     inkscape:connector-curvature="0" /><path
     sodipodi:nodetypes="ccssccs"
     id="path631"
     d="m 87.530058,65.26925 c -10.38267,6.37251 -30.52676,8.0483 -29.62937,-1.42712 -3.45949,14.55891 -0.80492,12.24285 -0.1315,12.75896 7.69308,5.75671 14.19382,7.04479 20.15881,6.72396 26.248212,-1.39303 43.307182,-50.06243 44.265212,-55.77375 0.32544,-2.58824 -2.40652,-3.11792 -4.43372,-5.59385 -7.24126,32.95525 -22.202872,38.53771 -30.229432,43.3118 z"
     style="font-size:12px;fill:url(#linearGradient3524);fill-rule:evenodd"
     inkscape:connector-curvature="0" /><path
     sodipodi:nodetypes="cccsccs"
     id="path633"
     d="m 89.993538,90.47777 c -13.59298,10.88889 -27.01778,1.9496 -29.56166,0.27851 -2.58852,9.19741 -0.0173,7.63551 1.33567,8.04388 6.32852,4.98749 5.46361,4.11392 18.27203,5.60339 26.147262,2.92685 54.218452,-54.36716 55.176522,-60.07847 0.69872,-4.67706 -1.65355,-3.26265 -10.73089,-12.17444 -4.21355,12.21811 -13.8058,41.61706 -34.491672,58.32713 z"
     style="font-size:12px;fill:url(#linearGradient3521);fill-rule:evenodd"
     inkscape:connector-curvature="0" /><path
     sodipodi:nodetypes="ccscsss"
     id="path634"
     d="m 106.32807,106.58736 c -23.447012,18.76651 -45.158372,0.36587 -44.964822,-5.7615 -9.53202,17.69852 8.27051,33.18037 33.63846,21.95496 24.598462,-10.3447 61.456492,-71.56282 62.414522,-77.27409 -2.30072,-2.4758 -7.89239,0.64379 -11.67716,-0.22932 -4.25645,-1.12121 -4.79778,-2.51826 -5.41708,-0.91644 -5.0112,11.83494 -13.30838,45.51587 -33.99392,62.22639 z"
     style="font-size:12px;fill:url(#linearGradient3518);fill-rule:evenodd"
     inkscape:connector-curvature="0" /><path
     sodipodi:nodetypes="ccssccs"
     id="path646"
     d="m 90.722398,101.49972 c -15.52342,6.93976 -28.51097,-1.53188 -30.80591,-5.15261 -0.53551,10.17225 1.21108,13.38575 3.43533,15.63344 3.68446,4.28036 6.61316,8.75807 29.36145,1.21679 33.074962,-10.79964 46.629162,-62.63697 47.587232,-68.34838 1.19638,-1.47423 -3.55955,-1.60783 -4.92257,-2.99977 -4.76623,13.83703 -21.97887,49.06783 -44.655532,59.65053 z"
     style="font-size:12px;fill:url(#linearGradient3515);fill-rule:evenodd"
     inkscape:connector-curvature="0" /><path
     sodipodi:nodetypes="ccccc"
     id="path657"
     d="m 53.685728,37.13831 c 0,19.84291 0.0131,33.14352 20.90353,33.14352 20.89032,0 39.318452,-24.99832 43.797772,-47.06935 C 113.49537,16.18139 103.57824,0 82.687878,0 61.797438,0 53.685728,17.29545 53.685728,37.13831 z"
     style="font-size:12px;fill:url(#linearGradient3512);fill-rule:evenodd"
     inkscape:connector-curvature="0" /><path
     sodipodi:nodetypes="csssccc"
     id="path675"
     d="m 64.793808,50.45159 c -0.85421,2.28047 -4.95783,14.44605 -3.52069,16.34483 3.17578,3.905 7.02518,2.75644 10.56902,2.82842 7.19946,0.33969 6.2798,-10.55083 7.54348,-12.69729 1.75944,-2.60086 4.35571,-4.35952 3.28558,-12.38956 -0.11748,-4.33362 -3.03257,14.84275 -11.33346,18.38613 -12.5075,5.95556 -3.74046,-11.13417 -6.54393,-12.47253 z"
     style="font-size:12px;fill:url(#linearGradient3509);fill-rule:evenodd"
     inkscape:connector-curvature="0" /><path
     sodipodi:nodetypes="ccccc"
     id="path664"
     d="m 65.984568,46.69557 c 0,2.93675 3.09866,7.48373 8.0064,7.48373 4.9077,0 8.3583,-3.56228 9.23812,-7.08988 0.52787,-1.75505 -3.80246,-18.1186 -15.92469,-9.65012 -1.74045,3.93885 -1.84771,5.33482 -1.31983,9.25627 z"
     style="font-size:12px;fill:url(#linearGradient3506);fill-rule:evenodd"
     inkscape:connector-curvature="0" /><path
     sodipodi:nodetypes="ccccc"
     id="path687"
     d="m 272.3471,55.89711 c -9.93133,11.92914 -19.15796,21.0094 -18.15244,22.05801 1.00553,1.04861 9.39893,-7.11924 19.33027,-19.04837 9.93133,-11.9292 14.65359,-14.1898 13.64806,-15.23842 -1.0055,-1.04859 -4.89452,0.29961 -14.82589,12.22878 z"
     style="font-size:12px;fill:url(#linearGradient3503);fill-rule:evenodd"
     inkscape:connector-curvature="0" /><path
     sodipodi:nodetypes="ccccc"
     id="path688"
     d="m 264.36851,48.94712 c -7.55357,13.94209 -14.50895,23.49961 -13.33378,24.29721 1.67294,1.35457 8.27633,-7.86084 15.82992,-21.80291 7.55359,-13.94213 11.20617,-17.30473 10.03099,-18.10227 -1.1752,-0.79756 -4.97354,1.66584 -12.52713,15.60797 z"
     style="font-size:12px;fill:url(#linearGradient3500);fill-rule:evenodd"
     inkscape:connector-curvature="0" /><path
     sodipodi:nodetypes="ccccc"
     id="path689"
     d="m 281.30593,60.0272 c -9.93133,11.92911 -15.09519,14.54403 -27.11109,20.71313 7.69219,-0.92077 20.82112,-4.98663 30.75242,-16.91579 9.93133,-11.9292 12.19008,-15.76533 11.18455,-16.81392 -1.00551,-1.04859 -4.89453,1.08738 -14.82588,13.01658 z"
     style="font-size:12px;fill:url(#linearGradient3497);fill-rule:evenodd"
     inkscape:connector-curvature="0" /><path
     sodipodi:nodetypes="ccccc"
     id="path690"
     d="m 262.33702,40.61866 c -8.61649,13.1473 -14.30414,30.08899 -15.41233,29.17921 -1.75855,-1.21113 4.5423,-18.53873 13.15879,-31.68611 8.61652,-13.14735 12.99489,-14.39008 14.10308,-13.48034 1.10818,0.90978 -3.23302,2.83985 -11.84954,15.98724 z"
     style="font-size:12px;fill:url(#linearGradient3494);fill-rule:evenodd"
     inkscape:connector-curvature="0" /><path
     sodipodi:nodetypes="cscscs"
     id="path691"
     d="m 170.76469,60.36237 c 1.29397,-2.06029 7.39647,-13.79466 1.12535,-15.67844 -5.04461,-1.40966 -11.74665,-0.67883 -14.80171,1.10271 -5.36044,5.934 -12.67709,13.21643 -16.74715,19.80181 -8.99161,13.97923 -27.57071,39.54575 -11.09152,59.50318 -6.61305,-36.71172 21.66527,-33.51829 41.51503,-64.72926 z"
     style="font-size:12px;fill:url(#linearGradient3491);fill-rule:evenodd"
     inkscape:connector-curvature="0" /><g
     id="g801"
     transform="matrix(0.7999998,0,0,0.7999998,-95.281832,-180.93881)"><g
       id="g786"><path
         style="font-size:12px;fill:url(#radialGradient2404);fill-rule:evenodd"
         d="m 614.6075,361.2701 c -2.1063,14.3337 22.6234,18.9897 25.5779,19.8608 -5.6344,16.0712 -47.1536,1.1463 -49.328,-19.7219 11.4091,5.7418 18.2306,4.0198 23.7501,-0.1389 z"
         id="path701"
         sodipodi:nodetypes="cccc"
         transform="matrix(-0.50497,0,0,0.565168,516.5597,87.60347)"
         inkscape:connector-curvature="0" /><path
         style="font-size:12px;fill:url(#linearGradient2406);fill-rule:evenodd;stroke-width:1"
         d="m 197.5039,302.4364 c 0,1.68 -4.2354,1.68 -4.2354,0 0,-1.68 0.9481,-3.0419 2.1177,-3.0419 1.1697,0 2.1177,1.3619 2.1177,3.0419 z"
         id="path785"
         sodipodi:nodetypes="cccc"
         inkscape:connector-curvature="0" /><path
         style="font-size:12px;fill:url(#linearGradient2408);fill-rule:evenodd;stroke-width:1"
         d="m 208.4101,303.4193 c 0,1.68 -4.2354,1.68 -4.2354,0 0,-1.68 0.9481,-3.0419 2.1177,-3.0419 1.1697,0 2.1177,1.3619 2.1177,3.0419 z"
         id="path783"
         sodipodi:nodetypes="cccc"
         inkscape:connector-curvature="0" /></g><g
       id="g702"
       transform="matrix(-0.50497,0,0,0.565168,512.8269,94.91457)"
       style="font-size:12px"><path
         sodipodi:type="arc"
         style="font-size:12px;fill:#f1f1f4;fill-rule:evenodd;stroke-width:1"
         id="path649"
         d="m 580.27701,295.90765 a 10.472076,13.552139 0 0 1 -10.47208,13.55214 10.472076,13.552139 0 0 1 -10.47207,-13.55214 10.472076,13.552139 0 0 1 10.47207,-13.55214 10.472076,13.552139 0 0 1 10.47208,13.55214 z"
         sodipodi:cx="569.80493"
         sodipodi:cy="295.90765"
         sodipodi:rx="10.472076"
         sodipodi:ry="13.552139"
         transform="translate(-2.464017,0.615936)" /><path
         sodipodi:type="arc"
         style="font-size:12px;fill:url(#radialGradient2410);fill-rule:evenodd;stroke-width:1"
         id="path650"
         d="m 580.27698,303.91571 a 8.6240845,8.0080719 0 0 1 -8.62409,8.00807 8.6240845,8.0080719 0 0 1 -8.62408,-8.00807 8.6240845,8.0080719 0 0 1 8.62408,-8.00807 8.6240845,8.0080719 0 0 1 8.62409,8.00807 z"
         sodipodi:cx="571.65289"
         sodipodi:cy="303.91571"
         sodipodi:rx="8.6240845"
         sodipodi:ry="8.0080719"
         transform="translate(-4.131612,-1.922867)" /></g><path
       style="font-size:12px;fill:none;stroke:#000000;stroke-width:0.625;stroke-linecap:round;stroke-dasharray:none"
       d="m 211.1274,275.4472 c 8.9041,-2.9786 16.9882,-1.3773 25.1811,1.2011 m -23.7276,0.2632 c 9.1648,-1.7233 17.0099,0.9847 24.855,4.6773 m -23.9377,-3.1475 c 9.2747,-0.6556 16.8283,2.9439 24.291,7.5229 m -23.3551,-6.1136 c 9.2378,1.1336 16.1281,6.1293 22.779,12.0725"
       id="path800"
       inkscape:connector-curvature="0" /></g><path
     sodipodi:nodetypes="csccsc"
     id="path616"
     d="m 51.235768,24.10471 c -13.21712,13.22909 -11.05407,25.79056 -8.46119,30.64779 3.39861,5.43425 6.51346,3.20636 13.40606,5.27469 10.30135,0 16.17087,2.02181 11.69155,-22.21458 3.48393,-8.56894 18.87626,-2.86323 11.86978,-24.40223 -1.63061,-5.01254 -28.5062,-13.54192 -28.5062,10.69433 z"
     style="font-size:12px;fill:url(#linearGradient4661);fill-opacity:1;fill-rule:evenodd"
     inkscape:connector-curvature="0" /><path
     sodipodi:nodetypes="ccscs"
     id="path679"
     d="m 47.589648,49.18578 c 7.73949,3.19144 21.79094,-2.99946 21.17605,-5.36688 0.25628,1.39257 -9.42039,7.61417 -21.0553,3.29032 -4.90875,-1.84394 -4.77391,-9.07502 -4.53245,-11.30313 -1.12709,1.1141 -3.19856,10.19033 4.4117,13.37969 z"
     style="font-size:12px;fill:url(#linearGradient4658);fill-rule:evenodd"
     inkscape:connector-curvature="0" /><path
     sodipodi:nodetypes="ccscs"
     id="path680"
     d="m 48.585088,46.53984 c 7.73949,3.19144 20.67108,-1.60688 20.05623,-3.9743 0.25628,1.39257 -8.30058,6.22159 -19.93549,1.89774 -4.90875,-1.84394 -4.64948,-9.35353 -4.40798,-11.58164 -1.12709,1.1141 -3.32302,10.46885 4.28724,13.6582 z"
     style="font-size:12px;fill:url(#linearGradient4655);fill-rule:evenodd"
     inkscape:connector-curvature="0" /><path
     sodipodi:nodetypes="ccscs"
     id="path681"
     d="m 46.594248,52.11018 c 11.09896,3.74847 23.03519,-4.8098 22.4203,-7.17727 0.25632,1.39258 -9.04708,9.98159 -22.29955,5.10071 -4.93202,-1.76463 -4.89837,-9.07501 -4.65683,-11.30313 -1.12709,1.1141 -3.23625,10.72499 4.53608,13.37969 z"
     style="font-size:12px;fill:url(#linearGradient4652);fill-rule:evenodd"
     inkscape:connector-curvature="0" /><path
     sodipodi:nodetypes="ccscs"
     id="path684"
     d="m 54.434368,33.61287 c 5.6286,1.86293 15.03316,-0.93799 14.586,-2.31994 0.18639,0.81289 -6.03661,3.63172 -14.49817,1.10777 -3.5699,-1.07635 -3.38136,-5.45993 -3.20571,-6.76054 -0.81971,0.65031 -2.41671,6.11096 3.11788,7.97271 z"
     style="font-size:12px;fill:url(#linearGradient4649);fill-rule:evenodd"
     inkscape:connector-curvature="0" /></svg>