<?xml version="1.0" encoding="UTF-8" standalone="no"?>
<svg
   xmlns:dc="http://purl.org/dc/elements/1.1/"
   xmlns:cc="http://creativecommons.org/ns#"
   xmlns:rdf="http://www.w3.org/1999/02/22-rdf-syntax-ns#"
   xmlns:svg="http://www.w3.org/2000/svg"
   xmlns="http://www.w3.org/2000/svg"
   version="1.0"
   xml:space="preserve"
   height="202"
   width="202"
   id="svg602"><metadata
     id="metadata23"><rdf:RDF><cc:Work
         rdf:about=""><dc:format>image/svg+xml</dc:format><dc:type
           rdf:resource="http://purl.org/dc/dcmitype/StillImage" /><dc:title></dc:title><dc:date>2019</dc:date><dc:creator><cc:Agent><dc:title>Timothée Giet</dc:title></cc:Agent></dc:creator><cc:license
           rdf:resource="http://creativecommons.org/licenses/by-sa/4.0/" /></cc:Work><cc:License
         rdf:about="http://creativecommons.org/licenses/by-sa/4.0/"><cc:permits
           rdf:resource="http://creativecommons.org/ns#Reproduction" /><cc:permits
           rdf:resource="http://creativecommons.org/ns#Distribution" /><cc:requires
           rdf:resource="http://creativecommons.org/ns#Notice" /><cc:requires
           rdf:resource="http://creativecommons.org/ns#Attribution" /><cc:permits
           rdf:resource="http://creativecommons.org/ns#DerivativeWorks" /><cc:requires
           rdf:resource="http://creativecommons.org/ns#ShareAlike" /></cc:License></rdf:RDF></metadata><defs
     id="defs604" /><g
     transform="translate(0,2.8586273)"
     id="layer3"><g
       id="layer1-1"
       transform="matrix(2.1320744,0,0,2.1320744,-5.7767728,-22.807786)"><path
         id="path49949-6"
         d="m 63.81802,29.537307 c -5.067682,0.785476 -12.29189,3.652955 -17.118789,6.980946 -4.826899,3.327991 -5.043987,11.368115 -9.844097,11.278336 -4.80011,-0.08978 -3.923488,-6.705292 -7.156973,-9.469628 C 21.25556,32.248998 0.00871157,31.881589 3.579007,41.13997 10.373095,46.174632 20.06538,49.367602 21.266601,57.286565 20.572673,81.966549 0.33161231,76.623421 5.039435,87.141601 c 1.0761198,3.154556 12.58946,2.48318 20.489198,-3.308926 7.899738,-5.792105 5.201523,-13.518145 11.685586,-13.151814 6.484063,0.366331 6.324681,8.259335 10.607555,11.737109 4.282873,3.477773 8.417995,6.394854 14.312432,7.120564 5.894436,0.725711 14.404765,-1.882425 19.418121,-5.142047 C 93.344155,76.729586 97.78865,67.217173 96.866151,56.59036 95.604483,44.399644 87.13084,36.581037 76.06076,30.514639 71.048248,28.749335 68.885702,28.751831 63.81802,29.537307 Z"
         style="fill:#193e76;fill-opacity:1;fill-rule:evenodd;stroke:none;stroke-width:0.83985573px;stroke-linecap:butt;stroke-linejoin:miter;stroke-opacity:1" /><path
         id="path4205-7"
         d="M 79.211465,33.644855 C 78.93367,28.837828 71.781265,17.594383 68.722063,17.766063 67.349592,17.843093 39.195181,29.623464 39.907832,31.500427 40.439288,32.900159 43.677141,43.208113 40.06203,46.72433 37.188714,49.519044 70.686545,30.726302 79.211465,33.644855 Z"
         style="fill:#193e76;fill-opacity:1;fill-rule:evenodd;stroke:none;stroke-width:0.99748397px;stroke-linecap:butt;stroke-linejoin:miter;stroke-opacity:1" /><path
         id="path4205"
         d="M 76.89849,34.110876 C 76.647252,29.793323 70.875918,20.387222 68.109183,20.541422 66.867923,20.610602 41.40514,31.191448 42.04966,32.87729 c 0.480646,1.257206 3.269497,8.715094 0,11.873274 -2.59862,2.510143 27.138911,-13.26106 34.84883,-10.639688 z"
         style="fill:#3f86f1;fill-opacity:1;fill-rule:evenodd;stroke:none;stroke-width:0.99748397px;stroke-linecap:butt;stroke-linejoin:miter;stroke-opacity:1" /><path
         id="path4173-3"
         d="m 60.466442,88.657862 c -2.892412,2.544393 -3.165071,7.708521 -9.348682,6.961736 L 31.02804,82.889565 c -4.06398,-3.614473 9.752901,-3.187877 12.133395,-9.149709"
         style="fill:#193e76;fill-opacity:1;fill-rule:evenodd;stroke:none;stroke-width:0.99748397px;stroke-linecap:butt;stroke-linejoin:miter;stroke-opacity:1" /><path
         id="path4173"
         d="m 59.001869,85.304732 c -2.242267,1.972488 -3.533027,7.826253 -8.326712,7.247324 L 35.101123,82.683361 c -3.150495,-2.802047 8.640072,-3.550725 10.485488,-8.172512"
         style="fill:#3f86f1;fill-opacity:1;fill-rule:evenodd;stroke:none;stroke-width:0.99748397px;stroke-linecap:butt;stroke-linejoin:miter;stroke-opacity:1" /><path
         id="path49949-2"
         d="M 62.711714,31.811859 C 58.030597,32.537419 51.357452,35.186166 46.898751,38.260297 42.440049,41.334428 40.81516,49.615866 36.381204,49.532935 31.947248,49.450004 31.936658,44.670164 30.032281,41.232906 24.73966,31.680113 2.0485007,35.875349 5.7060385,40.392926 11.615669,46.703405 22.674107,48.444904 22.431834,57.282014 21.831879,79.165818 6.1359111,78.581585 7.2790488,84.140522 8.4221865,89.69946 17.428327,87.00484 24.08697,83.067814 c 6.658642,-3.937028 8.060831,-15.156026 14.050288,-14.817638 5.989458,0.338387 5.842233,9.196106 9.798408,12.408594 3.956175,3.212488 7.775868,5.907053 13.220675,6.577407 C 66.601149,87.90653 73.96793,85.859181 78.881117,83.334872 88.880551,77.929617 95.920178,67.334786 95.340753,56.234988 93.69398,45.116416 84.396169,36.520659 74.020575,32.71464 69.390419,31.083994 67.392832,31.086299 62.711714,31.811859 Z"
         style="fill:#3f86f1;fill-opacity:1;fill-rule:evenodd;stroke:none;stroke-width:0.83985573px;stroke-linecap:butt;stroke-linejoin:miter;stroke-opacity:1" /><path
         d="m 91.344028,54.972505 a 4.7801495,7.8641162 0 0 1 -5.410909,6.659938 4.7801495,7.8641162 0 0 1 -4.052201,-8.896887 4.7801495,7.8641162 0 0 1 5.404913,-6.673104 4.7801495,7.8641162 0 0 1 4.060199,8.887011"
         id="path4222"
         style="color:#000000;display:inline;overflow:visible;visibility:visible;opacity:1;fill:#eaeef3;fill-opacity:1;fill-rule:nonzero;stroke:none;stroke-width:0.99748397;stroke-linecap:round;stroke-linejoin:round;stroke-miterlimit:4;stroke-dasharray:none;stroke-dashoffset:0;stroke-opacity:1;marker:none;enable-background:accumulate" /><g
         transform="matrix(0.99748396,0,0,0.99748396,0.25229286,17.629596)"
         id="g4260"><path
           style="fill:#f0cb38;fill-opacity:1;fill-rule:evenodd;stroke:none;stroke-width:1px;stroke-linecap:butt;stroke-linejoin:miter;stroke-opacity:1"
           d="m 52.831299,11.909664 0.231634,4.416381 -6.542108,3.820918 2.372635,-5.969382 z"
           id="path54402-7" /><path
           style="fill:#f0cb38;fill-opacity:1;fill-rule:evenodd;stroke:none;stroke-width:1px;stroke-linecap:butt;stroke-linejoin:miter;stroke-opacity:1"
           d="m 64.284013,7.2241726 2.9907,7.2007784 c -2.5237,0.293465 -7.104296,0.674768 -8.65198,1.155308 L 58.260718,9.7722697 Z"
           id="path54404-0" /><path
           style="fill:#f0cb38;fill-opacity:1;fill-rule:evenodd;stroke:none;stroke-width:1px;stroke-linecap:butt;stroke-linejoin:miter;stroke-opacity:1"
           d="m 42.684455,67.522645 -1.483308,-1.255664 3.643043,-6.649313 c 0,0 1.393462,1.850702 3.995219,3.87615 z"
           id="path54408-9" /><path
           style="fill:#f0cb38;fill-opacity:1;fill-rule:evenodd;stroke:none;stroke-width:1px;stroke-linecap:butt;stroke-linejoin:miter;stroke-opacity:1"
           d="m 50.363347,72.08288 -2.613995,-1.996434 3.537033,-5.224555 c 0,0 2.685402,2.326361 4.623345,3.3429 z"
           id="path54410-3" /><path
           style="fill:#f0cb38;fill-opacity:1;fill-rule:evenodd;stroke:none;stroke-width:1px;stroke-linecap:butt;stroke-linejoin:miter;stroke-opacity:1"
           d="m 54.642546,19.043977 c -5.723723,13.28725 -6.281067,31.809085 -5.396156,43.066107 l 5.199252,2.638837 C 55.893887,47.684747 58.95521,33.655899 58.952291,17.556116 l -4.309752,1.487861 z"
           id="path50840-6" /><path
           style="fill:#f0cb38;fill-opacity:1;fill-rule:evenodd;stroke:none;stroke-width:1px;stroke-linecap:butt;stroke-linejoin:miter;stroke-opacity:1"
           d="m 66.870433,15.60753 c -0.611634,7.921003 -7.337926,35.515477 -4.724949,52.642868 l 5.534855,-0.127258 c 3.549198,-17.698408 0.715164,-34.893271 4.171053,-52.155324 z"
           id="path54390-0" /><path
           style="fill:#f0cb38;fill-opacity:1;fill-rule:evenodd;stroke:none;stroke-width:1px;stroke-linecap:butt;stroke-linejoin:miter;stroke-opacity:1"
           d="m 81.873837,19.856797 c -8.24855,16.2556 -8.363773,33.390058 -2.906349,44.995222 L 82.43413,62.434954 C 75.529554,54.680095 76.854091,29.904202 84.700906,21.788469 Z"
           id="path54392-6" /><path
           style="fill:#f0cb38;fill-opacity:1;fill-rule:evenodd;stroke:none;stroke-width:1px;stroke-linecap:butt;stroke-linejoin:miter;stroke-opacity:1"
           d="m 44.212301,25.178929 c 1.61736,9.439495 2.224593,20.16 0.186056,30.411086 L 40.3838,50.096387 C 42.089675,43.259508 39.806171,38.418943 39.460501,31.474975 Z"
           id="path54394-2" /><path
           style="fill:#f0cb38;fill-opacity:1;fill-rule:evenodd;stroke:none;stroke-width:1px;stroke-linecap:butt;stroke-linejoin:miter;stroke-opacity:1"
           d="m 28.387569,24.19267 c 6.70678,10.719212 7.418831,15.393452 4.604951,27.735361 0,0 -3.038566,5.610849 -6.100646,8.910024 6.94787,-20.398454 4.209197,-27.930707 -4.649858,-41.174086 z"
           id="path54396-6" /></g><path
         d="m 90.879768,54.191522 a 2.441474,4.0862565 0 0 1 -2.763636,3.460556 2.441474,4.0862565 0 0 1 -2.069672,-4.622893 2.441474,4.0862565 0 0 1 2.760574,-3.467397 2.441474,4.0862565 0 0 1 2.073757,4.617761"
         id="path4224-5"
         style="color:#000000;display:inline;overflow:visible;visibility:visible;opacity:1;fill:#214f8a;fill-opacity:1;fill-rule:nonzero;stroke:none;stroke-width:0.99748397;stroke-linecap:round;stroke-linejoin:round;stroke-miterlimit:4;stroke-dasharray:none;stroke-dashoffset:0;stroke-opacity:1;marker:none;enable-background:accumulate" /><path
         d="m 90.141336,54.389644 a 1.7732812,2.7755704 0 0 1 -2.007273,2.350566 1.7732812,2.7755704 0 0 1 -1.503235,-3.140078 1.7732812,2.7755704 0 0 1 2.005048,-2.355213 1.7732812,2.7755704 0 0 1 1.506203,3.136592"
         id="path4224"
         style="color:#000000;display:inline;overflow:visible;visibility:visible;opacity:1;fill:#1f2a38;fill-opacity:1;fill-rule:nonzero;stroke:none;stroke-width:0.99748397;stroke-linecap:round;stroke-linejoin:round;stroke-miterlimit:4;stroke-dasharray:none;stroke-dashoffset:0;stroke-opacity:1;marker:none;enable-background:accumulate" /><path
         d="m 88.350754,55.678974 a 1.2335869,1.3877852 0 0 1 -1.396364,1.175283 1.2335869,1.3877852 0 0 1 -1.045729,-1.570039 1.2335869,1.3877852 0 0 1 1.394816,-1.177607 1.2335869,1.3877852 0 0 1 1.047793,1.568297"
         id="path4241"
         style="color:#000000;display:inline;overflow:visible;visibility:visible;opacity:1;fill:#ffffff;fill-opacity:1;fill-rule:nonzero;stroke:none;stroke-width:0.99748397;stroke-linecap:round;stroke-linejoin:round;stroke-miterlimit:4;stroke-dasharray:none;stroke-dashoffset:0;stroke-opacity:1;marker:none;enable-background:accumulate" /><path
         d="m 87.508311,59.040261 a 0.57937866,0.73357695 0 0 1 -0.65583,0.621249 0.57937866,0.73357695 0 0 1 -0.491148,-0.829915 0.57937866,0.73357695 0 0 1 0.655104,-0.622478 0.57937866,0.73357695 0 0 1 0.492117,0.828994"
         id="path4241-3"
         style="color:#000000;display:inline;overflow:visible;visibility:visible;opacity:1;fill:#ffffff;fill-opacity:1;fill-rule:nonzero;stroke:none;stroke-width:0.99748397;stroke-linecap:round;stroke-linejoin:round;stroke-miterlimit:4;stroke-dasharray:none;stroke-dashoffset:0;stroke-opacity:1;marker:none;enable-background:accumulate" /></g></g></svg>