<?xml version="1.0" encoding="UTF-8" standalone="no"?>
<!-- Created with Sodipodi ("http://www.sodipodi.com/") -->

<svg
   xmlns:dc="http://purl.org/dc/elements/1.1/"
   xmlns:cc="http://creativecommons.org/ns#"
   xmlns:rdf="http://www.w3.org/1999/02/22-rdf-syntax-ns#"
   xmlns:svg="http://www.w3.org/2000/svg"
   xmlns="http://www.w3.org/2000/svg"
   xmlns:xlink="http://www.w3.org/1999/xlink"
   xmlns:sodipodi="http://sodipodi.sourceforge.net/DTD/sodipodi-0.dtd"
   xmlns:inkscape="http://www.inkscape.org/namespaces/inkscape"
   id="svg602"
   sodipodi:version="0.32"
   width="427.49359"
   height="199.14137"
   xml:space="preserve"
   sodipodi:docname="iceblock.svg"
   inkscape:version="0.91 r13725"
   inkscape:output_extension="org.inkscape.output.svg.inkscape"
   version="1.0"
   sodipodi:modified="true"><metadata
     id="metadata23"><rdf:RDF><cc:Work
         rdf:about=""><dc:format>image/svg+xml</dc:format><dc:type
           rdf:resource="http://purl.org/dc/dcmitype/StillImage" /></cc:Work></rdf:RDF></metadata><defs
     id="defs604"><linearGradient
       id="linearGradient618"><stop
         style="stop-color:#c5edff;stop-opacity:1;"
         offset="0"
         id="stop619" /><stop
         style="stop-color:#ffffff;stop-opacity:1;"
         offset="1"
         id="stop620" /></linearGradient><linearGradient
       id="linearGradient612"><stop
         style="stop-color:#e6edff;stop-opacity:0.498;"
         offset="0"
         id="stop613" /><stop
         style="stop-color:#d2ffdf;stop-opacity:0.702;"
         offset="1"
         id="stop614" /></linearGradient><linearGradient
       xlink:href="#linearGradient618"
       id="linearGradient615"
       x1="300.79311"
       y1="654.67275"
       x2="276.33324"
       y2="724.95808"
       spreadMethod="pad"
       gradientTransform="scale(1.261335,0.7928108)"
       gradientUnits="userSpaceOnUse" /><linearGradient
       xlink:href="#linearGradient612"
       id="linearGradient616"
       gradientTransform="scale(1.7696933,0.5650697)"
       x1="75.292878"
       y1="1004.0671"
       x2="312.4985"
       y2="1004.0671"
       gradientUnits="userSpaceOnUse" /><radialGradient
       xlink:href="#linearGradient618"
       id="radialGradient656"
       cx="126.15959"
       cy="1157.882"
       r="31.709867"
       fx="126.15959"
       fy="1157.882"
       gradientTransform="scale(2.5512675,0.391962)"
       gradientUnits="userSpaceOnUse" /><radialGradient
       inkscape:collect="always"
       xlink:href="#linearGradient618"
       id="radialGradient2175"
       cx="259.00865"
       cy="917.49936"
       fx="259.00865"
       fy="917.49936"
       r="90.382476"
       gradientTransform="scale(1.5802723,0.6328023)"
       gradientUnits="userSpaceOnUse" /><radialGradient
       inkscape:collect="always"
       xlink:href="#linearGradient618"
       id="radialGradient2177"
       cx="109.32731"
       cy="1146.0134"
       fx="109.32731"
       fy="1146.0134"
       r="25.760361"
       gradientTransform="scale(2.3531015,0.424971)"
       gradientUnits="userSpaceOnUse" /></defs><sodipodi:namedview
     id="base"
     inkscape:zoom="0.36014217"
     inkscape:cx="372.04724"
     inkscape:cy="526.18109"
     inkscape:window-width="822"
     inkscape:window-height="592"
     inkscape:window-x="9"
     inkscape:window-y="75"
     inkscape:current-layer="svg602" /><g
     id="g684"
     transform="translate(-115.85232,-396.26688)"><path
       style="font-size:12px;fill:url(#linearGradient616);fill-rule:evenodd"
       d="M 133.2453,533.6385 C 138.8134,568.1605 136.62,562.4739 135.5063,583.6324 C 143.8585,590.3141 143.865,593.3442 163.2955,594.7347 L 226.5984,599.2646 L 299.3505,619.1496 L 369.7403,623.6796 L 427.1373,632.9342 C 448.5424,636.3855 470.3832,634.1955 487.475,620.8114 C 500.1921,610.1138 503.4938,606.6953 516.2652,599.6063 C 529.5743,590.9878 538.2146,563.0274 548.5987,550.0532 C 550.5906,547.5643 552.338,539.1032 553.0265,527.7227 L 547.6938,500.349 C 556.013,512.5615 547.6618,509.0265 542.7051,515.4023 L 486.9264,587.1513 C 476.8439,600.1205 449.7536,602.7728 442.7964,601.5524 L 151.1727,550.402 C 141.0158,548.6205 138.1297,543.0285 133.2453,533.6385 z "
       id="path607"
       sodipodi:nodetypes="ccscccssssccssssc"
       transform="translate(-10.63046,-38.97845)" /><g
       id="g664"
       transform="translate(-10.63046,-38.97845)"
       style="font-size:12px"><path
         transform="translate(-69.07462,-59.47551)"
         style="font-size:12px;fill:url(#radialGradient2175);fill-rule:evenodd"
         d="M 623.051,558.1809 C 623.051,573.7489 616.0319,578.171 612.6755,590.2211 C 609.319,602.2711 595.4513,608.9563 586.4786,617.2391 C 577.506,625.5219 570.7744,641.4504 556.5798,651.4798 C 532.6442,667.5575 544.3651,667.3906 500.8444,665.0282 C 473.9018,663.525 431.4688,654.7123 400.1878,657.1642 C 367.673,658.4849 315.6633,633.4947 304.7713,629.0507 C 275.7293,620.3509 249.8077,630.0337 228.4119,628.2397 C 207.0797,627.6321 195.5574,620.9954 195.5574,605.4274 C 195.5574,589.8594 212.2473,566.1697 218.3167,555.3008 C 224.3861,544.4319 238.7337,527.4853 248.2231,520.679 C 257.7125,513.8726 252.8945,504.2139 263.1544,500.8336 C 273.4145,497.4534 283.3815,495.1768 291.7785,495.0366 C 318.7469,494.5862 340.7786,498.7822 376.3413,500.0585 C 411.9038,501.3347 456.2887,520.2214 490.2135,524.5178 C 524.1383,528.8141 554.6901,527.9695 576.7606,537.0297 C 598.8312,546.09 623.051,542.6129 623.051,558.1809 z "
         id="path617"
         sodipodi:nodetypes="cssssssssssssssss" /><path
         style="font-size:12px;fill:url(#radialGradient2177);fill-opacity:0.38670002;fill-rule:evenodd"
         d="M 259.8558,470.6394 C 260.1511,475.4503 361.5308,493.4897 346.4411,501.3292 C 334.6855,506.1399 237.1858,496.0345 220.8773,493.6722 C 188.2604,493.6722 187.8048,508.782 166.5439,501.3496 C 173.6309,490.3738 209.0658,490.3737 259.8558,470.6394 z "
         id="path622"
         sodipodi:nodetypes="csccc" /><path
         style="font-size:12px;fill:url(#radialGradient656);fill-rule:evenodd"
         d="M 442.9361,470.6393 C 413.407,474.4396 399.5725,473.5922 330.7256,454.6936 C 277.2339,454.6936 200.7976,453.1786 200.7976,441.1102 C 200.7976,429.0421 251.2483,439.3385 304.74,439.3385 C 351.1446,446.4255 405.1389,463.2958 442.9361,470.6393 z "
         id="path624"
         sodipodi:nodetypes="ccccc" /><path
         style="font-size:12px;fill:url(#linearGradient615);fill-rule:evenodd"
         d="M 414.393,546.905 C 409.6119,548.9971 397.8191,599.6645 340.0392,552.1516 C 348.9812,541.4106 327.1653,516.7407 331.9463,514.6487 C 373.2278,507.9403 409.6175,518.1041 422.3048,526.6822 C 433.811,552.9779 419.174,544.813 414.393,546.905 z "
         id="path649"
         sodipodi:nodetypes="ccccc" /></g></g></svg>