<?xml version="1.0" encoding="UTF-8" standalone="no"?>
<!-- Created with Sodipodi ("http://www.sodipodi.com/") -->

<svg
   xmlns:dc="http://purl.org/dc/elements/1.1/"
   xmlns:cc="http://creativecommons.org/ns#"
   xmlns:rdf="http://www.w3.org/1999/02/22-rdf-syntax-ns#"
   xmlns:svg="http://www.w3.org/2000/svg"
   xmlns="http://www.w3.org/2000/svg"
   xmlns:xlink="http://www.w3.org/1999/xlink"
   xmlns:sodipodi="http://sodipodi.sourceforge.net/DTD/sodipodi-0.dtd"
   xmlns:inkscape="http://www.inkscape.org/namespaces/inkscape"
   id="svg1729"
   sodipodi:version="0.32"
   width="449.20172"
   height="382.61404"
   xml:space="preserve"
   sodipodi:docname="narval.svg"
   inkscape:version="0.91 r13725"
   inkscape:output_extension="org.inkscape.output.svg.inkscape"
   sodipodi:modified="true"
   version="1.0"><metadata
     id="metadata68"><rdf:RDF><cc:Work
         rdf:about=""><dc:format>image/svg+xml</dc:format><dc:type
           rdf:resource="http://purl.org/dc/dcmitype/StillImage" /></cc:Work></rdf:RDF></metadata><defs
     id="defs1731"><linearGradient
       id="linearGradient2001"><stop
         style="stop-color:#6a5f05;stop-opacity:1;"
         offset="0"
         id="stop2002" /><stop
         style="stop-color:#ede3ff;stop-opacity:1;"
         offset="1"
         id="stop2003" /></linearGradient><linearGradient
       id="linearGradient1983"><stop
         style="stop-color:#4d3f00;stop-opacity:1;"
         offset="0"
         id="stop1984" /><stop
         style="stop-color:#bac5d2;stop-opacity:0;"
         offset="1"
         id="stop1985" /></linearGradient><linearGradient
       id="linearGradient1893"><stop
         style="stop-color:#00b7c5;stop-opacity:0.2471;"
         offset="0"
         id="stop1894" /><stop
         style="stop-color:#00a3b0;stop-opacity:0.7725;"
         offset="1"
         id="stop1895" /></linearGradient><linearGradient
       id="linearGradient1796"><stop
         style="stop-color:#ffffff;stop-opacity:1;"
         offset="0"
         id="stop1797" /><stop
         style="stop-color:#b0b0ab;stop-opacity:0;"
         offset="1"
         id="stop1798" /></linearGradient><linearGradient
       id="linearGradient1758"><stop
         style="stop-color:#ffffff;stop-opacity:1;"
         offset="0"
         id="stop1759" /><stop
         style="stop-color:#000000;stop-opacity:1;"
         offset="1"
         id="stop1760" /></linearGradient><linearGradient
       id="linearGradient1752"><stop
         style="stop-color:#87775a;stop-opacity:1;"
         offset="0"
         id="stop1753" /><stop
         style="stop-color:#fff7d5;stop-opacity:1;"
         offset="1"
         id="stop1754" /></linearGradient><linearGradient
       id="linearGradient1740"><stop
         style="stop-color:#87856d;stop-opacity:1;"
         offset="0"
         id="stop1741" /><stop
         style="stop-color:#bac5d2;stop-opacity:1;"
         offset="1"
         id="stop1742" /></linearGradient><linearGradient
       inkscape:collect="always"
       xlink:href="#linearGradient1740"
       id="linearGradient3459"
       gradientUnits="userSpaceOnUse"
       gradientTransform="matrix(0.3881386,-0.2946987,0.07214528,0.1823001,-64.613876,639.19487)"
       x1="367.58081"
       y1="1471.8438"
       x2="362.41113"
       y2="754.23322" /><linearGradient
       inkscape:collect="always"
       xlink:href="#linearGradient1740"
       id="linearGradient3461"
       gradientUnits="userSpaceOnUse"
       gradientTransform="matrix(0.5195904,-0.1929668,0.1281821,0.5908157,18.87944,754.7923)"
       x1="384.02103"
       y1="106.48047"
       x2="725.68665"
       y2="107.35426" /><linearGradient
       inkscape:collect="always"
       xlink:href="#linearGradient1740"
       id="linearGradient3463"
       gradientUnits="userSpaceOnUse"
       gradientTransform="matrix(1.1790053,-0.437862,0.05649013,0.2603738,18.87944,754.7923)"
       x1="141.94717"
       y1="-29.799664"
       x2="97.991142"
       y2="-30.863411" /><linearGradient
       inkscape:collect="always"
       xlink:href="#linearGradient1740"
       id="linearGradient3465"
       gradientUnits="userSpaceOnUse"
       gradientTransform="matrix(0.6460682,-0.2399385,0.1030884,0.4751544,18.87944,754.7923)"
       x1="142.19553"
       y1="168.70644"
       x2="201.17097"
       y2="168.70644" /><radialGradient
       inkscape:collect="always"
       xlink:href="#linearGradient1758"
       id="radialGradient3467"
       gradientUnits="userSpaceOnUse"
       gradientTransform="scale(1.0801237,0.9258199)"
       spreadMethod="pad"
       cx="238.90309"
       cy="734.55731"
       fx="238.90309"
       fy="734.55731"
       r="6.7875848" /><radialGradient
       inkscape:collect="always"
       xlink:href="#linearGradient1796"
       id="radialGradient3469"
       gradientUnits="userSpaceOnUse"
       gradientTransform="scale(1.2836379,0.7790359)"
       cx="136.14594"
       cy="681.19696"
       fx="136.14594"
       fy="681.19696"
       r="11.950172" /><linearGradient
       inkscape:collect="always"
       xlink:href="#linearGradient1752"
       id="linearGradient3471"
       gradientUnits="userSpaceOnUse"
       gradientTransform="scale(0.9713494,1.0294956)"
       spreadMethod="reflect"
       x1="121.59292"
       y1="435.76712"
       x2="117.66864"
       y2="438.26077" /><linearGradient
       inkscape:collect="always"
       xlink:href="#linearGradient1740"
       id="linearGradient3473"
       gradientUnits="userSpaceOnUse"
       gradientTransform="matrix(0.8262362,-0.6718025,-0.1740603,-0.1942154,295.20727,836.47833)"
       x1="305.30508"
       y1="1581.9412"
       x2="300.69092"
       y2="941.44409" /><linearGradient
       inkscape:collect="always"
       xlink:href="#linearGradient2001"
       id="linearGradient3475"
       gradientUnits="userSpaceOnUse"
       gradientTransform="matrix(1.5946634,-1.2365783,-0.3036729,-0.3916097,-14.71808,585.68998)"
       x1="82.445717"
       y1="-59.090939"
       x2="262.41537"
       y2="-29.709515" /><linearGradient
       inkscape:collect="always"
       xlink:href="#linearGradient1983"
       id="linearGradient3477"
       gradientUnits="userSpaceOnUse"
       gradientTransform="matrix(1.5943306,1.2363202,-0.3037362,0.3916914,-14.71808,465.95718)"
       x1="88.951096"
       y1="-184.6066"
       x2="278.67465"
       y2="360.65692" /><radialGradient
       inkscape:collect="always"
       xlink:href="#linearGradient1758"
       id="radialGradient3479"
       gradientUnits="userSpaceOnUse"
       gradientTransform="scale(1.0801237,0.9258199)"
       spreadMethod="pad"
       cx="238.90309"
       cy="734.55731"
       fx="238.90309"
       fy="734.55731"
       r="6.7875848" /><linearGradient
       inkscape:collect="always"
       xlink:href="#linearGradient2001"
       id="linearGradient3481"
       gradientUnits="userSpaceOnUse"
       gradientTransform="scale(0.8668569,1.1535929)"
       x1="193.07133"
       y1="558.82855"
       x2="288.29803"
       y2="623.94037" /><linearGradient
       inkscape:collect="always"
       xlink:href="#linearGradient2001"
       id="linearGradient3483"
       gradientUnits="userSpaceOnUse"
       x1="474.68741"
       y1="828.06885"
       x2="539.84375"
       y2="828.06885" /><linearGradient
       inkscape:collect="always"
       xlink:href="#linearGradient1893"
       id="linearGradient5359"
       x1="66.7995"
       y1="727.875"
       x2="539.45898"
       y2="727.875"
       gradientUnits="userSpaceOnUse" /></defs><sodipodi:namedview
     id="base"
     inkscape:zoom="0.47763667"
     inkscape:cx="111.3386"
     inkscape:cy="220.12722"
     inkscape:window-width="1016"
     inkscape:window-height="575"
     inkscape:window-x="0"
     inkscape:window-y="1"
     inkscape:current-layer="svg1729"
     showgrid="false"
     inkscape:window-maximized="0"
     fit-margin-top="0"
     fit-margin-left="0"
     fit-margin-right="0"
     fit-margin-bottom="0" /><g
     id="g3438"
     transform="matrix(0.8000002,0,0,0.8000002,17.326615,-297.3258)"><g
       transform="translate(0,0.04958647)"
       id="g3411"><path
         style="font-size:12px;fill:#333333;fill-opacity:1;fill-rule:evenodd;stroke-width:1"
         d="m 145.3117,575.9724 c -6.8608,2.4197 -18.4596,-10.237 -27.8175,-24.4483 -5.9505,-12.0428 7.1225,-6.2455 7.187,-5.0454 9.3578,14.2113 27.4912,27.0738 20.6305,29.4937 z"
         id="path1793"
         sodipodi:nodetypes="cccc"
         inkscape:connector-curvature="0" /><path
         sodipodi:nodetypes="csssssssssssss"
         id="path1772"
         d="m 285.60997,722.0098 c 0.51188,4.08837 -49.18039,-25.63825 -109.22942,45.10823 -6.7689,7.98768 -44.9075,61.11666 -71.74728,70.24131 -8.953068,2.66781 -25.294468,7.94951 -26.869131,7.35553 -0.842409,-0.24048 -2.14073,-1.1403 -2.147772,-1.87068 -0.0334,-1.64425 8.109158,-5.82524 10.549406,-6.44104 4.470415,-1.09709 8.792309,-7.88868 8.600672,-7.52013 -1.047293,1.89442 -5.162742,6.38488 -9.317464,7.46149 -2.24009,0.58953 -9.382506,4.73242 -9.955267,6.07098 -0.356569,0.78065 -2.119461,-2.10898 -2.239982,-2.87379 -0.576294,-3.1502 0.899309,-5.05738 -0.519758,-8.53845 -17.373079,-42.67924 6.961817,-50.50106 21.023854,-72.75522 10.057062,-16.89604 30.856722,-41.78863 72.307572,-61.24577 41.45085,-19.45718 117.3651,6.0049 119.54457,25.00754 z"
         style="font-size:12px;fill:url(#linearGradient3459);fill-rule:evenodd"
         inkscape:connector-curvature="0" /><path
         sodipodi:nodetypes="csssssccsc"
         id="path1773"
         d="m 287.44608,728.75369 c 0.901,27.08191 1.50044,16.92832 -2.06597,37.95684 -0.76113,5.64278 -10.03585,-6.55884 -15.24646,-22.63151 -3.46374,-10.44346 -10.93392,-22.14811 -16.27378,-22.97191 -5.2014,-0.96634 -8.16162,-4.75244 -3.52601,-4.91722 4.63587,-0.16481 16.35846,1.87975 17.07506,2.09805 36.12371,11.35448 -0.23749,-13.98749 -2.10278,-14.4897 8.27033,3.70751 24.41599,-15.318 38.7483,-12.15761 3.68725,1.82422 2.06756,2.16431 0.54768,5.41892 -7.72847,16.24544 -17.23262,15.40391 -17.15604,31.69414 z"
         style="font-size:12px;fill:url(#linearGradient3461);fill-rule:evenodd"
         inkscape:connector-curvature="0" /><path
         sodipodi:nodetypes="ccccc"
         id="path1775"
         d="m 186.38057,690.74855 c 0.96232,2.43167 -7.51947,-0.17984 -25.7844,8.96997 -15.49865,9.88037 -24.96661,16.38514 -25.62673,15.61127 -0.38806,-0.98045 16.35641,-12.34707 31.0087,-23.47197 2.93672,-3.17337 19.5987,-2.2459 20.40243,-1.10927 z"
         style="font-size:12px;fill:url(#linearGradient3463);fill-rule:evenodd"
         inkscape:connector-curvature="0" /><path
         sodipodi:nodetypes="ccccc"
         id="path1776"
         d="m 163.41597,794.34453 c 7.14319,4.29205 8.90424,13.66021 3.93342,20.92433 -4.97092,7.26415 -27.43912,2.57582 -34.58239,-1.71612 -7.14324,-4.29204 2.9872,-7.01688 7.95806,-14.28108 4.97091,-7.26415 15.54758,-9.21912 22.69091,-4.92713 z"
         style="font-size:12px;fill:url(#linearGradient3465);fill-rule:evenodd"
         inkscape:connector-curvature="0" /><path
         transform="matrix(0.1535455,-0.1305841,0.09599405,0.2647425,-7.6250954,672.69215)"
         sodipodi:ry="10.022522"
         sodipodi:rx="11.692947"
         sodipodi:cy="678.18805"
         sodipodi:cx="262.25598"
         d="m 273.94893,678.18805 a 11.692947,10.022522 0 0 1 -11.69295,10.02252 11.692947,10.022522 0 0 1 -11.69295,-10.02252 11.692947,10.022522 0 0 1 11.69295,-10.02252 11.692947,10.022522 0 0 1 11.69295,10.02252 z"
         id="path1777"
         style="font-size:12px;fill:url(#radialGradient3467);fill-rule:evenodd;stroke-width:1"
         sodipodi:type="arc" /><path
         sodipodi:type="arc"
         style="fill:url(#radialGradient3469);fill-opacity:1;fill-rule:evenodd;stroke:none"
         id="path1794"
         d="M 197.64558,530.677 A 22.459724,13.630737 0 0 1 175.18585,544.30774 22.459724,13.630737 0 0 1 152.72613,530.677 22.459724,13.630737 0 0 1 175.18585,517.04626 22.459724,13.630737 0 0 1 197.64558,530.677 Z"
         sodipodi:cx="175.18585"
         sodipodi:cy="530.677"
         sodipodi:rx="22.459724"
         sodipodi:ry="13.630737"
         transform="translate(-1.239147,-4.956696)" /><path
         sodipodi:nodetypes="csss"
         id="path2008"
         d="M 122.5897,532.7431 C 119.5873,529.4265 -23.40369,373.296 -21.64212,371.6179 c 1.97695,-1.4525 149.49412,150.6727 152.23652,153.3834 7.0638,6.9826 -0.8183,15.6804 -8.0047,7.7418 z"
         style="font-size:12px;fill:url(#linearGradient3471);fill-rule:evenodd"
         inkscape:connector-curvature="0" /><path
         style="font-size:12px;fill:url(#linearGradient3473);fill-rule:evenodd"
         d="m 171.1875,509.4375 c -9.92755,0.0689 -19.95359,4.73632 -30.1875,16.5 -3.89649,4.54757 -5.8358,1.70022 -8.84375,1.53125 2.46669,2.58237 -4.60316,10.25519 -7.6875,8.0625 -2.55274,3.52259 -1.24675,3.79744 -5.3125,6.5625 -1.00077,0.63533 -4.01529,2.44531 -2.65625,2.6875 2.30316,0.34346 13.21141,11.37596 15.625,15.21875 2.90616,4.65791 7.85979,8.47787 11.90625,10.84375 -3.87465,-2.02104 -8.86919,-5.20714 -11.46875,-9.46875 -2.59162,-4.20046 -14.25219,-17.07161 -16.5625,-16.125 -1.03174,0.40602 -1.40785,3.30617 -1.15625,5 0.26528,3.24383 12.86187,19.9789 19.875,36.8125 18.81771,44.20598 75.52273,93.88332 91.625,102.15625 113.1168,58.23181 206.76488,133.46659 243.53125,160.65625 l 23.875,0 C 503.39989,796.10286 311.73641,596.24891 252.78125,560.75 225.22339,544.11885 198.63425,509.24698 171.1875,509.4375 z"
         id="path2006"
         inkscape:connector-curvature="0" /><path
         style="font-size:12px;fill:url(#linearGradient3475);fill-rule:evenodd"
         d="m 171.59375,510.40625 c -9.92745,0.0822 -19.96944,4.75385 -30.1875,16.53125 -3.89033,4.55278 -5.80429,1.69623 -8.8125,1.53125 2.47017,2.57912 -4.60031,10.25096 -7.6875,8.0625 -2.54812,3.52588 -1.25057,3.82312 -5.3125,6.59375 -0.99996,0.63662 -4.01566,2.44723 -2.65625,2.6875 2.30357,0.34044 13.23749,11.37911 15.65625,15.21875 2.78887,4.45652 7.45928,8.15208 11.40625,10.53125 -3.79715,-2.0294 -8.47904,-5.11835 -10.96875,-9.1875 -2.59727,-4.19705 -14.28467,-17.04339 -16.59375,-16.09375 -1.03117,0.40743 -1.41014,3.30647 -1.15625,5 0.26967,3.24351 12.90166,19.95714 19.9375,36.78125 18.87722,44.18069 75.63661,93.78002 91.75,102.03125 112.45651,57.70071 205.69734,132.19645 243,159.78125 l 24.71875,0 C 502.95769,795.33801 312.06499,596.90056 253.25,561.59375 225.66977,544.99968 199.04022,510.17884 171.59375,510.40625 z"
         id="path1987"
         inkscape:connector-curvature="0" /><path
         id="path1981"
         d="m 148.26828,530.55363 c -1.7557,2.0004 -4.13716,2.78097 -5.31916,1.74354 -1.18212,-1.03745 -0.71712,-3.50005 1.03858,-5.50045 1.75567,-2.00036 4.1371,-2.78106 5.31921,-1.74361 1.18209,1.03748 0.71703,3.50016 -1.03863,5.50052 z m 11.03862,-9.25647 c -1.3566,1.54577 -2.89866,2.41068 -3.44424,1.93195 -0.54558,-0.47889 0.11195,-2.12008 1.46866,-3.66584 1.35671,-1.54576 2.89863,-2.4108 3.44424,-1.93195 0.54561,0.47884 -0.11195,2.12007 -1.46866,3.66584 z m -5.09063,16.51299 c -0.56056,2.35377 -2.44617,3.921 -4.21142,3.50061 -1.76545,-0.42048 -2.74201,-2.66934 -2.18153,-5.02317 0.56052,-2.35373 2.44604,-3.92102 4.21142,-3.50061 1.76533,0.42046 2.74208,2.66939 2.18153,5.02317 z m 9.09757,5.3847 c -1.47436,2.64087 -3.86827,4.11244 -5.34716,3.28685 -1.47903,-0.82574 -1.48258,-3.63581 -0.008,-6.27662 1.47425,-2.64089 3.86827,-4.11245 5.34724,-3.28679 1.47889,0.82559 1.4825,3.63575 0.008,6.27656 z m 10.43449,0.0469 c -1.13899,2.13479 -3.27375,3.21897 -4.76797,2.4218 -1.49434,-0.79735 -1.78249,-3.17433 -0.6435,-5.30911 1.13907,-2.13472 3.27387,-3.21895 4.76812,-2.42166 1.49433,0.79736 1.78242,3.17425 0.64335,5.30897 z m -4.66111,-8.1148 c -0.0992,1.87943 -1.01081,3.35903 -2.03602,3.30479 -1.02507,-0.0541 -1.77564,-1.6216 -1.67633,-3.50101 0.0994,-1.87939 1.01101,-3.35895 2.03608,-3.30486 1.02509,0.0542 1.77559,1.62167 1.67627,3.50108 z m 13.57031,-10.84698 c -0.43026,0.72947 -2.29949,0.4239 -4.17523,-0.68253 -1.8756,-1.10628 -3.04749,-2.59459 -2.61714,-3.324 0.4303,-0.72935 2.2996,-0.42388 4.17523,0.68254 1.87574,1.10642 3.04748,2.59459 2.61714,3.32399 z m 19.21303,6.12676 c -0.76087,1.37645 -3.3517,1.40123 -5.78718,0.0553 -2.43532,-1.34597 -3.79287,-3.55293 -3.03207,-4.92944 0.76064,-1.37647 3.3517,-1.40123 5.787,-0.0554 2.43535,1.34593 3.79297,3.55295 3.03225,4.92953 z m -16.70247,18.54285 c -1.43649,1.63673 -3.92784,1.79889 -5.56447,0.36257 -1.63665,-1.43645 -1.79893,-3.92776 -0.36245,-5.56449 1.43644,-1.63666 3.92776,-1.79895 5.56441,-0.36249 1.63666,1.43644 1.79905,3.92777 0.36251,5.56441 z m -9.33541,13.95732 c -1.7557,2.00041 -4.5058,2.45757 -6.14245,1.02112 -1.63666,-1.43644 -1.54016,-4.22263 0.21543,-6.22305 1.75577,-2.00034 4.50583,-2.45745 6.14248,-1.021 1.6367,1.43639 1.54024,4.22253 -0.21546,6.22293 z m 26.42889,-20.81431 c -0.87788,1.00024 -3.35859,0.25833 -5.54079,-1.65689 -2.18226,-1.9153 -3.23964,-4.27876 -2.36182,-5.27892 0.87788,-1.00024 3.35855,-0.25829 5.54079,1.65688 2.18215,1.91529 3.23961,4.27881 2.36182,5.27893 z m -5.01263,9.58579 c -1.03171,0.84058 -3.35473,-0.30263 -5.18883,-2.55365 -1.83404,-2.25095 -2.48452,-4.75728 -1.45281,-5.59787 1.03171,-0.84059 3.35491,0.30289 5.18886,2.55378 1.8341,2.25103 2.48445,4.75721 1.45278,5.59774 z m -4.66768,5.7145 c 0.50762,2.48936 -0.33022,4.76205 -1.87121,5.07629 -1.541,0.31424 -3.20185,-1.44905 -3.70941,-3.93847 -0.50753,-2.4893 0.33027,-4.76212 1.87121,-5.07629 1.541,-0.31424 3.20173,1.44903 3.70941,3.93847 z m -5.97478,12.91257 c 0.56217,2.35341 -0.50838,4.62579 -2.39119,5.0755 -1.8827,0.44972 -3.86458,-1.09343 -4.42675,-3.44684 -0.56217,-2.3534 0.50827,-4.6258 2.39093,-5.07564 1.88284,-0.44959 3.86484,1.09358 4.42701,3.44698 z m 28.10097,-27.782 c -1.03745,1.18202 -3.5738,0.65238 -5.66511,-1.18309 -2.09125,-1.83554 -2.94564,-4.28175 -1.90819,-5.46377 1.03744,-1.18202 3.57371,-0.65226 5.66512,1.18322 2.09122,1.83542 2.94562,4.28163 1.90818,5.46364 z m -1.36174,14.83504 c -0.95771,1.09112 -3.79785,0.16422 -6.34381,-2.07027 -2.54598,-2.23445 -3.83358,-4.93044 -2.87594,-6.02162 0.9576,-1.09113 3.79783,-0.16418 6.34389,2.07033 2.54587,2.23443 3.83347,4.93042 2.87586,6.02156 z m -5.49782,7.46862 c 1.17725,2.52123 0.88744,5.14597 -0.64719,5.86258 -1.53463,0.7166 -3.73319,-0.74638 -4.91043,-3.26761 -1.17729,-2.52117 -0.88748,-5.14591 0.64716,-5.86253 1.53463,-0.7166 3.73318,0.74638 4.91046,3.26756 z m -8.59143,7.04256 c 1.57392,1.99434 1.84894,4.40098 0.61438,5.37521 -1.23464,0.97434 -3.51146,0.14738 -5.08524,-1.84699 -1.57389,-1.99439 -1.8491,-4.40093 -0.61435,-5.37526 1.23456,-0.97423 3.51135,-0.14739 5.08521,1.84704 z m 22.72392,-1.10369 c -0.63849,0.72744 -2.70392,-0.0415 -4.61336,-1.71741 -1.90948,-1.67585 -2.93985,-3.62408 -2.3014,-4.35145 0.63837,-0.72744 2.7039,0.0414 4.61326,1.71722 1.90956,1.67591 2.93987,3.62421 2.3015,4.35164 z m 7.53748,-10.58065 c -0.87768,1.00031 -3.43215,0.19376 -5.70533,-1.80141 -2.2732,-1.99501 -3.40422,-4.4231 -2.52643,-5.42339 0.87779,-1.00013 3.43211,-0.19371 5.70542,1.80148 2.27308,1.99498 3.40425,4.42321 2.52634,5.42332 z m -17.37745,31.09033 c -1.27671,1.45483 -4.00723,1.1462 -6.09856,-0.68923 -2.09131,-1.83547 -2.75156,-4.50282 -1.47467,-5.95757 1.27687,-1.45488 4.00731,-1.14631 6.09862,0.68916 2.0913,1.83547 2.75147,4.50277 1.47461,5.95764 z m 11.09559,-6.00042 c -1.11717,1.27291 -3.79199,0.75227 -5.97413,-1.16301 -2.18232,-1.91523 -3.04565,-4.4999 -1.92836,-5.7728 1.11722,-1.27298 3.79191,-0.75235 5.97418,1.16294 2.18223,1.91535 3.04564,4.4999 1.92831,5.77287 z m 20.74373,-22.30658 c -0.71829,0.81826 -3.29072,-0.26506 -5.74577,-2.41981 -2.45491,-2.1546 -3.86294,-4.56474 -3.14459,-5.38307 0.71817,-0.81827 3.29052,0.265 5.74562,2.41967 2.45497,2.15469 3.86289,4.56481 3.14474,5.38321 z m 4.70002,12.57725 c -0.9576,1.09114 -3.42927,0.4877 -5.5206,-1.34773 -2.0913,-1.83548 -3.01034,-4.20795 -2.05262,-5.29908 0.95752,-1.09119 3.42919,-0.48775 5.52048,1.34773 2.09142,1.83549 3.01046,4.20796 2.05274,5.29908 z m -6.96661,14.57919 c -0.8778,1.00029 -4.16938,-0.45329 -7.35176,-3.24632 -3.18241,-2.79315 -5.05078,-5.86831 -4.17288,-6.86841 0.87788,-1.00023 4.16936,0.45316 7.35176,3.24632 3.18246,2.79309 5.05076,5.86817 4.17288,6.86841 z m -10.15508,10.90644 c -1.03745,1.18203 -4.16351,0.13477 -6.98233,-2.33923 -2.81866,-2.47388 -4.26273,-5.43757 -3.22524,-6.61965 1.03744,-1.18202 4.16351,-0.13477 6.98228,2.33912 2.81861,2.47395 4.26267,5.43766 3.22529,6.61976 z m -3.23066,24.27006 c -1.27692,1.45478 -5.62894,-0.27704 -9.72067,-3.86821 -4.09172,-3.59118 -6.37361,-7.68172 -5.09676,-9.13657 1.27693,-1.45478 5.62895,0.27703 9.72059,3.86815 4.09179,3.59124 6.37368,7.68178 5.09684,9.13663 z m 23.38738,-12.69977 c -0.9576,1.09113 -3.79784,0.1642 -6.34371,-2.07024 -2.54603,-2.23455 -3.83364,-4.93053 -2.87604,-6.02166 0.95771,-1.09111 3.79796,-0.16419 6.34391,2.0703 2.54595,2.23449 3.83356,4.93048 2.87584,6.0216 z m 1.4495,-18.2557 c -0.87788,1.00024 -3.43223,0.1937 -5.7054,-1.80134 -2.27319,-1.99518 -3.40428,-4.42335 -2.52648,-5.42347 0.87782,-1.00017 3.43229,-0.19362 5.70545,1.80143 2.27311,1.99511 3.40425,4.42321 2.52643,5.42338 z m 15.61524,-10.48584 c -1.11728,1.2729 -4.7503,-0.0888 -8.11457,-3.0415 -3.36421,-2.95265 -5.18589,-6.37832 -4.06864,-7.65135 1.11733,-1.27297 4.75031,0.0888 8.11458,3.0415 3.36426,2.95273 5.18577,6.37831 4.06863,7.65135 z m 5.89623,11.87849 c -0.87783,1.00016 -3.57967,0.0643 -6.03472,-2.09044 -2.45498,-2.15468 -3.73348,-4.71227 -2.85576,-5.71246 0.87787,-1.00023 3.57967,-0.0643 6.03483,2.09045 2.45497,2.15468 3.73353,4.71221 2.85565,5.71245 z m -5.14234,21.13488 c -0.87786,1.00022 -3.50597,0.12904 -5.87005,-1.94589 -2.36413,-2.07488 -3.56895,-4.56773 -2.69109,-5.56794 0.87786,-1.00021 3.50598,-0.12903 5.87006,1.9459 2.36411,2.07488 3.56893,4.56773 2.69108,5.56793 z m -5.31061,23.3191 c -1.19706,1.36387 -5.33711,-0.3123 -9.24691,-3.74382 -3.90977,-3.43155 -6.10904,-7.31908 -4.91194,-8.68299 1.19706,-1.36388 5.33701,0.31228 9.24689,3.74385 3.90981,3.43151 6.10895,7.31902 4.91196,8.68296 z m 24.87964,-18.38512 c -1.03745,1.18203 -4.16351,0.13477 -6.98216,-2.33913 -2.81867,-2.47385 -4.26273,-5.43757 -3.22528,-6.6196 1.03745,-1.18202 4.1635,-0.13476 6.98207,2.33907 2.81876,2.47392 4.26281,5.43764 3.22537,6.61966 z m 13.92152,-7.89205 c -0.79799,0.90929 -4.3196,-0.87659 -7.86577,-3.989 -3.54614,-3.11229 -5.77392,-6.37246 -4.97586,-7.28169 0.79811,-0.90927 4.31968,0.87665 7.86581,3.98895 3.54618,3.1124 5.774,6.37252 4.97582,7.28174 z M 464.53003,844.37805 C 451.03398,834.2132 432.06395,819.59891 408.80674,802.58775 362.29233,768.56544 298.62923,724.95568 227.312,688.17913 c -16.0965,-8.28412 -72.75331,-58.01439 -91.54022,-102.23339 -7.00155,-16.8386 -19.59382,-33.58202 -19.85694,-36.82615 -0.2503,-1.69388 0.11503,-4.58882 1.14707,-4.99412 2.31091,-0.94499 13.96798,11.93503 16.55675,16.13733 4.69857,7.71483 17.37765,12.09583 16.71969,11.93778 -3.42553,-0.92805 -12.69241,-6.16132 -17.14008,-13.30086 -2.41083,-3.84446 -13.31101,-14.8872 -15.61391,-15.23226 -1.35897,-0.24312 1.65612,-2.06193 2.65733,-2.69657 4.06772,-2.76224 2.74996,-3.04741 5.30525,-6.56819 3.08279,2.19479 10.16628,-5.47319 7.70125,-8.05731 3.00787,0.17111 4.93042,3.02398 8.83014,-1.52084 38.55835,-44.25981 74.27169,12.22436 111.78167,34.89726 32.00528,19.30187 103.11671,87.11278 159.86477,153.6615 28.37403,33.27436 53.15723,66.23318 67.66589,92.65504 7.25433,13.21093 11.94003,24.78762 13.22164,33.9524 1.2816,9.16478 -16.58623,14.55215 -30.08227,4.3873 z"
         style="font-size:12px;fill:url(#linearGradient3477);fill-rule:evenodd;stroke-width:1"
         sodipodi:nodetypes="csssccsssccsssccsssccsssccsssccsssccsssccsssccsssccsssccsssccsssccsssccsssccsssccsssccsssccsssccsssccsssccsssccsssccsssccsssccsssccsssccsssccsssccsssccsssccsssccsssccsssccsssccscccccccccccccssss"
         inkscape:connector-curvature="0" /><path
         transform="matrix(0.3378711,0.2747189,-0.2987853,0.3333829,281.08895,276.52099)"
         sodipodi:ry="10.022522"
         sodipodi:rx="11.692947"
         sodipodi:cy="678.18805"
         sodipodi:cx="262.25598"
         d="m 273.94893,678.18805 a 11.692947,10.022522 0 0 1 -11.69295,10.02252 11.692947,10.022522 0 0 1 -11.69295,-10.02252 11.692947,10.022522 0 0 1 11.69295,-10.02252 11.692947,10.022522 0 0 1 11.69295,10.02252 z"
         id="path2011"
         style="font-size:12px;fill:url(#radialGradient3479);fill-rule:evenodd;stroke-width:1"
         sodipodi:type="arc" /><path
         style="font-size:12px;fill:url(#linearGradient3481);fill-rule:evenodd"
         d="m 203.3178,689.4569 c -10.3319,11.5283 -28.1301,13.2125 -39.7534,3.7617 -11.6233,-9.4508 4.7027,-46.9394 15.0348,-58.4678 10.3319,-11.5283 11.8511,6.0488 23.4743,15.4996 11.6233,9.4507 11.5762,27.6783 1.2443,39.2065 z"
         id="path2010"
         sodipodi:nodetypes="ccccc"
         inkscape:connector-curvature="0" /><path
         style="font-size:12px;fill:url(#linearGradient3483);fill-opacity:1;fill-rule:evenodd"
         d="m 436.53125,806.28125 c -2.92012,0.30814 -3.86236,4.47129 0,10.125 4.84467,6.74304 9.34361,20.33707 7.78125,33.46875 l 29.75,0 c -3.31666,-3.49656 -7.24265,-8.2507 -11.90625,-14.53125 -0.87005,-1.17372 -13.41716,-19.43479 -19.8125,-26.0625 -2.19828,-2.27821 -4.28291,-3.1614 -5.8125,-3 z m 46.65625,6.5 c 1.55319,3.90866 7.44133,25.20745 6.9375,37.09375 l 49.71875,0 C 522.04239,831.81291 489.95252,826.63142 483.1875,812.78125 z"
         id="path2043"
         inkscape:connector-curvature="0" /><path
         style="font-size:12px;fill:#6f6442;fill-rule:evenodd"
         d="m 393.76921,692.33365 c -2.7741,3.09536 -10.49649,-8.53458 -36.34021,-37.53113 -24.93353,-23.46641 -39.88257,-38.25383 -39.24881,-39.89603 1.11859,-1.24815 28.09035,24.43647 54.19461,45.66157 6.5714,3.74645 22.44202,29.66151 21.39441,31.76559 z"
         id="path2009"
         sodipodi:nodetypes="ccccc"
         inkscape:connector-curvature="0" /><path
         style="font-size:12px;fill:none;stroke:#000000;stroke-linecap:round"
         d="m 116.6662,545.3926 c 4.3776,1.1107 8.3063,5.3703 10.9419,8.9758 5.1283,9.2301 12.399,15.7638 17.1004,17.3303 1.3863,0.4617 2.2004,1.4054 3.5595,1.9888"
         id="path2111"
         sodipodi:nodetypes="cccc"
         inkscape:connector-curvature="0" /><path
         style="font-size:12px;fill:url(#linearGradient5359);fill-opacity:1;fill-rule:evenodd"
         d="m 309.55271,605.875 c 17.077,28.3544 -134.6711,42.85686 -145.875,23.71875 6.0807,9.4936 9.10645,10.49053 10.28125,12.375 -10.5971,20.1622 -19.24346,41.39087 -7.78125,50.71875 -15.7992,11.8063 -58.89683,37.71271 -71.843746,65 -9.75387,20.5832 -37.36608,26.02823 -23.90625,63.78125 0.62173,2.0234 2.82669,7.32225 3.40625,11.46875 0.57956,4.1465 -0.4384,7.14152 2.46875,9.46875 7.17137,5.7098 24.186916,-4.20942 31.687496,-5.5625 3.5634,-0.6706 23.4288,-16.66977 28.4375,-21.78125 16.2132,3.4077 22.98465,7.59189 29.15625,2.25 11.7283,-10.4198 3.93665,-22.43512 -8.09375,-26.53125 18.329,-15.5584 32.23751,-51.04143 82.6875,-69.03125 31.3942,-11.6518 26.35291,33.86146 45.25,46.21875 4.3371,-9.328 3.43649,-24.98332 3.0625,-43.90625 15.1155,5.5504 147.95841,96.61033 154.9375,106.28125 2.73856,6.31551 2.7093,12.82781 1.375,19.53125 l 94.65625,0 c -7.63111,-6.88319 -22.20287,-13.82388 -52.1875,-31.75 -20.9598,-36.9572 -34.58026,-62.48103 -93.59375,-127.625 -8.2016,-16.0261 -12.72375,-21.66143 -18.09375,-29.40625 -26.4362,-18.2775 -37.62714,-32.70425 -66.03125,-55.21875 z"
         id="path1805"
         inkscape:connector-curvature="0" /></g></g></svg>