<?xml version="1.0" encoding="UTF-8" standalone="no"?>
<!-- Created with Sodipodi ("http://www.sodipodi.com/") -->

<svg
   xmlns:dc="http://purl.org/dc/elements/1.1/"
   xmlns:cc="http://creativecommons.org/ns#"
   xmlns:rdf="http://www.w3.org/1999/02/22-rdf-syntax-ns#"
   xmlns:svg="http://www.w3.org/2000/svg"
   xmlns="http://www.w3.org/2000/svg"
   xmlns:xlink="http://www.w3.org/1999/xlink"
   xmlns:sodipodi="http://sodipodi.sourceforge.net/DTD/sodipodi-0.dtd"
   xmlns:inkscape="http://www.inkscape.org/namespaces/inkscape"
   id="svg1276"
   sodipodi:version="0.32"
   width="296.63766"
   height="204.41705"
   xml:space="preserve"
   sodipodi:docname="phoque.svg"
   inkscape:version="0.91 r13725"
   inkscape:output_extension="org.inkscape.output.svg.inkscape"
   sodipodi:modified="true"
   version="1.0"><metadata
     id="metadata65"><rdf:RDF><cc:Work
         rdf:about=""><dc:format>image/svg+xml</dc:format><dc:type
           rdf:resource="http://purl.org/dc/dcmitype/StillImage" /></cc:Work></rdf:RDF></metadata><defs
     id="defs1278"><linearGradient
       id="linearGradient1418"><stop
         style="stop-color:#00b7c5;stop-opacity:0.2471;"
         offset="0"
         id="stop1419" /><stop
         style="stop-color:#00a2af;stop-opacity:0.7725;"
         offset="1"
         id="stop1420" /></linearGradient><linearGradient
       id="linearGradient1340"><stop
         style="stop-color:#7a6f6a;stop-opacity:1;"
         offset="0"
         id="stop1341" /><stop
         style="stop-color:#d5d7d7;stop-opacity:1;"
         offset="1"
         id="stop1342" /></linearGradient><linearGradient
       id="linearGradient1310"><stop
         style="stop-color:#917d6a;stop-opacity:1;"
         offset="0"
         id="stop1311" /><stop
         style="stop-color:#d5d7d7;stop-opacity:1;"
         offset="1"
         id="stop1312" /></linearGradient><linearGradient
       id="linearGradient1294"><stop
         style="stop-color:#ffffff;stop-opacity:1;"
         offset="0"
         id="stop1295" /><stop
         style="stop-color:#000000;stop-opacity:1;"
         offset="1"
         id="stop1296" /></linearGradient><linearGradient
       id="linearGradient1290"><stop
         style="stop-color:#000;stop-opacity:1;"
         offset="0"
         id="stop1291" /><stop
         style="stop-color:#fff;stop-opacity:1;"
         offset="1"
         id="stop1292" /></linearGradient><linearGradient
       inkscape:collect="always"
       xlink:href="#linearGradient1310"
       id="linearGradient2239"
       x1="334.89563"
       y1="721.4386"
       x2="661.99615"
       y2="316.82236"
       gradientTransform="scale(0.9502481,1.0523568)"
       gradientUnits="userSpaceOnUse" /><linearGradient
       inkscape:collect="always"
       xlink:href="#linearGradient1310"
       id="linearGradient2241"
       x1="192.94312"
       y1="595.07263"
       x2="71.29454"
       y2="609.94623"
       gradientTransform="scale(0.9545859,1.0475747)"
       gradientUnits="userSpaceOnUse" /><linearGradient
       inkscape:collect="always"
       xlink:href="#linearGradient1310"
       id="linearGradient2243"
       x1="160.89667"
       y1="859.55096"
       x2="463.50537"
       y2="398.85052"
       gradientTransform="scale(1.1307192,0.8843929)"
       gradientUnits="userSpaceOnUse" /><linearGradient
       inkscape:collect="always"
       xlink:href="#linearGradient1310"
       id="linearGradient2245"
       x1="237.51802"
       y1="874.25836"
       x2="381.78644"
       y2="674.45703"
       gradientTransform="scale(1.3205365,0.757268)"
       gradientUnits="userSpaceOnUse" /><linearGradient
       inkscape:collect="always"
       xlink:href="#linearGradient1310"
       id="linearGradient2247"
       x1="657.44122"
       y1="384.42941"
       x2="762.86127"
       y2="373.1348"
       gradientTransform="scale(0.6778659,1.475218)"
       gradientUnits="userSpaceOnUse" /><linearGradient
       inkscape:collect="always"
       xlink:href="#linearGradient1310"
       id="linearGradient2249"
       x1="895.75824"
       y1="304.38452"
       x2="716.55084"
       y2="326.83191"
       gradientTransform="scale(0.5528039,1.8089599)"
       gradientUnits="userSpaceOnUse" /><linearGradient
       inkscape:collect="always"
       xlink:href="#linearGradient1310"
       id="linearGradient2251"
       x1="781.24292"
       y1="280.20306"
       x2="804.02814"
       y2="249.91071"
       gradientTransform="scale(0.5334034,1.8747537)"
       gradientUnits="userSpaceOnUse" /><linearGradient
       inkscape:collect="always"
       xlink:href="#linearGradient1310"
       id="linearGradient2253"
       x1="581.19305"
       y1="380.67068"
       x2="799.9375"
       y2="330.11044"
       gradientTransform="scale(0.6483586,1.5423564)"
       gradientUnits="userSpaceOnUse" /><linearGradient
       inkscape:collect="always"
       xlink:href="#linearGradient1418"
       id="linearGradient2255"
       x1="193.25394"
       y1="815.20807"
       x2="187.19662"
       y2="981.36877"
       gradientTransform="scale(1.3912636,0.718771)"
       gradientUnits="userSpaceOnUse" /><radialGradient
       inkscape:collect="always"
       xlink:href="#linearGradient1294"
       id="radialGradient2257"
       gradientTransform="scale(1.025977,0.9746807)"
       cx="259.90839"
       cy="535.50891"
       fx="259.90839"
       fy="535.50891"
       r="3.8703589"
       gradientUnits="userSpaceOnUse" /><radialGradient
       inkscape:collect="always"
       xlink:href="#linearGradient1294"
       id="radialGradient2259"
       gradientTransform="scale(1.025977,0.9746807)"
       cx="259.90839"
       cy="535.50891"
       fx="259.90839"
       fy="535.50891"
       r="3.8703589"
       gradientUnits="userSpaceOnUse" /><radialGradient
       inkscape:collect="always"
       xlink:href="#linearGradient1340"
       id="radialGradient2261"
       cx="180.98524"
       cy="702.36951"
       fx="180.98524"
       fy="702.36951"
       r="136.41203"
       gradientTransform="scale(1.3140588,0.7610009)"
       gradientUnits="userSpaceOnUse" /><radialGradient
       inkscape:collect="always"
       xlink:href="#linearGradient1290"
       id="radialGradient2263"
       cx="212.87097"
       cy="583.24658"
       fx="212.87097"
       fy="583.24658"
       r="47.984882"
       gradientTransform="scale(1.0889238,0.9183379)"
       gradientUnits="userSpaceOnUse" /></defs><sodipodi:namedview
     id="base"
     inkscape:zoom="0.31834771"
     inkscape:cx="198.26506"
     inkscape:cy="364.13689"
     inkscape:window-width="822"
     inkscape:window-height="592"
     inkscape:window-x="3"
     inkscape:window-y="25"
     inkscape:current-layer="g2210"
     showgrid="false"
     borderlayer="false"
     fit-margin-top="0"
     fit-margin-left="0"
     fit-margin-right="0"
     fit-margin-bottom="0"
     inkscape:window-maximized="0" /><g
     id="g2210"
     transform="matrix(0.8,0,0,0.8,-116.55144,-421.83386)"><g
       id="g1878"><g
         id="g1869"><path
           transform="matrix(0.824696,-0.03321299,0.03063481,0.894102,85.14103,107.3824)"
           sodipodi:nodetypes="ccssssssc"
           id="path1283"
           d="m 310.0553,561.5891 c 1.6704,11.1976 30.4243,11.5831 60.523,41.6506 5.0639,2.7875 29.7455,3.6197 33.4047,3.9032 8.8859,0.9836 25.2908,3.4537 29.8201,3.8129 1.9484,0.007 19.354,6.7553 18.2047,11.2803 -12.5839,48.7088 -181.2351,263.027 -254.6336,53.2987 -7.8721,-22.3142 -2.9342,-77.1379 -1.3011,-90.9131 3.0916,-26.0786 -15.9901,-96.5985 42.5219,-104.5329 59.7887,-8.1902 66.7357,34.7345 71.4603,81.5003 z"
           style="font-size:12px;fill:url(#linearGradient2239);fill-opacity:1;fill-rule:evenodd"
           inkscape:connector-curvature="0" /><path
           transform="matrix(0.824696,-0.03321299,0.03063481,0.894102,85.14103,107.3824)"
           sodipodi:nodetypes="ccccs"
           id="path1304"
           d="m 194.1216,644.4517 c -0.0508,2.759 -0.2386,-26.3982 -7.87,-26.3982 -59.3652,33.4084 -69.2142,85.5303 -84.0405,42.0889 18.3746,-51.8593 62.1584,-97.66 95.6321,-86.8022 -3.7822,28.7431 -4.1124,60.2588 -3.7216,71.1115 z"
           style="font-size:12px;fill:url(#linearGradient2241);fill-opacity:1;fill-rule:evenodd"
           inkscape:connector-curvature="0" /><path
           transform="matrix(0.824696,-0.03321299,0.03063481,0.894102,85.14103,107.3824)"
           sodipodi:nodetypes="cscsss"
           id="path1325"
           d="m 319.05,680.2763 c 33.291,71.9369 100.3932,-57.2053 96.1656,-7.8511 -0.1515,11.5201 -69.5619,90.9544 -127.9036,91.7896 -41.5145,0 -80.18,-46.1318 -90.2025,-94.7962 -9.0279,-47.8197 18.3994,-78.9643 41.7604,-77.2569 33.7767,2.4687 75.0515,77.0323 80.1801,88.1146 z"
           style="font-size:12px;fill:url(#linearGradient2243);fill-opacity:1;fill-rule:evenodd"
           inkscape:connector-curvature="0" /><path
           transform="matrix(0.824696,-0.03321299,0.03063481,0.894102,85.14103,107.3824)"
           sodipodi:nodetypes="cccsscs"
           id="path1306"
           d="m 486.9268,683.6175 c -10.4786,32.9159 -19.0492,-9.6049 -77.4002,-9.6049 -29.1755,0 -39.0113,-15.2544 -60.7589,-19.8982 -6.6897,-1.1718 -17.5199,-4.8998 -29.718,-13.9277 -4.7019,-3.6569 -9.3479,-16.2674 -13.1721,-27.0113 -13.3976,-38.2303 12.1665,-18.5373 19.209,-17.2845 58.9418,2.9528 172.2419,55.052 161.8402,87.7266 z"
           style="font-size:12px;fill:url(#linearGradient2245);fill-opacity:1;fill-rule:evenodd"
           inkscape:connector-curvature="0" /><path
           transform="matrix(0.824696,-0.03321299,0.03063481,0.894102,85.93214,110.3417)"
           sodipodi:nodetypes="cscssccs"
           id="path1331"
           d="m 451.0132,510.7288 c 3.3381,-0.3805 18.4285,-14.0807 23.0251,-13.7531 26.6551,2.7355 -12.5023,112.7929 -28.4497,131.5851 3.325,-19.6367 0.3034,-16.1934 -21.6235,-17.7081 -12.0764,-0.8456 32.1211,3.5659 11.2246,-21.8819 -8.7213,-10.7732 -9.2328,-31.8272 -9.2328,-49.0097 0,-15.1551 6.1072,-45.5188 12.1105,-44.6837 3.4978,0 7.0939,16.1183 12.9458,15.4514 z"
           style="font-size:12px;fill:url(#linearGradient2247);fill-rule:evenodd"
           inkscape:connector-curvature="0" /><path
           transform="matrix(0.824696,-0.03321299,0.03063481,0.894102,85.93214,110.3417)"
           sodipodi:nodetypes="ccsccc"
           id="path1319"
           d="m 479.7797,499.5773 c 9.4493,18.9179 10.0101,89.2705 -12.8914,91.6328 -8.3502,14.7647 -21.9863,44.7703 -21.7017,41.414 0.8514,-15.2666 7.5278,-30.0355 6.9372,-57.655 -5.9058,-20.099 -4.6947,-47.0439 4.0326,-41.138 21.7203,24.8045 30.7103,-13.0121 23.6233,-34.2538 z"
           style="font-size:12px;fill:url(#linearGradient2249);fill-rule:evenodd"
           inkscape:connector-curvature="0" /><path
           transform="matrix(0.939226,-0.12497,0.108555,0.958957,-9.120029,104.0455)"
           id="path1322"
           d="m 427.2861,544.6091 c 0,19.4886 -4.495,35.2873 -10.0399,35.2873 -5.5448,0 -10.0399,-15.7987 -10.0399,-35.2873 0,-19.4886 4.4951,-35.2872 10.0399,-35.2872 5.5449,0 10.0399,15.7986 10.0399,35.2872 z"
           style="font-size:12px;fill:url(#linearGradient2251);fill-rule:evenodd"
           inkscape:connector-curvature="0" /><path
           transform="matrix(0.939226,-0.12497,0.108555,0.958957,-9.120029,104.0455)"
           sodipodi:nodetypes="csccsscc"
           id="path1308"
           d="m 444.0056,506.653 c 4.6182,13.4157 -1.0132,31.1231 -7.5545,49.1442 -10.0373,26.8392 2.7338,42.6872 -6.113,58.3094 -6.4809,2.8653 -15.3622,-1.3051 -24.5764,-5.363 8.2871,-2.0618 13.7052,-8.9689 13.2968,-13.2827 -0.8306,-9.2773 -3.2032,-13.6228 -13.0141,-29.4081 -3.2035,-5.3143 -13.6785,-33.8055 4.4743,-45.9988 7.7079,13.5862 18.7203,5.3927 33.4869,-13.401 z"
           style="font-size:12px;fill:url(#linearGradient2253);fill-opacity:1;fill-rule:evenodd"
           inkscape:connector-curvature="0" /></g><g
         style="font-size:12px"
         id="g1794"><path
           transform="matrix(0.825265,0,0,0.894718,121.9546,100.351)"
           sodipodi:nodetypes="ccccccccccccsscssccccscccsc"
           id="path1416"
           d="m 382.109,599.6777 c 1.2528,0.2056 25.5754,-7.6988 6.811,-31.4324 2.8468,3.4108 19.1919,14.274 22.5517,7.0175 3.483,12.1093 2.9433,22.1064 0.1127,26.9106 l 2.3113,0.7001 c 7.38,-3.5833 6.9033,-10.3054 -0.4922,-19.1302 -0.8861,-4.4183 -3.5785,-14.9937 -3.7435,-18.5596 11.1554,-2.4742 16.1931,0.6243 18.8198,0.9999 0.4858,1.7042 0.9611,8.3357 1.3283,10.6804 10.4791,1.2935 26.5255,-4.0011 28.4518,-8.3591 -1.6388,7.0298 -7.0094,15.6844 -13.2391,16.0379 -5.8747,12.3171 -18.5717,39.4883 -19.7757,42.239 11.5621,6.9142 43.4833,25.9891 42.4841,41.8339 0.1466,4.2974 -3.1107,17.3771 -9.2699,17.4051 -6.5588,0.2521 -28.8533,-18.8998 -56.0963,-19.3174 -58.4181,81.8507 -112.0877,99.5105 -142.4815,95.5498 -41.5454,-5.3867 -72.0581,-51.649 -84.6261,-94.5483 -4.1559,-14.1167 -1.8448,-45.0245 -9.4352,-49.1692 -2.3713,-0.8137 -70.27207,96.2676 -81.99606,48.1471 -4.04743,-15.2515 27.24246,-64.2502 41.57956,-77.9856 15.9563,5.481 26.3889,2.9019 47.188,1.4899 -4.3733,21.1919 8.2253,20.8971 42.606,19.5952 33.1386,-0.4196 50.446,-3.4228 65.4332,-10.9397 24.953,3.2445 23.1072,0.9151 16.1558,-9.523 13.234,-0.7253 23.5724,-12.1842 14.3967,-17.0896 14.0922,6.9893 21.2066,10.4936 35.664,22.8392 5.8728,5.0455 24.4038,3.9887 35.2616,4.6085 z"
           style="font-size:12px;fill:url(#linearGradient2255);fill-opacity:0.44750001;fill-rule:evenodd"
           inkscape:connector-curvature="0" /><path
           transform="matrix(0.825265,0,0,0.894718,121.9546,100.351)"
           sodipodi:nodetypes="ccccccccccc"
           id="path1620"
           d="m 170.4843,543.9086 c -36.4687,0.5835 -78.82697,10.3595 -83.04708,41.4931 -4.22006,31.1335 55.09968,60.9772 132.49428,66.6577 77.3946,5.6805 143.5564,-14.9532 147.7766,-46.0869 4.2201,-31.1334 -28.898,-51.9903 -82.9068,-58.9237 l 0.278,4.3531 c 53.5473,7.6543 76.9899,27.8661 71.5835,54.3919 -5.4064,26.5258 -66.7395,42.8399 -136.991,36.4383 -70.2516,-6.4014 -122.81889,-33.0944 -117.4124,-59.6203 5.4063,-26.5257 43.3532,-34.4877 68.9206,-35.1854 l -0.6957,-3.5178 z"
           style="font-size:12px;fill:#a1eaf0;fill-rule:evenodd"
           inkscape:connector-curvature="0" /><path
           transform="matrix(0.825265,0,0,0.894718,121.9546,100.351)"
           sodipodi:nodetypes="ccccccccccc"
           id="path1621"
           d="m 168.8991,533.6832 c -63.6575,2.6412 -134.12531,18.9792 -139.85147,65.368 -5.72609,46.3887 74.76337,90.8555 179.77817,99.3194 105.0149,8.4639 194.7882,-22.2801 200.5144,-68.6691 5.7261,-46.3885 -52.7945,-85.1428 -126.0776,-95.4735 l 0.3772,3.5332 c 72.6569,11.4048 126.3174,50.9696 118.9815,90.4929 -7.3358,39.5232 -104.7312,69.1464 -200.0538,59.6081 -95.3226,-9.538 -173.73689,-51.6728 -166.40095,-91.1961 6.74508,-47.2008 80.08605,-57.8829 133.08595,-58.9226 l -0.3534,-4.0603 z"
           style="font-size:12px;fill:#a1eaf0;fill-rule:evenodd"
           inkscape:connector-curvature="0" /><path
           transform="matrix(0.825265,0,0,0.894718,121.9546,100.351)"
           sodipodi:nodetypes="cscsccscscc"
           id="path1622"
           d="m 380.9812,557.4263 c -4.0277,6.2536 0.0138,13.4361 0.7745,14.5058 8.4756,12.221 20.6204,19.4508 38.2687,19.9178 30.2464,1.9287 55.3431,-5.2557 57.7523,-15.6478 2.2182,-9.5684 -8.7408,-15.9417 -17.3612,-17.2876 l -0.2565,1.6869 c 8.0162,0.9135 17.1857,6.2384 15.0728,15.2447 -2.1128,9.0063 -27.8541,14.8407 -55.3088,12.6672 -18.3259,-1.1294 -28.2211,-8.8751 -35.296,-18.1549 -1.7957,-2.5947 -5.3322,-7.5334 -3.374,-11.7376 l -0.2718,-1.1945 z"
           style="font-size:12px;fill:#a1eaf0;fill-rule:evenodd"
           inkscape:connector-curvature="0" /></g><g
         style="font-size:12px"
         transform="matrix(0.824696,-0.03321299,0.03063481,0.894102,85.14103,107.3824)"
         id="g1374"><g
           style="font-size:12px"
           id="g1297"><path
             sodipodi:ry="9.8137207"
             sodipodi:rx="8.2476807"
             sodipodi:cy="515.94958"
             sodipodi:cx="270.08551"
             d="m 278.33319,515.94958 a 8.2476807,9.8137207 0 0 1 -8.24768,9.81373 8.2476807,9.8137207 0 0 1 -8.24768,-9.81373 8.2476807,9.8137207 0 0 1 8.24768,-9.81372 8.2476807,9.8137207 0 0 1 8.24768,9.81372 z"
             id="path1288"
             style="fill:#f1f1f1;fill-opacity:1;fill-rule:evenodd;stroke:none"
             sodipodi:type="arc" /><path
             transform="matrix(1.133334,0,0,1.157896,-35.99757,-83.01585)"
             sodipodi:ry="5.9508667"
             sodipodi:rx="6.2640533"
             sodipodi:cy="519.81244"
             sodipodi:cx="269.98114"
             d="m 276.24519,519.81244 a 6.2640533,5.9508667 0 0 1 -6.26405,5.95087 6.2640533,5.9508667 0 0 1 -6.26405,-5.95087 6.2640533,5.9508667 0 0 1 6.26405,-5.95087 6.2640533,5.9508667 0 0 1 6.26405,5.95087 z"
             id="path1289"
             style="fill:url(#radialGradient2257);fill-opacity:1;fill-rule:evenodd;stroke:none"
             sodipodi:type="arc" /></g><g
           style="font-size:12px"
           transform="matrix(0.987925,0.154935,-0.154935,0.987925,29.32935,-43.96762)"
           id="g1300"><path
             sodipodi:ry="9.8137207"
             sodipodi:rx="8.2476807"
             sodipodi:cy="515.94958"
             sodipodi:cx="270.08551"
             d="m 278.33319,515.94958 a 8.2476807,9.8137207 0 0 1 -8.24768,9.81373 8.2476807,9.8137207 0 0 1 -8.24768,-9.81373 8.2476807,9.8137207 0 0 1 8.24768,-9.81372 8.2476807,9.8137207 0 0 1 8.24768,9.81372 z"
             id="path1301"
             style="fill:#f1f1f1;fill-opacity:1;fill-rule:evenodd;stroke:none"
             sodipodi:type="arc" /><path
             transform="matrix(1.133334,0,0,1.157896,-35.99757,-83.01585)"
             sodipodi:ry="5.9508667"
             sodipodi:rx="6.2640533"
             sodipodi:cy="519.81244"
             sodipodi:cx="269.98114"
             d="m 276.24519,519.81244 a 6.2640533,5.9508667 0 0 1 -6.26405,5.95087 6.2640533,5.9508667 0 0 1 -6.26405,-5.95087 6.2640533,5.9508667 0 0 1 6.26405,-5.95087 6.2640533,5.9508667 0 0 1 6.26405,5.95087 z"
             id="path1302"
             style="fill:url(#radialGradient2259);fill-opacity:1;fill-rule:evenodd;stroke:none"
             sodipodi:type="arc" /></g><path
           sodipodi:nodetypes="ccccc"
           id="path1287"
           d="m 278.3332,541.2147 c 0,7.9569 -32.5433,31.3203 -47.1893,0.6264 -7.7555,19.0009 -33.8259,7.3305 -33.8259,-0.6264 0,-7.957 16.0479,-30.9028 38.4196,-30.9028 22.3717,0 42.5956,22.9458 42.5956,30.9028 z"
           style="font-size:12px;fill:url(#radialGradient2261);fill-rule:evenodd"
           inkscape:connector-curvature="0" /><path
           sodipodi:nodetypes="ccccc"
           id="path1285"
           d="m 247.4536,523.7918 c 0,8.8066 -4.4951,-12.742 -15.6862,16.7871 -7.9936,-36.0317 -14.4334,-9.1617 -14.4334,-17.9683 0.2088,-2.5424 5.5033,-7.4329 16.1038,-7.4329 10.6005,0 13.807,6.9069 14.0158,8.6141 z"
           style="font-size:12px;fill:url(#radialGradient2263);fill-opacity:0.61879997;fill-rule:evenodd"
           inkscape:connector-curvature="0" /><path
           id="path1353"
           d="m 257.4994,546.2539 c 11.0636,11.3524 15.5241,18.3253 20.4429,33.2085 m -18.6208,-35.9045 c 14.298,6.8447 20.8881,11.8535 30.6342,24.1302 m -29.6666,-27.3495 c 15.6699,2.3946 23.4311,5.2722 36.3241,14.1871 m -36.8767,-18.3144 c 15.8498,-1.2942 24.6085,0.0411 38.1804,7.9357 m -38.8213,-11.9208 c 15.2192,-4.4815 25.3698,-4.1628 38.9357,2.1748"
           style="font-size:12px;fill:none;stroke:#000000;stroke-width:1.25;stroke-linecap:round"
           inkscape:connector-curvature="0" /><path
           id="path1354"
           d="m 210.5431,540.1986 c -11.0636,11.3524 -15.5241,18.3253 -20.4429,33.2085 m 18.6208,-35.9045 c -14.298,6.8447 -20.8881,11.8535 -30.6342,24.1302 m 29.6666,-27.3495 c -15.6699,2.3946 -23.4311,5.2722 -36.3241,14.1871 M 208.306,530.156 c -15.8498,-1.2942 -24.6085,0.0411 -38.1804,7.9357 m 38.8213,-11.9208 c -15.2192,-4.4815 -25.3698,-4.1628 -38.9357,2.1748"
           style="font-size:12px;fill:none;stroke:#000000;stroke-width:1.25;stroke-linecap:round;stroke-dasharray:none"
           inkscape:connector-curvature="0" /></g></g></g></svg>