<!--Created with Inkscape (http://www.inkscape.org/)--><svg width="100" height="100" version="1.0" id="svg143" xmlns:xlink="http://www.w3.org/1999/xlink" xmlns="http://www.w3.org/2000/svg" xmlns:rdf="http://www.w3.org/1999/02/22-rdf-syntax-ns#" xmlns:cc="http://creativecommons.org/ns#" xmlns:dc="http://purl.org/dc/elements/1.1/"><metadata id="metadata13"><rdf:RDF><cc:Work><dc:format>image/svg+xml</dc:format><dc:type rdf:resource="http://purl.org/dc/dcmitype/StillImage"/><dc:date>2026</dc:date><dc:creator><cc:Agent><dc:title>Timothée Giet</dc:title></cc:Agent></dc:creator><cc:license rdf:resource="http://creativecommons.org/licenses/by-sa/4.0/"/></cc:Work><cc:License rdf:about="http://creativecommons.org/licenses/by-sa/4.0/"><cc:permits rdf:resource="http://creativecommons.org/ns#Reproduction"/><cc:permits rdf:resource="http://creativecommons.org/ns#Distribution"/><cc:requires rdf:resource="http://creativecommons.org/ns#Notice"/><cc:requires rdf:resource="http://creativecommons.org/ns#Attribution"/><cc:permits rdf:resource="http://creativecommons.org/ns#DerivativeWorks"/><cc:requires rdf:resource="http://creativecommons.org/ns#ShareAlike"/></cc:License></rdf:RDF></metadata><g id="g141"><rect style="fill:#5d3405;fill-opacity:1;stroke-width:1.118;stop-color:#000" id="rect372" width="74" height="74" x="13" y="21" ry="4.625"/><path id="rect1088" style="fill:#844816;fill-opacity:1;stroke-width:1.118;stop-color:#000" d="M35 23v20H15v30h20v20h30V73h20V43H65V23z"/><g transform="translate(34.75 24.063) scale(.04375)" id="g21" style="stroke-width:3.42857"><circle r="80" cy="90" cx="120" style="opacity:1;fill:#1eb37f;fill-opacity:.999629;stroke-width:3.42857" id="circle15"/><circle r="70.338982" cy="90" cx="120" style="opacity:1;fill:#66cba8;fill-opacity:1;stroke-width:3.01453" id="circle17"/><ellipse transform="rotate(45)" ry="15.338983" rx="10" cy="-25.923258" cx="92.870682" style="opacity:.553;fill:#d7f1e8;fill-opacity:1;stroke-width:4.24631" id="ellipse19"/></g><use x="0" y="0" xlink:href="#g21" id="use5221" transform="translate(0 10)"/><use x="0" y="0" xlink:href="#g21" id="use5949" transform="translate(10)"/><use x="0" y="0" xlink:href="#g21" id="use5951" transform="translate(20)"/><use x="0" y="0" xlink:href="#g21" id="use5953" transform="translate(10 10)"/><use x="0" y="0" xlink:href="#g21" id="use5955" transform="translate(20 10)"/><use x="0" y="0" xlink:href="#g21" id="use5957" transform="translate(-20 20)"/><use x="0" y="0" xlink:href="#g21" id="use5959" transform="translate(-10 20)"/><use x="0" y="0" xlink:href="#g21" id="use5961" transform="translate(0 20)"/><use x="0" y="0" xlink:href="#g21" id="use5963" transform="translate(10 20)"/><use x="0" y="0" xlink:href="#g21" id="use5965" transform="translate(20 20)"/><use x="0" y="0" xlink:href="#g21" id="use5967" transform="translate(30 20)"/><use x="0" y="0" xlink:href="#g21" id="use5969" transform="translate(40 20)"/><use x="0" y="0" xlink:href="#g21" id="use5971" transform="translate(-20 30)"/><use x="0" y="0" xlink:href="#g21" id="use5973" transform="translate(-10 30)"/><use x="0" y="0" xlink:href="#g21" id="use5975" transform="translate(0 30)"/><use x="0" y="0" xlink:href="#g21" id="use5977" transform="translate(20 30)"/><use x="0" y="0" xlink:href="#g21" id="use5979" transform="translate(30 30)"/><use x="0" y="0" xlink:href="#g21" id="use5981" transform="translate(40 30)"/><use x="0" y="0" xlink:href="#g21" id="use5983" transform="translate(-20 40)"/><use x="0" y="0" xlink:href="#g21" id="use5985" transform="translate(-10 40)"/><use x="0" y="0" xlink:href="#g21" id="use5987" transform="translate(0 40)"/><use x="0" y="0" xlink:href="#g21" id="use5989" transform="translate(10 40)"/><use x="0" y="0" xlink:href="#g21" id="use5991" transform="translate(20 40)"/><use x="0" y="0" xlink:href="#g21" id="use5993" transform="translate(30 40)"/><use x="0" y="0" xlink:href="#g21" id="use5995" transform="translate(40 40)"/><use x="0" y="0" xlink:href="#g21" id="use5997" transform="translate(0 50)"/><use x="0" y="0" xlink:href="#g21" id="use5999" transform="translate(10 50)"/><use x="0" y="0" xlink:href="#g21" id="use6001" transform="translate(20 50)"/><use x="0" y="0" xlink:href="#g21" id="use6003" transform="translate(0 60)"/><use x="0" y="0" xlink:href="#g21" id="use6013" transform="translate(10 60)"/><use x="0" y="0" xlink:href="#g21" id="use6015" transform="translate(20 60)"/><circle style="fill:#321b01;fill-opacity:1;stroke-width:1.118;stop-color:#000" id="path6069" cx="50" cy="58" r="1"/></g></svg>