<?xml version="1.0" encoding="UTF-8" standalone="no"?>
<!-- Created with Inkscape (http://www.inkscape.org/) -->

<svg
   width="387.49454"
   height="382.56522"
   viewBox="0 0 387.49454 382.56522"
   version="1.1"
   id="svg1059"
   xmlns="http://www.w3.org/2000/svg"
   xmlns:svg="http://www.w3.org/2000/svg"
   xmlns:rdf="http://www.w3.org/1999/02/22-rdf-syntax-ns#"
   xmlns:cc="http://creativecommons.org/ns#"
   xmlns:dc="http://purl.org/dc/elements/1.1/">
  <defs
     id="defs1053" />
  <metadata
     id="metadata1056">
    <rdf:RDF>
      <cc:Work
         rdf:about="">
        <dc:format>image/svg+xml</dc:format>
        <dc:type
           rdf:resource="http://purl.org/dc/dcmitype/StillImage" />
      </cc:Work>
    </rdf:RDF>
  </metadata>
  <g
     id="layer30"
     style="display:inline"
     transform="translate(-107.84302,-45.46192)">
    <path
       style="display:inline;fill:#7ce736;fill-opacity:1;fill-rule:nonzero;stroke:#505050;stroke-width:0.5;stroke-linecap:round;stroke-linejoin:round;stroke-miterlimit:4;stroke-dasharray:none;stroke-opacity:1"
       class="polygon"
       d="m 449.33942,426.68935 -0.81186,1.0878 -1.58564,-3.3429 -0.68053,-0.199 -0.0265,-1.5945 0.36879,-0.6235 1.83437,-0.7031 0.48419,0.398 0.93656,3.0962 z m -2.07528,-6.9697 -1.26156,1.2602 -0.54654,-0.7561 0.22551,-0.5174 0.53593,-0.2918 0.50144,-0.4113 z m -3.86056,-6.9167 -1.02809,0.013 -0.30643,-0.5704 -0.43246,-0.597 0.33296,-0.5704 0.54389,-0.1459 0.77206,0.9153 0.18174,0.65 z m 1.25095,-2.3719 -0.62216,0.4908 h -0.15654 l -0.0796,-0.3714 -0.0265,-0.2653 -0.11939,-0.4776 -0.0663,-0.8357 0.49879,-0.7031 0.49879,0.1459 -0.26532,0.7163 z m -271.54127,-2.8176 -0.18704,0.1591 h -0.19236 -0.13796 l -0.0663,-0.1591 0.0398,-0.1327 0.17113,0.1327 0.22419,-0.1327 0.25602,-0.4245 0.0531,-0.1327 h 0.0531 l -0.0531,0.2388 z m 266.28556,0.2653 0.39664,0.4908 -0.73492,-0.1327 -0.67655,-0.7428 0.17644,-0.7031 0.25735,-0.2786 z m -4.68569,-11.7693 -0.58236,0.1327 -0.35685,-0.4511 -0.0398,-0.5306 0.33562,-0.3449 0.31174,-0.1725 h 0.31307 l 0.31174,0.8888 z m -3.77633,-18.81345 -0.40062,0.45105 -1.36809,-0.35825 0.10613,-1.369 -0.32236,-1.3332 0.23746,-0.5571 1.02278,-0.9552 0.8291,-0.4245 0.57971,1.3001 0.26929,1.2735 z m -261.63091,-8.59085 -0.0929,0.13266 -0.008,-0.23878 0.11939,-0.38471 0.14327,-0.25204 h 0.0398 l -0.0398,0.25204 -0.0663,0.34491 z m 264.15576,-2.37057 -0.64471,0.26532 -0.64736,-0.33165 0.50674,-0.53062 0.0796,-1.08778 0.66063,0.61022 -0.0398,0.68981 z m 4.30098,-8.69695 0.59298,1.8227 -1.06656,-0.79594 -0.35021,-0.57042 0.53593,-0.3847 z m -3.97717,-10.98527 -0.42184,0.86227 -0.0796,-1.8479 0.19633,-0.23878 h 0.21491 l 0.26796,0.17245 z m 0.0663,17.62738 -0.29184,0.31837 -0.42981,-0.3449 -1.23105,-2.38119 -0.21092,-1.5282 -0.34226,-0.53062 0.43246,-0.75614 0.54389,-0.25205 0.32236,-0.849 0.11939,-1.30003 0.47491,-1.06125 0.24276,-0.29185 0.98829,-0.0119 0.25205,-0.13265 -0.14062,-1.02146 -0.57705,-0.43776 -0.20031,-0.27858 0.0265,-2.44088 0.1499,-0.98165 0.36082,-0.70308 -0.25337,-1.46585 0.17378,-0.5439 0.71502,-0.7694 0.31572,-1.64096 -0.29052,-0.49083 0.6792,-2.53374 -0.0398,-1.69136 0.89277,-1.69535 1.39011,-0.76941 h 0.43644 l 0.0531,1.44596 0.13266,0.47756 -0.8039,0.849 0.76675,1.11431 -0.10612,0.39797 -0.30644,0.8888 -0.50807,0.86226 -0.70706,0.35818 -0.5492,1.15411 -0.31439,0.43776 1.04533,1.22044 0.33429,4.13888 -0.7641,1.14084 -0.914,0.22552 0.2096,2.76058 -0.16317,0.62348 -0.90737,1.35575 -0.16715,0.59695 -0.51205,0.55716 0.21623,0.68981 0.43511,0.30511 0.0104,0.57042 -0.40593,1.45922 -0.0265,1.66484 z M 248.09287,94.30289 h -0.0398 l -0.7787,-0.98166 0.81319,1.03472 -0.43379,1.08778 0.0796,0.86227 0.80257,0.95512 0.65002,0.66329 -0.6341,0.90206 -0.37541,1.03472 0.42184,0.46429 -0.19898,1.49637 0.1897,0.27858 0.44838,0.13265 0.70175,-0.13265 0.72961,-0.39797 0.61685,-0.13266 0.37011,0.13266 0.49348,-1.14085 0.43246,-0.15918 0.84104,0.31837 1.66457,2.13444 1.40828,1.80413 0.29848,0.25204 0.10613,0.13266 0.25072,0.21225 1.38864,0.92859 0.95911,0.59696 1.31064,-0.21225 h 1.72958 l 1.0241,0.58369 0.59298,0.39796 h 0.0265 l 0.0796,0.0133 h 10e-4 l 2.08058,1.4181 0.90206,-0.13266 0.59563,0.41124 0.1698,1.00818 -0.27725,1.03472 0.0663,0.49083 0.92462,0.13266 1.97167,0.68981 1.74377,0.61022 0.90073,0.19898 0.97105,0.45104 0.85696,0.71634 1.68142,0.92859 1.48469,0.70308 0.32898,0.96839 -0.58501,-0.21225 -0.77604,0.13266 -0.78931,0.4245 -0.37409,0.26531 -1.802,1.65821 -0.94451,0.50409 -0.84768,0.74288 -1.9523,2.24852 -1.12758,2.09862 -0.82247,1.9726 0.0133,1.3982 -0.30379,1.63698 -0.84236,0.92859 -0.51869,0.31838 -0.60889,1.40881 -0.43644,1.64229 0.25205,0.53062 1.04665,0.71634 1.02013,0.70308 1.30269,0.75614 1.24299,0.71635 0.80257,0.13265 0.22153,-0.41123 0.29317,-0.3847 0.91666,0.21225 1.11829,0.70308 0.72828,0.55715 0.32634,0.18572 1.92763,0.94186 1.59864,0.78267 2.02089,0.99493 0.4948,0.61021 0.43379,0.63675 0.9538,0.86227 2.32414,1.51494 1.98334,1.08778 1.61417,0.8888 1.26554,0.62348 0.58634,-0.13266 0.64073,-0.33164 0.56379,-0.18572 0.65399,0.17246 0.9936,0.47756 2.33183,1.43799 2.17119,1.12758 2.36818,-0.19898 0.63012,0.18572 0.44439,1.02145 0.29981,1.03472 2.64543,0.67655 1.74111,0.30511 1.9872,0.55715 1.00686,0.41124 1.05727,-0.51736 0.19235,-0.4643 0.83839,-0.26531 1.38612,0.13266 2.59092,0.79593 1.08512,0.23879 0.90737,-0.75615 1.69323,-0.35817 0.87818,-0.39797 1.84088,0.83574 3.3306,1.06125 1.71524,0.66328 0.40593,0.65002 0.18705,0.61022 -0.0129,1.48575 0.41787,0.67654 3.34095,1.51361 1.09972,0.63675 0.89145,0.21225 h 0.50542 l 0.34756,0.18572 0.2998,0.86227 0.2348,0.19898 0.64206,0.21225 0.6991,0.13266 2.16866,-0.74288 1.48589,-0.57042 1.06125,0.14592 0.68318,0.62349 0.0929,0.91533 0.39664,0.96839 0.75879,0.47756 h 0.81053 l 2.01187,-0.65002 1.61934,0.5041 1.48853,0.18572 1.65171,0.31837 0.64073,0.23878 1.71392,0.79594 2.09212,0.80921 0.81053,-0.13266 3.36828,-1.50565 0.28521,0.18572 0.68583,1.43799 1.02411,0.51736 1.59983,0.45103 1.67373,-0.83573 1.31993,0.23878 1.59612,0.13266 1.53125,-0.39797 1.33174,-0.13266 1.93545,0.71635 0.42185,-0.17246 0.37011,-0.46429 0.75084,-2.07475 0.66328,-1.83596 -0.0531,-1.08778 -0.61288,-1.60647 -1.56375,-2.09199 -0.11939,-0.63675 0.52797,-3.64673 0.57971,-2.1026 0.50012,-0.99492 0.54919,-1.41677 0.0929,-0.65002 -0.0531,-0.59695 -0.53726,-0.35817 -0.14327,-0.45103 0.13399,-0.38471 0.42582,-0.21225 1.77879,-0.26531 2.00019,-0.57042 0.79859,-0.30511 0.60359,-0.30511 0.6142,-0.47756 0.57307,0.0133 1.79285,0.68981 0.63012,0.43777 0.33032,1.32656 0.26796,0.51736 -0.25204,1.34381 -1.07319,3.25671 0.20959,1.22044 0.89809,0.8888 0.78134,0.62348 -0.13265,0.25205 -1.60886,1.04799 -0.28654,0.55715 0.35552,0.54389 0.63675,0.4643 0.28654,0.45103 0.29848,1.38096 0.81583,0.3847 1.61536,0.8888 1.4238,0.65001 2.43928,-0.43776 0.69114,0.29184 1.19922,0.30511 0.93522,0.13266 0.54389,0.22551 0.30511,0.22552 -0.0398,0.27858 0.0531,0.29184 h 1.33956 l 0.70175,0.15919 2.37853,-0.29185 2.3849,-0.41123 1.10237,-1.2337 0.48154,-0.13266 1.37326,-0.47756 1.34991,0.51736 1.48841,0.71634 0.80257,0.21225 1.58312,0.13266 1.54027,-0.13266 3.68957,-0.34491 2.02473,0.18572 1.86038,-1.02145 0.38603,0.003 0.81849,0.79594 h 2.0429 l 1.08911,-0.3847 1.17268,-0.29185 0.74951,-0.13265 0.59828,-0.0106 0.72431,0.13266 0.68185,-0.26531 0.3144,-0.53063 -0.0663,-0.79594 -0.49481,-0.87553 -0.42715,-0.50409 -0.0796,-0.27858 0.13531,-0.63675 0.3794,-0.8888 0.69379,-1.00819 -0.51073,-0.98165 -0.71767,-1.14085 -0.52797,-0.13265 -1.32258,0.26531 h -1.43534 l -1.12758,-0.67655 -0.84104,-0.849 -0.20429,-0.71634 0.24408,-0.87553 0.37409,-0.79594 0.0796,-0.30511 1.07053,0.003 1.48721,0.17245 1.1236,0.22552 0.90605,-0.009 1.64003,-1.02145 h 0.74818 l 0.85696,-0.19898 0.37409,-0.19899 0.26001,0.14592 0.94053,0.13266 h 0.979 l 0.87288,-0.27858 0.87553,-0.43776 1.56097,-0.9286 0.31042,-0.53062 -0.004,-0.49083 -0.29052,-0.31838 -0.2945,-0.15919 0.11939,-0.4245 0.654,-0.71634 2.38755,-1.07452 2.03137,-1.32656 1.11829,-0.99492 0.51205,-1.19391 0.64604,-1.30003 0.60226,-0.51736 1.44051,-0.33164 4.03806,-0.47756 1.27085,-0.51736 1.87709,-0.96839 0.94716,-0.76941 0.52532,-0.62349 0.0531,-0.68981 1.24565,-0.21225 1.08645,-1.11431 1.32391,-1.12758 2.31883,-0.95513 2.05591,-1.2735 0.71635,0.19899 0.74818,0.59695 0.39399,0.66328 0.0796,0.33164 2.62726,0.4245 h 0.41521 l 1.93546,0.59696 1.7825,0.71634 0.98166,0.18572 h 0.47889 l 0.41123,-0.22552 0.48155,-0.63675 0.49348,-0.46429 0.30776,-0.18572 -0.0133,-0.72961 2.5807,-1.42606 2.31751,-1.02145 1.99382,-0.74288 0.58634,0.30511 0.64869,0.57043 0.87819,1.44462 0.53328,0.35817 1.35627,-0.19898 0.24674,0.15919 -0.21357,0.51736 -0.91798,0.65001 -1.18993,0.57043 -0.77604,0.47756 0.25205,1.5733 -0.0531,0.54389 0.33297,0.17246 2.44977,-1.56137 1.17931,-0.30511 0.41521,0.37144 0.13399,0.83573 0.96706,1.72188 0.40991,0.87554 -2.45759,2.08403 -0.90604,1.07451 0.0265,0.38471 -0.0531,0.37143 -0.62746,0.53063 0.0265,0.21225 0.5094,0.33164 0.61818,0.25205 0.30113,-0.009 0.51338,-0.50409 2.32016,-0.71635 0.66593,0.13266 1.63101,1.10105 h 0.7588 l 1.96132,0.33164 1.2536,-0.41124 0.92462,0.38471 1.91476,1.37432 0.43777,0.25204 -0.16184,0.83574 -0.10613,0.91533 0.48287,0.72961 0.0531,0.63675 -0.10612,0.59695 -0.38471,0.41123 -1.06257,0.22552 -0.90605,0.70308 -1.43414,1.02145 -1.15279,0.82247 -0.83706,0.71635 -0.30378,0.75614 0.0929,0.95512 0.24408,0.99492 2.67648,3.66397 -0.0265,0.63675 -0.849,0.17246 -1.1236,-0.41124 -0.96972,-0.58369 -1.09309,-1.56932 -0.87818,-0.4643 -0.87421,-0.13265 -5.19349,0.8092 -1.10636,0.22552 -1.71657,0.58368 -1.20054,1.18064 -0.87022,1.08779 -0.90207,0.43776 -1.31197,0.83574 -3.64155,2.57884 -2.10645,1.11431 -1.37445,0.41123 -0.96441,0.58369 -0.52134,0.95513 -0.39399,0.68981 -0.11939,1.68076 0.24011,2.07076 0.52266,1.32656 0.27725,0.27858 0.0398,0.38471 -0.52266,0.71634 -0.6938,0.61022 -0.33827,0.37144 -0.30776,1.89035 -0.6142,0.92859 -1.12227,1.36636 -0.99891,1.03472 -1.56627,0.80921 -0.59563,0.65001 -0.57042,1.19391 -0.33827,1.00819 -0.0133,0.37144 0.17909,0.31837 0.65134,0.35817 0.79196,0.34491 0.37674,0.54389 0.0531,0.65002 -0.58767,1.56136 -1.05064,2.17291 -1.20585,1.71923 -1.24299,1.63963 -0.29449,0.53063 -1.11697,2.01504 -0.97237,2.76722 -0.65532,1.86514 -0.56644,1.2735 h -0.70043 l -0.849,-0.41123 -2.06108,-0.54389 -1.32126,-0.43777 -0.96176,-0.39797 h -0.66461 l -0.91798,0.25205 -0.93257,0.17245 -0.55185,-0.18571 -1.28146,-1.15411 -0.38868,0.13265 -0.25073,0.55716 0.86492,3.2859 0.56247,1.22043 -0.0929,2.04291 -0.22287,2.50588 -0.33562,2.74068 -0.22021,0.63675 -0.54919,0.72961 -0.72298,0.19898 -0.65797,-0.29184 h -0.52798 l -0.1751,0.4643 0.15255,1.18064 -0.6394,1.35707 -0.47226,1.16738 0.13266,1.12758 0.22419,1.14084 0.75481,2.47935 0.005,0.90206 -0.14857,0.8092 -0.39399,0.33165 h -0.67522 l -0.36613,0.33164 -0.27858,0.50409 -0.76145,1.88239 -0.73093,0.19899 -0.73227,-0.27858 -1.09972,-1.26024 -0.66859,-0.37143 h -0.4245 l -0.18969,0.33164 -0.29317,0.75614 -0.29583,0.50409 -0.73624,0.43777 -0.18174,-0.9286 -0.39001,-4.80481 -0.29582,-1.53085 -0.24144,-2.11852 -0.35684,-0.65002 -0.45103,-1.15411 -0.49481,-0.99492 -0.41787,-0.4245 -0.27062,-1.8678 -0.0929,-2.28965 0.005,-1.07452 -0.5943,-2.23791 -0.5744,-2.53506 -0.78267,0.13265 -0.46164,-0.61021 -0.33562,0.0119 -1.10105,0.57043 -0.8689,-0.18572 -0.64869,0.13265 -10e-4,1.16738 0.10612,1.24697 -0.24939,0.45103 -1.71273,1.45922 -0.47491,0.98166 0.0531,1.02145 0.21093,1.37565 -0.30379,0.70308 -0.7442,0.65001 -1.00023,0.33164 -0.87553,-0.15919 -0.56113,-0.55715 -0.52798,-1.42606 -0.46695,-0.78267 -0.48817,-0.18572 -0.38205,0.21225 -0.0531,0.8888 0.0265,0.74287 -0.11939,0.13266 -0.27195,-0.13266 -0.31307,-0.35817 -0.81451,-3.57243 -1.17135,-2.7513 -0.0663,-1.06125 0.4245,-1.35574 0.52532,-2.09067 1.38493,-1.30003 0.18307,-0.55716 0.22418,-0.43776 0.3396,-0.13266 1.77349,0.13266 0.59695,-0.21225 0.52797,-0.61022 0.7641,-0.49083 0.76676,-0.19898 0.60889,-0.13266 0.97768,0.4643 0.40858,-0.26532 0.29317,-0.86226 0.4245,-0.86227 0.27327,-0.41123 0.65532,-0.18572 h 0.83706 l 0.27726,-0.15919 0.22419,-0.29184 0.20561,-1.14085 1.06921,-2.54435 0.3794,-1.12757 0.0531,-0.19899 -0.0265,-1.26023 0.30378,-0.18572 1.77349,0.61022 0.77206,-0.008 0.42184,-0.25205 0.13797,-0.4643 -0.22685,-0.54389 -1.2589,-0.94186 -2.23858,-1.2735 -2.05591,-0.78267 -3.79702,0.13266 -3.76465,0.25204 -1.10105,-0.13265 -1.37326,-0.34491 h -3.38114 l -4.08715,0.19898 -1.55327,-0.13265 h -0.76675 l -1.53775,0.13265 -2.50681,-0.35817 -1.73461,-0.4643 -1.53643,-0.50409 -1.82402,-0.4643 -0.43777,0.005 -0.2547,-0.17245 -0.17511,-0.41124 -0.0663,-0.53062 0.3794,-2.44619 -0.33562,-3.70641 0.30909,-1.35044 -1.50008,-3.04977 -0.51736,-0.57043 h -0.68848 l -0.44175,0.39797 -0.17245,0.71635 0.24674,0.79593 -0.55053,0.8888 -1.10104,0.29185 -1.28942,-0.30511 -1.06789,-0.4245 -1.36423,-0.90207 -1.03605,-1.2735 -0.0796,-1.40748 -0.46695,-0.91533 -0.63808,-0.43777 -0.46695,-0.13265 -0.41654,0.13265 -0.36879,0.49083 0.31971,0.49083 0.44174,0.68981 -0.14725,0.4643 h -0.39399 l -0.58634,-0.19898 -0.90869,0.13265 -0.87686,-0.35817 h -0.52665 l -0.52266,-0.13266 -0.0265,-0.8092 -0.80258,-1.03472 -1.3511,-1.15411 -1.32789,-0.71634 -0.6394,0.13265 -0.31838,0.78268 0.0796,0.29184 0.46164,0.14592 0.66991,0.45103 0.14725,0.47757 -0.0929,0.4245 -0.82777,0.7694 -0.58369,0.71635 -1.31064,1.04798 -1.11962,1.20718 -0.28919,0.91532 -0.4192,0.82247 -0.1698,0.90207 0.29317,0.62348 0.54124,0.39797 1.39913,0.29184 1.46134,1.22044 1.18462,1.64229 0.66461,0.49083 1.20717,0.55715 h 2.33051 l 0.34888,0.45103 0.33032,1.20718 0.45766,0.4245 1.18595,0.57042 0.0929,0.41123 -0.29052,0.47757 -0.52532,0.3847 -0.96706,0.23878 -0.92462,0.13266 -0.92859,-0.14592 -1.37578,-0.13266 -1.55977,-0.007 -1.10503,3.00997 -0.79063,1.06125 -0.44971,-10e-4 -1.20186,-0.51736 -0.51869,0.13266 -1.38878,2.67435 -0.19633,0.65002 -0.0929,0.49082 0.7389,1.03472 0.88083,0.849 1.05462,0.33165 0.8238,-0.25205 0.66858,0.3449 0.78931,0.86227 1.34739,0.57042 1.90693,0.27858 1.0785,0.67655 0.13398,0.58369 -0.0929,0.59695 -0.1698,1.54677 -0.18571,0.8888 -1.02411,2.3374 -0.73226,2.01505 0.37939,0.95513 0.27062,0.3847 0.25603,0.30511 0.82114,0.75614 0.57308,0.74288 -0.48818,1.9076 0.27062,0.50409 1.1037,0.33164 1.18595,0.25205 0.41123,0.31837 -1.02808,1.93811 0.21755,1.34912 0.43379,1.26023 0.31439,2.06812 0.0531,0.21225 -0.0796,0.51735 0.6739,1.60647 1.04135,3.136 0.0796,1.16737 -0.0531,1.23371 -0.31174,2.06811 -1.04268,-0.009 0.93257,1.38361 0.29715,0.99492 0.13266,1.38759 -1.12227,0.17245 -0.79196,-0.15919 -0.66196,-1.22044 -0.30643,1.10105 -1.18462,1.02146 -0.4245,-0.5041 -0.24276,-0.53062 -0.0398,-0.94186 0.65001,-3.60826 -0.13265,-0.41123 -0.29185,-0.26531 -0.64603,-0.14592 -0.23878,-0.72961 -0.99227,3.8457 0.43776,1.56933 -0.20031,0.71634 -1.83968,0.61022 -1.86408,-1.44595 -0.23878,-0.4643 -0.10613,0.8092 -0.33827,0.99493 -1.74629,-0.18572 -0.86492,-0.76941 0.56512,-1.3133 1.08247,-3.17579 0.20164,-1.41412 -1.44834,-1.03472 -1.22973,-0.63675 -0.70307,-1.44197 0.26796,1.58259 0.65134,0.55716 0.95911,0.39796 1.01217,0.80921 -0.73227,0.98166 -0.70705,0.61021 -1.35774,2.32945 -1.65436,1.30003 -1.93015,0.98166 -6.33487,1.44197 -1.32656,0.58369 -1.94448,1.79617 -1.2536,1.70728 -0.2295,1.72852 0.70971,1.8678 0.57706,2.92507 0.47889,0.59695 -0.67655,1.06125 -1.17533,1.12758 -0.9737,1.5282 0.0929,0.83574 -0.24939,0.57042 -3.33843,1.87841 -0.70176,1.10105 -0.91798,1.08778 -1.09972,-0.62348 -0.64206,0.009 0.88482,0.86227 -0.11939,0.57042 -0.31041,0.33164 -0.83972,0.31838 -4.81927,1.38095 -3.68692,1.3133 h -1.03604 l 0.1897,-0.39797 0.6447,-0.35817 -0.0663,-1.50565 -0.67655,-0.27858 -0.58502,-0.13266 -2.80329,1.83464 -1.13819,1.81341 0.23878,0.34491 0.6341,-0.13266 1.88876,-1.03472 0.87553,0.29185 0.0663,0.39797 -2.86564,1.56932 -6.03043,5.07941 -0.28123,0.99492 -0.78267,1.12758 -1.08115,1.06125 -1.94448,2.58149 -3.7283,3.83643 -1.02941,1.43136 -5.96702,2.95558 -1.08778,0.87553 -2.44459,2.87732 -2.51583,2.3573 -2.93807,1.9527 -5.08989,2.49261 -3.09885,2.35731 -0.96839,1.56667 -0.0663,0.55715 0.33562,0.76941 0.56777,0.70308 0.13265,0.55716 -0.2799,1.00818 -0.15256,0.55716 -0.90737,1.38626 -1.55579,0.98166 -5.0355,2.06811 h -0.66594 l -4.11048,-0.41124 -1.53524,0.37144 -0.63144,0.96839 -1.41199,4.00888 -1.35376,1.06125 -0.48552,0.96839 -0.19501,0.66328 -0.80788,-0.0133 -0.70307,-0.30511 -0.51471,0.21225 -0.58502,-1.34647 -0.98165,-0.27857 -0.81186,-0.13266 -3.47188,1.35707 -1.21248,1.08779 -2.55204,5.13512 -0.63277,3.3111 0.5996,3.65867 0.88615,2.92374 0.17643,1.32656 -0.11939,1.70994 -0.4497,0.83574 -0.32501,0.98166 0.42317,2.03362 1.07186,2.66241 0.26134,1.12758 0.0265,1.16737 0.80522,2.66374 -0.54256,-0.47756 -0.42715,-1.12758 -1.02411,-1.43269 -1.2483,1.42606 0.69114,1.02145 2.33568,1.22044 0.69114,0.99492 -1.50273,8.90124 -1.14084,3.1612 -1.40046,2.07209 -0.74022,0.79594 -1.63486,3.27263 -1.15543,3.9598 -0.2295,1.52554 0.52134,1.70596 -0.58899,1.00819 -0.74022,0.76941 1.40429,-0.34491 0.48022,0.9286 0.17776,0.95512 0.0265,5.67771 -0.15919,5.92055 -1.07849,0.2388 h -1.18728 l -1.04533,-0.1724 -0.75481,-0.2255 -1.87192,0.3183 -1.00818,0.65 -0.80788,1.0878 0.0531,1.8519 -3.46936,4.6708 -0.74818,1.5561 -0.27593,1.4977 0.45104,0.7827 0.88614,0.7959 1.15544,0.3184 2.23472,0.3183 1.07319,0.4378 0.73094,0.7959 -2.63376,-0.849 -3.09487,-0.1724 -7.40355,2.1703 -1.94978,1.5228 -1.08778,1.3133 -0.74819,3.018 -0.13265,2.0164 -0.87819,1.682 -3.84491,2.5829 -2.42894,0.7959 -0.92328,0.6898 -2.86697,-0.8888 -3.12459,-2.2631 -1.3133,-1.2072 -4.63779,-5.8342 -0.84768,-0.7429 -0.93523,-2.4939 -0.14724,-0.9286 -0.25736,-0.3715 -0.44174,-0.252 -0.21093,-0.3847 -1.04135,-2.8548 -0.42715,-2.9768 -0.66328,-3.3243 0.56113,0.2255 0.77472,1.0878 0.38735,1.5905 0.0398,2.222 0.58236,0.252 0.52134,-0.2122 -1.48986,-5.1192 -1.29606,-1.2735 -0.3449,-0.1327 -0.36083,-0.8224 -0.0398,-1.0348 0.11939,-0.4908 -1.03605,-1.6754 -0.36215,-0.995 -2.30199,-5.06625 -1.03339,-3.62816 -1.60262,-4.03541 -1.03074,-1.41411 -1.61284,-3.11345 -1.3511,-1.44728 -1.43282,-1.93943 -1.12625,-0.86227 -0.4391,-0.45103 -3.33193,-6.727 -1.0241,-3.71438 -0.86625,-1.75504 -0.4298,-1.3332 -1.17003,-5.69891 -0.009,-1.02146 -0.14194,-1.11431 -0.82777,-2.41435 -1.45869,-2.60935 -0.42185,-1.62504 0.004,-0.63675 -0.92594,-2.53241 -0.19766,-1.15411 -0.62614,-1.07451 -0.72563,-0.98166 -0.76012,-0.78267 -1.78131,-2.56425 -0.63807,-0.62348 -1.21248,-1.66351 -0.86094,-3.07365 -1.10768,-1.20717 h 1.73978 l -1.06125,-1.12758 -0.50542,-0.74288 -0.55848,-0.46429 0.8092,-1.14085 h -1.32656 l -0.70175,-0.68981 -0.95778,-2.15169 -1.74629,-2.43026 -0.29715,-1.30003 -1.54027,-4.08184 -1.30534,-9.79932 -1.19523,-4.36307 0.0929,-1.24697 -1.4445,-3.77805 -0.70573,-2.53374 -0.29052,-2.14239 -0.38337,-1.41147 -0.34491,-2.79241 -0.55318,-0.8888 -0.0663,-0.53063 0.36878,-1.2735 1.03605,-1.96596 0.38072,-1.24697 -0.4444,-1.75505 -0.94717,1.8426 -0.87553,0.51736 -0.41919,-1.37697 -0.004,-1.84923 -0.10612,-0.43777 0.22684,-0.62348 2.32918,0.29184 -2.64397,-1.14084 -0.31705,-0.66329 -0.0929,-0.49082 0.57042,-0.91533 -0.96574,-0.76941 -0.38603,-2.37322 -0.28521,-0.54389 -0.10612,-0.43777 0.54654,-3.27661 2.28381,-6.43648 0.16715,-1.45392 -0.19633,-2.06546 -0.5094,-1.64493 -0.21491,-1.73913 -0.13796,-0.45103 -0.82645,-0.15919 -0.78532,-0.63675 -0.91003,-2.57751 0.83176,-0.849 0.6394,-0.4643 -0.88084,0.19899 -0.73093,-0.13266 1.3836,-1.18064 1.23371,-0.91533 2.81125,-1.06125 1.19391,-0.67655 -1.76964,0.61022 -1.8487,0.22552 -3.93564,-0.13266 0.65532,-2.40108 0.6845,-0.79594 0.74553,-0.45103 -1.09707,0.13266 -1.26288,-0.18572 0.40858,-2.43822 0.99359,-0.53063 1.07319,-0.13266 1.33174,-0.3449 -1.42234,-0.39797 -1.48336,-0.18572 -1.77999,0.39797 -1.63618,-0.29184 -1.98719,0.007 0.79328,0.33164 0.84768,0.74287 -0.4245,1.32657 -0.3993,0.82247 -1.09574,0.57042 -0.89278,0.86226 -0.24939,0.75615 -0.5094,0.53062 0.87155,0.3847 0.90206,0.26532 0.524,0.61022 0.6142,0.88879 -0.0398,1.72719 -2.35399,4.07255 -0.81318,0.90206 -5.8918,2.45547 -2.31631,1.33718 -4.93309,1.73647 -1.92246,0.31837 -2.12714,-0.3449 -3.10787,-1.32657 -4.74539,-3.3761 -1.2337,-1.11431 -3.79304,-4.33654 -2.73869,-2.2923 -2.0766,-2.13577 -2.57022,-2.01637 -2.42642,-2.72344 -0.51603,-1.2337 0.18041,-1.26024 0.90472,-0.68981 1.05727,0.27858 0.83441,1.06125 0.59164,0.47756 0.50012,0.19899 3.61687,-1.63035 1.40563,0.13266 0.96043,-0.82247 1.21381,0.17245 2.47828,-1.2735 1.0387,-0.13266 1.23503,-0.25204 1.99635,-3.22355 1.4949,-2.04954 0.96839,-0.4245 -0.0531,-0.5041 -0.26664,-0.65001 -0.72563,0.15918 -0.50807,0.62349 -0.37542,0.75614 -0.37807,0.45103 -1.17136,-0.41123 h -0.7893 l -0.9737,0.25204 -3.56129,1.20718 -1.46121,1.07451 -0.99492,0.21225 -5.68711,-1.18064 -5.55631,-2.72211 -2.33966,-1.80678 -1.47939,-2.30954 -1.48203,-2.75262 0.48154,-0.76941 2.29947,-1.6529 1.98467,-1.30003 -1.78264,0.58369 -1.93015,0.8092 -0.95512,0.55716 -1.08115,1.18064 -1.438,0.26531 -0.57042,-1.74973 -0.35817,-1.70464 0.91665,-0.57042 0.64073,-0.35817 1.30932,-0.30511 1.425,-0.21225 1.2987,0.009 h 1.82403 l 0.0531,-3.99296 0.15255,-0.34491 0.25603,-0.19898 0.2945,-0.13266 h 0.24939 l 0.37542,0.59696 h 0.46695 l 0.49481,-0.34491 1.11166,0.25205 0.88879,-0.17246 0.90207,0.23879 1.53258,0.005 2.76455,-0.13265 h 1.5351 l 0.99492,0.63675 1.08779,0.70307 1.18064,0.13266 1.70609,-0.13266 1.15809,-0.26531 0.58369,-0.65001 0.43909,-0.62349 2.53135,-0.91533 2.65578,-0.74287 0.76277,-0.13266 0.24276,0.43777 -0.11939,0.72961 0.31042,0.68981 1.0639,0.43777 0.75349,0.13265 0.67655,-0.13265 0.50144,-0.22552 1.07584,-1.08778 0.55583,-0.25205 h 0.72563 l 0.81186,-0.51736 0.0133,-0.39797 -0.51868,-0.18572 -0.43777,-0.57042 0.0796,-0.4643 -0.13266,-0.65001 0.0929,-0.62349 0.3449,-0.46429 0.60359,-0.45104 -0.36082,-0.92859 -0.92595,-1.77627 -0.96971,-2.27373 -1.02411,-1.89566 -1.29871,-1.66085 -0.66991,-1.22044 0.0663,-2.69027 -0.11939,-0.54389 -0.44573,-0.33164 -0.60093,-0.18572 -0.84502,0.27858 h -0.76012 -1.63619 l -0.80257,-0.27858 -2.18166,-2.70089 -0.28654,-1.06125 -0.0115,-1.08778 0.72828,-1.89433 0.22021,-1.76035 0.10613,-1.64361 -0.11939,-0.4643 -0.43777,-0.55716 -0.73359,-0.41123 -1.96265,-0.13266 -2.32799,-0.54389 -1.7955,-0.95512 -1.24166,-0.58369 -0.34093,-0.37144 -0.14857,-0.43776 0.325,-1.98587 0.56379,-2.23924 0.41124,-0.68981 0.71104,-0.70308 0.52664,-0.47756 0.84237,-0.63675 2.27479,-2.13577 2.03654,-2.93303 1.25626,-2.04689 0.65532,-0.61022 0.66859,-0.51736 0.98298,-0.63675 1.13156,-0.57042 h 1.12625 l 1.07054,0.51736 0.79461,0.61022 0.26531,1.35442 0.56379,0.87553 0.60757,0.53063 0.80389,0.25204 h 1.02146 l 4.11049,-1.5534 1.3978,-0.31838 3.35395,-0.19898 2.30463,-0.59695 2.03787,-0.62349 0.24674,-1.12758 0.78533,-1.7232 2.39404,-2.2419 0.67257,-0.99492 0.72563,-1.91158 0.77074,-1.7431 0.66195,-0.72961 3.76333,-1.9129 3.68426,-1.76035 0.60226,-0.79594 2.38238,-3.64938 1.3641,-2.47669 0.35419,-0.79594 0.78931,-2.15301 0.85431,-2.14107 1.13819,-0.49083 2.5275,-0.82247 2.00536,-0.79594 1.02544,-0.91533 0.62216,-0.79594 -0.11939,-0.79593 -0.55583,-0.9286 0.11939,-0.55715 0.10612,-0.5439 1.45484,-1.11431 2.74121,-3.30712 1.64136,-1.65157 0.54389,10e-4 1.71657,-0.87553 1.63221,-0.99492 -0.0929,-0.45103 -0.20429,-0.58369 -0.93656,-0.26531 -0.29317,-0.70308 0.2295,-1.00819 0.78267,-2.70619 -0.16051,-0.7694 -0.9538,-2.50721 0.21225,-0.68981 0.39266,-0.70308 1.0639,-0.94186 1.37592,-0.78267 4.40458,-1.86382 0.89278,-0.19899 1.52993,-0.4643 0.93655,-0.994916 0.11939,-0.84767 -0.40991,-0.52665 -0.91533,-0.70573 -1.71909,-0.6394 -1.54943,-0.55583 -2.63243,0.0531 -1.36795,-0.47756 -0.37011,-0.3343 -0.19235,-1.17798 0.26398,-1.98919 -0.4099,-0.1751 -0.58502,0.2348 -1.3913,-0.23613 -1.70874,0.0265 -0.65135,-0.55317 0.32501,-0.66859 -0.0929,-0.89013 -0.25337,-0.84634 -0.26531,-0.17644 -0.81584,-0.20163 -1.27085,-0.73094 -1.02278,-0.90206 -0.60093,-0.61022 -0.18572,-0.42052 0.0531,-0.27858 0.74553,-0.784 0.8941,-1.09972 0.32899,-0.94451 0.0929,-0.68451 -0.24939,-0.50542 -0.81584,-0.61818 -0.87155,-0.53991 -0.35154,-0.46961 -0.0133,-0.70971 0.32501,-0.88747 1.02676,-0.66991 1.82018,-0.63543 0.46828,-0.7893 -0.0531,-0.58502 -0.49746,-0.1751 -1.27881,-0.004 -2.15831,-0.20031 -0.36481,-0.32235 -0.24276,-0.43246 -0.003,-0.42848 0.45634,-0.48818 0.54654,-0.61685 -0.0929,-0.60093 -0.6341,-0.6792 -1.52077,-0.49747 -0.20429,-0.70175 0.23347,-0.58501 0.5041,-0.83441 0.43776,-0.58104 1.03605,-1.65051 1.25493,-0.36082 1.54027,-0.53328 1.70357,-0.59032 2.62076,0.44175 1.27616,0.21623 2.58175,0.50409 2.1635,0.42317 2.21005,0.11939 0.91533,-0.0265 1.01615,0.49879 2.5003,0.85829 2.02991,0.45103 1.37459,-0.005 2.02871,-0.7588 1.01084,-0.69379 1.36278,-0.76145 1.74377,0.0265 3.77102,-1.17269 0.70573,0.20164 1.12094,0.0663 1.35124,-0.67787 0.6991,-0.8039 0.10613,-0.40195 0.33694,-0.29715 1.44317,-0.51073 1.44834,-0.70706 0.39532,-0.9339 0.23878,-0.63144 1.59081,-0.81716 1.65038,-0.849 1.73077,-0.8888 1.9653,-1.01084 1.66338,-0.85564 1.35893,-0.69777 0.15256,0.15123 0.53858,0.3144 0.57573,0.15653 0.67655,-0.2998 0.84369,-0.24674 0.44042,0.13796 0.0663,0.40327 -0.50808,1.89009 0.0398,0.74155 0.8437,1.54027 1.09706,2.49965 1.02942,2.3435 0.60889,1.53775 0.59563,0.63012 2.50415,0.64206 2.05723,0.52797 1.22442,0.86492 1.34991,0.83043 0.94982,0.5094 0.44705,0.65399 0.0929,0.59033 -0.0796,0.39664 -0.51603,0.52134 -2.37084,1.34341 -0.28256,0.42582 -0.0663,0.55981 0.46562,1.66856 0.29317,1.04533 0.0796,2.10194 0.15787,1.9982 0.83838,0.91002 0.68584,0.58767 0.42052,0.53328 0.85165,0.73093 0.71502,0.54522 0.61022,0.3197 0.30113,0.72033 -0.17909,0.84634 -0.24939,0.73757 0.0796,0.39665 0.4895,0.28123 0.75216,0.73491 0.0929,1.07717 -0.0531,0.74023 0.29715,0.66593 0.0796,0.7389 -0.23082,1.84485 0.0398,0.83441 -0.65532,0.0531 -0.56512,0.28388 -0.80124,1.16207 -0.91931,0.30644 -1.04401,0.0929 -1.07584,-0.71369 -0.88349,-0.74421 -0.23613,-0.41388 -0.22286,-0.784 -0.47491,-0.51206 -0.91931,0.24011 -1.39515,0.10613 -1.51055,0.17378 -0.27593,0.17245 -0.0265,0.33031 0.36878,0.70574 0.31573,0.9193 0.18572,1.28677 0.4099,0.85033 0.13266,0.27858 2.41222,2.556276 0.63543,0.51736 0.13265,0.34491 z"
       id="path2380-4" />
  </g>
</svg>
