<?xml version="1.0" encoding="UTF-8" standalone="no"?>
<!-- Created with Inkscape (http://www.inkscape.org/) -->

<svg
   width="3.4005058"
   height="18.994799"
   viewBox="0 0 3.4005058 18.994799"
   version="1.1"
   id="svg1059"
   xmlns="http://www.w3.org/2000/svg"
   xmlns:svg="http://www.w3.org/2000/svg"
   xmlns:rdf="http://www.w3.org/1999/02/22-rdf-syntax-ns#"
   xmlns:cc="http://creativecommons.org/ns#"
   xmlns:dc="http://purl.org/dc/elements/1.1/">
  <defs
     id="defs1053" />
  <metadata
     id="metadata1056">
    <rdf:RDF>
      <cc:Work
         rdf:about="">
        <dc:format>image/svg+xml</dc:format>
        <dc:type
           rdf:resource="http://purl.org/dc/dcmitype/StillImage" />
      </cc:Work>
    </rdf:RDF>
  </metadata>
  <g
     id="layer37"
     style="display:inline"
     transform="translate(-176.29593,-457.90275)">
    <path
       d="m 177.32326,458.15605 -0.0648,0.015 -0.0802,0.065 -0.0278,0.01 -0.0123,0.062 v 0.065 l 0.0801,0.059 0.0586,0.021 0.0678,0.059 0.0525,0.052 0.0492,0.055 0.0679,-0.015 h 0.0432 l 0.0154,-0.062 -0.0185,-0.04 0.0585,-0.036 v -0.052 l -0.0401,-0.108 -0.0493,-0.04 -0.0309,-0.04 -0.0617,-0.043 -0.0452,-0.021 h -0.0103 z m 0.63519,0.3546 -0.10792,0.059 -0.0987,0.1232 -0.0925,0.068 -0.13877,0.01 -0.0493,0.059 -0.071,0.1881 -0.0801,0.1358 -0.035,0.2065 c 0,0 0.0134,0.1512 0.004,0.1604 -0.009,0.01 0,0.1388 0,0.1388 l 0.037,0.222 0.12338,0.1079 0.0956,0.108 v 0.1203 l 0.0247,0.1357 0.074,0.1634 0.0433,0.1326 0.16652,0.188 0.0709,0.1882 v 0.099 l 0.0586,0.145 0.077,0.1048 0.0771,0.096 0.089,0.108 0.13914,0.071 0.12649,-0.031 0.077,-0.055 0.0123,-0.1141 0.0555,-0.1635 0.0771,-0.081 v -0.1233 l -0.10487,-0.1604 -0.17882,-0.067 -0.0956,-0.077 -0.037,-0.1696 -0.0123,-0.145 v -0.1172 l -0.0987,-0.2066 -0.0771,-0.1572 -0.13878,-0.096 -0.0679,-0.019 -0.10799,-0.067 -0.0563,-0.065 v -0.1295 l 0.0193,-0.1666 v -0.099 l 0.0308,-0.111 0.0648,-0.096 0.10177,-0.1141 0.10177,-0.096 0.0601,-0.1203 0.0324,-0.065 v -0.1018 l -0.0246,-0.065 -0.0401,-0.059 h -0.0525 z m -1.08252,1.2891 -0.0617,0.028 -0.0816,0.043 -0.0571,0.071 -0.0493,0.059 -0.0525,0.096 -0.0278,0.093 v 0.059 l 0.034,0.058 h 0.071 l 0.0493,-0.034 0.037,-0.1266 0.0154,-0.089 0.10176,-0.1357 0.0648,-0.077 -0.0185,-0.043 z m 0.57361,1.0177 -0.034,0.04 0.034,0.04 0.0431,-0.012 0.0123,-0.043 z m 0.0109,0.1911 -0.0324,0.024 -0.0617,0.09 -0.0812,0.095 -0.0514,0.2006 -0.0525,0.151 -0.0215,0.108 -0.0278,0.1603 v 0.145 l 0.0585,0.074 0.0678,0.05 0.0124,0.086 c 0,0 -0.0124,0.062 -0.0124,0.071 0,0.01 -0.009,0.031 -0.009,0.031 l -0.0308,0.022 0.0185,0.031 h 0.074 l 0.12953,-0.015 0.14499,-0.093 0.0678,-0.04 0.0525,-0.1634 0.0185,-0.1203 v -0.111 l -0.0185,-0.1572 -0.0401,-0.09 -0.0246,-0.2035 -0.0154,-0.1234 -0.0493,-0.089 -0.037,-0.096 -0.0555,-0.036 z m 1.30289,0.8234 -0.0493,0.012 -0.0555,0.037 -0.0895,0.047 -0.0493,0.055 -0.0802,0.052 -0.0462,0.1419 -0.0123,0.099 0.077,0.031 0.11724,0.013 0.11102,0.046 0.0462,0.065 0.0308,0.086 0.11102,0.04 0.10177,-0.031 0.13574,-0.083 0.0339,-0.1665 -0.0864,-0.1265 -0.0801,-0.093 -0.0925,-0.062 -0.0709,-0.05 -0.0475,-0.092 -0.005,-0.01 z m -1.07622,0.4595 -0.0925,0.031 -0.10797,0.055 -0.0586,0.019 -0.0525,0.04 -0.074,0.043 -0.0164,0.024 -0.0483,0.077 -0.0309,0.055 -0.007,0.091 -0.0184,0.063 -0.0278,0.067 -0.0216,0.071 0.037,0.059 0.0154,0.055 0.0586,0.081 0.0864,0.019 0.0987,0.021 0.12337,-0.04 0.17268,-0.1295 0.0987,-0.081 0.16342,-0.1943 0.0648,-0.065 -0.037,-0.099 -0.0987,-0.099 -0.0709,-0.074 -0.071,-0.077 z m 0.94981,0.9128 v 0.019 0.062 h 0.0617 l 0.0154,-0.065 z m -1.33839,0.2221 -0.037,0.04 v 0.055 l 0.0431,0.052 0.0895,0.019 0.10798,-0.036 0.0893,-0.067 0.034,-0.036 -0.0154,-0.01 -0.0308,-0.015 h -0.0678 -0.0833 -0.068 z m 1.30752,0.2312 -0.0833,0.015 -0.0246,0.055 0.0493,0.05 h 0.0524 0.0925 0.0709 v -0.071 l -0.074,-0.034 z m 0.074,0.1758 -0.0895,0.111 -0.0617,0.1327 -0.0308,0.031 -0.0432,0.081 -0.007,0.055 -0.007,0.093 -0.003,0.083 -0.0247,0.1295 v 0.1449 0.1049 0.1172 l 0.0278,0.052 0.0987,0.083 0.0401,0.065 h 0.0771 0.12027 l 0.0709,-0.012 0.0525,-0.093 0.0278,-0.1665 0.0632,-0.1049 0.0849,-0.067 0.1233,-0.093 0.074,-0.077 v -0.1234 l -0.074,-0.083 -0.1233,-0.086 -0.0679,-0.071 -0.0524,-0.1141 -0.0864,-0.089 -0.0925,-0.065 -0.0679,-0.036 z m -1.15032,0.8882 -0.0402,0.028 -0.0185,0.046 0.0185,0.081 0.071,0.043 0.077,-0.036 0.0278,-0.09 -0.0555,-0.055 h -0.0801 z m -0.35467,0.1172 -0.1048,0.028 -0.0648,0.031 -0.0648,0.219 -0.0215,0.083 -0.007,0.2529 -0.034,0.3454 -0.0153,0.3145 0.0709,0.3393 v 0.077 l 0.0217,0.1727 0.0832,0.043 0.15106,0.025 0.0956,0.012 0.10177,-0.086 0.0865,-0.1017 0.0585,-0.3054 v -0.219 -0.114 l -0.0278,-0.105 -0.0215,-0.096 v -0.081 -0.1358 -0.1357 l -0.0125,-0.1356 -0.0678,-0.1512 -0.0832,-0.1233 -0.0802,-0.09 z m 1.53578,0.3607 -0.11716,0.019 -0.0339,0.062 -0.0648,0.034 -0.0216,0.1295 -0.0124,0.2622 v 0.1356 l 0.0802,0.1141 h 0.0956 l 0.0956,-0.1141 0.074,-0.1172 0.0648,-0.2899 v -0.096 l -0.0401,-0.1201 -0.074,-0.019 z m -0.0554,1.0393 -0.0617,0.031 -0.0801,0.022 -0.0709,0.067 -0.11102,0.1541 -0.037,0.1049 -0.0462,0.055 v 0.1048 l 0.0433,0.05 0.0709,0.019 0.11413,0.037 0.0863,0.1264 0.0555,0.09 0.10488,0.055 0.1079,-0.024 0.0401,-0.059 0.071,-0.019 0.14803,-0.028 0.11102,0.028 0.11413,-0.037 0.0956,-0.052 0.0215,-0.1264 -0.0709,-0.1017 -0.0617,-0.034 -0.11102,0.052 -0.0709,0.04 -0.0956,0.019 -0.0956,-0.055 -0.074,-0.1264 -0.0462,-0.1603 -0.0309,-0.1388 -0.10951,-0.093 z m -1.25498,0.8574 -0.0617,0.021 -0.0864,0.015 -0.077,0.067 -0.034,0.081 0.0278,0.1048 0.0679,0.1233 v 0.1172 c 0,0.015 0.0493,0.071 0.0493,0.071 l 0.0987,0.05 0.14788,-0.04 0.11117,-0.071 0.0401,-0.2097 v -0.083 l -0.0894,-0.1234 -0.0802,-0.065 z m 1.19333,0.1233 -0.0493,0.04 v 0.062 l 0.0586,0.022 0.0956,-0.028 v -0.077 l -0.071,-0.019 z m -0.11406,0.2548 v 0.1646 0.2005 0.1387 l -0.0155,0.083 -0.0216,0.2158 v 0.1728 l 0.10177,0.037 0.15424,-0.099 0.12642,-0.1295 0.12338,-0.043 0.0185,-0.062 0.0894,-0.1079 0.0432,-0.1943 0.037,-0.1017 0.0462,-0.111 -0.0648,-0.022 -0.0678,-0.04 -0.16653,0.01 -0.14499,-0.109 h -0.17267 -0.0648 z m -1.06698,0.3897 -0.12642,0.04 -0.0771,0.1327 -0.0462,0.059 v 0.1697 0.1633 l 0.0617,0.1419 0.0402,0.1234 0.17579,-0.05 0.12951,-0.1018 0.074,-0.086 0.0185,-0.2251 v -0.1973 -0.037 l -0.0309,-0.096 -0.0467,-0.016 -0.0149,-0.01 -0.0586,-0.015 z m 0.43172,1.0577 -0.12027,0.036 -0.12952,0.04 -0.13567,0.022 -0.0864,0.077 -0.0339,0.034 v 0.1387 l 0.0339,0.074 0.0124,0.1263 0.0431,0.1697 0.0462,0.1327 0.12953,0.067 0.13494,0.012 0.17037,-0.077 0.22825,-0.114 0.16653,-0.111 0.13863,-0.1141 0.068,-0.108 -0.0555,-0.1234 -0.0801,-0.111 -0.0956,-0.043 h -0.11716 l -0.0617,-0.036 -0.0802,-0.046 -0.0801,-0.024 z m 1.12256,0.9869 -0.0401,0.015 -0.037,0.04 -0.10798,0.052 -0.11717,0.058 -0.20664,0.145 -0.13257,0.067 -0.10797,0.083 -0.0524,0.074 v 0.093 l 0.0154,0.1079 0.0679,0.028 0.0555,0.086 0.1079,0.019 0.11103,-0.04 0.11102,-0.015 0.14188,-0.05 0.10177,-0.1974 v -0.1604 -0.1418 -0.1511 l 0.11413,-0.099 v -0.015 z m -0.76167,2.9083 -0.0555,0.022 -0.034,0.031 -0.0709,0.046 -0.0124,0.031 0.0185,0.077 0.0493,0.062 0.0648,0.083 -0.0371,0.1141 -0.14491,0.1387 -0.13878,0.059 -0.10568,0.1079 -0.11022,0.077 -0.0585,0.1203 v 0.1263 l 0.0215,0.1296 0.0462,0.1325 0.0493,0.1296 0.10791,0.096 0.0864,0.09 0.13256,0.04 h 0.11723 l 0.13568,-0.036 0.0679,-0.077 0.11717,-0.034 0.0894,-0.019 h 0.0987 l 0.14802,-0.1296 c 0,0 0.12953,-0.096 0.12953,-0.111 0,-0.015 0.0801,-0.1665 0.0801,-0.1665 0,0 -0.0246,-0.043 -0.0309,-0.065 -0.007,-0.022 -0.0678,-0.1171 -0.0678,-0.1496 0,-0.033 -0.11724,-0.1835 -0.11724,-0.1835 l -0.10177,-0.08 -0.009,-0.1232 -0.0123,-0.1697 -0.0833,-0.2065 -0.0771,-0.1296 c 0,0 -0.009,0 -0.0216,0 -0.0124,0 -0.12027,0 -0.12027,0 z m 0.37,2.7507 -0.0401,0.019 0.0185,0.055 0.0154,0.031 0.0185,0.052 0.0124,0.065 0.0292,0.046 0.0293,-0.055 v -0.1048 l -0.0585,-0.09 z m -0.49338,0.7679 -0.0525,0.022 -0.0925,0.031 h -0.0401 l -0.0462,-0.012 -0.0216,-0.019 h -0.0492 v 0.1141 l 0.0339,0.071 c 0,0 0.0679,0.059 0.0771,0.059 0.009,0 0.0308,0.046 0.0308,0.046 h 0.074 l 0.0679,-0.05 0.0678,-0.09 0.0247,-0.062 v -0.09 l 0.0123,-0.01 -0.0123,-0.015 z"
       id="polygon4-3"
       style="display:inline;fill:#e76036;fill-opacity:1;stroke:#505050;stroke-width:0.5;stroke-miterlimit:4;stroke-dasharray:none;stroke-opacity:1" />
  </g>
</svg>
