<?xml version="1.0" encoding="UTF-8" standalone="no"?>
<!-- Created with Inkscape (http://www.inkscape.org/) -->

<svg
   width="108.08707"
   height="53.802639"
   viewBox="0 0 108.08707 53.802639"
   version="1.1"
   id="svg1059"
   xmlns="http://www.w3.org/2000/svg"
   xmlns:svg="http://www.w3.org/2000/svg"
   xmlns:rdf="http://www.w3.org/1999/02/22-rdf-syntax-ns#"
   xmlns:cc="http://creativecommons.org/ns#"
   xmlns:dc="http://purl.org/dc/elements/1.1/">
  <defs
     id="defs1053" />
  <metadata
     id="metadata1056">
    <rdf:RDF>
      <cc:Work
         rdf:about="">
        <dc:format>image/svg+xml</dc:format>
        <dc:type
           rdf:resource="http://purl.org/dc/dcmitype/StillImage" />
      </cc:Work>
    </rdf:RDF>
  </metadata>
  <g
     id="layer34"
     style="display:inline"
     transform="translate(-265.51419,-114.03491)">
    <path
       style="display:inline;fill:#36e7b4;fill-opacity:1;fill-rule:evenodd;stroke:#505050;stroke-width:0.5;stroke-linecap:round;stroke-linejoin:round;stroke-miterlimit:4;stroke-dasharray:none;stroke-opacity:1"
       class="polygon"
       d="m 372.66048,147.58563 0.53726,0.35817 0.0531,0.59695 -0.0929,0.65002 -0.5492,1.41677 -0.50011,0.99492 -0.57971,2.1026 -0.52664,3.64805 0.11939,0.63675 1.56362,2.09067 0.61287,1.60647 0.0531,1.08778 -0.66328,1.83596 -0.75084,2.07475 -0.37011,0.46429 -0.42184,0.17246 -1.93546,-0.72961 -1.33174,0.13265 -1.53125,0.39797 -1.59599,-0.13265 -1.31993,-0.23879 -1.67372,0.83574 -1.59997,-0.45103 -1.02411,-0.51736 -0.68583,-1.438 -0.28521,-0.18572 -3.36815,1.50565 -0.81053,0.13266 -2.09225,-0.8092 -1.71392,-0.79594 -0.64073,-0.23878 -1.6517,-0.31838 -1.48841,-0.18572 -1.61933,-0.50409 -2.01187,0.65001 h -0.81053 l -0.75879,-0.47756 -0.39665,-0.96839 -0.10612,-0.91533 -0.68318,-0.62348 -1.06125,-0.14592 -1.48602,0.57042 -2.16853,0.74287 -0.6991,-0.13265 -0.64206,-0.21225 -0.2348,-0.19899 -0.2998,-0.86226 -0.34756,-0.18572 h -0.50542 l -0.89145,-0.21225 -1.09972,-0.63675 -3.34109,-1.51361 -0.41786,-0.67655 0.013,-1.48575 -0.18705,-0.61022 -0.40593,-0.65002 -1.71524,-0.65001 -3.33061,-1.06125 -1.84087,-0.83574 -0.87818,0.39797 -1.69323,0.35817 -0.90737,0.75615 -1.08513,-0.23879 -2.59091,-0.79593 -1.38612,-0.13266 -0.83839,0.26531 -0.19368,0.4643 -1.05727,0.51736 -1.00686,-0.41124 -1.98733,-0.55715 -1.74111,-0.30511 -2.6453,-0.67655 -0.2998,-1.03472 -0.4444,-1.02145 -0.63012,-0.18572 -2.36818,0.19898 -2.17119,-1.12758 -2.33183,-1.43799 -0.99359,-0.47756 -0.654,-0.17246 -0.56379,0.18572 -0.64073,0.33164 -0.58634,0.13266 -1.26554,-0.62348 -1.61416,-0.8888 -1.98335,-1.08778 -2.32414,-1.51361 -0.9538,-0.849 -0.43378,-0.63675 -0.49481,-0.61022 -2.02089,-0.99492 -1.59864,-0.78268 -1.92763,-0.94186 -0.32633,-0.18572 -0.72829,-0.55715 -1.11829,-0.70308 -0.91665,-0.21225 -0.29317,0.3847 -0.22154,0.41124 -0.80257,-0.13266 -1.24299,-0.71634 -1.30269,-0.75614 -1.02145,-0.70308 -1.04666,-0.71635 -0.25205,-0.53062 0.43644,-1.64361 0.6089,-1.40881 0.51868,-0.31838 0.84237,-0.92859 0.30378,-1.63698 -0.0133,-1.39687 0.82247,-1.97393 1.12758,-2.09862 1.9523,-2.24853 0.84767,-0.74287 0.94452,-0.5041 1.802,-1.6582 0.37409,-0.26531 0.78931,-0.4245 0.77603,-0.13266 0.58502,0.19898 0.60093,0.87554 0.72696,0.82246 h 0.88614 l 1.0334,-0.70307 2.15049,-3.2408 2.98079,-0.66328 2.82544,0.33164 2.50031,0.47756 0.73757,1.08779 0.48287,1.14084 0.31307,0.58369 0.81849,0.67655 3.52627,1.62371 2.04675,1.4632 2.83195,1.96066 2.11812,0.86226 h 1.87709 l 1.05727,0.76941 1.59214,1.53086 1.34606,1.76167 1.68275,1.62902 h 1.16207 l 1.58312,-0.53062 1.93028,-0.68982 1.14085,0.34491 1.05329,0.45103 0.35154,0.849 0.63409,1.59055 0.70441,1.6529 1.10635,0.58369 1.30799,0.849 0.72563,0.67654 2.45614,1.23371 0.34756,0.50409 0.49746,0.34491 0.59828,0.21225 0.49746,0.25205 0.77206,0.13265 2.83977,-0.74287 0.7588,0.13265 0.43378,0.13266 0.0133,0.26531 -0.51338,1.16738 -0.43644,1.48575 0.4497,0.74287 1.18993,0.30511 2.63363,0.22552 3.55094,-0.0133 1.07717,0.75614 1.07186,1.12758 1.07983,1.93281 0.4298,0.82246 0.53593,0.23879 0.92329,-0.31838 0.1499,-0.79594 0.0398,-1.18064 0.77339,-0.41123 0.49348,0.30511 0.58103,0.92859 1.46771,0.82247 1.06258,0.41123 1.01217,-0.14592 0.42317,-0.31837 0.49879,-1.61443 0.79594,-0.23878 1.00951,0.13266 0.38603,0.31837 0.40858,0.65002 1.22044,0.30511 1.21248,0.41123 1.14482,0.53063 1.60899,1.1939 1.98083,0.21225 h 2.30066 1.2085 l 0.89277,0.13266 0.79859,-0.13266 2.36168,-0.86226 h 0.96442 l 1.19258,0.13265 z"
       id="path2510-6" />
  </g>
</svg>
