<?xml version="1.0" encoding="UTF-8" standalone="no"?>
<!-- Created with Inkscape (http://www.inkscape.org/) -->

<svg
   width="215.48151"
   height="176.75139"
   viewBox="0 0 215.48151 176.75139"
   version="1.1"
   id="svg1059"
   xmlns="http://www.w3.org/2000/svg"
   xmlns:svg="http://www.w3.org/2000/svg"
   xmlns:rdf="http://www.w3.org/1999/02/22-rdf-syntax-ns#"
   xmlns:cc="http://creativecommons.org/ns#"
   xmlns:dc="http://purl.org/dc/elements/1.1/">
  <defs
     id="defs1053" />
  <metadata
     id="metadata1056">
    <rdf:RDF>
      <cc:Work
         rdf:about="">
        <dc:format>image/svg+xml</dc:format>
        <dc:type
           rdf:resource="http://purl.org/dc/dcmitype/StillImage" />
      </cc:Work>
    </rdf:RDF>
  </metadata>
  <g
     id="layer32"
     style="display:inline"
     transform="translate(-10.695549,-25.31877)">
    <path
       style="display:inline;fill:#e7d036;fill-opacity:1;fill-rule:evenodd;stroke:#505050;stroke-width:0.5;stroke-linecap:round;stroke-linejoin:round;stroke-miterlimit:4;stroke-dasharray:none;stroke-opacity:1"
       class="polygon"
       d="m 222.19013,43.60081 0.6089,1.19258 0.92063,1.80532 0.60359,1.18196 0.6792,1.32909 0.3396,0.66461 0.58501,1.14615 -0.23878,0.63144 -0.39532,0.9339 -1.44834,0.70706 -1.44317,0.51073 -0.33694,0.29715 -0.11939,0.40194 -0.6991,0.8039 -1.35111,0.67788 -1.12094,-0.0663 -0.70573,-0.20164 -3.77116,1.17268 -1.74377,-0.0265 -1.36277,0.76145 -1.01085,0.69379 -2.02871,0.75879 -1.37445,0.005 -2.03004,-0.45103 -2.50031,-0.85829 -1.01614,-0.49879 -0.91533,0.0265 -2.21006,-0.11939 -2.16336,-0.42317 -2.58189,-0.5041 -1.27615,-0.21622 -2.62076,-0.44308 -1.70357,0.59032 -1.54027,0.53328 -1.25493,0.36083 -1.03605,1.65037 -0.43776,0.58104 -0.5041,0.83441 -0.23347,0.58501 0.20429,0.70175 1.5209,0.49747 0.6341,0.6792 0.0929,0.60093 -0.54655,0.61685 -0.45633,0.48818 0.003,0.42848 0.24276,0.43246 0.3648,0.32235 2.15832,0.20031 1.27881,0.004 0.49746,0.1751 0.0531,0.58502 -0.46695,0.7893 -1.82018,0.63543 -1.02676,0.66991 -0.325,0.88747 0.0133,0.70971 0.35154,0.46961 0.87155,0.53991 0.81584,0.61818 0.24939,0.50542 -0.0929,0.68451 -0.32898,0.94451 -0.89411,1.09972 -0.74553,0.784 -0.0531,0.27858 0.18572,0.42052 0.60093,0.61022 1.02411,0.90206 1.27085,0.73094 0.81583,0.20163 0.26532,0.17644 0.25337,0.84634 0.0929,0.89013 -0.32501,0.66859 0.65134,0.55317 1.70875,-0.0265 1.3913,0.23613 0.58501,-0.2348 0.40991,0.1751 -0.26398,1.98919 0.19235,1.17798 0.37011,0.33297 1.36808,0.47756 2.6323,-0.0531 1.54943,0.5545 1.71909,0.63941 0.91533,0.70573 0.40991,0.52665 -0.11939,0.84767 -0.93655,0.99492 -1.52993,0.4643 -0.89278,0.19898 -4.40459,1.86382 -1.37577,0.78268 -1.06391,0.94186 -0.39266,0.70308 -0.21225,0.68981 0.9538,2.5072 0.16051,0.78268 -0.78267,2.70751 -0.2295,1.00819 0.29318,0.70308 0.93655,0.26531 0.20429,0.58369 0.0929,0.45103 -1.63234,0.99492 -1.71644,0.87553 -0.54389,-0.003 -1.64135,1.6529 -2.74135,3.30712 -1.45471,1.11431 -0.10612,0.54389 -0.11939,0.55716 0.55583,0.94186 0.11939,0.79594 -0.62216,0.79594 -1.02543,0.91533 -2.0055,0.79593 -2.52737,0.82247 -1.13819,0.49083 -0.85431,2.14107 -0.7893,2.15302 -0.3542,0.79593 -1.36423,2.4767 -2.38238,3.64937 -0.60226,0.79594 -3.68426,1.75902 -3.76333,1.91291 -0.66195,0.72961 -0.77074,1.74443 -0.72563,1.91025 -0.67257,0.99492 -2.39404,2.24322 -0.78533,1.72188 -0.24674,1.12758 -2.03773,0.62348 -2.30464,0.59696 -3.35409,0.19898 -1.3978,0.31838 -4.11048,1.55473 h -1.02146 l -0.8039,-0.25205 -0.60756,-0.53062 -0.56379,-0.87554 -0.26531,-1.35442 -0.79461,-0.61022 -1.07054,-0.51735 h -1.12625 l -1.13156,0.57042 -0.98299,0.63675 -0.66858,0.51736 -0.65533,0.61022 -1.25625,2.04688 -2.03654,2.93303 -2.27479,2.13445 -0.84237,0.63675 -0.52664,0.47756 -0.71104,0.70308 -0.41124,0.68981 -0.56379,2.23924 -0.325,1.98586 0.14857,0.45104 0.34093,0.37143 1.24166,0.58369 1.7955,0.95513 2.32799,0.54389 1.96265,0.13265 0.73359,0.41124 0.43777,0.55715 0.11939,0.4643 -0.10613,1.64361 -0.22021,1.76168 -0.72828,1.89433 0.0117,1.08778 0.28654,1.06125 2.18153,2.69956 0.8039,0.27858 h 1.63618 0.76012 l 0.84503,-0.27858 0.60093,0.18572 0.44572,0.33164 0.11939,0.54389 -0.0663,2.6916 0.66991,1.22044 1.29871,1.66085 1.02543,1.89566 0.96972,2.27241 0.92594,1.77759 0.36082,0.92859 -0.60358,0.45104 -0.34491,0.46429 -0.0796,0.62349 0.13265,0.65001 -0.0796,0.4643 0.43777,0.57042 0.51868,0.18572 -0.0133,0.39797 -0.81186,0.51736 h -0.72563 l -0.55583,0.25205 -1.07717,1.08778 -0.50144,0.22552 -0.67655,0.13265 -0.75349,-0.13265 -1.0639,-0.43777 -0.31042,-0.68981 0.11939,-0.72961 -0.24276,-0.43777 -0.76277,0.13266 -2.65578,0.74287 -2.53135,0.91533 -0.43909,0.62349 -0.58369,0.65001 -1.15809,0.26531 -1.70609,0.13266 -1.18064,-0.13266 -1.08778,-0.70307 -0.99493,-0.63675 h -1.5351 l -2.76455,0.13265 -1.53258,-0.005 -0.90206,-0.23879 -0.8888,0.17246 -1.11166,-0.25205 -0.49481,0.34491 h -0.46695 l -0.37542,-0.59696 h -0.25072 l -0.2945,0.13266 -0.25602,0.19898 -0.15256,0.34491 -0.0531,3.99163 h -1.82402 l -1.29871,-0.008 -1.42499,0.21225 -1.30932,0.30511 -0.64073,0.35817 -0.91666,0.57042 -0.2149,0.79594 -0.44175,0.58369 -0.63409,-0.86227 -0.40858,-0.39796 -0.47226,0.29184 h -0.66992 l -1.20717,-0.98166 -0.54256,0.99492 -1.99767,0.22552 -0.25072,-0.74287 -0.0531,-0.70308 -1.09706,0.50409 -0.78931,-0.76941 -0.35552,-1.03472 -0.30511,-0.29184 -0.34888,-0.33164 -0.82778,-0.35817 -0.74155,-1.10105 -0.0663,-1.16738 -0.20694,-1.39156 -1.55447,-5.15105 -0.94053,-0.47756 -5.27389,-0.91533 -0.27592,-0.90206 0.36613,-2.42098 -0.14857,-1.52555 -1.70742,-2.01902 -0.47757,-1.40484 -1.3966,-1.20717 -1.3848,-0.35817 -1.39528,0.15919 -0.75216,0.47756 -0.41256,0.8092 2.98874,-0.18571 0.67257,0.29184 0.8039,0.53062 h -0.85962 l -0.98961,-0.25204 h -1.24166 l -4.6573,0.59695 -2.705,0.849 -3.62722,-0.25205 -4.57558,0.83574 h -3.77633 l -1.5611,1.63565 -0.86094,-0.29184 -0.66726,-0.39797 -5.19615,-1.28677 -0.36082,-0.54389 -0.8689,-0.3847 -0.95645,0.68981 -0.68716,0.13266 -2.84747,-0.57043 -2.17888,0.43777 -0.80788,0.74288 -0.0531,1.15411 -2.72834,-0.22552 -1.5351,-0.35817 -2.05591,0.39797 -4.64682,-0.53063 -1.22442,0.13266 -1.69455,0.76941 -0.70971,0.59695 -1.00686,0.23878 -0.88349,-0.82247 -0.66461,-0.37144 -0.61685,0.23878 -0.83176,0.67655 -2.40824,0.31838 -2.17901,-0.13266 -2.34484,-0.63675 0.27858,-0.21225 0.36481,-1.11431 0.32766,-3.95979 0.41388,-1.43004 -0.13265,-0.78267 0.0929,-0.23878 0.91533,-0.68982 0.22153,-0.29184 0.35021,-2.02301 0.38736,-2.2472 0.42981,-0.8092 0.36348,-0.21225 2.90835,-1.00819 0.4895,-0.67655 1.50406,0.15919 0.13531,-0.15919 0.13398,-0.7694 0.69778,-0.83574 0.96441,-0.68981 0.719,-0.23878 2.61558,-0.43777 1.52741,-0.61022 h 0.46562 l 4.06379,0.15919 0.85962,-0.22552 0.13663,-0.21225 0.24011,-2.28168 0.73624,-0.35818 0.11939,-0.18572 -0.25072,-1.57728 0.14062,-1.06125 0.83706,-0.62348 -0.0531,-0.35818 -0.60094,-0.74287 -0.79859,-0.47756 -0.38868,-0.13266 -3.33445,0.45103 -1.3771,-0.14592 -0.64471,-0.27858 -0.13531,-0.19898 0.13265,-0.4643 0.0265,-0.75614 0.48553,-1.16738 0.14724,-0.70308 -0.39398,-4.02612 -0.56512,-2.67302 0.30246,-2.65313 -0.0663,-0.54389 -0.11939,-0.13265 -0.42185,10e-4 -2.03004,0.23878 -1.73329,-1.70728 -1.07319,-0.67655 -2.95107,-0.849 -1.29473,-0.15919 -1.89924,-0.72961 -1.7488,-1.60779 -1.79047,-1.64362 -0.72032,-1.04798 -0.79859,-1.79351 -2.26445,-3.43448 0.0265,-0.88879 -0.27991,-0.54389 -2.20488,-2.25649 -1.56495,-1.60116 -2.53134,-2.59078 5.055,1.44994 3.94082,1.11431 6.36074,1.79351 4.94091,1.39422 1.36796,0.22552 14.47307,-1.19391 5.35162,0.90206 1.69442,0.5041 0.2547,-0.29185 0.719,-0.61022 1.24696,-0.62348 1.69323,-0.49083 1.68925,-0.26531 h 2.42005 1.64255 l 1.21513,0.14592 2.34231,-0.13266 1.12758,-0.23878 3.85393,-0.98166 2.58972,-0.66328 3.9188,-1.03472 2.85781,-0.75614 0.719,-0.39797 0.7389,-0.71634 0.35154,-0.63675 -0.87819,-0.99492 -0.11939,-0.87554 0.57573,-1.11431 0.31307,-1.69402 -0.0663,-2.41302 -0.18705,-1.39156 0.79594,-2.58548 0.66726,-1.45126 1.32909,-0.68981 0.92063,-0.4245 0.38471,-0.30511 0.37674,-0.3449 1.42115,-1.96995 1.2987,-0.91533 1.26024,-0.55716 h 1.37193 l 1.17003,0.75615 2.27359,0.33164 2.19573,-0.22552 1.90442,-0.57042 0.86359,-0.4643 1.01349,-0.41123 -0.0531,-0.4643 -1.14615,-0.41124 -0.65665,-0.57042 -0.25603,-0.70308 0.64339,-0.4245 1.50021,-0.13265 3.67909,-1.72188 1.49888,-1.12758 0.40991,-0.53063 h 0.70175 l 1.4043,0.53063 1.63738,0.17245 1.02676,-0.53062 1.02013,-0.13266 1.00288,0.57042 0.53593,0.68982 0.91002,0.82247 1.14881,0.15918 1.38625,-0.43776 1.45471,-0.94186 1.37711,-1.32657 1.22574,-1.31329 -0.30245,-4.14684 -0.20031,-2.43292 0.64338,-1.28676 0.92196,-0.79329 0.60889,-1.22574 -0.0103,-1.08115 0.64338,-0.91002 0.64206,-2.48399 0.87818,-0.58502 1.80333,-0.40593 2.87082,-0.23613 2.25661,-1.13553 2.2671,-1.20585 0.30644,-1.06125 -0.85431,-1.13554 -1.13554,-2.20302 -1.02809,-1.31463 -2.5015,-2.35836 0.28654,-1.45418 1.39395,-0.59032 3.43421,1.00554 0.95645,0.19633 1.19391,0.14194 3.16094,-0.0265 2.57937,-0.39267 2.69451,-0.89941 0.52665,-0.93655 -0.0265,-1.11166 0.0398,-0.91798 0.0398,-1.27615 -0.96574,-0.81849 -0.58369,-0.73094 -0.17643,-0.58501 0.67257,-0.32236 0.65399,-0.59695 0.63277,-1.08778 1.49239,-1.29871 0.90737,-1.17003 0.849,-0.55583 1.28676,-0.76012 0.82247,-1.11697 0.37675,-0.66726 0.74553,-0.65399 0.25072,-0.42848 -0.20164,-0.38205 -0.37144,-0.48022 -0.42052,-0.54256 v -0.52665 l 0.35154,-0.55583 0.3794,-0.49746 -0.17511,-0.70175 -0.20429,-1.14085 -0.70175,-0.67256 -0.46961,-1.55328 -0.7442,-1.58046 -0.39797,-0.61553 -0.72563,-0.77471 -1.62703,-0.82513 -0.46695,-0.54919 0.63543,-1.05727 1.05727,-0.65533 1.99886,-1.61933 1.09574,-1.11962 0.98962,-0.78002 1.27217,0.13266 0.74686,-0.0663 0.65797,-0.72033 1.30534,-0.63807 2.32016,-1.32126 0.81053,-0.89012 1.23503,-0.44838 1.02278,-0.10613 1.38228,-0.31041 1.32922,-0.48022 1.2138,-0.36613 1.90176,-0.0663 3.01833,-0.22021 1.63234,-0.22419 3.90461,-0.17378 4.25428,-0.0796 0.49481,-0.009 1.83955,0.47093 1.24697,0.39531 0.49083,-0.0398 2.06758,-0.94319 3.13506,-1.15146 1.46387,-0.51072 0.78532,-0.19235 1.21513,0.0122 0.97901,0.30511 0.99757,0.44572 0.63675,0.3542 0.79462,-0.21093 1.3901,-0.24939 1.21115,0.18439 2.6725,0.79329 0.40062,0.39531 0.62879,1.92962 0.47756,0.17511 1.50539,-0.45501 1.24033,0.22949 1.39263,0.62481 0.90339,0.59961 0.59297,0.65002 0.63675,1.05063 0.2494,0.84237 0.2998,1.00421 -0.0796,2.83327 -0.45899,0.46297 -0.38736,0.60359 0.0929,0.52399 0.43511,0.41654 0.86625,0.28124 0.80257,0.17643 0.42981,0.44838 0.59032,1.59466 0.39797,0.24541 0.979,-0.005 1.77865,-0.34756 1.54293,-0.54522 0.65267,-0.11939 0.16184,1.51308 0.90737,0.57838 1.26952,0.67257 z"
       id="path2518-6" />
  </g>
</svg>
