<?xml version="1.0" encoding="UTF-8" standalone="no"?>
<svg
   xmlns:dc="http://purl.org/dc/elements/1.1/"
   xmlns:cc="http://creativecommons.org/ns#"
   xmlns:rdf="http://www.w3.org/1999/02/22-rdf-syntax-ns#"
   xmlns:svg="http://www.w3.org/2000/svg"
   xmlns="http://www.w3.org/2000/svg"
   xmlns:sodipodi="http://sodipodi.sourceforge.net/DTD/sodipodi-0.dtd"
   xmlns:inkscape="http://www.inkscape.org/namespaces/inkscape"
   width="100"
   height="100"
   id="svg9131"
   version="1.0"
   sodipodi:docname="chronological_order.svg"
   inkscape:version="0.92.4 (5da689c313, 2019-01-14)">
  <sodipodi:namedview
     pagecolor="#ffffff"
     bordercolor="#666666"
     borderopacity="1"
     objecttolerance="10"
     gridtolerance="10"
     guidetolerance="10"
     inkscape:pageopacity="0"
     inkscape:pageshadow="2"
     inkscape:window-width="1884"
     inkscape:window-height="1054"
     id="namedview17"
     showgrid="false"
     inkscape:zoom="4.72"
     inkscape:cx="51.424964"
     inkscape:cy="34.837173"
     inkscape:window-x="0"
     inkscape:window-y="0"
     inkscape:window-maximized="1"
     inkscape:current-layer="layer1" />
  <defs
     id="defs9133" />
  <metadata
     id="metadata9136">
    <rdf:RDF>
      <cc:Work
         rdf:about="">
        <dc:format>image/svg+xml</dc:format>
        <dc:type
           rdf:resource="http://purl.org/dc/dcmitype/StillImage" />
        <dc:title />
        <dc:date>2021</dc:date>
        <dc:creator>
          <cc:Agent>
            <dc:title>Timothée Giet</dc:title>
          </cc:Agent>
        </dc:creator>
        <cc:license
           rdf:resource="http://creativecommons.org/licenses/by-sa/4.0/" />
      </cc:Work>
      <cc:License
         rdf:about="http://creativecommons.org/licenses/by-sa/4.0/">
        <cc:permits
           rdf:resource="http://creativecommons.org/ns#Reproduction" />
        <cc:permits
           rdf:resource="http://creativecommons.org/ns#Distribution" />
        <cc:requires
           rdf:resource="http://creativecommons.org/ns#Notice" />
        <cc:requires
           rdf:resource="http://creativecommons.org/ns#Attribution" />
        <cc:permits
           rdf:resource="http://creativecommons.org/ns#DerivativeWorks" />
        <cc:requires
           rdf:resource="http://creativecommons.org/ns#ShareAlike" />
      </cc:License>
    </rdf:RDF>
  </metadata>
  <g
     style="display:inline"
     id="layer1">
    <rect
       style="display:inline;fill:#85d8f6;fill-opacity:1;stroke:#808080;stroke-width:2;stroke-linejoin:bevel;stroke-miterlimit:4;stroke-dasharray:none;stroke-opacity:1"
       id="rect836-2-1"
       width="25"
       height="25"
       x="67.5"
       y="69.5"
       ry="5" />
    <rect
       style="display:inline;fill:#85d8f6;fill-opacity:1;stroke:#808080;stroke-width:2;stroke-linejoin:bevel;stroke-miterlimit:4;stroke-dasharray:none;stroke-opacity:1"
       id="rect836-37"
       width="25"
       height="25"
       x="7.5"
       y="69.5"
       ry="5" />
    <rect
       style="display:inline;fill:#85d8f6;fill-opacity:1;stroke:#808080;stroke-width:2;stroke-linejoin:bevel;stroke-miterlimit:4;stroke-dasharray:none;stroke-opacity:1"
       id="rect836-3-1"
       width="25"
       height="25"
       x="51.5"
       y="23.5"
       ry="5" />
    <g
       aria-label="3"
       style="font-style:normal;font-variant:normal;font-weight:normal;font-stretch:normal;font-size:16px;line-height:1.25;font-family:'Andika SmLTailCrvTl';-inkscape-font-specification:'Andika SmLTailCrvTl';letter-spacing:0px;word-spacing:0px;display:inline;fill:#373737;fill-opacity:1"
       id="text876-2-3"
       transform="translate(0,32)" />
    <path
       style="fill:#ebf1f9;fill-opacity:1;fill-rule:evenodd;stroke:#327cf4;stroke-width:2;stroke-linecap:butt;stroke-linejoin:miter;stroke-miterlimit:4;stroke-dasharray:none;stroke-opacity:1"
       d="M 63.165063,54.269239 58.834935,51.769238 51.334936,64.75962 47.004808,62.259619 46,79 l 13.995191,-9.24038 -4.330127,-2.5 z"
       id="path4169" />
    <path
       style="fill:#3f7518;fill-opacity:1;stroke:none;stroke-width:1px;stroke-linecap:butt;stroke-linejoin:miter;stroke-opacity:1"
       d="m 19.859204,84.438476 c -1.634968,0.180307 -2.418706,5.188186 -1.093699,9.05833 h 1.746042 c -1.797327,-3.976636 -0.747321,-9.298117 0.487272,-6.124821 0,0 1.679453,0.20115 0.967745,-0.663067 -0.722185,-1.697993 -1.460958,-2.341728 -2.10736,-2.270442 z"
       id="path1018-2"
       inkscape:connector-curvature="0"
       sodipodi:nodetypes="sccccs" />
    <ellipse
       style="opacity:1;fill:#3f7518;fill-opacity:1;stroke:none;stroke-width:1.28081357;stroke-miterlimit:4;stroke-dasharray:none;stroke-opacity:1"
       id="path1001-1"
       cx="39.51083"
       cy="81.662209"
       rx="1.1656532"
       ry="2.0070682"
       transform="matrix(0.97690445,0.2136766,-0.21052099,0.97758934,0,0)" />
    <path
       style="fill:#59b215;fill-opacity:1;stroke:none;stroke-width:1px;stroke-linecap:butt;stroke-linejoin:miter;stroke-opacity:1"
       d="m 20.101385,84.869128 c -1.639384,-0.211135 -2.33668,6.004836 -1.012666,8.627678 h 1.047821 c -2.018121,-4.488575 -0.264514,-10.868365 1.063445,-6.021309 0,0 1.183374,0.215798 0.471666,-0.648418 -0.5617,-1.320661 -1.096948,-1.896993 -1.570266,-1.957951 z"
       id="path1018"
       inkscape:connector-curvature="0"
       sodipodi:nodetypes="sccccs" />
    <ellipse
       style="opacity:1;fill:#59b215;fill-opacity:1;stroke:none;stroke-width:1;stroke-miterlimit:4;stroke-dasharray:none;stroke-opacity:1"
       id="path1001"
       cx="39.628098"
       cy="81.661339"
       rx="0.91331953"
       ry="1.5614818"
       transform="rotate(12.245063)" />
    <path
       style="fill:#c0341c;fill-opacity:1;stroke:none;stroke-width:1.04529238px;stroke-linecap:butt;stroke-linejoin:miter;stroke-opacity:1"
       d="m 82.473633,80.072594 c -1.028656,-1.28287 -2.319364,-1.524935 -2.991895,-1.200196 -1.307166,0.631176 -2.557328,2.617664 -1.556396,3.278828 1.000931,0.661164 4.298447,-2.215948 4.548291,-2.078632 z"
       id="path1312-0-6-2-6"
       inkscape:connector-curvature="0"
       sodipodi:nodetypes="cssc" />
    <path
       style="fill:#c0341c;fill-opacity:1;stroke:none;stroke-width:1.03117633px;stroke-linecap:butt;stroke-linejoin:miter;stroke-opacity:1"
       d="m 81.924327,79.684243 c 1.521816,-0.388197 2.703237,0.210066 3.078794,0.879607 0.729955,1.301352 0.691894,3.643384 -0.476336,3.555166 -1.168229,-0.08822 -2.325611,-4.390756 -2.602458,-4.434773 z"
       id="path1312-0-6-2"
       inkscape:connector-curvature="0"
       sodipodi:nodetypes="cssc" />
    <path
       style="fill:#3f7518;fill-opacity:1;stroke:none;stroke-width:1.00612295px;stroke-linecap:butt;stroke-linejoin:miter;stroke-opacity:1"
       d="m 85.22255,89.455077 c -1.124655,-0.788172 -6.441923,-0.223064 -5.416747,-2.362029 1.392358,-2.905066 5.538865,0.851644 5.416747,2.362029 z"
       id="path1102-6-2-0-2-2"
       inkscape:connector-curvature="0"
       sodipodi:nodetypes="csc" />
    <path
       style="fill:#f14f31;fill-opacity:1;stroke:none;stroke-width:0.88929135px;stroke-linecap:butt;stroke-linejoin:miter;stroke-opacity:1"
       d="m 82.086897,79.771366 c 1.343551,-0.298981 2.396722,0.224523 2.736915,0.793561 0.661218,1.10601 0.653909,3.07244 -0.381828,2.977564 -1.035737,-0.09488 -2.109378,-3.729229 -2.355087,-3.771125 z"
       id="path1312-3-0"
       inkscape:connector-curvature="0"
       sodipodi:nodetypes="cssc" />
    <path
       style="fill:#f14f31;fill-opacity:1;stroke:none;stroke-width:0.90146512px;stroke-linecap:butt;stroke-linejoin:miter;stroke-opacity:1"
       d="m 82.2934,80.043306 c -0.932089,-1.09594 -2.077315,-1.319951 -2.666027,-1.057178 -1.144252,0.510737 -2.21402,2.163133 -1.317491,2.735349 0.896529,0.572217 3.760226,-1.797672 3.983518,-1.678171 z"
       id="path1312-3-0-1"
       inkscape:connector-curvature="0"
       sodipodi:nodetypes="cssc" />
    <path
       style="fill:#c0341c;fill-opacity:1;stroke:none;stroke-width:1.22998321px;stroke-linecap:butt;stroke-linejoin:miter;stroke-opacity:1"
       d="m 81.924327,80.6695 c 2.158007,-0.389487 3.833317,0.210765 4.365875,0.882533 1.035109,1.30568 0.981137,3.655501 -0.675467,3.56699 -1.656604,-0.08851 -3.297826,-4.405359 -3.690408,-4.449523 z"
       id="path1312-0-6"
       inkscape:connector-curvature="0"
       sodipodi:nodetypes="cssc" />
    <path
       style="fill:#59b215;fill-opacity:1;stroke:none;stroke-width:0.86176175px;stroke-linecap:butt;stroke-linejoin:miter;stroke-opacity:1"
       d="M 84.816387,89.071255 C 83.819026,88.419236 79.1036,88.886724 80.01274,87.117252 c 1.234762,-2.403233 4.911943,0.704527 4.803647,1.954003 z"
       id="path1102-61-7-9-9"
       inkscape:connector-curvature="0"
       sodipodi:nodetypes="csc" />
    <path
       style="fill:#f14f31;fill-opacity:1;stroke:none;stroke-width:1.06074345px;stroke-linecap:butt;stroke-linejoin:miter;stroke-opacity:1"
       d="m 82.154859,80.756913 c 1.905217,-0.299975 3.398663,0.22527 3.881073,0.796201 0.937639,1.109688 0.927275,3.082657 -0.541449,2.987466 -1.468724,-0.09519 -2.991197,-3.741632 -3.339624,-3.783667 z"
       id="path1312-3"
       inkscape:connector-curvature="0"
       sodipodi:nodetypes="cssc" />
    <path
       style="fill:#c0341c;fill-opacity:1;stroke:none;stroke-width:1.10558689px;stroke-linecap:butt;stroke-linejoin:miter;stroke-opacity:1"
       d="m 82.477902,81.097235 c 1.940533,0.340538 3.06186,1.348324 3.213089,2.064809 0.293935,1.392598 -0.753123,3.311419 -2.077433,2.730848 -1.324311,-0.58057 -0.831716,-4.638975 -1.135656,-4.795657 z"
       id="path1312-0-3-1"
       inkscape:connector-curvature="0"
       sodipodi:nodetypes="cssc" />
    <path
       inkscape:connector-curvature="0"
       style="fill:#3f7518;fill-opacity:1;stroke:none;stroke-width:1px;stroke-linecap:butt;stroke-linejoin:miter;stroke-opacity:1"
       d="m 78.765505,93.496806 h 1.912789 c -1.464068,-3.810145 0.175204,-8.715187 0.743174,-10.333489 -0.541674,-0.375006 -0.374157,1.221394 -1.085896,0.357158 -1.801005,2.770248 -2.230137,7.896831 -1.570067,9.976331 z"
       id="path1018-2-9-9-9-3"
       sodipodi:nodetypes="ccccc" />
    <path
       inkscape:connector-curvature="0"
       style="fill:#59b215;fill-opacity:1;stroke:none;stroke-width:1px;stroke-linecap:butt;stroke-linejoin:miter;stroke-opacity:1"
       d="m 79.314993,93.496806 h 1.047867 c -1.393201,-3.697096 -0.193235,-7.160458 0.509773,-9.938301 0,0 0.0218,0.06936 -0.481605,0.330123 -1.302134,2.428961 -2.196507,7.227708 -1.076035,9.608178 z"
       id="path1018-6-2-2-1"
       sodipodi:nodetypes="ccccc" />
    <path
       style="fill:#3f7518;fill-opacity:1;stroke:none;stroke-width:1.13136804px;stroke-linecap:butt;stroke-linejoin:miter;stroke-opacity:1"
       d="m 73.636534,89.705081 c 1.268198,-0.88381 7.26412,-0.250132 6.108098,-2.648644 -1.570067,-3.257572 -6.245803,0.954985 -6.108098,2.648644 z"
       id="path1102-6-23-8-4"
       inkscape:connector-curvature="0"
       sodipodi:nodetypes="csc" />
    <path
       style="fill:#59b215;fill-opacity:1;stroke:none;stroke-width:0.9690364px;stroke-linecap:butt;stroke-linejoin:miter;stroke-opacity:1"
       d="m 74.094537,89.274685 c 1.124655,-0.731138 6.441922,-0.206923 5.416746,-2.191106 -1.392357,-2.694847 -5.538865,0.790016 -5.416746,2.191106 z"
       id="path1102-5-7-7"
       inkscape:connector-curvature="0"
       sodipodi:nodetypes="csc" />
    <path
       style="fill:#f14f31;fill-opacity:1;stroke:none;stroke-width:0.95346355px;stroke-linecap:butt;stroke-linejoin:miter;stroke-opacity:1"
       d="m 82.630148,81.239877 c 1.694492,0.336794 2.698294,1.22707 2.851318,1.845136 0.297426,1.201305 -0.552974,2.823107 -1.719956,2.294611 -1.166981,-0.528499 -0.862818,-3.99835 -1.131362,-4.139747 z"
       id="path1312-6-0"
       inkscape:connector-curvature="0"
       sodipodi:nodetypes="cssc" />
    <path
       style="fill:#d79017;fill-opacity:1;stroke:none;stroke-width:1.30440795px;stroke-linecap:butt;stroke-linejoin:miter;stroke-opacity:1"
       d="m 80.922434,80.375148 c -0.401392,-0.695473 2.408354,-1.33299 2.465695,0.463648 0.05734,1.796638 -2.465695,-0.463648 -2.465695,-0.463648 z"
       id="path1419-5"
       inkscape:connector-curvature="0" />
    <path
       style="fill:#f4c065;fill-opacity:1;stroke:none;stroke-width:1px;stroke-linecap:butt;stroke-linejoin:miter;stroke-opacity:1"
       d="m 81.311194,80.429 c -0.309364,-0.530339 1.856182,-1.016481 1.900377,0.353558 0.0442,1.37004 -1.900377,-0.353558 -1.900377,-0.353558 z"
       id="path1419"
       inkscape:connector-curvature="0" />
    <path
       style="fill:#c0341c;fill-opacity:1;stroke:none;stroke-width:1.27227044px;stroke-linecap:butt;stroke-linejoin:miter;stroke-opacity:1"
       d="m 81.55878,80.77492 c -1.795714,-1.401252 -3.697672,-1.724812 -4.572912,-1.420435 -1.701163,0.591601 -2.973014,2.608029 -1.376478,3.355601 1.596536,0.747573 5.557995,-2.092692 5.94939,-1.935166 z"
       id="path1312-0"
       inkscape:connector-curvature="0"
       sodipodi:nodetypes="cssc" />
    <path
       style="fill:#f14f31;fill-opacity:1;stroke:none;stroke-width:1.0972122px;stroke-linecap:butt;stroke-linejoin:miter;stroke-opacity:1"
       d="m 81.29435,80.734474 c -1.610058,-1.199949 -3.300008,-1.496723 -4.071685,-1.252827 -1.499872,0.474046 -2.600385,2.149736 -1.175509,2.798369 1.424876,0.648632 4.898224,-1.682948 5.247194,-1.545542 z"
       id="path1312"
       inkscape:connector-curvature="0"
       sodipodi:nodetypes="cssc" />
    <path
       style="fill:#c0341c;fill-opacity:1;stroke:none;stroke-width:1.28950906px;stroke-linecap:butt;stroke-linejoin:miter;stroke-opacity:1"
       d="m 81.93209,80.953176 c -1.735776,-0.985998 -4.102565,0.215151 -4.648035,0.908518 -1.060204,1.347665 -0.863723,3.692599 0.949907,3.534664 1.813628,-0.157933 3.425942,-4.038837 3.698128,-4.443182 z"
       id="path1312-0-3"
       inkscape:connector-curvature="0"
       sodipodi:nodetypes="cssc" />
    <path
       style="fill:#f14f31;fill-opacity:1;stroke:none;stroke-width:1.11207867px;stroke-linecap:butt;stroke-linejoin:miter;stroke-opacity:1"
       d="m 81.746594,81.050167 c -1.765515,-0.688442 -3.687011,0.211397 -4.183311,0.801936 -0.964636,1.1478 -0.83804,3.118134 0.768924,2.961412 1.606963,-0.156725 3.034301,-3.706738 3.414387,-3.763348 z"
       id="path1312-6"
       inkscape:connector-curvature="0"
       sodipodi:nodetypes="cssc" />
    <path
       style="fill:#c0341c;fill-opacity:1;stroke:none;stroke-width:1.25222957px;stroke-linecap:butt;stroke-linejoin:miter;stroke-opacity:1"
       d="m 81.86655,80.907278 c 1.81896,1.000098 2.033908,2.644954 1.750335,3.429921 -0.551167,1.525701 -2.704389,2.391803 -3.670804,1.171617 -0.966415,-1.220185 1.784314,-3.954468 1.920469,-4.601538 z"
       id="path1312-0-3-1-5"
       inkscape:connector-curvature="0"
       sodipodi:nodetypes="cssc" />
    <path
       style="fill:#f14f31;fill-opacity:1;stroke:none;stroke-width:1.07992876px;stroke-linecap:butt;stroke-linejoin:miter;stroke-opacity:1"
       d="m 81.848874,81.104614 c 1.633409,0.856379 1.83041,2.361895 1.606129,3.054253 -0.43311,1.33702 -2.106228,2.136783 -2.947596,1.044777 -0.841364,-1.092007 1.213844,-3.607124 1.341467,-4.09903 z"
       id="path1312-6-0-4"
       inkscape:connector-curvature="0"
       sodipodi:nodetypes="cssc" />
    <path
       style="fill:#3f7518;fill-opacity:1;stroke:none;stroke-width:1.00612295px;stroke-linecap:butt;stroke-linejoin:miter;stroke-opacity:1"
       d="m 69.222474,43.455128 c -1.124643,-0.788163 -6.441848,-0.223062 -5.416684,-2.362002 1.392342,-2.905032 5.538801,0.851633 5.416684,2.362002 z"
       id="path1102-6-2-0-2"
       inkscape:connector-curvature="0"
       sodipodi:nodetypes="csc" />
    <path
       style="fill:#59b215;fill-opacity:1;stroke:none;stroke-width:0.86176175px;stroke-linecap:butt;stroke-linejoin:miter;stroke-opacity:1"
       d="m 68.816315,43.07131 c -0.997349,-0.652012 -5.71272,-0.184529 -4.80359,-1.95398 1.234747,-2.403205 4.911885,0.704518 4.80359,1.95398 z"
       id="path1102-61-7-9"
       inkscape:connector-curvature="0"
       sodipodi:nodetypes="csc" />
    <path
       inkscape:connector-curvature="0"
       style="fill:#3f7518;fill-opacity:1;stroke:none;stroke-width:1px;stroke-linecap:butt;stroke-linejoin:miter;stroke-opacity:1"
       d="m 62.765505,47.496806 h 1.912766 c -1.464051,-3.810097 0.175202,-8.715082 0.743165,-10.333366 -0.541668,-0.375001 -0.374153,1.22138 -1.085884,0.357155 -1.800983,2.770215 -2.23011,7.896743 -1.570047,9.976211 z"
       id="path1018-2-9-9-9"
       sodipodi:nodetypes="ccccc" />
    <path
       inkscape:connector-curvature="0"
       style="fill:#59b215;fill-opacity:1;stroke:none;stroke-width:1px;stroke-linecap:butt;stroke-linejoin:miter;stroke-opacity:1"
       d="m 63.314985,47.496806 h 1.047855 c -1.393184,-3.69705 -0.193232,-7.160371 0.509768,-9.938183 0,0 0.0218,0.06936 -0.4816,0.33012 -1.302118,2.428933 -2.196482,7.227627 -1.076023,9.608063 z"
       id="path1018-6-2-2"
       sodipodi:nodetypes="ccccc" />
    <ellipse
       style="opacity:1;fill:#3f7518;fill-opacity:1;stroke:none;stroke-width:0.96002126;stroke-miterlimit:4;stroke-dasharray:none;stroke-opacity:1"
       id="path1264"
       cx="64.865753"
       cy="35.419464"
       rx="1.7499944"
       ry="2.5729384"
       transform="matrix(0.99996434,0.00844533,-0.00994235,0.99995057,0,0)" />
    <path
       style="fill:#3f7518;fill-opacity:1;stroke:none;stroke-width:1.13136804px;stroke-linecap:butt;stroke-linejoin:miter;stroke-opacity:1"
       d="m 57.636593,43.705128 c 1.268183,-0.8838 7.264035,-0.250128 6.108027,-2.648612 -1.570049,-3.257536 -6.24573,0.954973 -6.108027,2.648612 z"
       id="path1102-6-23-8"
       inkscape:connector-curvature="0"
       sodipodi:nodetypes="csc" />
    <path
       style="fill:#59b215;fill-opacity:1;stroke:none;stroke-width:0.9690364px;stroke-linecap:butt;stroke-linejoin:miter;stroke-opacity:1"
       d="m 58.09459,43.274737 c 1.124643,-0.731129 6.441848,-0.20692 5.416683,-2.19108 -1.39234,-2.694815 -5.538799,0.790007 -5.416683,2.19108 z"
       id="path1102-5-7"
       inkscape:connector-curvature="0"
       sodipodi:nodetypes="csc" />
    <path
       style="fill:#59b215;fill-opacity:1;stroke:none;stroke-width:1px;stroke-linecap:butt;stroke-linejoin:miter;stroke-opacity:1"
       d="m 64.219611,33.632179 c 0.389546,1.486116 1.672783,3.690984 0.531251,4.708349 -0.526097,0.11691 -1.558501,-0.868064 -1.677088,-1.979174 -0.241295,-2.260815 1.114849,-2.735373 1.145837,-2.729175 z"
       id="path1262"
       inkscape:connector-curvature="0"
       sodipodi:nodetypes="ccsc" />
    <path
       style="fill:#59b215;fill-opacity:1;stroke:none;stroke-width:1px;stroke-linecap:butt;stroke-linejoin:miter;stroke-opacity:1"
       d="m 64.886279,33.653012 c 0,0 1.093754,2.93751 0.406251,4.281264 0.500002,-0.468752 0.604843,-1.099877 0.718753,-2.156257 0.11457,-1.062503 -0.912669,-2.125007 -1.125004,-2.125007 z"
       id="path1266"
       inkscape:connector-curvature="0"
       sodipodi:nodetypes="ccsc" />
    <path
       style="fill:#bc280c;fill-opacity:1;stroke:none;stroke-width:1px;stroke-linecap:butt;stroke-linejoin:miter;stroke-opacity:1"
       d="m 65.29253,36.18427 -0.937502,-2.718758 c -0.01404,-0.207429 0.140132,-0.390725 0.531251,-0.312501 0.187501,0.1875 0.406251,3.031259 0.406251,3.031259 z"
       id="path1268"
       inkscape:connector-curvature="0"
       sodipodi:nodetypes="cccc" />
  </g>
</svg>
