<?xml version="1.0" encoding="UTF-8" standalone="no"?>
<!-- Created with Inkscape (http://www.inkscape.org/) -->

<svg
   xmlns:dc="http://purl.org/dc/elements/1.1/"
   xmlns:cc="http://creativecommons.org/ns#"
   xmlns:rdf="http://www.w3.org/1999/02/22-rdf-syntax-ns#"
   xmlns:svg="http://www.w3.org/2000/svg"
   xmlns="http://www.w3.org/2000/svg"
   xmlns:sodipodi="http://sodipodi.sourceforge.net/DTD/sodipodi-0.dtd"
   xmlns:inkscape="http://www.inkscape.org/namespaces/inkscape"
   width="800"
   height="520"
   id="svg6601"
   sodipodi:version="0.32"
   inkscape:version="0.48.4 r9939"
   version="1.0"
   sodipodi:docname="background.svg"
   inkscape:output_extension="org.inkscape.output.svg.inkscape">
  <defs
     id="defs6603" />
  <sodipodi:namedview
     id="base"
     pagecolor="#ffffff"
     bordercolor="#666666"
     borderopacity="1.0"
     inkscape:pageopacity="0.0"
     inkscape:pageshadow="2"
     inkscape:zoom="1.0042194"
     inkscape:cx="552.31488"
     inkscape:cy="151.24626"
     inkscape:document-units="px"
     inkscape:current-layer="layer1"
     width="800px"
     height="520px"
     showborder="true"
     borderlayer="true"
     inkscape:showpageshadow="false"
     inkscape:window-width="1311"
     inkscape:window-height="744"
     inkscape:window-x="55"
     inkscape:window-y="24"
     showgrid="false"
     inkscape:window-maximized="1" />
  <metadata
     id="metadata6606">
    <rdf:RDF>
      <cc:Work
         rdf:about="">
        <dc:format>image/svg+xml</dc:format>
        <dc:type
           rdf:resource="http://purl.org/dc/dcmitype/StillImage" />
        <dc:title />
      </cc:Work>
    </rdf:RDF>
  </metadata>
  <g
     inkscape:label="Calque 1"
     inkscape:groupmode="layer"
     id="layer1">
    <path
       style="fill:#00f1ff;fill-opacity:1;fill-rule:evenodd;stroke:none"
       d="M -6.9705884,3.1748945 -2.9873951,481.172 c 0,10e-6 38.3269051,-30.86528 167.3764051,14.94144 129.04954,45.80672 291.4836,23.79746 359.63023,-6.99606 70.97551,-32.07181 59.95163,3.49783 131.47604,12.9572 90.35351,11.94958 92.06781,-16.26336 127.67061,2.99054 33.89369,18.32962 16.89622,-173.54267 19.4465,-172.29648 l 0,-329.5937455 z M 11.94958,410.47032 -6.9705884,393.51864 l 0.284753,0 z"
       id="rect7580"
       inkscape:connector-curvature="0"
       sodipodi:nodetypes="ccssssccccccc" />
    <path
       style="fill:#55d400;fill-opacity:1;fill-rule:evenodd;stroke:none"
       d="m -5.9599242,519.60658 2.9725307,-44.81092 c 0,0 146.1594135,-41.82353 275.5240135,3.98319 129.36461,45.80673 164.75261,29.87395 242.5735,3.9832 77.82089,-25.89076 67.44675,-34.85294 127.07576,5.97479 59.629,40.82773 81.46223,-3.98319 124.92066,-23.89916 43.45843,-19.91597 36.50269,23.89916 36.50269,23.89916 l 1.99161,30.86974 z"
       id="path7582"
       sodipodi:nodetypes="ccssssccc"
       inkscape:connector-curvature="0" />
    <path
       inkscape:connector-curvature="0"
       id="path2197"
       sodipodi:nodetypes="csscc"
       style="fill:#029302;fill-rule:evenodd;stroke:#000000;stroke-width:2.23654795"
       d="m 440.59577,519.12623 c 2.55308,-13.37349 -5.14199,-29.82766 1.73116,-36.9771 42.89727,-44.63403 103.32397,-11.74659 137.19586,13.9138 15.40225,11.66001 25.67972,22.79463 25.67972,22.79463 l -164.60711,0.26867 z" />
    <path
       inkscape:connector-curvature="0"
       id="path2203"
       sodipodi:nodetypes="ccccccc"
       style="fill:#246c20;fill-rule:evenodd;stroke:#000000;stroke-width:2.23159289"
       d="m 800.59908,518.66069 v -41.94903 c -76.87225,-47.90205 -176.01377,-38.60568 -248.90402,4.4606 l 15.08674,8.48207 14.19081,8.06241 25.71865,20.97174 193.90782,-0.0278 z" />
  </g>
</svg>
