<?xml version="1.0" encoding="UTF-8" standalone="no"?>
<!-- Created with Inkscape (http://www.inkscape.org/) -->

<svg
   xmlns:dc="http://purl.org/dc/elements/1.1/"
   xmlns:cc="http://creativecommons.org/ns#"
   xmlns:rdf="http://www.w3.org/1999/02/22-rdf-syntax-ns#"
   xmlns:svg="http://www.w3.org/2000/svg"
   xmlns="http://www.w3.org/2000/svg"
   xmlns:sodipodi="http://sodipodi.sourceforge.net/DTD/sodipodi-0.dtd"
   xmlns:inkscape="http://www.inkscape.org/namespaces/inkscape"
   id="svg2"
   version="1.1"
   inkscape:version="0.91 r13725"
   width="100"
   height="100"
   sodipodi:docname="pineapple.svg">
  <sodipodi:namedview
     pagecolor="#ffffff"
     bordercolor="#666666"
     borderopacity="1"
     objecttolerance="10"
     gridtolerance="10"
     guidetolerance="10"
     inkscape:pageopacity="0"
     inkscape:pageshadow="2"
     inkscape:window-width="1880"
     inkscape:window-height="1060"
     id="namedview4"
     showgrid="false"
     inkscape:zoom="2.95"
     inkscape:cx="53.849015"
     inkscape:cy="83.569637"
     inkscape:window-x="-3"
     inkscape:window-y="-3"
     inkscape:window-maximized="1"
     inkscape:current-layer="svg2" />
  <metadata
     id="metadata8">
    <rdf:RDF>
      <cc:Work
         rdf:about="">
        <dc:format>image/svg+xml</dc:format>
        <dc:type
           rdf:resource="http://purl.org/dc/dcmitype/StillImage" />
        <dc:title></dc:title>
        <dc:date>2015</dc:date>
        <dc:creator>
          <cc:Agent>
            <dc:title>Timothée Giet</dc:title>
          </cc:Agent>
        </dc:creator>
        <cc:license
           rdf:resource="http://creativecommons.org/licenses/by-sa/4.0/" />
      </cc:Work>
      <cc:License
         rdf:about="http://creativecommons.org/licenses/by-sa/4.0/">
        <cc:permits
           rdf:resource="http://creativecommons.org/ns#Reproduction" />
        <cc:permits
           rdf:resource="http://creativecommons.org/ns#Distribution" />
        <cc:requires
           rdf:resource="http://creativecommons.org/ns#Notice" />
        <cc:requires
           rdf:resource="http://creativecommons.org/ns#Attribution" />
        <cc:permits
           rdf:resource="http://creativecommons.org/ns#DerivativeWorks" />
        <cc:requires
           rdf:resource="http://creativecommons.org/ns#ShareAlike" />
      </cc:License>
    </rdf:RDF>
  </metadata>
  <defs
     id="defs6" />
  <path
     style="fill:#e4ac3f;fill-rule:evenodd;stroke:#b87c20;stroke-width:2.17330432;stroke-linejoin:round;stroke-opacity:1;fill-opacity:1"
     inkscape:connector-curvature="0"
     id="path902"
     d="m 38.188729,32.014288 c 0,0 -14.849597,7.371217 -15.362034,8.354898 -0.512438,0.98368 -6.144814,4.750198 -7.679908,8.027004 -1.366501,2.948913 -4.097282,11.141993 -5.121936,17.039819 0.170813,1.145498 0,15.072457 2.04731,17.03769 2.04975,1.967361 19.117692,14.090906 24.752286,14.580617 5.632376,1.639467 13.483097,1.475521 17.238754,0.327893 6.144813,-2.457072 10.412908,-5.897825 12.631252,-8.190951 2.220563,-6.389666 8.536189,-23.263409 8.536189,-28.671523 C 74.034954,56.589271 72.158235,50.199605 68.744203,43.809939 64.476109,34.635307 38.188729,30.210873 38.188729,32.014288 Z" />
  <path
     id="path901"
     d="M 48.912109 0.88867188 C 47.127023 6.2135207 46.303917 10.004214 46.021484 12.960938 C 45.542027 9.7232013 44.215373 5.8050887 38.353516 1.9902344 C 41.364458 6.1220246 40.701234 10.407119 40.5 14.169922 C 37.59531 10.399545 33.979313 5.5863201 27.277344 1.2246094 C 30.647637 4.339595 32.273162 7.9927041 33.636719 11.541016 C 29.965559 9.2160261 25.247586 7.8396422 18.847656 8.8710938 C 25.752967 9.6964312 29.37912 12.312849 31.853516 15.431641 C 28.029181 14.096403 23.400278 13.241473 18.292969 13.892578 C 23.292007 14.943212 27.80002 16.949592 30.947266 19.898438 C 27.280343 19.397327 22.467722 19.179335 16.673828 19.917969 C 23.655851 21.385742 30.735416 20.63999 33.798828 24.314453 C 29.836385 23.498109 24.21031 23.929233 18.457031 29.744141 C 26.589482 26.092599 34.293076 24.904525 35.566406 32.271484 C 49.750499 32.565311 57.976841 34.584149 65.244141 39.09375 C 63.198821 33.545109 74.866816 30.372104 81.535156 34.068359 C 74.738877 28.37491 69.938469 28.851231 66.542969 30.109375 C 69.985446 27.48285 77.351695 26.250588 81.373047 26.417969 C 76.08011 23.943194 71.90587 24.187024 68.652344 25.052734 C 72.481571 21.997981 77.998764 19.503049 82.087891 18.384766 C 78.71013 17.513046 75.269038 18.042176 72.138672 19.167969 C 76.674716 15.66343 81.909391 12.990153 86.705078 13.773438 C 78.115304 11.138373 71.661597 12.261433 66.878906 14.753906 C 69.081283 11.914987 71.887461 9.1272102 75.464844 7.046875 C 69.192401 8.1464411 64.806 10.098832 61.722656 12.269531 C 62.936814 10.405047 64.671555 8.1683183 67.185547 5.3945312 C 63.345484 8.2047109 59.96057 10.038621 57.132812 11.519531 C 58.132014 8.4620912 59.394361 5.1200341 60.972656 1.7695312 C 59.477967 4.6167333 54.278156 8.6326025 50.724609 12.734375 C 49.67148 8.4204486 48.832296 4.0495792 48.912109 0.88867188 z "
     style="fill:#2c6e2c;fill-opacity:1;fill-rule:evenodd;stroke:none;stroke-width:2.17330432;stroke-linejoin:round" />
  <path
     sodipodi:nodetypes="cccccccccccccccccccccccccccccc"
     id="path901-6"
     d="M 48.912109,0.888672 C 47.127023,6.2135208 46.48369,13.359975 46.201257,16.316699 45.7218,13.078962 44.215373,5.8050888 38.353516,1.9902345 41.364458,6.1220247 42.259266,11.365908 41.099243,16.626818 38.194553,12.856441 33.979313,5.5863202 27.277344,1.2246095 30.647637,4.3395951 33.77127,9.8503576 35.134827,13.398669 31.463667,11.07368 25.247586,7.8396423 18.847656,8.8710939 c 6.905311,0.8253374 12.269269,3.1421331 14.444043,7.8189571 -3.824335,-1.335238 -9.891421,-3.448578 -14.99873,-2.797473 4.999038,1.050634 11.604402,2.817317 14.751648,7.084497 -2.997002,-1.003552 -9.9177,-1.797761 -16.370789,-1.059107 6.982023,0.785046 15.020377,-0.624991 18.503259,5.295349 -3.962443,-0.816344 -9.228972,-0.984463 -14.982251,3.332337 6.214873,-3.112224 15.536423,-4.000676 16.809753,3.366283 14.184093,0.293827 20.073387,1.953119 27.340687,6.46272 -2.04532,-5.548641 8.843659,-8.901419 15.511999,-5.205164 -7.215749,-4.19534 -11.956232,-3.359473 -15.351732,-2.101329 3.442477,-4.903649 12.846152,-4.817576 16.867504,-4.650195 -5.292937,-2.474775 -11.204982,-1.33208 -14.458508,-0.46637 3.829227,-4.25324 10.484982,-6.808096 15.173352,-7.566833 -3.377761,-0.87172 -8.436809,0.795972 -11.567175,1.921765 2.978012,-4.703025 11.388675,-7.316378 16.184362,-6.533093 C 78.115304,11.138373 70.043641,13.759538 65.26095,16.252014 66.384689,12.454306 71.887461,9.1272103 75.464844,7.0468751 69.192401,8.1464412 64.026984,11.537015 60.94364,13.707714 61.01924,10.464971 64.671555,8.1683184 67.185547,5.3945313 63.345484,8.204711 58.70216,11.83635 55.874402,13.31726 56.873604,10.25982 59.394361,5.1200342 60.972656,1.7695313 59.477967,4.6167334 53.798762,11.029575 50.245215,15.131347 49.192086,10.817421 48.832296,4.0495793 48.912109,0.888672 Z"
     style="fill:#2a872a;fill-opacity:1;fill-rule:evenodd;stroke:none;stroke-width:2.17330432;stroke-linejoin:round"
     inkscape:connector-curvature="0" />
  <path
     style="fill:#e4ac3f;fill-rule:evenodd;stroke:#b87c20;stroke-width:2.17330432;stroke-linejoin:round;stroke-opacity:1;fill-opacity:1"
     inkscape:connector-curvature="0"
     id="path891"
     d="m 39.646181,31.860987 c 2.917123,2.363389 -1.78133,4.154028 -4.172706,5.872275 -0.929486,1.390354 -5.392795,1.656502 -7.027714,-0.381123 -1.892248,-2.103628 6.40436,-5.874404 11.20042,-5.491152 z" />
  <path
     style="fill:#e4ac3f;fill-rule:evenodd;stroke:#b87c20;stroke-width:2.17330432;stroke-linejoin:round;stroke-opacity:1;fill-opacity:1"
     inkscape:connector-curvature="0"
     id="path896"
     d="m 40.247352,34.007199 c 2.701944,-4.354171 12.495934,-0.8538 13.105978,0.926193 -0.929486,1.390354 -3.223254,4.758715 -5.909669,4.545797 -1.734745,-0.670691 -5.561389,-3.434366 -7.196309,-5.47199 z" />
  <path
     style="fill:#e4ac3f;fill-rule:evenodd;stroke:#b87c20;stroke-width:2.17330432;stroke-linejoin:round;stroke-opacity:1;fill-opacity:1"
     inkscape:connector-curvature="0"
     id="path895"
     d="m 60.358862,40.882318 c -1.00491,-2.344226 -3.922033,-4.705485 -1.710344,-5.772204 4.855956,0.962389 11.111687,6.917702 11.768317,12.476988 -1.734745,-0.670691 -8.423054,-4.66716 -10.057973,-6.704784 z" />
  <path
     style="fill:#e4ac3f;fill-rule:evenodd;stroke:#b87c20;stroke-width:2.17330432;stroke-linejoin:round;stroke-opacity:1;fill-opacity:1"
     inkscape:connector-curvature="0"
     id="path894"
     d="m 49.043087,39.649523 c 0.654412,-2.388938 2.86832,-5.092996 5.592446,-6.029834 3.848828,0.970905 5.366175,5.08235 5.97622,6.862343 -0.929486,1.390354 -2.298205,6.385408 -4.98462,6.170361 -1.734745,-0.670692 -4.946907,-4.963116 -6.584046,-7.00287 z" />
  <path
     style="fill:#e4ac3f;fill-rule:evenodd;stroke:#b87c20;stroke-width:2.17330432;stroke-linejoin:round;stroke-opacity:1;fill-opacity:1"
     inkscape:connector-curvature="0"
     id="path885"
     d="m 27.733672,36.242837 c 2.506729,0.866576 2.681978,3.232094 -0.263983,5.970218 -0.929486,1.390354 -1.776894,0.481194 -5.392795,1.65863 -1.892248,-2.103629 2.932651,-6.692009 5.656778,-7.628848 z" />
  <path
     style="fill:#e4ac3f;fill-rule:evenodd;stroke:#b87c20;stroke-width:2.17330432;stroke-linejoin:round;stroke-opacity:1;fill-opacity:1"
     inkscape:connector-curvature="0"
     id="path892"
     d="m 35.047553,38.670101 c 0.654412,-2.388939 2.866101,-3.455657 5.592446,-4.392496 3.848828,0.970906 5.366175,3.445011 5.97622,5.222876 -0.931705,1.392483 -3.462836,5.62742 -6.147032,5.414502 -1.736964,-0.670692 -3.786714,-4.205129 -5.421634,-6.244882 z" />
  <path
     style="fill:#e4ac3f;fill-rule:evenodd;stroke:#b87c20;stroke-width:2.17330432;stroke-linejoin:round;stroke-opacity:1;fill-opacity:1"
     inkscape:connector-curvature="0"
     id="path869"
     d="m 26.888483,42.415327 c 0.654412,-2.388939 2.868319,-3.455658 5.592446,-4.392496 3.848827,0.970905 5.366175,3.445011 5.976219,5.222876 -0.929486,1.390353 -3.183324,3.608958 -6.799225,4.786394 -1.734745,-0.670692 -3.132302,-3.57915 -4.76944,-5.616774 z" />
  <path
     style="fill:#e4ac3f;fill-rule:evenodd;stroke:#b87c20;stroke-width:2.17330432;stroke-linejoin:round;stroke-opacity:1;fill-opacity:1"
     inkscape:connector-curvature="0"
     id="path868"
     d="m 42.758518,44.563668 c 0.654412,-2.386809 2.020912,-4.364816 4.745039,-5.301655 3.848827,0.970905 7.240675,4.61393 7.848502,6.391795 -0.929487,1.392483 -4.565353,4.652256 -7.24955,4.439338 -1.736963,-0.670691 -3.706853,-3.489724 -5.343991,-5.529478 z" />
  <path
     style="fill:#e4ac3f;fill-rule:evenodd;stroke:#b87c20;stroke-width:2.17330432;stroke-linejoin:round;stroke-opacity:1;fill-opacity:1"
     inkscape:connector-curvature="0"
     id="path893"
     d="m 56.121824,45.849692 c 0.65663,-2.388938 3.045787,-4.107186 5.772132,-5.044024 3.848827,0.970905 5.366175,3.442882 5.97622,5.222875 -0.931705,1.390354 -2.455708,4.95247 -5.139904,4.739553 -1.736964,-0.670692 -4.97131,-2.880779 -6.608448,-4.918404 z" />
  <path
     style="fill:#e4ac3f;fill-rule:evenodd;stroke:#b87c20;stroke-width:2.17330432;stroke-linejoin:round;stroke-opacity:1;fill-opacity:1"
     inkscape:connector-curvature="0"
     id="path890"
     d="m 65.596373,50.795775 c 0.929486,-1.390354 -0.725399,-4.362688 1.488509,-5.429406 4.636339,2.09937 7.56899,8.412386 3.955308,9.589821 -1.736964,-0.670691 -3.806679,-2.122791 -5.443817,-4.160415 z" />
  <path
     style="fill:#e4ac3f;fill-rule:evenodd;stroke:#b87c20;stroke-width:2.17330432;stroke-linejoin:round;stroke-opacity:1;fill-opacity:1"
     inkscape:connector-curvature="0"
     id="path858"
     d="m 50.110111,50.676541 c 0.654412,-2.388939 2.868319,-3.455657 5.592446,-4.392496 3.848827,0.970905 5.366175,3.442882 5.97622,5.222876 -0.929487,1.390353 -1.448579,4.279649 -5.062262,5.454956 -1.736964,-0.670691 -4.871484,-4.247712 -6.506404,-6.285336 z" />
  <path
     style="fill:#e4ac3f;fill-rule:evenodd;stroke:#b87c20;stroke-width:2.17330432;stroke-linejoin:round;stroke-opacity:1;fill-opacity:1"
     inkscape:connector-curvature="0"
     id="path849"
     d="m 31.924124,48.562266 c 0.654412,-2.388938 3.837736,-5.995768 8.003787,-5.176034 2.701943,1.145499 5.878612,3.572763 5.974001,5.222876 -0.929486,1.390354 -2.078589,4.584122 -5.692272,5.759429 -3.71129,-0.472678 -6.648377,-3.766517 -8.285516,-5.806271 z" />
  <path
     style="fill:#e4ac3f;fill-rule:evenodd;stroke:#b87c20;stroke-width:2.17330432;stroke-linejoin:round;stroke-opacity:1;fill-opacity:1"
     inkscape:connector-curvature="0"
     id="path884"
     d="m 21.706431,41.222987 c 2.761838,0.930451 -0.0044,3.017046 -0.598953,5.188809 -0.929487,1.390353 -2.415777,2.678507 -6.02946,3.855943 -1.892248,-2.103629 3.902068,-8.107914 6.628413,-9.044752 z" />
  <path
     style="fill:#e4ac3f;fill-rule:evenodd;stroke:#b87c20;stroke-width:2.17330432;stroke-linejoin:round;stroke-opacity:1;fill-opacity:1"
     inkscape:connector-curvature="0"
     id="path870"
     d="m 19.774253,47.352893 c 0.654411,-2.388939 2.985891,-3.89001 5.712236,-4.826849 2.111864,0.300214 5.246385,3.879364 5.856429,5.657228 -0.929486,1.390354 -2.670886,3.738839 -6.284569,4.914145 -1.736964,-0.670691 -3.646958,-3.7069 -5.284096,-5.744524 z" />
  <path
     style="fill:#e4ac3f;fill-rule:evenodd;stroke:#b87c20;stroke-width:2.17330432;stroke-linejoin:round;stroke-opacity:1;fill-opacity:1"
     inkscape:connector-curvature="0"
     id="path871"
     d="m 12.994993,53.071867 c 0.654411,-2.388939 3.678014,-4.411659 6.40436,-5.348497 3.848827,0.970905 4.55426,4.398883 5.164305,6.178877 -0.929486,1.390354 -3.893194,3.195897 -7.509095,4.373333 -1.734746,-0.670691 -2.422432,-3.166089 -4.05957,-5.203713 z" />
  <path
     style="fill:#e4ac3f;fill-rule:evenodd;stroke:#b87c20;stroke-width:2.17330432;stroke-linejoin:round;stroke-opacity:1;fill-opacity:1"
     inkscape:connector-curvature="0"
     id="path852"
     d="m 24.222033,55.052004 c 0.654412,-2.388939 3.819989,-6.928349 7.983821,-6.110744 2.979237,2.146212 5.563608,3.726063 6.9412,5.699812 -0.929487,1.390354 -2.491201,3.087309 -6.65947,5.284622 -3.71129,-0.472678 -6.630631,-2.833937 -8.265551,-4.87369 z" />
  <path
     style="fill:#e4ac3f;fill-rule:evenodd;stroke:#b87c20;stroke-width:2.17330432;stroke-linejoin:round;stroke-opacity:1;fill-opacity:1"
     inkscape:connector-curvature="0"
     id="path851"
     d="m 41.12138,54.443058 c 0.65663,-2.388938 3.857701,-5.063187 7.036588,-5.65297 2.979236,2.144084 4.811589,4.464889 6.249076,6.221461 -0.929486,1.390354 -1.386465,4.062473 -5.000148,5.239909 -3.533823,-1.124206 -6.648378,-3.768646 -8.285516,-5.8084 z" />
  <path
     style="fill:#e4ac3f;fill-rule:evenodd;stroke:#b87c20;stroke-width:2.17330432;stroke-linejoin:round;stroke-opacity:1;fill-opacity:1"
     inkscape:connector-curvature="0"
     id="path867"
     d="m 59.444904,55.743987 c 0.65663,-2.388939 2.615428,-6.538709 6.206927,-5.631679 4.558698,1.383967 4.751694,4.682065 5.361738,6.462058 -0.397083,2.452815 -2.591026,4.454243 -6.302316,3.981565 -1.736963,-0.670691 -3.629211,-2.77432 -5.266349,-4.811944 z" />
  <path
     style="fill:#e4ac3f;fill-rule:evenodd;stroke:#b87c20;stroke-width:2.17330432;stroke-linejoin:round;stroke-opacity:1;fill-opacity:1"
     inkscape:connector-curvature="0"
     id="path881"
     d="m 67.158087,61.637554 c 0.654412,-2.388939 2.69307,-5.821175 5.417197,-6.758014 3.116774,2.64444 3.800024,8.156884 1.386465,11.959598 -4.383448,0.981551 -5.168742,-3.161831 -6.803662,-5.201584 z" />
  <path
     style="fill:#e4ac3f;fill-rule:evenodd;stroke:#b87c20;stroke-width:2.17330432;stroke-linejoin:round;stroke-opacity:1;fill-opacity:1"
     inkscape:connector-curvature="0"
     id="path854"
     d="m 49.681971,61.247914 c 0.654411,-2.388939 3.837735,-5.995768 8.001568,-5.176034 3.848827,0.970906 6.905705,3.832522 5.976219,5.222876 -0.931705,1.390354 -2.098554,3.649413 -5.712237,4.826849 -3.71129,-0.472678 -6.630631,-2.833937 -8.26555,-4.873691 z" />
  <path
     style="fill:#e4ac3f;fill-rule:evenodd;stroke:#b87c20;stroke-width:2.17330432;stroke-linejoin:round;stroke-opacity:1;fill-opacity:1"
     inkscape:connector-curvature="0"
     id="path853"
     d="m 33.394887,60.619806 c 0.654411,-2.388938 3.797805,-4.846011 6.899051,-6.153327 3.351918,1.775736 8.837883,4.786394 7.908397,6.176748 -0.931705,1.390354 -2.473454,4.01989 -6.089355,5.195197 -3.709072,-0.472678 -7.083173,-3.180993 -8.718093,-5.218618 z" />
  <path
     style="fill:#e4ac3f;fill-rule:evenodd;stroke:#b87c20;stroke-width:2.17330432;stroke-linejoin:round;stroke-opacity:1;fill-opacity:1"
     inkscape:connector-curvature="0"
     id="path865"
     d="m 17.662389,58.969693 c 1.681505,-2.129179 2.848354,-4.390367 6.362211,-4.198741 3.848828,0.970905 5.818718,3.789938 7.455856,5.829692 -0.929487,1.390354 -3.560443,3.977306 -7.174126,5.154742 -3.71129,-0.472678 -5.009021,-4.748069 -6.643941,-6.785693 z" />
  <path
     style="fill:#e4ac3f;fill-rule:evenodd;stroke:#b87c20;stroke-width:2.17330432;stroke-linejoin:round;stroke-opacity:1;fill-opacity:1"
     inkscape:connector-curvature="0"
     id="path879"
     d="m 13.509648,53.201747 c 3.846609,0.970906 2.382502,4.315846 2.992547,6.095839 -0.931705,1.390354 -2.413559,4.422305 -6.027242,5.599741 -1.8931346,-2.103629 0.30835,-10.758741 3.034695,-11.69558 z" />
  <path
     style="fill:#e4ac3f;fill-rule:evenodd;stroke:#b87c20;stroke-width:2.17330432;stroke-linejoin:round;stroke-opacity:1;fill-opacity:1"
     inkscape:connector-curvature="0"
     id="path872"
     d="m 11.577471,65.25077 c 0.654411,-2.388938 2.435742,-5.88505 5.162087,-6.821889 3.848827,0.970906 5.796533,5.874405 6.406578,7.654398 -0.929486,1.390354 -2.688633,2.804129 -6.304534,3.979436 -1.734746,-0.668562 -3.629212,-2.772191 -5.264131,-4.811945 z" />
  <path
     style="fill:#e4ac3f;fill-rule:evenodd;stroke:#b87c20;stroke-width:2.17330432;stroke-linejoin:round;stroke-opacity:1;fill-opacity:1"
     inkscape:connector-curvature="0"
     id="path856"
     d="m 25.510891,65.361488 c 0.654412,-2.38681 3.325298,-6.125648 7.48913,-5.305914 2.584372,1.58198 5.761041,4.009244 5.856429,5.657228 -0.929486,1.390354 -1.44636,4.27965 -5.062261,5.457086 -3.709072,-0.472678 -6.64616,-3.768647 -8.283298,-5.8084 z" />
  <path
     style="fill:#e4ac3f;fill-rule:evenodd;stroke:#b87c20;stroke-width:2.17330432;stroke-linejoin:round;stroke-opacity:1;fill-opacity:1"
     inkscape:connector-curvature="0"
     id="path855"
     d="m 43.080178,66.31536 c 0.654412,-2.388939 2.830607,-5.322947 5.812062,-6.193782 3.848827,0.970906 8.325446,4.654386 8.165725,6.240624 -0.929486,1.390354 -4.190452,4.281779 -7.806353,5.459215 -3.709072,-0.472678 -4.534296,-3.468433 -6.171434,-5.506057 z" />
  <path
     style="fill:#e4ac3f;fill-rule:evenodd;stroke:#b87c20;stroke-width:2.17330432;stroke-linejoin:round;stroke-opacity:1;fill-opacity:1"
     inkscape:connector-curvature="0"
     id="path861"
     d="m 57.432866,65.991725 c 0.65663,-2.388939 3.839954,-5.995768 8.003786,-5.176034 3.848827,0.970905 5.47931,6.027705 4.549824,7.418059 -0.929486,1.390354 -0.456979,2.66999 -4.070662,3.847426 -3.71129,-0.472677 -6.84581,-4.049698 -8.482948,-6.089451 z" />
  <path
     style="fill:#e4ac3f;fill-rule:evenodd;stroke:#b87c20;stroke-width:2.17330432;stroke-linejoin:round;stroke-opacity:1;fill-opacity:1"
     inkscape:connector-curvature="0"
     id="path882"
     d="m 68.446945,71.947038 c 0.891774,-3.257644 1.231181,-5.493281 4.922506,-5.953184 2.42465,3.166089 1.628265,8.071717 -1.985418,9.249153 -1.736964,-0.670691 -1.302168,-1.256216 -2.937088,-3.295969 z" />
  <path
     style="fill:#e4ac3f;fill-rule:evenodd;stroke:#b87c20;stroke-width:2.17330432;stroke-linejoin:round;stroke-opacity:1;fill-opacity:1"
     inkscape:connector-curvature="0"
     id="path860"
     d="m 50.733466,72.426103 c 0.654411,-2.388938 3.837735,-5.995767 8.001568,-5.176034 3.848827,0.970906 6.905706,3.832522 5.974001,5.222876 -0.929486,1.390354 -0.933923,4.407401 -4.547606,5.584837 -3.71129,-0.472678 -7.793043,-3.591925 -9.427963,-5.631679 z" />
  <path
     style="fill:#e4ac3f;fill-rule:evenodd;stroke:#b87c20;stroke-width:2.17330432;stroke-linejoin:round;stroke-opacity:1;fill-opacity:1"
     inkscape:connector-curvature="0"
     id="path857"
     d="m 34.051517,71.233763 c 1.681505,-2.129179 2.69307,-5.821175 7.983821,-6.110743 2.704162,1.147627 6.803662,5.201584 5.874176,6.591938 -0.929487,1.390353 -2.138484,4.799169 -5.752167,5.976605 -3.71129,-0.472678 -6.468692,-4.420176 -8.10583,-6.4578 z" />
  <path
     style="fill:#e4ac3f;fill-rule:evenodd;stroke:#b87c20;stroke-width:2.17330432;stroke-linejoin:round;stroke-opacity:1;fill-opacity:1"
     inkscape:connector-curvature="0"
     id="path864"
     d="m 17.724503,71.755412 c 0.654411,-2.388939 2.930432,-6.68988 7.076518,-6.804856 3.551569,2.058916 7.43589,4.897112 7.788607,6.611101 -0.929486,1.390354 -2.985892,3.89001 -6.599575,5.067445 -3.71129,-0.472677 -6.630631,-2.836066 -8.26555,-4.87369 z" />
  <path
     style="fill:#e4ac3f;fill-rule:evenodd;stroke:#b87c20;stroke-width:2.17330432;stroke-linejoin:round;stroke-opacity:1;fill-opacity:1"
     inkscape:connector-curvature="0"
     id="path878"
     d="m 11.874729,64.164889 c 3.848827,0.973035 5.796533,5.876534 6.406578,7.654398 -0.929486,1.392483 -2.843917,1.373321 -6.459819,2.548628 -4.517214,-2.533723 -2.6722171,-9.264058 0.05324,-10.203026 z" />
  <path
     style="fill:#e4ac3f;fill-rule:evenodd;stroke:#b87c20;stroke-width:2.17330432;stroke-linejoin:round;stroke-opacity:1;fill-opacity:1"
     inkscape:connector-curvature="0"
     id="path886"
     d="m 9.8187672,72.585792 c 3.8483838,0.970905 3.2538678,3.142668 3.8639118,4.922661 -0.931704,1.390354 2.167323,3.755872 -1.448579,4.933308 -1.891804,-2.1015 -3.7756215,-8.099397 -2.4153328,-9.855969 z" />
  <path
     style="fill:#e4ac3f;fill-rule:evenodd;stroke:#b87c20;stroke-width:2.17330432;stroke-linejoin:round;stroke-opacity:1;fill-opacity:1"
     inkscape:connector-curvature="0"
     id="path866"
     d="m 11.892475,77.016613 c 0.654412,-2.388939 3.837736,-5.995768 8.003787,-5.178163 3.848827,0.973035 6.903487,3.834651 5.974001,5.225005 0.885119,2.776449 -2.375847,5.667874 -5.991748,6.84531 -3.709072,-0.472678 -6.348901,-4.854528 -7.98604,-6.892152 z" />
  <path
     style="fill:#e4ac3f;fill-rule:evenodd;stroke:#b87c20;stroke-width:2.17330432;stroke-linejoin:round;stroke-opacity:1;fill-opacity:1"
     inkscape:connector-curvature="0"
     id="path862"
     d="m 26.0078,77.561683 c 0.654412,-2.388939 4.134994,-7.081649 8.301045,-6.264044 3.848827,0.973034 6.606229,4.920532 5.676743,6.310886 -0.929487,1.390354 -2.098554,3.649412 -5.712237,4.826848 -3.71129,-0.472677 -6.628413,-2.836066 -8.265551,-4.87369 z" />
  <path
     style="fill:#e4ac3f;fill-rule:evenodd;stroke:#b87c20;stroke-width:2.17330432;stroke-linejoin:round;stroke-opacity:1;fill-opacity:1"
     inkscape:connector-curvature="0"
     id="path859"
     d="m 42.747426,78.536847 c 0.65663,-2.38681 3.879885,-7.145525 7.078737,-6.802727 2.504511,0.864447 8.718093,5.218618 7.788607,6.608972 -0.929486,1.392483 -2.90825,4.607543 -6.521932,5.784979 -3.71129,-0.472678 -6.708274,-3.551471 -8.345412,-5.591224 z" />
  <path
     style="fill:#e4ac3f;fill-rule:evenodd;stroke:#b87c20;stroke-width:2.17330432;stroke-linejoin:round;stroke-opacity:1;fill-opacity:1"
     inkscape:connector-curvature="0"
     id="path873"
     d="m 60.975561,78.187661 c 0.654412,-2.388938 4.035169,-5.714716 6.761514,-6.651554 6.353338,1.837481 4.481055,13.669328 -1.734745,12.332204 -1.736964,-0.670692 -3.391849,-3.640896 -5.026769,-5.68065 z" />
  <path
     style="fill:#e4ac3f;fill-rule:evenodd;stroke:#b87c20;stroke-width:2.17330432;stroke-linejoin:round;stroke-opacity:1;fill-opacity:1"
     inkscape:connector-curvature="0"
     id="path874"
     d="m 51.964647,84.040774 c 0.654411,-2.388938 4.804934,-5.520961 7.531279,-6.457799 3.848827,0.970905 5.341773,5.527348 5.951818,7.307342 -0.929487,1.390353 -2.688634,2.804128 -6.302317,3.981564 -1.736963,-0.670691 -5.543642,-2.793483 -7.18078,-4.831107 z" />
  <path
     style="fill:#e4ac3f;fill-rule:evenodd;stroke:#b87c20;stroke-width:2.17330432;stroke-linejoin:round;stroke-opacity:1;fill-opacity:1"
     inkscape:connector-curvature="0"
     id="path863"
     d="m 34.961038,84.930771 c -0.687687,-2.495398 3.032477,-8.058942 7.196309,-7.239208 3.848827,0.973035 8.618267,6.587679 7.688781,7.978033 -0.929486,1.390354 -2.098554,3.651542 -5.712236,4.826849 -3.71129,-0.472678 -7.535716,-3.52805 -9.172854,-5.565674 z" />
  <path
     style="fill:#e4ac3f;fill-rule:evenodd;stroke:#b87c20;stroke-width:2.17330432;stroke-linejoin:round;stroke-opacity:1;fill-opacity:1"
     inkscape:connector-curvature="0"
     id="path880"
     d="m 12.125402,83.267882 c 0.654411,-2.388938 0.02218,-2.082337 2.748528,-3.021305 3.848828,0.973035 8.518442,7.956742 9.128487,9.736736 -4.898104,0.851671 -10.239877,-4.675677 -11.877015,-6.715431 z" />
  <path
     style="fill:#e4ac3f;fill-rule:evenodd;stroke:#b87c20;stroke-width:2.17330432;stroke-linejoin:round;stroke-opacity:1;fill-opacity:1"
     inkscape:connector-curvature="0"
     id="path877"
     d="m 32.547479,92.836412 c 0.341625,-5.254813 3.442871,-6.56 6.147032,-5.414502 3.846609,0.973035 8.800172,2.919105 7.828537,5.461344 -0.929486,1.390354 -4.130557,4.064603 -8.711438,4.765103 -1.736963,-0.670692 -3.629211,-2.774321 -5.264131,-4.811945 z" />
  <path
     style="fill:#e4ac3f;fill-rule:evenodd;stroke:#b87c20;stroke-width:2.17330432;stroke-linejoin:round;stroke-opacity:1;fill-opacity:1"
     inkscape:connector-curvature="0"
     id="path875"
     d="m 46.09269,90.451732 c 0.654411,-2.388939 2.950397,-5.7573 5.674524,-6.694139 3.848828,0.970906 7.001095,5.482636 7.61114,7.26263 -0.929487,1.390354 -4.603065,2.784966 -8.216748,3.962402 -3.71129,-0.472678 -4.953563,-1.948199 -5.068916,-4.530893 z" />
  <path
     style="fill:#e4ac3f;fill-rule:evenodd;stroke:#b87c20;stroke-width:2.17330432;stroke-linejoin:round;stroke-opacity:1;fill-opacity:1"
     inkscape:connector-curvature="0"
     id="path883"
     d="m 58.768309,89.240229 c 0.65663,-2.388939 6.224674,-4.662902 8.951019,-5.59974 1.832353,2.320805 -1.490727,8.412385 -5.541424,10.175346 -1.734745,-0.670692 -1.772457,-2.535852 -3.409595,-4.575606 z" />
  <path
     style="fill:#e4ac3f;fill-rule:evenodd;stroke:#b87c20;stroke-width:2.17330432;stroke-linejoin:round;stroke-opacity:1;fill-opacity:1"
     inkscape:connector-curvature="0"
     id="path887"
     d="m 51.85373,96.453887 c -1.337662,-3.123505 2.058623,-2.861616 4.705108,-4.513859 2.018693,0.06813 3.913159,-1.901357 5.505931,1.286024 -1.99651,2.28248 -8.948801,5.635937 -10.211039,3.227835 z" />
  <path
     style="fill:#e4ac3f;fill-rule:evenodd;stroke:#b87c20;stroke-width:2.17330432;stroke-linejoin:round;stroke-opacity:1;fill-opacity:1"
     inkscape:connector-curvature="0"
     id="path876"
     d="m 20.257852,84.626298 c 0.654411,-2.388938 5.752167,-5.978734 7.48913,-5.308043 3.848828,0.970906 7.675471,4.028407 7.551244,7.479806 -1.089207,2.974463 -3.618119,4.194482 -8.139105,4.677806 -1.736964,-0.670691 -5.266349,-4.811944 -6.901269,-6.849569 z" />
  <path
     style="fill:#e4ac3f;fill-rule:evenodd;stroke:#b87c20;stroke-width:2.17330432;stroke-linejoin:round;stroke-opacity:1;fill-opacity:1"
     inkscape:connector-curvature="0"
     id="path889"
     d="m 22.56493,90.219651 c 3.338608,-2.17602 6.455382,0.46842 8.489604,0.05323 1.677068,0.887867 2.937087,3.295969 4.532077,6.485479 -3.556006,0.960259 -11.761662,-4.130607 -13.021681,-6.538709 z" />
  <path
     style="fill:#e4ac3f;fill-rule:evenodd;stroke:#b87c20;stroke-width:2.17330432;stroke-linejoin:round;stroke-opacity:1;fill-opacity:1"
     inkscape:connector-curvature="0"
     id="path888"
     d="m 39.553011,97.294913 c 3.340826,-2.176021 5.355083,-3.523791 7.389304,-3.938981 1.677069,0.887868 3.276495,1.060331 6.273478,4.136995 -2.33148,1.501071 -12.400545,2.210087 -13.662782,-0.198014 z" />
</svg>
