<?xml version="1.0" encoding="UTF-8" standalone="no"?>
<!-- Created with Inkscape (http://www.inkscape.org/) -->

<svg
   xmlns:dc="http://purl.org/dc/elements/1.1/"
   xmlns:cc="http://creativecommons.org/ns#"
   xmlns:rdf="http://www.w3.org/1999/02/22-rdf-syntax-ns#"
   xmlns:svg="http://www.w3.org/2000/svg"
   xmlns="http://www.w3.org/2000/svg"
   xmlns:sodipodi="http://sodipodi.sourceforge.net/DTD/sodipodi-0.dtd"
   xmlns:inkscape="http://www.inkscape.org/namespaces/inkscape"
   id="svg2"
   version="1.1"
   inkscape:version="0.91 r13725"
   width="100"
   height="100"
   sodipodi:docname="question_mark.svg">
  <metadata
     id="metadata8">
    <rdf:RDF>
      <cc:Work
         rdf:about="">
        <dc:format>image/svg+xml</dc:format>
        <dc:type
           rdf:resource="http://purl.org/dc/dcmitype/StillImage" />
        <dc:title />
      </cc:Work>
    </rdf:RDF>
  </metadata>
  <defs
     id="defs6" />
  <sodipodi:namedview
     pagecolor="#ffffff"
     bordercolor="#666666"
     borderopacity="1"
     objecttolerance="10"
     gridtolerance="10"
     guidetolerance="10"
     inkscape:pageopacity="0"
     inkscape:pageshadow="2"
     inkscape:window-width="1880"
     inkscape:window-height="1060"
     id="namedview4"
     showgrid="false"
     inkscape:zoom="2.95"
     inkscape:cx="38.74809"
     inkscape:cy="34.0742"
     inkscape:window-x="-3"
     inkscape:window-y="-3"
     inkscape:window-maximized="1"
     inkscape:current-layer="layer1" />
  <g
     inkscape:groupmode="layer"
     id="layer1"
     inkscape:label="Layer 1"
     style="opacity:0.8">
    <g
       transform="matrix(1.0068952,0,0,0.92189961,-102.26045,-181.83788)"
       style="font-style:oblique;font-variant:normal;font-weight:bold;font-stretch:normal;font-size:150px;line-height:125%;font-family:Arial;-inkscape-font-specification:'Sans Oblique';letter-spacing:0px;word-spacing:0px;opacity:1;fill:#2a2a2a;fill-opacity:1;stroke:none"
       id="text3828">
      <path
         d="m 160.71917,278.02875 -18.67676,0 c -0.0489,-2.68552 -0.0733,-4.32126 -0.0732,-4.90723 -4e-5,-6.05465 1.00094,-11.03511 3.00293,-14.94141 2.00191,-3.90619 6.00581,-8.30072 12.01172,-13.18359 6.0058,-4.88275 9.59466,-8.08098 10.7666,-9.59473 1.80658,-2.3925 2.7099,-5.02922 2.70996,-7.91015 -6e-5,-4.00383 -1.59918,-7.434 -4.79736,-10.29053 -3.1983,-2.85635 -7.50738,-4.28457 -12.92725,-4.28467 -5.22465,1e-4 -9.59476,1.48935 -13.11035,4.46778 -3.51566,2.9786 -5.93265,7.51961 -7.25098,13.62304 L 113.478,228.66351 c 0.5371,-8.74015 4.26024,-16.16201 11.16943,-22.26562 6.90916,-6.10341 15.97897,-9.15517 27.20947,-9.15528 11.81635,1.1e-4 21.21576,3.08849 28.19825,9.26514 6.98234,6.17685 10.47355,13.36679 10.47363,21.56983 -8e-5,4.54108 -1.28182,8.83796 -3.84521,12.89062 -2.56356,4.0528 -8.04451,9.57037 -16.44288,16.55274 -4.34576,3.61332 -7.04351,6.51859 -8.09326,8.71582 -1.04986,2.1973 -1.52593,6.12796 -1.42822,11.79199 z m -18.67676,27.68554 0,-20.58105 20.58106,0 0,20.58105 z"
         style="font-style:normal;-inkscape-font-specification:'Arial Bold';fill:#2a2a2a;fill-opacity:1"
         id="path3833"
         inkscape:connector-curvature="0" />
    </g>
    <g
       transform="matrix(1.0068952,0,0,0.92189961,-102.26045,-181.83788)"
       style="font-style:oblique;font-variant:normal;font-weight:bold;font-stretch:normal;font-size:150px;line-height:125%;font-family:Arial;-inkscape-font-specification:'Sans Oblique';letter-spacing:0px;word-spacing:0px;opacity:1;fill:#666666;fill-opacity:1;stroke:none"
       id="text3828-3">
      <path
         style="font-style:normal;-inkscape-font-specification:'Arial Bold';fill:#666666;fill-opacity:1"
         d="m 150.86328,199.25195 c -16.26426,-0.75142 -33.45571,10.7663 -35.21875,27.66602 4.93532,0.16349 11.17363,2.25072 15.35742,1.30469 2.19013,-10.82331 12.85886,-18.74309 23.88672,-17.23047 10.64592,-0.17922 20.70087,10.72135 16.77344,21.32226 -4.12713,9.66619 -15.17235,13.7089 -21.41602,21.78711 -5.56596,5.79515 -6.6193,14.23569 -6.23242,21.92774 4.25084,-1.03395 12.36541,1.8837 14.71919,-1.08956 -0.52755,-6.7069 2.55292,-13.05035 7.96382,-16.99709 9.26095,-8.38972 22.71676,-17.02354 21.79551,-31.2571 -1.08823,-18.23882 -20.75331,-28.65119 -37.62891,-27.4336 z"
         id="path3833-6"
         inkscape:connector-curvature="0"
         sodipodi:nodetypes="ccccccccccc" />
    </g>
    <path
       d="m 42.761371,98 0,-14.973657 16.722971,0 0,14.973657 z"
       style="font-style:normal;font-variant:normal;font-weight:bold;font-stretch:normal;font-size:150px;line-height:125%;font-family:Arial;-inkscape-font-specification:'Arial Bold';letter-spacing:0px;word-spacing:0px;opacity:1;fill:#666666;fill-opacity:1;stroke:none"
       id="path3833-7"
       inkscape:connector-curvature="0"
       sodipodi:nodetypes="ccccc" />
  </g>
</svg>
