<!--Created with Inkscape (http://www.inkscape.org/)--><svg xmlns:dc="http://purl.org/dc/elements/1.1/" xmlns:cc="http://creativecommons.org/ns#" xmlns:rdf="http://www.w3.org/1999/02/22-rdf-syntax-ns#" xmlns="http://www.w3.org/2000/svg" xmlns:xlink="http://www.w3.org/1999/xlink" xmlns:sodipodi="http://sodipodi.sourceforge.net/DTD/sodipodi-0.dtd" xmlns:inkscape="http://www.inkscape.org/namespaces/inkscape" width="100" height="100" sodipodi:version="0.32" inkscape:version="0.92.1 r15371" version="1.0" sodipodi:docname="share.svg" inkscape:output_extension="org.inkscape.output.svg.inkscape"><defs><linearGradient id="b" inkscape:collect="always"><stop offset="0" style="stop-color:#a16f29;stop-opacity:1"/><stop offset="1" style="stop-color:#cb9544;stop-opacity:1"/></linearGradient><linearGradient inkscape:collect="always" id="a"><stop style="stop-color:#5d9cd6;stop-opacity:1" offset="0"/><stop style="stop-color:#85bbe0;stop-opacity:1" offset="1"/></linearGradient><linearGradient gradientTransform="matrix(.98154 .09748 -.0984 .97241 -128.715 -1.454)" gradientUnits="userSpaceOnUse" y2="29.458378" x2="47.31078" y1="27.521519" x1="47.416126" id="d" xlink:href="#a" inkscape:collect="always"/><linearGradient gradientTransform="matrix(.96958 .09974 -.0972 .99501 -128.43 -2.138)" gradientUnits="userSpaceOnUse" y2="30.051884" x2="38.269402" y1="28.53743" x1="38.396049" id="c" xlink:href="#a" inkscape:collect="always"/><linearGradient gradientTransform="matrix(-.98154 .09748 .0984 .97241 -9.184 -1.454)" gradientUnits="userSpaceOnUse" y2="29.458378" x2="47.31078" y1="27.521519" x1="47.416126" id="f" xlink:href="#b" inkscape:collect="always"/><linearGradient inkscape:collect="always" xlink:href="#b" id="e" gradientUnits="userSpaceOnUse" gradientTransform="matrix(-.96958 .09974 .0972 .99501 -9.469 -2.138)" x1="38.396049" y1="28.53743" x2="38.269402" y2="30.051884"/></defs><sodipodi:namedview pagecolor="#ffffff" bordercolor="#666666" borderopacity="1.0" inkscape:pageopacity="0.0" inkscape:pageshadow="2" inkscape:zoom="5.1191609" inkscape:cx="45.385213" inkscape:cy="51.92566" inkscape:document-units="px" inkscape:current-layer="layer1" height="100px" width="100px" inkscape:window-width="1884" inkscape:window-height="1051" inkscape:window-x="0" inkscape:window-y="0" showgrid="false" inkscape:window-maximized="1"/><metadata><rdf:RDF><cc:Work><dc:format>image/svg+xml</dc:format><dc:type rdf:resource="http://purl.org/dc/dcmitype/StillImage"/><dc:title/><dc:date>2017</dc:date><dc:creator><cc:Agent><dc:title>Timothée Giet</dc:title></cc:Agent></dc:creator><cc:license rdf:resource="http://creativecommons.org/licenses/by-sa/4.0/"/></cc:Work><cc:License rdf:about="http://creativecommons.org/licenses/by-sa/4.0/"><cc:permits rdf:resource="http://creativecommons.org/ns#Reproduction"/><cc:permits rdf:resource="http://creativecommons.org/ns#Distribution"/><cc:requires rdf:resource="http://creativecommons.org/ns#Notice"/><cc:requires rdf:resource="http://creativecommons.org/ns#Attribution"/><cc:permits rdf:resource="http://creativecommons.org/ns#DerivativeWorks"/><cc:requires rdf:resource="http://creativecommons.org/ns#ShareAlike"/></cc:License></rdf:RDF></metadata><g inkscape:label="Calque 1" inkscape:groupmode="layer"><path style="color:#000;font-style:normal;font-variant:normal;font-weight:400;font-stretch:normal;font-size:medium;line-height:normal;font-family:sans-serif;font-variant-ligatures:normal;font-variant-position:normal;font-variant-caps:normal;font-variant-numeric:normal;font-variant-alternates:normal;font-feature-settings:normal;text-indent:0;text-align:start;text-decoration:none;text-decoration-line:none;text-decoration-style:solid;text-decoration-color:#000;letter-spacing:normal;word-spacing:normal;text-transform:none;writing-mode:lr-tb;direction:ltr;text-orientation:mixed;dominant-baseline:auto;baseline-shift:baseline;text-anchor:start;white-space:normal;shape-padding:0;clip-rule:nonzero;display:inline;overflow:visible;visibility:visible;opacity:1;isolation:auto;mix-blend-mode:normal;color-interpolation:sRGB;color-interpolation-filters:linearRGB;solid-color:#000;solid-opacity:1;vector-effect:none;fill:#6d1e1e;fill-opacity:1;fill-rule:nonzero;stroke:none;stroke-width:2.37690854;stroke-linecap:butt;stroke-linejoin:miter;stroke-miterlimit:4;stroke-dasharray:none;stroke-dashoffset:0;stroke-opacity:1;color-rendering:auto;image-rendering:auto;shape-rendering:auto;text-rendering:auto;enable-background:accumulate" d="M132.028 679.848c-8.045-.25-15.955 4.502-19.292 11.863-2.595 5.376-3.075 11.643-2.058 17.468.58 3.65 4.417 5.854 7.92 4.988 3.369-.2 5.948-3.124 6.14-6.417.764-4.06-.937-8.81 1.84-12.33 2.253-2.209 6.277-2.216 8.898-.783 1.748 2.917 1.092 6.57 1.243 9.838-.005 16.769-.043 33.542.05 50.308.248 4.27 5.206 6.283 8.879 5.017 4.277-.791 5.635-5.407 5.067-9.188-.023-16.608 1.198-33.207.698-49.813-.239-5.155-.596-10.905-4.589-14.697-3.796-4.005-9.29-6.276-14.796-6.254z" inkscape:connector-curvature="0" transform="matrix(.3112 0 0 .3112 9.278 -140.562)"/><path style="fill:#f0f0f0;fill-opacity:1;stroke-width:1.18845427" d="M132.031 682.226c-6.833-.238-13.612 3.558-16.722 9.69-2.747 5.047-3.222 11.079-2.328 16.67.433 3.388 4.398 3.983 7.025 2.816 2.9-1.586 2.448-5.446 2.555-8.255-.343-4.149.472-9.434 4.876-11.133 2.889-.962 6.372-1.09 9.085.43 3.016 2.353 2.464 6.631 2.58 10.04-.033 17.35-.022 34.703.025 52.052.2 3.224 4.347 3.87 6.739 2.666 2.642-.8 2.624-3.68 2.47-5.918-.023-16.536 1.122-33.061.735-49.596-.312-4.798-.18-10.322-3.967-13.885-3.38-3.5-8.2-5.588-13.073-5.577z" inkscape:connector-curvature="0" transform="matrix(.3112 0 0 .3112 9.278 -140.562)"/><path style="color:#000;fill:#dc3f3f;fill-opacity:1;stroke-width:.15989453" d="M134.978 682.494c-2.786 1.683-3.876 5.48-3.52 8.839 1.77-.043 3.537.256 5.064 1.111.345.27.63.573.887.888.169-3.06 1.924-7.005 4.528-8.086-1.864-1.214-3.93-2.11-6.101-2.588-.232-.039-.465-.103-.694-.142-.054-.01-.11-.013-.164-.022zm-12.091 1.887c-3.05 1.606-5.636 4.042-7.31 7.101.793 3.36 4.279 6.463 7.31 6.4.531-2.311 1.708-4.367 3.856-5.497-3.643-2.21-4.05-5.45-3.856-8.004zm25.987 13.971c-3.457.84-7.035 3.54-9.771 5.788-.005 2.969.01 5.937.007 8.906 2.651-2.652 6.19-6.048 9.972-6.683-.011-1.558.022-3.118-.015-4.677-.07-1.083-.118-2.208-.193-3.334zm-36.266 6.273c.049 1.332.165 2.659.373 3.96.433 3.39 4.4 3.987 7.027 2.82.73-.4 1.243-.946 1.61-1.581-3 .476-6.977-1.144-9.01-5.199zm36.37 15.44c-3.527.866-7.297 3.461-9.868 6.05 0 2.65.005 5.3.007 7.95 2.665-2.387 6.248-5.07 9.674-6.093.077-2.636.127-5.271.187-7.907zm-.5 20.251c-3.193.807-6.721 2.95-9.36 4.93.005 2.497 0 4.993.007 7.49 2.438-2.3 5.861-5.298 9.271-6.02.022-2.134.036-4.266.082-6.4z" inkscape:connector-curvature="0" transform="matrix(.3112 0 0 .3112 9.278 -140.562)"/><g transform="matrix(.7408 0 0 .7408 99.253 17.056)"><path style="display:inline;overflow:visible;fill:#6d4d30;fill-opacity:1;fill-rule:evenodd;stroke:none;stroke-width:4.48256016px;stroke-linecap:butt;stroke-linejoin:miter;stroke-opacity:1" d="M-78.185 62.085c2.139.481 6.547 2.458 6.288 4.394-.09.675-3.769-.532-4.452.062-.682.595-.646 1.179.858 2.083.727.436.689 1.775-.214 1.71-.902-.064-3.31-1.397-4.398-2.534-1.089-1.137-3.15-3.293-2.586-3.927.83-.932 4.504-1.788 4.504-1.788z" inkscape:connector-curvature="0" sodipodi:nodetypes="cssssssc"/><path style="display:inline;overflow:visible;fill:#c79968;fill-opacity:1;fill-rule:evenodd;stroke:none;stroke-width:4.48256016px;stroke-linecap:butt;stroke-linejoin:miter;stroke-opacity:1" d="M-78.38 62.758c2.138.482 4.963 1.574 5.18 2.864.113.672-3.052-.011-3.735.583-.683.594-.84 1.506.664 2.41.726.436.842.88-.061.817-.902-.064-2.348-1.446-3.437-2.583-1.089-1.137-3.485-2.342-2.92-2.976.83-.932 4.308-1.115 4.308-1.115z" inkscape:connector-curvature="0" sodipodi:nodetypes="cssssssc"/><path style="display:inline;overflow:visible;fill:#864a25;fill-opacity:1;fill-rule:evenodd;stroke:none;stroke-width:4.48256016px;stroke-linecap:butt;stroke-linejoin:miter;stroke-opacity:1" d="M-96.01 50.104c3.627 5.303 7.315 12.161 9.687 15.058 1.873 2.287 6.467 1.433 7.925-1.782 1.856-4.091-2.835-7.31-5.888-9.847-2.613-2.171-7.089-8.232-9.552-8.503-2.619-.29-3.647 1.43-2.171 5.074z" inkscape:connector-curvature="0" sodipodi:nodetypes="cssssc"/><path style="display:inline;overflow:visible;fill:#d38254;fill-opacity:1;fill-rule:evenodd;stroke:none;stroke-width:4.48256016px;stroke-linecap:butt;stroke-linejoin:miter;stroke-opacity:1" d="M-96.313 48.855c3.626 5.303 8.252 12.307 10.624 15.204 1.873 2.287 5.018 1.988 6.476-1.227 1.856-4.091-2.605-5.855-5.657-8.392-2.613-2.17-7.564-8.724-10.027-8.996-2.619-.289-2.892-.234-1.416 3.41z" inkscape:connector-curvature="0" sodipodi:nodetypes="cssssc"/><path inkscape:transform-center-y="6.4827357" inkscape:transform-center-x="-3.3593108" style="display:inline;overflow:visible;fill:#785333;fill-opacity:1;fill-rule:evenodd;stroke:none;stroke-width:4.48256016px;stroke-linecap:butt;stroke-linejoin:miter;stroke-opacity:1" d="M-84.222 83.65c3.413 1.054 5.83 3.564 6.07 3.928.239.363.861 1.69.424 2.196-.438.506-4.06 2.937-8.512 3.646-4.452.708-8.437-.121-8.934-.814-.498-.693-1.844-3.855-1.034-4.555.81-.7 9.87-4.82 11.986-4.401z" inkscape:connector-curvature="0"/><path inkscape:transform-center-y="6.0417536" inkscape:transform-center-x="-3.1733939" style="display:inline;overflow:visible;fill:#d9bc7e;fill-opacity:1;fill-rule:evenodd;stroke:none;stroke-width:4.48256016px;stroke-linecap:butt;stroke-linejoin:miter;stroke-opacity:1" d="M-84.64 84.404c2.886.791 4.9 2.77 5.098 3.058.198.289.49.824.11 1.238-.38.414-3.5 2.426-7.295 3.067-3.796.641-7.172.039-7.583-.51-.412-.548-1.29-2.548-.59-3.124.7-.576 8.47-4.032 10.26-3.73z" inkscape:connector-curvature="0" sodipodi:nodetypes="ccssssc"/><path style="display:inline;overflow:visible;fill:#7c4523;fill-opacity:1;fill-rule:evenodd;stroke:none;stroke-width:4.48256016px;stroke-linecap:butt;stroke-linejoin:miter;stroke-opacity:1" d="M-90.742 68.168c2.538 4.173 5.451 8.756 5.57 9.258.12.503-.691 4.736-.448 5.016.244.281 1.842-.55 2.127.374.114.37-2.173 3.269-4.797 4.512-2.624 1.244-7.76 3.49-8.827 2.507-1.067-.984-.2-6.886-.26-7.632-.06-.746.39-1.25.624-1.558.235-.308-3.33-5.854-3.914-6.774-.583-.92 8.499-5.669 9.925-5.703z" inkscape:connector-curvature="0" sodipodi:nodetypes="cssssssssc" inkscape:transform-center-x="1.7131945" inkscape:transform-center-y="-3.0499145"/><path style="display:inline;overflow:visible;fill:#c76f3a;fill-opacity:1;fill-rule:evenodd;stroke:none;stroke-width:4.48256016px;stroke-linecap:butt;stroke-linejoin:miter;stroke-opacity:1" d="M-91.148 69.678c2.188 3.598 4.796 7.64 4.899 8.073.103.434-1.035 4.82-.626 5.258.219.234 1.527.132 1.482.463-.046.331-1.34 1.71-3.602 2.781-2.262 1.073-6.544 3.063-7.464 2.215-.92-.848.31-5.77.259-6.413-.052-.643.336-1.077.538-1.343s-2.678-5.883-3.818-6.62c-.788-.51 7.102-4.384 8.332-4.414z" inkscape:connector-curvature="0" sodipodi:nodetypes="cssssssssc" inkscape:transform-center-x="2.0853772" inkscape:transform-center-y="-2.9968831"/><path style="display:inline;overflow:visible;fill:#785333;fill-opacity:1;fill-rule:evenodd;stroke:none;stroke-width:4.48256016px;stroke-linecap:butt;stroke-linejoin:miter;stroke-opacity:1" d="M-95.772 86.857c2.945 2.021 4.506 5.137 4.626 5.556.12.418.32 1.869-.248 2.222-.568.354-4.75 1.597-9.21.95-4.462-.649-8.02-2.627-8.289-3.436-.268-.81-.613-4.229.369-4.657.982-.427 10.857-1.664 12.752-.635z" inkscape:connector-curvature="0"/><path style="display:inline;overflow:visible;fill:#d9bc7e;fill-opacity:1;fill-rule:evenodd;stroke:none;stroke-width:4.48256016px;stroke-linecap:butt;stroke-linejoin:miter;stroke-opacity:1" d="M-96.394 87.424c2.518 1.468 3.853 3.73 3.956 4.034.103.304.274 1.358-.212 1.615-.486.257-4.063 1.16-7.878.689-3.814-.47-6.858-1.907-7.087-2.495-.23-.588-.525-3.071.315-3.382.84-.31 9.285-1.209 10.906-.461z" inkscape:connector-curvature="0"/><path style="display:inline;overflow:visible;fill:#7c4523;fill-opacity:1;fill-rule:evenodd;stroke:none;stroke-width:4.48256016px;stroke-linecap:butt;stroke-linejoin:miter;stroke-opacity:1" d="M-94.385 71.246c.837 4.812 1.468 9.273 1.395 9.785-.072.511-2.084 4.545-1.96 4.895.124.35 2.033.787 1.843 1.125-.19.338-3.217 2.248-6.114 2.446-2.897.199-9.349-.34-9.983-1.646-.634-1.305 2.89-6.12 3.107-6.836.217-.716.82-1.02 1.15-1.221.332-.202-1.088-3.42-1.294-4.49-.207-1.069 10.516-4.547 11.856-4.058z" inkscape:connector-curvature="0" sodipodi:nodetypes="cssssssssc"/><path style="display:inline;overflow:visible;fill:#c76f3a;fill-opacity:1;fill-rule:evenodd;stroke:none;stroke-width:4.48256016px;stroke-linecap:butt;stroke-linejoin:miter;stroke-opacity:1" d="M-95.315 72.504c.722 4.148 1.266 7.994 1.203 8.435-.062.441-2.434 4.499-2.213 5.055.118.298 1.373.682 1.21.973-.164.292-1.872 1.101-4.37 1.272-2.497.171-8.06-.294-8.606-1.42-.547-1.125 2.957-4.894 3.144-5.512.187-.617.706-.88.992-1.053.285-.174-.47-3.208-1.262-4.31-.547-.763 8.747-3.863 9.902-3.44z" inkscape:connector-curvature="0" sodipodi:nodetypes="cssssssssc"/><path style="display:inline;overflow:visible;fill:#864a25;fill-opacity:1;fill-rule:evenodd;stroke:none;stroke-width:4.48256016px;stroke-linecap:butt;stroke-linejoin:miter;stroke-opacity:1" d="M-92.424 46.977c2.41 3.429 10.357 20.89 10.862 24.947-.78 1.465-4.626.052-10.597 3.957-2.108 1.38-20.693 2.888-19.658-.144.639-1.874 1.893-3.953 3.486-9.557 1.593-5.603 3.192-21.36 4.602-22.092 2.094-1.088 9.136-.426 11.305 2.889z" inkscape:connector-curvature="0" sodipodi:nodetypes="ccssssc"/><path style="display:inline;overflow:visible;fill:#d38254;fill-opacity:1;fill-rule:evenodd;stroke:none;stroke-width:4.48256016px;stroke-linecap:butt;stroke-linejoin:miter;stroke-opacity:1" d="M-92.549 48.537c2.183 3.108 9.386 18.932 9.844 22.608-.707 1.328-4.193.047-9.604 3.587-1.91 1.25-18.753 2.616-17.815-.132.579-1.697 1.716-3.582 3.16-8.66 1.443-5.078 2.892-19.358 4.17-20.021 1.898-.986 8.28-.386 10.245 2.618z" inkscape:connector-curvature="0" sodipodi:nodetypes="ccssssc"/><path style="display:inline;overflow:visible;fill:#864a25;fill-opacity:1;fill-rule:evenodd;stroke:none;stroke-width:4.48256016px;stroke-linecap:butt;stroke-linejoin:miter;stroke-opacity:1" d="M-102.498 49.367c-2.838 5.764-5.515 13.076-7.452 16.28-1.53 2.53-6.199 2.336-8.098-.64-2.417-3.787 1.77-7.64 4.432-10.583 2.278-2.52 5.85-9.154 8.25-9.772 2.55-.657 3.812.898 2.868 4.715z" inkscape:connector-curvature="0" sodipodi:nodetypes="cssssc"/><path style="display:inline;overflow:visible;fill:#d38254;fill-opacity:1;fill-rule:evenodd;stroke:none;stroke-width:4.48256016px;stroke-linecap:butt;stroke-linejoin:miter;stroke-opacity:1" d="M-102.098 47.811c-2.838 5.764-6.7 13.63-8.636 16.833-1.53 2.53 1.116-1.559-1.972-3.269-4.38-2.425-6.54.4-.64-5.857 2.33-2.472 5.927-9.504 8.327-10.123 2.55-.657 3.865-1.4 2.921 2.416z" inkscape:connector-curvature="0" sodipodi:nodetypes="cssssc"/><path style="display:inline;overflow:visible;fill:#6c4e30;fill-opacity:.97846327;fill-rule:evenodd;stroke:none;stroke-width:4.16854429px;stroke-linecap:butt;stroke-linejoin:miter;stroke-opacity:1" d="M-115.525 60.945c-3.15-.264-8.173-1.376-8.78-1.018-.607.357-.585 1.449.224 1.937.808.489 3.986.958 4.435 1.358-1.464.879-6.2 1.755-6.235 2.368-.035.613.384 1.519 1.391 1.65 1.008.13 3.735-.86 4.5-.804-1.062 1.452-3.587 3.616-3.426 4.126.16.51 1.248.918 1.971.567.723-.351 1.737-1.204 2.01-1.49.382 1.2.205 3.038.465 3.29.21.204 1.37-.171 1.694-1.174.324-1.003-.06-2.93.365-2.893.396.036 2.046-.844 2.552-1.557.506-.713 2.125-1.058 2.744-2.753.273-.749-.367-1.581-.094-3.115.278-1.57.818-3.342.503-3.688-.63-.691-1.62-.516-2.276.292-.685.844-.905 3.097-2.042 2.905z" inkscape:connector-curvature="0" sodipodi:nodetypes="csscsscsscssssssssc"/><path style="display:inline;overflow:visible;fill:#c79968;fill-opacity:1;fill-rule:evenodd;stroke:none;stroke-width:4.16854429px;stroke-linecap:butt;stroke-linejoin:miter;stroke-opacity:1" d="M-115.303 61.298c-3.15-.264-7.871-1.385-8.478-1.027-.607.357-.314.743.495 1.231.809.489 4.596 1.285 5.044 1.685-1.464.88-7.09 1.885-7.126 2.498-.036.613.418.778 1.426.909s4.559-1.033 5.324-.978c-1.062 1.453-4.245 4.16-4.085 4.67.161.511.374.78 1.097.429.723-.351 2.142-1.715 2.414-2.002.382 1.2.27 3.251.53 3.503.211.204.592.26.917-.743.324-1.003.005-3.096.43-3.058.395.035 1.845-.66 2.351-1.373.506-.714 1.766-.77 2.385-2.464.273-.749-.047-1.707.225-3.24.278-1.57.905-2.885.59-3.23-.631-.693-.822-.619-1.478.19-.684.843-.924 3.192-2.06 3z" inkscape:connector-curvature="0" sodipodi:nodetypes="csscsscsscssssssssc"/><path style="display:inline;overflow:visible;fill:#864a25;fill-opacity:1;fill-rule:evenodd;stroke:none;stroke-width:4.48256016px;stroke-linecap:butt;stroke-linejoin:miter;stroke-opacity:1" d="M-101.498 45.889c2.218 2.52 5.165 4.223 6.8 3.7 1.635-.523 2.244-2.405 1.353-3.709-2.718-.294-9.482-1.962-8.153.01z" inkscape:connector-curvature="0" sodipodi:nodetypes="cscc"/><path style="display:inline;overflow:visible;fill:#c79968;fill-opacity:1;fill-rule:evenodd;stroke:none;stroke-width:4.48256016px;stroke-linecap:butt;stroke-linejoin:miter;stroke-opacity:1" d="M-99.986 45.98c1.612 1.78 3.614 2.8 4.802 2.431 1.188-.369 1.533-1.463.885-2.384-.647-.92-6.982-1.531-5.687-.046z" inkscape:connector-curvature="0"/><path style="display:inline;overflow:visible;fill:#4e3a32;fill-opacity:1;fill-rule:evenodd;stroke:none;stroke-width:5.27144384px;stroke-linecap:butt;stroke-linejoin:miter;stroke-opacity:1" d="M-107.403 25.799c-.668-1.288-.236-.826-1.257-1.919-.928.028-2.215-1.416-2.614-2.268-.746-1.01-.092.032-1.26-.295-1.16.373-1.805.964-2.824.836-.673-.423-2.168.473-2.496 1.066-1.122.798-.198 1.258-1.15 1.373-.427.077-.917 1.995-1.933 2.632-.31.356-1.469.389-1.404 1.846-.098.22-.928 2.538-.932 4.447-.248.415.39.823.343 2.63-.058.5-.408 2.413-.181 2.774.486 1.905.728 2.282.972 3.492.799.692-.48 2.099.297 2.317.167.026 1.962.969 2.23 2.184.338 1.262.772 1.31.815 1.688.226-.045 2.16.77 2.289.489 1.084-1.039 1.996.397 2.265.192.351.677 1.297.083 2.637-.293.272-.987.699-1.11 1.766-1.382.122-.196 1.42-.468 1.672-1.86-.076-.478 1.274-2.417 1.222-3.75.229-1.534.452-.012 1.164-1.174.213-.17-.138-3.131.395-3.26-.072-.433 1.575-.892 1.288-1.431-.243-1.277-.927-1.73-.603-2.948-.38-1.56.866-1.65.241-2.97-.791-.893-.754-3.235-1.223-3.301-1.013-1.89-2.39-1.993-1.966-1.643" inkscape:connector-curvature="0" sodipodi:nodetypes="csssssssccccccccccccccccccccc"/><path style="display:inline;overflow:visible;fill:#6a4739;fill-opacity:1;fill-rule:evenodd;stroke:none;stroke-width:5.27144384px;stroke-linecap:butt;stroke-linejoin:miter;stroke-opacity:1" d="M-108.012 26.709c-.603-1.164-.213-.746-1.136-1.734-.838.026-2-1.28-2.361-2.05-.675-.913-.084.03-1.139-.266-1.047.337-1.63.871-2.551.755-.609-.382-1.96.428-2.256.964-1.014.72-.179 1.136-1.039 1.24-.386.07-.829 1.803-1.747 2.378-.28.323-1.327.352-1.269 1.669-.088.198-.838 2.293-.841 4.018-.224.375.352.743.31 2.377-.053.451-.37 2.18-.165 2.506.44 1.721.658 2.062.879 3.155.722.625-.434 1.897.269 2.094.15.024 1.773.875 2.014 1.973.306 1.14.698 1.185.737 1.526.204-.041 1.952.696 2.068.441.98-.938 1.804.359 2.047.174.317.612 1.172.075 2.382-.265.246-.891.632-1.003 1.596-1.248.11-.178 1.283-.424 1.511-1.682-.068-.431 1.151-2.183 1.104-3.387.207-1.387.409-.011 1.052-1.061.193-.153-.125-2.83.357-2.946-.065-.392 1.423-.806 1.164-1.294-.22-1.153-.838-1.562-.545-2.663-.343-1.41.782-1.491.218-2.683-.715-.807-.682-2.924-1.106-2.984-.915-1.707-2.159-1.8-1.775-1.484" inkscape:connector-curvature="0" sodipodi:nodetypes="csssssssccccccccccccccccccccc"/><path style="display:inline;overflow:visible;fill:#6c4e30;fill-opacity:.97846327;fill-rule:evenodd;stroke:none;stroke-width:4.48256016px;stroke-linecap:butt;stroke-linejoin:miter;stroke-opacity:1" d="M-88.621 20.319c5.048 3.449 11.075 13.006 5.924 21.287-5.15 8.282-19.688 4.473-26.105-1.477-6.417-5.95-4.978-15.3-2.192-18.364 2.786-3.064 10.567-8.054 22.373-1.446z" inkscape:connector-curvature="0" sodipodi:nodetypes="csssc"/><path style="display:inline;overflow:visible;fill:#c79968;fill-opacity:1;fill-rule:evenodd;stroke:none;stroke-width:4.48256016px;stroke-linecap:butt;stroke-linejoin:miter;stroke-opacity:1" d="M-89.113 20.861C-84.442 24.053-78.464 33.337-83.23 41c-4.766 7.663-18.696 4.301-24.633-1.205-5.938-5.506-4.644-14.458-2.066-17.293 2.578-2.834 9.891-7.755 20.816-1.64z" inkscape:connector-curvature="0" sodipodi:nodetypes="csssc"/><path style="display:inline;overflow:visible;fill:#4e3a32;fill-opacity:1;fill-rule:evenodd;stroke:none;stroke-width:4.48256016px;stroke-linecap:butt;stroke-linejoin:miter;stroke-opacity:1" d="M-91.458 21.121c-4.969-.794-10.993-2.084-13.426-.356-2.434 1.729-5.156 6.024-4.003 8.335 1.153 2.31 2.214 2.178.623 3.941-1.59 1.763-3.021 2.803-4.188 1.15-1.168-1.653-2.913-10.293-.991-12.13 1.922-1.838 7.2-5.207 10.654-5.024 3.454.183 2.756-.942 3.991-.879 1.235.063 9.076 1.477 10.42 4.115 1.343 2.638-1.57 1.067-3.08.848z" inkscape:connector-curvature="0" sodipodi:nodetypes="cssssssssc"/><path style="display:inline;overflow:visible;fill:#6a4739;fill-opacity:1;fill-rule:evenodd;stroke:none;stroke-width:4.48256016px;stroke-linecap:butt;stroke-linejoin:miter;stroke-opacity:1" d="M-91.623 21.288c-4.753-.94-10.482-1.895-12.999-.154-2.33 1.613-5.283 5.24-4.188 7.433 1.095 2.194 2.714 2.884 1.203 4.557-1.51 1.674-2.732 2.145-3.84.576-1.108-1.57-3.155-9.583-1.33-11.328 1.825-1.744 6.787-5.052 10.066-4.879 3.28.173 2.97-.656 4.143-.596 1.172.06 8.38 1.018 9.655 3.522 1.276 2.505-1.289 1.15-2.71.869z" inkscape:connector-curvature="0" sodipodi:nodetypes="ssssssssss"/><path style="display:inline;overflow:visible;fill:#6c4e30;fill-opacity:.97846327;fill-rule:evenodd;stroke:none;stroke-width:4.48256016px;stroke-linecap:butt;stroke-linejoin:miter;stroke-opacity:1" d="M-106.681 34.54c-2.268-2.431-5.824-2.42-6.62-.111-.798 2.308 1.378 5.672 3.053 5.924 1.77.265 4.25-.339 4.365-1.246" inkscape:connector-curvature="0" sodipodi:nodetypes="cssc"/><path style="display:inline;overflow:visible;fill:#c79968;fill-opacity:1;fill-rule:evenodd;stroke:none;stroke-width:4.48256016px;stroke-linecap:butt;stroke-linejoin:miter;stroke-opacity:1" d="M-106.066 34.482c-2.79-.936-5.253-1.831-6.05.477-.797 2.309.758 4.199 2.432 4.45 1.77.266 3.998.22 4.113-.687" inkscape:connector-curvature="0" sodipodi:nodetypes="cssc"/><path style="display:inline;overflow:visible;fill:#6c4e30;fill-opacity:.97846327;fill-rule:evenodd;stroke:none;stroke-width:4.48256016px;stroke-linecap:butt;stroke-linejoin:miter;stroke-opacity:1" d="M-86.564 32.798c.413 1.114-.067 1.802-.86 2.159-.196.088.867.39 1.378.068.889-.562.25-1.522-.518-2.227z" inkscape:connector-curvature="0" sodipodi:nodetypes="csscc"/><path style="display:inline;overflow:visible;fill:#8e6235;fill-opacity:1;fill-rule:evenodd;stroke:none;stroke-width:4.48256016px;stroke-linecap:butt;stroke-linejoin:miter;stroke-opacity:1" d="M-85.62 38.472c-3.215 2.387-9.674-.295-8.932-.007 1.287 1.805 4.275 2.119 6.063 1.653 1.788-.466 2.06-.467 2.87-1.646z" inkscape:connector-curvature="0" sodipodi:nodetypes="ccsc"/><path style="display:inline;overflow:visible;fill:#6c4e30;fill-opacity:.97846327;fill-rule:evenodd;stroke:none;stroke-width:4.48256016px;stroke-linecap:butt;stroke-linejoin:miter;stroke-opacity:1" d="M-111.556 36.43c.947-2.036 4.048-.617 4.331-.107.283.51.177 2.352-1.06 1.953-.926-.3-.305-1.34-.114-1.478.19-.138-1.67-1.591-3.157-.368z" inkscape:connector-curvature="0" sodipodi:nodetypes="csssc"/><path style="display:inline;overflow:visible;fill:#6c4e30;fill-opacity:.97846327;fill-rule:evenodd;stroke:none;stroke-width:4.48256016px;stroke-linecap:butt;stroke-linejoin:miter;stroke-opacity:1" d="M-110.02 36.527c-.793 1.302-.204 1.899.63 1.847.996-.063-.808-.5-.63-1.847z" inkscape:connector-curvature="0" sodipodi:nodetypes="csc"/><path style="display:inline;overflow:visible;fill:#6c4e30;fill-opacity:.97846327;fill-rule:evenodd;stroke:none;stroke-width:4.48256016px;stroke-linecap:butt;stroke-linejoin:miter;stroke-opacity:1" d="M-95.661 25.865c-2.864.49-1.431 6.537 1.643 6.364 3.578-.2 1.99-6.984-1.643-6.364z" inkscape:connector-curvature="0" sodipodi:nodetypes="sss"/><path style="display:inline;overflow:visible;fill:#fff;fill-opacity:1;fill-rule:evenodd;stroke:none;stroke-width:4.48256016px;stroke-linecap:butt;stroke-linejoin:miter;stroke-opacity:1" d="M-95.55 26.82c-2.819.362-1.832 5.616 1.73 5.437 3.563-.178 1.91-5.904-1.73-5.437z" inkscape:connector-curvature="0" sodipodi:nodetypes="sss"/><path style="display:inline;overflow:visible;fill:#6c4e30;fill-opacity:.97846327;fill-rule:evenodd;stroke:none;stroke-width:4.48256016px;stroke-linecap:butt;stroke-linejoin:miter;stroke-opacity:1" d="M-86.47 26.153c-2.46.532-.982 6.11 1.552 5.973 3.033-.164 1.5-6.634-1.553-5.973z" inkscape:connector-curvature="0" sodipodi:nodetypes="sss"/><path style="display:inline;overflow:visible;fill:#fff;fill-opacity:1;fill-rule:evenodd;stroke:none;stroke-width:4.48256016px;stroke-linecap:butt;stroke-linejoin:miter;stroke-opacity:1" d="M-86.315 26.96c-2.414.41-1.428 5.554 1.583 5.32 3.01-.233 1.479-5.84-1.583-5.32z" inkscape:connector-curvature="0" sodipodi:nodetypes="sss"/><path style="display:inline;overflow:visible;fill:#6c4e30;fill-opacity:.97846327;fill-rule:evenodd;stroke:none;stroke-width:4.48256016px;stroke-linecap:butt;stroke-linejoin:miter;stroke-opacity:1" d="M-93.115 24.442c-2.715-.51-6.413.452-7.002 2.114.004-1.218 2.624-3.722 7.002-2.114z" inkscape:connector-curvature="0" sodipodi:nodetypes="ccc"/><path style="display:inline;overflow:visible;fill:#6c4e30;fill-opacity:.97846327;fill-rule:evenodd;stroke:none;stroke-width:4.48256016px;stroke-linecap:butt;stroke-linejoin:miter;stroke-opacity:1" d="M-88.379 24.396c2.412.004 4.636 1.158 4.83 2.899.222-1.196-.795-3.664-4.83-2.899z" inkscape:connector-curvature="0" sodipodi:nodetypes="ccc"/><path style="color:#000;display:inline;overflow:visible;visibility:visible;opacity:1;fill:url(#c);fill-opacity:1;fill-rule:nonzero;stroke:none;stroke-width:.98713714;stroke-linecap:round;stroke-linejoin:round;stroke-miterlimit:4;stroke-dasharray:none;stroke-dashoffset:0;stroke-opacity:1;marker:none;enable-background:accumulate" d="M-95.55 29.866c-.103 1.066.65 2.155 1.752 2.38 2.272-.03 2.522-2.704 1.008-4.107-1.199-1.111-2.642.524-2.76 1.727z" inkscape:connector-curvature="0" sodipodi:nodetypes="scss"/><ellipse transform="rotate(5.724)" style="color:#000;display:inline;overflow:visible;visibility:visible;opacity:1;fill:#3a3a3a;fill-opacity:1;fill-rule:nonzero;stroke:none;stroke-width:1;stroke-linecap:round;stroke-linejoin:round;stroke-miterlimit:4;stroke-dasharray:none;stroke-dashoffset:0;stroke-opacity:1;marker:none;enable-background:accumulate" cx="-89.353798" cy="39.344883" rx="0.84886146" ry="0.90317881"/><path style="color:#000;display:inline;overflow:visible;visibility:visible;opacity:1;fill:url(#d);fill-opacity:1;fill-rule:nonzero;stroke:none;stroke-width:.98186457;stroke-linecap:round;stroke-linejoin:round;stroke-miterlimit:4;stroke-dasharray:none;stroke-dashoffset:0;stroke-opacity:1;marker:none;enable-background:accumulate" d="M-86.636 29.844c-.108 1.074.812 2.24 1.995 2.295 2.11.097 1.841-3.151.572-3.951-1.269-.8-2.448.48-2.567 1.656z" inkscape:connector-curvature="0" sodipodi:nodetypes="ssss"/><ellipse transform="rotate(5.724)" style="color:#000;display:inline;overflow:visible;visibility:visible;opacity:1;fill:#3a3a3a;fill-opacity:1;fill-rule:nonzero;stroke:none;stroke-width:1;stroke-linecap:round;stroke-linejoin:round;stroke-miterlimit:4;stroke-dasharray:none;stroke-dashoffset:0;stroke-opacity:1;marker:none;enable-background:accumulate" ry="0.90782917" rx="0.8273322" cy="38.500095" cx="-80.705589"/><ellipse transform="rotate(5.724)" style="color:#000;display:inline;overflow:visible;visibility:visible;opacity:1;fill:#fdfcfa;fill-opacity:1;fill-rule:nonzero;stroke:none;stroke-width:1;stroke-linecap:round;stroke-linejoin:round;stroke-miterlimit:4;stroke-dasharray:none;stroke-dashoffset:0;stroke-opacity:1;marker:none;enable-background:accumulate" cx="-90.061966" cy="38.871738" rx="0.4353216" ry="0.41891629"/><ellipse transform="rotate(5.724)" style="color:#000;display:inline;overflow:visible;visibility:visible;opacity:1;fill:#fdfcfa;fill-opacity:1;fill-rule:nonzero;stroke:none;stroke-width:1;stroke-linecap:round;stroke-linejoin:round;stroke-miterlimit:4;stroke-dasharray:none;stroke-dashoffset:0;stroke-opacity:1;marker:none;enable-background:accumulate" cx="-90.033234" cy="40.041721" rx="0.27901918" ry="0.25034222"/><ellipse transform="rotate(5.724)" style="color:#000;display:inline;overflow:visible;visibility:visible;opacity:1;fill:#fdfcfa;fill-opacity:1;fill-rule:nonzero;stroke:none;stroke-width:1;stroke-linecap:round;stroke-linejoin:round;stroke-miterlimit:4;stroke-dasharray:none;stroke-dashoffset:0;stroke-opacity:1;marker:none;enable-background:accumulate" cx="-81.560326" cy="38.299046" rx="0.4353216" ry="0.41891629"/><ellipse transform="rotate(5.724)" style="color:#000;display:inline;overflow:visible;visibility:visible;opacity:1;fill:#fdfcfa;fill-opacity:1;fill-rule:nonzero;stroke:none;stroke-width:1;stroke-linecap:round;stroke-linejoin:round;stroke-miterlimit:4;stroke-dasharray:none;stroke-dashoffset:0;stroke-opacity:1;marker:none;enable-background:accumulate" cx="-81.519417" cy="39.482151" rx="0.27901918" ry="0.25034222"/></g><g transform="matrix(.71083 0 0 .71083 101.756 19.926)"><path style="display:inline;overflow:visible;fill:#76533a;fill-opacity:.98277061;fill-rule:evenodd;stroke:none;stroke-width:5.53261995px;stroke-linecap:butt;stroke-linejoin:miter;stroke-opacity:1" d="M-62.035 61.42c-2.183 1.622-6.181 6.064-4.902 8.09.446.705 4.008-2.508 5.085-2.192 1.077.315 1.333.985.085 2.756-.602.855.122 2.328 1.114 1.798.991-.53 3.045-3.238 3.703-5.059.657-1.82 1.9-5.27.937-5.69-1.417-.616-6.022.296-6.022.296z" inkscape:connector-curvature="0" sodipodi:nodetypes="cssssssc"/><path style="display:inline;overflow:visible;fill:#dbb191;fill-opacity:1;fill-rule:evenodd;stroke:none;stroke-width:5.53261995px;stroke-linecap:butt;stroke-linejoin:miter;stroke-opacity:1" d="M-66.447 68.308c.213.805 4.012-1.979 5.089-1.663 1.077.315 1.72 1.251.472 3.023-.602.855-.507 1.41.486.88.991-.53 1.93-2.804 2.587-4.625.657-1.82 2.764-4.38 1.8-4.8-1.417-.616-5.996 1.067-5.996 1.067-1.092.812-4.848 4.569-4.438 6.118z" inkscape:connector-curvature="0" sodipodi:nodetypes="sssssscs"/><path style="display:inline;overflow:visible;fill:#2d6374;fill-opacity:1;fill-rule:evenodd;stroke:none;stroke-width:4.48256016px;stroke-linecap:butt;stroke-linejoin:miter;stroke-opacity:1" d="M-41.89 50.104c-3.626 5.303-7.314 12.161-9.686 15.058-1.873 2.287-6.467 1.433-7.925-1.782-1.856-4.091 2.835-7.31 5.888-9.847 2.613-2.171 7.089-8.232 9.552-8.503 2.619-.29 3.647 1.43 2.171 5.074z" inkscape:connector-curvature="0" sodipodi:nodetypes="cssssc"/><path style="display:inline;overflow:visible;fill:#59b1ce;fill-opacity:1;fill-rule:evenodd;stroke:none;stroke-width:4.48256016px;stroke-linecap:butt;stroke-linejoin:miter;stroke-opacity:1" d="M-41.586 48.855c-3.626 5.303-8.252 12.307-10.624 15.204-1.873 2.287-5.018 1.988-6.476-1.227-1.855-4.091 2.605-5.855 5.657-8.392 2.613-2.17 7.564-8.724 10.027-8.996 2.619-.289 2.892-.234 1.416 3.41z" inkscape:connector-curvature="0" sodipodi:nodetypes="cssssc"/><path inkscape:transform-center-y="7.1524113" inkscape:transform-center-x="1.958253" style="display:inline;overflow:visible;fill:#254957;fill-opacity:1;fill-rule:evenodd;stroke:none;stroke-width:4.48256016px;stroke-linecap:butt;stroke-linejoin:miter;stroke-opacity:1" d="M-52.034 84.393c-3.147 1.69-5.035 4.62-5.2 5.022-.165.403-.52 1.824.006 2.237.527.413 4.55 2.101 9.054 1.94 4.505-.162 8.257-1.743 8.611-2.519.355-.775 1.067-4.137.138-4.669-.93-.531-10.614-2.83-12.609-2.011z" inkscape:connector-curvature="0"/><path inkscape:transform-center-y="6.6430871" inkscape:transform-center-x="1.8743967" style="display:inline;overflow:visible;fill:#30718c;fill-opacity:1;fill-rule:evenodd;stroke:none;stroke-width:4.48256016px;stroke-linecap:butt;stroke-linejoin:miter;stroke-opacity:1" d="M-51.48 85.052c-2.678 1.332-4.274 3.661-4.413 3.983-.138.32-.322.903.13 1.236.453.333 3.901 1.707 7.75 1.605 3.848-.102 7.044-1.343 7.343-1.96.298-.618.775-2.75-.023-3.18-.798-.43-9.087-2.326-10.787-1.684z" inkscape:connector-curvature="0" sodipodi:nodetypes="ccssssc"/><path style="display:inline;overflow:visible;fill:#274a6d;fill-opacity:1;fill-rule:evenodd;stroke:none;stroke-width:4.48256016px;stroke-linecap:butt;stroke-linejoin:miter;stroke-opacity:1" d="M-48.616 67.946c-1.688 4.583-3.664 9.64-3.685 10.157-.02.516 1.59 4.514 1.406 4.836-.185.322-1.913-.185-2.015.776-.04.386 2.761 2.789 5.576 3.504 2.814.716 8.286 1.93 9.144.76.858-1.17-1.129-6.795-1.214-7.538-.085-.744-.623-1.15-.912-1.408-.29-.258 2.142-6.386 2.537-7.401.395-1.015-9.431-3.928-10.837-3.686z" inkscape:connector-curvature="0" sodipodi:nodetypes="cssssssssc" inkscape:transform-center-x="-0.93862069" inkscape:transform-center-y="-3.5589168"/><path style="display:inline;overflow:visible;fill:#3576b9;fill-opacity:1;fill-rule:evenodd;stroke:none;stroke-width:4.48256016px;stroke-linecap:butt;stroke-linejoin:miter;stroke-opacity:1" d="M-47.927 69.35c-1.455 3.951-3.235 8.42-3.253 8.864-.018.445 1.943 4.531 1.626 5.039-.17.272-1.473.424-1.365.74.108.316 1.643 1.42 4.07 2.036 2.426.617 7.01 1.745 7.75.736.74-1.009-1.415-5.602-1.488-6.243-.073-.641-.537-.992-.787-1.214-.249-.222 1.495-6.289 2.472-7.231.676-.653-7.813-2.935-9.025-2.727z" inkscape:connector-curvature="0" sodipodi:nodetypes="cssssssssc" inkscape:transform-center-x="-1.2557077" inkscape:transform-center-y="-3.5057264"/><path style="display:inline;overflow:visible;fill:#254957;fill-opacity:1;fill-rule:evenodd;stroke:none;stroke-width:4.48256016px;stroke-linecap:butt;stroke-linejoin:miter;stroke-opacity:1" d="M-42.127 86.857c-2.945 2.021-4.506 5.137-4.626 5.556-.12.418-.32 1.869.248 2.222.568.354 4.75 1.597 9.211.95 4.46-.649 8.02-2.627 8.288-3.436.269-.81.613-4.229-.369-4.657-.981-.427-10.857-1.664-12.752-.635z" inkscape:connector-curvature="0"/><path style="display:inline;overflow:visible;fill:#30718c;fill-opacity:1;fill-rule:evenodd;stroke:none;stroke-width:4.48256016px;stroke-linecap:butt;stroke-linejoin:miter;stroke-opacity:1" d="M-41.504 87.424c-2.52 1.468-3.854 3.73-3.957 4.034-.103.304-.274 1.358.212 1.615.486.257 4.063 1.16 7.878.689 3.815-.47 6.858-1.907 7.087-2.495.23-.588.525-3.071-.315-3.382-.84-.31-9.285-1.209-10.905-.461z" inkscape:connector-curvature="0"/><path style="display:inline;overflow:visible;fill:#274a6d;fill-opacity:1;fill-rule:evenodd;stroke:none;stroke-width:4.48256016px;stroke-linecap:butt;stroke-linejoin:miter;stroke-opacity:1" d="M-43.514 71.246c-.837 4.812-1.468 9.273-1.395 9.785.072.511 2.084 4.545 1.96 4.895-.124.35-2.033.787-1.843 1.125.19.338 3.217 2.248 6.114 2.446 2.897.199 9.349-.34 9.983-1.646.634-1.305-2.89-6.12-3.107-6.836-.217-.716-.82-1.02-1.15-1.221-.331-.202 2.193-7.011 2.4-8.08.206-1.07-11.622-.957-12.962-.468z" inkscape:connector-curvature="0" sodipodi:nodetypes="cssssssssc"/><path style="display:inline;overflow:visible;fill:#3576b9;fill-opacity:1;fill-rule:evenodd;stroke:none;stroke-width:4.48256016px;stroke-linecap:butt;stroke-linejoin:miter;stroke-opacity:1" d="M-42.584 72.504c-.722 4.148-1.265 7.994-1.203 8.435.062.441 2.434 4.499 2.213 5.055-.118.298-1.373.682-1.21.973.164.292 1.872 1.101 4.37 1.272 2.497.171 8.06-.294 8.606-1.42.547-1.125-2.956-4.894-3.144-5.512-.187-.617-.706-.88-.992-1.053-.285-.174 1.99-7.351 2.781-8.454.548-.763-10.266.281-11.421.704z" inkscape:connector-curvature="0" sodipodi:nodetypes="cssssssssc"/><path style="display:inline;overflow:visible;fill:#2d6374;fill-opacity:1;fill-rule:evenodd;stroke:none;stroke-width:4.48256016px;stroke-linecap:butt;stroke-linejoin:miter;stroke-opacity:1" d="M-45.475 46.977c-2.409 3.429-7.134 18.546-7.639 22.603.78 1.465.817.735 6.788 4.641 2.108 1.379 17.958.153 16.924-2.88-.64-1.873.646-.73-.947-6.333-1.594-5.603-2.41-20.188-3.82-20.92-2.095-1.088-9.137-.426-11.306 2.889z" inkscape:connector-curvature="0" sodipodi:nodetypes="ccssssc"/><path style="display:inline;overflow:visible;fill:#59b1ce;fill-opacity:1;fill-rule:evenodd;stroke:none;stroke-width:4.48256016px;stroke-linecap:butt;stroke-linejoin:miter;stroke-opacity:1" d="M-45.35 48.537c-2.183 3.108-6.065 16.783-6.523 20.46.707 1.327.775.242 6.186 3.781 1.91 1.25 15.92.956 14.982-1.792-.58-1.697 1.214.032-.23-5.046-1.443-5.078-2.892-19.358-4.17-20.021-1.898-.986-8.28-.386-10.245 2.618z" inkscape:connector-curvature="0" sodipodi:nodetypes="ccssssc"/><path style="display:inline;overflow:visible;fill:#2d6374;fill-opacity:1;fill-rule:evenodd;stroke:none;stroke-width:4.48256016px;stroke-linecap:butt;stroke-linejoin:miter;stroke-opacity:1" d="M-35.401 49.367c2.838 5.764 5.516 13.076 7.452 16.28 1.53 2.53 6.2 2.336 8.098-.64 2.418-3.787-1.77-7.64-4.431-10.583-2.279-2.52-5.85-9.154-8.25-9.772-2.551-.657-3.813.898-2.87 4.715z" inkscape:connector-curvature="0" sodipodi:nodetypes="cssssc"/><path style="display:inline;overflow:visible;fill:#59b1ce;fill-opacity:1;fill-rule:evenodd;stroke:none;stroke-width:4.48256016px;stroke-linecap:butt;stroke-linejoin:miter;stroke-opacity:1" d="M-35.8 47.811c2.837 5.764 6.698 13.63 8.635 16.833 1.53 2.53-1.116-1.559 1.972-3.269 4.381-2.425 6.54.4.64-5.857-2.33-2.472-5.927-9.504-8.327-10.123-2.55-.657-3.865-1.4-2.92 2.416z" inkscape:connector-curvature="0" sodipodi:nodetypes="cssssc"/><path style="display:inline;overflow:visible;fill:#76533a;fill-opacity:.98277061;fill-rule:evenodd;stroke:none;stroke-width:4.48256016px;stroke-linecap:butt;stroke-linejoin:miter;stroke-opacity:1" d="M-21.657 60.393c3.269-.293 8.48-1.533 9.11-1.134.629.398.606 1.615-.233 2.16-.839.544-4.136 1.067-4.6 1.513 1.517.98 6.43 1.956 6.467 2.64.037.683-.398 1.692-1.443 1.838-1.046.146-3.875-.958-4.668-.896 1.102 1.619 3.72 4.03 3.554 4.6-.167.568-1.295 1.023-2.045.631-.75-.39-1.802-1.342-2.085-1.661-.396 1.337-.212 3.387-.482 3.667-.219.228-1.421-.19-1.758-1.308-.336-1.118.062-3.267-.379-3.224-.41.04-2.121-.941-2.647-1.736-.524-.795-2.204-1.18-2.846-3.069-.284-.834.38-1.762.098-3.472-.29-1.75-.85-3.725-.523-4.11.654-.771 1.68-.576 2.361.325.71.94.94 3.452 2.118 3.238z" inkscape:connector-curvature="0" sodipodi:nodetypes="csscsscsscssssssssc"/><path style="display:inline;overflow:visible;fill:#dbb191;fill-opacity:1;fill-rule:evenodd;stroke:none;stroke-width:4.48256016px;stroke-linecap:butt;stroke-linejoin:miter;stroke-opacity:1" d="M-21.887 60.787c3.269-.294 8.166-1.543 8.796-1.145.63.399.325.828-.514 1.373-.839.544-4.767 1.432-5.233 1.878 1.519.98 7.356 2.1 7.393 2.784.037.684-.434.867-1.48 1.013-1.045.146-4.729-1.151-5.522-1.09 1.102 1.62 4.403 4.638 4.237 5.207-.167.568-.388.868-1.138.477-.75-.392-2.222-1.912-2.504-2.232-.396 1.337-.28 3.624-.55 3.905-.22.227-.614.29-.95-.828-.337-1.118-.006-3.452-.447-3.41-.41.04-1.914-.735-2.44-1.53-.524-.795-1.831-.857-2.473-2.746-.284-.834.049-1.902-.234-3.612-.288-1.75-.938-3.215-.611-3.6.654-.771.852-.69 1.532.211.71.94.96 3.56 2.138 3.345z" inkscape:connector-curvature="0" sodipodi:nodetypes="csscsscsscssssssssc"/><path style="display:inline;overflow:visible;fill:#2d6374;fill-opacity:1;fill-rule:evenodd;stroke:none;stroke-width:4.48256016px;stroke-linecap:butt;stroke-linejoin:miter;stroke-opacity:1" d="M-36.4 45.889c-2.219 2.52-5.166 4.223-6.801 3.7-1.635-.523-2.244-2.405-1.353-3.709 2.718-.294 9.483-1.962 8.153.01z" inkscape:connector-curvature="0" sodipodi:nodetypes="cscc"/><path style="display:inline;overflow:visible;fill:#dbb191;fill-opacity:1;fill-rule:evenodd;stroke:none;stroke-width:4.48256016px;stroke-linecap:butt;stroke-linejoin:miter;stroke-opacity:1" d="M-37.913 45.98c-1.612 1.78-3.613 2.8-4.802 2.431-1.188-.369-1.533-1.463-.885-2.384.648-.92 6.982-1.531 5.687-.046z" inkscape:connector-curvature="0"/><path style="display:inline;overflow:visible;fill:#76533a;fill-opacity:.98277061;fill-rule:evenodd;stroke:none;stroke-width:4.48256016px;stroke-linecap:butt;stroke-linejoin:miter;stroke-opacity:1" d="M-48.863 20.388c-5.049 3.449-11.1 13.425-5.949 21.707 5.15 8.281 19.005 3.984 25.422-1.966 6.417-5.95 5.271-15.3 2.485-18.364s-10.152-7.985-21.958-1.377z" inkscape:connector-curvature="0" sodipodi:nodetypes="csssc"/><path style="display:inline;overflow:visible;fill:#dbb191;fill-opacity:1;fill-rule:evenodd;stroke:none;stroke-width:4.48256016px;stroke-linecap:butt;stroke-linejoin:miter;stroke-opacity:1" d="M-48.785 20.861c-4.672 3.192-10.259 13.114-5.493 20.777s18.305 3.663 24.242-1.843c5.938-5.506 4.644-14.458 2.066-17.293-2.578-2.834-9.891-7.755-20.815-1.64z" inkscape:connector-curvature="0" sodipodi:nodetypes="csssc"/><path style="display:inline;overflow:visible;fill:#8d5336;fill-opacity:1;fill-rule:evenodd;stroke:none;stroke-width:4.48256016px;stroke-linecap:butt;stroke-linejoin:miter;stroke-opacity:1" d="M-46.441 21.121c4.97-.794 10.993-2.084 13.427-.356 2.433 1.729 6.62 7.684 5.467 9.995-1.153 2.31-4.468 8.347-3.456 10.779.914 2.192 3.608.263 4.775-1.39 1.167-1.653 3.695-16.251 1.772-18.089-1.922-1.837-4.374-5.598-7.821-5.316-4.626.378-10.364-.84-10.493-2.573-1.235.063-7.946 3.66-6.75 6.102 1.301 2.66 1.569 1.067 3.079.848z" inkscape:connector-curvature="0" sodipodi:nodetypes="csssssscsc"/><path style="display:inline;overflow:visible;fill:#c06e46;fill-opacity:1;fill-rule:evenodd;stroke:none;stroke-width:4.48256016px;stroke-linecap:butt;stroke-linejoin:miter;stroke-opacity:1" d="M-33.277 21.134c2.33 1.613 5.283 5.24 4.188 7.433-1.095 2.194-.568 2.932-1.008 5.143-.71 3.572-.637 6.306.093 7.682.73 1.376 2.607-1.145 3.161-1.93 1.108-1.569 3.546-15.345 1.721-17.09-1.825-1.744-3.659-5.463-6.912-5.017-3.405.466-10.765-.16-10.934-2.506-1.156.07-6.092 2.391-5.92 5.424.158 2.796 1.68 1.295 4.767.686 3.087-.61 8.328-1.566 10.844.175z" inkscape:connector-curvature="0" sodipodi:nodetypes="ssssssscscs"/><path style="display:inline;overflow:visible;fill:#6c4e30;fill-opacity:.97846327;fill-rule:evenodd;stroke:none;stroke-width:4.48256016px;stroke-linecap:butt;stroke-linejoin:miter;stroke-opacity:1" d="M-31.218 34.54c2.268-2.431 5.922-3.104 6.719-.795.796 2.308-1.477 6.356-3.152 6.608-1.77.265-4.25-.339-4.364-1.246" inkscape:connector-curvature="0" sodipodi:nodetypes="cssc"/><path style="display:inline;overflow:visible;fill:#dbb191;fill-opacity:1;fill-rule:evenodd;stroke:none;stroke-width:4.48256016px;stroke-linecap:butt;stroke-linejoin:miter;stroke-opacity:1" d="M-31.833 34.482c2.79-.936 5.644-2.222 6.441.087.797 2.308-1.149 4.589-2.823 4.84-1.77.266-3.998.22-4.113-.687" inkscape:connector-curvature="0" sodipodi:nodetypes="cssc"/><path style="display:inline;overflow:visible;fill:#6c4e30;fill-opacity:.97846327;fill-rule:evenodd;stroke:none;stroke-width:7.01484632px;stroke-linecap:butt;stroke-linejoin:miter;stroke-opacity:1" d="M-51.9 32.798c-1.422 2.533-.42 3.552 1.203 3.71.345.033-1.215.1-2.052-.383-1.456-.84-.41-2.274.85-3.327z" inkscape:connector-curvature="0" sodipodi:nodetypes="csscc"/><path style="display:inline;overflow:visible;fill:#8e6235;fill-opacity:1;fill-rule:evenodd;stroke:none;stroke-width:5.33853054px;stroke-linecap:butt;stroke-linejoin:miter;stroke-opacity:1" d="M-52.279 38.484c3.215 3.385 9.674-.418 8.932-.01-1.287 2.56-3.48 3.554-5.282 2.93-1.281-.443-2.07-.918-3.65-2.92z" inkscape:connector-curvature="0" sodipodi:nodetypes="ccscc"/><path style="display:inline;overflow:visible;fill:#76533a;fill-opacity:.98277061;fill-rule:evenodd;stroke:none;stroke-width:4.48256016px;stroke-linecap:butt;stroke-linejoin:miter;stroke-opacity:1" d="M-26.343 36.43c-.947-2.036-3.755-.617-4.038-.107-.283.51-.47 2.352.766 1.953.927-.3.306-1.34.115-1.478-.19-.138 1.67-1.591 3.157-.368z" inkscape:connector-curvature="0" sodipodi:nodetypes="cssscc"/><path style="display:inline;overflow:visible;fill:#76533a;fill-opacity:.98277061;fill-rule:evenodd;stroke:none;stroke-width:4.48256016px;stroke-linecap:butt;stroke-linejoin:miter;stroke-opacity:1" d="M-27.39 36.624c.793 1.303-.285 1.802-1.12 1.75-.995-.063 1.298-.403 1.12-1.75z" inkscape:connector-curvature="0" sodipodi:nodetypes="csc"/><path style="display:inline;overflow:visible;fill:#6c4e30;fill-opacity:.97846327;fill-rule:evenodd;stroke:none;stroke-width:4.48256016px;stroke-linecap:butt;stroke-linejoin:miter;stroke-opacity:1" d="M-42.238 25.865c2.864.49 1.431 6.537-1.643 6.364-3.578-.2-1.99-6.984 1.643-6.364z" inkscape:connector-curvature="0" sodipodi:nodetypes="sss"/><path style="display:inline;overflow:visible;fill:#fff;fill-opacity:1;fill-rule:evenodd;stroke:none;stroke-width:4.48256016px;stroke-linecap:butt;stroke-linejoin:miter;stroke-opacity:1" d="M-42.349 26.82c2.819.362 1.832 5.616-1.73 5.437-3.563-.178-1.91-5.904 1.73-5.437z" inkscape:connector-curvature="0" sodipodi:nodetypes="sss"/><path style="display:inline;overflow:visible;fill:#6c4e30;fill-opacity:.97846327;fill-rule:evenodd;stroke:none;stroke-width:4.48256016px;stroke-linecap:butt;stroke-linejoin:miter;stroke-opacity:1" d="M-51.428 26.153c2.46.532.98 6.11-1.553 5.973-3.033-.164-1.5-6.634 1.553-5.973z" inkscape:connector-curvature="0" sodipodi:nodetypes="sss"/><path style="display:inline;overflow:visible;fill:#fff;fill-opacity:1;fill-rule:evenodd;stroke:none;stroke-width:4.48256016px;stroke-linecap:butt;stroke-linejoin:miter;stroke-opacity:1" d="M-51.583 26.96c2.413.41 1.427 5.554-1.584 5.32-3.01-.233-1.479-5.84 1.584-5.32z" inkscape:connector-curvature="0" sodipodi:nodetypes="sss"/><path style="display:inline;overflow:visible;fill:#8d5336;fill-opacity:1;fill-rule:evenodd;stroke:none;stroke-width:4.48256016px;stroke-linecap:butt;stroke-linejoin:miter;stroke-opacity:1" d="M-44.784 24.442c2.715-.51 6.414.452 7.003 2.114.172-1.42-1.631-4.859-7.003-2.114z" inkscape:connector-curvature="0" sodipodi:nodetypes="ccc"/><path style="display:inline;overflow:visible;fill:#8d5336;fill-opacity:1;fill-rule:evenodd;stroke:none;stroke-width:4.48256016px;stroke-linecap:butt;stroke-linejoin:miter;stroke-opacity:1" d="M-49.52 24.396c-2.412.004-4.636 1.158-4.83 2.899-.014-1.463 1.77-4.918 4.83-2.899z" inkscape:connector-curvature="0" sodipodi:nodetypes="ccc"/><path style="color:#000;display:inline;overflow:visible;visibility:visible;opacity:1;fill:url(#e);fill-opacity:1;fill-rule:nonzero;stroke:none;stroke-width:.98713714;stroke-linecap:round;stroke-linejoin:round;stroke-miterlimit:4;stroke-dasharray:none;stroke-dashoffset:0;stroke-opacity:1;marker:none;enable-background:accumulate" d="M-42.35 29.866c.104 1.066-.65 2.155-1.75 2.38-2.272-.03-2.523-2.704-1.009-4.107 1.199-1.111 2.642.524 2.76 1.727z" inkscape:connector-curvature="0" sodipodi:nodetypes="scss"/><ellipse transform="scale(-1 1) rotate(5.724)" style="color:#000;display:inline;overflow:visible;visibility:visible;opacity:1;fill:#3a3a3a;fill-opacity:1;fill-rule:nonzero;stroke:none;stroke-width:1;stroke-linecap:round;stroke-linejoin:round;stroke-miterlimit:4;stroke-dasharray:none;stroke-dashoffset:0;stroke-opacity:1;marker:none;enable-background:accumulate" cx="47.857407" cy="25.590271" rx="0.84886146" ry="0.90317881"/><path style="color:#000;display:inline;overflow:visible;visibility:visible;opacity:1;fill:url(#f);fill-opacity:1;fill-rule:nonzero;stroke:none;stroke-width:.98186457;stroke-linecap:round;stroke-linejoin:round;stroke-miterlimit:4;stroke-dasharray:none;stroke-dashoffset:0;stroke-opacity:1;marker:none;enable-background:accumulate" d="M-51.263 29.844c.108 1.074-.812 2.24-1.995 2.295-2.11.097-1.841-3.151-.572-3.951 1.269-.8 2.448.48 2.567 1.656z" inkscape:connector-curvature="0" sodipodi:nodetypes="ssss"/><ellipse transform="scale(-1 1) rotate(5.724)" style="color:#000;display:inline;overflow:visible;visibility:visible;opacity:1;fill:#3a3a3a;fill-opacity:1;fill-rule:nonzero;stroke:none;stroke-width:1;stroke-linecap:round;stroke-linejoin:round;stroke-miterlimit:4;stroke-dasharray:none;stroke-dashoffset:0;stroke-opacity:1;marker:none;enable-background:accumulate" ry="0.90782917" rx="0.8273322" cy="24.745483" cx="56.505615"/><ellipse transform="scale(-1 1) rotate(5.724)" style="color:#000;display:inline;overflow:visible;visibility:visible;opacity:1;fill:#fdfcfa;fill-opacity:1;fill-rule:nonzero;stroke:none;stroke-width:1;stroke-linecap:round;stroke-linejoin:round;stroke-miterlimit:4;stroke-dasharray:none;stroke-dashoffset:0;stroke-opacity:1;marker:none;enable-background:accumulate" cx="47.149242" cy="25.117126" rx="0.4353216" ry="0.41891629"/><ellipse transform="scale(-1 1) rotate(5.724)" style="color:#000;display:inline;overflow:visible;visibility:visible;opacity:1;fill:#fdfcfa;fill-opacity:1;fill-rule:nonzero;stroke:none;stroke-width:1;stroke-linecap:round;stroke-linejoin:round;stroke-miterlimit:4;stroke-dasharray:none;stroke-dashoffset:0;stroke-opacity:1;marker:none;enable-background:accumulate" cx="47.177975" cy="26.287109" rx="0.27901918" ry="0.25034222"/><ellipse transform="scale(-1 1) rotate(5.724)" style="color:#000;display:inline;overflow:visible;visibility:visible;opacity:1;fill:#fdfcfa;fill-opacity:1;fill-rule:nonzero;stroke:none;stroke-width:1;stroke-linecap:round;stroke-linejoin:round;stroke-miterlimit:4;stroke-dasharray:none;stroke-dashoffset:0;stroke-opacity:1;marker:none;enable-background:accumulate" cx="55.650879" cy="24.544434" rx="0.4353216" ry="0.41891629"/><ellipse transform="scale(-1 1) rotate(5.724)" style="color:#000;display:inline;overflow:visible;visibility:visible;opacity:1;fill:#fdfcfa;fill-opacity:1;fill-rule:nonzero;stroke:none;stroke-width:1;stroke-linecap:round;stroke-linejoin:round;stroke-miterlimit:4;stroke-dasharray:none;stroke-dashoffset:0;stroke-opacity:1;marker:none;enable-background:accumulate" cx="55.691788" cy="25.727539" rx="0.27901918" ry="0.25034222"/></g></g></svg>