<svg xmlns:dc="http://purl.org/dc/elements/1.1/" xmlns:cc="http://creativecommons.org/ns#" xmlns:rdf="http://www.w3.org/1999/02/22-rdf-syntax-ns#" xmlns="http://www.w3.org/2000/svg" width="64" height="64" version="1.1" id="svg12"><metadata id="metadata4"><rdf:RDF><cc:Work><dc:format>image/svg+xml</dc:format><dc:type rdf:resource="http://purl.org/dc/dcmitype/StillImage"/><dc:title/><dc:date>2023</dc:date><dc:creator><cc:Agent><dc:title>Timothée Giet</dc:title></cc:Agent></dc:creator><cc:license rdf:resource="http://creativecommons.org/licenses/by-sa/4.0/"/></cc:Work><cc:License rdf:about="http://creativecommons.org/licenses/by-sa/4.0/"><cc:permits rdf:resource="http://creativecommons.org/ns#Reproduction"/><cc:permits rdf:resource="http://creativecommons.org/ns#Distribution"/><cc:requires rdf:resource="http://creativecommons.org/ns#Notice"/><cc:requires rdf:resource="http://creativecommons.org/ns#Attribution"/><cc:permits rdf:resource="http://creativecommons.org/ns#DerivativeWorks"/><cc:requires rdf:resource="http://creativecommons.org/ns#ShareAlike"/></cc:License></rdf:RDF></metadata><g id="g10"><g aria-label="2" id="text918" style="font-style:normal;font-variant:normal;font-weight:700;font-stretch:normal;font-size:72px;line-height:1.25;font-family:'Nimbus Sans';-inkscape-font-specification:'Nimbus Sans Bold';fill:#dea22e;fill-opacity:1;stroke:#a4751a;stroke-opacity:1;stroke-width:2;stroke-miterlimit:4;stroke-dasharray:none"><path d="M49.227 49.068v9h-34.7q.282-5.66 1.864-9.351 1.265-2.953 3.27-5.098 2.038-2.18 6.644-5.45 6.187-4.429 8.718-6.75 2.356-2.144 3.34-4.218 1.02-2.039 1.02-4.887 0-3.832-1.934-6.011-1.933-2.215-5.308-2.215-3.938 0-5.696 2.812-1.582 2.567-1.582 6.258 0 .528.035 1.617h-9.703q-.035-1.265-.035-1.828 0-7.031 3.55-11.601 4.255-5.414 13.255-5.414 8.12 0 12.797 4.394 4.71 4.43 4.71 11.813 0 5.203-2.425 8.824-2.39 3.586-9.035 8.437-5.625 4.114-7.524 5.871-1.863 1.723-2.883 3.797z" id="path1021" style="fill:#dea22e;fill-opacity:1;stroke:#a4751a;stroke-opacity:1;stroke-width:2;stroke-miterlimit:4;stroke-dasharray:none"/></g></g></svg>