<?xml version="1.0" encoding="UTF-8" standalone="no"?>
<!-- Created with Inkscape (http://www.inkscape.org/) -->

<svg
   xmlns:dc="http://purl.org/dc/elements/1.1/"
   xmlns:cc="http://creativecommons.org/ns#"
   xmlns:rdf="http://www.w3.org/1999/02/22-rdf-syntax-ns#"
   xmlns:svg="http://www.w3.org/2000/svg"
   xmlns="http://www.w3.org/2000/svg"
   xmlns:xlink="http://www.w3.org/1999/xlink"
   xmlns:sodipodi="http://sodipodi.sourceforge.net/DTD/sodipodi-0.dtd"
   xmlns:inkscape="http://www.inkscape.org/namespaces/inkscape"
   width="70px"
   height="82px"
   id="svg3906"
   version="1.1"
   inkscape:version="0.48.4 r9939"
   sodipodi:docname="6.svg">
  <defs
     id="defs3908">
    <linearGradient
       id="linearGradient1572"
       y2="171"
       xlink:href="#linearGradient3960"
       gradientUnits="userSpaceOnUse"
       x2="45.278"
       gradientTransform="matrix(0.66813,0,0,0.66813,196.36,31.338)"
       y1="110"
       x1="-1.3993"
       inkscape:collect="always" />
    <linearGradient
       id="linearGradient3960">
      <stop
         id="stop3962"
         style="stop-color:#ffffff"
         offset="0" />
      <stop
         id="stop3964"
         style="stop-color:#ffffff;stop-opacity:0"
         offset="1" />
    </linearGradient>
    <linearGradient
       id="linearGradient1594"
       y2="216.78"
       xlink:href="#linearGradient3057"
       gradientUnits="userSpaceOnUse"
       x2="91.955002"
       gradientTransform="matrix(0.66813,0,0,0.66813,196.36,31.338)"
       y1="165"
       x1="51.601002"
       inkscape:collect="always" />
    <linearGradient
       id="linearGradient3057">
      <stop
         id="stop3059"
         style="stop-color:#ffffff;stop-opacity:0"
         offset="0" />
      <stop
         id="stop3061"
         style="stop-color:#000000;stop-opacity:.33577"
         offset="1" />
    </linearGradient>
    <linearGradient
       y2="216.78"
       x2="91.955002"
       y1="165"
       x1="51.601002"
       gradientTransform="matrix(0.66813,0,0,0.66813,196.36,31.338)"
       gradientUnits="userSpaceOnUse"
       id="linearGradient4061"
       xlink:href="#linearGradient3057"
       inkscape:collect="always" />
  </defs>
  <sodipodi:namedview
     id="base"
     pagecolor="#ffffff"
     bordercolor="#666666"
     borderopacity="1.0"
     inkscape:pageopacity="0.0"
     inkscape:pageshadow="2"
     inkscape:zoom="6.1978022"
     inkscape:cx="48.751774"
     inkscape:cy="38.939223"
     inkscape:current-layer="g2578"
     inkscape:document-units="px"
     showgrid="false"
     inkscape:window-width="1366"
     inkscape:window-height="713"
     inkscape:window-x="-2"
     inkscape:window-y="-3"
     inkscape:window-maximized="1" />
  <metadata
     id="metadata3911">
    <rdf:RDF>
      <cc:Work
         rdf:about="">
        <dc:format>image/svg+xml</dc:format>
        <dc:type
           rdf:resource="http://purl.org/dc/dcmitype/StillImage" />
        <dc:title />
      </cc:Work>
    </rdf:RDF>
  </metadata>
  <g
     id="layer1"
     inkscape:label="Layer 1"
     inkscape:groupmode="layer">
    <g
       transform="translate(-193.22663,-97.614505)"
       id="g2578">
      <path
         inkscape:connector-curvature="0"
         id="path2517"
         style="fill:#000000;fill-opacity:0.37646999"
         d="m 230.11,100.77 c -11.16,0.28 -20.26,4.37 -25.79,11.61 -5.59,7.29 -7.87,15.66 -7.87,29.29 0,12.9 2.01,20.91 6.81,26.94 5.46,6.97 15.3,11.1 26.49,11.1 18.78,0 31.55,-11.2 31.55,-27.47 0,-14.38 -11.19,-24.31 -27.44,-24.31 -7.72,0 -12.91,1.78 -18.77,6.64 0.4,-7.92 0.42,-7.91 1.21,-11.08 1.74,-6.77 7.06,-10.78 14.52,-10.78 5.99,0 9.19,1.91 11.58,6.66 h 17.31 c -0.93,-4.86 -2.13,-7.29 -4.53,-10.04 -4.93,-5.39 -13.59,-8.56 -23.84,-8.56 -0.41,0 -0.83,-0.01 -1.23,0 z m 0.94,37.44 h 0.31 c 8.65,0 14.24,5.39 14.24,13.63 0,8.03 -6.13,13.84 -14.39,13.84 -8.52,0 -14.38,-5.6 -14.38,-13.53 0,-8.14 5.73,-13.81 14.22,-13.94 z" />
      <path
         inkscape:connector-curvature="0"
         id="path1626"
         style="fill:#000000;fill-opacity:0.37646999"
         d="m 229.21,99.873 c -11.16,0.277 -20.26,4.367 -25.79,11.607 -5.59,7.29 -7.87,15.66 -7.87,29.3 0,12.89 2.01,20.91 6.81,26.93 5.46,6.97 15.31,11.11 26.49,11.11 18.78,0 31.55,-11.2 31.55,-27.48 0,-14.37 -11.19,-24.3 -27.43,-24.3 -7.73,0 -12.91,1.77 -18.77,6.64 0.4,-7.93 0.41,-7.92 1.21,-11.09 1.73,-6.76 7.05,-10.77 14.51,-10.77 5.99,0 9.19,1.9 11.59,6.66 h 17.31 c -0.94,-4.87 -2.14,-7.3 -4.54,-10.05 -4.92,-5.39 -13.59,-8.557 -23.84,-8.557 -0.41,0 -0.82,-0.01 -1.23,0 z m 0.94,37.437 h 0.31 c 8.66,0 14.24,5.39 14.24,13.63 0,8.04 -6.13,13.85 -14.38,13.85 -8.53,0 -14.39,-5.61 -14.39,-13.53 0,-8.15 5.73,-13.82 14.22,-13.95 z" />
      <path
         inkscape:connector-curvature="0"
         id="path1426"
         style="fill:#fef708"
         d="m 227.86,98.527 c -11.16,0.279 -20.26,4.373 -25.78,11.613 -5.6,7.29 -7.87,15.66 -7.87,29.29 0,12.89 2.01,20.91 6.8,26.93 5.46,6.98 15.31,11.11 26.5,11.11 18.77,0 31.55,-11.2 31.55,-27.48 0,-14.37 -11.19,-24.3 -27.44,-24.3 -7.72,0 -12.91,1.78 -18.77,6.64 0.4,-7.93 0.41,-7.92 1.21,-11.09 1.73,-6.76 7.05,-10.77 14.51,-10.77 6,0 9.19,1.9 11.59,6.66 h 17.31 c -0.93,-4.86 -2.13,-7.29 -4.53,-10.04 -4.93,-5.39 -13.59,-8.563 -23.85,-8.563 -0.41,0 -0.82,-0.01 -1.23,0 z m 0.94,37.433 h 0.32 c 8.65,0 14.23,5.39 14.23,13.64 0,8.03 -6.12,13.84 -14.38,13.84 -8.52,0 -14.39,-5.6 -14.39,-13.53 0,-8.15 5.73,-13.82 14.22,-13.95 z" />
      <path
         inkscape:connector-curvature="0"
         id="path1512"
         style="fill:url(#linearGradient1572)"
         d="m 227.63,99.884 c -13.29,-0.32 -26.83,8.436 -29.85,21.716 -3.39,12 -2.99,25.21 0.35,37.16 4.37,11.6 17.18,17.71 29.13,17.4 12.66,0.46 26.63,-6.47 29.73,-19.59 3.01,-10.9 -2.59,-24.05 -13.8,-27.46 -10.55,-4.16 -23.92,-2.39 -31.76,6.27 0,-8.53 0.14,-19.77 8.75,-24.28 6.71,-3.55 17.16,-2.76 20.82,4.69 4.82,-0.2 10.47,0.45 14.8,-0.31 -2.77,-12.16 -17.26,-16.081 -28.17,-15.596 z m 1.86,34.706 c 8.38,-0.38 15.98,7.01 15.26,15.47 0.01,9.14 -9.32,16.2 -18.16,14.65 -8.47,-0.7 -15.1,-9.41 -13.13,-17.81 1.14,-7.54 8.58,-12.76 16.03,-12.31 z" />
      <path
         inkscape:connector-curvature="0"
         id="path1592"
         style="fill:url(#linearGradient4061);stroke:#000000;stroke-width:2;stroke-miterlimit:4;stroke-opacity:1;stroke-dasharray:none"
         d="m 227.9527,99.077262 c -13.29,-0.32 -27.95944,9.726778 -30.97944,23.006778 -3.39,12 -2.6673,25.5327 0.6727,37.4827 4.37,11.6 18.14808,17.22596 30.09808,16.91596 12.66,0.46 26.9527,-6.14731 30.0527,-19.26731 3.01,-10.9 -1.94461,-24.53404 -14.44539,-28.26674 -10.55,-4.16 -23.43596,-3.03539 -31.27596,5.62461 0,-8.53 -0.18269,-17.67248 8.42731,-22.18248 6.71,-3.55 16.8373,-3.24404 20.4973,4.20596 4.82,-0.2 11.76078,0.45 16.09078,-0.31 -2.77,-12.16 -18.22808,-17.694478 -29.13808,-17.209478 z m 1.69865,36.480828 c 8.38,-0.38 14.85056,6.04191 14.13056,14.50191 0.01,9.14 -8.51326,15.55461 -17.35326,14.00461 -8.47,-0.7 -14.13191,-8.11922 -12.16191,-16.51922 1.14,-7.54 7.93461,-12.4373 15.38461,-11.9873 z"
         sodipodi:nodetypes="cccccccccccccccc" />
    </g>
  </g>
</svg>
