<!--Created with Inkscape (http://www.inkscape.org/)--><svg xmlns:dc="http://purl.org/dc/elements/1.1/" xmlns:cc="http://creativecommons.org/ns#" xmlns:rdf="http://www.w3.org/1999/02/22-rdf-syntax-ns#" xmlns="http://www.w3.org/2000/svg" xmlns:sodipodi="http://sodipodi.sourceforge.net/DTD/sodipodi-0.dtd" xmlns:inkscape="http://www.inkscape.org/namespaces/inkscape" width="70px" height="82px" inkscape:version="0.91 r13725" sodipodi:docname="8.svg"><sodipodi:namedview pagecolor="#ffffff" bordercolor="#666666" borderopacity="1.0" inkscape:pageopacity="0.0" inkscape:pageshadow="2" inkscape:zoom="6.1978022" inkscape:cx="31.884904" inkscape:cy="42.648916" inkscape:current-layer="g2567" inkscape:document-units="px" showgrid="false" inkscape:window-width="1880" inkscape:window-height="1060" inkscape:window-x="-3" inkscape:window-y="-3" inkscape:window-maximized="1"/><metadata><rdf:RDF><cc:Work><dc:format>image/svg+xml</dc:format><dc:type rdf:resource="http://purl.org/dc/dcmitype/StillImage"/><dc:title/></cc:Work></rdf:RDF></metadata><g inkscape:label="Layer 1" inkscape:groupmode="layer"><path inkscape:connector-curvature="0" style="fill:#6f1aa4;fill-opacity:1" d="M138.91 193.55c-16.84.45-28.96 8.88-28.96 20.39 0 7.19 3.73 11.74 12.25 15.33-10.92 4.65-15.45 10.35-15.45 19.23 0 14.16 13.71 23.99 33.56 23.99 19.7 0 33.42-9.83 33.42-23.99 0-8.88-4.53-14.58-15.45-19.23 3.2-1.37 4.68-2.12 6.14-3.17 3.86-2.86 6.12-7.4 6.12-12.26 0-11.73-12.79-20.29-30.23-20.29-.42 0-.81-.01-1.22 0-.06 0-.12-.01-.18 0zm.48 11.94h.18c.29-.01.59 0 .88 0 8.26 0 13.97 4 13.97 9.81 0 5.71-5.85 9.84-13.97 9.84-8.25 0-14.11-4.13-14.11-9.94 0-5.47 5.24-9.39 13.05-9.71zm.16 29.69c.21-.01.42 0 .63 0 9.19 0 14.91 4.85 14.91 12.67 0 7.19-5.85 11.94-14.91 11.94s-14.78-4.75-14.78-12.15c0-7.43 5.58-12.24 14.15-12.46z" transform="translate(-106.837 -192.636)"/><path inkscape:connector-curvature="0" style="fill:#9a2ede;fill-opacity:1" d="M138.2 194.9c-10.47.36-23.02 4.45-26.52 15.45-2.3 7.66 3.38 15.43 10.69 17.46 2.09.17 2.12 2.84.04 2.88-8.35 2.68-15.83 10.58-14.26 19.9 1.37 12.21 14.26 19.28 25.49 20.1 13.29 1.79 29.79-1.21 36.81-13.67 4.41-8.51 1.21-20.24-7.82-24.14-2.03-1.53-7.2-2.83-7.34-3.91 7.82-1.69 15.45-8.71 13.75-17.32-1.87-10.28-13.15-15.4-22.62-16.39-2.72-.33-5.48-.44-8.22-.36zm2.44 9.19c6.79-.24 15.47 3.86 15.1 11.65-.53 7.94-9.88 11.49-16.92 10.69-6.89.16-15.26-5.46-13.63-13.07 1.37-6.85 9.29-9.33 15.45-9.27zm.27 29.69c7.91-.27 16.16 5.86 15.58 14.28.01 8.45-8.81 13.72-16.58 13.15-7.32.2-15.55-4.55-15.85-12.42-1-8.57 7.21-15.49 15.43-14.95.47-.03.95-.05 1.42-.06z" transform="translate(-106.837 -192.636)"/></g></svg>