<svg xmlns:dc="http://purl.org/dc/elements/1.1/" xmlns:cc="http://creativecommons.org/ns#" xmlns:rdf="http://www.w3.org/1999/02/22-rdf-syntax-ns#" xmlns="http://www.w3.org/2000/svg" width="64" height="64" version="1.1" id="svg12"><metadata id="metadata4"><rdf:RDF><cc:Work><dc:format>image/svg+xml</dc:format><dc:type rdf:resource="http://purl.org/dc/dcmitype/StillImage"/><dc:title/><dc:date>2015</dc:date><dc:creator><cc:Agent><dc:title>Timothée Giet</dc:title></cc:Agent></dc:creator><cc:license rdf:resource="http://creativecommons.org/licenses/by-sa/4.0/"/></cc:Work><cc:License rdf:about="http://creativecommons.org/licenses/by-sa/4.0/"><cc:permits rdf:resource="http://creativecommons.org/ns#Reproduction"/><cc:permits rdf:resource="http://creativecommons.org/ns#Distribution"/><cc:requires rdf:resource="http://creativecommons.org/ns#Notice"/><cc:requires rdf:resource="http://creativecommons.org/ns#Attribution"/><cc:permits rdf:resource="http://creativecommons.org/ns#DerivativeWorks"/><cc:requires rdf:resource="http://creativecommons.org/ns#ShareAlike"/></cc:License></rdf:RDF></metadata><g id="g10"><g aria-label="9" id="text918-1-7" style="font-style:normal;font-variant:normal;font-weight:700;font-stretch:normal;font-size:72px;line-height:1.25;font-family:'Nimbus Sans';-inkscape-font-specification:'Nimbus Sans Bold';fill:#de2eae;fill-opacity:1;stroke:#a21a7e;stroke-opacity:1;stroke-width:2;stroke-miterlimit:4;stroke-dasharray:none"><path d="M15.16 45.324h9.703q.14 2.25 1.828 3.586 1.688 1.336 4.395 1.336 5.695 0 7.453-6.258.95-3.41.95-7.312v-.914q-2.04 2.32-3.165 3.129-2.601 1.863-6.61 1.863-4.71 0-8.612-2.707-3.48-2.426-5.168-6.61-1.512-3.796-1.512-8.367 0-7.77 4.43-12.62 4.921-5.345 12.761-5.345 9.492 0 14.45 8.333 3.515 5.87 3.515 17.085 0 6.188-1.125 11.637-1.125 5.414-3.094 8.824-4.64 7.91-14.554 7.91-8.649 0-13.078-6.081-2.497-3.41-2.567-7.489zm16.242-32.062q-3.375 0-5.308 2.496-2.074 2.672-2.074 7.172t2.074 7.03q2.004 2.427 5.379 2.427 3.375 0 5.554-2.426 2.25-2.496 2.25-6.926 0-4.676-2.25-7.277-2.144-2.496-5.625-2.496z" id="path1535" style="fill:#de2eae;fill-opacity:1;stroke:#a21a7e;stroke-opacity:1;stroke-width:2;stroke-miterlimit:4;stroke-dasharray:none"/></g></g></svg>