<?xml version="1.0" encoding="UTF-8" standalone="no"?>
<!-- Created with Inkscape (http://www.inkscape.org/) -->

<svg
   xmlns:dc="http://purl.org/dc/elements/1.1/"
   xmlns:cc="http://creativecommons.org/ns#"
   xmlns:rdf="http://www.w3.org/1999/02/22-rdf-syntax-ns#"
   xmlns:svg="http://www.w3.org/2000/svg"
   xmlns="http://www.w3.org/2000/svg"
   xmlns:sodipodi="http://sodipodi.sourceforge.net/DTD/sodipodi-0.dtd"
   xmlns:inkscape="http://www.inkscape.org/namespaces/inkscape"
   width="70px"
   height="82px"
   id="svg3906"
   version="1.1"
   inkscape:version="0.91 r13725"
   sodipodi:docname="9.svg">
  <defs
     id="defs3908" />
  <sodipodi:namedview
     id="base"
     pagecolor="#ffffff"
     bordercolor="#666666"
     borderopacity="1.0"
     inkscape:pageopacity="0.0"
     inkscape:pageshadow="2"
     inkscape:zoom="6.1978022"
     inkscape:cx="39.860665"
     inkscape:cy="39.136757"
     inkscape:current-layer="g2560"
     inkscape:document-units="px"
     showgrid="false"
     inkscape:window-width="1880"
     inkscape:window-height="1060"
     inkscape:window-x="-3"
     inkscape:window-y="-3"
     inkscape:window-maximized="1" />
  <metadata
     id="metadata3911">
    <rdf:RDF>
      <cc:Work
         rdf:about="">
        <dc:format>image/svg+xml</dc:format>
        <dc:type
           rdf:resource="http://purl.org/dc/dcmitype/StillImage" />
        <dc:title />
      </cc:Work>
    </rdf:RDF>
  </metadata>
  <g
     id="layer1"
     inkscape:label="Layer 1"
     inkscape:groupmode="layer">
    <g
       transform="translate(-194.77163,-191.69101)"
       id="g2560">
      <path
         inkscape:connector-curvature="0"
         id="path1414"
         style="fill:#a21a7e;fill-opacity:1"
         d="m 226.4,192.55 c -18.31,0.41 -30.71,11.07 -30.71,26.41 0,15.43 11.45,25.99 28.23,25.99 4.79,0 9.32,-1.04 12.25,-2.73 1.73,-0.95 2.79,-1.91 5.85,-4.66 0,14.27 -5.06,21.34 -15.58,21.34 -6.52,0 -11.04,-2.85 -11.44,-7.29 l -18,0 c 0.4,11.52 12.67,19.98 28.92,19.98 12.12,0 21.3,-4.02 26.89,-11.63 4.93,-6.65 7.85,-17.95 7.85,-30 0,-10.88 -2.25,-19.56 -6.51,-25.16 -5.99,-8.03 -15.32,-12.25 -26.64,-12.25 -0.37,0 -0.74,-0.01 -1.11,0 z m -0.1,12.04 c 0.22,-0.01 0.46,0 0.69,0 9.05,0 14.63,5.6 14.63,14.37 0,8.24 -5.86,13.74 -14.38,13.74 -8.53,0 -13.85,-5.39 -13.85,-13.95 0,-8.43 5.03,-13.87 12.91,-14.16 z" />
      <path
         inkscape:connector-curvature="0"
         id="path1518"
         style="fill:#de2eae;fill-opacity:1"
         d="m 226.92,193.84 c -12.33,-0.29 -26.32,6.48 -29.25,19.31 -3.4,12.58 4.88,27.13 17.98,29.46 8.96,2.38 20.02,0.94 26.12,-6.68 2.84,0.1 1.3,4.25 1.38,5.95 0.1,8.33 -5.26,17.81 -14.29,18.25 -5.66,0.74 -13.22,-0.99 -14.97,-7.16 -5.13,0.18 -10.29,-0.43 -15.4,0.23 1.89,11.03 14.07,16.46 24.23,16.95 12.6,1.31 27.47,-3.87 32.11,-16.61 5.74,-13.68 6.16,-29.8 0.89,-43.64 -5.06,-10.72 -17.3,-16.52 -28.8,-16.06 z m 0.8,9.35 c 8.32,-0.19 15.75,7.1 15.32,15.48 0.43,8.41 -7.14,15.83 -15.47,15.45 -7.75,0.44 -15.37,-5.69 -15.51,-13.6 -1.09,-8.16 4.75,-17.2 13.42,-17.22 0.75,-0.04 1.49,-0.1 2.24,-0.11 z" />
    </g>
  </g>
</svg>
