<?xml version="1.0" encoding="UTF-8" standalone="no"?>
<!-- Created with Inkscape (http://www.inkscape.org/) -->

<svg
   xmlns:dc="http://purl.org/dc/elements/1.1/"
   xmlns:cc="http://creativecommons.org/ns#"
   xmlns:rdf="http://www.w3.org/1999/02/22-rdf-syntax-ns#"
   xmlns:svg="http://www.w3.org/2000/svg"
   xmlns="http://www.w3.org/2000/svg"
   xmlns:sodipodi="http://sodipodi.sourceforge.net/DTD/sodipodi-0.dtd"
   xmlns:inkscape="http://www.inkscape.org/namespaces/inkscape"
   width="134.72865"
   height="136.41594"
   id="svg8495"
   version="1.1"
   inkscape:version="0.91 r13725"
   sodipodi:docname="star.svg">
  <defs
     id="defs8497" />
  <sodipodi:namedview
     id="base"
     pagecolor="#ffffff"
     bordercolor="#666666"
     borderopacity="1.0"
     inkscape:pageopacity="0.0"
     inkscape:pageshadow="2"
     inkscape:zoom="1.4"
     inkscape:cx="-27.346494"
     inkscape:cy="73.017873"
     inkscape:document-units="px"
     inkscape:current-layer="g5567"
     showgrid="false"
     borderlayer="true"
     fit-margin-top="0"
     fit-margin-left="0"
     fit-margin-right="0"
     fit-margin-bottom="0"
     inkscape:window-width="1880"
     inkscape:window-height="1060"
     inkscape:window-x="-3"
     inkscape:window-y="-3"
     inkscape:window-maximized="1" />
  <metadata
     id="metadata8500">
    <rdf:RDF>
      <cc:Work
         rdf:about="">
        <dc:format>image/svg+xml</dc:format>
        <dc:type
           rdf:resource="http://purl.org/dc/dcmitype/StillImage" />
        <dc:title />
      </cc:Work>
    </rdf:RDF>
  </metadata>
  <g
     inkscape:label="Calque 1"
     inkscape:groupmode="layer"
     id="layer1"
     transform="translate(0.86388243,0.87299985)">
    <g
       transform="translate(-626.39978,53.460916)"
       id="layer1-3">
      <g
         transform="matrix(0.98492,0,0,0.98492,3.1957,4.9379)"
         id="g6681">
        <g
           transform="matrix(0.9370975,0,0,1,485.73156,-662.7784)"
           id="g5605" />
        <g
           transform="matrix(0.34478,0,0,0.34478,972.14509,-201.71151)"
           id="g5567">
          <path
             d="m -686.74144,674.62489 6.54375,103.17863 -95.16669,-40.3919 -76.5984,69.4236 -27.72956,-99.5846 -102.06255,-16.6085 60.59445,-83.77991 -50.67585,-90.13765 103.29158,-4.86962 38.87718,-95.81111 68.20113,77.71449 99.15274,-29.3439 -18.24277,101.78353 84.76314,59.22592 z"
             style="fill:#a86f1b;fill-opacity:1;stroke:none;stroke-width:5.88961601;stroke-miterlimit:4;stroke-opacity:1;stroke-dasharray:none"
             id="path5470"
             inkscape:connector-curvature="0" />
          <path
             d="m -703.21716,664.42204 5.4871,86.51787 -79.79965,-33.86961 -64.22968,58.21341 -23.25193,-83.50418 -85.582,-13.92665 50.80996,-70.25155 -42.49297,-75.58267 86.61258,-4.0833 32.59949,-80.34002 57.18835,65.16555 83.14205,-24.6056 -15.29701,85.34804 71.07602,49.66242 z"
             style="fill:#de962e;fill-opacity:1;stroke:none;stroke-width:5.88961601;stroke-miterlimit:4;stroke-dasharray:none;stroke-opacity:1"
             id="path5470-3"
             inkscape:connector-curvature="0" />
        </g>
      </g>
    </g>
  </g>
</svg>
