<!--Created with Inkscape (http://www.inkscape.org/)--><svg xmlns:dc="http://purl.org/dc/elements/1.1/" xmlns:cc="http://creativecommons.org/ns#" xmlns:rdf="http://www.w3.org/1999/02/22-rdf-syntax-ns#" xmlns="http://www.w3.org/2000/svg" xmlns:sodipodi="http://sodipodi.sourceforge.net/DTD/sodipodi-0.dtd" xmlns:inkscape="http://www.inkscape.org/namespaces/inkscape" width="3000" height="3000" viewBox="0 0 793.74998 793.75002" inkscape:version="0.92.4 (5da689c313, 2019-01-14)" sodipodi:docname="india.svg"><sodipodi:namedview pagecolor="#ffffff" bordercolor="#666666" borderopacity="1.0" inkscape:pageopacity="0.0" inkscape:pageshadow="2" inkscape:zoom="0.25" inkscape:cx="607.5132" inkscape:cy="1605.35" inkscape:document-units="px" inkscape:current-layer="layer1" showgrid="false" units="px" inkscape:window-width="1884" inkscape:window-height="1051" inkscape:window-x="0" inkscape:window-y="0" inkscape:window-maximized="1"/><metadata><rdf:RDF><cc:Work><dc:format>image/svg+xml</dc:format><dc:type rdf:resource="http://purl.org/dc/dcmitype/StillImage"/><dc:title/><dc:date>2020</dc:date><dc:creator><cc:Agent><dc:title>Timothée Giet</dc:title></cc:Agent></dc:creator><cc:license rdf:resource="http://creativecommons.org/licenses/by-sa/4.0/"/></cc:Work><cc:License rdf:about="http://creativecommons.org/licenses/by-sa/4.0/"><cc:permits rdf:resource="http://creativecommons.org/ns#Reproduction"/><cc:permits rdf:resource="http://creativecommons.org/ns#Distribution"/><cc:requires rdf:resource="http://creativecommons.org/ns#Notice"/><cc:requires rdf:resource="http://creativecommons.org/ns#Attribution"/><cc:permits rdf:resource="http://creativecommons.org/ns#DerivativeWorks"/><cc:requires rdf:resource="http://creativecommons.org/ns#ShareAlike"/></cc:License></rdf:RDF></metadata><g inkscape:label="Layer 1" inkscape:groupmode="layer" transform="translate(0 496.75)"><rect style="opacity:1;vector-effect:none;fill:#75c5f0;fill-opacity:1;stroke:none;stroke-width:.12945871;stroke-linecap:butt;stroke-linejoin:miter;stroke-miterlimit:4;stroke-dasharray:none;stroke-dashoffset:0;stroke-opacity:1" width="793.75" height="793.75" x="-8.8817842e-16" y="-496.75003"/><path inkscape:connector-curvature="0" style="fill:#cc5c18;fill-opacity:1;stroke:none;stroke-width:1.08281755;stroke-miterlimit:3.97446823;stroke-dasharray:none;stroke-opacity:1" d="M274.337-115.58c.08-1.892 2.19-1.925 3.573-1.925 1.631 0 1.088-2.487 1.113-3.375 1.048.542 3.433.653 4.642.303 2.212-.64 3.656 2.117 5.865 1.142.51-.225 3.925-3.665 4.611-2.283 1.124 2.257 2.67 1.343 4.686-.048-1.774-.363.074-2.694-.449-3.83-.925-2.011-1.967-3.9-3.09-5.797-.619-1.041.576-3.402-1.599-2.777-1.816.522-3.62-1.783-3.264-3.467.252-1.194.944-3.848-.037-4.772-1.595-1.504-4.852-.348-5.356-3.188-.32-2.059 1.883-4.14 3.232-5.653.97-1.086 1.59-2.345 2.392-3.54.563-.844 1.767-2.74 2.97-2.435 1.56.397 1.01 3.116 2.756 3.277.995.092 2.116-.66 3.046-1.046 1.147-.475 2.223-.42 3.385-.576 2.69-.364 2.517-2.491 4.255-4.04 2.106-1.876 1.398-4.347 4.302-5.861 2.658-1.386 3.923-3.11 5.14-5.835.925-1.994.879-4.64 3.455-5.464.88-.281 1.92-.466 2.535-1.316.864-1.195-.638-1.464-.522-2.068.14-.726 2.529-3.288 3.087-3.954 1.044-1.24 3.149-1.91 3.977-3.26-1.762-.035-1.004-1.703-.792-2.913.257-1.47-.881-2.576-.61-3.84.477-2.213 4.808-2.632 6.302-4.06 2.567-2.457-3.406-2.696-4.376-3.08-.997-.394-.234-1.993-1.253-2.611-.695-.423-1.63-.416-2.366-.784.507-.892.226-1.401-.46-1.81-.73-.436-2.806-1.8-1.983-2.869.783-1.012 1.41-2.093.398-2.909-.62-.5-1.61-1.562-.42-2.45.474-.352 3.18-1.988 1.177-2.17-.327-.031-3.475-.057-2.354-1.216 1.405-1.453-.13-1.345-.897-2.05-.92-.878 1.469-3.181 2.303-3.636 2.148-1.172 3.91-.275 5.757.164 2.092.496 4.149 1.054 6.227 1.57 1.77.44 3.158-.74 4.957-1.326 1.57-.51 3.082-.445 4.626-.91.482-.145 3.663-2.779 3.548-3.12-.314-.927 2.718-2.344 3.584-2.94.696-.477 1.454-1.007 2.234-1.262.655-.214.822.3 1.36.146 1.806-.515.724 1.683 1.292 2.697.853 1.526.585 3.665 1.688 5.002 1.18 1.432 4.36 1 5.403 3.26.303.63 1.193 1.321.202 2.011-1.897 1.323-1.507 1.53-1.24 3.5.237 1.752.32 3.447 1.451 4.758.86.997 2.75 1.103 3.44 2.056.338.465.001 1.254.153 1.806.172.623.623 1.072.937 1.602 1.064 1.785-.577 2.14-1.867 3.117-1.141.863-3.048 2.638-3.59.398-.413-1.707-1.636-1.934-3.606-.65.464.69.532 1.473.596 2.332.073.961.912 1.445 1.393 2.139 1.036 1.486.323 3.159 1.28 4.448.566.763-1.263 3.885.81 3.605.901-.121.763-.948 1.454-1.17 1.085-.352 1.23.807 1.493 1.43.375.89 1.96 2.785 2.946 2.99 1.18.246 2.143-.546 2.935.628.48.712 1.569.449 2.113 1.024.369.388.278 1.09.296 1.621.03.891 1.043.9 1.719 1.227 1.852.9 3.878 1.312 5.047 3.115-2.318.136-3.541 3.372-5.347 4.475-.173.105-.226 1.727-.485 2.108-.925 1.358-.109 1.935-.582 3.215-.43 1.17-2.627 2.403-1.533 3.786.652.827 3.358 3.146 3.643 1.488 1.235.859 2.693 2.086 4.111 2.647 1.682.666 2.227 2.11 3.707 3.091.438.29 2.696 2.392 3.432 2.118 1.723-.641 3.065.672 4.31 1.372.53.298 2.511.328 2.759.715.862 1.345.949 1.71 2.806 2.099.976.205 2.106 1.25 3.246.51 1.52-.988 2.17-.207 3.548.449-.504-2.561 5.462.04 5.88.174 1.674.538.095 2.869 1.656 3.244 1.338.32 3.33 1.02 3.966 2.23.531.969 2.194-.422 3.031-.49 2.049-.169.59 2.85 3.396 1.768.827-.32 4.104.859 4.797 1.309 1.786 1.155 2.383.005 4.25-.588 0 1.275 1.908 2.546 3 1.59.414-.362 3.29.006 3.926.02 1.36.03 1.646-.064 2.048-1.52.74-2.482-.251-3.45-.798-5.577-.3-1.169.134-2.636.484-3.88.423-1.511.285-2.682.485-4.157 1.542-.106 3.529-1.389 4.965-.948 2.82.864-.506 4.545.469 6.09.175.277 1.169.932.726 1.415-.682.744-1.166.65-.777 1.716.855 2.341 2.621 2.27 4.848 2.566 1.497.199 2.2 1.55 3.746 1.39.648-.067 1.676-.087 2.302-.46.653-.389 2.069-1.84 2.782-1.265 1.786 1.438 4.463.966 6.857.876.73-.027 2.12-.94 2.43-.456.474.744 2.723 0 3.655-.107 2.336-.268.108-2.296.607-3.276 1.656-3.245-2.065-1.9-3.153-3.42-.594-.831-.564-2.536 1-2.139 1.254.319 1.787-.32 3-.59 1.826-.41 4.84.492 4.733-2.504-.047-1.262 3.865-2.531 4.364-4.257.792-2.727 4.052-1.384 5.956-2.936 1.529-1.244 2.573-2.722 4.23-3.855.611-.418 1.24-.877 1.894-1.211.563-.288 2.642 1.511 3.095 1.814-.482-.608-.256-.626.678-.051.747.343 1.58.918 2.513.88.952-.039 1.038-1.166 1.505-1.767.834-1.074 3.085-1.75 4.276-2.184.263-.095 2.249 2.041 2.481 2.3-1.796.72-1.705.937-1.56 2.178.102.879 2.307-.66 2.754-.78-.605 1.205 1.373 1.968.785 2.923-.896 1.452-1.594 1.945-2.202 3.397-.434 1.033 1.872.134 2.254.034 1.627-.425 2.43 1.135 4.094.662 1.426-.406 2.174 1.39 1.931 2.524-.09.424.462.771.325 1.087-.33.76-1.751 1.675-2.376 2.188-3.368 2.763.523 3.878.444 6.489-1.981.744-2.034-1.742-3.425-2.142-1.333-.382-5.065.833-6.225 1.996-.888.89-1.635 1.64-2.649 2.402-.424.505-.924.702-1.498.591-.604.416-.16.718-1.064 1.192-.955.506-1.638-.079-2.167 1.194-.39.934-.41 1.997-.29 2.913.092.698.562 1.178.674 1.83.149.873-1.128 1.371-.978 2.315.365 2.29-3.987 3.784-3.38 5.697.216.687.936.926 1.104 1.704.256 1.193-.716 2.63-1.389 3.669-1.662 2.566-3.265 5.413-3.664 8.32-.729-.64-2.75-1.26-3.735-1.52-.519.035-1.038.106-1.558.213-.633-.13-.72-.696-1.518-.54.52 2.27.709 4.29.507 6.694-.086 1.012-.41 4.206-2.083 2.846-.016 2.187-.415 3.79.175 5.852.21.733.595 3.191-.97 2.216-1.309 3.3-.741 1.278-2.905.48.05.644-.307 1.275-.884 1.673-.497-1.676-.372-3.57-.477-5.346-.125-2.136-1.22-3.984-1.512-6.086-.227-1.629-.627-3.27-.715-4.922-.075-1.446-2.033.755-2.833-.034.157.95.455 1.678-.531 2.457-1.059.837-.597 1.822-.554 2.817.043.954-1.25 2.104-2.098 1.413-.828-.673-.354-2.012-1.447-2.521.03.54-.069 1.074-.295 1.6-.492-1.639-.992-3.275-1.448-4.933-.458-1.671 1.906-3.339 1.644-4.85.826.111 2.294.373 2.333-.964.425.847 1.399-.44 2.078.243.562-2.11 3.92-4.241 2.95-6.762.503.047 2.645-.044 1.792-1.056-1-1.186-3.065-1.868-4.708-1.846-1.455.019-2.937.288-4.353.057-1.861-.303-3.603.238-5.469.005-2.355-.293-8.5.344-7.64-3.244.366-1.525.345-6.65-2.133-6.445.295.691.011 1.344-.365 2.027-1.05-.625-2.537-.812-3.195-1.919-.55-.926-.68-2.736-2.24-2.459.46.473.764 1.04.908 1.704-.805-.326-1.758-.346-2.526-.755-.487-.259-.603-1.062-1.037-1.45-.584-.521-1.3-.878-1.913-1.366-1.125 1.596 1.037.836 1.252 2.19-2.711.97-4.876 4.605-1.92 5.832 1.18.49 1.443 1.83 2.417 2.53.713.514 2.307-.386 2.277.708-.045 1.594 2.26.99.974 2.665-.657-.368-1.819-.253-2.59-.18-1.044.097-1.291.164-1.526 1.104-.245.981-1.47 2.698-2.134 1.173-.328 1.662-1.86 2.977-.358 4.35a6.816 6.816 0 0 0 4.099 1.753c3.152.235-2.94 7.584.687 7.853 1.066.079.256 1.396.39 2.216.051.31.942.43 1.09.476.832.255-.204 1.475-.208 1.983-.013 1.028.804 1.68.692 2.723-.15 1.4-.26 2.173.29 3.43.56 1.284 1.084 3.051.217 4.385a12.305 12.305 0 0 0-.894-.558c.178.534 1.802 2.63 1.074 3.167-.775.573-1.585-.45-1.519-1.096-.264.865-1.03 1.622-1.436.478-.427-1.205.479-2.725.606-3.983-.815.372-.084 1.132-1.054 1.832.317-.844-.126-1.65.405-2.47-1.682 1.148-.781 4.861-1.256 6.452-.21-1.053.43-2.75-.505-3.503 0 .115-.122 2.957-.563 2.643a4.244 4.244 0 0 1-.328-.631c-.757-1.287-.363 1.908-.849-.5.291.57.241 1.154-.151 1.752-.98-.987-.674-3.115-.63-4.46.067-2.07-1.645-1.672-2.072-3.349.05 1.68 2.872 1.355 1.284 3.505-1.79 2.42-3.293 3.404-6.186 4.225-1.533.437-3.653 1.197-4.198 2.89-.369 1.152.26 4.913 1.074 5.768-.622.43-1.56.872-1.92 1.57-.55 1.062.496 1.144-.925 2.153-1.694 1.202-2.569 3.518-4.147 1.112.154.905 1.178 1.34 1.889 1.741-2.501 1.155-5.17 2.325-7.846 2.689.884-.444 1.362-2.417-.012-1.972-1.405.456-2.838 2.362-2.548 3.71.23-.509 1.679-2.199 2.026-1.343-.85.23-2.374 2.334-3.254 3.085-1.974 1.686-3.124 3.74-4.607 5.81-1.45 2.092-3.105 4.167-5.524 5.199-2.074.885-2.545 3.475-4.585 4.347 1.226.763-5.34 3.63-6.097 4.246-.74.602-1.548 1.478-1.983 2.306-.703 1.336 1.093 1.676.339 3.201-1.491 3.018-5.13 2.757-7.82 2.886-1.095.054-1.29.819-1.618 1.723-.359.987-1.59 2.742-1.594 3.665-.826-.417-.771-1.267-1.025-2.034.276.884-.353 1.701-.698 2.503.827-2.646-3.234-1.146-4.043.136-1.187 1.88-2.756 4.751-2.177 6.845.477 1.72 1.038 3.587.911 5.347-.216 3.014.182 5.405.784 8.333-.217-.506-1.241-2.927-1.283-.934-.593-1.428-.729.424-.214.748.661.415 1.333.464 1.745 1.204.756 1.356-.247 4.883-.569 6.348-.572 2.618-2.295 4.607-3.257 7.068-.75 1.915-.012 4.688-1.554 6.283.261-.232.54-.438.84-.618.827 1.016.738 2.468.642 3.728-.159 2.069.187 4.112 0 6.175a12.826 12.826 0 0 1-1.661-.232c2.127.675-.062.341-.442.241-.793-.21-1.944-.61-2.476.345-.275.496-.7 1.097-.419 1.66.42.843-.888 1.665-1.317 2.312-.833 1.255-2.471 4.004-.282 4.92.568.238 1.297.168 1.874-.052.405-.155 1.184 1.245 1.431 1.463-2.102-2.194-5.804-.823-8.217.309-3.14 1.471-1.841 4.268-3.413 6.532-.795 1.142-2.298 1.928-3.558 2.463-1.984.843-3.062-.006-4.474-1.282-.652-.59-5.658-5.913-3.98-6.323-1.485.509-1.943-2.334-2.417-3.53-.673-1.7-1.386-3.712-.818-5.58.403.67.547 1.462.556 2.24.258-1.86-.178 1.792.965 1.932-.356-1.016-.012-2.173-.443-3.166-.37-.85-1.23-1.31-1.262-2.318-.038 1.975-.643.061-.582-.364.14-1-.442-1.312-.878-2.39-.734-1.922-1.286-3.928-1.92-5.886-.24-.737-4.436-8.101-4.152-8.464-2.718-3.513-4.488-7.743-5.221-12.153-.234-1.57-.325-3.001-.786-4.477-.307-.98-.651-1.89-.984-2.853-.251-.725-1.256-2.58.044-2.117-1.442-.482-.941-2.482-1.645-3.507-.447-.652-2.819-1.95-.693-2.34-1.282.551-1.791-.888-2.078-1.77-.225-.693-.396-1.412-.698-2.074-.31-.678-1.397-.991.044-1.152-.69-.173-1.21-1.15-1.135-1.825.079-.699-.694-.914-1.188-1.672-1.191-1.83-1.89-4.015-2.418-6.143-.368-1.48-.656-3.034-.528-4.602.134-1.634-.648-3.161-.783-4.768-.126-1.507-.89-2.798-1.241-4.249-.23-.949-1.734-4.088-.176-3.475-.263-.363-2.26-3.174-.387-2.125-.225-1.153-1.588-1.89-.915-3.23.25.205.497.416.74.63.117-.673-.068-1.225-.555-1.657 1.213-.449.708-1.545.571-2.366-.137.665-.44 1.265-.986 1.736-.73-1.375-.142-4.473 1.604-2.288-.243-.774-3.121-1.262-2.087-2.352.361-.38-.828-1.944-.928-2.428-.267-1.297-.181-2.579.23-3.909.644-2.081 2.137-4.26 1.508-6.394-.082-.278-.275-3.93-1.494-2.577.469-.958.255-.985-.644-.08 1.12-1.167-.57-1.521-.19-2.382.249-.559.467-1.158.614-1.74.215-.848 3.18-1.383 3.824-2.397-2.291 1.564-7.055.35-3.514-1.993-1.172.49-2.404-.282-1.462-1.513.806-1.055 1.8.017 2.62-1.038-1.14.28-3.42-.119-3.93-1.197-.128.544-1.237.755-1.204.639-.153.523.634.607.57 1.41-.085 1.084-.901 1.41-1.863 1.698.181.272.37.538.57.798-.633-.17-1.144.199-1.389.796 2.214.696 3.046 2.165 1.324 4.25-.61.74-.422 1.772-1.497 2.155-1.305.464-2.52 1.286-3.733 1.962-2.144 1.194-4.595 2.664-6.963 1.88-2.389-.791-5.094-3.064-6.353-5.154-1.87-3.111-4.926-5.068-7.206-7.805-.6-.72-2.267-3.175-.031-3.478.61-.082.526 1.052.955 1.294.82.46 2.45.095 2.715-1.002.733 1.18 4.896-1.04 5.774-1.837.761-.692.739-1.765 1.316-2.557.608-.832 2.021-1.39.975-2.4-.636.565-.16 1.901-1.276 1.84-1.205-.066-2.214.165-3.425.556-1.03.333-1.513 1.247-2.642 1.194-1.377-.065-2.687-.72-3.833-1.337-1.142-.616-2.453-1.153-3.468-1.938-.811-.627-.72-2.186-1.723-2.553-3.39-1.251.983-3.934 2.102-4.733-1.853-.21-3.424 3.325-5.2 2.485.413-.552.494-1.114.25-1.69" inkscape:label="path3774"/></g></svg>