<!--Created with Inkscape (http://www.inkscape.org/)--><svg xmlns:dc="http://purl.org/dc/elements/1.1/" xmlns:cc="http://creativecommons.org/ns#" xmlns:rdf="http://www.w3.org/1999/02/22-rdf-syntax-ns#" xmlns="http://www.w3.org/2000/svg" xmlns:sodipodi="http://sodipodi.sourceforge.net/DTD/sodipodi-0.dtd" xmlns:inkscape="http://www.inkscape.org/namespaces/inkscape" width="520" height="520" inkscape:version="0.92.1 r15371" sodipodi:docname="five.svg"><sodipodi:namedview pagecolor="#ffffff" bordercolor="#666666" borderopacity="1.0" inkscape:pageopacity="0.0" inkscape:pageshadow="2" inkscape:zoom="0.35" inkscape:cx="-243.57143" inkscape:cy="520" inkscape:document-units="px" inkscape:current-layer="layer1" showgrid="false" inkscape:window-width="1884" inkscape:window-height="1051" inkscape:window-x="0" inkscape:window-y="0" inkscape:window-maximized="1"/><metadata><rdf:RDF><cc:Work><dc:format>image/svg+xml</dc:format><dc:type rdf:resource="http://purl.org/dc/dcmitype/StillImage"/><dc:title/><dc:date>2018</dc:date><dc:creator><cc:Agent><dc:title>Timothée Giet</dc:title></cc:Agent></dc:creator><cc:license rdf:resource="http://creativecommons.org/licenses/by-sa/4.0/"/></cc:Work><cc:License rdf:about="http://creativecommons.org/licenses/by-sa/4.0/"><cc:permits rdf:resource="http://creativecommons.org/ns#Reproduction"/><cc:permits rdf:resource="http://creativecommons.org/ns#Distribution"/><cc:requires rdf:resource="http://creativecommons.org/ns#Notice"/><cc:requires rdf:resource="http://creativecommons.org/ns#Attribution"/><cc:permits rdf:resource="http://creativecommons.org/ns#DerivativeWorks"/><cc:requires rdf:resource="http://creativecommons.org/ns#ShareAlike"/></cc:License></rdf:RDF></metadata><path style="fill:#373737;fill-rule:evenodd;fill-opacity:1" inkscape:connector-curvature="0" d="m195.323 565.783-45.431 192.189 54.07 5.615c8.53-10.72 20.262-19.426 35.192-26.119 14.93-6.75 31.674-10.124 50.23-10.124 29.86 0 53.998 7.572 72.412 22.715 18.485 15.144 27.728 35.818 27.728 62.021 0 27.565-9.598 49.685-28.794 66.36-19.196 16.675-42.658 25.013-70.386 25.013-23.036 0-42.73-5.899-59.082-17.696-16.28-11.854-26.661-29.522-31.14-53.003l-60.468 4.084c3.84 31.478 19.232 56.746 46.177 75.803 27.017 19.057 61.855 28.586 104.513 28.586 52.043 0 93.101-15.144 123.175-45.431 24.742-24.672 37.113-53.939 37.113-87.8 0-35.561-14.078-64.658-42.232-87.288-28.154-22.63-62.707-33.946-103.66-33.946-30.926 0-60.467 7.827-88.621 23.481l25.275-100.56h187.162v-43.9z" transform="translate(0 -532.362)" inkscape:label="Layer 1" inkscape:groupmode="layer"/></svg>