<!--Created with Inkscape (http://www.inkscape.org/)--><svg xmlns:dc="http://purl.org/dc/elements/1.1/" xmlns:cc="http://creativecommons.org/ns#" xmlns:rdf="http://www.w3.org/1999/02/22-rdf-syntax-ns#" xmlns="http://www.w3.org/2000/svg" xmlns:xlink="http://www.w3.org/1999/xlink" xmlns:sodipodi="http://sodipodi.sourceforge.net/DTD/sodipodi-0.dtd" xmlns:inkscape="http://www.inkscape.org/namespaces/inkscape" width="800" height="520" viewBox="0 0 800.00001 520.00001" inkscape:version="0.92.1 r15371" sodipodi:docname="background.svg"><defs><linearGradient gradientTransform="translate(0 532.362)" inkscape:collect="always" xlink:href="#a" id="b" x1="380.73132" y1="114.35093" x2="386.96973" y2="340.88818" gradientUnits="userSpaceOnUse"/><linearGradient inkscape:collect="always" id="a"><stop style="stop-color:#3cc1f1;stop-opacity:1" offset="0"/><stop style="stop-color:#85d8f6;stop-opacity:1" offset="1"/></linearGradient></defs><sodipodi:namedview pagecolor="#ffffff" bordercolor="#666666" borderopacity="1.0" inkscape:pageopacity="0.0" inkscape:pageshadow="2" inkscape:zoom="0.98994949" inkscape:cx="164.76157" inkscape:cy="250.44044" inkscape:document-units="px" inkscape:current-layer="layer1" showgrid="false" units="px" borderlayer="true" inkscape:showpageshadow="false" inkscape:window-width="1884" inkscape:window-height="1051" inkscape:window-x="0" inkscape:window-y="0" inkscape:window-maximized="1"/><metadata><rdf:RDF><cc:Work><dc:format>image/svg+xml</dc:format><dc:type rdf:resource="http://purl.org/dc/dcmitype/StillImage"/><dc:title/></cc:Work></rdf:RDF></metadata><g inkscape:label="Calque 1" inkscape:groupmode="layer" transform="translate(0 -532.362)"><rect style="fill:url(#b);fill-opacity:1;fill-rule:evenodd" x="-18.753752" y="494.47421" width="840.12292" height="604.90356" ry="66.083519" rx="61.502636"/><path style="fill:#b9dbe7;fill-opacity:1;fill-rule:evenodd" inkscape:connector-curvature="0" d="M-128.814 844.185c53.364 26.236 1.89 86.723 57.739 121.384 66.114 10.948 445.944-17.829 535.297-43.75 89.354-25.923-96.768-64.6-183.29-86.338-150.795-37.885-275.692-24.266-409.746 8.704z" sodipodi:nodetypes="ccssc"/><path style="fill:#c5e1ed;fill-opacity:1;fill-rule:evenodd" inkscape:connector-curvature="0" d="M36.864 989.015c170.557 141.624 613.193-23.446 793.702-43.768l1.149-87.942c-452.15-91.174-819.153 111.363-794.851 131.71z" sodipodi:nodetypes="cccc"/><path style="fill:#dcedf3;fill-opacity:1;fill-rule:evenodd" inkscape:connector-curvature="0" d="M-72.734 932.287c14.797 51.975 10.676 174.408 64.944 176.26l789.489 6.89c72.857-15.9 63.795-81.186 63.795-140.336 21.504-9.964 16.818-140.032-918.228-42.814z" sodipodi:nodetypes="ccccc"/></g></svg>