<!--Created with Inkscape (http://www.inkscape.org/)--><svg xmlns:dc="http://purl.org/dc/elements/1.1/" xmlns:cc="http://creativecommons.org/ns#" xmlns:rdf="http://www.w3.org/1999/02/22-rdf-syntax-ns#" xmlns="http://www.w3.org/2000/svg" xmlns:sodipodi="http://sodipodi.sourceforge.net/DTD/sodipodi-0.dtd" xmlns:inkscape="http://www.inkscape.org/namespaces/inkscape" sodipodi:docname="car11.svg" viewBox="0 0 800 400" sodipodi:version="0.32" version="1.0" inkscape:output_extension="org.inkscape.output.svg.inkscape" inkscape:version="0.92.1 r" width="800" height="400"><sodipodi:namedview bordercolor="#666666" inkscape:pageshadow="2" inkscape:window-y="361" pagecolor="#ffffff" inkscape:window-height="709" inkscape:zoom="0.70710678" inkscape:window-x="584" showgrid="false" borderopacity="1.0" inkscape:current-layer="g3094" inkscape:cx="247.71101" inkscape:cy="110.34021" inkscape:window-width="1275" inkscape:pageopacity="0.0" inkscape:document-units="px" fit-margin-top="0" fit-margin-left="0" fit-margin-right="0" fit-margin-bottom="0" inkscape:window-maximized="0" units="px"/><g transform="matrix(-2.37503 0 0 -1.78375 821.121 433.563)" inkscape:label="Pala" inkscape:groupmode="layer"><rect style="fill:#ffbd0f;stroke:#000;stroke-width:2.25370669" rx="0" ry="6.0830941" height="123.87819" width="206.17833" y="70.543541" x="125.70559"/><g transform="matrix(.95861 0 0 1.21509 -135.794 -265.298)"><rect style="fill:#3d4248;stroke:#000;stroke-width:1.20809996" rx="0" ry="6.211" height="27.570999" width="15.449" y="378.45001" x="450.63"/><rect style="fill:#3d4248;stroke:#000;stroke-width:1.20809996" rx="0" ry="6.211" height="27.570999" width="15.449" y="378.45001" x="435.48001"/><rect style="fill:#3d4248;stroke:#000;stroke-width:1.20809996" rx="0" ry="6.211" height="27.570999" width="15.449" y="378.45001" x="420.32999"/><rect style="fill:#3d4248;stroke:#000;stroke-width:1.20809996" rx="0" ry="6.211" height="27.570999" width="15.449" y="378.45001" x="405.17999"/><rect style="fill:#3d4248;stroke:#000;stroke-width:1.20809996" rx="0" ry="6.211" height="27.570999" width="15.449" y="378.45001" x="389.76999"/><rect style="fill:#3d4248;stroke:#000;stroke-width:1.20809996" rx="0" ry="6.211" height="27.570999" width="15.449" y="378.45001" x="374.62"/><rect style="fill:#3d4248;stroke:#000;stroke-width:1.20809996" rx="0" ry="6.211" height="27.570999" width="15.449" y="378.45001" x="358.70999"/><rect style="fill:#3d4248;stroke:#000;stroke-width:1.20809996" rx="0" ry="6.211" height="27.570999" width="15.449" y="378.45001" x="343.56"/><rect style="fill:#3d4248;stroke:#000;stroke-width:1.20809996" rx="0" ry="6.211" height="27.570999" width="15.449" y="378.45001" x="327.89999"/><rect style="fill:#3d4248;stroke:#000;stroke-width:1.20809996" rx="0" ry="6.211" height="27.570999" width="15.449" y="378.45001" x="312.75"/><rect style="fill:#3d4248;stroke:#000;stroke-width:1.20809996" rx="0" ry="6.211" height="27.570999" width="15.449" y="378.45001" x="297.59"/><rect style="fill:#3d4248;stroke:#000;stroke-width:.95853001" rx="0" ry="6.2673001" height="27.820999" width="9.6379004" y="378.32999" x="272.97"/><rect style="fill:#3d4248;stroke:#000;stroke-width:.95853001" rx="0" ry="6.2673001" height="27.820999" width="9.6379004" y="378.32999" x="481.82001"/><rect style="fill:#3d4248;stroke:#000;stroke-width:.73175001" rx="0" ry="6.3183999" height="28.047001" width="5.5714998" y="378.20999" x="267.29999"/><rect style="fill:#3d4248;stroke:#000;stroke-width:.73175001" rx="0" ry="6.3183999" height="28.047001" width="5.5714998" y="378.20999" x="492.19"/><rect style="fill:#3d4248;stroke:#000;stroke-width:.5377" rx="0" ry="6.3621001" height="28.240999" width="2.9877" y="378.12" x="264.04999"/><rect style="fill:#3d4248;stroke:#000;stroke-width:.5377" rx="0" ry="6.3621001" height="28.240999" width="2.9877" y="378.12" x="498.03"/><rect style="fill:#3d4248;stroke:#000;stroke-width:1.20809996" rx="0" ry="6.211" height="27.570999" width="15.449" y="378.45001" x="466.54001"/><rect style="fill:#3d4248;stroke:#000;stroke-width:1.20809996" rx="0" ry="6.211" height="27.570999" width="15.449" y="378.45001" x="282.19"/></g><g transform="matrix(.95861 0 0 1.21509 -134.864 -423.721)"><rect style="fill:#3d4248;stroke:#000;stroke-width:1.20809996" rx="0" ry="6.211" height="27.570999" width="15.449" y="378.45001" x="450.63"/><rect style="fill:#3d4248;stroke:#000;stroke-width:1.20809996" rx="0" ry="6.211" height="27.570999" width="15.449" y="378.45001" x="435.48001"/><rect style="fill:#3d4248;stroke:#000;stroke-width:1.20809996" rx="0" ry="6.211" height="27.570999" width="15.449" y="378.45001" x="420.32999"/><rect style="fill:#3d4248;stroke:#000;stroke-width:1.20809996" rx="0" ry="6.211" height="27.570999" width="15.449" y="378.45001" x="405.17999"/><rect style="fill:#3d4248;stroke:#000;stroke-width:1.20809996" rx="0" ry="6.211" height="27.570999" width="15.449" y="378.45001" x="389.76999"/><rect style="fill:#3d4248;stroke:#000;stroke-width:1.20809996" rx="0" ry="6.211" height="27.570999" width="15.449" y="378.45001" x="374.62"/><rect style="fill:#3d4248;stroke:#000;stroke-width:1.20809996" rx="0" ry="6.211" height="27.570999" width="15.449" y="378.45001" x="358.70999"/><rect style="fill:#3d4248;stroke:#000;stroke-width:1.20809996" rx="0" ry="6.211" height="27.570999" width="15.449" y="378.45001" x="343.56"/><rect style="fill:#3d4248;stroke:#000;stroke-width:1.20809996" rx="0" ry="6.211" height="27.570999" width="15.449" y="378.45001" x="327.89999"/><rect style="fill:#3d4248;stroke:#000;stroke-width:1.20809996" rx="0" ry="6.211" height="27.570999" width="15.449" y="378.45001" x="312.75"/><rect style="fill:#3d4248;stroke:#000;stroke-width:1.20809996" rx="0" ry="6.211" height="27.570999" width="15.449" y="378.45001" x="297.59"/><rect style="fill:#3d4248;stroke:#000;stroke-width:.95853001" rx="0" ry="6.2673001" height="27.820999" width="9.6379004" y="378.32999" x="272.97"/><rect style="fill:#3d4248;stroke:#000;stroke-width:.95853001" rx="0" ry="6.2673001" height="27.820999" width="9.6379004" y="378.32999" x="481.82001"/><rect style="fill:#3d4248;stroke:#000;stroke-width:.73175001" rx="0" ry="6.3183999" height="28.047001" width="5.5714998" y="378.20999" x="267.29999"/><rect style="fill:#3d4248;stroke:#000;stroke-width:.73175001" rx="0" ry="6.3183999" height="28.047001" width="5.5714998" y="378.20999" x="492.19"/><rect style="fill:#3d4248;stroke:#000;stroke-width:.5377" rx="0" ry="6.3621001" height="28.240999" width="2.9877" y="378.12" x="264.04999"/><rect style="fill:#3d4248;stroke:#000;stroke-width:.5377" rx="0" ry="6.3621001" height="28.240999" width="2.9877" y="378.12" x="498.03"/><rect style="fill:#3d4248;stroke:#000;stroke-width:1.20809996" rx="0" ry="6.211" height="27.570999" width="15.449" y="378.45001" x="466.54001"/><rect style="fill:#3d4248;stroke:#000;stroke-width:1.20809996" rx="0" ry="6.211" height="27.570999" width="15.449" y="378.45001" x="282.19"/></g><rect style="fill:#adb2b6;stroke:#000;stroke-width:1.64446545" ry="8.5418234" height="102.03822" width="128.91417" y="82.367554" x="130.46992"/><rect style="fill:#adb2b6;stroke:#000;stroke-width:1.07925808" ry="3.341491" height="19.441404" width="5.2723675" y="91.769913" x="259.6333"/><rect style="fill:#adb2b6;stroke:#000;stroke-width:1.07925808" ry="3.341491" height="19.441404" width="5.2723675" y="123.96733" x="259.39368"/><rect style="fill:#adb2b6;stroke:#000;stroke-width:1.07925808" ry="3.341491" height="19.441404" width="5.2723675" y="156.77467" x="260.35226"/><ellipse style="fill:#ffbd0f;stroke:#000" transform="matrix(.61881 0 0 .84887 109.596 -172.83)" cx="259.5" cy="332.11218" rx="8" ry="7.75"/><ellipse style="fill:#ffbd0f;stroke:#000" transform="matrix(.61881 0 0 .84887 109.117 -149.44)" cx="259.5" cy="332.11218" rx="8" ry="7.75"/><ellipse style="fill:#ffbd0f;stroke:#000" transform="matrix(.61881 0 0 .84887 109.117 -126.359)" cx="259.5" cy="332.11218" rx="8" ry="7.75"/><rect style="fill:#ffbd0f;stroke:#000;stroke-width:1.07925808" rx="0" ry="3.341491" height="8.5056133" width="36.427265" y="91.162361" x="291.74683"/><rect style="fill:#ffbd0f;stroke:#000;stroke-width:1.07925808" rx="0" ry="3.341491" height="8.5056133" width="36.427265" y="164.67274" x="291.74683"/><rect style="fill:#ffbd0f;stroke:#000;stroke-width:1.07558846" rx="0" ry="3.3169463" height="81.414513" width="5.7549329" y="91.159927" x="326.73618"/><rect style="fill:#ffbd0f;stroke:#000;stroke-width:1.07925808" rx="0" ry="3.341491" height="64.399651" width="27.320454" y="100.27552" x="298.93643"/><rect style="fill:#ffbd0f;stroke:#000;stroke-width:1.06296635" rx="0" ry="10.958858" height="223.16566" width="25.460054" y="19.352961" x="9.273078"/><rect style="fill:#ffbd0f;stroke:#000;stroke-width:1.2374382" rx="0" ry="10.95086" height="223.00571" width="34.528553" y="19.434544" x="35.397533"/><rect style="fill:#ffbd0f;stroke:#000;stroke-width:.97632962" rx="0" ry="1.3927737" height="28.361282" width="169.01216" y="56.673866" x="69.643188"/><rect style="fill:#ffbd0f;stroke:#000;stroke-width:.97632962" rx="0" ry="1.3927737" height="28.361282" width="169.01216" y="176.83644" x="69.965027"/></g><metadata><rdf:RDF><cc:Work><dc:format>image/svg+xml</dc:format><dc:type rdf:resource="http://purl.org/dc/dcmitype/StillImage"/><cc:license rdf:resource="http://creativecommons.org/publicdomain/zero/1.0/"/><dc:publisher><cc:Agent rdf:about="http://openclipart.org/"><dc:title>Openclipart</dc:title></cc:Agent></dc:publisher><dc:title/><dc:date>2010-04-28T11:09:26</dc:date><dc:description>This is a simple yellow bulldozer (top view).</dc:description><dc:source>https://openclipart.org/detail/57667/simple-yellow-bulldozer-by-system25</dc:source><dc:creator><cc:Agent><dc:title>system25</dc:title></cc:Agent></dc:creator><dc:subject><rdf:Bag><rdf:li>bulldozer</rdf:li><rdf:li>caterpillar</rdf:li><rdf:li>top</rdf:li><rdf:li>yellow</rdf:li></rdf:Bag></dc:subject></cc:Work><cc:License rdf:about="http://creativecommons.org/publicdomain/zero/1.0/"><cc:permits rdf:resource="http://creativecommons.org/ns#Reproduction"/><cc:permits rdf:resource="http://creativecommons.org/ns#Distribution"/><cc:permits rdf:resource="http://creativecommons.org/ns#DerivativeWorks"/></cc:License></rdf:RDF></metadata></svg>