<?xml version="1.0" encoding="UTF-8" standalone="no"?>
<!-- Created with Sodipodi ("http://www.sodipodi.com/") -->

<svg
   xmlns:dc="http://purl.org/dc/elements/1.1/"
   xmlns:cc="http://creativecommons.org/ns#"
   xmlns:rdf="http://www.w3.org/1999/02/22-rdf-syntax-ns#"
   xmlns:svg="http://www.w3.org/2000/svg"
   xmlns="http://www.w3.org/2000/svg"
   xmlns:xlink="http://www.w3.org/1999/xlink"
   xmlns:sodipodi="http://sodipodi.sourceforge.net/DTD/sodipodi-0.dtd"
   xmlns:inkscape="http://www.inkscape.org/namespaces/inkscape"
   id="svg171"
   viewBox="0 0 800 400"
   sodipodi:version="0.32"
   version="1.0"
   inkscape:version="0.92.1 r"
   sodipodi:docname="car10.svg"
   width="800"
   height="400">
  <defs
     id="defs173">
    <linearGradient
       id="linearGradient239">
      <stop
         id="stop240"
         style="stop-color:#d1d1d1;stop-opacity:1;"
         offset="0" />
      <stop
         id="stop241"
         style="stop-color:#ffffff;stop-opacity:1;"
         offset="1" />
    </linearGradient>
    <radialGradient
       inkscape:collect="always"
       xlink:href="#linearGradient239"
       id="radialGradient3063"
       gradientUnits="userSpaceOnUse"
       gradientTransform="matrix(0.65803,0,0,1.5197,-252.14,-111.82)"
       cx="657.76001"
       cy="319.37"
       r="1269.3" />
    <radialGradient
       inkscape:collect="always"
       xlink:href="#linearGradient239"
       id="radialGradient3065"
       gradientUnits="userSpaceOnUse"
       gradientTransform="matrix(0.39086,0,0,3.6334,-343,-162.47)"
       cx="897.23999"
       cy="153.64999"
       r="15.849" />
    <radialGradient
       inkscape:collect="always"
       xlink:href="#linearGradient239"
       id="radialGradient3067"
       gradientUnits="userSpaceOnUse"
       gradientTransform="matrix(-0.39086,0,0,3.6334,703.38,-167.47)"
       cx="897.23999"
       cy="153.64999"
       r="15.849" />
    <radialGradient
       inkscape:collect="always"
       xlink:href="#linearGradient239"
       id="radialGradient3069"
       gradientUnits="userSpaceOnUse"
       gradientTransform="matrix(1.5041,0,0,0.74199,-264.04,-146.71)"
       cx="294.42999"
       cy="598.63"
       r="91.234001" />
    <radialGradient
       inkscape:collect="always"
       xlink:href="#linearGradient239"
       id="radialGradient3071"
       gradientUnits="userSpaceOnUse"
       gradientTransform="matrix(1.1693,0,0,0.93776,-273.1,-147.55)"
       cx="378.79001"
       cy="819.90002"
       r="115.39" />
  </defs>
  <sodipodi:namedview
     id="base"
     inkscape:window-x="0"
     inkscape:window-y="0"
     inkscape:window-maximized="1"
     inkscape:zoom="0.71838386"
     inkscape:current-layer="svg171"
     inkscape:cx="322.42915"
     inkscape:cy="179.80274"
     inkscape:window-width="1888"
     showgrid="false"
     inkscape:window-height="1051"
     fit-margin-top="0"
     fit-margin-left="0"
     fit-margin-right="0"
     fit-margin-bottom="0"
     units="px" />
  <g
     id="g3025"
     transform="matrix(0,1.1146845,-1.0205928,0,799.92468,-4.3585401e-6)">
    <rect
       x="16.287001"
       y="623.03998"
       width="27.775"
       height="78.695999"
       ry="8.5848999"
       rx="8.5848999"
       style="fill:#60585a;fill-rule:evenodd;stroke-width:1.00000003pt"
       id="rect959" />
    <rect
       x="311.29001"
       y="613.03998"
       width="27.775"
       height="78.695999"
       ry="8.5848999"
       rx="8.5848999"
       style="fill:#60585a;fill-rule:evenodd;stroke-width:1.00000003pt"
       id="rect958" />
    <g
       transform="rotate(180,141.325,383.06)"
       style="fill:#4a00ad"
       id="g786">
      <path
         inkscape:connector-curvature="0"
         style="fill:#4a00ad"
         d="m 76.616,699.19 c -5.4727,-0.321 -11.137,-0.388 -16.567,0.34 -3.5734,0.712 -11.473,3.767 -7.655,8.677 5.2454,5.042 14.531,4.269 21.161,3.703 l 0.5137,5.994 c -9.1289,0.75 -20.165,0.992 -26.841,-6.329 -5.9809,-9.521 3.3763,-16.399 12.025,-18.017 5.7819,-0.733 11.564,-0.349 17.362,-0.688 v 6.32 z"
         id="path787" />
      <path
         inkscape:connector-curvature="0"
         transform="matrix(1,0,0,-1,0,1430)"
         style="fill:#4a00ad"
         d="m 76.616,699.19 c -5.4727,-0.321 -11.137,-0.388 -16.567,0.34 -3.5734,0.712 -11.473,3.767 -7.655,8.677 5.2454,5.042 14.531,4.269 21.161,3.703 l 0.5137,5.994 c -9.1289,0.75 -20.165,0.992 -26.841,-6.329 -5.9809,-9.521 3.3763,-16.399 12.025,-18.017 5.7819,-0.733 11.564,-0.349 17.362,-0.688 v 6.32 z"
         id="path788" />
      <path
         inkscape:connector-curvature="0"
         transform="matrix(1.3776,0,0,1.3776,-36.308,-268.33)"
         style="fill:#4a00ad"
         d="m 97.472,715.31 c -1.4986,-0.143 -3.0393,-0.081 -4.5417,-0.089 -1.2715,-0.004 -5.5397,-0.655 -6.3316,0.724 -0.2793,0.983 0.196,2.108 1.022,2.657 2.002,1.029 4.7046,0.505 6.8526,0.402 2.6281,-0.126 6.1922,-0.416 6.9952,2.782 0.249,2.611 -1.378,5.115 -3.4074,6.63 -2.6849,1.651 -5.7413,1.346 -8.7364,0.969 -1.7834,-0.237 -3.5619,-0.51 -5.3498,-0.711 l 0.3288,-2.76 c 1.7937,0.214 3.576,0.511 5.3666,0.748 2.19,0.268 4.7033,0.675 6.7086,-0.491 1.154,-0.815 2.2671,-2.318 2.2757,-3.791 0.0105,-1.097 -3.415,-0.664 -4.039,-0.633 -2.8978,0.155 -6.0482,0.623 -8.678,-0.876 -2.1183,-1.588 -3.0545,-4.623 -1.4109,-6.885 2.1458,-2.038 5.6768,-1.512 8.4036,-1.521 1.5024,-0.007 3.0431,0.055 4.5417,-0.088 z"
         id="path789" />
      <g
         transform="matrix(1.166,0,0,1.0624,-26.21,-45.238)"
         style="fill:#4a00ad"
         id="g790">
        <path
           inkscape:connector-curvature="0"
           style="fill:#4a00ad"
           d="m 109.26,713.84 c 2.054,0.228 4.181,0.138 6.242,0.15 3.888,0.015 7.776,-0.017 11.665,-0.034 0.779,-0.005 1.559,-0.011 2.338,-0.036 v 3.227 c -0.779,-0.026 -1.559,-0.032 -2.338,-0.037 -3.889,-0.017 -7.777,-0.049 -11.665,-0.034 -2.061,0.012 -4.188,-0.078 -6.242,0.15 z"
           id="path791" />
        <path
           inkscape:connector-curvature="0"
           transform="translate(1.3446,0.33612)"
           style="fill:#4a00ad"
           d="m 119.37,715.87 c -0.159,1.242 -0.079,2.551 -0.087,3.798 -0.011,2.488 -0.012,4.976 0.006,7.465 0.012,1.648 0.028,3.296 0.032,4.944 0.001,0.986 -0.002,1.973 -0.004,2.959 h -3.321 c -0.002,-0.986 -0.005,-1.973 -0.003,-2.959 0.003,-1.648 0.019,-3.296 0.031,-4.944 0.018,-2.489 0.018,-4.977 0.007,-7.465 -0.009,-1.247 0.072,-2.556 -0.088,-3.798 z"
           id="path792" />
      </g>
      <g
         style="fill:#4a00ad"
         id="g793">
        <path
           inkscape:connector-curvature="0"
           style="fill:#4a00ad"
           d="m 129.46,713.86 c -0.219,1.706 -0.114,3.502 -0.134,5.217 -0.046,4.31 -0.051,8.621 -0.008,12.932 0.017,1.411 0.038,2.823 0.066,4.234 h -3.275 c 0.027,-1.411 0.049,-2.823 0.066,-4.234 0.043,-4.311 0.037,-8.622 -0.008,-12.932 -0.021,-1.715 0.085,-3.511 -0.134,-5.217 z"
           id="path794" />
        <path
           inkscape:connector-curvature="0"
           style="fill:#4a00ad"
           d="m 127.41,712.83 c 1.41,0.156 2.863,0.074 4.28,0.113 3.027,0.138 5.689,1.021 6.086,4.411 0.091,3.395 -1.772,5.431 -5.069,6.06 -1.547,0.195 -3.059,0.136 -4.605,-0.029 l 0.353,-3.167 c 1.221,0.137 2.422,0.2 3.645,0.051 1.605,-0.296 2.418,-0.88 2.405,-2.576 -0.124,-1.535 -1.597,-1.488 -2.895,-1.55 -1.383,-0.028 -2.821,-0.081 -4.2,0.073 z"
           id="path795" />
        <path
           inkscape:connector-curvature="0"
           style="fill:#4a00ad"
           d="m 128.76,721.9 c 1.223,0.136 2.492,0.072 3.72,0.082 2.638,0.021 5.597,-0.184 7.788,1.535 1.853,1.96 1.215,4.372 0.521,6.696 -0.472,1.573 -0.874,3.118 -0.925,4.767 -0.003,0.322 0,0.641 0.008,0.962 l -3.305,0.084 c -0.01,-0.383 -0.013,-0.765 -0.009,-1.148 0.062,-1.931 0.526,-3.743 1.082,-5.583 0.252,-0.844 0.953,-2.406 0.486,-3.29 -1.116,-1.268 -4.173,-0.813 -5.646,-0.801 -1.228,0.01 -2.497,-0.054 -3.72,0.082 z"
           id="path796" />
        <rect
           x="126.06"
           y="712.84003"
           width="2.3531001"
           height="3.0253999"
           style="fill:#4a00ad;fill-rule:evenodd;stroke-width:1.00000003pt"
           id="rect797" />
      </g>
      <path
         d="m 165.39,724.77 c 0,6.958 -5.196,12.606 -11.598,12.606 -6.402,0 -11.597,-5.648 -11.597,-12.606 0,-6.959 5.195,-12.606 11.597,-12.606 6.402,0 11.598,5.647 11.598,12.606 z m -3.698,-0.322 c 0,4.739 -3.54,8.586 -7.9,8.586 -4.361,0 -7.9,-3.847 -7.9,-8.586 0,-4.741 3.539,-8.587 7.9,-8.587 4.36,0 7.9,3.846 7.9,8.587 z"
         inkscape:connector-curvature="0"
         style="fill:#4a00ad;fill-rule:evenodd;stroke-width:1.00000003pt"
         id="path798" />
    </g>
    <rect
       x="318.79001"
       y="98.038002"
       width="27.775"
       height="78.695999"
       ry="8.5848999"
       rx="8.5848999"
       style="fill:#60585a;fill-rule:evenodd;stroke-width:1.00000003pt"
       id="rect317" />
    <rect
       x="8.6332998"
       y="101.12"
       width="27.775"
       height="78.695999"
       ry="8.5848999"
       rx="8.5848999"
       style="fill:#60585a;fill-rule:evenodd;stroke-width:1.00000003pt"
       id="rect316" />
    <path
       d="M 178.73,782.98 C 65.66,785.342 48.33,765.06 31.62,761.719 14.915,722.943 11.743,395.989 21.765,369.259 29.258,308.719 16.829,298.694 13.078,225.729 5.938,140.516 22.893,187.9 8.639,101.249 30.297,11.033 -10.497,9.196 177.159,0.619 c 172.21,2.401 147.96,10.415 169.61,100.63 -14.254,86.652 2.701,39.268 -4.439,124.48 -3.751,72.961 -16.18,82.986 -8.687,143.53 10.022,26.727 6.85,353.68 -9.855,392.46 -26.153,15.153 -95.459,21.261 -145.07,21.261 z"
       inkscape:connector-curvature="0"
       sodipodi:nodetypes="ccccccccccc"
       style="fill:url(#radialGradient3063);fill-rule:evenodd;stroke:#000000;stroke-width:1.00000003pt"
       id="path184" />
    <path
       d="m 41.537,281.88 c 0,0 21.534,82.442 21.534,82.442 0,0 0,154.58 -3.0758,157.15 -3.0771,2.5759 -27.686,46.372 -27.686,46.372 0,0 6.1517,-280.81 9.2288,-285.97 z"
       inkscape:connector-curvature="0"
       style="fill:url(#radialGradient3065);fill-rule:evenodd"
       id="path272" />
    <path
       d="m 318.84,276.88 c 0,0 -21.534,82.442 -21.534,82.442 0,0 0,154.58 3.0758,157.15 3.0771,2.5759 27.686,46.372 27.686,46.372 0,0 -6.1517,-280.81 -9.2288,-285.97 z"
       inkscape:connector-curvature="0"
       style="fill:url(#radialGradient3067);fill-rule:evenodd"
       id="path274" />
    <path
       d="m 37.198,44.521 c -11.667,18.667 -10.816,196.22 7.851,210.22 18.03,-14.851 122.48,-28.646 142.34,-27.364 20.288,-1.492 99.694,8.055 124.09,22.697 6.577,2.13 19.727,-205.55 1.059,-219.55 C 254.198,14.18 60.528,14.18 37.198,44.514 Z"
       inkscape:connector-curvature="0"
       sodipodi:nodetypes="cccccc"
       style="fill:#ffffff;fill-opacity:1;fill-rule:evenodd;stroke:#000000;stroke-width:1.00000003pt;stroke-opacity:0.45912003"
       id="path230" />
    <path
       d="m 41.764,257.39 c 0,0 65.53,-26.897 138.64,-27.585 65.833,-0.64088 95.565,9.623 135.61,25.019 -4.8534,48.756 -9.7078,94.943 -21.843,110.34 -111.64,-28.23 -118.92,-28.23 -230.56,0 -2.43,-15.39 -24.273,-105.21 -21.846,-107.77 z"
       inkscape:connector-curvature="0"
       sodipodi:nodetypes="cscccc"
       style="fill:url(#radialGradient3069);fill-rule:evenodd"
       id="path275" />
    <path
       d="m 45.51,260.2 c 0,0 63.783,-24.762 134.95,-25.395 64.078,-0.59 93.017,8.859 132,23.033 -4.724,44.885 -9.449,87.405 -21.261,101.58 -108.67,-25.986 -115.75,-25.985 -224.42,10e-4 -2.362,-14.174 -23.623,-96.856 -21.261,-99.218 z"
       inkscape:connector-curvature="0"
       sodipodi:nodetypes="cscccc"
       style="fill:#000000;fill-opacity:0.70439998;fill-rule:evenodd;stroke:#000000;stroke-width:1.00000003pt"
       id="path185" />
    <path
       d="m 75.697,531.43 c -12.369,59.368 -22.263,173.16 -22.263,173.16 19.79,17.316 121.21,24.737 123.69,24.737 7.4212,0 108.84,-7.4212 126.16,-32.158 0,-14.842 -9.8956,-121.21 -19.79,-168.21 -86.579,12.368 -202.84,7.4212 -207.79,2.4734 z"
       inkscape:connector-curvature="0"
       sodipodi:nodetypes="cccccc"
       style="fill:url(#radialGradient3071);fill-rule:evenodd"
       id="path270" />
    <path
       d="m 80.945,536.59 c -11.812,56.695 -21.261,165.36 -21.261,165.36 18.899,16.536 115.75,23.623 118.12,23.623 7.087,0 103.94,-7.087 120.48,-30.71 0,-14.174 -9.45,-115.75 -18.899,-160.64 -82.681,11.811 -193.71,7.087 -198.44,2.362 z"
       inkscape:connector-curvature="0"
       sodipodi:nodetypes="cccccc"
       style="fill:#000000;fill-opacity:0.78615998;fill-rule:evenodd;stroke:#000000;stroke-width:1.00000003pt"
       id="path188" />
    <path
       d="m 321.9,279.09 28.348,2.362 c 0,0 14.174,14.174 4.725,21.261 -9.45,7.087 -33.073,-2.362 -33.073,-2.362 z"
       inkscape:connector-curvature="0"
       style="fill:#ffffff;fill-opacity:1;fill-rule:evenodd;stroke:#000000;stroke-width:1.25;stroke-opacity:0.55345998"
       id="path189" />
    <path
       d="m 36.946,283.82 -28.348,2.362 c 0,0 -14.174,14.174 -4.725,21.261 9.45,7.087 33.073,-2.362 33.073,-2.362 z"
       inkscape:connector-curvature="0"
       style="fill:#ffffff;fill-opacity:1;fill-rule:evenodd;stroke:#000000;stroke-width:1.00000003pt;stroke-opacity:0.54717"
       id="path190" />
    <path
       d="M 52.582,17.025 C 43.559,18.598 33.262,36.023 37.998,38.927 49.279,33.238 71.325,25.421 92.982,23.243 97.268,20.943 103.12,13.887 103.34,12.314 88.454,11.467 62.425,15.089 52.582,17.025 Z"
       inkscape:connector-curvature="0"
       sodipodi:nodetypes="ccccc"
       style="fill:#cfc82e;fill-opacity:0.56603998;fill-rule:evenodd;stroke:#000000;stroke-width:1.08199999pt;stroke-opacity:0.25156998"
       id="path304" />
    <path
       d="m 298.7,12.115 c 9.0231,1.5731 19.32,14.633 14.584,17.537 -11.28,-5.6886 -33.327,-7.5051 -54.984,-9.6837 -4.2855,-2.2999 -10.134,-10.992 -10.36,-12.565 14.888,-0.84719 40.917,2.7754 50.76,4.7115 z"
       inkscape:connector-curvature="0"
       sodipodi:nodetypes="ccccc"
       style="fill:#cfc32e;fill-opacity:0.56603998;fill-rule:evenodd;stroke:#000000;stroke-width:1.08199999pt;stroke-opacity:0.25156998"
       id="path306" />
    <path
       d="M 112.29,10.38 C 149.388,3.833 212.127,4.378 238.86,7.651"
       inkscape:connector-curvature="0"
       sodipodi:nodetypes="cc"
       style="fill:none;stroke:#000000;stroke-width:1.00000003pt;stroke-opacity:0.37106999"
       id="path307" />
    <path
       d="M 112.29,13.108 C 149.388,6.561 212.127,7.106 238.86,10.379"
       inkscape:connector-curvature="0"
       sodipodi:nodetypes="cc"
       style="fill:none;stroke:#000000;stroke-width:1.00000003pt;stroke-opacity:0.37106999"
       id="path308" />
    <path
       d="m 112.29,16.381 c 37.098,-6.547 99.837,-6.002 126.57,-2.729"
       inkscape:connector-curvature="0"
       sodipodi:nodetypes="cc"
       style="fill:none;stroke:#000000;stroke-width:1.00000003pt;stroke-opacity:0.37106999"
       id="path309" />
    <path
       d="m 112.29,20.2 c 37.098,-6.001 98.2,-4.911 124.39,-3.275"
       inkscape:connector-curvature="0"
       sodipodi:nodetypes="cc"
       style="fill:none;stroke:#000000;stroke-width:1.00000003pt;stroke-opacity:0.37106999"
       id="path310" />
    <path
       d="m 43.148,295.63 c 0,0 16.536,75.595 16.536,75.595 0,0 0,141.74 -2.362,144.1 -2.363,2.362 -21.261,42.521 -21.261,42.521 0,0 4.724,-257.49 7.087,-262.22 z"
       inkscape:connector-curvature="0"
       style="fill:#000000;fill-opacity:0.68553946;fill-rule:evenodd;stroke:#000000;stroke-width:1.00000003pt"
       id="path186" />
    <path
       d="m 36.35,310.53 c -2.333,25.667 -14.991,443.45 4.666,443.34 69.856,26.467 221.62,23.584 278.52,-7.0003 17.53,-0.0711 6.999,-417.68 4.666,-443.34"
       inkscape:connector-curvature="0"
       style="fill:none;stroke:#000000;stroke-width:1.00000003pt"
       sodipodi:nodetypes="cccc"
       id="path211" />
    <path
       d="m 317.18,290.91 c 0,0 -16.536,75.595 -16.536,75.595 0,0 0,141.74 2.362,144.1 2.363,2.362 21.261,42.521 21.261,42.521 0,0 -4.724,-257.49 -7.087,-262.22 z"
       inkscape:connector-curvature="0"
       style="fill:#000000;fill-opacity:0.74843002;fill-rule:evenodd;stroke:#000000;stroke-width:1.00000003pt"
       id="path187" />
  </g>
  <metadata
     id="metadata49">
    <rdf:RDF>
      <cc:Work>
        <dc:format>image/svg+xml</dc:format>
        <dc:type
           rdf:resource="http://purl.org/dc/dcmitype/StillImage" />
        <cc:license
           rdf:resource="http://creativecommons.org/publicdomain/zero/1.0/" />
        <dc:publisher>
          <cc:Agent
             rdf:about="http://openclipart.org/">
            <dc:title>Openclipart</dc:title>
          </cc:Agent>
        </dc:publisher>
        <dc:title></dc:title>
        <dc:date>2012-11-14T02:03:21</dc:date>
        <dc:description>Top view of a car</dc:description>
        <dc:source>https://openclipart.org/detail/173138/top-view-xar-by-jonadem-173138</dc:source>
        <dc:creator>
          <cc:Agent>
            <dc:title>jonadem</dc:title>
          </cc:Agent>
        </dc:creator>
        <dc:subject>
          <rdf:Bag>
            <rdf:li>car</rdf:li>
            <rdf:li>top view</rdf:li>
            <rdf:li>transport</rdf:li>
            <rdf:li>vehicle</rdf:li>
          </rdf:Bag>
        </dc:subject>
      </cc:Work>
      <cc:License
         rdf:about="http://creativecommons.org/publicdomain/zero/1.0/">
        <cc:permits
           rdf:resource="http://creativecommons.org/ns#Reproduction" />
        <cc:permits
           rdf:resource="http://creativecommons.org/ns#Distribution" />
        <cc:permits
           rdf:resource="http://creativecommons.org/ns#DerivativeWorks" />
      </cc:License>
    </rdf:RDF>
  </metadata>
</svg>
