<!--Created with Inkscape (http://www.inkscape.org/)--><svg xmlns:dc="http://purl.org/dc/elements/1.1/" xmlns:cc="http://creativecommons.org/ns#" xmlns:rdf="http://www.w3.org/1999/02/22-rdf-syntax-ns#" xmlns="http://www.w3.org/2000/svg" xmlns:xlink="http://www.w3.org/1999/xlink" xmlns:sodipodi="http://sodipodi.sourceforge.net/DTD/sodipodi-0.dtd" xmlns:inkscape="http://www.inkscape.org/namespaces/inkscape" sodipodi:docname="car1.svg" viewBox="0 0 800 400" sodipodi:version="0.32" version="1.0" inkscape:output_extension="org.inkscape.output.svg.inkscape" inkscape:version="0.92.1 r" width="800" height="400"><defs><radialGradient inkscape:collect="always" xlink:href="#a" id="c" gradientUnits="userSpaceOnUse" gradientTransform="matrix(-.66292 0 0 -1.5085 605.54 1006.824)" cx="565.15997" cy="346.26001" r="420.98999"/><radialGradient inkscape:collect="always" xlink:href="#b" id="d" gradientUnits="userSpaceOnUse" gradientTransform="matrix(-1.0195 0 0 -.98091 605.54 1006.824)" cx="537.78998" cy="113.83" fx="538.56" fy="113.43" r="110.57"/><radialGradient inkscape:collect="always" xlink:href="#b" id="e" gradientUnits="userSpaceOnUse" gradientTransform="matrix(-.98293 0 0 -1.0174 605.54 1006.824)" cx="209.53" cy="106.33" fx="208.67999" fy="107.57" r="88.778"/><linearGradient id="a"><stop style="stop-color:#ff0a31" offset="0"/><stop style="stop-color:#c60200" offset="1"/></linearGradient><linearGradient id="b"><stop style="stop-color:#6b5635" offset="0"/><stop style="stop-color:#fff" offset="1"/></linearGradient></defs><sodipodi:namedview bordercolor="#666666" inkscape:pageshadow="2" inkscape:window-y="0" pagecolor="#ffffff" inkscape:window-height="1051" inkscape:zoom="0.43415837" inkscape:window-x="0" showgrid="false" borderopacity="1.0" inkscape:current-layer="g4503" inkscape:cx="359.91933" inkscape:cy="94.331291" inkscape:window-width="1888" inkscape:pageopacity="0.0" fit-margin-top="0" fit-margin-left="0" fit-margin-right="0" fit-margin-bottom="0" inkscape:window-maximized="1" units="px"/><g transform="matrix(0 .86198 -.82375 0 799.64 0)"><path inkscape:connector-curvature="0" sodipodi:nodetypes="ccccccccccccc" style="fill:url(#c);fill-rule:evenodd;stroke:#000;stroke-width:.75" d="M231.35 2.092c175.61 6.158 228.86 30.31 209.41 288.39-3.05 7.13-6.11 14.26-9.16 21.38 3.6 119.1 7.2 238.92 0 357.29 11.69 12.77 6.11 29.86 9.16 44.79 5 38.45 7.12 92.73 2.04 145.57-8.5 118.7-132.17 107.84-202.57 109.93-78.45-1.75-184.26 23.84-213.76-108.92-2.884-61.2-3.604-110.16-.005-177.12 2.714-5.09 5.429-10.17 8.143-15.26-3.277-117.65-7.274-233.14-1.194-357.26-3.599-9.84-7.198-19.68-10.797-29.51-13.196-254.33 36.949-270.4 208.73-279.28z"/><path inkscape:connector-curvature="0" sodipodi:nodetypes="ccccc" style="fill:#bf0000;fill-rule:evenodd;stroke:#000;stroke-width:.75" d="M431.6 98.096c-37.32-74.309-122.49-83.47-203.59-85.506-86.18 3.733-154.04 5.429-197.47 96.7C42.412 74.684 30.876 4.45 229.03.37 408.87 3.768 419.72 51.95 431.6 98.096z"/><path inkscape:connector-curvature="0" sodipodi:nodetypes="ccccc" style="fill:#000;fill-opacity:1;fill-rule:evenodd;stroke:#000;stroke-width:1.00000003pt" d="M62.092 234.5c80.418-91.28 260.59-99.08 338.97 1.02-5.43 47.5-10.86 95-16.28 142.51-73.97-16.63-190.7-34.27-304.36 5.09-6.113-49.54-12.22-99.08-18.328-148.62z"/><path inkscape:connector-curvature="0" sodipodi:nodetypes="ccccc" style="fill:#000;fill-opacity:1;fill-rule:evenodd;stroke:#000;stroke-width:1.00000003pt" d="M93.648 706.82c99.082 10.52 191.03 16.96 278.91-5.09v145.56c-87.2 58.02-192.73 54.97-276.88 3.05-.675-47.84-1.353-95.68-2.032-143.52z"/><path inkscape:connector-curvature="0" sodipodi:nodetypes="ccccc" style="fill:#f81111;fill-opacity:1;fill-rule:nonzero;stroke:#000;stroke-width:1.00000003pt" d="M440.25 292.01c23.24 10.69 27.15 35.63 19.85 41.23-8.14-.85-20.36-12.39-28.5-14.25l-.51-7.13c3.39-6.45 5.77-13.4 9.16-19.85z"/><path inkscape:connector-curvature="0" sodipodi:nodetypes="ccccc" style="fill:#f81111;fill-opacity:1;fill-rule:nonzero;stroke:#000;stroke-width:1.00000003pt" d="M25.21 289.54c-23.691 9.66-28.686 34.4-21.645 40.31 8.173-.49 20.884-11.47 29.102-12.98l.822-7.1c-3.106-6.59-5.173-13.64-8.279-20.23z"/><path inkscape:connector-curvature="0" sodipodi:nodetypes="cccc" style="fill:url(#d);fill-opacity:.75;fill-rule:evenodd" d="M381.72 45.164c-24.94 6.107-20.87 19.34 3.06 39.699 19.51 14.081 31.38 16.457 32.57-5.09-1.7-12.554-30.37-33.252-35.63-34.609z"/><path inkscape:connector-curvature="0" sodipodi:nodetypes="cccc" style="fill:url(#e);fill-opacity:.75;fill-rule:evenodd;stroke:#000;stroke-width:1.00000003pt" d="M83.154 44.172c25.346 4.076 22.356 17.594.157 39.816C65 99.596 53.354 102.92 50.433 81.541c.679-12.65 27.588-35.593 32.721-37.369z"/><path inkscape:connector-curvature="0" sodipodi:nodetypes="ccccc" style="fill:#000;fill-opacity:1;fill-rule:evenodd;stroke:#000;stroke-width:1.00000003pt" d="M49.877 270.13c-9.161 147.26-7.125 283.32-2.036 425.49 4.072 25.11 7.126 51.24 11.197 76.34 12.385-61.92 20.189-192.55 14.251-315.55-5.259-66.17-13.572-123.68-23.412-186.28z"/><path inkscape:connector-curvature="0" sodipodi:nodetypes="ccccc" style="fill:#000;fill-opacity:1;fill-rule:evenodd;stroke:#000;stroke-width:1.00000003pt" d="M417.24 258.62c9.16 147.26 7.13 283.32 2.04 425.49-4.08 25.11-7.13 51.24-11.2 76.35-12.39-61.93-20.19-192.56-14.25-315.56 5.26-66.16 13.57-123.68 23.41-186.28z"/><path inkscape:connector-curvature="0" style="fill:#000;fill-opacity:.58065;fill-rule:evenodd;stroke:#000;stroke-width:1.00000003pt" d="m193.21 897.5 82.77-.72-2.16 8.64-76.3.72z"/><ellipse style="fill:#29007d;fill-rule:evenodd;stroke:#000;stroke-width:1.00000003pt" transform="translate(-142.93 -44.013)" cx="378.24622" cy="965.6283" rx="16.914911" ry="8.9972935"/><path inkscape:connector-curvature="0" sodipodi:nodetypes="cccc" style="fill:red;fill-opacity:.71773999;fill-rule:evenodd;stroke:#000;stroke-width:1.00000003pt" d="M354.44 918.38c5.52-10.08 49.18-28.08 57.58-21.6 6 18-25.43 36.71-38.15 41.03-10.8 0-20.15-8.64-19.43-19.43z"/><path inkscape:connector-curvature="0" sodipodi:nodetypes="cccc" style="fill:red;fill-opacity:.71773999;fill-rule:evenodd;stroke:#000;stroke-width:1.00000003pt" d="M118 920.24c-5.52-10.08-49.183-28.07-57.58-21.59-5.999 17.99 25.432 36.71 38.148 41.02 10.792 0 20.152-8.63 19.432-19.43z"/><path inkscape:connector-curvature="0" sodipodi:nodetypes="cc" style="fill:none;stroke:#000;stroke-width:3.5;stroke-opacity:.64516003" d="M382.51 380.7c-11.52 107.97-12.24 214.49-10.8 316.7"/><path inkscape:connector-curvature="0" sodipodi:nodetypes="cc" style="fill:none;stroke:#000;stroke-width:2.75;stroke-opacity:.66129001" d="M80.92 384.3c9.837 117.8 13.196 217.61 13.676 318.86"/><path inkscape:connector-curvature="0" style="fill:#000;fill-opacity:.75" d="M222.3 686.63c-.46-1.01.24 2.22.44 3.31.4 2.18.89 4.33 1.44 6.47 1.64 6.36 3.81 12.52 6.14 18.64.57 1.44 1.15 2.88 1.73 4.31l-.83.16c-.6-1.44-1.2-2.87-1.79-4.3-3.68-9.03-8.73-18.93-10.62-28.59z"/><path inkscape:connector-curvature="0" sodipodi:nodetypes="ccccc" style="fill:#e1bd23;fill-rule:evenodd;stroke:#000;stroke-width:1.00000003pt" d="M169.45 937.09c-.36 5.64-2.16 10.56-4.32 15.84 47.63 2.63 99.21 3.11 148.28-2.88-3-3.84-4.92-9.12-5.76-15.84-43.91 4.56-91.41 4.8-138.2 2.88z"/><ellipse style="fill:#0a007d;fill-rule:evenodd;stroke:#000;stroke-width:.5" transform="matrix(1 0 0 .86614 -142.6 -33.28)" cx="375.00717" cy="74.536369" rx="18.714369" ry="11.156644"/><path inkscape:connector-curvature="0" style="fill:#fff" transform="scale(1.354 -.73854)" d="M165.31-48.445h1.86l1.35 11.427 1.6-7.561h1.99l1.62 7.58 1.35-11.446h1.86l-2.11 14.077h-1.8l-1.91-8.363-1.9 8.363h-1.81z"/><path inkscape:connector-curvature="0" sodipodi:nodetypes="ccc" style="fill:none;stroke:#000;stroke-width:2.43429995;stroke-opacity:.46773999" d="M61.583 229.32C67.691 92.44 125.71 27.75 231.073 20.8c130.97 3.917 162.19 87.5 169.99 209.06"/><path inkscape:connector-curvature="0" style="fill:#000" transform="scale(1.3386 .74706)" d="M150.49 1269.6v.9h-5.05c0-.2.03-.4.11-.7.13-.3.34-.6.62-1 .28-.3.69-.7 1.23-1.1.83-.7 1.39-1.2 1.68-1.6.29-.4.43-.8.43-1.2 0-.3-.13-.7-.39-.9-.27-.3-.62-.4-1.04-.4-.45 0-.81.1-1.08.4-.28.3-.41.7-.42 1.1l-.96-.1c.07-.7.32-1.2.75-1.6.43-.4 1-.6 1.73-.6s1.31.2 1.74.6c.42.5.64 1 .64 1.6 0 .3-.07.6-.19.9-.13.3-.33.6-.62.9-.29.3-.77.8-1.45 1.3-.56.5-.92.8-1.08 1-.16.2-.29.3-.39.5zm1.15-.9.9-.1c.07.5.22.8.44 1 .21.2.49.3.82.3.29 0 .54-.1.76-.2.22-.2.39-.3.53-.6.14-.2.26-.5.35-.9.1-.3.14-.7.14-1.1v-.2c-.19.3-.45.5-.77.7-.32.2-.68.3-1.05.3-.64 0-1.17-.2-1.61-.7-.43-.4-.65-1-.65-1.8s.23-1.4.68-1.9c.46-.4 1.03-.7 1.72-.7.49 0 .95.2 1.36.4.41.3.72.7.93 1.2.22.5.32 1.2.32 2.1 0 1-.1 1.8-.31 2.4-.22.5-.53 1-.95 1.3-.42.3-.91.4-1.47.4-.6 0-1.08-.1-1.46-.5-.38-.3-.61-.8-.68-1.4zm3.83-3.3c0-.6-.14-1-.43-1.3-.28-.3-.63-.5-1.03-.5-.42 0-.78.2-1.09.5-.31.4-.46.8-.46 1.3s.15.9.44 1.2c.29.3.65.5 1.08.5.44 0 .79-.2 1.07-.5s.42-.7.42-1.2zm1.97 3.1.93-.1c.11.5.29.9.55 1.1.26.2.57.4.95.4.44 0 .81-.2 1.11-.5.31-.3.46-.7.46-1.1 0-.5-.14-.8-.42-1.1-.29-.3-.64-.4-1.08-.4-.17 0-.39 0-.66.1l.11-.8h.15c.4 0 .76-.1 1.07-.3.32-.2.48-.6.48-1 0-.3-.11-.6-.35-.9-.23-.2-.53-.3-.9-.3-.36 0-.66.1-.91.4-.24.2-.4.5-.46 1l-.94-.2c.11-.6.37-1.1.78-1.4.41-.4.91-.6 1.51-.6.42 0 .8.1 1.15.3.35.2.62.4.81.7.18.3.28.7.28 1 0 .3-.09.6-.27.9-.18.3-.44.5-.78.7.45.1.8.3 1.05.6s.37.8.37 1.2c0 .7-.24 1.3-.73 1.7-.48.5-1.1.7-1.84.7-.67 0-1.23-.2-1.67-.6-.44-.4-.69-.9-.75-1.5zm6.06.2.9-.1c.08.5.23.8.44 1 .22.2.49.3.83.3.29 0 .54-.1.76-.2.21-.2.39-.3.53-.6.14-.2.25-.5.35-.9.09-.3.14-.7.14-1.1 0 0 0-.1-.01-.2-.18.3-.44.5-.76.7-.33.2-.68.3-1.06.3-.63 0-1.16-.2-1.6-.7-.44-.4-.66-1-.66-1.8s.23-1.4.69-1.9c.45-.4 1.02-.7 1.71-.7.5 0 .95.2 1.36.4.41.3.73.7.94 1.2.21.5.32 1.2.32 2.1 0 1-.11 1.8-.32 2.4-.21.5-.52 1-.94 1.3-.42.3-.91.4-1.47.4-.6 0-1.09-.1-1.46-.5-.38-.3-.61-.8-.69-1.4zm3.84-3.3c0-.6-.14-1-.43-1.3-.29-.3-.63-.5-1.03-.5-.42 0-.78.2-1.09.5-.31.4-.46.8-.46 1.3s.14.9.44 1.2c.29.3.65.5 1.08.5.43 0 .79-.2 1.07-.5s.42-.7.42-1.2zm1.96 3.1.94-.1c.11.5.29.9.55 1.1.26.2.57.4.94.4.44 0 .81-.2 1.12-.5.3-.3.45-.7.45-1.1 0-.5-.14-.8-.42-1.1-.28-.3-.64-.4-1.07-.4-.18 0-.4 0-.66.1l.1-.8h.15c.4 0 .76-.1 1.08-.3.32-.2.48-.6.48-1 0-.3-.12-.6-.35-.9-.23-.2-.53-.3-.9-.3-.36 0-.67.1-.91.4-.24.2-.4.5-.47 1l-.94-.2c.12-.6.38-1.1.79-1.4.4-.4.91-.6 1.51-.6.42 0 .8.1 1.15.3.35.2.62.4.8.7.19.3.28.7.28 1 0 .3-.09.6-.26.9-.18.3-.44.5-.79.7.45.1.8.3 1.05.6s.38.8.38 1.2c0 .7-.25 1.3-.73 1.7-.49.5-1.1.7-1.84.7-.67 0-1.23-.2-1.67-.6-.44-.4-.7-.9-.76-1.5zm8.43 2 2.93-7.6h1.08l3.13 7.6h-1.15l-.89-2.3h-3.19l-.84 2.3zm2.2-3.1h2.58l-.79-2.1c-.24-.7-.43-1.2-.54-1.6-.1.5-.24.9-.41 1.4zm5.71 3.1v-7.6h2.86c.59 0 1.06 0 1.41.2.35.2.63.4.82.7.2.3.3.7.3 1 0 .3-.08.7-.26.9-.18.3-.45.6-.8.7.46.2.81.4 1.06.7.25.4.37.7.37 1.2 0 .3-.07.7-.22 1-.15.3-.34.5-.56.7-.22.2-.5.3-.84.4-.33.1-.74.1-1.23.1zm1.01-4.4h1.65c.45 0 .77-.1.96-.1.26-.1.45-.2.58-.4.13-.2.2-.4.2-.7 0-.2-.06-.4-.18-.6-.12-.2-.3-.4-.52-.4-.23-.1-.62-.1-1.16-.1h-1.53zm0 3.5h2.59c.23-.1.43-.2.58-.2.16-.1.29-.3.39-.5.1-.2.15-.4.15-.6 0-.3-.08-.5-.22-.8-.15-.2-.35-.3-.61-.4-.26-.1-.63-.1-1.11-.1h-1.77zm13.59-4.9-.93.1c-.08-.4-.2-.6-.36-.8-.25-.3-.56-.4-.93-.4-.3 0-.56.1-.79.3-.29.2-.53.5-.7.9-.17.4-.25 1-.26 1.8.22-.4.5-.6.83-.8.32-.2.66-.3 1.02-.3.63 0 1.16.3 1.6.7.44.5.66 1.1.66 1.8 0 .5-.11.9-.31 1.4-.21.4-.49.7-.85.9-.37.2-.78.3-1.23.3a2.6 2.6 0 0 1-1.91-.8c-.5-.6-.74-1.6-.74-2.9 0-1.4.27-2.5.81-3.2.48-.6 1.12-.9 1.93-.9.6 0 1.09.2 1.47.5.38.4.61.8.69 1.4zm-3.82 3.3c0 .3.06.7.2 1 .14.2.33.5.58.6.24.2.5.3.77.3.4 0 .74-.2 1.02-.5.29-.3.43-.8.43-1.3s-.14-1-.42-1.3c-.28-.3-.64-.4-1.07-.4-.42 0-.78.1-1.07.4-.3.3-.44.7-.44 1.2zm9.82 1.6v.9h-5.05c0-.2.03-.4.11-.7.13-.3.34-.6.62-1 .28-.3.69-.7 1.22-1.1.83-.7 1.39-1.2 1.69-1.6.29-.4.43-.8.43-1.2 0-.3-.13-.7-.4-.9-.26-.3-.61-.4-1.03-.4-.46 0-.82.1-1.09.4-.27.3-.4.7-.41 1.1l-.96-.1c.07-.7.31-1.2.74-1.6.43-.4 1.01-.6 1.74-.6s1.31.2 1.74.6c.42.5.64 1 .64 1.6 0 .3-.07.6-.19.9-.13.3-.33.6-.62.9-.29.3-.78.8-1.45 1.3-.56.5-.92.8-1.08 1-.16.2-.29.3-.4.5z"/><path inkscape:connector-curvature="0" sodipodi:nodetypes="ccc" style="fill:none;stroke:#000;stroke-width:1.625;stroke-opacity:.52419003" d="M406.98 762.9c-4.8 112.29-68.62 181.39-169.87 172.75-86.85 2.88-169.39-50.38-178.5-159.79"/></g><metadata><rdf:RDF><cc:Work><dc:format>image/svg+xml</dc:format><dc:type rdf:resource="http://purl.org/dc/dcmitype/StillImage"/><cc:license rdf:resource="http://creativecommons.org/publicdomain/zero/1.0/"/><dc:publisher><cc:Agent rdf:about="http://openclipart.org/"><dc:title>Openclipart</dc:title></cc:Agent></dc:publisher><dc:title/><dc:date>2006-12-14T15:03:00</dc:date><dc:description/><dc:source>https://openclipart.org/detail/2054/nioubiteul-by-glibersat</dc:source><dc:creator><cc:Agent><dc:title>glibersat</dc:title></cc:Agent></dc:creator><dc:subject><rdf:Bag><rdf:li>car</rdf:li><rdf:li>game</rdf:li><rdf:li>racing</rdf:li><rdf:li>top view</rdf:li><rdf:li>transport</rdf:li><rdf:li>vehicle</rdf:li></rdf:Bag></dc:subject></cc:Work><cc:License rdf:about="http://creativecommons.org/publicdomain/zero/1.0/"><cc:permits rdf:resource="http://creativecommons.org/ns#Reproduction"/><cc:permits rdf:resource="http://creativecommons.org/ns#Distribution"/><cc:permits rdf:resource="http://creativecommons.org/ns#DerivativeWorks"/></cc:License></rdf:RDF></metadata></svg>