<!--Created with Inkscape (http://www.inkscape.org/)--><svg xmlns:dc="http://purl.org/dc/elements/1.1/" xmlns:cc="http://creativecommons.org/ns#" xmlns:rdf="http://www.w3.org/1999/02/22-rdf-syntax-ns#" xmlns="http://www.w3.org/2000/svg" xmlns:xlink="http://www.w3.org/1999/xlink" xmlns:sodipodi="http://sodipodi.sourceforge.net/DTD/sodipodi-0.dtd" xmlns:inkscape="http://www.inkscape.org/namespaces/inkscape" sodipodi:docname="car13.svg" viewBox="0 0 800 400" inkscape:version="0.92.1 r" width="800" height="400"><defs><linearGradient id="g"><stop style="stop-color:#ffffb0" offset="0"/><stop style="stop-color:#ffff94;stop-opacity:0" offset="1"/></linearGradient><linearGradient inkscape:collect="always" xlink:href="#f" id="J" gradientUnits="userSpaceOnUse" gradientTransform="translate(-429.83 -60.401)" x1="484.42001" y1="106.92" x2="480.72" y2="106.92"/><linearGradient id="f" inkscape:collect="always"><stop style="stop-color:#e6e6e6" offset="0"/><stop style="stop-color:#e6e6e6;stop-opacity:0" offset="1"/></linearGradient><linearGradient id="d"><stop style="stop-color:#777" offset="0"/><stop style="stop-color:#ccc" offset="1"/></linearGradient><linearGradient id="e"><stop style="stop-color:#ff0" offset="0"/><stop style="stop-color:#ffff9d" offset="1"/></linearGradient><linearGradient inkscape:collect="always" xlink:href="#f" id="I" gradientUnits="userSpaceOnUse" gradientTransform="translate(-429.83 -60.401)" x1="484.20999" y1="158.63" x2="480.39999" y2="158.35001"/><linearGradient inkscape:collect="always" xlink:href="#f" id="H" gradientUnits="userSpaceOnUse" gradientTransform="translate(-389.84 -36.867)" x1="395.25" y1="136.10001" x2="399.78" y2="135.92999"/><linearGradient id="c" y2="76.311996" gradientUnits="userSpaceOnUse" x2="506.69" gradientTransform="matrix(1 0 0 .79792 -449.91 -44.088)" y1="76.311996" x1="454.47" inkscape:collect="always"><stop style="stop-color:#ececec" offset="0"/><stop style="stop-color:#efefef" offset="1"/></linearGradient><linearGradient inkscape:collect="always" xlink:href="#f" id="G" gradientUnits="userSpaceOnUse" gradientTransform="translate(-389.84 -48.325)" x1="395.25" y1="136.10001" x2="399.78" y2="135.92999"/><linearGradient inkscape:collect="always" xlink:href="#f" id="F" gradientUnits="userSpaceOnUse" gradientTransform="translate(-389.84 -60.325)" x1="395.25" y1="136.10001" x2="399.78" y2="135.92999"/><linearGradient inkscape:collect="always" xlink:href="#f" id="E" gradientUnits="userSpaceOnUse" gradientTransform="translate(-389.84 -72.054)" x1="395.25" y1="136.10001" x2="399.78" y2="135.92999"/><linearGradient inkscape:collect="always" xlink:href="#f" id="D" gradientUnits="userSpaceOnUse" gradientTransform="translate(-389.84 -95.105)" x1="395.25" y1="136.10001" x2="399.78" y2="135.92999"/><linearGradient inkscape:collect="always" xlink:href="#a" id="m" gradientUnits="userSpaceOnUse" gradientTransform="translate(-529.83 -18.401)" spreadMethod="reflect" x1="535.64001" y1="127.25" x2="535.64001" y2="119.79"/><linearGradient inkscape:collect="always" xlink:href="#a" id="n" gradientUnits="userSpaceOnUse" gradientTransform="translate(-529.83 -6.4)" spreadMethod="reflect" x1="535.64001" y1="127.25" x2="535.64001" y2="119.79"/><linearGradient inkscape:collect="always" xlink:href="#a" id="o" gradientUnits="userSpaceOnUse" gradientTransform="translate(-529.83 -88.401)" spreadMethod="reflect" x1="535.64001" y1="127.25" x2="535.64001" y2="119.79"/><linearGradient inkscape:collect="always" xlink:href="#f" id="C" gradientUnits="userSpaceOnUse" gradientTransform="translate(-389.84 -83.479)" x1="395.25" y1="136.10001" x2="399.78" y2="135.92999"/><linearGradient inkscape:collect="always" xlink:href="#c" id="q" gradientUnits="userSpaceOnUse" gradientTransform="matrix(1 0 0 .79792 -449.91 -44.088)" x1="454.47" y1="76.311996" x2="506.69" y2="76.311996"/><linearGradient inkscape:collect="always" xlink:href="#d" id="r" gradientUnits="userSpaceOnUse" gradientTransform="translate(-849.83 -80.401)" x1="880.92999" y1="96.135002" x2="881.08002" y2="101.26"/><linearGradient id="a"><stop style="stop-color:#222" offset="0"/><stop style="stop-color:#444" offset="1"/></linearGradient><linearGradient inkscape:collect="always" xlink:href="#f" id="B" gradientUnits="userSpaceOnUse" gradientTransform="matrix(-1 0 0 1 451.11 -83.479)" x1="395.25" y1="136.10001" x2="399.78" y2="135.92999"/><linearGradient inkscape:collect="always" xlink:href="#f" id="A" gradientUnits="userSpaceOnUse" gradientTransform="matrix(-1 0 0 1 451.11 -60.401)" x1="395.25" y1="136.10001" x2="399.78" y2="135.92999"/><linearGradient inkscape:collect="always" xlink:href="#d" id="v" gradientUnits="userSpaceOnUse" gradientTransform="translate(0 2)" x1="481.48001" y1="167.28999" x2="481.54001" y2="163.42"/><radialGradient inkscape:collect="always" xlink:href="#f" id="w" gradientUnits="userSpaceOnUse" gradientTransform="matrix(.86407 .01482 -.00988 .57607 32.563 55.632)" cx="520.53003" cy="182.99001" r="20.058001"/><radialGradient inkscape:collect="always" xlink:href="#e" id="s" gradientUnits="userSpaceOnUse" gradientTransform="matrix(.13329 -.58453 .76946 .17545 -179.7 504.51)" cx="861.28998" cy="99.247002" r="3.7481999"/><radialGradient inkscape:collect="always" xlink:href="#g" id="y" gradientUnits="userSpaceOnUse" gradientTransform="matrix(-1 0 0 1.0665 510.31 -65.059)" cx="460.07001" cy="70.065002" r="8.9296999"/><radialGradient inkscape:collect="always" xlink:href="#h" id="z" gradientUnits="userSpaceOnUse" gradientTransform="matrix(1.5187 0 0 2.7115 -698.96 -271.87)" cx="480.32001" cy="128.39" r="20.073999"/><radialGradient inkscape:collect="always" xlink:href="#f" id="u" gradientUnits="userSpaceOnUse" gradientTransform="matrix(1.6598 .02552 -.0103 .67022 -1530.3 -68.442)" cx="941.07001" cy="94.305" r="20.058001"/><radialGradient inkscape:collect="always" xlink:href="#e" id="t" gradientUnits="userSpaceOnUse" gradientTransform="matrix(-.13329 -.58453 -.76946 .17545 241 504.51)" cx="861.28998" cy="99.247002" r="3.7481999"/><radialGradient inkscape:collect="always" xlink:href="#b" id="p" gradientUnits="userSpaceOnUse" gradientTransform="matrix(1.775 0 0 4.1672 -1532.2 -525.84)" cx="880.57001" cy="143.42999" r="25.024"/><radialGradient inkscape:collect="always" xlink:href="#g" id="x" gradientUnits="userSpaceOnUse" gradientTransform="matrix(1 0 0 1.0665 -449.83 -65.059)" cx="460.07001" cy="70.065002" r="8.9296999"/><radialGradient id="b" gradientUnits="userSpaceOnUse" cy="143.42999" cx="880.57001" gradientTransform="matrix(1.775 0 0 4.1672 -1532.2 -525.84)" r="25.024" inkscape:collect="always"><stop style="stop-color:#26eab3" offset="0"/><stop style="stop-color:#2699b3" offset="1"/></radialGradient><radialGradient id="h" gradientUnits="userSpaceOnUse" cy="128.39" cx="480.32001" gradientTransform="matrix(1.5187 0 0 2.7115 -698.96 -271.87)" r="20.073999" inkscape:collect="always"><stop style="stop-color:#fff" offset="0"/><stop style="stop-color:#fff;stop-opacity:0" offset="1"/></radialGradient><filter id="l" inkscape:collect="always" style="color-interpolation-filters:sRGB"><feGaussianBlur stdDeviation="1.4151248" inkscape:collect="always"/></filter><filter id="i" height="1.4858" width="1.0955" y="-0.24291" x="-0.047763001" inkscape:collect="always" style="color-interpolation-filters:sRGB"><feGaussianBlur stdDeviation="1.1201443" inkscape:collect="always"/></filter><filter id="j" height="1.4858" width="1.0955" y="-0.24291" x="-0.047763001" inkscape:collect="always" style="color-interpolation-filters:sRGB"><feGaussianBlur stdDeviation="1.1201443" inkscape:collect="always"/></filter><filter id="k" height="1.4858" width="1.0955" y="-0.24291" x="-0.047763001" inkscape:collect="always" style="color-interpolation-filters:sRGB"><feGaussianBlur stdDeviation="1.1201443" inkscape:collect="always"/></filter></defs><sodipodi:namedview inkscape:showpageshadow="false" inkscape:zoom="0.5871581" borderopacity="1" inkscape:current-layer="svg2" inkscape:cx="34.245388" inkscape:guide-bbox="true" inkscape:window-maximized="1" showgrid="false" showguides="true" bordercolor="#666666" inkscape:window-x="0" guidetolerance="10" objecttolerance="10" inkscape:window-y="0" inkscape:window-width="1888" inkscape:pageopacity="0" inkscape:pageshadow="2" pagecolor="#ffffff" gridtolerance="10" inkscape:cy="172.49013" inkscape:window-height="1051" fit-margin-top="0" fit-margin-left="0" fit-margin-right="0" fit-margin-bottom="0" units="px"><sodipodi:guide position="1107.7003,427.9927" orientation="1,0" inkscape:locked="false"/><sodipodi:guide position="1118.6011,431.26294" orientation="0,1" inkscape:locked="false"/><sodipodi:guide position="1313.9581,306.70518" orientation="1,0" inkscape:locked="false"/></sodipodi:namedview><g transform="matrix(0 6.53396 -5.98405 0 803.714 -1.48)"><path inkscape:connector-curvature="0" style="fill:gray;filter:url(#i)" d="M373.58 158.86c-1.381 3.527-1.449 7.548 0 11.067h53.924c1.774-3.52 1.692-7.54 0-11.067h-50.592z" transform="translate(-369.83 -60.401)"/><path d="M373.58 170.86c-1.381 3.527-1.449 7.548 0 11.067h53.924c1.774-3.52 1.692-7.54 0-11.067h-50.592z" inkscape:connector-curvature="0" style="fill:gray;filter:url(#j)" transform="translate(-369.83 -60.401)"/><path d="M373.58 88.856c-1.381 3.527-1.449 7.548 0 11.067h53.924c1.774-3.52 1.692-7.54 0-11.067h-50.592z" inkscape:connector-curvature="0" style="fill:gray;filter:url(#k)" transform="translate(-369.83 -60.401)"/><rect x="5.7184" y="13.101" inkscape:export-xdpi="96" width="50.048" height="117.5" ry="7.9116001" inkscape:export-filename="/home/teles/Imagens/onibus-merda.png" inkscape:export-ydpi="96" style="fill:gray;filter:url(#l)"/><path inkscape:connector-curvature="0" style="fill:url(#m)" d="M3.75 98.455c-1.382 3.527-1.449 7.548 0 11.067h53.924c1.774-3.52 1.692-7.54 0-11.067H7.082z"/><path d="M3.75 110.46c-1.382 3.527-1.449 7.548 0 11.067h53.924c1.774-3.52 1.692-7.54 0-11.067H7.082z" inkscape:connector-curvature="0" style="fill:url(#n)"/><path d="M3.75 28.455c-1.382 3.527-1.449 7.548 0 11.067h53.924c1.774-3.52 1.692-7.54 0-11.067H7.082z" inkscape:connector-curvature="0" style="fill:url(#o)"/><rect x="5.7184" y="13.101" inkscape:export-xdpi="96" width="50.048" height="117.5" ry="7.9116001" inkscape:export-filename="/home/teles/Imagens/onibus-merda.png" inkscape:export-ydpi="96" style="fill:url(#p)"/><path d="M54.196 75.614c-3.465-.363-4.823 10.343 0 10.894 0-1.827-.124-8.72 0-10.894z" inkscape:connector-curvature="0" style="fill:#fff" sodipodi:nodetypes="ccc"/><path d="M12.81 10.919c-4.575 0-8.25 2.933-8.25 6.583v5.186h1.094v-1.82c0-3.497 3.523-6.309 7.906-6.309h34.219c4.383 0 7.906 2.812 7.906 6.31v1.82h1.094v-5.187c0-3.65-3.675-6.583-8.25-6.583z" inkscape:connector-curvature="0" style="fill:url(#q)"/><path inkscape:export-xdpi="96" inkscape:connector-curvature="0" inkscape:export-filename="/home/teles/Imagens/onibus-merda.png" sodipodi:nodetypes="ccccc" inkscape:export-ydpi="96" d="M10.698 21.81c10.78-2.683 21.221-5.718 40.088 0 .085 5.15-.064 10.134 0 14.946-13.363-2.066-26.726-2.717-40.088 0 .115-3.73.05-6.853 0-14.946z" style="fill:url(#r)"/><path inkscape:export-xdpi="96" inkscape:connector-curvature="0" inkscape:export-filename="/home/teles/Imagens/onibus-merda.png" inkscape:export-ydpi="96" d="M11.81 14.728c-2.372 0-4.286 1.552-4.286 3.47 0 .745.284 1.438.779 2.004l6.717-4.305c-.786-.714-1.934-1.169-3.21-1.169z" style="fill:url(#s)"/><path inkscape:export-xdpi="96" inkscape:connector-curvature="0" inkscape:export-filename="/home/teles/Imagens/onibus-merda.png" inkscape:export-ydpi="96" d="M49.489 14.728c2.372 0 4.286 1.552 4.286 3.47 0 .745-.284 1.438-.779 2.004l-6.717-4.305c.786-.714 1.934-1.17 3.21-1.17z" style="fill:url(#t)"/><path inkscape:export-xdpi="96" inkscape:connector-curvature="0" inkscape:export-filename="/home/teles/Imagens/onibus-merda.png" sodipodi:nodetypes="ccccc" inkscape:export-ydpi="96" d="M10.698 22.869c10.78-2.683 21.221-5.718 40.088 0 .085 5.15-.064 10.134 0 14.946-13.363-2.066-26.726-2.717-40.088 0 .115-3.73.05-6.853 0-14.946z" style="fill:#fff"/><path inkscape:export-xdpi="96" inkscape:connector-curvature="0" inkscape:export-filename="/home/teles/Imagens/onibus-merda.png" sodipodi:nodetypes="ccccc" inkscape:export-ydpi="96" d="M10.698 22.869c10.78-2.683 21.221-5.718 40.088 0 .085 5.15-.064 10.134 0 14.946-13.363-2.066-26.726-2.717-40.088 0 .115-3.73.05-6.853 0-14.946z" style="fill:url(#u)"/><path inkscape:export-xdpi="96" inkscape:connector-curvature="0" inkscape:export-filename="/home/teles/Imagens/onibus-merda.png" sodipodi:nodetypes="ccccc" inkscape:export-ydpi="96" d="M460.53 167.77c10.78 1.359 21.221 2.896 40.088 0 .085-2.609-.064-5.133 0-7.57-13.363 1.046-26.726 1.376-40.088 0 .115 1.889.05 3.47 0 7.57z" style="fill:url(#v)" transform="translate(-449.83 -44.401)"/><path inkscape:export-xdpi="96" inkscape:connector-curvature="0" inkscape:export-filename="/home/teles/Imagens/onibus-merda.png" sodipodi:nodetypes="ccccc" inkscape:export-ydpi="96" d="M460.53 166.89c10.78 1.359 21.221 2.896 40.088 0 .085-2.609-.064-5.133 0-7.57-13.363 1.046-26.726 1.376-40.088 0 .115 1.889.05 3.47 0 7.57z" style="fill:#fff" transform="translate(-449.83 -44.401)"/><path inkscape:export-xdpi="96" inkscape:connector-curvature="0" inkscape:export-filename="/home/teles/Imagens/onibus-merda.png" sodipodi:nodetypes="ccccc" inkscape:export-ydpi="96" d="M460.53 166.89c10.78 1.359 21.221 2.896 40.088 0 .085-2.609-.064-5.133 0-7.57-13.363 2.68-26.726 2.218-40.088 0 .115 1.889.05 3.47 0 7.57z" style="fill:url(#w)" transform="translate(-449.83 -44.401)"/><path d="M8.696 18.687 1.81 1.59 18.669.64l-5.224 17.81z" inkscape:connector-curvature="0" style="fill:url(#x)"/><path inkscape:connector-curvature="0" style="fill:url(#y)" d="M51.783 18.687 58.669 1.59 41.81.64l5.224 17.81z"/><path d="M10.411 40.346c11.902-2.943 25.025-3.46 40.147 0-4.095 27.053-2.222 50.752 0 73.034-13.382 1.409-26.765 1.788-40.147 0 2.367-20.668 3.992-42.125 0-73.034z" inkscape:connector-curvature="0" style="opacity:.88356;fill:url(#z)" sodipodi:nodetypes="ccccc"/><path d="M3.574 122.66v2.113c0 3.508 3.817 6.34 8.563 6.34h37.062c4.745 0 8.53-2.832 8.53-6.34v-2.113h-1.968v.023c0 1.778-1.052 3.36-2.719 4.435-.26-.306-.755-.51-1.28-.51H9.791c-.546 0-.995.23-1.25.557-1.716-1.076-2.812-2.674-2.812-4.482v-.023H3.573z" inkscape:connector-curvature="0" style="fill:#ececec"/><rect x="23.513" y="127.85" width="14.279" height="2.7669001" ry="0" style="fill:#ccc"/><path d="M14.745 127.43c.168 2.243-3.6 2.994-4.352.897-.9-1.773 1.537-4.007 3.194-2.83.687.371 1.25 1.12 1.158 1.933z" inkscape:connector-curvature="0" style="fill:red"/><path d="M52.12 127.43c.164 2.22-3.43 3.132-4.411 1.172-1.26-1.79 1.315-4.5 3.143-3.224.745.381 1.366 1.178 1.268 2.052z" inkscape:connector-curvature="0" style="fill:red"/><path inkscape:connector-curvature="0" style="fill:#fff" sodipodi:nodetypes="ccc" d="M7.067 75.614c3.466-.363 4.824 10.343 0 10.894 0-1.827.124-8.72 0-10.894z"/><path d="M7.067 64.101c3.466-.363 4.824 10.343 0 10.894 0-1.827.124-8.72 0-10.894z" inkscape:connector-curvature="0" style="fill:#fff" sodipodi:nodetypes="ccc"/><path d="M7.067 52.587c3.466-.363 4.824 10.343 0 10.894 0-1.827.124-8.72 0-10.894z" inkscape:connector-curvature="0" style="fill:#fff" sodipodi:nodetypes="ccc"/><path inkscape:connector-curvature="0" style="fill:#fff" sodipodi:nodetypes="ccc" d="M7.067 41.074c3.466-.363 4.824 10.343 0 10.894 0-1.827.124-8.72 0-10.894z"/><path d="M7.067 99.102c3.466-.363 4.824 10.343 0 10.894 0-1.827.124-8.72 0-10.894z" inkscape:connector-curvature="0" style="fill:#fff" sodipodi:nodetypes="ccc"/><path inkscape:connector-curvature="0" style="fill:#fff" sodipodi:nodetypes="ccc" d="M7.067 87.333c3.466-.363 4.824 10.343 0 10.894 0-1.827.124-8.72 0-10.894z"/><path inkscape:connector-curvature="0" style="fill:#fff" sodipodi:nodetypes="ccc" d="M54.196 64.101c-3.465-.363-4.823 10.343 0 10.894 0-1.827-.124-8.72 0-10.894z"/><path d="M53.887 64.099c-3.225.299-4.36 10.372.313 10.906 0-1.827-.124-8.732 0-10.906a1.525 1.525 0 0 0-.313 0zm0 11.5c-3.225.299-4.36 10.372.313 10.906 0-1.827-.124-8.732 0-10.906a1.525 1.525 0 0 0-.313 0zm0 11.719c-.056.005-.102.02-.156.031h.468v-.031a1.525 1.525 0 0 0-.312 0z" inkscape:connector-curvature="0" style="fill:url(#A)"/><path d="M52.89 87.224c-1.052 0-1.9 1.757-1.9 3.938v12.5c0 2.18.848 3.937 1.9 3.937h.392V87.224z" inkscape:connector-curvature="0" style="fill:#fff"/><path d="M53.637 87.287v20.375h.688V87.287z" inkscape:connector-curvature="0" style="fill:#fff"/><path d="M53.33 41.074c-2.506-.363-3.487 10.343 0 10.894 0-1.827-.09-8.72 0-10.894z" inkscape:connector-curvature="0" style="fill:#fff" sodipodi:nodetypes="ccc"/><path inkscape:connector-curvature="0" style="fill:#fff" sodipodi:nodetypes="ccc" d="M54.196 52.604c-3.465-.363-4.823 10.343 0 10.894 0-1.827-.124-8.72 0-10.894z"/><path d="M53.637 41.071v10.91h.688v-10.91z" inkscape:connector-curvature="0" style="fill:#fff"/><path d="M53.887 52.537c-3.225.299-4.36 10.372.313 10.906 0-1.827-.124-8.732 0-10.906a1.525 1.525 0 0 0-.313 0zm0 11.719c-.056.005-.102.02-.156.031h.468v-.031a1.525 1.525 0 0 0-.312 0z" inkscape:connector-curvature="0" style="fill:url(#B)"/><path d="M7.386 52.537c3.225.299 4.36 10.372-.313 10.906 0-1.827.124-8.732 0-10.906.109-.011.209-.01.313 0zm0 11.719c.056.005.102.02.156.031h-.469v-.031c.109-.011.209-.01.313 0z" inkscape:connector-curvature="0" style="fill:url(#C)"/><path d="M7.386 40.91c3.225.299 4.36 10.372-.313 10.906 0-1.827.124-8.732 0-10.906.109-.011.209-.01.313 0zm0 11.719c.056.005.102.02.156.031h-.469v-.031c.109-.011.209-.01.313 0z" inkscape:connector-curvature="0" style="fill:url(#D)"/><path d="M7.386 63.961c3.225.299 4.36 10.372-.313 10.906 0-1.827.124-8.732 0-10.906.109-.011.209-.01.313 0zm0 11.719c.056.005.102.02.156.031h-.469v-.031c.109-.011.209-.01.313 0z" inkscape:connector-curvature="0" style="fill:url(#E)"/><path d="M7.386 75.69c3.225.299 4.36 10.372-.313 10.906 0-1.827.124-8.732 0-10.906.109-.011.209-.01.313 0zm0 11.719c.056.005.102.02.156.031h-.469v-.031c.109-.011.209-.01.313 0z" inkscape:connector-curvature="0" style="fill:url(#F)"/><path d="M7.386 87.69c3.225.299 4.36 10.372-.313 10.906 0-1.827.124-8.732 0-10.906.109-.011.209-.01.313 0zm0 11.719c.056.005.102.02.156.031h-.469v-.031c.109-.011.209-.01.313 0z" inkscape:connector-curvature="0" style="fill:url(#G)"/><path d="M7.386 99.148c3.225.299 4.36 10.372-.313 10.906 0-1.827.124-8.732 0-10.906.109-.011.209-.01.313 0zm0 11.719c.056.005.102.02.156.031h-.469v-.031c.109-.011.209-.01.313 0z" inkscape:connector-curvature="0" style="fill:url(#H)"/><path inkscape:connector-curvature="0" style="fill:url(#I)" d="M52.89 87.224c-1.052 0-1.9 1.757-1.9 3.938v12.5c0 2.18.848 3.937 1.9 3.937h.392V87.224z"/><path inkscape:connector-curvature="0" style="fill:url(#J)" sodipodi:nodetypes="ccc" d="M53.33 41.074c-2.506-.363-3.487 10.343 0 10.894 0-1.827-.09-8.72 0-10.894z"/></g><metadata><rdf:RDF><cc:Work><dc:format>image/svg+xml</dc:format><dc:type rdf:resource="http://purl.org/dc/dcmitype/StillImage"/><cc:license rdf:resource="http://creativecommons.org/publicdomain/zero/1.0/"/><dc:publisher><cc:Agent rdf:about="http://openclipart.org/"><dc:title>Openclipart</dc:title></cc:Agent></dc:publisher><dc:title/><dc:date>2011-08-02T01:58:41</dc:date><dc:description>A bus from the top</dc:description><dc:source>https://openclipart.org/detail/153169/bus-by-cliparteles</dc:source><dc:creator><cc:Agent><dc:title>cliparteles</dc:title></cc:Agent></dc:creator><dc:subject><rdf:Bag><rdf:li>bus</rdf:li><rdf:li>car</rdf:li><rdf:li>onibus</rdf:li></rdf:Bag></dc:subject></cc:Work><cc:License rdf:about="http://creativecommons.org/publicdomain/zero/1.0/"><cc:permits rdf:resource="http://creativecommons.org/ns#Reproduction"/><cc:permits rdf:resource="http://creativecommons.org/ns#Distribution"/><cc:permits rdf:resource="http://creativecommons.org/ns#DerivativeWorks"/></cc:License></rdf:RDF></metadata></svg>