<!--Created with Inkscape (http://www.inkscape.org/)--><svg xmlns:dc="http://purl.org/dc/elements/1.1/" xmlns:cc="http://creativecommons.org/ns#" xmlns:rdf="http://www.w3.org/1999/02/22-rdf-syntax-ns#" xmlns="http://www.w3.org/2000/svg" xmlns:xlink="http://www.w3.org/1999/xlink" xmlns:sodipodi="http://sodipodi.sourceforge.net/DTD/sodipodi-0.dtd" xmlns:inkscape="http://www.inkscape.org/namespaces/inkscape" width="53.157116" height="18.715107" inkscape:version="0.91 r13725" sodipodi:docname="truck3.svg"><defs><radialGradient r="5.9295697" fy="29.893513" fx="351.02802" cy="29.893513" cx="351.02802" gradientTransform="matrix(2.02494 .25667 -.06334 .4929 -526.357 557.281)" gradientUnits="userSpaceOnUse" id="h" xlink:href="#a" inkscape:collect="always"/><radialGradient r="5.9295697" fy="29.893513" fx="351.02802" cy="29.893513" cx="351.02802" gradientTransform="matrix(2.02494 .25667 -.06334 .4929 -526.357 542.465)" gradientUnits="userSpaceOnUse" id="g" xlink:href="#a" inkscape:collect="always"/><radialGradient r="5.9295697" fy="29.893513" fx="351.02802" cy="29.893513" cx="351.02802" gradientTransform="matrix(2.02494 .25667 -.06334 .4929 -534.685 557.281)" gradientUnits="userSpaceOnUse" id="f" xlink:href="#a" inkscape:collect="always"/><radialGradient r="5.9295697" fy="29.893513" fx="351.02802" cy="29.893513" cx="351.02802" gradientTransform="matrix(2.02494 .25667 -.06334 .4929 -534.685 542.465)" gradientUnits="userSpaceOnUse" id="e" xlink:href="#a" inkscape:collect="always"/><radialGradient r="5.9295697" fy="29.893513" fx="351.02802" cy="29.893513" cx="351.02802" gradientTransform="matrix(2.02494 .25667 -.06334 .4929 -496.979 542.465)" gradientUnits="userSpaceOnUse" id="d" xlink:href="#a" inkscape:collect="always"/><radialGradient r="5.9295697" fy="29.893513" fx="351.02802" cy="29.893513" cx="351.02802" gradientTransform="matrix(2.02494 .25667 -.06334 .4929 -496.978 557.281)" gradientUnits="userSpaceOnUse" id="c" xlink:href="#a" inkscape:collect="always"/><linearGradient id="a" inkscape:collect="always"><stop style="stop-color:#d3d7cf" offset="0"/><stop style="stop-color:#888a85" offset="1"/></linearGradient><linearGradient y2="430.67999" x2="5.3032999" y1="428.95999" x1="6.5225" spreadMethod="reflect" gradientTransform="matrix(.83257 -.42952 .44544 .8028 3.435 319.09)" gradientUnits="userSpaceOnUse" id="b" xlink:href="#a" inkscape:collect="always"/></defs><sodipodi:namedview pagecolor="#ffffff" bordercolor="#666666" borderopacity="1.0" inkscape:pageopacity="0.0" inkscape:pageshadow="2" inkscape:zoom="11.2" inkscape:cx="30.987417" inkscape:cy="13.727748" inkscape:document-units="px" inkscape:current-layer="layer1" showgrid="false" fit-margin-top="0.5" fit-margin-left="0" fit-margin-right="0" fit-margin-bottom="0.5" borderlayer="true" inkscape:window-width="1440" inkscape:window-height="807" inkscape:window-x="0" inkscape:window-y="35" inkscape:window-maximized="1"/><metadata><rdf:RDF><cc:Work><dc:format>image/svg+xml</dc:format><dc:type rdf:resource="http://purl.org/dc/dcmitype/StillImage"/><dc:title/></cc:Work></rdf:RDF></metadata><g inkscape:label="Layer 1" inkscape:groupmode="layer" transform="translate(-164.85 -645.862)"><path inkscape:connector-curvature="0" d="M197.313 659.755a1.916 1.916 0 0 0-.529.438c-.7.744-.94 1.972-.526 2.718.263.474.715.633 1.19.523l6 .178 1.209-3.784-6.697-.18-.038-.011a1.377 1.377 0 0 0-.61.118z" style="fill:url(#b);stroke:#000;stroke-width:.46360227;stroke-linecap:round;stroke-linejoin:round" sodipodi:nodetypes="csscccccc"/><path sodipodi:cx="107.47261" sodipodi:cy="374.48795" transform="matrix(.26369 -.48146 .17484 .5374 109.86 512.149)" d="M110.36 374.488a2.887 2.587 0 0 1-2.887 2.587 2.887 2.587 0 0 1-2.887-2.587 2.887 2.587 0 0 1 2.887-2.587 2.887 2.587 0 0 1 2.886 2.587z" sodipodi:type="arc" style="fill:#555753;stroke:#000;stroke-width:.76503003;stroke-linecap:round;stroke-linejoin:round" sodipodi:ry="2.587275" sodipodi:rx="2.8865552"/><rect style="fill:url(#c);fill-opacity:1;fill-rule:nonzero;stroke:#000;stroke-width:.38964772;stroke-linecap:butt;stroke-linejoin:miter;stroke-miterlimit:4;stroke-opacity:1;stroke-dasharray:none" width="6.5836973" height="2.5091133" x="208.59357" y="661.37292" ry="0.57120454" rx="0.57120454"/><rect style="fill:url(#d);fill-opacity:1;fill-rule:nonzero;stroke:#000;stroke-width:.38964772;stroke-linecap:butt;stroke-linejoin:miter;stroke-miterlimit:4;stroke-opacity:1;stroke-dasharray:none" width="6.5836973" height="2.5091133" x="208.59357" y="646.55658" ry="0.57120454" rx="0.57120454"/><rect style="fill:url(#e);fill-opacity:1;fill-rule:nonzero;stroke:#000;stroke-width:.38964772;stroke-linecap:butt;stroke-linejoin:miter;stroke-miterlimit:4;stroke-opacity:1;stroke-dasharray:none" width="6.5836973" height="2.5091133" x="170.88666" y="646.55658" ry="0.57120454" rx="0.57120454"/><rect style="fill:url(#f);fill-opacity:1;fill-rule:nonzero;stroke:#000;stroke-width:.38964772;stroke-linecap:butt;stroke-linejoin:miter;stroke-miterlimit:4;stroke-opacity:1;stroke-dasharray:none" width="6.5836973" height="2.5091133" x="170.88666" y="661.37292" ry="0.57120454" rx="0.57120454"/><rect style="fill:url(#g);fill-opacity:1;fill-rule:nonzero;stroke:#000;stroke-width:.38964772;stroke-linecap:butt;stroke-linejoin:miter;stroke-miterlimit:4;stroke-opacity:1;stroke-dasharray:none" width="6.5836973" height="2.5091133" x="179.21545" y="646.55658" ry="0.57120454" rx="0.57120454"/><rect style="fill:url(#h);fill-opacity:1;fill-rule:nonzero;stroke:#000;stroke-width:.38964772;stroke-linecap:butt;stroke-linejoin:miter;stroke-miterlimit:4;stroke-opacity:1;stroke-dasharray:none" width="6.5836973" height="2.5091133" x="179.21545" y="661.37292" ry="0.57120454" rx="0.57120454"/><path inkscape:connector-curvature="0" d="m207.113 647.877.101 14.214 9.039-.045-.101-14.214-9.04.045z" style="fill:#9fa09c;fill-opacity:1;fill-rule:evenodd;stroke:#000;stroke-width:.43027592;stroke-linejoin:bevel" sodipodi:nodetypes="ccccc"/><path inkscape:connector-curvature="0" d="m217.775 650.55-1.52-2.827.02 14.502 1.482-3.099.128-7.836z" style="fill:#729fcf;fill-rule:evenodd;stroke:#000;stroke-width:.24491981;stroke-linejoin:bevel" sodipodi:nodetypes="cccccc"/><path sodipodi:cx="107.47261" sodipodi:cy="374.48795" transform="matrix(.21925 -.20682 .14537 .23085 137.388 596.782)" d="M110.36 374.488a2.887 2.587 0 0 1-2.887 2.587 2.887 2.587 0 0 1-2.887-2.587 2.887 2.587 0 0 1 2.887-2.587 2.887 2.587 0 0 1 2.886 2.587z" sodipodi:type="arc" style="fill:#d3d7cf" sodipodi:ry="2.587275" sodipodi:rx="2.8865552"/><path sodipodi:cx="107.47261" sodipodi:cy="374.48795" transform="matrix(.14734 -.13899 .0977 .15514 162.97 617.846)" d="M110.36 374.488a2.887 2.587 0 0 1-2.887 2.587 2.887 2.587 0 0 1-2.887-2.587 2.887 2.587 0 0 1 2.887-2.587 2.887 2.587 0 0 1 2.886 2.587z" sodipodi:type="arc" style="fill:#f57900" sodipodi:ry="2.587275" sodipodi:rx="2.8865552"/><path sodipodi:cx="107.47261" sodipodi:cy="374.48795" transform="matrix(.04897 -.0462 .03247 .05156 197.706 646.66)" d="M110.36 374.488a2.887 2.587 0 0 1-2.887 2.587 2.887 2.587 0 0 1-2.887-2.587 2.887 2.587 0 0 1 2.887-2.587 2.887 2.587 0 0 1 2.886 2.587z" sodipodi:type="arc" style="fill:#fff" sodipodi:ry="2.587275" sodipodi:rx="2.8865552"/><path sodipodi:cx="107.47261" sodipodi:cy="374.48795" transform="matrix(.21925 -.20682 .14537 .23085 137.493 584.414)" d="M110.36 374.488a2.887 2.587 0 0 1-2.887 2.587 2.887 2.587 0 0 1-2.887-2.587 2.887 2.587 0 0 1 2.887-2.587 2.887 2.587 0 0 1 2.886 2.587z" sodipodi:type="arc" style="fill:#d3d7cf" sodipodi:ry="2.587275" sodipodi:rx="2.8865552"/><path sodipodi:cx="107.47261" sodipodi:cy="374.48795" transform="matrix(.14734 -.13899 .0977 .15514 163.076 605.478)" d="M110.36 374.488a2.887 2.587 0 0 1-2.887 2.587 2.887 2.587 0 0 1-2.887-2.587 2.887 2.587 0 0 1 2.887-2.587 2.887 2.587 0 0 1 2.886 2.587z" sodipodi:type="arc" style="fill:#f57900" sodipodi:ry="2.587275" sodipodi:rx="2.8865552"/><path sodipodi:cx="107.47261" sodipodi:cy="374.48795" transform="matrix(.04897 -.0462 .03247 .05156 197.812 634.293)" d="M110.36 374.488a2.887 2.587 0 0 1-2.887 2.587 2.887 2.587 0 0 1-2.887-2.587 2.887 2.587 0 0 1 2.887-2.587 2.887 2.587 0 0 1 2.886 2.587z" sodipodi:type="arc" style="fill:#fff" sodipodi:ry="2.587275" sodipodi:rx="2.8865552"/><path inkscape:connector-curvature="0" d="m216.618 659.655.334-.616.23-7.485-.595 1.233.031 6.868z" style="fill:#fff;fill-rule:evenodd" sodipodi:nodetypes="ccccc"/><path inkscape:connector-curvature="0" d="m167.159 648.237.322 13.61 38.501-.08-.329-13.606-38.494.076z" style="fill:#e8e8e6;fill-opacity:1;fill-rule:evenodd;stroke:#000;stroke-width:.49077588;stroke-linecap:round;stroke-linejoin:bevel" sodipodi:nodetypes="ccccc"/><path inkscape:connector-curvature="0" d="M171.813 660.395s-2.4-.076-2.56.09c-.16.167-.052 1.264-.052 1.264l2.534.01.078-1.364z" style="fill:#d3d7cf;fill-rule:evenodd;stroke:#000;stroke-width:.49077588;stroke-linejoin:bevel" sodipodi:nodetypes="cscccc"/><path inkscape:connector-curvature="0" d="M200.782 661.623s2.4.09 2.56-.076c.162-.166.062-1.264.062-1.264l-2.534-.024-.088 1.364z" style="fill:#d3d7cf;fill-rule:evenodd;stroke:#000;stroke-width:.49077588;stroke-linejoin:bevel" sodipodi:nodetypes="cscccc"/><path inkscape:connector-curvature="0" d="M201.304 649.557s2.4.09 2.56-.076c.162-.165.062-1.263.062-1.263l-2.534-.024-.088 1.364z" style="fill:#d3d7cf;fill-rule:evenodd;stroke:#000;stroke-width:.49077588;stroke-linejoin:bevel" sodipodi:nodetypes="cscccc"/><path inkscape:connector-curvature="0" d="M170.993 649.627s2.4.09 2.561-.076c.161-.166.061-1.264.061-1.264l-2.534-.024-.088 1.364z" style="fill:#d3d7cf;fill-rule:evenodd;stroke:#000;stroke-width:.49077588;stroke-linejoin:bevel" sodipodi:nodetypes="cscccc"/><g><path inkscape:connector-curvature="0" d="M311.488 403.55c-.924.01-2.001.678-2.72 1.77-.947 1.453-.894 3.134.122 3.73l15.774 10.009 14.655 8.925 5.338-5.28-16.488-10.409c-5.36-2.671-10.768-5.372-15.818-8.534a1.499 1.499 0 0 0-.863-.21z" style="fill:#c17d11;fill-rule:evenodd;stroke:#000;stroke-width:.49448571" sodipodi:nodetypes="csccccccc" transform="matrix(.87747 .41602 .50682 -.67306 -311.04 796.277)"/><path sodipodi:cx="136.67287" sodipodi:cy="261.99792" transform="matrix(.01274 .25543 -.20148 -.01143 256.122 620.29)" d="M148.59 261.998a11.916 8.042 0 0 1-11.917 8.042 11.916 8.042 0 0 1-11.916-8.042 11.916 8.042 0 0 1 11.916-8.042 11.916 8.042 0 0 1 11.916 8.042z" sodipodi:type="arc" style="fill:#8f5902;stroke:#000;stroke-width:1.42250001;stroke-linejoin:bevel" sodipodi:ry="8.0419703" sodipodi:rx="11.916239"/><path inkscape:connector-curvature="0" d="M309.72 408.1c2.21 1.35 4.2 3.11 6.7 3.94 4.17 1.91 11.33 5.15 15.13 7.78 2.01 1.2 3.94 2.53 5.87 3.84.47.2 2.25 1.19 1.38 1.41-1.6-.49-2.76-1.81-4.2-2.62-2.67-1.74-5.35-3.47-8.16-4.96-3.52-1.66-9.96-4.74-13.44-6.47-.95-1.06-2.77-1.22-3.27-2.67l-.01-.25z" style="opacity:.42254004;fill:#8f5902" sodipodi:nodetypes="ccccccccccc" transform="matrix(.87747 .41602 .50682 -.67306 -311.04 796.277)"/><path inkscape:connector-curvature="0" d="M325.71 418.33c3.5 1.59 6.54 4 9.91 5.82 1.26.85 2.47 1.77 3.85 2.41-1.38.87-2.38-1.05-3.56-1.51-2.92-1.88-5.97-3.56-8.86-5.48-.4-.25-2-.52-1.34-1.24z" style="opacity:.42254004;fill:#8f5902" transform="matrix(.87747 .41602 .50682 -.67306 -311.04 796.277)"/><path inkscape:connector-curvature="0" d="M311.02 405.77c3.73 1.83 9.64 5.79 13.32 7.7 3.12 1.76 6.1 3.76 8.88 6 2.22 1.37 4.25 3.04 6.4 4.51.6.34 2.23 1.01 1.88 1.62-1.58-.22-2.51-1.69-3.91-2.31-2.52-1.99-5.3-3.64-7.79-5.68-3.67-2.67-7.76-4.68-11.62-7.04-1.58-.95-5.75-3.36-7.31-4.32-.2-.16-.07-.43.15-.48z" style="opacity:.42254004;fill:#8f5902" sodipodi:nodetypes="cccccccccc" transform="matrix(.87747 .41602 .50682 -.67306 -311.04 796.277)"/><path inkscape:connector-curvature="0" d="M312.04 405.5c2.77 2.09 9.03 6.53 12.1 8.15 4.37 2.05 9.19 3.26 13.13 6.17 1.43.95 2.91 1.83 4.35 2.77-.16 1.19-1.74-.5-2.29-.8-3.11-1.87-6.05-4.15-9.57-5.21-4.39-1.64-11.97-6.29-15.79-9.04-.61-.41-2.68-1.12-1.93-2.04z" style="opacity:.42254004;fill:#e9b96e" sodipodi:nodetypes="cccccccc" transform="matrix(.87747 .41602 .50682 -.67306 -311.04 796.277)"/><path inkscape:connector-curvature="0" d="M313 405.52c5.85 3.82 15.41 8.91 21.62 12.1.62-.02 2.13 1.28.76 1.15-1.02-.6-2.06-1.24-3.14-1.78-3.83-1.95-11-5.77-14.68-7.99-1.71-.99-3.4-2.02-5.06-3.1.17-.13.33-.26.5-.38z" style="opacity:.42254004;fill:#e9b96e" sodipodi:nodetypes="ccccccc" transform="matrix(.87747 .41602 .50682 -.67306 -311.04 796.277)"/><path inkscape:connector-curvature="0" d="M315.9 412.82c.05.01.1.02.15.04.08.04.16.09.24.13.17.1.12.07.31.16.27.14.54.25.8.4.13.06.25.15.37.23.18.09.36.19.54.28.21.12.41.25.61.38.11.08.22.16.34.22.15.09.29.19.42.29.14.09.27.18.39.28.15.1.29.21.44.31.22.13.46.23.7.34.38.17.76.31 1.15.46.36.16.71.33 1.07.51.26.12.5.28.75.41.17.1.33.22.5.32.07.04.04.02.1.06l-.24.19c-.07-.04-.03-.02-.1-.06-.17-.1-.34-.22-.51-.32-.25-.13-.49-.29-.75-.41-.35-.18-.71-.34-1.07-.51-.38-.14-.77-.29-1.14-.46-.24-.11-.48-.21-.71-.34-.15-.1-.29-.21-.44-.31-.12-.1-.25-.2-.39-.28-.13-.1-.27-.2-.42-.29-.11-.06-.23-.14-.34-.22-.2-.13-.4-.26-.61-.38-.18-.09-.36-.19-.54-.29-.12-.07-.23-.16-.36-.22-.27-.14-.54-.26-.8-.4-.2-.09-.14-.06-.32-.16-.12-.06-.24-.14-.38-.15l.24-.21z" style="opacity:.42254004;fill:#8f5902" transform="matrix(.87747 .41602 .50682 -.67306 -311.04 796.277)"/><path inkscape:connector-curvature="0" d="M325.9 418.76c.24.04.46.13.69.24.47.22.89.53 1.31.83.51.39 1.06.73 1.6 1.08.38.24.78.48 1.17.7.26.15.53.28.8.42.21.12.43.24.65.36.36.13.71.26 1.07.39.39.15.76.34 1.12.55.29.18.58.37.87.56.2.11.38.24.56.36.37.3.78.55 1.18.8.59.32 1.16.66 1.74.99.24.13.47.27.71.41.11.06.22.14.33.19.01 0 .02-.01.02-.01l-.24.21c0-.01-.01-.01-.02-.01-.12-.05-.23-.13-.34-.19-.23-.14-.47-.28-.7-.41-.59-.33-1.16-.67-1.75-.99-.4-.25-.8-.5-1.18-.8-.18-.12-.36-.25-.55-.36-.3-.19-.58-.38-.88-.56-.36-.21-.73-.4-1.11-.54-.36-.14-.72-.27-1.08-.4-.22-.11-.43-.24-.65-.36-.27-.14-.53-.27-.79-.42-.4-.22-.79-.46-1.18-.7-.54-.35-1.09-.69-1.6-1.08-.42-.3-.84-.61-1.31-.83-.22-.1-.44-.19-.68-.23l.24-.2z" style="opacity:.42254004;fill:#8f5902" transform="matrix(.87747 .41602 .50682 -.67306 -311.04 796.277)"/><path inkscape:connector-curvature="0" d="M323.33 417.76c.17.04.34.08.5.14.21.08.4.2.6.3.13.07.26.14.39.2.29.15.58.31.86.48.1.06.19.14.28.21l-.25.19a1.86 1.86 0 0 0-.28-.21c-.28-.17-.56-.33-.86-.48-.33-.17-.64-.36-.98-.49-.16-.06-.33-.11-.5-.14l.24-.2z" style="opacity:.42254004;fill:#8f5902" transform="matrix(.87747 .41602 .50682 -.67306 -311.04 796.277)"/><path sodipodi:expansion="1" sodipodi:radius="134.65251" sodipodi:t0="0.13777922" sodipodi:cx="343.25" sodipodi:cy="426.58093" sodipodi:argument="-9.7672472" transform="matrix(.00657 .02115 .00577 -.01537 200.332 651.293)" d="M343.264 445.133c-11.87 2.358-22.596-7.092-24.332-18.534-2.28-15.026 9.714-28.312 24.296-30.102 18.175-2.232 34.044 12.335 35.872 30.057 2.2 21.32-14.957 39.787-35.82 41.643-24.463 2.176-45.535-17.578-47.412-41.581-2.16-27.607 20.2-51.288 47.343-53.183 30.75-2.147 57.044 22.82 58.953 53.104 2.137 33.892-25.441 62.802-58.866 64.724-37.033 2.13-68.562-28.062-70.494-64.628-2.123-40.175 30.683-74.322 70.39-76.264 43.316-2.118 80.084 33.304 82.034 76.151 2.115 46.458-35.925 85.847-81.913 87.805-49.599 2.112-91.61-38.546-93.575-87.675-2.11-52.74 41.166-97.374 93.437-99.345 55.88-2.108 103.138 43.787 105.115 99.198 2.106 59.022-46.408 108.903-104.96 110.886-62.163 2.105-114.668-49.029-116.656-110.722-2.104-65.304 51.65-120.433 116.484-122.426 68.445-2.104 126.198 54.27 128.196 122.245 2.104 71.586-56.891 131.964-128.007 133.967a134.33 134.33 0 0 1-28.426-2.233" sodipodi:type="spiral" sodipodi:revolution="5.8382397" style="fill:none;stroke:#000;stroke-width:.48170999"/></g><g><path inkscape:connector-curvature="0" d="M312.492 404.113c-.904.023-1.968.7-2.687 1.794-.949 1.455-.922 3.122.064 3.7l15.289 9.703 14.21 8.644 5.3-5.313-15.98-10.09c-5.206-2.574-10.46-5.177-15.355-8.242a1.423 1.423 0 0 0-.84-.196z" style="fill:#c17d11;fill-rule:evenodd;stroke:#000;stroke-width:.48715273" sodipodi:nodetypes="csccccccc" transform="matrix(.90545 -.36836 .56036 .58326 -342.906 536.085)"/><path sodipodi:cx="136.67287" sodipodi:cy="261.99792" transform="matrix(.00726 -.2246 -.169 .0134 248.521 685.414)" d="M148.59 261.998a11.916 8.042 0 0 1-11.917 8.042 11.916 8.042 0 0 1-11.916-8.042 11.916 8.042 0 0 1 11.916-8.042 11.916 8.042 0 0 1 11.916 8.042z" sodipodi:type="arc" style="fill:#8f5902;stroke:#000;stroke-width:1.42250001;stroke-linejoin:bevel" sodipodi:ry="8.0419703" sodipodi:rx="11.916239"/><path inkscape:connector-curvature="0" d="M309.72 408.1c2.21 1.35 4.2 3.11 6.7 3.94 4.17 1.91 11.33 5.15 15.13 7.78 2.01 1.2 3.94 2.53 5.87 3.84.47.2 2.25 1.19 1.38 1.41-1.6-.49-2.76-1.81-4.2-2.62-2.67-1.74-5.35-3.47-8.16-4.96-3.52-1.66-9.96-4.74-13.44-6.47-.95-1.06-2.77-1.22-3.27-2.67l-.01-.25z" style="opacity:.42254004;fill:#8f5902" sodipodi:nodetypes="ccccccccccc" transform="matrix(.90545 -.36836 .56036 .58326 -342.906 536.085)"/><path inkscape:connector-curvature="0" d="M325.71 418.33c3.5 1.59 6.54 4 9.91 5.82 1.26.85 2.47 1.77 3.85 2.41-1.38.87-2.38-1.05-3.56-1.51-2.92-1.88-5.97-3.56-8.86-5.48-.4-.25-2-.52-1.34-1.24z" style="opacity:.42254004;fill:#8f5902" transform="matrix(.90545 -.36836 .56036 .58326 -342.906 536.085)"/><path inkscape:connector-curvature="0" d="M311.02 405.77c3.73 1.83 9.64 5.79 13.32 7.7 3.12 1.76 6.1 3.76 8.88 6 2.22 1.37 4.25 3.04 6.4 4.51.6.34 2.23 1.01 1.88 1.62-1.58-.22-2.51-1.69-3.91-2.31-2.52-1.99-5.3-3.64-7.79-5.68-3.67-2.67-7.76-4.68-11.62-7.04-1.58-.95-5.75-3.36-7.31-4.32-.2-.16-.07-.43.15-.48z" style="opacity:.42254004;fill:#8f5902" sodipodi:nodetypes="cccccccccc" transform="matrix(.90545 -.36836 .56036 .58326 -342.906 536.085)"/><path inkscape:connector-curvature="0" d="M312.04 405.5c2.77 2.09 9.03 6.53 12.1 8.15 4.37 2.05 9.19 3.26 13.13 6.17 1.43.95 2.91 1.83 4.35 2.77-.16 1.19-1.74-.5-2.29-.8-3.11-1.87-6.05-4.15-9.57-5.21-4.39-1.64-11.97-6.29-15.79-9.04-.61-.41-2.68-1.12-1.93-2.04z" style="opacity:.42254004;fill:#e9b96e" sodipodi:nodetypes="cccccccc" transform="matrix(.90545 -.36836 .56036 .58326 -342.906 536.085)"/><path inkscape:connector-curvature="0" d="M313 405.52c5.85 3.82 15.41 8.91 21.62 12.1.62-.02 2.13 1.28.76 1.15-1.02-.6-2.06-1.24-3.14-1.78-3.83-1.95-11-5.77-14.68-7.99-1.71-.99-3.4-2.02-5.06-3.1.17-.13.33-.26.5-.38z" style="opacity:.42254004;fill:#e9b96e" sodipodi:nodetypes="ccccccc" transform="matrix(.90545 -.36836 .56036 .58326 -342.906 536.085)"/><path inkscape:connector-curvature="0" d="M315.9 412.82c.05.01.1.02.15.04.08.04.16.09.24.13.17.1.12.07.31.16.27.14.54.25.8.4.13.06.25.15.37.23.18.09.36.19.54.28.21.12.41.25.61.38.11.08.22.16.34.22.15.09.29.19.42.29.14.09.27.18.39.28.15.1.29.21.44.31.22.13.46.23.7.34.38.17.76.31 1.15.46.36.16.71.33 1.07.51.26.12.5.28.75.41.17.1.33.22.5.32.07.04.04.02.1.06l-.24.19c-.07-.04-.03-.02-.1-.06-.17-.1-.34-.22-.51-.32-.25-.13-.49-.29-.75-.41-.35-.18-.71-.34-1.07-.51-.38-.14-.77-.29-1.14-.46-.24-.11-.48-.21-.71-.34-.15-.1-.29-.21-.44-.31-.12-.1-.25-.2-.39-.28-.13-.1-.27-.2-.42-.29-.11-.06-.23-.14-.34-.22-.2-.13-.4-.26-.61-.38-.18-.09-.36-.19-.54-.29-.12-.07-.23-.16-.36-.22-.27-.14-.54-.26-.8-.4-.2-.09-.14-.06-.32-.16-.12-.06-.24-.14-.38-.15l.24-.21z" style="opacity:.42254004;fill:#8f5902" transform="matrix(.90545 -.36836 .56036 .58326 -342.906 536.085)"/><path inkscape:connector-curvature="0" d="M325.9 418.76c.24.04.46.13.69.24.47.22.89.53 1.31.83.51.39 1.06.73 1.6 1.08.38.24.78.48 1.17.7.26.15.53.28.8.42.21.12.43.24.65.36.36.13.71.26 1.07.39.39.15.76.34 1.12.55.29.18.58.37.87.56.2.11.38.24.56.36.37.3.78.55 1.18.8.59.32 1.16.66 1.74.99.24.13.47.27.71.41.11.06.22.14.33.19.01 0 .02-.01.02-.01l-.24.21c0-.01-.01-.01-.02-.01-.12-.05-.23-.13-.34-.19-.23-.14-.47-.28-.7-.41-.59-.33-1.16-.67-1.75-.99-.4-.25-.8-.5-1.18-.8-.18-.12-.36-.25-.55-.36-.3-.19-.58-.38-.88-.56-.36-.21-.73-.4-1.11-.54-.36-.14-.72-.27-1.08-.4-.22-.11-.43-.24-.65-.36-.27-.14-.53-.27-.79-.42-.4-.22-.79-.46-1.18-.7-.54-.35-1.09-.69-1.6-1.08-.42-.3-.84-.61-1.31-.83-.22-.1-.44-.19-.68-.23l.24-.2z" style="opacity:.42254004;fill:#8f5902" transform="matrix(.90545 -.36836 .56036 .58326 -342.906 536.085)"/><path inkscape:connector-curvature="0" d="M323.33 417.76c.17.04.34.08.5.14.21.08.4.2.6.3.13.07.26.14.39.2.29.15.58.31.86.48.1.06.19.14.28.21l-.25.19a1.86 1.86 0 0 0-.28-.21c-.28-.17-.56-.33-.86-.48-.33-.17-.64-.36-.98-.49-.16-.06-.33-.11-.5-.14l.24-.2z" style="opacity:.42254004;fill:#8f5902" transform="matrix(.90545 -.36836 .56036 .58326 -342.906 536.085)"/><path sodipodi:t0="0.13777922" sodipodi:type="spiral" sodipodi:expansion="1" sodipodi:cx="343.25" sodipodi:cy="426.58093" sodipodi:argument="-9.7672472" transform="matrix(.00413 -.0186 .00396 .0133 202.06 659.128)" d="M343.264 445.133c-11.87 2.358-22.596-7.092-24.332-18.534-2.28-15.026 9.714-28.312 24.296-30.102 18.175-2.232 34.044 12.335 35.872 30.057 2.2 21.32-14.957 39.787-35.82 41.643-24.463 2.176-45.535-17.578-47.412-41.581-2.16-27.607 20.2-51.288 47.343-53.183 30.75-2.147 57.044 22.82 58.953 53.104 2.137 33.892-25.441 62.802-58.866 64.724-37.033 2.13-68.562-28.062-70.494-64.628-2.123-40.175 30.683-74.322 70.39-76.264 43.316-2.118 80.084 33.304 82.034 76.151 2.115 46.458-35.925 85.847-81.913 87.805-49.599 2.112-91.61-38.546-93.575-87.675-2.11-52.74 41.166-97.374 93.437-99.345 55.88-2.108 103.138 43.787 105.115 99.198 2.106 59.022-46.408 108.903-104.96 110.886-62.163 2.105-114.668-49.029-116.656-110.722-2.104-65.304 51.65-120.433 116.484-122.426 68.445-2.104 126.198 54.27 128.196 122.245 2.104 71.586-56.891 131.964-128.007 133.967a134.33 134.33 0 0 1-28.426-2.233" sodipodi:radius="134.65251" sodipodi:revolution="5.8382397" style="fill:none;stroke:#000;stroke-width:.48170999"/></g><g><path inkscape:connector-curvature="0" d="M311.488 403.55c-.924.01-2.001.678-2.72 1.77-.947 1.453-.894 3.134.122 3.73l15.774 10.009 14.655 8.925 5.338-5.28-16.488-10.409c-5.36-2.671-10.768-5.372-15.818-8.534a1.499 1.499 0 0 0-.863-.21z" style="fill:#c17d11;fill-rule:evenodd;stroke:#000;stroke-width:.49448571" sodipodi:nodetypes="csccccccc" transform="matrix(.82974 .41384 .4802 -.67425 -284.992 800.98)"/><path sodipodi:cx="136.67287" sodipodi:cy="261.99792" transform="matrix(.0118 .25538 -.19061 -.01093 251.78 623.614)" d="M148.59 261.998a11.916 8.042 0 0 1-11.917 8.042 11.916 8.042 0 0 1-11.916-8.042 11.916 8.042 0 0 1 11.916-8.042 11.916 8.042 0 0 1 11.916 8.042z" sodipodi:type="arc" style="fill:#8f5902;stroke:#000;stroke-width:1.42250001;stroke-linejoin:bevel" sodipodi:ry="8.0419703" sodipodi:rx="11.916239"/><path inkscape:connector-curvature="0" d="M309.72 408.1c2.21 1.35 4.2 3.11 6.7 3.94 4.17 1.91 11.33 5.15 15.13 7.78 2.01 1.2 3.94 2.53 5.87 3.84.47.2 2.25 1.19 1.38 1.41-1.6-.49-2.76-1.81-4.2-2.62-2.67-1.74-5.35-3.47-8.16-4.96-3.52-1.66-9.96-4.74-13.44-6.47-.95-1.06-2.77-1.22-3.27-2.67l-.01-.25z" style="opacity:.42254004;fill:#8f5902" sodipodi:nodetypes="ccccccccccc" transform="matrix(.82974 .41384 .4802 -.67425 -284.992 800.98)"/><path inkscape:connector-curvature="0" d="M325.71 418.33c3.5 1.59 6.54 4 9.91 5.82 1.26.85 2.47 1.77 3.85 2.41-1.38.87-2.38-1.05-3.56-1.51-2.92-1.88-5.97-3.56-8.86-5.48-.4-.25-2-.52-1.34-1.24z" style="opacity:.42254004;fill:#8f5902" transform="matrix(.82974 .41384 .4802 -.67425 -284.992 800.98)"/><path inkscape:connector-curvature="0" d="M311.02 405.77c3.73 1.83 9.64 5.79 13.32 7.7 3.12 1.76 6.1 3.76 8.88 6 2.22 1.37 4.25 3.04 6.4 4.51.6.34 2.23 1.01 1.88 1.62-1.58-.22-2.51-1.69-3.91-2.31-2.52-1.99-5.3-3.64-7.79-5.68-3.67-2.67-7.76-4.68-11.62-7.04-1.58-.95-5.75-3.36-7.31-4.32-.2-.16-.07-.43.15-.48z" style="opacity:.42254004;fill:#8f5902" sodipodi:nodetypes="cccccccccc" transform="matrix(.82974 .41384 .4802 -.67425 -284.992 800.98)"/><path inkscape:connector-curvature="0" d="M312.04 405.5c2.77 2.09 9.03 6.53 12.1 8.15 4.37 2.05 9.19 3.26 13.13 6.17 1.43.95 2.91 1.83 4.35 2.77-.16 1.19-1.74-.5-2.29-.8-3.11-1.87-6.05-4.15-9.57-5.21-4.39-1.64-11.97-6.29-15.79-9.04-.61-.41-2.68-1.12-1.93-2.04z" style="opacity:.42254004;fill:#e9b96e" sodipodi:nodetypes="cccccccc" transform="matrix(.82974 .41384 .4802 -.67425 -284.992 800.98)"/><path inkscape:connector-curvature="0" d="M313 405.52c5.85 3.82 15.41 8.91 21.62 12.1.62-.02 2.13 1.28.76 1.15-1.02-.6-2.06-1.24-3.14-1.78-3.83-1.95-11-5.77-14.68-7.99-1.71-.99-3.4-2.02-5.06-3.1.17-.13.33-.26.5-.38z" style="opacity:.42254004;fill:#e9b96e" sodipodi:nodetypes="ccccccc" transform="matrix(.82974 .41384 .4802 -.67425 -284.992 800.98)"/><path inkscape:connector-curvature="0" d="M315.9 412.82c.05.01.1.02.15.04.08.04.16.09.24.13.17.1.12.07.31.16.27.14.54.25.8.4.13.06.25.15.37.23.18.09.36.19.54.28.21.12.41.25.61.38.11.08.22.16.34.22.15.09.29.19.42.29.14.09.27.18.39.28.15.1.29.21.44.31.22.13.46.23.7.34.38.17.76.31 1.15.46.36.16.71.33 1.07.51.26.12.5.28.75.41.17.1.33.22.5.32.07.04.04.02.1.06l-.24.19c-.07-.04-.03-.02-.1-.06-.17-.1-.34-.22-.51-.32-.25-.13-.49-.29-.75-.41-.35-.18-.71-.34-1.07-.51-.38-.14-.77-.29-1.14-.46-.24-.11-.48-.21-.71-.34-.15-.1-.29-.21-.44-.31-.12-.1-.25-.2-.39-.28-.13-.1-.27-.2-.42-.29-.11-.06-.23-.14-.34-.22-.2-.13-.4-.26-.61-.38-.18-.09-.36-.19-.54-.29-.12-.07-.23-.16-.36-.22-.27-.14-.54-.26-.8-.4-.2-.09-.14-.06-.32-.16-.12-.06-.24-.14-.38-.15l.24-.21z" style="opacity:.42254004;fill:#8f5902" transform="matrix(.82974 .41384 .4802 -.67425 -284.992 800.98)"/><path inkscape:connector-curvature="0" d="M325.9 418.76c.24.04.46.13.69.24.47.22.89.53 1.31.83.51.39 1.06.73 1.6 1.08.38.24.78.48 1.17.7.26.15.53.28.8.42.21.12.43.24.65.36.36.13.71.26 1.07.39.39.15.76.34 1.12.55.29.18.58.37.87.56.2.11.38.24.56.36.37.3.78.55 1.18.8.59.32 1.16.66 1.74.99.24.13.47.27.71.41.11.06.22.14.33.19.01 0 .02-.01.02-.01l-.24.21c0-.01-.01-.01-.02-.01-.12-.05-.23-.13-.34-.19-.23-.14-.47-.28-.7-.41-.59-.33-1.16-.67-1.75-.99-.4-.25-.8-.5-1.18-.8-.18-.12-.36-.25-.55-.36-.3-.19-.58-.38-.88-.56-.36-.21-.73-.4-1.11-.54-.36-.14-.72-.27-1.08-.4-.22-.11-.43-.24-.65-.36-.27-.14-.53-.27-.79-.42-.4-.22-.79-.46-1.18-.7-.54-.35-1.09-.69-1.6-1.08-.42-.3-.84-.61-1.31-.83-.22-.1-.44-.19-.68-.23l.24-.2z" style="opacity:.42254004;fill:#8f5902" transform="matrix(.82974 .41384 .4802 -.67425 -284.992 800.98)"/><path inkscape:connector-curvature="0" d="M323.33 417.76c.17.04.34.08.5.14.21.08.4.2.6.3.13.07.26.14.39.2.29.15.58.31.86.48.1.06.19.14.28.21l-.25.19a1.86 1.86 0 0 0-.28-.21c-.28-.17-.56-.33-.86-.48-.33-.17-.64-.36-.98-.49-.16-.06-.33-.11-.5-.14l.24-.2z" style="opacity:.42254004;fill:#8f5902" transform="matrix(.82974 .41384 .4802 -.67425 -284.992 800.98)"/><path sodipodi:expansion="1" sodipodi:radius="134.65251" sodipodi:t0="0.13777922" sodipodi:cx="343.25" sodipodi:cy="426.58093" sodipodi:argument="-9.7672472" transform="matrix(.00619 .02113 .00547 -.01538 198.964 654.751)" d="M343.264 445.133c-11.87 2.358-22.596-7.092-24.332-18.534-2.28-15.026 9.714-28.312 24.296-30.102 18.175-2.232 34.044 12.335 35.872 30.057 2.2 21.32-14.957 39.787-35.82 41.643-24.463 2.176-45.535-17.578-47.412-41.581-2.16-27.607 20.2-51.288 47.343-53.183 30.75-2.147 57.044 22.82 58.953 53.104 2.137 33.892-25.441 62.802-58.866 64.724-37.033 2.13-68.562-28.062-70.494-64.628-2.123-40.175 30.683-74.322 70.39-76.264 43.316-2.118 80.084 33.304 82.034 76.151 2.115 46.458-35.925 85.847-81.913 87.805-49.599 2.112-91.61-38.546-93.575-87.675-2.11-52.74 41.166-97.374 93.437-99.345 55.88-2.108 103.138 43.787 105.115 99.198 2.106 59.022-46.408 108.903-104.96 110.886-62.163 2.105-114.668-49.029-116.656-110.722-2.104-65.304 51.65-120.433 116.484-122.426 68.445-2.104 126.198 54.27 128.196 122.245 2.104 71.586-56.891 131.964-128.007 133.967a134.33 134.33 0 0 1-28.426-2.233" sodipodi:type="spiral" sodipodi:revolution="5.8382397" style="fill:none;stroke:#000;stroke-width:.48170999"/></g></g></svg>