<!--Created with Inkscape (http://www.inkscape.org/)--><svg xmlns:dc="http://purl.org/dc/elements/1.1/" xmlns:cc="http://creativecommons.org/ns#" xmlns:rdf="http://www.w3.org/1999/02/22-rdf-syntax-ns#" xmlns="http://www.w3.org/2000/svg" xmlns:sodipodi="http://sodipodi.sourceforge.net/DTD/sodipodi-0.dtd" xmlns:inkscape="http://www.inkscape.org/namespaces/inkscape" width="213.29448" height="66.026566" inkscape:version="0.91 r13725" sodipodi:docname="cloud.svg"><sodipodi:namedview pagecolor="#ffffff" bordercolor="#666666" borderopacity="1.0" inkscape:pageopacity="0.0" inkscape:pageshadow="2" inkscape:zoom="0.35" inkscape:cx="242.5772" inkscape:cy="226.86757" inkscape:document-units="px" inkscape:current-layer="layer1" showgrid="false" inkscape:window-width="472" inkscape:window-height="411" inkscape:window-x="59" inkscape:window-y="24" inkscape:window-maximized="0" fit-margin-top="0" fit-margin-left="0" fit-margin-right="0" fit-margin-bottom="0"/><metadata><rdf:RDF><cc:Work><dc:format>image/svg+xml</dc:format><dc:type rdf:resource="http://purl.org/dc/dcmitype/StillImage"/><dc:title/></cc:Work></rdf:RDF></metadata><g inkscape:label="Layer 1" inkscape:groupmode="layer"><g style="display:inline;enable-background:new"><path d="M1220.662 225.274c-8.363-.594-16.182 1.79-22.276 6.187a35.221 35.221 0 0 0-7.147-1.26c-11.328-.805-21.672 3.85-28.047 11.572-15.153 1.585-27.33 12.944-28.367 27.527-1.174 16.518 12.397 30.957 30.292 32.228a34.76 34.76 0 0 0 11.163-1.023c5.48 6.998 14.109 11.842 24.108 12.553 9.375.666 18.094-2.423 24.433-7.882a34.708 34.708 0 0 0 12.97 3.523c9.649.685 18.59-2.617 24.97-8.376 2.709.902 5.583 1.524 8.585 1.738 17.895 1.271 33.371-11.103 34.545-27.62 1.054-14.832-9.783-27.99-24.959-31.443-5.374-5.01-12.63-8.323-20.796-8.903-5.761-.41-11.275.604-16.138 2.706-5.504-6.463-13.812-10.85-23.336-11.527z" style="fill:#fff;fill-opacity:1;stroke:#000;stroke-width:1.58760715;stroke-linecap:round;stroke-linejoin:round;stroke-miterlimit:4;stroke-opacity:1;stroke-dasharray:none;stroke-dashoffset:0" inkscape:connector-curvature="0" transform="matrix(.68294 0 0 .68294 -774.425 -153.236)"/><path d="M1216.125 229.156c-8.368-.147-15.574 8.01-23.938 5.063-10.925-1.587-20.96 4.689-28.843 11.344-14.46.868-26.892 15.956-24.344 29.78 3.791-13.199 16.267-22.086 29.094-25.03 9.79-8.914 23.758-13.193 36.719-10.625 7.125-3.25 14.492-6.614 22.562-5.47 3.557.039 8.553 1.502 10.844 2.188-6.611-4.803-13.75-7.962-22.094-7.25zm39.188 9.031c-3.263.217-7.24.645-9.907 1.688 3.639 1.533 5.988 6.495 10.25 4.031 7.864-1.617 16.25-1.137 23.719 1.875-7.2-4.77-15.17-8.532-24.063-7.594zm27.374 9.157c3.273 1.672 5.944 4.33 9.47 5.531-3.216-2.449-6.838-4.286-10.47-6.031l.895.447.105.053z" style="fill:#aef;fill-opacity:1;stroke:none" inkscape:connector-curvature="0" transform="matrix(.68294 0 0 .68294 -774.425 -153.236)"/><path d="M1301.344 277c-8.366 11.185-23.469 16.203-36.875 13.969-9.755 9.461-24.834 12.019-37.688 8.437-4.673 2.661.764 2.132 3.42 3.745 10.533 3.724 22.42.867 30.806-6.167 8.686.37 18.104 2.945 26.243-1.859 7.241-3.555 12.954-10.613 14.438-18.594l-.344.469zm-84.594 28.719c.18-.015-.043-.08 0 0zm-.563.187c-6.597 3.053-16.68 3.09-22.187 1.969 7.41 2.322 15.667 1.683 22.5-2.063l-.313.094z" style="fill:#aef;fill-opacity:1;stroke:none" inkscape:connector-curvature="0" transform="matrix(.68294 0 0 .68294 -774.425 -153.236)"/></g><g style="display:inline;enable-background:new"><path d="M1220.662 225.274c-8.363-.594-16.182 1.79-22.276 6.187a35.221 35.221 0 0 0-7.147-1.26c-11.328-.805-21.672 3.85-28.047 11.572-15.153 1.585-27.33 12.944-28.367 27.527-1.174 16.518 12.397 30.957 30.292 32.228a34.76 34.76 0 0 0 11.163-1.023c5.48 6.998 14.109 11.842 24.108 12.553 9.375.666 18.094-2.423 24.433-7.882a34.708 34.708 0 0 0 12.97 3.523c9.649.685 18.59-2.617 24.97-8.376 2.709.902 5.583 1.524 8.585 1.738 17.895 1.271 33.371-11.103 34.545-27.62 1.054-14.832-9.783-27.99-24.959-31.443-5.374-5.01-12.63-8.323-20.796-8.903-5.761-.41-11.275.604-16.138 2.706-5.504-6.463-13.812-10.85-23.336-11.527z" style="fill:#fff;fill-opacity:1;stroke:#000;stroke-width:1.58760715;stroke-linecap:round;stroke-linejoin:round;stroke-miterlimit:4;stroke-opacity:1;stroke-dasharray:none;stroke-dashoffset:0" inkscape:connector-curvature="0" transform="matrix(.68294 0 0 .68294 -679.144 -148.372)"/><path d="M1216.125 229.156c-8.368-.147-15.574 8.01-23.938 5.063-10.925-1.587-20.96 4.689-28.843 11.344-14.46.868-26.892 15.956-24.344 29.78 3.791-13.199 16.267-22.086 29.094-25.03 9.79-8.914 23.758-13.193 36.719-10.625 7.125-3.25 14.492-6.614 22.562-5.47 3.557.039 8.553 1.502 10.844 2.188-6.611-4.803-13.75-7.962-22.094-7.25zm39.188 9.031c-3.263.217-7.24.645-9.907 1.688 3.639 1.533 5.988 6.495 10.25 4.031 7.864-1.617 16.25-1.137 23.719 1.875-7.2-4.77-15.17-8.532-24.063-7.594zm27.374 9.157c3.273 1.672 5.944 4.33 9.47 5.531-3.216-2.449-6.838-4.286-10.47-6.031l.895.447.105.053z" style="fill:#aef;fill-opacity:1;stroke:none" inkscape:connector-curvature="0" transform="matrix(.68294 0 0 .68294 -679.144 -148.372)"/><path d="M1301.344 277c-8.366 11.185-23.469 16.203-36.875 13.969-9.755 9.461-24.834 12.019-37.688 8.437-4.673 2.661.764 2.132 3.42 3.745 10.533 3.724 22.42.867 30.806-6.167 8.686.37 18.104 2.945 26.243-1.859 7.241-3.555 12.954-10.613 14.438-18.594l-.344.469zm-84.594 28.719c.18-.015-.043-.08 0 0zm-.563.187c-6.597 3.053-16.68 3.09-22.187 1.969 7.41 2.322 15.667 1.683 22.5-2.063l-.313.094z" style="fill:#aef;fill-opacity:1;stroke:none" inkscape:connector-curvature="0" transform="matrix(.68294 0 0 .68294 -679.144 -148.372)"/></g></g></svg>