<svg xmlns:dc="http://purl.org/dc/elements/1.1/" xmlns:cc="http://creativecommons.org/ns#" xmlns:rdf="http://www.w3.org/1999/02/22-rdf-syntax-ns#" xmlns="http://www.w3.org/2000/svg" xmlns:xlink="http://www.w3.org/1999/xlink" width="103.65703" height="116.3932" viewBox="0 0 103.65702 116.39319" version="1.1" id="svg1422"><defs id="defs1416"><linearGradient id="a-33"><stop id="stop6220" offset="0" style="stop-color:#275eb1;stop-opacity:1"/><stop id="stop6222" offset="1" style="stop-color:#e6ecf9;stop-opacity:1"/></linearGradient><linearGradient gradientTransform="matrix(1 0 0 1.08592 0 -53.897)" gradientUnits="userSpaceOnUse" y2="650.04968" x2="945.6795" y1="637.41199" x1="940.9632" id="b-4" xlink:href="#a-33"/><linearGradient gradientTransform="matrix(-1 0 0 1.08592 1919.998 -53.897)" gradientUnits="userSpaceOnUse" y2="650.04968" x2="945.6795" y1="637.41199" x1="940.9632" id="c-3" xlink:href="#a-33"/><linearGradient gradientTransform="matrix(1 0 0 1.08592 0 -53.897)" gradientUnits="userSpaceOnUse" y2="650.04968" x2="945.6795" y1="637.41199" x1="940.9632" id="b-4-7" xlink:href="#a-33"/><linearGradient gradientTransform="matrix(-1 0 0 1.08592 1919.998 -53.897)" gradientUnits="userSpaceOnUse" y2="650.04968" x2="945.6795" y1="637.41199" x1="940.9632" id="c-3-4" xlink:href="#a-33"/><linearGradient gradientUnits="userSpaceOnUse" y2="1213.5991" x2="924.36542" y1="0" x1="924.36542" id="c" xlink:href="#a" gradientTransform="matrix(.33333 0 0 .15641 664.773 409.59)"/><linearGradient id="a"><stop offset="0" style="stop-color:#3cc1f1;stop-opacity:1" id="stop2"/><stop offset="1" style="stop-color:#85d8f6;stop-opacity:1" id="stop4"/></linearGradient><radialGradient r="154.61" cy="-221.86" cx="967.83002" gradientTransform="matrix(.21587 0 0 .2164 361.59 676.349)" gradientUnits="userSpaceOnUse" id="b-9-6" xlink:href="#a-3-0"/><radialGradient r="154.61" gradientTransform="matrix(.5718 0 0 .5535 -64.791 169.406)" cx="967.83002" cy="-221.86" gradientUnits="userSpaceOnUse" id="a-3-0"><stop offset="0" stop-color="#fff6d5" style="stop-color:#fdeba7;stop-opacity:1" id="stop3-6"/><stop offset=".68492" stop-color="#ffd42a" style="stop-color:#fad538;stop-opacity:1" id="stop5-2"/><stop offset="1" stop-color="#ffb380" style="stop-color:#fcb483;stop-opacity:1" id="stop7-6"/></radialGradient></defs><metadata id="metadata1419"><rdf:RDF><cc:Work><dc:format>image/svg+xml</dc:format><dc:type rdf:resource="http://purl.org/dc/dcmitype/StillImage"/><dc:title/><dc:date>2022</dc:date><dc:creator><cc:Agent><dc:title>Timothée Giet</dc:title></cc:Agent></dc:creator><cc:license rdf:resource="http://creativecommons.org/licenses/by-sa/4.0/"/><dc:contributor><cc:Agent><dc:title>Based on the original artwork by Cabaraux Stéphane.</dc:title></cc:Agent></dc:contributor></cc:Work><cc:License rdf:about="http://creativecommons.org/licenses/by-sa/4.0/"><cc:permits rdf:resource="http://creativecommons.org/ns#Reproduction"/><cc:permits rdf:resource="http://creativecommons.org/ns#Distribution"/><cc:requires rdf:resource="http://creativecommons.org/ns#Notice"/><cc:requires rdf:resource="http://creativecommons.org/ns#Attribution"/><cc:permits rdf:resource="http://creativecommons.org/ns#DerivativeWorks"/><cc:requires rdf:resource="http://creativecommons.org/ns#ShareAlike"/></cc:License></rdf:RDF></metadata><g id="g4053" transform="translate(-171.728 -338.923)"><g id="g1709" style="display:inline;opacity:1" transform="translate(400)"><path id="path1458-5-5-27" d="M-152.765 352.674c-.714-6.786.269-12.228.269-12.228s-59.632 2.258-71.598 19.246c-3.169 4.498-9.11 14.234 21.175 20.637 5.358 1.786 14.046 7.902 22.903 22.652 7.127 20.372 6.794 35.2 5.754 45.516-.247 2.448 20.403 13.259 20.541-5.5.135-18.224-11.61-59.317-9.49-61.953 4.643-3.215 37.086-7.402 37.096-17.427.007-6.995-21.293-11.657-26.65-10.943z" style="display:inline;fill:#5baada;fill-opacity:1;stroke:#5baada;stroke-width:1;stroke-linecap:butt;stroke-linejoin:miter;stroke-miterlimit:4;stroke-dasharray:none;stroke-opacity:1"/><path id="path1477-7-3-6-0" d="M-176.69 384.124c2.01-.21 2.206-9.307 7.957-10.615 5.752-1.308 27.768-7.33 25.362-9.756-5.716-5.766-20.255-4.09-22.04-4.552-8.422-2.18 13.983-11.831 2.07-11.614-27.858 2.076-42.142 9.136-45.576 13.694-2.54 3.371-11.737 9.766 20.306 13.036 1.643 1.743 8.487 10.167 11.922 9.807z" style="display:inline;fill:#72b6df;fill-opacity:1;stroke:none;stroke-width:1px;stroke-linecap:butt;stroke-linejoin:miter;stroke-opacity:1"/></g></g></svg>