<!--Created with Inkscape (http://www.inkscape.org/)--><svg xmlns:dc="http://purl.org/dc/elements/1.1/" xmlns:cc="http://creativecommons.org/ns#" xmlns:rdf="http://www.w3.org/1999/02/22-rdf-syntax-ns#" xmlns="http://www.w3.org/2000/svg" xmlns:sodipodi="http://sodipodi.sourceforge.net/DTD/sodipodi-0.dtd" xmlns:inkscape="http://www.inkscape.org/namespaces/inkscape" width="22" height="22" inkscape:version="0.91 r13725" sodipodi:docname="showerhot.svg"><sodipodi:namedview pagecolor="#ffffff" bordercolor="#666666" borderopacity="1.0" inkscape:pageopacity="0.0" inkscape:pageshadow="2" inkscape:zoom="31.678384" inkscape:cx="14.870563" inkscape:cy="10.378335" inkscape:document-units="px" inkscape:current-layer="SHOWER_BUTTON_ON" showgrid="false" inkscape:window-width="3200" inkscape:window-height="1717" inkscape:window-x="-8" inkscape:window-y="0" inkscape:window-maximized="1" fit-margin-top="0" fit-margin-left="0" fit-margin-right="0" fit-margin-bottom="0"/><metadata><rdf:RDF><cc:Work><dc:format>image/svg+xml</dc:format><dc:type rdf:resource="http://purl.org/dc/dcmitype/StillImage"/><dc:title/></cc:Work></rdf:RDF></metadata><g transform="matrix(.75542 .61542 -.61542 .75542 -954.53 -1436.37)" style="display:inline;enable-background:new" inkscape:label="Layer 1" inkscape:groupmode="layer"><path d="M1715.927 531.13c-1.16 2.009-6.233-2.321-8.474-1.721-2.241.6-4.47 6.887-6.48 5.727-2.009-1.16 2.322-6.233 1.721-8.474-.6-2.241-6.887-4.47-5.727-6.48 1.16-2.008 6.233 2.322 8.474 1.721 2.241-.6 4.47-6.887 6.48-5.727 2.008 1.16-2.322 6.234-1.721 8.475.6 2.24 6.887 4.47 5.727 6.478z" inkscape:randomized="0" inkscape:rounded="0.26829877" inkscape:flatsided="false" sodipodi:arg2="1.3089969" sodipodi:arg1="0.52359878" sodipodi:r2="3.8852878" sodipodi:r1="10.946559" sodipodi:cy="525.65612" sodipodi:cx="1706.447" sodipodi:sides="4" style="fill:#999;fill-opacity:1;stroke:#000;stroke-width:.87009352;stroke-linecap:round;stroke-linejoin:round;stroke-miterlimit:4;stroke-dasharray:none;stroke-dashoffset:0;stroke-opacity:1" sodipodi:type="star"/><circle style="fill:red;fill-opacity:1;stroke:#000;stroke-width:.81921273;stroke-linecap:round;stroke-linejoin:round;stroke-miterlimit:4;stroke-dasharray:none;stroke-dashoffset:0;stroke-opacity:1" cx="1706.5891" cy="525.75421" r="3.9042275"/></g></svg>