<!--Created with Inkscape (http://www.inkscape.org/)--><svg xmlns:dc="http://purl.org/dc/elements/1.1/" xmlns:cc="http://creativecommons.org/ns#" xmlns:rdf="http://www.w3.org/1999/02/22-rdf-syntax-ns#" xmlns="http://www.w3.org/2000/svg" xmlns:sodipodi="http://sodipodi.sourceforge.net/DTD/sodipodi-0.dtd" xmlns:inkscape="http://www.inkscape.org/namespaces/inkscape" width="25.750814" height="29.931196" inkscape:version="0.91 r13725" sodipodi:docname="tuxoff.svg"><sodipodi:namedview pagecolor="#ffffff" bordercolor="#666666" borderopacity="1.0" inkscape:pageopacity="0.0" inkscape:pageshadow="2" inkscape:zoom="0.35" inkscape:cx="12.875412" inkscape:cy="14.965595" inkscape:document-units="px" inkscape:current-layer="layer1" showgrid="false" inkscape:window-width="472" inkscape:window-height="383" inkscape:window-x="69" inkscape:window-y="34" inkscape:window-maximized="0" fit-margin-top="0" fit-margin-left="0" fit-margin-right="0" fit-margin-bottom="0"/><metadata><rdf:RDF><cc:Work><dc:format>image/svg+xml</dc:format><dc:type rdf:resource="http://purl.org/dc/dcmitype/StillImage"/><dc:title/></cc:Work></rdf:RDF></metadata><g style="display:inline;enable-background:new" inkscape:label="Layer 1" inkscape:groupmode="layer"><g style="fill:#ff7f2a;fill-opacity:1;stroke:#a40;stroke-width:2.20038342;stroke-linecap:round;stroke-linejoin:round;stroke-miterlimit:4;stroke-dasharray:none;display:inline;enable-background:new" transform="matrix(.1747 0 0 .14864 -10.545 -1.391)"><rect style="fill:#ff7f2a;fill-opacity:1;fill-rule:evenodd;stroke:#a40;stroke-width:2.20038342;stroke-linecap:round;stroke-linejoin:round;stroke-miterlimit:4;stroke-opacity:1;stroke-dasharray:none" y="189.19467" x="119.38962" height="13.131983" width="8.0812206"/><rect style="fill:#ff7f2a;fill-opacity:1;fill-rule:evenodd;stroke:#a40;stroke-width:2.20038342;stroke-linecap:round;stroke-linejoin:round;stroke-miterlimit:4;stroke-opacity:1;stroke-dasharray:none" y="188.68959" x="140.83061" height="13.131983" width="8.0812206"/><path style="fill:#ff7f2a;fill-opacity:1;fill-rule:evenodd;stroke:#a40;stroke-width:2.20038342;stroke-linecap:round;stroke-linejoin:round;stroke-miterlimit:4;stroke-opacity:1;stroke-dasharray:none" d="M119.513 200.498s8.11-.523 8.677 1.12c.566 1.643 1.918 4.206 3.638 5.565 1.72 1.358-6.788 2.546-11.52 1.526-4.731-1.02-7.597-1.164-11.16-.609-3.563.555-10.006 2.287-13.76.924-3.755-1.362 1.505-3.349-5.4-2.961-6.907.387-14.496.153-13.622-.488.874-.641 27.513-5.959 43.147-5.077z" inkscape:connector-curvature="0"/><path style="fill:#ff7f2a;fill-opacity:1;fill-rule:evenodd;stroke:#a40;stroke-width:2.20038342;stroke-linecap:round;stroke-linejoin:round;stroke-miterlimit:4;stroke-opacity:1;stroke-dasharray:none" d="M148.608 200.498s-8.11-.523-8.676 1.12c-.566 1.643-1.919 4.206-3.638 5.565-1.72 1.358 6.788 2.546 11.52 1.526 4.731-1.02 7.596-1.164 11.16-.609 3.563.555 10.005 2.287 13.76.924 3.754-1.362-1.506-3.349 5.4-2.961 6.906.387 14.496.153 13.621-.488-.874-.641-27.512-5.959-43.147-5.077z" inkscape:connector-curvature="0"/></g><path style="fill:#000;fill-opacity:1;fill-rule:evenodd;stroke:#000;stroke-width:.35457733;stroke-linecap:round;stroke-linejoin:round;stroke-miterlimit:4;stroke-opacity:1;stroke-dasharray:none;display:inline;enable-background:new" d="M798.743 323.508a1.68 1.68 0 0 0-.796.238c-1.36.789-3.5 6.467-3.694 7.413-.194.947 2.916-3.47 5.442-5.204l.777-1.578s-.74-.902-1.729-.869zm16.342 0c-.96.003-1.671.869-1.671.869l.777 1.578c2.526 1.735 5.636 6.15 5.441 5.204-.194-.946-2.332-6.624-3.693-7.413a1.67 1.67 0 0 0-.854-.238z" inkscape:connector-curvature="0" transform="translate(-794.067 -309.962)"/><path style="fill:#000;fill-opacity:1;fill-rule:nonzero;stroke:#000;stroke-width:.35457733;stroke-linecap:round;stroke-linejoin:round;stroke-miterlimit:4;stroke-opacity:1;stroke-dasharray:none;display:inline;enable-background:new" d="M806.943 310.139c-4.81 0-8.714 4.264-8.714 9.518 0 1.088.168 2.133.476 3.106a10.965 10.965 0 0 0-1.423 5.44c0 5.748 4.328 10.412 9.66 10.412 5.334 0 9.662-4.664 9.662-10.411 0-1.994-.52-3.857-1.423-5.44.307-.974.475-2.02.475-3.107 0-5.254-3.903-9.518-8.713-9.518z" inkscape:connector-curvature="0" transform="translate(-794.067 -309.962)"/><path style="fill:#fff;fill-opacity:1;fill-rule:nonzero;stroke:#fff;stroke-width:.35457733;stroke-linecap:round;stroke-linejoin:round;stroke-miterlimit:4;stroke-opacity:1;stroke-dasharray:none;display:inline;enable-background:new" d="M814.004 319.074c0 3.056-2.035 5.533-4.545 5.533s-4.546-2.477-4.546-5.533c0-3.055 2.035-5.533 4.546-5.533 2.51 0 4.545 2.478 4.545 5.533h0z" inkscape:connector-curvature="0" transform="translate(-794.067 -309.962)"/><path style="fill:#fff;fill-opacity:1;fill-rule:nonzero;stroke:#fff;stroke-width:.3545773;stroke-linecap:round;stroke-linejoin:round;stroke-miterlimit:4;stroke-opacity:1;stroke-dasharray:none;display:inline;enable-background:new" d="M808.837 319.074c0 3.057-1.974 5.535-4.41 5.535s-4.41-2.478-4.41-5.535c0-3.056 1.974-5.534 4.41-5.534s4.41 2.478 4.41 5.534h0z" inkscape:connector-curvature="0" transform="translate(-794.067 -309.962)"/><path style="fill:#fff;fill-opacity:1;fill-rule:nonzero;stroke:#fff;stroke-width:.3248117;stroke-linecap:round;stroke-linejoin:round;stroke-miterlimit:4;stroke-opacity:1;stroke-dasharray:none;display:inline;enable-background:new" d="M813.599 330.056c0 5.004-2.982 7.188-6.656 7.188-3.674 0-6.656-2.184-6.656-7.188 0-5.003 2.982-9.064 6.656-9.064 3.674 0 6.656 4.06 6.656 9.064z" inkscape:connector-curvature="0" transform="translate(-794.067 -309.962)"/><g style="stroke-width:1.74461734;stroke-linecap:round;stroke-linejoin:round;stroke-miterlimit:4;stroke-dasharray:none;display:inline;enable-background:new"><path style="fill:#000;fill-opacity:1;fill-rule:nonzero;stroke:#000;stroke-width:63.61036301;stroke-linecap:round;stroke-linejoin:round;stroke-miterlimit:4;stroke-opacity:1;stroke-dasharray:none" transform="matrix(.00626 0 0 .0063 9.598 7.254)" d="M485.714 129.505c.013 149.915-121.513 271.452-271.428 271.452S-57.156 279.42-57.143 129.505C-57.156-20.41 64.371-141.947 214.286-141.947c149.915 0 271.441 121.537 271.428 271.452h0z" inkscape:connector-curvature="0"/><path style="fill:#fff;fill-opacity:1;fill-rule:nonzero;stroke:#fff;stroke-width:160.84480286;stroke-linecap:round;stroke-linejoin:round;stroke-miterlimit:4;stroke-opacity:1;stroke-dasharray:none" transform="matrix(.00248 0 0 .00249 11.228 6.77)" d="M485.714 129.505c.013 149.915-121.513 271.452-271.428 271.452S-57.156 279.42-57.143 129.505C-57.156-20.41 64.371-141.947 214.286-141.947c149.915 0 271.441 121.537 271.428 271.452h0z" inkscape:connector-curvature="0"/></g><g style="fill:#f60;fill-opacity:1;stroke:#803300;stroke-width:6.57706261;stroke-linecap:round;stroke-linejoin:round;stroke-miterlimit:4;stroke-opacity:1;stroke-dasharray:none;display:inline;enable-background:new"><path style="fill:#ff7f2a;fill-rule:evenodd;stroke-width:9.66249752;stroke-linecap:round;stroke-linejoin:round;stroke-miterlimit:4;stroke-dasharray:none" d="M-461.66 402.252c26.853 0 113.56 57.253 113.56 57.253s-68.42 16.449-114.703 16.644c-46.074 0-113.941-12.823-113.941-12.823s88.213-61.074 115.084-61.074z" sodipodi:nodetypes="ccccc" inkscape:connector-curvature="0" transform="matrix(.03676 0 0 .03297 29.848 -3.157)"/><path style="fill:#ff7f2a;fill-opacity:1;fill-rule:evenodd;stroke:#803300;stroke-width:9.66249752;stroke-linecap:round;stroke-linejoin:round;stroke-miterlimit:4;stroke-opacity:1;stroke-dasharray:none" d="m-575.493 462.73 113.56-18.34 112.963 15.792" sodipodi:nodetypes="ccc" inkscape:connector-curvature="0" transform="matrix(.03676 0 0 .03297 29.848 -3.157)"/><path style="fill:#803300;fill-opacity:1;fill-rule:nonzero;stroke:none" transform="matrix(.26347 .09357 -.10074 .24472 30.69 -82.206)" d="M67.25 354.55c0 .725-.196 1.312-.438 1.312-.241 0-.437-.587-.437-1.312 0-.725.196-1.313.438-1.313.241 0 .437.588.437 1.313z" inkscape:connector-curvature="0"/><path style="fill:#803300;fill-opacity:1;fill-rule:nonzero;stroke:none" transform="matrix(-.26347 .09357 .10074 .24472 -4.974 -82.206)" d="M67.25 354.55c0 .725-.196 1.312-.438 1.312-.241 0-.437-.587-.437-1.312 0-.725.196-1.313.438-1.313.241 0 .437.588.437 1.313z" inkscape:connector-curvature="0"/></g><g style="stroke-width:2.54848862;stroke-linecap:round;stroke-linejoin:round;stroke-miterlimit:4;stroke-dasharray:none;display:inline;enable-background:new"><path style="fill:#000;fill-opacity:1;fill-rule:nonzero;stroke:#000;stroke-width:92.9202652;stroke-linecap:round;stroke-linejoin:round;stroke-miterlimit:4;stroke-opacity:1;stroke-dasharray:none" transform="matrix(.00429 0 0 .00431 13.892 7.758)" d="M485.714 129.505c.013 149.915-121.513 271.452-271.428 271.452S-57.156 279.42-57.143 129.505C-57.156-20.41 64.371-141.947 214.286-141.947c149.915 0 271.441 121.537 271.428 271.452h0z" inkscape:connector-curvature="0"/><path style="fill:#fff;fill-opacity:1;fill-rule:nonzero;stroke:#fff;stroke-width:234.9576416;stroke-linecap:round;stroke-linejoin:round;stroke-miterlimit:4;stroke-opacity:1;stroke-dasharray:none" transform="matrix(.0017 0 0 .0017 15.007 7.426)" d="M485.714 129.505c.013 149.915-121.513 271.452-271.428 271.452S-57.156 279.42-57.143 129.505C-57.156-20.41 64.371-141.947 214.286-141.947c149.915 0 271.441 121.537 271.428 271.452h0z" inkscape:connector-curvature="0"/></g></g></svg>