<!--Created with Inkscape (http://www.inkscape.org/)--><svg xmlns:dc="http://purl.org/dc/elements/1.1/" xmlns:cc="http://creativecommons.org/ns#" xmlns:rdf="http://www.w3.org/1999/02/22-rdf-syntax-ns#" xmlns="http://www.w3.org/2000/svg" xmlns:sodipodi="http://sodipodi.sourceforge.net/DTD/sodipodi-0.dtd" xmlns:inkscape="http://www.inkscape.org/namespaces/inkscape" inkscape:version="0.91 r13725" width="100" height="100" sodipodi:docname="plum.svg"><metadata><rdf:RDF><cc:Work><dc:format>image/svg+xml</dc:format><dc:type rdf:resource="http://purl.org/dc/dcmitype/StillImage"/><dc:title/><dc:date>2015</dc:date><dc:creator><cc:Agent><dc:title>Timothée Giet</dc:title></cc:Agent></dc:creator><cc:license rdf:resource="http://creativecommons.org/licenses/by-sa/4.0/"/></cc:Work><cc:License rdf:about="http://creativecommons.org/licenses/by-sa/4.0/"><cc:permits rdf:resource="http://creativecommons.org/ns#Reproduction"/><cc:permits rdf:resource="http://creativecommons.org/ns#Distribution"/><cc:requires rdf:resource="http://creativecommons.org/ns#Notice"/><cc:requires rdf:resource="http://creativecommons.org/ns#Attribution"/><cc:permits rdf:resource="http://creativecommons.org/ns#DerivativeWorks"/><cc:requires rdf:resource="http://creativecommons.org/ns#ShareAlike"/></cc:License></rdf:RDF></metadata><sodipodi:namedview pagecolor="#ffffff" bordercolor="#666666" borderopacity="1" objecttolerance="10" gridtolerance="10" guidetolerance="10" inkscape:pageopacity="0" inkscape:pageshadow="2" inkscape:window-width="1880" inkscape:window-height="1060" showgrid="false" inkscape:zoom="2.085965" inkscape:cx="22.208983" inkscape:cy="58.866482" inkscape:window-x="-3" inkscape:window-y="-3" inkscape:window-maximized="1" inkscape:current-layer="layer1"/><g inkscape:groupmode="layer" inkscape:label="Layer 1"><path d="M51.064 23.694C10.393 5.407-22.332 86.466 43.626 96.77c50.6 7.904 75.821-67.485 13.81-72.41-2.072-.164-2.316.48-6.372-.665z" inkscape:connector-curvature="0" style="fill:#621788;fill-opacity:1;fill-rule:evenodd;stroke:none;stroke-width:2.53752398;stroke-linejoin:round" sodipodi:nodetypes="cssc"/><path d="M50.964 25.995c-36.84-15.99-66.482 54.887-6.737 63.895 45.833 6.911 68.678-59.007 12.509-63.314-1.878-.144-2.098.42-5.772-.581z" inkscape:connector-curvature="0" style="fill:#7f12b7;fill-opacity:1;fill-rule:evenodd;stroke:none;stroke-width:2.53752398;stroke-linejoin:round" sodipodi:nodetypes="cssc"/><path d="M51.234 25.245c-.146 1.829 5.058 4.01 5.807 1.584C59.069 13.993 72.937 8.907 78.439 8.448c15.057-2.292 2.336-9.333-4.906-3.602-3.186.916-14.478 4.584-22.299 20.4z" inkscape:connector-curvature="0" style="fill:#51391b;fill-opacity:1;fill-rule:evenodd;stroke:none;stroke-width:2.53752398;stroke-linejoin:round" sodipodi:nodetypes="ccccc"/><path d="M52.552 25.964c-.146 1.829 2.901 2.931 3.65.506C58.23 13.634 71.978 7.828 77.48 7.37c12.66-1.693 2.935-7.176-4.307-1.446-3.186.917-12.8 4.225-20.62 20.04z" inkscape:connector-curvature="0" style="fill:#634217;fill-opacity:1;fill-rule:evenodd;stroke:none;stroke-width:2.53752398;stroke-linejoin:round" sodipodi:nodetypes="ccccc"/><path style="color:#000;font-style:normal;font-variant:normal;font-weight:400;font-stretch:normal;font-size:medium;line-height:normal;font-family:sans-serif;text-indent:0;text-align:start;text-decoration:none;text-decoration-line:none;text-decoration-style:solid;text-decoration-color:#000;letter-spacing:normal;word-spacing:normal;text-transform:none;direction:ltr;block-progression:tb;writing-mode:lr-tb;baseline-shift:baseline;text-anchor:start;white-space:normal;clip-rule:nonzero;display:inline;overflow:visible;visibility:visible;opacity:1;isolation:auto;mix-blend-mode:normal;color-interpolation:sRGB;color-interpolation-filters:linearRGB;solid-color:#000;solid-opacity:1;fill:#621788;fill-opacity:1;fill-rule:evenodd;stroke:none;stroke-width:3;stroke-linecap:butt;stroke-linejoin:miter;stroke-miterlimit:4;stroke-dasharray:none;stroke-dashoffset:0;stroke-opacity:1;color-rendering:auto;image-rendering:auto;shape-rendering:auto;text-rendering:auto;enable-background:accumulate" d="M44.86 25.935c1.278.471 4.722 1.897 6.953 2.109 2.232.212 5.616.276 6.54-2.344-4.23.646-9.855.252-13.493.235z" inkscape:connector-curvature="0" sodipodi:nodetypes="cscc"/></g></svg>