<?xml version="1.0" encoding="UTF-8" standalone="no"?>
<!-- Created with Inkscape (http://www.inkscape.org/) -->

<svg
   xmlns:dc="http://purl.org/dc/elements/1.1/"
   xmlns:cc="http://creativecommons.org/ns#"
   xmlns:rdf="http://www.w3.org/1999/02/22-rdf-syntax-ns#"
   xmlns:svg="http://www.w3.org/2000/svg"
   xmlns="http://www.w3.org/2000/svg"
   xmlns:sodipodi="http://sodipodi.sourceforge.net/DTD/sodipodi-0.dtd"
   xmlns:inkscape="http://www.inkscape.org/namespaces/inkscape"
   width="36.460999"
   height="34.539001"
   viewBox="0 0 36.460996 34.539"
   id="svg3860"
   version="1.1"
   inkscape:version="0.91 r13725"
   sodipodi:docname="suitcase.svg">
  <defs
     id="defs3862" />
  <sodipodi:namedview
     id="base"
     pagecolor="#ffffff"
     bordercolor="#666666"
     borderopacity="1.0"
     inkscape:pageopacity="0.0"
     inkscape:pageshadow="2"
     inkscape:zoom="2.6619354"
     inkscape:cx="158.99814"
     inkscape:cy="0.55515986"
     inkscape:document-units="px"
     inkscape:current-layer="AFRICA"
     showgrid="false"
     units="px"
     inkscape:window-width="1600"
     inkscape:window-height="840"
     inkscape:window-x="0"
     inkscape:window-y="31"
     inkscape:window-maximized="1" />
  <metadata
     id="metadata3865">
    <rdf:RDF>
      <cc:Work
         rdf:about="">
        <dc:format>image/svg+xml</dc:format>
        <dc:type
           rdf:resource="http://purl.org/dc/dcmitype/StillImage" />
        <dc:title />
      </cc:Work>
    </rdf:RDF>
  </metadata>
  <g
     inkscape:label="Layer 1"
     inkscape:groupmode="layer"
     id="layer1"
     transform="translate(0,-1017.8232)">
    <g
       style="overflow:visible"
       id="AFRICA"
       transform="matrix(1.1808672,0,0,1.1808672,-0.02358932,1018.2037)">
      <g
         transform="matrix(0.04513032,0,0,0.04608729,-4.228774,1.2249947)"
         id="g7447-2-6">
        <path
           style="fill:#ff6f14;fill-opacity:1;stroke:#000000;stroke-width:31.3457222;stroke-linecap:round;stroke-miterlimit:4;stroke-dasharray:none;stroke-opacity:1"
           d="m 445.12459,-17.818386 c -8.83619,-0.610146 -35.35938,6.263549 -44.31611,8.8147951 C 343.48582,7.323904 312.39608,60.880318 327.40993,123.21833 l 37.39172,5.42449 c 0.42056,4.57393 0.96875,8.97384 2.07732,13.56122 l 158.56856,-0.67806 c 1.08154,-4.5429 1.67294,-8.92263 2.07732,-13.56122 l 27.69757,4.74642 c 4.57032,-19.26127 14.66863,-17.3883 0.69244,-65.771925 -14.92478,-51.667824 -25.95285,-78.90006 -110.79027,-84.757641 z m -17.31098,54.922952 c 5.95764,-1.679205 36.3525,9.520412 42.23879,9.492855 31.78617,-0.148414 36.58228,10.80862 45.00855,45.430096 3.08262,12.666403 3.03986,25.971153 0,38.649483 l -14.54123,0 c -0.269,3.05334 -0.6654,6.50266 -1.38488,9.49286 l -105.25075,0 c -0.73742,-3.01949 -1.10502,-6.48205 -1.38488,-9.49286 l -15.23366,0.67806 c -9.98663,-41.032786 12.41959,-83.50328 50.54806,-94.250494 z"
           id="path7406-0-91"
           inkscape:connector-curvature="0" />
      </g>
      <rect
         ry="0.60014707"
         y="6.8229327"
         x="0.52106792"
         height="21.543943"
         width="29.875004"
         id="rect7451-4-5"
         style="fill:#b7b2a6;fill-opacity:1;stroke:#000000;stroke-width:1;stroke-linecap:round;stroke-miterlimit:4;stroke-dasharray:none;stroke-opacity:1" />
      <g
         transform="matrix(0.05735485,0,0,0.08747947,-8.1481164,-12.387766)"
         id="g1695-7-4" />
      <path
         sodipodi:nodetypes="cccc"
         inkscape:connector-curvature="0"
         id="path7455-1-7"
         d="M 0.61675178,12.937661 C 0.67412877,11.320168 0.4164884,8.5560174 0.84342766,7.0928445 2.4981654,6.7160389 4.1334636,6.9228111 6.0852684,7.0871849 5.8880762,11.188385 3.4517147,12.653539 0.61675178,12.937661 Z"
         style="fill:#ff6f14;fill-opacity:1;stroke:#000000;stroke-width:0.93868089;stroke-linecap:butt;stroke-linejoin:miter;stroke-miterlimit:4;stroke-dasharray:none;stroke-opacity:1" />
      <path
         sodipodi:nodetypes="cccc"
         inkscape:connector-curvature="0"
         id="path7455-2-6-3"
         d="M 6.0807569,28.381366 C 4.5481654,28.329786 2.2446858,28.71376 1.3704501,27.888298 0.51418121,27.80542 0.42817071,25.087697 0.58391604,23.333228 4.4698586,23.510468 5.8115495,25.833022 6.0807569,28.381366 Z"
         style="fill:#ff6f14;fill-opacity:1;stroke:#000000;stroke-width:1;stroke-linecap:butt;stroke-linejoin:miter;stroke-miterlimit:4;stroke-dasharray:none;stroke-opacity:1" />
      <path
         sodipodi:nodetypes="cccc"
         inkscape:connector-curvature="0"
         id="path7455-2-0-3-8"
         d="m 30.302156,23.345993 c -0.04981,1.358275 0.376894,3.471232 -0.420424,4.246038 -0.839419,0.976609 -2.760931,0.763599 -4.455569,0.625573 0.171191,-3.443934 2.414567,-4.633019 4.875993,-4.871611 z"
         style="fill:#ff6f14;fill-opacity:1;stroke:#000000;stroke-width:1;stroke-linecap:butt;stroke-linejoin:miter;stroke-miterlimit:4;stroke-dasharray:none;stroke-opacity:1" />
      <path
         sodipodi:nodetypes="cccc"
         inkscape:connector-curvature="0"
         id="path7455-2-2-5-91"
         d="m 24.935092,6.914772 c 1.47407,0.058557 3.893672,-0.00681 5.029348,0.2425423 0.617637,1.1833586 0.407432,3.4973617 0.257621,5.4895347 -3.737587,-0.201254 -5.028048,-2.8384807 -5.286969,-5.732077 z"
         style="fill:#ff6f14;fill-opacity:1;stroke:#000000;stroke-width:1;stroke-linecap:butt;stroke-linejoin:miter;stroke-miterlimit:4;stroke-dasharray:none;stroke-opacity:1" />
    </g>
  </g>
</svg>
