<?xml version="1.0" encoding="UTF-8" standalone="no"?>
<!-- Created with Inkscape (http://www.inkscape.org/) -->

<svg
   width="90.529327"
   height="52.036289"
   viewBox="0 0 90.529327 52.036289"
   version="1.1"
   id="svg1058"
   xmlns="http://www.w3.org/2000/svg"
   xmlns:svg="http://www.w3.org/2000/svg"
   xmlns:rdf="http://www.w3.org/1999/02/22-rdf-syntax-ns#"
   xmlns:cc="http://creativecommons.org/ns#"
   xmlns:dc="http://purl.org/dc/elements/1.1/">
  <defs
     id="defs1052" />
  <metadata
     id="metadata1055">
    <rdf:RDF>
      <cc:Work
         rdf:about="">
        <dc:format>image/svg+xml</dc:format>
        <dc:type
           rdf:resource="http://purl.org/dc/dcmitype/StillImage" />
      </cc:Work>
    </rdf:RDF>
  </metadata>
  <g
     id="layer5"
     style="display:inline"
     transform="translate(-195.97854,-146.79455)">
    <path
       style="fill:#e7363d;fill-opacity:1;fill-rule:nonzero;stroke:#505050;stroke-width:0.5;stroke-linecap:round;stroke-linejoin:round;stroke-miterlimit:4;stroke-dasharray:none;stroke-opacity:1"
       id="path280-5"
       d="m 272.09564,186.89495 -0.31933,0.065 -0.0567,-0.062 0.64459,-0.2902 h 0.11023 l 0.0385,0.04 -0.33373,0.1363 z m -54.60785,-0.1818 -0.17123,0.06 -0.25244,-0.1732 0.0673,-0.1363 0.14341,-0.094 0.13431,0.1732 z m 68.07909,-4.4351 -0.14698,0.088 -0.0796,-0.313 0.11771,-0.3049 0.1424,-0.1761 0.28188,-0.028 0.18537,-0.057 0.0236,0.077 -0.15266,0.2357 z m 0.64071,-2.6579 0.0503,0.1363 -0.0492,-0.028 -0.0646,-0.1023 -0.0469,-0.1306 h 0.0392 l 0.0345,0.045 z m -56.19088,-1.0549 -0.0826,0.2328 -0.21496,-0.094 -0.0772,-0.1477 -0.0142,-0.2413 0.11926,-0.04 0.17293,0.1022 0.0358,0.068 z m -9.37875,-7.2135 h -0.0616 l -0.14538,-0.1505 -0.0642,-0.3697 0.029,-0.04 0.27402,0.4583 -0.006,0.057 z m -5.37765,-0.6886 -0.038,0.1335 -0.85467,-0.5311 0.20559,-0.051 0.23853,0.037 z m 3.21302,-1.7319 0.0809,0.3181 -0.14567,-0.048 -0.19083,-0.1733 -0.13062,-0.2214 0.0114,-0.099 0.0256,-0.028 0.26976,0.1306 z m -4.23074,1.3 -0.0571,0.031 -0.24279,-0.3286 -0.0358,-0.2243 -0.0994,-0.096 -0.24506,-0.074 0.21155,-0.4586 0.17861,-0.9498 0.0787,0.1732 -0.1894,0.9623 0.009,0.125 0.0886,0.1164 0.0954,0.1988 0.0114,0.2158 0.16697,0.1988 z m 2.71748,-4.1882 0.0358,0.1023 -0.0199,0.031 -0.11585,-0.071 -0.1965,0.4245 -0.0574,0.04 0.11841,-0.5816 0.12409,-0.082 0.13744,-0.028 z m -11.55812,-5.8177 -0.0389,0.091 -0.4789,-0.1903 0.26266,-0.3311 -0.0386,-0.347 0.11472,-0.074 0.10393,0.1136 0.13744,0.4424 z m -8.72374,-2.4776 -0.12125,0.1079 -0.32542,-0.5923 -0.003,-0.142 0.0954,-0.071 h 0.1576 l 6.8e-4,0.1476 0.13205,0.125 0.0517,0.1221 z m 17.15037,-0.1789 -0.21382,0.6701 h -0.21837 l -0.4509,-0.2129 -0.048,-0.1306 0.17378,-0.7775 0.13148,-0.1023 0.39323,-0.105 0.0613,0.097 0.0417,0.23 z m -2.70484,-0.1335 -0.0199,0.051 -0.28953,-0.176 -0.65762,-0.5989 -0.23938,-0.2999 -0.0392,-0.1419 0.0199,-0.3135 0.22518,0.037 0.26124,0.2101 0.11387,0.1931 0.006,0.2243 0.48751,0.1051 0.0687,0.4824 z m -4.3688,-7.5346 h -0.094 l -0.17606,-0.1306 0.0142,-0.1193 h 0.0383 l 0.17605,0.1051 0.0599,0.094 z m 4.98403,-0.598 1.34657,0.4203 1.34674,0.4202 1.34674,0.4203 1.3466,0.4202 h 1.00369 1.00358 1.00371 1.00358 1.00369 1.00357 1.00372 1.00357 l 0.002,-0.3194 0.002,-0.3195 0.002,-0.3191 0.002,-0.3195 h 0.62409 0.6242 0.62438 0.6242 0.6242 0.62424 0.6242 0.62423 0.0227 0.0255 l 0.25301,0.2442 0.25926,0.3814 0.30571,0.2669 0.35206,0.1505 0.6002,0.445 0.84817,0.7391 0.67634,0.4927 0.50457,0.247 0.33885,0.213 0.17293,0.1789 0.23285,0.3853 0.43883,0.8897 v 0.4083 l 0.16782,0.3868 0.3357,0.5014 0.29353,0.2954 0.25102,0.088 0.27459,0.176 0.29796,0.2669 0.34317,0.1789 0.38852,0.091 0.5366,0.2386 0.68437,0.3867 0.46922,0.1988 h 0.25386 l 0.22234,-0.1249 0.19054,-0.2556 0.18741,-0.1647 0.18401,-0.074 0.0747,-0.1193 -0.0346,-0.1618 0.12466,-0.3652 0.28339,-0.5679 0.3386,-0.3078 0.39376,-0.048 0.25727,-0.1079 0.12097,-0.1647 0.21042,-0.028 0.3006,0.1306 0.48889,0.082 0.67748,0.037 h 0.39959 l 0.12182,-0.062 h 0.0633 l 0.006,0.068 0.10024,0.028 h 0.19565 l 0.17037,0.096 0.21808,0.3081 0.75125,0.4929 9.7e-4,3e-4 0.0633,0.1704 0.26181,0.2442 0.4814,0.3754 0.27232,0.3237 0.0633,0.2726 0.24591,0.4299 0.42816,0.5884 0.19082,0.3169 -0.0466,0.045 0.0338,0.1647 0.11416,0.2854 0.2124,0.2414 0.31045,0.1987 0.31389,0.3553 0.31739,0.5128 0.38449,0.3899 0.45131,0.2669 0.25554,0.2499 0.0598,0.23 -0.005,0.1959 -0.0688,0.1647 0.0291,0.1562 0.12687,0.1477 0.0423,0.1817 -0.0496,0.2499 0.003,0.071 1.4e-4,3e-4 0.0367,0.057 0.40071,0.4313 0.2059,0.3487 0.16347,0.5566 h 8.3e-4 l 0.18262,0.3328 0.26261,0.1363 0.40348,0.051 0.30656,0.1164 0.20965,0.1817 0.26439,0.1108 0.31918,0.037 0.30601,0.1192 0.29269,0.2017 0.54588,0.1334 0.79906,0.062 0.60813,0.1647 0.41734,0.2641 0.18358,0.054 h 0.0496 l 0.0239,-0.04 0.0315,-0.074 0.16154,-0.085 0.3849,-0.057 -0.0517,0.5867 -0.17165,0.4813 -0.56557,1.0004 -0.23571,0.6207 -0.45603,1.7733 -0.14017,1.1626 -0.0328,0.5472 -0.0399,0.077 0.0434,0.08 -0.10926,1.2099 0.0586,1.0328 -0.0373,0.159 -0.16569,0.3115 -0.11674,0.4311 0.046,0.1902 -0.002,0.1335 0.17069,0.6559 0.0542,0.4927 0.50691,0.8442 0.28466,0.2945 0.35314,0.2556 0.12963,0.1448 -0.0635,0.3586 -0.14391,0.1818 -0.0614,0.2879 -0.0709,-0.2385 0.0275,-0.309 0.11245,-0.1647 0.004,-0.1221 -0.20769,-0.1306 -0.37991,-0.4251 -0.46407,-0.7513 0.33013,1.2011 0.11341,0.1931 0.0882,0.079 0.14766,0.085 0.0383,0.1306 0.001,0.096 0.40736,0.8349 0.46047,0.8629 0.0244,0.2357 0.18426,0.2899 1.17203,1.2117 0.71739,0.9044 0.24902,0.8593 0.1506,0.2669 0.0732,0.3666 0.47018,0.4106 0.14365,0.2641 0.25193,0.1476 0.2034,0.4447 0.3831,0.2613 h -0.0915 l -0.3347,-0.1307 0.0224,0.085 0.28189,0.1846 0.5517,0.1818 0.13769,5e-4 -0.21754,-0.094 -0.18428,-0.1278 0.0645,-0.028 0.38532,0.1591 1.07789,0.051 0.4746,0.3694 0.61493,0.159 0.33082,0.4717 0.38463,0.4929 0.2454,0.028 h 0.19162 l 0.57721,-0.082 0.89694,-0.3101 0.30878,-0.1505 0.60217,-0.2073 0.92121,-0.037 0.28561,0.057 0.68883,-0.1278 0.32847,-0.159 0.11399,-0.142 0.0535,-0.1051 0.63835,-0.1505 0.12577,-0.031 0.64696,-0.028 0.31224,-0.054 0.36757,-0.031 0.26525,0.2215 -2.8e-4,0.1079 -0.17665,0.1023 0.0826,0.099 0.31405,0.1647 0.57721,0.065 0.18662,-0.028 0.26553,-0.2414 0.46921,-0.2357 -0.01,-0.2726 -0.0839,-0.1505 h -0.13631 l -0.0326,-0.082 0.0952,-0.2016 -0.025,-0.068 -0.29104,0.1931 -0.0671,-3e-4 0.0322,-0.091 0.0602,-0.071 0.85396,-0.4197 0.21865,-0.1732 0.29506,-0.1505 0.6127,-0.5694 0.13088,-1.0725 0.1223,-0.1874 0.40612,-0.3291 0.0437,-0.099 0.0264,-0.2243 -0.0114,-0.5631 0.023,-0.4427 -0.0165,-0.5009 0.0729,-0.447 0.0661,-0.1249 0.23296,-0.7153 0.48333,-0.3166 0.83844,-0.374 0.19272,-0.062 2.67226,-0.3961 0.37491,-0.097 0.45936,-0.2584 0.33567,-0.088 h 0.61244 l 0.18815,-0.034 0.037,-0.034 9.7e-4,-0.034 0.11287,-0.034 0.3544,0.034 0.66193,0.1533 0.24111,0.04 0.59163,0.1789 0.65195,0.071 0.0936,-0.031 0.0861,-0.054 0.0661,-0.1051 -0.0681,-0.091 h -0.0634 l -0.11037,0.048 H 284.555 l -0.25817,-0.074 0.0516,-0.062 h 0.26343 l 0.16834,-0.031 0.24985,-0.1107 0.26607,0.082 0.34941,0.3674 0.24889,0.1164 0.0199,0.5322 0.0376,0.097 0.0911,0.1391 -0.12423,0.4129 -0.13962,0.341 -0.1747,0.2812 -0.37866,0.4407 -0.45908,0.3521 -0.56834,0.7834 -0.13004,0.3669 0.004,0.2945 0.0962,0.2839 -0.0278,0.1051 -0.0695,0.1051 h -0.11548 l -0.22408,0.1363 -0.28936,0.4043 -0.007,0.1221 0.12716,0.1136 0.16473,-0.054 h 0.21478 l 0.12006,-0.034 h 0.12673 l -0.0284,0.2329 -0.13616,0.1647 -0.0858,0.051 -0.15363,0.028 -0.17193,0.094 -0.0885,0.085 0.008,0.2669 0.0957,0.028 0.20244,-0.2016 h 0.1173 l 0.0239,0.085 -0.26261,0.6855 -0.16887,0.7039 -0.22865,0.4075 -0.0803,0.5929 -0.12009,0.2527 -0.13948,0.2499 h -0.0817 l -0.22061,-0.4739 -0.22544,-0.1221 -0.0494,-0.1164 0.12866,-0.5748 -0.0585,-0.3183 h -0.11938 l -0.15044,0.1732 -0.19883,0.1505 0.004,0.2187 -0.22836,0.3637 -0.0566,0.1193 -0.21796,-0.028 -0.25236,0.028 -0.17526,0.088 -0.17941,0.441 -0.44702,0.6215 -0.17815,0.3013 -0.14488,0.1051 -0.1148,0.04 -0.12728,-0.071 -0.30614,-0.1704 -0.236,0.082 -0.0818,0.1959 0.002,0.2471 -0.59649,-3e-4 -1.01452,-9e-4 h -1.29141 -1.24496 l -1.04254,-9e-4 -0.004,0.5554 -0.003,0.4921 -0.004,0.5538 H 273.48 272.87201 l 0.0491,0.054 0.20772,0.1051 0.26982,0.247 0.3189,0.3865 0.38629,0.3078 0.45381,0.23 0.29907,0.2244 0.14406,0.2186 0.0727,0.1874 8.2e-4,0.1534 0.16555,0.1221 0.29727,0.08 0.15362,0.1391 v 0.1136 l -0.0941,0.2556 -0.0275,0.2811 0.036,0.2555 h -0.2124 l -0.51468,3e-4 -0.78478,9e-4 -0.72182,3e-4 -0.56848,5e-4 -0.85923,9e-4 -0.23529,0.3913 -0.39128,0.6505 -0.35467,0.5898 -0.29825,0.4961 -0.0485,0.1306 -2.7e-4,0.1051 0.36784,0.4643 -0.068,0.1363 -0.12923,0.071 -0.0406,0.1079 0.008,0.176 -0.0872,0.2357 0.0281,0.1619 0.047,0.1987 -0.0771,0.1733 -0.0624,0.1675 -0.0742,0.074 -0.0834,-0.062 -0.75649,-0.772 -0.78935,-0.8491 -0.31086,-0.2783 -0.30102,-0.2101 -0.40459,-0.391 -1.06277,-0.8587 -0.54863,-0.3922 -0.51594,-0.4688 -0.46255,-0.2612 -0.457,-0.1704 -0.20272,-0.096 -0.17859,-0.1278 h -0.099 l -0.0494,0.1732 0.15973,0.088 0.19119,0.074 h 0.15141 l 0.1593,0.062 0.46879,0.2357 0.0768,0.1221 -1.33315,-0.4759 -0.54171,-0.043 -0.0589,-0.074 0.27024,-0.2499 -0.0845,-0.091 h -0.0963 l -0.28978,0.1732 h -0.10788 l -0.0187,-0.1136 0.0128,-0.1079 -0.18676,-0.1561 h -0.11856 l -0.0973,0.1079 -0.25221,0.2073 0.008,0.082 0.49637,0.088 0.17109,0.051 -0.0387,0.054 -0.42566,-9e-4 -0.52548,0.094 -0.93717,0.5741 -0.87282,0.2471 -1.25453,0.5528 -0.55392,0.028 -0.2902,0.088 -0.8437,-0.2101 -1.06971,-0.519 -1.61891,-0.1648 -1.09092,-0.6801 -1.08288,-0.2783 -0.68688,-0.6527 -0.41388,-0.028 -0.26607,-0.1051 -0.98361,-0.2357 -0.97292,-0.1562 -0.94795,-0.5704 -0.62049,-0.1818 -0.53629,-0.2271 -1.18105,-0.3874 -0.43772,-0.2158 -0.4143,-0.3322 -0.67483,-0.3439 -0.2884,-0.2871 -0.32152,-0.1022 -0.46033,-0.5407 -0.24052,-0.2271 -0.20332,-0.1079 -0.21808,-0.037 -0.62781,0.043 -0.93812,-0.2385 -0.43329,-0.06 -0.9057,-0.3524 -1.20141,-0.3933 -0.39377,-0.4515 -0.33695,-0.422 -0.60631,-0.5551 -0.37824,-0.2357 -0.65694,-0.2811 -0.36398,-0.2272 -0.56168,-0.176 -0.95268,-0.4444 -0.30308,-0.3803 -0.17747,-0.3376 -0.50747,-0.4097 -0.55571,-0.7656 -0.14283,-0.2811 -0.10791,-0.4328 -0.1292,-0.2499 -0.15192,-0.1959 0.0775,-0.142 0.28283,-0.176 0.47004,-0.04 0.33192,-0.1903 0.044,-0.1562 -0.0227,-0.096 -0.21241,-0.2385 -0.26436,-0.062 h -0.20531 l -0.0525,-0.091 0.15476,-0.099 0.17719,-0.2328 0.26124,-0.2851 0.1843,-0.2641 0.0344,-0.3709 -0.0227,-0.3711 0.0699,-0.3135 -0.63255,-0.3618 -0.0738,-0.1533 -0.19877,-0.4146 -0.34553,-0.4816 0.0114,-0.9623 -0.4154,-0.8533 -0.43038,-0.4248 -0.22262,-0.1477 -0.60438,-0.6582 -0.47615,-0.3825 -0.46641,-0.721 -0.46075,-0.4577 -0.58706,-0.7684 -0.42413,-0.3828 -1.93116,-1.2943 h 0.10876 l 0.5661,0.3175 0.0951,-0.028 0.0142,-0.1562 -0.0653,-0.1846 -0.10507,-0.045 -0.15078,0.043 -0.2036,-0.037 -0.10166,-0.062 -0.30435,-0.04 -0.38184,-0.2158 -0.16356,-0.2243 -0.017,-0.2556 -0.54685,-0.5435 -0.20758,-0.303 0.10649,0.028 0.14567,0.1221 0.14766,0.034 0.1718,9e-4 0.12466,-0.048 -0.0449,-0.091 -0.11756,-0.077 -0.79753,-0.2862 -0.26295,-0.2017 -0.65348,-0.3345 -0.15504,-0.1164 -0.10308,-0.3231 h -0.15987 l -0.14085,0.091 -0.38519,0.088 -0.0985,-0.1023 -0.0142,-0.099 0.27175,-0.105 0.2496,-0.3056 -0.006,-0.105 -0.138,0.1221 -0.20786,0.1363 -0.21496,0.077 -0.31917,0.065 -0.16328,-0.045 -0.14283,-0.068 -0.22916,-0.2669 -0.11557,-0.8673 0.20303,-0.3007 0.23711,-0.297 0.20133,-0.1761 0.11614,0.1335 0.11954,0.028 -0.084,-0.1505 -0.19792,-0.142 -0.0698,-0.1391 -0.009,-0.1278 -0.0937,-0.2385 -0.58664,-0.5012 -0.54864,0.037 -0.22347,-0.028 -0.209,-0.1903 -0.17747,-0.3217 -0.0875,-0.2698 -0.0114,-0.1419 -0.0523,-0.1449 -0.94605,-0.2356 -0.28436,-0.2017 -0.28535,-0.2527 -0.11813,-0.2073 -0.11727,-0.1533 -0.0909,-0.2669 -0.0647,-0.311 0.10563,-0.4026 0.13744,-0.196 -0.6507,-0.1448 h -0.25443 l -0.20502,0.082 -0.18542,-0.1051 -0.38423,-0.1164 -0.45726,-0.4208 -0.53743,-0.7633 -0.59177,-0.247 -0.19054,-0.2641 -0.24194,-0.2386 -0.21183,-0.2961 -0.0329,-0.1278 -0.063,-0.071 -0.29546,-0.2073 -0.33195,-0.3493 -0.086,-0.2811 -0.0892,-0.4302 -0.2212,-0.1505 -0.21808,-0.071 -0.0426,-0.2044 0.0142,-0.1136 -0.0735,-0.2158 -0.44966,-0.52 -0.22773,-0.4276 -0.12495,-0.1335 -0.11699,-0.1959 -0.0591,-0.3981 -0.18628,-0.4955 -0.36052,-0.5958 -0.30074,-0.4007 -0.14993,-0.4037 0.0664,-0.4112 -0.0511,-0.2527 -0.0386,-0.06 0.0301,-0.082 0.1,0.045 0.0849,-0.074 -0.0114,-0.2613 -0.10478,-0.08 -0.29117,-0.082 -0.12864,-0.057 -0.70808,-0.1079 -0.40516,-0.1477 -0.0284,-0.3455 -0.18997,-0.1591 -0.16896,-0.097 -0.53478,-0.2044 -0.0843,0.1051 -0.0716,0.193 -0.22206,0.043 h -0.19423 l -0.32581,-0.1334 -0.80821,-0.5086 -0.17066,-0.082 -0.25216,-0.043 -0.12409,-0.082 -0.546,-0.2669 0.10932,0.142 0.15789,0.1476 0.14084,0.4299 -0.16555,0.3101 -0.0957,1.0833 0.10563,0.2158 0.23739,0.3456 0.16385,0.5498 0.0508,0.4089 0.14794,0.3245 -0.0469,0.763 0.0562,0.2329 0.22547,0.3808 0.41762,0.3569 0.0875,0.1874 0.54921,0.2726 0.33305,0.3544 0.66149,0.483 0.20871,0.2045 0.59677,0.7533 0.0199,0.2244 0.11018,0.2754 0.3347,-0.057 0.15022,0.2101 -0.017,0.096 0.0406,0.074 0.17549,-0.028 0.15135,0.057 0.31781,0.815 0.17066,0.1108 0.21865,0.048 0.24364,0.091 0.017,0.2101 -0.009,0.1675 0.20673,0.2414 -0.0352,0.3263 0.16668,0.2754 -0.0256,0.2669 0.0687,0.213 0.51508,0.4785 0.63448,0.3805 0.13233,0.4998 0.25897,0.4566 0.26494,0.1164 0.26749,0.1902 -0.0329,0.196 0.0199,0.1221 0.35759,0.3603 0.0582,0.4592 0.30852,0.3004 0.0869,0.028 0.0682,-0.045 -0.22462,-0.3018 -0.10875,-0.196 -0.0142,-0.3089 0.0752,-0.043 0.64056,0.4884 0.0676,0.3646 0.21496,0.2073 0.017,0.2783 0.13062,0.1675 0.0395,0.2414 0.20587,0.3964 0.006,0.5512 0.11018,0.4021 0.40333,0.6167 0.32696,0.1306 0.0591,0.3028 0.33982,0.784 0.39269,0.4251 0.19565,0.3603 0.0284,0.2243 -0.14681,0.332 -0.017,0.2328 0.21354,0.7054 0.31905,0.3615 0.35635,0.088 0.0619,0.051 -0.0284,0.097 0.11984,0.085 0.13488,-0.1108 0.0656,-0.1561 -0.0684,-0.1818 -0.0114,-0.1334 0.0605,-0.097 h 0.11614 l 0.68176,0.4827 0.11444,0.1846 0.25386,0.2158 0.23228,0.2669 0.10024,0.2101 0.18571,0.1732 0.0965,0.4038 0.47404,0.1818 0.25216,0.3345 0.017,0.2129 -0.12239,0.5418 -0.10677,0.1562 -0.38269,0.23 -0.278,0.2755 -0.26863,0.1703 -0.28507,0.1023 -0.23512,-0.028 -0.2266,-0.3164 -0.26862,-0.9543 -0.18032,-0.2017 -0.12693,-0.2993 -0.20985,-0.247 -0.75897,-0.376 -0.38309,-0.3967 -0.37105,-0.264 -0.39931,-0.3834 -1.08802,-0.6352 -0.45116,-0.3237 -0.29728,-0.3203 h -0.19167 l -0.14795,0.034 -0.0562,-0.088 -0.009,-0.1647 -0.0653,-0.1079 -0.63698,-0.4828 -0.13204,-0.2669 -0.0256,-0.3098 0.1434,-0.7974 0.063,-0.4665 -0.04,-0.2414 -0.0667,-0.031 -0.0602,-0.1306 -0.0142,-0.3836 -0.15334,-0.4177 -0.57763,-0.8556 -0.42259,-0.1704 -0.37577,-0.1221 -1.02893,-0.7567 -0.2797,-0.3786 -0.0682,-0.2158 -0.0358,-0.4373 -0.1417,0.2528 -0.18883,0.1874 h -0.43619 l -0.49029,0.2129 -0.29171,-0.1987 -0.15732,-0.2244 -0.23938,-0.2726 -0.26976,-0.054 h -0.1718 l -0.32252,-0.3359 -0.26068,-0.1079 -0.37352,-0.04 -0.31764,-0.1704 -0.0977,-0.1845 -0.0528,-0.2641 -0.11812,-0.1562 -0.49901,-0.3078 -0.4064,-0.3399 -0.3827,-0.2187 -0.11273,-0.1789 -0.009,-0.1221 0.60464,0.034 0.7199,0.1306 0.34509,-0.037 0.21525,-0.1249 0.20473,-0.091 0.0327,0.097 -0.0375,0.1789 0.19763,0.1647 0.27118,0.1335 h 0.19281 l -0.18656,-0.1449 -0.11443,-0.295 0.0514,-0.1051 -0.003,-0.1476 -0.26749,0.034 -0.0375,-0.077 0.22887,-0.2244 0.26267,-0.5909 0.12551,-0.5815 -0.27545,-0.5092 -0.4649,-0.3535 -1.00743,-1.0353 -0.60177,-0.5319 -0.17436,-0.1988 -0.15958,-0.094 -0.49083,-0.1221 -0.41123,-0.2973 -0.72155,-0.4205 -0.30824,-0.2158 -0.2124,-0.5094 -0.16924,-0.071 0.0531,-0.3519 -0.0741,-0.6233 -0.12097,-0.159 -0.39073,-0.1562 -0.0931,-0.4233 -0.0199,-0.403 -0.0761,-0.2811 -0.66484,-0.4722 -0.0378,-0.23 -1.4e-4,-0.2159 -0.0676,-0.2129 -0.35509,-0.4493 -0.42898,-0.3921 -0.14936,-0.1874 -0.017,-0.38 -0.1522,-0.1022 0.0579,-0.028 h 0.14085 l 0.0801,-0.051 0.009,-0.2641 -0.64516,-0.4154 -0.18656,-0.571 -0.34387,-0.3026 -0.0806,-0.1096 -0.18486,-0.5387 0.81264,-0.061 0.8125,-0.061 0.81252,-0.061 0.8125,-0.061 0.81264,-0.061 0.8125,-0.061 0.81264,-0.061 0.81253,-0.061 0.32456,-0.03 -0.17946,0.4274 -0.1363,0.1605 1.3466,0.4202 1.34674,0.4204 1.34674,0.4202 z"
       class="polygon" />
  </g>
</svg>
