<!--Created with Inkscape (http://www.inkscape.org/)--><svg width="800" height="540" version="1.0" id="svg118" xmlns:xlink="http://www.w3.org/1999/xlink" xmlns="http://www.w3.org/2000/svg" xmlns:rdf="http://www.w3.org/1999/02/22-rdf-syntax-ns#" xmlns:cc="http://creativecommons.org/ns#" xmlns:dc="http://purl.org/dc/elements/1.1/"><metadata id="metadata4"><rdf:RDF><cc:Work><dc:format>image/svg+xml</dc:format><dc:type rdf:resource="http://purl.org/dc/dcmitype/StillImage"/><dc:date>2019</dc:date><dc:creator><cc:Agent><dc:title>Timothée Giet</dc:title></cc:Agent></dc:creator><cc:license rdf:resource="http://creativecommons.org/licenses/by-sa/4.0/"/></cc:Work><cc:License rdf:about="http://creativecommons.org/licenses/by-sa/4.0/"><cc:permits rdf:resource="http://creativecommons.org/ns#Reproduction"/><cc:permits rdf:resource="http://creativecommons.org/ns#Distribution"/><cc:requires rdf:resource="http://creativecommons.org/ns#Notice"/><cc:requires rdf:resource="http://creativecommons.org/ns#Attribution"/><cc:permits rdf:resource="http://creativecommons.org/ns#DerivativeWorks"/><cc:requires rdf:resource="http://creativecommons.org/ns#ShareAlike"/></cc:License></rdf:RDF></metadata><defs id="defs12"><linearGradient gradientTransform="translate(0 -522.362)" xlink:href="#a" id="b" x1="550.53314" y1="503.84933" x2="542.45184" y2="831.13879" gradientUnits="userSpaceOnUse"/><linearGradient id="a"><stop style="stop-color:#3cc1f1;stop-opacity:1" offset="0" id="stop7"/><stop style="stop-color:#85d8f6;stop-opacity:1" offset="1" id="stop9"/></linearGradient></defs><g style="display:inline" id="g22"><rect style="color:#000;display:inline;overflow:visible;visibility:visible;opacity:1;fill:url(#b);fill-opacity:1;fill-rule:nonzero;stroke:none;stroke-width:.5;stroke-linecap:round;stroke-linejoin:round;stroke-miterlimit:4;stroke-dasharray:none;stroke-dashoffset:0;stroke-opacity:1;marker:none;enable-background:accumulate" width="887.92407" height="442.44681" x="-64.649765" y="-26.594" ry="5.9749599" id="rect14"/><path style="fill:#d2c4a2;fill-opacity:1;fill-rule:evenodd;stroke:none;stroke-width:1px;stroke-linecap:butt;stroke-linejoin:miter;stroke-opacity:1" d="M269.71 311.807c-8.08 0-163.644 23.234-172.735 24.244 26.52 4.81 53.84 4.09 80.785 3.435 28.758-.894 212.03 21.286 260.855 24.66 31.606 2.185 186.962 5.508 293.25-.89-4.993-.444-37.112-10.433-42.119-10.832l-.402-1.71c-1.668-3.419-6.414-5.285-10.944-4.302-2.857.622-5.144 2.29-6.127 4.467l-.332-1.596c-2.315-5.374-8.906-8.307-15.197-6.763a13.337 13.337 0 0 0-4.432 1.99c-2.001-1.297-4.575-1.713-6.974-1.13-3.033.745-5.295 2.962-5.797 5.682-74.611-4.172-142.758-4.787-172.85-7.96-21.94-2.314-50.508-9.092-58.59-9.092-8.08 0-30.303 9.092-38.384 4.04-8.081-5.05-25.255-6.06-33.336-7.07-8.081-1.01-58.589-17.173-66.67-17.173zm504.61 36.373c-.943.023-1.88.12-2.789.29-1.382.26-6.15 7.12-7.31 7.684 4.03-.268 16.413-.629 20.25-.89 4.223 4.425-8.26-7.13-10.15-7.084z" id="path16"/><path style="fill:#bca76e;fill-opacity:1;fill-rule:evenodd;stroke:none;stroke-width:.995013px;stroke-linecap:butt;stroke-linejoin:miter;stroke-opacity:1" d="M86.898 336.625s82.62 10.457 103.446 9.418c20.826-1.04 136.617 19.901 183.789 23.72 47.171 3.816 430.854 11.74 465.922.08 35.068-11.66 12.529-15.509 12.529-15.509l-11.883-4.953c-5.184.455-11.682.944-18.836 1.447-1.386.342-2.733.747-3.933 1.434-2.234 1.244-4.477 2.454-7.123 1.965-4.204-1.49-8.725-.099-12.684-.207-2.647-4.157-7.705 1.913-11.742 1.035-3.295-1.298-7.56.138-11.75.242-3.042-1.067-47.984 2.68-52.125 2.648-4.161.5-8.793-.436-12.4-2.187-4.012 2.64-9.256 4-14.108 4.455-2.158-2.427-7.55-.939-10.65-3.03a313.957 313.957 0 0 1-4.864-.658c-109.141 5.232-208.768 9.91-241.87 7.622-48.826-3.375-232.098-25.555-260.856-24.66-28.758.894-90.862-2.862-90.862-2.862z" id="path18"/><path style="fill:#c7b585;fill-opacity:1;fill-rule:evenodd;stroke:none;stroke-width:1px;stroke-linecap:butt;stroke-linejoin:miter;stroke-opacity:1" d="m-67.68 349.184-1.01 222.232 903.077-6.06s9.78-141.356 6.115-198.386c-46.917 10.735-425.678.937-471.971-2.81-93.792-6.01-180.448-29.402-292.526-26.545-54.341 3.417-128.793 4.485-143.685 11.57z" id="path20"/></g><g style="display:inline" id="g116"><path style="fill:#986d4d;fill-opacity:1;stroke:none;stroke-width:1.14333px;stroke-linecap:butt;stroke-linejoin:miter;stroke-opacity:1" d="M296.385 183.66s-2.02-5.885-6.113-7.825c-4.094-1.94-17.245.385-17.245.385s-.918 233.388-.025 235.542c.893 2.154 13.517 1.454 16.195 1.095 2.678-.36 5.277-3.61 4.875-5.376-.787-3.448 2.16-221.845 2.313-223.82z" id="path24"/><path style="fill:#c9956f;fill-opacity:1;stroke:none;stroke-width:1px;stroke-linecap:butt;stroke-linejoin:miter;stroke-opacity:1" d="M292.884 181.436s-.302-2.232-3.15-3.5c-2.85-1.27-14.005 0-14.005 0s-1.05 229.323-.35 231.424c.7 2.1 10.853 1.75 12.954 1.4 2.1-.35 4.167-2.83 3.85-4.551-.616-3.362.58-222.846.7-224.773z" id="path26"/><path style="fill:#986d4d;fill-opacity:1;stroke:none;stroke-width:1.14333px;stroke-linecap:butt;stroke-linejoin:miter;stroke-opacity:1" d="M504.611 183.66s2.02-5.885 6.114-7.825c4.094-1.94 17.245.385 17.245.385s.917 233.388.025 235.542c-.893 2.154-13.517 1.454-16.195 1.095-2.678-.36-5.278-3.61-4.875-5.376.787-3.448-2.161-221.845-2.314-223.82z" id="path28"/><path style="fill:#c9956f;fill-opacity:1;stroke:none;stroke-width:1px;stroke-linecap:butt;stroke-linejoin:miter;stroke-opacity:1" d="M508.113 181.436s.301-2.232 3.15-3.5c2.85-1.27 14.005 0 14.005 0s1.05 229.323.35 231.424c-.7 2.1-10.853 1.75-12.954 1.4-2.1-.35-4.167-2.83-3.851-4.551.617-3.362-.58-222.846-.7-224.773z" id="path30"/><path style="fill:#986d4d;fill-opacity:1;stroke:none;stroke-width:1.07292px;stroke-linecap:butt;stroke-linejoin:miter;stroke-opacity:1" d="M273.138 181.621c-1.206 6.505-3.69 18.962-3.618 25.64 6.94 8.367 167.386 3.882 255.177 5.823 4.169-.99 8.953-32.166 1.986-30.94-44.323 1.098-240.92-2.045-253.545-.523z" id="path32"/><path style="fill:#d0a17e;fill-opacity:1;stroke:none;stroke-width:1px;stroke-linecap:butt;stroke-linejoin:miter;stroke-opacity:1" d="M276.202 183.325c-1.177 5.79-3.6 16.88-3.531 22.825 6.772 7.448 163.34 3.456 249.009 5.184 4.068-.883 8.736-28.635 1.937-27.543-43.25.977-235.094-1.82-247.415-.466z" id="path34"/><circle style="opacity:1;vector-effect:none;fill:#707070;fill-opacity:1;stroke:none;stroke-width:1.20262;stroke-linecap:round;stroke-linejoin:miter;stroke-miterlimit:4;stroke-dasharray:none;stroke-dashoffset:0;stroke-opacity:1" cx="284.3967" cy="195.25273" r="4" id="circle36"/><circle style="opacity:1;vector-effect:none;fill:#c4c4c4;fill-opacity:1;stroke:none;stroke-width:.846287;stroke-linecap:round;stroke-linejoin:miter;stroke-miterlimit:4;stroke-dasharray:none;stroke-dashoffset:0;stroke-opacity:1" cx="284.3967" cy="194.95644" r="2.814815" id="circle38"/><circle style="opacity:1;vector-effect:none;fill:#707070;fill-opacity:1;stroke:none;stroke-width:1.20262;stroke-linecap:round;stroke-linejoin:miter;stroke-miterlimit:4;stroke-dasharray:none;stroke-dashoffset:0;stroke-opacity:1" cx="518.39673" cy="197.25273" r="4" id="circle40"/><circle style="opacity:1;vector-effect:none;fill:#c4c4c4;fill-opacity:1;stroke:none;stroke-width:.846287;stroke-linecap:round;stroke-linejoin:miter;stroke-miterlimit:4;stroke-dasharray:none;stroke-dashoffset:0;stroke-opacity:1" cx="518.39673" cy="196.95644" r="2.814815" id="circle42"/><path style="fill:#986d4d;fill-opacity:1;stroke:none;stroke-width:1.07292px;stroke-linecap:butt;stroke-linejoin:miter;stroke-opacity:1" d="M272.885 241.85c-1.092 6.526-2.655 20.075-2.467 26.75 7.086 8.244 167.428-.11 255.24.288 4.15-1.064 7.686-32.319.742-30.97-44.296 1.877-240.918 2.19-253.515 3.932z" id="path44"/><path style="fill:#d0a17e;fill-opacity:1;stroke:none;stroke-width:1px;stroke-linecap:butt;stroke-linejoin:miter;stroke-opacity:1" d="M275.978 243.5c-1.075 5.81-2.602 17.991-2.43 23.934 6.903 7.328 163.376-.465 249.063-.243 4.05-.954 7.53-28.784.753-27.572-43.228 1.737-235.09 2.31-247.386 3.881z" id="path46"/><circle style="opacity:1;vector-effect:none;fill:#707070;fill-opacity:1;stroke:none;stroke-width:1.20262;stroke-linecap:round;stroke-linejoin:miter;stroke-miterlimit:4;stroke-dasharray:none;stroke-dashoffset:0;stroke-opacity:1" cx="279.85144" cy="260.24011" r="4" transform="rotate(-1.007)" id="circle48"/><path style="fill:#986d4d;fill-opacity:1;stroke:none;stroke-width:1.07292px;stroke-linecap:butt;stroke-linejoin:miter;stroke-opacity:1" d="M526.892 238.03c3.287-4.314 3.59-18.74 3.085-25.71-7.972-7.792-170.1-.828-255.243-2.283-4.147 1.078-8.283 34.096-1.344 32.725 44.29-2.016 240.91-2.95 253.502-4.733z" id="path50"/><circle style="opacity:1;vector-effect:none;fill:#c4c4c4;fill-opacity:1;stroke:none;stroke-width:.846287;stroke-linecap:round;stroke-linejoin:miter;stroke-miterlimit:4;stroke-dasharray:none;stroke-dashoffset:0;stroke-opacity:1" cx="279.85144" cy="259.94382" r="2.814815" transform="rotate(-1.007)" id="circle52"/><path style="fill:#d9b08b;fill-opacity:1;stroke:none;stroke-width:1px;stroke-linecap:butt;stroke-linejoin:miter;stroke-opacity:1" d="M523.793 236.39c2.81-3.186 3.26-16.936 3.057-22.895-7.364-6.648-165.755 2.276-250.113.33-4.05.967-7.09 28.46-.316 27.227 43.222-1.873 235.082-3.053 247.372-4.663z" id="path54"/><circle style="opacity:1;vector-effect:none;fill:#707070;fill-opacity:1;stroke:none;stroke-width:1.20262;stroke-linecap:round;stroke-linejoin:miter;stroke-miterlimit:4;stroke-dasharray:none;stroke-dashoffset:0;stroke-opacity:1" cx="-513.03412" cy="-235.32133" r="4" transform="rotate(178.812)" id="circle56"/><circle style="opacity:1;vector-effect:none;fill:#c4c4c4;fill-opacity:1;stroke:none;stroke-width:.846287;stroke-linecap:round;stroke-linejoin:miter;stroke-miterlimit:4;stroke-dasharray:none;stroke-dashoffset:0;stroke-opacity:1" cx="-513.04865" cy="-234.91756" r="2.814815" transform="rotate(178.812)" id="circle58"/><circle style="opacity:1;vector-effect:none;fill:#707070;fill-opacity:1;stroke:none;stroke-width:1.20262;stroke-linecap:round;stroke-linejoin:miter;stroke-miterlimit:4;stroke-dasharray:none;stroke-dashoffset:0;stroke-opacity:1" cx="-278.33401" cy="-233.30681" r="4" transform="rotate(178.812)" id="circle60"/><circle style="opacity:1;vector-effect:none;fill:#c4c4c4;fill-opacity:1;stroke:none;stroke-width:.846287;stroke-linecap:round;stroke-linejoin:miter;stroke-miterlimit:4;stroke-dasharray:none;stroke-dashoffset:0;stroke-opacity:1" cx="-278.34854" cy="-232.90303" r="2.814815" transform="rotate(178.812)" id="circle62"/><circle style="opacity:1;vector-effect:none;fill:#707070;fill-opacity:1;stroke:none;stroke-width:1.20262;stroke-linecap:round;stroke-linejoin:miter;stroke-miterlimit:4;stroke-dasharray:none;stroke-dashoffset:0;stroke-opacity:1" cx="513.85144" cy="262.24011" r="4" transform="rotate(-1.007)" id="circle64"/><circle style="opacity:1;vector-effect:none;fill:#c4c4c4;fill-opacity:1;stroke:none;stroke-width:.846287;stroke-linecap:round;stroke-linejoin:miter;stroke-miterlimit:4;stroke-dasharray:none;stroke-dashoffset:0;stroke-opacity:1" cx="513.85144" cy="261.94382" r="2.814815" transform="rotate(-1.007)" id="circle66"/><path style="fill:#986d4d;fill-opacity:1;stroke:none;stroke-width:1.07292px;stroke-linecap:butt;stroke-linejoin:miter;stroke-opacity:1" d="M526.888 296.073c3.288-4.312 3.945-19.44 3.444-26.41-7.97-7.793-170.45-.184-255.593-1.669-4.147 1.076-7.945 34.793-1.004 33.424 44.29-2 240.56-3.566 253.152-5.345z" id="path68"/><path style="fill:#d9b08b;fill-opacity:1;stroke:none;stroke-width:1px;stroke-linecap:butt;stroke-linejoin:miter;stroke-opacity:1" d="M523.79 294.431c2.81-3.183 3.615-17.634 3.414-23.592-7.361-6.65-166.106 2.918-250.463.944-4.05.965-6.75 29.158.025 27.927 43.222-1.859 234.733-3.673 247.024-5.279z" id="path70"/><circle style="opacity:1;vector-effect:none;fill:#707070;fill-opacity:1;stroke:none;stroke-width:1.20262;stroke-linecap:round;stroke-linejoin:miter;stroke-miterlimit:4;stroke-dasharray:none;stroke-dashoffset:0;stroke-opacity:1" cx="-511.93277" cy="-293.17236" r="4" transform="rotate(178.832)" id="circle72"/><circle style="opacity:1;vector-effect:none;fill:#c4c4c4;fill-opacity:1;stroke:none;stroke-width:.846287;stroke-linecap:round;stroke-linejoin:miter;stroke-miterlimit:4;stroke-dasharray:none;stroke-dashoffset:0;stroke-opacity:1" cx="-511.9473" cy="-292.76859" r="2.814815" transform="rotate(178.832)" id="circle74"/><circle style="opacity:1;vector-effect:none;fill:#707070;fill-opacity:1;stroke:none;stroke-width:1.20262;stroke-linecap:round;stroke-linejoin:miter;stroke-miterlimit:4;stroke-dasharray:none;stroke-dashoffset:0;stroke-opacity:1" cx="-277.23264" cy="-291.15784" r="4" transform="rotate(178.832)" id="circle76"/><circle style="opacity:1;vector-effect:none;fill:#c4c4c4;fill-opacity:1;stroke:none;stroke-width:.846287;stroke-linecap:round;stroke-linejoin:miter;stroke-miterlimit:4;stroke-dasharray:none;stroke-dashoffset:0;stroke-opacity:1" cx="-277.24716" cy="-290.75406" r="2.814815" transform="rotate(178.832)" id="circle78"/><path style="fill:#986d4d;fill-opacity:1;stroke:none;stroke-width:1.07292px;stroke-linecap:butt;stroke-linejoin:miter;stroke-opacity:1" d="M272.838 300.3c-1.068 6.53-3.287 20.086-3.075 26.761 7.115 8.22 167.43-.703 255.243-.616 4.147-1.078 8.27-32.348 1.332-30.974-44.29 2.033-240.908 3.04-253.5 4.83z" id="path80"/><path style="fill:#d0a17e;fill-opacity:1;stroke:none;stroke-width:1px;stroke-linecap:butt;stroke-linejoin:miter;stroke-opacity:1" d="M275.938 301.94c-1.055 5.813-3.243 18.001-3.048 23.944 6.927 7.303 163.375-1.044 249.062-1.125 4.049-.968 8.13-28.813 1.356-27.577-43.22 1.89-235.08 3.142-247.37 4.757z" id="path82"/><circle style="opacity:1;vector-effect:none;fill:#707070;fill-opacity:1;stroke:none;stroke-width:1.20262;stroke-linecap:round;stroke-linejoin:miter;stroke-miterlimit:4;stroke-dasharray:none;stroke-dashoffset:0;stroke-opacity:1" cx="277.69662" cy="319.62482" r="4" transform="rotate(-1.21)" id="circle84"/><circle style="opacity:1;vector-effect:none;fill:#c4c4c4;fill-opacity:1;stroke:none;stroke-width:.846287;stroke-linecap:round;stroke-linejoin:miter;stroke-miterlimit:4;stroke-dasharray:none;stroke-dashoffset:0;stroke-opacity:1" cx="277.69662" cy="319.32849" r="2.814815" transform="rotate(-1.21)" id="circle86"/><circle style="opacity:1;vector-effect:none;fill:#707070;fill-opacity:1;stroke:none;stroke-width:1.20262;stroke-linecap:round;stroke-linejoin:miter;stroke-miterlimit:4;stroke-dasharray:none;stroke-dashoffset:0;stroke-opacity:1" cx="511.69662" cy="321.62482" r="4" transform="rotate(-1.21)" id="circle88"/><circle style="opacity:1;vector-effect:none;fill:#c4c4c4;fill-opacity:1;stroke:none;stroke-width:.846287;stroke-linecap:round;stroke-linejoin:miter;stroke-miterlimit:4;stroke-dasharray:none;stroke-dashoffset:0;stroke-opacity:1" cx="511.69662" cy="321.32849" r="2.814815" transform="rotate(-1.21)" id="circle90"/><path style="fill:#986d4d;fill-opacity:1;stroke:none;stroke-width:1.07292px;stroke-linecap:butt;stroke-linejoin:miter;stroke-opacity:1" d="M526.892 354.03c3.287-4.314 3.59-18.74 3.085-25.71-7.972-7.792-170.1-.828-255.243-2.283-4.147 1.078-8.283 34.096-1.344 32.725 44.29-2.016 240.91-2.95 253.502-4.733z" id="path92"/><path style="fill:#d9b08b;fill-opacity:1;stroke:none;stroke-width:1px;stroke-linecap:butt;stroke-linejoin:miter;stroke-opacity:1" d="M523.793 352.388c2.81-3.184 3.26-16.934 3.057-22.893-7.364-6.648-165.755 2.276-250.113.33-4.05.967-7.09 28.46-.316 27.227 43.222-1.873 235.082-3.053 247.372-4.663z" id="path94"/><circle style="opacity:1;vector-effect:none;fill:#707070;fill-opacity:1;stroke:none;stroke-width:1.20262;stroke-linecap:round;stroke-linejoin:miter;stroke-miterlimit:4;stroke-dasharray:none;stroke-dashoffset:0;stroke-opacity:1" cx="-510.629" cy="-351.29636" r="4" transform="rotate(178.812)" id="circle96"/><circle style="opacity:1;vector-effect:none;fill:#c4c4c4;fill-opacity:1;stroke:none;stroke-width:.846287;stroke-linecap:round;stroke-linejoin:miter;stroke-miterlimit:4;stroke-dasharray:none;stroke-dashoffset:0;stroke-opacity:1" cx="-510.64352" cy="-350.89258" r="2.814815" transform="rotate(178.812)" id="circle98"/><circle style="opacity:1;vector-effect:none;fill:#707070;fill-opacity:1;stroke:none;stroke-width:1.20262;stroke-linecap:round;stroke-linejoin:miter;stroke-miterlimit:4;stroke-dasharray:none;stroke-dashoffset:0;stroke-opacity:1" cx="-275.92892" cy="-349.28183" r="4" transform="rotate(178.812)" id="circle100"/><circle style="opacity:1;vector-effect:none;fill:#c4c4c4;fill-opacity:1;stroke:none;stroke-width:.846287;stroke-linecap:round;stroke-linejoin:miter;stroke-miterlimit:4;stroke-dasharray:none;stroke-dashoffset:0;stroke-opacity:1" cx="-275.94345" cy="-348.87805" r="2.814815" transform="rotate(178.812)" id="circle102"/><path style="fill:#6a9b53;fill-opacity:1;fill-rule:evenodd;stroke:none;stroke-width:1px;stroke-linecap:butt;stroke-linejoin:miter;stroke-opacity:1" d="M624.14 349.193c8.487 6.223 18.387 8.77 22.347 4.81 3.96-3.96 12.918-33.196 0-39.036-20.649-9.334-6.84 19.901-11.032 28.003-2.5 4.833-10.552-7.933-14.143-4.525-2.687 2.55 2.829 10.748 2.829 10.748z" id="path104"/><path style="fill:#7aab63;fill-opacity:1;fill-rule:evenodd;stroke:none;stroke-width:.874326px;stroke-linecap:butt;stroke-linejoin:miter;stroke-opacity:1" d="M623.835 346.09c7.757 5.204 16.808 7.333 20.428 4.021 3.62-3.31 11.81-27.758 0-32.64-18.877-7.806-6.254 16.64-10.085 23.416-2.285 4.04-9.647-6.634-12.93-3.785-2.456 2.133 2.587 8.988 2.587 8.988z" id="path106"/><path style="fill:#6a9b53;fill-opacity:1;fill-rule:evenodd;stroke:none;stroke-width:1.10079px;stroke-linecap:butt;stroke-linejoin:miter;stroke-opacity:1" d="M610.759 398.085c-7.632-25.52-19.122-116.93 1.695-129.785 57.92-35.764 20.35 102.807 23.742 125.41-11.023 10.937-25.437 4.375-25.437 4.375z" id="path108"/><path style="fill:#6a9b53;fill-opacity:1;fill-rule:evenodd;stroke:none;stroke-width:1px;stroke-linecap:butt;stroke-linejoin:miter;stroke-opacity:1" d="M612.68 344.553c-10.715 7.857-23.215 11.072-28.215 6.072-5-5-16.31-41.913 0-49.286 26.072-11.786 8.637 25.127 13.929 35.357 3.156 6.102 13.323-10.016 17.857-5.714 3.393 3.22-3.572 13.571-3.572 13.571z" id="path110"/><path style="fill:#7aab63;fill-opacity:1;fill-rule:evenodd;stroke:none;stroke-width:.838543px;stroke-linecap:butt;stroke-linejoin:miter;stroke-opacity:1" d="M607.646 343.441c-8.53 6.94-18.131 8.378-22.112 3.962-3.98-4.416-13.685-36.319-.7-42.83 20.756-10.41 6.636 23.71 11.089 32.63 4.263 8.54 9.556-3.597 13.165.203 2.702 2.844-1.442 6.035-1.442 6.035z" id="path112"/><path style="fill:#7aab63;fill-opacity:1;fill-rule:evenodd;stroke:none;stroke-width:1px;stroke-linecap:butt;stroke-linejoin:miter;stroke-opacity:1" d="M611.965 398.125c-6.428-25-16.108-114.55 1.429-127.143 48.792-35.036 17.143 100.714 20 122.857-9.286 10.714-21.429 4.286-21.429 4.286z" id="path114"/></g></svg>