<?xml version="1.0" encoding="UTF-8" standalone="no"?>
<!-- Created with Inkscape (http://www.inkscape.org/) -->

<svg
   xmlns:dc="http://purl.org/dc/elements/1.1/"
   xmlns:cc="http://creativecommons.org/ns#"
   xmlns:rdf="http://www.w3.org/1999/02/22-rdf-syntax-ns#"
   xmlns:svg="http://www.w3.org/2000/svg"
   xmlns="http://www.w3.org/2000/svg"
   xmlns:sodipodi="http://sodipodi.sourceforge.net/DTD/sodipodi-0.dtd"
   xmlns:inkscape="http://www.inkscape.org/namespaces/inkscape"
   width="100"
   height="100"
   viewBox="0 0 100 100"
   id="svg2"
   version="1.1"
   inkscape:version="0.91 r13725"
   sodipodi:docname="geography.svg">
  <defs
     id="defs4" />
  <sodipodi:namedview
     id="base"
     pagecolor="#ffffff"
     bordercolor="#666666"
     borderopacity="1.0"
     inkscape:pageopacity="0.0"
     inkscape:pageshadow="2"
     inkscape:zoom="22.4"
     inkscape:cx="73.972896"
     inkscape:cy="22.878845"
     inkscape:document-units="px"
     inkscape:current-layer="layer1"
     showgrid="false"
     units="px"
     inkscape:snap-midpoints="true"
     inkscape:window-width="1024"
     inkscape:window-height="705"
     inkscape:window-x="-8"
     inkscape:window-y="-8"
     inkscape:window-maximized="1" />
  <metadata
     id="metadata7">
    <rdf:RDF>
      <cc:Work
         rdf:about="">
        <dc:format>image/svg+xml</dc:format>
        <dc:type
           rdf:resource="http://purl.org/dc/dcmitype/StillImage" />
        <dc:title></dc:title>
        <dc:date>2017</dc:date>
        <dc:creator>
          <cc:Agent>
            <dc:title>Harpreet S.</dc:title>
          </cc:Agent>
        </dc:creator>
        <cc:license
           rdf:resource="http://creativecommons.org/licenses/by-sa/4.0/" />
      </cc:Work>
      <cc:License
         rdf:about="http://creativecommons.org/licenses/by-sa/4.0/">
        <cc:permits
           rdf:resource="http://creativecommons.org/ns#Reproduction" />
        <cc:permits
           rdf:resource="http://creativecommons.org/ns#Distribution" />
        <cc:requires
           rdf:resource="http://creativecommons.org/ns#Notice" />
        <cc:requires
           rdf:resource="http://creativecommons.org/ns#Attribution" />
        <cc:permits
           rdf:resource="http://creativecommons.org/ns#DerivativeWorks" />
        <cc:requires
           rdf:resource="http://creativecommons.org/ns#ShareAlike" />
      </cc:License>
    </rdf:RDF>
  </metadata>
  <g
     inkscape:label="Layer 1"
     inkscape:groupmode="layer"
     id="layer1"
     transform="translate(0,-952.36216)">
    <ellipse
       style="opacity:1;fill:#49b1ff;fill-opacity:1;fill-rule:evenodd;stroke:#4664bf;stroke-width:1.20000005;stroke-linecap:round;stroke-linejoin:bevel;stroke-miterlimit:4;stroke-dasharray:none;stroke-dashoffset:0;stroke-opacity:1"
       id="path4241"
       cx="32.577419"
       cy="1012.3925"
       rx="26.652386"
       ry="25.054216" />
    <path
       inkscape:connector-curvature="0"
       id="path4147"
       d="m 69.517892,988.11408 c -0.294484,-0.74999 -0.588946,-1.62498 -1.472351,-1.93747 -0.736171,-0.50002 0.07362,-1.31249 0.736171,-1.62499 1.693202,-0.74999 2.87108,-2.0625 3.828084,-3.37499 0.147224,-1.06249 1.91407,-0.99997 2.503013,-0.31249 1.030651,0.375 1.545977,1.3125 2.208539,1.99999 0.883416,0.375 0.957035,-1.125 1.914067,-0.68749 1.030655,0.18749 2.20854,0.87498 3.239194,0.12489 0.956934,-0.56249 1.545881,0.43752 1.693115,1.12501 0.294483,0.81248 -0.368089,1.56247 -0.957035,2.24996 -0.883318,0.81251 -0.441708,1.875 0.588946,2.31248 1.10427,0.68749 -0.147224,1.62499 -0.736181,2.24999 -0.515229,0.81248 -0.736083,1.81249 -1.54588,2.49998 -0.662562,0.68751 -1.766832,0.43751 -2.429394,-0.0626 -0.515327,-0.68749 -2.061305,-0.18751 -2.355774,-1.06249 -0.515327,-0.31249 -1.325124,0.12489 -2.061306,0.0626 -1.030651,0.2501 -2.282127,0.2501 -3.091924,1.00001 -0.441701,0.68749 -1.398732,1.56247 -2.355757,0.9375 -0.515327,-0.5625 0.147225,-1.18751 0.515327,-1.68749 0.441698,-0.43752 0.368078,-1.75001 -0.588946,-1.93752 z"
       style="fill:#f4a932;fill-opacity:1;fill-rule:nonzero;stroke:none" />
    <path
       inkscape:connector-curvature="0"
       id="path4149"
       d="m 69.517894,988.11417 c -0.294484,-0.75 -0.588946,-1.62499 -1.472351,-1.93748 -0.736171,-0.50002 0.07363,-1.3125 0.736171,-1.62499 1.693201,-0.74999 2.87108,-2.06249 3.828084,-3.375 0.147225,-1.06248 1.91407,-0.99997 2.503013,-0.31248 1.030651,0.375 1.545978,1.3125 2.208539,1.99999 0.883416,0.375 0.957035,-1.125 1.914067,-0.68749 1.030654,0.18749 2.20854,0.87498 3.239194,0.1249 0.956934,-0.5625 1.54588,0.43751 1.693115,1.125 0.294483,0.81247 -0.368089,1.56248 -0.957035,2.24996 -0.883319,0.81251 -0.441708,1.875 0.588946,2.31248 1.10427,0.68749 -0.147223,1.62498 -0.736181,2.24999 -0.515229,0.81248 -0.736084,1.81249 -1.54588,2.49998 -0.662561,0.68751 -1.766831,0.4375 -2.429394,-0.0626 -0.515326,-0.68749 -2.061305,-0.1875 -2.355774,-1.06248 -0.515327,-0.3125 -1.325124,0.12489 -2.061306,0.0626 -1.030649,0.25009 -2.282127,0.25009 -3.091924,1 -0.441701,0.68749 -1.398732,1.56247 -2.355757,0.9375 -0.515327,-0.5625 0.147226,-1.18751 0.515327,-1.6875 0.441698,-0.43751 0.368079,-1.75 -0.588945,-1.93751"
       style="fill:none;stroke:#28703f;stroke-width:0.10583256px;stroke-linecap:butt;stroke-linejoin:bevel;stroke-miterlimit:4;stroke-dasharray:none;stroke-opacity:1" />
    <path
       inkscape:connector-curvature="0"
       id="path4151"
       d="m 75.407284,994.92664 c 0,-0.25011 0.368088,-0.12491 0.515323,-0.0626 0.220855,0.0626 0.441709,-0.12491 0.736182,-0.0626 0.220853,0 0.588942,-0.0626 0.73618,0.18749 0.220854,0.12491 0.588943,0 0.809797,0.18751 0.294484,0.0626 0.441708,0.3125 0.147225,0.4375 -0.07363,0.1875 -0.147225,0.375 -0.36809,0.3125 -0.147223,0.1249 -0.294483,0.1249 -0.368092,0 -0.220854,0 -0.220854,0.375 -0.441707,0.1249 -0.147225,-0.1875 -0.294483,0.3125 -0.515324,0.063 -0.294483,0 -0.515327,-0.1875 -0.588946,-0.4375 0,-0.2501 -0.220854,-0.375 -0.220854,-0.62499 -0.07363,-0.18751 -0.294484,0 -0.441708,-0.12491 z"
       style="fill:#f4a932;fill-opacity:1;fill-rule:nonzero;stroke:#28703f;stroke-width:0.10583256px;stroke-linecap:butt;stroke-linejoin:bevel;stroke-miterlimit:4;stroke-dasharray:none;stroke-opacity:1" />
    <path
       inkscape:connector-curvature="0"
       id="path4153"
       d="m 82.221381,1029.2597 c 0.542362,0.4071 0.88139,1.6868 0.542362,2.3266 -0.338944,0.5234 -1.288227,0.4073 -1.423838,1.0469 -0.95164,0.6384 -0.957802,1.113 -1.865894,1.8132 -0.04706,-0.085 -0.703222,0.1406 -0.671004,0.6879 -0.131262,0.8795 -0.785594,0.8142 -1.124617,0.9307 -0.137963,1.6829 -0.347707,1.7736 -0.685777,2.4858 -2.229884,2.5173 -0.560013,0.6635 -2.229884,2.5173 -1.966344,0.349 -1.559536,1.7449 -2.576598,1.6288 -3.887011,-1.5442 -1.412872,-0.9607 -3.051245,-1.1059 -0.67806,-0.058 -2.614984,1.4792 -3.632055,1.1884 -1.084888,-0.349 1.011569,-1.6964 1.011569,-2.5093 -0.686767,-1.0804 1.33218,-1.8201 2.417067,-2.4016 1.288306,-0.5817 0.745856,-1.8031 1.966355,-2.6175 1.152705,-0.8725 -0.745856,-4.1881 3.186846,-2.3848 0.610255,0.2336 0.949287,-1.4542 1.762959,-1.745 0.745865,-1.1634 0.813672,0.3491 1.762955,-0.058 1.559538,-0.5817 3.322497,-2.7341 4.610809,-1.8033 z"
       style="fill:#598711;fill-opacity:1;fill-rule:evenodd;stroke:#000000;stroke-width:0;stroke-linecap:butt;stroke-linejoin:miter;stroke-miterlimit:4;stroke-dasharray:none;stroke-opacity:1"
       sodipodi:nodetypes="ccccccccccccccccccc" />
    <path
       inkscape:connector-curvature="0"
       id="path4155"
       d="m 91.348997,1018.1955 c 1.520141,-0.2462 0.651488,-0.8615 0.723874,-1.6615 0,-0.7384 1.013428,-1.6615 0.144763,-2.523 -0.434324,-0.3691 1.085814,-1.046 0.217163,-1.3537 -0.651487,-0.2462 -0.144762,-1.0461 -1.230492,-1.1693 l 0.21706,-2.3999 c 0,0 -0.868554,-1.1076 -1.520045,-0.4308 -0.506711,0.4923 -1.013424,1.354 -2.605953,2.2154 -0.579102,0.3076 -1.158201,-2.0923 -1.882078,-1.6615 -0.28956,0.123 -0.723877,-0.9846 -1.592528,-0.5539 -0.361938,0.2463 -0.796263,-0.3077 -0.796263,0.1847 0,0.4923 -1.375367,0.1229 -1.520141,0.6768 -0.144763,0.2463 -0.723847,-0.062 -0.868623,0.1848 -0.0724,0.2461 -0.138723,0.7214 -0.138723,0.7214 -0.579091,-0.4924 0.500663,1.5555 -0.07845,1.5555 -0.579089,0 -0.86864,0.8614 -1.447739,1.0461 -0.43432,0.1228 -1.085808,-0.3693 -1.520125,-0.1847 -0.579098,0.2459 0.434317,0.5537 -0.144763,0.8614 -0.434326,0.3077 1.592508,0.3077 1.085805,0.6154 -0.361938,0.2462 -0.0724,0.7385 -0.506711,0.9847 -0.434316,0.3077 -0.361931,1.2922 -0.868642,1.5383 -0.36194,0.1847 0.868642,1.1077 0.434326,1.2308 -0.36194,0.1845 0.723864,1.2307 0.289527,1.2923 -0.723866,0.2462 2.788807,0.043 1.847779,0.043 1.22046,0.3859 2.844043,-0.8459 2.631261,-0.4565 0,0 2.279834,-0.4932 3.845496,-0.2631 0.579105,0.123 1.809693,-0.4923 2.533571,-0.4923 0.723873,0.062 1.085814,0.677 1.085814,0.677 0.434326,0.3693 1.664817,-0.677 1.664817,-0.677 z"
       style="fill:#b3b90c;fill-opacity:1;fill-rule:evenodd;stroke:#ccde21;stroke-width:0;stroke-linecap:butt;stroke-linejoin:miter;stroke-miterlimit:4;stroke-dasharray:none;stroke-opacity:1"
       sodipodi:nodetypes="ccccccccccscccscccccccccsccccc" />
    <path
       inkscape:connector-curvature="0"
       id="path4157"
       d="m 74.023249,1008.3161 c -0.441708,0 -0.999073,-0.4843 -1.219927,-0.2343 -0.220854,0.2501 0.215566,0.8447 0.141936,1.1572 0,0.3124 -0.820278,-0 -0.893898,0.3112 -0.07363,0.25 -0.457367,0.327 -0.310133,0.6395 0.147225,0.3749 -0.157836,0.221 1.093662,1.4388 0,0 1.451266,0.4362 1.672119,0.3737 0.29445,-0.063 0.0947,-0.8416 0.241927,-0.9665 0.294483,-0.375 0.368092,-0.7501 0.368092,-0.7501 0.07363,-0.1874 0.368089,0.063 0.662562,0.063 0.294449,0 0.368078,-0.3751 0.588933,-0.5625 0.294483,-0.1876 0.368091,-1.0625 0.07363,-1.3751 -0.441708,-0.4375 -1.661635,-0.1419 -2.324187,-0.079 z"
       style="fill:#b3b90c;fill-opacity:1;fill-rule:evenodd;stroke:#ccde21;stroke-width:0;stroke-linecap:butt;stroke-linejoin:miter;stroke-miterlimit:4;stroke-dasharray:none;stroke-opacity:1"
       sodipodi:nodetypes="cccccccccscccc" />
    <path
       inkscape:connector-curvature="0"
       id="path4159"
       d="m 67.162136,985.23911 c -0.294484,0.68749 0.588932,1.125 1.177878,1.49997 0.588932,0.5625 0.736171,1.375 0.809786,2.06247 0,0.68751 -1.619587,1 -0.588932,1.68749 0.515317,0.1875 1.398732,0 1.177878,0.81251 -0.368092,0.68749 -1.325117,1.24998 -1.104263,2.12501 0.883409,0.56249 1.987668,0.87498 2.576611,0 0.588937,-0.87503 1.619556,-1.3125 2.723826,-1.3125 1.030653,-0.1249 2.20854,-0.31252 3.165575,0.0626 1.10427,0.18751 1.840452,0.81251 2.723867,1.25003 0.957031,0.5625 1.987685,-0.50002 2.50301,-1.12501 0.44161,-0.50001 0.44161,-1.25001 0.956937,-1.75 0.294483,-0.5625 1.030651,-0.87499 1.325124,-1.37501 0.441708,-1.12497 -1.693212,-1.31246 -1.472359,-2.37495 0.07363,-1.0625 1.545978,-1.62499 1.472359,-2.62497 -0.07363,-0.81251 -0.294483,-1.99998 -1.472359,-2.18749 -0.736084,0.18751 -1.472264,0.9375 -2.282061,0.37501 -0.957035,-0.31252 -2.061305,-0.43751 -3.018336,0.0626 -1.030655,0.43751 -1.10427,-1.31247 -2.134925,-1.43749 -0.809796,-0.25009 -1.693212,-1.12497 -2.723863,-0.68749 -0.662534,0.62502 -0.957004,1.5 -1.619566,2.18749 -0.662554,0.81248 -1.84043,1.25 -2.65023,1.875 -0.515317,0.31249 -1.03064,0.62498 -1.545956,0.87498 z m 0.588932,0.12491 c 1.104263,-0.18751 1.693205,-1.24999 2.797465,-1.56249 0.957025,-0.68752 1.545967,-1.62498 2.282117,-2.43749 0.147224,-0.99998 1.545977,-0.68748 2.134923,-0.2501 1.251506,0.5625 1.325125,1.49997 2.50301,1.99996 0.8098,0 1.17789,-1.06249 2.134924,-0.43748 0.957032,0.0626 1.987686,0.81247 2.944718,0.0626 1.104172,-0.375 1.766734,0.81247 1.54588,1.56248 -0.294484,0.9375 -1.472358,1.49999 -1.54588,2.49997 -0.294484,1.06249 1.472265,1.24999 1.398645,2.18746 -0.07363,0.81251 -1.251504,1.12499 -1.472261,1.875 -0.368093,0.81251 -0.588947,1.81251 -1.693217,2.125 -1.10427,0.18749 -1.693212,-0.75 -2.723862,-0.87499 -0.662563,-0.4375 -1.325124,-0.56249 -2.429394,-0.68751 -1.17789,0.0626 -2.061305,0.50001 -3.312782,0.4375 -1.10426,0.1875 -1.398733,1.81249 -2.723846,1.5 -0.883416,-0.49999 0.147224,-1.5 0.73617,-1.9375 0.883416,-0.81248 -0.957024,-1.5 -1.104259,-1.56249 1.03064,-0.68752 0.662562,-1.68749 0.220854,-2.49997 -0.220854,-0.87499 -1.472351,-1.125 -1.693205,-1.93748 z m 0.883415,4.43745 0,0 z m 0.957025,-1.68747 0,0.0626 z"
       style="fill:#9f6710;fill-opacity:1;fill-rule:nonzero;stroke:none" />
    <path
       inkscape:connector-curvature="0"
       id="path4161"
       d="m 74.965573,994.80154 0.147225,0.31251 c 0.294484,0 0.515324,0.12489 0.515324,0.31249 0.07363,0.2501 0.147224,0.5 0.368093,0.625 0.294483,0.1249 0.588943,0.1875 0.883415,0.1875 0.220855,-0.063 0.441709,0.063 0.588943,-0.063 0.220854,-0.063 0.441709,-0.063 0.662563,-0.1249 0.220854,-0.063 0.294483,-0.2501 0.441707,-0.375 0.147225,-0.1249 0.294483,-0.375 0.07363,-0.50001 -0.147225,-0.12491 -0.368089,-0.25011 -0.588944,-0.3125 -0.220853,0 -0.515326,0 -0.662561,-0.1249 -0.220854,-0.18749 -0.515327,-0.18749 -0.809797,-0.18749 -0.220855,0 -0.515327,0.0626 -0.736182,0.0626 -0.220853,-0.0626 -0.66256,-0.12491 -0.809796,0.12489 0,0 0,0.0626 -0.07364,0.0626 z m 0.957033,0.25009 c 0.294483,-0.1249 0.73618,-0.1249 1.030654,-0.1249 0.294484,0.0626 0.515323,0.31251 0.809796,0.2501 0.220854,0 0.662562,0.25011 0.441708,0.43751 -0.220854,0.1875 -0.515327,0.063 -0.736181,0.063 -0.220853,0.1249 -0.368089,0.063 -0.588943,0.1249 -0.220854,0.063 -0.588942,0 -0.73618,-0.1249 -0.07363,-0.1875 0,-0.4375 -0.220854,-0.5625 l 0,0 z"
       style="fill:#9f6710;fill-opacity:1;fill-rule:nonzero;stroke:none" />
    <path
       inkscape:connector-curvature="0"
       id="path4157-3"
       d="m 73.628546,1008.5014 c -0.255191,-0.1076 -0.481979,-0.3601 -0.599127,-0.2238 -0.182347,0.2116 0.203687,0.6353 0.142893,0.9 0,0.092 0.09483,0.2209 0.01473,0.29 -0.149691,0.1291 -0.548665,0.1616 -0.773341,0.1439 -0.23439,0.2278 -0.468126,0.371 -0.346559,0.6358 0.121554,0.3177 -0.17362,0.039 0.859682,1.1516 0,0 1.28433,0.3348 1.466682,0.2818 0.243113,-0.054 0.118377,-0.94 0.239931,-1.0458 0.24314,-0.3178 0.303917,-0.6356 0.303917,-0.6356 0.06076,-0.1589 0.303912,0.054 0.547045,0.054 0.243113,0 0.303907,-0.3179 0.486259,-0.4769 0.243141,-0.1588 0.303918,-0.9002 0.06077,-1.1651 -0.129372,-0.1315 -0.372461,-0.042 -0.615988,-0.012 -0.442977,0.054 -0.960286,0.1671 -1.313276,0.2019 -0.187325,0.01 -0.385142,-0.095 -0.473619,-0.095 z"
       style="fill:#f6ff03;fill-opacity:1;fill-rule:evenodd;stroke:#5a9351;stroke-width:0;stroke-linecap:butt;stroke-linejoin:miter;stroke-miterlimit:4;stroke-dasharray:none;stroke-opacity:1"
       sodipodi:nodetypes="cccsccccccsccsccc" />
    <path
       inkscape:connector-curvature="0"
       id="path4155-9"
       d="m 90.868989,1017.792 c 1.38616,-0.2177 0.59407,-0.7618 0.66008,-1.4692 0,-0.6529 0.9241,-1.4691 0.132001,-2.2309 -0.396049,-0.3264 0.99011,-0.9249 0.19802,-1.197 -0.594069,-0.2177 -0.132001,-0.925 -1.122038,-1.0339 l 0.197929,-2.1221 c 0,0 -0.791998,-0.9794 -1.386074,-0.381 -0.214349,0.202 -0.339413,0.4296 -0.652614,0.7395 -0.361934,0.3581 -0.945162,0.8112 -1.723658,1.2195 -0.528062,0.272 -1.056121,-1.8501 -1.716197,-1.4692 -0.264039,0.1088 -0.660077,-0.8706 -1.452167,-0.4898 -0.330038,0.2178 -0.726083,-0.272 -0.726083,0.1634 0,0.4353 -1.254146,0.1086 -1.38616,0.5984 -0.132005,0.2178 -0.66005,-0.055 -0.792066,0.1634 -0.06602,0.2176 -0.151466,0.5985 -0.151466,0.5985 -0.528052,-0.4354 0.481506,1.4148 -0.04657,1.4148 -0.52805,0 -0.79208,0.7617 -1.320139,0.9251 -0.220354,0.06 -0.596713,0.063 -0.871456,-0.017 -0.219051,-0.063 -0.433706,-0.1403 -0.609392,-0.068 -0.528058,0.2175 0.506523,0.3002 -0.02152,0.5723 -0.168203,0.1156 0.131534,0.2294 0.42404,0.2885 0.396219,0.08 0.816093,0.2097 0.550282,0.3662 -0.330038,0.2177 -0.06601,0.653 -0.462051,0.8707 -0.396037,0.2721 -0.330032,1.1426 -0.792083,1.3602 -0.330039,0.1633 0.792083,0.9795 0.396046,1.0883 -0.33004,0.1632 0.660065,1.0883 0.264009,1.1427 -0.660066,0.2177 2.489614,-0.01 1.615742,0.037 1.112891,0.3413 2.646773,-0.8578 2.452745,-0.5135 0,0 2.094681,-0.3256 3.52235,-0.1221 0.528064,0.1088 1.650192,-0.4353 2.310269,-0.4353 0.660073,0.055 1.384705,0.5512 1.384705,0.5512 0.396046,0.3266 1.123496,-0.5512 1.123496,-0.5512 z"
       style="fill:#ecf012;fill-opacity:1;fill-rule:evenodd;stroke:#ccde21;stroke-width:0;stroke-linecap:butt;stroke-linejoin:miter;stroke-miterlimit:4;stroke-dasharray:none;stroke-opacity:1"
       sodipodi:nodetypes="cccccccscccscccscsccsccccccsccccc" />
    <path
       inkscape:connector-curvature="0"
       id="path4153-1"
       d="m 81.400326,1029.7775 c 0.484933,0.3754 0.503962,1.4926 0.200828,2.0827 -0.303058,0.4826 -1.151828,0.3755 -1.273075,0.9656 -1.120963,1.4985 -0.880284,0.9849 -1.415791,1.4827 0,0 -0.565629,0.3191 -0.536823,0.824 -0.117364,0.8111 -0.765547,0.3405 -1.068673,0.448 -0.123355,1.552 -0.468727,2.046 -0.771002,2.703 -1.993776,2.3216 -0.532284,0.612 -2.025343,2.3216 -1.758144,0.3219 -1.425977,1.5461 -2.335349,1.4389 -3.475444,-1.4241 -1.010737,-0.7596 -2.475634,-0.8936 -0.37782,-0.033 -1.224346,0.1578 -2.004962,0.503 -0.471991,0.2087 -0.899859,0.6942 -1.24252,0.5931 -0.970016,-0.3219 0.904463,-1.5646 0.904463,-2.3144 -0.374276,-0.6073 0.18179,-0.7506 0.868127,-1.1626 0.439693,-0.2639 1.135211,-0.7165 1.513983,-0.9259 1.151897,-0.5367 0.445912,-1.7893 1.537182,-2.5404 0.849453,-0.6632 -0.312159,-2.6045 1.277286,-2.4243 0.339048,0.039 0.890794,0.1534 1.508992,0.4458 0.54564,0.2155 1.101314,-1.3729 1.828832,-1.641 0.666891,-1.0729 0.6274,0.3557 1.47617,-0.019 0.743725,-0.2861 1.639309,-1.0182 2.394528,-1.4773 0.660739,-0.4016 1.101268,-0.8096 1.638789,-0.409 z"
       style="fill:#a9e848;fill-opacity:1;fill-rule:evenodd;stroke:#000000;stroke-width:0;stroke-linecap:butt;stroke-linejoin:miter;stroke-miterlimit:4;stroke-dasharray:none;stroke-opacity:1"
       sodipodi:nodetypes="ccccccccccsccsccscccscc" />
    <path
       inkscape:connector-curvature="0"
       id="path4147-4"
       d="m 11.845463,1020.1232 c -0.294484,-0.75 -0.588946,-1.625 -1.472351,-1.9375 -0.7361713,-0.5 0.07362,-1.3124 0.736171,-1.6249 1.693202,-0.75 2.87108,-2.0625 3.828084,-3.375 0.147224,-1.0625 1.91407,-1 2.503013,-0.3125 1.030651,0.375 1.545977,1.3125 2.208539,2 0.883416,0.375 0.957035,-1.125 1.914067,-0.6875 1.030655,0.1875 2.20854,0.875 3.239194,0.1249 0.956934,-0.5625 1.545881,0.4375 1.693115,1.125 0.294483,0.8125 -0.368089,1.5624 -0.957035,2.2499 -0.883318,0.8125 -0.441708,1.875 0.588946,2.3125 1.10427,0.6875 -0.147224,1.625 -0.736181,2.25 -0.515229,0.8125 -0.736083,1.8125 -1.54588,2.5 -0.662562,0.6875 -1.766832,0.4375 -2.429394,-0.063 -0.515327,-0.6875 -2.061305,-0.1875 -2.355774,-1.0625 -0.515327,-0.3125 -1.325124,0.1249 -2.061306,0.063 -1.030651,0.2501 -2.282127,0.2501 -3.091924,1 -0.441701,0.6875 -1.398732,1.5625 -2.355757,0.9375 -0.515327,-0.5625 0.147225,-1.1875 0.515327,-1.6875 0.441698,-0.4375 0.368078,-1.75 -0.588946,-1.9375 z"
       style="fill:#86d4e6;fill-opacity:1;fill-rule:nonzero;stroke:none" />
    <path
       inkscape:connector-curvature="0"
       id="path4149-9"
       d="m 11.845465,1020.1233 c -0.294484,-0.75 -0.588946,-1.625 -1.472351,-1.9375 -0.7361713,-0.5 0.07363,-1.3125 0.736171,-1.625 1.693201,-0.75 2.87108,-2.0625 3.828084,-3.375 0.147225,-1.0624 1.91407,-0.9999 2.503013,-0.3124 1.030651,0.375 1.545978,1.3125 2.208539,1.9999 0.883416,0.375 0.957035,-1.125 1.914067,-0.6874 1.030654,0.1874 2.20854,0.8749 3.239194,0.1249 0.956934,-0.5625 1.54588,0.4375 1.693115,1.125 0.294483,0.8124 -0.368089,1.5624 -0.957035,2.2499 -0.883319,0.8125 -0.441708,1.875 0.588946,2.3125 1.10427,0.6875 -0.147224,1.625 -0.736181,2.25 -0.515229,0.8125 -0.736084,1.8125 -1.54588,2.5 -0.662562,0.6875 -1.766832,0.4375 -2.429394,-0.063 -0.515326,-0.6875 -2.061305,-0.1875 -2.355774,-1.0625 -0.515327,-0.3125 -1.325124,0.1249 -2.061306,0.063 -1.03065,0.2501 -2.282127,0.2501 -3.091924,1 -0.441701,0.6875 -1.398732,1.5625 -2.355757,0.9375 -0.515327,-0.5625 0.147225,-1.1875 0.515327,-1.6875 0.441698,-0.4375 0.368079,-1.75 -0.588946,-1.9375"
       style="fill:none;stroke:#28703f;stroke-width:0.10583256px;stroke-linecap:butt;stroke-linejoin:bevel;stroke-miterlimit:4;stroke-dasharray:none;stroke-opacity:1" />
    <path
       inkscape:connector-curvature="0"
       id="path4151-7"
       d="m 17.734855,1026.9358 c 0,-0.2501 0.368088,-0.1249 0.515323,-0.063 0.220855,0.063 0.441709,-0.1249 0.736182,-0.063 0.220853,0 0.588942,-0.063 0.73618,0.1875 0.220854,0.1249 0.588943,0 0.809797,0.1875 0.294484,0.063 0.441708,0.3125 0.147225,0.4375 -0.07363,0.1875 -0.147225,0.375 -0.36809,0.3125 -0.147223,0.1249 -0.294483,0.1249 -0.368092,0 -0.220854,0 -0.220854,0.375 -0.441707,0.1249 -0.147225,-0.1875 -0.294483,0.3125 -0.515324,0.063 -0.294483,0 -0.515327,-0.1875 -0.588946,-0.4375 0,-0.2501 -0.220854,-0.375 -0.220854,-0.625 -0.07363,-0.1875 -0.294484,0 -0.441708,-0.1249 z"
       style="fill:#86d5e6;fill-opacity:1;fill-rule:nonzero;stroke:#28703f;stroke-width:0.10583256px;stroke-linecap:butt;stroke-linejoin:bevel;stroke-miterlimit:4;stroke-dasharray:none;stroke-opacity:1" />
    <path
       inkscape:connector-curvature="0"
       id="path4159-4"
       d="m 9.4897067,1017.2482 c -0.294484,0.6875 0.5889323,1.125 1.1778783,1.5 0.588932,0.5625 0.736171,1.375 0.809786,2.0625 0,0.6875 -1.6195873,1 -0.588932,1.6875 0.515317,0.1875 1.398732,0 1.177878,0.8125 -0.368092,0.6875 -1.325117,1.25 -1.104263,2.125 0.883409,0.5625 1.987668,0.875 2.576611,0 0.588937,-0.875 1.619556,-1.3125 2.723826,-1.3125 1.030653,-0.1249 2.20854,-0.3125 3.165574,0.063 1.10427,0.1875 1.840452,0.8125 2.723867,1.25 0.957031,0.5625 1.987686,-0.5 2.50301,-1.125 0.44161,-0.5 0.44161,-1.25 0.956937,-1.75 0.294484,-0.5625 1.030651,-0.875 1.325124,-1.375 0.441708,-1.125 -1.693212,-1.3125 -1.472359,-2.3749 0.07363,-1.0625 1.545978,-1.625 1.472359,-2.625 -0.07363,-0.8125 -0.294483,-2 -1.472359,-2.1875 -0.736084,0.1875 -1.472264,0.9375 -2.282061,0.375 -0.957035,-0.3125 -2.061305,-0.4375 -3.018336,0.063 -1.030655,0.4375 -1.10427,-1.3125 -2.134925,-1.4375 -0.809796,-0.2501 -1.693212,-1.125 -2.723863,-0.6875 -0.662534,0.625 -0.957004,1.5 -1.619566,2.1875 -0.662554,0.8125 -1.84043,1.25 -2.65023,1.875 -0.515317,0.3125 -1.03064,0.625 -1.5459563,0.875 z m 0.5889323,0.125 c 1.104263,-0.1876 1.693205,-1.25 2.797465,-1.5625 0.957025,-0.6876 1.545967,-1.625 2.282117,-2.4375 0.147224,-1 1.545977,-0.6875 2.134923,-0.2501 1.251506,0.5625 1.325125,1.4999 2.50301,1.9999 0.8098,0 1.17789,-1.0625 2.134924,-0.4374 0.957032,0.063 1.987686,0.8124 2.944718,0.063 1.104172,-0.375 1.766734,0.8124 1.54588,1.5624 -0.294484,0.9375 -1.472358,1.5 -1.54588,2.5 -0.294484,1.0625 1.472265,1.25 1.398645,2.1875 -0.07363,0.8125 -1.251504,1.125 -1.472261,1.875 -0.368093,0.8125 -0.588947,1.8125 -1.693217,2.125 -1.10427,0.1875 -1.693212,-0.75 -2.723862,-0.875 -0.662563,-0.4375 -1.325124,-0.5625 -2.429394,-0.6875 -1.17789,0.063 -2.061305,0.5 -3.312782,0.4375 -1.10426,0.1875 -1.398733,1.8125 -2.723846,1.5 -0.883416,-0.5 0.147224,-1.5 0.73617,-1.9375 0.883416,-0.8125 -0.957024,-1.5 -1.104259,-1.5625 1.03064,-0.6875 0.662562,-1.6875 0.220854,-2.5 -0.220854,-0.875 -1.472351,-1.125 -1.693205,-1.9375 z m 0.883415,4.4374 0,0 z m 0.957025,-1.6875 0,0.063 z"
       style="fill:#195fdd;fill-opacity:1;fill-rule:nonzero;stroke:none" />
    <path
       inkscape:connector-curvature="0"
       id="path4161-3"
       d="m 17.427071,1026.9537 0.142893,0.296 c 0.285821,0 0.500164,0.1183 0.500164,0.2959 0.07146,0.2368 0.142892,0.4736 0.357262,0.592 0.285821,0.1183 0.571616,0.1775 0.857425,0.1775 0.214358,-0.059 0.428714,0.059 0.571616,-0.059 0.214357,-0.059 0.428714,-0.059 0.64307,-0.1183 0.214356,-0.059 0.28582,-0.237 0.428712,-0.3552 0.142894,-0.1183 0.28582,-0.3552 0.07146,-0.4735 -0.142894,-0.1183 -0.35726,-0.237 -0.571618,-0.2961 -0.214355,0 -0.500164,0 -0.643069,-0.1182 -0.214356,-0.1776 -0.500165,-0.1776 -0.785971,-0.1776 -0.214357,0 -0.500167,0.059 -0.714523,0.059 -0.214356,-0.059 -0.643068,-0.1183 -0.785972,0.1183 0,0 0,0.059 -0.07147,0.059 z m 0.928877,0.2369 c 0.285819,-0.1183 0.714522,-0.1183 1.000332,-0.1183 0.285819,0.059 0.500162,0.2959 0.785971,0.2368 0.214356,0 0.64307,0.2369 0.428713,0.4144 -0.214357,0.1776 -0.500166,0.059 -0.714522,0.059 -0.214356,0.1183 -0.35726,0.059 -0.571616,0.1183 -0.214356,0.059 -0.571615,0 -0.714522,-0.1183 -0.07146,-0.1776 0,-0.4144 -0.214356,-0.5328 l 0,0 z"
       style="fill:#4549eb;fill-opacity:1;fill-rule:nonzero;stroke:none" />
    <path
       inkscape:connector-curvature="0"
       id="path4155-2"
       d="m 40.834635,1003.1449 c 1.520141,-0.2462 0.651488,-0.8615 0.723874,-1.6615 0,-0.7384 1.013428,-1.66146 0.144763,-2.52296 -0.434324,-0.3691 1.085814,-1.046 0.217163,-1.3537 -0.651487,-0.2462 -0.144762,-1.0461 -1.230492,-1.1693 l 0.21706,-2.3999 c 0,0 -0.868554,-1.1076 -1.520045,-0.4308 -0.506711,0.4923 -1.013424,1.354 -2.605953,2.2154 -0.579102,0.3076 -1.158201,-2.0923 -1.882078,-1.6615 -0.28956,0.123 -0.723877,-0.9846 -1.592528,-0.5539 -0.361938,0.2463 -0.796263,-0.3077 -0.796263,0.1847 0,0.4923 -1.375366,0.1229 -1.52014,0.6768 -0.144763,0.2463 -0.723847,-0.062 -0.868623,0.1848 -0.0724,0.2461 -0.138723,0.7214 -0.138723,0.7214 -0.579091,-0.4924 0.500663,1.5555 -0.07845,1.5555 -0.579089,0 -0.86864,0.8614 -1.447739,1.0461 -0.43432,0.1228 -1.085808,-0.3693 -1.520125,-0.1847 -0.579098,0.2459 0.434317,0.5537 -0.144763,0.8614 -0.434326,0.3077 1.592508,0.3077 1.085805,0.6154 -0.361938,0.2462 -0.0724,0.73846 -0.506711,0.98466 -0.434316,0.3077 -0.361931,1.2922 -0.868642,1.5383 -0.36194,0.1847 0.868642,1.1077 0.434326,1.2308 -0.36194,0.1845 0.723864,1.2307 0.289527,1.2923 -0.723866,0.2462 2.788807,0.043 1.847779,0.043 1.22046,0.3859 2.844042,-0.8459 2.63126,-0.4565 0,0 2.279834,-0.4932 3.845496,-0.2631 0.579105,0.123 1.809693,-0.4923 2.533571,-0.4923 0.723873,0.062 1.085814,0.677 1.085814,0.677 0.434326,0.3693 1.664817,-0.677 1.664817,-0.677 z"
       style="fill:#195fdd;fill-opacity:1;fill-rule:evenodd;stroke:#ccde21;stroke-width:0;stroke-linecap:butt;stroke-linejoin:miter;stroke-miterlimit:4;stroke-dasharray:none;stroke-opacity:1"
       sodipodi:nodetypes="ccccccccccscccscccccccccsccccc" />
    <path
       inkscape:connector-curvature="0"
       id="path4157-4"
       d="m 23.508888,993.26554 c -0.441708,0 -0.999073,-0.4843 -1.219927,-0.2343 -0.220854,0.2501 0.215566,0.8447 0.141936,1.1572 0,0.3124 -0.820278,0 -0.893898,0.3112 -0.07363,0.25 -0.457367,0.327 -0.310133,0.6395 0.147225,0.3749 -0.157836,0.221 1.093662,1.4388 0,0 1.451266,0.4362 1.672119,0.3737 0.29445,-0.063 0.0947,-0.8416 0.241927,-0.9665 0.294483,-0.375 0.368092,-0.7501 0.368092,-0.7501 0.07363,-0.1874 0.368089,0.063 0.662562,0.063 0.294449,0 0.368078,-0.3751 0.588933,-0.5625 0.294483,-0.1876 0.368091,-1.0625 0.07363,-1.3751 -0.441708,-0.4375 -1.661635,-0.1419 -2.324187,-0.079 z"
       style="fill:#285af2;fill-opacity:1;fill-rule:evenodd;stroke:#ccde21;stroke-width:0;stroke-linecap:butt;stroke-linejoin:miter;stroke-miterlimit:4;stroke-dasharray:none;stroke-opacity:1"
       sodipodi:nodetypes="cccccccccscccc" />
    <path
       inkscape:connector-curvature="0"
       id="path4157-3-7"
       d="m 23.114185,993.45084 c -0.255191,-0.1076 -0.481979,-0.3601 -0.599127,-0.2238 -0.182347,0.2116 0.203687,0.6353 0.142893,0.9 0,0.092 0.09483,0.2209 0.01473,0.29 -0.149691,0.1291 -0.548665,0.1616 -0.773341,0.1439 -0.23439,0.2278 -0.468126,0.371 -0.346559,0.6358 0.121554,0.3177 -0.17362,0.039 0.859682,1.1516 0,0 1.28433,0.3348 1.466682,0.2818 0.243113,-0.054 0.118377,-0.94 0.239931,-1.0458 0.24314,-0.3178 0.303917,-0.6356 0.303917,-0.6356 0.06076,-0.1589 0.303912,0.054 0.547045,0.054 0.243113,0 0.303907,-0.3179 0.486259,-0.4769 0.243141,-0.1588 0.303918,-0.9002 0.06077,-1.1651 -0.129372,-0.1315 -0.372461,-0.042 -0.615988,-0.012 -0.442977,0.054 -0.960286,0.1671 -1.313276,0.2019 -0.187325,0.01 -0.385142,-0.095 -0.473619,-0.095 z"
       style="fill:#86d5e6;fill-opacity:1;fill-rule:evenodd;stroke:#5a9351;stroke-width:0;stroke-linecap:butt;stroke-linejoin:miter;stroke-miterlimit:4;stroke-dasharray:none;stroke-opacity:1"
       sodipodi:nodetypes="cccsccccccsccsccc" />
    <path
       inkscape:connector-curvature="0"
       id="path4155-9-4"
       d="m 40.354627,1002.7414 c 1.38616,-0.2177 0.59407,-0.7618 0.66008,-1.4692 0,-0.6529 0.9241,-1.46906 0.132001,-2.23086 -0.396049,-0.3264 0.99011,-0.9249 0.19802,-1.197 -0.594069,-0.2177 -0.132001,-0.925 -1.122038,-1.0339 l 0.197929,-2.1221 c 0,0 -0.791998,-0.9794 -1.386074,-0.381 -0.214349,0.202 -0.339413,0.4296 -0.652614,0.7395 -0.361934,0.3581 -0.945162,0.8112 -1.723658,1.2195 -0.528062,0.272 -1.056121,-1.8501 -1.716197,-1.4692 -0.264039,0.1088 -0.660077,-0.8706 -1.452167,-0.4898 -0.330038,0.2178 -0.726083,-0.272 -0.726083,0.1634 0,0.4353 -1.254146,0.1086 -1.38616,0.5984 -0.132005,0.2178 -0.660049,-0.055 -0.792065,0.1634 -0.06602,0.2176 -0.151466,0.5985 -0.151466,0.5985 -0.528052,-0.4354 0.481506,1.4148 -0.04657,1.4148 -0.52805,0 -0.79208,0.7617 -1.320139,0.9251 -0.220354,0.06 -0.596713,0.063 -0.871456,-0.017 -0.219051,-0.063 -0.433706,-0.1403 -0.609392,-0.068 -0.528058,0.2175 0.506523,0.3002 -0.02152,0.5723 -0.168203,0.1156 0.131534,0.2294 0.42404,0.2885 0.396219,0.08 0.816093,0.2097 0.550282,0.3662 -0.330038,0.2177 -0.06601,0.653 -0.462051,0.87066 -0.396037,0.2721 -0.330032,1.1426 -0.792083,1.3602 -0.330039,0.1633 0.792083,0.9795 0.396046,1.0883 -0.33004,0.1632 0.660065,1.0883 0.264009,1.1427 -0.660066,0.2177 2.489614,-0.01 1.615742,0.037 1.112891,0.3413 2.646772,-0.8578 2.452744,-0.5135 0,0 2.094681,-0.3256 3.52235,-0.1221 0.528064,0.1088 1.650192,-0.4353 2.310269,-0.4353 0.660073,0.055 1.384705,0.5512 1.384705,0.5512 0.396046,0.3266 1.123496,-0.5512 1.123496,-0.5512 z"
       style="fill:#86d4e6;fill-opacity:1;fill-rule:evenodd;stroke:#ccde21;stroke-width:0;stroke-linecap:butt;stroke-linejoin:miter;stroke-miterlimit:4;stroke-dasharray:none;stroke-opacity:1"
       sodipodi:nodetypes="cccccccscccscccscsccsccccccsccccc" />
    <path
       inkscape:connector-curvature="0"
       id="path4153-9"
       d="m 52.622729,1013.1217 c 0.542362,0.4071 0.88139,1.6868 0.542362,2.3266 -0.338944,0.5234 -1.288227,0.4073 -1.423838,1.0469 -0.95164,0.6384 -0.957802,1.113 -1.865894,1.8132 -0.04706,-0.085 -0.703222,0.1406 -0.671004,0.6879 -0.131262,0.8795 -0.785594,0.8142 -1.124617,0.9307 -0.137963,1.6829 -0.347707,1.7736 -0.685777,2.4858 -2.229884,2.5173 -0.560013,0.6635 -2.229884,2.5173 -1.966344,0.349 -1.559536,1.7449 -2.576598,1.6288 -3.887011,-1.5442 -1.412872,-0.9607 -3.051245,-1.1059 -0.67806,-0.058 -2.614984,1.4792 -3.632055,1.1884 -1.084888,-0.349 1.011569,-1.6964 1.011569,-2.5093 -0.686767,-1.0804 1.33218,-1.8201 2.417067,-2.4016 1.288306,-0.5817 0.745856,-1.8031 1.966355,-2.6175 1.152705,-0.8725 -0.745856,-4.1881 3.186846,-2.3848 0.610255,0.2336 0.949287,-1.4542 1.762959,-1.745 0.745865,-1.1634 0.813672,0.3491 1.762955,-0.058 1.559538,-0.5817 3.322497,-2.7341 4.610809,-1.8033 z"
       style="fill:#195fdd;fill-opacity:1;fill-rule:evenodd;stroke:#000000;stroke-width:0;stroke-linecap:butt;stroke-linejoin:miter;stroke-miterlimit:4;stroke-dasharray:none;stroke-opacity:1"
       sodipodi:nodetypes="ccccccccccccccccccc" />
    <path
       inkscape:connector-curvature="0"
       id="path4153-1-0"
       d="m 51.801674,1013.6395 c 0.484933,0.3754 0.503962,1.4926 0.200828,2.0827 -0.303058,0.4826 -1.151828,0.3755 -1.273075,0.9656 -1.120963,1.4985 -0.880284,0.9849 -1.415791,1.4827 0,0 -0.565629,0.3191 -0.536823,0.824 -0.117364,0.8111 -0.765547,0.3405 -1.068673,0.448 -0.123355,1.552 -0.468727,2.046 -0.771002,2.703 -1.993776,2.3216 -0.532284,0.612 -2.025343,2.3216 -1.758144,0.3219 -1.425977,1.5461 -2.335349,1.4389 -3.475444,-1.4241 -1.010737,-0.7596 -2.475634,-0.8936 -0.37782,-0.033 -1.224346,0.1578 -2.004962,0.503 -0.471991,0.2087 -0.899859,0.6942 -1.24252,0.5931 -0.970016,-0.3219 0.904463,-1.5646 0.904463,-2.3144 -0.374276,-0.6073 0.18179,-0.7506 0.868127,-1.1626 0.439693,-0.2639 1.135211,-0.7165 1.513983,-0.9259 1.151897,-0.5367 0.445912,-1.7893 1.537182,-2.5404 0.849453,-0.6632 -0.312159,-2.6045 1.277286,-2.4243 0.339048,0.039 0.890794,0.1534 1.508992,0.4458 0.54564,0.2155 1.101314,-1.3729 1.828832,-1.641 0.666891,-1.0729 0.6274,0.3557 1.47617,-0.019 0.743725,-0.2861 1.639309,-1.0182 2.394528,-1.4773 0.660739,-0.4016 1.101268,-0.8096 1.638789,-0.409 z"
       style="fill:#86d4e6;fill-opacity:1;fill-rule:evenodd;stroke:#000000;stroke-width:0;stroke-linecap:butt;stroke-linejoin:miter;stroke-miterlimit:4;stroke-dasharray:none;stroke-opacity:1"
       sodipodi:nodetypes="ccccccccccsccsccscccscc" />
  </g>
</svg>
