<!--Created with Inkscape (http://www.inkscape.org/)--><svg xmlns:dc="http://purl.org/dc/elements/1.1/" xmlns:cc="http://creativecommons.org/ns#" xmlns:rdf="http://www.w3.org/1999/02/22-rdf-syntax-ns#" xmlns="http://www.w3.org/2000/svg" xmlns:sodipodi="http://sodipodi.sourceforge.net/DTD/sodipodi-0.dtd" xmlns:inkscape="http://www.inkscape.org/namespaces/inkscape" width="100" height="100" viewBox="0 0 100 100" inkscape:version="0.91 r13725" sodipodi:docname="geography.svg"><sodipodi:namedview pagecolor="#ffffff" bordercolor="#666666" borderopacity="1.0" inkscape:pageopacity="0.0" inkscape:pageshadow="2" inkscape:zoom="22.4" inkscape:cx="73.972896" inkscape:cy="22.878845" inkscape:document-units="px" inkscape:current-layer="layer1" showgrid="false" units="px" inkscape:snap-midpoints="true" inkscape:window-width="1024" inkscape:window-height="705" inkscape:window-x="-8" inkscape:window-y="-8" inkscape:window-maximized="1"/><metadata><rdf:RDF><cc:Work><dc:format>image/svg+xml</dc:format><dc:type rdf:resource="http://purl.org/dc/dcmitype/StillImage"/><dc:title/><dc:date>2017</dc:date><dc:creator><cc:Agent><dc:title>Harpreet S.</dc:title></cc:Agent></dc:creator><cc:license rdf:resource="http://creativecommons.org/licenses/by-sa/4.0/"/></cc:Work><cc:License rdf:about="http://creativecommons.org/licenses/by-sa/4.0/"><cc:permits rdf:resource="http://creativecommons.org/ns#Reproduction"/><cc:permits rdf:resource="http://creativecommons.org/ns#Distribution"/><cc:requires rdf:resource="http://creativecommons.org/ns#Notice"/><cc:requires rdf:resource="http://creativecommons.org/ns#Attribution"/><cc:permits rdf:resource="http://creativecommons.org/ns#DerivativeWorks"/><cc:requires rdf:resource="http://creativecommons.org/ns#ShareAlike"/></cc:License></rdf:RDF></metadata><g inkscape:label="Layer 1" inkscape:groupmode="layer" transform="translate(0 -952.362)"><ellipse style="opacity:1;fill:#49b1ff;fill-opacity:1;fill-rule:evenodd;stroke:#4664bf;stroke-width:1.20000005;stroke-linecap:round;stroke-linejoin:bevel;stroke-miterlimit:4;stroke-dasharray:none;stroke-dashoffset:0;stroke-opacity:1" cx="32.577419" cy="1012.3925" rx="26.652386" ry="25.054216"/><path inkscape:connector-curvature="0" d="M69.518 988.114c-.295-.75-.59-1.625-1.472-1.937-.737-.5.073-1.313.736-1.625 1.693-.75 2.87-2.063 3.828-3.375.147-1.063 1.914-1 2.503-.313 1.03.375 1.546 1.313 2.208 2 .884.375.957-1.125 1.914-.687 1.031.187 2.209.875 3.24.125.957-.563 1.545.437 1.693 1.125.294.812-.368 1.562-.957 2.25-.884.812-.442 1.874.589 2.312 1.104.687-.148 1.625-.737 2.25-.515.812-.736 1.812-1.545 2.5-.663.687-1.767.437-2.43-.063-.515-.687-2.061-.187-2.356-1.062-.515-.313-1.325.125-2.06.062-1.032.25-2.283.25-3.093 1-.442.688-1.399 1.563-2.356.938-.515-.563.148-1.188.516-1.688.441-.437.368-1.75-.59-1.937z" style="fill:#f4a932;fill-opacity:1;fill-rule:nonzero;stroke:none"/><path inkscape:connector-curvature="0" d="M69.518 988.114c-.295-.75-.59-1.625-1.472-1.937-.737-.5.073-1.313.736-1.625 1.693-.75 2.87-2.063 3.828-3.375.147-1.063 1.914-1 2.503-.313 1.03.375 1.546 1.313 2.208 2 .884.375.957-1.125 1.914-.687 1.031.187 2.209.875 3.24.125.957-.563 1.545.437 1.693 1.125.294.812-.368 1.562-.957 2.25-.884.812-.442 1.875.589 2.312 1.104.688-.148 1.625-.737 2.25-.515.813-.736 1.813-1.545 2.5-.663.688-1.767.438-2.43-.063-.515-.687-2.061-.187-2.356-1.062-.515-.313-1.325.125-2.06.063-1.032.25-2.283.25-3.093 1-.442.687-1.399 1.562-2.356.937-.515-.562.148-1.187.516-1.687.441-.438.368-1.75-.59-1.938" style="fill:none;stroke:#28703f;stroke-width:.10583256px;stroke-linecap:butt;stroke-linejoin:bevel;stroke-miterlimit:4;stroke-dasharray:none;stroke-opacity:1"/><path inkscape:connector-curvature="0" d="M75.407 994.927c0-.25.368-.125.516-.063.22.063.441-.125.736-.063.22 0 .589-.062.736.188.22.125.589 0 .81.187.294.063.441.313.147.438-.074.187-.147.375-.368.312-.147.125-.295.125-.368 0-.221 0-.221.375-.442.125-.147-.187-.294.313-.515.063a.602.602 0 0 1-.59-.437c0-.25-.22-.375-.22-.625-.074-.188-.295 0-.442-.125z" style="fill:#f4a932;fill-opacity:1;fill-rule:nonzero;stroke:#28703f;stroke-width:.10583256px;stroke-linecap:butt;stroke-linejoin:bevel;stroke-miterlimit:4;stroke-dasharray:none;stroke-opacity:1"/><path inkscape:connector-curvature="0" d="M82.221 1029.26c.543.407.882 1.687.543 2.326-.34.524-1.288.408-1.424 1.047-.952.639-.958 1.113-1.866 1.813-.047-.085-.703.141-.671.688-.131.88-.786.815-1.125.931-.138 1.683-.347 1.774-.685 2.486-2.23 2.517-.56.663-2.23 2.517-1.967.35-1.56 1.745-2.577 1.629-3.887-1.544-1.413-.96-3.051-1.106-.678-.058-2.615 1.48-3.632 1.188-1.085-.349 1.011-1.696 1.011-2.509-.686-1.08 1.333-1.82 2.417-2.402 1.289-.581.746-1.803 1.967-2.617 1.153-.873-.746-4.188 3.187-2.385.61.234.949-1.454 1.763-1.745.745-1.163.813.35 1.763-.058 1.56-.582 3.322-2.734 4.61-1.803z" style="fill:#598711;fill-opacity:1;fill-rule:evenodd;stroke:#000;stroke-width:0;stroke-linecap:butt;stroke-linejoin:miter;stroke-miterlimit:4;stroke-dasharray:none;stroke-opacity:1" sodipodi:nodetypes="ccccccccccccccccccc"/><path inkscape:connector-curvature="0" d="M91.349 1018.196c1.52-.247.651-.862.724-1.662 0-.738 1.013-1.661.145-2.523-.435-.37 1.085-1.046.217-1.354-.652-.246-.145-1.046-1.23-1.169l.216-2.4s-.868-1.108-1.52-.43c-.506.492-1.013 1.353-2.606 2.215-.579.307-1.158-2.093-1.882-1.662-.29.123-.724-.984-1.592-.554-.362.247-.797-.307-.797.185s-1.375.123-1.52.677c-.144.246-.723-.062-.868.185a6.814 6.814 0 0 0-.139.721c-.58-.492.5 1.556-.078 1.556-.58 0-.87.86-1.448 1.046-.434.122-1.086-.37-1.52-.185-.58.246.434.554-.145.861-.434.308 1.592.308 1.086.616-.362.246-.073.738-.507.984-.434.308-.362 1.293-.869 1.539-.362.184.869 1.107.435 1.23-.362.185.724 1.231.29 1.293-.725.246 2.788.043 1.847.043 1.22.386 2.844-.846 2.631-.457 0 0 2.28-.493 3.846-.263.579.123 1.81-.492 2.533-.492.724.062 1.086.677 1.086.677.434.37 1.665-.677 1.665-.677z" style="fill:#b3b90c;fill-opacity:1;fill-rule:evenodd;stroke:#ccde21;stroke-width:0;stroke-linecap:butt;stroke-linejoin:miter;stroke-miterlimit:4;stroke-dasharray:none;stroke-opacity:1" sodipodi:nodetypes="ccccccccccscccscccccccccsccccc"/><path inkscape:connector-curvature="0" d="M74.023 1008.316c-.441 0-.999-.484-1.22-.234-.22.25.216.845.142 1.157 0 .312-.82 0-.894.311-.073.25-.457.327-.31.64.147.375-.158.22 1.094 1.438 0 0 1.451.437 1.672.374.294-.063.095-.841.242-.966.294-.375.368-.75.368-.75.074-.188.368.063.663.063.294 0 .368-.376.589-.563.294-.187.368-1.062.073-1.375-.442-.437-1.661-.142-2.324-.079z" style="fill:#b3b90c;fill-opacity:1;fill-rule:evenodd;stroke:#ccde21;stroke-width:0;stroke-linecap:butt;stroke-linejoin:miter;stroke-miterlimit:4;stroke-dasharray:none;stroke-opacity:1" sodipodi:nodetypes="cccccccccscccc"/><path inkscape:connector-curvature="0" d="M67.162 985.24c-.294.687.59 1.124 1.178 1.5.589.562.736 1.374.81 2.062 0 .687-1.62 1-.59 1.687.516.188 1.4 0 1.179.813-.368.687-1.325 1.25-1.105 2.125.884.562 1.988.875 2.577 0s1.62-1.313 2.724-1.313c1.03-.125 2.208-.312 3.165.063 1.105.187 1.84.812 2.724 1.25.957.562 1.988-.5 2.503-1.125.442-.5.442-1.25.957-1.75.295-.563 1.031-.875 1.325-1.375.442-1.125-1.693-1.313-1.472-2.375.074-1.063 1.546-1.625 1.472-2.625-.073-.813-.294-2-1.472-2.188-.736.188-1.472.938-2.282.375-.957-.312-2.061-.437-3.018.063-1.031.437-1.105-1.313-2.135-1.438-.81-.25-1.693-1.125-2.724-.687-.663.625-.957 1.5-1.62 2.187-.662.813-1.84 1.25-2.65 1.875-.515.313-1.03.625-1.546.875zm.59.124c1.103-.187 1.692-1.25 2.797-1.562.957-.688 1.545-1.625 2.282-2.438.147-1 1.546-.687 2.135-.25 1.251.562 1.325 1.5 2.503 2 .81 0 1.177-1.063 2.135-.438.957.063 1.987.813 2.944.063 1.104-.375 1.767.812 1.546 1.562-.294.938-1.472 1.5-1.546 2.5-.294 1.063 1.472 1.25 1.399 2.188-.074.812-1.252 1.125-1.472 1.875-.368.812-.59 1.812-1.694 2.125-1.104.187-1.693-.75-2.723-.875-.663-.438-1.326-.563-2.43-.688-1.178.063-2.061.5-3.313.438-1.104.187-1.398 1.812-2.723 1.5-.884-.5.147-1.5.736-1.938.883-.812-.957-1.5-1.105-1.562 1.031-.688.663-1.688.221-2.5-.22-.875-1.472-1.125-1.693-1.938zm.882 4.437zm.958-1.687v.063z" style="fill:#9f6710;fill-opacity:1;fill-rule:nonzero;stroke:none"/><path inkscape:connector-curvature="0" d="m74.966 994.802.147.312c.294 0 .515.125.515.313.074.25.147.5.368.625.295.124.59.187.884.187.22-.063.441.063.589-.063.22-.063.441-.063.662-.125.221-.063.295-.25.442-.375.147-.125.294-.375.073-.5a1.665 1.665 0 0 0-.588-.312c-.221 0-.516 0-.663-.125-.22-.188-.515-.188-.81-.188-.22 0-.515.063-.736.063-.22-.063-.663-.125-.81.125 0 0 0 .062-.073.062zm.957.25c.294-.125.736-.125 1.03-.125.295.062.516.312.81.25.22 0 .663.25.442.437-.221.188-.516.063-.736.063-.221.125-.369.063-.59.125-.22.063-.588 0-.736-.125-.073-.187 0-.437-.22-.562z" style="fill:#9f6710;fill-opacity:1;fill-rule:nonzero;stroke:none"/><path inkscape:connector-curvature="0" d="M73.629 1008.501c-.256-.107-.482-.36-.6-.223-.182.211.204.635.143.9 0 .092.095.22.015.29-.15.129-.549.161-.773.143-.235.228-.468.371-.347.636.122.318-.173.04.86 1.152 0 0 1.284.335 1.467.282.243-.054.118-.94.24-1.046.243-.318.303-.636.303-.636.061-.159.304.054.547.054.244 0 .304-.318.487-.477.243-.158.304-.9.06-1.165-.129-.131-.372-.042-.616-.012-.443.054-.96.167-1.313.202-.187.01-.385-.095-.473-.095z" style="fill:#f6ff03;fill-opacity:1;fill-rule:evenodd;stroke:#5a9351;stroke-width:0;stroke-linecap:butt;stroke-linejoin:miter;stroke-miterlimit:4;stroke-dasharray:none;stroke-opacity:1" sodipodi:nodetypes="cccsccccccsccsccc"/><path inkscape:connector-curvature="0" d="M90.869 1017.792c1.386-.218.594-.762.66-1.47 0-.652.924-1.468.132-2.23-.396-.326.99-.925.198-1.197-.594-.218-.132-.925-1.122-1.034l.198-2.122s-.792-.98-1.386-.381c-.214.202-.34.43-.653.74-.362.358-.945.81-1.723 1.219-.528.272-1.056-1.85-1.717-1.47-.264.11-.66-.87-1.452-.49-.33.219-.726-.271-.726.164 0 .436-1.254.109-1.386.599-.132.218-.66-.055-.792.163-.066.218-.152.599-.152.599-.528-.436.482 1.414-.046 1.414s-.792.762-1.32.926c-.22.06-.597.063-.872-.017-.219-.063-.433-.14-.61-.068-.527.217.507.3-.02.572-.169.115.131.23.423.288.397.08.817.21.55.367-.33.217-.065.653-.461.87-.396.272-.33 1.143-.792 1.36-.33.164.792.98.396 1.089-.33.163.66 1.088.264 1.142-.66.218 2.49-.01 1.615.037 1.113.342 2.647-.857 2.453-.513 0 0 2.095-.326 3.522-.122.529.109 1.65-.435 2.31-.435.66.055 1.385.55 1.385.55.397.327 1.124-.55 1.124-.55z" style="fill:#ecf012;fill-opacity:1;fill-rule:evenodd;stroke:#ccde21;stroke-width:0;stroke-linecap:butt;stroke-linejoin:miter;stroke-miterlimit:4;stroke-dasharray:none;stroke-opacity:1" sodipodi:nodetypes="cccccccscccscccscsccsccccccsccccc"/><path inkscape:connector-curvature="0" d="M81.4 1029.777c.485.376.504 1.493.201 2.083-.303.483-1.152.376-1.273.966-1.12 1.498-.88.985-1.416 1.482 0 0-.565.32-.537.824-.117.812-.765.341-1.068.448-.124 1.553-.469 2.047-.771 2.704-1.994 2.321-.532.611-2.026 2.321-1.758.322-1.426 1.546-2.335 1.439-3.475-1.424-1.01-.76-2.476-.894-.377-.033-1.224.158-2.004.503-.472.21-.9.695-1.243.593-.97-.321.904-1.564.904-2.314-.374-.607.182-.75.869-1.163.44-.263 1.135-.716 1.514-.925 1.151-.537.445-1.79 1.537-2.54.85-.664-.312-2.605 1.277-2.425.34.039.89.153 1.509.446.546.215 1.101-1.373 1.829-1.641.667-1.073.627.355 1.476-.02.744-.285 1.64-1.018 2.395-1.477.66-.401 1.1-.81 1.638-.409z" style="fill:#a9e848;fill-opacity:1;fill-rule:evenodd;stroke:#000;stroke-width:0;stroke-linecap:butt;stroke-linejoin:miter;stroke-miterlimit:4;stroke-dasharray:none;stroke-opacity:1" sodipodi:nodetypes="ccccccccccsccsccscccscc"/><path inkscape:connector-curvature="0" d="M11.845 1020.123c-.294-.75-.588-1.625-1.472-1.937-.736-.5.074-1.313.736-1.625 1.693-.75 2.871-2.063 3.828-3.375.148-1.063 1.914-1 2.503-.313 1.031.375 1.546 1.313 2.209 2 .883.375.957-1.125 1.914-.687 1.03.187 2.209.875 3.24.125.956-.563 1.545.437 1.692 1.125.295.812-.368 1.562-.957 2.25-.883.812-.441 1.875.59 2.312 1.103.688-.148 1.625-.737 2.25-.515.813-.736 1.813-1.546 2.5-.662.688-1.767.438-2.43-.063-.515-.687-2.06-.187-2.355-1.062-.515-.313-1.325.124-2.061.063-1.031.25-2.282.25-3.092 1-.442.687-1.399 1.562-2.356.937-.515-.562.147-1.187.515-1.687.442-.438.368-1.75-.589-1.938z" style="fill:#86d4e6;fill-opacity:1;fill-rule:nonzero;stroke:none"/><path inkscape:connector-curvature="0" d="M11.845 1020.123c-.294-.75-.588-1.625-1.472-1.937-.736-.5.074-1.313.736-1.625 1.693-.75 2.871-2.063 3.828-3.375.148-1.063 1.914-1 2.503-.313 1.031.375 1.546 1.313 2.209 2 .883.375.957-1.125 1.914-.687 1.03.187 2.209.875 3.24.125.956-.563 1.545.437 1.692 1.125.295.812-.368 1.562-.957 2.25-.883.812-.441 1.875.59 2.312 1.103.688-.148 1.625-.737 2.25-.515.813-.736 1.813-1.546 2.5-.662.688-1.767.438-2.43-.063-.515-.687-2.06-.187-2.355-1.062-.515-.313-1.325.125-2.061.063-1.031.25-2.282.25-3.092 1-.442.687-1.399 1.562-2.356.937-.515-.562.147-1.187.515-1.687.442-.438.368-1.75-.589-1.938" style="fill:none;stroke:#28703f;stroke-width:.10583256px;stroke-linecap:butt;stroke-linejoin:bevel;stroke-miterlimit:4;stroke-dasharray:none;stroke-opacity:1"/><path inkscape:connector-curvature="0" d="M17.735 1026.936c0-.25.368-.125.515-.063.221.063.442-.125.736-.063.221 0 .59-.063.737.187.22.125.588 0 .81.188.294.063.441.312.147.437-.074.188-.148.375-.369.313-.147.125-.294.125-.368 0-.22 0-.22.375-.441.125-.148-.188-.295.312-.516.063a.602.602 0 0 1-.589-.438c0-.25-.22-.375-.22-.625-.074-.187-.295 0-.442-.125z" style="fill:#86d5e6;fill-opacity:1;fill-rule:nonzero;stroke:#28703f;stroke-width:.10583256px;stroke-linecap:butt;stroke-linejoin:bevel;stroke-miterlimit:4;stroke-dasharray:none;stroke-opacity:1"/><path inkscape:connector-curvature="0" d="M9.49 1017.248c-.295.688.589 1.125 1.178 1.5.589.563.736 1.375.81 2.063 0 .687-1.62 1-.59 1.687.516.188 1.4 0 1.178.813-.368.687-1.325 1.25-1.104 2.125.883.562 1.988.875 2.577 0s1.62-1.313 2.723-1.313c1.031-.125 2.209-.312 3.166.063 1.104.188 1.84.813 2.724 1.25.957.563 1.988-.5 2.503-1.125.442-.5.442-1.25.957-1.75.294-.562 1.03-.875 1.325-1.375.442-1.125-1.693-1.312-1.472-2.375.073-1.062 1.546-1.625 1.472-2.625-.074-.812-.294-2-1.472-2.187-.736.187-1.473.937-2.282.375-.957-.313-2.062-.438-3.019.063-1.03.437-1.104-1.313-2.135-1.438-.81-.25-1.693-1.125-2.724-.687-.662.625-.957 1.5-1.62 2.187-.662.813-1.84 1.25-2.65 1.875-.515.313-1.03.625-1.545.875zm.589.125c1.104-.187 1.693-1.25 2.797-1.562.957-.688 1.546-1.625 2.282-2.438.147-1 1.546-.687 2.135-.25 1.252.563 1.325 1.5 2.503 2 .81 0 1.178-1.063 2.135-.437.957.063 1.988.812 2.945.063 1.104-.375 1.767.812 1.546 1.562-.295.938-1.473 1.5-1.546 2.5-.295 1.063 1.472 1.25 1.398 2.188-.073.812-1.251 1.125-1.472 1.875-.368.812-.589 1.812-1.693 2.125-1.104.187-1.693-.75-2.724-.875-.662-.438-1.325-.563-2.43-.688-1.177.063-2.06.5-3.312.438-1.104.187-1.399 1.812-2.724 1.5-.883-.5.147-1.5.736-1.938.884-.812-.957-1.5-1.104-1.562 1.03-.688.663-1.688.22-2.5-.22-.875-1.472-1.125-1.692-1.938zm.883 4.438zm.957-1.688v.063z" style="fill:#195fdd;fill-opacity:1;fill-rule:nonzero;stroke:none"/><path inkscape:connector-curvature="0" d="m17.427 1026.954.143.296c.286 0 .5.118.5.296.072.236.143.473.357.592.286.118.572.177.858.177.214-.059.429.06.571-.059.215-.059.43-.059.644-.118.214-.06.285-.237.428-.355.143-.119.286-.356.072-.474a1.63 1.63 0 0 0-.572-.296c-.214 0-.5 0-.643-.118-.214-.178-.5-.178-.786-.178-.214 0-.5.06-.715.06-.214-.06-.643-.12-.785.118 0 0 0 .059-.072.059zm.929.237c.286-.119.714-.119 1-.119.286.06.5.296.786.237.215 0 .643.237.429.414-.214.178-.5.06-.715.06-.214.118-.357.058-.571.118-.215.059-.572 0-.715-.119-.071-.177 0-.414-.214-.532z" style="fill:#4549eb;fill-opacity:1;fill-rule:nonzero;stroke:none"/><path inkscape:connector-curvature="0" d="M40.835 1003.145c1.52-.246.651-.862.724-1.662 0-.738 1.013-1.661.144-2.523-.434-.369 1.086-1.046.217-1.353-.651-.246-.144-1.046-1.23-1.17l.217-2.4s-.869-1.107-1.52-.43c-.507.492-1.013 1.354-2.606 2.215-.58.308-1.158-2.092-1.882-1.661-.29.123-.724-.985-1.593-.554-.362.246-.796-.308-.796.184 0 .493-1.375.123-1.52.677-.145.247-.724-.062-.869.185a6.814 6.814 0 0 0-.138.721c-.58-.492.5 1.556-.079 1.556s-.868.861-1.448 1.046c-.434.123-1.085-.37-1.52-.185-.579.246.435.554-.144.862-.435.307 1.592.307 1.085.615-.362.246-.072.739-.506.985-.435.307-.362 1.292-.869 1.538-.362.185.869 1.108.434 1.23-.362.185.724 1.232.29 1.293-.724.246 2.789.043 1.848.043 1.22.386 2.844-.846 2.63-.456 0 0 2.28-.493 3.846-.263.58.123 1.81-.493 2.534-.493.724.062 1.086.677 1.086.677.434.37 1.665-.677 1.665-.677z" style="fill:#195fdd;fill-opacity:1;fill-rule:evenodd;stroke:#ccde21;stroke-width:0;stroke-linecap:butt;stroke-linejoin:miter;stroke-miterlimit:4;stroke-dasharray:none;stroke-opacity:1" sodipodi:nodetypes="ccccccccccscccscccccccccsccccc"/><path inkscape:connector-curvature="0" d="M23.509 993.266c-.442 0-1-.485-1.22-.235-.22.25.216.845.142 1.157 0 .313-.82 0-.894.312-.074.25-.457.327-.31.64.147.374-.158.22 1.094 1.438 0 0 1.45.436 1.672.374.294-.063.094-.842.242-.967.294-.375.368-.75.368-.75.073-.187.368.063.662.063.295 0 .368-.375.59-.562.294-.188.367-1.063.073-1.376-.442-.437-1.662-.141-2.324-.079z" style="fill:#285af2;fill-opacity:1;fill-rule:evenodd;stroke:#ccde21;stroke-width:0;stroke-linecap:butt;stroke-linejoin:miter;stroke-miterlimit:4;stroke-dasharray:none;stroke-opacity:1" sodipodi:nodetypes="cccccccccscccc"/><path inkscape:connector-curvature="0" d="M23.114 993.45c-.255-.107-.482-.36-.599-.223-.182.212.204.635.143.9 0 .092.095.22.015.29-.15.13-.549.162-.774.144-.234.228-.468.37-.346.636.121.317-.174.039.86 1.151 0 0 1.284.335 1.466.282.243-.054.119-.94.24-1.046.243-.317.304-.635.304-.635.06-.16.304.054.547.054.243 0 .304-.318.486-.477.243-.159.304-.9.061-1.165-.13-.132-.372-.042-.616-.012-.443.054-.96.167-1.313.202-.188.01-.385-.095-.474-.095z" style="fill:#86d5e6;fill-opacity:1;fill-rule:evenodd;stroke:#5a9351;stroke-width:0;stroke-linecap:butt;stroke-linejoin:miter;stroke-miterlimit:4;stroke-dasharray:none;stroke-opacity:1" sodipodi:nodetypes="cccsccccccsccsccc"/><path inkscape:connector-curvature="0" d="M40.355 1002.741c1.386-.217.594-.761.66-1.469 0-.653.924-1.469.132-2.23-.396-.327.99-.926.198-1.198-.594-.217-.132-.925-1.122-1.034l.198-2.122s-.792-.98-1.386-.38c-.215.201-.34.429-.653.739-.362.358-.945.811-1.724 1.22-.528.271-1.056-1.85-1.716-1.47-.264.109-.66-.87-1.452-.49-.33.218-.726-.272-.726.164 0 .435-1.254.108-1.386.598-.132.218-.66-.055-.792.164-.066.217-.152.598-.152.598-.528-.435.482 1.415-.046 1.415s-.793.762-1.32.925c-.22.06-.597.063-.872-.017-.22-.063-.434-.14-.61-.068-.527.217.507.3-.02.572-.17.116.13.23.423.289.396.08.816.21.55.366-.33.218-.066.653-.462.87-.396.273-.33 1.143-.792 1.36-.33.164.792.98.396 1.09-.33.162.66 1.087.264 1.142-.66.218 2.49-.01 1.616.037 1.113.341 2.647-.858 2.453-.514 0 0 2.094-.325 3.522-.122.528.109 1.65-.435 2.31-.435.66.055 1.385.551 1.385.551.396.327 1.124-.551 1.124-.551z" style="fill:#86d4e6;fill-opacity:1;fill-rule:evenodd;stroke:#ccde21;stroke-width:0;stroke-linecap:butt;stroke-linejoin:miter;stroke-miterlimit:4;stroke-dasharray:none;stroke-opacity:1" sodipodi:nodetypes="cccccccscccscccscsccsccccccsccccc"/><path inkscape:connector-curvature="0" d="M52.623 1013.122c.542.407.881 1.687.542 2.326-.339.524-1.288.408-1.424 1.047-.951.639-.958 1.113-1.866 1.813-.047-.085-.703.141-.67.688-.132.88-.786.815-1.125.931-.138 1.683-.348 1.774-.686 2.486-2.23 2.517-.56.663-2.23 2.517-1.966.35-1.56 1.745-2.577 1.629-3.887-1.544-1.412-.96-3.05-1.106-.679-.058-2.616 1.48-3.633 1.188-1.085-.349 1.012-1.696 1.012-2.509-.687-1.08 1.332-1.82 2.417-2.401 1.288-.582.746-1.804 1.966-2.618 1.153-.872-.746-4.188 3.187-2.385.61.234.95-1.454 1.763-1.745.746-1.163.814.35 1.763-.058 1.56-.581 3.322-2.734 4.61-1.803z" style="fill:#195fdd;fill-opacity:1;fill-rule:evenodd;stroke:#000;stroke-width:0;stroke-linecap:butt;stroke-linejoin:miter;stroke-miterlimit:4;stroke-dasharray:none;stroke-opacity:1" sodipodi:nodetypes="ccccccccccccccccccc"/><path inkscape:connector-curvature="0" d="M51.802 1013.64c.485.375.504 1.492.2 2.082-.303.483-1.151.376-1.273.966-1.12 1.498-.88.985-1.415 1.483 0 0-.566.319-.537.824-.118.81-.766.34-1.069.448-.123 1.552-.469 2.046-.77 2.703-1.995 2.321-.533.612-2.026 2.321-1.758.322-1.426 1.546-2.336 1.439-3.475-1.424-1.01-.76-2.475-.894-.378-.033-1.225.158-2.005.503-.472.21-.9.695-1.243.593-.97-.321.905-1.564.905-2.314-.374-.607.182-.75.868-1.162.44-.264 1.135-.717 1.514-.926 1.152-.537.446-1.79 1.537-2.54.85-.664-.312-2.605 1.277-2.425.34.039.891.153 1.51.446.545.215 1.1-1.373 1.828-1.641.667-1.073.628.355 1.476-.02.744-.285 1.64-1.017 2.395-1.477.66-.401 1.101-.81 1.639-.409z" style="fill:#86d4e6;fill-opacity:1;fill-rule:evenodd;stroke:#000;stroke-width:0;stroke-linecap:butt;stroke-linejoin:miter;stroke-miterlimit:4;stroke-dasharray:none;stroke-opacity:1" sodipodi:nodetypes="ccccccccccsccsccscccscc"/></g></svg>