<?xml version="1.0" encoding="UTF-8" standalone="no"?>
<svg
   xmlns:dc="http://purl.org/dc/elements/1.1/"
   xmlns:cc="http://creativecommons.org/ns#"
   xmlns:rdf="http://www.w3.org/1999/02/22-rdf-syntax-ns#"
   xmlns:svg="http://www.w3.org/2000/svg"
   xmlns="http://www.w3.org/2000/svg"
   xmlns:sodipodi="http://sodipodi.sourceforge.net/DTD/sodipodi-0.dtd"
   xmlns:inkscape="http://www.inkscape.org/namespaces/inkscape"
   id="svg6255"
   viewBox="0 0 100 100"
   version="1.0"
   inkscape:version="0.91 r13725"
   width="100%"
   height="100%"
   sodipodi:docname="aquarela_colors.svg">
  <sodipodi:namedview
     pagecolor="#ffffff"
     bordercolor="#666666"
     borderopacity="1"
     objecttolerance="10"
     gridtolerance="10"
     guidetolerance="10"
     inkscape:pageopacity="0"
     inkscape:pageshadow="2"
     inkscape:window-width="1366"
     inkscape:window-height="713"
     id="namedview52"
     showgrid="false"
     inkscape:zoom="3.7917738"
     inkscape:cx="23.711939"
     inkscape:cy="48.690939"
     inkscape:window-x="-2"
     inkscape:window-y="-3"
     inkscape:window-maximized="1"
     inkscape:current-layer="svg6255" />
  <defs
     id="defs6257">
    <linearGradient
       id="linearGradient2783"
       x1="281.98001"
       gradientUnits="userSpaceOnUse"
       y1="368.09"
       gradientTransform="matrix(0.51163,0,0,0.51163,63.091,180.33)"
       x2="207.88"
       y2="71.669998">
      <stop
         id="stop2779"
         stop-color="#e9b96e"
         offset="0" />
      <stop
         id="stop2781"
         stop-color="#eeeeec"
         offset="1" />
    </linearGradient>
    <linearGradient
       id="linearGradient2845"
       y2="149.16"
       gradientUnits="userSpaceOnUse"
       y1="156.55"
       x2="72.171997"
       x1="86.422997">
      <stop
         id="stop2841"
         stop-color="#f57900"
         offset="0" />
      <stop
         id="stop2843"
         stop-color="#f57900"
         stop-opacity="0"
         offset="1" />
    </linearGradient>
    <linearGradient
       id="linearGradient5040"
       x1="249.28"
       gradientUnits="userSpaceOnUse"
       y1="138.00999"
       gradientTransform="matrix(0.64729,0,0,0.64729,35.29,153.36)"
       x2="247.96001"
       y2="132.25">
      <stop
         id="stop5036"
         stop-color="#ad7fa8"
         offset="0" />
      <stop
         id="stop5038"
         stop-color="#ad7fa8"
         stop-opacity="0"
         offset="1" />
    </linearGradient>
    <linearGradient
       id="linearGradient5032"
       x1="217.73"
       gradientUnits="userSpaceOnUse"
       y1="158.28999"
       gradientTransform="matrix(0.64729,0,0,0.64729,35.29,153.36)"
       x2="210.52"
       y2="147.48">
      <stop
         id="stop5028"
         stop-color="#ef2929"
         offset="0" />
      <stop
         id="stop5030"
         stop-color="#ef2929"
         stop-opacity="0"
         offset="1" />
    </linearGradient>
    <linearGradient
       id="linearGradient5024"
       x1="196.10001"
       gradientUnits="userSpaceOnUse"
       y1="195.7"
       gradientTransform="matrix(0.64729,0,0,0.64729,35.29,153.36)"
       x2="187.22"
       y2="189.48">
      <stop
         id="stop5020"
         stop-color="#fcaf3e"
         offset="0" />
      <stop
         id="stop5022"
         stop-color="#fcaf3e"
         stop-opacity="0"
         offset="1" />
    </linearGradient>
    <linearGradient
       id="linearGradient5048"
       x1="205.11"
       gradientUnits="userSpaceOnUse"
       y1="238.06"
       gradientTransform="matrix(0.64729,0,0,0.64729,35.29,153.36)"
       x2="187.08"
       y2="234.03">
      <stop
         id="stop5044"
         stop-color="#729fcf"
         offset="0" />
      <stop
         id="stop5046"
         stop-color="#729fcf"
         stop-opacity="0"
         offset="1" />
    </linearGradient>
    <linearGradient
       id="linearGradient5064"
       x1="245.59"
       gradientUnits="userSpaceOnUse"
       y1="258.64999"
       gradientTransform="matrix(0.64729,0,0,0.64729,35.29,153.36)"
       x2="219.97"
       y2="255.19">
      <stop
         id="stop5060"
         stop-color="#fce94f"
         offset="0" />
      <stop
         id="stop5062"
         stop-color="#fce94f"
         stop-opacity="0"
         offset="1" />
    </linearGradient>
    <linearGradient
       id="linearGradient5072"
       x1="274.06"
       gradientUnits="userSpaceOnUse"
       y1="244.83"
       gradientTransform="matrix(0.64729,0,0,0.64729,35.29,153.36)"
       x2="261.44"
       y2="225.45">
      <stop
         id="stop5068"
         stop-color="#8ae234"
         offset="0" />
      <stop
         id="stop5070"
         stop-color="#8ae234"
         stop-opacity="0"
         offset="1" />
    </linearGradient>
    <linearGradient
       id="linearGradient5080"
       x1="314.62"
       gradientUnits="userSpaceOnUse"
       y1="212.38"
       gradientTransform="matrix(0.64729,0,0,0.64729,35.29,153.36)"
       x2="308.01999"
       y2="193.89999">
      <stop
         id="stop5076"
         stop-color="#555753"
         offset="0" />
      <stop
         id="stop5078"
         stop-color="#555753"
         stop-opacity="0"
         offset="1" />
    </linearGradient>
  </defs>
  <g
     id="layer1"
     transform="matrix(0.866438,0,0,0.91188892,-124.24436,-209.10986)">
    <g
       id="g6323"
       style="fill-rule:evenodd">
      <path
         id="path2775"
         d="m 211.17,229.98 c -2.8,-0.02 -6.46,0.23 -11.15,0.8 -60.07,7.39 -53.67,70.42 -53.67,70.42 11.32,104.88 171.83,-42.35 88.13,-36.94 -77.17,5 9.71,-33.95 -23.31,-34.28 z M 196.31,263 c 0.64,-0.03 1.25,0.06 1.81,0.29 3.01,1.19 3.53,5.69 1.18,10.04 -2.35,4.35 -6.7,6.9 -9.7,5.71 -3.01,-1.2 -3.54,-5.7 -1.19,-10.04 1.91,-3.54 5.15,-5.88 7.9,-6 z"
         inkscape:connector-curvature="0"
         style="fill:#2e3436;stroke:#2e3436;stroke-width:0.51163px" />
      <path
         id="path2176"
         d="m 208.67,229.49 c -2.8,-0.03 -6.46,0.22 -11.15,0.8 -60.07,7.39 -53.67,70.41 -53.67,70.41 11.32,104.88 171.83,-42.35 88.13,-36.93 -77.17,4.99 9.7,-33.95 -23.31,-34.28 z m -14.86,33.02 c 0.64,-0.03 1.25,0.06 1.81,0.29 3.01,1.19 3.53,5.69 1.18,10.04 -2.35,4.34 -6.7,6.9 -9.7,5.7 -3.01,-1.19 -3.54,-5.69 -1.19,-10.04 1.91,-3.53 5.15,-5.88 7.9,-5.99 z"
         inkscape:connector-curvature="0"
         style="fill:url(#linearGradient2783);stroke:#2e3436;stroke-width:0.51163px" />
      <path
         id="path2178"
         style="color:#000000;fill:#5c3566"
         d="m 192.29,234.1 c -0.96,0.13 -0.42,0.98 -0.04,1.77 -1.15,0.39 -2.19,0.88 -3.07,1.42 -2.32,-0.16 -5.11,-0.47 -5.57,0.08 -0.41,0.49 1.83,0.92 3.74,1.38 -0.7,0.75 -1.12,1.52 -1.12,2.27 0,0.09 0.01,0.18 0.02,0.27 -1.56,0.43 -2.98,0.84 -2.77,1.28 0.23,0.45 1.84,0.28 3.58,0.06 0.97,0.78 2.7,1.18 4.8,1.08 -0.14,1 -0.77,2.23 0.34,2.43 1.02,0.18 1.34,-1.39 1.82,-2.69 0.1,-0.02 0.19,-0.04 0.29,-0.06 1.01,-0.21 1.98,-0.51 2.88,-0.87 2.06,1.31 4.8,3.93 5.94,3.49 1.28,-0.5 -2.43,-3.39 -3.31,-4.86 0.49,-0.33 0.92,-0.66 1.28,-1.01 2,-0.03 5.31,0.53 5.28,-0.19 -0.03,-0.77 -3.2,-0.03 -4.97,-0.13 0.63,-0.71 0.99,-1.46 0.99,-2.16 0,-0.22 -0.05,-0.41 -0.11,-0.61 0.98,-0.83 1.81,-1.6 1.05,-1.85 -0.55,-0.18 -1.41,0.06 -2.37,0.46 -1.45,-0.75 -3.9,-0.92 -6.66,-0.35 -0.18,0.04 -0.34,0.09 -0.51,0.13 -0.37,-0.78 -0.76,-1.45 -1.51,-1.34 z"
         inkscape:connector-curvature="0" />
      <path
         id="path2760"
         style="color:#000000;fill:#cc0000"
         d="m 172.34,241.56 c -0.92,0.11 0.86,2.69 0.1,3.49 -0.95,1 -5.53,0.37 -6.16,1.5 -0.33,0.61 0.79,1.5 1.61,2.37 -2.88,2.91 -4.4,6.17 -3.56,8.18 0.8,1.92 3.55,2.16 6.84,0.9 0.31,0.87 0.66,1.64 1.11,1.92 0.63,0.38 1.3,-2.13 2.01,-3.46 v -0.01 c 0.29,-0.18 0.59,-0.36 0.88,-0.56 0.06,-0.04 0.12,-0.09 0.18,-0.13 1.3,0.58 3.53,4.57 4.55,3.97 0.89,-0.53 -2.96,-4.28 -2.56,-5.38 0.06,-0.15 0.17,-0.3 0.31,-0.44 0.01,-0.02 0.03,-0.02 0.05,-0.04 l 0.16,-0.16 c 0.03,-0.03 0.07,-0.06 0.11,-0.09 1.3,-1.05 4.08,-2 4.2,-3.14 0.06,-0.51 -0.55,-0.51 -1.26,-0.48 1.14,-1.89 1.59,-3.69 1.05,-4.98 -0.31,-0.75 -0.93,-1.24 -1.75,-1.49 -0.04,-0.11 -0.09,-0.21 -0.16,-0.29 -0.23,-0.22 -0.59,-0.13 -1.01,0.1 -1.17,-0.05 -2.59,0.22 -4.13,0.83 -0.86,-1.09 -1.77,-2.7 -2.57,-2.61 z"
         inkscape:connector-curvature="0" />
      <path
         id="path2762"
         style="color:#000000;fill:#ce5c00"
         transform="matrix(0.34782,-0.73025,0.8417,0.52002,-28.226,407.97)"
         d="m 277.17,114.02 a 13.474,6.7368 0 1 1 -26.94,0 13.474,6.7368 0 1 1 26.94,0 z"
         inkscape:connector-curvature="0" />
      <path
         id="path2764"
         style="color:#000000;fill:#3465a4"
         d="m 165,290.28 c -0.45,0.08 -1.08,0.75 -1.77,1.61 -2.06,-0.86 -4.34,-0.52 -6.38,0.76 -0.31,-1.06 -0.67,-1.87 -1.38,-1.67 -0.78,0.23 -0.49,1.46 -0.11,2.78 -0.98,0.9 -1.87,2.04 -2.62,3.36 -2.54,-0.61 -5.78,-1.75 -6.24,-0.59 -0.62,1.58 4.13,3.49 4.51,5.1 -0.06,0.25 -0.11,0.49 -0.16,0.74 -0.91,1.66 -5.44,3.68 -4.68,5.21 0.4,0.82 2.49,0.53 4.6,0.19 0.47,2.89 1.77,5.36 3.77,6.72 -0.07,0.71 0.04,1.21 0.5,1.29 0.34,0.06 0.62,-0.18 0.86,-0.59 2.82,1.06 5.98,-0.08 8.43,-2.75 0.61,0.35 1.14,0.51 1.52,0.29 0.6,-0.35 0.5,-1.45 0.24,-2.72 0.44,-0.76 0.85,-1.58 1.18,-2.46 0.54,-1.46 0.87,-2.94 1.01,-4.4 2.04,-0.83 4.33,-1.63 4.27,-2.69 -0.06,-1.02 -2.34,-0.54 -4.29,-0.33 -0.24,-2.51 -1.08,-4.76 -2.46,-6.35 0.1,-1.51 0.08,-2.85 -0.42,-3.37 -0.1,-0.12 -0.23,-0.16 -0.38,-0.13 z"
         inkscape:connector-curvature="0" />
      <path
         id="path2766"
         style="color:#000000;fill:#edd400"
         d="m 187.06,303.39 c -0.9,0.08 -1.25,1.53 -1.43,3.36 -2.99,0.19 -5.99,1.84 -8.24,4.55 -1.45,-0.87 -2.66,-1.41 -3.15,-0.75 -0.43,0.59 0.49,1.5 1.87,2.53 -0.38,0.62 -0.72,1.29 -1.02,1.98 -1.11,2.55 -1.49,5.19 -1.23,7.61 -1.22,0.44 -2.05,0.93 -1.98,1.54 0.07,0.67 1.02,0.68 2.35,0.43 0.78,2.89 2.56,5.25 5.16,6.41 1.13,0.5 2.33,0.73 3.53,0.72 0.02,0.96 0.23,1.69 0.85,1.92 0.98,0.36 1.76,-0.98 2.53,-2.58 1.83,-0.69 3.57,-1.9 5.03,-3.55 1.77,1.71 3.38,5.02 5.09,4.29 1.56,-0.67 -2.47,-3.07 -4.4,-5.1 0.67,-0.87 1.25,-1.85 1.74,-2.91 3.32,-0.22 8.54,0.56 8.88,-1.12 0.4,-2 -5.72,-1.28 -7.68,-2.53 0.17,-0.83 0.25,-1.65 0.28,-2.46 1.95,-2.21 6.53,-5.08 5.54,-6.49 -0.79,-1.14 -3.5,0.97 -5.98,2.56 -0.79,-2.86 -2.57,-5.18 -5.14,-6.33 -0.28,-0.12 -0.56,-0.23 -0.84,-0.32 -0.33,-2.14 -0.78,-3.85 -1.76,-3.76 z"
         inkscape:connector-curvature="0" />
      <path
         id="path2768"
         style="color:#000000;fill:#73d216"
         d="m 213.38,290.1 c -0.98,0.03 -0.91,1.57 -0.78,3.22 -2.05,0.18 -4.09,1.13 -5.82,2.68 -1.95,-0.69 -3.78,-1.27 -4.27,-0.57 -0.52,0.72 0.7,2.01 1.97,3.31 -0.39,0.6 -0.74,1.26 -1.04,1.95 -0.52,1.18 -0.84,2.39 -1.01,3.58 -0.88,0.36 -1.52,0.78 -1.46,1.37 0.05,0.46 0.57,0.7 1.32,0.85 0.1,3.76 1.89,7.07 4.98,8.44 3.48,1.55 7.61,0.24 10.52,-2.95 1.21,1.18 2.34,2.12 3.11,1.74 1.09,-0.55 -0.07,-3.13 -0.77,-5.28 0.04,-0.09 0.09,-0.18 0.13,-0.27 0.39,-0.9 0.67,-1.82 0.86,-2.73 2.08,0.37 5.75,2.73 5.98,1.39 0.26,-1.53 -4.62,-2.63 -5.69,-4.14 0,-0.44 -0.02,-0.86 -0.07,-1.28 0.7,-1.79 3.8,-4.18 2.58,-5.34 -0.73,-0.69 -2.3,0.26 -3.87,1.21 -0.85,-1.48 -2.07,-2.66 -3.63,-3.36 -0.49,-0.21 -0.98,-0.37 -1.49,-0.47 -0.26,-1.8 -0.61,-3.37 -1.55,-3.35 z"
         inkscape:connector-curvature="0" />
      <path
         id="path2770"
         style="color:#000000;fill:#2e3436"
         d="m 236.88,267.24 c -0.7,-0.04 -1.18,1.69 -1.74,3.25 -1.34,0.22 -2.66,0.74 -3.9,1.51 -2.25,-1.2 -5.2,-3.09 -6.35,-2.31 -1.45,0.98 3.96,3.15 3.55,4.65 -0.15,0.16 -0.28,0.34 -0.43,0.51 -1.94,1.32 -9.84,1.73 -9.96,3.53 -0.11,1.69 5.34,2.48 6.6,3.91 -0.09,0.58 -0.14,1.16 -0.16,1.74 -1.08,1.52 -3.73,3.18 -2.71,4.23 0.46,0.49 1.67,0.06 3.08,-0.63 0.73,2.93 2.49,5.35 5.1,6.52 5.1,2.27 11.47,-1.07 14.25,-7.44 1.58,-3.62 1.65,-7.45 0.48,-10.5 0.15,-0.23 0.23,-0.45 0.2,-0.69 -0.03,-0.38 -0.33,-0.52 -0.76,-0.54 -0.94,-1.73 -2.32,-3.11 -4.11,-3.9 -0.75,-0.33 -1.53,-0.56 -2.32,-0.66 0.1,-1.41 0.09,-2.66 -0.54,-3.08 -0.1,-0.07 -0.19,-0.1 -0.28,-0.1 z"
         inkscape:connector-curvature="0" />
      <path
         id="path2789"
         style="color:#000000;fill:url(#linearGradient2845)"
         transform="matrix(0.44918,0,0,0.45729,125.7,206.46)"
         d="m 101.78,164.73 c -1.802,3.44 -9.88,-8.06 -13.005,-5.98 -2.971,1.99 -0.425,16.45 -3.987,16.28 -3.746,-0.17 -7.656,-13.89 -11.006,-15.52 -3.185,-1.55 -8.76,10.53 -10.88,7.56 -2.23,-3.12 6.078,-10.66 4.691,-13.99 -1.318,-3.17 -11.172,0.31 -11.15,-3.21 0.023,-3.7 10.4,-3.02 12.571,-6.1 2.065,-2.92 -7.877,-15.82 -4.776,-17.32 3.26,-1.57 13.56,10.35 17.053,9.56 3.322,-0.75 1.803,-13.34 5.259,-12.71 3.635,0.66 -4.148,13.01 -1.143,15.16 2.857,2.06 15.663,-0.37 16.653,3.12 1.04,3.67 -7.063,4.94 -7.766,8.56 -0.668,3.44 9.196,11.32 7.486,14.59 z"
         inkscape:connector-curvature="0" />
      <path
         id="path4968"
         style="color:#000000;fill:url(#linearGradient5040)"
         d="m 198.33,238.98 c -2.59,0.35 -6.59,0.86 -7.7,3.24 3.6,1.12 7.85,-0.63 10.33,-2.94 -0.79,-0.34 -1.74,-0.35 -2.63,-0.3 z"
         inkscape:connector-curvature="0" />
      <path
         id="path4970"
         style="color:#000000;fill:url(#linearGradient5032)"
         d="m 179.62,247.31 c -2.27,0.51 -4.11,1 -6.11,2.07 -2.4,-0.48 -1.24,1.95 -2.67,3.07 -1.15,1.32 -3.41,3.34 -2.57,5.18 1.52,-0.49 3.41,-0.45 4.84,-0.63 1.07,-2.04 3.57,-2.15 4.69,-4.12 1.81,-0.89 2.3,-3.21 3.14,-4.98 0.19,-0.77 -0.86,-0.63 -1.32,-0.59 z"
         inkscape:connector-curvature="0" />
      <path
         id="path4972"
         style="color:#000000;fill:url(#linearGradient5024)"
         d="m 163.06,268.8 c -4.42,1.76 -6.41,7.36 -6.58,11.77 -0.1,1.76 1.23,3.58 3,2.16 4.63,-2.5 6.37,-8.97 4.91,-13.61 -0.34,-0.3 -0.88,-0.38 -1.33,-0.32 z"
         inkscape:connector-curvature="0" />
      <path
         id="path4974"
         style="color:#000000;fill:url(#linearGradient5048)"
         d="m 161.4,295.38 c -2.86,0.76 -4.68,3.41 -5.97,5.92 -2.3,-0.57 0.38,2.33 -0.89,3.54 -0.27,1.24 -2.37,1.76 -0.63,2.61 1.47,2.4 1.4,6.49 4.98,6.82 2.38,0.38 4.59,-1.38 6.09,-2.94 1.1,-2.69 2.04,-5.83 2.36,-8.53 -0.55,-2.42 -1.11,-5.24 -2.85,-6.98 -1.05,0.03 -2.03,-0.51 -3.09,-0.44 z"
         inkscape:connector-curvature="0" />
      <path
         id="path4976"
         style="color:#000000;fill:url(#linearGradient5064)"
         d="m 187.65,310.57 c -7.92,0.57 -12.89,11.3 -8.09,17.72 1.32,2.24 4.11,2.13 6.25,2.71 2.54,-2.04 5.83,-3.39 6.9,-6.8 1.28,-0.99 1.23,-1.61 0.89,-3.03 -0.03,-1.25 0.87,-2.85 0.61,-3.77 -1.22,-2.21 -1.44,-5.24 -4.35,-6.23 -0.68,-0.29 -1.6,-0.64 -2.21,-0.6 z"
         inkscape:connector-curvature="0" />
      <path
         id="path4978"
         style="color:#000000;fill:url(#linearGradient5072)"
         d="m 214.54,297.24 c -2.29,-0.05 -4.44,1.95 -6.17,2.81 -0.69,3.02 -3,5.78 -2.11,9.14 0.32,4.66 6.58,7 9.83,3.46 3.2,-2.3 4.56,-6.47 3.89,-10.28 1.27,-1.63 -1.36,-2.04 -1.82,-3.64 -0.78,-1.09 -2.38,-1.51 -3.62,-1.49 z"
         inkscape:connector-curvature="0" />
      <path
         id="path4980"
         style="color:#000000;fill:url(#linearGradient5080)"
         d="m 238.36,274.34 c -2.18,-0.27 -4.18,1.29 -5.96,1.74 -0.66,3.11 -4.7,3.49 -7.29,4.08 2.5,0.73 4.32,3.47 3.16,5.95 -0.53,5.28 5.82,9.86 10.32,6.39 5.63,-3.34 8.11,-12.85 2.36,-17.31 -0.79,-0.27 -1.85,-0.98 -2.59,-0.85 z"
         inkscape:connector-curvature="0" />
    </g>
  </g>
  <metadata
     id="metadata50">
    <rdf:RDF>
      <cc:Work>
        <dc:format>image/svg+xml</dc:format>
        <dc:type
           rdf:resource="http://purl.org/dc/dcmitype/StillImage" />
        <cc:license
           rdf:resource="http://creativecommons.org/licenses/publicdomain/" />
        <dc:publisher>
          <cc:Agent
             rdf:about="http://openclipart.org/">
            <dc:title>Openclipart</dc:title>
          </cc:Agent>
        </dc:publisher>
        <dc:title>Aquarela Colors</dc:title>
        <dc:date>2007-07-17T21:16:23</dc:date>
        <dc:description>aquarela, aquarela, cartoon, cartoon, clip art, clipart, colors, colors, image, media, paint, paint, png, public domain, svg, tool, tool, </dc:description>
        <dc:source>http://openclipart.org/detail/4421/aquarela-colors-by-valessiobrito-4421</dc:source>
        <dc:creator>
          <cc:Agent>
            <dc:title>valessiobrito</dc:title>
          </cc:Agent>
        </dc:creator>
        <dc:subject>
          <rdf:Bag>
            <rdf:li>aquarela</rdf:li>
            <rdf:li>cartoon</rdf:li>
            <rdf:li>clip art</rdf:li>
            <rdf:li>clipart</rdf:li>
            <rdf:li>colors</rdf:li>
            <rdf:li>image</rdf:li>
            <rdf:li>media</rdf:li>
            <rdf:li>paint</rdf:li>
            <rdf:li>png</rdf:li>
            <rdf:li>public domain</rdf:li>
            <rdf:li>svg</rdf:li>
            <rdf:li>tool</rdf:li>
          </rdf:Bag>
        </dc:subject>
      </cc:Work>
      <cc:License
         rdf:about="http://creativecommons.org/licenses/publicdomain/">
        <cc:permits
           rdf:resource="http://creativecommons.org/ns#Reproduction" />
        <cc:permits
           rdf:resource="http://creativecommons.org/ns#Distribution" />
        <cc:permits
           rdf:resource="http://creativecommons.org/ns#DerivativeWorks" />
      </cc:License>
    </rdf:RDF>
  </metadata>
</svg>
