<!--Created with Inkscape (http://www.inkscape.org/)--><svg xmlns:dc="http://purl.org/dc/elements/1.1/" xmlns:cc="http://creativecommons.org/ns#" xmlns:rdf="http://www.w3.org/1999/02/22-rdf-syntax-ns#" xmlns="http://www.w3.org/2000/svg" xmlns:xlink="http://www.w3.org/1999/xlink" xmlns:sodipodi="http://sodipodi.sourceforge.net/DTD/sodipodi-0.dtd" xmlns:inkscape="http://www.inkscape.org/namespaces/inkscape" width="1920" height="1080" viewBox="0 0 507.99999 285.75001" inkscape:version="0.92.4 (5da689c313, 2019-01-14)" sodipodi:docname="background.svg"><defs><linearGradient gradientTransform="matrix(.60467 0 0 .47239 11.34 29.148)" inkscape:collect="always" xlink:href="#a" id="b" x1="366.97931" y1="-2.4690716" x2="380.71881" y2="262.47476" gradientUnits="userSpaceOnUse"/><linearGradient inkscape:collect="always" id="a"><stop style="stop-color:#3cc1f1;stop-opacity:1" offset="0"/><stop style="stop-color:#85d8f6;stop-opacity:1" offset="1"/></linearGradient></defs><sodipodi:namedview pagecolor="#ffffff" bordercolor="#666666" borderopacity="1.0" inkscape:pageopacity="0.0" inkscape:pageshadow="2" inkscape:zoom="0.24748737" inkscape:cx="1503.242" inkscape:cy="516.18708" inkscape:document-units="px" inkscape:current-layer="layer1" showgrid="false" units="px" inkscape:snap-global="false" inkscape:window-width="1884" inkscape:window-height="1051" inkscape:window-x="0" inkscape:window-y="0" inkscape:window-maximized="1"/><metadata><rdf:RDF><cc:Work><dc:format>image/svg+xml</dc:format><dc:type rdf:resource="http://purl.org/dc/dcmitype/StillImage"/><dc:title/><dc:date>2020</dc:date><dc:creator><cc:Agent><dc:title>Timothée Giet</dc:title></cc:Agent></dc:creator><cc:license rdf:resource="http://creativecommons.org/licenses/by-sa/4.0/"/></cc:Work><cc:License rdf:about="http://creativecommons.org/licenses/by-sa/4.0/"><cc:permits rdf:resource="http://creativecommons.org/ns#Reproduction"/><cc:permits rdf:resource="http://creativecommons.org/ns#Distribution"/><cc:requires rdf:resource="http://creativecommons.org/ns#Notice"/><cc:requires rdf:resource="http://creativecommons.org/ns#Attribution"/><cc:permits rdf:resource="http://creativecommons.org/ns#DerivativeWorks"/><cc:requires rdf:resource="http://creativecommons.org/ns#ShareAlike"/></cc:License></rdf:RDF></metadata><g inkscape:label="Calque 1" inkscape:groupmode="layer" transform="translate(0 -11.25)"><rect style="fill:url(#b);fill-opacity:1;fill-rule:evenodd;stroke-width:.53445423" y="11.249985" width="508" height="285.75"/><path style="fill:#b9dbe7;fill-opacity:1;fill-rule:evenodd;stroke-width:.5214324" inkscape:connector-curvature="0" d="M535.838 136.86c-32.655 11.657-1.156 38.533-35.332 53.934-40.457 4.864-272.883-7.922-327.56-19.44-54.678-11.518 59.214-28.703 112.158-38.362 92.275-16.833 168.703-10.782 250.734 3.868z" sodipodi:nodetypes="ccssc"/><path style="fill:#c5e1ed;fill-opacity:1;fill-rule:evenodd;stroke-width:.5214324" inkscape:connector-curvature="0" d="M-19.11 116.847c-8.858 38.294-55.698 87.326 51.116 104.713 106.815 17.387 435.884 3.856 491.113-.659l-9.729-59.766c-314.479 35.84-459.68-103.978-532.5-44.288z" sodipodi:nodetypes="csccc"/><path style="fill:#80bfd4;fill-opacity:1;stroke:none;stroke-width:.0996453px;stroke-linecap:butt;stroke-linejoin:miter;stroke-opacity:1" d="M61.03 154.779c-2.552 7.55-4.842 10.49-6.1 15.567.794-1.121 1.78-2.279 2.983-2.632 0 0-4.554 7.334-5.174 9.244 1.076-.593 1.764-.839 2.835-.73-2.269 3.067-4.733 5.547-5.92 8.223 1.174-.087 4.85-2.26 4.85-2.26l-6.165 7.897 27.46.461c-2.386-5.037-4.093-4.97-6.157-7.907l3.424 1.68c.392.068-3.13-6.382-5.106-7.873-.932-1.312 3.113 1.697 3.113 1.697-1.784-3.705-2.72-5.742-5.353-8.85 0 0-.213-1.387 3.413 1.107-.954-2.168-5.894-9.173-8.102-15.624z" inkscape:connector-curvature="0" sodipodi:nodetypes="cccccccccccccccc"/><path style="fill:#80bfd4;fill-opacity:1;stroke:none;stroke-width:.10295085px;stroke-linecap:butt;stroke-linejoin:miter;stroke-opacity:1" d="M6.774 152.922c3.607 7.402 6.34 10.114 8.295 15.153-.961-1.045-2.124-2.102-3.402-2.306 0 0 5.629 6.919 6.515 8.795-1.181-.467-1.918-.629-3.002-.377 2.728 2.845 5.579 5.064 7.147 7.65-1.215.066-5.268-1.679-5.268-1.679l7.354 7.284-28.081 4.076c1.785-5.475 3.543-5.63 5.273-8.912l-3.288 2.172c-.394.12 2.37-6.952 4.2-8.739.782-1.467-2.968 2.147-2.968 2.147 1.342-4.03 2.033-6.24 4.324-9.77 0 0 .036-1.451-3.352 1.58.693-2.346 4.837-10.173 6.253-17.074z" inkscape:connector-curvature="0" sodipodi:nodetypes="cccccccccccccccc"/><path style="fill:#8cc5d8;fill-opacity:1;stroke:none;stroke-width:.11680241px;stroke-linecap:butt;stroke-linejoin:miter;stroke-opacity:1" d="M-2.924 151.784c1.636 5.312 6.078 11.618 9.2 17.268-1.841-1.665-2.9-2.047-3.936-2.146 1.35 3.158 5.838 5.912 7.907 10.301-1.62-1.459-3.646-2.327-5.283-2.64.936 2.455 4.981 3.96 8.57 9.52-1.37.128-3.656-.838-3.656-.838l8.247 7.36-31.322 7.35c1.762-6.304 3.599-7.998 5.401-11.804l-5.19 5.362c-.439.154 3.93-10.755 5.913-12.867.816-1.702-5.105 4.093-5.105 4.093 1.328-4.64 3.857-8.705 6.282-12.82 0 0 .4-1.379-3.289 2.217.674-2.699 4.054-12.927 6.26-20.356z" inkscape:connector-curvature="0" sodipodi:nodetypes="cccccccccccccccc"/><path style="fill:#8cc5d8;fill-opacity:1;stroke:none;stroke-width:.10295085px;stroke-linecap:butt;stroke-linejoin:miter;stroke-opacity:1" d="M36.025 150.76c3.265 7.56 5.87 10.394 7.594 15.516-.913-1.087-2.026-2.196-3.293-2.458 0 0 5.307 7.168 6.106 9.082-1.158-.52-1.887-.715-2.981-.513 2.595 2.967 5.34 5.313 6.79 7.97-1.217.01-5.186-1.92-5.186-1.92l7.014 7.613-28.239 2.788c2.034-5.388 3.797-5.463 5.675-8.661l-3.384 2.02c-.399.102 2.686-6.837 4.594-8.539.85-1.43-3.062 2.01-3.062 2.01 1.525-3.965 2.316-6.141 4.767-9.564 0 0 .102-1.447-3.421 1.427.8-2.313 5.296-9.942 7.026-16.771z" inkscape:connector-curvature="0" sodipodi:nodetypes="cccccccccccccccc"/><path style="fill:#9fcddf;fill-opacity:1;stroke:none;stroke-width:.11680241px;stroke-linecap:butt;stroke-linejoin:miter;stroke-opacity:1" d="M30.921 163.115c-2.083-1.848-3.012-2.163-4.32-2.983 1.148 2.539 4.53 5.283 7.31 11.245-1.497-1.422-3.05-2.712-4.798-3.047 1.523 2.708 5.12 4.631 7.458 8.802-1.747-1.309-4.393-1.346-4.393-1.346l8.524 8.585-31.417 5.748c2.059-6.213 3.974-7.818 5.956-11.534l-5.439 5.11c-.446.133 4.434-10.557 6.516-12.573.897-1.661-5.294 3.847-5.294 3.847 1.548-4.572 4.266-8.513 6.884-12.508 0 0 .465-1.358-3.39 2.059 1.708-4.941 5.11-12.352 6.619-17.769 2.358 5.006 6.14 9.431 9.784 16.364z" inkscape:connector-curvature="0" sodipodi:nodetypes="cccccccccccccccc"/><path style="fill:#8cc5d8;fill-opacity:1;stroke:none;stroke-width:.11680241px;stroke-linecap:butt;stroke-linejoin:miter;stroke-opacity:1" d="M79.035 170.41c-1.909-2.027-2.806-2.425-4.035-3.358.916 2.631 4.039 5.668 6.274 11.854-1.364-1.55-2.796-2.974-4.507-3.464 1.275 2.833 4.684 5.071 6.64 9.435-1.623-1.46-4.255-1.735-4.255-1.735l7.72 9.315-31.806 2.909c2.608-6.003 4.66-7.43 6.966-10.954l-5.875 4.602c-.456.092 5.363-10.117 7.617-11.938 1.041-1.574-5.617 3.357-5.617 3.357 1.95-4.415 5.011-8.096 7.976-11.84 0 0 .585-1.312-3.56 1.746 2.144-4.768 6.196-11.844 8.184-17.104 1.9 5.197 5.271 9.944 8.278 17.175z" inkscape:connector-curvature="0" sodipodi:nodetypes="cccccccccccccccc"/><path style="fill:#9fcddf;fill-opacity:1;stroke:none;stroke-width:.11680241px;stroke-linecap:butt;stroke-linejoin:miter;stroke-opacity:1" d="M53.262 152.272c.892 5.486 4.427 12.342 6.744 18.367-1.595-1.902-2.591-2.425-3.604-2.666.903 3.313 4.971 6.657 6.42 11.29-1.405-1.669-3.294-2.806-4.872-3.34.59 2.56 4.39 4.606 7.182 10.604-1.374-.062-3.505-1.33-3.505-1.33l7.159 8.42-32.035 2.984c2.61-6.002 4.662-7.428 6.97-10.951l-5.876 4.599c-.456.093 5.367-10.114 7.621-11.935 1.043-1.573-5.618 3.355-5.618 3.355 1.953-4.414 5.015-8.094 7.982-11.837 0 0 .585-1.31-3.562 1.745 1.038-2.58 5.789-12.25 8.994-19.305z" inkscape:connector-curvature="0" sodipodi:nodetypes="cccccccccccccccc"/><path style="fill:#8cc5d8;fill-opacity:1;stroke:none;stroke-width:.11305211px;stroke-linecap:butt;stroke-linejoin:miter;stroke-opacity:1" d="M104.395 156.315c-.918 5.301-4.407 11.902-6.71 17.71 1.563-1.825 2.532-2.321 3.514-2.545-.907 3.198-4.877 6.394-6.325 10.863 1.376-1.6 3.215-2.683 4.748-3.184-.597 2.471-4.295 4.414-7.057 10.192 1.331-.045 3.406-1.253 3.406-1.253l-7.013 8.079 30.975 3.206c-2.466-5.835-4.438-7.235-6.637-10.668l5.642 4.51c.44.094-5.094-9.843-7.258-11.627-.993-1.533 5.405 3.303 5.405 3.303-1.846-4.292-4.774-7.884-7.608-11.536 0 0-.553-1.275 3.43 1.724-.978-2.508-5.48-11.913-8.512-18.774z" inkscape:connector-curvature="0" sodipodi:nodetypes="cccccccccccccccc"/><path style="fill:#9fcddf;fill-opacity:1;stroke:none;stroke-width:.11680241px;stroke-linecap:butt;stroke-linejoin:miter;stroke-opacity:1" d="M86.093 152.73c1.637 5.313 6.078 11.619 9.2 17.269-1.84-1.665-2.899-2.047-3.935-2.147 1.349 3.159 5.837 5.913 7.907 10.302-1.62-1.459-3.647-2.327-5.283-2.64.936 2.455 4.98 3.96 8.569 9.52-1.37.128-3.655-.838-3.655-.838l8.247 7.36-31.323 7.35c1.762-6.304 3.6-7.998 5.402-11.804l-5.19 5.362c-.439.154 3.929-10.755 5.912-12.868.817-1.702-5.105 4.094-5.105 4.094 1.329-4.64 3.858-8.706 6.283-12.82 0 0 .4-1.379-3.289 2.217.674-2.699 4.054-12.927 6.26-20.357z" inkscape:connector-curvature="0" sodipodi:nodetypes="cccccccccccccccc"/><path style="fill:#9fcddf;fill-opacity:1;stroke:none;stroke-width:.11305211px;stroke-linecap:butt;stroke-linejoin:miter;stroke-opacity:1" d="M113.07 170.005c1.772-2.03 2.625-2.448 3.78-3.395-.79 2.578-3.7 5.629-5.636 11.694 1.263-1.55 2.595-2.979 4.232-3.515-1.13 2.787-4.346 5.075-6.078 9.367 1.516-1.471 4.052-1.832 4.052-1.832l-7.128 9.29 30.869 1.656c-2.741-5.71-4.777-7.016-7.136-10.34l5.85 4.236c.444.073-5.556-9.59-7.802-11.27-1.065-1.484 5.555 3.044 5.555 3.044-2.047-4.2-5.142-7.65-8.146-11.163 0 0-.613-1.246 3.508 1.56-2.248-4.534-6.424-11.23-8.539-16.245-1.648 5.095-4.736 9.809-7.382 16.913z" inkscape:connector-curvature="0" sodipodi:nodetypes="cccccccccccccccc"/><path style="fill:#dcedf3;fill-opacity:1;fill-rule:evenodd;stroke-width:.5214324" inkscape:connector-curvature="0" d="M-27.968 191.427c9.055 23.094 6.534 77.493 39.741 78.316l483.107 3.061c5.942 3.755 70.641-76.53 39.578-82.14-105.644-19.08-317.577-24.29-562.426.763z" sodipodi:nodetypes="cccsc"/><path style="display:inline;fill:#b9dbe7;fill-opacity:1;stroke-width:.77137411" d="M0 772.29V1080h1918.549L1920 877.123V786.67c-358.083-16.882-638.585 24.117-913.354 50.969.354-3.254.874-6.455 1.62-9.52v-5.738a54.95 54.95 0 0 0-4.12 8.533 64.264 64.264 0 0 0-2.255 7.184l-4.106.396c-.398-9.307-.573-17.864-.514-23.512-.955 1.542-1.74 3.88-2.412 6.75-.211.904.747 3.018.56 4.026-.199 1.082-1.266-2.535-1.439-1.35-.61 4.204-1.059 9.233-1.384 14.586-2.514.241-5.03.49-7.543.729a67.002 67.002 0 0 0-5.723-7.893c-.82-.972.051 2.241-.853 1.28-.668-.71-3.087-5.591-3.803-6.294-2.935-2.88-6.284-5.68-10.094-8.388 6.245 5.779 10.988 13.576 14.422 21.863-7.663.72-15.324 1.434-22.982 2.127-1.524-19.07-3.503-34.996-5.764-39.244.798 9.16.594 24.508-.211 39.773-.263.024-.526.045-.79.069-1.457-7.229-3.405-13.205-5.97-15.762.592 3.945 1.02 9.75 1.29 16.174-1.81.16-3.618.32-5.427.478a73.69 73.69 0 0 1 .456-3.9c-.887.884-1.674 2.302-2.381 4.07-1.28.112-2.559.227-3.838.338-.26-5.706-.39-11.199-.291-15.883.059-2.82 3.376-3.478 3.56-5.591-.658 1.236-5.548 1.409-5.998 3.568-.97 4.66-1.468 11.208-1.699 18.297-1.133.097-2.266.188-3.398.285-.243-5.315-.373-10.451-.315-14.943.068-.537.123-1.106.195-1.59-.061.06-.109.128-.17.193.126-2.746 3.353-3.404 3.536-5.496-.659 1.236-5.55 1.407-5.998 3.566-.538 2.585-.93 5.752-1.22 9.258-.896 2.767-1.681 6.028-2.355 9.537l-.59.05c-.337-7.037-.49-13.994-.394-20.241.248-.846.519-1.666.805-2.485.536-1.533.98-1.736 1.658-3.156 1.386-2.906 1.753-4.211 3.242-5.931a48.777 48.777 0 0 0-5.582 7.136c.09-2.423.208-4.696.389-6.773-1.48 2.777-2.634 7.155-3.535 12.46a56.92 56.92 0 0 0-1.78 4.17c-1.948 5.094-3.157 10.372-3.869 15.573l-2.078.172c-.675-12.319-.979-24.385-.902-31.652-.956 1.541-1.766 3.854-2.438 6.724-.211.904.747 3.018.56 4.026-.2 1.082-1.267-2.512-1.439-1.327-.913 6.29-1.47 14.407-1.777 22.727-1.022.082-2.045.159-3.066.24-2.307-5.145-5.453-10.386-9.784-15.517-.82-.973.052 2.19-.853 1.228-.395-.42-1.384-2.253-2.291-3.855.054-.417.089-.87.146-1.254a7.949 7.949 0 0 0-.537.601c-.476-.822-.911-1.529-1.144-1.758a79.968 79.968 0 0 0-5.438-4.87c.087-3.007.244-5.828.463-8.34-.877 1.646-1.648 3.878-2.314 6.51a4.001 4.001 0 0 0-.659-1.182c-1.321-1.608-2.633-.296-3.681 1.132a82.662 82.662 0 0 0-9.606 8.077c-.156.153-.397.524-.681.988a379.04 379.04 0 0 1-.123-12.416c.01-1.229.064-4.506.464-4.7 1.17-.563 3.679 4.642 3.9 2.098-.562 1.058-2.434-4.118-4.509-3.93-.384.035-.755.247-1.146.723-1.01 1.23-1.154 3.324-1.61 6.389-.731 4.917-1.26 10.677-1.658 16.752-4.634 5.676-7.887 11.478-10.148 17.115-.646.044-1.29.09-1.936.133-.28-9.294-.842-18.555-1.86-25.563-.172-1.185-1.237 2.407-1.437 1.325-.186-1.008.796-3.122.584-4.026-.672-2.87-1.505-5.183-2.46-6.724.083 8.005-.272 21.827-1.09 35.4l-1.41.094c-.6-6.472-1.9-13.173-4.352-19.584-2.384-6.23-5.843-12.202-10.848-17.404 1.802 1.93 2.093 3.214 3.584 6.34.678 1.42 1.122 1.599 1.658 3.132 2.617 7.487 3.372 17.698 3.186 27.955-4.943.315-9.89.62-14.84.914-.35-10.461-1.047-20.943-2.266-29.133-.456-3.064-.575-5.182-1.586-6.412-.47-.572-.931-.765-1.388-.722-1.982.185-3.75 4.945-4.291 3.927.221 2.544 2.755-2.659 3.925-2.095.401.193.453 3.47.463 4.699.078 8.883-.268 19.605-.873 30.086l-.136.008a116.74 116.74 0 0 0-.672-3.578c-.801-6.761-2.05-12.367-3.926-14.92.06.881.132 1.867.17 2.916-.626-1.215-1.301-2.196-2.024-2.916.672 4.474 1.133 11.325 1.389 18.793-3.57.201-7.144.395-10.719.586 1.504-12.417 3.806-24.307 7.235-31.694 3.067-6.61 7.333-3.506 11.724-7.57-5.97 4.243-11.396.337-15.36 5.69-7.938 10.724-12.233 22.99-14.474 34.134l-.252.014c.046-11.109-.314-22.938-1.484-34.607-.629-6.267 4.683-27.168 3.365-30.131.03 3.88-6.723 8.158-6.924 13.644-.213 5.832 1.112 10.395.805 17.211-.344 7.64-.907 15.826-1.61 23.865-1.346-9.254-4.35-18.786-10.335-27.191-3.22-4.522-12.232-1.257-17.383-4.918 4.079 3.775 12.044 1.57 14.285 7.594 3.93 10.561 5.369 23.525 5.514 35.195-5.905.271-11.814.53-17.733.77 2.043-12.483 5.399-23.731 11.155-29.057-12.924 9.186-20.483 19.589-24.838 29.578l-2.631.094c-.548-14.264-2.039-27.981-5.223-33.12.069 6.5-.153 16.847-.683 27.77-1.644-11.397-6.602-22.969-18.307-32.156.038-.104.06-.234.098-.338 2.241-6.024 10.23-3.842 14.308-7.617-5.151 3.661-14.184.445-17.404 4.967-5.984 8.402-8.965 17.915-10.313 27.166-.701-8.035-1.289-16.229-1.632-23.866-.307-6.816 1.04-11.354.828-17.185-6.96-27.445-8.829 3.761-3.584 16.463-1.212 12.083-1.564 24.35-1.487 35.797-1.354-7.16-3.557-14.81-7.021-22.274-.32-3.54-.696-6.903-1.147-9.931-.455-3.065-.573-5.183-1.583-6.412-1.97-2.396-3.925 1.72-4.999 2.99 2.192-5.504 5.102-10.3 8.899-13.813-4.86 3.455-8.789 7.411-11.92 11.643-3.52-1.489-7.778.01-12.336-3.23 3.886 3.596 7.704 1.57 10.654 5.64-4.902 7.477-7.568 15.744-8.923 23.865-1.596-20.244-2.747-41.631-2.657-53.635-4.206 9.46-4.422 39.776-3.756 65.159-2.037-10.072-5.74-21.053-12.31-30.977 3.05-6.53 6.719-12.222 11.068-16.246-5.322 3.783-9.747 8.154-13.457 12.848-3.912-5.211-8.698-10.053-14.53-14.198 4.703 4.351 8.612 10.662 11.8 17.862-7.026 10.202-10.955 21.623-13.067 32.06.38-14.486.477-30.576-.293-43.486.124-.104.243-.2.368-.315-.123.088-.246.162-.368.243-.58-9.672-1.635-17.551-3.435-21.6.045 5.907-.227 14.113-.684 23.31-4.183.89-7.955-.236-10.896 3.737-.33.444-.635.876-.951 1.326a51.44 51.44 0 0 0-1.538-2.049c.072-3.706.225-7.079.465-9.834-.92 1.73-1.711 4.299-2.39 7.473a52.821 52.821 0 0 0-8.092-7.45c.246-7.765 4.571-25.557 3.363-28.275.03 3.88-6.698 8.183-6.898 13.668-.213 5.832 1.111 10.371.804 17.188-.485 10.788-2.294 24.532-4.267 37.435-.13.283-.264.585-.389.891-.42-5.759-1.386-11.772-3.244-17.645 1.01-1.182 2.512-1.922 2.635-3.326-.343.643-1.835.994-3.244 1.494a58.696 58.696 0 0 0-2.9-6.845c.828-.9 1.694-1.78 2.583-2.604a89.725 89.725 0 0 0-2.851 2.121c-1.159-2.258-2.453-4.468-3.975-6.605a4.97 4.97 0 0 0-.291-.361c.038-.103.073-.17.121-.194 1.17-.563 3.702 4.642 3.924 2.098-.667 1.253-3.172-6.258-5.68-3.207-.011.015-.014.012-.021.023-4.05-2.038-11.1-.247-15.432-3.326 4.03 3.728 11.862 1.646 14.213 7.4-.1.695-.217 1.452-.342 2.29-.434 2.915-.785 6.151-1.097 9.546-8.373 8.647-13.17 17.816-15.846 26.371-.322-16.391-1.75-33.669-5.412-39.58.068 6.509-.173 16.878-.705 27.817-.98-6.838-3.143-13.757-7.243-20.176a45.993 45.993 0 0 1 3.05-3.11 88.974 88.974 0 0 0-3.415 2.532c-3.108-4.712-7.285-9.154-12.822-13.09 3.522 3.26 6.134 7.488 8.02 12.27-1.064 1.685-1.944 4.308-2.682 7.521-.894.904-1.768 1.784-2.584 2.7.023-4.282.19-8.104.512-11.089-1.891 2.867-3.236 8.6-4.168 15.573-.17.225-.347.448-.512.673-.292-3.776-.696-7.18-1.268-9.93-.185-.89-1.131-1.448-2.218-1.88 1.726-3.523 3.93-6.665 6.68-9.21-3.62 2.573-6.655 5.38-9.192 8.317-.604-.236-1.094-.493-1.268-.82.05.568.331 1.042.707 1.47a46.12 46.12 0 0 0-4.63 6.63c-.856-6.758-2.112-12.24-3.877-15.09.064 6.103-.123 15.568-.586 25.746-.09.312-.184.65-.268.963a54.96 54.96 0 0 0-1.877-7.907c-.134-5.179-.183-9.801-.146-13.28-.961 1.55-1.763 3.88-2.438 6.773a46.103 46.103 0 0 0-4.973-8.004c1.91-5.154 4.62-9.723 8.362-13.186-4.42 3.141-7.966 6.604-10.8 10.268-2.37-2.611-5.135-5.09-8.386-7.4 2.84 2.627 5.098 5.88 6.85 9.546-3.874 5.65-6.195 11.727-7.46 17.815-.27-.309-.55-.609-.83-.916-.384-9.218-.57-17.686-.511-23.287-2.052 3.311-3.39 10.198-4.24 18.488a80.674 80.674 0 0 0-3.121-2.723c.067-.53.123-1.087.195-1.566a8.413 8.413 0 0 0-.854 1.012 87.781 87.781 0 0 0-4.486-3.399 47.151 47.151 0 0 1 3.975 4.193c-1.34 2.16-2.467 5.306-3.438 9.041-.34-.552-.71-1.088-1.072-1.64.252-3.793.564-7.17.95-9.738-.723.72-1.398 1.726-2.024 2.941.039-1.05.085-2.034.146-2.916-.183.25-.364.538-.535.844-.008-.33-.02-.661-.023-.989 1.503-1.877 3.121-3.654 4.851-5.255a88.434 88.434 0 0 0-4.9 3.736c-.098-5.46-.07-10.581.074-14.994 2.083-3.3 4.398-6.196 6.924-8.533a64.988 64.988 0 0 0-6.803 5.568c.072-1.408.164-2.72.27-3.928-.729 1.368-1.376 3.266-1.951 5.569-.464.466-.92.945-1.366 1.421-1.004-1.289-2.217-2.328-3.437-.843-1.01 1.229-1.128 3.347-1.584 6.412-.03.191-.046.384-.074.578-.174.237-.365.461-.536.7.043-.598.097-1.169.147-1.737-.559 1.05-1.089 2.315-1.56 3.785a73.05 73.05 0 0 0-1.633 2.58 86.023 86.023 0 0 0-6.584-5.184c2.104 1.948 4.032 4.138 5.802 6.485-5.126 8.875-8.166 18.37-9.945 27.166.667-25.383.45-55.697-3.756-65.156.061 8.12-.42 20.539-1.242 33.988-.18-.37-.369-.728-.56-1.037.01 1.165.007 2.487 0 3.88a82.285 82.285 0 0 0-4.34 3.69c-3.507-9.203-9.382-17.957-19.016-24.805 6 5.552 9.793 14.289 12.043 24.008a49.05 49.05 0 0 0-6.045-7.883c1.49 1.72 1.832 3.05 3.219 5.955.677 1.42 1.145 1.6 1.681 3.133.704 2.013 1.273 4.133 1.756 6.293-.058-.011-.122.022-.244.168-4.56 5.404-7.821 10.942-10.162 16.356l-2.687-.235c-.301-8.604-.86-17.048-1.803-23.545-.172-1.185-1.238 2.409-1.438 1.327-.186-1.008.773-3.122.56-4.026-.385-1.645-.816-3.1-1.292-4.34 1.157-1.648 2.443-3.182 3.9-4.53a54.155 54.155 0 0 0-4.338 3.446 11.87 11.87 0 0 0-.683-1.302c.008.591-.002 1.276 0 1.93-3.497 3.176-6.28 6.586-8.483 10.146-2.195-4.685-5.11-9.16-8.898-13.186 1.489 1.72 1.855 3.049 3.242 5.955.678 1.42 1.122 1.6 1.658 3.133.84 2.404 1.517 4.963 2.047 7.57-2.556 5.052-4.05 10.316-4.853 15.555l-.121-.01c-.512-10.712-.75-20.827-.682-27.213-2.699 4.355-4.175 14.877-4.899 26.662-2.18-.215-4.364-.435-6.548-.658a67.8 67.8 0 0 0-8.567-11.492c-.891-6.51-2.14-11.867-3.877-14.775 2.24-6 5.272-11.232 9.338-14.995-7.823 5.561-13.204 12.357-16.82 19.645-.441-.326-.862-.64-1.317-.963.417.385.816.802 1.22 1.205-2.862 5.835-4.623 11.97-5.634 18.031-1.595-20.249-2.723-41.628-2.632-53.634-1.799 4.044-2.858 11.915-3.438 21.574-5.185 1.678-12.166-.151-14.918 3.713a52.84 52.84 0 0 0-2.023 3.06 65.744 65.744 0 0 0-6.582-6.941c.273-.95.556-1.881.877-2.797.536-1.533.98-1.713 1.658-3.133 1.491-3.125 1.782-4.41 3.584-6.34-3.202 3.329-5.76 6.98-7.826 10.8-.392-.332-.816-.641-1.22-.966.245-2.469.489-4.899.391-7.568-.2-5.485-6.953-9.765-6.923-13.645-1.318 2.964 3.991 23.842 3.363 30.108-.126 1.257-.232 2.548-.34 3.808-1.705 5.947-2.56 12.01-2.894 17.811l-.924-.12c-.977-14.603-1.418-30.068-1.326-38.734-.956 1.542-1.766 3.855-2.438 6.725-.212.904.721 3.018.535 4.025-.2 1.083-1.242-2.511-1.414-1.326-.722 4.979-1.224 11.11-1.558 17.573a72.819 72.819 0 0 0-5.827-9.28c-2.856-3.859-6.517-2.93-10.556-3.687-.547-.96-1.035-1.837-1.317-2.147.89-.369 1.708-.817 2.414-1.47-.796.566-1.687.94-2.632 1.23-1.887-1.84-3.956-3.625-6.194-5.4.057-.95.122-1.876.196-2.723-.325.61-.633 1.338-.926 2.145a87.938 87.938 0 0 0-2.998-2.217 45.462 45.462 0 0 1 2.802 2.795c-.037.112-.083.245-.12.361-.099-.21-.192-.411-.294-.602.035.396.067.81.098 1.229-.475 1.581-.879 3.42-1.268 5.473-2.522.263-4.758.817-6.046 2.627-3.75 5.265-6.319 10.97-8.047 16.771-1.04-.158-2.085-.323-3.125-.482a499.832 499.832 0 0 1-.774-12.987c-.307-6.816 1.018-11.356.805-17.187-.2-5.486-6.953-9.765-6.924-13.645-1.317 2.964 3.969 23.844 3.34 30.11-.434 4.324-.75 8.675-.979 13.005-2.794-.433-5.581-.857-8.384-1.302a74.71 74.71 0 0 0-5.873-9.92c-.76-5.83-1.72-10.706-2.973-13.908 2.305-7.185 5.617-13.472 10.31-17.815-10.253 7.287-16.263 16.713-19.673 26.565a11.579 11.579 0 0 1-3.778-1.711c-1.07-15.914-1.778-31.162-1.707-40.594l-.01.012c-3.538 7.957-4.222 30.67-3.957 52.795-1.105-.19-2.204-.372-3.31-.563-2.116-6.091-4.94-12.211-8.75-17.978.514-.543 1.003-1.075 1.537-1.569-.59.42-1.139.847-1.707 1.28-4.287-6.424-9.796-12.382-16.797-17.358 5.277 4.884 9.568 12.227 12.945 20.54-3.823 3.403-7.082 7.135-9.885 11.054-4.567-.834-9.143-1.68-13.734-2.545-.433-13.222-1.534-24.442-3.807-29.553.054 7.027-.32 17.3-.95 28.647C131.94 805.454 67.343 790.614 0 772.289zm299.018 35.327a54.667 54.667 0 0 1 3.753 4.916c-.154.02-.307.054-.462.072-.117-.077-.225-.157-.342-.24.09.084.154.186.244.264-.772.091-1.537.142-2.316.193a41.23 41.23 0 0 0-.952-3.47c.025-.588.045-1.176.075-1.735zm-41.955.192c.146 2.634.234 5.616.267 8.847-.694-.401-1.416-.649-2.17-.82.525-2.745 1.142-5.441 1.903-8.027zm341.537.023c3.003 3.106 5.407 7.036 7.312 11.498-.447 2.782-.82 5.88-1.146 9.16-.236.463-.48.909-.705 1.373-1.632-.88-4.194-1.227-4.657-2.095.164 1.882 2.796 2.617 3.412 4.748-1.765 3.992-3.167 8.026-4.29 12.003.805-12.06 1.16-24.531.097-35.12-.046-.456-.039-.97-.023-1.567zm-261.944 1.687c.272.324.539.652.805.989a54.021 54.021 0 0 0-1.098 2.217c.075-1.103.191-2.166.293-3.206zm-113.459 1.545c1.329 3.406 2.508 7.582 3.541 12.227-3.194-.564-6.386-1.122-9.592-1.701 1.798-3.854 3.807-7.423 6.051-10.526zm139.936.551c-.556 9.468-.64 20.608-.496 31.57-.995-.115-1.983-.222-2.979-.34-2.302-6.84-5.514-13.745-9.957-20.165a67.265 67.265 0 0 1 1.633-4.99c1.842-4.952 7.558-4.35 11.799-6.075zm111.578.098c.038-.008.08-.003.121 0 .235.019.496.23.781.482-.478.527-.933 1.03-1.39 1.567.06-1.016.162-1.904.365-2.002a.495.495 0 0 1 .123-.047zm-135.543 1.11c1.851 2.659 3.558 5.608 5.096 8.796-3.074 5.99-4.945 12.334-6.02 18.598l-.49-.063a620.54 620.54 0 0 1-.854-11.039c.25-5.577.95-11.131 2.268-16.293zm-36.08.193c.025.037.073.082.098.119l-.17-.096c.028-.008.044-.02.072-.023zm-.268.07c.198.145.388.266.584.387 4.649 7.102 7.99 15.385 10.2 23.49-2.717-.375-5.448-.769-8.172-1.154.227-2.973.484-5.714.8-7.825-1.345 1.341-2.513 3.621-3.533 6.532-.568-7.992-1.424-15.32-2.61-20.803.902-.218 1.824-.407 2.731-.627zm-58.386.121c1.245 1.097 2.455 1.634 3.656 2-1.24 3.646-2.116 7.367-2.729 11.041-.341-4.332-.636-8.707-.927-13.041zm377.586 1.557v.002c-.472 9.399-1.152 19.789-1.952 29.937-1.166-7.005-3.33-14.108-7.045-20.73a92.94 92.94 0 0 1 1.756-4.026c1.999-4.306 4.515-4.455 7.24-5.183zm-314.944.12c2.485.621 4.762 1.088 6.608 5.063a94.111 94.111 0 0 1 2.34 5.496 67.323 67.323 0 0 0-5.95-8.244c-.82-.972.052 2.216-.853 1.254-.372-.395-1.281-2.035-2.145-3.568zm-10.922.315c-.893 5.404-1.532 11.994-1.982 18.99-.359-.052-.72-.107-1.078-.16-.713-1.51-1.483-2.754-2.326-3.595.148.986.283 2.117.412 3.312l-1.444-.215c.871-5.314 2.115-10.484 3.86-15.174.553-1.486 1.452-2.459 2.558-3.158zm180.229 1.156c-.567 3.552-1.039 7.598-1.414 11.909a51.472 51.472 0 0 0-.805-3.254c-.019-1.337-.02-2.643-.023-3.93.71-1.625 1.457-3.2 2.242-4.725zm203.582.965a.462.462 0 0 1 .244.05c.4.192.429 3.47.44 4.698.007.935 0 1.897 0 2.87a70.885 70.885 0 0 0-3.39-5.112c.812-.728 1.934-2.445 2.706-2.506zm-425.303 1.11c.453.577.88 1.28 1.291 2.168.464 1 .93 2.026 1.365 3.062-.002.174.002.355 0 .53-1.057-.496-2.4-.79-3.314-1.18.188-1.529.41-3.069.658-4.58zm456.063 1.47c7.917 9.051 10.332 23.59 10.365 37.53-1.758.053-3.519.1-5.278.15.239-6.577.723-12.674 1.446-16.564-2.942 2.368-5.023 8.388-6.533 15.38-.957-13.185-1.248-26.898-.391-34.834-.113.172-.23.34-.34.532.237-.747.471-1.467.73-2.194zm163.41.07-.002.003a.35.35 0 0 1 .12.021c.402.193.455 3.496.466 4.725.019 1.995-.003 4.088-.024 6.244-.727 5.62-1.203 11.935-1.506 18.314l-.398.028c-.8-5.89-1.96-10.684-3.654-12.99.06.881.108 1.843.146 2.892-.27-.524-.566-.984-.853-1.422.25-3.706.572-7 .95-9.521-.722.72-1.373 1.724-2 2.94.04-1.05.063-2.035.124-2.917-1.875 2.553-3.1 8.136-3.9 14.897a126.913 126.913 0 0 0-.782 4.146c-.267-4.55-.506-9.138-.658-13.619 2.323-4.21 5.04-8.15 8.191-11.547.246 2.228 2.453-2.073 3.682-2.17.041-.003.062-.023.098-.023zm-2.026.436c-.79 1.126-1.433 2.162-1.73 1.735.557-.6 1.146-1.169 1.73-1.735zm-489.841.41c.281 2.958.398 6.632.414 10.727a80.227 80.227 0 0 0-2.852-2.557 72.569 72.569 0 0 1 2.438-8.17zm40.127.096c-.042 7.468-.367 17.843-.961 28.34l-1.944-.176c-.543-4.289-1.403-8.636-2.752-12.904 1.143-5.6 2.958-10.843 5.657-15.26zm118.918 1.615c.45 1.156.874 2.352 1.244 3.567-.545.478-1.089.964-1.61 1.447a84.78 84.78 0 0 1 .366-5.014zm337.175.844a59.536 59.536 0 0 1 5.145 7.45c-1.73 3.334-3.104 8.38-4.194 14.099-.254-4.462-.578-8.765-.998-12.776-.037-3.047-.017-5.984.047-8.773zm-624.595.617c1.039 1.068 2.592 1.976 2.632 3.906.003.147.001.311.004.46-1.003-.164-2.004-.323-3.01-.489.113-1.29.224-2.581.374-3.877zm197.388.242a445.649 445.649 0 0 1-.097 5.858c-.23 3.285-.473 6.564-.73 9.834-.613-3.669-1.494-7.375-2.731-11.016a55.152 55.152 0 0 1 3.558-4.676zm223.696.844c2.137 5.19 3.882 10.737 5.314 16.344a561.43 561.43 0 0 1-.537 11.281c-.246-1.41-.5-2.792-.78-4.123-.8-6.761-2.025-12.344-3.9-14.896.061.881.083 1.843.121 2.892-.625-1.215-1.277-2.22-2-2.941.85 5.658 1.361 15.083 1.537 24.828-1.263.018-2.528.035-3.793.05-.045-10.755.97-22.922 4.038-33.435zm-170.157 1.76c2.74 8.765 3.423 18.98 3.104 28.572-.711-.037-1.425-.081-2.137-.119a62.718 62.718 0 0 0-3.307-6.469c-.034-7.433.572-15.062 2.34-21.984zm75.182.916c.918 4.2 1.578 8.555 2 12.92-.274 1.578-.497 3.264-.707 5.037-.28 1.336-.558 2.73-.805 4.146a528.783 528.783 0 0 1-.828-21.597c.119-.174.22-.334.34-.506zm-52.559.145c.382.529.642 1.142.659 1.927.087 4.136.027 8.877-.17 13.862a64.693 64.693 0 0 0-2.756 5.279c-.542-1.932-1.132-3.61-1.805-4.99.714-5.71 1.999-11.216 4.072-16.078zm15.602.023c1.475 5.508 2.224 11.506 2.463 17.5-1.384 2.665-2.514 6.23-3.438 10.197.262-5.831.713-11.146 1.366-14.656-.879.707-1.653 1.752-2.39 3.037-.163-4.59-.24-8.945-.171-12.848a60.834 60.834 0 0 1 2.17-3.23zm98.902 2.312c3.379 9.216 5.68 19.322 7.02 28.471-4.807.022-9.62.03-14.442.026 2.285-11.286 4.927-21.958 7.422-28.497zm-294.052.17c1.355 3.714 2.529 7.572 3.546 11.451-1.679-.203-3.354-.4-5.037-.607.336-3.64.82-7.286 1.49-10.844zm31.544.24a60.507 60.507 0 0 1 3.22 4.749c-.043 3.189-.152 6.559-.313 9.994-1.166-.125-2.33-.248-3.498-.375a23.111 23.111 0 0 0-1.237-2.508c.416-3.999.993-8.007 1.828-11.86zm106.704.94a57.596 57.596 0 0 1 3.023 4.195c-.494 5.753-.758 12.024-.879 18.176a64.532 64.532 0 0 0-3.119-8.027c.209-5.414.54-10.42.975-14.344zm123.771 1.014a107.15 107.15 0 0 1 1.512 9.088c-.74 2.71-1.39 5.75-1.951 8.966-.28-4.779-.506-9.602-.659-14.295.359-1.263.704-2.511 1.098-3.76zm275.111.771c2.462 4.63 4.442 9.577 6 14.535-2.082.163-4.165.325-6.248.485-.101-6.265-.056-11.664.248-15.02zm-444.285.748c.072.337.154.672.22 1.012-.235.042-.218-.535-.22-1.012zm134.326 2c-.357 5.34-.594 13.32-.736 21.844-2.256-.056-4.508-.108-6.767-.17 1.573-7.182 4.025-14.736 7.503-21.674zm-37.888 1.688a166.012 166.012 0 0 0-.903 8.388c-.09-2.036-.17-4.043-.22-6.002.36-.8.736-1.6 1.123-2.386zm-95.469 1.953c.495 3.709.738 7.511.803 11.289-1.623-.131-3.242-.258-4.867-.393 1.116-3.67 2.463-7.343 4.064-10.896zm-54.438 4.459c.26.59.51 1.184.756 1.78l-.634-.067c-.042-.57-.076-1.15-.122-1.713zm480.81.049c.126 1.683.237 3.49.337 5.353l-.52.037c.05-1.826.107-3.64.182-5.39zm-11.311 1.543c-.055 1.558-.08 3.095-.118 4.646l-1.435.102c.474-1.585.99-3.17 1.553-4.748zm-334.13 8.388h.003c.015.337.034.694.048 1.035-.018.058-.053.113-.072.17.008-.399.018-.805.022-1.205z" transform="matrix(.26458 0 0 .26458 0 11.25)" inkscape:connector-curvature="0"/></g></svg>