<?xml version="1.0" encoding="UTF-8" standalone="no"?>
<!-- Created with Inkscape (http://www.inkscape.org/) -->

<svg
   xmlns:dc="http://purl.org/dc/elements/1.1/"
   xmlns:cc="http://creativecommons.org/ns#"
   xmlns:rdf="http://www.w3.org/1999/02/22-rdf-syntax-ns#"
   xmlns:svg="http://www.w3.org/2000/svg"
   xmlns="http://www.w3.org/2000/svg"
   xmlns:sodipodi="http://sodipodi.sourceforge.net/DTD/sodipodi-0.dtd"
   xmlns:inkscape="http://www.inkscape.org/namespaces/inkscape"
   width="32"
   height="32"
   viewBox="0 0 8.4666665 8.4666669"
   version="1.1"
   id="svg839"
   inkscape:version="0.92.4 (5da689c313, 2019-01-14)"
   sodipodi:docname="digital_dice4.svg">
  <defs
     id="defs833" />
  <sodipodi:namedview
     id="base"
     pagecolor="#ffffff"
     bordercolor="#666666"
     borderopacity="1.0"
     inkscape:pageopacity="0.0"
     inkscape:pageshadow="2"
     inkscape:zoom="15.839192"
     inkscape:cx="-2.7181186"
     inkscape:cy="14.3387"
     inkscape:document-units="px"
     inkscape:current-layer="layer1"
     showgrid="true"
     units="px"
     inkscape:window-width="1884"
     inkscape:window-height="1051"
     inkscape:window-x="0"
     inkscape:window-y="0"
     inkscape:window-maximized="1">
    <inkscape:grid
       type="xygrid"
       id="grid1384"
       empspacing="4" />
  </sodipodi:namedview>
  <metadata
     id="metadata836">
    <rdf:RDF>
      <cc:Work
         rdf:about="">
        <dc:format>image/svg+xml</dc:format>
        <dc:type
           rdf:resource="http://purl.org/dc/dcmitype/StillImage" />
        <dc:title />
        <dc:date>2020</dc:date>
        <dc:creator>
          <cc:Agent>
            <dc:title>Timothée Giet</dc:title>
          </cc:Agent>
        </dc:creator>
        <cc:license
           rdf:resource="http://creativecommons.org/licenses/by-sa/4.0/" />
      </cc:Work>
      <cc:License
         rdf:about="http://creativecommons.org/licenses/by-sa/4.0/">
        <cc:permits
           rdf:resource="http://creativecommons.org/ns#Reproduction" />
        <cc:permits
           rdf:resource="http://creativecommons.org/ns#Distribution" />
        <cc:requires
           rdf:resource="http://creativecommons.org/ns#Notice" />
        <cc:requires
           rdf:resource="http://creativecommons.org/ns#Attribution" />
        <cc:permits
           rdf:resource="http://creativecommons.org/ns#DerivativeWorks" />
        <cc:requires
           rdf:resource="http://creativecommons.org/ns#ShareAlike" />
      </cc:License>
    </rdf:RDF>
  </metadata>
  <g
     inkscape:label="Calque 1"
     inkscape:groupmode="layer"
     id="layer1"
     transform="translate(0,-288.53332)">
    <rect
       style="fill:#a2a2a2;fill-opacity:1;stroke-width:0.26458332"
       id="rect1386"
       width="8.4666662"
       height="8.4666662"
       x="0"
       y="288.53333"
       ry="1.0583282" />
    <rect
       style="fill:#eae9e9;fill-opacity:1;stroke-width:0.24804686"
       id="rect1386-3"
       width="7.9374995"
       height="7.9374995"
       x="0.26458335"
       y="288.79791"
       ry="0.79374075" />
    <path
       style="fill:#c4c4c4;fill-opacity:1;stroke-width:0.99999994"
       d="m 22.925781,5.0058569 -4.005859,6.9414071 c 0.436345,0.315441 0.818875,0.69929 1.132812,1.136718 L 26.986328,9.0800781 C 25.954018,7.4358386 24.566541,6.0436906 22.925781,5.0058594 Z M 9.0800781,5.0136719 C 7.4351293,6.0457529 6.0422972,7.433246 5.0039062,9.0742188 l 6.9414058,4.0078122 c 0.315279,-0.43704 0.699137,-0.820238 1.136719,-1.134765 z M 11.947266,18.916016 5.0136719,22.919922 c 1.0323102,1.64424 2.4197866,3.036388 4.0605469,4.074219 l 4.0058592,-6.941407 c -0.436345,-0.315441 -0.818875,-0.69929 -1.132812,-1.136718 z m 8.107422,0.002 c -0.315442,0.436345 -0.699291,0.818875 -1.136719,1.132812 l 4.003906,6.935547 c 1.64424,-1.03231 3.036388,-2.419787 4.074219,-4.060547 z"
       transform="matrix(0.26458333,0,0,0.26458333,0,288.53332)"
       id="path917"
       inkscape:connector-curvature="0"
       sodipodi:nodetypes="ccccccccccccccccccccc" />
    <circle
       style="fill:#c4c4c4;fill-opacity:1;stroke-width:0.26458332"
       id="path922"
       cx="4.2333331"
       cy="292.76666"
       r="1.0583333" />
    <path
       style="fill:#202020;fill-opacity:1;stroke-width:0.26458332"
       d="m 4.3656251,289.33172 v 2.11873 c 0.1420415,0.0146 0.2807789,0.0521 0.4108275,0.11111 l 1.0598838,-1.83607 c -0.4546672,-0.23947 -0.9572145,-0.37402 -1.4707113,-0.39377 z m -0.2645834,0.002 c -0.5132006,0.0193 -1.0155564,0.15336 -1.4701945,0.39222 l 1.0598837,1.83606 c 0.1299179,-0.0587 0.2684753,-0.0961 0.4103108,-0.11058 z m 0.6748942,4.63739 c -0.1299179,0.0587 -0.2684753,0.0961 -0.4103108,0.11058 v 2.1177 c 0.5133772,-0.0193 1.0159179,-0.15329 1.4707113,-0.39223 z m -1.0857217,5.3e-4 -1.0598838,1.83607 c 0.4546689,0.23946 0.9572161,0.37401 1.4707113,0.39375 v -2.11874 c -0.142041,-0.0146 -0.2807783,-0.0521 -0.4108275,-0.1111 z"
       id="path917-9"
       inkscape:connector-curvature="0"
       sodipodi:nodetypes="ccccccccccccccccccccc" />
    <path
       style="fill:#202020;fill-opacity:1;stroke-width:0.26458332"
       d="m 0.7984634,292.6343 h 2.11873 c 0.0146,-0.14204 0.0521,-0.28078 0.11111,-0.41083 l -1.83607,-1.05988 c -0.23947,0.45466 -0.37402,0.95721 -0.39377,1.47071 z m 0.002,0.26458 c 0.0193,0.5132 0.15336,1.01556 0.39222,1.4702 l 1.83606,-1.05989 c -0.0587,-0.12992 -0.0961,-0.26847 -0.11058,-0.41031 z m 4.63739,-0.67489 c 0.0587,0.12992 0.0961,0.26847 0.11058,0.41031 h 2.1177 c -0.0193,-0.51338 -0.15329,-1.01592 -0.39223,-1.47071 z m 5.3e-4,1.08572 1.83607,1.05988 c 0.23946,-0.45467 0.37401,-0.95721 0.39375,-1.47071 h -2.11874 c -0.0146,0.14204 -0.0521,0.28078 -0.1111,0.41083 z"
       id="path917-9-3"
       inkscape:connector-curvature="0"
       sodipodi:nodetypes="ccccccccccccccccccccc" />
  </g>
</svg>
