<?xml version="1.0" encoding="UTF-8" standalone="no"?>
<svg
   xmlns:dc="http://purl.org/dc/elements/1.1/"
   xmlns:cc="http://creativecommons.org/ns#"
   xmlns:rdf="http://www.w3.org/1999/02/22-rdf-syntax-ns#"
   xmlns:svg="http://www.w3.org/2000/svg"
   xmlns="http://www.w3.org/2000/svg"
   xmlns:sodipodi="http://sodipodi.sourceforge.net/DTD/sodipodi-0.dtd"
   xmlns:inkscape="http://www.inkscape.org/namespaces/inkscape"
   id="svg2"
   viewBox="0 0 467.1 689.15"
   version="1.0"
   inkscape:version="0.91 r13725"
   sodipodi:docname="mouse_on_cheese.svg">
  <defs
     id="defs47" />
  <sodipodi:namedview
     pagecolor="#ffffff"
     bordercolor="#666666"
     borderopacity="1"
     objecttolerance="10"
     gridtolerance="10"
     guidetolerance="10"
     inkscape:pageopacity="0"
     inkscape:pageshadow="2"
     inkscape:window-width="640"
     inkscape:window-height="480"
     id="namedview45" />
  <path
     id="path2402"
     stroke-linejoin="round"
     d="m460.15 73.154s16.58 107.89-11 179.3l-222.45 434.7-209.61-439.09c-25.458-88.38-11.002-174.91-11.002-174.91 0 0.004 47.648-71.15 225.84-71.15s228.22 71.154 228.22 71.154z"
     fill-rule="evenodd"
     stroke="#000"
     stroke-width="4"
     fill="#d4aa00" />
  <path
     id="path2400"
     stroke-linejoin="round"
     d="m226.7 467.45c77.82-134.77 214.9-412.86 233.45-394.3 0-20.514-50.03-71.15-228.22-71.15s-225.84 46.396-225.84 71.154c21.364-21.366 147.07 258.07 220.61 394.3z"
     fill-rule="evenodd"
     stroke="#000"
     stroke-width="4"
     fill="#fd5" />
  <path
     id="path3232"
     fill-opacity=".31373"
     d="m227.65 73.715c-56.99 0-103.25 46.265-103.25 103.24 0 10.91 2.23 23.57 6.13 36.91-5.65 3.95-9.15 9.08-9.47 14.81-0.61 10.57 9.76 20.25 25.03 25 21.52 44.42 55.05 85.07 81.56 85.07 25.65 0 59.1-40.19 80.88-84.32 2.89-0.23 5.85-0.66 8.84-1.28 23.34-4.84 39.96-20 37.09-33.81-1.97-9.49-12.64-15.87-26.68-17.38 2-8.94 3.09-17.39 3.09-25 0-56.98-46.23-103.24-103.22-103.24z" />
  <path
     id="path3208"
     fill-rule="evenodd"
     fill-opacity=".31373"
     d="m237.97 76.846c-0.57-23.362-73.09-89.897-143.28-30.823-70.181 59.077-74.163 29.213-80.519 30.114-6.3568 0.9 5.412 15.224 23.17 13.924 43.688-3.198 75.669-55.61 115.85-52.701 40.5 2.931 60.2 39.353 60.2 39.353l24.58 0.133z" />
  <path
     id="path3264"
     d="m238.86 61.494c-1.89-23.292-78.06-85.615-144.79-22.663-66.726 62.949-72.392 33.365-78.687 34.624-6.2956 1.259 6.265 14.893 23.921 12.59 43.437-5.665 72.396-59.804 112.69-59.175 40.6 0.635 62.32 35.883 62.32 35.883l24.55-1.259z"
     fill-rule="evenodd"
     stroke="#000"
     stroke-width="4"
     fill="#ccc" />
  <path
     id="path2407"
     fill-rule="evenodd"
     fill-opacity=".31373"
     d="m151.92 20.683c-18.05 0.209-37.59 7.32-56.278 26.063-17.21 17.257-29.88 27.168-39.344 32.625v1.937c34.528-14.648 60.882-54.981 95.692-54.437 40.59 0.634 62.31 35.875 62.31 35.875l9.44-0.469c-7.29-16.49-36.79-41.998-71.82-41.594z" />
  <path
     id="path2383"
     d="m328.88 160.96c0 56.99-61.81 161.79-103.24 161.79-42.58 0-103.24-104.8-103.24-161.79s46.25-103.24 103.24-103.24c56.99-0.003 103.24 46.25 103.24 103.24z"
     stroke="#000"
     stroke-linecap="round"
     stroke-width="4"
     fill="#ccc" />
  <path
     id="path3397"
     fill-opacity=".31373"
     d="m327.5 144.1c0.24 2.92 0.37 5.86 0.37 8.85 0 56.99-61.79 161.81-103.22 161.81-38.84 0-92.73-87.18-101.9-145.75 5.11 58.25 62.25 153.75 102.9 153.75 41.43 0 103.22-104.82 103.22-161.81 0-5.74-0.47-11.36-1.37-16.85z" />
  <path
     id="path2386"
     d="m297.4 242.54c24.03-2.36 42.82-22.63 42.82-47.28 0-26.24-21.3-47.53-47.54-47.53-26.23 0-47.53 21.29-47.53 47.53 0 1.84 0.11 3.68 0.32 5.47"
     stroke="#000"
     stroke-linecap="round"
     stroke-width="4"
     fill="#ccc" />
  <path
     id="path2388"
     d="m202.59 201.26c0.25-1.96 0.38-3.97 0.38-6 0-26.24-21.27-47.53-47.5-47.53-26.24 0-47.54 21.29-47.54 47.53 0 25.26 19.72 45.93 44.6 47.44"
     stroke="#000"
     stroke-linecap="round"
     stroke-width="4"
     fill="#ccc" />
  <path
     id="path2390"
     d="m237.06 301.1c0 6.13-7.34 13.46-11.1 13.46-4.24 0-11.1-7.33-11.1-13.46s4.97-5.43 11.1-5.43c6.12 0 11.1-0.7 11.1 5.43z" />
  <path
     id="path2397"
     stroke-width="2"
     stroke="#000"
     stroke-linecap="round"
     d="m203.61 260.11c0 5.74-3.52 10.39-7.87 10.39s-7.87-4.65-7.87-10.39 3.52-10.39 7.87-10.39 7.87 4.65 7.87 10.39z" />
  <path
     id="path2399"
     stroke-width="2"
     stroke="#000"
     stroke-linecap="round"
     d="m260.27 260.11c0 5.74-3.53 10.39-7.87 10.39-4.35 0-7.87-4.65-7.87-10.39s3.52-10.39 7.87-10.39c4.34 0 7.87 4.65 7.87 10.39z" />
  <path
     id="path2401"
     fill="#fff"
     d="m198.89 257.69c0 1.97-0.99 3.57-2.21 3.57-1.21 0-2.2-1.6-2.2-3.57s0.99-3.56 2.2-3.56c1.22 0 2.21 1.59 2.21 3.56z" />
  <path
     id="path2403"
     fill="#fff"
     d="m253.97 258.64c0 1.97-0.98 3.56-2.2 3.56s-2.21-1.59-2.21-3.56 0.99-3.57 2.21-3.57 2.2 1.6 2.2 3.57z" />
  <path
     id="path2427"
     fill-opacity=".31373"
     d="m292.81 154.48c-17.83 0.25-34.36 14.09-38.63 31.25 8.38-5.52 18.9-8.81 30.32-8.81 22.94 0 42.24 13.27 47.87 31.25 8.97-23.96-11.56-53.87-37.5-53.66-0.69-0.03-1.37-0.04-2.06-0.03z" />
  <g
     id="g3221"
     transform="matrix(1.3917 0 0 1.4058 -227.51 -650.39)"
     stroke="#000"
     stroke-linecap="round"
     stroke-width="2.8597"
     fill="none">
    <path
       id="path2445"
       d="m340.57 672.76c32.74-15.11 47.84-1.26 47.84-1.26" />
    <path
       id="path2447"
       d="m337.42 678.43c23.93-15.11 44.7 9.44 44.7 9.44" />
    <path
       id="path2449"
       d="m337.42 681.57c25.18-12.59 29.59 18.26 29.59 18.26" />
  </g>
  <g
     id="g3384"
     transform="matrix(-1.3917 0 0 1.4058 678.8 -650.39)"
     stroke="#000"
     stroke-linecap="round"
     stroke-width="2.8597"
     fill="none">
    <path
       id="path3386"
       d="m340.57 672.76c32.74-15.11 47.84-1.26 47.84-1.26" />
    <path
       id="path3388"
       d="m337.42 678.43c23.93-15.11 44.7 9.44 44.7 9.44" />
    <path
       id="path3390"
       d="m337.42 681.57c25.18-12.59 29.59 18.26 29.59 18.26" />
  </g>
  <path
     id="path3405"
     fill-opacity=".31373"
     d="m157.29 154.48c17.83 0.25 34.36 14.09 38.63 31.25-8.38-5.52-18.9-8.81-30.31-8.81-22.94 0-42.25 13.27-47.88 31.25-8.97-23.96 11.56-53.87 37.5-53.66 0.69-0.03 1.38-0.04 2.06-0.03z" />
  <path
     id="path3192"
     fill-opacity=".31373"
     transform="matrix(.94762 0 0 1.0393 6.0105 13.773)"
     d="m88.388 263.48a19.092 38.184 0 1 1 -38.183 0 19.092 38.184 0 1 1 38.183 0z" />
  <path
     id="path3194"
     fill-opacity=".31373"
     transform="matrix(.55566 -.14462 .11851 .67804 53.979 182.11)"
     d="m88.388 263.48a19.092 38.184 0 1 1 -38.183 0 19.092 38.184 0 1 1 38.183 0z" />
  <path
     id="path3196"
     fill-opacity=".31373"
     transform="matrix(.71490 -.21366 .16091 .94924 76.204 241.4)"
     d="m88.388 263.48a19.092 38.184 0 1 1 -38.183 0 19.092 38.184 0 1 1 38.183 0z" />
  <path
     id="path3198"
     fill-opacity=".31373"
     transform="matrix(.61918 .14995 -.068747 .81181 5.1646 -50.978)"
     d="m88.388 263.48a19.092 38.184 0 1 1 -38.183 0 19.092 38.184 0 1 1 38.183 0z" />
  <path
     id="path3200"
     fill-opacity=".31373"
     transform="matrix(.81546 .16351 -.087895 1.0834 262.83 144.83)"
     d="m88.388 263.48a19.092 38.184 0 1 1 -38.183 0 19.092 38.184 0 1 1 38.183 0z" />
  <path
     id="path3202"
     fill-opacity=".31373"
     transform="matrix(.74472 .41441 -.20773 1.061 406.8 -88.637)"
     d="m88.388 263.48a19.092 38.184 0 1 1 -38.183 0 19.092 38.184 0 1 1 38.183 0z" />
  <path
     id="path3204"
     fill-opacity=".31373"
     transform="matrix(.58510 .11227 -.063064 .74388 336.75 139.82)"
     d="m88.388 263.48a19.092 38.184 0 1 1 -38.183 0 19.092 38.184 0 1 1 38.183 0z" />
  <path
     id="path3238"
     stroke="#000"
     stroke-width="4"
     fill="none"
     d="m226.83 466.42v217.78" />
  <path
     id="path3265"
     fill-opacity=".31373"
     d="m120.28 324.72c-0.37 0-0.73 0.03-1.09 0.12-5.86 1.53-8.59 14.37-6.1 28.66 2.5 14.29 9.3 24.65 15.16 23.12 1.33-0.34 2.48-1.28 3.47-2.68-3.71-3.87-7.04-11.35-8.63-20.44-1.93-11.04-0.71-21.18 2.63-25.94-1.77-1.85-3.63-2.86-5.44-2.84z" />
  <path
     id="path3270"
     fill-opacity=".31373"
     d="m30.766 142.23c-5.865 0.9-11.304 12.7-12.617 28.2-1.449 17.12 2.661 32.3 9.186 33.88 2.318 0.56 4.626-0.71 6.708-3.29-4.593-4.95-7.163-17.73-5.97-31.82 0.933-11.01 3.946-20.13 7.715-24.83-0.984-1.06-2.064-1.78-3.215-2.05-0.612-0.15-1.2-0.19-1.807-0.09z" />
  <path
     id="path3275"
     fill-opacity=".31373"
     d="m71.688 247.91c-9.987 0-18.094 17.78-18.094 39.68 0 21.91 8.107 39.69 18.094 39.69 2.873 0 5.586-1.47 8-4.09-5.975-6.48-10.094-19.99-10.094-35.6 0-15.6 4.119-29.08 10.094-35.56-2.414-2.62-5.127-4.12-8-4.12z" />
  <path
     id="path3280"
     fill-opacity=".31373"
     d="m163.44 440.22c-0.48 0.01-0.97 0.11-1.44 0.25-7.53 2.25-10.89 20.3-7.5 40.31s12.25 34.41 19.78 32.16c2.09-0.63 3.86-2.47 5.25-5.22-4.3-5.69-8.07-15.38-10.03-26.94-2.45-14.46-1.38-27.9 2.25-35.09-2.68-3.54-5.55-5.55-8.31-5.47z" />
  <path
     id="path3288"
     fill-opacity=".31373"
     d="m408.59 178.34c-2.62 0.07-5.39 1.92-8 5.19 4.68 8.45 5.84 26 2.32 44-2.44 12.45-6.6 22.51-11.16 28.22 1.13 2.04 2.47 3.56 4 4.41 7.85 4.36 17.78-10.27 22.16-32.63 4.37-22.36 1.53-44.04-6.32-48.41-0.98-0.54-1.97-0.8-3-0.78z" />
  <path
     id="path3292"
     fill-opacity=".31373"
     d="m361.94 315.12c-2.09 0.14-4.13 1.71-5.94 4.35 3.15 5.44 4.77 15.37 3.84 26.28-0.79 9.39-3.29 17.33-6.5 21.97 1.38 2.39 3.06 3.92 4.94 4.28 6.17 1.18 12.23-10.57 13.56-26.25s-2.58-29.38-8.75-30.56c-0.38-0.08-0.77-0.09-1.15-0.07z" />
  <path
     id="path3297"
     fill-opacity=".31373"
     d="m297.94 400.12c-2.35 0.16-4.68 1.71-6.82 4.32 5.21 7.28 8.04 22.93 6.63 40.28-1.23 15.14-5.38 27.77-10.53 34.06 1.65 2.31 3.53 3.77 5.59 4.19 8.6 1.72 17.09-15.42 18.94-38.25 1.85-22.84-3.62-42.75-12.22-44.47-0.54-0.11-1.06-0.16-1.59-0.13z" />
  <metadata
     id="metadata43">
    <rdf:RDF>
      <cc:Work>
        <dc:format>image/svg+xml</dc:format>
        <dc:type
           rdf:resource="http://purl.org/dc/dcmitype/StillImage" />
        <cc:license
           rdf:resource="http://creativecommons.org/licenses/publicdomain/" />
        <dc:publisher>
          <cc:Agent
             rdf:about="http://openclipart.org/">
            <dc:title>Openclipart</dc:title>
          </cc:Agent>
        </dc:publisher>
        <dc:title>Cartoon mouse on top of a cheese</dc:title>
        <dc:date>2008-07-07T17:57:24</dc:date>
        <dc:description>My previously published mouse on a cheese</dc:description>
        <dc:source>http://openclipart.org/detail/17633/cartoon-mouse-on-top-of-a-cheese-by-lemmling</dc:source>
        <dc:creator>
          <cc:Agent>
            <dc:title>lemmling</dc:title>
          </cc:Agent>
        </dc:creator>
        <dc:subject>
          <rdf:Bag>
            <rdf:li>animal</rdf:li>
            <rdf:li>cartoon</rdf:li>
            <rdf:li>cheese</rdf:li>
            <rdf:li>clip art</rdf:li>
            <rdf:li>clipart</rdf:li>
            <rdf:li>colour</rdf:li>
            <rdf:li>food</rdf:li>
            <rdf:li>how i did it</rdf:li>
            <rdf:li>image</rdf:li>
            <rdf:li>mammal</rdf:li>
            <rdf:li>media</rdf:li>
            <rdf:li>mouse</rdf:li>
            <rdf:li>png</rdf:li>
            <rdf:li>public domain</rdf:li>
            <rdf:li>svg</rdf:li>
          </rdf:Bag>
        </dc:subject>
      </cc:Work>
      <cc:License
         rdf:about="http://creativecommons.org/licenses/publicdomain/">
        <cc:permits
           rdf:resource="http://creativecommons.org/ns#Reproduction" />
        <cc:permits
           rdf:resource="http://creativecommons.org/ns#Distribution" />
        <cc:permits
           rdf:resource="http://creativecommons.org/ns#DerivativeWorks" />
      </cc:License>
    </rdf:RDF>
  </metadata>
</svg>
