<!--Created with Inkscape (http://www.inkscape.org/)--><svg xmlns:dc="http://purl.org/dc/elements/1.1/" xmlns:cc="http://creativecommons.org/ns#" xmlns:rdf="http://www.w3.org/1999/02/22-rdf-syntax-ns#" xmlns="http://www.w3.org/2000/svg" xmlns:sodipodi="http://sodipodi.sourceforge.net/DTD/sodipodi-0.dtd" xmlns:inkscape="http://www.inkscape.org/namespaces/inkscape" width="32" height="32" viewBox="0 0 8.4666665 8.4666669" inkscape:version="0.92.4 (5da689c313, 2019-01-14)" sodipodi:docname="pencils.svg"><sodipodi:namedview pagecolor="#ffffff" bordercolor="#666666" borderopacity="1.0" inkscape:pageopacity="0.0" inkscape:pageshadow="2" inkscape:zoom="11.2" inkscape:cx="18.966335" inkscape:cy="15.755402" inkscape:document-units="px" inkscape:current-layer="layer1" showgrid="true" units="px" inkscape:window-width="1884" inkscape:window-height="1051" inkscape:window-x="0" inkscape:window-y="0" inkscape:window-maximized="1" inkscape:snap-global="true"><inkscape:grid type="xygrid" empspacing="4"/></sodipodi:namedview><metadata><rdf:RDF><cc:Work><dc:format>image/svg+xml</dc:format><dc:type rdf:resource="http://purl.org/dc/dcmitype/StillImage"/><dc:title/><dc:date>2020</dc:date><dc:creator><cc:Agent><dc:title>Timothée Giet</dc:title></cc:Agent></dc:creator><cc:license rdf:resource="http://creativecommons.org/licenses/by-sa/4.0/"/></cc:Work><cc:License rdf:about="http://creativecommons.org/licenses/by-sa/4.0/"><cc:permits rdf:resource="http://creativecommons.org/ns#Reproduction"/><cc:permits rdf:resource="http://creativecommons.org/ns#Distribution"/><cc:requires rdf:resource="http://creativecommons.org/ns#Notice"/><cc:requires rdf:resource="http://creativecommons.org/ns#Attribution"/><cc:permits rdf:resource="http://creativecommons.org/ns#DerivativeWorks"/><cc:requires rdf:resource="http://creativecommons.org/ns#ShareAlike"/></cc:License></rdf:RDF></metadata><g inkscape:label="Calque 1" inkscape:groupmode="layer"><path style="fill:#2b7518;fill-opacity:1;stroke:none;stroke-width:.22423024px;stroke-linecap:butt;stroke-linejoin:miter;stroke-opacity:1" d="M.53 296.632v-6.012l.922-2.087.924 2.087v6.012c0 .49-1.847.49-1.847 0z" inkscape:connector-curvature="0" sodipodi:nodetypes="cccccc" transform="translate(0 -288.533)"/><path style="fill:#e6c5ae;fill-opacity:1;stroke:none;stroke-width:.08969212;stroke-linecap:butt;stroke-linejoin:miter;stroke-miterlimit:4;stroke-dasharray:none;stroke-opacity:1" d="m.633 290.62.614-1.472h.41l.615 1.472-.205.49-.205-.49-.205.49-.205-.49-.205.49-.204-.49-.205.49z" inkscape:connector-curvature="0" transform="translate(0 -288.533)"/><path style="fill:#369c1c;fill-opacity:1;stroke:none;stroke-width:.08969212;stroke-linecap:butt;stroke-linejoin:miter;stroke-miterlimit:4;stroke-dasharray:none;stroke-opacity:1" d="m1.452 288.657.205.49c-.112.138-.242.134-.41 0z" inkscape:connector-curvature="0" sodipodi:nodetypes="cccc" transform="translate(0 -288.533)"/><path style="fill:#369c1c;fill-opacity:1;stroke:none;stroke-width:.08969212;stroke-linecap:butt;stroke-linejoin:miter;stroke-miterlimit:4;stroke-dasharray:none;stroke-opacity:1" d="m2.272 290.62-.205.49-.205-.49v6.02l.41-.065z" inkscape:connector-curvature="0" sodipodi:nodetypes="cccccc" transform="translate(0 -288.533)"/><path style="fill:#3fb520;fill-opacity:1;stroke:none;stroke-width:.22423024px;stroke-linecap:butt;stroke-linejoin:miter;stroke-opacity:1" d="m1.862 290.62-.205.49-.205-.49-.205.49-.204-.49v6.02h.82z" inkscape:connector-curvature="0" sodipodi:nodetypes="cccccccc" transform="translate(0 -288.533)"/><path style="fill:#4ed32b;fill-opacity:1;stroke:none;stroke-width:.08969212;stroke-linecap:butt;stroke-linejoin:miter;stroke-miterlimit:4;stroke-dasharray:none;stroke-opacity:1" d="m1.043 290.62-.205.49-.205-.49v5.955l.41.065z" inkscape:connector-curvature="0" sodipodi:nodetypes="cccccc" transform="translate(0 -288.533)"/><path style="fill:#1a6490;fill-opacity:1;stroke:none;stroke-width:.22423023px;stroke-linecap:butt;stroke-linejoin:miter;stroke-opacity:1" d="M3.31 296.632v-6.012l.923-2.087.924 2.087v6.012c0 .49-1.847.49-1.847 0z" inkscape:connector-curvature="0" sodipodi:nodetypes="cccccc" transform="translate(0 -288.533)"/><path style="fill:#e6c5ae;fill-opacity:1;stroke:none;stroke-width:.08969212;stroke-linecap:butt;stroke-linejoin:miter;stroke-miterlimit:4;stroke-dasharray:none;stroke-opacity:1" d="m3.414 290.62.614-1.472h.41l.615 1.472-.205.49-.205-.49-.205.49-.205-.49-.205.49-.205-.49-.204.49z" inkscape:connector-curvature="0" transform="translate(0 -288.533)"/><path style="fill:#1e72a4;fill-opacity:1;stroke:none;stroke-width:.08969212;stroke-linecap:butt;stroke-linejoin:miter;stroke-miterlimit:4;stroke-dasharray:none;stroke-opacity:1" d="m4.233 288.657.205.49c-.113.138-.242.134-.41 0z" inkscape:connector-curvature="0" sodipodi:nodetypes="cccc" transform="translate(0 -288.533)"/><path style="fill:#1e72a4;fill-opacity:1;stroke:none;stroke-width:.08969212;stroke-linecap:butt;stroke-linejoin:miter;stroke-miterlimit:4;stroke-dasharray:none;stroke-opacity:1" d="m5.053 290.62-.205.49-.205-.49v6.02l.41-.065z" inkscape:connector-curvature="0" sodipodi:nodetypes="cccccc" transform="translate(0 -288.533)"/><path style="fill:#2282ba;fill-opacity:1;stroke:none;stroke-width:.22423023px;stroke-linecap:butt;stroke-linejoin:miter;stroke-opacity:1" d="m4.643 290.62-.205.49-.205-.49-.205.49-.205-.49v6.02h.82z" inkscape:connector-curvature="0" sodipodi:nodetypes="cccccccc" transform="translate(0 -288.533)"/><path style="fill:#2695d5;fill-opacity:1;stroke:none;stroke-width:.08969212;stroke-linecap:butt;stroke-linejoin:miter;stroke-miterlimit:4;stroke-dasharray:none;stroke-opacity:1" d="m3.823 290.62-.204.49-.205-.49v5.955l.41.065z" inkscape:connector-curvature="0" sodipodi:nodetypes="cccccc" transform="translate(0 -288.533)"/><path style="fill:#8c2a1a;fill-opacity:1;stroke:none;stroke-width:.22423021px;stroke-linecap:butt;stroke-linejoin:miter;stroke-opacity:1" d="M6.091 296.632v-6.012l.923-2.087.924 2.087v6.012c0 .49-1.847.49-1.847 0z" inkscape:connector-curvature="0" sodipodi:nodetypes="cccccc" transform="translate(0 -288.533)"/><path style="fill:#e6c5ae;fill-opacity:1;stroke:none;stroke-width:.08969212;stroke-linecap:butt;stroke-linejoin:miter;stroke-miterlimit:4;stroke-dasharray:none;stroke-opacity:1" d="m6.194 290.62.615-1.472h.41l.615 1.472-.205.49-.205-.49-.205.49-.205-.49-.205.49-.205-.49-.205.49z" inkscape:connector-curvature="0" transform="translate(0 -288.533)"/><path style="fill:#a8331e;fill-opacity:1;stroke:none;stroke-width:.08969212;stroke-linecap:butt;stroke-linejoin:miter;stroke-miterlimit:4;stroke-dasharray:none;stroke-opacity:1" d="m7.014 288.657.205.49c-.113.138-.242.134-.41 0z" inkscape:connector-curvature="0" sodipodi:nodetypes="cccc" transform="translate(0 -288.533)"/><path style="fill:#a8331e;fill-opacity:1;stroke:none;stroke-width:.08969212;stroke-linecap:butt;stroke-linejoin:miter;stroke-miterlimit:4;stroke-dasharray:none;stroke-opacity:1" d="m7.834 290.62-.205.49-.205-.49v6.02l.41-.065z" inkscape:connector-curvature="0" sodipodi:nodetypes="cccccc" transform="translate(0 -288.533)"/><path style="fill:#ba3922;fill-opacity:1;stroke:none;stroke-width:.22423021px;stroke-linecap:butt;stroke-linejoin:miter;stroke-opacity:1" d="m7.424 290.62-.205.49-.205-.49-.205.49-.205-.49v6.02h.82z" inkscape:connector-curvature="0" sodipodi:nodetypes="cccccccc" transform="translate(0 -288.533)"/><path style="fill:#d14328;fill-opacity:1;stroke:none;stroke-width:.08969212;stroke-linecap:butt;stroke-linejoin:miter;stroke-miterlimit:4;stroke-dasharray:none;stroke-opacity:1" d="m6.604 290.62-.205.49-.205-.49v5.955l.41.065z" inkscape:connector-curvature="0" sodipodi:nodetypes="cccccc" transform="translate(0 -288.533)"/></g></svg>