<!--Created with Inkscape (http://www.inkscape.org/)--><svg xmlns:dc="http://purl.org/dc/elements/1.1/" xmlns:cc="http://creativecommons.org/ns#" xmlns:rdf="http://www.w3.org/1999/02/22-rdf-syntax-ns#" xmlns="http://www.w3.org/2000/svg" xmlns:sodipodi="http://sodipodi.sourceforge.net/DTD/sodipodi-0.dtd" xmlns:inkscape="http://www.inkscape.org/namespaces/inkscape" width="32" height="32" viewBox="0 0 8.4666665 8.4666669" inkscape:version="0.92.4 (5da689c313, 2019-01-14)" sodipodi:docname="pencil.svg"><sodipodi:namedview pagecolor="#ffffff" bordercolor="#666666" borderopacity="1.0" inkscape:pageopacity="0.0" inkscape:pageshadow="2" inkscape:zoom="11.2" inkscape:cx="-1.7758514" inkscape:cy="9.1403762" inkscape:document-units="px" inkscape:current-layer="layer1" showgrid="true" units="px" inkscape:window-width="1884" inkscape:window-height="1051" inkscape:window-x="0" inkscape:window-y="0" inkscape:window-maximized="1" inkscape:snap-global="true"><inkscape:grid type="xygrid" empspacing="4"/></sodipodi:namedview><metadata><rdf:RDF><cc:Work><dc:format>image/svg+xml</dc:format><dc:type rdf:resource="http://purl.org/dc/dcmitype/StillImage"/><dc:title/><dc:date>2020</dc:date><dc:creator><cc:Agent><dc:title>Timothée Giet</dc:title></cc:Agent></dc:creator><cc:license rdf:resource="http://creativecommons.org/licenses/by-sa/4.0/"/></cc:Work><cc:License rdf:about="http://creativecommons.org/licenses/by-sa/4.0/"><cc:permits rdf:resource="http://creativecommons.org/ns#Reproduction"/><cc:permits rdf:resource="http://creativecommons.org/ns#Distribution"/><cc:requires rdf:resource="http://creativecommons.org/ns#Notice"/><cc:requires rdf:resource="http://creativecommons.org/ns#Attribution"/><cc:permits rdf:resource="http://creativecommons.org/ns#DerivativeWorks"/><cc:requires rdf:resource="http://creativecommons.org/ns#ShareAlike"/></cc:License></rdf:RDF></metadata><g inkscape:label="Calque 1" inkscape:groupmode="layer"><path style="fill:#6f3119;fill-opacity:1;stroke:none;stroke-width:.31673902px;stroke-linecap:butt;stroke-linejoin:miter;stroke-opacity:1" d="m6.384 288.598-5.488 5.488L0 297l2.914-.896 5.488-5.488c.448-.448-1.57-2.466-2.018-2.018z" inkscape:connector-curvature="0" sodipodi:nodetypes="cccccc" transform="translate(0 -288.533)"/><path style="fill:#f1a5a5;fill-opacity:1;stroke:none;stroke-width:.0316739;stroke-miterlimit:4;stroke-dasharray:none" d="M6.384 288.824c.448-.448 2.24 1.344 1.792 1.792l-.896.896-1.792-1.792z" inkscape:connector-curvature="0" sodipodi:nodetypes="ssccs" transform="translate(0 -288.533)"/><path style="fill:#e6c5ae;fill-opacity:1;stroke:none;stroke-width:.12669562;stroke-linecap:butt;stroke-linejoin:miter;stroke-miterlimit:4;stroke-dasharray:none;stroke-opacity:1" d="m1.009 294.2-.672 2.015.448.448 2.016-.672.224-.672-.672.224.224-.672-.672.224.224-.672-.672.224.224-.672z" inkscape:connector-curvature="0" transform="translate(0 -288.533)"/><path style="fill:#4d4d4d;fill-opacity:1;stroke:none;stroke-width:.12669562;stroke-linecap:butt;stroke-linejoin:miter;stroke-miterlimit:4;stroke-dasharray:none;stroke-opacity:1" d="m.113 296.887.672-.224c.002-.249-.143-.386-.448-.448z" inkscape:connector-curvature="0" sodipodi:nodetypes="cccc" transform="translate(0 -288.533)"/><path style="fill:#b0451a;fill-opacity:1;stroke:none;stroke-width:.12669562;stroke-linecap:butt;stroke-linejoin:miter;stroke-miterlimit:4;stroke-dasharray:none;stroke-opacity:1" d="m2.8 295.991.225-.672-.672.224 4.48-4.48.447.449z" inkscape:connector-curvature="0" sodipodi:nodetypes="cccccc" transform="translate(0 -288.533)"/><path style="fill:#cb4f1f;fill-opacity:1;stroke:none;stroke-width:.31673902px;stroke-linecap:butt;stroke-linejoin:miter;stroke-opacity:1" d="m2.353 295.543.224-.672-.672.224.224-.672-.672.224 4.48-4.48.895.897z" inkscape:connector-curvature="0" sodipodi:nodetypes="cccccccc" transform="translate(0 -288.533)"/><path style="fill:#df5d2b;fill-opacity:1;stroke:none;stroke-width:.12669562;stroke-linecap:butt;stroke-linejoin:miter;stroke-miterlimit:4;stroke-dasharray:none;stroke-opacity:1" d="m1.457 294.647.224-.672-.672.224 4.48-4.48.447.449z" inkscape:connector-curvature="0" sodipodi:nodetypes="cccccc" transform="translate(0 -288.533)"/><path style="fill:#d6c8c6;fill-opacity:1;stroke:none;stroke-width:.21166667;stroke-miterlimit:4;stroke-dasharray:none;stroke-opacity:1" d="M5.712 289.496c.224-.224 2.016 1.568 1.792 1.792l-.896.896c.224-.224-1.568-2.016-1.792-1.792z" inkscape:connector-curvature="0" sodipodi:nodetypes="ccccc" transform="translate(0 -288.533)"/></g></svg>