<?xml version="1.0" encoding="UTF-8" standalone="no"?>
<!-- Created with Inkscape (http://www.inkscape.org/) -->

<svg
   width="21.04528"
   height="41.688175"
   viewBox="0 0 21.04528 41.688177"
   version="1.1"
   id="svg1059"
   xmlns="http://www.w3.org/2000/svg"
   xmlns:svg="http://www.w3.org/2000/svg"
   xmlns:rdf="http://www.w3.org/1999/02/22-rdf-syntax-ns#"
   xmlns:cc="http://creativecommons.org/ns#"
   xmlns:dc="http://purl.org/dc/elements/1.1/">
  <defs
     id="defs1053" />
  <metadata
     id="metadata1056">
    <rdf:RDF>
      <cc:Work
         rdf:about="">
        <dc:format>image/svg+xml</dc:format>
        <dc:type
           rdf:resource="http://purl.org/dc/dcmitype/StillImage" />
      </cc:Work>
    </rdf:RDF>
  </metadata>
  <g
     id="layer25"
     transform="translate(-159.96897,-148.21261)"
     style="display:inline">
    <path
       style="display:inline;fill:#5fef84;fill-opacity:1;fill-rule:evenodd;stroke:#505050;stroke-width:0.525892;stroke-linecap:round;stroke-linejoin:round;stroke-miterlimit:4;stroke-dasharray:none;stroke-opacity:1"
       class="polygon"
       d="m 179.15464,153.0947 -0.27721,0.42755 -0.42348,0.88633 -0.0201,0.69334 1.00909,1.46019 0.11624,0.14694 0.26117,0.22718 0.14093,0.27378 0.1189,0.71879 0.0715,0.81156 0.0794,0.54776 0.48693,0.76812 0.0333,0.30723 -0.33865,1.1456 -0.0802,0.12022 h -0.0889 l -0.52235,-0.0999 -0.2251,0.12695 -0.28389,0.38737 -0.17499,0.38737 -0.006,0.1604 0.46289,0.72342 -0.29257,1.03927 -0.29924,0.6479 -0.53772,0.36738 -0.48092,0.0863 -0.33599,0.17375 -0.19571,0.22708 0.0266,0.74414 -0.70838,0.67724 -0.39276,0.47425 -0.19038,0.28725 0.0794,0.87508 -0.25115,0.88371 -0.4375,0.69796 -0.98111,0.14694 -0.82321,0.0873 -0.27987,1.77678 0.0134,1.12552 -0.0734,1.1496 -0.13694,0.46751 0.0535,0.66137 -0.0602,1.4909 -0.10887,1.17621 0.14494,0.31396 0.0848,0.69133 -0.006,0.71343 0.21107,0.49423 0.22844,0.43418 -0.006,0.22708 -0.12159,0.14031 -0.10213,0.18038 6.7e-4,1.68254 0.0401,0.50096 -0.0602,0.32069 -0.17634,0.26715 0.0695,0.851 0.14161,0.54104 0.14496,0.40073 -0.13961,0.33404 -0.1209,0.44081 -0.18437,1.12288 -0.0134,0.38737 -2.8023,0.27389 -3.13107,0.44753 -1.30593,0.29397 -0.0782,-0.22718 1.11543,-0.29387 -0.23244,-0.87971 -0.69409,-1.03738 -0.27185,-0.19363 -0.14028,-0.51432 0.16966,-0.34067 -0.0808,-0.22719 -0.0602,-0.69933 -0.34134,-0.77085 h 0.62589 v -2.4841 l -6e-4,-2.38261 v -2.03257 -1.6085 l -0.12023,-1.92571 -0.0201,-1.41412 -0.0266,-1.86429 -0.22644,-0.58111 -0.9485,-0.98657 -0.25783,-0.51432 -0.0468,-0.67661 -0.21242,-0.6987 -0.0134,-1.21976 -0.0134,-1.42138 -0.0856,-0.22708 -1.028,-0.67735 -1.45529,-0.95986 -1.10961,-0.73141 -0.0815,-0.0663 -0.11089,-0.18038 0.16097,-2.16152 0.22977,-0.28051 0.35337,-0.88907 0.17166,-0.71806 h 0.16098 l 0.22309,-0.23381 0.18103,-0.34067 0.19237,0.0736 0.32329,0.0673 0.14896,-0.12022 -0.0201,-0.26715 0.10692,-0.26716 0.25382,-0.12021 0.0668,-0.24055 0.002,-0.28051 0.21976,-0.0736 h 0.37406 l 0.30592,-0.0863 0.24647,-0.14031 0.31729,-0.56102 0.17835,-0.19374 0.0535,-0.14031 0.18102,-0.12021 0.49831,-0.0673 0.40144,0.0673 0.25784,0.32058 1.72072,-0.28714 0.82,0.16692 1.67316,-1.40739 0.37608,-0.41409 0.50831,-0.99457 0.173,-0.38074 0.15696,-0.68271 -0.32996,-1.26309 0.0201,-0.22708 0.69012,-0.27389 0.86234,-0.20709 h 0.33398 l 0.21976,-0.10686 0.31529,-0.27389 0.51299,-0.20036 0.29991,0.0663 0.18636,0.0673 1.81338,1.66719 0.78673,0.843 0.21174,0.43418 0.40612,0.31385 0.59983,0.19374 0.54705,0.42755 z"
       id="path2224-2" />
  </g>
</svg>
