<?xml version="1.0" encoding="UTF-8" standalone="no"?>
<!-- Created with Inkscape (http://www.inkscape.org/) -->

<svg
   width="27.964128"
   height="28.460304"
   viewBox="0 0 27.964128 28.460305"
   version="1.1"
   id="svg1059"
   xmlns="http://www.w3.org/2000/svg"
   xmlns:svg="http://www.w3.org/2000/svg"
   xmlns:rdf="http://www.w3.org/1999/02/22-rdf-syntax-ns#"
   xmlns:cc="http://creativecommons.org/ns#"
   xmlns:dc="http://purl.org/dc/elements/1.1/">
  <defs
     id="defs1053" />
  <metadata
     id="metadata1056">
    <rdf:RDF>
      <cc:Work
         rdf:about="">
        <dc:format>image/svg+xml</dc:format>
        <dc:type
           rdf:resource="http://purl.org/dc/dcmitype/StillImage" />
      </cc:Work>
    </rdf:RDF>
  </metadata>
  <g
     id="layer20"
     transform="translate(-78.007406,-173.9217)"
     style="display:inline">
    <path
       style="display:inline;fill:#36a7e7;fill-opacity:1;fill-rule:evenodd;stroke:#505050;stroke-width:0.525892;stroke-linecap:round;stroke-linejoin:round;stroke-miterlimit:4;stroke-dasharray:none;stroke-opacity:1"
       class="polygon"
       d="m 98.45265,180.73368 0.12758,0.0799 0.20105,0.207 0.18971,0.6987 0.74886,2.25639 -0.04,0.62118 -0.14829,0.40746 -0.004,0.40084 -0.0468,0.39399 -0.45823,0.64128 -1.35155,1.31788 0.10486,0.1136 0.32263,0.15366 0.32864,0.0799 0.26986,-0.0673 0.33799,0.32732 0.36335,0.41408 0.38609,0.21373 0.5564,0.187 h 0.48695 l 0.4148,-0.0736 0.58313,0.0799 0.62121,0.34068 0.22109,0.56775 0.14897,0.49434 0.21574,0.24717 0.0266,0.42744 0.4422,0.37412 0.62923,0.0736 0.81635,0.4408 h 0.20776 l 0.0895,-0.0673 0.10023,0.0799 0.20506,1.26908 0.15897,0.67336 -0.0841,0.27388 -0.11021,0.21372 -0.006,1.02402 -0.37005,0.58774 -0.0602,0.648 -0.10423,0.20699 -0.39476,0.18701 -0.003,0.49434 -0.10486,0.6012 -0.04,0.63454 0.11021,1.66455 0.0201,1.24174 0.17767,0.23381 -0.76842,-0.0999 -2.25923,-0.94787 -1.74199,-0.54104 -5.8329,-3.10339 -1.62034,-1.245 -1.86789,-1.85492 -4.15451,-3.73331 -0.9471,-0.6012 -1.19505,-0.29387 -0.73842,-0.32058 -0.52104,-0.3474 -0.42346,-1.03464 -1.03882,-0.61456 -1.91745,-0.87435 -1.4422,-1.45809 0.35402,-0.3006 0.52034,-0.95859 0.72794,-0.92105 0.67838,-0.54777 0.53906,-0.56102 0.56911,-0.42755 0.81605,-0.50096 1.24755,-1.32388 0.29255,-0.15367 0.19972,-0.91579 0.31194,-1.16695 0.36136,-0.36066 0.84958,-0.21372 0.19839,-0.20037 0.30191,-0.82091 0.19305,-0.9566 0.0134,-0.20699 h 0.33532 l 0.57244,-0.2071 0.33265,0.0936 0.14695,0.27388 0.0755,0.23382 1.73416,-0.59458 0.1523,-0.12684 h 0.0915 l 0.21843,0.54104 h 0.12491 l 0.10486,-0.15367 h 0.11557 l 0.13559,0.0736 0.13626,0.25391 0.22043,0.22708 0.37605,0.16029 0.23846,0.22045 -0.0266,0.57438 0.0915,0.56113 0.16299,0.12695 0.0868,0.33394 0.0468,0.36739 0.0895,0.19374 0.0668,0.36738 -0.0333,0.394 0.0674,0.28062 0.27654,0.48087 0.17233,0.60783 10e-4,0.42755 -0.10023,0.45416 -0.18369,0.41419 -0.32263,0.44754 -0.0266,0.18038 0.19171,0.11348 h 0.29055 l 0.24247,-0.0936 0.61453,0.2071 0.32128,0.29387 0.28255,0.36739 0.25383,0.187 0.11489,0.23382 0.43551,-0.0673 0.50632,-0.22045 0.10423,-0.10686 0.15096,0.0663 h 0.32596 l 0.22777,-0.40084 0.18436,-0.46089 0.39277,-0.50096 0.19303,-0.19364 0.0535,-0.32068 0.0201,-0.41409 0.14095,-0.36076 0.32395,-0.19374 h 0.35002 l 0.19037,0.0736 0.0969,0.34741 0.28121,0.26052 z"
       id="path2430-6" />
  </g>
</svg>
