<?xml version="1.0" encoding="UTF-8" standalone="no"?>
<!-- Created with Inkscape (http://www.inkscape.org/) -->

<svg
   width="36.704163"
   height="38.551792"
   viewBox="0 0 36.704163 38.551793"
   version="1.1"
   id="svg1059"
   xmlns="http://www.w3.org/2000/svg"
   xmlns:svg="http://www.w3.org/2000/svg"
   xmlns:rdf="http://www.w3.org/1999/02/22-rdf-syntax-ns#"
   xmlns:cc="http://creativecommons.org/ns#"
   xmlns:dc="http://purl.org/dc/elements/1.1/">
  <defs
     id="defs1053" />
  <metadata
     id="metadata1056">
    <rdf:RDF>
      <cc:Work
         rdf:about="">
        <dc:format>image/svg+xml</dc:format>
        <dc:type
           rdf:resource="http://purl.org/dc/dcmitype/StillImage" />
      </cc:Work>
    </rdf:RDF>
  </metadata>
  <g
     id="layer34"
     transform="translate(-352.33819,-202.84124)"
     style="display:inline">
    <path
       style="display:inline;fill:#5fefdc;fill-opacity:1;fill-rule:evenodd;stroke:#505050;stroke-width:0.525892;stroke-linecap:round;stroke-linejoin:round;stroke-miterlimit:4;stroke-dasharray:none;stroke-opacity:1"
       class="polygon"
       d="m 381.59899,237.91516 h -0.72927 -1.18716 -1.18791 -1.18718 -1.18722 -1.18784 -1.18717 -1.18722 -1.18783 -1.18718 -1.18724 -1.18783 -1.18718 -1.18721 -1.18784 -1.18716 -1.18792 -0.70122 -0.14094 -0.0969 l -0.44887,0.0863 -0.46223,0.29387 -0.49429,0.12022 -0.52636,-0.0673 -0.0668,0.0673 -0.26718,-0.0105 h -0.38474 l -0.34802,0.0799 -0.26517,0.26053 -0.27119,0.4408 -0.48695,0.50107 -0.38074,0.44754 -0.32329,0.32058 -0.74163,0.52106 -0.40412,0.15356 h -0.20106 l -0.12289,-0.0936 -0.23248,-0.66862 -0.1436,-0.10686 -1.44093,0.3473 -0.21842,0.0105 0.0201,-0.20709 -0.10617,-1.57231 -0.0134,-0.96197 0.1877,-0.60109 0.10955,-0.6947 0.0134,-0.61456 0.26451,-1.04263 -0.0975,-0.62119 0.34199,-2.1916 0.0902,-0.35403 0.13226,-1.05936 0.21374,-0.32731 0.1877,-0.12695 0.24582,-0.6479 0.47291,-1.03737 0.3273,-0.53431 -0.0708,-1.16832 0.0535,-0.7942 0.0748,-0.17365 0.69795,-0.29387 0.90535,-0.73478 0.38207,-0.86372 0.54105,-0.54767 1.04697,-0.35403 0.002,-0.001 3.10234,-2.96435 1.44421,-1.59776 0.62721,-0.81829 0.0201,-0.29387 0.12024,-0.38747 -0.25183,-0.3006 -0.29991,-0.27378 -0.10023,-0.2539 -0.25917,-0.12685 h -0.3707 l -0.24581,-0.18038 -0.27855,-0.36066 -0.27854,-0.22718 h -0.88064 l -0.67771,-0.36728 0.006,-0.50107 0.26519,-0.98658 0.515,-1.12877 0.0266,-0.31396 -0.0722,-0.26715 -0.12424,-0.22719 -0.23312,-0.22708 -0.21708,-0.26715 0.16899,-0.81229 0.32397,-0.7962 0.26584,-0.40073 0.25983,-0.44754 -0.0742,-0.36738 -0.37873,-0.18039 0.19771,-0.35403 0.40879,-0.6012 0.79254,-0.60782 0.69668,-0.40746 h 0.46491 l 0.90474,0.32069 0.81859,0.38064 h 0.44887 l 0.54572,-0.16029 1.12986,-0.67525 0.2712,0.21372 0.3313,0.40746 0.35737,0.67798 0.71096,0.30723 0.342,0.21372 0.24381,0.0673 0.13559,-0.0673 0.26986,-0.5343 0.32597,-0.28725 0.6025,-0.36738 1.32937,-0.29387 0.94978,-0.0863 0.40212,-0.0663 0.6745,-0.17365 1.06325,-0.54777 1.04757,0.70406 1.137,0.13358 h 1.10241 l 0.33532,-0.21372 0.19304,-0.16702 1.1565,-1.15886 1.56617,-1.56979 1.04176,2.21169 0.35868,0.12685 -0.0468,0.19374 -0.0881,0.187 0.68164,0.53442 0.84017,0.28051 0.29925,0.27388 0.0266,0.29387 -0.28319,1.29254 0.0535,0.36738 0.27119,1.29654 0.49896,0.28713 0.44487,1.3039 0.89566,0.5544 0.12826,0.16029 0.20706,0.63464 0.27387,0.69197 0.21508,0.16029 0.13025,0.0663 0.26452,0.73477 -0.1523,0.41409 0.20708,1.25383 0.33463,1.12078 0.0903,1.33934 0.004,0.58774 -0.0134,0.36076 -0.0748,0.50759 -0.16031,0.29387 -0.28656,0.28724 -0.31661,0.44754 -0.27653,0.48098 -0.17367,0.23381 0.13492,0.72331 -0.0333,0.18711 -0.0734,0.0936 -0.40613,0.11349 -0.51834,0.19374 -0.31528,0.19374 -0.44552,0.36739 -0.35736,0.39399 -0.47358,1.16833 -0.78994,0.90842 -0.1336,0.3006 -0.74557,0.54104 -0.32865,0.66799 -0.20771,0.81955 -0.28992,0.58784 -0.62788,0.80682 -0.14495,1.27382 0.0201,2.54426 -0.16297,2.8963 z"
       id="path2630-9" />
  </g>
</svg>
