<?xml version="1.0" encoding="UTF-8" standalone="no"?>
<!-- Created with Inkscape (http://www.inkscape.org/) -->

<svg
   xmlns:dc="http://purl.org/dc/elements/1.1/"
   xmlns:cc="http://creativecommons.org/ns#"
   xmlns:rdf="http://www.w3.org/1999/02/22-rdf-syntax-ns#"
   xmlns:svg="http://www.w3.org/2000/svg"
   xmlns="http://www.w3.org/2000/svg"
   xmlns:sodipodi="http://sodipodi.sourceforge.net/DTD/sodipodi-0.dtd"
   xmlns:inkscape="http://www.inkscape.org/namespaces/inkscape"
   id="svg5406"
   sodipodi:docname="solar_system.svg"
   viewBox="0 0 217.82 217.82"
   version="1.1"
   inkscape:version="0.92.1 r15371">
  <defs
     id="defs5408" />
  <sodipodi:namedview
     id="base"
     bordercolor="#666666"
     inkscape:pageshadow="2"
     inkscape:window-y="0"
     fit-margin-left="0"
     pagecolor="#ffffff"
     fit-margin-top="0"
     inkscape:window-maximized="1"
     inkscape:zoom="1.979899"
     inkscape:window-x="0"
     inkscape:window-height="1051"
     showgrid="false"
     borderopacity="1.0"
     inkscape:current-layer="g4119"
     inkscape:cx="-78.811055"
     inkscape:cy="178.2521"
     fit-margin-right="0"
     fit-margin-bottom="0"
     inkscape:window-width="1884"
     inkscape:pageopacity="0.0"
     inkscape:document-units="px" />
  <g
     id="layer1"
     inkscape:label="Layer 1"
     inkscape:groupmode="layer"
     transform="translate(-579.66 -629.17)">
    <g
       id="g4119"
       transform="matrix(.80211 0 0 .80211 4567.3 1423.6)">
      <path
         style="color:#000000;fill:#ffeb38;fill-opacity:1;stroke-width:0.62435251"
         d="m -4815.0339,-929.37048 c -5.7859,4.87876 -9.6588,9.73047 -12.6059,14.64887 a 68.080063,68.080063 0 0 1 14.0304,3.22148 c -1.5363,-6.11305 -2.2792,-12.09649 -1.4245,-17.87035 z m -43.8809,0.67449 c -2.5807,7.1438 -3.5058,13.30187 -3.594,19.05375 a 68.080063,68.080063 0 0 1 13.7747,-4.27339 c -4.3922,-4.53023 -8.0322,-9.34774 -10.1807,-14.78036 z m 82.2246,20.68032 c -7.4551,1.33297 -13.2386,3.60044 -18.2527,6.3894 a 68.080063,68.080063 0 0 1 10.5508,9.79351 c 1.7273,-6.05939 4.0759,-11.61164 7.7019,-16.18291 z m -119.8889,1.85303 c 1.3394,7.49117 3.622,13.29221 6.4284,18.32325 a 68.080063,68.080063 0 0 1 9.8349,-10.60192 c -6.0902,-1.72932 -11.6721,-4.0796 -16.2633,-7.72133 z m 123.4294,32.21727 a 68.080063,68.080063 0 0 1 4.249,13.73818 c 4.5179,-4.37575 9.3194,-8.00169 14.7365,-10.14414 -7.1163,-2.57077 -13.2535,-3.49977 -18.9855,-3.59404 z m -126.8238,4.6776 c -6.1441,1.55201 -12.1585,2.30782 -17.9604,1.44882 4.902,5.81348 9.777,9.69508 14.7195,12.6473 a 68.080063,68.080063 0 0 1 3.2409,-14.09612 z m 131.8569,30.20111 a 68.080063,68.080063 0 0 1 -3.2337,14.0182 c 6.1115,-1.53537 12.0963,-2.27649 17.8679,-1.42202 -4.8731,-5.77965 -9.7207,-9.65009 -14.6342,-12.59618 z m -134.3113,4.89432 c -4.5458,4.41521 -9.3781,8.07739 -14.8315,10.23424 7.168,2.58947 13.3436,3.51372 19.1122,3.59646 a 68.080063,68.080063 0 0 1 -4.2807,-13.8307 z m 121.1891,27.77586 a 68.080063,68.080063 0 0 1 -9.8203,10.55809 c 6.0744,1.72824 11.641,4.07796 16.2219,7.71159 -1.3346,-7.46408 -3.6079,-13.25145 -6.4016,-18.26968 z m -105.7538,3.82049 c -1.7303,6.10536 -4.084,11.70127 -7.7335,16.30221 7.5001,-1.34101 13.3054,-3.62836 18.3403,-6.44052 a 68.080063,68.080063 0 0 1 -10.6068,-9.86169 z m 78.0851,17.93122 a 68.080063,68.080063 0 0 1 -13.7917,4.25636 c 4.3992,4.53504 8.0467,9.35384 10.1977,14.79252 2.5801,-7.14214 3.5055,-13.29813 3.594,-19.04888 z m -48.9237,1.7678 c 1.5493,6.14263 2.3026,12.15773 1.444,17.95801 5.8067,-4.89609 9.6877,-9.76618 12.64,-14.70244 a 68.080063,68.080063 0 0 1 -14.084,-3.25557 z"
         id="path4113"
         inkscape:connector-curvature="0" />
      <path
         style="color:#000000;fill:#ffd429;fill-opacity:1;stroke-width:0.62435251"
         d="m -4837.0121,-931.92477 c -4.3354,6.22339 -6.8222,11.92451 -8.3958,17.44909 a 68.080063,68.080063 0 0 1 9.7497,-0.76945 68.080063,68.080063 0 0 1 4.6605,0.23132 c -3.0709,-5.51247 -5.3428,-11.10727 -6.0119,-16.91096 z m 42.5635,10.70175 c -6.8515,3.21495 -11.8464,6.90077 -15.9661,10.88925 a 68.080063,68.080063 0 0 1 12.7179,6.68403 c 0.1033,-6.28062 0.9355,-12.23447 3.2482,-17.57328 z m -84.7764,1.31246 c -0.6415,7.54084 0.053,13.71031 1.4464,19.27289 a 68.080063,68.080063 0 0 1 12.2115,-7.63611 c -5.4139,-3.23896 -10.1771,-6.94609 -13.6579,-11.63678 z m 111.0889,28.99822 c -5.2452,-0.0305 -9.8048,0.62056 -14.0182,1.67283 a 68.080063,68.080063 0 0 1 7.6069,12.17492 c 3.2322,-5.39421 6.933,-10.13618 11.61,-13.60669 -1.8077,-0.15377 -3.5376,-0.23141 -5.1987,-0.24106 z m -141.6382,2.5129 c 3.2281,6.87955 6.9307,11.88799 10.938,16.01733 a 68.080063,68.080063 0 0 1 6.7084,-12.76906 c -6.3075,-0.0979 -12.2872,-0.92663 -17.6464,-3.24827 z m 141.4336,31.55253 a 68.080063,68.080063 0 0 1 0.7622,9.6815 68.080063,68.080063 0 0 1 -0.2362,4.70438 c 5.5043,-3.06477 11.0881,-5.33149 16.8842,-5.9998 -6.2099,-4.32616 -11.8974,-6.81185 -17.4102,-8.38608 z m -135.161,4.96006 c -5.5338,3.08937 -11.148,5.37912 -16.9743,6.05093 6.2454,4.35073 11.9646,6.83782 17.5075,8.41044 a 68.080063,68.080063 0 0 1 -0.7694,-9.73993 68.080063,68.080063 0 0 1 0.2362,-4.72144 z m 130.9899,30.02578 a 68.080063,68.080063 0 0 1 -6.6962,12.71306 c 6.2845,0.10261 12.2393,0.93693 17.5806,3.2507 -3.2138,-6.84906 -6.8969,-11.84438 -10.8844,-15.96376 z m -124.2864,4.53152 c -3.2455,5.43269 -6.9597,10.21363 -11.6636,13.70408 7.5567,0.64285 13.7357,-0.0553 19.307,-1.45611 a 68.080063,68.080063 0 0 1 -7.6434,-12.24797 z m 103.18,23.69238 a 68.080063,68.080063 0 0 1 -12.209,7.61419 c 5.4112,3.23806 10.1709,6.94552 13.6505,11.63437 0.6406,-7.53018 -0.051,-13.69245 -1.4415,-19.24856 z m -80.0866,2.90251 c -0.098,6.31282 -0.9298,12.29497 -3.2532,17.6585 6.8783,-3.22762 11.887,-6.92906 16.0173,-10.93551 a 68.080063,68.080063 0 0 1 -12.7641,-6.72299 z m 47.7183,10.88924 a 68.080063,68.080063 0 0 1 -9.6717,0.75972 68.080063,68.080063 0 0 1 -4.7677,-0.23863 c 3.0827,5.5261 5.3654,11.13193 6.0363,16.94993 4.3418,-6.23219 6.8299,-11.93877 8.4031,-17.47102 z"
         id="path4115"
         inkscape:connector-curvature="0" />
      <circle
         style="opacity:1;vector-effect:none;fill:#ffd429;fill-opacity:1;stroke:#fdf075;stroke-width:13.53555298;stroke-linecap:butt;stroke-linejoin:miter;stroke-miterlimit:4;stroke-dasharray:none;stroke-dashoffset:0;stroke-opacity:0.50162886"
         id="path848"
         cx="-4835.6582"
         cy="-847.16565"
         r="65.027107" />
    </g>
  </g>
  <metadata
     id="metadata16">
    <rdf:RDF>
      <cc:Work>
        <dc:format>image/svg+xml</dc:format>
        <dc:type
           rdf:resource="http://purl.org/dc/dcmitype/StillImage" />
        <cc:license
           rdf:resource="http://creativecommons.org/licenses/by-sa/4.0/" />
        <dc:publisher>
          <cc:Agent
             rdf:about="http://openclipart.org/">
            <dc:title />
          </cc:Agent>
        </dc:publisher>
        <dc:title />
        <dc:date />
        <dc:description />
        <dc:source />
        <dc:creator>
          <cc:Agent>
            <dc:title>Timothée Giet</dc:title>
          </cc:Agent>
        </dc:creator>
        <dc:subject>
          <rdf:Bag />
        </dc:subject>
      </cc:Work>
      <cc:License
         rdf:about="http://creativecommons.org/licenses/by-sa/4.0/">
        <cc:permits
           rdf:resource="http://creativecommons.org/ns#Reproduction" />
        <cc:permits
           rdf:resource="http://creativecommons.org/ns#Distribution" />
        <cc:requires
           rdf:resource="http://creativecommons.org/ns#Notice" />
        <cc:requires
           rdf:resource="http://creativecommons.org/ns#Attribution" />
        <cc:permits
           rdf:resource="http://creativecommons.org/ns#DerivativeWorks" />
        <cc:requires
           rdf:resource="http://creativecommons.org/ns#ShareAlike" />
      </cc:License>
    </rdf:RDF>
  </metadata>
</svg>
