<?xml version="1.0" encoding="UTF-8" standalone="no"?>
<!-- Created with Inkscape (http://www.inkscape.org/) -->

<svg
   xmlns:dc="http://purl.org/dc/elements/1.1/"
   xmlns:cc="http://creativecommons.org/ns#"
   xmlns:rdf="http://www.w3.org/1999/02/22-rdf-syntax-ns#"
   xmlns:svg="http://www.w3.org/2000/svg"
   xmlns="http://www.w3.org/2000/svg"
   xmlns:sodipodi="http://sodipodi.sourceforge.net/DTD/sodipodi-0.dtd"
   xmlns:inkscape="http://www.inkscape.org/namespaces/inkscape"
   width="100"
   height="100"
   id="svg2"
   sodipodi:version="0.32"
   inkscape:version="0.91 r13725"
   version="1.0"
   sodipodi:docname="wordsgame.svg">
  <defs
     id="defs4" />
  <sodipodi:namedview
     id="base"
     pagecolor="#7a7a7a"
     bordercolor="#666666"
     borderopacity="1.0"
     inkscape:pageopacity="0"
     inkscape:pageshadow="2"
     inkscape:zoom="4.8605049"
     inkscape:cx="8.9767486"
     inkscape:cy="51.812939"
     inkscape:document-units="px"
     inkscape:current-layer="layer1"
     width="100px"
     height="100px"
     inkscape:window-width="1880"
     inkscape:window-height="1060"
     inkscape:window-x="-3"
     inkscape:window-y="-3"
     showguides="true"
     inkscape:guide-bbox="true"
     showgrid="false"
     inkscape:window-maximized="1" />
  <metadata
     id="metadata7">
    <rdf:RDF>
      <cc:Work
         rdf:about="">
        <dc:format>image/svg+xml</dc:format>
        <dc:type
           rdf:resource="http://purl.org/dc/dcmitype/StillImage" />
        <dc:title></dc:title>
      </cc:Work>
    </rdf:RDF>
  </metadata>
  <g
     inkscape:label="Calque 1"
     inkscape:groupmode="layer"
     id="layer1">
    <g
       id="g5684"
       transform="translate(109.6588,88.25478)">
      <path
         sodipodi:nodetypes="ccccccccc"
         id="path5668"
         d="M -100.14271,1.9343122 L -83.556519,-23.774286 L -65.311707,-46.994957 L -59.091884,-58.190637 L -39.188452,-24.603596 L -16.797093,3.1782822 L -44.16431,-0.13895781 L -69.0436,3.1782822 L -100.14271,1.9343122 z "
         style="fill:#ffe195;fill-opacity:1;fill-rule:evenodd;stroke:none;stroke-width:1px;stroke-linecap:butt;stroke-linejoin:miter;stroke-opacity:1" />
      <path
         id="path5666"
         d="M -58.302686,-60.766571 L -59.783529,-60.732278 L -62.951844,-55.073912 L -55.031056,-55.279671 L -58.302686,-60.766571 z M -53.03364,-51.884652 L -64.880384,-51.610306 L -65.91353,-49.758478 L -68.461957,-46.500631 L -51.346168,-46.946441 L -50.003077,-46.809269 L -53.03364,-51.884652 z M -48.074538,-43.551422 L -71.217015,-43.037024 L -74.970779,-38.27028 L -52.964764,-38.81897 L -44.76847,-38.030229 L -48.074538,-43.551422 z M -43.322065,-35.561123 L -77.725836,-34.772382 L -81.68623,-29.765585 L -79.688814,-29.696999 L -52.482629,-30.38286 L -39.499424,-29.148308 L -43.322065,-35.561123 z M -41.737908,-27.159307 L -79.447746,-26.336272 L -84.131342,-26.64491 L -86.025444,-24.244392 L -88.160613,-20.952252 L -78.758982,-20.712199 L -51.587236,-21.398062 L -32.611782,-19.614819 L -37.123187,-25.170306 L -38.087458,-26.782083 L -41.737908,-27.159307 z M -40.842514,-18.174508 L -78.552352,-17.351473 L -89.985838,-18.140215 L -93.498535,-12.721901 L -78.311285,-12.310383 L -51.105101,-12.996246 L -25.276443,-10.561434 L -30.614366,-17.111421 L -40.842514,-18.174508 z M -95.15157,-10.115623 L -98.698704,-4.663016 L -97.493367,-4.7316021 L -78.070218,-4.2172052 L -50.898471,-4.9030678 L -20.489533,-2.0224452 L -18.560993,-2.228204 L -23.210152,-7.9894495 L -40.394817,-9.772692 L -78.070218,-8.9153636 L -95.15157,-10.115623 z M -99.559659,-2.3653764 L -100.28286,-2.228204 L -104.27769,3.9445588 L -103.24455,3.978852 L -97.04567,3.6702139 L -77.622521,4.1846107 L -57.682798,3.6702139 L -42.598863,1.6812125 L -12.430992,5.3162839 L -16.081442,0.78959116 L -40.15375,-1.679514 L -77.863589,-0.85647893 L -99.559659,-2.3653764 z "
         style="fill:#ffba0e;fill-opacity:1;fill-rule:evenodd;stroke:none;stroke-width:1px;stroke-linecap:butt;stroke-linejoin:miter;stroke-opacity:1" />
    </g>
    <path
       style="fill:#0fb819;fill-opacity:1;fill-rule:evenodd;stroke:none;stroke-width:1px;stroke-linecap:butt;stroke-linejoin:miter;stroke-opacity:1"
       d="M 66.505433,76.545649 L 74.323551,74.642555 L 82.398843,73.66529 L 86.822252,73.56242 L 89.136826,78.500179 L 83.221803,80.146098 L 85.484942,88.375696 L 76.38095,91.10175 L 75.04364,80.506143 L 68.562832,81.894888 L 66.505433,76.545649 z "
       id="path5708" />
    <path
       style="fill:#ffc219;fill-opacity:1;fill-rule:evenodd;stroke:none;stroke-width:1px;stroke-linecap:butt;stroke-linejoin:miter;stroke-opacity:1"
       d="M 72.574761,53.811386 L 69.231487,59.366364 L 70.517362,65.127083 L 76.123775,69.704796 L 81.935928,68.933272 C 81.935928,68.933272 84.713418,64.664168 84.816288,64.458428 C 84.919158,64.252688 84.301938,58.903449 84.301938,58.903449 L 82.553148,55.560175 L 79.467049,53.142731 L 74.63216,52.165466 L 72.574761,53.811386 z "
       id="path5706" />
    <path
       style="fill:#004aff;fill-opacity:1;fill-rule:evenodd;stroke:none;stroke-width:1px;stroke-linecap:butt;stroke-linejoin:miter;stroke-opacity:1"
       d="M 66.218584,31.556176 L 66.023464,44.04384 L 71.779497,48.141355 L 73.633135,47.263317 L 73.145335,41.409724 L 76.559931,40.726804 L 79.584288,47.653556 L 86.1208,43.165802 L 79.974527,30.775697 L 74.803853,34.678092 L 66.901503,31.165936 L 66.218584,31.556176 z "
       id="path5703" />
    <path
       style="fill:#f0f0f0;fill-opacity:1;fill-rule:evenodd;stroke:none;stroke-width:1px;stroke-linecap:butt;stroke-linejoin:miter;stroke-opacity:1"
       d="M 65.705197,4.139415 L 65.07546,15.744866 L 65.705197,27.350316 L 63.186247,18.729125 L 64.025897,11.765853 L 65.705197,4.139415 z "
       id="path5693"
       sodipodi:nodetypes="cccccc" />
    <path
       style="font-size:20px;font-style:normal;font-variant:normal;font-weight:normal;font-stretch:normal;text-align:start;line-height:100%;writing-mode:tb-rl;text-anchor:start;fill:#f0f0f0;fill-opacity:1;stroke:none;stroke-width:1px;stroke-linecap:butt;stroke-linejoin:miter;stroke-opacity:1;font-family:Indigo Joker"
       d="M 87.235238,43.664253 C 87.235215,43.970922 87.158419,44.224255 87.004846,44.424253 C 86.960939,44.477588 86.785402,44.610921 86.478235,44.824253 C 86.434329,44.890921 86.379474,44.970921 86.313669,45.064253 C 85.414021,45.637587 84.503424,46.210919 83.581875,46.784253 C 82.550576,47.437585 81.629009,47.944251 80.817167,48.304253 C 80.115004,48.610917 79.44577,48.737583 78.809463,48.684253 C 78.546144,48.457584 78.392548,48.250917 78.348678,48.064253 L 76.735932,42.704253 C 76.713977,42.650923 76.637181,42.55759 76.50554,42.424253 C 76.395817,42.47759 76.198338,42.610923 75.913103,42.824253 C 75.649786,43.037589 75.47425,43.144256 75.386492,43.144253 C 75.232886,43.144256 74.892784,42.984256 74.366183,42.664253 C 74.146752,42.63759 74.037041,42.697589 74.037051,42.844253 C 74.037041,42.897589 74.146752,43.357589 74.366183,44.224253 C 74.607537,45.077587 74.728218,45.53092 74.728228,45.584253 L 74.728228,47.424253 C 74.728218,47.544251 74.563652,47.877584 74.23453,48.424253 C 73.883447,49.02425 73.609171,49.32425 73.411701,49.324253 C 73.323923,49.32425 73.203242,49.310916 73.049656,49.284253 C 72.896053,49.257583 72.786342,49.237583 72.720524,49.224253 C 72.084195,49.210916 71.382048,48.977583 70.61408,48.524253 C 69.977753,48.110917 69.341432,47.697584 68.705115,47.284253 C 68.397922,47.097585 67.981022,46.830919 67.454414,46.484253 C 67.278875,46.377586 66.807119,46.150919 66.039147,45.804253 C 65.534478,45.564253 65.205346,45.324254 65.051752,45.084253 C 64.898156,44.830921 64.82136,44.424254 64.82136,43.864253 C 64.82136,43.824255 64.854273,43.570922 64.920099,43.104253 C 64.985925,42.63759 65.018839,42.37759 65.018839,42.324253 L 65.018839,40.444253 L 65.117578,32.424253 C 65.161461,32.304267 65.183405,31.870934 65.183405,31.124253 C 65.183405,31.097601 65.150491,31.044268 65.084665,30.964253 C 65.04078,30.884268 65.018839,30.824268 65.018839,30.784253 C 65.018839,30.677602 65.117578,30.550935 65.315057,30.404253 C 65.512535,30.244269 65.720985,30.184269 65.940408,30.224253 L 74.662402,32.864253 C 75.035407,32.7176 75.924063,32.1376 77.328369,31.124253 C 78.644882,30.164269 79.379944,29.684269 79.533553,29.684253 C 79.950438,29.684269 80.345396,29.810936 80.718428,30.064253 C 81.245022,30.410935 81.705807,30.964268 82.100781,31.724253 C 82.342127,32.244267 82.583489,32.770933 82.824871,33.304253 C 82.846795,33.450932 82.901651,33.670932 82.989437,33.964253 C 83.450204,34.804264 84.097494,36.057596 84.931315,37.724253 C 85.238484,38.390927 85.468876,38.88426 85.622492,39.204253 C 85.71024,39.310926 85.81995,39.470926 85.951624,39.684253 C 86.807345,41.89759 87.235215,43.224256 87.235238,43.664253 M 84.832576,42.864253 C 84.832556,42.824256 84.448569,42.05759 83.680614,40.564253 C 82.780968,38.80426 82.16659,37.564262 81.837476,36.844253 C 81.815516,36.630929 81.727748,36.350929 81.57417,36.004253 C 81.266964,35.724263 80.959775,35.224264 80.652601,34.504253 C 80.367338,33.770932 80.082091,33.250932 79.796858,32.944253 C 79.7749,32.930933 79.709074,32.7776 79.599379,32.484253 C 79.511596,32.244267 79.390914,32.0976 79.237334,32.044253 C 77.98662,33.097599 76.505528,34.497598 74.794054,36.244253 C 74.662392,36.390929 74.497826,36.484263 74.300357,36.524253 C 73.5982,36.23093 73.126444,35.984263 72.88509,35.784253 C 72.314587,35.304264 71.436903,34.657598 70.252035,33.844253 C 68.891619,32.924266 68.079761,32.464267 67.816459,32.464253 C 67.728688,32.464267 67.586064,32.530933 67.388588,32.664253 C 67.191105,32.784266 67.114309,32.884266 67.158196,32.964253 L 67.059456,36.964253 C 67.059454,37.657595 67.081396,38.124261 67.125282,38.364253 C 67.213049,38.670927 67.311788,38.977593 67.421501,39.284253 C 67.509267,39.710926 67.542181,40.264258 67.520241,40.944253 C 67.476354,41.864257 67.454411,42.410923 67.454414,42.584253 C 67.454411,42.984256 67.520237,43.550922 67.651893,44.284253 C 67.761601,44.524254 68.101703,44.797587 68.672202,45.104253 C 69.067155,45.304254 69.462114,45.517587 69.857077,45.744253 C 70.25203,45.97092 70.778639,46.277586 71.43691,46.664253 C 71.590497,46.717585 71.864774,46.737585 72.259739,46.724253 C 72.54498,46.577586 72.687602,45.97092 72.687611,44.904253 C 72.687602,44.117588 72.577891,42.770923 72.358479,40.864253 C 72.336529,40.784258 72.281674,40.644258 72.193913,40.444253 C 72.128078,40.230925 72.095165,40.104259 72.095173,40.064253 C 72.095165,39.864259 72.215848,39.764259 72.457218,39.764253 C 72.742457,39.764259 73.115474,39.884259 73.576267,40.124253 C 74.037041,40.364258 74.300347,40.484258 74.366183,40.484253 C 74.607537,40.484258 74.947639,40.217592 75.386492,39.684253 C 75.847265,39.150926 76.154455,38.88426 76.308061,38.884253 C 76.637181,38.88426 76.922428,39.08426 77.163804,39.484253 C 77.295443,39.750926 77.427096,40.017592 77.558762,40.284253 C 77.843996,40.830925 78.293809,41.950923 78.908202,43.644253 C 78.995957,43.977588 79.12761,44.450921 79.303161,45.064253 C 79.54451,45.757586 79.818785,46.117586 80.12599,46.144253 C 80.937832,45.664253 81.73872,45.184254 82.528653,44.704253 C 84.064583,43.744255 84.832556,43.130922 84.832576,42.864253 M 86.069538,64.602149 C 86.069518,64.682151 85.98175,64.995484 85.806233,65.542149 C 85.586792,66.155483 85.400285,66.615482 85.246708,66.922149 C 85.115038,67.055482 84.961443,67.242149 84.785924,67.482149 C 84.61037,68.082148 84.050846,68.688814 83.107351,69.302149 C 82.163824,69.928812 81.154489,70.368812 80.079339,70.622149 C 79.684367,70.715478 78.927366,70.762145 77.808329,70.762149 C 77.281708,70.762145 76.678299,70.715478 75.998104,70.622149 C 75.339832,70.528812 74.506032,70.195479 73.496702,69.622149 C 72.509301,69.048813 71.818124,68.522147 71.423171,68.042149 C 70.896557,67.668815 70.172467,67.075482 69.250901,66.262149 C 68.768173,65.70215 68.42807,65.088817 68.230592,64.422149 C 67.879517,63.142153 67.703981,61.94882 67.703981,60.842149 C 67.703981,59.682156 68.055055,58.395491 68.757203,56.982149 C 69.37158,55.715493 70.117612,54.628828 70.9953,53.722149 C 71.170832,53.495496 71.412196,53.188829 71.71939,52.802149 C 71.697443,52.722163 71.719385,52.615496 71.785216,52.482149 C 72.465416,51.98883 73.046882,51.648831 73.529615,51.462149 C 74.012334,51.275498 74.5938,51.182165 75.274014,51.182149 C 76.546646,51.182165 78.060653,51.628831 79.816033,52.522149 C 80.23292,52.695496 80.85827,53.028829 81.692085,53.522149 C 83.140248,54.762161 84.116672,55.828827 84.621358,56.722149 C 85.060183,57.482158 85.422226,58.588824 85.707493,60.042149 C 85.729417,60.135489 85.795243,60.342155 85.904972,60.662149 C 86.014664,60.982155 86.069518,61.162155 86.069538,61.202149 L 86.069538,64.602149 M 83.568136,61.362149 C 83.56812,60.588822 83.403554,59.635489 83.074438,58.502149 C 82.74529,57.355492 82.383247,56.535493 81.988303,56.042149 C 81.395851,55.28216 80.573023,54.682161 79.519814,54.242149 C 78.554349,53.842162 77.588897,53.642162 76.623454,53.642149 C 74.27564,53.642162 72.608041,54.755494 71.62065,56.982149 C 71.467051,57.222159 71.313457,57.548825 71.159866,57.962149 C 71.072093,58.89549 71.028208,59.662156 71.028213,60.262149 C 71.028208,60.302155 71.072093,60.435489 71.159866,60.662149 C 71.24763,60.888822 71.291513,61.055488 71.291518,61.162149 C 71.467051,62.815486 71.730356,63.962152 72.081435,64.602149 C 72.542214,65.48215 73.23339,66.24215 74.154965,66.882149 C 75.230121,67.628815 76.349169,68.002148 77.51211,68.002149 C 78.170362,68.002148 78.729886,67.935481 79.190683,67.802149 C 79.870875,67.588815 80.562052,67.182149 81.264213,66.582149 C 81.856636,66.06215 82.306449,65.54215 82.613654,65.022149 C 82.789175,64.715484 82.975682,64.208818 83.173178,63.502149 C 83.436467,62.64882 83.56812,61.935487 83.568136,61.362149 M 79.124856,61.802149 C 79.124845,63.522152 78.696973,64.382151 77.841242,64.382149 C 77.117142,64.382151 76.612473,63.682152 76.327236,62.282149 C 76.173631,61.548821 76.096833,60.762155 76.096843,59.922149 C 76.096833,58.348824 76.447908,57.562158 77.150065,57.562149 C 77.874144,57.562158 78.411726,58.162158 78.762811,59.362149 C 79.004162,60.148822 79.124845,60.962155 79.124856,61.802149 M 90.513765,78.884132 C 90.250435,78.964142 89.855478,79.090808 89.328891,79.264132 C 88.363415,79.504141 87.397963,79.744141 86.43253,79.984132 C 85.050157,80.34414 84.358982,80.68414 84.359,81.004132 L 87.222447,88.224132 C 87.26631,88.277466 87.288252,88.324132 87.288273,88.364132 C 87.288252,88.750799 86.53125,89.217465 85.017263,89.764132 C 84.402866,89.977464 82.844977,90.38413 80.343591,90.984132 C 78.215193,91.477463 76.876725,91.890796 76.328183,92.224132 C 76.152635,92.224129 76.010013,92.184129 75.900311,92.104132 C 75.79059,91.770796 75.636996,91.297463 75.439527,90.684132 C 75.46146,90.550797 75.47243,90.337464 75.47244,90.044132 C 75.340777,89.044132 75.121357,87.544133 74.814176,85.544132 C 74.682515,84.957469 74.485036,84.07747 74.221739,82.904132 C 74.133963,82.717471 74.00231,82.430805 73.826781,82.044132 C 73.782889,81.910806 73.640265,81.777472 73.398909,81.644132 C 72.740639,81.644139 71.731302,81.804139 70.370896,82.124132 C 69.032424,82.430805 68.385132,82.584138 68.429019,82.584132 C 68.165711,82.584138 67.83658,82.424138 67.441623,82.104132 C 67.244142,81.930805 67.035693,81.537473 66.816273,80.924132 C 66.618793,80.550807 66.37743,80.004141 66.092183,79.284132 C 65.982471,78.817475 65.806935,78.157476 65.565572,77.304132 C 65.54363,77.264143 65.455862,77.11081 65.302266,76.844132 C 65.170615,76.630811 65.104789,76.470811 65.104787,76.364132 C 65.104789,76.110811 65.247411,75.950811 65.532658,75.884132 C 66.125096,75.710812 67.046663,75.457479 68.297366,75.124132 C 68.911743,75.030812 69.844282,74.864146 71.094987,74.624132 C 71.599649,74.490813 72.345681,74.324146 73.333083,74.124132 C 73.442786,74.110813 75.494373,73.784147 79.487848,73.144132 C 81.594277,72.810815 83.29479,72.644148 84.589392,72.644132 C 85.971726,72.644148 86.871352,72.670815 87.288273,72.724132 C 87.639325,72.764148 88.012342,73.097481 88.407321,73.724132 C 88.692547,74.084147 89.032649,74.650813 89.42763,75.424132 C 89.55926,75.904145 89.800622,76.584144 90.15172,77.464132 C 90.349175,77.957476 90.469856,78.430809 90.513765,78.884132 M 87.123707,78.304132 C 87.145629,77.997476 87.079803,77.637476 86.926228,77.224132 C 86.772612,76.810811 86.629988,76.404144 86.498357,76.004132 C 86.191147,75.017479 85.763275,74.524146 85.214743,74.524132 C 85.148896,74.524146 85.028215,74.53748 84.852698,74.564132 C 84.677142,74.57748 84.556461,74.584146 84.490652,74.584132 C 84.402866,74.584146 84.282184,74.564146 84.128607,74.524132 C 83.974995,74.484146 83.854314,74.464146 83.766562,74.464132 C 83.678776,74.464146 83.503239,74.484146 83.239952,74.524132 C 82.910803,74.57748 82.680411,74.610813 82.548775,74.624132 C 82.351279,74.610813 82.098945,74.604146 81.791771,74.604132 C 80.409403,74.790813 78.456557,75.050812 75.933225,75.384132 C 75.406604,75.437479 74.627659,75.524145 73.596389,75.644132 C 73.17948,75.750812 72.608986,75.877478 71.884903,76.024132 C 69.471266,76.357478 68.264451,76.704144 68.264453,77.064132 C 68.264451,77.09081 68.352219,77.37081 68.527758,77.904132 C 68.681351,78.477476 68.78009,78.897475 68.823977,79.164132 C 68.933685,79.884141 69.087279,80.397474 69.284761,80.704132 C 69.350584,80.810807 69.51515,80.850807 69.778459,80.824132 L 74.978742,79.784132 C 75.615054,79.890808 75.999041,80.164141 76.130704,80.604132 C 76.174579,80.950806 76.229433,81.290806 76.29527,81.624132 C 76.602448,82.317472 76.767014,82.937471 76.788967,83.484132 C 76.810899,83.564137 76.854782,83.664137 76.92062,83.784132 C 77.052261,85.184136 77.194886,87.177467 77.348491,89.764132 C 77.392365,89.764131 77.469161,89.790798 77.578884,89.844132 C 78.939283,89.510798 81.00184,88.917465 83.766562,88.064132 C 83.656835,87.757466 83.503239,87.304133 83.305778,86.704132 C 83.283818,86.250801 83.207022,85.644135 83.075386,84.884132 C 82.636526,83.497471 82.307394,82.057472 82.08799,80.564132 C 82.087974,80.44414 82.04409,80.277474 81.956337,80.064132 C 81.890494,79.837474 81.857581,79.704141 81.857598,79.664132 C 81.857581,79.370808 82.066032,79.177475 82.482948,79.084132 C 82.899832,78.990808 83.316731,78.904142 83.733649,78.824132 C 84.545489,78.664142 85.576768,78.550809 86.827489,78.484132 C 86.893294,78.444142 86.992033,78.384142 87.123707,78.304132"
       id="text5688" />
    <path
       style="fill:#f0f0f0;fill-opacity:1;fill-rule:evenodd;stroke:none;stroke-width:1px;stroke-linecap:butt;stroke-linejoin:miter;stroke-opacity:1"
       d="M 85.658538,25.50141 L 86.265922,37.545228 L 88.127217,28.164037 L 87.685151,21.655944 L 87.413089,13.486732 L 85.658538,25.50141 z "
       id="path5695"
       sodipodi:nodetypes="cccccc" />
    <path
       style="fill:#f0f0f0;fill-opacity:1;fill-rule:evenodd;stroke:none;stroke-width:1px;stroke-linecap:butt;stroke-linejoin:miter;stroke-opacity:1"
       d="M 63.792286,67.769448 L 64.523594,74.774432 L 65.153331,69.526619 L 65.105934,65.38254 L 64.306906,60.236297 L 63.792286,67.769448 z "
       id="path5697"
       sodipodi:nodetypes="cccccc" />
    <path
       style="fill:#f0f0f0;fill-opacity:1;fill-rule:evenodd;stroke:none;stroke-width:1px;stroke-linecap:butt;stroke-linejoin:miter;stroke-opacity:1"
       d="M 88.220072,65.128605 L 88.95138,71.869505 L 89.581117,66.621692 L 90.061888,62.609655 L 89.791029,57.595454 L 88.220072,65.128605 z "
       id="path5699"
       sodipodi:nodetypes="cccccc" />
    <path
       style="fill:#f0f0f0;fill-opacity:1;fill-rule:evenodd;stroke:none;stroke-width:1px;stroke-linecap:butt;stroke-linejoin:miter;stroke-opacity:1"
       d="M 75.015864,11.387476 L 76.27534,18.524503 L 76.905077,13.276689 L 76.065427,8.868526 L 77.114989,4.250451 L 75.015864,11.387476 z "
       id="path5701"
       sodipodi:nodetypes="cccccc" />
  </g>
</svg>
