<!--Created with Inkscape (http://www.inkscape.org/)--><svg xmlns:dc="http://purl.org/dc/elements/1.1/" xmlns:cc="http://creativecommons.org/ns#" xmlns:rdf="http://www.w3.org/1999/02/22-rdf-syntax-ns#" xmlns="http://www.w3.org/2000/svg" xmlns:sodipodi="http://sodipodi.sourceforge.net/DTD/sodipodi-0.dtd" xmlns:inkscape="http://www.inkscape.org/namespaces/inkscape" width="100" height="100" sodipodi:version="0.32" inkscape:version="0.92.1 r15371" version="1.0" sodipodi:docname="wordsgame.svg"><sodipodi:namedview pagecolor="#7a7a7a" bordercolor="#666666" borderopacity="1.0" inkscape:pageopacity="0" inkscape:pageshadow="2" inkscape:zoom="3.436896" inkscape:cx="51.153437" inkscape:cy="57.367917" inkscape:document-units="px" inkscape:current-layer="layer1" width="100px" height="100px" inkscape:window-width="1884" inkscape:window-height="1051" inkscape:window-x="0" inkscape:window-y="0" showguides="true" inkscape:guide-bbox="true" showgrid="false" inkscape:window-maximized="1"/><metadata><rdf:RDF><cc:Work><dc:format>image/svg+xml</dc:format><dc:type rdf:resource="http://purl.org/dc/dcmitype/StillImage"/><dc:title/><dc:date>2015</dc:date><dc:creator><cc:Agent><dc:title>Timothée Giet</dc:title></cc:Agent></dc:creator><cc:license rdf:resource="http://creativecommons.org/licenses/by-sa/4.0/"/></cc:Work><cc:License rdf:about="http://creativecommons.org/licenses/by-sa/4.0/"><cc:permits rdf:resource="http://creativecommons.org/ns#Reproduction"/><cc:permits rdf:resource="http://creativecommons.org/ns#Distribution"/><cc:requires rdf:resource="http://creativecommons.org/ns#Notice"/><cc:requires rdf:resource="http://creativecommons.org/ns#Attribution"/><cc:permits rdf:resource="http://creativecommons.org/ns#DerivativeWorks"/><cc:requires rdf:resource="http://creativecommons.org/ns#ShareAlike"/></cc:License></rdf:RDF></metadata><g inkscape:label="Calque 1" inkscape:groupmode="layer"><path sodipodi:nodetypes="ccccccccc" d="m-100.143 1.934 16.586-25.708 18.245-23.221 6.22-11.196 19.904 33.587 22.39 27.782-27.366-3.317-24.88 3.317z" style="fill:#f9df9b;fill-opacity:1;fill-rule:evenodd;stroke:none;stroke-width:1px;stroke-linecap:butt;stroke-linejoin:miter;stroke-opacity:1" inkscape:connector-curvature="0" transform="translate(109.659 92.255)"/><path d="m-58.303-60.767-1.48.035-3.169 5.658 7.92-.206zm5.27 8.882-11.847.275-1.034 1.852-2.548 3.257 17.116-.445 1.343.137zm4.958 8.334-23.142.514-3.754 4.767 22.006-.549 8.197.789zm4.753 7.99-34.404.789-3.96 5.006 1.997.069 27.206-.686 12.984 1.235zm1.584 8.402-37.71.823-4.683-.309-1.894 2.4-2.136 3.293 9.402.24 27.172-.686 18.975 1.783-4.511-5.555-.964-1.612zm.895 8.984-37.71.824-11.433-.79-3.513 5.42 15.188.41 27.206-.685 25.829 2.435-5.338-6.55zm-54.309 8.06-3.547 5.452 1.206-.069 19.423.515 27.172-.686 30.408 2.88 1.929-.205-4.65-5.761-17.184-1.784-37.675.858zm-4.408 7.75-.723.137-3.995 6.173 1.033.034 6.2-.309 19.422.515 19.94-.515 15.084-1.989 30.168 3.635-3.65-4.526-24.073-2.47-37.71.824z" style="fill:#f3b41a;fill-opacity:1;fill-rule:evenodd;stroke:none;stroke-width:1px;stroke-linecap:butt;stroke-linejoin:miter;stroke-opacity:1" inkscape:connector-curvature="0" transform="translate(109.659 92.255)"/><g aria-label="M OT" style="font-style:normal;font-variant:normal;font-weight:400;font-stretch:normal;font-size:18.66666603px;line-height:1.25;font-family:Kabel;-inkscape-font-specification:Kabel;letter-spacing:0;word-spacing:0;fill:#000;fill-opacity:1;stroke:none"><path d="m12.042 39.369.272-22.58 6.993 7.488 2.504-9.99 10.557 16.318-5.875 5.09-2.063-4.984-1.49 7.123-4.585-5.43.554 2.346z" style="font-style:normal;font-variant:normal;font-weight:400;font-stretch:normal;font-size:18.66666603px;line-height:1.25;font-family:Kabel;-inkscape-font-specification:Kabel;letter-spacing:0;word-spacing:0;fill:#315db6;fill-opacity:1;stroke:none;stroke-width:1.05871189" inkscape:connector-curvature="0" sodipodi:nodetypes="ccccccccccc" transform="translate(4)"/><path style="opacity:1;fill:#e06420;fill-opacity:1;stroke:none;stroke-width:1.02672112;stroke-miterlimit:4;stroke-dasharray:none;stroke-opacity:1" d="M23.294 38.433a10.57 9.468 75 0 0-6.409 12.66 10.57 9.468 75 0 0 11.88 7.76 10.57 9.468 75 0 0 6.41-12.66 10.57 9.468 75 0 0-11.881-7.76zm1.916 7.154a3.164 2.834 75 0 1 3.557 2.322 3.164 2.834 75 0 1-1.919 3.79 3.164 2.834 75 0 1-3.554-2.323 3.164 2.834 75 0 1 1.916-3.79z" inkscape:connector-curvature="0" transform="translate(4)"/><path d="m13.56 36.92-.626-18.2 7.511 9.421 1.986-11.923 7.891 14.097-3.117 3.297-3.146-6.915-1.76 8.362-5.617-6.47.182 5.871z" style="font-size:18.66666603px;fill:#5085e5;fill-opacity:1;stroke-width:1.05871189" inkscape:connector-curvature="0" sodipodi:nodetypes="ccccccccccc" transform="translate(4)"/><path d="M25.942 43.705q-1.183-.01-2.162.68-.997.693-1.534 1.842-.503 1.051-.475 2.24l.006.245q.083 1.21.787 2.273.681 1.08 1.75 1.698.95.558 1.927.583l.188.005q1.71-.06 2.989-1.621 1.114-1.345 1.076-2.979-.006-.245-.03-.495-.143-1.207-.768-2.247-.644-1.04-1.635-1.635-.972-.56-2.045-.587l-.074-.002zm.095-3.942q2.217.077 4.145 1.33 1.91 1.257 3.027 3.288 1.097 2.016 1.153 4.37l.002.08q.001 2.392-1.081 4.332-1.078 1.934-2.952 3.01-1.778 1.018-3.81.966l-.226-.006q-1.841-.107-3.382-.86-1.54-.76-2.68-2.037-1.135-1.278-1.72-2.906-.52-1.466-.559-3.105l-.007-.325q0-2.332 1.083-4.247 1.079-1.895 2.953-2.93 1.82-1.018 3.98-.962l.074.002z" style="font-size:18.66666603px;fill:#f38d55;fill-opacity:1;stroke-width:1.05042112" inkscape:connector-curvature="0" transform="translate(4)"/><path d="m39.652 66.227-4.219 1.13 3.427 12.79-7.495 2.413-3.528-13.167-4.51 1.208-.025-8.482 14.228-3.813z" style="font-style:normal;font-variant:normal;font-weight:400;font-stretch:normal;font-size:18.66666603px;line-height:1.25;font-family:Kabel;-inkscape-font-specification:Kabel;letter-spacing:0;word-spacing:0;fill:#33a539;fill-opacity:1;stroke:none;stroke-width:1.07736099;stroke-opacity:1" inkscape:connector-curvature="0" sodipodi:nodetypes="ccccccccc" transform="translate(4)"/><path d="m37.306 64.504-4.22 1.13 3.427 12.79-3.631 1.378-3.528-13.167-4.229 1.133.026-4.355 11.067-2.966z" style="font-size:18.66666603px;fill:#59d25f;fill-opacity:1;stroke:none;stroke-width:1.07736099;stroke-opacity:1" inkscape:connector-curvature="0" sodipodi:nodetypes="ccccccccc" transform="translate(4)"/><path style="fill:#315db6;fill-opacity:.55775577;stroke:none;stroke-width:1px;stroke-linecap:butt;stroke-linejoin:miter;stroke-opacity:1" d="M14.402 2.274v14.813l-1.235-2.263z" inkscape:connector-curvature="0" sodipodi:nodetypes="cccc" transform="translate(4)"/><path style="font-style:normal;font-variant:normal;font-weight:400;font-stretch:normal;font-size:18.66666603px;line-height:1.25;font-family:Kabel;-inkscape-font-specification:Kabel;letter-spacing:0;word-spacing:0;fill:#e06420;fill-opacity:.55775577;stroke:none;stroke-width:1.18438923px;stroke-linecap:butt;stroke-linejoin:miter;stroke-opacity:1" d="M34.402 18.307v20.78l-.823-3.175z" inkscape:connector-curvature="0" sodipodi:nodetypes="cccc" transform="translate(4)"/><path style="font-style:normal;font-variant:normal;font-weight:400;font-stretch:normal;font-size:18.66666603px;line-height:1.25;font-family:Kabel;-inkscape-font-specification:Kabel;letter-spacing:0;word-spacing:0;fill:#2a832e;fill-opacity:.55686275;stroke:none;stroke-width:1.18438923px;stroke-linecap:butt;stroke-linejoin:miter;stroke-opacity:1" d="M38.11 36.307v19.34l-1.234 1.866z" inkscape:connector-curvature="0" sodipodi:nodetypes="cccc" transform="translate(4)"/><path style="font-style:normal;font-variant:normal;font-weight:400;font-stretch:normal;font-size:18.66666603px;line-height:1.25;font-family:Kabel;-inkscape-font-specification:Kabel;letter-spacing:0;word-spacing:0;fill:#315db6;fill-opacity:.55686275;stroke:none;stroke-width:.65616733px;stroke-linecap:butt;stroke-linejoin:miter;stroke-opacity:1" d="M27.957 11.017v7.613l-.617-2.209z" inkscape:connector-curvature="0" sodipodi:nodetypes="cccc" transform="translate(4)"/></g></g></svg>