<!--Created with Inkscape (http://www.inkscape.org/)--><svg width="520" height="520" version="1.1" id="svg5299" xmlns="http://www.w3.org/2000/svg" xmlns:rdf="http://www.w3.org/1999/02/22-rdf-syntax-ns#" xmlns:cc="http://creativecommons.org/ns#" xmlns:dc="http://purl.org/dc/elements/1.1/"><metadata id="metadata5167"><rdf:RDF><cc:Work><dc:format>image/svg+xml</dc:format><dc:type rdf:resource="http://purl.org/dc/dcmitype/StillImage"/></cc:Work></rdf:RDF></metadata><g transform="translate(-125.532 -97.638)" style="display:inline" id="g5297"><path d="m353.478 415.654-48.695 16.522-31.305 73.044 33.044 79.13 18.26-18.26-21.739-63.48 25.218-39.13 17.391 110.435-13.043 45.218 107.826-.87L430 568.698l9.565-104.348 73.044-87.826 16.521-89.565-18.26-5.218-20 77.392-44.348 46.956-55.652 12.174z" style="opacity:1;fill:#143ac8;fill-opacity:1;stroke:none;stroke-width:1px;stroke-linecap:butt;stroke-linejoin:miter;stroke-opacity:1" id="path5195"/><path d="m343.07 556.485 2.97 17.327-3.466 7.92 13.862 14.852 28.217-26.237-26.237-28.218z" style="opacity:1;fill:#40d514;fill-opacity:1;stroke:none;stroke-width:1px;stroke-linecap:butt;stroke-linejoin:miter;stroke-opacity:1" id="path5197"/><path d="m334.158 312.92-16.831-18.316 23.762-26.733 9.406 10.396 3.96-10.89 13.862 8.415 21.287 1.485 11.881-7.426.99 8.416 14.852-9.9 19.802 21.782-18.317 23.762z" style="opacity:1;fill:#d6ac13;fill-opacity:1;stroke:none;stroke-width:1px;stroke-linecap:butt;stroke-linejoin:miter;stroke-opacity:1" id="path5199"/><path d="m339.604 320.842-4.95-6.931 21.287-14.357 42.574.496 20.297 13.86-6.93 7.427z" style="opacity:1;fill:#40d514;fill-opacity:1;stroke:none;stroke-width:1px;stroke-linecap:butt;stroke-linejoin:miter;stroke-opacity:1" id="path5201"/><path d="m341.09 267.871-22.773-25.742-20.792 22.277 10.396 21.782 1.98-.495 7.426 8.416z" style="opacity:1;fill:#143ac8;fill-opacity:1;stroke:none;stroke-width:1px;stroke-linecap:butt;stroke-linejoin:miter;stroke-opacity:1" id="path5203"/><path d="m298.02 263.91-20.297 20.298 6.93 10.396 23.268-7.92z" style="opacity:1;fill:#40d514;fill-opacity:1;stroke:none;stroke-width:1px;stroke-linecap:butt;stroke-linejoin:miter;stroke-opacity:1" id="path5205"/><path d="M278.218 283.713 258.91 302.03l25.247-7.426z" style="opacity:1;fill:#d5133d;fill-opacity:1;stroke:none;stroke-width:1px;stroke-linecap:butt;stroke-linejoin:miter;stroke-opacity:1" id="path5207"/><path d="m354.455 267.376 13.862-37.128h6.435l22.278.495 3.96 39.108-11.881 7.921-21.782-1.485z" style="opacity:1;fill:#143ac8;fill-opacity:1;stroke:none;stroke-width:1px;stroke-linecap:butt;stroke-linejoin:miter;stroke-opacity:1" id="path5209"/><path d="m368.812 229.752 3.96-12.376 23.763 1.485.99 11.387-2.476.495-1.485 21.287-11.88.99-6.436-22.772z" style="opacity:1;fill:#40d514;fill-opacity:1;stroke:none;stroke-width:1px;stroke-linecap:butt;stroke-linejoin:miter;stroke-opacity:1" id="path5211"/><path d="m381.188 252.525 9.901 34.158 2.475-34.158z" style="opacity:1;fill:#d5133d;fill-opacity:1;stroke:none;stroke-width:1px;stroke-linecap:butt;stroke-linejoin:miter;stroke-opacity:1" id="path5213"/><path d="m416.832 268.366 22.277-14.851 20.792 19.307-10.891 15.841-6.436-2.475-4.95 3.465z" style="opacity:1;fill:#143ac8;fill-opacity:1;stroke:none;stroke-width:1px;stroke-linecap:butt;stroke-linejoin:miter;stroke-opacity:1" id="path5215"/><path d="m459.901 273.317 13.366 11.881-5.94 8.91-18.317-5.445z" style="opacity:1;fill:#40d514;fill-opacity:1;stroke:none;stroke-width:1px;stroke-linecap:butt;stroke-linejoin:miter;stroke-opacity:1" id="path5217"/><path d="m472.277 284.703 17.822 15.842-22.772-6.436z" style="opacity:1;fill:#d5133d;fill-opacity:1;stroke:none;stroke-width:1px;stroke-linecap:butt;stroke-linejoin:miter;stroke-opacity:1" id="path5219"/><ellipse style="opacity:1;fill:#f3bd83;fill-opacity:1;stroke:none;stroke-width:.69332153;stroke-miterlimit:4;stroke-dasharray:none;stroke-dashoffset:0;stroke-opacity:1" cx="255.44556" cy="308.46533" rx="7.9741316" ry="7.4790821" id="ellipse5221"/><ellipse style="opacity:1;fill:#f3bd83;fill-opacity:1;stroke:none;stroke-width:.69332153;stroke-miterlimit:4;stroke-dasharray:none;stroke-dashoffset:0;stroke-opacity:1" cx="494.55444" cy="307.47525" rx="7.9741316" ry="7.4790821" id="ellipse5223"/><ellipse style="opacity:1;fill:#f3bd83;fill-opacity:1;stroke:none;stroke-width:.69332153;stroke-miterlimit:4;stroke-dasharray:none;stroke-dashoffset:0;stroke-opacity:1" cx="391.58417" cy="294.60397" rx="7.9741316" ry="7.4790821" id="ellipse5225"/><path d="m343.564 583.713-9.9 33.168 22.772-19.307z" style="opacity:1;fill:#143ac8;fill-opacity:1;stroke:none;stroke-width:1px;stroke-linecap:butt;stroke-linejoin:miter;stroke-opacity:1" id="path5227"/><path d="M310.085 577.552c-4.92 8.033-18.13 20.55-13.03 24.466 5.1 3.916 15.025-12.179 15.025-12.179s-3.349 23.136 4.666 24.08c3.717.439 5.035-20.166 5.035-20.166s7.43 20.079 12.957 18.172c5.527-1.908-7.763-21.939-7.763-21.939s16.89 7.978 19.63 4.154c2.739-3.825-13.76-12.35-13.76-12.35s16.793.95 16.745-4.79c-.049-5.743-33.261-7.678-33.261-7.678z" style="opacity:1;fill:#f8c7c5;fill-opacity:1;stroke:none;stroke-width:.96307653px;stroke-linecap:butt;stroke-linejoin:miter;stroke-opacity:1" id="path5229"/><path d="m292.08 550.545 24.257-8.911 8.415 24.752-18.316 17.822z" style="opacity:1;fill:#d5133d;fill-opacity:1;stroke:none;stroke-width:1px;stroke-linecap:butt;stroke-linejoin:miter;stroke-opacity:1" id="path5231"/><path d="m291.584 550.05-18.317-44.555.99-1.98 33.664 13.366 8.91 24.258z" style="opacity:1;fill:#d6ac13;fill-opacity:1;stroke:none;stroke-width:1px;stroke-linecap:butt;stroke-linejoin:miter;stroke-opacity:1" id="path5233"/><path d="m289.109 470.347 22.277 19.802-8.416 11.386 4.95 14.851-34.158-13.366z" style="opacity:1;fill:#143ac8;fill-opacity:1;stroke:none;stroke-width:1px;stroke-linecap:butt;stroke-linejoin:miter;stroke-opacity:1" id="path5235"/><path d="m306.436 430.743 24.257 27.722-19.802 31.188-22.277-20.297z" style="opacity:1;fill:#40d514;fill-opacity:1;stroke:none;stroke-width:1px;stroke-linecap:butt;stroke-linejoin:miter;stroke-opacity:1" id="path5237"/><path d="m330.198 457.97 29.208 30.693-23.762 22.278-7.921-48.02z" style="opacity:1;fill:#d6ac13;fill-opacity:1;stroke:none;stroke-width:1px;stroke-linecap:butt;stroke-linejoin:miter;stroke-opacity:1" id="path5239"/><rect transform="matrix(.6829 .73052 -.71926 .69474 0 0)" y="32.627346" x="601.71277" height="38.268894" width="36.559895" style="opacity:1;fill:#40d514;fill-opacity:1;stroke:none;stroke-width:.93739909;stroke-miterlimit:4;stroke-dasharray:none;stroke-dashoffset:0;stroke-opacity:1" id="rect5241"/><path d="m385.933 515.974 26.454 27.452-28.023 26.837-25.959-27.947z" style="opacity:1;fill:#143ac8;fill-opacity:1;stroke:none;stroke-width:.9330489;stroke-miterlimit:4;stroke-dashoffset:0;stroke-opacity:1" id="path5243"/><rect transform="matrix(.68546 .72811 -.7217 .6922 0 0)" y="-1.9165424" x="602.41187" height="37.66732" width="35.972248" style="opacity:1;fill:#d5133d;fill-opacity:1;stroke:none;stroke-width:.92249763;stroke-miterlimit:4;stroke-dasharray:none;stroke-dashoffset:0;stroke-opacity:1" id="rect5245"/><path d="m359.93 436.875 26.714 26.417-27.268 26.298-25.723-28.892z" style="opacity:1;fill:#143ac8;fill-opacity:1;stroke:none;stroke-width:.92785919;stroke-miterlimit:4;stroke-dashoffset:0;stroke-opacity:1" id="path5247"/><path d="m411.664 488.543 23.247 25.428-1.257 9.436-21.06 20.822-27.704-28.893z" style="opacity:1;fill:#d6ac13;fill-opacity:1;stroke:none;stroke-width:.92785919;stroke-miterlimit:4;stroke-dashoffset:0;stroke-opacity:1" id="path5249"/><path d="m359.47 487.972-23.742 20.972.268 9.436 22.126 25.011 27.132-27.636z" style="opacity:1;fill:#d5133d;fill-opacity:1;stroke:none;stroke-width:.92785919;stroke-miterlimit:4;stroke-dashoffset:0;stroke-opacity:1" id="path5251"/><path d="m412.376 543.119 17.822 18.317-.495 7.425 1.98 7.426-22.277 21.287-25.743-27.723z" style="opacity:1;fill:#40d514;fill-opacity:1;stroke:none;stroke-width:1px;stroke-linecap:butt;stroke-linejoin:miter;stroke-opacity:1" id="path5253"/><path d="m358.91 542.7-15.346 13.862-6.93-36.634z" style="opacity:1;fill:#d6ac13;fill-opacity:1;stroke:none;stroke-width:1px;stroke-linecap:butt;stroke-linejoin:miter;stroke-opacity:1" id="path5255"/><path d="m356.854 596.013 26.733-26.238 25.248 27.228-19.802 20.297-13.367-.495z" style="opacity:1;fill:#d5133d;fill-opacity:1;stroke:none;stroke-width:1px;stroke-linecap:butt;stroke-linejoin:miter;stroke-opacity:1" id="path5257"/><path d="m409.406 598.07 19.802 20.296 11.386-.495-9.406-41.089z" style="opacity:1;fill:#d6ac13;fill-opacity:1;stroke:none;stroke-width:1px;stroke-linecap:butt;stroke-linejoin:miter;stroke-opacity:1" id="path5259"/><path d="m332.673 617.376 42.575-.495-18.317-19.802z" style="opacity:1;fill:#d6ac13;fill-opacity:1;stroke:none;stroke-width:1px;stroke-linecap:butt;stroke-linejoin:miter;stroke-opacity:1" id="path5261"/><path d="m413.861 436.683 26.733-25.742 23.267 23.762-23.762 30.198z" style="opacity:1;fill:#d6ac13;fill-opacity:1;stroke:none;stroke-width:1px;stroke-linecap:butt;stroke-linejoin:miter;stroke-opacity:1" id="path5263"/><path d="m441.584 406.485-1.485 4.456-26.238 26.237-18.316-19.802z" style="opacity:1;fill:#d5133d;fill-opacity:1;stroke:none;stroke-width:1px;stroke-linecap:butt;stroke-linejoin:miter;stroke-opacity:1" id="path5265"/><path d="m359.406 435.693 20.792-18.317 19.307 4.456 14.851 15.346-27.722 26.733z" style="opacity:1;fill:#40d514;fill-opacity:1;stroke:none;stroke-width:1px;stroke-linecap:butt;stroke-linejoin:miter;stroke-opacity:1" id="path5267"/><path d="m306.93 430.743 48.02-14.852 10.892 15.347-32.674 29.703z" style="opacity:1;fill:#d5133d;fill-opacity:1;stroke:none;stroke-width:1px;stroke-linecap:butt;stroke-linejoin:miter;stroke-opacity:1" id="path5269"/><path d="m466.832 383.713 21.287 20.792-24.753 30.198-23.762-25.248 1.98-2.97 4.456-.99z" style="opacity:1;fill:#143ac8;fill-opacity:1;stroke:none;stroke-width:1px;stroke-linecap:butt;stroke-linejoin:miter;stroke-opacity:1" id="path5271"/><path d="m438.614 463.416-26.238 25.247 22.277 25.743z" style="opacity:1;fill:#143ac8;fill-opacity:1;stroke:none;stroke-width:1px;stroke-linecap:butt;stroke-linejoin:miter;stroke-opacity:1" id="path5273"/><path d="m434.158 523.812-21.287 19.802 17.822 17.327z" style="opacity:1;fill:#d5133d;fill-opacity:1;stroke:none;stroke-width:1px;stroke-linecap:butt;stroke-linejoin:miter;stroke-opacity:1" id="path5275"/><path d="m467.327 384.208 23.267-25.248 1.485-5.445 20.792 22.772-24.752 28.218z" style="opacity:1;fill:#40d514;fill-opacity:1;stroke:none;stroke-width:1px;stroke-linecap:butt;stroke-linejoin:miter;stroke-opacity:1" id="path5277"/><path d="M510.891 280.743c-6.436-7.426-19.802-16.832-15.346-21.783 4.455-4.95 17.326 9.406 17.326 9.406s-9.406-17.821-6.435-20.297c2.97-2.475 13.366 13.862 13.366 13.862s2.475-21.287 8.416-20.297c5.94.99-2.475 23.267-2.475 23.267s14.851-15.842 18.316-12.376c3.466 3.465-10.89 19.802-10.89 19.802s16.831-3.96 17.821 1.98c.99 5.94-27.723 10.396-27.723 10.396z" style="opacity:1;fill:#f8c7c5;fill-opacity:1;stroke:none;stroke-width:1px;stroke-linecap:butt;stroke-linejoin:miter;stroke-opacity:1" id="path5279"/><path d="M339.565 333.046s-1.874 103.48 40 102.608c41.74-.87 32.174-101.739 32.174-101.739z" style="opacity:1;fill:#f8c7c5;fill-opacity:1;stroke:none;stroke-width:1px;stroke-linecap:butt;stroke-linejoin:miter;stroke-opacity:1" id="path5281"/><path transform="matrix(-.99871 .05075 .08582 .99631 0 0)" d="M-352.317 378.092a10.92 3.557 0 0 1-10.864 3.557 10.92 3.557 0 0 1-10.976-3.52 10.92 3.557 0 0 1 10.748-3.593 10.92 3.557 0 0 1 11.09 3.482l-10.919.074z" style="opacity:1;fill:#704729;fill-opacity:1;stroke:none;stroke-width:.6781069;stroke-miterlimit:4;stroke-dasharray:none;stroke-dashoffset:0;stroke-opacity:1" id="path5283"/><path transform="matrix(.99871 .05075 -.08582 .99631 0 0)" d="M399.712 339.785a10.92 3.557 0 0 1-10.863 3.557 10.92 3.557 0 0 1-10.977-3.52 10.92 3.557 0 0 1 10.748-3.593 10.92 3.557 0 0 1 11.09 3.482l-10.918.074z" style="opacity:1;fill:#704729;fill-opacity:1;stroke:none;stroke-width:.6781069;stroke-miterlimit:4;stroke-dasharray:none;stroke-dashoffset:0;stroke-opacity:1" id="path5285"/><path d="m376.074 390.811 7.103-.374-4.481-15.652z" style="opacity:1;fill:#704729;fill-opacity:1;stroke:none;stroke-width:1px;stroke-linecap:butt;stroke-linejoin:miter;stroke-opacity:1" id="path5287"/><path d="M356.91 399.02s6.437 20.792 20.793 19.802c14.356-.99 21.782-19.307 21.782-19.307s-10.89 6.93-20.792 7.426c-9.9.495-21.782-7.921-21.782-7.921z" style="opacity:1;fill:#d7736f;fill-opacity:1;stroke:none;stroke-width:1px;stroke-linecap:butt;stroke-linejoin:miter;stroke-opacity:1" id="path5289"/><rect ry="0" y="321.33664" x="339.8223" height="12.871287" width="72.332474" style="opacity:1;fill:#143ac8;fill-opacity:1;stroke:none;stroke-width:.79220796;stroke-miterlimit:4;stroke-dasharray:none;stroke-dashoffset:0;stroke-opacity:1" id="rect5291"/><path d="m500.495 320.842 19.802 11.386-7.92 43.564-20.298-22.277s8.416-31.774 8.416-32.673z" style="opacity:1;fill:#d5133d;fill-opacity:1;stroke:none;stroke-width:1px;stroke-linecap:butt;stroke-linejoin:miter;stroke-opacity:1" id="path5293"/><path d="m510.891 281.238 17.327 5.445-7.426 45.05-20.297-10.891z" style="opacity:1;fill:#d6ac13;fill-opacity:1;stroke:none;stroke-width:1px;stroke-linecap:butt;stroke-linejoin:miter;stroke-opacity:1" id="path5295"/></g></svg>