<!--Created with Inkscape (http://www.inkscape.org/)--><svg xmlns:dc="http://purl.org/dc/elements/1.1/" xmlns:cc="http://creativecommons.org/ns#" xmlns:rdf="http://www.w3.org/1999/02/22-rdf-syntax-ns#" xmlns="http://www.w3.org/2000/svg" xmlns:xlink="http://www.w3.org/1999/xlink" xmlns:sodipodi="http://sodipodi.sourceforge.net/DTD/sodipodi-0.dtd" xmlns:inkscape="http://www.inkscape.org/namespaces/inkscape" width="520" height="520" inkscape:version="0.92.1 r15371" sodipodi:docname="dn_fond2.svg"><defs><linearGradient id="a"><stop style="stop-color:#2e404a;stop-opacity:1" offset="0"/><stop style="stop-color:#5f8aa1;stop-opacity:1" offset="1"/></linearGradient><linearGradient inkscape:collect="always" xlink:href="#a" id="b" x1="-59.087639" y1="552.18268" x2="841.43665" y2="6.2470913" gradientUnits="userSpaceOnUse" gradientTransform="matrix(.65 0 0 1.00552 0 530.926)"/></defs><sodipodi:namedview pagecolor="#ffffff" bordercolor="#666666" borderopacity="1.0" inkscape:pageopacity="0.0" inkscape:pageshadow="2" inkscape:zoom="0.98994949" inkscape:cx="150.41791" inkscape:cy="218.06944" inkscape:document-units="px" inkscape:current-layer="layer1" showgrid="false" width="800px" inkscape:window-width="1884" inkscape:window-height="1051" inkscape:window-x="0" inkscape:window-y="0" inkscape:window-maximized="1" borderlayer="true"/><metadata><rdf:RDF><cc:Work><dc:format>image/svg+xml</dc:format><dc:type rdf:resource="http://purl.org/dc/dcmitype/StillImage"/><dc:title/></cc:Work></rdf:RDF></metadata><g inkscape:label="Layer 1" inkscape:groupmode="layer" transform="translate(0 -532.362)"><rect style="fill:url(#b);fill-opacity:1;stroke:none;stroke-width:1.61689961;stroke-miterlimit:4;stroke-dasharray:none;stroke-opacity:1" width="520" height="520" y="532.36218" ry="0"/><g style="fill:#fff;fill-opacity:1;stroke:#f2e8bb;stroke-width:7.60963392;stroke-miterlimit:4;stroke-dasharray:none;stroke-opacity:1"><path sodipodi:type="star" style="fill:#fff;fill-opacity:1;stroke:#f2e8bb;stroke-width:9.43613434;stroke-miterlimit:4;stroke-dasharray:none;stroke-opacity:1" sodipodi:sides="4" sodipodi:cx="858.95972" sodipodi:cy="1073.6174" sodipodi:r1="64.593727" sodipodi:r2="17.389902" sodipodi:arg1="0.78539816" sodipodi:arg2="1.5707963" inkscape:flatsided="false" inkscape:rounded="0" inkscape:randomized="0" d="m904.634 1119.292-45.674-28.285-45.675 28.285 28.285-45.675-28.285-45.674 45.675 28.284 45.674-28.284-28.284 45.674z" transform="matrix(.20035 0 0 -.22422 -142.974 1197)"/><path d="m904.634 1119.292-45.674-28.285-45.675 28.285 28.285-45.675-28.285-45.674 45.675 28.284 45.674-28.284-28.284 45.674z" inkscape:randomized="0" inkscape:rounded="0" inkscape:flatsided="false" sodipodi:arg2="1.5707963" sodipodi:arg1="0.78539816" sodipodi:r2="17.389902" sodipodi:r1="64.593727" sodipodi:cy="1073.6174" sodipodi:cx="858.95972" sodipodi:sides="4" style="fill:#fff;fill-opacity:1;stroke:#f2e8bb;stroke-width:7.60963392;stroke-miterlimit:4;stroke-dasharray:none;stroke-opacity:1" sodipodi:type="star" transform="scale(.24844 -.27804) rotate(45 5935.628 -2078.203)"/></g><g style="fill:#fff;fill-opacity:1;stroke:#f2e8bb;stroke-width:7.60963392;stroke-miterlimit:4;stroke-dasharray:none;stroke-opacity:1"><path transform="matrix(.20035 0 0 -.22422 -135.387 1068.505)" d="m904.634 1119.292-45.674-28.285-45.675 28.285 28.285-45.675-28.285-45.674 45.675 28.284 45.674-28.284-28.284 45.674z" inkscape:randomized="0" inkscape:rounded="0" inkscape:flatsided="false" sodipodi:arg2="1.5707963" sodipodi:arg1="0.78539816" sodipodi:r2="17.389902" sodipodi:r1="64.593727" sodipodi:cy="1073.6174" sodipodi:cx="858.95972" sodipodi:sides="4" style="fill:#fff;fill-opacity:1;stroke:#f2e8bb;stroke-width:9.43613434;stroke-miterlimit:4;stroke-dasharray:none;stroke-opacity:1" sodipodi:type="star"/><path transform="scale(.24844 -.27804) rotate(45 5393.047 -1810.275)" sodipodi:type="star" style="fill:#fff;fill-opacity:1;stroke:#f2e8bb;stroke-width:7.60963392;stroke-miterlimit:4;stroke-dasharray:none;stroke-opacity:1" sodipodi:sides="4" sodipodi:cx="858.95972" sodipodi:cy="1073.6174" sodipodi:r1="64.593727" sodipodi:r2="17.389902" sodipodi:arg1="0.78539816" sodipodi:arg2="1.5707963" inkscape:flatsided="false" inkscape:rounded="0" inkscape:randomized="0" d="m904.634 1119.292-45.674-28.285-45.675 28.285 28.285-45.675-28.285-45.674 45.675 28.284 45.674-28.284-28.284 45.674z"/></g><g style="fill:#fff;fill-opacity:1;stroke:#f2e8bb;stroke-width:7.60963392;stroke-miterlimit:4;stroke-dasharray:none;stroke-opacity:1"><path transform="matrix(.20035 0 0 -.22422 142.568 1210.184)" d="m904.634 1119.292-45.674-28.285-45.675 28.285 28.285-45.675-28.285-45.674 45.675 28.284 45.674-28.284-28.284 45.674z" inkscape:randomized="0" inkscape:rounded="0" inkscape:flatsided="false" sodipodi:arg2="1.5707963" sodipodi:arg1="0.78539816" sodipodi:r2="17.389902" sodipodi:r1="64.593727" sodipodi:cy="1073.6174" sodipodi:cx="858.95972" sodipodi:sides="4" style="fill:#fff;fill-opacity:1;stroke:#f2e8bb;stroke-width:9.43613434;stroke-miterlimit:4;stroke-dasharray:none;stroke-opacity:1" sodipodi:type="star"/><path transform="scale(.24844 -.27804) rotate(45 6567.538 -714.533)" sodipodi:type="star" style="fill:#fff;fill-opacity:1;stroke:#f2e8bb;stroke-width:7.60963392;stroke-miterlimit:4;stroke-dasharray:none;stroke-opacity:1" sodipodi:sides="4" sodipodi:cx="858.95972" sodipodi:cy="1073.6174" sodipodi:r1="64.593727" sodipodi:r2="17.389902" sodipodi:arg1="0.78539816" sodipodi:arg2="1.5707963" inkscape:flatsided="false" inkscape:rounded="0" inkscape:randomized="0" d="m904.634 1119.292-45.674-28.285-45.675 28.285 28.285-45.675-28.285-45.674 45.675 28.284 45.674-28.284-28.284 45.674z"/></g><g style="fill:#fff;fill-opacity:1;stroke:#f2e8bb;stroke-width:7.60963392;stroke-miterlimit:4;stroke-dasharray:none;stroke-opacity:1"><path sodipodi:type="star" style="fill:#fff;fill-opacity:1;stroke:#f2e8bb;stroke-width:9.43613434;stroke-miterlimit:4;stroke-dasharray:none;stroke-opacity:1" sodipodi:sides="4" sodipodi:cx="858.95972" sodipodi:cy="1073.6174" sodipodi:r1="64.593727" sodipodi:r2="17.389902" sodipodi:arg1="0.78539816" sodipodi:arg2="1.5707963" inkscape:flatsided="false" inkscape:rounded="0" inkscape:randomized="0" d="m904.634 1119.292-45.674-28.285-45.675 28.285 28.285-45.675-28.285-45.674 45.675 28.284 45.674-28.284-28.284 45.674z" transform="matrix(.19682 .03743 .0419 -.22028 207.948 1139.91)"/><path d="m904.634 1119.292-45.674-28.285-45.675 28.285 28.285-45.675-28.285-45.674 45.675 28.284 45.674-28.284-28.284 45.674z" inkscape:randomized="0" inkscape:rounded="0" inkscape:flatsided="false" sodipodi:arg2="1.5707963" sodipodi:arg1="0.78539816" sodipodi:r2="17.389902" sodipodi:r1="64.593727" sodipodi:cy="1073.6174" sodipodi:cx="858.95972" sodipodi:sides="4" style="fill:#fff;fill-opacity:1;stroke:#f2e8bb;stroke-width:7.60963392;stroke-miterlimit:4;stroke-dasharray:none;stroke-opacity:1" sodipodi:type="star" transform="matrix(.20931 -.16032 -.13584 -.22597 388.041 1315.885)"/></g><g style="fill:#fff;fill-opacity:1;stroke:#f2e8bb;stroke-width:7.6096344;stroke-miterlimit:4;stroke-dasharray:none;stroke-opacity:1"><path sodipodi:type="star" style="fill:#fff;fill-opacity:1;stroke:#f2e8bb;stroke-width:9.43613529;stroke-miterlimit:4;stroke-dasharray:none;stroke-opacity:1" sodipodi:sides="4" sodipodi:cx="858.95972" sodipodi:cy="1073.6174" sodipodi:r1="64.593727" sodipodi:r2="17.389902" sodipodi:arg1="0.78539816" sodipodi:arg2="1.5707963" inkscape:flatsided="false" inkscape:rounded="0" inkscape:randomized="0" d="m904.634 1119.292-45.674-28.285-45.675 28.285 28.285-45.675-28.285-45.674 45.675 28.284 45.674-28.284-28.284 45.674z" transform="matrix(-.18816 .0688 .077 .21059 543.93 555.176)"/><path d="m904.634 1119.292-45.674-28.285-45.675 28.285 28.285-45.675-28.285-45.674 45.675 28.284 45.674-28.284-28.284 45.674z" inkscape:randomized="0" inkscape:rounded="0" inkscape:flatsided="false" sodipodi:arg2="1.5707963" sodipodi:arg1="0.78539816" sodipodi:r2="17.389902" sodipodi:r1="64.593727" sodipodi:cy="1073.6174" sodipodi:cx="858.95972" sodipodi:sides="4" style="fill:#fff;fill-opacity:1;stroke:#f2e8bb;stroke-width:7.6096344;stroke-miterlimit:4;stroke-dasharray:none;stroke-opacity:1" sodipodi:type="star" transform="matrix(-.09747 .24498 .2325 .12432 299.075 496.468)"/></g><g style="fill:#fff;fill-opacity:1;stroke:#f2e8bb;stroke-width:7.60963392;stroke-miterlimit:4;stroke-dasharray:none;stroke-opacity:1"><path sodipodi:type="star" style="fill:#fff;fill-opacity:1;stroke:#f2e8bb;stroke-width:9.43613434;stroke-miterlimit:4;stroke-dasharray:none;stroke-opacity:1" sodipodi:sides="4" sodipodi:cx="858.95972" sodipodi:cy="1073.6174" sodipodi:r1="64.593727" sodipodi:r2="17.389902" sodipodi:arg1="0.78539816" sodipodi:arg2="1.5707963" inkscape:flatsided="false" inkscape:rounded="0" inkscape:randomized="0" d="m904.634 1119.292-45.674-28.285-45.675 28.285 28.285-45.675-28.285-45.674 45.675 28.284 45.674-28.284-28.284 45.674z" transform="matrix(-.17275 -.10148 -.11358 .19333 437.14 534.859)"/><path d="m904.634 1119.292-45.674-28.285-45.675 28.285 28.285-45.675-28.285-45.674 45.675 28.284 45.674-28.284-28.284 45.674z" inkscape:randomized="0" inkscape:rounded="0" inkscape:flatsided="false" sodipodi:arg2="1.5707963" sodipodi:arg1="0.78539816" sodipodi:r2="17.389902" sodipodi:r1="64.593727" sodipodi:cy="1073.6174" sodipodi:cx="858.95972" sodipodi:sides="4" style="fill:#fff;fill-opacity:1;stroke:#f2e8bb;stroke-width:7.60963392;stroke-miterlimit:4;stroke-dasharray:none;stroke-opacity:1" sodipodi:type="star" transform="matrix(-.25106 .08053 .05188 .2585 326.766 308.543)"/></g><g style="fill:#fff;fill-opacity:1;stroke:#f2e8bb;stroke-width:7.60963392;stroke-miterlimit:4;stroke-dasharray:none;stroke-opacity:1"><path transform="matrix(-.20035 0 0 .22422 251.785 491.836)" d="m904.634 1119.292-45.674-28.285-45.675 28.285 28.285-45.675-28.285-45.674 45.675 28.284 45.674-28.284-28.284 45.674z" inkscape:randomized="0" inkscape:rounded="0" inkscape:flatsided="false" sodipodi:arg2="1.5707963" sodipodi:arg1="0.78539816" sodipodi:r2="17.389902" sodipodi:r1="64.593727" sodipodi:cy="1073.6174" sodipodi:cx="858.95972" sodipodi:sides="4" style="fill:#fff;fill-opacity:1;stroke:#f2e8bb;stroke-width:9.43613434;stroke-miterlimit:4;stroke-dasharray:none;stroke-opacity:1" sodipodi:type="star"/><path transform="matrix(-.17567 .1966 .17567 .1966 41.983 352.61)" sodipodi:type="star" style="fill:#fff;fill-opacity:1;stroke:#f2e8bb;stroke-width:7.60963392;stroke-miterlimit:4;stroke-dasharray:none;stroke-opacity:1" sodipodi:sides="4" sodipodi:cx="858.95972" sodipodi:cy="1073.6174" sodipodi:r1="64.593727" sodipodi:r2="17.389902" sodipodi:arg1="0.78539816" sodipodi:arg2="1.5707963" inkscape:flatsided="false" inkscape:rounded="0" inkscape:randomized="0" d="m904.634 1119.292-45.674-28.285-45.675 28.285 28.285-45.675-28.285-45.674 45.675 28.284 45.674-28.284-28.284 45.674z"/></g><path inkscape:connector-curvature="0" d="M450.423 563.428c21.185 8.904 36.063 29.88 36.063 54.302 0 32.499-26.332 58.83-58.83 58.83-20.237 0-38.123-10.213-48.713-25.767a58.871 58.871 0 0 0 22.826 4.588c32.5 0 58.831-26.331 58.831-58.83 0-12.265-3.76-23.697-10.177-33.123z" style="fill:#fff;fill-opacity:1;stroke:none;stroke-width:2;stroke-miterlimit:4;stroke-dasharray:none;stroke-opacity:1"/><g style="fill:#fff;fill-opacity:1;stroke:#f2e8bb;stroke-width:7.6096344;stroke-miterlimit:4;stroke-dasharray:none;stroke-opacity:1"><path sodipodi:type="star" style="fill:#fff;fill-opacity:1;stroke:#f2e8bb;stroke-width:9.43613529;stroke-miterlimit:4;stroke-dasharray:none;stroke-opacity:1" sodipodi:sides="4" sodipodi:cx="858.95972" sodipodi:cy="1073.6174" sodipodi:r1="64.593727" sodipodi:r2="17.389902" sodipodi:arg1="0.78539816" sodipodi:arg2="1.5707963" inkscape:flatsided="false" inkscape:rounded="0" inkscape:randomized="0" d="m904.634 1119.292-45.674-28.285-45.675 28.285 28.285-45.675-28.285-45.674 45.675 28.284 45.674-28.284-28.284 45.674z" transform="matrix(.16968 .11922 -.10652 .1899 125.573 605.213)"/><path d="m904.634 1119.292-45.674-28.285-45.675 28.285 28.285-45.675-28.285-45.674 45.675 28.284 45.674-28.284-28.284 45.674z" inkscape:randomized="0" inkscape:rounded="0" inkscape:flatsided="false" sodipodi:arg2="1.5707963" sodipodi:arg1="0.78539816" sodipodi:r2="17.389902" sodipodi:r1="64.593727" sodipodi:cy="1073.6174" sodipodi:cx="858.95972" sodipodi:sides="4" style="fill:#fff;fill-opacity:1;stroke:#f2e8bb;stroke-width:7.6096344;stroke-miterlimit:4;stroke-dasharray:none;stroke-opacity:1" sodipodi:type="star" transform="matrix(.05538 .27105 -.24219 .06198 369.406 612.138)"/></g><g style="fill:#fff;fill-opacity:1;stroke:#f2e8bb;stroke-width:7.60963392;stroke-miterlimit:4;stroke-dasharray:none;stroke-opacity:1"><path sodipodi:type="star" style="fill:#fff;fill-opacity:1;stroke:#f2e8bb;stroke-width:9.43613434;stroke-miterlimit:4;stroke-dasharray:none;stroke-opacity:1" sodipodi:sides="4" sodipodi:cx="858.95972" sodipodi:cy="1073.6174" sodipodi:r1="64.593727" sodipodi:r2="17.389902" sodipodi:arg1="0.78539816" sodipodi:arg2="1.5707963" inkscape:flatsided="false" inkscape:rounded="0" inkscape:randomized="0" d="m904.634 1119.292-45.674-28.285-45.675 28.285 28.285-45.675-28.285-45.674 45.675 28.284 45.674-28.284-28.284 45.674z" transform="matrix(.20035 0 0 .22422 43.137 754.888)"/><path d="m904.634 1119.292-45.674-28.285-45.675 28.285 28.285-45.675-28.285-45.674 45.675 28.284 45.674-28.284-28.284 45.674z" inkscape:randomized="0" inkscape:rounded="0" inkscape:flatsided="false" sodipodi:arg2="1.5707963" sodipodi:arg1="0.78539816" sodipodi:r2="17.389902" sodipodi:r1="64.593727" sodipodi:cy="1073.6174" sodipodi:cx="858.95972" sodipodi:sides="4" style="fill:#fff;fill-opacity:1;stroke:#f2e8bb;stroke-width:7.60963392;stroke-miterlimit:4;stroke-dasharray:none;stroke-opacity:1" sodipodi:type="star" transform="matrix(.17567 .1966 -.17567 .1966 252.94 615.662)"/></g><g style="fill:#fff;fill-opacity:1;stroke:#f2e8bb;stroke-width:7.6096344;stroke-miterlimit:4;stroke-dasharray:none;stroke-opacity:1"><path sodipodi:type="star" style="fill:#fff;fill-opacity:1;stroke:#f2e8bb;stroke-width:9.43613529;stroke-miterlimit:4;stroke-dasharray:none;stroke-opacity:1" sodipodi:sides="4" sodipodi:cx="858.95972" sodipodi:cy="1073.6174" sodipodi:r1="64.593727" sodipodi:r2="17.389902" sodipodi:arg1="0.78539816" sodipodi:arg2="1.5707963" inkscape:flatsided="false" inkscape:rounded="0" inkscape:randomized="0" d="m904.634 1119.292-45.674-28.285-45.675 28.285 28.285-45.675-28.285-45.674 45.675 28.284 45.674-28.284-28.284 45.674z" transform="matrix(.16968 -.11922 -.10652 -.1899 34.12 885.8)"/><path d="m904.634 1119.292-45.674-28.285-45.675 28.285 28.285-45.675-28.285-45.674 45.675 28.284 45.674-28.284-28.284 45.674z" inkscape:randomized="0" inkscape:rounded="0" inkscape:flatsided="false" sodipodi:arg2="1.5707963" sodipodi:arg1="0.78539816" sodipodi:r2="17.389902" sodipodi:r1="64.593727" sodipodi:cy="1073.6174" sodipodi:cx="858.95972" sodipodi:sides="4" style="fill:#fff;fill-opacity:1;stroke:#f2e8bb;stroke-width:7.6096344;stroke-miterlimit:4;stroke-dasharray:none;stroke-opacity:1" sodipodi:type="star" transform="matrix(.05538 -.27105 -.24219 -.06198 277.952 878.875)"/></g><path style="fill:#fff;fill-opacity:1;fill-rule:nonzero;stroke:#f2e8bb;stroke-width:3;stroke-miterlimit:4;stroke-opacity:1" inkscape:transform-center-x="1.018605" inkscape:transform-center-y="-12.697195" d="m345.601 899.715-78.168-55.825-79.268 58.68 30.142-95.121-75.55-56.425 95.195-2.204 29.249-95.098 31.537 94.942 99.113-1.293-80.491 56.423z" inkscape:connector-curvature="0" sodipodi:nodetypes="ccccccccccc"/></g></svg>