<!--Created with Inkscape (http://www.inkscape.org/)--><svg xmlns:dc="http://purl.org/dc/elements/1.1/" xmlns:cc="http://creativecommons.org/ns#" xmlns:rdf="http://www.w3.org/1999/02/22-rdf-syntax-ns#" xmlns="http://www.w3.org/2000/svg" xmlns:sodipodi="http://sodipodi.sourceforge.net/DTD/sodipodi-0.dtd" xmlns:inkscape="http://www.inkscape.org/namespaces/inkscape" width="520" height="523.27063" inkscape:version="0.92.1 r15371" sodipodi:docname="epouvantail1.svg"><sodipodi:namedview pagecolor="#ffffff" bordercolor="#666666" borderopacity="1.0" inkscape:pageopacity="0.0" inkscape:pageshadow="2" inkscape:zoom="0.88" inkscape:cx="33.360053" inkscape:cy="212.31394" inkscape:document-units="px" inkscape:current-layer="layer2" showgrid="false" inkscape:window-width="1884" inkscape:window-height="1051" inkscape:window-x="0" inkscape:window-y="0" inkscape:window-maximized="1" fit-margin-top="0" fit-margin-left="0" fit-margin-right="0" fit-margin-bottom="0"/><metadata><rdf:RDF><cc:Work><dc:format>image/svg+xml</dc:format><dc:type rdf:resource="http://purl.org/dc/dcmitype/StillImage"/><dc:title/></cc:Work></rdf:RDF></metadata><g style="display:inline"><rect style="fill:#52b9ed;fill-opacity:1;stroke:none" width="800" height="525.68182" x="-20.580641" y="412.03958" ry="0" inkscape:label="Calque 1" inkscape:groupmode="layer" transform="translate(-129.42 -412.04)"/></g><g inkscape:groupmode="layer" inkscape:label="Fond" style="display:inline"><path sodipodi:nodetypes="czcccc" inkscape:connector-curvature="0" d="M810.14 596.542c-7.34-2.234-10.582-4.2-14.217-11.856-3.634-7.657-.424-15.13 2.085-18.26 2.863.635 4.668 3.255 7.056 4.768 3.83 3.206 6.816 7.891 6.456 13.059.094 4.136-.537 8.25-1.38 12.289z" style="fill:#119e07;fill-opacity:1;stroke:#007d00;stroke-width:1px;stroke-linecap:butt;stroke-linejoin:miter;stroke-opacity:1" transform="translate(-359.42 -83.772)"/><path sodipodi:nodetypes="czcccc" inkscape:connector-curvature="0" d="M819.937 570.03c2.313-5.97 4.239-8.576 11.432-11.333 7.194-2.757 13.986.109 16.791 2.267-.684 2.335-3.165 3.74-4.643 5.658-3.091 3.054-7.519 5.367-12.278 4.915-3.823-.049-7.601-.692-11.302-1.508z" style="display:inline;fill:#119e07;fill-opacity:1;stroke:#007d00;stroke-width:.87203044px;stroke-linecap:butt;stroke-linejoin:miter;stroke-opacity:1" transform="translate(-359.42 -83.772)"/><path sodipodi:nodetypes="csc" inkscape:connector-curvature="0" d="M810.14 519.27c-5.595-16.784-24.124-24.103-27.972-17.483-7.63 13.124 27.972 17.482 27.972 17.482z" style="fill:#f50a07;fill-opacity:1;stroke:#e20000;stroke-width:1px;stroke-linecap:butt;stroke-linejoin:miter;stroke-opacity:.91187738" transform="translate(-359.42 -83.772)"/><path sodipodi:nodetypes="csc" inkscape:connector-curvature="0" d="M814.752 513.516c2.876-17.456-10.103-32.57-16.594-28.508-12.869 8.052 16.594 28.508 16.594 28.508z" style="display:inline;fill:#f50a07;fill-opacity:1;stroke:#e20000;stroke-width:1px;stroke-linecap:butt;stroke-linejoin:miter;stroke-opacity:.91187738" transform="translate(-359.42 -83.772)"/><path sodipodi:nodetypes="csc" inkscape:connector-curvature="0" d="M820.748 512.663c12.2-12.81 9.978-32.608 2.326-32.904-15.17-.585-2.326 32.904-2.326 32.904z" style="display:inline;fill:#f50a07;fill-opacity:1;stroke:#e20000;stroke-width:1px;stroke-linecap:butt;stroke-linejoin:miter;stroke-opacity:.91187738" transform="translate(-359.42 -83.772)"/><path sodipodi:nodetypes="csc" inkscape:connector-curvature="0" d="M828.489 515.86c17.01-4.858 25.131-23.05 18.685-27.184-12.779-8.194-18.685 27.183-18.685 27.183z" style="display:inline;fill:#f50a07;fill-opacity:1;stroke:#e20000;stroke-width:1px;stroke-linecap:butt;stroke-linejoin:miter;stroke-opacity:.91187738" transform="translate(-359.42 -83.772)"/><path sodipodi:nodetypes="csc" inkscape:connector-curvature="0" d="M809.335 524.846c-14.724-9.808-33.842-4.202-32.812 3.386 2.041 15.043 32.812-3.386 32.812-3.386z" style="display:inline;fill:#f50a07;fill-opacity:1;stroke:#e20000;stroke-width:1px;stroke-linecap:butt;stroke-linejoin:miter;stroke-opacity:.91187738" transform="translate(-359.42 -83.772)"/><path sodipodi:nodetypes="csc" inkscape:connector-curvature="0" d="M812.667 529.506c-17.677.718-29.85 16.489-24.558 22.023 10.492 10.971 24.558-22.023 24.558-22.023z" style="display:inline;fill:#f50a07;fill-opacity:1;stroke:#e20000;stroke-width:1px;stroke-linecap:butt;stroke-linejoin:miter;stroke-opacity:.91187738" transform="translate(-359.42 -83.772)"/><path sodipodi:nodetypes="csc" inkscape:connector-curvature="0" d="M818.455 531.481c-14.533 10.089-16.346 29.929-8.91 31.76 14.74 3.63 8.91-31.76 8.91-31.76z" style="display:inline;fill:#f50a07;fill-opacity:1;stroke:#e20000;stroke-width:1px;stroke-linecap:butt;stroke-linejoin:miter;stroke-opacity:.91187738" transform="translate(-359.42 -83.772)"/><path sodipodi:nodetypes="csc" inkscape:connector-curvature="0" d="M827.798 528.229c5.951 16.66 24.633 23.582 28.339 16.881 7.347-13.284-28.339-16.881-28.339-16.881z" style="display:inline;fill:#f50a07;fill-opacity:1;stroke:#e20000;stroke-width:1px;stroke-linecap:butt;stroke-linejoin:miter;stroke-opacity:.91187738" transform="translate(-359.42 -83.772)"/><path sodipodi:nodetypes="csc" inkscape:connector-curvature="0" d="M830.064 521.71c15.573 8.393 34.085 1.032 32.353-6.427-3.433-14.788-32.353 6.427-32.353 6.427z" style="display:inline;fill:#f50a07;fill-opacity:1;stroke:#e20000;stroke-width:1px;stroke-linecap:butt;stroke-linejoin:miter;stroke-opacity:.91187738" transform="translate(-359.42 -83.772)"/><path inkscape:connector-curvature="0" d="M797.902 566.472c3.497 6.993 12.238 30.77 12.238 30.77" style="fill:none;stroke:#006000;stroke-width:1px;stroke-linecap:butt;stroke-linejoin:miter;stroke-opacity:1" transform="translate(-359.42 -83.772)"/><path sodipodi:nodetypes="ccc" inkscape:connector-curvature="0" d="m795.105 573.115 7.343 4.196 3.496-4.545" style="fill:none;stroke:#006000;stroke-width:1px;stroke-linecap:butt;stroke-linejoin:miter;stroke-opacity:1" transform="translate(-359.42 -83.772)"/><path inkscape:connector-curvature="0" d="m810.84 579.759-4.896 5.245-10.49-3.147" style="fill:none;stroke:#006000;stroke-width:1px;stroke-linecap:butt;stroke-linejoin:miter;stroke-opacity:1" transform="translate(-359.42 -83.772)"/><path inkscape:connector-curvature="0" d="m811.538 586.752-3.146 4.545-10.14-2.447" style="fill:none;stroke:#006000;stroke-width:1px;stroke-linecap:butt;stroke-linejoin:miter;stroke-opacity:1" transform="translate(-359.42 -83.772)"/><path inkscape:connector-curvature="0" d="M819.93 569.619c11.539-7.343 27.622-9.091 27.622-9.091" style="fill:none;stroke:#006000;stroke-width:1px;stroke-linecap:butt;stroke-linejoin:miter;stroke-opacity:1" transform="translate(-359.42 -83.772)"/><path inkscape:connector-curvature="0" d="m830.07 571.018-5.594-3.847 3.496-6.643" style="fill:none;stroke:#006000;stroke-width:1px;stroke-linecap:butt;stroke-linejoin:miter;stroke-opacity:1" transform="translate(-359.42 -83.772)"/><path inkscape:connector-curvature="0" d="m838.462 570.318-6.993-6.293 2.797-6.294" style="fill:none;stroke:#006000;stroke-width:1px;stroke-linecap:butt;stroke-linejoin:miter;stroke-opacity:1" transform="translate(-359.42 -83.772)"/><path inkscape:connector-curvature="0" d="m843.706 566.122-4.545-3.496 1.748-4.895" style="fill:none;stroke:#006000;stroke-width:1px;stroke-linecap:butt;stroke-linejoin:miter;stroke-opacity:1" transform="translate(-359.42 -83.772)"/><path sodipodi:nodetypes="csc" inkscape:connector-curvature="0" d="M822.024 532.962c-1.03 17.661 13.462 31.331 19.492 26.611 11.953-9.358-19.492-26.61-19.492-26.61z" style="display:inline;fill:#f50a07;fill-opacity:1;stroke:#e20000;stroke-width:1px;stroke-linecap:butt;stroke-linejoin:miter;stroke-opacity:.91187738" transform="translate(-359.42 -83.772)"/><path inkscape:connector-curvature="0" d="M807.692 623.465c.35-14.336 0-16.433 5.245-29.02 5.245-12.588 4.895-24.826 6.294-33.567 1.398-8.742 1.748-29.021 1.748-29.021" style="fill:none;stroke:#006f00;stroke-width:4;stroke-linecap:butt;stroke-linejoin:miter;stroke-miterlimit:4;stroke-dasharray:none;stroke-opacity:1" transform="translate(-359.42 -83.772)"/><path sodipodi:end="6.2622978" sodipodi:start="0" d="M830.77 522.067a10.84 10.14 0 0 1-10.783 10.14 10.84 10.14 0 0 1-10.896-10.035 10.84 10.14 0 0 1 10.67-10.244 10.84 10.14 0 0 1 11.006 9.927l-10.837.212z" sodipodi:ry="10.13986" sodipodi:rx="10.839161" sodipodi:cy="522.06653" sodipodi:cx="819.93005" style="fill:#f5fa07;fill-opacity:1;stroke:none" sodipodi:type="arc" transform="translate(-359.42 -83.772)"/><g style="display:inline"><path sodipodi:nodetypes="czcccc" inkscape:connector-curvature="0" d="M810.14 596.542c-7.34-2.234-10.582-4.2-14.217-11.856-3.634-7.657-.424-15.13 2.085-18.26 2.863.635 4.668 3.255 7.056 4.768 3.83 3.206 6.816 7.891 6.456 13.059.094 4.136-.537 8.25-1.38 12.289z" style="fill:#119e07;fill-opacity:1;stroke:#007d00;stroke-width:1px;stroke-linecap:butt;stroke-linejoin:miter;stroke-opacity:1" transform="matrix(.92554 0 0 .9335 -711.61 -42.576)"/><path sodipodi:nodetypes="czcccc" inkscape:connector-curvature="0" d="M819.937 570.03c2.313-5.97 4.239-8.576 11.432-11.333 7.194-2.757 13.986.109 16.791 2.267-.684 2.335-3.165 3.74-4.643 5.658-3.091 3.054-7.519 5.367-12.278 4.915-3.823-.049-7.601-.692-11.302-1.508z" style="display:inline;fill:#119e07;fill-opacity:1;stroke:#007d00;stroke-width:.87203044px;stroke-linecap:butt;stroke-linejoin:miter;stroke-opacity:1" transform="matrix(.92554 0 0 .9335 -711.61 -42.576)"/><path sodipodi:nodetypes="csc" inkscape:connector-curvature="0" d="M810.14 519.27c-5.595-16.784-24.124-24.103-27.972-17.483-7.63 13.124 27.972 17.482 27.972 17.482z" style="fill:#f50a07;fill-opacity:1;stroke:#e20000;stroke-width:1px;stroke-linecap:butt;stroke-linejoin:miter;stroke-opacity:.91187738" transform="matrix(.92554 0 0 .9335 -711.61 -42.576)"/><path sodipodi:nodetypes="csc" inkscape:connector-curvature="0" d="M814.752 513.516c2.876-17.456-10.103-32.57-16.594-28.508-12.869 8.052 16.594 28.508 16.594 28.508z" style="display:inline;fill:#f50a07;fill-opacity:1;stroke:#e20000;stroke-width:1px;stroke-linecap:butt;stroke-linejoin:miter;stroke-opacity:.91187738" transform="matrix(.92554 0 0 .9335 -711.61 -42.576)"/><path sodipodi:nodetypes="csc" inkscape:connector-curvature="0" d="M820.748 512.663c12.2-12.81 9.978-32.608 2.326-32.904-15.17-.585-2.326 32.904-2.326 32.904z" style="display:inline;fill:#f50a07;fill-opacity:1;stroke:#e20000;stroke-width:1px;stroke-linecap:butt;stroke-linejoin:miter;stroke-opacity:.91187738" transform="matrix(.92554 0 0 .9335 -711.61 -42.576)"/><path sodipodi:nodetypes="csc" inkscape:connector-curvature="0" d="M828.489 515.86c17.01-4.858 25.131-23.05 18.685-27.184-12.779-8.194-18.685 27.183-18.685 27.183z" style="display:inline;fill:#f50a07;fill-opacity:1;stroke:#e20000;stroke-width:1px;stroke-linecap:butt;stroke-linejoin:miter;stroke-opacity:.91187738" transform="matrix(.92554 0 0 .9335 -711.61 -42.576)"/><path sodipodi:nodetypes="csc" inkscape:connector-curvature="0" d="M809.335 524.846c-14.724-9.808-33.842-4.202-32.812 3.386 2.041 15.043 32.812-3.386 32.812-3.386z" style="display:inline;fill:#f50a07;fill-opacity:1;stroke:#e20000;stroke-width:1px;stroke-linecap:butt;stroke-linejoin:miter;stroke-opacity:.91187738" transform="matrix(.92554 0 0 .9335 -711.61 -42.576)"/><path sodipodi:nodetypes="csc" inkscape:connector-curvature="0" d="M812.667 529.506c-17.677.718-29.85 16.489-24.558 22.023 10.492 10.971 24.558-22.023 24.558-22.023z" style="display:inline;fill:#f50a07;fill-opacity:1;stroke:#e20000;stroke-width:1px;stroke-linecap:butt;stroke-linejoin:miter;stroke-opacity:.91187738" transform="matrix(.92554 0 0 .9335 -711.61 -42.576)"/><path sodipodi:nodetypes="csc" inkscape:connector-curvature="0" d="M818.455 531.481c-14.533 10.089-16.346 29.929-8.91 31.76 14.74 3.63 8.91-31.76 8.91-31.76z" style="display:inline;fill:#f50a07;fill-opacity:1;stroke:#e20000;stroke-width:1px;stroke-linecap:butt;stroke-linejoin:miter;stroke-opacity:.91187738" transform="matrix(.92554 0 0 .9335 -711.61 -42.576)"/><path sodipodi:nodetypes="csc" inkscape:connector-curvature="0" d="M827.798 528.229c5.951 16.66 24.633 23.582 28.339 16.881 7.347-13.284-28.339-16.881-28.339-16.881z" style="display:inline;fill:#f50a07;fill-opacity:1;stroke:#e20000;stroke-width:1px;stroke-linecap:butt;stroke-linejoin:miter;stroke-opacity:.91187738" transform="matrix(.92554 0 0 .9335 -711.61 -42.576)"/><path sodipodi:nodetypes="csc" inkscape:connector-curvature="0" d="M830.064 521.71c15.573 8.393 34.085 1.032 32.353-6.427-3.433-14.788-32.353 6.427-32.353 6.427z" style="display:inline;fill:#f50a07;fill-opacity:1;stroke:#e20000;stroke-width:1px;stroke-linecap:butt;stroke-linejoin:miter;stroke-opacity:.91187738" transform="matrix(.92554 0 0 .9335 -711.61 -42.576)"/><path inkscape:connector-curvature="0" d="M797.902 566.472c3.497 6.993 12.238 30.77 12.238 30.77" style="fill:none;stroke:#006000;stroke-width:1px;stroke-linecap:butt;stroke-linejoin:miter;stroke-opacity:1" transform="matrix(.92554 0 0 .9335 -711.61 -42.576)"/><path sodipodi:nodetypes="ccc" inkscape:connector-curvature="0" d="m795.105 573.115 7.343 4.196 3.496-4.545" style="fill:none;stroke:#006000;stroke-width:1px;stroke-linecap:butt;stroke-linejoin:miter;stroke-opacity:1" transform="matrix(.92554 0 0 .9335 -711.61 -42.576)"/><path inkscape:connector-curvature="0" d="m810.84 579.759-4.896 5.245-10.49-3.147" style="fill:none;stroke:#006000;stroke-width:1px;stroke-linecap:butt;stroke-linejoin:miter;stroke-opacity:1" transform="matrix(.92554 0 0 .9335 -711.61 -42.576)"/><path inkscape:connector-curvature="0" d="m811.538 586.752-3.146 4.545-10.14-2.447" style="fill:none;stroke:#006000;stroke-width:1px;stroke-linecap:butt;stroke-linejoin:miter;stroke-opacity:1" transform="matrix(.92554 0 0 .9335 -711.61 -42.576)"/><path inkscape:connector-curvature="0" d="M819.93 569.619c11.539-7.343 27.622-9.091 27.622-9.091" style="fill:none;stroke:#006000;stroke-width:1px;stroke-linecap:butt;stroke-linejoin:miter;stroke-opacity:1" transform="matrix(.92554 0 0 .9335 -711.61 -42.576)"/><path inkscape:connector-curvature="0" d="m830.07 571.018-5.594-3.847 3.496-6.643" style="fill:none;stroke:#006000;stroke-width:1px;stroke-linecap:butt;stroke-linejoin:miter;stroke-opacity:1" transform="matrix(.92554 0 0 .9335 -711.61 -42.576)"/><path inkscape:connector-curvature="0" d="m838.462 570.318-6.993-6.293 2.797-6.294" style="fill:none;stroke:#006000;stroke-width:1px;stroke-linecap:butt;stroke-linejoin:miter;stroke-opacity:1" transform="matrix(.92554 0 0 .9335 -711.61 -42.576)"/><path inkscape:connector-curvature="0" d="m843.706 566.122-4.545-3.496 1.748-4.895" style="fill:none;stroke:#006000;stroke-width:1px;stroke-linecap:butt;stroke-linejoin:miter;stroke-opacity:1" transform="matrix(.92554 0 0 .9335 -711.61 -42.576)"/><path sodipodi:nodetypes="csc" inkscape:connector-curvature="0" d="M822.024 532.962c-1.03 17.661 13.462 31.331 19.492 26.611 11.953-9.358-19.492-26.61-19.492-26.61z" style="display:inline;fill:#f50a07;fill-opacity:1;stroke:#e20000;stroke-width:1px;stroke-linecap:butt;stroke-linejoin:miter;stroke-opacity:.91187738" transform="matrix(.92554 0 0 .9335 -711.61 -42.576)"/><path inkscape:connector-curvature="0" d="M807.692 623.465c.35-14.336 0-16.433 5.245-29.02 5.245-12.588 4.895-24.826 6.294-33.567 1.398-8.742 1.748-29.021 1.748-29.021" style="fill:none;stroke:#006f00;stroke-width:4;stroke-linecap:butt;stroke-linejoin:miter;stroke-miterlimit:4;stroke-dasharray:none;stroke-opacity:1" transform="matrix(.92554 0 0 .9335 -711.61 -42.576)"/><path sodipodi:end="6.2622978" sodipodi:start="0" d="M830.77 522.067a10.84 10.14 0 0 1-10.783 10.14 10.84 10.14 0 0 1-10.896-10.035 10.84 10.14 0 0 1 10.67-10.244 10.84 10.14 0 0 1 11.006 9.927l-10.837.212z" sodipodi:ry="10.13986" sodipodi:rx="10.839161" sodipodi:cy="522.06653" sodipodi:cx="819.93005" style="fill:#f5fa07;fill-opacity:1;stroke:none" sodipodi:type="arc" transform="matrix(.92554 0 0 .9335 -711.61 -42.576)"/></g></g></svg>