<svg viewBox="0 0 64.000003 64" version="1.1" id="svg9239" width="64" height="64" xmlns="http://www.w3.org/2000/svg" xmlns:rdf="http://www.w3.org/1999/02/22-rdf-syntax-ns#" xmlns:cc="http://creativecommons.org/ns#" xmlns:dc="http://purl.org/dc/elements/1.1/"><g style="display:inline;opacity:1;stroke-width:.294935" id="g9235" transform="matrix(3.41829 0 0 3.3631 1.015 .999)"><path style="color:#000;font-style:normal;font-variant:normal;font-weight:400;font-stretch:normal;font-size:medium;line-height:normal;font-family:Sans;-inkscape-font-specification:Sans;text-indent:0;text-align:start;text-decoration:none;text-decoration-line:none;letter-spacing:normal;word-spacing:normal;text-transform:none;writing-mode:lr-tb;direction:ltr;baseline-shift:baseline;text-anchor:start;display:inline;overflow:visible;visibility:visible;opacity:1;fill:#63933e;fill-opacity:1;stroke:none;stroke-width:.294929;stroke-miterlimit:4;stroke-dasharray:none;marker:none;enable-background:accumulate" d="M12.429 1016.547c-2.79.276-5.718 1.333-7.453 3.805-3.413 4.865-3.103 11.451 1.569 15.282 4.671 3.831 12.008 3.827 15.406-1.531 3.236-5.102 3.14-11.575-1.531-15.406-2.336-1.916-5.202-2.426-7.991-2.15zm-.48 1.1c2.533-.25 5.486.547 7.613 2.29 4.254 3.489 3.17 11.2 1.302 13.304-3.651 4.115-9.245 4.765-13.499 1.277-3.526-3.923-4.796-8.926-1.308-13.18 1.744-2.126 3.36-3.44 5.892-3.691z" transform="matrix(-.84261 .0262 .0262 .84261 -6.525 -856.85)" id="path9231"/><circle style="fill:#85c751;fill-opacity:1;fill-rule:nonzero;stroke:#63933e;stroke-width:.256364;stroke-miterlimit:4;stroke-dasharray:none;stroke-opacity:1" transform="matrix(.97992 0 0 .95984 .348 .699)" id="path9233" cx="8.7036381" cy="8.7607336" r="8.6342859"/></g><metadata id="metadata9237"><rdf:RDF><cc:Work><dc:format>image/svg+xml</dc:format><dc:type rdf:resource="http://purl.org/dc/dcmitype/StillImage"/><cc:license rdf:resource="http://creativecommons.org/publicdomain/zero/1.0/"/><dc:publisher><cc:Agent rdf:about="http://openclipart.org/"><dc:title>Openclipart</dc:title></cc:Agent></dc:publisher><dc:date>2012-03-23T13:52:34</dc:date><dc:description>Map, Marker, Pin, Pushpin, clip art, clipart, green,</dc:description><dc:source>http://openclipart.org/detail/169048/green-map-marker-by-mightyman</dc:source><dc:creator><cc:Agent><dc:title>mightyman</dc:title></cc:Agent></dc:creator><dc:subject><rdf:Bag><rdf:li>Map</rdf:li><rdf:li>Marker</rdf:li><rdf:li>Pin</rdf:li><rdf:li>Pushpin</rdf:li><rdf:li>clip art</rdf:li><rdf:li>clipart</rdf:li><rdf:li>green</rdf:li></rdf:Bag></dc:subject></cc:Work><cc:License rdf:about="http://creativecommons.org/publicdomain/zero/1.0/"><cc:permits rdf:resource="http://creativecommons.org/ns#Reproduction"/><cc:permits rdf:resource="http://creativecommons.org/ns#Distribution"/><cc:permits rdf:resource="http://creativecommons.org/ns#DerivativeWorks"/></cc:License></rdf:RDF></metadata></svg>