<?xml version="1.0" encoding="UTF-8" standalone="no"?>
<!-- Created with Inkscape (http://www.inkscape.org/) -->

<svg
   xmlns:dc="http://purl.org/dc/elements/1.1/"
   xmlns:cc="http://creativecommons.org/ns#"
   xmlns:rdf="http://www.w3.org/1999/02/22-rdf-syntax-ns#"
   xmlns:svg="http://www.w3.org/2000/svg"
   xmlns="http://www.w3.org/2000/svg"
   xmlns:sodipodi="http://sodipodi.sourceforge.net/DTD/sodipodi-0.dtd"
   xmlns:inkscape="http://www.inkscape.org/namespaces/inkscape"
   width="800"
   height="520"
   id="svg2"
   version="1.1"
   inkscape:version="0.48.3.1 r9886"
   sodipodi:docname="sapin1.svg">
  <defs
     id="defs4" />
  <sodipodi:namedview
     id="base"
     pagecolor="#ffffff"
     bordercolor="#666666"
     borderopacity="1.0"
     inkscape:pageopacity="0.0"
     inkscape:pageshadow="2"
     inkscape:zoom="0.76"
     inkscape:cx="319.75388"
     inkscape:cy="253.20268"
     inkscape:document-units="px"
     inkscape:current-layer="layer2"
     showgrid="false"
     inkscape:window-width="1920"
     inkscape:window-height="1145"
     inkscape:window-x="-3"
     inkscape:window-y="-3"
     inkscape:window-maximized="1"
     fit-margin-top="0"
     fit-margin-left="0"
     fit-margin-right="0"
     fit-margin-bottom="0" />
  <metadata
     id="metadata7">
    <rdf:RDF>
      <cc:Work
         rdf:about="">
        <dc:format>image/svg+xml</dc:format>
        <dc:type
           rdf:resource="http://purl.org/dc/dcmitype/StillImage" />
        <dc:title></dc:title>
      </cc:Work>
    </rdf:RDF>
  </metadata>
  <g
     inkscape:label="Calque 1"
     inkscape:groupmode="layer"
     id="layer1"
     transform="translate(-146.05264,-456.94113)"
     style="display:inline">
    <rect
       style="fill:#b82900;fill-opacity:1;stroke:none"
       id="rect4085"
       width="800"
       height="520"
       x="146.05264"
       y="456.94113" />
    <path
       sodipodi:type="star"
       style="fill:#f6fb09;fill-opacity:1;stroke:none"
       id="path3997"
       sodipodi:sides="5"
       sodipodi:cx="371.71054"
       sodipodi:cy="166.46291"
       sodipodi:r1="10.70975"
       sodipodi:r2="5.4611964"
       sodipodi:arg1="0.82884906"
       sodipodi:arg2="1.4571676"
       inkscape:flatsided="false"
       inkscape:rounded="0"
       inkscape:randomized="0"
       d="m 378.94738,174.35764 -6.61762,-2.46876 -5.89125,3.89628 0.30297,-7.05663 -5.52608,-4.39889 6.80488,-1.89248 2.47594,-6.61494 3.90268,5.88701 7.05629,0.31064 -4.39289,5.53085 z"
       transform="translate(59.210526,322.08349)"
       inkscape:transform-center-x="0.37524501"
       inkscape:transform-center-y="-0.65921582" />
    <path
       sodipodi:type="star"
       style="fill:#f6fb09;fill-opacity:1;stroke:none"
       id="path3997-8"
       sodipodi:sides="5"
       sodipodi:cx="371.71054"
       sodipodi:cy="166.46291"
       sodipodi:r1="10.70975"
       sodipodi:r2="5.4611964"
       sodipodi:arg1="0.82884906"
       sodipodi:arg2="1.4571676"
       inkscape:flatsided="false"
       inkscape:rounded="0"
       inkscape:randomized="0"
       d="m 378.94738,174.35764 -6.61762,-2.46876 -5.89125,3.89628 0.30297,-7.05663 -5.52608,-4.39889 6.80488,-1.89248 2.47594,-6.61494 3.90268,5.88701 7.05629,0.31064 -4.39289,5.53085 z"
       transform="matrix(1.9751507,0,0,2.02163,28.398923,168.81321)"
       inkscape:transform-center-x="0.7411799"
       inkscape:transform-center-y="-1.332685" />
    <path
       sodipodi:type="star"
       style="fill:#f6fb09;fill-opacity:1;stroke:none"
       id="path3997-7"
       sodipodi:sides="5"
       sodipodi:cx="371.71054"
       sodipodi:cy="166.46291"
       sodipodi:r1="10.70975"
       sodipodi:r2="5.4611964"
       sodipodi:arg1="0.82884906"
       sodipodi:arg2="1.4571676"
       inkscape:flatsided="false"
       inkscape:rounded="0"
       inkscape:randomized="0"
       d="m 378.94738,174.35764 -6.61762,-2.46876 -5.89125,3.89628 0.30297,-7.05663 -5.52608,-4.39889 6.80488,-1.89248 2.47594,-6.61494 3.90268,5.88701 7.05629,0.31064 -4.39289,5.53085 z"
       transform="matrix(1.1950301,0,0,1.2306906,266.11155,480.87492)"
       inkscape:transform-center-x="0.44844344"
       inkscape:transform-center-y="-0.81129958" />
    <path
       sodipodi:type="star"
       style="fill:#f6fb09;fill-opacity:1;stroke:none"
       id="path3997-4"
       sodipodi:sides="5"
       sodipodi:cx="371.71054"
       sodipodi:cy="166.46291"
       sodipodi:r1="10.70975"
       sodipodi:r2="5.4611964"
       sodipodi:arg1="0.82884906"
       sodipodi:arg2="1.4571676"
       inkscape:flatsided="false"
       inkscape:rounded="0"
       inkscape:randomized="0"
       d="m 378.94738,174.35764 -6.61762,-2.46876 -5.89125,3.89628 0.30297,-7.05663 -5.52608,-4.39889 6.80488,-1.89248 2.47594,-6.61494 3.90268,5.88701 7.05629,0.31064 -4.39289,5.53085 z"
       transform="translate(443.13839,453.00586)"
       inkscape:transform-center-x="0.37524501"
       inkscape:transform-center-y="-0.65921582" />
    <path
       sodipodi:type="star"
       style="fill:#f6fb09;fill-opacity:1;stroke:none"
       id="path3997-0"
       sodipodi:sides="5"
       sodipodi:cx="371.71054"
       sodipodi:cy="166.46291"
       sodipodi:r1="10.70975"
       sodipodi:r2="5.4611964"
       sodipodi:arg1="0.82884906"
       sodipodi:arg2="1.4571676"
       inkscape:flatsided="false"
       inkscape:rounded="0"
       inkscape:randomized="0"
       d="m 378.94738,174.35764 -6.61762,-2.46876 -5.89125,3.89628 0.30297,-7.05663 -5.52608,-4.39889 6.80488,-1.89248 2.47594,-6.61494 3.90268,5.88701 7.05629,0.31064 -4.39289,5.53085 z"
       transform="matrix(1.8126256,0,0,1.7250277,171.97392,520.95148)"
       inkscape:transform-center-x="0.6801854"
       inkscape:transform-center-y="-1.1371696" />
    <path
       sodipodi:type="star"
       style="fill:#f6fb09;fill-opacity:1;stroke:none"
       id="path3997-6"
       sodipodi:sides="5"
       sodipodi:cx="371.71054"
       sodipodi:cy="166.46291"
       sodipodi:r1="10.70975"
       sodipodi:r2="5.4611964"
       sodipodi:arg1="0.82884906"
       sodipodi:arg2="1.4571676"
       inkscape:flatsided="false"
       inkscape:rounded="0"
       inkscape:randomized="0"
       d="m 378.94738,174.35764 -6.61762,-2.46876 -5.89125,3.89628 0.30297,-7.05663 -5.52608,-4.39889 6.80488,-1.89248 2.47594,-6.61494 3.90268,5.88701 7.05629,0.31064 -4.39289,5.53085 z"
       transform="translate(-61.466875,662.87429)"
       inkscape:transform-center-x="0.37524501"
       inkscape:transform-center-y="-0.65921582" />
    <path
       sodipodi:type="star"
       style="fill:#f6fb09;fill-opacity:1;stroke:none"
       id="path3997-3"
       sodipodi:sides="5"
       sodipodi:cx="371.71054"
       sodipodi:cy="166.46291"
       sodipodi:r1="10.70975"
       sodipodi:r2="5.4611964"
       sodipodi:arg1="0.82884906"
       sodipodi:arg2="1.4571676"
       inkscape:flatsided="false"
       inkscape:rounded="0"
       inkscape:randomized="0"
       d="m 378.94738,174.35764 -6.61762,-2.46876 -5.89125,3.89628 0.30297,-7.05663 -5.52608,-4.39889 6.80488,-1.89248 2.47594,-6.61494 3.90268,5.88701 7.05629,0.31064 -4.39289,5.53085 z"
       transform="translate(-155.54582,570.11112)"
       inkscape:transform-center-x="0.37524501"
       inkscape:transform-center-y="-0.65921582" />
    <path
       sodipodi:type="star"
       style="fill:#f6fb09;fill-opacity:1;stroke:none"
       id="path3997-82"
       sodipodi:sides="5"
       sodipodi:cx="371.71054"
       sodipodi:cy="166.46291"
       sodipodi:r1="10.70975"
       sodipodi:r2="5.4611964"
       sodipodi:arg1="0.82884906"
       sodipodi:arg2="1.4571676"
       inkscape:flatsided="false"
       inkscape:rounded="0"
       inkscape:randomized="0"
       d="m 378.94738,174.35764 -6.61762,-2.46876 -5.89125,3.89628 0.30297,-7.05663 -5.52608,-4.39889 6.80488,-1.89248 2.47594,-6.61494 3.90268,5.88701 7.05629,0.31064 -4.39289,5.53085 z"
       transform="matrix(2.267696,0,0,2.1534532,-486.48344,263.4038)"
       inkscape:transform-center-x="0.85092685"
       inkscape:transform-center-y="-1.4195914" />
    <path
       sodipodi:type="star"
       style="fill:#f6fb09;fill-opacity:1;stroke:none"
       id="path3997-9"
       sodipodi:sides="5"
       sodipodi:cx="371.71054"
       sodipodi:cy="166.46291"
       sodipodi:r1="10.70975"
       sodipodi:r2="5.4611964"
       sodipodi:arg1="0.82884906"
       sodipodi:arg2="1.4571676"
       inkscape:flatsided="false"
       inkscape:rounded="0"
       inkscape:randomized="0"
       d="m 378.94738,174.35764 -6.61762,-2.46876 -5.89125,3.89628 0.30297,-7.05663 -5.52608,-4.39889 6.80488,-1.89248 2.47594,-6.61494 3.90268,5.88701 7.05629,0.31064 -4.39289,5.53085 z"
       transform="matrix(1.7801206,0,0,1.6920719,-436.67949,241.2183)"
       inkscape:transform-center-x="0.66797447"
       inkscape:transform-center-y="-1.1154505" />
  </g>
  <g
     inkscape:groupmode="layer"
     id="layer2"
     inkscape:label="Dessin"
     style="display:inline"
     transform="translate(-146.05264,-148.67343)" />
</svg>
