<!--Created with Inkscape (http://www.inkscape.org/)--><svg xmlns:dc="http://purl.org/dc/elements/1.1/" xmlns:cc="http://creativecommons.org/ns#" xmlns:rdf="http://www.w3.org/1999/02/22-rdf-syntax-ns#" xmlns="http://www.w3.org/2000/svg" xmlns:sodipodi="http://sodipodi.sourceforge.net/DTD/sodipodi-0.dtd" xmlns:inkscape="http://www.inkscape.org/namespaces/inkscape" width="520" height="520" inkscape:version="0.92.1 r15371" sodipodi:docname="sapin2.svg"><sodipodi:namedview pagecolor="#ffffff" bordercolor="#666666" borderopacity="1.0" inkscape:pageopacity="0.0" inkscape:pageshadow="2" inkscape:zoom="0.76" inkscape:cx="217.1223" inkscape:cy="253.20268" inkscape:document-units="px" inkscape:current-layer="layer2" showgrid="false" inkscape:window-width="1884" inkscape:window-height="1051" inkscape:window-x="0" inkscape:window-y="0" inkscape:window-maximized="1" fit-margin-top="0" fit-margin-left="0" fit-margin-right="0" fit-margin-bottom="0"/><metadata><rdf:RDF><cc:Work><dc:format>image/svg+xml</dc:format><dc:type rdf:resource="http://purl.org/dc/dcmitype/StillImage"/><dc:title/></cc:Work></rdf:RDF></metadata><g style="display:inline" transform="translate(-146.053 -456.941)" inkscape:groupmode="layer" inkscape:label="Calque 1"><rect y="456.94113" x="146.05264" height="520" width="520" style="fill:#4c74d3;fill-opacity:1;stroke:none;stroke-width:.80622578"/><path inkscape:transform-center-y="-0.65921582" inkscape:transform-center-x="0.37524501" d="m298.158 496.441-6.618-2.469-5.891 3.897.303-7.057-5.526-4.399 6.805-1.892 2.476-6.615 3.902 5.887 7.057.31-4.393 5.531z" inkscape:randomized="0" inkscape:rounded="0" inkscape:flatsided="false" sodipodi:arg2="1.4571676" sodipodi:arg1="0.82884906" sodipodi:r2="5.4611964" sodipodi:r1="10.70975" sodipodi:cy="488.54639" sodipodi:cx="290.92105" sodipodi:sides="5" style="fill:#f2ec99;fill-opacity:1;stroke:#dfa252;stroke-opacity:1" sodipodi:type="star"/><path inkscape:transform-center-y="-1.332685" inkscape:transform-center-x="0.7411799" transform="matrix(1.97515 0 0 2.02163 -111.601 168.813)" d="m378.947 174.358-6.617-2.47-5.891 3.897.302-7.056-5.526-4.4 6.805-1.892 2.476-6.615 3.903 5.887 7.056.31-4.393 5.532z" inkscape:randomized="0" inkscape:rounded="0" inkscape:flatsided="false" sodipodi:arg2="1.4571676" sodipodi:arg1="0.82884906" sodipodi:r2="5.4611964" sodipodi:r1="10.70975" sodipodi:cy="166.46291" sodipodi:cx="371.71054" sodipodi:sides="5" style="fill:#f2ec99;fill-opacity:1;stroke:#dfa252;stroke-opacity:1" sodipodi:type="star"/><path inkscape:transform-center-y="-0.81129958" inkscape:transform-center-x="0.44844344" transform="matrix(1.19503 0 0 1.2307 126.112 480.875)" d="m378.947 174.358-6.617-2.47-5.891 3.897.302-7.056-5.526-4.4 6.805-1.892 2.476-6.615 3.903 5.887 7.056.31-4.393 5.532z" inkscape:randomized="0" inkscape:rounded="0" inkscape:flatsided="false" sodipodi:arg2="1.4571676" sodipodi:arg1="0.82884906" sodipodi:r2="5.4611964" sodipodi:r1="10.70975" sodipodi:cy="166.46291" sodipodi:cx="371.71054" sodipodi:sides="5" style="fill:#f2ec99;fill-opacity:1;stroke:#dfa252;stroke-opacity:1" sodipodi:type="star"/><path inkscape:transform-center-y="-0.65921582" inkscape:transform-center-x="0.37524501" d="m177.48 837.232-6.617-2.469-5.891 3.896.303-7.056-5.526-4.399 6.804-1.893 2.476-6.614 3.903 5.887 7.056.31-4.393 5.531z" inkscape:randomized="0" inkscape:rounded="0" inkscape:flatsided="false" sodipodi:arg2="1.4571676" sodipodi:arg1="0.82884906" sodipodi:r2="5.4611964" sodipodi:r1="10.70975" sodipodi:cy="829.33722" sodipodi:cx="170.24367" sodipodi:sides="5" style="fill:#f2ec99;fill-opacity:1;stroke:#dfa252;stroke-opacity:1" sodipodi:type="star"/><path inkscape:transform-center-y="-1.4195914" inkscape:transform-center-x="0.85092685" transform="matrix(2.2677 0 0 2.15345 -626.483 263.404)" d="m378.947 174.358-6.617-2.47-5.891 3.897.302-7.056-5.526-4.4 6.805-1.892 2.476-6.615 3.903 5.887 7.056.31-4.393 5.532z" inkscape:randomized="0" inkscape:rounded="0" inkscape:flatsided="false" sodipodi:arg2="1.4571676" sodipodi:arg1="0.82884906" sodipodi:r2="5.4611964" sodipodi:r1="10.70975" sodipodi:cy="166.46291" sodipodi:cx="371.71054" sodipodi:sides="5" style="fill:#f2ec99;fill-opacity:1;stroke:#dfa252;stroke-opacity:1" sodipodi:type="star"/></g><g transform="translate(-146.053 -148.673)" style="display:inline" inkscape:label="Dessin" inkscape:groupmode="layer"><rect ry="0" y="592.98871" x="379.14893" height="59.616463" width="47.872326" style="fill:#785019;fill-opacity:1;stroke:none;stroke-width:1.08050406;stroke-miterlimit:4;stroke-dasharray:none;stroke-dashoffset:0;stroke-opacity:.58237544"/><path sodipodi:nodetypes="cccccccccccccccccc" inkscape:connector-curvature="0" d="M378.085 601.541 249.362 612.18l97.872-103.192-74.468 15.958 95.745-139.362-61.702 14.893 76.595-123.404-50 20.213 72.34-95.745 65.958 93.617-48.936-17.021 76.596 124.468-59.575-13.83 95.745 132.98-73.404-9.575 103.191 104.255-138.298-14.894z" style="fill:#0e660d;fill-opacity:1;stroke:none;stroke-width:1px;stroke-linecap:butt;stroke-linejoin:miter;stroke-opacity:1"/><path inkscape:connector-curvature="0" d="M412.425 207.732c-.917 3.473-2.039 6.831-3.925 9.897-2 2.378-3.61 4.942-4.897 7.763-1.135 3.517-3.06 6.654-4.762 9.901-1.46 2.778-1.763 5.873-1.985 8.948-.337 3.275-.03 6.333 1.075 9.422 1.243 2.845 2.365 5.763 3.792 8.522 1.57 2.791 3.4 5.385 5.42 7.862 2.65 2.94 5.07 6.072 7.455 9.228 2.494 2.984 4.883 6.001 7.057 9.227 2.29 3.209 4.58 6.416 7.069 9.475 2.256 2.57 3.846 5.465 5.15 8.597 1.207 2.924 1.582 6.091 1.774 9.224.156 3.389.39 6.767-.413 10.083-1.38 4.05-4.955 6.159-8.282 8.45-6.679 4.382-13.241 9.398-20.87 11.845-1.512.485-3.09.627-4.63 1.005a61.748 61.748 0 0 0-9.999 3.154c-4.07 1.613-8.179 3.09-11.95 5.345 27.274-17.186 13.028-7.749 7.407-2.446-2.352 2.3-4.263 4.98-6.175 7.643-1.954 2.597-2.762 5.651-3.182 8.818-.268 3.645 1.211 7.012 2.47 10.34 1.823 4.176 4.377 7.997 7.118 11.618 2.52 3.485 5.734 6.232 9.337 8.522 3.25 2.088 6.654 3.89 10.085 5.662 4.517 1.823 8.502 4.664 12.56 7.317 3.484 2.32 6.565 5.17 10.01 7.54 3.217 2.266 6.403 4.598 9.373 7.182 3.156 3.195 6.858 5.644 10.519 8.187 2.805 1.943 5.597 3.866 8.207 6.072 3.067 3.041 6.29 5.888 9.578 8.684 3.327 2.765 6.468 5.678 8.924 9.256 2.026 3.117 2.57 6.71 2.875 10.336.136 3.236.23 6.467-.205 9.682-.492 3.214-2.22 5.752-4.502 7.958-.38.286-.73.616-1.14.857-5.824 3.438-11.728 6.74-17.554 10.175-4.986 2.941 20.079-11.527 15.035-8.688-5.901 3.32-11.704 6.813-17.604 10.134-.839.472-1.777.74-2.643 1.158-3.04 1.044-6.236 1.47-9.376 2.107-3.216.66-6.503.782-9.775.89-3.677.542-7.392.644-10.938 1.816-3.244 1.282-6.743 1.482-10.12 2.186-3.267.615-6.56 1.012-9.724 2.064-2.095.844-4.389.878-6.51 1.622-.514.18-1.005.421-1.508.632l-1.653.546c-3.12 1.568-6.465 2.244-9.898 2.647-3.279.005-6.471.548-9.711.954-3.419 1.05-6.81 2.569-9.906 4.396-.501.264-.986.563-1.505.793-4.645 2.058 1.358-.888-3.23 1.282-4.694 2.22-21.564 12.369 11.716-6.757-2.847 1.756-5.575 3.673-8.046 5.933-2.265 2.173-2.81 5.095-3.167 8.08-.223 3.226-.195 6.464-.168 9.696.184 2.129-.253 4.333.144 6.448.17.901.828 2.364 1.146 3.14 1.602 3.685 4.231 6.576 7.095 9.3 2.517 2.282 5.3 4.237 7.882 6.448 2.88 2.595 6.14 4.614 9.37 6.72 3.332 1.98 7.062 3.154 10.781 4.169 4.789.952 9.299 2.846 14.007 4.114 3.646.92 7.383.902 11.009 1.896 3.556 1.048 7.226 1.504 10.911 1.755 3.44.034 6.857.513 10.21 1.265 3.51 1.25 7.137 2.05 10.828 2.498 3.372.118 6.672.81 10.02 1.187 3.233.338 6.486.358 9.732.403 3.504-.224 6.934.294 10.4.703 3.713.29 7.395.535 11.082 1.053 4.175.185 8.14 1.19 12.178 2.176 3.344.86 6.784 1.112 10.22 1.236 3.25.086 6.502.066 9.752.06 3.218-.104 6.406-.736 9.62-1.046 3.28-.23 6.566-.26 9.853-.279 2.15-.01 1.084-.006 3.196-.014l-15.398 11.223c-2.09 0-1.035-.002-3.165.008-3.26.04-6.525.1-9.77.439-3.23.355-6.45.976-9.712.875-3.277.004-6.555.019-9.83-.129-3.481-.238-6.951-.64-10.316-1.616-3.985-1.018-7.984-1.615-12.081-1.981-3.686-.457-7.402-.572-11.09-1.015a74.096 74.096 0 0 0-10.33-.51c-3.29-.045-6.585-.161-9.85-.573-3.348-.448-6.687-.948-10.055-1.216-3.669-.625-7.236-1.635-10.825-2.607-3.36-.549-6.727-.989-10.136-1.074-3.721-.393-7.403-1.023-11.017-2.014-3.654-.71-7.41-.885-10.974-2.039-4.65-1.444-9.229-3.112-14.007-4.096-3.877-1.125-7.782-2.316-11.165-4.6-3.301-2.142-6.553-4.324-9.556-6.883-2.634-2.2-5.456-4.176-7.919-6.574-2.982-2.933-5.606-6.146-7.428-9.951-.507-1.065-1.243-2.453-1.525-3.627-.515-2.145-.051-4.432-.227-6.605-.009-3.286-.08-6.573.085-9.856.197-3.241.613-6.625 2.625-9.288 2.288-2.514 5.024-4.566 7.936-6.308 8.527-5.022 16.539-10.186 25.47-14.178 3.283-1.648 6.704-3.285 10.352-3.868 3.23-.47 6.47-.64 9.714-.967 3.351-.55 6.52-1.607 9.654-2.914 3.195-1.13 6.5-1.765 9.743-2.739 3.246-.8 6.545-1.297 9.83-1.919 3.374-.572 6.74-1.162 9.989-2.283 3.701-.827 7.5-1.122 11.266-1.517 3.212-.143 6.42-.407 9.564-1.12 3.098-.647 6.284-1.08 9.153-2.505.864-.395 3.387-1.721 2.568-1.24-4.994 2.936-20.034 11.643-15.025 8.734 58.64-34.063-10.479 5.962 3.76-2.076 2.394-1.674 4.311-3.788 5.065-6.69.548-3.09.614-6.18.427-9.318-.167-3.314-.509-6.619-2.27-9.522-2.323-3.48-5.515-6.105-8.648-8.836-3.256-2.828-6.428-5.746-9.667-8.591-2.6-2.124-5.377-3.99-8.086-5.966-3.656-2.596-7.144-5.362-10.457-8.39a382.949 382.949 0 0 0-9.42-7.007c-3.33-2.466-6.467-5.18-9.865-7.552-3.995-2.679-8.027-5.265-12.49-7.107-3.519-1.762-7.019-3.57-10.261-5.82-3.626-2.566-7.023-5.46-9.635-9.094-2.777-3.808-5.316-7.823-7.412-12.046-1.395-3.587-2.973-7.17-2.984-11.1.323-3.412.939-6.738 2.759-9.712 1.996-2.692 3.823-5.505 6.105-7.976 7.415-7.242 14.66-12.129 24.833-16.695 3.885-2.003 8.006-3.468 12.049-5.116 3.347-1.307 6.815-2.248 10.32-3.038 1.512-.332 2.998-.65 4.426-1.27.478-.206 1.854-.948 1.407-.681-4.874 2.898-9.792 5.72-14.688 8.581l1.632-.982c3.094-2.16 6.816-3.851 8.687-7.279 1.305-3.043.71-6.188.706-9.428-.18-2.927-.394-5.897-1.52-8.64-1.226-2.967-2.584-5.767-4.735-8.207-2.498-3.118-4.86-6.342-7.173-9.6-2.165-3.183-4.54-6.177-6.979-9.153-2.379-3.12-4.795-6.224-7.433-9.128-2.197-2.524-4.07-5.256-5.728-8.166-1.486-2.824-2.58-5.843-3.858-8.765-1.318-3.485-1.821-6.36-1.461-10.093.107-3.275.362-6.626 1.66-9.672 1.583-3.255 3.813-6.19 4.795-9.724 1.03-3.03 2.56-5.847 4.782-8.177 2.076-2.746 3.313-5.697 3.991-9.079l17.329-8.426z" style="fill:#f01818;fill-opacity:1;stroke:none"/><g style="stroke:none;opacity:1" transform="translate(104.737 -254.978)"><ellipse ry="10.106383" rx="9.5744677" cy="198.88171" cx="321.27658" style="fill:#eee088;fill-opacity:1;stroke:none;stroke-width:1.29999995;stroke-miterlimit:4;stroke-dasharray:none;stroke-dashoffset:0;stroke-opacity:1;opacity:1" transform="translate(0 308.268)"/><rect style="fill:#eee088;fill-opacity:1;stroke:none;stroke-width:1.29999995;stroke-miterlimit:4;stroke-dasharray:none;stroke-dashoffset:0;stroke-opacity:1;opacity:1" width="8.5106382" height="7.4468083" x="316.86731" y="493.37561"/></g><g style="fill:#88aae8;fill-opacity:1;stroke:none;opacity:1" transform="translate(92.013 -211.221)"><ellipse ry="10.106383" rx="9.5744677" cy="198.88171" cx="321.27658" style="fill:#88aae8;fill-opacity:1;stroke:none;stroke-width:1.29999995;stroke-miterlimit:4;stroke-dasharray:none;stroke-dashoffset:0;stroke-opacity:1;opacity:1" transform="translate(0 308.268)"/><rect style="fill:#88aae8;fill-opacity:1;stroke:none;stroke-width:1.29999995;stroke-miterlimit:4;stroke-dasharray:none;stroke-dashoffset:0;stroke-opacity:1;opacity:1" width="8.5106382" height="7.4468083" x="316.86731" y="493.37561"/></g><g style="fill:#ec817f;fill-opacity:1;stroke:none;opacity:1" transform="translate(30.17 -203.984)"><ellipse ry="10.106383" rx="9.5744677" cy="198.88171" cx="321.27658" style="fill:#ec817f;fill-opacity:1;stroke:none;stroke-width:1.29999995;stroke-miterlimit:4;stroke-dasharray:none;stroke-dashoffset:0;stroke-opacity:1;opacity:1" transform="translate(0 308.268)"/><rect style="fill:#ec817f;fill-opacity:1;stroke:none;stroke-width:1.29999995;stroke-miterlimit:4;stroke-dasharray:none;stroke-dashoffset:0;stroke-opacity:1;opacity:1" width="8.5106382" height="7.4468083" x="316.86731" y="493.37561"/></g><g style="fill:#ec8884;fill-opacity:1;stroke:none;opacity:1" transform="translate(117.013 -166.484)"><ellipse ry="10.106383" rx="9.5744677" cy="198.88171" cx="321.27658" style="fill:#ec8884;fill-opacity:1;stroke:none;stroke-width:1.29999995;stroke-miterlimit:4;stroke-dasharray:none;stroke-dashoffset:0;stroke-opacity:1;opacity:1" transform="translate(0 308.268)"/><rect style="fill:#ec8884;fill-opacity:1;stroke:none;stroke-width:1.29999995;stroke-miterlimit:4;stroke-dasharray:none;stroke-dashoffset:0;stroke-opacity:1;opacity:1" width="8.5106382" height="7.4468083" x="316.86731" y="493.37561"/></g><g style="stroke:none;opacity:1" transform="translate(47.934 -144.774)"><ellipse ry="10.106383" rx="9.5744677" cy="198.88171" cx="321.27658" style="fill:#eee088;fill-opacity:1;stroke:none;stroke-width:1.29999995;stroke-miterlimit:4;stroke-dasharray:none;stroke-dashoffset:0;stroke-opacity:1;opacity:1" transform="translate(0 308.268)"/><rect style="fill:#eee088;fill-opacity:1;stroke:none;stroke-width:1.29999995;stroke-miterlimit:4;stroke-dasharray:none;stroke-dashoffset:0;stroke-opacity:1;opacity:1" width="8.5106382" height="7.4468083" x="316.86731" y="493.37561"/></g><g style="fill:#ec7d7c;fill-opacity:1;stroke:none;opacity:1" transform="translate(3.855 -96.748)"><ellipse ry="10.106383" rx="9.5744677" cy="198.88171" cx="321.27658" style="fill:#ec7d7c;fill-opacity:1;stroke:none;stroke-width:1.29999995;stroke-miterlimit:4;stroke-dasharray:none;stroke-dashoffset:0;stroke-opacity:1;opacity:1" transform="translate(0 308.268)"/><rect style="fill:#ec7d7c;fill-opacity:1;stroke:none;stroke-width:1.29999995;stroke-miterlimit:4;stroke-dasharray:none;stroke-dashoffset:0;stroke-opacity:1;opacity:1" width="8.5106382" height="7.4468083" x="316.86731" y="493.37561"/></g><g style="fill:#8eafea;fill-opacity:1;stroke:none;opacity:1" transform="translate(87.408 -93.458)"><ellipse ry="10.106383" rx="9.5744677" cy="198.88171" cx="321.27658" style="fill:#8eafea;fill-opacity:1;stroke:none;stroke-width:1.29999995;stroke-miterlimit:4;stroke-dasharray:none;stroke-dashoffset:0;stroke-opacity:1;opacity:1" transform="translate(0 308.268)"/><rect style="fill:#8eafea;fill-opacity:1;stroke:none;stroke-width:1.29999995;stroke-miterlimit:4;stroke-dasharray:none;stroke-dashoffset:0;stroke-opacity:1;opacity:1" width="8.5106382" height="7.4468083" x="316.86731" y="493.37561"/></g><g style="stroke:none;opacity:1" transform="translate(163.723 -96.748)"><ellipse ry="10.106383" rx="9.5744677" cy="198.88171" cx="321.27658" style="fill:#eee088;fill-opacity:1;stroke:none;stroke-width:1.29999995;stroke-miterlimit:4;stroke-dasharray:none;stroke-dashoffset:0;stroke-opacity:1;opacity:1" transform="translate(0 308.268)"/><rect style="fill:#eee088;fill-opacity:1;stroke:none;stroke-width:1.29999995;stroke-miterlimit:4;stroke-dasharray:none;stroke-dashoffset:0;stroke-opacity:1;opacity:1" width="8.5106382" height="7.4468083" x="316.86731" y="493.37561"/></g><g style="fill:#e98484;fill-opacity:1;stroke:none;opacity:1" transform="translate(51.881 -44.774)"><ellipse ry="10.106383" rx="9.5744677" cy="198.88171" cx="321.27658" style="fill:#e98484;fill-opacity:1;stroke:none;stroke-width:1.29999995;stroke-miterlimit:4;stroke-dasharray:none;stroke-dashoffset:0;stroke-opacity:1;opacity:1" transform="translate(0 308.268)"/><rect style="fill:#e98484;fill-opacity:1;stroke:none;stroke-width:1.29999995;stroke-miterlimit:4;stroke-dasharray:none;stroke-dashoffset:0;stroke-opacity:1;opacity:1" width="8.5106382" height="7.4468083" x="316.86731" y="493.37561"/></g><g style="fill:#e9817c;fill-opacity:1;stroke:none;opacity:1" transform="translate(146.618 -23.063)"><ellipse ry="10.106383" rx="9.5744677" cy="198.88171" cx="321.27658" style="fill:#e9817c;fill-opacity:1;stroke:none;stroke-width:1.29999995;stroke-miterlimit:4;stroke-dasharray:none;stroke-dashoffset:0;stroke-opacity:1;opacity:1" transform="translate(0 308.268)"/><rect style="fill:#e9817c;fill-opacity:1;stroke:none;stroke-width:1.29999995;stroke-miterlimit:4;stroke-dasharray:none;stroke-dashoffset:0;stroke-opacity:1;opacity:1" width="8.5106382" height="7.4468083" x="316.86731" y="493.37561"/></g><g style="stroke:none;opacity:1" transform="translate(101.881 28.91)"><ellipse ry="10.106383" rx="9.5744677" cy="198.88171" cx="321.27658" style="fill:#eee088;fill-opacity:1;stroke:none;stroke-width:1.29999995;stroke-miterlimit:4;stroke-dasharray:none;stroke-dashoffset:0;stroke-opacity:1;opacity:1" transform="translate(0 308.268)"/><rect style="fill:#eee088;fill-opacity:1;stroke:none;stroke-width:1.29999995;stroke-miterlimit:4;stroke-dasharray:none;stroke-dashoffset:0;stroke-opacity:1;opacity:1" width="8.5106382" height="7.4468083" x="316.86731" y="493.37561"/></g><g style="fill:#9eb3f1;fill-opacity:1;stroke:none;opacity:1" transform="translate(43.329 23.647)"><ellipse ry="10.106383" rx="9.5744677" cy="198.88171" cx="321.27658" style="fill:#9eb3f1;fill-opacity:1;stroke:none;stroke-width:1.29999995;stroke-miterlimit:4;stroke-dasharray:none;stroke-dashoffset:0;stroke-opacity:1;opacity:1" transform="translate(0 308.268)"/><rect style="fill:#9eb3f1;fill-opacity:1;stroke:none;stroke-width:1.29999995;stroke-miterlimit:4;stroke-dasharray:none;stroke-dashoffset:0;stroke-opacity:1;opacity:1" width="8.5106382" height="7.4468083" x="316.86731" y="493.37561"/></g><g style="fill:#ee8c8f;fill-opacity:1;stroke:none;opacity:1" transform="translate(6.487 54.568)"><ellipse ry="10.106383" rx="9.5744677" cy="198.88171" cx="321.27658" style="fill:#ee8c8f;fill-opacity:1;stroke:none;stroke-width:1.29999995;stroke-miterlimit:4;stroke-dasharray:none;stroke-dashoffset:0;stroke-opacity:1;opacity:1" transform="translate(0 308.268)"/><rect style="fill:#ee8c8f;fill-opacity:1;stroke:none;stroke-width:1.29999995;stroke-miterlimit:4;stroke-dasharray:none;stroke-dashoffset:0;stroke-opacity:1;opacity:1" width="8.5106382" height="7.4468083" x="316.86731" y="493.37561"/></g><g style="fill:#8eafea;fill-opacity:1;stroke:none;opacity:1" transform="translate(157.802 71.016)"><ellipse ry="10.106383" rx="9.5744677" cy="198.88171" cx="321.27658" style="fill:#8eafea;fill-opacity:1;stroke:none;stroke-width:1.29999995;stroke-miterlimit:4;stroke-dasharray:none;stroke-dashoffset:0;stroke-opacity:1;opacity:1" transform="translate(0 308.268)"/><rect style="fill:#8eafea;fill-opacity:1;stroke:none;stroke-width:1.29999995;stroke-miterlimit:4;stroke-dasharray:none;stroke-dashoffset:0;stroke-opacity:1;opacity:1" width="8.5106382" height="7.4468083" x="316.86731" y="493.37561"/></g><g style="fill:#ec8281;fill-opacity:1;stroke:none;opacity:1" transform="translate(203.197 91.41)"><ellipse ry="10.106383" rx="9.5744677" cy="198.88171" cx="321.27658" style="fill:#ec8281;fill-opacity:1;stroke:none;stroke-width:1.29999995;stroke-miterlimit:4;stroke-dasharray:none;stroke-dashoffset:0;stroke-opacity:1;opacity:1" transform="translate(0 308.268)"/><rect style="fill:#ec8281;fill-opacity:1;stroke:none;stroke-width:1.29999995;stroke-miterlimit:4;stroke-dasharray:none;stroke-dashoffset:0;stroke-opacity:1;opacity:1" width="8.5106382" height="7.4468083" x="316.86731" y="493.37561"/></g><g style="fill:#eee45a;fill-opacity:1;stroke:#dfa252;stroke-opacity:1"><path style="fill:#eee45a;fill-opacity:1;stroke:#dfa252;stroke-opacity:1" d="m544.079 183.568-1.974 22.369h7.237l-1.316-23.027z" inkscape:connector-curvature="0" transform="translate(-140)"/><path sodipodi:type="star" style="fill:#eee45a;fill-opacity:1;stroke:#dfa252;stroke-opacity:1" sodipodi:sides="5" sodipodi:cx="371.71054" sodipodi:cy="166.46291" sodipodi:r1="10.70975" sodipodi:r2="5.4611964" sodipodi:arg1="0.82884906" sodipodi:arg2="1.4571676" inkscape:flatsided="false" inkscape:rounded="0" inkscape:randomized="0" d="m378.947 174.358-6.617-2.47-5.891 3.897.302-7.056-5.526-4.4 6.805-1.892 2.476-6.615 3.903 5.887 7.056.31-4.393 5.532z" transform="matrix(1.58509 0 0 1.5273 -183.205 -76.242)" inkscape:transform-center-x="0.59481317" inkscape:transform-center-y="-1.006815"/></g></g></svg>