<?xml version="1.0" encoding="UTF-8" standalone="no"?>
<!-- Created with Inkscape (http://www.inkscape.org/) -->

<svg
   xmlns:dc="http://purl.org/dc/elements/1.1/"
   xmlns:cc="http://creativecommons.org/ns#"
   xmlns:rdf="http://www.w3.org/1999/02/22-rdf-syntax-ns#"
   xmlns:svg="http://www.w3.org/2000/svg"
   xmlns="http://www.w3.org/2000/svg"
   xmlns:sodipodi="http://sodipodi.sourceforge.net/DTD/sodipodi-0.dtd"
   xmlns:inkscape="http://www.inkscape.org/namespaces/inkscape"
   width="100"
   height="100"
   id="svg2"
   sodipodi:version="0.32"
   inkscape:version="0.92.4 (5da689c313, 2019-01-14)"
   version="1.0"
   sodipodi:docname="exo.svg">
  <defs
     id="defs4" />
  <sodipodi:namedview
     id="base"
     pagecolor="#ffffff"
     bordercolor="#666666"
     borderopacity="1.0"
     inkscape:pageopacity="0.0"
     inkscape:pageshadow="2"
     inkscape:zoom="6.6688228"
     inkscape:cx="50.262547"
     inkscape:cy="50.374182"
     inkscape:document-units="px"
     inkscape:current-layer="g838"
     width="100px"
     height="100px"
     showguides="true"
     inkscape:guide-bbox="true"
     inkscape:window-width="1626"
     inkscape:window-height="1021"
     inkscape:window-x="54"
     inkscape:window-y="0"
     showgrid="false"
     inkscape:window-maximized="1" />
  <metadata
     id="metadata7">
    <rdf:RDF>
      <cc:Work
         rdf:about="">
        <dc:format>image/svg+xml</dc:format>
        <dc:type
           rdf:resource="http://purl.org/dc/dcmitype/StillImage" />
        <dc:title />
      </cc:Work>
    </rdf:RDF>
  </metadata>
  <g
     inkscape:label="Calque 1"
     inkscape:groupmode="layer"
     id="layer1">
    <path
       style="fill:#947019;fill-opacity:1;fill-rule:evenodd;stroke:none"
       d="m 13.272275,62.101638 c 1.399461,-2.179163 6.258426,-11.724122 6.717416,-12.48186 0.458987,-0.757739 6.557476,-10.549281 7.357168,-11.508912 0.799691,-0.95963 5.597846,-11.675507 6.557478,-12.475199 0.959631,-0.799693 3.998462,-7.557094 6.39754,-12.155325 2.399074,-4.59823 2.559011,-5.7577829 3.198768,-6.2375981 0.639752,-0.4798153 2.119185,-3.078816 5.917724,-2.5590155 3.798539,0.5197985 5.357937,0.7197229 9.276431,4.6382156 3.918491,3.918493 5.917723,9.916186 6.397538,11.035753 0.479817,1.11957 6.196437,9.892276 6.916162,11.211768 0.719723,0.03997 6.198793,12.459125 6.838548,13.898571 0.639752,0.479816 4.158398,12.155323 4.958089,13.434832 0.799694,1.279507 4.798155,5.437909 5.917725,7.996922 1.119569,2.559018 5.597846,9.916186 5.757785,11.195695 0.159946,1.279504 4.638213,8.156859 2.878892,11.515568 -1.759322,3.358709 -8.796614,4.478277 -10.236062,4.638216 -1.439446,0.159945 -8.636677,0 -13.754708,0 -5.118031,0 -18.872736,0.319876 -19.992308,0.159945 -1.119568,-0.159945 -8.796616,-0.159945 -10.236062,-0.159945 -1.439448,0 -12.635138,-0.159946 -13.754707,-0.159946 -1.11957,0 -7.357169,0.370053 -7.996923,0.370053 -0.639756,0 -6.717416,0.429641 -10.236064,-0.05018 C 8.667113,93.823901 2.4236521,88.913266 1.7567055,85.292699 2.3964593,83.373438 2.5563977,78.895159 4.4756594,76.656022 8.1073611,72.412187 10.906839,67.122018 13.272275,62.101621 z"
       id="path11693"
       sodipodi:nodetypes="ccccccccccccccccccccccccc"
       inkscape:connector-curvature="0" />
    <path
       style="fill:#f6c44c;fill-opacity:1;fill-rule:evenodd;stroke:none"
       d="m 18.697371,61.545666 c 1.189502,-1.888271 5.31949,-6.827197 5.709617,-7.483785 0.390127,-0.656589 5.573679,-12.472978 6.253394,-13.304508 0.679716,-0.831534 4.758016,-10.116972 5.573677,-10.809915 0.81566,-0.692943 3.238645,-4.309174 5.277796,-8.293597 1.992072,-4.422392 5.824461,-10.919665 8.388524,-10.981081 3.228654,0.450414 2.717161,2.421778 6.047774,5.817199 3.330611,3.395424 5.256091,8.818682 5.66392,9.788803 0.40783,0.970121 5.82098,9.038986 6.432725,10.182342 0.611745,0.03464 5.845563,9.424027 6.389338,10.671324 0.543772,0.415767 3.534526,10.532737 4.214242,11.641445 0.679718,1.108707 2.798793,5.991522 3.750396,8.208939 0.951602,2.217418 4.438138,8.432556 4.574082,9.541266 0.135938,1.108708 4.901989,8.027651 4.846058,8.698874 -1.495377,2.910361 -7.157006,3.400667 -8.380494,3.539256 -1.223491,0.138591 -8.460512,-0.959631 -12.810698,-0.959631 -4.350185,0 -16.041311,1.876561 -16.992914,1.737972 -0.951604,-0.138591 -6.837134,0.501163 -8.060622,0.501163 -1.223491,0 -11.379276,-0.778339 -12.330881,-0.778339 -0.951602,0 -6.413328,0.352084 -6.957103,0.352084 -0.543774,0 -5.549682,0.340857 -8.540435,-0.07491 -2.96266,-0.507158 -8.2694304,-4.762284 -8.8363174,-7.89955 0.5437735,-1.663064 0.9995943,-4.264037 2.6309134,-6.204276 3.086849,-3.677335 5.14645,-9.54084 7.157008,-13.891075 z"
       id="path12580"
       sodipodi:nodetypes="cccccccccccccccccccccccc"
       inkscape:connector-curvature="0" />
    <g
       id="g838"
       transform="matrix(0.75824255,0,0,0.75824255,4.4497906,38.150014)">
      <g
         transform="matrix(0.1081269,0,0,0.1081269,36.985261,5.5653997)"
         id="g1579">
        <path
           style="fill:#dedee0"
           d="M 21.078185,504.77616 C 20.812986,504.07427 20.485091,430.6 20.349531,341.5 l -0.246473,-162 -5.358381,-0.53798 C 6.4001664,178.12424 6.6030583,178.93321 6.6030583,146.5 c 0,-32.43321 -0.2028919,-31.62424 8.1416187,-32.46202 L 20.103058,113.5 20.369827,87.805821 20.636597,62.111643 16.610616,58.386666 C 10.261559,52.512298 7.098786,45.048937 7.123745,36 7.1472369,27.482967 9.2367174,21.764706 14.527111,15.73928 22.66338,6.4725817 38.243785,3.6226655 49.784661,9.2900854 60.495841,14.550063 66.048307,23.649862 66.082371,36 66.107331,45.048937 62.944557,52.512298 56.5955,58.386666 l -4.025981,3.724977 0.26677,25.694178 0.266769,25.694179 5.358381,0.53798 c 6.544725,0.65708 8.141619,2.47639 8.141619,9.27559 0,4.37089 0.178696,4.78301 1.572368,3.62637 0.864802,-0.71772 16.6966,-19.45978 35.181774,-41.649015 24.33472,-29.210913 34.31812,-40.502184 36.17763,-40.917055 1.41253,-0.315145 7.06917,-2.297831 12.57032,-4.405969 17.85595,-6.842714 39.87196,-12.368555 54.4172,-13.65828 3.61939,-0.320931 7.21608,-1.084386 7.99264,-1.696566 1.8704,-1.474475 24.26409,-1.262192 34.08807,0.32314 11.5197,1.858976 25.38801,5.813842 35.15932,10.026483 10.80619,4.658804 24.68283,12.450068 29.65531,16.650453 3.87183,3.270637 60.85155,41.609407 71.02998,47.792475 3.25436,1.976914 6.56641,3.594394 7.36012,3.594394 0.79372,0 5.15856,1.6101 9.69965,3.57801 17.37564,7.52982 36.17474,10.50265 53.40388,8.44512 7.31321,-0.87336 10.1557,-0.88297 11.1741,-0.0378 2.29982,1.90868 9.29987,17.08084 11.54112,25.01464 2.91656,10.32432 3.65255,26.20837 1.6928,36.53402 -1.85927,9.79619 -6.78988,22.88704 -10.60283,28.15067 -2.59675,3.5847 -3.77706,4.19281 -14.7183,7.58296 -28.49712,8.82985 -44.76233,11.15807 -72.89515,10.43427 -26.34291,-0.67775 -36.36361,-2.65064 -67,-13.19102 -38.75799,-13.3346 -54.00125,-15.8196 -83.326,-13.58404 -29.26823,2.23125 -57.37502,11.46009 -84.30481,27.68139 -3.09695,1.86546 -6.32406,3.39175 -7.17136,3.39175 -0.84731,0 -17.21344,-14.6175 -36.36919,-32.48333 -19.155756,-17.86583 -35.166142,-32.49083 -35.578642,-32.5 -0.4125,-0.009 -0.75,2.82232 -0.75,6.2922 0,8.28056 -1.287316,9.96499 -8.141619,10.65315 l -5.358381,0.53801 -0.5,163 -0.5,163 -15.271346,0.27616 c -11.669144,0.21102 -15.385082,-0.0249 -15.753527,-1 z M 117.52278,178.75 c -4.92034,-18.96613 -6.30036,-46.78246 -3.36507,-67.82763 0.85506,-6.13052 1.39875,-11.302301 1.2082,-11.492851 -0.60016,-0.600162 -38.029499,44.801071 -38.149018,46.274191 -0.1044,1.28678 40.051228,40.22144 41.536448,40.2735 0.35766,0.0125 -0.19609,-3.23971 -1.23056,-7.22721 z"
           id="path893"
           inkscape:connector-curvature="0" />
        <path
           style="fill:#e29da3"
           d="m 22.856081,504.17754 c -0.985895,-0.62605 -1.299954,-34.80287 -1.5,-163.23469 L 21.103058,178.5 16.1103,178.18529 C 7.3230296,177.63141 7.6030583,178.67438 7.6030583,146.5 c 0,-32.17438 -0.2800287,-31.13141 8.5072417,-31.68529 L 21.103058,114.5 21.369965,88.094782 21.636871,61.689565 17.176515,57.415792 C 10.055415,50.592578 8.1270554,46.029062 8.1270554,36 c 0,-9.639278 1.8118434,-14.269174 8.0093356,-20.466667 6.197493,-6.1974925 10.827389,-8.0093359 20.466667,-8.0093359 9.639278,0 14.269174,1.8118434 20.466667,8.0093359 6.197492,6.197493 8.009336,10.827389 8.009336,20.466667 0,10.029062 -1.92836,14.592578 -9.04946,21.415792 l -4.460356,4.273773 0.266906,26.405217 0.266907,26.405218 4.992758,0.31471 c 6.978123,0.43984 8.507242,2.13367 8.507242,9.42361 0,4.28878 0.345705,5.81801 1.25,5.5294 0.6875,-0.21942 16.842326,-19.04442 35.899612,-41.833332 19.05729,-22.788914 35.30782,-41.56795 36.1123,-41.731192 1.80845,-0.366968 9.71484,15.408535 13.89077,27.716069 11.21397,33.050395 13.33343,66.434185 6.38346,100.546535 -1.34083,6.58118 -2.32155,12.08212 -2.17937,12.2243 0.14218,0.14218 5.18257,-1.92305 11.20087,-4.58941 16.69185,-7.39518 35.12245,-13.15395 54.67175,-17.08256 5.43821,-1.09285 5.77818,-1.33857 6.68912,-4.83475 4.41062,-16.92781 6.31553,-39.78261 4.99408,-59.91828 -1.37118,-20.893502 -6.26381,-41.830067 -14.07666,-60.23696 -5.52661,-13.020542 -5.78237,-14.752496 -2.30731,-15.624679 8.11619,-2.037034 38.76226,2.015193 54.47138,7.202568 8.90011,2.938943 27.04125,11.718129 35.60747,17.231805 l 6.10747,3.931095 3.14503,9.865535 c 6.54612,20.534298 9.43366,39.776716 9.43366,62.865536 0,17.81163 -0.94346,27.17037 -4.47071,44.34769 -1.77919,8.6645 -1.90084,10.48612 -0.74781,11.19873 2.26832,1.4019 22.77645,6.78964 32.42489,8.51842 10.10718,1.81097 41.32334,3.02725 43.25258,1.68524 1.89461,-1.31791 3.2287,-25.90992 2.22378,-40.99233 -0.96817,-14.53101 -2.18333,-22.97455 -5.11983,-35.57525 -1.13017,-4.84963 -1.76914,-9.10323 -1.41992,-9.45244 0.34922,-0.34922 2.75634,0.18357 5.34916,1.18398 24.01312,9.26514 38.56497,11.55718 58.91743,9.28002 l 7.20321,-0.80594 3.01509,4.16221 c 3.83191,5.2898 8.68458,17.83248 10.73775,27.7538 2.45506,11.86336 1.44559,28.01333 -2.51247,40.19587 -1.69759,5.225 -4.56258,11.94161 -6.36665,14.92581 -3.17708,5.25535 -3.54717,5.51604 -11.78013,8.29811 -18.07552,6.10806 -45.58113,11.65474 -58,11.69606 -10.98604,0.0365 -38.65772,-1.73157 -45,-2.87535 -12.5882,-2.27017 -16.4069,-3.35204 -56.5,-16.00689 -24.83144,-7.83771 -41.21457,-9.5616 -74.5,-7.83914 -11.034,0.57099 -15.692,1.3305 -25.5,4.15792 -18.84395,5.43229 -39.4284,14.42898 -53.30179,23.29623 -3.25412,2.07989 -5.81183,3.091 -6.62238,2.61796 C 137.45257,224.84682 121.43461,210.1 102.58342,192.5 83.732224,174.9 67.699794,160.3545 66.955791,160.17668 c -1.044467,-0.24965 -1.352733,1.36719 -1.352733,7.09501 0,8.92603 -1.189791,10.45237 -8.507242,10.9136 L 52.103058,178.5 51.850035,340.94285 c -0.200046,128.43182 -0.514105,162.60864 -1.5,163.23469 -0.685837,0.43551 -6.871977,0.79183 -13.746977,0.79183 -6.875,0 -13.06114,-0.35632 -13.746977,-0.79183 z M 120.60306,187.91661 c 0,-0.59586 -0.91303,-4.65937 -2.02896,-9.03002 -6.06414,-23.7509 -6.66656,-59.32997 -1.36239,-80.463457 0.45891,-1.828457 0.30512,-2.561057 -0.48251,-2.298512 -2.41141,0.803802 -41.991723,49.293159 -41.277783,50.568899 0.98073,1.75246 43.466333,42.17905 44.401643,42.24977 0.4125,0.0312 0.75,-0.43081 0.75,-1.02668 z"
           id="path891"
           inkscape:connector-curvature="0" />
        <path
           style="fill:#afadb2"
           d="m 22.856081,504.17754 c -0.985895,-0.62605 -1.299954,-34.80287 -1.5,-163.23469 L 21.103058,178.5 16.1103,178.18529 C 7.3230296,177.63141 7.6030583,178.67438 7.6030583,146.5 c 0,-32.17438 -0.2800287,-31.13141 8.5072417,-31.68529 l 4.992758,-0.31471 0.5,-27 0.5,-27 -4.334678,-4.314311 C 11.836473,50.281654 9.2354724,44.128653 9.2354724,36 c 0,-15.688929 11.6364256,-27.2941176 27.3675856,-27.2941176 15.73116,0 27.367586,11.6051886 27.367586,27.2941176 0,8.128653 -2.601001,14.281654 -8.532908,20.185689 L 51.103058,60.5 l 0.5,27 0.5,27 4.992758,0.31471 c 6.978123,0.43984 8.507242,2.13367 8.507242,9.42361 0,4.28878 0.345705,5.81801 1.25,5.5294 0.6875,-0.21942 16.842326,-19.04442 35.899612,-41.833332 19.05729,-22.788914 35.30143,-41.566719 36.0981,-41.728458 0.93794,-0.19042 2.84091,2.518123 5.39905,7.684588 2.17282,4.388262 3.59633,7.759721 3.16336,7.492132 -0.43296,-0.267589 -0.51922,0.211846 -0.19168,1.065412 C 147.54905,63.301628 148.20477,64 148.67866,64 c 0.4739,0 0.57428,0.74882 0.22308,1.664045 -0.4039,1.052535 -0.2429,1.419512 0.43812,0.99862 0.69678,-0.430632 0.87758,0.09593 0.51242,1.492327 -0.3838,1.467651 -0.19773,1.931217 0.5818,1.449442 0.74301,-0.459205 0.93663,-0.16251 0.55054,0.843628 -0.32755,0.853566 -0.20989,1.552256 0.26145,1.552644 0.47135,3.89e-4 0.92803,1.224068 1.01486,2.719289 0.0868,1.49522 0.60155,2.866479 1.14384,3.047241 0.54228,0.180762 0.73786,1.27745 0.43461,2.437083 -0.3515,1.344116 -0.16557,1.869988 0.5129,1.450673 0.68197,-0.421481 0.86157,0.117332 0.5,1.5 -0.34584,1.322497 -0.17211,1.915388 0.4488,1.531642 0.62756,-0.387857 0.8226,0.370254 0.51253,1.992253 -0.30628,1.6022 -0.11223,2.378382 0.5,2 0.61224,-0.378382 0.80628,0.3978 0.5,2 -0.30628,1.6022 -0.11223,2.378382 0.5,2 0.61224,-0.378382 0.80628,0.3978 0.5,2 -0.33029,1.727802 -0.13124,2.39013 0.58523,1.94733 0.74338,-0.459435 0.89755,0.48872 0.48891,3.00685 -0.35867,2.210253 -0.21891,3.444313 0.35025,3.092553 0.55527,-0.34317 0.77483,0.89009 0.53073,2.98101 -0.25899,2.2184 -0.0382,3.33263 0.58411,2.94802 0.63585,-0.39298 0.83609,1.10613 0.54944,4.11352 -0.25057,2.62892 -0.084,4.21827 0.37489,3.57624 0.45424,-0.63557 0.82589,8.20828 0.82589,19.65301 0,11.44472 -0.37165,20.28974 -0.82589,19.65558 -0.45865,-0.64031 -0.62535,0.95105 -0.37489,3.57883 0.29526,3.09773 0.0949,4.51175 -0.58018,4.09453 -0.67482,-0.41707 -0.82493,0.63371 -0.43435,3.04057 0.40526,2.49732 0.25174,3.4646 -0.47827,3.01343 -0.71046,-0.43909 -0.92133,0.38334 -0.62171,2.42478 0.27257,1.85718 0.0645,2.84887 -0.52175,2.48656 -0.60325,-0.37283 -0.73068,0.61972 -0.33412,2.60252 0.45136,2.25679 0.3067,2.99857 -0.48889,2.50687 -0.77049,-0.4762 -0.97071,0.13457 -0.6294,1.92002 0.2753,1.4401 0.11554,2.38043 -0.35501,2.08961 -0.47055,-0.29081 -0.85554,0.14625 -0.85554,0.97125 0,0.825 0.37789,1.73354 0.83975,2.01899 0.46186,0.28545 5.74936,-1.6603 11.75,-4.32389 17.41298,-7.72934 46.55215,-16.49612 58.14805,-17.49437 3.75174,-0.32297 3.76718,-0.343 5.55308,-7.20329 4.71824,-18.1245 6.14214,-49.81036 3.15694,-70.251072 -2.65464,-18.177286 -8.41782,-38.23169 -15.46285,-53.806816 -1.53707,-3.398163 -2.5375,-6.435663 -2.22316,-6.75 1.12187,-1.121867 21.90528,-0.534356 31.23819,0.883049 18.82441,2.858894 36.07134,9.173964 54.21084,19.849629 l 9.69927,5.708322 3.13292,9.743739 c 10.51511,32.703158 12.48057,70.449349 5.4545,104.752069 -2.90432,14.17952 -2.80549,13.12703 -1.24753,13.28542 0.6875,0.0699 6.425,1.67126 12.75,3.5586 17.62177,5.25821 28.26794,6.84849 48.64478,7.26634 16.53038,0.33898 18.20804,0.21679 18.85574,-1.3733 0.39102,-0.95997 0.95015,-9.88388 1.24251,-19.83092 0.5936,-20.19639 -0.51194,-33.86857 -4.15737,-51.41447 -1.31412,-6.325 -2.24936,-11.64662 -2.07832,-11.82583 0.17105,-0.17921 4.62067,1.28833 9.88805,3.26119 15.10497,5.65747 21.52097,6.88051 36.60461,6.97768 7.425,0.0478 15.51,-0.12813 17.96666,-0.39102 4.28739,-0.4588 4.57556,-0.31834 7.18045,3.5 5.53957,8.12011 10.51477,24.22362 11.50829,37.24954 1.02671,13.4611 -3.34161,32.34172 -10.04969,43.43651 -3.55687,5.88286 -4.7816,6.43834 -27.10571,12.29385 -16.68297,4.37587 -29.88035,6.61539 -40.24029,6.82854 -4.53217,0.0933 -8.24421,0.39454 -8.24898,0.66954 -0.0153,0.87868 -31.2615,-0.7258 -38.01073,-1.95183 -14.59852,-2.65191 -43.03899,-11.22544 -43.83333,-13.21379 C 310.58639,205.37547 309.7802,205 308.97819,205 c -0.80202,0 -5.85467,-1.53031 -11.22811,-3.40068 -19.35513,-6.73708 -27.96962,-8.03293 -53.14702,-7.99471 -25.45343,0.0386 -33.21409,1.22962 -55.5,8.51733 -12.66052,4.14012 -34.31185,14.13748 -43.89776,20.26951 -3.51994,2.25168 -6.21173,3.35471 -7.02641,2.87926 C 137.45257,224.84682 121.43461,210.1 102.58342,192.5 83.732224,174.9 67.699794,160.3545 66.955791,160.17668 c -1.044467,-0.24965 -1.352733,1.36719 -1.352733,7.09501 0,8.92603 -1.189791,10.45237 -8.507242,10.9136 L 52.103058,178.5 51.850035,340.94285 c -0.200046,128.43182 -0.514105,162.60864 -1.5,163.23469 -0.685837,0.43551 -6.871977,0.79183 -13.746977,0.79183 -6.875,0 -13.06114,-0.35632 -13.746977,-0.79183 z M 120.26364,179.80363 C 116.62058,165.17218 115.63418,158.3423 114.94827,143 c -0.61662,-13.79233 0.57763,-29.70541 3.15117,-41.98873 0.74772,-3.568806 1.19667,-6.651554 0.99767,-6.850554 -0.71105,-0.711051 -4.65536,3.710394 -24.401113,27.352854 -17.42351,20.86194 -19.860277,24.19468 -18.805147,25.71958 2.059578,2.97656 45.88241,43.92998 46.42613,43.38626 0.28168,-0.28168 -0.64232,-5.14878 -2.05334,-10.81578 z M 162.93927,136 c 0,-4.125 0.17651,-5.8125 0.39226,-3.75 0.21574,2.0625 0.21574,5.4375 0,7.5 -0.21575,2.0625 -0.39226,0.375 -0.39226,-3.75 z"
           id="path889"
           inkscape:connector-curvature="0" />
        <path
           style="fill:#8b8890"
           d="m 23.297396,502.36101 c -0.381886,-0.38189 -0.694338,-73.4712 -0.694338,-162.42069 0,-146.55078 -0.148427,-161.7833 -1.581787,-162.33333 -0.869984,-0.33385 -3.479984,-0.60699 -5.8,-0.60699 -2.320017,0 -4.758213,-0.54 -5.4182127,-1.2 -1.7120498,-1.71205 -1.7120498,-56.88795 0,-58.6 0.6599997,-0.66 3.0981957,-1.2 5.4182127,-1.2 7.889555,0 7.381787,1.94518 7.381787,-28.278406 V 60.657166 L 18.01838,56.264272 C 11.886135,50.388549 9.2354724,44.272833 9.2354724,36 c 0,-15.688929 11.6364256,-27.2941176 27.3675856,-27.2941176 15.73116,0 27.367586,11.6051886 27.367586,27.2941176 0,8.272833 -2.650663,14.388549 -8.782908,20.264272 l -4.584678,4.392894 V 87.721594 C 50.603058,117.97197 50.082886,116 58.062401,116 c 2.362672,0 4.776923,0.57976 5.365001,1.28835 0.588079,0.70859 1.205679,4.19157 1.372445,7.73995 0.226458,4.8185 0.682911,6.50325 1.803211,6.6556 0.88484,0.12033 15.791656,-16.99751 36.348622,-41.739957 C 122.11842,66.874774 138.16683,48 138.61481,48 c 1.16439,0 8.73958,14.319877 11.63796,22 3.82476,10.134836 8.10676,27.390817 9.92069,39.97924 2.48251,17.22834 1.61235,45.85084 -1.96153,64.52076 -2.96673,15.49819 -7.88742,31.75169 -11.30846,37.35288 -1.22515,2.00591 -3.23361,5.55962 -4.46325,7.89712 -1.22963,2.3375 -2.70852,4.23797 -3.28643,4.22327 -0.5779,-0.0147 -16.97776,-14.8807 -36.44413,-33.03554 -19.466375,-18.15484 -35.891375,-32.84419 -36.500004,-32.64301 -0.648803,0.21446 -1.228933,3.62255 -1.40231,8.23815 -0.162641,4.3298 -0.780241,8.45618 -1.372444,9.16975 -0.594363,0.71616 -3.149854,1.30424 -5.704289,1.31269 -2.545155,0.008 -5.188691,0.37164 -5.874523,0.80715 -0.985852,0.62602 -1.299954,34.70287 -1.5,162.73468 L 50.103058,502.5 37.047396,502.77767 c -7.180613,0.15272 -13.368113,-0.0348 -13.75,-0.41666 z M 120.26308,179.83029 c -4.3151,-17.28165 -5.12336,-24.32555 -5.08668,-44.33029 0.0256,-13.97282 0.5189,-21.64588 1.86437,-29 2.28117,-12.468542 2.29841,-12.700743 0.97827,-13.170379 -1.47855,-0.525988 -44.65793,51.244449 -44.245102,53.048199 0.574068,2.50825 47.103752,45.74755 48.127322,44.72398 0.58829,-0.58829 -0.026,-4.81477 -1.63818,-11.27151 z m 272.99966,40.42808 c -0.33802,-0.54693 0.49619,-5.89131 1.85381,-11.8764 1.35761,-5.98508 2.47247,-11.6853 2.47745,-12.66715 0.005,-0.98185 0.74511,-2.90855 1.64473,-4.28154 1.309,-1.99778 1.73586,-6.15202 2.1373,-20.80035 0.55933,-20.4099 -0.55497,-34.15003 -4.18731,-51.63293 -1.31412,-6.325 -2.24936,-11.64662 -2.07832,-11.82583 0.17105,-0.17921 4.62067,1.28833 9.88805,3.26119 15.10497,5.65747 21.52097,6.88051 36.60461,6.97768 7.425,0.0478 15.51,-0.12813 17.96666,-0.39102 4.28739,-0.4588 4.57556,-0.31834 7.18045,3.5 5.53957,8.12011 10.51477,24.22362 11.50829,37.24954 1.0268,13.46237 -3.34335,32.3492 -10.04969,43.43254 -3.50894,5.79911 -3.62747,5.85629 -23.60571,11.38901 -20.90543,5.78949 -49.83056,10.1081 -51.34032,7.66526 z m -96.2943,-18.77779 c -18.45982,-6.69365 -27.00029,-7.93927 -54.14949,-7.89765 -21.60554,0.0331 -24.21668,-0.13485 -23.67278,-1.52285 0.33623,-0.85804 2.44563,-6.96008 4.68756,-13.56008 2.24193,-6.6 4.66345,-12.68973 5.38116,-13.53274 1.69825,-1.99475 4.92365,-16.06151 6.29804,-27.46726 1.57291,-13.05329 1.34404,-38.004719 -0.46205,-50.371662 -2.65464,-18.177286 -8.41782,-38.23169 -15.46285,-53.806816 -1.53707,-3.398163 -2.5375,-6.435663 -2.22316,-6.75 1.12187,-1.121867 21.90528,-0.534356 31.23819,0.883049 18.82441,2.858894 36.07134,9.173964 54.21084,19.849629 l 9.69927,5.708322 3.13292,9.743739 c 10.53154,32.754244 12.47067,70.176039 5.43732,104.930329 -1.35643,6.70263 -2.26047,12.77763 -2.00896,13.5 0.2515,0.72238 -1.22735,6.26341 -3.28633,12.31341 -3.60411,10.59012 -3.8543,11.00546 -6.71433,11.14643 -1.6339,0.0805 -7.08131,-1.3441 -12.10535,-3.16585 z"
           id="path887"
           inkscape:connector-curvature="0" />
        <path
           style="fill:#e32e3c"
           d="m 394.48464,220.37913 c -0.14797,-1.09849 -0.39142,0.22816 3.24879,-17.70372 5.34915,-26.35021 5.15455,-56.24423 -0.54471,-83.67541 -1.31412,-6.325 -2.24936,-11.64662 -2.07832,-11.82583 0.17105,-0.17921 4.62067,1.28833 9.88805,3.26119 15.10497,5.65747 21.52097,6.88051 36.60461,6.97768 7.425,0.0478 15.51,-0.12813 17.96666,-0.39102 4.28739,-0.4588 4.57556,-0.31834 7.18045,3.5 5.53957,8.12011 10.51477,24.22362 11.50829,37.24954 1.0268,13.46237 -3.34335,32.3492 -10.04969,43.43254 -3.50894,5.79911 -3.62747,5.85629 -23.60571,11.38901 -19.76822,5.47456 -49.8013,10.14027 -50.11842,7.78602 z M 133.46122,202.5239 c -9.32813,-9.2828 -9.64154,-9.74441 -11.73253,-17.28074 -3.47251,-12.51557 -4.94607,-20.05776 -6.20185,-31.74316 -1.88383,-17.52966 -0.0269,-44.39156 4.11319,-59.5 0.84894,-3.098043 16.98231,-24.35556 23.48623,-30.945737 l 2.41373,-2.445738 2.52868,5.717804 c 3.89813,8.814362 8.14829,24.100075 10.64713,38.292411 2.90995,16.52728 3.16121,44.50649 0.53683,59.77981 -3.68654,21.4549 -11.53115,46.77176 -14.67841,47.37156 -0.8441,0.16086 -5.82145,-3.98039 -11.113,-9.24621 z m 163.50722,-1.06649 c -18.26071,-6.57513 -27.14048,-7.895 -53.18817,-7.9058 -22.89835,-0.01 -23.31376,-0.0465 -22.82587,-2.03064 0.27331,-1.11154 2.54798,-7.9314 5.05484,-15.15525 8.16239,-23.52109 10.58638,-37.99436 10.591,-63.23738 0.005,-27.655177 -5.85292,-55.135905 -17.01221,-79.806818 -1.53707,-3.398163 -2.5375,-6.435663 -2.22316,-6.75 1.12187,-1.121867 21.90528,-0.534356 31.23819,0.883049 18.82441,2.858894 36.07134,9.173964 54.21084,19.849629 l 9.69927,5.708322 3.13292,9.743739 c 7.81505,24.305686 11.06009,52.022569 9.09096,77.648719 -1.36839,17.80811 -5.51879,38.88364 -10.54786,53.56155 -1.97237,5.75658 -3.58613,10.59408 -3.58613,10.75 0,0.95688 -5.72889,-0.41251 -13.63462,-3.25912 z M 22.603058,177.02955 c -0.825,-0.54941 -3.5475,-1.00582 -6.05,-1.01424 -2.5025,-0.008 -5.09,-0.55531 -5.75,-1.21531 -1.7556266,-1.75563 -1.7084459,-55.14036 0.05,-56.57475 3.984013,-3.24981 47.418791,-3.3253 51.392373,-0.0893 3.146279,2.56224 3.346757,52.76239 0.225729,56.523 -1.218919,1.4687 -8.847424,2.34649 -25.368102,2.91902 -7.787027,0.26986 -13.601497,0.05 -14.5,-0.5484 z M 26.848472,62.667333 C 22.084439,60.939311 13.796844,52.683293 11.355836,47.233726 8.5088557,40.877823 8.4811288,31.183418 11.29199,24.910609 19.152727,7.3683322 42.530985,2.9945938 56.069725,16.533333 c 7.880359,7.88036 10.291071,20.63117 5.797204,30.662756 -2.636507,5.885431 -11.205966,14.17038 -16.206711,15.668639 -4.808237,1.440583 -14.578604,1.33806 -18.811746,-0.197395 z"
           id="path885"
           inkscape:connector-curvature="0" />
        <path
           style="fill:#58565d"
           d="m 394.60306,219.61521 c 0,-0.36979 1.14783,-6.39699 2.55074,-13.39378 C 399.89461,192.55205 400.80878,191 406.1193,191 c 8.53194,0 48.52339,-9.02685 56.26349,-12.69976 3.72464,-1.76746 10.20703,-10.70006 12.24391,-16.87186 2.94372,-8.91958 4.07222,1.68848 1.56737,14.73365 -1.59528,8.30823 -5.54209,19.37241 -9.03915,25.3397 -2.13665,3.64591 -3.1394,4.27577 -10.70467,6.72394 -10.92334,3.53488 -26.18617,7.32611 -37.09108,9.2133 -10.71682,1.85465 -24.75611,3.0888 -24.75611,2.17624 z M 133.32422,202.38756 c -5.34664,-5.32065 -9.72116,-10.46937 -9.72116,-11.44161 0,-0.97223 -1.12217,-5.98382 -2.4937,-11.13686 -6.8408,-25.70177 -7.26946,-54.82679 -1.23078,-83.623424 1.12775,-5.377891 2.34977,-7.602454 8.23995,-15 11.43728,-14.364208 16.63557,-20.210353 17.49719,-19.677841 2.67903,1.655731 10.6888,28.7066 13.61829,45.992175 2.31738,13.67377 2.32065,43.33083 0.006,56.89855 -3.64154,21.34805 -11.51225,46.77051 -14.66606,47.37156 -0.84512,0.16105 -5.87631,-4.03498 -11.25,-9.38255 z m 164.77884,-1.48547 c -17.72141,-6.13179 -29.3814,-8.12038 -48.5,-8.27159 -9.075,-0.0718 -19.2,0.059 -22.5,0.29066 -4.76668,0.33459 -5.96652,0.12903 -5.83714,-1 0.29725,-2.59392 8.39591,-25.28705 9.49849,-26.61558 1.78735,-2.15362 27.2463,-1.71402 41.48928,0.71639 16.1648,2.75836 45.34937,12.60143 45.34937,15.29497 0,1.84635 -6.85617,21.95813 -7.75179,22.73894 -0.41151,0.35877 -5.69821,-1.06044 -11.74821,-3.15379 z M 22.603058,177.02955 c -0.825,-0.54941 -3.5475,-1.00582 -6.05,-1.01424 -2.5025,-0.008 -5.09,-0.55531 -5.75,-1.21531 -1.7556266,-1.75563 -1.7084459,-55.14036 0.05,-56.57475 3.984013,-3.24981 47.418791,-3.3253 51.392373,-0.0893 3.146279,2.56224 3.346757,52.76239 0.225729,56.523 -1.218919,1.4687 -8.847424,2.34649 -25.368102,2.91902 -7.787027,0.26986 -13.601497,0.05 -14.5,-0.5484 z"
           id="path883"
           inkscape:connector-curvature="0" />
        <path
           style="fill:#af232c"
           d="m 394.60306,219.61521 c 0,-0.36979 1.14783,-6.39699 2.55074,-13.39378 C 399.89461,192.55205 400.80878,191 406.1193,191 c 8.53194,0 48.52339,-9.02685 56.26349,-12.69976 3.72464,-1.76746 10.20703,-10.70006 12.24391,-16.87186 2.94372,-8.91958 4.07222,1.68848 1.56737,14.73365 -1.59528,8.30823 -5.54209,19.37241 -9.03915,25.3397 -2.13665,3.64591 -3.1394,4.27577 -10.70467,6.72394 -10.92334,3.53488 -26.18617,7.32611 -37.09108,9.2133 -10.71682,1.85465 -24.75611,3.0888 -24.75611,2.17624 z m -260.75,-17.20636 c -5.76992,-5.38975 -10.25,-10.37362 -10.25,-11.40262 0,-1.00539 -1.12217,-6.0441 -2.4937,-11.19714 -6.84273,-25.70903 -7.26971,-54.82367 -1.22667,-83.643577 1.24195,-5.92302 2.08922,-7.238391 13.04355,-20.25 C 139.36967,68.261981 145.04351,62 145.53477,62 c 2.38962,0 10.622,27.342647 13.69924,45.5 2.31738,13.67377 2.32065,43.33083 0.006,56.89855 -3.308,19.39269 -11.38773,46.40934 -14.13722,47.2714 -0.55,0.17245 -5.6125,-3.99505 -11.25,-9.2611 z m 164.25,-1.50676 c -17.72141,-6.13179 -29.3814,-8.12038 -48.5,-8.27159 -9.075,-0.0718 -19.2,0.059 -22.5,0.29066 -4.76668,0.33459 -5.96652,0.12903 -5.83714,-1 0.29725,-2.59392 8.39591,-25.28705 9.49849,-26.61558 1.78735,-2.15362 27.2463,-1.71402 41.48928,0.71639 16.1648,2.75836 45.34937,12.60143 45.34937,15.29497 0,1.84635 -6.85617,21.95813 -7.75179,22.73894 -0.41151,0.35877 -5.69821,-1.06044 -11.74821,-3.15379 z"
           id="path881"
           inkscape:connector-curvature="0" />
      </g>
    </g>
  </g>
</svg>
