<?xml version="1.0" encoding="UTF-8" standalone="no"?>
<svg
   xmlns:dc="http://purl.org/dc/elements/1.1/"
   xmlns:cc="http://creativecommons.org/ns#"
   xmlns:rdf="http://www.w3.org/1999/02/22-rdf-syntax-ns#"
   xmlns:svg="http://www.w3.org/2000/svg"
   xmlns="http://www.w3.org/2000/svg"
   xmlns:xlink="http://www.w3.org/1999/xlink"
   xmlns:sodipodi="http://sodipodi.sourceforge.net/DTD/sodipodi-0.dtd"
   xmlns:inkscape="http://www.inkscape.org/namespaces/inkscape"
   id="svg2"
   viewBox="0 0 500 272.66361"
   version="1.0"
   inkscape:version="0.91 r13725"
   width="100%"
   height="100%"
   sodipodi:docname="building.svg">
  <sodipodi:namedview
     pagecolor="#ffffff"
     bordercolor="#666666"
     borderopacity="1"
     objecttolerance="10"
     gridtolerance="10"
     guidetolerance="10"
     inkscape:pageopacity="0"
     inkscape:pageshadow="2"
     inkscape:window-width="1366"
     inkscape:window-height="713"
     id="namedview321"
     showgrid="false"
     fit-margin-top="0"
     fit-margin-left="0"
     fit-margin-right="0"
     fit-margin-bottom="0"
     inkscape:zoom="2.4511927"
     inkscape:cx="416.98849"
     inkscape:cy="127.98919"
     inkscape:window-x="-2"
     inkscape:window-y="-3"
     inkscape:window-maximized="1"
     inkscape:current-layer="svg2" />
  <defs
     id="defs4">
    <linearGradient
       id="linearGradient3926">
      <stop
         id="stop3928"
         stop-color="#e5e7d4"
         offset="0" />
      <stop
         id="stop3934"
         stop-color="#aeb193"
         offset="1" />
      <stop
         id="stop3930"
         stop-color="#e5e7d4"
         stop-opacity="0"
         offset="1" />
    </linearGradient>
    <linearGradient
       id="linearGradient3223">
      <stop
         id="stop3225"
         stop-color="#002b4e"
         offset="0"
         style="stop-color:#002b4e;stop-opacity:1;" />
      <stop
         id="stop3239"
         stop-color="#fff"
         offset="1" />
      <stop
         id="stop3227"
         stop-color="#012f54"
         stop-opacity="0"
         offset="1"
         style="stop-opacity:0;" />
    </linearGradient>
    <filter
       id="filter3318"
       y="-0.047070999"
       width="1.285"
       height="1.0941"
       x="-0.14251"
       color-interpolation-filters="sRGB">
      <feGaussianBlur
         id="feGaussianBlur3320"
         stdDeviation="0.32438253" />
    </filter>
    <filter
       id="filter3323"
       color-interpolation-filters="sRGB">
      <feGaussianBlur
         id="feGaussianBlur3325"
         stdDeviation="0.29931088" />
    </filter>
    <linearGradient
       inkscape:collect="always"
       xlink:href="#linearGradient3223"
       id="linearGradient3513"
       gradientUnits="userSpaceOnUse"
       gradientTransform="matrix(1.0763,-0.18866,0.038324,1.0709,240.78198,-156.07639)"
       x1="169.60001"
       y1="404.16"
       x2="176.49001"
       y2="377.57999" />
    <linearGradient
       inkscape:collect="always"
       xlink:href="#linearGradient3223"
       id="linearGradient3516"
       gradientUnits="userSpaceOnUse"
       gradientTransform="matrix(1.0763,-0.18866,0.038324,1.0709,240.77498,-156.25639)"
       x1="167.85001"
       y1="393.79001"
       x2="171.3"
       y2="371.01001" />
    <linearGradient
       inkscape:collect="always"
       xlink:href="#linearGradient3223"
       id="linearGradient3519"
       gradientUnits="userSpaceOnUse"
       gradientTransform="matrix(1.0763,-0.18866,0.038324,1.0709,240.95798,-156.10639)"
       x1="161.00999"
       y1="403.85001"
       x2="173.38"
       y2="375.14001" />
    <linearGradient
       inkscape:collect="always"
       xlink:href="#linearGradient3223"
       id="linearGradient3527"
       gradientUnits="userSpaceOnUse"
       gradientTransform="matrix(1.1569,-0.20092,0.039323,1.1514,181.59998,-182.77639)"
       x1="169.60001"
       y1="404.16"
       x2="176.49001"
       y2="377.57999" />
    <linearGradient
       inkscape:collect="always"
       xlink:href="#linearGradient3223"
       id="linearGradient3530"
       gradientUnits="userSpaceOnUse"
       gradientTransform="matrix(1.1569,-0.20092,0.039323,1.1514,181.59398,-182.96639)"
       x1="167.85001"
       y1="393.79001"
       x2="171.3"
       y2="371.01001" />
    <linearGradient
       inkscape:collect="always"
       xlink:href="#linearGradient3223"
       id="linearGradient3534"
       gradientUnits="userSpaceOnUse"
       gradientTransform="matrix(1.1569,-0.20092,0.039323,1.1514,181.78998,-182.81639)"
       x1="161.00999"
       y1="403.85001"
       x2="173.38"
       y2="375.14001" />
    <linearGradient
       inkscape:collect="always"
       xlink:href="#linearGradient3223"
       id="linearGradient3542"
       gradientUnits="userSpaceOnUse"
       gradientTransform="matrix(1.0352,-0.10917,0.036864,1.0327,244.57498,-207.66639)"
       x1="169.60001"
       y1="404.16"
       x2="176.49001"
       y2="377.57999" />
    <linearGradient
       inkscape:collect="always"
       xlink:href="#linearGradient3223"
       id="linearGradient3546"
       gradientUnits="userSpaceOnUse"
       gradientTransform="matrix(1.0352,-0.10917,0.036864,1.0327,244.56898,-207.83639)"
       x1="167.85001"
       y1="393.79001"
       x2="171.3"
       y2="371.01001" />
    <linearGradient
       inkscape:collect="always"
       xlink:href="#linearGradient3223"
       id="linearGradient3549"
       gradientUnits="userSpaceOnUse"
       gradientTransform="matrix(1.0352,-0.10917,0.036864,1.0327,244.74498,-207.68639)"
       x1="161.00999"
       y1="403.85001"
       x2="173.38"
       y2="375.14001" />
    <linearGradient
       inkscape:collect="always"
       xlink:href="#linearGradient3223"
       id="linearGradient3556"
       gradientUnits="userSpaceOnUse"
       gradientTransform="matrix(1.0519,-0.11999,0.046532,1.0486,216.71558,-212.67639)"
       x1="169.60001"
       y1="404.16"
       x2="176.49001"
       y2="377.57999" />
    <linearGradient
       inkscape:collect="always"
       xlink:href="#linearGradient3223"
       id="linearGradient3559"
       gradientUnits="userSpaceOnUse"
       gradientTransform="matrix(1.0519,-0.11999,0.046532,1.0486,216.70788,-212.84639)"
       x1="167.85001"
       y1="393.79001"
       x2="171.3"
       y2="371.01001" />
    <linearGradient
       inkscape:collect="always"
       xlink:href="#linearGradient3223"
       id="linearGradient3562"
       gradientUnits="userSpaceOnUse"
       gradientTransform="matrix(1.0519,-0.11999,0.046532,1.0486,216.88818,-212.69639)"
       x1="161.00999"
       y1="403.85001"
       x2="173.38"
       y2="375.14001" />
    <linearGradient
       inkscape:collect="always"
       xlink:href="#linearGradient3223"
       id="linearGradient3569"
       gradientUnits="userSpaceOnUse"
       gradientTransform="matrix(1.0693,-0.11102,0.036345,1.0667,196.14098,-221.97639)"
       x1="169.60001"
       y1="404.16"
       x2="176.49001"
       y2="377.57999" />
    <linearGradient
       inkscape:collect="always"
       xlink:href="#linearGradient3223"
       id="linearGradient3572"
       gradientUnits="userSpaceOnUse"
       gradientTransform="matrix(1.0693,-0.11102,0.036345,1.0667,196.13498,-222.14639)"
       x1="167.85001"
       y1="393.79001"
       x2="171.3"
       y2="371.01001" />
    <linearGradient
       inkscape:collect="always"
       xlink:href="#linearGradient3223"
       id="linearGradient3575"
       gradientUnits="userSpaceOnUse"
       gradientTransform="matrix(1.0693,-0.11102,0.036345,1.0667,196.31598,-221.99639)"
       x1="161.00999"
       y1="403.85001"
       x2="173.38"
       y2="375.14001" />
    <linearGradient
       inkscape:collect="always"
       xlink:href="#linearGradient3223"
       id="linearGradient3582"
       gradientUnits="userSpaceOnUse"
       gradientTransform="matrix(1.015,-0.04662,-0.0010165,1.0115,259.37598,-258.99639)"
       x1="169.60001"
       y1="404.16"
       x2="176.49001"
       y2="377.57999" />
    <linearGradient
       inkscape:collect="always"
       xlink:href="#linearGradient3223"
       id="linearGradient3585"
       gradientUnits="userSpaceOnUse"
       gradientTransform="matrix(1.015,-0.04662,-0.0010165,1.0115,259.37598,-259.16239)"
       x1="167.85001"
       y1="393.79001"
       x2="171.3"
       y2="371.01001" />
    <linearGradient
       inkscape:collect="always"
       xlink:href="#linearGradient3223"
       id="linearGradient3588"
       gradientUnits="userSpaceOnUse"
       gradientTransform="matrix(1.015,-0.04662,-0.0010165,1.0115,259.54198,-259.00439)"
       x1="161.00999"
       y1="403.85001"
       x2="173.38"
       y2="375.14001" />
    <linearGradient
       inkscape:collect="always"
       xlink:href="#linearGradient3223"
       id="linearGradient3595"
       gradientUnits="userSpaceOnUse"
       gradientTransform="matrix(1.0316,-0.05624,0.0078542,1.0277,232.34598,-265.50939)"
       x1="169.60001"
       y1="404.16"
       x2="176.49001"
       y2="377.57999" />
    <linearGradient
       inkscape:collect="always"
       xlink:href="#linearGradient3223"
       id="linearGradient3598"
       gradientUnits="userSpaceOnUse"
       gradientTransform="matrix(1.0316,-0.05624,0.0078542,1.0277,232.34498,-265.67739)"
       x1="167.85001"
       y1="393.79001"
       x2="171.3"
       y2="371.01001" />
    <linearGradient
       inkscape:collect="always"
       xlink:href="#linearGradient3223"
       id="linearGradient3602"
       gradientUnits="userSpaceOnUse"
       gradientTransform="matrix(1.0316,-0.05624,0.0078542,1.0277,232.51598,-265.51839)"
       x1="161.00999"
       y1="403.85001"
       x2="173.38"
       y2="375.14001" />
    <linearGradient
       inkscape:collect="always"
       xlink:href="#linearGradient3223"
       id="linearGradient3609"
       gradientUnits="userSpaceOnUse"
       gradientTransform="matrix(1.0482,-0.046461,-0.0027435,1.0448,212.58598,-275.79139)"
       x1="169.60001"
       y1="404.16"
       x2="176.49001"
       y2="377.57999" />
    <linearGradient
       inkscape:collect="always"
       xlink:href="#linearGradient3223"
       id="linearGradient3612"
       gradientUnits="userSpaceOnUse"
       gradientTransform="matrix(1.0482,-0.046461,-0.0027435,1.0448,212.58648,-275.96339)"
       x1="167.85001"
       y1="393.79001"
       x2="171.3"
       y2="371.01001" />
    <linearGradient
       inkscape:collect="always"
       xlink:href="#linearGradient3223"
       id="linearGradient3615"
       gradientUnits="userSpaceOnUse"
       gradientTransform="matrix(1.0482,-0.046461,-0.0027435,1.0448,212.75808,-275.79939)"
       x1="161.00999"
       y1="403.85001"
       x2="173.38"
       y2="375.14001" />
    <linearGradient
       inkscape:collect="always"
       xlink:href="#linearGradient3223"
       id="linearGradient3622"
       gradientUnits="userSpaceOnUse"
       gradientTransform="matrix(0.99053,-0.0036394,0.0036394,0.99053,259.05398,-304.53539)"
       x1="169.60001"
       y1="404.16"
       x2="176.49001"
       y2="377.57999" />
    <linearGradient
       inkscape:collect="always"
       xlink:href="#linearGradient3223"
       id="linearGradient3625"
       gradientUnits="userSpaceOnUse"
       gradientTransform="matrix(0.99053,-0.0036394,0.0036394,0.99053,259.05298,-304.69739)"
       x1="167.85001"
       y1="393.79001"
       x2="171.3"
       y2="371.01001" />
    <linearGradient
       inkscape:collect="always"
       xlink:href="#linearGradient3223"
       id="linearGradient3628"
       gradientUnits="userSpaceOnUse"
       gradientTransform="matrix(0.99053,-0.0036394,0.0036394,0.99053,259.21698,-304.53539)"
       x1="161.00999"
       y1="403.85001"
       x2="173.38"
       y2="375.14001" />
    <linearGradient
       inkscape:collect="always"
       xlink:href="#linearGradient3223"
       id="linearGradient3635"
       gradientUnits="userSpaceOnUse"
       gradientTransform="matrix(1.0067,-0.012372,0.012372,1.0067,232.63998,-312.03139)"
       x1="169.60001"
       y1="404.16"
       x2="176.49001"
       y2="377.57999" />
    <linearGradient
       inkscape:collect="always"
       xlink:href="#linearGradient3223"
       id="linearGradient3638"
       gradientUnits="userSpaceOnUse"
       gradientTransform="matrix(1.0067,-0.012372,0.012372,1.0067,232.63798,-312.19639)"
       x1="167.85001"
       y1="393.79001"
       x2="171.3"
       y2="371.01001" />
    <linearGradient
       inkscape:collect="always"
       xlink:href="#linearGradient3223"
       id="linearGradient3641"
       gradientUnits="userSpaceOnUse"
       gradientTransform="matrix(1.0067,-0.012372,0.012372,1.0067,232.80498,-312.03339)"
       x1="161.00999"
       y1="403.85001"
       x2="173.38"
       y2="375.14001" />
    <linearGradient
       inkscape:collect="always"
       xlink:href="#linearGradient3223"
       id="linearGradient3648"
       gradientUnits="userSpaceOnUse"
       gradientTransform="matrix(1.023,-0.0021058,0.0021058,1.023,213.30378,-322.91939)"
       x1="169.60001"
       y1="404.16"
       x2="176.49001"
       y2="377.57999" />
    <linearGradient
       inkscape:collect="always"
       xlink:href="#linearGradient3223"
       id="linearGradient3651"
       gradientUnits="userSpaceOnUse"
       gradientTransform="matrix(1.023,-0.0021058,0.0021058,1.023,213.30338,-323.08739)"
       x1="167.85001"
       y1="393.79001"
       x2="171.3"
       y2="371.01001" />
    <linearGradient
       inkscape:collect="always"
       xlink:href="#linearGradient3223"
       id="linearGradient3654"
       gradientUnits="userSpaceOnUse"
       gradientTransform="matrix(1.023,-0.0021058,0.0021058,1.023,213.47168,-322.91939)"
       x1="161.00999"
       y1="403.85001"
       x2="173.38"
       y2="375.14001" />
    <linearGradient
       inkscape:collect="always"
       xlink:href="#linearGradient3223"
       id="linearGradient3661"
       gradientUnits="userSpaceOnUse"
       gradientTransform="matrix(0.96798,0.022555,-0.022555,0.96798,271.83598,-344.51539)"
       x1="169.60001"
       y1="404.16"
       x2="176.49001"
       y2="377.57999" />
    <linearGradient
       inkscape:collect="always"
       xlink:href="#linearGradient3223"
       id="linearGradient3664"
       gradientUnits="userSpaceOnUse"
       gradientTransform="matrix(0.96798,0.022555,-0.022555,0.96798,271.83998,-344.67439)"
       x1="167.85001"
       y1="393.79001"
       x2="171.3"
       y2="371.01001" />
    <linearGradient
       inkscape:collect="always"
       xlink:href="#linearGradient3223"
       id="linearGradient3667"
       gradientUnits="userSpaceOnUse"
       gradientTransform="matrix(0.96798,0.022555,-0.022555,0.96798,271.99498,-344.51139)"
       x1="161.00999"
       y1="403.85001"
       x2="173.38"
       y2="375.14001" />
    <linearGradient
       inkscape:collect="always"
       xlink:href="#linearGradient3223"
       id="linearGradient3674"
       gradientUnits="userSpaceOnUse"
       gradientTransform="matrix(0.98401,0.014448,-0.014448,0.98401,246.22398,-352.53659)"
       x1="169.60001"
       y1="404.16"
       x2="176.49001"
       y2="377.57999" />
    <linearGradient
       inkscape:collect="always"
       xlink:href="#linearGradient3223"
       id="linearGradient3677"
       gradientUnits="userSpaceOnUse"
       gradientTransform="matrix(0.98401,0.014448,-0.014448,0.98401,246.22598,-352.69809)"
       x1="167.85001"
       y1="393.79001"
       x2="171.3"
       y2="371.01001" />
    <linearGradient
       inkscape:collect="always"
       xlink:href="#linearGradient3223"
       id="linearGradient3680"
       gradientUnits="userSpaceOnUse"
       gradientTransform="matrix(0.98401,0.014448,-0.014448,0.98401,246.38498,-352.53429)"
       x1="161.00999"
       y1="403.85001"
       x2="173.38"
       y2="375.14001" />
    <linearGradient
       inkscape:collect="always"
       xlink:href="#linearGradient3223"
       id="linearGradient3687"
       gradientUnits="userSpaceOnUse"
       gradientTransform="matrix(0.99969,0.02491,-0.02491,0.99969,227.61678,-363.68509)"
       x1="169.60001"
       y1="404.16"
       x2="176.49001"
       y2="377.57999" />
    <linearGradient
       inkscape:collect="always"
       xlink:href="#linearGradient3223"
       id="linearGradient3690"
       gradientUnits="userSpaceOnUse"
       gradientTransform="matrix(0.99969,0.02491,-0.02491,0.99969,227.62088,-363.84909)"
       x1="167.85001"
       y1="393.79001"
       x2="171.3"
       y2="371.01001" />
    <linearGradient
       inkscape:collect="always"
       xlink:href="#linearGradient3223"
       id="linearGradient3693"
       gradientUnits="userSpaceOnUse"
       gradientTransform="matrix(0.99969,0.02491,-0.02491,0.99969,227.78088,-363.68099)"
       x1="161.00999"
       y1="403.85001"
       x2="173.38"
       y2="375.14001" />
    <linearGradient
       inkscape:collect="always"
       xlink:href="#linearGradient3926"
       id="linearGradient3698"
       gradientUnits="userSpaceOnUse"
       x1="156.7"
       y1="493.03"
       x2="240.74001"
       y2="493.03"
       gradientTransform="translate(220.34998,-357.09639)" />
    <linearGradient
       inkscape:collect="always"
       xlink:href="#linearGradient3926"
       id="linearGradient3702"
       gradientUnits="userSpaceOnUse"
       gradientTransform="matrix(3.5738819,0,0,0.99671251,-184.11594,-355.47598)"
       x1="73.429001"
       y1="492.89999"
       x2="157.47"
       y2="492.89999" />
  </defs>
  <path
     inkscape:connector-curvature="0"
     style="fill:url(#linearGradient3698);fill-rule:evenodd;stroke:#9a9a9a;stroke-width:1px"
     d="m 377.57998,270.89361 83.01,-8.33 -18.77,-249.199997 -64.27,-12.37999981 0.03,269.90999681 z"
     id="path2385" />
  <path
     style="fill:#668181;fill-rule:evenodd"
     inkscape:connector-curvature="0"
     d="m 382.61998,9.7936132 -0.36,30.2399998 16.75,2.05 -1.1,-29.36 -15.29,-2.9299998 z"
     id="path2387" />
  <path
     style="fill:#ececec;fill-rule:evenodd"
     inkscape:connector-curvature="0"
     d="m 382.56998,13.943613 -0.28,26.07 13.34,1.64 -0.92,-25.62 -12.14,-2.09 z m 0.69,1.05 10.47,1.84 0.13,6.55 -10.71,-1.64 0.11,-6.75 z"
     id="path3161" />
  <path
     inkscape:connector-curvature="0"
     style="fill:url(#linearGradient3693);fill-rule:evenodd"
     d="m 383.31998,22.733613 -0.21,16.3 5.92,0.79 -0.08,-16.3 -5.63,-0.79 z"
     id="path3166" />
  <path
     inkscape:connector-curvature="0"
     style="fill:url(#linearGradient3690);fill-rule:evenodd"
     d="m 383.13998,21.583613 10.64,1.74 0.19,-6.43 -10.75,-1.79 -0.08,6.48 z"
     id="path3170" />
  <path
     inkscape:connector-curvature="0"
     style="fill:url(#linearGradient3687);fill-rule:evenodd"
     d="m 389.68998,23.643613 4.18,0.68 0.7,16.41 -4.88,-0.72 v -16.37 z"
     id="path3172" />
  <path
     style="fill:#004d80;fill-opacity:0.58824002;fill-rule:evenodd;filter:url(#filter3318)"
     inkscape:connector-curvature="0"
     transform="matrix(0.57502,0.014328,-0.02491,0.99969,302.23698,-361.73849)"
     d="m 171.63,383.57 0.7,15.94 5.3,0.55 -1.78,-16.23 -4.22,-0.26 z"
     id="path3168" />
  <path
     style="fill:#004d80;fill-opacity:0.58824002;fill-rule:evenodd;filter:url(#filter3323)"
     inkscape:connector-curvature="0"
     transform="matrix(0.99969,0.02491,-0.02491,0.99969,227.61678,-363.68509)"
     d="m 165.18,374.91 -0.04,2.56 7.93,1.51 0.08,3.5 2.56,0.24 -0.16,-6.35 -10.37,-1.46 z"
     id="path2389" />
  <path
     style="fill:#668181;fill-rule:evenodd"
     inkscape:connector-curvature="0"
     d="m 402.50998,13.423613 -0.04,29.77 16.5,1.85 -1.38,-28.89 -15.08,-2.73 z"
     id="path3327" />
  <path
     style="fill:#ececec;fill-rule:evenodd"
     inkscape:connector-curvature="0"
     d="m 402.50998,17.523613 -0.01,25.65 13.14,1.48 -1.17,-25.2 -11.96,-1.93 z m 0.69,1.01 10.33,1.71 0.18,6.44 -10.55,-1.49 0.04,-6.66 z"
     id="path3329" />
  <path
     inkscape:connector-curvature="0"
     style="fill:url(#linearGradient3680);fill-rule:evenodd"
     d="m 403.32998,26.163613 -0.03,16.04 5.82,0.71 -0.23,-16.03 -5.56,-0.72 z"
     id="path3331" />
  <path
     inkscape:connector-curvature="0"
     style="fill:url(#linearGradient3677);fill-rule:evenodd"
     d="m 403.14998,25.023613 10.49,1.61 0.12,-6.33 -10.6,-1.66 -0.01,6.38 z"
     id="path3333" />
  <path
     inkscape:connector-curvature="0"
     style="fill:url(#linearGradient3674);fill-rule:evenodd"
     d="m 409.60998,26.993613 4.13,0.62 0.84,16.14 -4.8,-0.66 -0.17,-16.1 z"
     id="path3335" />
  <path
     style="fill:#004d80;fill-opacity:0.58824002;fill-rule:evenodd;filter:url(#filter3318)"
     inkscape:connector-curvature="0"
     transform="matrix(0.566,0.0083104,-0.014448,0.98401,319.67398,-351.37229)"
     d="m 171.63,383.57 0.7,15.94 5.3,0.55 -1.78,-16.23 -4.22,-0.26 z"
     id="path3337" />
  <path
     style="fill:#004d80;fill-opacity:0.58824002;fill-rule:evenodd;filter:url(#filter3323)"
     inkscape:connector-curvature="0"
     transform="matrix(0.98401,0.014448,-0.014448,0.98401,226.44748,-355.83279)"
     d="m 185.32,377.96 -0.03,2.57 7.92,1.5 0.08,3.5 2.56,0.24 -0.16,-6.34 -10.37,-1.47 z"
     id="path3339" />
  <path
     style="fill:#668181;fill-rule:evenodd"
     inkscape:connector-curvature="0"
     d="m 422.49998,16.853613 -0.3,29.28 16.22,1.96 -1.11,-28.43 -14.81,-2.81 z"
     id="path3347" />
  <path
     style="fill:#ececec;fill-rule:evenodd"
     inkscape:connector-curvature="0"
     d="m 422.45998,20.883613 -0.23,25.23 12.92,1.58 -0.94,-24.81 -11.75,-2 z m 0.67,1.01 10.14,1.76 0.13,6.34 -10.37,-1.56 0.1,-6.54 z"
     id="path3349" />
  <path
     inkscape:connector-curvature="0"
     style="fill:url(#linearGradient3667);fill-rule:evenodd"
     d="m 423.19998,29.383613 -0.17,15.79 5.72,0.75 -0.1,-15.78 -5.45,-0.76 z"
     id="path3351" />
  <path
     inkscape:connector-curvature="0"
     style="fill:url(#linearGradient3664);fill-rule:evenodd"
     d="m 423.01998,28.273613 10.31,1.67 0.18,-6.22 -10.42,-1.73 -0.07,6.28 z"
     id="path3353" />
  <path
     inkscape:connector-curvature="0"
     style="fill:url(#linearGradient3661);fill-rule:evenodd"
     d="m 429.36998,30.263613 4.05,0.65 0.69,15.88 -4.72,-0.69 -0.02,-15.84 z"
     id="path3355" />
  <path
     style="fill:#004d80;fill-opacity:0.58824002;fill-rule:evenodd;filter:url(#filter3318)"
     inkscape:connector-curvature="0"
     transform="matrix(0.55678,0.012973,-0.022555,0.96798,344.08998,-342.74739)"
     d="m 171.63,383.57 0.7,15.94 5.3,0.55 -1.78,-16.23 -4.22,-0.26 z"
     id="path3357" />
  <path
     style="fill:#004d80;fill-opacity:0.58824002;fill-rule:evenodd;filter:url(#filter3323)"
     inkscape:connector-curvature="0"
     transform="matrix(0.96798,0.022555,-0.022555,0.96798,232.92798,-351.55209)"
     d="m 205.52,381.24 -0.03,2.56 7.92,1.51 0.08,3.5 2.56,0.24 -0.16,-6.35 -10.37,-1.46 z"
     id="path3359" />
  <path
     style="fill:#668181;fill-rule:evenodd"
     inkscape:connector-curvature="0"
     d="m 382.11998,54.743613 0.47,30.93 17.18,1.64 -1.93,-30 -15.72,-2.57 z"
     id="path3367" />
  <path
     style="fill:#ececec;fill-rule:evenodd"
     inkscape:connector-curvature="0"
     d="m 382.17998,58.993613 0.44,26.66 13.69,1.32 -1.65,-26.18 -12.48,-1.8 z m 0.74,1.05 10.76,1.59 0.31,6.7 -11,-1.38 -0.07,-6.91 z"
     id="path3369" />
  <path
     inkscape:connector-curvature="0"
     style="fill:url(#linearGradient3654);fill-rule:evenodd"
     d="m 383.18998,67.963613 0.24,16.67 6.07,0.64 -0.52,-16.66 -5.79,-0.65 z"
     id="path3371" />
  <path
     inkscape:connector-curvature="0"
     style="fill:url(#linearGradient3651);fill-rule:evenodd"
     d="m 382.97998,66.783613 10.93,1.49 0.02,-6.58 -11.05,-1.54 0.1,6.63 z"
     id="path3373" />
  <path
     inkscape:connector-curvature="0"
     style="fill:url(#linearGradient3648);fill-rule:evenodd"
     d="m 389.72998,68.713613 4.3,0.58 1.16,16.76 -5,-0.6 -0.46,-16.74 z"
     id="path3375" />
  <path
     style="fill:#004d80;fill-opacity:0.58824002;fill-rule:evenodd;filter:url(#filter3318)"
     inkscape:connector-curvature="0"
     transform="matrix(0.58844,-0.0012113,0.0021058,1.023,289.66798,-322.98739)"
     d="m 171.63,383.57 0.7,15.94 5.3,0.55 -1.78,-16.23 -4.22,-0.26 z"
     id="path3377" />
  <path
     style="fill:#004d80;fill-opacity:0.58824002;fill-rule:evenodd;filter:url(#filter3323)"
     inkscape:connector-curvature="0"
     transform="matrix(1.023,-0.0021058,0.0021058,1.023,213.30378,-322.91939)"
     d="m 165.18,374.91 -0.04,2.56 7.93,1.51 0.08,3.5 2.56,0.24 -0.16,-6.35 -10.37,-1.46 z"
     id="path3379" />
  <path
     style="fill:#668181;fill-rule:evenodd"
     inkscape:connector-curvature="0"
     d="m 402.56998,57.913613 0.77,30.44 16.93,1.43 -2.21,-29.5 -15.49,-2.37 z"
     id="path3381" />
  <path
     style="fill:#ececec;fill-rule:evenodd"
     inkscape:connector-curvature="0"
     d="m 402.66998,62.093613 0.7,26.24 13.49,1.15 -1.89,-25.74 -12.3,-1.65 z m 0.74,1.03 10.61,1.46 0.36,6.58 -10.83,-1.24 -0.14,-6.8 z"
     id="path3383" />
  <path
     inkscape:connector-curvature="0"
     style="fill:url(#linearGradient3641);fill-rule:evenodd"
     d="m 403.75998,70.913613 0.4,16.4 5.98,0.57 -0.68,-16.39 -5.7,-0.58 z"
     id="path3385" />
  <path
     inkscape:connector-curvature="0"
     style="fill:url(#linearGradient3638);fill-rule:evenodd"
     d="m 403.52998,69.753613 10.78,1.36 -0.05,-6.48 -10.89,-1.4 0.16,6.52 z"
     id="path3387" />
  <path
     inkscape:connector-curvature="0"
     style="fill:url(#linearGradient3635);fill-rule:evenodd"
     d="m 410.19998,71.593613 4.24,0.52 1.31,16.48 -4.93,-0.54 -0.62,-16.46 z"
     id="path3389" />
  <path
     style="fill:#004d80;fill-opacity:0.58824002;fill-rule:evenodd;filter:url(#filter3318)"
     inkscape:connector-curvature="0"
     transform="matrix(0.57905,-0.0071165,0.012372,1.0067,307.78698,-312.86739)"
     d="m 171.63,383.57 0.7,15.94 5.3,0.55 -1.78,-16.23 -4.22,-0.26 z"
     id="path3391" />
  <path
     style="fill:#004d80;fill-opacity:0.58824002;fill-rule:evenodd;filter:url(#filter3323)"
     inkscape:connector-curvature="0"
     transform="matrix(1.0067,-0.012372,0.012372,1.0067,212.32458,-314.85639)"
     d="m 185.32,377.96 -0.03,2.57 7.92,1.5 0.08,3.5 2.56,0.24 -0.16,-6.34 -10.37,-1.47 z"
     id="path3393" />
  <path
     style="fill:#668181;fill-rule:evenodd"
     inkscape:connector-curvature="0"
     d="m 423.09998,60.863613 0.5,29.96 16.64,1.55 -1.92,-29.04 -15.22,-2.47 z"
     id="path3395" />
  <path
     style="fill:#ececec;fill-rule:evenodd"
     inkscape:connector-curvature="0"
     d="m 423.16998,64.983613 0.46,25.82 13.26,1.25 -1.64,-25.35 -12.08,-1.72 z m 0.71,1.01 10.43,1.53 0.3,6.48 -10.65,-1.31 -0.08,-6.7 z"
     id="path3397" />
  <path
     inkscape:connector-curvature="0"
     style="fill:url(#linearGradient3628);fill-rule:evenodd"
     d="m 424.15998,73.663613 0.26,16.14 5.87,0.61 -0.53,-16.13 -5.6,-0.62 z"
     id="path3399" />
  <path
     inkscape:connector-curvature="0"
     style="fill:url(#linearGradient3625);fill-rule:evenodd"
     d="m 423.94998,72.533613 10.58,1.42 0.02,-6.37 -10.7,-1.48 0.1,6.43 z"
     id="path3401" />
  <path
     inkscape:connector-curvature="0"
     style="fill:url(#linearGradient3622);fill-rule:evenodd"
     d="m 430.48998,74.383613 4.17,0.55 1.14,16.23 -4.84,-0.57 -0.47,-16.21 z"
     id="path3403" />
  <path
     style="fill:#004d80;fill-opacity:0.58824002;fill-rule:evenodd;filter:url(#filter3318)"
     inkscape:connector-curvature="0"
     transform="matrix(0.56975,-0.0020934,0.0036394,0.99053,332.98998,-304.72039)"
     d="m 171.63,383.57 0.7,15.94 5.3,0.55 -1.78,-16.23 -4.22,-0.26 z"
     id="path3405" />
  <path
     style="fill:#004d80;fill-opacity:0.58824002;fill-rule:evenodd;filter:url(#filter3323)"
     inkscape:connector-curvature="0"
     transform="matrix(0.99053,-0.0036394,0.0036394,0.99053,219.07048,-310.65839)"
     d="m 205.52,381.24 -0.03,2.56 7.92,1.51 0.08,3.5 2.56,0.24 -0.16,-6.35 -10.37,-1.46 z"
     id="path3407" />
  <path
     style="fill:#668181;fill-rule:evenodd"
     inkscape:connector-curvature="0"
     d="m 383.74998,102.61361 0.34,31.58 17.59,0.92 -1.83,-30.55 -16.1,-1.95 z"
     id="path3427" />
  <path
     style="fill:#ececec;fill-rule:evenodd"
     inkscape:connector-curvature="0"
     d="m 383.79998,106.95361 0.32,27.22 14.02,0.75 -1.57,-26.67 -12.77,-1.3 z m 0.75,1.04 11.02,1.16 0.28,6.83 -11.26,-0.93 -0.04,-7.06 z"
     id="path3429" />
  <path
     inkscape:connector-curvature="0"
     style="fill:url(#linearGradient3615);fill-rule:evenodd"
     d="m 384.78998,116.07361 0.17,17.01 6.21,0.4 -0.46,-17 -5.92,-0.41 z"
     id="path3431" />
  <path
     inkscape:connector-curvature="0"
     style="fill:url(#linearGradient3612);fill-rule:evenodd"
     d="m 384.56998,114.88361 11.2,1.04 0.05,-6.72 -11.31,-1.09 0.06,6.77 z"
     id="path3433" />
  <path
     inkscape:connector-curvature="0"
     style="fill:url(#linearGradient3609);fill-rule:evenodd"
     d="m 391.48998,116.56361 4.4,0.4 1.11,17.07 -5.13,-0.4 -0.38,-17.07 z"
     id="path3435" />
  <path
     style="fill:#004d80;fill-opacity:0.58824002;fill-rule:evenodd;filter:url(#filter3318)"
     inkscape:connector-curvature="0"
     transform="matrix(0.60295,-0.026724,-0.0027435,1.0448,290.83198,-279.16839)"
     d="m 171.63,383.57 0.7,15.94 5.3,0.55 -1.78,-16.23 -4.22,-0.26 z"
     id="path3437" />
  <path
     style="fill:#004d80;fill-opacity:0.58824002;fill-rule:evenodd;filter:url(#filter3323)"
     inkscape:connector-curvature="0"
     transform="matrix(1.0482,-0.046461,-0.0027435,1.0448,212.58598,-275.79139)"
     d="m 165.18,374.91 -0.04,2.56 7.93,1.51 0.08,3.5 2.56,0.24 -0.16,-6.35 -10.37,-1.46 z"
     id="path3439" />
  <path
     style="fill:#668181;fill-rule:evenodd"
     inkscape:connector-curvature="0"
     d="m 404.68998,104.97361 0.65,31.05 17.33,0.73 -2.12,-30.03 -15.86,-1.75 z"
     id="path3441" />
  <path
     style="fill:#ececec;fill-rule:evenodd"
     inkscape:connector-curvature="0"
     d="m 404.77998,109.24361 0.59,26.76 13.81,0.59 -1.82,-26.21 -12.58,-1.14 z m 0.75,1.01 10.86,1.03 0.34,6.71 -11.09,-0.8 -0.11,-6.94 z"
     id="path3443" />
  <path
     inkscape:connector-curvature="0"
     style="fill:url(#linearGradient3602);fill-rule:evenodd"
     d="m 405.84998,118.19361 0.33,16.74 6.13,0.32 -0.63,-16.71 -5.83,-0.35 z"
     id="path3445" />
  <path
     inkscape:connector-curvature="0"
     style="fill:url(#linearGradient3598);fill-rule:evenodd"
     d="m 405.61998,117.02361 11.03,0.92 -0.01,-6.61 -11.15,-0.97 0.13,6.66 z"
     id="path3447" />
  <path
     inkscape:connector-curvature="0"
     style="fill:url(#linearGradient3595);fill-rule:evenodd"
     d="m 412.43998,118.60361 4.34,0.35 1.27,16.78 -5.05,-0.34 -0.56,-16.79 z"
     id="path3449" />
  <path
     style="fill:#004d80;fill-opacity:0.58824002;fill-rule:evenodd;filter:url(#filter3318)"
     inkscape:connector-curvature="0"
     transform="matrix(0.59336,-0.032349,0.0078542,1.0277,309.34898,-269.61739)"
     d="m 171.63,383.57 0.7,15.94 5.3,0.55 -1.78,-16.23 -4.22,-0.26 z"
     id="path3451" />
  <path
     style="fill:#004d80;fill-opacity:0.58824002;fill-rule:evenodd;filter:url(#filter3323)"
     inkscape:connector-curvature="0"
     transform="matrix(1.0316,-0.05624,0.0078542,1.0277,211.54408,-267.51439)"
     d="m 185.32,377.96 -0.03,2.57 7.92,1.5 0.08,3.5 2.56,0.24 -0.16,-6.34 -10.37,-1.47 z"
     id="path3453" />
  <path
     style="fill:#668181;fill-rule:evenodd"
     inkscape:connector-curvature="0"
     d="m 425.70998,107.09361 0.38,30.57 17.04,0.87 -1.83,-29.58 -15.59,-1.86 z"
     id="path3455" />
  <path
     style="fill:#ececec;fill-rule:evenodd"
     inkscape:connector-curvature="0"
     d="m 425.75998,111.30361 0.36,26.34 13.57,0.71 -1.56,-25.82 -12.37,-1.23 z m 0.73,1 10.67,1.11 0.29,6.6 -10.91,-0.88 -0.05,-6.83 z"
     id="path3457" />
  <path
     inkscape:connector-curvature="0"
     style="fill:url(#linearGradient3588);fill-rule:evenodd"
     d="m 426.73998,120.12361 0.19,16.47 6.01,0.37 -0.47,-16.45 -5.73,-0.39 z"
     id="path3459" />
  <path
     inkscape:connector-curvature="0"
     style="fill:url(#linearGradient3585);fill-rule:evenodd"
     d="m 426.52998,118.97361 10.84,0.99 0.04,-6.5 -10.96,-1.05 0.08,6.56 z"
     id="path3461" />
  <path
     inkscape:connector-curvature="0"
     style="fill:url(#linearGradient3582);fill-rule:evenodd"
     d="m 433.21998,120.58361 4.27,0.38 1.1,16.53 -4.97,-0.38 -0.4,-16.53 z"
     id="path3463" />
  <path
     style="fill:#004d80;fill-opacity:0.58824002;fill-rule:evenodd;filter:url(#filter3318)"
     inkscape:connector-curvature="0"
     transform="matrix(0.5838,-0.026816,-0.0010165,1.0115,335.13998,-262.38839)"
     d="m 171.63,383.57 0.7,15.94 5.3,0.55 -1.78,-16.23 -4.22,-0.26 z"
     id="path3465" />
  <path
     style="fill:#004d80;fill-opacity:0.58824002;fill-rule:evenodd;filter:url(#filter3323)"
     inkscape:connector-curvature="0"
     transform="matrix(1.015,-0.04662,-0.0010165,1.0115,218.43608,-263.51839)"
     d="m 205.52,381.24 -0.03,2.56 7.92,1.51 0.08,3.5 2.56,0.24 -0.16,-6.35 -10.37,-1.46 z"
     id="path3467" />
  <path
     style="fill:#668181;fill-rule:evenodd"
     inkscape:connector-curvature="0"
     d="m 385.19998,153.94361 1.53,32.21 18.01,-0.12 -3.02,-31.08 -16.52,-1.01 z"
     id="path3487" />
  <path
     style="fill:#ececec;fill-rule:evenodd"
     inkscape:connector-curvature="0"
     d="m 385.40998,158.37361 1.35,27.75 14.35,-0.08 -2.6,-27.13 -13.1,-0.54 z m 0.81,1.01 11.3,0.52 0.54,6.94 -11.54,-0.26 -0.3,-7.2 z"
     id="path3489" />
  <path
     inkscape:connector-curvature="0"
     style="fill:url(#linearGradient3575);fill-rule:evenodd"
     d="m 386.75998,167.61361 0.81,17.36 6.37,0.02 -1.11,-17.32 -6.07,-0.06 z"
     id="path3491" />
  <path
     inkscape:connector-curvature="0"
     style="fill:url(#linearGradient3572);fill-rule:evenodd"
     d="m 386.49998,166.41361 11.48,0.39 -0.2,-6.87 -11.6,-0.43 0.32,6.91 z"
     id="path3493" />
  <path
     inkscape:connector-curvature="0"
     style="fill:url(#linearGradient3569);fill-rule:evenodd"
     d="m 393.61998,167.70361 4.52,0.15 1.77,17.35 -5.25,-0.09 -1.04,-17.41 z"
     id="path3495" />
  <path
     style="fill:#004d80;fill-opacity:0.58824002;fill-rule:evenodd;filter:url(#filter3318)"
     inkscape:connector-curvature="0"
     transform="matrix(0.61503,-0.06386,0.036345,1.0667,275.95898,-230.16639)"
     d="m 171.63,383.57 0.7,15.94 5.3,0.55 -1.78,-16.23 -4.22,-0.26 z"
     id="path3497" />
  <path
     style="fill:#004d80;fill-opacity:0.58824002;fill-rule:evenodd;filter:url(#filter3323)"
     inkscape:connector-curvature="0"
     transform="matrix(1.0693,-0.11102,0.036345,1.0667,196.14098,-221.97639)"
     d="m 165.18,374.91 -0.04,2.56 7.93,1.51 0.08,3.5 2.56,0.24 -0.16,-6.35 -10.37,-1.46 z"
     id="path3499" />
  <path
     style="fill:#668181;fill-rule:evenodd"
     inkscape:connector-curvature="0"
     d="m 406.67998,155.07361 1.83,31.66 17.74,-0.3 -3.29,-30.53 -16.28,-0.83 z"
     id="path3501" />
  <path
     style="fill:#ececec;fill-rule:evenodd"
     inkscape:connector-curvature="0"
     d="m 406.92998,159.42361 1.61,27.29 14.13,-0.23 -2.84,-26.65 -12.9,-0.41 z m 0.81,0.99 11.13,0.4 0.6,6.82 -11.36,-0.14 -0.37,-7.08 z"
     id="path3503" />
  <path
     inkscape:connector-curvature="0"
     style="fill:url(#linearGradient3562);fill-rule:evenodd"
     d="m 408.35998,168.50361 0.97,17.06 6.27,-0.04 -1.26,-17.02 h -5.98 z"
     id="path3505" />
  <path
     inkscape:connector-curvature="0"
     style="fill:url(#linearGradient3559);fill-rule:evenodd"
     d="m 408.08998,167.32361 11.3,0.26 -0.26,-6.74 -11.43,-0.31 0.39,6.79 z"
     id="path3507" />
  <path
     inkscape:connector-curvature="0"
     style="fill:url(#linearGradient3556);fill-rule:evenodd"
     d="m 415.11998,168.52361 4.44,0.1 1.92,17.05 -5.17,-0.05 -1.19,-17.1 z"
     id="path3509" />
  <path
     style="fill:#004d80;fill-opacity:0.58824002;fill-rule:evenodd;filter:url(#filter3318)"
     inkscape:connector-curvature="0"
     transform="matrix(0.60502,-0.06902,0.046532,1.0486,295.23498,-221.53639)"
     d="m 171.63,383.57 0.7,15.94 5.3,0.55 -1.78,-16.23 -4.22,-0.26 z"
     id="path3511" />
  <path
     style="fill:#004d80;fill-opacity:0.58824002;fill-rule:evenodd;filter:url(#filter3323)"
     inkscape:connector-curvature="0"
     transform="matrix(1.0519,-0.11999,0.046532,1.0486,195.38698,-213.45639)"
     d="m 185.32,377.96 -0.03,2.57 7.92,1.5 0.08,3.5 2.56,0.24 -0.16,-6.34 -10.37,-1.47 z"
     id="path3513" />
  <path
     style="fill:#668181;fill-rule:evenodd"
     inkscape:connector-curvature="0"
     d="m 428.23998,155.96361 1.53,31.19 17.44,-0.15 -2.98,-30.08 -15.99,-0.96 z"
     id="path3515" />
  <path
     style="fill:#ececec;fill-rule:evenodd"
     inkscape:connector-curvature="0"
     d="m 428.44998,160.25361 1.35,26.88 13.89,-0.11 -2.56,-26.26 -12.68,-0.51 z m 0.78,0.98 10.95,0.49 0.53,6.72 -11.17,-0.24 -0.31,-6.97 z"
     id="path3517" />
  <path
     inkscape:connector-curvature="0"
     style="fill:url(#linearGradient3549);fill-rule:evenodd"
     d="m 429.76998,169.20361 0.82,16.81 6.16,0.01 -1.1,-16.77 -5.88,-0.05 z"
     id="path3519" />
  <path
     inkscape:connector-curvature="0"
     style="fill:url(#linearGradient3546);fill-rule:evenodd"
     d="m 429.51998,168.04361 11.11,0.35 -0.2,-6.64 -11.23,-0.4 0.32,6.69 z"
     id="path3521" />
  <path
     inkscape:connector-curvature="0"
     style="fill:url(#linearGradient3542);fill-rule:evenodd"
     d="m 436.41998,169.28361 4.37,0.13 1.74,16.8 -5.08,-0.08 -1.03,-16.85 z"
     id="path3523" />
  <path
     style="fill:#004d80;fill-opacity:0.58824002;fill-rule:evenodd;filter:url(#filter3318)"
     inkscape:connector-curvature="0"
     transform="matrix(0.59546,-0.062792,0.036864,1.0327,321.84998,-215.72639)"
     d="m 171.63,383.57 0.7,15.94 5.3,0.55 -1.78,-16.23 -4.22,-0.26 z"
     id="path3525" />
  <path
     style="fill:#004d80;fill-opacity:0.58824002;fill-rule:evenodd;filter:url(#filter3323)"
     inkscape:connector-curvature="0"
     transform="matrix(1.0352,-0.10917,0.036864,1.0327,202.57798,-209.79639)"
     d="m 205.52,381.24 -0.03,2.56 7.92,1.51 0.08,3.5 2.56,0.24 -0.16,-6.35 -10.37,-1.46 z"
     id="path3527" />
  <path
     style="fill:#668181;fill-rule:evenodd"
     inkscape:connector-curvature="0"
     d="m 386.14998,209.65361 1.65,34.73 19.49,-1.49 -3.27,-33.4 -17.87,0.16 z"
     id="path3547" />
  <path
     style="fill:#ececec;fill-rule:evenodd"
     inkscape:connector-curvature="0"
     d="m 386.37998,214.42361 1.46,29.93 15.52,-1.17 -2.81,-29.16 -14.17,0.4 z m 0.87,1.04 12.23,-0.3 0.58,7.48 -12.48,0.59 -0.33,-7.77 z"
     id="path3549" />
  <path
     inkscape:connector-curvature="0"
     style="fill:url(#linearGradient3534);fill-rule:evenodd"
     d="m 387.83998,224.32361 0.88,18.72 6.88,-0.45 -1.19,-18.66 -6.57,0.39 z"
     id="path3551" />
  <path
     inkscape:connector-curvature="0"
     style="fill:url(#linearGradient3530);fill-rule:evenodd"
     d="m 387.55998,223.04361 12.41,-0.45 -0.21,-7.41 -12.55,0.41 0.35,7.45 z"
     id="path3553" />
  <path
     inkscape:connector-curvature="0"
     style="fill:url(#linearGradient3527);fill-rule:evenodd"
     d="m 395.26998,223.90361 4.88,-0.18 1.92,18.64 -5.69,0.3 -1.11,-18.76 z"
     id="path3555" />
  <path
     style="fill:#004d80;fill-opacity:0.58824002;fill-rule:evenodd;filter:url(#filter3318)"
     inkscape:connector-curvature="0"
     transform="matrix(0.66543,-0.11557,0.039323,1.1514,267.95798,-197.67639)"
     d="m 171.63,383.57 0.7,15.94 5.3,0.55 -1.78,-16.23 -4.22,-0.26 z"
     id="path3557" />
  <path
     style="fill:#004d80;fill-opacity:0.58824002;fill-rule:evenodd;filter:url(#filter3323)"
     inkscape:connector-curvature="0"
     transform="matrix(1.1569,-0.20092,0.039323,1.1514,181.59998,-182.77639)"
     d="m 165.18,374.91 -0.04,2.56 7.93,1.51 0.08,3.5 2.56,0.24 -0.16,-6.35 -10.37,-1.46 z"
     id="path3559" />
  <path
     style="fill:#668181;fill-rule:evenodd"
     inkscape:connector-curvature="0"
     d="m 408.96998,209.26361 3.82,58.13 18.04,-1.63 -4.66,-56.82 -17.2,0.32 z"
     id="path3561" />
  <path
     style="fill:#668181;fill-rule:evenodd"
     inkscape:connector-curvature="0"
     d="m 431.71998,208.62361 1.59,32.31 18.13,-1.42 -3.09,-31.06 -16.63,0.17 z"
     id="path3575" />
  <path
     style="fill:#ececec;fill-rule:evenodd"
     inkscape:connector-curvature="0"
     d="m 431.93998,213.07361 1.4,27.84 14.45,-1.12 -2.67,-27.12 -13.18,0.4 z m 0.81,0.96 11.38,-0.29 0.56,6.95 -11.62,0.56 -0.32,-7.22 z"
     id="path3577" />
  <path
     inkscape:connector-curvature="0"
     style="fill:url(#linearGradient3519);fill-rule:evenodd"
     d="m 433.31998,222.27361 0.84,17.42 6.41,-0.44 -1.14,-17.35 -6.11,0.37 z"
     id="path3579" />
  <path
     inkscape:connector-curvature="0"
     style="fill:url(#linearGradient3516);fill-rule:evenodd"
     d="m 433.04998,221.08361 11.55,-0.43 -0.21,-6.9 -11.67,0.4 0.33,6.93 z"
     id="path3581" />
  <path
     inkscape:connector-curvature="0"
     style="fill:url(#linearGradient3513);fill-rule:evenodd"
     d="m 440.22998,221.87361 4.54,-0.18 1.81,17.34 -5.29,0.28 -1.06,-17.44 z"
     id="path3583" />
  <path
     style="fill:#004d80;fill-opacity:0.58824002;fill-rule:evenodd;filter:url(#filter3318)"
     inkscape:connector-curvature="0"
     transform="matrix(0.61906,-0.10852,0.038324,1.0709,321.11998,-170.06639)"
     d="m 171.63,383.57 0.7,15.94 5.3,0.55 -1.78,-16.23 -4.22,-0.26 z"
     id="path3585" />
  <path
     style="fill:#004d80;fill-opacity:0.58824002;fill-rule:evenodd;filter:url(#filter3323)"
     inkscape:connector-curvature="0"
     transform="matrix(1.0763,-0.18866,0.038324,1.0709,197.11998,-155.24639)"
     d="m 205.52,381.24 -0.03,2.56 7.92,1.51 0.08,3.5 2.56,0.24 -0.16,-6.35 -10.37,-1.46 z"
     id="path3587" />
  <path
     inkscape:connector-curvature="0"
     style="fill:url(#linearGradient3702);fill-rule:evenodd;stroke:#9a9a9a;stroke-width:1.88736129px"
     d="M 376.76908,270.31993 92.213512,270.09461 104.49225,0.94368064 376.8763,1.2872938 z"
     id="path3607"
     sodipodi:nodetypes="ccccc" />
  <path
     style="fill:#3b1f1f;fill-rule:evenodd"
     inkscape:connector-curvature="0"
     d="m 412.62998,262.74361 -3.3,-49.13 h 13.46 l 3.78,47.48 -13.94,1.65 z"
     id="path3909" />
  <path
     style="fill:#b3b3b3;fill-rule:evenodd"
     inkscape:connector-curvature="0"
     d="m 407.31998,268.23361 c 0.95,0 12.06,4.43 12.06,4.43 l -0.48,-6.54 -11.65,-4.27 0.07,6.38 z"
     id="path3911" />
  <path
     style="fill:#808080;fill-rule:evenodd"
     inkscape:connector-curvature="0"
     d="m 419.24998,272.66361 c 0.94,0 21.26,-4.49 21.26,-4.49 l -0.19,-4.55 -21.54,2.43 0.47,6.61 z"
     id="path3913" />
  <path
     style="fill:#cccccc;fill-rule:evenodd"
     inkscape:connector-curvature="0"
     d="m 407.15998,261.92361 11.44,4.18 21.78,-2.49 -8.03,-2.72 -1.96,0.08 -3.95,-0.92 -14.07,0.73 0.07,1.03 -5.28,0.11 z"
     id="path3915" />
  <path
     style="fill:#483737;fill-rule:evenodd"
     inkscape:connector-curvature="0"
     d="m 411.85998,232.79361 c -0.15,-2.48 -1.17,-15.32 -1.17,-15.32 l 8.1,0.07 1.53,15.54 -8.46,-0.29 z"
     id="path3921" />
  <path
     style="fill:#483737;fill-rule:evenodd"
     inkscape:connector-curvature="0"
     d="m 413.49998,256.79361 c -0.22,-1.75 -1.24,-19.77 -1.24,-19.77 l 8.46,0.44 1.76,18.75 -8.98,0.58 z"
     id="path3923" />
  <path
     style="fill:#280b0b;fill-rule:evenodd"
     inkscape:connector-curvature="0"
     d="m 421.34998,234.76361 2.18,-0.07 -0.94,1.89 -1.24,-1.82 z"
     id="path3917" />
  <metadata
     id="metadata319">
    <rdf:RDF>
      <cc:Work>
        <dc:format>image/svg+xml</dc:format>
        <dc:type
           rdf:resource="http://purl.org/dc/dcmitype/StillImage" />
        <cc:license
           rdf:resource="http://creativecommons.org/licenses/publicdomain/" />
        <dc:publisher>
          <cc:Agent
             rdf:about="http://openclipart.org/">
            <dc:title>Openclipart</dc:title>
          </cc:Agent>
        </dc:publisher>
        <dc:title />
        <dc:date>2009-02-09T20:08:40</dc:date>
        <dc:description>building, building, clip art, clipart, image, media, png, public domain, svg, </dc:description>
        <dc:source>http://openclipart.org/detail/21547/build-by-buggi-21547</dc:source>
        <dc:creator>
          <cc:Agent>
            <dc:title>buggi</dc:title>
          </cc:Agent>
        </dc:creator>
        <dc:subject>
          <rdf:Bag>
            <rdf:li>building</rdf:li>
            <rdf:li>clip art</rdf:li>
            <rdf:li>clipart</rdf:li>
            <rdf:li>image</rdf:li>
            <rdf:li>media</rdf:li>
            <rdf:li>png</rdf:li>
            <rdf:li>public domain</rdf:li>
            <rdf:li>svg</rdf:li>
          </rdf:Bag>
        </dc:subject>
      </cc:Work>
      <cc:License
         rdf:about="http://creativecommons.org/licenses/publicdomain/">
        <cc:permits
           rdf:resource="http://creativecommons.org/ns#Reproduction" />
        <cc:permits
           rdf:resource="http://creativecommons.org/ns#Distribution" />
        <cc:permits
           rdf:resource="http://creativecommons.org/ns#DerivativeWorks" />
      </cc:License>
    </rdf:RDF>
  </metadata>
</svg>
