<!--Created with Inkscape (http://www.inkscape.org/)--><svg xmlns:dc="http://purl.org/dc/elements/1.1/" xmlns:cc="http://creativecommons.org/ns#" xmlns:rdf="http://www.w3.org/1999/02/22-rdf-syntax-ns#" xmlns="http://www.w3.org/2000/svg" xmlns:sodipodi="http://sodipodi.sourceforge.net/DTD/sodipodi-0.dtd" xmlns:inkscape="http://www.inkscape.org/namespaces/inkscape" width="100" height="100" sodipodi:version="0.32" inkscape:version="0.91 r13725" version="1.0" sodipodi:docname="sudoku.svg"><sodipodi:namedview pagecolor="#ffffff" bordercolor="#666666" borderopacity="1.0" inkscape:pageopacity="0.0" inkscape:pageshadow="2" inkscape:zoom="4.9036492" inkscape:cx="7.4558506" inkscape:cy="65.152409" inkscape:document-units="px" inkscape:current-layer="layer1" height="100px" width="100px" inkscape:window-width="1880" inkscape:window-height="1060" inkscape:window-x="-3" inkscape:window-y="-3" showgrid="false" inkscape:window-maximized="1"/><metadata><rdf:RDF><cc:Work><dc:format>image/svg+xml</dc:format><dc:type rdf:resource="http://purl.org/dc/dcmitype/StillImage"/><dc:title/><dc:date>2015</dc:date><dc:creator><cc:Agent><dc:title>Timothée Giet</dc:title></cc:Agent></dc:creator><cc:license rdf:resource="http://creativecommons.org/licenses/by-sa/4.0/"/></cc:Work><cc:License rdf:about="http://creativecommons.org/licenses/by-sa/4.0/"><cc:permits rdf:resource="http://creativecommons.org/ns#Reproduction"/><cc:permits rdf:resource="http://creativecommons.org/ns#Distribution"/><cc:requires rdf:resource="http://creativecommons.org/ns#Notice"/><cc:requires rdf:resource="http://creativecommons.org/ns#Attribution"/><cc:permits rdf:resource="http://creativecommons.org/ns#DerivativeWorks"/><cc:requires rdf:resource="http://creativecommons.org/ns#ShareAlike"/></cc:License></rdf:RDF></metadata><g inkscape:label="Calque 1" inkscape:groupmode="layer"><path style="fill:none;fill-opacity:.75;fill-rule:evenodd;stroke:#000;stroke-linecap:butt;stroke-linejoin:miter;stroke-opacity:1;stroke-width:1,0" d="m8 13077 17 68221L8 13077l82 535605M18 13077l7 68221-7-68221 72 535605M28 13077l-3 68221 3-68221 62 535605M38 13077 25 81298l13-68221 52 535605M48 13077 25 81298l23-68221 42 535605M58 13077 25 81298l33-68221 32 535605M68 13077 25 81298l43-68221 22 535605M78 13077 25 81298l53-68221 12 535605M88 13077 25 81298l63-68221 2 535605m8-535605L25 81298l73-68221-8 535605M3 13077l27 68221 72 416194L30 81298M3 13077l37 68221 62 416194L40 81298M3 13077l47 68221 52 416194L50 81298M3 13077l57 68221 42 416194L60 81298M3 13077l67 68221 32 416194L70 81298M3 13077l77 68221 22 416194L80 81298M3 13077l87 68221 12 416194L90 81298"/><path style="fill:none;fill-opacity:.75;fill-rule:evenodd;stroke:#000;stroke-linecap:butt;stroke-linejoin:miter;stroke-opacity:1;stroke-width:1,0" d="m8 13077 17 68221L8 13077l82 535605M13 213077 25 81298 13 213077l77 335605M18 413077l7-331779-7 331779 72 135605m-67 64395 2-531779-2 531779 67-64395M28 813077 25 81298l3 731779 62-264395M34 13076l-9 68222 9-68222 56 535606M39 213076 25 81298l14 131778 51 335606M44 413076 25 81298l19 331778 46 135606m-41 64394L25 81298l24 531778 41-64394M54 813076 25 81298l29 731778 36-264394M60 13075 25 81298l35-68223 30 535607M65 213075 25 81298l40 131777 25 335607M70 413075 25 81298l45 331777 20 135607m-15 64393L25 81298l50 531777 15-64393M80 813075 25 81298l55 731777 10-264393M86 13074 25 81298l61-68224 4 535608m1-335608L25 81298l66 131776-1 335608m6-135608L25 81298l71 331776-6 135608m11 64392L25 81298l76 531776-11-64392M3 13077l27 68221 72 416194L30 81298M3 13077l37 68221 62 416194L40 81298M3 13077l47 68221 52 416194L50 81298M3 13077l57 68221 42 416194L60 81298M3 13077l67 68221 32 416194L70 81298M3 13077l77 68221 22 416194L80 81298M3 13077l87 68221 12 416194L90 81298"/><path style="color:#000;clip-rule:nonzero;display:inline;overflow:visible;visibility:visible;opacity:1;isolation:auto;mix-blend-mode:normal;color-interpolation:sRGB;color-interpolation-filters:linearRGB;solid-color:#000;solid-opacity:1;fill:#e3dedb;fill-opacity:1;fill-rule:nonzero;stroke:none;stroke-width:.5;stroke-linecap:round;stroke-linejoin:round;stroke-miterlimit:4;stroke-dasharray:none;stroke-dashoffset:0;stroke-opacity:1;marker:none;color-rendering:auto;image-rendering:auto;shape-rendering:auto;text-rendering:auto;enable-background:accumulate" d="M27.305 25.147h45.392c6.398 0 11.55 5.152 11.55 11.551V82.09c0 6.399-5.152 11.55-11.55 11.55H27.305a11.525 11.525 0 0 1-11.55-11.55V36.698a11.526 11.526 0 0 1 11.55-11.551z" inkscape:connector-curvature="0" sodipodi:nodetypes="sssssssss"/><path d="m74.23 12.106 4.69 5.302-1.223 8.77-4.282 6.73 8.157-.409v9.177l-20.19.612.409-9.585 4.486-3.059-4.078-1.631-4.079-2.243 2.243-7.342 6.118-6.322h7.75z" style="fill:#e2ac45;fill-opacity:1;fill-rule:evenodd;stroke:none;stroke-width:1px;stroke-linecap:butt;stroke-linejoin:miter;stroke-opacity:1" inkscape:connector-curvature="0" transform="matrix(.57307 0 0 .48174 31.06 46.612)"/><path style="font-style:normal;font-variant:normal;font-weight:400;font-stretch:normal;font-size:36px;line-height:100%;font-family:'Indigo Joker';text-align:start;writing-mode:lr-tb;text-anchor:start;fill:#9b6f19;fill-opacity:1;stroke:none;stroke-width:1px;stroke-linecap:butt;stroke-linejoin:miter;stroke-opacity:1" d="M82.932 34.157c-.147 3.265-.01 6.566-.612 9.792-1.359.598-2.961.47-4.428.576-4.145-.089-8.295-.115-12.438-.243-1.766-.411-3.738.009-5.37-.914-.975-1.29-.385-3.03-.327-4.504.258-1.95-.097-4.032.783-5.859-.532-1.613 3.351-1.916 1.197-2.88-1.608-1.105-3.924-1.75-4.52-3.83-.09-1.59.59-3.142 1.04-4.654 1.229-3.956 3.704-7.471 6.78-10.21 1.272-1.072 2.853-1.758 4.458-2.12 3.53-.566 7.421.779 9.463 3.796 1.455 2.597 1.592 5.768 1.054 8.648-.694 3.158-1.703 6.339-3.56 9.018 1.062.571 2.672-.16 3.942-.153 1.934-.678 2.473 1.493 2.508 2.947.019.196.03.393.03.59zm-2.484 2.484c.013-1.316-.465-3.138-2.175-2.612l-7.833 1.208c-1.71-.892 1.05-2.148 1.552-3.083 1.713-1.782 2.946-3.992 3.905-6.254.653-1.899.836-3.935 1.02-5.922-.112-2.374-1.008-5.138-3.313-6.214-1.736-.686-3.635-.473-5.396-.019-2.685.402-4.672 2.553-6.221 4.623-.936 1.21-1.276 2.707-1.514 4.181-.785 1.612-.332 3.597 1.48 4.249 1.083.43 3.104 2.019 2.907-.123.254-2.094.837-4.264 2.19-5.92 1.197-1.196 3.626-1.224 4.373.5.986 2.043 1.118 4.55.294 6.667-.84 1.27-2.327 1.946-3.478 2.907-1.385 1.138-3.206 1.38-4.819 2.068-.826 1.232-.906 2.87-1.044 4.32v3.42c1.207.86 2.822-.006 4.208.182 3.33.116 6.663.063 9.978-.299 1.116-.3 2.753.17 3.5-.71.24-1.036.364-2.106.386-3.169z" inkscape:connector-curvature="0" transform="matrix(.57307 0 0 .48174 31.06 46.612)"/><path d="m15.09 64.924 1.632-7.341 8.157-4.487 7.342 3.67 2.447 6.73-4.282 6.118 3.262 3.467-1.631 7.546-5.914 4.078-6.934-.612-3.466-3.874-.204-6.934 5.302-1.631.816-4.079-6.526-2.65z" style="fill:#b0e245;fill-opacity:1;fill-rule:evenodd;stroke:none;stroke-width:1px;stroke-linecap:butt;stroke-linejoin:miter;stroke-opacity:1" inkscape:connector-curvature="0" transform="matrix(.58614 0 0 .52623 34.989 46)"/><path style="font-style:normal;font-variant:normal;font-weight:400;font-stretch:normal;font-size:36px;line-height:100%;font-family:'Indigo Joker';text-align:start;writing-mode:lr-tb;text-anchor:start;fill:#729b19;fill-opacity:1;stroke:none;stroke-width:1px;stroke-linecap:butt;stroke-linejoin:miter;stroke-opacity:1" d="M35.811 61.887c-.342 1.696-.33 3.514-1.246 5.052-.387 1.378-2.784 2.695-1.031 3.88 1.074 1.347 1.573 3.094 1.826 4.776.196 2.215-.86 4.276-2.087 6.038-.765 1.51-1.737 3.016-3.334 3.75-3.052 1.647-6.918 2.394-10.152.804-2.955-1.354-4.966-4.396-5.144-7.632-.501-1.298-.21-2.712-.288-4.07-.143-1.241.573-2.546 1.8-2.928 1.244-.361 2.924.149 3.89-1.026.737-1.62-1.065-2.69-2.401-2.989-1.238-.581-2.881.07-3.865-1.02-.275-1.39.135-2.898.23-4.32.436-1.493.773-3.065 1.673-4.382.893-1.346 1.822-2.77 3.277-3.556 1.488-1.262 3.27-2.15 5.197-2.484 1.608-.62 3.393.027 4.904.648 1.8.832 3.65 1.757 4.799 3.45 1.32 1.704 1.971 3.863 1.952 6.009zm-3.204 1.296c.112-4.068-3.674-7.643-7.704-7.488-1.382.052-2.835.279-4.023 1.035-1.936 1.541-3.218 3.784-4.079 6.07-.232 1.152-.821 2.67.901 2.661 1.23.217 3.172 1.822 3.118-.35.328-1.79 1.816-3.67 3.807-3.422 2.053.24 3.106 2.558 2.758 4.43-.068 1.649-.942 3.682-2.821 3.796-1.34-.453-2.837 1.459-.905 1.767 1.55.212 2.893 1.245 3.314 2.787.784 2.576-2.71 5.132-4.902 3.507-1.2-.832-1.594-2.432-1.204-3.798-.534-.846-2.478-.608-3.377-.121-.902 1.451-1.134 3.38-.243 4.9.701 1.346 1.597 2.778 3.173 3.172 1.978.733 4.077.282 6.094.05 1.721-.481 3.734-1.148 4.471-2.946 1.233-2.264 1.411-5.287-.038-7.49-.764-.893-2.525-1.65-1.04-2.778 1.166-1.782 2.747-3.514 2.7-5.782z" inkscape:connector-curvature="0" transform="matrix(.58614 0 0 .52623 34.989 46)"/><path d="m29.774 11.087-7.138 4.282-2.243 3.67 2.04 3.264 3.058.408-1.223 9.788-5.109.764-.194 8.617 16.927-1.631 2.039-6.73-5.71-1.632 3.67-20.393z" style="fill:#e24545;fill-opacity:1;fill-rule:evenodd;stroke:none;stroke-width:1px;stroke-linecap:butt;stroke-linejoin:miter;stroke-opacity:1" inkscape:connector-curvature="0" sodipodi:nodetypes="ccccccccccccc" transform="matrix(.51341 0 0 .46665 14.026 25.55)"/><path style="font-style:normal;font-variant:normal;font-weight:400;font-stretch:normal;font-size:36px;line-height:100%;font-family:'Indigo Joker';text-align:start;writing-mode:lr-tb;text-anchor:start;fill:#9b1919;fill-opacity:1;stroke:none;stroke-width:1px;stroke-linecap:butt;stroke-linejoin:miter;stroke-opacity:1" d="M39.558 33.182c-.209 2.379-.867 4.712-1.642 6.965-.28 1.516-1.518 1.986-2.867 1.71-1.488.275-2.96.243-4.458.21-3.599.35-7.176.903-10.772 1.282-1.168.113-3.204 1.07-2.58-1.023.25-3.225.47-6.453.611-9.684 1.066-.79 2.515-.888 3.789-1.2 1.422-.074 2.144-.986 2.082-2.376.25-1.518.561-3.03.717-4.56-.643-.703-1.705 1.071-2.531 1.354-1.47 1.424-1.01-1.453-1.612-2.244-.79-2.099-2.107-3.972-3.012-6.004.335-1.162 2.165-1.56 3.07-2.453 2.349-1.526 4.354-3.525 6.78-4.947 1.038-1.246 2.567-.78 3.932-.544 1.357.372 2.721-.017 4.086.235 1.208.043 3.062.812 2.067 2.29-.246 3.525-1.024 6.985-1.558 10.472-.474 2.595-1.268 5.125-1.773 7.717-.28 1.631 2.399.915 3.422 1.36.835.158 2.143.395 2.25 1.44zm-3.564 1.908c-1.1-.8-2.708-.584-4.03-.913-1.347.167-1.967-.699-1.366-1.913.98-4.828 1.736-9.696 2.519-14.558.197-1.308.778-2.579.825-3.892-.339-.381-1.06-.089-1.562-.18-1.853.006-3.727.063-5.545.43-1.446.88-2.522 2.26-3.639 3.512-.766 1.147.408 2.638.995 3.667.883.224 2.882-1.92 2.693.11-.338 3.73-.9 7.436-1.376 11.149-.026 1.094-.412 1.818-1.55 1.583-1.335.34-2.817.355-4.058.924-.078 1.11-.012 2.24-.034 3.357 2.816.019 5.636-.04 8.449.029l5.987.727c1.217-.767 1.272-2.55 1.66-3.834l.032-.198z" inkscape:connector-curvature="0" transform="matrix(.51341 0 0 .46665 14.026 25.55)"/><path style="color:#000;clip-rule:nonzero;display:inline;overflow:visible;visibility:visible;opacity:1;isolation:auto;mix-blend-mode:normal;color-interpolation:sRGB;color-interpolation-filters:linearRGB;solid-color:#000;solid-opacity:1;fill:#404040;fill-opacity:1;fill-rule:nonzero;stroke:none;stroke-width:.5;stroke-linecap:round;stroke-linejoin:round;stroke-miterlimit:4;stroke-dasharray:none;stroke-dashoffset:0;stroke-opacity:1;marker:none;color-rendering:auto;image-rendering:auto;shape-rendering:auto;text-rendering:auto;enable-background:accumulate" d="M26.639 23.905a12.707 12.707 0 0 0-12.734 12.734V83.36c0 7.055 5.68 12.734 12.734 12.734H73.36c7.055 0 12.734-5.68 12.734-12.734V36.64c0-7.055-5.68-12.734-12.734-12.734zm.967 1.697h44.79A11.373 11.373 0 0 1 83.791 37v44.789a11.372 11.372 0 0 1-11.397 11.396H27.606A11.372 11.372 0 0 1 16.21 81.79v-44.79a11.373 11.373 0 0 1 11.396-11.397z" inkscape:connector-curvature="0" sodipodi:nodetypes="ssssssssssssssssss"/><path style="color:#000;clip-rule:nonzero;display:inline;overflow:visible;visibility:visible;opacity:1;isolation:auto;mix-blend-mode:normal;color-interpolation:sRGB;color-interpolation-filters:linearRGB;solid-color:#000;solid-opacity:1;fill:#404040;fill-opacity:1;fill-rule:nonzero;stroke:none;stroke-width:.5;stroke-linecap:round;stroke-linejoin:round;stroke-miterlimit:4;stroke-dasharray:none;stroke-dashoffset:0;stroke-opacity:1;marker:none;color-rendering:auto;image-rendering:auto;shape-rendering:auto;text-rendering:auto;enable-background:accumulate" d="M15.118 48.11h69.764v1.843H15.118z" inkscape:connector-curvature="0" sodipodi:nodetypes="ccccc"/><path style="color:#000;clip-rule:nonzero;display:inline;overflow:visible;visibility:visible;opacity:1;isolation:auto;mix-blend-mode:normal;color-interpolation:sRGB;color-interpolation-filters:linearRGB;solid-color:#000;solid-opacity:1;fill:#404040;fill-opacity:1;fill-rule:nonzero;stroke:none;stroke-width:.5;stroke-linecap:round;stroke-linejoin:round;stroke-miterlimit:4;stroke-dasharray:none;stroke-dashoffset:0;stroke-opacity:1;marker:none;color-rendering:auto;image-rendering:auto;shape-rendering:auto;text-rendering:auto;enable-background:accumulate" d="M15.118 70.047h69.764v1.844H15.118z" inkscape:connector-curvature="0" sodipodi:nodetypes="ccccc"/><path style="color:#000;clip-rule:nonzero;display:inline;overflow:visible;visibility:visible;opacity:1;isolation:auto;mix-blend-mode:normal;color-interpolation:sRGB;color-interpolation-filters:linearRGB;solid-color:#000;solid-opacity:1;fill:#404040;fill-opacity:1;fill-rule:nonzero;stroke:none;stroke-width:.5;stroke-linecap:round;stroke-linejoin:round;stroke-miterlimit:4;stroke-dasharray:none;stroke-dashoffset:0;stroke-opacity:1;marker:none;color-rendering:auto;image-rendering:auto;shape-rendering:auto;text-rendering:auto;enable-background:accumulate" d="M38.11 94.882V25.118h1.843v69.764z" inkscape:connector-curvature="0" sodipodi:nodetypes="ccccc"/><path style="color:#000;clip-rule:nonzero;display:inline;overflow:visible;visibility:visible;opacity:1;isolation:auto;mix-blend-mode:normal;color-interpolation:sRGB;color-interpolation-filters:linearRGB;solid-color:#000;solid-opacity:1;fill:#404040;fill-opacity:1;fill-rule:nonzero;stroke:none;stroke-width:.5;stroke-linecap:round;stroke-linejoin:round;stroke-miterlimit:4;stroke-dasharray:none;stroke-dashoffset:0;stroke-opacity:1;marker:none;color-rendering:auto;image-rendering:auto;shape-rendering:auto;text-rendering:auto;enable-background:accumulate" d="M60.047 94.882V25.118h1.844v69.764z" inkscape:connector-curvature="0" sodipodi:nodetypes="ccccc"/></g></svg>