<?xml version="1.0" encoding="UTF-8" standalone="no"?>
<svg
   xmlns:dc="http://purl.org/dc/elements/1.1/"
   xmlns:cc="http://creativecommons.org/ns#"
   xmlns:rdf="http://www.w3.org/1999/02/22-rdf-syntax-ns#"
   xmlns:svg="http://www.w3.org/2000/svg"
   xmlns="http://www.w3.org/2000/svg"
   xmlns:sodipodi="http://sodipodi.sourceforge.net/DTD/sodipodi-0.dtd"
   xmlns:inkscape="http://www.inkscape.org/namespaces/inkscape"
   id="svg4917"
   viewBox="0 0 120 120"
   version="1.0"
   inkscape:version="0.48.3.1 r9886"
   width="100%"
   height="100%"
   sodipodi:docname="ball.svg">
  <sodipodi:namedview
     pagecolor="#ffffff"
     bordercolor="#666666"
     borderopacity="1"
     objecttolerance="10"
     gridtolerance="10"
     guidetolerance="10"
     inkscape:pageopacity="0"
     inkscape:pageshadow="2"
     inkscape:window-width="995"
     inkscape:window-height="632"
     id="namedview23"
     showgrid="false"
     inkscape:zoom="3.0359249"
     inkscape:cx="96.283939"
     inkscape:cy="56.254303"
     inkscape:window-x="0"
     inkscape:window-y="24"
     inkscape:window-maximized="0"
     inkscape:current-layer="svg4917" />
  <defs
     id="defs4919">
    <radialGradient
       id="radialGradient6344"
       gradientUnits="userSpaceOnUse"
       cy="595.88"
       cx="342.38"
       gradientTransform="matrix(1.3159,-0.38216,0.33484,1.153,-287.56,45.685)"
       r="221">
      <stop
         id="stop6298"
         offset="0" />
      <stop
         id="stop6300"
         stop-opacity="0"
         offset="1" />
    </radialGradient>
    <linearGradient
       id="linearGradient6346"
       x1="292.67999"
       gradientUnits="userSpaceOnUse"
       y1="-226.81"
       gradientTransform="translate(11,-5)"
       x2="292.67999"
       y2="-30.125">
      <stop
         id="stop6254"
         stop-color="#fff"
         offset="0" />
      <stop
         id="stop6256"
         stop-color="#eeeeec"
         stop-opacity="0"
         offset="1" />
    </linearGradient>
  </defs>
  <g
     id="layer1"
     transform="matrix(0.27211918,0,0,0.27211918,-29.83908,-46.224947)">
    <g
       id="g6333"
       transform="translate(34,406)">
      <g
         id="g6279"
         transform="matrix(0.94625,0.32344,-0.32344,0.94625,11.638,-96.281)">
        <path
           id="use6193"
           d="m 294,-234.62 c -120.93,0.27 -219,98.5 -219,219.5 0,120.99 98.07,219.22 219,219.5 v -439 z"
           inkscape:connector-curvature="0"
           style="fill:#729fcf" />
        <path
           id="path6243"
           d="m 297,-234.62 c 120.93,0.27 219,98.5 219,219.5 0,120.99 -98.07,219.22 -219,219.5 v -439 z"
           inkscape:connector-curvature="0"
           style="fill:#edd400" />
        <path
           id="path6245"
           d="m 297,-230.62 c 91,0.36 164.78,98.55 164.78,219.5 0,120.94 -73.78,219.13 -164.78,219.5 v -439 z"
           inkscape:connector-curvature="0"
           style="fill:#eeeeec" />
        <path
           id="use6195"
           d="m 294,-230.62 c -91,0.36 -164.78,98.55 -164.78,219.5 0,120.94 73.78,219.13 164.78,219.5 v -439 z"
           inkscape:connector-curvature="0"
           style="fill:#eeeeec" />
        <path
           id="use6197"
           transform="matrix(0.36,0,0,1,190.64,-350)"
           d="m 508,336.86 a 219.5,219.5 0 1 1 -439,0 219.5,219.5 0 1 1 439,0 z"
           inkscape:connector-curvature="0"
           style="fill:#ef2929" />
      </g>
      <path
         id="path6294"
         transform="translate(7,-352)"
         d="m 508,336.86 a 219.5,219.5 0 1 1 -439,0 219.5,219.5 0 1 1 439,0 z"
         inkscape:connector-curvature="0"
         style="opacity:0.39789004;fill:url(#radialGradient6344)" />
      <path
         id="path6328"
         d="m 297.09,-234.87 c -18.79,0 -37.03,2.37 -54.44,6.81 18.3,7.07 10.22,11.7 10.53,21.3 20.73,8.44 29.14,12.63 40.27,26.63 44.77,-7.5 67.57,0.77 100.69,13.73 10.07,-7.52 19.21,-14.62 31.11,-11.74 4.41,-2.63 4.57,-6.28 6.68,-10.42 -37.22,-29.02 -84.02,-46.31 -134.84,-46.31 z"
         inkscape:connector-curvature="0"
         style="fill:#4e9a06" />
      <path
         id="path6247"
         d="m 303.68,-231.81 c -101.03,0 -183.91,78.22 -191.28,177.37 0,0.004 91.93,-22.747 168.56,-78.64 104.57,-76.26 214,78.644 214,78.644 -7.37,-99.154 -90.25,-177.37 -191.28,-177.37 z"
         inkscape:connector-curvature="0"
         style="opacity:0.84506998;fill:url(#linearGradient6346)" />
    </g>
  </g>
  <metadata
     id="metadata21">
    <rdf:RDF>
      <cc:Work>
        <dc:format>image/svg+xml</dc:format>
        <dc:type
           rdf:resource="http://purl.org/dc/dcmitype/StillImage" />
        <cc:license
           rdf:resource="http://creativecommons.org/licenses/publicdomain/" />
        <dc:publisher>
          <cc:Agent
             rdf:about="http://openclipart.org/">
            <dc:title>Openclipart</dc:title>
          </cc:Agent>
        </dc:publisher>
        <dc:title>beach ball</dc:title>
        <dc:date>2008-11-13T19:07:20</dc:date>
        <dc:description>ball, ball, beach, beach, clip art, clipart, color, color, image, media, png, public domain, summer, summer, svg, </dc:description>
        <dc:source>http://openclipart.org/detail/20151/beach-ball-by-rg1024</dc:source>
        <dc:creator>
          <cc:Agent>
            <dc:title>rg1024</dc:title>
          </cc:Agent>
        </dc:creator>
        <dc:subject>
          <rdf:Bag>
            <rdf:li>ball</rdf:li>
            <rdf:li>beach</rdf:li>
            <rdf:li>clip art</rdf:li>
            <rdf:li>clipart</rdf:li>
            <rdf:li>color</rdf:li>
            <rdf:li>image</rdf:li>
            <rdf:li>media</rdf:li>
            <rdf:li>png</rdf:li>
            <rdf:li>public domain</rdf:li>
            <rdf:li>summer</rdf:li>
            <rdf:li>svg</rdf:li>
          </rdf:Bag>
        </dc:subject>
      </cc:Work>
      <cc:License
         rdf:about="http://creativecommons.org/licenses/publicdomain/">
        <cc:permits
           rdf:resource="http://creativecommons.org/ns#Reproduction" />
        <cc:permits
           rdf:resource="http://creativecommons.org/ns#Distribution" />
        <cc:permits
           rdf:resource="http://creativecommons.org/ns#DerivativeWorks" />
      </cc:License>
    </rdf:RDF>
  </metadata>
</svg>
