<?xml version="1.0" encoding="UTF-8" standalone="no"?>
<!-- Created with Inkscape (http://www.inkscape.org/) -->
<svg
   xmlns:dc="http://purl.org/dc/elements/1.1/"
   xmlns:cc="http://web.resource.org/cc/"
   xmlns:rdf="http://www.w3.org/1999/02/22-rdf-syntax-ns#"
   xmlns:svg="http://www.w3.org/2000/svg"
   xmlns="http://www.w3.org/2000/svg"
   xmlns:sodipodi="http://sodipodi.sourceforge.net/DTD/sodipodi-0.dtd"
   xmlns:inkscape="http://www.inkscape.org/namespaces/inkscape"
   width="100"
   height="100"
   id="svg1949"
   sodipodi:version="0.32"
   inkscape:version="0.44.1"
   version="1.0"
   sodipodi:docbase="/home/mat/Travaux/Inkscape/Gcompris/boardicons"
   sodipodi:docname="mem_solo_mult_div.svg">
  <defs
     id="defs1951" />
  <sodipodi:namedview
     id="base"
     pagecolor="#ffffff"
     bordercolor="#666666"
     borderopacity="1.0"
     inkscape:pageopacity="0.0"
     inkscape:pageshadow="2"
     inkscape:zoom="6.0595767"
     inkscape:cx="44.179366"
     inkscape:cy="37.816121"
     inkscape:document-units="px"
     inkscape:current-layer="layer1"
     width="100px"
     height="100px"
     inkscape:window-width="1087"
     inkscape:window-height="929"
     inkscape:window-x="40"
     inkscape:window-y="7" />
  <metadata
     id="metadata1954">
    <rdf:RDF>
      <cc:Work
         rdf:about="">
        <dc:format>image/svg+xml</dc:format>
        <dc:type
           rdf:resource="http://purl.org/dc/dcmitype/StillImage" />
      </cc:Work>
    </rdf:RDF>
  </metadata>
  <g
     inkscape:label="Calque 1"
     inkscape:groupmode="layer"
     id="layer1">
    <path
       style="fill:white;fill-opacity:1;fill-rule:evenodd;stroke:none;stroke-width:1px;stroke-linecap:butt;stroke-linejoin:miter;stroke-opacity:1"
       d="M 94.010109,34.15547 L 94.536122,49.175171 L 93.856997,60.462433 L 93.953028,69.817184 L 90.754489,75.520979 L 81.479976,75.070275 L 72.145021,74.765402 L 62.210281,75.442378 L 56.830266,75.070275 L 54.570327,69.2538 L 54.863928,54.497352 L 53.825799,38.49672 L 54.584232,23.228019 L 58.342892,18.690736 L 68.670159,17.704129 L 85.138521,17.77229 L 90.702239,18.471065 L 94.213237,23.785716 L 94.010109,34.15547 z "
       id="path12050"
       sodipodi:nodetypes="ccccccccccccccccccc" />
    <rect
       style="opacity:1;fill:#3acc2b;fill-opacity:1;fill-rule:evenodd;stroke:black;stroke-width:0.8382231;stroke-linecap:round;stroke-linejoin:round;stroke-miterlimit:4;stroke-dasharray:none;stroke-dashoffset:0;stroke-opacity:1"
       id="rect1878"
       width="39.796524"
       height="56.970261"
       x="7.4821763"
       y="18.52837"
       rx="4.0115757"
       ry="3.878212" />
    <path
       sodipodi:type="arc"
       style="opacity:1;fill:#aad400;fill-opacity:1;fill-rule:evenodd;stroke:none;stroke-width:3;stroke-linecap:round;stroke-linejoin:round;stroke-miterlimit:4;stroke-dasharray:none;stroke-dashoffset:0;stroke-opacity:1"
       id="path2910"
       sodipodi:cx="-31.541023"
       sodipodi:cy="49.618675"
       sodipodi:rx="18.542299"
       sodipodi:ry="18.542299"
       d="M -12.998724 49.618675 A 18.542299 18.542299 0 1 1  -50.083323,49.618675 A 18.542299 18.542299 0 1 1  -12.998724 49.618675 z"
       transform="matrix(0.232029,0,0,0.21884,24.03042,16.78338)" />
    <path
       sodipodi:type="arc"
       style="opacity:1;fill:#aad400;fill-opacity:1;fill-rule:evenodd;stroke:none;stroke-width:3;stroke-linecap:round;stroke-linejoin:round;stroke-miterlimit:4;stroke-dasharray:none;stroke-dashoffset:0;stroke-opacity:1"
       id="path2924"
       sodipodi:cx="-31.541023"
       sodipodi:cy="49.618675"
       sodipodi:rx="18.542299"
       sodipodi:ry="18.542299"
       d="M -12.998724 49.618675 A 18.542299 18.542299 0 1 1  -50.083323,49.618675 A 18.542299 18.542299 0 1 1  -12.998724 49.618675 z"
       transform="matrix(0.22161,0,0,0.21884,34.98374,16.78338)" />
    <path
       sodipodi:type="arc"
       style="opacity:1;fill:#aad400;fill-opacity:1;fill-rule:evenodd;stroke:none;stroke-width:3;stroke-linecap:round;stroke-linejoin:round;stroke-miterlimit:4;stroke-dasharray:none;stroke-dashoffset:0;stroke-opacity:1"
       id="path2926"
       sodipodi:cx="-31.541023"
       sodipodi:cy="49.618675"
       sodipodi:rx="18.542299"
       sodipodi:ry="18.542299"
       d="M -12.998724 49.618675 A 18.542299 18.542299 0 1 1  -50.083323,49.618675 A 18.542299 18.542299 0 1 1  -12.998724 49.618675 z"
       transform="matrix(0.220524,0,0,0.21884,46.22301,16.57419)" />
    <path
       sodipodi:type="arc"
       style="opacity:1;fill:#aad400;fill-opacity:1;fill-rule:evenodd;stroke:none;stroke-width:3;stroke-linecap:round;stroke-linejoin:round;stroke-miterlimit:4;stroke-dasharray:none;stroke-dashoffset:0;stroke-opacity:1"
       id="path2928"
       sodipodi:cx="-31.541023"
       sodipodi:cy="49.618675"
       sodipodi:rx="18.542299"
       sodipodi:ry="18.542299"
       d="M -12.998724 49.618675 A 18.542299 18.542299 0 1 1  -50.083323,49.618675 A 18.542299 18.542299 0 1 1  -12.998724 49.618675 z"
       transform="matrix(0.232029,0,0,0.21884,24.03042,29.05311)" />
    <path
       sodipodi:type="arc"
       style="opacity:1;fill:#aad400;fill-opacity:1;fill-rule:evenodd;stroke:none;stroke-width:3;stroke-linecap:round;stroke-linejoin:round;stroke-miterlimit:4;stroke-dasharray:none;stroke-dashoffset:0;stroke-opacity:1"
       id="path2930"
       sodipodi:cx="-31.541023"
       sodipodi:cy="49.618675"
       sodipodi:rx="18.542299"
       sodipodi:ry="18.542299"
       d="M -12.998724 49.618675 A 18.542299 18.542299 0 1 1  -50.083323,49.618675 A 18.542299 18.542299 0 1 1  -12.998724 49.618675 z"
       transform="matrix(0.232029,0,0,0.21884,35.29045,29.06141)" />
    <path
       sodipodi:type="arc"
       style="opacity:1;fill:#aad400;fill-opacity:1;fill-rule:evenodd;stroke:none;stroke-width:3;stroke-linecap:round;stroke-linejoin:round;stroke-miterlimit:4;stroke-dasharray:none;stroke-dashoffset:0;stroke-opacity:1"
       id="path2932"
       sodipodi:cx="-31.541023"
       sodipodi:cy="49.618675"
       sodipodi:rx="18.542299"
       sodipodi:ry="18.542299"
       d="M -12.998724 49.618675 A 18.542299 18.542299 0 1 1  -50.083323,49.618675 A 18.542299 18.542299 0 1 1  -12.998724 49.618675 z"
       transform="matrix(0.232029,0,0,0.21884,46.53721,29.06346)" />
    <path
       sodipodi:type="arc"
       style="opacity:1;fill:#aad400;fill-opacity:1;fill-rule:evenodd;stroke:none;stroke-width:3;stroke-linecap:round;stroke-linejoin:round;stroke-miterlimit:4;stroke-dasharray:none;stroke-dashoffset:0;stroke-opacity:1"
       id="path2934"
       sodipodi:cx="-31.541023"
       sodipodi:cy="49.618675"
       sodipodi:rx="18.542299"
       sodipodi:ry="18.542299"
       d="M -12.998724 49.618675 A 18.542299 18.542299 0 1 1  -50.083323,49.618675 A 18.542299 18.542299 0 1 1  -12.998724 49.618675 z"
       transform="matrix(0.232029,0,0,0.21884,24.03042,41.54864)" />
    <path
       sodipodi:type="arc"
       style="opacity:1;fill:#aad400;fill-opacity:1;fill-rule:evenodd;stroke:none;stroke-width:3;stroke-linecap:round;stroke-linejoin:round;stroke-miterlimit:4;stroke-dasharray:none;stroke-dashoffset:0;stroke-opacity:1"
       id="path2936"
       sodipodi:cx="-31.541023"
       sodipodi:cy="49.618675"
       sodipodi:rx="18.542299"
       sodipodi:ry="18.542299"
       d="M -12.998724 49.618675 A 18.542299 18.542299 0 1 1  -50.083323,49.618675 A 18.542299 18.542299 0 1 1  -12.998724 49.618675 z"
       transform="matrix(0.232029,0,0,0.21884,35.39798,41.54864)" />
    <path
       sodipodi:type="arc"
       style="opacity:1;fill:#aad400;fill-opacity:1;fill-rule:evenodd;stroke:none;stroke-width:3;stroke-linecap:round;stroke-linejoin:round;stroke-miterlimit:4;stroke-dasharray:none;stroke-dashoffset:0;stroke-opacity:1"
       id="path2938"
       sodipodi:cx="-31.541023"
       sodipodi:cy="49.618675"
       sodipodi:rx="18.542299"
       sodipodi:ry="18.542299"
       d="M -12.998724 49.618675 A 18.542299 18.542299 0 1 1  -50.083323,49.618675 A 18.542299 18.542299 0 1 1  -12.998724 49.618675 z"
       transform="matrix(0.232029,0,0,0.21884,46.53721,41.53205)" />
    <path
       sodipodi:type="arc"
       style="opacity:1;fill:#aad400;fill-opacity:1;fill-rule:evenodd;stroke:none;stroke-width:3;stroke-linecap:round;stroke-linejoin:round;stroke-miterlimit:4;stroke-dasharray:none;stroke-dashoffset:0;stroke-opacity:1"
       id="path2940"
       sodipodi:cx="-31.541023"
       sodipodi:cy="49.618675"
       sodipodi:rx="18.542299"
       sodipodi:ry="18.542299"
       d="M -12.998724 49.618675 A 18.542299 18.542299 0 1 1  -50.083323,49.618675 A 18.542299 18.542299 0 1 1  -12.998724 49.618675 z"
       transform="matrix(0.232029,0,0,0.21884,24.03042,54.01096)" />
    <path
       sodipodi:type="arc"
       style="opacity:1;fill:#aad400;fill-opacity:1;fill-rule:evenodd;stroke:none;stroke-width:3;stroke-linecap:round;stroke-linejoin:round;stroke-miterlimit:4;stroke-dasharray:none;stroke-dashoffset:0;stroke-opacity:1"
       id="path2942"
       sodipodi:cx="-31.541023"
       sodipodi:cy="49.618675"
       sodipodi:rx="18.542299"
       sodipodi:ry="18.542299"
       d="M -12.998724 49.618675 A 18.542299 18.542299 0 1 1  -50.083323,49.618675 A 18.542299 18.542299 0 1 1  -12.998724 49.618675 z"
       transform="matrix(0.232029,0,0,0.21884,35.11918,54.03585)" />
    <path
       sodipodi:type="arc"
       style="opacity:1;fill:#aad400;fill-opacity:1;fill-rule:evenodd;stroke:none;stroke-width:3;stroke-linecap:round;stroke-linejoin:round;stroke-miterlimit:4;stroke-dasharray:none;stroke-dashoffset:0;stroke-opacity:1"
       id="path2944"
       sodipodi:cx="-31.541023"
       sodipodi:cy="49.618675"
       sodipodi:rx="18.542299"
       sodipodi:ry="18.542299"
       d="M -12.998724 49.618675 A 18.542299 18.542299 0 1 1  -50.083323,49.618675 A 18.542299 18.542299 0 1 1  -12.998724 49.618675 z"
       transform="matrix(0.232029,0,0,0.21884,46.64476,54.03585)" />
    <path
       style="fill:none;fill-opacity:0.75;fill-rule:evenodd;stroke:black;stroke-width:2.5;stroke-linecap:butt;stroke-linejoin:miter;stroke-miterlimit:4;stroke-dasharray:none;stroke-opacity:1"
       d="M 7.9213453,22.271799 L 7.9213453,31.843425 L 7.9213453,41.250022 L 7.9213453,52.141872 L 7.2612332,66.169254 L 7.7563173,71.285123 L 8.7464855,74.420656 L 13.532298,75.575852 L 32.840578,75.575852 L 43.897455,75.575852 L 46.702932,73.595516 L 47.528072,71.780207 L 47.858128,61.54847 L 47.363044,42.24019 L 47.858128,28.212808 L 47.198016,21.611687 L 45.712764,19.136266 L 44.062484,18.476154 L 34.160802,18.476154 L 23.599008,18.146098 L 15.347607,18.311126 L 10.396766,18.971238 L 8.2514014,20.126435 L 7.9213453,22.271799 z "
       id="path1970"
       sodipodi:nodetypes="cccccccccccccccccccccccc" />
    <path
       style="fill:none;fill-opacity:0.75;fill-rule:evenodd;stroke:black;stroke-width:2.5;stroke-linecap:butt;stroke-linejoin:miter;stroke-miterlimit:4;stroke-dasharray:none;stroke-opacity:1"
       d="M 54.541763,22.271799 L 54.541763,31.843425 L 54.211707,41.250022 L 54.211707,50.65662 L 53.881651,66.169254 L 54.376735,71.285123 L 55.366903,74.420656 L 60.152716,75.575852 L 79.460996,75.575852 L 90.517873,75.575852 L 93.32335,73.595516 L 94.14849,71.780207 L 94.478546,61.54847 L 94.14849,42.24019 L 94.478546,28.212808 L 93.818434,21.611687 L 92.333182,19.136266 L 90.682902,18.476154 L 80.78122,18.476154 L 70.219426,18.146098 L 61.968025,18.311126 L 57.017184,18.971238 L 54.871819,20.126435 L 54.541763,22.271799 z "
       id="path2857"
       sodipodi:nodetypes="cccccccccccccccccccccccc" />
    <path
       style="fill:black;fill-opacity:1;fill-rule:evenodd;stroke:none;stroke-width:1px;stroke-linecap:butt;stroke-linejoin:miter;stroke-opacity:1"
       d="M 69.262282,60.178333 L 72.412312,56.428978 L 74.895402,53.701883 L 76.882312,51.386185 L 78.444972,50.248721 L 79.348782,51.141442 L 80.290232,52.003281 L 81.505982,52.673463 L 82.006642,53.218615 L 81.008482,54.843853 L 77.826272,58.459198 L 74.522032,62.49368 L 71.180342,66.19622 L 69.806332,66.998732 L 68.482152,66.371854 L 66.720992,64.967286 L 66.270282,64.326071 L 67.026402,62.719199 L 69.262282,60.178333 z "
       id="path12116"
       sodipodi:nodetypes="ccccccccccccccccccc" />
    <path
       style="fill:black;fill-opacity:1;fill-rule:evenodd;stroke:none;stroke-width:1px;stroke-linecap:butt;stroke-linejoin:miter;stroke-opacity:1"
       d="M 77.839518,34.443595 L 74.727065,31.382702 L 72.290918,29.169124 L 70.331442,27.28139 L 68.842205,26.393162 L 68.098433,27.23196 L 67.31852,28.046325 L 66.277803,28.711761 L 65.869631,29.220575 L 66.889027,30.571813 L 70.020203,33.513677 L 73.29273,36.813017 L 76.573711,39.820328 L 77.868169,40.42894 L 79.009524,39.794063 L 80.484238,38.451778 L 80.840285,37.862495 L 80.039592,36.511177 L 77.839518,34.443595 z "
       id="path12114"
       sodipodi:nodetypes="ccccccccccccccccccc" />
    <path
       style="fill:black;fill-opacity:1;fill-rule:evenodd;stroke:none;stroke-width:1px;stroke-linecap:butt;stroke-linejoin:miter;stroke-opacity:1"
       d="M 68.776781,35.451108 L 71.614049,32.170186 L 73.850595,29.783805 L 75.640232,27.757423 L 77.047737,26.76207 L 77.861803,27.543257 L 78.709777,28.297421 L 79.804817,28.883873 L 80.255765,29.360915 L 79.356714,30.783101 L 76.490467,33.946757 L 73.514296,37.477183 L 70.504398,40.717139 L 69.266819,41.419388 L 68.074112,40.87083 L 66.487822,39.641744 L 66.081857,39.080641 L 66.762901,37.674526 L 68.776781,35.451108 z "
       id="path5610"
       sodipodi:nodetypes="ccccccccccccccccccc" />
  </g>
</svg>
