<!--Created with Inkscape (http://www.inkscape.org/)--><svg xmlns:dc="http://purl.org/dc/elements/1.1/" xmlns:cc="http://creativecommons.org/ns#" xmlns:rdf="http://www.w3.org/1999/02/22-rdf-syntax-ns#" xmlns="http://www.w3.org/2000/svg" xmlns:sodipodi="http://sodipodi.sourceforge.net/DTD/sodipodi-0.dtd" xmlns:inkscape="http://www.inkscape.org/namespaces/inkscape" width="100" height="100" sodipodi:version="0.32" inkscape:version="0.92.1 r15371" version="1.0" sodipodi:docname="piano_composition.svg"><sodipodi:namedview pagecolor="#ffffff" bordercolor="#666666" borderopacity="1.0" inkscape:pageopacity="0.0" inkscape:pageshadow="2" inkscape:zoom="1.5550218" inkscape:cx="-92.349125" inkscape:cy="43.300017" inkscape:document-units="px" inkscape:current-layer="layer1" width="100px" height="100px" showguides="true" inkscape:guide-bbox="true" inkscape:window-width="1884" inkscape:window-height="1051" inkscape:window-x="0" inkscape:window-y="0" showgrid="true" inkscape:window-maximized="1"><inkscape:grid type="xygrid"/></sodipodi:namedview><metadata><rdf:RDF><cc:Work><dc:format>image/svg+xml</dc:format><dc:type rdf:resource="http://purl.org/dc/dcmitype/StillImage"/><dc:title/><dc:date>2018</dc:date><dc:creator><cc:Agent><dc:title>Timothée Giet</dc:title></cc:Agent></dc:creator><cc:license rdf:resource="http://creativecommons.org/licenses/by-sa/4.0/"/></cc:Work><cc:License rdf:about="http://creativecommons.org/licenses/by-sa/4.0/"><cc:permits rdf:resource="http://creativecommons.org/ns#Reproduction"/><cc:permits rdf:resource="http://creativecommons.org/ns#Distribution"/><cc:requires rdf:resource="http://creativecommons.org/ns#Notice"/><cc:requires rdf:resource="http://creativecommons.org/ns#Attribution"/><cc:permits rdf:resource="http://creativecommons.org/ns#DerivativeWorks"/><cc:requires rdf:resource="http://creativecommons.org/ns#ShareAlike"/></cc:License></rdf:RDF></metadata><g inkscape:label="Calque 1" inkscape:groupmode="layer"><path inkscape:connector-curvature="0" style="fill:#000;stroke:none;stroke-width:.48204404" d="M22.727 27.362c-.75-.02-1.487.405-2.167 1.096-.68.69-1.314 1.658-1.862 2.8-1.096 2.286-1.843 5.268-1.792 8.1.024 1.724.556 5.116 1.324 9.375-4.902 5.065-10.632 10.319-10.633 17.28v.002c-.04 3.197.913 6.82 3.044 9.653 2.131 2.833 5.46 4.864 10.093 4.825a15.322 15.322 0 0 0 3.583-.44c.806 4.443 1.345 7.987 1.341 9.569v.002c.015 3.182-2.038 4.878-4.158 5.37-1.06.246-2.133.177-2.941-.166-.736-.312-1.205-.856-1.362-1.589 1.788-.22 3.189-1.658 3.189-3.467 0-1.96-1.626-3.557-3.63-3.557-1.097 0-2.08.48-2.747 1.232l-.048.046v.001l-.002.002c-.16.17-.287.363-.408.572l-.001.001v.001c-.413.699-.667 1.676-.681 3.04v.002c0 1.478.93 2.796 2.276 3.763 1.346.966 3.123 1.598 4.91 1.71 1.786.11 3.592-.302 4.956-1.46 1.362-1.158 2.258-3.053 2.26-5.817v-.001c.021-1.514-.6-5.13-1.493-9.702 4.92-1.885 6.798-6.514 6.27-10.693-.537-4.237-3.542-8.058-8.24-8.093h-.004a8.96 8.96 0 0 0-1.855.232 673.465 673.465 0 0 1-1.394-6.837c3.455-3.42 6.481-7.905 6.414-16.021.005-2.947-.48-5.602-1.24-7.547-.378-.973-.824-1.77-1.325-2.34-.5-.57-1.067-.924-1.675-.944zm.635 6.13c.512-.05.94.143 1.283.648.343.504.576 1.338.576 2.516v.006c.09 3.895-2.577 7.366-5.867 10.873-.27-1.689-.484-3.202-.505-4.028.05-3.21.733-5.689 1.634-7.375.901-1.688 2.026-2.558 2.879-2.64zm-3.899 21.761c.39 2 .803 4.082 1.224 6.19-3.003 1.149-5.224 3.78-5.64 6.665-.424 2.95 1.08 6.123 5.438 8.04l.253-.404c-2.563-2.182-3.177-4.508-2.738-6.404.42-1.808 1.83-3.21 3.515-3.718a995.92 995.92 0 0 1 2.522 12.93c-.946.308-2.029.5-3.305.509-1.68 0-4.235-.543-6.344-2.098-2.11-1.554-3.794-4.101-3.794-8.206 0-3.437 1.18-5.824 2.918-7.895 1.655-1.972 3.83-3.658 5.951-5.609zm3.389 10.13c.055 0 .107-.002.162 0h.008c5.938 0 8.236 9.28 2.42 12.54a1399.49 1399.49 0 0 0-2.59-12.54z"/><path inkscape:connector-curvature="0" style="fill:#000;fill-opacity:1;fill-rule:evenodd;stroke:none;stroke-width:.39203209;stroke-linecap:round;stroke-linejoin:round" d="M67.882 36.515c.947 1.398 1.434 3.092 2.656 4.3 1.398 1.842 3.186 3.368 4.572 5.232 1.003 1.302 2.102 2.686 2.387 4.325.767 2.101.434 4.46-.384 6.518-.923 1.11-1.554-.327-1.297-1.216.04-1.226.022-2.45-.449-3.608-.417-1.737-1.18-3.382-2.457-4.657-1.11-.972-2.37-3.116-4.062-2.378-1.118.704-.63 2.127-.751 3.224-.067 6.746-.071 13.495-.179 20.24-.082 2.834-2.53 4.734-4.823 5.95-2.042 1.23-4.486 1.917-6.856 1.37-2.204-.226-4.484-1.835-4.53-4.216-.147-2.76 1.846-5.33 4.3-6.42 2.41-1.374 5.455-1.671 8.05-.684 1.267.4 1.62-.776 1.778-1.907.146-8.588.263-17.176.293-25.765.025-.858 1.423-1.068 1.751-.308z"/><rect style="opacity:1;vector-effect:none;fill:#000;fill-opacity:1;stroke:none;stroke-width:1;stroke-linecap:butt;stroke-linejoin:miter;stroke-miterlimit:4;stroke-dasharray:none;stroke-dashoffset:0;stroke-opacity:1" width="82" height="1" x="10" y="40" ry="0"/><rect style="opacity:1;vector-effect:none;fill:#000;fill-opacity:1;stroke:none;stroke-width:1;stroke-linecap:butt;stroke-linejoin:miter;stroke-miterlimit:4;stroke-dasharray:none;stroke-dashoffset:0;stroke-opacity:1" width="2" height="40" x="90" y="40"/><rect style="opacity:1;vector-effect:none;fill:#000;fill-opacity:1;stroke:none;stroke-width:1;stroke-linecap:butt;stroke-linejoin:miter;stroke-miterlimit:4;stroke-dasharray:none;stroke-dashoffset:0;stroke-opacity:1" width="82" height="1" x="10" y="80"/><rect style="opacity:1;vector-effect:none;fill:#000;fill-opacity:1;stroke:none;stroke-width:1;stroke-linecap:butt;stroke-linejoin:miter;stroke-miterlimit:4;stroke-dasharray:none;stroke-dashoffset:0;stroke-opacity:1" width="82" height="1" x="10" y="50" ry="0"/><rect style="opacity:1;vector-effect:none;fill:#000;fill-opacity:1;stroke:none;stroke-width:1;stroke-linecap:butt;stroke-linejoin:miter;stroke-miterlimit:4;stroke-dasharray:none;stroke-dashoffset:0;stroke-opacity:1" width="82" height="1" x="10" y="60" ry="0"/><rect style="opacity:1;vector-effect:none;fill:#000;fill-opacity:1;stroke:none;stroke-width:1;stroke-linecap:butt;stroke-linejoin:miter;stroke-miterlimit:4;stroke-dasharray:none;stroke-dashoffset:0;stroke-opacity:1" width="82" height="1" x="10" y="70" ry="0"/></g></svg>