<!--Created with Inkscape (http://www.inkscape.org/)--><svg xmlns:dc="http://purl.org/dc/elements/1.1/" xmlns:cc="http://creativecommons.org/ns#" xmlns:rdf="http://www.w3.org/1999/02/22-rdf-syntax-ns#" xmlns="http://www.w3.org/2000/svg" xmlns:sodipodi="http://sodipodi.sourceforge.net/DTD/sodipodi-0.dtd" xmlns:inkscape="http://www.inkscape.org/namespaces/inkscape" sodipodi:docname="masse5.svg" viewBox="0 0 370 506" sodipodi:version="0.32" version="1.0" inkscape:output_extension="org.inkscape.output.svg.inkscape" inkscape:version="0.92.4 (5da689c313, 2019-01-14)" width="370" height="506"><sodipodi:namedview bordercolor="#666666" inkscape:pageshadow="2" inkscape:window-y="0" pagecolor="#ffffff" inkscape:window-height="1051" width="500px" inkscape:zoom="1.4142136" inkscape:window-x="0" height="600px" borderopacity="1.0" inkscape:current-layer="g6612" inkscape:cx="-70.374685" inkscape:cy="265.50701" showguides="true" inkscape:guide-bbox="true" units="px" inkscape:window-width="1884" inkscape:pageopacity="0.0" inkscape:document-units="px" showgrid="true" inkscape:window-maximized="1" fit-margin-top="0" fit-margin-left="0" fit-margin-right="0" fit-margin-bottom="0" inkscape:snap-global="true"><inkscape:grid type="xygrid"/></sodipodi:namedview><g inkscape:label="Layer 1" inkscape:groupmode="layer"><path style="opacity:1;vector-effect:none;fill:#682356;fill-opacity:1;stroke:none;stroke-width:.03694471;stroke-linecap:butt;stroke-linejoin:miter;stroke-miterlimit:4;stroke-dasharray:none;stroke-dashoffset:0;stroke-opacity:1" d="M396.151 413.894c-.914 0-1.65.736-1.65 1.65v1.65c0 .612.332 1.143.825 1.428v7.644h-9.072c-.914 0-1.65.735-1.65 1.65v2.473c0 .613.332 1.144.825 1.429v2.916a1.644 1.644 0 0 0-.824 1.429v16.494c0 .914.735 1.65 1.65 1.65h25.566c.914 0 1.65-.736 1.65-1.65v-16.494c0-.613-.332-1.144-.825-1.429v-2.916c.493-.285.825-.816.825-1.429v-2.474c0-.914-.736-1.65-1.65-1.65h-9.072v-7.643c.493-.285.825-.816.825-1.429v-1.649c0-.914-.736-1.65-1.65-1.65z" inkscape:connector-curvature="0" transform="translate(-4653.333 -5012.47) scale(12.125)"/><path style="opacity:1;vector-effect:none;fill:#e755c0;fill-opacity:1;stroke:none;stroke-width:.03694471;stroke-linecap:butt;stroke-linejoin:miter;stroke-miterlimit:4;stroke-dasharray:none;stroke-dashoffset:0;stroke-opacity:1" d="M396.976 414.39c-.914 0-1.65.735-1.65 1.649v.825c0 .612.332 1.144.825 1.428v8.798h-9.072c-.914 0-1.65.736-1.65 1.65v1.65c0 .612.332 1.143.825 1.428v2.916a1.644 1.644 0 0 0-.825 1.429v15.67c0 .913.736 1.65 1.65 1.65h23.917c.914 0 1.65-.737 1.65-1.65v-15.67c0-.613-.331-1.144-.825-1.429v-2.916c.494-.285.825-.816.825-1.429v-1.65c0-.913-.74-1.558-1.65-1.649h-9.072v-8.798c.494-.284.825-.816.825-1.428v-.825c0-.914-.736-1.65-1.65-1.65z" inkscape:connector-curvature="0" sodipodi:nodetypes="sssccsssccssssssccsssccssss" transform="translate(-4653.333 -5012.47) scale(12.125)"/><path style="opacity:1;vector-effect:none;fill:#c12697;fill-opacity:1;stroke:none;stroke-width:.31675169;stroke-linecap:butt;stroke-linejoin:miter;stroke-miterlimit:4;stroke-dasharray:none;stroke-dashoffset:0;stroke-opacity:1" d="M30 223v36h310v-36z" inkscape:connector-curvature="0" sodipodi:nodetypes="ccccc"/></g><metadata><rdf:RDF><cc:Work><dc:format>image/svg+xml</dc:format><dc:type rdf:resource="http://purl.org/dc/dcmitype/StillImage"/><cc:license rdf:resource="http://creativecommons.org/licenses/by-sa/4.0/"/><dc:publisher><cc:Agent rdf:about="http://openclipart.org/"><dc:title/></cc:Agent></dc:publisher><dc:title/><dc:date>2020</dc:date><dc:description/><dc:source/><dc:creator><cc:Agent><dc:title>Timothée Giet</dc:title></cc:Agent></dc:creator><dc:subject><rdf:Bag/></dc:subject></cc:Work><cc:License rdf:about="http://creativecommons.org/licenses/by-sa/4.0/"><cc:permits rdf:resource="http://creativecommons.org/ns#Reproduction"/><cc:permits rdf:resource="http://creativecommons.org/ns#Distribution"/><cc:requires rdf:resource="http://creativecommons.org/ns#Notice"/><cc:requires rdf:resource="http://creativecommons.org/ns#Attribution"/><cc:permits rdf:resource="http://creativecommons.org/ns#DerivativeWorks"/><cc:requires rdf:resource="http://creativecommons.org/ns#ShareAlike"/></cc:License></rdf:RDF></metadata></svg>