<!--Created with Inkscape (http://www.inkscape.org/)--><svg width="100" height="90" version="1.1" id="svg666" xmlns="http://www.w3.org/2000/svg" xmlns:rdf="http://www.w3.org/1999/02/22-rdf-syntax-ns#" xmlns:cc="http://creativecommons.org/ns#" xmlns:dc="http://purl.org/dc/elements/1.1/"><title id="title500">Supermarket Chiller</title><defs id="defs520"><linearGradient id="b"><stop offset="0" style="stop-color:#efefd6;stop-opacity:1" id="stop502"/><stop offset="1" style="stop-color:#5aa02c;stop-opacity:1" id="stop504"/></linearGradient></defs><g id="g662"><g transform="matrix(.63602 0 0 .61606 -96.382 -443.803)" id="g592"><circle r="42.779961" cy="501.80551" cx="232.99168" style="opacity:.99;fill:#b43131;fill-opacity:1;fill-rule:nonzero;stroke:none" transform="translate(-2.84 302.362)" id="circle546"/><path d="M46.803 758.23a8.648 8.648 0 0 0-1.102.046c-12.3 1.137-17.23 10.491-17.23 23.677 0 16.217 13.156 29.35 29.373 29.35s29.35-13.133 29.35-29.35c0-13.186-4.93-22.54-17.23-23.677-5.855-.54-12.12 5.298-12.12 5.298s-5.528-5.148-11.041-5.345z" style="opacity:.99;fill:#cc4544;fill-opacity:1;fill-rule:nonzero;stroke:none" transform="translate(189.459 182.014) scale(.71563)" id="path548"/><path d="M47.757 760.415a8.075 8.075 0 0 0-1.006.042c-11.235 1.015-15.739 9.367-15.739 21.141 0 14.48 12.018 26.207 26.831 26.207 14.814 0 26.81-11.726 26.81-26.207 0-11.774-4.504-20.126-15.74-21.14-5.347-.484-11.07 4.73-11.07 4.73s-5.05-4.597-10.086-4.773z" style="opacity:.99;fill:#ff5b45;fill-opacity:1;fill-rule:nonzero;stroke:none;stroke-width:.90312" transform="translate(189.459 182.014) scale(.71563)" id="path550"/><path d="M50.459 757.55c-1.864.012-3.63.6-5.056 1.569 1.648-.467 3.34-.429 4.819.062a7.697 7.697 0 0 1 3.629 2.551c.129.167.24.335.353.51-.455.162-.893.353-1.315.571-1.803.936-3.23 2.333-4.13 3.966a9.136 9.136 0 0 0-1.094 5.176c.395-1.666 1.274-3.129 2.423-4.18a7.608 7.608 0 0 1 3.976-1.91 7.01 7.01 0 0 1 .872-.065c.408.882 1.42 1.521 2.623 1.568 1.169.045 2.19-.482 2.684-1.288.067.011.131.018.198.032 1.39.299 2.762 1.064 3.842 2.187a8.245 8.245 0 0 1 2.17 4.308c.258-1.704.001-3.538-.793-5.224a9.933 9.933 0 0 0-3.861-4.25c-.057-.034-.113-.073-.17-.106.215-.336.434-.665.708-.967a7.697 7.697 0 0 1 3.815-2.263c1.512-.375 3.227-.282 4.834.311a9.225 9.225 0 0 0-4.944-1.955 9.867 9.867 0 0 0-5.59 1.225 10.794 10.794 0 0 0-2.33 1.774 10.793 10.793 0 0 0-2.185-1.949 9.867 9.867 0 0 0-5.478-1.653z" style="fill:#6ea547;fill-opacity:1;fill-rule:evenodd;stroke:none" transform="translate(189.459 182.014) scale(.71563)" id="path552"/><path d="M46.803 758.23a8.648 8.648 0 0 0-1.102.046c-12.3 1.137-17.23 10.491-17.23 23.677 0 16.217 13.156 29.35 29.373 29.35s29.35-13.133 29.35-29.35c0-13.186-4.93-22.54-17.23-23.677-5.855-.54-12.12 5.298-12.12 5.298s-5.528-5.148-11.041-5.345z" style="opacity:.99;fill:#cc4544;fill-opacity:1;fill-rule:nonzero;stroke:none" transform="translate(167.447 204.739) scale(.71563)" id="path554"/><path d="M47.757 760.415a8.075 8.075 0 0 0-1.006.042c-11.235 1.015-15.739 9.367-15.739 21.141 0 14.48 12.018 26.207 26.831 26.207 14.814 0 26.81-11.726 26.81-26.207 0-11.774-4.504-20.126-15.74-21.14-5.347-.484-11.07 4.73-11.07 4.73s-5.05-4.597-10.086-4.773z" style="opacity:.99;fill:#ff5b45;fill-opacity:1;fill-rule:nonzero;stroke:none;stroke-width:.90312" transform="translate(167.447 204.739) scale(.71563)" id="path556"/><path d="M50.459 757.55c-1.864.012-3.63.6-5.056 1.569 1.648-.467 3.34-.429 4.819.062a7.697 7.697 0 0 1 3.629 2.551c.129.167.24.335.353.51-.455.162-.893.353-1.315.571-1.803.936-3.23 2.333-4.13 3.966a9.136 9.136 0 0 0-1.094 5.176c.395-1.666 1.274-3.129 2.423-4.18a7.608 7.608 0 0 1 3.976-1.91 7.01 7.01 0 0 1 .872-.065c.408.882 1.42 1.521 2.623 1.568 1.169.045 2.19-.482 2.684-1.288.067.011.131.018.198.032 1.39.299 2.762 1.064 3.842 2.187a8.245 8.245 0 0 1 2.17 4.308c.258-1.704.001-3.538-.793-5.224a9.933 9.933 0 0 0-3.861-4.25c-.057-.034-.113-.073-.17-.106.215-.336.434-.665.708-.967a7.697 7.697 0 0 1 3.815-2.263c1.512-.375 3.227-.282 4.834.311a9.225 9.225 0 0 0-4.944-1.955 9.867 9.867 0 0 0-5.59 1.225 10.794 10.794 0 0 0-2.33 1.774 10.793 10.793 0 0 0-2.185-1.949 9.867 9.867 0 0 0-5.478-1.653z" style="fill:#6ea547;fill-opacity:1;fill-rule:evenodd;stroke:none" transform="translate(167.447 204.739) scale(.71563)" id="path558"/><g id="g566"><path d="M46.803 758.23a8.648 8.648 0 0 0-1.102.046c-12.3 1.137-17.23 10.491-17.23 23.677 0 16.217 13.156 29.35 29.373 29.35s29.35-13.133 29.35-29.35c0-13.186-4.93-22.54-17.23-23.677-5.855-.54-12.12 5.298-12.12 5.298s-5.528-5.148-11.041-5.345z" style="opacity:.99;fill:#cc4544;fill-opacity:1;fill-rule:nonzero;stroke:none" transform="translate(210.258 204.739) scale(.71563)" id="path560"/><path d="M47.757 760.415a8.075 8.075 0 0 0-1.006.042c-11.235 1.015-15.739 9.367-15.739 21.141 0 14.48 12.018 26.207 26.831 26.207 14.814 0 26.81-11.726 26.81-26.207 0-11.774-4.504-20.126-15.74-21.14-5.347-.484-11.07 4.73-11.07 4.73s-5.05-4.597-10.086-4.773z" style="opacity:.99;fill:#ff5b45;fill-opacity:1;fill-rule:nonzero;stroke:none;stroke-width:.90312" transform="translate(210.258 204.739) scale(.71563)" id="path562"/><path d="M50.459 757.55c-1.864.012-3.63.6-5.056 1.569 1.648-.467 3.34-.429 4.819.062a7.697 7.697 0 0 1 3.629 2.551c.129.167.24.335.353.51-.455.162-.893.353-1.315.571-1.803.936-3.23 2.333-4.13 3.966a9.136 9.136 0 0 0-1.094 5.176c.395-1.666 1.274-3.129 2.423-4.18a7.608 7.608 0 0 1 3.976-1.91 7.01 7.01 0 0 1 .872-.065c.408.882 1.42 1.521 2.623 1.568 1.169.045 2.19-.482 2.684-1.288.067.011.131.018.198.032 1.39.299 2.762 1.064 3.842 2.187a8.245 8.245 0 0 1 2.17 4.308c.258-1.704.001-3.538-.793-5.224a9.933 9.933 0 0 0-3.861-4.25c-.057-.034-.113-.073-.17-.106.215-.336.434-.665.708-.967a7.697 7.697 0 0 1 3.815-2.263c1.512-.375 3.227-.282 4.834.311a9.225 9.225 0 0 0-4.944-1.955 9.867 9.867 0 0 0-5.59 1.225 10.794 10.794 0 0 0-2.33 1.774 10.793 10.793 0 0 0-2.185-1.949 9.867 9.867 0 0 0-5.478-1.653z" style="fill:#6ea547;fill-opacity:1;fill-rule:evenodd;stroke:none" transform="translate(210.258 204.739) scale(.71563)" id="path564"/></g><g id="g574"><path d="M46.803 758.23a8.648 8.648 0 0 0-1.102.046c-12.3 1.137-17.23 10.491-17.23 23.677 0 16.217 13.156 29.35 29.373 29.35s29.35-13.133 29.35-29.35c0-13.186-4.93-22.54-17.23-23.677-5.855-.54-12.12 5.298-12.12 5.298s-5.528-5.148-11.041-5.345z" style="opacity:.99;fill:#cc4544;fill-opacity:1;fill-rule:nonzero;stroke:none" transform="translate(145.435 230.71) scale(.71563)" id="path568"/><path d="M47.757 760.415a8.075 8.075 0 0 0-1.006.042c-11.235 1.015-15.739 9.367-15.739 21.141 0 14.48 12.018 26.207 26.831 26.207 14.814 0 26.81-11.726 26.81-26.207 0-11.774-4.504-20.126-15.74-21.14-5.347-.484-11.07 4.73-11.07 4.73s-5.05-4.597-10.086-4.773z" style="opacity:.99;fill:#ff5b45;fill-opacity:1;fill-rule:nonzero;stroke:none;stroke-width:.90312" transform="translate(145.435 230.71) scale(.71563)" id="path570"/><path d="M50.459 757.55c-1.864.012-3.63.6-5.056 1.569 1.648-.467 3.34-.429 4.819.062a7.697 7.697 0 0 1 3.629 2.551c.129.167.24.335.353.51-.455.162-.893.353-1.315.571-1.803.936-3.23 2.333-4.13 3.966a9.136 9.136 0 0 0-1.094 5.176c.395-1.666 1.274-3.129 2.423-4.18a7.608 7.608 0 0 1 3.976-1.91 7.01 7.01 0 0 1 .872-.065c.408.882 1.42 1.521 2.623 1.568 1.169.045 2.19-.482 2.684-1.288.067.011.131.018.198.032 1.39.299 2.762 1.064 3.842 2.187a8.245 8.245 0 0 1 2.17 4.308c.258-1.704.001-3.538-.793-5.224a9.933 9.933 0 0 0-3.861-4.25c-.057-.034-.113-.073-.17-.106.215-.336.434-.665.708-.967a7.697 7.697 0 0 1 3.815-2.263c1.512-.375 3.227-.282 4.834.311a9.225 9.225 0 0 0-4.944-1.955 9.867 9.867 0 0 0-5.59 1.225 10.794 10.794 0 0 0-2.33 1.774 10.793 10.793 0 0 0-2.185-1.949 9.867 9.867 0 0 0-5.478-1.653z" style="fill:#6ea547;fill-opacity:1;fill-rule:evenodd;stroke:none" transform="translate(145.435 230.71) scale(.71563)" id="path572"/></g><g id="g582"><path d="M46.803 758.23a8.648 8.648 0 0 0-1.102.046c-12.3 1.137-17.23 10.491-17.23 23.677 0 16.217 13.156 29.35 29.373 29.35s29.35-13.133 29.35-29.35c0-13.186-4.93-22.54-17.23-23.677-5.855-.54-12.12 5.298-12.12 5.298s-5.528-5.148-11.041-5.345z" style="opacity:.99;fill:#cc4544;fill-opacity:1;fill-rule:nonzero;stroke:none" transform="translate(188.246 230.71) scale(.71563)" id="path576"/><path d="M47.757 760.415a8.075 8.075 0 0 0-1.006.042c-11.235 1.015-15.739 9.367-15.739 21.141 0 14.48 12.018 26.207 26.831 26.207 14.814 0 26.81-11.726 26.81-26.207 0-11.774-4.504-20.126-15.74-21.14-5.347-.484-11.07 4.73-11.07 4.73s-5.05-4.597-10.086-4.773z" style="opacity:.99;fill:#ff5b45;fill-opacity:1;fill-rule:nonzero;stroke:none;stroke-width:.90312" transform="translate(188.246 230.71) scale(.71563)" id="path578"/><path d="M50.459 757.55c-1.864.012-3.63.6-5.056 1.569 1.648-.467 3.34-.429 4.819.062a7.697 7.697 0 0 1 3.629 2.551c.129.167.24.335.353.51-.455.162-.893.353-1.315.571-1.803.936-3.23 2.333-4.13 3.966a9.136 9.136 0 0 0-1.094 5.176c.395-1.666 1.274-3.129 2.423-4.18a7.608 7.608 0 0 1 3.976-1.91 7.01 7.01 0 0 1 .872-.065c.408.882 1.42 1.521 2.623 1.568 1.169.045 2.19-.482 2.684-1.288.067.011.131.018.198.032 1.39.299 2.762 1.064 3.842 2.187a8.245 8.245 0 0 1 2.17 4.308c.258-1.704.001-3.538-.793-5.224a9.933 9.933 0 0 0-3.861-4.25c-.057-.034-.113-.073-.17-.106.215-.336.434-.665.708-.967a7.697 7.697 0 0 1 3.815-2.263c1.512-.375 3.227-.282 4.834.311a9.225 9.225 0 0 0-4.944-1.955 9.867 9.867 0 0 0-5.59 1.225 10.794 10.794 0 0 0-2.33 1.774 10.793 10.793 0 0 0-2.185-1.949 9.867 9.867 0 0 0-5.478-1.653z" style="fill:#6ea547;fill-opacity:1;fill-rule:evenodd;stroke:none" transform="translate(188.246 230.71) scale(.71563)" id="path580"/></g><g id="g590"><path d="M46.803 758.23a8.648 8.648 0 0 0-1.102.046c-12.3 1.137-17.23 10.491-17.23 23.677 0 16.217 13.156 29.35 29.373 29.35s29.35-13.133 29.35-29.35c0-13.186-4.93-22.54-17.23-23.677-5.855-.54-12.12 5.298-12.12 5.298s-5.528-5.148-11.041-5.345z" style="opacity:.99;fill:#cc4544;fill-opacity:1;fill-rule:nonzero;stroke:none" transform="translate(230.944 230.71) scale(.71563)" id="path584"/><path d="M47.757 760.415a8.075 8.075 0 0 0-1.006.042c-11.235 1.015-15.739 9.367-15.739 21.141 0 14.48 12.018 26.207 26.831 26.207 14.814 0 26.81-11.726 26.81-26.207 0-11.774-4.504-20.126-15.74-21.14-5.347-.484-11.07 4.73-11.07 4.73s-5.05-4.597-10.086-4.773z" style="opacity:.99;fill:#ff5b45;fill-opacity:1;fill-rule:nonzero;stroke:none;stroke-width:.90312" transform="translate(230.944 230.71) scale(.71563)" id="path586"/><path d="M50.459 757.55c-1.864.012-3.63.6-5.056 1.569 1.648-.467 3.34-.429 4.819.062a7.697 7.697 0 0 1 3.629 2.551c.129.167.24.335.353.51-.455.162-.893.353-1.315.571-1.803.936-3.23 2.333-4.13 3.966a9.136 9.136 0 0 0-1.094 5.176c.395-1.666 1.274-3.129 2.423-4.18a7.608 7.608 0 0 1 3.976-1.91 7.01 7.01 0 0 1 .872-.065c.408.882 1.42 1.521 2.623 1.568 1.169.045 2.19-.482 2.684-1.288.067.011.131.018.198.032 1.39.299 2.762 1.064 3.842 2.187a8.245 8.245 0 0 1 2.17 4.308c.258-1.704.001-3.538-.793-5.224a9.933 9.933 0 0 0-3.861-4.25c-.057-.034-.113-.073-.17-.106.215-.336.434-.665.708-.967a7.697 7.697 0 0 1 3.815-2.263c1.512-.375 3.227-.282 4.834.311a9.225 9.225 0 0 0-4.944-1.955 9.867 9.867 0 0 0-5.59 1.225 10.794 10.794 0 0 0-2.33 1.774 10.793 10.793 0 0 0-2.185-1.949 9.867 9.867 0 0 0-5.478-1.653z" style="fill:#6ea547;fill-opacity:1;fill-rule:evenodd;stroke:none" transform="translate(230.944 230.71) scale(.71563)" id="path588"/></g></g><path d="M2.793 50.617h94.414l-3.019 37.067H5.812z" style="fill:#ad6a4f;fill-opacity:1;fill-rule:nonzero;stroke:none;stroke-width:.513588" id="path594"/><path d="M9.022 50.618v37.071h.503V50.618zm5.425 0v37.071h.503V50.618zm5.44 0v37.071h.504V50.618zm5.426 0v37.071h.503V50.618zm5.44 0v37.071h.503V50.618zm5.425 0v37.071h.503V50.618zm5.426 0v37.071h.502V50.618zm5.44 0v37.071h.503V50.618zm5.425 0v37.071h.503V50.618zm5.425 0v37.071h.502V50.618zm5.44 0v37.071h.503V50.618zm5.425 0v37.071h.503V50.618zm5.425 0v37.071h.503V50.618zm5.44 0v37.071h.503V50.618zm5.426 0v37.071h.503V50.618zm5.425 0v37.071h.503V50.618z" style="opacity:.371681;fill:#c79885;fill-opacity:1;fill-rule:nonzero;stroke:none;stroke-width:.513588" id="path596"/><path d="m2.615 57.76.255 3.178h94.26l.255-3.178z" style="fill:#a5644c;fill-opacity:1;fill-rule:nonzero;stroke:none;stroke-width:.513588" id="path598"/></g><metadata id="metadata664"><rdf:RDF><cc:Work><dc:format>image/svg+xml</dc:format><dc:type rdf:resource="http://purl.org/dc/dcmitype/StillImage"/><cc:license rdf:resource="http://creativecommons.org/publicdomain/zero/1.0/"/><dc:publisher><cc:Agent rdf:about="http://openclipart.org/"><dc:title>Openclipart</dc:title></cc:Agent></dc:publisher><dc:title>Supermarket Chiller</dc:title><dc:date>2014-04-22T14:14:39</dc:date><dc:description>Supermarket Chiller</dc:description><dc:source>https://openclipart.org/detail/192974/supermarket-chiller-by-viscious-speed-192974</dc:source><dc:creator><cc:Agent><dc:title>Viscious-Speed</dc:title></cc:Agent></dc:creator><dc:subject><rdf:Bag><rdf:li>Chiller</rdf:li><rdf:li>Supermarket</rdf:li><rdf:li>products</rdf:li><rdf:li>shopping</rdf:li></rdf:Bag></dc:subject><dc:contributor><cc:Agent><dc:title>Timothée Giet</dc:title></cc:Agent></dc:contributor></cc:Work><cc:License rdf:about="http://creativecommons.org/publicdomain/zero/1.0/"><cc:permits rdf:resource="http://creativecommons.org/ns#Reproduction"/><cc:permits rdf:resource="http://creativecommons.org/ns#Distribution"/><cc:permits rdf:resource="http://creativecommons.org/ns#DerivativeWorks"/></cc:License></rdf:RDF></metadata></svg>