<!--Created with Inkscape (http://www.inkscape.org/)--><svg xmlns:dc="http://purl.org/dc/elements/1.1/" xmlns:cc="http://creativecommons.org/ns#" xmlns:rdf="http://www.w3.org/1999/02/22-rdf-syntax-ns#" xmlns="http://www.w3.org/2000/svg" xmlns:sodipodi="http://sodipodi.sourceforge.net/DTD/sodipodi-0.dtd" xmlns:inkscape="http://www.inkscape.org/namespaces/inkscape" width="120" height="200" sodipodi:version="0.32" inkscape:version="0.91 r13725" sodipodi:docname="math_1.svg" version="1.0" inkscape:output_extension="org.inkscape.output.svg.inkscape" inkscape:export-filename="/home/mat/Travaux/inkscape/Gcompris/memory/math_1.png" inkscape:export-xdpi="90" inkscape:export-ydpi="90"><sodipodi:namedview pagecolor="#ffffff" bordercolor="#666666" borderopacity="1.0" inkscape:pageopacity="0.0" inkscape:pageshadow="2" inkscape:zoom="3.4025974" inkscape:cx="61.5" inkscape:cy="100.5" inkscape:document-units="px" inkscape:current-layer="layer1" inkscape:window-width="1280" inkscape:window-height="981" inkscape:window-x="-4" inkscape:window-y="-5" height="200px" width="120px" showguides="true" inkscape:guide-bbox="true" showgrid="false"><sodipodi:guide orientation="0,1" position="-509,209"/></sodipodi:namedview><metadata><rdf:RDF><cc:Work><dc:format>image/svg+xml</dc:format><dc:type rdf:resource="http://purl.org/dc/dcmitype/StillImage"/></cc:Work></rdf:RDF></metadata><g inkscape:label="Calque 1" inkscape:groupmode="layer"><path d="M27.494 2.807c-.642-.032-1.58.098-1.621.913-.359 1.879-.138 3.802-.13 5.7-.466.004-.917.16-1.355.28-.54-2.002-1.035-4.233-2.665-5.645-.885-.602-2.013-.13-2.7.553-.538.348-1.004 1.3-.284 1.718.538.337 1.214.263 1.808.165.702 1.578 1.568 3.163 2.17 4.737-.159.28-.268.586-.345.897-2.693-1.39-5.878-1.039-8.802-.794-1.776.224-3.895.86-4.604 2.688-.666 1.95.403 3.938 1.407 5.555 1.77 2.798 4.134 5.146 6.38 7.568-.877 3.366-2.108 6.805-1.668 10.332.525 2.172-.23 4.516.616 6.625.33.583 1.218.175 1.198-.427.345-1.077.025-2.38.736-3.314 2.155.185 4.148-.971 6-1.933 1.676-.986 3.121-2.451 3.802-4.296.304.777.998 1.845 1.976 1.549.898-.374 1.014-1.49 1.17-2.328 1.989 2.458 5.324 3.22 8.356 3.405.844.036 1.708-.025 2.503-.317 1.058.85.88 2.51 1.897 3.39.482.338.993-.215.94-.71.046-1.21-.39-2.367-.653-3.529-.37-1.03-.51-2.108-.62-3.19-.662-3.263-2.572-6.037-4.218-8.865-.108-.555.51-.908.624-1.429 1.789-3.449 3.808-6.976 4.056-10.92.05-1.524-.752-3.203-2.302-3.636-2.482-.823-5.12.073-7.556.67-1.783.486-3.57 1.41-4.793 2.715a3.472 3.472 0 0 0-1.029-.964c.238-1.566.28-3.286.635-4.753.88-.028 1.942-.907 1.517-1.836-.564-.74-1.633-.548-2.446-.574z" style="fill:#000;fill-opacity:1;fill-rule:evenodd;stroke:none;stroke-width:1px;stroke-linecap:butt;stroke-linejoin:miter;stroke-opacity:1" transform="rotate(39.413 -85.666 104.861)"/><path sodipodi:nodetypes="cccccccscccccccccccccccccccccccccccccssssccssssccsscccsscccssssccssssc" d="M27.152 4.129c-.275.319-.131.885-.136 1.368.055-.466.129-.96.136-1.368zm-.136 1.368c-.014.117-.03.231-.04.343.03-.104.038-.223.04-.343zm-6.242-.409a.427.427 0 0 0-.072.007c-.736.136.33.108.279.045a.392.392 0 0 0-.207-.052zm18.693 3.436c-.171 0-.337.014-.505.038-2.819.145-5.709.868-8.135 2.34-1.041.742-1.682 1.833-2.256 2.95-.228-1.442-1.082-3.306-2.826-3.105-1.658-.083-2.59 1.753-1.944 3.189.727 1.768-.937.73-1.456-.212-2.847-2.068-6.35-1.33-9.628-.929-1.39.219-3.136 1.41-2.593 3.04.928 3.764 4.045 6.471 6.508 9.295.572.816 1.974 1.44 1.322 2.58-.987 3.525-2.197 7.159-1.407 10.837.087.355-.157 1.399.286.7.612-.464 1.644.093 2.424-.278 2.127-.677 4.306-1.678 5.814-3.325 1.15-1.289 1.486-3.032 1.854-4.635.937-.62 1.094 1.045 1.29 1.608.22.55.44 1.305.803 1.691.678-1.727.14-3.664.493-5.47 1.044 2.784 3.028 5.628 6.177 6.112 1.903.466 4.04.953 5.873.032.553.345.795.517.492-.278-.312-1.87-.565-3.784-1.523-5.465-.946-1.995-2.177-3.841-3.273-5.755 1.998-4.191 4.993-8.266 4.874-13.087-.26-1.274-1.466-1.875-2.664-1.873zm-2.048 1.814c.226.008.465.054.713.137 3.34 1.113 2.93 5.791-.37 6.378-3.3.586-3.813-1.762-3.74-3.449 0 0 1.127-2.919 3.176-3.06.074-.004.145-.008.22-.006zm-20.463 3.3c.226.008.465.053.713.136 3.34 1.113 2.937 5.791-.363 6.378-3.3.587-3.814-1.762-3.74-3.448 0 0 1.12-2.92 3.17-3.06.073-.005.144-.009.22-.006zm17.397 4.958c.166-.011.338.01.525.072 1.892.63 1.662 3.284-.207 3.616-1.87.333-2.162-1.002-2.12-1.957 0 0 .641-1.651 1.802-1.73zm-14.104 2.23c.128.004.268.031.408.078 1.892.63 1.662 3.278-.208 3.61-1.869.333-2.16-.995-2.12-1.95 0 0 .678-1.776 1.92-1.738zm16.898 7.188a2.45 2.45 0 0 1 .907.13c3.34 1.113 2.937 5.798-.363 6.385-3.3.586-3.813-1.762-3.74-3.449 0 0 1.133-2.943 3.196-3.066zM20.845 29.35a2.51 2.51 0 0 1 .914.136c3.34 1.113 2.93 5.791-.37 6.378-3.3.587-3.813-1.762-3.74-3.448 0 0 1.133-2.944 3.196-3.066z" style="fill:#cd87de;fill-opacity:1;fill-rule:evenodd;stroke:none;stroke-width:1px;stroke-linecap:butt;stroke-linejoin:miter;stroke-opacity:1" transform="rotate(39.413 -85.666 104.861)"/><path sodipodi:nodetypes="ccccccccc" d="M26.056 9.794c-2.4-.02-3.778 2.61-3.422 4.764.106 2.477.865 4.936 2.23 6.994-1.205 3.262.116 6.801 1.385 9.839.964 2.06 2.242 3.943 3.638 5.737.644-4.878 2.134-9.975.648-14.83-.23-.826-1.298-1.333-.7-2.27.495-2.961.529-6.312-1.102-8.925-.628-.83-1.618-1.394-2.677-1.309z" style="fill:#000;fill-opacity:1;fill-rule:evenodd;stroke:none;stroke-width:1px;stroke-linecap:butt;stroke-linejoin:miter;stroke-opacity:1" transform="rotate(39.413 -85.666 104.861)"/><path sodipodi:nodetypes="cccccccccczccc" d="M27.206 4.106c-.343.399-.03 1.19-.175 1.712.05-.558.166-1.2.175-1.712zm-6.45.966c-.736.137.33.109.28.046a.395.395 0 0 0-.28-.046zm1.543 1.99c-.133-.315-.4-.836-.076-.162l.076.162zm6.326 14.1c.8-1.001 1.68-11.367-2.972-10.511-4.664.858-.755 10.846.33 10.742-1.729 1.533-.613 8.266 3.383 13.626 1.21-6.894 1.548-12.443-.74-13.857z" style="fill:#fc0;fill-opacity:1;fill-rule:evenodd;stroke:none;stroke-width:1px;stroke-linecap:butt;stroke-linejoin:miter;stroke-opacity:1" transform="rotate(39.413 -85.666 104.861)"/><path d="M37.143 11.214c-1.875.43-3.245 3.241-1.53 4.628 1.721 1.104 4.432-.535 3.928-2.639-.169-1.113-1.252-2.062-2.398-1.99zm-20.47 3.305c-1.88.425-3.22 3.247-1.517 4.622 1.698 1.11 4.42-.531 3.928-2.619-.175-1.124-1.24-2.087-2.411-2.003zm17.656 4.946c-1.038.164-1.459 2.23-.064 2.106 1.379-.142 1.416-2.05.064-2.106zm-14.214 2.23c-1.102.17-1.452 2.347.026 2.087 1.267-.208 1.3-2.01-.026-2.087zm17.008 7.188c-1.89.381-3.283 3.18-1.627 4.596 1.657 1.166 4.39-.42 3.993-2.496-.14-1.136-1.19-2.142-2.366-2.1zm-16.302 1.335c-1.89.382-3.283 3.18-1.627 4.596 1.668 1.18 4.469-.467 3.98-2.56-.152-1.124-1.215-2.063-2.353-2.036z" style="fill:#ff2a7f;fill-opacity:1;fill-rule:evenodd;stroke:none;stroke-width:1px;stroke-linecap:butt;stroke-linejoin:miter;stroke-opacity:1" transform="rotate(39.413 -85.666 104.861)"/><path d="M26.294 10.62a2.89 2.89 0 0 0-.622.052c-1.49.274-2.105 1.479-2.217 2.988a113.54 113.54 0 0 1 5.322-.609c-.443-1.376-1.215-2.384-2.483-2.43zm2.813 3.864c-1.827.249-3.832.472-5.62.622.038.384.093.772.169 1.16 1.742-.256 3.734-.493 5.58-.668-.028-.377-.071-.75-.129-1.114zm.175 2.605c-1.75.23-3.623.428-5.29.564.15.507.317.995.494 1.44a114.72 114.72 0 0 1 4.731-.552c.039-.457.06-.946.065-1.452zm-.272 2.975c-1.274.163-2.607.311-3.863.428.335.587.647.94.855.92-.41.364-.655 1.021-.745 1.88 1.477-.2 3.07-.377 4.57-.518-.27-.724-.656-1.265-1.18-1.588.128-.16.254-.567.363-1.122zm1.167 4.155c-1.612.216-3.342.41-4.933.551.026.363.071.743.136 1.141 1.557-.221 3.283-.426 4.913-.583a12.666 12.666 0 0 0-.116-1.109zm.149 2.606c-1.544.198-3.166.372-4.648.499.118.464.259.94.422 1.426 1.348-.182 2.79-.345 4.167-.48.033-.502.052-.983.059-1.445zm-.188 2.962c-1.163.146-2.36.28-3.507.389a22.797 22.797 0 0 0 2.755 4.861c.328-1.87.587-3.634.752-5.25z" style="fill:#f60;fill-opacity:1;fill-rule:evenodd;stroke:none;stroke-width:1px;stroke-linecap:butt;stroke-linejoin:miter;stroke-opacity:1" transform="rotate(39.413 -85.666 104.861)"/></g></svg>