<?xml version="1.0" encoding="UTF-8" standalone="no"?>
<!-- Created with Inkscape (http://www.inkscape.org/) -->

<svg
   xmlns:dc="http://purl.org/dc/elements/1.1/"
   xmlns:cc="http://creativecommons.org/ns#"
   xmlns:rdf="http://www.w3.org/1999/02/22-rdf-syntax-ns#"
   xmlns:svg="http://www.w3.org/2000/svg"
   xmlns="http://www.w3.org/2000/svg"
   xmlns:xlink="http://www.w3.org/1999/xlink"
   xmlns:sodipodi="http://sodipodi.sourceforge.net/DTD/sodipodi-0.dtd"
   xmlns:inkscape="http://www.inkscape.org/namespaces/inkscape"
   id="svg2"
   sodipodi:docname="Plc-cpu.svg"
   inkscape:export-filename="/Users/marco_mac/Desktop/alimentarore plc.png"
   viewBox="0 0 177.17 425.2"
   inkscape:export-xdpi="90"
   version="1.1"
   inkscape:export-ydpi="90"
   inkscape:version="0.48.4 r9939"
   width="100%"
   height="100%">
  <title
     id="title3237">Plc Cpu Card</title>
  <defs
     id="defs4">
    <pattern
       id="pattern7961"
       xlink:href="#pattern5448"
       patternTransform="matrix(.099986 0 0 .099986 -268.25 154.01)"
       inkscape:collect="always" />
    <filter
       id="filter19861"
       height="1.5433"
       width="1.152"
       color-interpolation-filters="sRGB"
       y="-.27166"
       x="-.075982"
       inkscape:collect="always">
      <feGaussianBlur
         id="feGaussianBlur19863"
         stdDeviation="0.4152022"
         inkscape:collect="always" />
    </filter>
    <filter
       id="filter17863"
       height="1.2384"
       width="1.1916"
       color-interpolation-filters="sRGB"
       y="-.11922"
       x="-.095824"
       inkscape:collect="always">
      <feGaussianBlur
         id="feGaussianBlur17865"
         stdDeviation="0.59132314"
         inkscape:collect="always" />
    </filter>
    <filter
       id="filter17798"
       height="1.6938"
       width="2.3875"
       color-interpolation-filters="sRGB"
       y="-.34688"
       x="-.69375"
       inkscape:collect="always">
      <feGaussianBlur
         id="feGaussianBlur17800"
         stdDeviation="2.6606239"
         inkscape:collect="always" />
    </filter>
    <filter
       id="filter16635"
       height="1.8"
       width="3.4"
       color-interpolation-filters="sRGB"
       y="-0.4"
       x="-1.2"
       inkscape:collect="always">
      <feGaussianBlur
         id="feGaussianBlur16637"
         stdDeviation="2.4221898"
         inkscape:collect="always" />
    </filter>
    <filter
       id="filter14414"
       height="1.3568"
       width="2.6616"
       color-interpolation-filters="sRGB"
       y="-.17842"
       x="-.83080"
       inkscape:collect="always">
      <feGaussianBlur
         id="feGaussianBlur14416"
         stdDeviation="1.6051881"
         inkscape:collect="always" />
    </filter>
    <filter
       id="filter13274"
       height="1.3134"
       width="1.245"
       color-interpolation-filters="sRGB"
       y="-.15669"
       x="-.12250"
       inkscape:collect="always">
      <feGaussianBlur
         id="feGaussianBlur13276"
         stdDeviation="0.67997904"
         inkscape:collect="always" />
    </filter>
    <radialGradient
       id="radialGradient4350"
       gradientUnits="userSpaceOnUse"
       cy="834.73"
       cx="-73.003"
       gradientTransform="matrix(3.1944 -.000085156 .00028123 12.795 276.96 -9939.7)"
       r="2.1801"
       inkscape:collect="always">
      <stop
         id="stop4346"
         style="stop-color:#000000"
         offset="0" />
      <stop
         id="stop4348"
         style="stop-color:#000000;stop-opacity:0"
         offset="1" />
    </radialGradient>
    <radialGradient
       id="radialGradient4386"
       gradientUnits="userSpaceOnUse"
       cy="159.77"
       cx="-31.004"
       gradientTransform="matrix(4.0553 12.455 -11.568 3.7664 2089.1 51.588)"
       r="1.6955"
       inkscape:collect="always">
      <stop
         id="stop14428"
         style="stop-color:rgb(69, 66, 66)"
         offset="0" />
      <stop
         id="stop14430"
         style="stop-color:rgb(69, 66, 66);stop-opacity:0"
         offset="1" />
    </radialGradient>
    <filter
       id="filter4645"
       height="2.7201"
       width="1.0243"
       color-interpolation-filters="sRGB"
       y="-.86007"
       x="-.012170"
       inkscape:collect="always">
      <feGaussianBlur
         id="feGaussianBlur4647"
         stdDeviation="0.84952338"
         inkscape:collect="always" />
    </filter>
    <pattern
       id="Wavy-8"
       width="30.066020"
       patternUnits="userSpaceOnUse"
       height="5.1805778">
      <path
         id="path5179-7"
         style="fill:black"
         d="m7.597 0.061c-2.518-0.248-4.941 0.241-7.607 1.727v1.273c2.783-1.63 5.183-2.009 7.482-1.781 2.298 0.228 4.497 1.081 6.781 1.938 4.567 1.713 9.551 3.458 15.813-0.157l-0.004-1.273c-6.44 3.709-10.816 1.982-15.371 0.273-2.278-0.854-4.576-1.75-7.094-2z" />
    </pattern>
    <pattern
       id="pattern5448"
       xlink:href="#Wavy-8"
       patternTransform="translate(0 .0000026172)" />
  </defs>
  <sodipodi:namedview
     id="base"
     inkscape:showpageshadow="false"
     inkscape:zoom="0.63028097"
     borderopacity="1.0"
     inkscape:current-layer="layer7"
     inkscape:cx="44.298765"
     guidetolerance="10000"
     inkscape:snap-grids="true"
     inkscape:snap-page="true"
     inkscape:window-maximized="1"
     inkscape:snap-bbox="false"
     showgrid="false"
     inkscape:snap-to-guides="true"
     units="mm"
     inkscape:snap-midpoints="true"
     inkscape:snap-global="true"
     showguides="true"
     bordercolor="#666666"
     inkscape:window-x="-2"
     inkscape:guide-bbox="true"
     inkscape:snap-bbox-edge-midpoints="true"
     objecttolerance="1"
     inkscape:object-nodes="true"
     inkscape:window-y="-3"
     inkscape:window-width="1366"
     inkscape:pageopacity="0.0"
     inkscape:pageshadow="2"
     pagecolor="#ffffff"
     gridtolerance="10"
     inkscape:cy="280.53756"
     inkscape:document-units="px"
     inkscape:bbox-nodes="true"
     inkscape:window-height="714"
     showborder="true" />
  <g
     id="layer2"
     inkscape:label="fondo"
     inkscape:groupmode="layer">
    <rect
       id="rect2220"
       ry="6.0018"
       style="opacity:.50521;stroke-width:0;fill:#000000"
       rx="6.1149"
       transform="translate(0 -627.17)"
       height="425.02"
       width="177.17"
       y="627.17"
       x="0" />
    <rect
       id="rect4415"
       style="filter:url(#filter4645);fill-opacity:.50588;fill:#333333"
       transform="matrix(.95037 0 0 1.2181 4.0377 -819.12)"
       rx=".0017620"
       ry=".0012922"
       height="2.3706"
       width="167.53"
       y="872.83"
       x="5.1928" />
  </g>
  <g
     id="layer7"
     inkscape:label="text"
     inkscape:groupmode="layer">
    <g
       id="text4950"
       inkscape:transform-center-x="26.87799"
       inkscape:transform-center-y="137.58971"
       style="fill:#f2f2f2">
      <path
         id="path3198"
         d="m148.81 7.6547v1.248c-0.39845-0.37109-0.82423-0.64843-1.2774-0.83203-0.44922-0.18359-0.92774-0.27538-1.4355-0.27539-1 0.0000079-1.7656 0.30665-2.2969 0.91992-0.53125 0.60938-0.79687 1.4922-0.79687 2.6484 0 1.1523 0.26562 2.0352 0.79687 2.6484 0.53125 0.60938 1.2969 0.91406 2.2969 0.91406 0.5078 0.000001 0.98632-0.0918 1.4355-0.27539 0.45312-0.18359 0.8789-0.46094 1.2774-0.83203v1.2363c-0.41407 0.28125-0.85352 0.49219-1.3184 0.63281-0.46095 0.14062-0.94923 0.21094-1.4648 0.21094-1.3242 0-2.3672-0.4043-3.1289-1.2129-0.76172-0.8125-1.1426-1.9199-1.1426-3.3223 0-1.4062 0.38086-2.5137 1.1426-3.3223 0.76171-0.81249 1.8047-1.2187 3.1289-1.2188 0.52344 0.0000089 1.0156 0.070321 1.4766 0.21094 0.46483 0.13673 0.90038 0.34376 1.3066 0.62109" />
      <path
         id="path3200"
         d="m151.83 7.9535v3.2871h1.4883c0.55077 0.000005 0.97655-0.14257 1.2773-0.42773 0.30078-0.28515 0.45117-0.6914 0.45117-1.2188 0-0.52343-0.15039-0.92773-0.45117-1.2129-0.30079-0.28515-0.72657-0.42773-1.2773-0.42773h-1.4883m-1.1836-0.97266h2.6719c0.98046 0.0000087 1.7207 0.22266 2.2207 0.66797 0.5039 0.44141 0.75585 1.0899 0.75586 1.9453-0.00001 0.86329-0.25196 1.5156-0.75586 1.957-0.50001 0.44141-1.2402 0.66211-2.2207 0.66211h-1.4883v3.5156h-1.1836v-8.748" />
      <path
         id="path3202"
         d="m157.76 6.9809h1.1895v5.3145c-0.00001 0.9375 0.16992 1.6133 0.50976 2.0273 0.33984 0.41016 0.89062 0.61524 1.6524 0.61523 0.7578 0.000001 1.3066-0.20508 1.6465-0.61523 0.33984-0.41406 0.50976-1.0898 0.50977-2.0273v-5.3145h1.1894v5.4609c-0.00001 1.1406-0.28321 2.002-0.84961 2.584-0.56251 0.58203-1.3945 0.87305-2.4961 0.87305-1.1055 0-1.9414-0.29102-2.5078-0.87305-0.5625-0.58203-0.84375-1.4434-0.84375-2.584v-5.4609" />
    </g>
    <g
       id="text4954"
       inkscape:transform-center-x="26.87799"
       inkscape:transform-center-y="137.58971"
       style="fill:#f2f2f2">
      <path
         id="path3205"
         d="m14.192 413.23v0.83984c-0.25391-0.13997-0.50944-0.24414-0.7666-0.3125-0.25391-0.0716-0.51107-0.10742-0.77148-0.10742-0.58268 0-1.0352 0.18555-1.3574 0.55664-0.32227 0.36784-0.4834 0.88542-0.4834 1.5527-0.000001 0.66732 0.16113 1.1865 0.4834 1.5576 0.32226 0.36784 0.77474 0.55176 1.3574 0.55176 0.26041 0 0.51757-0.0342 0.77148-0.10254 0.25716-0.0716 0.51269-0.17741 0.7666-0.31738v0.83007c-0.25066 0.11719-0.51107 0.20508-0.78125 0.26368-0.26693 0.0586-0.55176 0.0879-0.85449 0.0879-0.82357 0-1.4779-0.25879-1.9629-0.77637-0.48503-0.51758-0.72754-1.2158-0.72754-2.0947-5e-7 -0.89192 0.24414-1.5934 0.73242-2.1045 0.49153-0.51106 1.1637-0.7666 2.0166-0.7666 0.27669 0 0.54687 0.0293 0.81055 0.0879 0.26367 0.0553 0.5192 0.13998 0.7666 0.25391" />
      <path
         id="path3207"
         d="m17.884 413.65c-0.48177 0-0.86263 0.1888-1.1426 0.5664-0.27995 0.37436-0.41992 0.88868-0.41992 1.543-0.000002 0.6543 0.13834 1.1702 0.41504 1.5478 0.27995 0.37435 0.66243 0.56153 1.1475 0.56153 0.47851 0 0.85774-0.1888 1.1377-0.56641 0.27994-0.3776 0.41992-0.89192 0.41992-1.543-0.000004-0.64778-0.13998-1.1605-0.41992-1.5381-0.27995-0.38086-0.65918-0.57129-1.1377-0.57129m0-0.76172c0.78125 0 1.3949 0.25391 1.8408 0.76172 0.44596 0.50781 0.66894 1.2109 0.66895 2.1094-0.000006 0.89519-0.22299 1.5983-0.66895 2.1094-0.44597 0.50781-1.0596 0.76172-1.8408 0.76172-0.78451 0-1.3997-0.25391-1.8457-0.76172-0.44271-0.51107-0.66406-1.2142-0.66406-2.1094 0-0.89843 0.22135-1.6016 0.66406-2.1094 0.44596-0.50781 1.0612-0.76172 1.8457-0.76172" />
      <path
         id="path3209"
         d="m25.477 413.85v-2.959h0.89844v7.5977h-0.89844v-0.82032c-0.18881 0.32552-0.42806 0.56804-0.71777 0.72754-0.28646 0.15625-0.63151 0.23438-1.0352 0.23438-0.66081 0-1.1995-0.26368-1.6162-0.79102-0.41341-0.52734-0.62012-1.2207-0.62012-2.0801-0.000001-0.85937 0.2067-1.5527 0.62012-2.0801 0.41666-0.52733 0.9554-0.79101 1.6162-0.79101 0.40364 0 0.74869 0.0798 1.0352 0.23926 0.28971 0.15625 0.52897 0.39714 0.71777 0.72265m-3.0615 1.9092c-0.000002 0.66081 0.13509 1.18 0.40527 1.5576 0.27344 0.37435 0.64778 0.56152 1.123 0.56152 0.47526 0 0.84961-0.18717 1.123-0.56152 0.27343-0.3776 0.41015-0.89681 0.41016-1.5576-0.000004-0.6608-0.13672-1.1784-0.41016-1.5527-0.27344-0.3776-0.64779-0.5664-1.123-0.56641-0.47526 0.00001-0.84961 0.18881-1.123 0.56641-0.27018 0.37435-0.40528 0.89193-0.40527 1.5527" />
      <path
         id="path3211"
         d="m32.903 415.53v0.43945h-4.1309c0.03906 0.6185 0.22461 1.0905 0.55664 1.416 0.33528 0.32227 0.80078 0.4834 1.3965 0.4834 0.34505 0 0.67871-0.0423 1.001-0.12696 0.32552-0.0846 0.64778-0.21158 0.9668-0.38085v0.8496c-0.32227 0.13672-0.65267 0.24089-0.99121 0.3125-0.33854 0.0716-0.68197 0.10743-1.0303 0.10743-0.8724 0-1.5641-0.25391-2.0752-0.76172-0.50781-0.50781-0.76172-1.1947-0.76172-2.0606-0.000001-0.89518 0.24088-1.6048 0.72266-2.1289 0.48502-0.52733 1.1377-0.79101 1.958-0.79101 0.73567 0 1.3167 0.23763 1.7432 0.71289 0.42968 0.47201 0.64453 1.1149 0.64453 1.9287m-0.89844-0.26367c-0.0065-0.49153-0.14486-0.88379-0.41504-1.1768-0.26693-0.29296-0.62175-0.43945-1.0645-0.43945-0.5013 0-0.90332 0.1416-1.2061 0.4248-0.29948 0.28321-0.47201 0.68197-0.51758 1.1963l3.2031-0.005" />
      <path
         id="path3213"
         d="m34.608 417.25h1.0303v1.2402h-1.0303v-1.2402m0-3.9307h1.0303v1.2402h-1.0303v-1.2402" />
      <path
         id="path3215"
         d="m41.238 417.66h1.6113v-5.5615l-1.7529 0.35157v-0.89844l1.7432-0.35156h0.98633v6.46h1.6113v0.83008h-4.1992v-0.83008" />
      <path
         id="path3217"
         d="m49.544 411.85c-0.50782 0.00001-0.8903 0.25066-1.1475 0.75195-0.25391 0.49806-0.38086 1.2484-0.38086 2.251-0.000002 0.99935 0.12695 1.7497 0.38086 2.251 0.25716 0.49804 0.63965 0.74707 1.1475 0.74707 0.51106 0 0.89355-0.24903 1.1475-0.74707 0.25716-0.5013 0.38574-1.2516 0.38574-2.251-0.000004-1.0026-0.12858-1.7529-0.38574-2.251-0.25391-0.50129-0.6364-0.75194-1.1475-0.75195m0-0.78125c0.81705 0.00001 1.4404 0.3239 1.8701 0.97168 0.43294 0.64454 0.64941 1.582 0.64941 2.8125-0.000005 1.2272-0.21648 2.1647-0.64941 2.8125-0.42969 0.64453-1.0531 0.9668-1.8701 0.9668-0.81706 0-1.4421-0.32227-1.875-0.9668-0.42969-0.64779-0.64453-1.5853-0.64453-2.8125-0.000001-1.2305 0.21484-2.168 0.64453-2.8125 0.43294-0.64778 1.0579-0.97167 1.875-0.97168" />
      <path
         id="path3219"
         d="m53.973 417.66h1.6113v-5.5615l-1.7529 0.35157v-0.89844l1.7432-0.35156h0.98633v6.46h1.6113v0.83008h-4.1992v-0.83008" />
      <path
         id="path3221"
         d="m62.278 411.85c-0.50782 0.00001-0.8903 0.25066-1.1475 0.75195-0.25391 0.49806-0.38086 1.2484-0.38086 2.251-0.000002 0.99935 0.12695 1.7497 0.38086 2.251 0.25716 0.49804 0.63965 0.74707 1.1475 0.74707 0.51106 0 0.89355-0.24903 1.1475-0.74707 0.25716-0.5013 0.38574-1.2516 0.38574-2.251-0.000004-1.0026-0.12858-1.7529-0.38574-2.251-0.25391-0.50129-0.6364-0.75194-1.1475-0.75195m0-0.78125c0.81705 0.00001 1.4404 0.3239 1.8701 0.97168 0.43294 0.64454 0.64941 1.582 0.64941 2.8125-0.000005 1.2272-0.21648 2.1647-0.64941 2.8125-0.42969 0.64453-1.0531 0.9668-1.8701 0.9668-0.81706 0-1.4421-0.32227-1.875-0.9668-0.42969-0.64779-0.64453-1.5853-0.64453-2.8125-0.000001-1.2305 0.21484-2.168 0.64453-2.8125 0.43294-0.64778 1.0579-0.97167 1.875-0.97168" />
      <path
         id="path3223"
         d="m66.707 417.66h1.6113v-5.5615l-1.7529 0.35157v-0.89844l1.7432-0.35156h0.98633v6.46h1.6113v0.83008h-4.1992v-0.83008" />
      <path
         id="path3225"
         d="m75.013 411.85c-0.50782 0.00001-0.8903 0.25066-1.1475 0.75195-0.25391 0.49806-0.38086 1.2484-0.38086 2.251-0.000002 0.99935 0.12695 1.7497 0.38086 2.251 0.25716 0.49804 0.63965 0.74707 1.1475 0.74707 0.51106 0 0.89355-0.24903 1.1475-0.74707 0.25716-0.5013 0.38574-1.2516 0.38574-2.251-0.000004-1.0026-0.12858-1.7529-0.38574-2.251-0.25391-0.50129-0.6364-0.75194-1.1475-0.75195m0-0.78125c0.81705 0.00001 1.4404 0.3239 1.8701 0.97168 0.43294 0.64454 0.64941 1.582 0.64941 2.8125-0.000005 1.2272-0.21648 2.1647-0.64941 2.8125-0.42969 0.64453-1.0531 0.9668-1.8701 0.9668-0.81706 0-1.4421-0.32227-1.875-0.9668-0.42969-0.64779-0.64453-1.5853-0.64453-2.8125-0.000001-1.2305 0.21484-2.168 0.64453-2.8125 0.43294-0.64778 1.0579-0.97167 1.875-0.97168" />
      <path
         id="path3227"
         d="m79.442 417.66h1.6113v-5.5615l-1.7529 0.35157v-0.89844l1.7432-0.35156h0.98633v6.46h1.6113v0.83008h-4.1992v-0.83008" />
      <path
         id="path3229"
         d="m87.747 411.85c-0.50782 0.00001-0.8903 0.25066-1.1475 0.75195-0.25391 0.49806-0.38086 1.2484-0.38086 2.251-0.000002 0.99935 0.12695 1.7497 0.38086 2.251 0.25716 0.49804 0.63965 0.74707 1.1475 0.74707 0.51106 0 0.89355-0.24903 1.1475-0.74707 0.25716-0.5013 0.38574-1.2516 0.38574-2.251-0.000004-1.0026-0.12858-1.7529-0.38574-2.251-0.25391-0.50129-0.6364-0.75194-1.1475-0.75195m0-0.78125c0.81705 0.00001 1.4404 0.3239 1.8701 0.97168 0.43294 0.64454 0.64941 1.582 0.64941 2.8125-0.000005 1.2272-0.21648 2.1647-0.64941 2.8125-0.42969 0.64453-1.0531 0.9668-1.8701 0.9668-0.81706 0-1.4421-0.32227-1.875-0.9668-0.42969-0.64779-0.64453-1.5853-0.64453-2.8125-0.000001-1.2305 0.21484-2.168 0.64453-2.8125 0.43294-0.64778 1.0579-0.97167 1.875-0.97168" />
      <path
         id="path3231"
         d="m92.176 417.66h1.6113v-5.5615l-1.7529 0.35157v-0.89844l1.7432-0.35156h0.98633v6.46h1.6113v0.83008h-4.1992v-0.83008" />
      <path
         id="path3233"
         d="m100.48 411.85c-0.50782 0.00001-0.8903 0.25066-1.1475 0.75195-0.25391 0.49806-0.38086 1.2484-0.38086 2.251-0.000002 0.99935 0.12695 1.7497 0.38086 2.251 0.25716 0.49804 0.63965 0.74707 1.1475 0.74707 0.51106 0 0.89355-0.24903 1.1475-0.74707 0.25716-0.5013 0.38574-1.2516 0.38574-2.251 0-1.0026-0.12858-1.7529-0.38574-2.251-0.25391-0.50129-0.6364-0.75194-1.1475-0.75195m0-0.78125c0.81705 0.00001 1.4404 0.3239 1.8701 0.97168 0.43293 0.64454 0.64941 1.582 0.64941 2.8125 0 1.2272-0.21648 2.1647-0.64941 2.8125-0.42969 0.64453-1.0531 0.9668-1.8701 0.9668-0.81706 0-1.4421-0.32227-1.875-0.9668-0.42969-0.64779-0.64453-1.5853-0.64453-2.8125-0.000001-1.2305 0.21484-2.168 0.64453-2.8125 0.43294-0.64778 1.0579-0.97167 1.875-0.97168" />
      <path
         id="path3235"
         d="m104.91 417.66h1.6113v-5.5615l-1.7529 0.35157v-0.89844l1.7432-0.35156h0.98633v6.46h1.6113v0.83008h-4.1992v-0.83008" />
    </g>
    <g
       id="g8137">
      <g
         id="text7347"
         inkscape:transform-center-x="26.87799"
         inkscape:transform-center-y="137.58971"
         style="fill:#f2f2f2">
        <path
           id="path3171"
           style=""
           d="m52.813 188.99c0.16927 0.0573 0.33333 0.17969 0.49219 0.36718 0.16145 0.18751 0.32291 0.44532 0.48438 0.77344l0.80078 1.5938h-0.84766l-0.74609-1.4961c-0.19271-0.39062-0.38021-0.64974-0.5625-0.77735-0.17969-0.1276-0.42578-0.1914-0.73828-0.1914h-0.85938v2.4648h-0.78906v-5.832h1.7812c0.66666 0.00001 1.1641 0.13933 1.4922 0.41797 0.32812 0.27865 0.49218 0.69922 0.49219 1.2617-0.000004 0.36719-0.08594 0.67188-0.25781 0.91406-0.16928 0.24219-0.41667 0.41016-0.74219 0.50391m-1.9766-2.4492v2.0703h0.99219c0.38021 0 0.66666-0.0872 0.85938-0.26172 0.19531-0.17708 0.29296-0.43619 0.29297-0.77734-0.000004-0.34114-0.09766-0.59765-0.29297-0.76953-0.19271-0.17448-0.47917-0.26172-0.85938-0.26172h-0.99219" />
        <path
           id="path3173"
           style=""
           d="m55.52 185.9h0.79297v3.543c-0.000001 0.625 0.11328 1.0755 0.33984 1.3516 0.22656 0.27344 0.59375 0.41016 1.1016 0.41016 0.5052 0 0.87109-0.13672 1.0977-0.41016 0.22656-0.27604 0.33984-0.72656 0.33984-1.3516v-3.543h0.79297v3.6406c-0.000005 0.76041-0.18881 1.3346-0.56641 1.7226-0.375 0.38802-0.92969 0.58203-1.6641 0.58203-0.73698 0-1.2943-0.19401-1.6719-0.58203-0.375-0.38802-0.5625-0.96224-0.5625-1.7226v-3.6406" />
        <path
           id="path3175"
           style=""
           d="m61.469 185.9h1.0625l2.5859 4.8789v-4.8789h0.76562v5.832h-1.0625l-2.5859-4.8789v4.8789h-0.76562v-5.832" />
      </g>
      <g
         id="text7351"
         inkscape:transform-center-x="26.87799"
         inkscape:transform-center-y="137.58971"
         style="fill:#f2f2f2">
        <path
           id="path3178"
           style=""
           d="m53.544 198.09v0.76953c-0.29948-0.14323-0.58204-0.25-0.84766-0.32031-0.26563-0.0703-0.52214-0.10547-0.76953-0.10547-0.42969 0-0.76172 0.0833-0.99609 0.25-0.23177 0.16667-0.34766 0.40365-0.34766 0.71093-0.000002 0.25782 0.07682 0.45313 0.23047 0.58594 0.15625 0.13021 0.45052 0.23568 0.88281 0.31641l0.47656 0.0976c0.58854 0.11199 1.0221 0.3099 1.3008 0.59375 0.28124 0.28126 0.42187 0.65886 0.42188 1.1328-0.000005 0.5651-0.19011 0.99349-0.57031 1.2852-0.37761 0.29167-0.9323 0.4375-1.6641 0.4375-0.27604 0-0.57032-0.0312-0.88281-0.0937-0.3099-0.0625-0.63151-0.15494-0.96484-0.27734v-0.8125c0.32031 0.17969 0.63411 0.3151 0.94141 0.40625 0.30729 0.0911 0.60937 0.13672 0.90625 0.13672 0.45052 0 0.79817-0.0885 1.043-0.26563 0.24479-0.17708 0.36718-0.42968 0.36719-0.75781-0.000004-0.28646-0.08855-0.51041-0.26562-0.67187-0.17448-0.16146-0.46224-0.28255-0.86328-0.36329l-0.48047-0.0937c-0.58854-0.11718-1.0143-0.30077-1.2773-0.55078-0.26302-0.24999-0.39453-0.59765-0.39453-1.043-0.000001-0.51562 0.18099-0.92186 0.54297-1.2188 0.36458-0.29686 0.86588-0.4453 1.5039-0.44531 0.27343 0.00001 0.55208 0.0247 0.83594 0.0742 0.28385 0.0495 0.57422 0.1237 0.87109 0.22266" />
        <path
           id="path3180"
           style=""
           d="m54.317 197.9h4.9336v0.66406h-2.0703v5.168h-0.79297v-5.168h-2.0703v-0.66406" />
        <path
           id="path3182"
           style=""
           d="m62.383 198.43c-0.57292 0-1.0286 0.21354-1.3672 0.64062-0.33594 0.42709-0.50391 1.0091-0.50391 1.7461-0.000001 0.73437 0.16797 1.3151 0.50391 1.7422 0.33854 0.42709 0.79427 0.64063 1.3672 0.64063 0.57291 0 1.026-0.21354 1.3594-0.64063 0.33593-0.42708 0.5039-1.0078 0.50391-1.7422-0.000005-0.73698-0.16797-1.319-0.50391-1.7461-0.33334-0.42708-0.78646-0.64062-1.3594-0.64062m0-0.64063c0.8177 0.00001 1.4713 0.27475 1.9609 0.82422 0.48958 0.54688 0.73437 1.2812 0.73438 2.2031-0.000006 0.91927-0.2448 1.6536-0.73438 2.2031-0.48959 0.54688-1.1432 0.82031-1.9609 0.82031-0.82032 0-1.4766-0.27343-1.9688-0.82031-0.48958-0.54687-0.73438-1.2812-0.73438-2.2031-0.000001-0.92188 0.24479-1.6562 0.73438-2.2031 0.49219-0.54947 1.1484-0.82421 1.9688-0.82422" />
        <path
           id="path3184"
           style=""
           d="m67.102 198.55v2.1914h0.99219c0.36718 0.00001 0.65104-0.095 0.85156-0.28515 0.20052-0.1901 0.30078-0.46094 0.30078-0.8125-0.000004-0.34896-0.10026-0.61849-0.30078-0.8086-0.20052-0.19009-0.48438-0.28515-0.85156-0.28515h-0.99219m-0.78906-0.64844h1.7812c0.65364 0.00001 1.1471 0.14844 1.4805 0.44531 0.33593 0.29428 0.5039 0.72657 0.50391 1.2969-0.000004 0.57552-0.16797 1.0104-0.50391 1.3047-0.33334 0.29427-0.82683 0.4414-1.4805 0.4414h-0.99219v2.3438h-0.78906v-5.832" />
      </g>
      <g
         id="text7355"
         inkscape:transform-center-x="26.87799"
         inkscape:transform-center-y="137.58971"
         style="fill:#f2f2f2">
        <path
           id="path3187"
           style=""
           d="m52.813 212.99c0.16927 0.0573 0.33333 0.17969 0.49219 0.36718 0.16145 0.18751 0.32291 0.44532 0.48438 0.77344l0.80078 1.5938h-0.84766l-0.74609-1.4961c-0.19271-0.39062-0.38021-0.64974-0.5625-0.77735-0.17969-0.1276-0.42578-0.1914-0.73828-0.1914h-0.85938v2.4648h-0.78906v-5.832h1.7812c0.66666 0.00001 1.1641 0.13933 1.4922 0.41797 0.32812 0.27865 0.49218 0.69922 0.49219 1.2617-0.000004 0.36719-0.08594 0.67188-0.25781 0.91406-0.16928 0.24219-0.41667 0.41016-0.74219 0.50391m-1.9766-2.4492v2.0703h0.99219c0.38021 0 0.66666-0.0872 0.85938-0.26172 0.19531-0.17708 0.29296-0.43619 0.29297-0.77734-0.000004-0.34114-0.09766-0.59765-0.29297-0.76953-0.19271-0.17448-0.47917-0.26172-0.85938-0.26172h-0.99219" />
        <path
           id="path3189"
           style=""
           d="m55.61 209.9h3.6875v0.66406h-2.8984v1.7266h2.7773v0.66406h-2.7773v2.1133h2.9688v0.66406h-3.7578v-5.832" />
        <path
           id="path3191"
           style=""
           d="m64.169 210.09v0.76953c-0.29948-0.14323-0.58204-0.25-0.84766-0.32031-0.26563-0.0703-0.52214-0.10547-0.76953-0.10547-0.42969 0-0.76172 0.0833-0.99609 0.25-0.23177 0.16667-0.34766 0.40365-0.34766 0.71093-0.000002 0.25782 0.07682 0.45313 0.23047 0.58594 0.15625 0.13021 0.45052 0.23568 0.88281 0.31641l0.47656 0.0976c0.58854 0.11199 1.0221 0.3099 1.3008 0.59375 0.28124 0.28126 0.42187 0.65886 0.42188 1.1328-0.000005 0.5651-0.19011 0.99349-0.57031 1.2852-0.37761 0.29167-0.9323 0.4375-1.6641 0.4375-0.27604 0-0.57032-0.0312-0.88281-0.0937-0.3099-0.0625-0.63151-0.15494-0.96484-0.27734v-0.8125c0.32031 0.17969 0.63411 0.3151 0.94141 0.40625 0.30729 0.0911 0.60937 0.13672 0.90625 0.13672 0.45052 0 0.79817-0.0885 1.043-0.26563 0.24479-0.17708 0.36718-0.42968 0.36719-0.75781-0.000004-0.28646-0.08855-0.51041-0.26562-0.67187-0.17448-0.16146-0.46224-0.28255-0.86328-0.36329l-0.48047-0.0937c-0.58854-0.11718-1.0143-0.30077-1.2773-0.55078-0.26302-0.24999-0.39453-0.59765-0.39453-1.043-0.000001-0.51562 0.18099-0.92186 0.54297-1.2188 0.36458-0.29686 0.86588-0.4453 1.5039-0.44531 0.27343 0.00001 0.55208 0.0247 0.83594 0.0742 0.28385 0.0495 0.57422 0.1237 0.87109 0.22266" />
        <path
           id="path3193"
           style=""
           d="m65.751 209.9h3.6875v0.66406h-2.8984v1.7266h2.7773v0.66406h-2.7773v2.1133h2.9688v0.66406h-3.7578v-5.832" />
        <path
           id="path3195"
           style=""
           d="m70.005 209.9h4.9336v0.66406h-2.0703v5.168h-0.79297v-5.168h-2.0703v-0.66406" />
      </g>
    </g>
    <flowRoot
       id="flowRoot5729"
       style="font-size:12px;font-family:Sans;letter-spacing:0px;line-height:125%;word-spacing:0px;fill:#000000"
       transform="matrix(-.099986 0 0 .099986 268.25 154.01)"
       xml:space="preserve"><flowRegion
         id="flowRegion5731"><rect
           id="rect5733"
           height="98.995"
           width="131.32"
           y="222.02"
           x="399.01" /></flowRegion><flowPara
         id="flowPara5735" /></flowRoot>    <rect
       id="rect3052"
       style="opacity:.026549;fill-rule:evenodd;stroke:#000000;stroke-width:.099986px;display:none"
       transform="scale(-1,1)"
       ry="1.2855"
       height="14.855"
       width="20.36"
       y="176.91"
       x="-250.35" />
  </g>
  <g
     id="layer9"
     inkscape:label="Card"
     inkscape:groupmode="layer">
    <rect
       id="rect8045"
       style="stroke-linejoin:round;stroke-opacity:.86667;stroke-dashoffset:7.0866;stroke:#000000;stroke-linecap:square;stroke-width:.24889;fill:#1a1a1a"
       rx="1.5454"
       ry="1.5454"
       height="64.061"
       width="5.6095"
       y="32.608"
       x="69.46" />
    <rect
       id="rect8047"
       style="stroke-linejoin:round;stroke-opacity:.86667;stroke-dashoffset:7.0866;stroke:#000000;stroke-linecap:square;stroke-width:.227;fill:#ff0000"
       rx="1.5454"
       ry="1.5454"
       height="9.4353"
       width="5.1802"
       y="86.925"
       x="69.757" />
    <g
       id="g8035"
       transform="translate(-128.17 -124.97)">
      <path
         id="path3041"
         style="stroke:#000000;stroke-width:.48518;fill:#ffffff"
         inkscape:connector-curvature="0"
         d="m253.96 175.64-0.13378 23.039c-1.0749 0.89755 0.66431-0.43798-1.0762 0.77285h-34.639l-4.7118-4.438v-18.97l1.4279-1.3449h38.101c0.77722 0.73578 1.0314 0.94118 1.0314 0.94118z" />
      <rect
         id="rect3052-4"
         style="fill-rule:evenodd;stroke:#000000;stroke-width:.19997;fill:#ffcc00"
         rx="1.2855"
         transform="scale(-1,1)"
         ry="1.2855"
         width="20.36"
         y="176.91"
         x="-250.35"
         height="14.855" />
      <path
         id="path5503"
         style="stroke:#000000;stroke-width:.14998;fill:none"
         inkscape:connector-curvature="0"
         d="m250.33 186.74h-6.1064s-1.624 3.798 0.51969 5.0906" />
      <path
         id="path5503-9"
         style="stroke:#000000;stroke-width:.14998;fill:none"
         inkscape:connector-curvature="0"
         d="m250.29 182.27h-6.176s-1.6426-3.983 0.52562-5.3385" />
      <path
         id="path5524"
         style="stroke:#000000;stroke-width:.14998;fill:none"
         inkscape:connector-curvature="0"
         d="m244.02 182.17s-0.97442 2.7746 0.25985 4.61" />
      <rect
         id="rect8029"
         style="stroke-linejoin:round;stroke-opacity:.86667;stroke-dashoffset:7.0866;stroke:#000000;stroke-linecap:square;stroke-width:.227;fill:#ffcc00"
         rx="1.2855"
         ry="1.2855"
         height="4.5767"
         width="7.2264"
         y="176.95"
         x="214.33" />
      <rect
         id="rect8031"
         style="stroke-linejoin:round;stroke-opacity:.86667;stroke-dashoffset:7.0866;stroke:#000000;stroke-linecap:square;stroke-width:.227;fill:#ffcc00"
         rx="1.2855"
         ry="1.2855"
         height="4.5767"
         width="7.2264"
         y="182.95"
         x="214.33" />
      <rect
         id="rect8033"
         style="stroke-linejoin:round;stroke-opacity:.86667;stroke-dashoffset:7.0866;stroke:#000000;stroke-linecap:square;stroke-width:.227;fill:#ffcc00"
         rx="1.2855"
         ry="1.2855"
         height="4.5767"
         width="7.2264"
         y="188.95"
         x="214.33" />
    </g>
    <g
       id="text8077"
       inkscape:transform-center-x="26.87799"
       inkscape:transform-center-y="137.58971"
       style="fill:#f2f2f2">
      <path
         id="path3160"
         style=""
         d="m84.58 88.678h3.6875v0.66406h-2.8984v1.7266h2.7773v0.66406h-2.7773v2.1133h2.9688v0.66406h-3.7578v-5.832" />
      <path
         id="path3162"
         style=""
         d="m89.642 88.678h0.78906v5.4258c-0.000002 0.70312-0.13412 1.2135-0.40234 1.5312-0.26563 0.31771-0.69401 0.47656-1.2852 0.47656h-0.30078v-0.66406h0.24609c0.34896-0.000001 0.59505-0.09766 0.73828-0.29297s0.21484-0.54557 0.21484-1.0508v-5.4258" />
      <path
         id="path3164"
         style=""
         d="m92.002 88.678h3.6875v0.66406h-2.8984v1.7266h2.7773v0.66406h-2.7773v2.1133h2.9688v0.66406h-3.7578v-5.832" />
      <path
         id="path3166"
         style=""
         d="m101.43 89.127v0.83203c-0.26563-0.24739-0.54949-0.43229-0.85156-0.55469-0.29949-0.12239-0.6185-0.18359-0.95704-0.18359-0.66667 0.000005-1.1771 0.20443-1.5312 0.61328-0.35417 0.40625-0.53125 0.9948-0.53125 1.7656-0.000001 0.76823 0.17708 1.3568 0.53125 1.7656 0.35416 0.40625 0.86458 0.60938 1.5312 0.60938 0.33854 0 0.65755-0.0612 0.95704-0.18359 0.30207-0.1224 0.58593-0.30729 0.85156-0.55469v0.82422c-0.27605 0.1875-0.56902 0.32813-0.87891 0.42188-0.30729 0.09375-0.63281 0.14062-0.97656 0.14062-0.88282 0-1.5781-0.26953-2.0859-0.80859-0.50781-0.54167-0.76172-1.2799-0.76172-2.2148 0-0.9375 0.25391-1.6758 0.76172-2.2148 0.50781-0.54166 1.2031-0.81249 2.0859-0.8125 0.34896 0.000006 0.67708 0.04688 0.98437 0.14062 0.3099 0.09115 0.60026 0.22917 0.8711 0.41406" />
      <path
         id="path3168"
         style=""
         d="m101.85 88.678h4.9336v0.66406h-2.0703v5.168h-0.79297v-5.168h-2.0703v-0.66406" />
    </g>
    <rect
       id="rect8145"
       style="stroke-linejoin:round;stroke-opacity:.86667;stroke-dashoffset:7.0866;stroke:#000000;stroke-linecap:square;stroke-width:.227;fill:#ffff00"
       rx="1.5454"
       ry="1.5454"
       height="52.522"
       width="5.1802"
       y="33.838"
       x="69.714" />
    <path
       id="path8147"
       style="stroke-linejoin:round;stroke-opacity:.86667;stroke-dashoffset:7.0866;stroke:#000000;stroke-linecap:square;stroke-width:.227;fill:#ff0000"
       sodipodi:type="star"
       sodipodi:sides="3"
       inkscape:transform-center-x="0.70509357"
       sodipodi:r1="2.9532757"
       sodipodi:r2="1.4766378"
       sodipodi:arg1="0.52359878"
       sodipodi:arg2="1.5707963"
       transform="matrix(0 -1 1 0 17.115 140.26)"
       inkscape:randomized="0"
       sodipodi:cy="63.74614"
       sodipodi:cx="48.573853"
       inkscape:rounded="0.02"
       inkscape:flatsided="true"
       d="m51.131 65.223c-0.05115 0.0886-5.0641 0.0886-5.1152 0-0.05115-0.0886 2.4553-4.4299 2.5576-4.4299s2.6088 4.3413 2.5576 4.4299z" />
  </g>
  <g
     id="layer5"
     sodipodi:insensitive="true"
     inkscape:label="ParteInferiore"
     inkscape:groupmode="layer">
    <path
       id="rect3794"
       style="stroke-linejoin:bevel;fill-opacity:.50588;stroke-dashoffset:7.0866;stroke:#001a0d;stroke-linecap:square;stroke-width:.19953;fill:#000000"
       inkscape:connector-curvature="0"
       d="m6.2188 199.09c-1.9107 0-3.4375 1.436-3.4375 3.2188v48.344c-0.5642 0.65-0.9063 1.45-0.9063 2.35v167.09c0 2.0812 1.8315 3.75 4.0938 3.75h165.25c2.2623 0 4.0625-1.6688 4.0625-3.75v-167.09c0-0.97151-0.41404-1.836-1.0625-2.5v-48.188c0-1.7827-1.558-3.2188-3.4688-3.2188-1.9107 0-3.4375 1.436-3.4375 3.2188v46.938h-157.62v-46.938c0-1.7827-1.558-3.2188-3.4688-3.2188z" />
  </g>
  <g
     id="layer4"
     sodipodi:insensitive="true"
     inkscape:label="ParteSuperiore"
     inkscape:groupmode="layer">
    <path
       id="rect4413"
       style="stroke-linejoin:bevel;fill-opacity:.50588;stroke-dashoffset:7.0866;stroke:#001a0d;stroke-linecap:square;stroke-width:.23424;fill:#000000"
       inkscape:connector-curvature="0"
       d="m5.9577 1.361c-2.2618 0-4.0625 2.2874-4.0625 5.1562v195.31c0-1.8861 1.9427-3.4062 4.375-3.4062s4.375 1.5202 4.375 3.4062v40.188h155.84v-40.188c0-1.8861 1.9427-3.4062 4.375-3.4062s4.4062 1.5202 4.4062 3.4062v-195.31c0-2.8688-1.8007-5.1562-4.0625-5.1562h-165.25z" />
  </g>
  <g
     id="layer3"
     inkscape:label="Interuttore"
     inkscape:groupmode="layer">
    <g
       id="g4667"
       transform="translate(-21.316 -539.66)">
      <g
         id="g7382">
        <rect
           id="rect4342"
           style="stroke:#000900;stroke-width:.93476;stroke-opacity:.86667;fill:url(#radialGradient4350)"
           rx="2.0299"
           ry="2.2354"
           height="46.236"
           width="4.4255"
           y="718.39"
           x="41.261" />
        <g
           id="g7370">
          <path
             id="path4364"
             style="opacity:.53646;filter:url(#filter17798);fill:#030000"
             d="m90.348 164.04-0.72666 14.049-7.751 0.00001-0.72666-18.409 9.2043 4.3599z"
             sodipodi:nodetypes="ccccc"
             inkscape:connector-curvature="0"
             transform="matrix(.88933 0 0 .87289 -13.086 591.76)" />
          <rect
             id="rect4366"
             style="opacity:.96354;stroke-linejoin:round;stroke:#746a6a;stroke-width:2.226;fill:#746a6a"
             rx=".43678"
             ry=".42870"
             height="8.2458"
             width="10.124"
             y="725.44"
             x="48.307" />
          <path
             id="path4368"
             d="m48.522 753.98h12.709l-0.63907 3.175-11.002 0.20967-1.0681-3.3846z"
             sodipodi:nodetypes="ccccc"
             style="opacity:.78646;fill:#cccccc"
             inkscape:connector-curvature="0" />
          <rect
             id="rect4370"
             style="opacity:.60417;stroke-linejoin:round;filter:url(#filter17863);stroke:#746a6a;stroke-width:2.5264;fill:#746a6a"
             transform="matrix(.88933 0 0 .87289 -13.086 591.76)"
             rx=".49113"
             ry=".49113"
             height="10.658"
             width="13.564"
             y="174.7"
             x="70.001" />
          <path
             id="path4372"
             d="m58.324 734.43c0.84425 3.3025 1.1867 8.3112 2.3695 9.3029l-11.417-0.21143-0.86165-8.8801 9.909-0.21143z"
             sodipodi:nodetypes="ccccc"
             style="opacity:.60417;stroke-linejoin:round;stroke:#746a6a;stroke-width:2.226;fill:#746a6a"
             inkscape:connector-curvature="0" />
          <path
             id="path4374"
             style="opacity:.60417;filter:url(#filter13274);fill:#060000"
             d="m82.839 173.49-12.838 0.24222-0.48444-10.415 10.415 0.24222 2.9066 9.931z"
             sodipodi:nodetypes="ccccc"
             inkscape:connector-curvature="0"
             transform="matrix(.88933 0 0 .87289 -13.086 591.76)" />
          <path
             id="path4376"
             d="m61.447 743.2-3.0158-8.4572 0.43083-9.3029 2.1541 7.8229 0.43083 9.9372z"
             sodipodi:nodetypes="ccccc"
             style="opacity:.60417;stroke-linejoin:round;stroke:#746a6a;stroke-width:2.226;fill:#746a6a"
             inkscape:connector-curvature="0" />
          <path
             id="path4380"
             style="filter:url(#filter14414);fill:url(#radialGradient4386)"
             d="m84.05 173.98-3.3911-9.6888 0.48444-10.658 2.4222 8.9621 0.48444 11.384z"
             sodipodi:nodetypes="ccccc"
             inkscape:connector-curvature="0"
             transform="matrix(.88933 0 0 .87289 -13.086 591.76)" />
          <path
             id="path4382"
             style="opacity:.86979;stroke-linejoin:round;filter:url(#filter19861);stroke:#746a6a;stroke-width:2.5264;fill:#746a6a"
             d="m82.595 186.57-0.24221 2.4222h-11.384l-0.24222-2.18 11.869-0.24222z"
             sodipodi:nodetypes="ccccc"
             inkscape:connector-curvature="0"
             transform="matrix(.88933 0 0 .87289 -13.086 591.76)" />
          <path
             id="path4384"
             style="opacity:.53646;filter:url(#filter16635);fill:#030000"
             d="m87.199 174.7-4.8444 2.4222v-14.533l4.8444 2.18 0.000001 9.931z"
             sodipodi:nodetypes="ccccc"
             inkscape:connector-curvature="0"
             transform="matrix(.88933 0 0 .87289 -13.086 591.76)" />
        </g>
      </g>
    </g>
  </g>
  <g
     id="layer6"
     inkscape:label="Led"
     inkscape:groupmode="layer">
    <g
       id="g8081">
      <g
         id="text7426"
         inkscape:transform-center-x="26.87799"
         inkscape:transform-center-y="137.58971"
         style="fill:#f2f2f2">
        <path
           id="path3123"
           style=""
           d="m26.076 32.869v0.76953c-0.29948-0.14322-0.58204-0.25-0.84766-0.32031-0.26563-0.07031-0.52214-0.10546-0.76953-0.10547-0.42969 0.000006-0.76172 0.08334-0.99609 0.25-0.23177 0.16667-0.34766 0.40365-0.34766 0.71094-0.000002 0.25782 0.07682 0.45313 0.23047 0.58594 0.15625 0.13021 0.45052 0.23568 0.88281 0.31641l0.47656 0.09766c0.58854 0.11198 1.0221 0.3099 1.3008 0.59375 0.28124 0.28125 0.42187 0.65886 0.42188 1.1328-0.000005 0.56511-0.19011 0.99349-0.57031 1.2852-0.37761 0.29167-0.9323 0.4375-1.6641 0.4375-0.27604-0.000001-0.57032-0.03125-0.88281-0.09375-0.3099-0.0625-0.63151-0.15495-0.96484-0.27734v-0.8125c0.32031 0.17969 0.63411 0.3151 0.94141 0.40625 0.30729 0.09115 0.60937 0.13672 0.90625 0.13672 0.45052 0 0.79817-0.08854 1.043-0.26562 0.24479-0.17708 0.36718-0.42969 0.36719-0.75781-0.000004-0.28646-0.08854-0.51042-0.26562-0.67188-0.17448-0.16146-0.46224-0.28255-0.86328-0.36328l-0.48047-0.09375c-0.58854-0.11718-1.0143-0.30078-1.2773-0.55078-0.26302-0.25-0.39453-0.59765-0.39453-1.043 0-0.51562 0.18099-0.92187 0.54297-1.2188 0.36458-0.29687 0.86588-0.44531 1.5039-0.44531 0.27344 0.000006 0.55208 0.02475 0.83594 0.07422 0.28385 0.04948 0.57421 0.1237 0.87109 0.22266" />
        <path
           id="path3125"
           style=""
           d="m27.658 32.678h3.3516v0.66406h-2.5625v1.7188h2.3125v0.66406h-2.3125v2.7852h-0.78906v-5.832" />
      </g>
      <g
         id="text7430"
         inkscape:transform-center-x="26.87799"
         inkscape:transform-center-y="137.58971"
         style="fill:#f2f2f2">
        <path
           id="path3128"
           style=""
           d="m23.369 47.725v2.1367h1.2656c0.42448 0 0.73828-0.08724 0.94141-0.26172 0.20572-0.17708 0.30859-0.44661 0.30859-0.80859-0.000004-0.36458-0.10287-0.63281-0.30859-0.80469-0.20313-0.17448-0.51693-0.26172-0.94141-0.26172h-1.2656m0-2.3984v1.7578h1.168c0.38541 0.000003 0.67187-0.07161 0.85938-0.21484 0.1901-0.14583 0.28515-0.36718 0.28516-0.66406-0.000004-0.29427-0.09506-0.51432-0.28516-0.66016-0.1875-0.14583-0.47396-0.21874-0.85938-0.21875h-1.168m-0.78906-0.64844h2.0156c0.60156 0.000006 1.0651 0.12501 1.3906 0.375 0.32552 0.25 0.48828 0.60547 0.48828 1.0664-0.000005 0.35678-0.08334 0.64063-0.25 0.85156-0.16667 0.21094-0.41146 0.34245-0.73438 0.39453 0.38802 0.08334 0.6888 0.25782 0.90234 0.52344 0.21614 0.26302 0.32421 0.59245 0.32422 0.98828-0.000005 0.52083-0.17709 0.92318-0.53125 1.207-0.35417 0.28385-0.85808 0.42578-1.5117 0.42578h-2.0938v-5.832" />
        <path
           id="path3130"
           style=""
           d="m28.064 44.678h3.3516v0.66406h-2.5625v1.7188h2.3125v0.66406h-2.3125v2.7852h-0.78906v-5.832" />
      </g>
      <g
         id="text7436"
         inkscape:transform-center-x="26.87799"
         inkscape:transform-center-y="137.58971"
         style="fill:#f2f2f2">
        <path
           id="path3133"
           style=""
           d="m23.369 57.326v4.5352h0.95312c0.80468 0 1.3932-0.18229 1.7656-0.54688 0.375-0.36458 0.5625-0.9401 0.5625-1.7266-0.000005-0.78125-0.1875-1.3529-0.5625-1.7148-0.3724-0.36458-0.96094-0.54687-1.7656-0.54688h-0.95312m-0.78906-0.64844h1.6211c1.1302 0.000006 1.9596 0.23568 2.4883 0.70703 0.52864 0.46876 0.79296 1.2031 0.79297 2.2031-0.000005 1.0052-0.26563 1.7435-0.79688 2.2148-0.53125 0.47135-1.3594 0.70703-2.4844 0.70703h-1.6211v-5.832" />
        <path
           id="path3135"
           style=""
           d="m33.103 57.127v0.83203c-0.26563-0.24739-0.54948-0.43229-0.85156-0.55469-0.29948-0.12239-0.61849-0.18359-0.95703-0.18359-0.66667 0.000005-1.1771 0.20443-1.5312 0.61328-0.35417 0.40625-0.53125 0.9948-0.53125 1.7656-0.000001 0.76823 0.17708 1.3568 0.53125 1.7656 0.35416 0.40625 0.86458 0.60938 1.5312 0.60938 0.33854 0.000001 0.65755-0.0612 0.95703-0.18359 0.30208-0.1224 0.58593-0.30729 0.85156-0.55469v0.82422c-0.27605 0.1875-0.56902 0.32812-0.87891 0.42188-0.3073 0.09375-0.63282 0.14062-0.97656 0.14062-0.88282-0.000001-1.5781-0.26953-2.0859-0.80859-0.50781-0.54167-0.76172-1.2799-0.76172-2.2148 0-0.9375 0.25391-1.6758 0.76172-2.2148 0.50781-0.54166 1.2031-0.81249 2.0859-0.8125 0.34896 0.000006 0.67708 0.04688 0.98438 0.14062 0.30989 0.09115 0.60026 0.22917 0.87109 0.41406" />
      </g>
      <g
         id="text7442"
         inkscape:transform-center-x="26.87799"
         inkscape:transform-center-y="137.58971"
         style="fill:#f2f2f2">
        <path
           id="path3138"
           style=""
           d="m25.346 71.776c0.16927 0.05729 0.33333 0.17969 0.49219 0.36719 0.16145 0.1875 0.32291 0.44531 0.48438 0.77344l0.80078 1.5938h-0.84766l-0.74609-1.4961c-0.19271-0.39062-0.38021-0.64974-0.5625-0.77734-0.17969-0.1276-0.42578-0.1914-0.73828-0.19141h-0.85938v2.4648h-0.78906v-5.832h1.7812c0.66666 0.000006 1.1641 0.13933 1.4922 0.41797 0.32812 0.27865 0.49218 0.69922 0.49219 1.2617-0.000005 0.36719-0.08594 0.67188-0.25781 0.91406-0.16928 0.24219-0.41667 0.41016-0.74219 0.50391m-1.9766-2.4492v2.0703h0.99219c0.3802 0.000003 0.66666-0.08724 0.85938-0.26172 0.19531-0.17708 0.29296-0.43619 0.29297-0.77734-0.000003-0.34114-0.09766-0.59765-0.29297-0.76953-0.19271-0.17447-0.47917-0.26171-0.85938-0.26172h-0.99219" />
        <path
           id="path3140"
           style=""
           d="m27.678 72.783v-2.6484h0.71875v2.6211c-0.000002 0.41406 0.08073 0.72526 0.24219 0.93359 0.16146 0.20573 0.40364 0.30859 0.72656 0.30859 0.38802 0.000001 0.69401-0.1237 0.91797-0.37109 0.22656-0.2474 0.33984-0.58463 0.33984-1.0117v-2.4805h0.71875v4.375h-0.71875v-0.67188c-0.17448 0.26563-0.37761 0.46354-0.60938 0.59375-0.22917 0.1276-0.4961 0.19141-0.80078 0.19141-0.50261 0-0.88412-0.15625-1.1445-0.46875-0.26042-0.3125-0.39063-0.76953-0.39062-1.3711" />
        <path
           id="path3142"
           style=""
           d="m36.467 71.869v2.6406h-0.71875v-2.6172c-0.000003-0.41406-0.08073-0.72396-0.24219-0.92969-0.16146-0.20572-0.40365-0.30859-0.72656-0.30859-0.38802 0.000004-0.69401 0.1237-0.91797 0.37109-0.22396 0.2474-0.33594 0.58464-0.33594 1.0117v2.4727h-0.72266v-4.375h0.72266v0.67969c0.17187-0.26302 0.3737-0.45963 0.60547-0.58984 0.23437-0.1302 0.5039-0.19531 0.80859-0.19531 0.5026 0.000005 0.88281 0.15626 1.1406 0.46875 0.25781 0.3099 0.38671 0.76693 0.38672 1.3711" />
      </g>
      <g
         id="text7448"
         inkscape:transform-center-x="26.87799"
         inkscape:transform-center-y="137.58971"
         style="fill:#f2f2f2">
        <path
           id="path3145"
           style=""
           d="m26.076 80.869v0.76953c-0.29948-0.14322-0.58204-0.24999-0.84766-0.32031-0.26563-0.07031-0.52214-0.10546-0.76953-0.10547-0.42969 0.000005-0.76172 0.08334-0.99609 0.25-0.23177 0.16667-0.34766 0.40365-0.34766 0.71094-0.000002 0.25782 0.07682 0.45313 0.23047 0.58594 0.15625 0.13021 0.45052 0.23568 0.88281 0.31641l0.47656 0.09766c0.58854 0.11198 1.0221 0.3099 1.3008 0.59375 0.28124 0.28125 0.42187 0.65886 0.42188 1.1328-0.000005 0.5651-0.19011 0.99349-0.57031 1.2852-0.37761 0.29167-0.9323 0.4375-1.6641 0.4375-0.27604 0-0.57032-0.03125-0.88281-0.09375-0.3099-0.0625-0.63151-0.15495-0.96484-0.27734v-0.8125c0.32031 0.17969 0.63411 0.3151 0.94141 0.40625 0.30729 0.09115 0.60937 0.13672 0.90625 0.13672 0.45052 0.000001 0.79817-0.08854 1.043-0.26562 0.24479-0.17708 0.36718-0.42969 0.36719-0.75781-0.000004-0.28646-0.08854-0.51042-0.26562-0.67188-0.17448-0.16146-0.46224-0.28255-0.86328-0.36328l-0.48047-0.09375c-0.58854-0.11718-1.0143-0.30078-1.2773-0.55078-0.26302-0.25-0.39453-0.59765-0.39453-1.043 0-0.51562 0.18099-0.92187 0.54297-1.2188 0.36458-0.29687 0.86588-0.44531 1.5039-0.44531 0.27344 0.000006 0.55208 0.02475 0.83594 0.07422 0.28385 0.04949 0.57421 0.1237 0.87109 0.22266" />
        <path
           id="path3147"
           style=""
           d="m28.338 80.893v1.2422h1.4805v0.55859h-1.4805v2.375c-0.000001 0.35677 0.04818 0.58594 0.14453 0.6875 0.09896 0.10156 0.29818 0.15234 0.59766 0.15234h0.73828v0.60156h-0.73828c-0.55469 0-0.9375-0.10286-1.1484-0.30859-0.21094-0.20833-0.31641-0.58594-0.31641-1.1328v-2.375h-0.52734v-0.55859h0.52734v-1.2422h0.72266" />
        <path
           id="path3149"
           style=""
           d="m32.463 82.639c-0.38542 0.000004-0.69011 0.15105-0.91406 0.45312-0.22396 0.29948-0.33594 0.71094-0.33594 1.2344-0.000001 0.52344 0.11068 0.9362 0.33203 1.2383 0.22396 0.29948 0.52995 0.44922 0.91797 0.44922 0.38281 0.000001 0.6862-0.15104 0.91016-0.45312s0.33593-0.71354 0.33594-1.2344c-0.000004-0.51823-0.11198-0.92838-0.33594-1.2305-0.22396-0.30468-0.52735-0.45703-0.91016-0.45703m0-0.60938c0.625 0.000005 1.1159 0.20313 1.4727 0.60938 0.35677 0.40625 0.53515 0.96875 0.53516 1.6875-0.000005 0.71615-0.17839 1.2786-0.53516 1.6875-0.35677 0.40625-0.84766 0.60938-1.4727 0.60938-0.62761 0-1.1198-0.20312-1.4766-0.60938-0.35417-0.40885-0.53125-0.97135-0.53125-1.6875-0.000001-0.71875 0.17708-1.2812 0.53125-1.6875 0.35677-0.40624 0.84896-0.60937 1.4766-0.60938" />
        <path
           id="path3151"
           style=""
           d="m36.353 85.854v2.3203h-0.72266v-6.0391h0.72266v0.66406c0.15104-0.26041 0.34114-0.45312 0.57031-0.57812 0.23177-0.1276 0.50781-0.1914 0.82812-0.19141 0.53125 0.000005 0.96224 0.21094 1.293 0.63281 0.33333 0.42188 0.5 0.97656 0.5 1.6641-0.000004 0.6875-0.16667 1.2422-0.5 1.6641-0.33073 0.42188-0.76172 0.63281-1.293 0.63281-0.32032 0-0.59636-0.0625-0.82812-0.1875-0.22917-0.1276-0.41927-0.32161-0.57031-0.58203m2.4453-1.5273c-0.000004-0.52864-0.10938-0.9427-0.32812-1.2422-0.21615-0.30208-0.51433-0.45312-0.89453-0.45312-0.38021 0.000004-0.67969 0.15104-0.89844 0.45312-0.21615 0.29948-0.32422 0.71354-0.32422 1.2422-0.000001 0.52865 0.10807 0.94401 0.32422 1.2461 0.21875 0.29948 0.51823 0.44922 0.89844 0.44922s0.67838-0.14974 0.89453-0.44922c0.21875-0.30208 0.32812-0.71745 0.32812-1.2461" />
      </g>
      <path
         id="rect7406"
         style="stroke-linejoin:bevel;stroke-dashoffset:7.0866;stroke:#001a0d;stroke-linecap:square;stroke-width:.61511;fill:#e6e6e6"
         d="m12.512 27.568h8.6472c0.0023 0 0.0042 0.0036 0.0042 0.0081v62.217c0 0.0045-0.0019 0.0081-0.0042 0.0081h-8.6472c-0.0023 0-0.0042-0.0036-0.0042-0.0081v-62.217c0-0.0045 0.0019-0.0081 0.0042-0.0081z" />
      <path
         id="rect7424"
         style="stroke-linejoin:bevel;stroke-dashoffset:7.0866;stroke:#001a0d;stroke-linecap:square;stroke-width:.58247;fill:#808000"
         d="m13.723 29.714h5.9354c0.0021 0 0.0039 0.0037 0.0039 0.0084v10.247c0 0.0047-0.0017 0.0084-0.0039 0.0084h-5.9354c-0.0021 0-0.0039-0.0037-0.0039-0.0084v-10.247c0-0.0047 0.0017-0.0084 0.0039-0.0084z" />
      <path
         id="rect7434"
         style="stroke-linejoin:bevel;stroke-dashoffset:7.0866;stroke:#001a0d;stroke-linecap:square;stroke-width:.58247;fill:#808000"
         d="m13.723 41.714h5.9354c0.0021 0 0.0039 0.0037 0.0039 0.0084v10.247c0 0.0047-0.0017 0.0084-0.0039 0.0084h-5.9354c-0.0021 0-0.0039-0.0037-0.0039-0.0084v-10.247c0-0.0047 0.0017-0.0084 0.0039-0.0084z" />
      <path
         id="rect7440"
         style="stroke-linejoin:bevel;stroke-dashoffset:7.0866;stroke:#001a0d;stroke-linecap:square;stroke-width:.58247;fill:#808000"
         d="m13.723 53.714h5.9354c0.0021 0 0.0039 0.0037 0.0039 0.0084v10.247c0 0.0047-0.0017 0.0084-0.0039 0.0084h-5.9354c-0.0021 0-0.0039-0.0037-0.0039-0.0084v-10.247c0-0.0047 0.0017-0.0084 0.0039-0.0084z" />
      <path
         id="rect7446"
         style="stroke-linejoin:bevel;stroke-dashoffset:7.0866;stroke:#001a0d;stroke-linecap:square;stroke-width:.58247;fill:#808000"
         d="m13.723 65.714h5.9354c0.0021 0 0.0039 0.0037 0.0039 0.0084v10.247c0 0.0047-0.0017 0.0084-0.0039 0.0084h-5.9354c-0.0021 0-0.0039-0.0037-0.0039-0.0084v-10.247c0-0.0047 0.0017-0.0084 0.0039-0.0084z" />
      <path
         id="rect7452"
         style="stroke-linejoin:bevel;stroke-dashoffset:7.0866;stroke:#001a0d;stroke-linecap:square;stroke-width:.58247;fill:#808000"
         d="m13.827 77.714h5.9354c0.0021 0 0.0039 0.0037 0.0039 0.0084v10.247c0 0.0047-0.0017 0.0084-0.0039 0.0084h-5.9354c-0.0021 0-0.0039-0.0037-0.0039-0.0084v-10.247c0-0.0047 0.0017-0.0084 0.0039-0.0084z" />
    </g>
  </g>
  <metadata
     id="metadata141">
    <rdf:RDF>
      <cc:Work>
        <dc:format>image/svg+xml</dc:format>
        <dc:type
           rdf:resource="http://purl.org/dc/dcmitype/StillImage" />
        <cc:license
           rdf:resource="http://creativecommons.org/licenses/publicdomain/" />
        <dc:publisher>
          <cc:Agent
             rdf:about="http://openclipart.org/">
            <dc:title>Openclipart</dc:title>
          </cc:Agent>
        </dc:publisher>
        <dc:title>Plc Cpu Card</dc:title>
        <dc:date>2011-08-24T18:15:24</dc:date>
        <dc:description>Plc cpu device</dc:description>
        <dc:source>https://openclipart.org/detail/157987/plc-cpu-by-marcoqf73</dc:source>
        <dc:creator>
          <cc:Agent>
            <dc:title>marcoqf73</dc:title>
          </cc:Agent>
        </dc:creator>
        <dc:subject>
          <rdf:Bag>
            <rdf:li>Ethernet</rdf:li>
            <rdf:li>automation</rdf:li>
            <rdf:li>bus</rdf:li>
            <rdf:li>card</rdf:li>
            <rdf:li>device</rdf:li>
            <rdf:li>dp</rdf:li>
            <rdf:li>electric</rdf:li>
            <rdf:li>led</rdf:li>
            <rdf:li>logic</rdf:li>
            <rdf:li>modbus</rdf:li>
            <rdf:li>mpi</rdf:li>
            <rdf:li>plc</rdf:li>
          </rdf:Bag>
        </dc:subject>
      </cc:Work>
      <cc:License
         rdf:about="http://creativecommons.org/licenses/publicdomain/">
        <cc:permits
           rdf:resource="http://creativecommons.org/ns#Reproduction" />
        <cc:permits
           rdf:resource="http://creativecommons.org/ns#Distribution" />
        <cc:permits
           rdf:resource="http://creativecommons.org/ns#DerivativeWorks" />
      </cc:License>
    </rdf:RDF>
  </metadata>
</svg>
