<?xml version="1.0" encoding="UTF-8" standalone="no"?>
<!-- Created with Inkscape (http://www.inkscape.org/) -->

<svg
   xmlns:dc="http://purl.org/dc/elements/1.1/"
   xmlns:cc="http://creativecommons.org/ns#"
   xmlns:rdf="http://www.w3.org/1999/02/22-rdf-syntax-ns#"
   xmlns:svg="http://www.w3.org/2000/svg"
   xmlns="http://www.w3.org/2000/svg"
   xmlns:xlink="http://www.w3.org/1999/xlink"
   xmlns:sodipodi="http://sodipodi.sourceforge.net/DTD/sodipodi-0.dtd"
   xmlns:inkscape="http://www.inkscape.org/namespaces/inkscape"
   width="800.87579"
   height="522.0072"
   id="svg3570"
   version="1.1"
   inkscape:version="0.91 r13725"
   sodipodi:docname="background.svg">
  <defs
     id="defs3572">
    <linearGradient
       id="rect4864_1_"
       x1="-398.26001"
       gradientUnits="userSpaceOnUse"
       y1="658.08002"
       gradientTransform="matrix(0.1515,0,0,-0.2645,358.36,646.24)"
       x2="-398.26001"
       y2="2107.6001">
      <stop
         stop-color="#fff"
         offset="0"
         id="stop7" />
      <stop
         stop-color="#fff"
         stop-opacity="0"
         offset="1"
         id="stop9" />
    </linearGradient>
    <linearGradient
       y2="2107.6001"
       x2="-398.26001"
       y1="658.08002"
       x1="-398.26001"
       gradientTransform="matrix(0.20357491,0,0,-0.32910854,283.93776,1019.0931)"
       gradientUnits="userSpaceOnUse"
       id="linearGradient3592"
       xlink:href="#rect4864_1_"
       inkscape:collect="always" />
    <radialGradient
       id="SVGID_12_"
       gradientUnits="userSpaceOnUse"
       cy="345.79001"
       cx="72.874001"
       gradientTransform="matrix(1.3437288,0,0,0.96518582,-198.17011,330.47866)"
       r="466.22">
      <stop
         stop-color="#D4A05D"
         offset="0"
         id="stop86" />
      <stop
         stop-color="#FAC67A"
         offset="1"
         id="stop88" />
    </radialGradient>
    <radialGradient
       id="SVGID_11_"
       gradientUnits="userSpaceOnUse"
       cy="389"
       cx="276.04001"
       gradientTransform="matrix(1.3437288,0,0,0.96518582,-198.17011,330.47866)"
       r="334.14999">
      <stop
         stop-color="#FFE8B1"
         offset="0"
         id="stop79" />
      <stop
         stop-color="#F5D79C"
         offset="1"
         id="stop81" />
    </radialGradient>
    <radialGradient
       id="SVGID_10_"
       gradientUnits="userSpaceOnUse"
       cy="383.56"
       cx="280.92999"
       gradientTransform="matrix(1.3437288,0,0,0.96518582,-198.17011,330.47866)"
       r="331.35001">
      <stop
         stop-color="#FFE8B1"
         offset="0"
         id="stop72" />
      <stop
         stop-color="#F5D79C"
         offset="1"
         id="stop74" />
    </radialGradient>
    <radialGradient
       id="SVGID_9_"
       gradientUnits="userSpaceOnUse"
       cy="333.29001"
       cx="10.965"
       r="56.516998">
      <stop
         stop-color="#E8B168"
         offset="0"
         id="stop65" />
      <stop
         stop-color="#F9D19F"
         offset="1"
         id="stop67" />
    </radialGradient>
    <linearGradient
       inkscape:collect="always"
       xlink:href="#SVGID_9_"
       id="linearGradient4204"
       x1="-30.115805"
       y1="616.75037"
       x2="60.12056"
       y2="614.01147"
       gradientUnits="userSpaceOnUse"
       gradientTransform="translate(-104.6599,26.002456)" />
    <linearGradient
       inkscape:collect="always"
       xlink:href="#SVGID_11_"
       id="linearGradient4212"
       x1="-100.68759"
       y1="636.46558"
       x2="-149.2252"
       y2="614.40173"
       gradientUnits="userSpaceOnUse" />
  </defs>
  <sodipodi:namedview
     id="base"
     pagecolor="#ffffff"
     bordercolor="#666666"
     borderopacity="1.0"
     inkscape:pageopacity="0.0"
     inkscape:pageshadow="2"
     inkscape:zoom="1.538316"
     inkscape:cx="278.09146"
     inkscape:cy="67.583681"
     inkscape:document-units="px"
     inkscape:current-layer="layer1"
     showgrid="false"
     fit-margin-top="0"
     fit-margin-left="0"
     fit-margin-right="0"
     fit-margin-bottom="0"
     inkscape:window-width="1366"
     inkscape:window-height="713"
     inkscape:window-x="-2"
     inkscape:window-y="-3"
     inkscape:window-maximized="1"
     borderlayer="true"
     showguides="true"
     inkscape:guide-bbox="true" />
  <metadata
     id="metadata3575">
    <rdf:RDF>
      <cc:Work
         rdf:about="">
        <dc:format>image/svg+xml</dc:format>
        <dc:type
           rdf:resource="http://purl.org/dc/dcmitype/StillImage" />
        <dc:title />
      </cc:Work>
    </rdf:RDF>
  </metadata>
  <g
     inkscape:label="Calque 1"
     inkscape:groupmode="layer"
     id="layer1"
     transform="translate(197.58075,-214.21572)">
    <path
       id="rect4360"
       d="m -197.58075,214.21572 v 522.00721 h 800.8758 V 214.21572 h -800.8758 z"
       inkscape:connector-curvature="0"
       style="fill:#6f97c4" />
    <rect
       id="rect4864"
       width="800.91608"
       height="354.728"
       style="fill:url(#linearGradient3592)"
       x="-197.60089"
       y="214.99818" />
    <path
       d="m 605.08409,693.93952 c 0,0 -72.49014,7.3051 -100.70844,7.3051 -28.21831,0 -99.43594,-7.3051 -128.99797,-7.3051 -29.56203,0 -64.94644,7.94825 -90.47729,7.94825 -25.53085,0 -93.62162,-9.72064 -116.46501,-10.6848 -22.84339,-0.96415 -47.47125,2.73769 -68.97091,2.73769 -21.499661,0 -57.780341,0.22585 -83.311181,-3.6342 -25.53085,-3.8612 -63.20766,-11.7315 -95.45715,-10.49564 -32.249499,1.23472 -68.449549,-18.38312 -102.069639,-18.45994 -13.43729,-0.0299 -13.4131,31.54194 -13.4131,31.54194 l 0.0188,33.63649 H 606.108 l -1.02123,-32.58176 z"
       id="path76"
       style="opacity:0.5;fill:url(#SVGID_10_)"
       inkscape:connector-curvature="0" />
    <path
       d="m 601.72477,706.73376 c 0,0 -82.3437,6.75711 -110.56201,6.75711 -28.2183,0 -94.06102,-6.75711 -123.62305,-6.75711 -29.56203,0 -61.81152,6.75711 -87.34237,6.75711 -25.53085,0 -85.99864,-12.54661 -108.84203,-13.51192 -22.84339,-0.9653 -61.81153,6.75596 -83.311191,6.75596 -21.49966,0 -59.12407,-8.68541 -84.65491,-12.54662 -25.53085,-3.86005 -48.37424,-14.05303 -80.62373,-12.81831 -32.249489,1.23586 -73.905089,-20.96262 -107.498309,-19.99732 -33.59322,0.96531 -13.43728,-0.0299 -13.43728,-0.0299 l 0.043,73.89479 h 800.8758 l -1.02124,-28.50044 z"
       id="path83"
       style="fill:url(#SVGID_11_)"
       inkscape:connector-curvature="0" />
    <path
       d="m -163.74485,602.61793 c 0,0 8.45648,-2.50855 20.17987,0 11.72338,2.50855 41.29585,13.96451 50.444046,15.37848 23.113901,0.0656 33.03229,9.51947 41.208629,14.19946 28.622899,5.41197 61.5183095,-3.15086 68.819147,12.91457 -13.9030404,11.52847 -115.091273,-5.98701 -88.422231,16.1245 25.988857,21.54757 -3.147024,14.41973 -92.189101,12.86345 l -0.0336,-71.46382 z"
       id="path90-2-1"
       style="fill:#b6beb9;fill-opacity:1"
       inkscape:connector-curvature="0"
       sodipodi:nodetypes="cscccsccc"
       inkscape:transform-center-x="26.652521" />
    <path
       d="m -198.13612,594.12991 c 0,0 10.13574,-2.59324 24.18712,0 14.05137,2.59324 49.49625,14.43595 60.46107,15.89766 27.703785,0.0678 39.591732,9.84084 49.391705,14.67883 34.306737,5.59468 68.2803664,2.11882 73.9143842,15.36658 -16.6638594,11.91767 -131.3837892,-5.93742 -97.4101922,14.65285 46.732609,28.32308 -3.771945,14.90654 -110.495717,13.29772 l -0.0403,-73.87644 z"
       id="path90-2"
       style="fill:url(#linearGradient4212);fill-opacity:1"
       inkscape:connector-curvature="0"
       sodipodi:nodetypes="cscccsccc" />
    <path
       d="m -198.17011,661.33483 c 0,0 10.13574,-2.59324 24.18712,0 14.05137,2.59324 49.49625,14.43595 60.46107,15.89766 10.96349,1.46285 42.401359,3.12748 53.988339,4.56625 11.58697,1.44108 37.64187,10.18954 53.51803,13.66898 15.87615,3.47944 45.01491,13.19092 58.4522,15.60301 13.43729,2.41211 35.60881,6.75597 54.421021,7.23747 18.8122,0.4815 48.37423,-4.82536 68.53017,-4.34271 20.15593,0.48265 61.13966,10.61716 78.60813,10.13452 17.46848,-0.48266 98.0922,-9.16922 112.87322,-8.20392 14.78102,0.96531 93.38915,2.41211 110.85763,2.41211 17.46847,0 77.93627,-2.89475 89.35796,-3.37741 11.4217,-0.48265 35.66928,-2.89475 35.66928,-2.89475 v 23.19243 h -800.8758 l -0.0403,-73.87644 z"
       id="path90"
       style="fill:url(#SVGID_12_)"
       inkscape:connector-curvature="0" />
    <path
       style="fill:#ffffff"
       inkscape:connector-curvature="0"
       id="path3229"
       d="m -197.20472,580.28508 c 4.205,0.3555 8.4065,0.72164 12.594,1.2188 11.926,1.3278 24.834,3.055 36.062,4.5312 -1.764,-1.1714 -3.6423,-2.2399 -5.625,-3.1875 -1.9827,-0.94761 -4.0573,-1.7797 -6.2188,-2.5312 -2.1614,-0.75154 -4.4187,-1.4168 -6.7188,-2 -2.3001,-0.58317 -4.6637,-1.0887 -7.0625,-1.5312 -4.7976,-0.88502 -9.735,-1.5114 -14.688,-2 -2.8239,-0.2786 -5.5824,-0.44995 -8.375,-0.65625 l 0.0312,6.1562 z" />
    <path
       style="fill:#ffffff"
       inkscape:connector-curvature="0"
       id="path3260"
       d="m 420.06006,602.72643 c 11.048,1.0793 22.129,2.1657 33.188,3.0312 5.7585,0.45069 11.5,0.81968 17.25,1.125 5.7498,0.30532 11.517,0.52491 17.25,0.625 12.764,-1.1391 25.567,-2.522 38.344,-4 12.777,-1.478 25.527,-3.0344 38.094,-4.4688 -2.0416,-0.84429 -4.1291,-1.633 -6.25,-2.2188 -2.1209,-0.58571 -4.2751,-0.97738 -6.4375,-1.0625 -2.3342,-0.25815 -4.6593,-0.40746 -6.9688,-0.46875 -2.3095,-0.0613 -4.6165,-0.0313 -6.9062,0.0625 -4.5795,0.18759 -9.1256,0.63021 -13.656,1.1875 -4.5306,0.55729 -9.0407,1.2197 -13.562,1.8125 -4.5218,0.5928 -9.0409,1.1434 -13.594,1.4375 -0.76767,0.0476 -3.012,-0.17904 -4.7188,-0.34375 -1.7068,-0.16471 -2.876,-0.27786 -1.5625,0 1.4973,0.26967 3.0993,0.44933 4.625,0.84375 0.76283,0.19721 1.4816,0.43294 2.1875,0.78125 0.70589,0.34831 1.3937,0.79563 2,1.375 -3.4778,0.4006 -7.0072,0.52766 -10.531,0.46875 -3.524,-0.0589 -7.0406,-0.29457 -10.594,-0.65625 -7.1062,-0.72337 -14.255,-1.9122 -21.375,-2.9062 -3.56,-0.49701 -7.1185,-0.95168 -10.656,-1.2812 -3.5377,-0.32957 -7.0642,-0.52587 -10.562,-0.53125 -3.4983,-0.005 -6.9644,0.18071 -10.406,0.65625 -1.7371,0.24 -3.4368,0.79496 -5.1562,1.1875 v 3.3438 z" />
    <path
       style="fill:#ffffff"
       inkscape:connector-curvature="0"
       id="path3267"
       d="m 213.43056,611.99946 c 0.63364,0.0736 0.92627,0.18055 2.0938,0.1875 2.0051,0.0119 4.3554,-0.0297 5.625,0.0937 10.573,0.25434 21.273,0.70093 31.906,0.75 5.3166,0.0245 10.628,-0.0311 15.875,-0.28125 5.2473,-0.25011 10.441,-0.67012 15.562,-1.3438 -7.5812,-0.7131 -15.227,-1.0506 -22.875,-1.2188 -7.6485,-0.16805 -15.322,-0.18053 -22.938,-0.2812 -4.5524,-0.002 -9.2685,-0.22624 -13.844,-0.0937 -2.2876,0.0662 -4.5566,0.21843 -6.7188,0.53125 -1.6396,0.23722 -3.1651,0.70385 -4.6875,1.1562 v 0.5 z" />
    <path
       style="fill:#ffffff"
       inkscape:connector-curvature="0"
       id="path3038"
       d="m 134.87781,593.75913 c -31.845,-1.0241 -62.145005,11.196 -94.447005,5.0654 -10.942,-2.016 -21.562,-6.5155 -31.2509997,-12.534 9.2105997,13.25 26.0619997,16.651 40.3769997,17.41 32.353,2.3816 64.770005,1.1572 95.785005,-5.3668 -1.6803,-4.1827 -6.8913,-4.2675 -10.464,-4.5739 z" />
    <path
       style="fill:#ffffff"
       inkscape:connector-curvature="0"
       id="path3033"
       d="m 90.799378,616.91868 c -0.97427,-0.25288 -0.4996,-0.12971 0,0 z" />
    <path
       style="fill:#ffffff"
       inkscape:connector-curvature="0"
       id="path3046"
       d="m 103.51706,583.63924 c -17.641996,0.0666 -35.760996,0.85547 -52.170996,5.5742 0.33224,1.8704 0.0356,4.5281 3.0993,3.7807 19.745,1.4467 38.456,-3.8734 57.832996,-4.9938 1.7901,-0.64243 10.426,-0.0737 5.915,-1.746 -4.7214,-1.8857 -9.7583,-2.2683 -14.676,-2.6151 z" />
    <path
       style="fill:#ffffff"
       inkscape:connector-curvature="0"
       id="path3054"
       d="m 513.71031,624.40463 c -14.194,0.60453 -29.55,-0.72079 -41.704,6.2144 -0.30289,1.2968 10.372,0.0203 14.331,0.41338 32.967,-0.26338 66.82,1.2182 98.759,-6.3192 -23.637,-2.2362 -47.64,-0.87542 -71.386,-0.30858 z" />
    <path
       style="fill:#ffffff"
       inkscape:connector-curvature="0"
       id="path3060"
       d="m 222.48761,590.63205 c -9.1048,-0.004 -18.955,-0.87477 -26.752,1.9307 -0.19429,0.56188 6.6535,0.20521 9.1927,0.45218 21.147,0.50868 42.862,1.7979 63.35,-0.89666 -15.162,-1.4262 -30.559,-1.2848 -45.791,-1.4862 z" />
    <path
       style="fill:#ffffff"
       inkscape:connector-curvature="0"
       id="path3997"
       d="m 102.81959,639.96902 c -14.398996,2.6947 -28.683996,6.0728 -42.730996,10.213 -1.1805,0.409 -2.3598,0.84529 -3.4992,1.3505 11.806,-1.8528 23.871,-2.7199 35.758,-1.0871 11.814996,1.2439 23.790006,3.1853 35.638006,1.1664 13.855,-1.8133 28.206,-2.1358 41.72,1.9122 5.1359,1.3819 10.181,3.0801 15.189,4.8655 0.93519,-2.8359 -2.0368,-4.7308 -3.827,-6.3597 -6.7125,-5.2134 -15.541,-5.685 -23.657,-6.5548 -17.708,-2.271 -35.326,-7.0604 -53.31301,-5.6927 -0.42588,0.0623 -0.85177,0.12467 -1.2776,0.187 z" />
    <path
       style="fill:#ffffff"
       inkscape:connector-curvature="0"
       id="path3249"
       d="m 590.63337,692.62884 c -0.53889,-0.058 -1.0532,-0.0958 -1.5938,-0.11683 -18.673,-2.0652 -36.476,2.8375 -54.688,4.014 -1.5353,0.0951 -8.9082,-0.88915 -6.2812,-0.33345 2.9946,0.53933 6.3874,0.68861 8.8125,3.0061 -9.7724,1.1257 -19.766,0.11628 -29.781,-1.2663 3.2253,-0.56062 6.4414,-1.1127 9.6562,-1.6968 3.8512,-0.33901 7.7726,-0.36289 11.688,0.21061 -3.7712,-1.23 -7.6616,-1.9607 -11.531,-2.1961 -6.8217,0.29632 -13.626,1.175 -20.438,2.1641 -14.947,-2.146 -29.805,-3.7833 -43.938,0.88753 -0.88112,0.6158 -0.62785,1.2209 0.0625,1.662 -3.8207,-0.53709 -7.6481,-1.3609 -11.5,-2.5994 -13.352,-2.2202 -28.494,-8.0623 -40.594,-1.4269 -2.4447,1.4869 -4.7496,3.2378 -7.375,4.44 18.327,6.3047 37.397,4.3927 55.906,4.693 11.121,-0.039 22.106,-0.948 33,-2.3097 14.431,1.2562 28.886,2.2666 43.25,2.5174 25.528,-2.2782 51.304,-5.6251 76.438,-8.4937 -3.5729,-1.4775 -7.3215,-2.7478 -11.094,-3.1555 z" />
    <path
       style="fill:#ffffff"
       inkscape:connector-curvature="0"
       id="path3247"
       d="m 372.16284,691.91966 c -0.53889,-0.058 -1.0844,-0.0987 -1.625,-0.11974 -18.673,-2.0652 -36.476,2.8375 -54.688,4.014 -1.5353,0.0951 -8.9082,-0.88915 -6.2812,-0.33344 2.9946,0.53933 6.3874,0.6886 8.8125,3.0061 -10.586,1.2194 -21.429,-0.0695 -32.281,-1.6235 3.4248,-0.23249 6.9072,-0.20056 10.375,0.30745 -3.7712,-1.23 -7.6616,-1.9607 -11.531,-2.1961 -2.6032,0.11307 -5.2126,0.32657 -7.8125,0.58682 -14.662,-2.0846 -29.227,-3.5546 -43.094,1.0284 -2.1689,1.5158 4.38285,2.28661 5.55745,1.34341 3.1516,0.30784 4.47575,1.29602 7.63015,1.60021 -12.599,1.4275 -25.72366,-5.66681 -38.58466,-9.80221 -13.352,-2.2202 -35.35795,-4.84176 -47.45695,1.79364 0.88786,2.40623 6.9718,0.70965 3.65691,4.44 18.327,6.3047 29.55073,-1.58581 49.43972,5.14977 15.069,-0.0529 32.64198,1.9925 47.31998,-0.2459 15.088,1.3379 30.169,2.4039 45.188,2.6661 25.528,-2.2782 51.304,-5.5938 76.438,-8.4624 -3.5729,-1.4775 -7.2903,-2.7449 -11.062,-3.1526 z"
       sodipodi:nodetypes="ccccccccccccccccccccc" />
    <path
       style="fill:#ffffff"
       inkscape:connector-curvature="0"
       id="path3257"
       d="m -1.0802191,692.35333 c 3.1322641,3.54807 9.7069999,0.96215 14.5620001,1.3438 5.991331,2.06162 11.616801,2.20335 17.281,1.1562 5.177521,-0.95717 11.486,0.52491 17.219,0.625 12.764,-1.1391 25.598,3.4488 38.375,1.9688 12.777,-1.4801 25.495999,-3.0344 38.061999,-4.4688 -1.7864,-0.73876 -3.6134,-1.4155 -5.4688,-1.9688 -1.8553,-0.55322 -3.7389,-0.98366 -5.625,-1.1875 -0.53889,-0.0581 -1.0532,-0.10396 -1.5938,-0.125 -2.3342,-0.25815 -4.6593,-0.40746 -6.9688,-0.46875 -2.3095,-0.0613 -4.6165,-0.0313 -6.906199,0.0625 -4.5795,0.18759 -9.1256,0.66146 -13.656,1.2188 -4.5306,0.55729 -9.0407,1.2197 -13.562,1.8125 -4.5218,0.5928 -9.0409,-4.8879 -13.594,-4.5938 -0.76767,0.0476 -2.9807,-0.17904 -4.6875,-0.34375 -1.7068,-0.16471 -2.9072,-0.27785 -1.5938,0 1.4973,0.26967 3.0993,0.44933 4.625,0.84375 0.76283,0.19721 1.5129,0.46419 2.2188,0.8125 0.70589,0.34831 1.3625,0.76438 1.9688,1.3438 -3.4778,0.4006 -6.976,0.55891 -10.5,0.5 -3.524,-0.0589 -7.0719,-0.32582 -10.625,-0.6875 -7.1063,-0.72337 -14.255,-1.881 -21.375,-2.875 -3.56,-0.49701 -7.1185002,-0.95168 -10.6560002,-1.2812 -2.5120999,-0.23402 -12.6887102,-0.64283 -15.0844379,0.0534 -10.3424159,3.00571 7.69935373,2.56394 7.584438,6.25914 z"
       sodipodi:nodetypes="ccscsccccsscccscsscssssscc" />
    <path
       d="m -115.01256,620.1784 c 22.990833,8.35608 19.764855,-2.02278 39.803293,6.55306 97.870655,33.74375 -52.073553,3.89917 -10.975352,28.87704 -33.969021,-9.42367 -48.840611,-36.52851 -28.827941,-35.4301 z"
       id="path90-2-5"
       style="fill:url(#linearGradient4204);fill-opacity:1"
       inkscape:connector-curvature="0"
       sodipodi:nodetypes="cccc" />
  </g>
</svg>
