<!--Created with Inkscape (http://www.inkscape.org/)--><svg xmlns:dc="http://purl.org/dc/elements/1.1/" xmlns:cc="http://creativecommons.org/ns#" xmlns:rdf="http://www.w3.org/1999/02/22-rdf-syntax-ns#" xmlns="http://www.w3.org/2000/svg" xmlns:sodipodi="http://sodipodi.sourceforge.net/DTD/sodipodi-0.dtd" xmlns:inkscape="http://www.inkscape.org/namespaces/inkscape" width="120" height="120" viewBox="0 0 31.75 31.750001" inkscape:version="0.92.1 r15371" sodipodi:docname="lowerD.svg"><sodipodi:namedview pagecolor="#ffffff" bordercolor="#666666" borderopacity="1.0" inkscape:pageopacity="0.0" inkscape:pageshadow="2" inkscape:zoom="0.35355339" inkscape:cx="7.8837292" inkscape:cy="62.039054" inkscape:document-units="mm" inkscape:current-layer="text1005" showgrid="false" units="px" inkscape:window-width="938" inkscape:window-height="1051" inkscape:window-x="0" inkscape:window-y="0" inkscape:window-maximized="0"/><metadata><rdf:RDF><cc:Work><dc:format>image/svg+xml</dc:format><dc:type rdf:resource="http://purl.org/dc/dcmitype/StillImage"/><dc:title/></cc:Work></rdf:RDF></metadata><g style="font-style:normal;font-variant:normal;font-weight:400;font-stretch:normal;font-size:25.39999962px;line-height:1.25;font-family:Kabel;-inkscape-font-specification:Kabel;letter-spacing:0;word-spacing:0;fill:#e77936;fill-opacity:1;stroke:#b95c1f;stroke-width:.5291667;stroke-miterlimit:4;stroke-dasharray:none;stroke-opacity:1" aria-label="a" inkscape:label="Calque 1" inkscape:groupmode="layer"><path inkscape:connector-curvature="0" d="M10.474 285.975q-.025.23-.025.434 0 1.47.943 2.487 1.035 1.196 2.461 1.32.18.025.354.025 1.395 0 2.493-.886 1.215-.968 1.37-2.518.025-.174.025-.354 0-.862-.384-1.674-.478-.992-1.37-1.606-.888-.608-1.954-.633h-.05q-1.45 0-2.592.993-1.172 1.017-1.271 2.412zm3.33 8.638h-.205q-2.034 0-3.758-.992-1.83-1.042-2.951-2.92-1.117-1.88-1.142-4.069v-.099q0-2.133.993-4.012 1.017-1.929 2.821-3.1 1.774-1.167 3.988-1.167 2.69 0 4.266 1.576v-6.3l4.775-.584v21.028l-4.626.46v-1.452q-.453.46-1.495 1.017-1.066.558-2.666.614z" style="font-style:normal;font-variant:normal;font-weight:400;font-stretch:normal;font-size:25.39999962px;line-height:1.25;font-family:Kabel;-inkscape-font-specification:Kabel;letter-spacing:0;word-spacing:0;fill:#1bd0d2;fill-opacity:1;stroke:#1fb7b9;stroke-width:.52916682;stroke-miterlimit:4;stroke-dasharray:none;stroke-opacity:1" transform="translate(1.705 -268.929)" aria-label="bcdefghijklmnopqrstuvwxyzABCDEFGHIJKLMNOPQRSTUVWXYZ"/></g></svg>