<!--Created with Inkscape (http://www.inkscape.org/)--><svg xmlns:dc="http://purl.org/dc/elements/1.1/" xmlns:cc="http://creativecommons.org/ns#" xmlns:rdf="http://www.w3.org/1999/02/22-rdf-syntax-ns#" xmlns="http://www.w3.org/2000/svg" xmlns:sodipodi="http://sodipodi.sourceforge.net/DTD/sodipodi-0.dtd" xmlns:inkscape="http://www.inkscape.org/namespaces/inkscape" width="120" height="120" viewBox="0 0 31.75 31.750001" inkscape:version="0.92.1 r15371" sodipodi:docname="lowerQ.svg"><sodipodi:namedview pagecolor="#ffffff" bordercolor="#666666" borderopacity="1.0" inkscape:pageopacity="0.0" inkscape:pageshadow="2" inkscape:zoom="0.35355339" inkscape:cx="7.8837292" inkscape:cy="62.039054" inkscape:document-units="mm" inkscape:current-layer="text1005" showgrid="false" units="px" inkscape:window-width="938" inkscape:window-height="1051" inkscape:window-x="0" inkscape:window-y="0" inkscape:window-maximized="0"/><metadata><rdf:RDF><cc:Work><dc:format>image/svg+xml</dc:format><dc:type rdf:resource="http://purl.org/dc/dcmitype/StillImage"/><dc:title/></cc:Work></rdf:RDF></metadata><g style="font-style:normal;font-variant:normal;font-weight:400;font-stretch:normal;font-size:25.39999962px;line-height:1.25;font-family:Kabel;-inkscape-font-specification:Kabel;letter-spacing:0;word-spacing:0;fill:#e77936;fill-opacity:1;stroke:#b95c1f;stroke-width:.5291667;stroke-miterlimit:4;stroke-dasharray:none;stroke-opacity:1" aria-label="a" inkscape:label="Calque 1" inkscape:groupmode="layer"><path inkscape:connector-curvature="0" d="M14.614 290.117q1.494-.08 2.616-1.376.937-1.092.937-2.437 0-.23-.025-.46-.205-1.568-1.42-2.56-1.067-.838-2.338-.838-.23 0-.459.025-1.042.124-1.83.707-.812.59-1.215 1.5-.36.764-.36 1.6 0 .205.026.41.13 1.445 1.351 2.462 1.117.967 2.512.967h.204zm3.633-9.984v-1.395l4.496-.484v20.774l-4.496.46v-6.655q-.105.075-.31.255-.223.18-.787.508-.558.329-1.271.558-.707.23-1.57.304-.254.025-.483.025-1.451 0-2.822-.533-1.6-.583-2.79-1.724-1.197-1.123-1.879-2.642-.713-1.5-.738-3.206.05-.1.05-.198.025-2.19 1.165-4.093 1.123-1.88 3.027-2.946 1.854-1.042 4.037-1.042h.099q2.288.05 4.272 2.034z" style="font-style:normal;font-variant:normal;font-weight:400;font-stretch:normal;font-size:25.39999962px;line-height:1.25;font-family:Kabel;-inkscape-font-specification:Kabel;letter-spacing:0;word-spacing:0;fill:#75d21b;fill-opacity:1;stroke:#6bb91f;stroke-width:.52916682;stroke-miterlimit:4;stroke-dasharray:none;stroke-opacity:1" transform="translate(1.705 -268.929)" aria-label="bcdefghijklmnopqrstuvwxyzABCDEFGHIJKLMNOPQRSTUVWXYZ"/></g></svg>