<!--Created with Inkscape (http://www.inkscape.org/)--><svg xmlns:dc="http://purl.org/dc/elements/1.1/" xmlns:cc="http://creativecommons.org/ns#" xmlns:rdf="http://www.w3.org/1999/02/22-rdf-syntax-ns#" xmlns="http://www.w3.org/2000/svg" xmlns:sodipodi="http://sodipodi.sourceforge.net/DTD/sodipodi-0.dtd" xmlns:inkscape="http://www.inkscape.org/namespaces/inkscape" width="120" height="120" viewBox="0 0 31.75 31.750001" inkscape:version="0.92.1 r15371" sodipodi:docname="lowerM.svg"><sodipodi:namedview pagecolor="#ffffff" bordercolor="#666666" borderopacity="1.0" inkscape:pageopacity="0.0" inkscape:pageshadow="2" inkscape:zoom="0.35355339" inkscape:cx="7.8837292" inkscape:cy="62.039054" inkscape:document-units="mm" inkscape:current-layer="text1005" showgrid="false" units="px" inkscape:window-width="938" inkscape:window-height="1051" inkscape:window-x="0" inkscape:window-y="0" inkscape:window-maximized="0"/><metadata><rdf:RDF><cc:Work><dc:format>image/svg+xml</dc:format><dc:type rdf:resource="http://purl.org/dc/dcmitype/StillImage"/><dc:title/></cc:Work></rdf:RDF></metadata><g style="font-style:normal;font-variant:normal;font-weight:400;font-stretch:normal;font-size:25.39999962px;line-height:1.25;font-family:Kabel;-inkscape-font-specification:Kabel;letter-spacing:0;word-spacing:0;fill:#e77936;fill-opacity:1;stroke:#b95c1f;stroke-width:.5291667;stroke-miterlimit:4;stroke-dasharray:none;stroke-opacity:1" aria-label="a" inkscape:label="Calque 1" inkscape:groupmode="layer"><path inkscape:connector-curvature="0" d="m24.557 293.925-4.645.304v-9.32q0-1.117-.304-1.855-.254-.608-1.066-.608-.156 0-.335.025-.986.1-1.29.788-.335.682-.385 1.83.05.303.05.756v8.08l-4.725.353v-9.246q0-2.61-1.346-2.61-.149 0-.329.05-1.017.173-1.27.836-.28.658-.28 2.289v8.328l-4.85.353v-15.49l4.521-.534v1.526q0-.08.354-.459.335-.384 1.017-.738.688-.353 1.83-.434.204-.025.408-.025.658 0 1.216.205.713.254 1.116.583.385.36.664.713.279.378.279.459.862-1.017 1.804-1.476.937-.434 2.313-.459h.1q1.395 0 2.567.59 1.215.607 1.903 1.748.683 1.172.683 2.617z" style="font-style:normal;font-variant:normal;font-weight:400;font-stretch:normal;font-size:25.39999962px;line-height:1.25;font-family:Kabel;-inkscape-font-specification:Kabel;letter-spacing:0;word-spacing:0;fill:#cc77d6;fill-opacity:1;stroke:#a91fb9;stroke-width:.52916682;stroke-miterlimit:4;stroke-dasharray:none;stroke-opacity:1" transform="translate(1.705 -268.929)" aria-label="bcdefghijklmnopqrstuvwxyzABCDEFGHIJKLMNOPQRSTUVWXYZ"/></g></svg>