<?xml version="1.0" encoding="UTF-8" standalone="no"?>
<!-- Created with Inkscape (http://www.inkscape.org/) -->

<svg
   xmlns:dc="http://purl.org/dc/elements/1.1/"
   xmlns:cc="http://creativecommons.org/ns#"
   xmlns:rdf="http://www.w3.org/1999/02/22-rdf-syntax-ns#"
   xmlns:svg="http://www.w3.org/2000/svg"
   xmlns="http://www.w3.org/2000/svg"
   xmlns:sodipodi="http://sodipodi.sourceforge.net/DTD/sodipodi-0.dtd"
   xmlns:inkscape="http://www.inkscape.org/namespaces/inkscape"
   width="120"
   height="120"
   viewBox="0 0 31.75 31.750001"
   version="1.1"
   id="svg8"
   inkscape:version="0.92.1 r15371"
   sodipodi:docname="lowerD.svg">
  <defs
     id="defs2" />
  <sodipodi:namedview
     id="base"
     pagecolor="#ffffff"
     bordercolor="#666666"
     borderopacity="1.0"
     inkscape:pageopacity="0.0"
     inkscape:pageshadow="2"
     inkscape:zoom="0.35355339"
     inkscape:cx="7.8837292"
     inkscape:cy="62.039054"
     inkscape:document-units="mm"
     inkscape:current-layer="text1005"
     showgrid="false"
     units="px"
     inkscape:window-width="938"
     inkscape:window-height="1051"
     inkscape:window-x="0"
     inkscape:window-y="0"
     inkscape:window-maximized="0" />
  <metadata
     id="metadata5">
    <rdf:RDF>
      <cc:Work
         rdf:about="">
        <dc:format>image/svg+xml</dc:format>
        <dc:type
           rdf:resource="http://purl.org/dc/dcmitype/StillImage" />
        <dc:title></dc:title>
      </cc:Work>
    </rdf:RDF>
  </metadata>
  <g
     inkscape:label="Calque 1"
     inkscape:groupmode="layer"
     id="layer1"
     transform="translate(0,-265.24998)">
    <g
       aria-label="a"
       style="font-style:normal;font-variant:normal;font-weight:normal;font-stretch:normal;font-size:25.39999962px;line-height:1.25;font-family:Kabel;-inkscape-font-specification:Kabel;letter-spacing:0px;word-spacing:0px;fill:#e77936;fill-opacity:1;stroke:#b95c1f;stroke-width:0.5291667;stroke-miterlimit:4;stroke-dasharray:none;stroke-opacity:1"
       id="text817"
       transform="translate(1.7053228,-3.6786133)">
      <g
         aria-label="bcdefghijklmnopqrstuvwxyz

ABCDEFGHIJKLMNOPQRSTUVWXYZ"
         style="font-style:normal;font-variant:normal;font-weight:normal;font-stretch:normal;font-size:25.39999962px;line-height:1.25;font-family:Kabel;-inkscape-font-specification:Kabel;letter-spacing:0px;word-spacing:0px;fill:#e77936;fill-opacity:1;stroke:#b95c1f;stroke-width:0.5291667;stroke-miterlimit:4;stroke-dasharray:none;stroke-opacity:1"
         id="text1005">
        <path
           inkscape:connector-curvature="0"
           d="m 10.473783,285.97491 q -0.0248,0.22944 -0.0248,0.43408 0,1.46968 0.942571,2.48667 1.035599,1.19683 2.461869,1.32085 0.179831,0.0248 0.35347,0.0248 1.39526,0 2.492871,-0.88677 1.21543,-0.96738 1.370459,-2.51768 0.0248,-0.17363 0.0248,-0.35346 0,-0.86196 -0.38447,-1.67432 -0.4775,-0.99219 -1.37046,-1.6061 -0.88677,-0.60772 -1.95337,-0.63252 -0.0248,0 -0.0496,0 -1.45107,0 -2.59209,0.99219 -1.17202,1.01699 -1.27124,2.41225 z m 3.33003,8.63823 q -0.10543,0 -0.20464,0 -2.03399,0 -3.7579098,-0.99218 -1.8293521,-1.0418 -2.9517621,-2.92076 -1.11621,-1.87896 -1.14102,-4.06797 0,-0.0496 0,-0.0992 0,-2.13321 0.99219,-4.01215 1.01699,-1.92858 2.8215321,-3.1006 1.7735398,-1.16582 3.9873598,-1.16582 2.69131,0 4.266401,1.5751 v -6.30039 l 4.77491,-0.58291 v 21.02818 l -4.62608,0.45888 v -1.45106 q -0.45269,0.45888 -1.494481,1.01699 -1.0666,0.55809 -2.6665,0.61391 z"
           style="font-style:normal;font-variant:normal;font-weight:normal;font-stretch:normal;font-size:25.39999962px;line-height:1.25;font-family:Kabel;-inkscape-font-specification:Kabel;letter-spacing:0px;word-spacing:0px;fill:#1bd0d2;fill-opacity:1;stroke:#1fb7b9;stroke-width:0.52916682;stroke-miterlimit:4;stroke-dasharray:none;stroke-opacity:1"
           id="path1015" />
      </g>
    </g>
  </g>
</svg>
