<?xml version="1.0" encoding="UTF-8" standalone="no"?>
<svg
   xmlns:dc="http://purl.org/dc/elements/1.1/"
   xmlns:cc="http://creativecommons.org/ns#"
   xmlns:rdf="http://www.w3.org/1999/02/22-rdf-syntax-ns#"
   xmlns:svg="http://www.w3.org/2000/svg"
   xmlns="http://www.w3.org/2000/svg"
   xmlns:sodipodi="http://sodipodi.sourceforge.net/DTD/sodipodi-0.dtd"
   xmlns:inkscape="http://www.inkscape.org/namespaces/inkscape"
   version="1.1"
   viewBox="0 0 102.48062 128.99994"
   stroke-miterlimit="10"
   id="svg2"
   inkscape:version="0.91 r13725"
   sodipodi:docname="u.svg"
   width="102.48062"
   height="128.99994"
   style="fill:none;stroke:none;stroke-linecap:square;stroke-miterlimit:10">
  <metadata
     id="metadata19">
    <rdf:RDF>
      <cc:Work
         rdf:about="">
        <dc:format>image/svg+xml</dc:format>
        <dc:type
           rdf:resource="http://purl.org/dc/dcmitype/StillImage" />
        <dc:title />
      </cc:Work>
    </rdf:RDF>
  </metadata>
  <defs
     id="defs17" />
  <sodipodi:namedview
     pagecolor="#ffffff"
     bordercolor="#666666"
     borderopacity="1"
     objecttolerance="10"
     gridtolerance="10"
     guidetolerance="10"
     inkscape:pageopacity="0"
     inkscape:pageshadow="2"
     inkscape:window-width="1366"
     inkscape:window-height="704"
     id="namedview15"
     showgrid="false"
     fit-margin-top="0"
     fit-margin-left="0"
     fit-margin-right="0"
     fit-margin-bottom="0"
     inkscape:zoom="1.5759785"
     inkscape:cx="27.290009"
     inkscape:cy="82.959406"
     inkscape:window-x="0"
     inkscape:window-y="27"
     inkscape:window-maximized="1"
     inkscape:current-layer="svg2" />
  <clipPath
     id="p.0">
    <path
       d="M 0,0 960,0 960,540 0,540 0,0 Z"
       id="path5"
       inkscape:connector-curvature="0"
       style="clip-rule:nonzero" />
  </clipPath>
  <path
     inkscape:connector-curvature="0"
     style="fill:#8df437;fill-opacity:1;fill-rule:evenodd;stroke:#0e0000;stroke-width:1;stroke-linecap:butt;stroke-linejoin:round;stroke-opacity:1"
     d="m 0.5,0.5 0,77.55429 c 0,9.03622 0.43216,15.63657 1.29651,19.80109 1.2572,6.20748 3.43112,11.45898 6.52179,15.75445 3.11682,4.26929 7.87066,7.8183 14.26147,10.647 6.41703,2.82874 13.31861,4.24311 20.70475,4.24311 16.73663,0 29.97665,-7.07181 39.72003,-21.21546 l 0,18.38672 18.97607,0 0,-125.1712 -21.21549,0 0,67.06442 c 0,10.68631 -1.16552,18.8451 -3.49661,24.47635 -2.3049,5.60507 -6.24676,10.04462 -11.82565,13.31861 -5.57889,3.2478 -11.55063,4.8717 -17.91528,4.8717 -6.36463,0 -11.7078,-1.58463 -16.02945,-4.75385 -4.32166,-3.1954 -7.15039,-7.58255 -8.48618,-13.16143 -0.86435,-3.85022 -1.29651,-11.31491 -1.29651,-22.39411 l 0,-69.42169 z"
     id="path13" />
</svg>
