<!--Created with Inkscape (http://www.inkscape.org/)--><svg xmlns:dc="http://purl.org/dc/elements/1.1/" xmlns:cc="http://creativecommons.org/ns#" xmlns:rdf="http://www.w3.org/1999/02/22-rdf-syntax-ns#" xmlns="http://www.w3.org/2000/svg" xmlns:sodipodi="http://sodipodi.sourceforge.net/DTD/sodipodi-0.dtd" xmlns:inkscape="http://www.inkscape.org/namespaces/inkscape" width="120" height="120" viewBox="0 0 31.75 31.750001" inkscape:version="0.92.1 r15371" sodipodi:docname="lowerU.svg"><sodipodi:namedview pagecolor="#ffffff" bordercolor="#666666" borderopacity="1.0" inkscape:pageopacity="0.0" inkscape:pageshadow="2" inkscape:zoom="0.35355339" inkscape:cx="7.8837292" inkscape:cy="62.039054" inkscape:document-units="mm" inkscape:current-layer="text1005" showgrid="false" units="px" inkscape:window-width="938" inkscape:window-height="1051" inkscape:window-x="0" inkscape:window-y="0" inkscape:window-maximized="0"/><metadata><rdf:RDF><cc:Work><dc:format>image/svg+xml</dc:format><dc:type rdf:resource="http://purl.org/dc/dcmitype/StillImage"/><dc:title/></cc:Work></rdf:RDF></metadata><g style="font-style:normal;font-variant:normal;font-weight:400;font-stretch:normal;font-size:25.39999962px;line-height:1.25;font-family:Kabel;-inkscape-font-specification:Kabel;letter-spacing:0;word-spacing:0;fill:#e77936;fill-opacity:1;stroke:#b95c1f;stroke-width:.5291667;stroke-miterlimit:4;stroke-dasharray:none;stroke-opacity:1" aria-label="a" inkscape:label="Calque 1" inkscape:groupmode="layer"><path inkscape:connector-curvature="0" d="M12.328 278.254v9.166q0 .204-.05.36.124 2.616 1.55 2.616.224 0 .478-.055 1.147-.304 1.526-1.265.384-.968.384-2.593v-7.85l4.546-.379v15.621l-4.496.558v-1.705q-.08.13-.236.335-.149.205-.632.583-.503.378-1.166.607-.689.23-1.6.304h-.254q-1.222 0-2.264-.583-1.166-.632-1.854-1.829-.682-1.166-.682-2.592v-10.87z" style="font-style:normal;font-variant:normal;font-weight:400;font-stretch:normal;font-size:25.39999962px;line-height:1.25;font-family:Kabel;-inkscape-font-specification:Kabel;letter-spacing:0;word-spacing:0;fill:#e16f6f;fill-opacity:1;stroke:#b91f1f;stroke-width:.52916682;stroke-miterlimit:4;stroke-dasharray:none;stroke-opacity:1" transform="translate(1.705 -268.929)" aria-label="bcdefghijklmnopqrstuvwxyzABCDEFGHIJKLMNOPQRSTUVWXYZ"/></g></svg>