<?xml version="1.0" encoding="UTF-8" standalone="no"?>
<!-- Created with Inkscape (http://www.inkscape.org/) -->

<svg
   xmlns:dc="http://purl.org/dc/elements/1.1/"
   xmlns:cc="http://creativecommons.org/ns#"
   xmlns:rdf="http://www.w3.org/1999/02/22-rdf-syntax-ns#"
   xmlns:svg="http://www.w3.org/2000/svg"
   xmlns="http://www.w3.org/2000/svg"
   xmlns:sodipodi="http://sodipodi.sourceforge.net/DTD/sodipodi-0.dtd"
   xmlns:inkscape="http://www.inkscape.org/namespaces/inkscape"
   width="120"
   height="120"
   viewBox="0 0 31.75 31.750001"
   version="1.1"
   id="svg8"
   inkscape:version="0.92.1 r15371"
   sodipodi:docname="lowerM.svg">
  <defs
     id="defs2" />
  <sodipodi:namedview
     id="base"
     pagecolor="#ffffff"
     bordercolor="#666666"
     borderopacity="1.0"
     inkscape:pageopacity="0.0"
     inkscape:pageshadow="2"
     inkscape:zoom="0.35355339"
     inkscape:cx="7.8837292"
     inkscape:cy="62.039054"
     inkscape:document-units="mm"
     inkscape:current-layer="text1005"
     showgrid="false"
     units="px"
     inkscape:window-width="938"
     inkscape:window-height="1051"
     inkscape:window-x="0"
     inkscape:window-y="0"
     inkscape:window-maximized="0" />
  <metadata
     id="metadata5">
    <rdf:RDF>
      <cc:Work
         rdf:about="">
        <dc:format>image/svg+xml</dc:format>
        <dc:type
           rdf:resource="http://purl.org/dc/dcmitype/StillImage" />
        <dc:title></dc:title>
      </cc:Work>
    </rdf:RDF>
  </metadata>
  <g
     inkscape:label="Calque 1"
     inkscape:groupmode="layer"
     id="layer1"
     transform="translate(0,-265.24998)">
    <g
       aria-label="a"
       style="font-style:normal;font-variant:normal;font-weight:normal;font-stretch:normal;font-size:25.39999962px;line-height:1.25;font-family:Kabel;-inkscape-font-specification:Kabel;letter-spacing:0px;word-spacing:0px;fill:#e77936;fill-opacity:1;stroke:#b95c1f;stroke-width:0.5291667;stroke-miterlimit:4;stroke-dasharray:none;stroke-opacity:1"
       id="text817"
       transform="translate(1.7053228,-3.6786133)">
      <g
         aria-label="bcdefghijklmnopqrstuvwxyz

ABCDEFGHIJKLMNOPQRSTUVWXYZ"
         style="font-style:normal;font-variant:normal;font-weight:normal;font-stretch:normal;font-size:25.39999962px;line-height:1.25;font-family:Kabel;-inkscape-font-specification:Kabel;letter-spacing:0px;word-spacing:0px;fill:#e77936;fill-opacity:1;stroke:#b95c1f;stroke-width:0.5291667;stroke-miterlimit:4;stroke-dasharray:none;stroke-opacity:1"
         id="text1005">
        <path
           inkscape:connector-curvature="0"
           d="m 24.556652,293.92481 -4.64468,0.30386 v -9.32037 q 0,-1.1162 -0.30386,-1.85415 -0.25425,-0.6077 -1.0666,-0.6077 -0.15503,0 -0.33486,0.0248 -0.98599,0.0992 -1.28985,0.78755 -0.33486,0.68213 -0.38447,1.82934 0.0496,0.30386 0.0496,0.75655 v 8.08012 l -4.7253,0.35347 v -9.24595 q 0,-2.61069 -1.34566,-2.61069 -0.14883,0 -0.32866,0.0496 -1.0169899,0.17363 -1.2712399,0.83716 -0.27905,0.65732 -0.27905,2.28823 v 8.32817 l -4.8493203,0.35347 v -15.49054 l 4.5206504,-0.5333 v 1.52549 q 0,-0.0806 0.3534698,-0.45889 0.3348601,-0.38447 1.0169901,-0.73793 0.6883299,-0.35347 1.8293499,-0.43409 0.20464,-0.0248 0.40928,-0.0248 0.65732,0 1.21543,0.20464 0.71313,0.25425 1.11621,0.58291 0.38447,0.35967 0.66352,0.71313 0.27906,0.37827 0.27906,0.45889 0.86197,-1.01699 1.80455,-1.47588 0.93637,-0.43408 2.31303,-0.45889 0.0496,0 0.0992,0 1.39527,0 2.56729,0.58911 1.21543,0.60772 1.90376,1.74873 0.68213,1.17203 0.68213,2.6169 z"
           style="font-style:normal;font-variant:normal;font-weight:normal;font-stretch:normal;font-size:25.39999962px;line-height:1.25;font-family:Kabel;-inkscape-font-specification:Kabel;letter-spacing:0px;word-spacing:0px;fill:#cc77d6;fill-opacity:1;stroke:#a91fb9;stroke-width:0.52916682;stroke-miterlimit:4;stroke-dasharray:none;stroke-opacity:1"
           id="path1033" />
      </g>
    </g>
  </g>
</svg>
