<?xml version="1.0" encoding="UTF-8" standalone="no"?>
<!-- Created with Inkscape (http://www.inkscape.org/) -->

<svg
   xmlns:dc="http://purl.org/dc/elements/1.1/"
   xmlns:cc="http://creativecommons.org/ns#"
   xmlns:rdf="http://www.w3.org/1999/02/22-rdf-syntax-ns#"
   xmlns:svg="http://www.w3.org/2000/svg"
   xmlns="http://www.w3.org/2000/svg"
   xmlns:sodipodi="http://sodipodi.sourceforge.net/DTD/sodipodi-0.dtd"
   xmlns:inkscape="http://www.inkscape.org/namespaces/inkscape"
   width="120"
   height="120"
   viewBox="0 0 31.75 31.750001"
   version="1.1"
   id="svg8"
   inkscape:version="0.92.1 r15371"
   sodipodi:docname="upperO.svg">
  <defs
     id="defs2" />
  <sodipodi:namedview
     id="base"
     pagecolor="#ffffff"
     bordercolor="#666666"
     borderopacity="1.0"
     inkscape:pageopacity="0.0"
     inkscape:pageshadow="2"
     inkscape:zoom="0.25"
     inkscape:cx="7.8837292"
     inkscape:cy="62.039054"
     inkscape:document-units="mm"
     inkscape:current-layer="text1005"
     showgrid="false"
     units="px"
     inkscape:window-width="938"
     inkscape:window-height="1051"
     inkscape:window-x="0"
     inkscape:window-y="0"
     inkscape:window-maximized="0" />
  <metadata
     id="metadata5">
    <rdf:RDF>
      <cc:Work
         rdf:about="">
        <dc:format>image/svg+xml</dc:format>
        <dc:type
           rdf:resource="http://purl.org/dc/dcmitype/StillImage" />
        <dc:title></dc:title>
      </cc:Work>
    </rdf:RDF>
  </metadata>
  <g
     inkscape:label="Calque 1"
     inkscape:groupmode="layer"
     id="layer1"
     transform="translate(0,-265.24998)">
    <g
       aria-label="a"
       style="font-style:normal;font-variant:normal;font-weight:normal;font-stretch:normal;font-size:25.39999962px;line-height:1.25;font-family:Kabel;-inkscape-font-specification:Kabel;letter-spacing:0px;word-spacing:0px;fill:#e77936;fill-opacity:1;stroke:#b95c1f;stroke-width:0.5291667;stroke-miterlimit:4;stroke-dasharray:none;stroke-opacity:1"
       id="text817"
       transform="translate(1.7053228,-3.6786133)">
      <g
         aria-label="bcdefghijklmnopqrstuvwxyz

ABCDEFGHIJKLMNOPQRSTUVWXYZ"
         style="font-style:normal;font-variant:normal;font-weight:normal;font-stretch:normal;font-size:25.39999962px;line-height:1.25;font-family:Kabel;-inkscape-font-specification:Kabel;letter-spacing:0px;word-spacing:0px;fill:#e77936;fill-opacity:1;stroke:#b95c1f;stroke-width:0.5291667;stroke-miterlimit:4;stroke-dasharray:none;stroke-opacity:1"
         id="text1005">
        <path
           inkscape:connector-curvature="0"
           d="m 14.030147,278.8179 q -1.59991,0.0248 -2.94555,0.91156 -1.3704698,0.89298 -2.133207,2.33785 -0.7131298,1.32084 -0.7131298,2.79672 0,0.14884 0,0.30387 0.0744,1.50067 0.9921898,2.79672 0.886777,1.32085 2.313037,2.05259 1.26503,0.66353 2.58588,0.66353 0.13023,0 0.25426,0 2.313038,-0.13024 4.092758,-2.1084 1.5503,-1.70532 1.5503,-3.73312 0,-0.30385 -0.0249,-0.61391 -0.15504,-1.49448 -0.96739,-2.76572 -0.83715,-1.27125 -2.158,-1.97818 -1.29606,-0.66351 -2.747138,-0.66351 -0.0496,0 -0.0992,0 z m 0.25426,-4.89893 q 2.995168,0.0248 5.562448,1.51929 2.542477,1.50068 3.987347,3.98735 1.42007,2.46807 1.42007,5.38882 0,0.0496 0,0.0992 -0.0744,2.97036 -1.59991,5.41362 -1.51929,2.43706 -4.086567,3.83232 -2.43705,1.32085 -5.184168,1.32085 -0.14885,0 -0.30387,0 -2.48666,-0.0744 -4.545437,-0.96118 -2.0587999,-0.89298 -3.5594898,-2.44326 -1.4944701,-1.55029 -2.2324171,-3.55327 -0.65733,-1.80454 -0.65733,-3.83853 0,-0.20464 0,-0.40308 0.0744,-2.89594 1.599907,-5.3082 1.5192899,-2.38746 4.0865701,-3.73311 2.4928668,-1.32085 5.4136068,-1.32085 0.0496,0 0.0992,0 z"
           style="font-style:normal;font-variant:normal;font-weight:normal;font-stretch:normal;font-size:25.39999962px;line-height:1.25;font-family:Kabel;-inkscape-font-specification:Kabel;letter-spacing:0px;word-spacing:0px;fill:#e77936;fill-opacity:1;stroke:#b95c1f;stroke-width:0.52916682;stroke-miterlimit:4;stroke-dasharray:none;stroke-opacity:1"
           id="path1089" />
      </g>
    </g>
  </g>
</svg>
