<?xml version="1.0" encoding="UTF-8" standalone="no"?>
<!-- Created with Inkscape (http://www.inkscape.org/) -->

<svg
   xmlns:dc="http://purl.org/dc/elements/1.1/"
   xmlns:cc="http://creativecommons.org/ns#"
   xmlns:rdf="http://www.w3.org/1999/02/22-rdf-syntax-ns#"
   xmlns:svg="http://www.w3.org/2000/svg"
   xmlns="http://www.w3.org/2000/svg"
   xmlns:sodipodi="http://sodipodi.sourceforge.net/DTD/sodipodi-0.dtd"
   xmlns:inkscape="http://www.inkscape.org/namespaces/inkscape"
   width="120"
   height="120"
   viewBox="0 0 31.75 31.750001"
   version="1.1"
   id="svg8"
   inkscape:version="0.92.1 r15371"
   sodipodi:docname="upperG.svg">
  <defs
     id="defs2" />
  <sodipodi:namedview
     id="base"
     pagecolor="#ffffff"
     bordercolor="#666666"
     borderopacity="1.0"
     inkscape:pageopacity="0.0"
     inkscape:pageshadow="2"
     inkscape:zoom="0.25"
     inkscape:cx="7.8837292"
     inkscape:cy="62.039054"
     inkscape:document-units="mm"
     inkscape:current-layer="text1005"
     showgrid="false"
     units="px"
     inkscape:window-width="938"
     inkscape:window-height="1051"
     inkscape:window-x="0"
     inkscape:window-y="0"
     inkscape:window-maximized="0" />
  <metadata
     id="metadata5">
    <rdf:RDF>
      <cc:Work
         rdf:about="">
        <dc:format>image/svg+xml</dc:format>
        <dc:type
           rdf:resource="http://purl.org/dc/dcmitype/StillImage" />
        <dc:title></dc:title>
      </cc:Work>
    </rdf:RDF>
  </metadata>
  <g
     inkscape:label="Calque 1"
     inkscape:groupmode="layer"
     id="layer1"
     transform="translate(0,-265.24998)">
    <g
       aria-label="a"
       style="font-style:normal;font-variant:normal;font-weight:normal;font-stretch:normal;font-size:25.39999962px;line-height:1.25;font-family:Kabel;-inkscape-font-specification:Kabel;letter-spacing:0px;word-spacing:0px;fill:#e77936;fill-opacity:1;stroke:#b95c1f;stroke-width:0.5291667;stroke-miterlimit:4;stroke-dasharray:none;stroke-opacity:1"
       id="text817"
       transform="translate(1.7053228,-3.6786133)">
      <g
         aria-label="bcdefghijklmnopqrstuvwxyz

ABCDEFGHIJKLMNOPQRSTUVWXYZ"
         style="font-style:normal;font-variant:normal;font-weight:normal;font-stretch:normal;font-size:25.39999962px;line-height:1.25;font-family:Kabel;-inkscape-font-specification:Kabel;letter-spacing:0px;word-spacing:0px;fill:#e77936;fill-opacity:1;stroke:#b95c1f;stroke-width:0.5291667;stroke-miterlimit:4;stroke-dasharray:none;stroke-opacity:1"
         id="text1005">
        <path
           inkscape:connector-curvature="0"
           d="m 23.279203,276.98855 -3.12539,3.91294 q -2.08359,-2.08359 -4.855531,-2.08359 -0.12402,0 -0.25425,0 -1.39526,0.0248 -2.61689,0.86195 -1.21543,0.83717 -1.95337,2.15802 -0.7379397,1.35185 -0.7379397,2.79672 0,2.56728 1.7053197,4.26641 1.67432,1.73013 4.29121,1.73013 0.713141,0 1.779751,-0.22945 1.0666,-0.22944 1.14102,-0.30385 v -3.05099 h -5.258611 l 1.50069,-4.2168 h 9.016511 v 10.5668 q -0.0992,0.10543 -1.29604,0.63872 -1.22164,0.53331 -3.10059,0.986 -1.87896,0.45888 -3.937751,0.45888 -3.11919,0 -5.6864797,-1.44488 -2.5920901,-1.45106 -4.0369602,-3.93773 -1.4262699,-2.44326 -1.4262699,-5.30821 0,-0.0558 0,-0.10543 0.0496,-2.94554 1.45107,-5.35781 1.3704601,-2.41224 3.83233,-3.86332 2.4370598,-1.42007 5.3888098,-1.44488 0.0744,0 0.14883,0 3.280431,0 5.184191,1.017 1.95337,1.0666 2.84634,1.95337 z"
           style="font-style:normal;font-variant:normal;font-weight:normal;font-stretch:normal;font-size:25.39999962px;line-height:1.25;font-family:Kabel;-inkscape-font-specification:Kabel;letter-spacing:0px;word-spacing:0px;fill:#e16f6f;fill-opacity:1;stroke:#b91f1f;stroke-width:0.52916682;stroke-miterlimit:4;stroke-dasharray:none;stroke-opacity:1"
           id="path1073" />
      </g>
    </g>
  </g>
</svg>
