<!--Created with Inkscape (http://www.inkscape.org/)--><svg xmlns:dc="http://purl.org/dc/elements/1.1/" xmlns:cc="http://creativecommons.org/ns#" xmlns:rdf="http://www.w3.org/1999/02/22-rdf-syntax-ns#" xmlns="http://www.w3.org/2000/svg" xmlns:sodipodi="http://sodipodi.sourceforge.net/DTD/sodipodi-0.dtd" xmlns:inkscape="http://www.inkscape.org/namespaces/inkscape" width="120" height="120" viewBox="0 0 31.75 31.750001" inkscape:version="0.92.1 r15371" sodipodi:docname="upperS.svg"><sodipodi:namedview pagecolor="#ffffff" bordercolor="#666666" borderopacity="1.0" inkscape:pageopacity="0.0" inkscape:pageshadow="2" inkscape:zoom="0.25" inkscape:cx="7.8837292" inkscape:cy="62.039054" inkscape:document-units="mm" inkscape:current-layer="text1005" showgrid="false" units="px" inkscape:window-width="938" inkscape:window-height="1051" inkscape:window-x="0" inkscape:window-y="0" inkscape:window-maximized="0"/><metadata><rdf:RDF><cc:Work><dc:format>image/svg+xml</dc:format><dc:type rdf:resource="http://purl.org/dc/dcmitype/StillImage"/><dc:title/></cc:Work></rdf:RDF></metadata><g style="font-style:normal;font-variant:normal;font-weight:400;font-stretch:normal;font-size:25.39999962px;line-height:1.25;font-family:Kabel;-inkscape-font-specification:Kabel;letter-spacing:0;word-spacing:0;fill:#e77936;fill-opacity:1;stroke:#b95c1f;stroke-width:.5291667;stroke-miterlimit:4;stroke-dasharray:none;stroke-opacity:1" aria-label="a" inkscape:label="Calque 1" inkscape:groupmode="layer"><path inkscape:connector-curvature="0" d="m21.38 276.685-3.025 3.634q0-.13-.379-.534-.409-.384-1.196-.738-.788-.353-1.904-.384h-.18q-.633 0-1.166.31-.608.378-.688 1.042-.025.099-.025.198 0 .614.484.992.558.46 1.5.713.912.28 1.805.534 2.642.787 3.758 2.362 1.091 1.6 1.166 4.087v.304q0 1.705-.838 3.076-.942 1.5-2.616 2.337-1.7.838-3.938.912h-.15q-1.828 0-3.379-.583-1.65-.583-2.691-1.265-1.042-.688-1.271-.918l3.175-3.813q.434.483 1.5 1.172.887.583 2.053.583.254 0 .509-.025 1.09-.106 1.699-.434.614-.329.638-1.296v-.05q0-.738-.762-1.141-.813-.434-2.363-.893-1.575-.428-2.084-.707-.936-.533-1.699-1.197-.762-.632-1.296-1.773-.533-1.067-.533-2.673v-.149q.025-1.755.967-3.224.937-1.476 2.487-2.313 1.525-.813 3.355-.862h.149q4.216 0 6.939 2.716z" style="font-style:normal;font-variant:normal;font-weight:400;font-stretch:normal;font-size:25.39999962px;line-height:1.25;font-family:Kabel;-inkscape-font-specification:Kabel;letter-spacing:0;word-spacing:0;fill:#1b8bd2;fill-opacity:1;stroke:#1f7db9;stroke-width:.52916682;stroke-miterlimit:4;stroke-dasharray:none;stroke-opacity:1" transform="translate(1.705 -268.929)" aria-label="bcdefghijklmnopqrstuvwxyzABCDEFGHIJKLMNOPQRSTUVWXYZ"/></g></svg>