<!--Created with Inkscape (http://www.inkscape.org/)--><svg xmlns:dc="http://purl.org/dc/elements/1.1/" xmlns:cc="http://creativecommons.org/ns#" xmlns:rdf="http://www.w3.org/1999/02/22-rdf-syntax-ns#" xmlns="http://www.w3.org/2000/svg" xmlns:sodipodi="http://sodipodi.sourceforge.net/DTD/sodipodi-0.dtd" xmlns:inkscape="http://www.inkscape.org/namespaces/inkscape" width="100" height="100" sodipodi:version="0.32" inkscape:version="0.92.4 (5da689c313, 2019-01-14)" version="1.0" sodipodi:docname="hands-0.svg"><sodipodi:namedview pagecolor="#ffffff" bordercolor="#666666" borderopacity="1.0" inkscape:pageopacity="0.0" inkscape:pageshadow="2" inkscape:zoom="5.008802" inkscape:cx="45.03875" inkscape:cy="45.284452" inkscape:document-units="px" inkscape:current-layer="layer1" width="100px" height="100px" showguides="true" inkscape:guide-bbox="true" inkscape:window-width="1884" inkscape:window-height="1054" inkscape:window-x="0" inkscape:window-y="0" showgrid="false" inkscape:snap-global="false" inkscape:window-maximized="1"/><metadata><rdf:RDF><cc:Work><dc:format>image/svg+xml</dc:format><dc:type rdf:resource="http://purl.org/dc/dcmitype/StillImage"/><dc:title/><dc:date>2020</dc:date><dc:creator><cc:Agent><dc:title>Timothée Giet</dc:title></cc:Agent></dc:creator><cc:license rdf:resource="http://creativecommons.org/licenses/by-sa/4.0/"/></cc:Work><cc:License rdf:about="http://creativecommons.org/licenses/by-sa/4.0/"><cc:permits rdf:resource="http://creativecommons.org/ns#Reproduction"/><cc:permits rdf:resource="http://creativecommons.org/ns#Distribution"/><cc:requires rdf:resource="http://creativecommons.org/ns#Notice"/><cc:requires rdf:resource="http://creativecommons.org/ns#Attribution"/><cc:permits rdf:resource="http://creativecommons.org/ns#DerivativeWorks"/><cc:requires rdf:resource="http://creativecommons.org/ns#ShareAlike"/></cc:License></rdf:RDF></metadata><g inkscape:label="Calque 1" inkscape:groupmode="layer"><path style="fill:#9e6039;fill-opacity:1;fill-rule:evenodd;stroke:none;stroke-width:.81655335px;stroke-linecap:butt;stroke-linejoin:miter;stroke-opacity:1" d="m40.828 81.6 4.18-20.09c-3.265-1.18-7.706-7.067-8.228-9.048-.716-2.908-.675-4.54.241-9.25.569-.598 3.987-2.04 3.987-2.04.062-6.88-.755-9.193 2.878-9.723 3.634-.53 3.334.64 4.316 6.245.53-5.283 1.846-6.447 3.984-6.156 2.138.29 2.987.646 3.047 6.131 2.278-5.34 2.786-6.434 5.106-5.639 2.32.796 2.846 2.703.96 8.381 2.41-4.693 2.897-4.769 5.36-2.971 2.463 1.797.856 5.252.116 7.067-.349.855-.465 2.785-.959 3.975-.494 1.19-.482 9.361-1.221 10.622-.724.844-3.587 3.417-4.03 3.809-.427.747-.189 18.299-.189 18.299" sodipodi:nodetypes="ccccczczczczszccc" inkscape:connector-curvature="0"/><path style="fill:#efac7f;fill-opacity:1;fill-rule:evenodd;stroke:none;stroke-width:.81655335px;stroke-linecap:butt;stroke-linejoin:miter;stroke-opacity:1" d="m43.27 79.64 3.652-19.033c-4.923-1.924-8.862-7.77-9.42-9.373-.847-2.44 1.314-2.244 2.664-4.234.499-.542 2.461-6.146 2.461-6.146-.281-5.71-2.893-9.304 1.54-8.234 4.432 1.071 1.586 1.994 3.03 6.587l2.515-.315c.232-4.38-1.043-9.713 2.207-7.317 3.25 2.397 1.865 2.314 1.576 7.316.86.321 1.807.367 2.542.481 2.612-3.33 1.926-8.646 4.37-6.935 3.388 2.632 1.078 3.351-.714 8.048.733.577 2.556 1.763 2.686.784 2.103-3.094 1.906-4.536 4.122-2.678 2.037 1.89-.394 3.49-.767 4.39-.372.9-.953 3.371-1.354 4.54-.4 1.167-1 9.43-1.648 10.574-.634.766-3.73 4.07-3.55 3.939-.373.677-1.573 17.562-1.573 17.562" sodipodi:nodetypes="ccscczcczcccccczzccc" inkscape:connector-curvature="0"/><path style="color:#000;font-style:normal;font-variant:normal;font-weight:400;font-stretch:normal;font-size:medium;line-height:normal;font-family:sans-serif;text-indent:0;text-align:start;text-decoration:none;text-decoration-line:none;text-decoration-style:solid;text-decoration-color:#000;letter-spacing:normal;word-spacing:normal;text-transform:none;writing-mode:lr-tb;direction:ltr;baseline-shift:baseline;text-anchor:start;white-space:normal;clip-rule:nonzero;display:inline;overflow:visible;visibility:visible;opacity:1;isolation:auto;mix-blend-mode:normal;color-interpolation:sRGB;color-interpolation-filters:linearRGB;solid-color:#000;solid-opacity:1;fill:#c57743;fill-opacity:1;fill-rule:evenodd;stroke:none;stroke-width:.88242072px;stroke-linecap:butt;stroke-linejoin:miter;stroke-miterlimit:4;stroke-dasharray:none;stroke-dashoffset:0;stroke-opacity:1;color-rendering:auto;image-rendering:auto;shape-rendering:auto;text-rendering:auto;enable-background:accumulate" d="M44.396 42.638c3.081 2.369 11.52 5.32 16.46 6.363 1.972.646.922.194.275-.57-7.25-1.319-12.201-3.62-16.735-5.793z" inkscape:connector-curvature="0" sodipodi:nodetypes="cccc"/><path style="color:#000;font-style:normal;font-variant:normal;font-weight:400;font-stretch:normal;font-size:medium;line-height:normal;font-family:sans-serif;text-indent:0;text-align:start;text-decoration:none;text-decoration-line:none;text-decoration-style:solid;text-decoration-color:#000;letter-spacing:normal;word-spacing:normal;text-transform:none;writing-mode:lr-tb;direction:ltr;baseline-shift:baseline;text-anchor:start;white-space:normal;clip-rule:nonzero;display:inline;overflow:visible;visibility:visible;opacity:1;isolation:auto;mix-blend-mode:normal;color-interpolation:sRGB;color-interpolation-filters:linearRGB;solid-color:#000;solid-opacity:1;fill:#c57743;fill-opacity:1;fill-rule:evenodd;stroke:none;stroke-width:.88242072px;stroke-linecap:butt;stroke-linejoin:miter;stroke-miterlimit:4;stroke-dasharray:none;stroke-dashoffset:0;stroke-opacity:1;color-rendering:auto;image-rendering:auto;shape-rendering:auto;text-rendering:auto;enable-background:accumulate" d="M49.734 43.452c4.11 3.156 7.96 4.219 12.89 3.938.91-.436.823-.825.332-1.197-1.467 1.506-10.266-1.247-13.222-2.741z" inkscape:connector-curvature="0" sodipodi:nodetypes="cccc"/><path style="fill:#9e6039;fill-opacity:1;stroke:none;stroke-width:1px;stroke-linecap:butt;stroke-linejoin:miter;stroke-opacity:1" d="M44.821 46.794c-.05 1.497-1.447 3.094-1.647 3.144-.166.418 2.54-1.07 2.546-3.344.1-1.248-.899.2-.899.2z" inkscape:connector-curvature="0" sodipodi:nodetypes="cccc"/><path style="color:#000;font-style:normal;font-variant:normal;font-weight:400;font-stretch:normal;font-size:medium;line-height:normal;font-family:sans-serif;text-indent:0;text-align:start;text-decoration:none;text-decoration-line:none;text-decoration-style:solid;text-decoration-color:#000;letter-spacing:normal;word-spacing:normal;text-transform:none;writing-mode:lr-tb;direction:ltr;baseline-shift:baseline;text-anchor:start;white-space:normal;clip-rule:nonzero;display:inline;overflow:visible;visibility:visible;opacity:1;isolation:auto;mix-blend-mode:normal;color-interpolation:sRGB;color-interpolation-filters:linearRGB;solid-color:#000;solid-opacity:1;fill:#c57743;fill-opacity:1;fill-rule:evenodd;stroke:none;stroke-width:.88242072px;stroke-linecap:butt;stroke-linejoin:miter;stroke-miterlimit:4;stroke-dasharray:none;stroke-dashoffset:0;stroke-opacity:1;color-rendering:auto;image-rendering:auto;shape-rendering:auto;text-rendering:auto;enable-background:accumulate" d="M44.24 45.435c5.433.966 9.677 3.76 10.837 8.708.224.516.477.747.59-.158.905-2.238-4.984-9.106-11.426-8.55z" inkscape:connector-curvature="0" sodipodi:nodetypes="cccc"/><path style="fill:#9e6039;fill-opacity:1;stroke:none;stroke-width:1px;stroke-linecap:butt;stroke-linejoin:miter;stroke-opacity:1" d="M44.153 30.989c6.619-.283 6.11 14.104 1.766 14.281-4.344.178-8.384-13.998-1.766-14.281z" inkscape:connector-curvature="0" sodipodi:nodetypes="zzz"/><path style="fill:#efac7f;fill-opacity:1;stroke:none;stroke-width:.73092961px;stroke-linecap:butt;stroke-linejoin:miter;stroke-opacity:1" d="M44.423 32.104c4.905-.13 4.31 10.91 1.282 11.282-3.029.371-6.187-11.15-1.282-11.282z" inkscape:connector-curvature="0" sodipodi:nodetypes="zzz"/><path style="fill:#9e6039;fill-opacity:1;stroke:none;stroke-width:1px;stroke-linecap:butt;stroke-linejoin:miter;stroke-opacity:1" d="M52.223 30.207c6.602.552 4.288 14.76-.043 14.39-4.332-.37-6.558-14.941.043-14.39z" inkscape:connector-curvature="0" sodipodi:nodetypes="zzz"/><path style="fill:#efac7f;fill-opacity:1;stroke:none;stroke-width:.73092961px;stroke-linecap:butt;stroke-linejoin:miter;stroke-opacity:1" d="M52.35 31.348c4.884.486 2.905 11.365-.146 11.353-3.051-.013-4.736-11.84.147-11.353z" inkscape:connector-curvature="0" sodipodi:nodetypes="zzz"/><path style="fill:#9e6039;fill-opacity:1;stroke:none;stroke-width:1px;stroke-linecap:butt;stroke-linejoin:miter;stroke-opacity:1" d="M60.494 31.324c6.397 1.72 1.586 15.289-2.61 14.152-4.197-1.138-3.788-15.872 2.61-14.152z" inkscape:connector-curvature="0" sodipodi:nodetypes="zzz"/><path style="fill:#efac7f;fill-opacity:1;stroke:none;stroke-width:.73092961px;stroke-linecap:butt;stroke-linejoin:miter;stroke-opacity:1" d="M60.416 32.469c4.717 1.35.83 11.702-2.17 11.145-3-.557-2.548-12.495 2.17-11.145z" inkscape:connector-curvature="0" sodipodi:nodetypes="zzz"/><path style="fill:#9e6039;fill-opacity:1;stroke:none;stroke-width:.80164284px;stroke-linecap:butt;stroke-linejoin:miter;stroke-opacity:1" d="M66.836 36.013c4.864 2.13-.577 12.308-3.767 10.903-3.19-1.405-1.097-13.035 3.767-10.903z" inkscape:connector-curvature="0" sodipodi:nodetypes="zzz"/><path style="fill:#efac7f;fill-opacity:1;stroke:none;stroke-width:.58594447px;stroke-linecap:butt;stroke-linejoin:miter;stroke-opacity:1" d="M66.637 36.91c3.577 1.637-.746 9.375-3.057 8.574-2.311-.801-.52-10.21 3.057-8.573z" inkscape:connector-curvature="0" sodipodi:nodetypes="zzz"/><path style="fill:#9e6039;fill-opacity:1;stroke:none;stroke-width:1px;stroke-linecap:butt;stroke-linejoin:miter;stroke-opacity:1" d="M37.017 43.19c.992-6.055 15.22-2.97 14.38.55-.841 3.52-15.373 5.506-14.38-.55z" inkscape:connector-curvature="0" sodipodi:nodetypes="zzz"/><path style="fill:#efac7f;fill-opacity:1;stroke:none;stroke-width:.73092961px;stroke-linecap:butt;stroke-linejoin:miter;stroke-opacity:1" d="M38.161 43.103c1.274-4.655 11.75-2.67 11.84.646-.06 1.525-4.058 2.903-6.96 2.994-1.452.045-4.36 4.879-5.383 4.361-1.023-.517.339-6.785.503-8z" inkscape:connector-curvature="0" sodipodi:nodetypes="ccssc"/><ellipse style="opacity:1;vector-effect:none;fill:#f4c2a3;fill-opacity:1;stroke:none;stroke-width:.5;stroke-linecap:butt;stroke-linejoin:miter;stroke-miterlimit:4;stroke-dasharray:none;stroke-dashoffset:0;stroke-opacity:1" cx="47.216877" cy="43.249901" rx="1.2977155" ry="1.6471004"/></g></svg>