<?xml version="1.0" encoding="UTF-8" standalone="no"?>
<!-- Created with Inkscape (http://www.inkscape.org/) -->

<svg
   xmlns:dc="http://purl.org/dc/elements/1.1/"
   xmlns:cc="http://creativecommons.org/ns#"
   xmlns:rdf="http://www.w3.org/1999/02/22-rdf-syntax-ns#"
   xmlns:svg="http://www.w3.org/2000/svg"
   xmlns="http://www.w3.org/2000/svg"
   xmlns:sodipodi="http://sodipodi.sourceforge.net/DTD/sodipodi-0.dtd"
   xmlns:inkscape="http://www.inkscape.org/namespaces/inkscape"
   id="svg2327"
   sodipodi:docname="baby_wordprocessor.svg"
   viewBox="0 0 100 100"
   sodipodi:version="0.32"
   inkscape:output_extension="org.inkscape.output.svg.inkscape"
   inkscape:version="0.91 r13725"
   version="1.1"
   width="100"
   height="100">
  <defs
     id="defs3">
    <linearGradient
       id="linearGradient4554"
       y2="5.0110002"
       gradientUnits="userSpaceOnUse"
       y1="14.911"
       x2="35.257"
       x1="11.503"
       inkscape:collect="always"
       gradientTransform="matrix(2.1018672,0,0,2.1018672,1.8207146,-50.401179)">
      <stop
         id="stop4550"
         style="stop-color:#8c8c8c"
         offset="0" />
      <stop
         id="stop4552"
         style="stop-color:#8c8c8c;stop-opacity:0"
         offset="1" />
    </linearGradient>
  </defs>
  <sodipodi:namedview
     id="base"
     bordercolor="#666666"
     inkscape:pageshadow="2"
     inkscape:window-y="0"
     pagecolor="#ffffff"
     inkscape:window-height="1679"
     inkscape:grid-bbox="true"
     inkscape:zoom="11.313708"
     inkscape:window-x="0"
     showgrid="false"
     borderopacity="0.12156863"
     inkscape:current-layer="layer1"
     inkscape:cx="25.55981"
     inkscape:cy="40.606663"
     inkscape:window-width="3200"
     inkscape:pageopacity="0.0"
     inkscape:document-units="px"
     inkscape:window-maximized="1" />
  <g
     id="layer1"
     inkscape:label="Layer 1"
     inkscape:groupmode="layer"
     transform="translate(0,52)">
    <path
       id="path3995"
       style="fill:none;stroke:url(#linearGradient4554);stroke-width:0.99999994px"
       d="m 23.89032,-9.9402354 c 0.525467,-15.5012706 8.670202,-23.1205396 19.442272,-22.8578056 10.772069,0.262733 12.34847,7.093802 26.536073,7.093802 14.187604,0 14.187604,-9.458403 11.823003,-12.085737 -2.3646,-2.627334 -4.991934,-5.254668 -4.991934,-5.254668"
       inkscape:connector-curvature="0" />
    <path
       id="path3233"
       sodipodi:nodetypes="ccccccccc"
       style="fill:#d8c8c8;fill-rule:evenodd;stroke:#cb883c;stroke-width:0.99999994;fill-opacity:1;stroke-opacity:1"
       d="m 5.2362488,35.186853 c -0.6568335,1.96945 0.3941001,3.283117 2.3646006,3.415535 l 83.5492216,0 c 3.022485,0.130315 4.203734,-1.839134 3.941001,-3.415535 L 87.471803,-5.4422396 c -0.395151,-2.627334 -2.627334,-4.0713168 -4.729201,-3.941001 l -64.632417,0 c -2.101867,-0.1303158 -3.284167,1.708818 -3.678267,3.6782676 L 5.2362488,35.186853 Z"
       inkscape:connector-curvature="0" />
    <g
       id="g4019"
       transform="matrix(2.1018672,0,0,2.1018672,-2.2516531,-52.503046)">
      <rect
         id="rect4017"
         style="color:#000000;fill:#6d6d6d;fill-rule:evenodd"
         rx="0.6875"
         ry="0.6875"
         height="2.9375"
         width="13.938"
         y="35.125"
         x="11.188" />
      <rect
         id="rect3235"
         style="color:#000000;fill:#e4e4e4;fill-rule:evenodd"
         rx="0.6875"
         ry="0.6875"
         height="1.875"
         width="13.438"
         y="35.062"
         x="11.312" />
    </g>
    <g
       id="g4157"
       transform="matrix(0.4901134,0,0,2.1018672,12.137309,-74.684051)">
      <rect
         id="rect4159"
         style="color:#000000;fill:#6d6d6d;fill-rule:evenodd"
         rx="2.9482999"
         ry="0.6875"
         height="2.9375"
         width="13.938"
         y="35.125"
         x="11.188" />
      <rect
         id="rect4161"
         style="color:#000000;fill:#e4e4e4;fill-rule:evenodd"
         rx="2.9482999"
         ry="0.6875"
         height="1.875"
         width="13.438"
         y="35.062"
         x="11.312" />
    </g>
    <g
       id="g4178"
       transform="matrix(0.4901134,0,0,2.1018672,45.533247,-74.684051)">
      <rect
         id="rect4180"
         style="color:#000000;fill:#6d6d6d;fill-rule:evenodd"
         rx="2.9482999"
         ry="0.6875"
         height="2.9375"
         width="13.938"
         y="35.125"
         x="11.188" />
      <rect
         id="rect4182"
         style="color:#000000;fill:#e4e4e4;fill-rule:evenodd"
         rx="2.9482999"
         ry="0.6875"
         height="1.875"
         width="13.438"
         y="35.062"
         x="11.312" />
    </g>
    <g
       id="g4151"
       transform="matrix(0.4901134,0,0,2.1018672,20.311471,-74.684051)">
      <rect
         id="rect4153"
         style="color:#000000;fill:#6d6d6d;fill-rule:evenodd"
         rx="2.9482999"
         ry="0.6875"
         height="2.9375"
         width="13.938"
         y="35.125"
         x="11.188" />
      <rect
         id="rect4155"
         style="color:#000000;fill:#e4e4e4;fill-rule:evenodd"
         rx="2.9482999"
         ry="0.6875"
         height="1.875"
         width="13.438"
         y="35.062"
         x="11.312" />
    </g>
    <path
       id="path4005"
       sodipodi:nodetypes="ccccccccc"
       style="fill:none;stroke:#eef09f;stroke-width:0.99999994;fill-opacity:1;stroke-opacity:1"
       d="m 7.5293859,34.098086 c -0.7005523,2.612621 -0.8218301,2.299443 1.9671375,2.299443 l 79.3118566,0 c 3.451266,0 4.622006,0.565402 3.848519,-2.43186 L 85.603033,-4.185323 c -0.563301,-2.9489197 -1.41876,-3.1254765 -4.722896,-3.1254765 l -60.947843,0 c -2.970569,0 -2.834368,0.1660475 -3.468711,2.8122983 L 7.5291757,34.098086 Z"
       inkscape:connector-curvature="0" />
    <g
       id="g4023"
       transform="matrix(0.4901134,0,0,2.1018672,46.125974,-52.503046)">
      <rect
         id="rect4025"
         style="color:#000000;fill:#6d6d6d;fill-rule:evenodd"
         rx="2.9482999"
         ry="0.6875"
         height="2.9375"
         width="13.938"
         y="35.125"
         x="11.188" />
      <rect
         id="rect4027"
         style="color:#000000;fill:#e4e4e4;fill-rule:evenodd"
         rx="2.9482999"
         ry="0.6875"
         height="1.875"
         width="13.438"
         y="35.062"
         x="11.312" />
    </g>
    <g
       id="g4029"
       transform="matrix(0.4901134,0,0,2.1018672,7.6348997,-52.503046)">
      <rect
         id="rect4031"
         style="color:#000000;fill:#6d6d6d;fill-rule:evenodd"
         rx="2.9482999"
         ry="0.6875"
         height="2.9375"
         width="13.938"
         y="35.125"
         x="11.188" />
      <rect
         id="rect4033"
         style="color:#000000;fill:#e4e4e4;fill-rule:evenodd"
         rx="2.9482999"
         ry="0.6875"
         height="1.875"
         width="13.438"
         y="35.062"
         x="11.312" />
    </g>
    <g
       id="g4035"
       transform="matrix(0.4901134,0,0,2.1018672,58.474444,-52.503046)">
      <rect
         id="rect4037"
         style="color:#000000;fill:#6d6d6d;fill-rule:evenodd"
         rx="2.9482999"
         ry="0.6875"
         height="2.9375"
         width="13.938"
         y="35.125"
         x="11.188" />
      <rect
         id="rect4039"
         style="color:#000000;fill:#e4e4e4;fill-rule:evenodd"
         rx="2.9482999"
         ry="0.6875"
         height="1.875"
         width="13.438"
         y="35.062"
         x="11.312" />
    </g>
    <g
       id="g4053"
       transform="matrix(0.4901134,0,0,2.1018672,65.830979,-58.808648)">
      <rect
         id="rect4055"
         style="color:#000000;fill:#6d6d6d;fill-rule:evenodd"
         rx="2.9482999"
         ry="0.6875"
         height="2.9375"
         width="13.938"
         y="35.125"
         x="11.188" />
      <rect
         id="rect4057"
         style="color:#000000;fill:#e4e4e4;fill-rule:evenodd"
         rx="2.9482999"
         ry="0.6875"
         height="1.875"
         width="13.438"
         y="35.062"
         x="11.312" />
    </g>
    <g
       id="g4041"
       transform="matrix(0.4901134,0,0,2.1018672,66.356446,-52.503046)">
      <rect
         id="rect4043"
         style="color:#000000;fill:#6d6d6d;fill-rule:evenodd"
         rx="2.9482999"
         ry="0.6875"
         height="2.9375"
         width="13.938"
         y="35.125"
         x="11.188" />
      <rect
         id="rect4045"
         style="color:#000000;fill:#e4e4e4;fill-rule:evenodd"
         rx="2.9482999"
         ry="0.6875"
         height="1.875"
         width="13.438"
         y="35.062"
         x="11.312" />
    </g>
    <g
       id="g4047"
       transform="matrix(0.4901134,0,0,2.1018672,74.10603,-52.503046)">
      <rect
         id="rect4049"
         style="color:#000000;fill:#6d6d6d;fill-rule:evenodd"
         rx="2.9482999"
         ry="0.6875"
         height="2.9375"
         width="13.938"
         y="35.125"
         x="11.188" />
      <rect
         id="rect4051"
         style="color:#000000;fill:#e4e4e4;fill-rule:evenodd"
         rx="2.9482999"
         ry="0.6875"
         height="1.875"
         width="13.438"
         y="35.062"
         x="11.312" />
    </g>
    <g
       id="g4085"
       transform="matrix(0.4901134,0,0,2.1018672,9.6056104,-61.038098)">
      <rect
         id="rect4087"
         style="color:#000000;fill:#6d6d6d;fill-rule:evenodd"
         rx="2.9482999"
         ry="0.6875"
         height="2.9375"
         width="13.938"
         y="35.125"
         x="11.188" />
      <rect
         id="rect4089"
         style="color:#000000;fill:#e4e4e4;fill-rule:evenodd"
         rx="2.9482999"
         ry="0.6875"
         height="1.875"
         width="13.438"
         y="35.062"
         x="11.312" />
    </g>
    <g
       id="g4091"
       transform="matrix(0.4901134,0,0,2.1018672,18.013079,-61.038098)">
      <rect
         id="rect4093"
         style="color:#000000;fill:#6d6d6d;fill-rule:evenodd"
         rx="2.9482999"
         ry="0.6875"
         height="2.9375"
         width="13.938"
         y="35.125"
         x="11.188" />
      <rect
         id="rect4095"
         style="color:#000000;fill:#e4e4e4;fill-rule:evenodd"
         rx="2.9482999"
         ry="0.6875"
         height="1.875"
         width="13.438"
         y="35.062"
         x="11.312" />
    </g>
    <g
       id="g4097"
       transform="matrix(0.4901134,0,0,2.1018672,26.420969,-61.038098)">
      <rect
         id="rect4099"
         style="color:#000000;fill:#6d6d6d;fill-rule:evenodd"
         rx="2.9482999"
         ry="0.6875"
         height="2.9375"
         width="13.938"
         y="35.125"
         x="11.188" />
      <rect
         id="rect4101"
         style="color:#000000;fill:#e4e4e4;fill-rule:evenodd"
         rx="2.9482999"
         ry="0.6875"
         height="1.875"
         width="13.438"
         y="35.062"
         x="11.312" />
    </g>
    <g
       id="g4103"
       transform="matrix(0.4901134,0,0,2.1018672,34.828437,-61.038098)">
      <rect
         id="rect4105"
         style="color:#000000;fill:#6d6d6d;fill-rule:evenodd"
         rx="2.9482999"
         ry="0.6875"
         height="2.9375"
         width="13.938"
         y="35.125"
         x="11.188" />
      <rect
         id="rect4107"
         style="color:#000000;fill:#e4e4e4;fill-rule:evenodd"
         rx="2.9482999"
         ry="0.6875"
         height="1.875"
         width="13.438"
         y="35.062"
         x="11.312" />
    </g>
    <g
       id="g4121"
       transform="matrix(0.4901134,0,0,2.1018672,47.439641,-67.656878)">
      <rect
         id="rect4123"
         style="color:#000000;fill:#6d6d6d;fill-rule:evenodd"
         rx="2.9482999"
         ry="0.6875"
         height="2.9375"
         width="13.938"
         y="35.125"
         x="11.188" />
      <rect
         id="rect4125"
         style="color:#000000;fill:#e4e4e4;fill-rule:evenodd"
         rx="2.9482999"
         ry="0.6875"
         height="1.875"
         width="13.438"
         y="35.062"
         x="11.312" />
    </g>
    <g
       id="g4109"
       transform="matrix(0.4901134,0,0,2.1018672,43.235906,-61.038098)">
      <rect
         id="rect4111"
         style="color:#000000;fill:#6d6d6d;fill-rule:evenodd"
         rx="2.9482999"
         ry="0.6875"
         height="2.9375"
         width="13.938"
         y="35.125"
         x="11.188" />
      <rect
         id="rect4113"
         style="color:#000000;fill:#e4e4e4;fill-rule:evenodd"
         rx="2.9482999"
         ry="0.6875"
         height="1.875"
         width="13.438"
         y="35.062"
         x="11.312" />
    </g>
    <g
       id="g4115"
       transform="matrix(0.4901134,0,0,2.1018672,51.643375,-61.038098)">
      <rect
         id="rect4117"
         style="color:#000000;fill:#6d6d6d;fill-rule:evenodd"
         rx="2.9482999"
         ry="0.6875"
         height="2.9375"
         width="13.938"
         y="35.125"
         x="11.188" />
      <rect
         id="rect4119"
         style="color:#000000;fill:#e4e4e4;fill-rule:evenodd"
         rx="2.9482999"
         ry="0.6875"
         height="1.875"
         width="13.438"
         y="35.062"
         x="11.312" />
    </g>
    <g
       id="g4172"
       transform="matrix(0.4901134,0,0,2.1018672,37.125778,-74.684051)">
      <rect
         id="rect4174"
         style="color:#000000;fill:#6d6d6d;fill-rule:evenodd"
         rx="2.9482999"
         ry="0.6875"
         height="2.9375"
         width="13.938"
         y="35.125"
         x="11.188" />
      <rect
         id="rect4176"
         style="color:#000000;fill:#e4e4e4;fill-rule:evenodd"
         rx="2.9482999"
         ry="0.6875"
         height="1.875"
         width="13.438"
         y="35.062"
         x="11.312" />
    </g>
    <g
       id="g4127"
       transform="matrix(0.4901134,0,0,2.1018672,39.032172,-67.656878)">
      <rect
         id="rect4129"
         style="color:#000000;fill:#6d6d6d;fill-rule:evenodd"
         rx="2.9482999"
         ry="0.6875"
         height="2.9375"
         width="13.938"
         y="35.125"
         x="11.188" />
      <rect
         id="rect4131"
         style="color:#000000;fill:#e4e4e4;fill-rule:evenodd"
         rx="2.9482999"
         ry="0.6875"
         height="1.875"
         width="13.438"
         y="35.062"
         x="11.312" />
    </g>
    <g
       id="g4166"
       transform="matrix(0.4901134,0,0,2.1018672,28.718309,-74.684051)">
      <rect
         id="rect4168"
         style="color:#000000;fill:#6d6d6d;fill-rule:evenodd"
         rx="2.9482999"
         ry="0.6875"
         height="2.9375"
         width="13.938"
         y="35.125"
         x="11.188" />
      <rect
         id="rect4170"
         style="color:#000000;fill:#e4e4e4;fill-rule:evenodd"
         rx="2.9482999"
         ry="0.6875"
         height="1.875"
         width="13.438"
         y="35.062"
         x="11.312" />
    </g>
    <g
       id="g4133"
       transform="matrix(0.4901134,0,0,2.1018672,30.624703,-67.656878)">
      <rect
         id="rect4135"
         style="color:#000000;fill:#6d6d6d;fill-rule:evenodd"
         rx="2.9482999"
         ry="0.6875"
         height="2.9375"
         width="13.938"
         y="35.125"
         x="11.188" />
      <rect
         id="rect4137"
         style="color:#000000;fill:#e4e4e4;fill-rule:evenodd"
         rx="2.9482999"
         ry="0.6875"
         height="1.875"
         width="13.438"
         y="35.062"
         x="11.312" />
    </g>
    <g
       id="g4139"
       transform="matrix(0.4901134,0,0,2.1018672,22.216814,-67.656878)">
      <rect
         id="rect4141"
         style="color:#000000;fill:#6d6d6d;fill-rule:evenodd"
         rx="2.9482999"
         ry="0.6875"
         height="2.9375"
         width="13.938"
         y="35.125"
         x="11.188" />
      <rect
         id="rect4143"
         style="color:#000000;fill:#e4e4e4;fill-rule:evenodd"
         rx="2.9482999"
         ry="0.6875"
         height="1.875"
         width="13.438"
         y="35.062"
         x="11.312" />
    </g>
    <g
       id="g4145"
       transform="matrix(0.4901134,0,0,2.1018672,13.809345,-67.656878)">
      <rect
         id="rect4147"
         style="color:#000000;fill:#6d6d6d;fill-rule:evenodd"
         rx="2.9482999"
         ry="0.6875"
         height="2.9375"
         width="13.938"
         y="35.125"
         x="11.188" />
      <rect
         id="rect4149"
         style="color:#000000;fill:#e4e4e4;fill-rule:evenodd"
         rx="2.9482999"
         ry="0.6875"
         height="1.875"
         width="13.438"
         y="35.062"
         x="11.312" />
    </g>
    <g
       id="g4220"
       transform="matrix(0.4901134,0,0,2.1018672,61.999275,-67.471073)">
      <rect
         id="rect4222"
         style="color:#000000;fill:#6d6d6d;fill-rule:evenodd"
         rx="2.9482999"
         ry="0.6875"
         height="2.9375"
         width="13.938"
         y="35.125"
         x="11.188" />
      <rect
         id="rect4224"
         style="color:#000000;fill:#e4e4e4;fill-rule:evenodd"
         rx="2.9482999"
         ry="0.6875"
         height="1.875"
         width="13.438"
         y="35.062"
         x="11.312" />
    </g>
    <g
       id="g4226"
       transform="matrix(0.4901134,0,0,2.1018672,70.406744,-67.471073)">
      <rect
         id="rect4228"
         style="color:#000000;fill:#6d6d6d;fill-rule:evenodd"
         rx="2.9482999"
         ry="0.6875"
         height="2.9375"
         width="13.938"
         y="35.125"
         x="11.188" />
      <rect
         id="rect4230"
         style="color:#000000;fill:#e4e4e4;fill-rule:evenodd"
         rx="2.9482999"
         ry="0.6875"
         height="1.875"
         width="13.438"
         y="35.062"
         x="11.312" />
    </g>
    <g
       id="g4264"
       transform="matrix(2.1018672,0,0,3.0477075,3.6093195,-69.934041)">
      <rect
         id="rect4254"
         style="color:#000000;fill:#787843;fill-rule:evenodd"
         rx="2.9482999"
         ry="0.47413999"
         height="1.5026"
         width="2.4749"
         y="21.572001"
         x="29.521999" />
      <rect
         id="rect4256"
         style="color:#000000;fill:#787843;fill-rule:evenodd"
         rx="2.9482999"
         ry="0.47413999"
         height="1.5026"
         width="2.4749"
         y="21.572001"
         x="33.521999" />
      <rect
         id="rect4250"
         style="color:#000000;fill:#e7e745;fill-rule:evenodd"
         rx="2.9482999"
         ry="0.47413999"
         height="1.5026"
         width="2.4749"
         y="21.837"
         x="29.787001" />
      <rect
         id="rect4252"
         style="color:#000000;fill:#e7e745;fill-rule:evenodd"
         rx="2.9482999"
         ry="0.47413999"
         height="1.5026"
         width="2.4749"
         y="21.837"
         x="33.786999" />
    </g>
  </g>
  <metadata
     id="metadata111">
    <rdf:RDF>
      <cc:Work>
        <dc:format>image/svg+xml</dc:format>
        <dc:type
           rdf:resource="http://purl.org/dc/dcmitype/StillImage" />
        <cc:license
           rdf:resource="http://creativecommons.org/publicdomain/zero/1.0/" />
        <dc:publisher>
          <cc:Agent
             rdf:about="http://openclipart.org/">
            <dc:title>Openclipart</dc:title>
          </cc:Agent>
        </dc:publisher>
        <dc:title>tango input keyboard</dc:title>
        <dc:date>2010-03-27T10:17:43</dc:date>
        <dc:description>&quot;Keyboard&quot; icon from &lt;a href=&quot;http://tango.freedesktop.org/Tango_Desktop_Project&quot;&gt; Tango Project &lt;/a&gt; \n&lt;br&gt;&lt;br&gt;\nSince version 0.8.90 Tango Project icons are Public Domain: &lt;a href=&quot;http://tango.freedesktop.org/Frequently_Asked_Questions#Terms_of_Use.3F&quot;&gt; Tango Project FAQ &lt;/a&gt;</dc:description>
        <dc:source>https://openclipart.org/detail/34561/tango-input-keyboard-by-warszawianka</dc:source>
        <dc:creator>
          <cc:Agent>
            <dc:title>warszawianka</dc:title>
          </cc:Agent>
        </dc:creator>
        <dc:subject>
          <rdf:Bag>
            <rdf:li>device</rdf:li>
            <rdf:li>externalsource</rdf:li>
            <rdf:li>hardware</rdf:li>
            <rdf:li>icon</rdf:li>
            <rdf:li>input</rdf:li>
            <rdf:li>keyboard</rdf:li>
            <rdf:li>tango</rdf:li>
          </rdf:Bag>
        </dc:subject>
      </cc:Work>
      <cc:License
         rdf:about="http://creativecommons.org/publicdomain/zero/1.0/">
        <cc:permits
           rdf:resource="http://creativecommons.org/ns#Reproduction" />
        <cc:permits
           rdf:resource="http://creativecommons.org/ns#Distribution" />
        <cc:permits
           rdf:resource="http://creativecommons.org/ns#DerivativeWorks" />
      </cc:License>
    </rdf:RDF>
  </metadata>
</svg>
