<?xml version="1.0" encoding="UTF-8" standalone="no"?>
<!-- Created with Sodipodi ("http://www.sodipodi.com/") -->

<svg
   xmlns:dc="http://purl.org/dc/elements/1.1/"
   xmlns:cc="http://creativecommons.org/ns#"
   xmlns:rdf="http://www.w3.org/1999/02/22-rdf-syntax-ns#"
   xmlns:svg="http://www.w3.org/2000/svg"
   xmlns="http://www.w3.org/2000/svg"
   xmlns:sodipodi="http://sodipodi.sourceforge.net/DTD/sodipodi-0.dtd"
   xmlns:inkscape="http://www.inkscape.org/namespaces/inkscape"
   id="svg621"
   sodipodi:version="0.32"
   width="400"
   height="610.55719"
   xml:space="preserve"
   sodipodi:docname="banane.svg"
   inkscape:version="0.91 r13725"
   inkscape:output_extension="org.inkscape.output.svg.inkscape"
   version="1.0"
   sodipodi:modified="true"><metadata
     id="metadata13"><rdf:RDF><cc:Work
         rdf:about=""><dc:format>image/svg+xml</dc:format><dc:type
           rdf:resource="http://purl.org/dc/dcmitype/StillImage" /></cc:Work></rdf:RDF></metadata><defs
     id="defs623" /><sodipodi:namedview
     id="base"
     inkscape:zoom="0.37724655"
     inkscape:cx="372.04724"
     inkscape:cy="110.06351"
     inkscape:window-width="822"
     inkscape:window-height="592"
     inkscape:window-x="9"
     inkscape:window-y="75"
     inkscape:current-layer="svg621"
     showgrid="false"
     inkscape:window-maximized="0" /><g
     id="g1311"
     transform="translate(-249.3668,-117.74429)"><path
       sodipodi:nodetypes="ccccc"
       id="path625"
       d="m 457.3949,437.6491 c 0,158.6777 -71.2014,290.6524 -109.9483,290.6524 -38.7469,0 19.8954,-121.9521 19.8954,-280.6299 0,-158.6779 -58.6423,-293.9933 -19.8954,-293.9933 38.7469,0 109.9483,125.293 109.9483,283.9708 z"
       style="font-size:12px;fill:#ffc600;fill-opacity:1;fill-rule:evenodd;stroke-width:1"
       transform="matrix(1.595238,0,0,1,-165.053,-3.051758e-5)"
       inkscape:connector-curvature="0" /><path
       sodipodi:nodetypes="ccccc"
       id="path626"
       d="m 564.6008,437.6491 c 0,161.2045 -118.586,289.389 -176.8549,288.1256 -41.8449,0 127.6102,-152.2732 127.6102,-310.951 0,-158.6784 -165.6649,-261.1454 -123.82,-261.1454 41.8449,0 174.3281,108.869 173.0647,283.9708 z"
       style="font-size:12px;fill:#ffb200;fill-opacity:1;fill-rule:evenodd;stroke-width:1"
       inkscape:connector-curvature="0" /><path
       transform="matrix(0.623184,0.290176,-0.236055,0.766064,309.8916,50.71767)"
       sodipodi:ry="9.4753723"
       sodipodi:rx="15.792297"
       sodipodi:cy="720.72424"
       sodipodi:cx="391.01697"
       d="m 406.80927,720.72424 a 15.792297,9.4753723 0 0 1 -15.7923,9.47538 15.792297,9.4753723 0 0 1 -15.7923,-9.47538 15.792297,9.4753723 0 0 1 15.7923,-9.47537 15.792297,9.4753723 0 0 1 15.7923,9.47537 z"
       id="path627"
       style="fill:#5d2b1a;fill-opacity:1;fill-rule:evenodd;stroke:none"
       sodipodi:type="arc" /><path
       sodipodi:nodetypes="ccccccccc"
       id="path629"
       d="m 247.9632,286.1463 c -6.5936,0 -11.9019,5.3083 -11.9019,11.9019 l 6.5438,25.2982 c -1.3888,6.3355 11.8876,-10.6834 19.0565,22.2209 8.1658,0.6532 15.4173,-0.7312 22.4033,-5.3257 0.9808,-5.3813 -12.9067,-11.2935 -12.9067,-17.8871 l 9.0257,-25.6803 c 0,-6.5935 -5.3082,-11.9018 -11.9019,-11.9018 l -20.3188,1.3739 z"
       style="font-size:12px;fill:#ffb000;fill-opacity:1;fill-rule:evenodd"
       transform="matrix(0.874933,-0.484243,0.484243,0.874933,0,0)"
       inkscape:connector-curvature="0" /><path
       sodipodi:nodetypes="ccccc"
       id="path631"
       d="m 371.1856,134.0017 c -4.2878,4.697 -9.8529,4.824 -18.5593,3.623 -7.9555,1.45 -10.8107,2.3199 -14.4945,-3.623 -5.0265,-12.8786 6.7972,-10.3436 16.5288,-7.6624 9.9971,-2.9683 22.9538,-2.6499 16.525,7.6624 z"
       style="font-size:12px;fill:#6b5700;fill-opacity:1;fill-rule:evenodd;stroke-width:1"
       transform="matrix(0.705144,-0.487505,0.507514,0.609602,50.63559,224.5417)"
       inkscape:connector-curvature="0" /><path
       sodipodi:nodetypes="cccccc"
       id="path633"
       d="m 528.7479,287.1447 c 12.6686,46.3262 27.268,63.2112 10.4801,64.6762 -10.6525,-14.6544 -19.0242,-17.4435 -25.7331,-21.0048 -17.5371,-8.0176 -23.3708,-25.6451 -12.4926,-37.1751 -3.6507,-50.8693 -42.5356,-75.8484 -25.7478,-77.3134 16.7878,-1.4651 48.2388,58.6352 53.4934,70.8171 z"
       style="font-size:12px;fill:#7d6800;fill-opacity:1;fill-rule:evenodd;stroke-width:1"
       inkscape:connector-curvature="0" /><path
       sodipodi:nodetypes="ccsccsc"
       id="path635"
       d="m 519.4326,543.8914 c -10.7118,27.3157 -43.6935,97.6166 -64.1918,89.5238 -4.8256,-2.8637 15.2767,-21.672 7.2084,-29.6152 -5.9187,-5.5947 8.7124,-30.2397 14.0683,-43.8975 8.3622,-13.4654 5.1419,-0.778 21.3983,-20.9548 5.0057,1.6693 14.4783,-13.9779 19.4964,-13.2447 5.0179,0.7333 7.3763,4.5306 2.0204,18.1884 z"
       style="font-size:12px;fill:#806800;fill-opacity:1;fill-rule:evenodd;stroke-width:1"
       inkscape:connector-curvature="0" /><path
       sodipodi:nodetypes="ccccc"
       id="path637"
       d="m 435.3148,400.7159 c 0,38.9306 -11.3318,99.6584 -17.6779,99.6584 2.4929,-21.2134 3.0937,-34.2112 3.0937,-73.1417 -1.3259,-31.8594 -6.346,-51.0446 -7.955,-68.2804 6.3461,0 20.3294,16.9756 22.5392,41.7637 z"
       style="font-size:12px;fill:#896c00;fill-opacity:1;fill-rule:evenodd;stroke-width:1"
       inkscape:connector-curvature="0" /></g></svg>