<?xml version="1.0" encoding="UTF-8" standalone="no"?>
<!-- Created with Sodipodi ("http://www.sodipodi.com/") -->

<svg
   xmlns:dc="http://purl.org/dc/elements/1.1/"
   xmlns:cc="http://creativecommons.org/ns#"
   xmlns:rdf="http://www.w3.org/1999/02/22-rdf-syntax-ns#"
   xmlns:svg="http://www.w3.org/2000/svg"
   xmlns="http://www.w3.org/2000/svg"
   xmlns:xlink="http://www.w3.org/1999/xlink"
   xmlns:sodipodi="http://sodipodi.sourceforge.net/DTD/sodipodi-0.dtd"
   xmlns:inkscape="http://www.inkscape.org/namespaces/inkscape"
   id="svg699"
   sodipodi:version="0.32"
   width="503.34711"
   height="500.98511"
   xml:space="preserve"
   sodipodi:docname="c1e.svg"
   inkscape:version="0.91 r13725"
   inkscape:output_extension="org.inkscape.output.svg.inkscape"
   sodipodi:modified="true"
   version="1.0"><metadata
     id="metadata32"><rdf:RDF><cc:Work
         rdf:about=""><dc:format>image/svg+xml</dc:format><dc:type
           rdf:resource="http://purl.org/dc/dcmitype/StillImage" /></cc:Work></rdf:RDF></metadata><defs
     id="defs701"><linearGradient
       id="linearGradient651"><stop
         style="stop-color:#c78a00;stop-opacity:1;"
         offset="0"
         id="stop652" /><stop
         style="stop-color:#ffe56a;stop-opacity:1;"
         offset="1"
         id="stop653" /></linearGradient><linearGradient
       id="linearGradient834"><stop
         style="stop-color:#191919;stop-opacity:1;"
         offset="0"
         id="stop835" /><stop
         style="stop-color:#e6e6e6;stop-opacity:1;"
         offset="1"
         id="stop836" /></linearGradient><linearGradient
       inkscape:collect="always"
       xlink:href="#linearGradient651"
       id="linearGradient2200"
       gradientTransform="scale(1.0023546,0.9976509)"
       spreadMethod="reflect"
       x1="101.80905"
       y1="739.47278"
       x2="503.54039"
       y2="472.69859"
       gradientUnits="userSpaceOnUse" /><linearGradient
       inkscape:collect="always"
       xlink:href="#linearGradient651"
       id="linearGradient2202"
       spreadMethod="reflect"
       x1="606.97739"
       y1="308.21331"
       x2="287.83704"
       y2="423.25226"
       gradientUnits="userSpaceOnUse" /><linearGradient
       inkscape:collect="always"
       xlink:href="#linearGradient834"
       id="linearGradient2204"
       x1="617.6757"
       y1="76.381846"
       x2="269.76705"
       y2="279.5849"
       gradientTransform="scale(1.0257553,0.9748914)"
       gradientUnits="userSpaceOnUse" /><linearGradient
       inkscape:collect="always"
       xlink:href="#linearGradient834"
       id="linearGradient2206"
       spreadMethod="pad"
       x1="793.34177"
       y1="352.44251"
       x2="107.85096"
       y2="349.3007"
       gradientTransform="scale(0.7156919,1.3972492)"
       gradientUnits="userSpaceOnUse" /><linearGradient
       inkscape:collect="always"
       xlink:href="#linearGradient834"
       id="linearGradient2208"
       x1="286.0667"
       y1="307.05434"
       x2="461.85029"
       y2="147.59049"
       gradientTransform="scale(0.9767462,1.0238074)"
       gradientUnits="userSpaceOnUse" /><linearGradient
       inkscape:collect="always"
       xlink:href="#linearGradient834"
       id="linearGradient2210"
       x1="382.07346"
       y1="269.31339"
       x2="533.91029"
       y2="131.57308"
       gradientTransform="scale(0.8819901,1.1337996)"
       gradientUnits="userSpaceOnUse" /><linearGradient
       inkscape:collect="always"
       xlink:href="#linearGradient834"
       id="linearGradient2212"
       x1="572.36365"
       y1="204.5671"
       x2="631.6621"
       y2="150.77391"
       gradientTransform="scale(0.935494,1.0689539)"
       gradientUnits="userSpaceOnUse" /><linearGradient
       inkscape:collect="always"
       xlink:href="#linearGradient834"
       id="linearGradient2214"
       x1="763.86779"
       y1="158.54136"
       x2="806.98456"
       y2="119.42756"
       gradientTransform="scale(0.6957958,1.4372033)"
       gradientUnits="userSpaceOnUse" /><linearGradient
       inkscape:collect="always"
       xlink:href="#linearGradient834"
       id="linearGradient2216"
       x1="266.82405"
       y1="418.96704"
       x2="342.59325"
       y2="350.23224"
       gradientTransform="scale(1.6403562,0.6096237)"
       gradientUnits="userSpaceOnUse" /><linearGradient
       inkscape:collect="always"
       xlink:href="#linearGradient834"
       id="linearGradient2218"
       x1="578.59924"
       y1="267.88094"
       x2="622.33321"
       y2="228.20723"
       gradientTransform="scale(1.0295592,0.9712894)"
       gradientUnits="userSpaceOnUse" /><linearGradient
       inkscape:collect="always"
       xlink:href="#linearGradient834"
       id="linearGradient2220"
       x1="459.52561"
       y1="275.18938"
       x2="506.24941"
       y2="232.80342"
       gradientTransform="scale(1.0716088,0.9331764)"
       gradientUnits="userSpaceOnUse" /><linearGradient
       inkscape:collect="always"
       xlink:href="#linearGradient834"
       id="linearGradient2222"
       x1="898.9716"
       y1="153.9525"
       x2="942.47288"
       y2="114.48987"
       gradientTransform="scale(0.6819639,1.4663532)"
       gradientUnits="userSpaceOnUse" /><linearGradient
       inkscape:collect="always"
       xlink:href="#linearGradient651"
       id="linearGradient2226"
       gradientTransform="scale(4.7399352,0.2109733)"
       x1="52.618559"
       y1="3075.7264"
       x2="52.572449"
       y2="3055.5108"
       gradientUnits="userSpaceOnUse" /></defs><sodipodi:namedview
     id="base"
     inkscape:zoom="0.36014217"
     inkscape:cx="-258.25939"
     inkscape:cy="526.18109"
     inkscape:window-width="1366"
     inkscape:window-height="748"
     inkscape:window-x="-2"
     inkscape:window-y="-3"
     inkscape:current-layer="g2184"
     showgrid="false"
     inkscape:window-maximized="1" /><g
     id="g2184"
     transform="translate(-152.3835,-268.0627)"><path
       sodipodi:nodetypes="ccccccc"
       id="path687"
       d="M 655.7306,518.5551 C 655.7306,656.8984 543.0531,769.0478 404.0571,769.0478 C 265.0618,769.0478 152.3835,656.8984 152.3835,518.5551 C 152.3835,380.2119 265.0618,268.0627 404.0571,268.0627 C 543.0531,268.0627 655.7306,380.2119 655.7306,518.5551 z M 396.9986,636.0575 L 396.9986,636.0575 z "
       style="font-size:48px;font-style:italic;font-weight:bold;fill:url(#linearGradient2200);fill-opacity:1;stroke-width:1;font-family:Luxi Serif" /><path
       sodipodi:nodetypes="cccccccccccccccccccccccc"
       id="path665"
       d="M 640.3757,519.7365 C 640.3757,650.9041 534.0437,757.2364 402.8758,757.2364 C 271.7086,757.2364 165.3762,650.9041 165.3762,519.7365 C 165.3762,388.569 271.7086,282.2368 402.8758,282.2368 C 534.0437,282.2368 640.3757,388.569 640.3757,519.7365 z M 216.9033,648.3585 L 391.8088,648.3585 L 396.2148,631.1442 L 369.3399,629.2315 C 349.0737,628.0838 345.1086,626.5537 345.1086,619.2854 C 345.1086,613.9298 346.4303,603.6012 348.6331,594.0376 L 400.6198,369.4857 L 275.0583,395.4985 L 271.0931,413.8605 L 287.3942,411.1827 C 298.4084,409.6526 309.8631,408.1224 312.9471,408.1224 C 319.9962,408.1224 323.9613,410.0351 325.283,414.2431 L 323.5208,420.7463 L 320.4368,439.8734 L 285.1913,594.0376 C 275.4988,626.9362 274.6177,627.7013 249.9459,628.8489 L 224.8335,630.7616 L 220.8684,631.1442 L 216.9033,648.3585 z "
       style="font-size:48px;font-style:italic;font-weight:bold;fill:url(#linearGradient2202);fill-opacity:1;stroke-width:1;font-family:Luxi Serif" /><path
       transform="matrix(0.896743,0,0,0.94353,137.7416,288.0517)"
       sodipodi:ry="192.09787"
       sodipodi:rx="202.12038"
       sodipodi:cy="245.55115"
       sodipodi:cx="295.6637"
       d="M 497.78407,245.55115 A 202.12038,192.09787 0 0 1 295.6637,437.64902 202.12038,192.09787 0 0 1 93.54332,245.55115 202.12038,192.09787 0 0 1 295.6637,53.453278 202.12038,192.09787 0 0 1 497.78407,245.55115 Z"
       id="path654"
       style="fill:url(#linearGradient2204);fill-opacity:1;fill-rule:evenodd;stroke:none;stroke-width:1pt;stroke-linecap:butt;stroke-linejoin:miter;stroke-opacity:1"
       sodipodi:type="arc" /><path
       sodipodi:nodetypes="csssscccsscsscccccccc"
       id="path689"
       d="M 277.5117,650.4873 L 389.9606,650.4873 C 392.1534,650.4873 395.256,649.8242 395.9378,647.7401 L 400.6622,633.2998 C 401.2892,631.3832 397.0027,628.8104 394.9918,628.66 L 371.8883,626.9315 C 355.3736,626.4395 349.5372,624.877 349.5372,621.4248 C 349.5372,616.0498 350.8497,605.7373 353.0372,596.1748 L 404.202,374.118 C 404.6708,372.0832 401.924,369.1266 399.8853,369.5785 L 279.0571,396.3595 L 271.2419,413.0638 C 270.5672,414.5058 273.9554,415.3324 275.5372,415.1521 L 291.7872,413.2998 C 302.8497,411.7998 314.2872,410.2373 317.3497,410.2373 C 324.4122,410.2373 328.3497,412.1748 329.7247,416.3623 L 327.9122,422.8623 L 324.8497,441.9873 L 289.5997,596.1748 C 281.2247,624.6123 277.533,629.4049 260.3455,630.7174 C 265.5955,637.9049 271.1992,644.2373 277.5117,650.4873 z "
       style="font-size:48px;font-style:italic;font-weight:bold;fill:url(#linearGradient2206);stroke-width:1;font-family:Luxi Serif" /><g
       style="font-size:12px;fill:url(#linearGradient2208)"
       transform="matrix(0.788523,0,0,0.749812,90.02661,337.1856)"
       id="g944"><path
         id="path943"
         d="M 489.2781,157.6309 C 486.7725,158.6472 483.694,159.9616 480.8916,161.4231 C 479.3419,161.0055 475.428,159.2736 475.428,155.3341 C 475.428,151.3946 478.7154,148.2011 482.7708,148.2011 C 488.0788,148.2011 490.7398,151.8121 489.2781,157.6309 z M 521.9314,154.5415 C 521.9314,158.4811 518.0176,160.213 516.6769,160.8394 C 513.0392,159.5867 510.1692,158.6899 508.0812,158.0913 C 505.5757,152.2726 509.2807,147.4085 514.5889,147.4085 C 518.644,147.4085 521.9314,150.6021 521.9314,154.5415 z M 554.0133,282.1463 C 539.7204,299.0921 519.7959,311.7673 487.7231,311.2372 C 455.0333,310.1367 444.7336,294.8341 446.4288,254.5974 C 447.4384,237.4799 453.0554,223.2215 459.4115,212.5429 C 462.707,204.534 471.5472,201.7454 476.9885,177.1512 C 485.6153,185.4841 494.4355,188.3269 497.9466,188.3677 C 504.6303,188.4997 521.1268,180.7489 526.5206,174.9439 C 532.8029,196.1211 539.725,203.2866 544.2499,208.414 C 571.8131,240.2076 557.189,277.6971 554.0133,282.1463 z M 494.2871,157.0588 C 487.7115,157.6404 481.7311,160.3453 477.7269,163.5282 C 475.279,165.2092 472.0644,157.8887 472.0644,152.4116 C 472.0644,145.0207 475.2644,139.5457 483.471,139.5457 C 490.9986,139.5457 495.5149,147.9387 494.2871,157.0588 z M 503.3984,157.4551 C 509.7709,158.1484 517.8879,161.2707 522.7624,163.7729 C 525.4762,165.4536 527.6282,158.285 527.6282,152.8079 C 527.6282,147.0021 523.8588,139.1494 514.7603,139.1494 C 505.191,139.1494 502.0372,145.9572 503.3984,157.4551 z M 504.7202,106.7478 C 474.7132,106.4276 457.1089,126.4945 461.8612,178.9302 C 463.5845,198.2381 361.0517,308.565 481.4685,323.2273 L 525.5737,324.0199 C 606.8295,319.2645 591.7019,249.1051 588.8989,241.103 C 580.6322,213.4795 553.1952,187.4526 553.0018,172.6248 C 552.814,127.3526 535.8651,106.2749 504.7202,106.7478 z M 529.3964,169.2447 C 529.7524,177.204 506.4211,188.5796 497.5232,188.5796 C 490.247,188.5796 473.2299,177.6226 472.7098,170.2413 C 472.4321,166.698 484.8286,156.8974 498.0721,157.1776 C 508.6449,157.1776 529.106,164.0661 529.3964,169.2447 z M 505.6319,158.6713 C 504.8923,159.1122 502.5108,159.8841 502.2685,159.8142 C 501.7591,159.7069 502.9358,158.8886 503.1344,158.3848 C 503.3119,157.9112 506.3718,158.2303 505.6319,158.6713 z M 491.2411,158.3369 C 491.2346,158.7713 491.7574,159.5856 492.1907,159.5931 C 492.5879,159.0685 492.9824,158.6462 493.4274,158.2207 C 493.8848,157.8292 491.2476,157.996 491.2411,158.3369 z M 475.86,171.0084 C 475.1974,169.8919 481.8043,180.5114 494.4183,180.9245 C 505.2062,181.3048 518.8716,172.4247 527.1629,168.9206 C 494.2345,184.859 489.641,183.0493 475.86,171.0084 z M 532.9812,126.1648 C 531.3254,129.0911 525.7228,129.7142 520.4675,127.5566 C 515.2121,125.3989 512.294,121.2776 513.9498,118.3513 C 515.6056,115.425 521.2082,114.8019 526.4636,116.9596 C 531.7189,119.1172 534.6369,123.2386 532.9812,126.1648 z "
         style="font-size:12px;fill:url(#linearGradient2210);fill-rule:evenodd" /><path
         transform="matrix(1.381431,0,0,1.342002,-335.1481,-21.47379)"
         sodipodi:nodetypes="cccccccccccccccccccccc"
         id="path871"
         d="M 594.8524,209.0117 C 594.8524,220.1016 597.3741,225.5481 596.0694,225.5481 C 594.7647,225.5481 591.5893,219.8928 591.5893,208.8029 C 591.5893,197.7133 595.8087,185.5974 597.1134,185.5974 C 598.4181,185.5974 594.8524,197.9221 594.8524,209.0117 z M 632.27,169.5802 C 636.4462,173.2967 639.9597,177.6751 641.0037,183.062 C 633.8452,176.8398 621.8843,173.9586 614.9343,172.3301 C 621.0488,172.1213 630.1226,172.5034 632.27,169.5802 z M 595.6275,172.1593 C 597.9116,174.2791 597.2725,175.7726 598.0951,178.5188 C 598.4549,175.911 602.5729,173.9295 604.8118,171.9481 C 601.9592,172.4361 598.4801,172.5065 595.6275,172.1593 z M 578.9845,168.302 C 576.6727,170.9576 573.7897,175.239 570.9888,182.7921 C 576.8947,176.1524 582.6886,175.629 589.2209,172.9565 C 583.3151,172.7478 581.1318,171.2251 578.9845,168.302 z M 624.5364,145.5447 C 621.5836,154.254 608.0056,162.0592 600.9178,162.0592 C 596.7828,162.0592 588.4029,155.7413 586.9264,147.0322 C 592.4305,152.4557 598.446,156.1755 603.0832,156.3597 C 608.2112,156.4881 619.7769,150.57 624.5364,145.5447 z "
         style="font-size:12px;fill:url(#linearGradient2212);fill-rule:evenodd" /><path
         transform="matrix(1.381431,0,0,1.342002,-335.1483,-21.47379)"
         sodipodi:nodetypes="csccc"
         id="path758"
         d="M 566.1781,204.0047 C 566.1781,224.5982 593.4836,225.0052 587.8079,232.522 C 582.6399,239.91 550.7196,226.5353 550.7196,205.9419 C 552.8076,190.3594 555.5661,185.5046 574.6452,156.366 C 587.5403,159.1975 566.1781,183.4112 566.1781,204.0047 z "
         style="font-size:12px;fill:url(#linearGradient2214);fill-rule:evenodd" /><g
         style="font-size:12px;fill:url(#linearGradient2216)"
         transform="matrix(1.381431,0,0,1.342002,-325.2191,-15.60249)"
         id="g1065"><path
           transform="translate(-7.1875,-4.375031)"
           sodipodi:nodetypes="csssscsss"
           id="path842"
           d="M 662.6023,249.8415 C 652.9563,254.7202 643.0236,269.4045 630.2927,263.3619 C 621.3526,259.2146 625.6634,249.1638 625.1563,243.5311 C 624.668,230.5505 623.5071,211.1312 631.9468,211.184 C 642.1547,211.246 638.0258,215.2545 645.4196,217.3441 C 653.505,219.306 658.7389,209.0467 664.847,213.6095 C 669.4787,219.944 664.6217,223.322 670.205,229.4906 C 673.1685,233.0602 677.7506,232.9839 680.3539,235.8973 C 685.7736,241.3478 668.3201,246.6544 662.6023,249.8415 z "
           style="font-size:12px;fill:url(#linearGradient2218);fill-rule:evenodd" /><path
           transform="translate(-7.1875,-4.375031)"
           sodipodi:nodetypes="cssssssss"
           id="path843"
           d="M 550.8908,255.4014 C 562.5947,256.6532 574.367,267.8037 584.6032,256.5396 C 591.8317,248.7246 584.743,239.3914 580.5155,234.7902 C 570.7341,224.8274 565.2408,206.427 556.2229,206.4986 C 548.5882,206.8092 550.0632,210.9825 544.7009,215.234 C 537.4953,220.6488 532.9891,216.239 528.6392,223.1506 C 525.9871,226.8955 526.7585,231.7788 527.8864,236.9511 C 528.6785,241.8714 527.0976,242.9494 525.4163,244.55 C 519.9332,250.7329 540.853,254.0325 550.8908,255.4014 z "
           style="font-size:12px;fill:url(#linearGradient2220);fill-rule:evenodd" /></g><path
         transform="matrix(1.381431,0,0,1.342002,-335.1483,-21.47379)"
         sodipodi:nodetypes="cscss"
         id="path857"
         d="M 649.8842,196.2501 C 649.4318,220.8146 631.991,220.9147 636.6064,229.3612 C 642.8768,241.2543 669.5186,218.7807 669.5186,198.1874 C 669.5186,178.0113 641.3187,150.3852 638.2491,152.2475 C 619.1027,166.4884 650.6787,175.7879 649.8842,196.2501 z "
         style="font-size:12px;fill:url(#linearGradient2222);fill-rule:evenodd" /></g><path
       sodipodi:nodetypes="cccccccccccccccccc"
       id="path686"
       d="M 274.875,648.125 L 391.5,648.125 L 395.9375,630.9375 L 391.3045,629.234 L 369.6955,628.367 C 349.383,627.2421 344.8125,626.3125 344.8125,619.0625 C 344.8125,613.6875 346.125,603.375 348.3125,593.8125 L 400.3125,369.25 L 274.75,395.25 L 270.8125,413.625 L 287.0625,410.9375 C 298.125,409.4375 309.5625,407.875 312.625,407.875 C 319.6875,407.875 323.625,409.8125 325,414 L 323.1875,420.5 L 320.125,439.625 L 284.875,593.8125 C 276.5,622.25 274.6875,626.625 257.5,627.9375 C 262.75,635.125 268.5625,641.875 274.875,648.125 z "
       style="font-size:48px;font-style:italic;font-weight:bold;fill:#ffffff;stroke-width:6;font-family:Luxi Serif;fill-opacity:1;stroke:#000000;stroke-opacity:1;stroke-miterlimit:4;stroke-dasharray:none" /><path
       sodipodi:nodetypes="csccs"
       id="path692"
       d="M 217.1543,648.3299 C 215.8113,648.3348 217.887,650.8419 219.6599,650.8355 L 277.707,650.6266 L 274.9926,648.1212 L 217.1543,648.3299 z "
       style="font-size:12px;fill:url(#linearGradient2226);fill-rule:evenodd" /></g></svg>