<!--Created with Sodipodi ("http://www.sodipodi.com/")--><svg xmlns:dc="http://purl.org/dc/elements/1.1/" xmlns:cc="http://creativecommons.org/ns#" xmlns:rdf="http://www.w3.org/1999/02/22-rdf-syntax-ns#" xmlns="http://www.w3.org/2000/svg" xmlns:xlink="http://www.w3.org/1999/xlink" xmlns:sodipodi="http://sodipodi.sourceforge.net/DTD/sodipodi-0.dtd" xmlns:inkscape="http://www.inkscape.org/namespaces/inkscape" sodipodi:version="0.32" width="503.34711" height="500.98511" xml:space="preserve" sodipodi:docname="c2e.svg" inkscape:version="0.92.1 r15371" inkscape:output_extension="org.inkscape.output.svg.inkscape" sodipodi:modified="true" version="1.0"><metadata><rdf:RDF><cc:Work><dc:format>image/svg+xml</dc:format><dc:type rdf:resource="http://purl.org/dc/dcmitype/StillImage"/><dc:title/></cc:Work></rdf:RDF></metadata><defs><linearGradient inkscape:collect="always" xlink:href="#b" id="h" spreadMethod="reflect" x1="572.36365" y1="204.5671" x2="631.66211" y2="150.77391" gradientTransform="scale(.9355 1.06895)" gradientUnits="userSpaceOnUse"/><linearGradient id="b"><stop style="stop-color:#c78a00;stop-opacity:1" offset="0"/><stop style="stop-color:#ffe56a;stop-opacity:1" offset="1"/></linearGradient><linearGradient inkscape:collect="always" xlink:href="#a" id="c" gradientTransform="matrix(1.00038 0 0 .99569 -1.667 2.712)" spreadMethod="reflect" x1="673.50358" y1="300.07903" x2="225.41876" y2="504.08388" gradientUnits="userSpaceOnUse"/><linearGradient inkscape:collect="always" xlink:href="#a" id="d" x1="796.23499" y1="326.76798" x2="395.45412" y2="553.13495" gradientUnits="userSpaceOnUse" gradientTransform="matrix(.99803 0 0 .99803 -.488 1.533)"/><linearGradient inkscape:collect="always" xlink:href="#b" id="e" gradientTransform="matrix(1.00591 0 0 1.00591 1.975 9.861)" x1="217.44162" y1="507.38584" x2="577.10179" y2="507.38584" gradientUnits="userSpaceOnUse"/><linearGradient inkscape:collect="always" xlink:href="#b" id="f" spreadMethod="reflect" x1="286.06671" y1="307.05434" x2="461.8503" y2="147.59049" gradientTransform="scale(.97675 1.0238)" gradientUnits="userSpaceOnUse"/><linearGradient inkscape:collect="always" xlink:href="#b" id="g" spreadMethod="reflect" x1="382.07347" y1="269.31339" x2="533.9103" y2="131.57308" gradientTransform="scale(.88199 1.1338)" gradientUnits="userSpaceOnUse"/><linearGradient id="a"><stop style="stop-color:#191919;stop-opacity:1" offset="0"/><stop style="stop-color:#e6e6e6;stop-opacity:1" offset="1"/></linearGradient><linearGradient inkscape:collect="always" xlink:href="#b" id="i" spreadMethod="reflect" x1="763.8678" y1="158.54136" x2="806.98456" y2="119.42756" gradientTransform="scale(.6958 1.4372)" gradientUnits="userSpaceOnUse"/><linearGradient inkscape:collect="always" xlink:href="#b" id="j" spreadMethod="reflect" x1="266.82405" y1="418.96704" x2="342.59325" y2="350.23224" gradientTransform="scale(1.64036 .60962)" gradientUnits="userSpaceOnUse"/><linearGradient inkscape:collect="always" xlink:href="#b" id="k" spreadMethod="reflect" x1="578.59925" y1="267.88094" x2="622.33322" y2="228.20723" gradientTransform="scale(1.02956 .97129)" gradientUnits="userSpaceOnUse"/><linearGradient inkscape:collect="always" xlink:href="#b" id="l" spreadMethod="reflect" x1="459.52562" y1="275.18938" x2="506.24941" y2="232.80342" gradientTransform="scale(1.0716 .93318)" gradientUnits="userSpaceOnUse"/><linearGradient inkscape:collect="always" xlink:href="#b" id="m" spreadMethod="reflect" x1="898.9716" y1="153.9525" x2="942.47289" y2="114.48988" gradientTransform="scale(.68196 1.46635)" gradientUnits="userSpaceOnUse"/><linearGradient inkscape:collect="always" xlink:href="#a" id="n" gradientTransform="matrix(4.10546 0 0 .24262 .79 1.023)" x1="60.417931" y1="2676.5681" x2="60.52325" y2="2644.241" gradientUnits="userSpaceOnUse"/></defs><sodipodi:namedview inkscape:zoom="0.25465897" inkscape:cx="-1043.4535" inkscape:cy="243.14482" inkscape:window-width="1884" inkscape:window-height="1051" inkscape:window-x="0" inkscape:window-y="0" inkscape:current-layer="g2185" showgrid="false" inkscape:window-maximized="1"/><g transform="translate(-149.922 -269.755)"><path sodipodi:nodetypes="ccccccc" d="M652.775 520.248c0 138.07-112.456 250-251.179 250-138.722 0-251.179-111.93-251.179-250 0-138.072 112.457-250 251.179-250 138.723 0 251.179 111.928 251.179 250zM394.55 637.518z" style="font-style:italic;font-weight:700;font-size:48px;font-family:'Luxi Serif';fill:url(#c);fill-opacity:1;stroke-width:.9980337" inkscape:connector-curvature="0"/><path d="M217.538 647.813c26.48-.367 74.302-1.101 88.926-1.101 6.323 0 6.323 0 77.068 1.1 5.929-22.383 7.905-28.621 13.043-37.795l-3.162-2.202c-13.042 2.202-21.342 2.936-32.408 2.936h-89.321l87.344-81.464c22.923-21.283 35.966-46.97 35.966-70.822 0-37.429-28.851-62.382-72.721-62.382-21.343 0-37.547 5.138-57.703 18.715l-22.133 49.905 11.857 3.303 5.533-8.807c14.623-23.118 24.9-30.09 44.66-30.09 25.69 0 42.29 14.678 42.29 37.43 0 36.694-30.828 83.664-90.902 137.606l-38.337 34.494zm421.09-127.565c0 130.91-106.122 237.033-237.032 237.033-130.91 0-237.033-106.124-237.033-237.033 0-130.91 106.123-237.033 237.033-237.033 130.91 0 237.033 106.123 237.033 237.033zM390.992 631.054z" style="font-style:italic;font-weight:700;font-size:48px;font-family:'URW Palladio L';fill:url(#d);stroke-width:.9980337" inkscape:connector-curvature="0"/><ellipse style="fill:url(#e);fill-opacity:1;fill-rule:evenodd;stroke:none;stroke-width:1.00591394pt;stroke-linecap:butt;stroke-linejoin:miter;stroke-opacity:1" cx="401.59592" cy="520.24768" rx="180.89362" ry="180.89355"/><path sodipodi:nodetypes="cccccssssccccccssssc" d="M278.17 649.96c-10.168-10.292-19.088-21.77-26.386-34.37l9.543-8.608c60.07-53.956 90.884-100.926 90.884-137.603 0-22.768-16.592-37.427-42.292-37.427-19.773 0-36.671 12.735-50.497 36.318-1.134 1.935-3.756 4.1-5.906 3.377l-9.83-3.306c-1.26-.424-1.472-2.754-.806-3.904l27.118-46.831c20.148-13.536 36.366-18.714 57.699-18.714 43.913 0 72.731 24.951 72.731 62.377 0 23.89-13.036 49.528-35.929 70.86l-87.39 81.465h89.324c11.103 0 14.791-5.292 27.018-5.015 3.26.073 8.033 2.582 6.515 6.35-3.806 8.408-7.233 19.7-10.598 30.3-.766 2.754-4.05 5.128-9.1 5.128-5.552 0-84.259-.709-102.099-.397z" style="font-size:12px;fill:#fff;fill-opacity:1;fill-rule:evenodd;stroke:#000;stroke-width:5.9882021;stroke-miterlimit:4;stroke-dasharray:none;stroke-opacity:1" inkscape:connector-curvature="0"/><g style="font-size:12px;fill:url(#f)" transform="matrix(.89468 0 0 .9098 30.357 306.973)"><path d="M489.278 157.63c-2.506 1.017-5.584 2.332-8.386 3.793-1.55-.417-5.464-2.15-5.464-6.089 0-3.94 3.287-7.133 7.343-7.133 5.308 0 7.969 3.611 6.507 9.43zm32.653-3.088c0 3.94-3.913 5.671-5.254 6.297-3.638-1.252-6.508-2.15-8.596-2.748-2.505-5.818 1.2-10.683 6.508-10.683 4.055 0 7.342 3.194 7.342 7.134zm32.082 127.604c-14.293 16.946-34.217 29.621-66.29 29.091-32.69-1.1-42.99-16.403-41.294-56.64 1.01-17.117 6.626-31.376 12.982-42.054 3.296-8.009 12.136-10.798 17.577-35.392 8.627 8.333 17.447 11.176 20.959 11.217 6.683.132 23.18-7.62 28.574-13.424 6.282 21.177 13.204 28.343 17.729 33.47 27.563 31.794 12.939 69.283 9.763 73.732zM494.287 157.06c-6.575.581-12.556 3.286-16.56 6.47-2.448 1.68-5.663-5.64-5.663-11.117 0-7.391 3.2-12.866 11.407-12.866 7.528 0 12.044 8.393 10.816 17.513zm9.111.396c6.373.693 14.49 3.816 19.364 6.318 2.714 1.68 4.866-5.488 4.866-10.965 0-5.806-3.77-13.659-12.868-13.659-9.569 0-12.723 6.808-11.362 18.306zm1.322-50.707c-30.007-.32-47.611 19.746-42.859 72.182 1.724 19.308-100.81 129.635 19.608 144.297l44.105.793c81.256-4.755 66.128-74.915 63.325-82.917-8.267-27.623-35.704-53.65-35.897-68.478-.188-45.272-17.137-66.35-48.282-65.877zm24.676 62.497c.356 7.959-22.975 19.335-31.873 19.335-7.276 0-24.293-10.957-24.813-18.339-.278-3.543 12.119-13.344 25.362-13.063 10.573 0 31.034 6.888 31.324 12.067zm-23.764-10.574c-.74.441-3.121 1.213-3.363 1.143-.51-.107.667-.925.865-1.43.178-.473 3.238-.154 2.498.287zm-14.39-.334c-.008.434.515 1.249.949 1.256.397-.524.791-.947 1.236-1.372.458-.392-2.18-.225-2.186.116zm-15.382 12.671c-.663-1.116 5.944 9.503 18.558 9.916 10.788.38 24.454-8.5 32.745-12.003-32.928 15.938-37.522 14.128-51.303 2.087zm57.121-44.843c-1.656 2.926-7.258 3.55-12.513 1.392-5.256-2.158-8.174-6.28-6.518-9.206 1.656-2.926 7.258-3.55 12.514-1.391 5.255 2.157 8.173 6.279 6.517 9.205z" style="font-size:12px;fill:url(#g);fill-rule:evenodd" inkscape:connector-curvature="0"/><path transform="matrix(1.38143 0 0 1.342 -335.148 -21.474)" sodipodi:nodetypes="cccccccccccccccccccccc" d="M594.852 209.012c0 11.09 2.522 16.536 1.217 16.536-1.304 0-4.48-5.655-4.48-16.745s4.22-23.206 5.524-23.206c1.305 0-2.26 12.325-2.26 23.415zm37.418-39.432c4.176 3.717 7.69 8.095 8.734 13.482-7.159-6.222-19.12-9.103-26.07-10.732 6.115-.209 15.189.173 17.336-2.75zm-36.642 2.58c2.284 2.12 1.644 3.613 2.467 6.359.36-2.608 4.478-4.59 6.717-6.57-2.853.487-6.332.557-9.185.21zm-16.644-3.858c-2.311 2.656-5.194 6.937-7.995 14.49 5.906-6.64 11.7-7.163 18.232-9.835-5.906-.21-8.09-1.732-10.237-4.655zm45.552-22.757c-2.952 8.709-16.53 16.514-23.618 16.514-4.135 0-12.515-6.318-13.992-15.027 5.504 5.424 11.52 9.143 16.157 9.328 5.128.128 16.694-5.79 21.453-10.815z" style="font-size:12px;fill:url(#h);fill-rule:evenodd" inkscape:connector-curvature="0"/><path transform="matrix(1.38143 0 0 1.342 -335.148 -21.474)" sodipodi:nodetypes="csccc" d="M566.178 204.005c0 20.593 27.306 21 21.63 28.517-5.168 7.388-37.088-5.987-37.088-26.58 2.088-15.583 4.846-20.437 23.925-49.576 12.895 2.832-8.467 27.045-8.467 47.639z" style="font-size:12px;fill:url(#i);fill-rule:evenodd" inkscape:connector-curvature="0"/><g style="font-size:12px;fill:url(#j)" transform="matrix(1.38143 0 0 1.342 -325.22 -15.602)"><path transform="translate(-7.188 -4.375)" sodipodi:nodetypes="csssscsss" d="M662.602 249.841c-9.646 4.88-19.578 19.563-32.31 13.52-8.94-4.146-4.629-14.197-5.136-19.83-.488-12.98-1.649-32.4 6.79-32.347 10.209.062 6.08 4.07 13.474 6.16 8.085 1.962 13.319-8.297 19.427-3.735 4.632 6.335-.225 9.713 5.358 15.882 2.963 3.57 7.546 3.493 10.149 6.406 5.42 5.45-12.034 10.757-17.752 13.944z" style="font-size:12px;fill:url(#k);fill-rule:evenodd" inkscape:connector-curvature="0"/><path transform="translate(-7.188 -4.375)" sodipodi:nodetypes="cssssssss" d="M550.89 255.401c11.705 1.252 23.477 12.403 33.713 1.139 7.229-7.815.14-17.149-4.087-21.75-9.782-9.963-15.275-28.363-24.293-28.291-7.635.31-6.16 4.484-11.522 8.735-7.206 5.415-11.712 1.005-16.062 7.917-2.652 3.744-1.88 8.628-.753 13.8.793 4.92-.788 5.998-2.47 7.599-5.483 6.183 15.437 9.482 25.475 10.851z" style="font-size:12px;fill:url(#l);fill-rule:evenodd" inkscape:connector-curvature="0"/></g><path transform="matrix(1.38143 0 0 1.342 -335.148 -21.474)" sodipodi:nodetypes="cscss" d="M649.884 196.25c-.452 24.565-17.893 24.665-13.278 33.111 6.27 11.893 32.913-10.58 32.913-31.174 0-20.176-28.2-47.802-31.27-45.94-19.146 14.241 12.43 23.54 11.635 44.003z" style="font-size:12px;fill:url(#m);fill-rule:evenodd" inkscape:connector-curvature="0"/></g><path sodipodi:nodetypes="csccs" d="M218.559 647.245c-1.34.015 1.565 2.923 3.334 2.917l56.266-.209-3.751-3.334z" style="font-size:12px;fill:url(#n);fill-rule:evenodd;stroke-width:.9980337" inkscape:connector-curvature="0"/></g></svg>