<?xml version="1.0" encoding="UTF-8" standalone="no"?>
<!-- Created with Sodipodi ("http://www.sodipodi.com/") -->

<svg
   xmlns:dc="http://purl.org/dc/elements/1.1/"
   xmlns:cc="http://creativecommons.org/ns#"
   xmlns:rdf="http://www.w3.org/1999/02/22-rdf-syntax-ns#"
   xmlns:svg="http://www.w3.org/2000/svg"
   xmlns="http://www.w3.org/2000/svg"
   xmlns:xlink="http://www.w3.org/1999/xlink"
   xmlns:sodipodi="http://sodipodi.sourceforge.net/DTD/sodipodi-0.dtd"
   xmlns:inkscape="http://www.inkscape.org/namespaces/inkscape"
   id="svg1178"
   sodipodi:version="0.32"
   width="324.06104"
   height="362.07101"
   xml:space="preserve"
   sodipodi:docname="eggpot.svg"
   inkscape:version="0.91 r13725"
   inkscape:output_extension="org.inkscape.output.svg.inkscape"
   version="1.0"
   sodipodi:modified="true"><metadata
     id="metadata30"><rdf:RDF><cc:Work
         rdf:about=""><dc:format>image/svg+xml</dc:format><dc:type
           rdf:resource="http://purl.org/dc/dcmitype/StillImage" /></cc:Work></rdf:RDF></metadata><defs
     id="defs1180"><linearGradient
       id="linearGradient671"><stop
         style="stop-color:#00a2ff;stop-opacity:1;"
         offset="0"
         id="stop672" /><stop
         style="stop-color:#ffffff;stop-opacity:1;"
         offset="1"
         id="stop673" /></linearGradient><linearGradient
       id="linearGradient1185"><stop
         style="stop-color:#0000ff;stop-opacity:1;"
         offset="0"
         id="stop1186" /><stop
         style="stop-color:#85ffff;stop-opacity:1;"
         offset="1"
         id="stop1187" /></linearGradient><linearGradient
       inkscape:collect="always"
       xlink:href="#linearGradient1185"
       id="linearGradient2319"
       gradientUnits="userSpaceOnUse"
       gradientTransform="scale(2.2242678,0.4495862)"
       x1="215.35931"
       y1="1186.0647"
       x2="122.49801"
       y2="1093.8596" /><linearGradient
       inkscape:collect="always"
       xlink:href="#linearGradient1185"
       id="linearGradient2322"
       gradientUnits="userSpaceOnUse"
       gradientTransform="matrix(1.7410482,0,0,0.6097496,-197.10907,-612.7297)"
       x1="113.21301"
       y1="888.47717"
       x2="299.34271"
       y2="888.47717" /><linearGradient
       inkscape:collect="always"
       xlink:href="#linearGradient1185"
       id="linearGradient2324"
       gradientUnits="userSpaceOnUse"
       gradientTransform="matrix(1.1969531,0,0,0.8869217,-197.10907,-612.7297)"
       x1="164.67569"
       y1="742.37164"
       x2="435.41391"
       y2="742.37164" /><linearGradient
       inkscape:collect="always"
       xlink:href="#linearGradient671"
       id="linearGradient2326"
       gradientUnits="userSpaceOnUse"
       gradientTransform="matrix(1.8629908,0,0,0.5698384,-197.10907,-612.7297)"
       x1="155.41"
       y1="860.59119"
       x2="188.2403"
       y2="1098.5466" /><radialGradient
       inkscape:collect="always"
       xlink:href="#linearGradient1185"
       id="radialGradient2328"
       gradientUnits="userSpaceOnUse"
       gradientTransform="scale(2.2242678,0.4495862)"
       spreadMethod="reflect"
       cx="160.87437"
       cy="1085.2155"
       fx="160.87437"
       fy="1085.2155"
       r="80.391342" /><radialGradient
       inkscape:collect="always"
       xlink:href="#linearGradient1185"
       id="radialGradient2330"
       gradientUnits="userSpaceOnUse"
       gradientTransform="matrix(1.4468295,0,0,0.5939897,-150.31556,-627.49005)"
       spreadMethod="reflect"
       cx="198.37936"
       cy="1288.3018"
       fx="198.37936"
       fy="1288.3018"
       r="102.10921" /><linearGradient
       inkscape:collect="always"
       xlink:href="#linearGradient671"
       id="linearGradient2332"
       gradientUnits="userSpaceOnUse"
       gradientTransform="matrix(1.3767221,-0.4015012,0.1121457,0.5655952,-297.56267,-453.24311)"
       x1="133.46968"
       y1="1174.8077"
       x2="196.25722"
       y2="1402.4281" /><radialGradient
       inkscape:collect="always"
       xlink:href="#linearGradient1185"
       id="radialGradient2334"
       gradientUnits="userSpaceOnUse"
       gradientTransform="scale(2.2242678,0.4495862)"
       spreadMethod="reflect"
       cx="160.87437"
       cy="1085.2155"
       fx="160.87437"
       fy="1085.2155"
       r="80.391342" /><radialGradient
       inkscape:collect="always"
       xlink:href="#linearGradient1185"
       id="radialGradient2336"
       gradientUnits="userSpaceOnUse"
       gradientTransform="matrix(1.4468295,0,0,0.5939897,-150.31556,-627.49005)"
       spreadMethod="reflect"
       cx="198.37936"
       cy="1288.3018"
       fx="198.37936"
       fy="1288.3018"
       r="102.10921" /><linearGradient
       inkscape:collect="always"
       xlink:href="#linearGradient671"
       id="linearGradient2338"
       gradientUnits="userSpaceOnUse"
       gradientTransform="matrix(1.3767221,-0.4015012,0.1121457,0.5655952,-297.56267,-453.24311)"
       x1="133.46968"
       y1="1174.8077"
       x2="196.25722"
       y2="1402.4281" /><linearGradient
       inkscape:collect="always"
       xlink:href="#linearGradient1185"
       id="linearGradient2340"
       gradientUnits="userSpaceOnUse"
       gradientTransform="scale(2.2242678,0.4495862)"
       x1="215.35931"
       y1="1186.0647"
       x2="122.49801"
       y2="1093.8596" /><linearGradient
       inkscape:collect="always"
       xlink:href="#linearGradient1185"
       id="linearGradient2342"
       gradientUnits="userSpaceOnUse"
       gradientTransform="matrix(1.7410482,0,0,0.6097496,-197.10907,-612.7297)"
       x1="113.21301"
       y1="888.47717"
       x2="299.34271"
       y2="888.47717" /><linearGradient
       inkscape:collect="always"
       xlink:href="#linearGradient1185"
       id="linearGradient2344"
       gradientUnits="userSpaceOnUse"
       gradientTransform="matrix(1.1969531,0,0,0.8869217,-197.10907,-612.7297)"
       x1="164.67569"
       y1="742.37164"
       x2="435.41391"
       y2="742.37164" /><linearGradient
       inkscape:collect="always"
       xlink:href="#linearGradient671"
       id="linearGradient2346"
       gradientUnits="userSpaceOnUse"
       gradientTransform="matrix(1.8629908,0,0,0.5698384,-197.10907,-612.7297)"
       x1="155.41"
       y1="860.59119"
       x2="188.2403"
       y2="1098.5466" /></defs><sodipodi:namedview
     id="base"
     inkscape:zoom="0.36014217"
     inkscape:cx="372.04724"
     inkscape:cy="294.48785"
     inkscape:window-width="822"
     inkscape:window-height="592"
     inkscape:window-x="9"
     inkscape:window-y="75"
     inkscape:current-layer="svg1178" /><g
     id="g2292"
     transform="translate(-1.9089761e-6,127.72728)"><path
       transform="matrix(1.031915,0,0,1.7320912,-213.74217,-940.98083)"
       sodipodi:ry="31.737915"
       sodipodi:rx="157.01912"
       sodipodi:cy="502.79523"
       sodipodi:cx="364.15076"
       d="M 521.16988,502.79523 A 157.01912,31.737915 0 0 1 364.15076,534.53314 157.01912,31.737915 0 0 1 207.13164,502.79523 157.01912,31.737915 0 0 1 364.15076,471.05731 157.01912,31.737915 0 0 1 521.16988,502.79523 Z"
       id="path1183"
       style="fill:url(#linearGradient2319);fill-opacity:1;fill-rule:evenodd;stroke:none;stroke-width:1pt;stroke-linecap:butt;stroke-linejoin:miter;stroke-opacity:1"
       sodipodi:type="arc" /><path
       sodipodi:nodetypes="cccccccccc"
       id="path1197"
       d="M 324.06103,-70.980957 C 324.06103,-39.640827 251.51763,-14.234744 162.03063,-14.234744 C 72.54373,-14.234744 0.00023,-39.640827 0.00023,-70.980957 C 0.00023,-102.32098 72.54373,-127.72728 162.03063,-127.72728 C 251.51763,-127.72728 324.06103,-102.32098 324.06103,-70.980957 z M 313.88233,-70.980848 C 313.88233,-44.341713 238.09463,-22.746571 162.03073,-22.746571 C 85.96683,-22.746571 10.17903,-44.341713 10.17903,-70.980848 C 10.17903,-97.619875 85.96683,-120.98854 162.03073,-120.98854 C 238.09463,-120.98854 313.88233,-97.619875 313.88233,-70.980848 z "
       style="font-size:12px;fill:url(#linearGradient2322);fill-rule:evenodd;stroke-width:1" /><path
       sodipodi:nodetypes="ccccc"
       id="path1182"
       d="M 324.06083,-64.77387 C 324.06083,29.246316 248.17653,165.75761 158.68963,165.75761 C 69.20273,165.75761 0.00013,29.246316 0.00013,-64.77387 C 0.00013,-98.501338 -0.95477,-18.667565 162.03043,-18.667565 C 325.01563,-18.667565 324.06083,-102.04794 324.06083,-64.77387 z "
       style="font-size:12px;fill:url(#linearGradient2324);fill-rule:evenodd;stroke-width:1" /><path
       sodipodi:nodetypes="cccccccccccc"
       id="path631"
       d="M 22.54443,9.370869 L 13.91603,-1.9576173 L 10.01833,-2.2288496 L 8.28553,-5.5282114 L 9.66193,-10.38802 L 6.96313,-26.681626 L 13.87023,-20.796186 L 19.73563,-30.854246 L 21.45443,-16.265595 L 31.31083,-10.568605 L 19.65123,-4.0747741 L 22.54443,9.370869 z "
       style="font-size:12px;fill:#ffce00;fill-rule:evenodd" /><polygon
       transform="matrix(1.737386,-0.6173182,0.589993,1.8178539,-314.48857,-873.88302)"
       points="99.38985,537.8735 94.45486,532.8871 87.5494,534.1255 90.76683,527.8911 87.45513,521.7063 94.37859,522.8398 99.23731,517.7789 100.2988,524.7138 106.6134,527.7708 100.346,530.9233 99.38985,537.8735 "
       sodipodi:arg2="1.8773647"
       sodipodi:arg1="1.2490462"
       sodipodi:r2="5.2823319"
       sodipodi:r1="10.564664"
       sodipodi:cy="527.85101"
       sodipodi:cx="96.049011"
       sodipodi:sides="5"
       id="polygon614"
       style="font-size:12px;fill:#ffd980;fill-rule:evenodd"
       sodipodi:type="star"
       inkscape:flatsided="false"
       inkscape:rounded="0"
       inkscape:randomized="0"
       d="m 99.389847,537.87353 -4.934984,-4.98647 -6.905461,1.23841 3.217429,-6.23436 -3.311703,-6.18479 6.923465,1.13343 4.858716,-5.06082 1.061511,6.93486 6.31455,3.05703 -6.26742,3.15254 z" /><path
       sodipodi:nodetypes="ccccccccccc"
       id="path632"
       d="M 91.44233,35.152552 L 79.86093,24.534492 L 72.58283,29.032822 L 72.64613,18.221029 L 65.16853,2.8781043 L 76.07963,6.6999842 L 81.63753,-2.4572069 L 89.32003,10.487255 L 100.10203,13.079791 L 89.44033,22.109253 L 91.44233,35.152552 z "
       style="font-size:12px;fill:#ffd680;fill-rule:evenodd" /><path
       sodipodi:nodetypes="cccccccccccc"
       id="path633"
       d="M 300.88203,10.341063 L 309.51043,-0.98729945 L 313.40803,-1.2586553 L 315.14093,-4.5580172 L 313.76463,-9.417826 L 316.46313,-25.711416 L 309.55603,-19.825992 L 303.69093,-29.884051 L 301.97213,-15.295386 L 292.11563,-9.5983952 L 303.77543,-3.1045644 L 300.88203,10.341063 z "
       style="font-size:12px;fill:#ffec80;fill-rule:evenodd" /><path
       sodipodi:nodetypes="ccccccccccc"
       id="path634"
       d="M 237.51583,32.9805 L 249.32683,22.662456 L 256.50433,27.346253 L 256.67773,16.535727 L 264.48953,1.3888838 L 253.49793,4.9298595 L 248.14193,-4.3672353 L 240.17803,8.3764639 L 229.34223,10.691927 L 239.80293,19.992205 L 237.51583,32.9805 z "
       style="font-size:12px;fill:#ffea80;fill-rule:evenodd" /><path
       sodipodi:nodetypes="cscsc"
       id="path669"
       d="M 273.58433,-111.21616 C 384.61363,-74.14953 291.44403,-13.409985 166.68903,-13.409985 C 40.75303,-13.409985 -22.29707,-60.983417 13.13783,-86.764667 C -14.02887,-59.881044 39.50023,-19.603475 164.25503,-19.603475 C 287.82893,-19.603475 375.16433,-73.047158 273.58433,-111.21616 z "
       style="font-size:12px;fill:url(#linearGradient2326);fill-rule:evenodd;stroke-width:1" /><g
       transform="translate(24.990119,0)"
       id="g2272"><path
         sodipodi:type="arc"
         style="fill:url(#radialGradient2328);fill-opacity:1;fill-rule:evenodd;stroke:none;stroke-width:1pt;stroke-linecap:butt;stroke-linejoin:miter;stroke-opacity:1"
         id="path1184"
         d="M 521.16988,502.79523 A 157.01912,31.737915 0 0 1 364.15076,534.53314 157.01912,31.737915 0 0 1 207.13164,502.79523 157.01912,31.737915 0 0 1 364.15076,471.05731 157.01912,31.737915 0 0 1 521.16988,502.79523 Z"
         sodipodi:cx="364.15076"
         sodipodi:cy="502.79523"
         sodipodi:rx="157.01912"
         sodipodi:ry="31.737915"
         transform="matrix(0.8267561,0,0,1.7320912,-164.02352,-691.51643)" /><path
         style="font-size:12px;fill:url(#radialGradient2330);fill-rule:evenodd;stroke-width:1"
         d="M 183.8737,158.53421 C 193.68458,169.42086 179.09269,183.8042 137.53125,183.8042 C 95.970142,183.8042 79.95598,171.02058 90.338551,159.42086 C 111.41786,135.87014 95.970142,141.24441 137.53125,152.77098 C 174.84112,142.13106 163.57284,136.89406 183.8737,158.53421 z "
         id="path1200"
         sodipodi:nodetypes="ccscs" /><path
         style="font-size:12px;fill:url(#linearGradient2332);fill-rule:evenodd;stroke-width:1"
         d="M 259.49332,162.01463 C 274.35957,184.97532 233.83607,219.44062 153.96715,221.33821 C 52.17825,223.74648 3.4649139,193.11842 12.650254,167.49781 C 8.1279061,180.56535 23.347105,222.65726 147.51418,217.44982 C 251.20082,213.08717 267.34336,178.69184 259.49332,162.01463 z "
         id="path675"
         sodipodi:nodetypes="cscsc" /><path
         transform="matrix(0.8267561,0,0,1.7320912,-164.02352,-691.51643)"
         sodipodi:ry="31.737915"
         sodipodi:rx="157.01912"
         sodipodi:cy="502.79523"
         sodipodi:cx="364.15076"
         d="M 521.16988,502.79523 A 157.01912,31.737915 0 0 1 364.15076,534.53314 157.01912,31.737915 0 0 1 207.13164,502.79523 157.01912,31.737915 0 0 1 364.15076,471.05731 157.01912,31.737915 0 0 1 521.16988,502.79523 Z"
         id="path2233"
         style="fill:url(#radialGradient2334);fill-opacity:1;fill-rule:evenodd;stroke:none;stroke-width:1pt;stroke-linecap:butt;stroke-linejoin:miter;stroke-opacity:1"
         sodipodi:type="arc" /><path
         sodipodi:nodetypes="ccscs"
         id="path2235"
         d="M 183.8737,158.53421 C 193.68458,169.42086 179.09269,183.8042 137.53125,183.8042 C 95.970142,183.8042 79.95598,171.02058 90.338551,159.42086 C 111.41786,135.87014 95.970142,141.24441 137.53125,152.77098 C 174.84112,142.13106 163.57284,136.89406 183.8737,158.53421 z "
         style="font-size:12px;fill:url(#radialGradient2336);fill-rule:evenodd;stroke-width:1" /><path
         sodipodi:nodetypes="cscsc"
         id="path2237"
         d="M 259.49332,162.01463 C 274.35957,184.97532 233.83607,219.44062 153.96715,221.33821 C 52.17825,223.74648 3.4649139,193.11842 12.650254,167.49781 C 8.1279061,180.56535 23.347105,222.65726 147.51418,217.44982 C 251.20082,213.08717 267.34336,178.69184 259.49332,162.01463 z "
         style="font-size:12px;fill:url(#linearGradient2338);fill-rule:evenodd;stroke-width:1" /></g><path
       sodipodi:type="arc"
       style="fill:url(#linearGradient2340);fill-opacity:1;fill-rule:evenodd;stroke:none;stroke-width:1pt;stroke-linecap:butt;stroke-linejoin:miter;stroke-opacity:1"
       id="path2239"
       d="M 521.16988,502.79523 A 157.01912,31.737915 0 0 1 364.15076,534.53314 157.01912,31.737915 0 0 1 207.13164,502.79523 157.01912,31.737915 0 0 1 364.15076,471.05731 157.01912,31.737915 0 0 1 521.16988,502.79523 Z"
       sodipodi:cx="364.15076"
       sodipodi:cy="502.79523"
       sodipodi:rx="157.01912"
       sodipodi:ry="31.737915"
       transform="matrix(1.031915,0,0,1.7320912,-213.74217,-940.98083)" /><path
       style="font-size:12px;fill:url(#linearGradient2342);fill-rule:evenodd;stroke-width:1"
       d="M 324.06103,-70.980957 C 324.06103,-39.640827 251.51763,-14.234744 162.03063,-14.234744 C 72.54373,-14.234744 0.00023,-39.640827 0.00023,-70.980957 C 0.00023,-102.32098 72.54373,-127.72728 162.03063,-127.72728 C 251.51763,-127.72728 324.06103,-102.32098 324.06103,-70.980957 z M 313.88233,-70.980848 C 313.88233,-44.341713 238.09463,-22.746571 162.03073,-22.746571 C 85.96683,-22.746571 10.17903,-44.341713 10.17903,-70.980848 C 10.17903,-97.619875 85.96683,-120.98854 162.03073,-120.98854 C 238.09463,-120.98854 313.88233,-97.619875 313.88233,-70.980848 z "
       id="path2241"
       sodipodi:nodetypes="cccccccccc" /><path
       style="font-size:12px;fill:url(#linearGradient2344);fill-rule:evenodd;stroke-width:1"
       d="M 324.06083,-64.77387 C 324.06083,29.246316 248.17653,165.75761 158.68963,165.75761 C 69.20273,165.75761 0.00013,29.246316 0.00013,-64.77387 C 0.00013,-98.501338 -0.95477,-18.667565 162.03043,-18.667565 C 325.01563,-18.667565 324.06083,-102.04794 324.06083,-64.77387 z "
       id="path2243"
       sodipodi:nodetypes="ccccc" /><path
       style="font-size:12px;fill:#ffce00;fill-rule:evenodd"
       d="M 22.54443,9.370869 L 13.91603,-1.9576173 L 10.01833,-2.2288496 L 8.28553,-5.5282114 L 9.66193,-10.38802 L 6.96313,-26.681626 L 13.87023,-20.796186 L 19.73563,-30.854246 L 21.45443,-16.265595 L 31.31083,-10.568605 L 19.65123,-4.0747741 L 22.54443,9.370869 z "
       id="path2245"
       sodipodi:nodetypes="cccccccccccc" /><polygon
       d="m 99.389847,537.87353 -4.934984,-4.98647 -6.905461,1.23841 3.217429,-6.23436 -3.311703,-6.18479 6.923465,1.13343 4.858716,-5.06082 1.061511,6.93486 6.31455,3.05703 -6.26742,3.15254 z"
       inkscape:randomized="0"
       inkscape:rounded="0"
       inkscape:flatsided="false"
       sodipodi:type="star"
       style="font-size:12px;fill:#ffd980;fill-rule:evenodd"
       id="polygon2247"
       sodipodi:sides="5"
       sodipodi:cx="96.049011"
       sodipodi:cy="527.85101"
       sodipodi:r1="10.564664"
       sodipodi:r2="5.2823319"
       sodipodi:arg1="1.2490462"
       sodipodi:arg2="1.8773647"
       points="99.38985,537.8735 94.45486,532.8871 87.5494,534.1255 90.76683,527.8911 87.45513,521.7063 94.37859,522.8398 99.23731,517.7789 100.2988,524.7138 106.6134,527.7708 100.346,530.9233 99.38985,537.8735 "
       transform="matrix(1.737386,-0.6173182,0.589993,1.8178539,-314.48857,-873.88302)" /><path
       style="font-size:12px;fill:#ffd680;fill-rule:evenodd"
       d="M 91.44233,35.152552 L 79.86093,24.534492 L 72.58283,29.032822 L 72.64613,18.221029 L 65.16853,2.8781043 L 76.07963,6.6999842 L 81.63753,-2.4572069 L 89.32003,10.487255 L 100.10203,13.079791 L 89.44033,22.109253 L 91.44233,35.152552 z "
       id="path2249"
       sodipodi:nodetypes="ccccccccccc" /><path
       style="font-size:12px;fill:#ffec80;fill-rule:evenodd"
       d="M 300.88203,10.341063 L 309.51043,-0.98729945 L 313.40803,-1.2586553 L 315.14093,-4.5580172 L 313.76463,-9.417826 L 316.46313,-25.711416 L 309.55603,-19.825992 L 303.69093,-29.884051 L 301.97213,-15.295386 L 292.11563,-9.5983952 L 303.77543,-3.1045644 L 300.88203,10.341063 z "
       id="path2251"
       sodipodi:nodetypes="cccccccccccc" /><path
       style="font-size:12px;fill:#ffea80;fill-rule:evenodd"
       d="M 237.51583,32.9805 L 249.32683,22.662456 L 256.50433,27.346253 L 256.67773,16.535727 L 264.48953,1.3888838 L 253.49793,4.9298595 L 248.14193,-4.3672353 L 240.17803,8.3764639 L 229.34223,10.691927 L 239.80293,19.992205 L 237.51583,32.9805 z "
       id="path2253"
       sodipodi:nodetypes="ccccccccccc" /><path
       style="font-size:12px;fill:url(#linearGradient2346);fill-rule:evenodd;stroke-width:1"
       d="M 273.58433,-111.21616 C 384.61363,-74.14953 291.44403,-13.409985 166.68903,-13.409985 C 40.75303,-13.409985 -22.29707,-60.983417 13.13783,-86.764667 C -14.02887,-59.881044 39.50023,-19.603475 164.25503,-19.603475 C 287.82893,-19.603475 375.16433,-73.047158 273.58433,-111.21616 z "
       id="path2255"
       sodipodi:nodetypes="cscsc" /></g></svg>