<!--Created with Inkscape (http://www.inkscape.org/)--><svg xmlns:dc="http://purl.org/dc/elements/1.1/" xmlns:cc="http://creativecommons.org/ns#" xmlns:rdf="http://www.w3.org/1999/02/22-rdf-syntax-ns#" xmlns="http://www.w3.org/2000/svg" xmlns:sodipodi="http://sodipodi.sourceforge.net/DTD/sodipodi-0.dtd" xmlns:inkscape="http://www.inkscape.org/namespaces/inkscape" width="512" height="256" viewBox="0 0 512.00001 256" version="1.1" id="svg8" inkscape:version="0.92.4 (5da689c313, 2019-01-14)" sodipodi:docname="n10e.svg"><sodipodi:namedview id="base" pagecolor="#ffffff" bordercolor="#666666" borderopacity="1.0" inkscape:pageopacity="0.0" inkscape:pageshadow="2" inkscape:zoom="1.4" inkscape:cx="217.83705" inkscape:cy="158.31169" inkscape:document-units="px" inkscape:current-layer="layer1" showgrid="true" units="px" inkscape:window-width="1884" inkscape:window-height="1054" inkscape:window-x="0" inkscape:window-y="0" inkscape:window-maximized="1"><inkscape:grid type="xygrid" id="grid817" empspacing="4"/></sodipodi:namedview><metadata id="metadata5"><rdf:RDF><cc:Work><dc:format>image/svg+xml</dc:format><dc:type rdf:resource="http://purl.org/dc/dcmitype/StillImage"/><dc:title/><dc:date>2021</dc:date><dc:creator><cc:Agent><dc:title>Timothée Giet</dc:title></cc:Agent></dc:creator><cc:license rdf:resource="http://creativecommons.org/licenses/by-sa/4.0/"/></cc:Work><cc:License rdf:about="http://creativecommons.org/licenses/by-sa/4.0/"><cc:permits rdf:resource="http://creativecommons.org/ns#Reproduction"/><cc:permits rdf:resource="http://creativecommons.org/ns#Distribution"/><cc:requires rdf:resource="http://creativecommons.org/ns#Notice"/><cc:requires rdf:resource="http://creativecommons.org/ns#Attribution"/><cc:permits rdf:resource="http://creativecommons.org/ns#DerivativeWorks"/><cc:requires rdf:resource="http://creativecommons.org/ns#ShareAlike"/></cc:License></rdf:RDF></metadata><g inkscape:label="Calque 1" inkscape:groupmode="layer" id="layer1" transform="translate(0 -752.56)"><rect style="fill:#6cace8;fill-opacity:1;stroke:none;stroke-width:2;stroke-miterlimit:4;stroke-dasharray:none;stroke-opacity:1" id="rect815" width="512" height="255.99998" x="0" y="752.55908"/><rect style="fill:#1c70bf;fill-opacity:1;stroke:none;stroke-width:2;stroke-miterlimit:4;stroke-dasharray:none;stroke-opacity:1" id="rect821" width="304" height="224" x="192" y="768.55908"/><rect style="fill:#f0f0f0;fill-opacity:1;stroke:none;stroke-width:2;stroke-miterlimit:4;stroke-dasharray:none;stroke-opacity:1" id="rect819" width="176" height="224" x="16" y="768.55908"/><g aria-label="10" style="font-style:normal;font-variant:normal;font-weight:700;font-stretch:normal;font-size:133.33332825px;line-height:1.25;font-family:'Liberation Sans';-inkscape-font-specification:'Liberation Sans Bold';letter-spacing:0;word-spacing:0;fill:#323232;fill-opacity:1;stroke:none;stroke-width:2;stroke-miterlimit:4;stroke-dasharray:none;stroke-opacity:1" id="text902"><path d="M50.224 859.038v-10.885h18.177V798.1l-17.604 10.99V797.58l18.385-11.927h13.854v62.5H99.86v10.885z" style="font-style:normal;font-variant:normal;font-weight:700;font-stretch:normal;font-size:106.66666412px;font-family:'Liberation Sans';-inkscape-font-specification:'Liberation Sans Bold';fill:#323232;fill-opacity:1;stroke:none;stroke-width:2;stroke-miterlimit:4;stroke-dasharray:none;stroke-opacity:1" id="path858"/><path d="M157.776 822.32q0 18.593-6.406 28.177-6.354 9.583-19.115 9.583-25.208 0-25.208-37.76 0-13.178 2.76-21.51 2.76-8.334 8.282-12.293 5.52-3.958 14.583-3.958 13.02 0 19.062 9.427 6.042 9.427 6.042 28.334zm-14.687 0q0-10.157-.99-15.782t-3.177-8.073q-2.188-2.448-6.354-2.448-4.427 0-6.719 2.5-2.24 2.448-3.23 8.073-.937 5.573-.937 15.73 0 10.052.99 15.729 1.042 5.625 3.229 8.073 2.24 2.448 6.458 2.448 4.167 0 6.407-2.553 2.291-2.604 3.28-8.28 1.043-5.678 1.043-15.417z" style="font-style:normal;font-variant:normal;font-weight:700;font-stretch:normal;font-size:106.66666412px;font-family:'Liberation Sans';-inkscape-font-specification:'Liberation Sans Bold';fill:#323232;fill-opacity:1;stroke:none;stroke-width:2;stroke-miterlimit:4;stroke-dasharray:none;stroke-opacity:1" id="path860"/></g><g aria-label="10" style="font-style:normal;font-variant:normal;font-weight:700;font-stretch:normal;font-size:133.33332825px;line-height:1.25;font-family:'Liberation Sans';-inkscape-font-specification:'Liberation Sans Bold';letter-spacing:0;word-spacing:0;fill:#d2d2d2;fill-opacity:1;stroke:none;stroke-width:2;stroke-miterlimit:4;stroke-dasharray:none;stroke-opacity:1" id="text902-6"><path d="M372.448 975.517v-10.885h18.177V914.58l-17.604 10.99v-11.51l18.385-11.928h13.854v62.5h16.823v10.885z" style="font-style:normal;font-variant:normal;font-weight:700;font-stretch:normal;font-size:106.66666412px;font-family:'Liberation Sans';-inkscape-font-specification:'Liberation Sans Bold';fill:#d2d2d2;fill-opacity:1;stroke:none;stroke-width:2;stroke-miterlimit:4;stroke-dasharray:none;stroke-opacity:1" id="path863"/><path d="M480 938.799q0 18.593-6.406 28.177-6.354 9.583-19.115 9.583-25.208 0-25.208-37.76 0-13.177 2.76-21.51 2.76-8.334 8.281-12.292 5.521-3.959 14.584-3.959 13.02 0 19.062 9.427Q480 919.892 480 938.8zm-14.688 0q0-10.157-.99-15.782-.989-5.625-3.176-8.073-2.188-2.447-6.354-2.447-4.427 0-6.72 2.5-2.239 2.447-3.228 8.072-.938 5.573-.938 15.73 0 10.052.99 15.729 1.041 5.625 3.229 8.073 2.24 2.448 6.458 2.448 4.167 0 6.407-2.552 2.291-2.605 3.28-8.282 1.042-5.677 1.042-15.416z" style="font-style:normal;font-variant:normal;font-weight:700;font-stretch:normal;font-size:106.66666412px;font-family:'Liberation Sans';-inkscape-font-specification:'Liberation Sans Bold';fill:#d2d2d2;fill-opacity:1;stroke:none;stroke-width:2;stroke-miterlimit:4;stroke-dasharray:none;stroke-opacity:1" id="path865"/></g></g></svg>