<svg xmlns:dc="http://purl.org/dc/elements/1.1/" xmlns:cc="http://creativecommons.org/ns#" xmlns:rdf="http://www.w3.org/1999/02/22-rdf-syntax-ns#" xmlns="http://www.w3.org/2000/svg" id="svg8" version="1.1" viewBox="0 0 512.00001 256" height="256" width="512"><metadata id="metadata5"><rdf:RDF><cc:Work><dc:format>image/svg+xml</dc:format><dc:type rdf:resource="http://purl.org/dc/dcmitype/StillImage"/><dc:title/><dc:date>2021</dc:date><dc:creator><cc:Agent><dc:title>Timothée Giet</dc:title></cc:Agent></dc:creator><cc:license rdf:resource="http://creativecommons.org/licenses/by-sa/4.0/"/></cc:Work><cc:License rdf:about="http://creativecommons.org/licenses/by-sa/4.0/"><cc:permits rdf:resource="http://creativecommons.org/ns#Reproduction"/><cc:permits rdf:resource="http://creativecommons.org/ns#Distribution"/><cc:requires rdf:resource="http://creativecommons.org/ns#Notice"/><cc:requires rdf:resource="http://creativecommons.org/ns#Attribution"/><cc:permits rdf:resource="http://creativecommons.org/ns#DerivativeWorks"/><cc:requires rdf:resource="http://creativecommons.org/ns#ShareAlike"/></cc:License></rdf:RDF></metadata><g transform="translate(0 -752.56)" id="layer1"><rect y="752.55908" x="0" height="255.99998" width="512" id="rect815" style="fill:#d87c7c;fill-opacity:1;stroke:none;stroke-width:2;stroke-miterlimit:4;stroke-dasharray:none;stroke-opacity:1"/><rect y="768.55908" x="192" height="224" width="304" id="rect821" style="fill:#b03434;fill-opacity:1;stroke:none;stroke-width:2;stroke-miterlimit:4;stroke-dasharray:none;stroke-opacity:1"/><rect y="768.55908" x="16" height="224" width="176" id="rect819" style="fill:#f0f0f0;fill-opacity:1;stroke:none;stroke-width:2;stroke-miterlimit:4;stroke-dasharray:none;stroke-opacity:1"/><g id="text902" style="font-style:normal;font-variant:normal;font-weight:700;font-stretch:normal;font-size:93.33333588px;line-height:1.25;font-family:'Liberation Sans';-inkscape-font-specification:'Liberation Sans Bold';letter-spacing:0;word-spacing:0;fill:#323232;fill-opacity:1;stroke:none;stroke-width:2;stroke-miterlimit:4;stroke-dasharray:none;stroke-opacity:1" aria-label="200"><path id="path827" style="font-style:normal;font-variant:normal;font-weight:700;font-stretch:normal;font-size:93.33333588px;font-family:'Liberation Sans';-inkscape-font-specification:'Liberation Sans Bold';fill:#323232;fill-opacity:1;stroke:none;stroke-width:2;stroke-miterlimit:4;stroke-dasharray:none;stroke-opacity:1" d="M29.67 849.728v-8.886q2.507-5.515 7.11-10.756 4.648-5.24 11.667-10.937 6.744-5.469 9.433-9.024 2.735-3.554 2.735-6.972 0-8.386-8.431-8.386-4.102 0-6.29 2.233-2.141 2.188-2.78 6.609l-12.897-.73q1.094-8.932 6.654-13.626 5.606-4.694 15.221-4.694 10.391 0 15.951 4.74 5.56 4.74 5.56 13.307 0 4.512-1.777 8.157-1.778 3.646-4.558 6.745-2.78 3.054-6.198 5.742-3.372 2.69-6.562 5.241-3.19 2.552-5.834 5.15-2.597 2.598-3.873 5.56h29.804v10.527z"/><path id="path829" style="font-style:normal;font-variant:normal;font-weight:700;font-stretch:normal;font-size:93.33333588px;font-family:'Liberation Sans';-inkscape-font-specification:'Liberation Sans Bold';fill:#323232;fill-opacity:1;stroke:none;stroke-width:2;stroke-miterlimit:4;stroke-dasharray:none;stroke-opacity:1" d="M126.422 817.6q0 16.269-5.606 24.654-5.56 8.386-16.725 8.386-22.057 0-22.057-33.04 0-11.53 2.415-18.822 2.416-7.292 7.246-10.755 4.831-3.464 12.76-3.464 11.394 0 16.68 8.249 5.287 8.248 5.287 24.791zm-12.852 0q0-8.887-.866-13.81-.865-4.921-2.78-7.063-1.914-2.142-5.56-2.142-3.873 0-5.878 2.188-1.96 2.142-2.826 7.063-.82 4.877-.82 13.763 0 8.796.866 13.763.911 4.922 2.825 7.064 1.96 2.142 5.651 2.142 3.646 0 5.606-2.233 2.005-2.279 2.87-7.246.912-4.967.912-13.49z"/><path id="path831" style="font-style:normal;font-variant:normal;font-weight:700;font-stretch:normal;font-size:93.33333588px;font-family:'Liberation Sans';-inkscape-font-specification:'Liberation Sans Bold';fill:#323232;fill-opacity:1;stroke:none;stroke-width:2;stroke-miterlimit:4;stroke-dasharray:none;stroke-opacity:1" d="M178.33 817.6q0 16.269-5.606 24.654-5.56 8.386-16.725 8.386-22.058 0-22.058-33.04 0-11.53 2.416-18.822 2.415-7.292 7.246-10.755 4.83-3.464 12.76-3.464 11.394 0 16.68 8.249 5.286 8.248 5.286 24.791zm-12.852 0q0-8.887-.866-13.81-.866-4.921-2.78-7.063-1.914-2.142-5.56-2.142-3.874 0-5.879 2.188-1.96 2.142-2.825 7.063-.82 4.877-.82 13.763 0 8.796.865 13.763.912 4.922 2.826 7.064 1.96 2.142 5.65 2.142 3.647 0 5.606-2.233 2.006-2.279 2.871-7.246.912-4.967.912-13.49z"/></g><g id="text902-6" style="font-style:normal;font-variant:normal;font-weight:700;font-stretch:normal;font-size:133.33332825px;line-height:1.25;font-family:'Liberation Sans';-inkscape-font-specification:'Liberation Sans Bold';letter-spacing:0;word-spacing:0;fill:#d2d2d2;fill-opacity:1;stroke:none;stroke-width:2;stroke-miterlimit:4;stroke-dasharray:none;stroke-opacity:1" aria-label="200"><path id="path820" style="font-style:normal;font-variant:normal;font-weight:700;font-stretch:normal;font-size:106.66666412px;font-family:'Liberation Sans';-inkscape-font-specification:'Liberation Sans Bold';fill:#d2d2d2;fill-opacity:1;stroke:none;stroke-width:2;stroke-miterlimit:4;stroke-dasharray:none;stroke-opacity:1" d="M310.104 975.517v-10.156q2.865-6.302 8.125-12.292 5.313-5.99 13.334-12.5 7.708-6.25 10.78-10.312 3.126-4.063 3.126-7.969 0-9.583-9.636-9.583-4.687 0-7.187 2.552-2.448 2.5-3.177 7.552l-14.74-.833q1.25-10.209 7.604-15.573 6.407-5.365 17.396-5.365 11.875 0 18.23 5.417 6.353 5.417 6.353 15.208 0 5.156-2.03 9.323-2.032 4.167-5.21 7.708-3.176 3.49-7.082 6.563-3.855 3.073-7.5 5.99-3.646 2.916-6.667 5.885-2.969 2.969-4.427 6.354h34.062v12.031z"/><path id="path822" style="font-style:normal;font-variant:normal;font-weight:700;font-stretch:normal;font-size:106.66666412px;font-family:'Liberation Sans';-inkscape-font-specification:'Liberation Sans Bold';fill:#d2d2d2;fill-opacity:1;stroke:none;stroke-width:2;stroke-miterlimit:4;stroke-dasharray:none;stroke-opacity:1" d="M420.677 938.799q0 18.593-6.406 28.177-6.354 9.583-19.115 9.583-25.208 0-25.208-37.76 0-13.177 2.76-21.51 2.76-8.334 8.282-12.292 5.52-3.959 14.583-3.959 13.02 0 19.062 9.427 6.042 9.427 6.042 28.334zm-14.687 0q0-10.157-.99-15.782t-3.177-8.073q-2.188-2.447-6.354-2.447-4.427 0-6.719 2.5-2.24 2.447-3.23 8.072-.937 5.573-.937 15.73 0 10.052.99 15.729 1.042 5.625 3.23 8.073 2.239 2.448 6.457 2.448 4.167 0 6.407-2.552 2.291-2.605 3.28-8.282 1.043-5.677 1.043-15.416z"/><path id="path824" style="font-style:normal;font-variant:normal;font-weight:700;font-stretch:normal;font-size:106.66666412px;font-family:'Liberation Sans';-inkscape-font-specification:'Liberation Sans Bold';fill:#d2d2d2;fill-opacity:1;stroke:none;stroke-width:2;stroke-miterlimit:4;stroke-dasharray:none;stroke-opacity:1" d="M480 938.799q0 18.593-6.406 28.177-6.354 9.583-19.115 9.583-25.208 0-25.208-37.76 0-13.177 2.76-21.51 2.76-8.334 8.281-12.292 5.521-3.959 14.584-3.959 13.02 0 19.062 9.427Q480 919.892 480 938.8zm-14.688 0q0-10.157-.99-15.782-.989-5.625-3.176-8.073-2.188-2.447-6.354-2.447-4.427 0-6.72 2.5-2.239 2.447-3.228 8.072-.938 5.573-.938 15.73 0 10.052.99 15.729 1.041 5.625 3.229 8.073 2.24 2.448 6.458 2.448 4.167 0 6.407-2.552 2.291-2.605 3.28-8.282 1.042-5.677 1.042-15.416z"/></g></g></svg>