<!--Created with Sodipodi ("http://www.sodipodi.com/")--><svg xmlns:dc="http://purl.org/dc/elements/1.1/" xmlns:cc="http://creativecommons.org/ns#" xmlns:rdf="http://www.w3.org/1999/02/22-rdf-syntax-ns#" xmlns="http://www.w3.org/2000/svg" xmlns:xlink="http://www.w3.org/1999/xlink" xmlns:sodipodi="http://sodipodi.sourceforge.net/DTD/sodipodi-0.dtd" xmlns:inkscape="http://www.inkscape.org/namespaces/inkscape" sodipodi:version="0.32" width="472.33047" height="276.72552" xml:space="preserve" sodipodi:docname="n50e.svg" inkscape:version="0.91 r13725" inkscape:output_extension="org.inkscape.output.svg.inkscape" sodipodi:modified="true" version="1.0"><metadata><rdf:RDF><cc:Work><dc:format>image/svg+xml</dc:format><dc:type rdf:resource="http://purl.org/dc/dcmitype/StillImage"/></cc:Work></rdf:RDF></metadata><defs><linearGradient inkscape:collect="always" xlink:href="#c" id="s" x1="133.53146" y1="147.00903" x2="376.94626" y2="600.33669" gradientTransform="scale(.97467 1.02599)" gradientUnits="userSpaceOnUse"/><linearGradient id="c"><stop style="stop-color:#fafafa;stop-opacity:1" offset="0"/><stop style="stop-color:#d9dad9;stop-opacity:1" offset="1"/></linearGradient><linearGradient id="a"><stop style="stop-color:#008700;stop-opacity:.8" offset="0"/><stop style="stop-color:#fff;stop-opacity:0" offset="1"/></linearGradient><linearGradient inkscape:collect="always" xlink:href="#b" id="B" x1="665.82436" y1="200.47415" x2="651.79147" y2="160.71396" gradientTransform="scale(.9355 1.06895)" gradientUnits="userSpaceOnUse"/><linearGradient inkscape:collect="always" xlink:href="#a" id="e" x1="89.251268" y1="1809.722" x2="36.089504" y2="1809.7225" gradientTransform="scale(5.30144 .18863)" gradientUnits="userSpaceOnUse"/><linearGradient inkscape:collect="always" xlink:href="#a" id="f" x1="89.251268" y1="3187.3679" x2="36.089504" y2="3187.3684" gradientTransform="scale(5.30144 .18863)" gradientUnits="userSpaceOnUse"/><linearGradient inkscape:collect="always" xlink:href="#c" id="y" x1="225.41339" y1="456.77791" x2="261.10724" y2="523.25296" gradientTransform="scale(1.98097 .5048)" gradientUnits="userSpaceOnUse"/><linearGradient inkscape:collect="always" xlink:href="#c" id="x" x1="288.60107" y1="218.15772" x2="307.18491" y2="252.76764" gradientTransform="scale(1.62474 .61548)" gradientUnits="userSpaceOnUse"/><linearGradient inkscape:collect="always" xlink:href="#c" id="w" x1="276.86549" y1="358.0582" x2="338.45017" y2="472.75147" gradientTransform="scale(1.57458 .63509)" gradientUnits="userSpaceOnUse"/><linearGradient inkscape:collect="always" xlink:href="#c" id="j" x1="-292.65283" y1="1745.583" x2="-291.48021" y2="2045.2536" gradientTransform="scale(2.41975 .41327)" gradientUnits="userSpaceOnUse"/><linearGradient inkscape:collect="always" xlink:href="#c" id="k" x1="518.63915" y1="148.20762" x2="606.05052" y2="310.99966" gradientTransform="scale(.7277 1.37418)" gradientUnits="userSpaceOnUse"/><linearGradient inkscape:collect="always" xlink:href="#c" id="l" x1="425.16055" y1="175.34014" x2="442.85372" y2="208.29132" gradientTransform="scale(1.10989 .90099)" gradientUnits="userSpaceOnUse"/><linearGradient inkscape:collect="always" xlink:href="#c" id="m" x1="376.8088" y1="87.098341" x2="623.42589" y2="546.38984" gradientTransform="scale(1.00877 .99131)" gradientUnits="userSpaceOnUse"/><linearGradient inkscape:collect="always" xlink:href="#c" id="n" x1="224.01068" y1="500.40683" x2="385.95739" y2="802.01101" gradientTransform="scale(1.34953 .741)" gradientUnits="userSpaceOnUse"/><linearGradient inkscape:collect="always" xlink:href="#c" id="o" x1="320.48063" y1="347.31269" x2="363.6264" y2="427.66596" gradientTransform="scale(1.06739 .93687)" gradientUnits="userSpaceOnUse"/><linearGradient inkscape:collect="always" xlink:href="#c" id="p" x1="277.26651" y1="183.49175" x2="468.23768" y2="539.15014" gradientTransform="scale(.9825 1.01782)" gradientUnits="userSpaceOnUse"/><linearGradient inkscape:collect="always" xlink:href="#c" id="q" x1="334.93444" y1="194.592" x2="360.10891" y2="241.4761" gradientTransform="scale(1.24331 .8043)" gradientUnits="userSpaceOnUse"/><linearGradient inkscape:collect="always" xlink:href="#c" id="r" x1="400.63964" y1="206.01426" x2="536.13084" y2="458.34859" gradientTransform="scale(1.02236 .97812)" gradientUnits="userSpaceOnUse"/><linearGradient id="b"><stop style="stop-color:#0f0;stop-opacity:1" offset="0"/><stop style="stop-color:#008500;stop-opacity:1" offset="1"/></linearGradient><linearGradient inkscape:collect="always" xlink:href="#c" id="t" x1="460.81283" y1="301.15536" x2="497.75946" y2="369.96354" gradientTransform="scale(.92557 1.08042)" gradientUnits="userSpaceOnUse"/><linearGradient inkscape:collect="always" xlink:href="#c" id="u" x1="328.93027" y1="165.51621" x2="363.78539" y2="230.42922" gradientTransform="scale(1.25616 .79608)" gradientUnits="userSpaceOnUse"/><linearGradient inkscape:collect="always" xlink:href="#c" id="v" x1="79.157386" y1="18.256393" x2="568.21187" y2="929.05525" gradientTransform="scale(1.49205 .67022)" gradientUnits="userSpaceOnUse"/><radialGradient inkscape:collect="always" xlink:href="#b" id="D" spreadMethod="pad" cx="401.72533" cy="448.70355" fx="401.72533" fy="448.70355" r="1.2455822" gradientUnits="userSpaceOnUse"/><radialGradient inkscape:collect="always" xlink:href="#b" id="i" cx="513.66258" cy="156.48968" fx="513.66258" fy="156.48968" r="0.80090976" gradientTransform="scale(1.1665 .85726)" gradientUnits="userSpaceOnUse"/><radialGradient inkscape:collect="always" xlink:href="#a" id="g" spreadMethod="repeat" cx="384.08008" cy="396.53288" fx="384.08008" fy="396.53288" r="3.455389" gradientTransform="scale(.83944 1.19127)" gradientUnits="userSpaceOnUse"/><radialGradient inkscape:collect="always" xlink:href="#b" id="z" cx="414.68132" cy="423.01983" fx="414.68132" fy="423.01983" r="5.6902803" gradientTransform="scale(.86931 1.15034)" gradientUnits="userSpaceOnUse"/><radialGradient inkscape:collect="always" xlink:href="#b" id="A" cx="672.88817" cy="176.63866" fx="672.88817" fy="176.63866" r="52.86936" gradientTransform="scale(.90324 1.10712)" gradientUnits="userSpaceOnUse"/><radialGradient inkscape:collect="always" xlink:href="#a" id="d" spreadMethod="repeat" cx="478.2108" cy="413.6572" fx="478.2108" fy="413.6572" r="3.6046104" gradientTransform="scale(.8757 1.14195)" gradientUnits="userSpaceOnUse"/><radialGradient inkscape:collect="always" xlink:href="#b" id="C" cx="762.53068" cy="138.55941" fx="762.53068" fy="138.55941" r="44.347623" gradientTransform="scale(.6958 1.4372)" gradientUnits="userSpaceOnUse"/><radialGradient inkscape:collect="always" xlink:href="#b" id="h" cx="419.35551" cy="194.57177" fx="419.35551" fy="194.57177" r="1.0380722" gradientTransform="scale(1.44885 .6902)" gradientUnits="userSpaceOnUse"/><radialGradient inkscape:collect="always" xlink:href="#b" id="E" cx="401.89275" cy="448.78551" fx="401.89275" fy="448.78551" r="1.4982861" gradientUnits="userSpaceOnUse"/><radialGradient inkscape:collect="always" xlink:href="#b" id="F" cx="313.41394" cy="609.74523" fx="313.41394" fy="609.74523" r="17.859879" gradientTransform="scale(1.32424 .75515)" gradientUnits="userSpaceOnUse"/><radialGradient inkscape:collect="always" xlink:href="#b" id="G" cx="364.00114" cy="377.87558" fx="364.00114" fy="377.87558" r="55.109396" gradientTransform="scale(1.64036 .60962)" gradientUnits="userSpaceOnUse"/><radialGradient inkscape:collect="always" xlink:href="#b" id="H" cx="634.68984" cy="244.16296" fx="634.68984" fy="244.16296" r="31.809133" gradientTransform="scale(1.02956 .97129)" gradientUnits="userSpaceOnUse"/><radialGradient inkscape:collect="always" xlink:href="#b" id="I" cx="519.45079" cy="249.84995" fx="519.45079" fy="249.84995" r="33.983731" gradientTransform="scale(1.0716 .93318)" gradientUnits="userSpaceOnUse"/><radialGradient inkscape:collect="always" xlink:href="#b" id="J" cx="968.02402" cy="147.51815" fx="968.02402" fy="147.51815" r="32.373679" gradientTransform="scale(.68196 1.46635)" gradientUnits="userSpaceOnUse"/></defs><sodipodi:namedview inkscape:zoom="2.0372718" inkscape:cx="230.45668" inkscape:cy="218.11684" inkscape:window-width="1366" inkscape:window-height="713" inkscape:window-x="-2" inkscape:window-y="-3" inkscape:current-layer="g2227" showgrid="false" inkscape:window-maximized="1"/><g transform="translate(-72.479 -334.647)"><rect y="334.64661" x="72.478668" height="276.65631" width="471.99524" style="font-size:12px;fill:#fbf9fa;fill-opacity:1;fill-rule:evenodd;stroke-width:1"/><rect y="334.86188" x="235.54926" height="276.51025" width="309.00647" style="font-size:12px;fill:#5eb800;fill-opacity:1;fill-rule:evenodd;stroke-width:1"/><path d="M325 351.75v241.251h185V352.224c-.09-.119-.272-.355-.363-.473H325z" style="font-size:12px;fill:url(#d);fill-rule:evenodd;stroke-width:1"/><rect y="334.64667" x="72.478661" height="16.793823" width="471.99521" style="font-size:12px;fill:url(#e);fill-rule:evenodd;stroke-width:1"/><rect y="594.50916" x="72.478661" height="16.793823" width="471.99521" style="font-size:12px;fill:url(#f);fill-rule:evenodd;stroke-width:1"/><path d="M236.25 351.75v241.251h170V352.224l-.334-.473H236.249z" style="font-size:12px;fill:url(#g);fill-rule:evenodd;stroke-width:1"/><path transform="matrix(1.02454 0 0 1.03275 -226.862 290.844)" sodipodi:nodetypes="ccss" d="M608.78 134.08c-.534.329-2.258.904-2.434.852-.369-.08.483-.69.627-1.065.129-.353 2.344-.115 1.808.214z" style="font-size:12px;fill:url(#h);fill-rule:evenodd"/><path transform="matrix(1.02454 0 0 1.03275 -226.862 290.844)" sodipodi:nodetypes="cccc" d="M598.364 133.831c-.005.324.373.93.687.936a8.26 8.26 0 0 1 .895-1.022c.331-.292-1.578-.168-1.582.086z" style="font-size:12px;fill:url(#i);fill-rule:evenodd"/><text transform="matrix(0 -.67997 .66591 0 0 0)" y="804.84631" x="-872.61896" style="font-size:48px;font-style:normal;font-weight:400;writing-mode:lr-tb;text-anchor:start;fill:url(#j);fill-opacity:1;stroke:none;stroke-width:1pt;stroke-linecap:butt;stroke-linejoin:miter;stroke-opacity:1;font-family:URW Gothic L"><tspan style="fill:url(#j)">Gcompris Bank</tspan></text><path transform="matrix(.27488 -.08108 .07615 .3062 53.936 420.65)" sodipodi:nodetypes="ccssssc" d="M408.572 305.714c0-8.17.913-15.088 2.969-23.055 4.537-17.583 8.623-33.529-.998-50.239-6.822-11.849-15.556-13.52-29.233-9.79-6.137 1.673-11.204 12.431-9.497 17.948 5.805 19.828 13.692 25.504 24.343 43.488 2.66 4.492 10.2 17.062 12.416 21.648z" style="font-size:12px;fill:url(#k);fill-rule:evenodd;stroke-width:.5;stroke-linecap:round;stroke-linejoin:round"/><path transform="matrix(.53406 -.15754 .15107 .6075 -97.05 446.056)" sodipodi:nodetypes="cssss" d="M478.366 160.267c-4.098-.13-8.561 2.015-8.307 6.38.207 3.436 2.716 4.581 6.68 4.851 4.56.299 7.315-2.12 7.177-5.414-.107-2.707-1.996-5.71-5.55-5.817z" style="font-size:12px;fill:url(#l);stroke-width:7.35642576;stroke-linecap:round;stroke-linejoin:round;stroke-dashoffset:0"/><path transform="matrix(.53406 -.15754 .15107 .6075 -97.05 446.056)" sodipodi:nodetypes="ccccccccccccccccccsccsccssscs" d="M376.558 226.014c4.267 9.908 19.516 25.644 25.235 40.632 6.09 14.537 26.487 26.401 26.487 25.897 3.273-3.709 4.117-5.755 5.46-8.66 1.819 1.068 4.193 4.17 4.954 8.482 4.185-3.225 5.343-3.093 6.358-9.529.903 4.12 4.575 3.397 4.195 11.202 3.517-2.868 8.06-6.07 9.204-13.671.987 7.093 3.781 5.603 4.654 12.35 9.351-5.338 13.75-15.637 17.188-19.044 3.502-3.216 10.06-12.664 14.006-18.408 2.927-5.751 4.282-12.917 3.1-16.766 3.149-3.938 5.226-9.673 3.328-16.762.253-5.855 2.711-7.093 4.471-11.638 1.304-3.181 4.283-13.722-1.29-17.717-3.983-2.726-7.204.833-9.263.833s-9.007-3.53-9.522-9.074c-4.375-10.837-15.955-23.312-18.271-31.125-1.912-2.952-.62-10.147 3.54-11.04 9.965-2.035 23.743-6.435 15.709 29.813 21.935 27.265 46.043 11.964 46.525 7.54-15.419 5.397-17.14-37.403-41.915-50.44-2.834-1.465-8.059-3.896-18.283-5.413-3.751.002-7.962 1.138-12.385 3.44-10.028-3.871-13.265-5.647-19.786-5.575-5.453.063-13.112 5.293-18.822 5.574-7.18.34-14.045-5.805-22.392-3.894-15.724 3.601-31.034 14.557-37.73 23.925-15.26 21.347 13.706 75.495 15.245 79.069z" style="font-size:12px;fill:url(#m);fill-rule:evenodd;stroke-width:1.70089996;stroke-linecap:round;stroke-linejoin:round"/><path sodipodi:nodetypes="cccc" transform="matrix(.27488 -.08108 .07615 .3062 53.936 420.65)" d="M281.905 388.571c12.698 112.381 125.369 106.552 154.387 16.243-29.026 16.86-42.115-5.006-54.388-5.205-19.78-.305-75.726 35.343-97.391-11.629" style="font-size:12px;fill:url(#n);stroke-width:4.99525023;stroke-linecap:round;stroke-linejoin:round;stroke-dashoffset:0"/><path transform="matrix(.27488 -.08108 .07615 .3062 53.936 420.65)" sodipodi:nodetypes="csssss" d="M340.428 333.044c5.302-3.7 15.755-2.05 21.913 6.174 4.8 6.256 9.973 17.732 7.183 20.007-2.438 2.271-6.826-3.755-12.52-6.21-7.576-3.464-11.006-.982-16.576-7.259-3.692-3.932-3.374-10.358 0-12.712z" style="font-size:12px;fill:url(#o);stroke-width:4.23327684;stroke-linecap:round;stroke-linejoin:round;stroke-dashoffset:0"/><path transform="matrix(.27488 -.08108 .07615 .3062 53.936 420.65)" sodipodi:nodetypes="cssccccsc" d="M254.896 267.186c11.777-33.671 27.81-51.702 47.762-52.6 14.624.04 30.154 16.864 35.384 32.343 6.102 19.012 54.6 63.256 48.938 96.718-29.34-47.937-77.115-32.46-64.127 8.247-23.157-18.117 12.788-43.637 10.147-43.07 4.723-51-3.242-73.563-23.446-20.683-11.099 16.042-36.052 7.482-38.92-8.44-1.369-11.376-9.149-5.757-15.738-12.515z" style="font-size:12px;fill:url(#p);fill-rule:evenodd;stroke-width:.5;stroke-linecap:round;stroke-linejoin:round"/><path transform="matrix(.53406 -.15754 .15107 .6075 -97.05 446.056)" sodipodi:nodetypes="cssss" d="M423.899 159.466c-7.08.733-11.448 4.538-10.173 8.333 1.032 3.225 4.983 6.07 11.217 5.907 7.396-.383 11.45-3.8 10.549-7.936-1.045-3.64-6.36-6.825-11.593-6.304z" style="font-size:12px;fill:url(#q);stroke-width:9.13466835;stroke-linecap:round;stroke-linejoin:round;stroke-dashoffset:0"/><path transform="matrix(.27488 -.08108 .07615 .3062 53.936 420.65)" sodipodi:nodetypes="ccscsc" d="M396.668 220.952c21.722 18.865 17.437 48.38 15 61.978 4.048 5.541 18.205 21.47 35.32 27.991 8.213 3.158 31.202 7.474 47.533-6.737-20.785-7.186-32.867-24.572-46.037-52.165-5.95-13.436-26.792-35.001-51.816-31.067z" style="font-size:12px;fill:url(#r);fill-rule:evenodd;stroke-width:.5;stroke-linecap:round;stroke-linejoin:round"/><path transform="matrix(.27488 -.08108 .07615 .3062 53.936 420.65)" sodipodi:nodetypes="ccccccssc" d="M149.529 280.942c-1.643 6.58-11.295 38.106-18.529 51.058-6.557 11.563-13.17 23.406-23 31 8.537-1.236 80.761-22.468 105-45 20-19 25-87 35-96s27-11 27.596-14.12c-4.093-25.86-30.287-23.275-44.564-17.414-13.655 5.606-46.513 26.297-59.446 40.324-16.706 18.118-21.558 50.106-22.057 50.152z" style="font-size:12px;fill:url(#s);fill-rule:evenodd;stroke-width:.5;stroke-linecap:round;stroke-linejoin:round"/><path transform="matrix(.27488 -.08108 .07615 .3062 53.936 420.65)" sodipodi:nodetypes="cssss" d="M445.843 333.74c3.328 5.302 1.371 16.187-4.056 15.484-7.293-.91-14.019 10.647-17.57 10.04-3.625-.582 4.542-19.954 10.19-25.524 3.537-3.692 9.318-3.374 11.436 0z" style="font-size:12px;fill:url(#t);stroke-width:4.23327684;stroke-linecap:round;stroke-linejoin:round;stroke-dashoffset:0"/><path transform="matrix(.53406 -.15754 .15107 .6075 -97.05 446.056)" sodipodi:nodetypes="ccccsc" d="M440.03 141.67s-.82-2.897-5.076-5.934c-2.814.258-13.95 4.332-17.682 6.96-3.73 2.627-4.918 7.045-8.172 12.641 5.027-4.9 9.7-8.714 14.676-10.817 6.413-2.675 16.253-2.85 16.253-2.85z" style="font-size:12px;fill:url(#u);stroke-width:5.83143187;stroke-linecap:round;stroke-linejoin:round;stroke-dashoffset:0"/><path transform="matrix(.27488 -.08108 .07615 .3062 53.936 420.65)" sodipodi:nodetypes="cscccccccccccccssscsssccccccccs" d="M178.619 227.8c31.307-24.924 49.282-36.157 68.298-38.787 14.61-2.074 22.589 7.342 34.583 6.844 11 3 31.006-11 41.496-10.002 9.99-.999 29.505 8.5 39.004 9.002 24.984-10.988 58.998-1.304 75 21.694 18 21 34 50.306 34 50.306s70 10 91-69c8-48 1-74-10-98-11-21-38-41-66-38s-47 19-60 20-24-2-24-2 1 14 14 18 57 2 68 11 27 42 23 69-22.044 31.405-27 32c-20.044 2.405-40.857-23.628-55-44-15.363-22.129-28.552-36.092-54-37-20.023-.696-42.002 19.597-49.47 19.587-14.492 1.48-38.253-24.056-58.53-22.587-48.723 3.53-86.501 89.256-126.177 89.94-18.324.316-25.823-22.94-26.823-36.94-1-14 15-79 57-80s62 3 76-1 19.527-13.585 22-18c-4.239 1.766-11.064 4.998-25.766 1.587-15.995-3.997-40.358-28.938-89.234-20.587-57 11-101 78-100 109s10 86 48 106 50 14 50 14 7.668-43.42 30.619-62.057z" style="font-size:12px;fill:url(#v);stroke-width:4.99525023;stroke-linecap:round;stroke-linejoin:round;stroke-dashoffset:0"/><path transform="matrix(.53406 -.15754 .15107 .6075 -97.05 446.056)" sodipodi:nodetypes="cccc" d="M426.894 233.408c5.321 38.288 53.644 33.282 68.5 2.998-5.635 7.703-19.664-3.34-24.807-3.408-12.857 1.528-32.543 12.622-41.621 1.84" style="font-size:12px;fill:url(#w);stroke-width:4.99525023;stroke-linecap:round;stroke-linejoin:round;stroke-dashoffset:0"/><path transform="matrix(.53406 -.15754 .15107 .6075 -97.05 446.056)" d="M466.083 143.445s6.306-7.053 8.632-7.492c2.326-.438 12.094 2.555 12.094 2.555s1.18 5.762.24 5.47c-.94-.29-5.258-4.243-8.528-3.667-3.271.576-12.438 3.134-12.438 3.134z" style="font-size:12px;fill:url(#x);stroke-width:4.99525023;stroke-linecap:round;stroke-linejoin:round;stroke-dashoffset:0"/><path transform="matrix(.53406 -.15754 .15107 .6075 -97.05 446.056)" sodipodi:nodetypes="ccscccc" d="M489.884 239.113c0 .901-15.69 7.232-20.056 6.545.53-3.299 2.14-11.479.976-11.47-1.081.008-1.242 7.787-2.475 11.703-12.257 0-28.394-2.922-28.394-6.527 7.996 1.127 22.011-6.038 30.841-6.201 4.261 0 13.27 6.445 19.108 5.95z" style="font-size:12px;fill:url(#y);fill-rule:evenodd"/><path transform="matrix(1.02454 0 0 1.03275 -36.69 -12.932)" sodipodi:nodetypes="csccsss" d="M356.065 411.991c-21.722-.238-34.466 14.715-31.025 53.788 1.247 14.387-72.975 96.598 14.193 107.523l31.927.59c58.82-3.543 47.87-55.822 45.84-61.785-5.984-20.584-25.845-39.978-25.985-51.027-.136-33.735-12.405-49.441-34.95-49.089z" style="font-size:12px;fill:url(#z);fill-rule:evenodd"/><path transform="matrix(1.02454 0 0 1.03275 -294.779 313.876)" sodipodi:nodetypes="cssccscss" d="M643.652 226.244c-10.346 12.627-24.77 22.072-47.986 21.677-23.664-.82-31.12-12.222-29.893-42.205.731-12.755 4.797-23.38 9.398-31.337 2.386-5.968 8.785-8.046 12.724-26.373 6.245 6.21 12.63 8.328 15.172 8.358 4.838.099 16.78-5.677 20.684-10.002 4.548 15.78 9.558 21.12 12.834 24.94 19.952 23.691 9.366 51.627 7.067 54.942z" style="font-size:12px;fill:url(#A);fill-rule:evenodd"/><path transform="matrix(1.02454 0 0 1.03275 -294.779 313.876)" sodipodi:nodetypes="cccccccccccccccccccccc" d="M594.852 209.012c0 11.09 2.522 16.536 1.217 16.536-1.304 0-4.48-5.655-4.48-16.745s4.22-23.206 5.524-23.206c1.305 0-2.26 12.325-2.26 23.415zm37.418-39.432c4.176 3.717 7.69 8.095 8.734 13.482-7.159-6.222-19.12-9.103-26.07-10.732 6.115-.209 15.189.173 17.336-2.75zm-36.642 2.58c2.284 2.12 1.644 3.613 2.467 6.359.36-2.608 4.478-4.59 6.717-6.57-2.853.487-6.332.557-9.184.21zm-16.644-3.858c-2.311 2.656-5.194 6.937-7.995 14.49 5.906-6.64 11.7-7.163 18.232-9.835-5.906-.21-8.09-1.732-10.236-4.655zm45.552-22.757c-2.952 8.709-16.53 16.514-23.618 16.514-4.135 0-12.515-6.318-13.992-15.027 5.505 5.424 11.52 9.143 16.157 9.328 5.128.128 16.694-5.79 21.453-10.815z" style="font-size:12px;fill:url(#B);fill-rule:evenodd"/><path transform="matrix(1.02454 0 0 1.03275 -294.779 313.876)" sodipodi:nodetypes="csccc" d="M566.178 204.005c0 20.593 27.306 21 21.63 28.517-5.168 7.388-37.088-5.987-37.088-26.58 2.088-15.583 4.846-20.437 23.925-49.576 12.895 2.831-8.467 27.045-8.467 47.639z" style="font-size:12px;fill:url(#C);fill-rule:evenodd"/><path transform="matrix(.77762 0 0 .7584 7.325 146.633)" sodipodi:nodetypes="ccccc" d="M402.355 402.453c-6.271.59-11.975 3.335-15.794 6.564-2.335 1.706-5.4-5.722-5.4-11.28 0-7.5 3.051-13.055 10.878-13.055 7.18 0 11.487 8.517 10.316 17.77z" style="font-size:12px;fill:#8eff8f;fill-opacity:1;fill-rule:evenodd"/><path transform="matrix(1.02454 0 0 1.03275 -99.316 -12.627)" sodipodi:nodetypes="ccccc" d="M416.233 449.481c4.613.517 10.489 2.843 14.017 4.708 1.965 1.252 3.523-4.09 3.523-8.17 0-4.327-2.729-10.179-9.315-10.179-6.927 0-9.21 5.073-8.225 13.641z" style="font-size:12px;fill:#8eff8f;fill-opacity:1;fill-rule:evenodd"/><path transform="matrix(1.02454 0 0 1.03275 -99.921 -13.542)" sodipodi:ry="5.3152466" sodipodi:rx="5.3152466" sodipodi:cy="448.78644" sodipodi:cx="401.89166" d="M407.207 448.786a5.315 5.315 0 0 1-5.315 5.316 5.315 5.315 0 0 1-5.316-5.316 5.315 5.315 0 0 1 5.316-5.315 5.315 5.315 0 0 1 5.315 5.315z" style="font-size:12px;fill:url(#D);fill-rule:evenodd" sodipodi:type="arc"/><path transform="matrix(1.02454 0 0 1.03275 -76.323 -14.152)" sodipodi:ry="5.3152466" sodipodi:rx="5.3152466" sodipodi:cy="448.78644" sodipodi:cx="401.89166" d="M407.207 448.786a5.315 5.315 0 0 1-5.315 5.316 5.315 5.315 0 0 1-5.316-5.316 5.315 5.315 0 0 1 5.316-5.315 5.315 5.315 0 0 1 5.315 5.315z" style="font-size:12px;fill:url(#E);fill-rule:evenodd" sodipodi:type="arc"/><path transform="matrix(1.02454 0 0 1.03275 -99.316 -12.627)" sodipodi:nodetypes="ccscs" d="M435.204 458.11c.258 5.931-16.632 14.408-23.073 14.408-5.267 0-17.585-8.165-17.962-13.665-.2-2.64 8.773-9.943 18.36-9.734 7.653 0 22.465 5.133 22.675 8.991z" style="font-size:12px;fill:url(#F);fill-rule:evenodd"/><g style="font-size:12px;fill:url(#G);fill-rule:evenodd" transform="matrix(1.02454 0 0 1.03275 -287.414 318.395)"><path transform="translate(-7.188 -4.375)" sodipodi:nodetypes="csssscsss" d="M662.602 249.841c-9.646 4.88-19.578 19.563-32.31 13.52-8.94-4.146-4.629-14.197-5.136-19.83-.488-12.98-1.649-32.4 6.79-32.347 10.209.062 6.08 4.07 13.474 6.16 8.085 1.962 13.319-8.297 19.427-3.734 4.632 6.334-.225 9.712 5.358 15.88 2.963 3.57 7.546 3.494 10.149 6.407 5.42 5.45-12.034 10.757-17.752 13.945z" style="font-size:12px;fill:url(#H);fill-rule:evenodd"/><path transform="translate(-7.188 -4.375)" sodipodi:nodetypes="cssssssss" d="M550.89 255.401c11.705 1.252 23.477 12.403 33.713 1.139 7.229-7.815.14-17.149-4.087-21.75-9.782-9.963-15.275-28.363-24.293-28.291-7.635.31-6.16 4.483-11.522 8.735-7.206 5.415-11.712 1.005-16.062 7.917-2.652 3.744-1.88 8.628-.753 13.8.793 4.92-.788 5.998-2.47 7.599-5.483 6.183 15.437 9.482 25.475 10.851z" style="font-size:12px;fill:url(#I);fill-rule:evenodd"/></g><path transform="matrix(1.02454 0 0 1.03275 -294.779 313.876)" sodipodi:nodetypes="cscss" d="M649.884 196.25c-.452 24.565-17.893 24.665-13.278 33.111 6.27 11.893 32.913-10.58 32.913-31.174 0-20.176-28.2-47.802-31.27-45.94-19.146 14.241 12.43 23.54 11.635 44.003z" style="font-size:12px;fill:url(#J);fill-rule:evenodd"/><path transform="matrix(1.02454 0 0 1.03275 -99.316 -12.627)" sodipodi:nodetypes="csc" d="M395.346 459.685c2.287-.47 5.255 6.976 14.387 7.284 7.809.284 17.701-6.333 23.96-8.633" style="font-size:12px;fill:none;fill-rule:evenodd;stroke:#008b00;stroke-linecap:round"/><text xml:space="preserve" sodipodi:linespacing="100%" transform="scale(2.69173 2.67994)" y="172.64389" x="135.92352" style="font-size:48px;font-style:italic;font-weight:400;line-height:100%;writing-mode:lr-tb;text-anchor:start;fill:#007100;fill-opacity:1;stroke:#007100;stroke-width:2.56960011;stroke-linecap:round;stroke-linejoin:miter;stroke-dasharray:none;stroke-opacity:1;font-family:Luxi Serif"><tspan style="fill:#007100;fill-opacity:1;stroke:#007100;stroke-width:2.56960011;stroke-linecap:round;stroke-dasharray:none;stroke-opacity:1" sodipodi:role="line" y="172.64389" x="135.92352">50</tspan></text><g style="font-size:136.07972717px;font-style:normal;font-weight:400;line-height:100%;writing-mode:lr-tb;text-anchor:start;fill:#000;fill-opacity:1;stroke:none;font-family:URW Gothic L"><path d="M113.763 407.526c4.386 0 8.461.62 12.226 1.86 3.81 1.197 7.11 2.99 9.9 5.383 2.836 2.392 5.05 5.36 6.645 8.903 1.595 3.544 2.392 7.641 2.392 12.293 0 5.05-.753 9.59-2.259 13.62-1.506 4.032-3.743 7.443-6.71 10.233-2.969 2.791-6.645 4.94-11.03 6.446-4.342 1.461-9.347 2.192-15.017 2.192-2.26 0-4.496-.11-6.711-.332a56.876 56.876 0 0 1-6.313-.997 38.69 38.69 0 0 1-5.714-1.594c-1.816-.665-3.455-1.44-4.917-2.326v-11.429c1.462 1.02 3.167 1.927 5.116 2.725a46.709 46.709 0 0 0 6.246 1.993c2.17.532 4.341.952 6.512 1.263 2.215.265 4.252.398 6.113.398 3.5 0 6.622-.398 9.369-1.196 2.746-.841 5.072-2.126 6.976-3.854 1.905-1.727 3.367-3.898 4.386-6.511 1.019-2.614 1.528-5.714 1.528-9.303 0-6.334-1.95-11.162-5.847-14.485-3.898-3.366-9.568-5.05-17.01-5.05-1.196 0-2.503.067-3.92.2a70.221 70.221 0 0 0-4.186.399 95.262 95.262 0 0 0-3.987.598c-1.24.177-2.326.354-3.256.531l-5.98-3.787 3.654-45.715h45.848v11.03h-35.35l-2.59 27.84c1.417-.265 3.277-.553 5.58-.863 2.349-.31 5.117-.465 8.306-.465" style="font-variant:normal;font-stretch:normal;font-family:Droid Sans;-inkscape-font-specification:Droid Sans" inkscape:connector-curvature="0" transform="translate(0 -6)"/><path d="M221.072 418.423c0 7.84-.575 14.862-1.727 21.063-1.108 6.202-2.924 11.45-5.449 15.748-2.48 4.296-5.692 7.574-9.634 9.834-3.943 2.259-8.727 3.388-14.352 3.388-5.227 0-9.79-1.13-13.688-3.388-3.854-2.26-7.065-5.538-9.635-9.834-2.525-4.297-4.43-9.546-5.714-15.748-1.24-6.201-1.86-13.222-1.86-21.063 0-7.84.553-14.862 1.66-21.063 1.152-6.202 2.947-11.429 5.383-15.681 2.48-4.297 5.67-7.575 9.568-9.834 3.942-2.26 8.704-3.389 14.286-3.389 5.27 0 9.856 1.13 13.754 3.389 3.898 2.215 7.132 5.47 9.7 9.767 2.57 4.253 4.497 9.48 5.782 15.681 1.284 6.202 1.926 13.245 1.926 21.13m-49.767 0c0 6.645.332 12.447.997 17.409.664 4.96 1.727 9.103 3.19 12.425 1.46 3.278 3.366 5.758 5.713 7.442 2.392 1.639 5.294 2.458 8.705 2.458 3.41 0 6.312-.82 8.704-2.458 2.392-1.64 4.341-4.098 5.847-7.376 1.55-3.278 2.658-7.397 3.322-12.358.71-5.006 1.063-10.853 1.064-17.542 0-6.644-.355-12.447-1.064-17.409-.664-4.96-1.772-9.08-3.322-12.358-1.506-3.278-3.455-5.737-5.847-7.376-2.392-1.639-5.294-2.458-8.704-2.458-3.411 0-6.313.82-8.705 2.458-2.347 1.64-4.252 4.098-5.714 7.376-1.462 3.278-2.525 7.397-3.19 12.358-.664 4.962-.996 10.765-.996 17.409" style="font-variant:normal;font-stretch:normal;font-family:Droid Sans;-inkscape-font-specification:Droid Sans" inkscape:connector-curvature="0" transform="translate(0 -6)"/></g></g></svg>