<?xml version="1.0" encoding="UTF-8" standalone="no"?>
<!-- Created with Inkscape (http://www.inkscape.org/) -->

<svg
   xmlns:dc="http://purl.org/dc/elements/1.1/"
   xmlns:cc="http://creativecommons.org/ns#"
   xmlns:rdf="http://www.w3.org/1999/02/22-rdf-syntax-ns#"
   xmlns:svg="http://www.w3.org/2000/svg"
   xmlns="http://www.w3.org/2000/svg"
   xmlns:xlink="http://www.w3.org/1999/xlink"
   xmlns:sodipodi="http://sodipodi.sourceforge.net/DTD/sodipodi-0.dtd"
   xmlns:inkscape="http://www.inkscape.org/namespaces/inkscape"
   width="800"
   height="520"
   viewBox="0 0 211.66666 137.58334"
   version="1.1"
   id="svg1014"
   inkscape:version="0.92.4 (5da689c313, 2019-01-14)"
   sodipodi:docname="background.svg">
  <defs
     id="defs1008">
    <linearGradient
       inkscape:collect="always"
       id="linearGradient1007">
      <stop
         style="stop-color:#5faadd;stop-opacity:1"
         offset="0"
         id="stop1003" />
      <stop
         style="stop-color:#2a7bc8;stop-opacity:0.88627452"
         offset="1"
         id="stop1005" />
    </linearGradient>
    <linearGradient
       inkscape:collect="always"
       xlink:href="#linearGradient1007"
       id="linearGradient1009"
       x1="153.4127"
       y1="159.78731"
       x2="153.4127"
       y2="298.23294"
       gradientUnits="userSpaceOnUse" />
  </defs>
  <sodipodi:namedview
     id="base"
     pagecolor="#ffffff"
     bordercolor="#666666"
     borderopacity="1.0"
     inkscape:pageopacity="0.0"
     inkscape:pageshadow="2"
     inkscape:zoom="0.98994949"
     inkscape:cx="454.79145"
     inkscape:cy="215.94933"
     inkscape:document-units="mm"
     inkscape:current-layer="layer1"
     showgrid="false"
     units="px"
     inkscape:window-width="1884"
     inkscape:window-height="1051"
     inkscape:window-x="0"
     inkscape:window-y="0"
     inkscape:window-maximized="1" />
  <metadata
     id="metadata1011">
    <rdf:RDF>
      <cc:Work
         rdf:about="">
        <dc:format>image/svg+xml</dc:format>
        <dc:type
           rdf:resource="http://purl.org/dc/dcmitype/StillImage" />
        <dc:title />
        <dc:date>2019</dc:date>
        <dc:creator>
          <cc:Agent>
            <dc:title>Timothée Giet</dc:title>
          </cc:Agent>
        </dc:creator>
        <cc:license
           rdf:resource="http://creativecommons.org/licenses/by-sa/4.0/" />
      </cc:Work>
      <cc:License
         rdf:about="http://creativecommons.org/licenses/by-sa/4.0/">
        <cc:permits
           rdf:resource="http://creativecommons.org/ns#Reproduction" />
        <cc:permits
           rdf:resource="http://creativecommons.org/ns#Distribution" />
        <cc:requires
           rdf:resource="http://creativecommons.org/ns#Notice" />
        <cc:requires
           rdf:resource="http://creativecommons.org/ns#Attribution" />
        <cc:permits
           rdf:resource="http://creativecommons.org/ns#DerivativeWorks" />
        <cc:requires
           rdf:resource="http://creativecommons.org/ns#ShareAlike" />
      </cc:License>
    </rdf:RDF>
  </metadata>
  <g
     inkscape:label="Layer 1"
     inkscape:groupmode="layer"
     id="layer1"
     transform="translate(0,-159.41665)">
    <rect
       style="opacity:1;vector-effect:none;fill:url(#linearGradient1009);fill-opacity:1;stroke:#3962ff;stroke-width:0.2654644;stroke-linecap:butt;stroke-linejoin:miter;stroke-miterlimit:4;stroke-dasharray:none;stroke-dashoffset:0;stroke-opacity:1"
       id="rect1559"
       width="211.4012"
       height="137.31787"
       x="0.1327322"
       y="159.54938" />
    <path
       style="fill:#77b7e2;fill-opacity:1;stroke:none;stroke-width:0.16412376px;stroke-linecap:butt;stroke-linejoin:miter;stroke-opacity:1"
       d="m 37.154791,282.15901 c 3.81317,-1.82369 15.418474,-5.05659 15.418474,-5.05659 2.321059,2.48684 12.600042,4.72502 15.086892,4.8908 -5.30528,0.0829 -14.257943,-2.40395 -15.750053,-3.2329 -2.32106,0.33158 -14.755313,3.39869 -14.755313,3.39869 z"
       id="path1561"
       inkscape:connector-curvature="0"
       sodipodi:nodetypes="ccccc" />
    <path
       style="fill:#77b7e2;fill-opacity:1;stroke:none;stroke-width:0.16412376px;stroke-linecap:butt;stroke-linejoin:miter;stroke-opacity:1"
       d="m 122.49918,288.72397 c 3.81317,-1.82369 15.41849,-5.0566 15.41849,-5.0566 2.32107,2.48685 12.60006,4.72502 15.08691,4.89081 -5.30529,0.0829 -14.25795,-2.40396 -15.75007,-3.23291 -2.32106,0.33158 -14.75533,3.3987 -14.75533,3.3987 z"
       id="path1561-3"
       inkscape:connector-curvature="0"
       sodipodi:nodetypes="ccccc" />
    <path
       style="fill:#77b7e2;fill-opacity:1;stroke:none;stroke-width:0.16412376px;stroke-linecap:butt;stroke-linejoin:miter;stroke-opacity:1"
       d="m 76.544496,295.28892 c 3.813171,-1.82369 15.418476,-5.0566 15.418476,-5.0566 2.321064,2.48685 12.600048,4.72503 15.086908,4.89081 -5.30529,0.0829 -14.257957,-2.40395 -15.75007,-3.2329 -2.321058,0.33158 -14.755314,3.39869 -14.755314,3.39869 z"
       id="path1561-6"
       inkscape:connector-curvature="0"
       sodipodi:nodetypes="ccccc" />
    <path
       style="fill:#77b7e2;fill-opacity:1;stroke:none;stroke-width:0.16412376px;stroke-linecap:butt;stroke-linejoin:miter;stroke-opacity:1"
       d="m 86.391923,275.59406 c 3.81317,-1.82369 15.418477,-5.0566 15.418477,-5.0566 2.32107,2.48685 12.60006,4.72502 15.08691,4.89081 -5.30528,0.0829 -14.25796,-2.40395 -15.75007,-3.23291 -2.321056,0.33158 -14.755317,3.3987 -14.755317,3.3987 z"
       id="path1561-6-5"
       inkscape:connector-curvature="0"
       sodipodi:nodetypes="ccccc" />
    <path
       style="fill:#77b7e2;fill-opacity:1;stroke:none;stroke-width:0.16412376px;stroke-linecap:butt;stroke-linejoin:miter;stroke-opacity:1"
       d="m 53.567169,259.18167 c 3.81317,-1.82369 15.418473,-5.0566 15.418473,-5.0566 2.32106,2.48685 12.600042,4.72503 15.086893,4.89081 -5.305281,0.0829 -14.257944,-2.40395 -15.750054,-3.2329 -2.32106,0.33158 -14.755312,3.39869 -14.755312,3.39869 z"
       id="path1561-62"
       inkscape:connector-curvature="0"
       sodipodi:nodetypes="ccccc" />
    <path
       style="fill:#77b7e2;fill-opacity:1;stroke:none;stroke-width:0.16412376px;stroke-linecap:butt;stroke-linejoin:miter;stroke-opacity:1"
       d="m 132.34662,269.0291 c 3.81317,-1.82369 15.41849,-5.05659 15.41849,-5.05659 2.32106,2.48684 12.60005,4.72502 15.0869,4.8908 -5.30529,0.0829 -14.25795,-2.40395 -15.75006,-3.2329 -2.32106,0.33158 -14.75533,3.39869 -14.75533,3.39869 z"
       id="path1561-3-3"
       inkscape:connector-curvature="0"
       sodipodi:nodetypes="ccccc" />
    <path
       style="fill:#77b7e2;fill-opacity:1;stroke:none;stroke-width:0.16412376px;stroke-linecap:butt;stroke-linejoin:miter;stroke-opacity:1"
       d="m 96.239353,255.89919 c 3.813167,-1.82368 15.418487,-5.05659 15.418487,-5.05659 2.32107,2.48685 12.60006,4.72502 15.08691,4.8908 -5.30529,0.0829 -14.25796,-2.40395 -15.75007,-3.2329 -2.32106,0.33158 -14.755327,3.39869 -14.755327,3.39869 z"
       id="path1561-6-5-0"
       inkscape:connector-curvature="0"
       sodipodi:nodetypes="ccccc" />
    <path
       style="fill:#77b7e2;fill-opacity:1;stroke:none;stroke-width:0.16412376px;stroke-linecap:butt;stroke-linejoin:miter;stroke-opacity:1"
       d="m 63.414595,239.48681 c 3.813168,-1.82369 15.418473,-5.0566 15.418473,-5.0566 2.321063,2.48685 12.600047,4.72502 15.086896,4.89081 -5.305285,0.0829 -14.257944,-2.40395 -15.750057,-3.23291 -2.321057,0.33158 -14.755312,3.3987 -14.755312,3.3987 z"
       id="path1561-62-6"
       inkscape:connector-curvature="0"
       sodipodi:nodetypes="ccccc" />
    <path
       style="fill:#77b7e2;fill-opacity:1;stroke:none;stroke-width:0.16412376px;stroke-linecap:butt;stroke-linejoin:miter;stroke-opacity:1"
       d="m 4.330038,272.31158 c 3.8131668,-1.82369 15.418471,-5.0566 15.418471,-5.0566 2.321063,2.48685 12.600045,4.72502 15.086892,4.89081 -5.30528,0.0829 -14.25794,-2.40395 -15.750053,-3.2329 -2.321056,0.33158 -14.75531,3.39869 -14.75531,3.39869 z"
       id="path1561-3-2"
       inkscape:connector-curvature="0"
       sodipodi:nodetypes="ccccc" />
    <path
       style="fill:#77b7e2;fill-opacity:1;stroke:none;stroke-width:0.16412376px;stroke-linecap:butt;stroke-linejoin:miter;stroke-opacity:1"
       d="m 14.177463,252.61672 c 3.813167,-1.82369 15.418473,-5.0566 15.418473,-5.0566 2.321062,2.48685 12.600045,4.72502 15.086892,4.8908 -5.305281,0.0829 -14.257941,-2.40395 -15.750054,-3.2329 -2.321056,0.33158 -14.755311,3.3987 -14.755311,3.3987 z"
       id="path1561-3-3-8"
       inkscape:connector-curvature="0"
       sodipodi:nodetypes="ccccc" />
    <path
       style="fill:#77b7e2;fill-opacity:1;stroke:none;stroke-width:0.16412376px;stroke-linecap:butt;stroke-linejoin:miter;stroke-opacity:1"
       d="m 17.459937,232.92185 c 3.813172,-1.82369 15.418474,-5.05659 15.418474,-5.05659 2.32106,2.48684 12.600043,4.72502 15.086894,4.8908 -5.305281,0.0829 -14.257945,-2.40395 -15.750055,-3.2329 -2.32106,0.33158 -14.755313,3.39869 -14.755313,3.39869 z"
       id="path1561-9"
       inkscape:connector-curvature="0"
       sodipodi:nodetypes="ccccc" />
    <path
       style="fill:#77b7e2;fill-opacity:1;stroke:none;stroke-width:0.16412376px;stroke-linecap:butt;stroke-linejoin:miter;stroke-opacity:1"
       d="m 109.36927,232.92185 c 3.81317,-1.82369 15.41849,-5.05659 15.41849,-5.05659 2.32106,2.48684 12.60006,4.72502 15.08691,4.8908 -5.30529,0.0829 -14.25796,-2.40395 -15.75008,-3.2329 -2.32105,0.33158 -14.75532,3.39869 -14.75532,3.39869 z"
       id="path1561-3-20"
       inkscape:connector-curvature="0"
       sodipodi:nodetypes="ccccc" />
    <path
       style="fill:#77b7e2;fill-opacity:1;stroke:none;stroke-width:0.16412376px;stroke-linecap:butt;stroke-linejoin:miter;stroke-opacity:1"
       d="m 63.414594,239.48681 c 3.813171,-1.82369 15.418474,-5.0566 15.418474,-5.0566 2.321063,2.48685 12.600047,4.72502 15.086896,4.89081 -5.305285,0.0829 -14.257944,-2.40395 -15.750057,-3.23291 -2.321057,0.33158 -14.755313,3.3987 -14.755313,3.3987 z"
       id="path1561-6-2"
       inkscape:connector-curvature="0"
       sodipodi:nodetypes="ccccc" />
    <path
       style="fill:#77b7e2;fill-opacity:1;stroke:none;stroke-width:0.16412376px;stroke-linecap:butt;stroke-linejoin:miter;stroke-opacity:1"
       d="m 73.262022,219.79194 c 3.813167,-1.82368 15.418472,-5.05659 15.418472,-5.05659 2.321065,2.48685 12.600056,4.72502 15.086896,4.8908 -5.305279,0.0829 -14.257944,-2.40395 -15.750057,-3.2329 -2.321057,0.33158 -14.755311,3.39869 -14.755311,3.39869 z"
       id="path1561-6-5-3"
       inkscape:connector-curvature="0"
       sodipodi:nodetypes="ccccc" />
    <path
       style="fill:#77b7e2;fill-opacity:1;stroke:none;stroke-width:0.16412376px;stroke-linecap:butt;stroke-linejoin:miter;stroke-opacity:1"
       d="m 33.872315,216.50947 c 3.813168,-1.82369 15.418474,-5.0566 15.418474,-5.0566 2.321062,2.48685 12.600046,4.72502 15.086891,4.8908 -5.30528,0.0829 -14.257939,-2.40395 -15.750052,-3.2329 -2.321058,0.33158 -14.755313,3.3987 -14.755313,3.3987 z"
       id="path1561-3-2-5"
       inkscape:connector-curvature="0"
       sodipodi:nodetypes="ccccc" />
    <path
       style="fill:#77b7e2;fill-opacity:1;stroke:none;stroke-width:0.16412376px;stroke-linecap:butt;stroke-linejoin:miter;stroke-opacity:1"
       d="m 142.92996,247.86242 c 3.81317,-1.82369 15.41849,-5.05659 15.41849,-5.05659 2.32106,2.48684 12.60005,4.72502 15.0869,4.8908 -5.30529,0.0829 -14.25795,-2.40395 -15.75006,-3.2329 -2.32106,0.33158 -14.75533,3.39869 -14.75533,3.39869 z"
       id="path1561-3-3-6"
       inkscape:connector-curvature="0"
       sodipodi:nodetypes="ccccc" />
    <path
       style="fill:#77b7e2;fill-opacity:1;stroke:none;stroke-width:0.16412376px;stroke-linecap:butt;stroke-linejoin:miter;stroke-opacity:1"
       d="m 84.779794,202.78396 c 3.81317,-1.82369 15.418476,-5.05659 15.418476,-5.05659 2.32106,2.48684 12.60004,4.72502 15.0869,4.8908 -5.30529,0.0829 -14.25795,-2.40395 -15.750063,-3.2329 -2.32106,0.33158 -14.755313,3.39869 -14.755313,3.39869 z"
       id="path1561-1"
       inkscape:connector-curvature="0"
       sodipodi:nodetypes="ccccc" />
    <path
       style="fill:#77b7e2;fill-opacity:1;stroke:none;stroke-width:0.16412376px;stroke-linecap:butt;stroke-linejoin:miter;stroke-opacity:1"
       d="m 170.12421,209.34892 c 3.81317,-1.82369 15.41849,-5.0566 15.41849,-5.0566 2.32107,2.48685 12.60006,4.72502 15.08691,4.89081 -5.30529,0.0829 -14.25795,-2.40396 -15.75007,-3.23291 -2.32106,0.33158 -14.75533,3.3987 -14.75533,3.3987 z"
       id="path1561-3-8"
       inkscape:connector-curvature="0"
       sodipodi:nodetypes="ccccc" />
    <path
       style="fill:#77b7e2;fill-opacity:1;stroke:none;stroke-width:0.16412376px;stroke-linecap:butt;stroke-linejoin:miter;stroke-opacity:1"
       d="m 124.16951,215.91387 c 3.81317,-1.82369 15.41849,-5.0566 15.41849,-5.0566 2.32106,2.48685 12.60005,4.72503 15.08691,4.89081 -5.30529,0.0829 -14.25796,-2.40395 -15.75008,-3.2329 -2.32106,0.33158 -14.75532,3.39869 -14.75532,3.39869 z"
       id="path1561-6-7"
       inkscape:connector-curvature="0"
       sodipodi:nodetypes="ccccc" />
    <path
       style="fill:#77b7e2;fill-opacity:1;stroke:none;stroke-width:0.16412376px;stroke-linecap:butt;stroke-linejoin:miter;stroke-opacity:1"
       d="m 134.01694,196.21901 c 3.81318,-1.82369 15.41849,-5.0566 15.41849,-5.0566 2.32107,2.48685 12.60006,4.72502 15.08691,4.89081 -5.30528,0.0829 -14.25796,-2.40395 -15.75007,-3.23291 -2.32106,0.33158 -14.75533,3.3987 -14.75533,3.3987 z"
       id="path1561-6-5-9"
       inkscape:connector-curvature="0"
       sodipodi:nodetypes="ccccc" />
    <path
       style="fill:#77b7e2;fill-opacity:1;stroke:none;stroke-width:0.16412376px;stroke-linecap:butt;stroke-linejoin:miter;stroke-opacity:1"
       d="m 101.19217,179.80662 c 3.81317,-1.82369 15.41848,-5.0566 15.41848,-5.0566 2.32106,2.48685 12.60005,4.72503 15.0869,4.89081 -5.30528,0.0829 -14.25795,-2.40395 -15.75006,-3.2329 -2.32106,0.33158 -14.75532,3.39869 -14.75532,3.39869 z"
       id="path1561-62-2"
       inkscape:connector-curvature="0"
       sodipodi:nodetypes="ccccc" />
    <path
       style="fill:#77b7e2;fill-opacity:1;stroke:none;stroke-width:0.16412376px;stroke-linecap:butt;stroke-linejoin:miter;stroke-opacity:1"
       d="m 179.97165,189.65405 c 3.81317,-1.82369 15.41849,-5.05659 15.41849,-5.05659 2.32106,2.48684 12.60005,4.72502 15.0869,4.8908 -5.30529,0.0829 -14.25795,-2.40395 -15.75006,-3.2329 -2.32106,0.33158 -14.75533,3.39869 -14.75533,3.39869 z"
       id="path1561-3-3-0"
       inkscape:connector-curvature="0"
       sodipodi:nodetypes="ccccc" />
    <path
       style="fill:#77b7e2;fill-opacity:1;stroke:none;stroke-width:0.16412376px;stroke-linecap:butt;stroke-linejoin:miter;stroke-opacity:1"
       d="m 143.86438,176.52414 c 3.81317,-1.82368 15.41849,-5.05659 15.41849,-5.05659 2.32107,2.48685 12.60006,4.72502 15.08691,4.8908 -5.30529,0.0829 -14.25796,-2.40395 -15.75007,-3.2329 -2.32106,0.33158 -14.75533,3.39869 -14.75533,3.39869 z"
       id="path1561-6-5-0-2"
       inkscape:connector-curvature="0"
       sodipodi:nodetypes="ccccc" />
    <path
       style="fill:#77b7e2;fill-opacity:1;stroke:none;stroke-width:0.16412376px;stroke-linecap:butt;stroke-linejoin:miter;stroke-opacity:1"
       d="m 169.24797,297.69518 c 3.81317,-1.82369 15.41848,-5.0566 15.41848,-5.0566 2.32107,2.48685 12.60006,4.72502 15.08691,4.89081 -5.30529,0.0829 -14.25795,-2.40395 -15.75007,-3.23291 -2.32106,0.33158 -14.75532,3.3987 -14.75532,3.3987 z"
       id="path1561-62-6-3"
       inkscape:connector-curvature="0"
       sodipodi:nodetypes="ccccc" />
    <path
       style="fill:#77b7e2;fill-opacity:1;stroke:none;stroke-width:0.16412376px;stroke-linecap:butt;stroke-linejoin:miter;stroke-opacity:1"
       d="m 51.95504,192.93653 c 3.813167,-1.82369 15.418472,-5.0566 15.418472,-5.0566 2.321063,2.48685 12.600044,4.72502 15.086892,4.89081 -5.30528,0.0829 -14.25794,-2.40395 -15.750053,-3.2329 -2.321056,0.33158 -14.755311,3.39869 -14.755311,3.39869 z"
       id="path1561-3-2-7"
       inkscape:connector-curvature="0"
       sodipodi:nodetypes="ccccc" />
    <path
       style="fill:#77b7e2;fill-opacity:1;stroke:none;stroke-width:0.16412376px;stroke-linecap:butt;stroke-linejoin:miter;stroke-opacity:1"
       d="m 61.802466,173.24167 c 3.813167,-1.82369 15.418473,-5.0566 15.418473,-5.0566 2.321063,2.48685 12.600046,4.72502 15.086891,4.8908 -5.305279,0.0829 -14.25794,-2.40395 -15.750053,-3.2329 -2.321056,0.33158 -14.755311,3.3987 -14.755311,3.3987 z"
       id="path1561-3-3-8-5"
       inkscape:connector-curvature="0"
       sodipodi:nodetypes="ccccc" />
    <path
       style="fill:#77b7e2;fill-opacity:1;stroke:none;stroke-width:0.16412376px;stroke-linecap:butt;stroke-linejoin:miter;stroke-opacity:1"
       d="m -19.58173,222.33851 c 3.813171,-1.82369 15.4184719,-5.05659 15.4184719,-5.05659 2.32106,2.48684 12.6000424,4.72502 15.0868961,4.8908 -5.3052827,0.0829 -14.2579461,-2.40395 -15.750055,-3.2329 -2.3210608,0.33158 -14.755313,3.39869 -14.755313,3.39869 z"
       id="path1561-9-9"
       inkscape:connector-curvature="0"
       sodipodi:nodetypes="ccccc" />
    <path
       style="fill:#77b7e2;fill-opacity:1;stroke:none;stroke-width:0.16412376px;stroke-linecap:butt;stroke-linejoin:miter;stroke-opacity:1"
       d="m 156.9943,227.63018 c 3.81317,-1.82369 15.41849,-5.05659 15.41849,-5.05659 2.32106,2.48684 12.60006,4.72502 15.08691,4.8908 -5.30529,0.0829 -14.25796,-2.40395 -15.75008,-3.2329 -2.32105,0.33158 -14.75532,3.39869 -14.75532,3.39869 z"
       id="path1561-3-20-2"
       inkscape:connector-curvature="0"
       sodipodi:nodetypes="ccccc" />
    <path
       style="fill:#77b7e2;fill-opacity:1;stroke:none;stroke-width:0.16412376px;stroke-linecap:butt;stroke-linejoin:miter;stroke-opacity:1"
       d="m 169.24797,297.69518 c 3.81318,-1.82369 15.41848,-5.0566 15.41848,-5.0566 2.32107,2.48685 12.60006,4.72502 15.08691,4.89081 -5.30529,0.0829 -14.25795,-2.40395 -15.75007,-3.23291 -2.32106,0.33158 -14.75532,3.3987 -14.75532,3.3987 z"
       id="path1561-6-2-2"
       inkscape:connector-curvature="0"
       sodipodi:nodetypes="ccccc" />
    <path
       style="fill:#77b7e2;fill-opacity:1;stroke:none;stroke-width:0.16412376px;stroke-linecap:butt;stroke-linejoin:miter;stroke-opacity:1"
       d="m 179.09541,278.00031 c 3.81317,-1.82368 15.41848,-5.05659 15.41848,-5.05659 2.32106,2.48685 12.60006,4.72502 15.0869,4.8908 -5.30528,0.0829 -14.25795,-2.40395 -15.75007,-3.2329 -2.32105,0.33158 -14.75531,3.39869 -14.75531,3.39869 z"
       id="path1561-6-5-3-8"
       inkscape:connector-curvature="0"
       sodipodi:nodetypes="ccccc" />
    <path
       style="fill:#77b7e2;fill-opacity:1;stroke:none;stroke-width:0.16412376px;stroke-linecap:butt;stroke-linejoin:miter;stroke-opacity:1"
       d="m -3.1693531,205.92613 c 3.81316673,-1.82369 15.4184741,-5.0566 15.4184741,-5.0566 2.321062,2.48685 12.600044,4.72502 15.086891,4.8908 -5.305277,0.0829 -14.257939,-2.40395 -15.750054,-3.2329 -2.3210567,0.33158 -14.7553111,3.3987 -14.7553111,3.3987 z"
       id="path1561-3-2-5-9"
       inkscape:connector-curvature="0"
       sodipodi:nodetypes="ccccc" />
    <path
       style="fill:#77b7e2;fill-opacity:1;stroke:none;stroke-width:0.16412376px;stroke-linecap:butt;stroke-linejoin:miter;stroke-opacity:1"
       d="m 190.55499,168.48737 c 3.81317,-1.82369 15.41849,-5.05659 15.41849,-5.05659 2.32106,2.48684 12.60005,4.72502 15.0869,4.8908 -5.30529,0.0829 -14.25795,-2.40395 -15.75006,-3.2329 -2.32106,0.33158 -14.75533,3.39869 -14.75533,3.39869 z"
       id="path1561-3-3-6-7"
       inkscape:connector-curvature="0"
       sodipodi:nodetypes="ccccc" />
    <path
       style="fill:#77b7e2;fill-opacity:1;stroke:none;stroke-width:0.16412376px;stroke-linecap:butt;stroke-linejoin:miter;stroke-opacity:1"
       d="m 190.41465,255.36182 c 3.81317,-1.82369 15.41848,-5.0566 15.41848,-5.0566 2.32107,2.48685 12.60006,4.72502 15.08691,4.89081 -5.30529,0.0829 -14.25795,-2.40395 -15.75007,-3.23291 -2.32106,0.33158 -14.75532,3.3987 -14.75532,3.3987 z"
       id="path1561-62-6-3-3"
       inkscape:connector-curvature="0"
       sodipodi:nodetypes="ccccc" />
    <path
       style="fill:#77b7e2;fill-opacity:1;stroke:none;stroke-width:0.16412376px;stroke-linecap:butt;stroke-linejoin:miter;stroke-opacity:1"
       d="m 190.41465,255.36182 c 3.81318,-1.82369 15.41848,-5.0566 15.41848,-5.0566 2.32107,2.48685 12.60006,4.72502 15.08691,4.89081 -5.30529,0.0829 -14.25795,-2.40395 -15.75007,-3.23291 -2.32106,0.33158 -14.75532,3.3987 -14.75532,3.3987 z"
       id="path1561-6-2-2-6"
       inkscape:connector-curvature="0"
       sodipodi:nodetypes="ccccc" />
    <path
       style="fill:#77b7e2;fill-opacity:1;stroke:none;stroke-width:0.16412376px;stroke-linecap:butt;stroke-linejoin:miter;stroke-opacity:1"
       d="m 200.26209,235.66695 c 3.81317,-1.82368 15.41848,-5.05659 15.41848,-5.05659 2.32106,2.48685 12.60006,4.72502 15.0869,4.8908 -5.30528,0.0829 -14.25795,-2.40395 -15.75007,-3.2329 -2.32105,0.33158 -14.75531,3.39869 -14.75531,3.39869 z"
       id="path1561-6-5-3-8-1"
       inkscape:connector-curvature="0"
       sodipodi:nodetypes="ccccc" />
    <path
       style="fill:#77b7e2;fill-opacity:1;stroke:none;stroke-width:0.16412376px;stroke-linecap:butt;stroke-linejoin:miter;stroke-opacity:1"
       d="m 6.8766038,185.29682 c 3.8131712,-1.82369 15.4184722,-5.05659 15.4184722,-5.05659 2.32106,2.48684 12.600044,4.72502 15.086897,4.8908 -5.305282,0.0829 -14.257947,-2.40395 -15.750056,-3.2329 -2.321061,0.33158 -14.7553132,3.39869 -14.7553132,3.39869 z"
       id="path1561-9-9-2"
       inkscape:connector-curvature="0"
       sodipodi:nodetypes="ccccc" />
    <path
       style="fill:#77b7e2;fill-opacity:1;stroke:none;stroke-width:0.16412376px;stroke-linecap:butt;stroke-linejoin:miter;stroke-opacity:1"
       d="m 23.288981,168.88444 c 3.813167,-1.82369 15.418475,-5.0566 15.418475,-5.0566 2.321063,2.48685 12.600043,4.72502 15.086891,4.8908 -5.305277,0.0829 -14.257938,-2.40395 -15.750053,-3.2329 -2.321057,0.33158 -14.755313,3.3987 -14.755313,3.3987 z"
       id="path1561-3-2-5-9-9"
       inkscape:connector-curvature="0"
       sodipodi:nodetypes="ccccc" />
  </g>
</svg>
