<!--Created with Inkscape (http://www.inkscape.org/)--><svg xmlns:dc="http://purl.org/dc/elements/1.1/" xmlns:cc="http://creativecommons.org/ns#" xmlns:rdf="http://www.w3.org/1999/02/22-rdf-syntax-ns#" xmlns="http://www.w3.org/2000/svg" xmlns:xlink="http://www.w3.org/1999/xlink" xmlns:sodipodi="http://sodipodi.sourceforge.net/DTD/sodipodi-0.dtd" xmlns:inkscape="http://www.inkscape.org/namespaces/inkscape" width="800" height="520" viewBox="0 0 211.66666 137.58334" inkscape:version="0.92.4 (5da689c313, 2019-01-14)" sodipodi:docname="background.svg"><defs><linearGradient inkscape:collect="always" id="a"><stop style="stop-color:#5faadd;stop-opacity:1" offset="0"/><stop style="stop-color:#2a7bc8;stop-opacity:.88627452" offset="1"/></linearGradient><linearGradient inkscape:collect="always" xlink:href="#a" id="b" x1="153.4127" y1="159.78731" x2="153.4127" y2="298.23294" gradientUnits="userSpaceOnUse"/></defs><sodipodi:namedview pagecolor="#ffffff" bordercolor="#666666" borderopacity="1.0" inkscape:pageopacity="0.0" inkscape:pageshadow="2" inkscape:zoom="0.98994949" inkscape:cx="454.79145" inkscape:cy="215.94933" inkscape:document-units="mm" inkscape:current-layer="layer1" showgrid="false" units="px" inkscape:window-width="1884" inkscape:window-height="1051" inkscape:window-x="0" inkscape:window-y="0" inkscape:window-maximized="1"/><metadata><rdf:RDF><cc:Work><dc:format>image/svg+xml</dc:format><dc:type rdf:resource="http://purl.org/dc/dcmitype/StillImage"/><dc:title/><dc:date>2019</dc:date><dc:creator><cc:Agent><dc:title>Timothée Giet</dc:title></cc:Agent></dc:creator><cc:license rdf:resource="http://creativecommons.org/licenses/by-sa/4.0/"/></cc:Work><cc:License rdf:about="http://creativecommons.org/licenses/by-sa/4.0/"><cc:permits rdf:resource="http://creativecommons.org/ns#Reproduction"/><cc:permits rdf:resource="http://creativecommons.org/ns#Distribution"/><cc:requires rdf:resource="http://creativecommons.org/ns#Notice"/><cc:requires rdf:resource="http://creativecommons.org/ns#Attribution"/><cc:permits rdf:resource="http://creativecommons.org/ns#DerivativeWorks"/><cc:requires rdf:resource="http://creativecommons.org/ns#ShareAlike"/></cc:License></rdf:RDF></metadata><g inkscape:label="Layer 1" inkscape:groupmode="layer" transform="translate(0 -159.417)"><rect style="opacity:1;vector-effect:none;fill:url(#b);fill-opacity:1;stroke:#3962ff;stroke-width:.2654644;stroke-linecap:butt;stroke-linejoin:miter;stroke-miterlimit:4;stroke-dasharray:none;stroke-dashoffset:0;stroke-opacity:1" width="211.4012" height="137.31787" x="0.1327322" y="159.54938"/><path style="fill:#77b7e2;fill-opacity:1;stroke:none;stroke-width:.16412376px;stroke-linecap:butt;stroke-linejoin:miter;stroke-opacity:1" d="M37.155 282.159c3.813-1.824 15.418-5.057 15.418-5.057 2.321 2.487 12.6 4.725 15.087 4.891-5.305.083-14.258-2.404-15.75-3.233-2.321.332-14.755 3.399-14.755 3.399z" inkscape:connector-curvature="0" sodipodi:nodetypes="ccccc"/><path style="fill:#77b7e2;fill-opacity:1;stroke:none;stroke-width:.16412376px;stroke-linecap:butt;stroke-linejoin:miter;stroke-opacity:1" d="M122.5 288.724c3.812-1.824 15.418-5.057 15.418-5.057 2.32 2.487 12.6 4.725 15.087 4.891-5.306.083-14.258-2.404-15.75-3.233-2.322.332-14.756 3.399-14.756 3.399z" inkscape:connector-curvature="0" sodipodi:nodetypes="ccccc"/><path style="fill:#77b7e2;fill-opacity:1;stroke:none;stroke-width:.16412376px;stroke-linecap:butt;stroke-linejoin:miter;stroke-opacity:1" d="M76.544 295.289c3.814-1.824 15.419-5.057 15.419-5.057 2.321 2.487 12.6 4.725 15.087 4.891-5.305.083-14.258-2.404-15.75-3.233-2.321.332-14.756 3.399-14.756 3.399z" inkscape:connector-curvature="0" sodipodi:nodetypes="ccccc"/><path style="fill:#77b7e2;fill-opacity:1;stroke:none;stroke-width:.16412376px;stroke-linecap:butt;stroke-linejoin:miter;stroke-opacity:1" d="M86.392 275.594c3.813-1.824 15.418-5.057 15.418-5.057 2.321 2.487 12.6 4.725 15.087 4.891-5.305.083-14.258-2.404-15.75-3.233-2.32.332-14.755 3.4-14.755 3.4z" inkscape:connector-curvature="0" sodipodi:nodetypes="ccccc"/><path style="fill:#77b7e2;fill-opacity:1;stroke:none;stroke-width:.16412376px;stroke-linecap:butt;stroke-linejoin:miter;stroke-opacity:1" d="M53.567 259.182c3.813-1.824 15.419-5.057 15.419-5.057 2.32 2.487 12.6 4.725 15.087 4.89-5.306.084-14.258-2.403-15.75-3.232-2.322.332-14.756 3.399-14.756 3.399z" inkscape:connector-curvature="0" sodipodi:nodetypes="ccccc"/><path style="fill:#77b7e2;fill-opacity:1;stroke:none;stroke-width:.16412376px;stroke-linecap:butt;stroke-linejoin:miter;stroke-opacity:1" d="M132.347 269.03c3.813-1.825 15.418-5.057 15.418-5.057 2.321 2.486 12.6 4.725 15.087 4.89-5.305.083-14.258-2.404-15.75-3.233-2.321.332-14.755 3.4-14.755 3.4z" inkscape:connector-curvature="0" sodipodi:nodetypes="ccccc"/><path style="fill:#77b7e2;fill-opacity:1;stroke:none;stroke-width:.16412376px;stroke-linecap:butt;stroke-linejoin:miter;stroke-opacity:1" d="M96.24 255.9c3.813-1.824 15.418-5.057 15.418-5.057 2.32 2.486 12.6 4.725 15.087 4.89-5.306.083-14.258-2.404-15.75-3.232-2.321.331-14.756 3.398-14.756 3.398z" inkscape:connector-curvature="0" sodipodi:nodetypes="ccccc"/><path style="fill:#77b7e2;fill-opacity:1;stroke:none;stroke-width:.16412376px;stroke-linecap:butt;stroke-linejoin:miter;stroke-opacity:1" d="M63.415 239.487c3.813-1.824 15.418-5.057 15.418-5.057 2.321 2.487 12.6 4.725 15.087 4.891-5.305.083-14.258-2.404-15.75-3.233-2.321.332-14.755 3.399-14.755 3.399z" inkscape:connector-curvature="0" sodipodi:nodetypes="ccccc"/><path style="fill:#77b7e2;fill-opacity:1;stroke:none;stroke-width:.16412376px;stroke-linecap:butt;stroke-linejoin:miter;stroke-opacity:1" d="M4.33 272.312c3.813-1.824 15.419-5.057 15.419-5.057 2.32 2.487 12.6 4.725 15.086 4.89-5.305.084-14.258-2.403-15.75-3.232-2.32.331-14.755 3.399-14.755 3.399z" inkscape:connector-curvature="0" sodipodi:nodetypes="ccccc"/><path style="fill:#77b7e2;fill-opacity:1;stroke:none;stroke-width:.16412376px;stroke-linecap:butt;stroke-linejoin:miter;stroke-opacity:1" d="M14.177 252.617c3.814-1.824 15.419-5.057 15.419-5.057 2.321 2.487 12.6 4.725 15.087 4.89-5.305.084-14.258-2.403-15.75-3.232-2.321.332-14.756 3.399-14.756 3.399z" inkscape:connector-curvature="0" sodipodi:nodetypes="ccccc"/><path style="fill:#77b7e2;fill-opacity:1;stroke:none;stroke-width:.16412376px;stroke-linecap:butt;stroke-linejoin:miter;stroke-opacity:1" d="M17.46 232.922c3.813-1.824 15.418-5.057 15.418-5.057 2.321 2.487 12.6 4.725 15.087 4.891-5.305.083-14.258-2.404-15.75-3.233-2.32.332-14.755 3.399-14.755 3.399z" inkscape:connector-curvature="0" sodipodi:nodetypes="ccccc"/><path style="fill:#77b7e2;fill-opacity:1;stroke:none;stroke-width:.16412376px;stroke-linecap:butt;stroke-linejoin:miter;stroke-opacity:1" d="M109.37 232.922c3.812-1.824 15.418-5.057 15.418-5.057 2.32 2.487 12.6 4.725 15.087 4.891-5.306.083-14.258-2.404-15.75-3.233-2.321.332-14.756 3.399-14.756 3.399z" inkscape:connector-curvature="0" sodipodi:nodetypes="ccccc"/><path style="fill:#77b7e2;fill-opacity:1;stroke:none;stroke-width:.16412376px;stroke-linecap:butt;stroke-linejoin:miter;stroke-opacity:1" d="M63.415 239.487c3.813-1.824 15.418-5.057 15.418-5.057 2.321 2.487 12.6 4.725 15.087 4.891-5.305.083-14.258-2.404-15.75-3.233-2.321.332-14.755 3.399-14.755 3.399z" inkscape:connector-curvature="0" sodipodi:nodetypes="ccccc"/><path style="fill:#77b7e2;fill-opacity:1;stroke:none;stroke-width:.16412376px;stroke-linecap:butt;stroke-linejoin:miter;stroke-opacity:1" d="M73.262 219.792c3.813-1.824 15.418-5.057 15.418-5.057 2.322 2.487 12.6 4.725 15.087 4.891-5.305.083-14.258-2.404-15.75-3.233-2.32.332-14.755 3.399-14.755 3.399z" inkscape:connector-curvature="0" sodipodi:nodetypes="ccccc"/><path style="fill:#77b7e2;fill-opacity:1;stroke:none;stroke-width:.16412376px;stroke-linecap:butt;stroke-linejoin:miter;stroke-opacity:1" d="M33.872 216.51c3.813-1.824 15.419-5.057 15.419-5.057 2.32 2.487 12.6 4.725 15.087 4.89-5.306.084-14.258-2.403-15.75-3.232-2.321.331-14.756 3.398-14.756 3.398z" inkscape:connector-curvature="0" sodipodi:nodetypes="ccccc"/><path style="fill:#77b7e2;fill-opacity:1;stroke:none;stroke-width:.16412376px;stroke-linecap:butt;stroke-linejoin:miter;stroke-opacity:1" d="M142.93 247.862c3.813-1.823 15.418-5.056 15.418-5.056 2.322 2.487 12.6 4.725 15.087 4.89-5.305.084-14.258-2.403-15.75-3.232-2.32.331-14.755 3.398-14.755 3.398z" inkscape:connector-curvature="0" sodipodi:nodetypes="ccccc"/><path style="fill:#77b7e2;fill-opacity:1;stroke:none;stroke-width:.16412376px;stroke-linecap:butt;stroke-linejoin:miter;stroke-opacity:1" d="M84.78 202.784c3.813-1.824 15.418-5.057 15.418-5.057 2.321 2.487 12.6 4.725 15.087 4.891-5.305.083-14.258-2.404-15.75-3.233-2.321.332-14.755 3.399-14.755 3.399z" inkscape:connector-curvature="0" sodipodi:nodetypes="ccccc"/><path style="fill:#77b7e2;fill-opacity:1;stroke:none;stroke-width:.16412376px;stroke-linecap:butt;stroke-linejoin:miter;stroke-opacity:1" d="M170.124 209.349c3.813-1.824 15.419-5.057 15.419-5.057 2.32 2.487 12.6 4.725 15.087 4.891-5.306.083-14.258-2.404-15.75-3.233-2.322.332-14.756 3.399-14.756 3.399z" inkscape:connector-curvature="0" sodipodi:nodetypes="ccccc"/><path style="fill:#77b7e2;fill-opacity:1;stroke:none;stroke-width:.16412376px;stroke-linecap:butt;stroke-linejoin:miter;stroke-opacity:1" d="M124.17 215.914c3.813-1.824 15.418-5.057 15.418-5.057 2.321 2.487 12.6 4.725 15.087 4.891-5.305.083-14.258-2.404-15.75-3.233-2.321.332-14.755 3.399-14.755 3.399z" inkscape:connector-curvature="0" sodipodi:nodetypes="ccccc"/><path style="fill:#77b7e2;fill-opacity:1;stroke:none;stroke-width:.16412376px;stroke-linecap:butt;stroke-linejoin:miter;stroke-opacity:1" d="M134.017 196.219c3.813-1.824 15.418-5.057 15.418-5.057 2.321 2.487 12.6 4.725 15.087 4.891-5.305.083-14.258-2.404-15.75-3.233-2.32.332-14.755 3.399-14.755 3.399z" inkscape:connector-curvature="0" sodipodi:nodetypes="ccccc"/><path style="fill:#77b7e2;fill-opacity:1;stroke:none;stroke-width:.16412376px;stroke-linecap:butt;stroke-linejoin:miter;stroke-opacity:1" d="M101.192 179.807c3.813-1.824 15.419-5.057 15.419-5.057 2.32 2.487 12.6 4.725 15.087 4.89-5.306.084-14.258-2.403-15.75-3.232-2.322.332-14.756 3.399-14.756 3.399z" inkscape:connector-curvature="0" sodipodi:nodetypes="ccccc"/><path style="fill:#77b7e2;fill-opacity:1;stroke:none;stroke-width:.16412376px;stroke-linecap:butt;stroke-linejoin:miter;stroke-opacity:1" d="M179.972 189.654c3.813-1.824 15.418-5.057 15.418-5.057 2.321 2.487 12.6 4.725 15.087 4.891-5.305.083-14.258-2.404-15.75-3.233-2.321.332-14.755 3.4-14.755 3.4z" inkscape:connector-curvature="0" sodipodi:nodetypes="ccccc"/><path style="fill:#77b7e2;fill-opacity:1;stroke:none;stroke-width:.16412376px;stroke-linecap:butt;stroke-linejoin:miter;stroke-opacity:1" d="M143.864 176.524c3.814-1.824 15.419-5.056 15.419-5.056 2.32 2.486 12.6 4.725 15.087 4.89-5.306.083-14.258-2.404-15.75-3.233-2.321.332-14.756 3.4-14.756 3.4z" inkscape:connector-curvature="0" sodipodi:nodetypes="ccccc"/><path style="fill:#77b7e2;fill-opacity:1;stroke:none;stroke-width:.16412376px;stroke-linecap:butt;stroke-linejoin:miter;stroke-opacity:1" d="M169.248 297.695c3.813-1.824 15.418-5.056 15.418-5.056 2.322 2.486 12.6 4.725 15.087 4.89-5.305.083-14.258-2.404-15.75-3.233-2.32.332-14.755 3.4-14.755 3.4z" inkscape:connector-curvature="0" sodipodi:nodetypes="ccccc"/><path style="fill:#77b7e2;fill-opacity:1;stroke:none;stroke-width:.16412376px;stroke-linecap:butt;stroke-linejoin:miter;stroke-opacity:1" d="M51.955 192.937c3.813-1.824 15.419-5.057 15.419-5.057 2.32 2.487 12.6 4.725 15.086 4.89-5.305.084-14.258-2.403-15.75-3.232-2.32.331-14.755 3.399-14.755 3.399z" inkscape:connector-curvature="0" sodipodi:nodetypes="ccccc"/><path style="fill:#77b7e2;fill-opacity:1;stroke:none;stroke-width:.16412376px;stroke-linecap:butt;stroke-linejoin:miter;stroke-opacity:1" d="M61.802 173.242c3.814-1.824 15.419-5.057 15.419-5.057 2.321 2.487 12.6 4.725 15.087 4.89-5.305.084-14.258-2.403-15.75-3.232-2.321.332-14.756 3.399-14.756 3.399z" inkscape:connector-curvature="0" sodipodi:nodetypes="ccccc"/><path style="fill:#77b7e2;fill-opacity:1;stroke:none;stroke-width:.16412376px;stroke-linecap:butt;stroke-linejoin:miter;stroke-opacity:1" d="M-19.582 222.339c3.813-1.824 15.419-5.057 15.419-5.057 2.32 2.487 12.6 4.725 15.087 4.89-5.306.084-14.258-2.403-15.75-3.232-2.321.331-14.756 3.399-14.756 3.399z" inkscape:connector-curvature="0" sodipodi:nodetypes="ccccc"/><path style="fill:#77b7e2;fill-opacity:1;stroke:none;stroke-width:.16412376px;stroke-linecap:butt;stroke-linejoin:miter;stroke-opacity:1" d="M156.994 227.63c3.813-1.824 15.419-5.056 15.419-5.056 2.32 2.486 12.6 4.725 15.087 4.89-5.306.083-14.258-2.404-15.75-3.233-2.321.332-14.756 3.4-14.756 3.4z" inkscape:connector-curvature="0" sodipodi:nodetypes="ccccc"/><path style="fill:#77b7e2;fill-opacity:1;stroke:none;stroke-width:.16412376px;stroke-linecap:butt;stroke-linejoin:miter;stroke-opacity:1" d="M169.248 297.695c3.813-1.824 15.418-5.056 15.418-5.056 2.322 2.486 12.6 4.725 15.087 4.89-5.305.083-14.258-2.404-15.75-3.233-2.32.332-14.755 3.4-14.755 3.4z" inkscape:connector-curvature="0" sodipodi:nodetypes="ccccc"/><path style="fill:#77b7e2;fill-opacity:1;stroke:none;stroke-width:.16412376px;stroke-linecap:butt;stroke-linejoin:miter;stroke-opacity:1" d="M179.095 278c3.814-1.823 15.419-5.056 15.419-5.056 2.32 2.487 12.6 4.725 15.087 4.89-5.305.083-14.258-2.403-15.75-3.232-2.321.331-14.756 3.398-14.756 3.398z" inkscape:connector-curvature="0" sodipodi:nodetypes="ccccc"/><path style="fill:#77b7e2;fill-opacity:1;stroke:none;stroke-width:.16412376px;stroke-linecap:butt;stroke-linejoin:miter;stroke-opacity:1" d="M-3.17 205.926c3.814-1.824 15.42-5.056 15.42-5.056 2.32 2.486 12.6 4.725 15.086 4.89-5.305.083-14.258-2.404-15.75-3.233-2.321.332-14.755 3.4-14.755 3.4z" inkscape:connector-curvature="0" sodipodi:nodetypes="ccccc"/><path style="fill:#77b7e2;fill-opacity:1;stroke:none;stroke-width:.16412376px;stroke-linecap:butt;stroke-linejoin:miter;stroke-opacity:1" d="M190.555 168.487c3.813-1.823 15.418-5.056 15.418-5.056 2.322 2.487 12.6 4.725 15.087 4.89-5.305.083-14.258-2.403-15.75-3.232-2.32.331-14.755 3.398-14.755 3.398z" inkscape:connector-curvature="0" sodipodi:nodetypes="ccccc"/><path style="fill:#77b7e2;fill-opacity:1;stroke:none;stroke-width:.16412376px;stroke-linecap:butt;stroke-linejoin:miter;stroke-opacity:1" d="M190.415 255.362c3.813-1.824 15.418-5.057 15.418-5.057 2.321 2.487 12.6 4.725 15.087 4.891-5.305.083-14.258-2.404-15.75-3.233-2.321.332-14.755 3.399-14.755 3.399z" inkscape:connector-curvature="0" sodipodi:nodetypes="ccccc"/><path style="fill:#77b7e2;fill-opacity:1;stroke:none;stroke-width:.16412376px;stroke-linecap:butt;stroke-linejoin:miter;stroke-opacity:1" d="M190.415 255.362c3.813-1.824 15.418-5.057 15.418-5.057 2.321 2.487 12.6 4.725 15.087 4.891-5.305.083-14.258-2.404-15.75-3.233-2.321.332-14.755 3.399-14.755 3.399z" inkscape:connector-curvature="0" sodipodi:nodetypes="ccccc"/><path style="fill:#77b7e2;fill-opacity:1;stroke:none;stroke-width:.16412376px;stroke-linecap:butt;stroke-linejoin:miter;stroke-opacity:1" d="M200.262 235.667c3.813-1.824 15.419-5.057 15.419-5.057 2.32 2.487 12.6 4.725 15.086 4.891-5.305.083-14.257-2.404-15.75-3.233-2.32.332-14.755 3.399-14.755 3.399z" inkscape:connector-curvature="0" sodipodi:nodetypes="ccccc"/><path style="fill:#77b7e2;fill-opacity:1;stroke:none;stroke-width:.16412376px;stroke-linecap:butt;stroke-linejoin:miter;stroke-opacity:1" d="M6.877 185.297c3.813-1.824 15.418-5.057 15.418-5.057 2.321 2.487 12.6 4.725 15.087 4.891-5.305.083-14.258-2.404-15.75-3.233-2.321.332-14.755 3.399-14.755 3.399z" inkscape:connector-curvature="0" sodipodi:nodetypes="ccccc"/><path style="fill:#77b7e2;fill-opacity:1;stroke:none;stroke-width:.16412376px;stroke-linecap:butt;stroke-linejoin:miter;stroke-opacity:1" d="M23.289 168.884c3.813-1.823 15.418-5.056 15.418-5.056 2.322 2.487 12.6 4.725 15.087 4.89-5.305.084-14.258-2.403-15.75-3.232-2.32.331-14.755 3.398-14.755 3.398z" inkscape:connector-curvature="0" sodipodi:nodetypes="ccccc"/></g></svg>