<?xml version="1.0" encoding="UTF-8" standalone="no"?>
<!-- Created with Inkscape (http://www.inkscape.org/) -->

<svg
   xmlns:dc="http://purl.org/dc/elements/1.1/"
   xmlns:cc="http://creativecommons.org/ns#"
   xmlns:rdf="http://www.w3.org/1999/02/22-rdf-syntax-ns#"
   xmlns:svg="http://www.w3.org/2000/svg"
   xmlns="http://www.w3.org/2000/svg"
   xmlns:sodipodi="http://sodipodi.sourceforge.net/DTD/sodipodi-0.dtd"
   xmlns:inkscape="http://www.inkscape.org/namespaces/inkscape"
   width="100"
   height="100"
   id="svg2885"
   sodipodi:version="0.32"
   inkscape:version="0.91 r13725"
   version="1.0"
   sodipodi:docname="money_back_cents.svg">
  <sodipodi:namedview
     id="base"
     pagecolor="#ffffff"
     bordercolor="#666666"
     borderopacity="1.0"
     inkscape:pageopacity="0.0"
     inkscape:pageshadow="2"
     inkscape:zoom="5.2048724"
     inkscape:cx="13.508591"
     inkscape:cy="47.62667"
     inkscape:document-units="px"
     inkscape:current-layer="g10008"
     height="100px"
     width="100px"
     inkscape:window-width="1880"
     inkscape:window-height="1060"
     inkscape:window-x="-3"
     inkscape:window-y="-3"
     showguides="true"
     inkscape:guide-bbox="true"
     showgrid="false"
     inkscape:window-maximized="1" />
  <defs
     id="defs2887" />
  <metadata
     id="metadata2890">
    <rdf:RDF>
      <cc:Work
         rdf:about="">
        <dc:format>image/svg+xml</dc:format>
        <dc:type
           rdf:resource="http://purl.org/dc/dcmitype/StillImage" />
        <dc:title></dc:title>
        <dc:date>2015</dc:date>
        <dc:creator>
          <cc:Agent>
            <dc:title>Timothée Giet</dc:title>
          </cc:Agent>
        </dc:creator>
        <cc:license
           rdf:resource="http://creativecommons.org/licenses/by-sa/4.0/" />
      </cc:Work>
      <cc:License
         rdf:about="http://creativecommons.org/licenses/by-sa/4.0/">
        <cc:permits
           rdf:resource="http://creativecommons.org/ns#Reproduction" />
        <cc:permits
           rdf:resource="http://creativecommons.org/ns#Distribution" />
        <cc:requires
           rdf:resource="http://creativecommons.org/ns#Notice" />
        <cc:requires
           rdf:resource="http://creativecommons.org/ns#Attribution" />
        <cc:permits
           rdf:resource="http://creativecommons.org/ns#DerivativeWorks" />
        <cc:requires
           rdf:resource="http://creativecommons.org/ns#ShareAlike" />
      </cc:License>
    </rdf:RDF>
  </metadata>
  <g
     inkscape:groupmode="layer"
     id="layer1"
     inkscape:label="Calque 1">
    <g
       id="g10008">
      <path
         inkscape:connector-curvature="0"
         style="fill:#96471d;fill-opacity:1;fill-rule:evenodd;stroke:none"
         d="m 22.910471,79.964094 c 0,0 0.833819,1.693801 1.127409,2.434154 0.29359,0.740354 1.315215,4.543188 1.409117,5.597704 0.0939,1.054516 -0.669784,5.261621 -1.268847,6.20411 -0.599064,0.942488 -4.261513,3.500947 -6.046822,3.905218 C 16.34602,98.50955 9.67306,97.955705 8.543382,97.248528 7.413706,96.541351 4.3360525,93.469259 3.8286694,92.243006 3.3212885,91.016754 2.3065514,84.8712 2.3881293,83.718247 2.4697065,82.565293 3.2632279,79.785202 3.9004296,79.29792 4.8764227,78.551557 6.890242,76.696629 7.773675,76.2928 c 0.883431,-0.40383 5.914898,-1.492012 6.689979,-1.479963 0.775082,0.01205 5.316029,1.590802 5.966971,2.092078 0.650934,0.501288 1.968832,1.99533 2.479846,3.059179 z"
         sodipodi:nodetypes="csssssssssssc"
         id="path30275" />
      <path
         inkscape:connector-curvature="0"
         style="fill:#ea9465;fill-opacity:1;fill-rule:evenodd;stroke:none"
         d="m 20.442929,82.210527 c 0,0 0.599675,1.232438 0.810787,1.771189 0.21111,0.53875 0.945424,3.30643 1.012744,4.07405 0.06732,0.767619 -0.483348,3.831019 -0.914725,4.51763 -0.431377,0.686611 -3.067863,2.552073 -4.352842,2.847794 -1.284979,0.295721 -6.087343,-0.102215 -6.90019,-0.616153 C 9.285858,94.291094 7.071644,92.057027 6.706788,91.164709 6.341932,90.272391 5.613158,85.799191 5.672154,84.95977 c 0.059,-0.839423 0.630784,-2.86397 1.089496,-3.219217 0.702604,-0.544128 2.1524,-1.896116 2.788303,-2.190804 0.635903,-0.294687 4.257298,-1.090861 4.815118,-1.082701 0.55782,0.0082 3.825528,1.153917 4.293883,1.518336 0.468356,0.364419 1.416465,1.451057 1.783975,2.225143 z"
         sodipodi:nodetypes="csssssssssssc"
         id="path30277" />
      <path
         d="m 15.894877,92.054071 q -0.301735,0.3875 -1.415223,1.241357 -1.355708,1.049702 -1.690841,0.788743 -0.03351,-0.02609 -0.138648,-0.144574 Q 12.536157,93.832516 12.502644,93.80642 12.457964,93.77163 12.009132,93.495362 11.551431,93.230494 11.506746,93.1957 11.473236,93.16961 11.368099,93.051126 11.254091,92.944045 11.198235,92.900551 10.885445,92.65699 10.273638,92.290445 9.456474,91.818908 9.259987,91.702524 8.440526,91.210892 6.998091,90.344013 q -0.283558,-0.16588 -0.533293,-0.21388 -0.100855,-0.170064 0.01452,-0.318229 -0.0355,0.04559 1.012324,-1.115704 1.127693,-1.263866 1.800174,-2.058358 0.03779,-0.02549 0.202754,-0.0069 0.310186,0.131682 0.635819,0.220482 0.185315,0.107687 0.573697,0.300262 0.223107,0.0822 0.649286,0.249277 0.09135,-0.0021 0.149194,-0.03029 1.697223,-1.534378 1.839217,-1.716731 0.02662,-0.03419 0.01055,-0.174861 -0.508032,0.0072 -1.477425,-0.01537 -0.03351,-0.02609 -0.02297,-0.200958 0.233035,-0.276228 0.486543,-1.085736 0.08384,-0.245945 0.450964,-2.376653 -0.0023,-0.02009 0.130823,-0.191052 0.443613,0.05251 2.295639,0.139882 0.454473,-0.03057 1.319046,-0.03473 0.427848,0.0036 1.270389,0.07385 0.162663,-0.0015 0.470238,0.01832 0.04238,0.0147 0.198783,0.136481 0.03351,0.02609 0.521073,0.552203 0.496433,0.514711 0.541117,0.549505 0.03351,0.02609 0.131757,0.08429 0.107116,0.0468 0.151801,0.08159 0.312791,0.243562 0.583509,0.5642 0.480981,0.557601 0.267992,0.83113 -0.02662,0.03419 -0.160051,0.113369 -0.124553,0.06778 -0.168926,0.124766 -0.60378,0.683222 -0.965966,0.987035 -0.770726,0.7363 -2.456778,2.279377 -0.824596,0.621123 -2.273331,1.836384 -0.02402,0.146064 0.139269,0.328135 0.116305,0.127176 0.252656,0.251655 0.288466,0.297846 0.588099,0.604396 0.507916,0.615189 0.268303,0.922909 z M 14.318584,91.79695 q -0.0069,-0.06028 -0.02067,-0.180861 -0.259539,-0.311948 -1.402228,-1.49464 0.01515,-0.134667 0.08614,-0.225843 -0.09762,0.125368 2.459386,-2.167501 0.817395,-0.77319 2.150138,-2.023849 0.193253,-0.179052 0.753288,-0.621726 0.504488,-0.394388 0.531111,-0.428579 0.071,-0.09118 0.06181,-0.171558 l -0.569727,-0.44363 q -0.781978,-0.608904 -1.619188,-1.077742 -0.151801,-0.08159 -0.514921,-0.05311 -0.343074,0.02578 -0.962192,0.129524 -0.779485,0.125334 -0.868231,0.239305 -0.06212,0.07978 -0.231789,0.643346 -0.182822,0.626553 -0.05994,0.722238 0.03351,0.02609 0.42816,0.0954 0.394647,0.0693 0.428161,0.0954 0.10054,0.07829 0.09427,0.201561 -0.457195,0.541059 -1.281168,1.34574 -1.499064,1.487298 -1.707772,1.709239 -0.273124,0.281626 -0.746399,0.682013 -0.111086,0.09658 -0.211627,0.01829 -0.04468,-0.03479 -0.03581,-0.04619 l 0,0 q 0.01775,-0.02279 -0.01576,-0.04889 -0.04468,-0.03479 -1.502261,-0.767004 -0.194189,-0.09629 -0.256313,-0.01651 l -0.79871,1.025734 2.547013,1.983288 1.746237,1.744201 q 0.178738,0.139179 0.847873,-0.328386 0.451241,-0.326005 0.67112,-0.539247 z"
         style="font-style:normal;font-variant:normal;font-weight:normal;font-stretch:normal;font-size:medium;line-height:125%;font-family:'Indigo Joker';text-align:start;writing-mode:lr-tb;text-anchor:start;fill:#96471d;fill-opacity:1;stroke:none"
         id="path10140"
         inkscape:connector-curvature="0" />
      <path
         style="fill:#96471d;fill-opacity:1;fill-rule:evenodd;stroke:none;stroke-width:0.57919663;stroke-linecap:butt;stroke-linejoin:miter;stroke-miterlimit:4;stroke-dasharray:none;stroke-opacity:1"
         d="m 46.208766,37.612366 c 0,0 2.584973,0.619058 3.655218,0.971309 1.070246,0.352252 6.158269,2.72209 7.409794,3.597479 1.251524,0.875391 5.286735,5.679563 5.830574,7.248981 0.543839,1.569417 0.306655,8.176131 -0.746158,10.610465 -1.052812,2.434332 -7.283849,9.607137 -9.020762,10.249275 -1.736914,0.642135 -7.742558,1.323102 -9.532973,0.763987 -1.790415,-0.559114 -9.477492,-5.122051 -10.690804,-6.291468 -1.213316,-1.169414 -3.63673,-4.676928 -3.642337,-5.8657 -0.0086,-1.820827 -0.376459,-5.871573 -0.08207,-7.266241 0.294383,-1.394669 3.318367,-8.207539 3.983987,-9.089443 0.665621,-0.881905 6.242178,-4.641965 7.347302,-4.924497 1.105127,-0.282531 3.87534,-0.407594 5.488236,-0.0041 z"
         sodipodi:nodetypes="csssssssssssc"
         id="path6192"
         inkscape:connector-curvature="0" />
      <path
         style="fill:#ea9465;fill-opacity:1;fill-rule:evenodd;stroke:none;stroke-width:0.57919663;stroke-linecap:butt;stroke-linejoin:miter;stroke-miterlimit:4;stroke-dasharray:none;stroke-opacity:1"
         d="m 45.893359,42.419152 c 0,0 1.874959,0.458533 2.651638,0.717782 0.77668,0.259249 4.471955,1.994625 5.382114,2.633045 0.910157,0.638422 3.852945,4.130342 4.253382,5.267861 0.400435,1.137519 0.256056,5.915604 -0.496432,7.672146 -0.752485,1.756543 -5.236083,6.91924 -6.491528,7.37653 -1.255446,0.457289 -5.602724,0.924952 -6.901907,0.513077 -1.299183,-0.411875 -6.88615,-3.74445 -7.769849,-4.595401 -0.883701,-0.850952 -2.653627,-3.398222 -2.662622,-4.258162 -0.01378,-1.317159 -0.297053,-4.248853 -0.08961,-5.256488 0.207445,-1.007633 2.369551,-5.923277 2.848024,-6.558454 0.478473,-0.635176 4.502169,-3.331929 5.301478,-3.531716 0.79931,-0.199786 2.805358,-0.278756 3.975311,0.01978 z"
         sodipodi:nodetypes="csssssssssssc"
         id="path30267"
         inkscape:connector-curvature="0" />
      <path
         d="m 50.577279,61.955654 q -0.05828,0.0655 -0.479912,0.365094 -0.407061,0.283225 -0.497216,0.349694 -1.196576,1.135623 -3.927721,1.521815 -2.745714,0.402566 -4.613594,-0.320738 -0.346982,-0.132733 -1.412539,-0.816874 -0.94716,-0.608126 -1.102898,-0.74671 -1.57468,-1.401238 -2.423556,-3.095453 -1.158554,-2.321847 -0.518483,-4.539451 0.08832,-0.273473 0.65835,-1.262503 0.33601,-0.551821 0.33601,-0.551821 1.209312,-1.358999 3.304843,-0.961216 0.111094,-0.194528 -0.107495,-0.506396 -0.204017,-0.328239 -0.139369,-0.505421 0.300466,-0.964854 1.705483,-3.763332 0.514484,-0.891764 1.497006,-2.657944 0.02641,-0.06452 0.04187,-0.256123 0.03004,-0.20798 0.16117,-0.355341 0.27683,-0.311096 1.37059,-0.04194 0.66846,0.154752 1.197586,0.361549 0.132963,0.05964 2.145645,0.794442 0.419833,0.05087 1.088292,0.205617 1.506327,0.606945 4.225745,1.9413 0.445339,0.161578 1.234028,0.59935 1.379766,0.99308 2.175758,1.701398 1.349727,1.20106 -0.35216,4.263465 -0.125664,0.210902 -0.448001,0.921586 -0.266793,0.613414 -0.339643,0.695282 -0.32054,0.360216 -0.810489,0.422991 -0.617446,0.06667 -1.339653,-0.341275 -0.606546,-0.363705 -1.213091,-0.727411 l -0.07832,0.01833 -0.11656,0.130987 q 0.09745,0.20408 0.295106,0.644005 0.150306,0.632509 0.153076,1.221747 -0.0063,0.669156 -0.110982,1.866934 -0.119258,0.656684 -0.381482,1.508875 -0.262224,0.852189 -0.349645,0.95043 l -0.827758,0.965059 z m -2.096504,-1.337486 q 0.815922,-0.916916 1.32947,-2.190915 0.654678,-1.67651 0.164657,-2.728671 -0.475452,-1.068535 -0.829738,-1.471813 -0.126601,-0.171329 -0.905289,-0.864249 -1.730417,-1.53982 -2.788671,-1.953415 -0.0173,-0.0154 -0.06374,0.002 -0.04644,0.01735 -0.115659,-0.04425 -0.207649,-0.184778 -0.04011,-0.651807 0.129296,-0.354365 0.304135,-0.550847 0.539092,-0.605819 1.669294,-0.09886 0.638421,0.36273 1.276841,0.72546 2.023617,0.861887 4.71483,2.611225 0.08105,0.01345 0.208549,0.0095 0.361518,-0.441108 0.745769,-1.360744 0.571829,-1.339493 0.08731,-1.770644 -0.03461,-0.03079 -2.184822,-1.064014 -2.401576,-1.168876 -3.458929,-1.757703 -0.788689,-0.437771 -2.040922,-0.877285 -1.764054,-0.630915 -2.128304,-0.221578 0,0 -2.514065,5.508262 0.0027,0.03177 0.02734,0.317717 2.426073,-0.217581 3.868687,0.948782 0.06649,0.02983 0.199451,0.08946 0.164835,0.05867 0.234053,0.120264 0.06922,0.06159 0.166672,0.265672 0.11476,0.219478 0.152104,0.282044 0.486352,0.638155 0.106668,1.796564 -0.288629,0.916709 -0.82772,1.522528 -0.524521,0.589446 -1.085486,0.941091 -0.270467,0.199404 -0.873338,0.24971 -0.588306,0.03393 -0.906149,-0.131552 -0.965364,-0.448292 -1.294143,-0.740858 -0.190347,-0.169381 -0.350653,-0.546739 -0.128433,-0.378335 -0.07199,-0.650832 0.161169,-0.355341 0.332339,-0.96583 -0.08926,-0.108761 -0.285066,-0.34169 -0.195817,-0.23292 -0.265033,-0.294513 -1.003643,-0.893097 -1.500895,-1.100869 -0.876109,-0.339531 -1.546331,0.41365 -0.20398,0.229228 -0.644712,0.863895 -0.142967,0.195505 -0.310503,0.662535 -0.320504,0.917685 0.634932,2.736061 0.820636,1.551729 1.668541,2.306242 1.315118,1.170264 3.031792,1.436291 0.795956,0.150851 1.591912,0.301701 1.213054,0.169943 1.726676,0.01088 1.653788,-0.464721 2.79025,-1.741852 z"
         style="font-style:normal;font-variant:normal;font-weight:normal;font-stretch:normal;font-size:medium;line-height:125%;font-family:'Indigo Joker';text-align:start;writing-mode:lr-tb;text-anchor:start;fill:#96471d;fill-opacity:1;stroke:none;stroke-width:1px;stroke-linecap:butt;stroke-linejoin:miter;stroke-opacity:1"
         id="path10116"
         inkscape:connector-curvature="0" />
      <path
         style="fill:#96471d;fill-opacity:1;fill-rule:evenodd;stroke:none;stroke-width:0.57919663;stroke-linecap:butt;stroke-linejoin:miter;stroke-miterlimit:4;stroke-dasharray:none;stroke-opacity:1"
         d="m 47.008688,57.381301 c 0,0 1.69853,0.824145 2.385034,1.227915 0.686505,0.403771 3.828964,2.77658 4.550927,3.550913 0.721964,0.774332 2.70417,4.562975 2.810549,5.674661 0.106379,1.111686 -1.211465,5.380473 -2.371717,6.796305 -1.16025,1.415832 -6.765556,5.078577 -8.091359,5.214659 -1.325802,0.136081 -5.641535,-0.396982 -6.795251,-1.052782 -1.153714,-0.655801 -5.730059,-4.881272 -6.374045,-5.841084 -0.643987,-0.959812 -1.725923,-3.640856 -1.522541,-4.416811 0.311518,-1.188519 0.760811,-3.889327 1.209744,-4.750716 0.448931,-0.861389 3.750253,-4.81121 4.369203,-5.277897 0.618951,-0.466688 5.171759,-2.010904 5.993333,-2.015318 0.821575,-0.0044 2.77932,0.364724 3.836123,0.890155 z"
         sodipodi:nodetypes="csssssssssssc"
         id="path30351"
         inkscape:connector-curvature="0" />
      <path
         style="fill:#ea9465;fill-opacity:1;fill-rule:evenodd;stroke:none;stroke-width:0.57919663;stroke-linecap:butt;stroke-linejoin:miter;stroke-miterlimit:4;stroke-dasharray:none;stroke-opacity:1"
         d="m 46.441936,60.669769 c 0,0 1.230336,0.603978 1.727903,0.899355 0.497566,0.295377 2.777355,2.027957 3.302082,2.592257 0.524725,0.564301 1.972336,3.319674 2.053815,4.126446 0.08148,0.806773 -0.852632,3.898447 -1.684809,4.92124 -0.832176,1.022792 -4.865775,3.659294 -5.822874,3.753189 -0.957099,0.09389 -4.076703,-0.308443 -4.912801,-0.788331 -0.836098,-0.479888 -4.159354,-3.561544 -4.628529,-4.260102 -0.469174,-0.698561 -1.261872,-2.647243 -1.1182,-3.209361 0.22006,-0.860988 0.53333,-2.818447 0.854013,-3.441645 0.320684,-0.623197 2.688849,-3.476301 3.133988,-3.812576 0.445139,-0.336275 3.727325,-1.439876 4.320754,-1.440094 0.593429,-2.18e-4 2.009106,0.274651 2.774658,0.659622 z"
         sodipodi:nodetypes="csssssssssssc"
         id="path30353"
         inkscape:connector-curvature="0" />
      <path
         d="m 48.901156,71.23066 q 0,0.491121 -0.353961,1.848929 -0.424751,1.661146 -0.849503,1.661146 -0.04247,0 -0.198217,-0.02889 -0.155742,-0.01444 -0.198218,-0.01444 -0.05663,0 -0.580494,0.05778 -0.52386,0.07222 -0.580494,0.07222 -0.04247,0 -0.198217,-0.02889 -0.155742,-0.01444 -0.226535,-0.01444 -0.396434,0 -1.104354,0.08667 -0.934454,0.130002 -1.160987,0.158891 -0.948613,0.115559 -2.619302,0.317785 -0.325644,0.04333 -0.552178,0.158892 -0.184059,-0.07222 -0.184059,-0.260005 0,0.05778 0.113267,-1.502254 0.113267,-1.690036 0.155742,-2.730057 0.01416,-0.04333 0.155743,-0.130003 0.325642,-0.08667 0.637127,-0.216672 0.212376,-0.02889 0.637128,-0.115558 0.226534,-0.07222 0.665444,-0.202227 0.07079,-0.05778 0.09911,-0.115558 0.396435,-2.25338 0.396435,-2.484497 0,-0.04333 -0.09911,-0.144447 -0.396435,0.317785 -1.175146,0.895575 -0.04247,0 -0.141585,-0.144448 0.01416,-0.361119 -0.283167,-1.15558 -0.08496,-0.245561 -1.104354,-2.152267 -0.01416,-0.01444 -0.01416,-0.231116 0.382277,-0.231117 1.897224,-1.300028 0.339802,-0.30334 1.019405,-0.837796 0.3398,-0.260005 1.04772,-0.722237 0.127426,-0.101113 0.382277,-0.274451 0.04247,-0.01444 0.240693,-0.01444 0.04247,0 0.750394,0.115558 0.70792,0.101113 0.764553,0.101113 0.04247,0 0.155743,-0.01444 0.113266,-0.02889 0.1699,-0.02889 0.396435,0 0.807028,0.08666 0.722078,0.144448 0.722078,0.491122 0,0.04333 -0.05663,0.187782 -0.05663,0.130003 -0.05663,0.202226 -0.05663,0.910019 -0.155742,1.372251 -0.155743,1.054467 -0.53802,3.307848 -0.269009,0.996688 -0.665444,2.845615 0.07079,0.130004 0.311485,0.173338 0.169901,0.02889 0.353959,0.04333 0.410594,0.05777 0.835346,0.115558 0.778711,0.173337 0.778711,0.563345 z m -1.401681,0.765572 q -0.04247,-0.04333 -0.127426,-0.130003 -0.396434,-0.08667 -2.02465,-0.317784 -0.07079,-0.115559 -0.07079,-0.231116 0,0.158892 0.608811,-3.221179 0.1699,-1.112246 0.453068,-2.91784 0.04247,-0.260005 0.212376,-0.953353 0.155742,-0.621125 0.155742,-0.664458 0,-0.115559 -0.05663,-0.173338 l -0.722078,0 q -0.991087,0 -1.939699,0.144448 -0.169901,0.02889 -0.43891,0.27445 -0.254851,0.231116 -0.679602,0.693348 -0.53802,0.57779 -0.53802,0.722238 0,0.101113 0.212376,0.650013 0.240693,0.606679 0.396435,0.606679 0.04247,0 0.396435,-0.187781 0.35396,-0.187782 0.396435,-0.187782 0.127426,0 0.198218,0.101113 -0.02831,0.707793 -0.184059,1.848928 -0.26901,2.094489 -0.297326,2.397829 -0.04247,0.390008 -0.169902,0.996687 -0.02831,0.144448 -0.155742,0.144448 -0.05663,0 -0.05663,-0.01444 l 0,0 q 0,-0.02889 -0.04247,-0.02889 -0.05663,0 -1.656531,0.317784 -0.212376,0.04333 -0.212376,0.144448 l 0,1.300027 3.228113,0 2.449401,0.30334 q 0.226535,0 0.467227,-0.780017 0.155743,-0.534455 0.198217,-0.837795 z"
         style="font-style:normal;font-variant:normal;font-weight:normal;font-stretch:normal;font-size:medium;line-height:125%;font-family:'Indigo Joker';text-align:start;writing-mode:lr-tb;text-anchor:start;fill:#96471d;fill-opacity:1;stroke:none;stroke-width:1px;stroke-linecap:butt;stroke-linejoin:miter;stroke-opacity:1"
         id="path10131"
         inkscape:connector-curvature="0" />
      <path
         inkscape:connector-curvature="0"
         style="fill:#96471d;fill-opacity:1;fill-rule:evenodd;stroke:none"
         d="m 79.345798,72.390477 c 0,0 1.865801,0.2881 2.640698,0.472088 0.774899,0.183988 4.476266,1.527545 5.394047,2.055274 0.917782,0.527728 3.926659,3.565754 4.355313,4.596976 0.428653,1.031221 0.424682,5.498795 -0.267807,7.193263 -0.692488,1.694467 -4.97252,6.843879 -6.19965,7.3639 -1.22713,0.52002 -5.508747,1.279923 -6.804318,0.992475 -1.295571,-0.28745 -6.912319,-2.979967 -7.810127,-3.707906 -0.89781,-0.727939 -2.720462,-2.972157 -2.754309,-3.773608 -0.05184,-1.227572 -0.416811,-3.94106 -0.241097,-4.89639 0.175713,-0.95533 2.16924,-5.701448 2.623544,-6.329543 0.454305,-0.628096 4.351519,-3.443121 5.135452,-3.68899 0.783939,-0.245855 2.763653,-0.468891 3.928254,-0.277539 z"
         sodipodi:nodetypes="csssssssssssc"
         id="path30331" />
      <path
         inkscape:connector-curvature="0"
         style="fill:#ea9465;fill-opacity:1;fill-rule:evenodd;stroke:none"
         d="m 79.771353,75.700178 c 0,0 1.35356,0.215382 1.915997,0.351344 0.562435,0.135962 3.250981,1.121347 3.918474,1.506347 0.667492,0.385002 2.861506,2.592705 3.176677,3.339824 0.315171,0.74712 0.331734,3.976784 -0.162798,5.199102 -0.494531,1.222317 -3.574229,4.928595 -4.461373,5.299849 -0.887146,0.371248 -3.987093,0.904281 -4.927355,0.691542 -0.940263,-0.212738 -5.022922,-2.180608 -5.67681,-2.710267 -0.653888,-0.529662 -1.984687,-2.158987 -2.012706,-2.738498 -0.04292,-0.887629 -0.319252,-2.850642 -0.196055,-3.540595 0.123197,-0.689953 1.547423,-4.113398 1.873963,-4.565727 0.32654,-0.452328 3.138936,-2.472501 3.70605,-2.647255 0.567115,-0.174753 2.001017,-0.328436 2.845936,-0.185666 z"
         sodipodi:nodetypes="csssssssssssc"
         id="path30333" />
      <path
         d="m 85.228064,85.070578 q 0.144454,0.469396 0.205522,1.871251 0.08263,1.712597 -0.323332,1.83753 -0.04059,0.01249 -0.197946,0.03069 -0.153101,0.032 -0.193698,0.0445 -0.05412,0.01666 -0.537822,0.225961 -0.479445,0.223107 -0.533574,0.239765 -0.04059,0.01249 -0.197946,0.03069 -0.153101,0.032 -0.220762,0.05283 -0.378898,0.116603 -1.03001,0.407663 -0.854881,0.399102 -1.062896,0.493344 -0.872662,0.389462 -2.409967,1.074143 -0.298494,0.137196 -0.481018,0.314275 -0.197159,-0.01489 -0.252392,-0.194366 0.01699,0.05522 -0.333601,-1.469117 -0.388834,-1.648593 -0.654139,-2.655102 7.86e-4,-0.04558 0.110615,-0.170061 0.285745,-0.17862 0.545215,-0.394485 0.194484,-0.09008 0.574955,-0.297845 0.195271,-0.135655 0.576527,-0.389008 0.05066,-0.07604 0.06074,-0.139597 -0.283888,-2.270306 -0.351866,-2.491199 -0.01275,-0.04142 -0.137211,-0.108906 -0.285429,0.42033 -0.859749,1.201604 -0.04059,0.01249 -0.177808,-0.09641 -0.09268,-0.349308 -0.610532,-1.021174 -0.153424,-0.209711 -1.688549,-1.732239 -0.01778,-0.0096 -0.08151,-0.216728 0.297389,-0.333332 1.430923,-1.800552 0.23555,-0.389867 0.727891,-1.100573 0.248294,-0.34845 0.788943,-0.998455 0.09205,-0.13412 0.284642,-0.374749 0.03634,-0.0263 0.225798,-0.0846 0.04059,-0.01249 0.751189,-0.110269 0.706345,-0.111579 0.760473,-0.128237 0.04059,-0.01249 0.144606,-0.05961 0.09976,-0.06092 0.153888,-0.07758 0.378898,-0.116604 0.796819,-0.154542 0.732623,-0.07433 0.83459,0.257012 0.01275,0.04142 0.0011,0.196132 -0.01589,0.140909 0.0054,0.209938 0.213539,0.886421 0.254768,1.357358 0.161297,1.053631 0.458717,3.319773 0.03605,1.031723 0.200973,2.915466 0.105894,0.103432 0.34869,0.07405 0.170881,-0.02236 0.351047,-0.06269 0.409424,-0.06555 0.832383,-0.135254 0.795249,-0.06337 0.909962,0.309383 z m -1.1145,1.143983 q -0.05334,-0.02892 -0.160027,-0.08677 -0.404391,0.03376 -2.028559,0.291782 -0.101645,-0.08962 -0.135634,-0.200071 0.04673,0.151864 -0.365566,-3.25776 -0.16476,-1.113019 -0.425197,-2.92203 -0.03588,-0.260996 -0.07743,-0.973648 -0.03384,-0.639457 -0.04659,-0.680874 -0.03399,-0.110447 -0.105109,-0.149014 l -0.690137,0.212385 q -0.947247,0.291509 -1.81141,0.708582 -0.153888,0.07758 -0.33877,0.391407 -0.1756,0.295852 -0.445606,0.862569 -0.344275,0.710479 -0.301789,0.848537 0.02974,0.09664 0.39417,0.558794 0.408489,0.509048 0.557342,0.46324 0.04059,-0.01249 0.323666,-0.296079 0.28307,-0.283585 0.323667,-0.296079 0.121789,-0.03748 0.219189,0.03834 0.181121,0.684812 0.367908,1.821278 0.358942,2.080963 0.4211,2.379213 0.07412,0.385249 0.13077,1.002572 0.01542,0.146387 -0.106367,0.183867 -0.05412,0.01666 -0.05837,0.0029 l 0,0 q -0.0085,-0.02761 -0.04909,-0.01512 -0.05412,0.01666 -1.489785,0.790963 -0.190236,0.103881 -0.160495,0.200525 l 0.382377,1.24252 3.085317,-0.949485 2.430274,-0.430521 q 0.216514,-0.06663 0.217133,-0.882938 -0.0083,-0.556622 -0.05697,-0.859036 z"
         style="font-style:normal;font-variant:normal;font-weight:normal;font-stretch:normal;font-size:medium;line-height:125%;font-family:'Indigo Joker';text-align:start;writing-mode:lr-tb;text-anchor:start;fill:#96471d;fill-opacity:1;stroke:none"
         id="path10125"
         inkscape:connector-curvature="0" />
      <path
         style="fill:#96471d;fill-opacity:1;fill-rule:evenodd;stroke:none;stroke-width:0.57919663;stroke-linecap:butt;stroke-linejoin:miter;stroke-miterlimit:4;stroke-dasharray:none;stroke-opacity:1"
         d="m 58.352096,56.631561 c 0,0 1.865928,0.287281 2.640906,0.470928 0.77498,0.183649 4.476938,1.525579 5.394952,2.052905 0.918014,0.527325 3.928226,3.56403 4.357333,4.595063 0.429106,1.031034 0.427099,5.498611 -0.264647,7.193383 -0.691743,1.694772 -4.969514,6.846066 -6.196416,7.366626 -1.226901,0.520559 -5.508185,1.282344 -6.803883,0.995465 -1.295697,-0.286881 -6.91363,-2.976931 -7.811758,-3.704475 -0.89813,-0.727545 -2.721769,-2.970963 -2.755967,-3.7724 -0.05238,-1.227549 -0.418543,-3.940877 -0.243249,-4.896285 0.175293,-0.955407 2.166735,-5.702402 2.620763,-6.330697 0.454029,-0.628296 4.350008,-3.445034 5.133833,-3.691247 0.783831,-0.246199 2.763448,-0.470105 3.928133,-0.279266 z"
         sodipodi:nodetypes="csssssssssssc"
         id="path30341"
         inkscape:connector-curvature="0" />
      <path
         style="fill:#ea9465;fill-opacity:1;fill-rule:evenodd;stroke:none;stroke-width:0.57919663;stroke-linecap:butt;stroke-linejoin:miter;stroke-miterlimit:4;stroke-dasharray:none;stroke-opacity:1"
         d="m 58.779105,59.941077 c 0,0 1.353655,0.214787 1.916152,0.350502 0.562495,0.135715 3.251475,1.119919 3.919137,1.504626 0.667661,0.384708 2.862646,2.591448 3.178145,3.338429 0.3155,0.746981 0.333481,3.976639 -0.160513,5.199174 -0.493994,1.222535 -3.572065,4.930168 -4.459046,5.301811 -0.886983,0.371638 -3.986696,0.906033 -4.927053,0.693708 -0.940356,-0.212326 -5.023881,-2.178402 -5.678002,-2.707774 -0.654121,-0.529375 -1.985636,-2.158116 -2.013909,-2.737615 -0.04331,-0.88761 -0.320504,-2.850502 -0.197611,-3.54051 0.122894,-0.690007 1.545616,-4.114078 1.871957,-4.566551 0.326341,-0.452472 3.137851,-2.473881 3.704889,-2.648883 0.567038,-0.175003 2.000872,-0.329316 2.845854,-0.186917 z"
         sodipodi:nodetypes="csssssssssssc"
         id="path30343"
         inkscape:connector-curvature="0" />
      <path
         d="m 64.239934,69.309081 q 0.14466,0.469334 0.206345,1.871162 0.08338,1.712561 -0.322525,1.837672 -0.04059,0.01251 -0.197933,0.03078 -0.153087,0.03207 -0.193678,0.04458 -0.05412,0.01668 -0.537723,0.226197 -0.479347,0.223318 -0.533469,0.24 -0.04059,0.01251 -0.197933,0.03078 -0.153087,0.03207 -0.220739,0.05292 -0.378846,0.11677 -1.02983,0.408116 -0.854706,0.399478 -1.06268,0.493811 -0.872491,0.389846 -2.409496,1.075202 -0.298433,0.137328 -0.48088,0.314487 -0.197165,-0.0148 -0.252477,-0.194256 0.01702,0.05521 -0.334247,-1.468971 -0.389558,-1.648422 -0.655306,-2.654814 7.66e-4,-0.04558 0.110541,-0.17011 0.285666,-0.178746 0.545041,-0.394725 0.194445,-0.09016 0.574825,-0.298097 0.195211,-0.135741 0.576357,-0.389262 0.05063,-0.07606 0.06067,-0.139624 -0.284886,-2.270182 -0.352961,-2.491045 -0.01276,-0.04141 -0.137259,-0.108846 -0.285244,0.420457 -0.859221,1.201983 -0.04059,0.01251 -0.17785,-0.09634 -0.09284,-0.349268 -0.610981,-1.020907 -0.153516,-0.209643 -1.689311,-1.731497 -0.01778,-0.0096 -0.0816,-0.216693 0.297241,-0.333462 1.430132,-1.80118 0.235378,-0.389971 0.727407,-1.100893 0.248141,-0.348559 0.788504,-0.998802 0.09199,-0.134161 0.284478,-0.374875 0.03633,-0.02631 0.22576,-0.0847 0.04059,-0.01251 0.751142,-0.110598 0.706296,-0.11189 0.760417,-0.128572 0.04059,-0.01251 0.144579,-0.05968 0.09973,-0.06097 0.153854,-0.07765 0.378847,-0.11677 0.796751,-0.154892 0.732591,-0.07465 0.834704,0.256646 0.01276,0.04141 0.0012,0.196131 -0.01582,0.140916 0.0054,0.209935 0.213928,0.886328 0.255364,1.357247 0.16176,1.053561 0.460176,3.319572 0.0365,1.031707 0.202254,2.915379 0.105939,0.103385 0.348722,0.0739 0.170872,-0.02244 0.35102,-0.06285 0.409396,-0.06573 0.832324,-0.135619 0.795221,-0.06372 0.910098,0.308983 z m -1.113997,1.144474 q -0.05335,-0.0289 -0.160065,-0.0867 -0.404377,0.03394 -2.028432,0.292674 -0.101685,-0.08958 -0.135722,-0.200012 0.0468,0.151843 -0.366997,-3.2576 -0.165249,-1.112947 -0.426481,-2.921844 -0.036,-0.260981 -0.07786,-0.973614 -0.03412,-0.639443 -0.04688,-0.680854 -0.03404,-0.110432 -0.105174,-0.148968 l -0.690044,0.212689 q -0.947119,0.291924 -1.8111,0.709378 -0.153854,0.07765 -0.338598,0.391555 -0.17547,0.295929 -0.445227,0.862765 -0.343963,0.71063 -0.301416,0.84867 0.02978,0.09663 0.394416,0.558621 0.408712,0.508868 0.557545,0.462995 0.04059,-0.01251 0.323536,-0.296221 0.282945,-0.28371 0.323537,-0.296221 0.121772,-0.03753 0.219206,0.03824 0.181422,0.684732 0.368709,1.821116 0.359856,2.080806 0.422144,2.379029 0.07429,0.385216 0.131211,1.002515 0.01549,0.14638 -0.106286,0.183913 -0.05412,0.01668 -0.05837,0.0029 l 0,0 q -0.0085,-0.02761 -0.0491,-0.0151 -0.05412,0.01668 -1.489438,0.791618 -0.190191,0.103964 -0.160407,0.200595 l 0.382923,1.242352 3.084901,-0.950841 2.430085,-0.431589 q 0.216484,-0.06673 0.216745,-0.883033 -0.0086,-0.556619 -0.05735,-0.859012 z"
         style="font-style:normal;font-variant:normal;font-weight:normal;font-stretch:normal;font-size:medium;line-height:125%;font-family:'Indigo Joker';text-align:start;writing-mode:lr-tb;text-anchor:start;fill:#96471d;fill-opacity:1;stroke:none;stroke-width:1px;stroke-linecap:butt;stroke-linejoin:miter;stroke-opacity:1"
         id="path10122"
         inkscape:connector-curvature="0" />
      <path
         style="fill:#96471d;fill-opacity:1;fill-rule:evenodd;stroke:none;stroke-width:0.57919663;stroke-linecap:butt;stroke-linejoin:miter;stroke-miterlimit:4;stroke-dasharray:none;stroke-opacity:1"
         d="m 9.006282,60.362542 c 0,0 0.887882,-2.118572 1.336455,-2.982386 0.448573,-0.863817 3.167805,-4.873887 4.083479,-5.819635 0.915676,-0.945749 5.540376,-3.719787 6.941683,-3.965588 1.401306,-0.2458 6.943126,0.874214 8.848595,2.110245 1.905467,1.23603 7.077595,7.546468 7.373923,9.116975 0.296328,1.570506 0.02191,6.786942 -0.703047,8.236211 -0.724961,1.449268 -5.662385,7.37127 -6.820784,8.243587 -1.1584,0.872316 -4.460983,2.451874 -5.46497,2.291524 -1.537796,-0.245606 -5.008198,-0.494557 -6.143526,-0.939352 -1.135331,-0.444793 -6.457127,-3.970134 -7.107252,-4.660306 -0.650129,-0.690171 -3.0348,-5.968381 -3.116984,-6.950119 -0.08218,-0.981742 0.20393,-3.361659 0.772428,-4.681156 z"
         sodipodi:nodetypes="csssssssssssc"
         id="path30371"
         inkscape:connector-curvature="0" />
      <path
         style="fill:#ea9465;fill-opacity:1;fill-rule:evenodd;stroke:none;stroke-width:0.57919663;stroke-linecap:butt;stroke-linejoin:miter;stroke-miterlimit:4;stroke-dasharray:none;stroke-opacity:1"
         d="m 13.044251,61.605331 c 0,0 0.652034,-1.535342 0.980618,-2.161713 0.328586,-0.62637 2.315493,-3.536782 2.982929,-4.224319 0.667436,-0.687534 4.03029,-2.712196 5.046848,-2.895693 1.016556,-0.183494 5.028332,0.603359 6.404276,1.48911 1.375947,0.88575 5.098814,5.426681 5.307223,6.560895 0.208408,1.134214 -0.01155,4.906703 -0.542809,5.957483 -0.531256,1.05078 -4.133475,5.352635 -4.976522,5.988083 -0.84305,0.635448 -3.242903,1.79107 -3.96987,1.679288 -1.113489,-0.171212 -3.627571,-0.336868 -4.448578,-0.653754 -0.821004,-0.316887 -4.663598,-2.843642 -5.131973,-3.339934 -0.468374,-0.496291 -2.175273,-4.302459 -2.230864,-5.011893 -0.05559,-0.709435 0.161382,-2.431239 0.578721,-3.387551 z"
         sodipodi:nodetypes="csssssssssssc"
         id="path30373"
         inkscape:connector-curvature="0" />
      <path
         d="m 28.712724,67.341767 q 0.0116,-0.05272 -0.09233,0.329804 -0.146473,0.575873 -0.474706,1.977836 -0.153725,0.518996 -0.430226,1.416378 -0.07735,0.351528 -0.375114,0.986248 -0.08363,0.110591 -1.045554,-0.0089 -0.769542,-0.09561 -1.335097,-0.220049 l -6.386418,-1.515736 q -0.05655,-0.01244 -0.290028,-0.11909 -0.237339,-0.08908 -0.312747,-0.10567 -0.538967,-0.155444 -1.096789,-0.315027 -0.700901,-0.227921 -1.039264,-0.486646 -0.338364,-0.258722 -0.141134,-1.155118 0.0077,-0.03516 0.199638,-0.637884 0.210758,-0.598584 0.291487,-0.875658 0.169194,-0.589301 0.319534,-1.18275 0.238321,-0.813647 0.606658,-1.23014 0.04254,-0.19334 0.262964,-0.476533 0.162901,-0.111576 0.540906,-0.212678 0.381873,-0.118679 0.51432,-0.181674 -0.247488,-0.312435 -1.032975,-0.964372 -0.717815,-0.600192 -0.991404,-0.973653 -0.408451,-0.568978 -0.284699,-1.131424 -0.01547,0.0703 0.190938,-0.41867 0.278918,-0.638869 1.195908,-2.021855 0.939709,-1.396415 2.656211,-2.640343 1.841698,-1.363801 3.200967,-1.433274 0.249425,-0.05568 0.713955,-0.100894 0.509484,0.01996 1.225853,0.177584 1.526998,0.335977 2.616045,1.404823 1.089046,1.068845 1.184743,2.25082 0.100048,1.072369 -0.12812,2.109377 -0.301645,1.370958 -1.412959,3.098163 -0.993365,1.550454 -1.880379,2.258226 -0.02707,0.123035 0.180299,0.168662 0.0754,0.01659 1.097759,0.130971 1.045069,0.100949 1.120476,0.117541 0.377037,0.08296 0.508515,0.204021 0.199152,0.172809 0.203011,0.873895 -0.0029,0.55218 -0.08025,0.903708 z m -1.567617,0.926569 q 0.01547,-0.0703 0.01692,-0.346397 0.02417,-0.289519 0.02853,-0.399123 0.0319,-0.324671 -0.129541,-0.489184 -0.138729,-0.177943 -0.591172,-0.277492 l -4.414719,-0.326392 q -0.327247,-0.219421 -0.284707,-0.412762 0.01547,-0.0703 0.810636,-0.540304 0.931483,-0.55057 1.287737,-0.822303 0.360123,-0.289311 0.917952,-0.848384 0.929552,-0.901112 1.38684,-1.721862 0.202058,-0.37937 0.538985,-1.281884 0.313723,-0.797056 0.348528,-0.955244 0.212699,-0.966702 -0.02753,-1.940923 -0.2992,-1.245179 -1.240338,-1.728661 -0.478061,-0.252604 -1.345246,-0.443407 -0.113111,-0.02489 -0.664165,-0.03557 -0.551055,-0.01068 -0.588758,-0.01898 -1.210869,-0.155858 -2.862112,0.881302 -1.63239,1.041307 -1.959168,2.167182 -0.04979,0.136463 -0.278434,0.546838 -0.228645,0.410375 -0.240246,0.463104 -0.123752,0.562444 -0.07155,0.684494 0.268753,0.575097 0.881676,1.023219 0.530265,0.374654 1.06053,0.749308 0.06815,-0.04028 0.140182,-0.09815 0.528352,-1.413215 0.729925,-1.700555 0.654509,-0.998484 1.082789,-1.328079 0.610032,-0.437024 1.458365,-0.250369 0.848332,0.186654 1.023788,1.275614 0.11697,0.725974 -0.05706,1.516912 -0.232034,1.054583 -0.710104,1.520642 -0.197222,0.177734 -1.297886,0.598943 -0.507069,0.238551 -1.486404,0.557464 -0.702353,0.04816 -1.978966,0.191106 -0.185134,0.03297 -0.543812,0.764858 -0.358677,0.731882 -0.46696,1.224021 l -0.367388,1.669759 q 0.16483,0.238967 0.409903,0.292889 0.03771,0.0083 0.671415,0.09245 0.629846,0.101724 0.841082,0.129782 0.471295,0.103697 1.353463,0.316225 0.976428,0.233267 0.863317,0.20838 1.508146,0.33183 5.031509,0.756939 0.154681,0.01561 0.407497,-0.684287 0.221877,-0.559282 0.314691,-0.981115 z"
         style="font-style:normal;font-variant:normal;font-weight:normal;font-stretch:normal;font-size:medium;line-height:125%;font-family:'Indigo Joker';text-align:start;writing-mode:lr-tb;text-anchor:start;fill:#96471d;fill-opacity:1;stroke:none;stroke-width:1px;stroke-linecap:butt;stroke-linejoin:miter;stroke-opacity:1"
         id="path10137"
         inkscape:connector-curvature="0" />
      <path
         style="fill:#96471d;fill-opacity:1;fill-rule:evenodd;stroke:none;stroke-width:0.57919663;stroke-linecap:butt;stroke-linejoin:miter;stroke-miterlimit:4;stroke-dasharray:none;stroke-opacity:1"
         d="m 6.8531405,51.453996 c 0,0 -1.2945049,-1.897617 -1.7752284,-2.743961 C 4.5971872,47.863688 2.7120118,43.400389 2.4166773,42.117548 2.1213428,40.834706 2.3099541,35.445122 2.8661218,34.135633 3.4222895,32.826146 7.3771519,28.785684 9.450938,27.859399 c 2.073784,-0.926285 10.182497,-1.832619 11.661442,-1.22679 1.478944,0.605829 5.706458,3.674166 6.528028,5.07094 0.821571,1.396772 3.104093,8.761449 3.205757,10.207995 0.101664,1.446545 -0.369847,5.07694 -1.050624,5.832087 -1.042739,1.156649 -3.139751,3.933019 -4.130648,4.64361 -0.990896,0.710594 -6.844224,3.257786 -7.777019,3.427769 -0.932797,0.169986 -6.658863,-0.700875 -7.527296,-1.16605 C 9.492141,54.183781 7.6509534,52.648886 6.8531405,51.453996 Z"
         sodipodi:nodetypes="csssssssssssc"
         id="path30361"
         inkscape:connector-curvature="0" />
      <path
         style="fill:#96471d;fill-opacity:1;fill-rule:evenodd;stroke:none;stroke-width:0.57919663;stroke-linecap:butt;stroke-linejoin:miter;stroke-miterlimit:4;stroke-dasharray:none;stroke-opacity:1"
         d="m 40.990941,72.839731 c 0,0 1.796013,-1.432141 2.604234,-1.974518 0.808222,-0.54238 5.118842,-2.754498 6.376146,-3.144486 1.257304,-0.389988 6.645978,-0.603008 7.993227,-0.145839 1.347247,0.457169 5.670835,4.100361 6.748889,6.099458 1.078052,1.999097 2.585346,10.017868 2.091265,11.5378 -0.494082,1.519929 -3.239286,5.964072 -4.571042,6.887316 -1.331755,0.923244 -8.506135,3.747536 -9.941102,3.956574 -1.434968,0.209038 -5.090385,0.009 -5.894103,-0.613669 -1.231045,-0.953766 -4.155781,-2.838337 -4.938147,-3.773601 -0.782367,-0.935264 -3.758116,-6.582788 -3.997049,-7.500346 -0.238936,-0.91756 0.203359,-6.692556 0.602613,-7.593201 0.399257,-0.900648 1.792869,-2.850961 2.925069,-3.735488 z"
         sodipodi:nodetypes="csssssssssssc"
         id="path30381"
         inkscape:connector-curvature="0" />
      <path
         style="fill:#96471d;fill-opacity:1;fill-rule:evenodd;stroke:none;stroke-width:0.57919663;stroke-linecap:butt;stroke-linejoin:miter;stroke-miterlimit:4;stroke-dasharray:none;stroke-opacity:1"
         d="m 62.363365,57.74196 c 0,0 0.411891,-2.259874 0.664364,-3.199901 0.252473,-0.940029 2.046478,-5.440745 2.737535,-6.561165 0.691058,-1.120421 4.611624,-4.823436 5.927377,-5.364615 1.315752,-0.541178 6.968788,-0.638183 9.095349,0.159517 2.126559,0.7977 8.533884,5.84931 9.160769,7.319453 0.626884,1.470142 1.479815,6.623688 1.083215,8.194885 -0.396599,1.571196 -3.946133,8.415837 -4.890024,9.516699 -0.943891,1.100862 -3.829901,3.353197 -4.844892,3.412335 -1.554649,0.09058 -4.997477,0.593183 -6.201864,0.402744 -1.204388,-0.190437 -7.159409,-2.48985 -7.942655,-3.024197 C 66.36929,68.063369 62.906117,63.42089 62.614892,62.479746 62.323667,61.538598 62.091687,59.152795 62.363365,57.74196 Z"
         sodipodi:nodetypes="csssssssssssc"
         id="path30281"
         inkscape:connector-curvature="0" />
      <path
         style="fill:#ea9465;fill-opacity:1;fill-rule:evenodd;stroke:none;stroke-width:0.57919663;stroke-linecap:butt;stroke-linejoin:miter;stroke-miterlimit:4;stroke-dasharray:none;stroke-opacity:1"
         d="m 66.574062,58.088018 c 0,0 0.30688,-1.639589 0.493191,-2.321935 0.186312,-0.682346 1.5014,-3.951727 2.005503,-4.766625 0.504104,-0.814895 3.353331,-3.514888 4.306711,-3.912541 0.953379,-0.397651 5.040521,-0.49125 6.574658,0.07814 1.534138,0.569388 6.145817,4.204252 6.593083,5.267187 0.447265,1.062935 1.043095,4.794563 0.750046,5.934956 -0.293049,1.140392 -2.886714,6.115818 -3.573519,6.91758 -0.686808,0.801763 -2.782273,2.446082 -3.516279,2.493125 -1.124268,0.07206 -3.615217,0.450513 -4.485139,0.317452 -0.86992,-0.133063 -5.165712,-1.775076 -5.729791,-2.159128 -0.564078,-0.384051 -3.048992,-3.734518 -3.255732,-4.415434 -0.20674,-0.680916 -0.364825,-2.409123 -0.162732,-3.432775 z"
         sodipodi:nodetypes="csssssssssssc"
         id="path30283"
         inkscape:connector-curvature="0" />
      <path
         d="m 83.109186,60.323527 q 0,-0.05398 -0.0193,0.34194 -0.01931,0.593895 -0.03861,2.033641 -0.03861,0.539905 -0.115817,1.475739 0,0.359938 -0.154422,1.043816 -0.05791,0.125979 -1.023046,0.215962 -0.772111,0.07198 -1.351193,0.07198 l -6.562939,-0.107981 q -0.0579,0 -0.308843,-0.05399 -0.250936,-0.036 -0.328148,-0.036 -0.559779,-0.036 -1.138863,-0.07198 -0.733504,-0.07198 -1.119559,-0.251956 -0.386055,-0.179968 -0.386055,-1.097806 0,-0.036 0.0579,-0.665883 0.07721,-0.629889 0.09651,-0.917838 0.03861,-0.611892 0.05791,-1.223784 0.05791,-0.845851 0.328147,-1.331765 0,-0.197965 0.154422,-0.521908 0.135119,-0.143975 0.482569,-0.323943 0.34745,-0.197965 0.463266,-0.287949 -0.308844,-0.251956 -1.216074,-0.719873 -0.830018,-0.431924 -1.177468,-0.73787 -0.521174,-0.467917 -0.521174,-1.043816 0,0.07198 0.09651,-0.44992 0.135118,-0.68388 0.733504,-2.231607 0.617689,-1.565724 2.02679,-3.149444 1.505615,-1.727696 2.818203,-2.087632 0.231632,-0.107981 0.675596,-0.251956 0.501872,-0.08998 1.235376,-0.08998 1.563524,0 2.856809,0.809857 1.293285,0.809857 1.640735,1.943656 0.328147,1.02582 0.328147,2.087633 0,1.403751 -0.714203,3.329412 -0.63699,1.727695 -1.351193,2.609539 0,0.125978 0.21233,0.125978 0.07721,0 1.100258,-0.10798 1.042349,-0.125979 1.119559,-0.125979 0.386056,0 0.540478,0.08998 0.231633,0.125978 0.386056,0.809857 0.115816,0.539905 0.115816,0.899841 z m -1.33189,1.241781 q 0,-0.07198 -0.05791,-0.34194 -0.03861,-0.287949 -0.0579,-0.39593 -0.03861,-0.323942 -0.231633,-0.449921 -0.173725,-0.143974 -0.636991,-0.143974 l -4.381726,0.629889 q -0.366753,-0.143975 -0.366753,-0.34194 0,-0.07198 0.675596,-0.701876 0.791414,-0.73787 1.080955,-1.079809 0.289542,-0.359937 0.714203,-1.02582 0.714202,-1.079809 0.98444,-1.97965 0.115817,-0.413927 0.250936,-1.367759 0.135119,-0.845851 0.135119,-1.007822 0,-0.989826 -0.443963,-1.889667 -0.559781,-1.151797 -1.582826,-1.421749 -0.521175,-0.143975 -1.409102,-0.143975 -0.115817,0 -0.656294,0.107981 -0.540477,0.107982 -0.579082,0.107982 -1.216074,0.107981 -2.605873,1.475739 -1.370496,1.367759 -1.447706,2.537552 -0.01931,0.143975 -0.154422,0.593896 -0.13512,0.44992 -0.13512,0.503911 0,0.575898 0.07721,0.683879 0.386055,0.503912 1.080955,0.809858 0.598385,0.251955 1.196771,0.503911 0.0579,-0.05399 0.115816,-0.125979 0.21233,-1.493736 0.347449,-1.817679 0.424661,-1.115803 0.772111,-1.52973 0.501872,-0.557901 1.370496,-0.557901 0.868624,0 1.273982,1.025819 0.270239,0.683879 0.270239,1.493736 0,1.079809 -0.366753,1.637711 -0.154422,0.215962 -1.138862,0.863847 -0.443964,0.34194 -1.331891,0.863848 -0.675596,0.197965 -1.89167,0.611893 -0.173725,0.07198 -0.366753,0.863847 -0.193027,0.79186 -0.193027,1.295771 l 0,1.709698 q 0.21233,0.197965 0.463266,0.197965 0.03861,0 0.675597,-0.05398 0.636991,-0.036 0.849321,-0.05399 0.482568,0 1.389798,0.018 1.003744,0.018 0.887928,0.018 1.54422,0 5.076625,-0.34194 0.154421,-0.018 0.250935,-0.755866 0.09651,-0.593896 0.09651,-1.025819 z"
         style="font-style:normal;font-variant:normal;font-weight:normal;font-stretch:normal;font-size:medium;line-height:125%;font-family:'Indigo Joker';text-align:start;writing-mode:lr-tb;text-anchor:start;fill:#96471d;fill-opacity:1;stroke:none;stroke-width:1px;stroke-linecap:butt;stroke-linejoin:miter;stroke-opacity:1"
         id="path10119"
         inkscape:connector-curvature="0" />
      <path
         style="fill:#ea9465;fill-opacity:1;fill-rule:evenodd;stroke:none;stroke-width:0.57919663;stroke-linecap:butt;stroke-linejoin:miter;stroke-miterlimit:4;stroke-dasharray:none;stroke-opacity:1"
         d="m 43.936393,75.868601 c 0,0 1.309109,-1.033762 1.898075,-1.42546 0.588967,-0.391698 3.729226,-1.990789 4.644802,-2.273455 0.915574,-0.282664 4.837562,-0.444157 5.817393,-0.117057 0.979829,0.327101 4.121206,2.943445 4.902932,4.381043 0.781728,1.437597 1.867287,7.208334 1.505552,8.303335 -0.361736,1.095 -2.365913,4.298647 -3.336429,4.965334 -0.970516,0.666688 -6.19579,2.710827 -7.240404,2.863488 -1.044617,0.152659 -3.704615,0.01417 -4.288647,-0.43291 -0.894559,-0.68479 -3.020395,-2.037151 -3.588446,-2.709302 -0.568049,-0.672152 -2.725667,-4.733524 -2.898252,-5.393748 -0.172584,-0.660223 0.157509,-4.818525 0.449353,-5.467537 0.291844,-0.649011 1.308838,-2.055217 2.13407,-2.69373 z"
         sodipodi:nodetypes="csssssssssssc"
         id="path30383"
         inkscape:connector-curvature="0" />
      <path
         d="m 54.926736,88.423299 q 0.03549,-0.04068 -0.239337,0.244976 -0.404971,0.434836 -1.366003,1.507059 -0.384025,0.381461 -1.05742,1.035898 -0.236622,0.271229 -0.802565,0.685046 -0.126458,0.05686 -0.912884,-0.509811 -0.629142,-0.45334 -1.065507,-0.834027 l -4.874483,-4.395824 q -0.04363,-0.03807 -0.197237,-0.243714 -0.165428,-0.19209 -0.22361,-0.242848 -0.398155,-0.395123 -0.810862,-0.802928 -0.505407,-0.536447 -0.678004,-0.925855 -0.172599,-0.389406 0.430785,-1.081038 0.02366,-0.02712 0.481382,-0.463707 0.472266,-0.423894 0.67611,-0.628186 0.43135,-0.435707 0.848152,-0.884105 0.599701,-0.599314 1.122773,-0.787821 0.130141,-0.149175 0.459464,-0.291765 0.196467,-0.01966 0.576596,0.07313 0.391961,0.07924 0.53839,0.08757 -0.06709,-0.392893 -0.443125,-1.3419 -0.34151,-0.871126 -0.402201,-1.330082 -0.08512,-0.695215 0.293473,-1.129181 -0.04732,0.05424 0.368502,-0.275588 0.551398,-0.426508 2.01978,-1.199413 1.494758,-0.773776 3.597713,-1.040842 2.270331,-0.312109 3.496045,0.279553 0.245532,0.07091 0.674727,0.254275 0.437338,0.262124 0.990066,0.744327 1.178186,1.027856 1.620336,2.488321 0.442151,1.460466 -0.04139,2.543247 -0.427097,0.988724 -1.12513,1.788848 -0.922822,1.05779 -2.72693,2.039347 -1.615782,0.883141 -2.733687,1.078135 -0.08282,0.09493 0.07718,0.234516 0.05818,0.05076 0.900081,0.641938 0.868274,0.590306 0.926456,0.641064 0.29091,0.253792 0.348119,0.423114 0.09173,0.247206 -0.241487,0.864056 -0.267659,0.48298 -0.50428,0.754208 z m -1.819982,0.06016 q 0.04732,-0.05424 0.181149,-0.295739 0.160204,-0.242365 0.216651,-0.336417 0.183866,-0.269487 0.121231,-0.49131 -0.03626,-0.222698 -0.385353,-0.527248 l -3.715915,-2.405883 q -0.181716,-0.349594 -0.05157,-0.49877 0.04732,-0.05424 0.970503,-0.08476 1.081439,-0.03575 1.524411,-0.103069 0.454805,-0.08088 1.212555,-0.303486 1.248046,-0.344171 2.043236,-0.844588 0.359387,-0.235775 1.088252,-0.865702 0.657878,-0.54856 0.764358,-0.670613 0.650708,-0.745878 0.907715,-1.715809 0.335368,-1.235929 -0.258077,-2.111897 -0.29808,-0.45111 -0.967174,-1.034831 -0.08727,-0.07614 -0.565533,-0.350077 -0.47826,-0.273939 -0.507351,-0.299318 -0.987353,-0.718075 -2.933789,-0.601057 -1.931891,0.129708 -2.759091,0.960442 -0.109195,0.0958 -0.506789,0.34601 -0.397596,0.250208 -0.433089,0.290892 -0.378593,0.433965 -0.391401,0.56609 -0.04036,0.633511 0.28215,1.32088 0.285276,0.583237 0.570551,1.166474 0.07912,-0.0026 0.170091,-0.01879 1.141979,-0.986013 1.456756,-1.141291 1.053526,-0.561637 1.58746,-0.645137 0.744945,-0.09047 1.399493,0.480556 0.654547,0.571031 0.285633,1.610513 -0.245944,0.692988 -0.778342,1.303251 -0.709863,0.813685 -1.35299,0.992987 -0.258337,0.06122 -1.426075,-0.09774 -0.559337,-0.03419 -1.571531,-0.224633 -0.639233,-0.294959 -1.827715,-0.78249 -0.178231,-0.05996 -0.844255,0.409846 -0.666021,0.469807 -0.99729,0.849526 l -1.123951,1.288335 q 0.02986,0.288761 0.21895,0.453725 0.02909,0.02538 0.544582,0.403455 0.503666,0.391631 0.675493,0.517661 0.363636,0.317239 1.035443,0.927212 0.744534,0.67342 0.657261,0.597283 1.163639,1.015166 4.050256,3.079691 0.128195,0.08795 0.685995,-0.404615 0.463152,-0.38408 0.747097,-0.709554 z"
         style="font-style:normal;font-variant:normal;font-weight:normal;font-stretch:normal;font-size:medium;line-height:125%;font-family:'Indigo Joker';text-align:start;writing-mode:lr-tb;text-anchor:start;fill:#96471d;fill-opacity:1;stroke:none;stroke-width:1px;stroke-linecap:butt;stroke-linejoin:miter;stroke-opacity:1"
         id="path10128"
         inkscape:connector-curvature="0" />
      <path
         style="fill:#96471d;fill-opacity:1;fill-rule:evenodd;stroke:none;stroke-width:0.57919663;stroke-linecap:butt;stroke-linejoin:miter;stroke-miterlimit:4;stroke-dasharray:none;stroke-opacity:1"
         d="m 16.208999,66.882645 c 0,0 2.342636,-1.255936 3.376328,-1.70425 1.033693,-0.448314 6.410094,-2.060274 7.926976,-2.238285 1.516883,-0.178011 7.725044,0.728476 9.174616,1.539384 1.449572,0.810908 5.664307,5.904131 6.496067,8.422577 0.831759,2.518444 0.9451,12.019079 0.07441,13.653431 -0.870693,1.63435 -4.904529,6.135419 -6.613741,6.907941 -1.709211,0.772521 -10.485137,2.473889 -12.168932,2.406845 -1.683796,-0.06704 -5.825888,-1.076325 -6.620333,-1.960671 -1.21684,-1.354541 -4.18446,-4.136105 -4.891669,-5.37369 C 12.25551,87.298343 9.98561,80.198539 9.896602,79.09723 c -0.08901,-1.101311 1.577399,-7.617376 2.215165,-8.563091 0.637768,-0.945717 2.624121,-2.880691 4.097235,-3.651494 z"
         sodipodi:nodetypes="csssssssssssc"
         id="path30391"
         inkscape:connector-curvature="0" />
      <path
         style="fill:#ea9465;fill-opacity:1;fill-rule:evenodd;stroke:none;stroke-width:0.57919663;stroke-linecap:butt;stroke-linejoin:miter;stroke-miterlimit:4;stroke-dasharray:none;stroke-opacity:1"
         d="m 19.168766,70.68323 c 0,0 1.705507,-0.903863 2.458066,-1.226501 0.752559,-0.322639 4.666737,-1.482721 5.771073,-1.610832 1.104335,-0.128109 5.624059,0.524265 6.679391,1.107852 1.05533,0.583589 4.123783,4.249039 4.729328,6.061494 0.605546,1.812454 0.688061,8.649797 0.05417,9.825994 -0.633891,1.176197 -3.570641,4.415491 -4.814998,4.971453 -1.244356,0.555962 -7.633489,1.780389 -8.859341,1.73214 -1.225854,-0.04825 -4.241419,-0.774602 -4.819798,-1.411041 -0.885896,-0.974826 -3.04641,-2.976638 -3.561281,-3.867294 -0.514869,-0.890656 -2.167423,-6.000187 -2.232224,-6.792769 -0.0648,-0.792582 1.148393,-5.482013 1.612706,-6.162618 0.464314,-0.680605 1.910437,-2.073153 2.982908,-2.627878 z"
         sodipodi:nodetypes="csssssssssssc"
         id="path30393"
         inkscape:connector-curvature="0" />
      <path
         d="m 35.655109,82.164275 q 0,0.08767 -0.115817,0.591772 -0.115816,0.482185 -0.13898,0.591772 -0.138979,1.643812 -1.922555,3.747892 -1.783575,2.125996 -3.659805,2.827356 -0.347449,0.131504 -1.598268,0.328763 -1.111839,0.175339 -1.320309,0.175339 -2.107863,0 -3.868274,-0.70136 -2.408985,-0.96437 -3.405009,-3.04653 -0.115816,-0.263011 -0.34745,-1.380803 -0.115815,-0.635607 -0.115815,-0.635607 0,-1.819152 1.829901,-2.915026 -0.04632,-0.219175 -0.416939,-0.306845 -0.370614,-0.109588 -0.440103,-0.284927 -0.41694,-0.920535 -1.227656,-3.945149 -0.20847,-1.008205 -0.648574,-2.980778 -0.02316,-0.06576 -0.138979,-0.219175 -0.115816,-0.175341 -0.115816,-0.372598 0,-0.416432 0.996022,-0.942452 0.602247,-0.328762 1.135003,-0.526019 0.13898,-0.04383 2.131025,-0.832866 0.347449,-0.241091 0.949696,-0.569854 1.528779,-0.547937 4.447357,-1.358885 0.440103,-0.175339 1.32031,-0.372596 1.690922,-0.175341 2.756434,-0.175341 1.806739,0 2.571129,3.419129 0.04632,0.241092 0.27796,0.986287 0.20847,0.635607 0.20847,0.745195 0,0.482184 -0.324287,0.854782 -0.41694,0.460267 -1.227656,0.635607 -0.6949,0.131505 -1.3898,0.263009 l -0.04632,0.06576 0,0.17534 q 0.20847,0.08767 0.648573,0.284928 0.532757,0.372597 0.926533,0.810947 0.440103,0.504102 1.158166,1.468471 0.34745,0.569855 0.718063,1.380803 0.370612,0.810946 0.370612,0.942451 l 0.02316,1.271215 z m -2.455311,0.394515 q 0,-1.22738 -0.463267,-2.520511 -0.62541,-1.687647 -1.690922,-2.147914 -1.065513,-0.482186 -1.598269,-0.547938 -0.208471,-0.04383 -1.25082,-0.04383 -2.316331,0 -3.381844,0.394515 -0.02316,0 -0.04632,0.04383 -0.02316,0.04383 -0.115817,0.04383 -0.277959,0 -0.463265,-0.460267 -0.13898,-0.35068 -0.13898,-0.61369 0,-0.810947 1.181328,-1.183544 0.718064,-0.153423 1.436127,-0.306846 2.084699,-0.701359 5.258073,-1.183544 0.06948,-0.04383 0.162143,-0.131504 -0.02316,-0.569855 -0.34745,-1.512307 -0.463266,-1.380803 -1.111839,-1.380803 -0.04632,0 -2.339495,0.657525 -2.571129,0.723278 -3.752457,0.986287 -0.880207,0.197257 -2.107863,0.70136 -1.737249,0.701359 -1.737249,1.249297 0,0 1.783576,5.786218 0.02316,0.02192 0.231634,0.219175 1.667758,-1.775317 3.520824,-1.862987 0.06949,-0.02192 0.20847,-0.06576 0.162142,-0.06575 0.254796,-0.06575 0.09266,0 0.301123,0.08767 0.231633,0.08767 0.301123,0.109588 0.787554,0.153423 1.273982,1.271215 0.393777,0.876699 0.393777,1.687646 0,0.78903 -0.185307,1.424637 -0.0695,0.328763 -0.486429,0.767113 -0.41694,0.416432 -0.76439,0.504102 -1.019186,0.306844 -1.459289,0.306844 -0.254797,0 -0.625409,-0.175339 -0.34745,-0.197258 -0.48643,-0.43835 -0.115816,-0.372598 -0.393777,-0.942452 -0.138979,-0.02192 -0.440103,-0.06576 -0.301122,-0.04383 -0.393775,-0.04383 -1.343474,0 -1.853066,0.175339 -0.880207,0.328763 -0.880207,1.336967 0,0.306845 0.09266,1.073957 0.02316,0.241092 0.20847,0.70136 0.370613,0.898617 2.293168,1.621894 1.644595,0.613689 2.779598,0.613689 1.760413,0 3.219701,-0.942452 0.6949,-0.416432 1.3898,-0.832864 1.019186,-0.679442 1.297146,-1.13971 0.926533,-1.446554 0.926533,-3.156118 z"
         style="font-style:normal;font-variant:normal;font-weight:normal;font-stretch:normal;font-size:medium;line-height:125%;font-family:'Indigo Joker';text-align:start;writing-mode:lr-tb;text-anchor:start;fill:#96471d;fill-opacity:1;stroke:none;stroke-width:1px;stroke-linecap:butt;stroke-linejoin:miter;stroke-opacity:1"
         id="path10134"
         inkscape:connector-curvature="0" />
      <path
         inkscape:connector-curvature="0"
         sodipodi:nodetypes="ccccccc"
         id="path2390"
         d="m 49.773696,32.73583 9.184656,0 -17.733451,-17.733451 -17.309544,17.309544 11.162889,0 c 0,0 6.591293,10.857402 -6.782515,17.097591 17.064645,0.806558 17.070465,-9.625266 21.477965,-16.673684 z"
         style="fill:#8a8dec;fill-opacity:1;fill-rule:evenodd;stroke:none" />
      <path
         style="fill:#ea9465;fill-opacity:1;fill-rule:evenodd;stroke:none;stroke-width:0.57919663;stroke-linecap:butt;stroke-linejoin:miter;stroke-miterlimit:4;stroke-dasharray:none;stroke-opacity:1"
         d="m 10.09282,48.742129 c 0,0 -0.933468,-1.382414 -1.280247,-1.998898 -0.346779,-0.616485 -1.707728,-3.867045 -1.921471,-4.801119 -0.21374,-0.934072 -0.0829,-4.857203 0.316215,-5.809973 0.399115,-0.952768 3.241994,-3.890718 4.733784,-4.563286 1.491789,-0.67257 7.327315,-1.325644 8.392358,-0.883418 1.065042,0.442226 4.110648,2.679269 4.703258,3.696711 0.59261,1.017441 2.242201,6.380356 2.316695,7.433435 0.07449,1.053082 -0.261573,3.695396 -0.750882,4.244536 -0.749467,0.841114 -2.256289,2.860408 -2.968852,3.376861 -0.712564,0.51645 -4.923249,2.365826 -5.594487,2.488796 -0.671236,0.12297 -4.793441,-0.51568 -5.418933,-0.855016 -0.625491,-0.339337 -1.952111,-1.458164 -2.527436,-2.328628 z"
         sodipodi:nodetypes="csssssssssssc"
         id="path30363"
         inkscape:connector-curvature="0" />
      <path
         inkscape:connector-curvature="0"
         style="fill:#6365c6;fill-opacity:1;fill-rule:evenodd;stroke:none"
         d="m 61.036409,33.596037 -1.469766,-1.469766 -17.73301,-17.733009 -0.607379,-0.60738 -0.608925,0.608925 -17.309544,17.309544 -1.46822,1.468221 2.075599,-0.0015 10.646915,0.0015 c 0.415287,0.826789 1.296594,2.867184 1.27967,5.34123 -0.02203,3.220895 -1.445262,7.100452 -7.909843,10.116811 l 0.324554,1.638224 c 8.70704,0.411539 13.360439,-2.136291 16.198333,-5.716786 2.728359,-3.442296 3.867238,-7.647623 5.818789,-10.956014 l 8.685682,0 2.077145,0 z m -4.155836,-1.720136 -7.106186,0 -0.477558,-0.0015 -0.253461,0.404919 c -2.304815,3.68583 -3.403195,8.007411 -5.936247,11.203294 -2.18134,2.752138 -5.369584,4.811176 -11.547938,5.078496 4.568696,-3.050482 5.982541,-6.861545 6.004248,-10.034899 0.02577,-3.767852 -1.749501,-6.661083 -1.749501,-6.661083 l -0.251915,-0.412647 -0.48374,-0.0015 -9.085965,0.0015 15.232398,-15.232399 15.655865,15.655864 z"
         id="path2396" />
      <path
         d="m 23.430637,38.716619 q -0.03793,-0.03842 0.226485,0.256905 0.403491,0.43621 1.401217,1.474374 0.351823,0.41135 0.954329,1.131583 0.252867,0.256151 0.623418,0.851322 0.04729,0.130339 -0.576337,0.872411 -0.498905,0.593659 -0.911012,1.000482 l -4.746408,4.533816 q -0.04121,0.04068 -0.257716,0.178552 -0.203869,0.150673 -0.258817,0.204917 -0.423659,0.367645 -0.861048,0.748857 -0.572573,0.464081 -0.973747,0.607219 -0.401171,0.143139 -1.04598,-0.510044 -0.02529,-0.02562 -0.426595,-0.514557 -0.387571,-0.502505 -0.576126,-0.720988 -0.402396,-0.462579 -0.818531,-0.911597 -0.553021,-0.64264 -0.702076,-1.178291 -0.139077,-0.140883 -0.256762,-0.479904 -0.005,-0.197386 0.115843,-0.569555 0.108189,-0.384977 0.127393,-0.530379 -0.396797,0.03767 -1.371157,0.342027 -0.894127,0.275732 -1.356327,0.302098 -0.699622,0.03314 -1.104209,-0.376696 0.05057,0.05123 -0.247399,-0.38799 Q 10.004787,44.459569 9.343307,42.937738 8.68292,41.389537 8.573103,39.272539 8.430824,36.985276 9.112067,35.806993 q 0.08898,-0.239574 0.303785,-0.653932 0.293945,-0.416616 0.815946,-0.931925 1.11269,-1.098422 2.602011,-1.430655 1.489322,-0.332233 2.533115,0.230547 0.954196,0.499497 1.700151,1.255141 0.986178,0.998987 1.830747,2.871142 0.76044,1.677028 0.871696,2.806345 0.0885,0.08965 0.239609,-0.05952 0.05495,-0.05424 0.707144,-0.84981 0.653289,-0.821934 0.708237,-0.876177 0.274739,-0.271216 0.447848,-0.315665 0.253347,-0.07308 0.843688,0.305123 0.461721,0.302862 0.714587,0.559012 z m -0.07546,1.819413 q -0.05057,-0.05123 -0.281438,-0.202658 -0.229769,-0.177797 -0.31936,-0.241087 -0.255055,-0.203411 -0.480925,-0.157459 -0.224779,0.01959 -0.554465,0.345045 l -2.675761,3.526558 q -0.362148,0.155194 -0.501224,0.01431 -0.05057,-0.05123 -0.0123,-0.97412 0.04484,-1.081101 0.01067,-1.527854 -0.04681,-0.459563 -0.212404,-1.231779 -0.250332,-1.2702 -0.690181,-2.100427 -0.208375,-0.375938 -0.782312,-1.149662 -0.498077,-0.69688 -0.611867,-0.812147 -0.695382,-0.704415 -1.643497,-1.032894 -1.207542,-0.426419 -2.125247,0.100188 -0.472043,0.263681 -1.103941,0.887477 -0.08242,0.08136 -0.391195,0.537911 -0.308773,0.456547 -0.336246,0.483668 -0.789566,0.931174 -0.817732,2.880921 -0.01443,1.936187 0.752439,2.822919 0.08741,0.116022 0.307334,0.531135 0.219924,0.415114 0.257854,0.453536 0.404586,0.409841 0.535391,0.432446 0.628751,0.0874 1.338216,-0.183064 0.60285,-0.241078 1.205701,-0.482157 0.0033,-0.0791 -0.0061,-0.171017 -0.898289,-1.212194 -1.02971,-1.537654 -0.481673,-1.092404 -0.525204,-1.631071 -0.03478,-0.749613 0.583377,-1.359848 0.618161,-0.610234 1.627305,-0.164982 0.672762,0.296836 1.241711,0.873175 0.758599,0.768451 0.88954,1.423139 0.04182,0.262177 -0.203599,1.414847 -0.07572,0.555241 -0.340968,1.550455 -0.341715,0.615509 -0.916343,1.764411 -0.07306,0.173275 0.345877,0.872416 0.418937,0.699139 0.772949,1.057749 l 1.201115,1.216716 q 0.290182,-0.0083 0.468761,-0.184575 0.02748,-0.02712 0.442866,-0.513047 0.428029,-0.473122 0.566498,-0.635093 0.343421,-0.339018 1.001701,-0.963566 0.726963,-0.692351 0.644542,-0.610987 1.098952,-1.084861 3.372583,-3.809825 0.09725,-0.121294 -0.35244,-0.714206 -0.348546,-0.490451 -0.651985,-0.797831 z"
         style="font-style:normal;font-variant:normal;font-weight:normal;font-stretch:normal;font-size:medium;line-height:125%;font-family:'Indigo Joker';text-align:start;writing-mode:lr-tb;text-anchor:start;fill:#96471d;fill-opacity:1;stroke:none;stroke-width:1px;stroke-linecap:butt;stroke-linejoin:miter;stroke-opacity:1"
         id="path10113"
         inkscape:connector-curvature="0" />
    </g>
  </g>
</svg>
