<!--Generator: Adobe Illustrator 12.0.0, SVG Export Plug-In . SVG Version: 6.00 Build 51448)--><svg xmlns:dc="http://purl.org/dc/elements/1.1/" xmlns:cc="http://creativecommons.org/ns#" xmlns:rdf="http://www.w3.org/1999/02/22-rdf-syntax-ns#" xmlns="http://www.w3.org/2000/svg" xmlns:sodipodi="http://sodipodi.sourceforge.net/DTD/sodipodi-0.dtd" xmlns:inkscape="http://www.inkscape.org/namespaces/inkscape" height="42" inkscape:version="0.92.1 r15371" sodipodi:docname="bassClefButton.svg" sodipodi:version="0.32" style="overflow:visible" viewBox="0 0 42.000002 42" width="42" inkscape:export-filename="D:\GR8DAN\My Pictures\Graphics\Buttons\large_round_blue_play_button_pressed.png" inkscape:export-xdpi="39.369999" inkscape:export-ydpi="39.369999"><metadata><rdf:RDF><cc:Work><dc:title/><dc:description/><dc:subject><rdf:Bag/></dc:subject><dc:publisher><cc:Agent rdf:about="http://www.openclipart.org/"><dc:title/></cc:Agent></dc:publisher><dc:creator><cc:Agent><dc:title>Timothée Giet</dc:title></cc:Agent></dc:creator><dc:rights><cc:Agent><dc:title/></cc:Agent></dc:rights><dc:date>2018</dc:date><dc:format>image/svg+xml</dc:format><dc:type rdf:resource="http://purl.org/dc/dcmitype/StillImage"/><cc:license rdf:resource="http://creativecommons.org/licenses/by-sa/4.0/"/><dc:language/></cc:Work><cc:License rdf:about="http://creativecommons.org/licenses/by-sa/4.0/"><cc:permits rdf:resource="http://creativecommons.org/ns#Reproduction"/><cc:permits rdf:resource="http://creativecommons.org/ns#Distribution"/><cc:requires rdf:resource="http://creativecommons.org/ns#Notice"/><cc:requires rdf:resource="http://creativecommons.org/ns#Attribution"/><cc:permits rdf:resource="http://creativecommons.org/ns#DerivativeWorks"/><cc:requires rdf:resource="http://creativecommons.org/ns#ShareAlike"/></cc:License></rdf:RDF></metadata><sodipodi:namedview bordercolor="#666666" borderopacity="1.0" inkscape:current-layer="g3" inkscape:cx="39.956846" inkscape:cy="18.564378" inkscape:pageopacity="0.0" inkscape:pageshadow="2" inkscape:window-height="1051" inkscape:window-width="1884" inkscape:window-x="0" inkscape:window-y="0" inkscape:zoom="10.502363" pagecolor="#ffffff" showgrid="true" inkscape:window-maximized="1" fit-margin-top="0" fit-margin-left="0" fit-margin-right="0" fit-margin-bottom="0"><inkscape:grid type="xygrid"/></sodipodi:namedview><g transform="translate(0 -98.454)"><circle style="opacity:1;vector-effect:none;fill:#eef1f7;fill-opacity:1;stroke:none;stroke-width:9;stroke-linecap:butt;stroke-linejoin:miter;stroke-miterlimit:4;stroke-dasharray:none;stroke-dashoffset:0;stroke-opacity:1" cx="21" cy="119.45399" r="18"/><path style="opacity:1;vector-effect:none;fill:#5471af;fill-opacity:1;stroke:none;stroke-width:11.42506504;stroke-linecap:butt;stroke-linejoin:miter;stroke-miterlimit:4;stroke-dasharray:none;stroke-dashoffset:0;stroke-opacity:1" d="M21 1A20 20 0 0 0 1 21a20 20 0 0 0 20 20 20 20 0 0 0 20-20A20 20 0 0 0 21 1zm0 3a17 17 0 0 1 17 17 17 17 0 0 1-17 17A17 17 0 0 1 4 21 17 17 0 0 1 21 4z" transform="translate(0 98.454)"/><path inkscape:connector-curvature="0" style="fill:#37496f;fill-opacity:1;fill-rule:evenodd;stroke:none;stroke-width:.22089595;stroke-miterlimit:4;stroke-dasharray:none;stroke-opacity:1" d="M17.798 108.03c-4.258.1-7.52 3.083-6.462 7.652 0 .006.006.01.007.015a3.055 3.055 0 0 0 6.1-.24 3.06 3.06 0 0 0-2.47-3.003c-.562-.199-1.404-.65-1.367-1.374.017-.36.437-1.014 1.112-1.344.819-.385 1.664-.593 2.517-.417 1.293.236 4.599 2.61 4.857 6.725.147 3.125-1.608 7.344-3.32 9.343-2.762 3.153-7.199 5.11-6.765 5.46.39.348 5.628-2.046 8.355-5.05 3.328-3.604 4.976-6.609 4.818-10.262-.095-3.654-2.923-7.61-7.382-7.505z"/><ellipse ry="2.263649" rx="2.4145589" cy="112.53559" cx="28.449829" style="fill:#37496f;fill-opacity:1;fill-rule:evenodd;stroke:none;stroke-width:.22089569;stroke-linecap:round;stroke-linejoin:round;stroke-miterlimit:4;stroke-dasharray:none;stroke-dashoffset:0;stroke-opacity:1"/><ellipse ry="2.263649" rx="2.4145589" cy="118.85842" cx="28.449829" style="fill:#37496f;fill-opacity:1;fill-rule:evenodd;stroke:none;stroke-width:.22089569;stroke-linecap:round;stroke-linejoin:round;stroke-miterlimit:4;stroke-dasharray:none;stroke-dashoffset:0;stroke-opacity:1"/></g></svg>