<?xml version="1.0" encoding="UTF-8" standalone="no"?>
<!-- Generator: Adobe Illustrator 12.0.0, SVG Export Plug-In . SVG Version: 6.00 Build 51448)  -->

<svg
   xmlns:dc="http://purl.org/dc/elements/1.1/"
   xmlns:cc="http://creativecommons.org/ns#"
   xmlns:rdf="http://www.w3.org/1999/02/22-rdf-syntax-ns#"
   xmlns:svg="http://www.w3.org/2000/svg"
   xmlns="http://www.w3.org/2000/svg"
   xmlns:sodipodi="http://sodipodi.sourceforge.net/DTD/sodipodi-0.dtd"
   xmlns:inkscape="http://www.inkscape.org/namespaces/inkscape"
   height="42"
   id="Layer_1"
   inkscape:version="0.92.1 r15371"
   sodipodi:docname="bassClefButton.svg"
   sodipodi:version="0.32"
   space="preserve"
   style="overflow:visible"
   version="1.1"
   viewBox="0 0 42.000002 42"
   width="42"
   inkscape:export-filename="D:\GR8DAN\My Pictures\Graphics\Buttons\large_round_blue_play_button_pressed.png"
   inkscape:export-xdpi="39.369999"
   inkscape:export-ydpi="39.369999">
  <metadata
     id="metadata3001">
    <rdf:RDF>
      <cc:Work
         rdf:about="">
        <dc:title></dc:title>
        <dc:description />
        <dc:subject>
          <rdf:Bag />
        </dc:subject>
        <dc:publisher>
          <cc:Agent
             rdf:about="http://www.openclipart.org/">
            <dc:title />
          </cc:Agent>
        </dc:publisher>
        <dc:creator>
          <cc:Agent>
            <dc:title>Timothée Giet</dc:title>
          </cc:Agent>
        </dc:creator>
        <dc:rights>
          <cc:Agent>
            <dc:title />
          </cc:Agent>
        </dc:rights>
        <dc:date>2018</dc:date>
        <dc:format>image/svg+xml</dc:format>
        <dc:type
           rdf:resource="http://purl.org/dc/dcmitype/StillImage" />
        <cc:license
           rdf:resource="http://creativecommons.org/licenses/by-sa/4.0/" />
        <dc:language />
      </cc:Work>
      <cc:License
         rdf:about="http://creativecommons.org/licenses/by-sa/4.0/">
        <cc:permits
           rdf:resource="http://creativecommons.org/ns#Reproduction" />
        <cc:permits
           rdf:resource="http://creativecommons.org/ns#Distribution" />
        <cc:requires
           rdf:resource="http://creativecommons.org/ns#Notice" />
        <cc:requires
           rdf:resource="http://creativecommons.org/ns#Attribution" />
        <cc:permits
           rdf:resource="http://creativecommons.org/ns#DerivativeWorks" />
        <cc:requires
           rdf:resource="http://creativecommons.org/ns#ShareAlike" />
      </cc:License>
    </rdf:RDF>
  </metadata>
  <defs
     id="defs23" />
  <sodipodi:namedview
     bordercolor="#666666"
     borderopacity="1.0"
     id="base"
     inkscape:current-layer="g3"
     inkscape:cx="39.956846"
     inkscape:cy="18.564378"
     inkscape:pageopacity="0.0"
     inkscape:pageshadow="2"
     inkscape:window-height="1051"
     inkscape:window-width="1884"
     inkscape:window-x="0"
     inkscape:window-y="0"
     inkscape:zoom="10.502363"
     pagecolor="#ffffff"
     showgrid="true"
     inkscape:window-maximized="1"
     fit-margin-top="0"
     fit-margin-left="0"
     fit-margin-right="0"
     fit-margin-bottom="0">
    <inkscape:grid
       type="xygrid"
       id="grid855" />
  </sodipodi:namedview>
  <g
     id="g3"
     transform="translate(3.0415638e-8,-98.453992)">
    <radialGradient
       cx="68.590797"
       cy="68.5327"
       gradientUnits="userSpaceOnUse"
       id="XMLID_2_"
       r="63.7393"
       gradientTransform="matrix(-0.24216096,0,0,0.24216096,36.716755,100.51532)">
      <stop
         id="stop8"
         offset="0"
         style="stop-color:#D4E4F7" />
      <stop
         id="stop10"
         offset="1"
         style="stop-color:#7FB5F7" />
    </radialGradient>
    <circle
       style="opacity:1;vector-effect:none;fill:#eef1f7;fill-opacity:1;stroke:none;stroke-width:9;stroke-linecap:butt;stroke-linejoin:miter;stroke-miterlimit:4;stroke-dasharray:none;stroke-dashoffset:0;stroke-opacity:1"
       id="path826"
       cx="21"
       cy="119.45399"
       r="18" />
    <path
       style="opacity:1;vector-effect:none;fill:#5471af;fill-opacity:1;stroke:none;stroke-width:11.42506504;stroke-linecap:butt;stroke-linejoin:miter;stroke-miterlimit:4;stroke-dasharray:none;stroke-dashoffset:0;stroke-opacity:1"
       d="M 21 1 A 20 20 0 0 0 1 21 A 20 20 0 0 0 21 41 A 20 20 0 0 0 41 21 A 20 20 0 0 0 21 1 z M 21 4 A 17 17 0 0 1 38 21 A 17 17 0 0 1 21 38 A 17 17 0 0 1 4 21 A 17 17 0 0 1 21 4 z "
       transform="translate(-3.0415638e-8,98.453992)"
       id="path837" />
    <path
       inkscape:connector-curvature="0"
       style="fill:#37496f;fill-opacity:1;fill-rule:evenodd;stroke:none;stroke-width:0.22089595;stroke-miterlimit:4;stroke-dasharray:none;stroke-opacity:1"
       d="m 17.798396,108.02959 c -4.257961,0.10079 -7.520005,3.08367 -6.462874,7.65199 0.0013,0.006 0.0065,0.0101 0.0077,0.0154 0.124104,1.57552 1.435035,2.81834 3.042262,2.81834 1.689103,0 3.057704,-1.3686 3.057704,-3.05771 0,-1.48868 -1.061821,-2.72999 -2.470873,-3.00365 -0.561509,-0.19868 -1.403655,-0.65042 -1.366701,-1.37442 0.01703,-0.36034 0.437695,-1.01393 1.111892,-1.34354 0.819401,-0.38454 1.664333,-0.59262 2.517201,-0.41696 1.292838,0.23601 4.599082,2.61004 4.856809,6.72541 0.147933,3.1246 -1.607198,7.34323 -3.320235,9.34297 -2.7616,3.15214 -7.197992,5.11013 -6.764012,5.45908 0.389515,0.34897 5.627302,-2.04504 8.354634,-5.04984 3.328324,-3.60404 4.976002,-6.60819 4.8182,-10.26184 -0.09491,-3.65364 -2.923534,-7.60931 -7.381729,-7.50527 z"
       id="path861" />
    <ellipse
       ry="2.263649"
       rx="2.4145589"
       cy="112.53559"
       cx="28.449829"
       style="fill:#37496f;fill-opacity:1;fill-rule:evenodd;stroke:none;stroke-width:0.22089569;stroke-linecap:round;stroke-linejoin:round;stroke-miterlimit:4;stroke-dasharray:none;stroke-dashoffset:0;stroke-opacity:1"
       id="path1877" />
    <ellipse
       ry="2.263649"
       rx="2.4145589"
       cy="118.85842"
       cx="28.449829"
       style="fill:#37496f;fill-opacity:1;fill-rule:evenodd;stroke:none;stroke-width:0.22089569;stroke-linecap:round;stroke-linejoin:round;stroke-miterlimit:4;stroke-dasharray:none;stroke-dashoffset:0;stroke-opacity:1"
       id="path2766" />
  </g>
</svg>
