<svg xmlns:dc="http://purl.org/dc/elements/1.1/" xmlns:cc="http://creativecommons.org/ns#" xmlns:rdf="http://www.w3.org/1999/02/22-rdf-syntax-ns#" xmlns="http://www.w3.org/2000/svg" xmlns:sodipodi="http://sodipodi.sourceforge.net/DTD/sodipodi-0.dtd" xmlns:inkscape="http://www.inkscape.org/namespaces/inkscape" sodipodi:docname="bassClef.svg" viewBox="0 0 95.116 153.12" sodipodi:version="0.32" inkscape:output_extension="org.inkscape.output.svg.inkscape" inkscape:version="0.91 r13725"><sodipodi:namedview bordercolor="#666666" inkscape:pageshadow="2" guidetolerance="10.0" pagecolor="#ffffff" gridtolerance="10.0" inkscape:zoom="1.7353499" objecttolerance="10.0" borderopacity="1.0" inkscape:current-layer="svg2" inkscape:cx="45.535866" inkscape:cy="99.748538" inkscape:window-y="75" inkscape:window-x="661" inkscape:window-height="643" showgrid="false" inkscape:pageopacity="0.0" inkscape:window-width="823" inkscape:window-maximized="0"/><metadata><rdf:RDF><cc:Work><dc:format>image/svg+xml</dc:format><dc:type rdf:resource="http://purl.org/dc/dcmitype/StillImage"/><cc:license rdf:resource="http://creativecommons.org/licenses/publicdomain/"/><dc:publisher><cc:Agent rdf:about="http://openclipart.org/"><dc:title>Openclipart</dc:title></cc:Agent></dc:publisher><dc:title>Treble clef</dc:title><dc:date>2006-12-03T12:59:04</dc:date><dc:description>Hollow treble clef for use at drawings</dc:description><dc:source>https://openclipart.org/detail/12473/treble-clef-by-rickvanderzwet-12473</dc:source><dc:creator><cc:Agent><dc:title>rickvanderzwet</dc:title></cc:Agent></dc:creator><dc:subject><rdf:Bag><rdf:li>clef</rdf:li><rdf:li>line art</rdf:li><rdf:li>music</rdf:li><rdf:li>sign</rdf:li><rdf:li>silhouette</rdf:li><rdf:li>treble</rdf:li></rdf:Bag></dc:subject></cc:Work><cc:License rdf:about="http://creativecommons.org/licenses/publicdomain/"><cc:permits rdf:resource="http://creativecommons.org/ns#Reproduction"/><cc:permits rdf:resource="http://creativecommons.org/ns#Distribution"/><cc:permits rdf:resource="http://creativecommons.org/ns#DerivativeWorks"/></cc:License></rdf:RDF></metadata><path inkscape:connector-curvature="0" style="fill:#000;fill-rule:evenodd;stroke:#000;stroke-width:.81543082" d="M38.268 6.65c-14.926.396-26.36 11.984-22.655 29.752.003.019.022.038.027.057.435 6.123 5.03 10.947 10.663 10.947 5.921 0 10.72-5.313 10.72-11.87 0-5.804-3.723-10.628-8.662-11.683-1.968-.772-4.92-2.525-4.792-5.351.062-1.395 1.535-3.938 3.898-5.22 2.873-1.488 5.834-2.298 8.825-1.62 4.531.923 16.122 10.156 17.022 26.153.527 12.135-5.623 28.547-11.636 36.31-9.681 12.266-25.233 19.879-23.71 21.235 1.364 1.357 19.725-7.951 29.286-19.634 11.667-14.018 17.444-25.7 16.883-39.89C63.814 21.63 53.892 6.255 38.267 6.65z"/><ellipse ry="8.7999544" rx="8.4639387" cy="24.160589" cx="75.6045" style="fill:#000;fill-rule:evenodd;stroke:#000;stroke-width:.81543666;stroke-linecap:round;stroke-linejoin:round"/><ellipse ry="8.7999544" rx="8.4639387" cy="48.750023" cx="75.6045" style="fill:#000;fill-rule:evenodd;stroke:#000;stroke-width:.81543666;stroke-linecap:round;stroke-linejoin:round"/></svg>