<?xml version="1.0" encoding="UTF-8" standalone="no"?>
<!-- Created with Inkscape (http://www.inkscape.org/) -->

<svg
   xmlns:dc="http://purl.org/dc/elements/1.1/"
   xmlns:cc="http://creativecommons.org/ns#"
   xmlns:rdf="http://www.w3.org/1999/02/22-rdf-syntax-ns#"
   xmlns:svg="http://www.w3.org/2000/svg"
   xmlns="http://www.w3.org/2000/svg"
   xmlns:xlink="http://www.w3.org/1999/xlink"
   xmlns:sodipodi="http://sodipodi.sourceforge.net/DTD/sodipodi-0.dtd"
   xmlns:inkscape="http://www.inkscape.org/namespaces/inkscape"
   width="20"
   height="20"
   id="svg4191"
   version="1.1"
   inkscape:version="0.48.3.1 r9886"
   sodipodi:docname="failed.svg">
  <defs
     id="defs4193">
    <linearGradient
       inkscape:collect="always"
       xlink:href="#linearGradient2806"
       id="linearGradient3179"
       gradientUnits="userSpaceOnUse"
       gradientTransform="matrix(0.122817,0,0,0.122817,678.77995,189.36269)"
       x1="274.81769"
       y1="284.70993"
       x2="324.22366"
       y2="480.46399" />
    <linearGradient
       id="linearGradient2806">
      <stop
         style="stop-color:white;stop-opacity:1;"
         offset="0"
         id="stop2808" />
      <stop
         style="stop-color:white;stop-opacity:0;"
         offset="1"
         id="stop2810" />
    </linearGradient>
    <linearGradient
       y2="480.46399"
       x2="324.22366"
       y1="284.70993"
       x1="274.81769"
       gradientTransform="matrix(0.122817,0,0,0.122817,678.77995,189.36269)"
       gradientUnits="userSpaceOnUse"
       id="linearGradient4189"
       xlink:href="#linearGradient2806"
       inkscape:collect="always" />
    <linearGradient
       inkscape:collect="always"
       xlink:href="#linearGradient2806-1"
       id="linearGradient2490"
       gradientUnits="userSpaceOnUse"
       gradientTransform="matrix(0.122805,0,0,0.122805,678.81385,294.86499)"
       x1="274.81769"
       y1="284.70993"
       x2="324.22366"
       y2="480.46399" />
    <linearGradient
       id="linearGradient2806-1">
      <stop
         style="stop-color:white;stop-opacity:1;"
         offset="0"
         id="stop2808-6" />
      <stop
         style="stop-color:white;stop-opacity:0;"
         offset="1"
         id="stop2810-7" />
    </linearGradient>
    <linearGradient
       y2="480.46399"
       x2="324.22366"
       y1="284.70993"
       x1="274.81769"
       gradientTransform="matrix(0.122805,0,0,0.122805,678.81385,294.86499)"
       gradientUnits="userSpaceOnUse"
       id="linearGradient4240"
       xlink:href="#linearGradient2806-1"
       inkscape:collect="always" />
    <linearGradient
       inkscape:collect="always"
       xlink:href="#linearGradient2806-1"
       id="linearGradient4303"
       gradientUnits="userSpaceOnUse"
       gradientTransform="matrix(0.122805,0,0,0.122805,678.81385,294.86499)"
       x1="274.81769"
       y1="284.70993"
       x2="324.22366"
       y2="480.46399" />
  </defs>
  <sodipodi:namedview
     id="base"
     pagecolor="#ffffff"
     bordercolor="#666666"
     borderopacity="1.0"
     inkscape:pageopacity="0.0"
     inkscape:pageshadow="2"
     inkscape:zoom="11.2"
     inkscape:cx="-8.0357778"
     inkscape:cy="15.676832"
     inkscape:document-units="px"
     inkscape:current-layer="layer1"
     showgrid="false"
     inkscape:window-width="1210"
     inkscape:window-height="871"
     inkscape:window-x="290"
     inkscape:window-y="107"
     inkscape:window-maximized="0"
     fit-margin-top="0"
     fit-margin-left="0"
     fit-margin-right="0"
     fit-margin-bottom="0" />
  <metadata
     id="metadata4196">
    <rdf:RDF>
      <cc:Work
         rdf:about="">
        <dc:format>image/svg+xml</dc:format>
        <dc:type
           rdf:resource="http://purl.org/dc/dcmitype/StillImage" />
        <dc:title />
      </cc:Work>
    </rdf:RDF>
  </metadata>
  <g
     inkscape:label="Calque 1"
     inkscape:groupmode="layer"
     id="layer1"
     transform="translate(-303.72363,-378.02262)">
    <g
       style="display:inline"
       transform="matrix(0.48781303,0,0,0.48775515,-39.39722,267.24524)"
       id="g3171">
      <path
         sodipodi:type="arc"
         style="fill:#aa0000;fill-opacity:1;stroke-linecap:round"
         id="path3173"
         sodipodi:cx="-325.76718"
         sodipodi:cy="322.08786"
         sodipodi:rx="168.28732"
         sodipodi:ry="168.28732"
         d="m -157.47986,322.08786 c 0,92.94252 -75.3448,168.28732 -168.28732,168.28732 -92.94252,0 -168.28732,-75.3448 -168.28732,-168.28732 0,-92.94252 75.3448,-168.28732 168.28732,-168.28732 92.94252,0 168.28732,75.3448 168.28732,168.28732 z"
         transform="matrix(-0.1087594,0,0,0.1087594,688.40496,212.75828)" />
      <path
         inkscape:connector-curvature="0"
         style="fill:#f8d600;fill-opacity:1;stroke:#000000;stroke-linecap:round"
         d="m 723.88565,227.61682 c -11.0409,0 -20,8.95908 -20,19.99998 0,11.04089 8.9591,20.00382 20,20.00382 11.0409,0 20,-8.96292 20,-20.00382 0,-11.0409 -8.9591,-19.99998 -20,-19.99998 z m -9.7026,7.93321 c 0.8498,-0.0315 1.749,0.30966 2.4449,1.00556 l 7.2577,7.25772 7.2577,-7.25772 c 1.2372,-1.23717 3.1183,-1.34918 4.218,-0.24947 1.0997,1.0997 0.9877,2.98082 -0.2495,4.21799 l -7.0888,7.09269 7.0888,7.09268 c 1.2372,1.23716 1.3492,3.11829 0.2495,4.21799 -1.0997,1.09971 -2.9808,0.98769 -4.218,-0.24947 l -7.2577,-7.25771 -7.2577,7.25771 c -1.2372,1.23718 -3.1183,1.34918 -4.218,0.24947 -1.0997,-1.0997 -0.9877,-2.98082 0.2494,-4.21799 l 7.0889,-7.09268 -7.0889,-7.09269 c -1.2371,-1.23716 -1.3491,-3.11829 -0.2494,-4.21799 0.4811,-0.48112 1.1122,-0.73159 1.7731,-0.75609 z"
         id="path3175" />
      <path
         inkscape:connector-curvature="0"
         style="fill:url(#linearGradient4189);fill-opacity:1;stroke-linecap:round"
         d="m 742.49205,245.27303 c 0.0411,4.32814 -37.1605,3.93056 -37.1654,0 -0.0117,-9.34057 8.325,-16.92134 18.5827,-16.92134 10.2577,0 18.4942,7.58284 18.5827,16.92134 z"
         id="path3177"
         sodipodi:nodetypes="csss" />
    </g>
  </g>
</svg>
