<!--Created with Inkscape (http://www.inkscape.org/)--><svg xmlns:dc="http://purl.org/dc/elements/1.1/" xmlns:cc="http://creativecommons.org/ns#" xmlns:rdf="http://www.w3.org/1999/02/22-rdf-syntax-ns#" xmlns="http://www.w3.org/2000/svg" xmlns:sodipodi="http://sodipodi.sourceforge.net/DTD/sodipodi-0.dtd" xmlns:inkscape="http://www.inkscape.org/namespaces/inkscape" viewBox="0 0 744.09 1052.4" inkscape:version="0.92.1 r15371" sodipodi:docname="genericNoteEighth.svg"><sodipodi:namedview pagecolor="#ffffff" bordercolor="#666666" borderopacity="1" objecttolerance="10" gridtolerance="10" guidetolerance="10" inkscape:pageopacity="0" inkscape:pageshadow="2" inkscape:window-width="1884" inkscape:window-height="1051" showgrid="false" inkscape:zoom="0.22424933" inkscape:cx="-118.48042" inkscape:cy="526.20001" inkscape:window-x="0" inkscape:window-y="0" inkscape:window-maximized="1" inkscape:current-layer="layer1"/><title>eighth note</title><path style="stroke-linejoin:round;fill-rule:evenodd;stroke:none;stroke-linecap:round;stroke-width:5.9241;fill:#000;fill-opacity:1" d="M418.39 231.34c14.32 21.136 21.682 46.728 40.135 64.982 21.135 27.835 48.146 50.891 69.089 79.058 15.157 19.681 31.771 40.599 36.074 65.357 11.587 31.757 6.556 67.409-5.806 98.498-13.947 16.765-23.482-4.932-19.589-18.365.594-18.535.323-37.021-6.785-54.528-6.305-26.255-17.834-51.101-37.136-70.366-16.772-14.701-35.813-47.095-61.382-35.941-16.885 10.637-9.53 32.139-11.346 48.712-1.004 101.95-1.071 203.94-2.701 305.87-1.246 42.809-38.247 71.529-72.88 89.908-30.854 18.567-67.795 28.966-103.61 20.691-33.304-3.417-67.756-27.73-68.454-63.704-2.22-41.711 27.904-80.552 64.988-97.024 36.404-20.749 82.429-25.246 121.63-10.331 19.156 6.055 24.483-11.721 26.874-28.819 2.212-129.77 3.983-259.54 4.435-389.33.366-12.973 21.496-16.139 26.461-4.66z"/><metadata><rdf:RDF><cc:Work><dc:format>image/svg+xml</dc:format><dc:type rdf:resource="http://purl.org/dc/dcmitype/StillImage"/><cc:license rdf:resource="http://creativecommons.org/publicdomain/zero/1.0/"/><dc:publisher><cc:Agent rdf:about="http://openclipart.org/"><dc:title>Openclipart</dc:title></cc:Agent></dc:publisher><dc:title>Eighth Note (Stem Facing Up)</dc:title><dc:date>2010-10-27T16:06:43</dc:date><dc:description>a single stem facing up eighth note</dc:description><dc:source>https://openclipart.org/detail/92869/eighth-note-(stem-facing-up)-by-jaschon</dc:source><dc:creator><cc:Agent><dc:title>jaschon</dc:title></cc:Agent></dc:creator><dc:subject><rdf:Bag><rdf:li>black and white</rdf:li><rdf:li>eighth</rdf:li><rdf:li>flag</rdf:li><rdf:li>music</rdf:li><rdf:li>music note</rdf:li><rdf:li>musical notation</rdf:li><rdf:li>quaver</rdf:li><rdf:li>sound</rdf:li><rdf:li>staff</rdf:li></rdf:Bag></dc:subject><dc:contributor><cc:Agent><dc:title>Edited by Timothee Giet for GCompris</dc:title></cc:Agent></dc:contributor></cc:Work><cc:License rdf:about="http://creativecommons.org/publicdomain/zero/1.0/"><cc:permits rdf:resource="http://creativecommons.org/ns#Reproduction"/><cc:permits rdf:resource="http://creativecommons.org/ns#Distribution"/><cc:permits rdf:resource="http://creativecommons.org/ns#DerivativeWorks"/></cc:License></rdf:RDF></metadata></svg>