<svg xmlns:dc="http://purl.org/dc/elements/1.1/" xmlns:cc="http://creativecommons.org/ns#" xmlns:rdf="http://www.w3.org/1999/02/22-rdf-syntax-ns#" xmlns="http://www.w3.org/2000/svg" xmlns:sodipodi="http://sodipodi.sourceforge.net/DTD/sodipodi-0.dtd" xmlns:inkscape="http://www.inkscape.org/namespaces/inkscape" width="744" height="1052" viewBox="0 0 744 1052" inkscape:version="0.92.1 r15371" sodipodi:docname="quarterRest.svg"><metadata><rdf:RDF><cc:Work><dc:format>image/svg+xml</dc:format><dc:type rdf:resource="http://purl.org/dc/dcmitype/StillImage"/><dc:title/><dc:date>2018</dc:date><dc:creator><cc:Agent><dc:title>Timothée Giet</dc:title></cc:Agent></dc:creator><cc:license rdf:resource="http://creativecommons.org/licenses/by-sa/4.0/"/></cc:Work><cc:License rdf:about="http://creativecommons.org/licenses/by-sa/4.0/"><cc:permits rdf:resource="http://creativecommons.org/ns#Reproduction"/><cc:permits rdf:resource="http://creativecommons.org/ns#Distribution"/><cc:requires rdf:resource="http://creativecommons.org/ns#Notice"/><cc:requires rdf:resource="http://creativecommons.org/ns#Attribution"/><cc:permits rdf:resource="http://creativecommons.org/ns#DerivativeWorks"/><cc:requires rdf:resource="http://creativecommons.org/ns#ShareAlike"/></cc:License></rdf:RDF></metadata><sodipodi:namedview pagecolor="#ffffff" bordercolor="#666666" borderopacity="1" objecttolerance="10" gridtolerance="10" guidetolerance="10" inkscape:pageopacity="0" inkscape:pageshadow="2" inkscape:window-width="1884" inkscape:window-height="1051" showgrid="false" inkscape:zoom="0.98333333" inkscape:cx="436.77966" inkscape:cy="665.08474" inkscape:window-x="0" inkscape:window-y="0" inkscape:window-maximized="1" inkscape:current-layer="svg2"/><path style="fill:#000;stroke-width:.13448758" d="M333.769 734.347c-25.693-25.818-43.439-58.867-59.704-91.318-13.597-30.9-29.376-64.555-23.883-99.148 5.03-27.83 39.009-24.582 59.956-21.114 27.648 4.5 54.852 12.34 80.483 23.65-40.918-45.605-80.038-92.854-119.647-139.596-16.258-18.874-1.354-44.205 14.387-57.811 27.31-29.791 69.312-48.553 82.263-89.568 13.978-36.29-.275-77.142-27.557-103.016-13.817-11.195-38.612-46.24-4.954-45.756 23.966 22.529 43.883 49.689 66.05 74.208 26.324 31.335 53.346 62.257 78.553 94.415 11.968 23.026-9.266 44.951-24.96 59.49-26.684 25.813-63.786 44.748-75.256 82.608-13.272 34.039-2.225 73.345 23.164 98.675 22.467 27.706 47.52 53.44 68.71 82.09 3.407 28.836-28.476 15.08-38.726 1.013-26.934-15.148-60.057-24.852-90.64-16.409-25.271 11.163-26.606 44.2-25.083 68.019 2.062 25.814 9.827 51.534 24.87 72.703 1.231 4.761-3.843 7.875-8.026 6.865z" inkscape:connector-curvature="0"/></svg>