<!--Created with Inkscape (http://www.inkscape.org/)--><svg xmlns:dc="http://purl.org/dc/elements/1.1/" xmlns:cc="http://creativecommons.org/ns#" xmlns:rdf="http://www.w3.org/1999/02/22-rdf-syntax-ns#" xmlns="http://www.w3.org/2000/svg" xmlns:sodipodi="http://sodipodi.sourceforge.net/DTD/sodipodi-0.dtd" xmlns:inkscape="http://www.inkscape.org/namespaces/inkscape" viewBox="0 0 744 1052" inkscape:version="0.92.1 r15371" sodipodi:docname="trebleB3Half.svg"><sodipodi:namedview pagecolor="#ffffff" bordercolor="#666666" borderopacity="1" objecttolerance="10" gridtolerance="10" guidetolerance="10" inkscape:pageopacity="0" inkscape:pageshadow="2" inkscape:window-width="1884" inkscape:window-height="1051" showgrid="false" inkscape:zoom="0.43502872" inkscape:cx="513.36151" inkscape:cy="369.23983" inkscape:window-x="0" inkscape:window-y="0" inkscape:window-maximized="1" inkscape:current-layer="svg2"/><metadata><rdf:RDF><cc:Work><dc:format>image/svg+xml</dc:format><dc:type rdf:resource="http://purl.org/dc/dcmitype/StillImage"/><cc:license rdf:resource="http://creativecommons.org/publicdomain/zero/1.0/"/><dc:publisher><cc:Agent rdf:about="http://openclipart.org/"><dc:title>Openclipart</dc:title></cc:Agent></dc:publisher><dc:title/><dc:date>2011-05-27T21:51:50</dc:date><dc:description>There didn&apos;t seem to be a whole note on openclipart already. Here is a big one!</dc:description><dc:source>https://openclipart.org/detail/140893/whole-note-by-10binary</dc:source><dc:creator><cc:Agent><dc:title>10binary</dc:title></cc:Agent></dc:creator><dc:subject><rdf:Bag><rdf:li>music</rdf:li><rdf:li>notation</rdf:li><rdf:li>note</rdf:li><rdf:li>whole</rdf:li></rdf:Bag></dc:subject><dc:contributor><cc:Agent><dc:title>Edited by Timothée Giet for GCompris</dc:title></cc:Agent></dc:contributor></cc:Work><cc:License rdf:about="http://creativecommons.org/publicdomain/zero/1.0/"><cc:permits rdf:resource="http://creativecommons.org/ns#Reproduction"/><cc:permits rdf:resource="http://creativecommons.org/ns#Distribution"/><cc:permits rdf:resource="http://creativecommons.org/ns#DerivativeWorks"/></cc:License></rdf:RDF></metadata><path style="fill:#000;fill-opacity:1;stroke:none;stroke-width:0;stroke-linecap:round;stroke-linejoin:miter;stroke-miterlimit:4;stroke-dasharray:none;stroke-opacity:1" d="M617.238 634.957v24.478c-183.158.45-366.32-.417-549.464-2.71v-23.603c183.153.856 366.309 1.326 549.464 1.835z" inkscape:connector-curvature="0"/><path inkscape:connector-curvature="0" style="fill:#000;fill-rule:evenodd;stroke:none;stroke-width:5.92409992;stroke-linecap:round;stroke-linejoin:round;fill-opacity:1" d="M411.081 225.777c-7.247.331-15.544 4.858-15.75 12.156-.452 129.79-2.225 259.57-4.437 389.34-2.39 17.098-7.719 34.867-26.875 28.812-39.21-14.91-85.23-10.4-121.63 10.35-37.084 16.47-67.22 55.289-65 97 .698 35.974 35.134 60.3 68.438 63.719 35.814 8.274 72.77-2.12 103.62-20.688 34.633-18.38 71.629-47.097 72.875-89.906 2.456-167.09 4.744-319.48-.563-483.28-.073-5.472-5.05-7.758-10.688-7.5zm-99.28 436.04c30.478-.002 56.713 13 67.312 36.562 16.152 35.904-10.092 82.712-58.594 104.53-48.502 21.819-100.91 10.404-117.06-25.5-16.152-35.904 10.092-82.712 58.594-104.53 16.672-7.5 33.785-11.062 49.75-11.062z"/></svg>