<?xml version="1.0" encoding="UTF-8" standalone="no"?>
<!-- Created with Inkscape (http://www.inkscape.org/) -->

<svg
   width="125.50723"
   height="106.81167"
   viewBox="0 0 125.50723 106.81167"
   version="1.1"
   id="svg1059"
   xmlns="http://www.w3.org/2000/svg"
   xmlns:svg="http://www.w3.org/2000/svg"
   xmlns:rdf="http://www.w3.org/1999/02/22-rdf-syntax-ns#"
   xmlns:cc="http://creativecommons.org/ns#"
   xmlns:dc="http://purl.org/dc/elements/1.1/">
  <defs
     id="defs1053" />
  <metadata
     id="metadata1056">
    <rdf:RDF>
      <cc:Work
         rdf:about="">
        <dc:format>image/svg+xml</dc:format>
        <dc:type
           rdf:resource="http://purl.org/dc/dcmitype/StillImage" />
      </cc:Work>
    </rdf:RDF>
  </metadata>
  <g
     id="layer9"
     style="display:inline"
     transform="translate(-183.8566,-84.41814)">
    <path
       style="display:inline;fill:#7c36e7;fill-opacity:1;fill-rule:evenodd;stroke:#505050;stroke-width:0.5;stroke-linecap:round;stroke-linejoin:round;stroke-miterlimit:4;stroke-dasharray:none;stroke-opacity:1"
       class="polygon"
       d="m 260.75864,87.527429 0.004,0.0895 0.4221,0.90944 1.05397,3.38383 0.60117,0.42721 0.68559,0.36071 0.4835,0.50268 0.1893,0.50524 -0.0639,0.78408 0.0256,0.91455 0.28268,0.69583 0.39268,0.5321 0.36582,0.26605 0.54873,0.0256 0.65617,0.13047 0.44257,0.52698 1.40405,3.854151 0.13687,0.50269 0.58966,0.15988 0.97338,-0.0767 0.99514,0.40163 1.06676,0.6242 1.0028,1.17292 0.67664,0.18931 2.11101,-0.17396 2.89164,0.18931 1.35532,0.60501 -0.13942,0.37221 -1.04246,0.41954 -1.83626,0.48862 -0.54233,0.8314 -0.3057,1.07316 0.0512,0.60629 0.45024,0.66512 1.29789,1.319 0.0768,0.47838 0.23023,0.66513 0.24303,0.45535 -0.26733,0.88386 -1.17676,0.60756 -1.54642,0.66129 -3.10538,2.94293 -0.23151,0.63571 0.0128,1.74071 -0.30698,0.49757 -0.98106,-0.009 -0.76874,-0.0895 -0.0384,0.61012 -0.49117,0.81222 -0.27884,0.70606 1.14223,1.66883 0.20337,0.88385 -0.18163,0.80583 -1.05525,1.38781 -0.62675,0.93629 0.15221,0.20977 0.82245,0.37094 2.56445,3.05472 0.82501,1.07188 1.08211,-0.2814 0.4042,0.0128 0.31849,0.17396 0.1957,0.3607 v 0.45919 l -0.275,0.68687 1.37898,0.28013 0.49757,0.69582 1.6114,2.38013 -0.064,0.70606 -0.77129,1.12432 -0.004,0.74571 0.16117,0.66896 0.25198,0.23279 2.37207,0.0895 1.00792,0.26861 2.46698,1.21897 2.80299,1.86683 2.29584,1.52954 1.95483,1.30211 2.09477,-0.0895 0.57047,0.23663 0.53082,0.40675 0.59989,1.06932 1.19851,2.42016 1.01816,0.80583 1.57392,1.9391 1.47645,1.81631 -0.97339,2.46992 -0.95164,2.56713 v 3.31412 1.77922 l 2.006,0.12791 2.22971,0.12791 0.0128,2.12584 0.0256,2.13864 0.0128,2.4405 0.65489,0.12791 1.04246,0.52443 0.4464,0.79303 0.56024,0.4349 h 0.67408 l 0.66769,0.38372 0.66001,0.7035 0.23919,0.53722 -0.17651,0.37094 0.1407,0.63954 0.45919,0.92094 0.56152,0.4349 0.86978,0.52442 -1.1806,0.30698 -1.27397,-0.23023 -2.72306,-1.07444 h -0.88129 l -1.15374,0.40931 -0.0512,0.37094 -2.87552,-1.20235 -1.03862,-0.24302 h -0.37094 l -1.64875,0.0102 -2.34713,0.21744 -1.38269,0.48606 -0.95932,0.52442 -0.43361,0.51164 -0.15733,0.26861 -0.74699,1.49653 -0.86594,1.9212 -0.89664,1.73061 -1.74635,2.43154 -0.96699,1.1256 -2.07595,2.09004 -2.23841,0.4221 -5.20257,-0.40931 -5.76588,-0.46048 -5.73838,-0.46047 -4.26947,-0.34535 -0.32873,-0.12791 -4.22202,-2.979 -3.34008,-2.3548 -4.1683,-2.94063 -4.25822,-3.00203 -4.31948,-3.04807 -3.13902,-2.21282 -3.81104,-2.84598 -3.46877,-2.59271 -2.7393,-2.04527 -3.51378,-1.79072 -2.74544,-1.39933 -3.99844,-2.03758 -3.19772,-1.62829 -2.73802,-1.39548 -4.2146,-2.14759 -1.4015,-0.58839 -4.36809,-0.71629 -4.1408,-0.61396 -4.29071,-0.62675 -2.85544,-0.4221 1.88486,-1.52724 -0.57943,-1.36965 -1.37399,0.25326 -1.26119,0.32617 -0.76489,-2.13467 0.97467,-0.26349 -0.90048,-2.78241 -0.92862,-2.86477 -0.89281,-2.76565 -0.91455,-2.83101 3.62239,-1.81375 2.7068,-1.35596 3.7874,-1.8974 3.65231,-1.82923 3.47887,-1.74314 3.831,-1.91992 3.42758,-1.71756 3.14144,-0.6971 0.66513,-0.54362 1.43271,-2.34393 1.22409,-2.0042 0.0639,-0.46431 0.005,-2.84048 0.21489,-3.33574 0.40803,-1.7819 0.7035,-1.57507 0.64977,-1.14862 0.064,-1.07699 -0.0895,-1.09235 -0.67024,-1.65015 -0.69838,-1.71935 0.0767,-1.658211 0.12919,-0.88769 0.43745,-1.41838 0.74443,-1.03735 0.80071,-0.6421 2.98539,-0.66257 1.77001,-0.39396 2.37207,-1.83741 1.40649,-1.08978 1.9611,-1.72818 1.44268,-1.2727 0.11512,-0.44 -10e-4,-0.17396 1.23944,-0.2571 2.29711,-1.54194 1.35149,-1.44089 0.4285,-0.12791 1.20873,0.47326 0.86339,0.13047 1.99359,-0.54489 1.18572,0.28779 0.99641,0.36326 0.55768,0.0256 2.67432,0.89665 0.66769,0.11511 1.37898,0.11512 2.05486,0.0512 1.32526,-0.58455 0.93502,-0.56536 0.65873,0.0128 0.63699,0.13559 0.53466,0.24175 0.45535,0.42338 0.21233,0.60373 -0.0895,1.92925 0.2021,0.51035 0.3607,0.36582 0.46176,0.064 0.55896,-0.41826 0.97722,-0.61013 1.20235,-0.66641 0.89536,-0.61012 0.51036,-0.22768 0.81094,0.0256 0.78792,0.10233 z"
       id="path2390-2" />
  </g>
</svg>
