<?xml version="1.0" encoding="UTF-8" standalone="no"?>
<!-- Created with Inkscape (http://www.inkscape.org/) -->

<svg
   width="269.4509"
   height="201.89478"
   viewBox="0 0 269.4509 201.89479"
   version="1.1"
   id="svg1059"
   xmlns="http://www.w3.org/2000/svg"
   xmlns:svg="http://www.w3.org/2000/svg"
   xmlns:rdf="http://www.w3.org/1999/02/22-rdf-syntax-ns#"
   xmlns:cc="http://creativecommons.org/ns#"
   xmlns:dc="http://purl.org/dc/elements/1.1/">
  <defs
     id="defs1053" />
  <metadata
     id="metadata1056">
    <rdf:RDF>
      <cc:Work
         rdf:about="">
        <dc:format>image/svg+xml</dc:format>
        <dc:type
           rdf:resource="http://purl.org/dc/dcmitype/StillImage" />
      </cc:Work>
    </rdf:RDF>
  </metadata>
  <g
     id="layer15"
     style="display:inline"
     transform="translate(-130.67231,-151.63735)">
    <path
       style="display:inline;fill:#aae736;fill-opacity:1;fill-rule:nonzero;stroke:#505050;stroke-width:0.5;stroke-linecap:round;stroke-linejoin:round;stroke-miterlimit:4;stroke-dasharray:none;stroke-opacity:1"
       class="polygon"
       d="m 225.23268,348.80425 0.98874,0.1279 -0.40675,-0.4093 -0.0895,-0.2047 0.42977,-0.5884 1.41263,1.2152 -0.0384,1.4364 -0.11512,0.3326 -0.38501,-0.307 -0.24686,-0.307 -0.0768,-0.3198 -0.3914,-0.3581 -1.37643,0.2302 -0.85571,-0.3965 -1.22409,-1.2151 -0.32616,-0.8698 0.51163,-0.1663 0.5385,-0.4221 0.3428,-0.6907 -0.31338,-0.7163 0.72652,0.1279 0.39268,0.7291 0.0768,1.6654 0.11512,0.3581 -0.2021,0.3837 z M 160.17767,237.94044 h -0.33896 l -0.89664,-0.86978 -0.52699,-0.63954 -0.53466,-0.4221 -2.45329,-0.86978 -0.33257,-0.55001 0.37478,-0.5628 0.26221,0.55001 0.44385,0.31977 2.03106,0.78025 2.2622,1.70374 0.38884,0.1407 z m -3.91594,-4.21715 -0.11511,0.17907 -0.53978,-0.44768 0.0256,-0.9849 0.46303,-0.5628 -0.0384,0.76745 0.20082,0.78025 z m 103.87475,-44.52384 4.26947,0.34536 5.73851,0.46047 5.76588,0.46047 5.20257,0.40931 2.23841,-0.4221 2.47325,0.2814 3.29263,0.37094 2.00229,0.24302 3.76602,0.47327 1.12688,1.94165 0.40803,1.35968 0.38245,1.32385 1.12815,1.21514 h 2.56701 2.27204 2.803 2.22216 l 0.71757,1.20234 0.31338,1.20235 1.32156,2.84597 1.88499,2.21922 0.45024,0.80583 0.30442,1.21514 -0.32744,0.44768 -0.12919,0.52442 1.39766,1.21514 2.30837,1.02327 0.90304,0.25582 1.02327,0.44768 -0.79815,0.7035 1.36159,1.62572 1.58262,1.6577 1.69377,0.37094 2.28714,2.50574 3.44881,1.62316 2.09349,2.12713 h -0.19315 l -0.61396,-0.21745 -0.77001,-0.29419 -0.23408,0.26861 0.0384,0.89536 0.20465,1.04886 1.06676,0.90815 0.94909,0.65234 0.36965,1.22792 -0.74698,2.65923 -0.25838,-0.001 -0.50268,-0.23024 h -0.5385 l -0.28524,0.15349 0.63187,1.91352 0.62932,1.46712 0.75977,1.16397 0.6306,1.70119 0.54105,0.72908 2.22472,1.80735 0.68176,1.51061 0.63187,2.814 1.39395,1.572 0.75082,1.20234 1.00793,1.02327 0.65617,1.40189 0.9299,1.07443 0.48222,0.26861 0.72524,0.12791 0.90304,0.008 1.08339,-0.2814 1.1499,-0.2686 0.90176,0.55 0.93117,-0.12791 0.0895,0.51164 -0.61908,0.69071 -0.76873,1.74596 1.09234,0.2814 1.04246,0.1407 0.74187,0.2814 0.42977,0.003 v 0.35815 l 0.0512,1.65642 0.26093,0.62675 0.46943,0.5628 0.70478,0.83141 0.70349,0.8442 0.7035,0.8442 0.70478,0.83141 0.7035,0.8442 0.70478,0.8442 0.7035,0.83141 0.7035,0.84419 0.70478,0.83141 0.7035,0.8442 0.70478,0.8442 0.70349,0.83141 0.7035,0.8442 0.70478,0.8442 0.7035,0.83141 0.7035,0.8442 0.58199,0.6907 1.07571,0.12791 h 0.3428 l 0.96827,0.12791 1.50523,0.17907 1.95228,0.24303 2.30837,0.2814 2.57941,0.31977 2.75682,0.33257 2.84674,0.34535 2.84547,0.34536 2.75682,0.33256 2.57813,0.31977 2.30966,0.2814 1.95227,0.24303 1.50395,0.17907 0.96955,0.12791 h 0.3428 l 1.01432,0.12791 h 0.19314 l 0.84932,-1.02327 0.93885,1.44793 0.77768,1.20234 1.0706,1.65131 1.13839,1.75491 1.08723,1.67688 0.80966,1.25351 -0.42977,1.29828 -0.46815,1.41595 -0.46815,1.41595 -0.46814,1.41595 -0.46815,1.41599 -0.46815,1.4159 -0.46814,1.416 -0.46815,1.4159 -0.46815,1.416 -0.46686,1.4159 -0.46943,1.416 -0.46815,1.4159 -0.46686,1.416 -0.46815,1.4159 -0.46943,1.416 -0.46687,1.4159 -0.46942,1.416 -0.56408,1.705 -1.35903,0.4477 -2.20093,0.7291 -2.19965,0.7291 -2.20093,0.7291 -2.19978,0.729 -2.20093,0.7291 -2.20093,0.7291 -2.19965,0.7291 -2.20093,0.7291 -2.19965,0.729 -2.20093,0.7291 -2.20093,0.7291 -2.19978,0.7291 -2.20093,0.7291 -2.19965,0.729 -2.20093,0.7291 -2.20093,0.7291 -1.80249,0.6012 -3.00151,0.4093 -2.91671,0.3965 -3.28151,0.4349 -3.94458,0.5372 -3.09284,0.4221 -4.51429,0.614 -4.04589,0.55 -3.79723,0.5116 -3.79864,0.5117 -3.23265,0.4348 -1.92362,0.4989 -2.26591,1.1128 -3.47746,1.6986 -3.545,1.7306 -1.83754,0.8954 -1.92477,2.3023 -0.97467,1.164 -1.7613,2.1067 -1.33154,1.5899 -1.5876,1.8994 -0.69327,1.691 -1.06932,2.6131 -0.9235,0.6652 -1.51393,0.8442 -1.37784,0.6011 -2.1472,-0.1279 -1.22409,-1.6065 -1.29777,-1.7025 -0.65105,-0.6779 h -0.58327 l -2.1559,0.2175 -2.59822,0.2558 -3.06406,-0.2814 -3.53502,-0.3198 -3.31386,-0.307 -1.6476,-0.2302 -2.17343,-1.1 -0.56152,-0.2175 h -0.57175 -2.57814 -2.55447 l -2.56188,0.3454 -2.4533,-0.1279 -2.54193,0.2046 -0.89537,0.4221 h -0.99385 l -0.62036,0.371 -0.54617,0.179 -0.64722,-0.3197 h -0.79431 l -1.16781,-0.2686 -0.76234,-0.7163 -0.71885,-0.6396 -0.74187,-0.3453 -0.83141,-0.2175 h -0.71885 l -0.91966,0.3837 -0.56152,0.371 -1.42273,1.2407 -0.064,0.4477 0.64722,0.7419 -0.19826,0.3453 -0.83652,0.4349 -0.25582,1.1768 -0.12791,0.6523 -0.12791,1.54 0.37222,1.2152 0.49756,0.4476 0.0256,0.5245 -0.27244,1.0488 -0.77001,0.3198 -0.5628,0.9849 -0.34664,0.4605 -0.60501,0.5244 -2.39202,1.7575 -0.12791,-1.0233 -0.75722,-1.5132 -0.0512,-1.0616 -0.35174,-1.0745 -0.65746,-0.8186 -1.20874,-0.857 -0.11511,-1.1639 -0.88386,-1.1512 -1.17292,-0.9338 -0.65106,-1.7165 -0.49245,-2.2806 -3.09156,-2.9982 -3.86605,-2.7679 -1.17676,-1.5592 -1.92362,-3.1786 -0.97083,-2.5108 -2.58683,-2.8907 -0.11512,-1.1129 -0.38373,-1.3545 -0.59733,-1.5081 -0.35943,-1.1895 -2.59322,-5.2187 -0.83653,-0.8314 -0.72012,-1.164 -0.18675,-0.8953 -0.22896,-0.4989 -1.83242,-0.857 -1.71002,-2.1872 -5.13644,-3.4855 -2.51443,-0.3454 -1.99231,-1.2407 -1.46648,-1.6296 -1.56637,-2.805 -2.75184,-3.0315 -2.33446,-4.3015 0.73036,-1.5656 -0.0512,-1.10006 -0.71629,-1.85468 -0.7828,-1.43258 -0.53594,-1.35328 0.42594,-1.94038 0.16372,-2.17317 0.4592,-1.15118 0.33256,-1.2663 -0.43361,-2.55051 -0.77641,-1.36607 0.0768,-0.90815 -0.87874,-0.44768 -0.71501,-0.9849 0.74443,0.003 -1.35033,-1.37247 -0.49501,-0.76745 -0.50908,-1.86363 -0.65234,-1.42235 -2.09476,-3.22842 -0.99897,-1.96852 -2.24212,-2.54795 -2.43334,-1.88026 -1.54514,-0.85699 -0.74315,-0.78025 h -1.26246 l -1.37656,-1.1128 h -0.96187 l -1.21642,-0.17908 -1.43385,-2.14119 -1.18316,-2.00434 -2.0161,-2.6119 0.50524,-0.67791 0.5871,-1.11281 -0.29291,-1.45049 -0.32105,-0.9849 -0.88897,-1.79712 -2.91799,-4.47681 -0.77385,-0.65234 -1.24711,-0.75466 -0.77001,-1.9391 -0.34919,-1.73829 -2.00101,-0.84419 -3.44254,-6.26627 -1.99359,-2.18852 -0.7892,-1.47351 -2.3071,-2.42259 -1.13455,-2.40981 -2.32334,-2.2205 -2.01482,-3.85518 -3.11279,-3.85006 -1.30659,-0.66512 -3.2077,-0.2814 -1.34906,-0.2814 -1.24199,0.8442 -0.11512,-1.07444 0.85827,-1.48118 1.2356,-3.11075 0.24558,-2.72702 1.93987,-8.09664 2.72433,0.4221 2.2434,0.34536 3.27639,0.49884 3.3901,0.52443 1.98361,0.30698 0.67792,-0.12791 2.74172,-1.98003 2.47197,-1.78817 1.48029,-2.18724 1.43399,-2.11689 0.65745,-0.43489 2.1971,-0.39652 3.48385,-0.62676 3.45124,-0.62675 0.27501,-0.21745 0.80454,-1.69991 1.02328,-2.15782 0.20849,-0.23024 0.25326,-0.21744 2.47081,-1.20235 1.49884,-0.72908 -2.13723,-2.1655 -2.01482,-2.04142 -2.25708,-2.28702 -1.91237,-1.77921 -2.86797,-2.66434 -1.87617,-1.74468 3.28764,-0.83141 3.55242,-0.89536 3.58746,-0.90816 4.31821,-1.08722 3.37756,-0.8442 5.0414,-1.2663 2.46455,-0.61396 0.44513,-0.15349 1.8974,-1.49654 2.85544,0.4221 4.29071,0.62675 4.14079,0.61397 4.36822,0.71629 1.4015,0.58838 4.21447,2.14759 2.73802,1.39549 3.19773,1.62828 3.99843,2.03759 2.74557,1.39932 3.51366,1.79073 2.7393,2.04526 3.46889,2.59272 3.81092,2.84597 3.13901,2.21283 4.31949,3.04807 4.25821,3.00202 4.1683,2.94063 3.34009,2.3548 4.22202,2.979 z"
       id="path2556-2" />
  </g>
</svg>
