<?xml version="1.0" encoding="UTF-8" standalone="no"?>
<!-- Created with Inkscape (http://www.inkscape.org/) -->

<svg
   width="84.857498"
   height="64.21151"
   viewBox="0 0 84.857498 64.211513"
   version="1.1"
   id="svg1059"
   xmlns="http://www.w3.org/2000/svg"
   xmlns:svg="http://www.w3.org/2000/svg"
   xmlns:rdf="http://www.w3.org/1999/02/22-rdf-syntax-ns#"
   xmlns:cc="http://creativecommons.org/ns#"
   xmlns:dc="http://purl.org/dc/elements/1.1/">
  <defs
     id="defs1053" />
  <metadata
     id="metadata1056">
    <rdf:RDF>
      <cc:Work
         rdf:about="">
        <dc:format>image/svg+xml</dc:format>
        <dc:type
           rdf:resource="http://purl.org/dc/dcmitype/StillImage" />
      </cc:Work>
    </rdf:RDF>
  </metadata>
  <g
     id="layer10"
     style="display:inline"
     transform="translate(-145.37518,-85.2843)">
    <path
       style="display:inline;fill:#c236e7;fill-opacity:1;fill-rule:evenodd;stroke:#505050;stroke-width:0.5;stroke-linecap:round;stroke-linejoin:round;stroke-miterlimit:4;stroke-dasharray:none;stroke-opacity:1"
       class="polygon"
       d="m 229.98168,87.960269 10e-4,0.17396 -0.11511,0.44 -1.44269,1.2727 -1.9611,1.72818 -1.40649,1.08978 -2.37207,1.83741 -1.77,0.39396 -2.9854,0.66257 -0.80071,0.6421 -0.74443,1.03735 -0.43745,1.41838 -0.12919,0.88769 -0.0767,1.658211 0.69838,1.71935 0.67024,1.65003 0.0895,1.09106 -0.064,1.07699 -0.64978,1.14863 -0.7035,1.5752 -0.40803,1.78177 -0.21489,3.33586 -0.005,2.84048 -0.064,0.46431 -1.22409,2.0042 -1.43271,2.34393 -0.66512,0.54362 -3.14158,0.6971 -3.42744,1.71744 -3.83113,1.91991 -3.47874,1.74314 -3.65244,1.82936 -3.78726,1.8974 -2.70681,1.35583 -3.62238,1.81375 -3.2989,1.73445 -3.34265,1.75747 -2.5395,1.33473 -3.85851,2.11088 -2.25964,1.23816 -3.32384,1.82001 -2.92412,1.60194 -3.46135,1.89625 -4.33816,-0.5628 -1.37029,-0.32745 -1.12304,-0.90304 -0.82501,-0.48093 -2.04974,-0.49501 -1.31785,-1.70004 -0.7892,-0.60245 -1.374,-0.26989 0.18163,-0.60629 0.70862,-1.02327 0.72397,-1.11665 -0.40292,-0.62035 -0.13174,-0.52827 -0.0512,-0.62931 0.49373,-0.60245 -0.23279,-0.72652 -0.37989,-0.73036 -0.27884,-0.3671 0.001,-0.66897 0.18546,-0.51035 0.22512,-0.78409 0.58327,-0.42977 0.15093,-0.4464 0.52443,-0.43873 0.69966,-0.35687 0.15605,-0.28907 -0.10233,-0.165 -0.7035,-0.32105 -0.37477,-0.5692 0.33384,-0.82885 0.2264,-0.25838 0.41826,-0.40035 0.93758,-0.61013 0.73675,-0.10232 0.63443,-6.4e-4 1.07444,0.0512 0.83268,0.10233 0.21105,-0.15733 -0.0256,-0.2021 -1.03095,-0.50012 -0.0512,-0.3978 0.25582,-0.42721 0.72908,-0.67408 0.86978,-0.49245 0.44385,-0.0895 0.99257,-0.99129 0.63699,-1.11153 -1.03095,-2.70067 -0.6242,-0.43234 -1.01176,-0.37093 -0.59605,-0.0512 -0.0512,-0.17524 0.79816,-0.68559 0.56663,-0.59606 -0.62803,-0.56791 -1.12048,-0.26605 -0.41827,0.58582 -1.43897,0.0512 -2.23585,-0.007 -0.9849,-2.85109 -0.14582,-1.23432 0.0256,-1.42836 0.67919,-2.09169 -0.31977,-0.96827 -0.0256,-0.65234 -0.17396,-0.89792 -1.76501,-1.92989 0.96187,-3.55114 0.67792,-0.86083 0.95804,0.0768 2.0436,1.00536 0.3364,-0.0256 0.6178,-1.32603 0.59989,-0.45024 1.26247,-0.39396 0.35558,-2.145291 0.58966,-0.41187 0.71118,-0.22 1.09234,-0.0384 0.95036,-0.12919 0.064,-0.37733 -1.3291,-2.48016 0.11511,-0.62547 0.64211,-2.49448 0.40291,-0.97595 0.38628,-0.31849 1.50895,0.12791 2.11356,0.43873 0.55769,0.71629 1.03478,0.63698 1.55013,-0.0384 1.78625,0.11512 1.39766,0.0384 1.11537,-0.44768 2.51699,-0.83652 1.24967,-0.28013 1.13455,-0.37093 3.64618,-1.36773 1.4602,0.10233 0.99897,0.18035 0.7649,0.21744 1.71743,0.9363 1.41775,0.94652 0.99385,0.2814 1.78881,-0.0256 2.58312,0.18035 3.17521,-0.0128 1.8525,-0.26477 2.36709,-0.46559 4.21946,-1.11792 5.55099,-2.33831 3.26526,-1.13583 1.40649,-0.13302 1.83242,-0.0128 1.83243,0.29803 2.07852,0.21105 0.95804,-0.0128 2.25094,-0.23535 2.91658,-0.47326 1.83255,-0.38757 2.21334,-0.63571 1.38154,-1.05652 0.4464,-0.11512 0.57304,0.19186 0.26861,0.0768 0.56663,0.60117 z"
       id="path2602-3" />
  </g>
</svg>
