<?xml version="1.0" encoding="UTF-8" standalone="no"?>
<!-- Created with Inkscape (http://www.inkscape.org/) -->

<svg
   width="62.148693"
   height="44.453362"
   viewBox="0 0 62.148693 44.453364"
   version="1.1"
   id="svg1059"
   xmlns="http://www.w3.org/2000/svg"
   xmlns:svg="http://www.w3.org/2000/svg"
   xmlns:rdf="http://www.w3.org/1999/02/22-rdf-syntax-ns#"
   xmlns:cc="http://creativecommons.org/ns#"
   xmlns:dc="http://purl.org/dc/elements/1.1/">
  <defs
     id="defs1053" />
  <metadata
     id="metadata1056">
    <rdf:RDF>
      <cc:Work
         rdf:about="">
        <dc:format>image/svg+xml</dc:format>
        <dc:type
           rdf:resource="http://purl.org/dc/dcmitype/StillImage" />
      </cc:Work>
    </rdf:RDF>
  </metadata>
  <g
     id="layer18"
     style="display:inline"
     transform="translate(-347.52021,-229.18322)">
    <path
       style="display:inline;fill:#3698e7;fill-opacity:1;fill-rule:nonzero;stroke:#505050;stroke-width:0.5;stroke-linecap:round;stroke-linejoin:round;stroke-miterlimit:4;stroke-dasharray:none;stroke-opacity:1"
       class="polygon"
       d="m 377.95765,253.36499 0.004,0.43489 -1.3016,-0.12791 -0.34919,0.23024 -1.06548,-0.12791 -1.04118,-0.30699 0.70605,-0.52442 1.84368,-0.61397 0.76746,0.5628 z m -16.76797,-1.42491 -0.21616,0.12791 -0.22768,-0.69071 0.0128,-0.21744 0.58582,-0.30698 0.36071,0.56279 z m 9.14971,0.38373 -0.94524,0.12791 -0.86211,-0.48606 1.81119,-0.65233 0.49117,-0.29419 0.53082,-0.60118 0.42083,0.51164 -0.46431,0.80583 -0.33768,0.34535 z m 14.49465,-2.35608 -0.11512,0.24302 h -0.3607 l -0.90432,-0.23023 -0.29419,-0.35815 0.56408,-0.43489 h 0.24814 l 0.36071,0.44768 z m 21.97681,-15.37722 0.84292,0.24303 h 0.37093 l 0.24687,-0.29419 0.83908,1.03606 0.11512,7.04906 0.19314,0.49885 -0.44896,0.12791 -0.50396,0.53721 -0.58455,0.83141 -0.80838,0.4221 -0.6421,0.48605 -0.61269,0.60118 -0.54617,0.12791 -0.70989,-0.75467 -0.48734,-0.78024 0.11512,-0.16628 h 0.34152 l 0.13175,-0.39652 -0.20594,-0.57559 -0.47966,-0.21745 h -0.60501 l -0.57687,0.25582 -0.61268,0.51164 -0.34791,0.55001 -0.0512,1.1128 0.16117,1.25351 -0.004,0.60117 -0.33768,0.75467 -0.11512,1.1128 0.23919,0.85699 0.22001,0.51164 0.0256,0.43489 -0.57303,1.36991 0.49756,0.25581 1.64888,0.12791 0.48221,0.92095 0.33129,0.63954 -0.0895,0.38373 -1.16397,0.2814 -1.47147,0.30698 -1.05524,-0.12791 -1.9024,0.4221 -1.01559,0.63955 0.29803,0.39651 0.35175,0.30699 0.15732,0.85699 -0.29547,1.20234 -0.53977,1.17676 -0.67025,1.46072 -0.77512,1.67945 -1.06165,2.5262 -0.8992,1.98515 -0.10233,1.43002 0.0256,0.93373 -0.10233,1.8662 -0.84932,1.02327 h -0.19314 l -1.01432,-0.12791 h -0.34279 l -0.96955,-0.12791 -1.50396,-0.17907 -1.9524,-0.24303 -2.30952,-0.2814 -2.57826,-0.31977 -2.7567,-0.33256 -2.84546,-0.34536 -2.84674,-0.34535 -2.75683,-0.33257 -2.57941,-0.31977 -2.30837,-0.2814 -1.9524,-0.24303 -1.50511,-0.17907 -0.96827,-0.12791 h -0.3428 l -1.07571,-0.12791 -0.58199,-0.6907 -0.70349,-0.8442 -0.7035,-0.8442 -0.70478,-0.83141 -0.7035,-0.8442 -0.7035,-0.83141 -0.70478,-0.8442 -0.7035,-0.8442 -0.70478,-0.83141 -0.7035,-0.84419 -0.7035,-0.8442 -0.70477,-0.83141 -0.7035,-0.8442 -0.70478,-0.83141 -0.7035,-0.8442 -0.7035,-0.8442 -0.70478,-0.83141 -0.46943,-0.5628 -0.26093,-0.63954 -0.0512,-1.6577 v -0.35815 l 0.47454,-0.66512 0.2264,0.47326 0.52954,0.65234 0.89792,-0.15349 0.41954,0.1279 0.30826,2.29853 0.65874,0.81862 0.80454,0.31977 2.71807,0.17907 1.69249,-0.30698 3.33267,-1.50037 1.75005,-0.53722 4.83649,0.12791 3.87846,0.62675 6.03948,0.37094 1.17164,-0.12791 3.25644,-1.20234 1.99985,-1.06165 1.187,-0.30698 0.78408,-1.02327 0.51675,-1.33665 0.45792,-0.86978 0.58582,-0.4221 0.55768,-0.74187 0.44641,-1.20235 1.12304,-1.21513 4.49433,-2.95598 2.62687,-2.49678 0.23279,-0.80583 1.429,-1.21513 1.14351,-1.32642 5.3512,-3.78483 1.07443,-1.56049 0.63187,-1.74851 0.0767,-0.12791 h 0.46047 l 0.65234,0.26861 0.0639,1.30851 -0.23663,1.24071 -0.0256,1.30851 -0.0895,0.71629 z m 0.34407,5.52183 h 0.37989 l 0.5321,-0.34536 0.0767,-0.55 -0.13431,-0.2814 h -0.55128 l -0.22768,0.47326 z"
       id="path2198-7" />
  </g>
</svg>
