<!--Created with Inkscape (http://www.inkscape.org/)--><svg xmlns:dc="http://purl.org/dc/elements/1.1/" xmlns:cc="http://creativecommons.org/ns#" xmlns:rdf="http://www.w3.org/1999/02/22-rdf-syntax-ns#" xmlns="http://www.w3.org/2000/svg" xmlns:sodipodi="http://sodipodi.sourceforge.net/DTD/sodipodi-0.dtd" xmlns:inkscape="http://www.inkscape.org/namespaces/inkscape" width="295" height="125" viewBox="0 0 78.052081 33.072918" inkscape:version="0.92.1 r15371" sodipodi:docname="submarine-broken.svg"><sodipodi:namedview pagecolor="#ffffff" bordercolor="#666666" borderopacity="1.0" inkscape:pageopacity="0.0" inkscape:pageshadow="2" inkscape:zoom="1.979899" inkscape:cx="162.75842" inkscape:cy="103.84814" inkscape:document-units="mm" inkscape:current-layer="layer2" showgrid="false" units="px" inkscape:snap-global="true" fit-margin-top="0" fit-margin-left="0" fit-margin-right="0" fit-margin-bottom="0" inkscape:window-width="1884" inkscape:window-height="1051" inkscape:window-x="0" inkscape:window-y="0" inkscape:window-maximized="1"><inkscape:grid type="xygrid" originx="0" originy="-9.260417"/></sodipodi:namedview><metadata><rdf:RDF><cc:Work><dc:format>image/svg+xml</dc:format><dc:type rdf:resource="http://purl.org/dc/dcmitype/StillImage"/><dc:title/><dc:date>2017</dc:date><dc:creator><cc:Agent><dc:title>Timothée Giet</dc:title></cc:Agent></dc:creator><cc:license rdf:resource="http://creativecommons.org/licenses/by-sa/4.0/"/></cc:Work><cc:License rdf:about="http://creativecommons.org/licenses/by-sa/4.0/"><cc:permits rdf:resource="http://creativecommons.org/ns#Reproduction"/><cc:permits rdf:resource="http://creativecommons.org/ns#Distribution"/><cc:requires rdf:resource="http://creativecommons.org/ns#Notice"/><cc:requires rdf:resource="http://creativecommons.org/ns#Attribution"/><cc:permits rdf:resource="http://creativecommons.org/ns#DerivativeWorks"/><cc:requires rdf:resource="http://creativecommons.org/ns#ShareAlike"/></cc:License></rdf:RDF></metadata><g inkscape:groupmode="layer" inkscape:label="Calque 2"><path style="fill:#3f607e;fill-opacity:1;stroke:none;stroke-width:.26458332px;stroke-linecap:butt;stroke-linejoin:miter;stroke-opacity:1" d="M14.76-3.285c.595 1.03.914 2.514.412 3.65-1.698.142-3.83.442-5.738.897l1.151-4.296-6.39-1.712L.088 10.588l6.39 1.712 1.14-4.254c1.411 1.322 3.09 2.623 4.483 3.582-.138 1.232-1.109 2.386-2.133 2.977 2.127.57 5.147.796 7.422-.674 2.658.783 7.402 2.344 18.9 5.745l2.755-.661-8.505-2.908 3.08-.545-1.854-1.475 2.667-.46-3.977-3.413 1.838-.29-4.185-1.904 5.191.706-2.883-1.653 1.327.16-5.395-3.598 2.166.679-1.502-1.975-6.16-1.329c-1.237-2.41-3.964-3.725-6.091-4.295z" inkscape:connector-curvature="0" sodipodi:nodetypes="cccccccccccccccccccccccccccc" transform="translate(0 11.66)"/><path style="fill:#3f607e;fill-opacity:1;stroke:none;stroke-width:.26458332px;stroke-linecap:butt;stroke-linejoin:miter;stroke-opacity:1" d="M41.908-11.14a.66.66 0 0 0-.243.904l3.449 5.973C42.736-2.67 40.96-.993 41.25-.373c.741 3.666.115 6.367-1.197 9.436l-4.21 2.673 3.064.352-1.098.743 5.373-1.465-.805.683 3.384-.753-2.474 2.519 1.558-.136-.979 1.329 4.92-.55-1.16 2.525 2.738-.926-1.047 1.587 6.408-3.263-.507 2.832c8.472-4.604 15.74-8.463 15.74-8.463C76.653 5.462 79.492-.28 77.3-4.077c-2.192-3.797-8.585-4.209-14.28-.921-.263.153-.523.313-.778.478l-4.864 2.978-3.526-6.106c-1.046-.178-2.52.19-4.094.845L47.57-10.59a.66.66 0 0 0-.903-.242.66.66 0 0 0-.243.903l2.122 3.674c-.158.078-.316.157-.474.239L46.63-8.52a.66.66 0 0 0-.904-.242.66.66 0 0 0-.242.904l1.428 2.473c-.23.133-.455.271-.68.409l-3.42-5.922a.66.66 0 0 0-.903-.242z" inkscape:connector-curvature="0" sodipodi:nodetypes="cscccccccccccccccccccscccccsssccsssccsc" transform="translate(0 11.66)"/><path style="fill:#3f607e;stroke:none;stroke-width:.26458332px;stroke-linecap:butt;stroke-linejoin:miter;stroke-opacity:1;fill-opacity:1" d="m30.05 2.325 2.078 2.362h-1.417L34.018 6.2l-.567.189 2.646.945-.85-.945h1.133l-2.173-1.984 2.173.85-1.134-2.835z" inkscape:connector-curvature="0" transform="translate(0 11.66)"/><path style="fill:#3f607e;fill-opacity:1;stroke:none;stroke-width:.26361597px;stroke-linecap:butt;stroke-linejoin:miter;stroke-opacity:1" d="m36.66 15.018-.832.958 3.56.834-2.19.54 4.262 1.232-1.026 1.746 6.417-1.315 1.058-.6-2.057.045.301-1.82c-2.507.01-6.15-1.048-6.15-1.048l1.234-.717z" inkscape:connector-curvature="0" sodipodi:nodetypes="ccccccccccccc" transform="translate(0 11.66)"/></g></svg>