<!--Created with Inkscape (http://www.inkscape.org/)--><svg xmlns:dc="http://purl.org/dc/elements/1.1/" xmlns:cc="http://creativecommons.org/ns#" xmlns:rdf="http://www.w3.org/1999/02/22-rdf-syntax-ns#" xmlns="http://www.w3.org/2000/svg" xmlns:sodipodi="http://sodipodi.sourceforge.net/DTD/sodipodi-0.dtd" xmlns:inkscape="http://www.inkscape.org/namespaces/inkscape" width="100" height="100" sodipodi:version="0.32" inkscape:version="0.92.1 r15371" version="1.0" sodipodi:docname="letter-in-word.svg"><sodipodi:namedview pagecolor="#afafaf" bordercolor="#666666" borderopacity="1.0" inkscape:pageopacity="0" inkscape:pageshadow="2" inkscape:zoom="6.0203675" inkscape:cx="57.811529" inkscape:cy="28.188016" inkscape:document-units="px" inkscape:current-layer="layer1" height="100px" width="100px" inkscape:window-width="1884" inkscape:window-height="1051" inkscape:window-x="0" inkscape:window-y="0" showgrid="false" inkscape:window-maximized="1" inkscape:snap-global="true"><inkscape:grid type="xygrid"/></sodipodi:namedview><metadata><rdf:RDF><cc:Work><dc:format>image/svg+xml</dc:format><dc:type rdf:resource="http://purl.org/dc/dcmitype/StillImage"/><dc:title/><dc:date>2017</dc:date><dc:creator><cc:Agent><dc:title>Timothée Giet and Ilya Bizyaev</dc:title></cc:Agent></dc:creator><cc:license rdf:resource="http://creativecommons.org/licenses/by-sa/4.0/"/></cc:Work><cc:License rdf:about="http://creativecommons.org/licenses/by-sa/4.0/"><cc:permits rdf:resource="http://creativecommons.org/ns#Reproduction"/><cc:permits rdf:resource="http://creativecommons.org/ns#Distribution"/><cc:requires rdf:resource="http://creativecommons.org/ns#Notice"/><cc:requires rdf:resource="http://creativecommons.org/ns#Attribution"/><cc:permits rdf:resource="http://creativecommons.org/ns#DerivativeWorks"/><cc:requires rdf:resource="http://creativecommons.org/ns#ShareAlike"/></cc:License></rdf:RDF></metadata><g inkscape:label="Calque 1" inkscape:groupmode="layer"><g style="fill:#f6fbfc;fill-opacity:1"><path sodipodi:nodetypes="cccccccccccccccccccc" inkscape:connector-curvature="0" d="M559.076 612.323c-10.912.009-21.442 2.403-29.6 6.73a59.507 59.507 0 0 0-2.722-.066c-20.152 0-36.488 9.996-36.488 22.326.018 9.479 9.816 17.917 24.437 21.047 1.196 11.76 17.12 20.926 36.375 20.94 13.288.645 33.553.383 28.235-8.206 4.46 1.43 9.787 2.202 15.252 2.207-5.067-3.716-4.897-8.923 24.556-7.511 4.026 3.26 10.284 5.176 16.926 5.183 38.39 1.392-6.246-11.766 21.326-13.162a8.26 8.26 0 0 0-.068-.857c.245.006.49.01.736.011 10.857 0 19.658-4.101 19.66-9.162-6.13-.263-22.473 1.535-19.66-9.164-4.799.003-9.43.825-13.02 2.309.23-.872 3.015-4.752 3.026-5.634 0-10.306-17.287-15.661-35.322-15.661-5.198.005-10.319.72-14.936 2.084-7.948-8.289-22.715-13.406-38.713-13.414z" style="color:#000;clip-rule:nonzero;display:inline;overflow:visible;visibility:visible;opacity:1;isolation:auto;mix-blend-mode:normal;color-interpolation:sRGB;color-interpolation-filters:linearRGB;solid-color:#000;solid-opacity:1;fill:#f6fbfc;fill-opacity:1;fill-rule:nonzero;stroke:none;stroke-width:.5;stroke-linecap:round;stroke-linejoin:round;stroke-miterlimit:4;stroke-dasharray:none;stroke-dashoffset:0;stroke-opacity:1;marker:none;color-rendering:auto;image-rendering:auto;shape-rendering:auto;text-rendering:auto;enable-background:accumulate" transform="matrix(.28094 0 0 .35115 -135.582 -146.069)" inkscape:label="Livello 1"/></g><g aria-label="BOAT" style="font-style:normal;font-variant:normal;font-weight:400;font-stretch:normal;font-size:8px;line-height:1.25;font-family:Kabel;-inkscape-font-specification:Kabel;letter-spacing:0;word-spacing:0;fill:#e06420;fill-opacity:1;stroke:none"><path d="m14.16 88.38-2.623-.016V81.94h1.92q1.184 0 1.848.303.656.305.728 1.265.008.07.008.135 0 .385-.16.664-.192.336-.385.489-.2.16-.303.207.024.017.287.17.256.158.489.455.224.304.256.752.007.095.007.191 0 .512-.214.889-.266.447-.752.68-.497.24-1.106.24zm-.607-2.657h-.408v1.344h.472q.496 0 .719-.176.201-.16.201-.463v-.048q-.008-.36-.248-.512-.248-.145-.736-.145zm-.016-2.543h-.392v1.295h.408q.336 0 .584-.191.209-.168.209-.45v-.077q-.034-.354-.24-.465-.217-.112-.569-.112z" inkscape:connector-curvature="0" style="fill:#e09a20;fill-opacity:1" transform="matrix(1.2334 0 0 1.2334 -2.23 -24.473)"/><path d="M20.564 83.3q-.503.007-.927.287-.432.28-.672.736-.225.416-.225.88v.096q.024.473.313.881.279.416.728.647.399.209.815.209h.08q.728-.041 1.289-.664.488-.537.488-1.176 0-.096-.008-.193-.049-.471-.304-.871-.264-.4-.68-.624-.408-.209-.865-.209h-.032zm.08-1.543q.944.007 1.752.478.801.473 1.256 1.256.448.777.448 1.697v.031q-.024.936-.504 1.705-.479.768-1.287 1.208-.768.416-1.633.416h-.096q-.783-.024-1.432-.303-.648-.281-1.12-.77-.471-.488-.704-1.119-.207-.568-.207-1.209v-.127q.024-.912.504-1.672.479-.752 1.287-1.175.785-.416 1.705-.416h.032z" inkscape:connector-curvature="0" style="fill:#e06420;fill-opacity:1" transform="matrix(1.2334 0 0 1.2334 -2.23 -24.473)"/><path d="m24.05 88.38 3.528-6.92 3.535 6.92-1.654.359-.706-1.47H26.33l-.623 1.488zm4.135-2.473-.656-1.447-.639 1.447z" inkscape:connector-curvature="0" style="fill:#49c030;fill-opacity:1" transform="matrix(1.2334 0 0 1.2334 -2.23 -24.473)"/><path d="M36.073 83.49h-1.607v4.89l-1.656.144v-5.033h-1.737l.432-1.55h4.568z" inkscape:connector-curvature="0" style="fill:#208ae0;fill-opacity:1" transform="matrix(1.2334 0 0 1.2334 -2.23 -24.473)"/></g><rect style="opacity:1;fill:#faedd3;fill-opacity:1;stroke:#f3b41a;stroke-width:2;stroke-miterlimit:4;stroke-dasharray:none;stroke-opacity:1" width="60" height="40" x="20" y="20" ry="7.99998"/><g style="font-style:normal;font-variant:normal;font-weight:400;font-stretch:normal;font-size:8px;line-height:1.25;font-family:Kabel;-inkscape-font-specification:Kabel;letter-spacing:0;word-spacing:0;fill:#315db6;fill-opacity:1;stroke:none"><path d="M26.564 43.3q-.503.007-.927.287-.432.28-.672.736-.225.416-.225.88v.096q.024.473.313.881.279.416.728.647.399.209.815.209h.08q.728-.041 1.289-.664.488-.537.488-1.176 0-.096-.008-.193-.049-.471-.304-.871-.264-.4-.68-.624-.408-.209-.865-.209h-.032zm.08-1.543q.944.007 1.752.478.801.473 1.256 1.256.448.777.448 1.697v.031q-.024.936-.504 1.705-.479.768-1.287 1.208-.768.416-1.633.416h-.096q-.783-.024-1.432-.303-.648-.281-1.12-.77-.471-.488-.704-1.119-.207-.568-.207-1.209v-.127q.024-.912.504-1.672.479-.752 1.287-1.175.785-.416 1.705-.416h.032z" inkscape:connector-curvature="0" style="font-style:normal;font-variant:normal;font-weight:400;font-stretch:normal;font-size:8px;line-height:1.25;font-family:Kabel;-inkscape-font-specification:Kabel;letter-spacing:0;word-spacing:0;fill:#e06420;fill-opacity:1;stroke:none" transform="matrix(2.5779 0 0 2.5779 -28.48 -75.622)" aria-label="BOAT"/></g><g style="fill:#f6fbfc;fill-opacity:1"><path sodipodi:nodetypes="cccccccccccccccccccc" inkscape:connector-curvature="0" d="M559.076 612.323c-10.912.009-21.442 2.403-29.6 6.73a59.507 59.507 0 0 0-2.722-.066c-20.152 0-36.488 9.996-36.488 22.326.018 9.479 9.816 17.917 24.437 21.047 1.196 11.76 17.12 20.926 36.375 20.94 13.288.645 33.553.383 28.235-8.206 4.46 1.43 9.787 2.202 15.252 2.207-5.067-3.716-4.897-8.923 24.556-7.511 4.026 3.26 10.284 5.176 16.926 5.183 38.39 1.392-6.246-11.766 21.326-13.162a8.26 8.26 0 0 0-.068-.857c.245.006.49.01.736.011 10.857 0 19.658-4.101 19.66-9.162-6.13-.263-22.473 1.535-19.66-9.164-4.799.003-9.43.825-13.02 2.309.23-.872 3.015-4.752 3.026-5.634 0-10.306-17.287-15.661-35.322-15.661-5.198.005-10.319.72-14.936 2.084-7.948-8.289-22.715-13.406-38.713-13.414z" style="color:#000;clip-rule:nonzero;display:inline;overflow:visible;visibility:visible;opacity:1;isolation:auto;mix-blend-mode:normal;color-interpolation:sRGB;color-interpolation-filters:linearRGB;solid-color:#000;solid-opacity:1;fill:#f6fbfc;fill-opacity:1;fill-rule:nonzero;stroke:none;stroke-width:.5;stroke-linecap:round;stroke-linejoin:round;stroke-miterlimit:4;stroke-dasharray:none;stroke-dashoffset:0;stroke-opacity:1;marker:none;color-rendering:auto;image-rendering:auto;shape-rendering:auto;text-rendering:auto;enable-background:accumulate" transform="matrix(.22945 0 0 .35115 -57.494 -145.357)" inkscape:label="Livello 1"/></g><g aria-label="BOAT" style="font-style:normal;font-variant:normal;font-weight:400;font-stretch:normal;font-size:8px;line-height:1.25;font-family:Kabel;-inkscape-font-specification:Kabel;letter-spacing:0;word-spacing:0;fill:#e06420;fill-opacity:1;stroke:none"><path d="m15.782 88.38-2.623-.016V81.94h1.92q1.183 0 1.847.303.656.305.729 1.265.008.07.008.135 0 .385-.16.664-.192.336-.385.489-.2.16-.303.207.023.017.287.17.256.158.488.455.225.304.256.752.008.095.008.191 0 .512-.215.889-.266.447-.752.68-.496.24-1.105.24zm-.608-2.657h-.408v1.344h.473q.496 0 .718-.176.202-.16.202-.463v-.048q-.008-.36-.248-.512-.248-.145-.737-.145zm-.015-2.543h-.393v1.295h.408q.336 0 .584-.191.21-.168.21-.45v-.077q-.034-.354-.241-.465-.217-.112-.568-.112z" inkscape:connector-curvature="0" style="fill:#e09a20;fill-opacity:1" transform="matrix(1.2334 0 0 1.2334 47.77 -24.473)"/><path d="m18.108 88.38 3.528-6.92 3.535 6.92-1.654.359-.705-1.47h-2.424l-.623 1.488zm4.135-2.473-.656-1.447-.639 1.447z" inkscape:connector-curvature="0" style="fill:#4ac130;fill-opacity:1" transform="matrix(1.2334 0 0 1.2334 47.77 -24.473)"/><path d="M30.131 83.49h-1.607v4.89l-1.656.144v-5.033H25.13l.432-1.55h4.568z" inkscape:connector-curvature="0" style="fill:#208ae0;fill-opacity:1" transform="matrix(1.2334 0 0 1.2334 47.77 -24.473)"/></g><path style="fill:#f49b32;fill-opacity:1;fill-rule:evenodd;stroke:none;stroke-width:.79547787px;stroke-linecap:butt;stroke-linejoin:miter;stroke-opacity:1" d="m55.028 31.44 6.746-4.27 7.358.79 3.22 4.587-1.227 6.8-4.752 3.322-1.227 3.005 1.073 3.005L63 52l-4.906-.79v-3.322l.613-1.265-.766-2.689 1.38-7.275-3.066 1.423z" inkscape:connector-curvature="0"/><path sodipodi:nodetypes="ccccsccccccccccccscccccccccccccc" inkscape:connector-curvature="0" style="font-style:normal;font-variant:normal;font-weight:400;font-stretch:normal;font-size:medium;line-height:100%;font-family:'Indigo Joker';text-align:start;writing-mode:lr-tb;text-anchor:start;fill:#a76211;fill-opacity:1;stroke:none;stroke-width:.83797395px;stroke-linecap:butt;stroke-linejoin:miter;stroke-opacity:1" d="M73.546 32.861c-.45 7.067-3.277 6.923-6.74 10.135.02.66-.165 1.303-.324 1.87 0 .038.117.233.352.587 1.423 2.215-.759 5.394-2.842 6.198-2.58.995-6.819.707-6.874-2.485.046-.965.452-1.77.785-2.596-.144-.075-.343-.224-.595-.447-.127-.168-.19-.68-.19-1.536-.291-2.554 1.01-6.368 1.163-7.169-.781.442-1.614.924-2.489 1.418-.908-2.802-1.231-5.22-2.003-7.454-.162-.391-.243-.615-.243-.67 8.135-6.339 20.07-6.018 20 2.15zm-2.49-.195c-.704-3.09-3.167-4.635-7.388-4.635-2.485.265-5.184.889-6.847 2.904-.235.28-.352.54-.352.782 0 .502.171 1.693.514 3.573.018.13.126.28.325.447 2.116-1.563 7.07-3.153 7.117.642-.612 1.823-2.616 1.32-4.222 1.229-.897 1.803-.947 3.91-.947 6.17 0 .13.036.279.108.446.109.242.235.363.38.363 1.71-.512 3.15-.351 4.87-1.033.073-.54.172-1.321.298-2.345 4.54-.757 6.276-4.344 6.144-8.543zm-6.279 13.262c-1.86-1.154-5.628.656-5.683 2.624.816 2.075 4.685 1.176 5.602-.195.69-.963.657-1.634.081-2.43z"/></g></svg>