<!--Created with Inkscape (http://www.inkscape.org/)--><svg xmlns:dc="http://purl.org/dc/elements/1.1/" xmlns:cc="http://creativecommons.org/ns#" xmlns:rdf="http://www.w3.org/1999/02/22-rdf-syntax-ns#" xmlns="http://www.w3.org/2000/svg" xmlns:xlink="http://www.w3.org/1999/xlink" xmlns:sodipodi="http://sodipodi.sourceforge.net/DTD/sodipodi-0.dtd" xmlns:inkscape="http://www.inkscape.org/namespaces/inkscape" inkscape:version="0.92.4 (5da689c313, 2019-01-14)" width="128" height="64" sodipodi:docname="tux_spaceship.svg"><metadata><rdf:RDF><cc:Work><dc:format>image/svg+xml</dc:format><dc:type rdf:resource="http://purl.org/dc/dcmitype/StillImage"/><dc:title/><dc:date>2015</dc:date><dc:creator><cc:Agent><dc:title>Timothée Giet</dc:title></cc:Agent></dc:creator><cc:license rdf:resource="http://creativecommons.org/licenses/by-sa/4.0/"/></cc:Work><cc:License rdf:about="http://creativecommons.org/licenses/by-sa/4.0/"><cc:permits rdf:resource="http://creativecommons.org/ns#Reproduction"/><cc:permits rdf:resource="http://creativecommons.org/ns#Distribution"/><cc:requires rdf:resource="http://creativecommons.org/ns#Notice"/><cc:requires rdf:resource="http://creativecommons.org/ns#Attribution"/><cc:permits rdf:resource="http://creativecommons.org/ns#DerivativeWorks"/><cc:requires rdf:resource="http://creativecommons.org/ns#ShareAlike"/></cc:License></rdf:RDF></metadata><defs><linearGradient id="a" inkscape:collect="always"><stop offset="0" style="stop-color:#eeeeec;stop-opacity:1"/><stop offset="1" style="stop-color:#eeeeec;stop-opacity:0"/></linearGradient><linearGradient inkscape:collect="always" xlink:href="#a" id="e" gradientUnits="userSpaceOnUse" gradientTransform="matrix(1.2541 0 0 1.24256 461.585 -330.794)" x1="-59.965363" y1="706.52551" x2="-60.004711" y2="716.9093"/><linearGradient inkscape:collect="always" xlink:href="#a" id="f" gradientUnits="userSpaceOnUse" gradientTransform="matrix(1.1006 .22124 -.2121 1.03575 457.06 -198.308)" x1="-59.965363" y1="706.52551" x2="-58.123421" y2="717.18335"/><linearGradient inkscape:collect="always" xlink:href="#a" id="g" gradientUnits="userSpaceOnUse" gradientTransform="matrix(-1.1006 .22124 .2121 1.03575 351.95 -196.551)" x1="-59.965363" y1="706.52551" x2="-58.261826" y2="716.46515"/><linearGradient gradientTransform="matrix(1 0 0 1.08592 0 -53.897)" gradientUnits="userSpaceOnUse" y2="650.04968" x2="945.6795" y1="637.41199" x1="940.9632" id="c" xlink:href="#b" inkscape:collect="always"/><linearGradient id="b" inkscape:collect="always"><stop offset="0" style="stop-color:#275eb1;stop-opacity:1"/><stop offset="1" style="stop-color:#e6ecf9;stop-opacity:1"/></linearGradient><linearGradient gradientTransform="matrix(-1 0 0 1.08592 1919.998 -53.897)" gradientUnits="userSpaceOnUse" y2="650.04968" x2="945.6795" y1="637.41199" x1="940.9632" id="d" xlink:href="#b" inkscape:collect="always"/></defs><sodipodi:namedview pagecolor="#ffffff" bordercolor="#666666" borderopacity="1" objecttolerance="10" gridtolerance="10" guidetolerance="10" inkscape:pageopacity="0" inkscape:pageshadow="2" inkscape:window-width="1884" inkscape:window-height="1051" showgrid="false" inkscape:zoom="3.0476189" inkscape:cx="-24.033274" inkscape:cy="23.253356" inkscape:window-x="0" inkscape:window-y="0" inkscape:window-maximized="1" inkscape:current-layer="g6322" fit-margin-top="0" fit-margin-left="0" fit-margin-right="0" fit-margin-bottom="0" borderlayer="true"/><g inkscape:label="Capa 1"><g transform="matrix(.2632 0 0 .2632 -40.855 -101.75)" style="stroke:none"><path style="fill:#5d3667;fill-opacity:1;fill-rule:nonzero;stroke:none;stroke-width:4.42720509;stroke-miterlimit:4;stroke-dasharray:none;stroke-opacity:1" d="M399.06 455.903c-135.116 0-209.663 40.672-243.841 73.97 42.213 32.126 88.42 47.834 137.404 58.413 20.942 29.194 52.898 41.421 106.264 41.45 55.467-.008 85.787-14.291 106.984-44.43 46.292-11.93 90.525-27.89 135.657-54.755-34.178-33.296-107.352-74.648-242.468-74.648z" inkscape:connector-curvature="0" sodipodi:nodetypes="scccccs"/><path inkscape:connector-curvature="0" style="fill:#ad7fa8;fill-opacity:1;stroke:none;stroke-width:4.76338387;stroke-miterlimit:4;stroke-dasharray:none;stroke-opacity:1" d="M399.034 459.39c-130.989 0-203.25 38.048-236.385 68.332 69.535 49.648 150.162 38.227 236.385 37.521 85.764.462 159.094 5.528 235.071-36.9-33.134-30.284-104.082-68.953-235.07-68.953z" sodipodi:nodetypes="ccccc"/><ellipse style="fill:#d3d7cf;fill-opacity:.98000004;stroke:none;stroke-width:1.2483238" cx="396.90259" cy="491.85382" rx="102.46646" ry="29.024408"/><path inkscape:connector-curvature="0" style="fill:none;stroke:none;stroke-width:1.58779466px;stroke-linecap:butt;stroke-linejoin:miter;stroke-opacity:1" d="M317.707 583.21c0 1.171 0 1.171 0 0z"/><path inkscape:connector-curvature="0" style="fill:#555753;fill-opacity:.98000004;stroke:none;stroke-width:1.2483238" d="M396.687 495.842c-37.51 0-67.959 8.103-68.195 18.102 18.532 4.083 42.306 6.511 68.195 6.511 25.916 0 49.714-2.42 68.255-6.511-.234-10-30.744-18.102-68.255-18.102z"/><g inkscape:label="Calque 1"><g style="display:inline;fill:#2a2a2a;fill-opacity:1"><path style="color:#000;display:inline;overflow:visible;visibility:visible;fill:#2a2a2a;fill-opacity:1;fill-rule:nonzero;stroke:none;stroke-width:.5;marker:none;enable-background:accumulate" d="M50.951 6.531c-3.628 0-4.67 3.388-6.385 7.842-1.714 4.454-3.207 9.562-3.207 12.178 0 .463.044.914.108 1.36 2.692.225 5.75.539 9.183.497 3.518-.043 6.728-.372 9.567-.63a9.51 9.51 0 0 0 .088-1.227c0-2.616-1.493-7.724-3.207-12.178-1.715-4.454-2.519-7.842-6.147-7.842z" transform="matrix(4.76473 0 0 4.72087 156.177 386.03)" inkscape:connector-curvature="0" sodipodi:nodetypes="ssscccsss"/><path style="fill:#2a2a2a;fill-opacity:1;stroke:none" d="M1037.622 728.006c23.716-.38 55.657 10.63 59.745 12.839 10.97-19.992-50.045-46.777-71.296-65.892-12.131-10.912 6.473 51.314 11.55 53.053z" inkscape:connector-curvature="0" sodipodi:nodetypes="ccsc" transform="matrix(.51538 0 0 .51064 -96.392 122.365)"/><path style="display:inline;fill:#2a2a2a;fill-opacity:1;stroke:none" d="M882.378 728.006c-23.716-.38-55.657 10.63-59.745 12.839-10.97-19.992 50.045-46.777 71.296-65.892 12.131-10.912-6.473 51.314-11.55 53.053z" inkscape:connector-curvature="0" sodipodi:nodetypes="ccsc" transform="matrix(.51538 0 0 .51064 -96.392 122.365)"/></g><path style="color:#000;display:inline;overflow:visible;visibility:visible;fill:#f2f2f2;fill-opacity:1;fill-rule:nonzero;stroke:none;stroke-width:.5;marker:none;enable-background:accumulate" d="M50.832 16.498c-3.772 0-6.613 4.02-6.613 8.178 0 1.257.263 2.544.73 3.558 4.06.26 7.974.235 11.813-.107.436-.99.683-2.237.683-3.451 0-4.158-2.84-8.178-6.613-8.178z" transform="matrix(4.76473 0 0 4.72087 156.177 386.03)" inkscape:connector-curvature="0" sodipodi:nodetypes="ssccss"/><path sodipodi:nodetypes="szszs" inkscape:connector-curvature="0" d="M404.388 489.33c0 7.977-22.814 28.567-38.674 28.567s-38.673-21.38-38.673-28.568c0-6.377 17.315-23.901 38.673-23.901 21.359 0 38.674 17.003 38.674 23.901z" style="color:#000;display:inline;overflow:visible;visibility:visible;fill:#b28b16;fill-opacity:1;fill-rule:nonzero;stroke:none;stroke-width:.5;marker:none;enable-background:accumulate" transform="matrix(.51538 0 0 .51064 209.894 222.886)"/><path sodipodi:nodetypes="szszs" inkscape:connector-curvature="0" d="M399.065 489.65c0 6.88-19.674 24.636-33.35 24.636-13.678 0-33.351-18.438-33.351-24.636 0-5.5 11.32-22.612 33.35-22.612s33.35 16.663 33.35 22.612z" style="color:#000;display:inline;overflow:visible;visibility:visible;fill:#f1c43c;fill-opacity:1;fill-rule:nonzero;stroke:none;stroke-width:.5;marker:none;enable-background:accumulate" transform="matrix(.51538 0 0 .51064 209.894 222.886)"/><path sodipodi:nodetypes="ccsccsc" inkscape:connector-curvature="0" d="m328.433 490.146-.062.72s16.043 16.655 37.343 16.655c21.3 0 37.344-16.656 37.344-16.656l-.062-.719s-16.505 15.323-37.282 15.323c-20.776 0-37.281-15.323-37.281-15.323z" style="color:#000;font-style:normal;font-variant:normal;font-weight:400;font-stretch:normal;font-size:medium;line-height:normal;font-family:Sans;-inkscape-font-specification:Sans;text-indent:0;text-align:start;text-decoration:none;text-decoration-line:none;letter-spacing:normal;word-spacing:normal;text-transform:none;writing-mode:lr-tb;direction:ltr;baseline-shift:baseline;text-anchor:start;display:inline;overflow:visible;visibility:visible;fill:#b28b16;fill-opacity:1;stroke:none;stroke-width:1px;marker:none;enable-background:accumulate" transform="matrix(.51538 0 0 .51064 209.894 222.886)"/><g style="display:inline"><path style="fill:#f2f2f5;fill-opacity:1;stroke:none" d="M939.016 625.167c8.223-3.274 13.362 12.734 11.801 21.21-1.56 8.477-9.504 12.463-16.25 5.307-6.746-7.157-3.775-23.242 4.449-26.517z" inkscape:connector-curvature="0" sodipodi:nodetypes="zzzz" transform="matrix(.51538 0 0 .51064 -96.375 122.365)"/><path style="display:inline;fill:url(#c);fill-opacity:1;stroke:none" d="M942.972 636.293c6.989-.193 7.867 17.204 1.526 16.26-6.34-.943-8.514-16.066-1.526-16.26z" inkscape:connector-curvature="0" sodipodi:nodetypes="zzz" transform="matrix(.51538 0 0 .51064 -96.375 122.365)"/><path style="fill:#171717;fill-opacity:1;stroke:none" d="M943.913 641.709c2.95-.087 3.321 7.675.645 7.254-2.677-.42-3.595-7.168-.645-7.254z" inkscape:connector-curvature="0" sodipodi:nodetypes="zzz" transform="matrix(.51538 0 0 .51064 -96.375 122.365)"/><path style="display:inline;fill:#f2f2f5;fill-opacity:1;stroke:none" d="M980.92 625.167c-8.223-3.274-13.361 12.734-11.8 21.21 1.56 8.477 9.504 12.463 16.25 5.307 6.746-7.157 3.774-23.242-4.449-26.517z" inkscape:connector-curvature="0" sodipodi:nodetypes="zzzz" transform="matrix(.51538 0 0 .51064 -96.375 122.365)"/><path style="display:inline;fill:url(#d);fill-opacity:1;stroke:none" d="M977.026 636.293c-6.989-.193-7.868 17.204-1.526 16.26 6.34-.943 8.514-16.066 1.526-16.26z" inkscape:connector-curvature="0" sodipodi:nodetypes="zzz" transform="matrix(.51538 0 0 .51064 -96.375 122.365)"/><path style="display:inline;fill:#171717;fill-opacity:1;stroke:none" d="M976.087 641.709c-2.95-.087-3.321 7.675-.645 7.254 2.677-.42 3.595-7.168.645-7.254z" inkscape:connector-curvature="0" sodipodi:nodetypes="zzz" transform="matrix(.51538 0 0 .51064 -96.375 122.365)"/><path style="display:inline;fill:#fff;fill-opacity:.90232556;stroke:none" d="M941.33 639.5c2.594-.066 2.92 5.77.566 5.453-2.354-.317-3.16-5.389-.566-5.454z" inkscape:connector-curvature="0" sodipodi:nodetypes="zzz" transform="matrix(.51538 0 0 .51064 -96.375 122.365)"/><path style="display:inline;fill:#fff;fill-opacity:.76744187;stroke:none" d="M942.1 645.818c1.704-.034 1.918 3.048.372 2.88-1.547-.167-2.077-2.846-.373-2.88z" inkscape:connector-curvature="0" sodipodi:nodetypes="zzz" transform="matrix(.51538 0 0 .51064 -96.375 122.365)"/><path style="display:inline;fill:#fff;fill-opacity:.90232556;stroke:none" d="M974.668 639.5c-2.594-.066-2.92 5.77-.566 5.453 2.354-.317 3.16-5.389.566-5.454z" inkscape:connector-curvature="0" sodipodi:nodetypes="zzz" transform="matrix(.51538 0 0 .51064 -96.375 122.365)"/><path style="display:inline;fill:#fff;fill-opacity:.76744187;stroke:none" d="M973.898 645.818c-1.704-.034-1.919 3.048-.372 2.88 1.547-.167 2.077-2.846.372-2.88z" inkscape:connector-curvature="0" sodipodi:nodetypes="zzz" transform="matrix(.51538 0 0 .51064 -96.375 122.365)"/></g><path inkscape:connector-curvature="0" style="opacity:.50176679;fill:#eeeeec;fill-opacity:.98000004;stroke:none;stroke-width:2.14958096;stroke-miterlimit:4;stroke-dasharray:none;stroke-opacity:1" d="M573.924 482.613c0 89.448-84.368 97.954-209.888 99.501-137.294 1.668-212.928-16.288-206.107-99.501 7.285-88.89 93.183-162.045 207.998-162.045 114.814 0 207.997 72.596 207.997 162.045z" sodipodi:nodetypes="csssc" transform="matrix(.51538 0 0 .51064 209.894 222.886)"/></g><ellipse style="fill:#f5bb68;fill-opacity:.97647065;stroke:none;stroke-width:3.17558932;stroke-miterlimit:4;stroke-dasharray:none;stroke-opacity:1" cx="390.72736" cy="553.11975" rx="21.946917" ry="8.6979542"/><ellipse transform="matrix(.96772 .25203 -.25643 .96656 0 0)" style="fill:#f5bb68;fill-opacity:.97647065;stroke:none;stroke-width:3.59846735;stroke-miterlimit:4;stroke-dasharray:none;stroke-opacity:1" cx="371.00168" cy="448.58109" rx="19.356426" ry="7.6804724"/><path inkscape:connector-curvature="0" style="fill:url(#e);fill-opacity:1;stroke:none;stroke-width:1.2483238" d="M403.88 551.796c0 3.248-12.458-9.461-14.846 5.884-1.248 8.025-14.846-2.636-14.846-5.884s6.651-5.884 14.846-5.884c8.196 0 14.847 2.636 14.847 5.884z" sodipodi:nodetypes="csssc"/><path inkscape:connector-curvature="0" sodipodi:nodetypes="csssc" d="M255.771 527.202c-.554 2.707-9.318-10.085-14.033 2.285-2.465 6.469-12.579-4.816-12.025-7.524.555-2.707 6.842-3.73 14.034-2.285 7.192 1.446 12.579 4.816 12.024 7.524z" style="fill:url(#f);fill-opacity:1;stroke:none;stroke-width:1.2483238"/><ellipse style="fill:#f5bb68;fill-opacity:.97647065;stroke:none;stroke-width:3.59846735;stroke-miterlimit:4;stroke-dasharray:none;stroke-opacity:1" transform="matrix(-.96772 .25203 .25643 .96656 0 0)" cx="-410.51581" cy="654.17896" rx="19.356426" ry="7.6804724"/><path inkscape:connector-curvature="0" style="fill:url(#g);fill-opacity:1;stroke:none;stroke-width:1.2483238" d="M553.24 528.959c.554 2.707 9.318-10.084 14.033 2.285 2.465 6.47 12.579-4.816 12.024-7.523-.554-2.708-6.841-3.732-14.033-2.286-7.192 1.446-12.58 4.816-12.025 7.524z" sodipodi:nodetypes="csssc"/><ellipse style="color:#000;clip-rule:nonzero;display:inline;overflow:visible;visibility:visible;opacity:1;isolation:auto;mix-blend-mode:normal;color-interpolation:sRGB;color-interpolation-filters:linearRGB;solid-color:#000;solid-opacity:1;fill:#ad7fa8;fill-opacity:1;fill-rule:nonzero;stroke:none;stroke-width:3.74497128;stroke-linecap:round;stroke-linejoin:round;stroke-miterlimit:4;stroke-dasharray:none;stroke-dashoffset:0;stroke-opacity:.57254902;marker:none;color-rendering:auto;image-rendering:auto;shape-rendering:auto;text-rendering:auto;enable-background:accumulate" cx="398.37717" cy="595.72528" rx="82.470741" ry="23.429146"/></g></g></svg>