<svg xmlns:dc="http://purl.org/dc/elements/1.1/" xmlns:cc="http://creativecommons.org/ns#" xmlns:rdf="http://www.w3.org/1999/02/22-rdf-syntax-ns#" xmlns="http://www.w3.org/2000/svg" xmlns:xlink="http://www.w3.org/1999/xlink" xmlns:sodipodi="http://sodipodi.sourceforge.net/DTD/sodipodi-0.dtd" xmlns:inkscape="http://www.inkscape.org/namespaces/inkscape" viewBox="0 0 120 89.884041" inkscape:version="0.91 r13725" sodipodi:docname="accordion.svg"><sodipodi:namedview pagecolor="#ffffff" bordercolor="#666666" borderopacity="1" objecttolerance="10" gridtolerance="10" guidetolerance="10" inkscape:pageopacity="0" inkscape:pageshadow="2" inkscape:window-width="1366" inkscape:window-height="713" showgrid="false" fit-margin-top="0" fit-margin-left="0" fit-margin-right="0" fit-margin-bottom="0" inkscape:zoom="2.7418746" inkscape:cx="69.963625" inkscape:cy="45.4178" inkscape:window-x="-2" inkscape:window-y="-3" inkscape:window-maximized="1" inkscape:current-layer="svg2"/><defs><linearGradient id="D" y2="-110.24" xlink:href="#d" gradientUnits="userSpaceOnUse" x2="-758.47998" gradientTransform="translate(27.105 -19.021)" y1="-100.61" x1="-763.09003"/><linearGradient id="a"><stop stop-color="#a00" offset="0"/><stop stop-color="#8c0000" offset="1"/></linearGradient><linearGradient id="d"><stop stop-color="#e5e5e5" offset="0"/><stop stop-color="#fff" offset=".5"/><stop stop-color="#e5e5e5" offset="1"/></linearGradient><linearGradient id="b"><stop stop-color="#fff" offset="0"/><stop stop-color="#f2f2f2" offset="1"/></linearGradient><linearGradient id="e" y2="-496.81" xlink:href="#a" gradientUnits="userSpaceOnUse" x2="-618.23999" y1="54.356998" x1="-856.07001"/><linearGradient id="f" y2="-606.67999" xlink:href="#a" gradientUnits="userSpaceOnUse" x2="-1272.3" y1="69.856003" x1="-1260.2"/><linearGradient id="g" y2="-27.539" xlink:href="#b" gradientUnits="userSpaceOnUse" x2="-1242.4" y1="-29.763" x1="-1423.4"/><linearGradient id="h" y2="-54.705002" xlink:href="#b" gradientUnits="userSpaceOnUse" x2="-1250.2" y1="-56.373001" x1="-1427.7"/><linearGradient id="i" y2="-85.334999" xlink:href="#b" gradientUnits="userSpaceOnUse" x2="-1253.8" y1="-84.223" x1="-1430.9"/><linearGradient id="j" y2="-114.6" xlink:href="#b" gradientUnits="userSpaceOnUse" x2="-1256.9" y1="-112.37" x1="-1435.7"/><linearGradient id="k" y2="-142.87" xlink:href="#b" gradientUnits="userSpaceOnUse" x2="-1258.2" y1="-141.2" x1="-1438.3"/><linearGradient id="l" y2="-172.81" xlink:href="#b" gradientUnits="userSpaceOnUse" x2="-1261.1" y1="-171.14" x1="-1440.4"/><linearGradient id="m" y2="-202.73" xlink:href="#b" gradientUnits="userSpaceOnUse" x2="-1262.5" y1="-199.39" x1="-1444.4"/><linearGradient id="n" y2="-232.52" xlink:href="#b" gradientUnits="userSpaceOnUse" x2="-1264.4" y1="-228.63" x1="-1447.6"/><linearGradient id="o" y2="-263.79001" xlink:href="#b" gradientUnits="userSpaceOnUse" x2="-1266.4" y1="-259.89999" x1="-1452.5"/><linearGradient id="p" y2="-295.01999" xlink:href="#b" gradientUnits="userSpaceOnUse" x2="-1269.6" y1="-291.67999" x1="-1454.9"/><linearGradient id="q" y2="-328.89999" xlink:href="#b" gradientUnits="userSpaceOnUse" x2="-1271.7" y1="-323.34" x1="-1458.1"/><linearGradient id="r" y2="-358.91" xlink:href="#b" gradientUnits="userSpaceOnUse" x2="-1273.3" y1="-355.01999" x1="-1463.2"/><linearGradient id="s" y2="-394.29001" xlink:href="#b" gradientUnits="userSpaceOnUse" x2="-1275.6" y1="-390.39999" x1="-1466.2"/><linearGradient id="t" y2="-425.88" xlink:href="#b" gradientUnits="userSpaceOnUse" x2="-1277.3" y1="-421.42999" x1="-1469.3"/><linearGradient id="u" y2="-456.81" xlink:href="#b" gradientUnits="userSpaceOnUse" x2="-1278.9" y1="-452.91" x1="-1470.8"/><linearGradient id="v" y2="-494.20999" xlink:href="#b" gradientUnits="userSpaceOnUse" x2="-1281.6" y1="-487.53" x1="-1474.8"/><linearGradient id="w" y2="-525.51001" xlink:href="#b" gradientUnits="userSpaceOnUse" x2="-1281.7" y1="-521.06" x1="-1477.6"/><linearGradient id="x" y2="-562" xlink:href="#b" gradientUnits="userSpaceOnUse" x2="-1271.5" y1="-556.81" x1="-1481.1"/><linearGradient id="y" y2="-264.85001" xlink:href="#c" gradientUnits="userSpaceOnUse" x2="-1180" y1="-261.64999" x1="-1212.3"/><linearGradient id="z" y2="-272.20999" xlink:href="#c" gradientUnits="userSpaceOnUse" x2="-1190.6" y1="-266.88" x1="-1228.8"/><linearGradient id="A" y2="-110.24" xlink:href="#d" gradientUnits="userSpaceOnUse" x2="-758.47998" y1="-100.61" x1="-763.09003"/><linearGradient id="B" y2="-110.24" xlink:href="#d" gradientUnits="userSpaceOnUse" x2="-758.47998" gradientTransform="translate(10.581 -23.658)" y1="-100.61" x1="-763.09003"/><linearGradient id="C" y2="-110.24" xlink:href="#d" gradientUnits="userSpaceOnUse" x2="-758.47998" gradientTransform="translate(14.028 -10.343)" y1="-100.61" x1="-763.09003"/><linearGradient id="c"><stop stop-color="#fff" offset="0"/><stop stop-color="#4d4d4d" offset=".5"/><stop stop-color="#fff" offset="1"/></linearGradient><linearGradient id="E" y2="-110.24" xlink:href="#d" gradientUnits="userSpaceOnUse" x2="-758.47998" gradientTransform="translate(23.301 -31.623)" y1="-100.61" x1="-763.09003"/><linearGradient id="F" y2="-110.24" xlink:href="#d" gradientUnits="userSpaceOnUse" x2="-758.47998" gradientTransform="translate(36.259 -40.182)" y1="-100.61" x1="-763.09003"/><linearGradient id="G" y2="-110.24" xlink:href="#d" gradientUnits="userSpaceOnUse" x2="-758.47998" gradientTransform="translate(39.231 -27.581)" y1="-100.61" x1="-763.09003"/><linearGradient id="H" y2="-110.24" xlink:href="#d" gradientUnits="userSpaceOnUse" x2="-758.47998" gradientTransform="translate(19.853 -45.057)" y1="-100.61" x1="-763.09003"/><linearGradient id="I" y2="-110.24" xlink:href="#d" gradientUnits="userSpaceOnUse" x2="-758.47998" gradientTransform="translate(29.364 -67.525)" y1="-100.61" x1="-763.09003"/><linearGradient id="J" y2="-110.24" xlink:href="#d" gradientUnits="userSpaceOnUse" x2="-758.47998" gradientTransform="translate(32.812 -53.973)" y1="-100.61" x1="-763.09003"/><linearGradient id="K" y2="-110.24" xlink:href="#d" gradientUnits="userSpaceOnUse" x2="-758.47998" gradientTransform="translate(48.98 -49.099)" y1="-100.61" x1="-763.09003"/><linearGradient id="L" y2="-110.24" xlink:href="#d" gradientUnits="userSpaceOnUse" x2="-758.47998" gradientTransform="translate(59.441 -71.211)" y1="-100.61" x1="-763.09003"/><linearGradient id="M" y2="-110.24" xlink:href="#d" gradientUnits="userSpaceOnUse" x2="-758.47998" gradientTransform="translate(43.273 -76.798)" y1="-100.61" x1="-763.09003"/><linearGradient id="N" y2="-110.24" xlink:href="#d" gradientUnits="userSpaceOnUse" x2="-758.47998" gradientTransform="translate(45.889 -62.295)" y1="-100.61" x1="-763.09003"/><linearGradient id="O" y2="-110.24" xlink:href="#d" gradientUnits="userSpaceOnUse" x2="-758.47998" gradientTransform="translate(51.833 -97.722)" y1="-100.61" x1="-763.09003"/><linearGradient id="P" y2="-110.24" xlink:href="#d" gradientUnits="userSpaceOnUse" x2="-758.47998" gradientTransform="translate(55.756 -84.882)" y1="-100.61" x1="-763.09003"/><linearGradient id="Q" y2="-110.24" xlink:href="#d" gradientUnits="userSpaceOnUse" x2="-758.47998" gradientTransform="translate(39.588 -89.162)" y1="-100.61" x1="-763.09003"/><linearGradient id="R" y2="-110.24" xlink:href="#d" gradientUnits="userSpaceOnUse" x2="-758.47998" gradientTransform="translate(65.386 -105.81)" y1="-100.61" x1="-763.09003"/><linearGradient id="S" y2="-110.24" xlink:href="#d" gradientUnits="userSpaceOnUse" x2="-758.47998" gradientTransform="translate(48.861 -112.82)" y1="-100.61" x1="-763.09003"/><linearGradient id="T" y2="-110.24" xlink:href="#d" gradientUnits="userSpaceOnUse" x2="-758.47998" gradientTransform="translate(68.833 -93.085)" y1="-100.61" x1="-763.09003"/><linearGradient id="U" y2="-110.24" xlink:href="#d" gradientUnits="userSpaceOnUse" x2="-758.47998" gradientTransform="translate(58.015 -132.2)" y1="-100.61" x1="-763.09003"/><linearGradient id="V" y2="-110.24" xlink:href="#d" gradientUnits="userSpaceOnUse" x2="-758.47998" gradientTransform="translate(77.63 -114.84)" y1="-100.61" x1="-763.09003"/><linearGradient id="W" y2="-110.24" xlink:href="#d" gradientUnits="userSpaceOnUse" x2="-758.47998" gradientTransform="translate(61.938 -120.07)" y1="-100.61" x1="-763.09003"/><linearGradient id="X" y2="-110.24" xlink:href="#d" gradientUnits="userSpaceOnUse" x2="-758.47998" gradientTransform="translate(67.763 -155.62)" y1="-100.61" x1="-763.09003"/><linearGradient id="Y" y2="-110.24" xlink:href="#d" gradientUnits="userSpaceOnUse" x2="-758.47998" gradientTransform="translate(71.567 -141.35)" y1="-100.61" x1="-763.09003"/><linearGradient id="Z" y2="-110.24" xlink:href="#d" gradientUnits="userSpaceOnUse" x2="-758.47998" gradientTransform="translate(75.491 -128.27)" y1="-100.61" x1="-763.09003"/><linearGradient id="aa" y2="-110.24" xlink:href="#d" gradientUnits="userSpaceOnUse" x2="-758.47998" gradientTransform="translate(88.092 -137.79)" y1="-100.61" x1="-763.09003"/><linearGradient id="ab" y2="-110.24" xlink:href="#d" gradientUnits="userSpaceOnUse" x2="-758.47998" gradientTransform="translate(94.036 -172.86)" y1="-100.61" x1="-763.09003"/><linearGradient id="ac" y2="-110.24" xlink:href="#d" gradientUnits="userSpaceOnUse" x2="-758.47998" gradientTransform="translate(96.889 -158.71)" y1="-100.61" x1="-763.09003"/><linearGradient id="ad" y2="-110.24" xlink:href="#d" gradientUnits="userSpaceOnUse" x2="-758.47998" gradientTransform="translate(83.931 -150.39)" y1="-100.61" x1="-763.09003"/><linearGradient id="ae" y2="-110.24" xlink:href="#d" gradientUnits="userSpaceOnUse" x2="-758.47998" gradientTransform="translate(81.197 -164.53)" y1="-100.61" x1="-763.09003"/><linearGradient id="af" y2="-110.24" xlink:href="#d" gradientUnits="userSpaceOnUse" x2="-758.47998" gradientTransform="translate(106.76 -180.23)" y1="-100.61" x1="-763.09003"/></defs><path d="m-787.87 31.285 9.32-.621 6.628-15.741-6.213-5.178z" inkscape:connector-curvature="0" style="fill:#333" transform="matrix(.13054 0 0 .13054 195.674 80.425)"/><path d="m-596.08-404.07 9.113 3.107 7.25-16.155-8.493-7.042z" inkscape:connector-curvature="0" style="fill:#333" transform="matrix(.13054 0 0 .13054 195.674 80.425)"/><path d="M-680.66-519.63c4.995.024 10.649 1.252 13.759 7.81 0 0 37.625 19.904 39.261 21.813 1.636 1.908 4.09 4.362 4.09 4.362l29.99 19.903c6.984 5.678 12.764 12.88 8.998 32.172-60.543 158.56-131.9 314.29-205.3 469.77-7.188 10.96-14.39 18.194-26.72 18.267l-38.443-.818c-18.149.03-36.274-.165-53.712-6.543-8.007 1.218-8.608-2.502-10.36-5.453 7.755-.487 14.455-3.746 19.357-11.724l224.66-534.12z" style="fill:url(#e)" inkscape:connector-curvature="0" transform="matrix(.13054 0 0 .13054 195.674 80.425)"/><path d="m-982.39-203.42 168.57 31.164 132.09-308.1c5.224-18.298 5.676-32.778-4.25-38.956-93.157-50.321-193.83-68.845-299.25-67.287z" inkscape:connector-curvature="0" style="fill:#d40000" transform="matrix(.13054 0 0 .13054 195.674 80.425)"/><path d="m-1089.6-602.88 7.981-2.94 13.442 3.36.21-3.15 8.401-.21 13.022 3.57 8.822-2.31 10.29 3.15-.21-3.15 20.374 4.41.42-2.31h6.51l12.392 3.15.63-1.68 5.251.63 14.492 3.991.42-1.89 20.793 5.88.42-2.52 18.693 5.461 27.934 2.52.42 1.47 19.743.63 6.721 2.731 14.492.21 8.821 3.99 11.132.21 8.612 4.831 12.812.21 8.4 3.78 9.242 1.26 9.661 4.202 6.511 1.05 8.822 5.25 6.09-.42 11.342 6.511 7.561 1.26 10.291 5.881 4.621-.42 12.182 6.931 3.78 1.05 11.84 6.595 5.281.288 10.183 6.98 4.296.509-1.145 7.261-14.996-8.874-16.546-7.005-15.51-5.953-16.177-6.29-18.065-6.504-15.488-5.39-17.102-4.593-16.86-4.83-5.606.02-15.844-4.998-3.706.41-16.596-5.258-2.475 3.236-17.949-6.398-1.923 2.98-18.81-4.964-1.037 3.433-22.46-5.71-20.052-.618-15.26-1.564-2.858 4.486-18.648-4.219-1.31 4.439-3.384-.944c-1.069-5.022-6.34-9.109-12.392-13.022z" inkscape:connector-curvature="0" style="fill:#1a1a1a" transform="matrix(.13054 0 0 .13054 195.674 80.425)"/><path d="m-974.71-547.88-7.2 570.41 85.936-5.53 212.41-499.37-11.048-3.791-3.226-3.226-11.289-1.843-2.112-6.076-8.486-2.448-17.74 37.553 10.08-40.913-11.923-1.479-4.147-4.838-6.68-2.073-16.359 32.485 7.142-37.092-9.254-2.276-15.859 41.672 7.834-44.695-11.75-1.853-2.91-1.861-9.531-2.218-14.284 41.412 5.385-44.253-8.342-2.362-45.194 183.47 33.723-184.96-9.398-2.832-29.394 135.04 18.91-136.66-7.948-1.373-28.933 147.94 19.516-149.49-11.76-1.699-13.056 78.62 3.725-79.013-9.485-1.161-19.813 151.36 12.422-151.34-9.85-2.025-15.243 110.97 4.195-110.65-8.938-1.622-17.145 227.01 7.356-225.99-9.89-1.589-10.598 166.98-.222-164.91z" inkscape:connector-curvature="0" style="fill:#1a1a1a" transform="matrix(.13054 0 0 .13054 195.674 80.425)"/><path d="M-1340.1-608.16c-13.879 0-136.97 3.063-136.97 3.063-11.981 1.018-22.82 13.42-21.875 30.25 2.304.43 4.26 1.254 4.312 4.312l61.688 546.81c-1.115.016-1.612.694-1.562 1.875 3.569 19.859 17.013 22.753 32.094 22.812l130.78 1.219c20.813-.767 52.042 4.691 61.969 4.625l9.469 5.344 74.28 42.688c9.897 5.31 28.943 17.943 35 17.622 6.126.109 91.282-23.091 91.282-23.091 9.544 3.522 15.459-5.032 15.75-13.875l.312-601.09c.06-16.753-8.157-26.591-16.969-28.062l-97.156-9.875-128.94 3.093s-36.086-.328-49.656-1.562-49.934-6.156-63.812-6.156z" style="fill:url(#f)" inkscape:connector-curvature="0" transform="matrix(.13054 0 0 .13054 195.674 80.425)"/><path d="M-1421.1-42.144c-3.984 5.34-5.918 15.095 2.274 26.192l175.95 3.017-6.367-3.804-1.475-23.093z" style="fill:url(#g);stroke:#000;stroke-opacity:.5" inkscape:connector-curvature="0" transform="matrix(.13054 0 0 .13054 195.674 80.425)"/><path d="M-1424.8-69.114c-3.787 6.913-5.329 16.274 3.65 26.585l170.45 2.231-1.876-28.708z" style="fill:url(#h);stroke:#000;stroke-opacity:.5" inkscape:connector-curvature="0" transform="matrix(.13054 0 0 .13054 195.674 80.425)"/><path d="M-1427.9-98.326c-4.377 8.486-6.312 16.471 3.06 28.748l172.22.658-2.466-29.495z" style="fill:url(#i);stroke:#000;stroke-opacity:.5" inkscape:connector-curvature="0" transform="matrix(.13054 0 0 .13054 195.674 80.425)"/><path d="M-1431.8-127.62c-4.377 6.127-5.722 17.847 3.847 29.338l173.4-.128-2.466-33.623z" style="fill:url(#j);stroke:#000;stroke-opacity:.5" inkscape:connector-curvature="0" transform="matrix(.13054 0 0 .13054 195.674 80.425)"/><path d="M-1435.9-155.76c-3.787 6.717-5.525 16.667 3.847 28.158l174.97-4.256-1.68-25.17z" style="fill:url(#k);stroke:#000;stroke-opacity:.5" inkscape:connector-curvature="0" transform="matrix(.13054 0 0 .13054 195.674 80.425)"/><path d="M-1438.4-185.7c-4.77 6.52-6.115 18.83 2.864 29.731l176.74-1.11-2.073-31.46z" style="fill:url(#l);stroke:#000;stroke-opacity:.5" inkscape:connector-curvature="0" transform="matrix(.13054 0 0 .13054 195.674 80.425)"/><path d="M-1442.3-215.03c-3.984 6.127-5.918 17.847 4.044 29.338l176.94-2.487-1.68-30.477z" style="fill:url(#m);stroke:#000;stroke-opacity:.5" inkscape:connector-curvature="0" transform="matrix(.13054 0 0 .13054 195.674 80.425)"/><path d="M-1445.2-245.74c-4.377 6.323-5.919 19.223 3.06 31.107l178.9-4.06-1.876-29.494z" style="fill:url(#n);stroke:#000;stroke-opacity:.5" inkscape:connector-curvature="0" transform="matrix(.13054 0 0 .13054 195.674 80.425)"/><path d="M-1448.7-276.03c-3.984 6.323-5.722 19.42 3.454 30.32l180.08-2.487-2.466-31.46z" style="fill:url(#o);stroke:#000;stroke-opacity:.5" inkscape:connector-curvature="0" transform="matrix(.13054 0 0 .13054 195.674 80.425)"/><path d="M-1452-307.91c-5.163 6.323-5.132 20.599 3.454 31.893l181.26-3.47-2.27-33.426z" style="fill:url(#p);stroke:#000;stroke-opacity:.5" inkscape:connector-curvature="0" transform="matrix(.13054 0 0 .13054 195.674 80.425)"/><path d="M-1455.3-340.35c-3.984 6.127-6.115 21.189 3.454 32.286l182.44-4.65-2.073-31.46z" style="fill:url(#q);stroke:#000;stroke-opacity:.5" inkscape:connector-curvature="0" transform="matrix(.13054 0 0 .13054 195.674 80.425)"/><path d="M-1458.2-373.18c-3.984 6.127-7.098 21.582 2.471 32.679l184.21-3.863-2.073-31.854z" style="fill:url(#r);stroke:#000;stroke-opacity:.5" inkscape:connector-curvature="0" transform="matrix(.13054 0 0 .13054 195.674 80.425)"/><path d="M-1461.9-406c-4.377 6.127-6.901 20.992 3.65 32.876l184.41-3.273-1.68-31.264z" style="fill:url(#s);stroke:#000;stroke-opacity:.5" inkscape:connector-curvature="0" transform="matrix(.13054 0 0 .13054 195.674 80.425)"/><path d="M-1465-438.25c-4.573 6.323-6.312 20.992 3.06 32.09l186.37-3.863-1.876-32.247z" style="fill:url(#t);stroke:#000;stroke-opacity:.5" inkscape:connector-curvature="0" transform="matrix(.13054 0 0 .13054 195.674 80.425)"/><path d="M-1467.6-471.26c-5.163 6.127-7.295 20.402 2.078 32.09l187.75-2.88-2.27-34.606z" style="fill:url(#u);stroke:#000;stroke-opacity:.5" inkscape:connector-curvature="0" transform="matrix(.13054 0 0 .13054 195.674 80.425)"/><path d="m-1278.5-455.39-119.28 2.621.701 17.638 119.73-2.359z" inkscape:connector-curvature="0" style="fill:#1a1a1a" transform="matrix(.13054 0 0 .13054 195.674 80.425)"/><path d="M-1470.9-505.07c-3.984 6.127-7.295 21.385 2.274 32.483l189.32-4.453-1.68-33.23z" style="fill:url(#v);stroke:#000;stroke-opacity:.5" inkscape:connector-curvature="0" transform="matrix(.13054 0 0 .13054 195.674 80.425)"/><path d="m-1281.3-511.3-121.25 2.737.701 18.333 121.7-2.475z" inkscape:connector-curvature="0" style="fill:#1a1a1a" transform="matrix(.13054 0 0 .13054 195.674 80.425)"/><path d="m-1398.7-490.3-.934-14.009c39.593.596 78.985-.53 118.28-2.05l.131-1.572c-39.978 1.511-79.956 2.491-119.93 2.18l.758 15.461z" inkscape:connector-curvature="0" style="fill:#ccc" transform="matrix(.13054 0 0 .13054 195.674 80.425)"/><path d="M-1474.3-539.15c-4.016 6.127-7.354 21.385 2.293 32.483l190.87-4.453-1.694-33.23z" style="fill:url(#w);stroke:#000;stroke-opacity:.5" inkscape:connector-curvature="0" transform="matrix(.13054 0 0 .13054 195.674 80.425)"/><path d="M-1477-573.69c-4.016 6.127-7.354 21.385 2.293 32.483l192.11-4.103-.569-24.368c1.727-2.489 4.079-3.103 6.605-3.193l5.163-.055c.084-3.342-4.224-7.174-8.408-6.878z" style="fill:url(#x);stroke:#000;stroke-width:1px;stroke-opacity:.5" inkscape:connector-curvature="0" transform="matrix(.13054 0 0 .13054 195.674 80.425)"/><path d="M-1281.6-507.22c-.121 2.799-18.987 3.277-26.736 1.804 6.641-1.975 25.304-3.246 26.736-1.804z" inkscape:connector-curvature="0" style="fill:#fff" transform="matrix(.13054 0 0 .13054 195.674 80.425)"/><path d="m-1393.6-435.17-.829-14.464c38.83.596 77.416-.53 115.95-2.05l.129-1.572c-39.206 1.511-78.412 2.491-117.62 2.18l.831 15.906z" inkscape:connector-curvature="0" style="fill:#ccc" transform="matrix(.13054 0 0 .13054 195.674 80.425)"/><path d="M-1279.1-452.7c-.121 2.799-18.987 3.277-26.736 1.804 6.641-1.975 25.304-3.245 26.736-1.804z" inkscape:connector-curvature="0" style="fill:#ececec" transform="matrix(.13054 0 0 .13054 195.674 80.425)"/><path d="m-1276.1-414.07-118.24 3.084.354 17.291 118.92-1.317z" inkscape:connector-curvature="0" style="fill:#1a1a1a" transform="matrix(.13054 0 0 .13054 195.674 80.425)"/><path d="m-1390.1-393.73-.698-14.464c38.829.596 77.416-.53 115.95-2.05l.128-1.572c-39.206 1.511-78.412 2.491-117.62 2.18l.832 15.861z" inkscape:connector-curvature="0" style="fill:#ccc" transform="matrix(.13054 0 0 .13054 195.674 80.425)"/><path d="m-1270.1-319.15-115.81 1.58.817 16.595 116.14-.622z" inkscape:connector-curvature="0" style="fill:#1a1a1a" transform="matrix(.13054 0 0 .13054 195.674 80.425)"/><path d="m-1382.3-301.24-.8-12.728c36.698 1.194 71.868 2.208 113.4.382l-.45-2.615c-38.283 2.457-74.028 1.72-114.15.791l.555 14.37z" inkscape:connector-curvature="0" style="fill:#ccc" transform="matrix(.13054 0 0 .13054 195.674 80.425)"/><path d="m-1267.3-279.44-114.54 1.464.354 16.48 3.257-.006 1.042 1.615 111.03-1.884z" inkscape:connector-curvature="0" style="fill:#1a1a1a" transform="matrix(.13054 0 0 .13054 195.674 80.425)"/><path d="m-1378.7-261.63-.692-12.511c36.698 1.194 71.058 2.208 112.59.382l-.334-2.615c-38.283 2.457-73.333 1.72-113.45.791l.447 13.936z" inkscape:connector-curvature="0" style="fill:#ccc" transform="matrix(.13054 0 0 .13054 195.674 80.425)"/><path d="m-1263.9-228.97-113.84 1.464.354 15.555 3.025-.007 1.274 1.846 110.8-1.19z" inkscape:connector-curvature="0" style="fill:#1a1a1a" transform="matrix(.13054 0 0 .13054 195.674 80.425)"/><path d="m-1373.9-211.35-.118-12.551c36.697 1.194 69.321 2.324 110.85.497l-.335-2.498c-38.283 2.456-71.836 1.202-111.95.273l.277 13.562.974.128z" inkscape:connector-curvature="0" style="fill:#ccc" transform="matrix(.13054 0 0 .13054 195.674 80.425)"/><path d="m-1260.9-191-113.84 1.464.817 15.439 2.678.108 1.852 1.615 110.11-.957z" inkscape:connector-curvature="0" style="fill:#1a1a1a" transform="matrix(.13054 0 0 .13054 195.674 80.425)"/><path d="m-1370.9-173.73-.175-11.975c36.698 1.194 69.322 2.324 110.85.497l-.335-2.498c-38.283 2.456-71.597 1.489-111.72.56l.338 13.124.725.027z" inkscape:connector-curvature="0" style="fill:#ccc" transform="matrix(.13054 0 0 .13054 195.674 80.425)"/><path d="m-1257.6-141.8-111.76-.197.817 15.439 2.678.108 1.852 1.615 107.41.496z" inkscape:connector-curvature="0" style="fill:#1a1a1a" transform="matrix(.13054 0 0 .13054 195.674 80.425)"/><path d="m-1365.2-125.93-.285-11.817c36.698 1.194 66.853 2.431 108.39.605l-.12-2.392c-38.283 2.457-69.343 1.275-109.46.345l.324 12.694.528.044z" inkscape:connector-curvature="0" style="fill:#ccc" transform="matrix(.13054 0 0 .13054 195.674 80.425)"/><path d="m-1255.3-104.63-110.31-.82.817 15.439 2.678.109 2.63 2.294c34.97.656 70.756 3.673 105.59-.184z" inkscape:connector-curvature="0" style="fill:#1a1a1a" transform="matrix(.13054 0 0 .13054 195.674 80.425)"/><path d="m-1362.4-89.803-.453-11.035c36.698 1.194 66.639 2.435 108.17.61v-2.611c-38.282 2.456-69.25 1.489-109.37.56l.549 12.19z" inkscape:connector-curvature="0" style="fill:#ccc" transform="matrix(.13054 0 0 .13054 195.674 80.425)"/><path d="M-1096.7-197.06s-1.306 3.656-2.872 4.961c-1.567 1.306-5.484-.522-7.311 1.567-1.828 2.089.783 3.655 1.044 6.005s-4.439 59.533-8.356 60.056c-3.916.523-8.094-68.672-10.444-68.933-2.35-.26-4.438 35.772-7.05 36.294-2.61.523-6.788-30.028-7.833-32.117-1.044-2.089-15.144-3.916-18.017-6.266-2.872-2.35-23.239-77.29-22.978-79.117.261-1.828 1.045-15.667.261-17.756-.783-2.09-9.4 8.877-11.228 9.4-1.828.522-9.66-9.661-10.967-12.011-1.305-2.35-8.094-32.117-8.355-34.99-.261-2.872-5.484-29.243-8.356-30.288-2.872-1.045-12.794 8.877-13.578 11.489-.783 2.61-6.789 5.222-6.789 8.616 0 3.395 8.878 264.24 8.878 266.07 0 1.828-4.961 20.367-6.006 22.456-1.044 2.09-9.922 14.622-10.444 16.711-.522 2.09-2.61 3.395-2.61 6.267 0 2.872 0 11.228 1.566 12.533 1.567 1.306 26.372 15.667 26.372 15.667l81.728 46.833c17.651 12.207 47.227 24.686 47.261 14.267z" inkscape:connector-curvature="0" style="fill:#fff;fill-opacity:.15" transform="matrix(.13054 0 0 .13054 195.674 80.425)"/><path d="M-1250.9-570.09c40.567 1.572 79.897 3.886 117.3 7.354-39.102-.545-78.203-3.014-117.3-7.354z" inkscape:connector-curvature="0" style="fill:#fff;fill-opacity:.8" transform="matrix(.13054 0 0 .13054 195.674 80.425)"/><path d="m-1283.6-553.87-122.41 2.621 1.048 18.217h3.146l2.097 1.18c38.783-.265 93.578-1.851 117.03-3.539z" inkscape:connector-curvature="0" style="fill:#1a1a1a" transform="matrix(.13054 0 0 .13054 195.674 80.425)"/><path d="m-1400.7-532.9-.934-14.464c39.593.596 78.939-.53 118.23-2.05l.131-1.572c-39.978 1.511-79.956 2.491-119.93 2.18l.803 15.643z" inkscape:connector-curvature="0" style="fill:#ccc" transform="matrix(.13054 0 0 .13054 195.674 80.425)"/><path d="M-1282.8-550.2c-.121 2.799-18.987 3.277-26.736 1.804 6.641-1.975 25.304-3.246 26.736-1.804z" inkscape:connector-curvature="0" style="fill:#fff" transform="matrix(.13054 0 0 .13054 195.674 80.425)"/><path d="M-1276.9-410.97c-.121 2.799-18.987 3.277-26.736 1.804 6.641-1.975 25.304-3.246 26.736-1.804z" inkscape:connector-curvature="0" style="fill:#ececec" transform="matrix(.13054 0 0 .13054 195.674 80.425)"/><path d="m-1273-360.12-116.85 1.81.585 17.292 117.76-1.086z" inkscape:connector-curvature="0" style="fill:#1a1a1a" transform="matrix(.13054 0 0 .13054 195.674 80.425)"/><path d="m-1384.9-341.27-1.032-13.791c38.031 1.194 74.46 2.208 113.4.382l-.45-2.615c-39.915 2.783-75.148 1.663-114.15.791l.556 15.296z" inkscape:connector-curvature="0" style="fill:#ccc" transform="matrix(.13054 0 0 .13054 195.674 80.425)"/><path d="M-1273-355.6c-.121 2.799-18.987 3.277-26.736 1.804 6.641-1.975 25.304-3.246 26.736-1.804z" inkscape:connector-curvature="0" style="fill:#ececec" transform="matrix(.13054 0 0 .13054 195.674 80.425)"/><path d="M-1270.6-314.51c-.121 2.799-18.987 3.277-26.736 1.804 6.641-1.975 25.304-3.245 26.736-1.804z" inkscape:connector-curvature="0" style="fill:#fff" transform="matrix(.13054 0 0 .13054 195.674 80.425)"/><path d="M-1267.9-274.79c-.121 2.799-18.987 3.277-26.736 1.804 6.641-1.975 25.304-3.246 26.736-1.804z" inkscape:connector-curvature="0" style="fill:#fff" transform="matrix(.13054 0 0 .13054 195.674 80.425)"/><path d="M-1264.8-224.36c-.121 2.799-18.987 3.277-26.736 1.804 6.641-1.975 25.304-3.246 26.736-1.804z" inkscape:connector-curvature="0" style="fill:#fff" transform="matrix(.13054 0 0 .13054 195.674 80.425)"/><path d="M-1262.1-186.11c-.121 2.799-18.987 3.277-26.736 1.804 6.641-1.975 25.304-3.246 26.736-1.804z" inkscape:connector-curvature="0" style="fill:#fff" transform="matrix(.13054 0 0 .13054 195.674 80.425)"/><path d="M-1258.3-138.32c-.121 2.799-18.987 3.277-26.736 1.804 6.641-1.975 25.304-3.246 26.736-1.804z" inkscape:connector-curvature="0" style="fill:#fff" transform="matrix(.13054 0 0 .13054 195.674 80.425)"/><path d="M-1255.8-101.04c-.121 2.799-18.987 3.277-26.736 1.804 6.641-1.975 25.304-3.246 26.736-1.804z" inkscape:connector-curvature="0" style="fill:#fff" transform="matrix(.13054 0 0 .13054 195.674 80.425)"/><path d="m-1252.4-68.796-109.24-1.014.234 15.146 3.261.206 2.63 2.49c34.97.655 69.396 4.06 104.23.204z" inkscape:connector-curvature="0" style="fill:#1a1a1a" transform="matrix(.13054 0 0 .13054 195.674 80.425)"/><path d="m-1358.7-54.522-.453-11.112c36.698 1.194 65.522 2.324 107.05.497l-.11-2.275c-38.284 2.457-68.02 1.266-108.14.336l.547 12.475z" inkscape:connector-curvature="0" style="fill:#ccc" transform="matrix(.13054 0 0 .13054 195.674 80.425)"/><path d="M-1253-66.171c-.121 2.799-18.987 3.277-26.736 1.804 6.641-1.975 25.304-3.246 26.736-1.804z" inkscape:connector-curvature="0" style="fill:#fff" transform="matrix(.13054 0 0 .13054 195.674 80.425)"/><path d="M-1130.6-529.45c2.35-3.394-.783-4.178-.522-7.05.26-2.872 6.005-7.833 10.706-8.878 4.7-1.044 8.355-2.35 9.922-2.35 1.567 0 3.655 4.178 5.222 2.872 1.567-1.305-1.305-8.094-2.872-9.922-1.567-1.828-3.133-1.305-4.961-1.828-1.828-.522-9.661-2.088-12.011-2.088-2.35 0-4.44 1.566-6.267 1.566-1.828 0-4.7-2.089-6.005-1.828-1.306.262-.523 4.178-1.045 5.223-.522 1.044-4.7 2.872-5.483 5.483-.784 2.611 1.566 4.178 1.566 6.528 0 2.35-3.133 4.7-2.088 6.005 1.044 1.306 5.222 2.09 6.266 1.828 1.045-.261.261-2.611 1.828-2.872 1.567-.261 2.611 6.789 5.745 7.311z" inkscape:connector-curvature="0" style="fill:#fff;fill-opacity:.5" transform="matrix(.13054 0 0 .13054 195.674 80.425)"/><path d="M-1127.2-460.26s1.044-68.933-1.306-69.195c-2.35-.261 1.306 69.195 1.306 69.195z" inkscape:connector-curvature="0" style="fill:#fff" transform="matrix(.13054 0 0 .13054 195.674 80.425)"/><path d="M-1186-.962c2.176 1.777 4.352 2.13 6.528-.26-8.82-173.47-17.116-346.93-24.544-520.4-.571-3.732-3.805-2.14-7.833 1.043 7.464 172.82 16.301 346.1 25.85 519.61z" style="fill:url(#y)" inkscape:connector-curvature="0" transform="matrix(.13054 0 0 .13054 195.674 80.425)"/><path d="M-1194.3-9.317c-8.764-171.46-20.037-342.93-25.067-514.39-.5-3.279-4.23-2.251-8.878 0 6.47 169.63 18.09 342.36 27.678 513.87 2.09 1.714 4.178 2.928 6.267.522z" style="fill:url(#z)" inkscape:connector-curvature="0" transform="matrix(.13054 0 0 .13054 195.674 80.425)"/><path d="M-1211.6-519.83c1.353 1.979 8.119-1.807 7.037-3.441-1.083-1.635-8.57 1.72-7.037 3.441z" inkscape:connector-curvature="0" style="fill:#999" transform="matrix(.13054 0 0 .13054 195.674 80.425)"/><path d="M-1227.9-522.95c1.484 1.45 8.904-1.324 7.717-2.521-1.187-1.198-9.399 1.26-7.717 2.521z" inkscape:connector-curvature="0" style="fill:#999" transform="matrix(.13054 0 0 .13054 195.674 80.425)"/><path d="M-1478.2-583.43s99.397.448 107.23-.224c7.835-.671 34.923-4.253 39.401-4.477 4.477-.224 28.879 1.79 34.028 2.239 5.149.447 23.058 3.805 24.625 2.238 1.567-1.567-2.686-3.582-2.686-4.925s2.91-1.343 2.014-3.358c-.895-2.015-46.117-8.283-55.519-8.73-9.402-.448-69.846.223-84.174.67-14.328.449-58.429.449-61.34 1.12-2.91.672-12.313 3.582-13.88 5.15-1.567 1.566-5.149 8.282-4.03 9.402 1.12 1.119 6.27-1.791 7.836-1.791 1.567 0 5.82 1.567 6.492 2.686z" inkscape:connector-curvature="0" style="fill:#fff;fill-opacity:.3" transform="matrix(.13054 0 0 .13054 195.674 80.425)"/><path d="M-1494.8-592.17c5.268-6.088 10.72-9.512 14.999-10.522 3.891-.943 116.63-3.806 119.55-3.358 2.91.448 24.625.895 27.76 1.12 3.134.223 57.086 6.268 62.011 7.163 4.925.896 21.939 2.91 26.416 3.358 4.477.448 52.833 1.12 58.429 1.343 5.597.224 39.401 3.134 43.878 3.358 4.477.224 30.67 3.806 36.938 3.806 6.268 0 45.669-1.567 51.713-1.79 6.044-.225 40.52-1.568 40.52-1.568s-34.923-4.477-41.415-4.925c-6.492-.448-38.953-4.477-40.968-4.925-2.015-.448-7.835-1.12-7.835-1.12l-76.563-1.343s-59.101 1.343-62.907 1.343c-3.806 0-32.461-1.119-36.266-1.567-3.806-.447-55.071-6.492-57.982-6.492-2.91 0-98.278 1.791-98.278 1.791l-45.221 2.015c-5.296.559-12.313 6.641-14.775 12.313z" inkscape:connector-curvature="0" style="fill:#fff;fill-opacity:.8" transform="matrix(.13054 0 0 .13054 195.674 80.425)"/><path d="M-1432.7-28.244c2.49 4.165 4.903 8.496 10.298 6.268l2.015 3.358c-9.392.317-11.806-4.019-12.313-9.626z" inkscape:connector-curvature="0" style="fill:#fff;fill-opacity:.4" transform="matrix(.13054 0 0 .13054 195.674 80.425)"/><path d="M-1386 1.083c-25.28.852-40.805.77-47.684-18.581 8.316 15.667 27.65 17.56 47.684 18.58z" inkscape:connector-curvature="0" style="fill:#fff;fill-opacity:.4" transform="matrix(.13054 0 0 .13054 195.674 80.425)"/><path d="M-1433.4-20.185c4.107 2.446 7.89 6.513 12.537 6.268l142.6 3.582c-47.311-.448-94.621-.259-141.93-1.343-6.157-.205-9.279-4.961-13.208-8.507z" inkscape:connector-curvature="0" style="fill:#fff;fill-opacity:.4" transform="matrix(.13054 0 0 .13054 195.674 80.425)"/><path d="M-1306.5 1.754c32.956-3.706 63.649-3.931 88.875 4.254-26.398-4.287-57.157-4.697-88.875-4.254z" inkscape:connector-curvature="0" style="fill:#fff;fill-opacity:.4" transform="matrix(.13054 0 0 .13054 195.674 80.425)"/><path d="M-1117-192.49s.633-273.54-5.699-273.54S-1117-192.49-1117-192.49z" inkscape:connector-curvature="0" style="fill:#fff;fill-opacity:.3" transform="matrix(.13054 0 0 .13054 195.674 80.425)"/><path d="M-1095.8-555.36c2.818 0 2.373-4.895 4.005-6.675 1.631-1.78 8.01-2.67 10.086-3.856 2.076-1.187 8.751-5.637 11.124-5.933 2.373-.297 14.684 0 19.283-.742 4.598-.742 28.776-3.708 32.039-3.708 3.263 0 12.608.89 14.536 1.78 1.928.89 6.378 2.818 6.378 2.818s-.742-3.56-1.78-5.785.148-4.153-2.522-4.746c-2.67-.594-67.34 3.411-68.972 3.115-1.631-.297-13.053-.594-13.943-.594-.89 0-5.488-1.186-6.971-.741-1.483.445-7.565 5.933-7.861 8.306-.297 2.373.296 10.828.89 12.31.593 1.484 1.186 4.302 3.708 4.45z" inkscape:connector-curvature="0" style="fill:#fff;fill-opacity:.5" transform="matrix(.13054 0 0 .13054 195.674 80.425)"/><path d="m-1088.7 69.397-2.937-253.82s-1.258-7.132 2.098-7.132 4.615 69.223 7.552 69.223c2.936 0 5.873-39.017 8.39-41.114 2.517-2.098 12.586 5.873 14.684 5.454 2.098-.42 2.937-6.293 6.713-6.713 3.775-.42 34.82 7.132 39.436 5.035 4.615-2.098 16.362-14.684 16.362-16.362 0-1.678-1.259-12.166 2.517-11.747 3.776.42 1.258 43.63 4.615 43.63 3.356 0 5.454-48.245 5.454-48.245v227.81c-3.205 7.1-5.828 14.977-15.523 13.425 0 0-83.907 23.502-89.36 20.557z" inkscape:connector-curvature="0" style="fill:#fff;fill-opacity:.15" transform="matrix(.13054 0 0 .13054 195.674 80.425)"/><path d="m-994.29 48.84 2.517-10.488-.839-586.51s-.42-27.41-3.776-33.284c-3.357-5.873-15.103-9.928-22.235-10.767-7.132-.84-52.861-6.293-52.861-6.293l65.867 5.873c4.058.7 11.607 1.209 15.096 9.954-4.713-1.85-6.4-3.306-9.046-4.348 3.586 4.235 7.97 10.895 9.154 24.514.384-10.672.61-13.46.727-16.978 3.346 2.19 4.495 5.085 5.046 9.093.868-22.93-17.246-23.719-38.597-25.172-11.754-.142-75.096-7.97-75.096-7.97l-18.6 1.537 42.933 5.594 61.252 7.552c11.174 2.946 16.184 9.736 15.942 20.557z" inkscape:connector-curvature="0" style="fill:#fff;fill-opacity:.5" transform="matrix(.13054 0 0 .13054 195.674 80.425)"/><path d="M-1082.4-196.95s-2.661-313.66-6.083-313.66 6.083 313.66 6.083 313.66z" inkscape:connector-curvature="0" style="fill:#fff;fill-opacity:.3" transform="matrix(.13054 0 0 .13054 195.674 80.425)"/><path d="M-1091.9-517.84s4.942-35.358.38-35.358-.38 35.358-.38 35.358z" inkscape:connector-curvature="0" style="fill:#fff" transform="matrix(.13054 0 0 .13054 195.674 80.425)"/><path d="M-937.14 38.541c5.742-2.687 10.366-9.612 13.905-20.376 1.147-.52 2.295-1.126 3.442.138-6.474 18.74-11.956 20.27-17.347 20.238z" inkscape:connector-curvature="0" style="fill:#ccc" transform="matrix(.13054 0 0 .13054 195.674 80.425)"/><path d="M-933.15 39.229c7.394-2.962 10.916-9.75 14.869-20.513 1.147-.52 2.295-1.126 3.442.138-5.924 17.226-12.506 20.684-18.31 20.376z" inkscape:connector-curvature="0" style="fill:#ccc" transform="matrix(.13054 0 0 .13054 195.674 80.425)"/><path d="M-929.43 39.504c8.495-2.962 11.329-9.612 15.832-20.513 1.147-.52 2.432-.988 3.58.275-4.272 13.784-12.644 20.822-19.412 20.238z" inkscape:connector-curvature="0" style="fill:#ccc" transform="matrix(.13054 0 0 .13054 195.674 80.425)"/><path d="M-926.26 40.193c10.285-4.064 12.982-10.025 16.934-20.926 1.147-.52 2.432-.988 3.58.275-3.033 13.646-11.956 21.51-20.513 20.651z" inkscape:connector-curvature="0" style="fill:#ccc" transform="matrix(.13054 0 0 .13054 195.674 80.425)"/><path d="M-921.72 40.881c10.973-2.825 12.844-9.75 16.796-20.926 1.147-.52 2.708-.988 3.855.275-3.446 12.545-12.506 23.437-20.651 20.651z" inkscape:connector-curvature="0" style="fill:#ccc" transform="matrix(.13054 0 0 .13054 195.674 80.425)"/><path d="M-916.49 41.845c9.597-5.165 12.018-9.612 16.796-20.926 1.147-.52 2.432-.988 3.58.275-4.547 12.27-11.13 22.336-20.376 20.651z" inkscape:connector-curvature="0" style="fill:#ccc" transform="matrix(.13054 0 0 .13054 195.674 80.425)"/><path d="M-940.99 38.265c6.706-1.586 9.264-8.786 13.217-20.1 1.147-.52 2.295-1.126 3.442.138-6.474 18.327-11.543 20.133-16.658 19.963z" inkscape:connector-curvature="0" style="fill:#ccc" transform="matrix(.13054 0 0 .13054 195.674 80.425)"/><path d="M-944.43 38.541c6.017-2.55 7.475-9.199 12.115-20.651 1.147-.52 2.295-1.126 3.442.138-5.235 17.639-10.304 20.822-15.557 20.513z" inkscape:connector-curvature="0" style="fill:#ccc" transform="matrix(.13054 0 0 .13054 195.674 80.425)"/><path d="M-948.7 38.265c5.88-2.962 6.786-7.133 11.014-20.238 1.147-.52 2.295-1.126 3.442.138-5.235 17.776-9.34 20.27-14.456 20.1z" inkscape:connector-curvature="0" style="fill:#ccc" transform="matrix(.13054 0 0 .13054 195.674 80.425)"/><path d="M-952.69 38.403c4.916-2.825 5.823-7.409 9.775-20.651 1.147-.52 2.294-1.126 3.442.138-4.547 16.675-6.724 19.445-13.217 20.513z" inkscape:connector-curvature="0" style="fill:#ccc" transform="matrix(.13054 0 0 .13054 195.674 80.425)"/><path d="M-957.24 38.678c5.054-3.376 5.547-6.445 9.086-20.376 1.148-.52 2.295-1.126 3.442.138-3.72 14.747-6.449 19.445-12.528 20.238z" inkscape:connector-curvature="0" style="fill:#ccc" transform="matrix(.13054 0 0 .13054 195.674 80.425)"/><path d="M-962.06 39.367c5.191-3.376 5.823-6.858 8.949-20.789 1.147-.52 2.294-1.126 3.442.138-2.758 14.747-6.45 19.307-12.391 20.65z" inkscape:connector-curvature="0" style="fill:#ccc" transform="matrix(.13054 0 0 .13054 195.674 80.425)"/><path d="M-966.19 39.917c4.365-2.962 4.997-6.583 7.572-20.513 1.147-.52 2.295-1.126 3.442.138-1.656 14.61-5.76 19.72-11.014 20.376z" inkscape:connector-curvature="0" style="fill:#ccc" transform="matrix(.13054 0 0 .13054 195.674 80.425)"/><path d="M-970.45 40.881c3.264-2.962 5.134-6.445 6.608-20.513 1.148-.52 2.295-1.126 3.442.138-1.93 14.747-4.659 20.133-10.05 20.376z" inkscape:connector-curvature="0" style="fill:#ccc" transform="matrix(.13054 0 0 .13054 195.674 80.425)"/><path d="M-975 41.569c3.814-2.825 4.584-6.308 5.782-20.651 1.148-.52 2.295-1.126 3.442.138-1.518 14.61-4.108 20.409-9.224 20.513z" inkscape:connector-curvature="0" style="fill:#ccc" transform="matrix(.13054 0 0 .13054 195.674 80.425)"/><path d="M-978.72 42.395c2.438-2.962 2.932-6.17 4.819-20.651 1.147-.52 2.294-1.126 3.441.138-.967 14.885-3.97 19.996-8.26 20.513z" inkscape:connector-curvature="0" style="fill:#ccc" transform="matrix(.13054 0 0 .13054 195.674 80.425)"/><path d="M-983.81 43.497c3.677-3.513 5.272-6.996 5.507-19.963 1.147-.52 2.295-1.126 3.442.138-.692 14.61-3.007 18.894-8.949 19.825z" inkscape:connector-curvature="0" style="fill:#ccc" transform="matrix(.13054 0 0 .13054 195.674 80.425)"/><path d="M-986.15 44.323c3.126-6.404 2.518-12.916 2.753-19.137 1.148-.52 2.295-1.126 3.442.138-.692 12.132-2.869 16.278-6.195 18.999z" inkscape:connector-curvature="0" style="fill:#ccc" transform="matrix(.13054 0 0 .13054 195.674 80.425)"/><path d="m-984.18 26.19 1.341-570.36 5.452-.39-2.336 563.46 13.812-565.52 4.955.672-12.927 563.29 29.312-564.28 4.42.535-29.06 562.58 42.835-562.68 5.595.928-43.367 560.19 59.135-559.22 4.284.72-57.967 557.33 70.48-556.84 6.62 1.025-71.26 554.65 85.614-553.91 3.697.779-83.859 552.74 98.032-550.47 5.745 1.12-98.715 549.35 112.73-546.05 4.187 1.216-111.86 543.27 127.28-540.64 5.5 1.712-126.55 539.7 139.65-536.55 4.476 1.52-139.45 535.42 149.53-533.08 5.451 1.423-149.92 532.05 161.6-528.02 4.284 1.61-161.21 525.63 172.89-520.62 5.84 1.558-172.89 519.46 182.77-514.68 5.495 1.323-183.59 514.92 194.7-510.11 4.086 1.365-195.28 508.74 204.39-502.47 5.11.928-204.04 503.1 213-497.65 5.058 1.909-216.76 502.88c-29.868-4.591-58.728-2.786-88.308 4.434z" inkscape:connector-curvature="0" style="fill:#666" transform="matrix(.13054 0 0 .13054 195.674 80.425)"/><path d="M-900.36-543.76c.597-34.696-2.838-42.153-18.661-44.926l-1.152 8.064c15.337 3.379 12.108 22.105 12.307 35.432z" inkscape:connector-curvature="0" style="fill:#333" transform="matrix(.13054 0 0 .13054 195.674 80.425)"/><path d="M-904.44-544.49c.91-12.854 1.556-25.363-2.592-36.363 6.804 3.332 6.924 19.239 6.421 36.92z" inkscape:connector-curvature="0" style="fill:#e6e6e6" transform="matrix(.13054 0 0 .13054 195.674 80.425)"/><path d="M-919.71-584.31c3.686-.17 7.372 2.803 11.059 6.912-1.993-3.485-3.616-7.017-10.367-9.907z" inkscape:connector-curvature="0" style="fill:#999" transform="matrix(.13054 0 0 .13054 195.674 80.425)"/><path d="M-920.17-545.38c.597-34.696-2.838-42.153-18.661-44.926l-1.152 8.064c15.337 3.379 12.012 22.153 12.211 35.48z" inkscape:connector-curvature="0" style="fill:#333" transform="matrix(.13054 0 0 .13054 195.674 80.425)"/><path d="M-924.55-546.25c1.006-12.518 1.7-26.42-2.304-36.219 6.468 2.563 6.828 19.431 6.614 37.064z" inkscape:connector-curvature="0" style="fill:#e6e6e6" transform="matrix(.13054 0 0 .13054 195.674 80.425)"/><path d="M-939.52-585.93c3.686-.17 7.372 2.803 11.059 6.912-1.993-3.485-3.616-7.017-10.367-9.907z" inkscape:connector-curvature="0" style="fill:#999" transform="matrix(.13054 0 0 .13054 195.674 80.425)"/><path d="M-940.54-546.26c.597-33.984-2.742-41.096-18.565-43.812l-1.152 7.898c15.337 3.31 12.012 21.651 12.211 34.704z" inkscape:connector-curvature="0" style="fill:#333" transform="matrix(.13054 0 0 .13054 195.674 80.425)"/><path d="M-944.58-546.92c.622-12.645 1.22-25.205-2.544-35.477 6.9 2.745 6.656 18.956 6.586 36.131z" inkscape:connector-curvature="0" style="fill:#e6e6e6" transform="matrix(.13054 0 0 .13054 195.674 80.425)"/><path d="M-959.8-585.78c3.686-.166 7.372 2.746 11.059 6.77-1.993-3.414-3.616-6.873-10.367-9.704z" inkscape:connector-curvature="0" style="fill:#999" transform="matrix(.13054 0 0 .13054 195.674 80.425)"/><path d="M-960.3-545.61c.658-33.984-3.129-41.288-20.57-44.004l-1.27 7.898c16.905 3.31 13.24 21.7 13.46 34.752z" inkscape:connector-curvature="0" style="fill:#333" transform="matrix(.13054 0 0 .13054 195.674 80.425)"/><path d="M-964.91-546.3c.254-12.582 1.884-23.833-2.753-35.643 7.986 2.686 7.204 19.251 7.124 36.308z" inkscape:connector-curvature="0" style="fill:#e6e6e6" transform="matrix(.13054 0 0 .13054 195.674 80.425)"/><path d="M-981.64-585.32c4.063-.166 8.126 2.746 12.19 6.77-2.197-3.414-3.986-6.873-11.428-9.704z" inkscape:connector-curvature="0" style="fill:#999" transform="matrix(.13054 0 0 .13054 195.674 80.425)"/><path d="M-881.01-542.15c.604-33.984-2.87-41.288-18.873-44.004l-1.165 7.898c15.511 3.31 12.148 21.7 12.349 34.752z" inkscape:connector-curvature="0" style="fill:#333" transform="matrix(.13054 0 0 .13054 195.674 80.425)"/><path d="M-885.34-543.01c1.018-12.261 1.422-25.301-2.426-35.477 6.731 2.313 6.954 18.802 6.742 36.265z" inkscape:connector-curvature="0" style="fill:#e6e6e6" transform="matrix(.13054 0 0 .13054 195.674 80.425)"/><path d="M-900.58-581.87c3.728-.166 7.456 2.746 11.184 6.77-2.016-3.414-3.657-6.873-10.485-9.704z" inkscape:connector-curvature="0" style="fill:#999" transform="matrix(.13054 0 0 .13054 195.674 80.425)"/><path d="M-861.4-540.33c.577-33.971-2.742-41.35-18.025-44.408l-1.113 7.873c14.814 3.643 11.554 22.247 11.746 35.305z" inkscape:connector-curvature="0" style="fill:#333" transform="matrix(.13054 0 0 .13054 195.674 80.425)"/><path d="M-865.63-541.13c.972-12.239 1.432-25.379-2.225-35.671 6.158 2.112 6.784 19.192 6.37 36.467z" inkscape:connector-curvature="0" style="fill:#e6e6e6" transform="matrix(.13054 0 0 .13054 195.674 80.425)"/><path d="M-880.1-580.47c3.56-.086 7.121 2.905 10.682 7.01-1.925-3.457-3.493-6.951-10.014-9.929z" inkscape:connector-curvature="0" style="fill:#969696" transform="matrix(.13054 0 0 .13054 195.674 80.425)"/><path d="M-843.17-537.1c2.645-33.971-.224-41.35-15.321-44.408l-1.592 7.873c14.592 3.643 10.265 21.96 9.662 35.017z" inkscape:connector-curvature="0" style="fill:#333" transform="matrix(.13054 0 0 .13054 195.674 80.425)"/><path d="M-847.34-538.01c1.717-12.239 3.157-24.562-.065-35.575 6.267 2.593 5.45 19.096 4.272 36.371z" inkscape:connector-curvature="0" style="fill:#e6e6e6" transform="matrix(.13054 0 0 .13054 195.674 80.425)"/><path d="M-859.42-577.24c3.566-.086 6.944 2.905 10.255 7.01-1.714-3.457-3.07-6.951-9.41-9.929z" inkscape:connector-curvature="0" style="fill:#969696" transform="matrix(.13054 0 0 .13054 195.674 80.425)"/><path d="M-823.55-532.5c2.543-33.971-.215-41.35-14.728-44.408l-1.53 7.873c14.027 3.643 9.82 21.767 9.24 34.824z" inkscape:connector-curvature="0" style="fill:#333" transform="matrix(.13054 0 0 .13054 195.674 80.425)"/><path d="M-827.7-533.4c1.65-12.239 3.455-24.178.081-35.575 6.04 2.497 5.187 19.144 4.042 36.371z" inkscape:connector-curvature="0" style="fill:#e6e6e6" transform="matrix(.13054 0 0 .13054 195.674 80.425)"/><path d="M-839.17-572.63c3.428-.086 6.675 2.905 9.858 7.01-1.648-3.457-2.951-6.951-9.045-9.929z" inkscape:connector-curvature="0" style="fill:#969696" transform="matrix(.13054 0 0 .13054 195.674 80.425)"/><path d="M-802.74-528.15c4.024-33.971 1.358-40.629-13.615-43.688l-1.912 7.873c14.444 3.643 9.518 20.854 8.386 33.912z" inkscape:connector-curvature="0" style="fill:#333" transform="matrix(.13054 0 0 .13054 195.674 80.425)"/><path d="M-806.96-529.39c2.214-12.239 4.307-24.034 1.375-34.518 6.1 1.872 4.736 16.453 2.906 35.699z" inkscape:connector-curvature="0" style="fill:#e6e6e6" transform="matrix(.13054 0 0 .13054 195.674 80.425)"/><path d="M-817.46-567.56c3.57-.086 6.826 2.905 9.97 7.01-1.574-3.457-2.787-6.951-9.006-9.929z" inkscape:connector-curvature="0" style="fill:#969696" transform="matrix(.13054 0 0 .13054 195.674 80.425)"/><path d="M-785.55-523.58c4.024-33.971 1.214-40.821-13.759-43.88l-1.912 7.873c14.444 3.643 9.567 21.382 8.434 34.44z" inkscape:connector-curvature="0" style="fill:#333" transform="matrix(.13054 0 0 .13054 195.674 80.425)"/><path d="M-789.82-524.58c2.214-12.239 4.067-23.889 1.279-34.95 6.197 1.968 5.024 18.615 3.002 35.891z" inkscape:connector-curvature="0" style="fill:#e6e6e6" transform="matrix(.13054 0 0 .13054 195.674 80.425)"/><path d="M-800.41-563.19c3.57-.086 6.826 2.905 9.97 7.01-1.574-3.457-2.787-6.951-9.006-9.929z" inkscape:connector-curvature="0" style="fill:#969696" transform="matrix(.13054 0 0 .13054 195.674 80.425)"/><path d="M-771.25-520.06c3.429-32.209 1.24-39.205-11.519-42.105l-1.629 7.465c12.308 3.453 7.988 20.82 7.022 33.2z" inkscape:connector-curvature="0" style="fill:#333" transform="matrix(.13054 0 0 .13054 195.674 80.425)"/><path d="M-774.77-521c1.887-11.604 3.45-22.569 1.171-33.638 4.96 1.528 4.029 18.267 2.33 34.694z" inkscape:connector-curvature="0" style="fill:#e6e6e6" transform="matrix(.13054 0 0 .13054 195.674 80.425)"/><path d="M-783.71-558.11c3.041-.082 5.817 2.755 8.496 6.646-1.342-3.278-2.376-6.59-7.675-9.413z" inkscape:connector-curvature="0" style="fill:#969696" transform="matrix(.13054 0 0 .13054 195.674 80.425)"/><path d="M-755.44-514.53c8.452-32.209 1.198-39.665-12.012-42.565l-1.238 7.465c16.793 2.762 9.882 20.752 7.01 33.132z" inkscape:connector-curvature="0" style="fill:#333" transform="matrix(.13054 0 0 .13054 195.674 80.425)"/><path d="M-759.25-515.47c3.741-11.604 5.408-20.189 4.407-30.874 4.743 2.441 3.127 15.454-.712 31.929z" inkscape:connector-curvature="0" style="fill:#e6e6e6" transform="matrix(.13054 0 0 .13054 195.674 80.425)"/><path d="M-767.9-552.58c3.264-.082 9.957 2.755 12.704 6.646-1.638-6.273-5.707-7.973-12.106-10.795z" inkscape:connector-curvature="0" style="fill:#969696" transform="matrix(.13054 0 0 .13054 195.674 80.425)"/><path d="M-737.66-507.61c8.452-32.209 1.39-39.665-11.82-42.565l-1.238 7.465c16.793 2.762 9.594 21.28 6.722 33.66z" inkscape:connector-curvature="0" style="fill:#333" transform="matrix(.13054 0 0 .13054 195.674 80.425)"/><path d="M-741.28-508.56c3.741-11.604 6.417-22.591 4.407-30.874 4.792 2.73 3.079 15.358-.808 31.881z" inkscape:connector-curvature="0" style="fill:#e6e6e6" transform="matrix(.13054 0 0 .13054 195.674 80.425)"/><path d="M-749.93-545.67c3.264-.082 9.957 2.755 12.704 6.646-1.638-6.273-5.707-7.973-12.106-10.795z" inkscape:connector-curvature="0" style="fill:#969696" transform="matrix(.13054 0 0 .13054 195.674 80.425)"/><path d="M-721.99-501.62c8.452-32.209 1.39-39.665-11.82-42.565l-1.046 6.984c16.793 2.763 9.402 21.761 6.53 34.141z" inkscape:connector-curvature="0" style="fill:#333" transform="matrix(.13054 0 0 .13054 195.674 80.425)"/><path d="M-734.27-539.68c3.264-.082 9.957 2.755 12.704 6.646-1.638-6.273-5.707-7.973-12.106-10.795z" inkscape:connector-curvature="0" style="fill:#969696" transform="matrix(.13054 0 0 .13054 195.674 80.425)"/><path d="M-706.79-495.4c8.452-30.989 1.39-38.163-11.82-40.953l-1.238 7.182c16.793 2.658 9.497 19.513 6.626 31.424z" inkscape:connector-curvature="0" style="fill:#333" transform="matrix(.13054 0 0 .13054 195.674 80.425)"/><path d="M-719.06-532.02c3.264-.079 9.957 2.65 12.704 6.394-1.638-6.035-5.707-7.67-12.106-10.386z" inkscape:connector-curvature="0" style="fill:#969696" transform="matrix(.13054 0 0 .13054 195.674 80.425)"/><path d="M-693.88-488.59c11.397-30.989 5.074-38.066-7.113-40.857l-3.545 6.653c17.224 3.33 8.506 21.1 4.482 33.01z" inkscape:connector-curvature="0" style="fill:#333" transform="matrix(.13054 0 0 .13054 195.674 80.425)"/><path d="M-701.89-525.1c3.095-.079 9.126 2.65 11.312 6.394-.887-6.035-4.555-7.67-10.308-10.386z" inkscape:connector-curvature="0" style="fill:#999" transform="matrix(.13054 0 0 .13054 195.674 80.425)"/><path d="M-626.55-481.28c1.636-2.181-10.906-11.451-13.087-13.087-2.181-1.636-23.448-13.36-23.448-13.36l-3-3c.311 8.992-.084 18.1-4.089 27.81l-112.06 263.65 92.7-214.03-101.15 238.84 123.24-288.19c2.609-7.515 4.01-13.824 5.18-19.902 0 0 32.446 22.357 35.718 21.267z" inkscape:connector-curvature="0" style="fill:#fff;fill-opacity:.5" transform="matrix(.13054 0 0 .13054 195.674 80.425)"/><path d="M-667.97-230.66s3.495-16.974 0-22.465c-3.495-5.492-14.478-4.992-19.969-4.992-5.492 0-11.482-7.988-12.98-10.983-1.498-2.996-6.49-3.495-6.49-3.495l-140.79 316.01c-3.288 4.646.407 6.965 4.992 8.986l31.951 1.997c12.847-6.35 17.344-14.37 23.963-21.966z" inkscape:connector-curvature="0" style="fill:#fff;fill-opacity:.2" transform="matrix(.13054 0 0 .13054 195.674 80.425)"/><path d="M-848.69 42.416c-3.348 7.614-9.137 10.349-16.475 9.985l-31.452-2.996c-2.815-1.213-2.577-3.24-1.498-5.491l13.978-24.962 90.361-204.69s.5-2.497 4.993-1.498c4.493.998.499 7.988 5.491 8.986 4.992.999 8.986-5.492 13.978-3.994 4.992 1.498 3.994 39.44 3.994 39.44z" inkscape:connector-curvature="0" style="fill:#fff;fill-opacity:.1" transform="matrix(.13054 0 0 .13054 195.674 80.425)"/><path d="M-856.51-51.421s77.05-162.61 73.018-163.95c-4.032-1.344-73.018 163.95-73.018 163.95z" inkscape:connector-curvature="0" style="fill:#fff;fill-opacity:.3" transform="matrix(.13054 0 0 .13054 195.674 80.425)"/><path d="m-758.53-98.021-8.557-4.682c-.272-4.711 2.184-7.377 5.328-9.526l8.719 5.65z" style="fill:url(#A)" inkscape:connector-curvature="0" transform="matrix(.13054 0 0 .13054 195.674 80.425)"/><path d="M-753.2-106.42c2.664 1.534-2.26 10.172-5.005 8.557-2.745-1.614 2.34-10.09 5.005-8.557z" inkscape:connector-curvature="0" style="fill:#fff" transform="matrix(.13054 0 0 .13054 195.674 80.425)"/><path d="m-747.95-121.68-8.557-4.682c-.272-4.711 2.184-7.377 5.328-9.526l8.719 5.65z" style="fill:url(#B)" inkscape:connector-curvature="0" transform="matrix(.13054 0 0 .13054 195.674 80.425)"/><path d="M-742.62-130.07c2.664 1.534-2.26 10.172-5.005 8.557-2.745-1.614 2.34-10.09 5.005-8.557z" inkscape:connector-curvature="0" style="fill:#fff" transform="matrix(.13054 0 0 .13054 195.674 80.425)"/><path d="m-744.5-108.36-8.557-4.682c-.272-4.711 2.184-7.377 5.328-9.526l8.719 5.65z" style="fill:url(#C)" inkscape:connector-curvature="0" transform="matrix(.13054 0 0 .13054 195.674 80.425)"/><path d="M-739.17-116.76c2.664 1.534-2.26 10.172-5.005 8.557-2.745-1.614 2.34-10.09 5.005-8.557z" inkscape:connector-curvature="0" style="fill:#fff" transform="matrix(.13054 0 0 .13054 195.674 80.425)"/><path d="m-731.42-117.04-8.557-4.682c-.272-4.711 2.184-7.377 5.328-9.526l8.719 5.65z" style="fill:url(#D)" inkscape:connector-curvature="0" transform="matrix(.13054 0 0 .13054 195.674 80.425)"/><path d="M-726.09-125.44c2.664 1.534-2.26 10.172-5.005 8.557-2.745-1.614 2.34-10.09 5.005-8.557z" inkscape:connector-curvature="0" style="fill:#fff" transform="matrix(.13054 0 0 .13054 195.674 80.425)"/><path d="m-735.23-129.64-8.557-4.682c-.272-4.711 2.184-7.377 5.328-9.526l8.719 5.65z" style="fill:url(#E)" inkscape:connector-curvature="0" transform="matrix(.13054 0 0 .13054 195.674 80.425)"/><path d="M-729.9-138.04c2.664 1.534-2.26 10.172-5.005 8.557-2.745-1.614 2.34-10.09 5.005-8.557z" inkscape:connector-curvature="0" style="fill:#fff" transform="matrix(.13054 0 0 .13054 195.674 80.425)"/><path d="m-722.27-138.2-8.557-4.682c-.272-4.711 2.184-7.377 5.328-9.526l8.719 5.65z" style="fill:url(#F)" inkscape:connector-curvature="0" transform="matrix(.13054 0 0 .13054 195.674 80.425)"/><path d="M-716.94-146.6c2.664 1.534-2.26 10.172-5.005 8.557-2.745-1.614 2.34-10.09 5.005-8.557z" inkscape:connector-curvature="0" style="fill:#fff" transform="matrix(.13054 0 0 .13054 195.674 80.425)"/><path d="m-719.29-125.6-8.557-4.682c-.272-4.711 2.184-7.377 5.328-9.526l8.719 5.65z" style="fill:url(#G)" inkscape:connector-curvature="0" transform="matrix(.13054 0 0 .13054 195.674 80.425)"/><path d="M-713.97-134c2.664 1.534-2.26 10.172-5.005 8.557-2.745-1.614 2.34-10.09 5.005-8.557z" inkscape:connector-curvature="0" style="fill:#fff" transform="matrix(.13054 0 0 .13054 195.674 80.425)"/><path d="m-738.67-143.08-8.557-4.682c-.272-4.711 2.184-7.377 5.328-9.526l8.719 5.65z" style="fill:url(#H)" inkscape:connector-curvature="0" transform="matrix(.13054 0 0 .13054 195.674 80.425)"/><path d="M-733.34-151.47c2.664 1.534-2.26 10.172-5.005 8.557-2.745-1.614 2.34-10.09 5.005-8.557z" inkscape:connector-curvature="0" style="fill:#fff" transform="matrix(.13054 0 0 .13054 195.674 80.425)"/><path d="m-729.16-165.55-8.557-4.682c-.272-4.711 2.184-7.377 5.328-9.526l8.719 5.65z" style="fill:url(#I)" inkscape:connector-curvature="0" transform="matrix(.13054 0 0 .13054 195.674 80.425)"/><path d="M-723.83-173.94c2.664 1.534-2.26 10.172-5.005 8.557-2.745-1.614 2.34-10.09 5.005-8.557z" inkscape:connector-curvature="0" style="fill:#fff" transform="matrix(.13054 0 0 .13054 195.674 80.425)"/><path d="m-725.71-151.99-8.557-4.682c-.272-4.711 2.184-7.377 5.328-9.526l8.719 5.65z" style="fill:url(#J)" inkscape:connector-curvature="0" transform="matrix(.13054 0 0 .13054 195.674 80.425)"/><path d="M-720.39-160.39c2.664 1.534-2.26 10.172-5.005 8.557-2.745-1.614 2.34-10.09 5.005-8.557z" inkscape:connector-curvature="0" style="fill:#fff" transform="matrix(.13054 0 0 .13054 195.674 80.425)"/><path d="m-709.55-147.12-8.557-4.682c-.272-4.711 2.184-7.377 5.328-9.526l8.719 5.65z" style="fill:url(#K)" inkscape:connector-curvature="0" transform="matrix(.13054 0 0 .13054 195.674 80.425)"/><path d="M-704.22-155.52c2.664 1.534-2.26 10.172-5.005 8.557-2.745-1.614 2.34-10.09 5.005-8.557z" inkscape:connector-curvature="0" style="fill:#fff" transform="matrix(.13054 0 0 .13054 195.674 80.425)"/><path d="m-699.08-169.23-8.557-4.682c-.272-4.711 2.184-7.377 5.328-9.526l8.719 5.65z" style="fill:url(#L)" inkscape:connector-curvature="0" transform="matrix(.13054 0 0 .13054 195.674 80.425)"/><path d="M-693.76-177.63c2.664 1.534-2.26 10.172-5.005 8.557-2.745-1.614 2.34-10.09 5.005-8.557z" inkscape:connector-curvature="0" style="fill:#fff" transform="matrix(.13054 0 0 .13054 195.674 80.425)"/><path d="m-715.25-174.82-8.557-4.682c-.272-4.711 2.184-7.377 5.328-9.526l8.719 5.65z" style="fill:url(#M)" inkscape:connector-curvature="0" transform="matrix(.13054 0 0 .13054 195.674 80.425)"/><path d="M-709.92-183.21c2.664 1.534-2.26 10.172-5.005 8.557-2.745-1.614 2.34-10.09 5.005-8.557z" inkscape:connector-curvature="0" style="fill:#fff" transform="matrix(.13054 0 0 .13054 195.674 80.425)"/><path d="m-712.64-160.32-8.557-4.682c-.272-4.711 2.184-7.377 5.328-9.526l8.719 5.65z" style="fill:url(#N)" inkscape:connector-curvature="0" transform="matrix(.13054 0 0 .13054 195.674 80.425)"/><path d="M-707.31-168.71c2.664 1.534-2.26 10.172-5.005 8.557-2.745-1.614 2.34-10.09 5.005-8.557z" inkscape:connector-curvature="0" style="fill:#fff" transform="matrix(.13054 0 0 .13054 195.674 80.425)"/><path d="m-706.69-195.74-8.557-4.682c-.272-4.711 2.184-7.377 5.328-9.526l8.719 5.65z" style="fill:url(#O)" inkscape:connector-curvature="0" transform="matrix(.13054 0 0 .13054 195.674 80.425)"/><path d="M-701.37-204.14c2.664 1.534-2.26 10.172-5.005 8.557-2.745-1.614 2.34-10.09 5.005-8.557z" inkscape:connector-curvature="0" style="fill:#fff" transform="matrix(.13054 0 0 .13054 195.674 80.425)"/><path d="m-702.77-182.9-8.557-4.682c-.272-4.711 2.184-7.377 5.328-9.526l8.719 5.65z" style="fill:url(#P)" inkscape:connector-curvature="0" transform="matrix(.13054 0 0 .13054 195.674 80.425)"/><path d="M-697.44-191.3c2.664 1.534-2.26 10.172-5.005 8.557-2.745-1.614 2.34-10.09 5.005-8.557z" inkscape:connector-curvature="0" style="fill:#fff" transform="matrix(.13054 0 0 .13054 195.674 80.425)"/><path d="m-718.94-187.18-8.557-4.682c-.272-4.711 2.184-7.377 5.328-9.526l8.719 5.65z" style="fill:url(#Q)" inkscape:connector-curvature="0" transform="matrix(.13054 0 0 .13054 195.674 80.425)"/><path d="M-713.61-195.58c2.664 1.534-2.26 10.172-5.005 8.557-2.745-1.614 2.34-10.09 5.005-8.557z" inkscape:connector-curvature="0" style="fill:#fff" transform="matrix(.13054 0 0 .13054 195.674 80.425)"/><path d="m-693.14-203.83-8.557-4.682c-.272-4.711 2.184-7.377 5.328-9.526l8.719 5.65z" style="fill:url(#R)" inkscape:connector-curvature="0" transform="matrix(.13054 0 0 .13054 195.674 80.425)"/><path d="M-687.81-212.22c2.664 1.534-2.26 10.172-5.005 8.557-2.745-1.614 2.34-10.09 5.005-8.557z" inkscape:connector-curvature="0" style="fill:#fff" transform="matrix(.13054 0 0 .13054 195.674 80.425)"/><path d="m-709.67-210.84-8.557-4.682c-.272-4.711 2.184-7.377 5.328-9.526l8.719 5.65z" style="fill:url(#S)" inkscape:connector-curvature="0" transform="matrix(.13054 0 0 .13054 195.674 80.425)"/><path d="M-704.34-219.24c2.664 1.534-2.26 10.172-5.005 8.557-2.745-1.614 2.34-10.09 5.005-8.557z" inkscape:connector-curvature="0" style="fill:#fff" transform="matrix(.13054 0 0 .13054 195.674 80.425)"/><path d="m-689.69-191.11-8.557-4.682c-.272-4.711 2.184-7.377 5.328-9.526l8.719 5.65z" style="fill:url(#T)" inkscape:connector-curvature="0" transform="matrix(.13054 0 0 .13054 195.674 80.425)"/><path d="M-684.36-199.5c2.664 1.534-2.26 10.172-5.005 8.557-2.745-1.614 2.34-10.09 5.005-8.557z" inkscape:connector-curvature="0" style="fill:#fff" transform="matrix(.13054 0 0 .13054 195.674 80.425)"/><path d="m-700.51-230.22-8.557-4.682c-.272-4.711 2.184-7.377 5.328-9.526l8.719 5.65z" style="fill:url(#U)" inkscape:connector-curvature="0" transform="matrix(.13054 0 0 .13054 195.674 80.425)"/><path d="M-695.18-238.61c2.664 1.534-2.26 10.172-5.005 8.557-2.745-1.614 2.34-10.09 5.005-8.557z" inkscape:connector-curvature="0" style="fill:#fff" transform="matrix(.13054 0 0 .13054 195.674 80.425)"/><path d="m-680.9-212.86-8.557-4.682c-.272-4.711 2.184-7.377 5.328-9.526l8.719 5.65z" style="fill:url(#V)" inkscape:connector-curvature="0" transform="matrix(.13054 0 0 .13054 195.674 80.425)"/><path d="M-675.57-221.26c2.664 1.534-2.26 10.172-5.005 8.557-2.745-1.614 2.34-10.09 5.005-8.557z" inkscape:connector-curvature="0" style="fill:#fff" transform="matrix(.13054 0 0 .13054 195.674 80.425)"/><path d="m-696.59-218.09-8.557-4.682c-.272-4.711 2.184-7.377 5.328-9.526l8.719 5.65z" style="fill:url(#W)" inkscape:connector-curvature="0" transform="matrix(.13054 0 0 .13054 195.674 80.425)"/><path d="M-691.26-226.49c2.664 1.534-2.26 10.172-5.005 8.557-2.745-1.614 2.34-10.09 5.005-8.557z" inkscape:connector-curvature="0" style="fill:#fff" transform="matrix(.13054 0 0 .13054 195.674 80.425)"/><path d="m-690.76-253.64-8.557-4.682c-.272-4.711 2.184-7.377 5.328-9.526l8.719 5.65z" style="fill:url(#X)" inkscape:connector-curvature="0" transform="matrix(.13054 0 0 .13054 195.674 80.425)"/><path d="M-685.43-262.03c2.664 1.534-2.26 10.172-5.005 8.557-2.745-1.614 2.34-10.09 5.005-8.557z" inkscape:connector-curvature="0" style="fill:#fff" transform="matrix(.13054 0 0 .13054 195.674 80.425)"/><path d="m-686.96-239.37-8.557-4.682c-.272-4.711 2.184-7.377 5.328-9.526l8.719 5.65z" style="fill:url(#Y)" inkscape:connector-curvature="0" transform="matrix(.13054 0 0 .13054 195.674 80.425)"/><path d="M-681.63-247.77c2.664 1.534-2.26 10.172-5.005 8.557-2.745-1.614 2.34-10.09 5.005-8.557z" inkscape:connector-curvature="0" style="fill:#fff" transform="matrix(.13054 0 0 .13054 195.674 80.425)"/><path d="m-683.04-226.3-8.557-4.682c-.272-4.711 2.184-7.377 5.328-9.526l8.719 5.65z" style="fill:url(#Z)" inkscape:connector-curvature="0" transform="matrix(.13054 0 0 .13054 195.674 80.425)"/><path d="M-677.71-234.69c2.664 1.534-2.26 10.172-5.005 8.557-2.745-1.614 2.34-10.09 5.005-8.557z" inkscape:connector-curvature="0" style="fill:#fff" transform="matrix(.13054 0 0 .13054 195.674 80.425)"/><path d="m-670.43-235.81-8.557-4.682c-.272-4.711 2.184-7.377 5.328-9.526l8.719 5.65z" style="fill:url(#aa)" inkscape:connector-curvature="0" transform="matrix(.13054 0 0 .13054 195.674 80.425)"/><path d="M-665.11-244.2c2.664 1.534-2.26 10.172-5.005 8.557-2.745-1.614 2.34-10.09 5.005-8.557z" inkscape:connector-curvature="0" style="fill:#fff" transform="matrix(.13054 0 0 .13054 195.674 80.425)"/><path d="m-664.49-270.88-8.557-4.682c-.272-4.711 2.184-7.377 5.328-9.526l8.719 5.65z" style="fill:url(#ab)" inkscape:connector-curvature="0" transform="matrix(.13054 0 0 .13054 195.674 80.425)"/><path d="M-659.16-279.27c2.664 1.534-2.26 10.172-5.005 8.557-2.745-1.614 2.34-10.09 5.005-8.557z" inkscape:connector-curvature="0" style="fill:#fff" transform="matrix(.13054 0 0 .13054 195.674 80.425)"/><path d="m-661.64-256.73-8.557-4.682c-.272-4.711 2.184-7.377 5.328-9.526l8.719 5.65z" style="fill:url(#ac)" inkscape:connector-curvature="0" transform="matrix(.13054 0 0 .13054 195.674 80.425)"/><path d="M-656.31-265.13c2.664 1.534-2.26 10.172-5.005 8.557-2.745-1.614 2.34-10.09 5.005-8.557z" inkscape:connector-curvature="0" style="fill:#fff" transform="matrix(.13054 0 0 .13054 195.674 80.425)"/><path d="m-674.59-248.41-8.557-4.682c-.272-4.711 2.184-7.377 5.328-9.526l8.719 5.65z" style="fill:url(#ad)" inkscape:connector-curvature="0" transform="matrix(.13054 0 0 .13054 195.674 80.425)"/><path d="M-669.27-256.8c2.664 1.534-2.26 10.172-5.005 8.557-2.745-1.614 2.34-10.09 5.005-8.557z" inkscape:connector-curvature="0" style="fill:#fff" transform="matrix(.13054 0 0 .13054 195.674 80.425)"/><path d="m-677.33-262.55-8.557-4.682c-.272-4.711 2.184-7.377 5.328-9.526l8.719 5.65z" style="fill:url(#ae)" inkscape:connector-curvature="0" transform="matrix(.13054 0 0 .13054 195.674 80.425)"/><path d="M-672-270.95c2.664 1.534-2.26 10.172-5.005 8.557-2.745-1.614 2.34-10.09 5.005-8.557z" inkscape:connector-curvature="0" style="fill:#fff" transform="matrix(.13054 0 0 .13054 195.674 80.425)"/><path d="m-651.77-278.25-8.557-4.682c-.272-4.711 2.184-7.377 5.328-9.526l8.719 5.65z" style="fill:url(#af)" inkscape:connector-curvature="0" transform="matrix(.13054 0 0 .13054 195.674 80.425)"/><path d="M-646.44-286.64c2.664 1.534-2.26 10.172-5.005 8.557-2.745-1.614 2.34-10.09 5.005-8.557z" inkscape:connector-curvature="0" style="fill:#fff" transform="matrix(.13054 0 0 .13054 195.674 80.425)"/><path d="M-679.69-481.22c11.397-30.989 5.17-38.066-7.017-40.857l-1.96 7.182c15.59 2.658 7.065 19.754 3.04 31.665z" inkscape:connector-curvature="0" style="fill:#333" transform="matrix(.13054 0 0 .13054 195.674 80.425)"/><path d="M-683.11-482.37c4.765-11.165 7.77-18.677 7.19-29.368 4.284 2.672 1.587 14.645-3.774 30.403z" inkscape:connector-curvature="0" style="fill:#e6e6e6" transform="matrix(.13054 0 0 .13054 195.674 80.425)"/><path d="M-687.61-517.73c3.095-.079 9.126 2.65 11.312 6.394-.887-6.035-4.555-7.67-10.308-10.386z" inkscape:connector-curvature="0" style="fill:#969696" transform="matrix(.13054 0 0 .13054 195.674 80.425)"/><path d="M-1275.2-579.21c3.317.343 6.842.723 8.481 5.64 6.538.438 13.478.629 19.614.743 51.528 1.956 94.887 5.482 138.62 11.449-52.422-6.09-105.93-7.167-159.23-9.33-4.133.187-10.367-1.111-14.747 1.384.476-2.07 2.649-3.282 11.301-3.47-.9-3.254-1.434-4.923-4.039-6.417z" inkscape:connector-curvature="0" style="fill-opacity:.5" transform="matrix(.13054 0 0 .13054 195.674 80.425)"/><path d="m-1083.8 71.249-13.111-600.2 8.646 601.11z" inkscape:connector-curvature="0" style="fill-opacity:.5" transform="matrix(.13054 0 0 .13054 195.674 80.425)"/><path d="m-1154.9-608.04-.672 3.225 15.051 2.42.538-3.495z" inkscape:connector-curvature="0" style="fill:#1a1a1a" transform="matrix(.13054 0 0 .13054 195.674 80.425)"/><path d="M-1077.9-593.35v-7.583c-11.918-3.563-24.024-5.803-36.434-5.918l-20.529-3.699c-5.336-4.028-11.931-6.258-20.714-5.363-1.923 2.774-1.464 5.548.555 8.322 6.512.835 12.985 1.51 19.974 4.254 2.412 2.801 5.685 5.171 6.288 8.877 16.66 3.507 33.709 2.998 50.86 1.11z" inkscape:connector-curvature="0" style="fill:#666" transform="matrix(.13054 0 0 .13054 195.674 80.425)"/><path d="M-1086.4-599.46c-11.343.63-22.686.719-34.03.185l-.056-4.141c11.399-5.843 23.849-4.562 34.209.2z" inkscape:connector-curvature="0" style="fill:#1a1a1a" transform="matrix(.13054 0 0 .13054 195.674 80.425)"/><path d="M-1113.1-597.48c-3.624-.369-7.807-.89-10.745-1.238-3.931-3.54-7.878-9.089-11.738-11.646 3.603 2.025 8.911 6.655 12.692 10.5 4.228.764 6.574 1.342 9.791 2.384z" inkscape:connector-curvature="0" style="fill:#333" transform="matrix(.13054 0 0 .13054 195.674 80.425)"/><path d="M-1097.3-602.86c-4.425-.62-9.936-.147-12.946.37 3.33.534 9.594.604 12.946-.37z" inkscape:connector-curvature="0" style="fill:#b3b3b3" transform="matrix(.13054 0 0 .13054 195.674 80.425)"/><path d="M-1200.1-597.18c4.874 1.068 8.76.811 13.197.007-.733-2.592-.778-5.702-4.55-6.487 4.492-3.962 10.936-3.9 17.346-5.042l29.776-.74c2.463 1.287 4.802 2.627 3.883 5.363-3.662 1.903-3.974 4.923-4.808 7.768 5.448 1.675 11.472 1.255 16.46 0-.18-2.683-2.383-5.597-5.51-7.789.266-7.848-4.142-8.747-7.621-11.446l-25.707.555c-2.836-.11-5.672.054-8.508.925-6.967 2.096-11.887 3.51-15.905 4.623-1.801.545-3.584 3.315-3.883 5.549-4.292 2.053-3.613 4.194-4.17 6.714z" inkscape:connector-curvature="0" style="fill:#333" transform="matrix(.13054 0 0 .13054 195.674 80.425)"/><path d="M-1189.2-598.53c-3.065.672-5.57.686-8.703.063.186-2.443 1.623-3.387 3.12-4.547.414-2.954 2.9-4.727 5.196-5.318-1.975 1.63-2.446 2.78-3.228 5.426 1.932.792 3.61 2.629 3.615 4.376z" inkscape:connector-curvature="0" style="fill:#fff" transform="matrix(.13054 0 0 .13054 195.674 80.425)"/><path d="M-1186.1-608.59c4.518-.706 7.915-1.162 11.885-2.593 2.126.865 3.982.822 6.607-.247 7.685.684 14.332.567 22.003-.608-7.564-.75-14.398-.736-22.008.185-2.553-1.17-4.068-.565-6.843 0-4.113.685-7.235 1.71-11.644 3.263z" inkscape:connector-curvature="0" style="fill:#fff" transform="matrix(.13054 0 0 .13054 195.674 80.425)"/><path d="M-1132.7-597.96c-2.93.85-4.94.732-7.871 0 .402-2.342 1.144-4.114 2.553-6.047.662-3.133-1.965-5.668-4.435-7.756-.77-.694-.508-2.383.999-1.517 2.965 2.922 5.382 4.345 5.222 9.234 2.13 1.576 3.5 3.579 3.532 6.086z" inkscape:connector-curvature="0" style="fill:#fff" transform="matrix(.13054 0 0 .13054 195.674 80.425)"/><path d="M-1142.5-603.87c-3.735-.057-6.614-.572-9.944-1.881 3.468.19 6.437.479 9.944 1.881z" inkscape:connector-curvature="0" style="fill:gray" transform="matrix(.13054 0 0 .13054 195.674 80.425)"/><path d="M-725.61-502.57c3.741-11.604 6.369-21.918 4.407-30.874 4.84 2.777 2.983 15.502-.712 31.785z" inkscape:connector-curvature="0" style="fill:#e6e6e6" transform="matrix(.13054 0 0 .13054 195.674 80.425)"/><path d="M-710.41-496.51c3.741-11.165 6.417-19.83 4.407-29.512 4.455 2.288 3.175 14.452-.808 30.499z" inkscape:connector-curvature="0" style="fill:#e6e6e6" transform="matrix(.13054 0 0 .13054 195.674 80.425)"/><path d="M-697.63-489.4c4.765-11.165 8.395-20.983 7.43-29.704 4.284 2.672 1.78 14.693-3.582 30.451z" inkscape:connector-curvature="0" style="fill:#e6e6e6" transform="matrix(.13054 0 0 .13054 195.674 80.425)"/><metadata><rdf:RDF><cc:Work><dc:format>image/svg+xml</dc:format><dc:type rdf:resource="http://purl.org/dc/dcmitype/StillImage"/><cc:license rdf:resource="http://creativecommons.org/licenses/publicdomain/"/><dc:publisher><cc:Agent rdf:about="http://openclipart.org/"><dc:title>Openclipart</dc:title></cc:Agent></dc:publisher><dc:title>Accordion</dc:title><dc:date>2013-08-16T00:19:16</dc:date><dc:description>Uploading it again.</dc:description><dc:source>http://openclipart.org/detail/181858/accordion-by-gustavorezende-181858</dc:source><dc:creator><cc:Agent><dc:title>gustavorezende</dc:title></cc:Agent></dc:creator><dc:subject><rdf:Bag><rdf:li>accordion</rdf:li><rdf:li>concertina</rdf:li><rdf:li>instrument</rdf:li><rdf:li>keyboard</rdf:li><rdf:li>music</rdf:li><rdf:li>musical</rdf:li><rdf:li>musician</rdf:li><rdf:li>notes</rdf:li><rdf:li>sound</rdf:li></rdf:Bag></dc:subject></cc:Work><cc:License rdf:about="http://creativecommons.org/licenses/publicdomain/"><cc:permits rdf:resource="http://creativecommons.org/ns#Reproduction"/><cc:permits rdf:resource="http://creativecommons.org/ns#Distribution"/><cc:permits rdf:resource="http://creativecommons.org/ns#DerivativeWorks"/></cc:License></rdf:RDF></metadata></svg>