<!--Created with Inkscape (http://www.inkscape.org/)--><svg xmlns:dc="http://purl.org/dc/elements/1.1/" xmlns:cc="http://creativecommons.org/ns#" xmlns:rdf="http://www.w3.org/1999/02/22-rdf-syntax-ns#" xmlns="http://www.w3.org/2000/svg" xmlns:xlink="http://www.w3.org/1999/xlink" xmlns:sodipodi="http://sodipodi.sourceforge.net/DTD/sodipodi-0.dtd" xmlns:inkscape="http://www.inkscape.org/namespaces/inkscape" inkscape:version="0.91 r13725" width="117.18024" height="120" sodipodi:docname="banjo.svg"><metadata><rdf:RDF><cc:Work><dc:format>image/svg+xml</dc:format><dc:type rdf:resource="http://purl.org/dc/dcmitype/StillImage"/><dc:title/></cc:Work></rdf:RDF></metadata><defs><radialGradient inkscape:collect="always" xlink:href="#g" id="w" gradientUnits="userSpaceOnUse" cx="325.19559" cy="183.67528" fx="325.19559" fy="183.67528" r="3.5129151"/><radialGradient inkscape:collect="always" xlink:href="#c" id="I" cx="43.495052" cy="218.20221" fx="43.495052" fy="218.20221" r="44.477337" gradientTransform="matrix(2.01175 -2.0615 .3895 .3801 -134.105 234.005)" gradientUnits="userSpaceOnUse"/><radialGradient inkscape:collect="always" xlink:href="#b" id="l" gradientUnits="userSpaceOnUse" gradientTransform="matrix(.33386 .06992 -.07244 .34586 97.119 148.023)" cx="192.08815" cy="496.11298" fx="192.08815" fy="496.11298" r="94.34687"/><radialGradient inkscape:collect="always" xlink:href="#f" id="o" gradientUnits="userSpaceOnUse" gradientTransform="matrix(.95323 0 0 .17306 15.065 238.468)" cx="322.13025" cy="279.62643" fx="322.13025" fy="279.62643" r="128.29462"/><radialGradient inkscape:collect="always" xlink:href="#g" id="r" cx="325.19559" cy="183.67528" fx="325.19559" fy="183.67528" r="3.5129151" gradientUnits="userSpaceOnUse"/><radialGradient inkscape:collect="always" xlink:href="#g" id="s" gradientUnits="userSpaceOnUse" cx="325.19559" cy="183.67528" fx="325.19559" fy="183.67528" r="3.5129151"/><radialGradient inkscape:collect="always" xlink:href="#g" id="t" gradientUnits="userSpaceOnUse" cx="325.19559" cy="183.67528" fx="325.19559" fy="183.67528" r="3.5129151"/><radialGradient inkscape:collect="always" xlink:href="#g" id="u" gradientUnits="userSpaceOnUse" cx="325.19559" cy="183.67528" fx="325.19559" fy="183.67528" r="3.5129151"/><radialGradient inkscape:collect="always" xlink:href="#g" id="v" gradientUnits="userSpaceOnUse" cx="325.19559" cy="183.67528" fx="325.19559" fy="183.67528" r="3.5129151"/><radialGradient inkscape:collect="always" xlink:href="#a" id="m" gradientUnits="userSpaceOnUse" gradientTransform="matrix(.81827 .57483 -.58768 .83656 211.796 -62.628)" cx="112.05726" cy="340.77005" fx="112.05726" fy="340.77005" r="94.34687"/><radialGradient inkscape:collect="always" xlink:href="#g" id="x" gradientUnits="userSpaceOnUse" cx="325.19559" cy="183.67528" fx="325.19559" fy="183.67528" r="3.5129151"/><radialGradient inkscape:collect="always" xlink:href="#g" id="y" gradientUnits="userSpaceOnUse" cx="325.19559" cy="183.67528" fx="325.19559" fy="183.67528" r="3.5129151"/><radialGradient inkscape:collect="always" xlink:href="#g" id="z" gradientUnits="userSpaceOnUse" cx="325.19559" cy="183.67528" fx="325.19559" fy="183.67528" r="3.5129151"/><radialGradient inkscape:collect="always" xlink:href="#g" id="A" gradientUnits="userSpaceOnUse" cx="325.19559" cy="183.67528" fx="325.19559" fy="183.67528" r="3.5129151"/><radialGradient inkscape:collect="always" xlink:href="#g" id="B" gradientUnits="userSpaceOnUse" cx="325.19559" cy="183.67528" fx="325.19559" fy="183.67528" r="3.5129151"/><radialGradient inkscape:collect="always" xlink:href="#g" id="C" gradientUnits="userSpaceOnUse" cx="325.19559" cy="183.67528" fx="325.19559" fy="183.67528" r="3.5129151"/><radialGradient inkscape:collect="always" xlink:href="#g" id="D" gradientUnits="userSpaceOnUse" cx="325.19559" cy="183.67528" fx="325.19559" fy="183.67528" r="3.5129151"/><radialGradient inkscape:collect="always" xlink:href="#g" id="E" gradientUnits="userSpaceOnUse" cx="325.19559" cy="183.67528" fx="325.19559" fy="183.67528" r="3.5129151"/><linearGradient inkscape:collect="always" id="f"><stop offset="0" style="stop-color:#241c1c;stop-opacity:1"/><stop offset="1" style="stop-color:#483737;stop-opacity:1"/></linearGradient><linearGradient id="d"><stop style="stop-color:#000;stop-opacity:1" offset="0"/><stop style="stop-color:#4d4d4d;stop-opacity:1" offset="1"/></linearGradient><linearGradient id="b"><stop style="stop-color:#fff;stop-opacity:1" offset="0"/><stop style="stop-color:#e6e6e6;stop-opacity:1" offset="1"/></linearGradient><linearGradient id="a"><stop offset="0" style="stop-color:#000;stop-opacity:0"/><stop style="stop-color:#000;stop-opacity:0" offset="0.8709715"/><stop offset="1" style="stop-color:#000;stop-opacity:.52261305"/></linearGradient><linearGradient id="c"><stop style="stop-color:#999;stop-opacity:1" offset="0"/><stop offset="0.5" style="stop-color:#fffff7;stop-opacity:1"/><stop style="stop-color:#999;stop-opacity:1" offset="1"/></linearGradient><linearGradient id="i"><stop style="stop-color:#fff;stop-opacity:1" offset="0"/><stop offset="0.5" style="stop-color:gray;stop-opacity:1"/><stop style="stop-color:#fff;stop-opacity:1" offset="1"/></linearGradient><linearGradient inkscape:collect="always" id="g"><stop offset="0" style="stop-color:#fff;stop-opacity:1"/><stop offset="1" style="stop-color:gray;stop-opacity:1"/></linearGradient><linearGradient inkscape:collect="always" xlink:href="#c" id="k" gradientUnits="userSpaceOnUse" gradientTransform="rotate(35.088 192.825 299.822)" spreadMethod="reflect" x1="11.747787" y1="265.54785" x2="44.257771" y2="295.02887"/><linearGradient inkscape:collect="always" xlink:href="#d" id="j" gradientUnits="userSpaceOnUse" gradientTransform="rotate(35.088 192.825 299.822)" x1="125.5425" y1="317.92688" x2="53.885632" y2="175.90474"/><linearGradient inkscape:collect="always" xlink:href="#e" id="n" x1="29.195543" y1="286.86652" x2="41.260715" y2="286.86652" gradientUnits="userSpaceOnUse"/><linearGradient inkscape:collect="always" xlink:href="#c" id="p" gradientUnits="userSpaceOnUse" gradientTransform="rotate(32.616 -264.44 -330.396)" x1="287.39496" y1="9.1374416" x2="311.84976" y2="33.36644"/><linearGradient inkscape:collect="always" id="e"><stop style="stop-color:#666;stop-opacity:1" offset="0"/><stop style="stop-color:gray;stop-opacity:1" offset="1"/></linearGradient><linearGradient inkscape:collect="always" xlink:href="#e" id="G" gradientUnits="userSpaceOnUse" x1="29.195543" y1="286.86652" x2="41.260715" y2="286.86652" gradientTransform="matrix(.23484 0 0 1.7041 58.538 -201.983)"/><linearGradient id="h"><stop offset="0" style="stop-color:#4d4d4d;stop-opacity:1"/><stop offset="0.5" style="stop-color:gray;stop-opacity:1"/><stop style="stop-color:#4d4d4d;stop-opacity:1" offset="1"/></linearGradient><linearGradient inkscape:collect="always" xlink:href="#h" id="F" x1="105.88362" y1="292.63776" x2="105.88362" y2="285.63776" gradientUnits="userSpaceOnUse"/><linearGradient inkscape:collect="always" xlink:href="#i" id="H" x1="201.09375" y1="298.82812" x2="201.78125" y2="270.82812" gradientUnits="userSpaceOnUse"/><linearGradient inkscape:collect="always" xlink:href="#c" id="q" x1="496.75024" y1="239.56723" x2="505.04413" y2="281.56723" gradientUnits="userSpaceOnUse"/></defs><sodipodi:namedview pagecolor="#ffffff" bordercolor="#666666" borderopacity="1" objecttolerance="10" gridtolerance="10" guidetolerance="10" inkscape:pageopacity="0" inkscape:pageshadow="2" inkscape:window-width="1366" inkscape:window-height="713" showgrid="false" inkscape:zoom="3.0356733" inkscape:cx="62.895864" inkscape:cy="36.974719" inkscape:window-x="-2" inkscape:window-y="-3" inkscape:window-maximized="1" inkscape:current-layer="svg2" fit-margin-top="0" fit-margin-left="0" fit-margin-right="0" fit-margin-bottom="0" borderlayer="true"/><g transform="matrix(.19427 -.20423 .21278 .18647 -47.506 54.646)"><path style="fill:#483737;fill-opacity:1;stroke:none" d="M508.057 285.463c.215 2.477 2.208 7.126 2.208 7.126s-3.757 4.542-4.681 7.272c-.818 2.416-.619 7.627-.619 7.627s-21.08-7.382-31.326-4.807c-3.21.807-7.936 5.968-7.936 5.968s-6.066-6.67-9.807-9.097c-3.54-2.297-11.646-4.968-11.646-4.968l.29-17.743s9.415-.71 13.485-2.839c3.053-1.598 7.517-7.097 7.517-7.097s5.314 1.923 8.097 2.13c10.338.765 30.914-3.388 30.914-3.388s-.722 4.231-.118 6.213c.769 2.52 4.535 6.477 4.535 6.477s-1.12 4.74-.913 7.126z" inkscape:connector-curvature="0" sodipodi:nodetypes="acacacaccacacaca"/><path style="fill:url(#j);fill-opacity:1;stroke:none" d="M192.28 352.23c-36.91 52.542-108.493 65.867-159.886 29.764C-19 345.89-30.74 274.03 6.17 221.489c36.91-52.541 108.493-65.867 159.886-29.764C217.45 227.83 229.19 299.69 192.28 352.23z" inkscape:connector-curvature="0"/><path inkscape:connector-curvature="0" d="M164.99 193.183C114.39 157.636 43.965 170.79 7.62 222.523c-36.342 51.733-24.832 122.446 25.77 157.993 50.602 35.548 121.08 22.43 157.421-29.303 36.342-51.733 24.782-122.482-25.82-158.03zm3.114 7.42-5.225 3.089-6.572-4.617.412-5.86 11.385 7.388zm19.207 20.825 7.775 11.114-5.995.868-4.361-6.73 2.581-5.252zm-59.778-41.192-3.536 4.925-7.878-1.562-1.99-5.485 13.404 2.122zm77.316 77.114 3.242 13.162-5.906-1.323-1.646-7.878 4.31-3.96zM84.123 177.772l-1.324 5.906-7.877 1.646-3.961-4.31 13.162-3.242zm123.626 122.746-2.103 13.378-4.943-3.51 1.536-7.895 5.51-1.973zM46.032 190.731l.886 5.97-6.748 4.386-5.251-2.581 11.113-7.775zm-31.384 27.333 2.367 5.33-4.617 6.571-5.955-1.09 8.205-10.81zM192.622 343.09l-7.387 11.386-3.045-5.233 4.616-6.572 5.816.42zm-27.957 31.154L153 381.172l-.195-5.865 6.755-4.344 5.105 3.28zM-5.662 258.447l4.36 3.903-1.561 7.878-5.904 1.39 3.105-13.171zm130.711 128.372 3.591 4.89-13.398 2.275 1.93-5.52 7.877-1.645zM-2.6 303.561l1.663 7.852-4.916 3.573-2.266-13.355 5.518 1.93zm86.465 85.184 1.409 5.877-13.216-3.097 3.93-4.343 7.877 1.563zm-73.354-49.43 4.344 6.755-3.28 5.104-6.93-11.665 5.866-.195zm26.538 29.526 6.571 4.616-1.134 5.963-10.81-8.205 5.373-2.374z" style="fill:url(#k);fill-opacity:1;stroke:none"/><path style="fill:#000;fill-opacity:1;stroke:none" d="M155.838 206.23c-43.71-30.705-104.048-19.445-135.446 25.25-31.397 44.694-21.528 105.275 22.182 135.98 43.71 30.707 104.093 19.466 135.485-25.22 31.392-44.687 21.488-105.303-22.221-136.01z" inkscape:connector-curvature="0"/><path style="fill:url(#l);fill-opacity:1;stroke:none" d="M176.427 341.093c-30.622 43.59-90.01 54.645-132.647 24.693-42.637-29.952-52.378-89.57-21.756-133.16s90.01-54.645 132.647-24.693c42.637 29.953 52.378 89.57 21.756 133.16z" inkscape:connector-curvature="0"/><path inkscape:connector-curvature="0" d="M176.427 341.093c-30.622 43.59-90.01 54.645-132.647 24.693-42.637-29.952-52.378-89.57-21.756-133.16s90.01-54.645 132.647-24.693c42.637 29.953 52.378 89.57 21.756 133.16z" style="fill:url(#m);fill-opacity:1;stroke:none"/><rect ry="3.4640238" y="272.66403" x="24.227531" height="28.405001" width="17.033186" style="fill:url(#n);fill-opacity:1;stroke:none"/><path inkscape:connector-curvature="0" d="m194.138 272.657-.302 28.405 256.589-6.202-.34-18.091z" style="fill:url(#o);stroke:none"/><path sodipodi:nodetypes="csscc" inkscape:connector-curvature="0" d="M29.71 272.731s-30.877.634-31.837 2.268c-1.048 1.784-.125 24.187 1.168 25.175 1.182.903 31.054.811 31.054.811z" style="fill:url(#p);fill-opacity:1;stroke:none"/><path sodipodi:nodetypes="acacacaccacacaca" inkscape:connector-curvature="0" d="M512.125 285.358c.235 2.714 2.42 7.806 2.42 7.806s-4.117 4.977-5.13 7.968c-.896 2.647-.678 8.356-.678 8.356s-20.522-7.679-31.098-6.807c-3.554.293-9.936 3.968-9.936 3.968s-4.847-5.198-7.807-7.097c-3.552-2.28-11.646-4.968-11.646-4.968l.29-17.743s9.415-.71 13.485-2.839c3.053-1.598 7.517-7.097 7.517-7.097s5.308 2.013 8.097 2.13c10.363.43 30.647-5.388 30.647-5.388s-.791 4.636-.13 6.806c.843 2.763 4.969 7.098 4.969 7.098s-1.227 5.193-1 7.807z" style="fill:url(#q);fill-opacity:1;stroke:none"/><path inkscape:connector-curvature="0" d="m506.906 265.188-.437.125c-1.437.399-4.148 1.196-9.375 2.343-6.408 1.407-14.099 2.757-19.531 2.531-1.649-.068-3.658-.626-5.375-1.156a39.53 39.53 0 0 1-2.094-.687l-.188-.063-.125.156c-.399.48-.857 1.015-2 2.22-1.53 1.613-3.371 3.424-5.187 4.374-2.32 1.214-5.736 1.89-8.656 2.344-2.2.341-3.19.397-4 .469l-.282.031v1.157l.25.062c4.025 1.047 7.409 2.577 9.813 4.031 1.202.727 2.164 1.451 2.812 2.062.649.612.95 1.15.969 1.375.016.19-.213.675-.781 1.25-.569.576-1.422 1.242-2.531 1.938-2.22 1.391-5.427 2.89-9.22 3.969l-.906.25.907.312c2.337.812 6.725 2.46 9.562 4.281 2.835 1.82 6.18 5.383 7.219 6.5l.156.157.219-.125c.586-.326 1.16-.629 2.688-1.344 2.094-.981 4.59-2.043 6.718-2.219 5.634-.464 13.425 1.267 19.938 3.094 5.416 1.52 8.348 2.658 9.719 3.156l.406.156v-.437c-.003-.535-.02-.569 0-1.25.053-1.812.175-3.894.719-5.5.6-1.774 1.911-3.75 3.093-5.406.904-1.267 1.343-1.823 1.688-2.25l.125-.125-.063-.188c-.197-.477-.418-.926-.843-2.125-.587-1.655-1.205-3.61-1.344-5.219-.136-1.56.12-3.494.406-5.156.214-1.246.335-1.798.438-2.25l.03-.156-.093-.125c-.345-.372-.786-.836-1.688-1.969-1.177-1.479-2.5-3.229-3.03-4.969-.442-1.446-.339-3.16-.22-4.656.023-.284.034-.256.063-.531l.031-.438zm-.719.812c-.004.036.004.041 0 .094-.12 1.508-.204 3.314.282 4.906.577 1.892 1.908 3.668 3.094 5.156.859 1.08 1.32 1.545 1.656 1.906-.099.44-.206.928-.406 2.094-.288 1.673-.614 3.67-.47 5.344.15 1.721.817 3.679 1.407 5.344.4 1.126.599 1.595.781 2.031-.333.41-.776.904-1.625 2.094-1.192 1.67-2.515 3.701-3.156 5.593-.584 1.725-.727 3.86-.781 5.688-.014.467-.005.62 0 .844-1.425-.523-4.101-1.57-9.313-3.032-6.536-1.833-14.387-3.634-20.187-3.156-2.285.189-4.799 1.294-6.906 2.281-1.412.662-1.983.978-2.532 1.282-1.132-1.215-4.314-4.562-7.187-6.407-2.698-1.73-6.49-3.191-8.938-4.062 3.488-1.067 6.481-2.395 8.594-3.719 1.138-.713 2.039-1.437 2.656-2.062.618-.626 1.015-1.162.969-1.719-.046-.558-.495-1.097-1.188-1.75-.692-.653-1.676-1.382-2.906-2.125-2.403-1.454-5.787-2.94-9.75-4v-.188c.782-.07 1.663-.18 3.719-.5 2.935-.455 6.389-1.059 8.844-2.343 1.943-1.017 3.833-2.875 5.375-4.5 1.076-1.135 1.495-1.667 1.875-2.125.47.168.845.297 1.906.625 1.727.532 3.797 1.145 5.563 1.218 5.556.232 13.23-1.183 19.656-2.593 4.98-1.093 7.484-1.804 8.969-2.219z" style="font-size:medium;font-style:normal;font-variant:normal;font-weight:400;font-stretch:normal;text-indent:0;text-align:start;text-decoration:none;line-height:normal;letter-spacing:normal;word-spacing:normal;text-transform:none;direction:ltr;block-progression:tb;writing-mode:lr-tb;text-anchor:start;baseline-shift:baseline;color:#000;fill:#f4e3d7;fill-opacity:1;stroke:none;stroke-width:.60000002;marker:none;visibility:visible;display:inline;overflow:visible;enable-background:accumulate;font-family:Sans;-inkscape-font-specification:Sans"/><path inkscape:connector-curvature="0" d="M448.17 279.665v13.945c7.891-1.836 13.458-5.573 13.336-6.986-.122-1.417-5.542-5.121-13.337-6.959z" style="fill:#463535;fill-opacity:1;stroke:none"/><rect ry="0.37638375" y="237.87454" x="410.2583" height="1.2546126" width="0.7527675" style="fill:none;stroke:#fff;stroke-width:.60000002;stroke-linecap:round;stroke-linejoin:round;stroke-miterlimit:4;stroke-opacity:1;stroke-dasharray:none"/><path transform="translate(-1)" d="M448.906 280.656v11.938c3.452-.895 6.466-2.09 8.563-3.281 1.146-.652 2.028-1.292 2.594-1.813.282-.26.488-.494.593-.656.105-.163.087-.24.094-.156.008.094-.19-.412-.781-.938s-1.487-1.133-2.625-1.781c-2.076-1.182-5.047-2.42-8.438-3.313z" style="fill:#f4e3d7;fill-opacity:1;stroke:none" inkscape:original="M 448.15625 279.65625 L 448.15625 293.625 C 456.04794 291.78906 461.62205 288.03874 461.5 286.625 C 461.37773 285.20869 455.951 281.49365 448.15625 279.65625 z" inkscape:radius="-0.75421518" sodipodi:type="inkscape:offset"/><path transform="matrix(1.61003 -.45036 .48646 1.49056 -340.12 295.977)" inkscape:transform-center-y="-1.1835172" inkscape:transform-center-x="-0.95063824" d="M480.775 138.551c-.244.626-6.094.265-6.638.66-.516.372-1.85 5.864-2.485 5.826-.67-.04-2.099-5.725-2.634-6.126-.506-.38-6.217.102-6.384-.508-.176-.645 4.778-3.89 4.99-4.525.202-.6-1.908-5.826-1.371-6.166.566-.36 5.036 3.42 5.706 3.419.635 0 4.986-3.693 5.478-3.294.52.42-1.676 5.85-1.477 6.492.188.608 5.047 3.63 4.815 4.222z" inkscape:randomized="0.006" inkscape:rounded="0.1" inkscape:flatsided="false" sodipodi:arg2="0.9971222" sodipodi:arg1="0.32175055" sodipodi:r2="4.3570375" sodipodi:r1="9.5218401" sodipodi:cy="135.49815" sodipodi:cx="471.73431" sodipodi:sides="5" style="opacity:.09698995;fill:#000;fill-opacity:1;stroke:none" sodipodi:type="star"/><g style="opacity:.13377925"><path inkscape:connector-curvature="0" style="fill:#000;stroke:none" d="M715.031-757.344c-1.41 1.984-12.144 16.75-11.562 35.594.689 22.34 10.675 57.937 9.5 80.031-.053.991.118.908.937.938.484.018 1.195.022 2.188 0 .866-.02 1.053.053 1-.938-1.175-22.094 8.81-57.69 9.5-80.031.581-18.844-10.152-33.61-11.563-35.594z" transform="matrix(.05969 -.0742 .07928 .05586 509.638 386.907)"/><path inkscape:connector-curvature="0" style="fill:#000;stroke:none" d="M679.938-676.469c-.662.018-1.32.059-2 .094 8.046 1.245 14.683 11.197 10.718 25.687-3.444 12.59-12.218 20.685-13.937 34.844-1.774 14.604 12.361 25.487 16.062 24.625-3.43-2.174-7.46-13.208 6.094-18.906-1.405-13.321 3.548-21.784 12.125-27.5 2.778-27.479-7.82-38.504-27.094-38.844a44.864 44.864 0 0 0-1.968 0z" transform="matrix(.05969 -.0742 .07928 .05586 509.638 386.907)"/><path inkscape:connector-curvature="0" style="fill:#000;stroke:none" d="M748.219-676.469c-19.312.319-29.937 11.336-27.157 38.844 8.577 5.716 13.53 14.179 12.125 27.5 13.554 5.698 9.524 16.732 6.094 18.906 3.701.862 17.836-10.02 16.063-24.625-1.72-14.16-10.493-22.254-13.938-34.843-3.964-14.49 2.672-24.443 10.719-25.688-.68-.035-1.338-.082-2-.094a54.81 54.81 0 0 0-1.906 0z" transform="matrix(.05969 -.0742 .07928 .05586 509.638 386.907)"/><path inkscape:connector-curvature="0" style="fill:#000;stroke:none" d="M715.031-636.563c-13.172 7.75-12.382 16.219-12.625 25.532 1.886 1.487 5.328 2.037 6.594 2.843.042-3.484 1.516-9.57 6.031-11.5 4.515 1.93 5.99 8.016 6.032 11.5 1.266-.806 4.708-1.356 6.593-2.843-.242-9.313.548-17.782-12.625-25.532z" transform="matrix(.05969 -.0742 .07928 .05586 509.638 386.907)"/></g><g style="opacity:.13377925"><path d="M715.031-757.344c-1.41 1.984-12.144 16.75-11.562 35.594.689 22.34 10.675 57.937 9.5 80.031-.053.991.118.908.937.938.484.018 1.195.022 2.188 0 .866-.02 1.053.053 1-.938-1.175-22.094 8.81-57.69 9.5-80.031.581-18.844-10.152-33.61-11.563-35.594z" style="fill:#000;stroke:none" inkscape:connector-curvature="0" transform="matrix(.05969 .0742 .07928 -.05586 509.638 185.657)"/><path d="M679.938-676.469c-.662.018-1.32.059-2 .094 8.046 1.245 14.683 11.197 10.718 25.687-3.444 12.59-12.218 20.685-13.937 34.844-1.774 14.604 12.361 25.487 16.062 24.625-3.43-2.174-7.46-13.208 6.094-18.906-1.405-13.321 3.548-21.784 12.125-27.5 2.778-27.479-7.82-38.504-27.094-38.844a44.864 44.864 0 0 0-1.968 0z" style="fill:#000;stroke:none" inkscape:connector-curvature="0" transform="matrix(.05969 .0742 .07928 -.05586 509.638 185.657)"/><path d="M748.219-676.469c-19.312.319-29.937 11.336-27.157 38.844 8.577 5.716 13.53 14.179 12.125 27.5 13.554 5.698 9.524 16.732 6.094 18.906 3.701.862 17.836-10.02 16.063-24.625-1.72-14.16-10.493-22.254-13.938-34.843-3.964-14.49 2.672-24.443 10.719-25.688-.68-.035-1.338-.082-2-.094a54.81 54.81 0 0 0-1.906 0z" style="fill:#000;stroke:none" inkscape:connector-curvature="0" transform="matrix(.05969 .0742 .07928 -.05586 509.638 185.657)"/><path d="M715.031-636.563c-13.172 7.75-12.382 16.219-12.625 25.532 1.886 1.487 5.328 2.037 6.594 2.843.042-3.484 1.516-9.57 6.031-11.5 4.515 1.93 5.99 8.016 6.032 11.5 1.266-.806 4.708-1.356 6.593-2.843-.242-9.313.548-17.782-12.625-25.532z" style="fill:#000;stroke:none" inkscape:connector-curvature="0" transform="matrix(.05969 .0742 .07928 -.05586 509.638 185.657)"/></g><g style="opacity:.13377925"><path inkscape:connector-curvature="0" style="fill:#000;stroke:none" d="M715.031-757.344c-1.41 1.984-12.144 16.75-11.562 35.594.689 22.34 10.675 57.937 9.5 80.031-.053.991.118.908.937.938.484.018 1.195.022 2.188 0 .866-.02 1.053.053 1-.938-1.175-22.094 8.81-57.69 9.5-80.031.581-18.844-10.152-33.61-11.563-35.594z" transform="matrix(-.05046 .06272 -.06701 -.04722 459.088 204.636)"/><path inkscape:connector-curvature="0" style="fill:#000;stroke:none" d="M679.938-676.469c-.662.018-1.32.059-2 .094 8.046 1.245 14.683 11.197 10.718 25.687-3.444 12.59-12.218 20.685-13.937 34.844-1.774 14.604 12.361 25.487 16.062 24.625-3.43-2.174-7.46-13.208 6.094-18.906-1.405-13.321 3.548-21.784 12.125-27.5 2.778-27.479-7.82-38.504-27.094-38.844a44.864 44.864 0 0 0-1.968 0z" transform="matrix(-.05046 .06272 -.06701 -.04722 459.088 204.636)"/><path inkscape:connector-curvature="0" style="fill:#000;stroke:none" d="M748.219-676.469c-19.312.319-29.937 11.336-27.157 38.844 8.577 5.716 13.53 14.179 12.125 27.5 13.554 5.698 9.524 16.732 6.094 18.906 3.701.862 17.836-10.02 16.063-24.625-1.72-14.16-10.493-22.254-13.938-34.843-3.964-14.49 2.672-24.443 10.719-25.688-.68-.035-1.338-.082-2-.094a54.81 54.81 0 0 0-1.906 0z" transform="matrix(-.05046 .06272 -.06701 -.04722 459.088 204.636)"/><path inkscape:connector-curvature="0" style="fill:#000;stroke:none" d="M715.031-636.563c-13.172 7.75-12.382 16.219-12.625 25.532 1.886 1.487 5.328 2.037 6.594 2.843.042-3.484 1.516-9.57 6.031-11.5 4.515 1.93 5.99 8.016 6.032 11.5 1.266-.806 4.708-1.356 6.593-2.843-.242-9.313.548-17.782-12.625-25.532z" transform="matrix(-.05046 .06272 -.06701 -.04722 459.088 204.636)"/></g><g style="opacity:.13377925"><path d="M715.031-757.344c-1.41 1.984-12.144 16.75-11.562 35.594.689 22.34 10.675 57.937 9.5 80.031-.053.991.118.908.937.938.484.018 1.195.022 2.188 0 .866-.02 1.053.053 1-.938-1.175-22.094 8.81-57.69 9.5-80.031.581-18.844-10.152-33.61-11.563-35.594z" style="fill:#000;stroke:none" inkscape:connector-curvature="0" transform="matrix(-.05046 -.06272 -.06701 .04722 459.088 368.154)"/><path d="M679.938-676.469c-.662.018-1.32.059-2 .094 8.046 1.245 14.683 11.197 10.718 25.687-3.444 12.59-12.218 20.685-13.937 34.844-1.774 14.604 12.361 25.487 16.062 24.625-3.43-2.174-7.46-13.208 6.094-18.906-1.405-13.321 3.548-21.784 12.125-27.5 2.778-27.479-7.82-38.504-27.094-38.844a44.864 44.864 0 0 0-1.968 0z" style="fill:#000;stroke:none" inkscape:connector-curvature="0" transform="matrix(-.05046 -.06272 -.06701 .04722 459.088 368.154)"/><path d="M748.219-676.469c-19.312.319-29.937 11.336-27.157 38.844 8.577 5.716 13.53 14.179 12.125 27.5 13.554 5.698 9.524 16.732 6.094 18.906 3.701.862 17.836-10.02 16.063-24.625-1.72-14.16-10.493-22.254-13.938-34.843-3.964-14.49 2.672-24.443 10.719-25.688-.68-.035-1.338-.082-2-.094a54.81 54.81 0 0 0-1.906 0z" style="fill:#000;stroke:none" inkscape:connector-curvature="0" transform="matrix(-.05046 -.06272 -.06701 .04722 459.088 368.154)"/><path d="M715.031-636.563c-13.172 7.75-12.382 16.219-12.625 25.532 1.886 1.487 5.328 2.037 6.594 2.843.042-3.484 1.516-9.57 6.031-11.5 4.515 1.93 5.99 8.016 6.032 11.5 1.266-.806 4.708-1.356 6.593-2.843-.242-9.313.548-17.782-12.625-25.532z" style="fill:#000;stroke:none" inkscape:connector-curvature="0" transform="matrix(-.05046 -.06272 -.06701 .04722 459.088 368.154)"/></g><path inkscape:transform-center-y="2" inkscape:transform-center-x="2" transform="matrix(.56933 0 0 .56933 9.024 142.262)" d="M328.709 183.675a3.513 3.513 0 0 1-3.513 3.513 3.513 3.513 0 0 1-3.513-3.513 3.513 3.513 0 0 1 3.513-3.513 3.513 3.513 0 0 1 3.513 3.513z" sodipodi:ry="3.5129151" sodipodi:rx="3.5129151" sodipodi:cy="183.67528" sodipodi:cx="325.19559" style="fill:url(#r);fill-opacity:1;stroke:none" sodipodi:type="arc"/><path sodipodi:type="arc" style="fill:url(#s);fill-opacity:1;stroke:none" sodipodi:cx="325.19559" sodipodi:cy="183.67528" sodipodi:rx="3.5129151" sodipodi:ry="3.5129151" d="M328.709 183.675a3.513 3.513 0 0 1-3.513 3.513 3.513 3.513 0 0 1-3.513-3.513 3.513 3.513 0 0 1 3.513-3.513 3.513 3.513 0 0 1 3.513 3.513z" transform="matrix(.56933 0 0 .56933 -11.976 110.263)" inkscape:transform-center-x="2" inkscape:transform-center-y="2"/><path inkscape:transform-center-y="2" inkscape:transform-center-x="2" transform="matrix(.56933 0 0 .56933 -44.976 87.263)" d="M328.709 183.675a3.513 3.513 0 0 1-3.513 3.513 3.513 3.513 0 0 1-3.513-3.513 3.513 3.513 0 0 1 3.513-3.513 3.513 3.513 0 0 1 3.513 3.513z" sodipodi:ry="3.5129151" sodipodi:rx="3.5129151" sodipodi:cy="183.67528" sodipodi:cx="325.19559" style="fill:url(#t);fill-opacity:1;stroke:none" sodipodi:type="arc"/><path sodipodi:type="arc" style="fill:url(#u);fill-opacity:1;stroke:none" sodipodi:cx="325.19559" sodipodi:cy="183.67528" sodipodi:rx="3.5129151" sodipodi:ry="3.5129151" d="M328.709 183.675a3.513 3.513 0 0 1-3.513 3.513 3.513 3.513 0 0 1-3.513-3.513 3.513 3.513 0 0 1 3.513-3.513 3.513 3.513 0 0 1 3.513 3.513z" transform="matrix(.56933 0 0 .56933 -84.976 80.263)" inkscape:transform-center-x="2" inkscape:transform-center-y="2"/><path inkscape:transform-center-y="2" inkscape:transform-center-x="2" transform="matrix(.56933 0 0 .56933 -122.976 88.263)" d="M328.709 183.675a3.513 3.513 0 0 1-3.513 3.513 3.513 3.513 0 0 1-3.513-3.513 3.513 3.513 0 0 1 3.513-3.513 3.513 3.513 0 0 1 3.513 3.513z" sodipodi:ry="3.5129151" sodipodi:rx="3.5129151" sodipodi:cy="183.67528" sodipodi:cx="325.19559" style="fill:url(#v);fill-opacity:1;stroke:none" sodipodi:type="arc"/><path sodipodi:type="arc" style="fill:url(#w);fill-opacity:1;stroke:none" sodipodi:cx="325.19559" sodipodi:cy="183.67528" sodipodi:rx="3.5129151" sodipodi:ry="3.5129151" d="M328.709 183.675a3.513 3.513 0 0 1-3.513 3.513 3.513 3.513 0 0 1-3.513-3.513 3.513 3.513 0 0 1 3.513-3.513 3.513 3.513 0 0 1 3.513 3.513z" transform="matrix(.56933 0 0 .56933 -153.976 108.263)" inkscape:transform-center-x="2" inkscape:transform-center-y="2"/><path inkscape:transform-center-y="2" inkscape:transform-center-x="2" transform="matrix(.56933 0 0 .56933 -178.976 143.262)" d="M328.709 183.675a3.513 3.513 0 0 1-3.513 3.513 3.513 3.513 0 0 1-3.513-3.513 3.513 3.513 0 0 1 3.513-3.513 3.513 3.513 0 0 1 3.513 3.513z" sodipodi:ry="3.5129151" sodipodi:rx="3.5129151" sodipodi:cy="183.67528" sodipodi:cx="325.19559" style="fill:url(#x);fill-opacity:1;stroke:none" sodipodi:type="arc"/><path sodipodi:type="arc" style="fill:url(#y);fill-opacity:1;stroke:none" sodipodi:cx="325.19559" sodipodi:cy="183.67528" sodipodi:rx="3.5129151" sodipodi:ry="3.5129151" d="M328.709 183.675a3.513 3.513 0 0 1-3.513 3.513 3.513 3.513 0 0 1-3.513-3.513 3.513 3.513 0 0 1 3.513-3.513 3.513 3.513 0 0 1 3.513 3.513z" transform="matrix(.56933 0 0 .56933 -180.976 219.262)" inkscape:transform-center-x="2" inkscape:transform-center-y="2"/><path inkscape:transform-center-y="2" inkscape:transform-center-x="2" transform="matrix(.56933 0 0 .56933 -159.976 254.262)" d="M328.709 183.675a3.513 3.513 0 0 1-3.513 3.513 3.513 3.513 0 0 1-3.513-3.513 3.513 3.513 0 0 1 3.513-3.513 3.513 3.513 0 0 1 3.513 3.513z" sodipodi:ry="3.5129151" sodipodi:rx="3.5129151" sodipodi:cy="183.67528" sodipodi:cx="325.19559" style="fill:url(#z);fill-opacity:1;stroke:none" sodipodi:type="arc"/><path sodipodi:type="arc" style="fill:url(#A);fill-opacity:1;stroke:none" sodipodi:cx="325.19559" sodipodi:cy="183.67528" sodipodi:rx="3.5129151" sodipodi:ry="3.5129151" d="M328.709 183.675a3.513 3.513 0 0 1-3.513 3.513 3.513 3.513 0 0 1-3.513-3.513 3.513 3.513 0 0 1 3.513-3.513 3.513 3.513 0 0 1 3.513 3.513z" transform="matrix(.56933 0 0 .56933 -123.976 278.262)" inkscape:transform-center-x="2" inkscape:transform-center-y="2"/><path inkscape:transform-center-y="2" inkscape:transform-center-x="2" transform="matrix(.56933 0 0 .56933 -83.976 284.262)" d="M328.709 183.675a3.513 3.513 0 0 1-3.513 3.513 3.513 3.513 0 0 1-3.513-3.513 3.513 3.513 0 0 1 3.513-3.513 3.513 3.513 0 0 1 3.513 3.513z" sodipodi:ry="3.5129151" sodipodi:rx="3.5129151" sodipodi:cy="183.67528" sodipodi:cx="325.19559" style="fill:url(#B);fill-opacity:1;stroke:none" sodipodi:type="arc"/><path sodipodi:type="arc" style="fill:url(#C);fill-opacity:1;stroke:none" sodipodi:cx="325.19559" sodipodi:cy="183.67528" sodipodi:rx="3.5129151" sodipodi:ry="3.5129151" d="M328.709 183.675a3.513 3.513 0 0 1-3.513 3.513 3.513 3.513 0 0 1-3.513-3.513 3.513 3.513 0 0 1 3.513-3.513 3.513 3.513 0 0 1 3.513 3.513z" transform="matrix(.56933 0 0 .56933 -44.976 275.262)" inkscape:transform-center-x="2" inkscape:transform-center-y="2"/><path inkscape:transform-center-y="2" inkscape:transform-center-x="2" transform="matrix(.56933 0 0 .56933 -14.976 254.262)" d="M328.709 183.675a3.513 3.513 0 0 1-3.513 3.513 3.513 3.513 0 0 1-3.513-3.513 3.513 3.513 0 0 1 3.513-3.513 3.513 3.513 0 0 1 3.513 3.513z" sodipodi:ry="3.5129151" sodipodi:rx="3.5129151" sodipodi:cy="183.67528" sodipodi:cx="325.19559" style="fill:url(#D);fill-opacity:1;stroke:none" sodipodi:type="arc"/><path sodipodi:type="arc" style="fill:url(#E);fill-opacity:1;stroke:none" sodipodi:cx="325.19559" sodipodi:cy="183.67528" sodipodi:rx="3.5129151" sodipodi:ry="3.5129151" d="M328.709 183.675a3.513 3.513 0 0 1-3.513 3.513 3.513 3.513 0 0 1-3.513-3.513 3.513 3.513 0 0 1 3.513-3.513 3.513 3.513 0 0 1 3.513 3.513z" transform="matrix(.56933 0 0 .56933 8.024 221.262)" inkscape:transform-center-x="2" inkscape:transform-center-y="2"/><rect y="286.63776" x="29.883623" height="4" width="164" style="fill:url(#F);fill-opacity:1;stroke:none"/><rect style="fill:url(#G);fill-opacity:1;stroke:none" width="4" height="48.404999" x="64.227531" y="262.66403" ry="5.9030476"/><path d="m202.156 272.781-1.062 28.094 1.312-.031 1.063-28.031-1.313-.032zm8.344.125.875 27.719 1.281-.031-.844-27.656-1.312-.032zm8.531.156-.5 27.407 1.281-.031.532-27.344-1.313-.031zm7.375.125-.437 27.094 1.312-.031.438-27.062h-1.313zm9.5.157-.562 26.719 1.312-.032.563-26.687h-1.313zm11.125.156-.469 26.281 1.344-.031.438-26.219-1.313-.03zm7.813.125.469 25.969 1.312-.031-.5-25.907-1.281-.03zm13.406.219-.875 25.437 1.281-.031.906-25.375-1.312-.031zm10.625.187V299l1.281-.031V274.03h-1.281zm9.844.156-.906 24.594 1.312-.031.875-24.562h-1.281zm12.219.188-.97 24.125 1.282-.031.969-24.063-1.281-.03zm17.062.281v23.406l1.313-.03v-23.344l-1.313-.032zm10.813.156-.438 23 1.313-.03.437-22.938-1.313-.031zm14.343.25v22.407l1.313-.031v-22.344l-1.313-.031zm17.031.282.438 21.687 1.281-.031-.437-21.656h-1.281zm16.75.25.438 21.031 1.344-.031-.438-20.969-1.344-.031zm15.844.25.438 20.406 1.281-.031-.406-20.344-1.313-.031zm19.063.312-.438 19.656 1.281-.03.438-19.594-1.281-.032zm18.656.313-.438 18.906 1.282-.031.437-18.844-1.281-.031z" style="font-size:medium;font-style:normal;font-variant:normal;font-weight:400;font-stretch:normal;text-indent:0;text-align:start;text-decoration:none;line-height:normal;letter-spacing:normal;word-spacing:normal;text-transform:none;direction:ltr;block-progression:tb;writing-mode:lr-tb;text-anchor:start;baseline-shift:baseline;color:#000;fill:url(#H);fill-opacity:1;stroke:none;stroke-width:1.29999995;marker:none;visibility:visible;display:inline;overflow:visible;enable-background:accumulate;font-family:Sans;-inkscape-font-specification:Sans" inkscape:connector-curvature="0"/><path style="opacity:.39799332;fill:#000;fill-opacity:1;stroke:none" d="M2 273.935s11.77 2.934 14.908-.932c2.168-2.67 6.99-27.075 15.84-37.269 13.79-15.888 39.146-29.84 54.04-32.61 4.67-.87 2.795-13.977 2.795-13.977s-46.597 6.264-70.812 40.997C9.831 242.966 2 273.934 2 273.934z" inkscape:connector-curvature="0" sodipodi:nodetypes="csascsc"/><path sodipodi:nodetypes="csascsc" inkscape:connector-curvature="0" d="M0 271.935s11.77 2.934 14.908-.932c2.168-2.67 6.99-27.075 15.84-37.269 13.79-15.888 39.146-29.84 54.04-32.61 4.67-.87 2.795-13.977 2.795-13.977s-46.597 6.264-70.812 40.997C7.831 240.966 0 271.934 0 271.934z" style="fill:url(#I);fill-opacity:1;stroke:none"/><path sodipodi:nodetypes="cc" inkscape:connector-curvature="0" d="m29.952 275.662 418.21 3.727" style="fill:none;stroke:#000;stroke-width:1px;stroke-linecap:butt;stroke-linejoin:miter;stroke-opacity:1"/><path sodipodi:nodetypes="cc" style="fill:none;stroke:#000;stroke-width:1px;stroke-linecap:butt;stroke-linejoin:miter;stroke-opacity:1" d="m29.952 280.662 418.21 2.727" inkscape:connector-curvature="0"/><path sodipodi:nodetypes="cc" inkscape:connector-curvature="0" d="m29.952 286.662 418.21.727" style="fill:none;stroke:#000;stroke-width:1px;stroke-linecap:butt;stroke-linejoin:miter;stroke-opacity:1"/><path sodipodi:nodetypes="cc" style="fill:none;stroke:#000;stroke-width:1px;stroke-linecap:butt;stroke-linejoin:miter;stroke-opacity:1" d="m29.952 293.662 418.21-3.273" inkscape:connector-curvature="0"/><path sodipodi:nodetypes="cc" inkscape:connector-curvature="0" d="m29.952 298.662 418.21-3.273" style="fill:none;stroke:#000;stroke-width:1px;stroke-linecap:butt;stroke-linejoin:miter;stroke-opacity:1"/></g></svg>