<svg xmlns:dc="http://purl.org/dc/elements/1.1/" xmlns:cc="http://creativecommons.org/ns#" xmlns:rdf="http://www.w3.org/1999/02/22-rdf-syntax-ns#" xmlns="http://www.w3.org/2000/svg" width="120" height="120" viewBox="0 0 120 120" version="1.1" id="svg1379"><metadata id="metadata1376"><rdf:RDF><cc:Work><dc:format>image/svg+xml</dc:format><dc:type rdf:resource="http://purl.org/dc/dcmitype/StillImage"/><dc:title/><dc:date>2023</dc:date><dc:creator><cc:Agent><dc:title>Timothée Giet</dc:title></cc:Agent></dc:creator><cc:license rdf:resource="http://creativecommons.org/licenses/by-sa/4.0/"/></cc:Work><cc:License rdf:about="http://creativecommons.org/licenses/by-sa/4.0/"><cc:permits rdf:resource="http://creativecommons.org/ns#Reproduction"/><cc:permits rdf:resource="http://creativecommons.org/ns#Distribution"/><cc:requires rdf:resource="http://creativecommons.org/ns#Notice"/><cc:requires rdf:resource="http://creativecommons.org/ns#Attribution"/><cc:permits rdf:resource="http://creativecommons.org/ns#DerivativeWorks"/><cc:requires rdf:resource="http://creativecommons.org/ns#ShareAlike"/></cc:License></rdf:RDF></metadata><g id="layer1" style="display:inline"><path style="display:inline;fill:#8e7659;fill-opacity:1;stroke:#29221a;stroke-width:1;stroke-linejoin:round;stroke-miterlimit:4;stroke-dasharray:none;stroke-opacity:1" d="M65.815 31.832c5.972-.65 10.65-2.436 12.782.413 2.132 2.85-2.164 8.231-1.491 11.129.964 4.156 8.993 8.766 11.932 17.2 3.025 8.68 1.28 24.36-18.424 26.883-22.378 2.864-23.977-11.966-23.36-18.842.882-9.845 9.556-18.17 9.466-20.99-.09-2.82-5.131-9.282-2.968-12.467 2.163-3.185 5.946-2.66 12.063-3.326z" id="path928-6"/><path style="fill:#262630;fill-opacity:1;stroke:#151519;stroke-width:1;stroke-linejoin:round;stroke-miterlimit:4;stroke-dasharray:none;stroke-opacity:1" d="M62.66 37.357c2.252-1.018-9.73-23.484-20.029-16.266-6.087 4.266-1.028 11.96-.303 13.685.896 2.136-.063 7.137 1.265 6.813 1.327-.324 1.69-4.253.583-7.152-1.38-3.612-3.904-8.14-.518-11.112 8.487-7.453 16.906 14.98 19.002 14.032z" id="path942"/><path style="fill:#262630;fill-opacity:1;stroke:#151519;stroke-width:1;stroke-linejoin:round;stroke-miterlimit:4;stroke-dasharray:none;stroke-opacity:1" d="M71.31 36.05c.533-2.562-11.771-22.201-21.93-10.41-3.609 4.188-2.389 16.018-.582 15.328 1.712-.654-1.053-10.135 1.503-13.517 8.842-11.699 20.519 10.96 21.01 8.599z" id="path940"/><ellipse style="fill:#78644c;fill-opacity:1;stroke:#584835;stroke-width:.545724;stroke-linejoin:round;stroke-miterlimit:4;stroke-dasharray:none;stroke-opacity:1" id="path1034" cx="69.073013" cy="67.07695" rx="15.808715" ry="16.574614"/><path style="fill:#72543d;fill-opacity:1;stroke:#29221a;stroke-width:1;stroke-linejoin:round;stroke-miterlimit:4;stroke-dasharray:none;stroke-opacity:1" d="M45.815 39.832c5.972-.65 10.65-2.436 12.782.413 2.132 2.85-2.164 8.231-1.491 11.129.964 4.156 8.993 8.766 11.932 17.2 3.025 8.68 1.28 24.36-18.424 26.883-22.378 2.864-23.977-11.966-23.36-18.842.882-9.845 9.556-18.17 9.466-20.99-.09-2.82-5.131-9.282-2.968-12.467 2.163-3.185 5.946-2.66 12.063-3.326z" id="path928"/><path style="fill:#262630;fill-opacity:1;stroke:#151519;stroke-width:1;stroke-linejoin:round;stroke-miterlimit:4;stroke-dasharray:none;stroke-opacity:1" d="M51.135 43.863c-1.91-3.965-9.721-1.72-10.375 1.028-.654 2.747 2.609.17 5.106-.15 2.844-.365 6.415 1.503 5.269-.878z" id="path936"/><path style="fill:none;fill-opacity:1;stroke:#29221a;stroke-width:.5;stroke-linejoin:round;stroke-miterlimit:4;stroke-dasharray:none;stroke-opacity:1" d="M57.437 52.676C51.28 57.89 45.789 64.334 46.31 64.06c-.018.369-8.31-5.51-9.583-7.911" id="path964"/></g></svg>