<!--Created with Inkscape (http://www.inkscape.org/)--><svg xmlns:dc="http://purl.org/dc/elements/1.1/" xmlns:cc="http://creativecommons.org/ns#" xmlns:rdf="http://www.w3.org/1999/02/22-rdf-syntax-ns#" xmlns="http://www.w3.org/2000/svg" xmlns:xlink="http://www.w3.org/1999/xlink" xmlns:sodipodi="http://sodipodi.sourceforge.net/DTD/sodipodi-0.dtd" xmlns:inkscape="http://www.inkscape.org/namespaces/inkscape" width="120" height="120" sodipodi:version="0.32" inkscape:version="0.91 r13725" sodipodi:docname="electric_guitar.svg" inkscape:output_extension="org.inkscape.output.svg.inkscape" version="1.0"><defs><linearGradient id="c"><stop style="stop-color:#f3f7f8;stop-opacity:1" offset="0"/><stop style="stop-color:#000;stop-opacity:1" offset="1"/></linearGradient><linearGradient id="a"><stop style="stop-color:#b60000;stop-opacity:1" offset="0"/><stop style="stop-color:#fd8300;stop-opacity:1" offset="1"/></linearGradient><linearGradient id="b"><stop style="stop-color:#dadcd7;stop-opacity:1" offset="0"/><stop style="stop-color:#fff;stop-opacity:1" offset="1"/></linearGradient><linearGradient inkscape:collect="always" xlink:href="#a" id="d" gradientUnits="userSpaceOnUse" gradientTransform="matrix(.72601 0 0 .69507 -20.88 -207.433)" x1="60.39645" y1="520.96814" x2="427.74591" y2="520.96814"/><linearGradient inkscape:collect="always" xlink:href="#b" id="e" gradientUnits="userSpaceOnUse" gradientTransform="matrix(.72601 0 0 .69507 -20.88 -207.433)" x1="131.82999" y1="527.58795" x2="355.06354" y2="527.58795"/><linearGradient inkscape:collect="always" xlink:href="#c" id="f" gradientUnits="userSpaceOnUse" gradientTransform="matrix(.72601 0 0 .69507 -20.88 -207.433)" spreadMethod="reflect" x1="215.38579" y1="493.50888" x2="226.33798" y2="491.21222"/><linearGradient inkscape:collect="always" xlink:href="#a" id="g" gradientUnits="userSpaceOnUse" gradientTransform="matrix(.72601 0 0 .69507 -20.88 -207.433)" x1="666.28571" y1="462.14789" x2="736.57141" y2="412.18359"/></defs><sodipodi:namedview pagecolor="#ffffff" bordercolor="#666666" borderopacity="1.0" inkscape:pageopacity="0.0" inkscape:pageshadow="2" inkscape:zoom="2.6402964" inkscape:cx="111.64437" inkscape:cy="88.886398" inkscape:document-units="px" inkscape:current-layer="layer3" inkscape:window-width="1366" inkscape:window-height="713" inkscape:window-x="-2" inkscape:window-y="-3" showgrid="false" fit-margin-top="0" fit-margin-left="0" fit-margin-right="0" fit-margin-bottom="0" inkscape:window-maximized="1"/><metadata><rdf:RDF><cc:Work><dc:format>image/svg+xml</dc:format><dc:type rdf:resource="http://purl.org/dc/dcmitype/StillImage"/></cc:Work></rdf:RDF></metadata><g inkscape:groupmode="layer" inkscape:label="colour"><path style="fill:url(#d);fill-opacity:1;fill-rule:evenodd;stroke:none" d="M43.24 244.11s-6.307-7.17-6.307-10.628c0-3.457 71.301-80.285 71.301-80.285s6.32-6.051 6.32-10.373c0-11.343-27.087-25.933-41.533-32.848-14.446-6.915-46.048-28.526-47.854-32.848-1.806-4.322-4.345-6.266 1.073-10.588 5.417-4.323 18.791-.65 55.81 6.266 37.019 6.915 153.061 22.957 159.813 24.204 43.723 11.018 40.436-6.102 47.449 16.318 4.006 12.807-26.773 17.256-42.934 33.818-10.635 6.23-158.008 80.391-162.522 82.984-4.515 2.594-30.194 17.613-40.617 13.98z" sodipodi:nodetypes="cscssssscscsc" inkscape:connector-curvature="0" transform="matrix(.22066 -.173 .173 .22066 -14.883 73.134)"/><path style="fill:#3a3c33;fill-opacity:1;fill-rule:evenodd;stroke:#000;stroke-width:.71037328px;stroke-linecap:butt;stroke-linejoin:miter;stroke-opacity:1" d="m133.863 118.906 310.221-33.702 2.2 16.148-308.02 50.554-4.4-33z" sodipodi:nodetypes="ccccc" inkscape:connector-curvature="0" transform="matrix(.22066 -.173 .173 .22066 -14.883 73.134)"/><path style="fill:url(#e);fill-opacity:1;fill-rule:evenodd;stroke:#000;stroke-width:.71037328px;stroke-linecap:butt;stroke-linejoin:miter;stroke-opacity:1" d="m115.519 93.62 30.81 22.48 4.401 37.904-48.393 10.535-27.135 60.384 161.334-80.737-8.803-45.636-112.214-4.93zm107.813 14.053 4.401 28.085-15.405 3.52-5.853-28.803 16.857-2.802zm-46.193 6.32h3.653l5.15 29.498-8.077 1.39h-9.529l-3.675-12.642v-16.138l12.478-2.107z" inkscape:connector-curvature="0" transform="matrix(.22066 -.173 .173 .22066 -14.883 73.134)"/><path style="fill:url(#f);fill-opacity:1;fill-rule:evenodd;stroke:#000;stroke-width:.71037328px;stroke-linecap:butt;stroke-linejoin:miter;stroke-opacity:1" d="m136.133 121.49 2.779-3.193-1.39-3.459-1.667-2.128-2.779.798-1.39 7.45 3.891 34.32 2.501 3.194h2.78l2.222-1.33-.555-5.322-1.668-5.321-1.667.532-3.057-25.541z" inkscape:connector-curvature="0" transform="matrix(.22066 -.173 .173 .22066 -14.883 73.134)"/><path style="fill:url(#g);fill-opacity:1;fill-rule:evenodd;stroke:#000;stroke-width:.71037328px;stroke-linecap:butt;stroke-linejoin:miter;stroke-opacity:1" d="m442.73 84.153 14.78-4.717 2.333-8.44 5.704-.993 62.23 13.653 2.074 6.703L527 95.075l-56.784 18.37-5.186-1.241-6.482-6.95-8.298-3.228-5.445-1.738-2.074-16.135z" inkscape:connector-curvature="0" transform="matrix(.22066 -.173 .173 .22066 -14.883 73.134)"/><path style="fill:#fff;fill-opacity:1;fill-rule:evenodd;stroke:#000;stroke-width:.71037328px;stroke-linecap:butt;stroke-linejoin:miter;stroke-opacity:1" d="m444.286 86.139 14.26-4.717 16.077 1.738 12.445 5.958-1.555 4.964-14.002 6.703-9.594 1.241-12.705-1.986-2.852.497-2.074-14.398z" inkscape:connector-curvature="0" transform="matrix(.22066 -.173 .173 .22066 -14.883 73.134)"/><path style="opacity:.80898874;fill:#fff;fill-opacity:1;fill-rule:nonzero;stroke:none" d="M260.87 132.643c-6.209 5.088-10.835 8.886-11.69 9.716-.657.86-15.938 9.214-17 9.985-1.013.738-2.008 1.49-3.02 2.228-2.245 1.733-117.569 58.805-124.844 63.897-2.53 2.228-47.693 23.275-53.086 24.45-11.148.897-14.294-5.957-11.334-10.426 1.88-2.367 2.34-5.21 11.664-14.57l5.585-4.211c-.886 1.478-10.177 12.88-11.943 15.26-.79.943-2.339 3.749-2.767 4.912-.054 1.095-.084 7.342 12.263 6.516 2.75-.622 12.893-5.098 6.13-1.465-.526.282 1.928-1.382 1.463-1.015 2.331-1.443 21.036-10.412 22.774-11.305 10.06-5.17 137.89-70.888 139.3-71.515-2.554 1.453 5.85-2.668 6.944-3.418 1.15-.883 8.647-3.891 17.78-11.593 2.872-2.423 11.781-7.446 11.781-7.446z" sodipodi:nodetypes="ccscccccccccscsccsc" inkscape:connector-curvature="0" transform="matrix(.22066 -.173 .173 .22066 -14.883 73.134)"/><path style="opacity:.69662924;fill:none;stroke:#fff;stroke-width:1px;stroke-linecap:butt;stroke-linejoin:miter;stroke-opacity:1" d="m213.142 473.545 432.345-49.498" inkscape:connector-curvature="0" transform="matrix(.15682 -.1298 .12463 .14985 -55.687 34.706)"/><path d="m217.142 477.545 432.345-49.498" style="opacity:.69662924;fill:none;stroke:#fff;stroke-width:1px;stroke-linecap:butt;stroke-linejoin:miter;stroke-opacity:1" inkscape:connector-curvature="0" transform="matrix(.15682 -.1298 .12463 .14985 -55.687 34.706)"/><path d="m215.142 485.545 432.345-49.498" style="opacity:.69662924;fill:none;stroke:#fff;stroke-width:1px;stroke-linecap:butt;stroke-linejoin:miter;stroke-opacity:1" inkscape:connector-curvature="0" transform="matrix(.15682 -.1298 .12463 .14985 -55.687 34.706)"/><path d="m213.142 489.545 432.345-49.498" style="opacity:.69662924;fill:none;stroke:#fff;stroke-width:1px;stroke-linecap:butt;stroke-linejoin:miter;stroke-opacity:1" inkscape:connector-curvature="0" transform="matrix(.15682 -.1298 .12463 .14985 -55.687 34.706)"/><path d="m213.142 493.545 432.345-49.498" style="opacity:.69662924;fill:none;stroke:#fff;stroke-width:1px;stroke-linecap:butt;stroke-linejoin:miter;stroke-opacity:1" inkscape:connector-curvature="0" transform="matrix(.15682 -.1298 .12463 .14985 -55.687 34.706)"/><path d="m215.142 481.545 432.345-49.498" style="opacity:.69662924;fill:none;stroke:#fff;stroke-width:1px;stroke-linecap:butt;stroke-linejoin:miter;stroke-opacity:1" inkscape:connector-curvature="0" transform="matrix(.15705 -.12952 .12434 .15008 -55.653 34.48)"/><path style="opacity:.71348314;fill:none;stroke:#daeddf;stroke-width:1.60000002;stroke-linecap:butt;stroke-linejoin:miter;stroke-miterlimit:4;stroke-opacity:1;stroke-dasharray:none" d="m408.932 88.179 2.828 17.908" inkscape:connector-curvature="0" transform="matrix(.22066 -.173 .173 .22066 -14.883 73.134)"/><path style="opacity:.71348314;fill:none;stroke:#daeddf;stroke-width:1.60000002;stroke-linecap:butt;stroke-linejoin:miter;stroke-miterlimit:4;stroke-opacity:1;stroke-dasharray:none" d="m384.932 90.179 2.828 17.908" inkscape:connector-curvature="0" transform="matrix(.22066 -.173 .173 .22066 -14.883 73.134)"/><path d="m246.932 106.628 2.828 26.795" style="opacity:.71348314;fill:none;stroke:#daeddf;stroke-width:1.95718896;stroke-linecap:butt;stroke-linejoin:miter;stroke-miterlimit:4;stroke-opacity:1;stroke-dasharray:none" inkscape:connector-curvature="0" transform="matrix(.22066 -.173 .173 .22066 -14.883 73.134)"/><path d="m240.932 106.883 2.828 28.23" style="opacity:.71348314;fill:none;stroke:#daeddf;stroke-width:2.00888395;stroke-linecap:butt;stroke-linejoin:miter;stroke-miterlimit:4;stroke-opacity:1;stroke-dasharray:none" inkscape:connector-curvature="0" transform="matrix(.22066 -.173 .173 .22066 -14.883 73.134)"/><path d="m252.932 105.46 2.828 27.077" style="opacity:.71348314;fill:none;stroke:#daeddf;stroke-width:1.96746373;stroke-linecap:butt;stroke-linejoin:miter;stroke-miterlimit:4;stroke-opacity:1;stroke-dasharray:none" inkscape:connector-curvature="0" transform="matrix(.22066 -.173 .173 .22066 -14.883 73.134)"/><g><path d="m246.932 106.628 2.828 26.795" style="opacity:.71348314;fill:none;stroke:#daeddf;stroke-width:1.95718896;stroke-linecap:butt;stroke-linejoin:miter;stroke-miterlimit:4;stroke-opacity:1;stroke-dasharray:none" inkscape:connector-curvature="0" transform="matrix(.28664 -.22473 .16329 .20826 -25.67 82.893)"/><path d="m240.932 106.883 2.828 28.23" style="opacity:.71348314;fill:none;stroke:#daeddf;stroke-width:2.00888395;stroke-linecap:butt;stroke-linejoin:miter;stroke-miterlimit:4;stroke-opacity:1;stroke-dasharray:none" inkscape:connector-curvature="0" transform="matrix(.28664 -.22473 .16329 .20826 -25.67 82.893)"/><path d="m252.932 105.46 2.828 27.077" style="opacity:.71348314;fill:none;stroke:#daeddf;stroke-width:1.96746373;stroke-linecap:butt;stroke-linejoin:miter;stroke-miterlimit:4;stroke-opacity:1;stroke-dasharray:none" inkscape:connector-curvature="0" transform="matrix(.28664 -.22473 .16329 .20826 -25.67 82.893)"/></g><path style="opacity:.71348314;fill:none;stroke:#daeddf;stroke-width:1.65755022;stroke-linecap:butt;stroke-linejoin:miter;stroke-miterlimit:4;stroke-opacity:1;stroke-dasharray:none" d="m290.932 104.809 2.828 19.219" inkscape:connector-curvature="0" transform="matrix(.22066 -.173 .173 .22066 -14.883 73.134)"/><path style="opacity:.71348314;fill:none;stroke:#daeddf;stroke-width:1.65755022;stroke-linecap:butt;stroke-linejoin:miter;stroke-miterlimit:4;stroke-opacity:1;stroke-dasharray:none" d="m304.932 102.809 2.828 19.219" inkscape:connector-curvature="0" transform="matrix(.22066 -.173 .173 .22066 -14.883 73.134)"/><path style="opacity:.71348314;fill:none;stroke:#daeddf;stroke-width:1.6994344;stroke-linecap:butt;stroke-linejoin:miter;stroke-miterlimit:4;stroke-opacity:1;stroke-dasharray:none" d="m318.932 100.281 2.828 20.203" inkscape:connector-curvature="0" transform="matrix(.22066 -.173 .173 .22066 -14.883 73.134)"/><path style="opacity:.71348314;fill:none;stroke:#daeddf;stroke-width:1.60000002;stroke-linecap:butt;stroke-linejoin:miter;stroke-miterlimit:4;stroke-opacity:1;stroke-dasharray:none" d="m336.932 98.179 2.828 17.908" inkscape:connector-curvature="0" transform="matrix(.22066 -.173 .173 .22066 -14.883 73.134)"/><path style="opacity:.71348314;fill:none;stroke:#daeddf;stroke-width:1.60000002;stroke-linecap:butt;stroke-linejoin:miter;stroke-miterlimit:4;stroke-opacity:1;stroke-dasharray:none" d="m358.932 94.179 2.828 17.908" inkscape:connector-curvature="0" transform="matrix(.22066 -.173 .173 .22066 -14.883 73.134)"/><g><path style="fill:#000" d="M44.182 245.137c-8.924-2.436-11.602-10.386-5.98-17.748 1.314-1.72 16.407-17.93 33.54-36.02 37.9-40.017 38.353-40.52 39.392-43.842 1.856-5.929.225-12.002-4.176-15.547-1.273-1.025-7.935-5.198-14.805-9.273-6.87-4.075-22.576-13.505-34.902-20.954-15.48-9.355-26.488-16.373-27.823-17.185-4.373-2.657-6.035-4.68-5.975-7.271.031-1.362-.353-15.365.678-6.072 1.03 9.27 12.324 14.948 56.62 41.296 29.272 17.412 29.857 17.811 32.033 21.896 1.96 3.678 2.531 9.39 1.345 13.448-1.14 3.898-3.803 7.194-15.842 19.611-12.199 12.581-54.294 57.39-57.356 61.054-1.45 1.736-2.56 3.969-2.791 5.623-.332 2.367-.067 3.09 1.929 5.266 1.553 1.693 3.19 2.674 4.98 2.983 1.468.253 3.086.778 3.598 1.167 1.978 1.505.928 1.995 64.048-29.884l54.088-27.317c11.18-5.646 30.456-15.35 42.834-21.565 12.379-6.214 26.528-13.32 31.442-15.79 7.083-3.56 9.289-5.028 10.641-7.08 2.537-3.846 8.02-8.152 12.365-9.708 2.112-.757 5.59-2.204 7.73-3.216 3.476-1.645 10.07-3.59 14.054-4.148.798-.112 6.026-.885 11.616-1.719 5.59-.834 21.562-3.185 23.958-3.54 2.396-.356 28.488-4.358 29.972-4.514 1.484-.156 14.885-2.031 17.002-2.42 2.116-.387 20.49-3.109 23.086-3.47 7.264-1.012 39.793-5.859 45.164-6.668 9.903-1.492 9.171-1.003 8.425-5.628-.356-2.206-.783-4.635-.949-5.4-.165-.765-.499-2.321-.741-3.46-.242-1.138-.533-2.158-.646-2.267-.114-.108-2.79.172-5.946.624-3.156.452-6.474.846-7.373.877-.898.03-14.429 2.011-15.427 2.147-.999.135-26.133 3.214-28.315 3.434-1.231.123-18.168 2.208-20.352 2.544-2.183.336-63.24 6.045-64.162 7.253-.94 1.232-20.03 1.487-20.827 1.426-19.23-1.459-42.886-6.365-66.794-10.078-13.926-2.164-92.17-13.984-148.399-23-16.77-2.69-30.92-5.04-31.44-5.221-2.275-.792-8.44 3.407-9.785 6.667-.224.54-.432-.293-.463-1.85-.06-2.931 1.273-4.728 4.795-6.464 2.646-1.305 5.69-.966 36.738 4.095C86.919 71.804 213.16 92.006 240.86 96.374c1.211.191 8.229.517 10.353 2.045 2.124 1.529 39.84 2.389 45.163 1.72 2.995-.376 6.752-.831 8.349-1.011 4.802-.542 13.308-1.583 22.039-2.7 4.534-.58 17.194-2.039 18.73-2.164 1.535-.126 59.33-7.113 66.318-7.904 6.988-.792 23.903-3 26.941-3.256l5.524-.464.743 2.041c.41 1.123 1.344 5.417 2.078 9.542 1.613 9.07 1.777 8.85-7.502 10.057-6.338.825-23.688 3.406-36.133 5.376-3.594.569-11.925 1.818-18.514 2.777-18.197 2.646-33.996 4.995-38.841 5.774-2.396.385-25.919 3.855-28.315 4.226-2.396.37-9.747 1.466-16.335 2.435-16.723 2.459-21.643 3.572-27.344 6.187-2.73 1.253-6.27 2.685-7.868 3.184-4.39 1.37-8.768 4.537-11.923 8.625-2.753 3.57-3.695 4.11-32.483 18.66-40.646 20.542-144.568 72.64-159.603 80.01-8.898 4.362-12.583 5.097-18.055 3.603zm31.26-21.976c-.262-.961 3.26-9.08 10.48-24.154 15.44-32.233 16.696-34.73 18.093-35.94.802-.696 6.146-1.824 14.947-3.156 16.52-2.5 17.467-2.689 16.48-3.294-.806-.494-.875-.982-2.73-19.588-2.298-23.054-2.29-22.574-.352-23.874.942-.632 2.293-1.148 3.003-1.148 1.894 0 4.394 2.669 3.966 4.234-.199.729.462 1.357.265 1.695-2.821 4.823-2.522 3.245-1.538 12.972 1.747 17.27 1.527 16.319 2.663 14.832.988-1.294 1.016-1.29 1.016.151 0 .815.358 1.694.796 1.953.438.26.656 1.386.484 2.505-.171 1.118-.04 2.194.293 2.391.333.197.605.999.605 1.782 0 1.203.312 1.353 1.997.964 2.705-.625 3.9-2.313 3.445-4.87-.598-3.358-2.647-19.959-2.771-22.449-.062-1.242-.331-2.259-.598-2.259-.267 0-.315-.62-.108-1.38.672-2.459-.513-4.474-.513-4.874 0-1.183-5.91-6.969-8.311-8.136-1.219-.592-4.34-2.543-6.935-4.335a1945.692 1945.692 0 0 0-10.709-7.323c-4.996-3.39-5.99-4.377-5.99-5.956 0-2.503.767-2.632 11.617-1.956 4.991.311 18.386 1.042 29.766 1.623 65.972 3.372 74.751 4.017 75.958 5.585l1.774 9.174s.284 1.924.543 4.048c.178 1.459 1.161 10.075 2.093 15.718.528 3.193 1.163 8.35 1.412 11.458l.454 5.653-15.386 7.553c-8.462 4.155-30.15 15.01-48.195 24.121-57.265 28.916-95.289 47.727-96.472 47.727-.63 0-1.324-.651-1.542-1.447zm6.906-3.41c5.797-3.128 36.008-18.08 36.533-18.08.252 0 2.638-1.208 5.303-2.685s11.87-6.139 20.455-10.36c25.202-12.39 49.323-24.322 55.177-27.296 2.995-1.521 12.233-6.126 20.528-10.232 13.118-6.493 15.031-7.647 14.687-8.856-.705-2.474-2.44-11.678-3.21-17.029-.738-5.128-.912-6.633-1.888-16.334-.27-2.676-.58-5.738-.691-6.805-.111-1.067-.325-2.034-.475-2.15-.15-.116-7.46-.59-16.246-1.055-40.67-2.15-53.871-2.882-77.32-4.285-18.221-1.09-18.872-1.117-19.224-.78-.44.42 1.358 1.724 11.238 8.151 12.072 7.853 17.965 12.53 19.49 15.47.878 1.692 4.17 26.517 4.534 28.594 1.926 11.012.963 11.784-17.853 14.315-16.627 2.236-26.891 3.997-27.707 4.756-.465.431-2.461 4.225-4.436 8.43-1.976 4.206-4.75 9.992-6.165 12.86-1.415 2.866-4.923 10.217-7.796 16.333-2.872 6.117-5.655 11.777-6.184 12.579-1.192 1.806-3.282 6.536-2.888 6.536.16 0 2.021-.935 4.138-2.077zm22.724-19.318c-2.367-.492-3.31-1.617-2.976-3.548.173-1 .342-2.013.375-2.252.112-.819 4.534-1.291 5.836-.624 2.954 1.513.129 7.122-3.235 6.424zm1.089-4.016c0-.169-.327-.307-.726-.307-.4 0-.726.332-.726.736 0 .405.326.543.726.307.399-.236.726-.568.726-.736zm12.395-4.918c-3.352-4.08-.471-10.278 5.177-11.138 2.323-.353 2.99-.12 4.9 1.709 2.679 2.564 3.174 6.979.849 7.561-.75.188-1.724 1.097-2.163 2.02-.67 1.409-1.318 1.679-4.029 1.679-2.624 0-3.512-.343-4.734-1.831zm7.63-2.001c2.443-2.205 2.625-2.611 1.878-4.181-.455-.956-1.623-2.086-2.596-2.51-1.47-.64-2.146-.514-4.004.753-3.062 2.087-3.182 5.758-.239 7.287 1.099.57 2.055 1.05 2.127 1.065.071.015 1.347-1.071 2.834-2.414zm-5.1.513c-.717-.687-.43-1.644.353-1.18.417.247 1.584-.07 2.594-.703 1.768-1.11 1.808-1.102 1.08.2-.76 1.359-3.27 2.408-4.027 1.683zm-1.131-3.244c0-1.167 3.42-3.601 4.12-2.931.553.53-1.022 2.395-2.79 3.3-1.017.522-1.33.435-1.33-.369zm17.279-4.59c-1.91-1.83-2.154-2.468-1.785-4.692.93-5.6 7.908-8.383 11.764-4.691 2.36 2.258 2.57 7.263.33 7.823-.798.2-1.452.618-1.452.928 0 1.262-2.415 2.75-4.463 2.75-1.464 0-2.91-.698-4.394-2.118zm7.365-2.227c2.535-2.59 2.643-3.108 1.088-5.232-1.454-1.988-4.437-2.004-6.628-.034-2.177 1.958-2.208 5.006-.066 6.443 2.299 1.541 3.112 1.37 5.606-1.177zm-5.481.056c-.35-.544-.132-.67.66-.378.652.239 1.378.136 1.614-.23.236-.365.776-.665 1.201-.665.487 0 .438.386-.132 1.043-1.08 1.247-2.618 1.353-3.343.23zm-1.013-2.555c0-.885 2.52-2.888 3.632-2.888.625 0 .362.627-.728 1.738-1.725 1.758-2.904 2.225-2.904 1.15zm-15.246-2.397c-2.856-1.383-3.979-4.282-2.942-7.593.71-2.27 1.415-2.983 4.063-4.104 2.954-1.251 3.372-1.273 5.376-.281 2.582 1.279 3.667 3.001 3.667 5.824 0 2.658-.654 4.273-1.731 4.273-.468 0-1.41.625-2.094 1.39-1.42 1.588-3.707 1.765-6.34.49zm6.353-3.937c1.827-1.648 1.965-2.307.89-4.23-1.122-2.008-3.348-2.935-5.008-2.084-4.21 2.157-5.081 6.236-1.696 7.934 2.139 1.073 3.138.795 5.814-1.62zm-5.87.897c-.871-.835-.506-1.586.578-1.188.604.222 1.815-.388 2.806-1.412.96-.99 1.952-1.802 2.206-1.802 1.058 0 .333 1.57-1.46 3.161-1.93 1.712-3.23 2.103-4.13 1.241zm-.796-2.934c-.5-.775 2.014-3.553 3.217-3.553 1.216 0 .818 1.065-1.012 2.712-1.066.958-1.92 1.284-2.205.841zm44.615-23.323c-.378-.952-1.042-5.104-1.476-9.226-.434-4.122-1.066-9.39-1.405-11.707-.639-4.37-.334-7.704.835-9.124.374-.453 1.718-1.037 2.988-1.298 1.27-.26 2.636-.66 3.036-.889 1.553-.887 11.208-.658 12.027.287.444.512 1.638 7.352 2.653 15.2 2.054 15.876 2.03 16.032-2.593 16.737-1.457.222-3.14.64-3.738.93-.6.29-3.463.593-6.364.674-5.017.14-5.309.062-5.963-1.584zm7.97-2.355c-1.723.687-1.74.751-.362 1.265.975.364 1.929.154 2.904-.64 3.722-3.028 3.978-.67 5.445-.857 1.896-.244 1.967-.552 1.106-4.75-.9-4.393-1.216-6.572-1.282-8.863-.04-1.387-.55-3.952-.55-4.322 0-.37-.09-1.683-.304-2.015-.214-.332-1.77-7.007-1.3-7.477.67-.672-12.304-.87-13.81 1.651-.426.716.074 6.609.107 7.254.04.785.06 2.303.06 2.73l.545 1.37.54 5.01c.298 2.755.658 6.2.8 7.656.368 3.754.859 4.178 2.983 2.578 1.025-.771 4.775-1.25 3.119-.59zm35.305-4.114c-.506-1.674-1.754-10.315-2.636-18.245-.404-3.632-.905-7.392-1.113-8.355-.629-2.91 1.044-4.173 6.954-5.252 6.03-1.1 12.028-1.296 12.6-.41 1.12 1.735 4.415 29.949 3.59 30.739-.969.927-11.23 2.74-15.51 2.74-2.725 0-3.6-.274-3.885-1.217zm12.269-2.417c4.309-.783 4.699-1 4.69-2.607-.023-4.102-.763-6.043-1.01-6.874-.401-1.353-1.284-7.315-1.478-9.984-.182-2.504-1.184-7.851-1.184-8.18 0-.331-13.774.101-13.627 1.415.097.86.66 9.463.934 12.14.275 2.675.682 5.96.905 7.297.477 2.866.73 4.755.857 6.43.114 1.493 3.088 1.602 9.913.363zm-80.97 20.315c.6-.37.763-.678.363-.684-.4-.006-.75-1.653-.782-3.66-.033-2.16-.368-3.59-.82-3.503-.422.08-1.285-.403-1.92-1.075-.875-.926-1.345-3.974-1.944-12.616-.435-6.268-.956-11.651-1.158-11.964-.68-1.054.516-3.262 2.015-3.718 1.083-.329 1.27-.66.69-1.217-.44-.42-.8-1.64-.8-2.711 0-1.586-.32-1.946-1.726-1.946-2.96 0-3.4 1.276-2.657 7.704.372 3.217 1.224 11.636 1.893 18.709.95 10.044 1.512 13.266 2.564 14.722 1.262 1.744 1.267 1.883.092 2.178-.69.173-.275.347.923.385 1.198.039 2.668-.233 3.267-.604zm324.661-42.32c-.458-.27-1.931-1.972-3.274-3.781-2.903-3.909-6.35-6.488-9.473-7.087-4.416-.848-8.095-1.594-7.85-3.161.32-2.047 6.198-1.745 11.119-.155 4.692 1.517 8.466 1.158 15.657-1.489 6.903-2.54 9.12-3.68 11.904-6.114l2.423-2.118-2.4-1.919c-2.854-2.28-10.646-5.042-18.367-6.508-5.589-1.061-14.814 1.72-21.18 3.041-6.01 1.247 9.623-4.943 8.602-4.551-3.98 1.528-18.852 6.732-.88-1.774 2.777-1.315 3.936-4.228 4.823-6.515 1.29-3.325 1.477-3.484 4.33-3.689 2.264-.162 2.98-.505 2.98-1.425 0-1.812 1.475-2.88 3.977-2.88 3.214 0 5.68 1.843 5.262 3.933-.383 1.92 1.153 3.019 4.223 3.019 1.493 0 1.836-.26 1.487-1.131-.69-1.72.918-3.04 3.702-3.04 3.833 0 5.308 1.06 5.308 3.815 0 2.143.26 2.444 2.654 3.077 3.175.84 3.88.527 3.88-1.72 0-.933.245-1.718.545-1.744.3-.027 1.521-.17 2.715-.318 3.241-.403 5.672 1.394 5.287 3.908-.354 2.307-.193 2.372 11.055 4.442 9.604 1.767 13.685 3.032 14.503 4.496 1.26 2.253.929 10.18-.481 11.53-1.85 1.77-5.172 2.964-29.63 10.64a12108.545 12108.545 0 0 0-25.774 8.108c-4.46 1.426-6.148 1.69-7.127 1.11zm19.636-8.393c40.99-12.874 43.434-13.854 43.353-17.385-.073-3.224-3.363-4.803-14.662-7.036-5.69-1.125-11.577-2.509-13.082-3.075-1.505-.566-4.048-1.029-5.65-1.029-1.601 0-4.78-.587-7.063-1.304-2.284-.718-6.309-1.484-8.944-1.702-2.636-.219-6.067-.856-7.624-1.417-1.557-.56-4.665-1.2-6.908-1.42l-4.078-.403-1.367 3.294c-.752 1.811-1.466 3.5-1.587 3.753-.12.253 1.086.143 2.682-.245 2.366-.575 2.942-1.044 3.123-2.542.18-1.477.753-1.962 2.932-2.477 2.227-.527 2.97-.415 4.174.629 1.812 1.57 1.923 4.9.195 5.864-1.096.611-1.01.711.635.73 3.898.043 6.55-.853 7.174-2.424 1.187-2.988 8.08-2.4 8.554.73.293 1.93-1.295 3.68-3.702 4.08-2.527.419-4.13-.123-4.13-1.397 0-1.093-1.316-1.25-2.82-.338-.817.495-.748.737.362 1.284.753.37 2.33.894 3.504 1.164 2.587.594 7.43 4.149 8.001 5.874.633 1.909-1.53 6.17-3.408 6.714-.905.262-2.463 1.199-3.461 2.081-.998.883-3.057 1.824-4.574 2.091-2.642.466-2.696.529-1.27 1.484 3.105 2.083 1.033 7.175-2.921 7.175-1.597 0-2.277-.53-3.336-2.606-.732-1.434-1.575-2.528-1.875-2.433-.3.096-2.04.174-3.867.174h-3.323l2.228 1.795c1.225.987 2.791 2.707 3.48 3.823.688 1.115 1.337 2.028 1.443 2.028.106 0 8.121-2.49 17.812-5.534zm-1.5-2.323c-3.03-3.495-1.655-6.74 2.857-6.74 2.966 0 4.174.986 4.023 3.28-.227 3.434-4.877 5.772-6.88 3.46zm3.874-3.256c0-.505-.572-.999-1.27-1.097-1.255-.176-1.74 1.102-.772 2.03.743.711 2.042.118 2.042-.933zm9.932-.9c-1.286-1.483-2.354-4.67-1.565-4.67.39 0 .708-.43.708-.955 0-.796 2.887-1.824 5.121-1.824 1.423 0 2.748 2.197 2.408 3.993-.699 3.687-4.683 5.75-6.672 3.456zm3.5-4.553c-.426-.136-1.29-.058-1.922.174-.958.352-.99.602-.195 1.519.86.992 1.043.976 1.922-.174.64-.839.707-1.356.195-1.519zm-6.386-9.547c-.894-.6-1.437-1.382-1.207-1.738.23-.356-.697-2.204-.045-3.158 1.03-1.503 1.637-1.705 4.593-1.522 3.246.2 3.418.315 3.632 2.428.153 1.52-.246 2.668-1.271 3.649-1.788 1.712-3.504 1.815-5.701.34zm3.874-3.127c.666-1.03.04-1.459-1.374-.94-.654.24-1.008.717-.787 1.06.544.841 1.578.784 2.161-.12zm-25.446 21.157c-.713-.5-1.657-.702-2.098-.45-.44.252-.352-.07.196-.717.59-.697.681-1.176.224-1.176-1.617 0-1.616 1.481.002 3.381 1.4 1.644 1.79 1.799 2.328.922.448-.729.247-1.331-.651-1.96zm-14.503-.24c-.464-.718-7.696-2.972-8.148-2.539-.147.14 1.624.877 3.935 1.637 2.31.76 4.302 1.427 4.426 1.48.123.055.028-.206-.213-.578zm25.39-24.36c-.195-.302-1.016-.385-1.822-.183-1.159.29-1.291.57-.63 1.333.631.727 1.082.773 1.823.184.542-.43.825-1.03.63-1.333zm-17.342.345c-1.157-.578-2.291-.872-2.52-.653-.603.577 1.477 1.69 3.173 1.698 1.16.005 1.029-.205-.653-1.045zm2.468-2.879c0-.695-.406-.927-1.149-.654-.631.232-1.325.422-1.54.422-.217 0 .01.466.504 1.035 1.034 1.192 2.185.77 2.185-.803zm31.807-2.103c.283-1.895-1.798-3.05-4.037-2.24-.899.325-1.634.896-1.634 1.269 0 1.001 3.097 2.904 4.356 2.677.6-.108 1.19-.876 1.315-1.706zm-15.472-3.052c0-1.402-.36-1.68-2.168-1.68-2.77 0-3.444 2.14-.972 3.084 2.351.9 3.14.546 3.14-1.404zm-14.9-1.999c.611-1.092.483-1.503-.648-2.082-2.836-1.453-5.18 1.154-2.42 2.693 1.803 1.006 2.21.925 3.068-.61zm-12.935 25.309c-1.157-2.431-1.056-4.84.246-5.876 1.298-1.03 1.409-.47.256 1.296-.651.999-.572 1.778.363 3.573 1.38 2.646 1.407 2.777.587 2.777-.335 0-.989-.797-1.452-1.77zm3.514-.303c0-.868 6.147-3.856 9.257-4.5 1.807-.374 2.463-.231 2.8.61.242.604.977 1.102 1.633 1.108.981.009 1.011.121.169.632-.618.374-1.492.34-2.202-.084-.866-.518-2.364-.225-5.67 1.107-4.879 1.966-5.987 2.175-5.987 1.127zm.475-3.17c.61-1.522 5.479-3.743 9.305-4.245 3.058-.402 3.296-.313 4.015 1.5.962 2.42.309 3.16-1.096 1.24-.931-1.273-1.398-1.368-3.795-.778-1.503.37-3.458.841-4.345 1.048-.886.207-1.988.81-2.448 1.342-1.124 1.297-2.171 1.228-1.636-.107z" sodipodi:nodetypes="csssssssszsssssssssssssssssssssssssssssssssssssssssssssssscccssssssssssssccssssssssssssssssssssssssssssscsscccssccsssssssssssssssssssssssccsssccsssccsssssccsssssccsssccssccsssssccsssccssssccssccssssssccsssccssssccssccssssssssssccsssssssssssccssscssssssccssssssssccsssssssssssssssccssssscccsssssssssssssssssssssssccssssssscccsssssssssssssssssssssscccssccssccssccssssccsssccsssssccssccsssssccsssccsssccssccsssccsssccssccssccssssccssssssccssssssc" inkscape:connector-curvature="0" transform="matrix(.22066 -.173 .173 .22066 -14.98 73.21)"/></g></g></svg>