<!--Created with Inkscape (http://www.inkscape.org/)--><svg xmlns:dc="http://purl.org/dc/elements/1.1/" xmlns:cc="http://creativecommons.org/ns#" xmlns:rdf="http://www.w3.org/1999/02/22-rdf-syntax-ns#" xmlns="http://www.w3.org/2000/svg" xmlns:xlink="http://www.w3.org/1999/xlink" xmlns:sodipodi="http://sodipodi.sourceforge.net/DTD/sodipodi-0.dtd" xmlns:inkscape="http://www.inkscape.org/namespaces/inkscape" width="120" height="49.820595" sodipodi:version="0.32" inkscape:version="0.91 r13725" version="1.0" sodipodi:docname="harmonica.svg" inkscape:output_extension="org.inkscape.output.svg.inkscape"><defs><linearGradient inkscape:collect="always" xlink:href="#a" id="n" gradientUnits="userSpaceOnUse" gradientTransform="rotate(46.395 254.666 396.175)" x1="113.64724" y1="514.21814" x2="285.36301" y2="514.21814"/><linearGradient inkscape:collect="always" id="c"><stop style="stop-color:#000;stop-opacity:1" offset="0"/><stop style="stop-color:#000;stop-opacity:0" offset="1"/></linearGradient><linearGradient inkscape:collect="always" id="e"><stop style="stop-color:#000;stop-opacity:1" offset="0"/><stop style="stop-color:#000;stop-opacity:0" offset="1"/></linearGradient><linearGradient inkscape:collect="always" id="f"><stop style="stop-color:#000;stop-opacity:1" offset="0"/><stop style="stop-color:#000;stop-opacity:0" offset="1"/></linearGradient><linearGradient inkscape:collect="always" id="g"><stop style="stop-color:#000;stop-opacity:1" offset="0"/><stop style="stop-color:#000;stop-opacity:0" offset="1"/></linearGradient><linearGradient inkscape:collect="always" id="h"><stop style="stop-color:#000;stop-opacity:1" offset="0"/><stop style="stop-color:#000;stop-opacity:0" offset="1"/></linearGradient><linearGradient inkscape:collect="always" id="i"><stop style="stop-color:#000;stop-opacity:1" offset="0"/><stop style="stop-color:#000;stop-opacity:0" offset="1"/></linearGradient><linearGradient inkscape:collect="always" id="j"><stop style="stop-color:#000;stop-opacity:1" offset="0"/><stop style="stop-color:#000;stop-opacity:0" offset="1"/></linearGradient><linearGradient inkscape:collect="always" id="k"><stop style="stop-color:#000;stop-opacity:1" offset="0"/><stop style="stop-color:#000;stop-opacity:0" offset="1"/></linearGradient><linearGradient inkscape:collect="always" id="l"><stop style="stop-color:#000;stop-opacity:1" offset="0"/><stop style="stop-color:#000;stop-opacity:0" offset="1"/></linearGradient><linearGradient id="a"><stop style="stop-color:#000;stop-opacity:1" offset="0"/><stop offset="1" style="stop-color:#000;stop-opacity:.49803922"/><stop style="stop-color:#000;stop-opacity:0" offset="1"/></linearGradient><linearGradient id="b"><stop style="stop-color:#000;stop-opacity:1" offset="0"/><stop offset="0.10833333" style="stop-color:#35361e;stop-opacity:.74901962"/><stop style="stop-color:#eff648;stop-opacity:.62352943" offset="0.22583333"/><stop offset="0.5" style="stop-color:#000;stop-opacity:.49803922"/><stop style="stop-color:#eee03d;stop-opacity:.24705882" offset="0.72535211"/><stop offset="0.96421844" style="stop-color:#f5e522;stop-opacity:.12156863"/><stop style="stop-color:#000;stop-opacity:0" offset="1"/></linearGradient><linearGradient inkscape:collect="always" xlink:href="#l" id="y" gradientUnits="userSpaceOnUse" gradientTransform="rotate(46.395 254.666 396.175)" x1="370.20569" y1="249.05312" x2="388.37827" y2="249.05312"/><linearGradient inkscape:collect="always" id="d"><stop style="stop-color:#000;stop-opacity:1" offset="0"/><stop style="stop-color:#000;stop-opacity:0" offset="1"/></linearGradient><linearGradient inkscape:collect="always" xlink:href="#b" id="o" gradientUnits="userSpaceOnUse" gradientTransform="rotate(46.395 254.666 396.175)" x1="240.92645" y1="356.63434" x2="403.55087" y2="356.63434"/><linearGradient inkscape:collect="always" xlink:href="#c" id="p" gradientUnits="userSpaceOnUse" gradientTransform="rotate(46.395 254.666 396.175)" x1="282.34271" y1="409.16229" x2="314.65744" y2="409.16229"/><linearGradient inkscape:collect="always" xlink:href="#d" id="q" gradientUnits="userSpaceOnUse" gradientTransform="rotate(46.395 254.666 396.175)" x1="294.46454" y1="382.89832" x2="324.75897" y2="382.89832"/><linearGradient inkscape:collect="always" xlink:href="#e" id="r" gradientUnits="userSpaceOnUse" gradientTransform="rotate(46.395 254.666 396.175)" x1="309.61682" y1="361.68512" x2="335.87064" y2="361.68512"/><linearGradient inkscape:collect="always" xlink:href="#f" id="s" gradientUnits="userSpaceOnUse" gradientTransform="rotate(46.395 254.666 396.175)" x1="319.71835" y1="340.47192" x2="344.96201" y2="340.47192"/><linearGradient inkscape:collect="always" xlink:href="#g" id="t" gradientUnits="userSpaceOnUse" gradientTransform="rotate(46.395 254.666 396.175)" x1="331.33511" y1="322.03662" x2="353.54831" y2="322.03662"/><linearGradient inkscape:collect="always" xlink:href="#h" id="u" gradientUnits="userSpaceOnUse" gradientTransform="rotate(46.395 254.666 396.175)" x1="338.40619" y1="303.85388" x2="361.62955" y2="303.85388"/><linearGradient inkscape:collect="always" xlink:href="#i" id="v" gradientUnits="userSpaceOnUse" gradientTransform="rotate(46.395 254.666 396.175)" x1="346.99249" y1="289.20667" x2="367.69046" y2="289.20667"/><linearGradient inkscape:collect="always" xlink:href="#j" id="w" gradientUnits="userSpaceOnUse" gradientTransform="rotate(46.395 254.666 396.175)" x1="354.56863" y1="275.56961" x2="374.76151" y2="275.56961"/><linearGradient inkscape:collect="always" xlink:href="#k" id="x" gradientUnits="userSpaceOnUse" gradientTransform="rotate(46.395 254.666 396.175)" x1="362.14474" y1="261.68002" x2="381.32751" y2="261.68002"/><linearGradient inkscape:collect="always" xlink:href="#b" id="z" gradientUnits="userSpaceOnUse" gradientTransform="matrix(.68972 .7204 -.72408 .68607 365.278 -60.061)" x1="135.87059" y1="354.10898" x2="368.19553" y2="354.10898"/><radialGradient inkscape:collect="always" xlink:href="#a" id="m" gradientUnits="userSpaceOnUse" gradientTransform="matrix(.68968 .72411 -.54131 .51557 278.875 21.508)" cx="192.93913" cy="474.8222" fx="192.93913" fy="474.8222" r="52.01778"/></defs><sodipodi:namedview pagecolor="#ffffff" bordercolor="#666666" borderopacity="1.0" gridtolerance="10000" guidetolerance="10" objecttolerance="10" inkscape:pageopacity="0.0" inkscape:pageshadow="2" inkscape:zoom="1.979899" inkscape:cx="197.36651" inkscape:cy="22.071523" inkscape:document-units="px" inkscape:current-layer="g3880" showgrid="false" inkscape:snap-guide="true" inkscape:window-width="1366" inkscape:window-height="713" inkscape:window-x="-2" inkscape:window-y="-3" units="px" fit-margin-top="0" fit-margin-left="0" fit-margin-right="0" fit-margin-bottom="0" inkscape:window-maximized="1" showguides="true" inkscape:guide-bbox="true"><sodipodi:guide orientation="1,0" position="11871.578,3748.0551"/></sodipodi:namedview><metadata><rdf:RDF><cc:Work><dc:format>image/svg+xml</dc:format><dc:type rdf:resource="http://purl.org/dc/dcmitype/StillImage"/><dc:title>Harmonica</dc:title><dc:date>2009-06-24</dc:date><dc:creator><cc:Agent><dc:title>Sarah A. Morrigan</dc:title></cc:Agent></dc:creator><dc:publisher><cc:Agent><dc:title>OpenClipArt.org</dc:title></cc:Agent></dc:publisher><cc:license rdf:resource="http://creativecommons.org/licenses/publicdomain/"/></cc:Work><cc:License rdf:about="http://creativecommons.org/licenses/publicdomain/"><cc:permits rdf:resource="http://creativecommons.org/ns#Reproduction"/><cc:permits rdf:resource="http://creativecommons.org/ns#Distribution"/><cc:permits rdf:resource="http://creativecommons.org/ns#DerivativeWorks"/></cc:License></rdf:RDF></metadata><g inkscape:label="Layer 1" inkscape:groupmode="layer"><path d="m462.338 362.354-2.193 31.384-4.39 4.18-252.971 95.92-4.59-2.421.574-52.507 1.516-11.229 255.68-67.626z" style="fill:#fffcfc;fill-opacity:1;fill-rule:evenodd;stroke:#000;stroke-width:.99999994px;stroke-linecap:butt;stroke-linejoin:miter;stroke-opacity:1" inkscape:connector-curvature="0" sodipodi:nodetypes="ccccccccc" transform="matrix(.29477 0 0 .29477 -16.497 -95.959)"/><path d="m84.045 391.158 115.79 48.538 31.83-11.176-119.932-49.92-27.688 12.558z" style="fill:#fffcfc;fill-opacity:1;fill-rule:evenodd;stroke:none" inkscape:connector-curvature="0" transform="matrix(.29477 0 0 .29477 -16.497 -95.959)"/><path d="m56.465 390.65 52.319-6.585-20.934 8.779-.836 4.98 112.163 29.883-.834 63.57-140.309-47.716-1.569-52.91z" style="fill:#fffcfc;fill-opacity:1;fill-rule:evenodd;stroke:#000;stroke-width:.99999994px;stroke-linecap:butt;stroke-linejoin:miter;stroke-opacity:1" inkscape:connector-curvature="0" transform="matrix(.29477 0 0 .29477 -16.497 -95.959)"/><path d="M340.696 326.642c91.23 9.168 104.608 17.163 104.608 17.163l8.397 7.178 2.65 8.435-212.186 56.99-3.974-12.652-3.175-16.122-4.74-10.578-7.037-4.354-88.27-13.283-10.032 1.155-8.74 6.766-5.258 10.338 5.395-15.916 14.488-8.023 207.874-27.097z" style="fill:#fffcfc;fill-opacity:1;fill-rule:evenodd;stroke:#000;stroke-width:.98811531px;stroke-linecap:butt;stroke-linejoin:miter;stroke-opacity:1" inkscape:connector-curvature="0" transform="matrix(.29477 0 0 .29477 -16.497 -95.959)"/><path d="m117.106 383.358 119.339 28.628-2.3-22.92-5.47-10.136-92.481-16.542-7.175 1.254-4.39 4.18-7.523 15.536z" style="fill:#000;fill-opacity:1;fill-rule:evenodd;stroke:#000;stroke-width:1px;stroke-linecap:butt;stroke-linejoin:miter;stroke-opacity:1" inkscape:connector-curvature="0" transform="matrix(.29477 0 0 .29477 -16.497 -95.959)"/><path d="m91.589 395.19 99.344 28.142 27.309-6.48-102.897-28.942-23.756 7.28z" style="fill:url(#m);fill-opacity:1;fill-rule:evenodd;stroke:#000;stroke-width:1px;stroke-linecap:butt;stroke-linejoin:miter;stroke-opacity:1" inkscape:connector-curvature="0" transform="matrix(.29477 0 0 .29477 -16.497 -95.959)"/><path d="m56.915 390.465 52.32-6.585L88.3 392.66l-.836 4.981 112.163 29.883-.834 63.57-140.308-47.716-1.57-52.912z" style="fill:url(#n);fill-opacity:1;fill-rule:evenodd;stroke:#000;stroke-width:1px;stroke-linecap:butt;stroke-linejoin:miter;stroke-opacity:1" inkscape:connector-curvature="0" transform="matrix(.29477 0 0 .29477 -16.497 -95.959)"/><path d="m462.562 362.569-2.193 31.384-4.389 4.18-252.972 95.92-4.59-2.421.574-52.507 1.516-11.228 255.68-67.627z" style="fill:url(#o);fill-opacity:1;fill-rule:evenodd;stroke:#000;stroke-width:1px;stroke-linecap:butt;stroke-linejoin:miter;stroke-opacity:1" inkscape:connector-curvature="0" sodipodi:nodetypes="ccccccccc" transform="matrix(.29477 0 0 .29477 -16.497 -95.959)"/><path d="m268.897 427.314.179 27.932 16.248-5.588-.191-26.992z" style="fill:url(#p);fill-opacity:1;fill-rule:evenodd;stroke:#000;stroke-width:1px;stroke-linecap:butt;stroke-linejoin:miter;stroke-opacity:1" inkscape:connector-curvature="0" sodipodi:nodetypes="ccccc" transform="matrix(.29477 0 0 .29477 -16.497 -95.959)"/><path d="m309.011 415.067-13.734 4.061-.347 26.435 13.976-3.961z" style="fill:url(#q);fill-opacity:1;fill-rule:evenodd;stroke:#000;stroke-width:1px;stroke-linecap:butt;stroke-linejoin:miter;stroke-opacity:1" inkscape:connector-curvature="0" sodipodi:nodetypes="ccccc" transform="matrix(.29477 0 0 .29477 -16.497 -95.959)"/><path d="m332.52 408.384-10.66 3.122-.51 25.816 11.025-3.708z" style="fill:url(#r);fill-opacity:1;fill-rule:evenodd;stroke:#000;stroke-width:1px;stroke-linecap:butt;stroke-linejoin:miter;stroke-opacity:1" inkscape:connector-curvature="0" sodipodi:nodetypes="ccccc" transform="matrix(.29477 0 0 .29477 -16.497 -95.959)"/><path d="m356.947 401.119-.441 24.695-11.918 3.769.35-25.114z" style="fill:url(#s);fill-opacity:1;fill-rule:evenodd;stroke:#000;stroke-width:1px;stroke-linecap:butt;stroke-linejoin:miter;stroke-opacity:1" inkscape:connector-curvature="0" sodipodi:nodetypes="ccccc" transform="matrix(.29477 0 0 .29477 -16.497 -95.959)"/><path d="m374.756 396.35-.315 22.663-11.082 3.924.47-23.733z" style="fill:url(#t);fill-opacity:1;fill-rule:evenodd;stroke:#000;stroke-width:1px;stroke-linecap:butt;stroke-linejoin:miter;stroke-opacity:1" inkscape:connector-curvature="0" sodipodi:nodetypes="ccccc" transform="matrix(.29477 0 0 .29477 -16.497 -95.959)"/><path d="m393.112 390.668-.304 22.273-10.944 3.803.047-22.733z" style="fill:url(#u);fill-opacity:1;fill-rule:evenodd;stroke:#000;stroke-width:1px;stroke-linecap:butt;stroke-linejoin:miter;stroke-opacity:1" inkscape:connector-curvature="0" sodipodi:nodetypes="ccccc" transform="matrix(.29477 0 0 .29477 -16.497 -95.959)"/><path d="m398.783 388.713 10.54-2.924-.25 21.346-10.408 3.625z" style="fill:url(#v);fill-opacity:1;fill-rule:evenodd;stroke:#000;stroke-width:1px;stroke-linecap:butt;stroke-linejoin:miter;stroke-opacity:1" inkscape:connector-curvature="0" sodipodi:nodetypes="ccccc" transform="matrix(.29477 0 0 .29477 -16.497 -95.959)"/><path d="m423.88 381.708-.409 20.952-9.318 3.123.15-21.625z" style="fill:url(#w);fill-opacity:1;fill-rule:evenodd;stroke:#000;stroke-width:1px;stroke-linecap:butt;stroke-linejoin:miter;stroke-opacity:1" inkscape:connector-curvature="0" sodipodi:nodetypes="ccccc" transform="matrix(.29477 0 0 .29477 -16.497 -95.959)"/><path d="m437.301 377.54-.539 20.215-7.555 2.54.61-20.312z" style="fill:url(#x);fill-opacity:1;fill-rule:evenodd;stroke:#000;stroke-width:1px;stroke-linecap:butt;stroke-linejoin:miter;stroke-opacity:1" inkscape:connector-curvature="0" sodipodi:nodetypes="ccccc" transform="matrix(.29477 0 0 .29477 -16.497 -95.959)"/><path d="m452.086 373.221-.476 19.341-8.329 2.878.303-19.633z" style="fill:url(#y);fill-opacity:1;fill-rule:evenodd;stroke:#000;stroke-width:1px;stroke-linecap:butt;stroke-linejoin:miter;stroke-opacity:1" inkscape:connector-curvature="0" sodipodi:nodetypes="ccccc" transform="matrix(.29477 0 0 .29477 -16.497 -95.959)"/><path style="fill:url(#z);fill-opacity:1;fill-rule:evenodd;stroke:#000;stroke-width:.99740809px;stroke-linecap:butt;stroke-linejoin:miter;stroke-opacity:1" d="M340.091 326.037c91.228 9.323 104.605 17.467 104.605 17.467l8.395 7.312 2.648 8.594-212.702 56.757-3.466-11.54-3.172-16.425-4.738-10.777-7.036-4.436-88.268-13.516-10.032 1.178-8.742 6.895-5.259 10.535 5.398-16.218 14.49-8.177z" inkscape:connector-curvature="0" sodipodi:nodetypes="cccccccccccccccc" transform="matrix(.29477 0 0 .29477 -16.497 -95.959)"/><path d="M113.468 377.237c-.286 1.156-2.767 3.397-3.916 5.21l-.788 1.243" style="fill:none;stroke:#000;stroke-width:1px;stroke-linecap:butt;stroke-linejoin:miter;stroke-opacity:1" inkscape:connector-curvature="0" transform="matrix(.29477 0 0 .29477 -16.497 -95.959)"/><path d="M89.057 394.533c.392-.826 4.976-3.26 10.186-5.41 10.166-4.196 12.98-6.678 17.43-15.377 2.197-4.298 9.868-11.934 11.544-11.495.699.183-.092 1.483-2.015 3.314-3.802 3.622-10.525 17.398-8.977 18.395.934.602 107.884 26.589 116.972 28.422l3.377.682-.911-9.033c-.5-4.968-.66-9.027-.355-9.02.306.008 1.552 4.347 2.77 9.643a5405.485 5405.485 0 0 0 2.564 11.118c.261 1.111-4.682 2.803-19.492 6.67-18.667 4.873-20.145 5.079-24.97 3.476-2.822-.936-4.992-1.834-4.823-1.995.168-.16 6.538-1.754 14.155-3.542 7.617-1.788 13.855-3.501 13.863-3.807.007-.307-23.372-7.152-51.954-15.212l-51.966-14.655-13.45 3.943c-10.092 2.959-12.999 4.16-11.645 4.814.992.48 8.307 2.701 16.256 4.938 7.949 2.236 14.445 4.373 14.436 4.749-.017.716-30.635-7.188-32.584-8.412-.618-.388-.803-1.38-.41-2.206z" style="fill:#000;fill-opacity:.85784314" inkscape:connector-curvature="0" transform="matrix(.29477 0 0 .29477 -16.497 -95.959)"/></g></svg>