<!--Created with Inkscape (http://www.inkscape.org/)--><!--ClipArt creaded by Arvin61r58 (http://openclipart.org/user-detail/Arvin61r58)--><svg xmlns:dc="http://purl.org/dc/elements/1.1/" xmlns:cc="http://creativecommons.org/ns#" xmlns:rdf="http://www.w3.org/1999/02/22-rdf-syntax-ns#" xmlns="http://www.w3.org/2000/svg" xmlns:sodipodi="http://sodipodi.sourceforge.net/DTD/sodipodi-0.dtd" xmlns:inkscape="http://www.inkscape.org/namespaces/inkscape" width="120" height="120" inkscape:version="0.91 r13725" sodipodi:docname="organ.svg"><sodipodi:namedview pagecolor="#ffffff" bordercolor="#666666" borderopacity="1" objecttolerance="10" gridtolerance="10" guidetolerance="10" inkscape:pageopacity="0" inkscape:pageshadow="2" inkscape:window-width="1366" inkscape:window-height="713" showgrid="false" fit-margin-top="0" fit-margin-left="0" fit-margin-right="0" fit-margin-bottom="0" inkscape:zoom="3.1128217" inkscape:cx="120.62281" inkscape:cy="71.502496" inkscape:window-x="-2" inkscape:window-y="-3" inkscape:window-maximized="1" inkscape:current-layer="svg2"/><title>Keyboard</title><path d="M-63.972 790.338H735.94V478.186" style="fill:none;stroke:#828282;stroke-width:14.93252087;stroke-linecap:square;stroke-linejoin:round;stroke-miterlimit:4;stroke-dasharray:none" inkscape:connector-curvature="0" transform="matrix(.14568 0 0 .14655 11.7 -34.914)"/><path d="M616.9 466.276V782.369c0 2.77 2.23 5 5 5h106.468c2.77 0 5-2.23 5-5V466.276H616.9zm-116.036 0V782.369c0 2.77 2.23 5 5 5h106.469c2.77 0 5-2.23 5-5V466.276h-116.47zm-116.036 0V782.369c0 2.77 2.23 5 5 5h106.469c2.77 0 5-2.23 5-5V466.276h-116.47zm-116.036 0V782.369c0 2.77 2.23 5 5 5H380.26c2.77 0 5-2.23 5-5V466.276H268.79zm-116.036 0V782.369c0 2.77 2.23 5 5 5h106.469c2.77 0 5-2.23 5-5V466.276H152.756zm-116.036 0V782.369c0 2.77 2.23 5 5 5H148.19c2.77 0 5-2.23 5-5V466.276H36.72zm-116.036 0V782.369c0 2.77 2.23 5 5 5H32.153c2.77 0 5-2.23 5-5V466.276H-79.316z" style="fill:#fff;fill-opacity:1;stroke:#000;stroke-width:1.9910028;stroke-miterlimit:4;stroke-dasharray:none" inkscape:connector-curvature="0" transform="matrix(.14568 0 0 .14655 11.7 -34.914)"/><path d="M140.14 777.433v209.235c0 4.494 2.704 8.115 6.063 8.115h39.907c3.359 0 6.062-3.62 6.062-8.115V777.434h-52.031z" style="fill:#000;fill-opacity:1;fill-rule:evenodd;stroke:none" inkscape:connector-curvature="0" transform="matrix(-.14568 0 0 .14655 41.055 -80.388)"/><path d="M150.63 790.695v187.202-187.202zm0 188.965h31.968-31.969z" style="fill:#414141;stroke:#414141;stroke-width:8.95951176;stroke-linecap:round;stroke-linejoin:round;stroke-miterlimit:4;stroke-opacity:1;stroke-dasharray:none" inkscape:connector-curvature="0" transform="matrix(-.14568 0 0 .14655 41.055 -80.388)"/><path d="M150.63 790.695v187.202-187.202zm0 188.965h31.968-31.969z" style="fill:#dfdfdf;stroke:#dfdfdf;stroke-width:4.97750664;stroke-linecap:round;stroke-linejoin:round;stroke-miterlimit:4;stroke-opacity:1;stroke-dasharray:none" inkscape:connector-curvature="0" transform="matrix(-.14568 0 0 .14655 41.055 -80.388)"/><path d="M255.967 777.433v209.235c0 4.494 2.703 8.115 6.062 8.115h39.906c3.36 0 6.063-3.62 6.063-8.115V777.434h-52.031z" style="fill:#000;fill-opacity:1;fill-rule:evenodd;stroke:none" inkscape:connector-curvature="0" transform="matrix(-.14568 0 0 .14655 74.8 -80.388)"/><path d="M266.455 790.695v187.202-187.202zm0 188.965h31.969-31.969z" style="fill:#414141;stroke:#414141;stroke-width:8.95951176;stroke-linecap:round;stroke-linejoin:round;stroke-miterlimit:4;stroke-opacity:1;stroke-dasharray:none" inkscape:connector-curvature="0" transform="matrix(-.14568 0 0 .14655 74.8 -80.388)"/><path d="M266.455 790.695v187.202-187.202zm0 188.965h31.969-31.969z" style="fill:#dfdfdf;stroke:#dfdfdf;stroke-width:4.97750664;stroke-linecap:round;stroke-linejoin:round;stroke-miterlimit:4;stroke-opacity:1;stroke-dasharray:none" inkscape:connector-curvature="0" transform="matrix(-.14568 0 0 .14655 74.8 -80.388)"/><g><path d="M488.767 775.998v209.235c0 4.494 2.703 8.115 6.062 8.115h39.906c3.36 0 6.063-3.621 6.063-8.115V775.998h-52.031z" style="fill:#000;fill-opacity:1;fill-rule:evenodd;stroke:none" inkscape:connector-curvature="0" transform="matrix(-.14568 0 0 .14655 142.628 -80.388)"/><path d="M499.255 789.26v187.202V789.26zm0 188.965h31.969-31.969z" style="fill:#414141;stroke:#414141;stroke-width:8.95951176;stroke-linecap:round;stroke-linejoin:round;stroke-miterlimit:4;stroke-opacity:1;stroke-dasharray:none" inkscape:connector-curvature="0" transform="matrix(-.14568 0 0 .14655 142.628 -80.388)"/><path d="M499.255 789.26v187.202V789.26zm0 188.965h31.969-31.969z" style="fill:#dfdfdf;stroke:#dfdfdf;stroke-width:4.97750664;stroke-linecap:round;stroke-linejoin:round;stroke-miterlimit:4;stroke-opacity:1;stroke-dasharray:none" inkscape:connector-curvature="0" transform="matrix(-.14568 0 0 .14655 142.628 -80.388)"/></g><g><path d="M605.68 775.998v209.235c0 4.494 2.703 8.115 6.062 8.115h39.906c3.36 0 6.063-3.621 6.063-8.115V775.998h-52.032z" style="fill:#000;fill-opacity:1;fill-rule:evenodd;stroke:none" inkscape:connector-curvature="0" transform="matrix(-.14568 0 0 .14655 176.69 -80.388)"/><path d="M616.168 789.26v187.202V789.26zm0 188.965h31.969-31.97z" style="fill:#414141;stroke:#414141;stroke-width:8.95951176;stroke-linecap:round;stroke-linejoin:round;stroke-miterlimit:4;stroke-opacity:1;stroke-dasharray:none" inkscape:connector-curvature="0" transform="matrix(-.14568 0 0 .14655 176.69 -80.388)"/><path d="M616.168 789.26v187.202V789.26zm0 188.965h31.969-31.97z" style="fill:#dfdfdf;stroke:#dfdfdf;stroke-width:4.97750664;stroke-linecap:round;stroke-linejoin:round;stroke-miterlimit:4;stroke-opacity:1;stroke-dasharray:none" inkscape:connector-curvature="0" transform="matrix(-.14568 0 0 .14655 176.69 -80.388)"/></g><g><path d="M721.68 775.998v209.235c0 4.494 2.703 8.115 6.062 8.115h39.906c3.36 0 6.063-3.621 6.063-8.115V775.998h-52.032z" style="fill:#000;fill-opacity:1;fill-rule:evenodd;stroke:none" inkscape:connector-curvature="0" transform="matrix(-.14568 0 0 .14655 210.488 -80.388)"/><path d="M732.168 789.26v187.202V789.26zm0 188.965h31.969-31.97z" style="fill:#414141;stroke:#414141;stroke-width:8.95951176;stroke-linecap:round;stroke-linejoin:round;stroke-miterlimit:4;stroke-opacity:1;stroke-dasharray:none" inkscape:connector-curvature="0" transform="matrix(-.14568 0 0 .14655 210.488 -80.388)"/><path d="M732.168 789.26v187.202V789.26zm0 188.965h31.969-31.97z" style="fill:#dfdfdf;stroke:#dfdfdf;stroke-width:4.97750664;stroke-linecap:round;stroke-linejoin:round;stroke-miterlimit:4;stroke-opacity:1;stroke-dasharray:none" inkscape:connector-curvature="0" transform="matrix(-.14568 0 0 .14655 210.488 -80.388)"/></g><metadata><rdf:RDF><cc:Work><dc:format>image/svg+xml</dc:format><dc:type rdf:resource="http://purl.org/dc/dcmitype/StillImage"/><cc:license rdf:resource="http://creativecommons.org/licenses/publicdomain/"/><dc:publisher><cc:Agent rdf:about="http://openclipart.org/"><dc:title>Openclipart</dc:title></cc:Agent></dc:publisher><dc:title>Keyboard</dc:title><dc:date>2013-11-30T17:38:43</dc:date><dc:description>Instrumental Keyboard symbol/pictogram</dc:description><dc:source>http://openclipart.org/detail/189270/keyboard-by-arvin61r58-189270</dc:source><dc:creator><cc:Agent><dc:title>Arvin61r58</dc:title></cc:Agent></dc:creator><dc:subject><rdf:Bag><rdf:li>keyboard</rdf:li><rdf:li>instrumental keyboard</rdf:li><rdf:li>instrument keyboard</rdf:li><rdf:li>instrument</rdf:li><rdf:li>piano</rdf:li><rdf:li>organ</rdf:li><rdf:li>symbol</rdf:li><rdf:li>symbols</rdf:li><rdf:li>pictogram</rdf:li><rdf:li>pictograph</rdf:li></rdf:Bag></dc:subject></cc:Work><cc:License rdf:about="http://creativecommons.org/licenses/publicdomain/"><cc:permits rdf:resource="http://creativecommons.org/ns#Reproduction"/><cc:permits rdf:resource="http://creativecommons.org/ns#Distribution"/><cc:permits rdf:resource="http://creativecommons.org/ns#DerivativeWorks"/></cc:License></rdf:RDF></metadata></svg>