<?xml version="1.0" encoding="UTF-8" standalone="no"?>
<!-- Created with Inkscape (http://www.inkscape.org/) -->

<!-- ClipArt creaded by Arvin61r58 (http://openclipart.org/user-detail/Arvin61r58) -->

<svg
   xmlns:dc="http://purl.org/dc/elements/1.1/"
   xmlns:cc="http://creativecommons.org/ns#"
   xmlns:rdf="http://www.w3.org/1999/02/22-rdf-syntax-ns#"
   xmlns:svg="http://www.w3.org/2000/svg"
   xmlns="http://www.w3.org/2000/svg"
   xmlns:sodipodi="http://sodipodi.sourceforge.net/DTD/sodipodi-0.dtd"
   xmlns:inkscape="http://www.inkscape.org/namespaces/inkscape"
   version="1.1"
   width="120"
   height="120"
   id="svg2"
   inkscape:version="0.91 r13725"
   sodipodi:docname="organ.svg">
  <sodipodi:namedview
     pagecolor="#ffffff"
     bordercolor="#666666"
     borderopacity="1"
     objecttolerance="10"
     gridtolerance="10"
     guidetolerance="10"
     inkscape:pageopacity="0"
     inkscape:pageshadow="2"
     inkscape:window-width="1366"
     inkscape:window-height="713"
     id="namedview35"
     showgrid="false"
     fit-margin-top="0"
     fit-margin-left="0"
     fit-margin-right="0"
     fit-margin-bottom="0"
     inkscape:zoom="3.1128217"
     inkscape:cx="120.62281"
     inkscape:cy="71.502496"
     inkscape:window-x="-2"
     inkscape:window-y="-3"
     inkscape:window-maximized="1"
     inkscape:current-layer="svg2" />
  <title
     id="title4244">Keyboard</title>
  <defs
     id="defs4" />
  <g
     transform="matrix(0.14545456,0,0,0.14545456,-16.534924,-41.320271)"
     id="layer1">
    <g
       transform="matrix(1.0015251,0,0,1.0075216,194.11791,44.032224)"
       id="g4121">
      <g
         transform="translate(-0.00355094,0.01175978)"
         id="g4219">
        <path
           d="m -63.97206,790.3381 110.34027,0 0.40214,0 114.45444,0 0.43307,0 114.42351,0 0.43307,0 114.4235,0 0.43307,0 114.42351,0 0.43307,0 114.42351,0 0.43307,0 114.85658,0 0,0 0,-157.39052 0,-0.71133 0,-136.88552 0,-17.16482"
           id="path4030"
           style="fill:none;stroke:#828282;stroke-width:14.93252087;stroke-linecap:square;stroke-linejoin:round;stroke-miterlimit:4;stroke-dasharray:none"
           inkscape:connector-curvature="0" />
        <path
           d="m 616.89964,466.2756 0,159.03125 0,0.71875 0,156.34375 c 0,2.77 2.23,5 5,5 l 106.46875,0 c 2.77,0 5,-2.23 5,-5 l 0,-156.34375 0,-0.71875 0,-159.03125 -116.46875,0 z m -116.03589,0 0,159.03125 0,0.71875 0,156.34375 c 0,2.77 2.23,5 5,5 l 106.46875,0 c 2.77,0 5,-2.23 5,-5 l 0,-156.34375 0,-0.71875 0,-159.03125 -116.46875,0 z m -116.03589,0 0,159.03125 0,0.71875 0,156.34375 c 0,2.77 2.23,5 5,5 l 106.46875,0 c 2.77,0 5,-2.23 5,-5 l 0,-156.34375 0,-0.71875 0,-159.03125 -116.46875,0 z m -116.03593,0 0,159.03125 0,0.71875 0,156.34375 c 0,2.77 2.23,5 5,5 l 106.46876,0 c 2.77,0 5,-2.23 5,-5 l 0,-156.34375 0,-0.71875 0,-159.03125 -116.46876,0 z m -116.03592,0 0,159.03125 0,0.71875 0,156.34375 c 0,2.77 2.23,5 5,5 l 106.46875,0 c 2.77,0 5,-2.23 5,-5 l 0,-156.34375 0,-0.71875 0,-159.03125 -116.46875,0 z m -116.03589,0 0,159.03125 0,0.71875 0,156.34375 c 0,2.77 2.23,5 5,5 l 106.46874,0 c 2.77,0 5,-2.23 5,-5 l 0,-156.34375 0,-0.71875 0,-159.03125 -116.46874,0 z m -116.03592,0 0,159.03125 0,0.71875 0,156.34375 c 0,2.77 2.23,5 5,5 l 106.46875,0 c 2.77,0 5,-2.23 5,-5 l 0,-156.34375 0,-0.71875 0,-159.03125 -116.46875,0 z"
           id="path3051"
           style="fill:#ffffff;fill-opacity:1;stroke:#000000;stroke-width:1.9910028;stroke-miterlimit:4;stroke-dasharray:none"
           inkscape:connector-curvature="0" />
        <g
           transform="translate(-199.10366,409.30998)"
           id="g4075">
          <g
             transform="matrix(-1,0,0,1,400.61042,-719.60865)"
             id="g3906">
            <path
               d="m 140.14077,777.43329 0,105.81088 0,1.1138 0,102.31036 c 0,4.49388 2.70314,8.11482 6.0625,8.11482 l 39.90625,0 c 3.35936,0 6.0625,-3.62094 6.0625,-8.11482 l 0,-102.31036 0,-1.1138 0,-105.81088 -52.03125,0 z"
               id="rect3790"
               style="fill:#000000;fill-opacity:1;fill-rule:evenodd;stroke:none"
               inkscape:connector-curvature="0" />
            <path
               d="m 150.6292,790.69528 0,187.20157 0,-187.20157 z m 0,188.96478 31.96875,0 -31.96875,0 z"
               id="path3808"
               style="fill:#414141;stroke:#414141;stroke-width:8.95951176;stroke-linecap:round;stroke-linejoin:round;stroke-miterlimit:4;stroke-opacity:1;stroke-dasharray:none"
               inkscape:connector-curvature="0" />
            <path
               d="m 150.62921,790.69528 0,187.20157 0,-187.20157 z m 0,188.96478 31.96875,0 -31.96875,0 z"
               id="path3833"
               style="fill:#dfdfdf;stroke:#dfdfdf;stroke-width:4.97750664;stroke-linecap:round;stroke-linejoin:round;stroke-miterlimit:4;stroke-opacity:1;stroke-dasharray:none"
               inkscape:connector-curvature="0" />
          </g>
          <g
             transform="matrix(-1,0,0,1,632.26218,-719.60865)"
             id="g3901">
            <path
               d="m 255.96665,777.43329 0,105.81088 0,1.1138 0,102.31036 c 0,4.49388 2.70314,8.11482 6.0625,8.11482 l 39.90625,0 c 3.35936,0 6.0625,-3.62094 6.0625,-8.11482 l 0,-102.31036 0,-1.1138 0,-105.81088 -52.03125,0 z"
               id="path3843"
               style="fill:#000000;fill-opacity:1;fill-rule:evenodd;stroke:none"
               inkscape:connector-curvature="0" />
            <path
               d="m 266.45508,790.69528 0,187.20157 0,-187.20157 z m 0,188.96478 31.96875,0 -31.96875,0 z"
               id="path3847"
               style="fill:#414141;stroke:#414141;stroke-width:8.95951176;stroke-linecap:round;stroke-linejoin:round;stroke-miterlimit:4;stroke-opacity:1;stroke-dasharray:none"
               inkscape:connector-curvature="0" />
            <path
               d="m 266.45509,790.69528 0,187.20157 0,-187.20157 z m 0,188.96478 31.96875,0 -31.96875,0 z"
               id="path3849"
               style="fill:#dfdfdf;stroke:#dfdfdf;stroke-width:4.97750664;stroke-linecap:round;stroke-linejoin:round;stroke-miterlimit:4;stroke-opacity:1;stroke-dasharray:none"
               inkscape:connector-curvature="0" />
          </g>
          <g
             transform="matrix(-1,0,0,1,1097.862,-719.60865)"
             id="g3896">
            <path
               d="m 488.76656,775.99799 0,105.81088 0,1.1138 0,102.31036 c 0,4.49388 2.70314,8.11482 6.0625,8.11482 l 39.90625,0 c 3.35936,0 6.0625,-3.62094 6.0625,-8.11482 l 0,-102.31036 0,-1.1138 0,-105.81088 -52.03125,0 z"
               id="path3853"
               style="fill:#000000;fill-opacity:1;fill-rule:evenodd;stroke:none"
               inkscape:connector-curvature="0" />
            <path
               d="m 499.25499,789.25998 0,187.20157 0,-187.20157 z m 0,188.96478 31.96875,0 -31.96875,0 z"
               id="path3857"
               style="fill:#414141;stroke:#414141;stroke-width:8.95951176;stroke-linecap:round;stroke-linejoin:round;stroke-miterlimit:4;stroke-opacity:1;stroke-dasharray:none"
               inkscape:connector-curvature="0" />
            <path
               d="m 499.255,789.25998 0,187.20157 0,-187.20157 z m 0,188.96478 31.96875,0 -31.96875,0 z"
               id="path3859"
               style="fill:#dfdfdf;stroke:#dfdfdf;stroke-width:4.97750664;stroke-linecap:round;stroke-linejoin:round;stroke-miterlimit:4;stroke-opacity:1;stroke-dasharray:none"
               inkscape:connector-curvature="0" />
          </g>
          <g
             transform="matrix(-1,0,0,1,1331.6879,-719.60865)"
             id="g3891">
            <path
               d="m 605.6795,775.99799 0,105.81088 0,1.1138 0,102.31036 c 0,4.49388 2.70314,8.11482 6.0625,8.11482 l 39.90625,0 c 3.35936,0 6.0625,-3.62094 6.0625,-8.11482 l 0,-102.31036 0,-1.1138 0,-105.81088 -52.03125,0 z"
               id="path3863"
               style="fill:#000000;fill-opacity:1;fill-rule:evenodd;stroke:none"
               inkscape:connector-curvature="0" />
            <path
               d="m 616.16793,789.25998 0,187.20157 0,-187.20157 z m 0,188.96478 31.96875,0 -31.96875,0 z"
               id="path3867"
               style="fill:#414141;stroke:#414141;stroke-width:8.95951176;stroke-linecap:round;stroke-linejoin:round;stroke-miterlimit:4;stroke-opacity:1;stroke-dasharray:none"
               inkscape:connector-curvature="0" />
            <path
               d="m 616.16794,789.25998 0,187.20157 0,-187.20157 z m 0,188.96478 31.96875,0 -31.96875,0 z"
               id="path3869"
               style="fill:#dfdfdf;stroke:#dfdfdf;stroke-width:4.97750664;stroke-linecap:round;stroke-linejoin:round;stroke-miterlimit:4;stroke-opacity:1;stroke-dasharray:none"
               inkscape:connector-curvature="0" />
          </g>
          <g
             transform="matrix(-1,0,0,1,1563.6879,-719.60865)"
             id="g3886">
            <path
               d="m 721.6795,775.99799 0,105.81088 0,1.1138 0,102.31036 c 0,4.49388 2.70314,8.11482 6.0625,8.11482 l 39.90625,0 c 3.35936,0 6.0625,-3.62094 6.0625,-8.11482 l 0,-102.31036 0,-1.1138 0,-105.81088 -52.03125,0 z"
               id="path3873"
               style="fill:#000000;fill-opacity:1;fill-rule:evenodd;stroke:none"
               inkscape:connector-curvature="0" />
            <path
               d="m 732.16793,789.25998 0,187.20157 0,-187.20157 z m 0,188.96478 31.96875,0 -31.96875,0 z"
               id="path3877"
               style="fill:#414141;stroke:#414141;stroke-width:8.95951176;stroke-linecap:round;stroke-linejoin:round;stroke-miterlimit:4;stroke-opacity:1;stroke-dasharray:none"
               inkscape:connector-curvature="0" />
            <path
               d="m 732.16794,789.25998 0,187.20157 0,-187.20157 z m 0,188.96478 31.96875,0 -31.96875,0 z"
               id="path3879"
               style="fill:#dfdfdf;stroke:#dfdfdf;stroke-width:4.97750664;stroke-linecap:round;stroke-linejoin:round;stroke-miterlimit:4;stroke-opacity:1;stroke-dasharray:none"
               inkscape:connector-curvature="0" />
          </g>
        </g>
      </g>
    </g>
  </g>
  <metadata
     id="metadata33">
    <rdf:RDF>
      <cc:Work>
        <dc:format>image/svg+xml</dc:format>
        <dc:type
           rdf:resource="http://purl.org/dc/dcmitype/StillImage" />
        <cc:license
           rdf:resource="http://creativecommons.org/licenses/publicdomain/" />
        <dc:publisher>
          <cc:Agent
             rdf:about="http://openclipart.org/">
            <dc:title>Openclipart</dc:title>
          </cc:Agent>
        </dc:publisher>
        <dc:title>Keyboard</dc:title>
        <dc:date>2013-11-30T17:38:43</dc:date>
        <dc:description>Instrumental Keyboard symbol/pictogram</dc:description>
        <dc:source>http://openclipart.org/detail/189270/keyboard-by-arvin61r58-189270</dc:source>
        <dc:creator>
          <cc:Agent>
            <dc:title>Arvin61r58</dc:title>
          </cc:Agent>
        </dc:creator>
        <dc:subject>
          <rdf:Bag>
            <rdf:li>keyboard</rdf:li>
            <rdf:li>instrumental keyboard</rdf:li>
            <rdf:li>instrument keyboard</rdf:li>
            <rdf:li>instrument</rdf:li>
            <rdf:li>piano</rdf:li>
            <rdf:li>organ</rdf:li>
            <rdf:li>symbol</rdf:li>
            <rdf:li>symbols</rdf:li>
            <rdf:li>pictogram</rdf:li>
            <rdf:li>pictograph</rdf:li>
          </rdf:Bag>
        </dc:subject>
      </cc:Work>
      <cc:License
         rdf:about="http://creativecommons.org/licenses/publicdomain/">
        <cc:permits
           rdf:resource="http://creativecommons.org/ns#Reproduction" />
        <cc:permits
           rdf:resource="http://creativecommons.org/ns#Distribution" />
        <cc:permits
           rdf:resource="http://creativecommons.org/ns#DerivativeWorks" />
      </cc:License>
    </rdf:RDF>
  </metadata>
</svg>
