<svg xmlns:dc="http://purl.org/dc/elements/1.1/" xmlns:cc="http://creativecommons.org/ns#" xmlns:rdf="http://www.w3.org/1999/02/22-rdf-syntax-ns#" xmlns="http://www.w3.org/2000/svg" width="120" height="120" viewBox="0 0 120 120" version="1.1" id="svg1379"><metadata id="metadata1376"><rdf:RDF><cc:Work><dc:format>image/svg+xml</dc:format><dc:type rdf:resource="http://purl.org/dc/dcmitype/StillImage"/><dc:title/><dc:date>2023</dc:date><dc:creator><cc:Agent><dc:title>Timothée Giet</dc:title></cc:Agent></dc:creator><cc:license rdf:resource="http://creativecommons.org/licenses/by-sa/4.0/"/></cc:Work><cc:License rdf:about="http://creativecommons.org/licenses/by-sa/4.0/"><cc:permits rdf:resource="http://creativecommons.org/ns#Reproduction"/><cc:permits rdf:resource="http://creativecommons.org/ns#Distribution"/><cc:requires rdf:resource="http://creativecommons.org/ns#Notice"/><cc:requires rdf:resource="http://creativecommons.org/ns#Attribution"/><cc:permits rdf:resource="http://creativecommons.org/ns#DerivativeWorks"/><cc:requires rdf:resource="http://creativecommons.org/ns#ShareAlike"/></cc:License></rdf:RDF></metadata><g id="layer2" style="display:inline"><path id="path4145-5" style="display:inline;fill:#a8a5a3;fill-opacity:1;stroke:#333;stroke-width:1;stroke-linecap:round;stroke-linejoin:miter;stroke-miterlimit:4;stroke-dasharray:none;stroke-opacity:1" d="M13.48 77.685c-.067 2.223.437 5.61.47 7.592.273 5.671 20.892 13.192 46.884 13.192 25.991 0 46.938-7.991 47.062-12.518-.012-2.567-.08-5.745 0-8.543 0-6.913-21.07-12.518-47.118-12.504-26.047.013-47.476 4.714-47.298 12.781z"/><path style="opacity:1;fill:#be2a2a;fill-opacity:1;stroke:#551a1a;stroke-width:1;stroke-linecap:round;stroke-linejoin:miter;stroke-miterlimit:4;stroke-dasharray:none;stroke-opacity:1" d="m12.774 44.303 2.366 34.518s12.434 11.03 46.162 11.03 44.61-11.074 44.61-11.074l1.334-34.462z" id="path4188"/><path id="path4145" style="opacity:1;fill:#a8a5a3;fill-opacity:1;stroke:#333;stroke-width:1;stroke-linecap:round;stroke-linejoin:miter;stroke-miterlimit:4;stroke-dasharray:none;stroke-opacity:1" d="M59.827 21.531c-27.34.027-49.447 5.624-49.447 12.518-.07 2.223-.035 6.562 0 8.543 0 6.913 22.225 12.518 49.64 12.518 27.416 0 49.64-5.605 49.641-12.518-.013-2.567-.085-5.745 0-8.543 0-6.913-22.225-12.518-49.64-12.518z"/><ellipse style="opacity:1;fill:#8a8883;fill-opacity:1;stroke:none;stroke-width:1;stroke-linecap:round;stroke-linejoin:miter;stroke-miterlimit:4;stroke-dasharray:none;stroke-opacity:.647059" id="path4352" cx="59.801022" cy="34.569351" rx="48.262062" ry="12.77499"/><path id="path4190" style="opacity:1;fill:#e5e6e3;fill-opacity:.88627505;stroke:#6c6c6c;stroke-width:1;stroke-linecap:round;stroke-linejoin:miter;stroke-miterlimit:4;stroke-dasharray:none;stroke-opacity:1" d="M60.262 23.934a46.51 12.034 0 0 0-46.51 12.035 46.51 12.034 0 0 0 4.181 4.986c8.776 3.532 24.34 5.883 42.087 5.883 18.849 0 35.244-2.649 43.65-6.55l.004-.003a46.51 12.034 0 0 0 3.096-4.316 46.51 12.034 0 0 0-46.508-12.035z"/><path id="path4286" style="opacity:1;fill:#b8b6b4;fill-opacity:1;stroke:#333;stroke-width:1;stroke-linecap:round;stroke-linejoin:miter;stroke-miterlimit:4;stroke-dasharray:none;stroke-opacity:1" d="M19.177 61.154a1.534 1.534 0 0 0-.164.006c-1.609.131-2.712 2.724-2.465 5.791.248 3.069 1.754 5.451 3.364 5.32 1.609-.13 2.712-2.723 2.464-5.79-.237-2.948-1.641-5.286-3.199-5.326zm81.994 0c-1.558.04-2.962 2.379-3.2 5.327-.247 3.067.856 5.66 2.466 5.79 1.61.131 3.115-2.251 3.363-5.32.247-3.067-.856-5.66-2.465-5.79a1.521 1.521 0 0 0-.164-.007zM76.144 67.65c-2.826.03-5.1 2.518-5.1 5.574 0 3.078 2.307 5.572 5.152 5.572s5.152-2.494 5.153-5.572c0-3.079-2.307-5.574-5.153-5.574h-.052zm-33.64.023c-2.825.03-5.101 2.517-5.1 5.574 0 3.078 2.307 5.573 5.152 5.573s5.151-2.495 5.152-5.573c0-3.078-2.307-5.574-5.152-5.574h-.051z"/><path id="path4440-1" style="display:inline;fill:#7f7e76;fill-opacity:1;stroke:none;stroke-width:.5;stroke-linecap:round;stroke-linejoin:miter;stroke-miterlimit:4;stroke-dasharray:none;stroke-opacity:1" d="M16.184 42.1a2.416 2.053 21.839 0 0-1.96 1.207 2.416 2.053 21.839 0 0 1.48 2.806 2.416 2.053 21.839 0 0 3.005-1.008 2.416 2.053 21.839 0 0-1.479-2.804 2.416 2.053 21.839 0 0-1.046-.201zm88.15 0a2.053 2.416 68.161 0 0-1.045.2 2.053 2.416 68.161 0 0-1.48 2.805 2.053 2.416 68.161 0 0 3.007 1.006 2.053 2.416 68.161 0 0 1.479-2.804 2.053 2.416 68.161 0 0-1.961-1.207zm-62.98 6.11a3.02 2.053 0 0 0-3.018 2.054 3.02 2.053 0 0 0 3.021 2.054 3.02 2.053 0 0 0 3.02-2.054 3.02 2.053 0 0 0-3.02-2.053 3.02 2.053 0 0 0-.003 0zm36.265 0a3.222 2.053 0 0 0-3.223 2.054 3.222 2.053 0 0 0 3.223 2.054 3.222 2.053 0 0 0 3.22-2.054 3.222 2.053 0 0 0-3.22-2.053zm-59.615 35.6a2.416 2.053 20.97 0 0-1.942 1.239 2.416 2.053 20.97 0 0 1.522 2.781 2.416 2.053 20.97 0 0 2.99-1.053 2.416 2.053 20.97 0 0-1.521-2.78 2.416 2.053 20.97 0 0-1.05-.186zm84.377 0a2.053 2.416 69.03 0 0-.916.186 2.053 2.416 69.03 0 0-1.522 2.783 2.053 2.416 69.03 0 0 2.993 1.053 2.053 2.416 69.03 0 0 1.521-2.783 2.053 2.416 69.03 0 0-2.076-1.238zm-60.067 7.71a3.02 2.053 0 0 0-3.017 2.054 3.02 2.053 0 0 0 3.021 2.053 3.02 2.053 0 0 0 3.02-2.053 3.02 2.053 0 0 0-3.02-2.054 3.02 2.053 0 0 0-.004 0zm34.248 0a3.222 2.053 0 0 0-3.222 2.054 3.222 2.053 0 0 0 3.222 2.053 3.222 2.053 0 0 0 3.221-2.053 3.222 2.053 0 0 0-3.22-2.054z"/><path id="rect4224" style="opacity:1;fill:#b8b6b4;fill-opacity:1;stroke:#333;stroke-width:1;stroke-linecap:round;stroke-linejoin:miter;stroke-miterlimit:4;stroke-dasharray:none;stroke-opacity:1" d="m16.757 43.427-.906.038c-.309.012-.547.257-.533.55l1.953 42.003c.014.292.273.518.582.506l.906-.037a.537.537 0 0 0 .531-.55l-1.95-42.004c-.014-.292-.274-.518-.583-.506zm87.062 0c-.308-.012-.568.214-.582.506l-1.95 42.003a.537.537 0 0 0 .53.55l.909.038a.545.545 0 0 0 .58-.506l1.953-42.003c.013-.293-.225-.538-.533-.55zm-26.595 6.085a.564.564 0 0 0-.59.537l-.951 43.6c-.007.304.246.553.566.56l.865.016c.32.006.583-.233.59-.537l.953-43.6c.007-.304-.246-.553-.566-.56zm-35.438.096-.865.017c-.32.006-.573.255-.567.56l.952 43.6c.006.303.27.543.59.536l.865-.016c.32-.006.573-.256.566-.56l-.951-43.6a.564.564 0 0 0-.59-.537z"/><ellipse style="opacity:1;fill:#cac9c6;fill-opacity:1;stroke:none;stroke-width:1;stroke-linecap:round;stroke-linejoin:miter;stroke-miterlimit:4;stroke-dasharray:none;stroke-opacity:1" id="path4350" cx="60.416279" cy="35.359722" rx="18.216759" ry="5.1004682"/><circle style="opacity:1;fill:#b8b6b4;fill-opacity:1;stroke:#333;stroke-width:1;stroke-linecap:round;stroke-linejoin:miter;stroke-miterlimit:4;stroke-dasharray:none;stroke-opacity:1" id="path4354" cx="41.668671" cy="73.460861" r="2.359062"/><circle style="display:inline;fill:#b8b6b4;fill-opacity:1;stroke:#333;stroke-width:1;stroke-linecap:round;stroke-linejoin:miter;stroke-miterlimit:4;stroke-dasharray:none;stroke-opacity:1" id="path4354-2" cx="77.219231" cy="73.460861" r="2.359062"/><ellipse style="display:inline;fill:#b8b6b4;fill-opacity:1;stroke:#333;stroke-width:1;stroke-linecap:round;stroke-linejoin:miter;stroke-miterlimit:4;stroke-dasharray:none;stroke-opacity:1" id="path4354-4" cx="17.492537" cy="66.882652" rx="2.0246737" ry="2.359062"/><ellipse style="display:inline;fill:#b8b6b4;fill-opacity:1;stroke:#333;stroke-width:1;stroke-linecap:round;stroke-linejoin:miter;stroke-miterlimit:4;stroke-dasharray:none;stroke-opacity:1" id="path4354-4-7" cx="103.16754" cy="66.882652" rx="2.0246737" ry="2.359062"/></g></svg>