<svg xmlns:dc="http://purl.org/dc/elements/1.1/" xmlns:cc="http://creativecommons.org/ns#" xmlns:rdf="http://www.w3.org/1999/02/22-rdf-syntax-ns#" xmlns="http://www.w3.org/2000/svg" width="120" height="120" viewBox="0 0 120 120" version="1.1" id="svg1379"><metadata id="metadata1376"><rdf:RDF><cc:Work><dc:format>image/svg+xml</dc:format><dc:type rdf:resource="http://purl.org/dc/dcmitype/StillImage"/><dc:title/><dc:date>2023</dc:date><dc:creator><cc:Agent><dc:title>Timothée Giet</dc:title></cc:Agent></dc:creator><cc:license rdf:resource="http://creativecommons.org/licenses/by-sa/4.0/"/></cc:Work><cc:License rdf:about="http://creativecommons.org/licenses/by-sa/4.0/"><cc:permits rdf:resource="http://creativecommons.org/ns#Reproduction"/><cc:permits rdf:resource="http://creativecommons.org/ns#Distribution"/><cc:requires rdf:resource="http://creativecommons.org/ns#Notice"/><cc:requires rdf:resource="http://creativecommons.org/ns#Attribution"/><cc:permits rdf:resource="http://creativecommons.org/ns#DerivativeWorks"/><cc:requires rdf:resource="http://creativecommons.org/ns#ShareAlike"/></cc:License></rdf:RDF></metadata><g id="layer1"><path style="fill:#878787;fill-opacity:1;stroke:#2f2f2f;stroke-width:1.5;stroke-linecap:round;stroke-miterlimit:4;stroke-dasharray:none;stroke-opacity:1" d="M28.477 95.589s-1.335 5.26-.312 5.66c1.022.4 6.261-4.532 6.261-4.532l-.158-2.055-3.274-.138z" id="path1099-2"/><path id="path1069-9-3" style="fill:none;fill-opacity:1;stroke:#271d1c;stroke-width:1.5;stroke-linecap:round;stroke-miterlimit:4;stroke-dasharray:none;stroke-opacity:1" d="M59.482 11.318a41.773 9.499 0 0 0-41.255 9.498A41.773 9.499 0 0 0 60 30.316a41.773 9.499 0 0 0 41.773-9.5A41.773 9.499 0 0 0 60 11.318a41.773 9.499 0 0 0-.518 0zm-38.937 13.47.139 1.77c-3.783.076-4.913 6.335-4.913 6.335l6.784 33.67 13.968 21.814c-2.11-.076-4.355.16-4.779 1.445-.834 2.531-.498 5.137-.498 5.137l2.838-.459c.99-.795 3.478-1.599 4.453-1.648.129.325.29.647.5.96l.037.18.178.102c2.511 3.306 9.49 5.821 18.182 6.242 3.402 1.893 7.35 3.046 12.082 2.103 5.255 1 16.95 3.45 17.826 4.092.876.643 2.565 2.078 3.408 1.836-.343-2.574-6.758-5.64-17.713-9.79 3.577-1.122 6.175-2.659 7.54-4.384l.349-.2.088-.425c.424-.705.652-1.437.652-2.18 0-.056-.007-.111-.01-.167l15.79-24.659 6.783-33.67s-1.098-6.094-4.758-6.331l.222-1.657s-8.405 6.278-39.1 6.278c-30.694 0-40.048-6.395-40.048-6.395zm77.738 5.808c1.23.271 2.195 1.156 2.01 2.021-.25 1.166-4.53 24.58-5.045 25.453-.514.874-3.744 8.272-3.744 8.272l.38 2.146-11.868 19.457a9.9 9.9 0 0 0-1.12-.953l13.907-27.638 1.552-13.055-4.945 6.435-.857 8.389-12.026 24.453a23.081 23.081 0 0 0-2.117-.896l3.242-9.164 1.785-2.715-.001-6.188 1.525-13.892.713-1.069s2.277-13.708 1.31-16.521c-.039-.114-.084-.213-.125-.322 9.08-1.421 13.821-3.425 15.424-4.213zm-76.922.107c1.093.454 6.178 2.404 15.858 3.902-.068.175-.14.34-.203.526-.967 2.813 1.31 16.521 1.31 16.521l.713 1.069 1.525 13.892-.002 6.188 1.786 2.715 3.23 9.13c-.756.278-1.467.575-2.123.893L31.447 61.123l-.857-8.389-4.945-6.435 1.552 13.055L41.078 86.94c-.416.304-.804.614-1.135.938l-11.828-19.39.381-2.147s-3.23-7.398-3.744-8.272c-.515-.873-4.795-24.287-5.045-25.453-.167-.779.604-1.564 1.654-1.914zm21.221 4.615c5.25.59 11.465.996 18.74.996 6.382 0 11.786-.334 16.385-.834 1.032.686 1.657 2.821 1.547 3.704-.132 1.056-2.753 24.339-3.219 25.574-.466 1.235-1.64 2.628-1.674 4.168-.033 1.54.075 5.525.075 5.525l-3.295 9.227a40.915 40.915 0 0 0-4.356-.838l2.676-13.46-3.033 1.19-2.297 11.98a51.8 51.8 0 0 0-4.182-.171h-.072a51.778 51.778 0 0 0-4.01.164L53.572 70.57l-3.033-1.19 2.672 13.446a41.08 41.08 0 0 0-4.361.828l-3.286-9.203s.108-3.986.075-5.525c-.034-1.54-1.208-2.933-1.674-4.168-.466-1.235-3.087-24.518-3.219-25.574-.12-.964.63-3.435 1.836-3.866z"/><path style="fill:#2f2f2f;fill-opacity:1;stroke:#353232;stroke-width:1;stroke-linecap:round;stroke-miterlimit:4;stroke-dasharray:none;stroke-opacity:1" d="m59.118 77.51-1.76-3.587" id="path1039-0"/><path style="fill:#72453c;fill-opacity:1;stroke:#271d1c;stroke-width:.5;stroke-linecap:round;stroke-miterlimit:4;stroke-dasharray:none;stroke-opacity:1" d="m25.644 46.298 1.554 13.056 14.326 28.472 2.446-1.238-12.523-25.465-.857-8.389z" id="path1069-9"/><path style="fill:#72453c;fill-opacity:1;stroke:#271d1c;stroke-width:.5;stroke-linecap:round;stroke-miterlimit:4;stroke-dasharray:none;stroke-opacity:1" d="m94.356 46.298-1.554 13.056-14.326 28.472-2.446-1.238 12.523-25.465.857-8.389z" id="path1069"/><path style="fill:#72453c;fill-opacity:1;stroke:#353232;stroke-width:.5;stroke-linecap:round;stroke-miterlimit:4;stroke-dasharray:none;stroke-opacity:1" d="m63.753 84.52 2.675-13.949 3.034-1.19-3.15 15.84z" id="path1071"/><path style="fill:#2f2f2f;fill-opacity:1;stroke:#353232;stroke-width:1;stroke-linecap:round;stroke-miterlimit:4;stroke-dasharray:none;stroke-opacity:1" d="M62.074 78.032 90.1 59.98" id="path1037"/><path style="fill:#2f2f2f;fill-opacity:1;stroke:#353232;stroke-width:1;stroke-linecap:round;stroke-miterlimit:4;stroke-dasharray:none;stroke-opacity:1" d="m60.882 77.51 1.76-3.587" id="path1039"/><path style="fill:#72453c;fill-opacity:1;stroke:#353232;stroke-width:.5;stroke-linecap:round;stroke-miterlimit:4;stroke-dasharray:none;stroke-opacity:1" d="M56.247 84.52 53.572 70.57l-3.034-1.19 3.15 15.84z" id="path1071-3"/><path style="fill:#2f2f2f;fill-opacity:1;stroke:#353232;stroke-width:1;stroke-linecap:round;stroke-miterlimit:4;stroke-dasharray:none;stroke-opacity:1" d="M57.926 78.032 30.91 61.115" id="path1037-2"/><path style="fill:#eeaf64;fill-opacity:1;stroke:#49300f;stroke-width:1;stroke-linecap:round;stroke-opacity:1;stroke-miterlimit:4;stroke-dasharray:none" d="M20.838 23.28c0 28.339 12.987 52.278 37.906 52.278 24.92 0 40.418-26.155 40.418-52.19-52.363-5.355-78.324-.088-78.324-.088z" id="path898"/><path style="fill:#efedee;fill-opacity:1;stroke:none;stroke-width:1;stroke-linecap:round;stroke-miterlimit:4;stroke-dasharray:none;stroke-opacity:1" d="m20.762 22.719.114 3.899s21.201 7.071 37.803 6.577c16.602-.495 38.384-5.152 39.878-6.915 1.495-1.764.184-3.115.184-3.115s-11.931 5.94-38.962 5.758c-27.03-.182-34.863-4.61-39.017-6.204z" id="path1103"/><ellipse style="fill:#72453c;fill-opacity:1;stroke:#271d1c;stroke-width:.5;stroke-linecap:round;stroke-miterlimit:4;stroke-dasharray:none;stroke-opacity:1" id="path876-3" cx="60" cy="20.817251" rx="41.773384" ry="9.4987717"/><path style="fill:#2f2f2f;fill-opacity:1;stroke:#353232;stroke-width:1;stroke-linecap:round;stroke-miterlimit:4;stroke-dasharray:none;stroke-opacity:1" d="M57.626 78.725 24.882 67.162" id="path1035-7"/><path style="fill:#72453c;fill-opacity:1;stroke:#271d1c;stroke-width:.5;stroke-linecap:round;stroke-miterlimit:4;stroke-dasharray:none;stroke-opacity:1" d="M20.999 30.554s12.747 5.76 40.323 5.76c27.575 0 37.65-6.07 37.65-6.07l.722-5.34s-8.405 6.278-39.1 6.278c-30.694 0-40.049-6.395-40.049-6.395z" id="path900"/><path style="fill:#2f2f2f;fill-opacity:1;stroke:#353232;stroke-width:1;stroke-linecap:round;stroke-miterlimit:4;stroke-dasharray:none;stroke-opacity:1" d="m62.374 78.725 32.744-11.563" id="path1035"/><path style="fill:#361a18;fill-opacity:1;stroke:#261716;stroke-width:1;stroke-linecap:round;stroke-opacity:1;stroke-miterlimit:4;stroke-dasharray:none" d="M91.27 108.345s2.328-.536 2.002-1.444c-.326-.908-17.212-11.341-17.212-11.341l-4.282 1.994s19.153 7.947 19.492 10.79z" id="path950"/><path id="path946" style="fill:#72453c;fill-opacity:1;stroke:#271d1c;stroke-width:.5;stroke-linecap:round;stroke-miterlimit:4;stroke-dasharray:none;stroke-opacity:1" d="M59.876 82.379c-11.965.017-21.644 4.046-21.642 9.01 0 4.57 8.254 8.417 19.2 8.947 3.401 1.893 7.349 3.046 12.081 2.103 5.256 1 16.95 3.45 17.826 4.092.877.643 2.566 2.078 3.408 1.836-.343-2.574-6.758-5.64-17.712-9.79 5.433-1.703 8.627-4.364 8.629-7.188.001-4.976-9.722-9.01-21.717-9.01z"/><path style="fill:#72453c;fill-opacity:1;stroke:#271d1c;stroke-width:.5;stroke-linecap:round;stroke-miterlimit:4;stroke-dasharray:none;stroke-opacity:1" d="M77.057 35.247c1.416 0 2.329 2.88 2.197 3.937-.131 1.056-2.753 24.34-3.219 25.575-.466 1.234-1.64 2.627-1.674 4.166-.033 1.54.074 5.526.074 5.526l-7.387 20.691-2.268.685.091 3.538 6.593-1.264-.04-3.514-.607.248 6.835-19.32 1.785-2.715-.002-6.187L80.96 52.72l.713-1.07s2.277-13.708 1.31-16.521c-.966-2.813-2.394-4.294-4.608-4.24-2.215.054-2.733 4.357-1.318 4.357z" id="path902"/><path style="fill:#72453c;fill-opacity:1;stroke:#271d1c;stroke-width:.5;stroke-linecap:round;stroke-miterlimit:4;stroke-dasharray:none;stroke-opacity:1" d="M42.943 35.247c-1.416 0-2.329 2.88-2.197 3.937.131 1.056 2.753 24.34 3.219 25.575.466 1.234 1.64 2.627 1.674 4.166.033 1.54-.074 5.526-.074 5.526l7.387 20.691 2.268.685-.091 3.538-6.593-1.264.04-3.514.607.248-6.835-19.32-1.785-2.715.002-6.187L39.04 52.72l-.713-1.07s-2.277-13.708-1.31-16.521c.966-2.813 2.394-4.294 4.608-4.24 2.215.054 2.733 4.357 1.318 4.357z" id="path902-6"/><path style="fill:#72453c;fill-opacity:1;stroke:#271d1c;stroke-width:.5;stroke-linecap:round;stroke-miterlimit:4;stroke-dasharray:none;stroke-opacity:1" d="M98.041 26.733c-1.97.63-2.861 4.142-1.097 3.827 1.764-.316 3.598.892 3.349 2.058-.25 1.166-4.53 24.58-5.044 25.453-.515.873-3.745 8.27-3.745 8.27l.382 2.148-13.947 22.862-.156 4.444 3.143-1.803.5-2.412 16.02-25.018 6.783-33.67s-1.37-7.673-6.188-6.16z" id="path924"/><path style="fill:#72453c;fill-opacity:1;stroke:#271d1c;stroke-width:.5;stroke-linecap:round;stroke-miterlimit:4;stroke-dasharray:none;stroke-opacity:1" d="M34.083 94.5c1.07-.858 3.907-1.74 4.676-1.657.77.083 1.725-4.027 1.725-4.027s-7.905-1.525-8.74 1.006c-.834 2.532-.497 5.137-.497 5.137z" id="path1101"/><path style="fill:#72453c;fill-opacity:1;stroke:#271d1c;stroke-width:.5;stroke-linecap:round;stroke-miterlimit:4;stroke-dasharray:none;stroke-opacity:1" d="M21.959 26.733c1.97.63 2.861 4.142 1.097 3.827-1.764-.316-3.598.892-3.349 2.058.25 1.166 4.53 24.58 5.044 25.453.515.873 3.745 8.27 3.745 8.27l-.382 2.148 13.947 22.862.156 4.444-3.143-1.803-.5-2.412-16.02-25.018-6.783-33.67s1.37-7.673 6.188-6.16z" id="path924-7"/><path style="fill:#9c9c9c;fill-opacity:1;stroke:#2e2e2e;stroke-width:1;stroke-linecap:round;stroke-miterlimit:4;stroke-dasharray:none;stroke-opacity:1" d="M76.254 87.78c-6.604.902 2.648 8.918 5.828 11.464.734.589 10.074 8.549 12.724 6.91 1.945-1.204-3.277-6.07-6.042-9-3.45-3.658-9.131-9.837-12.51-9.375z" id="path952"/><path style="fill:#ababab;fill-opacity:1;stroke:#2e2e2e;stroke-width:.5;stroke-linecap:round;stroke-linejoin:round;stroke-miterlimit:4;stroke-dasharray:none;stroke-opacity:1" d="m83.334 26.85-5.224.808.096 1.23 5.45-.725z" id="path957"/><rect style="fill:#ababab;fill-opacity:1;stroke:#2e2e2e;stroke-width:.5;stroke-linecap:round;stroke-miterlimit:4;stroke-dasharray:none;stroke-opacity:1" id="rect955" width="1.4073366" height="8.5433731" x="80.429489" y="27.294579" ry="0.7036683"/><path style="fill:#ababab;fill-opacity:1;stroke:#2e2e2e;stroke-width:.5;stroke-linecap:round;stroke-linejoin:round;stroke-miterlimit:4;stroke-dasharray:none;stroke-opacity:1" d="m36.516 26.85 5.224.808-.096 1.23-5.45-.725z" id="path957-5"/><rect style="fill:#ababab;fill-opacity:1;stroke:#2e2e2e;stroke-width:.5;stroke-linecap:round;stroke-miterlimit:4;stroke-dasharray:none;stroke-opacity:1" id="rect955-3" width="1.4073366" height="8.5433731" x="-39.420067" y="27.294579" ry="0.7036683" transform="scale(-1 1)"/><path style="fill:#ababab;fill-opacity:1;stroke:#2e2e2e;stroke-width:.5;stroke-linecap:round;stroke-linejoin:round;stroke-miterlimit:4;stroke-dasharray:none;stroke-opacity:1" d="m101.242 20.34-3.061 2.73.087 1.378 3.296-2.796z" id="path957-56"/><rect style="fill:#ababab;fill-opacity:1;stroke:#2e2e2e;stroke-width:.5;stroke-linecap:round;stroke-miterlimit:4;stroke-dasharray:none;stroke-opacity:1" id="rect955-2" width="1.4073366" height="8.5433731" x="100.42949" y="21.294579" ry="0.7036683"/><path style="fill:#ababab;fill-opacity:1;stroke:#2e2e2e;stroke-width:.5;stroke-linecap:round;stroke-linejoin:round;stroke-miterlimit:4;stroke-dasharray:none;stroke-opacity:1" d="m18.758 20.34 3.061 2.73-.096 1.23-3.287-2.648z" id="path957-56-9"/><rect style="fill:#ababab;fill-opacity:1;stroke:#2e2e2e;stroke-width:.5;stroke-linecap:round;stroke-miterlimit:4;stroke-dasharray:none;stroke-opacity:1" id="rect955-2-1" width="1.4073366" height="8.5433731" x="-19.570511" y="21.294579" ry="0.7036683" transform="scale(-1 1)"/><ellipse style="fill:#2f2f2f;fill-opacity:1;stroke:#353232;stroke-width:1;stroke-linecap:round;stroke-miterlimit:4;stroke-dasharray:none;stroke-opacity:1" id="path1019" cx="60.142929" cy="78.881683" rx="1.9726729" ry="1.3069575"/><path style="fill:#2f2f2f;fill-opacity:1;stroke:#353232;stroke-width:1;stroke-linecap:round;stroke-miterlimit:4;stroke-dasharray:none;stroke-opacity:1" d="m60.083 80.134-.045 3.308" id="path1023"/><ellipse style="fill:#bcbcbc;fill-opacity:1;stroke:#2d2d2d;stroke-width:1.5;stroke-linecap:round;stroke-miterlimit:4;stroke-dasharray:none;stroke-opacity:1" id="path1097" cx="29.218006" cy="100.07405" rx="3.5002508" ry="3.5569699"/><path style="fill:#878787;fill-opacity:1;stroke:#2f2f2f;stroke-width:.5;stroke-linecap:round;stroke-miterlimit:4;stroke-dasharray:none;stroke-opacity:1" d="M28.477 95.589s-1.335 5.26-.312 5.66c1.022.4 6.261-4.532 6.261-4.532l-.158-2.055-3.274-.138z" id="path1099"/><ellipse style="fill:#72453c;fill-opacity:1;stroke:#271d1c;stroke-width:.5;stroke-linecap:round;stroke-miterlimit:4;stroke-dasharray:none;stroke-opacity:1" id="path1166" cx="82.679527" cy="101.93931" rx="1.5941818" ry="1.6712453"/><ellipse style="fill:#efedee;fill-opacity:1;stroke:#4b4348;stroke-width:.5;stroke-linecap:round;stroke-opacity:1" id="path876" cx="60" cy="19.87644" rx="39.282471" ry="7.1484609"/></g></svg>