<svg xmlns:dc="http://purl.org/dc/elements/1.1/" xmlns:cc="http://creativecommons.org/ns#" xmlns:rdf="http://www.w3.org/1999/02/22-rdf-syntax-ns#" xmlns="http://www.w3.org/2000/svg" width="120" height="120" viewBox="0 0 120 120" version="1.1" id="svg1379"><metadata id="metadata1376"><rdf:RDF><cc:Work><dc:format>image/svg+xml</dc:format><dc:type rdf:resource="http://purl.org/dc/dcmitype/StillImage"/><dc:title/><dc:date>2023</dc:date><dc:creator><cc:Agent><dc:title>Timothée Giet</dc:title></cc:Agent></dc:creator><cc:license rdf:resource="http://creativecommons.org/licenses/by-sa/4.0/"/></cc:Work><cc:License rdf:about="http://creativecommons.org/licenses/by-sa/4.0/"><cc:permits rdf:resource="http://creativecommons.org/ns#Reproduction"/><cc:permits rdf:resource="http://creativecommons.org/ns#Distribution"/><cc:requires rdf:resource="http://creativecommons.org/ns#Notice"/><cc:requires rdf:resource="http://creativecommons.org/ns#Attribution"/><cc:permits rdf:resource="http://creativecommons.org/ns#DerivativeWorks"/><cc:requires rdf:resource="http://creativecommons.org/ns#ShareAlike"/></cc:License></rdf:RDF></metadata><path style="fill:#99a6b3;fill-opacity:1;stroke:#313436;stroke-width:1;stroke-linecap:round;stroke-linejoin:round;stroke-miterlimit:4;stroke-dasharray:none;stroke-opacity:1" d="M99.792 86.411c-1.477-2.177-39.297-62.285-42.698-66.357-5.025-6.018-8.145-3.187-11.566 2.13-2.97 4.615-38.05 65.15-39.304 67.555-3.597 6.89-.916 12.78 5.601 13.322 3.737.31 78.16.304 80.273.193 5.527-.29 4.903-5.934-.238-5.752-2.175.077-68.012-.162-72.157-.06-7.983.198-10.553-1.804-7.632-6.842.998-1.72 33.682-58.252 34.6-60.086 2.934-5.856 5.99-7.337 8.894-2.965 1.539 2.315 38.731 60.43 40.63 62.86 2.974 3.807 6.437.19 3.597-3.998z" id="path1459"/><path style="fill:#99a6b3;fill-opacity:1;stroke:#313436;stroke-width:1;stroke-linecap:round;stroke-linejoin:round;stroke-miterlimit:4;stroke-dasharray:none;stroke-opacity:1" d="M77.842 28.65c-3.16-5.197.812-7.136 3.097-3.554 2.284 3.581 32.71 55.607 33.794 57.27 1.98 3.034-.964 6.62-3.955 2.14-4.635-6.94-29.838-50.76-32.936-55.856z" id="path1461"/></svg>