<?xml version="1.0" encoding="UTF-8" standalone="no"?>
<!-- Created with Inkscape (http://www.inkscape.org/) -->

<svg
   xmlns:dc="http://purl.org/dc/elements/1.1/"
   xmlns:cc="http://creativecommons.org/ns#"
   xmlns:rdf="http://www.w3.org/1999/02/22-rdf-syntax-ns#"
   xmlns:svg="http://www.w3.org/2000/svg"
   xmlns="http://www.w3.org/2000/svg"
   xmlns:xlink="http://www.w3.org/1999/xlink"
   xmlns:sodipodi="http://sodipodi.sourceforge.net/DTD/sodipodi-0.dtd"
   xmlns:inkscape="http://www.inkscape.org/namespaces/inkscape"
   sodipodi:docname="background.svg"
   inkscape:version="0.92.1 r15371"
   version="1.1"
   id="svg3369"
   height="520"
   width="800">
  <sodipodi:namedview
     inkscape:window-maximized="1"
     inkscape:window-y="0"
     inkscape:window-x="0"
     inkscape:window-height="1051"
     inkscape:window-width="1884"
     fit-margin-bottom="0"
     fit-margin-right="0"
     fit-margin-left="0"
     fit-margin-top="0"
     borderlayer="true"
     showgrid="false"
     inkscape:current-layer="layer1"
     inkscape:document-units="px"
     inkscape:cy="177.06171"
     inkscape:cx="369.95799"
     inkscape:zoom="0.7"
     inkscape:pageshadow="2"
     inkscape:pageopacity="0.0"
     borderopacity="1.0"
     bordercolor="#666666"
     pagecolor="#ffffff"
     id="base" />
  <defs
     id="defs3371">
    <linearGradient
       gradientTransform="matrix(0.76923495,0,0,0.81742473,-162.85715,357.79643)"
       inkscape:collect="always"
       xlink:href="#skyG"
       id="linearGradient5018"
       x1="425.38586"
       y1="62.67218"
       x2="465.39337"
       y2="259.20303"
       gradientUnits="userSpaceOnUse" />
    <linearGradient
       y2="440.09"
       x2="484.17999"
       gradientTransform="matrix(1,0,0,1.1495,0,-225.41)"
       y1="222.09"
       gradientUnits="userSpaceOnUse"
       x1="480"
       id="skyG">
      <stop
         offset="0"
         id="stop4428"
         style="stop-color:#3cc1f1;stop-opacity:1" />
      <stop
         offset="1"
         id="stop4430"
         style="stop-color:#85d8f6;stop-opacity:1" />
    </linearGradient>
  </defs>
  <metadata
     id="metadata3374">
    <rdf:RDF>
      <cc:Work
         rdf:about="">
        <dc:format>image/svg+xml</dc:format>
        <dc:type
           rdf:resource="http://purl.org/dc/dcmitype/StillImage" />
        <dc:title />
      </cc:Work>
    </rdf:RDF>
  </metadata>
  <g
     inkscape:label="Calque 1"
     inkscape:groupmode="layer"
     id="layer1"
     transform="translate(162.85715,-366.64789)"
     style="display:inline">
    <g
       transform="matrix(-0.10019282,0,0,0.12532536,379.39498,603.6196)"
       id="g5844"
       style="opacity:0.69778;fill:#008c00">
      <path
         d="m 54.721,1730 c -12.956,-57.3 -65.419,-104.2 -110.76,-139.8 58.289,6 98.625,69.9 124.04,117.9 2.575,9 -2.443,22.2 -13.28,21.9 z"
         id="path5846"
         inkscape:connector-curvature="0" />
      <path
         d="m 129.3,1721.3 c 16.92,-30.1 -35.479,-114.8 -26.25,-150.7 29.29,54.5 47.24,92.4 42.01,140.9 -3.42,5.7 -10.5,6.6 -15.76,9.8 z"
         id="path5848"
         inkscape:connector-curvature="0" />
      <path
         d="m 203.81,1718.9 c 25.25,-47.2 55.26,-94.9 108.54,-113.3 -29.53,20.5 -63.09,41 -76.16,76.5 -6.84,14.8 -14.69,32.8 -32.38,36.8 z"
         id="path5850"
         inkscape:connector-curvature="0" />
      <path
         d="m 312.59,1727.9 c 20.26,-9.2 40.63,-61.1 69.03,-84.9 -31.31,78.4 -42.61,86.3 -69.03,84.9 z"
         id="path5852"
         inkscape:connector-curvature="0" />
      <path
         d="m 169.53,1710.4 c 12.68,-15.1 17.68,-39.6 39.27,-44.9 -11.71,15.9 -17.51,39.8 -39.27,44.9 z"
         id="path5854"
         inkscape:connector-curvature="0" />
      <path
         d="m 90.731,1685 c -10.25,-21.3 -21.088,-42.6 -36.166,-61 42.017,19 55.645,50.3 36.166,61 z"
         id="path5856"
         inkscape:connector-curvature="0" />
      <path
         d="m 284.12,1681.7 c 18.25,-21.3 39.84,-40.7 65.96,-51.8 -22.99,12 -42.08,44.9 -65.96,51.8 z"
         id="path5858"
         inkscape:connector-curvature="0" />
    </g>
    <g
       transform="matrix(0.11482659,0,0,0.15374218,564.47769,605.66241)"
       id="g5860"
       style="opacity:0.69778;fill:#008c00">
      <path
         d="m 54.721,1730 c -12.956,-57.3 -65.419,-104.2 -110.76,-139.8 58.289,6 98.625,69.9 124.04,117.9 2.575,9 -2.443,22.2 -13.28,21.9 z"
         id="path5862"
         inkscape:connector-curvature="0" />
      <path
         d="m 129.3,1721.3 c 16.92,-30.1 -35.479,-114.8 -26.25,-150.7 29.29,54.5 47.24,92.4 42.01,140.9 -3.42,5.7 -10.5,6.6 -15.76,9.8 z"
         id="path5864"
         inkscape:connector-curvature="0" />
      <path
         d="m 203.81,1718.9 c 25.25,-47.2 55.26,-94.9 108.54,-113.3 -29.53,20.5 -63.09,41 -76.16,76.5 -6.84,14.8 -14.69,32.8 -32.38,36.8 z"
         id="path5866"
         inkscape:connector-curvature="0" />
      <path
         d="m 312.59,1727.9 c 20.26,-9.2 40.63,-61.1 69.03,-84.9 -31.31,78.4 -42.61,86.3 -69.03,84.9 z"
         id="path5868"
         inkscape:connector-curvature="0" />
      <path
         d="m 169.53,1710.4 c 12.68,-15.1 17.68,-39.6 39.27,-44.9 -11.71,15.9 -17.51,39.8 -39.27,44.9 z"
         id="path5870"
         inkscape:connector-curvature="0" />
      <path
         d="m 90.731,1685 c -10.25,-21.3 -21.088,-42.6 -36.166,-61 42.017,19 55.645,50.3 36.166,61 z"
         id="path5872"
         inkscape:connector-curvature="0" />
      <path
         d="m 284.12,1681.7 c 18.25,-21.3 39.84,-40.7 65.96,-51.8 -22.99,12 -42.08,44.9 -65.96,51.8 z"
         id="path5874"
         inkscape:connector-curvature="0" />
    </g>
    <g
       transform="matrix(-0.06767805,0,0,0.06849173,489.74162,655.68881)"
       id="g5876"
       style="opacity:0.69778;fill:#008c00">
      <path
         d="m 54.721,1730 c -12.956,-57.3 -65.419,-104.2 -110.76,-139.8 58.289,6 98.625,69.9 124.04,117.9 2.575,9 -2.443,22.2 -13.28,21.9 z"
         id="path5878"
         inkscape:connector-curvature="0" />
      <path
         d="m 129.3,1721.3 c 16.92,-30.1 -35.479,-114.8 -26.25,-150.7 29.29,54.5 47.24,92.4 42.01,140.9 -3.42,5.7 -10.5,6.6 -15.76,9.8 z"
         id="path5880"
         inkscape:connector-curvature="0" />
      <path
         d="m 203.81,1718.9 c 25.25,-47.2 55.26,-94.9 108.54,-113.3 -29.53,20.5 -63.09,41 -76.16,76.5 -6.84,14.8 -14.69,32.8 -32.38,36.8 z"
         id="path5882"
         inkscape:connector-curvature="0" />
      <path
         d="m 312.59,1727.9 c 20.26,-9.2 40.63,-61.1 69.03,-84.9 -31.31,78.4 -42.61,86.3 -69.03,84.9 z"
         id="path5884"
         inkscape:connector-curvature="0" />
      <path
         d="m 169.53,1710.4 c 12.68,-15.1 17.68,-39.6 39.27,-44.9 -11.71,15.9 -17.51,39.8 -39.27,44.9 z"
         id="path5886"
         inkscape:connector-curvature="0" />
      <path
         d="m 90.731,1685 c -10.25,-21.3 -21.088,-42.6 -36.166,-61 42.017,19 55.645,50.3 36.166,61 z"
         id="path5888"
         inkscape:connector-curvature="0" />
      <path
         d="m 284.12,1681.7 c 18.25,-21.3 39.84,-40.7 65.96,-51.8 -22.99,12 -42.08,44.9 -65.96,51.8 z"
         id="path5890"
         inkscape:connector-curvature="0" />
    </g>
    <g
       transform="matrix(0.05954937,0,0,0.05225173,523.65813,596.87962)"
       id="g5892"
       style="opacity:0.69778;fill:#008c00">
      <path
         d="m 54.721,1730 c -12.956,-57.3 -65.419,-104.2 -110.76,-139.8 58.289,6 98.625,69.9 124.04,117.9 2.575,9 -2.443,22.2 -13.28,21.9 z"
         id="path5894"
         inkscape:connector-curvature="0" />
      <path
         d="m 129.3,1721.3 c 16.92,-30.1 -35.479,-114.8 -26.25,-150.7 29.29,54.5 47.24,92.4 42.01,140.9 -3.42,5.7 -10.5,6.6 -15.76,9.8 z"
         id="path5896"
         inkscape:connector-curvature="0" />
      <path
         d="m 203.81,1718.9 c 25.25,-47.2 55.26,-94.9 108.54,-113.3 -29.53,20.5 -63.09,41 -76.16,76.5 -6.84,14.8 -14.69,32.8 -32.38,36.8 z"
         id="path5898"
         inkscape:connector-curvature="0" />
      <path
         d="m 312.59,1727.9 c 20.26,-9.2 40.63,-61.1 69.03,-84.9 -31.31,78.4 -42.61,86.3 -69.03,84.9 z"
         id="path5900"
         inkscape:connector-curvature="0" />
      <path
         d="m 169.53,1710.4 c 12.68,-15.1 17.68,-39.6 39.27,-44.9 -11.71,15.9 -17.51,39.8 -39.27,44.9 z"
         id="path5902"
         inkscape:connector-curvature="0" />
      <path
         d="m 90.731,1685 c -10.25,-21.3 -21.088,-42.6 -36.166,-61 42.017,19 55.645,50.3 36.166,61 z"
         id="path5904"
         inkscape:connector-curvature="0" />
      <path
         d="m 284.12,1681.7 c 18.25,-21.3 39.84,-40.7 65.96,-51.8 -22.99,12 -42.08,44.9 -65.96,51.8 z"
         id="path5906"
         inkscape:connector-curvature="0" />
    </g>
    <g
       transform="matrix(0.13596188,0,0,0.15780218,19.665113,537.25713)"
       id="g5811"
       style="fill:#009800">
      <path
         d="m 54.721,1730 c -12.956,-57.3 -65.419,-104.2 -110.76,-139.8 58.289,6 98.625,69.9 124.04,117.9 2.575,9 -2.443,22.2 -13.28,21.9 z"
         id="path5727"
         inkscape:connector-curvature="0" />
      <path
         d="m 129.3,1721.3 c 16.92,-30.1 -35.479,-114.8 -26.25,-150.7 29.29,54.5 47.24,92.4 42.01,140.9 -3.42,5.7 -10.5,6.6 -15.76,9.8 z"
         id="path5729"
         inkscape:connector-curvature="0" />
      <path
         d="m 203.81,1718.9 c 25.25,-47.2 55.26,-94.9 108.54,-113.3 -29.53,20.5 -63.09,41 -76.16,76.5 -6.84,14.8 -14.69,32.8 -32.38,36.8 z"
         id="path5731"
         inkscape:connector-curvature="0" />
      <path
         d="m 312.59,1727.9 c 20.26,-9.2 40.63,-61.1 69.03,-84.9 -31.31,78.4 -42.61,86.3 -69.03,84.9 z"
         id="path5733"
         inkscape:connector-curvature="0" />
      <path
         d="m 169.53,1710.4 c 12.68,-15.1 17.68,-39.6 39.27,-44.9 -11.71,15.9 -17.51,39.8 -39.27,44.9 z"
         id="path5735"
         inkscape:connector-curvature="0" />
      <path
         d="m 90.731,1685 c -10.25,-21.3 -21.088,-42.6 -36.166,-61 42.017,19 55.645,50.3 36.166,61 z"
         id="path5737"
         inkscape:connector-curvature="0" />
      <path
         d="m 284.12,1681.7 c 18.25,-21.3 39.84,-40.7 65.96,-51.8 -22.99,12 -42.08,44.9 -65.96,51.8 z"
         id="path5753"
         inkscape:connector-curvature="0" />
    </g>
    <rect
       x="-162.85715"
       y="357.79642"
       width="809.54291"
       height="364.57144"
       id="Sky"
       style="opacity:1;fill:url(#linearGradient5018);fill-opacity:1;stroke-width:0.79296386" />
    <path
       d="m 607.05824,661.13526 c 0.56351,0.10245 0.66916,0.33619 1.12702,0.68197 0.59873,0.59877 1.7962,2.3854 1.65532,2.67681 -0.1761,0.5251 -1.69054,-2.45586 -2.78234,-3.35878 z m 10.07281,1.30315 c -1.26791,2.14845 -1.37357,2.31179 -2.35971,2.27974 0.21131,-0.39702 0.81004,-0.72043 1.23268,-1.09825 0.45785,-0.40023 0.70439,-1.15265 1.12703,-1.18149 z m -4.4729,0.0768 c 1.44401,1.40565 1.62011,1.91155 1.37357,2.07162 -0.45785,0.1505 -0.3522,-0.24653 -1.37357,-2.07162 z m -2.71191,0.30099 c 0.3522,-0.0512 0.63396,0.43544 0.77484,0.83251 0.35219,1.015 0.35219,0.87092 0.10565,0.95417 -0.31698,0.12166 -0.31698,-0.91576 -0.88049,-1.78668 z m -2.39493,-0.0929 c 0.38742,0.01 0.56351,0.42269 0.84527,0.80367 0.24653,0.72364 1.02137,1.17512 0.49308,1.20075 -0.56352,0.0287 -0.91572,-1.14308 -1.33835,-2.00442 z m 4.01504,0.27857 c 1.16224,1.16549 1.40878,1.5241 0.95093,1.57215 -0.31698,0.0321 -0.31698,-0.25295 -0.66918,-0.73322 -0.24653,-0.30741 -0.52829,-0.57957 -0.28175,-0.83893 z"
       id="path7788"
       inkscape:connector-curvature="0"
       style="opacity:0.69800002;fill:#1e9e00" />
    <path
       style="fill:#84c282;fill-opacity:1;fill-rule:evenodd;stroke:none;stroke-width:1px;stroke-linecap:butt;stroke-linejoin:miter;stroke-opacity:1"
       d="m 673.74038,640.78349 c -15.38347,-5.8989 -35.38157,6.04644 -47.8742,3.90782 -32.69763,15.57213 -63.91395,-4.72984 -98.17311,11.69436 -26.27733,-1.0897 -52.83727,12.27838 -79.40293,-0.12142 -21.27003,4.44769 -41.33429,10.91109 -61.86292,5.23288 -24.30882,11.32035 -54.67043,-4.42355 -76.24092,6.87892 -17.81139,-4.52127 -35.76167,5.46779 -53.12206,-4.23353 -22.31585,12.92689 -44.7963,6.36648 -69.27332,4.84913 -20.0753,14.72118 -47.06239,-2.47786 -69.63108,5.46207 -19.651495,3.38907 -39.641419,-3.58786 -63.396152,4.70321 -14.12888,-6.38152 -34.269539,12.73677 -43.238355,-5.58567 -14.4831344,16.11946 -41.330952,-7.73888 -59.659492,8.96876 -22.191451,-6.76107 -48.37735,6.18372 -70.777711,-4.30663 -19.48412,14.89784 -12.91919,49.60919 -7.15987,72.13214 5.98183,10.29224 -12.23234,45.18164 8.36555,32.65565 21.030613,10.78647 42.98116,9.61402 64.690686,6.91929 23.211137,-14.29843 44.570093,9.03418 68.855774,0.80102 11.485936,6.42746 30.756246,-9.06034 42.271362,5.6478 24.576162,1.14046 49.963198,-13.05078 72.618958,0.64843 22.11414,-6.57053 41.77621,-6.40223 62.62595,-0.63117 25.73678,-6.62461 44.55804,4.88185 70.62853,-3.50891 19.65815,0.087 31.88791,9.60029 50.14172,-0.0902 3.57726,16.48676 19.59173,-6.59093 26.11076,9.89583 21.72229,-19.05822 51.47527,9.44216 76.19345,-3.06231 18.55074,-9.64644 27.92909,8.23812 43.81353,-0.84965 23.41676,12.6527 48.3105,-1.9274 72.79847,6.48262 15.94663,-2.08628 29.21282,-7.14644 43.43564,-0.15327 19.32745,-13.23717 46.89812,15.50055 65.42346,-4.04934 14.29696,15.15822 19.41307,-7.19568 33.91923,7.08312 11.92124,-0.69835 -0.45656,-19.34138 6.15556,-26.9843 -7.99194,-23.16495 5.71758,-48.69391 -4.71805,-74.16196 9.06872,-22.73517 -6.58524,-46.8592 1.57235,-69.27407 l -1.84219,-3.48452 -1.98154,-3.08788"
       id="path5940"
       inkscape:connector-curvature="0" />
    <path
       style="fill:#64b560;fill-opacity:1;fill-rule:evenodd;stroke:none;stroke-width:2.08504319px;stroke-linecap:butt;stroke-linejoin:miter;stroke-opacity:1"
       d="m -118.53851,679.62613 c 29.456136,-10.91837 61.19972,-14.62296 92.079912,-16.55052 29.6560548,-4.62557 60.735047,-7.54134 89.319561,-9.74878 26.953448,3.28348 53.430467,-4.65446 80.105737,-1.54702 35.21156,3.25596 69.84513,-6.94696 103.34845,1.52967 31.53865,-6.83045 64.82379,2.49132 97.40994,0.1831 32.67246,3.57442 66.74908,-0.62944 97.80364,6.70558 33.55741,-1.17092 67.19729,4.74764 101.27644,6.99737 34.31875,3.30556 67.92615,9.97904 101.67843,16.95631 30.48471,5.52623 61.23227,30.49512 57.06563,64.55202 -7.39398,33.17199 -31.56218,71.73589 -70.99617,58.01917 -31.05627,4.34355 -61.32439,-0.76891 -91.80949,0.3875 -28.71874,-3.63556 -58.22514,0.89224 -86.54785,-0.99452 -31.05202,-1.25592 -62.26828,2.12899 -92.71373,-1.59917 -34.65481,-0.35522 -68.85657,-0.008 -103.43362,-0.56852 -31.88167,2.92123 -63.52996,1.64494 -93.07786,-1.0382 -23.7656,2.54818 -48.94452,-0.63183 -73.832432,-0.10112 -29.959296,-0.23007 -59.656867,0.62342 -89.56268942,-0.75681 -30.09115758,0.32499 -60.64147458,-1.33548 -90.89725158,1.34421 -28.966847,-4.34268 -9.742907,-47.76262 -17.265287,-68.86854 -8.90131,-15.88919 4.57969,-31.42228 -4.40784,-47.60386"
       id="path5171"
       inkscape:connector-curvature="0" />
    <path
       style="fill:#4da849;fill-opacity:1;fill-rule:evenodd;stroke:none;stroke-width:2.08504319px;stroke-linecap:butt;stroke-linejoin:miter;stroke-opacity:1"
       d="m -38.979899,552.22933 891.225989,-5.78988 6.4961,-61.5664 c 0,0 3.65749,-40.84761 -1.58789,-56.75977 3.39812,-22.94222 3.95859,-37.75579 -1.83985,-58.1289 6.54648,-19.55276 -5.45057,-36.66786 -27.68554,-31.9004 -14.63606,-3.24888 -30.06782,2.15505 -47.73633,-2.04882 -17.32514,-6.04605 -37.5984,2.43469 -53.18946,-2.66797 -11.36908,1.98097 -23.49128,-1.45649 -37.35156,-0.36524 -15.8198,0.26519 -26.76652,-3.46965 -37.83008,-1.48047 -19.81448,0.69246 -37.20707,-5.6024 -53.6582,-1.23046 -19.04587,-0.11513 -45.37124,-3.36777 -61.39453,-1.61133 -8.61236,-9.12367 -22.97556,0.3826 -30.24805,-9.87305 -6.45271,6.12235 -17.22272,-7.97215 -26.12695,-0.66406 -15.45712,-5.30022 -26.63952,-7.95995 -40.8457,-11.09961 -9.63557,0.24171 -28.48387,-2.98253 -38.06641,-5.1582 -16.75364,-3.04005 -35.94678,-0.8124 -51.90625,-7.70508 -14.12923,-3.23273 -25.72806,-0.0873 -34.01367,-3.35938 -16.25383,-1.07134 -28.04188,-3.23957 -42.67383,-4.73633 -10.43349,-0.24186 -27.52808,-2.2089 -34.05273,-1.92578 -18.48221,-8.12928 -36.51065,-2.95683 -55.98047,-7.92578 -11.89646,5.83917 -24.3339,-7.11931 -34.95703,0.48438 -13.09886,-7.37013 -27.19389,0.56986 -37.75391,-4.32618 -10.830058,-1.26175 -25.554296,-4.62054 -39.494141,-2.29687 -12.924655,-3.77695 -19.126587,2.73917 -31.904297,-3.18945 -15.00583,4.14121 -50.156986,6.54099 -50.156986,6.54099 z"
       transform="translate(-162.85715,366.64789)"
       id="path4889"
       inkscape:connector-curvature="0"
       sodipodi:nodetypes="ccccccccccccccccccccccccccc" />
  </g>
</svg>
