<?xml version="1.0" encoding="UTF-8" standalone="no"?>
<svg
   xmlns:dc="http://purl.org/dc/elements/1.1/"
   xmlns:cc="http://creativecommons.org/ns#"
   xmlns:rdf="http://www.w3.org/1999/02/22-rdf-syntax-ns#"
   xmlns:svg="http://www.w3.org/2000/svg"
   xmlns="http://www.w3.org/2000/svg"
   height="100"
   width="100"
   version="1.1"
   id="svg2">
  <metadata
     id="metadata8">
    <rdf:RDF>
      <cc:Work
         rdf:about="">
        <dc:format>image/svg+xml</dc:format>
        <dc:type
           rdf:resource="http://purl.org/dc/dcmitype/StillImage" />
        <dc:title></dc:title>
        <dc:date>2021</dc:date>
        <dc:creator>
          <cc:Agent>
            <dc:title>Timothée Giet</dc:title>
          </cc:Agent>
        </dc:creator>
        <cc:license
           rdf:resource="http://creativecommons.org/licenses/by-sa/4.0/" />
      </cc:Work>
      <cc:License
         rdf:about="http://creativecommons.org/licenses/by-sa/4.0/">
        <cc:permits
           rdf:resource="http://creativecommons.org/ns#Reproduction" />
        <cc:permits
           rdf:resource="http://creativecommons.org/ns#Distribution" />
        <cc:requires
           rdf:resource="http://creativecommons.org/ns#Notice" />
        <cc:requires
           rdf:resource="http://creativecommons.org/ns#Attribution" />
        <cc:permits
           rdf:resource="http://creativecommons.org/ns#DerivativeWorks" />
        <cc:requires
           rdf:resource="http://creativecommons.org/ns#ShareAlike" />
      </cc:License>
    </rdf:RDF>
  </metadata>
  <defs
     id="defs6" />
  <rect
     transform="rotate(60)"
     ry="2.0679994"
     y="-57.992233"
     x="40.537766"
     height="79.381927"
     width="55.527008"
     id="rect1520"
     style="opacity:1;vector-effect:none;fill:#564226;fill-opacity:1;stroke:none;stroke-width:3.37951589;stroke-linecap:square;stroke-linejoin:round;stroke-miterlimit:4;stroke-dasharray:none;stroke-dashoffset:3.20000005;stroke-opacity:1" />
  <path
     id="rect1365"
     d="m 69.388784,8.7703599 c -0.380046,-0.02657 -0.773352,0.05527 -1.129515,0.260898 l -3.4979,2.0200021 c -0.949766,0.548348 -1.273237,1.754506 -0.724889,2.704272 l 4.019696,6.962994 c 0.548348,0.949766 1.754506,1.271674 2.704272,0.723326 l 3.4979,-2.01844 c 0.949767,-0.548348 1.273237,-1.754506 0.724889,-2.704272 L 70.963542,9.7561459 c -0.342718,-0.593604 -0.941348,-0.941507 -1.574758,-0.985786 z m -8.312787,4.7992631 c -0.380046,-0.02657 -0.773352,0.05527 -1.129514,0.260898 l -3.4979,2.020002 c -0.949766,0.548348 -1.273237,1.754506 -0.724889,2.704273 l 4.019696,6.962993 c 0.548347,0.949766 1.754506,1.271674 2.704272,0.723327 l 3.4979,-2.018441 c 0.949766,-0.548348 1.273237,-1.754506 0.724889,-2.704272 l -4.019696,-6.962994 c -0.342717,-0.593604 -0.941347,-0.941507 -1.574758,-0.985786 z m -8.312786,4.799264 c -0.380046,-0.02657 -0.77179,0.05527 -1.127952,0.260897 l -3.499462,2.020002 c -0.949767,0.548348 -1.273237,1.754506 -0.724889,2.704273 l 4.019696,6.962993 c 0.548347,0.949766 1.754505,1.271675 2.704272,0.723327 l 3.499462,-2.018441 c 0.949766,-0.548348 1.271675,-1.754506 0.723327,-2.704272 l -4.019696,-6.962993 c -0.342717,-0.593604 -0.941348,-0.941508 -1.574758,-0.985786 z m 23.024591,1.484146 c -0.380047,-0.02657 -0.773352,0.05683 -1.129515,0.262461 l -3.497901,2.020002 c -0.949766,0.548347 -1.273236,1.754505 -0.724888,2.704272 l 4.019695,6.961431 c 0.548348,0.949767 1.754506,1.273237 2.704272,0.724888 l 3.497901,-2.020001 c 0.949766,-0.548348 1.273236,-1.754506 0.724889,-2.704273 L 77.36256,20.840382 c -0.342718,-0.593604 -0.941348,-0.94307 -1.574758,-0.987349 z M 44.450425,23.16815 c -0.380046,-0.02657 -0.77179,0.05527 -1.127952,0.260897 l -3.499462,2.020002 c -0.949767,0.548348 -1.271675,1.754506 -0.723327,2.704273 l 4.018133,6.962993 c 0.548348,0.949767 1.754506,1.271675 2.704272,0.723327 l 3.499463,-2.018441 c 0.949766,-0.548347 1.271675,-1.754505 0.723327,-2.704272 l -4.018134,-6.962993 c -0.342717,-0.593604 -0.94291,-0.941508 -1.57632,-0.985786 z m 23.02459,1.484146 c -0.380046,-0.02657 -0.773352,0.05683 -1.129514,0.262461 L 62.8476,26.934759 c -0.949766,0.548347 -1.273236,1.754506 -0.724888,2.704272 l 4.019695,6.961431 c 0.548348,0.949767 1.754506,1.273237 2.704272,0.724889 l 3.497901,-2.020002 c 0.949766,-0.548348 1.273236,-1.754506 0.724889,-2.704273 l -4.019696,-6.96143 c -0.342717,-0.593605 -0.941348,-0.943071 -1.574758,-0.98735 z m -31.337376,3.315117 c -0.380046,-0.02657 -0.77179,0.05527 -1.127952,0.260897 l -3.4979,2.020002 c -0.949767,0.548348 -1.273237,1.754506 -0.724889,2.704273 l 4.019695,6.962994 c 0.548348,0.949766 1.754506,1.271674 2.704273,0.723326 l 3.4979,-2.01844 c 0.949766,-0.548348 1.273237,-1.754506 0.724889,-2.704272 l -4.019696,-6.962994 c -0.342717,-0.593604 -0.94291,-0.941508 -1.57632,-0.985786 z m 23.02459,1.484146 c -0.380046,-0.02657 -0.77179,0.05683 -1.127952,0.262461 l -3.499463,2.020002 c -0.949766,0.548348 -1.273236,1.754506 -0.724889,2.704273 l 4.019696,6.96143 c 0.548348,0.949767 1.754506,1.273237 2.704272,0.724889 l 3.499463,-2.020002 c 0.949766,-0.548348 1.271674,-1.754506 0.723326,-2.704273 l -4.019695,-6.96143 c -0.342717,-0.593604 -0.941349,-0.943071 -1.574758,-0.98735 z m 23.02459,1.48571 c -0.380046,-0.02657 -0.773352,0.05527 -1.129514,0.260898 l -3.497901,2.020002 c -0.949766,0.548348 -1.273237,1.754506 -0.724889,2.704272 l 4.019696,6.962994 c 0.548348,0.949767 1.754506,1.271674 2.704272,0.723326 l 3.4979,-2.020002 c 0.949766,-0.548348 1.273236,-1.752943 0.724888,-2.70271 L 83.761577,31.923055 C 83.41886,31.329451 82.820229,30.981548 82.186819,30.937269 Z m -54.361966,1.829407 c -0.380046,-0.02657 -0.77179,0.05527 -1.127952,0.260898 L 23.199,35.047576 c -0.949766,0.548347 -1.273236,1.754505 -0.724888,2.704272 l 4.019695,6.962994 c 0.548348,0.949766 1.754506,1.271674 2.704272,0.723326 l 3.497901,-2.01844 c 0.949766,-0.548348 1.273236,-1.754506 0.724889,-2.704272 l -4.019696,-6.962994 c -0.342717,-0.593604 -0.94291,-0.941508 -1.57632,-0.985786 z m 23.024589,1.484147 c -0.380045,-0.02657 -0.771789,0.05683 -1.127951,0.26246 l -3.499463,2.020002 c -0.949766,0.548348 -1.271674,1.754506 -0.723326,2.704273 l 4.018133,6.96143 c 0.548348,0.949767 1.754506,1.273238 2.704272,0.724889 l 3.499463,-2.020002 c 0.949766,-0.548348 1.271674,-1.754506 0.723326,-2.704273 l -4.018133,-6.96143 c -0.342717,-0.593604 -0.942911,-0.943071 -1.576321,-0.987349 z m 23.02459,1.485709 c -0.380045,-0.02657 -0.773351,0.05527 -1.129514,0.260898 l -3.4979,2.020002 c -0.949766,0.548348 -1.273237,1.754506 -0.724889,2.704272 l 4.019696,6.962994 c 0.548348,0.949767 1.754506,1.271674 2.704272,0.723326 l 3.4979,-2.020002 c 0.949767,-0.548347 1.273237,-1.752943 0.724889,-2.70271 L 75.44879,36.722318 c -0.342717,-0.593604 -0.941347,-0.941507 -1.574758,-0.985786 z m -54.361966,1.829407 c -0.380046,-0.02657 -0.771789,0.05527 -1.127951,0.260898 l -3.497901,2.020002 c -0.949766,0.548347 -1.273237,1.754505 -0.724889,2.704272 l 4.019695,6.962994 c 0.548348,0.949766 1.754507,1.271674 2.704273,0.723326 l 3.497901,-2.01844 c 0.949766,-0.548348 1.273236,-1.754506 0.724889,-2.704272 l -4.019696,-6.962993 c -0.342718,-0.593605 -0.942911,-0.941509 -1.576321,-0.985787 z m 23.02459,1.484147 c -0.380045,-0.02657 -0.771789,0.05683 -1.127951,0.26246 l -3.497901,2.020002 c -0.949766,0.548348 -1.273236,1.754506 -0.724889,2.704273 l 4.019696,6.96143 c 0.548348,0.949767 1.754506,1.273238 2.704272,0.724889 l 3.497901,-2.020002 c 0.949766,-0.548348 1.273236,-1.754506 0.724888,-2.704273 l -4.019695,-6.96143 c -0.342717,-0.593604 -0.942911,-0.94307 -1.576321,-0.987349 z m 23.02459,1.485709 c -0.380046,-0.02657 -0.771789,0.05527 -1.127952,0.260898 l -3.499462,2.020002 c -0.949766,0.548348 -1.273237,1.754506 -0.724889,2.704272 l 4.019696,6.962994 c 0.548347,0.949767 1.754505,1.271674 2.704272,0.723326 l 3.499462,-2.020001 c 0.949767,-0.548348 1.271675,-1.752944 0.723327,-2.702711 l -4.019696,-6.962993 c -0.342717,-0.593605 -0.941348,-0.941508 -1.574758,-0.985787 z m 23.02459,1.484148 c -0.380046,-0.02657 -0.773353,0.05683 -1.129514,0.262459 l -3.497901,2.020003 c -0.949766,0.548348 -1.273236,1.754506 -0.724888,2.704272 l 4.019695,6.961431 c 0.548352,0.949766 1.754503,1.273237 2.704269,0.724889 L 93.4554,52.672994 c 0.949766,-0.548348 1.273237,-1.754506 0.724889,-2.704272 l -4.019695,-6.961431 c -0.342715,-0.593604 -0.941351,-0.94307 -1.574758,-0.987348 z m -77.384994,0.345259 c -0.380046,-0.02657 -0.773351,0.05527 -1.129514,0.260898 L 6.5734277,44.646102 C 5.6236613,45.19445 5.3001912,46.400608 5.848539,47.350375 l 4.0196953,6.962993 c 0.5483477,0.949766 1.7545057,1.271674 2.7042727,0.723327 l 3.497901,-2.018441 c 0.949766,-0.548348 1.273236,-1.754506 0.724888,-2.704272 L 12.775601,43.350989 C 12.432883,42.757385 11.834252,42.40948 11.200842,42.365202 Z m 23.023028,1.484147 c -0.380045,-0.02657 -0.771789,0.05683 -1.127951,0.26246 l -3.497901,2.020002 c -0.949766,0.548348 -1.273237,1.754506 -0.724889,2.704273 l 4.019696,6.961431 c 0.548348,0.949766 1.754506,1.273237 2.704272,0.724888 l 3.4979,-2.020002 c 0.949767,-0.548347 1.273237,-1.754505 0.724889,-2.704272 L 35.800191,44.836698 C 35.457474,44.243094 34.85728,43.893628 34.22387,43.849349 Z m 23.02459,1.485709 c -0.380046,-0.02657 -0.77179,0.05527 -1.127952,0.260898 l -3.499462,2.020003 c -0.949767,0.548347 -1.271675,1.754505 -0.723327,2.704272 l 4.018134,6.962993 c 0.548347,0.949767 1.754505,1.271674 2.704272,0.723327 l 3.499462,-2.020002 c 0.949766,-0.548348 1.271675,-1.752944 0.723327,-2.702711 L 58.82478,46.320845 c -0.342717,-0.593604 -0.94291,-0.941508 -1.57632,-0.985787 z m 23.02459,1.484148 c -0.380046,-0.02657 -0.773352,0.05683 -1.129514,0.262459 l -3.497901,2.020003 c -0.949766,0.548348 -1.273236,1.754506 -0.724888,2.704272 l 4.019695,6.961431 c 0.548348,0.949767 1.754506,1.273237 2.704272,0.724889 l 3.497901,-2.020003 c 0.949766,-0.548347 1.273236,-1.754505 0.724889,-2.704272 L 81.847808,47.806554 C 81.505091,47.21295 80.90646,46.863485 80.27305,46.819206 Z m -54.361966,1.829406 c -0.380046,-0.02657 -0.771789,0.05683 -1.127952,0.262461 l -3.4979,2.020001 c -0.949766,0.548348 -1.273237,1.754506 -0.724889,2.704273 l 4.019695,6.961431 c 0.548348,0.949767 1.754507,1.273237 2.704273,0.724888 l 3.4979,-2.020001 c 0.949767,-0.548348 1.273237,-1.754506 0.724889,-2.704273 l -4.019696,-6.961431 c -0.342717,-0.593604 -0.94291,-0.94307 -1.57632,-0.987349 z m 23.02459,1.48571 c -0.380046,-0.02657 -0.77179,0.05527 -1.127952,0.260897 l -3.4979,2.020003 c -0.949767,0.548348 -1.273237,1.754506 -0.724889,2.704272 l 4.019696,6.962993 c 0.548347,0.949767 1.754505,1.271675 2.704272,0.723327 l 3.4979,-2.020002 c 0.949766,-0.548348 1.273237,-1.752944 0.724889,-2.702711 l -4.019696,-6.962993 c -0.342717,-0.593604 -0.94291,-0.941508 -1.57632,-0.985786 z m 23.02459,1.484147 c -0.380046,-0.02657 -0.77179,0.05683 -1.127952,0.26246 l -3.499463,2.020002 c -0.949766,0.548348 -1.273236,1.754506 -0.724888,2.704272 l 4.019695,6.961432 c 0.548348,0.949766 1.754506,1.273236 2.704272,0.724888 l 3.499463,-2.020002 c 0.949766,-0.548348 1.271674,-1.754506 0.723326,-2.704272 L 73.535022,52.605817 C 73.192305,52.012213 72.593674,51.662748 71.960264,51.618469 Z M 17.59986,53.447875 c -0.380047,-0.02657 -0.773352,0.05683 -1.129514,0.262461 l -3.497901,2.020002 c -0.949766,0.548347 -1.273236,1.754505 -0.724888,2.704272 l 4.019695,6.961431 c 0.548348,0.949767 1.754506,1.273237 2.704273,0.724889 l 3.4979,-2.020002 c 0.949766,-0.548348 1.273237,-1.754506 0.724889,-2.704273 L 19.174618,54.435224 C 18.8319,53.84162 18.23327,53.492154 17.59986,53.447875 Z m 23.023028,1.48571 c -0.380046,-0.02657 -0.77179,0.05527 -1.127952,0.260897 l -3.4979,2.020003 c -0.949767,0.548348 -1.273237,1.754506 -0.724889,2.704272 l 4.019695,6.962993 c 0.548348,0.949767 1.754506,1.271675 2.704272,0.723327 l 3.497901,-2.020002 c 0.949766,-0.548348 1.273237,-1.752944 0.724889,-2.702711 l -4.019696,-6.962993 c -0.342717,-0.593604 -0.94291,-0.941507 -1.57632,-0.985786 z m 23.024589,1.484147 c -0.380045,-0.02657 -0.771789,0.05683 -1.127951,0.26246 l -3.499463,2.020002 c -0.949766,0.548348 -1.271674,1.754506 -0.723326,2.704272 l 4.018133,6.961432 c 0.548348,0.949766 1.754506,1.273236 2.704272,0.724888 l 3.499463,-2.020002 c 0.949766,-0.548348 1.271674,-1.754506 0.723326,-2.704272 l -4.018133,-6.961431 c -0.342717,-0.593605 -0.942911,-0.94307 -1.576321,-0.987349 z m -31.337375,3.315116 c -0.380047,-0.02657 -0.77179,0.05527 -1.127952,0.260897 l -3.497901,2.020003 c -0.949766,0.548348 -1.273236,1.754506 -0.724888,2.704272 l 4.019695,6.962993 c 0.548347,0.949767 1.754506,1.271675 2.704272,0.723327 l 3.497901,-2.020002 c 0.949766,-0.548348 1.273236,-1.752944 0.724889,-2.70271 l -4.019696,-6.962994 c -0.342718,-0.593604 -0.94291,-0.941507 -1.57632,-0.985786 z m 23.024589,1.484147 c -0.380045,-0.02657 -0.771789,0.05683 -1.127951,0.26246 l -3.497901,2.020003 c -0.949766,0.548347 -1.273236,1.754505 -0.724889,2.704272 l 4.019696,6.961431 c 0.548348,0.949766 1.754506,1.273236 2.704272,0.724889 l 3.497901,-2.020003 c 0.949766,-0.548348 1.273236,-1.754506 0.724888,-2.704272 l -4.019695,-6.961431 c -0.342717,-0.593604 -0.942911,-0.94307 -1.576321,-0.987349 z m -31.335813,3.315116 c -0.380047,-0.02657 -0.773352,0.05527 -1.129514,0.260898 l -3.497901,2.020002 c -0.949767,0.548348 -1.273236,1.754506 -0.724889,2.704272 l 4.019695,6.962994 c 0.548348,0.949767 1.754506,1.271674 2.704273,0.723326 l 3.497901,-2.020002 c 0.949766,-0.548347 1.273236,-1.752943 0.724888,-2.70271 L 25.573636,65.517897 C 25.230918,64.924293 24.632288,64.57639 23.998878,64.532111 Z m 23.023027,1.484147 c -0.380045,-0.02657 -0.771789,0.05683 -1.127951,0.26246 l -3.497901,2.020003 c -0.949766,0.548348 -1.273236,1.754506 -0.724889,2.704272 l 4.019696,6.961431 c 0.548348,0.949766 1.754506,1.273236 2.704272,0.724889 l 3.497901,-2.020003 c 0.949766,-0.548348 1.273236,-1.754506 0.724888,-2.704272 l -4.019695,-6.961431 c -0.342717,-0.593604 -0.942911,-0.94307 -1.576321,-0.987349 z m -8.312786,4.799264 c -0.380046,-0.02657 -0.771789,0.05683 -1.127951,0.262459 l -3.497901,2.020003 c -0.949766,0.548348 -1.273237,1.754506 -0.724889,2.704272 l 4.019695,6.961431 c 0.548348,0.949766 1.754507,1.273237 2.704273,0.724889 l 3.4979,-2.020003 c 0.949767,-0.548348 1.273237,-1.754506 0.724889,-2.704272 L 40.28544,71.80287 C 39.942722,71.209266 39.342529,70.8598 38.709119,70.815522 Z m -8.311224,4.799263 c -0.380046,-0.02657 -0.773351,0.05683 -1.129514,0.262459 l -3.4979,2.020003 c -0.949767,0.548348 -1.273237,1.754506 -0.724889,2.704272 l 4.019695,6.961435 c 0.548348,0.94976 1.754506,1.27323 2.704273,0.72488 l 3.4979,-2.019998 c 0.949767,-0.548347 1.273237,-1.754505 0.724889,-2.704272 l -4.019696,-6.961431 c -0.342717,-0.593604 -0.941348,-0.943069 -1.574758,-0.987348 z"
     style="opacity:1;vector-effect:none;fill:#715732;fill-opacity:1;stroke:none;stroke-width:3.19950867;stroke-linecap:square;stroke-linejoin:round;stroke-miterlimit:4;stroke-dasharray:none;stroke-dashoffset:3.20000005;stroke-opacity:1" />
</svg>
