<?xml version="1.0" encoding="UTF-8" standalone="no"?>
<svg
   xmlns:dc="http://purl.org/dc/elements/1.1/"
   xmlns:cc="http://creativecommons.org/ns#"
   xmlns:rdf="http://www.w3.org/1999/02/22-rdf-syntax-ns#"
   xmlns:svg="http://www.w3.org/2000/svg"
   xmlns="http://www.w3.org/2000/svg"
   id="svg2"
   version="1.1"
   width="100"
   height="100">
  <metadata
     id="metadata8">
    <rdf:RDF>
      <cc:Work
         rdf:about="">
        <dc:format>image/svg+xml</dc:format>
        <dc:type
           rdf:resource="http://purl.org/dc/dcmitype/StillImage" />
        <dc:title></dc:title>
        <dc:date>2021</dc:date>
        <dc:creator>
          <cc:Agent>
            <dc:title>Timothée Giet</dc:title>
          </cc:Agent>
        </dc:creator>
        <cc:license
           rdf:resource="http://creativecommons.org/licenses/by-sa/4.0/" />
      </cc:Work>
      <cc:License
         rdf:about="http://creativecommons.org/licenses/by-sa/4.0/">
        <cc:permits
           rdf:resource="http://creativecommons.org/ns#Reproduction" />
        <cc:permits
           rdf:resource="http://creativecommons.org/ns#Distribution" />
        <cc:requires
           rdf:resource="http://creativecommons.org/ns#Notice" />
        <cc:requires
           rdf:resource="http://creativecommons.org/ns#Attribution" />
        <cc:permits
           rdf:resource="http://creativecommons.org/ns#DerivativeWorks" />
        <cc:requires
           rdf:resource="http://creativecommons.org/ns#ShareAlike" />
      </cc:License>
    </rdf:RDF>
  </metadata>
  <defs
     id="defs6" />
  <path
     style="fill:#8d6113;fill-opacity:1;stroke:none;stroke-width:0.76196074px;stroke-linecap:butt;stroke-linejoin:miter;stroke-opacity:1"
     d="m 12.234029,45.108718 c -1.874877,-5.920663 16.627533,-19.210452 35.51512,-19.04902 18.887586,0.161433 41.326685,9.201645 41.00382,16.627534 C 88.430104,50.113121 70.993041,60.660274 68.412491,59.314766 62.672029,56.321668 40.184498,55.537963 31.605912,61.413386 27.815291,64.009561 13.479399,49.041465 12.234029,45.108718 Z"
     id="path987" />
  <path
     style="fill:#efb447;fill-opacity:1;stroke:none;stroke-width:0.66627228px;stroke-linecap:butt;stroke-linejoin:miter;stroke-opacity:1"
     d="M 16.095123,44.361032 C 14.409774,39.324968 31.041818,28.020788 48.020102,28.158101 64.998385,28.295414 85.169168,35.984941 84.87894,42.301337 84.588713,48.617734 68.914322,57.589052 66.594634,56.444574 61.434462,53.89867 41.220144,53.232058 33.508747,58.229642 30.101312,60.437926 17.214601,47.706192 16.095123,44.361032 Z"
     id="path987-5" />
  <path
     style="fill:#8d6113;fill-opacity:1;stroke:none;stroke-width:0.85781491px;stroke-linecap:butt;stroke-linejoin:miter;stroke-opacity:1"
     d="m 4.3715413,76.152511 c -5.997435,-5.088732 3.714143,-31.600554 10.9044257,-32.895019 7.151041,-1.2874 25.383206,8.413665 16.720121,14.720975 C 18.550864,67.767498 7.4896393,78.619335 4.3715413,76.152511 Z"
     id="path968-7" />
  <path
     style="fill:#efb447;fill-opacity:1;stroke:none;stroke-width:0.76196074px;stroke-linecap:butt;stroke-linejoin:miter;stroke-opacity:1"
     d="M 6.9974893,70.817008 C 1.6702203,66.296902 10.50847,47.317858 16.895294,46.16804 23.247262,45.024497 35.134133,52.299652 27.43908,57.902171 15.496255,66.597354 9.7671643,73.008184 6.9974893,70.817008 Z"
     id="path968" />
  <path
     style="fill:#8d6113;fill-opacity:1;stroke:none;stroke-width:0.85781491px;stroke-linecap:butt;stroke-linejoin:miter;stroke-opacity:1"
     d="M 95.62846,74.05389 C 101.62589,68.965158 91.914317,42.453336 84.724034,41.158872 77.572993,39.871471 59.340827,49.572536 68.003913,55.879847 81.449136,65.668878 92.510361,76.520715 95.62846,74.05389 Z"
     id="path968-7-3" />
  <path
     style="fill:#efb447;fill-opacity:1;stroke:none;stroke-width:0.76196074px;stroke-linecap:butt;stroke-linejoin:miter;stroke-opacity:1"
     d="M 93.002509,68.718388 C 98.32978,64.198282 89.491531,45.219238 83.104706,44.069419 76.752739,42.925876 64.654003,49.989167 72.349056,55.591685 84.29188,64.286868 90.232836,70.909564 93.002509,68.718388 Z"
     id="path968-5" />
  <path
     style="fill:#8d6113;fill-opacity:1;stroke:none;stroke-width:0.76196074px;stroke-linecap:butt;stroke-linejoin:miter;stroke-opacity:1"
     d="m 50.493498,52.140124 c 4.629066,0.02764 4.339283,-12.074279 17.757561,-22.206049 3.838863,-2.898619 -7.870725,-6.583752 -18.220189,-6.437407 -10.349463,0.146345 -24.118306,4.196707 -19.554984,6.760272 15.626432,8.778552 15.388546,21.855549 20.017612,21.883184 z"
     id="path1022" />
  <path
     style="fill:#efb447;fill-opacity:1;stroke:none;stroke-width:0.56251079px;stroke-linecap:butt;stroke-linejoin:miter;stroke-opacity:1"
     d="m 50.174832,47.528343 c 3.466709,0.02012 4.458657,-11.005963 14.507607,-18.379196 2.874925,-2.109424 -9.400392,-3.381462 -14.612276,-3.392441 -5.211883,-0.01098 -19.63386,2.114247 -16.216388,3.97984 11.702638,6.388449 12.854349,17.771687 16.321057,17.791797 z"
     id="path1022-6" />
</svg>
