<svg xmlns:dc="http://purl.org/dc/elements/1.1/" xmlns:cc="http://creativecommons.org/ns#" xmlns:rdf="http://www.w3.org/1999/02/22-rdf-syntax-ns#" xmlns="http://www.w3.org/2000/svg" width="100" height="100"><metadata><rdf:RDF><cc:Work><dc:format>image/svg+xml</dc:format><dc:type rdf:resource="http://purl.org/dc/dcmitype/StillImage"/><dc:title/><dc:date>2021</dc:date><dc:creator><cc:Agent><dc:title>Timothée Giet</dc:title></cc:Agent></dc:creator><cc:license rdf:resource="http://creativecommons.org/licenses/by-sa/4.0/"/></cc:Work><cc:License rdf:about="http://creativecommons.org/licenses/by-sa/4.0/"><cc:permits rdf:resource="http://creativecommons.org/ns#Reproduction"/><cc:permits rdf:resource="http://creativecommons.org/ns#Distribution"/><cc:requires rdf:resource="http://creativecommons.org/ns#Notice"/><cc:requires rdf:resource="http://creativecommons.org/ns#Attribution"/><cc:permits rdf:resource="http://creativecommons.org/ns#DerivativeWorks"/><cc:requires rdf:resource="http://creativecommons.org/ns#ShareAlike"/></cc:License></rdf:RDF></metadata><path style="color:#000;display:inline;overflow:visible;visibility:visible;opacity:1;fill:#9e7c1b;fill-opacity:1;fill-rule:nonzero;stroke:none;stroke-width:.4929519;stroke-linecap:round;stroke-linejoin:round;stroke-miterlimit:4;stroke-dasharray:none;stroke-dashoffset:0;stroke-opacity:1;marker:none;enable-background:accumulate" d="M50 19.117C23.767 19.117 3 24 3 33c0 27 20.766 47.883 47 47.883S97 60 97 33c0-9-20.767-13.883-47-13.883z"/><path style="color:#000;display:inline;overflow:visible;visibility:visible;opacity:1;fill:#e4b843;fill-opacity:1;fill-rule:nonzero;stroke:none;stroke-width:.51470774;stroke-linecap:round;stroke-linejoin:round;stroke-miterlimit:4;stroke-dasharray:none;stroke-dashoffset:0;stroke-opacity:1;marker:none;enable-background:accumulate" d="M4.88 39.158C8.47 61.214 27.578 77.424 50 77.434c22.395-.027 41.476-16.21 45.08-38.233-7.943 5.382-25.597 8.849-45.08 8.854-19.53-.008-37.212-3.494-45.12-8.897z"/><path d="M95 33.383a45 12.25 0 0 1-45 12.25 45 12.25 0 0 1-45-12.25 45 12.25 0 0 1 45-12.25 45 12.25 0 0 1 45 12.25z" style="color:#000;display:inline;overflow:visible;visibility:visible;opacity:1;fill:#ebd8a6;fill-opacity:1;fill-rule:nonzero;stroke:none;stroke-width:.24366057;stroke-linecap:round;stroke-linejoin:round;stroke-miterlimit:4;stroke-dasharray:none;stroke-dashoffset:0;stroke-opacity:1;marker:none;enable-background:accumulate"/><path style="fill:#e4b843;fill-opacity:1;stroke:none;stroke-width:.5217492px;stroke-linecap:butt;stroke-linejoin:miter;stroke-opacity:1" d="M50 32.022c2.625 0 12.375-8.167 10-8.984-3.104-1.067-15.611-1.509-20 0-2.375.817 7.5 8.984 10 8.984z"/><path style="fill:#e4b843;fill-opacity:1;stroke:none;stroke-width:.5217492px;stroke-linecap:butt;stroke-linejoin:miter;stroke-opacity:1" d="M50 34.744c-2.625 0-12.375 8.167-10 8.983 3.104 1.067 15.611 1.51 20 0 2.375-.816-7.5-8.983-10-8.983z"/><path style="fill:#e4b843;fill-opacity:1;stroke:none;stroke-width:.5217492px;stroke-linecap:butt;stroke-linejoin:miter;stroke-opacity:1" d="M46.464 32.42c1.857-.505-12.462-8.156-16.263-8.277-4.967-.157-14.959 1.938-14.142 3.85.442 1.035 28.638 4.909 30.405 4.427z"/><path style="fill:#e4b843;fill-opacity:1;stroke:none;stroke-width:.5217492px;stroke-linecap:butt;stroke-linejoin:miter;stroke-opacity:1" d="M53.536 34.345c-1.857.506 12.462 8.157 16.263 8.277 4.967.158 14.959-1.937 14.142-3.85-.442-1.034-28.638-4.908-30.405-4.427z"/><path style="fill:#e4b843;fill-opacity:1;stroke:none;stroke-width:.5217492px;stroke-linecap:butt;stroke-linejoin:miter;stroke-opacity:1" d="M53.536 32.42c1.856.506 29.963-3.392 30.405-4.427.578-1.352-7.118-4.072-14.142-3.85-3.8.12-18.031 7.796-16.263 8.277z"/><path style="fill:#e4b843;fill-opacity:1;stroke:none;stroke-width:.5217492px;stroke-linecap:butt;stroke-linejoin:miter;stroke-opacity:1" d="M46.464 34.345c-1.856-.505-29.963 3.393-30.405 4.428-.578 1.352 7.118 4.072 14.142 3.85 3.8-.121 18.031-7.797 16.263-8.278z"/><path style="fill:#e4b843;fill-opacity:1;stroke:none;stroke-width:.5217492px;stroke-linecap:butt;stroke-linejoin:miter;stroke-opacity:1" d="M55 33.383c0 .714 30 3.369 33 2.722 3.92-.845 5.544-4.25 0-5.444-3-.647-33 2.041-33 2.722z"/><path style="fill:#e4b843;fill-opacity:1;stroke:none;stroke-width:.5217492px;stroke-linecap:butt;stroke-linejoin:miter;stroke-opacity:1" d="M45 33.383c0-.715-30-3.369-33-2.722-3.92.844-5.544 4.25 0 5.444 3 .647 33-2.042 33-2.722z"/></svg>