<svg xmlns:dc="http://purl.org/dc/elements/1.1/" xmlns:cc="http://creativecommons.org/ns#" xmlns:rdf="http://www.w3.org/1999/02/22-rdf-syntax-ns#" xmlns="http://www.w3.org/2000/svg" height="100" width="100"><metadata><rdf:RDF><cc:Work><dc:format>image/svg+xml</dc:format><dc:type rdf:resource="http://purl.org/dc/dcmitype/StillImage"/><dc:title/><dc:date>2021</dc:date><dc:creator><cc:Agent><dc:title>Timothée Giet</dc:title></cc:Agent></dc:creator><cc:license rdf:resource="http://creativecommons.org/licenses/by-sa/4.0/"/></cc:Work><cc:License rdf:about="http://creativecommons.org/licenses/by-sa/4.0/"><cc:permits rdf:resource="http://creativecommons.org/ns#Reproduction"/><cc:permits rdf:resource="http://creativecommons.org/ns#Distribution"/><cc:requires rdf:resource="http://creativecommons.org/ns#Notice"/><cc:requires rdf:resource="http://creativecommons.org/ns#Attribution"/><cc:permits rdf:resource="http://creativecommons.org/ns#DerivativeWorks"/><cc:requires rdf:resource="http://creativecommons.org/ns#ShareAlike"/></cc:License></rdf:RDF></metadata><path d="M50 20.071C26.65 20.08 6.774 30.78 3.114 45.31c-.037.18-.071.36-.103.54a19.371 19.371 0 0 0-.412 2.392c-.06.585-.093 1.171-.099 1.758.002 3.027.732 6.036 2.167 8.925a23.71 23.71 0 0 0 1.047 1.891l.027-.04C12.803 72.307 30.386 79.915 50 79.93c26.234 0 47.5-13.4 47.5-29.929-.016-4.275-1.485-8.498-4.309-12.385-.189-.27-.384-.538-.585-.805l-.017.02C84.622 26.585 68.105 20.086 50 20.07zm-.043 22.643c10.277-.012 16.297 1.016 24.487 4.882-8.187 3.873-14.206 4.01-24.444 4.028-10.23-.017-16.243-.148-24.428-4.014 8.146-3.851 14.107-4.883 24.385-4.896z" style="opacity:1;vector-effect:none;fill:#745b1e;fill-opacity:.98431373;stroke:none;stroke-width:4.49649191;stroke-linecap:square;stroke-linejoin:round;stroke-miterlimit:4;stroke-dasharray:none;stroke-dashoffset:3.20000005;stroke-opacity:1"/><path d="M50 23.022c-21.756.007-40.277 8.797-43.687 20.735a14.32 14.32 0 0 0-.096.444c-.175.652-.303 3.307-.384 3.965-.056.48-.087.962-.092 1.444.002 2.487.682 4.96 2.019 7.333.294.524.62 1.042.976 1.554l.025-.033C15.34 67.936 30 75 50 75c24.444 0 44.26-13.81 44.26-27.39-.016-3.512-1.385-6.981-4.016-10.175a22.369 22.369 0 0 0-.545-.66l-.016.015C82.26 28.374 66.87 23.035 50 23.022zm-.127 17.704H50c9.536.011 18.81 1.733 26.442 4.91C68.814 48.818 59.54 50.546 50 50.56c-9.532-.014-18.8-1.738-26.427-4.914 7.59-3.164 16.81-4.89 26.3-4.921z" style="opacity:1;vector-effect:none;fill:#cb9923;fill-opacity:1;stroke:none;stroke-width:3.93414354;stroke-linecap:square;stroke-linejoin:round;stroke-miterlimit:4;stroke-dasharray:none;stroke-dashoffset:3.20000005;stroke-opacity:1"/><path d="M81.989 42.693C69.67 47.61 59.835 50.13 50 50.56c-9.835-.423-24.28-1.873-31.715-10.285 9.21 17.17 56.303 12.252 63.704 2.417z" style="opacity:1;vector-effect:none;fill:#745b1e;fill-opacity:1;stroke:none;stroke-width:3.93414354;stroke-linecap:square;stroke-linejoin:round;stroke-miterlimit:4;stroke-dasharray:none;stroke-dashoffset:3.20000005;stroke-opacity:1"/><ellipse transform="rotate(-5.073)" ry="3.142211" rx="5.6110911" cy="58.305279" cx="73.109756" style="opacity:1;vector-effect:none;fill:#654e15;fill-opacity:1;stroke:none;stroke-width:2.82499743;stroke-linecap:square;stroke-linejoin:round;stroke-miterlimit:4;stroke-dasharray:none;stroke-dashoffset:3.20000005;stroke-opacity:1"/><ellipse style="opacity:1;vector-effect:none;fill:#654e15;fill-opacity:1;stroke:none;stroke-width:3.84666204;stroke-linecap:square;stroke-linejoin:round;stroke-miterlimit:4;stroke-dasharray:none;stroke-dashoffset:3.20000005;stroke-opacity:1" cx="7.3698168" cy="57.880978" rx="6.8253798" ry="3.6673684" transform="rotate(-14.704)"/><ellipse style="opacity:1;vector-effect:none;fill:#654e15;fill-opacity:1;stroke:none;stroke-width:3.02963018;stroke-linecap:square;stroke-linejoin:round;stroke-miterlimit:4;stroke-dasharray:none;stroke-dashoffset:3.20000005;stroke-opacity:1" cx="98.755356" cy="5.0635223" rx="4.4128618" ry="2.2465477" transform="rotate(25.28)"/><ellipse style="opacity:1;vector-effect:none;fill:#654e15;fill-opacity:1;stroke:none;stroke-width:4.20005608;stroke-linecap:square;stroke-linejoin:round;stroke-miterlimit:4;stroke-dasharray:none;stroke-dashoffset:3.20000005;stroke-opacity:1" cx="76.348701" cy="6.6469102" rx="6.1545014" ry="3.5541487" transform="matrix(.94539 .32594 -.13635 .99066 0 0)"/><ellipse style="opacity:1;vector-effect:none;fill:#654e15;fill-opacity:1;stroke:none;stroke-width:3.2745893;stroke-linecap:square;stroke-linejoin:round;stroke-miterlimit:4;stroke-dasharray:none;stroke-dashoffset:3.20000005;stroke-opacity:1" cx="17.482054" cy="66.946259" rx="3.33956" ry="1.8826374" transform="matrix(.89735 -.44133 .23932 .97094 0 0)"/><ellipse transform="rotate(10.424)" ry="2.0155587" rx="3.5992122" cy="16.111753" cx="63.314037" style="opacity:1;vector-effect:none;fill:#654e15;fill-opacity:1;stroke:none;stroke-width:1.81208324;stroke-linecap:square;stroke-linejoin:round;stroke-miterlimit:4;stroke-dasharray:none;stroke-dashoffset:3.20000005;stroke-opacity:1"/></svg>