<?xml version="1.0" encoding="UTF-8" standalone="no"?>
<svg
   xmlns:dc="http://purl.org/dc/elements/1.1/"
   xmlns:cc="http://creativecommons.org/ns#"
   xmlns:rdf="http://www.w3.org/1999/02/22-rdf-syntax-ns#"
   xmlns:svg="http://www.w3.org/2000/svg"
   xmlns="http://www.w3.org/2000/svg"
   height="100"
   width="100"
   version="1.1"
   id="svg2">
  <metadata
     id="metadata8">
    <rdf:RDF>
      <cc:Work
         rdf:about="">
        <dc:format>image/svg+xml</dc:format>
        <dc:type
           rdf:resource="http://purl.org/dc/dcmitype/StillImage" />
        <dc:title></dc:title>
        <dc:date>2021</dc:date>
        <dc:creator>
          <cc:Agent>
            <dc:title>Timothée Giet</dc:title>
          </cc:Agent>
        </dc:creator>
        <cc:license
           rdf:resource="http://creativecommons.org/licenses/by-sa/4.0/" />
      </cc:Work>
      <cc:License
         rdf:about="http://creativecommons.org/licenses/by-sa/4.0/">
        <cc:permits
           rdf:resource="http://creativecommons.org/ns#Reproduction" />
        <cc:permits
           rdf:resource="http://creativecommons.org/ns#Distribution" />
        <cc:requires
           rdf:resource="http://creativecommons.org/ns#Notice" />
        <cc:requires
           rdf:resource="http://creativecommons.org/ns#Attribution" />
        <cc:permits
           rdf:resource="http://creativecommons.org/ns#DerivativeWorks" />
        <cc:requires
           rdf:resource="http://creativecommons.org/ns#ShareAlike" />
      </cc:License>
    </rdf:RDF>
  </metadata>
  <defs
     id="defs6" />
  <path
     id="path1149-1"
     d="M 50,20.071383 C 26.650661,20.079883 6.7736416,30.779551 3.1143659,45.309625 3.0774099,45.489463 3.0430469,45.66951 3.0112843,45.849742 2.8230121,46.643255 2.6854588,47.441216 2.598958,48.241694 2.538631,48.827058 2.50563,49.413413 2.5,50 c 0.00183,3.026856 0.7323953,6.036025 2.1667752,8.924807 0.3155025,0.637715 0.6648012,1.268596 1.047309,1.891583 l 0.026802,-0.03975 C 12.803354,72.305839 30.38627,79.914386 50,79.928617 76.233526,79.928617 97.5,66.529119 97.5,50 97.48409,45.725051 96.014854,41.501856 93.19119,37.614697 93.002323,37.344782 92.807134,37.076643 92.605685,36.810364 l -0.01649,0.01871 C 84.621611,26.585589 68.104944,20.08673 50,20.071383 Z m -0.04318,22.643 c 10.277451,-0.01234 16.296785,1.015612 24.487397,4.881976 -8.18691,3.873041 -14.206573,4.008761 -24.44422,4.028004 -10.229472,-0.01743 -16.242559,-0.148066 -24.427728,-4.013976 8.146021,-3.85179 14.107099,-4.883659 24.384551,-4.896004 z"
     style="opacity:1;vector-effect:none;fill:#745b1e;fill-opacity:0.98431373;stroke:none;stroke-width:4.49649191;stroke-linecap:square;stroke-linejoin:round;stroke-miterlimit:4;stroke-dasharray:none;stroke-dashoffset:3.20000005;stroke-opacity:1" />
  <path
     id="path1149"
     d="m 50,23.021991 c -21.756231,0.007 -40.2770587,8.797489 -43.686666,20.734933 -0.034435,0.14775 -0.066453,0.295671 -0.096048,0.443744 -0.1754266,0.651925 -0.3035947,3.307504 -0.3841937,3.965151 -0.056211,0.480917 -0.086959,0.962647 -0.092206,1.444568 0.0017,2.486769 0.6824246,4.959006 2.018938,7.332337 0.293976,0.523926 0.6194423,1.042238 0.975852,1.554064 l 0.024972,-0.03266 C 15.341249,67.936149 30,75 50,75 74.443634,75 94.259114,61.190181 94.259114,47.610384 94.244294,44.098223 92.875297,40.62858 90.24429,37.435014 90.06831,37.213261 89.886439,36.992966 89.698735,36.774201 l -0.01537,0.01537 C 82.259406,28.373854 66.869656,23.034599 49.999998,23.02199 Z M 49.873216,40.725636 H 50 c 9.535998,0.01137 18.810358,1.733515 26.442132,4.909996 C 68.813808,48.817598 59.539142,50.545186 50,50.560995 40.468477,50.546674 31.199937,48.823266 23.573236,45.647157 31.16346,42.48265 40.383539,40.757294 49.873216,40.725636 Z"
     style="opacity:1;vector-effect:none;fill:#cb9923;fill-opacity:1;stroke:none;stroke-width:3.93414354;stroke-linecap:square;stroke-linejoin:round;stroke-miterlimit:4;stroke-dasharray:none;stroke-dashoffset:3.20000005;stroke-opacity:1" />
  <path
     id="path1149-6"
     d="M 81.988814,42.692708 C 69.670717,47.610387 59.835359,50.131293 50,50.560995 40.164641,50.137765 25.719348,48.688045 18.285135,40.275544 c 9.21023,17.170202 56.303262,12.252523 63.703679,2.417164 z"
     style="opacity:1;vector-effect:none;fill:#745b1e;fill-opacity:1;stroke:none;stroke-width:3.93414354;stroke-linecap:square;stroke-linejoin:round;stroke-miterlimit:4;stroke-dasharray:none;stroke-dashoffset:3.20000005;stroke-opacity:1" />
  <ellipse
     transform="rotate(-5.073297)"
     ry="3.142211"
     rx="5.6110911"
     cy="58.305279"
     cx="73.109756"
     id="path899"
     style="opacity:1;vector-effect:none;fill:#654e15;fill-opacity:1;stroke:none;stroke-width:2.82499743;stroke-linecap:square;stroke-linejoin:round;stroke-miterlimit:4;stroke-dasharray:none;stroke-dashoffset:3.20000005;stroke-opacity:1" />
  <ellipse
     style="opacity:1;vector-effect:none;fill:#654e15;fill-opacity:1;stroke:none;stroke-width:3.84666204;stroke-linecap:square;stroke-linejoin:round;stroke-miterlimit:4;stroke-dasharray:none;stroke-dashoffset:3.20000005;stroke-opacity:1"
     id="path901"
     cx="7.3698168"
     cy="57.880978"
     rx="6.8253798"
     ry="3.6673684"
     transform="rotate(-14.704379)" />
  <ellipse
     style="opacity:1;vector-effect:none;fill:#654e15;fill-opacity:1;stroke:none;stroke-width:3.02963018;stroke-linecap:square;stroke-linejoin:round;stroke-miterlimit:4;stroke-dasharray:none;stroke-dashoffset:3.20000005;stroke-opacity:1"
     id="path903"
     cx="98.755356"
     cy="5.0635223"
     rx="4.4128618"
     ry="2.2465477"
     transform="rotate(25.279843)" />
  <ellipse
     style="opacity:1;vector-effect:none;fill:#654e15;fill-opacity:1;stroke:none;stroke-width:4.20005608;stroke-linecap:square;stroke-linejoin:round;stroke-miterlimit:4;stroke-dasharray:none;stroke-dashoffset:3.20000005;stroke-opacity:1"
     id="path905"
     cx="76.348701"
     cy="6.6469102"
     rx="6.1545014"
     ry="3.5541487"
     transform="matrix(0.94539047,0.32593995,-0.1363539,0.99066019,0,0)" />
  <ellipse
     style="opacity:1;vector-effect:none;fill:#654e15;fill-opacity:1;stroke:none;stroke-width:3.2745893;stroke-linecap:square;stroke-linejoin:round;stroke-miterlimit:4;stroke-dasharray:none;stroke-dashoffset:3.20000005;stroke-opacity:1"
     id="path909"
     cx="17.482054"
     cy="66.946259"
     rx="3.33956"
     ry="1.8826374"
     transform="matrix(0.89734555,-0.44132864,0.23931829,0.97094117,0,0)" />
  <ellipse
     transform="rotate(10.423957)"
     ry="2.0155587"
     rx="3.5992122"
     cy="16.111753"
     cx="63.314037"
     id="path899-7"
     style="opacity:1;vector-effect:none;fill:#654e15;fill-opacity:1;stroke:none;stroke-width:1.81208324;stroke-linecap:square;stroke-linejoin:round;stroke-miterlimit:4;stroke-dasharray:none;stroke-dashoffset:3.20000005;stroke-opacity:1" />
</svg>
