<?xml version="1.0" encoding="UTF-8" standalone="no"?>
<!-- Created with Inkscape (http://www.inkscape.org/) -->
<svg
   xmlns:dc="http://purl.org/dc/elements/1.1/"
   xmlns:cc="http://web.resource.org/cc/"
   xmlns:rdf="http://www.w3.org/1999/02/22-rdf-syntax-ns#"
   xmlns:svg="http://www.w3.org/2000/svg"
   xmlns="http://www.w3.org/2000/svg"
   xmlns:sodipodi="http://sodipodi.sourceforge.net/DTD/sodipodi-0.dtd"
   xmlns:inkscape="http://www.inkscape.org/namespaces/inkscape"
   width="100"
   height="100"
   id="svg10790"
   sodipodi:version="0.32"
   inkscape:version="0.44.1"
   version="1.0"
   sodipodi:docbase="/home/mat/Travaux/Inkscape/Gcompris/boardicons"
   sodipodi:docname="hanoi.svg">
  <defs
     id="defs10792" />
  <sodipodi:namedview
     id="base"
     pagecolor="#ffffff"
     bordercolor="#666666"
     borderopacity="1.0"
     inkscape:pageopacity="0.0"
     inkscape:pageshadow="2"
     inkscape:zoom="4.9036492"
     inkscape:cx="63.536534"
     inkscape:cy="51.103587"
     inkscape:document-units="px"
     inkscape:current-layer="layer1"
     height="100px"
     width="100px"
     inkscape:window-width="1022"
     inkscape:window-height="927"
     inkscape:window-x="192"
     inkscape:window-y="-9" />
  <metadata
     id="metadata10795">
    <rdf:RDF>
      <cc:Work
         rdf:about="">
        <dc:format>image/svg+xml</dc:format>
        <dc:type
           rdf:resource="http://purl.org/dc/dcmitype/StillImage" />
      </cc:Work>
    </rdf:RDF>
  </metadata>
  <g
     inkscape:label="Calque 1"
     id="layer1"
     inkscape:groupmode="layer">
    <path
       style="fill:black;fill-opacity:0.25219942;fill-rule:evenodd;stroke:none;stroke-width:2.84786129;stroke-linecap:butt;stroke-linejoin:miter;stroke-miterlimit:4;stroke-dasharray:none;stroke-opacity:1"
       d="M 79.766557,1.8452327 C 78.971857,1.8452607 77.830117,1.9538697 76.329057,2.1889827 C 75.313617,2.4946917 74.564687,2.7586347 74.079057,2.9702327 C 73.637557,3.0643157 72.906987,3.3824107 71.891557,3.9702327 C 71.118947,4.3935097 70.360837,4.8359917 69.610307,5.2827327 C 69.389557,5.4238407 68.732387,5.9904067 67.672807,7.0014823 C 66.480777,8.2007163 65.891557,8.9925433 65.891557,9.3452323 C 65.891557,9.4157943 65.974137,9.6952103 66.172807,10.188982 C 66.349407,10.682795 66.472407,11.032138 66.516557,11.220232 C 67.311237,14.700315 67.882107,17.300446 68.235307,19.063982 C 68.279457,19.22859 68.420807,19.407131 68.641557,19.595232 C 68.994747,19.407131 69.574797,19.0813 70.391557,18.563982 C 71.075867,18.117228 71.441157,17.876494 71.485307,17.876482 C 71.529447,17.876494 71.593677,17.938688 71.704057,18.032732 C 70.732777,22.030115 70.266557,24.971855 70.266557,26.876482 C 70.266557,27.958127 70.330787,28.602357 70.485307,28.813982 C 70.731087,29.038391 70.917047,29.177306 71.079057,29.282732 L 71.079057,29.720232 C 70.924617,30.118284 70.764737,30.523889 70.610307,30.907732 C 70.367487,31.542608 70.266557,32.116909 70.266557,32.657732 C 70.266557,33.522843 70.512787,34.263894 71.016557,34.876482 L 70.985307,41.126482 L 68.422807,40.970232 L 57.485307,42.220232 L 54.422807,46.876482 L 55.610307,53.876482 L 57.891557,56.376482 L 57.485307,56.407732 L 54.422807,61.063982 L 55.610307,68.063982 L 57.829057,70.501482 L 55.079057,74.657732 L 56.297807,81.657732 L 59.547807,85.220232 L 66.360307,85.438982 L 54.985307,85.751482 L 54.516557,90.438982 L 56.079057,94.438982 L 68.516557,94.595232 C 68.516557,94.595232 78.714717,94.251482 79.266557,94.251482 C 79.818387,94.251482 93.516567,94.782731 93.516557,94.782732 L 96.016557,93.220232 L 96.110307,89.407732 L 95.172807,85.063982 L 91.141557,84.876482 L 79.985307,86.063982 L 79.985307,85.438982 L 79.985307,85.188982 L 90.360307,84.438982 L 94.360307,80.876482 L 94.610307,72.938982 L 91.922807,68.845232 L 93.672807,67.282732 L 93.954057,59.345232 L 91.235307,55.251482 L 93.672807,53.095232 L 93.954057,45.157732 L 91.079057,40.813982 L 83.922807,41.907732 L 79.485307,41.626482 L 79.391557,35.501482 C 79.877137,35.280777 80.256847,35.053251 80.422807,34.876482 C 81.018807,34.312143 81.507107,33.644704 81.860307,32.845232 C 81.948587,32.539548 81.994467,32.283342 82.016557,32.095232 C 82.524257,30.990075 82.766547,30.182775 82.766557,29.688982 C 82.766537,29.265731 82.757367,29.009525 82.735307,28.938982 C 82.646997,28.727357 82.450587,28.416999 82.141557,27.970232 C 81.854577,27.523469 81.704047,27.267263 81.704057,27.220232 C 81.704047,27.126179 81.781177,26.924431 81.891557,26.595232 C 82.001917,26.26604 82.047787,26.01757 82.047807,25.876482 C 82.091937,25.453235 82.110287,25.135141 82.110307,24.876482 C 82.286887,24.523778 82.698057,24.189906 83.360307,23.907732 C 84.331567,23.508001 85.089677,23.112241 85.641557,22.688982 C 87.385427,21.419236 88.567597,19.796902 89.141557,17.845232 C 89.273977,17.398479 89.347387,17.041398 89.391557,16.782732 C 90.031697,15.254338 90.360287,13.686462 90.360307,12.063982 C 90.360287,10.841274 90.209757,9.6768953 89.922807,8.5952323 C 89.591667,7.3490143 89.180497,6.3167607 88.672807,5.4702327 C 87.745657,3.9888787 86.453377,3.0030407 84.797807,2.5327327 C 84.091407,2.2976207 83.557227,2.1113457 83.204057,1.9702327 C 82.298987,1.8762047 81.157237,1.8452607 79.766557,1.8452327 z M 29.422807,21.938982 L 25.735307,24.688982 L 25.704057,27.157732 L 23.235307,27.001482 L 12.266557,28.220232 L 9.2040565,32.907732 L 10.422807,39.907732 L 12.829057,42.532732 L 12.079057,42.626482 L 9.0165565,47.282732 L 10.235307,54.282732 L 12.485307,56.751482 L 12.079057,56.813982 L 9.0165565,61.470232 L 10.235307,68.470232 L 12.454057,70.907732 L 9.7040565,75.063982 L 10.891557,82.063982 L 14.141557,85.626482 L 20.954057,85.845232 L 9.5790565,86.157732 L 9.1415565,90.845232 L 10.704057,94.845232 L 23.110307,95.001482 C 23.110307,95.001482 33.308471,94.657732 33.860307,94.657732 C 34.412139,94.657732 48.141558,95.188982 48.141557,95.188982 L 50.610307,93.626482 L 50.704057,89.813982 L 49.797807,85.470232 L 45.735307,85.282732 L 34.579057,86.470232 L 34.610307,85.845232 L 34.610307,85.595232 L 44.954057,84.845232 L 48.954057,81.282732 L 49.235307,73.345232 L 46.547807,69.251482 L 48.297807,67.688982 L 48.547807,59.751482 L 45.860307,55.688982 L 48.297807,53.501482 L 48.547807,45.563982 L 45.829057,41.470232 L 48.485307,39.126482 L 48.735307,31.188982 L 45.860307,26.845232 L 38.735307,27.938982 L 33.860307,27.657732 L 33.797807,22.751482 L 29.422807,21.938982 z "
       id="path6789" />
    <path
       style="fill:#ffb380;fill-opacity:1;fill-rule:evenodd;stroke:black;stroke-width:2.84786129;stroke-linecap:butt;stroke-linejoin:miter;stroke-miterlimit:4;stroke-dasharray:none;stroke-opacity:1"
       d="M 19.19665,23.508286 L 22.907985,20.778856 L 27.264768,21.58163 L 27.587492,43.898727 L 26.942044,64.770827 L 28.071579,84.679612 L 27.910218,91.744009 L 23.876158,93.349557 L 20.326187,93.189003 L 18.873926,88.85403 C 18.873926,88.85403 19.358013,64.931382 19.358013,63.968061 C 19.358013,63.004732 19.035288,45.183164 19.035288,45.183164 L 19.19665,23.508286 z "
       id="path31041" />
    <path
       style="fill:none;fill-opacity:0.75000000;fill-rule:evenodd;stroke:#000000;stroke-linecap:butt;stroke-linejoin:miter;stroke-opacity:1.0000000;stroke-width:1,000000pt"
       d="M 8,013077 25,081298 L 8,013077 90,548682 M 18,013077 25,081298 L 18,013077 90,548682 M 28,013077 25,081298 L 28,013077 90,548682 M 38,013077 25,081298 L 38,013077 90,548682 M 48,013077 25,081298 L 48,013077 90,548682 M 58,013077 25,081298 L 58,013077 90,548682 M 68,013077 25,081298 L 68,013077 90,548682 M 78,013077 25,081298 L 78,013077 90,548682 M 88,013077 25,081298 L 88,013077 90,548682 M 98,013077 25,081298 L 98,013077 90,548682 M 3,013077 30,081298 L 102,497492 30,081298 M 3,013077 40,081298 L 102,497492 40,081298 M 3,013077 50,081298 L 102,497492 50,081298 M 3,013077 60,081298 L 102,497492 60,081298 M 3,013077 70,081298 L 102,497492 70,081298 M 3,013077 80,081298 L 102,497492 80,081298 M 3,013077 90,081298 L 102,497492 90,081298 "
       id="path25447" />
    <path
       style="fill:none;fill-opacity:0.75000000;fill-rule:evenodd;stroke:#000000;stroke-linecap:butt;stroke-linejoin:miter;stroke-opacity:1.0000000;stroke-width:1,000000pt"
       d="M 8,013077 25,081298 L 8,013077 90,548682 M 13,213077 25,081298 L 13,213077 90,548682 M 18,413077 25,081298 L 18,413077 90,548682 M 23,613077 25,081298 L 23,613077 90,548682 M 28,813077 25,081298 L 28,813077 90,548682 M 34,013076 25,081298 L 34,013076 90,548682 M 39,213076 25,081298 L 39,213076 90,548682 M 44,413076 25,081298 L 44,413076 90,548682 M 49,613076 25,081298 L 49,613076 90,548682 M 54,813076 25,081298 L 54,813076 90,548682 M 60,013075 25,081298 L 60,013075 90,548682 M 65,213075 25,081298 L 65,213075 90,548682 M 70,413075 25,081298 L 70,413075 90,548682 M 75,613075 25,081298 L 75,613075 90,548682 M 80,813075 25,081298 L 80,813075 90,548682 M 86,013074 25,081298 L 86,013074 90,548682 M 91,213074 25,081298 L 91,213074 90,548682 M 96,413074 25,081298 L 96,413074 90,548682 M 101,613074 25,081298 L 101,613074 90,548682 M 3,013077 30,081298 L 102,497492 30,081298 M 3,013077 40,081298 L 102,497492 40,081298 M 3,013077 50,081298 L 102,497492 50,081298 M 3,013077 60,081298 L 102,497492 60,081298 M 3,013077 70,081298 L 102,497492 70,081298 M 3,013077 80,081298 L 102,497492 80,081298 M 3,013077 90,081298 L 102,497492 90,081298 "
       id="path25449" />
    <path
       style="fill:black;fill-opacity:1;fill-rule:evenodd;stroke:none;stroke-width:1px;stroke-linecap:butt;stroke-linejoin:miter;stroke-opacity:1"
       d="M 6.2277888,69.229824 L 3.1647336,73.893004 L 4.3713913,80.887774 L 7.6200859,84.462878 L 21.450243,84.929196 L 38.436274,83.685682 L 42.427528,80.110578 L 42.705987,72.183171 L 39.828572,67.830871 L 32.681444,68.918945 L 17.180531,67.98631 L 6.2277888,69.229824 z "
       id="path31037" />
    <path
       style="fill:#2165cd;fill-opacity:1;fill-rule:evenodd;stroke:none;stroke-width:1px;stroke-linecap:butt;stroke-linejoin:miter;stroke-opacity:1"
       d="M 8.8207214,71.54364 L 6.1944478,74.410076 L 7.2290408,78.709732 L 10.014481,80.907333 L 21.872499,81.193978 L 36.436374,80.429594 L 39.858484,78.231993 L 40.097237,73.359049 L 37.630133,70.683709 L 31.502165,71.352544 L 18.211633,70.779255 L 8.8207214,71.54364 z "
       id="path31039" />
    <path
       style="fill:#ffb380;fill-opacity:1;fill-rule:evenodd;stroke:black;stroke-width:2.84786129;stroke-linecap:butt;stroke-linejoin:miter;stroke-miterlimit:4;stroke-dasharray:none;stroke-opacity:1"
       d="M 4.1699886,93.669847 L 2.6064533,89.677819 L 3.066316,84.991526 L 15.850516,84.644393 L 27.806959,85.338658 L 39.211574,84.123694 L 43.258366,84.29726 L 44.178093,88.636421 L 44.08612,92.454882 L 41.60286,94.016979 C 41.60286,94.016979 27.898932,93.49628 27.3471,93.49628 C 26.795263,93.49628 16.586298,93.843413 16.586298,93.843413 L 4.1699886,93.669847 z "
       id="path31928" />
    <path
       style="fill:black;fill-opacity:1;fill-rule:evenodd;stroke:none;stroke-width:1px;stroke-linecap:butt;stroke-linejoin:miter;stroke-opacity:1"
       d="M 5.5592871,55.634406 L 2.4962319,60.297586 L 3.7028896,67.292356 L 6.9515842,70.867459 L 20.781742,71.333777 L 37.767772,70.090264 L 41.759026,66.515159 L 42.037485,58.587753 L 39.16007,54.235452 L 32.012942,55.323526 L 16.512029,54.390891 L 5.5592871,55.634406 z "
       id="path36355" />
    <path
       style="fill:#85c751;fill-opacity:1;fill-rule:evenodd;stroke:none;stroke-width:1px;stroke-linecap:butt;stroke-linejoin:miter;stroke-opacity:1"
       d="M 8.1522197,57.948221 L 5.5259462,60.814658 L 6.5605391,65.114314 L 9.345979,67.311914 L 21.203997,67.598559 L 35.767872,66.834175 L 39.189982,64.636575 L 39.428735,59.76363 L 36.961631,57.088291 L 30.833663,57.757125 L 17.543132,57.183837 L 8.1522197,57.948221 z "
       id="path36357" />
    <path
       style="fill:black;fill-opacity:1;fill-rule:evenodd;stroke:none;stroke-width:1px;stroke-linecap:butt;stroke-linejoin:miter;stroke-opacity:1"
       d="M 5.5592872,41.448613 L 2.496232,46.111793 L 3.7028897,53.106563 L 6.9515843,56.681667 L 20.781742,57.147985 L 37.767773,55.904471 L 41.759027,52.329367 L 42.037486,44.40196 L 39.160071,40.049659 L 32.012943,41.137734 L 16.51203,40.205098 L 5.5592872,41.448613 z "
       id="path36363" />
    <path
       style="fill:#ff140e;fill-opacity:1;fill-rule:evenodd;stroke:none;stroke-width:1px;stroke-linecap:butt;stroke-linejoin:miter;stroke-opacity:1"
       d="M 8.1522198,43.762428 L 5.5259462,46.628865 L 6.5605392,50.928521 L 9.345979,53.126122 L 21.203998,53.412767 L 35.767873,52.648383 L 39.189983,50.450782 L 39.428736,45.577838 L 36.961632,42.902498 L 30.833664,43.571332 L 17.543133,42.998044 L 8.1522198,43.762428 z "
       id="path36365" />
    <path
       style="fill:black;fill-opacity:1;fill-rule:evenodd;stroke:none;stroke-width:1px;stroke-linecap:butt;stroke-linejoin:miter;stroke-opacity:1"
       d="M 5.7468561,27.063021 L 2.6838009,31.726201 L 3.8904586,38.720971 L 7.1391532,42.296075 L 20.969311,42.762393 L 37.955342,41.51888 L 41.946595,37.943775 L 42.225054,30.016369 L 39.347639,25.664068 L 32.200511,26.752142 L 16.699598,25.819507 L 5.7468561,27.063021 z "
       id="path36367" />
    <path
       style="fill:#ffba0e;fill-opacity:1;fill-rule:evenodd;stroke:none;stroke-width:1px;stroke-linecap:butt;stroke-linejoin:miter;stroke-opacity:1"
       d="M 8.3397887,29.376837 L 5.7135151,32.243273 L 6.7481081,36.54293 L 9.5335483,38.74053 L 21.391566,39.027175 L 35.955441,38.262791 L 39.377551,36.06519 L 39.616304,31.192246 L 37.1492,28.516906 L 31.021232,29.185741 L 17.730701,28.612453 L 8.3397887,29.376837 z "
       id="path36369" />
    <path
       style="fill:#ffb380;fill-opacity:1;fill-rule:evenodd;stroke:black;stroke-width:2.84786129;stroke-linecap:butt;stroke-linejoin:miter;stroke-miterlimit:4;stroke-dasharray:none;stroke-opacity:1"
       d="M 64.588355,23.100786 L 68.29969,20.371356 L 72.656473,21.17413 L 72.979197,43.491227 L 72.333749,64.363327 L 73.463284,84.272112 L 73.301923,91.336513 L 69.267863,92.942056 L 65.717892,92.781505 L 64.265631,88.44653 C 64.265631,88.44653 64.749718,64.523882 64.749718,63.560561 C 64.749718,62.597232 64.426993,44.775664 64.426993,44.775664 L 64.588355,23.100786 z "
       id="path36371" />
    <path
       style="fill:black;fill-opacity:1;fill-rule:evenodd;stroke:none;stroke-width:1px;stroke-linecap:butt;stroke-linejoin:miter;stroke-opacity:1"
       d="M 51.619495,68.822324 L 48.556439,73.485504 L 49.763097,80.480274 L 53.011791,84.055378 L 66.841949,84.521696 L 83.827979,83.278182 L 87.819235,79.703078 L 88.097696,71.775671 L 85.220279,67.423371 L 78.073149,68.511445 L 62.572236,67.57881 L 51.619495,68.822324 z "
       id="path36373" />
    <path
       style="fill:#2165cd;fill-opacity:1;fill-rule:evenodd;stroke:none;stroke-width:1px;stroke-linecap:butt;stroke-linejoin:miter;stroke-opacity:1"
       d="M 54.212427,71.13614 L 51.586154,74.002576 L 52.620746,78.302232 L 55.406186,80.499833 L 67.264204,80.786478 L 81.828079,80.022094 L 85.25019,77.824493 L 85.488944,72.951549 L 83.021838,70.276209 L 76.89387,70.945044 L 63.603339,70.371755 L 54.212427,71.13614 z "
       id="path36375" />
    <path
       style="fill:#ffb380;fill-opacity:1;fill-rule:evenodd;stroke:black;stroke-width:2.84786129;stroke-linecap:butt;stroke-linejoin:miter;stroke-miterlimit:4;stroke-dasharray:none;stroke-opacity:1"
       d="M 49.561694,93.262346 L 47.998159,89.270319 L 48.458021,84.584026 L 61.242221,84.236893 L 73.198664,84.931158 L 84.603277,83.716194 L 88.650075,83.88976 L 89.569801,88.228921 L 89.477824,92.047379 L 86.994566,93.60948 C 86.994566,93.60948 73.290637,93.088783 72.738805,93.088783 C 72.186969,93.088783 61.978003,93.435908 61.978003,93.435908 L 49.561694,93.262346 z "
       id="path36377" />
    <path
       style="fill:black;fill-opacity:1;fill-rule:evenodd;stroke:none;stroke-width:1px;stroke-linecap:butt;stroke-linejoin:miter;stroke-opacity:1"
       d="M 50.950993,55.226906 L 47.887937,59.890086 L 49.094595,66.884856 L 52.343289,70.459959 L 66.173447,70.926277 L 83.159477,69.682764 L 87.150735,66.107659 L 87.429187,58.180253 L 84.551779,53.827952 L 77.404647,54.916026 L 61.903734,53.983391 L 50.950993,55.226906 z "
       id="path36379" />
    <path
       style="fill:#85c751;fill-opacity:1;fill-rule:evenodd;stroke:none;stroke-width:1px;stroke-linecap:butt;stroke-linejoin:miter;stroke-opacity:1"
       d="M 53.543925,57.540721 L 50.917652,60.407158 L 51.952244,64.706814 L 54.737684,66.904414 L 66.595702,67.191059 L 81.159577,66.426675 L 84.58169,64.229075 L 84.820444,59.35613 L 82.353336,56.680791 L 76.225368,57.349625 L 62.934837,56.776337 L 53.543925,57.540721 z "
       id="path36381" />
    <path
       style="fill:black;fill-opacity:1;fill-rule:evenodd;stroke:none;stroke-width:1px;stroke-linecap:butt;stroke-linejoin:miter;stroke-opacity:1"
       d="M 50.950993,41.041113 L 47.887937,45.704293 L 49.094595,52.699063 L 52.343289,56.274167 L 66.173448,56.740485 L 83.159478,55.496971 L 87.150735,51.921867 L 87.429196,43.99446 L 84.551779,39.642159 L 77.404648,40.730234 L 61.903735,39.797598 L 50.950993,41.041113 z "
       id="path36383" />
    <path
       style="fill:#ff140e;fill-opacity:1;fill-rule:evenodd;stroke:none;stroke-width:1px;stroke-linecap:butt;stroke-linejoin:miter;stroke-opacity:1"
       d="M 53.543925,43.354928 L 50.917652,46.221365 L 51.952244,50.521021 L 54.737684,52.718622 L 66.595703,53.005267 L 81.159578,52.240883 L 84.58169,50.043282 L 84.820444,45.170338 L 82.353337,42.494998 L 76.225369,43.163832 L 62.934838,42.590544 L 53.543925,43.354928 z "
       id="path36385" />
    <path
       style="fill:#ffba0e;fill-opacity:1;fill-rule:evenodd;stroke:black;stroke-width:0.94928712px;stroke-linecap:butt;stroke-linejoin:miter;stroke-opacity:1"
       d="M 61.176229,9.0913511 L 69.429267,3.6967535 L 78.432582,4.6957531 L 82.371527,10.48995 L 80.870983,19.081346 L 75.056336,23.277143 L 73.555791,27.073341 L 74.868767,30.869539 L 70.929821,35.065336 L 64.927614,34.066338 L 64.927614,29.87054 L 65.677892,28.272141 L 64.740045,24.875543 L 66.428169,15.684747 L 62.676783,17.482947 L 61.176229,9.0913511 z "
       id="path36501" />
    <text
       xml:space="preserve"
       style="font-size:34.17433548px;font-style:normal;font-variant:normal;font-weight:normal;font-stretch:normal;text-align:start;line-height:100%;writing-mode:lr-tb;text-anchor:start;fill:black;fill-opacity:1;stroke:none;stroke-width:1px;stroke-linecap:butt;stroke-linejoin:miter;stroke-opacity:1;font-family:Indigo Joker"
       x="62.156113"
       y="27.772446"
       id="text36503"
       sodipodi:linespacing="100%"
       transform="scale(0.968909,1.032089)"><tspan
         sodipodi:role="line"
         id="tspan36505"
         x="62.156113"
         y="27.772446">?</tspan></text>
  </g>
</svg>
