<!--Created with Inkscape (http://www.inkscape.org/)--><svg xmlns:dc="http://purl.org/dc/elements/1.1/" xmlns:cc="http://creativecommons.org/ns#" xmlns:rdf="http://www.w3.org/1999/02/22-rdf-syntax-ns#" xmlns="http://www.w3.org/2000/svg" xmlns:xlink="http://www.w3.org/1999/xlink" xmlns:sodipodi="http://sodipodi.sourceforge.net/DTD/sodipodi-0.dtd" xmlns:inkscape="http://www.inkscape.org/namespaces/inkscape" width="800" height="520" sodipodi:version="0.32" inkscape:version="0.91 r13725" version="1.0" sodipodi:docname="background.svg" inkscape:export-filename="/home/bruno/Projets/gcompris/gcompris-ressources/herve_chanal/fondssphinx2.png" inkscape:export-xdpi="89.417534" inkscape:export-ydpi="89.417534"><sodipodi:namedview pagecolor="#ffffff" bordercolor="#666666" borderopacity="1.0" inkscape:pageopacity="0.0" inkscape:pageshadow="2" inkscape:zoom="0.99590567" inkscape:cx="311.90373" inkscape:cy="413.15371" inkscape:document-units="px" inkscape:current-layer="layer1" showguides="true" inkscape:guide-bbox="true" inkscape:window-width="1880" inkscape:window-height="1060" inkscape:window-x="-2" inkscape:window-y="-3" width="800px" height="520px" borderlayer="true" inkscape:guide-points="true" guidetolerance="50" showgrid="true" inkscape:window-maximized="1" inkscape:snap-global="false"><sodipodi:guide orientation="vertical" position="801.28072"/><sodipodi:guide orientation="vertical" position="-0.71001383"/><sodipodi:guide orientation="horizontal" position="-1.4200277"/><sodipodi:guide orientation="horizontal" position="520.08513"/><sodipodi:guide orientation="horizontal" position="-1.4200276"/></sodipodi:namedview><defs><linearGradient inkscape:collect="always" xlink:href="#c" id="j" x1="542.78876" y1="418.95435" x2="542.88544" y2="417.061" gradientUnits="userSpaceOnUse" gradientTransform="matrix(2.5523 0 0 2.5523 -841.307 -647.362)"/><linearGradient inkscape:collect="always" id="c"><stop style="stop-color:#9dbcdc;stop-opacity:1" offset="0"/><stop style="stop-color:#69c;stop-opacity:1" offset="1"/></linearGradient><linearGradient inkscape:collect="always" id="a"><stop style="stop-color:#85d8f6;stop-opacity:1" offset="0"/><stop style="stop-color:#4ba2d6;stop-opacity:1" offset="1"/></linearGradient><linearGradient inkscape:collect="always" xlink:href="#a" id="e" x1="330.60138" y1="334.897" x2="332.02139" y2="437.13898" gradientUnits="userSpaceOnUse"/><linearGradient inkscape:collect="always" xlink:href="#b" id="d" x1="376.64035" y1="164.7921" x2="376.64035" y2="348.68567" gradientUnits="userSpaceOnUse"/><linearGradient inkscape:collect="always" id="b"><stop style="stop-color:#3cc1f1;stop-opacity:1" offset="0"/><stop style="stop-color:#85d8f6;stop-opacity:1" offset="1"/></linearGradient><linearGradient inkscape:collect="always" xlink:href="#c" id="k" x1="542.78876" y1="418.95435" x2="542.88544" y2="417.061" gradientUnits="userSpaceOnUse" gradientTransform="matrix(2.5523 0 0 2.5523 -856.248 -647.362)"/><linearGradient inkscape:collect="always" xlink:href="#c" id="g" gradientUnits="userSpaceOnUse" gradientTransform="matrix(-2.5523 0 0 2.5523 2068.036 -682.422)" x1="542.78876" y1="418.95435" x2="542.88544" y2="417.061"/><linearGradient inkscape:collect="always" xlink:href="#c" id="f" gradientUnits="userSpaceOnUse" gradientTransform="matrix(-2.5523 0 0 2.5523 2053.094 -682.422)" x1="542.78876" y1="418.95435" x2="542.88544" y2="417.061"/><linearGradient inkscape:collect="always" xlink:href="#c" id="i" gradientUnits="userSpaceOnUse" gradientTransform="scale(2.5523) rotate(-21.585 -342.517 1225.02)" x1="542.78876" y1="418.95435" x2="542.88544" y2="417.061"/><linearGradient inkscape:collect="always" xlink:href="#c" id="h" gradientUnits="userSpaceOnUse" gradientTransform="scale(2.5523) rotate(-21.585 -345.444 1209.666)" x1="542.78876" y1="418.95435" x2="542.88544" y2="417.061"/></defs><metadata><rdf:RDF><cc:Work><dc:format>image/svg+xml</dc:format><dc:type rdf:resource="http://purl.org/dc/dcmitype/StillImage"/><dc:title/><dc:date>2015</dc:date><dc:creator><cc:Agent><dc:title>Timothée Giet</dc:title></cc:Agent></dc:creator><cc:license rdf:resource="http://creativecommons.org/licenses/by-sa/4.0/"/></cc:Work><cc:License rdf:about="http://creativecommons.org/licenses/by-sa/4.0/"><cc:permits rdf:resource="http://creativecommons.org/ns#Reproduction"/><cc:permits rdf:resource="http://creativecommons.org/ns#Distribution"/><cc:requires rdf:resource="http://creativecommons.org/ns#Notice"/><cc:requires rdf:resource="http://creativecommons.org/ns#Attribution"/><cc:permits rdf:resource="http://creativecommons.org/ns#DerivativeWorks"/><cc:requires rdf:resource="http://creativecommons.org/ns#ShareAlike"/></cc:License></rdf:RDF></metadata><g inkscape:label="Calque 1" inkscape:groupmode="layer"><path style="fill:#e5cd8b;fill-opacity:1;fill-rule:evenodd;stroke:none;stroke-width:4;stroke-miterlimit:4;stroke-dasharray:none;stroke-opacity:1" d="M-1.36 360h804.12v79.016L-1.36 434.77z" inkscape:connector-curvature="0" sodipodi:nodetypes="ccccc"/><rect style="fill:url(#d);fill-opacity:1;fill-rule:nonzero;stroke:none" width="803.38293" height="343.46051" x="0.68574661" y="-0.54805422"/><rect style="opacity:.50899999;fill:#e1f1fb;fill-opacity:1;fill-rule:evenodd;stroke:none;stroke-width:4;stroke-miterlimit:4;stroke-dasharray:none;stroke-opacity:1" width="804.11969" height="111.67542" x="-1.3591182" y="327.34024" inkscape:export-filename="/home/bruno/Projets/gcompris/gcompris/boards/images/scenery_background.png" inkscape:export-xdpi="84.799667" inkscape:export-ydpi="84.799667"/><path style="fill:#4ba2d6;fill-opacity:1;fill-rule:evenodd;stroke:none;stroke-width:4;stroke-miterlimit:4;stroke-dasharray:none;stroke-opacity:1" d="M-1.36 327.34h804.12v97.676c-216.208-20.997-537.742-40.816-804.12-6z" inkscape:connector-curvature="0" sodipodi:nodetypes="ccccc"/><path style="opacity:.50899999;fill:url(#e);fill-opacity:1;fill-rule:evenodd;stroke:none;stroke-width:4;stroke-miterlimit:4;stroke-dasharray:none;stroke-opacity:1" d="M-1.36 327.34h804.12v103.676c-221.888-37.73-585.07-34.668-804.12-6z" inkscape:connector-curvature="0" sodipodi:nodetypes="ccccc"/><path d="M-2.829 523.653c-2.945-6.122 0-65.25 0-93.305 254.613-30.892 590.544-39.338 810.5 7.2l-1.42 86.105s-507.89.934-600.29.663c-92.389-.27-208.79-.663-208.79-.663z" inkscape:connector-curvature="0" style="fill:#e5cd8b;fill-opacity:1;fill-rule:evenodd;stroke:none;stroke-width:3.5;stroke-linejoin:round;stroke-miterlimit:4;stroke-dasharray:none;stroke-opacity:1" sodipodi:nodetypes="ccccsc"/><path d="M648.183 409.864c6.042-1.237 12.26-3.013 18.561-4.193 6.195-1.16-4.599-.93 1.61-1.953 5.313-.877 26.478-1.846 31.75-2.483 5.32-.643-6.633-1.375-1.293-1.745 5.316-.37 29.08-1.529 34.476-1.599 5.292-.068-7.392-.486-1.964-.24 5.996 1.27 29.121 4.084 35.12 5.297 5.985 1.21 8.92 3.01 14.975 4.112 5.985 1.09 12.938 1.987 19.055 2.924 5.995.919 3.71 2.16 9.89 2.885 5.387.547 6.007.557 11.448.945 5.41.387 14.931-2.17 20.374-1.9 5.426.268 20.588.982 26.025 1.174 5.44.193 6.78 3.135 12.21 3.29 0 0-11.175-1.127-18.881 1.54-4.503 1.557-14.832 3.828-19.334 5.386-7.707 2.666-16.188 5.611-16.188 5.611-5.46-.227 3.55 1.364-1.888 1.115-5.458-.249-23.328-3.075-28.763-3.383-5.453-.31-5.018-1.248-10.447-1.656-5.441-.408.19.602-5.227.056-6.27-.732-14.562-2.456-20.663-3.381-6.2-.941-25.672.478-31.78-.58-6.14-1.063 2.107-4.335-4.025-5.431-6.102-1.091-11.125-1.138-17.301-2.178-5.21-.075-23.276-1.858-28.391-1.7-5.192.158-11.314.513-16.429.915-5.157.406-2.608.86-7.708 1.515-5.104.657-18.477 4.512-23.544 5.424-4.543.82-11.765 1.328-16.292 2.26-4.502.927-8.413-.356-12.987.433-4.515.78-10.734 3.332-15.404 3.738 0 0 13.552-1.411 21.777-4.299 4.805-1.687 3.113-4.567 7.918-6.254 8.224-2.888 15.37-6.737 15.37-6.737l12.71 2.36" inkscape:connector-curvature="0" style="fill:#54aadb;fill-opacity:1;stroke-opacity:0"/><path sodipodi:nodetypes="cscsc" style="fill:#6cc13e;fill-opacity:1;fill-rule:evenodd;stroke:none;stroke-width:2;stroke-linejoin:round" inkscape:connector-curvature="0" d="M384.468 531.668c15.226-21.48 32.66-144.74 201.25-150.56 168.59-5.82 209.536 148.667 215.563 152.312-14.173 1.752-123.643.58-215.233 0-91.58-.58-178.174 0-201.58-1.752z"/><path d="M525.825 309.82c-38.075 0-68.981 30.838-68.981 68.836 0 20.696 9.164 39.25 23.66 51.871 13.977 3.435 29.22 5.333 45.175 5.333 16.112 0 31.5-1.944 45.595-5.443 10.267-8.989 17.844-20.958 21.356-34.552a68.604 68.604 0 0 0 2.176-17.209c0-37.998-30.906-68.836-68.981-68.836z" inkscape:connector-curvature="0" style="fill:#718f8f;fill-opacity:1;stroke:none;stroke-width:2.00003123;stroke-linecap:round;stroke-linejoin:round"/><path d="M525.825 311.897c-35.304 0-63.96 29.944-63.96 66.842 0 20.096 8.497 38.113 21.938 50.369 12.96 3.335 27.093 5.178 41.887 5.178 14.939 0 29.208-1.888 42.276-5.286 9.52-8.728 16.546-20.351 19.802-33.55a69.595 69.595 0 0 0 2.017-16.711c0-36.898-28.656-66.842-63.96-66.842z" inkscape:connector-curvature="0" style="fill:#ecf4f4;fill-opacity:1;stroke:none;stroke-width:2.00003123;stroke-linecap:round;stroke-linejoin:round"/><path d="M634.64 319.442c38.075 0 68.981 30.837 68.981 68.835 0 20.696-9.164 39.25-23.66 51.872-13.978 3.434-29.22 5.332-45.175 5.332-16.112 0-31.501-1.944-45.595-5.443-10.267-8.989-17.845-20.958-21.356-34.552a68.604 68.604 0 0 1-2.176-17.209c0-37.998 30.906-68.835 68.98-68.835z" inkscape:connector-curvature="0" style="fill:#718f8f;fill-opacity:1;stroke:none;stroke-width:2.00003123;stroke-linecap:round;stroke-linejoin:round"/><path d="M450.474 375.697c-15.428 8.145-2.66 27.59-.816 27.071 3.18-.893 8.704-12.984 8.736-17.385.031-4.387-1.909-8.783-7.92-9.686z" inkscape:connector-curvature="0" style="fill:#997b43;fill-opacity:1;fill-rule:evenodd;stroke:none;stroke-width:2.00003123" sodipodi:nodetypes="cscc"/><path d="M634.64 321.518c35.304 0 63.96 29.944 63.96 66.842 0 20.097-8.497 38.113-21.938 50.369-12.96 3.335-27.094 5.178-41.887 5.178-14.94 0-29.208-1.888-42.276-5.286-9.52-8.728-16.546-20.35-19.802-33.55a69.595 69.595 0 0 1-2.018-16.711c0-36.898 28.657-66.842 63.96-66.842z" inkscape:connector-curvature="0" style="fill:#ecf4f4;fill-opacity:1;stroke:none;stroke-width:2.00003123;stroke-linecap:round;stroke-linejoin:round"/><path d="M450.919 374.471c-11.532 11.873-2.384 24.84-.75 24.374 2.82-.802 7.957-11.587 8.03-15.385.07-3.785-1.977-8.27-7.28-8.989z" inkscape:connector-curvature="0" style="fill:#d7b980;fill-opacity:1;fill-rule:evenodd;stroke:none;stroke-width:2.00003123" sodipodi:nodetypes="cscc"/><path style="fill:#6cc13e;fill-rule:evenodd;stroke:none;stroke-width:2;stroke-linejoin:round;fill-opacity:1" inkscape:connector-curvature="0" d="M593.308 453.278c12.07-3.59 20.88-18.27 21.21-15.66.33 2.61 1.3 7.58 4.57 1.63 5.55-10.11 3.59-2.28 6.85-.65 2.35 1.17 3.59-5.22 5.55-7.18s-2.29 14.36.65 11.42c2.94-2.94 3.92-4.24 5.55-5.55 1.63-1.3-2.61 6.85-.98 6.85s-.65 2.29 4.24.66c4.9-1.63-1.3 2.28-1.3 5.22"/><path d="M179.955 371.434c5.734-1.235 6.425.353 12.405-.825 5.879-1.159 23.728-1.984 29.62-3.006 5.043-.876 1.52-4.64 6.524-5.276 5.05-.642 8.504 1.85 13.572 1.48 5.045-.368 22.69-2.986 27.81-3.055 5.022-.07 3.257 2.682 8.408 2.928 5.69 1.267 5.979 2.282 11.672 3.493 5.68 1.207 7.138.544 12.883 1.645 5.68 1.089 29.458 2.6 35.263 3.536 5.69.917-6.807 1.609-.942 2.333 5.111.546 20.673 2.712 25.837 3.1 5.134.386 18.12-.842 23.286-.573 5.15.268 5.38-1.175 10.54-.982 5.164.192 14.926 2.35 20.079 2.506 0 0-16.58.022-23.894 2.684-4.273 1.555-13.26 6.224-17.533 7.78-7.314 2.661-4.857 1.908-4.857 1.908-5.181-.227-6.362 2.43-11.522 2.181-5.18-.248-9.162-2.724-14.32-3.032-5.175-.309-24.501 1.488-29.654 1.081-5.164-.408 1.836-.682-3.305-1.227-5.951-.73-12.887-4.436-18.676-5.36-5.884-.94-12.451-2.027-18.247-3.082-5.829-1.062-15.936-2.301-21.755-3.396-5.791-1.09-1.848-.598-7.71-1.635-4.943-.075-15.749-1.507-20.604-1.35-4.927.159-3.962 1.804-8.816 2.205-4.894.405-21.973-.435-26.813.22-4.844.655-11.835 4.427-16.644 5.337-4.311.819-12.196.003-16.493.935-4.272.925-5.456.892-9.797 1.68-4.285.778-11.707 3.124-16.14 3.53 0 0 24.113-2.29 31.918-5.173 4.56-1.684-7.72-4.62-3.16-6.304 7.806-2.883 13.678-4.912 13.678-4.912l18.095.466" inkscape:connector-curvature="0" style="fill:#54aadb;fill-opacity:1;stroke-opacity:0"/><path d="M698.442 373.52c17.343 1.897 12.624 24.675 10.718 24.872-3.285.339-12.87-8.872-14.52-12.953-1.642-4.067-1.455-8.87 3.802-11.92z" inkscape:connector-curvature="0" style="fill:#997b43;fill-opacity:1;fill-rule:evenodd;stroke:none;stroke-width:2.00003123" sodipodi:nodetypes="cscc"/><path d="M507.435 368.455a31.288 31.351 68.415 0 1-58.305 23.067 31.288 31.351 68.415 1 1 58.305-23.067z" inkscape:connector-curvature="0" style="fill:#997b43;fill-opacity:1;stroke:none;stroke-width:2.00003123;stroke-linecap:round;stroke-linejoin:round"/><path d="M8.04 355.105c3.872-.715 5.362-2.12 9.4-2.803 3.967-.67 13.104-.4 17.08-.992 3.408-.507 1.84-1.744 5.22-2.113 3.41-.371 6.736-1.337 10.157-1.551 3.403-.213 18.646.726 22.1.685 3.388-.04-2.188-1.739 1.286-1.597 3.845.735 17.753 2 21.6 2.702 3.835.699.605 3 4.485 3.637 3.834.63 5.744-1.041 9.661-.5 3.836.53 13.41 3.164 17.365 3.583 3.451.316 10.28-.043 13.766.182 3.466.223 4.708.912 8.195 1.068 3.476.155 3.56-1.844 7.043-1.733 3.485.112 9.312 2.445 12.79 2.535 0 0-.408.458-5.345 1.998-2.884.9-6.621 1.11-9.506 2.01-4.936 1.54-15.216 2.14-15.216 2.14-3.496-.132-13.594.747-17.077.603-3.496-.144 6.528-.281 3.046-.46-3.493-.178-7.585.286-11.063.05-3.487-.236-6.508-.727-9.98-1.042-4.013-.422-14.41-.018-18.316-.552-3.971-.544-14.815-2.146-18.727-2.757-3.936-.615-1.652-.242-5.582-.876-3.91-.63-13.915-2.717-17.874-3.318-4.458-.057-4.659-.825-9.013-.643-4.43.185-5.968.42-10.322.859-4.38.44-12.411 1.154-16.744 1.858-4.362.71 1.333 2.791-3.04 3.566-4.307.762-8.812 1.56-13.314 1.915 0 0 3.982-1.2 9.25-2.87 3.078-.974-5.343-3.205-2.265-4.18 5.269-1.668 8.443-2.588 8.443-2.588l.41-.222" inkscape:connector-curvature="0" style="fill:#54aadb;fill-opacity:1;stroke-opacity:0"/><path d="M697.578 372.543c15.09 6.798 11.355 22.22 9.663 22.389-2.917.29-11.661-7.848-13.126-11.353-1.458-3.493-1.204-8.416 3.463-11.036z" inkscape:connector-curvature="0" style="fill:#d7b980;fill-opacity:1;fill-rule:evenodd;stroke:none;stroke-width:2.00003123" sodipodi:nodetypes="cscc"/><path d="M642.812 387.74a31.351 31.288 0 0 0 62.702 0 31.351 31.288 0 1 0-62.702 0z" inkscape:connector-curvature="0" style="fill:#997b43;fill-opacity:1;stroke:none;stroke-width:2.00003123;stroke-linecap:round;stroke-linejoin:round"/><path d="M645.579 387.112a28.584 29.154 0 0 0 57.168 0 28.584 29.154 0 1 0-57.168 0z" inkscape:connector-curvature="0" style="fill:#d7b980;fill-opacity:1;stroke:none;stroke-width:2.00003123;stroke-linecap:round;stroke-linejoin:round"/><path d="M674.937 381.157a8.658 10.597 13.842 0 1-16.088-6.568 8.658 10.597 13.842 1 1 16.088 6.568z" inkscape:connector-curvature="0" style="fill:#997b43;fill-opacity:1;stroke:none;stroke-width:2.00002837;stroke-linecap:round;stroke-linejoin:round"/><path d="M674.937 381.675a8.602 9.9 21.067 0 1-16.088-6.096 8.602 9.9 21.067 1 1 16.088 6.096z" inkscape:connector-curvature="0" style="fill:#f3f7f7;fill-opacity:1;stroke:none;stroke-width:2.00002837;stroke-linecap:round;stroke-linejoin:round"/><path d="M694.318 374.522a10.525 8.642 77.412 0 1-16.351 5.718 10.525 8.642 77.412 1 1 16.351-5.718z" inkscape:connector-curvature="0" style="fill:#997b43;fill-opacity:1;stroke:none;stroke-width:2.0000298;stroke-linecap:round;stroke-linejoin:round"/><path d="M694.318 375.368a9.899 8.603 71.59 0 1-16.352 5.354 9.899 8.603 71.59 0 1 16.352-5.354z" inkscape:connector-curvature="0" style="fill:#f3f7f7;fill-opacity:1;stroke:none;stroke-width:2.0000298;stroke-linecap:round;stroke-linejoin:round"/><path style="fill:url(#f);fill-opacity:1;stroke:none;stroke-width:2.00003123;stroke-linecap:round;stroke-linejoin:round" d="M669.402 375.71c2.537.073 5.27 2.533 5.844 5-.088.325-.19.647-.308.965-1.006 2.627-2.937 4.76-5.309 5.863a5.577 5.577 0 0 1-5.402-5.56c-.004-3.142 2.03-6.356 5.175-6.267z" inkscape:connector-curvature="0" sodipodi:nodetypes="cccccc"/><path d="M671.999 381.793c-.003 2.316-3.483 2.316-3.486 0-.003-2.323 3.489-2.323 3.486 0z" inkscape:connector-curvature="0" style="fill:#2a2a2a;fill-opacity:1;stroke:none;stroke-width:2.00003123;stroke-linecap:round;stroke-linejoin:round" sodipodi:nodetypes="sss"/><path style="fill:url(#g);fill-opacity:1;stroke:none;stroke-width:2.00003123;stroke-linecap:round;stroke-linejoin:round" d="M684.093 375.648c3.024.084 6.247 3.31 6.243 6.33a5.577 5.577 0 0 1-5.55 5.558c-2.09-.563-3.99-1.94-5.348-3.877a5.562 5.562 0 0 1-.27-1.682c-.004-3.14 1.778-6.417 4.925-6.329z" inkscape:connector-curvature="0" sodipodi:nodetypes="cccccc"/><path d="M650.586 374.188c-17.343 1.898-12.624 24.676-10.719 24.873 3.286.339 12.87-8.872 14.52-12.953 1.643-4.067 1.456-8.87-3.801-11.92z" inkscape:connector-curvature="0" style="fill:#997b43;fill-opacity:1;fill-rule:evenodd;stroke:none;stroke-width:2.00003123" sodipodi:nodetypes="cscc"/><path d="M651.45 373.212c-15.09 6.798-11.355 22.22-9.663 22.389 2.917.29 11.661-7.848 13.125-11.353 1.459-3.493 1.205-8.416-3.462-11.036z" inkscape:connector-curvature="0" style="fill:#d7b980;fill-opacity:1;fill-rule:evenodd;stroke:none;stroke-width:2.00003123" sodipodi:nodetypes="cscc"/><path style="color:#000;font-style:normal;font-variant:normal;font-weight:400;font-stretch:normal;font-size:medium;line-height:normal;font-family:sans-serif;text-indent:0;text-align:start;text-decoration:none;text-decoration-line:none;text-decoration-style:solid;text-decoration-color:#000;letter-spacing:normal;word-spacing:normal;text-transform:none;direction:ltr;block-progression:tb;writing-mode:lr-tb;baseline-shift:baseline;text-anchor:start;white-space:normal;clip-rule:nonzero;display:inline;overflow:visible;visibility:visible;opacity:1;isolation:auto;mix-blend-mode:normal;color-interpolation:sRGB;color-interpolation-filters:linearRGB;solid-color:#000;solid-opacity:1;fill:#997b43;fill-opacity:1;fill-rule:nonzero;stroke:none;stroke-width:2.00003123;stroke-linecap:round;stroke-linejoin:miter;stroke-miterlimit:4;stroke-dasharray:none;stroke-dashoffset:0;stroke-opacity:1;color-rendering:auto;image-rendering:auto;shape-rendering:auto;text-rendering:auto;enable-background:accumulate" d="M685.989 395.98c-1.396 2.035-3.652 3.19-6.268 3.583-.302 5.082-2.5 8.176-2.5 8.176-.442 1.302.18-3.385.488-8.025-3.093.023-5.778-.608-8.026-2.495 7.658.98 15.907-2.462 16.306-1.24z" inkscape:connector-curvature="0" sodipodi:nodetypes="cccccc"/><path d="M686.709 381.667c-.003 2.316-3.483 2.316-3.486 0-.003-2.322 3.489-2.322 3.486 0z" inkscape:connector-curvature="0" style="fill:#2a2a2a;fill-opacity:1;stroke:none;stroke-width:2.00003123;stroke-linecap:round;stroke-linejoin:round" sodipodi:nodetypes="sss"/><circle style="color:#000;display:inline;overflow:visible;visibility:visible;opacity:1;fill:#e8f0f7;fill-opacity:1;fill-rule:nonzero;stroke:none;stroke-width:1;stroke-linecap:round;stroke-linejoin:round;stroke-miterlimit:4;stroke-dasharray:none;stroke-dashoffset:0;stroke-opacity:1;marker:none;enable-background:accumulate" cx="-682.98248" cy="381.86182" r="0.90997577" transform="scale(-1 1)"/><ellipse style="color:#000;display:inline;overflow:visible;visibility:visible;opacity:1;fill:#e8f0f7;fill-opacity:1;fill-rule:nonzero;stroke:none;stroke-width:1;stroke-linecap:round;stroke-linejoin:round;stroke-miterlimit:4;stroke-dasharray:none;stroke-dashoffset:0;stroke-opacity:1;marker:none;enable-background:accumulate" cx="-682.91974" cy="384.43488" rx="0.5648126" ry="0.50205559" transform="scale(-1 1)"/><circle style="color:#000;display:inline;overflow:visible;visibility:visible;opacity:1;fill:#e8f0f7;fill-opacity:1;fill-rule:nonzero;stroke:none;stroke-width:1;stroke-linecap:round;stroke-linejoin:round;stroke-miterlimit:4;stroke-dasharray:none;stroke-dashoffset:0;stroke-opacity:1;marker:none;enable-background:accumulate" cx="-668.20325" cy="381.7439" r="0.90997577" transform="scale(-1 1)"/><ellipse style="color:#000;display:inline;overflow:visible;visibility:visible;opacity:1;fill:#e8f0f7;fill-opacity:1;fill-rule:nonzero;stroke:none;stroke-width:1;stroke-linecap:round;stroke-linejoin:round;stroke-miterlimit:4;stroke-dasharray:none;stroke-dashoffset:0;stroke-opacity:1;marker:none;enable-background:accumulate" cx="-668.1405" cy="384.31696" rx="0.5648126" ry="0.50205559" transform="scale(-1 1)"/><path d="M504.631 368.889a29.154 28.584 68.415 1 1-53.16 21.031 29.154 28.584 68.415 0 1 53.16-21.031z" inkscape:connector-curvature="0" style="fill:#d7b980;fill-opacity:1;stroke:none;stroke-width:2.00003123;stroke-linecap:round;stroke-linejoin:round"/><path d="M475.14 374.153a10.597 8.658 54.573 1 0 12.544-12.027 10.597 8.658 54.573 0 0-12.544 12.027z" inkscape:connector-curvature="0" style="fill:#997b43;fill-opacity:1;stroke:none;stroke-width:2.00002837;stroke-linecap:round;stroke-linejoin:round"/><path d="M475.331 374.634a9.9 8.602 47.348 0 0 12.717-11.587 9.9 8.602 47.348 1 0-12.717 11.587z" inkscape:connector-curvature="0" style="fill:#f3f7f7;fill-opacity:1;stroke:none;stroke-width:2.00002837;stroke-linecap:round;stroke-linejoin:round"/><path d="M454.678 375.112a10.525 8.642 81.003 0 0 17.308-.698 10.525 8.642 81.003 1 0-17.308.698z" inkscape:connector-curvature="0" style="fill:#997b43;fill-opacity:1;stroke:none;stroke-width:2.0000298;stroke-linecap:round;stroke-linejoin:round"/><path d="M454.99 375.9a9.899 8.603 86.825 0 0 17.174-1.038 9.899 8.603 86.825 1 0-17.174 1.037z" inkscape:connector-curvature="0" style="fill:#f3f7f7;fill-opacity:1;stroke:none;stroke-width:2.0000298;stroke-linecap:round;stroke-linejoin:round"/><path style="fill:url(#h);fill-opacity:1;stroke:none;stroke-width:2.00003123;stroke-linecap:round;stroke-linejoin:round" d="M478.284 367.052c-2.332 1-3.969 4.293-3.596 6.798.202.27.417.532.642.784 1.902 2.073 4.482 3.345 7.094 3.499a5.577 5.577 0 0 0 2.977-7.158c-1.151-2.923-4.224-5.163-7.117-3.923z" inkscape:connector-curvature="0" sodipodi:nodetypes="cccccc"/><path style="fill:url(#i);fill-opacity:1;stroke:none;stroke-width:2.00003123;stroke-linecap:round;stroke-linejoin:round" d="M464.6 372.398c-2.78 1.19-4.59 5.376-3.477 8.182a5.577 5.577 0 0 0 7.207 3.127c1.736-1.293 2.996-3.272 3.546-5.573a5.562 5.562 0 0 0-.368-1.663c-1.152-2.922-4.014-5.313-6.908-4.073z" inkscape:connector-curvature="0" sodipodi:nodetypes="cccccc"/><path d="M495.22 358.713c16.825-4.615 20.817 18.302 19.117 19.186-2.93 1.523-15.23-3.515-18.266-6.703-3.024-3.178-4.617-7.712-.85-12.483z" inkscape:connector-curvature="0" style="fill:#997b43;fill-opacity:1;fill-rule:evenodd;stroke:none;stroke-width:2.00003123" sodipodi:nodetypes="cscc"/><path d="M494.058 358.124c16.533.77 18.733 16.484 17.222 17.263-2.605 1.344-13.73-3.007-16.382-5.727-2.64-2.712-4.216-7.384-.84-11.536z" inkscape:connector-curvature="0" style="fill:#d7b980;fill-opacity:1;fill-rule:evenodd;stroke:none;stroke-width:2.00003123" sodipodi:nodetypes="cscc"/><path style="color:#000;font-style:normal;font-variant:normal;font-weight:400;font-stretch:normal;font-size:medium;line-height:normal;font-family:sans-serif;text-indent:0;text-align:start;text-decoration:none;text-decoration-line:none;text-decoration-style:solid;text-decoration-color:#000;letter-spacing:normal;word-spacing:normal;text-transform:none;direction:ltr;block-progression:tb;writing-mode:lr-tb;baseline-shift:baseline;text-anchor:start;white-space:normal;clip-rule:nonzero;display:inline;overflow:visible;visibility:visible;opacity:1;isolation:auto;mix-blend-mode:normal;color-interpolation:sRGB;color-interpolation-filters:linearRGB;solid-color:#000;solid-opacity:1;fill:#997b43;fill-opacity:1;fill-rule:nonzero;stroke:none;stroke-width:2.00003123;stroke-linecap:round;stroke-linejoin:miter;stroke-miterlimit:4;stroke-dasharray:none;stroke-dashoffset:0;stroke-opacity:1;color-rendering:auto;image-rendering:auto;shape-rendering:auto;text-rendering:auto;enable-background:accumulate" d="M470.317 392c2.047 1.38 4.569 1.624 7.146 1.027 2.15 4.615 5.334 6.683 5.334 6.683.89 1.048-1.413-3.081-3.408-7.283 2.885-1.116 5.15-2.69 6.546-5.272-6.76 3.728-15.697 3.562-15.618 4.846z" inkscape:connector-curvature="0" sodipodi:nodetypes="cccccc"/><path style="fill:#718f8f;stroke:none;stroke-width:2.00003123;stroke-linecap:round;stroke-linejoin:round;fill-opacity:1" inkscape:connector-curvature="0" d="M553.148 350.501c-38.076 0-68.981 30.838-68.981 68.836 0 20.696 9.164 39.25 23.66 51.872 13.977 3.434 29.22 5.332 45.175 5.332 16.112 0 31.5-1.944 45.594-5.443 10.267-8.989 17.845-20.958 21.357-34.552a68.604 68.604 0 0 0 2.176-17.209c0-37.998-30.906-68.836-68.981-68.836z"/><path style="fill:#ecf4f4;fill-opacity:1;stroke:none;stroke-width:2.00003123;stroke-linecap:round;stroke-linejoin:round" inkscape:connector-curvature="0" d="M553.148 352.578c-35.304 0-63.96 29.944-63.96 66.842 0 20.096 8.496 38.113 21.938 50.369 12.96 3.335 27.093 5.178 41.886 5.178 14.94 0 29.209-1.888 42.277-5.286 9.52-8.728 16.546-20.35 19.802-33.55a69.595 69.595 0 0 0 2.017-16.711c0-36.898-28.656-66.842-63.96-66.842z"/><path sodipodi:nodetypes="cscc" style="fill:#997b43;fill-opacity:1;fill-rule:evenodd;stroke:none;stroke-width:2.00003123" inkscape:connector-curvature="0" d="M513.345 408.58c-17.342 1.897-12.624 24.675-10.718 24.872 3.286.339 12.87-8.872 14.52-12.953 1.643-4.067 1.456-8.87-3.802-11.92z"/><path sodipodi:nodetypes="cscc" style="fill:#d7b980;fill-opacity:1;fill-rule:evenodd;stroke:none;stroke-width:2.00003123" inkscape:connector-curvature="0" d="M514.21 407.603c-15.091 6.798-11.355 22.22-9.663 22.389 2.916.29 11.66-7.848 13.125-11.353 1.458-3.493 1.205-8.416-3.462-11.036z"/><path style="fill:#997b43;fill-opacity:1;stroke:none;stroke-width:2.00003123;stroke-linecap:round;stroke-linejoin:round" inkscape:connector-curvature="0" d="M568.976 422.8a31.351 31.288 0 0 1-62.702 0 31.351 31.288 0 1 1 62.702 0z"/><path style="fill:#d7b980;fill-opacity:1;stroke:none;stroke-width:2.00003123;stroke-linecap:round;stroke-linejoin:round" inkscape:connector-curvature="0" d="M566.209 422.172a28.584 29.154 0 0 1-57.168 0 28.584 29.154 0 1 1 57.168 0z"/><path style="fill:#997b43;fill-opacity:1;stroke:none;stroke-width:2.00002837;stroke-linecap:round;stroke-linejoin:round" inkscape:connector-curvature="0" d="M536.85 416.217a10.597 8.658 76.158 0 0 16.088-6.568 10.597 8.658 76.158 1 0-16.088 6.568z"/><path style="fill:#f3f7f7;stroke:none;stroke-width:2.00002837;stroke-linecap:round;stroke-linejoin:round;fill-opacity:1" inkscape:connector-curvature="0" d="M536.85 416.735a9.9 8.602 68.933 0 0 16.088-6.096 9.9 8.602 68.933 1 0-16.088 6.096z"/><path style="fill:#997b43;fill-opacity:1;stroke:none;stroke-width:2.0000298;stroke-linecap:round;stroke-linejoin:round" inkscape:connector-curvature="0" d="M517.47 409.581a8.642 10.525 12.588 0 0 16.35 5.719 8.642 10.525 12.588 1 0-16.35-5.719z"/><path style="fill:#f3f7f7;stroke:none;stroke-width:2.0000298;stroke-linecap:round;stroke-linejoin:round;fill-opacity:1" inkscape:connector-curvature="0" d="M517.47 410.428a8.603 9.899 18.41 1 0 16.351 5.354 8.603 9.899 18.41 0 0-16.351-5.354z"/><path sodipodi:nodetypes="cccccc" inkscape:connector-curvature="0" d="M542.385 410.77c-2.536.073-5.27 2.533-5.844 5 .088.325.191.647.309.964 1.006 2.628 2.936 4.76 5.308 5.864a5.577 5.577 0 0 0 5.403-5.56c.004-3.142-2.03-6.356-5.176-6.267z" style="fill:url(#j);fill-opacity:1;stroke:none;stroke-width:2.00003123;stroke-linecap:round;stroke-linejoin:round"/><path sodipodi:nodetypes="sss" style="fill:#2a2a2a;fill-opacity:1;stroke:none;stroke-width:2.00003123;stroke-linecap:round;stroke-linejoin:round" inkscape:connector-curvature="0" d="M539.789 416.853c.003 2.315 3.482 2.315 3.486 0 .003-2.323-3.49-2.323-3.486 0z"/><path sodipodi:nodetypes="cccccc" inkscape:connector-curvature="0" d="M527.695 410.708c-3.025.084-6.247 3.31-6.244 6.33a5.577 5.577 0 0 0 5.551 5.558c2.09-.563 3.99-1.94 5.348-3.877.175-.544.266-1.11.27-1.682.003-3.141-1.779-6.417-4.925-6.33z" style="fill:url(#k);fill-opacity:1;stroke:none;stroke-width:2.00003123;stroke-linecap:round;stroke-linejoin:round"/><path sodipodi:nodetypes="cscc" style="fill:#997b43;fill-opacity:1;fill-rule:evenodd;stroke:none;stroke-width:2.00003123" inkscape:connector-curvature="0" d="M561.202 409.248c17.342 1.898 12.624 24.676 10.718 24.872-3.286.34-12.87-8.871-14.52-12.952-1.642-4.068-1.455-8.87 3.802-11.92z"/><path sodipodi:nodetypes="cscc" style="fill:#d7b980;fill-opacity:1;fill-rule:evenodd;stroke:none;stroke-width:2.00003123" inkscape:connector-curvature="0" d="M560.337 408.272c15.091 6.798 11.355 22.22 9.664 22.388-2.917.291-11.662-7.847-13.126-11.352-1.458-3.493-1.204-8.417 3.462-11.036z"/><path sodipodi:nodetypes="cccccc" inkscape:connector-curvature="0" d="M525.799 431.04c1.396 2.035 3.651 3.19 6.267 3.583.302 5.082 2.501 8.176 2.501 8.176.442 1.302-.18-3.385-.489-8.026 3.093.024 5.779-.607 8.026-2.494-7.657.98-15.906-2.462-16.305-1.24z" style="color:#000;font-style:normal;font-variant:normal;font-weight:400;font-stretch:normal;font-size:medium;line-height:normal;font-family:sans-serif;text-indent:0;text-align:start;text-decoration:none;text-decoration-line:none;text-decoration-style:solid;text-decoration-color:#000;letter-spacing:normal;word-spacing:normal;text-transform:none;direction:ltr;block-progression:tb;writing-mode:lr-tb;baseline-shift:baseline;text-anchor:start;white-space:normal;clip-rule:nonzero;display:inline;overflow:visible;visibility:visible;opacity:1;isolation:auto;mix-blend-mode:normal;color-interpolation:sRGB;color-interpolation-filters:linearRGB;solid-color:#000;solid-opacity:1;fill:#997b43;fill-opacity:1;fill-rule:nonzero;stroke:none;stroke-width:2.00003123;stroke-linecap:round;stroke-linejoin:miter;stroke-miterlimit:4;stroke-dasharray:none;stroke-dashoffset:0;stroke-opacity:1;color-rendering:auto;image-rendering:auto;shape-rendering:auto;text-rendering:auto;enable-background:accumulate"/><path sodipodi:nodetypes="sss" style="fill:#2a2a2a;fill-opacity:1;stroke:none;stroke-width:2.00003123;stroke-linecap:round;stroke-linejoin:round" inkscape:connector-curvature="0" d="M525.079 416.727c.003 2.316 3.482 2.316 3.486 0 .003-2.322-3.49-2.322-3.486 0z"/><circle r="0.90997577" cy="416.92169" cx="524.80499" style="color:#000;display:inline;overflow:visible;visibility:visible;opacity:1;fill:#e8f0f7;fill-opacity:1;fill-rule:nonzero;stroke:none;stroke-width:1;stroke-linecap:round;stroke-linejoin:round;stroke-miterlimit:4;stroke-dasharray:none;stroke-dashoffset:0;stroke-opacity:1;marker:none;enable-background:accumulate"/><ellipse ry="0.50205559" rx="0.5648126" cy="419.49475" cx="524.86774" style="color:#000;display:inline;overflow:visible;visibility:visible;opacity:1;fill:#e8f0f7;fill-opacity:1;fill-rule:nonzero;stroke:none;stroke-width:1;stroke-linecap:round;stroke-linejoin:round;stroke-miterlimit:4;stroke-dasharray:none;stroke-dashoffset:0;stroke-opacity:1;marker:none;enable-background:accumulate"/><circle r="0.90997577" cy="416.80377" cx="539.58423" style="color:#000;display:inline;overflow:visible;visibility:visible;opacity:1;fill:#e8f0f7;fill-opacity:1;fill-rule:nonzero;stroke:none;stroke-width:1;stroke-linecap:round;stroke-linejoin:round;stroke-miterlimit:4;stroke-dasharray:none;stroke-dashoffset:0;stroke-opacity:1;marker:none;enable-background:accumulate"/><ellipse ry="0.50205559" rx="0.5648126" cy="419.37683" cx="539.64697" style="color:#000;display:inline;overflow:visible;visibility:visible;opacity:1;fill:#e8f0f7;fill-opacity:1;fill-rule:nonzero;stroke:none;stroke-width:1;stroke-linecap:round;stroke-linejoin:round;stroke-miterlimit:4;stroke-dasharray:none;stroke-dashoffset:0;stroke-opacity:1;marker:none;enable-background:accumulate"/><path d="M464.382 378.957c.855 2.152 4.09.872 3.242-1.282-.852-2.161-4.1-.876-3.242 1.282z" inkscape:connector-curvature="0" style="fill:#2a2a2a;fill-opacity:1;stroke:none;stroke-width:2.00003123;stroke-linecap:round;stroke-linejoin:round" sodipodi:nodetypes="sss"/><circle style="color:#000;display:inline;overflow:visible;visibility:visible;opacity:1;fill:#e8f0f7;fill-opacity:1;fill-rule:nonzero;stroke:none;stroke-width:1;stroke-linecap:round;stroke-linejoin:round;stroke-miterlimit:4;stroke-dasharray:none;stroke-dashoffset:0;stroke-opacity:1;marker:none;enable-background:accumulate" cx="292.23364" cy="520.76495" r="0.90997577" transform="rotate(-21.585)"/><ellipse style="color:#000;display:inline;overflow:visible;visibility:visible;opacity:1;fill:#e8f0f7;fill-opacity:1;fill-rule:nonzero;stroke:none;stroke-width:1;stroke-linecap:round;stroke-linejoin:round;stroke-miterlimit:4;stroke-dasharray:none;stroke-dashoffset:0;stroke-opacity:1;marker:none;enable-background:accumulate" cx="292.29639" cy="523.33801" rx="0.5648126" ry="0.50205559" transform="rotate(-21.585)"/><circle style="color:#000;display:inline;overflow:visible;visibility:visible;opacity:1;fill:#e8f0f7;fill-opacity:1;fill-rule:nonzero;stroke:none;stroke-width:1;stroke-linecap:round;stroke-linejoin:round;stroke-miterlimit:4;stroke-dasharray:none;stroke-dashoffset:0;stroke-opacity:1;marker:none;enable-background:accumulate" cx="307.01288" cy="520.64703" r="0.90997577" transform="rotate(-21.585)"/><path style="fill:#6cc13e;fill-rule:evenodd;stroke:none;stroke-width:2;stroke-linejoin:round;fill-opacity:1" inkscape:connector-curvature="0" d="M557.738 478.398c12.08-3.59 20.89-18.27 21.21-15.66.33 2.61.65 11.09 4.57 5.55 3.92-5.55 4.24-3.27 5.55-.98 1.3 2.28 3.26-8.49 5.22-10.44 1.96-1.96-.65 14.03 2.28 11.09 2.94-2.94 3.92-8.16 5.55-9.46 1.63-1.31 0 7.18 1.63 7.18s-3.26 5.87 1.63 4.24c4.9-1.63-1.3 2.28-1.3 5.22"/><path d="M478.107 373.662c.855 2.152 4.09.872 3.241-1.282-.851-2.161-4.099-.876-3.241 1.282z" inkscape:connector-curvature="0" style="fill:#2a2a2a;fill-opacity:1;stroke:none;stroke-width:2.00003123;stroke-linecap:round;stroke-linejoin:round" sodipodi:nodetypes="sss"/><ellipse style="color:#000;display:inline;overflow:visible;visibility:visible;opacity:1;fill:#e8f0f7;fill-opacity:1;fill-rule:nonzero;stroke:none;stroke-width:1;stroke-linecap:round;stroke-linejoin:round;stroke-miterlimit:4;stroke-dasharray:none;stroke-dashoffset:0;stroke-opacity:1;marker:none;enable-background:accumulate" cx="307.07562" cy="523.22009" rx="0.5648126" ry="0.50205559" transform="rotate(-21.585)"/><g><path inkscape:connector-curvature="0" style="color:#000;fill:#f6fbfc;fill-rule:evenodd" d="M263.877 100.711a59.562 42.023 0 1 1-119.121 0 59.562 42.023 0 1 1 119.121 0z" transform="matrix(.46124 0 0 .46124 61.512 122.159)"/><path inkscape:connector-curvature="0" style="color:#000;fill:#f6fbfc;fill-rule:evenodd" d="M352.14 120.93a65.055 39.599 0 0 1-130.11 0 65.055 39.599 0 1 1 130.11 0z" transform="matrix(.46124 0 0 .46124 61.512 122.159)"/><path inkscape:connector-curvature="0" style="color:#000;fill:#f6fbfc;fill-rule:evenodd" d="M438.41 97.756a91.363 48.933 0 1 1-182.717 0 91.363 48.933 0 1 1 182.718 0z" transform="matrix(.46124 0 0 .46124 61.512 122.159)"/><path inkscape:connector-curvature="0" style="color:#000;fill:#f6fbfc;fill-rule:evenodd" d="M290.266 62.318a53.326 26.085 0 0 1-106.653 0 53.326 26.085 0 1 1 106.653 0z" transform="matrix(.46124 0 0 .46124 61.512 122.159)"/><path inkscape:connector-curvature="0" style="color:#000;fill:#f6fbfc;fill-rule:evenodd" d="M382.841 53.019a74.919 40.127 0 0 1-149.837 0 74.919 40.127 0 1 1 149.837 0z" transform="matrix(.46124 0 0 .46124 61.512 122.159)"/><path inkscape:connector-curvature="0" style="color:#000;fill:#f6fbfc;fill-rule:evenodd" d="M127.217 74.064a38.534 20.664 0 1 1-77.066 0 38.534 20.664 0 1 1 77.066 0z" transform="matrix(.46124 0 0 .46124 61.512 122.159)"/><path inkscape:connector-curvature="0" style="color:#000;fill:#f6fbfc;fill-rule:evenodd" d="M218.643 66.292a62.304 37.933 0 1 1-124.607 0 62.304 37.933 0 1 1 124.607 0z" transform="matrix(.46124 0 0 .46124 61.512 122.159)"/></g><path inkscape:connector-curvature="0" style="color:#000;display:inline;fill:#f6fbfc;fill-rule:evenodd" d="M698.401 88.848c.146 14.257-19.828 25.86-44.517 25.86-24.69 0-44.663-11.603-44.517-25.86-.146-14.258 19.828-25.86 44.517-25.86 24.69 0 44.663 11.602 44.517 25.86z" sodipodi:nodetypes="cscsc"/><path inkscape:connector-curvature="0" style="color:#000;display:inline;fill:#f6fbfc;fill-rule:evenodd" d="M754.27 103.237a48.624 24.225 0 0 1-97.248 0 48.624 24.225 0 1 1 97.248 0z"/><path inkscape:connector-curvature="0" style="color:#000;display:inline;fill:#f6fbfc;fill-rule:evenodd" d="M834.67 78.917c.32 16.644-44.56 30.22-78.183 30.22-33.623 0-78.502-13.576-78.183-30.22-.319-16.643 26.848-40.32 60.471-40.32 33.624 0 96.214 23.677 95.895 40.32z" sodipodi:nodetypes="cscsc"/><path inkscape:connector-curvature="0" style="color:#000;display:inline;fill:#f6fbfc;fill-rule:evenodd" d="M715.812 47.543c3.182 8.219-10.88 21.324-31.407 29.272-20.528 7.947-25.831 4.506-29.013-3.713-3.182-8.22-3.038-18.103 17.49-26.05 20.528-7.948 39.748-7.728 42.93.49z" sodipodi:nodetypes="sssss"/><path inkscape:connector-curvature="0" style="color:#000;display:inline;fill:#f6fbfc;fill-rule:evenodd" d="M795.38 61.691c0 13.558-28.97 24.549-64.706 24.549-35.737 0-55.368-19.072-55.368-32.63 0-13.558 28.97-28.59 64.706-28.59 35.736 0 55.368 23.113 55.368 36.671z" sodipodi:nodetypes="sssss"/><path inkscape:connector-curvature="0" style="color:#000;display:inline;fill:#f6fbfc;fill-rule:evenodd" d="M586.156 74.566a28.801 12.642 0 1 1-57.6 0 28.801 12.642 0 1 1 57.6 0z"/><path inkscape:connector-curvature="0" style="color:#000;display:inline;fill:#f6fbfc;fill-rule:evenodd" d="M646.369 71.832c.152 12.87-8.62 21.323-34.446 21.323s-46.72-10.474-46.567-23.344c-.152-12.87 20.741-23.343 46.567-23.343 25.827 0 34.598 12.494 34.446 25.364z" sodipodi:nodetypes="cscsc"/></g><g inkscape:groupmode="layer" inkscape:label="Calque 2" style="opacity:1"><path sodipodi:nodetypes="cccccccccccccccccccc" inkscape:connector-curvature="0" style="fill:#72aaaa;fill-opacity:1;fill-rule:evenodd" d="M318.73 105.338c-1.977-6.338 2.62-11.031 5.718-12.181.171-1.11.35-2.209-.063-3.42-.159-.473.11-.947.141-1.398.052-.677.075-1.323.097-1.956-2.383-5.068-4.27-13.276-7.913-18.18-1.1 2.574-.034 6.122.47 7.302-1.664 5.167-2.3 4.968-2.092 9.66-3.864 2.89-12.2 10.833-11.912 15.01l-2.773 6.762a24.17 24.17 0 0 0-.613 7.588c.015.763.08 1.492.184 2.196.167 1.086.423 2.114.72 3.12-1.854 3.278-3.232 6.097-4.118 8.447-.746.568-.92 1.384-.33 2.53-2.115 3.084-3.734 4.608-4.323 8.282l17.899-10.853c2.388-2.505 4.727-5.928 5.694-8.738-1.698-3.61-1.657-7.015.508-8.423z"/><path sodipodi:nodetypes="cssscccsscc" style="opacity:1;fill:#72a9aa;fill-opacity:1;fill-rule:evenodd" inkscape:connector-curvature="0" d="M325.995 110.08c-.584-2.16-2.389-3.032-5.265-4.64-3.002-1.678-5.974-3.995-8.814-4.971-3.997-1.374-7.915-.569-12.008-.192-5.001.46-6.817.309-11.267-1.273-.534 2.487 1.771 2.757.403 4.259-.52.655-2.355 4.11-1.062 3.325 4.39-1.27 7.8-1.715 11.919.974 5.3 3.46 13.117 3.575 20.156 4.095l4.59.34z"/><path d="M317.777 105.196c-1.795-6.311 2.56-11.04 5.477-12.217.17-1.11.348-2.209-.028-3.414-.144-.471.111-.947.146-1.397.054-.677.082-1.323.108-1.955-2.188-5.039-3.141-11.86-6.514-16.724-1.055 2.58.69 4.982 1.153 6.155-1.609 5.176-2.203 4.983-2.052 9.667-3.651 2.921-11.543 10.93-11.312 15.1l-3.062 6.718c-.58 2.47-.81 4.993-.644 7.583.006.762.06 1.49.152 2.191.146 1.084.377 2.108.647 3.109-1.77 3.291-3.088 6.12-3.941 8.474-.705.574-.876 1.39-.333 2.53-2.013 3.099-3.991 3.349-4.577 7.023l15.517-9.986c2.263-2.524 5.186-5.86 6.118-8.676-1.559-3.59-1.49-6.99.555-8.415z" style="opacity:1;fill:#cde1e1;fill-opacity:1;fill-rule:evenodd" inkscape:connector-curvature="0" sodipodi:nodetypes="cccccccccccccccccccc"/><path sodipodi:nodetypes="cssccscc" style="opacity:1;fill:#72a9aa;fill-opacity:1;fill-rule:evenodd" inkscape:connector-curvature="0" d="M325.995 110.23c-.584-1.832-4.64-4.823-7.516-6.187-3.001-1.424-3.301-1.74-6.141-2.568-3.997-1.166-6.368.821-10.46 1.14-4.285.247-10.356.12-.57 5.337 5.3 2.937 11.71 3.174 18.749 3.616l4.59.288z"/><path sodipodi:nodetypes="cssscccsscc" style="fill:#cde1e1;fill-opacity:1;fill-rule:evenodd" inkscape:connector-curvature="0" d="M325.145 109.637c-.596-1.804-2.333-2.562-5.103-3.951-2.892-1.45-5.767-3.43-8.492-4.293-3.834-1.216-7.552-.62-11.445-.383-4.758.289-6.491.13-10.76-1.267-.463 2.055 1.739 2.323.463 3.545-.483.534-1.833 3.082-.616 2.455 4.159-.974 7.129-1.404 11.103.905 5.115 2.974 12.504 3.626 19.221 4.19l4.38.366z"/><path style="fill:#72a9aa;fill-opacity:1;fill-rule:evenodd;stroke:none" inkscape:connector-curvature="0" d="M322.878 107.67c-.362-.2-.745-.222-.854-.053-.112.167.09.464.453.66.362.199.742.22.854.054.11-.17-.093-.466-.453-.662z"/><path style="opacity:1;fill:#b08147;fill-opacity:1;fill-rule:evenodd" inkscape:connector-curvature="0" d="m325.172 109.639 4.318 2.703c.133.398-.057.59-.767.44l-5.275-1.473c.11-.361.426-.919.757-1.179.251-.196.572-.361.967-.491z"/><path style="fill:#d7ad7a;fill-opacity:1;fill-rule:evenodd" inkscape:connector-curvature="0" d="m324.844 109.59 3.316 2.234c.098.334-.05.498-.599.378l-4.07-1.185c.09-.306.34-.78.6-1.002.196-.169.446-.311.753-.425z"/></g></svg>