<!--Created with Inkscape (http://www.inkscape.org/)--><svg xmlns:dc="http://purl.org/dc/elements/1.1/" xmlns:cc="http://creativecommons.org/ns#" xmlns:rdf="http://www.w3.org/1999/02/22-rdf-syntax-ns#" xmlns="http://www.w3.org/2000/svg" xmlns:sodipodi="http://sodipodi.sourceforge.net/DTD/sodipodi-0.dtd" xmlns:inkscape="http://www.inkscape.org/namespaces/inkscape" width="97.36351" height="98.644005" sodipodi:version="0.32" inkscape:version="0.91 r13725" sodipodi:docname="dice0.svg" inkscape:export-filename="/home/franck/Gcompris/gartoon/level9.png" inkscape:export-xdpi="8.5762272" inkscape:export-ydpi="8.5762272" inkscape:output_extension="org.inkscape.output.svg.inkscape" version="1.0"><sodipodi:namedview inkscape:document-units="px" pagecolor="#ffffff" bordercolor="#666666" borderopacity="1.0" inkscape:pageopacity="0.0" inkscape:pageshadow="2" inkscape:zoom="2.3236531" inkscape:cx="-60.483332" inkscape:cy="30.101968" inkscape:current-layer="layer1" inkscape:window-width="1880" inkscape:window-height="1060" inkscape:window-x="-2" inkscape:window-y="-3" showguides="true" inkscape:guide-bbox="true" showgrid="false" fit-margin-top="0" fit-margin-left="0" fit-margin-right="0" fit-margin-bottom="0" inkscape:window-maximized="1" inkscape:snap-global="false"/><metadata><rdf:RDF><cc:Work><dc:format>image/svg+xml</dc:format><dc:type rdf:resource="http://purl.org/dc/dcmitype/StillImage"/><dc:title/><dc:date>2015</dc:date><dc:creator><cc:Agent><dc:title>Timothée Giet</dc:title></cc:Agent></dc:creator><cc:license rdf:resource="http://creativecommons.org/licenses/by-sa/4.0/"/></cc:Work><cc:License rdf:about="http://creativecommons.org/licenses/by-sa/4.0/"><cc:permits rdf:resource="http://creativecommons.org/ns#Reproduction"/><cc:permits rdf:resource="http://creativecommons.org/ns#Distribution"/><cc:requires rdf:resource="http://creativecommons.org/ns#Notice"/><cc:requires rdf:resource="http://creativecommons.org/ns#Attribution"/><cc:permits rdf:resource="http://creativecommons.org/ns#DerivativeWorks"/><cc:requires rdf:resource="http://creativecommons.org/ns#ShareAlike"/></cc:License></rdf:RDF></metadata><g inkscape:label="Layer 1" inkscape:groupmode="layer"><path style="fill:#991919;fill-opacity:1;fill-rule:evenodd;stroke:none;stroke-width:.14504871pt;stroke-linecap:butt;stroke-linejoin:miter;stroke-opacity:1" d="M18.748 41.658s11.697-14.742 22.66-21.414c6.804-4.142 15.951-5.873 23.923-4.691 14.38 2.131 34.677 10.228 34.677 10.228 5.704 1.632 10.45 5.041 9.667 13.386-1.341 14.298-4.116 24.916-8.099 38.097-1.696 5.615-3.954 11.622-5.596 15.807-1.916 4.885-4.419 9.223-5.99 12.689-2.413 5.322-9.216 7.96-15.212 7.89-8.857-.101-25.964-4.73-39.482-11.464-6.093-3.035-10.354-6.79-12.138-11.757-4.052-11.285-10.57-20.764-10.58-33.116-.005-6.75 2.571-10.76 6.17-15.655z" sodipodi:nodetypes="csscssssssssc" inkscape:connector-curvature="0" transform="translate(-12.487 -15.098)"/><path style="fill:#e82727;fill-opacity:1;fill-rule:evenodd;stroke:none" d="M62.789 19.66c14.578 1.618 22.535 5.633 34.703 9.749 6.329 2.14 11.69 6.643 5.396 17.431L85.447 76.733c-3.802 6.57-14.536 7.87-21.314 5.984l-37.285-14.12C20.07 66.71 13.256 57.39 17.254 50.841c5.644-9.243 14.961-18.586 23.875-26.55 5.42-4.843 14.745-5.4 21.66-4.632z" sodipodi:nodetypes="csscccsss" inkscape:connector-curvature="0" transform="translate(-12.487 -15.098)"/><path style="fill:#c21919;fill-opacity:1;fill-rule:evenodd;stroke:none" d="M65.908 110.997c-12.304-2.333-20.49-6.927-30.113-11.257-5.308-2.389-9.694-8.027-10.903-12.464L20.29 73.725c-2.213-6.515 1.55-6.332 8.23-3.587l36.551 13.619c5.696 1.756 10.58 5.862 10.587 12.816.003 3.186-.049 5.518-.525 9.835-.316 2.858-3.165 5.738-9.226 4.589z" sodipodi:nodetypes="cscsccsss" inkscape:connector-curvature="0" transform="translate(-12.487 -15.098)"/><path style="fill:#c21919;fill-opacity:1;fill-rule:evenodd;stroke:none" d="M93.57 91.513c-1.681 3.5-3.475 8.835-5.783 13.087-3.245 5.98-9.79 7.02-9.482 2.864l.736-9.935c.514-6.933 4.225-14.657 6.36-18.188 5.809-9.603 12.94-20.286 18.185-28.759 2.064-3.335 2.504.537 1.773 3.152l-6.404 22.905c-1.211 4.331-3.95 11.887-5.385 14.874z" sodipodi:nodetypes="sssssssss" inkscape:connector-curvature="0" transform="translate(-12.487 -15.098)"/><path inkscape:connector-curvature="0" style="fill:#ecc9c0;fill-opacity:1;fill-rule:evenodd;stroke:none" d="M98.226 65.919a.87.87 0 0 0-.25.062l-.016.002c-.77.225-1.727 1.76-2.209 3.54s-.328 3.22.356 3.318l.199-.059a.954.954 0 0 0 .164-.049l.174-.05c.064-.043.13-.093.195-.15.761-.53 1.657-1.766 2.004-2.911.568-1.876.325-3.782-.617-3.703zm-68.278 7.656c-1.66-.043-3.018.808-2.94 2.441a2.22 2.22 0 0 0-.007.059c-.022 1.603 1.634 3.578 3.819 4.555 2.184.976 4.176.632 4.593-.793l.006-.393c.012-.125.013-.255.006-.39l.004-.334a3.364 3.364 0 0 0-.115-.393c-.386-1.583-1.669-3.44-3.063-4.148a5.458 5.458 0 0 0-2.302-.604zm62.54 7.486a.87.87 0 0 0-.25.063l-.016.002c-.77.225-1.728 1.76-2.21 3.539-.481 1.781-.327 3.22.356 3.318l.192-.056a.95.95 0 0 0 .181-.053l.164-.049c.06-.04.12-.087.182-.14.764-.525 1.669-1.768 2.018-2.92.568-1.877.325-3.783-.617-3.704zm-28.97 5.188c-1.659-.043-3.017.806-2.94 2.44a2.22 2.22 0 0 0-.007.058c-.022 1.602 1.633 3.577 3.817 4.555 2.184.977 4.177.634 4.596-.791l.005-.399c.012-.123.013-.252.006-.385l.004-.334a3.356 3.356 0 0 0-.115-.394c-.386-1.583-1.668-3.44-3.062-4.149a5.454 5.454 0 0 0-2.303-.601zm-28.054 5.555c-1.66-.044-3.018.806-2.941 2.439a2.22 2.22 0 0 0-.006.059c-.023 1.602 1.632 3.577 3.816 4.554 2.185.978 4.177.635 4.596-.79l.006-.4c.01-.123.012-.25.006-.384l.004-.334a3.357 3.357 0 0 0-.116-.394c-.385-1.583-1.67-3.44-3.064-4.149a5.446 5.446 0 0 0-2.3-.601zm50.649 5.716a.881.881 0 0 0-.252.063l-.016.002c-.77.226-1.728 1.76-2.209 3.54-.481 1.781-.327 3.219.355 3.317l.196-.056a.969.969 0 0 0 .17-.051l.172-.049c.061-.041.124-.09.187-.144.763-.526 1.665-1.768 2.014-2.918.568-1.877.325-3.783-.617-3.704zm-20.92 5.002c-1.66-.043-3.02.807-2.944 2.44l-.006.058c-.023 1.603 1.633 3.58 3.819 4.557 2.185.977 4.178.634 4.595-.793l.006-.41c.01-.113.01-.23.004-.35l.006-.357a3.364 3.364 0 0 0-.115-.393c-.385-1.583-1.67-3.442-3.065-4.15a5.446 5.446 0 0 0-2.3-.602z" sodipodi:nodetypes="cccccccccscccccccccccscccccccccccsccccccccccscccccccccccscccccccccccscccccccccccscc" transform="translate(-12.487 -15.098)"/></g></svg>