<?xml version="1.0" encoding="UTF-8" standalone="no"?>
<!-- Created with Inkscape (http://www.inkscape.org/) -->

<svg
   xmlns:dc="http://purl.org/dc/elements/1.1/"
   xmlns:cc="http://creativecommons.org/ns#"
   xmlns:rdf="http://www.w3.org/1999/02/22-rdf-syntax-ns#"
   xmlns:svg="http://www.w3.org/2000/svg"
   xmlns="http://www.w3.org/2000/svg"
   xmlns:sodipodi="http://sodipodi.sourceforge.net/DTD/sodipodi-0.dtd"
   xmlns:inkscape="http://www.inkscape.org/namespaces/inkscape"
   width="97.36351"
   height="98.644005"
   id="svg5070"
   sodipodi:version="0.32"
   inkscape:version="0.91 r13725"
   sodipodi:docname="dice0.svg"
   inkscape:export-filename="/home/franck/Gcompris/gartoon/level9.png"
   inkscape:export-xdpi="8.5762272"
   inkscape:export-ydpi="8.5762272"
   inkscape:output_extension="org.inkscape.output.svg.inkscape"
   version="1.0">
  <defs
     id="defs3" />
  <sodipodi:namedview
     inkscape:document-units="px"
     id="base"
     pagecolor="#ffffff"
     bordercolor="#666666"
     borderopacity="1.0"
     inkscape:pageopacity="0.0"
     inkscape:pageshadow="2"
     inkscape:zoom="2.3236531"
     inkscape:cx="-60.483332"
     inkscape:cy="30.101968"
     inkscape:current-layer="layer1"
     inkscape:window-width="1880"
     inkscape:window-height="1060"
     inkscape:window-x="-2"
     inkscape:window-y="-3"
     showguides="true"
     inkscape:guide-bbox="true"
     showgrid="false"
     fit-margin-top="0"
     fit-margin-left="0"
     fit-margin-right="0"
     fit-margin-bottom="0"
     inkscape:window-maximized="1"
     inkscape:snap-global="false" />
  <metadata
     id="metadata4">
    <rdf:RDF>
      <cc:Work
         rdf:about="">
        <dc:format>image/svg+xml</dc:format>
        <dc:type
           rdf:resource="http://purl.org/dc/dcmitype/StillImage" />
        <dc:title></dc:title>
        <dc:date>2015</dc:date>
        <dc:creator>
          <cc:Agent>
            <dc:title>Timothée Giet</dc:title>
          </cc:Agent>
        </dc:creator>
        <cc:license
           rdf:resource="http://creativecommons.org/licenses/by-sa/4.0/" />
      </cc:Work>
      <cc:License
         rdf:about="http://creativecommons.org/licenses/by-sa/4.0/">
        <cc:permits
           rdf:resource="http://creativecommons.org/ns#Reproduction" />
        <cc:permits
           rdf:resource="http://creativecommons.org/ns#Distribution" />
        <cc:requires
           rdf:resource="http://creativecommons.org/ns#Notice" />
        <cc:requires
           rdf:resource="http://creativecommons.org/ns#Attribution" />
        <cc:permits
           rdf:resource="http://creativecommons.org/ns#DerivativeWorks" />
        <cc:requires
           rdf:resource="http://creativecommons.org/ns#ShareAlike" />
      </cc:License>
    </rdf:RDF>
  </metadata>
  <g
     inkscape:label="Layer 1"
     inkscape:groupmode="layer"
     id="layer1"
     transform="translate(-12.487489,-15.098397)">
    <path
       style="fill:#991919;fill-opacity:1;fill-rule:evenodd;stroke:none;stroke-width:0.14504871pt;stroke-linecap:butt;stroke-linejoin:miter;stroke-opacity:1"
       d="m 18.748294,41.657879 c 0,0 11.696722,-14.741443 22.659989,-21.414233 6.804058,-4.141288 15.951038,-5.872434 23.923186,-4.690736 14.380136,2.131542 34.676391,10.228298 34.676391,10.228298 5.70412,1.631559 10.45059,5.041112 9.66764,13.386205 -1.34147,14.297736 -4.11664,24.915491 -8.0993,38.096534 -1.696553,5.614923 -3.953922,11.621795 -5.595721,15.806979 -1.916506,4.88545 -4.419309,9.223124 -5.990508,12.688734 -2.413105,5.32259 -9.215487,7.95988 -15.212331,7.89083 C 65.921399,113.54852 48.813836,108.92003 35.295585,102.18597 29.203402,99.151172 24.942133,95.396267 23.15845,90.42887 19.106332,79.144092 12.587133,69.665309 12.578151,57.313175 12.573244,50.56386 15.149496,46.55256 18.748294,41.657879 Z"
       id="rect5098"
       sodipodi:nodetypes="csscssssssssc"
       inkscape:connector-curvature="0" />
    <path
       style="fill:#e82727;fill-opacity:1;fill-rule:evenodd;stroke:none"
       d="m 62.788615,19.659563 c 14.578498,1.618664 22.53501,5.633913 34.703772,9.749147 6.328543,2.140187 11.689493,6.643208 5.395123,17.431563 L 85.446779,76.733121 c -3.80152,6.570316 -14.536053,7.869832 -21.313309,5.984166 L 26.847729,68.596102 C 20.070471,66.710436 13.255866,57.390408 17.254315,50.842256 22.898163,41.59948 32.215225,32.25626 41.129196,24.292085 c 5.420149,-4.84262 14.745047,-5.400231 21.659419,-4.632522 z"
       id="rect5076"
       sodipodi:nodetypes="csscccsss"
       inkscape:connector-curvature="0" />
    <path
       style="fill:#c21919;fill-opacity:1;fill-rule:evenodd;stroke:none"
       d="M 65.908228,110.99669 C 53.60388,108.66418 45.418347,104.06963 35.795386,99.739704 30.486681,97.351005 26.101282,91.712975 24.891912,87.2757 L 20.290624,73.725049 c -2.212432,-6.515546 1.55057,-6.332305 8.230006,-3.586737 l 36.551405,13.618433 c 5.696358,1.755884 10.580103,5.862698 10.586611,12.81585 0.003,3.186589 -0.04823,5.518875 -0.525041,9.835625 -0.315672,2.85785 -3.164793,5.73738 -9.225377,4.58847 z"
       id="path6555"
       sodipodi:nodetypes="cscsccsss"
       inkscape:connector-curvature="0" />
    <path
       style="fill:#c21919;fill-opacity:1;fill-rule:evenodd;stroke:none"
       d="m 93.570455,91.513381 c -1.681591,3.500322 -3.475893,8.834309 -5.783561,13.087119 -3.244697,5.97967 -9.78984,7.0191 -9.48188,2.86387 l 0.736375,-9.93563 c 0.513839,-6.933068 4.224366,-14.65636 6.360452,-18.188081 5.807803,-9.602381 12.938735,-20.285614 18.183679,-28.758611 2.06459,-3.335243 2.50471,0.536834 1.77361,3.151722 l -6.404204,22.905562 c -1.210917,4.331021 -3.949183,11.88642 -5.384471,14.874049 z"
       id="path7283"
       sodipodi:nodetypes="sssssssss"
       inkscape:connector-curvature="0" />
    <path
       inkscape:connector-curvature="0"
       style="fill:#ecc9c0;fill-opacity:1;fill-rule:evenodd;stroke:none"
       d="m 98.225811,65.918773 c -0.07854,0.0066 -0.161801,0.02716 -0.25,0.0625 l -0.01563,0.002 c -0.769847,0.225015 -1.727548,1.75937 -2.208984,3.539063 -0.482013,1.781393 -0.327832,3.220694 0.355469,3.31836 l 0.199218,-0.05859 c 0.053,-0.0098 0.107339,-0.02723 0.164063,-0.04883 l 0.173828,-0.05078 c 0.06408,-0.0425 0.129301,-0.09272 0.195312,-0.15039 0.761186,-0.529409 1.657034,-1.764621 2.003907,-2.910156 0.568155,-1.876311 0.325345,-3.782318 -0.617188,-3.703127 z m -68.277343,7.656251 c -1.659856,-0.04328 -3.018243,0.808249 -2.941407,2.441406 -0.0022,0.01941 -0.0042,0.03895 -0.0059,0.05859 -0.02191,1.602687 1.633851,3.577744 3.818359,4.554688 2.184275,0.97639 4.176146,0.632555 4.59375,-0.792969 l 0.0059,-0.392578 c 0.01156,-0.125443 0.01287,-0.255279 0.0059,-0.390625 l 0.0039,-0.333984 c -0.0292,-0.128955 -0.06768,-0.260033 -0.115234,-0.392578 -0.385754,-1.58252 -1.668437,-3.440174 -3.0625,-4.148437 -0.758863,-0.385545 -1.561002,-0.584175 -2.302734,-0.603516 z m 62.539062,7.486328 c -0.07854,0.0066 -0.161801,0.02715 -0.25,0.0625 l -0.01563,0.002 c -0.769847,0.225015 -1.727548,1.759369 -2.208984,3.539062 -0.482013,1.781392 -0.327833,3.220693 0.355468,3.31836 l 0.191407,-0.05664 c 0.05837,-0.01016 0.118714,-0.02817 0.18164,-0.05273 l 0.164063,-0.04883 c 0.05967,-0.0403 0.120314,-0.08724 0.18164,-0.140624 0.764043,-0.524 1.668654,-1.767612 2.017579,-2.919922 0.56816,-1.876363 0.32535,-3.782368 -0.617183,-3.703176 z m -28.96875,5.1875 c -1.659822,-0.04328 -3.018182,0.806361 -2.941406,2.439453 -0.0022,0.01941 -0.0042,0.03895 -0.0059,0.05859 -0.02252,1.60224 1.632291,3.577175 3.816407,4.554687 2.184454,0.977326 4.177297,0.634316 4.595703,-0.791016 l 0.0059,-0.398437 c 0.01113,-0.123452 0.01267,-0.251752 0.0059,-0.384766 l 0.0039,-0.333984 c -0.0291,-0.129576 -0.06758,-0.261308 -0.115235,-0.394531 -0.385754,-1.582519 -1.668436,-3.440176 -3.0625,-4.148438 -0.758863,-0.385545 -1.561002,-0.582221 -2.302734,-0.601562 z m -28.054688,5.554687 c -1.659821,-0.04328 -3.018182,0.80636 -2.941406,2.439453 -0.0022,0.01941 -0.0042,0.03895 -0.0059,0.05859 -0.02252,1.60224 1.63229,3.577175 3.816406,4.554687 2.184453,0.977326 4.177296,0.634317 4.595703,-0.791015 l 0.0059,-0.398438 c 0.01113,-0.123451 0.01267,-0.251751 0.0059,-0.384765 l 0.0039,-0.333985 c -0.0291,-0.129576 -0.06758,-0.261308 -0.115234,-0.394531 -0.385754,-1.58252 -1.67039,-3.440171 -3.064453,-4.148437 -0.758863,-0.385545 -1.559049,-0.582223 -2.300782,-0.601563 z m 50.648438,5.716797 c -0.07854,0.0066 -0.163754,0.02715 -0.251953,0.0625 l -0.01563,0.002 c -0.770137,0.225734 -1.727914,1.761055 -2.208984,3.541014 -0.481283,1.78013 -0.327152,3.21813 0.355468,3.31641 l 0.195313,-0.0566 c 0.05471,-0.01 0.111218,-0.0283 0.169922,-0.0508 l 0.171875,-0.0488 c 0.06156,-0.0412 0.124164,-0.0894 0.1875,-0.14453 0.763286,-0.52552 1.665303,-1.76753 2.013677,-2.91802 0.568155,-1.876312 0.325345,-3.782316 -0.617188,-3.703124 z m -20.919922,5.001954 c -1.659821,-0.0433 -3.020135,0.80636 -2.943359,2.43945 -0.0022,0.0194 -0.0042,0.0389 -0.0059,0.0586 -0.0233,1.60292 1.632825,3.57925 3.81836,4.55664 2.185301,0.97751 4.178491,0.63359 4.595703,-0.79297 l 0.0059,-0.41015 c 0.0096,-0.1126 0.0092,-0.22908 0.0039,-0.34961 l 0.0059,-0.35742 c -0.0292,-0.12896 -0.06768,-0.26003 -0.115235,-0.39258 -0.385136,-1.58296 -1.66979,-3.44183 -3.064453,-4.15039 -0.758863,-0.38555 -1.559049,-0.58222 -2.300781,-0.60156 z"
       id="path1340-3"
       sodipodi:nodetypes="cccccccccscccccccccccscccccccccccsccccccccccscccccccccccscccccccccccscccccccccccscc" />
  </g>
</svg>
