<!--Created with Inkscape (http://www.inkscape.org/)--><svg xmlns:dc="http://purl.org/dc/elements/1.1/" xmlns:cc="http://creativecommons.org/ns#" xmlns:rdf="http://www.w3.org/1999/02/22-rdf-syntax-ns#" xmlns="http://www.w3.org/2000/svg" xmlns:xlink="http://www.w3.org/1999/xlink" xmlns:sodipodi="http://sodipodi.sourceforge.net/DTD/sodipodi-0.dtd" xmlns:inkscape="http://www.inkscape.org/namespaces/inkscape" sodipodi:version="0.32" width="103.38251" height="99.990395" sodipodi:docname="land_safe.svg" inkscape:version="0.91 r13725"><sodipodi:namedview showgrid="true" inkscape:zoom="3.84" inkscape:cx="37.606069" inkscape:cy="43.709325" inkscape:window-width="938" inkscape:window-height="1051" inkscape:window-x="0" inkscape:window-y="0" fit-margin-top="0" fit-margin-left="0" fit-margin-right="0" fit-margin-bottom="0" inkscape:window-maximized="0" inkscape:current-layer="svg548"/><metadata/><defs><linearGradient y2="98.541985" x2="45.90625" y1="71.979485" x1="45.90625" gradientTransform="rotate(-45 49.036 54.237)" gradientUnits="userSpaceOnUse" id="b" xlink:href="#a" inkscape:collect="always"/><linearGradient id="a" inkscape:collect="always"><stop offset="0" style="stop-color:#ffd78f;stop-opacity:1;opacity:1"/><stop offset="1" style="stop-color:#ffb124;stop-opacity:0;opacity:1"/></linearGradient></defs><metadata><rdf:RDF><cc:Work><dc:format>image/svg+xml</dc:format><dc:type rdf:resource="http://purl.org/dc/dcmitype/StillImage"/><dc:title/><dc:date>2017</dc:date><dc:creator><cc:Agent><dc:title>Timothée Giet</dc:title></cc:Agent></dc:creator><cc:license rdf:resource="http://creativecommons.org/licenses/by-sa/4.0/"/></cc:Work><cc:License rdf:about="http://creativecommons.org/licenses/by-sa/4.0/"><cc:permits rdf:resource="http://creativecommons.org/ns#Reproduction"/><cc:permits rdf:resource="http://creativecommons.org/ns#Distribution"/><cc:requires rdf:resource="http://creativecommons.org/ns#Notice"/><cc:requires rdf:resource="http://creativecommons.org/ns#Attribution"/><cc:permits rdf:resource="http://creativecommons.org/ns#DerivativeWorks"/><cc:requires rdf:resource="http://creativecommons.org/ns#ShareAlike"/></cc:License></rdf:RDF></metadata><path sodipodi:nodetypes="cccccccccccc" inkscape:connector-curvature="0" d="M69.504 61.604c-3.645.094-6.985 1.486-9.43 3.931-5.726 5.727-5.135 15.603 1.32 22.059 6.848 7.385 16.817 2.904 20.393 4.293-.81-1.095-1.59-2.224-2.22-3.432 1.291.672 5.102 3.822 5.199 3.983-2.12-1.82-3.91-4.418-4.875-6.37 2.916 2.29 4.214 4.208 9.73 8.463 0 0-5.19-6.259-7.396-8.467 1.864.304 3.39 1.75 4.808 2.998-3.709-8.887 2.796-14.133-4.9-22.207-3.448-3.447-8.07-5.37-12.63-5.251z" style="color:#000;clip-rule:nonzero;display:inline;overflow:visible;visibility:visible;opacity:1;isolation:auto;mix-blend-mode:normal;color-interpolation:sRGB;color-interpolation-filters:linearRGB;solid-color:#000;solid-opacity:1;fill:#fe9248;fill-opacity:1;fill-rule:evenodd;stroke:none;stroke-width:1;stroke-linecap:square;stroke-linejoin:miter;stroke-miterlimit:4;stroke-dasharray:none;stroke-dashoffset:0;stroke-opacity:1;marker:none;color-rendering:auto;image-rendering:auto;shape-rendering:auto;text-rendering:auto;enable-background:accumulate"/><path inkscape:connector-curvature="0" d="M68.969 63.678c-4.168.002-8.248 2.574-9.842 6.455-1.996 4.65-.556 10.237 2.781 13.89 3.485 3.982 9.373 6.068 14.476 4.237.614-.29 1.238-.591 1.83-.273-1.026-.47.835-1.26 1.24-.455.513.252 1.847 1.383.824.378-1.014-1.134-2.18-2.162-3.091-3.371-.127-1.574 2.22-.815 3.197-.773 1.17-.064 1.981.639 2.76 1.416-.966-.877-1.294-2.013-.447-3.086 1.978-5.105-.054-11.098-4.045-14.645-2.618-2.383-6.12-3.853-9.683-3.773z" style="color:#000;clip-rule:nonzero;display:inline;overflow:visible;visibility:visible;opacity:1;isolation:auto;mix-blend-mode:normal;color-interpolation:sRGB;color-interpolation-filters:linearRGB;solid-color:#000;solid-opacity:1;fill:url(#b);fill-opacity:1;fill-rule:evenodd;stroke:none;stroke-width:1;stroke-linecap:square;stroke-linejoin:miter;stroke-miterlimit:4;stroke-dasharray:none;stroke-dashoffset:0;stroke-opacity:1;marker:none;color-rendering:auto;image-rendering:auto;shape-rendering:auto;text-rendering:auto;enable-background:accumulate"/><path inkscape:connector-curvature="0" d="M14.688 19.51c-2.407 2.255-1.705 5.968-1.03 8.849 2.207 6.527 6.199 12.26 10.116 17.87 5.86 7.925 12.118 15.584 18.943 22.7 2.116 1.926 4.097 4.22 6.981 4.842 4.134 1.253 8.703.03 12.326-2.117 4.315-2.92 7.654-8.007 6.87-13.403-.353-2.685-.704-5.679-2.812-7.617-6.139-7.162-13.704-12.904-21.066-18.738-6.004-4.549-12.233-8.892-18.958-12.307-2.97-1.396-6.495-2.109-9.706-1.195-.57.306-1.258.592-1.664 1.116z" style="fill:#2c4c79;fill-opacity:1;stroke:none;stroke-width:.99999988;image-rendering:optimizeSpeed;opacity:1"/><path sodipodi:nodetypes="ccscscsccc" inkscape:connector-curvature="0" d="M15.616 20.474c-2.236 2.123-1.402 5.603-.733 8.255 2.328 6.364 6.778 13.033 10.633 18.242 5.526 7.467 18.634 22.848 21.01 23.48 2.905.044 7.569-1.946 10.586-4.442 4.387-3.628 10.53-12.454 6.636-16.205-6.069-7.01-12.676-11.57-19.952-17.259-5.65-4.418-11.535-8.603-17.923-11.889-2.808-1.228-6.218-2.132-9.185-.975-.335.294-.838.384-1.072.793z" style="fill:#5a8ad1;stroke:none;stroke-width:.99999988;image-rendering:optimizeSpeed;opacity:1"/><path inkscape:connector-curvature="0" d="M66.418 51.147c-.348 3.765-1.83 7.327-3.75 10.55-2.152 3.377-5.238 6.192-8.912 7.823-2.282 1.098-4.725 1.848-7.241 2.155-.85-.037-.62.23-.08.637.901.691 1.495 1.718 2.56 2.206 1.696 1.242 3.877 1.828 5.96 1.43 3.012-.517 5.985-1.723 8.305-3.746.858-.843 1.812-1.586 2.577-2.518.873-.855 1.668-1.791 2.459-2.722 1.686-2.33 2.722-5.207 2.68-8.096-.158-2.093-1.339-3.924-2.653-5.487-.776-.617-1.284-1.472-1.905-2.232z" style="fill:#690000;stroke:none;stroke-width:.99999988;image-rendering:optimizeSpeed;opacity:1"/><path inkscape:connector-curvature="0" d="M14.688 19.51a4.675 4.675 0 0 0-1.524 2.817c-.413 3.143.331 6.353 1.704 9.181 1.273 2.743 2.758 5.392 4.367 7.955 2.898.012 5.688-1.1 8.136-2.584 2.563-1.703 4.66-4.139 5.814-7.005.757-1.7 1.232-3.531 1.27-5.397-2.503-1.577-5.014-3.157-7.637-4.525-2.797-1.485-6.02-2.233-9.182-1.887-1.099.138-2.197.635-2.948 1.445z" style="fill:#535353;fill-opacity:1;stroke:none;stroke-width:.99999988;image-rendering:optimizeSpeed;opacity:1"/><path inkscape:connector-curvature="0" d="M52.674 58.125c-1.115 1.155-1.152 2.957-.851 4.444.573 1.819 1.212 3.628 2.025 5.357 1.87 3.726 4.343 7.191 7.512 9.923.786.762 1.629 1.603 2.817 1.53 2.038.112 3.921-.947 5.58-2.021 1.782-1.3 3.23-3.128 3.934-5.229.325-1.287.528-2.835-.273-3.985a28.643 28.643 0 0 0-7.653-6.778c-2.629-1.717-5.517-2.984-8.448-4.08-1.323-.403-2.89-.384-4.09.359-.165.168-.45.302-.553.48z" style="fill:#690000;fill-opacity:1;stroke:none;stroke-width:.99999988;image-rendering:optimizeSpeed;opacity:1"/><path inkscape:connector-curvature="0" d="M45.88 71.57c2.788 2.24 5.773 4.22 8.8 6.118.455.813.288 1.863.093 2.739-.574 1.823-1.99 3.24-3.43 4.43-1.028.858-2.356 1.404-3.71 1.27-.964.059-1.517-.88-2.168-1.433-2.345-2.161-4.24-4.79-5.742-7.593-.58-1.172-1.034-2.41-1.4-3.66-.389-2.308.053-4.73 1.124-6.803.406-.984 1.425-.605 1.794.164 1.47 1.66 2.952 3.323 4.638 4.768z" style="fill:#690000;fill-opacity:1;stroke:none;stroke-width:.99999988;image-rendering:optimizeSpeed;opacity:1"/><path sodipodi:nodetypes="ccccccc" inkscape:connector-curvature="0" d="M45.651 72.109c2.492 2.037 2.76 2.665 5.446 4.416 1.204.705-3.844 6.51-6.037 6.264-2.72-1.626-4.767-6.067-5.873-9.336a9.174 9.174 0 0 1 .724-5.841c.315-.836 1.21-.471 1.558.207 1.33 1.488 2.672 2.98 4.182 4.29z" style="fill:#d70000;stroke:none;stroke-width:.99999988;image-rendering:optimizeSpeed;opacity:1"/><path inkscape:connector-curvature="0" d="M15.697 20.548a4.249 4.249 0 0 0-1.383 2.549c-.38 2.838.285 5.739 1.521 8.295 1.145 2.477 2.483 4.868 3.931 7.181 2.624.006 5.146-1.006 7.36-2.352 2.32-1.544 4.22-3.749 5.27-6.343.687-1.537 1.12-3.193 1.158-4.88-2.259-1.422-4.526-2.845-6.894-4.076-2.527-1.338-5.44-2.006-8.295-1.687-.995.128-1.988.58-2.668 1.313z" style="fill:#989898;fill-opacity:1;stroke:none;stroke-width:.99999988;image-rendering:optimizeSpeed;opacity:1"/><circle transform="rotate(-45)" r="4.7362156" cy="71.847496" cx="-3.8905463" style="color:#000;clip-rule:nonzero;display:inline;overflow:visible;visibility:visible;opacity:1;isolation:auto;mix-blend-mode:normal;color-interpolation:sRGB;color-interpolation-filters:linearRGB;solid-color:#000;solid-opacity:1;fill:#355b91;fill-opacity:1;fill-rule:evenodd;stroke:none;stroke-width:.99999988;stroke-linecap:square;stroke-linejoin:miter;stroke-miterlimit:4;stroke-dasharray:none;stroke-dashoffset:0;stroke-opacity:1;marker:none;color-rendering:auto;image-rendering:auto;shape-rendering:auto;text-rendering:auto;enable-background:accumulate"/><circle transform="rotate(-45)" r="3.8679092" cy="72.032211" cx="-3.8905463" style="color:#000;clip-rule:nonzero;display:inline;overflow:visible;visibility:visible;opacity:1;isolation:auto;mix-blend-mode:normal;color-interpolation:sRGB;color-interpolation-filters:linearRGB;solid-color:#000;solid-opacity:1;fill:#5a8ad1;fill-opacity:1;fill-rule:evenodd;stroke:none;stroke-width:.99999988;stroke-linecap:square;stroke-linejoin:miter;stroke-miterlimit:4;stroke-dasharray:none;stroke-dashoffset:0;stroke-opacity:1;marker:none;color-rendering:auto;image-rendering:auto;shape-rendering:auto;text-rendering:auto;enable-background:accumulate"/><circle transform="rotate(-45)" r="9.4724312" cy="56.691608" cx="-3.8905463" style="color:#000;clip-rule:nonzero;display:inline;overflow:visible;visibility:visible;opacity:1;isolation:auto;mix-blend-mode:normal;color-interpolation:sRGB;color-interpolation-filters:linearRGB;solid-color:#000;solid-opacity:1;fill:#355b91;fill-opacity:1;fill-rule:evenodd;stroke:none;stroke-width:.99999988;stroke-linecap:square;stroke-linejoin:miter;stroke-miterlimit:4;stroke-dasharray:none;stroke-dashoffset:0;stroke-opacity:1;marker:none;color-rendering:auto;image-rendering:auto;shape-rendering:auto;text-rendering:auto;enable-background:accumulate"/><circle transform="rotate(-45)" r="8.7619991" cy="56.849491" cx="-3.8905463" style="color:#000;clip-rule:nonzero;display:inline;overflow:visible;visibility:visible;opacity:1;isolation:auto;mix-blend-mode:normal;color-interpolation:sRGB;color-interpolation-filters:linearRGB;solid-color:#000;solid-opacity:1;fill:#477ccc;fill-opacity:1;fill-rule:evenodd;stroke:none;stroke-width:.99999988;stroke-linecap:square;stroke-linejoin:miter;stroke-miterlimit:4;stroke-dasharray:none;stroke-dashoffset:0;stroke-opacity:1;marker:none;color-rendering:auto;image-rendering:auto;shape-rendering:auto;text-rendering:auto;enable-background:accumulate"/><circle transform="rotate(-45)" r="7.0253868" cy="56.849491" cx="-3.8905463" style="color:#000;clip-rule:nonzero;display:inline;overflow:visible;visibility:visible;opacity:1;isolation:auto;mix-blend-mode:normal;color-interpolation:sRGB;color-interpolation-filters:linearRGB;solid-color:#000;solid-opacity:1;fill:#355b91;fill-opacity:1;fill-rule:evenodd;stroke:none;stroke-width:.99999988;stroke-linecap:square;stroke-linejoin:miter;stroke-miterlimit:4;stroke-dasharray:none;stroke-dashoffset:0;stroke-opacity:1;marker:none;color-rendering:auto;image-rendering:auto;shape-rendering:auto;text-rendering:auto;enable-background:accumulate"/><circle transform="rotate(-45)" r="6.3149538" cy="56.849491" cx="-3.8905463" style="color:#000;clip-rule:nonzero;display:inline;overflow:visible;visibility:visible;opacity:1;isolation:auto;mix-blend-mode:normal;color-interpolation:sRGB;color-interpolation-filters:linearRGB;solid-color:#000;solid-opacity:1;fill:#adceff;fill-opacity:1;fill-rule:evenodd;stroke:none;stroke-width:.99999988;stroke-linecap:square;stroke-linejoin:miter;stroke-miterlimit:4;stroke-dasharray:none;stroke-dashoffset:0;stroke-opacity:1;marker:none;color-rendering:auto;image-rendering:auto;shape-rendering:auto;text-rendering:auto;enable-background:accumulate"/><path sodipodi:nodetypes="cccccccccccc" inkscape:connector-curvature="0" d="M53.225 58.687c-.925.96-.951 2.456-.7 3.69.495 1.547 1.036 3.092 1.745 4.558 1.555 3.056 2.104 4.407 4.71 6.653.653.634 1.354 1.334 2.341 1.276 1.69.096 3.254-.779 4.63-1.67 1.478-1.075 2.678-2.591 3.258-4.334.268-1.069.432-2.355-.234-3.309-1.768-2.236-2.434-2.674-4.876-4.15-2.184-1.43-4.584-2.487-7.02-3.402-1.098-.337-2.4-.325-3.396.29-.137.14-.373.25-.458.398z" style="fill:#d70000;stroke:none;stroke-width:.99999988;image-rendering:optimizeSpeed;opacity:1"/><path inkscape:connector-curvature="0" d="M66.37 51.08c2.239 2.788 4.22 5.773 6.118 8.8.813.456 1.863.288 2.738.094 1.824-.575 3.24-1.99 4.43-3.43.858-1.028 1.404-2.357 1.27-3.711.06-.963-.88-1.517-1.433-2.168-2.16-2.345-4.789-4.24-7.593-5.741-1.171-.58-2.41-1.034-3.659-1.4-2.309-.39-4.731.053-6.803 1.123-.985.406-.605 1.426.164 1.795 1.66 1.47 3.323 2.952 4.768 4.638z" style="fill:#690000;fill-opacity:1;stroke:none;stroke-width:.99999988;image-rendering:optimizeSpeed;opacity:1"/><path sodipodi:nodetypes="ccccccc" inkscape:connector-curvature="0" d="M66.908 50.852c2.037 2.491 2.666 2.76 4.416 5.446.705 1.204 6.51-3.844 6.265-6.038-1.627-2.72-6.068-4.766-9.337-5.873a9.174 9.174 0 0 0-5.84.724c-.837.316-.472 1.21.206 1.558 1.488 1.33 2.98 2.673 4.29 4.183z" style="fill:#d70000;stroke:none;stroke-width:.99999988;image-rendering:optimizeSpeed;opacity:1"/></svg>