<svg xmlns:dc="http://purl.org/dc/elements/1.1/" xmlns:cc="http://creativecommons.org/ns#" xmlns:rdf="http://www.w3.org/1999/02/22-rdf-syntax-ns#" xmlns="http://www.w3.org/2000/svg" width="62.376419mm" height="40.625351mm" viewBox="0 0 221.01881 143.94809" version="1.1" id="svg72"><metadata id="metadata4"><rdf:RDF><cc:Work><dc:format>image/svg+xml</dc:format><dc:type rdf:resource="http://purl.org/dc/dcmitype/StillImage"/><dc:title/></cc:Work></rdf:RDF></metadata><g id="g70"><path d="m230.825 525.954 202.523.754c3.858.015 3.822 9.659-.036 9.644l-202.523-.754.036-9.644z" style="fill:#5a5148" transform="translate(-215.205 -431.817)" id="path6"/><path d="m221.034 523.569 15.43.057a5.774 5.774 0 0 1 5.766 5.808l-.022 5.786a5.774 5.774 0 0 1-5.808 5.765l-15.43-.057a5.774 5.774 0 0 1-5.765-5.808l.021-5.786a5.774 5.774 0 0 1 5.808-5.765z" style="fill:#8d7c6a" transform="translate(-215.205 -431.817)" id="path8"/><path transform="matrix(-2.3655 0 0 1.9844 1119.732 -392.934)" d="m410.63 216.46-9.037 3.53-7.576-6.06 1.46-9.592 9.038-3.53 7.576 6.06z" style="fill:#1a1a1a" id="path10"/><path d="m66.435 20.032-21.12-3.543L31.096 30.06l6.902 17.116 21.12 3.544 14.22-13.573z" id="path12"/><path transform="matrix(2.12138 0 0 1.7796 -718.198 -363.347)" d="m377.8 226.56-12.351 2.2-8.081-9.596 4.27-11.797 12.351-2.2 8.081 9.596z" style="fill:#1a1a1a" id="path14"/><path transform="matrix(2.12138 0 0 1.7796 -687.125 -358.855)" d="m383.35 217.47-8.415 4.473-8.08-5.05.333-9.525 8.414-4.473 8.081 5.051z" style="fill:#333" id="path16"/><path d="M81.116 39.842 72.162 24.09 83.948 9.708l20.74 1.372 8.953 15.753-11.786 14.381z" id="path18"/><path transform="matrix(2.12138 0 0 1.7796 -684.984 -378.63)" d="m380.83 222.02 7.35 9.492c-5.093 16.937-15.022 14.566-23.792 3.239l4.546-11.112z" style="fill:#4d4d4d" id="path20"/><path transform="matrix(-2.12138 0 0 1.7796 947.216 -392.83)" d="m380.83 222.02 7.35 9.492-4.546 11.113-11.896 1.619-7.35-9.493 4.546-11.112z" style="fill:#4d4d4d" id="path22"/><path d="m142.563 30.135 8.953-15.754L139.73 0l-20.74 1.372-8.953 15.753 11.786 14.382z" id="path24"/><path transform="matrix(-2.12138 0 0 1.7796 960.084 -345.19)" d="M388.91 224.04c-15.563 5.977-24.192-.534-19.193-19.193l13.11-3.512 9.596 9.596z" style="fill:#333" id="path26"/><path transform="matrix(2.12138 0 0 1.7796 -720.342 -366.044)" d="m393.96 216.46 8.162-4.036 7.576 5.051-.586 9.087-8.162 4.035-7.576-5.05z" style="fill:#1a1a1a" id="path28"/><path transform="matrix(2.12138 0 0 1.7796 -735.341 -338.181)" d="m366.205 217.956 3.512-13.109 13.11-3.512 9.596 9.596c-3.417 20.225-15.181 18.063-26.218 7.025z" style="fill:#333" id="path30"/><path transform="matrix(2.12138 0 0 1.7796 -735.341 -336.383)" d="m394.017 213.93 1.46-9.592 9.038-3.53 7.576 6.06c-.863 14.908-9.611 13.831-18.074 7.062z" style="fill:#333" id="path32"/><path style="color:#000;clip-rule:nonzero;display:inline;overflow:visible;visibility:visible;opacity:1;isolation:auto;mix-blend-mode:normal;color-interpolation:sRGB;color-interpolation-filters:linearRGB;solid-color:#000;solid-opacity:1;fill:#a40000;fill-opacity:1;fill-rule:nonzero;stroke:none;stroke-width:1.023;stroke-linecap:round;stroke-linejoin:bevel;stroke-miterlimit:4;stroke-dasharray:none;stroke-dashoffset:0;stroke-opacity:1;marker:none;color-rendering:auto;image-rendering:auto;shape-rendering:auto;text-rendering:auto;enable-background:accumulate" d="m25.093 23.591 161.657.588c2.211.008 3.961 1.215 3.992 2.857l1.21 65.483c.031 1.642-1.78 2.857-3.992 2.857H74.682c-2.212 0-3.005-1.542-3.992-2.857L21.1 26.448c-.986-1.315 1.781-2.865 3.993-2.857z" id="path34"/><path style="color:#000;clip-rule:nonzero;display:inline;overflow:visible;visibility:visible;isolation:auto;mix-blend-mode:normal;color-interpolation:sRGB;color-interpolation-filters:linearRGB;solid-color:#000;solid-opacity:1;fill:#ef292a;fill-opacity:1;fill-rule:nonzero;stroke:none;stroke-width:1.023;stroke-linecap:round;stroke-linejoin:bevel;stroke-miterlimit:4;stroke-dasharray:none;stroke-dashoffset:0;stroke-opacity:1;marker:none;color-rendering:auto;image-rendering:auto;shape-rendering:auto;text-rendering:auto;enable-background:accumulate" d="M32.593 27.341 183 27.929c2.211.009 3.958 1.215 3.992 2.857l1.21 57.983c.034 1.642-1.78 2.857-3.992 2.857H76.557c-2.212 0-3.005-1.542-3.992-2.857L28.6 30.198c-.987-1.314 1.781-2.866 3.993-2.857z" id="path34-3"/><path d="M335.873 541.813c-.07 18.642-15.238 33.698-33.88 33.628-18.642-.07-33.697-15.237-33.628-33.88.07-18.641 15.238-33.697 33.88-33.627 18.641.069 33.697 15.237 33.628 33.88z" style="fill:#d69600" transform="translate(-215.205 -431.817)" id="path36"/><path d="M302.225 513.141a28.486 28.486 0 0 0-28.67 28.457 28.486 28.486 0 0 0 28.457 28.67 28.486 28.486 0 0 0 28.67-28.457 28.486 28.486 0 0 0-28.457-28.67z" style="fill:#ffd543" transform="translate(-215.205 -431.817)" id="path38"/><path d="M302.164 529.536c-6.969-.026-12.17 5.137-12.197 12.106-.026 6.97 5.137 12.17 12.107 12.197 6.969.026 12.17-5.137 12.196-12.106.026-6.97-5.137-12.171-12.106-12.197z" style="fill:#8d7c6a" transform="translate(-215.205 -431.817)" id="path40"/><path d="M303.135 558.858a14.236 14.236 0 0 0 14.326-14.22c.003-.841-.096-1.668-.232-2.47-.398 8.548-7.403 15.3-16.046 15.267-2.363-.009-4.577-.553-6.589-1.47a14.237 14.237 0 0 0 8.541 2.893z" style="fill:#ffe791" transform="translate(-215.205 -431.817)" id="path42"/><path d="M302.127 539.566c-1.117-.004-1.95.823-1.955 1.94-.004 1.117.823 1.95 1.94 1.955 1.117.004 1.95-.823 1.955-1.94.004-1.117-.823-1.951-1.94-1.955z" style="fill:#312c29" transform="translate(-215.205 -431.817)" id="path44"/><path d="M298.675 518.722a19.186 19.186 0 0 0-19.307 19.163c-.004 1.135.13 2.25.312 3.33.536-11.52 9.977-20.62 21.625-20.576 3.185.012 6.17.745 8.88 1.981-3.199-2.41-7.174-3.882-11.51-3.898z" style="fill:#ffe791" transform="translate(-215.205 -431.817)" id="path46"/><path d="M303.246 565.416a19.186 19.186 0 0 0 19.307-19.164c.004-1.134-.13-2.248-.313-3.328-.536 11.52-9.976 20.618-21.625 20.575-3.185-.012-6.17-.746-8.88-1.981 3.2 2.41 7.175 3.882 11.51 3.898z" style="fill:#ffe791" transform="translate(-215.205 -431.817)" id="path48"/><path d="M300.292 524.707a14.236 14.236 0 0 0-14.326 14.22c-.003.841.096 1.668.232 2.47.398-8.548 7.403-15.3 16.046-15.267 2.363.009 4.577.553 6.589 1.47a14.236 14.236 0 0 0-8.541-2.893z" style="fill:#ffe791" transform="translate(-215.205 -431.817)" id="path50"/><path d="M422.668 542.136c-.069 18.642-15.237 33.698-33.88 33.629-18.641-.07-33.697-15.238-33.627-33.88.07-18.642 15.237-33.698 33.88-33.628 18.641.07 33.697 15.238 33.627 33.88z" style="fill:#d69600" transform="translate(-215.205 -431.817)" id="path52"/><path d="M389.02 513.465a28.486 28.486 0 0 0-28.669 28.457 28.486 28.486 0 0 0 28.457 28.67 28.486 28.486 0 0 0 28.67-28.458 28.486 28.486 0 0 0-28.457-28.67z" style="fill:#ffd543" transform="translate(-215.205 -431.817)" id="path54"/><path d="M388.96 529.86c-6.97-.027-12.17 5.137-12.197 12.105-.026 6.97 5.137 12.171 12.106 12.197 6.97.026 12.171-5.137 12.197-12.106.026-6.969-5.137-12.17-12.106-12.197z" style="fill:#8d7c6a" transform="translate(-215.205 -431.817)" id="path56"/><path d="M389.93 559.181a14.236 14.236 0 0 0 14.326-14.22c.003-.841-.096-1.668-.231-2.47-.398 8.549-7.403 15.3-16.046 15.268-2.364-.01-4.578-.554-6.589-1.47a14.237 14.237 0 0 0 8.54 2.892z" style="fill:#ffe791" transform="translate(-215.205 -431.817)" id="path58"/><path d="M388.922 539.889c-1.116-.004-1.95.823-1.954 1.94-.004 1.117.823 1.95 1.94 1.955 1.117.004 1.95-.823 1.955-1.94.004-1.117-.824-1.95-1.94-1.955z" style="fill:#312c29" transform="translate(-215.205 -431.817)" id="path60"/><path d="M385.47 519.045a19.186 19.186 0 0 0-19.307 19.164c-.004 1.134.13 2.248.313 3.329.536-11.52 9.976-20.62 21.625-20.576 3.185.012 6.17.746 8.88 1.981-3.2-2.41-7.175-3.882-11.51-3.898z" style="fill:#ffe791" transform="translate(-215.205 -431.817)" id="path62"/><path d="M390.041 565.74a19.186 19.186 0 0 0 19.307-19.164c.004-1.135-.13-2.25-.312-3.33-.536 11.52-9.977 20.62-21.625 20.576-3.186-.012-6.17-.745-8.88-1.981 3.199 2.41 7.174 3.882 11.51 3.898z" style="fill:#ffe791" transform="translate(-215.205 -431.817)" id="path64"/><path d="M387.088 525.03a14.236 14.236 0 0 0-14.326 14.22c-.003.842.096 1.668.232 2.47.398-8.548 7.402-15.3 16.046-15.267 2.363.009 4.577.553 6.588 1.47a14.236 14.236 0 0 0-8.54-2.893z" style="fill:#ffe791" transform="translate(-215.205 -431.817)" id="path66"/><path style="fill:#dbdbdb;stroke:#dbdbdb;stroke-width:2.4343;stroke-linecap:round;stroke-linejoin:round;stroke-dasharray:9.73722,9.73722000000000065;fill-opacity:1;stroke-opacity:1" d="M49.568 44.841h130.63" id="path68"/></g></svg>