<?xml version="1.0" encoding="UTF-8" standalone="no"?>
<!-- Created with Inkscape (http://www.inkscape.org/) -->

<svg
   width="218.07509"
   height="150.00684"
   viewBox="0 0 218.07509 150.00684"
   version="1.1"
   id="svg1059"
   xmlns="http://www.w3.org/2000/svg"
   xmlns:svg="http://www.w3.org/2000/svg"
   xmlns:rdf="http://www.w3.org/1999/02/22-rdf-syntax-ns#"
   xmlns:cc="http://creativecommons.org/ns#"
   xmlns:dc="http://purl.org/dc/elements/1.1/">
  <defs
     id="defs1053" />
  <metadata
     id="metadata1056">
    <rdf:RDF>
      <cc:Work
         rdf:about="">
        <dc:format>image/svg+xml</dc:format>
        <dc:type
           rdf:resource="http://purl.org/dc/dcmitype/StillImage" />
        <dc:source />
        <cc:license
           rdf:resource="http://creativecommons.org/licenses/by-sa/4.0/" />
        <dc:date>2021</dc:date>
        <dc:creator>
          <cc:Agent>
            <dc:title>Timothée Giet</dc:title>
          </cc:Agent>
        </dc:creator>
        <dc:description>Derivative work based on https://upload.wikimedia.org/wikipedia/commons/3/3f/States_and_territories_of_Oceania.svg by Kaidor</dc:description>
      </cc:Work>
      <cc:License
         rdf:about="http://creativecommons.org/licenses/by-sa/4.0/">
        <cc:permits
           rdf:resource="http://creativecommons.org/ns#Reproduction" />
        <cc:permits
           rdf:resource="http://creativecommons.org/ns#Distribution" />
        <cc:requires
           rdf:resource="http://creativecommons.org/ns#Notice" />
        <cc:requires
           rdf:resource="http://creativecommons.org/ns#Attribution" />
        <cc:permits
           rdf:resource="http://creativecommons.org/ns#DerivativeWorks" />
        <cc:requires
           rdf:resource="http://creativecommons.org/ns#ShareAlike" />
      </cc:License>
    </rdf:RDF>
  </metadata>
  <g
     id="layer5"
     style="display:inline"
     transform="translate(-15.083724,-115.18698)">
    <g
       id="g3469"
       transform="matrix(1.15556,0,0,1.15556,-3.86685,-43.79)"
       style="stroke-width:0.865384">
      <path
         id="path23768-0"
         d="m 140.08398,154.64844 c -2.73849,-0.18947 -2.74628,3.3755 -2.51953,4.47851 -1.50339,-4.76258 -9.17623,-0.4456 -5.20117,3.10352 1.44993,1.1471 0.39062,5.44697 3.85156,5.45508 3.06065,0.59883 2.59648,-5.09436 5.30274,-2.94922 0.28979,3.03034 4.5749,1.73901 5.5039,2.06445 -3.79093,3.48712 2.89764,8.84045 4.89649,3.87695 1.73493,-2.69378 -2.66345,-5.10476 -2.90235,-4.95703 4.81165,-1.54971 0.99823,-8.59235 -2.95703,-5.71093 -1.32877,1.48678 -1.36884,-2.41093 -2.6875,-3.21289 -1.205,-0.64962 -1.62651,-2.33876 -3.28711,-2.14844 z m 20.63086,5.80468 c -5.08064,0.63073 -0.94428,8.48402 2.45899,4.7129 1.75723,-1.88266 0.11387,-5.03561 -2.45899,-4.7129 z m -14.20507,0.70118 c 0.47607,0.35124 -1.08543,-0.53637 0,0 z m 9.25,11.95703 c -2.33797,0.69128 -2.25618,3.38876 -4.55274,4.33594 -2.72133,3.18311 2.83314,6.54414 4.90039,3.4414 1.48517,1.52341 1.35346,2.43644 1.3457,4.40821 1.96131,4.22794 7.60844,-0.6541 4.57618,-3.36524 0.0322,-2.25391 1.8238,-3.60275 1.48242,-5.92773 -0.49636,-2.49257 -3.83412,-2.50109 -5.00195,-1.61719 -0.58146,-0.89094 -1.69418,-1.41954 -2.75,-1.27539 z"
         style="display:inline;fill:#c1ddf3;fill-opacity:1;stroke:#e77936;stroke-width:0.865384;stroke-linecap:butt;stroke-linejoin:bevel;stroke-miterlimit:4;stroke-dasharray:none;stroke-opacity:1" />
      <path
         style="display:inline;opacity:1;fill:#ffffff;fill-opacity:1;fill-rule:evenodd;stroke:#e77936;stroke-width:0.865384;stroke-linejoin:round;stroke-miterlimit:4;stroke-dasharray:none;stroke-opacity:1"
         d="m 138.70746,161.62263 c -0.0928,0.0248 0.0353,0.056 0,0 z"
         id="path41485-6" />
      <path
         id="Australia"
         d="m 152.77902,198.3652 c -0.20549,2.44937 0.68237,0.10194 0,0 z M 16.61581,192.87888 c 0.930922,3.74822 1.213567,0.26662 0,0 z m 0.580564,-1.73185 c -0.235021,1.79752 0.287997,-1.37746 0,0 z m 0.104426,-0.95576 c -0.1136,1.34008 0.276016,-0.89839 0,0 z M 78.173242,142.2408 c -1.492738,-0.62631 -1.40725,1.49562 -2.123181,-0.12899 -2.302222,0.35988 3.118257,3.77623 2.973619,0.25695 -0.656116,-1.20224 -0.83902,-0.45675 -0.850438,-0.12796 z m -2.2573,1.59889 c -0.401428,-1.81 -1.332272,-1.52048 -1.118598,-0.39703 -1.417665,0.10235 0.47644,0.47795 1.118598,0.39703 z m 70.741458,78.88687 c 1.84158,-3.71439 1.69685,-0.84311 3.36591,-5.06385 1.83342,-4.29464 3.23531,-11.37805 3.29695,-14.92398 -1.10132,-2.47597 -1.97102,-4.10452 -1.52088,-6.85053 -0.17463,-1.83459 -0.0154,-2.84823 -1.74552,-4.64898 -0.68412,-2.40834 -2.99558,-3.62155 -4.32969,-4.72355 -2.42272,-1.03049 -1.44088,-4.57862 -1.96074,-4.96482 -0.40117,-1.34845 -0.20117,2.10814 -2.07294,-1.23844 -0.35002,1.69494 -1.17193,1.41554 -1.84805,0.0319 -0.36091,-2.45526 -0.66937,-2.66752 -1.59254,-4.30647 -2.15351,-1.43031 0.2179,-1.99631 -1.66935,-3.11181 -1.60781,-0.12266 -3.44653,-1.64316 -3.96984,-2.5146 -2.73067,-0.19874 -5.15564,-3.28339 -4.24661,-6.40926 -0.55516,-2.56799 -2.58254,-3.39402 -2.82928,-7.30448 0.75576,-2.04816 -1.5474,-3.29558 -2.93258,-4.37104 -2.15976,2.25015 -3.24248,-2.32367 -3.05758,-4.92392 -1.51467,-0.96159 -0.86793,-3.06632 -2.21856,-4.42606 0.36598,-2.6277 -1.65409,-1.61631 -0.93182,-2.67531 -1.55231,-0.63764 -1.56833,2.61252 -1.74333,2.92314 0.18046,1.37267 -0.472,1.00576 -0.82249,2.15858 -1.34446,1.5852 0.19499,-0.15151 0.11127,1.37723 1.93291,0.9803 -1.83555,-0.0148 -0.38666,2.11296 0.66558,0.52309 -0.13984,0.59655 -0.63054,0.8853 0.0781,1.25063 0.044,6.8611 0.18808,7.9874 -1.2067,0.36292 -0.50802,2.80389 -1.64665,3.51605 0.41666,2.83639 -5.74138,3.83601 -5.55087,1.96954 -0.90143,-1.7621 -6.194791,-2.94684 -6.297506,-4.27157 -0.881177,-0.3303 -2.742848,-1.1792 -2.950549,-1.028 -0.744632,0.75296 -1.586821,-3.27145 -3.945927,-2.21835 0.586273,0.56889 -1.073736,-1.62857 0.448575,-3.45594 2.528942,-1.03437 -0.744765,-3.2874 1.671217,-3.52417 1.041421,-0.24536 1.403707,-0.41325 1.349781,-1.64274 0.57765,-0.30449 1.78098,-2.37293 0.515877,-1.67314 -1.434105,-2.14358 -0.755608,-0.48726 -1.638224,0.54188 -1.915773,1.2944 0.198705,-2.32037 -1.544416,-0.50264 0.409907,-1.85081 -1.623986,0.47591 -2.44245,-0.0224 -1.268775,-1.39088 -1.02936,-0.30596 -2.805095,-0.76178 0.04451,0.88384 -1.28313,-1.85161 -2.308743,-0.9837 -1.680201,-0.49496 -3.34573,-1.92715 -4.419867,-2.02105 0.473137,1.0941 -2.47002,-0.95389 -0.369656,1.12096 2.421181,-0.9955 2.030685,1.57716 1.726686,2.07729 -1.304655,1.69005 -0.171922,1.62207 -1.187965,0.18824 -1.47997,1.5978 -3.652154,-1.17611 -4.382762,0.55807 -0.567386,0.73824 0.395487,1.40751 -0.660156,0.80352 -1.01967,-1.53962 0.180935,1.2669 -0.772813,0.56102 -1.598693,-0.59418 -0.113272,2.77909 -1.393192,2.50108 -1.087513,0.63806 -2.473441,2.54271 -2.1136,3.48004 0.925257,1.18528 2.043121,1.0486 0.712279,1.73882 -0.03103,2.22441 -1.539273,-1.77199 -1.620488,0.77919 -0.338915,-1.45052 -3.377723,-1.38184 -2.852253,-0.3353 -1.367443,-1.02396 0.774799,3.00456 -0.823865,0.42958 -1.41554,3.78279 0.03206,-1.30682 0.25898,-1.6671 -2.118885,-1.83001 -2.613833,-3.02903 -4.89209,-3.22528 0.547269,1.68752 -1.275916,0.78361 -1.825993,1.06177 -0.676512,-1.19267 -0.250707,-0.16453 -0.683679,1.12029 -0.384176,1.09851 -1.35023,0.48863 -1.200692,-0.60902 -0.02365,1.59148 -2.115525,0.86931 -1.215804,2.34032 1.022993,0.63669 0.703728,1.38841 -0.616892,0.47986 -1.058573,0.22329 -0.591521,0.68423 -0.03433,1.11817 1.251246,1.34071 -0.600404,-0.0914 -1.382013,-0.36045 -0.0099,0.65942 -1.837093,2.09697 -0.332126,1.99599 1.42304,-1.52109 -0.271102,0.55493 0.02111,1.20392 -2.138801,-0.18432 3.32447,1.32549 -0.762432,0.77703 1.135611,1.38451 -1.7587,-1.48614 -1.338765,-0.16586 -0.267878,0.2483 -1.540262,-1.56466 -1.015287,-0.18952 0.229122,0.63575 -0.900546,0.37152 -0.351296,1.11362 1.372475,0.63995 1.383684,2.1705 0.445403,1.6538 -0.591808,-0.69157 0.275897,3.83966 -0.997761,0.74491 -1.312728,-2.34638 -1.01995,-4.16493 -2.82369,-1.6303 -2.212665,0.7585 0.50431,5.03594 -2.533645,5.84018 -0.835741,3.1858 -4.811131,5.80421 -8.21434,5.29924 -1.668394,1.23233 -3.76387,0.91046 -5.203533,2.42109 -2.823794,0.59676 -3.630832,-1.23751 -5.896883,1.25453 -1.068237,1.71157 -3.97002,2.33623 -4.296002,3.02281 -0.644048,1.83326 -1.866442,3.68554 -2.28606,1.53943 -0.64563,-4.17146 -1.169068,3.40426 -1.54714,4.9852 -3.237549,3.35713 4.083579,7.99502 1.284942,10.27389 -0.793157,-1.38341 -0.974355,-1.63626 -1.968187,-2.87109 1.53165,1.7065 1.263331,5.30482 0.230926,2.60659 -1.783527,-2.65441 0.136266,1.50902 2.023315,4.5708 2.416006,5.3587 2.924318,11.31405 5.524452,16.88633 -0.17141,2.85782 -0.01246,7.12118 -2.561984,7.45585 -0.367414,3.48276 6.337283,5.6824 7.984715,5.11721 1.877802,0.5871 2.312835,0.19899 3.69638,-1.09565 3.479608,-0.9798 3.534763,-2.9302 7.519986,-3.53334 3.439786,-0.30429 5.960689,0.47975 8.863725,0.19638 3.61683,-5.45782 10.735175,-6.64611 17.237159,-8.09547 5.834317,-3.08071 11.398969,-0.56758 16.465754,1.12671 1.443787,-1.07805 1.647163,1.55614 3.137411,1.93043 -1.544671,0.9412 0.543472,2.25824 1.409961,2.09794 0.602208,2.10469 4.160371,6.73159 1.454821,5.42365 2.151496,1.57915 2.885971,2.43073 2.682943,-0.0595 1.803497,-2.30539 4.253947,-3.11291 5.61867,-6.10768 0.754843,-2.32889 0.994143,-1.2682 1.359273,0.44031 -1.073872,1.84697 -1.644962,5.72837 -2.557717,7.18367 -3.447909,2.85121 4.106477,0.66499 2.693747,-2.99536 3.91996,1.96771 -2.083651,7.59105 3.02972,5.8969 4.50926,2.85997 1.13411,9.91684 7.70831,10.88822 2.12319,0.48078 6.03701,2.58097 8.71053,2.06262 3.11295,-1.84706 2.41341,-1.9356 2.53707,-2.75003 3.53226,-2.19819 -1.13481,3.90841 2.12234,1.33016 1.05488,-0.65855 1.2236,1.70184 2.60066,2.35809 1.32438,0.46758 2.28221,1.1075 0.7413,-0.75746 4.01833,-0.45653 6.34691,-5.41962 11.38068,-4.23515 2.60725,-1.94237 0.51379,-6.37901 2.7002,-9.25029 1.7531,-1.88401 1.3327,-3.82094 2.74354,-6.40651 0.63232,-0.2307 0.11288,-2.36077 1.19974,-2.65666 z M 82.713317,141.11141 c -0.714703,1.31212 0.710381,0.47929 0,0 z m -25.0104,12.0605 c -0.234463,1.32736 0.518355,-0.67824 0,0 z m -32.531795,22.15286 c -0.03427,-1.0879 -0.834404,1.14991 0,0 z m 109.359548,74.51122 c -1.89528,1.30245 2.99808,3.03451 0.25293,0.21963 l -0.23858,-0.2131 z M 99.674494,233.80452 c 3.264386,-0.77543 -0.579522,-2.00449 -2.794786,-1.22245 -2.629201,1.95313 2.324425,1.21015 2.794786,1.22245 z m 24.749536,19.86243 c -0.98377,0.48706 1.0734,0.59521 0,0 z m -3.46959,-2.10208 c 2.15682,-2.06663 -1.31046,-4.10575 0,0 z m 6.88954,4.10291 c -1.5534,-0.9312 -4.81787,-3.08419 -4.37719,-0.003 -0.24916,2.06871 4.57874,8.00432 1.7096,5.08637 0.36012,3.03262 2.04652,4.76051 3.15905,5.17524 -0.0359,-0.18629 -1.16548,1.15554 1.58852,1.02098 1.98126,1.20958 1.31573,-2.89987 1.41429,-1.82826 1.61277,1.61178 0.26043,-4.08478 1.48688,-0.7193 -0.52221,-1.17503 1.5055,-0.2074 1.41165,-2.06816 1.77276,-1.801 1.4363,-2.67045 1.50071,-5.79904 1.30442,-3.66163 -7.24648,-1.49433 -3.89674,0.66735 -1.67863,-2.57742 -1.74312,-0.15319 -3.99677,-1.53095 z m 6.59767,8.72781 c 0.12536,-1.41657 -1.74653,1.18753 -0.24511,0.60125 0.79971,1.27284 0.27581,-0.53226 0.24511,-0.60125 z m -1.79434,1.08975 c 0.0834,-1.72228 -1.69362,2.31644 -0.18881,0.86094 0.34592,-0.30939 -0.61561,-0.59494 0.18881,-0.86094 z M 123.6141,253.0903 c 0.10595,1.08419 0.46956,-1.12007 0,0 z m 0.56369,-0.38804 c -0.26066,0.68351 0.69878,-0.31404 0,0 z m 11.86551,-0.18756 c -3.38414,-0.8465 0.56104,1.43395 0,0 z m -0.6292,0.54388 c -1.03003,-0.0934 0.2891,0.91914 0,0 z m -9.92269,-9.20528 c 1.25593,0.5017 0.1774,-1.21981 0,0 z m 9.3893,19.04353 c 0.42288,0.53776 -0.0355,-1.2071 0,0 z m -9.7706,-18.6606 c 0.12931,0.73042 1.32149,-0.11995 0,0 z m 20.23525,-58.19058 c 1.37385,0.1579 -1.55579,-2.05736 -9e-5,0 z m 7.62833,14.91886 c 0.9248,-1.41793 -0.66591,-1.78167 0,0 z m -1.05901,-3.31383 c -0.26421,1.4325 0.50357,0.53704 0,0 z m -23.00624,-31.09712 c -1.30482,-1.14345 0.47205,1.46397 0,0 z m 22.84081,27.11023 c 1.76279,-3.71071 -0.27004,-6.85686 0,0 z m -36.91751,-55.55667 c 0.69102,0.41188 -0.10775,-0.8794 0,0 z m 0.79891,0.0764 c -0.72938,-0.82414 -0.46998,1.00099 0,0 z m -0.47223,1.45804 c -1.02389,0.55347 0.93401,0.77598 0,0 z m -23.227015,5.28886 c -0.457871,0.86976 1.785739,-0.80876 0,0 z m -9.424171,-1.6148 c 0.609686,0.8253 0.522637,-0.48537 0,0 z m 22.507266,17.35645 c 1.875,0.41436 1.85742,-2.3205 0,0 z m -9.013544,-3.92128 c -0.291952,1.12465 0.949757,-0.42262 0,0 z m 1.429118,0.55578 c 0.956862,1.46785 0.47368,-1.22042 0,0 z m -0.964662,-15.3744 c 1.163088,-2.28875 -1.321441,1.95627 0,0 z m 9.769598,20.26336 c -0.12422,-0.83744 -1.01499,0.37059 0,0 z M 95.770696,152.05244 c 2.527341,1.00345 0.932239,-1.12432 0.879035,-1.81903 -0.670394,0.028 -1.57016,2.14766 -0.879035,1.81903 z m -0.528964,-1.58895 c -1.019295,-0.742 -0.357925,1.01543 0,0 z m 0.253151,-7.55079 c -1.673493,0.67468 -0.07365,0.4846 0,0 z m -1.533359,0.71062 c -2.144286,1.10624 -0.671763,1.54951 0,0 z"
         style="opacity:1;fill:#e77936;fill-opacity:1;fill-rule:evenodd;stroke:#505050;stroke-width:0.432692;stroke-linejoin:round;stroke-miterlimit:4;stroke-dasharray:none;stroke-opacity:1" />
      <path
         id="path23520-2"
         d="m 50.607422,142.32812 c -3.982459,0.1682 -3.593717,5.79919 0.07813,6.15626 4.385625,2.42031 6.066521,-4.52363 1.71875,-5.5879 -0.514979,-0.38093 -1.154451,-0.59731 -1.796875,-0.56836 z"
         style="display:inline;fill:#c1ddf3;fill-opacity:1;stroke:#e77936;stroke-width:0.865384;stroke-linecap:butt;stroke-linejoin:bevel;stroke-miterlimit:4;stroke-dasharray:none;stroke-opacity:1" />
      <path
         style="display:inline;opacity:1;fill:#ffffff;fill-opacity:1;fill-rule:evenodd;stroke:#e77936;stroke-width:0.240518;stroke-linejoin:round;stroke-miterlimit:4;stroke-dasharray:none;stroke-opacity:1"
         d="m 50.427,145.29861 c -0.01093,-0.0364 -0.05979,-0.003 0,0 z"
         id="path35043-0" />
      <path
         id="path23804-5"
         d="m 201.63477,203.03125 c -5.71046,0.48488 -0.98952,9.53144 2.54492,4.7793 1.31992,-1.91219 -0.0988,-4.95094 -2.54492,-4.7793 z"
         style="display:inline;fill:#c1ddf3;fill-opacity:1;stroke:#e77936;stroke-width:0.865384;stroke-linecap:butt;stroke-linejoin:bevel;stroke-miterlimit:4;stroke-dasharray:none;stroke-opacity:1" />
      <path
         id="path33045-9"
         style="display:inline;opacity:1;fill:#ffffff;fill-opacity:1;fill-rule:evenodd;stroke:#e77936;stroke-width:0.865384;stroke-linejoin:round;stroke-miterlimit:4;stroke-dasharray:none;stroke-opacity:1"
         d="m 201.77235,206.299 c 0.0781,0.0912 0.0597,-0.12226 0,0 z m 0.13399,-0.25605 c -0.0133,-0.57141 -0.5338,0.0613 0,0 z" />
    </g>
  </g>
</svg>
