<?xml version="1.0" encoding="UTF-8" standalone="no"?>
<!-- Created with Inkscape (http://www.inkscape.org/) -->

<svg
   width="163.68564"
   height="70.364464"
   viewBox="0 0 163.68564 70.364464"
   version="1.1"
   id="svg1059"
   xmlns="http://www.w3.org/2000/svg"
   xmlns:svg="http://www.w3.org/2000/svg"
   xmlns:rdf="http://www.w3.org/1999/02/22-rdf-syntax-ns#"
   xmlns:cc="http://creativecommons.org/ns#"
   xmlns:dc="http://purl.org/dc/elements/1.1/">
  <defs
     id="defs1053" />
  <metadata
     id="metadata1056">
    <rdf:RDF>
      <cc:Work
         rdf:about="">
        <dc:format>image/svg+xml</dc:format>
        <dc:type
           rdf:resource="http://purl.org/dc/dcmitype/StillImage" />
        <dc:source />
        <cc:license
           rdf:resource="http://creativecommons.org/licenses/by-sa/4.0/" />
        <dc:date>2021</dc:date>
        <dc:creator>
          <cc:Agent>
            <dc:title>Timothée Giet</dc:title>
          </cc:Agent>
        </dc:creator>
        <dc:description>Derivative work based on https://upload.wikimedia.org/wikipedia/commons/3/3f/States_and_territories_of_Oceania.svg by Kaidor</dc:description>
      </cc:Work>
      <cc:License
         rdf:about="http://creativecommons.org/licenses/by-sa/4.0/">
        <cc:permits
           rdf:resource="http://creativecommons.org/ns#Reproduction" />
        <cc:permits
           rdf:resource="http://creativecommons.org/ns#Distribution" />
        <cc:requires
           rdf:resource="http://creativecommons.org/ns#Notice" />
        <cc:requires
           rdf:resource="http://creativecommons.org/ns#Attribution" />
        <cc:permits
           rdf:resource="http://creativecommons.org/ns#DerivativeWorks" />
        <cc:requires
           rdf:resource="http://creativecommons.org/ns#ShareAlike" />
      </cc:License>
    </rdf:RDF>
  </metadata>
  <g
     id="layer11"
     style="display:inline"
     transform="translate(-231.91135,-54.279547)">
    <g
       id="g3086"
       transform="matrix(1.15556,0,0,1.15556,-3.86685,-43.79)"
       style="stroke-width:0.865384">
      <path
         id="path3135-6"
         d="m 307.75781,85.326167 c -4.19192,1.089037 -1.29894,6.003886 1.27539,5.773437 0.93992,5.453415 9.06262,0.532248 4.38477,-2.759765 -3.34638,0.243142 -2.1304,-3.386948 -5.66016,-3.013672 z m -89.29297,4.361328 c -3.16122,0.08912 -4.30328,3.90076 -2.41601,5.929688 -1.00588,2.24382 -0.27815,5.525997 1.16797,7.507817 1.57144,2.67056 4.18952,4.0236 5.61523,6.99023 2.97324,1.14986 3.80467,5.37139 7.29492,4.78125 3.79457,2.49951 5.59877,-3.60762 2.65625,-4.97851 2.17644,-4.38751 -4.21493,-5.07647 -6.33984,-4.13672 -1.36214,-1.90669 -1.82622,-3.51684 -2.89648,-5.57813 -3.43978,-0.538319 0.766,-4.488392 -2.5918,-5.734375 1.25595,-1.912475 0.15215,-5.130829 -2.49024,-4.78125 z m 99.57227,4.560547 c -4.88629,0.512624 -2.54956,8.041728 1.95703,6.349618 3.57196,-1.334699 1.19485,-6.602413 -1.95703,-6.349618 z M 206.62305,103.9668 c -5.11377,1.13511 0.13999,8.58126 2.90234,4.03125 1.05019,-1.88693 -0.73137,-4.5034 -2.90234,-4.03125 z m 63.30468,6.46484 c -3.36162,0.42657 -2.02521,3.98765 -1.75585,5.83789 -4.87181,1.20465 -0.89826,7.65638 2.64062,5.06836 3.14285,0.93461 4.08157,-2.90193 5.42578,-4.73633 -0.50218,-3.16693 -3.14282,-5.72065 -6.31055,-6.16992 z m -8.03125,2.77734 c -3.29005,0.36361 -1.50819,3.83966 -3.625,5.17383 -2.04899,4.68355 6.8485,5.11746 5.05274,0.29688 2.0399,-1.37652 2.02524,-5.4129 -1.42774,-5.47071 z m 64.63672,1.30664 c -5.54733,0.49482 -0.92744,8.88861 2.4668,4.37891 1.23503,-1.80201 -0.22021,-4.57755 -2.4668,-4.37891 z m -3.55078,5.55274 c -4.62983,0.71396 -1.33947,7.78315 2.25781,4.90039 2.2205,-1.67468 0.45156,-5.47362 -2.25781,-4.90039 z m 19.49414,14.52148 c -5.70388,0.59688 -0.8828,9.11065 2.37696,4.40821 1.09187,-1.77107 -0.16256,-4.50387 -2.37696,-4.40821 z m -5.86523,5.20704 c -5.09044,1.15689 0.16581,8.65323 2.92578,4.05078 1.03087,-1.88877 -0.75124,-4.52599 -2.92578,-4.05078 z"
         style="display:inline;fill:#c1ddf3;fill-opacity:1;stroke:#2b22e5;stroke-width:0.865384;stroke-linecap:butt;stroke-linejoin:bevel;stroke-miterlimit:4;stroke-dasharray:none;stroke-opacity:1" />
      <path
         id="path34441-5"
         style="display:inline;opacity:1;fill:#ffffff;fill-opacity:1;fill-rule:evenodd;stroke:#2b22e5;stroke-width:0.865384;stroke-linejoin:round;stroke-miterlimit:4;stroke-dasharray:none;stroke-opacity:1"
         d="m 219.07245,98.939005 c -0.03,0.0693 0.0881,-0.0277 0,0 z m -0.15284,1.483755 c -0.0556,0.5233 -0.39379,0.75076 0.1032,0.0536 -0.2678,-0.21256 -0.29672,-0.14442 -0.1032,-0.0536 z m -0.49722,-7.121025 c 0.0361,-0.005 0.52291,-0.49661 -0.003,-0.003 z m 0.34934,-0.90214 c 0.13946,0.46782 0.0564,0.0811 0.005,0.007 z m -0.53592,5.0368 c -0.30795,-0.15212 -0.10894,0.0919 0,0 z m 0.60341,2.952615 c 0.007,0.0252 0.0451,-0.0335 0,0 z m 2.59225,2.0842 c -0.20514,-0.0833 0.0763,0.10813 0,0 z m 0.39699,0.263 c 0.0972,0.0341 0.0237,-0.0775 0,0 z m 0.0447,-0.41088 c -0.64167,-0.388 -0.33436,-0.16092 0,0 z m -2.23399,-5.278975 c 0.26775,0.0973 0.1532,0.0541 0,0 z m -0.64807,1.82417 c -0.062,0.0291 0.0703,0.0224 0,0 z m -0.27689,-0.35432 c -0.25915,-0.80472 0.17376,0.40971 0,0 z m 1.051,-1.49268 c -0.0723,-0.35864 -0.20256,0.0645 0,0 z m -1.07283,-4.39667 c 0.0665,-0.0867 -0.004,-0.092 0,0 z m 0.11507,7.752235 c -1.1e-4,-0.0495 -0.0352,0.0619 0,0 z m 3.151,2.23208 c -0.0323,-0.22556 -0.1368,-0.26805 0,0 z m -1.02717,0.57165 c -0.0401,0.0932 -0.0164,0.0436 0,0 z m -2.7987,-9.799695 c -0.92085,0.34407 1.01722,-0.25488 0,0 z m -0.27689,-0.14788 c -0.0435,-0.0745 -0.0647,-0.0513 0,0 z m 2.759,9.940635 c 0.2638,0.10906 0.0207,-0.1096 0,0 z m 1.33483,-0.55778 c -1.73451,2.29566 0.25438,-0.15568 0,0 z m -3.27108,-9.926725 c 0.1276,-0.11106 -0.13107,-0.004 0,0 z m -0.0337,0.22727 c -0.0107,-0.0557 -0.0452,-0.0255 0,0 z m 0.11014,7.972565 c 0.0363,-0.0265 -0.0284,-0.0348 0,0 z m 2.88998,1.72591 c -0.0397,-0.0399 -0.009,0.0517 0,0 z m -3.63134,-9.683585 c -0.0429,-0.0543 -0.67972,-0.40656 0,0 z m 1.19689,6.12358 c -0.082,0.0469 0.10987,0.0696 0,0 z m -0.0397,-0.0317 c -0.0628,0.0399 0.1068,0.0504 0,0 z m -0.17566,-0.16078 c -0.1228,0.0191 0.0625,0.0183 0,0 z m 9.82892,13.332115 c 0.27027,0.16486 -0.20376,-0.18498 0,0 z m 2.91082,0.56973 c -0.0716,-0.23183 -0.27792,-0.24185 0,0 z M 218.66123,99.267825 c -0.0927,-0.14992 -0.23745,-0.0517 0,0 z m 0.003,0.003 c 0.63863,-0.028 0.91307,-0.29202 0.11107,0.0277 l -0.0775,-0.005 -0.0336,-0.0228 z m 11.88549,9.231995 c -0.1276,-0.38777 -0.54982,-0.46794 0,0 z m -4.76372,0.41088 c -0.0179,0.0176 -0.0747,-0.0107 0,0 z m -2.07624,-2.47233 c 0.342,-0.0877 -0.96997,-1.24609 -0.0853,-0.47539 0.0373,0.014 0.18076,0.65082 0.0853,0.47539 z m -0.47637,-0.72648 c 0.022,-0.0487 -0.0592,-0.0263 0,0 z m -0.0277,-0.0188 c 0.005,-0.0663 -0.11267,-0.0775 0,0 z m -0.2511,-0.0893 c -0.0757,-0.10574 -0.024,-0.0308 0,0 z m 0.19354,0.0337 c -0.0188,-0.0344 -0.0901,0.0395 0,0 z m -0.0467,-0.0139 c -0.0507,-0.0147 -0.005,0.0568 0,0 z m -4.42239,-12.658065 c -0.0425,-0.0187 0.0481,0.11013 0,0 z m -0.36025,4.22299 c 0.0952,-0.0713 -0.009,-0.0644 0,0 z m 0.60141,0.50218 c -0.8061,-0.83097 0.076,-0.2649 -0.0884,0.30568 -0.27726,0.008 0.33944,-0.0299 0.0884,-0.30568 z m 0.18162,1.27732 c 0.1048,0.12027 0.0999,0.003 0,0 z m 0.0268,0.004 c 0.008,-0.0479 -0.0665,0.009 0,0 z m -0.0665,-0.0507 c -0.048,0.0591 0.0605,-0.0188 0,0 z m -11.95434,7.765125 c 0.21978,0.0764 -0.0697,-0.20442 0,0 z m 21.86846,1.67035 c -0.37604,-0.53031 -0.26976,-0.17241 0,0 z m -8.07153,-5.28295 c -0.0655,0.0447 -3.5e-4,0.0824 0,0 z m -0.72845,-0.0813 c -0.0727,0.28504 0.38172,-0.009 0,0 z m 4.65157,5.00208 c -0.19535,-0.38448 -0.84811,-0.79141 0,0 z m 0.24315,0.30767 c 0.0157,-0.0516 -0.0941,0.0241 0,0 z m -0.22727,-0.16476 c -0.0536,-0.20724 0.0297,-0.0713 0,0 z m 0.24812,0.18957 c 0.0385,0.0693 0.0267,-0.0219 0,0 z m 0.0775,0.0844 c 0.0457,-0.0569 -0.0381,-0.0315 0,0 z m 0.0456,0.0387 c -0.0152,-0.0591 -0.0887,0.012 0,0 z m 0.30369,0.13293 c -0.0571,-0.0331 -0.003,0.0443 0,0 z m -0.0317,-0.0199 c -0.0892,0.003 0.0471,0.0527 0,0 z m 0.0605,0.0268 c -0.0747,0.0441 -10e-4,0.0631 0,0 z m 0,0.0377 c 0.12827,0.0753 0.0295,-0.10387 0,0 z m 0.0635,0.0149 c 0.0641,0.1288 0.0708,-0.0255 0,0 z m 0.0873,0.0576 c -0.0107,-0.0143 -0.062,0.0217 0,0 z m 0.005,0.0179 c 0.0835,0.30208 0.18283,0.15949 0,0 z m -6.94932,-9.666925 c -0.0593,0.11173 0.13791,0.0775 0,0 z m 0.1112,-0.32554 c -0.009,-0.15973 -0.1455,-0.0375 0,0 z m 0.0665,0.0844 c -0.042,-0.0323 -0.11854,-0.1192 0,0 z m 1.24054,4.181205 c 0.004,-0.2135 -0.23026,-0.12306 0,0 z m 7.07256,7.08127 c 0.55104,0.76736 0.0957,-0.63933 0.0159,-0.0804 l -0.0476,0.0695 0.0319,0.0107 z m 45.10769,4.31376 c 0.11066,-0.35212 -0.18902,0.0136 0,0 z m 1.2247,1.92341 c -0.0155,0.0669 0.0631,0.012 0,0 z m -11.47526,-0.41386 c 0.009,0.0591 0.0439,-0.0304 0,0 z m 8.78806,-0.0199 c -0.007,-0.0615 -0.0411,0.014 0,0 z m 0.95574,2.96651 c 0.0999,-0.22963 -0.34174,0.0212 0,0 z m -3.03986,0.0953 c -0.24848,-0.17845 0.0309,0.18805 0,0 z m -0.11413,0.0992 c 0.17289,-0.0191 -0.0508,-0.0485 0,0 z m 1.61375,-5.90427 c -0.44658,-0.0781 0.67898,0.44338 -0.0871,0.13895 0.23527,0.25591 0.52253,0.15805 0.0871,-0.13895 z m -9.4836,6.4501 c -0.20874,-0.0612 0.0369,-0.0553 0,0 z m 7.71326,-0.5945 c 0.19902,0.22572 0.0399,0.0216 0,0 z m 74.0479,18.44219 c -0.03,-0.23174 -0.0155,-0.12066 0,0 z m -0.0277,-0.0456 c 0.0579,-0.003 -0.0213,-0.0887 0,0 z m -5.39096,5.17576 c -0.0188,-0.16437 -0.11854,-0.11213 0,0 z m 5.33537,-4.91672 c 0.0344,-0.0608 -0.0937,-0.0489 0,0 z m 0.0565,-0.1072 c -0.0137,-0.03 -0.0233,0.0593 0,0 z m -19.26331,-14.76104 c 0.31027,0.24903 0.49434,-0.14349 0,0 z M 308.43601,88.036835 c -0.30181,-0.2241 -0.13,0.1698 0,0 z m 3.26115,2.55662 c 0.0836,0.36507 -0.0107,0.11734 0,0 z m 0.0665,0.22231 c 0.42073,0.16389 0.52405,0.0761 0.0349,0.0268 z m 6.34172,6.31809 c 0.30168,-0.4964 0.0379,0.70731 -0.19212,0.28183 -0.16557,-0.11307 0.44899,0.54041 1.08463,0.68977 -0.0995,-0.20742 -0.35063,-0.97256 -0.81875,-1.19592 -0.17177,-0.0655 -0.17589,0.15006 -0.0737,0.22432 z m -5.97036,-6.3449 c -0.27736,-0.22383 -0.42728,-0.23612 0,0 z m 30.387,46.725735 c 0.0595,0.0237 -0.003,-0.13462 0,0 z m -15.71924,-20.28105 c -0.61166,-0.0945 0.0133,0.49528 0,0 z" />
    </g>
  </g>
</svg>
