<?xml version="1.0" encoding="UTF-8" standalone="no"?>
<!-- Created with Inkscape (http://www.inkscape.org/) -->

<svg
   width="30.452312"
   height="11.8918"
   viewBox="0 0 30.452312 11.8918"
   version="1.1"
   id="svg1059"
   xmlns="http://www.w3.org/2000/svg"
   xmlns:svg="http://www.w3.org/2000/svg"
   xmlns:rdf="http://www.w3.org/1999/02/22-rdf-syntax-ns#"
   xmlns:cc="http://creativecommons.org/ns#"
   xmlns:dc="http://purl.org/dc/elements/1.1/">
  <defs
     id="defs1053" />
  <metadata
     id="metadata1056">
    <rdf:RDF>
      <cc:Work
         rdf:about="">
        <dc:format>image/svg+xml</dc:format>
        <dc:type
           rdf:resource="http://purl.org/dc/dcmitype/StillImage" />
        <dc:source />
        <cc:license
           rdf:resource="http://creativecommons.org/licenses/by-sa/4.0/" />
        <dc:date>2021</dc:date>
        <dc:creator>
          <cc:Agent>
            <dc:title>Timothée Giet</dc:title>
          </cc:Agent>
        </dc:creator>
        <dc:description>Derivative work based on https://upload.wikimedia.org/wikipedia/commons/3/3f/States_and_territories_of_Oceania.svg by Kaidor</dc:description>
      </cc:Work>
      <cc:License
         rdf:about="http://creativecommons.org/licenses/by-sa/4.0/">
        <cc:permits
           rdf:resource="http://creativecommons.org/ns#Reproduction" />
        <cc:permits
           rdf:resource="http://creativecommons.org/ns#Distribution" />
        <cc:requires
           rdf:resource="http://creativecommons.org/ns#Notice" />
        <cc:requires
           rdf:resource="http://creativecommons.org/ns#Attribution" />
        <cc:permits
           rdf:resource="http://creativecommons.org/ns#DerivativeWorks" />
        <cc:requires
           rdf:resource="http://creativecommons.org/ns#ShareAlike" />
      </cc:License>
    </rdf:RDF>
  </metadata>
  <g
     id="layer8"
     style="display:inline"
     transform="translate(-464.265,-168.36098)">
    <g
       id="g3074"
       transform="matrix(1.15556,0,0,1.15556,-3.86685,-43.79)"
       style="stroke-width:0.865384">
      <path
         id="path3799-6"
         d="m 407.63281,184.07617 c -3.45076,0.70124 -2.05085,5.23004 0.0957,5.55078 -2.49618,4.47068 6.59547,5.46304 5.13281,0.57813 -0.56163,-2.12797 -3.66119,-1.35834 -2.35156,-3.86914 -0.1547,-1.36504 -1.46001,-2.57514 -2.87696,-2.25977 z m 8.31641,1.22461 c -5.48528,0.53566 -1.26158,9.3131 2.60351,5.21484 1.67795,-2.03654 0.0957,-5.39882 -2.60351,-5.21484 z m 11.74219,1.36328 c -5.58113,0.78744 -0.34647,9.04153 2.85742,4.39649 1.45879,-2.00945 -0.57627,-4.62679 -2.85742,-4.39649 z"
         style="display:inline;fill:#c1ddf3;fill-opacity:1;stroke:#15b02a;stroke-width:0.865384;stroke-linecap:butt;stroke-linejoin:bevel;stroke-miterlimit:4;stroke-dasharray:none;stroke-opacity:1" />
      <path
         id="path42975-1"
         style="display:inline;opacity:1;fill:#ffffff;fill-opacity:1;fill-rule:evenodd;stroke:#15b02a;stroke-width:0.865384;stroke-linejoin:round;stroke-miterlimit:4;stroke-dasharray:none;stroke-opacity:1"
         d="m 416.12902,188.50617 c 0.48558,0.1028 -0.24531,-0.61629 0,0 z m -8.10628,-1.76065 c 0.0844,-0.0587 -0.0673,0.0344 0,0 z m 2.13778,4.17736 c -0.15254,0.0853 0.21908,0.0776 0,0 z m 17.86998,-1.41825 c 0.0775,-2e-4 0.13653,-0.001 0,0 z" />
    </g>
  </g>
</svg>
