<?xml version="1.0" encoding="UTF-8" standalone="no"?>
<!-- Created with Inkscape (http://www.inkscape.org/) -->

<svg
   xmlns:dc="http://purl.org/dc/elements/1.1/"
   xmlns:cc="http://creativecommons.org/ns#"
   xmlns:rdf="http://www.w3.org/1999/02/22-rdf-syntax-ns#"
   xmlns:svg="http://www.w3.org/2000/svg"
   xmlns="http://www.w3.org/2000/svg"
   xmlns:sodipodi="http://sodipodi.sourceforge.net/DTD/sodipodi-0.dtd"
   xmlns:inkscape="http://www.inkscape.org/namespaces/inkscape"
   width="100"
   height="100"
   id="svg1949"
   sodipodi:version="0.32"
   inkscape:version="0.91 r13725"
   version="1.0"
   sodipodi:docname="memory-enumerate.svg"
   inkscape:output_extension="org.inkscape.output.svg.inkscape">
  <defs
     id="defs1951" />
  <sodipodi:namedview
     id="base"
     pagecolor="#ffffff"
     bordercolor="#666666"
     borderopacity="1.0"
     inkscape:pageopacity="0.0"
     inkscape:pageshadow="2"
     inkscape:zoom="3.0297884"
     inkscape:cx="49.447829"
     inkscape:cy="89.185415"
     inkscape:document-units="px"
     inkscape:current-layer="layer1"
     width="100px"
     height="100px"
     inkscape:window-width="1880"
     inkscape:window-height="1060"
     inkscape:window-x="-3"
     inkscape:window-y="-3"
     showgrid="false"
     inkscape:window-maximized="1" />
  <metadata
     id="metadata1954">
    <rdf:RDF>
      <cc:Work
         rdf:about="">
        <dc:format>image/svg+xml</dc:format>
        <dc:type
           rdf:resource="http://purl.org/dc/dcmitype/StillImage" />
        <dc:title></dc:title>
        <dc:date>2015</dc:date>
        <dc:creator>
          <cc:Agent>
            <dc:title>Timothée Giet</dc:title>
          </cc:Agent>
        </dc:creator>
        <cc:license
           rdf:resource="http://creativecommons.org/licenses/by-sa/4.0/" />
      </cc:Work>
      <cc:License
         rdf:about="http://creativecommons.org/licenses/by-sa/4.0/">
        <cc:permits
           rdf:resource="http://creativecommons.org/ns#Reproduction" />
        <cc:permits
           rdf:resource="http://creativecommons.org/ns#Distribution" />
        <cc:requires
           rdf:resource="http://creativecommons.org/ns#Notice" />
        <cc:requires
           rdf:resource="http://creativecommons.org/ns#Attribution" />
        <cc:permits
           rdf:resource="http://creativecommons.org/ns#DerivativeWorks" />
        <cc:requires
           rdf:resource="http://creativecommons.org/ns#ShareAlike" />
      </cc:License>
    </rdf:RDF>
  </metadata>
  <g
     inkscape:label="Calque 1"
     inkscape:groupmode="layer"
     id="layer1">
    <rect
       style="color:#000000;clip-rule:nonzero;display:inline;overflow:visible;visibility:visible;opacity:1;isolation:auto;mix-blend-mode:normal;color-interpolation:sRGB;color-interpolation-filters:linearRGB;solid-color:#000000;solid-opacity:1;fill:#315793;fill-opacity:1;fill-rule:nonzero;stroke:none;stroke-width:1.18700004;stroke-linecap:butt;stroke-linejoin:miter;stroke-miterlimit:4;stroke-dasharray:none;stroke-dashoffset:0;stroke-opacity:1;marker:none;color-rendering:auto;image-rendering:auto;shape-rendering:auto;text-rendering:auto;enable-background:accumulate"
       id="rect4232-3-6"
       width="45.734158"
       height="63.444962"
       x="51.724503"
       y="34.605618"
       ry="6.2731266" />
    <rect
       style="color:#000000;clip-rule:nonzero;display:inline;overflow:visible;visibility:visible;opacity:1;isolation:auto;mix-blend-mode:normal;color-interpolation:sRGB;color-interpolation-filters:linearRGB;solid-color:#000000;solid-opacity:1;fill:#3771c8;fill-opacity:1;fill-rule:nonzero;stroke:none;stroke-width:1.18700004;stroke-linecap:butt;stroke-linejoin:miter;stroke-miterlimit:4;stroke-dasharray:none;stroke-dashoffset:0;stroke-opacity:1;marker:none;color-rendering:auto;image-rendering:auto;shape-rendering:auto;text-rendering:auto;enable-background:accumulate"
       id="rect4232-7"
       width="42"
       height="60.410957"
       x="53.591583"
       y="36.12262"
       ry="5.9731393" />
    <rect
       style="color:#000000;clip-rule:nonzero;display:inline;overflow:visible;visibility:visible;opacity:1;isolation:auto;mix-blend-mode:normal;color-interpolation:sRGB;color-interpolation-filters:linearRGB;solid-color:#000000;solid-opacity:1;fill:#315793;fill-opacity:1;fill-rule:nonzero;stroke:none;stroke-width:1.18700004;stroke-linecap:butt;stroke-linejoin:miter;stroke-miterlimit:4;stroke-dasharray:none;stroke-dashoffset:0;stroke-opacity:1;marker:none;color-rendering:auto;image-rendering:auto;shape-rendering:auto;text-rendering:auto;enable-background:accumulate"
       id="rect4232-3"
       width="45.734158"
       height="63.444962"
       x="2.5413461"
       y="34.605618"
       ry="6.2731266" />
    <path
       style="fill:#7cdaea;fill-opacity:1;fill-rule:evenodd;stroke:none;stroke-width:1px;stroke-linecap:butt;stroke-linejoin:miter;stroke-opacity:1"
       d="m 59.565609,36.123048 c -3.309119,0 -5.974609,2.663537 -5.974609,5.972656 l 0,27.304687 42,0.447265 0,-27.751952 c 0,-3.309119 -2.663537,-5.972656 -5.972656,-5.972656 l -30.052735,0 z"
       id="path3426"
       inkscape:connector-curvature="0" />
    <path
       style="fill:#45c837;fill-opacity:1;fill-rule:evenodd;stroke:none;stroke-width:1px;stroke-linecap:butt;stroke-linejoin:miter;stroke-opacity:1"
       d="m 77.755063,65.515625 c -0.217035,-0.0027 -0.421947,0.0055 -0.613282,0.02734 -3.061353,0.349846 -5.822714,1.983966 -8.458984,2.376953 -2.63627,0.392987 -3.585318,-0.951434 -6.851562,-1.181641 -2.573405,-0.181376 -6.404191,-0.05926 -8.240235,0.0078 l 0,23.814453 c 0,3.309119 2.66549,5.972656 5.974609,5.972656 l 30.052735,0 c 3.309119,0 5.972656,-2.663537 5.972656,-5.972656 l 0,-23.59375 c -2.217175,0.219121 -4.455621,1.15367 -6.382812,1.208984 -2.262958,0.01179 -8.197601,-2.619518 -11.453125,-2.660156 z"
       id="path3442"
       inkscape:connector-curvature="0" />
    <path
       style="fill:#3dae31;fill-opacity:1;fill-rule:evenodd;stroke:none;stroke-width:1px;stroke-linecap:butt;stroke-linejoin:miter;stroke-opacity:1"
       d="m 53.920355,69.510693 c 0,0 -0.946446,-1.132648 1.70403,-1.023406 2.331987,0.09611 2.571991,0.690674 1.743276,1.061139 -1.121627,0.501407 -2.837159,0.45582 -3.447306,-0.03773 z"
       id="path2808"
       sodipodi:nodetypes="cssc"
       inkscape:connector-curvature="0" />
    <path
       style="fill:#3dae31;fill-opacity:1;fill-rule:evenodd;stroke:none;stroke-width:1px;stroke-linecap:butt;stroke-linejoin:miter;stroke-opacity:1"
       d="m 63.408127,93.836167 c 0,0 -0.324999,-5.46752 6.693886,-4.897044 6.175477,0.501921 6.811044,3.606774 4.616474,5.54139 -2.970247,2.618421 -9.694594,1.933049 -11.31036,-0.644346 z"
       id="path2790"
       sodipodi:nodetypes="cssc"
       inkscape:connector-curvature="0" />
    <path
       style="fill:#3dae31;fill-opacity:1;fill-rule:evenodd;stroke:none;stroke-width:1px;stroke-linecap:butt;stroke-linejoin:miter;stroke-opacity:1"
       d="m 55.85994,72.334876 c 0,0 -0.161004,-2.145506 3.31611,-1.921647 3.059293,0.196958 3.374149,1.415333 2.286972,2.174494 -1.471442,1.02749 -4.802642,0.758545 -5.603082,-0.252847 z"
       id="path2766"
       sodipodi:nodetypes="cssc"
       inkscape:connector-curvature="0" />
    <path
       style="fill:#3dae31;fill-opacity:1;fill-rule:evenodd;stroke:none;stroke-width:1px;stroke-linecap:butt;stroke-linejoin:miter;stroke-opacity:1"
       d="m 63.178188,75.652296 c 0,0 -0.152059,-1.634424 3.131868,-1.463892 2.889319,0.150041 3.186683,1.078187 2.159909,1.656508 -1.389689,0.782733 -4.53581,0.577851 -5.291777,-0.192616 z"
       id="path2768"
       sodipodi:nodetypes="cssc"
       inkscape:connector-curvature="0" />
    <path
       style="fill:#3dae31;fill-opacity:1;fill-rule:evenodd;stroke:none;stroke-width:1px;stroke-linecap:butt;stroke-linejoin:miter;stroke-opacity:1"
       d="m 79.301409,76.903607 c 0,0 -0.161003,-2.145506 3.316111,-1.921647 3.059295,0.196959 3.374151,1.415333 2.286973,2.174495 -1.471441,1.027489 -4.802643,0.758543 -5.603084,-0.252848 z"
       id="path2770"
       sodipodi:nodetypes="cssc"
       inkscape:connector-curvature="0" />
    <path
       style="fill:#3dae31;fill-opacity:1;fill-rule:evenodd;stroke:none;stroke-width:1px;stroke-linecap:butt;stroke-linejoin:miter;stroke-opacity:1"
       d="m 64.207389,80.851894 c 0,0 -0.161002,-2.145506 3.31611,-1.921647 3.059295,0.196959 3.374151,1.415333 2.286973,2.174494 -1.471441,1.02749 -4.802642,0.758545 -5.603083,-0.252847 z"
       id="path2772"
       sodipodi:nodetypes="cssc"
       inkscape:connector-curvature="0" />
    <path
       style="fill:#3dae31;fill-opacity:1;fill-rule:evenodd;stroke:none;stroke-width:1px;stroke-linecap:butt;stroke-linejoin:miter;stroke-opacity:1"
       d="m 87.763211,75.324292 c 0,0 -0.161002,-2.145505 3.31611,-1.921646 3.059296,0.196958 3.37415,1.415333 2.286974,2.174494 -1.471443,1.02749 -4.802645,0.758545 -5.603084,-0.252848 z"
       id="path2774"
       sodipodi:nodetypes="cssc"
       inkscape:connector-curvature="0" />
    <path
       style="fill:#3dae31;fill-opacity:1;fill-rule:evenodd;stroke:none;stroke-width:1px;stroke-linecap:butt;stroke-linejoin:miter;stroke-opacity:1"
       d="m 54.316511,79.344614 c 0,0 -0.199765,-2.912123 4.114494,-2.608276 3.795846,0.267333 4.186506,1.921049 2.837582,2.951469 -1.825705,1.394627 -5.958922,1.029583 -6.952076,-0.343193 z"
       id="path2780"
       sodipodi:nodetypes="cssc"
       inkscape:connector-curvature="0" />
    <path
       style="fill:#3dae31;fill-opacity:1;fill-rule:evenodd;stroke:none;stroke-width:1px;stroke-linecap:butt;stroke-linejoin:miter;stroke-opacity:1"
       d="m 85.648037,81.939199 c 0,0 -0.199764,-2.912123 4.114499,-2.608274 3.795846,0.267335 4.186507,1.921047 2.837576,2.951468 -1.825702,1.394627 -5.958923,1.029583 -6.952075,-0.343194 z"
       id="path2782"
       sodipodi:nodetypes="cssc"
       inkscape:connector-curvature="0" />
    <path
       style="fill:#3dae31;fill-opacity:1;fill-rule:evenodd;stroke:none;stroke-width:1px;stroke-linecap:butt;stroke-linejoin:miter;stroke-opacity:1"
       d="m 66.666163,85.549061 c 0,0 -0.199765,-2.912123 4.114495,-2.608276 3.795845,0.267336 4.186505,1.921048 2.837581,2.951469 -1.825705,1.394627 -5.958921,1.029583 -6.952076,-0.343193 z"
       id="path2784"
       sodipodi:nodetypes="cssc"
       inkscape:connector-curvature="0" />
    <path
       style="fill:#3dae31;fill-opacity:1;fill-rule:evenodd;stroke:none;stroke-width:1px;stroke-linecap:butt;stroke-linejoin:miter;stroke-opacity:1"
       d="m 75.127962,81.826393 c 0,0 -0.199765,-2.912123 4.114493,-2.608275 3.79585,0.267332 4.186508,1.921048 2.837582,2.951468 -1.825705,1.394627 -5.958923,1.029584 -6.952075,-0.343193 z"
       id="path2786"
       sodipodi:nodetypes="cssc"
       inkscape:connector-curvature="0" />
    <path
       style="fill:#3dae31;fill-opacity:1;fill-rule:evenodd;stroke:none;stroke-width:1px;stroke-linecap:butt;stroke-linejoin:miter;stroke-opacity:1"
       d="m 78.044496,91.231155 c 0,0 -0.28922,-4.956442 5.956917,-4.43929 5.495577,0.455003 6.061175,3.269631 4.108216,5.023405 -2.643233,2.373664 -8.627258,1.752359 -10.065133,-0.584115 z"
       id="path2792"
       sodipodi:nodetypes="cssc"
       inkscape:connector-curvature="0" />
    <path
       style="fill:#3dae31;fill-opacity:1;fill-rule:evenodd;stroke:none;stroke-width:1px;stroke-linecap:butt;stroke-linejoin:miter;stroke-opacity:1"
       d="m 70.039491,77.149756 c 0,0 -0.205729,-2.230681 4.237323,-1.997936 3.909162,0.204778 4.311483,1.47152 2.922291,2.260821 -1.880209,1.068284 -6.136812,0.78866 -7.159614,-0.262885 z"
       id="path2794"
       sodipodi:nodetypes="cssc"
       inkscape:connector-curvature="0" />
    <path
       style="fill:#3dae31;fill-opacity:1;fill-rule:evenodd;stroke:none;stroke-width:1px;stroke-linecap:butt;stroke-linejoin:miter;stroke-opacity:1"
       d="m 77.300242,72.380858 c 0,0 -0.152057,-1.634425 3.13187,-1.463892 2.889321,0.150041 3.186685,1.078187 2.15991,1.656508 -1.389691,0.782733 -4.535811,0.577852 -5.29178,-0.192616 z"
       id="path2798"
       sodipodi:nodetypes="cssc"
       inkscape:connector-curvature="0" />
    <path
       style="fill:#3dae31;fill-opacity:1;fill-rule:evenodd;stroke:none;stroke-width:1px;stroke-linecap:butt;stroke-linejoin:miter;stroke-opacity:1"
       d="m 68.723861,72.488455 c 0,0 -0.119259,-1.378885 2.456312,-1.235015 2.266083,0.126582 2.499304,0.909615 1.694009,1.397516 -1.089928,0.660353 -3.557418,0.487506 -4.150321,-0.162501 z"
       id="path2800"
       sodipodi:nodetypes="cssc"
       inkscape:connector-curvature="0" />
    <path
       style="fill:#3dae31;fill-opacity:1;fill-rule:evenodd;stroke:none;stroke-width:1px;stroke-linecap:butt;stroke-linejoin:miter;stroke-opacity:1"
       d="m 73.58372,70.432157 c 0,0 -0.125222,-1.038165 2.579141,-0.929846 2.3794,0.0953 2.624283,0.684851 1.778719,1.052194 -1.144431,0.49718 -3.735308,0.367043 -4.35786,-0.122348 z"
       id="path2802"
       sodipodi:nodetypes="cssc"
       inkscape:connector-curvature="0" />
    <path
       style="fill:#3dae31;fill-opacity:1;fill-rule:evenodd;stroke:none;stroke-width:1px;stroke-linecap:butt;stroke-linejoin:miter;stroke-opacity:1"
       d="m 63.406649,70.514311 c 0,0 -0.119258,-1.378886 2.456313,-1.235016 2.266083,0.126581 2.499303,0.909615 1.694009,1.397517 -1.089929,0.660353 -3.557419,0.487505 -4.150322,-0.162501 z"
       id="path2804"
       sodipodi:nodetypes="cssc"
       inkscape:connector-curvature="0" />
    <path
       style="fill:#3dae31;fill-opacity:1;fill-rule:evenodd;stroke:none;stroke-width:1px;stroke-linecap:butt;stroke-linejoin:miter;stroke-opacity:1"
       d="m 84.218102,70.965543 c 0,0 -0.119257,-1.378886 2.456313,-1.235015 2.266085,0.126581 2.499307,0.909615 1.694008,1.397516 -1.089929,0.660353 -3.557417,0.487506 -4.150321,-0.162501 z"
       id="path2806"
       sodipodi:nodetypes="cssc"
       inkscape:connector-curvature="0" />
    <rect
       style="color:#000000;clip-rule:nonzero;display:inline;overflow:visible;visibility:visible;opacity:1;isolation:auto;mix-blend-mode:normal;color-interpolation:sRGB;color-interpolation-filters:linearRGB;solid-color:#000000;solid-opacity:1;fill:#3771c8;fill-opacity:1;fill-rule:nonzero;stroke:none;stroke-width:1.18700004;stroke-linecap:butt;stroke-linejoin:miter;stroke-miterlimit:4;stroke-dasharray:none;stroke-dashoffset:0;stroke-opacity:1;marker:none;color-rendering:auto;image-rendering:auto;shape-rendering:auto;text-rendering:auto;enable-background:accumulate"
       id="rect4232"
       width="42"
       height="60.410957"
       x="4.4084249"
       y="36.12262"
       ry="5.9731393" />
    <path
       style="color:#000000;clip-rule:nonzero;display:inline;overflow:visible;visibility:visible;opacity:1;isolation:auto;mix-blend-mode:normal;color-interpolation:sRGB;color-interpolation-filters:linearRGB;solid-color:#000000;solid-opacity:1;fill:#ebf1fa;fill-opacity:1;fill-rule:nonzero;stroke:none;stroke-width:1.18700004;stroke-linecap:butt;stroke-linejoin:miter;stroke-miterlimit:4;stroke-dasharray:none;stroke-dashoffset:0;stroke-opacity:1;marker:none;color-rendering:auto;image-rendering:auto;shape-rendering:auto;text-rendering:auto;enable-background:accumulate"
       id="path4189-3-6"
       sodipodi:type="arc"
       sodipodi:cx="25.408415"
       sodipodi:cy="66.32811"
       sodipodi:rx="17.540121"
       sodipodi:ry="17.540121"
       sodipodi:start="0.14344896"
       sodipodi:end="0.14048923"
       sodipodi:open="true"
       d="M 42.768378,68.835601 A 17.540121,17.540121 0 0 1 22.913769,83.689924 17.540121,17.540121 0 0 1 8.0447596,63.846311 17.540121,17.540121 0 0 1 27.877365,48.962623 17.540121,17.540121 0 0 1 42.775724,68.78421" />
    <path
       style="fill:#6f79b9;fill-opacity:1;fill-rule:evenodd;stroke:none;stroke-width:1px;stroke-linecap:butt;stroke-linejoin:miter;stroke-opacity:1"
       d="M 31.977757,59.88952 27.5763,64.159588 c 0,0 -3.710051,-0.788813 -3.744519,2.364954 -0.04532,4.146096 4.506057,3.20884 4.072986,2.627743 -0.131503,-0.176452 -1.821555,-1.299375 -2.430653,-2.233586 -0.41801,-0.641117 5.277365,-2.62773 8.145974,-3.613129 0,0 2.709247,10.609555 -5.321159,12.284659 -11.473784,2.39337 -14.727473,-10.098637 -8.55656,-16.201622 2.903887,-2.871917 7.636852,-3.604922 12.235388,0.500913 z"
       id="path4187"
       inkscape:connector-curvature="0"
       sodipodi:nodetypes="ccssscssc" />
    <path
       style="color:#000000;clip-rule:nonzero;display:inline;overflow:visible;visibility:visible;opacity:1;isolation:auto;mix-blend-mode:normal;color-interpolation:sRGB;color-interpolation-filters:linearRGB;solid-color:#000000;solid-opacity:1;fill:#ead952;fill-opacity:1;fill-rule:nonzero;stroke:none;stroke-width:1.18700004;stroke-linecap:butt;stroke-linejoin:miter;stroke-miterlimit:4;stroke-dasharray:none;stroke-dashoffset:0;stroke-opacity:1;marker:none;color-rendering:auto;image-rendering:auto;shape-rendering:auto;text-rendering:auto;enable-background:accumulate"
       d="M 24.954129,50.56827 A 15.766404,15.766404 0 0 0 9.800605,64.097034 15.766404,15.766404 0 0 0 23.166137,81.934277 15.766404,15.766404 0 0 0 41.012614,68.582004 l 0.007,-0.0462 A 15.766404,15.766404 0 0 0 27.627468,50.718807 15.766404,15.766404 0 0 0 24.954129,50.56827 Z m 0.109581,3.808425 a 11.956188,11.956188 0 0 1 2.027931,0.1142 11.956188,11.956188 0 0 1 10.155224,13.511457 l -0.0053,0.03518 A 11.956188,11.956188 0 0 1 23.707667,78.162755 11.956188,11.956188 0 0 1 13.572631,64.636301 11.956188,11.956188 0 0 1 25.063658,54.376682 Z"
       id="path4189"
       inkscape:connector-curvature="0" />
    <g
       id="g4248"
       transform="translate(2,56)">
      <path
         id="path3690"
         d="m 77.63282,-32.385467 c -0.648863,-0.590783 -1.751558,-1.266195 -2.500776,-0.442791 -2.006767,1.670977 -3.440791,3.891368 -5.077206,5.90096 -0.494827,-0.400847 -1.105413,-0.62785 -1.672286,-0.87997 1.166302,-2.57977 2.577251,-5.361973 2.082306,-8.26343 -0.412334,-1.402476 -2.009452,-1.882569 -3.327007,-1.75818 -0.86932,-0.09848 -2.185143,0.501753 -1.787798,1.566294 0.273941,0.822002 1.051512,1.328968 1.76344,1.740684 -0.627528,2.27339 -1.08715,4.695397 -1.817855,6.877458 -0.409404,0.157564 -0.789646,0.385194 -1.140255,0.647235 -1.63583,-3.801126 -5.299956,-6.190866 -8.595837,-8.467081 -2.066901,-1.302374 -4.853086,-2.468297 -7.184813,-1.15528 -2.393673,1.48039 -2.988425,4.502079 -3.331472,7.078345 -0.557985,4.484027 -0.09961,9.009965 0.169495,13.510746 -3.841037,2.790226 -8.120441,5.351223 -10.712966,9.4512163 -1.32862,2.7465292 -4.157821,4.5635977 -5.092324,7.52213203 -0.157815,0.90022557 1.132063,1.24012567 1.6333,0.58811067 1.297202,-0.83832023 2.089102,-2.48958996 3.647688,-2.8578816 2.113638,2.06309451 5.217681,2.570628 8.003773,3.1616996 2.622556,0.4125565 5.416253,0.1196685 7.73354,-1.23654559 -0.353096,1.08331109 -0.546418,2.81210489 0.741341,3.34686659 1.271365,0.3838313 2.361375,-0.6920894 3.250545,-1.4415366 -0.03177,4.316204 2.826733,8.0103276 5.862167,10.8338736 0.85963,0.769178 1.824218,1.453854 2.91513,1.835482 0.380009,1.812657 -1.245645,3.409603 -0.936537,5.218955 0.214576,0.774815 1.233041,0.633386 1.606525,0.06547 1.096163,-1.235336 1.639274,-2.834261 2.369108,-4.286857 0.502119,-1.406489 1.288617,-2.666038 2.110289,-3.901472 2.13072,-4.0158183 2.520802,-8.5971222 3.235873,-13.00618308 0.367274,-0.67828502 1.324131,-0.51672622 1.895923,-0.96622922 4.87623,-2.0865041 10.062044,-4.0568906 13.742077,-8.0013215 1.373099,-1.5646862 1.984217,-4.0298332 0.724451,-5.8305682 -1.905176,-3.01883 -5.464262,-4.360246 -8.550239,-5.841091 -2.301572,-1.033317 -4.987751,-1.607632 -7.407681,-1.290699 0.05267,-0.64178 -0.03956,-1.293001 -0.24942,-1.90966 1.60832,-1.444912 3.142342,-3.22359 4.788283,-4.461742 0.952453,0.733034 2.834832,0.726507 3.191592,-0.621797 0.04695,-1.269341 -1.246978,-1.993668 -2.082374,-2.725213 z"
         style="fill:#923fa5;fill-opacity:1;fill-rule:evenodd;stroke:none;stroke-width:1px;stroke-linecap:butt;stroke-linejoin:miter;stroke-opacity:1"
         inkscape:connector-curvature="0" />
      <path
         sodipodi:nodetypes="cccccccscccccccccccccccccccccccccccccssssccssssccsscccsscccssssccssssc"
         id="path3692"
         d="m 76.359661,-31.871856 c -0.565647,0.09851 -0.905449,0.820052 -1.328933,1.324453 0.462499,-0.443077 0.967211,-0.899404 1.328933,-1.324453 z m -1.328933,1.324453 c -0.116282,0.111398 -0.230946,0.219107 -0.338763,0.32861 0.121094,-0.08502 0.232865,-0.202478 0.338763,-0.32861 z m -6.229295,-5.840698 c -0.02593,-0.02044 -0.05024,-0.03798 -0.08081,-0.05496 -0.894699,-0.494268 0.253976,0.400404 0.25463,0.289422 -0.03537,-0.09483 -0.09605,-0.173142 -0.173815,-0.234463 z m 16.738005,19.825133 c -0.180642,-0.14815 -0.368236,-0.27708 -0.566926,-0.397178 -3.097834,-2.290236 -6.77159,-4.032763 -10.607434,-4.582587 -1.740705,-0.119644 -3.361696,0.475433 -4.93512,1.15543 1.009157,-1.718094 1.723851,-4.424428 -0.289601,-5.723916 -1.677195,-1.52506 -4.250814,-0.396132 -4.814844,1.678027 -0.76515,2.494958 -1.621101,-0.04063 -1.35189,-1.484647 -1.209171,-4.648906 -5.544865,-6.907282 -9.349196,-9.325094 -1.654362,-0.972783 -4.528041,-1.231447 -5.369248,0.959005 -2.283587,4.773536 -1.342765,10.330245 -1.192539,15.443404 -0.104313,1.356606 0.834303,3.230141 -0.841339,3.866839 -4.095593,2.862491 -8.522201,5.6460749 -10.876543,10.2109778 -0.216411,0.4493889 -1.378466,1.3380559 -0.30594,0.9854927 1.049186,0.040897 1.653809,1.5227697 2.798291,1.8071331 2.830327,1.13040883 5.996142,1.96288437 9.014009,1.53228797 2.328735,-0.36241996 4.194725,-1.90856937 5.971925,-3.28113867 1.525368,0.1592283 0.248255,2.0505363 -0.03284,2.81332675 -0.244238,0.77247741 -0.668179,1.75828301 -0.618582,2.48085315 2.211664,-1.23375787 3.323503,-3.7424677 5.261038,-5.3427579 -1.311998,3.84213216 -1.684482,8.5598762 1.217199,11.8003363 1.602078,2.1408458 3.43393,4.5062948 6.165469,5.1239808 0.285473,0.842736 0.391332,1.234452 0.761116,0.133007 1.290981,-2.242793 2.683706,-4.4808379 3.129378,-7.0830856 0.731447,-2.9247113 1.033546,-5.93824156 1.536417,-8.9075401 5.739648,-2.6883904 12.429566,-4.3899853 16.483292,-9.5775573 0.828821,-1.569509 0.07841,-3.247538 -1.186094,-4.284599 z m -3.733232,0.138874 c 0.231865,0.204503 0.444476,0.460007 0.634002,0.761527 2.557717,4.069132 -1.928779,8.6479793 -5.917656,6.4065605 -3.988876,-2.2414225 -2.494952,-5.1630375 -0.95575,-6.8783535 -10e-7,1e-6 3.718346,-2.102049 6.001357,-0.473906 0.08152,0.05816 0.160746,0.116021 0.238063,0.184153 z M 57.364952,-30.680139 c 0.231865,0.204503 0.444474,0.460006 0.634002,0.761525 2.557716,4.069134 -1.921944,8.653598 -5.91082,6.41218 -3.988875,-2.241419 -2.494951,-5.163038 -0.955752,-6.878353 0,0 3.71151,-2.107666 5.994522,-0.479524 0.08152,0.05816 0.160745,0.11602 0.238063,0.184153 z m 14.050571,20.308054 c 0.18476,0.131762 0.348765,0.302514 0.491932,0.5302459 1.448932,2.3051371 -1.09386,4.9045536 -3.353533,3.6348039 -2.259677,-1.2697493 -1.410773,-2.929852 -0.538825,-3.9015668 0,0 2.107116,-1.185818 3.400426,-0.263483 z m -16.808032,-9.87287 c 0.131937,0.115492 0.255895,0.265154 0.363265,0.435958 1.448933,2.305138 -1.088242,4.897717 -3.347916,3.627969 -2.259675,-1.269753 -1.41639,-2.923017 -0.544442,-3.89473 0,0 2.253446,-1.285335 3.529095,-0.169199 z M 66.199126,1.9821606 c 0.07355,0.053549 0.141536,0.1126029 0.211922,0.1741554 0.232955,0.2038083 0.443253,0.4475534 0.632782,0.7490714 2.557719,4.0691344 -1.927557,8.6604366 -5.916435,6.4190152 -3.988875,-2.241422 -2.494953,-5.1630403 -0.955753,-6.8783545 -2e-6,2.1e-6 3.746346,-2.12258017 6.027484,-0.4638875 z M 47.848904,-10.73856 c 0.07355,0.05355 0.141535,0.112602 0.21192,0.174154 0.232956,0.203809 0.444475,0.460007 0.634002,0.7615257 2.557716,4.069131 -1.928778,8.6479809 -5.917657,6.4065612 -3.988872,-2.2414222 -2.494949,-5.1630376 -0.95575,-6.8783559 0,0 3.746347,-2.12258 6.027485,-0.463885 z"
         style="fill:#cd87de;fill-opacity:1;fill-rule:evenodd;stroke:none;stroke-width:1px;stroke-linecap:butt;stroke-linejoin:miter;stroke-opacity:1"
         inkscape:connector-curvature="0" />
      <path
         sodipodi:nodetypes="ccccccccc"
         id="path3694"
         d="m 69.827555,-26.146323 c -2.514764,-2.100929 -6.246422,-0.522867 -7.738635,2.058333 -2.033893,2.704188 -3.365695,5.955076 -3.710055,9.308769 -4.097506,2.395751 -5.771351,7.2741826 -7.065587,11.5775288 -0.770251,3.00855462 -1.053805,6.1021227 -1.136158,9.2036197 4.906358,-4.5864966 10.89604,-8.6706458 13.537328,-15.0793423 0.473253,-1.0691532 -0.214218,-2.5300232 1.227952,-2.9993892 3.088659,-2.695323 6.02901,-6.199415 6.573676,-10.368433 0.05702,-1.419396 -0.498051,-2.87352 -1.688521,-3.701086 z"
         style="fill:#cd631b;fill-opacity:1;fill-rule:evenodd;stroke:none;stroke-width:1px;stroke-linecap:butt;stroke-linejoin:miter;stroke-opacity:1"
         inkscape:connector-curvature="0" />
      <path
         sodipodi:nodetypes="cccccccccczccc"
         id="path3696"
         d="m 76.436281,-31.848654 c -0.707095,0.123149 -1.062338,1.22804 -1.667697,1.653063 0.536667,-0.545027 1.215031,-1.121147 1.667697,-1.653063 z m -7.639043,-4.571204 c -0.8947,-0.494268 0.253976,0.400404 0.254629,0.289422 -0.04715,-0.126435 -0.132316,-0.221485 -0.254629,-0.289422 z m -0.09768,3.435756 c 0.132795,-0.447641 0.303315,-1.228102 0.06032,-0.237616 l -0.06033,0.237613 z m -5.548882,20.354232 c 1.710594,-0.364215 11.622772,-10.533714 5.97518,-13.662607 -5.662782,-3.137308 -10.195836,10.784396 -8.961073,11.615724 -3.152653,0.118645 -7.811153,8.186886 -8.242759,17.3028615 7.250773,-6.222452 12.417909,-11.7814945 11.228652,-15.2559785 z"
         style="fill:#f6cd51;fill-opacity:1;fill-rule:evenodd;stroke:none;stroke-width:1px;stroke-linecap:butt;stroke-linejoin:miter;stroke-opacity:1"
         inkscape:connector-curvature="0" />
      <path
         id="path3698"
         d="m 80.989767,-16.090766 c -2.350311,-1.171253 -6.231559,0.606767 -5.624498,3.555199 0.857735,2.6571341 5.136856,3.2776753 6.429189,0.622118 0.787279,-1.32101 0.466889,-3.25976 -0.804691,-4.177317 z M 56.536059,-30.34559 c -2.350874,-1.181587 -6.209625,0.633002 -5.605209,3.559597 0.828649,2.641779 5.121401,3.270232 6.412336,0.642628 0.789499,-1.33676 0.500703,-3.275465 -0.807127,-4.202225 z m 14.335254,20.519094 c -1.238259,-0.726776 -3.471606,1.0869093 -1.894175,2.1655717 1.578178,1.0445445 3.271285,-0.9353962 1.894175,-2.1655717 z m -16.924247,-9.968371 c -1.309741,-0.776116 -3.565897,1.216657 -1.781609,2.223716 1.516449,0.878657 3.113106,-0.991664 1.781609,-2.223716 z M 65.654917,2.5277493 c -2.324567,-1.2362207 -6.219231,0.5084503 -5.698954,3.4367496 0.73627,2.6667545 4.994185,3.3613605 6.373958,0.8286919 0.836219,-1.3203257 0.602598,-3.290323 -0.675004,-4.2654415 z M 47.304694,-10.19297 c -2.324566,-1.236222 -6.219229,0.5084514 -5.698953,3.4367479 0.735872,2.6905661 5.117407,3.3807763 6.416463,0.7490965 0.81332,-1.3159693 0.505976,-3.2285111 -0.71751,-4.1858444 z"
         style="fill:#f47fae;fill-opacity:1;fill-rule:evenodd;stroke:none;stroke-width:1px;stroke-linecap:butt;stroke-linejoin:miter;stroke-opacity:1"
         inkscape:connector-curvature="0" />
      <path
         sodipodi:nodetypes="cccccccccccccccccccccccccccccccccccc"
         id="path3700"
         d="m 69.828846,-25.768877 c -0.198778,-0.175899 -0.436486,-0.337957 -0.701208,-0.484631 -1.808131,-1.001745 -3.501025,-0.265058 -4.927812,1.230153 2.348234,0.689393 5.015266,1.359404 6.140569,3.969682 0.726072,-1.835396 0.785811,-3.56748 -0.511549,-4.715204 z m -0.381362,6.51251 c -0.508454,-2.04728 -3.303543,-3.333043 -6.466266,-4.214431 -0.29321,0.437208 -0.570895,0.8947 -0.827864,1.369739 2.992848,-0.628445 4.973222,1.502242 6.464577,4.132871 0.296734,-0.422618 0.573833,-0.853467 0.829553,-1.288179 z m -2.073813,2.89982 c -1.385347,-2.99003 -3.303278,-4.999911 -6.067061,-3.989445 -0.283215,0.663216 -0.52884,1.323251 -0.727622,1.944586 1.783312,2.564217 3.699816,2.963729 5.467915,3.519979 0.436945,-0.448598 0.884064,-0.945527 1.326768,-1.47512 z m -2.865727,2.901847 c -1.484171,0.05216 -3.018354,-1.049752 -4.445131,-2.897072 -0.154684,0.909485 -0.132135,1.552886 0.104635,1.712295 -0.746504,0.02809 -1.576091,0.508538 -2.415345,1.33643 1.844784,0.503036 3.758631,1.296108 5.268923,3.413713 0.343184,-0.997435 0.404589,-1.901513 0.1322,-2.697312 0.27342,-0.05822 0.759257,-0.377612 1.354718,-0.868054 z m -2.370554,5.3931962 c -1.607311,-2.1494462 -3.53885,-3.6578092 -5.679836,-3.6941342 -0.287043,0.405322 -0.568761,0.845812 -0.845186,1.321139 2.143588,0.6000538 4.434043,1.3907233 5.687417,3.6431002 0.313351,-0.4340234 0.592343,-0.8582953 0.837605,-1.270105 z m -2.101156,2.8773465 c -1.080379,-1.8474526 -3.531509,-2.4800529 -5.334101,-3.5016365 -0.277798,0.5908174 -0.542455,1.2157958 -0.791585,1.8691169 1.381528,1.1183324 1.497711,3.3004067 4.811375,3.1064214 0.469263,-0.5015789 0.906983,-0.9924449 1.314311,-1.4739018 z m -2.765619,2.9612068 c -1.562846,0.4031284 -2.823034,-1.2004211 -4.035435,-2.6291058 -0.6997,2.3044283 -1.182502,4.86315455 -1.308043,7.5147186 1.966298,-1.68743107 3.76886,-3.32410014 5.343478,-4.8856128 z"
         style="fill:#ec823a;fill-opacity:1;fill-rule:evenodd;stroke:none;stroke-width:1px;stroke-linecap:butt;stroke-linejoin:miter;stroke-opacity:1"
         inkscape:connector-curvature="0" />
    </g>
  </g>
</svg>
