<?xml version="1.0" encoding="UTF-8" standalone="no"?>
<!-- Created with Sodipodi ("http://www.sodipodi.com/") -->

<svg
   xmlns:dc="http://purl.org/dc/elements/1.1/"
   xmlns:cc="http://creativecommons.org/ns#"
   xmlns:rdf="http://www.w3.org/1999/02/22-rdf-syntax-ns#"
   xmlns:svg="http://www.w3.org/2000/svg"
   xmlns="http://www.w3.org/2000/svg"
   xmlns:xlink="http://www.w3.org/1999/xlink"
   xmlns:sodipodi="http://sodipodi.sourceforge.net/DTD/sodipodi-0.dtd"
   xmlns:inkscape="http://www.inkscape.org/namespaces/inkscape"
   id="svg884"
   sodipodi:version="0.34"
   width="120"
   height="144.13936"
   xml:space="preserve"
   sodipodi:docname="confiture.svgz"
   version="1.1"
   inkscape:version="0.48.4 r9939"><metadata
     id="metadata3419"><rdf:RDF><cc:Work
         rdf:about=""><dc:format>image/svg+xml</dc:format><dc:type
           rdf:resource="http://purl.org/dc/dcmitype/StillImage" /></cc:Work></rdf:RDF></metadata><defs
     id="defs886"><linearGradient
       id="linearGradient1045"><stop
         style="stop-color:#ff5aff;stop-opacity:1;"
         offset="0"
         id="stop1046" /><stop
         style="stop-color:#330030;stop-opacity:1;"
         offset="1"
         id="stop1047" /></linearGradient><linearGradient
       id="linearGradient935"><stop
         style="stop-color:#00a700;stop-opacity:1;"
         offset="0"
         id="stop936" /><stop
         style="stop-color:#005f00;stop-opacity:1;"
         offset="1"
         id="stop937" /></linearGradient><linearGradient
       id="linearGradient917"><stop
         style="stop-color:#ffddff;stop-opacity:1;"
         offset="0"
         id="stop918" /><stop
         style="stop-color:#75009a;stop-opacity:1;"
         offset="1"
         id="stop919" /></linearGradient><linearGradient
       id="linearGradient912"><stop
         style="stop-color:#ffe6b3;stop-opacity:1;"
         offset="0"
         id="stop913" /><stop
         style="stop-color:#f3f3f3;stop-opacity:1;"
         offset="1"
         id="stop914" /></linearGradient><linearGradient
       id="linearGradient904"><stop
         style="stop-color:#c5ddff;stop-opacity:0.7098;"
         offset="0"
         id="stop905" /><stop
         style="stop-color:#ffffff;stop-opacity:1;"
         offset="1"
         id="stop906" /></linearGradient><linearGradient
       id="linearGradient896"><stop
         style="stop-color:#82003f;stop-opacity:1;"
         offset="0"
         id="stop897" /><stop
         style="stop-color:#ff006a;stop-opacity:1;"
         offset="1"
         id="stop898" /></linearGradient><linearGradient
       id="linearGradient892"><stop
         style="stop-color:#874a1a;stop-opacity:1;"
         offset="0"
         id="stop893" /><stop
         style="stop-color:#ffcd92;stop-opacity:1;"
         offset="1"
         id="stop894" /></linearGradient><linearGradient
       xlink:href="#linearGradient892"
       id="linearGradient895"
       x1="62.865108"
       y1="1179.769"
       x2="65.904747"
       y2="1169.9233"
       spreadMethod="repeat"
       gradientTransform="matrix(0.71891548,0,0,0.1072359,-36.640456,-91.833007)"
       gradientUnits="userSpaceOnUse" /><linearGradient
       xlink:href="#linearGradient896"
       id="linearGradient899"
       x1="89.697868"
       y1="696.34894"
       x2="144.8933"
       y2="694.02716"
       spreadMethod="reflect"
       gradientTransform="matrix(0.40396867,0,0,0.19084042,-36.640456,-91.833007)"
       gradientUnits="userSpaceOnUse" /><radialGradient
       xlink:href="#linearGradient896"
       id="radialGradient900"
       cx="138.91745"
       cy="792.74829"
       r="194.80363"
       fx="138.91745"
       fy="792.74829"
       gradientTransform="scale(1.8470961,0.54139035)"
       gradientUnits="userSpaceOnUse" /><linearGradient
       xlink:href="#linearGradient904"
       id="linearGradient903"
       x1="169.76273"
       y1="383.50574"
       x2="580.74133"
       y2="383.50574"
       gradientTransform="matrix(0.25956269,0,0,0.29701321,-36.640456,-91.833007)"
       gradientUnits="userSpaceOnUse" /><linearGradient
       xlink:href="#linearGradient912"
       id="linearGradient911"
       x1="171.11584"
       y1="544.37207"
       x2="422.52524"
       y2="544.37207"
       gradientTransform="matrix(0.27056809,0,0,0.28493215,-36.640456,-91.833007)"
       gradientUnits="userSpaceOnUse" /><radialGradient
       xlink:href="#linearGradient917"
       id="radialGradient916"
       cx="128.78004"
       cy="941.17035"
       r="45.626873"
       fx="128.78004"
       fy="941.17035"
       gradientTransform="scale(1.0515864,0.95094426)"
       gradientUnits="userSpaceOnUse" /><radialGradient
       xlink:href="#linearGradient917"
       id="radialGradient922"
       cx="205.81023"
       cy="934.76941"
       r="48.367043"
       fx="205.81023"
       fy="934.76941"
       gradientTransform="scale(1.0535997,0.94912705)"
       gradientUnits="userSpaceOnUse" /><radialGradient
       xlink:href="#linearGradient917"
       id="radialGradient929"
       cx="86.255554"
       cy="1023.3686"
       r="44.058804"
       fx="86.255554"
       fy="1023.3686"
       gradientTransform="scale(1.0158576,0.98438995)"
       gradientUnits="userSpaceOnUse" /><linearGradient
       xlink:href="#linearGradient935"
       id="linearGradient934"
       x1="233.42737"
       y1="540.31372"
       x2="233.54303"
       y2="579.00336"
       gradientTransform="scale(0.67124507,1.4897689)"
       gradientUnits="userSpaceOnUse" /><radialGradient
       xlink:href="#linearGradient1045"
       id="radialGradient1001"
       cx="131.84425"
       cy="916.70221"
       r="105.32764"
       fx="131.84425"
       fy="916.70221"
       gradientUnits="userSpaceOnUse" /><radialGradient
       xlink:href="#linearGradient917"
       id="radialGradient1043"
       cx="0.49999997"
       cy="0.49999988"
       r="0.49999997"
       fx="0.49999997"
       fy="0.49999988" /><radialGradient
       xlink:href="#linearGradient1045"
       id="radialGradient1044"
       cx="110.71349"
       cy="950.26538"
       r="105.32765"
       fx="110.71349"
       fy="950.26538"
       gradientTransform="scale(0.93546972,1.0689817)"
       gradientUnits="userSpaceOnUse" /><radialGradient
       inkscape:collect="always"
       xlink:href="#linearGradient1045"
       id="radialGradient3830"
       cx="81.850372"
       cy="943.78534"
       fx="81.850372"
       fy="943.78534"
       r="18.374575"
       gradientUnits="userSpaceOnUse" /><radialGradient
       inkscape:collect="always"
       xlink:href="#linearGradient1045"
       id="radialGradient3832"
       cx="81.850372"
       cy="943.78534"
       fx="81.850372"
       fy="943.78534"
       r="18.374575"
       gradientUnits="userSpaceOnUse" /><radialGradient
       inkscape:collect="always"
       xlink:href="#linearGradient1045"
       id="radialGradient3834"
       cx="81.850372"
       cy="943.78534"
       fx="81.850372"
       fy="943.78534"
       r="18.374575"
       gradientUnits="userSpaceOnUse" /><radialGradient
       inkscape:collect="always"
       xlink:href="#linearGradient1045"
       id="radialGradient3836"
       cx="81.850372"
       cy="943.78534"
       fx="81.850372"
       fy="943.78534"
       r="18.374575"
       gradientUnits="userSpaceOnUse" /><radialGradient
       inkscape:collect="always"
       xlink:href="#linearGradient1045"
       id="radialGradient3838"
       cx="81.850372"
       cy="943.78534"
       fx="81.850372"
       fy="943.78534"
       r="18.374575"
       gradientUnits="userSpaceOnUse" /><radialGradient
       inkscape:collect="always"
       xlink:href="#linearGradient1045"
       id="radialGradient3840"
       cx="81.850372"
       cy="943.78534"
       fx="81.850372"
       fy="943.78534"
       r="18.374575"
       gradientUnits="userSpaceOnUse" /><radialGradient
       inkscape:collect="always"
       xlink:href="#linearGradient1045"
       id="radialGradient3842"
       cx="81.850372"
       cy="943.78534"
       fx="81.850372"
       fy="943.78534"
       r="18.374575"
       gradientUnits="userSpaceOnUse" /><radialGradient
       inkscape:collect="always"
       xlink:href="#linearGradient1045"
       id="radialGradient3844"
       cx="81.850372"
       cy="943.78534"
       fx="81.850372"
       fy="943.78534"
       r="18.374575"
       gradientUnits="userSpaceOnUse" /><radialGradient
       inkscape:collect="always"
       xlink:href="#linearGradient1045"
       id="radialGradient3846"
       cx="81.850372"
       cy="943.78534"
       fx="81.850372"
       fy="943.78534"
       r="18.374575"
       gradientUnits="userSpaceOnUse" /><radialGradient
       inkscape:collect="always"
       xlink:href="#linearGradient1045"
       id="radialGradient3848"
       cx="81.850372"
       cy="943.78534"
       fx="81.850372"
       fy="943.78534"
       r="18.374575"
       gradientUnits="userSpaceOnUse" /><radialGradient
       inkscape:collect="always"
       xlink:href="#linearGradient1045"
       id="radialGradient3850"
       cx="81.850372"
       cy="943.78534"
       fx="81.850372"
       fy="943.78534"
       r="18.374575"
       gradientUnits="userSpaceOnUse" /><radialGradient
       inkscape:collect="always"
       xlink:href="#linearGradient1045"
       id="radialGradient3852"
       cx="81.850372"
       cy="943.78534"
       fx="81.850372"
       fy="943.78534"
       r="18.374575"
       gradientUnits="userSpaceOnUse" /><radialGradient
       inkscape:collect="always"
       xlink:href="#linearGradient1045"
       id="radialGradient3854"
       cx="81.850372"
       cy="943.78534"
       fx="81.850372"
       fy="943.78534"
       r="18.374575"
       gradientUnits="userSpaceOnUse" /><radialGradient
       inkscape:collect="always"
       xlink:href="#linearGradient1045"
       id="radialGradient3856"
       cx="81.850372"
       cy="943.78534"
       fx="81.850372"
       fy="943.78534"
       r="18.374575"
       gradientUnits="userSpaceOnUse" /><radialGradient
       inkscape:collect="always"
       xlink:href="#linearGradient1045"
       id="radialGradient3858"
       cx="81.850372"
       cy="943.78534"
       fx="81.850372"
       fy="943.78534"
       r="18.374575"
       gradientUnits="userSpaceOnUse" /><radialGradient
       inkscape:collect="always"
       xlink:href="#linearGradient1045"
       id="radialGradient3860"
       cx="81.850372"
       cy="943.78534"
       fx="81.850372"
       fy="943.78534"
       r="18.374575"
       gradientUnits="userSpaceOnUse" /><radialGradient
       inkscape:collect="always"
       xlink:href="#linearGradient1045"
       id="radialGradient3862"
       cx="81.850372"
       cy="943.78534"
       fx="81.850372"
       fy="943.78534"
       r="18.374575"
       gradientUnits="userSpaceOnUse" /><radialGradient
       inkscape:collect="always"
       xlink:href="#linearGradient1045"
       id="radialGradient3864"
       cx="81.850372"
       cy="943.78534"
       fx="81.850372"
       fy="943.78534"
       r="18.374575"
       gradientUnits="userSpaceOnUse" /><radialGradient
       inkscape:collect="always"
       xlink:href="#linearGradient1045"
       id="radialGradient3866"
       cx="81.850372"
       cy="943.78534"
       fx="81.850372"
       fy="943.78534"
       r="18.374575"
       gradientUnits="userSpaceOnUse" /><radialGradient
       inkscape:collect="always"
       xlink:href="#linearGradient1045"
       id="radialGradient3868"
       cx="81.850372"
       cy="943.78534"
       fx="81.850372"
       fy="943.78534"
       r="18.374575"
       gradientUnits="userSpaceOnUse" /><radialGradient
       inkscape:collect="always"
       xlink:href="#linearGradient917"
       id="radialGradient3870"
       cx="140.51901"
       cy="977.55127"
       fx="140.51901"
       fy="977.55127"
       r="44.058823"
       gradientTransform="scale(1.0158567,0.98439082)"
       gradientUnits="userSpaceOnUse" /><radialGradient
       inkscape:collect="always"
       xlink:href="#linearGradient917"
       id="radialGradient3872"
       cx="63.234722"
       cy="987.73291"
       fx="63.234722"
       fy="987.73291"
       r="44.05883"
       gradientTransform="scale(1.0158569,0.98439064)"
       gradientUnits="userSpaceOnUse" /></defs><sodipodi:namedview
     id="base"
     showgrid="false"
     fit-margin-top="0"
     fit-margin-left="0"
     fit-margin-right="0"
     fit-margin-bottom="0"
     inkscape:zoom="4.0932611"
     inkscape:cx="59.999999"
     inkscape:cy="72.069683"
     inkscape:window-width="1366"
     inkscape:window-height="713"
     inkscape:window-x="-2"
     inkscape:window-y="-3"
     inkscape:window-maximized="1"
     inkscape:current-layer="svg884" /><path
     style="font-size:12px;fill:#450997;fill-opacity:1;fill-rule:evenodd"
     d="m 16.69689,80.237933 2.29281,43.167927 c 0.95789,18.03456 81.58822,19.06758 83.23654,-1.1475 l 3.52086,-43.179927 c 1.27058,-15.58273 -89.91297,-15.08417 -89.05021,1.1595 z"
     id="path908"
     sodipodi:nodetypes="cssss"
     inkscape:connector-curvature="0" /><path
     sodipodi:type="arc"
     style="fill:url(#radialGradient1001);fill-opacity:1;fill-rule:evenodd;stroke:none"
     id="path1021"
     d="m 100.22498,943.78516 a 18.37458,18.374573 0 1 1 -36.749165,0 18.37458,18.374573 0 1 1 36.749165,0 z"
     sodipodi:cx="81.850395"
     sodipodi:cy="943.78516"
     sodipodi:rx="18.37458"
     sodipodi:ry="18.374573"
     transform="matrix(0.27765725,0,0,0.27765725,39.19374,-157.40472)" /><g
     id="g1022"
     transform="matrix(0.27765725,0,0,0.27765725,45.81955,-185.09134)"
     style="fill:url(#radialGradient1044)"><path
       sodipodi:type="arc"
       style="fill:url(#radialGradient3830);fill-opacity:1;fill-rule:evenodd;stroke:none"
       id="path1000"
       d="m 100.22498,943.78516 c 0,10.14799 -8.226584,18.37457 -18.374585,18.37457 -10.148,0 -18.37458,-8.22658 -18.37458,-18.37457 0,-10.148 8.22658,-18.37458 18.37458,-18.37458 10.148001,0 18.374585,8.22658 18.374585,18.37458 z"
       sodipodi:cx="81.850395"
       sodipodi:cy="943.78516"
       sodipodi:rx="18.37458"
       sodipodi:ry="18.374573"
       transform="translate(-35.9375,14.99997)" /><path
       sodipodi:type="arc"
       style="fill:url(#radialGradient3832);fill-opacity:1;fill-rule:evenodd;stroke:none"
       id="path1002"
       d="m 100.22498,943.78516 c 0,10.14799 -8.226584,18.37457 -18.374585,18.37457 -10.148,0 -18.37458,-8.22658 -18.37458,-18.37457 0,-10.148 8.22658,-18.37458 18.37458,-18.37458 10.148001,0 18.374585,8.22658 18.374585,18.37458 z"
       sodipodi:cx="81.850395"
       sodipodi:cy="943.78516"
       sodipodi:rx="18.37458"
       sodipodi:ry="18.374573"
       transform="translate(-26.875,56.24997)" /><path
       sodipodi:type="arc"
       style="fill:url(#radialGradient3834);fill-opacity:1;fill-rule:evenodd;stroke:none"
       id="path1003"
       d="m 100.22498,943.78516 c 0,10.14799 -8.226584,18.37457 -18.374585,18.37457 -10.148,0 -18.37458,-8.22658 -18.37458,-18.37457 0,-10.148 8.22658,-18.37458 18.37458,-18.37458 10.148001,0 18.374585,8.22658 18.374585,18.37458 z"
       sodipodi:cx="81.850395"
       sodipodi:cy="943.78516"
       sodipodi:rx="18.37458"
       sodipodi:ry="18.374573"
       transform="translate(48.12501,66.56247)" /><path
       sodipodi:type="arc"
       style="fill:url(#radialGradient3836);fill-opacity:1;fill-rule:evenodd;stroke:none"
       id="path1004"
       d="m 100.22498,943.78516 c 0,10.14799 -8.226584,18.37457 -18.374585,18.37457 -10.148,0 -18.37458,-8.22658 -18.37458,-18.37457 0,-10.148 8.22658,-18.37458 18.37458,-18.37458 10.148001,0 18.374585,8.22658 18.374585,18.37458 z"
       sodipodi:cx="81.850395"
       sodipodi:cy="943.78516"
       sodipodi:rx="18.37458"
       sodipodi:ry="18.374573"
       transform="translate(83.75001,-11.87503)" /><path
       sodipodi:type="arc"
       style="fill:url(#radialGradient3838);fill-opacity:1;fill-rule:evenodd;stroke:none"
       id="path1005"
       d="m 100.22498,943.78516 c 0,10.14799 -8.226584,18.37457 -18.374585,18.37457 -10.148,0 -18.37458,-8.22658 -18.37458,-18.37457 0,-10.148 8.22658,-18.37458 18.37458,-18.37458 10.148001,0 18.374585,8.22658 18.374585,18.37458 z"
       sodipodi:cx="81.850395"
       sodipodi:cy="943.78516"
       sodipodi:rx="18.37458"
       sodipodi:ry="18.374573"
       transform="translate(93.75,47.81247)" /><path
       sodipodi:type="arc"
       style="fill:url(#radialGradient3840);fill-opacity:1;fill-rule:evenodd;stroke:none"
       id="path1006"
       d="m 100.22498,943.78516 c 0,10.14799 -8.226584,18.37457 -18.374585,18.37457 -10.148,0 -18.37458,-8.22658 -18.37458,-18.37457 0,-10.148 8.22658,-18.37458 18.37458,-18.37458 10.148001,0 18.374585,8.22658 18.374585,18.37458 z"
       sodipodi:cx="81.850395"
       sodipodi:cy="943.78516"
       sodipodi:rx="18.37458"
       sodipodi:ry="18.374573"
       transform="translate(-58.43751,37.18747)" /><path
       sodipodi:type="arc"
       style="fill:url(#radialGradient3842);fill-opacity:1;fill-rule:evenodd;stroke:none"
       id="path1007"
       d="m 100.22498,943.78516 c 0,10.14799 -8.226584,18.37457 -18.374585,18.37457 -10.148,0 -18.37458,-8.22658 -18.37458,-18.37457 0,-10.148 8.22658,-18.37458 18.37458,-18.37458 10.148001,0 18.374585,8.22658 18.374585,18.37458 z"
       sodipodi:cx="81.850395"
       sodipodi:cy="943.78516"
       sodipodi:rx="18.37458"
       sodipodi:ry="18.374573"
       transform="translate(10,76.24997)" /><path
       sodipodi:type="arc"
       style="fill:url(#radialGradient3844);fill-opacity:1;fill-rule:evenodd;stroke:none"
       id="path1008"
       d="m 100.22498,943.78516 c 0,10.14799 -8.226584,18.37457 -18.374585,18.37457 -10.148,0 -18.37458,-8.22658 -18.37458,-18.37457 0,-10.148 8.22658,-18.37458 18.37458,-18.37458 10.148001,0 18.374585,8.22658 18.374585,18.37458 z"
       sodipodi:cx="81.850395"
       sodipodi:cy="943.78516"
       sodipodi:rx="18.37458"
       sodipodi:ry="18.374573"
       transform="translate(24.0625,-20.62503)" /><path
       sodipodi:type="arc"
       style="fill:url(#radialGradient3846);fill-opacity:1;fill-rule:evenodd;stroke:none"
       id="path1009"
       d="m 100.22498,943.78516 c 0,10.14799 -8.226584,18.37457 -18.374585,18.37457 -10.148,0 -18.37458,-8.22658 -18.37458,-18.37457 0,-10.148 8.22658,-18.37458 18.37458,-18.37458 10.148001,0 18.374585,8.22658 18.374585,18.37458 z"
       sodipodi:cx="81.850395"
       sodipodi:cy="943.78516"
       sodipodi:rx="18.37458"
       sodipodi:ry="18.374573"
       transform="translate(-16.875,-22.18753)" /><path
       sodipodi:type="arc"
       style="fill:url(#radialGradient3848);fill-opacity:1;fill-rule:evenodd;stroke:none"
       id="path1010"
       d="m 100.22498,943.78516 c 0,10.14799 -8.226584,18.37457 -18.374585,18.37457 -10.148,0 -18.37458,-8.22658 -18.37458,-18.37457 0,-10.148 8.22658,-18.37458 18.37458,-18.37458 10.148001,0 18.374585,8.22658 18.374585,18.37458 z"
       sodipodi:cx="81.850395"
       sodipodi:cy="943.78516"
       sodipodi:rx="18.37458"
       sodipodi:ry="18.374573"
       transform="translate(-53.43751,-14.68753)" /><path
       sodipodi:type="arc"
       style="fill:url(#radialGradient3850);fill-opacity:1;fill-rule:evenodd;stroke:none"
       id="path1011"
       d="m 100.22498,943.78516 c 0,10.14799 -8.226584,18.37457 -18.374585,18.37457 -10.148,0 -18.37458,-8.22658 -18.37458,-18.37457 0,-10.148 8.22658,-18.37458 18.37458,-18.37458 10.148001,0 18.374585,8.22658 18.374585,18.37458 z"
       sodipodi:cx="81.850395"
       sodipodi:cy="943.78516"
       sodipodi:rx="18.37458"
       sodipodi:ry="18.374573"
       transform="translate(47.50001,24.06247)" /><path
       sodipodi:type="arc"
       style="fill:url(#radialGradient3852);fill-opacity:1;fill-rule:evenodd;stroke:none"
       id="path1012"
       d="m 100.22498,943.78516 c 0,10.14799 -8.226584,18.37457 -18.374585,18.37457 -10.148,0 -18.37458,-8.22658 -18.37458,-18.37457 0,-10.148 8.22658,-18.37458 18.37458,-18.37458 10.148001,0 18.374585,8.22658 18.374585,18.37458 z"
       sodipodi:cx="81.850395"
       sodipodi:cy="943.78516"
       sodipodi:rx="18.37458"
       sodipodi:ry="18.374573"
       transform="translate(-12.1875,12.49997)" /><path
       sodipodi:type="arc"
       style="fill:url(#radialGradient3854);fill-opacity:1;fill-rule:evenodd;stroke:none"
       id="path1013"
       d="m 100.22498,943.78516 c 0,10.14799 -8.226584,18.37457 -18.374585,18.37457 -10.148,0 -18.37458,-8.22658 -18.37458,-18.37457 0,-10.148 8.22658,-18.37458 18.37458,-18.37458 10.148001,0 18.374585,8.22658 18.374585,18.37458 z"
       sodipodi:cx="81.850395"
       sodipodi:cy="943.78516"
       sodipodi:rx="18.37458"
       sodipodi:ry="18.374573"
       transform="translate(23.38583,6.681641)" /><path
       sodipodi:type="arc"
       style="fill:url(#radialGradient3856);fill-opacity:1;fill-rule:evenodd;stroke:none"
       id="path1014"
       d="m 100.22498,943.78516 c 0,10.14799 -8.226584,18.37457 -18.374585,18.37457 -10.148,0 -18.37458,-8.22658 -18.37458,-18.37457 0,-10.148 8.22658,-18.37458 18.37458,-18.37458 10.148001,0 18.374585,8.22658 18.374585,18.37458 z"
       sodipodi:cx="81.850395"
       sodipodi:cy="943.78516"
       sodipodi:rx="18.37458"
       sodipodi:ry="18.374573"
       transform="translate(50.31251,-12.18753)" /><path
       sodipodi:type="arc"
       style="fill:url(#radialGradient3858);fill-opacity:1;fill-rule:evenodd;stroke:none"
       id="path1015"
       d="m 100.22498,943.78516 c 0,10.14799 -8.226584,18.37457 -18.374585,18.37457 -10.148,0 -18.37458,-8.22658 -18.37458,-18.37457 0,-10.148 8.22658,-18.37458 18.37458,-18.37458 10.148001,0 18.374585,8.22658 18.374585,18.37458 z"
       sodipodi:cx="81.850395"
       sodipodi:cy="943.78516"
       sodipodi:rx="18.37458"
       sodipodi:ry="18.374573"
       transform="translate(74.06251,19.06247)" /><path
       sodipodi:type="arc"
       style="fill:url(#radialGradient3860);fill-opacity:1;fill-rule:evenodd;stroke:none"
       id="path1016"
       d="m 100.22498,943.78516 c 0,10.14799 -8.226584,18.37457 -18.374585,18.37457 -10.148,0 -18.37458,-8.22658 -18.37458,-18.37457 0,-10.148 8.22658,-18.37458 18.37458,-18.37458 10.148001,0 18.374585,8.22658 18.374585,18.37458 z"
       sodipodi:cx="81.850395"
       sodipodi:cy="943.78516"
       sodipodi:rx="18.37458"
       sodipodi:ry="18.374573"
       transform="translate(10,38.74997)" /><path
       sodipodi:type="arc"
       style="fill:url(#radialGradient3862);fill-opacity:1;fill-rule:evenodd;stroke:none"
       id="path1017"
       d="m 100.22498,943.78516 c 0,10.14799 -8.226584,18.37457 -18.374585,18.37457 -10.148,0 -18.37458,-8.22658 -18.37458,-18.37457 0,-10.148 8.22658,-18.37458 18.37458,-18.37458 10.148001,0 18.374585,8.22658 18.374585,18.37458 z"
       sodipodi:cx="81.850395"
       sodipodi:cy="943.78516"
       sodipodi:rx="18.37458"
       sodipodi:ry="18.374573"
       transform="translate(69.37501,96.56247)" /><path
       sodipodi:type="arc"
       style="fill:url(#radialGradient3864);fill-opacity:1;fill-rule:evenodd;stroke:none"
       id="path1018"
       d="m 100.22498,943.78516 c 0,10.14799 -8.226584,18.37457 -18.374585,18.37457 -10.148,0 -18.37458,-8.22658 -18.37458,-18.37457 0,-10.148 8.22658,-18.37458 18.37458,-18.37458 10.148001,0 18.374585,8.22658 18.374585,18.37458 z"
       sodipodi:cx="81.850395"
       sodipodi:cy="943.78516"
       sodipodi:rx="18.37458"
       sodipodi:ry="18.374573"
       transform="translate(33.74999,166.25)" /><path
       sodipodi:type="arc"
       style="fill:url(#radialGradient3866);fill-opacity:1;fill-rule:evenodd;stroke:none"
       id="path1019"
       d="m 100.22498,943.78516 c 0,10.14799 -8.226584,18.37457 -18.374585,18.37457 -10.148,0 -18.37458,-8.22658 -18.37458,-18.37457 0,-10.148 8.22658,-18.37458 18.37458,-18.37458 10.148001,0 18.374585,8.22658 18.374585,18.37458 z"
       sodipodi:cx="81.850395"
       sodipodi:cy="943.78516"
       sodipodi:rx="18.37458"
       sodipodi:ry="18.374573"
       transform="translate(101.875,136.5625)" /><path
       sodipodi:type="arc"
       style="fill:url(#radialGradient3868);fill-opacity:1;fill-rule:evenodd;stroke:none"
       id="path1020"
       d="m 100.22498,943.78516 c 0,10.14799 -8.226584,18.37457 -18.374585,18.37457 -10.148,0 -18.37458,-8.22658 -18.37458,-18.37457 0,-10.148 8.22658,-18.37458 18.37458,-18.37458 10.148001,0 18.374585,8.22658 18.374585,18.37458 z"
       sodipodi:cx="81.850395"
       sodipodi:cy="943.78516"
       sodipodi:rx="18.37458"
       sodipodi:ry="18.374573"
       transform="translate(65.31251,137.1875)" /></g><path
     style="font-size:12px;fill:url(#linearGradient903);fill-rule:evenodd"
     d="m 7.42361,22.073263 5.56564,104.819527 c 1.18085,22.23982 91.90369,24.05603 93.68822,-0.9276 l 7.42086,-103.891927 c -2.27776,31.88841 -104.90785,33.27572 -106.67472,0 z"
     id="path888"
     sodipodi:nodetypes="cssss"
     inkscape:connector-curvature="0" /><path
     sodipodi:type="arc"
     style="fill:url(#radialGradient900);fill-opacity:1;fill-rule:evenodd;stroke:none"
     id="path889"
     d="m 547.8965,387.53653 a 193.76826,56.794159 0 1 1 -387.53653,0 193.76826,56.794159 0 1 1 387.53653,0 z"
     sodipodi:cx="354.12823"
     sodipodi:cy="387.53653"
     sodipodi:rx="193.76826"
     sodipodi:ry="56.794159"
     transform="matrix(0.27466521,0,0,0.27765725,-35.464954,-91.833017)" /><path
     style="font-size:12px;fill:url(#linearGradient899);fill-opacity:1;fill-rule:evenodd"
     d="m 10.22017,11.819713 c -1.51562,2.13774 -3.59743,4.1241 -2.78115,7.16139 C 10.7495,31.631673 0,50.013443 0,55.888283 c 2.31902,0 9.27606,4.40611 12.98647,6.26134 2.12458,0.92951 4.63805,0.69569 6.95707,0 2.2373,-0.61018 4.63801,-3.24662 6.95703,-3.24662 2.31902,0 4.63804,3.24662 6.95707,3.24662 2.31902,0 5.79753,1.85522 8.11653,1.85522 2.31902,0 3.47854,-1.85522 5.79756,-1.85522 2.31903,0 6.02944,2.55092 8.34846,2.55092 2.319,0 3.24662,-2.55092 5.56564,-2.55092 2.319,0 5.33533,-1.24533 7.65274,-1.15953 6.49326,0.2319 6.72513,4.86994 11.59508,4.86994 2.31904,0 6.26133,-3.71041 8.58035,-3.71041 2.31902,0 6.80685,2.17264 9.04419,2.78281 2.78279,0.9276 9.50795,-1.85522 11.82698,-2.78281 2.22123,-0.66638 3.24659,-9.27609 9.27605,-6.02944 1.97115,-11.55643 -5.40657,-28.49863 -3.01547,-36.84692 0.22107,-0.68993 1.5129,-4.86992 -6.39205,-10.1029001 C 128.07016,21.866683 92.22316,31.244753 63.48155,31.483933 34.73989,31.723103 1.00656,24.067343 10.22017,11.819713 z"
     id="path891"
     sodipodi:nodetypes="cscssssssssssssscscsc"
     inkscape:connector-curvature="0" /><path
     style="font-size:12px;fill:url(#linearGradient895);fill-rule:evenodd;stroke-width:1"
     d="m 116.31592,25.178143 c 1.08809,4.97406 -17.92644,16.18936 -52.37887,16.18936 -34.45243,0 -58.04452,-8.26855 -55.98642,-15.3695 0,5.08371 21.37003,13.9829 55.82244,13.9829 34.45243,0 52.28641,-12.35874 52.54285,-14.80276 z"
     id="path902"
     sodipodi:nodetypes="cscsc"
     inkscape:connector-curvature="0" /><path
     style="font-size:12px;fill:url(#linearGradient911);fill-opacity:1;fill-rule:evenodd"
     d="m 9.65803,63.276103 2.89535,53.129347 c 0.72996,13.39458 36.87691,22.1023 65.12801,17.05388 l 0,-54.825427 c -24.26896,6.55916 -67.23748,-0.93684 -68.02336,-15.3578 z"
     id="path910"
     sodipodi:nodetypes="csccs"
     inkscape:connector-curvature="0" /><g
     id="g938"
     transform="matrix(0.20962039,0.04957709,-0.03896836,0.16476514,54.36043,-47.814617)"><path
       style="font-size:12px;fill:url(#radialGradient922);fill-rule:evenodd;stroke-width:1"
       d="m 232.1883,908.706 c 0,21.2186 -18.3229,38.4197 -40.9253,38.4197 -22.6024,0 -40.9253,-17.2011 -40.9253,-38.4197 0,-21.2186 21.6638,-40.09 34.2436,-33.4083 34.2953,-8.3522 47.607,12.1897 47.607,33.4083 z"
       id="path921"
       sodipodi:nodetypes="ccccc"
       inkscape:connector-curvature="0" /><path
       style="font-size:12px;fill:url(#radialGradient916);fill-rule:evenodd;stroke-width:1"
       d="m 167.042,912.0469 c 0,21.2186 -18.6968,38.4197 -41.7605,38.4197 -23.0637,0 -41.76052,-17.2011 -41.76052,-38.4197 0,-21.2185 10.34472,-33.4084 33.40842,-33.4084 38.0975,-13.3633 50.1126,12.1899 50.1126,33.4084 z"
       id="path923"
       sodipodi:nodetypes="ccccc"
       inkscape:connector-curvature="0" /><path
       style="font-size:12px;fill:url(#radialGradient3870);fill-rule:evenodd;stroke-width:1"
       d="m 193.8151,924.0671 c 9.441,19.0023 0.6852,42.5597 -19.5567,52.6167 -20.2418,10.056 -44.3045,2.804 -53.7454,-16.198 -9.4411,-19.0024 1.5635,-45.542 15.8024,-45.1555 26.9972,-22.7393 48.0586,-10.2658 57.4997,8.7368 z"
       id="path928"
       sodipodi:nodetypes="ccccc"
       inkscape:connector-curvature="0" /><path
       style="font-size:12px;fill:url(#radialGradient3872);fill-rule:evenodd;stroke-width:1"
       d="m 42.28317,934.0896 c -9.441,19.0023 -0.6852,42.5597 19.5567,52.6167 20.2418,10.056 44.30453,2.804 53.74543,-16.198 9.4411,-19.0024 -1.5635,-45.542 -15.80243,-45.1555 -26.9972,-22.7393 -48.0586,-10.2658 -57.4997,8.7368 z"
       id="path930"
       sodipodi:nodetypes="ccccc"
       inkscape:connector-curvature="0" /><path
       style="font-size:12px;fill:url(#radialGradient929);fill-rule:evenodd;stroke-width:1"
       d="m 138.6913,969.1684 c 9.441,19.0023 0.6852,42.5596 -19.5567,52.6166 -20.24184,10.056 -44.30454,2.804 -53.74544,-16.198 -9.4411,-19.0023 1.5635,-45.5419 15.8024,-45.1554 26.99724,-22.7393 48.05864,-10.2658 57.49974,8.7368 z"
       id="path931"
       sodipodi:nodetypes="ccccc"
       inkscape:connector-curvature="0" /><path
       style="font-size:12px;fill:#007f00;fill-opacity:1;fill-rule:evenodd"
       d="m 70.15762,922.0694 c 3.78758,-16.2625 23.94272,-42.1781 23.38594,-25.0563 -1.80964,19.3491 -4.45448,51.2265 -6.68172,76.8397 3.89764,-21.7156 8.21289,-52.6185 12.11053,-74.3341 0.27839,-5.0113 5.59813,-11.3014 12.52813,-15.4514 9.9285,-5.3471 21.5763,6.8208 32.1556,38.0019 -3.2017,-29.6499 -12.6674,-36.3315 -18.7923,-42.5955 7.2385,-5.7073 24.9172,-18.5139 32.1557,-15.869 12.2497,4.3154 28.6754,19.4885 31.7378,16.7046 -29.6499,-26.8661 -21.2977,-28.6758 -20.0448,-41.761 0.5568,-4.872 7.7952,-33.9651 6.6816,-53.4533 -1.6704,-6.4033 -10.8578,0.5568 -20.0451,-1.6704 9.3265,30.9027 5.2897,55.5414 -8.3521,65.1463 -18.0962,19.0706 -36.1924,27.2835 -58.04708,38.4197 -24.22108,12.9457 -19.13859,36.7504 -18.7922,35.0788 z"
       id="path927"
       sodipodi:nodetypes="ccccscccccccccs"
       inkscape:connector-curvature="0" /><path
       style="font-size:12px;fill:url(#linearGradient934);fill-rule:evenodd;stroke-width:1"
       d="m 165.0432,786.7666 c -14.322,56.9326 27.3343,50.9821 27.0545,92.957 -1.9502,30.282 -24.0149,47.4931 -28.0675,59.0477 -9.064,-10.1608 -40.6978,-20.9146 -40.418,-62.8894 0.2797,-41.975 20.674,-60.8565 41.431,-89.1153 z"
       id="path933"
       sodipodi:nodetypes="ccccc"
       inkscape:connector-curvature="0" /></g><path
     style="fill:none;stroke:#000000;stroke-width:0.27765725pt;stroke-linecap:butt;stroke-linejoin:miter;stroke-opacity:1"
     d="m 10.20377,71.425423 c 0.11594,8.23251 33.04604,18.32849 59.13505,14.03832 l 0.34785,44.285057 c -19.36385,4.52209 -56.18825,-5.25414 -57.29971,-18.0801"
     id="path948"
     sodipodi:nodetypes="cccc"
     inkscape:connector-curvature="0" /><path
     style="fill:none;stroke:#000000;stroke-width:0.27765725pt;stroke-linecap:butt;stroke-linejoin:miter;stroke-opacity:1"
     d="m 12.38943,94.432183 c -0.6013,1.20262 -0.33827,2.58974 -0.31903,3.86627 0.0171,1.13459 0.65505,2.702877 2.08546,2.154177 1.75457,-0.673017 3.0065,-7.342507 3.35021,-9.080137 0.19575,-0.9896 0.50386,-2.97496 -0.76034,-3.3257 -1.4158,-0.39277 -1.24851,5.0638 -1.39123,6.05923 -0.2487,1.73455 -0.005,3.45675 -0.322,5.1978 -0.16221,0.890107 -0.34743,0.961967 -0.34729,2.100477 1.7e-4,1.36368 -0.0247,2.04644 1.42033,2.04644 0.65224,0 2.22953,-4.382617 2.43494,-5.021317 0.68662,-2.13471 2.13049,-3.75476 2.31524,-6.09746 0.0922,-1.16911 0.62979,-3.54644 -1.10013,-3.47377 -1.71581,0.0721 -0.97097,5.94125 -0.97097,7.1695 0,1.37962 -0.81575,2.52254 -0.81967,3.980817 -0.004,1.52698 -0.70975,2.89366 -0.50497,4.4162 0.25061,1.86336 2.16739,1.57365 2.82619,0.0112 0.39521,-0.93726 2.18583,-4.485107 -0.0565,-4.43016 -1.11254,0.0273 -1.28105,4.665 -1.28105,5.48551 0,1.8081 1.74355,3.52144 3.01444,1.23379 0.91274,-1.64301 1.69571,-3.34107 1.74338,-5.2802 0.0271,-1.10244 -0.003,1.33594 -0.002,1.8161 3e-4,1.10757 0.5903,4.60005 0.0142,5.42278 -0.20511,0.29287 -1.27037,0.52636 -1.63335,0.34263 -0.17487,-0.0885 -0.55992,-0.763 -0.67765,-0.96242 -0.0911,-0.15432 -0.20086,-0.68767 -0.16198,-0.51269"
     id="path949"
     inkscape:connector-curvature="0" /><path
     style="fill:none;stroke:#000000;stroke-width:0.27765725pt;stroke-linecap:butt;stroke-linejoin:miter;stroke-opacity:1"
     d="m 12.38943,92.136463 c -0.75781,0 -0.68076,0.81753 0.0251,0.82439 0.34399,0.003 0.11039,-0.6792 -0.0251,-0.82439 z"
     id="path950"
     inkscape:connector-curvature="0" /><path
     style="fill:none;stroke:#000000;stroke-width:0.27765725pt;stroke-linecap:butt;stroke-linejoin:miter;stroke-opacity:1"
     d="m 12.22544,94.760133 c 0,0.68872 -0.51241,1.55754 -0.81775,2.05005 -0.0217,0.035 -0.0159,0.0607 -0.0121,0.0943"
     id="path951"
     inkscape:connector-curvature="0" /></svg>