<!--Created with Inkscape (http://www.inkscape.org/)--><svg xmlns:dc="http://purl.org/dc/elements/1.1/" xmlns:cc="http://creativecommons.org/ns#" xmlns:rdf="http://www.w3.org/1999/02/22-rdf-syntax-ns#" xmlns="http://www.w3.org/2000/svg" xmlns:sodipodi="http://sodipodi.sourceforge.net/DTD/sodipodi-0.dtd" xmlns:inkscape="http://www.inkscape.org/namespaces/inkscape" inkscape:version="0.91 r13725" width="100" height="100" sodipodi:docname="question_mark.svg"><metadata><rdf:RDF><cc:Work><dc:format>image/svg+xml</dc:format><dc:type rdf:resource="http://purl.org/dc/dcmitype/StillImage"/><dc:title/><dc:date>2015</dc:date><dc:creator><cc:Agent><dc:title>Timothée Giet</dc:title></cc:Agent></dc:creator><cc:license rdf:resource="http://creativecommons.org/licenses/by-sa/4.0/"/></cc:Work><cc:License rdf:about="http://creativecommons.org/licenses/by-sa/4.0/"><cc:permits rdf:resource="http://creativecommons.org/ns#Reproduction"/><cc:permits rdf:resource="http://creativecommons.org/ns#Distribution"/><cc:requires rdf:resource="http://creativecommons.org/ns#Notice"/><cc:requires rdf:resource="http://creativecommons.org/ns#Attribution"/><cc:permits rdf:resource="http://creativecommons.org/ns#DerivativeWorks"/><cc:requires rdf:resource="http://creativecommons.org/ns#ShareAlike"/></cc:License></rdf:RDF></metadata><sodipodi:namedview pagecolor="#ffffff" bordercolor="#666666" borderopacity="1" objecttolerance="10" gridtolerance="10" guidetolerance="10" inkscape:pageopacity="0" inkscape:pageshadow="2" inkscape:window-width="1880" inkscape:window-height="1060" showgrid="false" inkscape:zoom="2.085965" inkscape:cx="-36.167164" inkscape:cy="34.313897" inkscape:window-x="-3" inkscape:window-y="-3" inkscape:window-maximized="1" inkscape:current-layer="layer1"/><g inkscape:groupmode="layer" inkscape:label="Layer 1" style="opacity:1"><path inkscape:connector-curvature="0" d="M20.216 23.096 43.826 8.49l25.755 2.705 11.268 15.687-4.293 23.261-16.633 11.36-4.293 10.278 3.756 10.278-11.268 11.36-17.17-2.705v-11.36l2.146-4.327-2.683-9.196 4.829-24.884-10.732 4.869-4.292-22.72z" style="fill:#86a9de;fill-opacity:1;fill-rule:evenodd;stroke:none;stroke-width:.77515936px;stroke-linecap:butt;stroke-linejoin:miter;stroke-opacity:1"/><path inkscape:connector-curvature="0" d="M85 30.662c-.778 10.55-5.068 22.555-13.45 28.744-1.6 1.117-3.763 2.247-6.536 3.342-1.9.751-3.285 1.546-3.6 2.579-.174 1.71-.163 3.25-.663 4.68-.316.89-.474 1.463-.474 1.718 0 .127.64.669 1.232 2.005 2.765 6.239-.338 14.482-4.926 18.717-.725.67-2.364 1.54-5.02 2.483-3.974 1.412-7.515 2.101-10.609 2.101-3.22 0-6.083-.813-8.62-2.387-3.21-1.992-4.83-4.711-4.83-8.213 0-1.464.333-3.061 1.041-4.775.555-1.342 1.648-2.595 1.705-4.106.022-.565-1.26-.698-2.084-1.528-.51-.514-.663-2.323-.663-5.252 0-5.157 1.743-13.062 4.168-23.97-1.096-.853-3.09 1.009-3.789 1.433-2.328 1.415-3.889 2.865-5.02 2.865-.811 0-1.038-.98-1.137-1.432C19.38 39.497 17.985 31.809 15 23.309 21.193 11.864 43.48 3.167 54.689 2.97c9.386-.566 20.611 2.58 25.48 9.836 1.48 2.274 2.653 5.125 3.6 8.499.821 2.928 1.23 6.048 1.231 9.358m-8.62 3.82c0-2.674-.021-4.172-.095-4.488-2.453-10.57-11.082-15.894-25.859-15.852-5.241.015-9.307 1.386-13.45 2.674-5.108 1.587-8.352 4.66-10.515 7.257-.805.968-1.231 1.847-1.231 2.674 0 1.72.618 5.79 1.8 12.223.081.443.315 1.898 1.136 1.528 7.88-3.544 12.598-6.398 15.25-6.398 2.842 0 5.135.748 6.916 2.197 1.818 1.48 2.746 3.597 2.746 6.398-1.218 4.372-4.527 4.492-8.051 4.488-.253 0-1.39.001-3.41-.096-1.96-.094-3.063-.19-3.315-.19-.758 0-1.159 1.49-1.705 4.392-1.126 5.978-1.61 10.233-1.61 16.712 0 .445.121.957.378 1.528.374.83.821 1.241 1.326 1.241.19 0 2.268-.472 6.252-1.337.123-.027 2.082-.267 5.873-.764 2.524-.33 4.552-.516 4.925-1.432.703-1.726.4-4.551 1.042-8.022.066-.352 1.677-.515 4.263-.86 3.16-.42 6.346-2.196 9.567-5.251 3.22-3.056 5.396-6.272 6.536-9.645.818-2.42 1.231-5.412 1.231-8.977M56.11 78.696c0-1.273-.629-2.353-1.8-3.342-1.166-.985-2.4-1.528-3.79-1.528-2.588 0-5.722.874-9.377 2.674-4.491 2.211-6.725 4.838-6.725 7.83 0 1.082.232 1.732.663 2.006 1.275.809 2.646 1.433 4.168 1.718a17.29 17.29 0 0 0 3.22.287c1.895 0 4.17-.279 6.82-.86 1.707-.374 3.246-1.681 4.737-3.82 1.35-1.936 2.084-3.564 2.084-4.965" style="font-style:normal;font-variant:normal;font-weight:400;font-stretch:normal;font-size:36px;line-height:100%;font-family:'Indigo Joker';text-align:start;writing-mode:lr-tb;text-anchor:start;fill:#375480;fill-opacity:1;stroke:none;stroke-width:1px;stroke-linecap:butt;stroke-linejoin:miter;stroke-opacity:1" sodipodi:nodetypes="ccsccsssssssssssccsccccsccsssssssssccsssssssssssssccsssssssssc"/></g></svg>