<?xml version="1.0" encoding="UTF-8" standalone="no"?>
<!-- Created with Sodipodi ("http://www.sodipodi.com/") -->

<svg
   xmlns:dc="http://purl.org/dc/elements/1.1/"
   xmlns:cc="http://creativecommons.org/ns#"
   xmlns:rdf="http://www.w3.org/1999/02/22-rdf-syntax-ns#"
   xmlns:svg="http://www.w3.org/2000/svg"
   xmlns="http://www.w3.org/2000/svg"
   xmlns:xlink="http://www.w3.org/1999/xlink"
   xmlns:sodipodi="http://sodipodi.sourceforge.net/DTD/sodipodi-0.dtd"
   xmlns:inkscape="http://www.inkscape.org/namespaces/inkscape"
   id="svg695"
   sodipodi:version="0.34"
   width="120"
   height="70.465797"
   xml:space="preserve"
   sodipodi:docname="sympathique.svgz"
   version="1.1"
   inkscape:version="0.48.4 r9939"><metadata
     id="metadata3706"><rdf:RDF><cc:Work
         rdf:about=""><dc:format>image/svg+xml</dc:format><dc:type
           rdf:resource="http://purl.org/dc/dcmitype/StillImage" /></cc:Work></rdf:RDF></metadata><defs
     id="defs697"><linearGradient
       id="linearGradient768"><stop
         style="stop-color:#ffed8a;stop-opacity:1;"
         offset="0"
         id="stop769" /><stop
         style="stop-color:#ffffff;stop-opacity:1;"
         offset="1"
         id="stop770" /></linearGradient><linearGradient
       id="linearGradient752"><stop
         style="stop-color:#ffbf25;stop-opacity:1;"
         offset="0"
         id="stop753" /><stop
         style="stop-color:#ffffff;stop-opacity:1;"
         offset="1"
         id="stop754" /></linearGradient><linearGradient
       id="linearGradient720"><stop
         style="stop-color:#fffffd;stop-opacity:1;"
         offset="0"
         id="stop721" /><stop
         style="stop-color:#afedff;stop-opacity:1;"
         offset="1"
         id="stop722" /></linearGradient><linearGradient
       id="linearGradient707"><stop
         style="stop-color:#4a3700;stop-opacity:1;"
         offset="0"
         id="stop708" /><stop
         style="stop-color:#bd8d00;stop-opacity:0;"
         offset="1"
         id="stop709" /></linearGradient><linearGradient
       xlink:href="#linearGradient752"
       id="linearGradient710"
       x1="99.84127"
       y1="439.98019"
       x2="426.39905"
       y2="439.98019"
       gradientTransform="scale(1.4746829,0.67811188)"
       gradientUnits="userSpaceOnUse" /><radialGradient
       xlink:href="#linearGradient707"
       id="radialGradient711"
       cx="136.25414"
       cy="964.79144"
       r="182.50577"
       fx="136.25414"
       fy="964.79144"
       gradientTransform="scale(1.6514713,0.60552066)"
       gradientUnits="userSpaceOnUse" /><radialGradient
       xlink:href="#linearGradient707"
       id="radialGradient712"
       cx="274.87265"
       cy="840.76788"
       r="289.21085"
       fx="274.87265"
       fy="840.76788"
       gradientTransform="scale(1.6196636,0.61741214)"
       gradientUnits="userSpaceOnUse" /><radialGradient
       xlink:href="#linearGradient707"
       id="radialGradient714"
       cx="99.822296"
       cy="887.98578"
       r="353.91699"
       fx="99.822296"
       fy="887.98578"
       gradientTransform="scale(1.3154994,0.76016756)"
       gradientUnits="userSpaceOnUse" /><radialGradient
       xlink:href="#linearGradient720"
       id="radialGradient719"
       cx="221.53842"
       cy="799.51489"
       r="10.155259"
       fx="221.53842"
       fy="799.51489"
       gradientTransform="matrix(0.26074618,0,0,0.2346708,24.600159,-110.94489)"
       gradientUnits="userSpaceOnUse" /><linearGradient
       xlink:href="#linearGradient768"
       id="linearGradient767"
       x1="156.87347"
       y1="413.11844"
       x2="287.23666"
       y2="413.11844"
       gradientTransform="scale(0.89006779,1.1235099)"
       gradientUnits="userSpaceOnUse" /><radialGradient
       inkscape:collect="always"
       xlink:href="#linearGradient720"
       id="radialGradient3708"
       cx="167.61311"
       cy="811.26599"
       fx="167.61311"
       fy="811.26599"
       r="10.155259"
       gradientTransform="matrix(0.26074618,0,0,0.2346708,24.600159,-110.94489)"
       gradientUnits="userSpaceOnUse" /><radialGradient
       inkscape:collect="always"
       xlink:href="#linearGradient720"
       id="radialGradient3710"
       cx="26.44141"
       cy="782.52411"
       fx="26.44141"
       fy="782.52411"
       r="10.155259"
       gradientTransform="matrix(0.26074618,0,0,0.2346708,24.600159,-110.94489)"
       gradientUnits="userSpaceOnUse" /><radialGradient
       inkscape:collect="always"
       xlink:href="#linearGradient720"
       id="radialGradient3712"
       cx="195.69292"
       cy="810.99402"
       fx="195.69292"
       fy="810.99402"
       r="10.155259"
       gradientTransform="matrix(0.26074618,0,0,0.2346708,24.600159,-110.94489)"
       gradientUnits="userSpaceOnUse" /><radialGradient
       inkscape:collect="always"
       xlink:href="#linearGradient720"
       id="radialGradient3714"
       cx="28.343573"
       cy="580.38666"
       fx="28.343573"
       fy="580.38666"
       r="10.155259"
       gradientTransform="matrix(0.26074618,0,0,0.2346708,24.600159,-110.94489)"
       gradientUnits="userSpaceOnUse" /><radialGradient
       inkscape:collect="always"
       xlink:href="#linearGradient720"
       id="radialGradient3716"
       cx="55.570187"
       cy="573.96198"
       fx="55.570187"
       fy="573.96198"
       r="10.155259"
       gradientTransform="matrix(0.26074618,0,0,0.2346708,24.600159,-110.94489)"
       gradientUnits="userSpaceOnUse" /><radialGradient
       inkscape:collect="always"
       xlink:href="#linearGradient720"
       id="radialGradient3718"
       cx="86.277061"
       cy="589.36511"
       fx="86.277061"
       fy="589.36511"
       r="10.155259"
       gradientTransform="matrix(0.26074618,0,0,0.2346708,24.600159,-110.94489)"
       gradientUnits="userSpaceOnUse" /><radialGradient
       inkscape:collect="always"
       xlink:href="#linearGradient720"
       id="radialGradient3720"
       cx="70.450401"
       cy="601.14478"
       fx="70.450401"
       fy="601.14478"
       r="10.155259"
       gradientTransform="matrix(0.26074618,0,0,0.2346708,24.600159,-110.94489)"
       gradientUnits="userSpaceOnUse" /><radialGradient
       inkscape:collect="always"
       xlink:href="#linearGradient720"
       id="radialGradient3722"
       cx="113.9384"
       cy="626.95734"
       fx="113.9384"
       fy="626.95734"
       r="10.155259"
       gradientTransform="matrix(0.26074618,0,0,0.2346708,24.600159,-110.94489)"
       gradientUnits="userSpaceOnUse" /><radialGradient
       inkscape:collect="always"
       xlink:href="#linearGradient720"
       id="radialGradient3724"
       cx="140.89467"
       cy="631.66467"
       fx="140.89467"
       fy="631.66467"
       r="10.155259"
       gradientTransform="matrix(0.26074618,0,0,0.2346708,24.600159,-110.94489)"
       gradientUnits="userSpaceOnUse" /><radialGradient
       inkscape:collect="always"
       xlink:href="#linearGradient720"
       id="radialGradient3726"
       cx="161.31226"
       cy="657.89941"
       fx="161.31226"
       fy="657.89941"
       r="10.155259"
       gradientTransform="matrix(0.26074618,0,0,0.2346708,24.600159,-110.94489)"
       gradientUnits="userSpaceOnUse" /><radialGradient
       inkscape:collect="always"
       xlink:href="#linearGradient720"
       id="radialGradient3728"
       cx="187.93053"
       cy="676.52197"
       fx="187.93053"
       fy="676.52197"
       r="10.155259"
       gradientTransform="matrix(0.26074618,0,0,0.2346708,24.600159,-110.94489)"
       gradientUnits="userSpaceOnUse" /><radialGradient
       inkscape:collect="always"
       xlink:href="#linearGradient720"
       id="radialGradient3730"
       cx="-60.834141"
       cy="681.31604"
       fx="-60.834141"
       fy="681.31604"
       r="10.155259"
       gradientTransform="matrix(0.26074618,0,0,0.2346708,24.600159,-110.94489)"
       gradientUnits="userSpaceOnUse" /><radialGradient
       inkscape:collect="always"
       xlink:href="#linearGradient720"
       id="radialGradient3732"
       cx="-51.558903"
       cy="712.22986"
       fx="-51.558903"
       fy="712.22986"
       r="10.155259"
       gradientTransform="matrix(0.26074618,0,0,0.2346708,24.600159,-110.94489)"
       gradientUnits="userSpaceOnUse" /><radialGradient
       inkscape:collect="always"
       xlink:href="#linearGradient720"
       id="radialGradient3734"
       cx="-35.622704"
       cy="737.21613"
       fx="-35.622704"
       fy="737.21613"
       r="10.155259"
       gradientTransform="matrix(0.26074618,0,0,0.2346708,24.600159,-110.94489)"
       gradientUnits="userSpaceOnUse" /><radialGradient
       inkscape:collect="always"
       xlink:href="#linearGradient720"
       id="radialGradient3736"
       cx="-2.3435562"
       cy="749.91132"
       fx="-2.3435562"
       fy="749.91132"
       r="10.155259"
       gradientTransform="matrix(0.26074618,0,0,0.2346708,24.600159,-110.94489)"
       gradientUnits="userSpaceOnUse" /><radialGradient
       inkscape:collect="always"
       xlink:href="#linearGradient720"
       id="radialGradient3738"
       cx="51.028133"
       cy="781.59039"
       fx="51.028133"
       fy="781.59039"
       r="10.155259"
       gradientTransform="matrix(0.26074618,0,0,0.2346708,24.600159,-110.94489)"
       gradientUnits="userSpaceOnUse" /><radialGradient
       inkscape:collect="always"
       xlink:href="#linearGradient720"
       id="radialGradient3740"
       cx="79.162727"
       cy="799.70129"
       fx="79.162727"
       fy="799.70129"
       r="10.155259"
       gradientTransform="matrix(0.26074618,0,0,0.2346708,24.600159,-110.94489)"
       gradientUnits="userSpaceOnUse" /><radialGradient
       inkscape:collect="always"
       xlink:href="#linearGradient720"
       id="radialGradient3742"
       cx="-72.208023"
       cy="566.79865"
       fx="-72.208023"
       fy="566.79865"
       r="10.155259"
       gradientTransform="matrix(0.26074618,0,0,0.2346708,24.600159,-110.94489)"
       gradientUnits="userSpaceOnUse" /><radialGradient
       inkscape:collect="always"
       xlink:href="#linearGradient720"
       id="radialGradient3744"
       cx="286.01605"
       cy="558.50946"
       fx="286.01605"
       fy="558.50946"
       r="10.155261"
       gradientTransform="matrix(0.26074623,0,0,0.23467086,-52.514141,-100.77797)"
       gradientUnits="userSpaceOnUse" /><radialGradient
       inkscape:collect="always"
       xlink:href="#linearGradient720"
       id="radialGradient3746"
       cx="278.02383"
       cy="490.4736"
       fx="278.02383"
       fy="490.4736"
       r="10.15526"
       gradientTransform="matrix(0.26074621,0,0,0.23467082,-38.71464,-106.84153)"
       gradientUnits="userSpaceOnUse" /><radialGradient
       inkscape:collect="always"
       xlink:href="#linearGradient720"
       id="radialGradient3748"
       cx="-350.91876"
       cy="535.46234"
       fx="-350.91876"
       fy="535.46234"
       r="10.155258"
       gradientTransform="matrix(0.26074618,0,0,0.23467082,74.002633,-86.241206)"
       gradientUnits="userSpaceOnUse" /><radialGradient
       inkscape:collect="always"
       xlink:href="#linearGradient720"
       id="radialGradient3750"
       cx="505.68884"
       cy="196.21136"
       fx="505.68884"
       fy="196.21136"
       r="10.155252"
       gradientTransform="matrix(0.2607461,0,0,0.23467072,-106.3106,-40.149598)"
       gradientUnits="userSpaceOnUse" /><radialGradient
       inkscape:collect="always"
       xlink:href="#linearGradient720"
       id="radialGradient3752"
       cx="-298.98026"
       cy="451.49704"
       fx="-298.98026"
       fy="451.49704"
       r="10.155261"
       gradientTransform="matrix(0.26074622,0,0,0.23467087,80.246488,-80.463887)"
       gradientUnits="userSpaceOnUse" /><radialGradient
       inkscape:collect="always"
       xlink:href="#linearGradient720"
       id="radialGradient3754"
       cx="128.9865"
       cy="812.33569"
       fx="128.9865"
       fy="812.33569"
       r="10.155259"
       gradientTransform="matrix(0.26074618,0,0,0.2346708,24.600159,-110.94489)"
       gradientUnits="userSpaceOnUse" /><radialGradient
       inkscape:collect="always"
       xlink:href="#linearGradient720"
       id="radialGradient3756"
       cx="190.15205"
       cy="708.89502"
       fx="190.15205"
       fy="708.89502"
       r="10.155259"
       gradientTransform="matrix(0.26074618,0,0,0.2346708,24.600159,-110.94489)"
       gradientUnits="userSpaceOnUse" /><radialGradient
       inkscape:collect="always"
       xlink:href="#linearGradient720"
       id="radialGradient3758"
       cx="223.17363"
       cy="711.55634"
       fx="223.17363"
       fy="711.55634"
       r="10.155259"
       gradientTransform="matrix(0.26074618,0,0,0.2346708,24.600159,-110.94489)"
       gradientUnits="userSpaceOnUse" /><radialGradient
       inkscape:collect="always"
       xlink:href="#linearGradient720"
       id="radialGradient3760"
       cx="210.29922"
       cy="746.2619"
       fx="210.29922"
       fy="746.2619"
       r="10.155259"
       gradientTransform="matrix(0.26074618,0,0,0.2346708,24.600159,-110.94489)"
       gradientUnits="userSpaceOnUse" /><radialGradient
       inkscape:collect="always"
       xlink:href="#linearGradient720"
       id="radialGradient3762"
       cx="232.82886"
       cy="768.10376"
       fx="232.82886"
       fy="768.10376"
       r="10.155259"
       gradientTransform="matrix(0.26074618,0,0,0.2346708,24.600159,-110.94489)"
       gradientUnits="userSpaceOnUse" /></defs><sodipodi:namedview
     id="base"
     showgrid="false"
     fit-margin-top="0"
     fit-margin-left="0"
     fit-margin-right="0"
     fit-margin-bottom="0"
     inkscape:zoom="1.7940591"
     inkscape:cx="195.38761"
     inkscape:cy="5.7487507"
     inkscape:window-width="1366"
     inkscape:window-height="713"
     inkscape:window-x="-2"
     inkscape:window-y="-3"
     inkscape:window-maximized="1"
     inkscape:current-layer="svg695" /><g
     id="g758"
     transform="matrix(0.24736514,0,0,0.24736514,-30.577003,-109.44854)"><path
       style="font-size:12px;fill:#ca9800;fill-opacity:1;fill-rule:evenodd"
       d="m 501.9008,581.8533 c -23.5013,40.5472 -95.4797,37.8711 -136.9148,37.8711 -44.7757,0 -134.1616,-11.1337 -135.7337,-44.9581 -2.4131,-26.5074 87.6016,-39.4267 134.0633,-40.2332 49.7716,-0.8639 150.1626,27.3455 138.5852,47.3202 z m 104.4604,3.6275 c 0,77.0325 -108.0673,139.4798 -241.3752,139.4798 -133.3078,0 -241.3752,-62.4473 -241.3752,-139.4798 0,-77.0326 108.0674,-139.4798 241.3752,-139.4798 133.3079,0 241.3752,62.4472 241.3752,139.4798 z"
       id="path706"
       sodipodi:nodetypes="cssssccccc"
       inkscape:connector-curvature="0" /><path
       style="font-size:12px;fill:url(#radialGradient714);fill-opacity:1;fill-rule:evenodd"
       d="m 501.9009,580.6721 c -31.5005,44.7216 -94.2986,41.4146 -135.7337,41.4146 -44.7757,0 -88.7593,-7.3238 -136.9149,-39.0522 -18.0735,-30.6662 89.9791,-51.1149 136.4257,-49.6826 48.5904,0.3172 153.975,18.5271 136.2229,47.3202 z m 105.6415,7.171 c 0,77.0325 -108.0673,139.4798 -241.3752,139.4798 -133.3078,0 -241.3752,-62.4473 -241.3752,-139.4798 0,-77.0326 108.0674,-139.4798 241.3752,-139.4798 133.3079,0 241.3752,62.4472 241.3752,139.4798 z"
       id="path713"
       sodipodi:nodetypes="cscscccccc"
       inkscape:connector-curvature="0" /><path
       style="font-size:12px;fill:url(#radialGradient711);fill-rule:evenodd;stroke-width:1"
       d="m 492.0449,593.8322 c 41.0542,-41.9504 -92.6441,-61.6622 -122.4782,-60.4809 -12.606,-1.8732 -143.5571,4.07 -141.4958,48.5014 -13.8403,-7.0759 -28.9851,-28.8322 -7.918,-50.0847 30.637,-31.5168 100.5817,-49.3049 143.0186,-49.3049 84.874,0 198.0523,55.6596 128.8734,111.3691 z"
       id="path700"
       sodipodi:nodetypes="cccccc"
       inkscape:connector-curvature="0" /><path
       style="font-size:12px;fill:url(#radialGradient712);fill-rule:evenodd;stroke-width:1"
       d="m 227.3298,525.7404 c -59.2709,48.1898 45.9564,97.8729 139.1824,97.8729 94.8964,-3.3408 207.1311,-46.7251 130.292,-91.0378 105.2364,45.8896 -43.7477,122.7755 -128.6216,122.7755 -84.8739,0 -245.5587,-58.9636 -140.8528,-129.6106 z"
       id="path701"
       sodipodi:nodetypes="ccccc"
       inkscape:connector-curvature="0" /></g><g
     id="g774"
     transform="matrix(0.24736514,0,0,0.24736514,-30.577003,-109.44854)"><path
       style="font-size:12px;fill:#f7eab9;fill-rule:evenodd"
       d="m 526.7053,437.7513 c -48.0368,36.4535 -96.661,34.3277 -138.096,34.3277 -44.7758,0 -89.9405,-4.9615 -138.0961,-36.6899 -17.2159,-12.0959 -22.7383,-26.312 -13.8977,-36.1275 8.5171,-8.145 24.1158,-25.5109 43.5939,-23.931 11.6626,-13.0205 39.9214,-26.8467 58.1276,-25.2211 15.8439,-10.1862 41.7149,-8.4642 53.3265,-8.106 12.1477,0.0792 35.9654,-0.9378 48.3959,9.9749 13.6119,-4.4423 43.4712,8.7225 60.3921,21.3147 15.0266,12.3637 28.6814,33.1474 41.5302,30.4928 1.3551,12.8084 2.4497,23.2237 -15.2764,33.9654 z m 98.5545,-14.0899 c -17.4222,11.8759 -14.4317,41.4434 -24.8927,39.6934 -15.5794,-0.7613 -35.8921,7.9152 -50.0861,24.237 -13.3505,14.1708 -42.128,25.9706 -69.397,21.8266 -26.0909,-4.1445 -71.9405,-5.3353 -91.0935,6.4764 -21.5154,8.2681 -65.8515,2.2977 -92.6622,-7.6206 -24.633,-9.5496 -44.829,-24.4654 -67.6807,-25.7023 -19.0349,0.1509 -44.9035,-10.4105 -51.9871,-25.0122 -7.6171,-14.4312 -30.817,-20.2506 -33.7699,-30.3548 17.7174,-75.8514 111.6108,-128.8493 244.9187,-128.8493 133.3078,0 231.9258,64.8095 236.6505,125.3058 z"
       id="path715"
       sodipodi:nodetypes="cscsccscscccssscsssccc"
       transform="translate(-20.07978,144.1018)"
       inkscape:connector-curvature="0" /><g
       id="g771"><path
         style="font-size:12px;opacity:0.38610002;fill:url(#linearGradient710);fill-rule:evenodd"
         d="m 530.2489,437.7513 c -48.0368,36.4535 -96.661,34.3277 -138.096,34.3277 -44.7758,0 -92.3028,-2.5992 -140.4584,-34.3276 -17.2159,-12.0959 -22.7383,-28.6743 -13.8977,-38.4898 8.5171,-8.145 26.4781,-25.5109 45.9562,-23.931 11.6626,-13.0205 39.9214,-26.8467 58.1276,-25.2211 15.8439,-10.1862 41.7149,-8.4642 53.3265,-8.106 12.1477,0.0792 35.9654,-0.9378 48.3959,9.9749 13.6119,-4.4423 43.4712,8.7225 60.3921,21.3147 15.0266,12.3637 25.1379,34.3285 37.9867,31.6739 1.3551,12.8085 5.9932,22.0426 -11.7329,32.7843 z m 98.5545,-14.0899 c -17.4222,11.8759 -14.4317,41.4434 -24.8927,39.6934 -15.5794,-0.7613 -35.8921,7.9152 -50.0861,24.237 -13.3505,14.1708 -42.128,25.9706 -69.397,21.8266 -26.0909,-4.1445 -71.9405,-5.3353 -91.0935,6.4764 -21.5154,8.2681 -65.8515,2.2977 -92.6622,-7.6206 -24.633,-9.5496 -44.829,-24.4654 -67.6807,-25.7023 -19.0349,0.1509 -44.9035,-10.4105 -51.9871,-25.0122 -7.6171,-14.4312 -30.817,-20.2506 -33.7699,-30.3548 17.7174,-75.8514 111.6108,-128.8493 244.9187,-128.8493 133.3078,0 231.9258,64.8095 236.6505,125.3058 z"
         id="path751"
         sodipodi:nodetypes="cscsccscscccssscsssccc"
         transform="translate(-20.07978,144.1018)"
         inkscape:connector-curvature="0" /><path
         style="font-size:12px;fill:url(#linearGradient767);fill-rule:evenodd;stroke-width:1"
         d="m 180.7181,550.9583 c 0,49.9039 82.1544,59.6487 59.6487,59.6487 -56.7594,-1.1812 -108.3487,-35.4202 -99.8083,-63.1922 12.771,-36.4836 85.5707,-83.2721 111.6199,-83.2721 22.5057,0 -71.4603,36.9117 -71.4603,86.8156 z"
         id="path766"
         sodipodi:nodetypes="ccscc"
         inkscape:connector-curvature="0" /></g></g><rect
     style="font-size:12px;fill:url(#radialGradient719);fill-rule:evenodd"
     id="rect716"
     width="2.9217851"
     height="2.6295981"
     x="81.540909"
     y="75.440979"
     transform="matrix(0.88203601,-0.471182,0.471182,0.88203601,0,0)"
     ry="0.74140078" /><rect
     style="font-size:12px;fill:url(#radialGradient3762);fill-rule:evenodd"
     id="rect723"
     width="2.9217851"
     height="2.6295981"
     x="84.48484"
     y="68.069763"
     transform="matrix(0.88203601,-0.471182,0.471182,0.88203601,0,0)"
     ry="0.74140078" /><rect
     style="font-size:12px;fill:url(#radialGradient3760);fill-rule:evenodd"
     id="rect724"
     width="2.9217851"
     height="2.6295981"
     x="78.610336"
     y="62.944092"
     transform="matrix(0.88203601,-0.471182,0.471182,0.88203601,0,0)"
     ry="0.74140078" /><rect
     style="font-size:12px;fill:url(#radialGradient3758);fill-rule:evenodd"
     id="rect725"
     width="2.9217851"
     height="2.6295981"
     x="81.967293"
     y="54.799683"
     transform="matrix(0.88203601,-0.471182,0.471182,0.88203601,0,0)"
     ry="0.74140078" /><rect
     style="font-size:12px;fill:url(#radialGradient3756);fill-rule:evenodd"
     id="rect726"
     width="2.9217851"
     height="2.6295981"
     x="73.357033"
     y="54.175171"
     transform="matrix(0.88203601,-0.471182,0.471182,0.88203601,0,0)"
     ry="0.74140078" /><rect
     style="font-size:12px;fill:url(#radialGradient3754);fill-rule:evenodd"
     id="rect727"
     width="2.9217851"
     height="2.6295981"
     x="57.408348"
     y="78.449707"
     transform="matrix(0.88203601,-0.471182,0.471182,0.88203601,0,0)"
     ry="0.74140084" /><rect
     style="font-size:12px;fill:url(#radialGradient3752);fill-rule:evenodd"
     id="rect728"
     width="2.9217863"
     height="2.6295993"
     x="1.4639726"
     y="24.252411"
     transform="matrix(0.49194588,-0.87062578,0.87062578,0.49194588,0,0)"
     ry="0.74140114" /><rect
     style="font-size:12px;fill:url(#radialGradient3750);fill-rule:evenodd"
     id="rect729"
     width="2.9217823"
     height="2.6295955"
     x="24.721228"
     y="4.6585727"
     transform="matrix(0.59199418,0.80594224,-0.80594224,0.59199418,0,0)"
     ry="0.74140018" /><rect
     style="font-size:12px;fill:url(#radialGradient3748);fill-rule:evenodd"
     id="rect730"
     width="2.9217849"
     height="2.6295981"
     x="-18.322647"
     y="38.179272"
     transform="matrix(0.55569395,-0.83138693,0.83138693,0.55569395,0,0)"
     ry="0.74140078" /><rect
     style="font-size:12px;fill:url(#radialGradient3746);fill-rule:evenodd"
     id="rect731"
     width="2.9217856"
     height="2.6295986"
     x="32.954464"
     y="7.0214181"
     transform="matrix(0.99717291,0.07514112,-0.07514112,0.99717291,0,0)"
     ry="0.74140096" /><rect
     style="font-size:12px;fill:url(#radialGradient3744);fill-rule:evenodd"
     id="rect732"
     width="2.9217863"
     height="2.6295993"
     x="21.238922"
     y="29.051037"
     transform="matrix(0.97845674,0.20645195,-0.20645195,0.97845674,0,0)"
     ry="0.74140108" /><rect
     style="font-size:12px;fill:url(#radialGradient3742);fill-rule:evenodd"
     id="rect733"
     width="2.9217851"
     height="2.6295981"
     x="4.9476533"
     y="20.829287"
     transform="matrix(0.88203601,-0.471182,0.471182,0.88203601,0,0)"
     ry="0.74140078" /><rect
     style="font-size:12px;fill:url(#radialGradient3740);fill-rule:evenodd"
     id="rect734"
     width="2.9217851"
     height="2.6295981"
     x="44.416985"
     y="75.484741"
     transform="matrix(0.88203601,-0.471182,0.471182,0.88203601,0,0)"
     ry="0.74140084" /><rect
     style="font-size:12px;fill:url(#radialGradient3738);fill-rule:evenodd"
     id="rect735"
     width="2.9217851"
     height="2.6295981"
     x="37.081001"
     y="71.234619"
     transform="matrix(0.88203601,-0.471182,0.471182,0.88203601,0,0)"
     ry="0.74140084" /><rect
     style="font-size:12px;fill:url(#radialGradient3736);fill-rule:evenodd"
     id="rect736"
     width="2.9217851"
     height="2.6295981"
     x="23.164541"
     y="63.800476"
     transform="matrix(0.88203601,-0.471182,0.471182,0.88203601,0,0)"
     ry="0.74140078" /><rect
     style="font-size:12px;fill:url(#radialGradient3734);fill-rule:evenodd"
     id="rect737"
     width="2.9217851"
     height="2.6295981"
     x="14.487128"
     y="60.821289"
     transform="matrix(0.88203601,-0.471182,0.471182,0.88203601,0,0)"
     ry="0.74140078" /><rect
     style="font-size:12px;fill:url(#radialGradient3732);fill-rule:evenodd"
     id="rect738"
     width="2.9217851"
     height="2.6295981"
     x="10.331824"
     y="54.957764"
     transform="matrix(0.88203601,-0.471182,0.471182,0.88203601,0,0)"
     ry="0.74140084" /><rect
     style="font-size:12px;fill:url(#radialGradient3730);fill-rule:evenodd"
     id="rect739"
     width="2.9217851"
     height="2.6295981"
     x="7.9133363"
     y="47.703186"
     transform="matrix(0.88203601,-0.471182,0.471182,0.88203601,0,0)"
     ry="0.74140078" /><rect
     style="font-size:12px;fill:url(#radialGradient3728);fill-rule:evenodd"
     id="rect740"
     width="2.9217851"
     height="2.6295981"
     x="72.777779"
     y="46.578186"
     transform="matrix(0.88203601,-0.471182,0.471182,0.88203601,0,0)"
     ry="0.74140078" /><rect
     style="font-size:12px;fill:url(#radialGradient3726);fill-rule:evenodd"
     id="rect741"
     width="2.9217851"
     height="2.6295981"
     x="65.837166"
     y="42.208008"
     transform="matrix(0.88203601,-0.471182,0.471182,0.88203601,0,0)"
     ry="0.74140078" /><rect
     style="font-size:12px;fill:url(#radialGradient3724);fill-rule:evenodd"
     id="rect742"
     width="2.9217851"
     height="2.6295981"
     x="60.513359"
     y="36.051453"
     transform="matrix(0.88203601,-0.471182,0.471182,0.88203601,0,0)"
     ry="0.74140084" /><rect
     style="font-size:12px;fill:url(#radialGradient3722);fill-rule:evenodd"
     id="rect743"
     width="2.9217851"
     height="2.6295981"
     x="53.484612"
     y="34.946777"
     transform="matrix(0.88203601,-0.471182,0.471182,0.88203601,0,0)"
     ry="0.74140084" /><rect
     style="font-size:12px;fill:url(#radialGradient3720);fill-rule:evenodd"
     id="rect744"
     width="2.9217851"
     height="2.6295981"
     x="42.145287"
     y="28.889345"
     transform="matrix(0.88203601,-0.471182,0.471182,0.88203601,0,0)"
     ry="0.74140084" /><rect
     style="font-size:12px;fill:url(#radialGradient3718);fill-rule:evenodd"
     id="rect745"
     width="2.9217851"
     height="2.6295981"
     x="46.272026"
     y="26.125002"
     transform="matrix(0.88203601,-0.471182,0.471182,0.88203601,0,0)"
     ry="0.74140084" /><rect
     style="font-size:12px;fill:url(#radialGradient3716);fill-rule:evenodd"
     id="rect746"
     width="2.9217851"
     height="2.6295981"
     x="38.265327"
     y="22.510317"
     transform="matrix(0.88203601,-0.471182,0.471182,0.88203601,0,0)"
     ry="0.74140084" /><rect
     style="font-size:12px;fill:url(#radialGradient3714);fill-rule:evenodd"
     id="rect747"
     width="2.9217851"
     height="2.6295981"
     x="31.166082"
     y="24.018007"
     transform="matrix(0.88203601,-0.471182,0.471182,0.88203601,0,0)"
     ry="0.74140084" /><rect
     style="font-size:12px;fill:url(#radialGradient3712);fill-rule:evenodd"
     id="rect748"
     width="2.9217851"
     height="2.6295981"
     x="74.801788"
     y="78.134827"
     transform="matrix(0.88203601,-0.471182,0.471182,0.88203601,0,0)"
     ry="0.74140084" /><rect
     style="font-size:12px;fill:url(#radialGradient3710);fill-rule:evenodd"
     id="rect749"
     width="2.9217851"
     height="2.6295981"
     x="30.670111"
     y="71.453735"
     transform="matrix(0.88203601,-0.471182,0.471182,0.88203601,0,0)"
     ry="0.74140084" /><rect
     style="font-size:12px;fill:url(#radialGradient3708);fill-rule:evenodd"
     id="rect750"
     width="2.9217851"
     height="2.6295981"
     x="67.480095"
     y="78.198669"
     transform="matrix(0.88203601,-0.471182,0.471182,0.88203601,0,0)"
     ry="0.74140084" /></svg>