<?xml version="1.0" encoding="UTF-8" standalone="no"?>
<!-- Created with Inkscape (http://www.inkscape.org/) -->

<svg
   xmlns:osb="http://www.openswatchbook.org/uri/2009/osb"
   xmlns:dc="http://purl.org/dc/elements/1.1/"
   xmlns:cc="http://creativecommons.org/ns#"
   xmlns:rdf="http://www.w3.org/1999/02/22-rdf-syntax-ns#"
   xmlns:svg="http://www.w3.org/2000/svg"
   xmlns="http://www.w3.org/2000/svg"
   xmlns:sodipodi="http://sodipodi.sourceforge.net/DTD/sodipodi-0.dtd"
   xmlns:inkscape="http://www.inkscape.org/namespaces/inkscape"
   id="svg2"
   version="1.1"
   inkscape:version="0.92.1 r15371"
   width="100"
   height="100"
   sodipodi:docname="strawberry.svg">
  <sodipodi:namedview
     pagecolor="#ffffff"
     bordercolor="#666666"
     borderopacity="1"
     objecttolerance="10"
     gridtolerance="10"
     guidetolerance="10"
     inkscape:pageopacity="0"
     inkscape:pageshadow="2"
     inkscape:window-width="1884"
     inkscape:window-height="1051"
     id="namedview4"
     showgrid="false"
     inkscape:zoom="1.9516147"
     inkscape:cx="249.52786"
     inkscape:cy="34.488224"
     inkscape:window-x="0"
     inkscape:window-y="0"
     inkscape:window-maximized="1"
     inkscape:current-layer="layer1"
     inkscape:snap-global="false"
     showguides="false" />
  <metadata
     id="metadata8">
    <rdf:RDF>
      <cc:Work
         rdf:about="">
        <dc:format>image/svg+xml</dc:format>
        <dc:type
           rdf:resource="http://purl.org/dc/dcmitype/StillImage" />
        <dc:title></dc:title>
        <dc:date>2017</dc:date>
        <dc:creator>
          <cc:Agent>
            <dc:title>Timothée Giet</dc:title>
          </cc:Agent>
        </dc:creator>
        <cc:license
           rdf:resource="http://creativecommons.org/licenses/by-sa/4.0/" />
      </cc:Work>
      <cc:License
         rdf:about="http://creativecommons.org/licenses/by-sa/4.0/">
        <cc:permits
           rdf:resource="http://creativecommons.org/ns#Reproduction" />
        <cc:permits
           rdf:resource="http://creativecommons.org/ns#Distribution" />
        <cc:requires
           rdf:resource="http://creativecommons.org/ns#Notice" />
        <cc:requires
           rdf:resource="http://creativecommons.org/ns#Attribution" />
        <cc:permits
           rdf:resource="http://creativecommons.org/ns#DerivativeWorks" />
        <cc:requires
           rdf:resource="http://creativecommons.org/ns#ShareAlike" />
      </cc:License>
    </rdf:RDF>
  </metadata>
  <defs
     id="defs6">
    <linearGradient
       id="linearGradient4582"
       osb:paint="gradient">
      <stop
         style="stop-color:#ff8c00;stop-opacity:1;"
         offset="0"
         id="stop4578" />
      <stop
         style="stop-color:#ff0300;stop-opacity:0"
         offset="1"
         id="stop4580" />
    </linearGradient>
  </defs>
  <g
     inkscape:groupmode="layer"
     id="layer1"
     inkscape:label="Layer 1">
    <path
       style="fill:#b0231d;fill-opacity:1;stroke:none;stroke-width:1.00155163px;stroke-linecap:butt;stroke-linejoin:miter;stroke-opacity:1"
       d="m 47.514187,27.338557 c -4.618726,0 -18.801107,-2.961796 -23.606802,-0.256596 -4.805695,2.7052 -13.510731,15.847043 -12.059994,25.916158 1.450738,10.069116 31.804222,44.404686 36.949773,45.417428 5.145552,1.012742 11.033604,1.026382 14.112754,-2.565957 3.07915,-3.592339 25.298252,-39.819466 25.402975,-49.266361 0.104722,-9.446894 -11.795604,-22.33942 -15.395742,-22.32382 -3.600147,0.0156 -20.784249,3.079148 -25.402964,3.079148 z"
       id="path881"
       inkscape:connector-curvature="0"
       sodipodi:nodetypes="zzzzzzzz" />
    <path
       style="fill:#e5261f;fill-opacity:1;stroke:none;stroke-width:0.91902822px;stroke-linecap:butt;stroke-linejoin:miter;stroke-opacity:1"
       d="m 47.719014,32.167099 c -4.238166,0 -17.251987,-2.717758 -21.661708,-0.235454 -4.409732,2.482304 -10.394404,12.538213 -9.063201,21.777678 1.331202,9.239465 27.180588,38.742833 31.902173,39.67213 4.721575,0.929296 10.124475,0.941812 12.949922,-2.354534 2.825437,-3.296347 21.21068,-34.535416 21.306779,-43.203927 0.09605,-8.668511 -8.820595,-18.495649 -12.124103,-18.481333 -3.303508,0.01431 -19.071716,2.82544 -23.309862,2.82544 z"
       id="path881-3"
       inkscape:connector-curvature="0"
       sodipodi:nodetypes="zzzzzzzz" />
    <path
       style="fill:#5d9737;fill-opacity:1;stroke:none;stroke-width:1.00155163px;stroke-linecap:butt;stroke-linejoin:miter;stroke-opacity:1"
       d="m 33.658021,28.621538 c -1.230857,-2.164358 -11.183947,-3.55994 -18.218294,-3.592339 9.519147,-2.376854 8.594905,-3.362881 16.678719,0.256595 0.18077,-2.397666 -3.936589,-3.567292 -8.467649,-4.618721 L 16.722704,15.53516 c 18.645877,3.72652 15.36868,4.101492 21.554042,8.467657 6.500411,-1.368512 4.704268,-5.217444 -3.848933,-7.954466 7.070824,-1.887713 11.674927,3.199152 15.395731,6.671487 C 67.471595,2.4698853 44.666205,3.4647253 44.948232,1.165804 c 3.307193,-0.46236975 21.523644,-1.52673367 9.23744,21.810629 4.93103,-5.328907 11.956854,-7.658624 17.961697,-7.184677 -4.971803,1.372004 -11.665362,4.150508 -14.625959,8.211061 10.027996,-3.717143 16.000879,-4.537772 21.297444,-4.875317 -9.421045,2.662264 -16.315215,6.467868 -17.705099,8.724251 -12.77458,2.886715 -19.724056,2.491865 -27.455734,0.769787 z"
       id="path900-6"
       inkscape:connector-curvature="0"
       sodipodi:nodetypes="ccccccccccccccc" />
    <path
       style="fill:#6db63e;fill-opacity:1;stroke:none;stroke-width:1.00155163px;stroke-linecap:butt;stroke-linejoin:miter;stroke-opacity:1"
       d="M 35.454193,27.851748 C 34.223336,25.68739 22.474074,25.061595 15.439727,25.029196 c 9.519147,-2.376854 11.417458,-2.593095 19.501271,1.026382 0.18077,-2.397667 -5.989359,-5.363461 -10.520418,-6.41489 l -7.697876,-4.105531 c 18.645877,3.72652 16.651657,5.384471 22.83702,9.750635 6.50041,-1.368511 3.42129,-6.500422 -5.131911,-9.237444 7.070824,-1.887713 10.905145,4.738726 14.625949,8.211061 C 66.701812,4.0094566 44.666205,3.4647228 44.948232,1.1658014 51.591173,2.4996012 64.675704,0.92204603 52.3895,24.259409 c 4.931029,-5.328908 13.753026,-8.941603 19.757869,-8.467656 -4.971803,1.372004 -13.204937,4.407103 -16.165534,8.467656 10.027995,-3.717143 17.540454,-4.794367 22.837019,-5.131912 -9.421045,2.662264 -17.341595,5.184889 -18.731479,7.441273 -12.77458,2.886715 -16.901504,3.005056 -24.633182,1.282978 z"
       id="path900"
       inkscape:connector-curvature="0"
       sodipodi:nodetypes="ccccccccccccccc" />
    <path
       style="fill:#e6503e;fill-opacity:1;stroke:none;stroke-width:1.00155163px;stroke-linecap:butt;stroke-linejoin:miter;stroke-opacity:1"
       d="m 75.160216,41.451316 c -1.680443,0.284392 -0.15539,4.521503 1.154679,4.618722 1.31007,0.09722 0.525765,-4.903114 -1.154679,-4.618722 z"
       id="path917"
       inkscape:connector-curvature="0"
       sodipodi:nodetypes="zzz" />
    <path
       style="fill:#e6503e;fill-opacity:1;stroke:none;stroke-width:1.00155163px;stroke-linecap:butt;stroke-linejoin:miter;stroke-opacity:1"
       d="m 67.147803,43.454419 c -1.680443,0.284392 -0.15539,4.521503 1.154679,4.618723 1.31007,0.09722 0.525765,-4.903114 -1.154679,-4.618723 z"
       id="path917-7"
       inkscape:connector-curvature="0"
       sodipodi:nodetypes="zzz" />
    <path
       style="fill:#e6503e;fill-opacity:1;stroke:none;stroke-width:1.00155163px;stroke-linecap:butt;stroke-linejoin:miter;stroke-opacity:1"
       d="m 57.132287,45.457522 c -1.680443,0.284392 -0.15539,4.521503 1.154679,4.618723 1.31007,0.09722 0.525765,-4.903114 -1.154679,-4.618723 z"
       id="path917-7-5"
       inkscape:connector-curvature="0"
       sodipodi:nodetypes="zzz" />
    <path
       style="fill:#e6503e;fill-opacity:1;stroke:none;stroke-width:1.00155163px;stroke-linecap:butt;stroke-linejoin:miter;stroke-opacity:1"
       d="m 73.157113,51.466832 c -1.680443,0.284392 -0.155391,4.521503 1.154679,4.618722 1.31007,0.09722 0.525764,-4.903114 -1.154679,-4.618722 z"
       id="path917-3"
       inkscape:connector-curvature="0"
       sodipodi:nodetypes="zzz" />
    <path
       style="fill:#e6503e;fill-opacity:1;stroke:none;stroke-width:1.00155163px;stroke-linecap:butt;stroke-linejoin:miter;stroke-opacity:1"
       d="m 65.1447,53.469935 c -1.680443,0.284392 -0.155391,4.521503 1.154679,4.618723 1.31007,0.09722 0.525765,-4.903114 -1.154679,-4.618723 z"
       id="path917-7-56"
       inkscape:connector-curvature="0"
       sodipodi:nodetypes="zzz" />
    <path
       style="fill:#e6503e;fill-opacity:1;stroke:none;stroke-width:1.00155163px;stroke-linecap:butt;stroke-linejoin:miter;stroke-opacity:1"
       d="m 55.129184,55.473039 c -1.680443,0.284391 -0.155391,4.521502 1.154679,4.618722 1.310069,0.09722 0.525764,-4.903114 -1.154679,-4.618722 z"
       id="path917-7-5-2"
       inkscape:connector-curvature="0"
       sodipodi:nodetypes="zzz" />
    <path
       style="fill:#e6503e;fill-opacity:1;stroke:none;stroke-width:1.00155163px;stroke-linecap:butt;stroke-linejoin:miter;stroke-opacity:1"
       d="m 71.15401,61.482348 c -1.680443,0.284392 -0.155391,4.521503 1.154679,4.618723 1.310069,0.09722 0.525764,-4.903114 -1.154679,-4.618723 z"
       id="path917-9"
       inkscape:connector-curvature="0"
       sodipodi:nodetypes="zzz" />
    <path
       style="fill:#e6503e;fill-opacity:1;stroke:none;stroke-width:1.00155163px;stroke-linecap:butt;stroke-linejoin:miter;stroke-opacity:1"
       d="m 63.141597,63.485451 c -1.680443,0.284392 -0.155391,4.521503 1.154679,4.618723 1.310069,0.09722 0.525764,-4.903114 -1.154679,-4.618723 z"
       id="path917-7-1"
       inkscape:connector-curvature="0"
       sodipodi:nodetypes="zzz" />
    <path
       style="fill:#e6503e;fill-opacity:1;stroke:none;stroke-width:1.00155163px;stroke-linecap:butt;stroke-linejoin:miter;stroke-opacity:1"
       d="m 53.126081,65.488555 c -1.680444,0.284391 -0.155391,4.521502 1.154679,4.618722 1.310069,0.09722 0.525764,-4.903114 -1.154679,-4.618722 z"
       id="path917-7-5-27"
       inkscape:connector-curvature="0"
       sodipodi:nodetypes="zzz" />
    <path
       style="fill:#e6503e;fill-opacity:1;stroke:none;stroke-width:1.00155163px;stroke-linecap:butt;stroke-linejoin:miter;stroke-opacity:1"
       d="m 61.138494,75.504071 c -1.680444,0.284391 -0.155391,4.521503 1.154679,4.618722 1.310069,0.09722 0.525764,-4.903114 -1.154679,-4.618722 z"
       id="path917-7-1-9"
       inkscape:connector-curvature="0"
       sodipodi:nodetypes="zzz" />
    <path
       style="fill:#e6503e;fill-opacity:1;stroke:none;stroke-width:1.00155163px;stroke-linecap:butt;stroke-linejoin:miter;stroke-opacity:1"
       d="m 51.122978,77.507174 c -1.680444,0.284392 -0.155391,4.521503 1.154678,4.618722 1.31007,0.09722 0.525765,-4.903114 -1.154678,-4.618722 z"
       id="path917-7-5-27-3"
       inkscape:connector-curvature="0"
       sodipodi:nodetypes="zzz" />
    <path
       style="fill:#e6503e;fill-opacity:1;stroke:none;stroke-width:1.00155163px;stroke-linecap:butt;stroke-linejoin:miter;stroke-opacity:1"
       d="m 47.116771,47.460626 c -1.680443,0.284391 -0.155391,4.521502 1.154679,4.618722 1.31007,0.09722 0.525764,-4.903114 -1.154679,-4.618722 z"
       id="path917-6"
       inkscape:connector-curvature="0"
       sodipodi:nodetypes="zzz" />
    <path
       style="fill:#e6503e;fill-opacity:1;stroke:none;stroke-width:1.00155163px;stroke-linecap:butt;stroke-linejoin:miter;stroke-opacity:1"
       d="m 39.104358,49.463729 c -1.680443,0.284391 -0.155391,4.521503 1.154679,4.618722 1.31007,0.09722 0.525765,-4.903114 -1.154679,-4.618722 z"
       id="path917-7-0"
       inkscape:connector-curvature="0"
       sodipodi:nodetypes="zzz" />
    <path
       style="fill:#e6503e;fill-opacity:1;stroke:none;stroke-width:1.00155163px;stroke-linecap:butt;stroke-linejoin:miter;stroke-opacity:1"
       d="m 29.088842,51.466832 c -1.680443,0.284392 -0.155391,4.521503 1.154679,4.618722 1.310069,0.09722 0.525764,-4.903114 -1.154679,-4.618722 z"
       id="path917-7-5-6"
       inkscape:connector-curvature="0"
       sodipodi:nodetypes="zzz" />
    <path
       style="fill:#e6503e;fill-opacity:1;stroke:none;stroke-width:1.00155163px;stroke-linecap:butt;stroke-linejoin:miter;stroke-opacity:1"
       d="m 45.113668,57.476142 c -1.680443,0.284391 -0.155391,4.521503 1.154679,4.618722 1.310069,0.09722 0.525764,-4.903114 -1.154679,-4.618722 z"
       id="path917-3-2"
       inkscape:connector-curvature="0"
       sodipodi:nodetypes="zzz" />
    <path
       style="fill:#e6503e;fill-opacity:1;stroke:none;stroke-width:1.00155163px;stroke-linecap:butt;stroke-linejoin:miter;stroke-opacity:1"
       d="m 37.101255,59.479245 c -1.680443,0.284392 -0.155391,4.521503 1.154679,4.618722 1.310069,0.09722 0.525764,-4.903114 -1.154679,-4.618722 z"
       id="path917-7-56-6"
       inkscape:connector-curvature="0"
       sodipodi:nodetypes="zzz" />
    <path
       style="fill:#e6503e;fill-opacity:1;stroke:none;stroke-width:1.00155163px;stroke-linecap:butt;stroke-linejoin:miter;stroke-opacity:1"
       d="m 27.085739,61.482348 c -1.680444,0.284392 -0.155391,4.521503 1.154679,4.618723 1.310069,0.09722 0.525764,-4.903114 -1.154679,-4.618723 z"
       id="path917-7-5-2-1"
       inkscape:connector-curvature="0"
       sodipodi:nodetypes="zzz" />
    <path
       style="fill:#e6503e;fill-opacity:1;stroke:none;stroke-width:1.00155163px;stroke-linecap:butt;stroke-linejoin:miter;stroke-opacity:1"
       d="m 43.110565,67.491658 c -1.680444,0.284392 -0.155391,4.521503 1.154678,4.618722 1.31007,0.09722 0.525765,-4.903114 -1.154678,-4.618722 z"
       id="path917-9-8"
       inkscape:connector-curvature="0"
       sodipodi:nodetypes="zzz" />
    <path
       style="fill:#e6503e;fill-opacity:1;stroke:none;stroke-width:1.00155163px;stroke-linecap:butt;stroke-linejoin:miter;stroke-opacity:1"
       d="m 35.098152,69.494761 c -1.680444,0.284392 -0.155391,4.521503 1.154679,4.618723 1.310069,0.09722 0.525764,-4.903114 -1.154679,-4.618723 z"
       id="path917-7-1-7"
       inkscape:connector-curvature="0"
       sodipodi:nodetypes="zzz" />
    <path
       style="fill:#e6503e;fill-opacity:1;stroke:none;stroke-width:1.00155163px;stroke-linecap:butt;stroke-linejoin:miter;stroke-opacity:1"
       d="m 43.110565,79.510277 c -1.680444,0.284392 -0.155391,4.521503 1.154678,4.618723 1.31007,0.09722 0.525765,-4.903114 -1.154678,-4.618723 z"
       id="path917-7-1-9-2"
       inkscape:connector-curvature="0"
       sodipodi:nodetypes="zzz" />
    <path
       style="fill:#e6503e;fill-opacity:1;stroke:none;stroke-width:1.00155163px;stroke-linecap:butt;stroke-linejoin:miter;stroke-opacity:1"
       d="m 39.104358,39.448213 c -1.680443,0.284391 -0.155391,4.521502 1.154679,4.618722 1.31007,0.09722 0.525765,-4.903114 -1.154679,-4.618722 z"
       id="path917-0"
       inkscape:connector-curvature="0"
       sodipodi:nodetypes="zzz" />
    <path
       style="fill:#e6503e;fill-opacity:1;stroke:none;stroke-width:1.00155163px;stroke-linecap:butt;stroke-linejoin:miter;stroke-opacity:1"
       d="m 31.091945,41.451316 c -1.680443,0.284392 -0.15539,4.521503 1.154679,4.618722 1.31007,0.09722 0.525765,-4.903114 -1.154679,-4.618722 z"
       id="path917-7-2"
       inkscape:connector-curvature="0"
       sodipodi:nodetypes="zzz" />
    <path
       style="fill:#e6503e;fill-opacity:1;stroke:none;stroke-width:1.00155163px;stroke-linecap:butt;stroke-linejoin:miter;stroke-opacity:1"
       d="m 21.076429,43.454419 c -1.680443,0.284392 -0.155391,4.521503 1.154679,4.618723 1.31007,0.09722 0.525764,-4.903114 -1.154679,-4.618723 z"
       id="path917-7-5-3"
       inkscape:connector-curvature="0"
       sodipodi:nodetypes="zzz" />
    <path
       style="fill:#e6503e;fill-opacity:1;stroke:none;stroke-width:1.00155163px;stroke-linecap:butt;stroke-linejoin:miter;stroke-opacity:1"
       d="m 69.150907,33.438903 c -1.680444,0.284392 -0.155391,4.521503 1.154678,4.618722 1.31007,0.09722 0.525765,-4.903114 -1.154678,-4.618722 z"
       id="path917-75"
       inkscape:connector-curvature="0"
       sodipodi:nodetypes="zzz" />
    <path
       style="fill:#e6503e;fill-opacity:1;stroke:none;stroke-width:1.00155163px;stroke-linecap:butt;stroke-linejoin:miter;stroke-opacity:1"
       d="m 61.138494,35.442006 c -1.680444,0.284392 -0.155391,4.521503 1.154679,4.618723 1.310069,0.09722 0.525764,-4.903114 -1.154679,-4.618723 z"
       id="path917-7-9"
       inkscape:connector-curvature="0"
       sodipodi:nodetypes="zzz" />
    <path
       style="fill:#e6503e;fill-opacity:1;stroke:none;stroke-width:1.00155163px;stroke-linecap:butt;stroke-linejoin:miter;stroke-opacity:1"
       d="m 51.122978,37.445109 c -1.680444,0.284392 -0.155391,4.521503 1.154678,4.618723 1.31007,0.09722 0.525765,-4.903114 -1.154678,-4.618723 z"
       id="path917-7-5-22"
       inkscape:connector-curvature="0"
       sodipodi:nodetypes="zzz" />
  </g>
</svg>
