<?xml version="1.0" encoding="UTF-8" standalone="no"?>
<!-- Created with Sodipodi ("http://www.sodipodi.com/") -->

<svg
   xmlns:dc="http://purl.org/dc/elements/1.1/"
   xmlns:cc="http://creativecommons.org/ns#"
   xmlns:rdf="http://www.w3.org/1999/02/22-rdf-syntax-ns#"
   xmlns:svg="http://www.w3.org/2000/svg"
   xmlns="http://www.w3.org/2000/svg"
   xmlns:xlink="http://www.w3.org/1999/xlink"
   xmlns:sodipodi="http://sodipodi.sourceforge.net/DTD/sodipodi-0.dtd"
   xmlns:inkscape="http://www.inkscape.org/namespaces/inkscape"
   id="svg670"
   sodipodi:version="0.34"
   width="119.98754"
   height="143.37529"
   xml:space="preserve"
   sodipodi:docname="boite.svgz"
   version="1.1"
   inkscape:version="0.48.4 r9939"><metadata
     id="metadata3195"><rdf:RDF><cc:Work
         rdf:about=""><dc:format>image/svg+xml</dc:format><dc:type
           rdf:resource="http://purl.org/dc/dcmitype/StillImage" /></cc:Work></rdf:RDF></metadata><defs
     id="defs672"><linearGradient
       id="linearGradient801"><stop
         style="stop-color:#ff6f00;stop-opacity:1;"
         offset="0"
         id="stop802" /><stop
         style="stop-color:#ffdf00;stop-opacity:0.8863;"
         offset="1"
         id="stop803" /></linearGradient><linearGradient
       id="linearGradient773"><stop
         style="stop-color:#ffba00;stop-opacity:1;"
         offset="0"
         id="stop774" /><stop
         style="stop-color:#f2f2f5;stop-opacity:0.8863;"
         offset="1"
         id="stop775" /></linearGradient><linearGradient
       id="linearGradient715"><stop
         style="stop-color:#d9dadf;stop-opacity:1;"
         offset="0"
         id="stop716" /><stop
         style="stop-color:#f2f2f5;stop-opacity:0.8863;"
         offset="1"
         id="stop717" /></linearGradient><linearGradient
       id="linearGradient691"><stop
         style="stop-color:#8d8c8c;stop-opacity:1;"
         offset="0"
         id="stop692" /><stop
         style="stop-color:#f2f2f5;stop-opacity:1;"
         offset="1"
         id="stop693" /></linearGradient><linearGradient
       id="linearGradient680"><stop
         style="stop-color:#d2e6f2;stop-opacity:1;"
         offset="0"
         id="stop681" /><stop
         style="stop-color:#f2f2f5;stop-opacity:0;"
         offset="1"
         id="stop682" /></linearGradient><linearGradient
       xlink:href="#linearGradient715"
       id="linearGradient683"
       x1="197.25272"
       y1="674.31012"
       x2="257.68155"
       y2="612.78107"
       gradientTransform="matrix(0.27196678,0,0,0.38293714,-46.427876,-125.51161)"
       gradientUnits="userSpaceOnUse" /><linearGradient
       xlink:href="#linearGradient773"
       id="linearGradient684"
       x1="194.92877"
       y1="730.0564"
       x2="161.61247"
       y2="706.99994"
       gradientTransform="matrix(0.6990506,-0.03102174,0.01177511,0.26534292,-91.206424,-168.40882)"
       gradientUnits="userSpaceOnUse" /><linearGradient
       xlink:href="#linearGradient801"
       id="linearGradient690"
       x1="170.37257"
       y1="837.98279"
       x2="179.74133"
       y2="855.86676"
       gradientTransform="matrix(0.82000842,-0.03638948,0.01003819,0.22620271,-91.206424,-168.40882)"
       spreadMethod="pad"
       gradientUnits="userSpaceOnUse" /><linearGradient
       xlink:href="#linearGradient773"
       id="linearGradient784"
       gradientTransform="matrix(0.79886031,-0.03545099,0.01030393,0.23219094,-91.206424,-168.40882)"
       x1="168.03333"
       y1="814.47852"
       x2="192.13791"
       y2="814.47852"
       gradientUnits="userSpaceOnUse" /><linearGradient
       xlink:href="#linearGradient801"
       id="linearGradient787"
       gradientTransform="matrix(0.48490596,0,0,0.21477604,-46.427876,-125.51161)"
       x1="95.736977"
       y1="584.34186"
       x2="343.20764"
       y2="584.34186"
       gradientUnits="userSpaceOnUse" /></defs><sodipodi:namedview
     id="base"
     showgrid="false"
     fit-margin-top="0"
     fit-margin-left="0"
     fit-margin-right="0"
     fit-margin-bottom="0"
     inkscape:zoom="4.1149536"
     inkscape:cx="59.995551"
     inkscape:cy="71.694523"
     inkscape:window-width="1366"
     inkscape:window-height="713"
     inkscape:window-x="-2"
     inkscape:window-y="-3"
     inkscape:window-maximized="1"
     inkscape:current-layer="svg670" /><path
     style="font-size:12px;opacity:0.58229998;fill:#dceced;fill-rule:evenodd;stroke:#000000;stroke-width:0.32589692"
     d="m 9.1098934,16.140023 c -7.46234,4.43342 -8.55728998,8.64459 -8.55728998,15.74 l 0,98.519977 c 0,7.09538 6.97626998,12.80757 15.64182958,12.80757 l 36.69826,-0.2463 c 6.11643,-0.1642 11.6312,-2.54511 15.64187,-4.43339 L 104.63128,121.2869 c 7.76315,-3.6945 15.04025,-7.43627 15.04025,-14.53169 l 0,-93.593957 c 0,-7.09541 -6.97627,-12.80762997 -15.64186,-12.80762997 l -45.421657,0.49263 c -3.00801,0.041 -6.6177,0.32835997 -9.02413,1.60089997 L 9.1098934,16.140023 z"
     id="path676"
     sodipodi:nodetypes="ccccccccccccc"
     inkscape:connector-curvature="0" /><path
     style="font-size:12px;fill:#fafafa;fill-opacity:1;fill-rule:evenodd"
     d="m 13.751723,61.484333 c -6.6694596,2.51351 -8.2899796,5.05387 -8.2899796,9.0766 l 0.76235,55.855867 c 0,4.02273 6.2350496,7.26126 13.9798996,7.26126 l 32.79904,-0.13964 c 5.46647,-0.0931 9.97282,-2.12609 13.5574,-3.19661 l 36.908287,-17.63066 c 6.93829,-3.11932 10.48511,-6.60689 10.48511,-10.62962 l -0.42244,-42.133207 c 0,-4.02276 -7.07992,-7.26125 -14.824807,-7.26125 l -10.14893,2.11918 -10.5713,-0.27176 -9.72643,-3.00417 -10.14886,1.43602 c -0.67212,0.006 -1.37781,0.0204 -2.09195,0.0502 -0.71411,0.0298 -1.43661,0.0749 -2.14236,0.14184 -0.70571,0.0669 -1.39462,0.15565 -2.04153,0.27273 -0.64686,0.11708 -1.25179,0.26253 -1.78947,0.44293 l -7.38376,2.58567 -10.76325,3.26886 -8.65104,-1.17146 -9.49598,2.92727 z"
     id="path695"
     sodipodi:nodetypes="ccccccccccccccsssccccc"
     inkscape:connector-curvature="0" /><path
     style="font-size:12px;fill:#d9d9e1;fill-opacity:1;fill-rule:evenodd"
     d="m 8.9819334,64.717213 c 2.4721696,2.44058 5.8184596,-0.0969 8.2906596,2.34363 6.79858,0 11.63053,2.58861 18.42907,2.58861 -7.99108,-3.00381 -10.30086,-5.60933 -15.23278,-9.40962 -3.90184,1.95709 -8.02216,3.11764 -11.4869496,4.47738 z"
     id="path708"
     sodipodi:nodetypes="ccccc"
     inkscape:connector-curvature="0" /><path
     style="font-size:12px;fill:#d9d9e0;fill-opacity:1;fill-rule:evenodd"
     d="m 58.401443,53.014783 c -4.75091,0.11941 -9.7203,1.03531 -14.03422,2.94683 10.45087,-0.91035 16.96843,3.1574 24.14158,6.03038 -9.63965,-6.56525 -4.2018,-5.96203 1.01759,-9.34129 -3.05277,-1.20613 -6.97962,-0.62017 -11.12495,0.36408 z"
     id="path707"
     sodipodi:nodetypes="ccccc"
     inkscape:connector-curvature="0" /><path
     style="font-size:12px;fill:#d9d9e2;fill-opacity:1;fill-rule:evenodd"
     d="m 77.841683,57.691243 c 5.36497,0.92342 7.23379,1.84681 13.9099,6.55358 -3.59623,-4.01273 6.79255,-2.05177 5.38147,-5.06889 -6.79287,-4.40156 6.954577,-2.03289 10.650397,-3.44758 -10.490427,-5.65132 -20.762447,2.63608 -29.941767,1.96289 z"
     id="path710"
     sodipodi:nodetypes="ccccc"
     inkscape:connector-curvature="0" /><path
     style="font-size:12px;fill:#d9d9de;fill-opacity:1;fill-rule:evenodd"
     d="m 54.499443,62.541233 c 0,4.44713 -9.3961,3.71698 -9.3961,8.16412 7.57513,-3.58426 14.4948,0.99561 25.56618,-0.7965 0,-4.44713 10.05166,-1.92488 10.05166,-6.37201 -5.39001,3.58425 -28.69821,6.57113 -26.22174,-0.99561 z"
     id="path712"
     sodipodi:nodetypes="ccccc"
     inkscape:connector-curvature="0" /><path
     style="font-size:12px;opacity:0.52530003;fill:url(#linearGradient683);fill-opacity:1;fill-rule:evenodd"
     d="m 9.1757234,74.956503 c -4.36826,0 -2.452,0.13741 -2.452,4.50564 l -0.36406,45.619937 c 0,4.36826 4.6430896,7.88494 9.0113596,7.88494 l 29.85005,1.12641 c 4.36826,0 2.81603,-1.26382 2.81603,-5.63209 -0.1877,-8.07266 -13.89245,-12.76606 -20.8387,-19.14908 C 22.880483,95.607513 16.872913,75.144193 9.1757234,74.956503 z"
     id="path714"
     sodipodi:nodetypes="cccccccc"
     inkscape:connector-curvature="0" /><path
     style="font-size:12px;fill:#ff8000;fill-rule:evenodd;stroke:#e37200;stroke-width:0.34647536;stroke-opacity:1"
     d="m 74.324843,11.187543 c 0.67355,4.69865 -10.56467,7.96428 -25.0108,9.33326 -14.4461,1.36897 -26.67018,-0.59013 -27.30321,-4.37577 -0.63303,-3.78565 10.56471,-7.96429 25.0108,-9.33329 14.44614,-1.36895 26.67018,0.59015 27.30321,4.3758 z"
     id="path785"
     sodipodi:nodetypes="ccccc"
     inkscape:connector-curvature="0" /><path
     sodipodi:type="arc"
     style="font-size:12px;fill:#ffa100;fill-rule:evenodd;stroke-width:1"
     id="path768"
     d="m 361.64514,414.26318 a 62.640625,24.221008 0 1 1 -125.28125,0 62.640625,24.221008 0 1 1 125.28125,0 z"
     sodipodi:cx="299.00452"
     sodipodi:cy="414.26318"
     sodipodi:rx="62.640625"
     sodipodi:ry="24.221008"
     transform="matrix(0.39251118,-0.03569345,0.04357517,0.24569695,-86.182271,-76.502247)" /><path
     style="font-size:12px;fill:url(#linearGradient784);fill-rule:evenodd"
     d="m 52.562483,20.299483 -0.74124,-2.03474 c -0.25787,-0.38146 0.27496,-0.57597 1.05063,-0.7872 1.53975,-0.41927 4.77504,-1.61689 5.82117,-2.14362 0.46442,-0.24724 1.35707,-0.34669 2.04282,-0.3303 l 9.04834,1.16552 c -3.1064,1.99726 -14.80102,4.14546 -17.22172,4.13034 z m -4e-5,-8.4e-4 -0.94914,-2.52007 c -0.26016,-0.43318 0.27166,-0.65022 1.04631,-0.88472 1.5377,-0.46544 4.96266,-1.58858 6.00597,-2.17851 0.4631,-0.2771 1.3554,-0.38441 2.04143,-0.36188 l 10.04954,1.32776 c -3.09553,2.242 -15.77269,4.64871 -18.19411,4.61742 z"
     id="path783"
     inkscape:connector-curvature="0" /><path
     style="font-size:12px;fill:url(#linearGradient690);fill-rule:evenodd;stroke:none"
     d="m 52.562443,20.298643 -0.67652,-1.97676 c -0.10371,-0.40746 0.39423,-0.68836 0.89275,-0.84525 1.53771,-0.46543 4.96266,-1.58857 6.00598,-2.17851 0.4631,-0.2771 1.29631,-0.31642 1.98234,-0.29389 l 8.98822,1.21147 c -3.70486,1.81165 -12.68055,3.62943 -17.19277,4.08294 z"
     id="path786"
     sodipodi:nodetypes="ccccccc"
     inkscape:connector-curvature="0" /><path
     style="fill:none;stroke:#000000;stroke-width:0.32271688pt;stroke-linecap:round;stroke-linejoin:miter;stroke-opacity:1"
     d="m 51.885623,18.015533 6.90686,-2.52691 c 0.99393,-0.40995 1.38138,-0.41553 2.4427,-0.28638 l 8.23771,1.12867"
     id="path804"
     sodipodi:nodetypes="cccc"
     inkscape:connector-curvature="0" /><path
     style="fill:none;stroke:#000000;stroke-width:0.32271688pt;stroke-linecap:butt;stroke-linejoin:miter;stroke-opacity:1"
     d="m 28.031623,19.363193 c -17.63219,-7.52456 42.16005,-16.93589 45.68648,-6.73842"
     id="path805"
     sodipodi:nodetypes="cc"
     inkscape:connector-curvature="0" /><path
     style="font-size:12px;fill:#ff8900;fill-rule:evenodd"
     d="m 62.853813,10.652233 c 1.05392,3.12123 -28.4524,11.19752 -29.50628,8.07624 -0.85172,-2.85166 4.96662,-7.99849 12.44067,-10.2287 8.14798,-2.23024 16.01182,-0.96879 17.06561,2.15246 z"
     id="path770"
     sodipodi:nodetypes="cccc"
     inkscape:connector-curvature="0" /><path
     style="font-size:12px;fill:url(#linearGradient684);fill-rule:evenodd"
     d="m 33.922173,18.950763 c 3.05777,1.11811 12.29719,-1.16764 9.52888,-1.04904 -12.1495,0.27995 -1.8168,-7.69167 3.36452,-8.9309 13.22292,-3.1384 14.86366,2.1313 15.61097,1.05817 0.30931,-0.30541 -4.82984,-4.36176 -15.07203,-1.88869 -10.78988,2.46653 -15.8421,9.87845 -13.43234,10.81046 z"
     id="path772"
     sodipodi:nodetypes="ccssss"
     inkscape:connector-curvature="0" /><path
     style="font-size:12px;fill:url(#linearGradient787);fill-rule:evenodd;stroke:#e37200;stroke-width:0.32271689"
     d="m 0.26680342,39.903643 c -0.72318,-20.80663 2.01875998,-22.15084 11.33458958,-25.17579 l 41.10287,-13.34648 c 3.69362,-1.19933997 9.2915,-0.98889997 15.4268,-1.02335997 l 36.542297,-0.20535 c 9.24723,-0.0519 15.19041,6.88642997 15.16072,12.18717997 l -0.09,16.07285 c -0.009,1.65741 -1.98639,2.69656 -3.48693,3.28126 l -49.438577,19.26487 c -3.96364,1.54452 -8.13369,2.0631 -12.2767,2.01905 L 4.5468034,52.446003 c -4.02562998,-0.0428 -3.97076998,-3.64512 -3.99626998,-4.37924 l -0.28373,-8.16312 z M 74.324843,11.187553 c 0.67354,4.69863 -10.56465,7.96426 -25.01082,9.33326 -14.4461,1.36896 -26.67016,-0.59012 -27.3032,-4.37578 -0.63301,-3.78563 10.56472,-7.9643 25.01082,-9.3333 14.44613,-1.36893 26.67016,0.59015 27.3032,4.37582 z"
     id="path849"
     sodipodi:nodetypes="cssssssssssssccccc"
     inkscape:connector-curvature="0" /><path
     style="fill:#ffffff;fill-opacity:1;fill-rule:evenodd;stroke:none"
     d="m 62.969953,22.463923 c -3.48141,0.84497 -50.99656,-1.57089 -51.19603,0.46423 -0.22064,1.9159 40.15779,-0.41757 43.87933,1.56585 3.70772,2.18334 4.90855,3.45027 4.98791,7.08564 0.0447,12.98419 0.78401,84.879537 -0.36751,96.111087 -0.3324,5.14217 -2.24027,8.53473 -4.88697,9.03436 -2.911,0.60077 -44.17019,-0.58841 -43.936,0.95728 -0.28602,2.08387 35.1663,1.81789 42.09429,1.84455 5.64245,-0.77091 8.39516,-1.26554 12.93859,-3.6781 5.98724,-3.63105 46.252457,-21.98612 46.371537,-25.83223 -0.0465,-2.36645 -47.071997,25.10902 -50.045507,23.85681 -2.79127,-1.93662 -0.37929,-99.968487 0.40359,-102.054237 0.70924,-4.08663 1.79082,-5.65465 4.70512,-8.06512 4.77559,-2.91613 39.801957,-14.90193 39.147907,-15.81474 -0.77346,-1.17278 -40.062107,13.58283 -44.096257,14.52462 z"
     id="path699"
     sodipodi:nodetypes="ccccccccccccccc"
     inkscape:connector-curvature="0" /></svg>