<?xml version="1.0" encoding="UTF-8" standalone="no"?>
<!-- Created with Inkscape (http://www.inkscape.org/) -->

<svg
   xmlns:dc="http://purl.org/dc/elements/1.1/"
   xmlns:cc="http://creativecommons.org/ns#"
   xmlns:rdf="http://www.w3.org/1999/02/22-rdf-syntax-ns#"
   xmlns:svg="http://www.w3.org/2000/svg"
   xmlns="http://www.w3.org/2000/svg"
   xmlns:sodipodi="http://sodipodi.sourceforge.net/DTD/sodipodi-0.dtd"
   xmlns:inkscape="http://www.inkscape.org/namespaces/inkscape"
   width="647.90533"
   height="400"
   id="svg12024"
   sodipodi:version="0.32"
   inkscape:version="0.92.1 r15371"
   version="1.0"
   sodipodi:docname="turtle.svg">
  <defs
     id="defs12026" />
  <sodipodi:namedview
     id="base"
     pagecolor="#ffffff"
     bordercolor="#666666"
     borderopacity="1.0"
     inkscape:pageopacity="0.0"
     inkscape:pageshadow="2"
     inkscape:zoom="0.66954455"
     inkscape:cx="35.607369"
     inkscape:cy="35.03937"
     inkscape:document-units="px"
     inkscape:current-layer="layer2"
     height="100px"
     width="100px"
     inkscape:window-width="1884"
     inkscape:window-height="1051"
     inkscape:window-x="0"
     inkscape:window-y="0"
     showgrid="false"
     inkscape:window-maximized="1"
     fit-margin-top="0"
     fit-margin-left="0"
     fit-margin-right="0"
     fit-margin-bottom="0" />
  <metadata
     id="metadata12029">
    <rdf:RDF>
      <cc:Work
         rdf:about="">
        <dc:format>image/svg+xml</dc:format>
        <dc:type
           rdf:resource="http://purl.org/dc/dcmitype/StillImage" />
        <dc:title></dc:title>
        <dc:date>2015</dc:date>
        <dc:creator>
          <cc:Agent>
            <dc:title>Timothée Giet</dc:title>
          </cc:Agent>
        </dc:creator>
        <cc:license
           rdf:resource="http://creativecommons.org/licenses/by-sa/4.0/" />
      </cc:Work>
      <cc:License
         rdf:about="http://creativecommons.org/licenses/by-sa/4.0/">
        <cc:permits
           rdf:resource="http://creativecommons.org/ns#Reproduction" />
        <cc:permits
           rdf:resource="http://creativecommons.org/ns#Distribution" />
        <cc:requires
           rdf:resource="http://creativecommons.org/ns#Notice" />
        <cc:requires
           rdf:resource="http://creativecommons.org/ns#Attribution" />
        <cc:permits
           rdf:resource="http://creativecommons.org/ns#DerivativeWorks" />
        <cc:requires
           rdf:resource="http://creativecommons.org/ns#ShareAlike" />
      </cc:License>
    </rdf:RDF>
  </metadata>
  <g
     inkscape:groupmode="layer"
     id="layer2"
     inkscape:label="Calque 2"
     style="opacity:1"
     transform="translate(-4.7510338,310.0726)">
    <path
       style="opacity:1;fill:#377d25;fill-opacity:1;fill-rule:evenodd;stroke:none;stroke-width:7.49041414px;stroke-linecap:butt;stroke-linejoin:miter;stroke-opacity:1"
       d="m 441.77608,-37.808295 c 5.09418,30.674213 8.28813,45.993129 5.61976,47.3030601 -2.66838,1.3099309 -24.62184,5.1669479 -31.8588,11.4618919 -7.23697,6.294944 -18.23392,19.685341 -6.30708,27.617697 11.92683,7.932364 54.90389,24.63398 72.24834,20.158383 17.34445,-4.47559 52.19509,-25.980285 53.974,-34.021807 1.77891,-8.041521 -17.87004,-60.511522 -16.09113,-70.226851 1.77893,-9.715307 -70.71201,-7.677637 -77.58509,-2.292374 z"
       id="path4153-7-6-2"
       inkscape:connector-curvature="0"
       sodipodi:nodetypes="cssssssc" />
    <path
       style="opacity:1;fill:#377d25;fill-opacity:1;fill-rule:evenodd;stroke:none;stroke-width:7.49041414px;stroke-linecap:butt;stroke-linejoin:miter;stroke-opacity:1"
       d="m 187.10199,-38.797127 c 5.09418,30.6742129 8.28813,45.9931289 5.61976,47.3030601 -2.66838,1.3099311 -24.62183,5.1669479 -31.85879,11.4618919 -7.23698,6.294944 -18.23393,19.685341 -6.30708,27.617697 11.92683,7.932364 54.90388,24.63398 72.24833,20.158383 17.34445,-4.47559 52.19509,-25.980285 53.974,-34.021807 1.77892,-8.041521 -17.87004,-60.511522 -16.09112,-70.226851 1.77892,-9.715307 -70.71202,-7.677637 -77.5851,-2.292374 z"
       id="path4153-7-6"
       inkscape:connector-curvature="0"
       sodipodi:nodetypes="cssssssc" />
    <path
       style="opacity:1;fill:#3d9f22;fill-opacity:1;fill-rule:evenodd;stroke:none;stroke-width:7.49041414px;stroke-linecap:butt;stroke-linejoin:miter;stroke-opacity:1"
       d="m 187.37757,-20.63506 c 3.78383,22.7840732 6.15624,34.162589 4.17423,35.135579 -1.98201,0.972983 -18.28852,3.837886 -23.66396,8.51362 -5.37544,4.675734 -13.54372,14.621798 -4.68474,20.513766 8.85896,5.891967 40.78129,18.297531 53.66433,14.973166 12.88305,-3.324366 38.76926,-19.29754 40.0906,-25.270583 1.32134,-5.973052 -13.27344,-44.946516 -11.9521,-52.162827 1.32133,-7.216302 -52.52319,-5.702767 -57.62836,-1.702721 z"
       id="path4153-7"
       inkscape:connector-curvature="0"
       sodipodi:nodetypes="cssssssc" />
    <path
       style="opacity:1;fill:#3d9f22;fill-opacity:1;fill-rule:evenodd;stroke:none;stroke-width:7.49041414px;stroke-linecap:butt;stroke-linejoin:miter;stroke-opacity:1"
       d="m 442.05166,-20.63506 c 3.78383,22.7840732 6.15623,34.162589 4.17422,35.135579 -1.982,0.972983 -18.28851,3.837886 -23.66395,8.51362 -5.37545,4.675734 -13.54372,14.621798 -4.68475,20.513766 8.85897,5.891967 40.78129,18.297531 53.66434,14.973166 12.88304,-3.324366 38.76926,-19.29754 40.0906,-25.270583 1.32133,-5.973052 -13.27345,-44.946516 -11.95211,-52.162827 1.32134,-7.216302 -52.52319,-5.702767 -57.62835,-1.702721 z"
       id="path4153-7-3"
       inkscape:connector-curvature="0"
       sodipodi:nodetypes="cssssssc" />
    <path
       inkscape:connector-curvature="0"
       style="opacity:1;fill:#377d25;fill-opacity:1;fill-rule:evenodd;stroke:none;stroke-width:7.49041414px;stroke-linecap:butt;stroke-linejoin:miter;stroke-opacity:1"
       d="m 89.047312,-242.04815 c -26.259625,-0.63893 -56.301894,10.0533 -67.770455,28.0888 -14.8957481,48.26222 -20.47961235,62.46933 -13.621362,80.42802 6.85825,17.95868 20.558825,37.530073 33.761733,38.62246 17.030835,1.409112 47.511683,-15.58608 51.049428,-11.31286 39.095284,63.819706 47.452354,98.9099529 85.622864,116.033055 4.37341,1.555879 16.30212,2.536015 36.38205,5.15581 1.84498,16.649153 -3.43322,11.740827 -23.78079,23.100377 -5.55487,4.831805 -9.96838,24.40428 -0.8137,30.492915 9.15467,6.088644 45.50333,23.348708 58.81641,19.913372 13.31308,-3.435329 47.52067,-25.978667 48.88611,-32.151091 0.93128,-4.209807 -5.0499,-18.69307 -8.98403,-33.398409 69.89894,17.416532 127.96282,18.08207 180.21599,0.983035 2.81705,12.527807 -15.17351,9.266189 -21.85278,15.133161 -5.55487,4.831804 -13.81227,23.458322 -4.6576,29.546958 9.15468,6.088643 46.49434,24.348715 59.80741,20.913379 13.31308,-3.435329 47.67083,-28.384109 49.03627,-34.556532 1.20827,-5.461928 -7.18523,-26.634018 -8.94186,-39.133588 31.59129,16.183513 79.96565,28.204279 110.45339,17.497196 -6.80129,-13.875558 -48.93818,-45.588174 -55.08268,-63.490999 -6.1445,-17.902832 -76.4954,-101.408409 -108.14885,-108.055649 -31.65347,-6.64722 -278.99565,1.38313 -300.66775,-11.7002 -37.40231,-22.57958 -29.45007,-67.04751 -43.4202,-78.47896 -5.8548,-4.79086 -35.86546,-13.13332 -56.289598,-13.63025 z"
       id="path4151-2"
       sodipodi:nodetypes="scssccccssscccsssccsssss" />
    <path
       style="fill:#54c136;fill-opacity:1;fill-rule:evenodd;stroke:none;stroke-width:7.49041414px;stroke-linecap:butt;stroke-linejoin:miter;stroke-opacity:1"
       d="m 93.688103,-232.87474 c -25.411403,-0.61826 -54.296718,4.71109 -65.39483,22.16402 -14.414595,46.70329 -19.818093,60.45149 -13.181373,77.83009 6.63672,17.37859 18.619361,26.33003 31.32222,28.05978 12.702866,1.72976 47.517196,-14.87339 50.940667,-10.7382 37.832453,61.758248 45.105893,98.565852 82.043443,115.13585489 4.23214,1.50561821 21.18077,3.81396921 40.61209,6.34930211 2.7063,15.920067 4.43544,25.842499 2.77965,26.655336 -1.98201,0.972982 -18.29543,3.838763 -23.67088,8.514496 -5.37544,4.675734 -13.54048,14.618892 -4.68151,20.51086 8.85897,5.891967 40.77876,18.305194 53.6618,14.980828 12.88304,-3.324365 38.77871,-19.307104 40.10005,-25.280148 0.9012,-4.073827 -5.43893,-23.163208 -9.24598,-37.393549 14.17066,2.106117 26.53031,4.214774 33.5313,6.18837 25.88622,7.297394 127.29752,13.861012 158.46908,-3.950025 1.67606,-0.957679 3.33357,-1.662033 5.00337,-2.516307 1.78636,10.77201 2.86575,18.278379 1.50686,18.945475 -1.98201,0.972982 -18.29544,3.838763 -23.67088,8.514496 -5.37544,4.675734 -13.54048,14.618892 -4.68151,20.51086 8.85897,5.891967 40.77875,18.305194 53.66179,14.980828 12.88305,-3.324365 38.77872,-19.307104 40.10006,-25.280148 1.16924,-5.285506 -10.09167,-36.313911 -11.79156,-48.409724 7.46666,1.1497486 14.25165,3.3381256 19.82327,6.6565215 18.3786,10.9460795 90.4702,24.7635425 89.32904,18.3310285 -1.14115,-6.43252 -44.71668,-35.0352068 -50.6627,-52.359749 -5.94602,-17.324542 -74.80535,-105.382396 -105.43636,-111.814916 -30.63102,-6.43252 -269.38359,14.78333 -290.95578,3.17465 -43.39394,-23.35164 -43.81173,-79.54887 -56.5146,-90.4409 -5.55749,-4.76527 -23.23231,-8.83826 -42.996727,-9.31913 z"
       id="path4151"
       inkscape:connector-curvature="0" />
    <path
       style="opacity:1;fill:#377d25;fill-opacity:1;fill-rule:evenodd;stroke:none;stroke-width:7.49041414px;stroke-linecap:butt;stroke-linejoin:miter;stroke-opacity:1"
       d="m 74.118279,-218.37825 c -22.703296,3.18789 -43.399386,18.38359 -38.238011,47.80342 5.161368,29.41983 38.558496,25.57916 50.061945,12.97933 11.503449,-12.59982 17.862397,-64.15283 -11.823934,-60.78275 z"
       id="path4200-1"
       inkscape:connector-curvature="0"
       sodipodi:nodetypes="cssc" />
    <path
       style="fill:#dfe5de;fill-opacity:1;fill-rule:evenodd;stroke:none;stroke-width:7.49041414px;stroke-linecap:butt;stroke-linejoin:miter;stroke-opacity:1"
       d="m 71.753129,-215.22989 c -20.210464,2.83787 -38.634112,16.36507 -34.039462,42.55459 4.59465,26.18951 34.324756,22.77055 44.565119,11.55419 10.24037,-11.21635 15.901101,-57.10882 -10.525657,-54.10878 z"
       id="path4200"
       inkscape:connector-curvature="0"
       sodipodi:nodetypes="cssc" />
    <path
       style="fill:#3bada3;fill-opacity:1;fill-rule:evenodd;stroke:none;stroke-width:7.49041414px;stroke-linecap:butt;stroke-linejoin:miter;stroke-opacity:1"
       d="m 58.565647,-203.92578 c -20.696787,-0.0682 -18.619553,36.40443 -2.681523,37.83206 15.938029,1.42762 24.435806,-38.30794 2.681523,-37.83206 z"
       id="path4202"
       inkscape:connector-curvature="0"
       sodipodi:nodetypes="csc" />
    <path
       style="opacity:1;fill:#243a20;fill-opacity:1;fill-rule:evenodd;stroke:none;stroke-width:7.49041414px;stroke-linecap:butt;stroke-linejoin:miter;stroke-opacity:1"
       d="m 53.123442,-192.77063 c -7.662709,-0.0225 -6.893631,12.28581 -0.992795,12.7676 5.900844,0.48179 9.047035,-12.9282 0.992795,-12.7676 z"
       id="path4202-5"
       inkscape:connector-curvature="0"
       sodipodi:nodetypes="csc" />
    <path
       style="color:#000000;clip-rule:nonzero;display:inline;overflow:visible;visibility:visible;opacity:1;isolation:auto;mix-blend-mode:normal;color-interpolation:sRGB;color-interpolation-filters:linearRGB;solid-color:#000000;solid-opacity:1;fill:#f1f4f2;fill-opacity:1;fill-rule:nonzero;stroke:none;stroke-width:8.89112186;stroke-linecap:butt;stroke-linejoin:miter;stroke-miterlimit:4;stroke-dasharray:none;stroke-dashoffset:0;stroke-opacity:1;marker:none;color-rendering:auto;image-rendering:auto;shape-rendering:auto;text-rendering:auto;enable-background:accumulate"
       id="path4219"
       sodipodi:type="arc"
       sodipodi:cx="51.592247"
       sodipodi:cy="-180.59708"
       sodipodi:rx="3.4534969"
       sodipodi:ry="3.074363"
       sodipodi:start="0.14344896"
       sodipodi:end="0.14048923"
       sodipodi:open="true"
       d="m 55.010272,-180.15757 a 3.4534969,3.074363 0 0 1 -3.909199,2.6036 3.4534969,3.074363 0 0 1 -2.927578,-3.47811 3.4534969,3.074363 0 0 1 3.904867,-2.60875 3.4534969,3.074363 0 0 1 2.933357,3.47425" />
    <path
       style="color:#000000;clip-rule:nonzero;display:inline;overflow:visible;visibility:visible;opacity:1;isolation:auto;mix-blend-mode:normal;color-interpolation:sRGB;color-interpolation-filters:linearRGB;solid-color:#000000;solid-opacity:1;fill:#f1f4f2;fill-opacity:1;fill-rule:nonzero;stroke:none;stroke-width:8.89112186;stroke-linecap:butt;stroke-linejoin:miter;stroke-miterlimit:4;stroke-dasharray:none;stroke-dashoffset:0;stroke-opacity:1;marker:none;color-rendering:auto;image-rendering:auto;shape-rendering:auto;text-rendering:auto;enable-background:accumulate"
       id="path4219-6"
       sodipodi:type="arc"
       sodipodi:cx="52.158554"
       sodipodi:cy="-174.30241"
       sodipodi:rx="2.1696968"
       sodipodi:ry="1.6621832"
       sodipodi:start="0.14344896"
       sodipodi:end="0.14048923"
       sodipodi:open="true"
       d="m 54.305966,-174.06479 a 2.1696968,1.6621832 0 0 1 -2.455997,1.40766 2.1696968,1.6621832 0 0 1 -1.839283,-1.88047 2.1696968,1.6621832 0 0 1 2.453275,-1.41045 2.1696968,1.6621832 0 0 1 1.842913,1.87839" />
    <path
       style="opacity:1;fill:#485a23;fill-opacity:1;fill-rule:evenodd;stroke:none;stroke-width:7.49041414px;stroke-linecap:butt;stroke-linejoin:miter;stroke-opacity:1"
       d="m 207.12607,-4.6345083 c 48.29149,3.76445754 389.62745,9.7248424 404.61556,-3.2796405 14.9881,-13.0044832 32.25771,-34.7926972 31.90914,-44.7742062 -0.34853,-9.981509 -11.02718,-87.894315 -16.66753,-98.018425 -5.64035,-10.1241 -57.57589,-160.24602 -209.19978,-159.36193 -151.62389,0.88407 -225.26525,104.94844 -234.80314,147.24153 -9.5379,42.29308 8.36545,143.59115 24.14575,158.1926717 z"
       id="path4273-0"
       inkscape:connector-curvature="0" />
    <path
       style="fill:#688829;fill-opacity:1;fill-rule:evenodd;stroke:none;stroke-width:7.49041414px;stroke-linecap:butt;stroke-linejoin:miter;stroke-opacity:1"
       d="m 216.43963,-13.896031 c 45.76635,3.567617 369.2539,9.216333 383.45828,-3.108148 14.20438,-12.32448 30.57095,-32.973388 30.24062,-42.432965 -0.33033,-9.459576 -10.45058,-83.298346 -15.796,-92.893056 -5.34541,-9.59472 -54.56524,-151.86678 -198.26075,-151.02892 -143.6955,0.83784 -213.48616,99.4607 -222.52532,139.54229 -9.03915,40.08158 7.92803,136.08279 22.88317,149.920799 z"
       id="path4273"
       inkscape:connector-curvature="0" />
    <path
       style="opacity:1;fill:#eb3d38;fill-opacity:1;fill-rule:evenodd;stroke:#b42724;stroke-width:7.49041414px;stroke-linecap:butt;stroke-linejoin:miter;stroke-opacity:1"
       d="m 399.13196,-289.53934 c -118.40456,8.32396 -176.39542,91.23378 -184.21737,125.91796 -0.30569,1.35539 -0.51931,2.91374 -0.76074,4.40355 h 184.97811 z"
       id="path4273-2"
       inkscape:connector-curvature="0"
       sodipodi:nodetypes="ccccc" />
    <path
       style="opacity:1;fill:#efb634;fill-opacity:1;fill-rule:evenodd;stroke:#866414;stroke-width:7.49041414px;stroke-linecap:butt;stroke-linejoin:miter;stroke-opacity:1"
       d="m 416.89245,-289.79896 c -0.8826,0.005 -1.72759,0.0599 -2.60412,0.0734 v 130.99447 h 179.85773 c -11.23944,-25.72326 -58.49137,-131.76036 -177.25361,-131.06787 z"
       id="path4273-2-0"
       inkscape:connector-curvature="0"
       sodipodi:nodetypes="scccs" />
    <path
       style="opacity:1;fill:#357ce6;fill-opacity:1;fill-rule:evenodd;stroke:#1950a3;stroke-width:7.49041414px;stroke-linecap:butt;stroke-linejoin:miter;stroke-opacity:1"
       d="m 414.28833,-143.57496 v 120.461083 c 82.42422,0.389651 162.84311,-1.021243 169.45602,-6.758931 12.89295,-11.186604 27.74517,-29.93383 27.44533,-38.52004 -0.24943,-7.147391 -6.64775,-54.393262 -11.5867,-75.182112 z"
       id="path4273-2-0-3"
       inkscape:connector-curvature="0"
       sodipodi:nodetypes="ccsccc" />
    <path
       style="opacity:1;fill:#e85de9;fill-opacity:1;fill-rule:evenodd;stroke:#ac24ad;stroke-width:7.49041414px;stroke-linecap:butt;stroke-linejoin:miter;stroke-opacity:1"
       d="m 212.77865,-143.57496 c -1.41847,41.47328 11.38054,105.857344 22.91014,116.525709 18.91804,1.474713 90.28786,3.279378 163.44321,3.818313 V -143.57496 Z"
       id="path4273-2-0-3-6"
       inkscape:connector-curvature="0"
       sodipodi:nodetypes="ccccc" />
    <path
       style="fill:#377d25;fill-opacity:1;fill-rule:evenodd;stroke:none;stroke-width:7.49041414px;stroke-linecap:butt;stroke-linejoin:miter;stroke-opacity:1"
       d="m 29.374634,-110.3088 c 18.62284,-0.97467 28.292313,-5.17291 40.162515,-13.62008 -5.924483,9.03961 -21.622631,19.85849 -36.147174,19.5336"
       id="path4414"
       inkscape:connector-curvature="0"
       sodipodi:nodetypes="ccc" />
  </g>
  <g
     inkscape:label="Calque 1"
     inkscape:groupmode="layer"
     id="layer1"
     style="opacity:1"
     transform="translate(-4.7510338,310.0726)" />
</svg>
