<!--Created with Inkscape (http://www.inkscape.org/)--><svg xmlns:dc="http://purl.org/dc/elements/1.1/" xmlns:cc="http://creativecommons.org/ns#" xmlns:rdf="http://www.w3.org/1999/02/22-rdf-syntax-ns#" xmlns="http://www.w3.org/2000/svg" xmlns:xlink="http://www.w3.org/1999/xlink" xmlns:sodipodi="http://sodipodi.sourceforge.net/DTD/sodipodi-0.dtd" xmlns:inkscape="http://www.inkscape.org/namespaces/inkscape" width="100" height="100" sodipodi:version="0.32" inkscape:version="0.92.1 r15371" version="1.0" sodipodi:docname="checkers.svg"><sodipodi:namedview pagecolor="#ffffff" bordercolor="#666666" borderopacity="1.0" inkscape:pageopacity="0.0" inkscape:pageshadow="2" inkscape:zoom="4.1511271" inkscape:cx="10.712546" inkscape:cy="56.513815" inkscape:document-units="px" inkscape:current-layer="g22968" width="100px" height="100px" inkscape:window-width="1884" inkscape:window-height="1051" inkscape:window-x="0" inkscape:window-y="0" showgrid="false" inkscape:window-maximized="1"/><defs><linearGradient inkscape:collect="always" xlink:href="#a" id="d" x1="940.9632" y1="637.41199" x2="945.6795" y2="650.04968" gradientUnits="userSpaceOnUse" gradientTransform="matrix(1 0 0 1.08592 0 -53.897)"/><linearGradient inkscape:collect="always" id="a"><stop style="stop-color:#275eb1;stop-opacity:1" offset="0"/><stop style="stop-color:#e6ecf9;stop-opacity:1" offset="1"/></linearGradient><linearGradient inkscape:collect="always" xlink:href="#a" id="e" x1="940.9632" y1="637.41199" x2="945.6795" y2="650.04968" gradientUnits="userSpaceOnUse" gradientTransform="matrix(-1 0 0 1.08592 1919.998 -53.897)"/><linearGradient id="b"><stop offset="0" style="stop-color:#f0f4f4;stop-opacity:1"/><stop offset="1" style="stop-color:#b4c8c8;stop-opacity:1"/></linearGradient><linearGradient gradientTransform="translate(-20)" y2="12" x2="52" y1="48" x1="16" gradientUnits="userSpaceOnUse" id="j" xlink:href="#b"/><linearGradient gradientUnits="userSpaceOnUse" y2="52" x2="52" y1="12" x1="12" id="h" xlink:href="#c" gradientTransform="translate(0 -.179)"/><linearGradient gradientUnits="userSpaceOnUse" y2="12" x2="12" y1="52" x1="52" id="i" xlink:href="#c" gradientTransform="translate(0 -.179)"/><linearGradient id="c"><stop offset="0" style="stop-color:#425a5a;stop-opacity:1"/><stop offset="1" style="stop-color:#161e1e;stop-opacity:1"/></linearGradient><linearGradient gradientTransform="matrix(.57143 0 0 .57143 -133.402 62.043)" xlink:href="#b" id="g" x1="52" y1="52" x2="12" y2="12" gradientUnits="userSpaceOnUse"/><linearGradient gradientTransform="matrix(.57143 0 0 .57143 -133.402 62.043)" xlink:href="#b" id="f" x1="12" y1="12" x2="52" y2="52" gradientUnits="userSpaceOnUse"/></defs><metadata><rdf:RDF><cc:Work><dc:format>image/svg+xml</dc:format><dc:type rdf:resource="http://purl.org/dc/dcmitype/StillImage"/><dc:title/><dc:date>2017</dc:date><dc:creator><cc:Agent><dc:title>Timothée Giet</dc:title></cc:Agent></dc:creator><cc:license rdf:resource="http://creativecommons.org/licenses/by-sa/4.0/"/></cc:Work><cc:License rdf:about="http://creativecommons.org/licenses/by-sa/4.0/"><cc:permits rdf:resource="http://creativecommons.org/ns#Reproduction"/><cc:permits rdf:resource="http://creativecommons.org/ns#Distribution"/><cc:requires rdf:resource="http://creativecommons.org/ns#Notice"/><cc:requires rdf:resource="http://creativecommons.org/ns#Attribution"/><cc:permits rdf:resource="http://creativecommons.org/ns#DerivativeWorks"/><cc:requires rdf:resource="http://creativecommons.org/ns#ShareAlike"/></cc:License></rdf:RDF></metadata><g style="display:inline"><g style="stroke:none" inkscape:groupmode="layer" inkscape:label="Calque 1"><g transform="matrix(.72444 -.19411 .19411 .72444 -240.796 -647.585)" style="stroke-width:1.33333373"><rect rx="2.8899311e-07" y="988.36218" height="64" width="64" style="color:#000;clip-rule:nonzero;display:inline;overflow:visible;visibility:visible;opacity:1;isolation:auto;mix-blend-mode:normal;color-interpolation:sRGB;color-interpolation-filters:linearRGB;solid-color:#000;solid-opacity:1;fill:#eeddc0;fill-opacity:1;fill-rule:evenodd;stroke:none;stroke-width:1.33333373px;stroke-linecap:butt;stroke-linejoin:miter;stroke-miterlimit:4;stroke-dasharray:none;stroke-dashoffset:0;stroke-opacity:1;marker:none;color-rendering:auto;image-rendering:auto;shape-rendering:auto;text-rendering:auto;enable-background:accumulate"/><path d="M0 988.362v64h6.572c-.71-18.651.097-42.483 1.666-64zm9.158 0c-1.572 21.549-2.37 45.52-1.668 64h6.432c-.83-18.66.107-42.487 1.937-64zm7.627 0c-1.836 21.55-2.763 45.535-1.943 64h.896c-.829-18.66.107-42.487 1.938-64zm1.817 0c-1.837 21.55-2.763 45.535-1.944 64h1.791c-.838-18.85.108-42.523 1.934-64zm4.554 0c-1.842 21.587-2.754 45.737-1.945 64h1.102c-.83-18.66.106-42.487 1.937-64zm2.02 0c-1.836 21.55-2.763 45.535-1.944 64h3.022c-.954-18.777.125-42.511 2.215-64zm5.152 0c-2.105 21.575-3.156 45.658-2.224 64h8.04c-1.234-18.628.162-42.484 2.897-64zm9.186 0c-2.743 21.546-4.132 45.503-2.905 64h2.248c-1.234-18.628.16-42.485 2.895-64zm2.713 0c-2.743 21.546-4.13 45.503-2.903 64h4.492c-1.241-18.757.163-42.511 2.891-64zm5.894 0c-2.75 21.576-4.127 45.636-2.906 64h3.463c-1.235-18.628.163-42.484 2.898-64zm3.928 0c-2.743 21.546-4.132 45.503-2.904 64h5.88c-1.414-18.703.186-42.503 3.307-64zm7.238 0c-3.144 21.566-4.724 45.58-3.322 64H64v-64z" style="color:#000;clip-rule:nonzero;display:inline;overflow:visible;visibility:visible;opacity:1;isolation:auto;mix-blend-mode:normal;color-interpolation:sRGB;color-interpolation-filters:linearRGB;solid-color:#000;solid-opacity:1;fill:#ecdabc;fill-opacity:1;fill-rule:evenodd;stroke:none;stroke-width:1.33333373px;stroke-linecap:butt;stroke-linejoin:miter;stroke-miterlimit:4;stroke-dasharray:none;stroke-dashoffset:0;stroke-opacity:1;marker:none;color-rendering:auto;image-rendering:auto;shape-rendering:auto;text-rendering:auto;enable-background:accumulate" inkscape:connector-curvature="0"/><path d="M0 988.362v64h1.29c-.71-18.651.096-42.483 1.665-64zm12.785 0c-1.836 21.55-2.763 45.535-1.943 64h.896c-.829-18.66.107-42.487 1.938-64zm5.817 0c-1.837 21.55-2.763 45.535-1.944 64h1.791c-.838-18.85.108-42.523 1.934-64zm4.554 0c-1.842 21.587-2.754 45.737-1.945 64h1.102c-.49-6.608 1.269-64 .843-64zm5.172 0c-2.105 21.575-3.156 45.658-2.224 64h2.04c-1.234-18.628.162-42.484 2.897-64zm12.428 0c-2.743 21.546-4.132 45.503-2.904 64h1.005c-1.234-18.628.286-42.485 3.021-64zm3.47 0c-2.742 21.546-4.13 45.503-2.902 64h2.492c-1.241-18.757.163-42.511 2.891-64zm12.526 0c-2.75 21.576-4.127 45.636-2.906 64h.832c-1.235-18.628.163-42.484 2.898-64zm3.297 0c-2.743 21.546-4.132 45.503-2.904 64h.976c-1.414-18.703.186-42.503 3.307-64zm3.046 0c-3.144 21.566-4.724 45.58-3.322 64H64c-6.157-21.333-1.23-42.667 0-64z" style="color:#000;clip-rule:nonzero;display:inline;overflow:visible;visibility:visible;opacity:1;isolation:auto;mix-blend-mode:normal;color-interpolation:sRGB;color-interpolation-filters:linearRGB;solid-color:#000;solid-opacity:1;fill:#e8d5b7;fill-opacity:1;fill-rule:evenodd;stroke:none;stroke-width:1.33333373px;stroke-linecap:butt;stroke-linejoin:miter;stroke-miterlimit:4;stroke-dasharray:none;stroke-dashoffset:0;stroke-opacity:1;marker:none;color-rendering:auto;image-rendering:auto;shape-rendering:auto;text-rendering:auto;enable-background:accumulate" inkscape:connector-curvature="0"/></g><g transform="matrix(.72444 -.19411 .19411 .72444 -194.431 -660.008)" style="stroke:none;stroke-width:1.33333349"><rect style="color:#000;clip-rule:nonzero;display:inline;overflow:visible;visibility:visible;opacity:1;isolation:auto;mix-blend-mode:normal;color-interpolation:sRGB;color-interpolation-filters:linearRGB;solid-color:#000;solid-opacity:1;fill:#372111;fill-opacity:1;fill-rule:evenodd;stroke:none;stroke-width:1.33333349px;stroke-linecap:butt;stroke-linejoin:miter;stroke-miterlimit:4;stroke-dasharray:none;stroke-dashoffset:0;stroke-opacity:1;marker:none;color-rendering:auto;image-rendering:auto;shape-rendering:auto;text-rendering:auto;enable-background:accumulate" width="64" height="64" y="988.36218" rx="2.8899311e-07"/><path style="color:#000;clip-rule:nonzero;display:inline;overflow:visible;visibility:visible;opacity:1;isolation:auto;mix-blend-mode:normal;color-interpolation:sRGB;color-interpolation-filters:linearRGB;solid-color:#000;solid-opacity:1;fill:#2d1a0b;fill-opacity:1;fill-rule:evenodd;stroke:none;stroke-width:1.33333349px;stroke-linecap:butt;stroke-linejoin:miter;stroke-miterlimit:4;stroke-dasharray:none;stroke-dashoffset:0;stroke-opacity:1;marker:none;color-rendering:auto;image-rendering:auto;shape-rendering:auto;text-rendering:auto;enable-background:accumulate" d="M0 988.362v64h8.572c.281-17.166-.989-41.112-.334-64zm9.158 0c-.614 22.986.577 46.94.332 64h4.432c-.378-17.984.607-41.736 1.937-64zm7.627 0c-1.055 22.07-2.118 45.965-1.943 64h.896c-.352-17.467.582-41.3 1.938-64zm1.817 0a12124.1 12124.1 0 0 0-1.944 64h1.791c.544-17.192 1.092-41.342 1.934-64zm4.554 0c-1.28 22.898-1.9 47.729-1.945 64h1.102c1.05-14.147.362-41.874 1.937-64zm2.02 0c-1.386 21.936-.189 47.741-1.944 64h3.022c1.6-14.763.608-41.752 2.215-64zm5.152 0c-1.65 22.577-1.397 49.527-2.224 64h8.04c3.229-15.882 1.527-41.645 2.897-64zm9.186 0c-1.154 22.5 1.008 48.587-2.905 64h2.248c1.757-17.63 1.261-42.118 2.895-64zm2.713 0c-1.568 22.133.04 47.588-2.903 64h4.492c1.167-17.38.89-42.095 2.891-64zm5.894 0c-1.71 21.923-1.098 46.646-2.906 64h3.463c2.047-17.644 1.45-42.099 2.898-64zm3.928 0c-1.137 22.04.178 46.829-2.904 64h5.88c2.937-14.687 1.729-41.079 3.307-64zm7.238 0c-1.377 22.086 1.123 47.299-3.322 64H64v-64z" inkscape:connector-curvature="0"/><path style="color:#000;clip-rule:nonzero;display:inline;overflow:visible;visibility:visible;opacity:1;isolation:auto;mix-blend-mode:normal;color-interpolation:sRGB;color-interpolation-filters:linearRGB;solid-color:#000;solid-opacity:1;fill:#231409;fill-opacity:1;fill-rule:evenodd;stroke:none;stroke-width:1.33333349px;stroke-linecap:butt;stroke-linejoin:miter;stroke-miterlimit:4;stroke-dasharray:none;stroke-dashoffset:0;stroke-opacity:1;marker:none;color-rendering:auto;image-rendering:auto;shape-rendering:auto;text-rendering:auto;enable-background:accumulate" d="M0 988.362v64h5.29c-.487-18.129-.819-39.952-.335-64zm16.785 0c-.91 22.846-1.33 47.54-1.943 64h.896c.97-17.761 1.117-41.983 1.938-64zm1.817 0c-.967 21.898-1.286 46.126-1.944 64h1.791c1.289-18.243 1.248-42.197 1.934-64zm4.554 0c-1.842 21.587-2.754 45.737-1.945 64h1.102c-.49-6.608 1.269-64 .843-64zm11.172 0c-.203 21.575-.334 45.658-2.224 64h2.04c3.648-18.628 2.743-42.484 2.897-64zm6.428 0c.783 22.63-1.494 46.314-2.904 64h1.22c4.456-22.51 2.32-44.698 3.02-64zm3.47 0c-.892 21.793.846 46.166-2.902 64h2.492c2.07-18.426 1.405-42.387 2.891-64zm6.526 0c-1.706 21.263-.69 44.606-2.906 64h.832c2.863-18.287 1.459-42.377 2.898-64zm1.297 0c-.838 20.879 2.852 43.058-2.904 64h2.976c5.588-15.202.79-42.2 3.307-64zm11.046 0c-1.938 22.643.26 52.709-3.322 64H64v-64z" inkscape:connector-curvature="0"/></g><g transform="matrix(.72444 -.19411 .19411 .72444 -148.067 -672.431)" style="stroke:none;stroke-width:1.33333373"><rect rx="2.8899311e-07" y="988.36218" height="64" width="64" style="color:#000;clip-rule:nonzero;display:inline;overflow:visible;visibility:visible;opacity:1;isolation:auto;mix-blend-mode:normal;color-interpolation:sRGB;color-interpolation-filters:linearRGB;solid-color:#000;solid-opacity:1;fill:#eeddc0;fill-opacity:1;fill-rule:evenodd;stroke:none;stroke-width:1.33333373px;stroke-linecap:butt;stroke-linejoin:miter;stroke-miterlimit:4;stroke-dasharray:none;stroke-dashoffset:0;stroke-opacity:1;marker:none;color-rendering:auto;image-rendering:auto;shape-rendering:auto;text-rendering:auto;enable-background:accumulate"/><path d="M0 988.362v64h6.572c-.71-18.651.097-42.483 1.666-64zm9.158 0c-1.572 21.549-2.37 45.52-1.668 64h6.432c-.83-18.66.107-42.487 1.937-64zm7.627 0c-1.836 21.55-2.763 45.535-1.943 64h.896c-.829-18.66.107-42.487 1.938-64zm1.817 0c-1.837 21.55-2.763 45.535-1.944 64h1.791c-.838-18.85.108-42.523 1.934-64zm4.554 0c-1.842 21.587-2.754 45.737-1.945 64h1.102c-.83-18.66.106-42.487 1.937-64zm2.02 0c-1.836 21.55-2.763 45.535-1.944 64h3.022c-.954-18.777.125-42.511 2.215-64zm5.152 0c-2.105 21.575-3.156 45.658-2.224 64h8.04c-1.234-18.628.162-42.484 2.897-64zm9.186 0c-2.743 21.546-4.132 45.503-2.905 64h2.248c-1.234-18.628.16-42.485 2.895-64zm2.713 0c-2.743 21.546-4.13 45.503-2.903 64h4.492c-1.241-18.757.163-42.511 2.891-64zm5.894 0c-2.75 21.576-4.127 45.636-2.906 64h3.463c-1.235-18.628.163-42.484 2.898-64zm3.928 0c-2.743 21.546-4.132 45.503-2.904 64h5.88c-1.414-18.703.186-42.503 3.307-64zm7.238 0c-3.144 21.566-4.724 45.58-3.322 64H64v-64z" style="color:#000;clip-rule:nonzero;display:inline;overflow:visible;visibility:visible;opacity:1;isolation:auto;mix-blend-mode:normal;color-interpolation:sRGB;color-interpolation-filters:linearRGB;solid-color:#000;solid-opacity:1;fill:#ecdabc;fill-opacity:1;fill-rule:evenodd;stroke:none;stroke-width:1.33333373px;stroke-linecap:butt;stroke-linejoin:miter;stroke-miterlimit:4;stroke-dasharray:none;stroke-dashoffset:0;stroke-opacity:1;marker:none;color-rendering:auto;image-rendering:auto;shape-rendering:auto;text-rendering:auto;enable-background:accumulate" inkscape:connector-curvature="0"/><path d="M0 988.362v64h1.29c-.71-18.651.096-42.483 1.665-64zm12.785 0c-1.836 21.55-2.763 45.535-1.943 64h.896c-.829-18.66.107-42.487 1.938-64zm5.817 0c-1.837 21.55-2.763 45.535-1.944 64h1.791c-.838-18.85.108-42.523 1.934-64zm4.554 0c-1.842 21.587-2.754 45.737-1.945 64h1.102c-.49-6.608 1.269-64 .843-64zm5.172 0c-2.105 21.575-3.156 45.658-2.224 64h2.04c-1.234-18.628.162-42.484 2.897-64zm12.428 0c-2.743 21.546-4.132 45.503-2.904 64h1.005c-1.234-18.628.286-42.485 3.021-64zm3.47 0c-2.742 21.546-4.13 45.503-2.902 64h2.492c-1.241-18.757.163-42.511 2.891-64zm12.526 0c-2.75 21.576-4.127 45.636-2.906 64h.832c-1.235-18.628.163-42.484 2.898-64zm3.297 0c-2.743 21.546-4.132 45.503-2.904 64h.976c-1.414-18.703.186-42.503 3.307-64zm3.046 0c-3.144 21.566-4.724 45.58-3.322 64H64c-6.157-21.333-1.23-42.667 0-64z" style="color:#000;clip-rule:nonzero;display:inline;overflow:visible;visibility:visible;opacity:1;isolation:auto;mix-blend-mode:normal;color-interpolation:sRGB;color-interpolation-filters:linearRGB;solid-color:#000;solid-opacity:1;fill:#e8d5b7;fill-opacity:1;fill-rule:evenodd;stroke:none;stroke-width:1.33333373px;stroke-linecap:butt;stroke-linejoin:miter;stroke-miterlimit:4;stroke-dasharray:none;stroke-dashoffset:0;stroke-opacity:1;marker:none;color-rendering:auto;image-rendering:auto;shape-rendering:auto;text-rendering:auto;enable-background:accumulate" inkscape:connector-curvature="0"/></g><g transform="matrix(.72444 -.19411 .19411 .72444 -206.855 -706.373)" style="stroke:none;stroke-width:1.33333373"><rect rx="2.8899311e-07" y="988.36218" height="64" width="64" style="color:#000;clip-rule:nonzero;display:inline;overflow:visible;visibility:visible;opacity:1;isolation:auto;mix-blend-mode:normal;color-interpolation:sRGB;color-interpolation-filters:linearRGB;solid-color:#000;solid-opacity:1;fill:#eeddc0;fill-opacity:1;fill-rule:evenodd;stroke:none;stroke-width:1.33333373px;stroke-linecap:butt;stroke-linejoin:miter;stroke-miterlimit:4;stroke-dasharray:none;stroke-dashoffset:0;stroke-opacity:1;marker:none;color-rendering:auto;image-rendering:auto;shape-rendering:auto;text-rendering:auto;enable-background:accumulate"/><path d="M0 988.362v64h6.572c-.71-18.651.097-42.483 1.666-64zm9.158 0c-1.572 21.549-2.37 45.52-1.668 64h6.432c-.83-18.66.107-42.487 1.937-64zm7.627 0c-1.836 21.55-2.763 45.535-1.943 64h.896c-.829-18.66.107-42.487 1.938-64zm1.817 0c-1.837 21.55-2.763 45.535-1.944 64h1.791c-.838-18.85.108-42.523 1.934-64zm4.554 0c-1.842 21.587-2.754 45.737-1.945 64h1.102c-.83-18.66.106-42.487 1.937-64zm2.02 0c-1.836 21.55-2.763 45.535-1.944 64h3.022c-.954-18.777.125-42.511 2.215-64zm5.152 0c-2.105 21.575-3.156 45.658-2.224 64h8.04c-1.234-18.628.162-42.484 2.897-64zm9.186 0c-2.743 21.546-4.132 45.503-2.905 64h2.248c-1.234-18.628.16-42.485 2.895-64zm2.713 0c-2.743 21.546-4.13 45.503-2.903 64h4.492c-1.241-18.757.163-42.511 2.891-64zm5.894 0c-2.75 21.576-4.127 45.636-2.906 64h3.463c-1.235-18.628.163-42.484 2.898-64zm3.928 0c-2.743 21.546-4.132 45.503-2.904 64h5.88c-1.414-18.703.186-42.503 3.307-64zm7.238 0c-3.144 21.566-4.724 45.58-3.322 64H64v-64z" style="color:#000;clip-rule:nonzero;display:inline;overflow:visible;visibility:visible;opacity:1;isolation:auto;mix-blend-mode:normal;color-interpolation:sRGB;color-interpolation-filters:linearRGB;solid-color:#000;solid-opacity:1;fill:#ecdabc;fill-opacity:1;fill-rule:evenodd;stroke:none;stroke-width:1.33333373px;stroke-linecap:butt;stroke-linejoin:miter;stroke-miterlimit:4;stroke-dasharray:none;stroke-dashoffset:0;stroke-opacity:1;marker:none;color-rendering:auto;image-rendering:auto;shape-rendering:auto;text-rendering:auto;enable-background:accumulate" inkscape:connector-curvature="0"/><path d="M0 988.362v64h1.29c-.71-18.651.096-42.483 1.665-64zm12.785 0c-1.836 21.55-2.763 45.535-1.943 64h.896c-.829-18.66.107-42.487 1.938-64zm5.817 0c-1.837 21.55-2.763 45.535-1.944 64h1.791c-.838-18.85.108-42.523 1.934-64zm4.554 0c-1.842 21.587-2.754 45.737-1.945 64h1.102c-.49-6.608 1.269-64 .843-64zm5.172 0c-2.105 21.575-3.156 45.658-2.224 64h2.04c-1.234-18.628.162-42.484 2.897-64zm12.428 0c-2.743 21.546-4.132 45.503-2.904 64h1.005c-1.234-18.628.286-42.485 3.021-64zm3.47 0c-2.742 21.546-4.13 45.503-2.902 64h2.492c-1.241-18.757.163-42.511 2.891-64zm12.526 0c-2.75 21.576-4.127 45.636-2.906 64h.832c-1.235-18.628.163-42.484 2.898-64zm3.297 0c-2.743 21.546-4.132 45.503-2.904 64h.976c-1.414-18.703.186-42.503 3.307-64zm3.046 0c-3.144 21.566-4.724 45.58-3.322 64H64c-6.157-21.333-1.23-42.667 0-64z" style="color:#000;clip-rule:nonzero;display:inline;overflow:visible;visibility:visible;opacity:1;isolation:auto;mix-blend-mode:normal;color-interpolation:sRGB;color-interpolation-filters:linearRGB;solid-color:#000;solid-opacity:1;fill:#e8d5b7;fill-opacity:1;fill-rule:evenodd;stroke:none;stroke-width:1.33333373px;stroke-linecap:butt;stroke-linejoin:miter;stroke-miterlimit:4;stroke-dasharray:none;stroke-dashoffset:0;stroke-opacity:1;marker:none;color-rendering:auto;image-rendering:auto;shape-rendering:auto;text-rendering:auto;enable-background:accumulate" inkscape:connector-curvature="0"/></g><g transform="matrix(.72444 -.19411 .19411 .72444 -160.49 -718.796)" style="stroke:none;stroke-width:1.33333349"><rect style="color:#000;clip-rule:nonzero;display:inline;overflow:visible;visibility:visible;opacity:1;isolation:auto;mix-blend-mode:normal;color-interpolation:sRGB;color-interpolation-filters:linearRGB;solid-color:#000;solid-opacity:1;fill:#372111;fill-opacity:1;fill-rule:evenodd;stroke:none;stroke-width:1.33333349px;stroke-linecap:butt;stroke-linejoin:miter;stroke-miterlimit:4;stroke-dasharray:none;stroke-dashoffset:0;stroke-opacity:1;marker:none;color-rendering:auto;image-rendering:auto;shape-rendering:auto;text-rendering:auto;enable-background:accumulate" width="64" height="64" y="988.36218" rx="2.8899311e-07"/><path style="color:#000;clip-rule:nonzero;display:inline;overflow:visible;visibility:visible;opacity:1;isolation:auto;mix-blend-mode:normal;color-interpolation:sRGB;color-interpolation-filters:linearRGB;solid-color:#000;solid-opacity:1;fill:#2d1a0b;fill-opacity:1;fill-rule:evenodd;stroke:none;stroke-width:1.33333349px;stroke-linecap:butt;stroke-linejoin:miter;stroke-miterlimit:4;stroke-dasharray:none;stroke-dashoffset:0;stroke-opacity:1;marker:none;color-rendering:auto;image-rendering:auto;shape-rendering:auto;text-rendering:auto;enable-background:accumulate" d="M0 988.362v64h8.572c.281-17.166-.989-41.112-.334-64zm9.158 0c-.614 22.986.577 46.94.332 64h4.432c-.378-17.984.607-41.736 1.937-64zm7.627 0c-1.055 22.07-2.118 45.965-1.943 64h.896c-.352-17.467.582-41.3 1.938-64zm1.817 0a12124.1 12124.1 0 0 0-1.944 64h1.791c.544-17.192 1.092-41.342 1.934-64zm4.554 0c-1.28 22.898-1.9 47.729-1.945 64h1.102c1.05-14.147.362-41.874 1.937-64zm2.02 0c-1.386 21.936-.189 47.741-1.944 64h3.022c1.6-14.763.608-41.752 2.215-64zm5.152 0c-1.65 22.577-1.397 49.527-2.224 64h8.04c3.229-15.882 1.527-41.645 2.897-64zm9.186 0c-1.154 22.5 1.008 48.587-2.905 64h2.248c1.757-17.63 1.261-42.118 2.895-64zm2.713 0c-1.568 22.133.04 47.588-2.903 64h4.492c1.167-17.38.89-42.095 2.891-64zm5.894 0c-1.71 21.923-1.098 46.646-2.906 64h3.463c2.047-17.644 1.45-42.099 2.898-64zm3.928 0c-1.137 22.04.178 46.829-2.904 64h5.88c2.937-14.687 1.729-41.079 3.307-64zm7.238 0c-1.377 22.086 1.123 47.299-3.322 64H64v-64z" inkscape:connector-curvature="0"/><path style="color:#000;clip-rule:nonzero;display:inline;overflow:visible;visibility:visible;opacity:1;isolation:auto;mix-blend-mode:normal;color-interpolation:sRGB;color-interpolation-filters:linearRGB;solid-color:#000;solid-opacity:1;fill:#231409;fill-opacity:1;fill-rule:evenodd;stroke:none;stroke-width:1.33333349px;stroke-linecap:butt;stroke-linejoin:miter;stroke-miterlimit:4;stroke-dasharray:none;stroke-dashoffset:0;stroke-opacity:1;marker:none;color-rendering:auto;image-rendering:auto;shape-rendering:auto;text-rendering:auto;enable-background:accumulate" d="M0 988.362v64h5.29c-.487-18.129-.819-39.952-.335-64zm16.785 0c-.91 22.846-1.33 47.54-1.943 64h.896c.97-17.761 1.117-41.983 1.938-64zm1.817 0c-.967 21.898-1.286 46.126-1.944 64h1.791c1.289-18.243 1.248-42.197 1.934-64zm4.554 0c-1.842 21.587-2.754 45.737-1.945 64h1.102c-.49-6.608 1.269-64 .843-64zm11.172 0c-.203 21.575-.334 45.658-2.224 64h2.04c3.648-18.628 2.743-42.484 2.897-64zm6.428 0c.783 22.63-1.494 46.314-2.904 64h1.22c4.456-22.51 2.32-44.698 3.02-64zm3.47 0c-.892 21.793.846 46.166-2.902 64h2.492c2.07-18.426 1.405-42.387 2.891-64zm6.526 0c-1.706 21.263-.69 44.606-2.906 64h.832c2.863-18.287 1.459-42.377 2.898-64zm1.297 0c-.838 20.879 2.852 43.058-2.904 64h2.976c5.588-15.202.79-42.2 3.307-64zm11.046 0c-1.938 22.643.26 52.709-3.322 64H64v-64z" inkscape:connector-curvature="0"/></g><g transform="matrix(.72444 -.19411 .19411 .72444 -114.126 -731.22)" style="stroke:none;stroke-width:1.33333373"><rect rx="2.8899311e-07" y="988.36218" height="64" width="64" style="color:#000;clip-rule:nonzero;display:inline;overflow:visible;visibility:visible;opacity:1;isolation:auto;mix-blend-mode:normal;color-interpolation:sRGB;color-interpolation-filters:linearRGB;solid-color:#000;solid-opacity:1;fill:#eeddc0;fill-opacity:1;fill-rule:evenodd;stroke:none;stroke-width:1.33333373px;stroke-linecap:butt;stroke-linejoin:miter;stroke-miterlimit:4;stroke-dasharray:none;stroke-dashoffset:0;stroke-opacity:1;marker:none;color-rendering:auto;image-rendering:auto;shape-rendering:auto;text-rendering:auto;enable-background:accumulate"/><path d="M0 988.362v64h6.572c-.71-18.651.097-42.483 1.666-64zm9.158 0c-1.572 21.549-2.37 45.52-1.668 64h6.432c-.83-18.66.107-42.487 1.937-64zm7.627 0c-1.836 21.55-2.763 45.535-1.943 64h.896c-.829-18.66.107-42.487 1.938-64zm1.817 0c-1.837 21.55-2.763 45.535-1.944 64h1.791c-.838-18.85.108-42.523 1.934-64zm4.554 0c-1.842 21.587-2.754 45.737-1.945 64h1.102c-.83-18.66.106-42.487 1.937-64zm2.02 0c-1.836 21.55-2.763 45.535-1.944 64h3.022c-.954-18.777.125-42.511 2.215-64zm5.152 0c-2.105 21.575-3.156 45.658-2.224 64h8.04c-1.234-18.628.162-42.484 2.897-64zm9.186 0c-2.743 21.546-4.132 45.503-2.905 64h2.248c-1.234-18.628.16-42.485 2.895-64zm2.713 0c-2.743 21.546-4.13 45.503-2.903 64h4.492c-1.241-18.757.163-42.511 2.891-64zm5.894 0c-2.75 21.576-4.127 45.636-2.906 64h3.463c-1.235-18.628.163-42.484 2.898-64zm3.928 0c-2.743 21.546-4.132 45.503-2.904 64h5.88c-1.414-18.703.186-42.503 3.307-64zm7.238 0c-3.144 21.566-4.724 45.58-3.322 64H64v-64z" style="color:#000;clip-rule:nonzero;display:inline;overflow:visible;visibility:visible;opacity:1;isolation:auto;mix-blend-mode:normal;color-interpolation:sRGB;color-interpolation-filters:linearRGB;solid-color:#000;solid-opacity:1;fill:#ecdabc;fill-opacity:1;fill-rule:evenodd;stroke:none;stroke-width:1.33333373px;stroke-linecap:butt;stroke-linejoin:miter;stroke-miterlimit:4;stroke-dasharray:none;stroke-dashoffset:0;stroke-opacity:1;marker:none;color-rendering:auto;image-rendering:auto;shape-rendering:auto;text-rendering:auto;enable-background:accumulate" inkscape:connector-curvature="0"/><path d="M0 988.362v64h1.29c-.71-18.651.096-42.483 1.665-64zm12.785 0c-1.836 21.55-2.763 45.535-1.943 64h.896c-.829-18.66.107-42.487 1.938-64zm5.817 0c-1.837 21.55-2.763 45.535-1.944 64h1.791c-.838-18.85.108-42.523 1.934-64zm4.554 0c-1.842 21.587-2.754 45.737-1.945 64h1.102c-.49-6.608 1.269-64 .843-64zm5.172 0c-2.105 21.575-3.156 45.658-2.224 64h2.04c-1.234-18.628.162-42.484 2.897-64zm12.428 0c-2.743 21.546-4.132 45.503-2.904 64h1.005c-1.234-18.628.286-42.485 3.021-64zm3.47 0c-2.742 21.546-4.13 45.503-2.902 64h2.492c-1.241-18.757.163-42.511 2.891-64zm12.526 0c-2.75 21.576-4.127 45.636-2.906 64h.832c-1.235-18.628.163-42.484 2.898-64zm3.297 0c-2.743 21.546-4.132 45.503-2.904 64h.976c-1.414-18.703.186-42.503 3.307-64zm3.046 0c-3.144 21.566-4.724 45.58-3.322 64H64c-6.157-21.333-1.23-42.667 0-64z" style="color:#000;clip-rule:nonzero;display:inline;overflow:visible;visibility:visible;opacity:1;isolation:auto;mix-blend-mode:normal;color-interpolation:sRGB;color-interpolation-filters:linearRGB;solid-color:#000;solid-opacity:1;fill:#e8d5b7;fill-opacity:1;fill-rule:evenodd;stroke:none;stroke-width:1.33333373px;stroke-linecap:butt;stroke-linejoin:miter;stroke-miterlimit:4;stroke-dasharray:none;stroke-dashoffset:0;stroke-opacity:1;marker:none;color-rendering:auto;image-rendering:auto;shape-rendering:auto;text-rendering:auto;enable-background:accumulate" inkscape:connector-curvature="0"/></g><g transform="matrix(.72444 -.19411 .19411 .72444 -101.702 -684.855)" style="stroke:none;stroke-width:1.33333349"><rect style="color:#000;clip-rule:nonzero;display:inline;overflow:visible;visibility:visible;opacity:1;isolation:auto;mix-blend-mode:normal;color-interpolation:sRGB;color-interpolation-filters:linearRGB;solid-color:#000;solid-opacity:1;fill:#372111;fill-opacity:1;fill-rule:evenodd;stroke:none;stroke-width:1.33333349px;stroke-linecap:butt;stroke-linejoin:miter;stroke-miterlimit:4;stroke-dasharray:none;stroke-dashoffset:0;stroke-opacity:1;marker:none;color-rendering:auto;image-rendering:auto;shape-rendering:auto;text-rendering:auto;enable-background:accumulate" width="64" height="64" y="988.36218" rx="2.8899311e-07"/><path style="color:#000;clip-rule:nonzero;display:inline;overflow:visible;visibility:visible;opacity:1;isolation:auto;mix-blend-mode:normal;color-interpolation:sRGB;color-interpolation-filters:linearRGB;solid-color:#000;solid-opacity:1;fill:#2d1a0b;fill-opacity:1;fill-rule:evenodd;stroke:none;stroke-width:1.33333349px;stroke-linecap:butt;stroke-linejoin:miter;stroke-miterlimit:4;stroke-dasharray:none;stroke-dashoffset:0;stroke-opacity:1;marker:none;color-rendering:auto;image-rendering:auto;shape-rendering:auto;text-rendering:auto;enable-background:accumulate" d="M0 988.362v64h8.572c.281-17.166-.989-41.112-.334-64zm9.158 0c-.614 22.986.577 46.94.332 64h4.432c-.378-17.984.607-41.736 1.937-64zm7.627 0c-1.055 22.07-2.118 45.965-1.943 64h.896c-.352-17.467.582-41.3 1.938-64zm1.817 0a12124.1 12124.1 0 0 0-1.944 64h1.791c.544-17.192 1.092-41.342 1.934-64zm4.554 0c-1.28 22.898-1.9 47.729-1.945 64h1.102c1.05-14.147.362-41.874 1.937-64zm2.02 0c-1.386 21.936-.189 47.741-1.944 64h3.022c1.6-14.763.608-41.752 2.215-64zm5.152 0c-1.65 22.577-1.397 49.527-2.224 64h8.04c3.229-15.882 1.527-41.645 2.897-64zm9.186 0c-1.154 22.5 1.008 48.587-2.905 64h2.248c1.757-17.63 1.261-42.118 2.895-64zm2.713 0c-1.568 22.133.04 47.588-2.903 64h4.492c1.167-17.38.89-42.095 2.891-64zm5.894 0c-1.71 21.923-1.098 46.646-2.906 64h3.463c2.047-17.644 1.45-42.099 2.898-64zm3.928 0c-1.137 22.04.178 46.829-2.904 64h5.88c2.937-14.687 1.729-41.079 3.307-64zm7.238 0c-1.377 22.086 1.123 47.299-3.322 64H64v-64z" inkscape:connector-curvature="0"/><path style="color:#000;clip-rule:nonzero;display:inline;overflow:visible;visibility:visible;opacity:1;isolation:auto;mix-blend-mode:normal;color-interpolation:sRGB;color-interpolation-filters:linearRGB;solid-color:#000;solid-opacity:1;fill:#231409;fill-opacity:1;fill-rule:evenodd;stroke:none;stroke-width:1.33333349px;stroke-linecap:butt;stroke-linejoin:miter;stroke-miterlimit:4;stroke-dasharray:none;stroke-dashoffset:0;stroke-opacity:1;marker:none;color-rendering:auto;image-rendering:auto;shape-rendering:auto;text-rendering:auto;enable-background:accumulate" d="M0 988.362v64h5.29c-.487-18.129-.819-39.952-.335-64zm16.785 0c-.91 22.846-1.33 47.54-1.943 64h.896c.97-17.761 1.117-41.983 1.938-64zm1.817 0c-.967 21.898-1.286 46.126-1.944 64h1.791c1.289-18.243 1.248-42.197 1.934-64zm4.554 0c-1.842 21.587-2.754 45.737-1.945 64h1.102c-.49-6.608 1.269-64 .843-64zm11.172 0c-.203 21.575-.334 45.658-2.224 64h2.04c3.648-18.628 2.743-42.484 2.897-64zm6.428 0c.783 22.63-1.494 46.314-2.904 64h1.22c4.456-22.51 2.32-44.698 3.02-64zm3.47 0c-.892 21.793.846 46.166-2.902 64h2.492c2.07-18.426 1.405-42.387 2.891-64zm6.526 0c-1.706 21.263-.69 44.606-2.906 64h.832c2.863-18.287 1.459-42.377 2.898-64zm1.297 0c-.838 20.879 2.852 43.058-2.904 64h2.976c5.588-15.202.79-42.2 3.307-64zm11.046 0c-1.938 22.643.26 52.709-3.322 64H64v-64z" inkscape:connector-curvature="0"/></g><g transform="matrix(.72444 -.19411 .19411 .72444 -219.278 -752.737)" style="stroke:none;stroke-width:1.33333349"><rect style="color:#000;clip-rule:nonzero;display:inline;overflow:visible;visibility:visible;opacity:1;isolation:auto;mix-blend-mode:normal;color-interpolation:sRGB;color-interpolation-filters:linearRGB;solid-color:#000;solid-opacity:1;fill:#372111;fill-opacity:1;fill-rule:evenodd;stroke:none;stroke-width:1.33333349px;stroke-linecap:butt;stroke-linejoin:miter;stroke-miterlimit:4;stroke-dasharray:none;stroke-dashoffset:0;stroke-opacity:1;marker:none;color-rendering:auto;image-rendering:auto;shape-rendering:auto;text-rendering:auto;enable-background:accumulate" width="64" height="64" y="988.36218" rx="2.8899311e-07"/><path style="color:#000;clip-rule:nonzero;display:inline;overflow:visible;visibility:visible;opacity:1;isolation:auto;mix-blend-mode:normal;color-interpolation:sRGB;color-interpolation-filters:linearRGB;solid-color:#000;solid-opacity:1;fill:#2d1a0b;fill-opacity:1;fill-rule:evenodd;stroke:none;stroke-width:1.33333349px;stroke-linecap:butt;stroke-linejoin:miter;stroke-miterlimit:4;stroke-dasharray:none;stroke-dashoffset:0;stroke-opacity:1;marker:none;color-rendering:auto;image-rendering:auto;shape-rendering:auto;text-rendering:auto;enable-background:accumulate" d="M0 988.362v64h8.572c.281-17.166-.989-41.112-.334-64zm9.158 0c-.614 22.986.577 46.94.332 64h4.432c-.378-17.984.607-41.736 1.937-64zm7.627 0c-1.055 22.07-2.118 45.965-1.943 64h.896c-.352-17.467.582-41.3 1.938-64zm1.817 0a12124.1 12124.1 0 0 0-1.944 64h1.791c.544-17.192 1.092-41.342 1.934-64zm4.554 0c-1.28 22.898-1.9 47.729-1.945 64h1.102c1.05-14.147.362-41.874 1.937-64zm2.02 0c-1.386 21.936-.189 47.741-1.944 64h3.022c1.6-14.763.608-41.752 2.215-64zm5.152 0c-1.65 22.577-1.397 49.527-2.224 64h8.04c3.229-15.882 1.527-41.645 2.897-64zm9.186 0c-1.154 22.5 1.008 48.587-2.905 64h2.248c1.757-17.63 1.261-42.118 2.895-64zm2.713 0c-1.568 22.133.04 47.588-2.903 64h4.492c1.167-17.38.89-42.095 2.891-64zm5.894 0c-1.71 21.923-1.098 46.646-2.906 64h3.463c2.047-17.644 1.45-42.099 2.898-64zm3.928 0c-1.137 22.04.178 46.829-2.904 64h5.88c2.937-14.687 1.729-41.079 3.307-64zm7.238 0c-1.377 22.086 1.123 47.299-3.322 64H64v-64z" inkscape:connector-curvature="0"/><path style="color:#000;clip-rule:nonzero;display:inline;overflow:visible;visibility:visible;opacity:1;isolation:auto;mix-blend-mode:normal;color-interpolation:sRGB;color-interpolation-filters:linearRGB;solid-color:#000;solid-opacity:1;fill:#231409;fill-opacity:1;fill-rule:evenodd;stroke:none;stroke-width:1.33333349px;stroke-linecap:butt;stroke-linejoin:miter;stroke-miterlimit:4;stroke-dasharray:none;stroke-dashoffset:0;stroke-opacity:1;marker:none;color-rendering:auto;image-rendering:auto;shape-rendering:auto;text-rendering:auto;enable-background:accumulate" d="M0 988.362v64h5.29c-.487-18.129-.819-39.952-.335-64zm16.785 0c-.91 22.846-1.33 47.54-1.943 64h.896c.97-17.761 1.117-41.983 1.938-64zm1.817 0c-.967 21.898-1.286 46.126-1.944 64h1.791c1.289-18.243 1.248-42.197 1.934-64zm4.554 0c-1.842 21.587-2.754 45.737-1.945 64h1.102c-.49-6.608 1.269-64 .843-64zm11.172 0c-.203 21.575-.334 45.658-2.224 64h2.04c3.648-18.628 2.743-42.484 2.897-64zm6.428 0c.783 22.63-1.494 46.314-2.904 64h1.22c4.456-22.51 2.32-44.698 3.02-64zm3.47 0c-.892 21.793.846 46.166-2.902 64h2.492c2.07-18.426 1.405-42.387 2.891-64zm6.526 0c-1.706 21.263-.69 44.606-2.906 64h.832c2.863-18.287 1.459-42.377 2.898-64zm1.297 0c-.838 20.879 2.852 43.058-2.904 64h2.976c5.588-15.202.79-42.2 3.307-64zm11.046 0c-1.938 22.643.26 52.709-3.322 64H64v-64z" inkscape:connector-curvature="0"/></g><g inkscape:label="Calque 1"><path style="display:inline;opacity:.98999999;fill:#a78014;fill-opacity:1;stroke:none" d="M402.557 627.341c15.456-.127 60.592 16.71 59.134 23.104-.38 1.666-16.173 7.307-22.291 10.19-3.492 1.644 1.643 6.652-1.605 7.052-3.247.4-12.102-3.213-19.214-3.703-9.139-.63-26.51 1.963-30.385 1.576-3.876-.386-8.974-28.106-6.811-29.11 6.421-2.959 16.604-8.772 21.172-9.109z" inkscape:connector-curvature="0" sodipodi:nodetypes="csszszcc" transform="matrix(.16417 0 0 .16383 17.192 -20.929)"/><path style="display:inline;fill:#a78014;fill-opacity:1;stroke:none" d="M329.454 627.342c-15.455-.127-60.591 16.71-59.133 23.104.38 1.666 16.172 7.307 22.29 10.189 3.492 1.645-1.643 6.652 1.605 7.053 3.248.4 12.102-3.213 19.214-3.703 9.139-.63 26.51 1.962 30.386 1.576 3.875-.386 8.974-28.106 6.81-29.111-6.42-2.958-16.604-8.77-21.172-9.108z" inkscape:connector-curvature="0" sodipodi:nodetypes="csszszcc" transform="matrix(.16417 0 0 .16383 17.192 -20.929)"/><g style="display:inline"><path sodipodi:nodetypes="csszszcc" inkscape:connector-curvature="0" d="M921.346 828.775c-13.481-.111-52.851 12.575-51.58 18.152.332 1.453 14.107 4.373 19.444 6.887 3.046 1.435.311 5.803 3.144 6.152 2.833.35 8.811-2.802 15.015-3.23 7.971-.549 25.123 1.968 28.504 1.63 3.38-.336 3.827-22.77 1.94-23.647-5.6-2.58-12.483-5.65-16.467-5.944z" style="display:inline;fill:#e2a70e;fill-opacity:1;stroke:none" transform="matrix(.16417 0 0 .16383 -80.428 -53.179)"/><path sodipodi:nodetypes="csszszcc" inkscape:connector-curvature="0" d="M999.311 828.775c13.482-.111 52.851 12.575 51.58 18.152-.332 1.453-14.107 4.373-19.443 6.887-3.046 1.435-.312 5.803-3.144 6.152-2.833.35-8.812-2.802-15.016-3.23-7.97-.549-25.123 1.968-28.503 1.63-3.38-.336-3.828-22.77-1.941-23.647 5.6-2.58 12.483-5.65 16.467-5.944z" style="display:inline;fill:#e2a70e;fill-opacity:1;stroke:none" transform="matrix(.16417 0 0 .16383 -80.428 -53.179)"/></g><g style="display:inline;fill:#2a2a2a;fill-opacity:1"><path sodipodi:nodetypes="ssszzzs" inkscape:connector-curvature="0" d="M1047.58 761.802c0 48.37-39.21 87.581-87.58 87.581s-87.58-39.211-87.58-87.58c0-24.185 13.802-71.41 29.651-112.587 15.85-41.178 25.492-72.5 59.033-72.5 33.542 0 40.976 31.322 56.825 72.5 15.849 41.178 29.652 88.402 29.652 112.586z" style="color:#000;display:inline;overflow:visible;visibility:visible;fill:#2a2a2a;fill-opacity:1;fill-rule:nonzero;stroke:none;stroke-width:.5;marker:none;enable-background:accumulate" transform="matrix(.16417 0 0 .16383 -80.374 -53.179)"/><path sodipodi:nodetypes="ccsc" inkscape:connector-curvature="0" d="M1037.622 728.006c23.716-.38 47.664 20.602 51.752 22.81 10.97-19.991-42.052-56.748-63.303-75.863-12.131-10.912 6.473 51.314 11.55 53.053z" style="fill:#2a2a2a;fill-opacity:1;stroke:none" transform="matrix(.16417 0 0 .16383 -80.374 -53.179)"/><path sodipodi:nodetypes="ccsc" inkscape:connector-curvature="0" d="M882.378 728.006c-23.716-.38-41.628 10.467-45.716 12.675-10.97-19.992 36.016-46.613 57.267-65.728 12.131-10.912-6.473 51.314-11.55 53.053z" style="display:inline;fill:#2a2a2a;fill-opacity:1;stroke:none" transform="matrix(.16417 0 0 .16383 -80.374 -53.179)"/></g><path style="color:#000;display:inline;overflow:visible;visibility:visible;fill:#f2f2f2;fill-opacity:1;fill-rule:nonzero;stroke:none;stroke-width:.5;marker:none;enable-background:accumulate" d="M426.857 547.626c0 38.441-26.27 67.604-61.143 67.604-34.873 0-61.143-29.163-61.143-67.604s26.27-75.604 61.143-75.604c34.873 0 61.143 37.163 61.143 75.604z" inkscape:connector-curvature="0" sodipodi:nodetypes="sssss" transform="matrix(.16417 0 0 .16383 17.192 -20.929)"/><path style="color:#000;display:inline;overflow:visible;visibility:visible;fill:#b28b16;fill-opacity:1;fill-rule:nonzero;stroke:none;stroke-width:.5;marker:none;enable-background:accumulate" d="M404.388 489.33c0 7.977-22.814 28.567-38.674 28.567s-38.673-21.38-38.673-28.568c0-6.377 17.315-23.901 38.673-23.901 21.359 0 38.674 17.003 38.674 23.901z" inkscape:connector-curvature="0" sodipodi:nodetypes="szszs" transform="matrix(.16417 0 0 .16383 17.192 -20.929)"/><path style="color:#000;display:inline;overflow:visible;visibility:visible;fill:#f1c43c;fill-opacity:1;fill-rule:nonzero;stroke:none;stroke-width:.5;marker:none;enable-background:accumulate" d="M399.065 489.65c0 6.88-19.674 24.636-33.35 24.636-13.678 0-33.351-18.438-33.351-24.636 0-5.5 11.32-22.612 33.35-22.612s33.35 16.663 33.35 22.612z" inkscape:connector-curvature="0" sodipodi:nodetypes="szszs" transform="matrix(.16417 0 0 .16383 17.192 -20.929)"/><path style="color:#000;font-style:normal;font-variant:normal;font-weight:400;font-stretch:normal;font-size:medium;line-height:normal;font-family:Sans;-inkscape-font-specification:Sans;text-indent:0;text-align:start;text-decoration:none;text-decoration-line:none;letter-spacing:normal;word-spacing:normal;text-transform:none;writing-mode:lr-tb;direction:ltr;baseline-shift:baseline;text-anchor:start;display:inline;overflow:visible;visibility:visible;fill:#b28b16;fill-opacity:1;stroke:none;stroke-width:1px;marker:none;enable-background:accumulate" d="m328.433 490.146-.062.72s16.043 16.655 37.343 16.655c21.3 0 37.344-16.656 37.344-16.656l-.062-.719s-16.505 15.323-37.282 15.323c-20.776 0-37.281-15.323-37.281-15.323z" inkscape:connector-curvature="0" sodipodi:nodetypes="ccsccsc" transform="matrix(.16417 0 0 .16383 17.192 -20.929)"/><g style="display:inline"><path sodipodi:nodetypes="zzzz" inkscape:connector-curvature="0" d="M939.016 625.167c8.223-3.274 13.362 12.734 11.801 21.21-1.56 8.477-9.504 12.463-16.25 5.307-6.746-7.157-3.775-23.242 4.449-26.517z" style="fill:#f2f2f5;fill-opacity:1;stroke:none" transform="matrix(.16417 0 0 .16383 -80.369 -53.179)"/><path sodipodi:nodetypes="zzz" inkscape:connector-curvature="0" d="M942.972 636.293c6.989-.193 7.867 17.204 1.526 16.26-6.34-.943-8.514-16.066-1.526-16.26z" style="display:inline;fill:url(#d);fill-opacity:1;stroke:none" transform="matrix(.16417 0 0 .16383 -80.369 -53.179)"/><path sodipodi:nodetypes="zzz" inkscape:connector-curvature="0" d="M943.913 641.709c2.95-.087 3.321 7.675.645 7.254-2.677-.42-3.595-7.168-.645-7.254z" style="fill:#171717;fill-opacity:1;stroke:none" transform="matrix(.16417 0 0 .16383 -80.369 -53.179)"/><path sodipodi:nodetypes="zzzz" inkscape:connector-curvature="0" d="M980.92 625.167c-8.223-3.274-13.361 12.734-11.8 21.21 1.56 8.477 9.504 12.463 16.25 5.307 6.746-7.157 3.774-23.242-4.449-26.517z" style="display:inline;fill:#f2f2f5;fill-opacity:1;stroke:none" transform="matrix(.16417 0 0 .16383 -80.369 -53.179)"/><path sodipodi:nodetypes="zzz" inkscape:connector-curvature="0" d="M977.026 636.293c-6.989-.193-7.868 17.204-1.526 16.26 6.34-.943 8.514-16.066 1.526-16.26z" style="display:inline;fill:url(#e);fill-opacity:1;stroke:none" transform="matrix(.16417 0 0 .16383 -80.369 -53.179)"/><path sodipodi:nodetypes="zzz" inkscape:connector-curvature="0" d="M976.087 641.709c-2.95-.087-3.321 7.675-.645 7.254 2.677-.42 3.595-7.168.645-7.254z" style="display:inline;fill:#171717;fill-opacity:1;stroke:none" transform="matrix(.16417 0 0 .16383 -80.369 -53.179)"/><path sodipodi:nodetypes="zzz" inkscape:connector-curvature="0" d="M941.33 639.5c2.594-.066 2.92 5.77.566 5.453-2.354-.317-3.16-5.389-.566-5.454z" style="display:inline;fill:#fff;fill-opacity:.90232556;stroke:none" transform="matrix(.16417 0 0 .16383 -80.369 -53.179)"/><path sodipodi:nodetypes="zzz" inkscape:connector-curvature="0" d="M942.1 645.818c1.704-.034 1.918 3.048.372 2.88-1.547-.167-2.077-2.846-.373-2.88z" style="display:inline;fill:#fff;fill-opacity:.76744187;stroke:none" transform="matrix(.16417 0 0 .16383 -80.369 -53.179)"/><path sodipodi:nodetypes="zzz" inkscape:connector-curvature="0" d="M974.668 639.5c-2.594-.066-2.92 5.77-.566 5.453 2.354-.317 3.16-5.389.566-5.454z" style="display:inline;fill:#fff;fill-opacity:.90232556;stroke:none" transform="matrix(.16417 0 0 .16383 -80.369 -53.179)"/><path sodipodi:nodetypes="zzz" inkscape:connector-curvature="0" d="M973.898 645.818c-1.704-.034-1.919 3.048-.372 2.88 1.547-.167 2.077-2.846.372-2.88z" style="display:inline;fill:#fff;fill-opacity:.76744187;stroke:none" transform="matrix(.16417 0 0 .16383 -80.369 -53.179)"/></g></g><g transform="translate(143.539 -25.502)"><circle r="16" cx="-115.11621" cy="80.328316" style="color:#000;clip-rule:nonzero;display:inline;overflow:visible;visibility:visible;opacity:1;isolation:auto;mix-blend-mode:normal;color-interpolation:sRGB;color-interpolation-filters:linearRGB;solid-color:#000;solid-opacity:1;fill:#3d4343;fill-opacity:1;fill-rule:evenodd;stroke:none;stroke-width:2;stroke-linecap:square;stroke-linejoin:miter;stroke-miterlimit:4;stroke-dasharray:none;stroke-dashoffset:0;stroke-opacity:1;marker:none;color-rendering:auto;image-rendering:auto;shape-rendering:auto;text-rendering:auto;enable-background:accumulate"/><circle cx="-115.11621" cy="80.328316" r="14.857142" style="color:#000;clip-rule:nonzero;display:inline;overflow:visible;visibility:visible;opacity:1;isolation:auto;mix-blend-mode:normal;color-interpolation:sRGB;color-interpolation-filters:linearRGB;solid-color:#000;solid-opacity:1;fill:url(#f);fill-opacity:1;fill-rule:evenodd;stroke:none;stroke-width:2;stroke-linecap:square;stroke-linejoin:miter;stroke-miterlimit:4;stroke-dasharray:none;stroke-dashoffset:0;stroke-opacity:1;marker:none;color-rendering:auto;image-rendering:auto;shape-rendering:auto;text-rendering:auto;enable-background:accumulate"/><circle cx="-115.09579" cy="80.328316" style="color:#000;clip-rule:nonzero;display:inline;overflow:visible;visibility:visible;opacity:1;isolation:auto;mix-blend-mode:normal;color-interpolation:sRGB;color-interpolation-filters:linearRGB;solid-color:#000;solid-opacity:1;fill:#b4c8c8;fill-opacity:1;fill-rule:evenodd;stroke:none;stroke-width:2;stroke-linecap:square;stroke-linejoin:miter;stroke-miterlimit:4;stroke-dasharray:none;stroke-dashoffset:0;stroke-opacity:1;marker:none;color-rendering:auto;image-rendering:auto;shape-rendering:auto;text-rendering:auto;enable-background:accumulate" r="11.428572"/><circle cx="-115.11621" cy="80.328316" r="10.285714" style="color:#000;clip-rule:nonzero;display:inline;overflow:visible;visibility:visible;opacity:1;isolation:auto;mix-blend-mode:normal;color-interpolation:sRGB;color-interpolation-filters:linearRGB;solid-color:#000;solid-opacity:1;fill:url(#g);fill-opacity:1;fill-rule:evenodd;stroke:none;stroke-width:2;stroke-linecap:square;stroke-linejoin:miter;stroke-miterlimit:4;stroke-dasharray:none;stroke-dashoffset:0;stroke-opacity:1;marker:none;color-rendering:auto;image-rendering:auto;shape-rendering:auto;text-rendering:auto;enable-background:accumulate"/></g><g transform="matrix(.57143 0 0 .57143 41.09 10.016)" style="stroke-width:1.75"><circle r="28" cx="32" cy="31.821426" style="color:#000;clip-rule:nonzero;display:inline;overflow:visible;visibility:visible;opacity:1;isolation:auto;mix-blend-mode:normal;color-interpolation:sRGB;color-interpolation-filters:linearRGB;solid-color:#000;solid-opacity:1;fill:#7a8686;fill-opacity:1;fill-rule:evenodd;stroke:none;stroke-width:3.5;stroke-linecap:square;stroke-linejoin:miter;stroke-miterlimit:4;stroke-dasharray:none;stroke-dashoffset:0;stroke-opacity:1;marker:none;color-rendering:auto;image-rendering:auto;shape-rendering:auto;text-rendering:auto;enable-background:accumulate"/><circle cx="32" cy="31.821426" r="26" style="color:#000;clip-rule:nonzero;display:inline;overflow:visible;visibility:visible;opacity:1;isolation:auto;mix-blend-mode:normal;color-interpolation:sRGB;color-interpolation-filters:linearRGB;solid-color:#000;solid-opacity:1;fill:url(#h);fill-opacity:1;fill-rule:evenodd;stroke:none;stroke-width:3.5;stroke-linecap:square;stroke-linejoin:miter;stroke-miterlimit:4;stroke-dasharray:none;stroke-dashoffset:0;stroke-opacity:1;marker:none;color-rendering:auto;image-rendering:auto;shape-rendering:auto;text-rendering:auto;enable-background:accumulate"/><circle cx="32" cy="31.821428" style="color:#000;clip-rule:nonzero;display:inline;overflow:visible;visibility:visible;opacity:1;isolation:auto;mix-blend-mode:normal;color-interpolation:sRGB;color-interpolation-filters:linearRGB;solid-color:#000;solid-opacity:1;fill:#7a8686;fill-opacity:1;fill-rule:evenodd;stroke:none;stroke-width:3.5;stroke-linecap:square;stroke-linejoin:miter;stroke-miterlimit:4;stroke-dasharray:none;stroke-dashoffset:0;stroke-opacity:1;marker:none;color-rendering:auto;image-rendering:auto;shape-rendering:auto;text-rendering:auto;enable-background:accumulate" r="20"/><circle cx="32.000004" cy="31.821426" r="18" style="color:#000;clip-rule:nonzero;display:inline;overflow:visible;visibility:visible;opacity:1;isolation:auto;mix-blend-mode:normal;color-interpolation:sRGB;color-interpolation-filters:linearRGB;solid-color:#000;solid-opacity:1;fill:url(#i);fill-opacity:1;fill-rule:evenodd;stroke:none;stroke-width:3.5;stroke-linecap:square;stroke-linejoin:miter;stroke-miterlimit:4;stroke-dasharray:none;stroke-dashoffset:0;stroke-opacity:1;marker:none;color-rendering:auto;image-rendering:auto;shape-rendering:auto;text-rendering:auto;enable-background:accumulate"/></g></g></g></svg>