<!--Created with Inkscape (http://www.inkscape.org/)--><svg xmlns:dc="http://purl.org/dc/elements/1.1/" xmlns:cc="http://creativecommons.org/ns#" xmlns:rdf="http://www.w3.org/1999/02/22-rdf-syntax-ns#" xmlns="http://www.w3.org/2000/svg" xmlns:xlink="http://www.w3.org/1999/xlink" xmlns:sodipodi="http://sodipodi.sourceforge.net/DTD/sodipodi-0.dtd" xmlns:inkscape="http://www.inkscape.org/namespaces/inkscape" width="55.828022mm" height="25.988592mm" viewBox="0 0 197.81583 92.085562" inkscape:version="0.91 r13725" sodipodi:docname="back_road.svg"><defs><radialGradient inkscape:collect="always" xlink:href="#a" id="d" gradientUnits="userSpaceOnUse" cx="173.67632" cy="466.84573" fx="173.67632" fy="466.84573" r="145.44254"/><radialGradient inkscape:collect="always" xlink:href="#b" id="e" gradientUnits="userSpaceOnUse" cx="157.33423" cy="479.4436" fx="157.33423" fy="479.4436" r="79.743141"/><radialGradient inkscape:collect="always" xlink:href="#c" id="f" gradientUnits="userSpaceOnUse" gradientTransform="scale(.24532 4.07623)" cx="2202.1675" cy="116.22642" fx="2202.1675" fy="116.22642" r="11.371883"/><radialGradient inkscape:collect="always" xlink:href="#a" id="g" gradientUnits="userSpaceOnUse" cx="173.67632" cy="466.84573" fx="173.67632" fy="466.84573" r="145.44254"/><radialGradient inkscape:collect="always" xlink:href="#b" id="h" gradientUnits="userSpaceOnUse" cx="157.33423" cy="479.4436" fx="157.33423" fy="479.4436" r="79.743141"/><radialGradient inkscape:collect="always" xlink:href="#c" id="i" gradientUnits="userSpaceOnUse" gradientTransform="scale(.24532 4.07623)" cx="2202.1675" cy="116.22642" fx="2202.1675" fy="116.22642" r="11.371883"/><linearGradient id="a"><stop offset="0" style="stop-color:#000;stop-opacity:1"/><stop offset="1" style="stop-color:#fff;stop-opacity:1"/></linearGradient><linearGradient id="b"><stop offset="0" style="stop-color:#9a9a9a;stop-opacity:1"/><stop offset="1" style="stop-color:#e6e6e6;stop-opacity:1"/></linearGradient><linearGradient id="c"><stop offset="0" style="stop-color:#fff;stop-opacity:1"/><stop offset="1" style="stop-color:#000;stop-opacity:1"/></linearGradient></defs><sodipodi:namedview pagecolor="#ffffff" bordercolor="#666666" borderopacity="1.0" inkscape:pageopacity="0.0" inkscape:pageshadow="2" inkscape:zoom="0.35" inkscape:cx="-846.09209" inkscape:cy="31.757065" inkscape:document-units="px" inkscape:current-layer="layer1" showgrid="false" fit-margin-top="0" fit-margin-left="0" fit-margin-right="0" fit-margin-bottom="0" inkscape:window-width="3200" inkscape:window-height="1679" inkscape:window-x="0" inkscape:window-y="0" inkscape:window-maximized="1"/><metadata><rdf:RDF><cc:Work><dc:format>image/svg+xml</dc:format><dc:type rdf:resource="http://purl.org/dc/dcmitype/StillImage"/><dc:title/></cc:Work></rdf:RDF></metadata><g inkscape:label="Calque 1" inkscape:groupmode="layer"><g transform="matrix(.7671 .145 -.15666 .69177 -286.6 -352.844)"><path inkscape:connector-curvature="0" transform="translate(364.205 1.737)" d="M209.446 471.23c0 18.802-15.242 34.043-34.043 34.043s-34.042-15.241-34.042-34.042c0-18.802 15.24-34.043 34.042-34.043 18.801 0 34.043 15.241 34.043 34.043zm21.582 0c0 30.721-24.904 55.625-55.625 55.625-30.72 0-55.625-24.904-55.625-55.625 0-30.72 24.904-55.625 55.625-55.625 30.72 0 55.625 24.904 55.625 55.625z" style="font-size:12px;fill:url(#d);fill-rule:evenodd;stroke:#000;stroke-width:.51994151"/><ellipse ry="32.699829" rx="1.2707138" cy="473.08383" cx="173.41077" transform="matrix(25.57618 0 0 .99389 -3895.535 2.591)" style="font-size:12px;fill:none;fill-opacity:1;fill-rule:evenodd;stroke:#000;stroke-width:.51994151"/><path inkscape:connector-curvature="0" transform="translate(364.205)" d="M209.446 472.967c0 18.801-15.242 34.042-34.043 34.042s-34.042-15.24-34.042-34.042c0-18.801 15.24-34.043 34.042-34.043 18.801 0 34.043 15.242 34.043 34.043zm-1.5.117c0 17.95-14.551 32.5-32.5 32.5-17.95 0-32.5-14.55-32.5-32.5s14.55-32.5 32.5-32.5c17.949 0 32.5 14.55 32.5 32.5z" style="font-size:12px;fill:url(#e);fill-rule:evenodd;stroke:#000;stroke-width:.51994151"/><ellipse ry="32.405777" rx="1.9503174" cy="473.25897" cx="540.24628" transform="matrix(16.66392 0 0 1.0029 -8462.975 -1.677)" style="fill:url(#f);fill-opacity:1;fill-rule:evenodd;stroke:none;stroke-width:1pt;stroke-linecap:butt;stroke-linejoin:miter;stroke-opacity:1"/><ellipse ry="32.699829" rx="1.2707138" cy="473.08383" cx="173.41077" transform="matrix(7.67285 0 0 .29817 -790.906 331.726)" style="font-size:12px;fill:none;fill-opacity:1;fill-rule:evenodd;stroke:#000;stroke-width:.51994151"/><ellipse ry="2.4004059" rx="2.4003906" cy="464.85748" cx="528.09412" transform="translate(9.302 21.604)" style="fill:gray;fill-opacity:1;fill-rule:evenodd;stroke:#000;stroke-width:.51994152pt;stroke-linecap:butt;stroke-linejoin:miter;stroke-opacity:1"/><ellipse ry="2.4004059" rx="2.4003906" cy="464.85748" cx="528.09412" transform="translate(25.204 3.3)" style="fill:gray;fill-opacity:1;fill-rule:evenodd;stroke:#000;stroke-width:.51994152pt;stroke-linecap:butt;stroke-linejoin:miter;stroke-opacity:1"/><ellipse ry="2.4004059" rx="2.4003906" cy="464.85748" cx="528.09412" transform="translate(14.103 -5.701)" style="fill:gray;fill-opacity:1;fill-rule:evenodd;stroke:#000;stroke-width:.51994152pt;stroke-linecap:butt;stroke-linejoin:miter;stroke-opacity:1"/><ellipse ry="2.4004059" rx="2.4003906" cy="464.85748" cx="528.09412" transform="translate(23.104 15.903)" style="fill:gray;fill-opacity:1;fill-rule:evenodd;stroke:#000;stroke-width:.51994152pt;stroke-linecap:butt;stroke-linejoin:miter;stroke-opacity:1"/><ellipse ry="2.4004059" rx="2.4003906" cy="464.85748" cx="528.09412" style="fill:gray;fill-opacity:1;fill-rule:evenodd;stroke:#000;stroke-width:.51994152pt;stroke-linecap:butt;stroke-linejoin:miter;stroke-opacity:1"/><ellipse ry="2.4004059" rx="2.4003906" cy="464.85748" cx="528.09412" transform="translate(-1.2 13.802)" style="fill:gray;fill-opacity:1;fill-rule:evenodd;stroke:#000;stroke-width:.51994152pt;stroke-linecap:butt;stroke-linejoin:miter;stroke-opacity:1"/></g><g transform="matrix(.7671 .145 -.15666 .69177 -195.53 -352.845)"><path inkscape:connector-curvature="0" transform="translate(364.205 1.737)" d="M209.446 471.23c0 18.802-15.242 34.043-34.043 34.043s-34.042-15.241-34.042-34.042c0-18.802 15.24-34.043 34.042-34.043 18.801 0 34.043 15.241 34.043 34.043zm21.582 0c0 30.721-24.904 55.625-55.625 55.625-30.72 0-55.625-24.904-55.625-55.625 0-30.72 24.904-55.625 55.625-55.625 30.72 0 55.625 24.904 55.625 55.625z" style="font-size:12px;fill:url(#g);fill-rule:evenodd;stroke:#000;stroke-width:.51994151"/><ellipse ry="32.699829" rx="1.2707138" cy="473.08383" cx="173.41077" transform="matrix(25.57618 0 0 .99389 -3895.535 2.591)" style="font-size:12px;fill:none;fill-opacity:1;fill-rule:evenodd;stroke:#000;stroke-width:.51994151"/><path inkscape:connector-curvature="0" transform="translate(364.205)" d="M209.446 472.967c0 18.801-15.242 34.042-34.043 34.042s-34.042-15.24-34.042-34.042c0-18.801 15.24-34.043 34.042-34.043 18.801 0 34.043 15.242 34.043 34.043zm-1.5.117c0 17.95-14.551 32.5-32.5 32.5-17.95 0-32.5-14.55-32.5-32.5s14.55-32.5 32.5-32.5c17.949 0 32.5 14.55 32.5 32.5z" style="font-size:12px;fill:url(#h);fill-rule:evenodd;stroke:#000;stroke-width:.51994151"/><ellipse ry="32.405777" rx="1.9503174" cy="473.25897" cx="540.24628" transform="matrix(16.66392 0 0 1.0029 -8462.975 -1.677)" style="fill:url(#i);fill-opacity:1;fill-rule:evenodd;stroke:none;stroke-width:1pt;stroke-linecap:butt;stroke-linejoin:miter;stroke-opacity:1"/><ellipse ry="32.699829" rx="1.2707138" cy="473.08383" cx="173.41077" transform="matrix(7.67285 0 0 .29817 -790.906 331.726)" style="font-size:12px;fill:none;fill-opacity:1;fill-rule:evenodd;stroke:#000;stroke-width:.51994151"/><ellipse ry="2.4004059" rx="2.4003906" cy="464.85748" cx="528.09412" transform="translate(9.302 21.604)" style="fill:gray;fill-opacity:1;fill-rule:evenodd;stroke:#000;stroke-width:.51994152pt;stroke-linecap:butt;stroke-linejoin:miter;stroke-opacity:1"/><ellipse ry="2.4004059" rx="2.4003906" cy="464.85748" cx="528.09412" transform="translate(25.204 3.3)" style="fill:gray;fill-opacity:1;fill-rule:evenodd;stroke:#000;stroke-width:.51994152pt;stroke-linecap:butt;stroke-linejoin:miter;stroke-opacity:1"/><ellipse ry="2.4004059" rx="2.4003906" cy="464.85748" cx="528.09412" transform="translate(14.103 -5.701)" style="fill:gray;fill-opacity:1;fill-rule:evenodd;stroke:#000;stroke-width:.51994152pt;stroke-linecap:butt;stroke-linejoin:miter;stroke-opacity:1"/><ellipse ry="2.4004059" rx="2.4003906" cy="464.85748" cx="528.09412" transform="translate(23.104 15.903)" style="fill:gray;fill-opacity:1;fill-rule:evenodd;stroke:#000;stroke-width:.51994152pt;stroke-linecap:butt;stroke-linejoin:miter;stroke-opacity:1"/><ellipse ry="2.4004059" rx="2.4003906" cy="464.85748" cx="528.09412" style="fill:gray;fill-opacity:1;fill-rule:evenodd;stroke:#000;stroke-width:.51994152pt;stroke-linecap:butt;stroke-linejoin:miter;stroke-opacity:1"/><ellipse ry="2.4004059" rx="2.4003906" cy="464.85748" cx="528.09412" transform="translate(-1.2 13.802)" style="fill:gray;fill-opacity:1;fill-rule:evenodd;stroke:#000;stroke-width:.51994152pt;stroke-linecap:butt;stroke-linejoin:miter;stroke-opacity:1"/></g><path inkscape:connector-curvature="0" sodipodi:nodetypes="ccccccc" d="M-38.756 311.772c-15.518 0-37.614 14.19-37.614 36.287 0 22.098 3.15-29.515 33.02-29.515l90.973.703c32.872 0 34.544 50.91 34.544 28.812 0-22.098-22.695-36.287-38.214-36.287h-82.709z" style="font-size:12px;fill:#333;fill-opacity:1;fill-rule:evenodd" transform="matrix(1.24776 0 0 1.13992 95.29 -355.396)"/></g></svg>