<?xml version="1.0" encoding="UTF-8" standalone="no"?>
<!-- Created with Inkscape (http://www.inkscape.org/) -->

<svg
   xmlns:dc="http://purl.org/dc/elements/1.1/"
   xmlns:cc="http://creativecommons.org/ns#"
   xmlns:rdf="http://www.w3.org/1999/02/22-rdf-syntax-ns#"
   xmlns:svg="http://www.w3.org/2000/svg"
   xmlns="http://www.w3.org/2000/svg"
   xmlns:xlink="http://www.w3.org/1999/xlink"
   xmlns:sodipodi="http://sodipodi.sourceforge.net/DTD/sodipodi-0.dtd"
   xmlns:inkscape="http://www.inkscape.org/namespaces/inkscape"
   width="58.625103mm"
   height="50.264404mm"
   viewBox="0 0 207.72674 178.10222"
   id="svg6809"
   version="1.1"
   inkscape:version="0.91 r13725"
   sodipodi:docname="cabin.svg">
  <defs
     id="defs6811">
    <linearGradient
       inkscape:collect="always"
       xlink:href="#linearGradient813"
       id="linearGradient3282"
       gradientUnits="userSpaceOnUse"
       gradientTransform="scale(0.422907,2.364588)"
       x1="1346.4875"
       y1="122.42879"
       x2="1521.6838"
       y2="120.17594" />
    <linearGradient
       id="linearGradient813">
      <stop
         id="stop814"
         offset="0"
         style="stop-color:#ddffff;stop-opacity:1;" />
      <stop
         id="stop815"
         offset="1"
         style="stop-color:#f3f3f3;stop-opacity:1;" />
    </linearGradient>
    <linearGradient
       inkscape:collect="always"
       xlink:href="#linearGradient813"
       id="linearGradient3284"
       gradientUnits="userSpaceOnUse"
       gradientTransform="scale(0.966141,1.035046)"
       x1="576.2915"
       y1="174.21826"
       x2="643.77521"
       y2="174.21826" />
    <linearGradient
       inkscape:collect="always"
       xlink:href="#linearGradient863"
       id="linearGradient3286"
       gradientUnits="userSpaceOnUse"
       gradientTransform="scale(0.496811,2.012838)"
       x1="1027.5242"
       y1="95.39447"
       x2="951.65369"
       y2="102.98058" />
    <linearGradient
       id="linearGradient863">
      <stop
         id="stop864"
         offset="0"
         style="stop-color:#9a9a9a;stop-opacity:1;" />
      <stop
         id="stop865"
         offset="1"
         style="stop-color:#e6e6e6;stop-opacity:1;" />
    </linearGradient>
    <linearGradient
       inkscape:collect="always"
       xlink:href="#linearGradient863"
       id="linearGradient3288"
       gradientUnits="userSpaceOnUse"
       gradientTransform="scale(0.946657,1.056349)"
       x1="502.45963"
       y1="225.94942"
       x2="630.35931"
       y2="165.67783" />
    <linearGradient
       inkscape:collect="always"
       xlink:href="#linearGradient817"
       id="linearGradient3296"
       gradientUnits="userSpaceOnUse"
       gradientTransform="scale(3.427313,0.291774)"
       x1="89.359894"
       y1="2317.9695"
       x2="42.098991"
       y2="1781.809" />
    <linearGradient
       id="linearGradient817">
      <stop
         id="stop818"
         offset="0"
         style="stop-color:#ff0000;stop-opacity:1;" />
      <stop
         id="stop819"
         offset="1"
         style="stop-color:#ffffff;stop-opacity:1;" />
    </linearGradient>
    <linearGradient
       inkscape:collect="always"
       xlink:href="#linearGradient807"
       id="linearGradient3298"
       gradientUnits="userSpaceOnUse"
       gradientTransform="scale(0.32567,3.070595)"
       spreadMethod="reflect"
       x1="1514.0569"
       y1="66.653"
       x2="1527.087"
       y2="66.937988" />
    <linearGradient
       id="linearGradient807">
      <stop
         id="stop808"
         offset="0"
         style="stop-color:#000;stop-opacity:1;" />
      <stop
         id="stop809"
         offset="1"
         style="stop-color:#fff;stop-opacity:1;" />
    </linearGradient>
    <linearGradient
       inkscape:collect="always"
       xlink:href="#linearGradient822"
       id="linearGradient3300"
       gradientUnits="userSpaceOnUse"
       gradientTransform="scale(1.162288,0.860372)"
       x1="326.73798"
       y1="588.99829"
       x2="483.78781"
       y2="588.99829" />
    <linearGradient
       id="linearGradient822">
      <stop
         id="stop823"
         offset="0"
         style="stop-color:#c5efff;stop-opacity:1;" />
      <stop
         id="stop824"
         offset="1"
         style="stop-color:#ffffff;stop-opacity:1;" />
    </linearGradient>
  </defs>
  <sodipodi:namedview
     id="base"
     pagecolor="#ffffff"
     bordercolor="#666666"
     borderopacity="1.0"
     inkscape:pageopacity="0.0"
     inkscape:pageshadow="2"
     inkscape:zoom="0.35"
     inkscape:cx="-938.27949"
     inkscape:cy="-50.948886"
     inkscape:document-units="px"
     inkscape:current-layer="layer1"
     showgrid="false"
     fit-margin-top="0"
     fit-margin-left="0"
     fit-margin-right="0"
     fit-margin-bottom="0"
     inkscape:window-width="3200"
     inkscape:window-height="1679"
     inkscape:window-x="0"
     inkscape:window-y="0"
     inkscape:window-maximized="1" />
  <metadata
     id="metadata6814">
    <rdf:RDF>
      <cc:Work
         rdf:about="">
        <dc:format>image/svg+xml</dc:format>
        <dc:type
           rdf:resource="http://purl.org/dc/dcmitype/StillImage" />
        <dc:title />
      </cc:Work>
    </rdf:RDF>
  </metadata>
  <g
     inkscape:label="Calque 1"
     inkscape:groupmode="layer"
     id="layer1"
     transform="translate(-264.70806,-303.3111)">
    <g
       id="g4935"
       transform="matrix(1.24776,0,0,1.1399209,-329.2537,178.90349)">
      <path
         inkscape:connector-curvature="0"
         sodipodi:nodetypes="cssss"
         id="path6362"
         d="m 601.4521,245.9051 c -10.9251,-0.3282 -11.1999,2.7103 -11.2573,6.7414 l -0.7207,50.6332 c -0.1338,9.4024 1.6133,13.7574 9.1483,13.7496 1.7885,-0.002 5.0317,-71.058 2.8297,-71.1242 z"
         style="font-size:12px;fill:url(#linearGradient3282);fill-rule:evenodd"
         transform="matrix(0.987009,-0.160666,0.160666,0.987009,0,0)" />
      <path
         inkscape:connector-curvature="0"
         sodipodi:nodetypes="cssssssss"
         id="path792"
         d="m 573.1407,146.6308 c -8.3784,0 -15.3883,6.7082 -15.1234,14.9723 l 0.8402,26.2013 c 0.1726,5.3806 7.6656,12.4791 15.1234,14.9723 l 32.3474,10.8131 c 7.4141,2.4786 15.568,-6.2651 14.2834,-14.9721 l -5.4613,-37.0146 c -1.2947,-8.7749 -6.7451,-14.9723 -15.1236,-14.9723 l -26.8861,0 z"
         style="font-size:12px;fill:url(#linearGradient3284);fill-rule:evenodd;stroke:#000000;stroke-width:1.28040481" />
      <path
         inkscape:connector-curvature="0"
         sodipodi:nodetypes="cscccs"
         id="path797"
         d="m 484.1714,132.3939 c -6.4524,3.2261 -9.0935,14.3103 -7.8502,22.9143 l 13.3667,92.5061 c 1.6974,5.6579 15.7006,13.0132 20.7927,14.0032 l -5.9408,-139.6078 -20.3684,10.1842 z"
         style="font-size:12px;fill:url(#linearGradient3286);fill-rule:evenodd" />
      <path
         inkscape:connector-curvature="0"
         sodipodi:nodetypes="ccccssccccsccccccccccc"
         id="path795"
         d="m 519.6473,110.2245 c -9.336,0 -16.8519,7.3161 -16.8519,16.4038 l 0,121.6614 c 0,9.0877 7.5159,16.4038 16.8519,16.4038 l 117.6239,0.4244 c 3.3953,0.0123 5.0063,-2.6486 4.9704,-6.2197 l -0.4243,-42.2631 c -7.4259,-0.0907 -9.5603,-2.961 -10.6748,-10.4716 l -7.5587,-50.9365 c -1.1159,-7.52 2.6742,-8.1435 10.1708,-8.9226 -1.0608,-3.99 -7.1632,-14.8719 -12.73,-22.1544 -6.3154,-8.5891 -17.7007,-14.8554 -27.0361,-14.7517 l -74.3412,0.8262 z m 53.2112,36.0146 c -8.463,0 -15.5438,6.6623 -15.2762,14.8699 l 0.8487,26.0223 c 0.1743,5.3439 7.743,12.3939 15.2762,14.8699 l 32.6741,10.7394 c 7.489,2.4615 15.7253,-6.2224 14.4277,-14.8699 l -5.5165,-36.7617 c -1.3078,-8.7149 -6.8132,-14.8699 -15.2763,-14.8699 l -27.1577,0 z"
         style="font-size:12px;fill:url(#linearGradient3288);fill-rule:evenodd;stroke:#999999;stroke-width:0.51994151;stroke-opacity:1" />
      <path
         inkscape:connector-curvature="0"
         sodipodi:nodetypes="ccccccc"
         id="path824"
         d="m 480.2286,123.0371 c 4.4192,1.4468 4.6677,5.2379 4.6677,9.1277 l 0.1243,133.0474 9.3354,0 0,-134.728 c 0,-3.8897 -1.6973,-18.3879 -14.4275,-18.4587 -4.162,0.3001 -4.2262,10.1628 0.3001,11.0116 z"
         style="font-size:12px;fill:url(#linearGradient3296);fill-rule:evenodd" />
      <rect
         y="144.27541"
         x="483.74713"
         height="112.02568"
         width="11.881531"
         id="rect803"
         style="font-size:12px;fill:url(#linearGradient3298);fill-rule:evenodd;stroke-width:1" />
      <rect
         ry="3.6312301"
         y="159.55159"
         x="521.59509"
         height="103.53882"
         width="2.8886926"
         id="rect828"
         style="font-size:12px;fill:url(#linearGradient3300);fill-rule:evenodd"
         rx="3.3042026" />
      <path
         inkscape:connector-curvature="0"
         sodipodi:nodetypes="cccccccccc"
         id="path868"
         d="m 573.7072,140.8807 c -11.284,0 -20.3683,9.0843 -20.3683,20.3684 l 0,81.473 c 0,11.2841 9.0843,20.3684 20.3683,20.3684 l 33.0983,0 c 11.2841,0 19.5198,-9.0843 19.5198,-20.3684 l -0.4244,-31.401 c -0.4243,-5.6421 -6.6206,-43.7265 -9.7717,-60.0322 -1.4538,-5.2727 -9.6224,-11.2569 -14.8401,-10.4082 l -27.5819,0 z"
         style="font-size:12px;fill:none;fill-rule:evenodd;stroke:#999999;stroke-width:0.6499269;stroke-opacity:1" />
    </g>
  </g>
</svg>
