<svg xmlns:dc="http://purl.org/dc/elements/1.1/" xmlns:cc="http://creativecommons.org/ns#" xmlns:rdf="http://www.w3.org/1999/02/22-rdf-syntax-ns#" xmlns="http://www.w3.org/2000/svg" width="58.625103mm" height="50.264404mm" viewBox="0 0 207.72674 178.10222" version="1.1" id="svg58"><metadata id="metadata38"><rdf:RDF><cc:Work><dc:format>image/svg+xml</dc:format><dc:type rdf:resource="http://purl.org/dc/dcmitype/StillImage"/><dc:title/><dc:date>2023</dc:date><dc:creator><cc:Agent><dc:title>Timothée Giet</dc:title></cc:Agent></dc:creator><cc:license rdf:resource="http://creativecommons.org/licenses/by-sa/4.0/"/></cc:Work><cc:License rdf:about="http://creativecommons.org/licenses/by-sa/4.0/"><cc:permits rdf:resource="http://creativecommons.org/ns#Reproduction"/><cc:permits rdf:resource="http://creativecommons.org/ns#Distribution"/><cc:requires rdf:resource="http://creativecommons.org/ns#Notice"/><cc:requires rdf:resource="http://creativecommons.org/ns#Attribution"/><cc:permits rdf:resource="http://creativecommons.org/ns#DerivativeWorks"/><cc:requires rdf:resource="http://creativecommons.org/ns#ShareAlike"/></cc:License></rdf:RDF></metadata><g transform="matrix(1.24776 0 0 1.13992 -593.962 -124.408)" id="g56"><path d="M519.647 110.225c-9.336 0-16.852 7.316-16.852 16.403V248.29c0 9.087 7.516 16.404 16.852 16.404l117.624.424c3.396.012 5.007-2.649 4.97-6.22l-.424-42.263c-7.426-.09-9.56-2.96-10.674-10.471l-7.56-50.937c-1.115-7.52 2.675-8.143 10.172-8.923-1.061-3.99-7.164-14.871-12.73-22.154-6.316-8.59-17.701-14.855-27.037-14.752l-74.34.827z" style="font-size:12px;fill:#636363;fill-opacity:1;fill-rule:evenodd;stroke:none;stroke-width:.519942;stroke-opacity:1" id="path46"/><path d="M524.155 113.515c-9.336 0-16.852 7.316-16.852 16.403v113.437c0 9.087 7.516 16.404 16.852 16.404l110.11.424c3.397.014 5.015-2.649 4.97-6.22l-.423-34.038c-7.426-.09-9.56-6.25-10.674-13.761l-7.56-50.937c-1.115-7.52 1.172-9.788 8.669-10.568-1.061-3.99-4.159-9.936-9.725-17.22-6.316-8.59-16.198-14.854-25.534-14.751l-69.832.827z" style="font-size:12px;fill:#d8d8d8;fill-opacity:1;fill-rule:evenodd;stroke:none;stroke-width:.519942;stroke-opacity:1" id="path46-3"/><path d="M602.016 246.037c-10.925-.328-11.43 1.407-11.494 5.44l-.831 51.877c-.151 9.402 1.442 13.602 8.977 13.595 5.336-28.32 5.436-49.444 3.348-70.912z" style="font-size:12px;fill:#90ddeb;fill-opacity:1;fill-rule:evenodd;stroke:none;stroke-width:1.17912;stroke-miterlimit:4;stroke-dasharray:none;stroke-opacity:1" transform="rotate(-9.245)" id="path40"/><path d="M484.171 132.394c-6.452 3.226-9.093 14.31-7.85 22.914l13.367 92.506c1.697 5.658 10.59 6.437 15.683 7.427l-.831-133.031z" style="font-size:12px;fill:#636363;fill-opacity:1;fill-rule:evenodd" id="path44"/><path d="M480.229 123.037c4.419 1.447 4.667 5.238 4.667 9.128l.125 133.047h9.335V130.484c0-3.89-1.697-18.388-14.428-18.459-4.162.3-4.226 10.163.3 11.012z" style="font-size:12px;fill:#424242;fill-rule:evenodd;fill-opacity:1" id="path48"/><rect y="144.27541" x="483.15701" height="121.15205" width="12.830515" style="font-size:12px;fill:#424242;fill-opacity:1;fill-rule:evenodd;stroke-width:1" id="rect50"/><rect ry="3.6312301" y="159.55159" x="521.59509" height="103.53882" width="2.8886926" style="font-size:12px;fill:#636363;fill-rule:evenodd;fill-opacity:1" rx="3.3042026" id="rect52"/><path d="M573.707 140.88c-11.26-.024-20.394 9.11-20.368 20.37v74.893c-.025 11.259 9.109 20.393 20.368 20.369h33.098c11.285 0 19.52-9.085 19.52-20.37l-.424-24.82c-.424-5.643-6.62-43.727-9.772-60.033-1.454-5.273-9.622-11.257-14.84-10.408h-27.582z" style="font-size:12px;fill:none;fill-rule:evenodd;stroke:#636363;stroke-width:1.57217;stroke-miterlimit:4;stroke-dasharray:none;stroke-opacity:1" id="path54"/><path d="M572.335 146.63c-8.378 0-15.388 6.709-15.123 14.973l.84 26.201c.173 5.381 7.666 12.48 15.124 14.973l32.347 10.813c7.414 2.478 15.568-6.265 14.284-14.972l-5.462-37.015c-1.294-8.775-6.745-14.972-15.123-14.972h-26.887z" style="font-size:12px;fill:#90ddeb;fill-opacity:1;fill-rule:evenodd;stroke:#636363;stroke-width:1.57217;stroke-miterlimit:4;stroke-dasharray:none;stroke-opacity:1" id="path42"/></g></svg>