<!--Created with Inkscape (http://www.inkscape.org/)--><svg xmlns:dc="http://purl.org/dc/elements/1.1/" xmlns:cc="http://creativecommons.org/ns#" xmlns:rdf="http://www.w3.org/1999/02/22-rdf-syntax-ns#" xmlns="http://www.w3.org/2000/svg" xmlns:xlink="http://www.w3.org/1999/xlink" xmlns:sodipodi="http://sodipodi.sourceforge.net/DTD/sodipodi-0.dtd" xmlns:inkscape="http://www.inkscape.org/namespaces/inkscape" width="65.786804mm" height="30.984308mm" viewBox="0 0 233.10285 109.78692" inkscape:version="0.91 r13725" sodipodi:docname="engine.svg"><defs><linearGradient inkscape:collect="always" xlink:href="#a" id="d" gradientUnits="userSpaceOnUse" gradientTransform="scale(.79283 1.2613)" x1="695.70404" y1="262.70834" x2="719.46515" y2="253.47224"/><linearGradient id="a"><stop offset="0" style="stop-color:#b25700;stop-opacity:1"/><stop offset="1" style="stop-color:#ff8d00;stop-opacity:1"/></linearGradient><linearGradient inkscape:collect="always" xlink:href="#a" id="e" gradientUnits="userSpaceOnUse" gradientTransform="scale(1.37001 .72992)" x1="410.84442" y1="432.69513" x2="499.28995" y2="425.5611"/><linearGradient inkscape:collect="always" xlink:href="#b" id="g" gradientUnits="userSpaceOnUse" gradientTransform="scale(.74787 1.33712)" x1="846.2688" y1="226.51025" x2="855.63068" y2="226.51025"/><linearGradient id="b"><stop offset="0" style="stop-color:#dff;stop-opacity:1"/><stop offset="1" style="stop-color:#f3f3f3;stop-opacity:1"/></linearGradient><linearGradient inkscape:collect="always" xlink:href="#c" id="h" gradientUnits="userSpaceOnUse" gradientTransform="scale(.8165 1.22474)" x1="781.25006" y1="293.82883" x2="778.88409" y2="249.26498"/><linearGradient id="c"><stop offset="0" style="stop-color:#000;stop-opacity:1"/><stop offset="1" style="stop-color:#fff;stop-opacity:1"/></linearGradient><linearGradient inkscape:collect="always" xlink:href="#a" id="i" gradientUnits="userSpaceOnUse" gradientTransform="scale(1.59688 .62622)" x1="345.013" y1="475.3526" x2="338.09872" y2="485.17831"/><linearGradient inkscape:collect="always" xlink:href="#a" id="j" gradientUnits="userSpaceOnUse" gradientTransform="scale(1.59688 .62622)" x1="352.37216" y1="443.01392" x2="344.59073" y2="451.94662"/><linearGradient inkscape:collect="always" xlink:href="#b" id="f" gradientUnits="userSpaceOnUse" gradientTransform="scale(.74787 1.33712)" x1="846.2688" y1="226.51025" x2="855.63068" y2="226.51025"/></defs><sodipodi:namedview pagecolor="#ffffff" bordercolor="#666666" borderopacity="1.0" inkscape:pageopacity="0.0" inkscape:pageshadow="2" inkscape:zoom="0.35" inkscape:cx="-822.73429" inkscape:cy="-153.67797" inkscape:document-units="px" inkscape:current-layer="layer1" showgrid="false" fit-margin-top="0" fit-margin-left="0" fit-margin-right="0" fit-margin-bottom="0" inkscape:window-width="3200" inkscape:window-height="1679" inkscape:window-x="0" inkscape:window-y="0" inkscape:window-maximized="1"/><metadata><rdf:RDF><cc:Work><dc:format>image/svg+xml</dc:format><dc:type rdf:resource="http://purl.org/dc/dcmitype/StillImage"/><dc:title/></cc:Work></rdf:RDF></metadata><g transform="matrix(1.24776 0 0 1.13992 -590.759 -302.337)" inkscape:label="Calque 1" inkscape:groupmode="layer"><path inkscape:connector-curvature="0" d="M551.948 318.28v7.502h9.902v-7.501h-9.902zm0 9.902v7.502h9.902v-7.502h-9.902zm-1.5-11.101v21.003h13.203v-21.003h-13.203z" style="font-size:12px;fill:url(#d);fill-opacity:1;fill-rule:evenodd"/><path inkscape:connector-curvature="0" sodipodi:nodetypes="ccccccccccc" d="m478.96 318.279 119.535.281c19.011-.394 34.312 20.056 34.425 37.38-.141 1.795 1.388 4.426 3.753 4.551l5.948-.173c.873-.417 6.828-29.37 7.293-35.986 2.162-5.896 6.685-58.502-8.474-58.502l-160.531-.595c-3.385-.18-6.47 2.34-7.454 4.858l.154 42.202c.3 3 1.65 5.984 5.35 5.984z" style="font-size:12px;fill:url(#e);fill-rule:evenodd"/><ellipse ry="6.2590027" rx="3.5007629" cy="302.87198" cx="636.40369" transform="translate(9.335 11.245)" style="fill:url(#f);fill-opacity:1;fill-rule:evenodd;stroke:none;stroke-width:1pt;stroke-linecap:butt;stroke-linejoin:miter;stroke-opacity:1"/><ellipse ry="6.2590027" rx="3.5007629" cy="302.87198" cx="636.40369" transform="translate(1.485 3.607)" style="fill:url(#g);fill-opacity:1;fill-rule:evenodd;stroke:none;stroke-width:1pt;stroke-linecap:butt;stroke-linejoin:miter;stroke-opacity:1"/><rect ry="9.214138" y="325.89276" x="636.5094" height="35.644531" width="23.763062" style="font-size:12px;fill:url(#h);fill-rule:evenodd" rx="8.3843145"/><path inkscape:connector-curvature="0" sodipodi:nodetypes="cccc" d="M551.198 303.728h-15.302c0-1.988 3.725-6 7.951-6 4.226 0 7.351 4.012 7.351 6z" style="font-size:12px;fill:url(#i);fill-rule:evenodd;stroke-width:1"/><path inkscape:connector-curvature="0" sodipodi:nodetypes="cccc" d="M562.9 283.325h-15.302c0-1.989 3.726-6.001 7.951-6.001 4.226 0 7.351 4.012 7.351 6z" style="font-size:12px;fill:url(#j);fill-rule:evenodd;stroke-width:1"/></g></svg>