<!--Created with Inkscape (http://www.inkscape.org/)--><svg xmlns:dc="http://purl.org/dc/elements/1.1/" xmlns:cc="http://creativecommons.org/ns#" xmlns:rdf="http://www.w3.org/1999/02/22-rdf-syntax-ns#" xmlns="http://www.w3.org/2000/svg" xmlns:xlink="http://www.w3.org/1999/xlink" xmlns:sodipodi="http://sodipodi.sourceforge.net/DTD/sodipodi-0.dtd" xmlns:inkscape="http://www.inkscape.org/namespaces/inkscape" width="113.91727mm" height="34.214252mm" viewBox="0 0 403.64386 121.2316" inkscape:version="0.91 r13725" sodipodi:docname="front_road.svg"><defs><radialGradient inkscape:collect="always" xlink:href="#c" id="j" gradientUnits="userSpaceOnUse" gradientTransform="scale(.24532 4.07623)" cx="2202.1675" cy="116.22642" fx="2202.1675" fy="116.22642" r="11.371883"/><radialGradient inkscape:collect="always" xlink:href="#a" id="e" gradientUnits="userSpaceOnUse" cx="173.67632" cy="466.84573" fx="173.67632" fy="466.84573" r="145.44254"/><radialGradient inkscape:collect="always" xlink:href="#b" id="f" gradientUnits="userSpaceOnUse" cx="157.33423" cy="479.4436" fx="157.33423" fy="479.4436" r="79.743141"/><radialGradient inkscape:collect="always" xlink:href="#c" id="m" gradientUnits="userSpaceOnUse" gradientTransform="scale(.24532 4.07623)" cx="2202.1675" cy="116.22642" fx="2202.1675" fy="116.22642" r="11.371883"/><radialGradient inkscape:collect="always" xlink:href="#c" id="g" gradientUnits="userSpaceOnUse" gradientTransform="scale(.24532 4.07623)" cx="2202.1675" cy="116.22642" fx="2202.1675" fy="116.22642" r="11.371883"/><radialGradient inkscape:collect="always" xlink:href="#b" id="l" gradientUnits="userSpaceOnUse" cx="157.33423" cy="479.4436" fx="157.33423" fy="479.4436" r="79.743141"/><radialGradient inkscape:collect="always" xlink:href="#a" id="h" gradientUnits="userSpaceOnUse" cx="173.67632" cy="466.84573" fx="173.67632" fy="466.84573" r="145.44254"/><radialGradient inkscape:collect="always" xlink:href="#b" id="i" gradientUnits="userSpaceOnUse" cx="157.33423" cy="479.4436" fx="157.33423" fy="479.4436" r="79.743141"/><radialGradient inkscape:collect="always" xlink:href="#a" id="k" gradientUnits="userSpaceOnUse" cx="173.67632" cy="466.84573" fx="173.67632" fy="466.84573" r="145.44254"/><radialGradient inkscape:collect="always" xlink:href="#a" id="p" gradientUnits="userSpaceOnUse" gradientTransform="scale(1.34164 .74536)" spreadMethod="reflect" cx="359.8887" cy="442.81534" fx="359.8887" fy="442.81534" r="6.0662632"/><linearGradient id="a"><stop offset="0" style="stop-color:#000;stop-opacity:1"/><stop offset="1" style="stop-color:#fff;stop-opacity:1"/></linearGradient><linearGradient id="c"><stop offset="0" style="stop-color:#fff;stop-opacity:1"/><stop offset="1" style="stop-color:#000;stop-opacity:1"/></linearGradient><linearGradient id="b"><stop offset="0" style="stop-color:#9a9a9a;stop-opacity:1"/><stop offset="1" style="stop-color:#e6e6e6;stop-opacity:1"/></linearGradient><linearGradient inkscape:collect="always" xlink:href="#a" id="n" gradientUnits="userSpaceOnUse" gradientTransform="scale(1.3297 .75205)" x1="381.02792" y1="427.90057" x2="380.26804" y2="491.0639"/><linearGradient inkscape:collect="always" xlink:href="#d" id="o" gradientUnits="userSpaceOnUse" gradientTransform="scale(2.43136 .4113)" x1="251.35197" y1="1645.4783" x2="251.63348" y2="1749.1514"/><linearGradient id="d"><stop offset="0" style="stop-color:#7f7f7f;stop-opacity:1"/><stop offset="1" style="stop-color:#fff;stop-opacity:1"/></linearGradient></defs><sodipodi:namedview pagecolor="#ffffff" bordercolor="#666666" borderopacity="1.0" inkscape:pageopacity="0.0" inkscape:pageshadow="2" inkscape:zoom="0.35" inkscape:cx="-531.74951" inkscape:cy="-119.3842" inkscape:document-units="px" inkscape:current-layer="layer1" showgrid="false" fit-margin-top="0" fit-margin-left="0" fit-margin-right="0" fit-margin-bottom="0" inkscape:window-width="3200" inkscape:window-height="1679" inkscape:window-x="0" inkscape:window-y="0" inkscape:window-maximized="1"/><metadata><rdf:RDF><cc:Work><dc:format>image/svg+xml</dc:format><dc:type rdf:resource="http://purl.org/dc/dcmitype/StillImage"/><dc:title/></cc:Work></rdf:RDF></metadata><g transform="matrix(1.24776 0 0 1.13992 -401.157 -426.25)" inkscape:label="Calque 1" inkscape:groupmode="layer"><rect ry="11.517641" y="391.55243" x="324.19547" height="52.618103" width="320.80072" style="font-size:12px;fill:#666;fill-opacity:1;fill-rule:evenodd" rx="10.480365"/><g transform="matrix(.6278 0 0 .6197 95.824 152.22)"><path inkscape:connector-curvature="0" transform="translate(364.205 1.737)" d="M209.446 471.23c0 18.802-15.242 34.043-34.043 34.043s-34.042-15.241-34.042-34.042c0-18.802 15.24-34.043 34.042-34.043 18.801 0 34.043 15.241 34.043 34.043zm21.582 0c0 30.721-24.904 55.625-55.625 55.625-30.72 0-55.625-24.904-55.625-55.625 0-30.72 24.904-55.625 55.625-55.625 30.72 0 55.625 24.904 55.625 55.625z" style="font-size:12px;fill:url(#e);fill-rule:evenodd;stroke:#000;stroke-width:.51994151"/><ellipse ry="32.699829" rx="1.2707138" cy="473.08383" cx="173.41077" transform="matrix(25.57618 0 0 .99389 -3895.535 2.591)" style="font-size:12px;fill:none;fill-opacity:1;fill-rule:evenodd;stroke:#000;stroke-width:.51994151"/><path inkscape:connector-curvature="0" transform="translate(364.205)" d="M209.446 472.967c0 18.801-15.242 34.042-34.043 34.042s-34.042-15.24-34.042-34.042c0-18.801 15.24-34.043 34.042-34.043 18.801 0 34.043 15.242 34.043 34.043zm-1.5.117c0 17.95-14.551 32.5-32.5 32.5-17.95 0-32.5-14.55-32.5-32.5s14.55-32.5 32.5-32.5c17.949 0 32.5 14.55 32.5 32.5z" style="font-size:12px;fill:url(#f);fill-rule:evenodd;stroke:#000;stroke-width:.51994151"/><ellipse ry="32.405777" rx="1.9503174" cy="473.25897" cx="540.24628" transform="matrix(16.66392 0 0 1.0029 -8462.975 -1.677)" style="fill:url(#g);fill-opacity:1;fill-rule:evenodd;stroke:none;stroke-width:1pt;stroke-linecap:butt;stroke-linejoin:miter;stroke-opacity:1"/><ellipse ry="32.699829" rx="1.2707138" cy="473.08383" cx="173.41077" transform="matrix(7.67285 0 0 .29817 -790.906 331.726)" style="font-size:12px;fill:none;fill-opacity:1;fill-rule:evenodd;stroke:#000;stroke-width:.51994151"/><ellipse ry="2.4004059" rx="2.4003906" cy="464.85748" cx="528.09412" transform="translate(9.302 21.604)" style="fill:gray;fill-opacity:1;fill-rule:evenodd;stroke:#000;stroke-width:.51994152pt;stroke-linecap:butt;stroke-linejoin:miter;stroke-opacity:1"/><ellipse ry="2.4004059" rx="2.4003906" cy="464.85748" cx="528.09412" transform="translate(25.204 3.3)" style="fill:gray;fill-opacity:1;fill-rule:evenodd;stroke:#000;stroke-width:.51994152pt;stroke-linecap:butt;stroke-linejoin:miter;stroke-opacity:1"/><ellipse ry="2.4004059" rx="2.4003906" cy="464.85748" cx="528.09412" transform="translate(14.103 -5.701)" style="fill:gray;fill-opacity:1;fill-rule:evenodd;stroke:#000;stroke-width:.51994152pt;stroke-linecap:butt;stroke-linejoin:miter;stroke-opacity:1"/><ellipse ry="2.4004059" rx="2.4003906" cy="464.85748" cx="528.09412" transform="translate(23.104 15.903)" style="fill:gray;fill-opacity:1;fill-rule:evenodd;stroke:#000;stroke-width:.51994152pt;stroke-linecap:butt;stroke-linejoin:miter;stroke-opacity:1"/><ellipse ry="2.4004059" rx="2.4003906" cy="464.85748" cx="528.09412" style="fill:gray;fill-opacity:1;fill-rule:evenodd;stroke:#000;stroke-width:.51994152pt;stroke-linecap:butt;stroke-linejoin:miter;stroke-opacity:1"/><ellipse ry="2.4004059" rx="2.4003906" cy="464.85748" cx="528.09412" transform="translate(-1.2 13.802)" style="fill:gray;fill-opacity:1;fill-rule:evenodd;stroke:#000;stroke-width:.51994152pt;stroke-linecap:butt;stroke-linejoin:miter;stroke-opacity:1"/></g><g transform="matrix(.6278 0 0 .6197 255.753 151.62)"><path inkscape:connector-curvature="0" transform="translate(364.205 1.737)" d="M209.446 471.23c0 18.802-15.242 34.043-34.043 34.043s-34.042-15.241-34.042-34.042c0-18.802 15.24-34.043 34.042-34.043 18.801 0 34.043 15.241 34.043 34.043zm21.582 0c0 30.721-24.904 55.625-55.625 55.625-30.72 0-55.625-24.904-55.625-55.625 0-30.72 24.904-55.625 55.625-55.625 30.72 0 55.625 24.904 55.625 55.625z" style="font-size:12px;fill:url(#h);fill-rule:evenodd;stroke:#000;stroke-width:.51994151"/><ellipse ry="32.699829" rx="1.2707138" cy="473.08383" cx="173.41077" transform="matrix(25.57618 0 0 .99389 -3895.535 2.591)" style="font-size:12px;fill:none;fill-opacity:1;fill-rule:evenodd;stroke:#000;stroke-width:.51994151"/><path inkscape:connector-curvature="0" transform="translate(364.205)" d="M209.446 472.967c0 18.801-15.242 34.042-34.043 34.042s-34.042-15.24-34.042-34.042c0-18.801 15.24-34.043 34.042-34.043 18.801 0 34.043 15.242 34.043 34.043zm-1.5.117c0 17.95-14.551 32.5-32.5 32.5-17.95 0-32.5-14.55-32.5-32.5s14.55-32.5 32.5-32.5c17.949 0 32.5 14.55 32.5 32.5z" style="font-size:12px;fill:url(#i);fill-rule:evenodd;stroke:#000;stroke-width:.51994151"/><ellipse ry="32.405777" rx="1.9503174" cy="473.25897" cx="540.24628" transform="matrix(16.66392 0 0 1.0029 -8462.975 -1.677)" style="fill:url(#j);fill-opacity:1;fill-rule:evenodd;stroke:none;stroke-width:1pt;stroke-linecap:butt;stroke-linejoin:miter;stroke-opacity:1"/><ellipse ry="32.699829" rx="1.2707138" cy="473.08383" cx="173.41077" transform="matrix(7.67285 0 0 .29817 -790.906 331.726)" style="font-size:12px;fill:none;fill-opacity:1;fill-rule:evenodd;stroke:#000;stroke-width:.51994151"/><ellipse ry="2.4004059" rx="2.4003906" cy="464.85748" cx="528.09412" transform="translate(9.302 21.604)" style="fill:gray;fill-opacity:1;fill-rule:evenodd;stroke:#000;stroke-width:.51994152pt;stroke-linecap:butt;stroke-linejoin:miter;stroke-opacity:1"/><ellipse ry="2.4004059" rx="2.4003906" cy="464.85748" cx="528.09412" transform="translate(25.204 3.3)" style="fill:gray;fill-opacity:1;fill-rule:evenodd;stroke:#000;stroke-width:.51994152pt;stroke-linecap:butt;stroke-linejoin:miter;stroke-opacity:1"/><ellipse ry="2.4004059" rx="2.4003906" cy="464.85748" cx="528.09412" transform="translate(14.103 -5.701)" style="fill:gray;fill-opacity:1;fill-rule:evenodd;stroke:#000;stroke-width:.51994152pt;stroke-linecap:butt;stroke-linejoin:miter;stroke-opacity:1"/><ellipse ry="2.4004059" rx="2.4003906" cy="464.85748" cx="528.09412" transform="translate(23.104 15.903)" style="fill:gray;fill-opacity:1;fill-rule:evenodd;stroke:#000;stroke-width:.51994152pt;stroke-linecap:butt;stroke-linejoin:miter;stroke-opacity:1"/><ellipse ry="2.4004059" rx="2.4003906" cy="464.85748" cx="528.09412" style="fill:gray;fill-opacity:1;fill-rule:evenodd;stroke:#000;stroke-width:.51994152pt;stroke-linecap:butt;stroke-linejoin:miter;stroke-opacity:1"/><ellipse ry="2.4004059" rx="2.4003906" cy="464.85748" cx="528.09412" transform="translate(-1.2 13.802)" style="fill:gray;fill-opacity:1;fill-rule:evenodd;stroke:#000;stroke-width:.51994152pt;stroke-linecap:butt;stroke-linejoin:miter;stroke-opacity:1"/></g><g transform="matrix(.61478 .1272 -.12556 .60686 91.121 89.963)"><path inkscape:connector-curvature="0" transform="translate(364.205 1.737)" d="M209.446 471.23c0 18.802-15.242 34.043-34.043 34.043s-34.042-15.241-34.042-34.042c0-18.802 15.24-34.043 34.042-34.043 18.801 0 34.043 15.241 34.043 34.043zm21.582 0c0 30.721-24.904 55.625-55.625 55.625-30.72 0-55.625-24.904-55.625-55.625 0-30.72 24.904-55.625 55.625-55.625 30.72 0 55.625 24.904 55.625 55.625z" style="font-size:12px;fill:url(#k);fill-rule:evenodd;stroke:#000;stroke-width:.51994151"/><ellipse ry="32.699829" rx="1.2707138" cy="473.08383" cx="173.41077" transform="matrix(25.57618 0 0 .99389 -3895.535 2.591)" style="font-size:12px;fill:none;fill-opacity:1;fill-rule:evenodd;stroke:#000;stroke-width:.51994151"/><path inkscape:connector-curvature="0" transform="translate(364.205)" d="M209.446 472.967c0 18.801-15.242 34.042-34.043 34.042s-34.042-15.24-34.042-34.042c0-18.801 15.24-34.043 34.042-34.043 18.801 0 34.043 15.242 34.043 34.043zm-1.5.117c0 17.95-14.551 32.5-32.5 32.5-17.95 0-32.5-14.55-32.5-32.5s14.55-32.5 32.5-32.5c17.949 0 32.5 14.55 32.5 32.5z" style="font-size:12px;fill:url(#l);fill-rule:evenodd;stroke:#000;stroke-width:.51994151"/><ellipse ry="32.405777" rx="1.9503174" cy="473.25897" cx="540.24628" transform="matrix(16.66392 0 0 1.0029 -8462.975 -1.677)" style="fill:url(#m);fill-opacity:1;fill-rule:evenodd;stroke:none;stroke-width:1pt;stroke-linecap:butt;stroke-linejoin:miter;stroke-opacity:1"/><ellipse ry="32.699829" rx="1.2707138" cy="473.08383" cx="173.41077" transform="matrix(7.67285 0 0 .29817 -790.906 331.726)" style="font-size:12px;fill:none;fill-opacity:1;fill-rule:evenodd;stroke:#000;stroke-width:.51994151"/><ellipse ry="2.4004059" rx="2.4003906" cy="464.85748" cx="528.09412" transform="translate(9.302 21.604)" style="fill:gray;fill-opacity:1;fill-rule:evenodd;stroke:#000;stroke-width:.51994152pt;stroke-linecap:butt;stroke-linejoin:miter;stroke-opacity:1"/><ellipse ry="2.4004059" rx="2.4003906" cy="464.85748" cx="528.09412" transform="translate(25.204 3.3)" style="fill:gray;fill-opacity:1;fill-rule:evenodd;stroke:#000;stroke-width:.51994152pt;stroke-linecap:butt;stroke-linejoin:miter;stroke-opacity:1"/><ellipse ry="2.4004059" rx="2.4003906" cy="464.85748" cx="528.09412" transform="translate(14.103 -5.701)" style="fill:gray;fill-opacity:1;fill-rule:evenodd;stroke:#000;stroke-width:.51994152pt;stroke-linecap:butt;stroke-linejoin:miter;stroke-opacity:1"/><ellipse ry="2.4004059" rx="2.4003906" cy="464.85748" cx="528.09412" transform="translate(23.104 15.903)" style="fill:gray;fill-opacity:1;fill-rule:evenodd;stroke:#000;stroke-width:.51994152pt;stroke-linecap:butt;stroke-linejoin:miter;stroke-opacity:1"/><ellipse ry="2.4004059" rx="2.4003906" cy="464.85748" cx="528.09412" style="fill:gray;fill-opacity:1;fill-rule:evenodd;stroke:#000;stroke-width:.51994152pt;stroke-linecap:butt;stroke-linejoin:miter;stroke-opacity:1"/><ellipse ry="2.4004059" rx="2.4003906" cy="464.85748" cx="528.09412" transform="translate(-1.2 13.802)" style="fill:gray;fill-opacity:1;fill-rule:evenodd;stroke:#000;stroke-width:.51994152pt;stroke-linecap:butt;stroke-linejoin:miter;stroke-opacity:1"/></g><g transform="translate(0 87.725)"><rect rx="14.439787" style="font-size:12px;fill:url(#n);fill-rule:evenodd" width="76.789734" height="43.430878" x="472.29788" y="318.74921" ry="15.868941"/><path style="font-size:12px;fill:url(#o);fill-rule:evenodd" d="m474.67 325.175 1.373 1.74c-1.267 5.92 20.577 3.193 13.45-4.017l-.145-1.713c.449 1.917-13.377 6.39-14.677 3.99z" sodipodi:nodetypes="ccccc" inkscape:connector-curvature="0"/><ellipse style="font-size:12px;fill:url(#p);fill-rule:evenodd" transform="rotate(-12.515 468.002 360.365)" cx="489.68793" cy="326.74146" rx="7.6381073" ry="4.2434082"/><rect style="font-size:12px;fill:gray;fill-rule:evenodd;stroke-width:1" width="3.0005493" height="42.307526" x="492.98785" y="319.63162"/><rect style="font-size:12px;fill:gray;fill-rule:evenodd;stroke-width:1" width="3.0005493" height="42.307526" x="525.69366" y="319.63159"/></g><path inkscape:connector-curvature="0" sodipodi:nodetypes="ccccccc" d="M359.115 400.098c-15.518 0-37.614 14.189-37.614 36.287s3.15-29.516 33.02-29.516l90.973.703c32.872 0 26.743 38.308 26.743 16.21 0-13.696-14.894-23.684-30.413-23.684h-82.709z" style="font-size:12px;fill:#333;fill-opacity:1;fill-rule:evenodd"/><path inkscape:connector-curvature="0" sodipodi:nodetypes="ccccccccc" d="M352.202 383.066c-2.351.424-3.607 2.529-4.244 4.243v.106c-.742 2.457-.865 3.395 2.546 3.395h59.408c2.35 0 4.456-.938 5.198-3.183l2.546-9.76c.637-2.456-1.786-4.455-4.561-3.819l-60.893 9.018z" style="font-size:12px;fill:gray;fill-rule:evenodd"/></g></svg>