<?xml version="1.0" encoding="UTF-8" standalone="no"?>
<svg
   viewBox="0 0 72.557802 56.768912"
   version="1.2"
   id="svg52"
   width="72.5578"
   height="56.768913"
   xmlns="http://www.w3.org/2000/svg"
   xmlns:svg="http://www.w3.org/2000/svg"
   xmlns:rdf="http://www.w3.org/1999/02/22-rdf-syntax-ns#"
   xmlns:cc="http://creativecommons.org/ns#"
   xmlns:dc="http://purl.org/dc/elements/1.1/">
  <metadata
     id="metadata58">
    <rdf:RDF>
      <cc:Work
         rdf:about="">
        <dc:format>image/svg+xml</dc:format>
        <dc:type
           rdf:resource="http://purl.org/dc/dcmitype/StillImage" />
        <dc:date>2021</dc:date>
        <dc:creator>
          <cc:Agent>
            <dc:title>Timothée Giet</dc:title>
          </cc:Agent>
        </dc:creator>
        <cc:license
           rdf:resource="http://creativecommons.org/licenses/by-sa/4.0/" />
      </cc:Work>
      <cc:License
         rdf:about="http://creativecommons.org/licenses/by-sa/4.0/">
        <cc:permits
           rdf:resource="http://creativecommons.org/ns#Reproduction" />
        <cc:permits
           rdf:resource="http://creativecommons.org/ns#Distribution" />
        <cc:requires
           rdf:resource="http://creativecommons.org/ns#Notice" />
        <cc:requires
           rdf:resource="http://creativecommons.org/ns#Attribution" />
        <cc:permits
           rdf:resource="http://creativecommons.org/ns#DerivativeWorks" />
        <cc:requires
           rdf:resource="http://creativecommons.org/ns#ShareAlike" />
      </cc:License>
    </rdf:RDF>
  </metadata>
  <defs
     id="defs56" />
  <g
     id="layer6"
     style="display:inline"
     transform="translate(-177.83999,-43.304062)">
    <path
       style="fill:#6bd5ed;fill-opacity:1;stroke:#505050;stroke-width:0.5;stroke-linejoin:bevel;stroke-miterlimit:4;stroke-dasharray:none;stroke-dashoffset:0;stroke-opacity:1"
       d="M 202.37873,82.820857 V 65.81874 h -12.14437 c -6.6794,0 -12.14437,-0.138057 -12.14437,-0.306793 0,-0.168736 3.37006,-4.220487 7.48903,-9.003891 l 7.48903,-8.697098 V 45.68251 c 0,-1.170646 0.11182,-2.128448 0.24849,-2.128448 0.13667,0 0.91087,0.346993 1.72045,0.771096 0.80958,0.424102 2.64598,1.188243 4.08088,1.698091 1.43491,0.509847 2.89223,1.175715 3.2385,1.479706 0.34627,0.303991 1.4263,1.270422 2.40007,2.147626 1.31565,1.185187 2.11795,1.594915 3.12305,1.594915 0.99476,0 1.4758,0.240951 1.81841,0.910828 0.87173,1.704394 4.09721,4.6682 5.88084,5.403739 0.97793,0.403278 1.77805,0.863577 1.77805,1.022886 0,0.159309 0.52952,0.405955 1.17671,0.548103 1.33944,0.294189 4.26014,3.365969 5.10784,5.372048 0.30577,0.723602 0.8314,1.31564 1.16807,1.31564 0.64157,0 4.79878,3.217098 5.99392,4.638465 0.38222,0.454576 0.70101,1.124045 0.70842,1.487709 0.0138,0.678619 1.12712,1.145143 2.75607,1.15492 0.69376,0.0042 0.97978,0.299692 1.15943,1.197947 0.18095,0.904718 0.52436,1.255206 1.42331,1.452649 0.70671,0.155221 1.42315,0.06243 1.77545,-0.229955 0.34682,-0.287833 0.59064,-0.32073 0.59064,-0.07969 0,0.225772 0.48872,0.533155 1.08604,0.683073 0.59732,0.149918 1.57774,0.670621 2.17871,1.157119 0.60098,0.486497 1.68318,1.339955 2.4049,1.896571 1.08324,0.835433 4.55483,3.69455 5.24261,4.317683 0.1016,0.09205 -0.21719,0.272468 -0.70842,0.400927 -0.52217,0.136552 -0.89315,0.55025 -0.89315,0.995976 0,0.419325 -0.18217,0.762412 -0.40482,0.762412 -0.22264,0 -0.40481,0.252003 -0.40481,0.560005 0,0.308001 -0.36778,0.65618 -0.8173,0.773734 -0.71846,0.187881 -0.76022,0.339006 -0.3453,1.24966 0.50361,1.105291 -0.0325,2.274349 -1.04287,2.274349 -0.79382,0 -2.24746,1.801443 -2.24746,2.785185 0,0.501243 0.18846,1.263505 0.41881,1.693913 0.2425,0.453123 0.30576,1.634839 0.15025,2.807074 l -0.26856,2.024511 h -20.59327 -20.59328 z"
       id="path2530" />
  </g>
</svg>
