<?xml version="1.0" encoding="UTF-8" standalone="no"?>
<svg
   viewBox="0 0 123.96776 58.480227"
   version="1.2"
   id="svg52"
   width="123.96776"
   height="58.480228"
   xmlns="http://www.w3.org/2000/svg"
   xmlns:svg="http://www.w3.org/2000/svg"
   xmlns:rdf="http://www.w3.org/1999/02/22-rdf-syntax-ns#"
   xmlns:cc="http://creativecommons.org/ns#"
   xmlns:dc="http://purl.org/dc/elements/1.1/">
  <metadata
     id="metadata58">
    <rdf:RDF>
      <cc:Work
         rdf:about="">
        <dc:format>image/svg+xml</dc:format>
        <dc:type
           rdf:resource="http://purl.org/dc/dcmitype/StillImage" />
        <dc:date>2021</dc:date>
        <dc:creator>
          <cc:Agent>
            <dc:title>Timothée Giet</dc:title>
          </cc:Agent>
        </dc:creator>
        <cc:license
           rdf:resource="http://creativecommons.org/licenses/by-sa/4.0/" />
      </cc:Work>
      <cc:License
         rdf:about="http://creativecommons.org/licenses/by-sa/4.0/">
        <cc:permits
           rdf:resource="http://creativecommons.org/ns#Reproduction" />
        <cc:permits
           rdf:resource="http://creativecommons.org/ns#Distribution" />
        <cc:requires
           rdf:resource="http://creativecommons.org/ns#Notice" />
        <cc:requires
           rdf:resource="http://creativecommons.org/ns#Attribution" />
        <cc:permits
           rdf:resource="http://creativecommons.org/ns#DerivativeWorks" />
        <cc:requires
           rdf:resource="http://creativecommons.org/ns#ShareAlike" />
      </cc:License>
    </rdf:RDF>
  </metadata>
  <defs
     id="defs56" />
  <g
     id="layer7"
     style="display:inline"
     transform="translate(-51.13372,-301.07707)">
    <path
       style="fill:#e7b336;fill-opacity:1;stroke:#505050;stroke-width:0.5;stroke-linejoin:bevel;stroke-miterlimit:4;stroke-dasharray:none;stroke-dashoffset:0;stroke-opacity:1"
       d="m 58.60307,358.05318 c -1.29759,-1.39268 -1.73237,-3.07604 -1.17389,-4.54496 0.35465,-0.93279 0.64318,-1.08235 2.08799,-1.08235 1.4919,0 1.65255,-0.0916 1.45904,-0.83152 -0.16943,-0.6479 0.0883,-0.97733 1.16722,-1.49182 0.76157,-0.36317 1.38467,-0.86629 1.38467,-1.11806 0,-0.25177 -0.60328,-0.99223 -1.34062,-1.64548 -0.73735,-0.65324 -1.52555,-1.51857 -1.75156,-1.92296 -0.4287,-0.76705 -2.70195,-1.465 -4.82549,-1.48156 -0.68105,-0.005 -1.54293,-0.23737 -1.9153,-0.51568 -1.25281,-0.93634 -0.16803,-1.48813 3.31772,-1.6876 1.85308,-0.10604 3.45598,-0.27954 3.562,-0.38556 0.10602,-0.10602 0.93065,0.0676 1.83251,0.38577 1.95919,0.69124 2.73999,0.26395 2.73999,-1.49947 0,-0.895 0.18757,-1.16487 0.80963,-1.16487 0.84648,0 1.03497,-0.63706 0.45783,-1.54732 -0.49173,-0.77556 -3.03726,-1.26565 -6.63122,-1.27671 l -3.1373,-0.01 v -1.59536 c 0,-0.87744 -0.19828,-1.7179 -0.44062,-1.86767 -0.26883,-0.16615 -0.0763,-0.45394 0.49378,-0.73817 0.51392,-0.25622 1.20711,-0.95172 1.54043,-1.54556 0.55512,-0.98902 0.53974,-1.15297 -0.18316,-1.95176 -0.78878,-0.87159 -0.78846,-0.87264 0.6055,-2.01034 l 1.3947,-1.13829 -1.60411,-0.71075 c -0.88226,-0.39092 -1.78628,-0.68635 -2.00892,-0.65652 -0.54502,0.073 -1.42231,-1.87355 -1.15653,-2.56615 0.11667,-0.30405 0.71651,-0.6636 1.33298,-0.799 0.91928,-0.20191 1.08756,-0.42029 0.93576,-1.21437 -0.11046,-0.57786 -0.61678,-1.1303 -1.25587,-1.37029 -0.58893,-0.22115 -1.76575,-1.00652 -2.61516,-1.74526 -2.00824,-1.74658 -2.43142,-4.02542 -1.13658,-6.12051 1.06316,-1.72023 1.0945,-2.72596 0.0931,-2.98783 -0.64904,-0.16973 -1.25787,-1.60521 -1.25787,-2.96575 0,-0.52454 2.12444,-0.74313 3.06359,-0.31522 1.11808,0.50943 3.26121,-1.43484 3.1073,-2.36367 -0.0922,-0.55623 2.56513,0.0527 23.88392,-0.18585 13.19321,-0.14762 34.80027,0.035 48.01571,0.0348 l 24.02807,-3.8e-4 0.83465,1.06109 c 1.04172,1.32432 2.67587,2.01735 5.6162,2.38179 2.24508,0.27826 2.27239,0.29718 1.51805,1.05152 -0.42249,0.42249 -0.76816,1.04268 -0.76816,1.3782 0,0.50996 0.58115,0.58223 3.54211,0.44048 1.94816,-0.0933 3.67873,-0.18561 3.84572,-0.20523 0.16698,-0.0196 0.30361,-0.48587 0.30361,-1.03612 0,-0.78735 -0.27813,-1.07252 -1.30573,-1.3388 l -1.30573,-0.33835 2.01415,-0.70507 c 4.45552,-1.55968 4.67134,-1.59223 5.27504,-0.79548 0.77795,1.02672 1.79926,4.62513 1.79926,6.33937 0,2.90738 -0.40674,3.31012 -4.08886,4.04865 -3.34386,0.67068 -3.34967,0.67037 -4.30628,-0.22832 -0.65894,-0.61905 -0.88801,-1.17839 -0.73395,-1.7922 0.26403,-1.052 -0.61346,-2.07442 -2.03155,-2.36708 -0.54105,-0.11166 -1.44878,-0.29999 -2.01718,-0.41851 -1.57646,-0.32872 -7.46761,2.41541 -7.46761,3.47845 0,0.54822 6.88627,2.80923 8.55596,2.80923 1.12357,0 1.58044,0.15761 1.46685,0.50602 -0.15393,0.4721 -1.62493,1.13066 -6.5596,2.93671 -1.10098,0.40294 -2.32943,1.11387 -2.7299,1.57984 -0.40047,0.46597 -1.75129,1.97774 -3.00183,3.35949 l -2.2737,2.51228 0.49013,2.04311 c 0.26958,1.12371 0.65399,2.14438 0.85427,2.26815 0.49777,0.30764 0.46278,2.20133 -0.0407,2.20133 -0.52708,0 -0.52708,1.90072 0,2.22647 0.68389,0.42267 0.44943,1.34812 -0.41069,1.62111 -0.44853,0.14236 -0.71017,0.42928 -0.58141,0.63761 0.33032,0.53448 -0.54551,1.27296 -2.57941,2.17492 -2.95385,1.30991 -3.93737,3.67888 -1.71212,4.12393 1.15507,0.23101 1.17306,0.26967 0.56062,1.20438 -0.57857,0.88301 -0.84539,0.95021 -3.11623,0.78471 -1.36591,-0.0995 -3.16506,-0.30533 -3.9981,-0.45729 -0.9505,-0.17339 -1.72618,-0.10071 -2.08265,0.19514 -0.31242,0.25928 -0.72384,0.42116 -0.91426,0.35974 -0.52777,-0.17026 -4.19193,1.3177 -4.19193,1.70227 0,0.18568 0.2277,0.42948 0.50601,0.54178 0.27831,0.1123 -0.18752,0.21856 -1.03518,0.23614 -3.47662,0.0721 -5.11106,0.83142 -8.02531,3.72837 -1.93065,1.91919 -2.78027,3.06727 -2.78027,3.75693 0,0.63327 -0.28957,1.08507 -0.79911,1.24679 -0.43951,0.13949 -1.18057,0.78935 -1.64681,1.44412 l -0.84771,1.1905 -28.81531,-0.048 -28.81531,-0.048 z"
       id="path2532" />
  </g>
</svg>
