<?xml version="1.0" encoding="UTF-8" standalone="no"?>
<svg
   viewBox="0 0 69.451044 63.457545"
   version="1.2"
   id="svg52"
   width="69.451042"
   height="63.457546"
   xmlns="http://www.w3.org/2000/svg"
   xmlns:svg="http://www.w3.org/2000/svg"
   xmlns:rdf="http://www.w3.org/1999/02/22-rdf-syntax-ns#"
   xmlns:cc="http://creativecommons.org/ns#"
   xmlns:dc="http://purl.org/dc/elements/1.1/">
  <metadata
     id="metadata58">
    <rdf:RDF>
      <cc:Work
         rdf:about="">
        <dc:format>image/svg+xml</dc:format>
        <dc:type
           rdf:resource="http://purl.org/dc/dcmitype/StillImage" />
        <dc:date>2021</dc:date>
        <dc:creator>
          <cc:Agent>
            <dc:title>Timothée Giet</dc:title>
          </cc:Agent>
        </dc:creator>
        <cc:license
           rdf:resource="http://creativecommons.org/licenses/by-sa/4.0/" />
      </cc:Work>
      <cc:License
         rdf:about="http://creativecommons.org/licenses/by-sa/4.0/">
        <cc:permits
           rdf:resource="http://creativecommons.org/ns#Reproduction" />
        <cc:permits
           rdf:resource="http://creativecommons.org/ns#Distribution" />
        <cc:requires
           rdf:resource="http://creativecommons.org/ns#Notice" />
        <cc:requires
           rdf:resource="http://creativecommons.org/ns#Attribution" />
        <cc:permits
           rdf:resource="http://creativecommons.org/ns#DerivativeWorks" />
        <cc:requires
           rdf:resource="http://creativecommons.org/ns#ShareAlike" />
      </cc:License>
    </rdf:RDF>
  </metadata>
  <defs
     id="defs56" />
  <g
     id="layer11"
     style="display:inline"
     transform="translate(-192.83167,-20.060074)">
    <path
       style="fill:#6b9fed;fill-opacity:1;stroke:#505050;stroke-width:0.5;stroke-linejoin:bevel;stroke-miterlimit:4;stroke-dasharray:none;stroke-dashoffset:0;stroke-opacity:1"
       d="m 248.67392,82.194617 c -0.56708,-0.567078 -1.74287,-1.502113 -2.61288,-2.077853 -0.87001,-0.575745 -1.58183,-1.204762 -1.58183,-1.397825 0,-0.193059 -0.25094,-0.351017 -0.55765,-0.351017 -0.30671,0 -0.79347,-0.284142 -1.08169,-0.631426 -0.81732,-0.984816 -3.70051,-2.232289 -4.54202,-1.965202 -1.39059,0.441354 -2.60612,-0.151109 -2.85412,-1.391126 -0.19874,-0.993689 -0.47546,-1.203353 -1.88591,-1.428894 -1.21433,-0.194176 -1.74673,-0.510845 -2.00618,-1.193269 -0.46918,-1.234022 -4.6416,-5.017427 -6.29538,-5.708417 -0.82963,-0.346641 -1.46537,-0.985912 -1.72709,-1.736673 -0.53868,-1.545266 -3.8318,-4.876305 -5.14717,-5.206442 -0.56387,-0.141522 -1.02521,-0.383135 -1.02521,-0.536918 0,-0.153783 -0.64202,-0.511761 -1.4267,-0.795506 -1.5932,-0.576109 -5.4067,-3.913262 -6.2302,-5.451983 -0.39514,-0.738333 -0.99289,-1.067651 -2.29134,-1.262365 -1.25026,-0.187488 -2.04595,-0.607159 -2.75992,-1.455665 -0.55176,-0.655724 -1.19071,-1.192226 -1.4199,-1.192226 -0.22918,0 -0.61169,-0.364331 -0.85,-0.809625 -0.23831,-0.445293 -0.74568,-0.810747 -1.12748,-0.812119 -0.38179,-0.0014 -1.21595,-0.274619 -1.85368,-0.607218 -0.63773,-0.332598 -1.34644,-0.604724 -1.57491,-0.604724 -1.03485,0 -4.07253,-1.901992 -4.39584,-2.752384 -0.45187,-1.188485 -0.46396,-21.553391 -0.0132,-22.263939 0.41758,-0.658285 1.03686,0.01634 1.4111,1.537208 0.13696,0.556617 0.89074,1.705289 1.67506,2.552605 0.78433,0.847316 1.42605,1.78409 1.42605,2.081722 0,0.297631 0.91082,1.235753 2.02406,2.084716 1.11323,0.848964 2.02406,1.676027 2.02406,1.837919 0,0.161893 0.31879,0.395698 0.70842,0.519568 0.38963,0.12387 1.19008,0.672124 1.77878,1.218342 1.05688,0.980618 3.1241,2.181735 5.32,3.091073 0.64401,0.266688 1.47596,1.149474 1.93941,2.057913 0.86846,1.702317 1.85319,2.253245 4.73298,2.647965 0.98136,0.13451 1.8788,0.49085 1.99432,0.791866 0.11551,0.301016 0.72627,0.547302 1.35725,0.547302 0.63098,0 1.25982,0.182166 1.39742,0.404813 0.13761,0.222646 1.44102,0.404812 2.89647,0.404812 2.38806,0 2.98689,0.185662 6.13672,1.90264 1.91975,1.046452 4.04269,2.433153 4.71766,3.081557 1.25376,1.204424 4.43253,3.516862 4.83442,3.516862 0.12256,0 1.75654,0.728662 3.63107,1.619249 1.87453,0.890587 3.82637,1.619249 4.33742,1.619249 0.51105,0 1.42361,0.473696 2.02792,1.052656 0.84893,0.81333 1.26048,0.962139 1.81015,0.654526 0.52709,-0.294972 1.18154,-0.148164 2.52582,0.566593 0.99791,0.530598 2.06789,0.964724 2.37771,0.964724 0.70546,0 2.95941,1.639258 2.95941,2.15233 0,0.209452 0.63061,1.078833 1.40135,1.931955 1.25842,1.392915 1.35905,1.672498 0.98657,2.740992 -0.22813,0.654424 -0.78118,1.285672 -1.22899,1.40278 -0.44781,0.117104 -0.91301,0.590767 -1.03378,1.052585 -0.12077,0.461814 -0.3805,0.839666 -0.57718,0.839666 -0.19668,0 -0.3576,0.273248 -0.3576,0.607219 0,0.33397 -0.20165,0.607218 -0.44812,0.607218 -0.24647,0 -0.34327,0.273248 -0.21511,0.607219 0.12816,0.33397 0.0768,0.607218 -0.11412,0.607218 -0.19092,0 -0.32182,0.304694 -0.2909,0.677097 0.0351,0.423146 -0.58905,0.992345 -1.66423,1.517609 -0.94625,0.46228 -1.72045,1.123063 -1.72045,1.468408 0,0.345342 -0.15146,0.800954 -0.33657,1.012468 -0.59268,0.677211 -1.265,3.603235 -1.03235,4.492915 0.12376,0.473242 0.027,0.982832 -0.21506,1.132422 -0.24205,0.14959 -0.44008,0.606073 -0.44008,1.014407 0,0.408334 -0.2848,0.851709 -0.63288,0.985281 -0.34808,0.133572 -0.51949,0.426308 -0.38092,0.650529 0.53551,0.866477 -1.5055,0.354045 -2.48293,-0.623382 z"
       id="path2540" />
  </g>
</svg>
