<?xml version="1.0" encoding="UTF-8" standalone="no"?>
<svg
   viewBox="0 0 45.071813 41.373428"
   version="1.2"
   id="svg52"
   width="45.071812"
   height="41.373428"
   xmlns="http://www.w3.org/2000/svg"
   xmlns:svg="http://www.w3.org/2000/svg"
   xmlns:rdf="http://www.w3.org/1999/02/22-rdf-syntax-ns#"
   xmlns:cc="http://creativecommons.org/ns#"
   xmlns:dc="http://purl.org/dc/elements/1.1/">
  <metadata
     id="metadata58">
    <rdf:RDF>
      <cc:Work
         rdf:about="">
        <dc:format>image/svg+xml</dc:format>
        <dc:type
           rdf:resource="http://purl.org/dc/dcmitype/StillImage" />
        <dc:date>2021</dc:date>
        <dc:creator>
          <cc:Agent>
            <dc:title>Timothée Giet</dc:title>
          </cc:Agent>
        </dc:creator>
        <cc:license
           rdf:resource="http://creativecommons.org/licenses/by-sa/4.0/" />
      </cc:Work>
      <cc:License
         rdf:about="http://creativecommons.org/licenses/by-sa/4.0/">
        <cc:permits
           rdf:resource="http://creativecommons.org/ns#Reproduction" />
        <cc:permits
           rdf:resource="http://creativecommons.org/ns#Distribution" />
        <cc:requires
           rdf:resource="http://creativecommons.org/ns#Notice" />
        <cc:requires
           rdf:resource="http://creativecommons.org/ns#Attribution" />
        <cc:permits
           rdf:resource="http://creativecommons.org/ns#DerivativeWorks" />
        <cc:requires
           rdf:resource="http://creativecommons.org/ns#ShareAlike" />
      </cc:License>
    </rdf:RDF>
  </metadata>
  <defs
     id="defs56" />
  <g
     id="layer12"
     style="display:inline"
     transform="translate(-122.44737,-9.704639)">
    <path
       style="fill:#ed6bed;fill-opacity:1;stroke:#505050;stroke-width:0.5;stroke-linejoin:bevel;stroke-miterlimit:4;stroke-dasharray:none;stroke-dashoffset:0;stroke-opacity:1"
       d="m 158.5285,49.810077 c -1.16351,-1.023473 -1.89356,-1.0071 -1.89356,0.04247 0,0.856292 -2.00168,0.726327 -3.44091,-0.22341 -0.66794,-0.440771 -1.50797,-0.708557 -1.86674,-0.59508 -0.79355,0.250993 -5.09627,-0.827335 -5.87283,-1.471822 -0.30749,-0.255196 -0.55908,-0.778836 -0.55908,-1.163643 0,-1.904927 -0.93543,-3.317014 -2.78158,-4.198964 l -1.87376,-0.895139 V 38.39479 c 0,-2.443844 -0.14043,-3.050512 -0.87712,-3.789207 -0.96354,-0.966171 -2.01173,-0.821779 -2.44668,0.337038 -0.14814,0.394682 -0.55179,0.9291 -0.89701,1.187596 -0.45534,0.340958 -0.66756,1.396782 -0.77299,3.845717 -0.11734,2.7256 -0.30724,3.551139 -0.98603,4.286552 -0.46239,0.500956 -1.03666,0.909163 -1.27615,0.907127 -0.86395,-0.0073 -4.24216,-1.859334 -5.17986,-2.839686 -0.5273,-0.551281 -1.89496,-1.863603 -3.03924,-2.91627 l -2.0805,-1.91394 1.63923,-4.900253 1.63923,-4.900253 -1.2613,-1.301326 c -1.52527,-1.573684 -1.55905,-1.981833 -0.24926,-3.012113 0.55662,-0.437834 1.01203,-1.143419 1.01203,-1.567965 0,-0.511466 0.60203,-1.064392 1.78435,-1.638808 1.34863,-0.655212 1.84925,-1.162347 2.05009,-2.076756 0.21529,-0.980242 1.44225,-2.6381 1.59154,-2.150489 0.0214,0.07003 0.31223,0.03349 0.6462,-0.08122 0.33397,-0.114702 1.37833,-0.405896 2.32079,-0.647098 1.89836,-0.485841 2.30914,-1.020156 2.72794,-3.548345 0.15675,-0.946248 0.44258,-1.720452 0.63518,-1.720452 0.81404,0 2.41234,0.981783 2.41234,1.481822 0,0.298232 0.31012,0.54224 0.68915,0.54224 0.37903,0 1.28748,0.579922 2.01877,1.288715 l 1.32961,1.288715 4.25583,-0.10579 c 2.3407,-0.05818 4.25582,-0.01798 4.25582,0.08935 0,0.221988 -1.78122,5.402073 -2.19425,6.381226 -0.1555,0.36865 -0.0145,0.856839 0.33011,1.142831 0.33087,0.274596 0.4992,0.766065 0.37407,1.092151 -0.40569,1.0572 1.06214,4.184441 2.08447,4.44103 0.71126,0.178514 0.99219,0.612279 1.18747,1.833497 0.19283,1.205909 0.50323,1.693737 1.26102,1.98185 0.69532,0.264358 1.00524,0.689926 1.00524,1.380348 0,1.276275 0.60022,1.643158 2.71759,1.661102 1.30788,0.01108 1.98375,0.280981 2.89868,1.157536 1.1838,1.134157 1.19667,1.13644 1.64838,0.29241 0.34894,-0.651995 0.84288,-0.85067 2.11492,-0.85067 h 1.65967 l -0.19318,5.014576 c -0.21872,5.677545 -0.91923,7.635476 -2.81196,7.859425 -0.56902,0.06733 -1.6433,0.750448 -2.38729,1.518046 -0.74398,0.7676 -1.54467,1.389877 -1.7793,1.382842 -0.23464,-0.007 -0.94075,-0.465053 -1.56914,-1.017814 z"
       id="path2542" />
  </g>
</svg>
