<?xml version="1.0" encoding="UTF-8" standalone="no"?>
<svg
   viewBox="0 0 71.564257 62.934176"
   version="1.2"
   id="svg52"
   width="71.564255"
   height="62.934177"
   xmlns="http://www.w3.org/2000/svg"
   xmlns:svg="http://www.w3.org/2000/svg"
   xmlns:rdf="http://www.w3.org/1999/02/22-rdf-syntax-ns#"
   xmlns:cc="http://creativecommons.org/ns#"
   xmlns:dc="http://purl.org/dc/elements/1.1/">
  <metadata
     id="metadata58">
    <rdf:RDF>
      <cc:Work
         rdf:about="">
        <dc:format>image/svg+xml</dc:format>
        <dc:type
           rdf:resource="http://purl.org/dc/dcmitype/StillImage" />
        <dc:date>2021</dc:date>
        <dc:creator>
          <cc:Agent>
            <dc:title>Timothée Giet</dc:title>
          </cc:Agent>
        </dc:creator>
        <cc:license
           rdf:resource="http://creativecommons.org/licenses/by-sa/4.0/" />
      </cc:Work>
      <cc:License
         rdf:about="http://creativecommons.org/licenses/by-sa/4.0/">
        <cc:permits
           rdf:resource="http://creativecommons.org/ns#Reproduction" />
        <cc:permits
           rdf:resource="http://creativecommons.org/ns#Distribution" />
        <cc:requires
           rdf:resource="http://creativecommons.org/ns#Notice" />
        <cc:requires
           rdf:resource="http://creativecommons.org/ns#Attribution" />
        <cc:permits
           rdf:resource="http://creativecommons.org/ns#DerivativeWorks" />
        <cc:requires
           rdf:resource="http://creativecommons.org/ns#ShareAlike" />
      </cc:License>
    </rdf:RDF>
  </metadata>
  <defs
     id="defs56" />
  <g
     id="layer13"
     style="display:inline"
     transform="translate(-106.8966,-200.35958)">
    <path
       style="fill:#36e7b1;fill-opacity:1;stroke:#505050;stroke-width:0.5;stroke-linejoin:bevel;stroke-miterlimit:4;stroke-dasharray:none;stroke-dashoffset:0;stroke-opacity:1"
       d="m 177.07796,262.98277 c -0.44529,-0.12561 -1.53829,-0.63892 -2.42887,-1.14068 -6.80634,-3.83471 -8.33792,-4.50353 -11.94197,-5.21492 -2.9261,-0.57758 -11.83698,-1.07437 -17.51393,-0.97642 -1.50606,0.026 -3.12913,-0.16193 -3.60684,-0.41759 -0.4777,-0.25566 -2.21652,-0.43874 -3.86403,-0.40684 -4.00895,0.0776 -6.17958,-0.50357 -5.89829,-1.57926 0.16849,-0.64429 -0.16254,-0.95859 -1.70685,-1.62056 -1.05374,-0.45168 -2.72883,-1.02594 -3.72242,-1.27613 -1.30374,-0.32829 -2.04056,-0.81189 -2.64735,-1.73756 -0.82085,-1.25222 -0.91142,-1.28211 -3.81596,-1.25921 -2.75845,0.0217 -3.04123,-0.0567 -3.88246,-1.07697 -0.49902,-0.60524 -1.40827,-1.28385 -2.02055,-1.50803 -1.42791,-0.5228 -1.4026,-0.95211 0.12673,-2.14898 1.01677,-0.79575 1.19178,-1.16236 0.97231,-2.0368 -0.14721,-0.58651 -0.51072,-1.26812 -0.80781,-1.51468 -0.44961,-0.37315 -4.50415,-1.16717 -6.10724,-1.19602 -0.32142,-0.006 -0.44005,-2.78966 -0.41008,-9.62244 0.0232,-5.28786 -0.11577,-10.47957 -0.30882,-11.53715 l -0.35099,-1.92285 h 22.91498 22.91499 l 0.11076,-6.98302 0.11076,-6.98301 12.44044,-0.10704 12.44044,-0.10704 0.10874,30.46796 c 0.0598,16.75738 0.0177,30.84274 -0.0937,31.3008 -0.14732,0.60618 -0.42273,0.77067 -1.01203,0.60444 z"
       id="path2544" />
  </g>
</svg>
