<?xml version="1.0" encoding="UTF-8" standalone="no"?>
<svg
   viewBox="0 0 34.882463 38.529807"
   version="1.2"
   id="svg52"
   width="34.882462"
   height="38.529808"
   xmlns="http://www.w3.org/2000/svg"
   xmlns:svg="http://www.w3.org/2000/svg"
   xmlns:rdf="http://www.w3.org/1999/02/22-rdf-syntax-ns#"
   xmlns:cc="http://creativecommons.org/ns#"
   xmlns:dc="http://purl.org/dc/elements/1.1/">
  <metadata
     id="metadata58">
    <rdf:RDF>
      <cc:Work
         rdf:about="">
        <dc:format>image/svg+xml</dc:format>
        <dc:type
           rdf:resource="http://purl.org/dc/dcmitype/StillImage" />
        <dc:date>2021</dc:date>
        <dc:creator>
          <cc:Agent>
            <dc:title>Timothée Giet</dc:title>
          </cc:Agent>
        </dc:creator>
        <cc:license
           rdf:resource="http://creativecommons.org/licenses/by-sa/4.0/" />
      </cc:Work>
      <cc:License
         rdf:about="http://creativecommons.org/licenses/by-sa/4.0/">
        <cc:permits
           rdf:resource="http://creativecommons.org/ns#Reproduction" />
        <cc:permits
           rdf:resource="http://creativecommons.org/ns#Distribution" />
        <cc:requires
           rdf:resource="http://creativecommons.org/ns#Notice" />
        <cc:requires
           rdf:resource="http://creativecommons.org/ns#Attribution" />
        <cc:permits
           rdf:resource="http://creativecommons.org/ns#DerivativeWorks" />
        <cc:requires
           rdf:resource="http://creativecommons.org/ns#ShareAlike" />
      </cc:License>
    </rdf:RDF>
  </metadata>
  <defs
     id="defs56" />
  <g
     id="layer17"
     style="display:inline"
     transform="translate(-283.80588,-63.544678)">
    <path
       style="fill:#6bed88;fill-opacity:1;stroke:#505050;stroke-width:0.5;stroke-linejoin:bevel;stroke-miterlimit:4;stroke-dasharray:none;stroke-dashoffset:0;stroke-opacity:1"
       d="m 289.5705,101.45029 c -1.25985,-0.50903 -2.58599,-2.385871 -2.58599,-3.65984 0,-0.623254 -0.70525,-2.16983 -1.60144,-3.511892 -2.35144,-3.521295 -1.41171,-5.52516 1.56053,-3.327685 l 1.14076,0.843394 1.06932,-0.991017 c 0.58813,-0.54506 1.06933,-1.393012 1.06933,-1.88434 0,-0.947812 0.8604,-2.049929 1.60035,-2.049929 0.24406,0 0.61689,-0.455414 0.82852,-1.012031 0.37337,-0.982033 0.69572,-1.101587 3.2385,-1.20109 0.70606,-0.02763 1.04957,-0.299032 1.1362,-0.897703 0.0722,-0.49876 0.61747,-1.062436 1.30218,-1.346049 0.6479,-0.268371 1.28742,-0.832687 1.42115,-1.254036 0.13373,-0.421349 0.60092,-0.766089 1.0382,-0.766089 0.43728,0 0.89063,-0.318789 1.00744,-0.708421 0.11682,-0.389632 0.63423,-1.528167 1.1498,-2.530077 0.51557,-1.001911 0.85451,-2.049363 0.7532,-2.327671 -0.10131,-0.278308 0.0239,-0.506015 0.27823,-0.506015 0.25434,0 0.34639,-0.187776 0.20455,-0.41728 -0.39762,-0.643358 -0.55902,-3.226031 -0.20161,-3.226031 0.53976,0 0.75015,-2.093675 0.33116,-3.295563 -0.3033,-0.870064 -0.25737,-1.282092 0.19316,-1.73262 0.63668,-0.636683 2.31627,-0.427693 2.31627,0.288213 0,0.23549 0.42161,0.03208 0.93692,-0.452026 0.5153,-0.484104 1.3897,-0.880189 1.9431,-0.880189 0.5534,0 1.24755,-0.227707 1.54256,-0.506016 0.4291,-0.404812 0.57348,-0.404812 0.72191,0 0.10205,0.278309 0.48915,0.510066 0.86023,0.515017 0.94802,0.01265 2.61039,1.372021 2.77907,2.272533 0.0777,0.415007 0.21112,1.359039 0.2964,2.097849 0.0853,0.73881 0.44528,1.663981 0.8,2.055937 0.35471,0.391955 0.64493,0.866124 0.64493,1.053708 0,0.187584 0.29128,0.662922 0.64729,1.056307 0.58884,0.65066 0.59107,0.945965 0.0247,3.270373 -0.85862,3.524093 -0.90384,4.356511 -0.32879,6.052368 0.46782,1.379624 0.41955,1.591708 -0.76016,3.339701 -0.69592,1.031166 -1.57763,1.866525 -1.97008,1.866525 -0.39071,0 -1.14798,0.465804 -1.68282,1.03512 -0.54109,0.575958 -1.27193,0.956801 -1.6476,0.858562 -0.39964,-0.104509 -0.86387,0.175157 -1.13761,0.685333 -0.61468,1.145586 -2.24929,1.918366 -2.82983,1.337829 -0.30669,-0.306691 -0.5924,-0.213643 -0.98262,0.320014 -0.32114,0.439187 -0.81341,0.651432 -1.18245,0.509819 -0.36094,-0.138505 -0.72866,0.0086 -0.8569,0.342793 -0.12356,0.321977 -0.36634,0.554802 -0.53952,0.51739 -0.17318,-0.03741 -0.64152,0.07449 -1.04075,0.248662 -0.39924,0.174175 -0.82429,0.218276 -0.94456,0.098 -0.31858,-0.318571 -1.77047,1.234431 -1.77047,1.89376 0,0.578026 -1.99011,2.118342 -2.53007,1.958237 -0.16699,-0.04951 -0.30361,0.111631 -0.30361,0.358099 0,0.246467 -0.28045,0.340504 -0.62322,0.20897 -0.91667,-0.351759 -3.42491,1.199384 -3.42491,2.118027 0,0.37587 -2.25577,1.70944 -2.79467,1.65216 -0.13278,-0.0141 -0.62613,-0.1811 -1.09633,-0.37109 z"
       id="path2550" />
  </g>
</svg>
