<?xml version="1.0" encoding="UTF-8" standalone="no"?>
<svg
   viewBox="0 0 58.158624 93.170126"
   version="1.2"
   id="svg52"
   width="58.158623"
   height="93.170128"
   xmlns="http://www.w3.org/2000/svg"
   xmlns:svg="http://www.w3.org/2000/svg"
   xmlns:rdf="http://www.w3.org/1999/02/22-rdf-syntax-ns#"
   xmlns:cc="http://creativecommons.org/ns#"
   xmlns:dc="http://purl.org/dc/elements/1.1/">
  <metadata
     id="metadata58">
    <rdf:RDF>
      <cc:Work
         rdf:about="">
        <dc:format>image/svg+xml</dc:format>
        <dc:type
           rdf:resource="http://purl.org/dc/dcmitype/StillImage" />
        <dc:date>2021</dc:date>
        <dc:creator>
          <cc:Agent>
            <dc:title>Timothée Giet</dc:title>
          </cc:Agent>
        </dc:creator>
        <cc:license
           rdf:resource="http://creativecommons.org/licenses/by-sa/4.0/" />
      </cc:Work>
      <cc:License
         rdf:about="http://creativecommons.org/licenses/by-sa/4.0/">
        <cc:permits
           rdf:resource="http://creativecommons.org/ns#Reproduction" />
        <cc:permits
           rdf:resource="http://creativecommons.org/ns#Distribution" />
        <cc:requires
           rdf:resource="http://creativecommons.org/ns#Notice" />
        <cc:requires
           rdf:resource="http://creativecommons.org/ns#Attribution" />
        <cc:permits
           rdf:resource="http://creativecommons.org/ns#DerivativeWorks" />
        <cc:requires
           rdf:resource="http://creativecommons.org/ns#ShareAlike" />
      </cc:License>
    </rdf:RDF>
  </metadata>
  <defs
     id="defs56" />
  <g
     id="layer24"
     style="display:inline"
     transform="translate(-185.15904,-99.200046)">
    <path
       style="fill:#e73a96;fill-opacity:1;stroke:#505050;stroke-width:0.5;stroke-linejoin:bevel;stroke-miterlimit:4;stroke-dasharray:none;stroke-dashoffset:0;stroke-opacity:1"
       d="m 187.89707,191.74671 -2.53971,-0.23374 6.52429,-8.50106 c 3.58835,-4.67558 7.14491,-9.14632 7.90346,-9.93497 1.86866,-1.94282 1.93149,-4.00329 0.16197,-5.31156 -0.7293,-0.53919 -1.06987,-1.04727 -0.84963,-1.26751 0.20217,-0.20218 0.22482,-0.86537 0.0503,-1.47378 -0.40703,-1.41925 -2.33286,-4.47927 -2.81903,-4.47927 -0.41964,0 -0.91102,-1.31663 -1.05757,-2.83368 -0.0538,-0.55662 -0.23167,-1.79033 -0.39534,-2.74157 -0.23026,-1.33827 -0.1478,-1.89504 0.3645,-2.46113 0.86185,-0.95234 2.31683,-4.58307 3.72188,-9.28753 l 1.12378,-3.7627 -1.99093,-2.02146 -1.99093,-2.02146 2.98359,-17.69496 c 1.64098,-9.73222 3.023,-17.741094 3.07117,-17.797494 0.0482,-0.0564 9.1967,-0.222408 20.33007,-0.368908 13.32489,-0.175338 20.32785,-0.128254 20.49227,0.137776 0.4337,0.701746 -0.85004,2.100686 -1.71914,1.873406 -0.98237,-0.25689 -1.21741,0.64628 -1.12686,4.33005 0.044,1.78884 -0.24591,3.63518 -0.90543,5.76687 -0.88271,2.85308 -1.16407,3.29035 -3.12292,4.85342 -1.18404,0.94482 -2.1528,1.93845 -2.1528,2.20807 0,0.26962 -0.26232,0.63702 -0.58293,0.81644 -0.37366,0.20911 -0.67939,1.34262 -0.85161,3.15741 -0.14777,1.55715 -0.34843,2.96267 -0.44592,3.12336 -0.0975,0.1607 0.12722,0.75685 0.49934,1.32478 0.63474,0.96874 0.63098,1.17597 -0.0608,3.35113 -0.81145,2.55143 -0.93736,4.30393 -0.48831,6.79666 0.28735,1.59506 0.19408,1.78341 -3.10709,6.27459 -4.28375,5.82797 -5.46335,7.26144 -5.97542,7.26144 -0.22434,0 -0.76079,0.44864 -1.19211,0.99698 -0.43535,0.55345 -1.41161,1.11467 -2.1945,1.26154 -1.86689,0.35023 -2.26418,1.22813 -2.34273,5.17676 -0.036,1.81074 -0.23785,3.56324 -0.44851,3.89446 -0.21067,0.33121 -0.38214,1.78854 -0.38107,3.23849 0.001,1.97846 0.24687,3.12546 0.98346,4.59667 1.11745,2.23189 3.27526,4.31421 4.47062,4.31421 1.70796,0 1.51644,1.10311 -0.93697,5.39671 -0.96261,1.68462 -1.02358,1.69326 -4.65803,0.66057 l -1.7225,-0.48942 -1.516,1.626 c -0.8338,0.8943 -3.64126,3.64917 -6.23879,6.12194 l -4.72279,4.49595 -5.80233,-0.0699 c -3.19128,-0.0384 -6.9452,-0.17505 -8.34203,-0.3036 z"
       id="path2564" />
  </g>
</svg>
