<?xml version="1.0" encoding="UTF-8" standalone="no"?>
<!-- Created with Inkscape (http://www.inkscape.org/) -->

<svg
   xmlns:dc="http://purl.org/dc/elements/1.1/"
   xmlns:cc="http://creativecommons.org/ns#"
   xmlns:rdf="http://www.w3.org/1999/02/22-rdf-syntax-ns#"
   xmlns:svg="http://www.w3.org/2000/svg"
   xmlns="http://www.w3.org/2000/svg"
   xmlns:sodipodi="http://sodipodi.sourceforge.net/DTD/sodipodi-0.dtd"
   xmlns:inkscape="http://www.inkscape.org/namespaces/inkscape"
   width="260"
   height="300"
   viewBox="0 0 260.00001 299.99999"
   id="svg2"
   version="1.1"
   inkscape:version="0.91 r13725"
   sodipodi:docname="flower_good.svg">
  <defs
     id="defs4" />
  <sodipodi:namedview
     id="base"
     pagecolor="#ffffff"
     bordercolor="#666666"
     borderopacity="1.0"
     inkscape:pageopacity="0.0"
     inkscape:pageshadow="2"
     inkscape:zoom="2.4467196"
     inkscape:cx="-42.404326"
     inkscape:cy="126.11009"
     inkscape:document-units="px"
     inkscape:current-layer="layer2"
     showgrid="false"
     fit-margin-top="0"
     fit-margin-left="0"
     fit-margin-right="0"
     fit-margin-bottom="0"
     units="px"
     inkscape:window-width="1880"
     inkscape:window-height="1060"
     inkscape:window-x="-2"
     inkscape:window-y="-3"
     inkscape:window-maximized="1" />
  <metadata
     id="metadata7">
    <rdf:RDF>
      <cc:Work
         rdf:about="">
        <dc:format>image/svg+xml</dc:format>
        <dc:type
           rdf:resource="http://purl.org/dc/dcmitype/StillImage" />
        <dc:title></dc:title>
        <dc:date>2015</dc:date>
        <dc:creator>
          <cc:Agent>
            <dc:title>Timothée Giet</dc:title>
          </cc:Agent>
        </dc:creator>
        <cc:license
           rdf:resource="http://creativecommons.org/licenses/by-sa/4.0/" />
      </cc:Work>
      <cc:License
         rdf:about="http://creativecommons.org/licenses/by-sa/4.0/">
        <cc:permits
           rdf:resource="http://creativecommons.org/ns#Reproduction" />
        <cc:permits
           rdf:resource="http://creativecommons.org/ns#Distribution" />
        <cc:requires
           rdf:resource="http://creativecommons.org/ns#Notice" />
        <cc:requires
           rdf:resource="http://creativecommons.org/ns#Attribution" />
        <cc:permits
           rdf:resource="http://creativecommons.org/ns#DerivativeWorks" />
        <cc:requires
           rdf:resource="http://creativecommons.org/ns#ShareAlike" />
      </cc:License>
    </rdf:RDF>
  </metadata>
  <g
     inkscape:groupmode="layer"
     id="layer2"
     inkscape:label="Calque 2">
    <path
       style="fill:#469832;fill-opacity:1;fill-rule:evenodd;stroke:none;stroke-width:1px;stroke-linecap:butt;stroke-linejoin:miter;stroke-opacity:1"
       d="m 135.98177,265.12972 c 19.00123,-41.34137 85.77784,-73.78073 88.52789,-69.1546 2.62392,4.41392 -36.85971,62.51782 -88.52789,69.1546 z"
       id="path4827-0"
       inkscape:connector-curvature="0"
       sodipodi:nodetypes="csc" />
    <path
       style="fill:#54c63a;fill-opacity:1;fill-rule:evenodd;stroke:none;stroke-width:1px;stroke-linecap:butt;stroke-linejoin:miter;stroke-opacity:1"
       d="m 140.26585,262.20724 c 17.16145,-35.5782 78.09162,-67.09632 80.7298,-63.51155 2.66795,3.62523 -34.29246,55.46924 -80.7298,63.51155 z"
       id="path4827-3-7"
       inkscape:connector-curvature="0"
       sodipodi:nodetypes="csc" />
    <path
       style="fill:#469832;fill-opacity:1;fill-rule:evenodd;stroke:none;stroke-width:1px;stroke-linecap:butt;stroke-linejoin:miter;stroke-opacity:1"
       d="m 115.68699,161.82461 c 5.59566,23.64859 12.15381,86.60339 11.665,101.27688 -0.43988,13.20448 -7.95617,31.77004 -7.95617,31.77004 -1.56265,0.39036 4.38794,4.87747 13.27572,2.58895 4.52032,-1.16394 8.81939,-20.24817 8.34341,-38.5893 -0.41036,-15.81267 -6.42256,-77.29224 -10.59387,-95.53094 -0.47728,-2.0869 -14.73409,-1.51563 -14.73409,-1.51563 z"
       id="path4810-4"
       inkscape:connector-curvature="0"
       sodipodi:nodetypes="cscsssc" />
    <path
       style="fill:#54c63a;fill-opacity:1;fill-rule:evenodd;stroke:none;stroke-width:1px;stroke-linecap:butt;stroke-linejoin:miter;stroke-opacity:1"
       d="m 122.82625,167.29369 c 3.41341,21.82844 7.80768,79.8244 7.5095,93.36852 -0.26833,12.18817 -6.92426,32.03816 -6.92426,32.03816 -0.95323,0.36032 3.5549,3.49449 8.82522,0.63676 3.19557,-1.73274 7.23769,-20.39943 6.22916,-36.24968 -0.92474,-14.53333 -4.49328,-71.52892 -7.03782,-88.36385 -0.29115,-1.92628 -8.6018,-1.42991 -8.6018,-1.42991 z"
       id="path4810"
       inkscape:connector-curvature="0"
       sodipodi:nodetypes="cscsssc" />
    <g
       id="g4709"
       transform="translate(-1.286914,0)">
      <path
         sodipodi:nodetypes="czssc"
         inkscape:connector-curvature="0"
         id="path4169-7-2-9-6-0-2-6-9-0-3-5-9"
         d="m 177.35462,234.49536 c -7.02443,1.52105 -19.64779,-22.29823 -22.88899,-33.18132 -3.2412,-10.88308 -6.54969,-38.85039 -2.22442,-40.98765 4.78867,-2.36624 16.58064,17.04832 21.10082,30.34822 4.52019,13.2999 8.27281,35.10733 4.01259,43.82075 z"
         style="fill:#d7bb7a;fill-opacity:1;fill-rule:evenodd;stroke:none;stroke-width:1px;stroke-linecap:butt;stroke-linejoin:miter;stroke-opacity:1" />
      <path
         sodipodi:nodetypes="czssc"
         inkscape:connector-curvature="0"
         id="path4169-7-3-2-0-7-7-9-9-8-1-6-6-4"
         d="m 85.219195,22.131662 c 7.024429,-1.521049 19.647785,22.298224 22.888985,33.181312 3.2412,10.883086 6.5497,38.850389 2.22442,40.987653 C 105.54394,98.666868 93.75197,79.252306 89.231785,65.952407 84.711598,52.652506 80.958981,30.845074 85.219195,22.131662 Z"
         style="fill:#d7bb7a;fill-opacity:1;fill-rule:evenodd;stroke:none;stroke-width:1px;stroke-linecap:butt;stroke-linejoin:miter;stroke-opacity:1" />
      <path
         sodipodi:nodetypes="czssc"
         inkscape:connector-curvature="0"
         id="path4169-7-2-9-6-0-2-6-9-0-3-5"
         d="m 148.30302,242.8005 c -7.17875,-0.34883 -13.2071,-26.62365 -13.52111,-37.97479 -0.31401,-11.35114 3.7287,-39.22178 8.45976,-40.16676 5.23792,-1.04621 11.60323,20.7588 12.52713,34.77543 0.9239,14.01663 -1.09553,36.05224 -7.46578,43.36612 z"
         style="fill:#d7bb7a;fill-opacity:1;fill-rule:evenodd;stroke:none;stroke-width:1px;stroke-linecap:butt;stroke-linejoin:miter;stroke-opacity:1" />
      <path
         sodipodi:nodetypes="czssc"
         inkscape:connector-curvature="0"
         id="path4169-7-3-2-0-7-7-9-9-8-1-6-6"
         d="m 114.2708,13.826525 c 7.17875,0.348834 13.2071,26.623651 13.52111,37.974792 0.31401,11.351138 -3.7287,39.22178 -8.45976,40.166755 -5.23792,1.046215 -11.60323,-20.758798 -12.52713,-34.775424 -0.9239,-14.016628 1.09553,-36.052239 7.46578,-43.366123 z"
         style="fill:#d7bb7a;fill-opacity:1;fill-rule:evenodd;stroke:none;stroke-width:1px;stroke-linecap:butt;stroke-linejoin:miter;stroke-opacity:1" />
      <path
         sodipodi:nodetypes="czssc"
         inkscape:connector-curvature="0"
         id="path4169-7-2-9-6-0-2-6-9-0-3"
         d="m 118.0918,243.30355 c -6.84386,-2.19495 -5.86638,-29.13472 -3.23179,-40.18036 2.63458,-11.04562 13.75299,-36.92027 18.56742,-36.60855 5.33022,0.3451 5.83509,23.05459 3.09973,36.83274 -2.73535,13.77814 -10.3892,34.54024 -18.43536,39.95617 z"
         style="fill:#d7bb7a;fill-opacity:1;fill-rule:evenodd;stroke:none;stroke-width:1px;stroke-linecap:butt;stroke-linejoin:miter;stroke-opacity:1" />
      <path
         sodipodi:nodetypes="czssc"
         inkscape:connector-curvature="0"
         id="path4169-7-3-2-0-7-7-9-9-8-1-6"
         d="m 144.48202,13.323483 c 6.84386,2.194947 5.86638,29.134723 3.23179,40.180354 -2.63458,11.045628 -13.75299,36.920272 -18.56742,36.608559 -5.33022,-0.345108 -5.83509,-23.054597 -3.09973,-36.83274 2.73535,-13.778145 10.3892,-34.540244 18.43536,-39.956173 z"
         style="fill:#d7bb7a;fill-opacity:1;fill-rule:evenodd;stroke:none;stroke-width:1px;stroke-linecap:butt;stroke-linejoin:miter;stroke-opacity:1" />
      <path
         sodipodi:nodetypes="czssc"
         inkscape:connector-curvature="0"
         id="path4169-7-2-9-6-0-2-6-9-0"
         d="m 88.779804,235.97021 c -6.042566,-3.89148 1.87414,-29.66031 7.277771,-39.64769 5.403625,-9.98738 22.840035,-32.10271 27.409745,-30.55555 5.05928,1.71291 -0.3307,23.77926 -6.5389,36.37996 -6.20819,12.60071 -18.974877,30.67439 -28.148616,33.82328 z"
         style="fill:#d7bb7a;fill-opacity:1;fill-rule:evenodd;stroke:none;stroke-width:1px;stroke-linecap:butt;stroke-linejoin:miter;stroke-opacity:1" />
      <path
         sodipodi:nodetypes="czssc"
         inkscape:connector-curvature="0"
         id="path4169-7-3-2-0-7-7-9-9-8-1"
         d="m 173.79402,20.656818 c 6.04257,3.891476 -1.87414,29.66031 -7.27777,39.647691 -5.40363,9.987377 -22.84004,32.102707 -27.40975,30.55555 -5.05928,-1.712912 0.33071,-23.779264 6.5389,-36.379966 6.2082,-12.600705 18.97488,-30.674389 28.14862,-33.823275 z"
         style="fill:#d7bb7a;fill-opacity:1;fill-rule:evenodd;stroke:none;stroke-width:1px;stroke-linecap:butt;stroke-linejoin:miter;stroke-opacity:1" />
      <path
         sodipodi:nodetypes="czssc"
         inkscape:connector-curvature="0"
         id="path4169-7-2-9-6-0-2-6-9"
         d="m 62.364595,221.30025 c -4.829482,-5.32281 9.486934,-28.16459 17.291365,-36.4131 7.804428,-8.2485 30.37058,-25.0974 34.38414,-22.42023 4.44355,2.96398 -6.47396,22.88341 -15.731922,33.44796 -9.257958,10.56454 -26.26744,24.71812 -35.943583,25.38537 z"
         style="fill:#d7bb7a;fill-opacity:1;fill-rule:evenodd;stroke:none;stroke-width:1px;stroke-linecap:butt;stroke-linejoin:miter;stroke-opacity:1" />
      <path
         sodipodi:nodetypes="czssc"
         inkscape:connector-curvature="0"
         id="path4169-7-3-2-0-7-7-9-9-8"
         d="m 200.20923,35.326784 c 4.82948,5.322808 -9.48694,28.164595 -17.29137,36.413102 -7.80443,8.248503 -30.37057,25.097396 -34.38414,22.420231 -4.44355,-2.963985 6.47396,-22.883413 15.73192,-33.447957 9.25796,-10.564547 26.26744,-24.718124 35.94359,-25.385376 z"
         style="fill:#d7bb7a;fill-opacity:1;fill-rule:evenodd;stroke:none;stroke-width:1px;stroke-linecap:butt;stroke-linejoin:miter;stroke-opacity:1" />
      <path
         sodipodi:nodetypes="czssc"
         inkscape:connector-curvature="0"
         id="path4169-7-2-9-6-0-2-6"
         d="m 40.646329,200.2934 c -3.287277,-6.3914 16.453208,-24.74951 26.12658,-30.69702 9.673369,-5.94751 35.831411,-16.38174 39.015311,-12.75701 3.52501,4.01307 -12.176031,20.42809 -23.852837,28.23652 -11.676807,7.80844 -31.76992,17.07736 -41.289054,15.21751 z"
         style="fill:#d7bb7a;fill-opacity:1;fill-rule:evenodd;stroke:none;stroke-width:1px;stroke-linecap:butt;stroke-linejoin:miter;stroke-opacity:1" />
      <path
         sodipodi:nodetypes="czssc"
         inkscape:connector-curvature="0"
         id="path4169-7-3-2-0-7-7-9-9"
         d="m 221.92749,56.333636 c 3.28728,6.3914 -16.45321,24.749511 -26.12658,30.697021 -9.67337,5.947508 -35.83141,16.381743 -39.01531,12.75701 -3.52501,-4.013066 12.17603,-20.428094 23.85284,-28.236524 11.6768,-7.808433 31.76992,-17.077361 41.28905,-15.217507 z"
         style="fill:#d7bb7a;fill-opacity:1;fill-rule:evenodd;stroke:none;stroke-width:1px;stroke-linecap:butt;stroke-linejoin:miter;stroke-opacity:1" />
      <path
         sodipodi:nodetypes="czssc"
         inkscape:connector-curvature="0"
         id="path4169-7-2-9-6-0-2"
         d="m 25.105067,174.38123 c -1.521049,-7.02443 22.298224,-19.64779 33.181312,-22.88899 10.883086,-3.2412 38.850389,-6.54969 40.987653,-2.22442 2.366238,4.78867 -17.048321,16.58064 -30.34822,21.10082 -13.299901,4.52019 -35.107333,8.27281 -43.820745,4.01259 z"
         style="fill:#d7bb7a;fill-opacity:1;fill-rule:evenodd;stroke:none;stroke-width:1px;stroke-linecap:butt;stroke-linejoin:miter;stroke-opacity:1" />
      <path
         sodipodi:nodetypes="czssc"
         inkscape:connector-curvature="0"
         id="path4169-7-3-2-0-7-7-9"
         d="m 237.46876,82.245796 c 1.52105,7.024429 -22.29823,19.647784 -33.18132,22.888994 -10.88308,3.2412 -38.85039,6.54969 -40.98765,2.22442 -2.36624,-4.78867 17.04832,-16.580639 30.34822,-21.100824 13.2999,-4.520187 35.10733,-8.272804 43.82075,-4.01259 z"
         style="fill:#d7bb7a;fill-opacity:1;fill-rule:evenodd;stroke:none;stroke-width:1px;stroke-linecap:butt;stroke-linejoin:miter;stroke-opacity:1" />
      <path
         sodipodi:nodetypes="czssc"
         inkscape:connector-curvature="0"
         id="path4169-7-2-9-6-0"
         d="m 16.799924,145.32963 c 0.348834,-7.17875 26.623651,-13.2071 37.974792,-13.52111 11.351138,-0.31401 39.22178,3.7287 40.166755,8.45976 1.046215,5.23792 -20.758798,11.60323 -34.775424,12.52713 -14.016628,0.9239 -36.052239,-1.09553 -43.366123,-7.46578 z"
         style="fill:#d7bb7a;fill-opacity:1;fill-rule:evenodd;stroke:none;stroke-width:1px;stroke-linecap:butt;stroke-linejoin:miter;stroke-opacity:1" />
      <path
         sodipodi:nodetypes="czssc"
         inkscape:connector-curvature="0"
         id="path4169-7-3-2-0-7-7"
         d="m 245.7739,111.2974 c -0.34883,7.17875 -26.62365,13.2071 -37.97479,13.52111 -11.35114,0.31401 -39.22178,-3.7287 -40.16676,-8.45976 -1.04621,-5.23792 20.7588,-11.60323 34.77543,-12.52713 14.01663,-0.9239 36.05224,1.09553 43.36612,7.46578 z"
         style="fill:#d7bb7a;fill-opacity:1;fill-rule:evenodd;stroke:none;stroke-width:1px;stroke-linecap:butt;stroke-linejoin:miter;stroke-opacity:1" />
      <path
         sodipodi:nodetypes="czssc"
         inkscape:connector-curvature="0"
         id="path4169-7-2-9-6"
         d="m 16.296878,115.11841 c 2.194947,-6.84386 29.134723,-5.86638 40.180354,-3.23179 11.045628,2.63458 36.920272,13.75299 36.608559,18.56742 -0.345108,5.33022 -23.054597,5.83509 -36.83274,3.09973 -13.778145,-2.73535 -34.540244,-10.3892 -39.956173,-18.43536 z"
         style="fill:#d7bb7a;fill-opacity:1;fill-rule:evenodd;stroke:none;stroke-width:1px;stroke-linecap:butt;stroke-linejoin:miter;stroke-opacity:1" />
      <path
         sodipodi:nodetypes="czssc"
         inkscape:connector-curvature="0"
         id="path4169-7-3-2-0-7"
         d="m 246.27695,141.50862 c -2.19495,6.84386 -29.13472,5.86638 -40.18036,3.23179 -11.04562,-2.63458 -36.92027,-13.75299 -36.60855,-18.56742 0.3451,-5.33022 23.05459,-5.83509 36.83274,-3.09973 13.77814,2.73535 34.54024,10.3892 39.95617,18.43536 z"
         style="fill:#d7bb7a;fill-opacity:1;fill-rule:evenodd;stroke:none;stroke-width:1px;stroke-linecap:butt;stroke-linejoin:miter;stroke-opacity:1" />
      <path
         sodipodi:nodetypes="czssc"
         inkscape:connector-curvature="0"
         id="path4169-7-2-9"
         d="m 23.630215,85.806409 c 3.891476,-6.042566 29.66031,1.87414 39.647691,7.277771 9.987377,5.40363 32.102707,22.84004 30.55555,27.40975 -1.712912,5.05928 -23.779264,-0.33071 -36.379966,-6.5389 C 44.852785,107.74683 26.779101,94.980148 23.630215,85.806409 Z"
         style="fill:#d7bb7a;fill-opacity:1;fill-rule:evenodd;stroke:none;stroke-width:1px;stroke-linecap:butt;stroke-linejoin:miter;stroke-opacity:1" />
      <path
         sodipodi:nodetypes="czssc"
         inkscape:connector-curvature="0"
         id="path4169-7-3-2-0"
         d="m 238.94362,170.82063 c -3.89148,6.04257 -29.66031,-1.87414 -39.64769,-7.27777 -9.98738,-5.40363 -32.10271,-22.84004 -30.55555,-27.40975 1.71291,-5.05928 23.77926,0.33071 36.37996,6.5389 12.60071,6.2082 30.67439,18.97488 33.82328,28.14862 z"
         style="fill:#d7bb7a;fill-opacity:1;fill-rule:evenodd;stroke:none;stroke-width:1px;stroke-linecap:butt;stroke-linejoin:miter;stroke-opacity:1" />
      <path
         sodipodi:nodetypes="czssc"
         inkscape:connector-curvature="0"
         id="path4169-7-2"
         d="M 38.300178,59.391198 C 43.622986,54.561716 66.464773,68.878132 74.71328,76.682563 82.961783,84.486991 99.810676,107.05314 97.133511,111.0667 94.169526,115.51026 74.250098,104.59274 63.685554,95.334781 53.121007,86.076823 38.96743,69.067341 38.300178,59.391198 Z"
         style="fill:#d7bb7a;fill-opacity:1;fill-rule:evenodd;stroke:none;stroke-width:1px;stroke-linecap:butt;stroke-linejoin:miter;stroke-opacity:1" />
      <path
         sodipodi:nodetypes="czssc"
         inkscape:connector-curvature="0"
         id="path4169-7-3-2"
         d="m 224.27366,197.23584 c -5.32281,4.82948 -28.16459,-9.48694 -36.4131,-17.29137 -8.2485,-7.80443 -25.0974,-30.37057 -22.42023,-34.38414 2.96398,-4.44355 22.88341,6.47396 33.44796,15.73192 10.56454,9.25796 24.71812,26.26744 25.38537,35.94359 z"
         style="fill:#d7bb7a;fill-opacity:1;fill-rule:evenodd;stroke:none;stroke-width:1px;stroke-linecap:butt;stroke-linejoin:miter;stroke-opacity:1" />
      <path
         sodipodi:nodetypes="czssc"
         inkscape:connector-curvature="0"
         id="path4169-7"
         d="m 58.847775,37.628245 c 6.3914,-3.287277 24.749511,16.453208 30.697021,26.12658 5.947508,9.673369 16.381744,35.831408 12.757014,39.015305 C 98.28874,106.29514 81.873712,90.594105 74.065282,78.917299 66.256849,67.240492 56.987921,47.147379 58.847775,37.628245 Z"
         style="fill:#d7bb7a;fill-opacity:1;fill-rule:evenodd;stroke:none;stroke-width:1px;stroke-linecap:butt;stroke-linejoin:miter;stroke-opacity:1" />
      <path
         sodipodi:nodetypes="czssc"
         inkscape:connector-curvature="0"
         id="path4169-7-3"
         d="m 202.88203,219.15519 c -6.3914,3.28728 -24.74951,-16.45321 -30.69702,-26.12658 -5.94751,-9.67337 -16.38174,-35.83141 -12.75701,-39.01531 4.01307,-3.52501 20.42809,12.17603 28.23652,23.85284 7.80844,11.6768 17.07736,31.76992 15.21751,41.28905 z"
         style="fill:#d7bb7a;fill-opacity:1;fill-rule:evenodd;stroke:none;stroke-width:1px;stroke-linecap:butt;stroke-linejoin:miter;stroke-opacity:1" />
    </g>
    <g
       id="g4683"
       transform="translate(-1.286914,0)">
      <path
         sodipodi:nodetypes="czssc"
         inkscape:connector-curvature="0"
         id="path4169-9-3-1-2-2-1-4-3-2-4-3"
         d="m 174.57181,229.18268 c -5.94028,1.4037 -16.35478,-19.37457 -18.98205,-28.893 -2.62727,-9.51844 -5.14365,-34.02815 -1.47415,-35.94611 4.06264,-2.12344 13.81906,14.79771 17.50148,26.42443 3.68241,11.62671 6.63387,30.72658 2.95472,38.41468 z"
         style="fill:#f5eede;fill-opacity:1;fill-rule:evenodd;stroke:none;stroke-width:1px;stroke-linecap:butt;stroke-linejoin:miter;stroke-opacity:1" />
      <path
         sodipodi:nodetypes="czssc"
         inkscape:connector-curvature="0"
         id="path4169-5-7-6-9-5-7-3-4-0-1-5-5"
         d="m 88.002009,27.444339 c 5.940282,-1.403702 16.354781,19.374566 18.982051,28.893004 2.62727,9.518437 5.14365,34.028145 1.47415,35.946104 C 104.39557,94.406893 94.63915,77.485734 90.956732,65.85902 87.274314,54.232304 84.322856,35.132436 88.002009,27.444339 Z"
         style="fill:#f5eede;fill-opacity:1;fill-rule:evenodd;stroke:none;stroke-width:1px;stroke-linecap:butt;stroke-linejoin:miter;stroke-opacity:1" />
      <path
         sodipodi:nodetypes="czssc"
         inkscape:connector-curvature="0"
         id="path4169-9-3-1-2-2-1-4-3-2-4"
         d="m 146.99005,236.9486 c -6.10118,-0.18158 -10.783,-22.94732 -10.85719,-32.82141 -0.0742,-9.87409 3.83875,-34.19994 7.87962,-35.10281 4.47379,-0.9996 9.51825,17.87013 10.06598,30.05375 0.54773,12.18363 -1.54479,31.39658 -7.08841,37.87047 z"
         style="fill:#f5eede;fill-opacity:1;fill-rule:evenodd;stroke:none;stroke-width:1px;stroke-linecap:butt;stroke-linejoin:miter;stroke-opacity:1" />
      <path
         sodipodi:nodetypes="czssc"
         inkscape:connector-curvature="0"
         id="path4169-5-7-6-9-5-7-3-4-0-1-5"
         d="m 115.58377,19.678421 c 6.10118,0.181586 10.783,22.947323 10.85719,32.821415 0.0742,9.874091 -3.83875,34.199939 -7.87962,35.102808 -4.47379,0.999604 -9.51825,-17.870128 -10.06598,-30.053752 -0.54773,-12.183625 1.54479,-31.396574 7.08841,-37.870471 z"
         style="fill:#f5eede;fill-opacity:1;fill-rule:evenodd;stroke:none;stroke-width:1px;stroke-linecap:butt;stroke-linejoin:miter;stroke-opacity:1" />
      <path
         sodipodi:nodetypes="czssc"
         inkscape:connector-curvature="0"
         id="path4169-9-3-1-2-2-1-4-3-2"
         d="m 118.33815,237.31123 c -5.84629,-1.7545 -4.47638,-24.95626 -1.99244,-34.5131 2.48394,-9.55684 12.55954,-32.04106 16.6964,-31.86732 4.58007,0.19236 4.5688,19.72473 1.94451,31.63497 -2.62429,11.91024 -9.61818,29.92694 -16.64847,34.74545 z"
         style="fill:#f5eede;fill-opacity:1;fill-rule:evenodd;stroke:none;stroke-width:1px;stroke-linecap:butt;stroke-linejoin:miter;stroke-opacity:1" />
      <path
         sodipodi:nodetypes="czssc"
         inkscape:connector-curvature="0"
         id="path4169-5-7-6-9-5-7-3-4-0-1"
         d="m 144.23567,19.315803 c 5.84629,1.754499 4.47638,24.956258 1.99244,34.5131 -2.48394,9.556843 -12.55954,32.041064 -16.6964,31.867314 -4.58007,-0.19236 -4.5688,-19.724724 -1.94451,-31.634963 2.62429,-11.91024 9.61818,-29.92694 16.64847,-34.745451 z"
         style="fill:#f5eede;fill-opacity:1;fill-rule:evenodd;stroke:none;stroke-width:1px;stroke-linecap:butt;stroke-linejoin:miter;stroke-opacity:1" />
      <path
         sodipodi:nodetypes="czssc"
         inkscape:connector-curvature="0"
         id="path4169-9-3-1-2-2-1-4-3"
         d="m 90.568687,230.24583 c -5.192981,-3.20784 2.13531,-25.26446 7.008103,-33.85277 4.87279,-8.58831 20.42442,-27.69864 24.37535,-26.46012 4.37422,1.37122 -0.69201,20.23512 -6.30948,31.06031 -5.61746,10.82519 -17.036113,26.41783 -25.073973,29.25258 z"
         style="fill:#f5eede;fill-opacity:1;fill-rule:evenodd;stroke:none;stroke-width:1px;stroke-linecap:butt;stroke-linejoin:miter;stroke-opacity:1" />
      <path
         sodipodi:nodetypes="czssc"
         inkscape:connector-curvature="0"
         id="path4169-5-7-6-9-5-7-3-4-0"
         d="m 172.00514,26.381194 c 5.19298,3.207846 -2.13531,25.264465 -7.00811,33.852776 -4.87279,8.58831 -20.42442,27.698642 -24.37535,26.460114 -4.37422,-1.371214 0.69201,-20.235112 6.30948,-31.060304 5.61747,-10.825192 17.03612,-26.417834 25.07398,-29.252586 z"
         style="fill:#f5eede;fill-opacity:1;fill-rule:evenodd;stroke:none;stroke-width:1px;stroke-linecap:butt;stroke-linejoin:miter;stroke-opacity:1" />
      <path
         sodipodi:nodetypes="czssc"
         inkscape:connector-curvature="0"
         id="path4169-9-3-1-2-2-1-4"
         d="m 65.574101,216.23393 c -4.185783,-4.44259 8.601475,-23.85094 15.531051,-30.88544 6.929575,-7.0345 26.897418,-21.46861 30.393168,-19.2497 3.87027,2.45662 -5.90567,19.36651 -14.133491,28.36893 -8.227822,9.00243 -23.293064,21.1084 -31.790728,21.76621 z"
         style="fill:#f5eede;fill-opacity:1;fill-rule:evenodd;stroke:none;stroke-width:1px;stroke-linecap:butt;stroke-linejoin:miter;stroke-opacity:1" />
      <path
         sodipodi:nodetypes="czssc"
         inkscape:connector-curvature="0"
         id="path4169-5-7-6-9-5-7-3-4"
         d="m 196.99972,40.393109 c 4.18578,4.442584 -8.60148,23.850941 -15.53105,30.885439 -6.92958,7.034499 -26.89741,21.468604 -30.39317,19.249702 -3.87027,-2.456622 5.90567,-19.366511 14.13349,-28.368936 8.22782,-9.002425 23.29307,-21.108397 31.79073,-21.766205 z"
         style="fill:#f5eede;fill-opacity:1;fill-rule:evenodd;stroke:none;stroke-width:1px;stroke-linecap:butt;stroke-linejoin:miter;stroke-opacity:1" />
      <path
         sodipodi:nodetypes="czssc"
         inkscape:connector-curvature="0"
         id="path4169-9-3-1-2-2-1"
         d="m 45.057735,196.23039 c -2.89333,-5.37457 14.481465,-20.81202 22.995583,-25.81331 8.514118,-5.0013 31.53739,-13.77552 34.339732,-10.72746 3.10258,3.37462 -10.716857,17.17812 -20.994321,23.74427 -10.277465,6.56616 -27.962627,14.36046 -36.340994,12.7965 z"
         style="fill:#f5eede;fill-opacity:1;fill-rule:evenodd;stroke:none;stroke-width:1px;stroke-linecap:butt;stroke-linejoin:miter;stroke-opacity:1" />
      <path
         sodipodi:nodetypes="czssc"
         inkscape:connector-curvature="0"
         id="path4169-5-7-6-9-5-7-3"
         d="m 217.51608,60.396649 c 2.89333,5.374567 -14.48146,20.812014 -22.99558,25.813312 -8.51412,5.001298 -31.53739,13.775516 -34.33973,10.727454 -3.10258,-3.374616 10.71686,-17.178114 20.99432,-23.744272 10.27746,-6.566158 27.96263,-14.360457 36.34099,-12.796494 z"
         style="fill:#f5eede;fill-opacity:1;fill-rule:evenodd;stroke:none;stroke-width:1px;stroke-linecap:butt;stroke-linejoin:miter;stroke-opacity:1" />
      <path
         sodipodi:nodetypes="czssc"
         inkscape:connector-curvature="0"
         id="path4169-9-3-1-2-2"
         d="m 30.417744,171.59842 c -1.403702,-5.94028 19.374566,-16.35478 28.893004,-18.98205 9.518437,-2.62727 34.028145,-5.14365 35.946104,-1.47415 2.123446,4.06264 -14.797713,13.81906 -26.424427,17.50148 -11.626716,3.68241 -30.726584,6.63387 -38.414681,2.95472 z"
         style="fill:#f5eede;fill-opacity:1;fill-rule:evenodd;stroke:none;stroke-width:1px;stroke-linecap:butt;stroke-linejoin:miter;stroke-opacity:1" />
      <path
         sodipodi:nodetypes="czssc"
         inkscape:connector-curvature="0"
         id="path4169-5-7-6-9-5-7"
         d="m 232.15608,85.02861 c 1.4037,5.940282 -19.37457,16.35478 -28.893,18.98205 -9.51844,2.62727 -34.02815,5.14365 -35.94611,1.47415 -2.12344,-4.06264 14.79771,-13.819059 26.42443,-17.501477 11.62671,-3.682418 30.72658,-6.633876 38.41468,-2.954723 z"
         style="fill:#f5eede;fill-opacity:1;fill-rule:evenodd;stroke:none;stroke-width:1px;stroke-linecap:butt;stroke-linejoin:miter;stroke-opacity:1" />
      <path
         sodipodi:nodetypes="czssc"
         inkscape:connector-curvature="0"
         id="path4169-9-3-1-2"
         d="m 22.65182,144.01666 c 0.181586,-6.10118 22.947323,-10.783 32.821415,-10.85719 9.874091,-0.0742 34.199939,3.83875 35.102808,7.87962 0.999604,4.47379 -17.870128,9.51825 -30.053752,10.06598 -12.183625,0.54773 -31.396574,-1.54479 -37.870471,-7.08841 z"
         style="fill:#f5eede;fill-opacity:1;fill-rule:evenodd;stroke:none;stroke-width:1px;stroke-linecap:butt;stroke-linejoin:miter;stroke-opacity:1" />
      <path
         sodipodi:nodetypes="czssc"
         inkscape:connector-curvature="0"
         id="path4169-5-7-6-9-5"
         d="m 239.922,112.61037 c -0.18158,6.10118 -22.94732,10.783 -32.82141,10.85719 -9.87409,0.0742 -34.19994,-3.83875 -35.10281,-7.87962 -0.9996,-4.47379 17.87013,-9.51825 30.05375,-10.06598 12.18363,-0.54773 31.39658,1.54479 37.87047,7.08841 z"
         style="fill:#f5eede;fill-opacity:1;fill-rule:evenodd;stroke:none;stroke-width:1px;stroke-linecap:butt;stroke-linejoin:miter;stroke-opacity:1" />
      <path
         sodipodi:nodetypes="czssc"
         inkscape:connector-curvature="0"
         id="path4169-9-3-1"
         d="m 22.289198,115.36476 c 1.754499,-5.84629 24.956258,-4.47638 34.5131,-1.99244 9.556843,2.48394 32.041064,12.55954 31.867314,16.6964 -0.19236,4.58007 -19.724724,4.5688 -31.634963,1.94451 -11.91024,-2.62429 -29.92694,-9.61818 -34.745451,-16.64847 z"
         style="fill:#f5eede;fill-opacity:1;fill-rule:evenodd;stroke:none;stroke-width:1px;stroke-linecap:butt;stroke-linejoin:miter;stroke-opacity:1" />
      <path
         sodipodi:nodetypes="czssc"
         inkscape:connector-curvature="0"
         id="path4169-5-7-6-9"
         d="m 240.28463,141.26227 c -1.7545,5.84629 -24.95626,4.47638 -34.5131,1.99244 -9.55684,-2.48394 -32.04106,-12.55954 -31.86732,-16.6964 0.19236,-4.58007 19.72473,-4.5688 31.63497,-1.94451 11.91024,2.62429 29.92694,9.61818 34.74545,16.64847 z"
         style="fill:#f5eede;fill-opacity:1;fill-rule:evenodd;stroke:none;stroke-width:1px;stroke-linecap:butt;stroke-linejoin:miter;stroke-opacity:1" />
      <path
         sodipodi:nodetypes="czssc"
         inkscape:connector-curvature="0"
         id="path4169-9-3"
         d="m 29.354591,87.595292 c 3.207846,-5.192981 25.264465,2.13531 33.852776,7.008103 8.58831,4.872794 27.698642,20.424425 26.460114,24.375355 -1.371214,4.37422 -20.235112,-0.69201 -31.060304,-6.30948 C 47.781985,107.0518 32.189343,95.633152 29.354591,87.595292 Z"
         style="fill:#f5eede;fill-opacity:1;fill-rule:evenodd;stroke:none;stroke-width:1px;stroke-linecap:butt;stroke-linejoin:miter;stroke-opacity:1" />
      <path
         sodipodi:nodetypes="czssc"
         inkscape:connector-curvature="0"
         id="path4169-5-7-6"
         d="m 233.21924,169.03175 c -3.20784,5.19298 -25.26446,-2.13531 -33.85277,-7.00811 -8.58831,-4.87279 -27.69864,-20.42442 -26.46012,-24.37535 1.37122,-4.37422 20.23512,0.69201 31.06031,6.30948 10.82519,5.61747 26.41783,17.03612 29.25258,25.07398 z"
         style="fill:#f5eede;fill-opacity:1;fill-rule:evenodd;stroke:none;stroke-width:1px;stroke-linecap:butt;stroke-linejoin:miter;stroke-opacity:1" />
      <path
         sodipodi:nodetypes="czssc"
         inkscape:connector-curvature="0"
         id="path4169-9"
         d="m 43.366503,62.600704 c 4.442584,-4.185783 23.850941,8.601475 30.885439,15.531051 7.034499,6.929575 21.468604,26.897415 19.249702,30.393165 C 91.045022,112.3952 74.135133,102.61925 65.132708,94.391432 56.130283,86.16361 44.024311,71.098368 43.366503,62.600704 Z"
         style="fill:#f5eede;fill-opacity:1;fill-rule:evenodd;stroke:none;stroke-width:1px;stroke-linecap:butt;stroke-linejoin:miter;stroke-opacity:1" />
      <path
         sodipodi:nodetypes="czssc"
         inkscape:connector-curvature="0"
         id="path4169-5-7"
         d="m 219.20734,194.02633 c -4.44259,4.18578 -23.85094,-8.60148 -30.88544,-15.53105 -7.0345,-6.92958 -21.46861,-26.89741 -19.2497,-30.39317 2.45662,-3.87027 19.36651,5.90567 28.36893,14.13349 9.00243,8.22782 21.1084,23.29307 21.76621,31.79073 z"
         style="fill:#f5eede;fill-opacity:1;fill-rule:evenodd;stroke:none;stroke-width:1px;stroke-linecap:butt;stroke-linejoin:miter;stroke-opacity:1" />
      <path
         sodipodi:nodetypes="czssc"
         inkscape:connector-curvature="0"
         id="path4169"
         d="m 62.910788,42.039651 c 5.374567,-2.89333 20.812014,14.481465 25.813312,22.995583 5.001298,8.514118 13.77552,31.53739 10.727454,34.339733 C 96.076938,102.47754 82.27344,88.658109 75.707282,78.380645 69.141124,68.10318 61.346825,50.418018 62.910788,42.039651 Z"
         style="fill:#f5eede;fill-opacity:1;fill-rule:evenodd;stroke:none;stroke-width:1px;stroke-linecap:butt;stroke-linejoin:miter;stroke-opacity:1" />
      <path
         sodipodi:nodetypes="czssc"
         inkscape:connector-curvature="0"
         id="path4169-5"
         d="m 198.81902,214.74378 c -5.37457,2.89333 -20.81202,-14.48146 -25.81331,-22.99558 -5.0013,-8.51412 -13.77552,-31.53739 -10.72746,-34.33973 3.37462,-3.10258 17.17812,10.71686 23.74427,20.99432 6.56616,10.27746 14.36046,27.96263 12.7965,36.34099 z"
         style="fill:#f5eede;fill-opacity:1;fill-rule:evenodd;stroke:none;stroke-width:1px;stroke-linecap:butt;stroke-linejoin:miter;stroke-opacity:1" />
    </g>
    <path
       style="color:#000000;display:inline;overflow:visible;visibility:visible;opacity:1;fill:#da9b09;fill-opacity:1;fill-rule:nonzero;stroke:none;stroke-width:1;stroke-linecap:round;stroke-linejoin:round;stroke-miterlimit:4;stroke-dasharray:none;stroke-dashoffset:0;stroke-opacity:1;marker:none;enable-background:accumulate"
       d="M 173.92934,129.88252 A 43.929337,43.929337 0 0 1 130,173.81186 43.929337,43.929337 0 0 1 86.070662,129.88252 43.929337,43.929337 0 0 1 130,85.953186 43.929337,43.929337 0 0 1 173.92934,129.88252 Z"
       id="path4150-3"
       inkscape:connector-curvature="0" />
    <circle
       style="color:#000000;display:inline;overflow:visible;visibility:visible;opacity:1;fill:#f3cd44;fill-opacity:1;fill-rule:nonzero;stroke:none;stroke-width:1;stroke-linecap:round;stroke-linejoin:round;stroke-miterlimit:4;stroke-dasharray:none;stroke-dashoffset:0;stroke-opacity:1;marker:none;enable-background:accumulate"
       id="path4150"
       cx="130"
       cy="129.88252"
       r="41.037247" />
    <path
       style="fill:#c06c09;fill-opacity:1;fill-rule:evenodd;stroke:none;stroke-width:1px;stroke-linecap:butt;stroke-linejoin:miter;stroke-opacity:1"
       d="m 104.06907,126.77467 c 3.99261,-9.87418 15.42619,-7.27299 18.32615,-0.39779 -0.69337,-5.07129 -5.12862,-8.1046 -9.71016,-7.99401 -4.58153,0.11059 -8.15959,3.36791 -8.61599,8.3918 z"
       id="path4737"
       inkscape:connector-curvature="0"
       sodipodi:nodetypes="ccsc" />
    <path
       style="fill:#c06c09;fill-opacity:1;fill-rule:evenodd;stroke:none;stroke-width:1px;stroke-linecap:butt;stroke-linejoin:miter;stroke-opacity:1"
       d="m 156.82872,126.77467 c -3.99261,-9.87418 -15.42619,-7.27299 -18.32615,-0.39779 0.69337,-5.07129 5.12862,-8.1046 9.71016,-7.99401 4.58153,0.11059 8.15959,3.36791 8.61599,8.3918 z"
       id="path4737-2"
       inkscape:connector-curvature="0"
       sodipodi:nodetypes="ccsc" />
    <path
       style="fill:#ec9710;fill-opacity:1;fill-rule:evenodd;stroke:none;stroke-width:1px;stroke-linecap:butt;stroke-linejoin:miter;stroke-opacity:1"
       d="m 113.22451,142.66997 c 8.42751,12.29933 29.2237,9.34291 34.52433,0.74939 -2.44194,10.31336 -9.66706,15.10317 -17.95144,14.76933 -8.28439,-0.33384 -13.76432,-6.46205 -16.57287,-15.51872 z"
       id="path4737-5"
       inkscape:connector-curvature="0"
       sodipodi:nodetypes="cczcc" />
    <path
       style="fill:#ec9710;fill-opacity:1;fill-rule:evenodd;stroke:none;stroke-width:1px;stroke-linecap:butt;stroke-linejoin:miter;stroke-opacity:1"
       d="m 114.77454,141.62268 c -2.92919,1.10117 -2.37645,0.94962 -4.46846,3.15585 1.98182,-1.1839 3.88532,-2.05688 5.44904,-1.58071 0.85324,-0.41833 -0.16878,-1.00624 -0.98058,-1.57514 z"
       id="path4787"
       inkscape:connector-curvature="0"
       sodipodi:nodetypes="cccc" />
    <path
       style="fill:#ec9710;fill-opacity:1;fill-rule:evenodd;stroke:none;stroke-width:1px;stroke-linecap:butt;stroke-linejoin:miter;stroke-opacity:1"
       d="m 146.52499,142.12843 c 2.92919,1.10117 2.37645,0.94962 4.46846,3.15585 -1.98182,-1.1839 -3.88532,-2.05688 -5.44904,-1.58071 -0.85324,-0.41833 0.16878,-1.00624 0.98058,-1.57514 z"
       id="path4787-4"
       inkscape:connector-curvature="0"
       sodipodi:nodetypes="cccc" />
    <path
       style="fill:#469832;fill-rule:evenodd;stroke:none;stroke-width:1px;stroke-linecap:butt;stroke-linejoin:miter;stroke-opacity:1;fill-opacity:1"
       d="m 128.72214,261.71231 c -23.4434,-38.99439 -93.389444,-63.87366 -95.612692,-58.97254 -2.121269,4.67631 43.527783,58.07279 95.612692,58.97254 z"
       id="path4827"
       inkscape:connector-curvature="0"
       sodipodi:nodetypes="csc" />
    <path
       style="fill:#54c63a;fill-opacity:1;fill-rule:evenodd;stroke:none;stroke-width:1px;stroke-linecap:butt;stroke-linejoin:miter;stroke-opacity:1"
       d="m 124.14197,259.27998 c -20.97943,-33.4692 -85.013112,-58.07744 -87.239974,-54.22365 -2.25199,3.89728 40.199043,51.35023 87.239974,54.22365 z"
       id="path4827-3"
       inkscape:connector-curvature="0"
       sodipodi:nodetypes="csc" />
  </g>
</svg>
