<!--Created with Inkscape (http://www.inkscape.org/)--><svg xmlns:dc="http://purl.org/dc/elements/1.1/" xmlns:cc="http://creativecommons.org/ns#" xmlns:rdf="http://www.w3.org/1999/02/22-rdf-syntax-ns#" xmlns="http://www.w3.org/2000/svg" xmlns:xlink="http://www.w3.org/1999/xlink" xmlns:sodipodi="http://sodipodi.sourceforge.net/DTD/sodipodi-0.dtd" xmlns:inkscape="http://www.inkscape.org/namespaces/inkscape" sodipodi:docname="lion_bad.svg" inkscape:version="0.91 r13725" viewBox="0 0 260.00001 299.99999" height="300" width="260"><defs><linearGradient gradientTransform="translate(.16)" inkscape:collect="always" xlink:href="#a" id="b" x1="108.37969" y1="84.353638" x2="108.64919" y2="91.301712" gradientUnits="userSpaceOnUse"/><linearGradient inkscape:collect="always" id="a"><stop style="stop-color:#ef7e13;stop-opacity:1" offset="0"/><stop style="stop-color:#f39e4d;stop-opacity:1" offset="1"/></linearGradient><linearGradient gradientTransform="matrix(-1 0 0 1 259.84 0)" inkscape:collect="always" xlink:href="#a" id="c" x1="108.37969" y1="84.353638" x2="108.64919" y2="91.301712" gradientUnits="userSpaceOnUse"/></defs><sodipodi:namedview inkscape:snap-global="false" inkscape:window-maximized="1" inkscape:window-y="-3" inkscape:window-x="-3" inkscape:window-height="1060" inkscape:window-width="1880" units="px" fit-margin-bottom="0" fit-margin-right="0" fit-margin-left="0" fit-margin-top="0" showgrid="false" inkscape:current-layer="layer1" inkscape:document-units="px" inkscape:cy="78.803817" inkscape:cx="125.98546" inkscape:zoom="2.4467196" inkscape:pageshadow="2" inkscape:pageopacity="0.0" borderopacity="1.0" bordercolor="#666666" pagecolor="#ffffff"/><metadata><rdf:RDF><cc:Work><dc:format>image/svg+xml</dc:format><dc:type rdf:resource="http://purl.org/dc/dcmitype/StillImage"/><dc:title/><dc:date>2015</dc:date><dc:creator><cc:Agent><dc:title>Timothée Giet</dc:title></cc:Agent></dc:creator><cc:license rdf:resource="http://creativecommons.org/licenses/by-sa/4.0/"/></cc:Work><cc:License rdf:about="http://creativecommons.org/licenses/by-sa/4.0/"><cc:permits rdf:resource="http://creativecommons.org/ns#Reproduction"/><cc:permits rdf:resource="http://creativecommons.org/ns#Distribution"/><cc:requires rdf:resource="http://creativecommons.org/ns#Notice"/><cc:requires rdf:resource="http://creativecommons.org/ns#Attribution"/><cc:permits rdf:resource="http://creativecommons.org/ns#DerivativeWorks"/><cc:requires rdf:resource="http://creativecommons.org/ns#ShareAlike"/></cc:License></rdf:RDF></metadata><g inkscape:groupmode="layer" inkscape:label="Calque 1"><path style="fill:#a06d27;fill-opacity:1;fill-rule:evenodd;stroke:none;stroke-width:1px;stroke-linecap:butt;stroke-linejoin:miter;stroke-opacity:1" d="M68.09 194.025s-5.776 10.28-5.013 12.22c.762 1.94 6.445-2.448 6.445-2.448s-2.632-5.597-1.431-9.772z" inkscape:connector-curvature="0" sodipodi:nodetypes="cscc"/><path style="fill:#a06d27;fill-opacity:1;fill-rule:evenodd;stroke:none;stroke-width:1px;stroke-linecap:butt;stroke-linejoin:miter;stroke-opacity:1" d="M71.027 199.951s-3.661 11.21-2.535 12.964c1.126 1.753 5.844-3.657 5.844-3.657s-3.672-4.977-3.309-9.307z" inkscape:connector-curvature="0" sodipodi:nodetypes="cscc"/><path style="fill:#a06d27;fill-opacity:1;fill-rule:evenodd;stroke:none;stroke-width:1px;stroke-linecap:butt;stroke-linejoin:miter;stroke-opacity:1" d="M104.07 147.142c-9.605 5.927-36.172 33.106-39.441 44.345-3.27 11.24 6.335 18.801 10.626 19.823 4.292 1.022 10.218-2.452 15.736-8.992 5.517-6.54 18.596-33.105 26.566-36.988 7.97-3.883-8.583-17.166-13.488-18.188z" inkscape:connector-curvature="0" sodipodi:nodetypes="cssssc"/><path style="fill:#e7b46d;fill-opacity:1;fill-rule:evenodd;stroke:none;stroke-width:1px;stroke-linecap:butt;stroke-linejoin:miter;stroke-opacity:1" d="M104.07 151.23c-9.605 5.926-32.698 29.222-35.967 40.462-3.27 11.24 3.27 15.122 7.56 16.144 4.292 1.022 8.993-2.452 14.51-8.992 5.518-6.54 19.414-29.631 27.384-33.514 7.97-3.883-8.583-13.079-13.488-14.1z" inkscape:connector-curvature="0" sodipodi:nodetypes="cssssc"/><path style="fill:#a06d27;fill-opacity:1;fill-rule:evenodd;stroke:none;stroke-width:1px;stroke-linecap:butt;stroke-linejoin:miter;stroke-opacity:1" d="M188.973 199.951s3.661 11.21 2.535 12.964c-1.126 1.753-5.844-3.657-5.844-3.657s3.672-4.977 3.309-9.307z" inkscape:connector-curvature="0" sodipodi:nodetypes="cscc"/><path style="fill:#a06d27;fill-opacity:1;fill-rule:evenodd;stroke:none;stroke-width:1px;stroke-linecap:butt;stroke-linejoin:miter;stroke-opacity:1" d="M191.91 194.025s5.776 10.28 5.013 12.22c-.762 1.94-6.445-2.448-6.445-2.448s2.632-5.597 1.431-9.772z" inkscape:connector-curvature="0" sodipodi:nodetypes="cscc"/><path style="fill:#a06d27;fill-opacity:1;fill-rule:evenodd;stroke:none;stroke-width:1px;stroke-linecap:butt;stroke-linejoin:miter;stroke-opacity:1" d="M155.93 147.142c9.605 5.927 36.172 33.106 39.441 44.345 3.27 11.24-6.335 18.801-10.626 19.823-4.292 1.022-10.218-2.452-15.736-8.992-5.517-6.54-18.596-33.105-26.566-36.988-7.97-3.883 8.583-17.166 13.488-18.188z" inkscape:connector-curvature="0" sodipodi:nodetypes="cssssc"/><path style="fill:#e7b46d;fill-opacity:1;fill-rule:evenodd;stroke:none;stroke-width:1px;stroke-linecap:butt;stroke-linejoin:miter;stroke-opacity:1" d="M155.93 151.23c9.605 5.926 32.698 29.222 35.967 40.462 3.27 11.24-3.27 15.122-7.56 16.144-4.292 1.022-8.993-2.452-14.51-8.992-5.518-6.54-19.414-29.631-27.384-33.514-7.97-3.883 8.583-13.079 13.488-14.1z" inkscape:connector-curvature="0" sodipodi:nodetypes="cssssc"/><path style="fill:#a06d27;fill-opacity:1;fill-rule:evenodd;stroke:none;stroke-width:1px;stroke-linecap:butt;stroke-linejoin:miter;stroke-opacity:1" d="M192.525 188.388s7.585 9.03 7.196 11.077c-.389 2.047-6.787-1.208-6.787-1.208s1.546-5.989-.41-9.869z" inkscape:connector-curvature="0" sodipodi:nodetypes="cscc"/><path style="color:#000;display:inline;overflow:visible;visibility:visible;opacity:1;fill:#a06d27;fill-opacity:1;fill-rule:nonzero;stroke:none;stroke-width:1;stroke-linecap:round;stroke-linejoin:round;stroke-miterlimit:4;stroke-dasharray:none;stroke-dashoffset:0;stroke-opacity:1;marker:none;enable-background:accumulate" d="M172.506 216.214c0 32.17-28.431 32.359-42.506 32.359s-42.506-1.52-42.506-32.359c0-30.838 19.03-54.358 42.506-54.358 23.475 0 42.506 22.19 42.506 54.358z" inkscape:connector-curvature="0" sodipodi:nodetypes="zzzzz"/><path style="color:#000;display:inline;overflow:visible;visibility:visible;opacity:1;fill:#e7b46d;fill-opacity:1;fill-rule:nonzero;stroke:none;stroke-width:1;stroke-linecap:round;stroke-linejoin:round;stroke-miterlimit:4;stroke-dasharray:none;stroke-dashoffset:0;stroke-opacity:1;marker:none;enable-background:accumulate" d="M168.5 212.737c0 31.563-25.752 31.749-38.5 31.749-12.748 0-38.5-1.491-38.5-31.749 0-30.257 17.238-53.333 38.5-53.333s38.5 21.771 38.5 53.333z" inkscape:connector-curvature="0" sodipodi:nodetypes="zzzzz"/><ellipse style="color:#000;display:inline;overflow:visible;visibility:visible;opacity:1;fill:#a85824;fill-opacity:1;fill-rule:nonzero;stroke:none;stroke-width:1;stroke-linecap:round;stroke-linejoin:round;stroke-miterlimit:4;stroke-dasharray:none;stroke-dashoffset:0;stroke-opacity:1;marker:none;enable-background:accumulate" cx="129.90639" cy="85.416031" rx="83.088066" ry="77.308029"/><ellipse style="color:#000;display:inline;overflow:visible;visibility:visible;opacity:1;fill:#e2884e;fill-opacity:1;fill-rule:nonzero;stroke:none;stroke-width:1;stroke-linecap:round;stroke-linejoin:round;stroke-miterlimit:4;stroke-dasharray:none;stroke-dashoffset:0;stroke-opacity:1;marker:none;enable-background:accumulate" cx="129.90639" cy="84.404526" rx="78.428925" ry="73.406502"/><path style="color:#000;display:inline;overflow:visible;visibility:visible;opacity:1;fill:#a06d27;fill-opacity:1;fill-rule:nonzero;stroke:none;stroke-width:1;stroke-linecap:round;stroke-linejoin:round;stroke-miterlimit:4;stroke-dasharray:none;stroke-dashoffset:0;stroke-opacity:1;marker:none;enable-background:accumulate" d="M174.118 101.002c-1.156 9.06 6.108 14.242-1.462 23.709-7.57 9.467-28.816 28.605-42.656 28.605s-35.573-17.899-43.643-27.366c-8.07-9.467-2.13-18.686-2.475-24.948-1.76-32.063 17.572-48.54 46.118-48.315 29.191.23 48.343 15.197 44.118 48.315z" inkscape:connector-curvature="0" sodipodi:nodetypes="sssssss"/><path style="fill:#a06d27;fill-opacity:1;fill-rule:evenodd;stroke:none;stroke-width:1px;stroke-linecap:butt;stroke-linejoin:miter;stroke-opacity:1" d="M98.092 63.279c-5.256-3.162-19.296-10.976-26.407-6.1-7.111 4.874-4.8 18.491 5.73 22.99C81.702 82 91.59 77.922 95.483 76.934c3.891-.988 2.61-13.655 2.61-13.655z" inkscape:connector-curvature="0" sodipodi:nodetypes="csssc"/><path style="fill:#edb566;fill-opacity:1;fill-rule:evenodd;stroke:none;stroke-width:1px;stroke-linecap:butt;stroke-linejoin:miter;stroke-opacity:1" d="M99.526 67.547c-4.104-2.469-19.912-11.88-25.464-8.073-5.552 3.806-3.748 14.439 4.475 17.951 3.345 1.43 17.284-2.913 20.323-3.684 3.038-.772.666-6.194.666-6.194z" inkscape:connector-curvature="0" sodipodi:nodetypes="csssc"/><path style="fill:#f3cc97;fill-opacity:1;fill-rule:evenodd;stroke:none;stroke-width:1px;stroke-linecap:butt;stroke-linejoin:miter;stroke-opacity:1" d="M81.034 63.162c3.753-2.08 15.794 4.646 12.774 7.874-2.255 2.41-6.33 3.076-10.704 4.296-3.228.9-7.276-7.65-2.07-12.17z" inkscape:connector-curvature="0" sodipodi:nodetypes="cssc"/><path style="fill:#a06d27;fill-opacity:1;fill-rule:evenodd;stroke:none;stroke-width:1px;stroke-linecap:butt;stroke-linejoin:miter;stroke-opacity:1" d="M161.908 63.279c5.256-3.162 19.296-10.976 26.407-6.1 7.111 4.874 4.8 18.491-5.73 22.99-4.286 1.831-14.175-2.247-18.067-3.235-3.891-.988-2.61-13.655-2.61-13.655z" inkscape:connector-curvature="0" sodipodi:nodetypes="csssc"/><path style="color:#000;display:inline;overflow:visible;visibility:visible;opacity:1;fill:#e7b46d;fill-opacity:1;fill-rule:nonzero;stroke:none;stroke-width:1;stroke-linecap:round;stroke-linejoin:round;stroke-miterlimit:4;stroke-dasharray:none;stroke-dashoffset:0;stroke-opacity:1;marker:none;enable-background:accumulate" d="M171.646 101.352c-1.071 8.397 4.844 12.996-2.172 21.772-7.016 8.775-26.71 26.514-39.538 26.514-12.828 0-32.973-16.59-40.452-25.366-7.48-8.775-2.793-16.706-3.112-22.511-1.632-29.72 17.104-46.423 43.564-46.214 27.057.214 45.626 15.108 41.71 45.805z" inkscape:connector-curvature="0" sodipodi:nodetypes="sssssss"/><path style="fill:#a06d27;fill-opacity:1;fill-rule:evenodd;stroke:none;stroke-width:1px;stroke-linecap:butt;stroke-linejoin:miter;stroke-opacity:1" d="M94.71 73.431c2.938 3.279 20.42 3.634 22.58-12.63-2.404 4.899-4.267 7.98-9.005 10.347-4.343 2.17-7.932 2.954-13.575 2.283z" inkscape:connector-curvature="0" sodipodi:nodetypes="ccsc"/><path style="color:#000;display:inline;overflow:visible;visibility:visible;opacity:1;fill:#a06d27;fill-opacity:1;fill-rule:nonzero;stroke:none;stroke-width:1;stroke-linecap:round;stroke-linejoin:round;stroke-miterlimit:4;stroke-dasharray:none;stroke-dashoffset:0;stroke-opacity:1;marker:none;enable-background:accumulate" d="M117.837 88.776c0 6.39-4.85 11.569-10.831 11.569-5.982 0-9.162-5.244-10.182-9.608-1.383-5.919-1.68-1.64 10.402-13.22 3.669-3.516 10.61 4.87 10.61 11.26z" inkscape:connector-curvature="0" sodipodi:nodetypes="sssss"/><path style="color:#000;display:inline;overflow:visible;visibility:visible;opacity:1;fill:#f7eade;fill-opacity:1;fill-rule:nonzero;stroke:none;stroke-width:1;stroke-linecap:round;stroke-linejoin:round;stroke-miterlimit:4;stroke-dasharray:none;stroke-dashoffset:0;stroke-opacity:1;marker:none;enable-background:accumulate" d="M117.837 89.923c0 5.756-4.895 10.422-10.933 10.422s-9.944-4.482-10.422-10.218c-.418-5.009-1.598.743 10.933-10.218 3.844-3.362 10.422 4.258 10.422 10.014z" inkscape:connector-curvature="0" sodipodi:nodetypes="sssss"/><path style="color:#000;display:inline;overflow:visible;visibility:visible;opacity:1;fill:url(#b);fill-opacity:1;fill-rule:nonzero;stroke:none;stroke-width:1;stroke-linecap:round;stroke-linejoin:round;stroke-miterlimit:4;stroke-dasharray:none;stroke-dashoffset:0;stroke-opacity:1;marker:none;enable-background:accumulate" d="M109.382 79.088c-.699.038-1.366.297-1.967.822-2.79 2.441-4.872 4.02-6.463 5.108a6.842 6.842 0 0 0-.18 1.482c.001 4.204 3.798 7.611 8.48 7.611 3.53-.003 7.04-2.702 8.419-5.763-.828-4.518-4.915-9.444-8.29-9.26z" inkscape:connector-curvature="0"/><ellipse style="color:#000;display:inline;overflow:visible;visibility:visible;opacity:1;fill:#372a1e;fill-opacity:1;fill-rule:nonzero;stroke:none;stroke-width:1;stroke-linecap:round;stroke-linejoin:round;stroke-miterlimit:4;stroke-dasharray:none;stroke-dashoffset:0;stroke-opacity:1;marker:none;enable-background:accumulate" cx="109.56028" cy="85.733521" rx="4.2914605" ry="4.0871053"/><ellipse style="color:#000;display:inline;overflow:visible;visibility:visible;opacity:1;fill:#fff;fill-opacity:1;fill-rule:nonzero;stroke:none;stroke-width:1;stroke-linecap:round;stroke-linejoin:round;stroke-miterlimit:4;stroke-dasharray:none;stroke-dashoffset:0;stroke-opacity:1;marker:none;enable-background:accumulate" cx="111.3995" cy="89.105377" rx="1.5326644" ry="1.4304868"/><path style="color:#000;display:inline;overflow:visible;visibility:visible;opacity:1;fill:#744f1c;fill-opacity:1;fill-rule:nonzero;stroke:none;stroke-width:1;stroke-linecap:round;stroke-linejoin:round;stroke-miterlimit:4;stroke-dasharray:none;stroke-dashoffset:0;stroke-opacity:1;marker:none;enable-background:accumulate" d="M114.156 110.27c-.452 2.507.988 2.178 3.033 4.625 2.046 2.446 8.064 10.397 12.356 10.397s10.52-8.068 12.453-10.397c1.933-2.33 3.934-2.434 3.613-4.336-.32-1.903-6.927-4.866-16.017-4.866s-15.172 3.1-15.438 4.577z" inkscape:connector-curvature="0" sodipodi:nodetypes="szzzzzs"/><path style="fill:#a06d27;fill-opacity:1;fill-rule:evenodd;stroke:none;stroke-width:1px;stroke-linecap:butt;stroke-linejoin:miter;stroke-opacity:1" d="M109.006 133.457c7.337-1.475 12.377-2.578 20.191-2.578 7.815 0 18.01 1.276 21.15 1.8 1.283.215-7.085-3.28-20.163-3.68-13.077-.401-21.178 4.458-21.178 4.458z" inkscape:connector-curvature="0" sodipodi:nodetypes="csssc"/><path style="fill:#a06d27;fill-opacity:1;fill-rule:evenodd;stroke:none;stroke-width:1px;stroke-linecap:butt;stroke-linejoin:miter;stroke-opacity:1" d="M108.628 129.266c-1.425 2.127-2.352 5.53-2.352 5.53s-2.11.629-2.035-.185c.074-.815 4.387-5.345 4.387-5.345z" inkscape:connector-curvature="0" sodipodi:nodetypes="ccsc"/><path style="fill:#a85824;fill-opacity:1;fill-rule:evenodd;stroke:none;stroke-width:1px;stroke-linecap:butt;stroke-linejoin:miter;stroke-opacity:1" d="M95.045 112.727c-25.547-1.734-50.79 4.624-58.09 17.34 16.728-16.473 51.266-14.81 58.09-17.34z" inkscape:connector-curvature="0" sodipodi:nodetypes="ccc"/><path style="fill:#a85824;fill-opacity:1;fill-rule:evenodd;stroke:none;stroke-width:1px;stroke-linecap:butt;stroke-linejoin:miter;stroke-opacity:1" d="M97.045 118.727c-21.734-1.734-43.21 4.624-49.42 17.34 14.231-16.473 43.615-14.81 49.42-17.34z" inkscape:connector-curvature="0" sodipodi:nodetypes="ccc"/><path style="fill:#a85824;fill-opacity:1;fill-rule:evenodd;stroke:none;stroke-width:1px;stroke-linecap:butt;stroke-linejoin:miter;stroke-opacity:1" d="M99.045 124.727c-16.778-1.734-33.355 4.624-38.149 17.34 10.986-16.473 33.668-14.81 38.149-17.34z" inkscape:connector-curvature="0" sodipodi:nodetypes="ccc"/><path style="fill:#a85824;fill-opacity:1;fill-rule:evenodd;stroke:none;stroke-width:1px;stroke-linecap:butt;stroke-linejoin:miter;stroke-opacity:1" d="M164.955 112.727c25.547-1.734 50.79 4.624 58.09 17.34-16.728-16.473-51.266-14.81-58.09-17.34z" inkscape:connector-curvature="0" sodipodi:nodetypes="ccc"/><path style="fill:#a85824;fill-opacity:1;fill-rule:evenodd;stroke:none;stroke-width:1px;stroke-linecap:butt;stroke-linejoin:miter;stroke-opacity:1" d="M162.955 118.727c21.734-1.734 43.21 4.624 49.42 17.34-14.231-16.473-43.615-14.81-49.42-17.34z" inkscape:connector-curvature="0" sodipodi:nodetypes="ccc"/><path style="fill:#a85824;fill-opacity:1;fill-rule:evenodd;stroke:none;stroke-width:1px;stroke-linecap:butt;stroke-linejoin:miter;stroke-opacity:1" d="M160.955 124.727c16.778-1.734 33.355 4.624 38.149 17.34-10.986-16.473-33.668-14.81-38.149-17.34z" inkscape:connector-curvature="0" sodipodi:nodetypes="ccc"/><path style="fill:#a06d27;fill-opacity:1;fill-rule:evenodd;stroke:none;stroke-width:1px;stroke-linecap:butt;stroke-linejoin:miter;stroke-opacity:1" d="M122.493 245.311c-7.357 17.575-6.25 36.297-7.885 39.567-1.635 3.27-15.123 8.174-22.888 8.174-7.766 0-16.348-8.583-15.94-10.627.409-2.043 1.746-34.095 15.572-54.668 4.867 9.484 31.14 17.554 31.14 17.554z" inkscape:connector-curvature="0" sodipodi:nodetypes="cssscc"/><path style="fill:#e7b46d;fill-opacity:1;fill-rule:evenodd;stroke:none;stroke-width:1px;stroke-linecap:butt;stroke-linejoin:miter;stroke-opacity:1" d="M122.493 242.747c-7.762 9.548-9.372 37.36-10.776 40.48-1.403 3.121-13.273 6.357-19.94 6.357-6.668 0-12.593-7.903-12.242-9.853.351-1.95 5.248-42.569 15.978-53.252 10.841-10.794 25.632 6.833 26.98 16.268z" inkscape:connector-curvature="0" sodipodi:nodetypes="cssssc"/><path style="fill:#a06d27;fill-opacity:1;fill-rule:evenodd;stroke:none;stroke-width:1px;stroke-linecap:butt;stroke-linejoin:miter;stroke-opacity:1" d="M95.828 281.793s-3.468 11.271-2.312 13.005c1.156 1.734 5.78-3.757 5.78-3.757s-3.757-4.913-3.468-9.248z" inkscape:connector-curvature="0" sodipodi:nodetypes="cscc"/><path style="fill:#a06d27;fill-opacity:1;fill-rule:evenodd;stroke:none;stroke-width:1px;stroke-linecap:butt;stroke-linejoin:miter;stroke-opacity:1" d="M84.242 280.069s-7.265 9.288-6.805 11.32c.46 2.033 6.74-1.443 6.74-1.443s-1.753-5.931.065-9.877z" inkscape:connector-curvature="0" sodipodi:nodetypes="cscc"/><path style="fill:#a06d27;fill-opacity:1;fill-rule:evenodd;stroke:none;stroke-width:1px;stroke-linecap:butt;stroke-linejoin:miter;stroke-opacity:1" d="M79.49 273.085s-8.873 7.768-8.8 9.851c.073 2.083 6.892-.16 6.892-.16s-.616-6.155 1.907-9.691z" inkscape:connector-curvature="0" sodipodi:nodetypes="cscc"/><path style="fill:#a06d27;fill-opacity:1;fill-rule:evenodd;stroke:none;stroke-width:1px;stroke-linecap:butt;stroke-linejoin:miter;stroke-opacity:1" d="M111.476 277.394s7.266 9.289 6.805 11.321c-.46 2.033-6.74-1.444-6.74-1.444s1.753-5.931-.065-9.877z" inkscape:connector-curvature="0" sodipodi:nodetypes="cscc"/><path style="fill:#a06d27;fill-opacity:1;fill-rule:evenodd;stroke:none;stroke-width:1px;stroke-linecap:butt;stroke-linejoin:miter;stroke-opacity:1" d="M137.507 245.311c7.357 17.575 6.25 36.297 7.885 39.567 1.635 3.27 15.123 8.174 22.888 8.174 7.766 0 16.348-8.583 15.94-10.627-.409-2.043-1.746-34.095-15.572-54.668-4.867 9.484-31.14 17.554-31.14 17.554z" inkscape:connector-curvature="0" sodipodi:nodetypes="cssscc"/><path style="fill:#e7b46d;fill-opacity:1;fill-rule:evenodd;stroke:none;stroke-width:1px;stroke-linecap:butt;stroke-linejoin:miter;stroke-opacity:1" d="M137.507 242.747c7.762 9.548 9.372 37.36 10.776 40.48 1.403 3.121 13.273 6.357 19.94 6.357 6.668 0 12.593-7.903 12.242-9.853-.351-1.95-5.248-42.569-15.978-53.252-10.841-10.794-25.632 6.833-26.98 16.268z" inkscape:connector-curvature="0" sodipodi:nodetypes="cssssc"/><path style="fill:#a06d27;fill-opacity:1;fill-rule:evenodd;stroke:none;stroke-width:1px;stroke-linecap:butt;stroke-linejoin:miter;stroke-opacity:1" d="M164.172 281.793s3.468 11.271 2.312 13.005c-1.156 1.734-5.78-3.757-5.78-3.757s3.757-4.913 3.468-9.248z" inkscape:connector-curvature="0" sodipodi:nodetypes="cscc"/><path style="fill:#a06d27;fill-opacity:1;fill-rule:evenodd;stroke:none;stroke-width:1px;stroke-linecap:butt;stroke-linejoin:miter;stroke-opacity:1" d="M175.758 280.069s7.265 9.288 6.805 11.32c-.46 2.033-6.74-1.443-6.74-1.443s1.753-5.931-.065-9.877z" inkscape:connector-curvature="0" sodipodi:nodetypes="cscc"/><path style="fill:#a06d27;fill-opacity:1;fill-rule:evenodd;stroke:none;stroke-width:1px;stroke-linecap:butt;stroke-linejoin:miter;stroke-opacity:1" d="M180.51 273.085s8.873 7.768 8.8 9.851c-.073 2.083-6.892-.16-6.892-.16s.616-6.155-1.907-9.691z" inkscape:connector-curvature="0" sodipodi:nodetypes="cscc"/><path style="fill:#a06d27;fill-opacity:1;fill-rule:evenodd;stroke:none;stroke-width:1px;stroke-linecap:butt;stroke-linejoin:miter;stroke-opacity:1" d="M148.524 277.394s-7.266 9.289-6.805 11.321c.46 2.033 6.74-1.444 6.74-1.444s-1.753-5.931.065-9.877z" inkscape:connector-curvature="0" sodipodi:nodetypes="cscc"/><ellipse style="color:#000;display:inline;overflow:visible;visibility:visible;opacity:1;fill:#ecc88e;fill-opacity:1;fill-rule:nonzero;stroke:none;stroke-width:1;stroke-linecap:round;stroke-linejoin:round;stroke-miterlimit:4;stroke-dasharray:none;stroke-dashoffset:0;stroke-opacity:1;marker:none;enable-background:accumulate" cx="129.99998" cy="214.59991" rx="27.599688" ry="24.420666"/><ellipse style="color:#000;display:inline;overflow:visible;visibility:visible;opacity:1;fill:#fff;fill-opacity:1;fill-rule:nonzero;stroke:none;stroke-width:1;stroke-linecap:round;stroke-linejoin:round;stroke-miterlimit:4;stroke-dasharray:none;stroke-dashoffset:0;stroke-opacity:1;marker:none;enable-background:accumulate" cx="110.83749" cy="92.22934" rx="0.76633227" ry="0.7152434"/><path style="fill:#a06d27;fill-opacity:1;fill-rule:evenodd;stroke:none;stroke-width:1px;stroke-linecap:butt;stroke-linejoin:miter;stroke-opacity:1" d="M151.372 129.266c1.425 2.127 2.352 5.53 2.352 5.53s2.11.629 2.035-.185c-.074-.815-4.387-5.345-4.387-5.345z" inkscape:connector-curvature="0" sodipodi:nodetypes="ccsc"/><path style="fill:#edb566;fill-opacity:1;fill-rule:evenodd;stroke:none;stroke-width:1px;stroke-linecap:butt;stroke-linejoin:miter;stroke-opacity:1" d="M160.474 67.547c4.104-2.469 19.912-11.88 25.464-8.073 5.552 3.806 3.748 14.439-4.474 17.951-3.346 1.43-17.285-2.913-20.324-3.684-3.038-.772-.666-6.194-.666-6.194z" inkscape:connector-curvature="0" sodipodi:nodetypes="csssc"/><path style="fill:#a06d27;fill-opacity:1;fill-rule:evenodd;stroke:none;stroke-width:1px;stroke-linecap:butt;stroke-linejoin:miter;stroke-opacity:1" d="M165.29 73.431c-2.938 3.279-20.42 3.634-22.58-12.63 2.404 4.899 4.267 7.98 9.005 10.347 4.343 2.17 7.932 2.954 13.575 2.283z" inkscape:connector-curvature="0" sodipodi:nodetypes="ccsc"/><path style="fill:#f3cc97;fill-opacity:1;fill-rule:evenodd;stroke:none;stroke-width:1px;stroke-linecap:butt;stroke-linejoin:miter;stroke-opacity:1" d="M178.966 63.162c-3.753-2.08-15.794 4.646-12.774 7.874 2.255 2.41 6.33 3.076 10.704 4.296 3.228.9 7.276-7.65 2.07-12.17z" inkscape:connector-curvature="0" sodipodi:nodetypes="cssc"/><path style="color:#000;display:inline;overflow:visible;visibility:visible;opacity:1;fill:#a06d27;fill-opacity:1;fill-rule:nonzero;stroke:none;stroke-width:1;stroke-linecap:round;stroke-linejoin:round;stroke-miterlimit:4;stroke-dasharray:none;stroke-dashoffset:0;stroke-opacity:1;marker:none;enable-background:accumulate" d="M142.163 88.776c0 6.39 4.85 11.569 10.831 11.569 5.982 0 9.162-5.244 10.182-9.608 1.383-5.919 1.68-1.64-10.402-13.22-3.669-3.516-10.61 4.87-10.61 11.26z" inkscape:connector-curvature="0" sodipodi:nodetypes="sssss"/><path style="color:#000;display:inline;overflow:visible;visibility:visible;opacity:1;fill:#f7eade;fill-opacity:1;fill-rule:nonzero;stroke:none;stroke-width:1;stroke-linecap:round;stroke-linejoin:round;stroke-miterlimit:4;stroke-dasharray:none;stroke-dashoffset:0;stroke-opacity:1;marker:none;enable-background:accumulate" d="M142.163 89.923c0 5.756 4.895 10.422 10.933 10.422s9.944-4.482 10.422-10.218c.418-5.009 1.598.743-10.933-10.218-3.844-3.362-10.422 4.258-10.422 10.014z" inkscape:connector-curvature="0" sodipodi:nodetypes="sssss"/><path inkscape:connector-curvature="0" style="color:#000;display:inline;overflow:visible;visibility:visible;opacity:1;fill:url(#c);fill-opacity:1;fill-rule:nonzero;stroke:none;stroke-width:1;stroke-linecap:round;stroke-linejoin:round;stroke-miterlimit:4;stroke-dasharray:none;stroke-dashoffset:0;stroke-opacity:1;marker:none;enable-background:accumulate" d="M150.618 79.088c.699.038 1.366.297 1.967.822 2.79 2.441 4.872 4.02 6.463 5.108.108.484.179.978.18 1.482-.001 4.204-3.798 7.611-8.48 7.611-3.53-.003-7.04-2.702-8.419-5.763.828-4.518 4.915-9.444 8.29-9.26z"/><ellipse style="color:#000;display:inline;overflow:visible;visibility:visible;opacity:1;fill:#372a1e;fill-opacity:1;fill-rule:nonzero;stroke:none;stroke-width:1;stroke-linecap:round;stroke-linejoin:round;stroke-miterlimit:4;stroke-dasharray:none;stroke-dashoffset:0;stroke-opacity:1;marker:none;enable-background:accumulate" cx="-150.43973" cy="85.733521" rx="4.2914605" ry="4.0871053" transform="scale(-1 1)"/><ellipse style="color:#000;display:inline;overflow:visible;visibility:visible;opacity:1;fill:#fff;fill-opacity:1;fill-rule:nonzero;stroke:none;stroke-width:1;stroke-linecap:round;stroke-linejoin:round;stroke-miterlimit:4;stroke-dasharray:none;stroke-dashoffset:0;stroke-opacity:1;marker:none;enable-background:accumulate" cx="-148.60049" cy="89.105377" rx="1.5326644" ry="1.4304868" transform="scale(-1 1)"/><ellipse style="color:#000;display:inline;overflow:visible;visibility:visible;opacity:1;fill:#fff;fill-opacity:1;fill-rule:nonzero;stroke:none;stroke-width:1;stroke-linecap:round;stroke-linejoin:round;stroke-miterlimit:4;stroke-dasharray:none;stroke-dashoffset:0;stroke-opacity:1;marker:none;enable-background:accumulate" cx="-149.16251" cy="92.22934" rx="0.76633227" ry="0.7152434" transform="scale(-1 1)"/><path style="fill:#a06d27;fill-opacity:1;fill-rule:evenodd;stroke:none;stroke-width:1px;stroke-linecap:butt;stroke-linejoin:miter;stroke-opacity:1" d="M67.475 188.388s-7.585 9.03-7.196 11.077c.389 2.047 6.787-1.208 6.787-1.208s-1.546-5.989.41-9.869z" inkscape:connector-curvature="0" sodipodi:nodetypes="cscc"/></g></svg>