<!--Created with Inkscape (http://www.inkscape.org/)--><svg xmlns:dc="http://purl.org/dc/elements/1.1/" xmlns:cc="http://creativecommons.org/ns#" xmlns:rdf="http://www.w3.org/1999/02/22-rdf-syntax-ns#" xmlns="http://www.w3.org/2000/svg" xmlns:xlink="http://www.w3.org/1999/xlink" xmlns:sodipodi="http://sodipodi.sourceforge.net/DTD/sodipodi-0.dtd" xmlns:inkscape="http://www.inkscape.org/namespaces/inkscape" sodipodi:docname="lion_good.svg" inkscape:version="0.91 r13725" viewBox="0 0 260.00001 299.99999" height="300" width="260"><defs><linearGradient inkscape:collect="always" id="a"><stop style="stop-color:#ef7e13;stop-opacity:1" offset="0"/><stop style="stop-color:#f39e4d;stop-opacity:1" offset="1"/></linearGradient><linearGradient inkscape:collect="always" xlink:href="#a" id="b" x1="108.37969" y1="84.353638" x2="108.64919" y2="91.301712" gradientUnits="userSpaceOnUse"/><linearGradient inkscape:collect="always" xlink:href="#a" id="c" x1="151.55518" y1="86.192833" x2="152.23337" y2="90.484291" gradientUnits="userSpaceOnUse"/></defs><sodipodi:namedview inkscape:snap-global="false" inkscape:window-maximized="1" inkscape:window-y="-3" inkscape:window-x="-3" inkscape:window-height="1060" inkscape:window-width="1880" units="px" fit-margin-bottom="0" fit-margin-right="0" fit-margin-left="0" fit-margin-top="0" showgrid="false" inkscape:current-layer="layer1" inkscape:document-units="px" inkscape:cy="189.42199" inkscape:cx="-2.7567839" inkscape:zoom="1.730092" inkscape:pageshadow="2" inkscape:pageopacity="0.0" borderopacity="1.0" bordercolor="#666666" pagecolor="#ffffff"/><metadata><rdf:RDF><cc:Work><dc:format>image/svg+xml</dc:format><dc:type rdf:resource="http://purl.org/dc/dcmitype/StillImage"/><dc:title/><dc:date>2015</dc:date><dc:creator><cc:Agent><dc:title>Timothée Giet</dc:title></cc:Agent></dc:creator><cc:license rdf:resource="http://creativecommons.org/licenses/by-sa/4.0/"/></cc:Work><cc:License rdf:about="http://creativecommons.org/licenses/by-sa/4.0/"><cc:permits rdf:resource="http://creativecommons.org/ns#Reproduction"/><cc:permits rdf:resource="http://creativecommons.org/ns#Distribution"/><cc:requires rdf:resource="http://creativecommons.org/ns#Notice"/><cc:requires rdf:resource="http://creativecommons.org/ns#Attribution"/><cc:permits rdf:resource="http://creativecommons.org/ns#DerivativeWorks"/><cc:requires rdf:resource="http://creativecommons.org/ns#ShareAlike"/></cc:License></rdf:RDF></metadata><g inkscape:groupmode="layer" inkscape:label="Calque 1"><path style="fill:#a06d27;fill-opacity:1;fill-rule:evenodd;stroke:none;stroke-width:1px;stroke-linecap:butt;stroke-linejoin:miter;stroke-opacity:1" d="M36.775 134.032s-11.433 2.892-12.314 4.78c-.881 1.889 6.213 2.988 6.213 2.988s2.246-5.763 6.1-7.768z" inkscape:connector-curvature="0" sodipodi:nodetypes="cscc"/><path style="fill:#a06d27;fill-opacity:1;fill-rule:evenodd;stroke:none;stroke-width:1px;stroke-linecap:butt;stroke-linejoin:miter;stroke-opacity:1" d="M35.573 151.318s-8.413 8.264-8.221 10.339c.192 2.075 6.871-.555 6.871-.555s-.967-6.108 1.35-9.784z" inkscape:connector-curvature="0" sodipodi:nodetypes="cscc"/><path style="fill:#a06d27;fill-opacity:1;fill-rule:evenodd;stroke:none;stroke-width:1px;stroke-linecap:butt;stroke-linejoin:miter;stroke-opacity:1" d="M34.946 142.53s-10.258 5.817-10.607 7.872c-.35 2.054 6.782 1.234 6.782 1.234s.64-6.152 3.825-9.107z" inkscape:connector-curvature="0" sodipodi:nodetypes="cscc"/><path style="fill:#a06d27;fill-opacity:1;fill-rule:evenodd;stroke:none;stroke-width:1px;stroke-linecap:butt;stroke-linejoin:miter;stroke-opacity:1" d="M123.84 161.856c-14.714-12.261-58.038-23.994-66.6-24.642-6.634-.503-21.851-10.916-26.756-3.968-4.905 6.948-.838 28.081 2.432 31.76 3.27 3.678 11.225.937 13.677 2.572s37.593 17.834 51.04 18.074c9.434.168 26.206-23.796 26.206-23.796z" inkscape:connector-curvature="0" sodipodi:nodetypes="csssssc"/><path style="fill:#e7b46d;fill-opacity:1;fill-rule:evenodd;stroke:none;stroke-width:1px;stroke-linecap:butt;stroke-linejoin:miter;stroke-opacity:1" d="M123.84 161.856c-19.627-15.44-59.483-21.104-66.6-21.463-6.645-.336-19.54-12.361-24.444-5.413-4.905 6.948-.26 23.457 3.01 27.136 3.27 3.678 8.913.67 11.365 2.306 2.452 1.635 31.235 17.834 51.04 18.074 9.434.114 25.628-20.64 25.628-20.64z" inkscape:connector-curvature="0" sodipodi:nodetypes="csssssc"/><path style="fill:#a06d27;fill-opacity:1;fill-rule:evenodd;stroke:none;stroke-width:1px;stroke-linecap:butt;stroke-linejoin:miter;stroke-opacity:1" d="M224.209 134.032s11.432 2.892 12.314 4.78c.88 1.889-6.213 2.988-6.213 2.988s-2.247-5.763-6.101-7.768z" inkscape:connector-curvature="0" sodipodi:nodetypes="cscc"/><path style="fill:#a06d27;fill-opacity:1;fill-rule:evenodd;stroke:none;stroke-width:1px;stroke-linecap:butt;stroke-linejoin:miter;stroke-opacity:1" d="M225.41 151.318s8.413 8.264 8.221 10.339c-.191 2.075-6.871-.555-6.871-.555s.967-6.108-1.35-9.784z" inkscape:connector-curvature="0" sodipodi:nodetypes="cscc"/><path style="fill:#a06d27;fill-opacity:1;fill-rule:evenodd;stroke:none;stroke-width:1px;stroke-linecap:butt;stroke-linejoin:miter;stroke-opacity:1" d="M226.037 142.53s10.258 5.817 10.607 7.872c.35 2.054-6.782 1.234-6.782 1.234s-.64-6.152-3.825-9.107z" inkscape:connector-curvature="0" sodipodi:nodetypes="cscc"/><path style="fill:#a06d27;fill-opacity:1;fill-rule:evenodd;stroke:none;stroke-width:1px;stroke-linecap:butt;stroke-linejoin:miter;stroke-opacity:1" d="M137.144 161.856c14.714-12.261 58.037-23.994 66.6-24.642 6.634-.503 21.85-10.916 26.755-3.968 4.905 6.948.838 28.081-2.431 31.76-3.27 3.678-11.225.937-13.678 2.572-2.452 1.635-37.592 17.834-51.039 18.074-9.434.168-26.207-23.796-26.207-23.796z" inkscape:connector-curvature="0" sodipodi:nodetypes="csssssc"/><path style="fill:#e7b46d;fill-opacity:1;fill-rule:evenodd;stroke:none;stroke-width:1px;stroke-linecap:butt;stroke-linejoin:miter;stroke-opacity:1" d="M137.144 161.856c19.627-15.44 59.482-21.104 66.6-21.463 6.644-.336 19.539-12.361 24.443-5.413 4.905 6.948.26 23.457-3.01 27.136-3.269 3.678-8.912.67-11.365 2.306-2.452 1.635-31.234 17.834-51.039 18.074-9.435.114-25.629-20.64-25.629-20.64z" inkscape:connector-curvature="0" sodipodi:nodetypes="csssssc"/><path style="fill:#a06d27;fill-opacity:1;fill-rule:evenodd;stroke:none;stroke-width:1px;stroke-linecap:butt;stroke-linejoin:miter;stroke-opacity:1" d="M210.408 138.823s10.963-4.345 12.782-3.329c1.82 1.016-3.29 6.058-3.29 6.058s-5.193-3.358-9.492-2.729z" inkscape:connector-curvature="0" sodipodi:nodetypes="cscc"/><path style="color:#000;display:inline;overflow:visible;visibility:visible;opacity:1;fill:#a06d27;fill-opacity:1;fill-rule:nonzero;stroke:none;stroke-width:1;stroke-linecap:round;stroke-linejoin:round;stroke-miterlimit:4;stroke-dasharray:none;stroke-dashoffset:0;stroke-opacity:1;marker:none;enable-background:accumulate" d="M172.506 216.214c0 32.17-28.431 32.359-42.506 32.359s-42.506-1.52-42.506-32.359c0-30.838 19.03-54.358 42.506-54.358 23.475 0 42.506 22.19 42.506 54.358z" inkscape:connector-curvature="0" sodipodi:nodetypes="zzzzz"/><path style="color:#000;display:inline;overflow:visible;visibility:visible;opacity:1;fill:#e7b46d;fill-opacity:1;fill-rule:nonzero;stroke:none;stroke-width:1;stroke-linecap:round;stroke-linejoin:round;stroke-miterlimit:4;stroke-dasharray:none;stroke-dashoffset:0;stroke-opacity:1;marker:none;enable-background:accumulate" d="M168.5 212.737c0 31.563-25.752 31.749-38.5 31.749-12.748 0-38.5-1.491-38.5-31.749 0-30.257 17.238-53.333 38.5-53.333s38.5 21.771 38.5 53.333z" inkscape:connector-curvature="0" sodipodi:nodetypes="zzzzz"/><ellipse style="color:#000;display:inline;overflow:visible;visibility:visible;opacity:1;fill:#a85824;fill-opacity:1;fill-rule:nonzero;stroke:none;stroke-width:1;stroke-linecap:round;stroke-linejoin:round;stroke-miterlimit:4;stroke-dasharray:none;stroke-dashoffset:0;stroke-opacity:1;marker:none;enable-background:accumulate" cx="129.90639" cy="85.416031" rx="83.088066" ry="77.308029"/><ellipse style="color:#000;display:inline;overflow:visible;visibility:visible;opacity:1;fill:#e2884e;fill-opacity:1;fill-rule:nonzero;stroke:none;stroke-width:1;stroke-linecap:round;stroke-linejoin:round;stroke-miterlimit:4;stroke-dasharray:none;stroke-dashoffset:0;stroke-opacity:1;marker:none;enable-background:accumulate" cx="129.90639" cy="84.404526" rx="78.428925" ry="73.406502"/><path style="color:#000;display:inline;overflow:visible;visibility:visible;opacity:1;fill:#a06d27;fill-opacity:1;fill-rule:nonzero;stroke:none;stroke-width:1;stroke-linecap:round;stroke-linejoin:round;stroke-miterlimit:4;stroke-dasharray:none;stroke-dashoffset:0;stroke-opacity:1;marker:none;enable-background:accumulate" d="M174.118 101.002c-1.156 9.06 6.108 14.242-1.462 23.709-7.57 9.467-28.816 28.605-42.656 28.605s-35.573-17.899-43.643-27.366c-8.07-9.467-2.13-18.686-2.475-24.948-1.76-32.063 17.572-48.54 46.118-48.315 29.191.23 48.343 15.197 44.118 48.315z" inkscape:connector-curvature="0" sodipodi:nodetypes="sssssss"/><path style="fill:#a06d27;fill-opacity:1;fill-rule:evenodd;stroke:none;stroke-width:1px;stroke-linecap:butt;stroke-linejoin:miter;stroke-opacity:1" d="M96.72 64.174c-3.065-5.313-9.809-17.983-18.392-17.166-8.583.818-13.16 13.849-6.13 22.888 2.86 3.678 13.487 4.905 17.37 5.926 3.883 1.022 7.152-11.648 7.152-11.648z" inkscape:connector-curvature="0" sodipodi:nodetypes="csssc"/><path style="fill:#edb566;fill-opacity:1;fill-rule:evenodd;stroke:none;stroke-width:1px;stroke-linecap:butt;stroke-linejoin:miter;stroke-opacity:1" d="M97.655 69.572c-2.393-4.149-11.659-20.042-18.36-19.403-6.702.638-10.276 10.813-4.787 17.87 2.234 2.872 16.53 5.83 19.562 6.627 3.032.798 3.585-5.094 3.585-5.094z" inkscape:connector-curvature="0" sodipodi:nodetypes="csssc"/><path style="fill:#f3cc97;fill-opacity:1;fill-rule:evenodd;stroke:none;stroke-width:1px;stroke-linecap:butt;stroke-linejoin:miter;stroke-opacity:1" d="M83.605 56.774c4.292 0 11.564 11.719 7.357 13.078-3.14 1.015-7.027-.377-11.444-1.43-3.26-.777-2.656-10.218 4.087-11.648z" inkscape:connector-curvature="0" sodipodi:nodetypes="cssc"/><path style="color:#000;display:inline;overflow:visible;visibility:visible;opacity:1;fill:#e7b46d;fill-opacity:1;fill-rule:nonzero;stroke:none;stroke-width:1;stroke-linecap:round;stroke-linejoin:round;stroke-miterlimit:4;stroke-dasharray:none;stroke-dashoffset:0;stroke-opacity:1;marker:none;enable-background:accumulate" d="M171.646 101.352c-1.071 8.397 4.844 12.996-2.172 21.772-7.016 8.775-26.71 26.514-39.538 26.514-12.828 0-32.973-16.59-40.452-25.366-7.48-8.775-2.793-16.706-3.112-22.511-1.632-29.72 17.104-46.423 43.564-46.214 27.057.214 45.626 15.108 41.71 45.805z" inkscape:connector-curvature="0" sodipodi:nodetypes="sssssss"/><path style="fill:#a06d27;fill-opacity:1;fill-rule:evenodd;stroke:none;stroke-width:1px;stroke-linecap:butt;stroke-linejoin:miter;stroke-opacity:1" d="M163.28 64.174c3.065-5.313 9.809-17.983 18.392-17.166 8.583.818 13.16 13.849 6.13 22.888-2.86 3.678-13.487 4.905-17.37 5.926-3.883 1.022-7.152-11.648-7.152-11.648z" inkscape:connector-curvature="0" sodipodi:nodetypes="csssc"/><path style="fill:#edb566;fill-opacity:1;fill-rule:evenodd;stroke:none;stroke-width:1px;stroke-linecap:butt;stroke-linejoin:miter;stroke-opacity:1" d="M162.345 69.572c2.393-4.149 11.659-20.042 18.36-19.403 6.702.638 10.276 10.813 4.787 17.87-2.234 2.872-16.53 5.83-19.562 6.627-3.032.798-3.585-5.094-3.585-5.094z" inkscape:connector-curvature="0" sodipodi:nodetypes="csssc"/><path style="fill:#f3cc97;fill-opacity:1;fill-rule:evenodd;stroke:none;stroke-width:1px;stroke-linecap:butt;stroke-linejoin:miter;stroke-opacity:1" d="M176.395 56.774c-4.292 0-11.564 11.719-7.357 13.078 3.14 1.015 7.027-.377 11.444-1.43 3.26-.777 2.656-10.218-4.087-11.648z" inkscape:connector-curvature="0" sodipodi:nodetypes="cssc"/><path style="fill:#a06d27;fill-opacity:1;fill-rule:evenodd;stroke:none;stroke-width:1px;stroke-linecap:butt;stroke-linejoin:miter;stroke-opacity:1" d="M119.568 68.057c-1.954-3.945-18.706-8.962-25.136 6.13 3.627-4.076 6.246-6.547 11.444-7.56 4.766-.93 8.434-.726 13.692 1.43z" inkscape:connector-curvature="0" sodipodi:nodetypes="ccsc"/><path style="fill:#a06d27;fill-opacity:1;fill-rule:evenodd;stroke:none;stroke-width:1px;stroke-linecap:butt;stroke-linejoin:miter;stroke-opacity:1" d="M140.432 68.057c1.955-3.945 18.706-8.962 25.136 6.13-3.627-4.076-6.246-6.547-11.444-7.56-4.766-.93-8.434-.726-13.692 1.43z" inkscape:connector-curvature="0" sodipodi:nodetypes="ccsc"/><path style="color:#000;display:inline;overflow:visible;visibility:visible;opacity:1;fill:#a06d27;fill-opacity:1;fill-rule:nonzero;stroke:none;stroke-width:1;stroke-linecap:round;stroke-linejoin:round;stroke-miterlimit:4;stroke-dasharray:none;stroke-dashoffset:0;stroke-opacity:1;marker:none;enable-background:accumulate" d="M117.678 88.776c0 6.39-4.895 11.569-10.933 11.569-6.039 0-10.423-4.953-10.423-11.342s4.474-11.235 10.933-11.341c5.107-.084 10.423 4.725 10.423 11.114z" inkscape:connector-curvature="0" sodipodi:nodetypes="sssss"/><path style="color:#000;display:inline;overflow:visible;visibility:visible;opacity:1;fill:#f7eade;fill-opacity:1;fill-rule:nonzero;stroke:none;stroke-width:1;stroke-linecap:round;stroke-linejoin:round;stroke-miterlimit:4;stroke-dasharray:none;stroke-dashoffset:0;stroke-opacity:1;marker:none;enable-background:accumulate" d="M117.678 89.923c0 5.756-4.895 10.422-10.933 10.422-6.039 0-10.423-4.462-10.423-10.218s4.474-10.122 10.933-10.218c5.107-.075 10.423 4.258 10.423 10.014z" inkscape:connector-curvature="0" sodipodi:nodetypes="sssss"/><path style="color:#000;display:inline;overflow:visible;visibility:visible;opacity:1;fill:url(#b);fill-opacity:1;fill-rule:nonzero;stroke:none;stroke-width:1;stroke-linecap:round;stroke-linejoin:round;stroke-miterlimit:4;stroke-dasharray:none;stroke-dashoffset:0;stroke-opacity:1;marker:none;enable-background:accumulate" d="M107.255 79.91a13.245 13.245 0 0 0-3.098.412 8.48 7.612 0 0 0-3.543 6.178 8.48 7.612 0 0 0 8.48 7.611 8.48 7.612 0 0 0 8.342-6.279c-1.089-4.682-5.714-7.988-10.181-7.922z" inkscape:connector-curvature="0"/><ellipse style="color:#000;display:inline;overflow:visible;visibility:visible;opacity:1;fill:#372a1e;fill-opacity:1;fill-rule:nonzero;stroke:none;stroke-width:1;stroke-linecap:round;stroke-linejoin:round;stroke-miterlimit:4;stroke-dasharray:none;stroke-dashoffset:0;stroke-opacity:1;marker:none;enable-background:accumulate" cx="109.40115" cy="85.733521" rx="4.2914605" ry="4.0871053"/><ellipse style="color:#000;display:inline;overflow:visible;visibility:visible;opacity:1;fill:#fff;fill-opacity:1;fill-rule:nonzero;stroke:none;stroke-width:1;stroke-linecap:round;stroke-linejoin:round;stroke-miterlimit:4;stroke-dasharray:none;stroke-dashoffset:0;stroke-opacity:1;marker:none;enable-background:accumulate" cx="111.24037" cy="89.105377" rx="1.5326644" ry="1.4304868"/><path style="color:#000;display:inline;overflow:visible;visibility:visible;opacity:1;fill:#744f1c;fill-opacity:1;fill-rule:nonzero;stroke:none;stroke-width:1;stroke-linecap:round;stroke-linejoin:round;stroke-miterlimit:4;stroke-dasharray:none;stroke-dashoffset:0;stroke-opacity:1;marker:none;enable-background:accumulate" d="M114.156 110.27c-.452 2.507.988 2.178 3.033 4.625 2.046 2.446 8.064 10.397 12.356 10.397s10.52-8.068 12.453-10.397c1.933-2.33 3.934-2.434 3.613-4.336-.32-1.903-6.927-4.866-16.017-4.866s-15.172 3.1-15.438 4.577z" inkscape:connector-curvature="0" sodipodi:nodetypes="szzzzzs"/><path style="color:#000;display:inline;overflow:visible;visibility:visible;opacity:1;fill:#a06d27;fill-opacity:1;fill-rule:nonzero;stroke:none;stroke-width:1;stroke-linecap:round;stroke-linejoin:round;stroke-miterlimit:4;stroke-dasharray:none;stroke-dashoffset:0;stroke-opacity:1;marker:none;enable-background:accumulate" d="M142.322 88.776c0 6.39 4.895 11.569 10.933 11.569 6.039 0 10.423-4.953 10.423-11.342s-4.474-11.235-10.933-11.341c-5.107-.084-10.423 4.725-10.423 11.114z" inkscape:connector-curvature="0" sodipodi:nodetypes="sssss"/><path style="color:#000;display:inline;overflow:visible;visibility:visible;opacity:1;fill:#f7eade;fill-opacity:1;fill-rule:nonzero;stroke:none;stroke-width:1;stroke-linecap:round;stroke-linejoin:round;stroke-miterlimit:4;stroke-dasharray:none;stroke-dashoffset:0;stroke-opacity:1;marker:none;enable-background:accumulate" d="M142.322 89.923c0 5.756 4.895 10.422 10.933 10.422 6.039 0 10.423-4.462 10.423-10.218s-4.474-10.122-10.933-10.218c-5.107-.075-10.423 4.258-10.423 10.014z" inkscape:connector-curvature="0" sodipodi:nodetypes="sssss"/><path inkscape:connector-curvature="0" style="color:#000;display:inline;overflow:visible;visibility:visible;opacity:1;fill:url(#c);fill-opacity:1;fill-rule:nonzero;stroke:none;stroke-width:1;stroke-linecap:round;stroke-linejoin:round;stroke-miterlimit:4;stroke-dasharray:none;stroke-dashoffset:0;stroke-opacity:1;marker:none;enable-background:accumulate" d="M152.745 79.91c1.096.016 2.128.164 3.098.412a8.48 7.612 0 0 1 3.543 6.178 8.48 7.612 0 0 1-8.48 7.611 8.48 7.612 0 0 1-8.342-6.279c1.089-4.682 5.714-7.988 10.181-7.922z"/><ellipse style="color:#000;display:inline;overflow:visible;visibility:visible;opacity:1;fill:#372a1e;fill-opacity:1;fill-rule:nonzero;stroke:none;stroke-width:1;stroke-linecap:round;stroke-linejoin:round;stroke-miterlimit:4;stroke-dasharray:none;stroke-dashoffset:0;stroke-opacity:1;marker:none;enable-background:accumulate" cx="-150.59885" cy="85.733521" rx="4.2914605" ry="4.0871053" transform="scale(-1 1)"/><ellipse style="color:#000;display:inline;overflow:visible;visibility:visible;opacity:1;fill:#fff;fill-opacity:1;fill-rule:nonzero;stroke:none;stroke-width:1;stroke-linecap:round;stroke-linejoin:round;stroke-miterlimit:4;stroke-dasharray:none;stroke-dashoffset:0;stroke-opacity:1;marker:none;enable-background:accumulate" cx="-148.75963" cy="89.105377" rx="1.5326644" ry="1.4304868" transform="scale(-1 1)"/><path style="fill:#a06d27;fill-opacity:1;fill-rule:evenodd;stroke:none;stroke-width:1px;stroke-linecap:butt;stroke-linejoin:miter;stroke-opacity:1" d="M102.405 129.02c12.642 5.154 18.66 5.495 26.92 5.495 8.26 0 25.45-3.636 26.63-4.71 1.18-1.074-11.893 8.942-25.715 9.586-13.823.644-27.835-10.37-27.835-10.37z" inkscape:connector-curvature="0" sodipodi:nodetypes="csssc"/><path style="fill:#a06d27;fill-opacity:1;fill-rule:evenodd;stroke:none;stroke-width:1px;stroke-linecap:butt;stroke-linejoin:miter;stroke-opacity:1" d="M104.307 127.154c-2.457.722-5.347 2.745-5.347 2.745s-2.023-.867-1.445-1.445c.578-.578 6.792-1.3 6.792-1.3z" inkscape:connector-curvature="0" sodipodi:nodetypes="ccsc"/><path style="fill:#a06d27;fill-opacity:1;fill-rule:evenodd;stroke:none;stroke-width:1px;stroke-linecap:butt;stroke-linejoin:miter;stroke-opacity:1" d="M153.411 127.154c2.457.722 5.347 2.745 5.347 2.745s2.023-.867 1.445-1.445c-.578-.578-6.792-1.3-6.792-1.3z" inkscape:connector-curvature="0" sodipodi:nodetypes="ccsc"/><path style="fill:#a85824;fill-opacity:1;fill-rule:evenodd;stroke:none;stroke-width:1px;stroke-linecap:butt;stroke-linejoin:miter;stroke-opacity:1" d="M95.045 112.727c-25.547-1.734-50.79 4.624-58.09 17.34 16.728-16.473 51.266-14.81 58.09-17.34z" inkscape:connector-curvature="0" sodipodi:nodetypes="ccc"/><path style="fill:#a85824;fill-opacity:1;fill-rule:evenodd;stroke:none;stroke-width:1px;stroke-linecap:butt;stroke-linejoin:miter;stroke-opacity:1" d="M97.045 118.727c-21.734-1.734-43.21 4.624-49.42 17.34 14.231-16.473 43.615-14.81 49.42-17.34z" inkscape:connector-curvature="0" sodipodi:nodetypes="ccc"/><path style="fill:#a85824;fill-opacity:1;fill-rule:evenodd;stroke:none;stroke-width:1px;stroke-linecap:butt;stroke-linejoin:miter;stroke-opacity:1" d="M99.045 124.727c-16.778-1.734-33.355 4.624-38.149 17.34 10.986-16.473 33.668-14.81 38.149-17.34z" inkscape:connector-curvature="0" sodipodi:nodetypes="ccc"/><path style="fill:#a85824;fill-opacity:1;fill-rule:evenodd;stroke:none;stroke-width:1px;stroke-linecap:butt;stroke-linejoin:miter;stroke-opacity:1" d="M164.955 112.727c25.547-1.734 50.79 4.624 58.09 17.34-16.728-16.473-51.266-14.81-58.09-17.34z" inkscape:connector-curvature="0" sodipodi:nodetypes="ccc"/><path style="fill:#a85824;fill-opacity:1;fill-rule:evenodd;stroke:none;stroke-width:1px;stroke-linecap:butt;stroke-linejoin:miter;stroke-opacity:1" d="M162.955 118.727c21.734-1.734 43.21 4.624 49.42 17.34-14.231-16.473-43.615-14.81-49.42-17.34z" inkscape:connector-curvature="0" sodipodi:nodetypes="ccc"/><path style="fill:#a85824;fill-opacity:1;fill-rule:evenodd;stroke:none;stroke-width:1px;stroke-linecap:butt;stroke-linejoin:miter;stroke-opacity:1" d="M160.955 124.727c16.778-1.734 33.355 4.624 38.149 17.34-10.986-16.473-33.668-14.81-38.149-17.34z" inkscape:connector-curvature="0" sodipodi:nodetypes="ccc"/><path style="fill:#a06d27;fill-opacity:1;fill-rule:evenodd;stroke:none;stroke-width:1px;stroke-linecap:butt;stroke-linejoin:miter;stroke-opacity:1" d="M122.493 245.311c-7.357 17.575-6.25 36.297-7.885 39.567-1.635 3.27-15.123 8.174-22.888 8.174-7.766 0-16.348-8.583-15.94-10.627.409-2.043 1.746-34.095 15.572-54.668 4.867 9.484 31.14 17.554 31.14 17.554z" inkscape:connector-curvature="0" sodipodi:nodetypes="cssscc"/><path style="fill:#e7b46d;fill-opacity:1;fill-rule:evenodd;stroke:none;stroke-width:1px;stroke-linecap:butt;stroke-linejoin:miter;stroke-opacity:1" d="M122.493 242.747c-7.762 9.548-9.372 37.36-10.776 40.48-1.403 3.121-13.273 6.357-19.94 6.357-6.668 0-12.593-7.903-12.242-9.853.351-1.95 5.248-42.569 15.978-53.252 10.841-10.794 25.632 6.833 26.98 16.268z" inkscape:connector-curvature="0" sodipodi:nodetypes="cssssc"/><path style="fill:#a06d27;fill-opacity:1;fill-rule:evenodd;stroke:none;stroke-width:1px;stroke-linecap:butt;stroke-linejoin:miter;stroke-opacity:1" d="M95.828 281.793s-3.468 11.271-2.312 13.005c1.156 1.734 5.78-3.757 5.78-3.757s-3.757-4.913-3.468-9.248z" inkscape:connector-curvature="0" sodipodi:nodetypes="cscc"/><path style="fill:#a06d27;fill-opacity:1;fill-rule:evenodd;stroke:none;stroke-width:1px;stroke-linecap:butt;stroke-linejoin:miter;stroke-opacity:1" d="M84.242 280.069s-7.265 9.288-6.805 11.32c.46 2.033 6.74-1.443 6.74-1.443s-1.753-5.931.065-9.877z" inkscape:connector-curvature="0" sodipodi:nodetypes="cscc"/><path style="fill:#a06d27;fill-opacity:1;fill-rule:evenodd;stroke:none;stroke-width:1px;stroke-linecap:butt;stroke-linejoin:miter;stroke-opacity:1" d="M79.49 273.085s-8.873 7.768-8.8 9.851c.073 2.083 6.892-.16 6.892-.16s-.616-6.155 1.907-9.691z" inkscape:connector-curvature="0" sodipodi:nodetypes="cscc"/><path style="fill:#a06d27;fill-opacity:1;fill-rule:evenodd;stroke:none;stroke-width:1px;stroke-linecap:butt;stroke-linejoin:miter;stroke-opacity:1" d="M111.476 277.394s7.266 9.289 6.805 11.321c-.46 2.033-6.74-1.444-6.74-1.444s1.753-5.931-.065-9.877z" inkscape:connector-curvature="0" sodipodi:nodetypes="cscc"/><path style="fill:#a06d27;fill-opacity:1;fill-rule:evenodd;stroke:none;stroke-width:1px;stroke-linecap:butt;stroke-linejoin:miter;stroke-opacity:1" d="M137.507 245.311c7.357 17.575 6.25 36.297 7.885 39.567 1.635 3.27 15.123 8.174 22.888 8.174 7.766 0 16.348-8.583 15.94-10.627-.409-2.043-1.746-34.095-15.572-54.668-4.867 9.484-31.14 17.554-31.14 17.554z" inkscape:connector-curvature="0" sodipodi:nodetypes="cssscc"/><path style="fill:#e7b46d;fill-opacity:1;fill-rule:evenodd;stroke:none;stroke-width:1px;stroke-linecap:butt;stroke-linejoin:miter;stroke-opacity:1" d="M137.507 242.747c7.762 9.548 9.372 37.36 10.776 40.48 1.403 3.121 13.273 6.357 19.94 6.357 6.668 0 12.593-7.903 12.242-9.853-.351-1.95-5.248-42.569-15.978-53.252-10.841-10.794-25.632 6.833-26.98 16.268z" inkscape:connector-curvature="0" sodipodi:nodetypes="cssssc"/><path style="fill:#a06d27;fill-opacity:1;fill-rule:evenodd;stroke:none;stroke-width:1px;stroke-linecap:butt;stroke-linejoin:miter;stroke-opacity:1" d="M164.172 281.793s3.468 11.271 2.312 13.005c-1.156 1.734-5.78-3.757-5.78-3.757s3.757-4.913 3.468-9.248z" inkscape:connector-curvature="0" sodipodi:nodetypes="cscc"/><path style="fill:#a06d27;fill-opacity:1;fill-rule:evenodd;stroke:none;stroke-width:1px;stroke-linecap:butt;stroke-linejoin:miter;stroke-opacity:1" d="M175.758 280.069s7.265 9.288 6.805 11.32c-.46 2.033-6.74-1.443-6.74-1.443s1.753-5.931-.065-9.877z" inkscape:connector-curvature="0" sodipodi:nodetypes="cscc"/><path style="fill:#a06d27;fill-opacity:1;fill-rule:evenodd;stroke:none;stroke-width:1px;stroke-linecap:butt;stroke-linejoin:miter;stroke-opacity:1" d="M180.51 273.085s8.873 7.768 8.8 9.851c-.073 2.083-6.892-.16-6.892-.16s.616-6.155-1.907-9.691z" inkscape:connector-curvature="0" sodipodi:nodetypes="cscc"/><path style="fill:#a06d27;fill-opacity:1;fill-rule:evenodd;stroke:none;stroke-width:1px;stroke-linecap:butt;stroke-linejoin:miter;stroke-opacity:1" d="M148.524 277.394s-7.266 9.289-6.805 11.321c.46 2.033 6.74-1.444 6.74-1.444s-1.753-5.931.065-9.877z" inkscape:connector-curvature="0" sodipodi:nodetypes="cscc"/><ellipse style="color:#000;display:inline;overflow:visible;visibility:visible;opacity:1;fill:#ecc88e;fill-opacity:1;fill-rule:nonzero;stroke:none;stroke-width:1;stroke-linecap:round;stroke-linejoin:round;stroke-miterlimit:4;stroke-dasharray:none;stroke-dashoffset:0;stroke-opacity:1;marker:none;enable-background:accumulate" cx="130" cy="214.59991" rx="27.599688" ry="24.420666"/><path style="fill:#a06d27;fill-opacity:1;fill-rule:evenodd;stroke:none;stroke-width:1px;stroke-linecap:butt;stroke-linejoin:miter;stroke-opacity:1" d="M50.575 138.823s-10.962-4.345-12.782-3.329c-1.82 1.016 3.29 6.058 3.29 6.058s5.194-3.358 9.492-2.729z" inkscape:connector-curvature="0" sodipodi:nodetypes="cscc"/><ellipse style="color:#000;display:inline;overflow:visible;visibility:visible;opacity:1;fill:#fff;fill-opacity:1;fill-rule:nonzero;stroke:none;stroke-width:1;stroke-linecap:round;stroke-linejoin:round;stroke-miterlimit:4;stroke-dasharray:none;stroke-dashoffset:0;stroke-opacity:1;marker:none;enable-background:accumulate" cx="110.67837" cy="92.22934" rx="0.76633227" ry="0.7152434"/><ellipse style="color:#000;display:inline;overflow:visible;visibility:visible;opacity:1;fill:#fff;fill-opacity:1;fill-rule:nonzero;stroke:none;stroke-width:1;stroke-linecap:round;stroke-linejoin:round;stroke-miterlimit:4;stroke-dasharray:none;stroke-dashoffset:0;stroke-opacity:1;marker:none;enable-background:accumulate" cx="-149.24796" cy="92.22934" rx="0.76633227" ry="0.7152434" transform="scale(-1 1)"/></g></svg>