<?xml version="1.0" encoding="UTF-8" standalone="no"?>
<svg
   xmlns:dc="http://purl.org/dc/elements/1.1/"
   xmlns:cc="http://creativecommons.org/ns#"
   xmlns:rdf="http://www.w3.org/1999/02/22-rdf-syntax-ns#"
   xmlns:svg="http://www.w3.org/2000/svg"
   xmlns="http://www.w3.org/2000/svg"
   xmlns:xlink="http://www.w3.org/1999/xlink"
   width="260"
   height="300"
   viewBox="0 0 260.00001 299.99999"
   id="svg2"
   version="1.1">
  <defs
     id="defs4">
    <linearGradient
       id="linearGradient4157">
      <stop
         style="stop-color:#f4977a;stop-opacity:1"
         offset="0"
         id="stop4159" />
      <stop
         style="stop-color:#f7ac9a;stop-opacity:1"
         offset="1"
         id="stop4161" />
    </linearGradient>
    <linearGradient
       gradientUnits="userSpaceOnUse"
       y2="125.80976"
       x2="146.21541"
       y1="119.27039"
       x1="145.93193"
       id="linearGradient6629"
       xlink:href="#linearGradient4157"
       gradientTransform="matrix(1.2423158,0,0,1.2423158,-30.403699,22.076793)" />
    <linearGradient
       gradientUnits="userSpaceOnUse"
       y2="125.40105"
       x2="115.6545"
       y1="120.29217"
       x1="115.77972"
       id="linearGradient6621"
       xlink:href="#linearGradient4157"
       gradientTransform="matrix(1.2423158,0,0,1.2423158,-30.403699,22.076793)" />
  </defs>
  <metadata
     id="metadata7">
    <rdf:RDF>
      <cc:Work
         rdf:about="">
        <dc:format>image/svg+xml</dc:format>
        <dc:type
           rdf:resource="http://purl.org/dc/dcmitype/StillImage" />
        <dc:title></dc:title>
        <dc:date>2015</dc:date>
        <dc:creator>
          <cc:Agent>
            <dc:title>Timothée Giet</dc:title>
          </cc:Agent>
        </dc:creator>
        <cc:license
           rdf:resource="http://creativecommons.org/licenses/by-sa/4.0/" />
      </cc:Work>
      <cc:License
         rdf:about="http://creativecommons.org/licenses/by-sa/4.0/">
        <cc:permits
           rdf:resource="http://creativecommons.org/ns#Reproduction" />
        <cc:permits
           rdf:resource="http://creativecommons.org/ns#Distribution" />
        <cc:requires
           rdf:resource="http://creativecommons.org/ns#Notice" />
        <cc:requires
           rdf:resource="http://creativecommons.org/ns#Attribution" />
        <cc:permits
           rdf:resource="http://creativecommons.org/ns#DerivativeWorks" />
        <cc:requires
           rdf:resource="http://creativecommons.org/ns#ShareAlike" />
      </cc:License>
    </rdf:RDF>
  </metadata>
  <g
     id="layer1">
    <path
       id="path4928"
       d="m 187.29925,184.69731 c 0,0 3.37751,-162.717761 1.0155,-171.532876 -2.362,-8.815114 -9.13945,-7.108465 -11.6782,1.015495 -2.53873,8.12396 1e-5,164.932161 1e-5,164.932161 z"
       style="fill:#ad3e1c;fill-opacity:1;fill-rule:evenodd;stroke:none;stroke-width:1px;stroke-linecap:butt;stroke-linejoin:miter;stroke-opacity:1" />
    <path
       id="path4150-3"
       d="M 187.19471,183.4319 A 56.097351,49.496634 0 0 1 131.09735,232.92854 56.097351,49.496634 0 0 1 75,183.4319 a 56.097351,49.496634 0 0 1 56.09735,-49.49663 56.097351,49.496634 0 0 1 56.09736,49.49663 z"
       style="color:#000000;display:inline;overflow:visible;visibility:visible;opacity:1;fill:#ad3e1c;fill-opacity:1;fill-rule:nonzero;stroke:none;stroke-width:1;stroke-linecap:round;stroke-linejoin:round;stroke-miterlimit:4;stroke-dasharray:none;stroke-dashoffset:0;stroke-opacity:1;marker:none;enable-background:accumulate" />
    <ellipse
       ry="42.349514"
       rx="50.98122"
       cy="183.4319"
       cx="131.09735"
       id="path4150"
       style="color:#000000;display:inline;overflow:visible;visibility:visible;opacity:1;fill:#f05728;fill-opacity:1;fill-rule:nonzero;stroke:none;stroke-width:1;stroke-linecap:round;stroke-linejoin:round;stroke-miterlimit:4;stroke-dasharray:none;stroke-dashoffset:0;stroke-opacity:1;marker:none;enable-background:accumulate" />
    <path
       id="path4737"
       d="m 93.705272,173.92741 c 3.307061,-2.7153 9.863468,-4.96183 14.677118,-6.71014 2.79202,-1.01406 11.52444,1.7636 14.16617,8.31366 -0.86139,-6.30014 -7.78657,-17.10394 -12.53341,-14.55249 -4.79297,2.57625 -15.713364,9.49059 -16.309878,12.94897 z"
       style="display:inline;fill:#ad3e1c;fill-opacity:1;fill-rule:evenodd;stroke:none;stroke-width:1px;stroke-linecap:butt;stroke-linejoin:miter;stroke-opacity:1" />
    <path
       id="path4737-5"
       d="m 114.15819,216.19561 c 6.50619,-8.08141 27.56487,-7.93678 35.47304,-0.48687 -1.66898,-4.04149 -10.06504,-8.67513 -17.94517,-8.67513 -7.88014,0 -16.29518,4.45077 -17.52787,9.162 z"
       style="display:inline;fill:#ad3e1c;fill-opacity:1;fill-rule:evenodd;stroke:none;stroke-width:1px;stroke-linecap:butt;stroke-linejoin:miter;stroke-opacity:1" />
    <path
       id="path4787"
       d="m 111.99844,209.71397 c -0.65214,3.83253 -0.46873,3.14454 0.58902,6.77053 -0.0297,-2.86775 0.22517,-5.45681 1.71505,-6.83667 0.0852,-1.17746 -1.1854,-0.44881 -2.30407,0.0661 z"
       style="display:inline;fill:#ad3e1c;fill-opacity:1;fill-rule:evenodd;stroke:none;stroke-width:1px;stroke-linecap:butt;stroke-linejoin:miter;stroke-opacity:1" />
    <path
       id="path4787-8"
       d="m 151.19658,209.71397 c 0.65214,3.83253 0.46873,3.14454 -0.58902,6.77053 0.0297,-2.86775 -0.22517,-5.45681 -1.71505,-6.83667 -0.0852,-1.17746 1.1854,-0.44881 2.30407,0.0661 z"
       style="display:inline;fill:#ad3e1c;fill-opacity:1;fill-rule:evenodd;stroke:none;stroke-width:1px;stroke-linecap:butt;stroke-linejoin:miter;stroke-opacity:1" />
    <path
       id="path4737-6"
       d="m 93.65221,174.01279 c 3.198932,-3.2274 8.45688,-4.41542 14.50608,-7.73992 5.45982,-3.00059 11.74854,2.708 14.39027,9.25806 -0.11455,2.03871 -1.19496,14.24276 -16.17255,13.8213 -12.677687,-0.35676 -12.773612,-13.16363 -12.7238,-15.33944 z"
       style="display:inline;fill:#feece6;fill-opacity:1;fill-rule:evenodd;stroke:none;stroke-width:1px;stroke-linecap:butt;stroke-linejoin:miter;stroke-opacity:1" />
    <path
       id="path4923"
       d="m 111.28645,165.45266 c -1.0525,0.002 -2.10391,0.2575 -3.12762,0.82011 -1.46958,0.80764 -2.89064,1.48593 -4.24863,2.10127 -1.80877,4.86244 0.21232,10.92344 6.59253,11.67583 5.23997,0.61791 9.32569,-2.85928 10.89695,-6.90796 -2.39447,-4.27933 -6.25067,-7.69699 -10.11323,-7.68925 z"
       style="display:inline;fill:url(#linearGradient6621);fill-opacity:1;fill-rule:evenodd;stroke:none;stroke-width:1px;stroke-linecap:butt;stroke-linejoin:miter;stroke-opacity:1" />
    <path
       id="path4925"
       d="m 111.78143,165.49148 a 4.7705986,4.8104982 0 0 0 -2.83888,4.39177 4.7705986,4.8104982 0 0 0 4.7703,4.80913 4.7705986,4.8104982 0 0 0 4.7703,-4.80913 4.7705986,4.8104982 0 0 0 -0.0679,-0.79829 c -1.96879,-2.04468 -4.28786,-3.42322 -6.63378,-3.59348 z"
       style="color:#000000;display:inline;overflow:visible;visibility:visible;opacity:1;fill:#2a2a2a;fill-opacity:1;fill-rule:nonzero;stroke:none;stroke-width:1;stroke-linecap:round;stroke-linejoin:round;stroke-miterlimit:4;stroke-dasharray:none;stroke-dashoffset:0;stroke-opacity:1;marker:none;enable-background:accumulate" />
    <ellipse
       ry="2.0348771"
       rx="2.2070041"
       cy="169.60493"
       cx="108.43443"
       id="path4944"
       style="color:#000000;display:inline;overflow:visible;visibility:visible;opacity:1;fill:#f3f3f3;fill-opacity:1;fill-rule:nonzero;stroke:none;stroke-width:1;stroke-linecap:round;stroke-linejoin:round;stroke-miterlimit:4;stroke-dasharray:none;stroke-dashoffset:0;stroke-opacity:1;marker:none;enable-background:accumulate" />
    <ellipse
       ry="1.1089636"
       rx="1.202769"
       cy="174.1953"
       cx="108.49656"
       id="path4944-8"
       style="color:#000000;display:inline;overflow:visible;visibility:visible;opacity:1;fill:#f3f3f3;fill-opacity:1;fill-rule:nonzero;stroke:none;stroke-width:1;stroke-linecap:round;stroke-linejoin:round;stroke-miterlimit:4;stroke-dasharray:none;stroke-dashoffset:0;stroke-opacity:1;marker:none;enable-background:accumulate" />
    <path
       id="path4737-8"
       d="m 169.69865,173.92741 c -3.30706,-2.7153 -9.86346,-4.96183 -14.67711,-6.71014 -2.79202,-1.01406 -11.52445,1.7636 -14.16617,8.31366 0.86138,-6.30014 7.78656,-17.10394 12.5334,-14.55249 4.79298,2.57625 15.71337,9.49059 16.30988,12.94897 z"
       style="display:inline;fill:#ad3e1c;fill-opacity:1;fill-rule:evenodd;stroke:none;stroke-width:1px;stroke-linecap:butt;stroke-linejoin:miter;stroke-opacity:1" />
    <path
       id="path4737-6-9"
       d="m 169.75171,174.01279 c -3.19892,-3.2274 -8.45688,-4.41542 -14.50607,-7.73992 -5.45982,-3.00059 -11.74855,2.708 -14.39027,9.25806 0.11454,2.03871 1.19496,14.24276 16.17254,13.8213 12.67769,-0.35676 12.77362,-13.16363 12.7238,-15.33944 z"
       style="display:inline;fill:#feeae6;fill-opacity:1;fill-rule:evenodd;stroke:none;stroke-width:1px;stroke-linecap:butt;stroke-linejoin:miter;stroke-opacity:1" />
    <path
       id="path4923-2"
       d="m 152.11747,165.45266 c 1.05251,0.002 2.10391,0.2575 3.12763,0.82011 1.46958,0.80764 2.89064,1.48593 4.24862,2.10127 1.80878,4.86244 -0.21231,10.92344 -6.59252,11.67583 -5.23998,0.61791 -9.32569,-2.85928 -10.89695,-6.90796 2.39446,-4.27933 6.25066,-7.69699 10.11322,-7.68925 z"
       style="display:inline;fill:url(#linearGradient6629);fill-opacity:1;fill-rule:evenodd;stroke:none;stroke-width:1px;stroke-linecap:butt;stroke-linejoin:miter;stroke-opacity:1" />
    <path
       id="path4925-6"
       d="m 151.6225,165.49148 a 4.7705986,4.8104982 0 0 1 2.83888,4.39177 4.7705986,4.8104982 0 0 1 -4.7703,4.80913 4.7705986,4.8104982 0 0 1 -4.77031,-4.80913 4.7705986,4.8104982 0 0 1 0.068,-0.79829 c 1.9688,-2.04468 4.28787,-3.42322 6.63378,-3.59348 z"
       style="color:#000000;display:inline;overflow:visible;visibility:visible;opacity:1;fill:#2a2a2a;fill-opacity:1;fill-rule:nonzero;stroke:none;stroke-width:1;stroke-linecap:round;stroke-linejoin:round;stroke-miterlimit:4;stroke-dasharray:none;stroke-dashoffset:0;stroke-opacity:1;marker:none;enable-background:accumulate" />
    <ellipse
       transform="scale(-1,1)"
       ry="2.0348771"
       rx="2.2070041"
       cy="169.60493"
       cx="-154.96948"
       id="path4944-6"
       style="color:#000000;display:inline;overflow:visible;visibility:visible;opacity:1;fill:#f3f3f3;fill-opacity:1;fill-rule:nonzero;stroke:none;stroke-width:1;stroke-linecap:round;stroke-linejoin:round;stroke-miterlimit:4;stroke-dasharray:none;stroke-dashoffset:0;stroke-opacity:1;marker:none;enable-background:accumulate" />
    <ellipse
       transform="scale(-1,1)"
       ry="1.1089636"
       rx="1.202769"
       cy="174.1953"
       cx="-154.90735"
       id="path4944-8-4"
       style="color:#000000;display:inline;overflow:visible;visibility:visible;opacity:1;fill:#f3f3f3;fill-opacity:1;fill-rule:nonzero;stroke:none;stroke-width:1;stroke-linecap:round;stroke-linejoin:round;stroke-miterlimit:4;stroke-dasharray:none;stroke-dashoffset:0;stroke-opacity:1;marker:none;enable-background:accumulate" />
    <path
       id="path4930"
       d="m 187.82585,12.34114 c 10.73379,24.006087 72.37866,34.142426 67.75843,78.192692 -5.3061,-40.471285 -58.71049,-40.504555 -66.76178,-52.613735"
       style="fill:#ad3e1c;fill-opacity:1;fill-rule:evenodd;stroke:none;stroke-width:1px;stroke-linecap:butt;stroke-linejoin:miter;stroke-opacity:1" />
  </g>
</svg>
