<!--Created with Inkscape (http://www.inkscape.org/)--><svg xmlns:dc="http://purl.org/dc/elements/1.1/" xmlns:cc="http://creativecommons.org/ns#" xmlns:rdf="http://www.w3.org/1999/02/22-rdf-syntax-ns#" xmlns="http://www.w3.org/2000/svg" xmlns:sodipodi="http://sodipodi.sourceforge.net/DTD/sodipodi-0.dtd" xmlns:inkscape="http://www.inkscape.org/namespaces/inkscape" width="260" height="300" viewBox="0 0 260 300.00001" inkscape:version="0.91 r13725" sodipodi:docname="star_good.svg"><sodipodi:namedview pagecolor="#ffffff" bordercolor="#666666" borderopacity="1.0" inkscape:pageopacity="0.0" inkscape:pageshadow="2" inkscape:zoom="1" inkscape:cx="-178.21002" inkscape:cy="181.40312" inkscape:document-units="px" inkscape:current-layer="g8587" showgrid="false" inkscape:window-width="1870" inkscape:window-height="1047" inkscape:window-x="0" inkscape:window-y="0" inkscape:window-maximized="0" inkscape:snap-object-midpoints="false" inkscape:snap-center="false" inkscape:snap-bbox="true" units="px" fit-margin-top="4" fit-margin-right="4" fit-margin-bottom="4" fit-margin-left="4"/><metadata><rdf:RDF><cc:Work><dc:format>image/svg+xml</dc:format><dc:type rdf:resource="http://purl.org/dc/dcmitype/StillImage"/><dc:title/><dc:date>2015</dc:date><dc:creator><cc:Agent><dc:title>Timothée Giet</dc:title></cc:Agent></dc:creator><cc:license rdf:resource="http://creativecommons.org/licenses/by-sa/4.0/"/></cc:Work><cc:License rdf:about="http://creativecommons.org/licenses/by-sa/4.0/"><cc:permits rdf:resource="http://creativecommons.org/ns#Reproduction"/><cc:permits rdf:resource="http://creativecommons.org/ns#Distribution"/><cc:requires rdf:resource="http://creativecommons.org/ns#Notice"/><cc:requires rdf:resource="http://creativecommons.org/ns#Attribution"/><cc:permits rdf:resource="http://creativecommons.org/ns#DerivativeWorks"/><cc:requires rdf:resource="http://creativecommons.org/ns#ShareAlike"/></cc:License></rdf:RDF></metadata><g inkscape:label="Layer 1" inkscape:groupmode="layer"><path style="opacity:1;fill:#c36e3d;fill-opacity:1;fill-rule:nonzero;stroke:none;stroke-opacity:1" d="M230.113 570.217c-17.953 13.04-81.27-10.57-88.13 10.533-6.86 21.102 58.238 39.235 65.092 60.34 6.854 21.104-35.166 74.026-17.216 87.071 17.95 13.045 55.312-43.263 77.5-43.26h.006c22.19-.003 59.552 56.305 77.502 43.26 17.95-13.045-24.07-65.968-17.217-87.072 6.855-21.104 71.952-39.237 65.092-60.34-6.86-21.102-70.177 2.508-88.13-10.533-17.954-13.04-15.036-80.554-37.184-79.506-22.147 1.048-19.641 66.67-37.314 79.507z" inkscape:connector-curvature="0" sodipodi:nodetypes="ssssccsssscs" transform="rotate(5.759 4810.023 -1013.526)"/><path style="opacity:1;fill:#ecb574;fill-opacity:1;fill-rule:nonzero;stroke:none;stroke-opacity:1" d="M233.066 573.408c-16.637 12.084-75.31-9.794-81.667 9.761-6.357 19.555 53.967 36.358 60.318 55.914 6.352 19.557-32.586 68.598-15.953 80.686 16.634 12.088 51.255-40.09 71.817-40.087h.004c20.562-.003 55.184 52.175 71.817 40.087 16.634-12.088-22.304-61.13-15.953-80.686 6.352-19.557 66.675-36.36 60.318-55.914-6.356-19.555-65.03 2.323-81.667-9.76-16.637-12.085-13.933-74.647-34.456-73.676-20.523.97-18.201 61.78-34.578 73.675z" inkscape:connector-curvature="0" sodipodi:nodetypes="ssssccsssscs" transform="rotate(5.759 4810.023 -1013.526)"/><path style="fill:#c36e3d;fill-opacity:1;fill-rule:evenodd;stroke:none;stroke-width:1px;stroke-linecap:butt;stroke-linejoin:miter;stroke-opacity:1" d="M230.374 606.502c5.643-13.62 21.437-9.884 25.37-.334-.9-7.027-7.003-11.278-13.345-11.18-6.343.1-11.334 4.566-12.025 11.514z" inkscape:connector-curvature="0" sodipodi:nodetypes="ccsc" transform="rotate(5.759 4810.023 -1013.526)"/><path style="fill:#c36e3d;fill-opacity:1;fill-rule:evenodd;stroke:none;stroke-width:1px;stroke-linecap:butt;stroke-linejoin:miter;stroke-opacity:1" d="M303.397 607.126c-5.41-13.714-21.265-10.249-25.36-.768 1.02-7.01 7.194-11.156 13.534-10.949 6.34.207 11.253 4.758 11.826 11.717z" inkscape:connector-curvature="0" sodipodi:nodetypes="ccsc" transform="rotate(5.759 4810.023 -1013.526)"/><path style="fill:#c36e3d;fill-opacity:1;fill-rule:evenodd;stroke:none;stroke-width:1px;stroke-linecap:butt;stroke-linejoin:miter;stroke-opacity:1" d="M242.858 628.61c11.519 17.123 40.337 13.277 47.775 1.446-3.502 14.245-13.559 20.789-25.02 20.229-11.463-.56-18.975-9.107-22.755-21.675z" inkscape:connector-curvature="0" sodipodi:nodetypes="cczcc" transform="rotate(5.759 4810.023 -1013.526)"/><path style="fill:#c36e3d;fill-opacity:1;fill-rule:evenodd;stroke:none;stroke-width:1px;stroke-linecap:butt;stroke-linejoin:miter;stroke-opacity:1" d="M245.016 627.179c-4.067 1.49-3.3 1.286-6.222 4.315 2.757-1.615 5.402-2.801 7.56-2.123 1.186-.57-.221-1.395-1.338-2.192z" inkscape:connector-curvature="0" sodipodi:nodetypes="cccc" transform="rotate(5.759 4810.023 -1013.526)"/><path style="fill:#c36e3d;fill-opacity:1;fill-rule:evenodd;stroke:none;stroke-width:1px;stroke-linecap:butt;stroke-linejoin:miter;stroke-opacity:1" d="M288.954 628.254c4.041 1.56 3.278 1.343 6.147 4.421-2.728-1.662-5.353-2.893-7.523-2.252-1.176-.59.246-1.39 1.376-2.169z" inkscape:connector-curvature="0" sodipodi:nodetypes="cccc" transform="rotate(5.759 4810.023 -1013.526)"/></g></svg>