<!--Created with Inkscape (http://www.inkscape.org/)--><svg xmlns:dc="http://purl.org/dc/elements/1.1/" xmlns:cc="http://creativecommons.org/ns#" xmlns:rdf="http://www.w3.org/1999/02/22-rdf-syntax-ns#" xmlns="http://www.w3.org/2000/svg" xmlns:sodipodi="http://sodipodi.sourceforge.net/DTD/sodipodi-0.dtd" xmlns:inkscape="http://www.inkscape.org/namespaces/inkscape" width="100" height="100" sodipodi:version="0.32" inkscape:version="0.91 r13725" version="1.0" sodipodi:docname="memory-math-add-minus-mult-div.svg"><sodipodi:namedview pagecolor="#ffffff" bordercolor="#666666" borderopacity="1.0" inkscape:pageopacity="0.0" inkscape:pageshadow="2" inkscape:zoom="6.0595767" inkscape:cx="24.199969" inkscape:cy="37.816121" inkscape:document-units="px" inkscape:current-layer="layer1" width="100px" height="100px" inkscape:window-width="1880" inkscape:window-height="1060" inkscape:window-x="-3" inkscape:window-y="-3" showgrid="false" inkscape:window-maximized="1"/><metadata><rdf:RDF><cc:Work><dc:format>image/svg+xml</dc:format><dc:type rdf:resource="http://purl.org/dc/dcmitype/StillImage"/><dc:title/><dc:date>2015</dc:date><dc:creator><cc:Agent><dc:title>Timothée Giet</dc:title></cc:Agent></dc:creator><cc:license rdf:resource="http://creativecommons.org/licenses/by-sa/4.0/"/></cc:Work><cc:License rdf:about="http://creativecommons.org/licenses/by-sa/4.0/"><cc:permits rdf:resource="http://creativecommons.org/ns#Reproduction"/><cc:permits rdf:resource="http://creativecommons.org/ns#Distribution"/><cc:requires rdf:resource="http://creativecommons.org/ns#Notice"/><cc:requires rdf:resource="http://creativecommons.org/ns#Attribution"/><cc:permits rdf:resource="http://creativecommons.org/ns#DerivativeWorks"/><cc:requires rdf:resource="http://creativecommons.org/ns#ShareAlike"/></cc:License></rdf:RDF></metadata><g inkscape:label="Calque 1" inkscape:groupmode="layer"><rect style="color:#000;clip-rule:nonzero;display:inline;overflow:visible;visibility:visible;opacity:1;isolation:auto;mix-blend-mode:normal;color-interpolation:sRGB;color-interpolation-filters:linearRGB;solid-color:#000;solid-opacity:1;fill:#315793;fill-opacity:1;fill-rule:nonzero;stroke:none;stroke-width:1.18700004;stroke-linecap:butt;stroke-linejoin:miter;stroke-miterlimit:4;stroke-dasharray:none;stroke-dashoffset:0;stroke-opacity:1;marker:none;color-rendering:auto;image-rendering:auto;shape-rendering:auto;text-rendering:auto;enable-background:accumulate" width="45.734158" height="63.444962" x="51.724503" y="34.605618" ry="6.2731266"/><rect style="color:#000;clip-rule:nonzero;display:inline;overflow:visible;visibility:visible;opacity:1;isolation:auto;mix-blend-mode:normal;color-interpolation:sRGB;color-interpolation-filters:linearRGB;solid-color:#000;solid-opacity:1;fill:#aac2e7;fill-opacity:1;fill-rule:nonzero;stroke:none;stroke-width:1.18700004;stroke-linecap:butt;stroke-linejoin:miter;stroke-miterlimit:4;stroke-dasharray:none;stroke-dashoffset:0;stroke-opacity:1;marker:none;color-rendering:auto;image-rendering:auto;shape-rendering:auto;text-rendering:auto;enable-background:accumulate" width="42" height="60.410957" x="53.591583" y="36.12262" ry="5.9731393"/><rect style="color:#000;clip-rule:nonzero;display:inline;overflow:visible;visibility:visible;opacity:1;isolation:auto;mix-blend-mode:normal;color-interpolation:sRGB;color-interpolation-filters:linearRGB;solid-color:#000;solid-opacity:1;fill:#315793;fill-opacity:1;fill-rule:nonzero;stroke:none;stroke-width:1.18700004;stroke-linecap:butt;stroke-linejoin:miter;stroke-miterlimit:4;stroke-dasharray:none;stroke-dashoffset:0;stroke-opacity:1;marker:none;color-rendering:auto;image-rendering:auto;shape-rendering:auto;text-rendering:auto;enable-background:accumulate" width="45.734158" height="63.444962" x="2.5413461" y="34.605618" ry="6.2731266"/><rect style="color:#000;clip-rule:nonzero;display:inline;overflow:visible;visibility:visible;opacity:1;isolation:auto;mix-blend-mode:normal;color-interpolation:sRGB;color-interpolation-filters:linearRGB;solid-color:#000;solid-opacity:1;fill:#3771c8;fill-opacity:1;fill-rule:nonzero;stroke:none;stroke-width:1.18700004;stroke-linecap:butt;stroke-linejoin:miter;stroke-miterlimit:4;stroke-dasharray:none;stroke-dashoffset:0;stroke-opacity:1;marker:none;color-rendering:auto;image-rendering:auto;shape-rendering:auto;text-rendering:auto;enable-background:accumulate" width="42" height="60.410957" x="4.4084249" y="36.12262" ry="5.9731393"/><path style="color:#000;clip-rule:nonzero;display:inline;overflow:visible;visibility:visible;opacity:1;isolation:auto;mix-blend-mode:normal;color-interpolation:sRGB;color-interpolation-filters:linearRGB;solid-color:#000;solid-opacity:1;fill:#ebf1fa;fill-opacity:1;fill-rule:nonzero;stroke:none;stroke-width:1.18700004;stroke-linecap:butt;stroke-linejoin:miter;stroke-miterlimit:4;stroke-dasharray:none;stroke-dashoffset:0;stroke-opacity:1;marker:none;color-rendering:auto;image-rendering:auto;shape-rendering:auto;text-rendering:auto;enable-background:accumulate" sodipodi:type="arc" sodipodi:cx="25.408415" sodipodi:cy="66.32811" sodipodi:rx="17.540121" sodipodi:ry="17.540121" sodipodi:start="0.14344896" sodipodi:end="0.14048923" sodipodi:open="true" d="M42.768 68.836A17.54 17.54 0 0 1 22.914 83.69a17.54 17.54 0 0 1-14.87-19.844 17.54 17.54 0 0 1 19.833-14.883 17.54 17.54 0 0 1 14.899 19.821"/><path style="fill:#6f79b9;fill-opacity:1;fill-rule:evenodd;stroke:none;stroke-width:1px;stroke-linecap:butt;stroke-linejoin:miter;stroke-opacity:1" d="m31.978 59.89-4.402 4.27s-3.71-.79-3.744 2.365c-.046 4.146 4.506 3.208 4.073 2.627-.132-.176-1.822-1.3-2.43-2.233-.419-.641 5.276-2.628 8.145-3.613 0 0 2.71 10.61-5.321 12.284-11.474 2.394-14.728-10.098-8.557-16.201 2.904-2.872 7.637-3.605 12.236.5z" inkscape:connector-curvature="0" sodipodi:nodetypes="ccssscssc"/><path style="color:#000;clip-rule:nonzero;display:inline;overflow:visible;visibility:visible;opacity:1;isolation:auto;mix-blend-mode:normal;color-interpolation:sRGB;color-interpolation-filters:linearRGB;solid-color:#000;solid-opacity:1;fill:#ead952;fill-opacity:1;fill-rule:nonzero;stroke:none;stroke-width:1.18700004;stroke-linecap:butt;stroke-linejoin:miter;stroke-miterlimit:4;stroke-dasharray:none;stroke-dashoffset:0;stroke-opacity:1;marker:none;color-rendering:auto;image-rendering:auto;shape-rendering:auto;text-rendering:auto;enable-background:accumulate" d="M24.954 50.568A15.766 15.766 0 0 0 9.801 64.097a15.766 15.766 0 0 0 13.365 17.837 15.766 15.766 0 0 0 17.847-13.352l.007-.046a15.766 15.766 0 0 0-13.393-17.817 15.766 15.766 0 0 0-2.673-.15zm.11 3.809a11.956 11.956 0 0 1 2.028.114 11.956 11.956 0 0 1 10.155 13.511l-.005.036a11.956 11.956 0 0 1-13.534 10.125 11.956 11.956 0 0 1-10.135-13.527 11.956 11.956 0 0 1 11.49-10.26z" inkscape:connector-curvature="0"/><rect style="color:#000;clip-rule:nonzero;display:inline;overflow:visible;visibility:visible;opacity:1;isolation:auto;mix-blend-mode:normal;color-interpolation:sRGB;color-interpolation-filters:linearRGB;solid-color:#000;solid-opacity:1;fill:#ebf1f9;fill-opacity:1;fill-rule:nonzero;stroke:none;stroke-width:1.18700004;stroke-linecap:butt;stroke-linejoin:miter;stroke-miterlimit:4;stroke-dasharray:none;stroke-dashoffset:0;stroke-opacity:1;marker:none;color-rendering:auto;image-rendering:auto;shape-rendering:auto;text-rendering:auto;enable-background:accumulate" width="38.369385" height="56.798424" x="55.406891" y="37.928886" ry="5.6159496"/><path style="display:inline;fill:#8d2626;fill-opacity:1;fill-rule:evenodd;stroke:none;stroke-width:1px;stroke-linecap:butt;stroke-linejoin:miter;stroke-opacity:1" d="M64.981 64.014c-1.526.756-1.487 4.663-1.072 5.147.414.483 19.971.633 20.62.369.65-.264 1.277-4.872.86-5.247-.418-.375-20.408-.27-20.408-.27z" inkscape:connector-curvature="0" sodipodi:nodetypes="sssss" transform="translate(-6.146 -16.647)"/><path style="display:inline;fill:#8d2626;fill-opacity:1;fill-rule:evenodd;stroke:none;stroke-width:1px;stroke-linecap:butt;stroke-linejoin:miter;stroke-opacity:1" d="M71.777 76.44c.756 1.527 4.664 1.488 5.147 1.074.483-.415.633-19.972.37-20.622-.264-.649-4.873-1.275-5.248-.858-.375.417-.27 20.407-.27 20.407z" inkscape:connector-curvature="0" sodipodi:nodetypes="sssss" transform="translate(-6.146 -16.647)"/><path inkscape:connector-curvature="0" style="display:inline;fill:#e63232;fill-opacity:1;fill-rule:evenodd;stroke:none;stroke-width:1px;stroke-linecap:butt;stroke-linejoin:miter;stroke-opacity:1" d="M73.376 57.23c-.352.019-.609.072-.676.163-.116.158-.162 3.608-.184 7.346l-6.445.002c-1.343.544-1.171 3.354-.807 3.701.155.148 3.532.243 7.239.3-.001 3.097.002 6.609.002 6.609.543 1.343 3.353 1.173 3.7.808.15-.157.245-3.61.301-7.377 3.582.02 6.837.004 7.073-.074.571-.19.816-3.502.449-3.772-.16-.116-3.683-.164-7.48-.185.017-3.508 0-6.674-.077-6.906-.142-.429-2.041-.674-3.095-.616z" transform="translate(-6.146 -16.647)"/><path sodipodi:nodetypes="sssss" inkscape:connector-curvature="0" d="M59.51 75.512c-1.526.756-2.623 4.664-2.209 5.148.415.483 19.517.632 20.167.369.65-.264 2.867-4.872 2.45-5.247-.417-.375-20.407-.27-20.407-.27z" style="display:inline;fill:#8d2626;fill-opacity:1;fill-rule:evenodd;stroke:none;stroke-width:1px;stroke-linecap:butt;stroke-linejoin:miter;stroke-opacity:1" transform="translate(-.145 -.146)"/><path sodipodi:nodetypes="sssss" inkscape:connector-curvature="0" d="M60.6 76.304c-1.342.543-2.308 3.353-1.943 3.7.364.348 17.174.455 17.745.265.572-.19 2.524-3.502 2.157-3.771-.368-.27-17.958-.194-17.958-.194z" style="display:inline;fill:#e63232;fill-opacity:1;fill-rule:evenodd;stroke:none;stroke-width:1px;stroke-linecap:butt;stroke-linejoin:miter;stroke-opacity:1" transform="translate(-.145 -.146)"/><path sodipodi:nodetypes="sssss" inkscape:connector-curvature="0" d="M73.804 69.133c-.545 1.614 2.247 4.35 2.881 4.398.635.05 14.57-13.674 14.843-14.32.272-.645-2.543-4.347-3.103-4.317-.56.03-14.62 14.24-14.62 14.24z" style="display:inline;fill:#8d2626;fill-opacity:1;fill-rule:evenodd;stroke:none;stroke-width:1px;stroke-linecap:butt;stroke-linejoin:miter;stroke-opacity:1" transform="translate(-.145 -.146)"/><path sodipodi:nodetypes="sssss" inkscape:connector-curvature="0" d="M87.397 73.116c1.614.544 4.35-2.247 4.398-2.882.049-.634-13.675-14.57-14.32-14.842-.646-.273-4.347 2.543-4.318 3.103.03.56 14.24 14.62 14.24 14.62z" style="display:inline;fill:#8d2626;fill-opacity:1;fill-rule:evenodd;stroke:none;stroke-width:1px;stroke-linecap:butt;stroke-linejoin:miter;stroke-opacity:1" transform="translate(-.145 -.146)"/><path d="M74.943 58.4c-.235.263-.38.482-.362.594.03.193 2.436 2.665 5.064 5.324-2.113 2.113-4.556 4.56-4.556 4.56-.565 1.333 1.543 3.199 2.047 3.187.214-.005 2.669-2.326 5.33-4.907 2.19 2.191 4.674 4.672 4.674 4.672 1.334.565 3.201-1.542 3.19-2.045-.006-.217-2.38-2.726-5.004-5.43 2.546-2.518 4.837-4.83 4.948-5.053.27-.538-1.899-3.053-2.35-2.984-.194.03-2.72 2.488-5.42 5.158-2.468-2.492-4.719-4.72-4.937-4.83-.404-.202-1.92.968-2.624 1.755z" style="display:inline;fill:#e63232;fill-opacity:1;fill-rule:evenodd;stroke:none;stroke-width:1px;stroke-linecap:butt;stroke-linejoin:miter;stroke-opacity:1" inkscape:connector-curvature="0" transform="translate(-.145 -.146)"/><path sodipodi:nodetypes="sssss" inkscape:connector-curvature="0" d="M86.693 75.056c1.418-.944 5.351.06 5.563.66.211.6-9.21 17.219-9.764 17.65-.553.43-5.653.047-5.769-.502-.116-.549 9.97-17.808 9.97-17.808z" style="display:inline;fill:#8d2626;fill-opacity:1;fill-rule:evenodd;stroke:none;stroke-width:1px;stroke-linecap:butt;stroke-linejoin:miter;stroke-opacity:1" transform="translate(-.145 -.146)"/><path sodipodi:nodetypes="sssss" inkscape:connector-curvature="0" d="M86.834 76.396c1.142-.892 4.058-.323 4.177.166.118.49-8.194 15.101-8.644 15.501-.45.4-4.294.434-4.344-.018-.05-.453 8.811-15.65 8.811-15.65z" style="display:inline;fill:#e63232;fill-opacity:1;fill-rule:evenodd;stroke:none;stroke-width:1px;stroke-linecap:butt;stroke-linejoin:miter;stroke-opacity:1" transform="translate(-.145 -.146)"/></g></svg>