<?xml version="1.0" encoding="UTF-8" standalone="no"?>
<svg
   xmlns:dc="http://purl.org/dc/elements/1.1/"
   xmlns:cc="http://creativecommons.org/ns#"
   xmlns:rdf="http://www.w3.org/1999/02/22-rdf-syntax-ns#"
   xmlns:svg="http://www.w3.org/2000/svg"
   xmlns="http://www.w3.org/2000/svg"
   width="100"
   height="100"
   version="1.0"
   id="svg46">
  <defs
     id="defs48" />
  <metadata
     id="metadata6">
    <rdf:RDF>
      <cc:Work>
        <dc:format>image/svg+xml</dc:format>
        <dc:type
           rdf:resource="http://purl.org/dc/dcmitype/StillImage" />
        <dc:title></dc:title>
        <dc:date>2024</dc:date>
        <dc:creator>
          <cc:Agent>
            <dc:title>Timothée Giet</dc:title>
          </cc:Agent>
        </dc:creator>
        <cc:license
           rdf:resource="http://creativecommons.org/licenses/by-sa/4.0/" />
      </cc:Work>
      <cc:License
         rdf:about="http://creativecommons.org/licenses/by-sa/4.0/">
        <cc:permits
           rdf:resource="http://creativecommons.org/ns#Reproduction" />
        <cc:permits
           rdf:resource="http://creativecommons.org/ns#Distribution" />
        <cc:requires
           rdf:resource="http://creativecommons.org/ns#Notice" />
        <cc:requires
           rdf:resource="http://creativecommons.org/ns#Attribution" />
        <cc:permits
           rdf:resource="http://creativecommons.org/ns#DerivativeWorks" />
        <cc:requires
           rdf:resource="http://creativecommons.org/ns#ShareAlike" />
      </cc:License>
    </rdf:RDF>
  </metadata>
  <g
     id="g44">
    <circle
       r="42.712086"
       cy="56"
       cx="50"
       style="color:#000;display:inline;overflow:visible;visibility:visible;opacity:1;fill:#d08832;fill-opacity:1;fill-rule:nonzero;stroke:none;stroke-width:.5;stroke-linecap:round;stroke-linejoin:round;stroke-miterlimit:4;stroke-dasharray:none;stroke-dashoffset:0;stroke-opacity:1;marker:none;enable-background:accumulate"
       id="circle8" />
    <circle
       r="38.125557"
       cy="56"
       cx="50"
       style="color:#000;display:inline;overflow:visible;visibility:visible;opacity:1;fill:#e7dcd7;fill-opacity:1;fill-rule:nonzero;stroke:none;stroke-width:.5;stroke-linecap:round;stroke-linejoin:round;stroke-miterlimit:4;stroke-dasharray:none;stroke-dashoffset:0;stroke-opacity:1;marker:none;enable-background:accumulate"
       id="circle10" />
    <g
       id="g918"
       transform="translate(0,18)">
      <rect
         style="fill:#1e6fa2;fill-opacity:1;stroke:none"
         width="20"
         height="20"
         x="4"
         y="28"
         id="rect12" />
      <rect
         style="fill:#1b8bd2;fill-opacity:1;stroke:none"
         width="14"
         height="14"
         x="7"
         y="31"
         id="rect14" />
      <rect
         style="fill:#d76300;fill-opacity:1;stroke:none"
         width="20"
         height="20"
         x="28"
         y="28"
         ry="10"
         id="rect20"
         rx="10" />
      <rect
         style="fill:#ea8532;fill-opacity:1;stroke:none"
         width="14"
         height="14"
         x="31"
         y="31"
         ry="7"
         id="rect22"
         rx="7" />
      <g
         id="g891"
         transform="translate(48)">
        <path
           style="opacity:0.99956;fill:#5fa31e;fill-opacity:1;stroke-width:10;stroke-linecap:round;stroke-linejoin:round"
           d="M 4,48 14,28 24,48 Z"
           id="path885" />
        <path
           style="opacity:0.99956;fill:#75d21b;fill-opacity:1;stroke-width:10;stroke-linecap:round;stroke-linejoin:round"
           d="M 19,45 14,35 9,45 Z"
           id="path887" />
      </g>
      <g
         id="g1600"
         transform="matrix(3.3814519,0,0,3.3814519,38.706837,-0.86032281)"
         style="stroke-width:1.11771">
        <path
           style="fill:#86a9de;fill-opacity:1;fill-rule:evenodd;stroke:none;stroke-width:0.280732px;stroke-linecap:butt;stroke-linejoin:miter;stroke-opacity:1"
           d="m 11.297,9.032 2.13,-1.349 2.323,0.25 1.016,1.448 -0.387,2.147 -1.5,1.049 -0.388,0.949 0.34,0.949 -1.017,1.048 -1.55,-0.25 v -1.048 l 0.194,-0.4 -0.242,-0.849 0.436,-2.297 -0.968,0.45 z"
           id="path118" />
        <path
           style="font-style:normal;font-variant:normal;font-weight:400;font-stretch:normal;font-size:medium;line-height:100%;font-family:'Indigo Joker';text-align:start;writing-mode:lr-tb;text-anchor:start;fill:#375480;fill-opacity:1;stroke:none;stroke-width:0.295728px;stroke-linecap:butt;stroke-linejoin:miter;stroke-opacity:1"
           d="m 17.143,9.48 c -0.141,2.232 -1.034,2.186 -2.127,3.2 0.006,0.208 -0.053,0.412 -0.103,0.591 0,0.012 0.037,0.074 0.111,0.185 0.45,0.7 -0.24,1.703 -0.897,1.957 -0.814,0.314 -2.153,0.223 -2.17,-0.784 0.014,-0.305 0.142,-0.559 0.247,-0.82 a 1.028,1.028 0 0 1 -0.187,-0.141 c -0.04,-0.053 -0.06,-0.215 -0.06,-0.485 -0.092,-0.807 0.318,-2.011 0.367,-2.264 -0.247,0.14 -0.51,0.292 -0.786,0.448 C 11.251,10.482 11.149,9.718 10.906,9.013 A 1.179,1.179 0 0 1 10.829,8.802 c 2.568,-2.002 6.337,-1.9 6.314,0.679 z M 16.357,9.419 c -0.222,-0.976 -1,-1.464 -2.332,-1.464 -0.785,0.084 -1.637,0.28 -2.162,0.917 -0.074,0.088 -0.111,0.17 -0.111,0.247 0,0.159 0.054,0.535 0.162,1.128 0.006,0.042 0.04,0.088 0.103,0.141 0.668,-0.493 2.232,-0.995 2.247,0.203 -0.193,0.576 -0.826,0.416 -1.333,0.388 -0.283,0.57 -0.3,1.235 -0.3,1.948 a 0.36,0.36 0 0 0 0.035,0.141 c 0.034,0.076 0.074,0.115 0.12,0.115 0.54,-0.162 0.994,-0.111 1.538,-0.326 0.023,-0.17 0.054,-0.418 0.094,-0.74 1.433,-0.24 1.981,-1.373 1.94,-2.698 z m -1.982,4.187 c -0.587,-0.364 -1.777,0.207 -1.795,0.829 0.258,0.655 1.48,0.371 1.77,-0.062 0.217,-0.304 0.207,-0.516 0.025,-0.767 z"
           id="path120" />
      </g>
    </g>
  </g>
</svg>
