<!--Created with Inkscape (http://www.inkscape.org/)--><svg xmlns:dc="http://purl.org/dc/elements/1.1/" xmlns:cc="http://creativecommons.org/ns#" xmlns:rdf="http://www.w3.org/1999/02/22-rdf-syntax-ns#" xmlns="http://www.w3.org/2000/svg" xmlns:sodipodi="http://sodipodi.sourceforge.net/DTD/sodipodi-0.dtd" xmlns:inkscape="http://www.inkscape.org/namespaces/inkscape" width="3000" height="3000" viewBox="0 0 793.74998 793.75002" inkscape:version="0.92.4 (5da689c313, 2019-01-14)" sodipodi:docname="usa.svg"><sodipodi:namedview pagecolor="#ffffff" bordercolor="#666666" borderopacity="1.0" inkscape:pageopacity="0.0" inkscape:pageshadow="2" inkscape:zoom="0.20518053" inkscape:cx="517.87058" inkscape:cy="1766.3529" inkscape:document-units="px" inkscape:current-layer="layer1" showgrid="false" units="px" inkscape:window-width="1884" inkscape:window-height="1051" inkscape:window-x="0" inkscape:window-y="0" inkscape:window-maximized="1" inkscape:snap-global="false"/><metadata><rdf:RDF><cc:Work><dc:format>image/svg+xml</dc:format><dc:type rdf:resource="http://purl.org/dc/dcmitype/StillImage"/><dc:title/><dc:date>2020</dc:date><dc:creator><cc:Agent><dc:title>Timothée Giet</dc:title></cc:Agent></dc:creator><cc:license rdf:resource="http://creativecommons.org/licenses/by-sa/4.0/"/></cc:Work><cc:License rdf:about="http://creativecommons.org/licenses/by-sa/4.0/"><cc:permits rdf:resource="http://creativecommons.org/ns#Reproduction"/><cc:permits rdf:resource="http://creativecommons.org/ns#Distribution"/><cc:requires rdf:resource="http://creativecommons.org/ns#Notice"/><cc:requires rdf:resource="http://creativecommons.org/ns#Attribution"/><cc:permits rdf:resource="http://creativecommons.org/ns#DerivativeWorks"/><cc:requires rdf:resource="http://creativecommons.org/ns#ShareAlike"/></cc:License></rdf:RDF></metadata><g inkscape:label="Layer 1" inkscape:groupmode="layer" transform="translate(0 496.75)"><rect y="-496.75" x="-5.6936035e-05" height="793.75" width="793.75" style="display:inline;opacity:1;vector-effect:none;fill:#75c5f0;fill-opacity:1;stroke:none;stroke-width:.26449555;stroke-linecap:butt;stroke-linejoin:miter;stroke-miterlimit:4;stroke-dasharray:none;stroke-dashoffset:0;stroke-opacity:1"/><path style="fill:#cc5c18;stroke-width:.26458335;fill-opacity:1" d="M396.006-28.197c-2.195-.517-4.963-2.9-8.03-6.912-.698-.914-1.711-2.14-2.25-2.721a32.683 32.683 0 0 1-1.586-1.852c-.335-.437-.68-.854-.77-.926-.088-.073-.908-1.561-1.822-3.308-2.887-5.517-4.598-6.122-9.144-3.232-.73.463-1.562 1.058-1.85 1.32-1.554 1.416-2.708.855-6.8-3.31-2.18-2.22-3.817-4.379-5.668-7.478-2.16-3.616-2.346-3.782-4.585-4.098-1.876-.265-4.781.074-5.172.604-.691.937-1.5 1.053-7.795 1.121-7.124.077-7.294.045-10.863-2.038a162.7 162.7 0 0 0-2.685-1.545c-5.1-2.712-8.014-4.554-9.545-6.032l-1.25-1.207-3.512-.329c-1.933-.181-3.846-.412-4.253-.513-.9-.224-1.912-1.51-2.174-2.764-.474-2.267-1.932-3.939-5.553-6.368-3.258-2.186-5.03-3.582-5.579-4.397-.377-.56-.542-1.433-.665-3.522-.143-2.417-.284-3.036-1.083-4.763-1.472-3.181-1.556-3.438-1.725-5.242a9.89 9.89 0 0 0-.949-3.33c-1.2-2.457-1.326-3.276-.613-3.989.324-.324.753-.644.952-.71.682-.228-.023-.752-1.01-.752-2.458 0-3.138-1.569-3.609-8.334-.431-6.187-.342-6.955 1.327-11.377 1.234-3.274 1.7-5.446 1.705-7.946.005-2.771.456-4.42 1.781-6.518 1.61-2.55 3.16-6.521 4.787-12.259 1.232-4.348 1.29-4.921.983-9.585-.298-4.534.065-4.841 3.584-3.028 2.218 1.144 3.285 2.37 3.058 3.512-.076.38-.011.816.143.97.197.197.101.639-.325 1.492-.333.666-.535 1.281-.45 1.367.23.23 1.465-.648 2.03-1.444.668-.937 1.347-3.313 1.347-4.71 0-.628.052-1.142.115-1.142.266 0 4.362 1.022 5.705 1.424l4.63 1.385c5.978 1.79 10.15 2.706 15.479 3.402 11.527 1.506 20.664 1.837 44.979 1.629 22.852-.196 23.04-.215 25.09-2.587.624-.723 1.092-1.02 1.609-1.02.817 0 1.102.434 1.63 2.479.182.708.602 1.608.931 2 .575.683.672.705 2.358.53 2.03-.21 2.643-.084 5.629 1.158 1.91.794 2.594.934 5.357 1.1 1.743.103 3.165.267 3.16.364-.025.491-2.828 2.953-3.363 2.953-.504 0-2.479 1.624-2.986 2.455-.86 1.411-.706 1.934.67 2.28.657.165 1.877.37 2.713.456l1.52.155 3.413-2.306c1.877-1.269 3.336-2.114 3.241-1.88l-.333.824c-.12.298.03.398.596.4.415 0 1.392.299 2.17.661 1.86.865 3.085.835 6.422-.159 1.814-.54 3.08-.774 3.727-.688 1.096.145 2.592 1.088 2.592 1.634 0 .197.102.397.226.445.125.049.31.537.41 1.084.15.822.1 1.024-.293 1.156-1.104.37-1.93.767-1.93.927 0 .093.803.384 1.785.646 3.412.91 4.686 2.201 4.677 4.742-.005 1.332-.142 1.798-.853 2.896-.9 1.39-1.108 2.528-.464 2.528a.792.792 0 0 0 .596-.331c.116-.182.662-.718 1.213-1.19 2.031-1.744 3.558-.903 4.413 2.431.725 2.829.689 3.334-.388 5.362-1.026 1.935-1.123 2.589-.514 3.459.806 1.15 3.776.443 6.84-1.63 2.008-1.357 5.938-5.255 6.633-6.577.463-.88.481-1.085.164-1.852-.548-1.325-.648-2.442-.247-2.757.613-.48 2.033-.859 4.407-1.172 2.564-.338 3.447-.696 4.258-1.726.638-.812.694-1.805.155-2.748-.812-1.421-.46-2.765 1.412-5.39 2.222-3.116 3.74-4.146 8.016-5.443 5.718-1.734 7.626-2.698 9.06-4.58.878-1.15 1.323-2.458 1.734-5.092.844-5.418 1.617-7.66 2.998-8.69.603-.45.814-.483 1.4-.216.38.173 1.464.425 2.41.558 1.305.185 1.867.405 2.338.914.663.714.705.823 1.204 3.068.369 1.656 1.132 3.31 1.673 3.624.494.287 1.754 2.18 1.754 2.636 0 .804-3.992 4.233-5.462 4.693-.37.116-.623.474-.728 1.029-.087.468-.695 1.505-1.349 2.306-2.719 3.325-3.044 4.268-3.044 8.816v3.026l1.169.958c1.42 1.165 1.91 1.206 2.135.18.182-.832.748-.864 1.061-.061.256.655-2.423 3.02-5.715 5.044-3.526 2.169-6.332 5.055-4.913 5.055.193 0 1.1-.304 2.014-.675.914-.372 1.73-.608 1.814-.525.386.386-1.141 1.712-3.28 2.848-1.295.688-2.466 1.29-2.602 1.34-.136.048-.047.589.198 1.201.799 1.995.435 5.844-.644 6.82-.48.435-.526.433-.917-.05-.389-.48-.402-.467-.243.268.092.426.766 1.43 1.498 2.231 1.634 1.788 1.81 2.232 1.81 4.566 0 2.21-.423 4.066-1.153 5.061-.712.971-.981.92-.68-.13.492-1.717.316-2.551-.771-3.66-.56-.572-1.133-1.038-1.274-1.038-.441 0-1.678-1.46-1.678-1.982 0-.274-.429-1.327-.953-2.34-.525-1.013-.965-2.241-.979-2.729-.033-1.153-.376-1.127-.875.067-.487 1.166-.305 2.193.674 3.809.773 1.274 1.972 4.123 2.283 5.424.104.436.635 1.746 1.18 2.91 1.203 2.573 1.736 4.112 1.974 5.706.174 1.16.228 1.22 1.349 1.52 1.634.437 1.565.995-.453 3.646-1.208 1.588-1.312 2.225-.364 2.225 1.472 0 .196 1.454-2.336 2.664-2.222 1.06-3.054 1.958-3.443 3.709-.288 1.296-.418 1.466-1.718 2.247-1.677 1.007-2.027 1.468-2.86 3.764-.866 2.387-1.132 2.735-3.391 4.435-2.3 1.732-3.34 3.211-4.406 6.275-1.754 5.04-.44 10.733 3.386 14.684 1.959 2.023 2.158 2.352 3.076 5.084a44.792 44.792 0 0 0 1.459 3.705c2.488 5.398 2.758 9.23.87 12.357-1.07 1.77-2.055 1.598-4.66-.807-.29-.269-1.19-1.013-2-1.654-1.792-1.418-2.228-1.996-3.666-4.853-.993-1.974-2.478-4.403-2.921-4.779-.086-.073-.39-.49-.676-.926-.44-.67-.52-1.26-.523-3.795l-.003-3.002-.794-.644c-1.054-.856-4.82-2.745-5.472-2.745-.646 0-1.395.388-2.662 1.382-2.037 1.596-2.97 1.52-5.735-.466-.681-.49-1.769-1.03-2.416-1.2-1.038-.272-1.366-.238-2.765.286-2.109.79-3.075.909-4.236.526-.87-.287-1.004-.266-1.338.21-.212.304-.954.67-1.738.858-.752.18-1.962.697-2.688 1.148-1.096.682-1.65.838-3.267.92-1.473.074-1.946.19-1.946.48 0 .696 1.647 1.147 3.545.97 1.26-.119 1.746-.077 1.746.15 0 .478-.967 2.268-1.436 2.657-.75.622-.455 1.048 1.02 1.477 2.337.68 3.456 1.872 2.326 2.477-.639.342-2.73-.385-4.376-1.521-.701-.484-1.325-.83-1.386-.77-.06.061.085.61.325 1.22.239.609.367 1.176.283 1.26-.083.083-.83-.283-1.657-.812-1.297-.83-1.567-.914-1.94-.61-.24.195-.928.62-1.53.942l-1.097.588-.189-2.647c-.143-1.994-.28-2.646-.558-2.646-.265 0-.368.369-.368 1.323 0 .727-.078 1.323-.173 1.323-.096 0-2.127-.673-4.513-1.495l-4.34-1.494-2.168.33a87.444 87.444 0 0 1-3.578.47c-1.217.122-1.447.236-1.675.834-1.27 3.331-1.907 3.933-5.35 5.06-4.563 1.49-6.203 5.515-4.51 11.065.702 2.304.857 3.454.534 3.977-.217.35-2.212.357-3.671.014zM292.1-105.711c0-.137-.12-.25-.265-.25-.145 0-.264.186-.264.413 0 .227.119.339.264.249.146-.09.265-.276.265-.412zm195.527-12.568c0-.437-.418-.51-.661-.117-.216.35.1.845.415.65.135-.083.246-.323.246-.533zm-49.858-1.985c.738-.771.776-.923.77-3.11-.006-2.05-.114-2.554-1.002-4.68-.547-1.309-1.066-2.882-1.152-3.495-.23-1.644.63-5.833 1.417-6.89.637-.855 1.406-1.15 1.406-.538 0 .216.134.188.406-.084.5-.5.9-2.866.615-3.637-.449-1.214-3.321-.48-5.678 1.452-1.889 1.548-3.262 4.313-1.639 3.299l.56-.35-.209 3.138c-.114 1.725-.282 4.15-.372 5.386-.24 3.264.059 5.766.913 7.669 1.204 2.683 2.556 3.31 3.965 1.84zM300.302-63.098c-.218-.141-.278-.256-.132-.256.145 0 .443.115.661.256.219.141.278.257.133.257-.146 0-.444-.116-.662-.257z" inkscape:connector-curvature="0"/></g></svg>