<?xml version="1.0" encoding="UTF-8" standalone="no"?>
<!-- Created with Inkscape (http://www.inkscape.org/) -->

<svg
   xmlns:dc="http://purl.org/dc/elements/1.1/"
   xmlns:cc="http://creativecommons.org/ns#"
   xmlns:rdf="http://www.w3.org/1999/02/22-rdf-syntax-ns#"
   xmlns:svg="http://www.w3.org/2000/svg"
   xmlns="http://www.w3.org/2000/svg"
   xmlns:sodipodi="http://sodipodi.sourceforge.net/DTD/sodipodi-0.dtd"
   xmlns:inkscape="http://www.inkscape.org/namespaces/inkscape"
   id="svg2"
   version="1.1"
   inkscape:version="0.91 r13725"
   width="224.875"
   height="392.37524"
   sodipodi:docname="disc_support.svg">
  <metadata
     id="metadata8">
    <rdf:RDF>
      <cc:Work
         rdf:about="">
        <dc:format>image/svg+xml</dc:format>
        <dc:type
           rdf:resource="http://purl.org/dc/dcmitype/StillImage" />
      </cc:Work>
    </rdf:RDF>
  </metadata>
  <defs
     id="defs6" />
  <sodipodi:namedview
     pagecolor="#ffffff"
     bordercolor="#666666"
     borderopacity="1"
     objecttolerance="10"
     gridtolerance="10"
     guidetolerance="10"
     inkscape:pageopacity="0"
     inkscape:pageshadow="2"
     inkscape:window-width="1366"
     inkscape:window-height="748"
     id="namedview4"
     showgrid="false"
     borderlayer="true"
     fit-margin-top="0"
     fit-margin-left="0"
     fit-margin-right="0"
     fit-margin-bottom="0"
     inkscape:zoom="1.1889169"
     inkscape:cx="-65.615128"
     inkscape:cy="175.7774"
     inkscape:window-x="-2"
     inkscape:window-y="-3"
     inkscape:window-maximized="1"
     inkscape:current-layer="svg2" />
  <path
     class="fil28"
     d="M 8.1751535,347.56547 H 216.69404 c 3.37885,0 6.17517,2.83571 6.17517,6.26215 v 30.28685 c 0,3.42645 -2.79632,6.26215 -6.17517,6.26215 H 8.1751535 C 4.7963152,390.37662 2,387.58031 2,384.11447 v -30.28685 c 0,-3.42644 2.7574634,-6.26215 6.1751535,-6.26215 z"
     id="path145"
     inkscape:connector-curvature="0"
     style="fill:#9f9f9f;fill-opacity:1;fill-rule:evenodd;stroke:#ffffff;stroke-width:3.99999976000000013;stroke-miterlimit:4;stroke-opacity:1;stroke-dasharray:none" />
  <path
     class="fil28"
     d="m 87.345563,5.3055973 c 16.726027,-4.46061508 34.641547,-4.31192798 50.178077,0 0.78348,0.217442 1.486,22.6906567 1.486,50.1082147 l 0,242.348078 c 0,27.41762 -0.74377,49.77623 -1.486,50.10821 -15.04382,6.72881 -30.5082,7.99047 -50.178077,0 -0.753303,-0.30601 -1.485992,-22.37539 -1.485992,-50.10821 l 0,-242.348078 c 0,-27.417558 0.691331,-49.8962887 1.485992,-50.1082147 z"
     id="path145-2"
     inkscape:connector-curvature="0"
     style="fill:#9f9f9f;fill-opacity:1;fill-rule:evenodd;stroke:#ffffff;stroke-width:4;stroke-miterlimit:4;stroke-opacity:1;stroke-dasharray:none"
     sodipodi:nodetypes="sssssssss" />
</svg>
